<?xml version="1.0" encoding="utf-8"?>
<svg version="1.1" xmlns:xlink="http://www.w3.org/1999/xlink" width="2px" height="5px" xmlns="http://www.w3.org/2000/svg">
  <defs>
    <pattern id="BGPattern" patternUnits="userSpaceOnUse" alignment="0 0" imageRepeat="None" />
    <mask fill="white" id="Clip4497">
      <path d="M 0.240000000000002 4.249999997528042  C 0.2454718665939346 4.66582597618295  0.5841380219911532 5.000035997762136  0.9999999999999982 4.999999997091814  C 1.4197364098713976 4.999999997091814  1.7600000000000016 4.659736407161128  1.7600000000000016 4.239999997533859  L 1.7600000000000016 0.7599999995579559  C 1.7600000000000016 0.3402635899306874  1.4197364098714047 0  1 0  C 0.5802635901285988 0  0.240000000000002 0.3402635899306874  0.240000000000002 0.7599999995579559  L 0.240000000000002 4.249999997528042  Z " fill-rule="evenodd" />
    </mask>
  </defs>
  <g transform="matrix(1 0 0 1 -15 -4 )">
    <path d="M 0.240000000000002 4.249999997528042  C 0.2454718665939346 4.66582597618295  0.5841380219911532 5.000035997762136  0.9999999999999982 4.999999997091814  C 1.4197364098713976 4.999999997091814  1.7600000000000016 4.659736407161128  1.7600000000000016 4.239999997533859  L 1.7600000000000016 0.7599999995579559  C 1.7600000000000016 0.3402635899306874  1.4197364098714047 0  1 0  C 0.5802635901285988 0  0.240000000000002 0.3402635899306874  0.240000000000002 0.7599999995579559  L 0.240000000000002 4.249999997528042  Z " fill-rule="nonzero" fill="rgba(0, 0, 0, 1)" stroke="none" transform="matrix(1 0 0 1 15 4 )" class="fill" />
    <path d="M 0.240000000000002 4.249999997528042  C 0.2454718665939346 4.66582597618295  0.5841380219911532 5.000035997762136  0.9999999999999982 4.999999997091814  C 1.4197364098713976 4.999999997091814  1.7600000000000016 4.659736407161128  1.7600000000000016 4.239999997533859  L 1.7600000000000016 0.7599999995579559  C 1.7600000000000016 0.3402635899306874  1.4197364098714047 0  1 0  C 0.5802635901285988 0  0.240000000000002 0.3402635899306874  0.240000000000002 0.7599999995579559  L 0.240000000000002 4.249999997528042  Z " stroke-width="0" stroke-dasharray="0" stroke="rgba(255, 255, 255, 0)" fill="none" transform="matrix(1 0 0 1 15 4 )" class="stroke" mask="url(#Clip4497)" />
  </g>
</svg>