<?xml version="1.0" encoding="utf-8"?>
<svg version="1.1" xmlns:xlink="http://www.w3.org/1999/xlink" width="30px" height="29px" xmlns="http://www.w3.org/2000/svg">
  <defs>
    <pattern id="BGPattern" patternUnits="userSpaceOnUse" alignment="0 0" imageRepeat="None" />
    <mask fill="white" id="Clip4254">
      <path d="M 26 21  L 26 18.001  C 25.997465176210994 15.792398559977538  24.207701375977052 14.002590025713747  21.9991 14  L 8.001100000000001 14  C 6.8964579535359025 13.998897732587965  6.001212676406401 13.103741930774753  6 11.9991  L 5.999999999999999 8.858  C 7.39991015100434 8.493113204185535  8.49316422310518 7.399897383163106  8.8581 6  L 21.1421 6  C 21.598098284159526 7.76607376044901  23.191090209569303 9  25.015083346207415 9  C 27.22422234553059 9  29.015083346207415 7.209138999323173  29.015083346207415 5  C 29.015083346207415 2.790861000676826  27.22422234553059 1  25.015083346207415 1  C 23.1910902095693 1  21.598098284159526 2.2339262395509882  21.1421 4  L 8.8581 4  C 8.405355024530394 2.234515822256008  6.8142226245153985 0.9999316136632724  4.991611202769843 0.9999316136632724  C 2.787111395345249 0.9999316136632724  1.0000112027698442 2.787031806238677  1.0000112027698442 4.9915316136632715  C 1.0000112027698442 6.814112435208214  2.234554783032583 8.405226285049245  4 8.858  L 4 11.9991  C 4.002645117120127 14.207717551695632  5.792482318840959 15.997465286159873  8.0011 16  L 21.9991 16  C 23.103725755351604 16.00115757044457  23.9988976346222 16.89637418817682  24 18.001  L 24 21  L 21 21  L 21 24  L 8.8581 24  C 8.402101715840471 22.23392623955099  6.809109790430698 21  4.985116653792583 21  C 2.7759776544694095 21  0.9851166537925833 22.790861000676827  0.9851166537925833 25  C 0.9851166537925833 27.209138999323173  2.7759776544694095 29  4.985116653792583 29  C 6.809109790430698 29  8.402101715840471 27.76607376044901  8.8581 26  L 21 26  L 21 29  L 29 29  L 29 21  L 26 21  Z M 23 5  C 23.00104743668931 3.8958646538540083  23.89586465385401 3.0010474366893094  25 3  C 26.104569499661586 3  27 3.8954305003384135  27 5  C 27 6.1045694996615865  26.104569499661586 7  25 7  C 23.895430500338414 7  23 6.1045694996615865  23 5  Z M 5 7  C 3.895864653854009 6.9989525633106915  3.0010474366893076 6.104135346145991  3 5  C 3 3.8954305003384135  3.895430500338413 3  5 3  C 6.1045694996615865 3  7 3.8954305003384135  7 5  C 7 6.1045694996615865  6.1045694996615865 7  5 7  Z M 7 25  C 6.998897540340658 26.10411252349923  6.104112523499228 26.998897540340657  5 27  C 3.895430500338413 27  3 26.104569499661586  3 25  C 3 23.895430500338414  3.895430500338413 23  5 23  C 6.1045694996615865 23  7 23.895430500338414  7 25  Z M 23 23  L 27 23  L 27 27  L 23 27  L 23 23  Z " fill-rule="evenodd" />
    </mask>
  </defs>
  <g transform="matrix(1 0 0 1 -1 -1 )">
    <path d="M 26 21  L 26 18.001  C 25.997465176210994 15.792398559977538  24.207701375977052 14.002590025713747  21.9991 14  L 8.001100000000001 14  C 6.8964579535359025 13.998897732587965  6.001212676406401 13.103741930774753  6 11.9991  L 5.999999999999999 8.858  C 7.39991015100434 8.493113204185535  8.49316422310518 7.399897383163106  8.8581 6  L 21.1421 6  C 21.598098284159526 7.76607376044901  23.191090209569303 9  25.015083346207415 9  C 27.22422234553059 9  29.015083346207415 7.209138999323173  29.015083346207415 5  C 29.015083346207415 2.790861000676826  27.22422234553059 1  25.015083346207415 1  C 23.1910902095693 1  21.598098284159526 2.2339262395509882  21.1421 4  L 8.8581 4  C 8.405355024530394 2.234515822256008  6.8142226245153985 0.9999316136632724  4.991611202769843 0.9999316136632724  C 2.787111395345249 0.9999316136632724  1.0000112027698442 2.787031806238677  1.0000112027698442 4.9915316136632715  C 1.0000112027698442 6.814112435208214  2.234554783032583 8.405226285049245  4 8.858  L 4 11.9991  C 4.002645117120127 14.207717551695632  5.792482318840959 15.997465286159873  8.0011 16  L 21.9991 16  C 23.103725755351604 16.00115757044457  23.9988976346222 16.89637418817682  24 18.001  L 24 21  L 21 21  L 21 24  L 8.8581 24  C 8.402101715840471 22.23392623955099  6.809109790430698 21  4.985116653792583 21  C 2.7759776544694095 21  0.9851166537925833 22.790861000676827  0.9851166537925833 25  C 0.9851166537925833 27.209138999323173  2.7759776544694095 29  4.985116653792583 29  C 6.809109790430698 29  8.402101715840471 27.76607376044901  8.8581 26  L 21 26  L 21 29  L 29 29  L 29 21  L 26 21  Z M 23 5  C 23.00104743668931 3.8958646538540083  23.89586465385401 3.0010474366893094  25 3  C 26.104569499661586 3  27 3.8954305003384135  27 5  C 27 6.1045694996615865  26.104569499661586 7  25 7  C 23.895430500338414 7  23 6.1045694996615865  23 5  Z M 5 7  C 3.895864653854009 6.9989525633106915  3.0010474366893076 6.104135346145991  3 5  C 3 3.8954305003384135  3.895430500338413 3  5 3  C 6.1045694996615865 3  7 3.8954305003384135  7 5  C 7 6.1045694996615865  6.1045694996615865 7  5 7  Z M 7 25  C 6.998897540340658 26.10411252349923  6.104112523499228 26.998897540340657  5 27  C 3.895430500338413 27  3 26.104569499661586  3 25  C 3 23.895430500338414  3.895430500338413 23  5 23  C 6.1045694996615865 23  7 23.895430500338414  7 25  Z M 23 23  L 27 23  L 27 27  L 23 27  L 23 23  Z " fill-rule="nonzero" fill="rgba(0, 0, 0, 1)" stroke="none" transform="matrix(1 0 0 1 1 1 )" class="fill" />
    <path d="M 26 21  L 26 18.001  C 25.997465176210994 15.792398559977538  24.207701375977052 14.002590025713747  21.9991 14  L 8.001100000000001 14  C 6.8964579535359025 13.998897732587965  6.001212676406401 13.103741930774753  6 11.9991  L 5.999999999999999 8.858  C 7.39991015100434 8.493113204185535  8.49316422310518 7.399897383163106  8.8581 6  L 21.1421 6  C 21.598098284159526 7.76607376044901  23.191090209569303 9  25.015083346207415 9  C 27.22422234553059 9  29.015083346207415 7.209138999323173  29.015083346207415 5  C 29.015083346207415 2.790861000676826  27.22422234553059 1  25.015083346207415 1  C 23.1910902095693 1  21.598098284159526 2.2339262395509882  21.1421 4  L 8.8581 4  C 8.405355024530394 2.234515822256008  6.8142226245153985 0.9999316136632724  4.991611202769843 0.9999316136632724  C 2.787111395345249 0.9999316136632724  1.0000112027698442 2.787031806238677  1.0000112027698442 4.9915316136632715  C 1.0000112027698442 6.814112435208214  2.234554783032583 8.405226285049245  4 8.858  L 4 11.9991  C 4.002645117120127 14.207717551695632  5.792482318840959 15.997465286159873  8.0011 16  L 21.9991 16  C 23.103725755351604 16.00115757044457  23.9988976346222 16.89637418817682  24 18.001  L 24 21  L 21 21  L 21 24  L 8.8581 24  C 8.402101715840471 22.23392623955099  6.809109790430698 21  4.985116653792583 21  C 2.7759776544694095 21  0.9851166537925833 22.790861000676827  0.9851166537925833 25  C 0.9851166537925833 27.209138999323173  2.7759776544694095 29  4.985116653792583 29  C 6.809109790430698 29  8.402101715840471 27.76607376044901  8.8581 26  L 21 26  L 21 29  L 29 29  L 29 21  L 26 21  Z " stroke-width="0" stroke-dasharray="0" stroke="rgba(255, 255, 255, 0)" fill="none" transform="matrix(1 0 0 1 1 1 )" class="stroke" mask="url(#Clip4254)" />
    <path d="M 23 5  C 23.00104743668931 3.8958646538540083  23.89586465385401 3.0010474366893094  25 3  C 26.104569499661586 3  27 3.8954305003384135  27 5  C 27 6.1045694996615865  26.104569499661586 7  25 7  C 23.895430500338414 7  23 6.1045694996615865  23 5  Z " stroke-width="0" stroke-dasharray="0" stroke="rgba(255, 255, 255, 0)" fill="none" transform="matrix(1 0 0 1 1 1 )" class="stroke" mask="url(#Clip4254)" />
    <path d="M 5 7  C 3.895864653854009 6.9989525633106915  3.0010474366893076 6.104135346145991  3 5  C 3 3.8954305003384135  3.895430500338413 3  5 3  C 6.1045694996615865 3  7 3.8954305003384135  7 5  C 7 6.1045694996615865  6.1045694996615865 7  5 7  Z " stroke-width="0" stroke-dasharray="0" stroke="rgba(255, 255, 255, 0)" fill="none" transform="matrix(1 0 0 1 1 1 )" class="stroke" mask="url(#Clip4254)" />
    <path d="M 7 25  C 6.998897540340658 26.10411252349923  6.104112523499228 26.998897540340657  5 27  C 3.895430500338413 27  3 26.104569499661586  3 25  C 3 23.895430500338414  3.895430500338413 23  5 23  C 6.1045694996615865 23  7 23.895430500338414  7 25  Z " stroke-width="0" stroke-dasharray="0" stroke="rgba(255, 255, 255, 0)" fill="none" transform="matrix(1 0 0 1 1 1 )" class="stroke" mask="url(#Clip4254)" />
    <path d="M 23 23  L 27 23  L 27 27  L 23 27  L 23 23  Z " stroke-width="0" stroke-dasharray="0" stroke="rgba(255, 255, 255, 0)" fill="none" transform="matrix(1 0 0 1 1 1 )" class="stroke" mask="url(#Clip4254)" />
  </g>
</svg>