<?xml version="1.0" encoding="utf-8"?>
<svg version="1.1" xmlns:xlink="http://www.w3.org/1999/xlink" width="18px" height="24px" xmlns="http://www.w3.org/2000/svg">
  <defs>
    <pattern id="BGPattern" patternUnits="userSpaceOnUse" alignment="0 0" imageRepeat="None" />
    <mask fill="white" id="Clip4837">
      <path d="M 8.856 24  L 8.8545 24  C 14.101500000000001 24  17.710499999999996 21.517500000000002  17.710499999999996 11.985  C 17.710499999999996 2.4825000000000004  14.101499999999998 0  8.855999999999998 0  C 3.6105 0  0 2.4825  0 12.015  C 0 21.516  3.6105 24  8.856 24  Z M 7.6995000000000005 12.015  L 7.699499999999999 12.0135  L 3.4125000000000005 7.6995000000000005  L 4.6530000000000005 6.459  L 8.0655 9.870000000000001  L 8.0655 1.6919999999999997  L 14.271 7.896000000000001  L 10.180500000000002 12.015  L 14.298000000000002 16.1325  L 8.094 22.338  L 8.094 14.129999999999999  L 4.6530000000000005 17.540999999999997  L 3.4125000000000005 16.3005  L 7.6995000000000005 12.015  Z M 11.788499999999999 7.896000000000001  L 9.814499999999999 5.922  L 9.814499999999999 9.870000000000001  L 11.788499999999999 7.896000000000001  Z M 9.814499999999999 14.129999999999999  L 9.814499999999999 18.078  L 11.788499999999999 16.104  L 9.814499999999999 14.129999999999999  Z " fill-rule="evenodd" />
    </mask>
  </defs>
  <g>
    <path d="M 8.856 24  L 8.8545 24  C 14.101500000000001 24  17.710499999999996 21.517500000000002  17.710499999999996 11.985  C 17.710499999999996 2.4825000000000004  14.101499999999998 0  8.855999999999998 0  C 3.6105 0  0 2.4825  0 12.015  C 0 21.516  3.6105 24  8.856 24  Z M 7.6995000000000005 12.015  L 7.699499999999999 12.0135  L 3.4125000000000005 7.6995000000000005  L 4.6530000000000005 6.459  L 8.0655 9.870000000000001  L 8.0655 1.6919999999999997  L 14.271 7.896000000000001  L 10.180500000000002 12.015  L 14.298000000000002 16.1325  L 8.094 22.338  L 8.094 14.129999999999999  L 4.6530000000000005 17.540999999999997  L 3.4125000000000005 16.3005  L 7.6995000000000005 12.015  Z M 11.788499999999999 7.896000000000001  L 9.814499999999999 5.922  L 9.814499999999999 9.870000000000001  L 11.788499999999999 7.896000000000001  Z M 9.814499999999999 14.129999999999999  L 9.814499999999999 18.078  L 11.788499999999999 16.104  L 9.814499999999999 14.129999999999999  Z " fill-rule="nonzero" fill="rgba(0, 0, 0, 1)" stroke="none" class="fill" />
    <path d="M 8.856 24  L 8.8545 24  C 14.101500000000001 24  17.710499999999996 21.517500000000002  17.710499999999996 11.985  C 17.710499999999996 2.4825000000000004  14.101499999999998 0  8.855999999999998 0  C 3.6105 0  0 2.4825  0 12.015  C 0 21.516  3.6105 24  8.856 24  Z " stroke-width="0" stroke-dasharray="0" stroke="rgba(255, 255, 255, 0)" fill="none" class="stroke" mask="url(#Clip4837)" />
    <path d="M 7.6995000000000005 12.015  L 7.699499999999999 12.0135  L 3.4125000000000005 7.6995000000000005  L 4.6530000000000005 6.459  L 8.0655 9.870000000000001  L 8.0655 1.6919999999999997  L 14.271 7.896000000000001  L 10.180500000000002 12.015  L 14.298000000000002 16.1325  L 8.094 22.338  L 8.094 14.129999999999999  L 4.6530000000000005 17.540999999999997  L 3.4125000000000005 16.3005  L 7.6995000000000005 12.015  Z " stroke-width="0" stroke-dasharray="0" stroke="rgba(255, 255, 255, 0)" fill="none" class="stroke" mask="url(#Clip4837)" />
    <path d="M 11.788499999999999 7.896000000000001  L 9.814499999999999 5.922  L 9.814499999999999 9.870000000000001  L 11.788499999999999 7.896000000000001  Z " stroke-width="0" stroke-dasharray="0" stroke="rgba(255, 255, 255, 0)" fill="none" class="stroke" mask="url(#Clip4837)" />
    <path d="M 9.814499999999999 14.129999999999999  L 9.814499999999999 18.078  L 11.788499999999999 16.104  L 9.814499999999999 14.129999999999999  Z " stroke-width="0" stroke-dasharray="0" stroke="rgba(255, 255, 255, 0)" fill="none" class="stroke" mask="url(#Clip4837)" />
  </g>
</svg>