<?xml version="1.0" encoding="utf-8"?>
<svg version="1.1" xmlns:xlink="http://www.w3.org/1999/xlink" width="24px" height="24px" xmlns="http://www.w3.org/2000/svg">
  <defs>
    <pattern id="BGPattern" patternUnits="userSpaceOnUse" alignment="0 0" imageRepeat="None" />
    <mask fill="white" id="Clip3525">
      <path d="M 20 10  L 22 10  C 23.104569499661586 10  24 9.104569499661586  24 8  L 24 2  C 24 0.8954305003384135  23.104569499661586 0  22 0  L 16 0  C 14.895430500338414 0  14 0.8954305003384135  14 2  L 14 8  C 14 9.104569499661586  14.895430500338414 10  16 10  L 18 10  L 17.999999999999996 14.099999999999998  C 16.035711266179597 14.500604772964369  14.500604772964369 16.035711266179597  14.100000000000001 18  L 10 18  L 10 16  C 10 14.895430500338414  9.104569499661586 14  8 14  L 6 14  L 5.999999999999998 9.899999999999999  C 8.327955589886443 9.42480805507653  9.999999999999996 7.3769802390509795  9.999999999999996 5.001020514433643  C 9.999999999999996 2.2395967652796767  7.761423749153966 0.0010205144336437044  4.999999999999998 0.0010205144336437044  C 2.2385762508460325 0.0010205144336437044  0 2.2395967652796758  0 5.001020514433643  C 0 7.3769802390509795  1.6720444101135539 9.42480805507653  4 9.9  L 4 14  L 2.0000000000000004 14  C 0.895430500338414 14  0 14.895430500338414  0 16  L 0 22  C 0 23.104569499661586  0.895430500338414 24  2.0000000000000004 24  L 8 24  C 9.104569499661586 24  10 23.104569499661586  10 22  L 10 20  L 14.099999999999998 20  C 14.575702894441239 22.327349343922183  16.623249528377432 23.998717526990507  18.998717526990507 23.998717526990507  C 21.760141276144473 23.998717526990507  23.998717526990507 21.760141276144473  23.998717526990507 18.998717526990507  C 23.998717526990507 16.623249528377432  22.327349343922183 14.575702894441239  20 14.100000000000001  L 20 10  Z M 5 8  C 3.3431457505076203 8  2.0000000000000004 6.65685424949238  2.0000000000000004 5  C 2.0000000000000004 3.3431457505076203  3.3431457505076203 2  5 2  C 6.65685424949238 2  8 3.3431457505076203  8 5  C 8 6.65685424949238  6.65685424949238 8  5 8  Z M 8 16  L 8 22  L 2.0000000000000004 22  L 2.0000000000000004 16  L 8 16  Z M 19 16  C 20.656854249492376 16  22 17.343145750507617  22 19  C 22 20.656854249492376  20.656854249492376 22  19 22  C 17.343145750507617 22  16 20.656854249492376  16 19  C 16 17.343145750507617  17.343145750507617 16  19 16  Z M 16 8  L 16 2  L 22 2  L 22 8  L 16 8  Z " fill-rule="evenodd" />
    </mask>
  </defs>
  <g transform="matrix(1 0 0 1 -4 -4 )">
    <path d="M 20 10  L 22 10  C 23.104569499661586 10  24 9.104569499661586  24 8  L 24 2  C 24 0.8954305003384135  23.104569499661586 0  22 0  L 16 0  C 14.895430500338414 0  14 0.8954305003384135  14 2  L 14 8  C 14 9.104569499661586  14.895430500338414 10  16 10  L 18 10  L 17.999999999999996 14.099999999999998  C 16.035711266179597 14.500604772964369  14.500604772964369 16.035711266179597  14.100000000000001 18  L 10 18  L 10 16  C 10 14.895430500338414  9.104569499661586 14  8 14  L 6 14  L 5.999999999999998 9.899999999999999  C 8.327955589886443 9.42480805507653  9.999999999999996 7.3769802390509795  9.999999999999996 5.001020514433643  C 9.999999999999996 2.2395967652796767  7.761423749153966 0.0010205144336437044  4.999999999999998 0.0010205144336437044  C 2.2385762508460325 0.0010205144336437044  0 2.2395967652796758  0 5.001020514433643  C 0 7.3769802390509795  1.6720444101135539 9.42480805507653  4 9.9  L 4 14  L 2.0000000000000004 14  C 0.895430500338414 14  0 14.895430500338414  0 16  L 0 22  C 0 23.104569499661586  0.895430500338414 24  2.0000000000000004 24  L 8 24  C 9.104569499661586 24  10 23.104569499661586  10 22  L 10 20  L 14.099999999999998 20  C 14.575702894441239 22.327349343922183  16.623249528377432 23.998717526990507  18.998717526990507 23.998717526990507  C 21.760141276144473 23.998717526990507  23.998717526990507 21.760141276144473  23.998717526990507 18.998717526990507  C 23.998717526990507 16.623249528377432  22.327349343922183 14.575702894441239  20 14.100000000000001  L 20 10  Z M 5 8  C 3.3431457505076203 8  2.0000000000000004 6.65685424949238  2.0000000000000004 5  C 2.0000000000000004 3.3431457505076203  3.3431457505076203 2  5 2  C 6.65685424949238 2  8 3.3431457505076203  8 5  C 8 6.65685424949238  6.65685424949238 8  5 8  Z M 8 16  L 8 22  L 2.0000000000000004 22  L 2.0000000000000004 16  L 8 16  Z M 19 16  C 20.656854249492376 16  22 17.343145750507617  22 19  C 22 20.656854249492376  20.656854249492376 22  19 22  C 17.343145750507617 22  16 20.656854249492376  16 19  C 16 17.343145750507617  17.343145750507617 16  19 16  Z M 16 8  L 16 2  L 22 2  L 22 8  L 16 8  Z " fill-rule="nonzero" fill="rgba(0, 0, 0, 1)" stroke="none" transform="matrix(1 0 0 1 4 4 )" class="fill" />
    <path d="M 20 10  L 22 10  C 23.104569499661586 10  24 9.104569499661586  24 8  L 24 2  C 24 0.8954305003384135  23.104569499661586 0  22 0  L 16 0  C 14.895430500338414 0  14 0.8954305003384135  14 2  L 14 8  C 14 9.104569499661586  14.895430500338414 10  16 10  L 18 10  L 17.999999999999996 14.099999999999998  C 16.035711266179597 14.500604772964369  14.500604772964369 16.035711266179597  14.100000000000001 18  L 10 18  L 10 16  C 10 14.895430500338414  9.104569499661586 14  8 14  L 6 14  L 5.999999999999998 9.899999999999999  C 8.327955589886443 9.42480805507653  9.999999999999996 7.3769802390509795  9.999999999999996 5.001020514433643  C 9.999999999999996 2.2395967652796767  7.761423749153966 0.0010205144336437044  4.999999999999998 0.0010205144336437044  C 2.2385762508460325 0.0010205144336437044  0 2.2395967652796758  0 5.001020514433643  C 0 7.3769802390509795  1.6720444101135539 9.42480805507653  4 9.9  L 4 14  L 2.0000000000000004 14  C 0.895430500338414 14  0 14.895430500338414  0 16  L 0 22  C 0 23.104569499661586  0.895430500338414 24  2.0000000000000004 24  L 8 24  C 9.104569499661586 24  10 23.104569499661586  10 22  L 10 20  L 14.099999999999998 20  C 14.575702894441239 22.327349343922183  16.623249528377432 23.998717526990507  18.998717526990507 23.998717526990507  C 21.760141276144473 23.998717526990507  23.998717526990507 21.760141276144473  23.998717526990507 18.998717526990507  C 23.998717526990507 16.623249528377432  22.327349343922183 14.575702894441239  20 14.100000000000001  L 20 10  Z " stroke-width="0" stroke-dasharray="0" stroke="rgba(255, 255, 255, 0)" fill="none" transform="matrix(1 0 0 1 4 4 )" class="stroke" mask="url(#Clip3525)" />
    <path d="M 5 8  C 3.3431457505076203 8  2.0000000000000004 6.65685424949238  2.0000000000000004 5  C 2.0000000000000004 3.3431457505076203  3.3431457505076203 2  5 2  C 6.65685424949238 2  8 3.3431457505076203  8 5  C 8 6.65685424949238  6.65685424949238 8  5 8  Z " stroke-width="0" stroke-dasharray="0" stroke="rgba(255, 255, 255, 0)" fill="none" transform="matrix(1 0 0 1 4 4 )" class="stroke" mask="url(#Clip3525)" />
    <path d="M 8 16  L 8 22  L 2.0000000000000004 22  L 2.0000000000000004 16  L 8 16  Z " stroke-width="0" stroke-dasharray="0" stroke="rgba(255, 255, 255, 0)" fill="none" transform="matrix(1 0 0 1 4 4 )" class="stroke" mask="url(#Clip3525)" />
    <path d="M 19 16  C 20.656854249492376 16  22 17.343145750507617  22 19  C 22 20.656854249492376  20.656854249492376 22  19 22  C 17.343145750507617 22  16 20.656854249492376  16 19  C 16 17.343145750507617  17.343145750507617 16  19 16  Z " stroke-width="0" stroke-dasharray="0" stroke="rgba(255, 255, 255, 0)" fill="none" transform="matrix(1 0 0 1 4 4 )" class="stroke" mask="url(#Clip3525)" />
    <path d="M 16 8  L 16 2  L 22 2  L 22 8  L 16 8  Z " stroke-width="0" stroke-dasharray="0" stroke="rgba(255, 255, 255, 0)" fill="none" transform="matrix(1 0 0 1 4 4 )" class="stroke" mask="url(#Clip3525)" />
  </g>
</svg>