<?xml version="1.0" encoding="utf-8"?>
<svg version="1.1" xmlns:xlink="http://www.w3.org/1999/xlink" width="20px" height="26px" xmlns="http://www.w3.org/2000/svg">
  <defs>
    <pattern id="BGPattern" patternUnits="userSpaceOnUse" alignment="0 0" imageRepeat="None" />
    <mask fill="white" id="Clip3633">
      <path d="M 20 2  C 20 0.8954305003384131  19.104569499661586 0  18 0  L 2 0  C 0.8954305003384135 0  0 0.8954305003384131  0 2  L 0 24  C 0 25.104569499661586  0.8954305003384135 26  2 26  L 18 26  C 19.104569499661586 26  20 25.104569499661586  20 24  L 20 2  Z M 2 2  L 18 2  L 18 8  L 2 8  L 2 2  Z M 18 16  L 2 16  L 2 10  L 18 10  L 18 16  Z M 18 24  L 2 24  L 2 18  L 18 18  L 18 24  Z " fill-rule="evenodd" />
    </mask>
  </defs>
  <g transform="matrix(1 0 0 1 -6 -3 )">
    <path d="M 20 2  C 20 0.8954305003384131  19.104569499661586 0  18 0  L 2 0  C 0.8954305003384135 0  0 0.8954305003384131  0 2  L 0 24  C 0 25.104569499661586  0.8954305003384135 26  2 26  L 18 26  C 19.104569499661586 26  20 25.104569499661586  20 24  L 20 2  Z M 2 2  L 18 2  L 18 8  L 2 8  L 2 2  Z M 18 16  L 2 16  L 2 10  L 18 10  L 18 16  Z M 18 24  L 2 24  L 2 18  L 18 18  L 18 24  Z " fill-rule="nonzero" fill="rgba(0, 0, 0, 1)" stroke="none" transform="matrix(1 0 0 1 6 3 )" class="fill" />
    <path d="M 20 2  C 20 0.8954305003384131  19.104569499661586 0  18 0  L 2 0  C 0.8954305003384135 0  0 0.8954305003384131  0 2  L 0 24  C 0 25.104569499661586  0.8954305003384135 26  2 26  L 18 26  C 19.104569499661586 26  20 25.104569499661586  20 24  L 20 2  Z " stroke-width="0" stroke-dasharray="0" stroke="rgba(255, 255, 255, 0)" fill="none" transform="matrix(1 0 0 1 6 3 )" class="stroke" mask="url(#Clip3633)" />
    <path d="M 2 2  L 18 2  L 18 8  L 2 8  L 2 2  Z " stroke-width="0" stroke-dasharray="0" stroke="rgba(255, 255, 255, 0)" fill="none" transform="matrix(1 0 0 1 6 3 )" class="stroke" mask="url(#Clip3633)" />
    <path d="M 18 16  L 2 16  L 2 10  L 18 10  L 18 16  Z " stroke-width="0" stroke-dasharray="0" stroke="rgba(255, 255, 255, 0)" fill="none" transform="matrix(1 0 0 1 6 3 )" class="stroke" mask="url(#Clip3633)" />
    <path d="M 18 24  L 2 24  L 2 18  L 18 18  L 18 24  Z " stroke-width="0" stroke-dasharray="0" stroke="rgba(255, 255, 255, 0)" fill="none" transform="matrix(1 0 0 1 6 3 )" class="stroke" mask="url(#Clip3633)" />
  </g>
</svg>