<?xml version="1.0" encoding="utf-8"?>
<svg version="1.1" xmlns:xlink="http://www.w3.org/1999/xlink" width="48px" height="48px" xmlns="http://www.w3.org/2000/svg">
  <defs>
    <pattern id="BGPattern" patternUnits="userSpaceOnUse" alignment="0 0" imageRepeat="None" />
    <mask fill="white" id="Clip7532">
      <path d="M 48 16.632  C 48 3.184  44.782 0  31.368 0  L 16.632 0  C 3.184 0  0 3.184  0 16.632  L 0 31.368000000000002  C 0 44.816  3.184 48  16.632 48  L 31.368000000000002 48  C 44.816 48  48 44.816  48 31.368  L 48 16.632  Z M 38.75 34.24399999999999  L 38.751999999999995 34.246  L 35.263999999999996 34.246  C 33.943999999999996 34.246  33.535999999999994 33.196000000000005  31.163999999999994 30.792  C 29.097999999999995 28.792  28.18399999999999 28.522  27.675999999999995 28.522  C 26.96399999999999 28.522  26.759999999999994 28.726000000000006  26.759999999999994 29.708  L 26.759999999999994 32.858000000000004  C 26.759999999999994 33.706  26.489999999999995 34.214000000000006  24.253999999999998 34.214000000000006  C 20.561999999999994 34.214000000000006  16.461999999999996 31.978  13.583999999999993 27.810000000000002  C 9.248 21.714  8.06 17.14  8.06 16.192  C 8.06 15.684000000000001  8.264000000000001 15.21  9.246 15.21  L 12.733999999999998 15.21  C 13.614 15.21  13.954 15.616000000000001  14.294 16.564  C 16.02 21.544  18.9 25.914  20.086 25.914  C 20.526 25.914  20.729999999999997 25.71  20.729999999999997 24.594  L 20.729999999999997 19.442  C 20.593999999999998 17.07  19.339999999999996 16.868000000000002  19.339999999999996 16.022  C 19.339999999999996 15.613999999999999  19.679999999999996 15.207999999999998  20.219999999999995 15.207999999999998  L 25.70799999999999 15.207999999999998  C 26.453999999999994 15.207999999999998  26.723999999999997 15.613999999999999  26.723999999999997 16.494  L 26.723999999999997 23.439999999999998  C 26.723999999999997 24.183999999999997  27.064 24.455999999999996  27.266 24.455999999999996  C 27.706 24.455999999999996  28.08 24.183999999999997  28.892 23.371999999999996  C 31.4 20.559999999999995  33.194 16.223999999999997  33.194 16.223999999999997  C 33.432 15.715999999999998  33.838 15.241999999999997  34.720000000000006 15.241999999999997  L 38.208000000000006 15.241999999999997  C 39.258 15.241999999999997  39.496 15.781999999999996  39.258 16.528  C 38.818000000000005 18.561999999999998  34.550000000000004 24.589999999999996  34.550000000000004 24.589999999999996  C 34.178000000000004 25.199999999999996  34.042 25.469999999999995  34.550000000000004 26.149999999999995  C 34.922000000000004 26.657999999999994  36.142 27.708  36.956 28.65599999999999  C 38.446000000000005 30.349999999999994  39.596000000000004 31.772  39.902 32.75599999999999  C 40.242000000000004 33.73599999999999  39.732 34.24399999999999  38.75 34.24399999999999  Z " fill-rule="evenodd" />
    </mask>
  </defs>
  <g>
    <path d="M 48 16.632  C 48 3.184  44.782 0  31.368 0  L 16.632 0  C 3.184 0  0 3.184  0 16.632  L 0 31.368000000000002  C 0 44.816  3.184 48  16.632 48  L 31.368000000000002 48  C 44.816 48  48 44.816  48 31.368  L 48 16.632  Z M 38.75 34.24399999999999  L 38.751999999999995 34.246  L 35.263999999999996 34.246  C 33.943999999999996 34.246  33.535999999999994 33.196000000000005  31.163999999999994 30.792  C 29.097999999999995 28.792  28.18399999999999 28.522  27.675999999999995 28.522  C 26.96399999999999 28.522  26.759999999999994 28.726000000000006  26.759999999999994 29.708  L 26.759999999999994 32.858000000000004  C 26.759999999999994 33.706  26.489999999999995 34.214000000000006  24.253999999999998 34.214000000000006  C 20.561999999999994 34.214000000000006  16.461999999999996 31.978  13.583999999999993 27.810000000000002  C 9.248 21.714  8.06 17.14  8.06 16.192  C 8.06 15.684000000000001  8.264000000000001 15.21  9.246 15.21  L 12.733999999999998 15.21  C 13.614 15.21  13.954 15.616000000000001  14.294 16.564  C 16.02 21.544  18.9 25.914  20.086 25.914  C 20.526 25.914  20.729999999999997 25.71  20.729999999999997 24.594  L 20.729999999999997 19.442  C 20.593999999999998 17.07  19.339999999999996 16.868000000000002  19.339999999999996 16.022  C 19.339999999999996 15.613999999999999  19.679999999999996 15.207999999999998  20.219999999999995 15.207999999999998  L 25.70799999999999 15.207999999999998  C 26.453999999999994 15.207999999999998  26.723999999999997 15.613999999999999  26.723999999999997 16.494  L 26.723999999999997 23.439999999999998  C 26.723999999999997 24.183999999999997  27.064 24.455999999999996  27.266 24.455999999999996  C 27.706 24.455999999999996  28.08 24.183999999999997  28.892 23.371999999999996  C 31.4 20.559999999999995  33.194 16.223999999999997  33.194 16.223999999999997  C 33.432 15.715999999999998  33.838 15.241999999999997  34.720000000000006 15.241999999999997  L 38.208000000000006 15.241999999999997  C 39.258 15.241999999999997  39.496 15.781999999999996  39.258 16.528  C 38.818000000000005 18.561999999999998  34.550000000000004 24.589999999999996  34.550000000000004 24.589999999999996  C 34.178000000000004 25.199999999999996  34.042 25.469999999999995  34.550000000000004 26.149999999999995  C 34.922000000000004 26.657999999999994  36.142 27.708  36.956 28.65599999999999  C 38.446000000000005 30.349999999999994  39.596000000000004 31.772  39.902 32.75599999999999  C 40.242000000000004 33.73599999999999  39.732 34.24399999999999  38.75 34.24399999999999  Z " fill-rule="nonzero" fill="rgba(70, 128, 194, 1)" stroke="none" class="fill" />
    <path d="M 48 16.632  C 48 3.184  44.782 0  31.368 0  L 16.632 0  C 3.184 0  0 3.184  0 16.632  L 0 31.368000000000002  C 0 44.816  3.184 48  16.632 48  L 31.368000000000002 48  C 44.816 48  48 44.816  48 31.368  L 48 16.632  Z " stroke-width="0" stroke-dasharray="0" stroke="rgba(255, 255, 255, 0)" fill="none" class="stroke" mask="url(#Clip7532)" />
    <path d="M 38.75 34.24399999999999  L 38.751999999999995 34.246  L 35.263999999999996 34.246  C 33.943999999999996 34.246  33.535999999999994 33.196000000000005  31.163999999999994 30.792  C 29.097999999999995 28.792  28.18399999999999 28.522  27.675999999999995 28.522  C 26.96399999999999 28.522  26.759999999999994 28.726000000000006  26.759999999999994 29.708  L 26.759999999999994 32.858000000000004  C 26.759999999999994 33.706  26.489999999999995 34.214000000000006  24.253999999999998 34.214000000000006  C 20.561999999999994 34.214000000000006  16.461999999999996 31.978  13.583999999999993 27.810000000000002  C 9.248 21.714  8.06 17.14  8.06 16.192  C 8.06 15.684000000000001  8.264000000000001 15.21  9.246 15.21  L 12.733999999999998 15.21  C 13.614 15.21  13.954 15.616000000000001  14.294 16.564  C 16.02 21.544  18.9 25.914  20.086 25.914  C 20.526 25.914  20.729999999999997 25.71  20.729999999999997 24.594  L 20.729999999999997 19.442  C 20.593999999999998 17.07  19.339999999999996 16.868000000000002  19.339999999999996 16.022  C 19.339999999999996 15.613999999999999  19.679999999999996 15.207999999999998  20.219999999999995 15.207999999999998  L 25.70799999999999 15.207999999999998  C 26.453999999999994 15.207999999999998  26.723999999999997 15.613999999999999  26.723999999999997 16.494  L 26.723999999999997 23.439999999999998  C 26.723999999999997 24.183999999999997  27.064 24.455999999999996  27.266 24.455999999999996  C 27.706 24.455999999999996  28.08 24.183999999999997  28.892 23.371999999999996  C 31.4 20.559999999999995  33.194 16.223999999999997  33.194 16.223999999999997  C 33.432 15.715999999999998  33.838 15.241999999999997  34.720000000000006 15.241999999999997  L 38.208000000000006 15.241999999999997  C 39.258 15.241999999999997  39.496 15.781999999999996  39.258 16.528  C 38.818000000000005 18.561999999999998  34.550000000000004 24.589999999999996  34.550000000000004 24.589999999999996  C 34.178000000000004 25.199999999999996  34.042 25.469999999999995  34.550000000000004 26.149999999999995  C 34.922000000000004 26.657999999999994  36.142 27.708  36.956 28.65599999999999  C 38.446000000000005 30.349999999999994  39.596000000000004 31.772  39.902 32.75599999999999  C 40.242000000000004 33.73599999999999  39.732 34.24399999999999  38.75 34.24399999999999  Z " stroke-width="0" stroke-dasharray="0" stroke="rgba(255, 255, 255, 0)" fill="none" class="stroke" mask="url(#Clip7532)" />
  </g>
</svg>