<?xml version="1.0" encoding="utf-8"?>
<svg version="1.1" xmlns:xlink="http://www.w3.org/1999/xlink" width="14px" height="27px" xmlns="http://www.w3.org/2000/svg">
  <defs>
    <pattern id="BGPattern" patternUnits="userSpaceOnUse" alignment="0 0" imageRepeat="None" />
    <mask fill="white" id="Clip2839">
      <path d="M 1 20.5  C 0.875 23.8  3.6062499999999997 26.5  7 26.5  C 10.393749999999997 26.5  13.125 23.8  13 20.5  L 13 6.5  C 13.125 3.1999999999999993  10.393749999999997 0.5  7 0.5  C 3.606250000000003 0.5  0.875 3.1999999999999993  1 6.5  L 1 20.5  Z " fill-rule="evenodd" />
    </mask>
  </defs>
  <g transform="matrix(1 0 0 1 -14 -4 )">
    <path d="M 1 20.5  C 0.875 23.8  3.6062499999999997 26.5  7 26.5  C 10.393749999999997 26.5  13.125 23.8  13 20.5  L 13 6.5  C 13.125 3.1999999999999993  10.393749999999997 0.5  7 0.5  C 3.606250000000003 0.5  0.875 3.1999999999999993  1 6.5  L 1 20.5  Z " fill-rule="nonzero" fill="rgba(217, 217, 217, 1)" stroke="none" transform="matrix(1 0 0 1 14 4 )" class="fill" />
    <path d="M 1 20.5  C 0.875 23.8  3.6062499999999997 26.5  7 26.5  C 10.393749999999997 26.5  13.125 23.8  13 20.5  L 13 6.5  C 13.125 3.1999999999999993  10.393749999999997 0.5  7 0.5  C 3.606250000000003 0.5  0.875 3.1999999999999993  1 6.5  L 1 20.5  Z " stroke-width="0" stroke-dasharray="0" stroke="rgba(255, 255, 255, 0)" fill="none" transform="matrix(1 0 0 1 14 4 )" class="stroke" mask="url(#Clip2839)" />
  </g>
</svg>