<?xml version="1.0" encoding="utf-8"?>
<svg version="1.1" xmlns:xlink="http://www.w3.org/1999/xlink" width="22px" height="35px" xmlns="http://www.w3.org/2000/svg">
  <defs>
    <pattern id="BGPattern" patternUnits="userSpaceOnUse" alignment="0 0" imageRepeat="None" />
    <mask fill="white" id="Clip2841">
      <path d="M 0.375 24.5  C 0.375 30.299999999999997  5.131250000000001 35  11 35  C 16.86875 35  21.625 30.299999999999997  21.625 24.5  L 21.625 10.5  C 21.625 4.699999999999999  16.86875 0  11 0  C 5.131250000000001 0  0.375 4.699999999999999  0.375 10.5  L 0.375 24.5  Z M 5 24.5  L 5 10.5  C 4.875 7.199999999999999  7.606249999999999 4.5  11 4.5  C 14.393749999999999 4.5  17.125 7.199999999999999  17 10.5  L 17 24.5  C 17.125 27.8  14.393749999999999 30.5  11 30.5  C 7.606250000000003 30.5  4.875 27.8  5 24.5  Z " fill-rule="evenodd" />
    </mask>
  </defs>
  <g transform="matrix(1 0 0 1 -10 0 )">
    <path d="M 0.375 24.5  C 0.375 30.299999999999997  5.131250000000001 35  11 35  C 16.86875 35  21.625 30.299999999999997  21.625 24.5  L 21.625 10.5  C 21.625 4.699999999999999  16.86875 0  11 0  C 5.131250000000001 0  0.375 4.699999999999999  0.375 10.5  L 0.375 24.5  Z M 5 24.5  L 5 10.5  C 4.875 7.199999999999999  7.606249999999999 4.5  11 4.5  C 14.393749999999999 4.5  17.125 7.199999999999999  17 10.5  L 17 24.5  C 17.125 27.8  14.393749999999999 30.5  11 30.5  C 7.606250000000003 30.5  4.875 27.8  5 24.5  Z " fill-rule="nonzero" fill="rgba(0, 0, 0, 1)" stroke="none" transform="matrix(1 0 0 1 10 0 )" class="fill" />
    <path d="M 0.375 24.5  C 0.375 30.299999999999997  5.131250000000001 35  11 35  C 16.86875 35  21.625 30.299999999999997  21.625 24.5  L 21.625 10.5  C 21.625 4.699999999999999  16.86875 0  11 0  C 5.131250000000001 0  0.375 4.699999999999999  0.375 10.5  L 0.375 24.5  Z " stroke-width="0" stroke-dasharray="0" stroke="rgba(255, 255, 255, 0)" fill="none" transform="matrix(1 0 0 1 10 0 )" class="stroke" mask="url(#Clip2841)" />
    <path d="M 5 24.5  L 5 10.5  C 4.875 7.199999999999999  7.606249999999999 4.5  11 4.5  C 14.393749999999999 4.5  17.125 7.199999999999999  17 10.5  L 17 24.5  C 17.125 27.8  14.393749999999999 30.5  11 30.5  C 7.606250000000003 30.5  4.875 27.8  5 24.5  Z " stroke-width="0" stroke-dasharray="0" stroke="rgba(255, 255, 255, 0)" fill="none" transform="matrix(1 0 0 1 10 0 )" class="stroke" mask="url(#Clip2841)" />
  </g>
</svg>