<?xml version="1.0" encoding="utf-8"?>
<svg version="1.1" xmlns:xlink="http://www.w3.org/1999/xlink" width="30px" height="30px" xmlns="http://www.w3.org/2000/svg">
  <defs>
    <pattern id="BGPattern" patternUnits="userSpaceOnUse" alignment="0 0" imageRepeat="None" />
    <mask fill="white" id="Clip158">
      <path d="M 26.424 29  L 3.5919999999999996 29  C 1.7839999999999998 29.4  0.5999999999999996 28.247999999999998  0.5999999999999996 26.695999999999998  C 0.5999999999999996 26.279999999999998  0.6959999999999997 25.831999999999997  0.8719999999999997 25.368  L 3.4959999999999996 18.584  C 3.7359999999999998 17.96  3.7999999999999994 17.496  4 16.823999999999998  L 4 3.783999999999999  C 3.7999999999999994 2.023999999999999  5.224 0.5999999999999988  7 1  L 23 1  C 24.76 0.5999999999999988  26.2 2.0239999999999987  26 3.783999999999999  L 26 16.823999999999998  C 26.2 17.496  26.264 17.959999999999997  26.503999999999998 18.584  L 29.144 25.368  C 29.319999999999997 25.816  29.4 26.264  29.4 26.68  C 29.4 28.232  28.232 29.4  26.424 29  Z M 6.199999999999997 15.400000000000002  C 6.199999999999997 15.656  6.343999999999997 15.800000000000002  6.6 15.800000000000002  L 23.4 15.800000000000002  C 23.656 15.800000000000002  23.799999999999997 15.656  23.799999999999997 15.400000000000002  L 23.799999999999997 3.784000000000002  C 23.799999999999997 3.352000000000002  23.432 3.0000000000000027  22.999999999999996 3  L 6.9999999999999964 3  C 6.567999999999996 3.0000000000000027  6.199999999999997 3.352000000000003  6.199999999999997 3.784000000000002  L 6.199999999999997 15.400000000000002  Z M 20.184 7.800000000000001  L 16.216 7.800000000000001  C 15.512 7.800000000000001  15 7.304  15 6.6000000000000005  C 15 5.912000000000001  15.512 5.4  16.216 5.4  L 20.184 5.4  C 20.888 5.4  21.400000000000002 5.912000000000001  21.400000000000002 6.6000000000000005  C 21.400000000000002 7.288  20.888 7.800000000000001  20.184 7.800000000000001  Z M 3.048000000000001 26.503999999999998  C 3.048000000000001 26.791999999999998  3.256000000000001 26.999999999999996  3.5919999999999996 27  L 26.424 27  C 26.759999999999998 27  26.968 26.792  26.968 26.52  C 26.968 26.44  26.952 26.344  26.92 26.264  L 23.928 18.52  C 23.848000000000003 18.296  23.688000000000002 18.2  23.464000000000002 18  L 6.536000000000001 18  C 6.312000000000001 18.2  6.152000000000001 18.296  6.072000000000001 18.52  L 3.096000000000001 26.264  C 3.064000000000001 26.343999999999998  3.048000000000001 26.424  3.048000000000001 26.503999999999998  Z M 9.783999999999999 21  C 9.783999999999999 21.656  9.239999999999998 22.2  8.584 22.2  C 7.927999999999999 22.2  7.384 21.656  7.384 21  C 7.384 20.344  7.928000000000001 19.8  8.584 19.8  C 9.239999999999998 19.8  9.783999999999999 20.344  9.783999999999999 21  Z M 13.783999999999999 21  C 13.783999999999999 21.656  13.239999999999998 22.2  12.584 22.2  C 11.927999999999999 22.2  11.384 21.656  11.384 21  C 11.384 20.344  11.928 19.8  12.584 19.8  C 13.239999999999998 19.8  13.783999999999999 20.344  13.783999999999999 21  Z M 17.784 21  C 17.784 21.656  17.24 22.2  16.584 22.2  C 15.928 22.2  15.384 21.656  15.384 21  C 15.384 20.344  15.928 19.8  16.584 19.8  C 17.24 19.8  17.784 20.344  17.784 21  Z M 21.784 21  C 21.784 21.656  21.24 22.2  20.584 22.2  C 19.928 22.2  19.384 21.656  19.384 21  C 19.384 20.344  19.928 19.8  20.584 19.8  C 21.24 19.8  21.784 20.344  21.784 21  Z M 7.863999999999998 24.2  C 7.863999999999998 24.855999999999998  7.3199999999999985 25.4  6.664 25.4  C 6.008 25.4  5.4639999999999995 24.855999999999998  5.4639999999999995 24.2  C 5.4639999999999995 23.544  6.007999999999999 23  6.664 23  C 7.32 23  7.863999999999998 23.544  7.863999999999998 24.2  Z M 11.863999999999999 24.2  C 11.863999999999999 24.855999999999998  11.319999999999999 25.4  10.664 25.4  C 10.008 25.4  9.464 24.855999999999998  9.464 24.2  C 9.464 23.544  10.008000000000001 23  10.664 23  C 11.319999999999999 23  11.863999999999999 23.544  11.863999999999999 24.2  Z M 15.864 24.2  C 15.864 24.855999999999998  15.320000000000002 25.4  14.664 25.4  C 14.008 25.4  13.464 24.855999999999998  13.464 24.2  C 13.464 23.544  14.008000000000001 23  14.664 23  C 15.320000000000002 23  15.864 23.544  15.864 24.2  Z M 19.864 24.2  C 19.864 24.855999999999998  19.32 25.4  18.664 25.4  C 18.008000000000003 25.4  17.464000000000002 24.855999999999998  17.464000000000002 24.2  C 17.464000000000002 23.544  18.008000000000003 23  18.664 23  C 19.32 23  19.864 23.544  19.864 24.2  Z M 23.864 24.2  C 23.864 24.855999999999998  23.32 25.4  22.664 25.4  C 22.008000000000003 25.4  21.464000000000002 24.855999999999998  21.464000000000002 24.2  C 21.464000000000002 23.544  22.008000000000003 23  22.664 23  C 23.32 23  23.864 23.544  23.864 24.2  Z " fill-rule="evenodd" />
    </mask>
  </defs>
  <g>
    <path d="M 26.424 29  L 3.5919999999999996 29  C 1.7839999999999998 29.4  0.5999999999999996 28.247999999999998  0.5999999999999996 26.695999999999998  C 0.5999999999999996 26.279999999999998  0.6959999999999997 25.831999999999997  0.8719999999999997 25.368  L 3.4959999999999996 18.584  C 3.7359999999999998 17.96  3.7999999999999994 17.496  4 16.823999999999998  L 4 3.783999999999999  C 3.7999999999999994 2.023999999999999  5.224 0.5999999999999988  7 1  L 23 1  C 24.76 0.5999999999999988  26.2 2.0239999999999987  26 3.783999999999999  L 26 16.823999999999998  C 26.2 17.496  26.264 17.959999999999997  26.503999999999998 18.584  L 29.144 25.368  C 29.319999999999997 25.816  29.4 26.264  29.4 26.68  C 29.4 28.232  28.232 29.4  26.424 29  Z M 6.199999999999997 15.400000000000002  C 6.199999999999997 15.656  6.343999999999997 15.800000000000002  6.6 15.800000000000002  L 23.4 15.800000000000002  C 23.656 15.800000000000002  23.799999999999997 15.656  23.799999999999997 15.400000000000002  L 23.799999999999997 3.784000000000002  C 23.799999999999997 3.352000000000002  23.432 3.0000000000000027  22.999999999999996 3  L 6.9999999999999964 3  C 6.567999999999996 3.0000000000000027  6.199999999999997 3.352000000000003  6.199999999999997 3.784000000000002  L 6.199999999999997 15.400000000000002  Z M 20.184 7.800000000000001  L 16.216 7.800000000000001  C 15.512 7.800000000000001  15 7.304  15 6.6000000000000005  C 15 5.912000000000001  15.512 5.4  16.216 5.4  L 20.184 5.4  C 20.888 5.4  21.400000000000002 5.912000000000001  21.400000000000002 6.6000000000000005  C 21.400000000000002 7.288  20.888 7.800000000000001  20.184 7.800000000000001  Z M 3.048000000000001 26.503999999999998  C 3.048000000000001 26.791999999999998  3.256000000000001 26.999999999999996  3.5919999999999996 27  L 26.424 27  C 26.759999999999998 27  26.968 26.792  26.968 26.52  C 26.968 26.44  26.952 26.344  26.92 26.264  L 23.928 18.52  C 23.848000000000003 18.296  23.688000000000002 18.2  23.464000000000002 18  L 6.536000000000001 18  C 6.312000000000001 18.2  6.152000000000001 18.296  6.072000000000001 18.52  L 3.096000000000001 26.264  C 3.064000000000001 26.343999999999998  3.048000000000001 26.424  3.048000000000001 26.503999999999998  Z M 9.783999999999999 21  C 9.783999999999999 21.656  9.239999999999998 22.2  8.584 22.2  C 7.927999999999999 22.2  7.384 21.656  7.384 21  C 7.384 20.344  7.928000000000001 19.8  8.584 19.8  C 9.239999999999998 19.8  9.783999999999999 20.344  9.783999999999999 21  Z M 13.783999999999999 21  C 13.783999999999999 21.656  13.239999999999998 22.2  12.584 22.2  C 11.927999999999999 22.2  11.384 21.656  11.384 21  C 11.384 20.344  11.928 19.8  12.584 19.8  C 13.239999999999998 19.8  13.783999999999999 20.344  13.783999999999999 21  Z M 17.784 21  C 17.784 21.656  17.24 22.2  16.584 22.2  C 15.928 22.2  15.384 21.656  15.384 21  C 15.384 20.344  15.928 19.8  16.584 19.8  C 17.24 19.8  17.784 20.344  17.784 21  Z M 21.784 21  C 21.784 21.656  21.24 22.2  20.584 22.2  C 19.928 22.2  19.384 21.656  19.384 21  C 19.384 20.344  19.928 19.8  20.584 19.8  C 21.24 19.8  21.784 20.344  21.784 21  Z M 7.863999999999998 24.2  C 7.863999999999998 24.855999999999998  7.3199999999999985 25.4  6.664 25.4  C 6.008 25.4  5.4639999999999995 24.855999999999998  5.4639999999999995 24.2  C 5.4639999999999995 23.544  6.007999999999999 23  6.664 23  C 7.32 23  7.863999999999998 23.544  7.863999999999998 24.2  Z M 11.863999999999999 24.2  C 11.863999999999999 24.855999999999998  11.319999999999999 25.4  10.664 25.4  C 10.008 25.4  9.464 24.855999999999998  9.464 24.2  C 9.464 23.544  10.008000000000001 23  10.664 23  C 11.319999999999999 23  11.863999999999999 23.544  11.863999999999999 24.2  Z M 15.864 24.2  C 15.864 24.855999999999998  15.320000000000002 25.4  14.664 25.4  C 14.008 25.4  13.464 24.855999999999998  13.464 24.2  C 13.464 23.544  14.008000000000001 23  14.664 23  C 15.320000000000002 23  15.864 23.544  15.864 24.2  Z M 19.864 24.2  C 19.864 24.855999999999998  19.32 25.4  18.664 25.4  C 18.008000000000003 25.4  17.464000000000002 24.855999999999998  17.464000000000002 24.2  C 17.464000000000002 23.544  18.008000000000003 23  18.664 23  C 19.32 23  19.864 23.544  19.864 24.2  Z M 23.864 24.2  C 23.864 24.855999999999998  23.32 25.4  22.664 25.4  C 22.008000000000003 25.4  21.464000000000002 24.855999999999998  21.464000000000002 24.2  C 21.464000000000002 23.544  22.008000000000003 23  22.664 23  C 23.32 23  23.864 23.544  23.864 24.2  Z " fill-rule="nonzero" fill="rgba(0, 0, 0, 1)" stroke="none" class="fill" />
    <path d="M 26.424 29  L 3.5919999999999996 29  C 1.7839999999999998 29.4  0.5999999999999996 28.247999999999998  0.5999999999999996 26.695999999999998  C 0.5999999999999996 26.279999999999998  0.6959999999999997 25.831999999999997  0.8719999999999997 25.368  L 3.4959999999999996 18.584  C 3.7359999999999998 17.96  3.7999999999999994 17.496  4 16.823999999999998  L 4 3.783999999999999  C 3.7999999999999994 2.023999999999999  5.224 0.5999999999999988  7 1  L 23 1  C 24.76 0.5999999999999988  26.2 2.0239999999999987  26 3.783999999999999  L 26 16.823999999999998  C 26.2 17.496  26.264 17.959999999999997  26.503999999999998 18.584  L 29.144 25.368  C 29.319999999999997 25.816  29.4 26.264  29.4 26.68  C 29.4 28.232  28.232 29.4  26.424 29  Z " stroke-width="0" stroke-dasharray="0" stroke="rgba(255, 255, 255, 0)" fill="none" class="stroke" mask="url(#Clip158)" />
    <path d="M 6.199999999999997 15.400000000000002  C 6.199999999999997 15.656  6.343999999999997 15.800000000000002  6.6 15.800000000000002  L 23.4 15.800000000000002  C 23.656 15.800000000000002  23.799999999999997 15.656  23.799999999999997 15.400000000000002  L 23.799999999999997 3.784000000000002  C 23.799999999999997 3.352000000000002  23.432 3.0000000000000027  22.999999999999996 3  L 6.9999999999999964 3  C 6.567999999999996 3.0000000000000027  6.199999999999997 3.352000000000003  6.199999999999997 3.784000000000002  L 6.199999999999997 15.400000000000002  Z " stroke-width="0" stroke-dasharray="0" stroke="rgba(255, 255, 255, 0)" fill="none" class="stroke" mask="url(#Clip158)" />
    <path d="M 20.184 7.800000000000001  L 16.216 7.800000000000001  C 15.512 7.800000000000001  15 7.304  15 6.6000000000000005  C 15 5.912000000000001  15.512 5.4  16.216 5.4  L 20.184 5.4  C 20.888 5.4  21.400000000000002 5.912000000000001  21.400000000000002 6.6000000000000005  C 21.400000000000002 7.288  20.888 7.800000000000001  20.184 7.800000000000001  Z " stroke-width="0" stroke-dasharray="0" stroke="rgba(255, 255, 255, 0)" fill="none" class="stroke" mask="url(#Clip158)" />
    <path d="M 3.048000000000001 26.503999999999998  C 3.048000000000001 26.791999999999998  3.256000000000001 26.999999999999996  3.5919999999999996 27  L 26.424 27  C 26.759999999999998 27  26.968 26.792  26.968 26.52  C 26.968 26.44  26.952 26.344  26.92 26.264  L 23.928 18.52  C 23.848000000000003 18.296  23.688000000000002 18.2  23.464000000000002 18  L 6.536000000000001 18  C 6.312000000000001 18.2  6.152000000000001 18.296  6.072000000000001 18.52  L 3.096000000000001 26.264  C 3.064000000000001 26.343999999999998  3.048000000000001 26.424  3.048000000000001 26.503999999999998  Z " stroke-width="0" stroke-dasharray="0" stroke="rgba(255, 255, 255, 0)" fill="none" class="stroke" mask="url(#Clip158)" />
    <path d="M 9.783999999999999 21  C 9.783999999999999 21.656  9.239999999999998 22.2  8.584 22.2  C 7.927999999999999 22.2  7.384 21.656  7.384 21  C 7.384 20.344  7.928000000000001 19.8  8.584 19.8  C 9.239999999999998 19.8  9.783999999999999 20.344  9.783999999999999 21  Z " stroke-width="0" stroke-dasharray="0" stroke="rgba(255, 255, 255, 0)" fill="none" class="stroke" mask="url(#Clip158)" />
    <path d="M 13.783999999999999 21  C 13.783999999999999 21.656  13.239999999999998 22.2  12.584 22.2  C 11.927999999999999 22.2  11.384 21.656  11.384 21  C 11.384 20.344  11.928 19.8  12.584 19.8  C 13.239999999999998 19.8  13.783999999999999 20.344  13.783999999999999 21  Z " stroke-width="0" stroke-dasharray="0" stroke="rgba(255, 255, 255, 0)" fill="none" class="stroke" mask="url(#Clip158)" />
    <path d="M 17.784 21  C 17.784 21.656  17.24 22.2  16.584 22.2  C 15.928 22.2  15.384 21.656  15.384 21  C 15.384 20.344  15.928 19.8  16.584 19.8  C 17.24 19.8  17.784 20.344  17.784 21  Z " stroke-width="0" stroke-dasharray="0" stroke="rgba(255, 255, 255, 0)" fill="none" class="stroke" mask="url(#Clip158)" />
    <path d="M 21.784 21  C 21.784 21.656  21.24 22.2  20.584 22.2  C 19.928 22.2  19.384 21.656  19.384 21  C 19.384 20.344  19.928 19.8  20.584 19.8  C 21.24 19.8  21.784 20.344  21.784 21  Z " stroke-width="0" stroke-dasharray="0" stroke="rgba(255, 255, 255, 0)" fill="none" class="stroke" mask="url(#Clip158)" />
    <path d="M 7.863999999999998 24.2  C 7.863999999999998 24.855999999999998  7.3199999999999985 25.4  6.664 25.4  C 6.008 25.4  5.4639999999999995 24.855999999999998  5.4639999999999995 24.2  C 5.4639999999999995 23.544  6.007999999999999 23  6.664 23  C 7.32 23  7.863999999999998 23.544  7.863999999999998 24.2  Z " stroke-width="0" stroke-dasharray="0" stroke="rgba(255, 255, 255, 0)" fill="none" class="stroke" mask="url(#Clip158)" />
    <path d="M 11.863999999999999 24.2  C 11.863999999999999 24.855999999999998  11.319999999999999 25.4  10.664 25.4  C 10.008 25.4  9.464 24.855999999999998  9.464 24.2  C 9.464 23.544  10.008000000000001 23  10.664 23  C 11.319999999999999 23  11.863999999999999 23.544  11.863999999999999 24.2  Z " stroke-width="0" stroke-dasharray="0" stroke="rgba(255, 255, 255, 0)" fill="none" class="stroke" mask="url(#Clip158)" />
    <path d="M 15.864 24.2  C 15.864 24.855999999999998  15.320000000000002 25.4  14.664 25.4  C 14.008 25.4  13.464 24.855999999999998  13.464 24.2  C 13.464 23.544  14.008000000000001 23  14.664 23  C 15.320000000000002 23  15.864 23.544  15.864 24.2  Z " stroke-width="0" stroke-dasharray="0" stroke="rgba(255, 255, 255, 0)" fill="none" class="stroke" mask="url(#Clip158)" />
    <path d="M 19.864 24.2  C 19.864 24.855999999999998  19.32 25.4  18.664 25.4  C 18.008000000000003 25.4  17.464000000000002 24.855999999999998  17.464000000000002 24.2  C 17.464000000000002 23.544  18.008000000000003 23  18.664 23  C 19.32 23  19.864 23.544  19.864 24.2  Z " stroke-width="0" stroke-dasharray="0" stroke="rgba(255, 255, 255, 0)" fill="none" class="stroke" mask="url(#Clip158)" />
    <path d="M 23.864 24.2  C 23.864 24.855999999999998  23.32 25.4  22.664 25.4  C 22.008000000000003 25.4  21.464000000000002 24.855999999999998  21.464000000000002 24.2  C 21.464000000000002 23.544  22.008000000000003 23  22.664 23  C 23.32 23  23.864 23.544  23.864 24.2  Z " stroke-width="0" stroke-dasharray="0" stroke="rgba(255, 255, 255, 0)" fill="none" class="stroke" mask="url(#Clip158)" />
  </g>
</svg>