<?xml version="1.0" encoding="utf-8"?>
<svg version="1.1" xmlns:xlink="http://www.w3.org/1999/xlink" width="50px" height="45px" xmlns="http://www.w3.org/2000/svg">
  <defs>
    <pattern id="BGPattern" patternUnits="userSpaceOnUse" alignment="0 0" imageRepeat="None" />
    <mask fill="white" id="Clip1522">
      <path d="M 47.916666666666686 0  C 49.06727430555554 0  50 0.9327256944444572  50 2.083333333333343  L 50 13.19305555555556  C 50 15.055989583333343  47.74652777777777 15.969097222222217  46.44348958333333 14.666232638888884  L 43.34392361111111 11.566493055555553  L 22.20477430555556 32.70564236111113  C 21.391145833333326 33.51927083333334  20.07213541666667 33.51927083333334  19.258506944444434 32.70564236111113  L 17.294357638888897 30.741493055555566  C 16.480729166666663 29.92786458333333  16.480729166666663 28.60876736111112  17.294357638888897 27.79522569444447  L 38.433680555555554 6.655902777777783  L 35.33446180555555 3.5565104166666686  C 34.026215277777794 2.2482638888888857  34.95277777777778 0  36.8076388888889 0  L 47.916666666666686 0  Z M 38 24.9795138888889  C 38.888888888888886 23.123437500000023  36.64479166666666 22.19392361111113  35.33237847222222 23.50642361111113  L 33.94348958333333 24.895312500000014  C 33.552785328177976 25.286023400893068  33.33330366317486 25.81594562834619  33 26.368489583333343  L 33 38  L 6 38  L 6 12  L 28.472222222222225 12  C 29.024728511169002 11.111079620471571  29.554601266309422 10.891605513466118  29.9453125 10.500954861111126  L 31.33420138888889 9.11206597222224  C 32.64661458333333 7.799565972222211  31.71710069444444 5.555555555555543  29.861111111111114 6  L 4.166666666666657 6  C 1.8654513888888855 5.555555555555543  0 7.421006944444457  0 9.722222222222229  L 0 40.27777777777777  C 0 42.57899305555557  1.8654513888888855 44.44444444444446  4.166666666666657 44  L 34.72222222222223 44  C 37.0234375 44.44444444444446  38.888888888888886 42.57899305555557  38 40.27777777777777  L 38 24.9795138888889  Z " fill-rule="evenodd" />
    </mask>
  </defs>
  <g>
    <path d="M 47.916666666666686 0  C 49.06727430555554 0  50 0.9327256944444572  50 2.083333333333343  L 50 13.19305555555556  C 50 15.055989583333343  47.74652777777777 15.969097222222217  46.44348958333333 14.666232638888884  L 43.34392361111111 11.566493055555553  L 22.20477430555556 32.70564236111113  C 21.391145833333326 33.51927083333334  20.07213541666667 33.51927083333334  19.258506944444434 32.70564236111113  L 17.294357638888897 30.741493055555566  C 16.480729166666663 29.92786458333333  16.480729166666663 28.60876736111112  17.294357638888897 27.79522569444447  L 38.433680555555554 6.655902777777783  L 35.33446180555555 3.5565104166666686  C 34.026215277777794 2.2482638888888857  34.95277777777778 0  36.8076388888889 0  L 47.916666666666686 0  Z M 38 24.9795138888889  C 38.888888888888886 23.123437500000023  36.64479166666666 22.19392361111113  35.33237847222222 23.50642361111113  L 33.94348958333333 24.895312500000014  C 33.552785328177976 25.286023400893068  33.33330366317486 25.81594562834619  33 26.368489583333343  L 33 38  L 6 38  L 6 12  L 28.472222222222225 12  C 29.024728511169002 11.111079620471571  29.554601266309422 10.891605513466118  29.9453125 10.500954861111126  L 31.33420138888889 9.11206597222224  C 32.64661458333333 7.799565972222211  31.71710069444444 5.555555555555543  29.861111111111114 6  L 4.166666666666657 6  C 1.8654513888888855 5.555555555555543  0 7.421006944444457  0 9.722222222222229  L 0 40.27777777777777  C 0 42.57899305555557  1.8654513888888855 44.44444444444446  4.166666666666657 44  L 34.72222222222223 44  C 37.0234375 44.44444444444446  38.888888888888886 42.57899305555557  38 40.27777777777777  L 38 24.9795138888889  Z " fill-rule="nonzero" fill="rgba(0, 0, 0, 1)" stroke="none" class="fill" />
    <path d="M 47.916666666666686 0  C 49.06727430555554 0  50 0.9327256944444572  50 2.083333333333343  L 50 13.19305555555556  C 50 15.055989583333343  47.74652777777777 15.969097222222217  46.44348958333333 14.666232638888884  L 43.34392361111111 11.566493055555553  L 22.20477430555556 32.70564236111113  C 21.391145833333326 33.51927083333334  20.07213541666667 33.51927083333334  19.258506944444434 32.70564236111113  L 17.294357638888897 30.741493055555566  C 16.480729166666663 29.92786458333333  16.480729166666663 28.60876736111112  17.294357638888897 27.79522569444447  L 38.433680555555554 6.655902777777783  L 35.33446180555555 3.5565104166666686  C 34.026215277777794 2.2482638888888857  34.95277777777778 0  36.8076388888889 0  L 47.916666666666686 0  Z " stroke-width="0" stroke-dasharray="0" stroke="rgba(255, 255, 255, 0)" fill="none" class="stroke" mask="url(#Clip1522)" />
    <path d="M 38 24.9795138888889  C 38.888888888888886 23.123437500000023  36.64479166666666 22.19392361111113  35.33237847222222 23.50642361111113  L 33.94348958333333 24.895312500000014  C 33.552785328177976 25.286023400893068  33.33330366317486 25.81594562834619  33 26.368489583333343  L 33 38  L 6 38  L 6 12  L 28.472222222222225 12  C 29.024728511169002 11.111079620471571  29.554601266309422 10.891605513466118  29.9453125 10.500954861111126  L 31.33420138888889 9.11206597222224  C 32.64661458333333 7.799565972222211  31.71710069444444 5.555555555555543  29.861111111111114 6  L 4.166666666666657 6  C 1.8654513888888855 5.555555555555543  0 7.421006944444457  0 9.722222222222229  L 0 40.27777777777777  C 0 42.57899305555557  1.8654513888888855 44.44444444444446  4.166666666666657 44  L 34.72222222222223 44  C 37.0234375 44.44444444444446  38.888888888888886 42.57899305555557  38 40.27777777777777  L 38 24.9795138888889  Z " stroke-width="0" stroke-dasharray="0" stroke="rgba(255, 255, 255, 0)" fill="none" class="stroke" mask="url(#Clip1522)" />
  </g>
</svg>