<?xml version="1.0" encoding="utf-8"?>
<svg version="1.1" xmlns:xlink="http://www.w3.org/1999/xlink" width="37px" height="50px" xmlns="http://www.w3.org/2000/svg">
  <defs>
    <pattern id="BGPattern" patternUnits="userSpaceOnUse" alignment="0 0" imageRepeat="None" />
    <mask fill="white" id="Clip986">
      <path d="M 36.03515625 28.51372054442038  L 29.437169894366207 28.51372054442038  L 25.152382897142505 37.12233587825028  L 20.799273555999434 28.51372054442038  L 14.201287200365641 28.51372054442038  L 25.152382897142505 49.98645720476708  L 36.03515625 28.51372054442038  Z M 29.437169894366207 28.51372054442038  L 14.777146956256786 0.013542795232922343  L 0 28.51372054442038  L 8.706218682286021 28.51372054442038  L 14.777146956256786 17.18197178866467  L 20.799273555999434 28.51372054442038  L 29.437169894366207 28.51372054442038  Z " fill-rule="evenodd" />
    </mask>
  </defs>
  <g>
    <path d="M 36.03515625 28.51372054442038  L 29.437169894366207 28.51372054442038  L 25.152382897142505 37.12233587825028  L 20.799273555999434 28.51372054442038  L 14.201287200365641 28.51372054442038  L 25.152382897142505 49.98645720476708  L 36.03515625 28.51372054442038  Z M 29.437169894366207 28.51372054442038  L 14.777146956256786 0.013542795232922343  L 0 28.51372054442038  L 8.706218682286021 28.51372054442038  L 14.777146956256786 17.18197178866467  L 20.799273555999434 28.51372054442038  L 29.437169894366207 28.51372054442038  Z " fill-rule="nonzero" fill="rgba(0, 0, 0, 1)" stroke="none" class="fill" />
    <path d="M 36.03515625 28.51372054442038  L 29.437169894366207 28.51372054442038  L 25.152382897142505 37.12233587825028  L 20.799273555999434 28.51372054442038  L 14.201287200365641 28.51372054442038  L 25.152382897142505 49.98645720476708  L 36.03515625 28.51372054442038  Z " stroke-width="0" stroke-dasharray="0" stroke="rgba(255, 255, 255, 0)" fill="none" class="stroke" mask="url(#Clip986)" />
    <path d="M 29.437169894366207 28.51372054442038  L 14.777146956256786 0.013542795232922343  L 0 28.51372054442038  L 8.706218682286021 28.51372054442038  L 14.777146956256786 17.18197178866467  L 20.799273555999434 28.51372054442038  L 29.437169894366207 28.51372054442038  Z " stroke-width="0" stroke-dasharray="0" stroke="rgba(255, 255, 255, 0)" fill="none" class="stroke" mask="url(#Clip986)" />
  </g>
</svg>