<?xml version="1.0" encoding="utf-8"?>
<svg version="1.1" xmlns:xlink="http://www.w3.org/1999/xlink" width="5px" height="4px" xmlns="http://www.w3.org/2000/svg">
  <defs>
    <pattern id="BGPattern" patternUnits="userSpaceOnUse" alignment="0 0" imageRepeat="None" />
    <mask fill="white" id="Clip3557">
      <path d="M 4.999999999999998 0.9999999999999998  C 3.5367571764229044 0.9800373802468965  2.0813591071377218 1.2169626473398334  0.6999999999999993 1.7000000000000002  L 1.2999999999999972 3.5999999999999996  C 2.492132724639715 3.198643163642317  3.742124300862951 2.9959418269574694  5 3  L 4.999999999999998 0.9999999999999998  Z " fill-rule="evenodd" />
    </mask>
  </defs>
  <g transform="matrix(1 0 0 1 -11 -1 )">
    <path d="M 4.999999999999998 0.9999999999999998  C 3.5367571764229044 0.9800373802468965  2.0813591071377218 1.2169626473398334  0.6999999999999993 1.7000000000000002  L 1.2999999999999972 3.5999999999999996  C 2.492132724639715 3.198643163642317  3.742124300862951 2.9959418269574694  5 3  L 4.999999999999998 0.9999999999999998  Z " fill-rule="nonzero" fill="rgba(2, 2, 2, 1)" stroke="none" transform="matrix(1 0 0 1 11 1 )" class="fill" />
    <path d="M 4.999999999999998 0.9999999999999998  C 3.5367571764229044 0.9800373802468965  2.0813591071377218 1.2169626473398334  0.6999999999999993 1.7000000000000002  L 1.2999999999999972 3.5999999999999996  C 2.492132724639715 3.198643163642317  3.742124300862951 2.9959418269574694  5 3  L 4.999999999999998 0.9999999999999998  Z " stroke-width="0" stroke-dasharray="0" stroke="rgba(255, 255, 255, 0)" fill="none" transform="matrix(1 0 0 1 11 1 )" class="stroke" mask="url(#Clip3557)" />
  </g>
</svg>