<?xml version="1.0" encoding="utf-8"?>
<svg version="1.1" xmlns:xlink="http://www.w3.org/1999/xlink" width="50px" height="39px" xmlns="http://www.w3.org/2000/svg">
  <defs>
    <pattern id="BGPattern" patternUnits="userSpaceOnUse" alignment="0 0" imageRepeat="None" />
    <mask fill="white" id="Clip2053">
      <path d="M 0 1.3864818024263172  C 0 0.6207105719237234  0.6207105719237518 0  1.3864818024263457 0  L 26.343154246100507 0  C 27.108925476603137 0  27.729636048526856 0.6207105719237234  27.729636048526856 1.3864818024263172  L 27.729636048526856 9.705372616984391  C 27.729636048526856 10.471143847486985  27.108925476603137 11.091854419410765  26.343154246100507 11.091854419410765  L 23.267244367417675 11.091854419410765  C 22.50147313691508 11.091854419410765  21.88076256499133 10.471143847486985  21.88076256499133 9.705372616984391  L 21.88076256499133 5.545927209705383  L 18 5.545927209705383  L 18 33.27556325823224  L 20.10398613518197 33.27556325823224  C 20.869757365684563 33.27556325823224  21.490467937608315 33.89627383015602  21.490467937608315 34.66204506065861  L 21.490467937608315 37.435008665511305  C 21.490467937608315 38.2007798960139  20.869757365684563 38.82149046793762  20.10398613518197 38.82149046793762  L 7.625649913344887 38.82149046793762  C 6.859878682842294 38.82149046793762  6.239168110918541 38.2007798960139  6.239168110918541 37.435008665511305  L 6.239168110918541 34.66204506065861  C 6.239168110918541 33.89627383015602  6.859878682842294 33.27556325823224  7.625649913344887 33.27556325823224  L 11 33.27556325823224  L 11 5.545927209705383  L 5.848873483535527 5.545927209705383  L 5.848873483535527 9.705372616984391  C 5.848873483535527 10.471143847486985  5.228162911611776 11.091854419410765  4.462391681109182 11.091854419410765  L 1.3864818024263457 11.091854419410765  C 0.6207105719237518 11.091854419410765  0 10.471143847486985  0 9.705372616984391  L 0 1.3864818024263172  Z M 40.61369150779896 0.4059792027729827  C 41.155025996533794 -0.13544194107453222  42.033188908145576 -0.13518197573654334  42.5743500866551 0.4059792027729827  L 49.50632582322356 7.338474870017308  C 50.37339688041595 8.20563258232238  49.765771230502594 9.705372616984391  48.52599653379548 9.705372616984391  L 44 9.705372616984391  L 44 29.11611785095323  L 48.52686308492201 29.11611785095323  C 49.8820623916811 29.11611785095323  50.31499133448876 30.675129982668977  49.5071923743501 31.48301559792031  L 42.57521663778164 38.41551126516464  C 42.0338821490468 38.95684575389947  41.15571923743502 38.956672443674165  40.61455805892547 38.41551126516464  L 33.68258232235701 31.48301559792031  C 32.815511265164645 30.61585788561524  33.423136915077976 29.11611785095323  34.66291161178509 29.11611785095323  L 38 29.11611785095323  L 38 9.705372616984391  L 34.662045060658585 9.705372616984391  C 33.306845753899495 9.705372616984391  32.873916811091874 8.146360485268644  33.6817157712305 7.338474870017308  L 40.61369150779896 0.4059792027729827  Z " fill-rule="evenodd" />
    </mask>
  </defs>
  <g>
    <path d="M 0 1.3864818024263172  C 0 0.6207105719237234  0.6207105719237518 0  1.3864818024263457 0  L 26.343154246100507 0  C 27.108925476603137 0  27.729636048526856 0.6207105719237234  27.729636048526856 1.3864818024263172  L 27.729636048526856 9.705372616984391  C 27.729636048526856 10.471143847486985  27.108925476603137 11.091854419410765  26.343154246100507 11.091854419410765  L 23.267244367417675 11.091854419410765  C 22.50147313691508 11.091854419410765  21.88076256499133 10.471143847486985  21.88076256499133 9.705372616984391  L 21.88076256499133 5.545927209705383  L 18 5.545927209705383  L 18 33.27556325823224  L 20.10398613518197 33.27556325823224  C 20.869757365684563 33.27556325823224  21.490467937608315 33.89627383015602  21.490467937608315 34.66204506065861  L 21.490467937608315 37.435008665511305  C 21.490467937608315 38.2007798960139  20.869757365684563 38.82149046793762  20.10398613518197 38.82149046793762  L 7.625649913344887 38.82149046793762  C 6.859878682842294 38.82149046793762  6.239168110918541 38.2007798960139  6.239168110918541 37.435008665511305  L 6.239168110918541 34.66204506065861  C 6.239168110918541 33.89627383015602  6.859878682842294 33.27556325823224  7.625649913344887 33.27556325823224  L 11 33.27556325823224  L 11 5.545927209705383  L 5.848873483535527 5.545927209705383  L 5.848873483535527 9.705372616984391  C 5.848873483535527 10.471143847486985  5.228162911611776 11.091854419410765  4.462391681109182 11.091854419410765  L 1.3864818024263457 11.091854419410765  C 0.6207105719237518 11.091854419410765  0 10.471143847486985  0 9.705372616984391  L 0 1.3864818024263172  Z M 40.61369150779896 0.4059792027729827  C 41.155025996533794 -0.13544194107453222  42.033188908145576 -0.13518197573654334  42.5743500866551 0.4059792027729827  L 49.50632582322356 7.338474870017308  C 50.37339688041595 8.20563258232238  49.765771230502594 9.705372616984391  48.52599653379548 9.705372616984391  L 44 9.705372616984391  L 44 29.11611785095323  L 48.52686308492201 29.11611785095323  C 49.8820623916811 29.11611785095323  50.31499133448876 30.675129982668977  49.5071923743501 31.48301559792031  L 42.57521663778164 38.41551126516464  C 42.0338821490468 38.95684575389947  41.15571923743502 38.956672443674165  40.61455805892547 38.41551126516464  L 33.68258232235701 31.48301559792031  C 32.815511265164645 30.61585788561524  33.423136915077976 29.11611785095323  34.66291161178509 29.11611785095323  L 38 29.11611785095323  L 38 9.705372616984391  L 34.662045060658585 9.705372616984391  C 33.306845753899495 9.705372616984391  32.873916811091874 8.146360485268644  33.6817157712305 7.338474870017308  L 40.61369150779896 0.4059792027729827  Z " fill-rule="nonzero" fill="rgba(0, 0, 0, 1)" stroke="none" class="fill" />
    <path d="M 0 1.3864818024263172  C 0 0.6207105719237234  0.6207105719237518 0  1.3864818024263457 0  L 26.343154246100507 0  C 27.108925476603137 0  27.729636048526856 0.6207105719237234  27.729636048526856 1.3864818024263172  L 27.729636048526856 9.705372616984391  C 27.729636048526856 10.471143847486985  27.108925476603137 11.091854419410765  26.343154246100507 11.091854419410765  L 23.267244367417675 11.091854419410765  C 22.50147313691508 11.091854419410765  21.88076256499133 10.471143847486985  21.88076256499133 9.705372616984391  L 21.88076256499133 5.545927209705383  L 18 5.545927209705383  L 18 33.27556325823224  L 20.10398613518197 33.27556325823224  C 20.869757365684563 33.27556325823224  21.490467937608315 33.89627383015602  21.490467937608315 34.66204506065861  L 21.490467937608315 37.435008665511305  C 21.490467937608315 38.2007798960139  20.869757365684563 38.82149046793762  20.10398613518197 38.82149046793762  L 7.625649913344887 38.82149046793762  C 6.859878682842294 38.82149046793762  6.239168110918541 38.2007798960139  6.239168110918541 37.435008665511305  L 6.239168110918541 34.66204506065861  C 6.239168110918541 33.89627383015602  6.859878682842294 33.27556325823224  7.625649913344887 33.27556325823224  L 11 33.27556325823224  L 11 5.545927209705383  L 5.848873483535527 5.545927209705383  L 5.848873483535527 9.705372616984391  C 5.848873483535527 10.471143847486985  5.228162911611776 11.091854419410765  4.462391681109182 11.091854419410765  L 1.3864818024263457 11.091854419410765  C 0.6207105719237518 11.091854419410765  0 10.471143847486985  0 9.705372616984391  L 0 1.3864818024263172  Z " stroke-width="0" stroke-dasharray="0" stroke="rgba(255, 255, 255, 0)" fill="none" class="stroke" mask="url(#Clip2053)" />
    <path d="M 40.61369150779896 0.4059792027729827  C 41.155025996533794 -0.13544194107453222  42.033188908145576 -0.13518197573654334  42.5743500866551 0.4059792027729827  L 49.50632582322356 7.338474870017308  C 50.37339688041595 8.20563258232238  49.765771230502594 9.705372616984391  48.52599653379548 9.705372616984391  L 44 9.705372616984391  L 44 29.11611785095323  L 48.52686308492201 29.11611785095323  C 49.8820623916811 29.11611785095323  50.31499133448876 30.675129982668977  49.5071923743501 31.48301559792031  L 42.57521663778164 38.41551126516464  C 42.0338821490468 38.95684575389947  41.15571923743502 38.956672443674165  40.61455805892547 38.41551126516464  L 33.68258232235701 31.48301559792031  C 32.815511265164645 30.61585788561524  33.423136915077976 29.11611785095323  34.66291161178509 29.11611785095323  L 38 29.11611785095323  L 38 9.705372616984391  L 34.662045060658585 9.705372616984391  C 33.306845753899495 9.705372616984391  32.873916811091874 8.146360485268644  33.6817157712305 7.338474870017308  L 40.61369150779896 0.4059792027729827  Z " stroke-width="0" stroke-dasharray="0" stroke="rgba(255, 255, 255, 0)" fill="none" class="stroke" mask="url(#Clip2053)" />
  </g>
</svg>