<?xml version="1.0" encoding="utf-8"?>
<svg version="1.1" xmlns:xlink="http://www.w3.org/1999/xlink" width="24px" height="28px" xmlns="http://www.w3.org/2000/svg">
  <defs>
    <pattern id="BGPattern" patternUnits="userSpaceOnUse" alignment="0 0" imageRepeat="None" />
    <mask fill="white" id="Clip502">
      <path d="M 20.800000000000008 16  C 20.800000000000008 15.343999999999998  21.328000000000007 14.8  22 14.8  C 22.672 14.8  23.168 15.296000000000003  23.2 16  C 23.2 22.192  18.192 27.2  12 27.2  C 5.808 27.2  0.8000000000000007 22.192  0.8000000000000007 16  C 0.8000000000000007 9.808  5.808 4.800000000000001  12 4.800000000000001  C 12.448 4.800000000000001  12.896 4.832000000000001  13.344000000000001 4.880000000000001  L 11.296000000000001 2.8320000000000007  C 10.784 2.3520000000000008  10.88 1.6000000000000008  11.264000000000001 1.1520000000000008  C 11.712000000000002 0.6720000000000008  12.512 0.6560000000000008  12.992 1.1360000000000008  L 17.392000000000003 5.536000000000001  C 17.616000000000003 5.760000000000002  17.728 6.080000000000002  17.744000000000003 6.384000000000001  C 17.744000000000003 6.6880000000000015  17.616000000000003 6.992000000000001  17.376000000000005 7.232000000000001  L 12.976000000000006 11.632000000000001  C 12.528000000000006 12.080000000000002  11.840000000000007 12.096000000000002  11.360000000000007 11.696000000000002  C 10.816000000000006 11.280000000000001  10.784000000000006 10.416000000000002  11.296000000000006 9.936000000000002  L 13.840000000000007 7.392000000000002  C 13.248000000000008 7.264000000000001  12.624000000000006 7.200000000000001  12.000000000000007 7.200000000000001  C 7.136000000000006 7.200000000000001  3.2000000000000064 11.136000000000001  3.2000000000000064 16  C 3.2000000000000064 20.863999999999997  7.136000000000006 24.8  12.000000000000007 24.8  C 16.864000000000008 24.8  20.800000000000008 20.864  20.800000000000008 16  Z " fill-rule="evenodd" />
    </mask>
  </defs>
  <g>
    <path d="M 20.800000000000008 16  C 20.800000000000008 15.343999999999998  21.328000000000007 14.8  22 14.8  C 22.672 14.8  23.168 15.296000000000003  23.2 16  C 23.2 22.192  18.192 27.2  12 27.2  C 5.808 27.2  0.8000000000000007 22.192  0.8000000000000007 16  C 0.8000000000000007 9.808  5.808 4.800000000000001  12 4.800000000000001  C 12.448 4.800000000000001  12.896 4.832000000000001  13.344000000000001 4.880000000000001  L 11.296000000000001 2.8320000000000007  C 10.784 2.3520000000000008  10.88 1.6000000000000008  11.264000000000001 1.1520000000000008  C 11.712000000000002 0.6720000000000008  12.512 0.6560000000000008  12.992 1.1360000000000008  L 17.392000000000003 5.536000000000001  C 17.616000000000003 5.760000000000002  17.728 6.080000000000002  17.744000000000003 6.384000000000001  C 17.744000000000003 6.6880000000000015  17.616000000000003 6.992000000000001  17.376000000000005 7.232000000000001  L 12.976000000000006 11.632000000000001  C 12.528000000000006 12.080000000000002  11.840000000000007 12.096000000000002  11.360000000000007 11.696000000000002  C 10.816000000000006 11.280000000000001  10.784000000000006 10.416000000000002  11.296000000000006 9.936000000000002  L 13.840000000000007 7.392000000000002  C 13.248000000000008 7.264000000000001  12.624000000000006 7.200000000000001  12.000000000000007 7.200000000000001  C 7.136000000000006 7.200000000000001  3.2000000000000064 11.136000000000001  3.2000000000000064 16  C 3.2000000000000064 20.863999999999997  7.136000000000006 24.8  12.000000000000007 24.8  C 16.864000000000008 24.8  20.800000000000008 20.864  20.800000000000008 16  Z " fill-rule="nonzero" fill="rgba(0, 0, 0, 1)" stroke="none" class="fill" />
    <path d="M 20.800000000000008 16  C 20.800000000000008 15.343999999999998  21.328000000000007 14.8  22 14.8  C 22.672 14.8  23.168 15.296000000000003  23.2 16  C 23.2 22.192  18.192 27.2  12 27.2  C 5.808 27.2  0.8000000000000007 22.192  0.8000000000000007 16  C 0.8000000000000007 9.808  5.808 4.800000000000001  12 4.800000000000001  C 12.448 4.800000000000001  12.896 4.832000000000001  13.344000000000001 4.880000000000001  L 11.296000000000001 2.8320000000000007  C 10.784 2.3520000000000008  10.88 1.6000000000000008  11.264000000000001 1.1520000000000008  C 11.712000000000002 0.6720000000000008  12.512 0.6560000000000008  12.992 1.1360000000000008  L 17.392000000000003 5.536000000000001  C 17.616000000000003 5.760000000000002  17.728 6.080000000000002  17.744000000000003 6.384000000000001  C 17.744000000000003 6.6880000000000015  17.616000000000003 6.992000000000001  17.376000000000005 7.232000000000001  L 12.976000000000006 11.632000000000001  C 12.528000000000006 12.080000000000002  11.840000000000007 12.096000000000002  11.360000000000007 11.696000000000002  C 10.816000000000006 11.280000000000001  10.784000000000006 10.416000000000002  11.296000000000006 9.936000000000002  L 13.840000000000007 7.392000000000002  C 13.248000000000008 7.264000000000001  12.624000000000006 7.200000000000001  12.000000000000007 7.200000000000001  C 7.136000000000006 7.200000000000001  3.2000000000000064 11.136000000000001  3.2000000000000064 16  C 3.2000000000000064 20.863999999999997  7.136000000000006 24.8  12.000000000000007 24.8  C 16.864000000000008 24.8  20.800000000000008 20.864  20.800000000000008 16  Z " stroke-width="0" stroke-dasharray="0" stroke="rgba(255, 255, 255, 0)" fill="none" class="stroke" mask="url(#Clip502)" />
  </g>
</svg>