<?xml version="1.0" encoding="utf-8"?>
<svg version="1.1" xmlns:xlink="http://www.w3.org/1999/xlink" width="48px" height="48px" xmlns="http://www.w3.org/2000/svg">
  <defs>
    <pattern id="BGPattern" patternUnits="userSpaceOnUse" alignment="0 0" imageRepeat="None" />
    <mask fill="white" id="Clip7549">
      <path d="M 48 0  L 0 0  L 0 48  L 48 48  L 48 0  Z M 35.775999999999996 5.776  L 35.778 5.778  C 38.666 5.778  41.111999999999995 6.666  43.111999999999995 8.334  L 40.88999999999999 11.668  C 39.111999999999995 10.446  37.44599999999999 9.668  35.77799999999999 9.668  C 34.10999999999999 9.668  33.221999999999994 10.446  33.221999999999994 11.446  L 33.221999999999994 11.558  C 33.221999999999994 12.892  34.10999999999999 13.335999999999999  37.443999999999996 14.224  C 41.443999999999996 15.336  43.666 16.78  43.666 20.224  L 43.666 20.336  C 43.666 24.336  40.666 26.558  36.443999999999996 26.558  C 33.443999999999996 26.445999999999998  30.443999999999996 25.336  28.11 23.224  L 30.665999999999997 20.112000000000002  C 32.443999999999996 21.556  34.331999999999994 22.556  36.553999999999995 22.556  C 38.331999999999994 22.556  39.331999999999994 21.89  39.331999999999994 20.668  L 39.331999999999994 20.556  C 39.331999999999994 19.444000000000003  38.666 18.89  35.331999999999994 18  C 31.331999999999994 17  28.887999999999995 15.888000000000002  28.887999999999995 11.888  L 28.887999999999995 11.776  C 28.887999999999995 8.11  31.775999999999996 5.776  35.775999999999996 5.776  Z M 3.558 6.222000000000001  L 3.5559999999999974 6.2219999999999995  L 8.111999999999998 6.2219999999999995  L 11.111999999999998 17.778  L 14.555999999999997 6.2219999999999995  L 17.889999999999997 6.2219999999999995  L 21.223999999999997 17.778  L 24.223999999999997 6.2219999999999995  L 28.889999999999997 6.2219999999999995  L 23.223999999999997 26.11  L 19.446 26.11  L 16.224 14.554000000000002  L 12.89 26.11  L 9.224 26.11  L 3.558 6.222000000000001  Z M 4.555999999999997 42  L 4.555999999999997 39  L 22.555999999999997 39  L 22.555999999999997 42  L 4.555999999999997 42  Z " fill-rule="evenodd" />
    </mask>
  </defs>
  <g>
    <path d="M 48 0  L 0 0  L 0 48  L 48 48  L 48 0  Z M 35.775999999999996 5.776  L 35.778 5.778  C 38.666 5.778  41.111999999999995 6.666  43.111999999999995 8.334  L 40.88999999999999 11.668  C 39.111999999999995 10.446  37.44599999999999 9.668  35.77799999999999 9.668  C 34.10999999999999 9.668  33.221999999999994 10.446  33.221999999999994 11.446  L 33.221999999999994 11.558  C 33.221999999999994 12.892  34.10999999999999 13.335999999999999  37.443999999999996 14.224  C 41.443999999999996 15.336  43.666 16.78  43.666 20.224  L 43.666 20.336  C 43.666 24.336  40.666 26.558  36.443999999999996 26.558  C 33.443999999999996 26.445999999999998  30.443999999999996 25.336  28.11 23.224  L 30.665999999999997 20.112000000000002  C 32.443999999999996 21.556  34.331999999999994 22.556  36.553999999999995 22.556  C 38.331999999999994 22.556  39.331999999999994 21.89  39.331999999999994 20.668  L 39.331999999999994 20.556  C 39.331999999999994 19.444000000000003  38.666 18.89  35.331999999999994 18  C 31.331999999999994 17  28.887999999999995 15.888000000000002  28.887999999999995 11.888  L 28.887999999999995 11.776  C 28.887999999999995 8.11  31.775999999999996 5.776  35.775999999999996 5.776  Z M 3.558 6.222000000000001  L 3.5559999999999974 6.2219999999999995  L 8.111999999999998 6.2219999999999995  L 11.111999999999998 17.778  L 14.555999999999997 6.2219999999999995  L 17.889999999999997 6.2219999999999995  L 21.223999999999997 17.778  L 24.223999999999997 6.2219999999999995  L 28.889999999999997 6.2219999999999995  L 23.223999999999997 26.11  L 19.446 26.11  L 16.224 14.554000000000002  L 12.89 26.11  L 9.224 26.11  L 3.558 6.222000000000001  Z M 4.555999999999997 42  L 4.555999999999997 39  L 22.555999999999997 39  L 22.555999999999997 42  L 4.555999999999997 42  Z " fill-rule="nonzero" fill="rgba(0, 0, 0, 1)" stroke="none" class="fill" />
    <path d="M 48 0  L 0 0  L 0 48  L 48 48  L 48 0  Z " stroke-width="0" stroke-dasharray="0" stroke="rgba(255, 255, 255, 0)" fill="none" class="stroke" mask="url(#Clip7549)" />
    <path d="M 35.775999999999996 5.776  L 35.778 5.778  C 38.666 5.778  41.111999999999995 6.666  43.111999999999995 8.334  L 40.88999999999999 11.668  C 39.111999999999995 10.446  37.44599999999999 9.668  35.77799999999999 9.668  C 34.10999999999999 9.668  33.221999999999994 10.446  33.221999999999994 11.446  L 33.221999999999994 11.558  C 33.221999999999994 12.892  34.10999999999999 13.335999999999999  37.443999999999996 14.224  C 41.443999999999996 15.336  43.666 16.78  43.666 20.224  L 43.666 20.336  C 43.666 24.336  40.666 26.558  36.443999999999996 26.558  C 33.443999999999996 26.445999999999998  30.443999999999996 25.336  28.11 23.224  L 30.665999999999997 20.112000000000002  C 32.443999999999996 21.556  34.331999999999994 22.556  36.553999999999995 22.556  C 38.331999999999994 22.556  39.331999999999994 21.89  39.331999999999994 20.668  L 39.331999999999994 20.556  C 39.331999999999994 19.444000000000003  38.666 18.89  35.331999999999994 18  C 31.331999999999994 17  28.887999999999995 15.888000000000002  28.887999999999995 11.888  L 28.887999999999995 11.776  C 28.887999999999995 8.11  31.775999999999996 5.776  35.775999999999996 5.776  Z " stroke-width="0" stroke-dasharray="0" stroke="rgba(255, 255, 255, 0)" fill="none" class="stroke" mask="url(#Clip7549)" />
    <path d="M 3.558 6.222000000000001  L 3.5559999999999974 6.2219999999999995  L 8.111999999999998 6.2219999999999995  L 11.111999999999998 17.778  L 14.555999999999997 6.2219999999999995  L 17.889999999999997 6.2219999999999995  L 21.223999999999997 17.778  L 24.223999999999997 6.2219999999999995  L 28.889999999999997 6.2219999999999995  L 23.223999999999997 26.11  L 19.446 26.11  L 16.224 14.554000000000002  L 12.89 26.11  L 9.224 26.11  L 3.558 6.222000000000001  Z " stroke-width="0" stroke-dasharray="0" stroke="rgba(255, 255, 255, 0)" fill="none" class="stroke" mask="url(#Clip7549)" />
    <path d="M 4.555999999999997 42  L 4.555999999999997 39  L 22.555999999999997 39  L 22.555999999999997 42  L 4.555999999999997 42  Z " stroke-width="0" stroke-dasharray="0" stroke="rgba(255, 255, 255, 0)" fill="none" class="stroke" mask="url(#Clip7549)" />
  </g>
</svg>