<?xml version="1.0" encoding="utf-8"?>
<svg version="1.1" xmlns:xlink="http://www.w3.org/1999/xlink" width="52px" height="52px" xmlns="http://www.w3.org/2000/svg">
  <defs>
    <pattern id="BGPattern" patternUnits="userSpaceOnUse" alignment="0 0" imageRepeat="None" />
    <mask fill="white" id="Clip2327">
      <path d="M 51.64375 15.5  C 52.068749999999994 12.91875  51.2125 10.2625  49.35 8.3875  L 42.693749999999994 1.737499999999999  C 41.7454144763291 0.784997118050689  40.4565989180915 0.24967756681064035  39.112500000000004 0.25  C 37.75625 0.25  36.48125 0.78125  35.525000000000006 1.7375  L 28.362499999999994 8.899999999999999  C 27.409997118050686 9.848335523670897  26.874677566810636 11.137151081908499  26.875000000000004 12.48125  C 26.875000000000004 13.8375  27.406250000000004 15.1125  28.362499999999994 16.068749999999998  L 33.599999999999994 21.306250000000002  C 32.37402224421083 24.00850142439678  30.669517484506542 26.466799593361607  28.56875 28.5625  C 26.473257715056555 30.66836730653376  24.015171341897922 32.37907685822383  21.3125 33.6125  L 16.075 28.374999999999993  C 15.1266644763291 27.42249711805069  13.837848918091495 26.88717756681064  12.493749999999999 26.887500000000006  C 11.1375 26.887500000000006  9.862499999999999 27.418750000000006  8.906249999999998 28.374999999999996  L 1.7375000000000007 35.53125000000001  C 0.7838121254233643 36.481349129042364  0.2484287636925746 37.772567824981316  0.25 39.11875  C 0.25 40.475  0.78125 41.75  1.7375 42.70625  L 8.38125 49.349999999999994  C 9.90625 50.881249999999994  12.0125 51.74999999999999  14.175 51.74999999999999  C 14.631250000000001 51.74999999999999  15.068750000000003 51.71249999999999  15.5 51.637499999999996  C 23.925 50.24999999999999  32.28125 45.76875  39.025 39.03125  C 45.7625 32.3  50.2375 23.95  51.64375 15.5  Z " fill-rule="evenodd" />
    </mask>
  </defs>
  <g>
    <path d="M 51.64375 15.5  C 52.068749999999994 12.91875  51.2125 10.2625  49.35 8.3875  L 42.693749999999994 1.737499999999999  C 41.7454144763291 0.784997118050689  40.4565989180915 0.24967756681064035  39.112500000000004 0.25  C 37.75625 0.25  36.48125 0.78125  35.525000000000006 1.7375  L 28.362499999999994 8.899999999999999  C 27.409997118050686 9.848335523670897  26.874677566810636 11.137151081908499  26.875000000000004 12.48125  C 26.875000000000004 13.8375  27.406250000000004 15.1125  28.362499999999994 16.068749999999998  L 33.599999999999994 21.306250000000002  C 32.37402224421083 24.00850142439678  30.669517484506542 26.466799593361607  28.56875 28.5625  C 26.473257715056555 30.66836730653376  24.015171341897922 32.37907685822383  21.3125 33.6125  L 16.075 28.374999999999993  C 15.1266644763291 27.42249711805069  13.837848918091495 26.88717756681064  12.493749999999999 26.887500000000006  C 11.1375 26.887500000000006  9.862499999999999 27.418750000000006  8.906249999999998 28.374999999999996  L 1.7375000000000007 35.53125000000001  C 0.7838121254233643 36.481349129042364  0.2484287636925746 37.772567824981316  0.25 39.11875  C 0.25 40.475  0.78125 41.75  1.7375 42.70625  L 8.38125 49.349999999999994  C 9.90625 50.881249999999994  12.0125 51.74999999999999  14.175 51.74999999999999  C 14.631250000000001 51.74999999999999  15.068750000000003 51.71249999999999  15.5 51.637499999999996  C 23.925 50.24999999999999  32.28125 45.76875  39.025 39.03125  C 45.7625 32.3  50.2375 23.95  51.64375 15.5  Z " fill-rule="nonzero" fill="rgba(0, 0, 0, 1)" stroke="none" class="fill" />
    <path d="M 51.64375 15.5  C 52.068749999999994 12.91875  51.2125 10.2625  49.35 8.3875  L 42.693749999999994 1.737499999999999  C 41.7454144763291 0.784997118050689  40.4565989180915 0.24967756681064035  39.112500000000004 0.25  C 37.75625 0.25  36.48125 0.78125  35.525000000000006 1.7375  L 28.362499999999994 8.899999999999999  C 27.409997118050686 9.848335523670897  26.874677566810636 11.137151081908499  26.875000000000004 12.48125  C 26.875000000000004 13.8375  27.406250000000004 15.1125  28.362499999999994 16.068749999999998  L 33.599999999999994 21.306250000000002  C 32.37402224421083 24.00850142439678  30.669517484506542 26.466799593361607  28.56875 28.5625  C 26.473257715056555 30.66836730653376  24.015171341897922 32.37907685822383  21.3125 33.6125  L 16.075 28.374999999999993  C 15.1266644763291 27.42249711805069  13.837848918091495 26.88717756681064  12.493749999999999 26.887500000000006  C 11.1375 26.887500000000006  9.862499999999999 27.418750000000006  8.906249999999998 28.374999999999996  L 1.7375000000000007 35.53125000000001  C 0.7838121254233643 36.481349129042364  0.2484287636925746 37.772567824981316  0.25 39.11875  C 0.25 40.475  0.78125 41.75  1.7375 42.70625  L 8.38125 49.349999999999994  C 9.90625 50.881249999999994  12.0125 51.74999999999999  14.175 51.74999999999999  C 14.631250000000001 51.74999999999999  15.068750000000003 51.71249999999999  15.5 51.637499999999996  C 23.925 50.24999999999999  32.28125 45.76875  39.025 39.03125  C 45.7625 32.3  50.2375 23.95  51.64375 15.5  Z " stroke-width="0" stroke-dasharray="0" stroke="rgba(255, 255, 255, 0)" fill="none" class="stroke" mask="url(#Clip2327)" />
  </g>
</svg>