<?xml version="1.0" encoding="utf-8"?>
<svg version="1.1" xmlns:xlink="http://www.w3.org/1999/xlink" width="20px" height="20px" xmlns="http://www.w3.org/2000/svg">
  <defs>
    <pattern id="BGPattern" patternUnits="userSpaceOnUse" alignment="0 0" imageRepeat="None" />
    <mask fill="white" id="Clip4900">
      <path d="M 12.704 1.5  C 13.118213562373093 1.5  13.453999999999999 1.164213562373095  13.453999999999999 0.75  C 13.453999999999999 0.3357864376269051  13.118213562373093 0  12.704 0  L 2.75 0  C 1.5073593128807148 0  0.5 1.0073593128807143  0.5 2.25  L 0.5 17.25  C 0.5 18.492640687119284  1.5073593128807148 19.5  2.75 19.5  L 17.749999999999996 19.5  C 18.992640687119284 19.5  19.999999999999996 18.492640687119284  20 17.25  L 20 7.295999999999999  C 20 6.881786437626905  19.664213562373096 6.545999999999999  19.25 6.545999999999999  C 18.835786437626904 6.545999999999999  18.5 6.881786437626905  18.5 7.295999999999999  L 18.5 17.25  C 18.5 17.664213562373096  18.164213562373096 18  17.75 18  L 2.75 18  C 2.335786437626905 18  2 17.664213562373096  2 17.25  L 2 2.25  C 2 1.835786437626905  2.335786437626905 1.5  2.75 1.5  L 12.704 1.5  Z " fill-rule="evenodd" />
    </mask>
  </defs>
  <g transform="matrix(1 0 0 1 0 -2 )">
    <path d="M 12.704 1.5  C 13.118213562373093 1.5  13.453999999999999 1.164213562373095  13.453999999999999 0.75  C 13.453999999999999 0.3357864376269051  13.118213562373093 0  12.704 0  L 2.75 0  C 1.5073593128807148 0  0.5 1.0073593128807143  0.5 2.25  L 0.5 17.25  C 0.5 18.492640687119284  1.5073593128807148 19.5  2.75 19.5  L 17.749999999999996 19.5  C 18.992640687119284 19.5  19.999999999999996 18.492640687119284  20 17.25  L 20 7.295999999999999  C 20 6.881786437626905  19.664213562373096 6.545999999999999  19.25 6.545999999999999  C 18.835786437626904 6.545999999999999  18.5 6.881786437626905  18.5 7.295999999999999  L 18.5 17.25  C 18.5 17.664213562373096  18.164213562373096 18  17.75 18  L 2.75 18  C 2.335786437626905 18  2 17.664213562373096  2 17.25  L 2 2.25  C 2 1.835786437626905  2.335786437626905 1.5  2.75 1.5  L 12.704 1.5  Z " fill-rule="nonzero" fill="rgba(0, 0, 0, 1)" stroke="none" transform="matrix(1 0 0 1 0 2 )" class="fill" />
    <path d="M 12.704 1.5  C 13.118213562373093 1.5  13.453999999999999 1.164213562373095  13.453999999999999 0.75  C 13.453999999999999 0.3357864376269051  13.118213562373093 0  12.704 0  L 2.75 0  C 1.5073593128807148 0  0.5 1.0073593128807143  0.5 2.25  L 0.5 17.25  C 0.5 18.492640687119284  1.5073593128807148 19.5  2.75 19.5  L 17.749999999999996 19.5  C 18.992640687119284 19.5  19.999999999999996 18.492640687119284  20 17.25  L 20 7.295999999999999  C 20 6.881786437626905  19.664213562373096 6.545999999999999  19.25 6.545999999999999  C 18.835786437626904 6.545999999999999  18.5 6.881786437626905  18.5 7.295999999999999  L 18.5 17.25  C 18.5 17.664213562373096  18.164213562373096 18  17.75 18  L 2.75 18  C 2.335786437626905 18  2 17.664213562373096  2 17.25  L 2 2.25  C 2 1.835786437626905  2.335786437626905 1.5  2.75 1.5  L 12.704 1.5  Z " stroke-width="0" stroke-dasharray="0" stroke="rgba(255, 255, 255, 0)" fill="none" transform="matrix(1 0 0 1 0 2 )" class="stroke" mask="url(#Clip4900)" />
  </g>
</svg>