<?xml version="1.0" encoding="utf-8"?>
<svg version="1.1" xmlns:xlink="http://www.w3.org/1999/xlink" width="25px" height="22px" xmlns="http://www.w3.org/2000/svg">
  <defs>
    <pattern id="BGPattern" patternUnits="userSpaceOnUse" alignment="0 0" imageRepeat="None" />
    <mask fill="white" id="Clip6461">
      <path d="M 23.756999999999998 18.8495  L 13.472999999999999 1.3489999999999998  C 13.170768386816412 0.8225233580163736  12.610059801470912 0.49787499074211183  12.002999999999998 0.49787499074211183  C 11.395940198529082 0.49787499074211183  10.835231613183584 0.8225233580163736  10.533 1.3490000000000002  L 0.24749999999999997 18.8495  C -0.438 20.0165  0.384 21.5  1.7175 21.5  L 22.287 21.5  C 23.620499999999996 21.5  24.444 20.015  23.756999999999998 18.8495  Z M 11.825999999999999 2.1094999999999997  C 11.844686159316623 2.074138295370057  11.872699243690269 2.04456892853121  11.907000000000002 2.024000000000001  C 11.936404091189788 2.00787866825842  11.969468704601214 1.9996125149055635  12.003000000000004 2.000000000000001  C 12.036531295398792 1.9996125149055635  12.069595908810216 2.007878668258421  12.098999999999998 2.024  C 12.133300756309731 2.04456892853121  12.161313840683373 2.074138295370056  12.18 2.1094999999999997  L 22.464 19.61  C 22.516699244964627 19.69346350226411  22.518435154216064 19.799353966601785  22.468500000000002 19.8845  C 22.449053246739687 19.920993842870562  22.42066829884091 19.95195924057832  22.386 19.9745  C 22.356158084894098 19.992389517668215  22.321770968004987 20.001246805351776  22.287 20  L 1.7175 20  C 1.6695000000000002 20  1.6409999999999998 19.9895  1.6185 19.9745  C 1.5929999999999995 19.959500000000002  1.5614999999999999 19.929499999999997  1.5374999999999999 19.884500000000003  C 1.487108661422883 19.799633180189883  1.4882659067758726 19.693745230391528  1.5404999999999998 19.61  L 11.825999999999999 2.1094999999999997  Z " fill-rule="evenodd" />
    </mask>
  </defs>
  <g>
    <path d="M 23.756999999999998 18.8495  L 13.472999999999999 1.3489999999999998  C 13.170768386816412 0.8225233580163736  12.610059801470912 0.49787499074211183  12.002999999999998 0.49787499074211183  C 11.395940198529082 0.49787499074211183  10.835231613183584 0.8225233580163736  10.533 1.3490000000000002  L 0.24749999999999997 18.8495  C -0.438 20.0165  0.384 21.5  1.7175 21.5  L 22.287 21.5  C 23.620499999999996 21.5  24.444 20.015  23.756999999999998 18.8495  Z M 11.825999999999999 2.1094999999999997  C 11.844686159316623 2.074138295370057  11.872699243690269 2.04456892853121  11.907000000000002 2.024000000000001  C 11.936404091189788 2.00787866825842  11.969468704601214 1.9996125149055635  12.003000000000004 2.000000000000001  C 12.036531295398792 1.9996125149055635  12.069595908810216 2.007878668258421  12.098999999999998 2.024  C 12.133300756309731 2.04456892853121  12.161313840683373 2.074138295370056  12.18 2.1094999999999997  L 22.464 19.61  C 22.516699244964627 19.69346350226411  22.518435154216064 19.799353966601785  22.468500000000002 19.8845  C 22.449053246739687 19.920993842870562  22.42066829884091 19.95195924057832  22.386 19.9745  C 22.356158084894098 19.992389517668215  22.321770968004987 20.001246805351776  22.287 20  L 1.7175 20  C 1.6695000000000002 20  1.6409999999999998 19.9895  1.6185 19.9745  C 1.5929999999999995 19.959500000000002  1.5614999999999999 19.929499999999997  1.5374999999999999 19.884500000000003  C 1.487108661422883 19.799633180189883  1.4882659067758726 19.693745230391528  1.5404999999999998 19.61  L 11.825999999999999 2.1094999999999997  Z " fill-rule="nonzero" fill="rgba(0, 0, 0, 1)" stroke="none" class="fill" />
    <path d="M 23.756999999999998 18.8495  L 13.472999999999999 1.3489999999999998  C 13.170768386816412 0.8225233580163736  12.610059801470912 0.49787499074211183  12.002999999999998 0.49787499074211183  C 11.395940198529082 0.49787499074211183  10.835231613183584 0.8225233580163736  10.533 1.3490000000000002  L 0.24749999999999997 18.8495  C -0.438 20.0165  0.384 21.5  1.7175 21.5  L 22.287 21.5  C 23.620499999999996 21.5  24.444 20.015  23.756999999999998 18.8495  Z " stroke-width="0" stroke-dasharray="0" stroke="rgba(255, 255, 255, 0)" fill="none" class="stroke" mask="url(#Clip6461)" />
    <path d="M 11.825999999999999 2.1094999999999997  C 11.844686159316623 2.074138295370057  11.872699243690269 2.04456892853121  11.907000000000002 2.024000000000001  C 11.936404091189788 2.00787866825842  11.969468704601214 1.9996125149055635  12.003000000000004 2.000000000000001  C 12.036531295398792 1.9996125149055635  12.069595908810216 2.007878668258421  12.098999999999998 2.024  C 12.133300756309731 2.04456892853121  12.161313840683373 2.074138295370056  12.18 2.1094999999999997  L 22.464 19.61  C 22.516699244964627 19.69346350226411  22.518435154216064 19.799353966601785  22.468500000000002 19.8845  C 22.449053246739687 19.920993842870562  22.42066829884091 19.95195924057832  22.386 19.9745  C 22.356158084894098 19.992389517668215  22.321770968004987 20.001246805351776  22.287 20  L 1.7175 20  C 1.6695000000000002 20  1.6409999999999998 19.9895  1.6185 19.9745  C 1.5929999999999995 19.959500000000002  1.5614999999999999 19.929499999999997  1.5374999999999999 19.884500000000003  C 1.487108661422883 19.799633180189883  1.4882659067758726 19.693745230391528  1.5404999999999998 19.61  L 11.825999999999999 2.1094999999999997  Z " stroke-width="0" stroke-dasharray="0" stroke="rgba(255, 255, 255, 0)" fill="none" class="stroke" mask="url(#Clip6461)" />
  </g>
</svg>