<?xml version="1.0" encoding="utf-8"?>
<svg version="1.1" xmlns:xlink="http://www.w3.org/1999/xlink" width="18px" height="14px" xmlns="http://www.w3.org/2000/svg">
  <defs>
    <pattern id="BGPattern" patternUnits="userSpaceOnUse" alignment="0 0" imageRepeat="None" />
    <mask fill="white" id="Clip5872">
      <path d="M 1.5 14  C 1.085786437626905 14  0.75 13.664213562373096  0.75 13.25  C 0.75 12.835786437626904  1.085786437626905 12.5  1.5 12.5  L 16.5 12.5  C 16.914213562373096 12.5  17.25 12.835786437626904  17.25 13.25  C 17.25 13.664213562373096  16.914213562373096 14  16.5 14  L 1.5 14  Z M 1.5 8  C 1.085786437626905 8  0.75 7.664213562373096  0.75 7.250000000000001  C 0.75 6.835786437626904  1.085786437626905 6.5  1.5 6.5  L 16.5 6.5  C 16.914213562373096 6.5  17.25 6.835786437626904  17.25 7.250000000000001  C 17.25 7.664213562373096  16.914213562373096 8  16.5 8  L 1.5 8  Z M 1.5 2  C 1.085786437626905 2  0.75 1.664213562373095  0.75 1.25  C 0.75 0.8357864376269051  1.085786437626905 0.5  1.5 0.5  L 16.5 0.5  C 16.914213562373096 0.5  17.25 0.8357864376269051  17.25 1.25  C 17.25 1.664213562373095  16.914213562373096 2  16.5 2  L 1.5 2  Z " fill-rule="evenodd" />
    </mask>
  </defs>
  <g>
    <path d="M 1.5 14  C 1.085786437626905 14  0.75 13.664213562373096  0.75 13.25  C 0.75 12.835786437626904  1.085786437626905 12.5  1.5 12.5  L 16.5 12.5  C 16.914213562373096 12.5  17.25 12.835786437626904  17.25 13.25  C 17.25 13.664213562373096  16.914213562373096 14  16.5 14  L 1.5 14  Z M 1.5 8  C 1.085786437626905 8  0.75 7.664213562373096  0.75 7.250000000000001  C 0.75 6.835786437626904  1.085786437626905 6.5  1.5 6.5  L 16.5 6.5  C 16.914213562373096 6.5  17.25 6.835786437626904  17.25 7.250000000000001  C 17.25 7.664213562373096  16.914213562373096 8  16.5 8  L 1.5 8  Z M 1.5 2  C 1.085786437626905 2  0.75 1.664213562373095  0.75 1.25  C 0.75 0.8357864376269051  1.085786437626905 0.5  1.5 0.5  L 16.5 0.5  C 16.914213562373096 0.5  17.25 0.8357864376269051  17.25 1.25  C 17.25 1.664213562373095  16.914213562373096 2  16.5 2  L 1.5 2  Z " fill-rule="nonzero" fill="rgba(0, 0, 0, 1)" stroke="none" class="fill" />
    <path d="M 1.5 14  C 1.085786437626905 14  0.75 13.664213562373096  0.75 13.25  C 0.75 12.835786437626904  1.085786437626905 12.5  1.5 12.5  L 16.5 12.5  C 16.914213562373096 12.5  17.25 12.835786437626904  17.25 13.25  C 17.25 13.664213562373096  16.914213562373096 14  16.5 14  L 1.5 14  Z " stroke-width="0" stroke-dasharray="0" stroke="rgba(255, 255, 255, 0)" fill="none" class="stroke" mask="url(#Clip5872)" />
    <path d="M 1.5 8  C 1.085786437626905 8  0.75 7.664213562373096  0.75 7.250000000000001  C 0.75 6.835786437626904  1.085786437626905 6.5  1.5 6.5  L 16.5 6.5  C 16.914213562373096 6.5  17.25 6.835786437626904  17.25 7.250000000000001  C 17.25 7.664213562373096  16.914213562373096 8  16.5 8  L 1.5 8  Z " stroke-width="0" stroke-dasharray="0" stroke="rgba(255, 255, 255, 0)" fill="none" class="stroke" mask="url(#Clip5872)" />
    <path d="M 1.5 2  C 1.085786437626905 2  0.75 1.664213562373095  0.75 1.25  C 0.75 0.8357864376269051  1.085786437626905 0.5  1.5 0.5  L 16.5 0.5  C 16.914213562373096 0.5  17.25 0.8357864376269051  17.25 1.25  C 17.25 1.664213562373095  16.914213562373096 2  16.5 2  L 1.5 2  Z " stroke-width="0" stroke-dasharray="0" stroke="rgba(255, 255, 255, 0)" fill="none" class="stroke" mask="url(#Clip5872)" />
  </g>
</svg>