<?xml version="1.0" encoding="utf-8"?>
<svg version="1.1" xmlns:xlink="http://www.w3.org/1999/xlink" width="50px" height="50px" xmlns="http://www.w3.org/2000/svg">
  <defs>
    <pattern id="BGPattern" patternUnits="userSpaceOnUse" alignment="0 0" imageRepeat="None" />
    <mask fill="white" id="Clip856">
      <path d="M 50 5.357142857142833  C 50 2.399553571428555  47.600446428571445 0  44.64285714285717 0  L 5.357142857142833 0  C 2.399553571428555 0  0 2.399553571428555  0 5.357142857142833  L 0 44.64285714285717  C 0 47.600446428571445  2.399553571428555 50  5.357142857142833 50  L 44.64285714285717 50  C 47.600446428571445 50  50 47.600446428571445  50 44.64285714285717  L 50 5.357142857142833  Z M 42.84598214285711 29.27455357142856  C 42.85714285714283 33.370535714285666  39.41964285714283 34.921875  34.352678571428555 34.921875  C 27.276785714285722 34.921875  24.821428571428555 31.729910714285726  23.515625 27.76785714285711  C 21.696428571428555 22.075892857142833  21.116071428571445 18.359375  16.484375 18.359375  C 13.984374999999998 18.359375  11.450892857142833 20.15625  11.450892857142833 25.189732142857114  C 11.450892857142833 29.118303571428555  13.459821428571445 31.573660714285722  16.283482142857167 31.573660714285722  C 19.475446428571445 31.573660714285722  21.595982142857167 29.196428571428555  21.595982142857167 29.196428571428555  L 22.901785714285722 32.756696428571445  C 22.901785714285722 32.756696428571445  20.691964285714278 34.921875  16.071428571428555 34.921875  C 10.345982142857167 34.921875  7.154017857142833 31.5625  7.154017857142833 25.34598214285711  C 7.154017857142833 18.883928571428555  10.345982142857167 15.078125  16.361607142857167 15.078125  C 24.564732142857167 15.078125  25.379464285714278 19.698660714285722  27.61160714285717 26.450892857142833  C 28.59375 29.441964285714278  30.312499999999996 31.607142857142833  34.44196428571428 31.607142857142833  C 37.22098214285711 31.607142857142833  38.694196428571445 30.993303571428555  38.694196428571445 29.475446428571388  C 38.694196428571445 27.254464285714274  36.26116071428572 27.020089285714278  33.125 26.28348214285711  C 29.73214285714289 25.46875  28.381696428571445 23.70535714285711  28.381696428571445 20.926339285714278  C 28.381696428571445 16.462053571428555  31.986607142857164 15.078125  35.65848214285717 15.078125  C 39.83258928571428 15.078125  42.366071428571445 16.59598214285711  42.68973214285717 20.279017857142833  L 38.59375 20.770089285714278  C 38.42633928571428 19.006696428571388  37.366071428571445 18.270089285714278  35.40178571428572 18.270089285714278  C 33.60491071428572 18.270089285714278  32.5 19.084821428571388  32.5 20.479910714285666  C 32.5 21.707589285714278  33.03571428571428 22.444196428571388  34.83258928571428 22.857142857142833  C 38.48214285714283 23.649553571428555  42.84598214285711 24.196428571428555  42.84598214285711 29.27455357142856  Z " fill-rule="evenodd" />
    </mask>
  </defs>
  <g>
    <path d="M 50 5.357142857142833  C 50 2.399553571428555  47.600446428571445 0  44.64285714285717 0  L 5.357142857142833 0  C 2.399553571428555 0  0 2.399553571428555  0 5.357142857142833  L 0 44.64285714285717  C 0 47.600446428571445  2.399553571428555 50  5.357142857142833 50  L 44.64285714285717 50  C 47.600446428571445 50  50 47.600446428571445  50 44.64285714285717  L 50 5.357142857142833  Z M 42.84598214285711 29.27455357142856  C 42.85714285714283 33.370535714285666  39.41964285714283 34.921875  34.352678571428555 34.921875  C 27.276785714285722 34.921875  24.821428571428555 31.729910714285726  23.515625 27.76785714285711  C 21.696428571428555 22.075892857142833  21.116071428571445 18.359375  16.484375 18.359375  C 13.984374999999998 18.359375  11.450892857142833 20.15625  11.450892857142833 25.189732142857114  C 11.450892857142833 29.118303571428555  13.459821428571445 31.573660714285722  16.283482142857167 31.573660714285722  C 19.475446428571445 31.573660714285722  21.595982142857167 29.196428571428555  21.595982142857167 29.196428571428555  L 22.901785714285722 32.756696428571445  C 22.901785714285722 32.756696428571445  20.691964285714278 34.921875  16.071428571428555 34.921875  C 10.345982142857167 34.921875  7.154017857142833 31.5625  7.154017857142833 25.34598214285711  C 7.154017857142833 18.883928571428555  10.345982142857167 15.078125  16.361607142857167 15.078125  C 24.564732142857167 15.078125  25.379464285714278 19.698660714285722  27.61160714285717 26.450892857142833  C 28.59375 29.441964285714278  30.312499999999996 31.607142857142833  34.44196428571428 31.607142857142833  C 37.22098214285711 31.607142857142833  38.694196428571445 30.993303571428555  38.694196428571445 29.475446428571388  C 38.694196428571445 27.254464285714274  36.26116071428572 27.020089285714278  33.125 26.28348214285711  C 29.73214285714289 25.46875  28.381696428571445 23.70535714285711  28.381696428571445 20.926339285714278  C 28.381696428571445 16.462053571428555  31.986607142857164 15.078125  35.65848214285717 15.078125  C 39.83258928571428 15.078125  42.366071428571445 16.59598214285711  42.68973214285717 20.279017857142833  L 38.59375 20.770089285714278  C 38.42633928571428 19.006696428571388  37.366071428571445 18.270089285714278  35.40178571428572 18.270089285714278  C 33.60491071428572 18.270089285714278  32.5 19.084821428571388  32.5 20.479910714285666  C 32.5 21.707589285714278  33.03571428571428 22.444196428571388  34.83258928571428 22.857142857142833  C 38.48214285714283 23.649553571428555  42.84598214285711 24.196428571428555  42.84598214285711 29.27455357142856  Z " fill-rule="nonzero" fill="rgba(0, 0, 0, 1)" stroke="none" class="fill" />
    <path d="M 50 5.357142857142833  C 50 2.399553571428555  47.600446428571445 0  44.64285714285717 0  L 5.357142857142833 0  C 2.399553571428555 0  0 2.399553571428555  0 5.357142857142833  L 0 44.64285714285717  C 0 47.600446428571445  2.399553571428555 50  5.357142857142833 50  L 44.64285714285717 50  C 47.600446428571445 50  50 47.600446428571445  50 44.64285714285717  L 50 5.357142857142833  Z " stroke-width="0" stroke-dasharray="0" stroke="rgba(255, 255, 255, 0)" fill="none" class="stroke" mask="url(#Clip856)" />
    <path d="M 42.84598214285711 29.27455357142856  C 42.85714285714283 33.370535714285666  39.41964285714283 34.921875  34.352678571428555 34.921875  C 27.276785714285722 34.921875  24.821428571428555 31.729910714285726  23.515625 27.76785714285711  C 21.696428571428555 22.075892857142833  21.116071428571445 18.359375  16.484375 18.359375  C 13.984374999999998 18.359375  11.450892857142833 20.15625  11.450892857142833 25.189732142857114  C 11.450892857142833 29.118303571428555  13.459821428571445 31.573660714285722  16.283482142857167 31.573660714285722  C 19.475446428571445 31.573660714285722  21.595982142857167 29.196428571428555  21.595982142857167 29.196428571428555  L 22.901785714285722 32.756696428571445  C 22.901785714285722 32.756696428571445  20.691964285714278 34.921875  16.071428571428555 34.921875  C 10.345982142857167 34.921875  7.154017857142833 31.5625  7.154017857142833 25.34598214285711  C 7.154017857142833 18.883928571428555  10.345982142857167 15.078125  16.361607142857167 15.078125  C 24.564732142857167 15.078125  25.379464285714278 19.698660714285722  27.61160714285717 26.450892857142833  C 28.59375 29.441964285714278  30.312499999999996 31.607142857142833  34.44196428571428 31.607142857142833  C 37.22098214285711 31.607142857142833  38.694196428571445 30.993303571428555  38.694196428571445 29.475446428571388  C 38.694196428571445 27.254464285714274  36.26116071428572 27.020089285714278  33.125 26.28348214285711  C 29.73214285714289 25.46875  28.381696428571445 23.70535714285711  28.381696428571445 20.926339285714278  C 28.381696428571445 16.462053571428555  31.986607142857164 15.078125  35.65848214285717 15.078125  C 39.83258928571428 15.078125  42.366071428571445 16.59598214285711  42.68973214285717 20.279017857142833  L 38.59375 20.770089285714278  C 38.42633928571428 19.006696428571388  37.366071428571445 18.270089285714278  35.40178571428572 18.270089285714278  C 33.60491071428572 18.270089285714278  32.5 19.084821428571388  32.5 20.479910714285666  C 32.5 21.707589285714278  33.03571428571428 22.444196428571388  34.83258928571428 22.857142857142833  C 38.48214285714283 23.649553571428555  42.84598214285711 24.196428571428555  42.84598214285711 29.27455357142856  Z " stroke-width="0" stroke-dasharray="0" stroke="rgba(255, 255, 255, 0)" fill="none" class="stroke" mask="url(#Clip856)" />
  </g>
</svg>