<?xml version="1.0" encoding="utf-8"?>
<svg version="1.1" xmlns:xlink="http://www.w3.org/1999/xlink" width="50px" height="40px" xmlns="http://www.w3.org/2000/svg">
  <defs>
    <pattern id="BGPattern" patternUnits="userSpaceOnUse" alignment="0 0" imageRepeat="None" />
    <mask fill="white" id="Clip2140">
      <path d="M 49.625 22.3125  L 46.0625 18.75  L 49.625 15.1875  C 50.11718750000001 14.6953125  50.11718750000001 13.8984375  49.625 13.40625  L 47.84375 11.625  C 47.3515625 11.1328125  46.5546875 11.1328125  46.0625 11.625  L 42.5 15.1875  L 38.9375 11.625  C 38.4453125 11.1328125  37.6484375 11.1328125  37.15625 11.625  L 35.375 13.40625  C 34.8828125 13.8984375  34.8828125 14.6953125  35.375 15.1875  L 38.9375 18.75  L 35.375 22.3125  C 34.8828125 22.8046875  34.8828125 23.6015625  35.375 24.09375  L 37.15625 25.875  C 37.6484375 26.3671875  38.4453125 26.3671875  38.9375 25.875  L 42.5 22.3125  L 46.0625 25.875  C 46.5546875 26.3671875  47.3515625 26.3671875  47.84375 25.875  L 49.625 24.09375  C 50.11718750000001 23.6015625  50.11718750000001 22.8046875  49.625 22.3125  Z M 7.5 10  C 7.5 15.5234375  11.9765625 20  17.5 20  C 23.0234375 20  27.500000000000004 15.5234375  27.500000000000004 10  C 27.500000000000004 4.4765625  23.0234375 0  17.5 0  C 11.9765625 0  7.5 4.4765625  7.5 10  Z M 35 33  C 35 27.203125  30.296875 22.5  24.5 22.5  L 23.1953125 22.5  C 21.4609375 23.296875  19.53125 23.75  17.5 23.75  C 15.46875 23.75  13.546875 23.296875  11.8046875 22.5  L 10.5 22.5  C 4.703125 22.5  0 27.203125  0 33  L 0 36.25  C 0 38.3203125  1.6796875 40  3.75 40  L 31.25 40  C 33.3203125 40  35 38.3203125  35 36.25  L 35 33  Z " fill-rule="evenodd" />
    </mask>
  </defs>
  <g>
    <path d="M 49.625 22.3125  L 46.0625 18.75  L 49.625 15.1875  C 50.11718750000001 14.6953125  50.11718750000001 13.8984375  49.625 13.40625  L 47.84375 11.625  C 47.3515625 11.1328125  46.5546875 11.1328125  46.0625 11.625  L 42.5 15.1875  L 38.9375 11.625  C 38.4453125 11.1328125  37.6484375 11.1328125  37.15625 11.625  L 35.375 13.40625  C 34.8828125 13.8984375  34.8828125 14.6953125  35.375 15.1875  L 38.9375 18.75  L 35.375 22.3125  C 34.8828125 22.8046875  34.8828125 23.6015625  35.375 24.09375  L 37.15625 25.875  C 37.6484375 26.3671875  38.4453125 26.3671875  38.9375 25.875  L 42.5 22.3125  L 46.0625 25.875  C 46.5546875 26.3671875  47.3515625 26.3671875  47.84375 25.875  L 49.625 24.09375  C 50.11718750000001 23.6015625  50.11718750000001 22.8046875  49.625 22.3125  Z M 7.5 10  C 7.5 15.5234375  11.9765625 20  17.5 20  C 23.0234375 20  27.500000000000004 15.5234375  27.500000000000004 10  C 27.500000000000004 4.4765625  23.0234375 0  17.5 0  C 11.9765625 0  7.5 4.4765625  7.5 10  Z M 35 33  C 35 27.203125  30.296875 22.5  24.5 22.5  L 23.1953125 22.5  C 21.4609375 23.296875  19.53125 23.75  17.5 23.75  C 15.46875 23.75  13.546875 23.296875  11.8046875 22.5  L 10.5 22.5  C 4.703125 22.5  0 27.203125  0 33  L 0 36.25  C 0 38.3203125  1.6796875 40  3.75 40  L 31.25 40  C 33.3203125 40  35 38.3203125  35 36.25  L 35 33  Z " fill-rule="nonzero" fill="rgba(0, 0, 0, 1)" stroke="none" class="fill" />
    <path d="M 49.625 22.3125  L 46.0625 18.75  L 49.625 15.1875  C 50.11718750000001 14.6953125  50.11718750000001 13.8984375  49.625 13.40625  L 47.84375 11.625  C 47.3515625 11.1328125  46.5546875 11.1328125  46.0625 11.625  L 42.5 15.1875  L 38.9375 11.625  C 38.4453125 11.1328125  37.6484375 11.1328125  37.15625 11.625  L 35.375 13.40625  C 34.8828125 13.8984375  34.8828125 14.6953125  35.375 15.1875  L 38.9375 18.75  L 35.375 22.3125  C 34.8828125 22.8046875  34.8828125 23.6015625  35.375 24.09375  L 37.15625 25.875  C 37.6484375 26.3671875  38.4453125 26.3671875  38.9375 25.875  L 42.5 22.3125  L 46.0625 25.875  C 46.5546875 26.3671875  47.3515625 26.3671875  47.84375 25.875  L 49.625 24.09375  C 50.11718750000001 23.6015625  50.11718750000001 22.8046875  49.625 22.3125  Z " stroke-width="0" stroke-dasharray="0" stroke="rgba(255, 255, 255, 0)" fill="none" class="stroke" mask="url(#Clip2140)" />
    <path d="M 7.5 10  C 7.5 15.5234375  11.9765625 20  17.5 20  C 23.0234375 20  27.500000000000004 15.5234375  27.500000000000004 10  C 27.500000000000004 4.4765625  23.0234375 0  17.5 0  C 11.9765625 0  7.5 4.4765625  7.5 10  Z " stroke-width="0" stroke-dasharray="0" stroke="rgba(255, 255, 255, 0)" fill="none" class="stroke" mask="url(#Clip2140)" />
    <path d="M 35 33  C 35 27.203125  30.296875 22.5  24.5 22.5  L 23.1953125 22.5  C 21.4609375 23.296875  19.53125 23.75  17.5 23.75  C 15.46875 23.75  13.546875 23.296875  11.8046875 22.5  L 10.5 22.5  C 4.703125 22.5  0 27.203125  0 33  L 0 36.25  C 0 38.3203125  1.6796875 40  3.75 40  L 31.25 40  C 33.3203125 40  35 38.3203125  35 36.25  L 35 33  Z " stroke-width="0" stroke-dasharray="0" stroke="rgba(255, 255, 255, 0)" fill="none" class="stroke" mask="url(#Clip2140)" />
  </g>
</svg>