<?xml version="1.0" encoding="utf-8"?>
<svg version="1.1" xmlns:xlink="http://www.w3.org/1999/xlink" width="24px" height="16px" xmlns="http://www.w3.org/2000/svg">
  <defs>
    <pattern id="BGPattern" patternUnits="userSpaceOnUse" alignment="0 0" imageRepeat="None" />
    <mask fill="white" id="Clip6436">
      <path d="M 16.5 0.5  L 7.499999999999998 0.5  C 3.357864376269049 0.5  0 3.857864376269048  0 7.999999999999998  C 0 12.142135623730951  3.357864376269049 15.499999999999996  7.5 15.5  L 16.499999999999996 15.499999999999996  C 20.642135623730947 15.499999999999996  23.999999999999996 12.142135623730951  23.999999999999996 7.999999999999998  C 23.999999999999996 3.857864376269048  20.642135623730947 0.5  16.5 0.5  Z M 22.5 8  C 22.5 11.31370849898476  19.81370849898476 14  16.5 14  C 13.18629150101524 14  10.5 11.31370849898476  10.5 8  C 10.5 4.686291501015239  13.18629150101524 2  16.5 2  C 19.81370849898476 2  22.5 4.686291501015239  22.5 8  Z " fill-rule="evenodd" />
    </mask>
  </defs>
  <g>
    <path d="M 16.5 0.5  L 7.499999999999998 0.5  C 3.357864376269049 0.5  0 3.857864376269048  0 7.999999999999998  C 0 12.142135623730951  3.357864376269049 15.499999999999996  7.5 15.5  L 16.499999999999996 15.499999999999996  C 20.642135623730947 15.499999999999996  23.999999999999996 12.142135623730951  23.999999999999996 7.999999999999998  C 23.999999999999996 3.857864376269048  20.642135623730947 0.5  16.5 0.5  Z M 22.5 8  C 22.5 11.31370849898476  19.81370849898476 14  16.5 14  C 13.18629150101524 14  10.5 11.31370849898476  10.5 8  C 10.5 4.686291501015239  13.18629150101524 2  16.5 2  C 19.81370849898476 2  22.5 4.686291501015239  22.5 8  Z " fill-rule="nonzero" fill="rgba(0, 0, 0, 1)" stroke="none" class="fill" />
    <path d="M 16.5 0.5  L 7.499999999999998 0.5  C 3.357864376269049 0.5  0 3.857864376269048  0 7.999999999999998  C 0 12.142135623730951  3.357864376269049 15.499999999999996  7.5 15.5  L 16.499999999999996 15.499999999999996  C 20.642135623730947 15.499999999999996  23.999999999999996 12.142135623730951  23.999999999999996 7.999999999999998  C 23.999999999999996 3.857864376269048  20.642135623730947 0.5  16.5 0.5  Z " stroke-width="0" stroke-dasharray="0" stroke="rgba(255, 255, 255, 0)" fill="none" class="stroke" mask="url(#Clip6436)" />
    <path d="M 22.5 8  C 22.5 11.31370849898476  19.81370849898476 14  16.5 14  C 13.18629150101524 14  10.5 11.31370849898476  10.5 8  C 10.5 4.686291501015239  13.18629150101524 2  16.5 2  C 19.81370849898476 2  22.5 4.686291501015239  22.5 8  Z " stroke-width="0" stroke-dasharray="0" stroke="rgba(255, 255, 255, 0)" fill="none" class="stroke" mask="url(#Clip6436)" />
  </g>
</svg>