<?xml version="1.0" encoding="utf-8"?>
<svg version="1.1" xmlns:xlink="http://www.w3.org/1999/xlink" width="48px" height="8px" xmlns="http://www.w3.org/2000/svg">
  <defs>
    <pattern id="BGPattern" patternUnits="userSpaceOnUse" alignment="0 0" imageRepeat="None" />
    <mask fill="white" id="Clip7367">
      <path d="M 2.440000000000001 7.790000000000003  C 1.6761172071021293 7.78972890203644  0.9149073214440886 7.699779938475437  0.172 7.5219999999999985  L 0.172 6.077999999999999  C 0.992 6.338000000000001  1.722 6.468  2.3520000000000003 6.468  C 3.2260000000000004 6.468  3.66 6.2379999999999995  3.66 5.774000000000001  C 3.6634541951115906 5.608607401551268  3.5930803069130137 5.450266153104465  3.468 5.342000000000002  C 3.3420000000000005 5.216000000000001  3.008 5.046000000000003  2.4699999999999998 4.8260000000000005  C 1.5119999999999996 4.43  0.8819999999999997 4.096  0.5919999999999999 3.812000000000001  C 0.21731556079094644 3.448162879229951  0.012057457282491843 2.9440837911084863  0.025999999999999912 2.4220000000000006  C 0.025999999999999912 1.7020000000000017  0.30399999999999994 1.1479999999999997  0.8539999999999999 0.772000000000002  C 1.394 0.3960000000000008  2.106 0.2120000000000033  2.9779999999999998 0.2120000000000033  C 3.4579999999999993 0.2120000000000033  4.156 0.2980000000000018  5.068 0.47800000000000153  L 5.068 1.8619999999999983  C 4.469068020148324 1.60949784568988  3.8278220587213427 1.4724272803901393  3.178 1.458000000000002  C 2.358 1.458000000000002  1.952 1.6820000000000022  1.952 2.136000000000003  C 1.952 2.304000000000002  2.032 2.4360000000000035  2.2 2.546000000000003  C 2.334 2.6300000000000026  2.7140000000000004 2.8140000000000036  3.33 3.0920000000000023  C 4.222 3.4860000000000007  4.814 3.828000000000003  5.112 4.123999999999999  C 5.4675471361675845 4.479701897314769  5.658867946683558 4.967425024122527  5.6400000000000015 5.470000000000006  C 5.66481623608086 6.219672178783977  5.264726969416511 6.919247995156454  4.606000000000001 7.278000000000002  C 4.050000000000001 7.618000000000002  3.3260000000000005 7.790000000000003  2.440000000000001 7.790000000000003  Z M 6.789999999999999 7.637999999999998  L 6.792 0.3379999999999974  L 8.828 0.3379999999999974  L 8.828 7.637999999999998  L 6.789999999999999 7.637999999999998  Z M 16.014 7.639999999999997  L 10.698 7.637999999999998  L 10.698 0.3379999999999974  L 15.93 0.3379999999999974  L 15.93 1.6579999999999977  L 12.663999999999998 1.6579999999999977  L 12.663999999999998 3.3099999999999987  L 15.508 3.3099999999999987  L 15.508 4.513999999999999  L 12.663999999999998 4.513999999999999  L 12.663999999999998 6.245999999999999  L 16.014 6.245999999999999  L 16.014 7.639999999999997  Z M 17.345999999999993 7.640000000000001  L 17.348 7.637999999999998  L 17.348 0.3379999999999974  L 19.991999999999997 0.3379999999999974  L 21.825999999999997 5.003999999999998  L 23.711999999999996 0.3379999999999974  L 26.226 0.3379999999999974  L 26.226 7.637999999999998  L 24.287999999999997 7.637999999999998  L 24.287999999999997 2.469999999999999  L 22.147999999999996 7.713999999999999  L 20.885999999999996 7.713999999999999  L 18.785999999999994 2.469999999999999  L 18.785999999999994 7.640000000000001  L 17.345999999999993 7.640000000000001  Z M 33.412 7.639999999999997  L 28.094 7.637999999999998  L 28.094 0.3379999999999974  L 33.324 0.3379999999999974  L 33.324 1.6579999999999977  L 30.06 1.6579999999999977  L 30.06 3.3099999999999987  L 32.902 3.3099999999999987  L 32.902 4.513999999999999  L 30.06 4.513999999999999  L 30.06 6.245999999999999  L 33.412 6.245999999999999  L 33.412 7.639999999999997  Z M 36.19 7.642000000000003  L 34.754000000000005 7.637999999999998  L 34.754000000000005 0.3379999999999974  L 37.114000000000004 0.3379999999999974  L 39.624 5.227999999999998  L 39.624 0.33999999999999986  L 41.064 0.33999999999999986  L 41.064 7.640000000000001  L 38.76 7.640000000000001  L 36.19 2.6900000000000013  L 36.19 7.642000000000003  Z M 44.774 7.790000000000006  C 44.012 7.790000000000006  43.254 7.6980000000000075  42.510000000000005 7.5219999999999985  L 42.510000000000005 6.077999999999999  C 43.322 6.338000000000001  44.050000000000004 6.468  44.690000000000005 6.468  C 45.562000000000005 6.468  45.996 6.2379999999999995  45.996 5.773999999999997  C 45.99808098979885 5.610949815628935  45.9321296181358 5.454405900472672  45.814 5.342000000000002  C 45.682 5.216000000000001  45.346 5.046000000000003  44.808 4.8260000000000005  C 43.848 4.434000000000001  43.22 4.097999999999999  42.928 3.812000000000001  C 42.55143792997353 3.4468011917722805  42.34537953696347 2.9403619019095117  42.36 2.4160000000000004  C 42.36 1.6980000000000004  42.636 1.1479999999999997  43.186 0.772000000000002  C 43.73 0.3960000000000008  44.438 0.2120000000000033  45.308 0.2120000000000033  C 45.806 0.2120000000000033  46.44 0.2880000000000038  47.22 0.4440000000000026  L 47.4 0.47800000000000153  L 47.39999999999999 1.8620000000000019  C 46.80102464742564 1.6096357457856598  46.15980526297665 1.4725708614907447  45.51 1.458000000000002  C 44.692 1.458000000000002  44.284 1.6820000000000022  44.284 2.136000000000003  C 44.284 2.304000000000002  44.364 2.4360000000000035  44.532 2.544000000000004  C 44.663999999999994 2.6280000000000037  45.04 2.8100000000000023  45.672 3.092000000000006  C 46.558 3.4840000000000053  47.147999999999996 3.8280000000000065  47.44599999999999 4.124000000000006  C 47.80102252675862 4.479906282736351  47.99163871264167 4.967680781212721  47.972 5.470000000000006  C 47.972 6.262000000000008  47.632 6.866000000000007  46.952 7.278000000000006  C 46.385999999999996 7.618000000000006  45.664 7.790000000000006  44.774 7.790000000000006  Z " fill-rule="evenodd" />
    </mask>
  </defs>
  <g>
    <path d="M 2.440000000000001 7.790000000000003  C 1.6761172071021293 7.78972890203644  0.9149073214440886 7.699779938475437  0.172 7.5219999999999985  L 0.172 6.077999999999999  C 0.992 6.338000000000001  1.722 6.468  2.3520000000000003 6.468  C 3.2260000000000004 6.468  3.66 6.2379999999999995  3.66 5.774000000000001  C 3.6634541951115906 5.608607401551268  3.5930803069130137 5.450266153104465  3.468 5.342000000000002  C 3.3420000000000005 5.216000000000001  3.008 5.046000000000003  2.4699999999999998 4.8260000000000005  C 1.5119999999999996 4.43  0.8819999999999997 4.096  0.5919999999999999 3.812000000000001  C 0.21731556079094644 3.448162879229951  0.012057457282491843 2.9440837911084863  0.025999999999999912 2.4220000000000006  C 0.025999999999999912 1.7020000000000017  0.30399999999999994 1.1479999999999997  0.8539999999999999 0.772000000000002  C 1.394 0.3960000000000008  2.106 0.2120000000000033  2.9779999999999998 0.2120000000000033  C 3.4579999999999993 0.2120000000000033  4.156 0.2980000000000018  5.068 0.47800000000000153  L 5.068 1.8619999999999983  C 4.469068020148324 1.60949784568988  3.8278220587213427 1.4724272803901393  3.178 1.458000000000002  C 2.358 1.458000000000002  1.952 1.6820000000000022  1.952 2.136000000000003  C 1.952 2.304000000000002  2.032 2.4360000000000035  2.2 2.546000000000003  C 2.334 2.6300000000000026  2.7140000000000004 2.8140000000000036  3.33 3.0920000000000023  C 4.222 3.4860000000000007  4.814 3.828000000000003  5.112 4.123999999999999  C 5.4675471361675845 4.479701897314769  5.658867946683558 4.967425024122527  5.6400000000000015 5.470000000000006  C 5.66481623608086 6.219672178783977  5.264726969416511 6.919247995156454  4.606000000000001 7.278000000000002  C 4.050000000000001 7.618000000000002  3.3260000000000005 7.790000000000003  2.440000000000001 7.790000000000003  Z M 6.789999999999999 7.637999999999998  L 6.792 0.3379999999999974  L 8.828 0.3379999999999974  L 8.828 7.637999999999998  L 6.789999999999999 7.637999999999998  Z M 16.014 7.639999999999997  L 10.698 7.637999999999998  L 10.698 0.3379999999999974  L 15.93 0.3379999999999974  L 15.93 1.6579999999999977  L 12.663999999999998 1.6579999999999977  L 12.663999999999998 3.3099999999999987  L 15.508 3.3099999999999987  L 15.508 4.513999999999999  L 12.663999999999998 4.513999999999999  L 12.663999999999998 6.245999999999999  L 16.014 6.245999999999999  L 16.014 7.639999999999997  Z M 17.345999999999993 7.640000000000001  L 17.348 7.637999999999998  L 17.348 0.3379999999999974  L 19.991999999999997 0.3379999999999974  L 21.825999999999997 5.003999999999998  L 23.711999999999996 0.3379999999999974  L 26.226 0.3379999999999974  L 26.226 7.637999999999998  L 24.287999999999997 7.637999999999998  L 24.287999999999997 2.469999999999999  L 22.147999999999996 7.713999999999999  L 20.885999999999996 7.713999999999999  L 18.785999999999994 2.469999999999999  L 18.785999999999994 7.640000000000001  L 17.345999999999993 7.640000000000001  Z M 33.412 7.639999999999997  L 28.094 7.637999999999998  L 28.094 0.3379999999999974  L 33.324 0.3379999999999974  L 33.324 1.6579999999999977  L 30.06 1.6579999999999977  L 30.06 3.3099999999999987  L 32.902 3.3099999999999987  L 32.902 4.513999999999999  L 30.06 4.513999999999999  L 30.06 6.245999999999999  L 33.412 6.245999999999999  L 33.412 7.639999999999997  Z M 36.19 7.642000000000003  L 34.754000000000005 7.637999999999998  L 34.754000000000005 0.3379999999999974  L 37.114000000000004 0.3379999999999974  L 39.624 5.227999999999998  L 39.624 0.33999999999999986  L 41.064 0.33999999999999986  L 41.064 7.640000000000001  L 38.76 7.640000000000001  L 36.19 2.6900000000000013  L 36.19 7.642000000000003  Z M 44.774 7.790000000000006  C 44.012 7.790000000000006  43.254 7.6980000000000075  42.510000000000005 7.5219999999999985  L 42.510000000000005 6.077999999999999  C 43.322 6.338000000000001  44.050000000000004 6.468  44.690000000000005 6.468  C 45.562000000000005 6.468  45.996 6.2379999999999995  45.996 5.773999999999997  C 45.99808098979885 5.610949815628935  45.9321296181358 5.454405900472672  45.814 5.342000000000002  C 45.682 5.216000000000001  45.346 5.046000000000003  44.808 4.8260000000000005  C 43.848 4.434000000000001  43.22 4.097999999999999  42.928 3.812000000000001  C 42.55143792997353 3.4468011917722805  42.34537953696347 2.9403619019095117  42.36 2.4160000000000004  C 42.36 1.6980000000000004  42.636 1.1479999999999997  43.186 0.772000000000002  C 43.73 0.3960000000000008  44.438 0.2120000000000033  45.308 0.2120000000000033  C 45.806 0.2120000000000033  46.44 0.2880000000000038  47.22 0.4440000000000026  L 47.4 0.47800000000000153  L 47.39999999999999 1.8620000000000019  C 46.80102464742564 1.6096357457856598  46.15980526297665 1.4725708614907447  45.51 1.458000000000002  C 44.692 1.458000000000002  44.284 1.6820000000000022  44.284 2.136000000000003  C 44.284 2.304000000000002  44.364 2.4360000000000035  44.532 2.544000000000004  C 44.663999999999994 2.6280000000000037  45.04 2.8100000000000023  45.672 3.092000000000006  C 46.558 3.4840000000000053  47.147999999999996 3.8280000000000065  47.44599999999999 4.124000000000006  C 47.80102252675862 4.479906282736351  47.99163871264167 4.967680781212721  47.972 5.470000000000006  C 47.972 6.262000000000008  47.632 6.866000000000007  46.952 7.278000000000006  C 46.385999999999996 7.618000000000006  45.664 7.790000000000006  44.774 7.790000000000006  Z " fill-rule="nonzero" fill="rgba(0, 153, 153, 1)" stroke="none" class="fill" />
    <path d="M 2.440000000000001 7.790000000000003  C 1.6761172071021293 7.78972890203644  0.9149073214440886 7.699779938475437  0.172 7.5219999999999985  L 0.172 6.077999999999999  C 0.992 6.338000000000001  1.722 6.468  2.3520000000000003 6.468  C 3.2260000000000004 6.468  3.66 6.2379999999999995  3.66 5.774000000000001  C 3.6634541951115906 5.608607401551268  3.5930803069130137 5.450266153104465  3.468 5.342000000000002  C 3.3420000000000005 5.216000000000001  3.008 5.046000000000003  2.4699999999999998 4.8260000000000005  C 1.5119999999999996 4.43  0.8819999999999997 4.096  0.5919999999999999 3.812000000000001  C 0.21731556079094644 3.448162879229951  0.012057457282491843 2.9440837911084863  0.025999999999999912 2.4220000000000006  C 0.025999999999999912 1.7020000000000017  0.30399999999999994 1.1479999999999997  0.8539999999999999 0.772000000000002  C 1.394 0.3960000000000008  2.106 0.2120000000000033  2.9779999999999998 0.2120000000000033  C 3.4579999999999993 0.2120000000000033  4.156 0.2980000000000018  5.068 0.47800000000000153  L 5.068 1.8619999999999983  C 4.469068020148324 1.60949784568988  3.8278220587213427 1.4724272803901393  3.178 1.458000000000002  C 2.358 1.458000000000002  1.952 1.6820000000000022  1.952 2.136000000000003  C 1.952 2.304000000000002  2.032 2.4360000000000035  2.2 2.546000000000003  C 2.334 2.6300000000000026  2.7140000000000004 2.8140000000000036  3.33 3.0920000000000023  C 4.222 3.4860000000000007  4.814 3.828000000000003  5.112 4.123999999999999  C 5.4675471361675845 4.479701897314769  5.658867946683558 4.967425024122527  5.6400000000000015 5.470000000000006  C 5.66481623608086 6.219672178783977  5.264726969416511 6.919247995156454  4.606000000000001 7.278000000000002  C 4.050000000000001 7.618000000000002  3.3260000000000005 7.790000000000003  2.440000000000001 7.790000000000003  Z " stroke-width="0" stroke-dasharray="0" stroke="rgba(255, 255, 255, 0)" fill="none" class="stroke" mask="url(#Clip7367)" />
    <path d="M 6.789999999999999 7.637999999999998  L 6.792 0.3379999999999974  L 8.828 0.3379999999999974  L 8.828 7.637999999999998  L 6.789999999999999 7.637999999999998  Z " stroke-width="0" stroke-dasharray="0" stroke="rgba(255, 255, 255, 0)" fill="none" class="stroke" mask="url(#Clip7367)" />
    <path d="M 16.014 7.639999999999997  L 10.698 7.637999999999998  L 10.698 0.3379999999999974  L 15.93 0.3379999999999974  L 15.93 1.6579999999999977  L 12.663999999999998 1.6579999999999977  L 12.663999999999998 3.3099999999999987  L 15.508 3.3099999999999987  L 15.508 4.513999999999999  L 12.663999999999998 4.513999999999999  L 12.663999999999998 6.245999999999999  L 16.014 6.245999999999999  L 16.014 7.639999999999997  Z " stroke-width="0" stroke-dasharray="0" stroke="rgba(255, 255, 255, 0)" fill="none" class="stroke" mask="url(#Clip7367)" />
    <path d="M 17.345999999999993 7.640000000000001  L 17.348 7.637999999999998  L 17.348 0.3379999999999974  L 19.991999999999997 0.3379999999999974  L 21.825999999999997 5.003999999999998  L 23.711999999999996 0.3379999999999974  L 26.226 0.3379999999999974  L 26.226 7.637999999999998  L 24.287999999999997 7.637999999999998  L 24.287999999999997 2.469999999999999  L 22.147999999999996 7.713999999999999  L 20.885999999999996 7.713999999999999  L 18.785999999999994 2.469999999999999  L 18.785999999999994 7.640000000000001  L 17.345999999999993 7.640000000000001  Z " stroke-width="0" stroke-dasharray="0" stroke="rgba(255, 255, 255, 0)" fill="none" class="stroke" mask="url(#Clip7367)" />
    <path d="M 33.412 7.639999999999997  L 28.094 7.637999999999998  L 28.094 0.3379999999999974  L 33.324 0.3379999999999974  L 33.324 1.6579999999999977  L 30.06 1.6579999999999977  L 30.06 3.3099999999999987  L 32.902 3.3099999999999987  L 32.902 4.513999999999999  L 30.06 4.513999999999999  L 30.06 6.245999999999999  L 33.412 6.245999999999999  L 33.412 7.639999999999997  Z " stroke-width="0" stroke-dasharray="0" stroke="rgba(255, 255, 255, 0)" fill="none" class="stroke" mask="url(#Clip7367)" />
    <path d="M 36.19 7.642000000000003  L 34.754000000000005 7.637999999999998  L 34.754000000000005 0.3379999999999974  L 37.114000000000004 0.3379999999999974  L 39.624 5.227999999999998  L 39.624 0.33999999999999986  L 41.064 0.33999999999999986  L 41.064 7.640000000000001  L 38.76 7.640000000000001  L 36.19 2.6900000000000013  L 36.19 7.642000000000003  Z " stroke-width="0" stroke-dasharray="0" stroke="rgba(255, 255, 255, 0)" fill="none" class="stroke" mask="url(#Clip7367)" />
    <path d="M 44.774 7.790000000000006  C 44.012 7.790000000000006  43.254 7.6980000000000075  42.510000000000005 7.5219999999999985  L 42.510000000000005 6.077999999999999  C 43.322 6.338000000000001  44.050000000000004 6.468  44.690000000000005 6.468  C 45.562000000000005 6.468  45.996 6.2379999999999995  45.996 5.773999999999997  C 45.99808098979885 5.610949815628935  45.9321296181358 5.454405900472672  45.814 5.342000000000002  C 45.682 5.216000000000001  45.346 5.046000000000003  44.808 4.8260000000000005  C 43.848 4.434000000000001  43.22 4.097999999999999  42.928 3.812000000000001  C 42.55143792997353 3.4468011917722805  42.34537953696347 2.9403619019095117  42.36 2.4160000000000004  C 42.36 1.6980000000000004  42.636 1.1479999999999997  43.186 0.772000000000002  C 43.73 0.3960000000000008  44.438 0.2120000000000033  45.308 0.2120000000000033  C 45.806 0.2120000000000033  46.44 0.2880000000000038  47.22 0.4440000000000026  L 47.4 0.47800000000000153  L 47.39999999999999 1.8620000000000019  C 46.80102464742564 1.6096357457856598  46.15980526297665 1.4725708614907447  45.51 1.458000000000002  C 44.692 1.458000000000002  44.284 1.6820000000000022  44.284 2.136000000000003  C 44.284 2.304000000000002  44.364 2.4360000000000035  44.532 2.544000000000004  C 44.663999999999994 2.6280000000000037  45.04 2.8100000000000023  45.672 3.092000000000006  C 46.558 3.4840000000000053  47.147999999999996 3.8280000000000065  47.44599999999999 4.124000000000006  C 47.80102252675862 4.479906282736351  47.99163871264167 4.967680781212721  47.972 5.470000000000006  C 47.972 6.262000000000008  47.632 6.866000000000007  46.952 7.278000000000006  C 46.385999999999996 7.618000000000006  45.664 7.790000000000006  44.774 7.790000000000006  Z " stroke-width="0" stroke-dasharray="0" stroke="rgba(255, 255, 255, 0)" fill="none" class="stroke" mask="url(#Clip7367)" />
  </g>
</svg>