<?xml version="1.0" encoding="utf-8"?>
<svg version="1.1" xmlns:xlink="http://www.w3.org/1999/xlink" width="50px" height="50px" xmlns="http://www.w3.org/2000/svg">
  <defs>
    <pattern id="BGPattern" patternUnits="userSpaceOnUse" alignment="0 0" imageRepeat="None" />
    <mask fill="white" id="Clip959">
      <path d="M 39.79124748490946 44.52213279678068  C 39.982394366197184 44.66700201207243  39.98138832997989 44.95573440643864  39.78923541247485 45.09758551307846  C 35.46830985915494 48.295774647887356  30.337525150905435 49.98591549295776  24.952213279678062 49.98591549295776  C 11.148390342052323 49.98591549295776  0.0005030181086453922 38.81891348088533  0.0005030181086453922 25.036217303822923  C 0.0005030181086453922 11.234406438631765  11.171529175050296 0.08651911468814433  24.952213279678062 0.08651911468814433  C 31.11921529175049 0.08651911468814433  37.03873239436621 2.355130784708251  41.62022132796781 6.474849094567389  C 41.88380281690141 6.712273641851084  41.678571428571445 7.142857142857167  41.332494969818924 7.096579476861166  C 39.55482897384306 6.852112676056323  37.63531187122737 6.728370221327965  35.62726358148893 6.728370221327965  C 22.61317907444669 6.728370221327965  13.2530181086519 12.107645875251535  13.2530181086519 22.357142857142833  C 13.2530181086519 33.32696177062377  22.521629778672036 37.03319919517105  31.042756539235427 40.33802816901408  C 34.42706237424548 41.64989939637826  37.62223340040242 42.88933601609659  39.79124748490946 44.52213279678068  Z M 48.192655935613686 34.13078470824951  C 50.09305835010059 29.262575452716305  49.997484909456716 25.053319919517094  49.795271629778654 22.731388329979893  C 49.787223340040214 22.63682092555331  49.73993963782698 22.547283702213292  49.667505030181076 22.48591549295776  C 44.4602615694165 18.1639839034205  40.24899396378268 16.401408450704253  35.13229376257544 16.401408450704253  C 26.66851106639839 16.401408450704253  27.05885311871228 21.64989939637826  27.05885311871228 21.796780684104647  C 27.05885311871228 26.082494969818924  32.29627766599597 28.035211267605632  38.36066398390341 30.296780684104647  C 41.486418511066404 31.46277665995973  44.7178068410463 32.66800804828972  47.684607645875246 34.31388329979882  C 47.87374245472836 34.419517102615714  48.11317907444669 34.33299798792757  48.192655935613686 34.13078470824951  Z " fill-rule="evenodd" />
    </mask>
  </defs>
  <g>
    <path d="M 39.79124748490946 44.52213279678068  C 39.982394366197184 44.66700201207243  39.98138832997989 44.95573440643864  39.78923541247485 45.09758551307846  C 35.46830985915494 48.295774647887356  30.337525150905435 49.98591549295776  24.952213279678062 49.98591549295776  C 11.148390342052323 49.98591549295776  0.0005030181086453922 38.81891348088533  0.0005030181086453922 25.036217303822923  C 0.0005030181086453922 11.234406438631765  11.171529175050296 0.08651911468814433  24.952213279678062 0.08651911468814433  C 31.11921529175049 0.08651911468814433  37.03873239436621 2.355130784708251  41.62022132796781 6.474849094567389  C 41.88380281690141 6.712273641851084  41.678571428571445 7.142857142857167  41.332494969818924 7.096579476861166  C 39.55482897384306 6.852112676056323  37.63531187122737 6.728370221327965  35.62726358148893 6.728370221327965  C 22.61317907444669 6.728370221327965  13.2530181086519 12.107645875251535  13.2530181086519 22.357142857142833  C 13.2530181086519 33.32696177062377  22.521629778672036 37.03319919517105  31.042756539235427 40.33802816901408  C 34.42706237424548 41.64989939637826  37.62223340040242 42.88933601609659  39.79124748490946 44.52213279678068  Z M 48.192655935613686 34.13078470824951  C 50.09305835010059 29.262575452716305  49.997484909456716 25.053319919517094  49.795271629778654 22.731388329979893  C 49.787223340040214 22.63682092555331  49.73993963782698 22.547283702213292  49.667505030181076 22.48591549295776  C 44.4602615694165 18.1639839034205  40.24899396378268 16.401408450704253  35.13229376257544 16.401408450704253  C 26.66851106639839 16.401408450704253  27.05885311871228 21.64989939637826  27.05885311871228 21.796780684104647  C 27.05885311871228 26.082494969818924  32.29627766599597 28.035211267605632  38.36066398390341 30.296780684104647  C 41.486418511066404 31.46277665995973  44.7178068410463 32.66800804828972  47.684607645875246 34.31388329979882  C 47.87374245472836 34.419517102615714  48.11317907444669 34.33299798792757  48.192655935613686 34.13078470824951  Z " fill-rule="nonzero" fill="rgba(0, 0, 0, 1)" stroke="none" class="fill" />
    <path d="M 39.79124748490946 44.52213279678068  C 39.982394366197184 44.66700201207243  39.98138832997989 44.95573440643864  39.78923541247485 45.09758551307846  C 35.46830985915494 48.295774647887356  30.337525150905435 49.98591549295776  24.952213279678062 49.98591549295776  C 11.148390342052323 49.98591549295776  0.0005030181086453922 38.81891348088533  0.0005030181086453922 25.036217303822923  C 0.0005030181086453922 11.234406438631765  11.171529175050296 0.08651911468814433  24.952213279678062 0.08651911468814433  C 31.11921529175049 0.08651911468814433  37.03873239436621 2.355130784708251  41.62022132796781 6.474849094567389  C 41.88380281690141 6.712273641851084  41.678571428571445 7.142857142857167  41.332494969818924 7.096579476861166  C 39.55482897384306 6.852112676056323  37.63531187122737 6.728370221327965  35.62726358148893 6.728370221327965  C 22.61317907444669 6.728370221327965  13.2530181086519 12.107645875251535  13.2530181086519 22.357142857142833  C 13.2530181086519 33.32696177062377  22.521629778672036 37.03319919517105  31.042756539235427 40.33802816901408  C 34.42706237424548 41.64989939637826  37.62223340040242 42.88933601609659  39.79124748490946 44.52213279678068  Z " stroke-width="0" stroke-dasharray="0" stroke="rgba(255, 255, 255, 0)" fill="none" class="stroke" mask="url(#Clip959)" />
    <path d="M 48.192655935613686 34.13078470824951  C 50.09305835010059 29.262575452716305  49.997484909456716 25.053319919517094  49.795271629778654 22.731388329979893  C 49.787223340040214 22.63682092555331  49.73993963782698 22.547283702213292  49.667505030181076 22.48591549295776  C 44.4602615694165 18.1639839034205  40.24899396378268 16.401408450704253  35.13229376257544 16.401408450704253  C 26.66851106639839 16.401408450704253  27.05885311871228 21.64989939637826  27.05885311871228 21.796780684104647  C 27.05885311871228 26.082494969818924  32.29627766599597 28.035211267605632  38.36066398390341 30.296780684104647  C 41.486418511066404 31.46277665995973  44.7178068410463 32.66800804828972  47.684607645875246 34.31388329979882  C 47.87374245472836 34.419517102615714  48.11317907444669 34.33299798792757  48.192655935613686 34.13078470824951  Z " stroke-width="0" stroke-dasharray="0" stroke="rgba(255, 255, 255, 0)" fill="none" class="stroke" mask="url(#Clip959)" />
  </g>
</svg>