<?xml version="1.0" encoding="utf-8"?>
<svg version="1.1" xmlns:xlink="http://www.w3.org/1999/xlink" width="32px" height="50px" xmlns="http://www.w3.org/2000/svg">
  <defs>
    <pattern id="BGPattern" patternUnits="userSpaceOnUse" alignment="0 0" imageRepeat="None" />
    <mask fill="white" id="Clip7218">
      <path d="M 29.944000000000003 27.977999999999998  L 29.943999999999996 27.974  C 29.63863890002726 27.251712161090985  29.277549498943763 26.55427466973897  28.864000000000004 25.887999999999998  L 28.864000000000004 13.832  C 28.87200522800729 10.427308954872084  27.51815933744504 7.160795678494241  25.104000000000006 4.760000000000002  C 22.703330862133527 2.3456518988366892  19.436735138072624 0.9917718368361368  16.032 1  L 16.028 1  C 12.623842673794261 0.9907135453288733  9.357328895389028 2.34311938215538  6.955999999999998 4.755999999999999  C 4.54085363161173 7.15777193006789  3.1869257563726396 10.4259233650865  3.1959999999999997 13.832  L 3.1959999999999997 15.586  L 8.335999999999999 15.586  L 8.335999999999999 13.832  C 8.335999999999999 11.778  9.136 9.846  10.59 8.392  C 12.029900661959307 6.945081802996686  13.988713042786848 6.134191089462932  16.03 6.140000000000001  C 20.276215315219325 6.145506561186255  23.717389522389027 9.585786259853965  23.724 13.832  L 23.724 20.848  C 21.38789408154158 19.457543748373684  18.718589115469605 18.72628412794278  16 18.732  C 11.985593150599925 18.726232475521222  8.134574653190562 20.321345931644426  5.300000000000001 23.164  C 2.456612322535694 25.99824584087761  0.8607621789608313 29.84930505067712  0.8659999999999997 33.864000000000004  C 0.8602324755212223 37.87840684940008  2.4553459316444286 41.72942534680945  5.298 44.56400000000001  C 8.13174783913584 47.41008066963798  11.983747454847322 49.0081817996846  16 49.004  C 20.01440684940008 49.009767524478775  23.86542534680944 47.414654068355574  26.700000000000003 44.571999999999996  C 29.543879674139326 41.73726519772007  31.13977054465198 37.88538786433567  31.134 33.87  C 31.134 31.827999999999996  30.734 29.845999999999997  29.944000000000003 27.977999999999998  Z M 25.994 33.866  C 25.994 39.378  21.51 43.86  16 43.86  C 10.490000000000002 43.86  6.006 39.376  6.006 33.866  C 6.006 28.356  10.489999999999998 23.872  16 23.872  C 21.51 23.872  25.994 28.354000000000003  25.994 33.866  Z M 20.29 33.912  C 20.29 36.253687339282564  18.391687339282562 38.151999999999994  16.049999999999997 38.151999999999994  C 13.70831266071744 38.151999999999994  11.809999999999999 36.25368733928256  11.809999999999999 33.912  C 11.809999999999999 31.570312660717438  13.708312660717436 29.671999999999997  16.049999999999997 29.671999999999997  C 18.391687339282562 29.671999999999997  20.29 31.570312660717438  20.29 33.912  Z " fill-rule="evenodd" />
    </mask>
  </defs>
  <g>
    <path d="M 29.944000000000003 27.977999999999998  L 29.943999999999996 27.974  C 29.63863890002726 27.251712161090985  29.277549498943763 26.55427466973897  28.864000000000004 25.887999999999998  L 28.864000000000004 13.832  C 28.87200522800729 10.427308954872084  27.51815933744504 7.160795678494241  25.104000000000006 4.760000000000002  C 22.703330862133527 2.3456518988366892  19.436735138072624 0.9917718368361368  16.032 1  L 16.028 1  C 12.623842673794261 0.9907135453288733  9.357328895389028 2.34311938215538  6.955999999999998 4.755999999999999  C 4.54085363161173 7.15777193006789  3.1869257563726396 10.4259233650865  3.1959999999999997 13.832  L 3.1959999999999997 15.586  L 8.335999999999999 15.586  L 8.335999999999999 13.832  C 8.335999999999999 11.778  9.136 9.846  10.59 8.392  C 12.029900661959307 6.945081802996686  13.988713042786848 6.134191089462932  16.03 6.140000000000001  C 20.276215315219325 6.145506561186255  23.717389522389027 9.585786259853965  23.724 13.832  L 23.724 20.848  C 21.38789408154158 19.457543748373684  18.718589115469605 18.72628412794278  16 18.732  C 11.985593150599925 18.726232475521222  8.134574653190562 20.321345931644426  5.300000000000001 23.164  C 2.456612322535694 25.99824584087761  0.8607621789608313 29.84930505067712  0.8659999999999997 33.864000000000004  C 0.8602324755212223 37.87840684940008  2.4553459316444286 41.72942534680945  5.298 44.56400000000001  C 8.13174783913584 47.41008066963798  11.983747454847322 49.0081817996846  16 49.004  C 20.01440684940008 49.009767524478775  23.86542534680944 47.414654068355574  26.700000000000003 44.571999999999996  C 29.543879674139326 41.73726519772007  31.13977054465198 37.88538786433567  31.134 33.87  C 31.134 31.827999999999996  30.734 29.845999999999997  29.944000000000003 27.977999999999998  Z M 25.994 33.866  C 25.994 39.378  21.51 43.86  16 43.86  C 10.490000000000002 43.86  6.006 39.376  6.006 33.866  C 6.006 28.356  10.489999999999998 23.872  16 23.872  C 21.51 23.872  25.994 28.354000000000003  25.994 33.866  Z M 20.29 33.912  C 20.29 36.253687339282564  18.391687339282562 38.151999999999994  16.049999999999997 38.151999999999994  C 13.70831266071744 38.151999999999994  11.809999999999999 36.25368733928256  11.809999999999999 33.912  C 11.809999999999999 31.570312660717438  13.708312660717436 29.671999999999997  16.049999999999997 29.671999999999997  C 18.391687339282562 29.671999999999997  20.29 31.570312660717438  20.29 33.912  Z " fill-rule="nonzero" fill="rgba(246, 130, 18, 1)" stroke="none" class="fill" />
    <path d="M 29.944000000000003 27.977999999999998  L 29.943999999999996 27.974  C 29.63863890002726 27.251712161090985  29.277549498943763 26.55427466973897  28.864000000000004 25.887999999999998  L 28.864000000000004 13.832  C 28.87200522800729 10.427308954872084  27.51815933744504 7.160795678494241  25.104000000000006 4.760000000000002  C 22.703330862133527 2.3456518988366892  19.436735138072624 0.9917718368361368  16.032 1  L 16.028 1  C 12.623842673794261 0.9907135453288733  9.357328895389028 2.34311938215538  6.955999999999998 4.755999999999999  C 4.54085363161173 7.15777193006789  3.1869257563726396 10.4259233650865  3.1959999999999997 13.832  L 3.1959999999999997 15.586  L 8.335999999999999 15.586  L 8.335999999999999 13.832  C 8.335999999999999 11.778  9.136 9.846  10.59 8.392  C 12.029900661959307 6.945081802996686  13.988713042786848 6.134191089462932  16.03 6.140000000000001  C 20.276215315219325 6.145506561186255  23.717389522389027 9.585786259853965  23.724 13.832  L 23.724 20.848  C 21.38789408154158 19.457543748373684  18.718589115469605 18.72628412794278  16 18.732  C 11.985593150599925 18.726232475521222  8.134574653190562 20.321345931644426  5.300000000000001 23.164  C 2.456612322535694 25.99824584087761  0.8607621789608313 29.84930505067712  0.8659999999999997 33.864000000000004  C 0.8602324755212223 37.87840684940008  2.4553459316444286 41.72942534680945  5.298 44.56400000000001  C 8.13174783913584 47.41008066963798  11.983747454847322 49.0081817996846  16 49.004  C 20.01440684940008 49.009767524478775  23.86542534680944 47.414654068355574  26.700000000000003 44.571999999999996  C 29.543879674139326 41.73726519772007  31.13977054465198 37.88538786433567  31.134 33.87  C 31.134 31.827999999999996  30.734 29.845999999999997  29.944000000000003 27.977999999999998  Z " stroke-width="0" stroke-dasharray="0" stroke="rgba(255, 255, 255, 0)" fill="none" class="stroke" mask="url(#Clip7218)" />
    <path d="M 25.994 33.866  C 25.994 39.378  21.51 43.86  16 43.86  C 10.490000000000002 43.86  6.006 39.376  6.006 33.866  C 6.006 28.356  10.489999999999998 23.872  16 23.872  C 21.51 23.872  25.994 28.354000000000003  25.994 33.866  Z " stroke-width="0" stroke-dasharray="0" stroke="rgba(255, 255, 255, 0)" fill="none" class="stroke" mask="url(#Clip7218)" />
    <path d="M 20.29 33.912  C 20.29 36.253687339282564  18.391687339282562 38.151999999999994  16.049999999999997 38.151999999999994  C 13.70831266071744 38.151999999999994  11.809999999999999 36.25368733928256  11.809999999999999 33.912  C 11.809999999999999 31.570312660717438  13.708312660717436 29.671999999999997  16.049999999999997 29.671999999999997  C 18.391687339282562 29.671999999999997  20.29 31.570312660717438  20.29 33.912  Z " stroke-width="0" stroke-dasharray="0" stroke="rgba(255, 255, 255, 0)" fill="none" class="stroke" mask="url(#Clip7218)" />
  </g>
</svg>