<?xml version="1.0" encoding="utf-8"?>
<svg version="1.1" xmlns:xlink="http://www.w3.org/1999/xlink" width="24px" height="24px" xmlns="http://www.w3.org/2000/svg">
  <defs>
    <pattern id="BGPattern" patternUnits="userSpaceOnUse" alignment="0 0" imageRepeat="None" />
    <mask fill="white" id="Clip5305">
      <path d="M 19.5 0  L 4.5 0  C 2.0147186257614296 0  0 2.0147186257614296  0 4.5  L 0 19.5  C 0 21.985281374238568  2.0147186257614296 24  4.5 24  L 19.5 24  C 21.985281374238568 24  24 21.985281374238568  24 19.5  L 24 4.5  C 24 2.0147186257614296  21.985281374238568 0  19.5 0  Z M 4.5 1.5  L 19.5 1.5  C 21.15685424949238 1.5  22.5 2.8431457505076194  22.5 4.5  L 22.5 19.5  C 22.5 21.15685424949238  21.15685424949238 22.5  19.5 22.5  L 4.5 22.5  C 2.8431457505076194 22.5  1.5 21.15685424949238  1.5 19.5  L 1.5 4.5  C 1.5 2.8431457505076194  2.8431457505076194 1.5  4.5 1.5  Z " fill-rule="evenodd" />
    </mask>
  </defs>
  <g>
    <path d="M 19.5 0  L 4.5 0  C 2.0147186257614296 0  0 2.0147186257614296  0 4.5  L 0 19.5  C 0 21.985281374238568  2.0147186257614296 24  4.5 24  L 19.5 24  C 21.985281374238568 24  24 21.985281374238568  24 19.5  L 24 4.5  C 24 2.0147186257614296  21.985281374238568 0  19.5 0  Z M 4.5 1.5  L 19.5 1.5  C 21.15685424949238 1.5  22.5 2.8431457505076194  22.5 4.5  L 22.5 19.5  C 22.5 21.15685424949238  21.15685424949238 22.5  19.5 22.5  L 4.5 22.5  C 2.8431457505076194 22.5  1.5 21.15685424949238  1.5 19.5  L 1.5 4.5  C 1.5 2.8431457505076194  2.8431457505076194 1.5  4.5 1.5  Z " fill-rule="nonzero" fill="rgba(0, 0, 0, 1)" stroke="none" class="fill" />
    <path d="M 19.5 0  L 4.5 0  C 2.0147186257614296 0  0 2.0147186257614296  0 4.5  L 0 19.5  C 0 21.985281374238568  2.0147186257614296 24  4.5 24  L 19.5 24  C 21.985281374238568 24  24 21.985281374238568  24 19.5  L 24 4.5  C 24 2.0147186257614296  21.985281374238568 0  19.5 0  Z " stroke-width="0" stroke-dasharray="0" stroke="rgba(255, 255, 255, 0)" fill="none" class="stroke" mask="url(#Clip5305)" />
    <path d="M 4.5 1.5  L 19.5 1.5  C 21.15685424949238 1.5  22.5 2.8431457505076194  22.5 4.5  L 22.5 19.5  C 22.5 21.15685424949238  21.15685424949238 22.5  19.5 22.5  L 4.5 22.5  C 2.8431457505076194 22.5  1.5 21.15685424949238  1.5 19.5  L 1.5 4.5  C 1.5 2.8431457505076194  2.8431457505076194 1.5  4.5 1.5  Z " stroke-width="0" stroke-dasharray="0" stroke="rgba(255, 255, 255, 0)" fill="none" class="stroke" mask="url(#Clip5305)" />
  </g>
</svg>