<?xml version="1.0" encoding="utf-8"?>
<svg version="1.1" xmlns:xlink="http://www.w3.org/1999/xlink" width="26px" height="26px" xmlns="http://www.w3.org/2000/svg">
  <defs>
    <pattern id="BGPattern" patternUnits="userSpaceOnUse" alignment="0 0" imageRepeat="None" />
    <mask fill="white" id="Clip497">
      <path d="M 23.752000000000002 0.5519999999999987  C 23.992 0.3119999999999985  24.296000000000003 0.19999999999999885  24.6 0.20000000000000018  C 25.272000000000002 0.20000000000000018  25.8 0.7280000000000002  25.8 1.4160000000000004  C 25.8 1.7040000000000006  25.688000000000002 2.008  25.448 2.248  L 18.696 9  L 23.016000000000002 9  C 23.688000000000002 9  24.200000000000003 9.528  24.200000000000003 10.216  C 24.200000000000003 10.903999999999998  23.688000000000002 11.399999999999999  23.016000000000002 11.399999999999999  L 15.8 11.399999999999999  C 15.144000000000004 11.399999999999999  14.6 10.903999999999998  14.6 10.2  L 14.6 2.983999999999999  C 14.6 2.3439999999999994  15.144000000000004 1.799999999999999  15.752000000000002 1.799999999999999  C 16.456000000000003 1.799999999999999  17.000000000000004 2.2959999999999994  17.000000000000004 2.967999999999999  L 17.000000000000004 7.303999999999999  L 23.752000000000002 0.5519999999999987  Z M 2.984 14.6  L 10.2 14.6  C 10.856 14.6  11.399999999999999 15.096  11.399999999999999 15.8  L 11.399999999999999 23.016000000000002  C 11.399999999999999 23.656000000000002  10.855999999999998 24.200000000000003  10.248 24.200000000000003  C 9.543999999999999 24.200000000000003  9 23.704000000000004  9 23.032000000000004  L 9 18.696000000000005  L 2.248 25.448000000000004  C 2.008 25.688000000000002  1.7040000000000006 25.800000000000004  1.4000000000000004 25.800000000000004  C 0.7280000000000002 25.800000000000004  0.20000000000000018 25.272000000000006  0.20000000000000018 24.584000000000003  C 0.20000000000000018 24.296000000000003  0.3120000000000003 23.992000000000004  0.552 23.752000000000002  L 7.304 17.000000000000004  L 2.984 17.000000000000004  C 2.3120000000000003 17.000000000000004  1.7999999999999998 16.472000000000005  1.7999999999999998 15.784000000000002  C 1.7999999999999998 15.096  2.3119999999999994 14.6  2.984 14.6  Z " fill-rule="evenodd" />
    </mask>
  </defs>
  <g>
    <path d="M 23.752000000000002 0.5519999999999987  C 23.992 0.3119999999999985  24.296000000000003 0.19999999999999885  24.6 0.20000000000000018  C 25.272000000000002 0.20000000000000018  25.8 0.7280000000000002  25.8 1.4160000000000004  C 25.8 1.7040000000000006  25.688000000000002 2.008  25.448 2.248  L 18.696 9  L 23.016000000000002 9  C 23.688000000000002 9  24.200000000000003 9.528  24.200000000000003 10.216  C 24.200000000000003 10.903999999999998  23.688000000000002 11.399999999999999  23.016000000000002 11.399999999999999  L 15.8 11.399999999999999  C 15.144000000000004 11.399999999999999  14.6 10.903999999999998  14.6 10.2  L 14.6 2.983999999999999  C 14.6 2.3439999999999994  15.144000000000004 1.799999999999999  15.752000000000002 1.799999999999999  C 16.456000000000003 1.799999999999999  17.000000000000004 2.2959999999999994  17.000000000000004 2.967999999999999  L 17.000000000000004 7.303999999999999  L 23.752000000000002 0.5519999999999987  Z M 2.984 14.6  L 10.2 14.6  C 10.856 14.6  11.399999999999999 15.096  11.399999999999999 15.8  L 11.399999999999999 23.016000000000002  C 11.399999999999999 23.656000000000002  10.855999999999998 24.200000000000003  10.248 24.200000000000003  C 9.543999999999999 24.200000000000003  9 23.704000000000004  9 23.032000000000004  L 9 18.696000000000005  L 2.248 25.448000000000004  C 2.008 25.688000000000002  1.7040000000000006 25.800000000000004  1.4000000000000004 25.800000000000004  C 0.7280000000000002 25.800000000000004  0.20000000000000018 25.272000000000006  0.20000000000000018 24.584000000000003  C 0.20000000000000018 24.296000000000003  0.3120000000000003 23.992000000000004  0.552 23.752000000000002  L 7.304 17.000000000000004  L 2.984 17.000000000000004  C 2.3120000000000003 17.000000000000004  1.7999999999999998 16.472000000000005  1.7999999999999998 15.784000000000002  C 1.7999999999999998 15.096  2.3119999999999994 14.6  2.984 14.6  Z " fill-rule="nonzero" fill="rgba(0, 0, 0, 1)" stroke="none" class="fill" />
    <path d="M 23.752000000000002 0.5519999999999987  C 23.992 0.3119999999999985  24.296000000000003 0.19999999999999885  24.6 0.20000000000000018  C 25.272000000000002 0.20000000000000018  25.8 0.7280000000000002  25.8 1.4160000000000004  C 25.8 1.7040000000000006  25.688000000000002 2.008  25.448 2.248  L 18.696 9  L 23.016000000000002 9  C 23.688000000000002 9  24.200000000000003 9.528  24.200000000000003 10.216  C 24.200000000000003 10.903999999999998  23.688000000000002 11.399999999999999  23.016000000000002 11.399999999999999  L 15.8 11.399999999999999  C 15.144000000000004 11.399999999999999  14.6 10.903999999999998  14.6 10.2  L 14.6 2.983999999999999  C 14.6 2.3439999999999994  15.144000000000004 1.799999999999999  15.752000000000002 1.799999999999999  C 16.456000000000003 1.799999999999999  17.000000000000004 2.2959999999999994  17.000000000000004 2.967999999999999  L 17.000000000000004 7.303999999999999  L 23.752000000000002 0.5519999999999987  Z " stroke-width="0" stroke-dasharray="0" stroke="rgba(255, 255, 255, 0)" fill="none" class="stroke" mask="url(#Clip497)" />
    <path d="M 2.984 14.6  L 10.2 14.6  C 10.856 14.6  11.399999999999999 15.096  11.399999999999999 15.8  L 11.399999999999999 23.016000000000002  C 11.399999999999999 23.656000000000002  10.855999999999998 24.200000000000003  10.248 24.200000000000003  C 9.543999999999999 24.200000000000003  9 23.704000000000004  9 23.032000000000004  L 9 18.696000000000005  L 2.248 25.448000000000004  C 2.008 25.688000000000002  1.7040000000000006 25.800000000000004  1.4000000000000004 25.800000000000004  C 0.7280000000000002 25.800000000000004  0.20000000000000018 25.272000000000006  0.20000000000000018 24.584000000000003  C 0.20000000000000018 24.296000000000003  0.3120000000000003 23.992000000000004  0.552 23.752000000000002  L 7.304 17.000000000000004  L 2.984 17.000000000000004  C 2.3120000000000003 17.000000000000004  1.7999999999999998 16.472000000000005  1.7999999999999998 15.784000000000002  C 1.7999999999999998 15.096  2.3119999999999994 14.6  2.984 14.6  Z " stroke-width="0" stroke-dasharray="0" stroke="rgba(255, 255, 255, 0)" fill="none" class="stroke" mask="url(#Clip497)" />
  </g>
</svg>