<?xml version="1.0" encoding="utf-8"?>
<svg version="1.1" xmlns:xlink="http://www.w3.org/1999/xlink" width="54px" height="50px" xmlns="http://www.w3.org/2000/svg">
  <defs>
    <pattern id="BGPattern" patternUnits="userSpaceOnUse" alignment="0 0" imageRepeat="None" />
    <mask fill="white" id="Clip2697">
      <path d="M 46.75 20.75  C 46.75 20.475  46.525 20.25  46.25 20.25  L 43.75 20.25  C 43.475 20.25  43.25 20.475  43.25 20.75  L 43.25 23.25  C 43.25 23.525  43.475 23.75  43.75 23.75  L 46.25 23.75  C 46.525 23.75  46.75 23.525  46.75 23.25  L 46.75 20.75  Z M 53 18.75  C 53.25 15.987500000000002  51.0125 13.750000000000002  48.25 13.750000000000002  L 40 13.750000000000002  L 40 0.5  C 40.75 0.22499999999999964  40.525 0  40.25 0  L 13.750000000000002 0  C 13.475000000000001 0  13.25 0.22499999999999964  14 0.5  L 14 13.750000000000002  L 5.75 13.750000000000002  C 2.9875 13.750000000000002  0.75 15.987500000000002  1 18.75  L 1 39.25  C 0.75 40.35625  1.6437499999999998 41.25  2.75 41  L 13.25 41  L 13.25 49.5  C 13.25 49.775  13.475000000000001 50  13.750000000000002 50  L 40.25 50  C 40.525 50  40.75 49.775  40.75 49.5  L 40.75 41  L 51.25 41  C 52.35625 41.25  53.25 40.35625  53 39.25  L 53 18.75  Z M 17.5 14  L 17.5 5  L 36.5 5  L 36.5 14  L 17.5 14  Z M 36 28  L 36 45  L 18 45  L 18 28  L 36 28  Z M 49 18.75  L 49 37  L 40 37  L 40 25  L 14 25  L 14 37  L 5 37  L 5 18.75  C 5 18.3375  5.3375 18  5.75 18  L 48.25 18  C 48.6625 18  49 18.3375  49 18.75  Z " fill-rule="evenodd" />
    </mask>
  </defs>
  <g>
    <path d="M 46.75 20.75  C 46.75 20.475  46.525 20.25  46.25 20.25  L 43.75 20.25  C 43.475 20.25  43.25 20.475  43.25 20.75  L 43.25 23.25  C 43.25 23.525  43.475 23.75  43.75 23.75  L 46.25 23.75  C 46.525 23.75  46.75 23.525  46.75 23.25  L 46.75 20.75  Z M 53 18.75  C 53.25 15.987500000000002  51.0125 13.750000000000002  48.25 13.750000000000002  L 40 13.750000000000002  L 40 0.5  C 40.75 0.22499999999999964  40.525 0  40.25 0  L 13.750000000000002 0  C 13.475000000000001 0  13.25 0.22499999999999964  14 0.5  L 14 13.750000000000002  L 5.75 13.750000000000002  C 2.9875 13.750000000000002  0.75 15.987500000000002  1 18.75  L 1 39.25  C 0.75 40.35625  1.6437499999999998 41.25  2.75 41  L 13.25 41  L 13.25 49.5  C 13.25 49.775  13.475000000000001 50  13.750000000000002 50  L 40.25 50  C 40.525 50  40.75 49.775  40.75 49.5  L 40.75 41  L 51.25 41  C 52.35625 41.25  53.25 40.35625  53 39.25  L 53 18.75  Z M 17.5 14  L 17.5 5  L 36.5 5  L 36.5 14  L 17.5 14  Z M 36 28  L 36 45  L 18 45  L 18 28  L 36 28  Z M 49 18.75  L 49 37  L 40 37  L 40 25  L 14 25  L 14 37  L 5 37  L 5 18.75  C 5 18.3375  5.3375 18  5.75 18  L 48.25 18  C 48.6625 18  49 18.3375  49 18.75  Z " fill-rule="nonzero" fill="rgba(0, 0, 0, 1)" stroke="none" class="fill" />
    <path d="M 46.75 20.75  C 46.75 20.475  46.525 20.25  46.25 20.25  L 43.75 20.25  C 43.475 20.25  43.25 20.475  43.25 20.75  L 43.25 23.25  C 43.25 23.525  43.475 23.75  43.75 23.75  L 46.25 23.75  C 46.525 23.75  46.75 23.525  46.75 23.25  L 46.75 20.75  Z " stroke-width="0" stroke-dasharray="0" stroke="rgba(255, 255, 255, 0)" fill="none" class="stroke" mask="url(#Clip2697)" />
    <path d="M 53 18.75  C 53.25 15.987500000000002  51.0125 13.750000000000002  48.25 13.750000000000002  L 40 13.750000000000002  L 40 0.5  C 40.75 0.22499999999999964  40.525 0  40.25 0  L 13.750000000000002 0  C 13.475000000000001 0  13.25 0.22499999999999964  14 0.5  L 14 13.750000000000002  L 5.75 13.750000000000002  C 2.9875 13.750000000000002  0.75 15.987500000000002  1 18.75  L 1 39.25  C 0.75 40.35625  1.6437499999999998 41.25  2.75 41  L 13.25 41  L 13.25 49.5  C 13.25 49.775  13.475000000000001 50  13.750000000000002 50  L 40.25 50  C 40.525 50  40.75 49.775  40.75 49.5  L 40.75 41  L 51.25 41  C 52.35625 41.25  53.25 40.35625  53 39.25  L 53 18.75  Z " stroke-width="0" stroke-dasharray="0" stroke="rgba(255, 255, 255, 0)" fill="none" class="stroke" mask="url(#Clip2697)" />
    <path d="M 17.5 14  L 17.5 5  L 36.5 5  L 36.5 14  L 17.5 14  Z " stroke-width="0" stroke-dasharray="0" stroke="rgba(255, 255, 255, 0)" fill="none" class="stroke" mask="url(#Clip2697)" />
    <path d="M 36 28  L 36 45  L 18 45  L 18 28  L 36 28  Z " stroke-width="0" stroke-dasharray="0" stroke="rgba(255, 255, 255, 0)" fill="none" class="stroke" mask="url(#Clip2697)" />
    <path d="M 49 18.75  L 49 37  L 40 37  L 40 25  L 14 25  L 14 37  L 5 37  L 5 18.75  C 5 18.3375  5.3375 18  5.75 18  L 48.25 18  C 48.6625 18  49 18.3375  49 18.75  Z " stroke-width="0" stroke-dasharray="0" stroke="rgba(255, 255, 255, 0)" fill="none" class="stroke" mask="url(#Clip2697)" />
  </g>
</svg>