<?xml version="1.0" encoding="utf-8"?>
<svg version="1.1" xmlns:xlink="http://www.w3.org/1999/xlink" width="8px" height="8px" xmlns="http://www.w3.org/2000/svg">
  <defs>
    <pattern id="BGPattern" patternUnits="userSpaceOnUse" alignment="0 0" imageRepeat="None" />
    <mask fill="white" id="Clip2889">
      <path d="M 0.7687500000000007 3.875000000000007  C 0.7687500000000007 5.669925436950081  2.2154299021092534 7.125000000000007  4 7.125000000000007  C 5.784570097890757 7.125000000000007  7.231250000000003 5.669925436950081  7.231250000000003 3.875000000000007  C 7.23125000000001 2.0800744260726702  5.784570097890757 0.6249998630227509  4.000000000000007 0.6249998630227509  C 2.215429902109257 0.6249998630227509  0.7687500000000078 2.0800744260726702  0.7687500000000078 3.874999863022751  Z " fill-rule="evenodd" />
    </mask>
  </defs>
  <g transform="matrix(1 0 0 1 -24 -19 )">
    <path d="M 0.7687500000000007 3.875000000000007  C 0.7687500000000007 5.669925436950081  2.2154299021092534 7.125000000000007  4 7.125000000000007  C 5.784570097890757 7.125000000000007  7.231250000000003 5.669925436950081  7.231250000000003 3.875000000000007  C 7.23125000000001 2.0800744260726702  5.784570097890757 0.6249998630227509  4.000000000000007 0.6249998630227509  C 2.215429902109257 0.6249998630227509  0.7687500000000078 2.0800744260726702  0.7687500000000078 3.874999863022751  Z " fill-rule="nonzero" fill="rgba(217, 217, 217, 1)" stroke="none" transform="matrix(1 0 0 1 24 19 )" class="fill" />
    <path d="M 0.7687500000000007 3.875000000000007  C 0.7687500000000007 5.669925436950081  2.2154299021092534 7.125000000000007  4 7.125000000000007  C 5.784570097890757 7.125000000000007  7.231250000000003 5.669925436950081  7.231250000000003 3.875000000000007  C 7.23125000000001 2.0800744260726702  5.784570097890757 0.6249998630227509  4.000000000000007 0.6249998630227509  C 2.215429902109257 0.6249998630227509  0.7687500000000078 2.0800744260726702  0.7687500000000078 3.874999863022751  Z " stroke-width="0" stroke-dasharray="0" stroke="rgba(255, 255, 255, 0)" fill="none" transform="matrix(1 0 0 1 24 19 )" class="stroke" mask="url(#Clip2889)" />
  </g>
</svg>