<?xml version="1.0" encoding="utf-8"?>
<svg version="1.1" xmlns:xlink="http://www.w3.org/1999/xlink" width="56px" height="44px" xmlns="http://www.w3.org/2000/svg">
  <defs>
    <pattern id="BGPattern" patternUnits="userSpaceOnUse" alignment="0 0" imageRepeat="None" />
    <mask fill="white" id="Clip2892">
      <path d="M 56 6  C 56 4.893750000000001  55.10625 4  54 4  L 44 4  L 44 0.5  C 44 0.22499999999999964  43.775 0  43.5 0  L 40 0  C 39.725 0  39.5 0.22499999999999964  39.5 0.5  L 39.5 4  L 30.25 4  L 30.25 0.5  C 30.25 0.22499999999999964  30.024999999999995 0  29.75 0  L 26.25 0  C 25.975 0  25.75 0.22499999999999964  25.75 0.5  L 25.75 4  L 16.5 4  L 16.5 0.5  C 16.5 0.22499999999999964  16.275 0  16 0  L 12.5 0  C 12.225000000000001 0  12 0.22499999999999964  12 0.5  L 12 4  L 2 4  C 0.8937499999999997 4  0 4.893750000000001  0 6  L 0 42  C 0 43.10625  0.8937499999999997 44  2 44  L 54 44  C 55.10625 44  56 43.10625  56 42  L 56 6  Z M 51 8.5  L 51 39  L 5 39  L 5 8.5  L 12 8.5  L 12 12  C 12 12.274999999999999  12.225000000000001 12.500000000000002  12.5 12.500000000000002  L 16 12.500000000000002  C 16.275 12.500000000000002  16.5 12.274999999999999  16.5 12  L 16.5 8.5  L 25.75 8.5  L 25.75 12  C 25.75 12.274999999999999  25.975 12.500000000000002  26.25 12.500000000000002  L 29.75 12.500000000000002  C 30.024999999999995 12.500000000000002  30.25 12.274999999999999  30.25 12  L 30.25 8.5  L 39.5 8.5  L 39.5 12  C 39.5 12.274999999999999  39.725 12.500000000000002  40 12.500000000000002  L 43.5 12.500000000000002  C 43.775 12.500000000000002  44 12.274999999999999  44 12  L 44 8.5  L 51 8.5  Z " fill-rule="evenodd" />
    </mask>
  </defs>
  <g>
    <path d="M 56 6  C 56 4.893750000000001  55.10625 4  54 4  L 44 4  L 44 0.5  C 44 0.22499999999999964  43.775 0  43.5 0  L 40 0  C 39.725 0  39.5 0.22499999999999964  39.5 0.5  L 39.5 4  L 30.25 4  L 30.25 0.5  C 30.25 0.22499999999999964  30.024999999999995 0  29.75 0  L 26.25 0  C 25.975 0  25.75 0.22499999999999964  25.75 0.5  L 25.75 4  L 16.5 4  L 16.5 0.5  C 16.5 0.22499999999999964  16.275 0  16 0  L 12.5 0  C 12.225000000000001 0  12 0.22499999999999964  12 0.5  L 12 4  L 2 4  C 0.8937499999999997 4  0 4.893750000000001  0 6  L 0 42  C 0 43.10625  0.8937499999999997 44  2 44  L 54 44  C 55.10625 44  56 43.10625  56 42  L 56 6  Z M 51 8.5  L 51 39  L 5 39  L 5 8.5  L 12 8.5  L 12 12  C 12 12.274999999999999  12.225000000000001 12.500000000000002  12.5 12.500000000000002  L 16 12.500000000000002  C 16.275 12.500000000000002  16.5 12.274999999999999  16.5 12  L 16.5 8.5  L 25.75 8.5  L 25.75 12  C 25.75 12.274999999999999  25.975 12.500000000000002  26.25 12.500000000000002  L 29.75 12.500000000000002  C 30.024999999999995 12.500000000000002  30.25 12.274999999999999  30.25 12  L 30.25 8.5  L 39.5 8.5  L 39.5 12  C 39.5 12.274999999999999  39.725 12.500000000000002  40 12.500000000000002  L 43.5 12.500000000000002  C 43.775 12.500000000000002  44 12.274999999999999  44 12  L 44 8.5  L 51 8.5  Z " fill-rule="nonzero" fill="rgba(0, 0, 0, 1)" stroke="none" class="fill" />
    <path d="M 56 6  C 56 4.893750000000001  55.10625 4  54 4  L 44 4  L 44 0.5  C 44 0.22499999999999964  43.775 0  43.5 0  L 40 0  C 39.725 0  39.5 0.22499999999999964  39.5 0.5  L 39.5 4  L 30.25 4  L 30.25 0.5  C 30.25 0.22499999999999964  30.024999999999995 0  29.75 0  L 26.25 0  C 25.975 0  25.75 0.22499999999999964  25.75 0.5  L 25.75 4  L 16.5 4  L 16.5 0.5  C 16.5 0.22499999999999964  16.275 0  16 0  L 12.5 0  C 12.225000000000001 0  12 0.22499999999999964  12 0.5  L 12 4  L 2 4  C 0.8937499999999997 4  0 4.893750000000001  0 6  L 0 42  C 0 43.10625  0.8937499999999997 44  2 44  L 54 44  C 55.10625 44  56 43.10625  56 42  L 56 6  Z " stroke-width="0" stroke-dasharray="0" stroke="rgba(255, 255, 255, 0)" fill="none" class="stroke" mask="url(#Clip2892)" />
    <path d="M 51 8.5  L 51 39  L 5 39  L 5 8.5  L 12 8.5  L 12 12  C 12 12.274999999999999  12.225000000000001 12.500000000000002  12.5 12.500000000000002  L 16 12.500000000000002  C 16.275 12.500000000000002  16.5 12.274999999999999  16.5 12  L 16.5 8.5  L 25.75 8.5  L 25.75 12  C 25.75 12.274999999999999  25.975 12.500000000000002  26.25 12.500000000000002  L 29.75 12.500000000000002  C 30.024999999999995 12.500000000000002  30.25 12.274999999999999  30.25 12  L 30.25 8.5  L 39.5 8.5  L 39.5 12  C 39.5 12.274999999999999  39.725 12.500000000000002  40 12.500000000000002  L 43.5 12.500000000000002  C 43.775 12.500000000000002  44 12.274999999999999  44 12  L 44 8.5  L 51 8.5  Z " stroke-width="0" stroke-dasharray="0" stroke="rgba(255, 255, 255, 0)" fill="none" class="stroke" mask="url(#Clip2892)" />
  </g>
</svg>