<?xml version="1.0" encoding="utf-8"?>
<svg version="1.1" xmlns:xlink="http://www.w3.org/1999/xlink" width="50px" height="50px" xmlns="http://www.w3.org/2000/svg">
  <defs>
    <pattern id="BGPattern" patternUnits="userSpaceOnUse" alignment="0 0" imageRepeat="None" />
    <mask fill="white" id="Clip1861">
      <path d="M 50 5.357142857142833  C 50 2.399553571428555  47.600446428571445 0  44.64285714285714 0  L 5.357142857142861 0  C 2.3995535714285836 0  0 2.399553571428555  0 5.357142857142833  L 0 44.64285714285711  C 0 47.600446428571445  2.3995535714285836 50  5.357142857142861 50  L 44.64285714285714 50  C 47.600446428571445 50  50 47.600446428571445  50 44.64285714285711  L 50 5.357142857142833  Z M 41.071428571428555 21.875  L 41.071428571428555 28.125  C 41.071428571428555 28.86160714285711  40.46875 29.464285714285666  39.73214285714286 29  L 29 29  L 29 39.73214285714289  C 29.464285714285722 40.46875  28.86160714285714 41.071428571428555  28.125 41.071428571428555  L 21.875 41.071428571428555  C 21.13839285714286 41.071428571428555  20.535714285714278 40.46875  21 39.73214285714289  L 21 29  L 10.267857142857139 29  C 9.53125 29.464285714285666  8.928571428571416 28.86160714285711  8.928571428571416 28.125  L 8.928571428571416 21.875  C 8.928571428571416 21.138392857142833  9.53125 20.535714285714278  10.267857142857139 21  L 21 21  L 21 10.267857142857167  C 20.535714285714278 9.53125  21.13839285714286 8.928571428571445  21.875 8.928571428571445  L 28.125 8.928571428571445  C 28.86160714285714 8.928571428571445  29.464285714285722 9.53125  29 10.267857142857167  L 29 21  L 39.73214285714286 21  C 40.46875 20.535714285714278  41.071428571428555 21.138392857142833  41.071428571428555 21.875  Z " fill-rule="evenodd" />
    </mask>
  </defs>
  <g>
    <path d="M 50 5.357142857142833  C 50 2.399553571428555  47.600446428571445 0  44.64285714285714 0  L 5.357142857142861 0  C 2.3995535714285836 0  0 2.399553571428555  0 5.357142857142833  L 0 44.64285714285711  C 0 47.600446428571445  2.3995535714285836 50  5.357142857142861 50  L 44.64285714285714 50  C 47.600446428571445 50  50 47.600446428571445  50 44.64285714285711  L 50 5.357142857142833  Z M 41.071428571428555 21.875  L 41.071428571428555 28.125  C 41.071428571428555 28.86160714285711  40.46875 29.464285714285666  39.73214285714286 29  L 29 29  L 29 39.73214285714289  C 29.464285714285722 40.46875  28.86160714285714 41.071428571428555  28.125 41.071428571428555  L 21.875 41.071428571428555  C 21.13839285714286 41.071428571428555  20.535714285714278 40.46875  21 39.73214285714289  L 21 29  L 10.267857142857139 29  C 9.53125 29.464285714285666  8.928571428571416 28.86160714285711  8.928571428571416 28.125  L 8.928571428571416 21.875  C 8.928571428571416 21.138392857142833  9.53125 20.535714285714278  10.267857142857139 21  L 21 21  L 21 10.267857142857167  C 20.535714285714278 9.53125  21.13839285714286 8.928571428571445  21.875 8.928571428571445  L 28.125 8.928571428571445  C 28.86160714285714 8.928571428571445  29.464285714285722 9.53125  29 10.267857142857167  L 29 21  L 39.73214285714286 21  C 40.46875 20.535714285714278  41.071428571428555 21.138392857142833  41.071428571428555 21.875  Z " fill-rule="nonzero" fill="rgba(0, 0, 0, 1)" stroke="none" class="fill" />
    <path d="M 50 5.357142857142833  C 50 2.399553571428555  47.600446428571445 0  44.64285714285714 0  L 5.357142857142861 0  C 2.3995535714285836 0  0 2.399553571428555  0 5.357142857142833  L 0 44.64285714285711  C 0 47.600446428571445  2.3995535714285836 50  5.357142857142861 50  L 44.64285714285714 50  C 47.600446428571445 50  50 47.600446428571445  50 44.64285714285711  L 50 5.357142857142833  Z " stroke-width="0" stroke-dasharray="0" stroke="rgba(255, 255, 255, 0)" fill="none" class="stroke" mask="url(#Clip1861)" />
    <path d="M 41.071428571428555 21.875  L 41.071428571428555 28.125  C 41.071428571428555 28.86160714285711  40.46875 29.464285714285666  39.73214285714286 29  L 29 29  L 29 39.73214285714289  C 29.464285714285722 40.46875  28.86160714285714 41.071428571428555  28.125 41.071428571428555  L 21.875 41.071428571428555  C 21.13839285714286 41.071428571428555  20.535714285714278 40.46875  21 39.73214285714289  L 21 29  L 10.267857142857139 29  C 9.53125 29.464285714285666  8.928571428571416 28.86160714285711  8.928571428571416 28.125  L 8.928571428571416 21.875  C 8.928571428571416 21.138392857142833  9.53125 20.535714285714278  10.267857142857139 21  L 21 21  L 21 10.267857142857167  C 20.535714285714278 9.53125  21.13839285714286 8.928571428571445  21.875 8.928571428571445  L 28.125 8.928571428571445  C 28.86160714285714 8.928571428571445  29.464285714285722 9.53125  29 10.267857142857167  L 29 21  L 39.73214285714286 21  C 40.46875 20.535714285714278  41.071428571428555 21.138392857142833  41.071428571428555 21.875  Z " stroke-width="0" stroke-dasharray="0" stroke="rgba(255, 255, 255, 0)" fill="none" class="stroke" mask="url(#Clip1861)" />
  </g>
</svg>