<?xml version="1.0" encoding="utf-8"?>
<svg version="1.1" xmlns:xlink="http://www.w3.org/1999/xlink" width="11px" height="16px" xmlns="http://www.w3.org/2000/svg">
  <defs>
    <pattern id="BGPattern" patternUnits="userSpaceOnUse" alignment="0 0" imageRepeat="None" />
    <mask fill="white" id="Clip4162">
      <path d="M 1 3.2199999999999998  C 1.4842363500034965 7.467092423367712  2.901382090032207 11.554618810872208  5.15 15.190000000000001  L 8.669999999999998 11.67  C 8.290853083901048 10.816003095937054  8.015551841323617 9.91959539144713  7.85 9  L 9.92 6.93  C 10.481871182317873 6.364976622119766  10.654729563011196 5.520327716459207  10.36 4.779999999999999  L 9.36 2.26  C 9.056745394214458 1.4985579142932552  8.319607696575366 0.9992065707312903  7.499999999999999 1  L 3 1  C 2.99595307850164 0.9999754329040136  2.991906091756709 0.9999631492711449  2.9878590956909714 0.9999631492711449  C 1.8832895960293854 0.9999631492711449  0.9878590956909719 1.8953936496095576  0.9878590956909719 2.999963149271145  C 0.9878590956909719 3.07347615501702  0.9919122148640329 3.1469332514382398  1 3.2199999999999998  Z " fill-rule="evenodd" />
    </mask>
  </defs>
  <g transform="matrix(1 0 0 1 -3 -3 )">
    <path d="M 1 3.2199999999999998  C 1.4842363500034965 7.467092423367712  2.901382090032207 11.554618810872208  5.15 15.190000000000001  L 8.669999999999998 11.67  C 8.290853083901048 10.816003095937054  8.015551841323617 9.91959539144713  7.85 9  L 9.92 6.93  C 10.481871182317873 6.364976622119766  10.654729563011196 5.520327716459207  10.36 4.779999999999999  L 9.36 2.26  C 9.056745394214458 1.4985579142932552  8.319607696575366 0.9992065707312903  7.499999999999999 1  L 3 1  C 2.99595307850164 0.9999754329040136  2.991906091756709 0.9999631492711449  2.9878590956909714 0.9999631492711449  C 1.8832895960293854 0.9999631492711449  0.9878590956909719 1.8953936496095576  0.9878590956909719 2.999963149271145  C 0.9878590956909719 3.07347615501702  0.9919122148640329 3.1469332514382398  1 3.2199999999999998  Z " fill-rule="nonzero" fill="rgba(0, 0, 0, 1)" stroke="none" transform="matrix(1 0 0 1 3 3 )" class="fill" />
    <path d="M 1 3.2199999999999998  C 1.4842363500034965 7.467092423367712  2.901382090032207 11.554618810872208  5.15 15.190000000000001  L 8.669999999999998 11.67  C 8.290853083901048 10.816003095937054  8.015551841323617 9.91959539144713  7.85 9  L 9.92 6.93  C 10.481871182317873 6.364976622119766  10.654729563011196 5.520327716459207  10.36 4.779999999999999  L 9.36 2.26  C 9.056745394214458 1.4985579142932552  8.319607696575366 0.9992065707312903  7.499999999999999 1  L 3 1  C 2.99595307850164 0.9999754329040136  2.991906091756709 0.9999631492711449  2.9878590956909714 0.9999631492711449  C 1.8832895960293854 0.9999631492711449  0.9878590956909719 1.8953936496095576  0.9878590956909719 2.999963149271145  C 0.9878590956909719 3.07347615501702  0.9919122148640329 3.1469332514382398  1 3.2199999999999998  Z " stroke-width="0" stroke-dasharray="0" stroke="rgba(255, 255, 255, 0)" fill="none" transform="matrix(1 0 0 1 3 3 )" class="stroke" mask="url(#Clip4162)" />
  </g>
</svg>