<?xml version="1.0" encoding="utf-8"?>
<svg version="1.1" xmlns:xlink="http://www.w3.org/1999/xlink" width="28px" height="28px" xmlns="http://www.w3.org/2000/svg">
  <defs>
    <pattern id="BGPattern" patternUnits="userSpaceOnUse" alignment="0 0" imageRepeat="None" />
    <mask fill="white" id="Clip4161">
      <path d="M 26 19.41  C 25.996707584215276 18.594041597213508  25.4980600826465 17.861900424275227  24.74 17.56  L 22.22 16.56  C 21.479672283540793 16.265270436988803  20.635023377880234 16.438128817682127  20.07 17  L 18 19.06  C 16.02798914242119 18.84808611650157  14.164618666183863 18.050493893962603  12.65 16.77  L 28 1.4100000000000001  L 26.59 0  L 0 26.59  L 1.4100000000000001 28  L 9.34 20.08  C 12.58 23.2  17.23 25.58  23.89 26  C 23.926632722169035 26.00201789619482  23.96331403381279 26.003027417337584  24.000002291315248 26.003027417337584  C 25.104571790976834 26.003027417337584  26.000002291315248 25.10759691699917  26.000002291315248 24.003027417337584  C 26.000002291315248 24.002018277790782  26.00000152754328 24.001009138390675  26 24  L 26 19.41  Z " fill-rule="evenodd" />
    </mask>
  </defs>
  <g transform="matrix(1 0 0 1 -2 -2 )">
    <path d="M 26 19.41  C 25.996707584215276 18.594041597213508  25.4980600826465 17.861900424275227  24.74 17.56  L 22.22 16.56  C 21.479672283540793 16.265270436988803  20.635023377880234 16.438128817682127  20.07 17  L 18 19.06  C 16.02798914242119 18.84808611650157  14.164618666183863 18.050493893962603  12.65 16.77  L 28 1.4100000000000001  L 26.59 0  L 0 26.59  L 1.4100000000000001 28  L 9.34 20.08  C 12.58 23.2  17.23 25.58  23.89 26  C 23.926632722169035 26.00201789619482  23.96331403381279 26.003027417337584  24.000002291315248 26.003027417337584  C 25.104571790976834 26.003027417337584  26.000002291315248 25.10759691699917  26.000002291315248 24.003027417337584  C 26.000002291315248 24.002018277790782  26.00000152754328 24.001009138390675  26 24  L 26 19.41  Z " fill-rule="nonzero" fill="rgba(0, 0, 0, 1)" stroke="none" transform="matrix(1 0 0 1 2 2 )" class="fill" />
    <path d="M 26 19.41  C 25.996707584215276 18.594041597213508  25.4980600826465 17.861900424275227  24.74 17.56  L 22.22 16.56  C 21.479672283540793 16.265270436988803  20.635023377880234 16.438128817682127  20.07 17  L 18 19.06  C 16.02798914242119 18.84808611650157  14.164618666183863 18.050493893962603  12.65 16.77  L 28 1.4100000000000001  L 26.59 0  L 0 26.59  L 1.4100000000000001 28  L 9.34 20.08  C 12.58 23.2  17.23 25.58  23.89 26  C 23.926632722169035 26.00201789619482  23.96331403381279 26.003027417337584  24.000002291315248 26.003027417337584  C 25.104571790976834 26.003027417337584  26.000002291315248 25.10759691699917  26.000002291315248 24.003027417337584  C 26.000002291315248 24.002018277790782  26.00000152754328 24.001009138390675  26 24  L 26 19.41  Z " stroke-width="0" stroke-dasharray="0" stroke="rgba(255, 255, 255, 0)" fill="none" transform="matrix(1 0 0 1 2 2 )" class="stroke" mask="url(#Clip4161)" />
  </g>
</svg>