<?xml version="1.0" encoding="utf-8"?>
<svg version="1.1" xmlns:xlink="http://www.w3.org/1999/xlink" width="11px" height="11px" xmlns="http://www.w3.org/2000/svg">
  <defs>
    <pattern id="BGPattern" patternUnits="userSpaceOnUse" alignment="0 0" imageRepeat="None" />
    <mask fill="white" id="Clip5407">
      <path d="M 11 5.75  C 11 8.64949493661166  8.64949493661166 11  5.75 11  C 2.850505063388333 11  0.5 8.64949493661166  0.5 5.75  C 0.5 2.850505063388333  2.850505063388333 0.5  5.75 0.5  C 8.64949493661166 0.5  11 2.850505063388333  11 5.75  Z M 4.25 3.4986593244718733  C 4.0507591087126364 3.4986593244718733  3.85970639451525 3.577937448968548  3.719000000000001 3.719000000000001  C 3.5779374489685516 3.85970639451525  3.4986593244718733 4.05075910871264  3.4986593244718733 4.25  C 3.4986593244718733 4.44924089128736  3.577937448968548 4.64029360548475  3.719000000000001 4.781000000000002  L 4.6895000000000024 5.7500000000000036  L 3.719000000000001 6.719000000000005  C 3.578170043895206 6.859829956104799  3.4990525983798832 7.050836366088191  3.4990525983798832 7.250000000000007  C 3.4990525983798832 7.664736797839853  3.8352632021601494 8.00094740162012  4.25 8.00094740162012  C 4.449163633911816 8.00094740162012  4.640170043895203 7.921829956104805  4.781000000000002 7.781000000000006  L 5.7500000000000036 6.810500000000005  L 6.719000000000005 7.781000000000006  C 6.859829956104799 7.921829956104801  7.050836366088191 8.00094740162012  7.250000000000007 8.00094740162012  C 7.664736797839853 8.00094740162012  8.00094740162012 7.664736797839853  8.00094740162012 7.250000000000007  C 8.00094740162012 7.050836366088191  7.921829956104805 6.859829956104804  7.781000000000006 6.719000000000005  L 6.810500000000005 5.7500000000000036  L 7.781000000000006 4.781000000000002  C 7.921829956104801 4.640170043895203  8.00094740162012 4.449163633911812  8.00094740162012 4.25  C 8.00094740162012 3.8352632021601494  7.664736797839853 3.4990525983798832  7.250000000000007 3.4990525983798832  C 7.050836366088191 3.4990525983798832  6.859829956104804 3.578170043895202  6.719000000000005 3.719000000000001  L 5.7500000000000036 4.6895000000000024  L 4.781000000000002 3.719000000000001  C 4.64029360548475 3.577937448968548  4.4492408912873636 3.4986593244718733  4.25 3.4986593244718733  Z " fill-rule="evenodd" />
    </mask>
  </defs>
  <g transform="matrix(1 0 0 1 -13 -10 )">
    <path d="M 11 5.75  C 11 8.64949493661166  8.64949493661166 11  5.75 11  C 2.850505063388333 11  0.5 8.64949493661166  0.5 5.75  C 0.5 2.850505063388333  2.850505063388333 0.5  5.75 0.5  C 8.64949493661166 0.5  11 2.850505063388333  11 5.75  Z M 4.25 3.4986593244718733  C 4.0507591087126364 3.4986593244718733  3.85970639451525 3.577937448968548  3.719000000000001 3.719000000000001  C 3.5779374489685516 3.85970639451525  3.4986593244718733 4.05075910871264  3.4986593244718733 4.25  C 3.4986593244718733 4.44924089128736  3.577937448968548 4.64029360548475  3.719000000000001 4.781000000000002  L 4.6895000000000024 5.7500000000000036  L 3.719000000000001 6.719000000000005  C 3.578170043895206 6.859829956104799  3.4990525983798832 7.050836366088191  3.4990525983798832 7.250000000000007  C 3.4990525983798832 7.664736797839853  3.8352632021601494 8.00094740162012  4.25 8.00094740162012  C 4.449163633911816 8.00094740162012  4.640170043895203 7.921829956104805  4.781000000000002 7.781000000000006  L 5.7500000000000036 6.810500000000005  L 6.719000000000005 7.781000000000006  C 6.859829956104799 7.921829956104801  7.050836366088191 8.00094740162012  7.250000000000007 8.00094740162012  C 7.664736797839853 8.00094740162012  8.00094740162012 7.664736797839853  8.00094740162012 7.250000000000007  C 8.00094740162012 7.050836366088191  7.921829956104805 6.859829956104804  7.781000000000006 6.719000000000005  L 6.810500000000005 5.7500000000000036  L 7.781000000000006 4.781000000000002  C 7.921829956104801 4.640170043895203  8.00094740162012 4.449163633911812  8.00094740162012 4.25  C 8.00094740162012 3.8352632021601494  7.664736797839853 3.4990525983798832  7.250000000000007 3.4990525983798832  C 7.050836366088191 3.4990525983798832  6.859829956104804 3.578170043895202  6.719000000000005 3.719000000000001  L 5.7500000000000036 4.6895000000000024  L 4.781000000000002 3.719000000000001  C 4.64029360548475 3.577937448968548  4.4492408912873636 3.4986593244718733  4.25 3.4986593244718733  Z " fill-rule="nonzero" fill="rgba(0, 0, 0, 1)" stroke="none" transform="matrix(1 0 0 1 13 10 )" class="fill" />
    <path d="M 11 5.75  C 11 8.64949493661166  8.64949493661166 11  5.75 11  C 2.850505063388333 11  0.5 8.64949493661166  0.5 5.75  C 0.5 2.850505063388333  2.850505063388333 0.5  5.75 0.5  C 8.64949493661166 0.5  11 2.850505063388333  11 5.75  Z " stroke-width="0" stroke-dasharray="0" stroke="rgba(255, 255, 255, 0)" fill="none" transform="matrix(1 0 0 1 13 10 )" class="stroke" mask="url(#Clip5407)" />
    <path d="M 4.25 3.4986593244718733  C 4.0507591087126364 3.4986593244718733  3.85970639451525 3.577937448968548  3.719000000000001 3.719000000000001  C 3.5779374489685516 3.85970639451525  3.4986593244718733 4.05075910871264  3.4986593244718733 4.25  C 3.4986593244718733 4.44924089128736  3.577937448968548 4.64029360548475  3.719000000000001 4.781000000000002  L 4.6895000000000024 5.7500000000000036  L 3.719000000000001 6.719000000000005  C 3.578170043895206 6.859829956104799  3.4990525983798832 7.050836366088191  3.4990525983798832 7.250000000000007  C 3.4990525983798832 7.664736797839853  3.8352632021601494 8.00094740162012  4.25 8.00094740162012  C 4.449163633911816 8.00094740162012  4.640170043895203 7.921829956104805  4.781000000000002 7.781000000000006  L 5.7500000000000036 6.810500000000005  L 6.719000000000005 7.781000000000006  C 6.859829956104799 7.921829956104801  7.050836366088191 8.00094740162012  7.250000000000007 8.00094740162012  C 7.664736797839853 8.00094740162012  8.00094740162012 7.664736797839853  8.00094740162012 7.250000000000007  C 8.00094740162012 7.050836366088191  7.921829956104805 6.859829956104804  7.781000000000006 6.719000000000005  L 6.810500000000005 5.7500000000000036  L 7.781000000000006 4.781000000000002  C 7.921829956104801 4.640170043895203  8.00094740162012 4.449163633911812  8.00094740162012 4.25  C 8.00094740162012 3.8352632021601494  7.664736797839853 3.4990525983798832  7.250000000000007 3.4990525983798832  C 7.050836366088191 3.4990525983798832  6.859829956104804 3.578170043895202  6.719000000000005 3.719000000000001  L 5.7500000000000036 4.6895000000000024  L 4.781000000000002 3.719000000000001  C 4.64029360548475 3.577937448968548  4.4492408912873636 3.4986593244718733  4.25 3.4986593244718733  Z " stroke-width="0" stroke-dasharray="0" stroke="rgba(255, 255, 255, 0)" fill="none" transform="matrix(1 0 0 1 13 10 )" class="stroke" mask="url(#Clip5407)" />
  </g>
</svg>