<?xml version="1.0" encoding="utf-8"?>
<svg version="1.1" xmlns:xlink="http://www.w3.org/1999/xlink" width="45px" height="56px" xmlns="http://www.w3.org/2000/svg">
  <defs>
    <pattern id="BGPattern" patternUnits="userSpaceOnUse" alignment="0 0" imageRepeat="None" />
    <mask fill="white" id="Clip2274">
      <path d="M 44 34.13125  C 44 31.081250000000008  43.375 28.11875  42.131249999999994 25.324999999999996  C 40.917902758958 22.59410076664433  39.15403417706609 20.142983026789707  36.95 18.125  L 35.13125 16.45625  C 35.03860050664017 16.373566130129962  34.91876341078463 16.327868393022406  34.79458389976723 16.327868393022406  C 34.581263489465485 16.327868393022406  34.39089117331704 16.461748291255727  34.31875 16.6625  L 33.50625 18.993750000000002  C 33 20.45625  32.06875 21.950000000000003  30.75 23.418750000000003  C 30.6625 23.512500000000003  30.5625 23.5375  30.493750000000002 23.543750000000003  C 30.424999999999994 23.550000000000004  30.31875 23.5375  30.225000000000005 23.450000000000003  C 30.137500000000006 23.375000000000004  30.093749999999996 23.262500000000003  30.099999999999998 23.150000000000002  C 30.331250000000004 19.387500000000003  29.206250000000004 15.143750000000002  26.74375 10.525000000000002  C 24.706249999999994 6.6875  21.875 3.693749999999999  18.3375 1.6062500000000002  L 15.756249999999998 0.08750000000000036  C 15.41875 -0.11249999999999982  14.987499999999997 0.15000000000000036  15.006249999999998 0.5437500000000002  L 15.143749999999997 3.5437499999999997  C 15.237499999999997 5.59375  14.999999999999996 7.406249999999999  14.437499999999996 8.912500000000001  C 13.749999999999996 10.756250000000001  12.762499999999996 12.46875  11.499999999999995 14.00625  C 10.62139238526743 15.074769723239278  9.625568987223652 16.041242536919658  8.531249999999996 16.887500000000003  C 5.895659577771328 18.913534099602042  3.752583475063339 21.509583416441732  2.2624999999999975 24.481250000000006  C 0.7760871363958675 27.478831686253574  0.0018135054824899301 30.77911956608601  0 34.125  C 0 37.075  0.5812500000000007 39.93125  1.7312499999999993 42.625  C 2.8416645162279566 45.21853994219765  4.444116153407656 47.57233976422716  6.449999999999999 49.55625  C 8.474999999999998 51.55625  10.825 53.13125  13.443750000000001 54.225  C 16.15625 55.3625  19.03125 55.9375  22 55.9375  C 24.96875 55.9375  27.84375 55.3625  30.556250000000006 54.23125000000001  C 33.16854998405927 53.14390713522951  35.54403490442449 51.558127657559425  37.55 49.5625  C 39.574999999999996 47.5625  41.162499999999994 45.225  42.26875 42.63125  C 43.41701727235422 39.944866229126404  44.00607412289329 37.05274595211151  44 34.13125  Z " fill-rule="evenodd" />
    </mask>
  </defs>
  <g>
    <path d="M 44 34.13125  C 44 31.081250000000008  43.375 28.11875  42.131249999999994 25.324999999999996  C 40.917902758958 22.59410076664433  39.15403417706609 20.142983026789707  36.95 18.125  L 35.13125 16.45625  C 35.03860050664017 16.373566130129962  34.91876341078463 16.327868393022406  34.79458389976723 16.327868393022406  C 34.581263489465485 16.327868393022406  34.39089117331704 16.461748291255727  34.31875 16.6625  L 33.50625 18.993750000000002  C 33 20.45625  32.06875 21.950000000000003  30.75 23.418750000000003  C 30.6625 23.512500000000003  30.5625 23.5375  30.493750000000002 23.543750000000003  C 30.424999999999994 23.550000000000004  30.31875 23.5375  30.225000000000005 23.450000000000003  C 30.137500000000006 23.375000000000004  30.093749999999996 23.262500000000003  30.099999999999998 23.150000000000002  C 30.331250000000004 19.387500000000003  29.206250000000004 15.143750000000002  26.74375 10.525000000000002  C 24.706249999999994 6.6875  21.875 3.693749999999999  18.3375 1.6062500000000002  L 15.756249999999998 0.08750000000000036  C 15.41875 -0.11249999999999982  14.987499999999997 0.15000000000000036  15.006249999999998 0.5437500000000002  L 15.143749999999997 3.5437499999999997  C 15.237499999999997 5.59375  14.999999999999996 7.406249999999999  14.437499999999996 8.912500000000001  C 13.749999999999996 10.756250000000001  12.762499999999996 12.46875  11.499999999999995 14.00625  C 10.62139238526743 15.074769723239278  9.625568987223652 16.041242536919658  8.531249999999996 16.887500000000003  C 5.895659577771328 18.913534099602042  3.752583475063339 21.509583416441732  2.2624999999999975 24.481250000000006  C 0.7760871363958675 27.478831686253574  0.0018135054824899301 30.77911956608601  0 34.125  C 0 37.075  0.5812500000000007 39.93125  1.7312499999999993 42.625  C 2.8416645162279566 45.21853994219765  4.444116153407656 47.57233976422716  6.449999999999999 49.55625  C 8.474999999999998 51.55625  10.825 53.13125  13.443750000000001 54.225  C 16.15625 55.3625  19.03125 55.9375  22 55.9375  C 24.96875 55.9375  27.84375 55.3625  30.556250000000006 54.23125000000001  C 33.16854998405927 53.14390713522951  35.54403490442449 51.558127657559425  37.55 49.5625  C 39.574999999999996 47.5625  41.162499999999994 45.225  42.26875 42.63125  C 43.41701727235422 39.944866229126404  44.00607412289329 37.05274595211151  44 34.13125  Z " fill-rule="nonzero" fill="rgba(0, 0, 0, 1)" stroke="none" class="fill" />
    <path d="M 44 34.13125  C 44 31.081250000000008  43.375 28.11875  42.131249999999994 25.324999999999996  C 40.917902758958 22.59410076664433  39.15403417706609 20.142983026789707  36.95 18.125  L 35.13125 16.45625  C 35.03860050664017 16.373566130129962  34.91876341078463 16.327868393022406  34.79458389976723 16.327868393022406  C 34.581263489465485 16.327868393022406  34.39089117331704 16.461748291255727  34.31875 16.6625  L 33.50625 18.993750000000002  C 33 20.45625  32.06875 21.950000000000003  30.75 23.418750000000003  C 30.6625 23.512500000000003  30.5625 23.5375  30.493750000000002 23.543750000000003  C 30.424999999999994 23.550000000000004  30.31875 23.5375  30.225000000000005 23.450000000000003  C 30.137500000000006 23.375000000000004  30.093749999999996 23.262500000000003  30.099999999999998 23.150000000000002  C 30.331250000000004 19.387500000000003  29.206250000000004 15.143750000000002  26.74375 10.525000000000002  C 24.706249999999994 6.6875  21.875 3.693749999999999  18.3375 1.6062500000000002  L 15.756249999999998 0.08750000000000036  C 15.41875 -0.11249999999999982  14.987499999999997 0.15000000000000036  15.006249999999998 0.5437500000000002  L 15.143749999999997 3.5437499999999997  C 15.237499999999997 5.59375  14.999999999999996 7.406249999999999  14.437499999999996 8.912500000000001  C 13.749999999999996 10.756250000000001  12.762499999999996 12.46875  11.499999999999995 14.00625  C 10.62139238526743 15.074769723239278  9.625568987223652 16.041242536919658  8.531249999999996 16.887500000000003  C 5.895659577771328 18.913534099602042  3.752583475063339 21.509583416441732  2.2624999999999975 24.481250000000006  C 0.7760871363958675 27.478831686253574  0.0018135054824899301 30.77911956608601  0 34.125  C 0 37.075  0.5812500000000007 39.93125  1.7312499999999993 42.625  C 2.8416645162279566 45.21853994219765  4.444116153407656 47.57233976422716  6.449999999999999 49.55625  C 8.474999999999998 51.55625  10.825 53.13125  13.443750000000001 54.225  C 16.15625 55.3625  19.03125 55.9375  22 55.9375  C 24.96875 55.9375  27.84375 55.3625  30.556250000000006 54.23125000000001  C 33.16854998405927 53.14390713522951  35.54403490442449 51.558127657559425  37.55 49.5625  C 39.574999999999996 47.5625  41.162499999999994 45.225  42.26875 42.63125  C 43.41701727235422 39.944866229126404  44.00607412289329 37.05274595211151  44 34.13125  Z " stroke-width="0" stroke-dasharray="0" stroke="rgba(255, 255, 255, 0)" fill="none" class="stroke" mask="url(#Clip2274)" />
  </g>
</svg>