<?xml version="1.0" encoding="utf-8"?>
<svg version="1.1" xmlns:xlink="http://www.w3.org/1999/xlink" width="48px" height="48px" xmlns="http://www.w3.org/2000/svg">
  <defs>
    <pattern id="BGPattern" patternUnits="userSpaceOnUse" alignment="0 0" imageRepeat="None" />
    <mask fill="white" id="Clip6803">
      <path d="M 32.672 16.582  L 29.547999999999995 16.582  L 31.092 11.39  L 32.672 16.582  Z M 37.23799999999999 21.106  L 37.244 21.118000000000002  L 33.194 8.862000000000002  C 33.104 8.592000000000002  33 8.414000000000001  32.886 8.330000000000002  C 32.768 8.248000000000001  32.582 8.204000000000002  32.326 8.204000000000002  L 30.086000000000006 8.204000000000004  C 29.887190854283403 8.189902555625737  29.688864883625854 8.237389055642334  29.517999999999997 8.340000000000002  C 29.397999999999996 8.430000000000001  29.298000000000002 8.604000000000001  29.22 8.862000000000002  L 25.130000000000003 21.118000000000002  C 25.08 21.182000000000002  25.054 21.310000000000002  25.054 21.502000000000002  C 25.054 21.8  25.234 21.948000000000004  25.593999999999998 21.948000000000004  L 27.274 21.948000000000004  C 27.426 21.948000000000004  27.552 21.942000000000004  27.648000000000003 21.928000000000008  C 27.73340629612332 21.92078696334252  27.814468566587244 21.88724395487469  27.879999999999995 21.832000000000004  C 27.947441061355377 21.766658744581807  27.999972281765857 21.68752080214524  28.033999999999995 21.600000000000005  C 28.077999999999996 21.498000000000005  28.125999999999998 21.362000000000005  28.177999999999997 21.196000000000005  L 28.813999999999993 19.054000000000006  L 33.425999999999995 19.054000000000006  L 34.08 21.156000000000006  C 34.132 21.336000000000006  34.181999999999995 21.476000000000006  34.233999999999995 21.582  C 34.27633636972325 21.67226272799747  34.3353755738082 21.753696112942226  34.408 21.822000000000003  C 34.47 21.878000000000004  34.548 21.916000000000004  34.636 21.928000000000004  L 34.64 21.928000000000004  C 34.730000000000004 21.940000000000005  34.846000000000004 21.948000000000004  34.986 21.948000000000004  L 36.779999999999994 21.948000000000004  C 37.13999999999999 21.948000000000004  37.31999999999999 21.800000000000004  37.31999999999999 21.502000000000002  C 37.321261577299374 21.44183278316705  37.31791849007288 21.38165721309005  37.309999999999995 21.322000000000003  C 37.29069796705057 21.248518247437527  37.266647425177936 21.17636662181964  37.23799999999999 21.106  Z M 35.92199999999999 26.198000000000008  C 35.81199999999999 26.102000000000004  35.58999999999999 26.052000000000003  35.256 26.052000000000003  L 33.964 26.052000000000003  C 33.628 26.052000000000003  33.406 26.1  33.298 26.196000000000005  C 33.188 26.294  33.134 26.490000000000002  33.134 26.786  L 33.134 34.062  L 29.314 26.768  C 29.162 26.458  29.009999999999998 26.262  28.862000000000002 26.177999999999997  C 28.714 26.095999999999997  28.453999999999997 26.052  28.081999999999994 26.052  L 26.883999999999997 26.052  C 26.549999999999997 26.052  26.327999999999996 26.101999999999997  26.219999999999995 26.197999999999993  C 26.109999999999992 26.293999999999997  26.05599999999999 26.491999999999997  26 26.786  L 26 39.062  C 26.05599999999999 39.358  26.105999999999995 39.553999999999995  26.209999999999994 39.65  C 26.313999999999993 39.745999999999995  26.529999999999994 39.794  26.865999999999993 39.794  L 28.177999999999997 39.794  C 28.511999999999993 39.794  28.733999999999995 39.745999999999995  28.842 39.65  C 28.95199999999999 39.554  29.005999999999993 39.358  29.005999999999993 39.062  L 29.005999999999993 31.766  L 32.82599999999999 39.08  C 32.98 39.39  33.129999999999995 39.586  33.279999999999994 39.67  C 33.425999999999995 39.754000000000005  33.687999999999995 39.794000000000004  34.059999999999995 39.794000000000004  L 35.25599999999999 39.794000000000004  C 35.589999999999996 39.794000000000004  35.81199999999999 39.746  35.92199999999999 39.650000000000006  C 36.02999999999999 39.55400000000001  36.08599999999999 39.358000000000004  36 39.062000000000005  L 36 26.786000000000005  C 36.08599999999999 26.490000000000006  36.029999999999994 26.294000000000004  35.92199999999999 26.198000000000008  Z M 41.66000000000001 24.890000000000008  L 41.662 24.890000000000008  L 45 28.220000000000006  L 45 45  L 3 45  L 3 28.22  L 6.336000000000002 24.891999999999996  C 6.826789243984807 24.400158555154526  6.826789243984807 23.60384144484548  6.336 23.112  L 3 19.782  L 3 3  L 45 3  L 45 19.778  L 41.66000000000001 23.11  C 41.1692107560152 23.601841444845476  41.1692107560152 24.398158555154527  41.66000000000001 24.890000000000008  Z M 48 21.226  L 48 0  L 0 0  L 0 21.226  L 2.774 24  L 0 26.774  L 0 48  L 48 48  L 48 26.774  L 45.226 24  L 48 21.226  Z M 21.338 36.938  L 21.34 36.938  L 15.92 36.938  L 21.63 28.910000000000004  C 21.701510288856532 28.81485292435462  21.760025089677377 28.71060241714507  21.804 28.600000000000005  C 21.831113179774274 28.512631197121593  21.84394489856458 28.421458458348333  21.842 28.330000000000005  L 21.842 26.786000000000005  C 21.842 26.490000000000006  21.785999999999998 26.294000000000004  21.677999999999997 26.198000000000008  C 21.567999999999998 26.102000000000004  21.345999999999997 26.052000000000003  21.009999999999998 26.052000000000003  L 12.764 26.052000000000003  C 12.466 26.052000000000003  12.274 26.108000000000004  12.183999999999997 26.216000000000008  C 12.094000000000001 26.326  12.048 26.554000000000002  12.048 26.902  L 12.048 28.062000000000005  C 12.048 28.406000000000006  12.094000000000001 28.636000000000006  12.183999999999997 28.744000000000007  C 12.274 28.854  12.466 28.910000000000004  12.764 28.910000000000004  L 17.854 28.910000000000004  L 12.219999999999999 36.938  C 12.089328698142747 37.08842344950493  12.013843421284953 37.278900316342344  12.006 37.478  L 12.006 39.062000000000005  C 12.006 39.358000000000004  12.060000000000002 39.55200000000001  12.17 39.650000000000006  C 12.279999999999998 39.746  12.504000000000001 39.794000000000004  12.837999999999997 39.794000000000004  L 21.338 39.794000000000004  C 21.634 39.794000000000004  21.828 39.74  21.918 39.632000000000005  C 22.008 39.522000000000006  22.054 39.292  22.054 38.944  L 22.054 37.786  C 22.054 37.440000000000005  22.008 37.212  21.918 37.102000000000004  C 21.828 36.992000000000004  21.634 36.938  21.338 36.938  Z M 18.816000000000003 13.687999999999999  L 18.816 16.466  C 18.816 16.994  18.782 17.434  18.712 17.788  C 18.64 18.142  18.526 18.428  18.364 18.648  C 18.20494357529694 18.864131142804524  17.98271816027033 19.025559038625744  17.728 19.11  C 17.41284320391149 19.207791933105494  17.083889998717275 19.253723797485794  16.754 19.246  L 15.174000000000003 19.246  L 15.174000000000003 10.905999999999999  L 16.754 10.905999999999999  C 17.486 10.905999999999999  18.014000000000003 11.126  18.334000000000003 11.553999999999998  C 18.654000000000003 11.983999999999998  18.816000000000003 12.695999999999998  18.816000000000003 13.687999999999999  Z M 21.574 10.887999999999998  L 21.576 10.888000000000002  C 21.126 9.974000000000002  20.51 9.298000000000002  19.734 8.862000000000002  C 18.954 8.424000000000001  17.974 8.206000000000001  16.794 8.206000000000001  L 12.836000000000002 8.206000000000001  C 12.502 8.206000000000001  12.280000000000001 8.254000000000001  12.17 8.350000000000001  C 12.061999999999998 8.448000000000002  12.006 8.644000000000002  12 8.938  L 12 21.214  C 12.006 21.509999999999998  12.061999999999998 21.706  12.17 21.804  C 12.279999999999998 21.9  12.502 21.947999999999997  12.836000000000002 21.947999999999997  L 17.272 21.947999999999997  C 19.368 21.947999999999997  20.802 21.054  21.572 19.263999999999996  C 21.752 18.853999999999996  21.878 18.437999999999995  21.948 18.019999999999996  C 22.027125989683316 17.493141618995683  22.06324519803417 16.960717732934892  22.056 16.427999999999997  L 22.056 13.822  C 22.056 13.088000000000001  22.02 12.51  21.948 12.086000000000002  C 21.87984884117002 11.661326909685531  21.749799035810735 11.2489409983908  21.562 10.861999999999998  L 21.574 10.887999999999998  Z " fill-rule="evenodd" />
    </mask>
  </defs>
  <g>
    <path d="M 32.672 16.582  L 29.547999999999995 16.582  L 31.092 11.39  L 32.672 16.582  Z M 37.23799999999999 21.106  L 37.244 21.118000000000002  L 33.194 8.862000000000002  C 33.104 8.592000000000002  33 8.414000000000001  32.886 8.330000000000002  C 32.768 8.248000000000001  32.582 8.204000000000002  32.326 8.204000000000002  L 30.086000000000006 8.204000000000004  C 29.887190854283403 8.189902555625737  29.688864883625854 8.237389055642334  29.517999999999997 8.340000000000002  C 29.397999999999996 8.430000000000001  29.298000000000002 8.604000000000001  29.22 8.862000000000002  L 25.130000000000003 21.118000000000002  C 25.08 21.182000000000002  25.054 21.310000000000002  25.054 21.502000000000002  C 25.054 21.8  25.234 21.948000000000004  25.593999999999998 21.948000000000004  L 27.274 21.948000000000004  C 27.426 21.948000000000004  27.552 21.942000000000004  27.648000000000003 21.928000000000008  C 27.73340629612332 21.92078696334252  27.814468566587244 21.88724395487469  27.879999999999995 21.832000000000004  C 27.947441061355377 21.766658744581807  27.999972281765857 21.68752080214524  28.033999999999995 21.600000000000005  C 28.077999999999996 21.498000000000005  28.125999999999998 21.362000000000005  28.177999999999997 21.196000000000005  L 28.813999999999993 19.054000000000006  L 33.425999999999995 19.054000000000006  L 34.08 21.156000000000006  C 34.132 21.336000000000006  34.181999999999995 21.476000000000006  34.233999999999995 21.582  C 34.27633636972325 21.67226272799747  34.3353755738082 21.753696112942226  34.408 21.822000000000003  C 34.47 21.878000000000004  34.548 21.916000000000004  34.636 21.928000000000004  L 34.64 21.928000000000004  C 34.730000000000004 21.940000000000005  34.846000000000004 21.948000000000004  34.986 21.948000000000004  L 36.779999999999994 21.948000000000004  C 37.13999999999999 21.948000000000004  37.31999999999999 21.800000000000004  37.31999999999999 21.502000000000002  C 37.321261577299374 21.44183278316705  37.31791849007288 21.38165721309005  37.309999999999995 21.322000000000003  C 37.29069796705057 21.248518247437527  37.266647425177936 21.17636662181964  37.23799999999999 21.106  Z M 35.92199999999999 26.198000000000008  C 35.81199999999999 26.102000000000004  35.58999999999999 26.052000000000003  35.256 26.052000000000003  L 33.964 26.052000000000003  C 33.628 26.052000000000003  33.406 26.1  33.298 26.196000000000005  C 33.188 26.294  33.134 26.490000000000002  33.134 26.786  L 33.134 34.062  L 29.314 26.768  C 29.162 26.458  29.009999999999998 26.262  28.862000000000002 26.177999999999997  C 28.714 26.095999999999997  28.453999999999997 26.052  28.081999999999994 26.052  L 26.883999999999997 26.052  C 26.549999999999997 26.052  26.327999999999996 26.101999999999997  26.219999999999995 26.197999999999993  C 26.109999999999992 26.293999999999997  26.05599999999999 26.491999999999997  26 26.786  L 26 39.062  C 26.05599999999999 39.358  26.105999999999995 39.553999999999995  26.209999999999994 39.65  C 26.313999999999993 39.745999999999995  26.529999999999994 39.794  26.865999999999993 39.794  L 28.177999999999997 39.794  C 28.511999999999993 39.794  28.733999999999995 39.745999999999995  28.842 39.65  C 28.95199999999999 39.554  29.005999999999993 39.358  29.005999999999993 39.062  L 29.005999999999993 31.766  L 32.82599999999999 39.08  C 32.98 39.39  33.129999999999995 39.586  33.279999999999994 39.67  C 33.425999999999995 39.754000000000005  33.687999999999995 39.794000000000004  34.059999999999995 39.794000000000004  L 35.25599999999999 39.794000000000004  C 35.589999999999996 39.794000000000004  35.81199999999999 39.746  35.92199999999999 39.650000000000006  C 36.02999999999999 39.55400000000001  36.08599999999999 39.358000000000004  36 39.062000000000005  L 36 26.786000000000005  C 36.08599999999999 26.490000000000006  36.029999999999994 26.294000000000004  35.92199999999999 26.198000000000008  Z M 41.66000000000001 24.890000000000008  L 41.662 24.890000000000008  L 45 28.220000000000006  L 45 45  L 3 45  L 3 28.22  L 6.336000000000002 24.891999999999996  C 6.826789243984807 24.400158555154526  6.826789243984807 23.60384144484548  6.336 23.112  L 3 19.782  L 3 3  L 45 3  L 45 19.778  L 41.66000000000001 23.11  C 41.1692107560152 23.601841444845476  41.1692107560152 24.398158555154527  41.66000000000001 24.890000000000008  Z M 48 21.226  L 48 0  L 0 0  L 0 21.226  L 2.774 24  L 0 26.774  L 0 48  L 48 48  L 48 26.774  L 45.226 24  L 48 21.226  Z M 21.338 36.938  L 21.34 36.938  L 15.92 36.938  L 21.63 28.910000000000004  C 21.701510288856532 28.81485292435462  21.760025089677377 28.71060241714507  21.804 28.600000000000005  C 21.831113179774274 28.512631197121593  21.84394489856458 28.421458458348333  21.842 28.330000000000005  L 21.842 26.786000000000005  C 21.842 26.490000000000006  21.785999999999998 26.294000000000004  21.677999999999997 26.198000000000008  C 21.567999999999998 26.102000000000004  21.345999999999997 26.052000000000003  21.009999999999998 26.052000000000003  L 12.764 26.052000000000003  C 12.466 26.052000000000003  12.274 26.108000000000004  12.183999999999997 26.216000000000008  C 12.094000000000001 26.326  12.048 26.554000000000002  12.048 26.902  L 12.048 28.062000000000005  C 12.048 28.406000000000006  12.094000000000001 28.636000000000006  12.183999999999997 28.744000000000007  C 12.274 28.854  12.466 28.910000000000004  12.764 28.910000000000004  L 17.854 28.910000000000004  L 12.219999999999999 36.938  C 12.089328698142747 37.08842344950493  12.013843421284953 37.278900316342344  12.006 37.478  L 12.006 39.062000000000005  C 12.006 39.358000000000004  12.060000000000002 39.55200000000001  12.17 39.650000000000006  C 12.279999999999998 39.746  12.504000000000001 39.794000000000004  12.837999999999997 39.794000000000004  L 21.338 39.794000000000004  C 21.634 39.794000000000004  21.828 39.74  21.918 39.632000000000005  C 22.008 39.522000000000006  22.054 39.292  22.054 38.944  L 22.054 37.786  C 22.054 37.440000000000005  22.008 37.212  21.918 37.102000000000004  C 21.828 36.992000000000004  21.634 36.938  21.338 36.938  Z M 18.816000000000003 13.687999999999999  L 18.816 16.466  C 18.816 16.994  18.782 17.434  18.712 17.788  C 18.64 18.142  18.526 18.428  18.364 18.648  C 18.20494357529694 18.864131142804524  17.98271816027033 19.025559038625744  17.728 19.11  C 17.41284320391149 19.207791933105494  17.083889998717275 19.253723797485794  16.754 19.246  L 15.174000000000003 19.246  L 15.174000000000003 10.905999999999999  L 16.754 10.905999999999999  C 17.486 10.905999999999999  18.014000000000003 11.126  18.334000000000003 11.553999999999998  C 18.654000000000003 11.983999999999998  18.816000000000003 12.695999999999998  18.816000000000003 13.687999999999999  Z M 21.574 10.887999999999998  L 21.576 10.888000000000002  C 21.126 9.974000000000002  20.51 9.298000000000002  19.734 8.862000000000002  C 18.954 8.424000000000001  17.974 8.206000000000001  16.794 8.206000000000001  L 12.836000000000002 8.206000000000001  C 12.502 8.206000000000001  12.280000000000001 8.254000000000001  12.17 8.350000000000001  C 12.061999999999998 8.448000000000002  12.006 8.644000000000002  12 8.938  L 12 21.214  C 12.006 21.509999999999998  12.061999999999998 21.706  12.17 21.804  C 12.279999999999998 21.9  12.502 21.947999999999997  12.836000000000002 21.947999999999997  L 17.272 21.947999999999997  C 19.368 21.947999999999997  20.802 21.054  21.572 19.263999999999996  C 21.752 18.853999999999996  21.878 18.437999999999995  21.948 18.019999999999996  C 22.027125989683316 17.493141618995683  22.06324519803417 16.960717732934892  22.056 16.427999999999997  L 22.056 13.822  C 22.056 13.088000000000001  22.02 12.51  21.948 12.086000000000002  C 21.87984884117002 11.661326909685531  21.749799035810735 11.2489409983908  21.562 10.861999999999998  L 21.574 10.887999999999998  Z " fill-rule="nonzero" fill="rgba(248, 248, 245, 1)" stroke="none" class="fill" />
    <path d="M 32.672 16.582  L 29.547999999999995 16.582  L 31.092 11.39  L 32.672 16.582  Z " stroke-width="0" stroke-dasharray="0" stroke="rgba(255, 255, 255, 0)" fill="none" class="stroke" mask="url(#Clip6803)" />
    <path d="M 37.23799999999999 21.106  L 37.244 21.118000000000002  L 33.194 8.862000000000002  C 33.104 8.592000000000002  33 8.414000000000001  32.886 8.330000000000002  C 32.768 8.248000000000001  32.582 8.204000000000002  32.326 8.204000000000002  L 30.086000000000006 8.204000000000004  C 29.887190854283403 8.189902555625737  29.688864883625854 8.237389055642334  29.517999999999997 8.340000000000002  C 29.397999999999996 8.430000000000001  29.298000000000002 8.604000000000001  29.22 8.862000000000002  L 25.130000000000003 21.118000000000002  C 25.08 21.182000000000002  25.054 21.310000000000002  25.054 21.502000000000002  C 25.054 21.8  25.234 21.948000000000004  25.593999999999998 21.948000000000004  L 27.274 21.948000000000004  C 27.426 21.948000000000004  27.552 21.942000000000004  27.648000000000003 21.928000000000008  C 27.73340629612332 21.92078696334252  27.814468566587244 21.88724395487469  27.879999999999995 21.832000000000004  C 27.947441061355377 21.766658744581807  27.999972281765857 21.68752080214524  28.033999999999995 21.600000000000005  C 28.077999999999996 21.498000000000005  28.125999999999998 21.362000000000005  28.177999999999997 21.196000000000005  L 28.813999999999993 19.054000000000006  L 33.425999999999995 19.054000000000006  L 34.08 21.156000000000006  C 34.132 21.336000000000006  34.181999999999995 21.476000000000006  34.233999999999995 21.582  C 34.27633636972325 21.67226272799747  34.3353755738082 21.753696112942226  34.408 21.822000000000003  C 34.47 21.878000000000004  34.548 21.916000000000004  34.636 21.928000000000004  L 34.64 21.928000000000004  C 34.730000000000004 21.940000000000005  34.846000000000004 21.948000000000004  34.986 21.948000000000004  L 36.779999999999994 21.948000000000004  C 37.13999999999999 21.948000000000004  37.31999999999999 21.800000000000004  37.31999999999999 21.502000000000002  C 37.321261577299374 21.44183278316705  37.31791849007288 21.38165721309005  37.309999999999995 21.322000000000003  C 37.29069796705057 21.248518247437527  37.266647425177936 21.17636662181964  37.23799999999999 21.106  Z " stroke-width="0" stroke-dasharray="0" stroke="rgba(255, 255, 255, 0)" fill="none" class="stroke" mask="url(#Clip6803)" />
    <path d="M 35.92199999999999 26.198000000000008  C 35.81199999999999 26.102000000000004  35.58999999999999 26.052000000000003  35.256 26.052000000000003  L 33.964 26.052000000000003  C 33.628 26.052000000000003  33.406 26.1  33.298 26.196000000000005  C 33.188 26.294  33.134 26.490000000000002  33.134 26.786  L 33.134 34.062  L 29.314 26.768  C 29.162 26.458  29.009999999999998 26.262  28.862000000000002 26.177999999999997  C 28.714 26.095999999999997  28.453999999999997 26.052  28.081999999999994 26.052  L 26.883999999999997 26.052  C 26.549999999999997 26.052  26.327999999999996 26.101999999999997  26.219999999999995 26.197999999999993  C 26.109999999999992 26.293999999999997  26.05599999999999 26.491999999999997  26 26.786  L 26 39.062  C 26.05599999999999 39.358  26.105999999999995 39.553999999999995  26.209999999999994 39.65  C 26.313999999999993 39.745999999999995  26.529999999999994 39.794  26.865999999999993 39.794  L 28.177999999999997 39.794  C 28.511999999999993 39.794  28.733999999999995 39.745999999999995  28.842 39.65  C 28.95199999999999 39.554  29.005999999999993 39.358  29.005999999999993 39.062  L 29.005999999999993 31.766  L 32.82599999999999 39.08  C 32.98 39.39  33.129999999999995 39.586  33.279999999999994 39.67  C 33.425999999999995 39.754000000000005  33.687999999999995 39.794000000000004  34.059999999999995 39.794000000000004  L 35.25599999999999 39.794000000000004  C 35.589999999999996 39.794000000000004  35.81199999999999 39.746  35.92199999999999 39.650000000000006  C 36.02999999999999 39.55400000000001  36.08599999999999 39.358000000000004  36 39.062000000000005  L 36 26.786000000000005  C 36.08599999999999 26.490000000000006  36.029999999999994 26.294000000000004  35.92199999999999 26.198000000000008  Z " stroke-width="0" stroke-dasharray="0" stroke="rgba(255, 255, 255, 0)" fill="none" class="stroke" mask="url(#Clip6803)" />
    <path d="M 41.66000000000001 24.890000000000008  L 41.662 24.890000000000008  L 45 28.220000000000006  L 45 45  L 3 45  L 3 28.22  L 6.336000000000002 24.891999999999996  C 6.826789243984807 24.400158555154526  6.826789243984807 23.60384144484548  6.336 23.112  L 3 19.782  L 3 3  L 45 3  L 45 19.778  L 41.66000000000001 23.11  C 41.1692107560152 23.601841444845476  41.1692107560152 24.398158555154527  41.66000000000001 24.890000000000008  Z " stroke-width="0" stroke-dasharray="0" stroke="rgba(255, 255, 255, 0)" fill="none" class="stroke" mask="url(#Clip6803)" />
    <path d="M 48 21.226  L 48 0  L 0 0  L 0 21.226  L 2.774 24  L 0 26.774  L 0 48  L 48 48  L 48 26.774  L 45.226 24  L 48 21.226  Z " stroke-width="0" stroke-dasharray="0" stroke="rgba(255, 255, 255, 0)" fill="none" class="stroke" mask="url(#Clip6803)" />
    <path d="M 21.338 36.938  L 21.34 36.938  L 15.92 36.938  L 21.63 28.910000000000004  C 21.701510288856532 28.81485292435462  21.760025089677377 28.71060241714507  21.804 28.600000000000005  C 21.831113179774274 28.512631197121593  21.84394489856458 28.421458458348333  21.842 28.330000000000005  L 21.842 26.786000000000005  C 21.842 26.490000000000006  21.785999999999998 26.294000000000004  21.677999999999997 26.198000000000008  C 21.567999999999998 26.102000000000004  21.345999999999997 26.052000000000003  21.009999999999998 26.052000000000003  L 12.764 26.052000000000003  C 12.466 26.052000000000003  12.274 26.108000000000004  12.183999999999997 26.216000000000008  C 12.094000000000001 26.326  12.048 26.554000000000002  12.048 26.902  L 12.048 28.062000000000005  C 12.048 28.406000000000006  12.094000000000001 28.636000000000006  12.183999999999997 28.744000000000007  C 12.274 28.854  12.466 28.910000000000004  12.764 28.910000000000004  L 17.854 28.910000000000004  L 12.219999999999999 36.938  C 12.089328698142747 37.08842344950493  12.013843421284953 37.278900316342344  12.006 37.478  L 12.006 39.062000000000005  C 12.006 39.358000000000004  12.060000000000002 39.55200000000001  12.17 39.650000000000006  C 12.279999999999998 39.746  12.504000000000001 39.794000000000004  12.837999999999997 39.794000000000004  L 21.338 39.794000000000004  C 21.634 39.794000000000004  21.828 39.74  21.918 39.632000000000005  C 22.008 39.522000000000006  22.054 39.292  22.054 38.944  L 22.054 37.786  C 22.054 37.440000000000005  22.008 37.212  21.918 37.102000000000004  C 21.828 36.992000000000004  21.634 36.938  21.338 36.938  Z " stroke-width="0" stroke-dasharray="0" stroke="rgba(255, 255, 255, 0)" fill="none" class="stroke" mask="url(#Clip6803)" />
    <path d="M 18.816000000000003 13.687999999999999  L 18.816 16.466  C 18.816 16.994  18.782 17.434  18.712 17.788  C 18.64 18.142  18.526 18.428  18.364 18.648  C 18.20494357529694 18.864131142804524  17.98271816027033 19.025559038625744  17.728 19.11  C 17.41284320391149 19.207791933105494  17.083889998717275 19.253723797485794  16.754 19.246  L 15.174000000000003 19.246  L 15.174000000000003 10.905999999999999  L 16.754 10.905999999999999  C 17.486 10.905999999999999  18.014000000000003 11.126  18.334000000000003 11.553999999999998  C 18.654000000000003 11.983999999999998  18.816000000000003 12.695999999999998  18.816000000000003 13.687999999999999  Z " stroke-width="0" stroke-dasharray="0" stroke="rgba(255, 255, 255, 0)" fill="none" class="stroke" mask="url(#Clip6803)" />
    <path d="M 21.574 10.887999999999998  L 21.576 10.888000000000002  C 21.126 9.974000000000002  20.51 9.298000000000002  19.734 8.862000000000002  C 18.954 8.424000000000001  17.974 8.206000000000001  16.794 8.206000000000001  L 12.836000000000002 8.206000000000001  C 12.502 8.206000000000001  12.280000000000001 8.254000000000001  12.17 8.350000000000001  C 12.061999999999998 8.448000000000002  12.006 8.644000000000002  12 8.938  L 12 21.214  C 12.006 21.509999999999998  12.061999999999998 21.706  12.17 21.804  C 12.279999999999998 21.9  12.502 21.947999999999997  12.836000000000002 21.947999999999997  L 17.272 21.947999999999997  C 19.368 21.947999999999997  20.802 21.054  21.572 19.263999999999996  C 21.752 18.853999999999996  21.878 18.437999999999995  21.948 18.019999999999996  C 22.027125989683316 17.493141618995683  22.06324519803417 16.960717732934892  22.056 16.427999999999997  L 22.056 13.822  C 22.056 13.088000000000001  22.02 12.51  21.948 12.086000000000002  C 21.87984884117002 11.661326909685531  21.749799035810735 11.2489409983908  21.562 10.861999999999998  L 21.574 10.887999999999998  Z " stroke-width="0" stroke-dasharray="0" stroke="rgba(255, 255, 255, 0)" fill="none" class="stroke" mask="url(#Clip6803)" />
  </g>
</svg>