<?xml version="1.0" encoding="utf-8"?>
<svg version="1.1" xmlns:xlink="http://www.w3.org/1999/xlink" width="20px" height="18px" xmlns="http://www.w3.org/2000/svg">
  <defs>
    <pattern id="BGPattern" patternUnits="userSpaceOnUse" alignment="0 0" imageRepeat="None" />
    <mask fill="white" id="Clip6304">
      <path d="M 9 0.75  C 9 0.3357864376269051  9.335786437626904 0  9.75 0  C 10.164213562373096 0  10.5 0.3357864376269051  10.5 0.75  L 10.5 17.25  C 10.5 17.664213562373096  10.164213562373096 18  9.75 18  C 9.335786437626904 18  9 17.664213562373096  9 17.25  L 9 0.75  Z M 6 3.75  C 6 3.335786437626905  6.335786437626904 3  6.75 3  C 7.164213562373096 3  7.5 3.335786437626905  7.5 3.75  L 7.5 14.25  C 7.5 14.664213562373096  7.164213562373096 15  6.75 15  C 6.335786437626904 15  6 14.664213562373096  6 14.25  L 6 3.75  Z M 12 3.75  C 12 3.335786437626905  12.335786437626904 3  12.75 3  C 13.164213562373096 3  13.5 3.335786437626905  13.5 3.75  L 13.5 14.25  C 13.5 14.664213562373096  13.164213562373096 15  12.75 15  C 12.335786437626904 15  12 14.664213562373096  12 14.25  L 12 3.75  Z M 3 6  C 3 5.585786437626904  3.335786437626905 5.25  3.75 5.25  C 4.164213562373095 5.25  4.5 5.585786437626904  4.5 6  L 4.5 12  C 4.5 12.414213562373096  4.164213562373095 12.75  3.75 12.75  C 3.335786437626905 12.75  3 12.414213562373096  3 12  L 3 6  Z M 15 6  C 15 5.585786437626904  15.335786437626904 5.25  15.75 5.25  C 16.164213562373096 5.25  16.5 5.585786437626904  16.5 6  L 16.5 12  C 16.5 12.414213562373096  16.164213562373096 12.75  15.75 12.75  C 15.335786437626904 12.75  15 12.414213562373096  15 12  L 15 6  Z M 0 7.5  C 0 7.085786437626904  0.3357864376269051 6.75  0.75 6.75  C 1.164213562373095 6.75  1.5 7.085786437626904  1.5 7.5  L 1.5 10.5  C 1.5 10.914213562373096  1.164213562373095 11.25  0.75 11.25  C 0.3357864376269051 11.25  0 10.914213562373096  0 10.5  L 0 7.5  Z M 18 7.5  C 18 7.085786437626904  18.335786437626904 6.75  18.75 6.75  C 19.164213562373096 6.75  19.5 7.085786437626904  19.5 7.5  L 19.5 10.5  C 19.5 10.914213562373096  19.164213562373096 11.25  18.75 11.25  C 18.335786437626904 11.25  18 10.914213562373096  18 10.5  L 18 7.5  Z " fill-rule="evenodd" />
    </mask>
  </defs>
  <g>
    <path d="M 9 0.75  C 9 0.3357864376269051  9.335786437626904 0  9.75 0  C 10.164213562373096 0  10.5 0.3357864376269051  10.5 0.75  L 10.5 17.25  C 10.5 17.664213562373096  10.164213562373096 18  9.75 18  C 9.335786437626904 18  9 17.664213562373096  9 17.25  L 9 0.75  Z M 6 3.75  C 6 3.335786437626905  6.335786437626904 3  6.75 3  C 7.164213562373096 3  7.5 3.335786437626905  7.5 3.75  L 7.5 14.25  C 7.5 14.664213562373096  7.164213562373096 15  6.75 15  C 6.335786437626904 15  6 14.664213562373096  6 14.25  L 6 3.75  Z M 12 3.75  C 12 3.335786437626905  12.335786437626904 3  12.75 3  C 13.164213562373096 3  13.5 3.335786437626905  13.5 3.75  L 13.5 14.25  C 13.5 14.664213562373096  13.164213562373096 15  12.75 15  C 12.335786437626904 15  12 14.664213562373096  12 14.25  L 12 3.75  Z M 3 6  C 3 5.585786437626904  3.335786437626905 5.25  3.75 5.25  C 4.164213562373095 5.25  4.5 5.585786437626904  4.5 6  L 4.5 12  C 4.5 12.414213562373096  4.164213562373095 12.75  3.75 12.75  C 3.335786437626905 12.75  3 12.414213562373096  3 12  L 3 6  Z M 15 6  C 15 5.585786437626904  15.335786437626904 5.25  15.75 5.25  C 16.164213562373096 5.25  16.5 5.585786437626904  16.5 6  L 16.5 12  C 16.5 12.414213562373096  16.164213562373096 12.75  15.75 12.75  C 15.335786437626904 12.75  15 12.414213562373096  15 12  L 15 6  Z M 0 7.5  C 0 7.085786437626904  0.3357864376269051 6.75  0.75 6.75  C 1.164213562373095 6.75  1.5 7.085786437626904  1.5 7.5  L 1.5 10.5  C 1.5 10.914213562373096  1.164213562373095 11.25  0.75 11.25  C 0.3357864376269051 11.25  0 10.914213562373096  0 10.5  L 0 7.5  Z M 18 7.5  C 18 7.085786437626904  18.335786437626904 6.75  18.75 6.75  C 19.164213562373096 6.75  19.5 7.085786437626904  19.5 7.5  L 19.5 10.5  C 19.5 10.914213562373096  19.164213562373096 11.25  18.75 11.25  C 18.335786437626904 11.25  18 10.914213562373096  18 10.5  L 18 7.5  Z " fill-rule="nonzero" fill="rgba(0, 0, 0, 1)" stroke="none" class="fill" />
    <path d="M 9 0.75  C 9 0.3357864376269051  9.335786437626904 0  9.75 0  C 10.164213562373096 0  10.5 0.3357864376269051  10.5 0.75  L 10.5 17.25  C 10.5 17.664213562373096  10.164213562373096 18  9.75 18  C 9.335786437626904 18  9 17.664213562373096  9 17.25  L 9 0.75  Z " stroke-width="0" stroke-dasharray="0" stroke="rgba(255, 255, 255, 0)" fill="none" class="stroke" mask="url(#Clip6304)" />
    <path d="M 6 3.75  C 6 3.335786437626905  6.335786437626904 3  6.75 3  C 7.164213562373096 3  7.5 3.335786437626905  7.5 3.75  L 7.5 14.25  C 7.5 14.664213562373096  7.164213562373096 15  6.75 15  C 6.335786437626904 15  6 14.664213562373096  6 14.25  L 6 3.75  Z " stroke-width="0" stroke-dasharray="0" stroke="rgba(255, 255, 255, 0)" fill="none" class="stroke" mask="url(#Clip6304)" />
    <path d="M 12 3.75  C 12 3.335786437626905  12.335786437626904 3  12.75 3  C 13.164213562373096 3  13.5 3.335786437626905  13.5 3.75  L 13.5 14.25  C 13.5 14.664213562373096  13.164213562373096 15  12.75 15  C 12.335786437626904 15  12 14.664213562373096  12 14.25  L 12 3.75  Z " stroke-width="0" stroke-dasharray="0" stroke="rgba(255, 255, 255, 0)" fill="none" class="stroke" mask="url(#Clip6304)" />
    <path d="M 3 6  C 3 5.585786437626904  3.335786437626905 5.25  3.75 5.25  C 4.164213562373095 5.25  4.5 5.585786437626904  4.5 6  L 4.5 12  C 4.5 12.414213562373096  4.164213562373095 12.75  3.75 12.75  C 3.335786437626905 12.75  3 12.414213562373096  3 12  L 3 6  Z " stroke-width="0" stroke-dasharray="0" stroke="rgba(255, 255, 255, 0)" fill="none" class="stroke" mask="url(#Clip6304)" />
    <path d="M 15 6  C 15 5.585786437626904  15.335786437626904 5.25  15.75 5.25  C 16.164213562373096 5.25  16.5 5.585786437626904  16.5 6  L 16.5 12  C 16.5 12.414213562373096  16.164213562373096 12.75  15.75 12.75  C 15.335786437626904 12.75  15 12.414213562373096  15 12  L 15 6  Z " stroke-width="0" stroke-dasharray="0" stroke="rgba(255, 255, 255, 0)" fill="none" class="stroke" mask="url(#Clip6304)" />
    <path d="M 0 7.5  C 0 7.085786437626904  0.3357864376269051 6.75  0.75 6.75  C 1.164213562373095 6.75  1.5 7.085786437626904  1.5 7.5  L 1.5 10.5  C 1.5 10.914213562373096  1.164213562373095 11.25  0.75 11.25  C 0.3357864376269051 11.25  0 10.914213562373096  0 10.5  L 0 7.5  Z " stroke-width="0" stroke-dasharray="0" stroke="rgba(255, 255, 255, 0)" fill="none" class="stroke" mask="url(#Clip6304)" />
    <path d="M 18 7.5  C 18 7.085786437626904  18.335786437626904 6.75  18.75 6.75  C 19.164213562373096 6.75  19.5 7.085786437626904  19.5 7.5  L 19.5 10.5  C 19.5 10.914213562373096  19.164213562373096 11.25  18.75 11.25  C 18.335786437626904 11.25  18 10.914213562373096  18 10.5  L 18 7.5  Z " stroke-width="0" stroke-dasharray="0" stroke="rgba(255, 255, 255, 0)" fill="none" class="stroke" mask="url(#Clip6304)" />
  </g>
</svg>