<?xml version="1.0" encoding="utf-8"?>
<svg version="1.1" xmlns:xlink="http://www.w3.org/1999/xlink" width="20px" height="26px" xmlns="http://www.w3.org/2000/svg">
  <defs>
    <pattern id="BGPattern" patternUnits="userSpaceOnUse" alignment="0 0" imageRepeat="None" />
    <mask fill="white" id="Clip238">
      <path d="M 16.336000000000002 25.8  L 3.6639999999999997 25.8  C 1.7759999999999998 25.8  0.40000000000000036 24.424  0.40000000000000036 22.536  L 0.40000000000000036 3.464000000000002  C 0.40000000000000036 1.5760000000000023  1.7759999999999998 0.2000000000000024  3.6639999999999997 0.2000000000000024  L 11.472000000000001 0.2000000000000024  C 12.608 0.2000000000000024  13.632000000000001 0.6160000000000023  14.432000000000002 1.4480000000000022  L 18.432000000000002 5.544000000000002  C 19.200000000000003 6.344000000000003  19.6 7.320000000000002  19.6 8.424000000000003  L 19.6 22.536  C 19.6 24.424  18.224 25.8  16.336000000000002 25.8  Z M 2 22.535999999999998  C 2.0000000000000018 23.543999999999997  2.6560000000000024 24.2  3.6639999999999997 24  L 16.336 24  C 17.343999999999998 24.2  18 23.544  18 22.535999999999998  L 18 8.423999999999998  C 18 7.719999999999996  17.776 7.159999999999998  17.28 6.647999999999998  L 13.280000000000001 2.551999999999998  C 12.784000000000002 2.0399999999999974  12.208000000000002 1.799999999999998  11.472000000000001 1.799999999999998  L 3.6640000000000015 1.799999999999998  C 2.6560000000000024 1.799999999999998  2.0000000000000018 2.4559999999999977  2 3.4639999999999977  L 2 22.535999999999998  Z M 7.968000000000002 19.4  L 6.752000000000001 19.4  L 9.088000000000001 15.783999999999999  L 6.848000000000001 12.36  L 8.144 12.36  C 8.32 12.36  8.384 12.392  8.464 12.52  L 10.064 15.096  L 11.648 12.536  C 11.727999999999998 12.408  11.823999999999998 12.36  11.936 12.36  L 13.184000000000001 12.36  L 10.912000000000003 15.719999999999999  L 13.248000000000001 19.4  L 11.936 19.4  C 11.776 19.4  11.68 19.304  11.600000000000001 19.176  L 9.968000000000002 16.471999999999998  L 8.304000000000002 19.176  C 8.224000000000002 19.319999999999997  8.128000000000002 19.4  7.968000000000002 19.4  Z " fill-rule="evenodd" />
    </mask>
  </defs>
  <g>
    <path d="M 16.336000000000002 25.8  L 3.6639999999999997 25.8  C 1.7759999999999998 25.8  0.40000000000000036 24.424  0.40000000000000036 22.536  L 0.40000000000000036 3.464000000000002  C 0.40000000000000036 1.5760000000000023  1.7759999999999998 0.2000000000000024  3.6639999999999997 0.2000000000000024  L 11.472000000000001 0.2000000000000024  C 12.608 0.2000000000000024  13.632000000000001 0.6160000000000023  14.432000000000002 1.4480000000000022  L 18.432000000000002 5.544000000000002  C 19.200000000000003 6.344000000000003  19.6 7.320000000000002  19.6 8.424000000000003  L 19.6 22.536  C 19.6 24.424  18.224 25.8  16.336000000000002 25.8  Z M 2 22.535999999999998  C 2.0000000000000018 23.543999999999997  2.6560000000000024 24.2  3.6639999999999997 24  L 16.336 24  C 17.343999999999998 24.2  18 23.544  18 22.535999999999998  L 18 8.423999999999998  C 18 7.719999999999996  17.776 7.159999999999998  17.28 6.647999999999998  L 13.280000000000001 2.551999999999998  C 12.784000000000002 2.0399999999999974  12.208000000000002 1.799999999999998  11.472000000000001 1.799999999999998  L 3.6640000000000015 1.799999999999998  C 2.6560000000000024 1.799999999999998  2.0000000000000018 2.4559999999999977  2 3.4639999999999977  L 2 22.535999999999998  Z M 7.968000000000002 19.4  L 6.752000000000001 19.4  L 9.088000000000001 15.783999999999999  L 6.848000000000001 12.36  L 8.144 12.36  C 8.32 12.36  8.384 12.392  8.464 12.52  L 10.064 15.096  L 11.648 12.536  C 11.727999999999998 12.408  11.823999999999998 12.36  11.936 12.36  L 13.184000000000001 12.36  L 10.912000000000003 15.719999999999999  L 13.248000000000001 19.4  L 11.936 19.4  C 11.776 19.4  11.68 19.304  11.600000000000001 19.176  L 9.968000000000002 16.471999999999998  L 8.304000000000002 19.176  C 8.224000000000002 19.319999999999997  8.128000000000002 19.4  7.968000000000002 19.4  Z " fill-rule="nonzero" fill="rgba(0, 0, 0, 1)" stroke="none" class="fill" />
    <path d="M 16.336000000000002 25.8  L 3.6639999999999997 25.8  C 1.7759999999999998 25.8  0.40000000000000036 24.424  0.40000000000000036 22.536  L 0.40000000000000036 3.464000000000002  C 0.40000000000000036 1.5760000000000023  1.7759999999999998 0.2000000000000024  3.6639999999999997 0.2000000000000024  L 11.472000000000001 0.2000000000000024  C 12.608 0.2000000000000024  13.632000000000001 0.6160000000000023  14.432000000000002 1.4480000000000022  L 18.432000000000002 5.544000000000002  C 19.200000000000003 6.344000000000003  19.6 7.320000000000002  19.6 8.424000000000003  L 19.6 22.536  C 19.6 24.424  18.224 25.8  16.336000000000002 25.8  Z " stroke-width="0" stroke-dasharray="0" stroke="rgba(255, 255, 255, 0)" fill="none" class="stroke" mask="url(#Clip238)" />
    <path d="M 2 22.535999999999998  C 2.0000000000000018 23.543999999999997  2.6560000000000024 24.2  3.6639999999999997 24  L 16.336 24  C 17.343999999999998 24.2  18 23.544  18 22.535999999999998  L 18 8.423999999999998  C 18 7.719999999999996  17.776 7.159999999999998  17.28 6.647999999999998  L 13.280000000000001 2.551999999999998  C 12.784000000000002 2.0399999999999974  12.208000000000002 1.799999999999998  11.472000000000001 1.799999999999998  L 3.6640000000000015 1.799999999999998  C 2.6560000000000024 1.799999999999998  2.0000000000000018 2.4559999999999977  2 3.4639999999999977  L 2 22.535999999999998  Z " stroke-width="0" stroke-dasharray="0" stroke="rgba(255, 255, 255, 0)" fill="none" class="stroke" mask="url(#Clip238)" />
    <path d="M 7.968000000000002 19.4  L 6.752000000000001 19.4  L 9.088000000000001 15.783999999999999  L 6.848000000000001 12.36  L 8.144 12.36  C 8.32 12.36  8.384 12.392  8.464 12.52  L 10.064 15.096  L 11.648 12.536  C 11.727999999999998 12.408  11.823999999999998 12.36  11.936 12.36  L 13.184000000000001 12.36  L 10.912000000000003 15.719999999999999  L 13.248000000000001 19.4  L 11.936 19.4  C 11.776 19.4  11.68 19.304  11.600000000000001 19.176  L 9.968000000000002 16.471999999999998  L 8.304000000000002 19.176  C 8.224000000000002 19.319999999999997  8.128000000000002 19.4  7.968000000000002 19.4  Z " stroke-width="0" stroke-dasharray="0" stroke="rgba(255, 255, 255, 0)" fill="none" class="stroke" mask="url(#Clip238)" />
  </g>
</svg>