<?xml version="1.0" encoding="utf-8"?>
<svg version="1.1" xmlns:xlink="http://www.w3.org/1999/xlink" width="64px" height="60px" xmlns="http://www.w3.org/2000/svg">
  <defs>
    <pattern id="BGPattern" patternUnits="userSpaceOnUse" alignment="0 0" imageRepeat="None" />
    <mask fill="white" id="Clip1371">
      <path d="M 52 32.800000000000004  C 44.27375 32.800000000000004  37.81 27.293750000000003  36.32375 20  C 33.801249999999996 20  22.971249999999998 20.2475  16 30.743749999999995  L 16 20  C 15.999999999999996 13.3825  10.617499999999996 8  3.9999999999999964 8  C 1.7912499999999962 8  0 9.79125  0 12  C 0 14.208750000000002  1.7912499999999965 16  3.9999999999999964 16  C 6.2049999999999965 16  7.9999999999999964 17.795  8 20  L 8 52  C 7.9999999999999964 56.4125  11.587499999999997 60  15.999999999999996 60  L 38 60  C 39.105 60  40 59.105  40 58  L 40 56  C 40 53.79125  38.20875 52  36 52  L 32 52  L 48 40  L 48 58  C 48 59.105  48.895 60  50 60  L 54 60  C 55.105 60  56 59.105  56 58  L 56 32.2325  C 54.71375 32.566250000000004  53.38875 32.800000000000004  52 32.800000000000004  Z M 64 0  L 56 8  L 48 8  L 40 0  L 40 16.8  C 40 23.427500000000002  45.3725 28.799999999999997  52 28.799999999999997  C 58.6275 28.799999999999997  64 23.4275  64 16.799999999999997  L 64 0  Z M 49 16  C 49 17.105  48.105 18  47 18  C 45.895 18  45 17.105  45 16  C 45 14.895  45.895 14  47 14  C 48.105 14  49 14.895  49 16  Z M 59 16  C 59 17.105  58.105 18  57 18  C 55.895 18  55 17.105  55 16  C 55 14.895  55.895 14  57 14  C 58.105 14  59 14.895  59 16  Z " fill-rule="evenodd" />
    </mask>
  </defs>
  <g>
    <path d="M 52 32.800000000000004  C 44.27375 32.800000000000004  37.81 27.293750000000003  36.32375 20  C 33.801249999999996 20  22.971249999999998 20.2475  16 30.743749999999995  L 16 20  C 15.999999999999996 13.3825  10.617499999999996 8  3.9999999999999964 8  C 1.7912499999999962 8  0 9.79125  0 12  C 0 14.208750000000002  1.7912499999999965 16  3.9999999999999964 16  C 6.2049999999999965 16  7.9999999999999964 17.795  8 20  L 8 52  C 7.9999999999999964 56.4125  11.587499999999997 60  15.999999999999996 60  L 38 60  C 39.105 60  40 59.105  40 58  L 40 56  C 40 53.79125  38.20875 52  36 52  L 32 52  L 48 40  L 48 58  C 48 59.105  48.895 60  50 60  L 54 60  C 55.105 60  56 59.105  56 58  L 56 32.2325  C 54.71375 32.566250000000004  53.38875 32.800000000000004  52 32.800000000000004  Z M 64 0  L 56 8  L 48 8  L 40 0  L 40 16.8  C 40 23.427500000000002  45.3725 28.799999999999997  52 28.799999999999997  C 58.6275 28.799999999999997  64 23.4275  64 16.799999999999997  L 64 0  Z M 49 16  C 49 17.105  48.105 18  47 18  C 45.895 18  45 17.105  45 16  C 45 14.895  45.895 14  47 14  C 48.105 14  49 14.895  49 16  Z M 59 16  C 59 17.105  58.105 18  57 18  C 55.895 18  55 17.105  55 16  C 55 14.895  55.895 14  57 14  C 58.105 14  59 14.895  59 16  Z " fill-rule="nonzero" fill="rgba(0, 0, 0, 1)" stroke="none" class="fill" />
    <path d="M 52 32.800000000000004  C 44.27375 32.800000000000004  37.81 27.293750000000003  36.32375 20  C 33.801249999999996 20  22.971249999999998 20.2475  16 30.743749999999995  L 16 20  C 15.999999999999996 13.3825  10.617499999999996 8  3.9999999999999964 8  C 1.7912499999999962 8  0 9.79125  0 12  C 0 14.208750000000002  1.7912499999999965 16  3.9999999999999964 16  C 6.2049999999999965 16  7.9999999999999964 17.795  8 20  L 8 52  C 7.9999999999999964 56.4125  11.587499999999997 60  15.999999999999996 60  L 38 60  C 39.105 60  40 59.105  40 58  L 40 56  C 40 53.79125  38.20875 52  36 52  L 32 52  L 48 40  L 48 58  C 48 59.105  48.895 60  50 60  L 54 60  C 55.105 60  56 59.105  56 58  L 56 32.2325  C 54.71375 32.566250000000004  53.38875 32.800000000000004  52 32.800000000000004  Z " stroke-width="0" stroke-dasharray="0" stroke="rgba(255, 255, 255, 0)" fill="none" class="stroke" mask="url(#Clip1371)" />
    <path d="M 64 0  L 56 8  L 48 8  L 40 0  L 40 16.8  C 40 23.427500000000002  45.3725 28.799999999999997  52 28.799999999999997  C 58.6275 28.799999999999997  64 23.4275  64 16.799999999999997  L 64 0  Z " stroke-width="0" stroke-dasharray="0" stroke="rgba(255, 255, 255, 0)" fill="none" class="stroke" mask="url(#Clip1371)" />
    <path d="M 49 16  C 49 17.105  48.105 18  47 18  C 45.895 18  45 17.105  45 16  C 45 14.895  45.895 14  47 14  C 48.105 14  49 14.895  49 16  Z " stroke-width="0" stroke-dasharray="0" stroke="rgba(255, 255, 255, 0)" fill="none" class="stroke" mask="url(#Clip1371)" />
    <path d="M 59 16  C 59 17.105  58.105 18  57 18  C 55.895 18  55 17.105  55 16  C 55 14.895  55.895 14  57 14  C 58.105 14  59 14.895  59 16  Z " stroke-width="0" stroke-dasharray="0" stroke="rgba(255, 255, 255, 0)" fill="none" class="stroke" mask="url(#Clip1371)" />
  </g>
</svg>