<?xml version="1.0" encoding="utf-8"?>
<svg version="1.1" xmlns:xlink="http://www.w3.org/1999/xlink" width="43px" height="50px" xmlns="http://www.w3.org/2000/svg">
  <defs>
    <pattern id="BGPattern" patternUnits="userSpaceOnUse" alignment="0 0" imageRepeat="None" />
    <mask fill="white" id="Clip745">
      <path d="M 42.85714285714283 29.24107142857145  C 42.85714285714283 16.707589285714278  33.59375 10.15625  32.087053571428555 9.229910714285722  C 29.609375 7.6674107142857215  27.232142857142833 7.053571428571445  24.866071428571388 5.491071428571445  C 23.415178571428555 4.508928571428555  21.372767857142833 2.142857142857167  19.676339285714278 0.1004464285714448  C 19.375 3.3705357142857224  18.39285714285711 4.698660714285722  17.22098214285711 5.625  C 14.84375 7.522321428571445  13.337053571428555 8.102678571428555  11.25 9.229910714285722  C 9.48660714285711 10.15625  0 16.685267857142833  0 28.85044642857145  C 0 41.037946428571445  10.245535714285722 50  21.629464285714274 50  C 32.979910714285666 50  42.85714285714283 41.741071428571445  42.85714285714283 29.24107142857145  Z M 31.897321428571388 44.62053571428572  C 32.578125 44.10714285714283  32.83482142857139 45.100446428571445  32.36607142857139 45.569196428571445  C 30.122767857142836 47.8125  22.31026785714283 48.772321428571445  19.341517857142833 46.037946428571445  C 18.805803571428555 45.50223214285711  19.375 44.69866071428572  20.066964285714278 44.69866071428572  C 20.066964285714278 44.69866071428572  21.964285714285722 46.18303571428572  25.81473214285711 46.18303571428572  C 28.828125 46.18303571428572  30.948660714285722 45.32366071428572  31.897321428571388 44.62053571428572  Z M 23.78348214285711 42.48883928571428  C 23.113839285714278 41.57366071428572  25.558035714285722 40  26.28348214285711 39.69866071428572  C 27.254464285714278 39.296875  29.520089285714278 39.274553571428555  30.390624999999996 39.84375  C 30.84821428571428 40.15625  32.1875 41.94196428571428  31.082589285714278 42.48883928571428  C 30.145089285714278 42.95758928571428  30.948660714285722 40.73660714285717  28.125000000000004 40.73660714285717  C 26.484374999999996 40.73660714285717  25.948660714285726 41.31696428571428  25.145089285714278 41.96428571428572  C 24.363839285714278 42.633928571428555  24.051339285714278 42.85714285714283  23.78348214285711 42.48883928571428  Z M 38.370535714285666 29.799107142857167  C 43.80580357142855 29.799107142857167  40.97098214285711 41.99776785714289  36.60714285714283 41.62946428571428  C 34.91071428571428 41.51785714285717  31.529017857142836 36.18303571428572  29.35267857142856 36.10491071428572  C 25.904017857142833 36.00446428571428  17.734375 45.11160714285711  11.350446428571445 40.79241071428572  C 7.0200892857142785 37.82366071428572  9.72098214285711 29.095982142857167  17.131696428571445 29.051339285714278  C 22.65625 28.995535714285726  26.484374999999996 34.52008928571428  29.241071428571388 34.46428571428572  C 31.61830357142856 34.430803571428555  36.13839285714283 29.799107142857167  38.370535714285666 29.799107142857167  Z " fill-rule="evenodd" />
    </mask>
  </defs>
  <g>
    <path d="M 42.85714285714283 29.24107142857145  C 42.85714285714283 16.707589285714278  33.59375 10.15625  32.087053571428555 9.229910714285722  C 29.609375 7.6674107142857215  27.232142857142833 7.053571428571445  24.866071428571388 5.491071428571445  C 23.415178571428555 4.508928571428555  21.372767857142833 2.142857142857167  19.676339285714278 0.1004464285714448  C 19.375 3.3705357142857224  18.39285714285711 4.698660714285722  17.22098214285711 5.625  C 14.84375 7.522321428571445  13.337053571428555 8.102678571428555  11.25 9.229910714285722  C 9.48660714285711 10.15625  0 16.685267857142833  0 28.85044642857145  C 0 41.037946428571445  10.245535714285722 50  21.629464285714274 50  C 32.979910714285666 50  42.85714285714283 41.741071428571445  42.85714285714283 29.24107142857145  Z M 31.897321428571388 44.62053571428572  C 32.578125 44.10714285714283  32.83482142857139 45.100446428571445  32.36607142857139 45.569196428571445  C 30.122767857142836 47.8125  22.31026785714283 48.772321428571445  19.341517857142833 46.037946428571445  C 18.805803571428555 45.50223214285711  19.375 44.69866071428572  20.066964285714278 44.69866071428572  C 20.066964285714278 44.69866071428572  21.964285714285722 46.18303571428572  25.81473214285711 46.18303571428572  C 28.828125 46.18303571428572  30.948660714285722 45.32366071428572  31.897321428571388 44.62053571428572  Z M 23.78348214285711 42.48883928571428  C 23.113839285714278 41.57366071428572  25.558035714285722 40  26.28348214285711 39.69866071428572  C 27.254464285714278 39.296875  29.520089285714278 39.274553571428555  30.390624999999996 39.84375  C 30.84821428571428 40.15625  32.1875 41.94196428571428  31.082589285714278 42.48883928571428  C 30.145089285714278 42.95758928571428  30.948660714285722 40.73660714285717  28.125000000000004 40.73660714285717  C 26.484374999999996 40.73660714285717  25.948660714285726 41.31696428571428  25.145089285714278 41.96428571428572  C 24.363839285714278 42.633928571428555  24.051339285714278 42.85714285714283  23.78348214285711 42.48883928571428  Z M 38.370535714285666 29.799107142857167  C 43.80580357142855 29.799107142857167  40.97098214285711 41.99776785714289  36.60714285714283 41.62946428571428  C 34.91071428571428 41.51785714285717  31.529017857142836 36.18303571428572  29.35267857142856 36.10491071428572  C 25.904017857142833 36.00446428571428  17.734375 45.11160714285711  11.350446428571445 40.79241071428572  C 7.0200892857142785 37.82366071428572  9.72098214285711 29.095982142857167  17.131696428571445 29.051339285714278  C 22.65625 28.995535714285726  26.484374999999996 34.52008928571428  29.241071428571388 34.46428571428572  C 31.61830357142856 34.430803571428555  36.13839285714283 29.799107142857167  38.370535714285666 29.799107142857167  Z " fill-rule="nonzero" fill="rgba(0, 0, 0, 1)" stroke="none" class="fill" />
    <path d="M 42.85714285714283 29.24107142857145  C 42.85714285714283 16.707589285714278  33.59375 10.15625  32.087053571428555 9.229910714285722  C 29.609375 7.6674107142857215  27.232142857142833 7.053571428571445  24.866071428571388 5.491071428571445  C 23.415178571428555 4.508928571428555  21.372767857142833 2.142857142857167  19.676339285714278 0.1004464285714448  C 19.375 3.3705357142857224  18.39285714285711 4.698660714285722  17.22098214285711 5.625  C 14.84375 7.522321428571445  13.337053571428555 8.102678571428555  11.25 9.229910714285722  C 9.48660714285711 10.15625  0 16.685267857142833  0 28.85044642857145  C 0 41.037946428571445  10.245535714285722 50  21.629464285714274 50  C 32.979910714285666 50  42.85714285714283 41.741071428571445  42.85714285714283 29.24107142857145  Z " stroke-width="0" stroke-dasharray="0" stroke="rgba(255, 255, 255, 0)" fill="none" class="stroke" mask="url(#Clip745)" />
    <path d="M 31.897321428571388 44.62053571428572  C 32.578125 44.10714285714283  32.83482142857139 45.100446428571445  32.36607142857139 45.569196428571445  C 30.122767857142836 47.8125  22.31026785714283 48.772321428571445  19.341517857142833 46.037946428571445  C 18.805803571428555 45.50223214285711  19.375 44.69866071428572  20.066964285714278 44.69866071428572  C 20.066964285714278 44.69866071428572  21.964285714285722 46.18303571428572  25.81473214285711 46.18303571428572  C 28.828125 46.18303571428572  30.948660714285722 45.32366071428572  31.897321428571388 44.62053571428572  Z " stroke-width="0" stroke-dasharray="0" stroke="rgba(255, 255, 255, 0)" fill="none" class="stroke" mask="url(#Clip745)" />
    <path d="M 23.78348214285711 42.48883928571428  C 23.113839285714278 41.57366071428572  25.558035714285722 40  26.28348214285711 39.69866071428572  C 27.254464285714278 39.296875  29.520089285714278 39.274553571428555  30.390624999999996 39.84375  C 30.84821428571428 40.15625  32.1875 41.94196428571428  31.082589285714278 42.48883928571428  C 30.145089285714278 42.95758928571428  30.948660714285722 40.73660714285717  28.125000000000004 40.73660714285717  C 26.484374999999996 40.73660714285717  25.948660714285726 41.31696428571428  25.145089285714278 41.96428571428572  C 24.363839285714278 42.633928571428555  24.051339285714278 42.85714285714283  23.78348214285711 42.48883928571428  Z " stroke-width="0" stroke-dasharray="0" stroke="rgba(255, 255, 255, 0)" fill="none" class="stroke" mask="url(#Clip745)" />
    <path d="M 38.370535714285666 29.799107142857167  C 43.80580357142855 29.799107142857167  40.97098214285711 41.99776785714289  36.60714285714283 41.62946428571428  C 34.91071428571428 41.51785714285717  31.529017857142836 36.18303571428572  29.35267857142856 36.10491071428572  C 25.904017857142833 36.00446428571428  17.734375 45.11160714285711  11.350446428571445 40.79241071428572  C 7.0200892857142785 37.82366071428572  9.72098214285711 29.095982142857167  17.131696428571445 29.051339285714278  C 22.65625 28.995535714285726  26.484374999999996 34.52008928571428  29.241071428571388 34.46428571428572  C 31.61830357142856 34.430803571428555  36.13839285714283 29.799107142857167  38.370535714285666 29.799107142857167  Z " stroke-width="0" stroke-dasharray="0" stroke="rgba(255, 255, 255, 0)" fill="none" class="stroke" mask="url(#Clip745)" />
  </g>
</svg>