<?xml version="1.0" encoding="utf-8"?>
<svg version="1.1" xmlns:xlink="http://www.w3.org/1999/xlink" width="50px" height="50px" xmlns="http://www.w3.org/2000/svg">
  <defs>
    <pattern id="BGPattern" patternUnits="userSpaceOnUse" alignment="0 0" imageRepeat="None" />
    <mask fill="white" id="Clip947">
      <path d="M 50 25  C 50 11.189516129032256  38.810483870967744 0  25 0  C 11.189516129032256 0  0 11.189516129032256  0 25  C 0 38.810483870967744  11.189516129032256 50  25 50  C 38.810483870967744 50  50 38.810483870967744  50 25  Z M 30.635080645161285 30.302419354838715  L 40.866935483870975 42.2883064516129  L 31.794354838709694 42.2883064516129  L 20.504032258064512 29.052419354838722  C 18.699596774193537 26.995967741935488  20.110887096774206 23.397177419354847  23.185483870967744 23.397177419354847  L 30.77620967741933 23.397177419354847  L 22.247983870967744 13.387096774193537  L 13.750000000000002 23.356854838709694  L 4.677419354838719 23.356854838709694  L 19.50604838709677 5.967741935483872  C 20.95766129032259 4.112903225806463  23.669354838709694 4.223790322580641  25 5.967741935483872  L 40.89717741935482 24.627016129032256  C 42.8125 26.92540322580646  41.09879032258061 30.393145161290334  38.11491935483872 30.282258064516128  C 38.054435483870975 30.282258064516128  30.635080645161285 30.302419354838715  30.635080645161285 30.302419354838715  Z " fill-rule="evenodd" />
    </mask>
  </defs>
  <g>
    <path d="M 50 25  C 50 11.189516129032256  38.810483870967744 0  25 0  C 11.189516129032256 0  0 11.189516129032256  0 25  C 0 38.810483870967744  11.189516129032256 50  25 50  C 38.810483870967744 50  50 38.810483870967744  50 25  Z M 30.635080645161285 30.302419354838715  L 40.866935483870975 42.2883064516129  L 31.794354838709694 42.2883064516129  L 20.504032258064512 29.052419354838722  C 18.699596774193537 26.995967741935488  20.110887096774206 23.397177419354847  23.185483870967744 23.397177419354847  L 30.77620967741933 23.397177419354847  L 22.247983870967744 13.387096774193537  L 13.750000000000002 23.356854838709694  L 4.677419354838719 23.356854838709694  L 19.50604838709677 5.967741935483872  C 20.95766129032259 4.112903225806463  23.669354838709694 4.223790322580641  25 5.967741935483872  L 40.89717741935482 24.627016129032256  C 42.8125 26.92540322580646  41.09879032258061 30.393145161290334  38.11491935483872 30.282258064516128  C 38.054435483870975 30.282258064516128  30.635080645161285 30.302419354838715  30.635080645161285 30.302419354838715  Z " fill-rule="nonzero" fill="rgba(0, 0, 0, 1)" stroke="none" class="fill" />
    <path d="M 50 25  C 50 11.189516129032256  38.810483870967744 0  25 0  C 11.189516129032256 0  0 11.189516129032256  0 25  C 0 38.810483870967744  11.189516129032256 50  25 50  C 38.810483870967744 50  50 38.810483870967744  50 25  Z " stroke-width="0" stroke-dasharray="0" stroke="rgba(255, 255, 255, 0)" fill="none" class="stroke" mask="url(#Clip947)" />
    <path d="M 30.635080645161285 30.302419354838715  L 40.866935483870975 42.2883064516129  L 31.794354838709694 42.2883064516129  L 20.504032258064512 29.052419354838722  C 18.699596774193537 26.995967741935488  20.110887096774206 23.397177419354847  23.185483870967744 23.397177419354847  L 30.77620967741933 23.397177419354847  L 22.247983870967744 13.387096774193537  L 13.750000000000002 23.356854838709694  L 4.677419354838719 23.356854838709694  L 19.50604838709677 5.967741935483872  C 20.95766129032259 4.112903225806463  23.669354838709694 4.223790322580641  25 5.967741935483872  L 40.89717741935482 24.627016129032256  C 42.8125 26.92540322580646  41.09879032258061 30.393145161290334  38.11491935483872 30.282258064516128  C 38.054435483870975 30.282258064516128  30.635080645161285 30.302419354838715  30.635080645161285 30.302419354838715  Z " stroke-width="0" stroke-dasharray="0" stroke="rgba(255, 255, 255, 0)" fill="none" class="stroke" mask="url(#Clip947)" />
  </g>
</svg>