<?xml version="1.0" encoding="utf-8"?>
<svg version="1.1" xmlns:xlink="http://www.w3.org/1999/xlink" width="20px" height="26px" xmlns="http://www.w3.org/2000/svg">
  <defs>
    <pattern id="BGPattern" patternUnits="userSpaceOnUse" alignment="0 0" imageRepeat="None" />
    <mask fill="white" id="Clip204">
      <path d="M 16.400000000000002 25  L 3.5999999999999996 25  C 1.8399999999999999 25.48  0.39999999999999947 24.04  0.39999999999999947 22.28  L 0.39999999999999947 3.720000000000002  C 0.39999999999999947 1.9600000000000024  1.8399999999999999 0.5200000000000022  3.5999999999999996 0.5200000000000022  L 11.695999999999998 0.5200000000000022  C 12.655999999999999 0.5200000000000022  13.535999999999998 0.9040000000000021  14.207999999999998 1.5920000000000023  L 18.64 6.184000000000001  C 19.264 6.840000000000002  19.6 7.6720000000000015  19.6 8.584000000000001  L 19.6 22.28  C 19.6 24.040000000000003  18.16 25.48  16.400000000000002 25  Z M 2 22.28  C 1.6800000000000015 23.336000000000002  2.5440000000000023 24.200000000000003  3.5999999999999996 24  L 16.4 24  C 17.456 24.2  18.32 23.336  18 22.28  L 18 8.584000000000001  C 18.32 7.992000000000001  18.128 7.496000000000002  17.712 7.064000000000003  L 13.280000000000001 2.488000000000002  C 12.848000000000003 2.024000000000002  12.304000000000002 1.8000000000000027  11.696000000000002 1.8000000000000027  L 3.6000000000000014 1.8000000000000027  C 2.5440000000000005 1.8000000000000027  1.6800000000000015 2.6640000000000024  2 3.720000000000002  L 2 22.28  Z M 15.264 19.4  L 14.079999999999998 19.4  L 14.079999999999998 16.232  L 13.808 16.184  C 13.696000000000002 16.168000000000003  13.52 16.104000000000003  13.52 15.896  L 13.52 15.432  L 14.079999999999998 15.432  C 14.079999999999998 14.376000000000001  14.495999999999999 13.704  15.663999999999998 13.704  C 15.791999999999998 13.704  16.016 13.719999999999999  16.191999999999997 13.783999999999999  L 16.176 14.36  C 16.176 14.455999999999998  16.096 14.567999999999996  15.872 14.567999999999996  C 15.344000000000001 14.567999999999996  15.232 14.791999999999998  15.232 15.431999999999999  L 16.16 15.431999999999999  L 16.16 16.247999999999998  L 15.264 16.247999999999998  L 15.264 19.4  Z M 6.911999999999999 18.104  C 6.911999999999999 18.983999999999998  6.159999999999998 19.464  5.247999999999999 19.464  C 4.831999999999999 19.464  4.128 19.272  3.824 18.968  L 4.096 18.536  C 4.224 18.344  4.432 18.312  4.5760000000000005 18.408  C 4.896000000000001 18.632  4.944000000000001 18.664  5.312000000000001 18.664  C 5.568000000000001 18.664  5.808000000000002 18.536  5.808000000000002 18.312  C 5.808000000000002 17.976000000000003  5.280000000000001 17.928  4.880000000000001 17.768  C 4.32 17.544  3.952 17.304000000000002  3.952 16.616  C 3.952 15.831999999999999  4.5920000000000005 15.367999999999999  5.52 15.367999999999999  C 6.048 15.367999999999999  6.5440000000000005 15.528  6.895999999999999 15.879999999999999  L 6.623999999999999 16.296  C 6.591999999999999 16.328  6.543999999999999 16.424  6.399999999999999 16.424  C 6.223999999999998 16.424  5.903999999999998 16.2  5.535999999999998 16.2  C 5.343999999999998 16.2  5.071999999999997 16.264  5.071999999999997 16.52  C 5.071999999999997 16.791999999999998  5.503999999999998 16.904  5.999999999999998 17.048  C 6.463999999999999 17.176  6.911999999999999 17.528  6.911999999999999 18.104  Z M 9.280000000000001 19.4  L 8.368 19.4  L 7.136000000000001 15.415999999999997  L 8.080000000000002 15.415999999999997  C 8.224000000000002 15.415999999999997  8.384000000000002 15.479999999999997  8.416000000000002 15.623999999999997  L 8.800000000000002 17.415999999999997  C 8.848000000000003 17.623999999999995  8.928000000000003 17.959999999999997  8.960000000000003 18.183999999999997  C 9.008000000000003 17.944  9.168000000000003 17.479999999999997  9.184000000000003 17.415999999999997  L 9.696000000000003 15.623999999999997  C 9.728000000000003 15.495999999999997  9.888000000000003 15.415999999999997  10.000000000000004 15.415999999999997  L 10.528000000000002 15.415999999999997  C 10.688000000000002 15.415999999999997  10.832 15.495999999999997  10.864 15.623999999999997  L 11.344000000000001 17.415999999999997  C 11.424 17.735999999999997  11.52 18.055999999999997  11.552 18.199999999999996  C 11.567999999999998 18.071999999999996  11.616 17.783999999999995  11.712 17.415999999999997  L 12.143999999999998 15.623999999999997  C 12.175999999999998 15.511999999999999  12.319999999999997 15.415999999999997  12.447999999999997 15.415999999999997  L 13.359999999999996 15.415999999999997  L 12.127999999999997 19.4  L 11.151999999999997 19.4  C 11.023999999999997 19.4  10.975999999999999 19.304  10.943999999999999 19.192  L 10.384 17.224  C 10.352 17.112000000000002  10.256 16.792  10.240000000000002 16.696  C 10.208000000000002 16.856  10.176000000000002 17.032  10.112000000000002 17.224  L 9.536000000000001 19.192  C 9.488000000000001 19.336  9.408000000000001 19.4  9.280000000000001 19.4  Z " fill-rule="evenodd" />
    </mask>
  </defs>
  <g>
    <path d="M 16.400000000000002 25  L 3.5999999999999996 25  C 1.8399999999999999 25.48  0.39999999999999947 24.04  0.39999999999999947 22.28  L 0.39999999999999947 3.720000000000002  C 0.39999999999999947 1.9600000000000024  1.8399999999999999 0.5200000000000022  3.5999999999999996 0.5200000000000022  L 11.695999999999998 0.5200000000000022  C 12.655999999999999 0.5200000000000022  13.535999999999998 0.9040000000000021  14.207999999999998 1.5920000000000023  L 18.64 6.184000000000001  C 19.264 6.840000000000002  19.6 7.6720000000000015  19.6 8.584000000000001  L 19.6 22.28  C 19.6 24.040000000000003  18.16 25.48  16.400000000000002 25  Z M 2 22.28  C 1.6800000000000015 23.336000000000002  2.5440000000000023 24.200000000000003  3.5999999999999996 24  L 16.4 24  C 17.456 24.2  18.32 23.336  18 22.28  L 18 8.584000000000001  C 18.32 7.992000000000001  18.128 7.496000000000002  17.712 7.064000000000003  L 13.280000000000001 2.488000000000002  C 12.848000000000003 2.024000000000002  12.304000000000002 1.8000000000000027  11.696000000000002 1.8000000000000027  L 3.6000000000000014 1.8000000000000027  C 2.5440000000000005 1.8000000000000027  1.6800000000000015 2.6640000000000024  2 3.720000000000002  L 2 22.28  Z M 15.264 19.4  L 14.079999999999998 19.4  L 14.079999999999998 16.232  L 13.808 16.184  C 13.696000000000002 16.168000000000003  13.52 16.104000000000003  13.52 15.896  L 13.52 15.432  L 14.079999999999998 15.432  C 14.079999999999998 14.376000000000001  14.495999999999999 13.704  15.663999999999998 13.704  C 15.791999999999998 13.704  16.016 13.719999999999999  16.191999999999997 13.783999999999999  L 16.176 14.36  C 16.176 14.455999999999998  16.096 14.567999999999996  15.872 14.567999999999996  C 15.344000000000001 14.567999999999996  15.232 14.791999999999998  15.232 15.431999999999999  L 16.16 15.431999999999999  L 16.16 16.247999999999998  L 15.264 16.247999999999998  L 15.264 19.4  Z M 6.911999999999999 18.104  C 6.911999999999999 18.983999999999998  6.159999999999998 19.464  5.247999999999999 19.464  C 4.831999999999999 19.464  4.128 19.272  3.824 18.968  L 4.096 18.536  C 4.224 18.344  4.432 18.312  4.5760000000000005 18.408  C 4.896000000000001 18.632  4.944000000000001 18.664  5.312000000000001 18.664  C 5.568000000000001 18.664  5.808000000000002 18.536  5.808000000000002 18.312  C 5.808000000000002 17.976000000000003  5.280000000000001 17.928  4.880000000000001 17.768  C 4.32 17.544  3.952 17.304000000000002  3.952 16.616  C 3.952 15.831999999999999  4.5920000000000005 15.367999999999999  5.52 15.367999999999999  C 6.048 15.367999999999999  6.5440000000000005 15.528  6.895999999999999 15.879999999999999  L 6.623999999999999 16.296  C 6.591999999999999 16.328  6.543999999999999 16.424  6.399999999999999 16.424  C 6.223999999999998 16.424  5.903999999999998 16.2  5.535999999999998 16.2  C 5.343999999999998 16.2  5.071999999999997 16.264  5.071999999999997 16.52  C 5.071999999999997 16.791999999999998  5.503999999999998 16.904  5.999999999999998 17.048  C 6.463999999999999 17.176  6.911999999999999 17.528  6.911999999999999 18.104  Z M 9.280000000000001 19.4  L 8.368 19.4  L 7.136000000000001 15.415999999999997  L 8.080000000000002 15.415999999999997  C 8.224000000000002 15.415999999999997  8.384000000000002 15.479999999999997  8.416000000000002 15.623999999999997  L 8.800000000000002 17.415999999999997  C 8.848000000000003 17.623999999999995  8.928000000000003 17.959999999999997  8.960000000000003 18.183999999999997  C 9.008000000000003 17.944  9.168000000000003 17.479999999999997  9.184000000000003 17.415999999999997  L 9.696000000000003 15.623999999999997  C 9.728000000000003 15.495999999999997  9.888000000000003 15.415999999999997  10.000000000000004 15.415999999999997  L 10.528000000000002 15.415999999999997  C 10.688000000000002 15.415999999999997  10.832 15.495999999999997  10.864 15.623999999999997  L 11.344000000000001 17.415999999999997  C 11.424 17.735999999999997  11.52 18.055999999999997  11.552 18.199999999999996  C 11.567999999999998 18.071999999999996  11.616 17.783999999999995  11.712 17.415999999999997  L 12.143999999999998 15.623999999999997  C 12.175999999999998 15.511999999999999  12.319999999999997 15.415999999999997  12.447999999999997 15.415999999999997  L 13.359999999999996 15.415999999999997  L 12.127999999999997 19.4  L 11.151999999999997 19.4  C 11.023999999999997 19.4  10.975999999999999 19.304  10.943999999999999 19.192  L 10.384 17.224  C 10.352 17.112000000000002  10.256 16.792  10.240000000000002 16.696  C 10.208000000000002 16.856  10.176000000000002 17.032  10.112000000000002 17.224  L 9.536000000000001 19.192  C 9.488000000000001 19.336  9.408000000000001 19.4  9.280000000000001 19.4  Z " fill-rule="nonzero" fill="rgba(0, 0, 0, 1)" stroke="none" class="fill" />
    <path d="M 16.400000000000002 25  L 3.5999999999999996 25  C 1.8399999999999999 25.48  0.39999999999999947 24.04  0.39999999999999947 22.28  L 0.39999999999999947 3.720000000000002  C 0.39999999999999947 1.9600000000000024  1.8399999999999999 0.5200000000000022  3.5999999999999996 0.5200000000000022  L 11.695999999999998 0.5200000000000022  C 12.655999999999999 0.5200000000000022  13.535999999999998 0.9040000000000021  14.207999999999998 1.5920000000000023  L 18.64 6.184000000000001  C 19.264 6.840000000000002  19.6 7.6720000000000015  19.6 8.584000000000001  L 19.6 22.28  C 19.6 24.040000000000003  18.16 25.48  16.400000000000002 25  Z " stroke-width="0" stroke-dasharray="0" stroke="rgba(255, 255, 255, 0)" fill="none" class="stroke" mask="url(#Clip204)" />
    <path d="M 2 22.28  C 1.6800000000000015 23.336000000000002  2.5440000000000023 24.200000000000003  3.5999999999999996 24  L 16.4 24  C 17.456 24.2  18.32 23.336  18 22.28  L 18 8.584000000000001  C 18.32 7.992000000000001  18.128 7.496000000000002  17.712 7.064000000000003  L 13.280000000000001 2.488000000000002  C 12.848000000000003 2.024000000000002  12.304000000000002 1.8000000000000027  11.696000000000002 1.8000000000000027  L 3.6000000000000014 1.8000000000000027  C 2.5440000000000005 1.8000000000000027  1.6800000000000015 2.6640000000000024  2 3.720000000000002  L 2 22.28  Z " stroke-width="0" stroke-dasharray="0" stroke="rgba(255, 255, 255, 0)" fill="none" class="stroke" mask="url(#Clip204)" />
    <path d="M 15.264 19.4  L 14.079999999999998 19.4  L 14.079999999999998 16.232  L 13.808 16.184  C 13.696000000000002 16.168000000000003  13.52 16.104000000000003  13.52 15.896  L 13.52 15.432  L 14.079999999999998 15.432  C 14.079999999999998 14.376000000000001  14.495999999999999 13.704  15.663999999999998 13.704  C 15.791999999999998 13.704  16.016 13.719999999999999  16.191999999999997 13.783999999999999  L 16.176 14.36  C 16.176 14.455999999999998  16.096 14.567999999999996  15.872 14.567999999999996  C 15.344000000000001 14.567999999999996  15.232 14.791999999999998  15.232 15.431999999999999  L 16.16 15.431999999999999  L 16.16 16.247999999999998  L 15.264 16.247999999999998  L 15.264 19.4  Z " stroke-width="0" stroke-dasharray="0" stroke="rgba(255, 255, 255, 0)" fill="none" class="stroke" mask="url(#Clip204)" />
    <path d="M 6.911999999999999 18.104  C 6.911999999999999 18.983999999999998  6.159999999999998 19.464  5.247999999999999 19.464  C 4.831999999999999 19.464  4.128 19.272  3.824 18.968  L 4.096 18.536  C 4.224 18.344  4.432 18.312  4.5760000000000005 18.408  C 4.896000000000001 18.632  4.944000000000001 18.664  5.312000000000001 18.664  C 5.568000000000001 18.664  5.808000000000002 18.536  5.808000000000002 18.312  C 5.808000000000002 17.976000000000003  5.280000000000001 17.928  4.880000000000001 17.768  C 4.32 17.544  3.952 17.304000000000002  3.952 16.616  C 3.952 15.831999999999999  4.5920000000000005 15.367999999999999  5.52 15.367999999999999  C 6.048 15.367999999999999  6.5440000000000005 15.528  6.895999999999999 15.879999999999999  L 6.623999999999999 16.296  C 6.591999999999999 16.328  6.543999999999999 16.424  6.399999999999999 16.424  C 6.223999999999998 16.424  5.903999999999998 16.2  5.535999999999998 16.2  C 5.343999999999998 16.2  5.071999999999997 16.264  5.071999999999997 16.52  C 5.071999999999997 16.791999999999998  5.503999999999998 16.904  5.999999999999998 17.048  C 6.463999999999999 17.176  6.911999999999999 17.528  6.911999999999999 18.104  Z " stroke-width="0" stroke-dasharray="0" stroke="rgba(255, 255, 255, 0)" fill="none" class="stroke" mask="url(#Clip204)" />
    <path d="M 9.280000000000001 19.4  L 8.368 19.4  L 7.136000000000001 15.415999999999997  L 8.080000000000002 15.415999999999997  C 8.224000000000002 15.415999999999997  8.384000000000002 15.479999999999997  8.416000000000002 15.623999999999997  L 8.800000000000002 17.415999999999997  C 8.848000000000003 17.623999999999995  8.928000000000003 17.959999999999997  8.960000000000003 18.183999999999997  C 9.008000000000003 17.944  9.168000000000003 17.479999999999997  9.184000000000003 17.415999999999997  L 9.696000000000003 15.623999999999997  C 9.728000000000003 15.495999999999997  9.888000000000003 15.415999999999997  10.000000000000004 15.415999999999997  L 10.528000000000002 15.415999999999997  C 10.688000000000002 15.415999999999997  10.832 15.495999999999997  10.864 15.623999999999997  L 11.344000000000001 17.415999999999997  C 11.424 17.735999999999997  11.52 18.055999999999997  11.552 18.199999999999996  C 11.567999999999998 18.071999999999996  11.616 17.783999999999995  11.712 17.415999999999997  L 12.143999999999998 15.623999999999997  C 12.175999999999998 15.511999999999999  12.319999999999997 15.415999999999997  12.447999999999997 15.415999999999997  L 13.359999999999996 15.415999999999997  L 12.127999999999997 19.4  L 11.151999999999997 19.4  C 11.023999999999997 19.4  10.975999999999999 19.304  10.943999999999999 19.192  L 10.384 17.224  C 10.352 17.112000000000002  10.256 16.792  10.240000000000002 16.696  C 10.208000000000002 16.856  10.176000000000002 17.032  10.112000000000002 17.224  L 9.536000000000001 19.192  C 9.488000000000001 19.336  9.408000000000001 19.4  9.280000000000001 19.4  Z " stroke-width="0" stroke-dasharray="0" stroke="rgba(255, 255, 255, 0)" fill="none" class="stroke" mask="url(#Clip204)" />
  </g>
</svg>