<?xml version="1.0" encoding="utf-8"?>
<svg version="1.1" xmlns:xlink="http://www.w3.org/1999/xlink" width="34px" height="48px" xmlns="http://www.w3.org/2000/svg">
  <defs>
    <pattern id="BGPattern" patternUnits="userSpaceOnUse" alignment="0 0" imageRepeat="None" />
    <mask fill="white" id="Clip6728">
      <path d="M 26.979999999999997 0  L 6.795999999999999 0  L 4.364000000000001 5.598  L 0.7539999999999996 5.598  L 0.7539999999999996 10.644  L 2.144 10.644  L 3.5540000000000003 19.6  L 1.3439999999999994 19.6  L 4.263999999999999 36.06  L 6.139999999999999 36.04  L 8.024 48  L 25.86 48  L 25.984 47.2  L 27.744 36.040000000000006  L 29.520000000000003 36.06000000000001  L 32.440000000000005 19.59800000000001  L 30.328000000000003 19.59800000000001  L 31.738 10.644000000000009  L 33.25 10.644000000000009  L 33.25 5.6  L 29.414 5.6  L 26.979999999999997 0  Z M 6.304 6  L 7.852 2  L 25.938000000000002 2  L 27.480000000000004 6  L 6.304 6  Z M 2.3520000000000003 9  L 2.3520000000000003 8  L 31.64 8  L 31.64 9  L 2.3520000000000003 9  Z M 5.606 34.440000000000005  L 3.258000000000001 22  L 30.528 22  L 28.176000000000002 34.440000000000005  L 16.878 34.32000000000001  L 5.606 34.440000000000005  Z " fill-rule="evenodd" />
    </mask>
  </defs>
  <g>
    <path d="M 26.979999999999997 0  L 6.795999999999999 0  L 4.364000000000001 5.598  L 0.7539999999999996 5.598  L 0.7539999999999996 10.644  L 2.144 10.644  L 3.5540000000000003 19.6  L 1.3439999999999994 19.6  L 4.263999999999999 36.06  L 6.139999999999999 36.04  L 8.024 48  L 25.86 48  L 25.984 47.2  L 27.744 36.040000000000006  L 29.520000000000003 36.06000000000001  L 32.440000000000005 19.59800000000001  L 30.328000000000003 19.59800000000001  L 31.738 10.644000000000009  L 33.25 10.644000000000009  L 33.25 5.6  L 29.414 5.6  L 26.979999999999997 0  Z M 6.304 6  L 7.852 2  L 25.938000000000002 2  L 27.480000000000004 6  L 6.304 6  Z M 2.3520000000000003 9  L 2.3520000000000003 8  L 31.64 8  L 31.64 9  L 2.3520000000000003 9  Z M 5.606 34.440000000000005  L 3.258000000000001 22  L 30.528 22  L 28.176000000000002 34.440000000000005  L 16.878 34.32000000000001  L 5.606 34.440000000000005  Z " fill-rule="nonzero" fill="rgba(255, 129, 63, 1)" stroke="none" class="fill" />
    <path d="M 26.979999999999997 0  L 6.795999999999999 0  L 4.364000000000001 5.598  L 0.7539999999999996 5.598  L 0.7539999999999996 10.644  L 2.144 10.644  L 3.5540000000000003 19.6  L 1.3439999999999994 19.6  L 4.263999999999999 36.06  L 6.139999999999999 36.04  L 8.024 48  L 25.86 48  L 25.984 47.2  L 27.744 36.040000000000006  L 29.520000000000003 36.06000000000001  L 32.440000000000005 19.59800000000001  L 30.328000000000003 19.59800000000001  L 31.738 10.644000000000009  L 33.25 10.644000000000009  L 33.25 5.6  L 29.414 5.6  L 26.979999999999997 0  Z " stroke-width="0" stroke-dasharray="0" stroke="rgba(255, 255, 255, 0)" fill="none" class="stroke" mask="url(#Clip6728)" />
    <path d="M 6.304 6  L 7.852 2  L 25.938000000000002 2  L 27.480000000000004 6  L 6.304 6  Z " stroke-width="0" stroke-dasharray="0" stroke="rgba(255, 255, 255, 0)" fill="none" class="stroke" mask="url(#Clip6728)" />
    <path d="M 2.3520000000000003 9  L 2.3520000000000003 8  L 31.64 8  L 31.64 9  L 2.3520000000000003 9  Z " stroke-width="0" stroke-dasharray="0" stroke="rgba(255, 255, 255, 0)" fill="none" class="stroke" mask="url(#Clip6728)" />
    <path d="M 5.606 34.440000000000005  L 3.258000000000001 22  L 30.528 22  L 28.176000000000002 34.440000000000005  L 16.878 34.32000000000001  L 5.606 34.440000000000005  Z " stroke-width="0" stroke-dasharray="0" stroke="rgba(255, 255, 255, 0)" fill="none" class="stroke" mask="url(#Clip6728)" />
  </g>
</svg>