<?xml version="1.0" encoding="utf-8"?>
<svg version="1.1" xmlns:xlink="http://www.w3.org/1999/xlink" width="14px" height="15px" xmlns="http://www.w3.org/2000/svg">
  <defs>
    <pattern id="BGPattern" patternUnits="userSpaceOnUse" alignment="0 0" imageRepeat="None" />
    <mask fill="white" id="Clip4534">
      <path d="M 14 4  C 13.998858695985266 3.6234417889280053  13.786279651191183 3.279450243715761  13.45 3.1099999999999994  L 7.45 0.10999999999999943  C 7.166952429704924 -0.03262859336721746  6.833047570295076 -0.03262859336721746  6.550000000000001 0.10999999999999943  L 0.5500000000000007 3.1099999999999994  C 0.21372034880881863 3.279450243715761  0.0011413040147338904 3.6234417889280053  0 4  L 0 11  C 0.0011413040147338904 11.376558211071998  0.21372034880881685 11.720549756284235  0.5500000000000007 11.89  L 6.550000000000001 14.89  C 6.833047570295076 15.032628593367217  7.166952429704924 15.032628593367217  7.45 14.89  L 13.45 11.89  C 13.786279651191183 11.720549756284239  13.998858695985266 11.376558211071998  14 11  L 14 4  Z M 3.2399999999999984 4  L 7 2.1099999999999994  L 10.760000000000002 4  L 7 5.879999999999999  L 3.2399999999999984 4  Z M 2 10.369999999999997  L 2 5.609999999999999  L 6 7.609999999999999  L 6 12.369999999999997  L 2 10.369999999999997  Z M 12 10.380000000000003  L 8 12.369999999999997  L 8 7.620000000000002  L 12 5.620000000000001  L 12 10.380000000000003  Z " fill-rule="evenodd" />
    </mask>
  </defs>
  <g transform="matrix(1 0 0 1 -14 -16 )">
    <path d="M 14 4  C 13.998858695985266 3.6234417889280053  13.786279651191183 3.279450243715761  13.45 3.1099999999999994  L 7.45 0.10999999999999943  C 7.166952429704924 -0.03262859336721746  6.833047570295076 -0.03262859336721746  6.550000000000001 0.10999999999999943  L 0.5500000000000007 3.1099999999999994  C 0.21372034880881863 3.279450243715761  0.0011413040147338904 3.6234417889280053  0 4  L 0 11  C 0.0011413040147338904 11.376558211071998  0.21372034880881685 11.720549756284235  0.5500000000000007 11.89  L 6.550000000000001 14.89  C 6.833047570295076 15.032628593367217  7.166952429704924 15.032628593367217  7.45 14.89  L 13.45 11.89  C 13.786279651191183 11.720549756284239  13.998858695985266 11.376558211071998  14 11  L 14 4  Z M 3.2399999999999984 4  L 7 2.1099999999999994  L 10.760000000000002 4  L 7 5.879999999999999  L 3.2399999999999984 4  Z M 2 10.369999999999997  L 2 5.609999999999999  L 6 7.609999999999999  L 6 12.369999999999997  L 2 10.369999999999997  Z M 12 10.380000000000003  L 8 12.369999999999997  L 8 7.620000000000002  L 12 5.620000000000001  L 12 10.380000000000003  Z " fill-rule="nonzero" fill="rgba(0, 0, 0, 1)" stroke="none" transform="matrix(1 0 0 1 14 16 )" class="fill" />
    <path d="M 14 4  C 13.998858695985266 3.6234417889280053  13.786279651191183 3.279450243715761  13.45 3.1099999999999994  L 7.45 0.10999999999999943  C 7.166952429704924 -0.03262859336721746  6.833047570295076 -0.03262859336721746  6.550000000000001 0.10999999999999943  L 0.5500000000000007 3.1099999999999994  C 0.21372034880881863 3.279450243715761  0.0011413040147338904 3.6234417889280053  0 4  L 0 11  C 0.0011413040147338904 11.376558211071998  0.21372034880881685 11.720549756284235  0.5500000000000007 11.89  L 6.550000000000001 14.89  C 6.833047570295076 15.032628593367217  7.166952429704924 15.032628593367217  7.45 14.89  L 13.45 11.89  C 13.786279651191183 11.720549756284239  13.998858695985266 11.376558211071998  14 11  L 14 4  Z " stroke-width="0" stroke-dasharray="0" stroke="rgba(255, 255, 255, 0)" fill="none" transform="matrix(1 0 0 1 14 16 )" class="stroke" mask="url(#Clip4534)" />
    <path d="M 3.2399999999999984 4  L 7 2.1099999999999994  L 10.760000000000002 4  L 7 5.879999999999999  L 3.2399999999999984 4  Z " stroke-width="0" stroke-dasharray="0" stroke="rgba(255, 255, 255, 0)" fill="none" transform="matrix(1 0 0 1 14 16 )" class="stroke" mask="url(#Clip4534)" />
    <path d="M 2 10.369999999999997  L 2 5.609999999999999  L 6 7.609999999999999  L 6 12.369999999999997  L 2 10.369999999999997  Z " stroke-width="0" stroke-dasharray="0" stroke="rgba(255, 255, 255, 0)" fill="none" transform="matrix(1 0 0 1 14 16 )" class="stroke" mask="url(#Clip4534)" />
    <path d="M 12 10.380000000000003  L 8 12.369999999999997  L 8 7.620000000000002  L 12 5.620000000000001  L 12 10.380000000000003  Z " stroke-width="0" stroke-dasharray="0" stroke="rgba(255, 255, 255, 0)" fill="none" transform="matrix(1 0 0 1 14 16 )" class="stroke" mask="url(#Clip4534)" />
  </g>
</svg>