<?xml version="1.0" encoding="utf-8"?>
<svg version="1.1" xmlns:xlink="http://www.w3.org/1999/xlink" width="32px" height="39px" xmlns="http://www.w3.org/2000/svg">
  <defs>
    <pattern id="BGPattern" patternUnits="userSpaceOnUse" alignment="0 0" imageRepeat="None" />
    <mask fill="white" id="Clip2855">
      <path d="M 32 16.5  C 32 7.6625  24.8375 0.5  16 0.5  C 7.162500000000001 0.5  0 7.6625  0 16.5  C 0 22.28125  3.0874999999999986 27.518749999999997  8.006250000000001 30.362499999999997  L 10.25 31.662499999999994  L 10.25 39  L 21.75 39  L 21.75 31.6625  L 23.99375 30.362500000000004  C 28.9125 27.518749999999997  32 22.28125  32 16.5  Z " fill-rule="evenodd" />
    </mask>
  </defs>
  <g transform="matrix(1 0 0 1 -5 -4 )">
    <path d="M 32 16.5  C 32 7.6625  24.8375 0.5  16 0.5  C 7.162500000000001 0.5  0 7.6625  0 16.5  C 0 22.28125  3.0874999999999986 27.518749999999997  8.006250000000001 30.362499999999997  L 10.25 31.662499999999994  L 10.25 39  L 21.75 39  L 21.75 31.6625  L 23.99375 30.362500000000004  C 28.9125 27.518749999999997  32 22.28125  32 16.5  Z " fill-rule="nonzero" fill="rgba(217, 217, 217, 1)" stroke="none" transform="matrix(1 0 0 1 5 4 )" class="fill" />
    <path d="M 32 16.5  C 32 7.6625  24.8375 0.5  16 0.5  C 7.162500000000001 0.5  0 7.6625  0 16.5  C 0 22.28125  3.0874999999999986 27.518749999999997  8.006250000000001 30.362499999999997  L 10.25 31.662499999999994  L 10.25 39  L 21.75 39  L 21.75 31.6625  L 23.99375 30.362500000000004  C 28.9125 27.518749999999997  32 22.28125  32 16.5  Z " stroke-width="0" stroke-dasharray="0" stroke="rgba(255, 255, 255, 0)" fill="none" transform="matrix(1 0 0 1 5 4 )" class="stroke" mask="url(#Clip2855)" />
  </g>
</svg>