<?xml version="1.0" encoding="utf-8"?>
<svg version="1.1" xmlns:xlink="http://www.w3.org/1999/xlink" width="50px" height="45px" xmlns="http://www.w3.org/2000/svg">
  <defs>
    <pattern id="BGPattern" patternUnits="userSpaceOnUse" alignment="0 0" imageRepeat="None" />
    <mask fill="white" id="Clip1677">
      <path d="M 47 5.555555555555543  L 48.611111111111114 5.555555555555543  C 49.37847222222223 5.555555555555543  50 4.9340277777777715  50 4.166666666666657  L 50 1.3888888888888857  C 50 0.6215277777777715  49.37847222222223 0  48.611111111111114 0  L 1.3888888888888857 0  C 0.6215277777777715 0  0 0.6215277777777715  0 1.3888888888888857  L 0 4.166666666666657  C 0 4.9340277777777715  0.6215277777777715 5.555555555555543  1.3888888888888857 5.555555555555543  L 3 5.555555555555543  L 3 38.888888888888914  L 1.3888888888888857 38.888888888888914  C 0.6215277777777715 38.888888888888914  0 39.510416666666686  0 40.27777777777777  L 0 43.05555555555554  C 0 43.822916666666686  0.6215277777777715 44.44444444444446  1.3888888888888857 44  L 22.22222222222223 44  L 22.22222222222223 37.5  C 22.22222222222223 36.73611111111114  22.84722222222223 36.11111111111114  23.611111111111114 36.11111111111114  L 26.388888888888886 36.11111111111114  C 27.15277777777777 36.11111111111114  27.777777777777775 36.73611111111114  27.777777777777775 37.5  L 27.777777777777775 44  L 48.611111111111114 44  C 49.37847222222223 44.44444444444446  50 43.822916666666686  50 43.05555555555554  L 50 40.27777777777777  C 50 39.510416666666686  49.37847222222223 38.888888888888914  48.611111111111114 38.888888888888914  L 47 38.888888888888914  L 47 5.555555555555543  Z M 22.22222222222223 12.777777777777771  L 22.22222222222223 9.444444444444457  C 22.22222222222223 8.888888888888886  22.77777777777777 8.333333333333343  23.333333333333343 8.333333333333343  L 26.666666666666654 8.333333333333343  C 27.222222222222232 8.333333333333343  27.777777777777775 8.888888888888886  27.777777777777775 9.444444444444457  L 27.777777777777775 12.777777777777771  C 27.777777777777775 13.333333333333314  27.222222222222232 13.888888888888912  26.666666666666654 13.888888888888912  L 23.333333333333343 13.888888888888912  C 22.77777777777777 13.888888888888912  22.22222222222223 13.333333333333314  22.22222222222223 12.777777777777771  Z M 22.22222222222223 21.111111111111143  L 22.22222222222223 17.77777777777777  C 22.22222222222223 17.22222222222223  22.77777777777777 16.666666666666686  23.333333333333343 16.666666666666686  L 26.666666666666654 16.666666666666686  C 27.222222222222232 16.666666666666686  27.777777777777775 17.22222222222223  27.777777777777775 17.77777777777777  L 27.777777777777775 21.111111111111143  C 27.777777777777775 21.666666666666686  27.222222222222232 22.22222222222223  26.666666666666654 22.22222222222223  L 23.333333333333343 22.22222222222223  C 22.77777777777777 22.22222222222223  22.22222222222223 21.666666666666686  22.22222222222223 21.111111111111143  Z M 11.111111111111114 12.777777777777771  L 11.111111111111114 9.444444444444457  C 11.111111111111114 8.888888888888886  11.666666666666657 8.333333333333343  12.222222222222229 8.333333333333343  L 15.555555555555541 8.333333333333343  C 16.111111111111114 8.333333333333343  16.666666666666657 8.888888888888886  16.666666666666657 9.444444444444457  L 16.666666666666657 12.777777777777771  C 16.666666666666657 13.333333333333314  16.111111111111114 13.888888888888912  15.555555555555541 13.888888888888912  L 12.222222222222229 13.888888888888912  C 11.666666666666657 13.888888888888912  11.111111111111114 13.333333333333314  11.111111111111114 12.777777777777771  Z M 16.666666666666657 21.111111111111143  C 16.666666666666657 21.666666666666686  16.111111111111114 22.22222222222223  15.555555555555541 22.22222222222223  L 12.222222222222229 22.22222222222223  C 11.666666666666657 22.22222222222223  11.111111111111114 21.666666666666686  11.111111111111114 21.111111111111143  L 11.111111111111114 17.77777777777777  C 11.111111111111114 17.22222222222223  11.666666666666657 16.666666666666686  12.222222222222229 16.666666666666686  L 15.555555555555541 16.666666666666686  C 16.111111111111114 16.666666666666686  16.666666666666657 17.22222222222223  16.666666666666657 17.77777777777777  L 16.666666666666657 21.111111111111143  Z M 33.333333333333314 33  L 16.666666666666657 33  C 16.666666666666657 28.73090277777777  20.397569444444457 25  25 25  C 29.602430555555543 25  33.333333333333314 28.73090277777777  33.333333333333314 33  Z M 38.888888888888886 17.77777777777777  L 38.888888888888886 21.111111111111143  C 38.888888888888886 21.666666666666686  38.33333333333334 22.22222222222223  37.77777777777777 22.22222222222223  L 34.44444444444446 22.22222222222223  C 33.888888888888886 22.22222222222223  33.333333333333314 21.666666666666686  33.333333333333314 21.111111111111143  L 33.333333333333314 17.77777777777777  C 33.333333333333314 17.22222222222223  33.888888888888886 16.666666666666686  34.44444444444446 16.666666666666686  L 37.77777777777777 16.666666666666686  C 38.333333333333314 16.666666666666686  38.888888888888886 17.22222222222223  38.888888888888886 17.77777777777777  Z M 38.888888888888886 9.444444444444457  L 38.888888888888886 12.777777777777771  C 38.888888888888886 13.333333333333314  38.33333333333334 13.888888888888912  37.77777777777777 13.888888888888912  L 34.44444444444446 13.888888888888912  C 33.888888888888886 13.888888888888912  33.333333333333314 13.333333333333314  33.333333333333314 12.777777777777771  L 33.333333333333314 9.444444444444457  C 33.333333333333314 8.888888888888886  33.888888888888886 8.333333333333343  34.44444444444446 8.333333333333343  L 37.77777777777777 8.333333333333343  C 38.333333333333314 8.333333333333343  38.888888888888886 8.888888888888886  38.888888888888886 9.444444444444457  Z " fill-rule="evenodd" />
    </mask>
  </defs>
  <g>
    <path d="M 47 5.555555555555543  L 48.611111111111114 5.555555555555543  C 49.37847222222223 5.555555555555543  50 4.9340277777777715  50 4.166666666666657  L 50 1.3888888888888857  C 50 0.6215277777777715  49.37847222222223 0  48.611111111111114 0  L 1.3888888888888857 0  C 0.6215277777777715 0  0 0.6215277777777715  0 1.3888888888888857  L 0 4.166666666666657  C 0 4.9340277777777715  0.6215277777777715 5.555555555555543  1.3888888888888857 5.555555555555543  L 3 5.555555555555543  L 3 38.888888888888914  L 1.3888888888888857 38.888888888888914  C 0.6215277777777715 38.888888888888914  0 39.510416666666686  0 40.27777777777777  L 0 43.05555555555554  C 0 43.822916666666686  0.6215277777777715 44.44444444444446  1.3888888888888857 44  L 22.22222222222223 44  L 22.22222222222223 37.5  C 22.22222222222223 36.73611111111114  22.84722222222223 36.11111111111114  23.611111111111114 36.11111111111114  L 26.388888888888886 36.11111111111114  C 27.15277777777777 36.11111111111114  27.777777777777775 36.73611111111114  27.777777777777775 37.5  L 27.777777777777775 44  L 48.611111111111114 44  C 49.37847222222223 44.44444444444446  50 43.822916666666686  50 43.05555555555554  L 50 40.27777777777777  C 50 39.510416666666686  49.37847222222223 38.888888888888914  48.611111111111114 38.888888888888914  L 47 38.888888888888914  L 47 5.555555555555543  Z M 22.22222222222223 12.777777777777771  L 22.22222222222223 9.444444444444457  C 22.22222222222223 8.888888888888886  22.77777777777777 8.333333333333343  23.333333333333343 8.333333333333343  L 26.666666666666654 8.333333333333343  C 27.222222222222232 8.333333333333343  27.777777777777775 8.888888888888886  27.777777777777775 9.444444444444457  L 27.777777777777775 12.777777777777771  C 27.777777777777775 13.333333333333314  27.222222222222232 13.888888888888912  26.666666666666654 13.888888888888912  L 23.333333333333343 13.888888888888912  C 22.77777777777777 13.888888888888912  22.22222222222223 13.333333333333314  22.22222222222223 12.777777777777771  Z M 22.22222222222223 21.111111111111143  L 22.22222222222223 17.77777777777777  C 22.22222222222223 17.22222222222223  22.77777777777777 16.666666666666686  23.333333333333343 16.666666666666686  L 26.666666666666654 16.666666666666686  C 27.222222222222232 16.666666666666686  27.777777777777775 17.22222222222223  27.777777777777775 17.77777777777777  L 27.777777777777775 21.111111111111143  C 27.777777777777775 21.666666666666686  27.222222222222232 22.22222222222223  26.666666666666654 22.22222222222223  L 23.333333333333343 22.22222222222223  C 22.77777777777777 22.22222222222223  22.22222222222223 21.666666666666686  22.22222222222223 21.111111111111143  Z M 11.111111111111114 12.777777777777771  L 11.111111111111114 9.444444444444457  C 11.111111111111114 8.888888888888886  11.666666666666657 8.333333333333343  12.222222222222229 8.333333333333343  L 15.555555555555541 8.333333333333343  C 16.111111111111114 8.333333333333343  16.666666666666657 8.888888888888886  16.666666666666657 9.444444444444457  L 16.666666666666657 12.777777777777771  C 16.666666666666657 13.333333333333314  16.111111111111114 13.888888888888912  15.555555555555541 13.888888888888912  L 12.222222222222229 13.888888888888912  C 11.666666666666657 13.888888888888912  11.111111111111114 13.333333333333314  11.111111111111114 12.777777777777771  Z M 16.666666666666657 21.111111111111143  C 16.666666666666657 21.666666666666686  16.111111111111114 22.22222222222223  15.555555555555541 22.22222222222223  L 12.222222222222229 22.22222222222223  C 11.666666666666657 22.22222222222223  11.111111111111114 21.666666666666686  11.111111111111114 21.111111111111143  L 11.111111111111114 17.77777777777777  C 11.111111111111114 17.22222222222223  11.666666666666657 16.666666666666686  12.222222222222229 16.666666666666686  L 15.555555555555541 16.666666666666686  C 16.111111111111114 16.666666666666686  16.666666666666657 17.22222222222223  16.666666666666657 17.77777777777777  L 16.666666666666657 21.111111111111143  Z M 33.333333333333314 33  L 16.666666666666657 33  C 16.666666666666657 28.73090277777777  20.397569444444457 25  25 25  C 29.602430555555543 25  33.333333333333314 28.73090277777777  33.333333333333314 33  Z M 38.888888888888886 17.77777777777777  L 38.888888888888886 21.111111111111143  C 38.888888888888886 21.666666666666686  38.33333333333334 22.22222222222223  37.77777777777777 22.22222222222223  L 34.44444444444446 22.22222222222223  C 33.888888888888886 22.22222222222223  33.333333333333314 21.666666666666686  33.333333333333314 21.111111111111143  L 33.333333333333314 17.77777777777777  C 33.333333333333314 17.22222222222223  33.888888888888886 16.666666666666686  34.44444444444446 16.666666666666686  L 37.77777777777777 16.666666666666686  C 38.333333333333314 16.666666666666686  38.888888888888886 17.22222222222223  38.888888888888886 17.77777777777777  Z M 38.888888888888886 9.444444444444457  L 38.888888888888886 12.777777777777771  C 38.888888888888886 13.333333333333314  38.33333333333334 13.888888888888912  37.77777777777777 13.888888888888912  L 34.44444444444446 13.888888888888912  C 33.888888888888886 13.888888888888912  33.333333333333314 13.333333333333314  33.333333333333314 12.777777777777771  L 33.333333333333314 9.444444444444457  C 33.333333333333314 8.888888888888886  33.888888888888886 8.333333333333343  34.44444444444446 8.333333333333343  L 37.77777777777777 8.333333333333343  C 38.333333333333314 8.333333333333343  38.888888888888886 8.888888888888886  38.888888888888886 9.444444444444457  Z " fill-rule="nonzero" fill="rgba(0, 0, 0, 1)" stroke="none" class="fill" />
    <path d="M 47 5.555555555555543  L 48.611111111111114 5.555555555555543  C 49.37847222222223 5.555555555555543  50 4.9340277777777715  50 4.166666666666657  L 50 1.3888888888888857  C 50 0.6215277777777715  49.37847222222223 0  48.611111111111114 0  L 1.3888888888888857 0  C 0.6215277777777715 0  0 0.6215277777777715  0 1.3888888888888857  L 0 4.166666666666657  C 0 4.9340277777777715  0.6215277777777715 5.555555555555543  1.3888888888888857 5.555555555555543  L 3 5.555555555555543  L 3 38.888888888888914  L 1.3888888888888857 38.888888888888914  C 0.6215277777777715 38.888888888888914  0 39.510416666666686  0 40.27777777777777  L 0 43.05555555555554  C 0 43.822916666666686  0.6215277777777715 44.44444444444446  1.3888888888888857 44  L 22.22222222222223 44  L 22.22222222222223 37.5  C 22.22222222222223 36.73611111111114  22.84722222222223 36.11111111111114  23.611111111111114 36.11111111111114  L 26.388888888888886 36.11111111111114  C 27.15277777777777 36.11111111111114  27.777777777777775 36.73611111111114  27.777777777777775 37.5  L 27.777777777777775 44  L 48.611111111111114 44  C 49.37847222222223 44.44444444444446  50 43.822916666666686  50 43.05555555555554  L 50 40.27777777777777  C 50 39.510416666666686  49.37847222222223 38.888888888888914  48.611111111111114 38.888888888888914  L 47 38.888888888888914  L 47 5.555555555555543  Z " stroke-width="0" stroke-dasharray="0" stroke="rgba(255, 255, 255, 0)" fill="none" class="stroke" mask="url(#Clip1677)" />
    <path d="M 22.22222222222223 12.777777777777771  L 22.22222222222223 9.444444444444457  C 22.22222222222223 8.888888888888886  22.77777777777777 8.333333333333343  23.333333333333343 8.333333333333343  L 26.666666666666654 8.333333333333343  C 27.222222222222232 8.333333333333343  27.777777777777775 8.888888888888886  27.777777777777775 9.444444444444457  L 27.777777777777775 12.777777777777771  C 27.777777777777775 13.333333333333314  27.222222222222232 13.888888888888912  26.666666666666654 13.888888888888912  L 23.333333333333343 13.888888888888912  C 22.77777777777777 13.888888888888912  22.22222222222223 13.333333333333314  22.22222222222223 12.777777777777771  Z " stroke-width="0" stroke-dasharray="0" stroke="rgba(255, 255, 255, 0)" fill="none" class="stroke" mask="url(#Clip1677)" />
    <path d="M 22.22222222222223 21.111111111111143  L 22.22222222222223 17.77777777777777  C 22.22222222222223 17.22222222222223  22.77777777777777 16.666666666666686  23.333333333333343 16.666666666666686  L 26.666666666666654 16.666666666666686  C 27.222222222222232 16.666666666666686  27.777777777777775 17.22222222222223  27.777777777777775 17.77777777777777  L 27.777777777777775 21.111111111111143  C 27.777777777777775 21.666666666666686  27.222222222222232 22.22222222222223  26.666666666666654 22.22222222222223  L 23.333333333333343 22.22222222222223  C 22.77777777777777 22.22222222222223  22.22222222222223 21.666666666666686  22.22222222222223 21.111111111111143  Z " stroke-width="0" stroke-dasharray="0" stroke="rgba(255, 255, 255, 0)" fill="none" class="stroke" mask="url(#Clip1677)" />
    <path d="M 11.111111111111114 12.777777777777771  L 11.111111111111114 9.444444444444457  C 11.111111111111114 8.888888888888886  11.666666666666657 8.333333333333343  12.222222222222229 8.333333333333343  L 15.555555555555541 8.333333333333343  C 16.111111111111114 8.333333333333343  16.666666666666657 8.888888888888886  16.666666666666657 9.444444444444457  L 16.666666666666657 12.777777777777771  C 16.666666666666657 13.333333333333314  16.111111111111114 13.888888888888912  15.555555555555541 13.888888888888912  L 12.222222222222229 13.888888888888912  C 11.666666666666657 13.888888888888912  11.111111111111114 13.333333333333314  11.111111111111114 12.777777777777771  Z " stroke-width="0" stroke-dasharray="0" stroke="rgba(255, 255, 255, 0)" fill="none" class="stroke" mask="url(#Clip1677)" />
    <path d="M 16.666666666666657 21.111111111111143  C 16.666666666666657 21.666666666666686  16.111111111111114 22.22222222222223  15.555555555555541 22.22222222222223  L 12.222222222222229 22.22222222222223  C 11.666666666666657 22.22222222222223  11.111111111111114 21.666666666666686  11.111111111111114 21.111111111111143  L 11.111111111111114 17.77777777777777  C 11.111111111111114 17.22222222222223  11.666666666666657 16.666666666666686  12.222222222222229 16.666666666666686  L 15.555555555555541 16.666666666666686  C 16.111111111111114 16.666666666666686  16.666666666666657 17.22222222222223  16.666666666666657 17.77777777777777  L 16.666666666666657 21.111111111111143  Z " stroke-width="0" stroke-dasharray="0" stroke="rgba(255, 255, 255, 0)" fill="none" class="stroke" mask="url(#Clip1677)" />
    <path d="M 33.333333333333314 33  L 16.666666666666657 33  C 16.666666666666657 28.73090277777777  20.397569444444457 25  25 25  C 29.602430555555543 25  33.333333333333314 28.73090277777777  33.333333333333314 33  Z " stroke-width="0" stroke-dasharray="0" stroke="rgba(255, 255, 255, 0)" fill="none" class="stroke" mask="url(#Clip1677)" />
    <path d="M 38.888888888888886 17.77777777777777  L 38.888888888888886 21.111111111111143  C 38.888888888888886 21.666666666666686  38.33333333333334 22.22222222222223  37.77777777777777 22.22222222222223  L 34.44444444444446 22.22222222222223  C 33.888888888888886 22.22222222222223  33.333333333333314 21.666666666666686  33.333333333333314 21.111111111111143  L 33.333333333333314 17.77777777777777  C 33.333333333333314 17.22222222222223  33.888888888888886 16.666666666666686  34.44444444444446 16.666666666666686  L 37.77777777777777 16.666666666666686  C 38.333333333333314 16.666666666666686  38.888888888888886 17.22222222222223  38.888888888888886 17.77777777777777  Z " stroke-width="0" stroke-dasharray="0" stroke="rgba(255, 255, 255, 0)" fill="none" class="stroke" mask="url(#Clip1677)" />
    <path d="M 38.888888888888886 9.444444444444457  L 38.888888888888886 12.777777777777771  C 38.888888888888886 13.333333333333314  38.33333333333334 13.888888888888912  37.77777777777777 13.888888888888912  L 34.44444444444446 13.888888888888912  C 33.888888888888886 13.888888888888912  33.333333333333314 13.333333333333314  33.333333333333314 12.777777777777771  L 33.333333333333314 9.444444444444457  C 33.333333333333314 8.888888888888886  33.888888888888886 8.333333333333343  34.44444444444446 8.333333333333343  L 37.77777777777777 8.333333333333343  C 38.333333333333314 8.333333333333343  38.888888888888886 8.888888888888886  38.888888888888886 9.444444444444457  Z " stroke-width="0" stroke-dasharray="0" stroke="rgba(255, 255, 255, 0)" fill="none" class="stroke" mask="url(#Clip1677)" />
  </g>
</svg>