<?xml version="1.0" encoding="utf-8"?>
<svg version="1.1" xmlns:xlink="http://www.w3.org/1999/xlink" width="24px" height="24px" xmlns="http://www.w3.org/2000/svg">
  <defs>
    <pattern id="BGPattern" patternUnits="userSpaceOnUse" alignment="0 0" imageRepeat="None" />
    <mask fill="white" id="Clip337">
      <path d="M 6.560000000000004 1  L 17.44 1  C 20.784000000000002 0.7999999999999998  23.200000000000003 3.2159999999999993  23 6.559999999999999  L 23 17.439999999999998  C 23.200000000000003 20.784  20.784000000000002 23.199999999999996  17.440000000000005 23  L 6.560000000000004 23  C 3.2160000000000046 23.199999999999996  0.8000000000000043 20.783999999999995  1 17.439999999999998  L 1 6.559999999999997  C 0.8000000000000043 3.2159999999999975  3.2160000000000046 0.7999999999999972  6.560000000000004 1  Z M 17.44 3.200000000000001  L 6.5600000000000005 3.2  C 4.5760000000000005 3.2  3.200000000000001 4.5760000000000005  3.200000000000001 6.5600000000000005  L 3.200000000000001 17.44  C 3.200000000000001 19.424  4.5760000000000005 20.8  6.5600000000000005 20.8  L 17.44 20.8  C 19.424 20.8  20.8 19.424  20.8 17.44  L 20.8 6.5600000000000005  C 20.8 4.5760000000000005  19.424 3.200000000000001  17.44 3.200000000000001  Z " fill-rule="evenodd" />
    </mask>
  </defs>
  <g>
    <path d="M 6.560000000000004 1  L 17.44 1  C 20.784000000000002 0.7999999999999998  23.200000000000003 3.2159999999999993  23 6.559999999999999  L 23 17.439999999999998  C 23.200000000000003 20.784  20.784000000000002 23.199999999999996  17.440000000000005 23  L 6.560000000000004 23  C 3.2160000000000046 23.199999999999996  0.8000000000000043 20.783999999999995  1 17.439999999999998  L 1 6.559999999999997  C 0.8000000000000043 3.2159999999999975  3.2160000000000046 0.7999999999999972  6.560000000000004 1  Z M 17.44 3.200000000000001  L 6.5600000000000005 3.2  C 4.5760000000000005 3.2  3.200000000000001 4.5760000000000005  3.200000000000001 6.5600000000000005  L 3.200000000000001 17.44  C 3.200000000000001 19.424  4.5760000000000005 20.8  6.5600000000000005 20.8  L 17.44 20.8  C 19.424 20.8  20.8 19.424  20.8 17.44  L 20.8 6.5600000000000005  C 20.8 4.5760000000000005  19.424 3.200000000000001  17.44 3.200000000000001  Z " fill-rule="nonzero" fill="rgba(0, 0, 0, 1)" stroke="none" class="fill" />
    <path d="M 6.560000000000004 1  L 17.44 1  C 20.784000000000002 0.7999999999999998  23.200000000000003 3.2159999999999993  23 6.559999999999999  L 23 17.439999999999998  C 23.200000000000003 20.784  20.784000000000002 23.199999999999996  17.440000000000005 23  L 6.560000000000004 23  C 3.2160000000000046 23.199999999999996  0.8000000000000043 20.783999999999995  1 17.439999999999998  L 1 6.559999999999997  C 0.8000000000000043 3.2159999999999975  3.2160000000000046 0.7999999999999972  6.560000000000004 1  Z " stroke-width="0" stroke-dasharray="0" stroke="rgba(255, 255, 255, 0)" fill="none" class="stroke" mask="url(#Clip337)" />
    <path d="M 17.44 3.200000000000001  L 6.5600000000000005 3.2  C 4.5760000000000005 3.2  3.200000000000001 4.5760000000000005  3.200000000000001 6.5600000000000005  L 3.200000000000001 17.44  C 3.200000000000001 19.424  4.5760000000000005 20.8  6.5600000000000005 20.8  L 17.44 20.8  C 19.424 20.8  20.8 19.424  20.8 17.44  L 20.8 6.5600000000000005  C 20.8 4.5760000000000005  19.424 3.200000000000001  17.44 3.200000000000001  Z " stroke-width="0" stroke-dasharray="0" stroke="rgba(255, 255, 255, 0)" fill="none" class="stroke" mask="url(#Clip337)" />
  </g>
</svg>