<?xml version="1.0" encoding="utf-8"?>
<svg version="1.1" xmlns:xlink="http://www.w3.org/1999/xlink" width="48px" height="48px" xmlns="http://www.w3.org/2000/svg">
  <defs>
    <pattern id="BGPattern" patternUnits="userSpaceOnUse" alignment="0 0" imageRepeat="None" />
    <mask fill="white" id="Clip6823">
      <path d="M 0 23.580000000000002  C 0 10.560000000000004  11.064000000000004 0  24.206000000000003 0  C 37.33200000000001 0  48 10.970000000000004  48 23.994000000000003  C 48 37.013999999999996  37.34 47.974000000000004  24.200000000000003 48  L 0 48  L 0 23.580000000000002  Z M 24.43800000000001 9.127999999999998  L 24.438000000000002 9.126000000000003  C 19.252000000000002 9.120000000000003  14.446000000000002 11.830000000000004  11.764000000000003 16.266000000000002  C 9.104000000000003 20.682000000000002  8.990000000000002 26.180000000000007  11.468000000000004 30.706  L 8.800000000000004 39.22  L 18.388 37.072  C 23.878000000000004 39.522000000000006  30.317999999999998 38.42399999999999  34.66 34.292  C 39 30.183999999999997  40.379999999999995 23.836  38.134 18.298  C 35.864000000000004 12.741999999999997  30.454000000000008 9.117999999999999  24.454000000000008 9.127999999999998  L 24.43800000000001 9.127999999999998  Z " fill-rule="evenodd" />
    </mask>
  </defs>
  <g>
    <path d="M 0 23.580000000000002  C 0 10.560000000000004  11.064000000000004 0  24.206000000000003 0  C 37.33200000000001 0  48 10.970000000000004  48 23.994000000000003  C 48 37.013999999999996  37.34 47.974000000000004  24.200000000000003 48  L 0 48  L 0 23.580000000000002  Z M 24.43800000000001 9.127999999999998  L 24.438000000000002 9.126000000000003  C 19.252000000000002 9.120000000000003  14.446000000000002 11.830000000000004  11.764000000000003 16.266000000000002  C 9.104000000000003 20.682000000000002  8.990000000000002 26.180000000000007  11.468000000000004 30.706  L 8.800000000000004 39.22  L 18.388 37.072  C 23.878000000000004 39.522000000000006  30.317999999999998 38.42399999999999  34.66 34.292  C 39 30.183999999999997  40.379999999999995 23.836  38.134 18.298  C 35.864000000000004 12.741999999999997  30.454000000000008 9.117999999999999  24.454000000000008 9.127999999999998  L 24.43800000000001 9.127999999999998  Z " fill-rule="nonzero" fill="rgba(0, 0, 0, 1)" stroke="none" class="fill" />
    <path d="M 0 23.580000000000002  C 0 10.560000000000004  11.064000000000004 0  24.206000000000003 0  C 37.33200000000001 0  48 10.970000000000004  48 23.994000000000003  C 48 37.013999999999996  37.34 47.974000000000004  24.200000000000003 48  L 0 48  L 0 23.580000000000002  Z " stroke-width="0" stroke-dasharray="0" stroke="rgba(255, 255, 255, 0)" fill="none" class="stroke" mask="url(#Clip6823)" />
    <path d="M 24.43800000000001 9.127999999999998  L 24.438000000000002 9.126000000000003  C 19.252000000000002 9.120000000000003  14.446000000000002 11.830000000000004  11.764000000000003 16.266000000000002  C 9.104000000000003 20.682000000000002  8.990000000000002 26.180000000000007  11.468000000000004 30.706  L 8.800000000000004 39.22  L 18.388 37.072  C 23.878000000000004 39.522000000000006  30.317999999999998 38.42399999999999  34.66 34.292  C 39 30.183999999999997  40.379999999999995 23.836  38.134 18.298  C 35.864000000000004 12.741999999999997  30.454000000000008 9.117999999999999  24.454000000000008 9.127999999999998  L 24.43800000000001 9.127999999999998  Z " stroke-width="0" stroke-dasharray="0" stroke="rgba(255, 255, 255, 0)" fill="none" class="stroke" mask="url(#Clip6823)" />
  </g>
</svg>