<?xml version="1.0" encoding="utf-8"?>
<svg version="1.1" xmlns:xlink="http://www.w3.org/1999/xlink" width="24px" height="24px" xmlns="http://www.w3.org/2000/svg">
  <defs>
    <pattern id="BGPattern" patternUnits="userSpaceOnUse" alignment="0 0" imageRepeat="None" />
    <mask fill="white" id="Clip5339">
      <path d="M 24 12  C 24 5.3759999999999994  18.612 0  12 0  C 5.376 0  0 5.376  0 12  C 0 18.624000000000002  5.376 24  12 24  C 18.612000000000002 24  24 18.624000000000002  24 12  Z M 19.9275 5.530500000000001  L 19.926000000000002 5.532000000000001  C 21.403258891730662 7.330910143202308  22.220992790152067 9.580869238470518  22.243499999999997 11.9085  C 21.9045 11.844  18.5205 11.154  15.110999999999997 11.583  C 15.032999999999998 11.415000000000001  14.966999999999997 11.232000000000001  14.888999999999998 11.050500000000001  C 14.680499999999999 10.555500000000002  14.446499999999997 10.0485  14.212499999999997 9.5655  C 17.986499999999996 8.031000000000002  19.705499999999994 5.8185  19.9275 5.530500000000001  Z M 9.592500000000001 2.043  C 10.381661429265076 1.858735707389978  11.189616893221427 1.7671170815706287  12 1.77  C 14.6025 1.77  16.9845 2.745  18.795 4.3469999999999995  C 18.612000000000002 4.608  17.062500000000004 6.676499999999999  13.419000000000002 8.043  C 11.739000000000003 4.959  9.879000000000003 2.433  9.592500000000001 2.043  Z M 7.639499999999998 2.734499999999999  L 7.6395 2.7329999999999997  C 9.013014480057098 4.6365696382856  10.281891589937771 6.613494196221238  11.4405 8.655  C 6.650999999999999 9.93  2.421 9.904499999999999  1.964999999999999 9.904499999999999  C 2.6334873023924352 6.759711419676835  4.732417383610131 4.107613669684611  7.639499999999998 2.734499999999999  Z M 1.7445 12.013499999999997  L 1.7445 12.015  L 1.7445 11.7  C 2.187 11.715  7.1594999999999995 11.779499999999999  12.2745 10.2435  C 12.573 10.815  12.846 11.4015  13.107 11.9865  L 12.702 12.103499999999999  C 7.419 13.809  4.6080000000000005 18.468  4.3725000000000005 18.859499999999997  C 2.680232902211678 16.980890528174193  1.7439785736422606 14.541926626581258  1.7445 12.013499999999997  Z M 16.008000000000003 21.436500000000002  C 14.741996601080565 21.9804966409664  13.377927073763356 22.25923240515622  12 22.2555  C 9.722322118846584 22.259062193089143  7.509279184017712 21.498493738159887  5.715 20.0955  C 5.895 19.7175  7.978499999999999 15.709500000000002  13.756499999999999 13.692  C 13.7835 13.6785  13.795499999999999 13.6785  13.8225 13.666500000000003  C 14.796606330271416 16.181048782071873  15.52842626762785 18.78285199106728  16.008000000000003 21.436500000000002  Z M 22.099500000000003 13.6395  C 21.657522208799918 16.43739260527553  20.06770379761254 18.923794655330205  17.715 20.499000000000002  C 17.61 19.8735  17.0625 16.881  15.723000000000003 13.197  C 18.9375 12.690000000000001  21.748500000000003 13.5225  22.099500000000003 13.6395  Z " fill-rule="evenodd" />
    </mask>
  </defs>
  <g>
    <path d="M 24 12  C 24 5.3759999999999994  18.612 0  12 0  C 5.376 0  0 5.376  0 12  C 0 18.624000000000002  5.376 24  12 24  C 18.612000000000002 24  24 18.624000000000002  24 12  Z M 19.9275 5.530500000000001  L 19.926000000000002 5.532000000000001  C 21.403258891730662 7.330910143202308  22.220992790152067 9.580869238470518  22.243499999999997 11.9085  C 21.9045 11.844  18.5205 11.154  15.110999999999997 11.583  C 15.032999999999998 11.415000000000001  14.966999999999997 11.232000000000001  14.888999999999998 11.050500000000001  C 14.680499999999999 10.555500000000002  14.446499999999997 10.0485  14.212499999999997 9.5655  C 17.986499999999996 8.031000000000002  19.705499999999994 5.8185  19.9275 5.530500000000001  Z M 9.592500000000001 2.043  C 10.381661429265076 1.858735707389978  11.189616893221427 1.7671170815706287  12 1.77  C 14.6025 1.77  16.9845 2.745  18.795 4.3469999999999995  C 18.612000000000002 4.608  17.062500000000004 6.676499999999999  13.419000000000002 8.043  C 11.739000000000003 4.959  9.879000000000003 2.433  9.592500000000001 2.043  Z M 7.639499999999998 2.734499999999999  L 7.6395 2.7329999999999997  C 9.013014480057098 4.6365696382856  10.281891589937771 6.613494196221238  11.4405 8.655  C 6.650999999999999 9.93  2.421 9.904499999999999  1.964999999999999 9.904499999999999  C 2.6334873023924352 6.759711419676835  4.732417383610131 4.107613669684611  7.639499999999998 2.734499999999999  Z M 1.7445 12.013499999999997  L 1.7445 12.015  L 1.7445 11.7  C 2.187 11.715  7.1594999999999995 11.779499999999999  12.2745 10.2435  C 12.573 10.815  12.846 11.4015  13.107 11.9865  L 12.702 12.103499999999999  C 7.419 13.809  4.6080000000000005 18.468  4.3725000000000005 18.859499999999997  C 2.680232902211678 16.980890528174193  1.7439785736422606 14.541926626581258  1.7445 12.013499999999997  Z M 16.008000000000003 21.436500000000002  C 14.741996601080565 21.9804966409664  13.377927073763356 22.25923240515622  12 22.2555  C 9.722322118846584 22.259062193089143  7.509279184017712 21.498493738159887  5.715 20.0955  C 5.895 19.7175  7.978499999999999 15.709500000000002  13.756499999999999 13.692  C 13.7835 13.6785  13.795499999999999 13.6785  13.8225 13.666500000000003  C 14.796606330271416 16.181048782071873  15.52842626762785 18.78285199106728  16.008000000000003 21.436500000000002  Z M 22.099500000000003 13.6395  C 21.657522208799918 16.43739260527553  20.06770379761254 18.923794655330205  17.715 20.499000000000002  C 17.61 19.8735  17.0625 16.881  15.723000000000003 13.197  C 18.9375 12.690000000000001  21.748500000000003 13.5225  22.099500000000003 13.6395  Z " fill-rule="nonzero" fill="rgba(0, 0, 0, 1)" stroke="none" class="fill" />
    <path d="M 24 12  C 24 5.3759999999999994  18.612 0  12 0  C 5.376 0  0 5.376  0 12  C 0 18.624000000000002  5.376 24  12 24  C 18.612000000000002 24  24 18.624000000000002  24 12  Z " stroke-width="0" stroke-dasharray="0" stroke="rgba(255, 255, 255, 0)" fill="none" class="stroke" mask="url(#Clip5339)" />
    <path d="M 19.9275 5.530500000000001  L 19.926000000000002 5.532000000000001  C 21.403258891730662 7.330910143202308  22.220992790152067 9.580869238470518  22.243499999999997 11.9085  C 21.9045 11.844  18.5205 11.154  15.110999999999997 11.583  C 15.032999999999998 11.415000000000001  14.966999999999997 11.232000000000001  14.888999999999998 11.050500000000001  C 14.680499999999999 10.555500000000002  14.446499999999997 10.0485  14.212499999999997 9.5655  C 17.986499999999996 8.031000000000002  19.705499999999994 5.8185  19.9275 5.530500000000001  Z " stroke-width="0" stroke-dasharray="0" stroke="rgba(255, 255, 255, 0)" fill="none" class="stroke" mask="url(#Clip5339)" />
    <path d="M 9.592500000000001 2.043  C 10.381661429265076 1.858735707389978  11.189616893221427 1.7671170815706287  12 1.77  C 14.6025 1.77  16.9845 2.745  18.795 4.3469999999999995  C 18.612000000000002 4.608  17.062500000000004 6.676499999999999  13.419000000000002 8.043  C 11.739000000000003 4.959  9.879000000000003 2.433  9.592500000000001 2.043  Z " stroke-width="0" stroke-dasharray="0" stroke="rgba(255, 255, 255, 0)" fill="none" class="stroke" mask="url(#Clip5339)" />
    <path d="M 7.639499999999998 2.734499999999999  L 7.6395 2.7329999999999997  C 9.013014480057098 4.6365696382856  10.281891589937771 6.613494196221238  11.4405 8.655  C 6.650999999999999 9.93  2.421 9.904499999999999  1.964999999999999 9.904499999999999  C 2.6334873023924352 6.759711419676835  4.732417383610131 4.107613669684611  7.639499999999998 2.734499999999999  Z " stroke-width="0" stroke-dasharray="0" stroke="rgba(255, 255, 255, 0)" fill="none" class="stroke" mask="url(#Clip5339)" />
    <path d="M 1.7445 12.013499999999997  L 1.7445 12.015  L 1.7445 11.7  C 2.187 11.715  7.1594999999999995 11.779499999999999  12.2745 10.2435  C 12.573 10.815  12.846 11.4015  13.107 11.9865  L 12.702 12.103499999999999  C 7.419 13.809  4.6080000000000005 18.468  4.3725000000000005 18.859499999999997  C 2.680232902211678 16.980890528174193  1.7439785736422606 14.541926626581258  1.7445 12.013499999999997  Z " stroke-width="0" stroke-dasharray="0" stroke="rgba(255, 255, 255, 0)" fill="none" class="stroke" mask="url(#Clip5339)" />
    <path d="M 16.008000000000003 21.436500000000002  C 14.741996601080565 21.9804966409664  13.377927073763356 22.25923240515622  12 22.2555  C 9.722322118846584 22.259062193089143  7.509279184017712 21.498493738159887  5.715 20.0955  C 5.895 19.7175  7.978499999999999 15.709500000000002  13.756499999999999 13.692  C 13.7835 13.6785  13.795499999999999 13.6785  13.8225 13.666500000000003  C 14.796606330271416 16.181048782071873  15.52842626762785 18.78285199106728  16.008000000000003 21.436500000000002  Z " stroke-width="0" stroke-dasharray="0" stroke="rgba(255, 255, 255, 0)" fill="none" class="stroke" mask="url(#Clip5339)" />
    <path d="M 22.099500000000003 13.6395  C 21.657522208799918 16.43739260527553  20.06770379761254 18.923794655330205  17.715 20.499000000000002  C 17.61 19.8735  17.0625 16.881  15.723000000000003 13.197  C 18.9375 12.690000000000001  21.748500000000003 13.5225  22.099500000000003 13.6395  Z " stroke-width="0" stroke-dasharray="0" stroke="rgba(255, 255, 255, 0)" fill="none" class="stroke" mask="url(#Clip5339)" />
  </g>
</svg>