<?xml version="1.0" encoding="utf-8"?>
<svg version="1.1" xmlns:xlink="http://www.w3.org/1999/xlink" width="64px" height="48px" xmlns="http://www.w3.org/2000/svg">
  <defs>
    <pattern id="BGPattern" patternUnits="userSpaceOnUse" alignment="0 0" imageRepeat="None" />
    <mask fill="white" id="Clip1650">
      <path d="M 60 36  L 60 28  C 60 17.96875  53.84 9.385000000000002  45.10125 5.797499999999999  L 40 16  L 40 2  C 40 0.8954305003384135  39.10456949966159 0  38 0  L 26 0  C 24.895430500338414 0  24 0.8954305003384135  24 2  L 24 16  L 18.89875 5.797499999999999  C 10.16 9.385000000000002  4 17.96875  4 28  L 4 36  L 60 36  Z M 64 42  C 64 40.89543050033841  63.10456949966159 40  62 40  L 2 40  C 0.8954305003384131 40  0 40.89543050033841  0 42  L 0 46  C 0 47.10456949966159  0.8954305003384131 48  2 48  L 62 48  C 63.10456949966159 48  64 47.10456949966159  64 46  L 64 42  Z " fill-rule="evenodd" />
    </mask>
  </defs>
  <g>
    <path d="M 60 36  L 60 28  C 60 17.96875  53.84 9.385000000000002  45.10125 5.797499999999999  L 40 16  L 40 2  C 40 0.8954305003384135  39.10456949966159 0  38 0  L 26 0  C 24.895430500338414 0  24 0.8954305003384135  24 2  L 24 16  L 18.89875 5.797499999999999  C 10.16 9.385000000000002  4 17.96875  4 28  L 4 36  L 60 36  Z M 64 42  C 64 40.89543050033841  63.10456949966159 40  62 40  L 2 40  C 0.8954305003384131 40  0 40.89543050033841  0 42  L 0 46  C 0 47.10456949966159  0.8954305003384131 48  2 48  L 62 48  C 63.10456949966159 48  64 47.10456949966159  64 46  L 64 42  Z " fill-rule="nonzero" fill="rgba(0, 0, 0, 1)" stroke="none" class="fill" />
    <path d="M 60 36  L 60 28  C 60 17.96875  53.84 9.385000000000002  45.10125 5.797499999999999  L 40 16  L 40 2  C 40 0.8954305003384135  39.10456949966159 0  38 0  L 26 0  C 24.895430500338414 0  24 0.8954305003384135  24 2  L 24 16  L 18.89875 5.797499999999999  C 10.16 9.385000000000002  4 17.96875  4 28  L 4 36  L 60 36  Z " stroke-width="0" stroke-dasharray="0" stroke="rgba(255, 255, 255, 0)" fill="none" class="stroke" mask="url(#Clip1650)" />
    <path d="M 64 42  C 64 40.89543050033841  63.10456949966159 40  62 40  L 2 40  C 0.8954305003384131 40  0 40.89543050033841  0 42  L 0 46  C 0 47.10456949966159  0.8954305003384131 48  2 48  L 62 48  C 63.10456949966159 48  64 47.10456949966159  64 46  L 64 42  Z " stroke-width="0" stroke-dasharray="0" stroke="rgba(255, 255, 255, 0)" fill="none" class="stroke" mask="url(#Clip1650)" />
  </g>
</svg>