<?xml version="1.0" encoding="utf-8"?>
<svg version="1.1" xmlns:xlink="http://www.w3.org/1999/xlink" width="36px" height="48px" xmlns="http://www.w3.org/2000/svg">
  <defs>
    <pattern id="BGPattern" patternUnits="userSpaceOnUse" alignment="0 0" imageRepeat="None" />
    <mask fill="white" id="Clip2901">
      <path d="M 36 1.9999999999999996  C 36 0.8937500000000007  35.10625 0  34 0  L 2 0  C 0.8937500000000007 0  0 0.8937500000000007  0 1.9999999999999996  L 0 35.16875  C 0 35.699999999999996  0.21250000000000036 36.20625  0.5875000000000004 36.58125  L 11.418750000000003 47.4125  C 11.556250000000002 47.550000000000004  11.712500000000002 47.6625  11.881250000000001 47.75625  L 11.881250000000001 47.875  L 12.14375 47.875  C 12.3625 47.95625  12.59375 48  12.83125 48  L 34 48  C 35.10625 48  36 47.10625  36 46  L 36 1.9999999999999996  Z M 11.875 36.12499999999999  L 11.875 41.512499999999996  L 6.493749999999999 36.12499999999999  L 11.875 36.12499999999999  Z M 31 5  L 31 43  L 15.875 43  L 15.875 34.62499999999999  C 15.875 33.24374999999999  14.756250000000001 32.125  13.375 32.125  L 5 32.125  L 5 5  L 31 5  Z " fill-rule="evenodd" />
    </mask>
  </defs>
  <g transform="matrix(1 0 0 1 0 -8 )">
    <path d="M 36 1.9999999999999996  C 36 0.8937500000000007  35.10625 0  34 0  L 2 0  C 0.8937500000000007 0  0 0.8937500000000007  0 1.9999999999999996  L 0 35.16875  C 0 35.699999999999996  0.21250000000000036 36.20625  0.5875000000000004 36.58125  L 11.418750000000003 47.4125  C 11.556250000000002 47.550000000000004  11.712500000000002 47.6625  11.881250000000001 47.75625  L 11.881250000000001 47.875  L 12.14375 47.875  C 12.3625 47.95625  12.59375 48  12.83125 48  L 34 48  C 35.10625 48  36 47.10625  36 46  L 36 1.9999999999999996  Z M 11.875 36.12499999999999  L 11.875 41.512499999999996  L 6.493749999999999 36.12499999999999  L 11.875 36.12499999999999  Z M 31 5  L 31 43  L 15.875 43  L 15.875 34.62499999999999  C 15.875 33.24374999999999  14.756250000000001 32.125  13.375 32.125  L 5 32.125  L 5 5  L 31 5  Z " fill-rule="nonzero" fill="rgba(0, 0, 0, 1)" stroke="none" transform="matrix(1 0 0 1 0 8 )" class="fill" />
    <path d="M 36 1.9999999999999996  C 36 0.8937500000000007  35.10625 0  34 0  L 2 0  C 0.8937500000000007 0  0 0.8937500000000007  0 1.9999999999999996  L 0 35.16875  C 0 35.699999999999996  0.21250000000000036 36.20625  0.5875000000000004 36.58125  L 11.418750000000003 47.4125  C 11.556250000000002 47.550000000000004  11.712500000000002 47.6625  11.881250000000001 47.75625  L 11.881250000000001 47.875  L 12.14375 47.875  C 12.3625 47.95625  12.59375 48  12.83125 48  L 34 48  C 35.10625 48  36 47.10625  36 46  L 36 1.9999999999999996  Z " stroke-width="0" stroke-dasharray="0" stroke="rgba(255, 255, 255, 0)" fill="none" transform="matrix(1 0 0 1 0 8 )" class="stroke" mask="url(#Clip2901)" />
    <path d="M 11.875 36.12499999999999  L 11.875 41.512499999999996  L 6.493749999999999 36.12499999999999  L 11.875 36.12499999999999  Z " stroke-width="0" stroke-dasharray="0" stroke="rgba(255, 255, 255, 0)" fill="none" transform="matrix(1 0 0 1 0 8 )" class="stroke" mask="url(#Clip2901)" />
    <path d="M 31 5  L 31 43  L 15.875 43  L 15.875 34.62499999999999  C 15.875 33.24374999999999  14.756250000000001 32.125  13.375 32.125  L 5 32.125  L 5 5  L 31 5  Z " stroke-width="0" stroke-dasharray="0" stroke="rgba(255, 255, 255, 0)" fill="none" transform="matrix(1 0 0 1 0 8 )" class="stroke" mask="url(#Clip2901)" />
  </g>
</svg>