<?xml version="1.0" encoding="utf-8"?>
<svg version="1.1" xmlns:xlink="http://www.w3.org/1999/xlink" width="24px" height="24px" xmlns="http://www.w3.org/2000/svg">
  <defs>
    <pattern id="BGPattern" patternUnits="userSpaceOnUse" alignment="0 0" imageRepeat="None" />
    <mask fill="white" id="Clip6270">
      <path d="M 7.005 0  L 7.006500000000001 0  C 8.3265 0  9.606 0.3704999522985754  10.7085 1.05299986442753  C 14.043352313454939 0.698050127014926  17.36055366931839 1.8651317826879161  19.7385 4.229999455392642  C 21.817375612477946 6.30267272186417  22.9867808429602 9.116907835753032  22.988999999999997 12.052498448255275  C 22.988999999999997 12.568498381820906  22.953 13.082998315579651  22.881 13.591498250110897  C 23.469310046029182 14.636002986472281  23.779228259440245 15.814208576097448  23.781000000000002 17.012997809596932  C 23.78100218212367 18.867878611880606  23.041386009346493 20.646196392506827  21.725999999999996 21.95399717344919  C 20.41042684035827 23.265839893967893  18.627864759901186 24.001740125415164  16.77 23.999996910029175  C 15.51 23.999996910029175  14.283000000000001 23.66099695367501  13.215 23.033997034400503  C 9.835636509694684 23.43746224516086  6.457327319816292 22.273233173092265  4.043999999999999 19.873497441311034  C 1.965771577910349 17.80100408763696  0.7964471752187585 14.987503095172276  0.7935000000000001 12.052498448255275  C 0.7935000000000001 11.50799851835899  0.8325 10.966498588076456  0.9135 10.43099865702143  C -0.642200201731996 7.6989855440743415  -0.17512262398009842 4.263507486870779  2.0535 2.0459997365799882  C 3.368618501409534 0.736233016009835  5.148921978989699 0.0005972599437025333  7.005 0  Z M 7.302 8.920498851496468  C 7.286999999999999 9.475498780040894  7.415999999999999 10.024498709357811  7.6770000000000005 10.514998646206532  C 7.947 10.97849858653147  8.322 11.372998535740074  8.7705 11.668498497694808  C 9.3646251560788 12.057294831638544  9.996294679239442 12.385441327674805  10.656 12.647998371585377  C 11.394 12.955498331995125  11.9655 13.21799829819857  12.3735 13.432498270581954  C 12.716999999999999 13.600498248952157  13.029 13.828498219597432  13.296000000000001 14.104498184062773  C 13.4985 14.31749815663928  13.611000000000002 14.600998120138996  13.611000000000002 14.896498082093736  C 13.628122603933615 15.317866702647663  13.441034478351625 15.721641918709189  13.108500000000001 15.980997942465677  C 12.672 16.274997904613535  12.1485 16.414497886653084  11.6235 16.376997891481157  C 11.083833760912134 16.38311485147857  10.548699322959955 16.27792622550035  10.051500000000003 16.067997931264536  C 9.782286542589386 15.948368798878057  9.51619834547807 15.821826871807094  9.253499999999999 15.688497980124694  C 8.9821498729364 15.544335630869863  8.680245932087884 15.467188126105277  8.373000000000001 15.463498009093176  C 8.097944397165481 15.452075146032108  7.828980269694911 15.546561533936597  7.621500000000001 15.727497975103496  C 7.420801881318695 15.91828530586585  7.313883569269108 16.187500097955272  7.329000000000001 16.463997880280015  C 7.322700063387948 16.722686814328465  7.400610172709983 16.97642105661468  7.551 17.186997787194645  C 7.7323945274307615 17.417019394458823  7.967188130065237 17.599293351983818  8.235 17.71799771882904  C 9.280567289306402 18.17141444967876  10.414040857653156 18.38611850211602  11.553 18.346497637910424  C 12.382400303714814 18.363012177088624  13.207872565385284 18.22831382660903  13.989 17.948997689088067  C 14.636801518129559 17.7191363226041  15.201001009981859 17.30068842002164  15.609000000000002 16.747497843779733  C 16.0095 16.16249791909777  16.212 15.464998008900047  16.188 14.75699810005419  C 16.20362580447655 14.178420790956213  16.058776575330928 13.60681154093254  15.7695 13.105498312682805  C 15.47584021166921 12.628940997718164  15.080392290312496 12.223248363791901  14.611500000000003 11.91749846563636  C 14.017201032824412 11.534123042220534  13.386672195377077 11.210066430433645  12.729 10.94999859020081  C 12.658760136686773 10.915639750400238  12.586059103933184 10.886559341042872  12.511500000000002 10.862998601401955  C 11.998310574786306 10.654976331439098  11.491575670887098 10.431372705693791  10.992 10.192498687728014  C 10.688791941115715 10.05012772792558  10.414253910491873 9.85337549797677  10.182 9.611998762466683  C 9.986803021405604 9.40661855244862  9.879208083192097 9.13332744457221  9.882000000000001 8.849998860573258  C 9.86244382797822 8.410261371214009  10.083721401367987 7.994719384296877  10.459500000000002 7.765499000201315  C 10.897553633686002 7.504343290490711  11.401873423393962 7.375658402040279  11.9115 7.394999047902738  C 12.3015 7.390499048482108  12.691500000000001 7.439999042109044  13.069500000000001 7.538999029362914  C 13.480500000000003 7.6574990141061825  13.8825 7.804498995180111  14.2725 7.978498972777825  C 14.430000000000001 8.051998963314787  14.602500000000003 8.090998958293588  14.776500000000002 8.092498958100464  C 15.033292670015669 8.098820567615832  15.280549645344358 7.995114564825581  15.456 7.807498994793866  C 15.641014835580215 7.605064340971099  15.73812355854858 7.337475894354403  15.725999999999999 7.06349909058296  C 15.730487722456013 6.80243602963664  15.639851736552405 6.548655301780494  15.470999999999997 6.349499182509592  C 15.240201505616152 6.107452769994889  14.953965919591928 5.9252092728603625  14.636999999999999 5.818499250875199  C 14.292962119797616 5.692061360266045  13.937215679664652 5.600109961731326  13.575 5.543999286216739  C 13.068305159245584 5.461072624837859  12.555410924203429 5.421928060079938  12.041999999999998 5.426999301280347  C 11.257416820425249 5.422013739309019  10.477897407599384 5.5529486238244035  9.737999999999998 5.813999251454567  C 9.057413700985085 6.043538141099003  8.449796812614558 6.449306096082159  7.976999999999999 6.989999100045999  C 7.522168071571858 7.528546583849842  7.281844512900879 8.215871873156539  7.302 8.920498851496468  Z " fill-rule="evenodd" />
    </mask>
  </defs>
  <g>
    <path d="M 7.005 0  L 7.006500000000001 0  C 8.3265 0  9.606 0.3704999522985754  10.7085 1.05299986442753  C 14.043352313454939 0.698050127014926  17.36055366931839 1.8651317826879161  19.7385 4.229999455392642  C 21.817375612477946 6.30267272186417  22.9867808429602 9.116907835753032  22.988999999999997 12.052498448255275  C 22.988999999999997 12.568498381820906  22.953 13.082998315579651  22.881 13.591498250110897  C 23.469310046029182 14.636002986472281  23.779228259440245 15.814208576097448  23.781000000000002 17.012997809596932  C 23.78100218212367 18.867878611880606  23.041386009346493 20.646196392506827  21.725999999999996 21.95399717344919  C 20.41042684035827 23.265839893967893  18.627864759901186 24.001740125415164  16.77 23.999996910029175  C 15.51 23.999996910029175  14.283000000000001 23.66099695367501  13.215 23.033997034400503  C 9.835636509694684 23.43746224516086  6.457327319816292 22.273233173092265  4.043999999999999 19.873497441311034  C 1.965771577910349 17.80100408763696  0.7964471752187585 14.987503095172276  0.7935000000000001 12.052498448255275  C 0.7935000000000001 11.50799851835899  0.8325 10.966498588076456  0.9135 10.43099865702143  C -0.642200201731996 7.6989855440743415  -0.17512262398009842 4.263507486870779  2.0535 2.0459997365799882  C 3.368618501409534 0.736233016009835  5.148921978989699 0.0005972599437025333  7.005 0  Z M 7.302 8.920498851496468  C 7.286999999999999 9.475498780040894  7.415999999999999 10.024498709357811  7.6770000000000005 10.514998646206532  C 7.947 10.97849858653147  8.322 11.372998535740074  8.7705 11.668498497694808  C 9.3646251560788 12.057294831638544  9.996294679239442 12.385441327674805  10.656 12.647998371585377  C 11.394 12.955498331995125  11.9655 13.21799829819857  12.3735 13.432498270581954  C 12.716999999999999 13.600498248952157  13.029 13.828498219597432  13.296000000000001 14.104498184062773  C 13.4985 14.31749815663928  13.611000000000002 14.600998120138996  13.611000000000002 14.896498082093736  C 13.628122603933615 15.317866702647663  13.441034478351625 15.721641918709189  13.108500000000001 15.980997942465677  C 12.672 16.274997904613535  12.1485 16.414497886653084  11.6235 16.376997891481157  C 11.083833760912134 16.38311485147857  10.548699322959955 16.27792622550035  10.051500000000003 16.067997931264536  C 9.782286542589386 15.948368798878057  9.51619834547807 15.821826871807094  9.253499999999999 15.688497980124694  C 8.9821498729364 15.544335630869863  8.680245932087884 15.467188126105277  8.373000000000001 15.463498009093176  C 8.097944397165481 15.452075146032108  7.828980269694911 15.546561533936597  7.621500000000001 15.727497975103496  C 7.420801881318695 15.91828530586585  7.313883569269108 16.187500097955272  7.329000000000001 16.463997880280015  C 7.322700063387948 16.722686814328465  7.400610172709983 16.97642105661468  7.551 17.186997787194645  C 7.7323945274307615 17.417019394458823  7.967188130065237 17.599293351983818  8.235 17.71799771882904  C 9.280567289306402 18.17141444967876  10.414040857653156 18.38611850211602  11.553 18.346497637910424  C 12.382400303714814 18.363012177088624  13.207872565385284 18.22831382660903  13.989 17.948997689088067  C 14.636801518129559 17.7191363226041  15.201001009981859 17.30068842002164  15.609000000000002 16.747497843779733  C 16.0095 16.16249791909777  16.212 15.464998008900047  16.188 14.75699810005419  C 16.20362580447655 14.178420790956213  16.058776575330928 13.60681154093254  15.7695 13.105498312682805  C 15.47584021166921 12.628940997718164  15.080392290312496 12.223248363791901  14.611500000000003 11.91749846563636  C 14.017201032824412 11.534123042220534  13.386672195377077 11.210066430433645  12.729 10.94999859020081  C 12.658760136686773 10.915639750400238  12.586059103933184 10.886559341042872  12.511500000000002 10.862998601401955  C 11.998310574786306 10.654976331439098  11.491575670887098 10.431372705693791  10.992 10.192498687728014  C 10.688791941115715 10.05012772792558  10.414253910491873 9.85337549797677  10.182 9.611998762466683  C 9.986803021405604 9.40661855244862  9.879208083192097 9.13332744457221  9.882000000000001 8.849998860573258  C 9.86244382797822 8.410261371214009  10.083721401367987 7.994719384296877  10.459500000000002 7.765499000201315  C 10.897553633686002 7.504343290490711  11.401873423393962 7.375658402040279  11.9115 7.394999047902738  C 12.3015 7.390499048482108  12.691500000000001 7.439999042109044  13.069500000000001 7.538999029362914  C 13.480500000000003 7.6574990141061825  13.8825 7.804498995180111  14.2725 7.978498972777825  C 14.430000000000001 8.051998963314787  14.602500000000003 8.090998958293588  14.776500000000002 8.092498958100464  C 15.033292670015669 8.098820567615832  15.280549645344358 7.995114564825581  15.456 7.807498994793866  C 15.641014835580215 7.605064340971099  15.73812355854858 7.337475894354403  15.725999999999999 7.06349909058296  C 15.730487722456013 6.80243602963664  15.639851736552405 6.548655301780494  15.470999999999997 6.349499182509592  C 15.240201505616152 6.107452769994889  14.953965919591928 5.9252092728603625  14.636999999999999 5.818499250875199  C 14.292962119797616 5.692061360266045  13.937215679664652 5.600109961731326  13.575 5.543999286216739  C 13.068305159245584 5.461072624837859  12.555410924203429 5.421928060079938  12.041999999999998 5.426999301280347  C 11.257416820425249 5.422013739309019  10.477897407599384 5.5529486238244035  9.737999999999998 5.813999251454567  C 9.057413700985085 6.043538141099003  8.449796812614558 6.449306096082159  7.976999999999999 6.989999100045999  C 7.522168071571858 7.528546583849842  7.281844512900879 8.215871873156539  7.302 8.920498851496468  Z " fill-rule="nonzero" fill="rgba(0, 0, 0, 1)" stroke="none" class="fill" />
    <path d="M 7.005 0  L 7.006500000000001 0  C 8.3265 0  9.606 0.3704999522985754  10.7085 1.05299986442753  C 14.043352313454939 0.698050127014926  17.36055366931839 1.8651317826879161  19.7385 4.229999455392642  C 21.817375612477946 6.30267272186417  22.9867808429602 9.116907835753032  22.988999999999997 12.052498448255275  C 22.988999999999997 12.568498381820906  22.953 13.082998315579651  22.881 13.591498250110897  C 23.469310046029182 14.636002986472281  23.779228259440245 15.814208576097448  23.781000000000002 17.012997809596932  C 23.78100218212367 18.867878611880606  23.041386009346493 20.646196392506827  21.725999999999996 21.95399717344919  C 20.41042684035827 23.265839893967893  18.627864759901186 24.001740125415164  16.77 23.999996910029175  C 15.51 23.999996910029175  14.283000000000001 23.66099695367501  13.215 23.033997034400503  C 9.835636509694684 23.43746224516086  6.457327319816292 22.273233173092265  4.043999999999999 19.873497441311034  C 1.965771577910349 17.80100408763696  0.7964471752187585 14.987503095172276  0.7935000000000001 12.052498448255275  C 0.7935000000000001 11.50799851835899  0.8325 10.966498588076456  0.9135 10.43099865702143  C -0.642200201731996 7.6989855440743415  -0.17512262398009842 4.263507486870779  2.0535 2.0459997365799882  C 3.368618501409534 0.736233016009835  5.148921978989699 0.0005972599437025333  7.005 0  Z " stroke-width="0" stroke-dasharray="0" stroke="rgba(255, 255, 255, 0)" fill="none" class="stroke" mask="url(#Clip6270)" />
    <path d="M 7.302 8.920498851496468  C 7.286999999999999 9.475498780040894  7.415999999999999 10.024498709357811  7.6770000000000005 10.514998646206532  C 7.947 10.97849858653147  8.322 11.372998535740074  8.7705 11.668498497694808  C 9.3646251560788 12.057294831638544  9.996294679239442 12.385441327674805  10.656 12.647998371585377  C 11.394 12.955498331995125  11.9655 13.21799829819857  12.3735 13.432498270581954  C 12.716999999999999 13.600498248952157  13.029 13.828498219597432  13.296000000000001 14.104498184062773  C 13.4985 14.31749815663928  13.611000000000002 14.600998120138996  13.611000000000002 14.896498082093736  C 13.628122603933615 15.317866702647663  13.441034478351625 15.721641918709189  13.108500000000001 15.980997942465677  C 12.672 16.274997904613535  12.1485 16.414497886653084  11.6235 16.376997891481157  C 11.083833760912134 16.38311485147857  10.548699322959955 16.27792622550035  10.051500000000003 16.067997931264536  C 9.782286542589386 15.948368798878057  9.51619834547807 15.821826871807094  9.253499999999999 15.688497980124694  C 8.9821498729364 15.544335630869863  8.680245932087884 15.467188126105277  8.373000000000001 15.463498009093176  C 8.097944397165481 15.452075146032108  7.828980269694911 15.546561533936597  7.621500000000001 15.727497975103496  C 7.420801881318695 15.91828530586585  7.313883569269108 16.187500097955272  7.329000000000001 16.463997880280015  C 7.322700063387948 16.722686814328465  7.400610172709983 16.97642105661468  7.551 17.186997787194645  C 7.7323945274307615 17.417019394458823  7.967188130065237 17.599293351983818  8.235 17.71799771882904  C 9.280567289306402 18.17141444967876  10.414040857653156 18.38611850211602  11.553 18.346497637910424  C 12.382400303714814 18.363012177088624  13.207872565385284 18.22831382660903  13.989 17.948997689088067  C 14.636801518129559 17.7191363226041  15.201001009981859 17.30068842002164  15.609000000000002 16.747497843779733  C 16.0095 16.16249791909777  16.212 15.464998008900047  16.188 14.75699810005419  C 16.20362580447655 14.178420790956213  16.058776575330928 13.60681154093254  15.7695 13.105498312682805  C 15.47584021166921 12.628940997718164  15.080392290312496 12.223248363791901  14.611500000000003 11.91749846563636  C 14.017201032824412 11.534123042220534  13.386672195377077 11.210066430433645  12.729 10.94999859020081  C 12.658760136686773 10.915639750400238  12.586059103933184 10.886559341042872  12.511500000000002 10.862998601401955  C 11.998310574786306 10.654976331439098  11.491575670887098 10.431372705693791  10.992 10.192498687728014  C 10.688791941115715 10.05012772792558  10.414253910491873 9.85337549797677  10.182 9.611998762466683  C 9.986803021405604 9.40661855244862  9.879208083192097 9.13332744457221  9.882000000000001 8.849998860573258  C 9.86244382797822 8.410261371214009  10.083721401367987 7.994719384296877  10.459500000000002 7.765499000201315  C 10.897553633686002 7.504343290490711  11.401873423393962 7.375658402040279  11.9115 7.394999047902738  C 12.3015 7.390499048482108  12.691500000000001 7.439999042109044  13.069500000000001 7.538999029362914  C 13.480500000000003 7.6574990141061825  13.8825 7.804498995180111  14.2725 7.978498972777825  C 14.430000000000001 8.051998963314787  14.602500000000003 8.090998958293588  14.776500000000002 8.092498958100464  C 15.033292670015669 8.098820567615832  15.280549645344358 7.995114564825581  15.456 7.807498994793866  C 15.641014835580215 7.605064340971099  15.73812355854858 7.337475894354403  15.725999999999999 7.06349909058296  C 15.730487722456013 6.80243602963664  15.639851736552405 6.548655301780494  15.470999999999997 6.349499182509592  C 15.240201505616152 6.107452769994889  14.953965919591928 5.9252092728603625  14.636999999999999 5.818499250875199  C 14.292962119797616 5.692061360266045  13.937215679664652 5.600109961731326  13.575 5.543999286216739  C 13.068305159245584 5.461072624837859  12.555410924203429 5.421928060079938  12.041999999999998 5.426999301280347  C 11.257416820425249 5.422013739309019  10.477897407599384 5.5529486238244035  9.737999999999998 5.813999251454567  C 9.057413700985085 6.043538141099003  8.449796812614558 6.449306096082159  7.976999999999999 6.989999100045999  C 7.522168071571858 7.528546583849842  7.281844512900879 8.215871873156539  7.302 8.920498851496468  Z " stroke-width="0" stroke-dasharray="0" stroke="rgba(255, 255, 255, 0)" fill="none" class="stroke" mask="url(#Clip6270)" />
  </g>
</svg>