<?xml version="1.0" encoding="utf-8"?>
<svg version="1.1" xmlns:xlink="http://www.w3.org/1999/xlink" width="36px" height="44px" xmlns="http://www.w3.org/2000/svg">
  <defs>
    <pattern id="BGPattern" patternUnits="userSpaceOnUse" alignment="0 0" imageRepeat="None" />
    <mask fill="white" id="Clip3101">
      <path d="M 19.237499999999997 12.825  C 18.51284303650695 13.393716264593483  17.493406963493037 13.393716264593486  16.76875 12.825  L 1 0.06874999999999964  L 1 43  L 35 43  L 35 0.06874999999999964  L 19.237499999999997 12.825  Z M 22.51249999999999 16.91875  C 22.60419082617691 16.744194341460602  22.78409496150669 16.633853138458335  22.981250000000003 16.631249999999998  L 25.96875 16.631249999999998  C 26.258713573973658 16.63364485008276  26.492513289846734 16.869383524809837  26.492513289846734 17.15935698831727  C 26.492513289846734 17.245416954841577  26.471482150192656 17.33017311830102  26.43125 17.406249999999996  L 20.981249999999996 27.46875  L 23.849999999999994 27.46875  C 24.137499999999996 27.46875  24.374999999999993 27.706249999999997  24.374999999999993 27.99375  L 24.374999999999993 29.5625  C 24.374999999999993 29.85  24.137499999999996 30.087499999999995  23.849999999999994 30.087499999999995  L 19.893749999999997 30.087499999999995  L 19.893749999999997 31.875000000000004  L 23.849999999999994 31.875000000000004  C 24.137499999999996 31.875000000000004  24.374999999999993 32.1125  24.374999999999993 32.4  L 24.374999999999993 33.9625  C 24.387499999999996 34.25625  24.156249999999993 34.49375  23.86249999999999 34.49375  L 19.906249999999993 34.49375  L 19.906249999999993 37.6125  C 19.906249999999993 37.9  19.668749999999996 38.137499999999996  19.381249999999994 38.137499999999996  L 16.649999999999995 38.137499999999996  C 16.362499999999994 38.137499999999996  16.124999999999996 37.9  16.124999999999996 37.6125  L 16.124999999999996 34.49375  L 12.187499999999996 34.49375  C 11.899999999999995 34.49375  11.662499999999998 34.25625  11.662499999999998 33.96875  L 11.662499999999998 32.4  C 11.662499999999998 32.1125  11.899999999999999 31.875000000000004  12.187499999999996 31.875000000000004  L 16.124999999999996 31.875000000000004  L 16.124999999999996 30.087499999999995  L 12.187499999999996 30.087499999999995  C 11.899999999999995 30.087499999999995  11.662499999999998 29.85  11.662499999999998 29.5625  L 11.662499999999998 27.99375  C 11.662499999999998 27.706249999999997  11.899999999999999 27.46875  12.187499999999996 27.46875  L 15.024999999999995 27.46875  L 9.5625 17.4  C 9.520821432398662 17.323155196738675  9.498991648133213 17.237119094097988  9.498991648133213 17.149699263478325  C 9.498991648133213 16.956597337254273  9.604997013186662 16.77908241308233  9.774999999999999 16.6875  C 9.85625 16.65  9.9375 16.625  10.018749999999997 16.625  L 13.068749999999998 16.625  C 13.268749999999997 16.625  13.45 16.7375  13.537499999999998 16.9125  L 18.018749999999997 25.787499999999998  L 22.51249999999999 16.91875  Z " fill-rule="evenodd" />
    </mask>
  </defs>
  <g transform="matrix(1 0 0 1 -4 -8 )">
    <path d="M 19.237499999999997 12.825  C 18.51284303650695 13.393716264593483  17.493406963493037 13.393716264593486  16.76875 12.825  L 1 0.06874999999999964  L 1 43  L 35 43  L 35 0.06874999999999964  L 19.237499999999997 12.825  Z M 22.51249999999999 16.91875  C 22.60419082617691 16.744194341460602  22.78409496150669 16.633853138458335  22.981250000000003 16.631249999999998  L 25.96875 16.631249999999998  C 26.258713573973658 16.63364485008276  26.492513289846734 16.869383524809837  26.492513289846734 17.15935698831727  C 26.492513289846734 17.245416954841577  26.471482150192656 17.33017311830102  26.43125 17.406249999999996  L 20.981249999999996 27.46875  L 23.849999999999994 27.46875  C 24.137499999999996 27.46875  24.374999999999993 27.706249999999997  24.374999999999993 27.99375  L 24.374999999999993 29.5625  C 24.374999999999993 29.85  24.137499999999996 30.087499999999995  23.849999999999994 30.087499999999995  L 19.893749999999997 30.087499999999995  L 19.893749999999997 31.875000000000004  L 23.849999999999994 31.875000000000004  C 24.137499999999996 31.875000000000004  24.374999999999993 32.1125  24.374999999999993 32.4  L 24.374999999999993 33.9625  C 24.387499999999996 34.25625  24.156249999999993 34.49375  23.86249999999999 34.49375  L 19.906249999999993 34.49375  L 19.906249999999993 37.6125  C 19.906249999999993 37.9  19.668749999999996 38.137499999999996  19.381249999999994 38.137499999999996  L 16.649999999999995 38.137499999999996  C 16.362499999999994 38.137499999999996  16.124999999999996 37.9  16.124999999999996 37.6125  L 16.124999999999996 34.49375  L 12.187499999999996 34.49375  C 11.899999999999995 34.49375  11.662499999999998 34.25625  11.662499999999998 33.96875  L 11.662499999999998 32.4  C 11.662499999999998 32.1125  11.899999999999999 31.875000000000004  12.187499999999996 31.875000000000004  L 16.124999999999996 31.875000000000004  L 16.124999999999996 30.087499999999995  L 12.187499999999996 30.087499999999995  C 11.899999999999995 30.087499999999995  11.662499999999998 29.85  11.662499999999998 29.5625  L 11.662499999999998 27.99375  C 11.662499999999998 27.706249999999997  11.899999999999999 27.46875  12.187499999999996 27.46875  L 15.024999999999995 27.46875  L 9.5625 17.4  C 9.520821432398662 17.323155196738675  9.498991648133213 17.237119094097988  9.498991648133213 17.149699263478325  C 9.498991648133213 16.956597337254273  9.604997013186662 16.77908241308233  9.774999999999999 16.6875  C 9.85625 16.65  9.9375 16.625  10.018749999999997 16.625  L 13.068749999999998 16.625  C 13.268749999999997 16.625  13.45 16.7375  13.537499999999998 16.9125  L 18.018749999999997 25.787499999999998  L 22.51249999999999 16.91875  Z " fill-rule="nonzero" fill="rgba(230, 230, 230, 1)" stroke="none" transform="matrix(1 0 0 1 4 8 )" class="fill" />
    <path d="M 19.237499999999997 12.825  C 18.51284303650695 13.393716264593483  17.493406963493037 13.393716264593486  16.76875 12.825  L 1 0.06874999999999964  L 1 43  L 35 43  L 35 0.06874999999999964  L 19.237499999999997 12.825  Z " stroke-width="0" stroke-dasharray="0" stroke="rgba(255, 255, 255, 0)" fill="none" transform="matrix(1 0 0 1 4 8 )" class="stroke" mask="url(#Clip3101)" />
    <path d="M 22.51249999999999 16.91875  C 22.60419082617691 16.744194341460602  22.78409496150669 16.633853138458335  22.981250000000003 16.631249999999998  L 25.96875 16.631249999999998  C 26.258713573973658 16.63364485008276  26.492513289846734 16.869383524809837  26.492513289846734 17.15935698831727  C 26.492513289846734 17.245416954841577  26.471482150192656 17.33017311830102  26.43125 17.406249999999996  L 20.981249999999996 27.46875  L 23.849999999999994 27.46875  C 24.137499999999996 27.46875  24.374999999999993 27.706249999999997  24.374999999999993 27.99375  L 24.374999999999993 29.5625  C 24.374999999999993 29.85  24.137499999999996 30.087499999999995  23.849999999999994 30.087499999999995  L 19.893749999999997 30.087499999999995  L 19.893749999999997 31.875000000000004  L 23.849999999999994 31.875000000000004  C 24.137499999999996 31.875000000000004  24.374999999999993 32.1125  24.374999999999993 32.4  L 24.374999999999993 33.9625  C 24.387499999999996 34.25625  24.156249999999993 34.49375  23.86249999999999 34.49375  L 19.906249999999993 34.49375  L 19.906249999999993 37.6125  C 19.906249999999993 37.9  19.668749999999996 38.137499999999996  19.381249999999994 38.137499999999996  L 16.649999999999995 38.137499999999996  C 16.362499999999994 38.137499999999996  16.124999999999996 37.9  16.124999999999996 37.6125  L 16.124999999999996 34.49375  L 12.187499999999996 34.49375  C 11.899999999999995 34.49375  11.662499999999998 34.25625  11.662499999999998 33.96875  L 11.662499999999998 32.4  C 11.662499999999998 32.1125  11.899999999999999 31.875000000000004  12.187499999999996 31.875000000000004  L 16.124999999999996 31.875000000000004  L 16.124999999999996 30.087499999999995  L 12.187499999999996 30.087499999999995  C 11.899999999999995 30.087499999999995  11.662499999999998 29.85  11.662499999999998 29.5625  L 11.662499999999998 27.99375  C 11.662499999999998 27.706249999999997  11.899999999999999 27.46875  12.187499999999996 27.46875  L 15.024999999999995 27.46875  L 9.5625 17.4  C 9.520821432398662 17.323155196738675  9.498991648133213 17.237119094097988  9.498991648133213 17.149699263478325  C 9.498991648133213 16.956597337254273  9.604997013186662 16.77908241308233  9.774999999999999 16.6875  C 9.85625 16.65  9.9375 16.625  10.018749999999997 16.625  L 13.068749999999998 16.625  C 13.268749999999997 16.625  13.45 16.7375  13.537499999999998 16.9125  L 18.018749999999997 25.787499999999998  L 22.51249999999999 16.91875  Z " stroke-width="0" stroke-dasharray="0" stroke="rgba(255, 255, 255, 0)" fill="none" transform="matrix(1 0 0 1 4 8 )" class="stroke" mask="url(#Clip3101)" />
  </g>
</svg>