<?xml version="1.0" encoding="utf-8"?>
<svg version="1.1" xmlns:xlink="http://www.w3.org/1999/xlink" width="16px" height="16px" xmlns="http://www.w3.org/2000/svg">
  <defs>
    <pattern id="BGPattern" patternUnits="userSpaceOnUse" alignment="0 0" imageRepeat="None" />
    <mask fill="white" id="Clip4235">
      <path d="M 2 16  C 0.8959559279449092 15.998732534440702  0.0012674655592963546 15.104044072055089  0 14  L 0 2  C 0.0012674655592963546 0.8959559279449092  0.8959559279449092 0.0012674655592963546  2 0  L 14 0  C 15.104044072055089 0.0012674655592963546  15.998732534440702 0.8959559279449092  16 2  L 16 14  C 15.998732534440702 15.104044072055089  15.104044072055089 15.998732534440702  14 16  L 2 16  Z M 14 2  L 2 2  L 2 14  L 14 14  L 14 2  Z " fill-rule="evenodd" />
    </mask>
  </defs>
  <g transform="matrix(1 0 0 1 -14 -14 )">
    <path d="M 2 16  C 0.8959559279449092 15.998732534440702  0.0012674655592963546 15.104044072055089  0 14  L 0 2  C 0.0012674655592963546 0.8959559279449092  0.8959559279449092 0.0012674655592963546  2 0  L 14 0  C 15.104044072055089 0.0012674655592963546  15.998732534440702 0.8959559279449092  16 2  L 16 14  C 15.998732534440702 15.104044072055089  15.104044072055089 15.998732534440702  14 16  L 2 16  Z M 14 2  L 2 2  L 2 14  L 14 14  L 14 2  Z " fill-rule="nonzero" fill="rgba(0, 0, 0, 1)" stroke="none" transform="matrix(1 0 0 1 14 14 )" class="fill" />
    <path d="M 2 16  C 0.8959559279449092 15.998732534440702  0.0012674655592963546 15.104044072055089  0 14  L 0 2  C 0.0012674655592963546 0.8959559279449092  0.8959559279449092 0.0012674655592963546  2 0  L 14 0  C 15.104044072055089 0.0012674655592963546  15.998732534440702 0.8959559279449092  16 2  L 16 14  C 15.998732534440702 15.104044072055089  15.104044072055089 15.998732534440702  14 16  L 2 16  Z " stroke-width="0" stroke-dasharray="0" stroke="rgba(255, 255, 255, 0)" fill="none" transform="matrix(1 0 0 1 14 14 )" class="stroke" mask="url(#Clip4235)" />
    <path d="M 14 2  L 2 2  L 2 14  L 14 14  L 14 2  Z " stroke-width="0" stroke-dasharray="0" stroke="rgba(255, 255, 255, 0)" fill="none" transform="matrix(1 0 0 1 14 14 )" class="stroke" mask="url(#Clip4235)" />
  </g>
</svg>