<?xml version="1.0" encoding="utf-8"?>
<svg version="1.1" xmlns:xlink="http://www.w3.org/1999/xlink" width="48px" height="48px" xmlns="http://www.w3.org/2000/svg">
  <defs>
    <pattern id="BGPattern" patternUnits="userSpaceOnUse" alignment="0 0" imageRepeat="None" />
    <mask fill="white" id="Clip7432">
      <path d="M 46.178 16.90200000000001  L 45.96 17.132  C 46.6 18.346  47.086 19.682000000000002  47.424 21.142000000000003  C 47.764 22.602000000000004  47.952 24.132000000000005  47.994 25.726000000000006  C 48.034 27.316000000000003  47.872 28.936000000000007  47.514 30.558000000000007  C 47.154 32.188  46.620000000000005 33.78  45.92 35.334  C 45.22 36.888000000000005  44.260000000000005 38.364000000000004  43.038000000000004 39.774  C 41.812000000000005 41.186  40.412000000000006 42.452  38.824000000000005 43.576  C 37.26200000000001 44.684  35.34400000000001 45.644  33.124 46.394  C 30.902 47.174  28.472 47.684  25.832 47.984  L 25.234 46.542  C 25.381999999999998 46.512  25.562 46.452  25.832 46.364000000000004  C 26.106 46.272000000000006  26.582 46.094  27.274 45.76200000000001  C 27.992000000000004 45.46200000000001  28.652 45.104000000000006  29.314 44.68200000000001  C 29.974 44.26200000000001  30.692 43.69200000000001  31.474 42.94200000000001  C 32.282000000000004 42.19200000000001  32.942 41.38400000000001  33.514 40.51200000000001  C 34.084 39.614000000000004  34.564 38.53200000000001  34.956 37.214000000000006  C 35.346000000000004 35.894000000000005  35.558 34.48400000000001  35.558 32.98400000000001  C 35.558 31.54200000000001  35.378 30.22200000000001  34.988 28.964000000000006  C 34.598 27.702000000000012  34.086 26.65400000000001  33.456 25.72200000000001  C 32.828 24.824000000000012  32.108000000000004 23.95200000000001  31.358000000000004 23.14400000000001  C 30.608000000000004 22.33400000000001  29.826000000000008 21.55400000000001  29.076000000000008 20.83400000000001  C 28.294000000000004 20.11400000000001  27.608000000000004 19.36400000000001  26.944000000000003 18.64400000000001  C 26.316000000000003 17.922000000000008  25.776000000000003 17.11200000000001  25.386000000000003 16.21400000000001  C 24.996000000000002 15.314000000000007  24.786 14.382000000000009  24.786 13.394000000000009  C 24.786 11.62400000000001  25.508000000000003 10.094000000000008  26.886000000000003 8.83400000000001  C 28.296 7.5420000000000105  30.214 6.91400000000001  32.676 6.91400000000001  C 33.398 6.91400000000001  34.118 6.97200000000001  34.868 7.124000000000011  C 35.618 7.272000000000011  36.516000000000005 7.5420000000000105  37.536 7.99400000000001  C 38.56 8.44600000000001  39.52 9.01400000000001  40.446 9.70200000000001  C 41.379999999999995 10.39400000000001  42.367999999999995 11.38200000000001  43.388 12.612000000000009  C 44.408 13.850000000000009  45.342 15.28200000000001  46.178 16.90200000000001  Z M 1.943999999999999 31.011999999999993  L 2.04 30.902  C 1.4020000000000001 29.688000000000002  0.9140000000000001 28.352  0.5780000000000001 26.89  C 0.24000000000000005 25.428000000000004  0.04800000000000004 23.902  0.008000000000000118 22.308  C -0.033999999999999884 20.716  0.13000000000000012 19.098  0.4880000000000001 17.476  C 0.8500000000000001 15.844000000000001  1.3780000000000001 14.251999999999999  2.0780000000000003 12.7  C 2.782 11.145999999999999  3.742 9.668  4.958 8.259999999999998  C 6.188000000000001 6.849999999999998  7.587999999999999 5.579999999999998  9.176 4.459999999999998  C 10.736 3.347999999999998  12.654 2.3899999999999983  14.878 1.6399999999999983  C 17.1 0.8540000000000001  19.53 0.316  22.17 0.014000000000000002  L 22.768 1.436  C 22.642 1.464  22.452 1.524  22.198 1.5959999999999996  C 21.95 1.674  21.48 1.866  20.774 2.182  C 20.074 2.4939999999999998  19.400000000000002 2.85  18.748 3.2560000000000002  C 18.104000000000003 3.66  17.388 4.234  16.604 4.978  C 15.819999999999997 5.7219999999999995  15.143999999999998 6.532  14.579999999999998 7.4079999999999995  C 14.012 8.286  13.537999999999998 9.378  13.148 10.687999999999999  C 12.756 11.995999999999999  12.565999999999995 13.398  12.565999999999995 14.902000000000001  C 12.565999999999995 16.322  12.745999999999999 17.652  13.167999999999996 18.902  C 13.558 20.152  14.065999999999995 21.226  14.697999999999997 22.128  C 15.328 23.06  16.048 23.898  16.798 24.742  C 17.548 25.580000000000002  18.33 26.330000000000002  19.08 27.050000000000004  C 19.83 27.768  20.548 28.518  21.18 29.242  C 21.838 29.992  22.35 30.800000000000004  22.74 31.67  C 23.13 32.57  23.337999999999997 33.5  23.337999999999997 34.49  C 23.337999999999997 36.288000000000004  22.619999999999997 37.822  21.24 39.082  C 19.828 40.372  17.906 41  15.445999999999998 41  C 14.727999999999998 41  14.005999999999997 40.94  13.255999999999997 40.79  C 12.505999999999997 40.641999999999996  11.605999999999998 40.372  10.615999999999998 39.92  C 9.595999999999998 39.468  8.635999999999997 38.9  7.675999999999998 38.21  C 6.743999999999998 37.52  5.7559999999999985 36.53  4.735999999999999 35.3  C 3.7159999999999993 34.071999999999996  2.7859999999999987 32.632  1.943999999999999 31.011999999999993  Z " fill-rule="evenodd" />
    </mask>
  </defs>
  <g>
    <path d="M 46.178 16.90200000000001  L 45.96 17.132  C 46.6 18.346  47.086 19.682000000000002  47.424 21.142000000000003  C 47.764 22.602000000000004  47.952 24.132000000000005  47.994 25.726000000000006  C 48.034 27.316000000000003  47.872 28.936000000000007  47.514 30.558000000000007  C 47.154 32.188  46.620000000000005 33.78  45.92 35.334  C 45.22 36.888000000000005  44.260000000000005 38.364000000000004  43.038000000000004 39.774  C 41.812000000000005 41.186  40.412000000000006 42.452  38.824000000000005 43.576  C 37.26200000000001 44.684  35.34400000000001 45.644  33.124 46.394  C 30.902 47.174  28.472 47.684  25.832 47.984  L 25.234 46.542  C 25.381999999999998 46.512  25.562 46.452  25.832 46.364000000000004  C 26.106 46.272000000000006  26.582 46.094  27.274 45.76200000000001  C 27.992000000000004 45.46200000000001  28.652 45.104000000000006  29.314 44.68200000000001  C 29.974 44.26200000000001  30.692 43.69200000000001  31.474 42.94200000000001  C 32.282000000000004 42.19200000000001  32.942 41.38400000000001  33.514 40.51200000000001  C 34.084 39.614000000000004  34.564 38.53200000000001  34.956 37.214000000000006  C 35.346000000000004 35.894000000000005  35.558 34.48400000000001  35.558 32.98400000000001  C 35.558 31.54200000000001  35.378 30.22200000000001  34.988 28.964000000000006  C 34.598 27.702000000000012  34.086 26.65400000000001  33.456 25.72200000000001  C 32.828 24.824000000000012  32.108000000000004 23.95200000000001  31.358000000000004 23.14400000000001  C 30.608000000000004 22.33400000000001  29.826000000000008 21.55400000000001  29.076000000000008 20.83400000000001  C 28.294000000000004 20.11400000000001  27.608000000000004 19.36400000000001  26.944000000000003 18.64400000000001  C 26.316000000000003 17.922000000000008  25.776000000000003 17.11200000000001  25.386000000000003 16.21400000000001  C 24.996000000000002 15.314000000000007  24.786 14.382000000000009  24.786 13.394000000000009  C 24.786 11.62400000000001  25.508000000000003 10.094000000000008  26.886000000000003 8.83400000000001  C 28.296 7.5420000000000105  30.214 6.91400000000001  32.676 6.91400000000001  C 33.398 6.91400000000001  34.118 6.97200000000001  34.868 7.124000000000011  C 35.618 7.272000000000011  36.516000000000005 7.5420000000000105  37.536 7.99400000000001  C 38.56 8.44600000000001  39.52 9.01400000000001  40.446 9.70200000000001  C 41.379999999999995 10.39400000000001  42.367999999999995 11.38200000000001  43.388 12.612000000000009  C 44.408 13.850000000000009  45.342 15.28200000000001  46.178 16.90200000000001  Z M 1.943999999999999 31.011999999999993  L 2.04 30.902  C 1.4020000000000001 29.688000000000002  0.9140000000000001 28.352  0.5780000000000001 26.89  C 0.24000000000000005 25.428000000000004  0.04800000000000004 23.902  0.008000000000000118 22.308  C -0.033999999999999884 20.716  0.13000000000000012 19.098  0.4880000000000001 17.476  C 0.8500000000000001 15.844000000000001  1.3780000000000001 14.251999999999999  2.0780000000000003 12.7  C 2.782 11.145999999999999  3.742 9.668  4.958 8.259999999999998  C 6.188000000000001 6.849999999999998  7.587999999999999 5.579999999999998  9.176 4.459999999999998  C 10.736 3.347999999999998  12.654 2.3899999999999983  14.878 1.6399999999999983  C 17.1 0.8540000000000001  19.53 0.316  22.17 0.014000000000000002  L 22.768 1.436  C 22.642 1.464  22.452 1.524  22.198 1.5959999999999996  C 21.95 1.674  21.48 1.866  20.774 2.182  C 20.074 2.4939999999999998  19.400000000000002 2.85  18.748 3.2560000000000002  C 18.104000000000003 3.66  17.388 4.234  16.604 4.978  C 15.819999999999997 5.7219999999999995  15.143999999999998 6.532  14.579999999999998 7.4079999999999995  C 14.012 8.286  13.537999999999998 9.378  13.148 10.687999999999999  C 12.756 11.995999999999999  12.565999999999995 13.398  12.565999999999995 14.902000000000001  C 12.565999999999995 16.322  12.745999999999999 17.652  13.167999999999996 18.902  C 13.558 20.152  14.065999999999995 21.226  14.697999999999997 22.128  C 15.328 23.06  16.048 23.898  16.798 24.742  C 17.548 25.580000000000002  18.33 26.330000000000002  19.08 27.050000000000004  C 19.83 27.768  20.548 28.518  21.18 29.242  C 21.838 29.992  22.35 30.800000000000004  22.74 31.67  C 23.13 32.57  23.337999999999997 33.5  23.337999999999997 34.49  C 23.337999999999997 36.288000000000004  22.619999999999997 37.822  21.24 39.082  C 19.828 40.372  17.906 41  15.445999999999998 41  C 14.727999999999998 41  14.005999999999997 40.94  13.255999999999997 40.79  C 12.505999999999997 40.641999999999996  11.605999999999998 40.372  10.615999999999998 39.92  C 9.595999999999998 39.468  8.635999999999997 38.9  7.675999999999998 38.21  C 6.743999999999998 37.52  5.7559999999999985 36.53  4.735999999999999 35.3  C 3.7159999999999993 34.071999999999996  2.7859999999999987 32.632  1.943999999999999 31.011999999999993  Z " fill-rule="nonzero" fill="rgba(58, 152, 217, 1)" stroke="none" class="fill" />
    <path d="M 46.178 16.90200000000001  L 45.96 17.132  C 46.6 18.346  47.086 19.682000000000002  47.424 21.142000000000003  C 47.764 22.602000000000004  47.952 24.132000000000005  47.994 25.726000000000006  C 48.034 27.316000000000003  47.872 28.936000000000007  47.514 30.558000000000007  C 47.154 32.188  46.620000000000005 33.78  45.92 35.334  C 45.22 36.888000000000005  44.260000000000005 38.364000000000004  43.038000000000004 39.774  C 41.812000000000005 41.186  40.412000000000006 42.452  38.824000000000005 43.576  C 37.26200000000001 44.684  35.34400000000001 45.644  33.124 46.394  C 30.902 47.174  28.472 47.684  25.832 47.984  L 25.234 46.542  C 25.381999999999998 46.512  25.562 46.452  25.832 46.364000000000004  C 26.106 46.272000000000006  26.582 46.094  27.274 45.76200000000001  C 27.992000000000004 45.46200000000001  28.652 45.104000000000006  29.314 44.68200000000001  C 29.974 44.26200000000001  30.692 43.69200000000001  31.474 42.94200000000001  C 32.282000000000004 42.19200000000001  32.942 41.38400000000001  33.514 40.51200000000001  C 34.084 39.614000000000004  34.564 38.53200000000001  34.956 37.214000000000006  C 35.346000000000004 35.894000000000005  35.558 34.48400000000001  35.558 32.98400000000001  C 35.558 31.54200000000001  35.378 30.22200000000001  34.988 28.964000000000006  C 34.598 27.702000000000012  34.086 26.65400000000001  33.456 25.72200000000001  C 32.828 24.824000000000012  32.108000000000004 23.95200000000001  31.358000000000004 23.14400000000001  C 30.608000000000004 22.33400000000001  29.826000000000008 21.55400000000001  29.076000000000008 20.83400000000001  C 28.294000000000004 20.11400000000001  27.608000000000004 19.36400000000001  26.944000000000003 18.64400000000001  C 26.316000000000003 17.922000000000008  25.776000000000003 17.11200000000001  25.386000000000003 16.21400000000001  C 24.996000000000002 15.314000000000007  24.786 14.382000000000009  24.786 13.394000000000009  C 24.786 11.62400000000001  25.508000000000003 10.094000000000008  26.886000000000003 8.83400000000001  C 28.296 7.5420000000000105  30.214 6.91400000000001  32.676 6.91400000000001  C 33.398 6.91400000000001  34.118 6.97200000000001  34.868 7.124000000000011  C 35.618 7.272000000000011  36.516000000000005 7.5420000000000105  37.536 7.99400000000001  C 38.56 8.44600000000001  39.52 9.01400000000001  40.446 9.70200000000001  C 41.379999999999995 10.39400000000001  42.367999999999995 11.38200000000001  43.388 12.612000000000009  C 44.408 13.850000000000009  45.342 15.28200000000001  46.178 16.90200000000001  Z " stroke-width="0" stroke-dasharray="0" stroke="rgba(255, 255, 255, 0)" fill="none" class="stroke" mask="url(#Clip7432)" />
    <path d="M 1.943999999999999 31.011999999999993  L 2.04 30.902  C 1.4020000000000001 29.688000000000002  0.9140000000000001 28.352  0.5780000000000001 26.89  C 0.24000000000000005 25.428000000000004  0.04800000000000004 23.902  0.008000000000000118 22.308  C -0.033999999999999884 20.716  0.13000000000000012 19.098  0.4880000000000001 17.476  C 0.8500000000000001 15.844000000000001  1.3780000000000001 14.251999999999999  2.0780000000000003 12.7  C 2.782 11.145999999999999  3.742 9.668  4.958 8.259999999999998  C 6.188000000000001 6.849999999999998  7.587999999999999 5.579999999999998  9.176 4.459999999999998  C 10.736 3.347999999999998  12.654 2.3899999999999983  14.878 1.6399999999999983  C 17.1 0.8540000000000001  19.53 0.316  22.17 0.014000000000000002  L 22.768 1.436  C 22.642 1.464  22.452 1.524  22.198 1.5959999999999996  C 21.95 1.674  21.48 1.866  20.774 2.182  C 20.074 2.4939999999999998  19.400000000000002 2.85  18.748 3.2560000000000002  C 18.104000000000003 3.66  17.388 4.234  16.604 4.978  C 15.819999999999997 5.7219999999999995  15.143999999999998 6.532  14.579999999999998 7.4079999999999995  C 14.012 8.286  13.537999999999998 9.378  13.148 10.687999999999999  C 12.756 11.995999999999999  12.565999999999995 13.398  12.565999999999995 14.902000000000001  C 12.565999999999995 16.322  12.745999999999999 17.652  13.167999999999996 18.902  C 13.558 20.152  14.065999999999995 21.226  14.697999999999997 22.128  C 15.328 23.06  16.048 23.898  16.798 24.742  C 17.548 25.580000000000002  18.33 26.330000000000002  19.08 27.050000000000004  C 19.83 27.768  20.548 28.518  21.18 29.242  C 21.838 29.992  22.35 30.800000000000004  22.74 31.67  C 23.13 32.57  23.337999999999997 33.5  23.337999999999997 34.49  C 23.337999999999997 36.288000000000004  22.619999999999997 37.822  21.24 39.082  C 19.828 40.372  17.906 41  15.445999999999998 41  C 14.727999999999998 41  14.005999999999997 40.94  13.255999999999997 40.79  C 12.505999999999997 40.641999999999996  11.605999999999998 40.372  10.615999999999998 39.92  C 9.595999999999998 39.468  8.635999999999997 38.9  7.675999999999998 38.21  C 6.743999999999998 37.52  5.7559999999999985 36.53  4.735999999999999 35.3  C 3.7159999999999993 34.071999999999996  2.7859999999999987 32.632  1.943999999999999 31.011999999999993  Z " stroke-width="0" stroke-dasharray="0" stroke="rgba(255, 255, 255, 0)" fill="none" class="stroke" mask="url(#Clip7432)" />
  </g>
</svg>