<?xml version="1.0" encoding="utf-8"?>
<svg version="1.1" xmlns:xlink="http://www.w3.org/1999/xlink" width="24px" height="24px" xmlns="http://www.w3.org/2000/svg">
  <defs>
    <pattern id="BGPattern" patternUnits="userSpaceOnUse" alignment="0 0" imageRepeat="None" />
    <mask fill="white" id="Clip4996">
      <path d="M 21 24  C 22.65685424949238 24  24 22.65685424949238  24 21  L 24 7.5  L 0 7.5  L 0 21  C 0 22.65685424949238  1.3431457505076196 24  3 24  L 21 24  Z M 6 1.5  L 6 0.75  C 6 0.3357864376269049  5.664213562373095 0  5.25 0  C 4.835786437626905 0  4.5 0.3357864376269049  4.5 0.75  L 4.5 1.5  L 3 1.5  C 1.3431457505076196 1.5  0 2.8431457505076194  0 4.5  L 0 6  L 24 6  L 24 4.5  C 24 2.8431457505076194  22.65685424949238 1.5  21 1.5  L 19.5 1.5  L 19.5 0.75  C 19.5 0.3357864376269049  19.164213562373096 0  18.75 0  C 18.335786437626904 0  18 0.3357864376269049  18 0.75  L 18 1.5  L 6 1.5  Z M 18 11.25  C 18 10.835786437626904  18.335786437626904 10.5  18.75 10.5  L 20.25 10.5  C 20.664213562373096 10.5  21 10.835786437626904  21 11.25  L 21 12.75  C 21 13.164213562373096  20.664213562373096 13.5  20.25 13.5  L 18.75 13.5  C 18.335786437626904 13.5  18 13.164213562373096  18 12.75  L 18 11.25  Z " fill-rule="evenodd" />
    </mask>
  </defs>
  <g>
    <path d="M 21 24  C 22.65685424949238 24  24 22.65685424949238  24 21  L 24 7.5  L 0 7.5  L 0 21  C 0 22.65685424949238  1.3431457505076196 24  3 24  L 21 24  Z M 6 1.5  L 6 0.75  C 6 0.3357864376269049  5.664213562373095 0  5.25 0  C 4.835786437626905 0  4.5 0.3357864376269049  4.5 0.75  L 4.5 1.5  L 3 1.5  C 1.3431457505076196 1.5  0 2.8431457505076194  0 4.5  L 0 6  L 24 6  L 24 4.5  C 24 2.8431457505076194  22.65685424949238 1.5  21 1.5  L 19.5 1.5  L 19.5 0.75  C 19.5 0.3357864376269049  19.164213562373096 0  18.75 0  C 18.335786437626904 0  18 0.3357864376269049  18 0.75  L 18 1.5  L 6 1.5  Z M 18 11.25  C 18 10.835786437626904  18.335786437626904 10.5  18.75 10.5  L 20.25 10.5  C 20.664213562373096 10.5  21 10.835786437626904  21 11.25  L 21 12.75  C 21 13.164213562373096  20.664213562373096 13.5  20.25 13.5  L 18.75 13.5  C 18.335786437626904 13.5  18 13.164213562373096  18 12.75  L 18 11.25  Z " fill-rule="nonzero" fill="rgba(0, 0, 0, 1)" stroke="none" class="fill" />
    <path d="M 21 24  C 22.65685424949238 24  24 22.65685424949238  24 21  L 24 7.5  L 0 7.5  L 0 21  C 0 22.65685424949238  1.3431457505076196 24  3 24  L 21 24  Z " stroke-width="0" stroke-dasharray="0" stroke="rgba(255, 255, 255, 0)" fill="none" class="stroke" mask="url(#Clip4996)" />
    <path d="M 6 1.5  L 6 0.75  C 6 0.3357864376269049  5.664213562373095 0  5.25 0  C 4.835786437626905 0  4.5 0.3357864376269049  4.5 0.75  L 4.5 1.5  L 3 1.5  C 1.3431457505076196 1.5  0 2.8431457505076194  0 4.5  L 0 6  L 24 6  L 24 4.5  C 24 2.8431457505076194  22.65685424949238 1.5  21 1.5  L 19.5 1.5  L 19.5 0.75  C 19.5 0.3357864376269049  19.164213562373096 0  18.75 0  C 18.335786437626904 0  18 0.3357864376269049  18 0.75  L 18 1.5  L 6 1.5  Z " stroke-width="0" stroke-dasharray="0" stroke="rgba(255, 255, 255, 0)" fill="none" class="stroke" mask="url(#Clip4996)" />
    <path d="M 18 11.25  C 18 10.835786437626904  18.335786437626904 10.5  18.75 10.5  L 20.25 10.5  C 20.664213562373096 10.5  21 10.835786437626904  21 11.25  L 21 12.75  C 21 13.164213562373096  20.664213562373096 13.5  20.25 13.5  L 18.75 13.5  C 18.335786437626904 13.5  18 13.164213562373096  18 12.75  L 18 11.25  Z " stroke-width="0" stroke-dasharray="0" stroke="rgba(255, 255, 255, 0)" fill="none" class="stroke" mask="url(#Clip4996)" />
  </g>
</svg>