<?xml version="1.0" encoding="utf-8"?>
<svg version="1.1" xmlns:xlink="http://www.w3.org/1999/xlink" width="56px" height="56px" xmlns="http://www.w3.org/2000/svg">
  <defs>
    <pattern id="BGPattern" patternUnits="userSpaceOnUse" alignment="0 0" imageRepeat="None" />
    <mask fill="white" id="Clip2289">
      <path d="M 56 28  C 56 12.537500000000001  43.4625 0  28 0  C 12.537500000000001 0  0 12.537500000000001  0 28  C 0 43.4625  12.537500000000001 56  28 56  C 43.4625 56  56 43.4625  56 28  Z M 32.28125 26.39374999999999  C 32.4875 29.349999999999987  32.09375 32.48749999999999  30.281249999999996 34.925  C 27.5375 38.787499999999994  22.025 39.912499999999994  17.725 38.256249999999994  C 13.412500000000001 36.6125  10.350000000000001 32.05624999999999  10.718750000000002 27.412499999999994  C 10.812500000000002 21.731249999999996  16.043750000000003 16.749999999999993  21.725 16.943749999999994  C 24.450000000000003 16.818749999999994  27.012500000000003 17.999999999999993  29.1 19.668749999999996  C 28.20625 20.681249999999995  27.2875 21.656249999999996  26.3 22.562499999999996  C 23.79375 20.831249999999997  20.225 20.337499999999995  17.71875 22.337499999999995  C 14.131250000000001 24.818749999999994  13.96875 30.675  17.41875 33.34374999999999  C 20.775 36.387499999999996  27.11875 34.87499999999999  28.05 30.21249999999999  C 25.949999999999996 30.18124999999999  23.8375 30.21249999999999  21.737499999999997 30.14374999999999  C 21.731249999999996 28.887499999999985  21.724999999999998 27.63749999999999  21.731249999999996 26.38124999999999  C 25.243749999999995 26.36874999999999  28.762499999999996 26.36249999999999  32.28125 26.39374999999999  Z M 45.4375 26.4  L 45.4375 29.53125  C 44.3875 29.543750000000003  43.3375 29.549999999999994  42.2875 29.55625  C 42.275 30.606249999999992  42.268750000000004 31.65625  42.268750000000004 32.70625  L 39.125 32.70625  C 39.1125 31.65625  39.1125 30.612499999999997  39.10625 29.5625  C 38.056250000000006 29.549999999999994  37.00625 29.543750000000003  35.956250000000004 29.53125  L 35.956250000000004 26.4  C 37.00625 26.3875  38.056250000000006 26.381249999999998  39.10625 26.381249999999998  C 39.112500000000004 25.331249999999997  39.125 24.281249999999996  39.13125 23.23125  L 42.268750000000004 23.23125  L 42.2875 26.381249999999998  C 43.3375 26.393749999999997  44.3875 26.393749999999997  45.4375 26.4  Z " fill-rule="evenodd" />
    </mask>
  </defs>
  <g>
    <path d="M 56 28  C 56 12.537500000000001  43.4625 0  28 0  C 12.537500000000001 0  0 12.537500000000001  0 28  C 0 43.4625  12.537500000000001 56  28 56  C 43.4625 56  56 43.4625  56 28  Z M 32.28125 26.39374999999999  C 32.4875 29.349999999999987  32.09375 32.48749999999999  30.281249999999996 34.925  C 27.5375 38.787499999999994  22.025 39.912499999999994  17.725 38.256249999999994  C 13.412500000000001 36.6125  10.350000000000001 32.05624999999999  10.718750000000002 27.412499999999994  C 10.812500000000002 21.731249999999996  16.043750000000003 16.749999999999993  21.725 16.943749999999994  C 24.450000000000003 16.818749999999994  27.012500000000003 17.999999999999993  29.1 19.668749999999996  C 28.20625 20.681249999999995  27.2875 21.656249999999996  26.3 22.562499999999996  C 23.79375 20.831249999999997  20.225 20.337499999999995  17.71875 22.337499999999995  C 14.131250000000001 24.818749999999994  13.96875 30.675  17.41875 33.34374999999999  C 20.775 36.387499999999996  27.11875 34.87499999999999  28.05 30.21249999999999  C 25.949999999999996 30.18124999999999  23.8375 30.21249999999999  21.737499999999997 30.14374999999999  C 21.731249999999996 28.887499999999985  21.724999999999998 27.63749999999999  21.731249999999996 26.38124999999999  C 25.243749999999995 26.36874999999999  28.762499999999996 26.36249999999999  32.28125 26.39374999999999  Z M 45.4375 26.4  L 45.4375 29.53125  C 44.3875 29.543750000000003  43.3375 29.549999999999994  42.2875 29.55625  C 42.275 30.606249999999992  42.268750000000004 31.65625  42.268750000000004 32.70625  L 39.125 32.70625  C 39.1125 31.65625  39.1125 30.612499999999997  39.10625 29.5625  C 38.056250000000006 29.549999999999994  37.00625 29.543750000000003  35.956250000000004 29.53125  L 35.956250000000004 26.4  C 37.00625 26.3875  38.056250000000006 26.381249999999998  39.10625 26.381249999999998  C 39.112500000000004 25.331249999999997  39.125 24.281249999999996  39.13125 23.23125  L 42.268750000000004 23.23125  L 42.2875 26.381249999999998  C 43.3375 26.393749999999997  44.3875 26.393749999999997  45.4375 26.4  Z " fill-rule="nonzero" fill="rgba(0, 0, 0, 1)" stroke="none" class="fill" />
    <path d="M 56 28  C 56 12.537500000000001  43.4625 0  28 0  C 12.537500000000001 0  0 12.537500000000001  0 28  C 0 43.4625  12.537500000000001 56  28 56  C 43.4625 56  56 43.4625  56 28  Z " stroke-width="0" stroke-dasharray="0" stroke="rgba(255, 255, 255, 0)" fill="none" class="stroke" mask="url(#Clip2289)" />
    <path d="M 32.28125 26.39374999999999  C 32.4875 29.349999999999987  32.09375 32.48749999999999  30.281249999999996 34.925  C 27.5375 38.787499999999994  22.025 39.912499999999994  17.725 38.256249999999994  C 13.412500000000001 36.6125  10.350000000000001 32.05624999999999  10.718750000000002 27.412499999999994  C 10.812500000000002 21.731249999999996  16.043750000000003 16.749999999999993  21.725 16.943749999999994  C 24.450000000000003 16.818749999999994  27.012500000000003 17.999999999999993  29.1 19.668749999999996  C 28.20625 20.681249999999995  27.2875 21.656249999999996  26.3 22.562499999999996  C 23.79375 20.831249999999997  20.225 20.337499999999995  17.71875 22.337499999999995  C 14.131250000000001 24.818749999999994  13.96875 30.675  17.41875 33.34374999999999  C 20.775 36.387499999999996  27.11875 34.87499999999999  28.05 30.21249999999999  C 25.949999999999996 30.18124999999999  23.8375 30.21249999999999  21.737499999999997 30.14374999999999  C 21.731249999999996 28.887499999999985  21.724999999999998 27.63749999999999  21.731249999999996 26.38124999999999  C 25.243749999999995 26.36874999999999  28.762499999999996 26.36249999999999  32.28125 26.39374999999999  Z " stroke-width="0" stroke-dasharray="0" stroke="rgba(255, 255, 255, 0)" fill="none" class="stroke" mask="url(#Clip2289)" />
    <path d="M 45.4375 26.4  L 45.4375 29.53125  C 44.3875 29.543750000000003  43.3375 29.549999999999994  42.2875 29.55625  C 42.275 30.606249999999992  42.268750000000004 31.65625  42.268750000000004 32.70625  L 39.125 32.70625  C 39.1125 31.65625  39.1125 30.612499999999997  39.10625 29.5625  C 38.056250000000006 29.549999999999994  37.00625 29.543750000000003  35.956250000000004 29.53125  L 35.956250000000004 26.4  C 37.00625 26.3875  38.056250000000006 26.381249999999998  39.10625 26.381249999999998  C 39.112500000000004 25.331249999999997  39.125 24.281249999999996  39.13125 23.23125  L 42.268750000000004 23.23125  L 42.2875 26.381249999999998  C 43.3375 26.393749999999997  44.3875 26.393749999999997  45.4375 26.4  Z " stroke-width="0" stroke-dasharray="0" stroke="rgba(255, 255, 255, 0)" fill="none" class="stroke" mask="url(#Clip2289)" />
  </g>
</svg>