<?xml version="1.0" encoding="utf-8"?>
<svg version="1.1" xmlns:xlink="http://www.w3.org/1999/xlink" width="26px" height="21px" xmlns="http://www.w3.org/2000/svg">
  <defs>
    <pattern id="BGPattern" patternUnits="userSpaceOnUse" alignment="0 0" imageRepeat="None" />
    <mask fill="white" id="Clip5346">
      <path d="M 11.236 4.207  L 11.2375 4.207  C 12.1315 7.4185  10.6975 9.596499999999999  7.654000000000002 10.382499999999999  C 6.664665204666428 10.641993724139681  5.628796711610286 10.669712702645647  4.627000000000001 10.4635  C 4.555 10.4485  5.977 14.630499999999998  6.91 17.378500000000003  L 7.525 19.186000000000003  C 7.55028737608292 19.26383588011943  7.563167418248162 19.345166546689846  7.563167418248162 19.42700709668265  C 7.563167418248162 19.7719630168935  7.33657961835246 20.075952027831846  7.006 20.174500000000002  L 6.1165 20.459500000000002  C 5.690101588023515 20.600874123384614  5.22918275954954 20.373754700658306  5.081500000000001 19.9495  L 1.276 8.485  C 0.23199999999999998 5.2795000000000005  2.269 2.0214999999999996  5.122 1.2850000000000006  C 8.1655 0.5005000000000006  10.225000000000001 1.2850000000000006  11.236 4.207  Z M 20.8765 1.285000000000002  C 17.833 0.5005000000000015  15.7735 1.285000000000002  14.762500000000003 4.207  C 13.868500000000001 7.4185  15.302499999999998 9.596499999999999  18.346 10.382499999999999  C 19.335350124935545 10.641886193742094  20.371193731455662 10.669604506305069  21.373 10.4635  C 21.445 10.4485  20.023 14.630499999999998  19.09 17.378500000000003  L 18.475 19.186000000000003  C 18.449712623917087 19.26383588011943  18.436832581751844 19.34516654668985  18.436832581751844 19.42700709668265  C 18.436832581751844 19.7719630168935  18.663420381647544 20.075952027831846  18.994 20.174500000000002  L 19.8835 20.459500000000002  C 20.317 20.597500000000004  20.7835 20.369500000000002  20.9185 19.9495  L 24.7225 8.485000000000001  C 25.7665 5.279500000000002  23.729499999999998 2.0215000000000014  20.8765 1.285000000000002  Z M 8.0365 5.194000000000001  C 8.44 6.656499999999999  9.2905 7.706499999999999  9.9355 7.538499999999999  C 10.580499999999999 7.370499999999999  10.777 6.048999999999999  10.3735 4.584999999999999  C 9.969999999999999 3.1224999999999996  9.119499999999999 2.0725  8.474499999999999 2.2405  C 7.8295 2.4085  7.633 3.7314999999999996  8.0365 5.194000000000001  Z M 17.963500000000003 5.194000000000001  C 17.560000000000002 6.656499999999999  16.709500000000002 7.706499999999999  16.064500000000002 7.538499999999999  C 15.419500000000003 7.370499999999999  15.223000000000003 6.048999999999999  15.6265 4.584999999999999  C 16.03 3.1224999999999996  16.8805 2.0725  17.5255 2.2405  C 18.1705 2.4085  18.367 3.7314999999999996  17.963500000000003 5.194000000000001  Z " fill-rule="evenodd" />
    </mask>
  </defs>
  <g>
    <path d="M 11.236 4.207  L 11.2375 4.207  C 12.1315 7.4185  10.6975 9.596499999999999  7.654000000000002 10.382499999999999  C 6.664665204666428 10.641993724139681  5.628796711610286 10.669712702645647  4.627000000000001 10.4635  C 4.555 10.4485  5.977 14.630499999999998  6.91 17.378500000000003  L 7.525 19.186000000000003  C 7.55028737608292 19.26383588011943  7.563167418248162 19.345166546689846  7.563167418248162 19.42700709668265  C 7.563167418248162 19.7719630168935  7.33657961835246 20.075952027831846  7.006 20.174500000000002  L 6.1165 20.459500000000002  C 5.690101588023515 20.600874123384614  5.22918275954954 20.373754700658306  5.081500000000001 19.9495  L 1.276 8.485  C 0.23199999999999998 5.2795000000000005  2.269 2.0214999999999996  5.122 1.2850000000000006  C 8.1655 0.5005000000000006  10.225000000000001 1.2850000000000006  11.236 4.207  Z M 20.8765 1.285000000000002  C 17.833 0.5005000000000015  15.7735 1.285000000000002  14.762500000000003 4.207  C 13.868500000000001 7.4185  15.302499999999998 9.596499999999999  18.346 10.382499999999999  C 19.335350124935545 10.641886193742094  20.371193731455662 10.669604506305069  21.373 10.4635  C 21.445 10.4485  20.023 14.630499999999998  19.09 17.378500000000003  L 18.475 19.186000000000003  C 18.449712623917087 19.26383588011943  18.436832581751844 19.34516654668985  18.436832581751844 19.42700709668265  C 18.436832581751844 19.7719630168935  18.663420381647544 20.075952027831846  18.994 20.174500000000002  L 19.8835 20.459500000000002  C 20.317 20.597500000000004  20.7835 20.369500000000002  20.9185 19.9495  L 24.7225 8.485000000000001  C 25.7665 5.279500000000002  23.729499999999998 2.0215000000000014  20.8765 1.285000000000002  Z M 8.0365 5.194000000000001  C 8.44 6.656499999999999  9.2905 7.706499999999999  9.9355 7.538499999999999  C 10.580499999999999 7.370499999999999  10.777 6.048999999999999  10.3735 4.584999999999999  C 9.969999999999999 3.1224999999999996  9.119499999999999 2.0725  8.474499999999999 2.2405  C 7.8295 2.4085  7.633 3.7314999999999996  8.0365 5.194000000000001  Z M 17.963500000000003 5.194000000000001  C 17.560000000000002 6.656499999999999  16.709500000000002 7.706499999999999  16.064500000000002 7.538499999999999  C 15.419500000000003 7.370499999999999  15.223000000000003 6.048999999999999  15.6265 4.584999999999999  C 16.03 3.1224999999999996  16.8805 2.0725  17.5255 2.2405  C 18.1705 2.4085  18.367 3.7314999999999996  17.963500000000003 5.194000000000001  Z " fill-rule="nonzero" fill="rgba(0, 0, 0, 1)" stroke="none" class="fill" />
    <path d="M 11.236 4.207  L 11.2375 4.207  C 12.1315 7.4185  10.6975 9.596499999999999  7.654000000000002 10.382499999999999  C 6.664665204666428 10.641993724139681  5.628796711610286 10.669712702645647  4.627000000000001 10.4635  C 4.555 10.4485  5.977 14.630499999999998  6.91 17.378500000000003  L 7.525 19.186000000000003  C 7.55028737608292 19.26383588011943  7.563167418248162 19.345166546689846  7.563167418248162 19.42700709668265  C 7.563167418248162 19.7719630168935  7.33657961835246 20.075952027831846  7.006 20.174500000000002  L 6.1165 20.459500000000002  C 5.690101588023515 20.600874123384614  5.22918275954954 20.373754700658306  5.081500000000001 19.9495  L 1.276 8.485  C 0.23199999999999998 5.2795000000000005  2.269 2.0214999999999996  5.122 1.2850000000000006  C 8.1655 0.5005000000000006  10.225000000000001 1.2850000000000006  11.236 4.207  Z " stroke-width="0" stroke-dasharray="0" stroke="rgba(255, 255, 255, 0)" fill="none" class="stroke" mask="url(#Clip5346)" />
    <path d="M 20.8765 1.285000000000002  C 17.833 0.5005000000000015  15.7735 1.285000000000002  14.762500000000003 4.207  C 13.868500000000001 7.4185  15.302499999999998 9.596499999999999  18.346 10.382499999999999  C 19.335350124935545 10.641886193742094  20.371193731455662 10.669604506305069  21.373 10.4635  C 21.445 10.4485  20.023 14.630499999999998  19.09 17.378500000000003  L 18.475 19.186000000000003  C 18.449712623917087 19.26383588011943  18.436832581751844 19.34516654668985  18.436832581751844 19.42700709668265  C 18.436832581751844 19.7719630168935  18.663420381647544 20.075952027831846  18.994 20.174500000000002  L 19.8835 20.459500000000002  C 20.317 20.597500000000004  20.7835 20.369500000000002  20.9185 19.9495  L 24.7225 8.485000000000001  C 25.7665 5.279500000000002  23.729499999999998 2.0215000000000014  20.8765 1.285000000000002  Z " stroke-width="0" stroke-dasharray="0" stroke="rgba(255, 255, 255, 0)" fill="none" class="stroke" mask="url(#Clip5346)" />
    <path d="M 8.0365 5.194000000000001  C 8.44 6.656499999999999  9.2905 7.706499999999999  9.9355 7.538499999999999  C 10.580499999999999 7.370499999999999  10.777 6.048999999999999  10.3735 4.584999999999999  C 9.969999999999999 3.1224999999999996  9.119499999999999 2.0725  8.474499999999999 2.2405  C 7.8295 2.4085  7.633 3.7314999999999996  8.0365 5.194000000000001  Z " stroke-width="0" stroke-dasharray="0" stroke="rgba(255, 255, 255, 0)" fill="none" class="stroke" mask="url(#Clip5346)" />
    <path d="M 17.963500000000003 5.194000000000001  C 17.560000000000002 6.656499999999999  16.709500000000002 7.706499999999999  16.064500000000002 7.538499999999999  C 15.419500000000003 7.370499999999999  15.223000000000003 6.048999999999999  15.6265 4.584999999999999  C 16.03 3.1224999999999996  16.8805 2.0725  17.5255 2.2405  C 18.1705 2.4085  18.367 3.7314999999999996  17.963500000000003 5.194000000000001  Z " stroke-width="0" stroke-dasharray="0" stroke="rgba(255, 255, 255, 0)" fill="none" class="stroke" mask="url(#Clip5346)" />
  </g>
</svg>