<?xml version="1.0" encoding="utf-8"?>
<svg version="1.1" xmlns:xlink="http://www.w3.org/1999/xlink" width="58px" height="48px" xmlns="http://www.w3.org/2000/svg">
  <defs>
    <pattern id="BGPattern" patternUnits="userSpaceOnUse" alignment="0 0" imageRepeat="None" />
    <mask fill="white" id="Clip2208">
      <path d="M 56.75 18.5125  C 56.98602445094863 18.376208620266365  57.069416511408555 18.075997202610626  56.9375 17.8375  L 55.45625 15.25  C 55.31762844990116 15.01254821730031  55.01329209898747 14.931577995497587  54.775 15.068750000000001  L 51.606249999999996 16.918750000000003  L 46.7125 3.4062500000000036  C 46.1823490823869 1.7518525196186197  44.64351489416883 0.6299438503758932  42.90625 1  L 15.825 1  C 13.65625 0.6312500000000032  11.73125 2.0312500000000036  11.0625 4.100000000000003  L 6.4 16.925000000000004  L 3.2250000000000005 15.075000000000003  C 2.9867079010125304 14.937827995497585  2.6823715500988374 15.018798217300311  2.54375 15.256250000000001  L 1.0625 17.8375  C 0.9249999999999998 18.075  1.0062499999999996 18.375  1.2437500000000004 18.5125  L 5.018750000000001 20.7125  L 4.112500000000001 23.2125  C 4.0375000000000005 23.412499999999998  4.000000000000001 23.625  4 23.8375  L 4 45.599999999999994  C 4.000000000000001 46.58125  4.737500000000001 47.37499999999999  5.643750000000001 47.37499999999999  L 9.86875 47.37499999999999  C 10.637500000000001 47.37499999999999  11.30625 46.793749999999996  11.46875 45.981249999999996  L 11.95 43  L 46.05 43  L 46.53125 45.981249999999996  C 46.7 46.793749999999996  47.3625 47.37499999999999  48.13125 47.37499999999999  L 52.35625 47.37499999999999  C 53.2625 47.37499999999999  54 46.58124999999999  54 45.599999999999994  L 54 23.8375  C 54 23.625  53.9625 23.412499999999998  53.8875 23.2125  L 52.98125 20.7125  L 56.75 18.5125  Z M 16 28.3125  C 16 29.69375  14.881250000000003 30.8125  13.5 30.8125  C 12.11875 30.8125  11 29.69375  11 28.3125  C 11 26.93125  12.11875 25.8125  13.5 25.8125  C 14.881250000000003 25.8125  16 26.93125  16 28.3125  Z M 37.75 30.25  L 37.75 35.5  C 37.75 35.775  37.525 36  37.25 36  L 20.75 36  C 20.475 36  20.25 35.775  20.25 35.5  L 20.25 30.25  C 20.25 29.975  20.475 29.75  20.75 29.75  L 23.25 29.75  C 23.525 29.75  23.75 29.975  23.75 30.25  L 23.75 32  L 34.25 32  L 34.25 30.25  C 34.25 29.975  34.475 29.75  34.75 29.75  L 37.25 29.75  C 37.525 29.75  37.75 29.975  37.75 30.25  Z M 47 28.3125  C 47 29.69375  45.88125 30.8125  44.5 30.8125  C 43.11875 30.8125  42 29.69375  42 28.3125  C 42 26.93125  43.11875 25.8125  44.5 25.8125  C 45.88125 25.8125  47 26.93125  47 28.3125  Z M 47.262499999999996 19  L 10.75 19  L 15.29375 5.63125  L 15.325000000000001 5.549999999999999  L 15.349999999999996 5.468749999999998  C 15.41875 5.2624999999999975  15.606250000000001 5.124999999999998  15.825 6  L 42.55 6  L 47.262499999999996 19  Z " fill-rule="evenodd" />
    </mask>
  </defs>
  <g>
    <path d="M 56.75 18.5125  C 56.98602445094863 18.376208620266365  57.069416511408555 18.075997202610626  56.9375 17.8375  L 55.45625 15.25  C 55.31762844990116 15.01254821730031  55.01329209898747 14.931577995497587  54.775 15.068750000000001  L 51.606249999999996 16.918750000000003  L 46.7125 3.4062500000000036  C 46.1823490823869 1.7518525196186197  44.64351489416883 0.6299438503758932  42.90625 1  L 15.825 1  C 13.65625 0.6312500000000032  11.73125 2.0312500000000036  11.0625 4.100000000000003  L 6.4 16.925000000000004  L 3.2250000000000005 15.075000000000003  C 2.9867079010125304 14.937827995497585  2.6823715500988374 15.018798217300311  2.54375 15.256250000000001  L 1.0625 17.8375  C 0.9249999999999998 18.075  1.0062499999999996 18.375  1.2437500000000004 18.5125  L 5.018750000000001 20.7125  L 4.112500000000001 23.2125  C 4.0375000000000005 23.412499999999998  4.000000000000001 23.625  4 23.8375  L 4 45.599999999999994  C 4.000000000000001 46.58125  4.737500000000001 47.37499999999999  5.643750000000001 47.37499999999999  L 9.86875 47.37499999999999  C 10.637500000000001 47.37499999999999  11.30625 46.793749999999996  11.46875 45.981249999999996  L 11.95 43  L 46.05 43  L 46.53125 45.981249999999996  C 46.7 46.793749999999996  47.3625 47.37499999999999  48.13125 47.37499999999999  L 52.35625 47.37499999999999  C 53.2625 47.37499999999999  54 46.58124999999999  54 45.599999999999994  L 54 23.8375  C 54 23.625  53.9625 23.412499999999998  53.8875 23.2125  L 52.98125 20.7125  L 56.75 18.5125  Z M 16 28.3125  C 16 29.69375  14.881250000000003 30.8125  13.5 30.8125  C 12.11875 30.8125  11 29.69375  11 28.3125  C 11 26.93125  12.11875 25.8125  13.5 25.8125  C 14.881250000000003 25.8125  16 26.93125  16 28.3125  Z M 37.75 30.25  L 37.75 35.5  C 37.75 35.775  37.525 36  37.25 36  L 20.75 36  C 20.475 36  20.25 35.775  20.25 35.5  L 20.25 30.25  C 20.25 29.975  20.475 29.75  20.75 29.75  L 23.25 29.75  C 23.525 29.75  23.75 29.975  23.75 30.25  L 23.75 32  L 34.25 32  L 34.25 30.25  C 34.25 29.975  34.475 29.75  34.75 29.75  L 37.25 29.75  C 37.525 29.75  37.75 29.975  37.75 30.25  Z M 47 28.3125  C 47 29.69375  45.88125 30.8125  44.5 30.8125  C 43.11875 30.8125  42 29.69375  42 28.3125  C 42 26.93125  43.11875 25.8125  44.5 25.8125  C 45.88125 25.8125  47 26.93125  47 28.3125  Z M 47.262499999999996 19  L 10.75 19  L 15.29375 5.63125  L 15.325000000000001 5.549999999999999  L 15.349999999999996 5.468749999999998  C 15.41875 5.2624999999999975  15.606250000000001 5.124999999999998  15.825 6  L 42.55 6  L 47.262499999999996 19  Z " fill-rule="nonzero" fill="rgba(0, 0, 0, 1)" stroke="none" class="fill" />
    <path d="M 56.75 18.5125  C 56.98602445094863 18.376208620266365  57.069416511408555 18.075997202610626  56.9375 17.8375  L 55.45625 15.25  C 55.31762844990116 15.01254821730031  55.01329209898747 14.931577995497587  54.775 15.068750000000001  L 51.606249999999996 16.918750000000003  L 46.7125 3.4062500000000036  C 46.1823490823869 1.7518525196186197  44.64351489416883 0.6299438503758932  42.90625 1  L 15.825 1  C 13.65625 0.6312500000000032  11.73125 2.0312500000000036  11.0625 4.100000000000003  L 6.4 16.925000000000004  L 3.2250000000000005 15.075000000000003  C 2.9867079010125304 14.937827995497585  2.6823715500988374 15.018798217300311  2.54375 15.256250000000001  L 1.0625 17.8375  C 0.9249999999999998 18.075  1.0062499999999996 18.375  1.2437500000000004 18.5125  L 5.018750000000001 20.7125  L 4.112500000000001 23.2125  C 4.0375000000000005 23.412499999999998  4.000000000000001 23.625  4 23.8375  L 4 45.599999999999994  C 4.000000000000001 46.58125  4.737500000000001 47.37499999999999  5.643750000000001 47.37499999999999  L 9.86875 47.37499999999999  C 10.637500000000001 47.37499999999999  11.30625 46.793749999999996  11.46875 45.981249999999996  L 11.95 43  L 46.05 43  L 46.53125 45.981249999999996  C 46.7 46.793749999999996  47.3625 47.37499999999999  48.13125 47.37499999999999  L 52.35625 47.37499999999999  C 53.2625 47.37499999999999  54 46.58124999999999  54 45.599999999999994  L 54 23.8375  C 54 23.625  53.9625 23.412499999999998  53.8875 23.2125  L 52.98125 20.7125  L 56.75 18.5125  Z " stroke-width="0" stroke-dasharray="0" stroke="rgba(255, 255, 255, 0)" fill="none" class="stroke" mask="url(#Clip2208)" />
    <path d="M 16 28.3125  C 16 29.69375  14.881250000000003 30.8125  13.5 30.8125  C 12.11875 30.8125  11 29.69375  11 28.3125  C 11 26.93125  12.11875 25.8125  13.5 25.8125  C 14.881250000000003 25.8125  16 26.93125  16 28.3125  Z " stroke-width="0" stroke-dasharray="0" stroke="rgba(255, 255, 255, 0)" fill="none" class="stroke" mask="url(#Clip2208)" />
    <path d="M 37.75 30.25  L 37.75 35.5  C 37.75 35.775  37.525 36  37.25 36  L 20.75 36  C 20.475 36  20.25 35.775  20.25 35.5  L 20.25 30.25  C 20.25 29.975  20.475 29.75  20.75 29.75  L 23.25 29.75  C 23.525 29.75  23.75 29.975  23.75 30.25  L 23.75 32  L 34.25 32  L 34.25 30.25  C 34.25 29.975  34.475 29.75  34.75 29.75  L 37.25 29.75  C 37.525 29.75  37.75 29.975  37.75 30.25  Z " stroke-width="0" stroke-dasharray="0" stroke="rgba(255, 255, 255, 0)" fill="none" class="stroke" mask="url(#Clip2208)" />
    <path d="M 47 28.3125  C 47 29.69375  45.88125 30.8125  44.5 30.8125  C 43.11875 30.8125  42 29.69375  42 28.3125  C 42 26.93125  43.11875 25.8125  44.5 25.8125  C 45.88125 25.8125  47 26.93125  47 28.3125  Z " stroke-width="0" stroke-dasharray="0" stroke="rgba(255, 255, 255, 0)" fill="none" class="stroke" mask="url(#Clip2208)" />
    <path d="M 47.262499999999996 19  L 10.75 19  L 15.29375 5.63125  L 15.325000000000001 5.549999999999999  L 15.349999999999996 5.468749999999998  C 15.41875 5.2624999999999975  15.606250000000001 5.124999999999998  15.825 6  L 42.55 6  L 47.262499999999996 19  Z " stroke-width="0" stroke-dasharray="0" stroke="rgba(255, 255, 255, 0)" fill="none" class="stroke" mask="url(#Clip2208)" />
  </g>
</svg>