<?xml version="1.0" encoding="utf-8"?>
<svg version="1.1" xmlns:xlink="http://www.w3.org/1999/xlink" width="14px" height="14px" xmlns="http://www.w3.org/2000/svg">
  <defs>
    <pattern id="BGPattern" patternUnits="userSpaceOnUse" alignment="0 0" imageRepeat="None" />
    <mask fill="white" id="Clip3394">
      <path d="M 14 12  C 14 13.104569499661586  13.104569499661586 14  12 14  L 2 14  C 0.8954305003384135 14  0 13.104569499661586  0 12  L 0 2  C 0 0.8954305003384135  0.8954305003384135 0  2 0  L 12 0  C 13.104569499661586 0  14 0.8954305003384135  14 2  L 14 12  Z M 12 2  L 2 2  L 2 12  L 12 12  L 12 2  Z " fill-rule="evenodd" />
    </mask>
  </defs>
  <g transform="matrix(1 0 0 1 -4 -4 )">
    <path d="M 14 12  C 14 13.104569499661586  13.104569499661586 14  12 14  L 2 14  C 0.8954305003384135 14  0 13.104569499661586  0 12  L 0 2  C 0 0.8954305003384135  0.8954305003384135 0  2 0  L 12 0  C 13.104569499661586 0  14 0.8954305003384135  14 2  L 14 12  Z M 12 2  L 2 2  L 2 12  L 12 12  L 12 2  Z " fill-rule="nonzero" fill="rgba(0, 0, 0, 1)" stroke="none" transform="matrix(1 0 0 1 4 4 )" class="fill" />
    <path d="M 14 12  C 14 13.104569499661586  13.104569499661586 14  12 14  L 2 14  C 0.8954305003384135 14  0 13.104569499661586  0 12  L 0 2  C 0 0.8954305003384135  0.8954305003384135 0  2 0  L 12 0  C 13.104569499661586 0  14 0.8954305003384135  14 2  L 14 12  Z " stroke-width="0" stroke-dasharray="0" stroke="rgba(255, 255, 255, 0)" fill="none" transform="matrix(1 0 0 1 4 4 )" class="stroke" mask="url(#Clip3394)" />
    <path d="M 12 2  L 2 2  L 2 12  L 12 12  L 12 2  Z " stroke-width="0" stroke-dasharray="0" stroke="rgba(255, 255, 255, 0)" fill="none" transform="matrix(1 0 0 1 4 4 )" class="stroke" mask="url(#Clip3394)" />
  </g>
</svg>