<?xml version="1.0" encoding="utf-8"?>
<svg version="1.1" xmlns:xlink="http://www.w3.org/1999/xlink" width="46px" height="50px" xmlns="http://www.w3.org/2000/svg">
  <defs>
    <pattern id="BGPattern" patternUnits="userSpaceOnUse" alignment="0 0" imageRepeat="None" />
    <mask fill="white" id="Clip7427">
      <path d="M 0.3540000000000001 14.596  C 0.3540000000000001 10.932  6.376000000000001 5.9559999999999995  6.854 6.192  C 7.382 6.282  6.06 9.748000000000001  6.798 13.712  C 7.433999999999999 17.106  15.423999999999998 30.262  15.094000000000001 34.769999999999996  C 14.838000000000003 37.605999999999995  8.278000000000002 44.25  7.588000000000001 43.809999999999995  C 6.834000000000001 43.599999999999994  9.580000000000002 39.087999999999994  8.56 35.321999999999996  C 7.380000000000001 30.94  0.3460000000000001 19.602  0.3540000000000001 14.596  Z M 13.592 11.728000000000002  C 13.592 7.052000000000001  21.276 0.7100000000000009  21.88 1.01  C 22.552 1.126  20.868 5.552  21.811999999999998 10.592  C 22.621999999999996 14.932  32.814 31.701999999999998  32.396 37.456  C 32.064 41.074000000000005  23.700000000000003 49.542  22.818 48.976  C 21.860000000000003 48.714  25.36 42.96  24.062000000000005 38.164  C 22.552 32.572  13.586 18.112000000000002  13.592 11.728000000000002  Z M 37.388 6.193999999999999  L 37.388 6.192  C 37.928 6.282  36.602 9.748000000000001  37.342 13.714  C 37.978 17.108  45.967999999999996 30.264000000000003  45.638 34.772  C 45.388 37.608  38.821999999999996 44.251999999999995  38.129999999999995 43.812  C 37.376 43.602  40.12199999999999 39.089999999999996  39.105999999999995 35.324  C 37.91799999999999 30.939999999999994  30.886 19.601999999999997  30.895999999999994 14.597999999999999  C 30.895999999999994 10.934  36.92399999999999 5.957999999999998  37.391999999999996 6.193999999999999  L 37.388 6.193999999999999  Z " fill-rule="evenodd" />
    </mask>
  </defs>
  <g>
    <path d="M 0.3540000000000001 14.596  C 0.3540000000000001 10.932  6.376000000000001 5.9559999999999995  6.854 6.192  C 7.382 6.282  6.06 9.748000000000001  6.798 13.712  C 7.433999999999999 17.106  15.423999999999998 30.262  15.094000000000001 34.769999999999996  C 14.838000000000003 37.605999999999995  8.278000000000002 44.25  7.588000000000001 43.809999999999995  C 6.834000000000001 43.599999999999994  9.580000000000002 39.087999999999994  8.56 35.321999999999996  C 7.380000000000001 30.94  0.3460000000000001 19.602  0.3540000000000001 14.596  Z M 13.592 11.728000000000002  C 13.592 7.052000000000001  21.276 0.7100000000000009  21.88 1.01  C 22.552 1.126  20.868 5.552  21.811999999999998 10.592  C 22.621999999999996 14.932  32.814 31.701999999999998  32.396 37.456  C 32.064 41.074000000000005  23.700000000000003 49.542  22.818 48.976  C 21.860000000000003 48.714  25.36 42.96  24.062000000000005 38.164  C 22.552 32.572  13.586 18.112000000000002  13.592 11.728000000000002  Z M 37.388 6.193999999999999  L 37.388 6.192  C 37.928 6.282  36.602 9.748000000000001  37.342 13.714  C 37.978 17.108  45.967999999999996 30.264000000000003  45.638 34.772  C 45.388 37.608  38.821999999999996 44.251999999999995  38.129999999999995 43.812  C 37.376 43.602  40.12199999999999 39.089999999999996  39.105999999999995 35.324  C 37.91799999999999 30.939999999999994  30.886 19.601999999999997  30.895999999999994 14.597999999999999  C 30.895999999999994 10.934  36.92399999999999 5.957999999999998  37.391999999999996 6.193999999999999  L 37.388 6.193999999999999  Z " fill-rule="nonzero" fill="rgba(75, 162, 242, 1)" stroke="none" class="fill" />
    <path d="M 0.3540000000000001 14.596  C 0.3540000000000001 10.932  6.376000000000001 5.9559999999999995  6.854 6.192  C 7.382 6.282  6.06 9.748000000000001  6.798 13.712  C 7.433999999999999 17.106  15.423999999999998 30.262  15.094000000000001 34.769999999999996  C 14.838000000000003 37.605999999999995  8.278000000000002 44.25  7.588000000000001 43.809999999999995  C 6.834000000000001 43.599999999999994  9.580000000000002 39.087999999999994  8.56 35.321999999999996  C 7.380000000000001 30.94  0.3460000000000001 19.602  0.3540000000000001 14.596  Z " stroke-width="0" stroke-dasharray="0" stroke="rgba(255, 255, 255, 0)" fill="none" class="stroke" mask="url(#Clip7427)" />
    <path d="M 13.592 11.728000000000002  C 13.592 7.052000000000001  21.276 0.7100000000000009  21.88 1.01  C 22.552 1.126  20.868 5.552  21.811999999999998 10.592  C 22.621999999999996 14.932  32.814 31.701999999999998  32.396 37.456  C 32.064 41.074000000000005  23.700000000000003 49.542  22.818 48.976  C 21.860000000000003 48.714  25.36 42.96  24.062000000000005 38.164  C 22.552 32.572  13.586 18.112000000000002  13.592 11.728000000000002  Z " stroke-width="0" stroke-dasharray="0" stroke="rgba(255, 255, 255, 0)" fill="none" class="stroke" mask="url(#Clip7427)" />
    <path d="M 37.388 6.193999999999999  L 37.388 6.192  C 37.928 6.282  36.602 9.748000000000001  37.342 13.714  C 37.978 17.108  45.967999999999996 30.264000000000003  45.638 34.772  C 45.388 37.608  38.821999999999996 44.251999999999995  38.129999999999995 43.812  C 37.376 43.602  40.12199999999999 39.089999999999996  39.105999999999995 35.324  C 37.91799999999999 30.939999999999994  30.886 19.601999999999997  30.895999999999994 14.597999999999999  C 30.895999999999994 10.934  36.92399999999999 5.957999999999998  37.391999999999996 6.193999999999999  L 37.388 6.193999999999999  Z " stroke-width="0" stroke-dasharray="0" stroke="rgba(255, 255, 255, 0)" fill="none" class="stroke" mask="url(#Clip7427)" />
  </g>
</svg>