<?xml version="1.0" encoding="utf-8"?>
<svg version="1.1" xmlns:xlink="http://www.w3.org/1999/xlink" width="64px" height="64px" xmlns="http://www.w3.org/2000/svg">
  <defs>
    <pattern id="BGPattern" patternUnits="userSpaceOnUse" alignment="0 0" imageRepeat="None" />
    <mask fill="white" id="Clip1976">
      <path d="M 21.932499999622436 59.55125  C 18.20124999968667 52.628750000000004  20.239999999651573 43.821250000000006  26.832499999538086 38.87625  L 36 32  L 36 12  L 16 12  L 16 34  L 5.168749999911021 42.07625  C 0.24374999999580338 45.77125  -1.5637499999730813 52.628750000000004  1.5174999999738759 57.95875  C 3.7987499999346057 61.90625  7.908749999863854 64  12.009999999793251 64  C 14.51374999975015 64  17.04124999970664 63.21875  19.199999999669476 61.6  L 21.932499999622436 59.55125  Z M 35.99999999938027 8  L 35.99999999938027 4  C 35.99999999938027 2.61875  36.38374999937366 1.3375  37.00249999936301 0.20250000000000012  C 36.67499999936865 0.115  36.35624999937414 0  35.99999999938027 0  L 19.999999999655707 0  C 17.791249999693726 0  15.999999999724565 1.79125  15.999999999724565 4  L 15.999999999724565 8  L 35.99999999938027 8  Z M 63.99999999889826 4  C 63.99999999889826 1.7912499999999998  62.2087499989291 0  59.99999999896712 0  L 43.999999999242554 0  C 41.79124999928057 0  39.99999999931141 1.79125  39.99999999931141 4  L 39.99999999931141 8  L 63.99999999889826 8  L 63.99999999889826 4  Z M 40 12  L 40 34  L 29.23374999949675 42.07625  C 24.308749999581533 45.77125  22.501249999612646 52.628750000000004  25.582499999559605 57.95875  C 27.863749999520333 61.90625  31.9087499994507 64  36.0099999993801 64  C 38.513749999337 64  41.041249999293484 63.21875  43.19999999925632 61.6  L 57.59999999900844 50.800000000000004  C 61.62894003862712 47.778368743626224  64.00005901761206 43.0361307855747  64 38  L 64 12  L 40 12  Z " fill-rule="evenodd" />
    </mask>
  </defs>
  <g>
    <path d="M 21.932499999622436 59.55125  C 18.20124999968667 52.628750000000004  20.239999999651573 43.821250000000006  26.832499999538086 38.87625  L 36 32  L 36 12  L 16 12  L 16 34  L 5.168749999911021 42.07625  C 0.24374999999580338 45.77125  -1.5637499999730813 52.628750000000004  1.5174999999738759 57.95875  C 3.7987499999346057 61.90625  7.908749999863854 64  12.009999999793251 64  C 14.51374999975015 64  17.04124999970664 63.21875  19.199999999669476 61.6  L 21.932499999622436 59.55125  Z M 35.99999999938027 8  L 35.99999999938027 4  C 35.99999999938027 2.61875  36.38374999937366 1.3375  37.00249999936301 0.20250000000000012  C 36.67499999936865 0.115  36.35624999937414 0  35.99999999938027 0  L 19.999999999655707 0  C 17.791249999693726 0  15.999999999724565 1.79125  15.999999999724565 4  L 15.999999999724565 8  L 35.99999999938027 8  Z M 63.99999999889826 4  C 63.99999999889826 1.7912499999999998  62.2087499989291 0  59.99999999896712 0  L 43.999999999242554 0  C 41.79124999928057 0  39.99999999931141 1.79125  39.99999999931141 4  L 39.99999999931141 8  L 63.99999999889826 8  L 63.99999999889826 4  Z M 40 12  L 40 34  L 29.23374999949675 42.07625  C 24.308749999581533 45.77125  22.501249999612646 52.628750000000004  25.582499999559605 57.95875  C 27.863749999520333 61.90625  31.9087499994507 64  36.0099999993801 64  C 38.513749999337 64  41.041249999293484 63.21875  43.19999999925632 61.6  L 57.59999999900844 50.800000000000004  C 61.62894003862712 47.778368743626224  64.00005901761206 43.0361307855747  64 38  L 64 12  L 40 12  Z " fill-rule="nonzero" fill="rgba(0, 0, 0, 1)" stroke="none" class="fill" />
    <path d="M 21.932499999622436 59.55125  C 18.20124999968667 52.628750000000004  20.239999999651573 43.821250000000006  26.832499999538086 38.87625  L 36 32  L 36 12  L 16 12  L 16 34  L 5.168749999911021 42.07625  C 0.24374999999580338 45.77125  -1.5637499999730813 52.628750000000004  1.5174999999738759 57.95875  C 3.7987499999346057 61.90625  7.908749999863854 64  12.009999999793251 64  C 14.51374999975015 64  17.04124999970664 63.21875  19.199999999669476 61.6  L 21.932499999622436 59.55125  Z " stroke-width="0" stroke-dasharray="0" stroke="rgba(255, 255, 255, 0)" fill="none" class="stroke" mask="url(#Clip1976)" />
    <path d="M 35.99999999938027 8  L 35.99999999938027 4  C 35.99999999938027 2.61875  36.38374999937366 1.3375  37.00249999936301 0.20250000000000012  C 36.67499999936865 0.115  36.35624999937414 0  35.99999999938027 0  L 19.999999999655707 0  C 17.791249999693726 0  15.999999999724565 1.79125  15.999999999724565 4  L 15.999999999724565 8  L 35.99999999938027 8  Z " stroke-width="0" stroke-dasharray="0" stroke="rgba(255, 255, 255, 0)" fill="none" class="stroke" mask="url(#Clip1976)" />
    <path d="M 63.99999999889826 4  C 63.99999999889826 1.7912499999999998  62.2087499989291 0  59.99999999896712 0  L 43.999999999242554 0  C 41.79124999928057 0  39.99999999931141 1.79125  39.99999999931141 4  L 39.99999999931141 8  L 63.99999999889826 8  L 63.99999999889826 4  Z " stroke-width="0" stroke-dasharray="0" stroke="rgba(255, 255, 255, 0)" fill="none" class="stroke" mask="url(#Clip1976)" />
    <path d="M 40 12  L 40 34  L 29.23374999949675 42.07625  C 24.308749999581533 45.77125  22.501249999612646 52.628750000000004  25.582499999559605 57.95875  C 27.863749999520333 61.90625  31.9087499994507 64  36.0099999993801 64  C 38.513749999337 64  41.041249999293484 63.21875  43.19999999925632 61.6  L 57.59999999900844 50.800000000000004  C 61.62894003862712 47.778368743626224  64.00005901761206 43.0361307855747  64 38  L 64 12  L 40 12  Z " stroke-width="0" stroke-dasharray="0" stroke="rgba(255, 255, 255, 0)" fill="none" class="stroke" mask="url(#Clip1976)" />
  </g>
</svg>