<?xml version="1.0" encoding="utf-8"?>
<svg version="1.1" xmlns:xlink="http://www.w3.org/1999/xlink" width="50px" height="25px" xmlns="http://www.w3.org/2000/svg">
  <defs>
    <pattern id="BGPattern" patternUnits="userSpaceOnUse" alignment="0 0" imageRepeat="None" />
    <mask fill="white" id="Clip1286">
      <path d="M 5 5  L 42.5 5  L 42.5 10  L 45 10  L 45 15  L 42.5 15  L 42.5 20  L 5 20  L 5 5  Z M 47.5 3.75  C 47.5 1.6789062500000114  45.82109374999999 0  43.75 0  L 3.75 0  C 1.6789062500000114 0  0 1.6789062500000114  0 3.75  L 0 21.25  C 0 23.32109374999999  1.6789062500000114 25  3.75 25  L 43.75 25  C 45.82109374999999 25  47.5 23.32109374999999  47.5 21.25  L 47.5 20  L 48.125 20  C 49.160546874999994 20  50 19.160546874999994  50 18.125  L 50 6.875000000000001  C 50 5.839453125000006  49.160546874999994 5  48.125 5  L 47.5 5  L 47.5 3.75  Z M 25 17.5  L 25 7.5  L 8 7.5  L 8 17.5  L 25 17.5  Z " fill-rule="evenodd" />
    </mask>
  </defs>
  <g>
    <path d="M 5 5  L 42.5 5  L 42.5 10  L 45 10  L 45 15  L 42.5 15  L 42.5 20  L 5 20  L 5 5  Z M 47.5 3.75  C 47.5 1.6789062500000114  45.82109374999999 0  43.75 0  L 3.75 0  C 1.6789062500000114 0  0 1.6789062500000114  0 3.75  L 0 21.25  C 0 23.32109374999999  1.6789062500000114 25  3.75 25  L 43.75 25  C 45.82109374999999 25  47.5 23.32109374999999  47.5 21.25  L 47.5 20  L 48.125 20  C 49.160546874999994 20  50 19.160546874999994  50 18.125  L 50 6.875000000000001  C 50 5.839453125000006  49.160546874999994 5  48.125 5  L 47.5 5  L 47.5 3.75  Z M 25 17.5  L 25 7.5  L 8 7.5  L 8 17.5  L 25 17.5  Z " fill-rule="nonzero" fill="rgba(0, 0, 0, 1)" stroke="none" class="fill" />
    <path d="M 5 5  L 42.5 5  L 42.5 10  L 45 10  L 45 15  L 42.5 15  L 42.5 20  L 5 20  L 5 5  Z " stroke-width="0" stroke-dasharray="0" stroke="rgba(255, 255, 255, 0)" fill="none" class="stroke" mask="url(#Clip1286)" />
    <path d="M 47.5 3.75  C 47.5 1.6789062500000114  45.82109374999999 0  43.75 0  L 3.75 0  C 1.6789062500000114 0  0 1.6789062500000114  0 3.75  L 0 21.25  C 0 23.32109374999999  1.6789062500000114 25  3.75 25  L 43.75 25  C 45.82109374999999 25  47.5 23.32109374999999  47.5 21.25  L 47.5 20  L 48.125 20  C 49.160546874999994 20  50 19.160546874999994  50 18.125  L 50 6.875000000000001  C 50 5.839453125000006  49.160546874999994 5  48.125 5  L 47.5 5  L 47.5 3.75  Z " stroke-width="0" stroke-dasharray="0" stroke="rgba(255, 255, 255, 0)" fill="none" class="stroke" mask="url(#Clip1286)" />
    <path d="M 25 17.5  L 25 7.5  L 8 7.5  L 8 17.5  L 25 17.5  Z " stroke-width="0" stroke-dasharray="0" stroke="rgba(255, 255, 255, 0)" fill="none" class="stroke" mask="url(#Clip1286)" />
  </g>
</svg>