<?xml version="1.0" encoding="utf-8"?>
<svg version="1.1" xmlns:xlink="http://www.w3.org/1999/xlink" width="11px" height="11px" xmlns="http://www.w3.org/2000/svg">
  <defs>
    <pattern id="BGPattern" patternUnits="userSpaceOnUse" alignment="0 0" imageRepeat="None" />
    <mask fill="white" id="Clip4091">
      <path d="M 0.16999999999999993 3.51  L 7.489999999999998 10.829999999999998  L 10.939999999999998 1.339999999999998  C 10.979258236381018 1.2311724806315905  10.99933407243254 1.1163579242466941  10.99933407243254 1.0006659275674554  C 10.99933407243254 0.4483811777366622  10.551618822263332 0.0006659275674554266  9.99933407243254 0.0006659275674554266  C 9.8836420757533 0.0006659275674554266  9.768827519368404 0.020741763618979725  9.659999999999997 0.05999999999999783  L 0.16999999999999993 3.51  Z " fill-rule="evenodd" />
    </mask>
  </defs>
  <g transform="matrix(1 0 0 1 -15 -6 )">
    <path d="M 0.16999999999999993 3.51  L 7.489999999999998 10.829999999999998  L 10.939999999999998 1.339999999999998  C 10.979258236381018 1.2311724806315905  10.99933407243254 1.1163579242466941  10.99933407243254 1.0006659275674554  C 10.99933407243254 0.4483811777366622  10.551618822263332 0.0006659275674554266  9.99933407243254 0.0006659275674554266  C 9.8836420757533 0.0006659275674554266  9.768827519368404 0.020741763618979725  9.659999999999997 0.05999999999999783  L 0.16999999999999993 3.51  Z " fill-rule="nonzero" fill="rgba(0, 0, 0, 1)" stroke="none" transform="matrix(1 0 0 1 15 6 )" class="fill" />
    <path d="M 0.16999999999999993 3.51  L 7.489999999999998 10.829999999999998  L 10.939999999999998 1.339999999999998  C 10.979258236381018 1.2311724806315905  10.99933407243254 1.1163579242466941  10.99933407243254 1.0006659275674554  C 10.99933407243254 0.4483811777366622  10.551618822263332 0.0006659275674554266  9.99933407243254 0.0006659275674554266  C 9.8836420757533 0.0006659275674554266  9.768827519368404 0.020741763618979725  9.659999999999997 0.05999999999999783  L 0.16999999999999993 3.51  Z " stroke-width="0" stroke-dasharray="0" stroke="rgba(255, 255, 255, 0)" fill="none" transform="matrix(1 0 0 1 15 6 )" class="stroke" mask="url(#Clip4091)" />
  </g>
</svg>