<?xml version="1.0" encoding="utf-8"?>
<svg version="1.1" xmlns:xlink="http://www.w3.org/1999/xlink" width="50px" height="50px" xmlns="http://www.w3.org/2000/svg">
  <defs>
    <pattern id="BGPattern" patternUnits="userSpaceOnUse" alignment="0 0" imageRepeat="None" />
    <mask fill="white" id="Clip679">
      <path d="M 15 0  L 0 0  L 0 15  L 15 15  L 15 0  Z M 14 1  L 14 14  L 1 14  L 1 1  L 14 1  Z M 32 0  L 18 0  L 18 15  L 32 15  L 32 0  Z M 31 1  L 31 14  L 19 14  L 19 1  L 31 1  Z M 50 0  L 35 0  L 35 15  L 50 15  L 50 0  Z M 49 1  L 49 14  L 36 14  L 36 1  L 49 1  Z M 15 18  L 0 18  L 0 32  L 15 32  L 15 18  Z M 14 19  L 14 31  L 1 31  L 1 19  L 14 19  Z M 32 18  L 18 18  L 18 32  L 32 32  L 32 18  Z M 31 19  L 31 31  L 19 31  L 19 19  L 31 19  Z M 50 18  L 35 18  L 35 32  L 50 32  L 50 18  Z M 49 19  L 49 31  L 36 31  L 36 19  L 49 19  Z M 15 35  L 0 35  L 0 50  L 15 50  L 15 35  Z M 14 36  L 14 49  L 1 49  L 1 36  L 14 36  Z M 32 35  L 18 35  L 18 50  L 32 50  L 32 35  Z M 31 36  L 31 49  L 19 49  L 19 36  L 31 36  Z M 50 35  L 35 35  L 35 50  L 50 50  L 50 35  Z " fill-rule="evenodd" />
    </mask>
  </defs>
  <g>
    <path d="M 15 0  L 0 0  L 0 15  L 15 15  L 15 0  Z M 14 1  L 14 14  L 1 14  L 1 1  L 14 1  Z M 32 0  L 18 0  L 18 15  L 32 15  L 32 0  Z M 31 1  L 31 14  L 19 14  L 19 1  L 31 1  Z M 50 0  L 35 0  L 35 15  L 50 15  L 50 0  Z M 49 1  L 49 14  L 36 14  L 36 1  L 49 1  Z M 15 18  L 0 18  L 0 32  L 15 32  L 15 18  Z M 14 19  L 14 31  L 1 31  L 1 19  L 14 19  Z M 32 18  L 18 18  L 18 32  L 32 32  L 32 18  Z M 31 19  L 31 31  L 19 31  L 19 19  L 31 19  Z M 50 18  L 35 18  L 35 32  L 50 32  L 50 18  Z M 49 19  L 49 31  L 36 31  L 36 19  L 49 19  Z M 15 35  L 0 35  L 0 50  L 15 50  L 15 35  Z M 14 36  L 14 49  L 1 49  L 1 36  L 14 36  Z M 32 35  L 18 35  L 18 50  L 32 50  L 32 35  Z M 31 36  L 31 49  L 19 49  L 19 36  L 31 36  Z M 50 35  L 35 35  L 35 50  L 50 50  L 50 35  Z " fill-rule="nonzero" fill="rgba(0, 0, 0, 1)" stroke="none" class="fill" />
    <path d="M 15 0  L 0 0  L 0 15  L 15 15  L 15 0  Z " stroke-width="0" stroke-dasharray="0" stroke="rgba(255, 255, 255, 0)" fill="none" class="stroke" mask="url(#Clip679)" />
    <path d="M 14 1  L 14 14  L 1 14  L 1 1  L 14 1  Z " stroke-width="0" stroke-dasharray="0" stroke="rgba(255, 255, 255, 0)" fill="none" class="stroke" mask="url(#Clip679)" />
    <path d="M 32 0  L 18 0  L 18 15  L 32 15  L 32 0  Z " stroke-width="0" stroke-dasharray="0" stroke="rgba(255, 255, 255, 0)" fill="none" class="stroke" mask="url(#Clip679)" />
    <path d="M 31 1  L 31 14  L 19 14  L 19 1  L 31 1  Z " stroke-width="0" stroke-dasharray="0" stroke="rgba(255, 255, 255, 0)" fill="none" class="stroke" mask="url(#Clip679)" />
    <path d="M 50 0  L 35 0  L 35 15  L 50 15  L 50 0  Z " stroke-width="0" stroke-dasharray="0" stroke="rgba(255, 255, 255, 0)" fill="none" class="stroke" mask="url(#Clip679)" />
    <path d="M 49 1  L 49 14  L 36 14  L 36 1  L 49 1  Z " stroke-width="0" stroke-dasharray="0" stroke="rgba(255, 255, 255, 0)" fill="none" class="stroke" mask="url(#Clip679)" />
    <path d="M 15 18  L 0 18  L 0 32  L 15 32  L 15 18  Z " stroke-width="0" stroke-dasharray="0" stroke="rgba(255, 255, 255, 0)" fill="none" class="stroke" mask="url(#Clip679)" />
    <path d="M 14 19  L 14 31  L 1 31  L 1 19  L 14 19  Z " stroke-width="0" stroke-dasharray="0" stroke="rgba(255, 255, 255, 0)" fill="none" class="stroke" mask="url(#Clip679)" />
    <path d="M 32 18  L 18 18  L 18 32  L 32 32  L 32 18  Z " stroke-width="0" stroke-dasharray="0" stroke="rgba(255, 255, 255, 0)" fill="none" class="stroke" mask="url(#Clip679)" />
    <path d="M 31 19  L 31 31  L 19 31  L 19 19  L 31 19  Z " stroke-width="0" stroke-dasharray="0" stroke="rgba(255, 255, 255, 0)" fill="none" class="stroke" mask="url(#Clip679)" />
    <path d="M 50 18  L 35 18  L 35 32  L 50 32  L 50 18  Z " stroke-width="0" stroke-dasharray="0" stroke="rgba(255, 255, 255, 0)" fill="none" class="stroke" mask="url(#Clip679)" />
    <path d="M 49 19  L 49 31  L 36 31  L 36 19  L 49 19  Z " stroke-width="0" stroke-dasharray="0" stroke="rgba(255, 255, 255, 0)" fill="none" class="stroke" mask="url(#Clip679)" />
    <path d="M 15 35  L 0 35  L 0 50  L 15 50  L 15 35  Z " stroke-width="0" stroke-dasharray="0" stroke="rgba(255, 255, 255, 0)" fill="none" class="stroke" mask="url(#Clip679)" />
    <path d="M 14 36  L 14 49  L 1 49  L 1 36  L 14 36  Z " stroke-width="0" stroke-dasharray="0" stroke="rgba(255, 255, 255, 0)" fill="none" class="stroke" mask="url(#Clip679)" />
    <path d="M 32 35  L 18 35  L 18 50  L 32 50  L 32 35  Z " stroke-width="0" stroke-dasharray="0" stroke="rgba(255, 255, 255, 0)" fill="none" class="stroke" mask="url(#Clip679)" />
    <path d="M 31 36  L 31 49  L 19 49  L 19 36  L 31 36  Z " stroke-width="0" stroke-dasharray="0" stroke="rgba(255, 255, 255, 0)" fill="none" class="stroke" mask="url(#Clip679)" />
    <path d="M 50 35  L 35 35  L 35 50  L 50 50  L 50 35  Z " stroke-width="0" stroke-dasharray="0" stroke="rgba(255, 255, 255, 0)" fill="none" class="stroke" mask="url(#Clip679)" />
  </g>
</svg>