<?xml version="1.0" encoding="utf-8"?>
<svg version="1.1" xmlns:xlink="http://www.w3.org/1999/xlink" width="24px" height="22px" xmlns="http://www.w3.org/2000/svg">
  <defs>
    <pattern id="BGPattern" patternUnits="userSpaceOnUse" alignment="0 0" imageRepeat="None" />
    <mask fill="white" id="Clip6567">
      <path d="M 23.25 0.5  L 0.75 0.5  C 0.3357864376269049 0.5  0 0.8357864376269052  0 1.25  L 0 20.75  C 0 21.164213562373096  0.3357864376269049 21.5  0.75 21.5  L 23.25 21.5  C 23.664213562373096 21.5  24 21.164213562373096  24 20.75  L 24 1.25  C 24 0.8357864376269052  23.664213562373096 0.5  23.25 0.5  Z M 22.5 6.5  L 1.5 6.5  L 1.5 2  L 22.5 2  L 22.5 6.5  Z M 1.5 20  L 1.5 8  L 22.5 8  L 22.5 20  L 1.5 20  Z " fill-rule="evenodd" />
    </mask>
  </defs>
  <g>
    <path d="M 23.25 0.5  L 0.75 0.5  C 0.3357864376269049 0.5  0 0.8357864376269052  0 1.25  L 0 20.75  C 0 21.164213562373096  0.3357864376269049 21.5  0.75 21.5  L 23.25 21.5  C 23.664213562373096 21.5  24 21.164213562373096  24 20.75  L 24 1.25  C 24 0.8357864376269052  23.664213562373096 0.5  23.25 0.5  Z M 22.5 6.5  L 1.5 6.5  L 1.5 2  L 22.5 2  L 22.5 6.5  Z M 1.5 20  L 1.5 8  L 22.5 8  L 22.5 20  L 1.5 20  Z " fill-rule="nonzero" fill="rgba(0, 0, 0, 1)" stroke="none" class="fill" />
    <path d="M 23.25 0.5  L 0.75 0.5  C 0.3357864376269049 0.5  0 0.8357864376269052  0 1.25  L 0 20.75  C 0 21.164213562373096  0.3357864376269049 21.5  0.75 21.5  L 23.25 21.5  C 23.664213562373096 21.5  24 21.164213562373096  24 20.75  L 24 1.25  C 24 0.8357864376269052  23.664213562373096 0.5  23.25 0.5  Z " stroke-width="0" stroke-dasharray="0" stroke="rgba(255, 255, 255, 0)" fill="none" class="stroke" mask="url(#Clip6567)" />
    <path d="M 22.5 6.5  L 1.5 6.5  L 1.5 2  L 22.5 2  L 22.5 6.5  Z " stroke-width="0" stroke-dasharray="0" stroke="rgba(255, 255, 255, 0)" fill="none" class="stroke" mask="url(#Clip6567)" />
    <path d="M 1.5 20  L 1.5 8  L 22.5 8  L 22.5 20  L 1.5 20  Z " stroke-width="0" stroke-dasharray="0" stroke="rgba(255, 255, 255, 0)" fill="none" class="stroke" mask="url(#Clip6567)" />
  </g>
</svg>