<?xml version="1.0" encoding="utf-8"?>
<svg version="1.1" xmlns:xlink="http://www.w3.org/1999/xlink" width="24px" height="24px" xmlns="http://www.w3.org/2000/svg">
  <defs>
    <pattern id="BGPattern" patternUnits="userSpaceOnUse" alignment="0 0" imageRepeat="None" />
    <mask fill="white" id="Clip6268">
      <path d="M 24 12  C 24 18.627416997969522  18.627416997969522 24  12 24  C 5.372583002030479 24  0 18.627416997969522  0 12  C 0 5.372583002030479  5.372583002030479 0  12 0  C 18.627416997969522 0  24 5.372583002030479  24 12  Z M 15.000000142452649 7.50046225420739  C 14.84407231608688 7.50046225420739  14.692021355053456 7.549061831091411  14.565000000000001 7.6395  L 10.5 10.542  L 10.5 8.25  C 10.5 7.835786437626905  10.164213562373096 7.5  9.75 7.5  C 9.335786437626904 7.5  9 7.835786437626905  9 8.25  L 9 15.75  C 9 16.164213562373096  9.335786437626904 16.5  9.75 16.5  C 10.164213562373096 16.5  10.5 16.164213562373096  10.5 15.75  L 10.5 13.457999999999998  L 14.565000000000001 16.360500000000002  C 14.692021355053456 16.45093816890859  14.844072316086876 16.49953774579261  15.000000142452649 16.49953774579261  C 15.414033194836804 16.49953774579261  15.749744815306048 16.164032973744014  15.75 15.75  L 15.75 8.25  C 15.749744815306048 7.835967026255986  15.414033194836804 7.50046225420739  15.000000142452649 7.50046225420739  Z " fill-rule="evenodd" />
    </mask>
  </defs>
  <g>
    <path d="M 24 12  C 24 18.627416997969522  18.627416997969522 24  12 24  C 5.372583002030479 24  0 18.627416997969522  0 12  C 0 5.372583002030479  5.372583002030479 0  12 0  C 18.627416997969522 0  24 5.372583002030479  24 12  Z M 15.000000142452649 7.50046225420739  C 14.84407231608688 7.50046225420739  14.692021355053456 7.549061831091411  14.565000000000001 7.6395  L 10.5 10.542  L 10.5 8.25  C 10.5 7.835786437626905  10.164213562373096 7.5  9.75 7.5  C 9.335786437626904 7.5  9 7.835786437626905  9 8.25  L 9 15.75  C 9 16.164213562373096  9.335786437626904 16.5  9.75 16.5  C 10.164213562373096 16.5  10.5 16.164213562373096  10.5 15.75  L 10.5 13.457999999999998  L 14.565000000000001 16.360500000000002  C 14.692021355053456 16.45093816890859  14.844072316086876 16.49953774579261  15.000000142452649 16.49953774579261  C 15.414033194836804 16.49953774579261  15.749744815306048 16.164032973744014  15.75 15.75  L 15.75 8.25  C 15.749744815306048 7.835967026255986  15.414033194836804 7.50046225420739  15.000000142452649 7.50046225420739  Z " fill-rule="nonzero" fill="rgba(0, 0, 0, 1)" stroke="none" class="fill" />
    <path d="M 24 12  C 24 18.627416997969522  18.627416997969522 24  12 24  C 5.372583002030479 24  0 18.627416997969522  0 12  C 0 5.372583002030479  5.372583002030479 0  12 0  C 18.627416997969522 0  24 5.372583002030479  24 12  Z " stroke-width="0" stroke-dasharray="0" stroke="rgba(255, 255, 255, 0)" fill="none" class="stroke" mask="url(#Clip6268)" />
    <path d="M 15.000000142452649 7.50046225420739  C 14.84407231608688 7.50046225420739  14.692021355053456 7.549061831091411  14.565000000000001 7.6395  L 10.5 10.542  L 10.5 8.25  C 10.5 7.835786437626905  10.164213562373096 7.5  9.75 7.5  C 9.335786437626904 7.5  9 7.835786437626905  9 8.25  L 9 15.75  C 9 16.164213562373096  9.335786437626904 16.5  9.75 16.5  C 10.164213562373096 16.5  10.5 16.164213562373096  10.5 15.75  L 10.5 13.457999999999998  L 14.565000000000001 16.360500000000002  C 14.692021355053456 16.45093816890859  14.844072316086876 16.49953774579261  15.000000142452649 16.49953774579261  C 15.414033194836804 16.49953774579261  15.749744815306048 16.164032973744014  15.75 15.75  L 15.75 8.25  C 15.749744815306048 7.835967026255986  15.414033194836804 7.50046225420739  15.000000142452649 7.50046225420739  Z " stroke-width="0" stroke-dasharray="0" stroke="rgba(255, 255, 255, 0)" fill="none" class="stroke" mask="url(#Clip6268)" />
  </g>
</svg>