<?xml version="1.0" encoding="utf-8"?>
<svg version="1.1" xmlns:xlink="http://www.w3.org/1999/xlink" width="46px" height="48px" xmlns="http://www.w3.org/2000/svg">
  <defs>
    <pattern id="BGPattern" patternUnits="userSpaceOnUse" alignment="0 0" imageRepeat="None" />
    <mask fill="white" id="Clip6851">
      <path d="M 4.295999999999998 23.358000000000008  L 4.296 23.356  C 2.22 19.736  1.798 16.348000000000003  3.2740000000000005 13.794000000000002  C 5.25 10.370000000000003  10.21 9.174000000000003  16.482 10.316000000000004  C 16.80119182212605 10.35941320290515  17.039208796693664 10.631994217714375  17.039208796693664 10.954124820884319  C 17.039208796693664 11.309796199775349  16.750880175584697 11.598124820884319  16.395208796693666 11.598124820884319  C 16.34701958576243 11.598124820884319  16.298982623361635 11.592716023153853  16.252 11.582000000000003  C 10.451999999999998 10.526000000000003  6.03 11.592000000000002  4.387999999999998 14.438000000000002  C 3.177999999999998 16.532000000000004  3.541999999999998 19.456000000000003  5.411999999999998 22.718000000000004  C 5.478284566085891 22.82161394172426  5.513509820082797 22.942043246261978  5.513509820082797 23.065045248769383  C 5.513509820082797 23.420716627660415  5.225181198973828 23.70904524876938  4.869509820082797 23.70904524876938  C 4.627577027252396 23.70904524876938  4.406054908599625 23.5734516032427  4.295999999999998 23.358000000000008  Z M 34.138000000000005 11.218000000000002  L 34.136 11.218000000000002  C 37.806000000000004 11.266000000000002  40.448 12.410000000000004  41.638000000000005 14.470000000000002  C 43.278000000000006 17.308000000000003  41.998000000000005 21.660000000000004  38.202000000000005 26.144000000000005  C 38.08668256009551 26.26396130600167  38.02227443972258 26.42390214166214  38.02227443972258 26.59030174167293  C 38.02227443972258 26.94597312056397  38.310603060831546 27.234301741672937  38.666274439722585 27.234301741672937  C 38.869286697288814 27.234301741672937  39.060413859996366 27.138575481795858  39.182 26.976000000000003  C 43.29 22.124000000000002  44.724000000000004 17.244000000000003  42.752 13.826  C 41.300000000000004 11.312000000000003  38.232 9.986000000000002  34.154 9.932000000000002  C 34.13969706001388 9.931043553641842  34.12536617288552 9.930564930506913  34.1110312894928 9.930564930506913  C 33.75535991060177 9.930564930506913  33.4670312894928 10.218893551615881  33.4670312894928 10.574564930506911  C 33.4670312894928 10.930236309397943  33.75535991060177 11.218564930506911  34.1110312894928 11.218564930506911  C 34.12002381793403 11.218564930506911  34.129015359996124 11.21837657903146  34.138000000000005 11.218000000000002  Z M 30.426000000000002 41.696000000000005  L 30.428000000000008 41.69600000000001  C 30.32774754719527 41.63567163035941  30.21295364532543 41.60379542560714  30.095949087820784 41.60379542560714  C 29.869927141019776 41.60379542560714  29.660448832353097 41.72228477117346  29.544000000000004 41.916000000000004  C 27.676000000000005 45.022000000000006  25.384000000000004 46.714000000000006  23.024000000000004 46.714000000000006  C 19.740000000000006 46.714000000000006  16.608000000000004 43.42000000000001  14.624000000000002 37.87800000000001  C 14.538128436464731 37.61210089623003  14.29058674032804 37.43191364639372  14.011165447636035 37.43191364639372  C 13.655494068745003 37.43191364639372  13.367165447636035 37.720242267502684  13.367165447636035 38.075913646393715  C 13.367165447636035 38.156725076595265  13.38237503744411 38.23681457026271  13.412000000000003 38.312000000000005  C 15.558 44.308  19.072 48  23.02 48  C 25.9 48  28.566 46.036  30.646 42.580000000000005  C 30.706328369640605 42.47974754719527  30.73820457439288 42.36495364532542  30.73820457439288 42.24794908782077  C 30.73820457439288 42.02192714101976  30.619715228826546 41.8124488323531  30.426000000000002 41.696000000000005  Z M 45.140007774794796 36.50107954658683  C 45.140007774794796 36.50338636657539  45.140005183194894 36.50569318583451  45.14 36.508  C 45.1372311495745 38.20707497191463  43.75908131772506 39.582980770049765  42.06000408972176 39.582980770049765  C 41.417309755680684 39.582980770049765  40.79071482654317 39.38193210228656  40.268 39.008  C 35.358000000000004 41.898  25.976 40.428000000000004  17.148 35.328  C 13.388 33.158  10.094 30.544000000000004  7.558000000000001 27.758000000000003  C 7.4391812360758 27.63749745073482  7.372569297307601 27.4750682155142  7.372569297307601 27.30583830373769  C 7.372569297307601 26.950166924846656  7.6608979184165715 26.661838303737692  8.016569297307601 26.661838303737692  C 8.20698448483474 26.661838303737692  8.387638046254464 26.746104503439724  8.51 26.892000000000003  C 10.954 29.578000000000003  14.143999999999998 32.11  17.79 34.214000000000006  C 26.124000000000002 39.026  34.896 40.45400000000001  39.384 38.026  C 39.11923872180638 37.56138347700374  38.98000777479479 37.03583841549117  38.98000777479479 36.50107954658683  C 38.98000777479479 34.80004251710798  40.35897074531595 33.421079546586824  42.06000777479479 33.421079546586824  C 43.76104480427364 33.421079546586824  45.140007774794796 34.80004251710798  45.140007774794796 36.50107954658683  Z M 7.017999999999998 36.510000000000005  L 7.015999999999998 36.508  C 7.016003399664449 36.50986823788025  7.016005099497727 36.511736478467206  7.016005099497727 36.51360471944067  C 7.016005099497727 38.21464174891951  5.637042128976571 39.59360471944067  3.9360050994977267 39.59360471944067  C 2.2349680700188834 39.59360471944067  0.856005099497727 38.21464174891951  0.856005099497727 36.51360471944067  C 0.856005099497727 35.39268548820296  1.464975594209033 34.36026473073677  2.445999999999998 33.818000000000005  C 1.9799999999999978 28.064000000000007  8.025999999999998 20.350000000000005  17.165999999999997 15.074000000000005  C 20.961999999999996 12.882000000000005  24.913999999999998 11.326000000000004  28.628 10.532000000000007  C 28.65778613114078 10.527800344130267  28.687829906525927 10.52569277574914  28.71791064318181 10.52569277574914  C 29.07358202207284 10.52569277574914  29.361910643181808 10.81402139685811  29.361910643181808 11.16969277574914  C 29.361910643181808 11.456003978608265  29.17288864147787 11.707935403147923  28.897999999999996 11.788000000000006  C 25.317999999999998 12.556000000000004  21.491999999999997 14.062000000000005  17.807999999999996 16.188000000000006  C 9.199999999999996 21.158000000000005  3.511999999999997 28.322000000000006  3.711999999999996 33.44200000000001  C 3.787999999999996 33.43600000000001  3.8619999999999965 33.43000000000001  3.937999999999996 33.43000000000001  C 5.637999999999996 33.43000000000001  7.017999999999998 34.81000000000001  7.017999999999998 36.510000000000005  Z M 19.943996868620715 3.084389104182187  C 19.943996868620715 3.0829260688974616  19.943997912414076 3.0814630337953504  19.944 3.08  C 20.003735004537504 1.4232282663827482  21.36415174153959 0.11097747519207228  23.022 0.11097747519207228  C 24.67984825846041 0.11097747519207228  26.040264995462493 1.4232282663827471  26.099999999999998 3.08  C 26.099999999999998 3.1260000000000003  26.095999999999997 3.17  26.093999999999998 3.2139999999999995  C 31.192 5.848  34.733999999999995 14.834  34.733999999999995 25.22  C 34.733999999999995 29.490000000000002  34.138 33.588  33.025999999999996 37.14  C 32.951598640625335 37.42298744383841  32.69577123362459 37.62024838980547  32.4031666272921 37.62024838980547  C 32.04749524840107 37.62024838980547  31.759166627292107 37.3319197686965  31.759166627292107 36.97624838980547  C 31.759166627292107 36.90112928820667  31.772309221784518 36.826589399626954  31.797999999999995 36.756  C 32.87 33.332  33.44799999999999 29.362000000000002  33.44799999999999 25.22  C 33.44799999999999 15.44  30.19599999999999 7.029999999999998  25.753999999999994 4.494  C 25.226364822996352 5.517371932235878  24.171382551917095 6.160389104182187  23.019996868620716 6.160389104182187  C 21.321168978141195 6.160389104182187  19.943996868620715 4.783216994661708  19.943996868620715 3.084389104182187  Z M 23.022 22.991865354158328  C 22.86399889908888 22.991865354158328  22.70644596152511 23.00867144080955  22.552 23.042  C 21.526168315672496 23.26336863711383  20.793865354158328 24.17055504285939  20.793865354158328 25.22  C 20.793865354158328 26.45056478546799  21.79143521453201 27.448134645841677  23.022 27.448134645841677  C 23.18000110091111 27.448134645841677  23.337554038474902 27.431328559190447  23.492000000000004 27.398000000000003  C 24.51783168432752 27.17663136288617  25.250134645841676 26.269444957140607  25.250134645841676 25.22  C 25.250134645841676 23.98943521453201  24.25256478546799 22.991865354158328  23.022 22.991865354158328  Z " fill-rule="evenodd" />
    </mask>
  </defs>
  <g>
    <path d="M 4.295999999999998 23.358000000000008  L 4.296 23.356  C 2.22 19.736  1.798 16.348000000000003  3.2740000000000005 13.794000000000002  C 5.25 10.370000000000003  10.21 9.174000000000003  16.482 10.316000000000004  C 16.80119182212605 10.35941320290515  17.039208796693664 10.631994217714375  17.039208796693664 10.954124820884319  C 17.039208796693664 11.309796199775349  16.750880175584697 11.598124820884319  16.395208796693666 11.598124820884319  C 16.34701958576243 11.598124820884319  16.298982623361635 11.592716023153853  16.252 11.582000000000003  C 10.451999999999998 10.526000000000003  6.03 11.592000000000002  4.387999999999998 14.438000000000002  C 3.177999999999998 16.532000000000004  3.541999999999998 19.456000000000003  5.411999999999998 22.718000000000004  C 5.478284566085891 22.82161394172426  5.513509820082797 22.942043246261978  5.513509820082797 23.065045248769383  C 5.513509820082797 23.420716627660415  5.225181198973828 23.70904524876938  4.869509820082797 23.70904524876938  C 4.627577027252396 23.70904524876938  4.406054908599625 23.5734516032427  4.295999999999998 23.358000000000008  Z M 34.138000000000005 11.218000000000002  L 34.136 11.218000000000002  C 37.806000000000004 11.266000000000002  40.448 12.410000000000004  41.638000000000005 14.470000000000002  C 43.278000000000006 17.308000000000003  41.998000000000005 21.660000000000004  38.202000000000005 26.144000000000005  C 38.08668256009551 26.26396130600167  38.02227443972258 26.42390214166214  38.02227443972258 26.59030174167293  C 38.02227443972258 26.94597312056397  38.310603060831546 27.234301741672937  38.666274439722585 27.234301741672937  C 38.869286697288814 27.234301741672937  39.060413859996366 27.138575481795858  39.182 26.976000000000003  C 43.29 22.124000000000002  44.724000000000004 17.244000000000003  42.752 13.826  C 41.300000000000004 11.312000000000003  38.232 9.986000000000002  34.154 9.932000000000002  C 34.13969706001388 9.931043553641842  34.12536617288552 9.930564930506913  34.1110312894928 9.930564930506913  C 33.75535991060177 9.930564930506913  33.4670312894928 10.218893551615881  33.4670312894928 10.574564930506911  C 33.4670312894928 10.930236309397943  33.75535991060177 11.218564930506911  34.1110312894928 11.218564930506911  C 34.12002381793403 11.218564930506911  34.129015359996124 11.21837657903146  34.138000000000005 11.218000000000002  Z M 30.426000000000002 41.696000000000005  L 30.428000000000008 41.69600000000001  C 30.32774754719527 41.63567163035941  30.21295364532543 41.60379542560714  30.095949087820784 41.60379542560714  C 29.869927141019776 41.60379542560714  29.660448832353097 41.72228477117346  29.544000000000004 41.916000000000004  C 27.676000000000005 45.022000000000006  25.384000000000004 46.714000000000006  23.024000000000004 46.714000000000006  C 19.740000000000006 46.714000000000006  16.608000000000004 43.42000000000001  14.624000000000002 37.87800000000001  C 14.538128436464731 37.61210089623003  14.29058674032804 37.43191364639372  14.011165447636035 37.43191364639372  C 13.655494068745003 37.43191364639372  13.367165447636035 37.720242267502684  13.367165447636035 38.075913646393715  C 13.367165447636035 38.156725076595265  13.38237503744411 38.23681457026271  13.412000000000003 38.312000000000005  C 15.558 44.308  19.072 48  23.02 48  C 25.9 48  28.566 46.036  30.646 42.580000000000005  C 30.706328369640605 42.47974754719527  30.73820457439288 42.36495364532542  30.73820457439288 42.24794908782077  C 30.73820457439288 42.02192714101976  30.619715228826546 41.8124488323531  30.426000000000002 41.696000000000005  Z M 45.140007774794796 36.50107954658683  C 45.140007774794796 36.50338636657539  45.140005183194894 36.50569318583451  45.14 36.508  C 45.1372311495745 38.20707497191463  43.75908131772506 39.582980770049765  42.06000408972176 39.582980770049765  C 41.417309755680684 39.582980770049765  40.79071482654317 39.38193210228656  40.268 39.008  C 35.358000000000004 41.898  25.976 40.428000000000004  17.148 35.328  C 13.388 33.158  10.094 30.544000000000004  7.558000000000001 27.758000000000003  C 7.4391812360758 27.63749745073482  7.372569297307601 27.4750682155142  7.372569297307601 27.30583830373769  C 7.372569297307601 26.950166924846656  7.6608979184165715 26.661838303737692  8.016569297307601 26.661838303737692  C 8.20698448483474 26.661838303737692  8.387638046254464 26.746104503439724  8.51 26.892000000000003  C 10.954 29.578000000000003  14.143999999999998 32.11  17.79 34.214000000000006  C 26.124000000000002 39.026  34.896 40.45400000000001  39.384 38.026  C 39.11923872180638 37.56138347700374  38.98000777479479 37.03583841549117  38.98000777479479 36.50107954658683  C 38.98000777479479 34.80004251710798  40.35897074531595 33.421079546586824  42.06000777479479 33.421079546586824  C 43.76104480427364 33.421079546586824  45.140007774794796 34.80004251710798  45.140007774794796 36.50107954658683  Z M 7.017999999999998 36.510000000000005  L 7.015999999999998 36.508  C 7.016003399664449 36.50986823788025  7.016005099497727 36.511736478467206  7.016005099497727 36.51360471944067  C 7.016005099497727 38.21464174891951  5.637042128976571 39.59360471944067  3.9360050994977267 39.59360471944067  C 2.2349680700188834 39.59360471944067  0.856005099497727 38.21464174891951  0.856005099497727 36.51360471944067  C 0.856005099497727 35.39268548820296  1.464975594209033 34.36026473073677  2.445999999999998 33.818000000000005  C 1.9799999999999978 28.064000000000007  8.025999999999998 20.350000000000005  17.165999999999997 15.074000000000005  C 20.961999999999996 12.882000000000005  24.913999999999998 11.326000000000004  28.628 10.532000000000007  C 28.65778613114078 10.527800344130267  28.687829906525927 10.52569277574914  28.71791064318181 10.52569277574914  C 29.07358202207284 10.52569277574914  29.361910643181808 10.81402139685811  29.361910643181808 11.16969277574914  C 29.361910643181808 11.456003978608265  29.17288864147787 11.707935403147923  28.897999999999996 11.788000000000006  C 25.317999999999998 12.556000000000004  21.491999999999997 14.062000000000005  17.807999999999996 16.188000000000006  C 9.199999999999996 21.158000000000005  3.511999999999997 28.322000000000006  3.711999999999996 33.44200000000001  C 3.787999999999996 33.43600000000001  3.8619999999999965 33.43000000000001  3.937999999999996 33.43000000000001  C 5.637999999999996 33.43000000000001  7.017999999999998 34.81000000000001  7.017999999999998 36.510000000000005  Z M 19.943996868620715 3.084389104182187  C 19.943996868620715 3.0829260688974616  19.943997912414076 3.0814630337953504  19.944 3.08  C 20.003735004537504 1.4232282663827482  21.36415174153959 0.11097747519207228  23.022 0.11097747519207228  C 24.67984825846041 0.11097747519207228  26.040264995462493 1.4232282663827471  26.099999999999998 3.08  C 26.099999999999998 3.1260000000000003  26.095999999999997 3.17  26.093999999999998 3.2139999999999995  C 31.192 5.848  34.733999999999995 14.834  34.733999999999995 25.22  C 34.733999999999995 29.490000000000002  34.138 33.588  33.025999999999996 37.14  C 32.951598640625335 37.42298744383841  32.69577123362459 37.62024838980547  32.4031666272921 37.62024838980547  C 32.04749524840107 37.62024838980547  31.759166627292107 37.3319197686965  31.759166627292107 36.97624838980547  C 31.759166627292107 36.90112928820667  31.772309221784518 36.826589399626954  31.797999999999995 36.756  C 32.87 33.332  33.44799999999999 29.362000000000002  33.44799999999999 25.22  C 33.44799999999999 15.44  30.19599999999999 7.029999999999998  25.753999999999994 4.494  C 25.226364822996352 5.517371932235878  24.171382551917095 6.160389104182187  23.019996868620716 6.160389104182187  C 21.321168978141195 6.160389104182187  19.943996868620715 4.783216994661708  19.943996868620715 3.084389104182187  Z M 23.022 22.991865354158328  C 22.86399889908888 22.991865354158328  22.70644596152511 23.00867144080955  22.552 23.042  C 21.526168315672496 23.26336863711383  20.793865354158328 24.17055504285939  20.793865354158328 25.22  C 20.793865354158328 26.45056478546799  21.79143521453201 27.448134645841677  23.022 27.448134645841677  C 23.18000110091111 27.448134645841677  23.337554038474902 27.431328559190447  23.492000000000004 27.398000000000003  C 24.51783168432752 27.17663136288617  25.250134645841676 26.269444957140607  25.250134645841676 25.22  C 25.250134645841676 23.98943521453201  24.25256478546799 22.991865354158328  23.022 22.991865354158328  Z " fill-rule="nonzero" fill="rgba(71, 132, 143, 1)" stroke="none" class="fill" />
    <path d="M 4.295999999999998 23.358000000000008  L 4.296 23.356  C 2.22 19.736  1.798 16.348000000000003  3.2740000000000005 13.794000000000002  C 5.25 10.370000000000003  10.21 9.174000000000003  16.482 10.316000000000004  C 16.80119182212605 10.35941320290515  17.039208796693664 10.631994217714375  17.039208796693664 10.954124820884319  C 17.039208796693664 11.309796199775349  16.750880175584697 11.598124820884319  16.395208796693666 11.598124820884319  C 16.34701958576243 11.598124820884319  16.298982623361635 11.592716023153853  16.252 11.582000000000003  C 10.451999999999998 10.526000000000003  6.03 11.592000000000002  4.387999999999998 14.438000000000002  C 3.177999999999998 16.532000000000004  3.541999999999998 19.456000000000003  5.411999999999998 22.718000000000004  C 5.478284566085891 22.82161394172426  5.513509820082797 22.942043246261978  5.513509820082797 23.065045248769383  C 5.513509820082797 23.420716627660415  5.225181198973828 23.70904524876938  4.869509820082797 23.70904524876938  C 4.627577027252396 23.70904524876938  4.406054908599625 23.5734516032427  4.295999999999998 23.358000000000008  Z " stroke-width="0" stroke-dasharray="0" stroke="rgba(255, 255, 255, 0)" fill="none" class="stroke" mask="url(#Clip6851)" />
    <path d="M 34.138000000000005 11.218000000000002  L 34.136 11.218000000000002  C 37.806000000000004 11.266000000000002  40.448 12.410000000000004  41.638000000000005 14.470000000000002  C 43.278000000000006 17.308000000000003  41.998000000000005 21.660000000000004  38.202000000000005 26.144000000000005  C 38.08668256009551 26.26396130600167  38.02227443972258 26.42390214166214  38.02227443972258 26.59030174167293  C 38.02227443972258 26.94597312056397  38.310603060831546 27.234301741672937  38.666274439722585 27.234301741672937  C 38.869286697288814 27.234301741672937  39.060413859996366 27.138575481795858  39.182 26.976000000000003  C 43.29 22.124000000000002  44.724000000000004 17.244000000000003  42.752 13.826  C 41.300000000000004 11.312000000000003  38.232 9.986000000000002  34.154 9.932000000000002  C 34.13969706001388 9.931043553641842  34.12536617288552 9.930564930506913  34.1110312894928 9.930564930506913  C 33.75535991060177 9.930564930506913  33.4670312894928 10.218893551615881  33.4670312894928 10.574564930506911  C 33.4670312894928 10.930236309397943  33.75535991060177 11.218564930506911  34.1110312894928 11.218564930506911  C 34.12002381793403 11.218564930506911  34.129015359996124 11.21837657903146  34.138000000000005 11.218000000000002  Z " stroke-width="0" stroke-dasharray="0" stroke="rgba(255, 255, 255, 0)" fill="none" class="stroke" mask="url(#Clip6851)" />
    <path d="M 30.426000000000002 41.696000000000005  L 30.428000000000008 41.69600000000001  C 30.32774754719527 41.63567163035941  30.21295364532543 41.60379542560714  30.095949087820784 41.60379542560714  C 29.869927141019776 41.60379542560714  29.660448832353097 41.72228477117346  29.544000000000004 41.916000000000004  C 27.676000000000005 45.022000000000006  25.384000000000004 46.714000000000006  23.024000000000004 46.714000000000006  C 19.740000000000006 46.714000000000006  16.608000000000004 43.42000000000001  14.624000000000002 37.87800000000001  C 14.538128436464731 37.61210089623003  14.29058674032804 37.43191364639372  14.011165447636035 37.43191364639372  C 13.655494068745003 37.43191364639372  13.367165447636035 37.720242267502684  13.367165447636035 38.075913646393715  C 13.367165447636035 38.156725076595265  13.38237503744411 38.23681457026271  13.412000000000003 38.312000000000005  C 15.558 44.308  19.072 48  23.02 48  C 25.9 48  28.566 46.036  30.646 42.580000000000005  C 30.706328369640605 42.47974754719527  30.73820457439288 42.36495364532542  30.73820457439288 42.24794908782077  C 30.73820457439288 42.02192714101976  30.619715228826546 41.8124488323531  30.426000000000002 41.696000000000005  Z " stroke-width="0" stroke-dasharray="0" stroke="rgba(255, 255, 255, 0)" fill="none" class="stroke" mask="url(#Clip6851)" />
    <path d="M 45.140007774794796 36.50107954658683  C 45.140007774794796 36.50338636657539  45.140005183194894 36.50569318583451  45.14 36.508  C 45.1372311495745 38.20707497191463  43.75908131772506 39.582980770049765  42.06000408972176 39.582980770049765  C 41.417309755680684 39.582980770049765  40.79071482654317 39.38193210228656  40.268 39.008  C 35.358000000000004 41.898  25.976 40.428000000000004  17.148 35.328  C 13.388 33.158  10.094 30.544000000000004  7.558000000000001 27.758000000000003  C 7.4391812360758 27.63749745073482  7.372569297307601 27.4750682155142  7.372569297307601 27.30583830373769  C 7.372569297307601 26.950166924846656  7.6608979184165715 26.661838303737692  8.016569297307601 26.661838303737692  C 8.20698448483474 26.661838303737692  8.387638046254464 26.746104503439724  8.51 26.892000000000003  C 10.954 29.578000000000003  14.143999999999998 32.11  17.79 34.214000000000006  C 26.124000000000002 39.026  34.896 40.45400000000001  39.384 38.026  C 39.11923872180638 37.56138347700374  38.98000777479479 37.03583841549117  38.98000777479479 36.50107954658683  C 38.98000777479479 34.80004251710798  40.35897074531595 33.421079546586824  42.06000777479479 33.421079546586824  C 43.76104480427364 33.421079546586824  45.140007774794796 34.80004251710798  45.140007774794796 36.50107954658683  Z " stroke-width="0" stroke-dasharray="0" stroke="rgba(255, 255, 255, 0)" fill="none" class="stroke" mask="url(#Clip6851)" />
    <path d="M 7.017999999999998 36.510000000000005  L 7.015999999999998 36.508  C 7.016003399664449 36.50986823788025  7.016005099497727 36.511736478467206  7.016005099497727 36.51360471944067  C 7.016005099497727 38.21464174891951  5.637042128976571 39.59360471944067  3.9360050994977267 39.59360471944067  C 2.2349680700188834 39.59360471944067  0.856005099497727 38.21464174891951  0.856005099497727 36.51360471944067  C 0.856005099497727 35.39268548820296  1.464975594209033 34.36026473073677  2.445999999999998 33.818000000000005  C 1.9799999999999978 28.064000000000007  8.025999999999998 20.350000000000005  17.165999999999997 15.074000000000005  C 20.961999999999996 12.882000000000005  24.913999999999998 11.326000000000004  28.628 10.532000000000007  C 28.65778613114078 10.527800344130267  28.687829906525927 10.52569277574914  28.71791064318181 10.52569277574914  C 29.07358202207284 10.52569277574914  29.361910643181808 10.81402139685811  29.361910643181808 11.16969277574914  C 29.361910643181808 11.456003978608265  29.17288864147787 11.707935403147923  28.897999999999996 11.788000000000006  C 25.317999999999998 12.556000000000004  21.491999999999997 14.062000000000005  17.807999999999996 16.188000000000006  C 9.199999999999996 21.158000000000005  3.511999999999997 28.322000000000006  3.711999999999996 33.44200000000001  C 3.787999999999996 33.43600000000001  3.8619999999999965 33.43000000000001  3.937999999999996 33.43000000000001  C 5.637999999999996 33.43000000000001  7.017999999999998 34.81000000000001  7.017999999999998 36.510000000000005  Z " stroke-width="0" stroke-dasharray="0" stroke="rgba(255, 255, 255, 0)" fill="none" class="stroke" mask="url(#Clip6851)" />
    <path d="M 19.943996868620715 3.084389104182187  C 19.943996868620715 3.0829260688974616  19.943997912414076 3.0814630337953504  19.944 3.08  C 20.003735004537504 1.4232282663827482  21.36415174153959 0.11097747519207228  23.022 0.11097747519207228  C 24.67984825846041 0.11097747519207228  26.040264995462493 1.4232282663827471  26.099999999999998 3.08  C 26.099999999999998 3.1260000000000003  26.095999999999997 3.17  26.093999999999998 3.2139999999999995  C 31.192 5.848  34.733999999999995 14.834  34.733999999999995 25.22  C 34.733999999999995 29.490000000000002  34.138 33.588  33.025999999999996 37.14  C 32.951598640625335 37.42298744383841  32.69577123362459 37.62024838980547  32.4031666272921 37.62024838980547  C 32.04749524840107 37.62024838980547  31.759166627292107 37.3319197686965  31.759166627292107 36.97624838980547  C 31.759166627292107 36.90112928820667  31.772309221784518 36.826589399626954  31.797999999999995 36.756  C 32.87 33.332  33.44799999999999 29.362000000000002  33.44799999999999 25.22  C 33.44799999999999 15.44  30.19599999999999 7.029999999999998  25.753999999999994 4.494  C 25.226364822996352 5.517371932235878  24.171382551917095 6.160389104182187  23.019996868620716 6.160389104182187  C 21.321168978141195 6.160389104182187  19.943996868620715 4.783216994661708  19.943996868620715 3.084389104182187  Z " stroke-width="0" stroke-dasharray="0" stroke="rgba(255, 255, 255, 0)" fill="none" class="stroke" mask="url(#Clip6851)" />
    <path d="M 23.022 22.991865354158328  C 22.86399889908888 22.991865354158328  22.70644596152511 23.00867144080955  22.552 23.042  C 21.526168315672496 23.26336863711383  20.793865354158328 24.17055504285939  20.793865354158328 25.22  C 20.793865354158328 26.45056478546799  21.79143521453201 27.448134645841677  23.022 27.448134645841677  C 23.18000110091111 27.448134645841677  23.337554038474902 27.431328559190447  23.492000000000004 27.398000000000003  C 24.51783168432752 27.17663136288617  25.250134645841676 26.269444957140607  25.250134645841676 25.22  C 25.250134645841676 23.98943521453201  24.25256478546799 22.991865354158328  23.022 22.991865354158328  Z " stroke-width="0" stroke-dasharray="0" stroke="rgba(255, 255, 255, 0)" fill="none" class="stroke" mask="url(#Clip6851)" />
  </g>
</svg>