<?xml version="1.0" encoding="utf-8"?>
<svg version="1.1" xmlns:xlink="http://www.w3.org/1999/xlink" width="7px" height="10px" xmlns="http://www.w3.org/2000/svg">
  <defs>
    <pattern id="BGPattern" patternUnits="userSpaceOnUse" alignment="0 0" imageRepeat="None" />
    <mask fill="white" id="Clip3575">
      <path d="M 7 8  L 7 10  L 2 10  C 0.8954305003384135 10  0 9.104569499661586  0 8  L 0 2  C 0 0.8954305003384135  0.8954305003384135 0  2 0  L 7 0  L 7 2  L 2 2  L 2 8  L 7 8  Z " fill-rule="evenodd" />
    </mask>
  </defs>
  <g transform="matrix(1 0 0 1 -8 -11 )">
    <path d="M 7 8  L 7 10  L 2 10  C 0.8954305003384135 10  0 9.104569499661586  0 8  L 0 2  C 0 0.8954305003384135  0.8954305003384135 0  2 0  L 7 0  L 7 2  L 2 2  L 2 8  L 7 8  Z " fill-rule="nonzero" fill="rgba(0, 0, 0, 1)" stroke="none" transform="matrix(1 0 0 1 8 11 )" class="fill" />
    <path d="M 7 8  L 7 10  L 2 10  C 0.8954305003384135 10  0 9.104569499661586  0 8  L 0 2  C 0 0.8954305003384135  0.8954305003384135 0  2 0  L 7 0  L 7 2  L 2 2  L 2 8  L 7 8  Z " stroke-width="0" stroke-dasharray="0" stroke="rgba(255, 255, 255, 0)" fill="none" transform="matrix(1 0 0 1 8 11 )" class="stroke" mask="url(#Clip3575)" />
  </g>
</svg>