<?xml version="1.0" encoding="utf-8"?>
<svg version="1.1" xmlns:xlink="http://www.w3.org/1999/xlink" width="48px" height="44px" xmlns="http://www.w3.org/2000/svg">
  <defs>
    <pattern id="BGPattern" patternUnits="userSpaceOnUse" alignment="0 0" imageRepeat="None" />
    <mask fill="white" id="Clip2641">
      <path d="M 48 40  C 48 39.725  47.775 39.5  47.5 39  L 5 39  L 5 0.5  C 4.5 0.22499999999999964  4.275 0  4 0  L 0.5 0  C 0.22499999999999964 0  0 0.22499999999999964  0 0.5  L 0 43.5  C 0 43.775  0.22499999999999964 44  0.5 44  L 47.5 44  C 47.775 44  48 43.775  48 43.5  L 48 40  Z M 8.64375 27.375  L 11.1125 29.856250000000003  C 11.306250000000002 30.050000000000004  11.618750000000002 30.050000000000004  11.818750000000001 29.856250000000003  L 20.462500000000002 21.25625  L 28.4375 29.28125  C 28.63125 29.475  28.950000000000003 29.475  29.143749999999997 29.28125  L 46.356249999999996 12.075  C 46.55 11.881249999999998  46.55 11.562499999999998  46.356249999999996 11.368749999999999  L 43.881249999999994 8.893749999999997  C 43.685663647953355 8.700083070452088  43.370586352046644 8.700083070452084  43.175 8.893749999999997  L 28.799999999999997 23.262499999999996  L 20.8375 15.250000000000002  C 20.641913647953352 15.056333070452084  20.326836352046644 15.05633307045208  20.131249999999998 15.250000000000002  L 8.64375 26.668750000000003  C 8.450083070452092 26.86433635204665  8.450083070452088 27.17941364795336  8.64375 27.375  Z " fill-rule="evenodd" />
    </mask>
  </defs>
  <g>
    <path d="M 48 40  C 48 39.725  47.775 39.5  47.5 39  L 5 39  L 5 0.5  C 4.5 0.22499999999999964  4.275 0  4 0  L 0.5 0  C 0.22499999999999964 0  0 0.22499999999999964  0 0.5  L 0 43.5  C 0 43.775  0.22499999999999964 44  0.5 44  L 47.5 44  C 47.775 44  48 43.775  48 43.5  L 48 40  Z M 8.64375 27.375  L 11.1125 29.856250000000003  C 11.306250000000002 30.050000000000004  11.618750000000002 30.050000000000004  11.818750000000001 29.856250000000003  L 20.462500000000002 21.25625  L 28.4375 29.28125  C 28.63125 29.475  28.950000000000003 29.475  29.143749999999997 29.28125  L 46.356249999999996 12.075  C 46.55 11.881249999999998  46.55 11.562499999999998  46.356249999999996 11.368749999999999  L 43.881249999999994 8.893749999999997  C 43.685663647953355 8.700083070452088  43.370586352046644 8.700083070452084  43.175 8.893749999999997  L 28.799999999999997 23.262499999999996  L 20.8375 15.250000000000002  C 20.641913647953352 15.056333070452084  20.326836352046644 15.05633307045208  20.131249999999998 15.250000000000002  L 8.64375 26.668750000000003  C 8.450083070452092 26.86433635204665  8.450083070452088 27.17941364795336  8.64375 27.375  Z " fill-rule="nonzero" fill="rgba(0, 0, 0, 1)" stroke="none" class="fill" />
    <path d="M 48 40  C 48 39.725  47.775 39.5  47.5 39  L 5 39  L 5 0.5  C 4.5 0.22499999999999964  4.275 0  4 0  L 0.5 0  C 0.22499999999999964 0  0 0.22499999999999964  0 0.5  L 0 43.5  C 0 43.775  0.22499999999999964 44  0.5 44  L 47.5 44  C 47.775 44  48 43.775  48 43.5  L 48 40  Z " stroke-width="0" stroke-dasharray="0" stroke="rgba(255, 255, 255, 0)" fill="none" class="stroke" mask="url(#Clip2641)" />
    <path d="M 8.64375 27.375  L 11.1125 29.856250000000003  C 11.306250000000002 30.050000000000004  11.618750000000002 30.050000000000004  11.818750000000001 29.856250000000003  L 20.462500000000002 21.25625  L 28.4375 29.28125  C 28.63125 29.475  28.950000000000003 29.475  29.143749999999997 29.28125  L 46.356249999999996 12.075  C 46.55 11.881249999999998  46.55 11.562499999999998  46.356249999999996 11.368749999999999  L 43.881249999999994 8.893749999999997  C 43.685663647953355 8.700083070452088  43.370586352046644 8.700083070452084  43.175 8.893749999999997  L 28.799999999999997 23.262499999999996  L 20.8375 15.250000000000002  C 20.641913647953352 15.056333070452084  20.326836352046644 15.05633307045208  20.131249999999998 15.250000000000002  L 8.64375 26.668750000000003  C 8.450083070452092 26.86433635204665  8.450083070452088 27.17941364795336  8.64375 27.375  Z " stroke-width="0" stroke-dasharray="0" stroke="rgba(255, 255, 255, 0)" fill="none" class="stroke" mask="url(#Clip2641)" />
  </g>
</svg>