<?xml version="1.0" encoding="utf-8"?>
<svg version="1.1" xmlns:xlink="http://www.w3.org/1999/xlink" width="50px" height="40px" xmlns="http://www.w3.org/2000/svg">
  <defs>
    <pattern id="BGPattern" patternUnits="userSpaceOnUse" alignment="0 0" imageRepeat="None" />
    <mask fill="white" id="Clip1777">
      <path d="M 49.65990639625585 37.484399375975045  C 50.081903276131044 36.94071762870516  49.984399375975045 36.15678627145087  49.4399375975039 35.733229329173184  L 37.14976599063962 26.234789391575646  C 38.12324492979718 24.353354134165386  38.68954758190327 22.229329173166917  38.68954758190327 19.96879875195009  L 38.68954758190327 16.224648985959448  C 38.68954758190327 15.53510140405615  38.13104524180966 14.976599063962567  37.44149765990639 14.976599063962567  L 36.19344773790951 14.976599063962567  C 35.50390015600624 14.976599063962567  34.94539781591263 15.53510140405615  34.94539781591263 16.224648985959448  L 34.94539781591263 19.96879875195009  C 34.94539781591263 21.366614664586592  34.636505460218416 22.683307332293282  34.109204368174716 23.884555382215297  L 32.03822152886116 22.28393135725429  C 32.28003120124805 21.550702028081133  32.450078003120126 20.78471138845555  32.450078003120126 19.96957878315132  L 29.043681747269883 19.96957878315132  L 25.814352574102966 17.47347893915756  L 32.449297971918895 17.47347893915756  L 32.449297971918895 14.977379095163798  L 25.793291731669253 14.977379095163798  C 25.333853354134163 14.977379095163798  24.96099843993761 14.698127925117006  24.96099843993761 14.353354134165357  L 24.96099843993761 13.105304212168477  C 24.96099843993761 12.760530421216856  25.333853354134163 12.481279251170037  25.793291731669253 12.481279251170037  L 32.449297971918895 12.481279251170037  L 32.449297971918895 9.985179407176275  L 25.793291731669253 9.985179407176275  C 25.333853354134163 9.985179407176275  24.96099843993761 9.705928237129484  24.96099843993761 9.361154446177835  L 24.96099843993761 8.113104524180955  C 24.96099843993761 7.768330733229334  25.333853354134163 7.489079563182514  25.793291731669253 7.489079563182514  L 32.449297971918895 7.489079563182514  C 32.449297971918895 3.3533541341653574  29.096723868954765 0.0007800312012591348  24.96099843993761 0.0007800312012591348  C 20.825273010920455 0.0007800312012591348  17.472698907956328 3.3533541341653574  17.472698907956328 7.489079563182514  L 17.472698907956328 11.027301092043672  L 3.5468018720748944 0.2628705148206052  C 3.002340093603749 -0.1599063962558489  2.2176287051482007 -0.062402496099849714  1.794851794071775 0.4820592823712957  L 0.2628705148206052 2.4531981279251056  C -0.1599063962558489 2.9968798751950203  -0.06240249609984972 3.7808112324493095  0.48205928237129564 4.204368174726994  L 46.37597503900156 39.674726989079545  C 46.920436817472705 40.09828393135723  47.704368174726994 40  48.12792511700468 39.455538221528855  L 49.65990639625585 37.484399375975045  Z M 32.449297971918895 37.44149765990642  C 32.449297971918895 36.75195007800312  31.89079563182526 36.19344773790954  31.201248049921986 36.19344773790954  L 26.833073322932904 36.19344773790954  L 26.833073322932904 33.55850234009358  C 27.74648985959439 33.43213728549142  28.634945397815926 33.22464898595945  29.4820592823713 32.92823712948518  L 25.550702028081133 29.889235569422794  C 25.027301092043675 29.920436817472705  24.504680187207498 29.957098283931373  23.963338533541332 29.90483619344775  C 19.606864274570967 29.479719188767547  16.261310452418087 26.111544461778465  15.290951638065508 21.960218408736353  L 11.232449297971925 18.822932917316678  L 11.232449297971925 19.357254290171596  C 11.232449297971925 26.349453978159147  16.2223088923557 32.582683307332275  23.08892355694229 33.52964118564739  L 23.08892355694229 36.19344773790954  L 18.72074882995321 36.19344773790954  C 18.03120124804991 36.19344773790954  17.472698907956328 36.75195007800312  17.472698907956328 37.44149765990642  L 17.472698907956328 38.6895475819033  C 17.472698907956328 39.37909516380654  18.03120124804991 39.93759750390018  18.72074882995321 40  L 31.201248049921986 40  C 31.89079563182526 39.93759750390018  32.449297971918895 39.37909516380654  32.449297971918895 38.6895475819033  L 32.449297971918895 37.44149765990642  Z " fill-rule="evenodd" />
    </mask>
  </defs>
  <g>
    <path d="M 49.65990639625585 37.484399375975045  C 50.081903276131044 36.94071762870516  49.984399375975045 36.15678627145087  49.4399375975039 35.733229329173184  L 37.14976599063962 26.234789391575646  C 38.12324492979718 24.353354134165386  38.68954758190327 22.229329173166917  38.68954758190327 19.96879875195009  L 38.68954758190327 16.224648985959448  C 38.68954758190327 15.53510140405615  38.13104524180966 14.976599063962567  37.44149765990639 14.976599063962567  L 36.19344773790951 14.976599063962567  C 35.50390015600624 14.976599063962567  34.94539781591263 15.53510140405615  34.94539781591263 16.224648985959448  L 34.94539781591263 19.96879875195009  C 34.94539781591263 21.366614664586592  34.636505460218416 22.683307332293282  34.109204368174716 23.884555382215297  L 32.03822152886116 22.28393135725429  C 32.28003120124805 21.550702028081133  32.450078003120126 20.78471138845555  32.450078003120126 19.96957878315132  L 29.043681747269883 19.96957878315132  L 25.814352574102966 17.47347893915756  L 32.449297971918895 17.47347893915756  L 32.449297971918895 14.977379095163798  L 25.793291731669253 14.977379095163798  C 25.333853354134163 14.977379095163798  24.96099843993761 14.698127925117006  24.96099843993761 14.353354134165357  L 24.96099843993761 13.105304212168477  C 24.96099843993761 12.760530421216856  25.333853354134163 12.481279251170037  25.793291731669253 12.481279251170037  L 32.449297971918895 12.481279251170037  L 32.449297971918895 9.985179407176275  L 25.793291731669253 9.985179407176275  C 25.333853354134163 9.985179407176275  24.96099843993761 9.705928237129484  24.96099843993761 9.361154446177835  L 24.96099843993761 8.113104524180955  C 24.96099843993761 7.768330733229334  25.333853354134163 7.489079563182514  25.793291731669253 7.489079563182514  L 32.449297971918895 7.489079563182514  C 32.449297971918895 3.3533541341653574  29.096723868954765 0.0007800312012591348  24.96099843993761 0.0007800312012591348  C 20.825273010920455 0.0007800312012591348  17.472698907956328 3.3533541341653574  17.472698907956328 7.489079563182514  L 17.472698907956328 11.027301092043672  L 3.5468018720748944 0.2628705148206052  C 3.002340093603749 -0.1599063962558489  2.2176287051482007 -0.062402496099849714  1.794851794071775 0.4820592823712957  L 0.2628705148206052 2.4531981279251056  C -0.1599063962558489 2.9968798751950203  -0.06240249609984972 3.7808112324493095  0.48205928237129564 4.204368174726994  L 46.37597503900156 39.674726989079545  C 46.920436817472705 40.09828393135723  47.704368174726994 40  48.12792511700468 39.455538221528855  L 49.65990639625585 37.484399375975045  Z M 32.449297971918895 37.44149765990642  C 32.449297971918895 36.75195007800312  31.89079563182526 36.19344773790954  31.201248049921986 36.19344773790954  L 26.833073322932904 36.19344773790954  L 26.833073322932904 33.55850234009358  C 27.74648985959439 33.43213728549142  28.634945397815926 33.22464898595945  29.4820592823713 32.92823712948518  L 25.550702028081133 29.889235569422794  C 25.027301092043675 29.920436817472705  24.504680187207498 29.957098283931373  23.963338533541332 29.90483619344775  C 19.606864274570967 29.479719188767547  16.261310452418087 26.111544461778465  15.290951638065508 21.960218408736353  L 11.232449297971925 18.822932917316678  L 11.232449297971925 19.357254290171596  C 11.232449297971925 26.349453978159147  16.2223088923557 32.582683307332275  23.08892355694229 33.52964118564739  L 23.08892355694229 36.19344773790954  L 18.72074882995321 36.19344773790954  C 18.03120124804991 36.19344773790954  17.472698907956328 36.75195007800312  17.472698907956328 37.44149765990642  L 17.472698907956328 38.6895475819033  C 17.472698907956328 39.37909516380654  18.03120124804991 39.93759750390018  18.72074882995321 40  L 31.201248049921986 40  C 31.89079563182526 39.93759750390018  32.449297971918895 39.37909516380654  32.449297971918895 38.6895475819033  L 32.449297971918895 37.44149765990642  Z " fill-rule="nonzero" fill="rgba(0, 0, 0, 1)" stroke="none" class="fill" />
    <path d="M 49.65990639625585 37.484399375975045  C 50.081903276131044 36.94071762870516  49.984399375975045 36.15678627145087  49.4399375975039 35.733229329173184  L 37.14976599063962 26.234789391575646  C 38.12324492979718 24.353354134165386  38.68954758190327 22.229329173166917  38.68954758190327 19.96879875195009  L 38.68954758190327 16.224648985959448  C 38.68954758190327 15.53510140405615  38.13104524180966 14.976599063962567  37.44149765990639 14.976599063962567  L 36.19344773790951 14.976599063962567  C 35.50390015600624 14.976599063962567  34.94539781591263 15.53510140405615  34.94539781591263 16.224648985959448  L 34.94539781591263 19.96879875195009  C 34.94539781591263 21.366614664586592  34.636505460218416 22.683307332293282  34.109204368174716 23.884555382215297  L 32.03822152886116 22.28393135725429  C 32.28003120124805 21.550702028081133  32.450078003120126 20.78471138845555  32.450078003120126 19.96957878315132  L 29.043681747269883 19.96957878315132  L 25.814352574102966 17.47347893915756  L 32.449297971918895 17.47347893915756  L 32.449297971918895 14.977379095163798  L 25.793291731669253 14.977379095163798  C 25.333853354134163 14.977379095163798  24.96099843993761 14.698127925117006  24.96099843993761 14.353354134165357  L 24.96099843993761 13.105304212168477  C 24.96099843993761 12.760530421216856  25.333853354134163 12.481279251170037  25.793291731669253 12.481279251170037  L 32.449297971918895 12.481279251170037  L 32.449297971918895 9.985179407176275  L 25.793291731669253 9.985179407176275  C 25.333853354134163 9.985179407176275  24.96099843993761 9.705928237129484  24.96099843993761 9.361154446177835  L 24.96099843993761 8.113104524180955  C 24.96099843993761 7.768330733229334  25.333853354134163 7.489079563182514  25.793291731669253 7.489079563182514  L 32.449297971918895 7.489079563182514  C 32.449297971918895 3.3533541341653574  29.096723868954765 0.0007800312012591348  24.96099843993761 0.0007800312012591348  C 20.825273010920455 0.0007800312012591348  17.472698907956328 3.3533541341653574  17.472698907956328 7.489079563182514  L 17.472698907956328 11.027301092043672  L 3.5468018720748944 0.2628705148206052  C 3.002340093603749 -0.1599063962558489  2.2176287051482007 -0.062402496099849714  1.794851794071775 0.4820592823712957  L 0.2628705148206052 2.4531981279251056  C -0.1599063962558489 2.9968798751950203  -0.06240249609984972 3.7808112324493095  0.48205928237129564 4.204368174726994  L 46.37597503900156 39.674726989079545  C 46.920436817472705 40.09828393135723  47.704368174726994 40  48.12792511700468 39.455538221528855  L 49.65990639625585 37.484399375975045  Z " stroke-width="0" stroke-dasharray="0" stroke="rgba(255, 255, 255, 0)" fill="none" class="stroke" mask="url(#Clip1777)" />
    <path d="M 32.449297971918895 37.44149765990642  C 32.449297971918895 36.75195007800312  31.89079563182526 36.19344773790954  31.201248049921986 36.19344773790954  L 26.833073322932904 36.19344773790954  L 26.833073322932904 33.55850234009358  C 27.74648985959439 33.43213728549142  28.634945397815926 33.22464898595945  29.4820592823713 32.92823712948518  L 25.550702028081133 29.889235569422794  C 25.027301092043675 29.920436817472705  24.504680187207498 29.957098283931373  23.963338533541332 29.90483619344775  C 19.606864274570967 29.479719188767547  16.261310452418087 26.111544461778465  15.290951638065508 21.960218408736353  L 11.232449297971925 18.822932917316678  L 11.232449297971925 19.357254290171596  C 11.232449297971925 26.349453978159147  16.2223088923557 32.582683307332275  23.08892355694229 33.52964118564739  L 23.08892355694229 36.19344773790954  L 18.72074882995321 36.19344773790954  C 18.03120124804991 36.19344773790954  17.472698907956328 36.75195007800312  17.472698907956328 37.44149765990642  L 17.472698907956328 38.6895475819033  C 17.472698907956328 39.37909516380654  18.03120124804991 39.93759750390018  18.72074882995321 40  L 31.201248049921986 40  C 31.89079563182526 39.93759750390018  32.449297971918895 39.37909516380654  32.449297971918895 38.6895475819033  L 32.449297971918895 37.44149765990642  Z " stroke-width="0" stroke-dasharray="0" stroke="rgba(255, 255, 255, 0)" fill="none" class="stroke" mask="url(#Clip1777)" />
  </g>
</svg>