<?xml version="1.0" encoding="utf-8"?>
<svg version="1.1" xmlns:xlink="http://www.w3.org/1999/xlink" width="10px" height="6px" xmlns="http://www.w3.org/2000/svg">
  <defs>
    <pattern id="BGPattern" patternUnits="userSpaceOnUse" alignment="0 0" imageRepeat="None" />
    <mask fill="white" id="Clip3198">
      <path d="M 10 5  L 5 0  L 0 5  L 0.7000000000000002 5.699999999999999  L 5 1.4000000000000004  L 9.3 5.699999999999999  L 10 5  Z " fill-rule="evenodd" />
    </mask>
  </defs>
  <g transform="matrix(1 0 0 1 -3 -7 )">
    <path d="M 10 5  L 5 0  L 0 5  L 0.7000000000000002 5.699999999999999  L 5 1.4000000000000004  L 9.3 5.699999999999999  L 10 5  Z " fill-rule="nonzero" fill="rgba(0, 0, 0, 1)" stroke="none" transform="matrix(1 0 0 1 3 7 )" class="fill" />
    <path d="M 10 5  L 5 0  L 0 5  L 0.7000000000000002 5.699999999999999  L 5 1.4000000000000004  L 9.3 5.699999999999999  L 10 5  Z " stroke-width="0" stroke-dasharray="0" stroke="rgba(255, 255, 255, 0)" fill="none" transform="matrix(1 0 0 1 3 7 )" class="stroke" mask="url(#Clip3198)" />
  </g>
</svg>