<?xml version="1.0" encoding="utf-8"?>
<svg version="1.1" xmlns:xlink="http://www.w3.org/1999/xlink" width="46px" height="46px" xmlns="http://www.w3.org/2000/svg">
  <defs>
    <pattern id="BGPattern" patternUnits="userSpaceOnUse" alignment="0 0" imageRepeat="None" />
    <mask fill="white" id="Clip2446">
      <path d="M 46 21.25  C 46 20.975  45.775 20.75  45.5 21  L 25 21  L 25 0  L 21 0  L 21 21  L 0.5 21  C 0.22499999999999964 20.75  0 20.975  0 21.25  L 0 24.749999999999996  C 0 25.025  0.22499999999999964 25.25  0.5 25  L 21 25  L 21 46  L 25 46  L 25 25  L 45.5 25  C 45.775 25.25  46 25.025  46 24.749999999999996  L 46 21.25  Z M 46 10.875  C 46 10.600000000000001  45.775 10.375  45.5 10.375  L 42 10.375  C 41.725 10.375  41.5 10.600000000000001  41.5 10.875  L 41.5 14.375  C 41.5 14.65  41.725 14.875  42 14.875  L 45.5 14.875  C 45.775 14.875  46 14.65  46 14.375  L 46 10.875  Z M 46 42  C 46 41.725  45.775 41.5  45.5 41.5  L 42 41.5  C 41.725 41.5  41.5 41.725  41.5 42  L 41.5 45.5  C 41.5 45.775  41.725 46  42 46  L 45.5 46  C 45.775 46  46 45.775  46 45.5  L 46 42  Z M 46 0.5  C 46 0.22499999999999964  45.775 0  45.5 0  L 42 0  C 41.725 0  41.5 0.22499999999999964  41.5 0.5  L 41.5 4  C 41.5 4.275  41.725 4.5  42 4.5  L 45.5 4.5  C 45.775 4.5  46 4.275  46 4  L 46 0.5  Z M 46 31.625  C 46 31.35  45.775 31.124999999999996  45.5 31.124999999999996  L 42 31.124999999999996  C 41.725 31.124999999999996  41.5 31.35  41.5 31.625  L 41.5 35.125  C 41.5 35.4  41.725 35.625  42 35.625  L 45.5 35.625  C 45.775 35.625  46 35.4  46 35.125  L 46 31.625  Z M 31.124999999999996 4  C 31.124999999999996 4.275  31.35 4.5  31.625 4.5  L 35.125 4.5  C 35.4 4.5  35.625 4.275  35.625 4  L 35.625 0.5  C 35.625 0.22499999999999964  35.4 0  35.125 0  L 31.625 0  C 31.35 0  31.124999999999996 0.22499999999999964  31.124999999999996 0.5  L 31.124999999999996 4  Z M 35.625 42  C 35.625 41.725  35.4 41.5  35.125 41.5  L 31.625 41.5  C 31.35 41.5  31.124999999999996 41.725  31.124999999999996 42  L 31.124999999999996 45.5  C 31.124999999999996 45.775  31.35 46  31.625 46  L 35.125 46  C 35.4 46  35.625 45.775  35.625 45.5  L 35.625 42  Z M 14.875 42  C 14.875 41.725  14.65 41.5  14.375 41.5  L 10.875 41.5  C 10.600000000000001 41.5  10.375 41.725  10.375 42  L 10.375 45.5  C 10.375 45.775  10.600000000000001 46  10.875 46  L 14.375 46  C 14.65 46  14.875 45.775  14.875 45.5  L 14.875 42  Z M 10.375 4  C 10.375 4.275  10.600000000000001 4.5  10.875 4.5  L 14.375 4.5  C 14.65 4.5  14.875 4.275  14.875 4  L 14.875 0.5  C 14.875 0.22499999999999964  14.65 0  14.375 0  L 10.875 0  C 10.600000000000001 0  10.375 0.22499999999999964  10.375 0.5  L 10.375 4  Z M 0 4  C 0 4.275  0.22499999999999964 4.5  0.5 4.5  L 4 4.5  C 4.275 4.5  4.5 4.275  4.5 4  L 4.5 0.5  C 4.5 0.22499999999999964  4.275 0  4 0  L 0.5 0  C 0.22499999999999964 0  0 0.22499999999999964  0 0.5  L 0 4  Z M 4.5 42  C 4.5 41.725  4.275 41.5  4 41.5  L 0.5 41.5  C 0.22499999999999964 41.5  0 41.725  0 42  L 0 45.5  C 0 45.775  0.22499999999999964 46  0.5 46  L 4 46  C 4.275 46  4.5 45.775  4.5 45.5  L 4.5 42  Z M 0 14.375  C 0 14.65  0.22499999999999964 14.875  0.5 14.875  L 4 14.875  C 4.275 14.875  4.5 14.65  4.5 14.375  L 4.5 10.875  C 4.5 10.600000000000001  4.275 10.375  4 10.375  L 0.5 10.375  C 0.22499999999999964 10.375  0 10.600000000000001  0 10.875  L 0 14.375  Z M 4.5 31.625  C 4.5 31.35  4.275 31.124999999999996  4 31.124999999999996  L 0.5 31.124999999999996  C 0.22499999999999964 31.124999999999996  0 31.35  0 31.625  L 0 35.125  C 0 35.4  0.22499999999999964 35.625  0.5 35.625  L 4 35.625  C 4.275 35.625  4.5 35.4  4.5 35.125  L 4.5 31.625  Z " fill-rule="evenodd" />
    </mask>
  </defs>
  <g>
    <path d="M 46 21.25  C 46 20.975  45.775 20.75  45.5 21  L 25 21  L 25 0  L 21 0  L 21 21  L 0.5 21  C 0.22499999999999964 20.75  0 20.975  0 21.25  L 0 24.749999999999996  C 0 25.025  0.22499999999999964 25.25  0.5 25  L 21 25  L 21 46  L 25 46  L 25 25  L 45.5 25  C 45.775 25.25  46 25.025  46 24.749999999999996  L 46 21.25  Z M 46 10.875  C 46 10.600000000000001  45.775 10.375  45.5 10.375  L 42 10.375  C 41.725 10.375  41.5 10.600000000000001  41.5 10.875  L 41.5 14.375  C 41.5 14.65  41.725 14.875  42 14.875  L 45.5 14.875  C 45.775 14.875  46 14.65  46 14.375  L 46 10.875  Z M 46 42  C 46 41.725  45.775 41.5  45.5 41.5  L 42 41.5  C 41.725 41.5  41.5 41.725  41.5 42  L 41.5 45.5  C 41.5 45.775  41.725 46  42 46  L 45.5 46  C 45.775 46  46 45.775  46 45.5  L 46 42  Z M 46 0.5  C 46 0.22499999999999964  45.775 0  45.5 0  L 42 0  C 41.725 0  41.5 0.22499999999999964  41.5 0.5  L 41.5 4  C 41.5 4.275  41.725 4.5  42 4.5  L 45.5 4.5  C 45.775 4.5  46 4.275  46 4  L 46 0.5  Z M 46 31.625  C 46 31.35  45.775 31.124999999999996  45.5 31.124999999999996  L 42 31.124999999999996  C 41.725 31.124999999999996  41.5 31.35  41.5 31.625  L 41.5 35.125  C 41.5 35.4  41.725 35.625  42 35.625  L 45.5 35.625  C 45.775 35.625  46 35.4  46 35.125  L 46 31.625  Z M 31.124999999999996 4  C 31.124999999999996 4.275  31.35 4.5  31.625 4.5  L 35.125 4.5  C 35.4 4.5  35.625 4.275  35.625 4  L 35.625 0.5  C 35.625 0.22499999999999964  35.4 0  35.125 0  L 31.625 0  C 31.35 0  31.124999999999996 0.22499999999999964  31.124999999999996 0.5  L 31.124999999999996 4  Z M 35.625 42  C 35.625 41.725  35.4 41.5  35.125 41.5  L 31.625 41.5  C 31.35 41.5  31.124999999999996 41.725  31.124999999999996 42  L 31.124999999999996 45.5  C 31.124999999999996 45.775  31.35 46  31.625 46  L 35.125 46  C 35.4 46  35.625 45.775  35.625 45.5  L 35.625 42  Z M 14.875 42  C 14.875 41.725  14.65 41.5  14.375 41.5  L 10.875 41.5  C 10.600000000000001 41.5  10.375 41.725  10.375 42  L 10.375 45.5  C 10.375 45.775  10.600000000000001 46  10.875 46  L 14.375 46  C 14.65 46  14.875 45.775  14.875 45.5  L 14.875 42  Z M 10.375 4  C 10.375 4.275  10.600000000000001 4.5  10.875 4.5  L 14.375 4.5  C 14.65 4.5  14.875 4.275  14.875 4  L 14.875 0.5  C 14.875 0.22499999999999964  14.65 0  14.375 0  L 10.875 0  C 10.600000000000001 0  10.375 0.22499999999999964  10.375 0.5  L 10.375 4  Z M 0 4  C 0 4.275  0.22499999999999964 4.5  0.5 4.5  L 4 4.5  C 4.275 4.5  4.5 4.275  4.5 4  L 4.5 0.5  C 4.5 0.22499999999999964  4.275 0  4 0  L 0.5 0  C 0.22499999999999964 0  0 0.22499999999999964  0 0.5  L 0 4  Z M 4.5 42  C 4.5 41.725  4.275 41.5  4 41.5  L 0.5 41.5  C 0.22499999999999964 41.5  0 41.725  0 42  L 0 45.5  C 0 45.775  0.22499999999999964 46  0.5 46  L 4 46  C 4.275 46  4.5 45.775  4.5 45.5  L 4.5 42  Z M 0 14.375  C 0 14.65  0.22499999999999964 14.875  0.5 14.875  L 4 14.875  C 4.275 14.875  4.5 14.65  4.5 14.375  L 4.5 10.875  C 4.5 10.600000000000001  4.275 10.375  4 10.375  L 0.5 10.375  C 0.22499999999999964 10.375  0 10.600000000000001  0 10.875  L 0 14.375  Z M 4.5 31.625  C 4.5 31.35  4.275 31.124999999999996  4 31.124999999999996  L 0.5 31.124999999999996  C 0.22499999999999964 31.124999999999996  0 31.35  0 31.625  L 0 35.125  C 0 35.4  0.22499999999999964 35.625  0.5 35.625  L 4 35.625  C 4.275 35.625  4.5 35.4  4.5 35.125  L 4.5 31.625  Z " fill-rule="nonzero" fill="rgba(0, 0, 0, 1)" stroke="none" class="fill" />
    <path d="M 46 21.25  C 46 20.975  45.775 20.75  45.5 21  L 25 21  L 25 0  L 21 0  L 21 21  L 0.5 21  C 0.22499999999999964 20.75  0 20.975  0 21.25  L 0 24.749999999999996  C 0 25.025  0.22499999999999964 25.25  0.5 25  L 21 25  L 21 46  L 25 46  L 25 25  L 45.5 25  C 45.775 25.25  46 25.025  46 24.749999999999996  L 46 21.25  Z " stroke-width="0" stroke-dasharray="0" stroke="rgba(255, 255, 255, 0)" fill="none" class="stroke" mask="url(#Clip2446)" />
    <path d="M 46 10.875  C 46 10.600000000000001  45.775 10.375  45.5 10.375  L 42 10.375  C 41.725 10.375  41.5 10.600000000000001  41.5 10.875  L 41.5 14.375  C 41.5 14.65  41.725 14.875  42 14.875  L 45.5 14.875  C 45.775 14.875  46 14.65  46 14.375  L 46 10.875  Z " stroke-width="0" stroke-dasharray="0" stroke="rgba(255, 255, 255, 0)" fill="none" class="stroke" mask="url(#Clip2446)" />
    <path d="M 46 42  C 46 41.725  45.775 41.5  45.5 41.5  L 42 41.5  C 41.725 41.5  41.5 41.725  41.5 42  L 41.5 45.5  C 41.5 45.775  41.725 46  42 46  L 45.5 46  C 45.775 46  46 45.775  46 45.5  L 46 42  Z " stroke-width="0" stroke-dasharray="0" stroke="rgba(255, 255, 255, 0)" fill="none" class="stroke" mask="url(#Clip2446)" />
    <path d="M 46 0.5  C 46 0.22499999999999964  45.775 0  45.5 0  L 42 0  C 41.725 0  41.5 0.22499999999999964  41.5 0.5  L 41.5 4  C 41.5 4.275  41.725 4.5  42 4.5  L 45.5 4.5  C 45.775 4.5  46 4.275  46 4  L 46 0.5  Z " stroke-width="0" stroke-dasharray="0" stroke="rgba(255, 255, 255, 0)" fill="none" class="stroke" mask="url(#Clip2446)" />
    <path d="M 46 31.625  C 46 31.35  45.775 31.124999999999996  45.5 31.124999999999996  L 42 31.124999999999996  C 41.725 31.124999999999996  41.5 31.35  41.5 31.625  L 41.5 35.125  C 41.5 35.4  41.725 35.625  42 35.625  L 45.5 35.625  C 45.775 35.625  46 35.4  46 35.125  L 46 31.625  Z " stroke-width="0" stroke-dasharray="0" stroke="rgba(255, 255, 255, 0)" fill="none" class="stroke" mask="url(#Clip2446)" />
    <path d="M 31.124999999999996 4  C 31.124999999999996 4.275  31.35 4.5  31.625 4.5  L 35.125 4.5  C 35.4 4.5  35.625 4.275  35.625 4  L 35.625 0.5  C 35.625 0.22499999999999964  35.4 0  35.125 0  L 31.625 0  C 31.35 0  31.124999999999996 0.22499999999999964  31.124999999999996 0.5  L 31.124999999999996 4  Z " stroke-width="0" stroke-dasharray="0" stroke="rgba(255, 255, 255, 0)" fill="none" class="stroke" mask="url(#Clip2446)" />
    <path d="M 35.625 42  C 35.625 41.725  35.4 41.5  35.125 41.5  L 31.625 41.5  C 31.35 41.5  31.124999999999996 41.725  31.124999999999996 42  L 31.124999999999996 45.5  C 31.124999999999996 45.775  31.35 46  31.625 46  L 35.125 46  C 35.4 46  35.625 45.775  35.625 45.5  L 35.625 42  Z " stroke-width="0" stroke-dasharray="0" stroke="rgba(255, 255, 255, 0)" fill="none" class="stroke" mask="url(#Clip2446)" />
    <path d="M 14.875 42  C 14.875 41.725  14.65 41.5  14.375 41.5  L 10.875 41.5  C 10.600000000000001 41.5  10.375 41.725  10.375 42  L 10.375 45.5  C 10.375 45.775  10.600000000000001 46  10.875 46  L 14.375 46  C 14.65 46  14.875 45.775  14.875 45.5  L 14.875 42  Z " stroke-width="0" stroke-dasharray="0" stroke="rgba(255, 255, 255, 0)" fill="none" class="stroke" mask="url(#Clip2446)" />
    <path d="M 10.375 4  C 10.375 4.275  10.600000000000001 4.5  10.875 4.5  L 14.375 4.5  C 14.65 4.5  14.875 4.275  14.875 4  L 14.875 0.5  C 14.875 0.22499999999999964  14.65 0  14.375 0  L 10.875 0  C 10.600000000000001 0  10.375 0.22499999999999964  10.375 0.5  L 10.375 4  Z " stroke-width="0" stroke-dasharray="0" stroke="rgba(255, 255, 255, 0)" fill="none" class="stroke" mask="url(#Clip2446)" />
    <path d="M 0 4  C 0 4.275  0.22499999999999964 4.5  0.5 4.5  L 4 4.5  C 4.275 4.5  4.5 4.275  4.5 4  L 4.5 0.5  C 4.5 0.22499999999999964  4.275 0  4 0  L 0.5 0  C 0.22499999999999964 0  0 0.22499999999999964  0 0.5  L 0 4  Z " stroke-width="0" stroke-dasharray="0" stroke="rgba(255, 255, 255, 0)" fill="none" class="stroke" mask="url(#Clip2446)" />
    <path d="M 4.5 42  C 4.5 41.725  4.275 41.5  4 41.5  L 0.5 41.5  C 0.22499999999999964 41.5  0 41.725  0 42  L 0 45.5  C 0 45.775  0.22499999999999964 46  0.5 46  L 4 46  C 4.275 46  4.5 45.775  4.5 45.5  L 4.5 42  Z " stroke-width="0" stroke-dasharray="0" stroke="rgba(255, 255, 255, 0)" fill="none" class="stroke" mask="url(#Clip2446)" />
    <path d="M 0 14.375  C 0 14.65  0.22499999999999964 14.875  0.5 14.875  L 4 14.875  C 4.275 14.875  4.5 14.65  4.5 14.375  L 4.5 10.875  C 4.5 10.600000000000001  4.275 10.375  4 10.375  L 0.5 10.375  C 0.22499999999999964 10.375  0 10.600000000000001  0 10.875  L 0 14.375  Z " stroke-width="0" stroke-dasharray="0" stroke="rgba(255, 255, 255, 0)" fill="none" class="stroke" mask="url(#Clip2446)" />
    <path d="M 4.5 31.625  C 4.5 31.35  4.275 31.124999999999996  4 31.124999999999996  L 0.5 31.124999999999996  C 0.22499999999999964 31.124999999999996  0 31.35  0 31.625  L 0 35.125  C 0 35.4  0.22499999999999964 35.625  0.5 35.625  L 4 35.625  C 4.275 35.625  4.5 35.4  4.5 35.125  L 4.5 31.625  Z " stroke-width="0" stroke-dasharray="0" stroke="rgba(255, 255, 255, 0)" fill="none" class="stroke" mask="url(#Clip2446)" />
  </g>
</svg>