<?xml version="1.0" encoding="utf-8"?>
<svg version="1.1" xmlns:xlink="http://www.w3.org/1999/xlink" width="50px" height="50px" xmlns="http://www.w3.org/2000/svg">
  <defs>
    <pattern id="BGPattern" patternUnits="userSpaceOnUse" alignment="0 0" imageRepeat="None" />
    <mask fill="white" id="Clip1587">
      <path d="M 34.375 45.3125  C 34.375 44.453125  33.671875 43.75  32.8125 43  L 1.5625 43  C 0.703125 43.75  0 44.453125  0 45.3125  L 0 48.4375  C 0 49.296875  0.703125 50  1.5625 50  L 32.8125 50  C 33.671875 50  34.375 49.296875  34.375 48.4375  L 34.375 45.3125  Z M 50 14.90234375  C 50 13.2421875  49.3359375 11.650390625  48.1640625 10.478515625  L 40.25390625 2.568359375  C 39.6484375 1.9628906250000002  38.65234375 1.9628906250000002  38.046875 2.568359375  L 36.943359375 3.671875  C 36.337890625 4.27734375  36.337890625 5.2734375  36.943359375 5.87890625  L 40.625 9.560546875  L 40.625 15.625  C 40.625 18.369140625  42.666015625 20.634765625  45 21.015625  L 45 36.71875  C 45.3125 38.0078125  44.2578125 39.0625  42.96875 39.0625  C 41.6796875 39.0625  40.625 38.0078125  40.625 36.71875  L 40.625 33.59375  C 40.625 28.847656249999996  36.77734375 25  32.03125 25  L 31 25  L 31 6.25  C 31.25 2.802734375  28.447265625 0  25 0  L 9.375 0  C 5.927734375 0  3.125 2.802734375  4 6.25  L 4 40  L 31 40  L 31 29.6875  L 32.03125 29.6875  C 34.189453125 29.6875  35.9375 31.435546874999996  35.9375 33.59375  L 35.9375 36.30859375  C 35.9375 39.990234375  38.57421875 43.33984375  42.236328125 43.720703125  C 46.435546875 44.140625  50 40.83984375  50 36.71875  L 50 14.90234375  Z M 25 7  L 25 19  L 10 19  L 10 7  L 25 7  Z " fill-rule="evenodd" />
    </mask>
  </defs>
  <g>
    <path d="M 34.375 45.3125  C 34.375 44.453125  33.671875 43.75  32.8125 43  L 1.5625 43  C 0.703125 43.75  0 44.453125  0 45.3125  L 0 48.4375  C 0 49.296875  0.703125 50  1.5625 50  L 32.8125 50  C 33.671875 50  34.375 49.296875  34.375 48.4375  L 34.375 45.3125  Z M 50 14.90234375  C 50 13.2421875  49.3359375 11.650390625  48.1640625 10.478515625  L 40.25390625 2.568359375  C 39.6484375 1.9628906250000002  38.65234375 1.9628906250000002  38.046875 2.568359375  L 36.943359375 3.671875  C 36.337890625 4.27734375  36.337890625 5.2734375  36.943359375 5.87890625  L 40.625 9.560546875  L 40.625 15.625  C 40.625 18.369140625  42.666015625 20.634765625  45 21.015625  L 45 36.71875  C 45.3125 38.0078125  44.2578125 39.0625  42.96875 39.0625  C 41.6796875 39.0625  40.625 38.0078125  40.625 36.71875  L 40.625 33.59375  C 40.625 28.847656249999996  36.77734375 25  32.03125 25  L 31 25  L 31 6.25  C 31.25 2.802734375  28.447265625 0  25 0  L 9.375 0  C 5.927734375 0  3.125 2.802734375  4 6.25  L 4 40  L 31 40  L 31 29.6875  L 32.03125 29.6875  C 34.189453125 29.6875  35.9375 31.435546874999996  35.9375 33.59375  L 35.9375 36.30859375  C 35.9375 39.990234375  38.57421875 43.33984375  42.236328125 43.720703125  C 46.435546875 44.140625  50 40.83984375  50 36.71875  L 50 14.90234375  Z M 25 7  L 25 19  L 10 19  L 10 7  L 25 7  Z " fill-rule="nonzero" fill="rgba(0, 0, 0, 1)" stroke="none" class="fill" />
    <path d="M 34.375 45.3125  C 34.375 44.453125  33.671875 43.75  32.8125 43  L 1.5625 43  C 0.703125 43.75  0 44.453125  0 45.3125  L 0 48.4375  C 0 49.296875  0.703125 50  1.5625 50  L 32.8125 50  C 33.671875 50  34.375 49.296875  34.375 48.4375  L 34.375 45.3125  Z " stroke-width="0" stroke-dasharray="0" stroke="rgba(255, 255, 255, 0)" fill="none" class="stroke" mask="url(#Clip1587)" />
    <path d="M 50 14.90234375  C 50 13.2421875  49.3359375 11.650390625  48.1640625 10.478515625  L 40.25390625 2.568359375  C 39.6484375 1.9628906250000002  38.65234375 1.9628906250000002  38.046875 2.568359375  L 36.943359375 3.671875  C 36.337890625 4.27734375  36.337890625 5.2734375  36.943359375 5.87890625  L 40.625 9.560546875  L 40.625 15.625  C 40.625 18.369140625  42.666015625 20.634765625  45 21.015625  L 45 36.71875  C 45.3125 38.0078125  44.2578125 39.0625  42.96875 39.0625  C 41.6796875 39.0625  40.625 38.0078125  40.625 36.71875  L 40.625 33.59375  C 40.625 28.847656249999996  36.77734375 25  32.03125 25  L 31 25  L 31 6.25  C 31.25 2.802734375  28.447265625 0  25 0  L 9.375 0  C 5.927734375 0  3.125 2.802734375  4 6.25  L 4 40  L 31 40  L 31 29.6875  L 32.03125 29.6875  C 34.189453125 29.6875  35.9375 31.435546874999996  35.9375 33.59375  L 35.9375 36.30859375  C 35.9375 39.990234375  38.57421875 43.33984375  42.236328125 43.720703125  C 46.435546875 44.140625  50 40.83984375  50 36.71875  L 50 14.90234375  Z " stroke-width="0" stroke-dasharray="0" stroke="rgba(255, 255, 255, 0)" fill="none" class="stroke" mask="url(#Clip1587)" />
    <path d="M 25 7  L 25 19  L 10 19  L 10 7  L 25 7  Z " stroke-width="0" stroke-dasharray="0" stroke="rgba(255, 255, 255, 0)" fill="none" class="stroke" mask="url(#Clip1587)" />
  </g>
</svg>