<?xml version="1.0" encoding="utf-8"?>
<svg version="1.1" xmlns:xlink="http://www.w3.org/1999/xlink" width="28px" height="42px" xmlns="http://www.w3.org/2000/svg">
  <defs>
    <pattern id="BGPattern" patternUnits="userSpaceOnUse" alignment="0 0" imageRepeat="None" />
    <mask fill="white" id="Clip2946">
      <path d="M 28 41.375  C 15.99375 41.375  7.037500000000001 35.09375  1.112499999999999 22.61249999999999  C 0.6312896414287881 21.593539855864496  0.6312896414287881 20.412710144135495  1.1124999999999998 19.393749999999997  C 7.0375 6.90625  15.9875 0.625  28 0.625  C 15.9875 0.625  7.037500000000001 6.90625  1.1124999999999998 19.39375  C 0.631289641428789 20.412710144135506  0.6312896414287907 21.593539855864485  1.1125000000000007 22.612499999999997  C 7.0375 35.09375  15.99375 41.375  28 41.375  Z " fill-rule="evenodd" />
    </mask>
  </defs>
  <g>
    <path d="M 28 41.375  C 15.99375 41.375  7.037500000000001 35.09375  1.112499999999999 22.61249999999999  C 0.6312896414287881 21.593539855864496  0.6312896414287881 20.412710144135495  1.1124999999999998 19.393749999999997  C 7.0375 6.90625  15.9875 0.625  28 0.625  C 15.9875 0.625  7.037500000000001 6.90625  1.1124999999999998 19.39375  C 0.631289641428789 20.412710144135506  0.6312896414287907 21.593539855864485  1.1125000000000007 22.612499999999997  C 7.0375 35.09375  15.99375 41.375  28 41.375  Z " fill-rule="nonzero" fill="rgba(217, 217, 217, 1)" stroke="none" class="fill" />
    <path d="M 28 41.375  C 15.99375 41.375  7.037500000000001 35.09375  1.112499999999999 22.61249999999999  C 0.6312896414287881 21.593539855864496  0.6312896414287881 20.412710144135495  1.1124999999999998 19.393749999999997  C 7.0375 6.90625  15.9875 0.625  28 0.625  C 15.9875 0.625  7.037500000000001 6.90625  1.1124999999999998 19.39375  C 0.631289641428789 20.412710144135506  0.6312896414287907 21.593539855864485  1.1125000000000007 22.612499999999997  C 7.0375 35.09375  15.99375 41.375  28 41.375  Z " stroke-width="0" stroke-dasharray="0" stroke="rgba(255, 255, 255, 0)" fill="none" class="stroke" mask="url(#Clip2946)" />
  </g>
</svg>