<?xml version="1.0" encoding="utf-8"?>
<svg version="1.1" xmlns:xlink="http://www.w3.org/1999/xlink" width="40px" height="42px" xmlns="http://www.w3.org/2000/svg">
  <defs>
    <pattern id="BGPattern" patternUnits="userSpaceOnUse" alignment="0 0" imageRepeat="None" />
    <mask fill="white" id="Clip2472">
      <path d="M 39.64375 40.55625  L 23.237499999999997 21  L 39.64375 1.4437500000000012  C 39.918749999999996 1.1187500000000021  39.6875 0.6250000000000018  39.262499999999996 0.6250000000000018  L 34.275 0.6250000000000018  C 33.981249999999996 0.6250000000000018  33.699999999999996 0.7562500000000014  33.50625 0.9812500000000011  L 19.975 17.1125  L 6.443750000000001 0.9812499999999993  C 6.256250000000001 0.7562499999999996  5.975000000000001 0.625  5.675000000000001 0.625  L 0.6875 0.625  C 0.2624999999999993 0.625  0.03125 1.1187500000000004  0.30625000000000036 1.4437499999999996  L 16.7125 21  L 0.30625000000000036 40.55624999999999  C 0.22984647005789327 40.64609696382407  0.18789371470345095 40.76019194433783  0.18789371470345095 40.878132506893806  C 0.18789371470345095 41.152548991965986  0.4103522296312754 41.37500750689381  0.6847687147034502 41.37500750689381  C 0.685679148293719 41.37500750689381  0.686589580164755 41.37500500458642  0.6875 41.375  L 5.675000000000001 41.375  C 5.96875 41.375  6.25 41.24375  6.443750000000001 41.01875  L 19.975 24.887499999999996  L 33.50625 41.01875  C 33.69375 41.24375  33.975 41.375  34.275 41.375  L 39.262499999999996 41.375  C 39.68749999999999 41.375  39.918749999999996 40.88125  39.64375 40.55625  Z " fill-rule="evenodd" />
    </mask>
  </defs>
  <g>
    <path d="M 39.64375 40.55625  L 23.237499999999997 21  L 39.64375 1.4437500000000012  C 39.918749999999996 1.1187500000000021  39.6875 0.6250000000000018  39.262499999999996 0.6250000000000018  L 34.275 0.6250000000000018  C 33.981249999999996 0.6250000000000018  33.699999999999996 0.7562500000000014  33.50625 0.9812500000000011  L 19.975 17.1125  L 6.443750000000001 0.9812499999999993  C 6.256250000000001 0.7562499999999996  5.975000000000001 0.625  5.675000000000001 0.625  L 0.6875 0.625  C 0.2624999999999993 0.625  0.03125 1.1187500000000004  0.30625000000000036 1.4437499999999996  L 16.7125 21  L 0.30625000000000036 40.55624999999999  C 0.22984647005789327 40.64609696382407  0.18789371470345095 40.76019194433783  0.18789371470345095 40.878132506893806  C 0.18789371470345095 41.152548991965986  0.4103522296312754 41.37500750689381  0.6847687147034502 41.37500750689381  C 0.685679148293719 41.37500750689381  0.686589580164755 41.37500500458642  0.6875 41.375  L 5.675000000000001 41.375  C 5.96875 41.375  6.25 41.24375  6.443750000000001 41.01875  L 19.975 24.887499999999996  L 33.50625 41.01875  C 33.69375 41.24375  33.975 41.375  34.275 41.375  L 39.262499999999996 41.375  C 39.68749999999999 41.375  39.918749999999996 40.88125  39.64375 40.55625  Z " fill-rule="nonzero" fill="rgba(0, 0, 0, 1)" stroke="none" class="fill" />
    <path d="M 39.64375 40.55625  L 23.237499999999997 21  L 39.64375 1.4437500000000012  C 39.918749999999996 1.1187500000000021  39.6875 0.6250000000000018  39.262499999999996 0.6250000000000018  L 34.275 0.6250000000000018  C 33.981249999999996 0.6250000000000018  33.699999999999996 0.7562500000000014  33.50625 0.9812500000000011  L 19.975 17.1125  L 6.443750000000001 0.9812499999999993  C 6.256250000000001 0.7562499999999996  5.975000000000001 0.625  5.675000000000001 0.625  L 0.6875 0.625  C 0.2624999999999993 0.625  0.03125 1.1187500000000004  0.30625000000000036 1.4437499999999996  L 16.7125 21  L 0.30625000000000036 40.55624999999999  C 0.22984647005789327 40.64609696382407  0.18789371470345095 40.76019194433783  0.18789371470345095 40.878132506893806  C 0.18789371470345095 41.152548991965986  0.4103522296312754 41.37500750689381  0.6847687147034502 41.37500750689381  C 0.685679148293719 41.37500750689381  0.686589580164755 41.37500500458642  0.6875 41.375  L 5.675000000000001 41.375  C 5.96875 41.375  6.25 41.24375  6.443750000000001 41.01875  L 19.975 24.887499999999996  L 33.50625 41.01875  C 33.69375 41.24375  33.975 41.375  34.275 41.375  L 39.262499999999996 41.375  C 39.68749999999999 41.375  39.918749999999996 40.88125  39.64375 40.55625  Z " stroke-width="0" stroke-dasharray="0" stroke="rgba(255, 255, 255, 0)" fill="none" class="stroke" mask="url(#Clip2472)" />
  </g>
</svg>