<?xml version="1.0" encoding="utf-8"?>
<svg version="1.1" xmlns:xlink="http://www.w3.org/1999/xlink" width="12px" height="12px" xmlns="http://www.w3.org/2000/svg">
  <defs>
    <pattern id="BGPattern" patternUnits="userSpaceOnUse" alignment="0 0" imageRepeat="None" />
    <mask fill="white" id="Clip3227">
      <path d="M 12 0  L 0 0  L 0 1  L 1 1  L 1 11  C 1 11.6  1.4 12  2 12  L 10 12  C 10.6 12  11 11.6  11 11  L 11 1  L 12 1  L 12 0  Z M 10 11  L 2 11  L 2 1  L 10 1  L 10 11  Z " fill-rule="evenodd" />
    </mask>
  </defs>
  <g transform="matrix(1 0 0 1 -2 -3 )">
    <path d="M 12 0  L 0 0  L 0 1  L 1 1  L 1 11  C 1 11.6  1.4 12  2 12  L 10 12  C 10.6 12  11 11.6  11 11  L 11 1  L 12 1  L 12 0  Z M 10 11  L 2 11  L 2 1  L 10 1  L 10 11  Z " fill-rule="nonzero" fill="rgba(0, 0, 0, 1)" stroke="none" transform="matrix(1 0 0 1 2 3 )" class="fill" />
    <path d="M 12 0  L 0 0  L 0 1  L 1 1  L 1 11  C 1 11.6  1.4 12  2 12  L 10 12  C 10.6 12  11 11.6  11 11  L 11 1  L 12 1  L 12 0  Z " stroke-width="0" stroke-dasharray="0" stroke="rgba(255, 255, 255, 0)" fill="none" transform="matrix(1 0 0 1 2 3 )" class="stroke" mask="url(#Clip3227)" />
    <path d="M 10 11  L 2 11  L 2 1  L 10 1  L 10 11  Z " stroke-width="0" stroke-dasharray="0" stroke="rgba(255, 255, 255, 0)" fill="none" transform="matrix(1 0 0 1 2 3 )" class="stroke" mask="url(#Clip3227)" />
  </g>
</svg>