<?xml version="1.0" encoding="utf-8"?>
<svg version="1.1" xmlns:xlink="http://www.w3.org/1999/xlink" width="48px" height="48px" xmlns="http://www.w3.org/2000/svg">
  <defs>
    <pattern id="BGPattern" patternUnits="userSpaceOnUse" alignment="0 0" imageRepeat="None" />
    <mask fill="white" id="Clip6612">
      <path d="M 47.202 30.746000000000002  L 47.196 30.735999999999997  C 45.775999999999996 29.216  42.867999999999995 28.342  38.748 28.342  C 36.547999999999995 28.342  33.998 28.561999999999998  31.227999999999998 29.081999999999997  C 29.664 27.541999999999994  28.104 25.741999999999997  26.613999999999997 23.641999999999996  C 25.553999999999995 22.161999999999995  24.627999999999993 20.601999999999997  23.773999999999997 19.061999999999998  C 25.4 13.981999999999998  26.185999999999996 9.841999999999997  26.185999999999996 6.861999999999998  C 26.185999999999996 3.517999999999998  24.979999999999997 0.029999999999998472  21.505999999999997 0.029999999999998472  C 20.439999999999998 0.029999999999998472  19.373999999999995 0.6799999999999985  18.805999999999997 1.6299999999999986  C 17.24 4.445999999999998  17.945999999999998 10.616  20.639999999999997 16.709999999999997  C 19.633999999999997 19.749999999999996  18.569999999999997 22.656  17.24 25.919999999999995  C 16.084 28.671999999999997  14.751999999999999 31.508  13.393999999999998 34.111999999999995  C 5.586 37.28  0.534 40.98  0.06 43.88  C -0.148 44.974000000000004  0.208 45.980000000000004  0.974 46.78  C 1.24 47  2.246 47.870000000000005  3.934 47.870000000000005  C 9.114 47.870000000000005  14.574000000000002 39.31  17.348 34.150000000000006  C 19.477999999999998 33.43000000000001  21.607999999999997 32.776  23.733999999999998 32.120000000000005  C 26.07 31.474000000000004  28.413999999999994 30.954000000000004  30.543999999999997 30.590000000000003  C 36.013999999999996 35.598000000000006  40.836 36.39  43.26 36.39  C 46.244 36.39  47.308 35.156  47.666 34.146  C 48.226 32.846000000000004  47.806 31.406  47.162 30.665999999999997  L 47.202 30.746000000000002  Z M 44.45199999999999 32.848  L 44.425999999999995 32.844  C 44.217999999999996 33.932  43.14999999999999 34.656  41.653999999999996 34.656  C 41.233999999999995 34.656  40.873999999999995 34.582  40.44799999999999 34.512  C 37.727999999999994 33.862  35.181999999999995 32.480000000000004  32.641999999999996 30.299999999999997  C 35.141999999999996 29.872  37.26199999999999 29.8  38.602 29.8  C 40.081999999999994 29.8  41.361999999999995 29.863999999999997  42.221999999999994 30.088  C 43.20199999999999 30.299999999999997  44.76199999999999 30.958000000000006  44.41199999999999 32.848  L 44.45199999999999 32.848  Z M 29.357999999999997 29.418000000000003  L 29.379999999999995 29.43  C 27.539999999999992 29.809999999999995  25.551999999999992 30.258000000000003  23.491999999999997 30.816000000000003  C 21.859999999999996 31.262  20.159999999999997 31.763999999999996  18.451999999999998 32.356  C 19.377999999999997 30.552000000000003  20.159999999999997 28.808  20.868 27.150000000000002  C 21.724 25.110000000000003  22.427999999999997 23.01  23.137999999999998 21.058000000000003  C 23.837999999999997 22.278000000000002  24.618 23.518000000000004  25.397999999999996 24.618000000000002  C 26.677999999999997 26.357999999999997  28.017999999999997 28.018  29.357999999999997 29.458000000000006  L 29.357999999999997 29.418000000000003  Z M 20.084 2.4619999999999997  L 20.08 2.46  C 20.369999999999997 1.88  20.939999999999998 1.588  21.436 1.588  C 22.926 1.588  23.21 3.324  23.21 4.708  C 23.21 7.0440000000000005  22.502000000000002 10.592  21.29 14.642  C 19.166 9.001999999999999  19.02 4.282  20.084 2.4619999999999997  Z M 12.278000000000002 36.25399999999999  L 12.276 36.254  C 8.656 42.34  5.18 46.12  3.05 46.12  C 2.63 46.12  2.276 45.97  1.9899999999999998 45.754  C 1.5619999999999998 45.321999999999996  1.3499999999999996 44.809999999999995  1.4939999999999998 44.233999999999995  C 1.9199999999999997 42.053999999999995  5.966 39.007999999999996  12.278000000000002 36.25399999999999  Z " fill-rule="evenodd" />
    </mask>
  </defs>
  <g>
    <path d="M 47.202 30.746000000000002  L 47.196 30.735999999999997  C 45.775999999999996 29.216  42.867999999999995 28.342  38.748 28.342  C 36.547999999999995 28.342  33.998 28.561999999999998  31.227999999999998 29.081999999999997  C 29.664 27.541999999999994  28.104 25.741999999999997  26.613999999999997 23.641999999999996  C 25.553999999999995 22.161999999999995  24.627999999999993 20.601999999999997  23.773999999999997 19.061999999999998  C 25.4 13.981999999999998  26.185999999999996 9.841999999999997  26.185999999999996 6.861999999999998  C 26.185999999999996 3.517999999999998  24.979999999999997 0.029999999999998472  21.505999999999997 0.029999999999998472  C 20.439999999999998 0.029999999999998472  19.373999999999995 0.6799999999999985  18.805999999999997 1.6299999999999986  C 17.24 4.445999999999998  17.945999999999998 10.616  20.639999999999997 16.709999999999997  C 19.633999999999997 19.749999999999996  18.569999999999997 22.656  17.24 25.919999999999995  C 16.084 28.671999999999997  14.751999999999999 31.508  13.393999999999998 34.111999999999995  C 5.586 37.28  0.534 40.98  0.06 43.88  C -0.148 44.974000000000004  0.208 45.980000000000004  0.974 46.78  C 1.24 47  2.246 47.870000000000005  3.934 47.870000000000005  C 9.114 47.870000000000005  14.574000000000002 39.31  17.348 34.150000000000006  C 19.477999999999998 33.43000000000001  21.607999999999997 32.776  23.733999999999998 32.120000000000005  C 26.07 31.474000000000004  28.413999999999994 30.954000000000004  30.543999999999997 30.590000000000003  C 36.013999999999996 35.598000000000006  40.836 36.39  43.26 36.39  C 46.244 36.39  47.308 35.156  47.666 34.146  C 48.226 32.846000000000004  47.806 31.406  47.162 30.665999999999997  L 47.202 30.746000000000002  Z M 44.45199999999999 32.848  L 44.425999999999995 32.844  C 44.217999999999996 33.932  43.14999999999999 34.656  41.653999999999996 34.656  C 41.233999999999995 34.656  40.873999999999995 34.582  40.44799999999999 34.512  C 37.727999999999994 33.862  35.181999999999995 32.480000000000004  32.641999999999996 30.299999999999997  C 35.141999999999996 29.872  37.26199999999999 29.8  38.602 29.8  C 40.081999999999994 29.8  41.361999999999995 29.863999999999997  42.221999999999994 30.088  C 43.20199999999999 30.299999999999997  44.76199999999999 30.958000000000006  44.41199999999999 32.848  L 44.45199999999999 32.848  Z M 29.357999999999997 29.418000000000003  L 29.379999999999995 29.43  C 27.539999999999992 29.809999999999995  25.551999999999992 30.258000000000003  23.491999999999997 30.816000000000003  C 21.859999999999996 31.262  20.159999999999997 31.763999999999996  18.451999999999998 32.356  C 19.377999999999997 30.552000000000003  20.159999999999997 28.808  20.868 27.150000000000002  C 21.724 25.110000000000003  22.427999999999997 23.01  23.137999999999998 21.058000000000003  C 23.837999999999997 22.278000000000002  24.618 23.518000000000004  25.397999999999996 24.618000000000002  C 26.677999999999997 26.357999999999997  28.017999999999997 28.018  29.357999999999997 29.458000000000006  L 29.357999999999997 29.418000000000003  Z M 20.084 2.4619999999999997  L 20.08 2.46  C 20.369999999999997 1.88  20.939999999999998 1.588  21.436 1.588  C 22.926 1.588  23.21 3.324  23.21 4.708  C 23.21 7.0440000000000005  22.502000000000002 10.592  21.29 14.642  C 19.166 9.001999999999999  19.02 4.282  20.084 2.4619999999999997  Z M 12.278000000000002 36.25399999999999  L 12.276 36.254  C 8.656 42.34  5.18 46.12  3.05 46.12  C 2.63 46.12  2.276 45.97  1.9899999999999998 45.754  C 1.5619999999999998 45.321999999999996  1.3499999999999996 44.809999999999995  1.4939999999999998 44.233999999999995  C 1.9199999999999997 42.053999999999995  5.966 39.007999999999996  12.278000000000002 36.25399999999999  Z " fill-rule="nonzero" fill="rgba(238, 63, 36, 1)" stroke="none" class="fill" />
    <path d="M 47.202 30.746000000000002  L 47.196 30.735999999999997  C 45.775999999999996 29.216  42.867999999999995 28.342  38.748 28.342  C 36.547999999999995 28.342  33.998 28.561999999999998  31.227999999999998 29.081999999999997  C 29.664 27.541999999999994  28.104 25.741999999999997  26.613999999999997 23.641999999999996  C 25.553999999999995 22.161999999999995  24.627999999999993 20.601999999999997  23.773999999999997 19.061999999999998  C 25.4 13.981999999999998  26.185999999999996 9.841999999999997  26.185999999999996 6.861999999999998  C 26.185999999999996 3.517999999999998  24.979999999999997 0.029999999999998472  21.505999999999997 0.029999999999998472  C 20.439999999999998 0.029999999999998472  19.373999999999995 0.6799999999999985  18.805999999999997 1.6299999999999986  C 17.24 4.445999999999998  17.945999999999998 10.616  20.639999999999997 16.709999999999997  C 19.633999999999997 19.749999999999996  18.569999999999997 22.656  17.24 25.919999999999995  C 16.084 28.671999999999997  14.751999999999999 31.508  13.393999999999998 34.111999999999995  C 5.586 37.28  0.534 40.98  0.06 43.88  C -0.148 44.974000000000004  0.208 45.980000000000004  0.974 46.78  C 1.24 47  2.246 47.870000000000005  3.934 47.870000000000005  C 9.114 47.870000000000005  14.574000000000002 39.31  17.348 34.150000000000006  C 19.477999999999998 33.43000000000001  21.607999999999997 32.776  23.733999999999998 32.120000000000005  C 26.07 31.474000000000004  28.413999999999994 30.954000000000004  30.543999999999997 30.590000000000003  C 36.013999999999996 35.598000000000006  40.836 36.39  43.26 36.39  C 46.244 36.39  47.308 35.156  47.666 34.146  C 48.226 32.846000000000004  47.806 31.406  47.162 30.665999999999997  L 47.202 30.746000000000002  Z " stroke-width="0" stroke-dasharray="0" stroke="rgba(255, 255, 255, 0)" fill="none" class="stroke" mask="url(#Clip6612)" />
    <path d="M 44.45199999999999 32.848  L 44.425999999999995 32.844  C 44.217999999999996 33.932  43.14999999999999 34.656  41.653999999999996 34.656  C 41.233999999999995 34.656  40.873999999999995 34.582  40.44799999999999 34.512  C 37.727999999999994 33.862  35.181999999999995 32.480000000000004  32.641999999999996 30.299999999999997  C 35.141999999999996 29.872  37.26199999999999 29.8  38.602 29.8  C 40.081999999999994 29.8  41.361999999999995 29.863999999999997  42.221999999999994 30.088  C 43.20199999999999 30.299999999999997  44.76199999999999 30.958000000000006  44.41199999999999 32.848  L 44.45199999999999 32.848  Z " stroke-width="0" stroke-dasharray="0" stroke="rgba(255, 255, 255, 0)" fill="none" class="stroke" mask="url(#Clip6612)" />
    <path d="M 29.357999999999997 29.418000000000003  L 29.379999999999995 29.43  C 27.539999999999992 29.809999999999995  25.551999999999992 30.258000000000003  23.491999999999997 30.816000000000003  C 21.859999999999996 31.262  20.159999999999997 31.763999999999996  18.451999999999998 32.356  C 19.377999999999997 30.552000000000003  20.159999999999997 28.808  20.868 27.150000000000002  C 21.724 25.110000000000003  22.427999999999997 23.01  23.137999999999998 21.058000000000003  C 23.837999999999997 22.278000000000002  24.618 23.518000000000004  25.397999999999996 24.618000000000002  C 26.677999999999997 26.357999999999997  28.017999999999997 28.018  29.357999999999997 29.458000000000006  L 29.357999999999997 29.418000000000003  Z " stroke-width="0" stroke-dasharray="0" stroke="rgba(255, 255, 255, 0)" fill="none" class="stroke" mask="url(#Clip6612)" />
    <path d="M 20.084 2.4619999999999997  L 20.08 2.46  C 20.369999999999997 1.88  20.939999999999998 1.588  21.436 1.588  C 22.926 1.588  23.21 3.324  23.21 4.708  C 23.21 7.0440000000000005  22.502000000000002 10.592  21.29 14.642  C 19.166 9.001999999999999  19.02 4.282  20.084 2.4619999999999997  Z " stroke-width="0" stroke-dasharray="0" stroke="rgba(255, 255, 255, 0)" fill="none" class="stroke" mask="url(#Clip6612)" />
    <path d="M 12.278000000000002 36.25399999999999  L 12.276 36.254  C 8.656 42.34  5.18 46.12  3.05 46.12  C 2.63 46.12  2.276 45.97  1.9899999999999998 45.754  C 1.5619999999999998 45.321999999999996  1.3499999999999996 44.809999999999995  1.4939999999999998 44.233999999999995  C 1.9199999999999997 42.053999999999995  5.966 39.007999999999996  12.278000000000002 36.25399999999999  Z " stroke-width="0" stroke-dasharray="0" stroke="rgba(255, 255, 255, 0)" fill="none" class="stroke" mask="url(#Clip6612)" />
  </g>
</svg>