<?xml version="1.0" encoding="utf-8"?>
<svg version="1.1" xmlns:xlink="http://www.w3.org/1999/xlink" width="20px" height="7px" xmlns="http://www.w3.org/2000/svg">
  <defs>
    <pattern id="BGPattern" patternUnits="userSpaceOnUse" alignment="0 0" imageRepeat="None" />
    <mask fill="white" id="Clip5133">
      <path d="M 0.6640000000000006 4.8294999999999995  L 9.664 0.32949999999999946  C 9.875467759859838 0.22353355641720718  10.124532240140162 0.22353355641720718  10.336 0.32949999999999946  L 19.336 4.829500000000001  C 19.592614648404442 4.955617020507756  19.75519382648437 5.2166716461658496  19.75519382648437 5.502602722891497  C 19.75519382648437 5.916816285264591  19.419407388857465 6.252602722891497  19.00519382648437 6.252602722891497  C 18.886570041784655 6.252602722891497  18.769638003734997 6.224464937351675  18.664 6.1705000000000005  L 10 1.8399999999999999  L 1.3360000000000003 6.170499999999999  C 1.2303619962650023 6.224464937351675  1.1134299582153373 6.252602722891503  0.9948061735156157 6.252602722891503  C 0.5805926111425208 6.252602722891503  0.24480617351561573 5.9168162852645985  0.24480617351561573 5.502602722891503  C 0.24480617351561573 5.2166716461658496  0.4073853515955501 4.955617020507752  0.6640000000000006 4.8294999999999995  Z " fill-rule="evenodd" />
    </mask>
  </defs>
  <g>
    <path d="M 0.6640000000000006 4.8294999999999995  L 9.664 0.32949999999999946  C 9.875467759859838 0.22353355641720718  10.124532240140162 0.22353355641720718  10.336 0.32949999999999946  L 19.336 4.829500000000001  C 19.592614648404442 4.955617020507756  19.75519382648437 5.2166716461658496  19.75519382648437 5.502602722891497  C 19.75519382648437 5.916816285264591  19.419407388857465 6.252602722891497  19.00519382648437 6.252602722891497  C 18.886570041784655 6.252602722891497  18.769638003734997 6.224464937351675  18.664 6.1705000000000005  L 10 1.8399999999999999  L 1.3360000000000003 6.170499999999999  C 1.2303619962650023 6.224464937351675  1.1134299582153373 6.252602722891503  0.9948061735156157 6.252602722891503  C 0.5805926111425208 6.252602722891503  0.24480617351561573 5.9168162852645985  0.24480617351561573 5.502602722891503  C 0.24480617351561573 5.2166716461658496  0.4073853515955501 4.955617020507752  0.6640000000000006 4.8294999999999995  Z " fill-rule="nonzero" fill="rgba(0, 0, 0, 1)" stroke="none" class="fill" />
    <path d="M 0.6640000000000006 4.8294999999999995  L 9.664 0.32949999999999946  C 9.875467759859838 0.22353355641720718  10.124532240140162 0.22353355641720718  10.336 0.32949999999999946  L 19.336 4.829500000000001  C 19.592614648404442 4.955617020507756  19.75519382648437 5.2166716461658496  19.75519382648437 5.502602722891497  C 19.75519382648437 5.916816285264591  19.419407388857465 6.252602722891497  19.00519382648437 6.252602722891497  C 18.886570041784655 6.252602722891497  18.769638003734997 6.224464937351675  18.664 6.1705000000000005  L 10 1.8399999999999999  L 1.3360000000000003 6.170499999999999  C 1.2303619962650023 6.224464937351675  1.1134299582153373 6.252602722891503  0.9948061735156157 6.252602722891503  C 0.5805926111425208 6.252602722891503  0.24480617351561573 5.9168162852645985  0.24480617351561573 5.502602722891503  C 0.24480617351561573 5.2166716461658496  0.4073853515955501 4.955617020507752  0.6640000000000006 4.8294999999999995  Z " stroke-width="0" stroke-dasharray="0" stroke="rgba(255, 255, 255, 0)" fill="none" class="stroke" mask="url(#Clip5133)" />
  </g>
</svg>