<?xml version="1.0" encoding="utf-8"?>
<svg version="1.1" xmlns:xlink="http://www.w3.org/1999/xlink" width="48px" height="64px" xmlns="http://www.w3.org/2000/svg">
  <defs>
    <pattern id="BGPattern" patternUnits="userSpaceOnUse" alignment="0 0" imageRepeat="None" />
    <mask fill="white" id="Clip1871">
      <path d="M 24 8  C 24 12.41875  27.581249999999997 16  32 16  C 36.41875 16  40 12.41875  40 8  C 40 3.5812500000000007  36.41875 0  32 0  C 27.581249999999997 0  24 3.58125  24 8  Z M 25.152499999999996 33.62375  L 28.17125 37.21875  C 29.92875 39.30875  33.04625 39.605  35.167500000000004 37.87125  L 46.167500000000004 28.868750000000006  C 48.30375 27.121250000000007  48.61625000000001 23.970000000000006  46.870000000000005 21.833750000000006  C 45.12375 19.695000000000007  41.971250000000005 19.385000000000005  39.831250000000004 21.131250000000005  L 32.651250000000005 27.006250000000005  L 27.7875 21.217500000000005  C 25.857500000000005 18.918750000000003  22.885000000000005 17.727500000000006  19.787500000000005 18.051250000000003  C 16.763750000000005 18.361250000000002  14.131250000000005 20.085000000000004  12.741250000000004 22.666250000000005  L 6.570000000000006 34.17  C 3.645000000000005 39.625  5.483750000000005 46.21625  10.843750000000004 49.63875  L 16.445 54  L 5 54  C 2.23875 54  0 56.23875  0 59  C 0 61.76125  2.23875 64  5 64  L 31 64  C 35.26 64  37.72125 58.65125  34.535 55.465  L 20.8025 41.7325  L 25.152499999999996 33.62375  Z " fill-rule="evenodd" />
    </mask>
  </defs>
  <g>
    <path d="M 24 8  C 24 12.41875  27.581249999999997 16  32 16  C 36.41875 16  40 12.41875  40 8  C 40 3.5812500000000007  36.41875 0  32 0  C 27.581249999999997 0  24 3.58125  24 8  Z M 25.152499999999996 33.62375  L 28.17125 37.21875  C 29.92875 39.30875  33.04625 39.605  35.167500000000004 37.87125  L 46.167500000000004 28.868750000000006  C 48.30375 27.121250000000007  48.61625000000001 23.970000000000006  46.870000000000005 21.833750000000006  C 45.12375 19.695000000000007  41.971250000000005 19.385000000000005  39.831250000000004 21.131250000000005  L 32.651250000000005 27.006250000000005  L 27.7875 21.217500000000005  C 25.857500000000005 18.918750000000003  22.885000000000005 17.727500000000006  19.787500000000005 18.051250000000003  C 16.763750000000005 18.361250000000002  14.131250000000005 20.085000000000004  12.741250000000004 22.666250000000005  L 6.570000000000006 34.17  C 3.645000000000005 39.625  5.483750000000005 46.21625  10.843750000000004 49.63875  L 16.445 54  L 5 54  C 2.23875 54  0 56.23875  0 59  C 0 61.76125  2.23875 64  5 64  L 31 64  C 35.26 64  37.72125 58.65125  34.535 55.465  L 20.8025 41.7325  L 25.152499999999996 33.62375  Z " fill-rule="nonzero" fill="rgba(0, 0, 0, 1)" stroke="none" class="fill" />
    <path d="M 24 8  C 24 12.41875  27.581249999999997 16  32 16  C 36.41875 16  40 12.41875  40 8  C 40 3.5812500000000007  36.41875 0  32 0  C 27.581249999999997 0  24 3.58125  24 8  Z " stroke-width="0" stroke-dasharray="0" stroke="rgba(255, 255, 255, 0)" fill="none" class="stroke" mask="url(#Clip1871)" />
    <path d="M 25.152499999999996 33.62375  L 28.17125 37.21875  C 29.92875 39.30875  33.04625 39.605  35.167500000000004 37.87125  L 46.167500000000004 28.868750000000006  C 48.30375 27.121250000000007  48.61625000000001 23.970000000000006  46.870000000000005 21.833750000000006  C 45.12375 19.695000000000007  41.971250000000005 19.385000000000005  39.831250000000004 21.131250000000005  L 32.651250000000005 27.006250000000005  L 27.7875 21.217500000000005  C 25.857500000000005 18.918750000000003  22.885000000000005 17.727500000000006  19.787500000000005 18.051250000000003  C 16.763750000000005 18.361250000000002  14.131250000000005 20.085000000000004  12.741250000000004 22.666250000000005  L 6.570000000000006 34.17  C 3.645000000000005 39.625  5.483750000000005 46.21625  10.843750000000004 49.63875  L 16.445 54  L 5 54  C 2.23875 54  0 56.23875  0 59  C 0 61.76125  2.23875 64  5 64  L 31 64  C 35.26 64  37.72125 58.65125  34.535 55.465  L 20.8025 41.7325  L 25.152499999999996 33.62375  Z " stroke-width="0" stroke-dasharray="0" stroke="rgba(255, 255, 255, 0)" fill="none" class="stroke" mask="url(#Clip1871)" />
  </g>
</svg>