<?xml version="1.0" encoding="utf-8"?>
<svg version="1.1" xmlns:xlink="http://www.w3.org/1999/xlink" width="50px" height="48px" xmlns="http://www.w3.org/2000/svg">
  <defs>
    <pattern id="BGPattern" patternUnits="userSpaceOnUse" alignment="0 0" imageRepeat="None" />
    <mask fill="white" id="Clip2822">
      <path d="M 1 26  L 1 40.1625  L 21 43.45  L 21 26  L 1 26  Z M 4.46875 36.800000000000004  L 4.46875 30  L 16.73125 30  L 16.73125 38.79375  L 4.46875 36.800000000000004  Z M 25 26  L 25 44.1  L 49 47.987500000000004  L 49 26  L 25 26  Z M 29 40.74375  L 29 30  L 45 30  L 45 43.34375  L 29 40.74375  Z M 49 0.006249999999999645  L 25 3.962500000000002  L 25 22  L 49 22  L 49 0.006249999999999645  Z M 45 18.05625  L 45.65625 18  L 29 18  L 29 7.3125  L 45 4.668749999999999  L 45 18.05625  Z M 1 7.9625  L 1 22  L 21 22  L 21 4.61875  L 1 7.9625  Z M 4.46875 18  L 4.46875 11.3125  L 16.73125 9.28125  L 16.73125 18  L 4.46875 18  Z " fill-rule="evenodd" />
    </mask>
  </defs>
  <g>
    <path d="M 1 26  L 1 40.1625  L 21 43.45  L 21 26  L 1 26  Z M 4.46875 36.800000000000004  L 4.46875 30  L 16.73125 30  L 16.73125 38.79375  L 4.46875 36.800000000000004  Z M 25 26  L 25 44.1  L 49 47.987500000000004  L 49 26  L 25 26  Z M 29 40.74375  L 29 30  L 45 30  L 45 43.34375  L 29 40.74375  Z M 49 0.006249999999999645  L 25 3.962500000000002  L 25 22  L 49 22  L 49 0.006249999999999645  Z M 45 18.05625  L 45.65625 18  L 29 18  L 29 7.3125  L 45 4.668749999999999  L 45 18.05625  Z M 1 7.9625  L 1 22  L 21 22  L 21 4.61875  L 1 7.9625  Z M 4.46875 18  L 4.46875 11.3125  L 16.73125 9.28125  L 16.73125 18  L 4.46875 18  Z " fill-rule="nonzero" fill="rgba(0, 0, 0, 1)" stroke="none" class="fill" />
    <path d="M 1 26  L 1 40.1625  L 21 43.45  L 21 26  L 1 26  Z " stroke-width="0" stroke-dasharray="0" stroke="rgba(255, 255, 255, 0)" fill="none" class="stroke" mask="url(#Clip2822)" />
    <path d="M 4.46875 36.800000000000004  L 4.46875 30  L 16.73125 30  L 16.73125 38.79375  L 4.46875 36.800000000000004  Z " stroke-width="0" stroke-dasharray="0" stroke="rgba(255, 255, 255, 0)" fill="none" class="stroke" mask="url(#Clip2822)" />
    <path d="M 25 26  L 25 44.1  L 49 47.987500000000004  L 49 26  L 25 26  Z " stroke-width="0" stroke-dasharray="0" stroke="rgba(255, 255, 255, 0)" fill="none" class="stroke" mask="url(#Clip2822)" />
    <path d="M 29 40.74375  L 29 30  L 45 30  L 45 43.34375  L 29 40.74375  Z " stroke-width="0" stroke-dasharray="0" stroke="rgba(255, 255, 255, 0)" fill="none" class="stroke" mask="url(#Clip2822)" />
    <path d="M 49 0.006249999999999645  L 25 3.962500000000002  L 25 22  L 49 22  L 49 0.006249999999999645  Z " stroke-width="0" stroke-dasharray="0" stroke="rgba(255, 255, 255, 0)" fill="none" class="stroke" mask="url(#Clip2822)" />
    <path d="M 45 18.05625  L 45.65625 18  L 29 18  L 29 7.3125  L 45 4.668749999999999  L 45 18.05625  Z " stroke-width="0" stroke-dasharray="0" stroke="rgba(255, 255, 255, 0)" fill="none" class="stroke" mask="url(#Clip2822)" />
    <path d="M 1 7.9625  L 1 22  L 21 22  L 21 4.61875  L 1 7.9625  Z " stroke-width="0" stroke-dasharray="0" stroke="rgba(255, 255, 255, 0)" fill="none" class="stroke" mask="url(#Clip2822)" />
    <path d="M 4.46875 18  L 4.46875 11.3125  L 16.73125 9.28125  L 16.73125 18  L 4.46875 18  Z " stroke-width="0" stroke-dasharray="0" stroke="rgba(255, 255, 255, 0)" fill="none" class="stroke" mask="url(#Clip2822)" />
  </g>
</svg>