<?xml version="1.0" encoding="utf-8"?>
<svg version="1.1" xmlns:xlink="http://www.w3.org/1999/xlink" width="12px" height="28px" xmlns="http://www.w3.org/2000/svg">
  <defs>
    <pattern id="BGPattern" patternUnits="userSpaceOnUse" alignment="0 0" imageRepeat="None" />
    <mask fill="white" id="Clip4223">
      <path d="M 7 14.91  C 9.883572312743496 14.420962869691454  11.99518882524642 11.92524331356425  12 9.0005  L 12 1.0005000000000006  C 12 0.4482152501692074  11.552284749830793 0.0005000000000006111  11 0  L 1 0  C 0.44771525016920677 0.0005000000000006111  0 0.4482152501692074  0 1.0005000000000006  L 0 9.0005  C 0.004811174753587721 11.925243313564255  2.116427687256504 14.42096286969145  5 14.91  L 5 26  L 1 26  L 1 28  L 11 28  L 11 26  L 7 26  L 7 14.91  Z M 6 13.000499999999999  C 3.790861000676827 13.000499999999999  2 11.209638999323172  2 9.0005  L 2 2  L 10 2  L 10 9.000499999999999  C 10 11.209638999323172  8.209138999323173 13.000499999999999  6 13.000499999999999  Z " fill-rule="evenodd" />
    </mask>
  </defs>
  <g transform="matrix(1 0 0 1 -18 -2 )">
    <path d="M 7 14.91  C 9.883572312743496 14.420962869691454  11.99518882524642 11.92524331356425  12 9.0005  L 12 1.0005000000000006  C 12 0.4482152501692074  11.552284749830793 0.0005000000000006111  11 0  L 1 0  C 0.44771525016920677 0.0005000000000006111  0 0.4482152501692074  0 1.0005000000000006  L 0 9.0005  C 0.004811174753587721 11.925243313564255  2.116427687256504 14.42096286969145  5 14.91  L 5 26  L 1 26  L 1 28  L 11 28  L 11 26  L 7 26  L 7 14.91  Z M 6 13.000499999999999  C 3.790861000676827 13.000499999999999  2 11.209638999323172  2 9.0005  L 2 2  L 10 2  L 10 9.000499999999999  C 10 11.209638999323172  8.209138999323173 13.000499999999999  6 13.000499999999999  Z " fill-rule="nonzero" fill="rgba(0, 0, 0, 1)" stroke="none" transform="matrix(1 0 0 1 18 2 )" class="fill" />
    <path d="M 7 14.91  C 9.883572312743496 14.420962869691454  11.99518882524642 11.92524331356425  12 9.0005  L 12 1.0005000000000006  C 12 0.4482152501692074  11.552284749830793 0.0005000000000006111  11 0  L 1 0  C 0.44771525016920677 0.0005000000000006111  0 0.4482152501692074  0 1.0005000000000006  L 0 9.0005  C 0.004811174753587721 11.925243313564255  2.116427687256504 14.42096286969145  5 14.91  L 5 26  L 1 26  L 1 28  L 11 28  L 11 26  L 7 26  L 7 14.91  Z " stroke-width="0" stroke-dasharray="0" stroke="rgba(255, 255, 255, 0)" fill="none" transform="matrix(1 0 0 1 18 2 )" class="stroke" mask="url(#Clip4223)" />
    <path d="M 6 13.000499999999999  C 3.790861000676827 13.000499999999999  2 11.209638999323172  2 9.0005  L 2 2  L 10 2  L 10 9.000499999999999  C 10 11.209638999323172  8.209138999323173 13.000499999999999  6 13.000499999999999  Z " stroke-width="0" stroke-dasharray="0" stroke="rgba(255, 255, 255, 0)" fill="none" transform="matrix(1 0 0 1 18 2 )" class="stroke" mask="url(#Clip4223)" />
  </g>
</svg>