<?xml version="1.0" encoding="utf-8"?>
<svg version="1.1" xmlns:xlink="http://www.w3.org/1999/xlink" width="23px" height="20px" xmlns="http://www.w3.org/2000/svg">
  <defs>
    <pattern id="BGPattern" patternUnits="userSpaceOnUse" alignment="0 0" imageRepeat="None" />
    <mask fill="white" id="Clip5911">
      <path d="M 14.25 0  L 2.25 0  C 1.0073593128807148 0  0 1.0073593128807148  0 2.25  L 0 5.249999999999999  C 0 6.492640687119284  1.0073593128807148 7.5  2.25 7.5  L 14.25 7.5  C 15.492640687119284 7.5  16.5 6.492640687119284  16.5 5.25  L 16.5 2.25  C 16.5 1.0073593128807148  15.492640687119284 0  14.25 0  Z M 22.5 15  L 22.5 16.5  L 1.5 16.5  L 1.5 15  L 22.5 15  Z M 3.75 19.5  C 3.3357864376269055 19.5  3 19.164213562373096  3 18.75  C 3 18.335786437626904  3.3357864376269055 18  3.75 18  L 12.75 18  C 13.164213562373096 18  13.500000000000002 18.335786437626904  13.500000000000002 18.75  C 13.500000000000002 19.164213562373096  13.164213562373096 19.5  12.75 19.5  L 3.75 19.5  Z M 3.75 13.5  C 3.3357864376269055 13.5  3 13.164213562373096  3 12.75  C 3 12.335786437626904  3.3357864376269055 12  3.75 12  L 17.25 12  C 17.664213562373096 12  18 12.335786437626904  18 12.75  C 18 13.164213562373096  17.664213562373096 13.5  17.25 13.5  L 3.75 13.5  Z M 11.734499999999997 4.2345  L 11.140500000000003 3.6405000000000003  C 11.069968356494176 3.570146754582596  11.030329060501751 3.474620139978402  11.030329060501751 3.3749993997864394  C 11.030329060501751 3.1678926185998915  11.198222279315203 2.9999993997864394  11.406000000000002 3  L 12.594670939498252 2.9999993997864394  C 12.801777720684798 2.9999993997864394  12.96967093949825 3.1678926185998915  12.96967093949825 3.3749993997864394  C 12.96967093949825 3.474620139978403  12.930031643505828 3.570146754582596  12.8595 3.6405000000000003  L 12.2655 4.2345  C 12.195146802742375 4.305031275515726  12.09962044564368 4.344670337764064  12 4.344670337764064  C 11.900379554356318 4.344670337764064  11.804853197257625 4.305031275515727  11.734499999999997 4.2345  Z " fill-rule="evenodd" />
    </mask>
  </defs>
  <g>
    <path d="M 14.25 0  L 2.25 0  C 1.0073593128807148 0  0 1.0073593128807148  0 2.25  L 0 5.249999999999999  C 0 6.492640687119284  1.0073593128807148 7.5  2.25 7.5  L 14.25 7.5  C 15.492640687119284 7.5  16.5 6.492640687119284  16.5 5.25  L 16.5 2.25  C 16.5 1.0073593128807148  15.492640687119284 0  14.25 0  Z M 22.5 15  L 22.5 16.5  L 1.5 16.5  L 1.5 15  L 22.5 15  Z M 3.75 19.5  C 3.3357864376269055 19.5  3 19.164213562373096  3 18.75  C 3 18.335786437626904  3.3357864376269055 18  3.75 18  L 12.75 18  C 13.164213562373096 18  13.500000000000002 18.335786437626904  13.500000000000002 18.75  C 13.500000000000002 19.164213562373096  13.164213562373096 19.5  12.75 19.5  L 3.75 19.5  Z M 3.75 13.5  C 3.3357864376269055 13.5  3 13.164213562373096  3 12.75  C 3 12.335786437626904  3.3357864376269055 12  3.75 12  L 17.25 12  C 17.664213562373096 12  18 12.335786437626904  18 12.75  C 18 13.164213562373096  17.664213562373096 13.5  17.25 13.5  L 3.75 13.5  Z M 11.734499999999997 4.2345  L 11.140500000000003 3.6405000000000003  C 11.069968356494176 3.570146754582596  11.030329060501751 3.474620139978402  11.030329060501751 3.3749993997864394  C 11.030329060501751 3.1678926185998915  11.198222279315203 2.9999993997864394  11.406000000000002 3  L 12.594670939498252 2.9999993997864394  C 12.801777720684798 2.9999993997864394  12.96967093949825 3.1678926185998915  12.96967093949825 3.3749993997864394  C 12.96967093949825 3.474620139978403  12.930031643505828 3.570146754582596  12.8595 3.6405000000000003  L 12.2655 4.2345  C 12.195146802742375 4.305031275515726  12.09962044564368 4.344670337764064  12 4.344670337764064  C 11.900379554356318 4.344670337764064  11.804853197257625 4.305031275515727  11.734499999999997 4.2345  Z " fill-rule="nonzero" fill="rgba(0, 0, 0, 1)" stroke="none" class="fill" />
    <path d="M 14.25 0  L 2.25 0  C 1.0073593128807148 0  0 1.0073593128807148  0 2.25  L 0 5.249999999999999  C 0 6.492640687119284  1.0073593128807148 7.5  2.25 7.5  L 14.25 7.5  C 15.492640687119284 7.5  16.5 6.492640687119284  16.5 5.25  L 16.5 2.25  C 16.5 1.0073593128807148  15.492640687119284 0  14.25 0  Z " stroke-width="0" stroke-dasharray="0" stroke="rgba(255, 255, 255, 0)" fill="none" class="stroke" mask="url(#Clip5911)" />
    <path d="M 22.5 15  L 22.5 16.5  L 1.5 16.5  L 1.5 15  L 22.5 15  Z " stroke-width="0" stroke-dasharray="0" stroke="rgba(255, 255, 255, 0)" fill="none" class="stroke" mask="url(#Clip5911)" />
    <path d="M 3.75 19.5  C 3.3357864376269055 19.5  3 19.164213562373096  3 18.75  C 3 18.335786437626904  3.3357864376269055 18  3.75 18  L 12.75 18  C 13.164213562373096 18  13.500000000000002 18.335786437626904  13.500000000000002 18.75  C 13.500000000000002 19.164213562373096  13.164213562373096 19.5  12.75 19.5  L 3.75 19.5  Z " stroke-width="0" stroke-dasharray="0" stroke="rgba(255, 255, 255, 0)" fill="none" class="stroke" mask="url(#Clip5911)" />
    <path d="M 3.75 13.5  C 3.3357864376269055 13.5  3 13.164213562373096  3 12.75  C 3 12.335786437626904  3.3357864376269055 12  3.75 12  L 17.25 12  C 17.664213562373096 12  18 12.335786437626904  18 12.75  C 18 13.164213562373096  17.664213562373096 13.5  17.25 13.5  L 3.75 13.5  Z " stroke-width="0" stroke-dasharray="0" stroke="rgba(255, 255, 255, 0)" fill="none" class="stroke" mask="url(#Clip5911)" />
    <path d="M 11.734499999999997 4.2345  L 11.140500000000003 3.6405000000000003  C 11.069968356494176 3.570146754582596  11.030329060501751 3.474620139978402  11.030329060501751 3.3749993997864394  C 11.030329060501751 3.1678926185998915  11.198222279315203 2.9999993997864394  11.406000000000002 3  L 12.594670939498252 2.9999993997864394  C 12.801777720684798 2.9999993997864394  12.96967093949825 3.1678926185998915  12.96967093949825 3.3749993997864394  C 12.96967093949825 3.474620139978403  12.930031643505828 3.570146754582596  12.8595 3.6405000000000003  L 12.2655 4.2345  C 12.195146802742375 4.305031275515726  12.09962044564368 4.344670337764064  12 4.344670337764064  C 11.900379554356318 4.344670337764064  11.804853197257625 4.305031275515727  11.734499999999997 4.2345  Z " stroke-width="0" stroke-dasharray="0" stroke="rgba(255, 255, 255, 0)" fill="none" class="stroke" mask="url(#Clip5911)" />
  </g>
</svg>