<?xml version="1.0" encoding="utf-8"?>
<svg version="1.1" xmlns:xlink="http://www.w3.org/1999/xlink" width="62px" height="62px" xmlns="http://www.w3.org/2000/svg">
  <defs>
    <pattern id="BGPattern" patternUnits="userSpaceOnUse" alignment="0 0" imageRepeat="None" />
    <mask fill="white" id="Clip902">
      <path d="M 46.427499999999995 32.136250000000004  C 46.427499999999995 26.931250000000006  43.10999999999999 22.523750000000003  35.84375 22.52375  L 31 22.52375  L 31 41.75  L 36.037499999999994 41.75  C 44.489999999999995 41.75  46.427499999999995 35.332499999999996  46.427499999999995 32.136250000000004  Z M 62 31  C 62 13.875  48.125 0  31 0  C 13.875 0  0 13.875  0 31  C 0 48.125  13.875 62  31 62  C 48.125 62  62 48.125  62 31  Z M 21 19.1575  L 21 45.095  L 18 45.095  L 18 19.1575  L 21 19.1575  Z M 21.482499999999998 13.756250000000001  C 21.47770034361395 15.105283484943481  20.38528348494348 16.197700343613953  19.036250000000003 16.202500000000004  C 17.685223430726424 16.202500000000004  16.59 15.107276569273584  16.59 13.756250000000005  C 16.59 12.405223430726426  17.685223430726424 11.310000000000004  19.036250000000003 11.310000000000004  C 20.38727656927358 11.310000000000004  21.4825 12.405223430726426  21.4825 13.756250000000005  Z M 50.255 32.13875  C 50.25 38.79875  45.0475 45.125  36.5 45  L 27 45  L 27 19.1575  L 36.45 19.1575  C 46.041250000000005 19.1575  50.255 26.011249999999997  50.255 32.13875  Z " fill-rule="evenodd" />
    </mask>
  </defs>
  <g>
    <path d="M 46.427499999999995 32.136250000000004  C 46.427499999999995 26.931250000000006  43.10999999999999 22.523750000000003  35.84375 22.52375  L 31 22.52375  L 31 41.75  L 36.037499999999994 41.75  C 44.489999999999995 41.75  46.427499999999995 35.332499999999996  46.427499999999995 32.136250000000004  Z M 62 31  C 62 13.875  48.125 0  31 0  C 13.875 0  0 13.875  0 31  C 0 48.125  13.875 62  31 62  C 48.125 62  62 48.125  62 31  Z M 21 19.1575  L 21 45.095  L 18 45.095  L 18 19.1575  L 21 19.1575  Z M 21.482499999999998 13.756250000000001  C 21.47770034361395 15.105283484943481  20.38528348494348 16.197700343613953  19.036250000000003 16.202500000000004  C 17.685223430726424 16.202500000000004  16.59 15.107276569273584  16.59 13.756250000000005  C 16.59 12.405223430726426  17.685223430726424 11.310000000000004  19.036250000000003 11.310000000000004  C 20.38727656927358 11.310000000000004  21.4825 12.405223430726426  21.4825 13.756250000000005  Z M 50.255 32.13875  C 50.25 38.79875  45.0475 45.125  36.5 45  L 27 45  L 27 19.1575  L 36.45 19.1575  C 46.041250000000005 19.1575  50.255 26.011249999999997  50.255 32.13875  Z " fill-rule="nonzero" fill="rgba(0, 0, 0, 1)" stroke="none" class="fill" />
    <path d="M 46.427499999999995 32.136250000000004  C 46.427499999999995 26.931250000000006  43.10999999999999 22.523750000000003  35.84375 22.52375  L 31 22.52375  L 31 41.75  L 36.037499999999994 41.75  C 44.489999999999995 41.75  46.427499999999995 35.332499999999996  46.427499999999995 32.136250000000004  Z " stroke-width="0" stroke-dasharray="0" stroke="rgba(255, 255, 255, 0)" fill="none" class="stroke" mask="url(#Clip902)" />
    <path d="M 62 31  C 62 13.875  48.125 0  31 0  C 13.875 0  0 13.875  0 31  C 0 48.125  13.875 62  31 62  C 48.125 62  62 48.125  62 31  Z " stroke-width="0" stroke-dasharray="0" stroke="rgba(255, 255, 255, 0)" fill="none" class="stroke" mask="url(#Clip902)" />
    <path d="M 21 19.1575  L 21 45.095  L 18 45.095  L 18 19.1575  L 21 19.1575  Z " stroke-width="0" stroke-dasharray="0" stroke="rgba(255, 255, 255, 0)" fill="none" class="stroke" mask="url(#Clip902)" />
    <path d="M 21.482499999999998 13.756250000000001  C 21.47770034361395 15.105283484943481  20.38528348494348 16.197700343613953  19.036250000000003 16.202500000000004  C 17.685223430726424 16.202500000000004  16.59 15.107276569273584  16.59 13.756250000000005  C 16.59 12.405223430726426  17.685223430726424 11.310000000000004  19.036250000000003 11.310000000000004  C 20.38727656927358 11.310000000000004  21.4825 12.405223430726426  21.4825 13.756250000000005  Z " stroke-width="0" stroke-dasharray="0" stroke="rgba(255, 255, 255, 0)" fill="none" class="stroke" mask="url(#Clip902)" />
    <path d="M 50.255 32.13875  C 50.25 38.79875  45.0475 45.125  36.5 45  L 27 45  L 27 19.1575  L 36.45 19.1575  C 46.041250000000005 19.1575  50.255 26.011249999999997  50.255 32.13875  Z " stroke-width="0" stroke-dasharray="0" stroke="rgba(255, 255, 255, 0)" fill="none" class="stroke" mask="url(#Clip902)" />
  </g>
</svg>