<?xml version="1.0" encoding="utf-8"?>
<svg version="1.1" xmlns:xlink="http://www.w3.org/1999/xlink" width="22px" height="24px" xmlns="http://www.w3.org/2000/svg">
  <defs>
    <pattern id="BGPattern" patternUnits="userSpaceOnUse" alignment="0 0" imageRepeat="None" />
    <mask fill="white" id="Clip6211">
      <path d="M 15.2195 1.5374999999999988  C 13.654999999999998 1.1235  11.9945 0.75  11 0.75  C 10.007 0.75  8.345 1.1235  6.780499999999999 1.5374999999999999  C 5.3850589021777955 1.9121729093426794  3.9986714988286556 2.3197868103995156  2.6224999999999987 2.7599999999999993  C 1.8206175013997035 3.0125497231062317  1.2352860920878332 3.7035092332012014  1.1179999999999994 4.536  C 0.25849999999999973 10.8315  2.252 15.4965  4.669999999999998 18.5835  C 5.699335806234637 19.908185375291843  6.921411914111177 21.07110430293605  8.295499999999999 22.0335  C 8.852 22.4175  9.367999999999999 22.71  9.805999999999997 22.9125  C 10.210999999999999 23.0985  10.642999999999997 23.25  10.999999999999998 23.25  C 11.356999999999998 23.25  11.790499999999998 23.098499999999998  12.193999999999999 22.9125  C 12.631999999999998 22.71  13.147999999999998 22.4175  13.704499999999996 22.0335  C 15.079134500935343 21.071239430129477  16.301724647351 19.908312491851557  17.3315 18.5835  C 19.748 15.4965  21.7415 10.831499999999998  20.881999999999998 4.535999999999998  C 20.764713907912164 3.703509233201199  20.179382498600294 3.012549723106231  19.3775 2.759999999999999  C 18.00133178323728 2.3197761162257837  16.614944126114253 1.9121621405564961  15.2195 1.5374999999999988  Z M 9.643270591531696 7.35749978128495  C 9.643270591531696 6.608074150431291  10.250574489890845 6.00042541513427  11 6  C 11.749425510109155 6.00042541513427  12.3567294084683 6.608074150431293  12.3567294084683 7.357499781284952  C 12.3567294084683 7.402583680354281  12.354483488939142 7.44763959114959  12.349999999999998 7.4925000000000015  L 11.825 12.753  C 11.780820459835642 13.175411270449944  11.424715331925125 13.496214137890377  10.999999999999998 13.496214137890377  C 10.575284668074872 13.496214137890377  10.219179540164356 13.175411270449944  10.174999999999999 12.753  L 9.649999999999999 7.4925  C 9.645516511060855 7.447639591149576  9.643270591531696 7.402583680354292  9.643270591531696 7.35749978128495  Z M 9.503 16.5  C 9.503 15.67157287525381  10.174572875253812 15  11.003 15  C 11.831427124746192 15  12.503 15.67157287525381  12.503 16.5  C 12.503 17.32842712474619  11.831427124746192 18  11.003 18  C 10.174572875253812 18  9.503 17.32842712474619  9.503 16.5  Z " fill-rule="evenodd" />
    </mask>
  </defs>
  <g>
    <path d="M 15.2195 1.5374999999999988  C 13.654999999999998 1.1235  11.9945 0.75  11 0.75  C 10.007 0.75  8.345 1.1235  6.780499999999999 1.5374999999999999  C 5.3850589021777955 1.9121729093426794  3.9986714988286556 2.3197868103995156  2.6224999999999987 2.7599999999999993  C 1.8206175013997035 3.0125497231062317  1.2352860920878332 3.7035092332012014  1.1179999999999994 4.536  C 0.25849999999999973 10.8315  2.252 15.4965  4.669999999999998 18.5835  C 5.699335806234637 19.908185375291843  6.921411914111177 21.07110430293605  8.295499999999999 22.0335  C 8.852 22.4175  9.367999999999999 22.71  9.805999999999997 22.9125  C 10.210999999999999 23.0985  10.642999999999997 23.25  10.999999999999998 23.25  C 11.356999999999998 23.25  11.790499999999998 23.098499999999998  12.193999999999999 22.9125  C 12.631999999999998 22.71  13.147999999999998 22.4175  13.704499999999996 22.0335  C 15.079134500935343 21.071239430129477  16.301724647351 19.908312491851557  17.3315 18.5835  C 19.748 15.4965  21.7415 10.831499999999998  20.881999999999998 4.535999999999998  C 20.764713907912164 3.703509233201199  20.179382498600294 3.012549723106231  19.3775 2.759999999999999  C 18.00133178323728 2.3197761162257837  16.614944126114253 1.9121621405564961  15.2195 1.5374999999999988  Z M 9.643270591531696 7.35749978128495  C 9.643270591531696 6.608074150431291  10.250574489890845 6.00042541513427  11 6  C 11.749425510109155 6.00042541513427  12.3567294084683 6.608074150431293  12.3567294084683 7.357499781284952  C 12.3567294084683 7.402583680354281  12.354483488939142 7.44763959114959  12.349999999999998 7.4925000000000015  L 11.825 12.753  C 11.780820459835642 13.175411270449944  11.424715331925125 13.496214137890377  10.999999999999998 13.496214137890377  C 10.575284668074872 13.496214137890377  10.219179540164356 13.175411270449944  10.174999999999999 12.753  L 9.649999999999999 7.4925  C 9.645516511060855 7.447639591149576  9.643270591531696 7.402583680354292  9.643270591531696 7.35749978128495  Z M 9.503 16.5  C 9.503 15.67157287525381  10.174572875253812 15  11.003 15  C 11.831427124746192 15  12.503 15.67157287525381  12.503 16.5  C 12.503 17.32842712474619  11.831427124746192 18  11.003 18  C 10.174572875253812 18  9.503 17.32842712474619  9.503 16.5  Z " fill-rule="nonzero" fill="rgba(0, 0, 0, 1)" stroke="none" class="fill" />
    <path d="M 15.2195 1.5374999999999988  C 13.654999999999998 1.1235  11.9945 0.75  11 0.75  C 10.007 0.75  8.345 1.1235  6.780499999999999 1.5374999999999999  C 5.3850589021777955 1.9121729093426794  3.9986714988286556 2.3197868103995156  2.6224999999999987 2.7599999999999993  C 1.8206175013997035 3.0125497231062317  1.2352860920878332 3.7035092332012014  1.1179999999999994 4.536  C 0.25849999999999973 10.8315  2.252 15.4965  4.669999999999998 18.5835  C 5.699335806234637 19.908185375291843  6.921411914111177 21.07110430293605  8.295499999999999 22.0335  C 8.852 22.4175  9.367999999999999 22.71  9.805999999999997 22.9125  C 10.210999999999999 23.0985  10.642999999999997 23.25  10.999999999999998 23.25  C 11.356999999999998 23.25  11.790499999999998 23.098499999999998  12.193999999999999 22.9125  C 12.631999999999998 22.71  13.147999999999998 22.4175  13.704499999999996 22.0335  C 15.079134500935343 21.071239430129477  16.301724647351 19.908312491851557  17.3315 18.5835  C 19.748 15.4965  21.7415 10.831499999999998  20.881999999999998 4.535999999999998  C 20.764713907912164 3.703509233201199  20.179382498600294 3.012549723106231  19.3775 2.759999999999999  C 18.00133178323728 2.3197761162257837  16.614944126114253 1.9121621405564961  15.2195 1.5374999999999988  Z " stroke-width="0" stroke-dasharray="0" stroke="rgba(255, 255, 255, 0)" fill="none" class="stroke" mask="url(#Clip6211)" />
    <path d="M 9.643270591531696 7.35749978128495  C 9.643270591531696 6.608074150431291  10.250574489890845 6.00042541513427  11 6  C 11.749425510109155 6.00042541513427  12.3567294084683 6.608074150431293  12.3567294084683 7.357499781284952  C 12.3567294084683 7.402583680354281  12.354483488939142 7.44763959114959  12.349999999999998 7.4925000000000015  L 11.825 12.753  C 11.780820459835642 13.175411270449944  11.424715331925125 13.496214137890377  10.999999999999998 13.496214137890377  C 10.575284668074872 13.496214137890377  10.219179540164356 13.175411270449944  10.174999999999999 12.753  L 9.649999999999999 7.4925  C 9.645516511060855 7.447639591149576  9.643270591531696 7.402583680354292  9.643270591531696 7.35749978128495  Z " stroke-width="0" stroke-dasharray="0" stroke="rgba(255, 255, 255, 0)" fill="none" class="stroke" mask="url(#Clip6211)" />
    <path d="M 9.503 16.5  C 9.503 15.67157287525381  10.174572875253812 15  11.003 15  C 11.831427124746192 15  12.503 15.67157287525381  12.503 16.5  C 12.503 17.32842712474619  11.831427124746192 18  11.003 18  C 10.174572875253812 18  9.503 17.32842712474619  9.503 16.5  Z " stroke-width="0" stroke-dasharray="0" stroke="rgba(255, 255, 255, 0)" fill="none" class="stroke" mask="url(#Clip6211)" />
  </g>
</svg>