<?xml version="1.0" encoding="utf-8"?>
<svg version="1.1" xmlns:xlink="http://www.w3.org/1999/xlink" width="24px" height="24px" xmlns="http://www.w3.org/2000/svg">
  <defs>
    <pattern id="BGPattern" patternUnits="userSpaceOnUse" alignment="0 0" imageRepeat="None" />
    <mask fill="white" id="Clip4701">
      <path d="M 21 0  L 3 0  C 1.3431457505076196 0  0 1.3431457505076196  0 3  L 0 21  C 0 22.65685424949238  1.3431457505076196 24  3 24  L 21 24  C 22.65685424949238 24  24 22.65685424949238  24 21  L 24 3  C 24 1.3431457505076196  22.65685424949238 0  21 0  Z M 12 6  C 12.414213562373096 6  12.75 6.335786437626905  12.75 6.75  L 12.75 15.439499999999999  L 15.968999999999998 12.219000000000001  C 16.109829956104797 12.078170043895204  16.300836366088188 11.999052598379887  16.5 11.999052598379887  C 16.91473679783985 11.999052598379887  17.250947401620117 12.33526320216015  17.250947401620117 12.75  C 17.250947401620117 12.949163633911812  17.171829956104794 13.140170043895203  17.031 13.281000000000002  L 12.530999999999999 17.781000000000002  C 12.390293605484748 17.922062551031452  12.19924089128736 18.001340675528127  12 18.001340675528127  C 11.800759108712638 18.001340675528127  11.609706394515252 17.922062551031452  11.469 17.781000000000002  L 6.968999999999999 13.281000000000002  C 6.828170043895201 13.140170043895203  6.749052598379887 12.949163633911812  6.749052598379887 12.75  C 6.749052598379887 12.335263202160151  7.085263202160151 11.999052598379887  7.5 11.999052598379887  C 7.699163633911812 11.999052598379887  7.890170043895203 12.078170043895204  8.031 12.219000000000001  L 11.25 15.439499999999999  L 11.25 6.75  C 11.25 6.335786437626905  11.585786437626904 6  12 6  Z " fill-rule="evenodd" />
    </mask>
  </defs>
  <g>
    <path d="M 21 0  L 3 0  C 1.3431457505076196 0  0 1.3431457505076196  0 3  L 0 21  C 0 22.65685424949238  1.3431457505076196 24  3 24  L 21 24  C 22.65685424949238 24  24 22.65685424949238  24 21  L 24 3  C 24 1.3431457505076196  22.65685424949238 0  21 0  Z M 12 6  C 12.414213562373096 6  12.75 6.335786437626905  12.75 6.75  L 12.75 15.439499999999999  L 15.968999999999998 12.219000000000001  C 16.109829956104797 12.078170043895204  16.300836366088188 11.999052598379887  16.5 11.999052598379887  C 16.91473679783985 11.999052598379887  17.250947401620117 12.33526320216015  17.250947401620117 12.75  C 17.250947401620117 12.949163633911812  17.171829956104794 13.140170043895203  17.031 13.281000000000002  L 12.530999999999999 17.781000000000002  C 12.390293605484748 17.922062551031452  12.19924089128736 18.001340675528127  12 18.001340675528127  C 11.800759108712638 18.001340675528127  11.609706394515252 17.922062551031452  11.469 17.781000000000002  L 6.968999999999999 13.281000000000002  C 6.828170043895201 13.140170043895203  6.749052598379887 12.949163633911812  6.749052598379887 12.75  C 6.749052598379887 12.335263202160151  7.085263202160151 11.999052598379887  7.5 11.999052598379887  C 7.699163633911812 11.999052598379887  7.890170043895203 12.078170043895204  8.031 12.219000000000001  L 11.25 15.439499999999999  L 11.25 6.75  C 11.25 6.335786437626905  11.585786437626904 6  12 6  Z " fill-rule="nonzero" fill="rgba(0, 0, 0, 1)" stroke="none" class="fill" />
    <path d="M 21 0  L 3 0  C 1.3431457505076196 0  0 1.3431457505076196  0 3  L 0 21  C 0 22.65685424949238  1.3431457505076196 24  3 24  L 21 24  C 22.65685424949238 24  24 22.65685424949238  24 21  L 24 3  C 24 1.3431457505076196  22.65685424949238 0  21 0  Z " stroke-width="0" stroke-dasharray="0" stroke="rgba(255, 255, 255, 0)" fill="none" class="stroke" mask="url(#Clip4701)" />
    <path d="M 12 6  C 12.414213562373096 6  12.75 6.335786437626905  12.75 6.75  L 12.75 15.439499999999999  L 15.968999999999998 12.219000000000001  C 16.109829956104797 12.078170043895204  16.300836366088188 11.999052598379887  16.5 11.999052598379887  C 16.91473679783985 11.999052598379887  17.250947401620117 12.33526320216015  17.250947401620117 12.75  C 17.250947401620117 12.949163633911812  17.171829956104794 13.140170043895203  17.031 13.281000000000002  L 12.530999999999999 17.781000000000002  C 12.390293605484748 17.922062551031452  12.19924089128736 18.001340675528127  12 18.001340675528127  C 11.800759108712638 18.001340675528127  11.609706394515252 17.922062551031452  11.469 17.781000000000002  L 6.968999999999999 13.281000000000002  C 6.828170043895201 13.140170043895203  6.749052598379887 12.949163633911812  6.749052598379887 12.75  C 6.749052598379887 12.335263202160151  7.085263202160151 11.999052598379887  7.5 11.999052598379887  C 7.699163633911812 11.999052598379887  7.890170043895203 12.078170043895204  8.031 12.219000000000001  L 11.25 15.439499999999999  L 11.25 6.75  C 11.25 6.335786437626905  11.585786437626904 6  12 6  Z " stroke-width="0" stroke-dasharray="0" stroke="rgba(255, 255, 255, 0)" fill="none" class="stroke" mask="url(#Clip4701)" />
  </g>
</svg>