<?xml version="1.0" encoding="utf-8"?>
<svg version="1.1" xmlns:xlink="http://www.w3.org/1999/xlink" width="48px" height="48px" xmlns="http://www.w3.org/2000/svg">
  <defs>
    <pattern id="BGPattern" patternUnits="userSpaceOnUse" alignment="0 0" imageRepeat="None" />
    <mask fill="white" id="Clip3167">
      <path d="M 47.25 24  C 47.25 11.162500000000001  36.8375 0.75  24 0.75  C 11.162500000000001 0.75  0.75 11.162500000000001  0.75 24  C 0.75 36.8375  11.162500000000001 47.25  24 47.25  C 36.8375 47.25  47.25 36.8375  47.25 24  Z M 35.525 29.893749999999997  C 35.76875 30.224999999999994  35.53125 30.6875  35.125 30.6875  L 32.19375 30.6875  C 31.55625 30.6875  30.950000000000003 30.38125  30.575000000000003 29.862499999999997  L 24 20.775  L 17.425 29.862499999999997  C 17.05 30.381249999999994  16.45 30.6875  15.806250000000002 30.6875  L 12.875 30.6875  C 12.46875 30.6875  12.23125 30.225  12.46875 29.893749999999997  L 23.59375 14.518749999999997  C 23.79375 14.243749999999999  24.200000000000003 14.243749999999999  24.4 14.518749999999997  L 35.525 29.893749999999997  Z " fill-rule="evenodd" />
    </mask>
  </defs>
  <g transform="matrix(1 0 0 1 -4 -4 )">
    <path d="M 47.25 24  C 47.25 11.162500000000001  36.8375 0.75  24 0.75  C 11.162500000000001 0.75  0.75 11.162500000000001  0.75 24  C 0.75 36.8375  11.162500000000001 47.25  24 47.25  C 36.8375 47.25  47.25 36.8375  47.25 24  Z M 35.525 29.893749999999997  C 35.76875 30.224999999999994  35.53125 30.6875  35.125 30.6875  L 32.19375 30.6875  C 31.55625 30.6875  30.950000000000003 30.38125  30.575000000000003 29.862499999999997  L 24 20.775  L 17.425 29.862499999999997  C 17.05 30.381249999999994  16.45 30.6875  15.806250000000002 30.6875  L 12.875 30.6875  C 12.46875 30.6875  12.23125 30.225  12.46875 29.893749999999997  L 23.59375 14.518749999999997  C 23.79375 14.243749999999999  24.200000000000003 14.243749999999999  24.4 14.518749999999997  L 35.525 29.893749999999997  Z " fill-rule="nonzero" fill="rgba(230, 230, 230, 1)" stroke="none" transform="matrix(1 0 0 1 4 4 )" class="fill" />
    <path d="M 47.25 24  C 47.25 11.162500000000001  36.8375 0.75  24 0.75  C 11.162500000000001 0.75  0.75 11.162500000000001  0.75 24  C 0.75 36.8375  11.162500000000001 47.25  24 47.25  C 36.8375 47.25  47.25 36.8375  47.25 24  Z " stroke-width="0" stroke-dasharray="0" stroke="rgba(255, 255, 255, 0)" fill="none" transform="matrix(1 0 0 1 4 4 )" class="stroke" mask="url(#Clip3167)" />
    <path d="M 35.525 29.893749999999997  C 35.76875 30.224999999999994  35.53125 30.6875  35.125 30.6875  L 32.19375 30.6875  C 31.55625 30.6875  30.950000000000003 30.38125  30.575000000000003 29.862499999999997  L 24 20.775  L 17.425 29.862499999999997  C 17.05 30.381249999999994  16.45 30.6875  15.806250000000002 30.6875  L 12.875 30.6875  C 12.46875 30.6875  12.23125 30.225  12.46875 29.893749999999997  L 23.59375 14.518749999999997  C 23.79375 14.243749999999999  24.200000000000003 14.243749999999999  24.4 14.518749999999997  L 35.525 29.893749999999997  Z " stroke-width="0" stroke-dasharray="0" stroke="rgba(255, 255, 255, 0)" fill="none" transform="matrix(1 0 0 1 4 4 )" class="stroke" mask="url(#Clip3167)" />
  </g>
</svg>