<?xml version="1.0" encoding="utf-8"?>
<svg version="1.1" xmlns:xlink="http://www.w3.org/1999/xlink" width="50px" height="50px" xmlns="http://www.w3.org/2000/svg">
  <defs>
    <pattern id="BGPattern" patternUnits="userSpaceOnUse" alignment="0 0" imageRepeat="None" />
    <mask fill="white" id="Clip2013">
      <path d="M 32 34.821428571428555  C 32.14285714285714 33.34821428571428  33.34821428571428 32.14285714285717  34.821428571428555 32  L 50 32  L 50 2.678571428571445  C 50 1.1941964285714448  48.805803571428584 0  47.321428571428555 0  L 2.6785714285714164 0  C 1.1941964285714164 0  0 1.1941964285714448  0 2.678571428571445  L 0 47.321428571428555  C 0 48.805803571428555  1.1941964285714164 50  2.6785714285714164 50  L 32 50  L 32 34.821428571428555  Z M 50 36.39508928571428  C 50 37.09821428571428  49.72098214285714 37.77901785714283  49.21875 38.28125  L 38.28125 49.21875  C 37.77901785714286 49.72098214285717  37.09821428571428 50  36.383928571428555 50  L 35 50  L 35 35  L 50 35  L 50 36.39508928571428  Z " fill-rule="evenodd" />
    </mask>
  </defs>
  <g>
    <path d="M 32 34.821428571428555  C 32.14285714285714 33.34821428571428  33.34821428571428 32.14285714285717  34.821428571428555 32  L 50 32  L 50 2.678571428571445  C 50 1.1941964285714448  48.805803571428584 0  47.321428571428555 0  L 2.6785714285714164 0  C 1.1941964285714164 0  0 1.1941964285714448  0 2.678571428571445  L 0 47.321428571428555  C 0 48.805803571428555  1.1941964285714164 50  2.6785714285714164 50  L 32 50  L 32 34.821428571428555  Z M 50 36.39508928571428  C 50 37.09821428571428  49.72098214285714 37.77901785714283  49.21875 38.28125  L 38.28125 49.21875  C 37.77901785714286 49.72098214285717  37.09821428571428 50  36.383928571428555 50  L 35 50  L 35 35  L 50 35  L 50 36.39508928571428  Z " fill-rule="nonzero" fill="rgba(0, 0, 0, 1)" stroke="none" class="fill" />
    <path d="M 32 34.821428571428555  C 32.14285714285714 33.34821428571428  33.34821428571428 32.14285714285717  34.821428571428555 32  L 50 32  L 50 2.678571428571445  C 50 1.1941964285714448  48.805803571428584 0  47.321428571428555 0  L 2.6785714285714164 0  C 1.1941964285714164 0  0 1.1941964285714448  0 2.678571428571445  L 0 47.321428571428555  C 0 48.805803571428555  1.1941964285714164 50  2.6785714285714164 50  L 32 50  L 32 34.821428571428555  Z " stroke-width="0" stroke-dasharray="0" stroke="rgba(255, 255, 255, 0)" fill="none" class="stroke" mask="url(#Clip2013)" />
    <path d="M 50 36.39508928571428  C 50 37.09821428571428  49.72098214285714 37.77901785714283  49.21875 38.28125  L 38.28125 49.21875  C 37.77901785714286 49.72098214285717  37.09821428571428 50  36.383928571428555 50  L 35 50  L 35 35  L 50 35  L 50 36.39508928571428  Z " stroke-width="0" stroke-dasharray="0" stroke="rgba(255, 255, 255, 0)" fill="none" class="stroke" mask="url(#Clip2013)" />
  </g>
</svg>