<?xml version="1.0" encoding="utf-8"?>
<svg version="1.1" xmlns:xlink="http://www.w3.org/1999/xlink" width="20px" height="26px" xmlns="http://www.w3.org/2000/svg">
  <defs>
    <pattern id="BGPattern" patternUnits="userSpaceOnUse" alignment="0 0" imageRepeat="None" />
    <mask fill="white" id="Clip217">
      <path d="M 16.336000000000002 25.8  L 3.6639999999999997 25.8  C 1.7759999999999998 25.8  0.40000000000000036 24.424  0.40000000000000036 22.536  L 0.40000000000000036 3.464000000000002  C 0.40000000000000036 1.5760000000000023  1.7759999999999998 0.2000000000000024  3.6639999999999997 0.2000000000000024  L 11.472000000000001 0.2000000000000024  C 12.608 0.2000000000000024  13.632000000000001 0.6160000000000023  14.432000000000002 1.4480000000000022  L 18.432000000000002 5.544000000000002  C 19.200000000000003 6.344000000000003  19.6 7.320000000000002  19.6 8.424000000000003  L 19.6 22.536  C 19.6 24.424  18.224 25.8  16.336000000000002 25.8  Z M 2 22.535999999999998  C 2.0000000000000018 23.543999999999997  2.6560000000000024 24.2  3.6639999999999997 24  L 16.336 24  C 17.343999999999998 24.2  18 23.544  18 22.535999999999998  L 18 8.423999999999998  C 18 7.719999999999996  17.776 7.159999999999998  17.28 6.647999999999998  L 13.280000000000001 2.551999999999998  C 12.784000000000002 2.0399999999999974  12.208000000000002 1.799999999999998  11.472000000000001 1.799999999999998  L 3.6640000000000015 1.799999999999998  C 2.6560000000000024 1.799999999999998  2.0000000000000018 2.4559999999999977  2 3.4639999999999977  L 2 22.535999999999998  Z M 10.8 12.984  C 10.8 13.464  10.464000000000002 13.8  10 13.8  C 9.536 13.8  9.2 13.464000000000002  9.2 12.984  L 9.2 10.616  C 9.2 10.136  9.536 9.799999999999999  10 9.799999999999999  C 10.463999999999999 9.799999999999999  10.8 10.136  10.8 10.616  L 10.8 12.984  Z M 6.799999999999999 12.984000000000002  C 6.799999999999999 13.464000000000002  6.463999999999999 13.8  6 13.8  C 5.536 13.8  5.199999999999999 13.464000000000002  5.199999999999999 12.984  L 5.199999999999999 12.232  C 5.199999999999999 11.288  5.888 10.6  6.831999999999999 10.6  L 7.584 10.6  C 8.064 10.6  8.4 10.936  8.4 11.4  C 8.4 11.864  8.064 12.200000000000001  7.584 12.200000000000001  L 6.799999999999999 12.200000000000001  L 6.799999999999999 12.984000000000002  Z M 14.799999999999997 12.983999999999998  C 14.799999999999997 13.464  14.463999999999999 13.799999999999997  14 13.8  C 13.536000000000001 13.8  13.2 13.464000000000002  13.2 12.984  L 13.2 12.2  L 12.399999999999999 12.2  C 11.936 12.2  11.599999999999998 11.863999999999999  11.599999999999998 11.399999999999999  C 11.599999999999998 10.935999999999998  11.935999999999996 10.599999999999998  12.415999999999997 10.599999999999998  L 13.167999999999996 10.599999999999998  C 14.111999999999995 10.599999999999998  14.799999999999997 11.287999999999998  14.799999999999997 12.231999999999998  L 14.799999999999997 12.983999999999998  Z M 7.584 16.2  L 5.215999999999999 16.2  C 4.735999999999999 16.2  4.399999999999999 15.864  4.399999999999999 15.399999999999997  C 4.399999999999999 14.935999999999996  4.735999999999999 14.599999999999998  5.215999999999999 14.599999999999998  L 7.584 14.599999999999998  C 8.064 14.599999999999998  8.4 14.935999999999996  8.4 15.399999999999997  C 8.4 15.864  8.064 16.2  7.584 16.2  Z M 14.783999999999999 16.2  L 12.416 16.2  C 11.936 16.2  11.600000000000001 15.864  11.600000000000001 15.399999999999997  C 11.600000000000001 14.935999999999996  11.936 14.599999999999998  12.416 14.599999999999998  L 14.783999999999999 14.599999999999998  C 15.264 14.599999999999998  15.599999999999998 14.935999999999996  15.599999999999998 15.399999999999997  C 15.599999999999998 15.864  15.264 16.2  14.783999999999999 16.2  Z M 7.584000000000003 20.2  L 6.832000000000001 20.2  C 5.888000000000002 20.2  5.200000000000001 19.512  5.200000000000001 18.567999999999998  L 5.200000000000001 17.816  C 5.200000000000001 17.336  5.536000000000001 17  6.000000000000002 17  C 6.464000000000002 17  6.8000000000000025 17.336  6.8000000000000025 17.816  L 6.8000000000000025 18.599999999999998  L 7.600000000000003 18.599999999999998  C 8.064000000000004 18.599999999999998  8.400000000000004 18.935999999999996  8.400000000000004 19.4  C 8.400000000000004 19.864  8.064000000000004 20.2  7.584000000000003 20.2  Z M 10.8 20.184  C 10.8 20.664  10.464000000000002 21  10 21  C 9.536 21  9.2 20.664  9.2 20.184  L 9.2 17.816000000000003  C 9.2 17.336000000000002  9.536 17.000000000000004  10 17.000000000000004  C 10.463999999999999 17.000000000000004  10.8 17.336000000000002  10.8 17.816000000000003  L 10.8 20.184  Z M 13.168 20.2  L 12.416 20.2  C 11.936 20.2  11.600000000000001 19.864  11.600000000000001 19.4  C 11.600000000000001 18.935999999999996  11.936 18.599999999999998  12.416 18.599999999999998  L 13.2 18.599999999999998  L 13.2 17.816  C 13.2 17.336  13.535999999999998 17  14 17  C 14.464000000000002 17  14.8 17.336  14.8 17.816  L 14.8 18.567999999999998  C 14.8 19.511999999999997  14.112000000000002 20.2  13.168 20.2  Z " fill-rule="evenodd" />
    </mask>
  </defs>
  <g>
    <path d="M 16.336000000000002 25.8  L 3.6639999999999997 25.8  C 1.7759999999999998 25.8  0.40000000000000036 24.424  0.40000000000000036 22.536  L 0.40000000000000036 3.464000000000002  C 0.40000000000000036 1.5760000000000023  1.7759999999999998 0.2000000000000024  3.6639999999999997 0.2000000000000024  L 11.472000000000001 0.2000000000000024  C 12.608 0.2000000000000024  13.632000000000001 0.6160000000000023  14.432000000000002 1.4480000000000022  L 18.432000000000002 5.544000000000002  C 19.200000000000003 6.344000000000003  19.6 7.320000000000002  19.6 8.424000000000003  L 19.6 22.536  C 19.6 24.424  18.224 25.8  16.336000000000002 25.8  Z M 2 22.535999999999998  C 2.0000000000000018 23.543999999999997  2.6560000000000024 24.2  3.6639999999999997 24  L 16.336 24  C 17.343999999999998 24.2  18 23.544  18 22.535999999999998  L 18 8.423999999999998  C 18 7.719999999999996  17.776 7.159999999999998  17.28 6.647999999999998  L 13.280000000000001 2.551999999999998  C 12.784000000000002 2.0399999999999974  12.208000000000002 1.799999999999998  11.472000000000001 1.799999999999998  L 3.6640000000000015 1.799999999999998  C 2.6560000000000024 1.799999999999998  2.0000000000000018 2.4559999999999977  2 3.4639999999999977  L 2 22.535999999999998  Z M 10.8 12.984  C 10.8 13.464  10.464000000000002 13.8  10 13.8  C 9.536 13.8  9.2 13.464000000000002  9.2 12.984  L 9.2 10.616  C 9.2 10.136  9.536 9.799999999999999  10 9.799999999999999  C 10.463999999999999 9.799999999999999  10.8 10.136  10.8 10.616  L 10.8 12.984  Z M 6.799999999999999 12.984000000000002  C 6.799999999999999 13.464000000000002  6.463999999999999 13.8  6 13.8  C 5.536 13.8  5.199999999999999 13.464000000000002  5.199999999999999 12.984  L 5.199999999999999 12.232  C 5.199999999999999 11.288  5.888 10.6  6.831999999999999 10.6  L 7.584 10.6  C 8.064 10.6  8.4 10.936  8.4 11.4  C 8.4 11.864  8.064 12.200000000000001  7.584 12.200000000000001  L 6.799999999999999 12.200000000000001  L 6.799999999999999 12.984000000000002  Z M 14.799999999999997 12.983999999999998  C 14.799999999999997 13.464  14.463999999999999 13.799999999999997  14 13.8  C 13.536000000000001 13.8  13.2 13.464000000000002  13.2 12.984  L 13.2 12.2  L 12.399999999999999 12.2  C 11.936 12.2  11.599999999999998 11.863999999999999  11.599999999999998 11.399999999999999  C 11.599999999999998 10.935999999999998  11.935999999999996 10.599999999999998  12.415999999999997 10.599999999999998  L 13.167999999999996 10.599999999999998  C 14.111999999999995 10.599999999999998  14.799999999999997 11.287999999999998  14.799999999999997 12.231999999999998  L 14.799999999999997 12.983999999999998  Z M 7.584 16.2  L 5.215999999999999 16.2  C 4.735999999999999 16.2  4.399999999999999 15.864  4.399999999999999 15.399999999999997  C 4.399999999999999 14.935999999999996  4.735999999999999 14.599999999999998  5.215999999999999 14.599999999999998  L 7.584 14.599999999999998  C 8.064 14.599999999999998  8.4 14.935999999999996  8.4 15.399999999999997  C 8.4 15.864  8.064 16.2  7.584 16.2  Z M 14.783999999999999 16.2  L 12.416 16.2  C 11.936 16.2  11.600000000000001 15.864  11.600000000000001 15.399999999999997  C 11.600000000000001 14.935999999999996  11.936 14.599999999999998  12.416 14.599999999999998  L 14.783999999999999 14.599999999999998  C 15.264 14.599999999999998  15.599999999999998 14.935999999999996  15.599999999999998 15.399999999999997  C 15.599999999999998 15.864  15.264 16.2  14.783999999999999 16.2  Z M 7.584000000000003 20.2  L 6.832000000000001 20.2  C 5.888000000000002 20.2  5.200000000000001 19.512  5.200000000000001 18.567999999999998  L 5.200000000000001 17.816  C 5.200000000000001 17.336  5.536000000000001 17  6.000000000000002 17  C 6.464000000000002 17  6.8000000000000025 17.336  6.8000000000000025 17.816  L 6.8000000000000025 18.599999999999998  L 7.600000000000003 18.599999999999998  C 8.064000000000004 18.599999999999998  8.400000000000004 18.935999999999996  8.400000000000004 19.4  C 8.400000000000004 19.864  8.064000000000004 20.2  7.584000000000003 20.2  Z M 10.8 20.184  C 10.8 20.664  10.464000000000002 21  10 21  C 9.536 21  9.2 20.664  9.2 20.184  L 9.2 17.816000000000003  C 9.2 17.336000000000002  9.536 17.000000000000004  10 17.000000000000004  C 10.463999999999999 17.000000000000004  10.8 17.336000000000002  10.8 17.816000000000003  L 10.8 20.184  Z M 13.168 20.2  L 12.416 20.2  C 11.936 20.2  11.600000000000001 19.864  11.600000000000001 19.4  C 11.600000000000001 18.935999999999996  11.936 18.599999999999998  12.416 18.599999999999998  L 13.2 18.599999999999998  L 13.2 17.816  C 13.2 17.336  13.535999999999998 17  14 17  C 14.464000000000002 17  14.8 17.336  14.8 17.816  L 14.8 18.567999999999998  C 14.8 19.511999999999997  14.112000000000002 20.2  13.168 20.2  Z " fill-rule="nonzero" fill="rgba(0, 0, 0, 1)" stroke="none" class="fill" />
    <path d="M 16.336000000000002 25.8  L 3.6639999999999997 25.8  C 1.7759999999999998 25.8  0.40000000000000036 24.424  0.40000000000000036 22.536  L 0.40000000000000036 3.464000000000002  C 0.40000000000000036 1.5760000000000023  1.7759999999999998 0.2000000000000024  3.6639999999999997 0.2000000000000024  L 11.472000000000001 0.2000000000000024  C 12.608 0.2000000000000024  13.632000000000001 0.6160000000000023  14.432000000000002 1.4480000000000022  L 18.432000000000002 5.544000000000002  C 19.200000000000003 6.344000000000003  19.6 7.320000000000002  19.6 8.424000000000003  L 19.6 22.536  C 19.6 24.424  18.224 25.8  16.336000000000002 25.8  Z " stroke-width="0" stroke-dasharray="0" stroke="rgba(255, 255, 255, 0)" fill="none" class="stroke" mask="url(#Clip217)" />
    <path d="M 2 22.535999999999998  C 2.0000000000000018 23.543999999999997  2.6560000000000024 24.2  3.6639999999999997 24  L 16.336 24  C 17.343999999999998 24.2  18 23.544  18 22.535999999999998  L 18 8.423999999999998  C 18 7.719999999999996  17.776 7.159999999999998  17.28 6.647999999999998  L 13.280000000000001 2.551999999999998  C 12.784000000000002 2.0399999999999974  12.208000000000002 1.799999999999998  11.472000000000001 1.799999999999998  L 3.6640000000000015 1.799999999999998  C 2.6560000000000024 1.799999999999998  2.0000000000000018 2.4559999999999977  2 3.4639999999999977  L 2 22.535999999999998  Z " stroke-width="0" stroke-dasharray="0" stroke="rgba(255, 255, 255, 0)" fill="none" class="stroke" mask="url(#Clip217)" />
    <path d="M 10.8 12.984  C 10.8 13.464  10.464000000000002 13.8  10 13.8  C 9.536 13.8  9.2 13.464000000000002  9.2 12.984  L 9.2 10.616  C 9.2 10.136  9.536 9.799999999999999  10 9.799999999999999  C 10.463999999999999 9.799999999999999  10.8 10.136  10.8 10.616  L 10.8 12.984  Z " stroke-width="0" stroke-dasharray="0" stroke="rgba(255, 255, 255, 0)" fill="none" class="stroke" mask="url(#Clip217)" />
    <path d="M 6.799999999999999 12.984000000000002  C 6.799999999999999 13.464000000000002  6.463999999999999 13.8  6 13.8  C 5.536 13.8  5.199999999999999 13.464000000000002  5.199999999999999 12.984  L 5.199999999999999 12.232  C 5.199999999999999 11.288  5.888 10.6  6.831999999999999 10.6  L 7.584 10.6  C 8.064 10.6  8.4 10.936  8.4 11.4  C 8.4 11.864  8.064 12.200000000000001  7.584 12.200000000000001  L 6.799999999999999 12.200000000000001  L 6.799999999999999 12.984000000000002  Z " stroke-width="0" stroke-dasharray="0" stroke="rgba(255, 255, 255, 0)" fill="none" class="stroke" mask="url(#Clip217)" />
    <path d="M 14.799999999999997 12.983999999999998  C 14.799999999999997 13.464  14.463999999999999 13.799999999999997  14 13.8  C 13.536000000000001 13.8  13.2 13.464000000000002  13.2 12.984  L 13.2 12.2  L 12.399999999999999 12.2  C 11.936 12.2  11.599999999999998 11.863999999999999  11.599999999999998 11.399999999999999  C 11.599999999999998 10.935999999999998  11.935999999999996 10.599999999999998  12.415999999999997 10.599999999999998  L 13.167999999999996 10.599999999999998  C 14.111999999999995 10.599999999999998  14.799999999999997 11.287999999999998  14.799999999999997 12.231999999999998  L 14.799999999999997 12.983999999999998  Z " stroke-width="0" stroke-dasharray="0" stroke="rgba(255, 255, 255, 0)" fill="none" class="stroke" mask="url(#Clip217)" />
    <path d="M 7.584 16.2  L 5.215999999999999 16.2  C 4.735999999999999 16.2  4.399999999999999 15.864  4.399999999999999 15.399999999999997  C 4.399999999999999 14.935999999999996  4.735999999999999 14.599999999999998  5.215999999999999 14.599999999999998  L 7.584 14.599999999999998  C 8.064 14.599999999999998  8.4 14.935999999999996  8.4 15.399999999999997  C 8.4 15.864  8.064 16.2  7.584 16.2  Z " stroke-width="0" stroke-dasharray="0" stroke="rgba(255, 255, 255, 0)" fill="none" class="stroke" mask="url(#Clip217)" />
    <path d="M 14.783999999999999 16.2  L 12.416 16.2  C 11.936 16.2  11.600000000000001 15.864  11.600000000000001 15.399999999999997  C 11.600000000000001 14.935999999999996  11.936 14.599999999999998  12.416 14.599999999999998  L 14.783999999999999 14.599999999999998  C 15.264 14.599999999999998  15.599999999999998 14.935999999999996  15.599999999999998 15.399999999999997  C 15.599999999999998 15.864  15.264 16.2  14.783999999999999 16.2  Z " stroke-width="0" stroke-dasharray="0" stroke="rgba(255, 255, 255, 0)" fill="none" class="stroke" mask="url(#Clip217)" />
    <path d="M 7.584000000000003 20.2  L 6.832000000000001 20.2  C 5.888000000000002 20.2  5.200000000000001 19.512  5.200000000000001 18.567999999999998  L 5.200000000000001 17.816  C 5.200000000000001 17.336  5.536000000000001 17  6.000000000000002 17  C 6.464000000000002 17  6.8000000000000025 17.336  6.8000000000000025 17.816  L 6.8000000000000025 18.599999999999998  L 7.600000000000003 18.599999999999998  C 8.064000000000004 18.599999999999998  8.400000000000004 18.935999999999996  8.400000000000004 19.4  C 8.400000000000004 19.864  8.064000000000004 20.2  7.584000000000003 20.2  Z " stroke-width="0" stroke-dasharray="0" stroke="rgba(255, 255, 255, 0)" fill="none" class="stroke" mask="url(#Clip217)" />
    <path d="M 10.8 20.184  C 10.8 20.664  10.464000000000002 21  10 21  C 9.536 21  9.2 20.664  9.2 20.184  L 9.2 17.816000000000003  C 9.2 17.336000000000002  9.536 17.000000000000004  10 17.000000000000004  C 10.463999999999999 17.000000000000004  10.8 17.336000000000002  10.8 17.816000000000003  L 10.8 20.184  Z " stroke-width="0" stroke-dasharray="0" stroke="rgba(255, 255, 255, 0)" fill="none" class="stroke" mask="url(#Clip217)" />
    <path d="M 13.168 20.2  L 12.416 20.2  C 11.936 20.2  11.600000000000001 19.864  11.600000000000001 19.4  C 11.600000000000001 18.935999999999996  11.936 18.599999999999998  12.416 18.599999999999998  L 13.2 18.599999999999998  L 13.2 17.816  C 13.2 17.336  13.535999999999998 17  14 17  C 14.464000000000002 17  14.8 17.336  14.8 17.816  L 14.8 18.567999999999998  C 14.8 19.511999999999997  14.112000000000002 20.2  13.168 20.2  Z " stroke-width="0" stroke-dasharray="0" stroke="rgba(255, 255, 255, 0)" fill="none" class="stroke" mask="url(#Clip217)" />
  </g>
</svg>