<?xml version="1.0" encoding="utf-8"?>
<svg version="1.1" xmlns:xlink="http://www.w3.org/1999/xlink" width="48px" height="22px" xmlns="http://www.w3.org/2000/svg">
  <defs>
    <pattern id="BGPattern" patternUnits="userSpaceOnUse" alignment="0 0" imageRepeat="None" />
    <mask fill="white" id="Clip7402">
      <path d="M 48 1.0420000000000016  C 48 0.9840000000000018  47.958 0.9440000000000008  47.903999999999996 0.9299999999999997  C 47.894 0.9260000000000002  47.885999999999996 0.9179999999999993  47.876 0.9179999999999993  C 47.858 0.9179999999999993  47.844 0.9299999999999997  47.83 0.936  C 17.573999999999998 3.9819999999999993  3.3519999999999994 17.14  0 20.375999999999998  L 0.44599999999999995 21.076  L 5.733999999999999 21.076  C 19.478 7.259999999999998  38.04599999999999 2.6739999999999995  47.864 1.1640000000000015  L 47.876 1.168000000000001  C 47.884 1.168000000000001  47.888 1.160000000000002  47.896 1.160000000000002  C 47.954 1.1480000000000015  48 1.1040000000000028  48 1.0420000000000016  Z M 6.6 8.015999999999998  L 0.7599999999999999 8.015999999999998  L 0.43999999999999995 8.619999999999997  L 6.93 13.352  C 8.245214510152508 12.588732186657094  9.587412607619196 11.87293767443952  10.953999999999999 11.205999999999994  L 6.6 8.015999999999998  Z M 23.699999999999996 20.536  L 15.183999999999996 14.3  C 14.111999999999997 15.09  13.015999999999998 15.936  11.835999999999997 16.926000000000002  L 17.54 21.082  L 23.453999999999997 21.082  L 23.699999999999996 20.536  Z " fill-rule="evenodd" />
    </mask>
  </defs>
  <g>
    <path d="M 48 1.0420000000000016  C 48 0.9840000000000018  47.958 0.9440000000000008  47.903999999999996 0.9299999999999997  C 47.894 0.9260000000000002  47.885999999999996 0.9179999999999993  47.876 0.9179999999999993  C 47.858 0.9179999999999993  47.844 0.9299999999999997  47.83 0.936  C 17.573999999999998 3.9819999999999993  3.3519999999999994 17.14  0 20.375999999999998  L 0.44599999999999995 21.076  L 5.733999999999999 21.076  C 19.478 7.259999999999998  38.04599999999999 2.6739999999999995  47.864 1.1640000000000015  L 47.876 1.168000000000001  C 47.884 1.168000000000001  47.888 1.160000000000002  47.896 1.160000000000002  C 47.954 1.1480000000000015  48 1.1040000000000028  48 1.0420000000000016  Z M 6.6 8.015999999999998  L 0.7599999999999999 8.015999999999998  L 0.43999999999999995 8.619999999999997  L 6.93 13.352  C 8.245214510152508 12.588732186657094  9.587412607619196 11.87293767443952  10.953999999999999 11.205999999999994  L 6.6 8.015999999999998  Z M 23.699999999999996 20.536  L 15.183999999999996 14.3  C 14.111999999999997 15.09  13.015999999999998 15.936  11.835999999999997 16.926000000000002  L 17.54 21.082  L 23.453999999999997 21.082  L 23.699999999999996 20.536  Z " fill-rule="nonzero" fill="rgba(0, 82, 136, 1)" stroke="none" class="fill" />
    <path d="M 48 1.0420000000000016  C 48 0.9840000000000018  47.958 0.9440000000000008  47.903999999999996 0.9299999999999997  C 47.894 0.9260000000000002  47.885999999999996 0.9179999999999993  47.876 0.9179999999999993  C 47.858 0.9179999999999993  47.844 0.9299999999999997  47.83 0.936  C 17.573999999999998 3.9819999999999993  3.3519999999999994 17.14  0 20.375999999999998  L 0.44599999999999995 21.076  L 5.733999999999999 21.076  C 19.478 7.259999999999998  38.04599999999999 2.6739999999999995  47.864 1.1640000000000015  L 47.876 1.168000000000001  C 47.884 1.168000000000001  47.888 1.160000000000002  47.896 1.160000000000002  C 47.954 1.1480000000000015  48 1.1040000000000028  48 1.0420000000000016  Z " stroke-width="0" stroke-dasharray="0" stroke="rgba(255, 255, 255, 0)" fill="none" class="stroke" mask="url(#Clip7402)" />
    <path d="M 6.6 8.015999999999998  L 0.7599999999999999 8.015999999999998  L 0.43999999999999995 8.619999999999997  L 6.93 13.352  C 8.245214510152508 12.588732186657094  9.587412607619196 11.87293767443952  10.953999999999999 11.205999999999994  L 6.6 8.015999999999998  Z " stroke-width="0" stroke-dasharray="0" stroke="rgba(255, 255, 255, 0)" fill="none" class="stroke" mask="url(#Clip7402)" />
    <path d="M 23.699999999999996 20.536  L 15.183999999999996 14.3  C 14.111999999999997 15.09  13.015999999999998 15.936  11.835999999999997 16.926000000000002  L 17.54 21.082  L 23.453999999999997 21.082  L 23.699999999999996 20.536  Z " stroke-width="0" stroke-dasharray="0" stroke="rgba(255, 255, 255, 0)" fill="none" class="stroke" mask="url(#Clip7402)" />
  </g>
</svg>