<?xml version="1.0" encoding="utf-8"?>
<svg version="1.1" xmlns:xlink="http://www.w3.org/1999/xlink" width="50px" height="50px" xmlns="http://www.w3.org/2000/svg">
  <defs>
    <pattern id="BGPattern" patternUnits="userSpaceOnUse" alignment="0 0" imageRepeat="None" />
    <mask fill="white" id="Clip1907">
      <path d="M 49.89278752436647 9.912280701754383  C 49.902534113060426 7.456140350877207  49.902534113060426 5  49.230019493177394 1.861598440545805  C 49.10331384015595 1.2670565302144325  48.63547758284599 0.7992202729044778  48.04093567251462 0.6725146198830316  C 44.902534113060426 0  42.44639376218322 0  40 0  C 29.94152046783626 0  23.9083820662768 5.380116959064338  19.405458089668628 13  L 9.24951267056531 13  C 7.47563352826512 12.47563352826512  5.857699805068222 13.479532163742702  5.068226120857702 15.058479532163743  L 0.2534113060428922 24.688109161793363  C -0.5263157894736707 26.247563352826518  0.6042884990253299 28.070175438596497  2.3489278752436746 28.070175438596497  L 11.61793372319687 28.070175438596497  C 11.042884990253413 29.31773879142301  10.458089668615969 30.555555555555543  9.863547758284597 31.744639376218313  C 9.561403508771917 32.348927875243646  9.678362573099406 33.07017543859649  10.155945419103318 33.54775828460038  L 16.35477582846005 39.74658869395711  C 16.832358674463933 40.22417153996102  17.55360623781675 40.34113060428851  18.15789473684211 40.03898635477583  C 19.346978557504883 39.44444444444446  20.584795321637415 38.86939571150097  21.832358674463933 38.29434697855751  L 21.832358674463933 47.56335282651071  C 21.832358674463933 49.298245614035096  23.664717348927866 50.428849902534125  25.214424951267063 49.65886939571152  L 34.834307992202724 44.84405458089668  C 36.42300194931772 44.05458089668616  37.417153996101376 42.426900584795334  37 40.6627680311891  L 37 30.48732943469787  C 44.493177387914216 25.97465886939571  49.89278752436647 19.92202729044834  49.89278752436647 9.912280701754383  Z M 43.664717348927866 10.916179337231966  C 43.664717348927866 13.499025341130618  41.56920077972708 15.594541910331372  38.98635477582846 15.594541910331372  C 36.40350877192981 15.594541910331372  34.307992202729054 13.499025341130618  34.307992202729054 10.916179337231966  C 34.307992202729054 8.333333333333343  36.40350877192981 6.23781676413256  38.98635477582846 6.23781676413256  C 41.56920077972708 6.23781676413256  43.664717348927866 8.333333333333343  43.664717348927866 10.916179337231966  Z " fill-rule="evenodd" />
    </mask>
  </defs>
  <g>
    <path d="M 49.89278752436647 9.912280701754383  C 49.902534113060426 7.456140350877207  49.902534113060426 5  49.230019493177394 1.861598440545805  C 49.10331384015595 1.2670565302144325  48.63547758284599 0.7992202729044778  48.04093567251462 0.6725146198830316  C 44.902534113060426 0  42.44639376218322 0  40 0  C 29.94152046783626 0  23.9083820662768 5.380116959064338  19.405458089668628 13  L 9.24951267056531 13  C 7.47563352826512 12.47563352826512  5.857699805068222 13.479532163742702  5.068226120857702 15.058479532163743  L 0.2534113060428922 24.688109161793363  C -0.5263157894736707 26.247563352826518  0.6042884990253299 28.070175438596497  2.3489278752436746 28.070175438596497  L 11.61793372319687 28.070175438596497  C 11.042884990253413 29.31773879142301  10.458089668615969 30.555555555555543  9.863547758284597 31.744639376218313  C 9.561403508771917 32.348927875243646  9.678362573099406 33.07017543859649  10.155945419103318 33.54775828460038  L 16.35477582846005 39.74658869395711  C 16.832358674463933 40.22417153996102  17.55360623781675 40.34113060428851  18.15789473684211 40.03898635477583  C 19.346978557504883 39.44444444444446  20.584795321637415 38.86939571150097  21.832358674463933 38.29434697855751  L 21.832358674463933 47.56335282651071  C 21.832358674463933 49.298245614035096  23.664717348927866 50.428849902534125  25.214424951267063 49.65886939571152  L 34.834307992202724 44.84405458089668  C 36.42300194931772 44.05458089668616  37.417153996101376 42.426900584795334  37 40.6627680311891  L 37 30.48732943469787  C 44.493177387914216 25.97465886939571  49.89278752436647 19.92202729044834  49.89278752436647 9.912280701754383  Z M 43.664717348927866 10.916179337231966  C 43.664717348927866 13.499025341130618  41.56920077972708 15.594541910331372  38.98635477582846 15.594541910331372  C 36.40350877192981 15.594541910331372  34.307992202729054 13.499025341130618  34.307992202729054 10.916179337231966  C 34.307992202729054 8.333333333333343  36.40350877192981 6.23781676413256  38.98635477582846 6.23781676413256  C 41.56920077972708 6.23781676413256  43.664717348927866 8.333333333333343  43.664717348927866 10.916179337231966  Z " fill-rule="nonzero" fill="rgba(0, 0, 0, 1)" stroke="none" class="fill" />
    <path d="M 49.89278752436647 9.912280701754383  C 49.902534113060426 7.456140350877207  49.902534113060426 5  49.230019493177394 1.861598440545805  C 49.10331384015595 1.2670565302144325  48.63547758284599 0.7992202729044778  48.04093567251462 0.6725146198830316  C 44.902534113060426 0  42.44639376218322 0  40 0  C 29.94152046783626 0  23.9083820662768 5.380116959064338  19.405458089668628 13  L 9.24951267056531 13  C 7.47563352826512 12.47563352826512  5.857699805068222 13.479532163742702  5.068226120857702 15.058479532163743  L 0.2534113060428922 24.688109161793363  C -0.5263157894736707 26.247563352826518  0.6042884990253299 28.070175438596497  2.3489278752436746 28.070175438596497  L 11.61793372319687 28.070175438596497  C 11.042884990253413 29.31773879142301  10.458089668615969 30.555555555555543  9.863547758284597 31.744639376218313  C 9.561403508771917 32.348927875243646  9.678362573099406 33.07017543859649  10.155945419103318 33.54775828460038  L 16.35477582846005 39.74658869395711  C 16.832358674463933 40.22417153996102  17.55360623781675 40.34113060428851  18.15789473684211 40.03898635477583  C 19.346978557504883 39.44444444444446  20.584795321637415 38.86939571150097  21.832358674463933 38.29434697855751  L 21.832358674463933 47.56335282651071  C 21.832358674463933 49.298245614035096  23.664717348927866 50.428849902534125  25.214424951267063 49.65886939571152  L 34.834307992202724 44.84405458089668  C 36.42300194931772 44.05458089668616  37.417153996101376 42.426900584795334  37 40.6627680311891  L 37 30.48732943469787  C 44.493177387914216 25.97465886939571  49.89278752436647 19.92202729044834  49.89278752436647 9.912280701754383  Z " stroke-width="0" stroke-dasharray="0" stroke="rgba(255, 255, 255, 0)" fill="none" class="stroke" mask="url(#Clip1907)" />
    <path d="M 43.664717348927866 10.916179337231966  C 43.664717348927866 13.499025341130618  41.56920077972708 15.594541910331372  38.98635477582846 15.594541910331372  C 36.40350877192981 15.594541910331372  34.307992202729054 13.499025341130618  34.307992202729054 10.916179337231966  C 34.307992202729054 8.333333333333343  36.40350877192981 6.23781676413256  38.98635477582846 6.23781676413256  C 41.56920077972708 6.23781676413256  43.664717348927866 8.333333333333343  43.664717348927866 10.916179337231966  Z " stroke-width="0" stroke-dasharray="0" stroke="rgba(255, 255, 255, 0)" fill="none" class="stroke" mask="url(#Clip1907)" />
  </g>
</svg>