<?xml version="1.0" encoding="utf-8"?>
<svg version="1.1" xmlns:xlink="http://www.w3.org/1999/xlink" width="14px" height="15px" xmlns="http://www.w3.org/2000/svg">
  <defs>
    <pattern id="BGPattern" patternUnits="userSpaceOnUse" alignment="0 0" imageRepeat="None" />
    <mask fill="white" id="Clip4174">
      <path d="M 1.490000000000002 13.900000000000002  C 1.3377723754340174 13.974296013528  1.1691666762829946 14.008705339885353  1 14  C 0.8205166552593699 13.999947212909557  0.6443556753901927 13.951589296867038  0.4900000000000002 13.86  C 0.18630054656734885 13.679935684156685  6.157844558174475E-05 13.353067291126646  0 13  L 0 1  C 6.157844558174475E-05 0.6469327088733543  0.18630054656734885 0.3200643158433163  0.4900000000000002 0.14000000000000057  C 0.7994010767585031 -0.03863279495408101  1.1805989232414973 -0.03863279495408101  1.4900000000000002 0.14000000000000057  L 12.490000000000002 6.140000000000001  C 12.813423197483296 6.314565349354556  13.015026316518487 6.652473639223535  13.015026316518487 7.020000000000003  C 13.015026316518487 7.387526360776469  12.813423197483292 7.725434650645448  12.490000000000002 7.900000000000002  L 1.490000000000002 13.900000000000002  Z M 9.91 7  L 2 2.6799999999999997  L 2 11.32  L 9.91 7  Z " fill-rule="evenodd" />
    </mask>
  </defs>
  <g transform="matrix(1 0 0 1 -11 -9 )">
    <path d="M 1.490000000000002 13.900000000000002  C 1.3377723754340174 13.974296013528  1.1691666762829946 14.008705339885353  1 14  C 0.8205166552593699 13.999947212909557  0.6443556753901927 13.951589296867038  0.4900000000000002 13.86  C 0.18630054656734885 13.679935684156685  6.157844558174475E-05 13.353067291126646  0 13  L 0 1  C 6.157844558174475E-05 0.6469327088733543  0.18630054656734885 0.3200643158433163  0.4900000000000002 0.14000000000000057  C 0.7994010767585031 -0.03863279495408101  1.1805989232414973 -0.03863279495408101  1.4900000000000002 0.14000000000000057  L 12.490000000000002 6.140000000000001  C 12.813423197483296 6.314565349354556  13.015026316518487 6.652473639223535  13.015026316518487 7.020000000000003  C 13.015026316518487 7.387526360776469  12.813423197483292 7.725434650645448  12.490000000000002 7.900000000000002  L 1.490000000000002 13.900000000000002  Z M 9.91 7  L 2 2.6799999999999997  L 2 11.32  L 9.91 7  Z " fill-rule="nonzero" fill="rgba(0, 0, 0, 1)" stroke="none" transform="matrix(1 0 0 1 11 9 )" class="fill" />
    <path d="M 1.490000000000002 13.900000000000002  C 1.3377723754340174 13.974296013528  1.1691666762829946 14.008705339885353  1 14  C 0.8205166552593699 13.999947212909557  0.6443556753901927 13.951589296867038  0.4900000000000002 13.86  C 0.18630054656734885 13.679935684156685  6.157844558174475E-05 13.353067291126646  0 13  L 0 1  C 6.157844558174475E-05 0.6469327088733543  0.18630054656734885 0.3200643158433163  0.4900000000000002 0.14000000000000057  C 0.7994010767585031 -0.03863279495408101  1.1805989232414973 -0.03863279495408101  1.4900000000000002 0.14000000000000057  L 12.490000000000002 6.140000000000001  C 12.813423197483296 6.314565349354556  13.015026316518487 6.652473639223535  13.015026316518487 7.020000000000003  C 13.015026316518487 7.387526360776469  12.813423197483292 7.725434650645448  12.490000000000002 7.900000000000002  L 1.490000000000002 13.900000000000002  Z " stroke-width="0" stroke-dasharray="0" stroke="rgba(255, 255, 255, 0)" fill="none" transform="matrix(1 0 0 1 11 9 )" class="stroke" mask="url(#Clip4174)" />
    <path d="M 9.91 7  L 2 2.6799999999999997  L 2 11.32  L 9.91 7  Z " stroke-width="0" stroke-dasharray="0" stroke="rgba(255, 255, 255, 0)" fill="none" transform="matrix(1 0 0 1 11 9 )" class="stroke" mask="url(#Clip4174)" />
  </g>
</svg>