<?xml version="1.0" encoding="utf-8"?>
<svg version="1.1" xmlns:xlink="http://www.w3.org/1999/xlink" width="50px" height="50px" xmlns="http://www.w3.org/2000/svg">
  <defs>
    <pattern id="BGPattern" patternUnits="userSpaceOnUse" alignment="0 0" imageRepeat="None" />
    <mask fill="white" id="Clip1924">
      <path d="M 50 6.25  L 43.75 0  L 31.25 9.375  L 31.25 15.435546875  L 23.1416015625 23.5439453125  C 23.8046875 23.958984375  24.4375 24.4287109375  25.003906250000004 24.99609375  C 25.570312499999996 25.5625  26.041015625000004 26.1953125  26.456054687500004 26.858398437499996  L 34.564453125 18.75  L 40.625 18.75  L 50 6.25  Z M 22.7939453125 27.206054687499996  C 19.951171875 24.36328125  15.342773437500002 24.36328125  12.5 27.206054687499996  L 1.06640625 38.6396484375  C -0.3544921875 40.060546875  -0.3544921875 42.365234375  1.06640625 43.787109375  L 6.212890625 48.93359375  C 7.634765625000001 50.35546875  9.9384765625 50.35546875  11.3603515625 48.93359375  L 22.7939453125 37.5  C 25.63671875 34.6572265625  25.63671875 30.048828125  22.7939453125 27.206054687499996  Z " fill-rule="evenodd" />
    </mask>
  </defs>
  <g>
    <path d="M 50 6.25  L 43.75 0  L 31.25 9.375  L 31.25 15.435546875  L 23.1416015625 23.5439453125  C 23.8046875 23.958984375  24.4375 24.4287109375  25.003906250000004 24.99609375  C 25.570312499999996 25.5625  26.041015625000004 26.1953125  26.456054687500004 26.858398437499996  L 34.564453125 18.75  L 40.625 18.75  L 50 6.25  Z M 22.7939453125 27.206054687499996  C 19.951171875 24.36328125  15.342773437500002 24.36328125  12.5 27.206054687499996  L 1.06640625 38.6396484375  C -0.3544921875 40.060546875  -0.3544921875 42.365234375  1.06640625 43.787109375  L 6.212890625 48.93359375  C 7.634765625000001 50.35546875  9.9384765625 50.35546875  11.3603515625 48.93359375  L 22.7939453125 37.5  C 25.63671875 34.6572265625  25.63671875 30.048828125  22.7939453125 27.206054687499996  Z " fill-rule="nonzero" fill="rgba(0, 0, 0, 1)" stroke="none" class="fill" />
    <path d="M 50 6.25  L 43.75 0  L 31.25 9.375  L 31.25 15.435546875  L 23.1416015625 23.5439453125  C 23.8046875 23.958984375  24.4375 24.4287109375  25.003906250000004 24.99609375  C 25.570312499999996 25.5625  26.041015625000004 26.1953125  26.456054687500004 26.858398437499996  L 34.564453125 18.75  L 40.625 18.75  L 50 6.25  Z " stroke-width="0" stroke-dasharray="0" stroke="rgba(255, 255, 255, 0)" fill="none" class="stroke" mask="url(#Clip1924)" />
    <path d="M 22.7939453125 27.206054687499996  C 19.951171875 24.36328125  15.342773437500002 24.36328125  12.5 27.206054687499996  L 1.06640625 38.6396484375  C -0.3544921875 40.060546875  -0.3544921875 42.365234375  1.06640625 43.787109375  L 6.212890625 48.93359375  C 7.634765625000001 50.35546875  9.9384765625 50.35546875  11.3603515625 48.93359375  L 22.7939453125 37.5  C 25.63671875 34.6572265625  25.63671875 30.048828125  22.7939453125 27.206054687499996  Z " stroke-width="0" stroke-dasharray="0" stroke="rgba(255, 255, 255, 0)" fill="none" class="stroke" mask="url(#Clip1924)" />
  </g>
</svg>