<?xml version="1.0" encoding="utf-8"?>
<svg version="1.1" xmlns:xlink="http://www.w3.org/1999/xlink" width="50px" height="50px" xmlns="http://www.w3.org/2000/svg">
  <defs>
    <pattern id="BGPattern" patternUnits="userSpaceOnUse" alignment="0 0" imageRepeat="None" />
    <mask fill="white" id="Clip1099">
      <path d="M 50 6.25  C 50 2.802734375  47.197265625 0  43.75 0  L 6.25 0  C 2.802734375 0  0 2.802734375  0 6.25  L 0 34.375  C 0 37.822265625  2.802734375 40.625  6.25 40.625  L 15.625 40.625  L 15.625 48.828125  C 15.625 49.521484375  16.19140625 50  16.796875 50  C 17.03125 50  17.275390625 49.931640625  17.490234375 49.765625  L 29.6875 40  L 43.75 40  C 47.197265625 40.625  50 37.822265625  50 34.375  L 50 6.25  Z M 45 6.25  L 45 34.375  C 45.3125 35.234375  44.609375 35.9375  43.75 36  L 28.125 36  L 26.875 36.875  L 20.3125 41.796875  L 20.3125 36  L 6.25 36  C 5.390625 35.9375  4.6875 35.234375  5 34.375  L 5 6.25  C 4.6875 5.390625  5.390625 4.6875  6.25 5  L 43.75 5  C 44.609375 4.6875  45.3125 5.390625  45 6.25  Z " fill-rule="evenodd" />
    </mask>
  </defs>
  <g>
    <path d="M 50 6.25  C 50 2.802734375  47.197265625 0  43.75 0  L 6.25 0  C 2.802734375 0  0 2.802734375  0 6.25  L 0 34.375  C 0 37.822265625  2.802734375 40.625  6.25 40.625  L 15.625 40.625  L 15.625 48.828125  C 15.625 49.521484375  16.19140625 50  16.796875 50  C 17.03125 50  17.275390625 49.931640625  17.490234375 49.765625  L 29.6875 40  L 43.75 40  C 47.197265625 40.625  50 37.822265625  50 34.375  L 50 6.25  Z M 45 6.25  L 45 34.375  C 45.3125 35.234375  44.609375 35.9375  43.75 36  L 28.125 36  L 26.875 36.875  L 20.3125 41.796875  L 20.3125 36  L 6.25 36  C 5.390625 35.9375  4.6875 35.234375  5 34.375  L 5 6.25  C 4.6875 5.390625  5.390625 4.6875  6.25 5  L 43.75 5  C 44.609375 4.6875  45.3125 5.390625  45 6.25  Z " fill-rule="nonzero" fill="rgba(0, 0, 0, 1)" stroke="none" class="fill" />
    <path d="M 50 6.25  C 50 2.802734375  47.197265625 0  43.75 0  L 6.25 0  C 2.802734375 0  0 2.802734375  0 6.25  L 0 34.375  C 0 37.822265625  2.802734375 40.625  6.25 40.625  L 15.625 40.625  L 15.625 48.828125  C 15.625 49.521484375  16.19140625 50  16.796875 50  C 17.03125 50  17.275390625 49.931640625  17.490234375 49.765625  L 29.6875 40  L 43.75 40  C 47.197265625 40.625  50 37.822265625  50 34.375  L 50 6.25  Z " stroke-width="0" stroke-dasharray="0" stroke="rgba(255, 255, 255, 0)" fill="none" class="stroke" mask="url(#Clip1099)" />
    <path d="M 45 6.25  L 45 34.375  C 45.3125 35.234375  44.609375 35.9375  43.75 36  L 28.125 36  L 26.875 36.875  L 20.3125 41.796875  L 20.3125 36  L 6.25 36  C 5.390625 35.9375  4.6875 35.234375  5 34.375  L 5 6.25  C 4.6875 5.390625  5.390625 4.6875  6.25 5  L 43.75 5  C 44.609375 4.6875  45.3125 5.390625  45 6.25  Z " stroke-width="0" stroke-dasharray="0" stroke="rgba(255, 255, 255, 0)" fill="none" class="stroke" mask="url(#Clip1099)" />
  </g>
</svg>