<?xml version="1.0" encoding="utf-8"?>
<svg version="1.1" xmlns:xlink="http://www.w3.org/1999/xlink" width="10px" height="10px" xmlns="http://www.w3.org/2000/svg">
  <defs>
    <pattern id="BGPattern" patternUnits="userSpaceOnUse" alignment="0 0" imageRepeat="None" />
    <mask fill="white" id="Clip50">
      <path d="M 7.751999999999999 0.5519999999999996  C 7.991999999999997 0.3119999999999994  8.296 0.1999999999999993  8.600000000000001 0.1999999999999993  C 9.272000000000002 0.1999999999999993  9.8 0.7279999999999998  9.8 1.4159999999999986  C 9.8 1.7039999999999988  9.688000000000002 2.007999999999999  9.448 2.2479999999999993  L 4.295999999999999 7.399999999999999  L 7.815999999999999 7.399999999999999  C 8.488 7.399999999999999  9 7.927999999999997  9 8.616  C 9 9.304000000000002  8.488 9.8  7.815999999999999 9.8  L 1.3999999999999986 9.8  C 0.6479999999999979 9.8  0.1999999999999993 9.368000000000002  0.1999999999999993 8.600000000000001  L 0.1999999999999993 2.184000000000001  C 0.1999999999999993 1.5600000000000005  0.7119999999999997 1.0000000000000018  1.3519999999999985 1.0000000000000018  C 1.9919999999999973 1.0000000000000018  2.599999999999998 1.4960000000000022  2.599999999999998 2.168000000000001  L 2.599999999999998 5.704000000000001  L 7.751999999999999 0.5519999999999996  Z " fill-rule="evenodd" />
    </mask>
  </defs>
  <g>
    <path d="M 7.751999999999999 0.5519999999999996  C 7.991999999999997 0.3119999999999994  8.296 0.1999999999999993  8.600000000000001 0.1999999999999993  C 9.272000000000002 0.1999999999999993  9.8 0.7279999999999998  9.8 1.4159999999999986  C 9.8 1.7039999999999988  9.688000000000002 2.007999999999999  9.448 2.2479999999999993  L 4.295999999999999 7.399999999999999  L 7.815999999999999 7.399999999999999  C 8.488 7.399999999999999  9 7.927999999999997  9 8.616  C 9 9.304000000000002  8.488 9.8  7.815999999999999 9.8  L 1.3999999999999986 9.8  C 0.6479999999999979 9.8  0.1999999999999993 9.368000000000002  0.1999999999999993 8.600000000000001  L 0.1999999999999993 2.184000000000001  C 0.1999999999999993 1.5600000000000005  0.7119999999999997 1.0000000000000018  1.3519999999999985 1.0000000000000018  C 1.9919999999999973 1.0000000000000018  2.599999999999998 1.4960000000000022  2.599999999999998 2.168000000000001  L 2.599999999999998 5.704000000000001  L 7.751999999999999 0.5519999999999996  Z " fill-rule="nonzero" fill="rgba(0, 0, 0, 1)" stroke="none" class="fill" />
    <path d="M 7.751999999999999 0.5519999999999996  C 7.991999999999997 0.3119999999999994  8.296 0.1999999999999993  8.600000000000001 0.1999999999999993  C 9.272000000000002 0.1999999999999993  9.8 0.7279999999999998  9.8 1.4159999999999986  C 9.8 1.7039999999999988  9.688000000000002 2.007999999999999  9.448 2.2479999999999993  L 4.295999999999999 7.399999999999999  L 7.815999999999999 7.399999999999999  C 8.488 7.399999999999999  9 7.927999999999997  9 8.616  C 9 9.304000000000002  8.488 9.8  7.815999999999999 9.8  L 1.3999999999999986 9.8  C 0.6479999999999979 9.8  0.1999999999999993 9.368000000000002  0.1999999999999993 8.600000000000001  L 0.1999999999999993 2.184000000000001  C 0.1999999999999993 1.5600000000000005  0.7119999999999997 1.0000000000000018  1.3519999999999985 1.0000000000000018  C 1.9919999999999973 1.0000000000000018  2.599999999999998 1.4960000000000022  2.599999999999998 2.168000000000001  L 2.599999999999998 5.704000000000001  L 7.751999999999999 0.5519999999999996  Z " stroke-width="0" stroke-dasharray="0" stroke="rgba(255, 255, 255, 0)" fill="none" class="stroke" mask="url(#Clip50)" />
  </g>
</svg>