<?xml version="1.0" encoding="utf-8"?>
<svg version="1.1" xmlns:xlink="http://www.w3.org/1999/xlink" width="50px" height="35px" xmlns="http://www.w3.org/2000/svg">
  <defs>
    <pattern id="BGPattern" patternUnits="userSpaceOnUse" alignment="0 0" imageRepeat="None" />
    <mask fill="white" id="Clip1293">
      <path d="M 31.25 2.5  C 31.25 1.1195312499999943  30.130468750000006 0  28.749999999999996 0  L 21.25 0  C 19.869531249999994 0  18.75 1.1195312499999943  18.75 2.5  L 18.75 10  C 18.75 11.380468750000006  19.869531249999994 12.5  21.25 12.5  L 28.749999999999996 12.5  C 30.130468750000006 12.5  31.25 11.380468750000006  31.25 10  L 31.25 2.5  Z M 16.25 10  L 16.25 4.375  L 9.62890625 4.375  C 8.88671875 2.5437499999999886  7.0968750000000105 1.25  5 1.25  C 2.239062500000003 1.25  0 3.4882812500000004  0 6.25  C 0 9.01171875  2.239062500000003 11.25  5 11.25  C 7.0968750000000105 11.25  8.88671875 9.956250000000011  9.62890625 8.125  L 15.857812499999993 8.125  C 11.532031249999989 10.665625000000006  8.368750000000006 14.946875000000006  7.300000000000012 20  L 11.159375000000011 20  C 12.042187500000011 16.74921875000001  14.032031249999989 13.967968750000011  16.709374999999994 12.065625000000013  C 16.420312499999994 11.434374999999989  16.25 10.73828125  16.25 10  Z M 15 25  C 15 23.619531249999994  13.880468750000006 22.5  12.5 22.5  L 5 22.5  C 3.6195312499999943 22.5  2.5 23.619531249999994  2.5 25  L 2.5 32.5  C 2.5 33.880468750000006  3.6195312499999943 35  5 35  L 12.5 35  C 13.880468750000006 35  15 33.880468750000006  15 32.5  L 15 25  Z M 50 6.25  C 50 3.4882812500000004  47.76093750000001 1.25  45 1.25  C 42.90312499999999 1.25  41.11328125 2.5437499999999886  40.37109375 4.375  L 33.75 4.375  L 33.75 10  C 33.75 10.73828125  33.57890624999999 11.434374999999989  33.290625000000006 12.065625000000013  C 35.96796875000001 13.967968750000011  37.95781249999999 16.74921875000001  38.84062499999999 20  L 42.69999999999999 20  C 41.63125000000002 14.946875000000006  38.46796875000001 10.665625000000006  34.142187500000006 8.125  L 40.37109375 8.125  C 41.11328125 9.956250000000011  42.90312499999999 11.25  45 11.25  C 47.76093750000001 11.25  50 9.01171875  50 6.25  Z M 47.5 25  C 47.5 23.619531249999994  46.380468750000006 22.5  45 22.5  L 37.5 22.5  C 36.119531249999994 22.5  35 23.619531249999994  35 25  L 35 32.5  C 35 33.880468750000006  36.119531249999994 35  37.5 35  L 45 35  C 46.380468750000006 35  47.5 33.880468750000006  47.5 32.5  L 47.5 25  Z " fill-rule="evenodd" />
    </mask>
  </defs>
  <g>
    <path d="M 31.25 2.5  C 31.25 1.1195312499999943  30.130468750000006 0  28.749999999999996 0  L 21.25 0  C 19.869531249999994 0  18.75 1.1195312499999943  18.75 2.5  L 18.75 10  C 18.75 11.380468750000006  19.869531249999994 12.5  21.25 12.5  L 28.749999999999996 12.5  C 30.130468750000006 12.5  31.25 11.380468750000006  31.25 10  L 31.25 2.5  Z M 16.25 10  L 16.25 4.375  L 9.62890625 4.375  C 8.88671875 2.5437499999999886  7.0968750000000105 1.25  5 1.25  C 2.239062500000003 1.25  0 3.4882812500000004  0 6.25  C 0 9.01171875  2.239062500000003 11.25  5 11.25  C 7.0968750000000105 11.25  8.88671875 9.956250000000011  9.62890625 8.125  L 15.857812499999993 8.125  C 11.532031249999989 10.665625000000006  8.368750000000006 14.946875000000006  7.300000000000012 20  L 11.159375000000011 20  C 12.042187500000011 16.74921875000001  14.032031249999989 13.967968750000011  16.709374999999994 12.065625000000013  C 16.420312499999994 11.434374999999989  16.25 10.73828125  16.25 10  Z M 15 25  C 15 23.619531249999994  13.880468750000006 22.5  12.5 22.5  L 5 22.5  C 3.6195312499999943 22.5  2.5 23.619531249999994  2.5 25  L 2.5 32.5  C 2.5 33.880468750000006  3.6195312499999943 35  5 35  L 12.5 35  C 13.880468750000006 35  15 33.880468750000006  15 32.5  L 15 25  Z M 50 6.25  C 50 3.4882812500000004  47.76093750000001 1.25  45 1.25  C 42.90312499999999 1.25  41.11328125 2.5437499999999886  40.37109375 4.375  L 33.75 4.375  L 33.75 10  C 33.75 10.73828125  33.57890624999999 11.434374999999989  33.290625000000006 12.065625000000013  C 35.96796875000001 13.967968750000011  37.95781249999999 16.74921875000001  38.84062499999999 20  L 42.69999999999999 20  C 41.63125000000002 14.946875000000006  38.46796875000001 10.665625000000006  34.142187500000006 8.125  L 40.37109375 8.125  C 41.11328125 9.956250000000011  42.90312499999999 11.25  45 11.25  C 47.76093750000001 11.25  50 9.01171875  50 6.25  Z M 47.5 25  C 47.5 23.619531249999994  46.380468750000006 22.5  45 22.5  L 37.5 22.5  C 36.119531249999994 22.5  35 23.619531249999994  35 25  L 35 32.5  C 35 33.880468750000006  36.119531249999994 35  37.5 35  L 45 35  C 46.380468750000006 35  47.5 33.880468750000006  47.5 32.5  L 47.5 25  Z " fill-rule="nonzero" fill="rgba(0, 0, 0, 1)" stroke="none" class="fill" />
    <path d="M 31.25 2.5  C 31.25 1.1195312499999943  30.130468750000006 0  28.749999999999996 0  L 21.25 0  C 19.869531249999994 0  18.75 1.1195312499999943  18.75 2.5  L 18.75 10  C 18.75 11.380468750000006  19.869531249999994 12.5  21.25 12.5  L 28.749999999999996 12.5  C 30.130468750000006 12.5  31.25 11.380468750000006  31.25 10  L 31.25 2.5  Z " stroke-width="0" stroke-dasharray="0" stroke="rgba(255, 255, 255, 0)" fill="none" class="stroke" mask="url(#Clip1293)" />
    <path d="M 16.25 10  L 16.25 4.375  L 9.62890625 4.375  C 8.88671875 2.5437499999999886  7.0968750000000105 1.25  5 1.25  C 2.239062500000003 1.25  0 3.4882812500000004  0 6.25  C 0 9.01171875  2.239062500000003 11.25  5 11.25  C 7.0968750000000105 11.25  8.88671875 9.956250000000011  9.62890625 8.125  L 15.857812499999993 8.125  C 11.532031249999989 10.665625000000006  8.368750000000006 14.946875000000006  7.300000000000012 20  L 11.159375000000011 20  C 12.042187500000011 16.74921875000001  14.032031249999989 13.967968750000011  16.709374999999994 12.065625000000013  C 16.420312499999994 11.434374999999989  16.25 10.73828125  16.25 10  Z " stroke-width="0" stroke-dasharray="0" stroke="rgba(255, 255, 255, 0)" fill="none" class="stroke" mask="url(#Clip1293)" />
    <path d="M 15 25  C 15 23.619531249999994  13.880468750000006 22.5  12.5 22.5  L 5 22.5  C 3.6195312499999943 22.5  2.5 23.619531249999994  2.5 25  L 2.5 32.5  C 2.5 33.880468750000006  3.6195312499999943 35  5 35  L 12.5 35  C 13.880468750000006 35  15 33.880468750000006  15 32.5  L 15 25  Z " stroke-width="0" stroke-dasharray="0" stroke="rgba(255, 255, 255, 0)" fill="none" class="stroke" mask="url(#Clip1293)" />
    <path d="M 50 6.25  C 50 3.4882812500000004  47.76093750000001 1.25  45 1.25  C 42.90312499999999 1.25  41.11328125 2.5437499999999886  40.37109375 4.375  L 33.75 4.375  L 33.75 10  C 33.75 10.73828125  33.57890624999999 11.434374999999989  33.290625000000006 12.065625000000013  C 35.96796875000001 13.967968750000011  37.95781249999999 16.74921875000001  38.84062499999999 20  L 42.69999999999999 20  C 41.63125000000002 14.946875000000006  38.46796875000001 10.665625000000006  34.142187500000006 8.125  L 40.37109375 8.125  C 41.11328125 9.956250000000011  42.90312499999999 11.25  45 11.25  C 47.76093750000001 11.25  50 9.01171875  50 6.25  Z " stroke-width="0" stroke-dasharray="0" stroke="rgba(255, 255, 255, 0)" fill="none" class="stroke" mask="url(#Clip1293)" />
    <path d="M 47.5 25  C 47.5 23.619531249999994  46.380468750000006 22.5  45 22.5  L 37.5 22.5  C 36.119531249999994 22.5  35 23.619531249999994  35 25  L 35 32.5  C 35 33.880468750000006  36.119531249999994 35  37.5 35  L 45 35  C 46.380468750000006 35  47.5 33.880468750000006  47.5 32.5  L 47.5 25  Z " stroke-width="0" stroke-dasharray="0" stroke="rgba(255, 255, 255, 0)" fill="none" class="stroke" mask="url(#Clip1293)" />
  </g>
</svg>