<?xml version="1.0" encoding="utf-8"?>
<svg version="1.1" xmlns:xlink="http://www.w3.org/1999/xlink" width="8px" height="6px" xmlns="http://www.w3.org/2000/svg">
  <defs>
    <pattern id="BGPattern" patternUnits="userSpaceOnUse" alignment="0 0" imageRepeat="None" />
    <mask fill="white" id="Clip4643">
      <path d="M 4 3.1700000000000017  L 1.4100000000000001 0.5799999999999983  L 0 2  L 4 6  L 8 2  L 6.59 0.5899999999999999  L 4 3.1700000000000017  Z " fill-rule="evenodd" />
    </mask>
  </defs>
  <g transform="matrix(1 0 0 1 -12 -25 )">
    <path d="M 4 3.1700000000000017  L 1.4100000000000001 0.5799999999999983  L 0 2  L 4 6  L 8 2  L 6.59 0.5899999999999999  L 4 3.1700000000000017  Z " fill-rule="nonzero" fill="rgba(0, 0, 0, 1)" stroke="none" transform="matrix(1 0 0 1 12 25 )" class="fill" />
    <path d="M 4 3.1700000000000017  L 1.4100000000000001 0.5799999999999983  L 0 2  L 4 6  L 8 2  L 6.59 0.5899999999999999  L 4 3.1700000000000017  Z " stroke-width="0" stroke-dasharray="0" stroke="rgba(255, 255, 255, 0)" fill="none" transform="matrix(1 0 0 1 12 25 )" class="stroke" mask="url(#Clip4643)" />
  </g>
</svg>