<?xml version="1.0" encoding="utf-8"?>
<svg version="1.1" xmlns:xlink="http://www.w3.org/1999/xlink" width="15px" height="16px" xmlns="http://www.w3.org/2000/svg">
  <defs>
    <pattern id="BGPattern" patternUnits="userSpaceOnUse" alignment="0 0" imageRepeat="None" />
    <mask fill="white" id="Clip4644">
      <path d="M 10.89 10.469999999999999  C 11.610709988700243 9.456338479727414  11.998596396488761 8.243756646370507  12 7  C 12.000001282524401 6.9983984234409995  12.000001923786684 6.996796846434542  12.000001923786684 6.995195269362025  C 12.000001923786684 3.6814867703772656  9.313710422771443 0.995195269362025  6.000001923786684 0.995195269362025  C 2.6862934248019243 0.995195269362025  0 3.6814867703772656  0 6.995195269362025  C 0 10.308903768346784  2.6862934248019243 12.995195269362025  6.000001923786684 12.995195269362025  C 7.243235237334105 12.995195269362025  8.455769282593558 12.609002867715642  9.469999999999999 11.89  L 13.29 15.71  L 14.71 14.29  L 10.89 10.469999999999999  Z M 10 7  C 10 9.209138999323173  8.209138999323173 11  6 11  C 3.790861000676827 11  2 9.209138999323173  2 7  C 2 4.790861000676827  3.790861000676827 3  6 3  C 8.209138999323173 3  10 4.790861000676827  10 7  Z " fill-rule="evenodd" />
    </mask>
  </defs>
  <g transform="matrix(1 0 0 1 -10 -9 )">
    <path d="M 10.89 10.469999999999999  C 11.610709988700243 9.456338479727414  11.998596396488761 8.243756646370507  12 7  C 12.000001282524401 6.9983984234409995  12.000001923786684 6.996796846434542  12.000001923786684 6.995195269362025  C 12.000001923786684 3.6814867703772656  9.313710422771443 0.995195269362025  6.000001923786684 0.995195269362025  C 2.6862934248019243 0.995195269362025  0 3.6814867703772656  0 6.995195269362025  C 0 10.308903768346784  2.6862934248019243 12.995195269362025  6.000001923786684 12.995195269362025  C 7.243235237334105 12.995195269362025  8.455769282593558 12.609002867715642  9.469999999999999 11.89  L 13.29 15.71  L 14.71 14.29  L 10.89 10.469999999999999  Z M 10 7  C 10 9.209138999323173  8.209138999323173 11  6 11  C 3.790861000676827 11  2 9.209138999323173  2 7  C 2 4.790861000676827  3.790861000676827 3  6 3  C 8.209138999323173 3  10 4.790861000676827  10 7  Z " fill-rule="nonzero" fill="rgba(0, 0, 0, 1)" stroke="none" transform="matrix(1 0 0 1 10 9 )" class="fill" />
    <path d="M 10.89 10.469999999999999  C 11.610709988700243 9.456338479727414  11.998596396488761 8.243756646370507  12 7  C 12.000001282524401 6.9983984234409995  12.000001923786684 6.996796846434542  12.000001923786684 6.995195269362025  C 12.000001923786684 3.6814867703772656  9.313710422771443 0.995195269362025  6.000001923786684 0.995195269362025  C 2.6862934248019243 0.995195269362025  0 3.6814867703772656  0 6.995195269362025  C 0 10.308903768346784  2.6862934248019243 12.995195269362025  6.000001923786684 12.995195269362025  C 7.243235237334105 12.995195269362025  8.455769282593558 12.609002867715642  9.469999999999999 11.89  L 13.29 15.71  L 14.71 14.29  L 10.89 10.469999999999999  Z " stroke-width="0" stroke-dasharray="0" stroke="rgba(255, 255, 255, 0)" fill="none" transform="matrix(1 0 0 1 10 9 )" class="stroke" mask="url(#Clip4644)" />
    <path d="M 10 7  C 10 9.209138999323173  8.209138999323173 11  6 11  C 3.790861000676827 11  2 9.209138999323173  2 7  C 2 4.790861000676827  3.790861000676827 3  6 3  C 8.209138999323173 3  10 4.790861000676827  10 7  Z " stroke-width="0" stroke-dasharray="0" stroke="rgba(255, 255, 255, 0)" fill="none" transform="matrix(1 0 0 1 10 9 )" class="stroke" mask="url(#Clip4644)" />
  </g>
</svg>