<?xml version="1.0" encoding="utf-8"?>
<svg version="1.1" xmlns:xlink="http://www.w3.org/1999/xlink" width="23px" height="18px" xmlns="http://www.w3.org/2000/svg">
  <defs>
    <pattern id="BGPattern" patternUnits="userSpaceOnUse" alignment="0 0" imageRepeat="None" />
    <mask fill="white" id="Clip6301">
      <path d="M 7.5 5.5013406755281276  C 7.699240891287361 5.5013406755281276  7.89029360548475 5.422062551031452  8.031 5.281000000000001  C 8.172062551031452 5.14029360548475  8.251340675528127 4.949240891287362  8.251340675528127 4.75  C 8.251340675528127 4.550759108712638  8.172062551031452 4.35970639451525  8.031 4.218999999999999  L 5.031000000000001 1.2189999999999999  C 4.89029360548475 1.0779374489685476  4.699240891287362 0.9986593244718716  4.5 0.9986593244718716  C 4.300759108712638 0.9986593244718716  4.10970639451525 1.0779374489685476  3.969 1.2189999999999999  L 0.9689999999999999 4.218999999999999  C 0.8281700438952019 4.359829956104797  0.7490525983798861 4.550836366088187  0.7490525983798861 4.75  C 0.7490525983798861 5.164736797839849  1.0852632021601512 5.500947401620113  1.4999999999999996 5.500947401620113  C 1.6991636339118126 5.500947401620113  1.890170043895202 5.421829956104799  2.0309999999999997 5.281000000000001  L 4.5 2.8104999999999993  L 6.968999999999999 5.281000000000001  C 7.10970639451525 5.422062551031452  7.300759108712637 5.5013406755281276  7.5 5.5013406755281276  Z M 11.25 13  C 10.835786437626904 13  10.5 12.664213562373096  10.5 12.25  C 10.5 11.835786437626904  10.835786437626904 11.5  11.25 11.5  L 15.750000000000002 11.5  C 16.164213562373096 11.5  16.5 11.835786437626904  16.5 12.25  C 16.5 12.664213562373096  16.164213562373096 13  15.750000000000002 13  L 11.25 13  Z M 11.25 8.5  C 10.835786437626904 8.5  10.5 8.164213562373096  10.5 7.75  C 10.5 7.335786437626904  10.835786437626904 7  11.25 7  L 18.75 7  C 19.164213562373096 7  19.5 7.335786437626904  19.5 7.75  C 19.5 8.164213562373096  19.164213562373096 8.5  18.75 8.5  L 11.25 8.5  Z M 11.25 4  C 10.835786437626904 4  10.5 3.664213562373095  10.5 3.25  C 10.5 2.835786437626905  10.835786437626904 2.5  11.25 2.5  L 21.75 2.5  C 22.164213562373096 2.5  22.5 2.835786437626905  22.5 3.25  C 22.5 3.664213562373095  22.164213562373096 4  21.75 4  L 11.25 4  Z M 11.25 17.5  C 10.835786437626904 17.5  10.5 17.164213562373096  10.5 16.75  C 10.5 16.335786437626904  10.835786437626904 16  11.25 16  L 12.75 16  C 13.164213562373096 16  13.500000000000002 16.335786437626904  13.500000000000002 16.75  C 13.500000000000002 17.164213562373096  13.164213562373096 17.5  12.75 17.5  L 11.25 17.5  Z " fill-rule="evenodd" />
    </mask>
  </defs>
  <g>
    <path d="M 7.5 5.5013406755281276  C 7.699240891287361 5.5013406755281276  7.89029360548475 5.422062551031452  8.031 5.281000000000001  C 8.172062551031452 5.14029360548475  8.251340675528127 4.949240891287362  8.251340675528127 4.75  C 8.251340675528127 4.550759108712638  8.172062551031452 4.35970639451525  8.031 4.218999999999999  L 5.031000000000001 1.2189999999999999  C 4.89029360548475 1.0779374489685476  4.699240891287362 0.9986593244718716  4.5 0.9986593244718716  C 4.300759108712638 0.9986593244718716  4.10970639451525 1.0779374489685476  3.969 1.2189999999999999  L 0.9689999999999999 4.218999999999999  C 0.8281700438952019 4.359829956104797  0.7490525983798861 4.550836366088187  0.7490525983798861 4.75  C 0.7490525983798861 5.164736797839849  1.0852632021601512 5.500947401620113  1.4999999999999996 5.500947401620113  C 1.6991636339118126 5.500947401620113  1.890170043895202 5.421829956104799  2.0309999999999997 5.281000000000001  L 4.5 2.8104999999999993  L 6.968999999999999 5.281000000000001  C 7.10970639451525 5.422062551031452  7.300759108712637 5.5013406755281276  7.5 5.5013406755281276  Z M 11.25 13  C 10.835786437626904 13  10.5 12.664213562373096  10.5 12.25  C 10.5 11.835786437626904  10.835786437626904 11.5  11.25 11.5  L 15.750000000000002 11.5  C 16.164213562373096 11.5  16.5 11.835786437626904  16.5 12.25  C 16.5 12.664213562373096  16.164213562373096 13  15.750000000000002 13  L 11.25 13  Z M 11.25 8.5  C 10.835786437626904 8.5  10.5 8.164213562373096  10.5 7.75  C 10.5 7.335786437626904  10.835786437626904 7  11.25 7  L 18.75 7  C 19.164213562373096 7  19.5 7.335786437626904  19.5 7.75  C 19.5 8.164213562373096  19.164213562373096 8.5  18.75 8.5  L 11.25 8.5  Z M 11.25 4  C 10.835786437626904 4  10.5 3.664213562373095  10.5 3.25  C 10.5 2.835786437626905  10.835786437626904 2.5  11.25 2.5  L 21.75 2.5  C 22.164213562373096 2.5  22.5 2.835786437626905  22.5 3.25  C 22.5 3.664213562373095  22.164213562373096 4  21.75 4  L 11.25 4  Z M 11.25 17.5  C 10.835786437626904 17.5  10.5 17.164213562373096  10.5 16.75  C 10.5 16.335786437626904  10.835786437626904 16  11.25 16  L 12.75 16  C 13.164213562373096 16  13.500000000000002 16.335786437626904  13.500000000000002 16.75  C 13.500000000000002 17.164213562373096  13.164213562373096 17.5  12.75 17.5  L 11.25 17.5  Z " fill-rule="nonzero" fill="rgba(0, 0, 0, 1)" stroke="none" class="fill" />
    <path d="M 7.5 5.5013406755281276  C 7.699240891287361 5.5013406755281276  7.89029360548475 5.422062551031452  8.031 5.281000000000001  C 8.172062551031452 5.14029360548475  8.251340675528127 4.949240891287362  8.251340675528127 4.75  C 8.251340675528127 4.550759108712638  8.172062551031452 4.35970639451525  8.031 4.218999999999999  L 5.031000000000001 1.2189999999999999  C 4.89029360548475 1.0779374489685476  4.699240891287362 0.9986593244718716  4.5 0.9986593244718716  C 4.300759108712638 0.9986593244718716  4.10970639451525 1.0779374489685476  3.969 1.2189999999999999  L 0.9689999999999999 4.218999999999999  C 0.8281700438952019 4.359829956104797  0.7490525983798861 4.550836366088187  0.7490525983798861 4.75  C 0.7490525983798861 5.164736797839849  1.0852632021601512 5.500947401620113  1.4999999999999996 5.500947401620113  C 1.6991636339118126 5.500947401620113  1.890170043895202 5.421829956104799  2.0309999999999997 5.281000000000001  L 4.5 2.8104999999999993  L 6.968999999999999 5.281000000000001  C 7.10970639451525 5.422062551031452  7.300759108712637 5.5013406755281276  7.5 5.5013406755281276  Z " stroke-width="0" stroke-dasharray="0" stroke="rgba(255, 255, 255, 0)" fill="none" class="stroke" mask="url(#Clip6301)" />
    <path d="M 11.25 13  C 10.835786437626904 13  10.5 12.664213562373096  10.5 12.25  C 10.5 11.835786437626904  10.835786437626904 11.5  11.25 11.5  L 15.750000000000002 11.5  C 16.164213562373096 11.5  16.5 11.835786437626904  16.5 12.25  C 16.5 12.664213562373096  16.164213562373096 13  15.750000000000002 13  L 11.25 13  Z " stroke-width="0" stroke-dasharray="0" stroke="rgba(255, 255, 255, 0)" fill="none" class="stroke" mask="url(#Clip6301)" />
    <path d="M 11.25 8.5  C 10.835786437626904 8.5  10.5 8.164213562373096  10.5 7.75  C 10.5 7.335786437626904  10.835786437626904 7  11.25 7  L 18.75 7  C 19.164213562373096 7  19.5 7.335786437626904  19.5 7.75  C 19.5 8.164213562373096  19.164213562373096 8.5  18.75 8.5  L 11.25 8.5  Z " stroke-width="0" stroke-dasharray="0" stroke="rgba(255, 255, 255, 0)" fill="none" class="stroke" mask="url(#Clip6301)" />
    <path d="M 11.25 4  C 10.835786437626904 4  10.5 3.664213562373095  10.5 3.25  C 10.5 2.835786437626905  10.835786437626904 2.5  11.25 2.5  L 21.75 2.5  C 22.164213562373096 2.5  22.5 2.835786437626905  22.5 3.25  C 22.5 3.664213562373095  22.164213562373096 4  21.75 4  L 11.25 4  Z " stroke-width="0" stroke-dasharray="0" stroke="rgba(255, 255, 255, 0)" fill="none" class="stroke" mask="url(#Clip6301)" />
    <path d="M 11.25 17.5  C 10.835786437626904 17.5  10.5 17.164213562373096  10.5 16.75  C 10.5 16.335786437626904  10.835786437626904 16  11.25 16  L 12.75 16  C 13.164213562373096 16  13.500000000000002 16.335786437626904  13.500000000000002 16.75  C 13.500000000000002 17.164213562373096  13.164213562373096 17.5  12.75 17.5  L 11.25 17.5  Z " stroke-width="0" stroke-dasharray="0" stroke="rgba(255, 255, 255, 0)" fill="none" class="stroke" mask="url(#Clip6301)" />
  </g>
</svg>