<?xml version="1.0" encoding="utf-8"?>
<svg version="1.1" xmlns:xlink="http://www.w3.org/1999/xlink" width="3px" height="17px" xmlns="http://www.w3.org/2000/svg">
  <defs>
    <pattern id="BGPattern" patternUnits="userSpaceOnUse" alignment="0 0" imageRepeat="None" />
    <mask fill="white" id="Clip6300">
      <path d="M 0.75 15.75  C 0.75 16.164213562373096  1.085786437626905 16.5  1.5 16.5  C 1.914213562373095 16.5  2.25 16.164213562373096  2.25 15.75  L 2.25 0.75  C 2.25 0.3357864376269051  1.914213562373095 0  1.5 0  C 1.085786437626905 0  0.75 0.3357864376269051  0.75 0.75  L 0.75 15.75  Z " fill-rule="evenodd" />
    </mask>
  </defs>
  <g transform="matrix(1 0 0 1 -3 -1 )">
    <path d="M 0.75 15.75  C 0.75 16.164213562373096  1.085786437626905 16.5  1.5 16.5  C 1.914213562373095 16.5  2.25 16.164213562373096  2.25 15.75  L 2.25 0.75  C 2.25 0.3357864376269051  1.914213562373095 0  1.5 0  C 1.085786437626905 0  0.75 0.3357864376269051  0.75 0.75  L 0.75 15.75  Z " fill-rule="nonzero" fill="rgba(0, 0, 0, 1)" stroke="none" transform="matrix(1 0 0 1 3 1 )" class="fill" />
    <path d="M 0.75 15.75  C 0.75 16.164213562373096  1.085786437626905 16.5  1.5 16.5  C 1.914213562373095 16.5  2.25 16.164213562373096  2.25 15.75  L 2.25 0.75  C 2.25 0.3357864376269051  1.914213562373095 0  1.5 0  C 1.085786437626905 0  0.75 0.3357864376269051  0.75 0.75  L 0.75 15.75  Z " stroke-width="0" stroke-dasharray="0" stroke="rgba(255, 255, 255, 0)" fill="none" transform="matrix(1 0 0 1 3 1 )" class="stroke" mask="url(#Clip6300)" />
  </g>
</svg>