<?xml version="1.0" encoding="utf-8"?>
<svg version="1.1" xmlns:xlink="http://www.w3.org/1999/xlink" width="30px" height="30px" xmlns="http://www.w3.org/2000/svg">
  <defs>
    <pattern id="BGPattern" patternUnits="userSpaceOnUse" alignment="0 0" imageRepeat="None" />
    <mask fill="white" id="Clip108">
      <path d="M 0.5999999999999979 14.999999999999998  C 0.5999999999999979 7.047999999999998  7.047999999999998 0.5999999999999979  15 0.6000000000000001  C 22.951999999999998 0.6000000000000001  29.4 7.048  29.4 15  C 29.4 22.951999999999998  22.951999999999998 29.4  14.999999999999998 29.4  C 7.047999999999998 29.4  0.5999999999999979 22.951999999999998  0.5999999999999979 14.999999999999998  Z M 3 15  C 3 21.624  8.376000000000001 27  15 27  C 21.624 27  27 21.624  27 15  C 27 8.376000000000001  21.624 3  15 3  C 8.376000000000001 3  3 8.376000000000001  3 15  Z M 17.448 9.751999999999997  C 17.688 9.975999999999997  17.8 10.295999999999998  17.8 10.6  C 17.8 10.904  17.672 11.224  17.448 11.448  L 13.896 15  L 17.448 18.552  C 17.688 18.791999999999998  17.8 19.096  17.8 19.4  C 17.8 19.703999999999997  17.672 20.023999999999997  17.448 20.247999999999998  C 17.208000000000002 20.487999999999996  16.904 20.599999999999998  16.6 20.599999999999998  C 16.296000000000003 20.599999999999998  15.976000000000003 20.488  15.752000000000004 20.247999999999998  L 11.352000000000002 15.847999999999999  C 11.128000000000002 15.608  11.000000000000002 15.304  11.000000000000002 14.999999999999998  C 11.000000000000002 14.695999999999998  11.112000000000002 14.391999999999998  11.352000000000002 14.151999999999997  L 15.752000000000004 9.751999999999997  C 15.976000000000003 9.527999999999997  16.296000000000003 9.399999999999997  16.6 9.399999999999997  C 16.904 9.399999999999997  17.208000000000002 9.527999999999997  17.448 9.751999999999997  Z " fill-rule="evenodd" />
    </mask>
  </defs>
  <g>
    <path d="M 0.5999999999999979 14.999999999999998  C 0.5999999999999979 7.047999999999998  7.047999999999998 0.5999999999999979  15 0.6000000000000001  C 22.951999999999998 0.6000000000000001  29.4 7.048  29.4 15  C 29.4 22.951999999999998  22.951999999999998 29.4  14.999999999999998 29.4  C 7.047999999999998 29.4  0.5999999999999979 22.951999999999998  0.5999999999999979 14.999999999999998  Z M 3 15  C 3 21.624  8.376000000000001 27  15 27  C 21.624 27  27 21.624  27 15  C 27 8.376000000000001  21.624 3  15 3  C 8.376000000000001 3  3 8.376000000000001  3 15  Z M 17.448 9.751999999999997  C 17.688 9.975999999999997  17.8 10.295999999999998  17.8 10.6  C 17.8 10.904  17.672 11.224  17.448 11.448  L 13.896 15  L 17.448 18.552  C 17.688 18.791999999999998  17.8 19.096  17.8 19.4  C 17.8 19.703999999999997  17.672 20.023999999999997  17.448 20.247999999999998  C 17.208000000000002 20.487999999999996  16.904 20.599999999999998  16.6 20.599999999999998  C 16.296000000000003 20.599999999999998  15.976000000000003 20.488  15.752000000000004 20.247999999999998  L 11.352000000000002 15.847999999999999  C 11.128000000000002 15.608  11.000000000000002 15.304  11.000000000000002 14.999999999999998  C 11.000000000000002 14.695999999999998  11.112000000000002 14.391999999999998  11.352000000000002 14.151999999999997  L 15.752000000000004 9.751999999999997  C 15.976000000000003 9.527999999999997  16.296000000000003 9.399999999999997  16.6 9.399999999999997  C 16.904 9.399999999999997  17.208000000000002 9.527999999999997  17.448 9.751999999999997  Z " fill-rule="nonzero" fill="rgba(0, 0, 0, 1)" stroke="none" class="fill" />
    <path d="M 0.5999999999999979 14.999999999999998  C 0.5999999999999979 7.047999999999998  7.047999999999998 0.5999999999999979  15 0.6000000000000001  C 22.951999999999998 0.6000000000000001  29.4 7.048  29.4 15  C 29.4 22.951999999999998  22.951999999999998 29.4  14.999999999999998 29.4  C 7.047999999999998 29.4  0.5999999999999979 22.951999999999998  0.5999999999999979 14.999999999999998  Z " stroke-width="0" stroke-dasharray="0" stroke="rgba(255, 255, 255, 0)" fill="none" class="stroke" mask="url(#Clip108)" />
    <path d="M 3 15  C 3 21.624  8.376000000000001 27  15 27  C 21.624 27  27 21.624  27 15  C 27 8.376000000000001  21.624 3  15 3  C 8.376000000000001 3  3 8.376000000000001  3 15  Z " stroke-width="0" stroke-dasharray="0" stroke="rgba(255, 255, 255, 0)" fill="none" class="stroke" mask="url(#Clip108)" />
    <path d="M 17.448 9.751999999999997  C 17.688 9.975999999999997  17.8 10.295999999999998  17.8 10.6  C 17.8 10.904  17.672 11.224  17.448 11.448  L 13.896 15  L 17.448 18.552  C 17.688 18.791999999999998  17.8 19.096  17.8 19.4  C 17.8 19.703999999999997  17.672 20.023999999999997  17.448 20.247999999999998  C 17.208000000000002 20.487999999999996  16.904 20.599999999999998  16.6 20.599999999999998  C 16.296000000000003 20.599999999999998  15.976000000000003 20.488  15.752000000000004 20.247999999999998  L 11.352000000000002 15.847999999999999  C 11.128000000000002 15.608  11.000000000000002 15.304  11.000000000000002 14.999999999999998  C 11.000000000000002 14.695999999999998  11.112000000000002 14.391999999999998  11.352000000000002 14.151999999999997  L 15.752000000000004 9.751999999999997  C 15.976000000000003 9.527999999999997  16.296000000000003 9.399999999999997  16.6 9.399999999999997  C 16.904 9.399999999999997  17.208000000000002 9.527999999999997  17.448 9.751999999999997  Z " stroke-width="0" stroke-dasharray="0" stroke="rgba(255, 255, 255, 0)" fill="none" class="stroke" mask="url(#Clip108)" />
  </g>
</svg>