<?xml version="1.0" encoding="utf-8"?>
<svg version="1.1" xmlns:xlink="http://www.w3.org/1999/xlink" width="50px" height="50px" xmlns="http://www.w3.org/2000/svg">
  <defs>
    <pattern id="BGPattern" patternUnits="userSpaceOnUse" alignment="0 0" imageRepeat="None" />
    <mask fill="white" id="Clip1779">
      <path d="M 13 28.125  C 12.5 29.8505859375  13.899414062500002 31.25  15.625 31.25  L 16.796875 31.25  L 16.796875 32.8125  C 16.796875 33.67578125  17.49609375 34.375  18.359375 34.375  L 22.265625 34.375  C 23.12890625 34.375  23.828125 33.67578125  23.828125 32.8125  L 23.828125 31.25  L 25 31.25  C 26.7255859375 31.25  28.125 29.8505859375  28 28.125  L 28 6.25  C 28.125 4.5244140625  26.7255859375 3.125  25 3.125  L 25 1.5625  C 25 0.69921875  24.30078125 0  23.4375 0  L 17.1875 0  C 16.32421875 0  15.625 0.69921875  15.625 1.5625  L 15.625 3.125  C 13.899414062500002 3.125  12.5 4.5244140625  13 6.25  L 13 28.125  Z M 50 48.4375  C 50 45.8486328125  47.9013671875 43.75  45.3125 43.75  L 45.1865234375 43.75  C 48.16796875 40.4287109375  50 36.0546875  50 31.25  C 50 20.91015625  41.58984375 12.5  31.25 12.5  L 31.25 18.75  C 38.142578125 18.75  43.75 24.357421875  43.75 31.25  C 43.75 38.142578125  38.142578125 43.75  31.25 43  L 4.6875 43  C 2.0986328125 43.75  0 45.8486328125  0 48.4375  C 0 49.30078125  0.69921875 50  1.5625 50  L 48.4375 50  C 49.30078125 50  50 49.30078125  50 48.4375  Z M 9.375 39.84375  C 9.375 40.275390625  9.724609375 40.625  10.15625 40  L 30.46875 40  C 30.900390625 40.625  31.25 40.275390625  31.25 39.84375  L 31.25 38.28125  C 31.25 37.849609375  30.900390625 37.5  30.46875 37  L 10.15625 37  C 9.724609375 37.5  9.375 37.849609375  9.375 38.28125  L 9.375 39.84375  Z " fill-rule="evenodd" />
    </mask>
  </defs>
  <g>
    <path d="M 13 28.125  C 12.5 29.8505859375  13.899414062500002 31.25  15.625 31.25  L 16.796875 31.25  L 16.796875 32.8125  C 16.796875 33.67578125  17.49609375 34.375  18.359375 34.375  L 22.265625 34.375  C 23.12890625 34.375  23.828125 33.67578125  23.828125 32.8125  L 23.828125 31.25  L 25 31.25  C 26.7255859375 31.25  28.125 29.8505859375  28 28.125  L 28 6.25  C 28.125 4.5244140625  26.7255859375 3.125  25 3.125  L 25 1.5625  C 25 0.69921875  24.30078125 0  23.4375 0  L 17.1875 0  C 16.32421875 0  15.625 0.69921875  15.625 1.5625  L 15.625 3.125  C 13.899414062500002 3.125  12.5 4.5244140625  13 6.25  L 13 28.125  Z M 50 48.4375  C 50 45.8486328125  47.9013671875 43.75  45.3125 43.75  L 45.1865234375 43.75  C 48.16796875 40.4287109375  50 36.0546875  50 31.25  C 50 20.91015625  41.58984375 12.5  31.25 12.5  L 31.25 18.75  C 38.142578125 18.75  43.75 24.357421875  43.75 31.25  C 43.75 38.142578125  38.142578125 43.75  31.25 43  L 4.6875 43  C 2.0986328125 43.75  0 45.8486328125  0 48.4375  C 0 49.30078125  0.69921875 50  1.5625 50  L 48.4375 50  C 49.30078125 50  50 49.30078125  50 48.4375  Z M 9.375 39.84375  C 9.375 40.275390625  9.724609375 40.625  10.15625 40  L 30.46875 40  C 30.900390625 40.625  31.25 40.275390625  31.25 39.84375  L 31.25 38.28125  C 31.25 37.849609375  30.900390625 37.5  30.46875 37  L 10.15625 37  C 9.724609375 37.5  9.375 37.849609375  9.375 38.28125  L 9.375 39.84375  Z " fill-rule="nonzero" fill="rgba(0, 0, 0, 1)" stroke="none" class="fill" />
    <path d="M 13 28.125  C 12.5 29.8505859375  13.899414062500002 31.25  15.625 31.25  L 16.796875 31.25  L 16.796875 32.8125  C 16.796875 33.67578125  17.49609375 34.375  18.359375 34.375  L 22.265625 34.375  C 23.12890625 34.375  23.828125 33.67578125  23.828125 32.8125  L 23.828125 31.25  L 25 31.25  C 26.7255859375 31.25  28.125 29.8505859375  28 28.125  L 28 6.25  C 28.125 4.5244140625  26.7255859375 3.125  25 3.125  L 25 1.5625  C 25 0.69921875  24.30078125 0  23.4375 0  L 17.1875 0  C 16.32421875 0  15.625 0.69921875  15.625 1.5625  L 15.625 3.125  C 13.899414062500002 3.125  12.5 4.5244140625  13 6.25  L 13 28.125  Z " stroke-width="0" stroke-dasharray="0" stroke="rgba(255, 255, 255, 0)" fill="none" class="stroke" mask="url(#Clip1779)" />
    <path d="M 50 48.4375  C 50 45.8486328125  47.9013671875 43.75  45.3125 43.75  L 45.1865234375 43.75  C 48.16796875 40.4287109375  50 36.0546875  50 31.25  C 50 20.91015625  41.58984375 12.5  31.25 12.5  L 31.25 18.75  C 38.142578125 18.75  43.75 24.357421875  43.75 31.25  C 43.75 38.142578125  38.142578125 43.75  31.25 43  L 4.6875 43  C 2.0986328125 43.75  0 45.8486328125  0 48.4375  C 0 49.30078125  0.69921875 50  1.5625 50  L 48.4375 50  C 49.30078125 50  50 49.30078125  50 48.4375  Z " stroke-width="0" stroke-dasharray="0" stroke="rgba(255, 255, 255, 0)" fill="none" class="stroke" mask="url(#Clip1779)" />
    <path d="M 9.375 39.84375  C 9.375 40.275390625  9.724609375 40.625  10.15625 40  L 30.46875 40  C 30.900390625 40.625  31.25 40.275390625  31.25 39.84375  L 31.25 38.28125  C 31.25 37.849609375  30.900390625 37.5  30.46875 37  L 10.15625 37  C 9.724609375 37.5  9.375 37.849609375  9.375 38.28125  L 9.375 39.84375  Z " stroke-width="0" stroke-dasharray="0" stroke="rgba(255, 255, 255, 0)" fill="none" class="stroke" mask="url(#Clip1779)" />
  </g>
</svg>