<?xml version="1.0" encoding="utf-8"?>
<svg version="1.1" xmlns:xlink="http://www.w3.org/1999/xlink" width="28px" height="20px" xmlns="http://www.w3.org/2000/svg">
  <defs>
    <pattern id="BGPattern" patternUnits="userSpaceOnUse" alignment="0 0" imageRepeat="None" />
    <mask fill="white" id="Clip3348">
      <path d="M 28 18  C 28 19.104569499661586  27.104569499661586 20  26 20  L 2 20  C 0.895430500338413 20  0 19.104569499661586  0 18  L 0 2  C 0 0.8954305003384135  0.895430500338413 0  2 0  L 26 0  C 27.104569499661586 0  28 0.8954305003384135  28 2  L 28 18  Z M 26 2  L 2 2  L 2 18  L 26 18  L 26 2  Z " fill-rule="evenodd" />
    </mask>
  </defs>
  <g transform="matrix(1 0 0 1 -2 -6 )">
    <path d="M 28 18  C 28 19.104569499661586  27.104569499661586 20  26 20  L 2 20  C 0.895430500338413 20  0 19.104569499661586  0 18  L 0 2  C 0 0.8954305003384135  0.895430500338413 0  2 0  L 26 0  C 27.104569499661586 0  28 0.8954305003384135  28 2  L 28 18  Z M 26 2  L 2 2  L 2 18  L 26 18  L 26 2  Z " fill-rule="nonzero" fill="rgba(0, 0, 0, 1)" stroke="none" transform="matrix(1 0 0 1 2 6 )" class="fill" />
    <path d="M 28 18  C 28 19.104569499661586  27.104569499661586 20  26 20  L 2 20  C 0.895430500338413 20  0 19.104569499661586  0 18  L 0 2  C 0 0.8954305003384135  0.895430500338413 0  2 0  L 26 0  C 27.104569499661586 0  28 0.8954305003384135  28 2  L 28 18  Z " stroke-width="0" stroke-dasharray="0" stroke="rgba(255, 255, 255, 0)" fill="none" transform="matrix(1 0 0 1 2 6 )" class="stroke" mask="url(#Clip3348)" />
    <path d="M 26 2  L 2 2  L 2 18  L 26 18  L 26 2  Z " stroke-width="0" stroke-dasharray="0" stroke="rgba(255, 255, 255, 0)" fill="none" transform="matrix(1 0 0 1 2 6 )" class="stroke" mask="url(#Clip3348)" />
  </g>
</svg>