<?xml version="1.0" encoding="utf-8"?>
<svg version="1.1" xmlns:xlink="http://www.w3.org/1999/xlink" width="22px" height="22px" xmlns="http://www.w3.org/2000/svg">
  <defs>
    <pattern id="BGPattern" patternUnits="userSpaceOnUse" alignment="0 0" imageRepeat="None" />
    <mask fill="white" id="Clip6072">
      <path d="M 13.212499999999995 0.3020000000000027  C 13.353058304689483 0.16179656973809964  13.543471319212141 0.08304217846243711  13.741999999999997 0.08299999999999996  C 13.941048295483375 0.08264450544841084  14.132073899493545 0.16142907659384798  14.272999999999998 0.30200000000000005  L 21.697999999999997 7.727  C 21.990786453749642 8.01987488861436  21.990786453749642 8.494625111385641  21.697999999999997 8.787500000000001  C 20.977999999999994 9.5075  20.089999999999996 9.669500000000001  19.443499999999997 9.669500000000001  C 19.177999999999997 9.669500000000001  18.940999999999995 9.642500000000002  18.753499999999995 9.611  L 14.052499999999997 14.312000000000003  C 14.176252280022933 14.810614389524552  14.256552804904869 15.3190170876833  14.292499999999995 15.831499999999998  C 14.361499999999994 16.8845  14.244499999999995 18.362  13.212499999999995 19.394  C 12.919625111385635 19.686786453749647  12.444874888614354 19.686786453749647  12.151999999999994 19.394  L 7.908499999999993 15.152000000000001  L 3.135499999999993 19.925  C 2.8429999999999924 20.2175  1.306999999999992 21.278  1.0144999999999924 20.985500000000002  C 0.7219999999999922 20.693  1.7824999999999922 19.155500000000004  2.074999999999992 18.864500000000003  L 6.847999999999992 14.091500000000003  L 2.6059999999999928 9.848000000000003  C 2.3132135462503447 9.555125111385642  2.3132135462503456 9.080374888614362  2.6059999999999928 8.787500000000001  C 3.637999999999993 7.755500000000001  5.115499999999992 7.637  6.168499999999992 7.707500000000004  C 6.6809871758383155 7.743409733282412  7.189393100403027 7.823710767764499  7.687999999999992 7.947500000000002  L 12.388999999999996 3.248000000000003  C 12.34976255877023 3.019575072518063  12.329692650342139 2.7882693778843413  12.328999999999994 2.5565000000000024  C 12.328999999999994 1.9115000000000029  12.490999999999994 1.0235000000000025  13.212499999999995 0.3020000000000027  Z M 13.924999999999999 3.248  L 13.924999999999999 3.2510000000000003  L 13.924999999999999 3.248  Z M 13.9235 3.2465  L 13.924999999999999 3.248  L 13.924999999999999 3.2510000000000003  C 14.013339159191805 3.5200982180184233  13.942552604917344 3.816009223592001  13.741999999999997 4.016  L 8.4395 9.317  C 8.238568866681609 9.517070937104023  7.941983597874151 9.586719141129254  7.673 9.497  L 7.67 9.497  L 7.649000000000001 9.491000000000001  C 7.50629534688812 9.448250736606594  7.3622166864928715 9.410229979002292  7.216999999999999 9.377000000000002  C 6.839658509868471 9.288978531937566  6.455973291490352 9.230798812549512  6.069499999999999 9.203000000000003  C 5.4365000000000006 9.161000000000003  4.8155 9.215000000000002  4.307 9.428000000000003  L 12.572 17.691500000000005  C 12.783500000000002 17.181500000000003  12.837499999999999 16.562000000000005  12.795499999999999 15.928999999999998  C 12.757287682427116 15.393093797290035  12.660716223271208 14.862956724632092  12.507499999999999 14.348000000000003  L 12.5015 14.328500000000004  L 12.5015 14.327000000000002  C 12.411159728312592 14.057572266323012  12.480850048516134 13.760226900121221  12.681499999999998 13.559000000000001  L 17.9855 8.256500000000003  C 18.19415805601 8.046573069560454  18.506765246255593 7.978998207007364  18.783499999999997 8.084000000000001  L 18.9275 8.117  C 19.057999999999996 8.142500000000002  19.2395 8.168000000000001  19.443499999999997 8.168000000000001  C 19.6145 8.168000000000001  19.7885 8.151500000000002  19.958 8.108  L 13.8905 2.042  C 13.847 2.2115  13.830499999999999 2.387  13.830499999999999 2.5564999999999998  C 13.831233528267973 2.7895744810672793  13.862499584573083 3.02154844720197  13.9235 3.2465  Z " fill-rule="evenodd" />
    </mask>
  </defs>
  <g>
    <path d="M 13.212499999999995 0.3020000000000027  C 13.353058304689483 0.16179656973809964  13.543471319212141 0.08304217846243711  13.741999999999997 0.08299999999999996  C 13.941048295483375 0.08264450544841084  14.132073899493545 0.16142907659384798  14.272999999999998 0.30200000000000005  L 21.697999999999997 7.727  C 21.990786453749642 8.01987488861436  21.990786453749642 8.494625111385641  21.697999999999997 8.787500000000001  C 20.977999999999994 9.5075  20.089999999999996 9.669500000000001  19.443499999999997 9.669500000000001  C 19.177999999999997 9.669500000000001  18.940999999999995 9.642500000000002  18.753499999999995 9.611  L 14.052499999999997 14.312000000000003  C 14.176252280022933 14.810614389524552  14.256552804904869 15.3190170876833  14.292499999999995 15.831499999999998  C 14.361499999999994 16.8845  14.244499999999995 18.362  13.212499999999995 19.394  C 12.919625111385635 19.686786453749647  12.444874888614354 19.686786453749647  12.151999999999994 19.394  L 7.908499999999993 15.152000000000001  L 3.135499999999993 19.925  C 2.8429999999999924 20.2175  1.306999999999992 21.278  1.0144999999999924 20.985500000000002  C 0.7219999999999922 20.693  1.7824999999999922 19.155500000000004  2.074999999999992 18.864500000000003  L 6.847999999999992 14.091500000000003  L 2.6059999999999928 9.848000000000003  C 2.3132135462503447 9.555125111385642  2.3132135462503456 9.080374888614362  2.6059999999999928 8.787500000000001  C 3.637999999999993 7.755500000000001  5.115499999999992 7.637  6.168499999999992 7.707500000000004  C 6.6809871758383155 7.743409733282412  7.189393100403027 7.823710767764499  7.687999999999992 7.947500000000002  L 12.388999999999996 3.248000000000003  C 12.34976255877023 3.019575072518063  12.329692650342139 2.7882693778843413  12.328999999999994 2.5565000000000024  C 12.328999999999994 1.9115000000000029  12.490999999999994 1.0235000000000025  13.212499999999995 0.3020000000000027  Z M 13.924999999999999 3.248  L 13.924999999999999 3.2510000000000003  L 13.924999999999999 3.248  Z M 13.9235 3.2465  L 13.924999999999999 3.248  L 13.924999999999999 3.2510000000000003  C 14.013339159191805 3.5200982180184233  13.942552604917344 3.816009223592001  13.741999999999997 4.016  L 8.4395 9.317  C 8.238568866681609 9.517070937104023  7.941983597874151 9.586719141129254  7.673 9.497  L 7.67 9.497  L 7.649000000000001 9.491000000000001  C 7.50629534688812 9.448250736606594  7.3622166864928715 9.410229979002292  7.216999999999999 9.377000000000002  C 6.839658509868471 9.288978531937566  6.455973291490352 9.230798812549512  6.069499999999999 9.203000000000003  C 5.4365000000000006 9.161000000000003  4.8155 9.215000000000002  4.307 9.428000000000003  L 12.572 17.691500000000005  C 12.783500000000002 17.181500000000003  12.837499999999999 16.562000000000005  12.795499999999999 15.928999999999998  C 12.757287682427116 15.393093797290035  12.660716223271208 14.862956724632092  12.507499999999999 14.348000000000003  L 12.5015 14.328500000000004  L 12.5015 14.327000000000002  C 12.411159728312592 14.057572266323012  12.480850048516134 13.760226900121221  12.681499999999998 13.559000000000001  L 17.9855 8.256500000000003  C 18.19415805601 8.046573069560454  18.506765246255593 7.978998207007364  18.783499999999997 8.084000000000001  L 18.9275 8.117  C 19.057999999999996 8.142500000000002  19.2395 8.168000000000001  19.443499999999997 8.168000000000001  C 19.6145 8.168000000000001  19.7885 8.151500000000002  19.958 8.108  L 13.8905 2.042  C 13.847 2.2115  13.830499999999999 2.387  13.830499999999999 2.5564999999999998  C 13.831233528267973 2.7895744810672793  13.862499584573083 3.02154844720197  13.9235 3.2465  Z " fill-rule="nonzero" fill="rgba(0, 0, 0, 1)" stroke="none" class="fill" />
    <path d="M 13.212499999999995 0.3020000000000027  C 13.353058304689483 0.16179656973809964  13.543471319212141 0.08304217846243711  13.741999999999997 0.08299999999999996  C 13.941048295483375 0.08264450544841084  14.132073899493545 0.16142907659384798  14.272999999999998 0.30200000000000005  L 21.697999999999997 7.727  C 21.990786453749642 8.01987488861436  21.990786453749642 8.494625111385641  21.697999999999997 8.787500000000001  C 20.977999999999994 9.5075  20.089999999999996 9.669500000000001  19.443499999999997 9.669500000000001  C 19.177999999999997 9.669500000000001  18.940999999999995 9.642500000000002  18.753499999999995 9.611  L 14.052499999999997 14.312000000000003  C 14.176252280022933 14.810614389524552  14.256552804904869 15.3190170876833  14.292499999999995 15.831499999999998  C 14.361499999999994 16.8845  14.244499999999995 18.362  13.212499999999995 19.394  C 12.919625111385635 19.686786453749647  12.444874888614354 19.686786453749647  12.151999999999994 19.394  L 7.908499999999993 15.152000000000001  L 3.135499999999993 19.925  C 2.8429999999999924 20.2175  1.306999999999992 21.278  1.0144999999999924 20.985500000000002  C 0.7219999999999922 20.693  1.7824999999999922 19.155500000000004  2.074999999999992 18.864500000000003  L 6.847999999999992 14.091500000000003  L 2.6059999999999928 9.848000000000003  C 2.3132135462503447 9.555125111385642  2.3132135462503456 9.080374888614362  2.6059999999999928 8.787500000000001  C 3.637999999999993 7.755500000000001  5.115499999999992 7.637  6.168499999999992 7.707500000000004  C 6.6809871758383155 7.743409733282412  7.189393100403027 7.823710767764499  7.687999999999992 7.947500000000002  L 12.388999999999996 3.248000000000003  C 12.34976255877023 3.019575072518063  12.329692650342139 2.7882693778843413  12.328999999999994 2.5565000000000024  C 12.328999999999994 1.9115000000000029  12.490999999999994 1.0235000000000025  13.212499999999995 0.3020000000000027  Z " stroke-width="0" stroke-dasharray="0" stroke="rgba(255, 255, 255, 0)" fill="none" class="stroke" mask="url(#Clip6072)" />
    <path d="M 13.924999999999999 3.248  L 13.924999999999999 3.2510000000000003  L 13.924999999999999 3.248  Z " stroke-width="0" stroke-dasharray="0" stroke="rgba(255, 255, 255, 0)" fill="none" class="stroke" mask="url(#Clip6072)" />
    <path d="M 13.9235 3.2465  L 13.924999999999999 3.248  L 13.924999999999999 3.2510000000000003  C 14.013339159191805 3.5200982180184233  13.942552604917344 3.816009223592001  13.741999999999997 4.016  L 8.4395 9.317  C 8.238568866681609 9.517070937104023  7.941983597874151 9.586719141129254  7.673 9.497  L 7.67 9.497  L 7.649000000000001 9.491000000000001  C 7.50629534688812 9.448250736606594  7.3622166864928715 9.410229979002292  7.216999999999999 9.377000000000002  C 6.839658509868471 9.288978531937566  6.455973291490352 9.230798812549512  6.069499999999999 9.203000000000003  C 5.4365000000000006 9.161000000000003  4.8155 9.215000000000002  4.307 9.428000000000003  L 12.572 17.691500000000005  C 12.783500000000002 17.181500000000003  12.837499999999999 16.562000000000005  12.795499999999999 15.928999999999998  C 12.757287682427116 15.393093797290035  12.660716223271208 14.862956724632092  12.507499999999999 14.348000000000003  L 12.5015 14.328500000000004  L 12.5015 14.327000000000002  C 12.411159728312592 14.057572266323012  12.480850048516134 13.760226900121221  12.681499999999998 13.559000000000001  L 17.9855 8.256500000000003  C 18.19415805601 8.046573069560454  18.506765246255593 7.978998207007364  18.783499999999997 8.084000000000001  L 18.9275 8.117  C 19.057999999999996 8.142500000000002  19.2395 8.168000000000001  19.443499999999997 8.168000000000001  C 19.6145 8.168000000000001  19.7885 8.151500000000002  19.958 8.108  L 13.8905 2.042  C 13.847 2.2115  13.830499999999999 2.387  13.830499999999999 2.5564999999999998  C 13.831233528267973 2.7895744810672793  13.862499584573083 3.02154844720197  13.9235 3.2465  Z " stroke-width="0" stroke-dasharray="0" stroke="rgba(255, 255, 255, 0)" fill="none" class="stroke" mask="url(#Clip6072)" />
  </g>
</svg>