<?xml version="1.0" encoding="utf-8"?>
<svg version="1.1" xmlns:xlink="http://www.w3.org/1999/xlink" width="36px" height="48px" xmlns="http://www.w3.org/2000/svg">
  <defs>
    <pattern id="BGPattern" patternUnits="userSpaceOnUse" alignment="0 0" imageRepeat="None" />
    <mask fill="white" id="Clip2922">
      <path d="M 36 16.6  C 36 16.056250000000002  35.78125 15.537500000000001  35.3875 15.162500000000001  L 20.206249999999997 0.5562500000000004  C 19.831249999999997 0.20000000000000018  19.3375 0  18.818749999999994 0  L 0.5 0  C 0.22500000000000142 0  0 0.22499999999999964  0 0.5  L 0 4  C 0 4.275  0.22500000000000142 4.5  0.5 5  L 17.8125 5  L 31 17.6625  L 31 47.5  C 31.5 47.775  31.725 48  32 48  L 35.5 48  C 35.775 48  36 47.775  36 47.5  L 36 16.6  Z " fill-rule="evenodd" />
    </mask>
  </defs>
  <g transform="matrix(1 0 0 1 -8 0 )">
    <path d="M 36 16.6  C 36 16.056250000000002  35.78125 15.537500000000001  35.3875 15.162500000000001  L 20.206249999999997 0.5562500000000004  C 19.831249999999997 0.20000000000000018  19.3375 0  18.818749999999994 0  L 0.5 0  C 0.22500000000000142 0  0 0.22499999999999964  0 0.5  L 0 4  C 0 4.275  0.22500000000000142 4.5  0.5 5  L 17.8125 5  L 31 17.6625  L 31 47.5  C 31.5 47.775  31.725 48  32 48  L 35.5 48  C 35.775 48  36 47.775  36 47.5  L 36 16.6  Z " fill-rule="nonzero" fill="rgba(0, 0, 0, 1)" stroke="none" transform="matrix(1 0 0 1 8 0 )" class="fill" />
    <path d="M 36 16.6  C 36 16.056250000000002  35.78125 15.537500000000001  35.3875 15.162500000000001  L 20.206249999999997 0.5562500000000004  C 19.831249999999997 0.20000000000000018  19.3375 0  18.818749999999994 0  L 0.5 0  C 0.22500000000000142 0  0 0.22499999999999964  0 0.5  L 0 4  C 0 4.275  0.22500000000000142 4.5  0.5 5  L 17.8125 5  L 31 17.6625  L 31 47.5  C 31.5 47.775  31.725 48  32 48  L 35.5 48  C 35.775 48  36 47.775  36 47.5  L 36 16.6  Z " stroke-width="0" stroke-dasharray="0" stroke="rgba(255, 255, 255, 0)" fill="none" transform="matrix(1 0 0 1 8 0 )" class="stroke" mask="url(#Clip2922)" />
  </g>
</svg>