<?xml version="1.0" encoding="utf-8"?>
<svg version="1.1" xmlns:xlink="http://www.w3.org/1999/xlink" width="28px" height="24px" xmlns="http://www.w3.org/2000/svg">
  <defs>
    <pattern id="BGPattern" patternUnits="userSpaceOnUse" alignment="0 0" imageRepeat="None" />
    <mask fill="white" id="Clip3518">
      <path d="M 28 9  L 28 3  L 27 3  L 27 0  L 25 0  L 25 3  L 24 3  L 24 9  L 25 9  L 25 20.5  C 25 21.328427124746188  24.32842712474619 22  23.5 22  C 22.67157287525381 22  22 21.328427124746188  22 20.5  L 22 12  C 22 11.447715250169207  21.552284749830793 11  21 11  L 17 11  L 17 1  C 17 0.44771525016920677  16.552284749830793 0  16 0  L 3 0  C 2.4477152501692068 0  2 0.44771525016920677  2 1  L 2 22  L 0 22  L 0 24  L 19 24  L 19 22  L 17 22  L 17 13  L 20 13  L 20 20.5  C 20.00000005760779 22.432996583672917  21.56700341632708 23.99999989569187  23.499999999999996 23.99999989569187  C 25.43299662440777 23.99999989569187  26.999999999999996 22.43299652009965  26.999999999999996 20.49999989569187  L 27 9  L 28 9  Z M 15 2  L 15 22  L 4 22  L 4 2  L 15 2  Z " fill-rule="evenodd" />
    </mask>
  </defs>
  <g transform="matrix(1 0 0 1 -2 -4 )">
    <path d="M 28 9  L 28 3  L 27 3  L 27 0  L 25 0  L 25 3  L 24 3  L 24 9  L 25 9  L 25 20.5  C 25 21.328427124746188  24.32842712474619 22  23.5 22  C 22.67157287525381 22  22 21.328427124746188  22 20.5  L 22 12  C 22 11.447715250169207  21.552284749830793 11  21 11  L 17 11  L 17 1  C 17 0.44771525016920677  16.552284749830793 0  16 0  L 3 0  C 2.4477152501692068 0  2 0.44771525016920677  2 1  L 2 22  L 0 22  L 0 24  L 19 24  L 19 22  L 17 22  L 17 13  L 20 13  L 20 20.5  C 20.00000005760779 22.432996583672917  21.56700341632708 23.99999989569187  23.499999999999996 23.99999989569187  C 25.43299662440777 23.99999989569187  26.999999999999996 22.43299652009965  26.999999999999996 20.49999989569187  L 27 9  L 28 9  Z M 15 2  L 15 22  L 4 22  L 4 2  L 15 2  Z " fill-rule="nonzero" fill="rgba(39, 36, 37, 1)" stroke="none" transform="matrix(1 0 0 1 2 4 )" class="fill" />
    <path d="M 28 9  L 28 3  L 27 3  L 27 0  L 25 0  L 25 3  L 24 3  L 24 9  L 25 9  L 25 20.5  C 25 21.328427124746188  24.32842712474619 22  23.5 22  C 22.67157287525381 22  22 21.328427124746188  22 20.5  L 22 12  C 22 11.447715250169207  21.552284749830793 11  21 11  L 17 11  L 17 1  C 17 0.44771525016920677  16.552284749830793 0  16 0  L 3 0  C 2.4477152501692068 0  2 0.44771525016920677  2 1  L 2 22  L 0 22  L 0 24  L 19 24  L 19 22  L 17 22  L 17 13  L 20 13  L 20 20.5  C 20.00000005760779 22.432996583672917  21.56700341632708 23.99999989569187  23.499999999999996 23.99999989569187  C 25.43299662440777 23.99999989569187  26.999999999999996 22.43299652009965  26.999999999999996 20.49999989569187  L 27 9  L 28 9  Z " stroke-width="0" stroke-dasharray="0" stroke="rgba(255, 255, 255, 0)" fill="none" transform="matrix(1 0 0 1 2 4 )" class="stroke" mask="url(#Clip3518)" />
    <path d="M 15 2  L 15 22  L 4 22  L 4 2  L 15 2  Z " stroke-width="0" stroke-dasharray="0" stroke="rgba(255, 255, 255, 0)" fill="none" transform="matrix(1 0 0 1 2 4 )" class="stroke" mask="url(#Clip3518)" />
  </g>
</svg>