<?xml version="1.0" encoding="utf-8"?>
<svg version="1.1" xmlns:xlink="http://www.w3.org/1999/xlink" width="24px" height="22px" xmlns="http://www.w3.org/2000/svg">
  <defs>
    <pattern id="BGPattern" patternUnits="userSpaceOnUse" alignment="0 0" imageRepeat="None" />
    <mask fill="white" id="Clip5244">
      <path d="M 21.75 21.75  L 2.25 21.75  C 1.0073593128807148 21.75  0 20.742640687119284  0 19.5  L 0 9  C 0 7.757359312880715  1.0073593128807148 6.75  2.25 7  L 21.75 7  C 22.992640687119284 6.75  24 7.757359312880715  24 9  L 24 19.5  C 24 20.742640687119284  22.992640687119284 21.75  21.75 21.75  Z M 3.75 4  C 3.335786437626905 3.7499999999999996  3 4.085786437626905  3 4.5  C 3 4.914213562373095  3.335786437626905 5.25  3.75 5.25  L 20.25 5.25  C 20.664213562373096 5.25  21 4.914213562373095  21 4.5  C 21 4.085786437626905  20.664213562373096 3.7499999999999996  20.25 4  L 3.75 4  Z M 6.75 1  C 6.335786437626905 0.75  6 1.0857864376269049  6 1.5  C 6 1.914213562373095  6.335786437626905 2.25  6.75 2.25  L 17.25 2.25  C 17.664213562373096 2.25  18 1.914213562373095  18 1.5  C 18 1.0857864376269049  17.664213562373096 0.75  17.25 1  L 6.75 1  Z M 2.25 20  L 21.75 20  C 22.164213562373096 20.25  22.5 19.914213562373096  22.5 19.5  L 22.5 9  C 22.5 8.585786437626904  22.164213562373096 8.25  21.75 8.25  L 2.25 8.25  C 1.835786437626905 8.25  1.5 8.585786437626904  1.5 9  L 1.5 19.5  C 1.5 19.914213562373096  1.835786437626905 20.25  2.25 20  Z " fill-rule="evenodd" />
    </mask>
  </defs>
  <g>
    <path d="M 21.75 21.75  L 2.25 21.75  C 1.0073593128807148 21.75  0 20.742640687119284  0 19.5  L 0 9  C 0 7.757359312880715  1.0073593128807148 6.75  2.25 7  L 21.75 7  C 22.992640687119284 6.75  24 7.757359312880715  24 9  L 24 19.5  C 24 20.742640687119284  22.992640687119284 21.75  21.75 21.75  Z M 3.75 4  C 3.335786437626905 3.7499999999999996  3 4.085786437626905  3 4.5  C 3 4.914213562373095  3.335786437626905 5.25  3.75 5.25  L 20.25 5.25  C 20.664213562373096 5.25  21 4.914213562373095  21 4.5  C 21 4.085786437626905  20.664213562373096 3.7499999999999996  20.25 4  L 3.75 4  Z M 6.75 1  C 6.335786437626905 0.75  6 1.0857864376269049  6 1.5  C 6 1.914213562373095  6.335786437626905 2.25  6.75 2.25  L 17.25 2.25  C 17.664213562373096 2.25  18 1.914213562373095  18 1.5  C 18 1.0857864376269049  17.664213562373096 0.75  17.25 1  L 6.75 1  Z M 2.25 20  L 21.75 20  C 22.164213562373096 20.25  22.5 19.914213562373096  22.5 19.5  L 22.5 9  C 22.5 8.585786437626904  22.164213562373096 8.25  21.75 8.25  L 2.25 8.25  C 1.835786437626905 8.25  1.5 8.585786437626904  1.5 9  L 1.5 19.5  C 1.5 19.914213562373096  1.835786437626905 20.25  2.25 20  Z " fill-rule="nonzero" fill="rgba(0, 0, 0, 1)" stroke="none" class="fill" />
    <path d="M 21.75 21.75  L 2.25 21.75  C 1.0073593128807148 21.75  0 20.742640687119284  0 19.5  L 0 9  C 0 7.757359312880715  1.0073593128807148 6.75  2.25 7  L 21.75 7  C 22.992640687119284 6.75  24 7.757359312880715  24 9  L 24 19.5  C 24 20.742640687119284  22.992640687119284 21.75  21.75 21.75  Z " stroke-width="0" stroke-dasharray="0" stroke="rgba(255, 255, 255, 0)" fill="none" class="stroke" mask="url(#Clip5244)" />
    <path d="M 3.75 4  C 3.335786437626905 3.7499999999999996  3 4.085786437626905  3 4.5  C 3 4.914213562373095  3.335786437626905 5.25  3.75 5.25  L 20.25 5.25  C 20.664213562373096 5.25  21 4.914213562373095  21 4.5  C 21 4.085786437626905  20.664213562373096 3.7499999999999996  20.25 4  L 3.75 4  Z " stroke-width="0" stroke-dasharray="0" stroke="rgba(255, 255, 255, 0)" fill="none" class="stroke" mask="url(#Clip5244)" />
    <path d="M 6.75 1  C 6.335786437626905 0.75  6 1.0857864376269049  6 1.5  C 6 1.914213562373095  6.335786437626905 2.25  6.75 2.25  L 17.25 2.25  C 17.664213562373096 2.25  18 1.914213562373095  18 1.5  C 18 1.0857864376269049  17.664213562373096 0.75  17.25 1  L 6.75 1  Z " stroke-width="0" stroke-dasharray="0" stroke="rgba(255, 255, 255, 0)" fill="none" class="stroke" mask="url(#Clip5244)" />
    <path d="M 2.25 20  L 21.75 20  C 22.164213562373096 20.25  22.5 19.914213562373096  22.5 19.5  L 22.5 9  C 22.5 8.585786437626904  22.164213562373096 8.25  21.75 8.25  L 2.25 8.25  C 1.835786437626905 8.25  1.5 8.585786437626904  1.5 9  L 1.5 19.5  C 1.5 19.914213562373096  1.835786437626905 20.25  2.25 20  Z " stroke-width="0" stroke-dasharray="0" stroke="rgba(255, 255, 255, 0)" fill="none" class="stroke" mask="url(#Clip5244)" />
  </g>
</svg>