<?xml version="1.0" encoding="utf-8"?>
<svg version="1.1" xmlns:xlink="http://www.w3.org/1999/xlink" width="8px" height="19px" xmlns="http://www.w3.org/2000/svg">
  <defs>
    <pattern id="BGPattern" patternUnits="userSpaceOnUse" alignment="0 0" imageRepeat="None" />
    <mask fill="white" id="Clip3379">
      <path d="M 8 16.999999999999996  C 7.998732534440704 18.10404407205509  7.104044072055091 18.998732534440702  6 18.999999999999996  L 2 19  C 0.8959559279449101 18.998732534440702  0.0012674655592954664 18.10404407205509  0 16.999999999999996  L 0 1.9999999999999996  C 0.0012674655592963546 0.895955927944909  0.8959559279449092 0.0012674655592963544  2 0  L 6 0  C 7.104044072055091 0.0012674655592963544  7.998732534440704 0.895955927944909  8 1.9999999999999996  L 8 16.999999999999996  Z M 6 1.9999999999999996  L 2 1.9999999999999996  L 2 16.999999999999996  L 6 16.999999999999996  L 6 1.9999999999999996  Z " fill-rule="evenodd" />
    </mask>
  </defs>
  <g transform="matrix(1 0 0 1 -6 -4 )">
    <path d="M 8 16.999999999999996  C 7.998732534440704 18.10404407205509  7.104044072055091 18.998732534440702  6 18.999999999999996  L 2 19  C 0.8959559279449101 18.998732534440702  0.0012674655592954664 18.10404407205509  0 16.999999999999996  L 0 1.9999999999999996  C 0.0012674655592963546 0.895955927944909  0.8959559279449092 0.0012674655592963544  2 0  L 6 0  C 7.104044072055091 0.0012674655592963544  7.998732534440704 0.895955927944909  8 1.9999999999999996  L 8 16.999999999999996  Z M 6 1.9999999999999996  L 2 1.9999999999999996  L 2 16.999999999999996  L 6 16.999999999999996  L 6 1.9999999999999996  Z " fill-rule="nonzero" fill="rgba(0, 0, 0, 1)" stroke="none" transform="matrix(1 0 0 1 6 4 )" class="fill" />
    <path d="M 8 16.999999999999996  C 7.998732534440704 18.10404407205509  7.104044072055091 18.998732534440702  6 18.999999999999996  L 2 19  C 0.8959559279449101 18.998732534440702  0.0012674655592954664 18.10404407205509  0 16.999999999999996  L 0 1.9999999999999996  C 0.0012674655592963546 0.895955927944909  0.8959559279449092 0.0012674655592963544  2 0  L 6 0  C 7.104044072055091 0.0012674655592963544  7.998732534440704 0.895955927944909  8 1.9999999999999996  L 8 16.999999999999996  Z " stroke-width="0" stroke-dasharray="0" stroke="rgba(255, 255, 255, 0)" fill="none" transform="matrix(1 0 0 1 6 4 )" class="stroke" mask="url(#Clip3379)" />
    <path d="M 6 1.9999999999999996  L 2 1.9999999999999996  L 2 16.999999999999996  L 6 16.999999999999996  L 6 1.9999999999999996  Z " stroke-width="0" stroke-dasharray="0" stroke="rgba(255, 255, 255, 0)" fill="none" transform="matrix(1 0 0 1 6 4 )" class="stroke" mask="url(#Clip3379)" />
  </g>
</svg>