<?xml version="1.0" encoding="utf-8"?>
<svg version="1.1" xmlns:xlink="http://www.w3.org/1999/xlink" width="22px" height="24px" xmlns="http://www.w3.org/2000/svg">
  <defs>
    <pattern id="BGPattern" patternUnits="userSpaceOnUse" alignment="0 0" imageRepeat="None" />
    <mask fill="white" id="Clip4287">
      <path d="M 17 11  L 17 6  L 14.999999999999998 6  L 14.999999999999998 13  L 17 13  C 18.656854249492383 13  19.999999999999996 14.343145750507617  19.999999999999996 16  C 19.999999999999996 17.656854249492376  18.656854249492376 19  17 19  L 16 19  L 16 17  L 14 17  L 14 19  C 14 20.656854249492376  12.65685424949238 22  11 22  C 9.34314575050762 22  8 20.656854249492376  8 19  L 8 17  L 6.000000000000001 17  L 6.000000000000001 19  L 5.000000000000001 19  C 3.343145750507621 19  2 17.656854249492376  2 16  C 2 14.343145750507617  3.343145750507621 13  5.000000000000001 13  L 7.000000000000001 13  L 7.000000000000001 5  C 7.000000000000001 3.3431457505076203  8.34314575050762 2.0000000000000004  10 2.0000000000000004  L 11 2.0000000000000004  L 11 0  L 9.999999999999996 0  C 7.238576250846033 0  4.999999999999999 2.2385762508460325  5.000000000000001 5  L 4.999999999999999 10.999999999999996  C 2.238576250846032 10.999999999999996  0 13.23857625084603  0 15.999999999999996  C 0 18.761423749153963  2.238576250846032 20.999999999999996  4.999999999999999 20.999999999999996  L 6.420000000000001 20.999999999999996  C 7.21665065354373 22.81897192098687  9.01422279368245 23.994108676921897  11 23.994108676921897  C 12.985777206317549 23.994108676921897  14.783349346456268 22.81897192098687  15.579999999999998 21  L 16.999999999999996 20.999999999999996  C 19.761423749153963 20.999999999999996  21.999999999999996 18.761423749153963  21.999999999999996 15.999999999999996  C 21.999999999999996 13.23857625084603  19.761423749153963 10.999999999999996  16.999999999999996 10.999999999999996  Z " fill-rule="evenodd" />
    </mask>
  </defs>
  <g transform="matrix(1 0 0 1 -5 -4 )">
    <path d="M 17 11  L 17 6  L 14.999999999999998 6  L 14.999999999999998 13  L 17 13  C 18.656854249492383 13  19.999999999999996 14.343145750507617  19.999999999999996 16  C 19.999999999999996 17.656854249492376  18.656854249492376 19  17 19  L 16 19  L 16 17  L 14 17  L 14 19  C 14 20.656854249492376  12.65685424949238 22  11 22  C 9.34314575050762 22  8 20.656854249492376  8 19  L 8 17  L 6.000000000000001 17  L 6.000000000000001 19  L 5.000000000000001 19  C 3.343145750507621 19  2 17.656854249492376  2 16  C 2 14.343145750507617  3.343145750507621 13  5.000000000000001 13  L 7.000000000000001 13  L 7.000000000000001 5  C 7.000000000000001 3.3431457505076203  8.34314575050762 2.0000000000000004  10 2.0000000000000004  L 11 2.0000000000000004  L 11 0  L 9.999999999999996 0  C 7.238576250846033 0  4.999999999999999 2.2385762508460325  5.000000000000001 5  L 4.999999999999999 10.999999999999996  C 2.238576250846032 10.999999999999996  0 13.23857625084603  0 15.999999999999996  C 0 18.761423749153963  2.238576250846032 20.999999999999996  4.999999999999999 20.999999999999996  L 6.420000000000001 20.999999999999996  C 7.21665065354373 22.81897192098687  9.01422279368245 23.994108676921897  11 23.994108676921897  C 12.985777206317549 23.994108676921897  14.783349346456268 22.81897192098687  15.579999999999998 21  L 16.999999999999996 20.999999999999996  C 19.761423749153963 20.999999999999996  21.999999999999996 18.761423749153963  21.999999999999996 15.999999999999996  C 21.999999999999996 13.23857625084603  19.761423749153963 10.999999999999996  16.999999999999996 10.999999999999996  Z " fill-rule="nonzero" fill="rgba(0, 0, 0, 1)" stroke="none" transform="matrix(1 0 0 1 5 4 )" class="fill" />
    <path d="M 17 11  L 17 6  L 14.999999999999998 6  L 14.999999999999998 13  L 17 13  C 18.656854249492383 13  19.999999999999996 14.343145750507617  19.999999999999996 16  C 19.999999999999996 17.656854249492376  18.656854249492376 19  17 19  L 16 19  L 16 17  L 14 17  L 14 19  C 14 20.656854249492376  12.65685424949238 22  11 22  C 9.34314575050762 22  8 20.656854249492376  8 19  L 8 17  L 6.000000000000001 17  L 6.000000000000001 19  L 5.000000000000001 19  C 3.343145750507621 19  2 17.656854249492376  2 16  C 2 14.343145750507617  3.343145750507621 13  5.000000000000001 13  L 7.000000000000001 13  L 7.000000000000001 5  C 7.000000000000001 3.3431457505076203  8.34314575050762 2.0000000000000004  10 2.0000000000000004  L 11 2.0000000000000004  L 11 0  L 9.999999999999996 0  C 7.238576250846033 0  4.999999999999999 2.2385762508460325  5.000000000000001 5  L 4.999999999999999 10.999999999999996  C 2.238576250846032 10.999999999999996  0 13.23857625084603  0 15.999999999999996  C 0 18.761423749153963  2.238576250846032 20.999999999999996  4.999999999999999 20.999999999999996  L 6.420000000000001 20.999999999999996  C 7.21665065354373 22.81897192098687  9.01422279368245 23.994108676921897  11 23.994108676921897  C 12.985777206317549 23.994108676921897  14.783349346456268 22.81897192098687  15.579999999999998 21  L 16.999999999999996 20.999999999999996  C 19.761423749153963 20.999999999999996  21.999999999999996 18.761423749153963  21.999999999999996 15.999999999999996  C 21.999999999999996 13.23857625084603  19.761423749153963 10.999999999999996  16.999999999999996 10.999999999999996  Z " stroke-width="0" stroke-dasharray="0" stroke="rgba(255, 255, 255, 0)" fill="none" transform="matrix(1 0 0 1 5 4 )" class="stroke" mask="url(#Clip4287)" />
  </g>
</svg>