<?xml version="1.0" encoding="utf-8"?>
<svg version="1.1" xmlns:xlink="http://www.w3.org/1999/xlink" width="50px" height="50px" xmlns="http://www.w3.org/2000/svg">
  <defs>
    <pattern id="BGPattern" patternUnits="userSpaceOnUse" alignment="0 0" imageRepeat="None" />
    <mask fill="white" id="Clip1659">
      <path d="M 19 31.25  L 19 20.3125  C 18.75 18.5869140625  17.3505859375 17.1875  15.625 17.1875  L 14.0625 17.1875  C 10.6103515625 17.1875  7.8125 19.9853515625  7.8125 23.4375  L 7.8125 28.125  C 7.8125 31.577148437500004  10.6103515625 34.375  14.0625 34.375  L 15.625 34.375  C 17.3505859375 34.375  18.75 32.9755859375  19 31.25  Z M 34.375 34.375  L 35.9375 34.375  C 39.3896484375 34.375  42.1875 31.577148437500004  42.1875 28.125  L 42.1875 23.4375  C 42.1875 19.9853515625  39.3896484375 17.1875  35.9375 17.1875  L 34.375 17.1875  C 32.6494140625 17.1875  31.25 18.5869140625  31 20.3125  L 31 31.25  C 31.25 32.9755859375  32.6494140625 34.375  34.375 34.375  Z M 50 25  C 49.552734375 11.6044921875  38.947265625 0  25 0  C 11.052734375 0  0.447265625 11.6044921875  0 25  L 0 26.5625  C 0 27.425781249999996  0.69921875 28.125  1.5625 28.125  L 3.125 28.125  C 3.9882812500000004 28.125  4.6875 27.425781249999996  4.6875 26.5625  L 4.6875 25  C 4.6875 13.7998046875  13.7998046875 4.6875  25 4.6875  C 36.2001953125 4.6875  45.3125 13.7998046875  45.3125 25  L 45.30078125 25  C 45.30859375 25.2373046875  45.3125 41.18359375  45.3125 41.18359375  C 45.3125 43.4638671875  43.4638671875 45.3125  41.18359375 45.3125  L 31.25 45.3125  C 31.25 42.7236328125  29.1513671875 40.625  26.5625 40.625  L 23.4375 40.625  C 20.8486328125 40.625  18.75 42.7236328125  18.75 45.3125  C 18.75 47.9013671875  20.8486328125 50  23.4375 50  L 41.18359375 50  C 46.052734375 50  50 46.052734375  50 41.18359375  L 50 25  Z " fill-rule="evenodd" />
    </mask>
  </defs>
  <g>
    <path d="M 19 31.25  L 19 20.3125  C 18.75 18.5869140625  17.3505859375 17.1875  15.625 17.1875  L 14.0625 17.1875  C 10.6103515625 17.1875  7.8125 19.9853515625  7.8125 23.4375  L 7.8125 28.125  C 7.8125 31.577148437500004  10.6103515625 34.375  14.0625 34.375  L 15.625 34.375  C 17.3505859375 34.375  18.75 32.9755859375  19 31.25  Z M 34.375 34.375  L 35.9375 34.375  C 39.3896484375 34.375  42.1875 31.577148437500004  42.1875 28.125  L 42.1875 23.4375  C 42.1875 19.9853515625  39.3896484375 17.1875  35.9375 17.1875  L 34.375 17.1875  C 32.6494140625 17.1875  31.25 18.5869140625  31 20.3125  L 31 31.25  C 31.25 32.9755859375  32.6494140625 34.375  34.375 34.375  Z M 50 25  C 49.552734375 11.6044921875  38.947265625 0  25 0  C 11.052734375 0  0.447265625 11.6044921875  0 25  L 0 26.5625  C 0 27.425781249999996  0.69921875 28.125  1.5625 28.125  L 3.125 28.125  C 3.9882812500000004 28.125  4.6875 27.425781249999996  4.6875 26.5625  L 4.6875 25  C 4.6875 13.7998046875  13.7998046875 4.6875  25 4.6875  C 36.2001953125 4.6875  45.3125 13.7998046875  45.3125 25  L 45.30078125 25  C 45.30859375 25.2373046875  45.3125 41.18359375  45.3125 41.18359375  C 45.3125 43.4638671875  43.4638671875 45.3125  41.18359375 45.3125  L 31.25 45.3125  C 31.25 42.7236328125  29.1513671875 40.625  26.5625 40.625  L 23.4375 40.625  C 20.8486328125 40.625  18.75 42.7236328125  18.75 45.3125  C 18.75 47.9013671875  20.8486328125 50  23.4375 50  L 41.18359375 50  C 46.052734375 50  50 46.052734375  50 41.18359375  L 50 25  Z " fill-rule="nonzero" fill="rgba(0, 0, 0, 1)" stroke="none" class="fill" />
    <path d="M 19 31.25  L 19 20.3125  C 18.75 18.5869140625  17.3505859375 17.1875  15.625 17.1875  L 14.0625 17.1875  C 10.6103515625 17.1875  7.8125 19.9853515625  7.8125 23.4375  L 7.8125 28.125  C 7.8125 31.577148437500004  10.6103515625 34.375  14.0625 34.375  L 15.625 34.375  C 17.3505859375 34.375  18.75 32.9755859375  19 31.25  Z " stroke-width="0" stroke-dasharray="0" stroke="rgba(255, 255, 255, 0)" fill="none" class="stroke" mask="url(#Clip1659)" />
    <path d="M 34.375 34.375  L 35.9375 34.375  C 39.3896484375 34.375  42.1875 31.577148437500004  42.1875 28.125  L 42.1875 23.4375  C 42.1875 19.9853515625  39.3896484375 17.1875  35.9375 17.1875  L 34.375 17.1875  C 32.6494140625 17.1875  31.25 18.5869140625  31 20.3125  L 31 31.25  C 31.25 32.9755859375  32.6494140625 34.375  34.375 34.375  Z " stroke-width="0" stroke-dasharray="0" stroke="rgba(255, 255, 255, 0)" fill="none" class="stroke" mask="url(#Clip1659)" />
    <path d="M 50 25  C 49.552734375 11.6044921875  38.947265625 0  25 0  C 11.052734375 0  0.447265625 11.6044921875  0 25  L 0 26.5625  C 0 27.425781249999996  0.69921875 28.125  1.5625 28.125  L 3.125 28.125  C 3.9882812500000004 28.125  4.6875 27.425781249999996  4.6875 26.5625  L 4.6875 25  C 4.6875 13.7998046875  13.7998046875 4.6875  25 4.6875  C 36.2001953125 4.6875  45.3125 13.7998046875  45.3125 25  L 45.30078125 25  C 45.30859375 25.2373046875  45.3125 41.18359375  45.3125 41.18359375  C 45.3125 43.4638671875  43.4638671875 45.3125  41.18359375 45.3125  L 31.25 45.3125  C 31.25 42.7236328125  29.1513671875 40.625  26.5625 40.625  L 23.4375 40.625  C 20.8486328125 40.625  18.75 42.7236328125  18.75 45.3125  C 18.75 47.9013671875  20.8486328125 50  23.4375 50  L 41.18359375 50  C 46.052734375 50  50 46.052734375  50 41.18359375  L 50 25  Z " stroke-width="0" stroke-dasharray="0" stroke="rgba(255, 255, 255, 0)" fill="none" class="stroke" mask="url(#Clip1659)" />
  </g>
</svg>