<?xml version="1.0" encoding="utf-8"?>
<svg version="1.1" xmlns:xlink="http://www.w3.org/1999/xlink" width="18px" height="24px" xmlns="http://www.w3.org/2000/svg">
  <defs>
    <pattern id="BGPattern" patternUnits="userSpaceOnUse" alignment="0 0" imageRepeat="None" />
    <mask fill="white" id="Clip5445">
      <path d="M 18 3  C 18 1.3431457505076196  16.65685424949238 0  15 0  L 3 0  C 1.3431457505076194 0  0 1.3431457505076196  0 3  L 0 21  C 0 22.65685424949238  1.3431457505076194 24  3 24  L 15 24  C 16.65685424949238 24  18 22.65685424949238  18 21  L 18 3  Z M 8.25 15.75  L 8.25 10.0605  L 6.531000000000002 11.781  C 6.390170043895203 11.921829956104798  6.199163633911816 12.000947401620115  6.000000000000002 12.000947401620115  C 5.585263202160153 12.000947401620115  5.249052598379887 11.664736797839847  5.249052598379887 11.25  C 5.249052598379887 11.050836366088188  5.328170043895202 10.859829956104798  5.469000000000001 10.719  L 8.469000000000001 7.718999999999999  C 8.609706394515252 7.577937448968548  8.800759108712638 7.4986593244718724  9 7.4986593244718724  C 9.199240891287364 7.4986593244718724  9.39029360548475 7.577937448968546  9.531000000000002 7.718999999999999  L 12.531000000000002 10.719  C 12.671829956104798 10.859829956104798  12.750947401620115 11.050836366088188  12.750947401620115 11.25  C 12.750947401620115 11.66473679783985  12.414736797839849 12.000947401620115  12 12.000947401620115  C 11.80083636608819 12.000947401620115  11.609829956104798 11.921829956104796  11.469000000000001 11.781  L 9.75 10.0605  L 9.75 15.75  C 9.75 16.164213562373096  9.414213562373096 16.5  9 16.5  C 8.585786437626904 16.5  8.25 16.164213562373096  8.25 15.75  Z " fill-rule="evenodd" />
    </mask>
  </defs>
  <g>
    <path d="M 18 3  C 18 1.3431457505076196  16.65685424949238 0  15 0  L 3 0  C 1.3431457505076194 0  0 1.3431457505076196  0 3  L 0 21  C 0 22.65685424949238  1.3431457505076194 24  3 24  L 15 24  C 16.65685424949238 24  18 22.65685424949238  18 21  L 18 3  Z M 8.25 15.75  L 8.25 10.0605  L 6.531000000000002 11.781  C 6.390170043895203 11.921829956104798  6.199163633911816 12.000947401620115  6.000000000000002 12.000947401620115  C 5.585263202160153 12.000947401620115  5.249052598379887 11.664736797839847  5.249052598379887 11.25  C 5.249052598379887 11.050836366088188  5.328170043895202 10.859829956104798  5.469000000000001 10.719  L 8.469000000000001 7.718999999999999  C 8.609706394515252 7.577937448968548  8.800759108712638 7.4986593244718724  9 7.4986593244718724  C 9.199240891287364 7.4986593244718724  9.39029360548475 7.577937448968546  9.531000000000002 7.718999999999999  L 12.531000000000002 10.719  C 12.671829956104798 10.859829956104798  12.750947401620115 11.050836366088188  12.750947401620115 11.25  C 12.750947401620115 11.66473679783985  12.414736797839849 12.000947401620115  12 12.000947401620115  C 11.80083636608819 12.000947401620115  11.609829956104798 11.921829956104796  11.469000000000001 11.781  L 9.75 10.0605  L 9.75 15.75  C 9.75 16.164213562373096  9.414213562373096 16.5  9 16.5  C 8.585786437626904 16.5  8.25 16.164213562373096  8.25 15.75  Z " fill-rule="nonzero" fill="rgba(0, 0, 0, 1)" stroke="none" class="fill" />
    <path d="M 18 3  C 18 1.3431457505076196  16.65685424949238 0  15 0  L 3 0  C 1.3431457505076194 0  0 1.3431457505076196  0 3  L 0 21  C 0 22.65685424949238  1.3431457505076194 24  3 24  L 15 24  C 16.65685424949238 24  18 22.65685424949238  18 21  L 18 3  Z " stroke-width="0" stroke-dasharray="0" stroke="rgba(255, 255, 255, 0)" fill="none" class="stroke" mask="url(#Clip5445)" />
    <path d="M 8.25 15.75  L 8.25 10.0605  L 6.531000000000002 11.781  C 6.390170043895203 11.921829956104798  6.199163633911816 12.000947401620115  6.000000000000002 12.000947401620115  C 5.585263202160153 12.000947401620115  5.249052598379887 11.664736797839847  5.249052598379887 11.25  C 5.249052598379887 11.050836366088188  5.328170043895202 10.859829956104798  5.469000000000001 10.719  L 8.469000000000001 7.718999999999999  C 8.609706394515252 7.577937448968548  8.800759108712638 7.4986593244718724  9 7.4986593244718724  C 9.199240891287364 7.4986593244718724  9.39029360548475 7.577937448968546  9.531000000000002 7.718999999999999  L 12.531000000000002 10.719  C 12.671829956104798 10.859829956104798  12.750947401620115 11.050836366088188  12.750947401620115 11.25  C 12.750947401620115 11.66473679783985  12.414736797839849 12.000947401620115  12 12.000947401620115  C 11.80083636608819 12.000947401620115  11.609829956104798 11.921829956104796  11.469000000000001 11.781  L 9.75 10.0605  L 9.75 15.75  C 9.75 16.164213562373096  9.414213562373096 16.5  9 16.5  C 8.585786437626904 16.5  8.25 16.164213562373096  8.25 15.75  Z " stroke-width="0" stroke-dasharray="0" stroke="rgba(255, 255, 255, 0)" fill="none" class="stroke" mask="url(#Clip5445)" />
  </g>
</svg>