<?xml version="1.0" encoding="utf-8"?>
<svg version="1.1" xmlns:xlink="http://www.w3.org/1999/xlink" width="25px" height="26px" xmlns="http://www.w3.org/2000/svg">
  <defs>
    <pattern id="BGPattern" patternUnits="userSpaceOnUse" alignment="0 0" imageRepeat="None" />
    <mask fill="white" id="Clip5222">
      <path d="M 6.000493042732064 17.5001852202029  C 6.090486000004369 17.5001852202029  6.179744367308048 17.516381639538178  6.264 17.548000000000002  C 6.650896125316269 17.693809602113816  6.846813248457444 18.12522984245551  6.702 18.512500000000003  L 4.452 24.512500000000003  C 4.35022064992914 24.819264489640773  4.0633653351189105 25.026322416396024  3.740157216091231 25.026322416396024  C 3.325943653718133 25.026322416396024  2.990157216091231 24.69053597876912  2.990157216091231 24.27632241639602  C 2.990157216091231 24.177171292031396  3.0098172435635018 24.079004221616714  3.048 23.9875  L 5.298 17.9875  C 5.4075888722684 17.694428999393498  5.687602754737123 17.5001852202029  6.000493042732064 17.5001852202029  Z M 10.500493042732064 17.5001852202029  C 10.590486000004368 17.5001852202029  10.679744367308048 17.516381639538178  10.764 17.548000000000002  C 11.150896125316269 17.693809602113816  11.346813248457444 18.12522984245551  11.202 18.512500000000003  L 8.952 24.512500000000003  C 8.85022064992914 24.819264489640773  8.56336533511891 25.026322416396024  8.240157216091232 25.026322416396024  C 7.825943653718134 25.026322416396024  7.490157216091233 24.69053597876912  7.490157216091233 24.27632241639602  C 7.490157216091233 24.177171292031396  7.5098172435635036 24.079004221616714  7.548000000000001 23.9875  L 9.798 17.9875  C 9.907588872268402 17.694428999393498  10.187602754737123 17.5001852202029  10.500493042732064 17.5001852202029  Z M 15.000493042732064 17.5001852202029  C 15.090486000004367 17.5001852202029  15.179744367308048 17.516381639538178  15.264 17.548000000000002  C 15.650896125316269 17.693809602113816  15.846813248457444 18.12522984245551  15.702 18.512500000000003  L 13.452 24.512500000000003  C 13.350220649929142 24.819264489640773  13.06336533511891 25.026322416396024  12.740157216091234 25.026322416396024  C 12.325943653718134 25.026322416396024  11.990157216091232 24.69053597876912  11.990157216091232 24.27632241639602  C 11.990157216091232 24.177171292031396  12.009817243563504 24.079004221616714  12.048 23.9875  L 14.298 17.9875  C 14.4075888722684 17.6944289993935  14.687602754737124 17.5001852202029  15.000493042732064 17.5001852202029  Z M 19.500493042732064 17.5001852202029  C 19.59048600000437 17.5001852202029  19.679744367308047 17.516381639538178  19.764 17.548000000000002  C 20.15089612531627 17.693809602113816  20.346813248457444 18.12522984245551  20.201999999999998 18.512500000000003  L 17.951999999999998 24.512500000000003  C 17.83545693392505 24.79179315589745  17.562476148198474 24.97367758360398  17.259842783908766 24.97367758360398  C 16.845629221535674 24.97367758360398  16.509842783908766 24.637891145977072  16.509842783908766 24.22367758360398  C 16.509842783908766 24.143417177592344  16.522725721665463 24.06367705447063  16.548000000000002 23.9875  L 18.798000000000002 17.9875  C 18.907588872268402 17.6944289993935  19.187602754737124 17.5001852202029  19.500493042732064 17.5001852202029  Z M 24.00514334981515 11.50000293933955  C 24.00514334981515 9.247515548418168  22.339716475697593 7.342011279862003  20.107499999999998 7.0405  C 19.41084980679724 3.528698129242074  16.329616007232346 0.9986592723499177  12.749382233978384 0.9986592723499177  C 9.752791579664905 0.9986592723499177  7.043678645524476 2.7820298264364114  5.858999999999998 5.5344999999999995  C 5.659548552660301 5.5115231578477  5.458943294424541 5.500006361308186  5.258172741003002 5.500006361308186  C 2.3586778043913363 5.500006361308186  0.008172741003002137 7.850511424696521  0.008172741003002137 10.750006361308188  C 0.008172741003002137 13.646310156999062  2.3536997136959936 15.995491287468914  5.25 16  L 19.5 16  C 19.501714449237745 16.00000195955954  19.503428899457546 16.000002939339552  19.50514334981515 16.000002939339552  C 21.990424724053717 16.000002939339552  24.00514334981515 13.98528431357812  24.00514334981515 11.50000293933955  Z M 7.051500000000001 6.6175  C 7.864556780015644 4.159916014714998  10.161413458907127 2.5003025418123617  12.75 2.5  C 15.805883436461771 2.4993657646247183  18.374033026187952 4.79558603411078  18.714 7.832499999999999  C 18.7562363302144 8.214201202490184  19.079976188000614 8.502329675919915  19.464 8.5  L 19.5 8.5  C 21.15685424949238 8.5  22.5 9.84314575050762  22.5 11.5  C 22.5 13.15685424949238  21.15685424949238 14.5  19.5 14.5  C 19.5 14.5  19.5 14.5  19.5 14  L 5.249999999999999 14  C 3.1796605461118457 14.498970617224956  1.5018645178799124 12.8203401733188  1.5018645178799124 10.750000463523616  C 1.5018645178799124 8.678932651658142  3.180796706014436 7.000000463523617  5.251864517879912 7.000000463523617  C 5.557135718438408 7.000000463523617  5.861264789244593 7.0372761517612865  6.157500000000001 7.110999999999999  C 6.5387661544770435 7.20609626897494  6.928792834306952 6.990796306451382  7.051500000000001 6.6175  Z " fill-rule="evenodd" />
    </mask>
  </defs>
  <g>
    <path d="M 6.000493042732064 17.5001852202029  C 6.090486000004369 17.5001852202029  6.179744367308048 17.516381639538178  6.264 17.548000000000002  C 6.650896125316269 17.693809602113816  6.846813248457444 18.12522984245551  6.702 18.512500000000003  L 4.452 24.512500000000003  C 4.35022064992914 24.819264489640773  4.0633653351189105 25.026322416396024  3.740157216091231 25.026322416396024  C 3.325943653718133 25.026322416396024  2.990157216091231 24.69053597876912  2.990157216091231 24.27632241639602  C 2.990157216091231 24.177171292031396  3.0098172435635018 24.079004221616714  3.048 23.9875  L 5.298 17.9875  C 5.4075888722684 17.694428999393498  5.687602754737123 17.5001852202029  6.000493042732064 17.5001852202029  Z M 10.500493042732064 17.5001852202029  C 10.590486000004368 17.5001852202029  10.679744367308048 17.516381639538178  10.764 17.548000000000002  C 11.150896125316269 17.693809602113816  11.346813248457444 18.12522984245551  11.202 18.512500000000003  L 8.952 24.512500000000003  C 8.85022064992914 24.819264489640773  8.56336533511891 25.026322416396024  8.240157216091232 25.026322416396024  C 7.825943653718134 25.026322416396024  7.490157216091233 24.69053597876912  7.490157216091233 24.27632241639602  C 7.490157216091233 24.177171292031396  7.5098172435635036 24.079004221616714  7.548000000000001 23.9875  L 9.798 17.9875  C 9.907588872268402 17.694428999393498  10.187602754737123 17.5001852202029  10.500493042732064 17.5001852202029  Z M 15.000493042732064 17.5001852202029  C 15.090486000004367 17.5001852202029  15.179744367308048 17.516381639538178  15.264 17.548000000000002  C 15.650896125316269 17.693809602113816  15.846813248457444 18.12522984245551  15.702 18.512500000000003  L 13.452 24.512500000000003  C 13.350220649929142 24.819264489640773  13.06336533511891 25.026322416396024  12.740157216091234 25.026322416396024  C 12.325943653718134 25.026322416396024  11.990157216091232 24.69053597876912  11.990157216091232 24.27632241639602  C 11.990157216091232 24.177171292031396  12.009817243563504 24.079004221616714  12.048 23.9875  L 14.298 17.9875  C 14.4075888722684 17.6944289993935  14.687602754737124 17.5001852202029  15.000493042732064 17.5001852202029  Z M 19.500493042732064 17.5001852202029  C 19.59048600000437 17.5001852202029  19.679744367308047 17.516381639538178  19.764 17.548000000000002  C 20.15089612531627 17.693809602113816  20.346813248457444 18.12522984245551  20.201999999999998 18.512500000000003  L 17.951999999999998 24.512500000000003  C 17.83545693392505 24.79179315589745  17.562476148198474 24.97367758360398  17.259842783908766 24.97367758360398  C 16.845629221535674 24.97367758360398  16.509842783908766 24.637891145977072  16.509842783908766 24.22367758360398  C 16.509842783908766 24.143417177592344  16.522725721665463 24.06367705447063  16.548000000000002 23.9875  L 18.798000000000002 17.9875  C 18.907588872268402 17.6944289993935  19.187602754737124 17.5001852202029  19.500493042732064 17.5001852202029  Z M 24.00514334981515 11.50000293933955  C 24.00514334981515 9.247515548418168  22.339716475697593 7.342011279862003  20.107499999999998 7.0405  C 19.41084980679724 3.528698129242074  16.329616007232346 0.9986592723499177  12.749382233978384 0.9986592723499177  C 9.752791579664905 0.9986592723499177  7.043678645524476 2.7820298264364114  5.858999999999998 5.5344999999999995  C 5.659548552660301 5.5115231578477  5.458943294424541 5.500006361308186  5.258172741003002 5.500006361308186  C 2.3586778043913363 5.500006361308186  0.008172741003002137 7.850511424696521  0.008172741003002137 10.750006361308188  C 0.008172741003002137 13.646310156999062  2.3536997136959936 15.995491287468914  5.25 16  L 19.5 16  C 19.501714449237745 16.00000195955954  19.503428899457546 16.000002939339552  19.50514334981515 16.000002939339552  C 21.990424724053717 16.000002939339552  24.00514334981515 13.98528431357812  24.00514334981515 11.50000293933955  Z M 7.051500000000001 6.6175  C 7.864556780015644 4.159916014714998  10.161413458907127 2.5003025418123617  12.75 2.5  C 15.805883436461771 2.4993657646247183  18.374033026187952 4.79558603411078  18.714 7.832499999999999  C 18.7562363302144 8.214201202490184  19.079976188000614 8.502329675919915  19.464 8.5  L 19.5 8.5  C 21.15685424949238 8.5  22.5 9.84314575050762  22.5 11.5  C 22.5 13.15685424949238  21.15685424949238 14.5  19.5 14.5  C 19.5 14.5  19.5 14.5  19.5 14  L 5.249999999999999 14  C 3.1796605461118457 14.498970617224956  1.5018645178799124 12.8203401733188  1.5018645178799124 10.750000463523616  C 1.5018645178799124 8.678932651658142  3.180796706014436 7.000000463523617  5.251864517879912 7.000000463523617  C 5.557135718438408 7.000000463523617  5.861264789244593 7.0372761517612865  6.157500000000001 7.110999999999999  C 6.5387661544770435 7.20609626897494  6.928792834306952 6.990796306451382  7.051500000000001 6.6175  Z " fill-rule="nonzero" fill="rgba(0, 0, 0, 1)" stroke="none" class="fill" />
    <path d="M 6.000493042732064 17.5001852202029  C 6.090486000004369 17.5001852202029  6.179744367308048 17.516381639538178  6.264 17.548000000000002  C 6.650896125316269 17.693809602113816  6.846813248457444 18.12522984245551  6.702 18.512500000000003  L 4.452 24.512500000000003  C 4.35022064992914 24.819264489640773  4.0633653351189105 25.026322416396024  3.740157216091231 25.026322416396024  C 3.325943653718133 25.026322416396024  2.990157216091231 24.69053597876912  2.990157216091231 24.27632241639602  C 2.990157216091231 24.177171292031396  3.0098172435635018 24.079004221616714  3.048 23.9875  L 5.298 17.9875  C 5.4075888722684 17.694428999393498  5.687602754737123 17.5001852202029  6.000493042732064 17.5001852202029  Z " stroke-width="0" stroke-dasharray="0" stroke="rgba(255, 255, 255, 0)" fill="none" class="stroke" mask="url(#Clip5222)" />
    <path d="M 10.500493042732064 17.5001852202029  C 10.590486000004368 17.5001852202029  10.679744367308048 17.516381639538178  10.764 17.548000000000002  C 11.150896125316269 17.693809602113816  11.346813248457444 18.12522984245551  11.202 18.512500000000003  L 8.952 24.512500000000003  C 8.85022064992914 24.819264489640773  8.56336533511891 25.026322416396024  8.240157216091232 25.026322416396024  C 7.825943653718134 25.026322416396024  7.490157216091233 24.69053597876912  7.490157216091233 24.27632241639602  C 7.490157216091233 24.177171292031396  7.5098172435635036 24.079004221616714  7.548000000000001 23.9875  L 9.798 17.9875  C 9.907588872268402 17.694428999393498  10.187602754737123 17.5001852202029  10.500493042732064 17.5001852202029  Z " stroke-width="0" stroke-dasharray="0" stroke="rgba(255, 255, 255, 0)" fill="none" class="stroke" mask="url(#Clip5222)" />
    <path d="M 15.000493042732064 17.5001852202029  C 15.090486000004367 17.5001852202029  15.179744367308048 17.516381639538178  15.264 17.548000000000002  C 15.650896125316269 17.693809602113816  15.846813248457444 18.12522984245551  15.702 18.512500000000003  L 13.452 24.512500000000003  C 13.350220649929142 24.819264489640773  13.06336533511891 25.026322416396024  12.740157216091234 25.026322416396024  C 12.325943653718134 25.026322416396024  11.990157216091232 24.69053597876912  11.990157216091232 24.27632241639602  C 11.990157216091232 24.177171292031396  12.009817243563504 24.079004221616714  12.048 23.9875  L 14.298 17.9875  C 14.4075888722684 17.6944289993935  14.687602754737124 17.5001852202029  15.000493042732064 17.5001852202029  Z " stroke-width="0" stroke-dasharray="0" stroke="rgba(255, 255, 255, 0)" fill="none" class="stroke" mask="url(#Clip5222)" />
    <path d="M 19.500493042732064 17.5001852202029  C 19.59048600000437 17.5001852202029  19.679744367308047 17.516381639538178  19.764 17.548000000000002  C 20.15089612531627 17.693809602113816  20.346813248457444 18.12522984245551  20.201999999999998 18.512500000000003  L 17.951999999999998 24.512500000000003  C 17.83545693392505 24.79179315589745  17.562476148198474 24.97367758360398  17.259842783908766 24.97367758360398  C 16.845629221535674 24.97367758360398  16.509842783908766 24.637891145977072  16.509842783908766 24.22367758360398  C 16.509842783908766 24.143417177592344  16.522725721665463 24.06367705447063  16.548000000000002 23.9875  L 18.798000000000002 17.9875  C 18.907588872268402 17.6944289993935  19.187602754737124 17.5001852202029  19.500493042732064 17.5001852202029  Z " stroke-width="0" stroke-dasharray="0" stroke="rgba(255, 255, 255, 0)" fill="none" class="stroke" mask="url(#Clip5222)" />
    <path d="M 24.00514334981515 11.50000293933955  C 24.00514334981515 9.247515548418168  22.339716475697593 7.342011279862003  20.107499999999998 7.0405  C 19.41084980679724 3.528698129242074  16.329616007232346 0.9986592723499177  12.749382233978384 0.9986592723499177  C 9.752791579664905 0.9986592723499177  7.043678645524476 2.7820298264364114  5.858999999999998 5.5344999999999995  C 5.659548552660301 5.5115231578477  5.458943294424541 5.500006361308186  5.258172741003002 5.500006361308186  C 2.3586778043913363 5.500006361308186  0.008172741003002137 7.850511424696521  0.008172741003002137 10.750006361308188  C 0.008172741003002137 13.646310156999062  2.3536997136959936 15.995491287468914  5.25 16  L 19.5 16  C 19.501714449237745 16.00000195955954  19.503428899457546 16.000002939339552  19.50514334981515 16.000002939339552  C 21.990424724053717 16.000002939339552  24.00514334981515 13.98528431357812  24.00514334981515 11.50000293933955  Z " stroke-width="0" stroke-dasharray="0" stroke="rgba(255, 255, 255, 0)" fill="none" class="stroke" mask="url(#Clip5222)" />
    <path d="M 7.051500000000001 6.6175  C 7.864556780015644 4.159916014714998  10.161413458907127 2.5003025418123617  12.75 2.5  C 15.805883436461771 2.4993657646247183  18.374033026187952 4.79558603411078  18.714 7.832499999999999  C 18.7562363302144 8.214201202490184  19.079976188000614 8.502329675919915  19.464 8.5  L 19.5 8.5  C 21.15685424949238 8.5  22.5 9.84314575050762  22.5 11.5  C 22.5 13.15685424949238  21.15685424949238 14.5  19.5 14.5  C 19.5 14.5  19.5 14.5  19.5 14  L 5.249999999999999 14  C 3.1796605461118457 14.498970617224956  1.5018645178799124 12.8203401733188  1.5018645178799124 10.750000463523616  C 1.5018645178799124 8.678932651658142  3.180796706014436 7.000000463523617  5.251864517879912 7.000000463523617  C 5.557135718438408 7.000000463523617  5.861264789244593 7.0372761517612865  6.157500000000001 7.110999999999999  C 6.5387661544770435 7.20609626897494  6.928792834306952 6.990796306451382  7.051500000000001 6.6175  Z " stroke-width="0" stroke-dasharray="0" stroke="rgba(255, 255, 255, 0)" fill="none" class="stroke" mask="url(#Clip5222)" />
  </g>
</svg>