<?xml version="1.0" encoding="utf-8"?>
<svg version="1.1" xmlns:xlink="http://www.w3.org/1999/xlink" width="24px" height="18px" xmlns="http://www.w3.org/2000/svg">
  <defs>
    <pattern id="BGPattern" patternUnits="userSpaceOnUse" alignment="0 0" imageRepeat="None" />
    <mask fill="white" id="Clip6154">
      <path d="M 3 18  C 1.3431457505076196 18  0 16.65685424949238  0 15  L 0 3  C 0 1.3431457505076194  1.3431457505076196 0  3 0  L 21 0  C 22.65685424949238 0  24 1.3431457505076194  24 3  L 24 15  C 24 16.65685424949238  22.65685424949238 18  21 18  L 3 18  Z M 12 13.5  C 14.48528137423857 13.5  16.5 11.48528137423857  16.5 9  C 16.5 6.514718625761429  14.48528137423857 4.5  12 4.5  C 9.514718625761429 4.5  7.5 6.514718625761429  7.5 9  C 7.5 11.48528137423857  9.514718625761429 13.5  12 13.5  Z " fill-rule="evenodd" />
    </mask>
  </defs>
  <g>
    <path d="M 3 18  C 1.3431457505076196 18  0 16.65685424949238  0 15  L 0 3  C 0 1.3431457505076194  1.3431457505076196 0  3 0  L 21 0  C 22.65685424949238 0  24 1.3431457505076194  24 3  L 24 15  C 24 16.65685424949238  22.65685424949238 18  21 18  L 3 18  Z M 12 13.5  C 14.48528137423857 13.5  16.5 11.48528137423857  16.5 9  C 16.5 6.514718625761429  14.48528137423857 4.5  12 4.5  C 9.514718625761429 4.5  7.5 6.514718625761429  7.5 9  C 7.5 11.48528137423857  9.514718625761429 13.5  12 13.5  Z " fill-rule="nonzero" fill="rgba(0, 0, 0, 1)" stroke="none" class="fill" />
    <path d="M 3 18  C 1.3431457505076196 18  0 16.65685424949238  0 15  L 0 3  C 0 1.3431457505076194  1.3431457505076196 0  3 0  L 21 0  C 22.65685424949238 0  24 1.3431457505076194  24 3  L 24 15  C 24 16.65685424949238  22.65685424949238 18  21 18  L 3 18  Z " stroke-width="0" stroke-dasharray="0" stroke="rgba(255, 255, 255, 0)" fill="none" class="stroke" mask="url(#Clip6154)" />
    <path d="M 12 13.5  C 14.48528137423857 13.5  16.5 11.48528137423857  16.5 9  C 16.5 6.514718625761429  14.48528137423857 4.5  12 4.5  C 9.514718625761429 4.5  7.5 6.514718625761429  7.5 9  C 7.5 11.48528137423857  9.514718625761429 13.5  12 13.5  Z " stroke-width="0" stroke-dasharray="0" stroke="rgba(255, 255, 255, 0)" fill="none" class="stroke" mask="url(#Clip6154)" />
  </g>
</svg>