<?xml version="1.0" encoding="utf-8"?>
<svg version="1.1" xmlns:xlink="http://www.w3.org/1999/xlink" width="50px" height="31px" xmlns="http://www.w3.org/2000/svg">
  <defs>
    <pattern id="BGPattern" patternUnits="userSpaceOnUse" alignment="0 0" imageRepeat="None" />
    <mask fill="white" id="Clip657">
      <path d="M 25 26.71875  L 50 11.0859375  L 50 15.3046875  L 25 30.9296875  L 0 15.3125  L 0 11.09375  L 25 26.71875  Z M 12.1328125 13.875  C 19.140625 8.0625  29.2734375 9.3359375  34.8046875 16.7109375  L 38.484375 14.4140625  C 35.578125 10.0546875  30.6171875 7.1796875  24.9921875 7.1796875  C 19.3671875 7.1796875  14.406250000000002 10.046875  11.5078125 14.3984375  L 11.53125 14.3984375  C 11.7265625 14.21875  11.9296875 14.046875  12.1328125 13.875  Z M 24.984375 14.3515625  C 21.9453125 14.3515625  19.25 15.8671875  17.609375 18.1796875  C 18.9296875 17.25  20.4609375 16.71875  22.09375 16.71875  C 24.78125 16.71875  27.187499999999996 18.15625  28.84375 20.4375  L 32.390625 18.21875  C 30.757812499999996 15.8828125  28.046875 14.3515625  24.984375 14.3515625  Z M 5.421875 10.6015625  C 6.1953125 9.78125  7.195312500000001 8.765625  8.09375 8.0546875  C 18.390625 -0.09375  32.953125 2.0859375  40.7109375 12.90625  L 40.765625 12.984375  L 44.578125 10.609375  C 40.3984375 4.2265625  33.1875 0.0078125  24.9921875 0.0078125  C 16.90625 0.0078125  9.6328125 4.1875  5.421875 10.6015625  Z " fill-rule="evenodd" />
    </mask>
  </defs>
  <g>
    <path d="M 25 26.71875  L 50 11.0859375  L 50 15.3046875  L 25 30.9296875  L 0 15.3125  L 0 11.09375  L 25 26.71875  Z M 12.1328125 13.875  C 19.140625 8.0625  29.2734375 9.3359375  34.8046875 16.7109375  L 38.484375 14.4140625  C 35.578125 10.0546875  30.6171875 7.1796875  24.9921875 7.1796875  C 19.3671875 7.1796875  14.406250000000002 10.046875  11.5078125 14.3984375  L 11.53125 14.3984375  C 11.7265625 14.21875  11.9296875 14.046875  12.1328125 13.875  Z M 24.984375 14.3515625  C 21.9453125 14.3515625  19.25 15.8671875  17.609375 18.1796875  C 18.9296875 17.25  20.4609375 16.71875  22.09375 16.71875  C 24.78125 16.71875  27.187499999999996 18.15625  28.84375 20.4375  L 32.390625 18.21875  C 30.757812499999996 15.8828125  28.046875 14.3515625  24.984375 14.3515625  Z M 5.421875 10.6015625  C 6.1953125 9.78125  7.195312500000001 8.765625  8.09375 8.0546875  C 18.390625 -0.09375  32.953125 2.0859375  40.7109375 12.90625  L 40.765625 12.984375  L 44.578125 10.609375  C 40.3984375 4.2265625  33.1875 0.0078125  24.9921875 0.0078125  C 16.90625 0.0078125  9.6328125 4.1875  5.421875 10.6015625  Z " fill-rule="nonzero" fill="rgba(0, 0, 0, 1)" stroke="none" class="fill" />
    <path d="M 25 26.71875  L 50 11.0859375  L 50 15.3046875  L 25 30.9296875  L 0 15.3125  L 0 11.09375  L 25 26.71875  Z " stroke-width="0" stroke-dasharray="0" stroke="rgba(255, 255, 255, 0)" fill="none" class="stroke" mask="url(#Clip657)" />
    <path d="M 12.1328125 13.875  C 19.140625 8.0625  29.2734375 9.3359375  34.8046875 16.7109375  L 38.484375 14.4140625  C 35.578125 10.0546875  30.6171875 7.1796875  24.9921875 7.1796875  C 19.3671875 7.1796875  14.406250000000002 10.046875  11.5078125 14.3984375  L 11.53125 14.3984375  C 11.7265625 14.21875  11.9296875 14.046875  12.1328125 13.875  Z " stroke-width="0" stroke-dasharray="0" stroke="rgba(255, 255, 255, 0)" fill="none" class="stroke" mask="url(#Clip657)" />
    <path d="M 24.984375 14.3515625  C 21.9453125 14.3515625  19.25 15.8671875  17.609375 18.1796875  C 18.9296875 17.25  20.4609375 16.71875  22.09375 16.71875  C 24.78125 16.71875  27.187499999999996 18.15625  28.84375 20.4375  L 32.390625 18.21875  C 30.757812499999996 15.8828125  28.046875 14.3515625  24.984375 14.3515625  Z " stroke-width="0" stroke-dasharray="0" stroke="rgba(255, 255, 255, 0)" fill="none" class="stroke" mask="url(#Clip657)" />
    <path d="M 5.421875 10.6015625  C 6.1953125 9.78125  7.195312500000001 8.765625  8.09375 8.0546875  C 18.390625 -0.09375  32.953125 2.0859375  40.7109375 12.90625  L 40.765625 12.984375  L 44.578125 10.609375  C 40.3984375 4.2265625  33.1875 0.0078125  24.9921875 0.0078125  C 16.90625 0.0078125  9.6328125 4.1875  5.421875 10.6015625  Z " stroke-width="0" stroke-dasharray="0" stroke="rgba(255, 255, 255, 0)" fill="none" class="stroke" mask="url(#Clip657)" />
  </g>
</svg>