<?xml version="1.0" encoding="utf-8"?>
<svg version="1.1" xmlns:xlink="http://www.w3.org/1999/xlink" width="50px" height="42px" xmlns="http://www.w3.org/2000/svg">
  <defs>
    <pattern id="BGPattern" patternUnits="userSpaceOnUse" alignment="0 0" imageRepeat="None" />
    <mask fill="white" id="Clip901">
      <path d="M 43.508506944444434 34.12031250000001  C 44.86909722222222 34.261024305555566  47.801302083333326 36.32526041666671  47.801302083333326 37.87352430555558  C 47.801302083333326 38.88220486111112  46.44079861111112 39.56250000000003  45.00980902777778 39.16371527777781  C 43.954253472222206 38.88220486111112  42.28880208333334 37.63897569444447  41.866493055555566 36.79444444444448  C 41.37395833333335 35.78576388888891  42.21840277777778 33.9560763888889  43.508506944444434 34.12031250000001  Z M 21.43506944444445 3.273697916666663  C 25.305555555555543 1.1624999999999943  29.269878472222217 1.913194444444457  32.36631944444446 5.314496527777778  C 32.037934027777766 -0.94861111111112  23.616666666666674 -1.6054687500000002  21.43506944444445 3.273697916666663  Z M 8.111111111111114 36.79444444444448  C 8.62725694444444 35.78576388888891  7.782812500000006 33.9560763888889  6.4926215277777715 34.12031250000001  C 5.132118055555566 34.261024305555566  2.1999131944444343 36.32526041666668  2.1999131944444343 37.87352430555558  C 2.1999131944444343 38.88220486111112  3.5604166666666686 39.56250000000003  4.991319444444457 39.16371527777781  C 6.046875 38.88220486111112  7.688888888888896 37.63897569444447  8.111111111111114 36.79444444444448  Z M 49.2318576388889 34.35486111111112  C 50.11171874999999 34.040625000000006  50.18854166666665 34.535243055555554  49.701388888888886 35.36354166666669  C 49.79522569444444 35.668489583333354  49.865624999999994 35.97343750000002  49.865624999999994 36.30182291666668  C 49.935937499999994 39.04626736111112  46.01866319444446 41.86128472222225  43.48515624999999 41.95503472222225  C 41.983854166666674 42.02534722222225  40.48255208333333 41.22786458333337  39.778906250000006 39.91423611111114  C 29.926736111111097 40.2660590277778  20.074565972222217 40.336458333333354  10.245920138888891 39.91423611111114  C 9.518750000000011 41.22786458333337  8.017447916666669 42.00190972222225  6.516145833333326 41.95503472222225  C 4.00616319444444 41.8611979166667  0.08880208333332007 39.04626736111112  0.1356770833333485 36.30182291666668  C 0.1591145833333485 35.97343750000002  0.20607638888890276 35.668489583333354  0.2999131944444571 35.36354166666669  C -0.18324652777778283 34.54210069444446  -0.12065972222222852 34.0369791666667  0.7690972222222285 34.35486111111112  C 1.0506076388888914 33.9092013888889  1.3789930555555543 33.533854166666686  1.7309027777777715 33.15850694444447  C 1.5078125 32.210850694444474  1.8411458333333428 31.93506944444445  2.6926215277777885 32.360937500000034  C 3.0914062500000057 32.07942708333337  3.560503472222223 31.798003472222238  4.076649305555549 31.56336805555557  C 4.076649305555549 30.195572916666688  5.104340277777766 30.597135416666674  5.577951388888891 31.0707465277778  C 6.66015625 30.916232638888914  7.325260416666681 31.132291666666674  7.900260416666669 31.56336805555557  L 7.900260416666669 29.851041666666674  C 6.772916666666674 29.851041666666674  4.372395833333343 28.86362847222225  3.9124131944444396 26.70763888888891  C 3.480642361111109 24.908593750000023  4.138715277777777 23.402517361111137  6.094010416666663 22.57916666666668  C 6.164322916666663 22.06310763888891  6.797743055555571 21.359375000000004  7.384114583333343 21.195138888888895  C 8.040972222222223 21.030902777777786  8.46319444444444 21.593923611111137  8.603906249999994 22.08654513888891  C 9.248437499999994 22.08654513888891  10.145312499999989 22.213715277777794  10.43359375 22.79027777777779  C 10.902777777777771 22.743315972222234  11.395312499999989 22.67291666666668  11.864496527777789 22.62604166666668  C 11.65338541666668 22.46180555555557  11.418836805555543 22.321093750000014  11.16076388888888 22.227256944444463  C 10.715104166666663 21.453211805555554  9.964409722222229 21.265538194444446  9.026128472222211 21.21857638888889  C 9.026128472222211 21.14826388888889  9.026128472222211 21.077864583333337  9.049565972222211 20.984027777777783  C 7.3371527777777885 20.93706597222223  5.22595486111112 20.49140625000001  4.287673611111103 19.43585069444447  C 2.43689236111112 17.383940972222234  2.9044270833333314 12.180902777777789  5.343229166666674 10.451649305555549  C 6.070399305555554 9.959027777777777  7.219791666666681 10.381249999999994  7.313628472222235 11.296093750000011  C 7.524131944444434 13.084114583333331  7.34826388888888 13.625347222222217  9.588975694444457 13.548003472222234  C 10.292708333333337 12.86779513888888  11.043402777777771 12.281336805555554  11.887847222222234 11.812152777777783  C 10.597743055555554 11.694791666666676  9.377951388888903 11.952864583333337  8.087673611111114 12.140538194444446  C 9.194618055555566 11.057204861111103  10.166927083333348 9.932031249999994  13.013715277777777 8.45763888888888  C 15.054600694444446 7.425520833333337  17.35338541666667 6.651388888888904  19.62873263888889 6.44036458333332  C 18.010156249999994 5.760069444444439  16.157118055555543 5.408159722222223  14.444618055555566 5.00946180555556  C 21.08307291666665 3.6019965277777715  29.598177083333326 3.0859375  35.65026041666667 8.270052083333326  C 37.22187500000001 9.60711805555556  38.46510416666666 11.413368055555566  39.35651041666665 13.477690972222232  C 42.81128472222221 13.898958333333324  42.522309027777794 12.99322916666668  42.7109375 11.296093750000011  C 42.804774305555554 10.404687499999994  43.95416666666665 9.959027777777777  44.68133680555553 10.475086805555549  C 45.97144097222221 11.389930555555566  46.60486111111112 13.149218749999989  46.815885416666674 14.650520833333331  C 47.00355902777778 16.198697916666674  46.839322916666674 18.23949652777779  45.73689236111113 19.43585069444444  C 44.798611111111114 20.49140625000001  42.757725694444446 20.960590277777783  41.06883680555555 21.007465277777783  L 41.06883680555555 21.242100694444446  C 40.107031250000006 21.265538194444446  39.30946180555554 21.453211805555554  38.84027777777777 22.250781250000017  C 38.58229166666666 22.34461805555557  38.347743055555554 22.485416666666676  38.11310763888889 22.64956597222223  C 38.60572916666666 22.696440972222234  39.098350694444434 22.76684027777779  39.567534722222206 22.813715277777785  C 39.729774305555566 22.325954861111114  40.65564236111112 22.08654513888891  41.39713541666666 22.08654513888891  C 41.53784722222221 21.61736111111111  41.98359375000001 21.054427083333337  42.61692708333334 21.195138888888895  C 43.25026041666666 21.335850694444446  43.83671874999999 22.063020833333326  43.90711805555554 22.57916666666668  C 44.84539930555556 22.954513888888897  45.83064236111113 23.634722222222255  46.08862847222224 24.807638888888903  C 46.25286458333335 25.511371527777783  46.229340277777794 26.12126736111111  46.11206597222221 26.70763888888891  C 45.615017361111114 28.90052083333336  43.21614583333334 29.851041666666674  42.124305555555566 29.851041666666674  C 42.124305555555566 30.43750000000003  42.124305555555566 31.0004340277778  42.100868055555566 31.56336805555557  C 42.796180555555566 31.042013888888903  43.52161458333333 30.94201388888891  44.42309027777776 31.0707465277778  C 44.93689236111112 30.55694444444447  45.94782986111113 30.25390625  45.94782986111113 31.56336805555557  C 46.4404513888889 31.798003472222238  46.93298611111112 32.07942708333334  47.33185763888889 32.360937500000006  C 48.208593750000006 31.92248263888891  48.518402777777794 32.31414930555559  48.27013888888888 33.15850694444447  C 48.62196180555554 33.53376736111113  48.97387152777776 33.93255208333335  49.2318576388889 34.35486111111112  Z M 43.508506944444434 12.046788194444446  C 43.50859374999999 12.58637152777777  43.391319444444434 13.055468750000017  43.29748263888888 13.313541666666678  C 44.79878472222222 13.900000000000006  45.5728298611111 15.23706597222224  45.924652777777766 16.409895833333337  C 46.01848958333332 15.495052083333348  45.69010416666666 12.985156250000015  44.728298611111086 11.976475694444446  C 44.09496527777776 11.34314236111112  43.508506944444434 11.53081597222223  43.508506944444434 12.046788194444446  Z M 42.89861111111111 13.899913194444451  C 42.6171875 14.181423611111114  42.1011284722222 14.322135416666669  41.67890624999998 14.392534722222223  C 42.80486111111111 15.753038194444457  43.15668402777777 18.00494791666668  42.781336805555554 19.858072916666686  C 43.71961805555554 19.670399305555577  44.564062500000006 19.318576388888914  45.05668402777775 18.802517361111114  C 45.220920138888886 18.614843750000006  45.38506944444444 18.380295138888897  45.478906249999994 18.14574652777779  C 45.38506944444444 16.292621527777783  44.58749999999998 14.439409722222223  42.89861111111111 13.899913194444451  Z M 40.810937499999994 14.486371527777777  C 40.48255208333333 14.486371527777777  40.107204861111086 14.486371527777777  39.77881944444442 14.462934027777775  C 40.43567708333333 16.24565972222223  40.85789930555555 18.16918402777779  41.0220486111111 20.06927083333335  C 41.326996527777766 20.06927083333335  41.67890624999998 20.04583333333335  42.030729166666674 19.998871527777794  C 42.546788194444446 17.887673611111126  42.007291666666674 15.51848958333335  40.810937499999994 14.486371527777777  Z M 4.123437499999994 16.409895833333337  C 4.475260416666657 15.236979166666686  5.24939236111112 13.899913194444451  6.750694444444434 13.313541666666678  C 6.65685763888888 13.055468750000017  6.539583333333327 12.58637152777777  6.539583333333327 12.046788194444446  C 6.539583333333327 11.530729166666676  5.9296875 11.343055555555566  5.319791666666674 11.976475694444446  C 4.334548611111103 12.985156250000015  4.02960069444444 15.495052083333348  4.123437499999994 16.409895833333337  Z M 4.967881944444457 18.80260416666667  C 5.4605034722222285 19.34210069444447  6.304947916666663 19.67048611111113  7.243315972222235 19.85815972222224  C 6.8679687499999895 18.005034722222234  7.219878472222234 15.753038194444457  8.345833333333331 14.392621527777777  C 7.92352430555556 14.322222222222223  7.407552083333342 14.181510416666669  7.12604166666668 13.900000000000006  C 5.4370659722222285 14.439496527777777  4.662934027777766 16.292621527777783  4.5456597222222115 18.145833333333343  C 4.662934027777766 18.38038194444445  4.8036458333333485 18.61493055555556  4.967881944444457 18.80260416666667  Z M 9.119878472222211 20.06927083333335  C 9.330989583333348 18.14574652777779  9.917447916666674 16.26909722222223  10.832291666666663 14.556684027777777  C 10.386631944444446 14.650520833333331  9.964409722222229 14.814756944444468  9.542187500000011 14.978993055555577  L 8.48663194444444 15.424652777777794  L 8.48663194444444 15.401215277777794  C 7.853298611111114 16.621006944444446  7.618663194444451 18.380295138888897  8.017447916666669 19.998871527777794  C 8.416232638888886 20.04583333333335  8.768055555555549 20.06927083333335  9.119878472222211 20.06927083333335  Z M 25.094444444444434 5.947829861111103  C 21.45850694444445 5.947829861111103  18.47942708333335 8.903472222222234  18.47942708333335 12.539409722222217  C 18.47942708333335 16.198697916666674  21.45850694444445 19.15442708333333  25.094444444444434 19.15442708333333  C 28.730381944444446 19.15442708333333  31.70946180555555 16.198697916666674  31.70946180555555 12.539409722222217  C 31.70946180555555 8.903472222222234  28.730381944444446 5.947829861111103  25.094444444444434 5.947829861111103  Z M 35.13428819444442 21.077864583333337  C 34.008333333333326 21.007552083333337  32.858854166666674 21.007552083333337  31.70946180555555 20.984114583333337  C 32.57482638888888 25.377170138888918  31.995833333333334 26.59973958333336  33.14036458333334 26.027430555555583  C 34.5243923611111 25.323697916666674  35.1107638888889 22.626128472222234  35.13428819444442 21.077864583333337  Z M 30.44270833333334 20.937152777777783  C 28.800694444444446 20.913715277777783  27.13524305555555 20.913715277777783  25.49322916666668 20.937152777777783  L 25.49322916666668 20.913715277777783  C 25.46979166666668 21.359375000000004  25.516666666666655 24.22126736111113  25.868576388888897 24.47925347222224  C 26.83029513888889 24.948437500000015  29.293315972222217 24.878038194444457  30.301996527777785 24.573090277777794  C 30.77118055555556 24.432378472222236  30.513107638888897 21.35937500000003  30.44270833333334 20.937152777777783  Z M 24.15607638888889 25.60520833333334  C 24.554947916666663 25.39409722222223  24.367274305555554 21.664322916666663  24.273350694444446 20.937152777777783  L 24.273350694444446 20.913715277777783  C 22.58446180555555 20.937152777777783  20.91901041666668 20.937152777777783  19.25347222222223 20.984114583333337  C 19.08923611111112 21.781597222222246  18.85468750000001 25.22986111111112  19.417708333333337 25.464496527777783  C 20.543663194444434 25.957118055555583  23.03020833333332 25.910156249999996  24.15607638888889 25.60520833333334  Z M 14.91388888888889 21.17170138888889  C 14.444704861111122 22.884114583333343  14.937326388888891 25.089149305555562  16.83741319444445 25.933680555555583  C 17.306597222222223 26.14479166666669  17.58802083333333 26.14479166666669  17.681857638888886 25.558333333333337  C 17.846093749999994 24.807725694444457  17.892968749999994 22.36805555555557  18.104166666666657 21.03098958333334  C 17.048611111111114 21.054427083333337  15.969531249999989 21.10138888888889  14.91388888888889 21.17170138888889  Z M 11.840798611111126 23.892795138888914  C 12.052864583333331 24.21076388888892  11.975260416666686 24.67855902777779  11.137239583333326 24.97187500000001  C 14.937413194444446 29.05347222222224  19.18315972222223 32.40789930555559  24.672222222222217 34.21406250000001  C 30.536631944444455 32.54861111111114  34.712065972222234 29.006510416666682  38.840538194444434 24.924913194444454  C 37.87743055555555 24.550347222222257  38.17083333333335 24.02534722222225  38.20720486111111 23.916232638888914  C 37.433072916666674 23.845920138888914  36.659027777777794 23.751996527777806  35.90833333333333 23.681684027777806  C 35.0873263888889 26.543489583333354  32.788541666666674 28.279340277777806  31.85017361111113 26.426128472222246  C 31.61562499999999 25.98046875000003  31.54522569444444 25.41744791666667  31.451388888888886 24.971788194444457  C 31.123003472222223 25.698958333333366  30.301909722222238 25.675520833333366  29.316753472222217 25.745920138888923  C 28.167361111111124 25.839756944444474  26.572222222222226 25.863194444444474  25.493142361111126 25.48793402777781  C 25.235156250000017 26.61388888888891  24.53142361111111 26.61388888888891  23.170920138888903 26.731163194444466  C 21.951128472222223 26.84852430555557  18.948524305555566 27.08307291666668  18.409027777777794 25.792881944444474  C 18.31519097222224 28.279340277777806  15.35954861111111 26.66076388888891  14.49157986111112 25.18298611111112  C 14.210069444444457 24.69036458333335  14.022395833333348 24.197743055555577  13.881684027777794 23.658246527777806  C 13.201388888888884 23.728559027777806  12.521180555555562 23.798958333333363  11.840798611111126 23.892795138888914  Z M 9.964409722222229 38.858680555555594  C 10.011197916666674 38.64756944444446  10.034722222222229 38.41302083333335  10.034722222222229 38.154947916666686  C 9.542187500000011 36.137673611111126  8.416145833333331 33.83880208333335  7.126041666666652 33.46345486111113  C 5.17907986111112 32.876996527777806  1.1443576388888914 35.504253472222246  1.37890625 38.201822916666686  C 2.481423611111097 39.89079861111114  4.850607638888903 41.29817708333337  6.516145833333326 41.368576388888926  C 8.064322916666669 41.438888888888926  9.635937500000011 40.406770833333354  9.964409722222229 38.858680555555594  Z M 9.213888888888874 33.13515625000002  C 9.989843750000006 34.5209201388889  10.552951388888886 36.02699652777778  10.668055555555554 37.63897569444447  C 13.576822916666655 35.95000000000002  16.673177083333343 34.54253472222223  19.86345486111111 33.55737847222224  C 16.50902777777779 31.774652777777785  13.952170138888874 29.405381944444457  11.418749999999989 26.87196180555557  C 11.23107638888888 26.98932291666668  10.973090277777771 27.08307291666668  10.738541666666663 27.176909722222234  C 10.596440972222211 27.603125000000006  11.495312500000011 27.63958333333335  11.207725694444434 28.25598958333336  C 11.020052083333326 28.607899305555577  10.45703125 28.91284722222224  9.894097222222229 29.053559027777794  C 9.706510416666674 29.288107638888903  9.448437500000011 29.47578125000001  9.213888888888874 29.616493055555566  L 9.190451388888874 29.616493055555566  C 9.167013888888903 30.789322916666688  9.167013888888903 31.9623263888889  9.213888888888874 33.13515625000002  Z M 11.653385416666652 38.74140625000001  C 20.61406249999999 39.09331597222223  29.57482638888888 39.046354166666674  38.51215277777777 38.74140625000001  C 35.321875000000006 36.888281250000034  32.08472222222224 35.15243055555558  28.472309027777783 34.14375000000001  C 27.275954861111128 34.68324652777778  26.056250000000002 35.12890625000003  24.813020833333326 35.480815972222246  C 24.625347222222217 35.5512152777778  24.625347222222217 35.5512152777778  24.43767361111111 35.480815972222246  C 23.405555555555566 35.15243055555558  22.42039930555555 34.777083333333366  21.411718750000006 34.33142361111112  C 17.91649305555555 35.34010416666669  14.702864583333335 36.864843750000034  11.653385416666652 38.74140625000001  L 11.629947916666652 38.74140625000001  L 11.629947916666652 38.76484375000001  C 11.653385416666652 38.76484375000001  11.653385416666652 38.76484375000001  11.653385416666652 38.74140625000001  Z M 39.426909722222234 37.662326388888914  C 39.51805555555558 36.38697916666666  40.054600694444446 34.559114583333326  40.85789930555558 33.18194444444447  L 40.83446180555558 33.20538194444447  C 40.88142361111113 32.00902777777779  40.9048611111111 30.812760416666695  40.9048611111111 29.61640625000001  C 40.64678819444444 29.475694444444457  40.41223958333333 29.264496527777794  40.20112847222222 29.029947916666686  C 39.63819444444445 28.91267361111113  39.075173611111126 28.58428819444447  38.88750000000002 28.255815972222223  C 38.72326388888891 27.90399305555556  39.00477430555557 27.599045138888897  39.40355902777779 27.364409722222234  C 39.38012152777779 27.31744791666668  39.356597222222234 27.223697916666683  39.356597222222234 27.153298611111126  C 39.098611111111126 27.08289930555557  38.88741319444446 26.989062500000017  38.699739583333326 26.871788194444463  C 35.955295138888914 29.42864583333335  33.02300347222223 31.797916666666683  29.715538194444463 33.53376736111113  C 33.09348958333334 34.542447916666674  36.30711805555558 35.97335069444446  39.426909722222234 37.662326388888914  Z M 48.62230902777776 38.201996527777794  C 48.88038194444442 35.5043402777778  44.84565972222222 32.876996527777806  42.87526041666666 33.463541666666686  C 41.60850694444446 33.83880208333335  40.45911458333333 36.137673611111126  39.96649305555556 38.15503472222224  C 39.96649305555556 40.22326388888891  41.81354166666668 41.44470486111112  43.485069444444434 41.368750000000034  C 45.15052083333333 41.29835069444448  47.51979166666666 39.890972222222246  48.62230902777776 38.201996527777794  Z M 25.258593749999992 10.428211805555577  L 25.23515624999999 10.428211805555577  C 25.23906249999999 10.428211805555577  25.242881944444434 10.42847222222224  25.246788194444434 10.42847222222224  C 25.25078124999999 10.42847222222224  25.254600694444434 10.428211805555577  25.258593749999992 10.428211805555577  Z M 20.872048611111097 13.641927083333341  C 20.238628472222217 16.59913194444445  22.553298611111103 18.82604166666667  25.23515624999999 18.82604166666667  C 27.721701388888874 18.82604166666667  29.738975694444434 16.949479166666663  29.738975694444434 14.627170138888884  C 29.738975694444434 11.494184027777777  26.222743055555554 9.585590277777783  23.475868055555566 10.780121527777792  C 24.296875 11.038107638888905  24.906770833333326 11.788802083333337  24.906770833333326 12.656684027777771  C 24.906770833333326 14.675520833333337  22.016927083333343 15.430555555555571  20.872048611111097 13.641927083333341  Z M 8.439583333333331 37.75625000000002  C 7.665538194444451 37.89696180555558  5.859288194444446 39.21059027777781  5.906163194444446 39.93776041666669  C 5.953038194444446 40.500781250000045  6.961718749999989 41.04027777777782  7.782725694444452 40.758767361111154  C 8.369184027777777 40.52413194444449  9.049479166666657 39.84392361111114  9.284027777777766 39.351302083333366  C 9.542100694444457 38.74140625000001  9.190190972222211 37.615451388888914  8.439583333333331 37.75625000000002  Z M 44.09496527777776 39.93776041666669  C 44.16536458333334 39.21059027777778  42.33567708333334 37.89696180555558  41.5615451388889 37.75625000000002  C 40.834374999999994 37.61553819444447  40.48246527777778 38.74140625000001  40.74053819444444 39.351302083333366  C 40.95164930555555 39.84392361111114  41.63194444444446 40.52413194444446  42.24184027777778 40.758767361111154  C 43.03932291666666 41.04027777777782  44.07152777777776 40.500781250000045  44.09496527777776 39.93776041666669  Z " fill-rule="evenodd" />
    </mask>
  </defs>
  <g>
    <path d="M 43.508506944444434 34.12031250000001  C 44.86909722222222 34.261024305555566  47.801302083333326 36.32526041666671  47.801302083333326 37.87352430555558  C 47.801302083333326 38.88220486111112  46.44079861111112 39.56250000000003  45.00980902777778 39.16371527777781  C 43.954253472222206 38.88220486111112  42.28880208333334 37.63897569444447  41.866493055555566 36.79444444444448  C 41.37395833333335 35.78576388888891  42.21840277777778 33.9560763888889  43.508506944444434 34.12031250000001  Z M 21.43506944444445 3.273697916666663  C 25.305555555555543 1.1624999999999943  29.269878472222217 1.913194444444457  32.36631944444446 5.314496527777778  C 32.037934027777766 -0.94861111111112  23.616666666666674 -1.6054687500000002  21.43506944444445 3.273697916666663  Z M 8.111111111111114 36.79444444444448  C 8.62725694444444 35.78576388888891  7.782812500000006 33.9560763888889  6.4926215277777715 34.12031250000001  C 5.132118055555566 34.261024305555566  2.1999131944444343 36.32526041666668  2.1999131944444343 37.87352430555558  C 2.1999131944444343 38.88220486111112  3.5604166666666686 39.56250000000003  4.991319444444457 39.16371527777781  C 6.046875 38.88220486111112  7.688888888888896 37.63897569444447  8.111111111111114 36.79444444444448  Z M 49.2318576388889 34.35486111111112  C 50.11171874999999 34.040625000000006  50.18854166666665 34.535243055555554  49.701388888888886 35.36354166666669  C 49.79522569444444 35.668489583333354  49.865624999999994 35.97343750000002  49.865624999999994 36.30182291666668  C 49.935937499999994 39.04626736111112  46.01866319444446 41.86128472222225  43.48515624999999 41.95503472222225  C 41.983854166666674 42.02534722222225  40.48255208333333 41.22786458333337  39.778906250000006 39.91423611111114  C 29.926736111111097 40.2660590277778  20.074565972222217 40.336458333333354  10.245920138888891 39.91423611111114  C 9.518750000000011 41.22786458333337  8.017447916666669 42.00190972222225  6.516145833333326 41.95503472222225  C 4.00616319444444 41.8611979166667  0.08880208333332007 39.04626736111112  0.1356770833333485 36.30182291666668  C 0.1591145833333485 35.97343750000002  0.20607638888890276 35.668489583333354  0.2999131944444571 35.36354166666669  C -0.18324652777778283 34.54210069444446  -0.12065972222222852 34.0369791666667  0.7690972222222285 34.35486111111112  C 1.0506076388888914 33.9092013888889  1.3789930555555543 33.533854166666686  1.7309027777777715 33.15850694444447  C 1.5078125 32.210850694444474  1.8411458333333428 31.93506944444445  2.6926215277777885 32.360937500000034  C 3.0914062500000057 32.07942708333337  3.560503472222223 31.798003472222238  4.076649305555549 31.56336805555557  C 4.076649305555549 30.195572916666688  5.104340277777766 30.597135416666674  5.577951388888891 31.0707465277778  C 6.66015625 30.916232638888914  7.325260416666681 31.132291666666674  7.900260416666669 31.56336805555557  L 7.900260416666669 29.851041666666674  C 6.772916666666674 29.851041666666674  4.372395833333343 28.86362847222225  3.9124131944444396 26.70763888888891  C 3.480642361111109 24.908593750000023  4.138715277777777 23.402517361111137  6.094010416666663 22.57916666666668  C 6.164322916666663 22.06310763888891  6.797743055555571 21.359375000000004  7.384114583333343 21.195138888888895  C 8.040972222222223 21.030902777777786  8.46319444444444 21.593923611111137  8.603906249999994 22.08654513888891  C 9.248437499999994 22.08654513888891  10.145312499999989 22.213715277777794  10.43359375 22.79027777777779  C 10.902777777777771 22.743315972222234  11.395312499999989 22.67291666666668  11.864496527777789 22.62604166666668  C 11.65338541666668 22.46180555555557  11.418836805555543 22.321093750000014  11.16076388888888 22.227256944444463  C 10.715104166666663 21.453211805555554  9.964409722222229 21.265538194444446  9.026128472222211 21.21857638888889  C 9.026128472222211 21.14826388888889  9.026128472222211 21.077864583333337  9.049565972222211 20.984027777777783  C 7.3371527777777885 20.93706597222223  5.22595486111112 20.49140625000001  4.287673611111103 19.43585069444447  C 2.43689236111112 17.383940972222234  2.9044270833333314 12.180902777777789  5.343229166666674 10.451649305555549  C 6.070399305555554 9.959027777777777  7.219791666666681 10.381249999999994  7.313628472222235 11.296093750000011  C 7.524131944444434 13.084114583333331  7.34826388888888 13.625347222222217  9.588975694444457 13.548003472222234  C 10.292708333333337 12.86779513888888  11.043402777777771 12.281336805555554  11.887847222222234 11.812152777777783  C 10.597743055555554 11.694791666666676  9.377951388888903 11.952864583333337  8.087673611111114 12.140538194444446  C 9.194618055555566 11.057204861111103  10.166927083333348 9.932031249999994  13.013715277777777 8.45763888888888  C 15.054600694444446 7.425520833333337  17.35338541666667 6.651388888888904  19.62873263888889 6.44036458333332  C 18.010156249999994 5.760069444444439  16.157118055555543 5.408159722222223  14.444618055555566 5.00946180555556  C 21.08307291666665 3.6019965277777715  29.598177083333326 3.0859375  35.65026041666667 8.270052083333326  C 37.22187500000001 9.60711805555556  38.46510416666666 11.413368055555566  39.35651041666665 13.477690972222232  C 42.81128472222221 13.898958333333324  42.522309027777794 12.99322916666668  42.7109375 11.296093750000011  C 42.804774305555554 10.404687499999994  43.95416666666665 9.959027777777777  44.68133680555553 10.475086805555549  C 45.97144097222221 11.389930555555566  46.60486111111112 13.149218749999989  46.815885416666674 14.650520833333331  C 47.00355902777778 16.198697916666674  46.839322916666674 18.23949652777779  45.73689236111113 19.43585069444444  C 44.798611111111114 20.49140625000001  42.757725694444446 20.960590277777783  41.06883680555555 21.007465277777783  L 41.06883680555555 21.242100694444446  C 40.107031250000006 21.265538194444446  39.30946180555554 21.453211805555554  38.84027777777777 22.250781250000017  C 38.58229166666666 22.34461805555557  38.347743055555554 22.485416666666676  38.11310763888889 22.64956597222223  C 38.60572916666666 22.696440972222234  39.098350694444434 22.76684027777779  39.567534722222206 22.813715277777785  C 39.729774305555566 22.325954861111114  40.65564236111112 22.08654513888891  41.39713541666666 22.08654513888891  C 41.53784722222221 21.61736111111111  41.98359375000001 21.054427083333337  42.61692708333334 21.195138888888895  C 43.25026041666666 21.335850694444446  43.83671874999999 22.063020833333326  43.90711805555554 22.57916666666668  C 44.84539930555556 22.954513888888897  45.83064236111113 23.634722222222255  46.08862847222224 24.807638888888903  C 46.25286458333335 25.511371527777783  46.229340277777794 26.12126736111111  46.11206597222221 26.70763888888891  C 45.615017361111114 28.90052083333336  43.21614583333334 29.851041666666674  42.124305555555566 29.851041666666674  C 42.124305555555566 30.43750000000003  42.124305555555566 31.0004340277778  42.100868055555566 31.56336805555557  C 42.796180555555566 31.042013888888903  43.52161458333333 30.94201388888891  44.42309027777776 31.0707465277778  C 44.93689236111112 30.55694444444447  45.94782986111113 30.25390625  45.94782986111113 31.56336805555557  C 46.4404513888889 31.798003472222238  46.93298611111112 32.07942708333334  47.33185763888889 32.360937500000006  C 48.208593750000006 31.92248263888891  48.518402777777794 32.31414930555559  48.27013888888888 33.15850694444447  C 48.62196180555554 33.53376736111113  48.97387152777776 33.93255208333335  49.2318576388889 34.35486111111112  Z M 43.508506944444434 12.046788194444446  C 43.50859374999999 12.58637152777777  43.391319444444434 13.055468750000017  43.29748263888888 13.313541666666678  C 44.79878472222222 13.900000000000006  45.5728298611111 15.23706597222224  45.924652777777766 16.409895833333337  C 46.01848958333332 15.495052083333348  45.69010416666666 12.985156250000015  44.728298611111086 11.976475694444446  C 44.09496527777776 11.34314236111112  43.508506944444434 11.53081597222223  43.508506944444434 12.046788194444446  Z M 42.89861111111111 13.899913194444451  C 42.6171875 14.181423611111114  42.1011284722222 14.322135416666669  41.67890624999998 14.392534722222223  C 42.80486111111111 15.753038194444457  43.15668402777777 18.00494791666668  42.781336805555554 19.858072916666686  C 43.71961805555554 19.670399305555577  44.564062500000006 19.318576388888914  45.05668402777775 18.802517361111114  C 45.220920138888886 18.614843750000006  45.38506944444444 18.380295138888897  45.478906249999994 18.14574652777779  C 45.38506944444444 16.292621527777783  44.58749999999998 14.439409722222223  42.89861111111111 13.899913194444451  Z M 40.810937499999994 14.486371527777777  C 40.48255208333333 14.486371527777777  40.107204861111086 14.486371527777777  39.77881944444442 14.462934027777775  C 40.43567708333333 16.24565972222223  40.85789930555555 18.16918402777779  41.0220486111111 20.06927083333335  C 41.326996527777766 20.06927083333335  41.67890624999998 20.04583333333335  42.030729166666674 19.998871527777794  C 42.546788194444446 17.887673611111126  42.007291666666674 15.51848958333335  40.810937499999994 14.486371527777777  Z M 4.123437499999994 16.409895833333337  C 4.475260416666657 15.236979166666686  5.24939236111112 13.899913194444451  6.750694444444434 13.313541666666678  C 6.65685763888888 13.055468750000017  6.539583333333327 12.58637152777777  6.539583333333327 12.046788194444446  C 6.539583333333327 11.530729166666676  5.9296875 11.343055555555566  5.319791666666674 11.976475694444446  C 4.334548611111103 12.985156250000015  4.02960069444444 15.495052083333348  4.123437499999994 16.409895833333337  Z M 4.967881944444457 18.80260416666667  C 5.4605034722222285 19.34210069444447  6.304947916666663 19.67048611111113  7.243315972222235 19.85815972222224  C 6.8679687499999895 18.005034722222234  7.219878472222234 15.753038194444457  8.345833333333331 14.392621527777777  C 7.92352430555556 14.322222222222223  7.407552083333342 14.181510416666669  7.12604166666668 13.900000000000006  C 5.4370659722222285 14.439496527777777  4.662934027777766 16.292621527777783  4.5456597222222115 18.145833333333343  C 4.662934027777766 18.38038194444445  4.8036458333333485 18.61493055555556  4.967881944444457 18.80260416666667  Z M 9.119878472222211 20.06927083333335  C 9.330989583333348 18.14574652777779  9.917447916666674 16.26909722222223  10.832291666666663 14.556684027777777  C 10.386631944444446 14.650520833333331  9.964409722222229 14.814756944444468  9.542187500000011 14.978993055555577  L 8.48663194444444 15.424652777777794  L 8.48663194444444 15.401215277777794  C 7.853298611111114 16.621006944444446  7.618663194444451 18.380295138888897  8.017447916666669 19.998871527777794  C 8.416232638888886 20.04583333333335  8.768055555555549 20.06927083333335  9.119878472222211 20.06927083333335  Z M 25.094444444444434 5.947829861111103  C 21.45850694444445 5.947829861111103  18.47942708333335 8.903472222222234  18.47942708333335 12.539409722222217  C 18.47942708333335 16.198697916666674  21.45850694444445 19.15442708333333  25.094444444444434 19.15442708333333  C 28.730381944444446 19.15442708333333  31.70946180555555 16.198697916666674  31.70946180555555 12.539409722222217  C 31.70946180555555 8.903472222222234  28.730381944444446 5.947829861111103  25.094444444444434 5.947829861111103  Z M 35.13428819444442 21.077864583333337  C 34.008333333333326 21.007552083333337  32.858854166666674 21.007552083333337  31.70946180555555 20.984114583333337  C 32.57482638888888 25.377170138888918  31.995833333333334 26.59973958333336  33.14036458333334 26.027430555555583  C 34.5243923611111 25.323697916666674  35.1107638888889 22.626128472222234  35.13428819444442 21.077864583333337  Z M 30.44270833333334 20.937152777777783  C 28.800694444444446 20.913715277777783  27.13524305555555 20.913715277777783  25.49322916666668 20.937152777777783  L 25.49322916666668 20.913715277777783  C 25.46979166666668 21.359375000000004  25.516666666666655 24.22126736111113  25.868576388888897 24.47925347222224  C 26.83029513888889 24.948437500000015  29.293315972222217 24.878038194444457  30.301996527777785 24.573090277777794  C 30.77118055555556 24.432378472222236  30.513107638888897 21.35937500000003  30.44270833333334 20.937152777777783  Z M 24.15607638888889 25.60520833333334  C 24.554947916666663 25.39409722222223  24.367274305555554 21.664322916666663  24.273350694444446 20.937152777777783  L 24.273350694444446 20.913715277777783  C 22.58446180555555 20.937152777777783  20.91901041666668 20.937152777777783  19.25347222222223 20.984114583333337  C 19.08923611111112 21.781597222222246  18.85468750000001 25.22986111111112  19.417708333333337 25.464496527777783  C 20.543663194444434 25.957118055555583  23.03020833333332 25.910156249999996  24.15607638888889 25.60520833333334  Z M 14.91388888888889 21.17170138888889  C 14.444704861111122 22.884114583333343  14.937326388888891 25.089149305555562  16.83741319444445 25.933680555555583  C 17.306597222222223 26.14479166666669  17.58802083333333 26.14479166666669  17.681857638888886 25.558333333333337  C 17.846093749999994 24.807725694444457  17.892968749999994 22.36805555555557  18.104166666666657 21.03098958333334  C 17.048611111111114 21.054427083333337  15.969531249999989 21.10138888888889  14.91388888888889 21.17170138888889  Z M 11.840798611111126 23.892795138888914  C 12.052864583333331 24.21076388888892  11.975260416666686 24.67855902777779  11.137239583333326 24.97187500000001  C 14.937413194444446 29.05347222222224  19.18315972222223 32.40789930555559  24.672222222222217 34.21406250000001  C 30.536631944444455 32.54861111111114  34.712065972222234 29.006510416666682  38.840538194444434 24.924913194444454  C 37.87743055555555 24.550347222222257  38.17083333333335 24.02534722222225  38.20720486111111 23.916232638888914  C 37.433072916666674 23.845920138888914  36.659027777777794 23.751996527777806  35.90833333333333 23.681684027777806  C 35.0873263888889 26.543489583333354  32.788541666666674 28.279340277777806  31.85017361111113 26.426128472222246  C 31.61562499999999 25.98046875000003  31.54522569444444 25.41744791666667  31.451388888888886 24.971788194444457  C 31.123003472222223 25.698958333333366  30.301909722222238 25.675520833333366  29.316753472222217 25.745920138888923  C 28.167361111111124 25.839756944444474  26.572222222222226 25.863194444444474  25.493142361111126 25.48793402777781  C 25.235156250000017 26.61388888888891  24.53142361111111 26.61388888888891  23.170920138888903 26.731163194444466  C 21.951128472222223 26.84852430555557  18.948524305555566 27.08307291666668  18.409027777777794 25.792881944444474  C 18.31519097222224 28.279340277777806  15.35954861111111 26.66076388888891  14.49157986111112 25.18298611111112  C 14.210069444444457 24.69036458333335  14.022395833333348 24.197743055555577  13.881684027777794 23.658246527777806  C 13.201388888888884 23.728559027777806  12.521180555555562 23.798958333333363  11.840798611111126 23.892795138888914  Z M 9.964409722222229 38.858680555555594  C 10.011197916666674 38.64756944444446  10.034722222222229 38.41302083333335  10.034722222222229 38.154947916666686  C 9.542187500000011 36.137673611111126  8.416145833333331 33.83880208333335  7.126041666666652 33.46345486111113  C 5.17907986111112 32.876996527777806  1.1443576388888914 35.504253472222246  1.37890625 38.201822916666686  C 2.481423611111097 39.89079861111114  4.850607638888903 41.29817708333337  6.516145833333326 41.368576388888926  C 8.064322916666669 41.438888888888926  9.635937500000011 40.406770833333354  9.964409722222229 38.858680555555594  Z M 9.213888888888874 33.13515625000002  C 9.989843750000006 34.5209201388889  10.552951388888886 36.02699652777778  10.668055555555554 37.63897569444447  C 13.576822916666655 35.95000000000002  16.673177083333343 34.54253472222223  19.86345486111111 33.55737847222224  C 16.50902777777779 31.774652777777785  13.952170138888874 29.405381944444457  11.418749999999989 26.87196180555557  C 11.23107638888888 26.98932291666668  10.973090277777771 27.08307291666668  10.738541666666663 27.176909722222234  C 10.596440972222211 27.603125000000006  11.495312500000011 27.63958333333335  11.207725694444434 28.25598958333336  C 11.020052083333326 28.607899305555577  10.45703125 28.91284722222224  9.894097222222229 29.053559027777794  C 9.706510416666674 29.288107638888903  9.448437500000011 29.47578125000001  9.213888888888874 29.616493055555566  L 9.190451388888874 29.616493055555566  C 9.167013888888903 30.789322916666688  9.167013888888903 31.9623263888889  9.213888888888874 33.13515625000002  Z M 11.653385416666652 38.74140625000001  C 20.61406249999999 39.09331597222223  29.57482638888888 39.046354166666674  38.51215277777777 38.74140625000001  C 35.321875000000006 36.888281250000034  32.08472222222224 35.15243055555558  28.472309027777783 34.14375000000001  C 27.275954861111128 34.68324652777778  26.056250000000002 35.12890625000003  24.813020833333326 35.480815972222246  C 24.625347222222217 35.5512152777778  24.625347222222217 35.5512152777778  24.43767361111111 35.480815972222246  C 23.405555555555566 35.15243055555558  22.42039930555555 34.777083333333366  21.411718750000006 34.33142361111112  C 17.91649305555555 35.34010416666669  14.702864583333335 36.864843750000034  11.653385416666652 38.74140625000001  L 11.629947916666652 38.74140625000001  L 11.629947916666652 38.76484375000001  C 11.653385416666652 38.76484375000001  11.653385416666652 38.76484375000001  11.653385416666652 38.74140625000001  Z M 39.426909722222234 37.662326388888914  C 39.51805555555558 36.38697916666666  40.054600694444446 34.559114583333326  40.85789930555558 33.18194444444447  L 40.83446180555558 33.20538194444447  C 40.88142361111113 32.00902777777779  40.9048611111111 30.812760416666695  40.9048611111111 29.61640625000001  C 40.64678819444444 29.475694444444457  40.41223958333333 29.264496527777794  40.20112847222222 29.029947916666686  C 39.63819444444445 28.91267361111113  39.075173611111126 28.58428819444447  38.88750000000002 28.255815972222223  C 38.72326388888891 27.90399305555556  39.00477430555557 27.599045138888897  39.40355902777779 27.364409722222234  C 39.38012152777779 27.31744791666668  39.356597222222234 27.223697916666683  39.356597222222234 27.153298611111126  C 39.098611111111126 27.08289930555557  38.88741319444446 26.989062500000017  38.699739583333326 26.871788194444463  C 35.955295138888914 29.42864583333335  33.02300347222223 31.797916666666683  29.715538194444463 33.53376736111113  C 33.09348958333334 34.542447916666674  36.30711805555558 35.97335069444446  39.426909722222234 37.662326388888914  Z M 48.62230902777776 38.201996527777794  C 48.88038194444442 35.5043402777778  44.84565972222222 32.876996527777806  42.87526041666666 33.463541666666686  C 41.60850694444446 33.83880208333335  40.45911458333333 36.137673611111126  39.96649305555556 38.15503472222224  C 39.96649305555556 40.22326388888891  41.81354166666668 41.44470486111112  43.485069444444434 41.368750000000034  C 45.15052083333333 41.29835069444448  47.51979166666666 39.890972222222246  48.62230902777776 38.201996527777794  Z M 25.258593749999992 10.428211805555577  L 25.23515624999999 10.428211805555577  C 25.23906249999999 10.428211805555577  25.242881944444434 10.42847222222224  25.246788194444434 10.42847222222224  C 25.25078124999999 10.42847222222224  25.254600694444434 10.428211805555577  25.258593749999992 10.428211805555577  Z M 20.872048611111097 13.641927083333341  C 20.238628472222217 16.59913194444445  22.553298611111103 18.82604166666667  25.23515624999999 18.82604166666667  C 27.721701388888874 18.82604166666667  29.738975694444434 16.949479166666663  29.738975694444434 14.627170138888884  C 29.738975694444434 11.494184027777777  26.222743055555554 9.585590277777783  23.475868055555566 10.780121527777792  C 24.296875 11.038107638888905  24.906770833333326 11.788802083333337  24.906770833333326 12.656684027777771  C 24.906770833333326 14.675520833333337  22.016927083333343 15.430555555555571  20.872048611111097 13.641927083333341  Z M 8.439583333333331 37.75625000000002  C 7.665538194444451 37.89696180555558  5.859288194444446 39.21059027777781  5.906163194444446 39.93776041666669  C 5.953038194444446 40.500781250000045  6.961718749999989 41.04027777777782  7.782725694444452 40.758767361111154  C 8.369184027777777 40.52413194444449  9.049479166666657 39.84392361111114  9.284027777777766 39.351302083333366  C 9.542100694444457 38.74140625000001  9.190190972222211 37.615451388888914  8.439583333333331 37.75625000000002  Z M 44.09496527777776 39.93776041666669  C 44.16536458333334 39.21059027777778  42.33567708333334 37.89696180555558  41.5615451388889 37.75625000000002  C 40.834374999999994 37.61553819444447  40.48246527777778 38.74140625000001  40.74053819444444 39.351302083333366  C 40.95164930555555 39.84392361111114  41.63194444444446 40.52413194444446  42.24184027777778 40.758767361111154  C 43.03932291666666 41.04027777777782  44.07152777777776 40.500781250000045  44.09496527777776 39.93776041666669  Z " fill-rule="nonzero" fill="rgba(0, 0, 0, 1)" stroke="none" class="fill" />
    <path d="M 43.508506944444434 34.12031250000001  C 44.86909722222222 34.261024305555566  47.801302083333326 36.32526041666671  47.801302083333326 37.87352430555558  C 47.801302083333326 38.88220486111112  46.44079861111112 39.56250000000003  45.00980902777778 39.16371527777781  C 43.954253472222206 38.88220486111112  42.28880208333334 37.63897569444447  41.866493055555566 36.79444444444448  C 41.37395833333335 35.78576388888891  42.21840277777778 33.9560763888889  43.508506944444434 34.12031250000001  Z " stroke-width="0" stroke-dasharray="0" stroke="rgba(255, 255, 255, 0)" fill="none" class="stroke" mask="url(#Clip901)" />
    <path d="M 21.43506944444445 3.273697916666663  C 25.305555555555543 1.1624999999999943  29.269878472222217 1.913194444444457  32.36631944444446 5.314496527777778  C 32.037934027777766 -0.94861111111112  23.616666666666674 -1.6054687500000002  21.43506944444445 3.273697916666663  Z " stroke-width="0" stroke-dasharray="0" stroke="rgba(255, 255, 255, 0)" fill="none" class="stroke" mask="url(#Clip901)" />
    <path d="M 8.111111111111114 36.79444444444448  C 8.62725694444444 35.78576388888891  7.782812500000006 33.9560763888889  6.4926215277777715 34.12031250000001  C 5.132118055555566 34.261024305555566  2.1999131944444343 36.32526041666668  2.1999131944444343 37.87352430555558  C 2.1999131944444343 38.88220486111112  3.5604166666666686 39.56250000000003  4.991319444444457 39.16371527777781  C 6.046875 38.88220486111112  7.688888888888896 37.63897569444447  8.111111111111114 36.79444444444448  Z " stroke-width="0" stroke-dasharray="0" stroke="rgba(255, 255, 255, 0)" fill="none" class="stroke" mask="url(#Clip901)" />
    <path d="M 49.2318576388889 34.35486111111112  C 50.11171874999999 34.040625000000006  50.18854166666665 34.535243055555554  49.701388888888886 35.36354166666669  C 49.79522569444444 35.668489583333354  49.865624999999994 35.97343750000002  49.865624999999994 36.30182291666668  C 49.935937499999994 39.04626736111112  46.01866319444446 41.86128472222225  43.48515624999999 41.95503472222225  C 41.983854166666674 42.02534722222225  40.48255208333333 41.22786458333337  39.778906250000006 39.91423611111114  C 29.926736111111097 40.2660590277778  20.074565972222217 40.336458333333354  10.245920138888891 39.91423611111114  C 9.518750000000011 41.22786458333337  8.017447916666669 42.00190972222225  6.516145833333326 41.95503472222225  C 4.00616319444444 41.8611979166667  0.08880208333332007 39.04626736111112  0.1356770833333485 36.30182291666668  C 0.1591145833333485 35.97343750000002  0.20607638888890276 35.668489583333354  0.2999131944444571 35.36354166666669  C -0.18324652777778283 34.54210069444446  -0.12065972222222852 34.0369791666667  0.7690972222222285 34.35486111111112  C 1.0506076388888914 33.9092013888889  1.3789930555555543 33.533854166666686  1.7309027777777715 33.15850694444447  C 1.5078125 32.210850694444474  1.8411458333333428 31.93506944444445  2.6926215277777885 32.360937500000034  C 3.0914062500000057 32.07942708333337  3.560503472222223 31.798003472222238  4.076649305555549 31.56336805555557  C 4.076649305555549 30.195572916666688  5.104340277777766 30.597135416666674  5.577951388888891 31.0707465277778  C 6.66015625 30.916232638888914  7.325260416666681 31.132291666666674  7.900260416666669 31.56336805555557  L 7.900260416666669 29.851041666666674  C 6.772916666666674 29.851041666666674  4.372395833333343 28.86362847222225  3.9124131944444396 26.70763888888891  C 3.480642361111109 24.908593750000023  4.138715277777777 23.402517361111137  6.094010416666663 22.57916666666668  C 6.164322916666663 22.06310763888891  6.797743055555571 21.359375000000004  7.384114583333343 21.195138888888895  C 8.040972222222223 21.030902777777786  8.46319444444444 21.593923611111137  8.603906249999994 22.08654513888891  C 9.248437499999994 22.08654513888891  10.145312499999989 22.213715277777794  10.43359375 22.79027777777779  C 10.902777777777771 22.743315972222234  11.395312499999989 22.67291666666668  11.864496527777789 22.62604166666668  C 11.65338541666668 22.46180555555557  11.418836805555543 22.321093750000014  11.16076388888888 22.227256944444463  C 10.715104166666663 21.453211805555554  9.964409722222229 21.265538194444446  9.026128472222211 21.21857638888889  C 9.026128472222211 21.14826388888889  9.026128472222211 21.077864583333337  9.049565972222211 20.984027777777783  C 7.3371527777777885 20.93706597222223  5.22595486111112 20.49140625000001  4.287673611111103 19.43585069444447  C 2.43689236111112 17.383940972222234  2.9044270833333314 12.180902777777789  5.343229166666674 10.451649305555549  C 6.070399305555554 9.959027777777777  7.219791666666681 10.381249999999994  7.313628472222235 11.296093750000011  C 7.524131944444434 13.084114583333331  7.34826388888888 13.625347222222217  9.588975694444457 13.548003472222234  C 10.292708333333337 12.86779513888888  11.043402777777771 12.281336805555554  11.887847222222234 11.812152777777783  C 10.597743055555554 11.694791666666676  9.377951388888903 11.952864583333337  8.087673611111114 12.140538194444446  C 9.194618055555566 11.057204861111103  10.166927083333348 9.932031249999994  13.013715277777777 8.45763888888888  C 15.054600694444446 7.425520833333337  17.35338541666667 6.651388888888904  19.62873263888889 6.44036458333332  C 18.010156249999994 5.760069444444439  16.157118055555543 5.408159722222223  14.444618055555566 5.00946180555556  C 21.08307291666665 3.6019965277777715  29.598177083333326 3.0859375  35.65026041666667 8.270052083333326  C 37.22187500000001 9.60711805555556  38.46510416666666 11.413368055555566  39.35651041666665 13.477690972222232  C 42.81128472222221 13.898958333333324  42.522309027777794 12.99322916666668  42.7109375 11.296093750000011  C 42.804774305555554 10.404687499999994  43.95416666666665 9.959027777777777  44.68133680555553 10.475086805555549  C 45.97144097222221 11.389930555555566  46.60486111111112 13.149218749999989  46.815885416666674 14.650520833333331  C 47.00355902777778 16.198697916666674  46.839322916666674 18.23949652777779  45.73689236111113 19.43585069444444  C 44.798611111111114 20.49140625000001  42.757725694444446 20.960590277777783  41.06883680555555 21.007465277777783  L 41.06883680555555 21.242100694444446  C 40.107031250000006 21.265538194444446  39.30946180555554 21.453211805555554  38.84027777777777 22.250781250000017  C 38.58229166666666 22.34461805555557  38.347743055555554 22.485416666666676  38.11310763888889 22.64956597222223  C 38.60572916666666 22.696440972222234  39.098350694444434 22.76684027777779  39.567534722222206 22.813715277777785  C 39.729774305555566 22.325954861111114  40.65564236111112 22.08654513888891  41.39713541666666 22.08654513888891  C 41.53784722222221 21.61736111111111  41.98359375000001 21.054427083333337  42.61692708333334 21.195138888888895  C 43.25026041666666 21.335850694444446  43.83671874999999 22.063020833333326  43.90711805555554 22.57916666666668  C 44.84539930555556 22.954513888888897  45.83064236111113 23.634722222222255  46.08862847222224 24.807638888888903  C 46.25286458333335 25.511371527777783  46.229340277777794 26.12126736111111  46.11206597222221 26.70763888888891  C 45.615017361111114 28.90052083333336  43.21614583333334 29.851041666666674  42.124305555555566 29.851041666666674  C 42.124305555555566 30.43750000000003  42.124305555555566 31.0004340277778  42.100868055555566 31.56336805555557  C 42.796180555555566 31.042013888888903  43.52161458333333 30.94201388888891  44.42309027777776 31.0707465277778  C 44.93689236111112 30.55694444444447  45.94782986111113 30.25390625  45.94782986111113 31.56336805555557  C 46.4404513888889 31.798003472222238  46.93298611111112 32.07942708333334  47.33185763888889 32.360937500000006  C 48.208593750000006 31.92248263888891  48.518402777777794 32.31414930555559  48.27013888888888 33.15850694444447  C 48.62196180555554 33.53376736111113  48.97387152777776 33.93255208333335  49.2318576388889 34.35486111111112  Z " stroke-width="0" stroke-dasharray="0" stroke="rgba(255, 255, 255, 0)" fill="none" class="stroke" mask="url(#Clip901)" />
    <path d="M 43.508506944444434 12.046788194444446  C 43.50859374999999 12.58637152777777  43.391319444444434 13.055468750000017  43.29748263888888 13.313541666666678  C 44.79878472222222 13.900000000000006  45.5728298611111 15.23706597222224  45.924652777777766 16.409895833333337  C 46.01848958333332 15.495052083333348  45.69010416666666 12.985156250000015  44.728298611111086 11.976475694444446  C 44.09496527777776 11.34314236111112  43.508506944444434 11.53081597222223  43.508506944444434 12.046788194444446  Z " stroke-width="0" stroke-dasharray="0" stroke="rgba(255, 255, 255, 0)" fill="none" class="stroke" mask="url(#Clip901)" />
    <path d="M 42.89861111111111 13.899913194444451  C 42.6171875 14.181423611111114  42.1011284722222 14.322135416666669  41.67890624999998 14.392534722222223  C 42.80486111111111 15.753038194444457  43.15668402777777 18.00494791666668  42.781336805555554 19.858072916666686  C 43.71961805555554 19.670399305555577  44.564062500000006 19.318576388888914  45.05668402777775 18.802517361111114  C 45.220920138888886 18.614843750000006  45.38506944444444 18.380295138888897  45.478906249999994 18.14574652777779  C 45.38506944444444 16.292621527777783  44.58749999999998 14.439409722222223  42.89861111111111 13.899913194444451  Z " stroke-width="0" stroke-dasharray="0" stroke="rgba(255, 255, 255, 0)" fill="none" class="stroke" mask="url(#Clip901)" />
    <path d="M 40.810937499999994 14.486371527777777  C 40.48255208333333 14.486371527777777  40.107204861111086 14.486371527777777  39.77881944444442 14.462934027777775  C 40.43567708333333 16.24565972222223  40.85789930555555 18.16918402777779  41.0220486111111 20.06927083333335  C 41.326996527777766 20.06927083333335  41.67890624999998 20.04583333333335  42.030729166666674 19.998871527777794  C 42.546788194444446 17.887673611111126  42.007291666666674 15.51848958333335  40.810937499999994 14.486371527777777  Z " stroke-width="0" stroke-dasharray="0" stroke="rgba(255, 255, 255, 0)" fill="none" class="stroke" mask="url(#Clip901)" />
    <path d="M 4.123437499999994 16.409895833333337  C 4.475260416666657 15.236979166666686  5.24939236111112 13.899913194444451  6.750694444444434 13.313541666666678  C 6.65685763888888 13.055468750000017  6.539583333333327 12.58637152777777  6.539583333333327 12.046788194444446  C 6.539583333333327 11.530729166666676  5.9296875 11.343055555555566  5.319791666666674 11.976475694444446  C 4.334548611111103 12.985156250000015  4.02960069444444 15.495052083333348  4.123437499999994 16.409895833333337  Z " stroke-width="0" stroke-dasharray="0" stroke="rgba(255, 255, 255, 0)" fill="none" class="stroke" mask="url(#Clip901)" />
    <path d="M 4.967881944444457 18.80260416666667  C 5.4605034722222285 19.34210069444447  6.304947916666663 19.67048611111113  7.243315972222235 19.85815972222224  C 6.8679687499999895 18.005034722222234  7.219878472222234 15.753038194444457  8.345833333333331 14.392621527777777  C 7.92352430555556 14.322222222222223  7.407552083333342 14.181510416666669  7.12604166666668 13.900000000000006  C 5.4370659722222285 14.439496527777777  4.662934027777766 16.292621527777783  4.5456597222222115 18.145833333333343  C 4.662934027777766 18.38038194444445  4.8036458333333485 18.61493055555556  4.967881944444457 18.80260416666667  Z " stroke-width="0" stroke-dasharray="0" stroke="rgba(255, 255, 255, 0)" fill="none" class="stroke" mask="url(#Clip901)" />
    <path d="M 9.119878472222211 20.06927083333335  C 9.330989583333348 18.14574652777779  9.917447916666674 16.26909722222223  10.832291666666663 14.556684027777777  C 10.386631944444446 14.650520833333331  9.964409722222229 14.814756944444468  9.542187500000011 14.978993055555577  L 8.48663194444444 15.424652777777794  L 8.48663194444444 15.401215277777794  C 7.853298611111114 16.621006944444446  7.618663194444451 18.380295138888897  8.017447916666669 19.998871527777794  C 8.416232638888886 20.04583333333335  8.768055555555549 20.06927083333335  9.119878472222211 20.06927083333335  Z " stroke-width="0" stroke-dasharray="0" stroke="rgba(255, 255, 255, 0)" fill="none" class="stroke" mask="url(#Clip901)" />
    <path d="M 25.094444444444434 5.947829861111103  C 21.45850694444445 5.947829861111103  18.47942708333335 8.903472222222234  18.47942708333335 12.539409722222217  C 18.47942708333335 16.198697916666674  21.45850694444445 19.15442708333333  25.094444444444434 19.15442708333333  C 28.730381944444446 19.15442708333333  31.70946180555555 16.198697916666674  31.70946180555555 12.539409722222217  C 31.70946180555555 8.903472222222234  28.730381944444446 5.947829861111103  25.094444444444434 5.947829861111103  Z " stroke-width="0" stroke-dasharray="0" stroke="rgba(255, 255, 255, 0)" fill="none" class="stroke" mask="url(#Clip901)" />
    <path d="M 35.13428819444442 21.077864583333337  C 34.008333333333326 21.007552083333337  32.858854166666674 21.007552083333337  31.70946180555555 20.984114583333337  C 32.57482638888888 25.377170138888918  31.995833333333334 26.59973958333336  33.14036458333334 26.027430555555583  C 34.5243923611111 25.323697916666674  35.1107638888889 22.626128472222234  35.13428819444442 21.077864583333337  Z " stroke-width="0" stroke-dasharray="0" stroke="rgba(255, 255, 255, 0)" fill="none" class="stroke" mask="url(#Clip901)" />
    <path d="M 30.44270833333334 20.937152777777783  C 28.800694444444446 20.913715277777783  27.13524305555555 20.913715277777783  25.49322916666668 20.937152777777783  L 25.49322916666668 20.913715277777783  C 25.46979166666668 21.359375000000004  25.516666666666655 24.22126736111113  25.868576388888897 24.47925347222224  C 26.83029513888889 24.948437500000015  29.293315972222217 24.878038194444457  30.301996527777785 24.573090277777794  C 30.77118055555556 24.432378472222236  30.513107638888897 21.35937500000003  30.44270833333334 20.937152777777783  Z " stroke-width="0" stroke-dasharray="0" stroke="rgba(255, 255, 255, 0)" fill="none" class="stroke" mask="url(#Clip901)" />
    <path d="M 24.15607638888889 25.60520833333334  C 24.554947916666663 25.39409722222223  24.367274305555554 21.664322916666663  24.273350694444446 20.937152777777783  L 24.273350694444446 20.913715277777783  C 22.58446180555555 20.937152777777783  20.91901041666668 20.937152777777783  19.25347222222223 20.984114583333337  C 19.08923611111112 21.781597222222246  18.85468750000001 25.22986111111112  19.417708333333337 25.464496527777783  C 20.543663194444434 25.957118055555583  23.03020833333332 25.910156249999996  24.15607638888889 25.60520833333334  Z " stroke-width="0" stroke-dasharray="0" stroke="rgba(255, 255, 255, 0)" fill="none" class="stroke" mask="url(#Clip901)" />
    <path d="M 14.91388888888889 21.17170138888889  C 14.444704861111122 22.884114583333343  14.937326388888891 25.089149305555562  16.83741319444445 25.933680555555583  C 17.306597222222223 26.14479166666669  17.58802083333333 26.14479166666669  17.681857638888886 25.558333333333337  C 17.846093749999994 24.807725694444457  17.892968749999994 22.36805555555557  18.104166666666657 21.03098958333334  C 17.048611111111114 21.054427083333337  15.969531249999989 21.10138888888889  14.91388888888889 21.17170138888889  Z " stroke-width="0" stroke-dasharray="0" stroke="rgba(255, 255, 255, 0)" fill="none" class="stroke" mask="url(#Clip901)" />
    <path d="M 11.840798611111126 23.892795138888914  C 12.052864583333331 24.21076388888892  11.975260416666686 24.67855902777779  11.137239583333326 24.97187500000001  C 14.937413194444446 29.05347222222224  19.18315972222223 32.40789930555559  24.672222222222217 34.21406250000001  C 30.536631944444455 32.54861111111114  34.712065972222234 29.006510416666682  38.840538194444434 24.924913194444454  C 37.87743055555555 24.550347222222257  38.17083333333335 24.02534722222225  38.20720486111111 23.916232638888914  C 37.433072916666674 23.845920138888914  36.659027777777794 23.751996527777806  35.90833333333333 23.681684027777806  C 35.0873263888889 26.543489583333354  32.788541666666674 28.279340277777806  31.85017361111113 26.426128472222246  C 31.61562499999999 25.98046875000003  31.54522569444444 25.41744791666667  31.451388888888886 24.971788194444457  C 31.123003472222223 25.698958333333366  30.301909722222238 25.675520833333366  29.316753472222217 25.745920138888923  C 28.167361111111124 25.839756944444474  26.572222222222226 25.863194444444474  25.493142361111126 25.48793402777781  C 25.235156250000017 26.61388888888891  24.53142361111111 26.61388888888891  23.170920138888903 26.731163194444466  C 21.951128472222223 26.84852430555557  18.948524305555566 27.08307291666668  18.409027777777794 25.792881944444474  C 18.31519097222224 28.279340277777806  15.35954861111111 26.66076388888891  14.49157986111112 25.18298611111112  C 14.210069444444457 24.69036458333335  14.022395833333348 24.197743055555577  13.881684027777794 23.658246527777806  C 13.201388888888884 23.728559027777806  12.521180555555562 23.798958333333363  11.840798611111126 23.892795138888914  Z " stroke-width="0" stroke-dasharray="0" stroke="rgba(255, 255, 255, 0)" fill="none" class="stroke" mask="url(#Clip901)" />
    <path d="M 9.964409722222229 38.858680555555594  C 10.011197916666674 38.64756944444446  10.034722222222229 38.41302083333335  10.034722222222229 38.154947916666686  C 9.542187500000011 36.137673611111126  8.416145833333331 33.83880208333335  7.126041666666652 33.46345486111113  C 5.17907986111112 32.876996527777806  1.1443576388888914 35.504253472222246  1.37890625 38.201822916666686  C 2.481423611111097 39.89079861111114  4.850607638888903 41.29817708333337  6.516145833333326 41.368576388888926  C 8.064322916666669 41.438888888888926  9.635937500000011 40.406770833333354  9.964409722222229 38.858680555555594  Z " stroke-width="0" stroke-dasharray="0" stroke="rgba(255, 255, 255, 0)" fill="none" class="stroke" mask="url(#Clip901)" />
    <path d="M 9.213888888888874 33.13515625000002  C 9.989843750000006 34.5209201388889  10.552951388888886 36.02699652777778  10.668055555555554 37.63897569444447  C 13.576822916666655 35.95000000000002  16.673177083333343 34.54253472222223  19.86345486111111 33.55737847222224  C 16.50902777777779 31.774652777777785  13.952170138888874 29.405381944444457  11.418749999999989 26.87196180555557  C 11.23107638888888 26.98932291666668  10.973090277777771 27.08307291666668  10.738541666666663 27.176909722222234  C 10.596440972222211 27.603125000000006  11.495312500000011 27.63958333333335  11.207725694444434 28.25598958333336  C 11.020052083333326 28.607899305555577  10.45703125 28.91284722222224  9.894097222222229 29.053559027777794  C 9.706510416666674 29.288107638888903  9.448437500000011 29.47578125000001  9.213888888888874 29.616493055555566  L 9.190451388888874 29.616493055555566  C 9.167013888888903 30.789322916666688  9.167013888888903 31.9623263888889  9.213888888888874 33.13515625000002  Z " stroke-width="0" stroke-dasharray="0" stroke="rgba(255, 255, 255, 0)" fill="none" class="stroke" mask="url(#Clip901)" />
    <path d="M 11.653385416666652 38.74140625000001  C 20.61406249999999 39.09331597222223  29.57482638888888 39.046354166666674  38.51215277777777 38.74140625000001  C 35.321875000000006 36.888281250000034  32.08472222222224 35.15243055555558  28.472309027777783 34.14375000000001  C 27.275954861111128 34.68324652777778  26.056250000000002 35.12890625000003  24.813020833333326 35.480815972222246  C 24.625347222222217 35.5512152777778  24.625347222222217 35.5512152777778  24.43767361111111 35.480815972222246  C 23.405555555555566 35.15243055555558  22.42039930555555 34.777083333333366  21.411718750000006 34.33142361111112  C 17.91649305555555 35.34010416666669  14.702864583333335 36.864843750000034  11.653385416666652 38.74140625000001  L 11.629947916666652 38.74140625000001  L 11.629947916666652 38.76484375000001  C 11.653385416666652 38.76484375000001  11.653385416666652 38.76484375000001  11.653385416666652 38.74140625000001  Z " stroke-width="0" stroke-dasharray="0" stroke="rgba(255, 255, 255, 0)" fill="none" class="stroke" mask="url(#Clip901)" />
    <path d="M 39.426909722222234 37.662326388888914  C 39.51805555555558 36.38697916666666  40.054600694444446 34.559114583333326  40.85789930555558 33.18194444444447  L 40.83446180555558 33.20538194444447  C 40.88142361111113 32.00902777777779  40.9048611111111 30.812760416666695  40.9048611111111 29.61640625000001  C 40.64678819444444 29.475694444444457  40.41223958333333 29.264496527777794  40.20112847222222 29.029947916666686  C 39.63819444444445 28.91267361111113  39.075173611111126 28.58428819444447  38.88750000000002 28.255815972222223  C 38.72326388888891 27.90399305555556  39.00477430555557 27.599045138888897  39.40355902777779 27.364409722222234  C 39.38012152777779 27.31744791666668  39.356597222222234 27.223697916666683  39.356597222222234 27.153298611111126  C 39.098611111111126 27.08289930555557  38.88741319444446 26.989062500000017  38.699739583333326 26.871788194444463  C 35.955295138888914 29.42864583333335  33.02300347222223 31.797916666666683  29.715538194444463 33.53376736111113  C 33.09348958333334 34.542447916666674  36.30711805555558 35.97335069444446  39.426909722222234 37.662326388888914  Z " stroke-width="0" stroke-dasharray="0" stroke="rgba(255, 255, 255, 0)" fill="none" class="stroke" mask="url(#Clip901)" />
    <path d="M 48.62230902777776 38.201996527777794  C 48.88038194444442 35.5043402777778  44.84565972222222 32.876996527777806  42.87526041666666 33.463541666666686  C 41.60850694444446 33.83880208333335  40.45911458333333 36.137673611111126  39.96649305555556 38.15503472222224  C 39.96649305555556 40.22326388888891  41.81354166666668 41.44470486111112  43.485069444444434 41.368750000000034  C 45.15052083333333 41.29835069444448  47.51979166666666 39.890972222222246  48.62230902777776 38.201996527777794  Z " stroke-width="0" stroke-dasharray="0" stroke="rgba(255, 255, 255, 0)" fill="none" class="stroke" mask="url(#Clip901)" />
    <path d="M 25.258593749999992 10.428211805555577  L 25.23515624999999 10.428211805555577  C 25.23906249999999 10.428211805555577  25.242881944444434 10.42847222222224  25.246788194444434 10.42847222222224  C 25.25078124999999 10.42847222222224  25.254600694444434 10.428211805555577  25.258593749999992 10.428211805555577  Z " stroke-width="0" stroke-dasharray="0" stroke="rgba(255, 255, 255, 0)" fill="none" class="stroke" mask="url(#Clip901)" />
    <path d="M 20.872048611111097 13.641927083333341  C 20.238628472222217 16.59913194444445  22.553298611111103 18.82604166666667  25.23515624999999 18.82604166666667  C 27.721701388888874 18.82604166666667  29.738975694444434 16.949479166666663  29.738975694444434 14.627170138888884  C 29.738975694444434 11.494184027777777  26.222743055555554 9.585590277777783  23.475868055555566 10.780121527777792  C 24.296875 11.038107638888905  24.906770833333326 11.788802083333337  24.906770833333326 12.656684027777771  C 24.906770833333326 14.675520833333337  22.016927083333343 15.430555555555571  20.872048611111097 13.641927083333341  Z " stroke-width="0" stroke-dasharray="0" stroke="rgba(255, 255, 255, 0)" fill="none" class="stroke" mask="url(#Clip901)" />
    <path d="M 8.439583333333331 37.75625000000002  C 7.665538194444451 37.89696180555558  5.859288194444446 39.21059027777781  5.906163194444446 39.93776041666669  C 5.953038194444446 40.500781250000045  6.961718749999989 41.04027777777782  7.782725694444452 40.758767361111154  C 8.369184027777777 40.52413194444449  9.049479166666657 39.84392361111114  9.284027777777766 39.351302083333366  C 9.542100694444457 38.74140625000001  9.190190972222211 37.615451388888914  8.439583333333331 37.75625000000002  Z " stroke-width="0" stroke-dasharray="0" stroke="rgba(255, 255, 255, 0)" fill="none" class="stroke" mask="url(#Clip901)" />
    <path d="M 44.09496527777776 39.93776041666669  C 44.16536458333334 39.21059027777778  42.33567708333334 37.89696180555558  41.5615451388889 37.75625000000002  C 40.834374999999994 37.61553819444447  40.48246527777778 38.74140625000001  40.74053819444444 39.351302083333366  C 40.95164930555555 39.84392361111114  41.63194444444446 40.52413194444446  42.24184027777778 40.758767361111154  C 43.03932291666666 41.04027777777782  44.07152777777776 40.500781250000045  44.09496527777776 39.93776041666669  Z " stroke-width="0" stroke-dasharray="0" stroke="rgba(255, 255, 255, 0)" fill="none" class="stroke" mask="url(#Clip901)" />
  </g>
</svg>