<?xml version="1.0" encoding="utf-8"?>
<svg version="1.1" xmlns:xlink="http://www.w3.org/1999/xlink" width="50px" height="38px" xmlns="http://www.w3.org/2000/svg">
  <defs>
    <pattern id="BGPattern" patternUnits="userSpaceOnUse" alignment="0 0" imageRepeat="None" />
    <mask fill="white" id="Clip1912">
      <path d="M 48.7597503900156 15.132605304212177  C 49.945397815912656 14.461778471138842  50.3510140405616 12.964118564742591  49.66458658346335 11.794071762870516  L 43.455538221528855 1.2246489859594334  C 42.76911076443059 0.05460218408735784  41.24804992199688 -0.343213728549145  40.06240249609985 0.32761310452417547  L 34.6801872074883 3.3775351014040496  L 39.33697347893917 11.31045241809673  C 39.50858034321374 11.606864274570981  39.40717628705147 11.97347893915756  39.110764430577234 12.145085803432139  L 38.03432137285492 12.75351014040561  C 37.737909516380654 12.925117004680189  37.355694227769106 12.823712948517937  37.18408736349454 12.527301092043672  L 32.52730109204367 4.602184087363497  L 28.22152886115444 7.043681747269886  L 30.397815912636506 10.741029641185648  C 30.569422776911072 11.037441497659898  30.46801872074883 11.40405616224649  30.171606864274565 11.575663026521056  L 29.09516380655225 12.184087363494541  C 28.798751950077982 12.355694227769106  28.41653666146647 12.254290171606868  28.244929797191904 11.957878315132604  L 26.068642745709838 8.268330733229334  L 21.762870514820577 10.709828393135723  L 26.427457098283924 18.642745709828375  C 26.59906396255849 18.931357254290162  26.497659906396255 19.305772230889232  26.201248049922015 19.477379095163798  L 25.1248049921997 20.085803432137283  C 24.828393135725435 20.257410296411848  24.446177847113887 20.15600624024961  24.27457098283932 19.859594383775345  L 19.617784711388452 11.926677067082679  L 15.31201248049922 14.368174726989082  L 17.488299531981284 18.06552262090483  C 17.65990639625585 18.361934477379094  17.55850234009361 18.728549141965686  17.262090483619346 18.900156006240252  L 16.185647425897045 19.508580343213737  C 15.88923556942278 19.680187207488302  15.507020280811231 19.578783151326064  15.335413416536667 19.2823712948518  L 13.159126365054604 15.577223088923574  L 8.853354134165372 18.018720748829963  L 13.510140405616228 25.951638065522616  C 13.681747269890792 26.240249609984403  13.580343213728554 26.614664586583473  13.28393135725429 26.786271450858038  L 12.207488299531988 27.394695787831527  C 11.911076443057723 27.56630265210609  11.528861154446176 27.46489859594385  11.35725429017161 27.168486739469586  L 6.7004680187207555 19.258970358814338  L 1.318252730109208 22.30889235569424  C 0.13260530421216288 22.987519500780024  -0.2808112324492953 24.477379095163798  0.40561622464898056 25.647425897035873  L 6.614664586583459 36.22464898595942  C 7.3010920436817495 37.394695787831495  8.822152886115447 37.792511700468026  10.007800312012478 37.12168486739469  L 48.7597503900156 15.132605304212177  Z " fill-rule="evenodd" />
    </mask>
  </defs>
  <g>
    <path d="M 48.7597503900156 15.132605304212177  C 49.945397815912656 14.461778471138842  50.3510140405616 12.964118564742591  49.66458658346335 11.794071762870516  L 43.455538221528855 1.2246489859594334  C 42.76911076443059 0.05460218408735784  41.24804992199688 -0.343213728549145  40.06240249609985 0.32761310452417547  L 34.6801872074883 3.3775351014040496  L 39.33697347893917 11.31045241809673  C 39.50858034321374 11.606864274570981  39.40717628705147 11.97347893915756  39.110764430577234 12.145085803432139  L 38.03432137285492 12.75351014040561  C 37.737909516380654 12.925117004680189  37.355694227769106 12.823712948517937  37.18408736349454 12.527301092043672  L 32.52730109204367 4.602184087363497  L 28.22152886115444 7.043681747269886  L 30.397815912636506 10.741029641185648  C 30.569422776911072 11.037441497659898  30.46801872074883 11.40405616224649  30.171606864274565 11.575663026521056  L 29.09516380655225 12.184087363494541  C 28.798751950077982 12.355694227769106  28.41653666146647 12.254290171606868  28.244929797191904 11.957878315132604  L 26.068642745709838 8.268330733229334  L 21.762870514820577 10.709828393135723  L 26.427457098283924 18.642745709828375  C 26.59906396255849 18.931357254290162  26.497659906396255 19.305772230889232  26.201248049922015 19.477379095163798  L 25.1248049921997 20.085803432137283  C 24.828393135725435 20.257410296411848  24.446177847113887 20.15600624024961  24.27457098283932 19.859594383775345  L 19.617784711388452 11.926677067082679  L 15.31201248049922 14.368174726989082  L 17.488299531981284 18.06552262090483  C 17.65990639625585 18.361934477379094  17.55850234009361 18.728549141965686  17.262090483619346 18.900156006240252  L 16.185647425897045 19.508580343213737  C 15.88923556942278 19.680187207488302  15.507020280811231 19.578783151326064  15.335413416536667 19.2823712948518  L 13.159126365054604 15.577223088923574  L 8.853354134165372 18.018720748829963  L 13.510140405616228 25.951638065522616  C 13.681747269890792 26.240249609984403  13.580343213728554 26.614664586583473  13.28393135725429 26.786271450858038  L 12.207488299531988 27.394695787831527  C 11.911076443057723 27.56630265210609  11.528861154446176 27.46489859594385  11.35725429017161 27.168486739469586  L 6.7004680187207555 19.258970358814338  L 1.318252730109208 22.30889235569424  C 0.13260530421216288 22.987519500780024  -0.2808112324492953 24.477379095163798  0.40561622464898056 25.647425897035873  L 6.614664586583459 36.22464898595942  C 7.3010920436817495 37.394695787831495  8.822152886115447 37.792511700468026  10.007800312012478 37.12168486739469  L 48.7597503900156 15.132605304212177  Z " fill-rule="nonzero" fill="rgba(0, 0, 0, 1)" stroke="none" class="fill" />
    <path d="M 48.7597503900156 15.132605304212177  C 49.945397815912656 14.461778471138842  50.3510140405616 12.964118564742591  49.66458658346335 11.794071762870516  L 43.455538221528855 1.2246489859594334  C 42.76911076443059 0.05460218408735784  41.24804992199688 -0.343213728549145  40.06240249609985 0.32761310452417547  L 34.6801872074883 3.3775351014040496  L 39.33697347893917 11.31045241809673  C 39.50858034321374 11.606864274570981  39.40717628705147 11.97347893915756  39.110764430577234 12.145085803432139  L 38.03432137285492 12.75351014040561  C 37.737909516380654 12.925117004680189  37.355694227769106 12.823712948517937  37.18408736349454 12.527301092043672  L 32.52730109204367 4.602184087363497  L 28.22152886115444 7.043681747269886  L 30.397815912636506 10.741029641185648  C 30.569422776911072 11.037441497659898  30.46801872074883 11.40405616224649  30.171606864274565 11.575663026521056  L 29.09516380655225 12.184087363494541  C 28.798751950077982 12.355694227769106  28.41653666146647 12.254290171606868  28.244929797191904 11.957878315132604  L 26.068642745709838 8.268330733229334  L 21.762870514820577 10.709828393135723  L 26.427457098283924 18.642745709828375  C 26.59906396255849 18.931357254290162  26.497659906396255 19.305772230889232  26.201248049922015 19.477379095163798  L 25.1248049921997 20.085803432137283  C 24.828393135725435 20.257410296411848  24.446177847113887 20.15600624024961  24.27457098283932 19.859594383775345  L 19.617784711388452 11.926677067082679  L 15.31201248049922 14.368174726989082  L 17.488299531981284 18.06552262090483  C 17.65990639625585 18.361934477379094  17.55850234009361 18.728549141965686  17.262090483619346 18.900156006240252  L 16.185647425897045 19.508580343213737  C 15.88923556942278 19.680187207488302  15.507020280811231 19.578783151326064  15.335413416536667 19.2823712948518  L 13.159126365054604 15.577223088923574  L 8.853354134165372 18.018720748829963  L 13.510140405616228 25.951638065522616  C 13.681747269890792 26.240249609984403  13.580343213728554 26.614664586583473  13.28393135725429 26.786271450858038  L 12.207488299531988 27.394695787831527  C 11.911076443057723 27.56630265210609  11.528861154446176 27.46489859594385  11.35725429017161 27.168486739469586  L 6.7004680187207555 19.258970358814338  L 1.318252730109208 22.30889235569424  C 0.13260530421216288 22.987519500780024  -0.2808112324492953 24.477379095163798  0.40561622464898056 25.647425897035873  L 6.614664586583459 36.22464898595942  C 7.3010920436817495 37.394695787831495  8.822152886115447 37.792511700468026  10.007800312012478 37.12168486739469  L 48.7597503900156 15.132605304212177  Z " stroke-width="0" stroke-dasharray="0" stroke="rgba(255, 255, 255, 0)" fill="none" class="stroke" mask="url(#Clip1912)" />
  </g>
</svg>