<?xml version="1.0" encoding="utf-8"?>
<svg version="1.1" xmlns:xlink="http://www.w3.org/1999/xlink" width="45px" height="50px" xmlns="http://www.w3.org/2000/svg">
  <defs>
    <pattern id="BGPattern" patternUnits="userSpaceOnUse" alignment="0 0" imageRepeat="None" />
    <mask fill="white" id="Clip1793">
      <path d="M 0.020605468750005684 25  C 0.020605468750005684 38.79970703125002  11.203320312500011 50  25.020605468750006 50  C 32.73173828124999 50  39.7744140625 46.49169921875  44.44023437499999 40.74296874999999  C 45.130468750000006 39.892578125  44.377832031249994 38.65019531249999  43.311132812500006 38.85332031249999  C 31.18193359374999 41.16328125000001  20.043359374999994 31.863476562500008  20.043359374999994 19.619531250000023  C 20.043359374999994 12.566601562500013  23.818945312500006 6.080957031250023  29.95527343749998 2.5888671875  C 30.90117187499999 2.0505859374999886  30.66328125000001 0.6165039062499886  29.588476562500006 0.41796875  C 28.0817172483477 0.14012999586333308  26.552766671766477 0.00022815796342001704  25.020605468750006 0  C 11.220898437500011 0  0.020605468750005684 11.182714843749977  0.020605468750005684 25  Z " fill-rule="evenodd" />
    </mask>
  </defs>
  <g>
    <path d="M 0.020605468750005684 25  C 0.020605468750005684 38.79970703125002  11.203320312500011 50  25.020605468750006 50  C 32.73173828124999 50  39.7744140625 46.49169921875  44.44023437499999 40.74296874999999  C 45.130468750000006 39.892578125  44.377832031249994 38.65019531249999  43.311132812500006 38.85332031249999  C 31.18193359374999 41.16328125000001  20.043359374999994 31.863476562500008  20.043359374999994 19.619531250000023  C 20.043359374999994 12.566601562500013  23.818945312500006 6.080957031250023  29.95527343749998 2.5888671875  C 30.90117187499999 2.0505859374999886  30.66328125000001 0.6165039062499886  29.588476562500006 0.41796875  C 28.0817172483477 0.14012999586333308  26.552766671766477 0.00022815796342001704  25.020605468750006 0  C 11.220898437500011 0  0.020605468750005684 11.182714843749977  0.020605468750005684 25  Z " fill-rule="nonzero" fill="rgba(0, 0, 0, 1)" stroke="none" class="fill" />
    <path d="M 0.020605468750005684 25  C 0.020605468750005684 38.79970703125002  11.203320312500011 50  25.020605468750006 50  C 32.73173828124999 50  39.7744140625 46.49169921875  44.44023437499999 40.74296874999999  C 45.130468750000006 39.892578125  44.377832031249994 38.65019531249999  43.311132812500006 38.85332031249999  C 31.18193359374999 41.16328125000001  20.043359374999994 31.863476562500008  20.043359374999994 19.619531250000023  C 20.043359374999994 12.566601562500013  23.818945312500006 6.080957031250023  29.95527343749998 2.5888671875  C 30.90117187499999 2.0505859374999886  30.66328125000001 0.6165039062499886  29.588476562500006 0.41796875  C 28.0817172483477 0.14012999586333308  26.552766671766477 0.00022815796342001704  25.020605468750006 0  C 11.220898437500011 0  0.020605468750005684 11.182714843749977  0.020605468750005684 25  Z " stroke-width="0" stroke-dasharray="0" stroke="rgba(255, 255, 255, 0)" fill="none" class="stroke" mask="url(#Clip1793)" />
  </g>
</svg>