<?xml version="1.0" encoding="utf-8"?>
<svg version="1.1" xmlns:xlink="http://www.w3.org/1999/xlink" width="24px" height="23px" xmlns="http://www.w3.org/2000/svg">
  <defs>
    <pattern id="BGPattern" patternUnits="userSpaceOnUse" alignment="0 0" imageRepeat="None" />
    <mask fill="white" id="Clip5912">
      <path d="M 0 5.25  L 0 2.25  C 0 1.0073593128807148  1.0073593128807148 0  2.25 0  L 21.75 0  C 22.992640687119284 0  24 1.0073593128807148  24 2.25  L 24 5.249999999999999  C 24 6.492640687119285  22.992640687119284 7.5  21.75 7.5  L 2.25 7.5  C 1.0073593128807148 7.5  0 6.492640687119285  0 5.25  Z M 21 9  L 3 9  C 1.3431457505076196 9  0 10.34314575050762  0 12  L 0 19.5  C 0 21.15685424949238  1.3431457505076196 22.5  3 22.5  L 21 22.5  C 22.65685424949238 22.5  24 21.15685424949238  24 19.5  L 24 12  C 24 10.34314575050762  22.65685424949238 9  21 9  Z M 21.75 1.5  L 2.25 1.5  C 1.835786437626905 1.5  1.5 1.835786437626905  1.5 2.25  L 1.5 5.25  C 1.5 5.664213562373095  1.835786437626905 6  2.25 6  L 21.75 6  C 22.164213562373096 6  22.5 5.664213562373095  22.5 5.25  L 22.5 2.25  C 22.5 1.835786437626905  22.164213562373096 1.5  21.75 1.5  Z M 3 10.5  L 21 10.5  C 21.82842712474619 10.5  22.5 11.17157287525381  22.5 12  L 22.5 19.5  C 22.5 20.32842712474619  21.82842712474619 21  21 21  L 3 21  C 2.1715728752538097 21  1.5 20.32842712474619  1.5 19.5  L 1.5 12  C 1.5 11.17157287525381  2.1715728752538097 10.5  3 10.5  Z " fill-rule="evenodd" />
    </mask>
  </defs>
  <g>
    <path d="M 0 5.25  L 0 2.25  C 0 1.0073593128807148  1.0073593128807148 0  2.25 0  L 21.75 0  C 22.992640687119284 0  24 1.0073593128807148  24 2.25  L 24 5.249999999999999  C 24 6.492640687119285  22.992640687119284 7.5  21.75 7.5  L 2.25 7.5  C 1.0073593128807148 7.5  0 6.492640687119285  0 5.25  Z M 21 9  L 3 9  C 1.3431457505076196 9  0 10.34314575050762  0 12  L 0 19.5  C 0 21.15685424949238  1.3431457505076196 22.5  3 22.5  L 21 22.5  C 22.65685424949238 22.5  24 21.15685424949238  24 19.5  L 24 12  C 24 10.34314575050762  22.65685424949238 9  21 9  Z M 21.75 1.5  L 2.25 1.5  C 1.835786437626905 1.5  1.5 1.835786437626905  1.5 2.25  L 1.5 5.25  C 1.5 5.664213562373095  1.835786437626905 6  2.25 6  L 21.75 6  C 22.164213562373096 6  22.5 5.664213562373095  22.5 5.25  L 22.5 2.25  C 22.5 1.835786437626905  22.164213562373096 1.5  21.75 1.5  Z M 3 10.5  L 21 10.5  C 21.82842712474619 10.5  22.5 11.17157287525381  22.5 12  L 22.5 19.5  C 22.5 20.32842712474619  21.82842712474619 21  21 21  L 3 21  C 2.1715728752538097 21  1.5 20.32842712474619  1.5 19.5  L 1.5 12  C 1.5 11.17157287525381  2.1715728752538097 10.5  3 10.5  Z " fill-rule="nonzero" fill="rgba(0, 0, 0, 1)" stroke="none" class="fill" />
    <path d="M 0 5.25  L 0 2.25  C 0 1.0073593128807148  1.0073593128807148 0  2.25 0  L 21.75 0  C 22.992640687119284 0  24 1.0073593128807148  24 2.25  L 24 5.249999999999999  C 24 6.492640687119285  22.992640687119284 7.5  21.75 7.5  L 2.25 7.5  C 1.0073593128807148 7.5  0 6.492640687119285  0 5.25  Z " stroke-width="0" stroke-dasharray="0" stroke="rgba(255, 255, 255, 0)" fill="none" class="stroke" mask="url(#Clip5912)" />
    <path d="M 21 9  L 3 9  C 1.3431457505076196 9  0 10.34314575050762  0 12  L 0 19.5  C 0 21.15685424949238  1.3431457505076196 22.5  3 22.5  L 21 22.5  C 22.65685424949238 22.5  24 21.15685424949238  24 19.5  L 24 12  C 24 10.34314575050762  22.65685424949238 9  21 9  Z " stroke-width="0" stroke-dasharray="0" stroke="rgba(255, 255, 255, 0)" fill="none" class="stroke" mask="url(#Clip5912)" />
    <path d="M 21.75 1.5  L 2.25 1.5  C 1.835786437626905 1.5  1.5 1.835786437626905  1.5 2.25  L 1.5 5.25  C 1.5 5.664213562373095  1.835786437626905 6  2.25 6  L 21.75 6  C 22.164213562373096 6  22.5 5.664213562373095  22.5 5.25  L 22.5 2.25  C 22.5 1.835786437626905  22.164213562373096 1.5  21.75 1.5  Z " stroke-width="0" stroke-dasharray="0" stroke="rgba(255, 255, 255, 0)" fill="none" class="stroke" mask="url(#Clip5912)" />
    <path d="M 3 10.5  L 21 10.5  C 21.82842712474619 10.5  22.5 11.17157287525381  22.5 12  L 22.5 19.5  C 22.5 20.32842712474619  21.82842712474619 21  21 21  L 3 21  C 2.1715728752538097 21  1.5 20.32842712474619  1.5 19.5  L 1.5 12  C 1.5 11.17157287525381  2.1715728752538097 10.5  3 10.5  Z " stroke-width="0" stroke-dasharray="0" stroke="rgba(255, 255, 255, 0)" fill="none" class="stroke" mask="url(#Clip5912)" />
  </g>
</svg>