<?xml version="1.0" encoding="utf-8"?>
<svg version="1.1" xmlns:xlink="http://www.w3.org/1999/xlink" width="56px" height="64px" xmlns="http://www.w3.org/2000/svg">
  <defs>
    <pattern id="BGPattern" patternUnits="userSpaceOnUse" alignment="0 0" imageRepeat="None" />
    <mask fill="white" id="Clip1957">
      <path d="M 56 6  C 56 2.6875  53.3125 0  50 0  C 46.6875 0  44 2.6875  44 6  C 44 9.3125  46.6875 12  50 12  C 53.3125 12  56 9.3125  56 6  Z M 52 58  C 52 56.9  51.1 56  50 56  C 48.9 56  48 56.9  48 58  C 48 59.1  47.1 60  46 60  L 34 60  C 32.9 60  32 60.9  32 62  C 32 63.1  32.9 64  34 64  L 46 64  C 49.3125 64  52 61.3125  52 58  Z M 17.562500000000004 57.075  C 16.787500000000005 56.3  15.512500000000003 56.2875  14.725000000000001 57.075  C 13.950000000000001 57.85  12.675 57.862500000000004  11.900000000000002 57.075  L 3.4125000000000014 48.587500000000006  C 2.6375000000000015 47.81250000000001  1.3625000000000016 47.81250000000001  0.5875000000000012 48.587500000000006  C -0.1874999999999991 49.362500000000004  -0.18749999999999878 50.6375  0.5875000000000012 51.41250000000001  L 9.075000000000003 59.900000000000006  C 10.250000000000004 61.075  11.787500000000003 61.650000000000006  13.325000000000003 61.650000000000006  C 14.8625 61.650000000000006  16.400000000000002 61.06250000000001  17.562500000000004 59.900000000000006  C 18.337500000000002 59.12500000000001  18.337500000000002 57.85000000000001  17.562500000000004 57.075  Z M 23.387500000000003 36.699999999999996  C 22.762500000000003 36.074999999999996  22.212500000000002 35.3625  21.7375 34.6  L 10.025 46.3125  C 8.4625 47.875  8.4625 50.4125  10.025 51.9625  C 10.8 52.7375  11.825000000000001 53.137499999999996  12.850000000000001 53.137499999999996  C 13.875000000000002 53.137499999999996  14.900000000000002 52.74999999999999  15.675 51.9625  L 27.1625 40.474999999999994  L 23.387500000000003 36.699999999999996  Z M 12 16.000000000000007  C 12 18.212500000000006  13.7875 20.000000000000007  16 20  L 29.187499999999996 20  L 26.675 22.15  C 24.9875 23.5875  23.975 25.7  23.8875 27.912499999999998  C 23.8 30.1375  24.65 32.3125  26.224999999999998 33.875  L 36 43.65  L 36 54  C 36 56.2125  37.7875 58  40 58  C 42.2125 58  44 56.2125  44 54  L 44 42.825  C 44 41.25  43.3625 39.7  42.2375 38.587500000000006  L 34.6125 30.962500000000006  C 34.675 30.912500000000005  34.762499999999996 30.887500000000006  34.824999999999996 30.825000000000006  L 45.1125 20.53750000000001  C 46.55 19.10000000000001  46.974999999999994 16.96250000000001  46.199999999999996 15.08750000000001  C 45.425 13.21250000000001  43.6125 12.000000000000009  41.574999999999996 12  L 16 12  C 13.7875 12.000000000000009  12 13.787500000000009  12 16.000000000000007  Z " fill-rule="evenodd" />
    </mask>
  </defs>
  <g>
    <path d="M 56 6  C 56 2.6875  53.3125 0  50 0  C 46.6875 0  44 2.6875  44 6  C 44 9.3125  46.6875 12  50 12  C 53.3125 12  56 9.3125  56 6  Z M 52 58  C 52 56.9  51.1 56  50 56  C 48.9 56  48 56.9  48 58  C 48 59.1  47.1 60  46 60  L 34 60  C 32.9 60  32 60.9  32 62  C 32 63.1  32.9 64  34 64  L 46 64  C 49.3125 64  52 61.3125  52 58  Z M 17.562500000000004 57.075  C 16.787500000000005 56.3  15.512500000000003 56.2875  14.725000000000001 57.075  C 13.950000000000001 57.85  12.675 57.862500000000004  11.900000000000002 57.075  L 3.4125000000000014 48.587500000000006  C 2.6375000000000015 47.81250000000001  1.3625000000000016 47.81250000000001  0.5875000000000012 48.587500000000006  C -0.1874999999999991 49.362500000000004  -0.18749999999999878 50.6375  0.5875000000000012 51.41250000000001  L 9.075000000000003 59.900000000000006  C 10.250000000000004 61.075  11.787500000000003 61.650000000000006  13.325000000000003 61.650000000000006  C 14.8625 61.650000000000006  16.400000000000002 61.06250000000001  17.562500000000004 59.900000000000006  C 18.337500000000002 59.12500000000001  18.337500000000002 57.85000000000001  17.562500000000004 57.075  Z M 23.387500000000003 36.699999999999996  C 22.762500000000003 36.074999999999996  22.212500000000002 35.3625  21.7375 34.6  L 10.025 46.3125  C 8.4625 47.875  8.4625 50.4125  10.025 51.9625  C 10.8 52.7375  11.825000000000001 53.137499999999996  12.850000000000001 53.137499999999996  C 13.875000000000002 53.137499999999996  14.900000000000002 52.74999999999999  15.675 51.9625  L 27.1625 40.474999999999994  L 23.387500000000003 36.699999999999996  Z M 12 16.000000000000007  C 12 18.212500000000006  13.7875 20.000000000000007  16 20  L 29.187499999999996 20  L 26.675 22.15  C 24.9875 23.5875  23.975 25.7  23.8875 27.912499999999998  C 23.8 30.1375  24.65 32.3125  26.224999999999998 33.875  L 36 43.65  L 36 54  C 36 56.2125  37.7875 58  40 58  C 42.2125 58  44 56.2125  44 54  L 44 42.825  C 44 41.25  43.3625 39.7  42.2375 38.587500000000006  L 34.6125 30.962500000000006  C 34.675 30.912500000000005  34.762499999999996 30.887500000000006  34.824999999999996 30.825000000000006  L 45.1125 20.53750000000001  C 46.55 19.10000000000001  46.974999999999994 16.96250000000001  46.199999999999996 15.08750000000001  C 45.425 13.21250000000001  43.6125 12.000000000000009  41.574999999999996 12  L 16 12  C 13.7875 12.000000000000009  12 13.787500000000009  12 16.000000000000007  Z " fill-rule="nonzero" fill="rgba(0, 0, 0, 1)" stroke="none" class="fill" />
    <path d="M 56 6  C 56 2.6875  53.3125 0  50 0  C 46.6875 0  44 2.6875  44 6  C 44 9.3125  46.6875 12  50 12  C 53.3125 12  56 9.3125  56 6  Z " stroke-width="0" stroke-dasharray="0" stroke="rgba(255, 255, 255, 0)" fill="none" class="stroke" mask="url(#Clip1957)" />
    <path d="M 52 58  C 52 56.9  51.1 56  50 56  C 48.9 56  48 56.9  48 58  C 48 59.1  47.1 60  46 60  L 34 60  C 32.9 60  32 60.9  32 62  C 32 63.1  32.9 64  34 64  L 46 64  C 49.3125 64  52 61.3125  52 58  Z " stroke-width="0" stroke-dasharray="0" stroke="rgba(255, 255, 255, 0)" fill="none" class="stroke" mask="url(#Clip1957)" />
    <path d="M 17.562500000000004 57.075  C 16.787500000000005 56.3  15.512500000000003 56.2875  14.725000000000001 57.075  C 13.950000000000001 57.85  12.675 57.862500000000004  11.900000000000002 57.075  L 3.4125000000000014 48.587500000000006  C 2.6375000000000015 47.81250000000001  1.3625000000000016 47.81250000000001  0.5875000000000012 48.587500000000006  C -0.1874999999999991 49.362500000000004  -0.18749999999999878 50.6375  0.5875000000000012 51.41250000000001  L 9.075000000000003 59.900000000000006  C 10.250000000000004 61.075  11.787500000000003 61.650000000000006  13.325000000000003 61.650000000000006  C 14.8625 61.650000000000006  16.400000000000002 61.06250000000001  17.562500000000004 59.900000000000006  C 18.337500000000002 59.12500000000001  18.337500000000002 57.85000000000001  17.562500000000004 57.075  Z " stroke-width="0" stroke-dasharray="0" stroke="rgba(255, 255, 255, 0)" fill="none" class="stroke" mask="url(#Clip1957)" />
    <path d="M 23.387500000000003 36.699999999999996  C 22.762500000000003 36.074999999999996  22.212500000000002 35.3625  21.7375 34.6  L 10.025 46.3125  C 8.4625 47.875  8.4625 50.4125  10.025 51.9625  C 10.8 52.7375  11.825000000000001 53.137499999999996  12.850000000000001 53.137499999999996  C 13.875000000000002 53.137499999999996  14.900000000000002 52.74999999999999  15.675 51.9625  L 27.1625 40.474999999999994  L 23.387500000000003 36.699999999999996  Z " stroke-width="0" stroke-dasharray="0" stroke="rgba(255, 255, 255, 0)" fill="none" class="stroke" mask="url(#Clip1957)" />
    <path d="M 12 16.000000000000007  C 12 18.212500000000006  13.7875 20.000000000000007  16 20  L 29.187499999999996 20  L 26.675 22.15  C 24.9875 23.5875  23.975 25.7  23.8875 27.912499999999998  C 23.8 30.1375  24.65 32.3125  26.224999999999998 33.875  L 36 43.65  L 36 54  C 36 56.2125  37.7875 58  40 58  C 42.2125 58  44 56.2125  44 54  L 44 42.825  C 44 41.25  43.3625 39.7  42.2375 38.587500000000006  L 34.6125 30.962500000000006  C 34.675 30.912500000000005  34.762499999999996 30.887500000000006  34.824999999999996 30.825000000000006  L 45.1125 20.53750000000001  C 46.55 19.10000000000001  46.974999999999994 16.96250000000001  46.199999999999996 15.08750000000001  C 45.425 13.21250000000001  43.6125 12.000000000000009  41.574999999999996 12  L 16 12  C 13.7875 12.000000000000009  12 13.787500000000009  12 16.000000000000007  Z " stroke-width="0" stroke-dasharray="0" stroke="rgba(255, 255, 255, 0)" fill="none" class="stroke" mask="url(#Clip1957)" />
  </g>
</svg>