<?xml version="1.0" encoding="utf-8"?>
<svg version="1.1" xmlns:xlink="http://www.w3.org/1999/xlink" width="49px" height="38px" xmlns="http://www.w3.org/2000/svg">
  <defs>
    <pattern id="BGPattern" patternUnits="userSpaceOnUse" alignment="0 0" imageRepeat="None" />
    <mask fill="white" id="Clip7006">
      <path d="M 20.72 28.979999999999997  C 15.039999999999997 16.6  7.34 7.279999999999999  7.34 7.279999999999999  C 7.34 7.279999999999999  3.64 10.82  3.44 14.559999999999999  L 3.44 15.259999999999998  C 3.6000000000000005 18.279999999999998  5.88 20.06  5.88 20.06  C 9.54 23.64  18.4 28.14  20.48 29.159999999999997  C 20.48 29.159999999999997  20.6 29.22  20.68 29.139999999999993  L 20.72 29.059999999999995  L 20.72 29  L 20.72 28.979999999999997  Z M 19.299999999999997 32.18000000000001  L 19.3 32.2  C 19.26 32.040000000000006  19.1 32.040000000000006  19.1 32.040000000000006  L 4.340000000000002 32.56000000000001  C 5.940000000000001 35.42000000000001  8.64 37.62000000000001  11.46 36.96000000000001  C 13.38 36.46000000000001  17.78 33.400000000000006  19.22 32.36000000000001  C 19.34 32.260000000000005  19.299999999999997 32.18000000000001  19.299999999999997 32.18000000000001  Z M 19.52 30.740000000000002  C 19.52 30.680000000000003  19.46 30.64  19.46 30.64  C 12.98 26.259999999999998  0.42000000000000004 19.56  0.42000000000000004 19.56  C 0.12 20.48  0.019999999999999962 21.360000000000003  0 22.16  L 0 22.3  C 0 24.44  0.8 25.94  0.8 25.94  C 2.4000000000000004 29.32  5.4799999999999995 30.340000000000003  5.4799999999999995 30.340000000000003  C 6.88 30.940000000000005  8.28 30.96  8.28 30.96  C 8.52 31  17.08 30.96  19.36 30.96  C 19.46 30.96  19.52 30.860000000000003  19.52 30.860000000000003  L 19.52 30.740000000000002  Z M 20.5 0.9199999999999982  C 19.86 0.9599999999999982  18.12 1.3799999999999981  18.12 1.3800000000000008  C 15.209003955247224 2.123260820034224  13.123798507877968 4.679057380039344  12.98 7.68  L 12.98 8.5  C 13.040000000000001 9.7  13.300000000000002 10.6  13.300000000000002 10.6  C 14.620000000000001 16.4  21.02 25.9  22.4 27.9  C 22.5 28  22.599999999999998 27.96  22.599999999999998 27.96  C 22.678756361752786 27.925971768804427  22.72703690741698 27.845504192697433  22.72 27.759999999999994  C 24.84 6.559999999999999  20.5 0.9199999999999982  20.5 0.9199999999999982  Z M 34.68 10.599999999999994  C 34.68 10.599999999999994  35.4 7.799999999999994  34.72 5.92  C 34.72 5.92  33.74 2.3200000000000003  29.84 1.3600000000000003  C 29.84 1.3600000000000003  28.700000000000003 1.08  27.499999999999996 0.9199999999999999  C 27.499999999999996 0.9199999999999999  23.14 6.539999999999999  25.259999999999998 27.78  C 25.279999999999998 27.92  25.38 27.939999999999994  25.38 27.939999999999994  C 25.520000000000003 28  25.58 27.879999999999995  25.58 27.879999999999995  C 27.019999999999996 25.819999999999997  33.379999999999995 16.359999999999996  34.68 10.599999999999994  Z M 28.86 32.06  L 28.88 32.06  C 28.88 32.06  28.739999999999995 32.06  28.700000000000003 32.160000000000004  C 28.700000000000003 32.160000000000004  28.68 32.300000000000004  28.759999999999998 32.36000000000001  C 30.159999999999997 33.38000000000001  34.46 36.36000000000001  36.519999999999996 36.96000000000001  C 36.519999999999996 36.96000000000001  36.839999999999996 37.06000000000001  37.379999999999995 37.080000000000005  L 37.66 37.080000000000005  C 39.04 37.040000000000006  41.459999999999994 36.34  43.66 32.56  L 28.86 32.06  Z M 42.12 20.08  C 42.12 20.08  44.419999999999995 18.22  44.54 15.239999999999998  C 44.82 11.119999999999997  40.66 7.299999999999997  40.66 7.279999999999998  C 40.66 7.279999999999998  32.959999999999994 16.599999999999998  27.319999999999997 28.879999999999995  C 27.319999999999997 28.879999999999995  27.26 29.039999999999992  27.359999999999996 29.139999999999993  L 27.43999999999999 29.159999999999997  L 27.55999999999999 29.159999999999997  C 29.679999999999996 28.099999999999994  38.48 23.619999999999997  42.12 20.08  Z M 47.24 25.799999999999997  C 47.24 25.799999999999997  48.7 22.9  47.58 19.52  C 47.58 19.52  35.019999999999996 26.259999999999998  28.54 30.619999999999997  C 28.54 30.619999999999997  28.439999999999998 30.699999999999996  28.48 30.839999999999996  C 28.48 30.839999999999996  28.54 30.959999999999994  28.62 30.959999999999994  C 30.94 30.959999999999994  39.74 30.959999999999994  39.96 30.919999999999995  C 39.96 30.919999999999995  41.1 30.879999999999995  42.5 30.339999999999996  C 42.5 30.339999999999996  45.62 29.339999999999996  47.24 25.799999999999997  Z " fill-rule="evenodd" />
    </mask>
  </defs>
  <g>
    <path d="M 20.72 28.979999999999997  C 15.039999999999997 16.6  7.34 7.279999999999999  7.34 7.279999999999999  C 7.34 7.279999999999999  3.64 10.82  3.44 14.559999999999999  L 3.44 15.259999999999998  C 3.6000000000000005 18.279999999999998  5.88 20.06  5.88 20.06  C 9.54 23.64  18.4 28.14  20.48 29.159999999999997  C 20.48 29.159999999999997  20.6 29.22  20.68 29.139999999999993  L 20.72 29.059999999999995  L 20.72 29  L 20.72 28.979999999999997  Z M 19.299999999999997 32.18000000000001  L 19.3 32.2  C 19.26 32.040000000000006  19.1 32.040000000000006  19.1 32.040000000000006  L 4.340000000000002 32.56000000000001  C 5.940000000000001 35.42000000000001  8.64 37.62000000000001  11.46 36.96000000000001  C 13.38 36.46000000000001  17.78 33.400000000000006  19.22 32.36000000000001  C 19.34 32.260000000000005  19.299999999999997 32.18000000000001  19.299999999999997 32.18000000000001  Z M 19.52 30.740000000000002  C 19.52 30.680000000000003  19.46 30.64  19.46 30.64  C 12.98 26.259999999999998  0.42000000000000004 19.56  0.42000000000000004 19.56  C 0.12 20.48  0.019999999999999962 21.360000000000003  0 22.16  L 0 22.3  C 0 24.44  0.8 25.94  0.8 25.94  C 2.4000000000000004 29.32  5.4799999999999995 30.340000000000003  5.4799999999999995 30.340000000000003  C 6.88 30.940000000000005  8.28 30.96  8.28 30.96  C 8.52 31  17.08 30.96  19.36 30.96  C 19.46 30.96  19.52 30.860000000000003  19.52 30.860000000000003  L 19.52 30.740000000000002  Z M 20.5 0.9199999999999982  C 19.86 0.9599999999999982  18.12 1.3799999999999981  18.12 1.3800000000000008  C 15.209003955247224 2.123260820034224  13.123798507877968 4.679057380039344  12.98 7.68  L 12.98 8.5  C 13.040000000000001 9.7  13.300000000000002 10.6  13.300000000000002 10.6  C 14.620000000000001 16.4  21.02 25.9  22.4 27.9  C 22.5 28  22.599999999999998 27.96  22.599999999999998 27.96  C 22.678756361752786 27.925971768804427  22.72703690741698 27.845504192697433  22.72 27.759999999999994  C 24.84 6.559999999999999  20.5 0.9199999999999982  20.5 0.9199999999999982  Z M 34.68 10.599999999999994  C 34.68 10.599999999999994  35.4 7.799999999999994  34.72 5.92  C 34.72 5.92  33.74 2.3200000000000003  29.84 1.3600000000000003  C 29.84 1.3600000000000003  28.700000000000003 1.08  27.499999999999996 0.9199999999999999  C 27.499999999999996 0.9199999999999999  23.14 6.539999999999999  25.259999999999998 27.78  C 25.279999999999998 27.92  25.38 27.939999999999994  25.38 27.939999999999994  C 25.520000000000003 28  25.58 27.879999999999995  25.58 27.879999999999995  C 27.019999999999996 25.819999999999997  33.379999999999995 16.359999999999996  34.68 10.599999999999994  Z M 28.86 32.06  L 28.88 32.06  C 28.88 32.06  28.739999999999995 32.06  28.700000000000003 32.160000000000004  C 28.700000000000003 32.160000000000004  28.68 32.300000000000004  28.759999999999998 32.36000000000001  C 30.159999999999997 33.38000000000001  34.46 36.36000000000001  36.519999999999996 36.96000000000001  C 36.519999999999996 36.96000000000001  36.839999999999996 37.06000000000001  37.379999999999995 37.080000000000005  L 37.66 37.080000000000005  C 39.04 37.040000000000006  41.459999999999994 36.34  43.66 32.56  L 28.86 32.06  Z M 42.12 20.08  C 42.12 20.08  44.419999999999995 18.22  44.54 15.239999999999998  C 44.82 11.119999999999997  40.66 7.299999999999997  40.66 7.279999999999998  C 40.66 7.279999999999998  32.959999999999994 16.599999999999998  27.319999999999997 28.879999999999995  C 27.319999999999997 28.879999999999995  27.26 29.039999999999992  27.359999999999996 29.139999999999993  L 27.43999999999999 29.159999999999997  L 27.55999999999999 29.159999999999997  C 29.679999999999996 28.099999999999994  38.48 23.619999999999997  42.12 20.08  Z M 47.24 25.799999999999997  C 47.24 25.799999999999997  48.7 22.9  47.58 19.52  C 47.58 19.52  35.019999999999996 26.259999999999998  28.54 30.619999999999997  C 28.54 30.619999999999997  28.439999999999998 30.699999999999996  28.48 30.839999999999996  C 28.48 30.839999999999996  28.54 30.959999999999994  28.62 30.959999999999994  C 30.94 30.959999999999994  39.74 30.959999999999994  39.96 30.919999999999995  C 39.96 30.919999999999995  41.1 30.879999999999995  42.5 30.339999999999996  C 42.5 30.339999999999996  45.62 29.339999999999996  47.24 25.799999999999997  Z " fill-rule="nonzero" fill="rgba(255, 0, 0, 1)" stroke="none" class="fill" />
    <path d="M 20.72 28.979999999999997  C 15.039999999999997 16.6  7.34 7.279999999999999  7.34 7.279999999999999  C 7.34 7.279999999999999  3.64 10.82  3.44 14.559999999999999  L 3.44 15.259999999999998  C 3.6000000000000005 18.279999999999998  5.88 20.06  5.88 20.06  C 9.54 23.64  18.4 28.14  20.48 29.159999999999997  C 20.48 29.159999999999997  20.6 29.22  20.68 29.139999999999993  L 20.72 29.059999999999995  L 20.72 29  L 20.72 28.979999999999997  Z " stroke-width="0" stroke-dasharray="0" stroke="rgba(255, 255, 255, 0)" fill="none" class="stroke" mask="url(#Clip7006)" />
    <path d="M 19.299999999999997 32.18000000000001  L 19.3 32.2  C 19.26 32.040000000000006  19.1 32.040000000000006  19.1 32.040000000000006  L 4.340000000000002 32.56000000000001  C 5.940000000000001 35.42000000000001  8.64 37.62000000000001  11.46 36.96000000000001  C 13.38 36.46000000000001  17.78 33.400000000000006  19.22 32.36000000000001  C 19.34 32.260000000000005  19.299999999999997 32.18000000000001  19.299999999999997 32.18000000000001  Z " stroke-width="0" stroke-dasharray="0" stroke="rgba(255, 255, 255, 0)" fill="none" class="stroke" mask="url(#Clip7006)" />
    <path d="M 19.52 30.740000000000002  C 19.52 30.680000000000003  19.46 30.64  19.46 30.64  C 12.98 26.259999999999998  0.42000000000000004 19.56  0.42000000000000004 19.56  C 0.12 20.48  0.019999999999999962 21.360000000000003  0 22.16  L 0 22.3  C 0 24.44  0.8 25.94  0.8 25.94  C 2.4000000000000004 29.32  5.4799999999999995 30.340000000000003  5.4799999999999995 30.340000000000003  C 6.88 30.940000000000005  8.28 30.96  8.28 30.96  C 8.52 31  17.08 30.96  19.36 30.96  C 19.46 30.96  19.52 30.860000000000003  19.52 30.860000000000003  L 19.52 30.740000000000002  Z " stroke-width="0" stroke-dasharray="0" stroke="rgba(255, 255, 255, 0)" fill="none" class="stroke" mask="url(#Clip7006)" />
    <path d="M 20.5 0.9199999999999982  C 19.86 0.9599999999999982  18.12 1.3799999999999981  18.12 1.3800000000000008  C 15.209003955247224 2.123260820034224  13.123798507877968 4.679057380039344  12.98 7.68  L 12.98 8.5  C 13.040000000000001 9.7  13.300000000000002 10.6  13.300000000000002 10.6  C 14.620000000000001 16.4  21.02 25.9  22.4 27.9  C 22.5 28  22.599999999999998 27.96  22.599999999999998 27.96  C 22.678756361752786 27.925971768804427  22.72703690741698 27.845504192697433  22.72 27.759999999999994  C 24.84 6.559999999999999  20.5 0.9199999999999982  20.5 0.9199999999999982  Z " stroke-width="0" stroke-dasharray="0" stroke="rgba(255, 255, 255, 0)" fill="none" class="stroke" mask="url(#Clip7006)" />
    <path d="M 34.68 10.599999999999994  C 34.68 10.599999999999994  35.4 7.799999999999994  34.72 5.92  C 34.72 5.92  33.74 2.3200000000000003  29.84 1.3600000000000003  C 29.84 1.3600000000000003  28.700000000000003 1.08  27.499999999999996 0.9199999999999999  C 27.499999999999996 0.9199999999999999  23.14 6.539999999999999  25.259999999999998 27.78  C 25.279999999999998 27.92  25.38 27.939999999999994  25.38 27.939999999999994  C 25.520000000000003 28  25.58 27.879999999999995  25.58 27.879999999999995  C 27.019999999999996 25.819999999999997  33.379999999999995 16.359999999999996  34.68 10.599999999999994  Z " stroke-width="0" stroke-dasharray="0" stroke="rgba(255, 255, 255, 0)" fill="none" class="stroke" mask="url(#Clip7006)" />
    <path d="M 28.86 32.06  L 28.88 32.06  C 28.88 32.06  28.739999999999995 32.06  28.700000000000003 32.160000000000004  C 28.700000000000003 32.160000000000004  28.68 32.300000000000004  28.759999999999998 32.36000000000001  C 30.159999999999997 33.38000000000001  34.46 36.36000000000001  36.519999999999996 36.96000000000001  C 36.519999999999996 36.96000000000001  36.839999999999996 37.06000000000001  37.379999999999995 37.080000000000005  L 37.66 37.080000000000005  C 39.04 37.040000000000006  41.459999999999994 36.34  43.66 32.56  L 28.86 32.06  Z " stroke-width="0" stroke-dasharray="0" stroke="rgba(255, 255, 255, 0)" fill="none" class="stroke" mask="url(#Clip7006)" />
    <path d="M 42.12 20.08  C 42.12 20.08  44.419999999999995 18.22  44.54 15.239999999999998  C 44.82 11.119999999999997  40.66 7.299999999999997  40.66 7.279999999999998  C 40.66 7.279999999999998  32.959999999999994 16.599999999999998  27.319999999999997 28.879999999999995  C 27.319999999999997 28.879999999999995  27.26 29.039999999999992  27.359999999999996 29.139999999999993  L 27.43999999999999 29.159999999999997  L 27.55999999999999 29.159999999999997  C 29.679999999999996 28.099999999999994  38.48 23.619999999999997  42.12 20.08  Z " stroke-width="0" stroke-dasharray="0" stroke="rgba(255, 255, 255, 0)" fill="none" class="stroke" mask="url(#Clip7006)" />
    <path d="M 47.24 25.799999999999997  C 47.24 25.799999999999997  48.7 22.9  47.58 19.52  C 47.58 19.52  35.019999999999996 26.259999999999998  28.54 30.619999999999997  C 28.54 30.619999999999997  28.439999999999998 30.699999999999996  28.48 30.839999999999996  C 28.48 30.839999999999996  28.54 30.959999999999994  28.62 30.959999999999994  C 30.94 30.959999999999994  39.74 30.959999999999994  39.96 30.919999999999995  C 39.96 30.919999999999995  41.1 30.879999999999995  42.5 30.339999999999996  C 42.5 30.339999999999996  45.62 29.339999999999996  47.24 25.799999999999997  Z " stroke-width="0" stroke-dasharray="0" stroke="rgba(255, 255, 255, 0)" fill="none" class="stroke" mask="url(#Clip7006)" />
  </g>
</svg>