<?xml version="1.0" encoding="utf-8"?>
<svg version="1.1" xmlns:xlink="http://www.w3.org/1999/xlink" width="48px" height="48px" xmlns="http://www.w3.org/2000/svg">
  <defs>
    <pattern id="BGPattern" patternUnits="userSpaceOnUse" alignment="0 0" imageRepeat="None" />
    <mask fill="white" id="Clip7368">
      <path d="M 24.016000000000005 5.193999999999995  L 24.024 5.196  C 13.584000000000001 5.196  5.120000000000001 12.995999999999997  5.120000000000001 22.613999999999994  C 5.120000000000001 28.645999999999994  7.558000000000002 33.21599999999999  11.43 36.16199999999999  L 11.42 36.16199999999999  L 11.888 42.24599999999999  L 11.888 42.25399999999999  C 11.888 42.28799999999999  11.888 42.31599999999999  11.895999999999999 42.34599999999999  L 11.895999999999999 42.35799999999999  C 11.943999999999999 42.64599999999999  12.196 42.86799999999999  12.497999999999998 42.86799999999999  C 12.604 42.86799999999999  12.697999999999997 42.83799999999999  12.785999999999998 42.79799999999999  L 12.808 42.78199999999999  L 18.6 39.43399999999999  C 20.308 39.82599999999999  22.134 40.032  24.020000000000003 40.032  C 34.46 40.032  42.92400000000001 32.233999999999995  42.92400000000001 22.61199999999999  C 42.92400000000001 12.991999999999994  34.458000000000006 5.193999999999995  24.016000000000005 5.193999999999995  Z M 20.778 1.4419999999999997  L 20.78 1.4399999999999997  C 21.830000000000002 1.31  22.902 1.2319999999999998  23.990000000000002 1.2319999999999998  C 24.750000000000007 1.2319999999999998  25.490000000000002 1.2719999999999998  26.228 1.3359999999999999  L 26.342 0.10800000000000007  C 25.562 0.03799999999999999  24.784 0  23.994 0  C 22.854 0  21.724 0.07199999999999998  20.612 0.21799999999999997  L 20.778 1.4419999999999997  Z M 28.594 0.4119999999999998  L 28.374000000000002 1.6279999999999997  C 30.204 1.9579999999999995  31.944000000000003 2.5  33.594 3.217999999999999  L 34.098 2.0839999999999996  C 33.833999999999996 1.9719999999999995  33.571999999999996 1.8599999999999999  33.304 1.7539999999999996  C 31.78 1.154  30.202 0.7059999999999998  28.594 0.4119999999999998  Z M 47.944 22.737999999999996  L 46.712 22.739999999999995  C 46.682 24.57  46.402 26.35199999999999  45.902 28.049999999999994  L 47.082 28.399999999999995  C 47.616 26.593999999999994  47.914 24.692  47.944 22.737999999999996  Z M 12.951999999999998 2.5159999999999996  L 13.490000000000002 3.6279999999999992  C 15.112000000000002 2.8499999999999996  16.846 2.232  18.662 1.8239999999999998  L 18.392 0.6159999999999999  C 17.13 0.8979999999999999  15.89 1.274  14.686 1.7539999999999996  C 14.092000000000002 1.9879999999999995  13.514 2.2439999999999993  12.951999999999998 2.5159999999999996  Z M 40.79 6.43  L 40.79 6.426  C 39.378 5.127999999999999  37.82 4.012  36.132 3.08  L 35.51 4.161999999999999  C 37.132 5.052  38.632 6.123999999999999  39.958 7.353999999999999  L 40.79 6.43  Z M 30.001999999999995 42.90999999999999  L 30.302 44.102  C 32.192 43.622  33.992 42.919999999999995  35.674 42.041999999999994  L 35.044 40.976  C 33.471999999999994 41.80199999999999  31.781999999999996 42.45199999999999  30.001999999999995 42.90999999999999  Z M 7.348000000000001 8.008  L 7.354 8.009999999999998  C 8.614 6.733999999999999  10.048 5.6099999999999985  11.614 4.66  L 10.96 3.6019999999999994  C 9.564 4.446  8.260000000000002 5.43  7.07 6.548  C 6.8660000000000005 6.735999999999999  6.67 6.929999999999999  6.470000000000001 7.1259999999999994  L 7.348000000000001 8.008  Z M 46.308 30.569999999999993  L 46.314 30.569999999999993  L 45.178 30.097999999999992  C 44.48 31.763999999999992  43.571999999999996 33.32599999999999  42.47 34.76199999999999  L 43.46 35.5  C 44.614000000000004 33.983999999999995  45.582 32.328  46.308 30.569999999999993  Z M 41.446 8.866  L 41.452 8.866  C 42.664 10.215999999999998  43.696 11.715999999999998  44.519999999999996 13.322  L 45.629999999999995 12.771999999999998  C 44.76 11.067999999999996  43.672 9.481999999999998  42.376 8.039999999999997  L 41.446 8.866  Z M 47.86199999999999 20.457999999999995  C 47.685999999999986 18.545999999999996  47.25199999999999 16.673999999999996  46.559999999999995 14.871999999999998  L 45.42399999999999 15.359999999999998  C 46.04999999999999 17.016  46.465999999999994 18.765999999999995  46.63199999999999 20.579999999999995  L 47.86199999999999 20.457999999999995  Z M 13.274000000000001 46.822  L 12.772 45.69799999999999  L 10.834 46.547999999999995  L 10.17 44.498  L 9 44.878  L 9.876 47.572  C 9.934 47.738  10.056 47.874  10.209999999999999 47.948  C 10.292 47.982  10.376 48  10.462 48  C 10.548 48  10.629999999999999 47.982  10.708 47.948  L 13.274000000000001 46.822  Z M 20.159999999999997 44.51999999999999  L 20.418 43.31199999999999  C 20.262 43.279999999999994  20.104 43.25799999999999  19.944 43.22999999999999  L 19.014 43.07199999999999  C 18.892 43.05399999999999  18.774 43.07199999999999  18.669999999999998 43.11799999999999  L 14.767999999999997 44.82399999999999  L 15.309999999999999 45.93199999999999  L 18.999999999999996 44.325999999999986  C 19.249999999999996 44.36799999999999  19.499999999999996 44.40799999999999  19.741999999999997 44.44399999999999  C 19.877999999999997 44.47799999999999  20.019999999999996 44.49599999999999  20.159999999999997 44.51999999999999  Z M 27.878 43.35399999999998  L 27.873999999999995 43.35199999999999  C 26.607999999999997 43.55999999999999  25.311999999999998 43.66399999999999  23.99 43.66399999999999  C 23.444 43.66399999999999  22.939999999999998 43.633999999999986  22.445999999999998 43.58799999999999  L 22.407999999999998 44.817999999999984  C 22.909999999999997 44.865999999999985  23.429999999999996 44.89799999999998  23.99 44.89799999999998  C 25.386 44.89799999999998  26.756 44.78199999999998  28.086 44.56599999999998  L 27.878 43.35399999999998  Z M 1.9080000000000008 13.709999999999997  L 3.034 14.231999999999996  C 3.774 12.581999999999997  4.7379999999999995 11.035999999999998  5.884 9.627999999999998  L 4.944000000000001 8.814  C 3.724000000000001 10.303999999999998  2.7120000000000006 11.927999999999999  1.9280000000000008 13.667999999999997  L 1.9080000000000008 13.709999999999997  Z M 41.982 37.248000000000005  L 41.064 36.419999999999995  C 39.84 37.721999999999994  38.444 38.87799999999999  36.924 39.876  L 37.602 40.906  C 39.214 39.858  40.684 38.626000000000005  41.982 37.248000000000005  Z M 0.752 29.445999999999998  L 1.94 29.101999999999997  C 1.564 27.509999999999998  1.354 25.749999999999996  1.294 23.759999999999998  L 0.062 23.759999999999998  C 0.122 25.901999999999994  0.352 27.769999999999996  0.752 29.445999999999998  Z M 2.26 16.211999999999996  L 1.076 15.849999999999998  C 0.4820000000000001 17.669999999999995  0.14 19.555999999999997  0.05600000000000005 21.475999999999996  L 1.286 21.535999999999994  C 1.37 19.689999999999994  1.7039999999999997 17.903999999999996  2.26 16.211999999999996  Z M 8.299999999999999 42.73799999999999  L 9.474 42.36999999999999  L 8.294 38.739999999999995  C 8.254000000000001 38.61999999999999  8.182 38.521999999999984  8.084 38.446  C 7.619999999999999 38.081999999999994  7.186 37.714  6.763999999999999 37.33  L 5.919999999999999 38.221999999999994  C 6.308 38.59  6.735999999999999 38.94599999999999  7.177999999999999 39.304  L 8.299999999999999 42.73799999999999  Z M 4.344 36.608  L 5.264 35.785999999999994  C 4.082000000000001 34.403999999999996  3.1900000000000004 32.88799999999999  2.5540000000000003 31.155999999999995  L 1.4080000000000004 31.613999999999997  C 1.4900000000000004 31.827999999999996  1.5740000000000003 32.04599999999999  1.6600000000000004 32.257999999999996  C 2.3200000000000003 33.849999999999994  3.2020000000000004 35.275999999999996  4.344 36.608  Z " fill-rule="evenodd" />
    </mask>
  </defs>
  <g>
    <path d="M 24.016000000000005 5.193999999999995  L 24.024 5.196  C 13.584000000000001 5.196  5.120000000000001 12.995999999999997  5.120000000000001 22.613999999999994  C 5.120000000000001 28.645999999999994  7.558000000000002 33.21599999999999  11.43 36.16199999999999  L 11.42 36.16199999999999  L 11.888 42.24599999999999  L 11.888 42.25399999999999  C 11.888 42.28799999999999  11.888 42.31599999999999  11.895999999999999 42.34599999999999  L 11.895999999999999 42.35799999999999  C 11.943999999999999 42.64599999999999  12.196 42.86799999999999  12.497999999999998 42.86799999999999  C 12.604 42.86799999999999  12.697999999999997 42.83799999999999  12.785999999999998 42.79799999999999  L 12.808 42.78199999999999  L 18.6 39.43399999999999  C 20.308 39.82599999999999  22.134 40.032  24.020000000000003 40.032  C 34.46 40.032  42.92400000000001 32.233999999999995  42.92400000000001 22.61199999999999  C 42.92400000000001 12.991999999999994  34.458000000000006 5.193999999999995  24.016000000000005 5.193999999999995  Z M 20.778 1.4419999999999997  L 20.78 1.4399999999999997  C 21.830000000000002 1.31  22.902 1.2319999999999998  23.990000000000002 1.2319999999999998  C 24.750000000000007 1.2319999999999998  25.490000000000002 1.2719999999999998  26.228 1.3359999999999999  L 26.342 0.10800000000000007  C 25.562 0.03799999999999999  24.784 0  23.994 0  C 22.854 0  21.724 0.07199999999999998  20.612 0.21799999999999997  L 20.778 1.4419999999999997  Z M 28.594 0.4119999999999998  L 28.374000000000002 1.6279999999999997  C 30.204 1.9579999999999995  31.944000000000003 2.5  33.594 3.217999999999999  L 34.098 2.0839999999999996  C 33.833999999999996 1.9719999999999995  33.571999999999996 1.8599999999999999  33.304 1.7539999999999996  C 31.78 1.154  30.202 0.7059999999999998  28.594 0.4119999999999998  Z M 47.944 22.737999999999996  L 46.712 22.739999999999995  C 46.682 24.57  46.402 26.35199999999999  45.902 28.049999999999994  L 47.082 28.399999999999995  C 47.616 26.593999999999994  47.914 24.692  47.944 22.737999999999996  Z M 12.951999999999998 2.5159999999999996  L 13.490000000000002 3.6279999999999992  C 15.112000000000002 2.8499999999999996  16.846 2.232  18.662 1.8239999999999998  L 18.392 0.6159999999999999  C 17.13 0.8979999999999999  15.89 1.274  14.686 1.7539999999999996  C 14.092000000000002 1.9879999999999995  13.514 2.2439999999999993  12.951999999999998 2.5159999999999996  Z M 40.79 6.43  L 40.79 6.426  C 39.378 5.127999999999999  37.82 4.012  36.132 3.08  L 35.51 4.161999999999999  C 37.132 5.052  38.632 6.123999999999999  39.958 7.353999999999999  L 40.79 6.43  Z M 30.001999999999995 42.90999999999999  L 30.302 44.102  C 32.192 43.622  33.992 42.919999999999995  35.674 42.041999999999994  L 35.044 40.976  C 33.471999999999994 41.80199999999999  31.781999999999996 42.45199999999999  30.001999999999995 42.90999999999999  Z M 7.348000000000001 8.008  L 7.354 8.009999999999998  C 8.614 6.733999999999999  10.048 5.6099999999999985  11.614 4.66  L 10.96 3.6019999999999994  C 9.564 4.446  8.260000000000002 5.43  7.07 6.548  C 6.8660000000000005 6.735999999999999  6.67 6.929999999999999  6.470000000000001 7.1259999999999994  L 7.348000000000001 8.008  Z M 46.308 30.569999999999993  L 46.314 30.569999999999993  L 45.178 30.097999999999992  C 44.48 31.763999999999992  43.571999999999996 33.32599999999999  42.47 34.76199999999999  L 43.46 35.5  C 44.614000000000004 33.983999999999995  45.582 32.328  46.308 30.569999999999993  Z M 41.446 8.866  L 41.452 8.866  C 42.664 10.215999999999998  43.696 11.715999999999998  44.519999999999996 13.322  L 45.629999999999995 12.771999999999998  C 44.76 11.067999999999996  43.672 9.481999999999998  42.376 8.039999999999997  L 41.446 8.866  Z M 47.86199999999999 20.457999999999995  C 47.685999999999986 18.545999999999996  47.25199999999999 16.673999999999996  46.559999999999995 14.871999999999998  L 45.42399999999999 15.359999999999998  C 46.04999999999999 17.016  46.465999999999994 18.765999999999995  46.63199999999999 20.579999999999995  L 47.86199999999999 20.457999999999995  Z M 13.274000000000001 46.822  L 12.772 45.69799999999999  L 10.834 46.547999999999995  L 10.17 44.498  L 9 44.878  L 9.876 47.572  C 9.934 47.738  10.056 47.874  10.209999999999999 47.948  C 10.292 47.982  10.376 48  10.462 48  C 10.548 48  10.629999999999999 47.982  10.708 47.948  L 13.274000000000001 46.822  Z M 20.159999999999997 44.51999999999999  L 20.418 43.31199999999999  C 20.262 43.279999999999994  20.104 43.25799999999999  19.944 43.22999999999999  L 19.014 43.07199999999999  C 18.892 43.05399999999999  18.774 43.07199999999999  18.669999999999998 43.11799999999999  L 14.767999999999997 44.82399999999999  L 15.309999999999999 45.93199999999999  L 18.999999999999996 44.325999999999986  C 19.249999999999996 44.36799999999999  19.499999999999996 44.40799999999999  19.741999999999997 44.44399999999999  C 19.877999999999997 44.47799999999999  20.019999999999996 44.49599999999999  20.159999999999997 44.51999999999999  Z M 27.878 43.35399999999998  L 27.873999999999995 43.35199999999999  C 26.607999999999997 43.55999999999999  25.311999999999998 43.66399999999999  23.99 43.66399999999999  C 23.444 43.66399999999999  22.939999999999998 43.633999999999986  22.445999999999998 43.58799999999999  L 22.407999999999998 44.817999999999984  C 22.909999999999997 44.865999999999985  23.429999999999996 44.89799999999998  23.99 44.89799999999998  C 25.386 44.89799999999998  26.756 44.78199999999998  28.086 44.56599999999998  L 27.878 43.35399999999998  Z M 1.9080000000000008 13.709999999999997  L 3.034 14.231999999999996  C 3.774 12.581999999999997  4.7379999999999995 11.035999999999998  5.884 9.627999999999998  L 4.944000000000001 8.814  C 3.724000000000001 10.303999999999998  2.7120000000000006 11.927999999999999  1.9280000000000008 13.667999999999997  L 1.9080000000000008 13.709999999999997  Z M 41.982 37.248000000000005  L 41.064 36.419999999999995  C 39.84 37.721999999999994  38.444 38.87799999999999  36.924 39.876  L 37.602 40.906  C 39.214 39.858  40.684 38.626000000000005  41.982 37.248000000000005  Z M 0.752 29.445999999999998  L 1.94 29.101999999999997  C 1.564 27.509999999999998  1.354 25.749999999999996  1.294 23.759999999999998  L 0.062 23.759999999999998  C 0.122 25.901999999999994  0.352 27.769999999999996  0.752 29.445999999999998  Z M 2.26 16.211999999999996  L 1.076 15.849999999999998  C 0.4820000000000001 17.669999999999995  0.14 19.555999999999997  0.05600000000000005 21.475999999999996  L 1.286 21.535999999999994  C 1.37 19.689999999999994  1.7039999999999997 17.903999999999996  2.26 16.211999999999996  Z M 8.299999999999999 42.73799999999999  L 9.474 42.36999999999999  L 8.294 38.739999999999995  C 8.254000000000001 38.61999999999999  8.182 38.521999999999984  8.084 38.446  C 7.619999999999999 38.081999999999994  7.186 37.714  6.763999999999999 37.33  L 5.919999999999999 38.221999999999994  C 6.308 38.59  6.735999999999999 38.94599999999999  7.177999999999999 39.304  L 8.299999999999999 42.73799999999999  Z M 4.344 36.608  L 5.264 35.785999999999994  C 4.082000000000001 34.403999999999996  3.1900000000000004 32.88799999999999  2.5540000000000003 31.155999999999995  L 1.4080000000000004 31.613999999999997  C 1.4900000000000004 31.827999999999996  1.5740000000000003 32.04599999999999  1.6600000000000004 32.257999999999996  C 2.3200000000000003 33.849999999999994  3.2020000000000004 35.275999999999996  4.344 36.608  Z " fill-rule="nonzero" fill="rgba(37, 146, 233, 1)" stroke="none" class="fill" />
    <path d="M 24.016000000000005 5.193999999999995  L 24.024 5.196  C 13.584000000000001 5.196  5.120000000000001 12.995999999999997  5.120000000000001 22.613999999999994  C 5.120000000000001 28.645999999999994  7.558000000000002 33.21599999999999  11.43 36.16199999999999  L 11.42 36.16199999999999  L 11.888 42.24599999999999  L 11.888 42.25399999999999  C 11.888 42.28799999999999  11.888 42.31599999999999  11.895999999999999 42.34599999999999  L 11.895999999999999 42.35799999999999  C 11.943999999999999 42.64599999999999  12.196 42.86799999999999  12.497999999999998 42.86799999999999  C 12.604 42.86799999999999  12.697999999999997 42.83799999999999  12.785999999999998 42.79799999999999  L 12.808 42.78199999999999  L 18.6 39.43399999999999  C 20.308 39.82599999999999  22.134 40.032  24.020000000000003 40.032  C 34.46 40.032  42.92400000000001 32.233999999999995  42.92400000000001 22.61199999999999  C 42.92400000000001 12.991999999999994  34.458000000000006 5.193999999999995  24.016000000000005 5.193999999999995  Z " stroke-width="0" stroke-dasharray="0" stroke="rgba(255, 255, 255, 0)" fill="none" class="stroke" mask="url(#Clip7368)" />
    <path d="M 20.778 1.4419999999999997  L 20.78 1.4399999999999997  C 21.830000000000002 1.31  22.902 1.2319999999999998  23.990000000000002 1.2319999999999998  C 24.750000000000007 1.2319999999999998  25.490000000000002 1.2719999999999998  26.228 1.3359999999999999  L 26.342 0.10800000000000007  C 25.562 0.03799999999999999  24.784 0  23.994 0  C 22.854 0  21.724 0.07199999999999998  20.612 0.21799999999999997  L 20.778 1.4419999999999997  Z " stroke-width="0" stroke-dasharray="0" stroke="rgba(255, 255, 255, 0)" fill="none" class="stroke" mask="url(#Clip7368)" />
    <path d="M 28.594 0.4119999999999998  L 28.374000000000002 1.6279999999999997  C 30.204 1.9579999999999995  31.944000000000003 2.5  33.594 3.217999999999999  L 34.098 2.0839999999999996  C 33.833999999999996 1.9719999999999995  33.571999999999996 1.8599999999999999  33.304 1.7539999999999996  C 31.78 1.154  30.202 0.7059999999999998  28.594 0.4119999999999998  Z " stroke-width="0" stroke-dasharray="0" stroke="rgba(255, 255, 255, 0)" fill="none" class="stroke" mask="url(#Clip7368)" />
    <path d="M 47.944 22.737999999999996  L 46.712 22.739999999999995  C 46.682 24.57  46.402 26.35199999999999  45.902 28.049999999999994  L 47.082 28.399999999999995  C 47.616 26.593999999999994  47.914 24.692  47.944 22.737999999999996  Z " stroke-width="0" stroke-dasharray="0" stroke="rgba(255, 255, 255, 0)" fill="none" class="stroke" mask="url(#Clip7368)" />
    <path d="M 12.951999999999998 2.5159999999999996  L 13.490000000000002 3.6279999999999992  C 15.112000000000002 2.8499999999999996  16.846 2.232  18.662 1.8239999999999998  L 18.392 0.6159999999999999  C 17.13 0.8979999999999999  15.89 1.274  14.686 1.7539999999999996  C 14.092000000000002 1.9879999999999995  13.514 2.2439999999999993  12.951999999999998 2.5159999999999996  Z " stroke-width="0" stroke-dasharray="0" stroke="rgba(255, 255, 255, 0)" fill="none" class="stroke" mask="url(#Clip7368)" />
    <path d="M 40.79 6.43  L 40.79 6.426  C 39.378 5.127999999999999  37.82 4.012  36.132 3.08  L 35.51 4.161999999999999  C 37.132 5.052  38.632 6.123999999999999  39.958 7.353999999999999  L 40.79 6.43  Z " stroke-width="0" stroke-dasharray="0" stroke="rgba(255, 255, 255, 0)" fill="none" class="stroke" mask="url(#Clip7368)" />
    <path d="M 30.001999999999995 42.90999999999999  L 30.302 44.102  C 32.192 43.622  33.992 42.919999999999995  35.674 42.041999999999994  L 35.044 40.976  C 33.471999999999994 41.80199999999999  31.781999999999996 42.45199999999999  30.001999999999995 42.90999999999999  Z " stroke-width="0" stroke-dasharray="0" stroke="rgba(255, 255, 255, 0)" fill="none" class="stroke" mask="url(#Clip7368)" />
    <path d="M 7.348000000000001 8.008  L 7.354 8.009999999999998  C 8.614 6.733999999999999  10.048 5.6099999999999985  11.614 4.66  L 10.96 3.6019999999999994  C 9.564 4.446  8.260000000000002 5.43  7.07 6.548  C 6.8660000000000005 6.735999999999999  6.67 6.929999999999999  6.470000000000001 7.1259999999999994  L 7.348000000000001 8.008  Z " stroke-width="0" stroke-dasharray="0" stroke="rgba(255, 255, 255, 0)" fill="none" class="stroke" mask="url(#Clip7368)" />
    <path d="M 46.308 30.569999999999993  L 46.314 30.569999999999993  L 45.178 30.097999999999992  C 44.48 31.763999999999992  43.571999999999996 33.32599999999999  42.47 34.76199999999999  L 43.46 35.5  C 44.614000000000004 33.983999999999995  45.582 32.328  46.308 30.569999999999993  Z " stroke-width="0" stroke-dasharray="0" stroke="rgba(255, 255, 255, 0)" fill="none" class="stroke" mask="url(#Clip7368)" />
    <path d="M 41.446 8.866  L 41.452 8.866  C 42.664 10.215999999999998  43.696 11.715999999999998  44.519999999999996 13.322  L 45.629999999999995 12.771999999999998  C 44.76 11.067999999999996  43.672 9.481999999999998  42.376 8.039999999999997  L 41.446 8.866  Z " stroke-width="0" stroke-dasharray="0" stroke="rgba(255, 255, 255, 0)" fill="none" class="stroke" mask="url(#Clip7368)" />
    <path d="M 47.86199999999999 20.457999999999995  C 47.685999999999986 18.545999999999996  47.25199999999999 16.673999999999996  46.559999999999995 14.871999999999998  L 45.42399999999999 15.359999999999998  C 46.04999999999999 17.016  46.465999999999994 18.765999999999995  46.63199999999999 20.579999999999995  L 47.86199999999999 20.457999999999995  Z " stroke-width="0" stroke-dasharray="0" stroke="rgba(255, 255, 255, 0)" fill="none" class="stroke" mask="url(#Clip7368)" />
    <path d="M 13.274000000000001 46.822  L 12.772 45.69799999999999  L 10.834 46.547999999999995  L 10.17 44.498  L 9 44.878  L 9.876 47.572  C 9.934 47.738  10.056 47.874  10.209999999999999 47.948  C 10.292 47.982  10.376 48  10.462 48  C 10.548 48  10.629999999999999 47.982  10.708 47.948  L 13.274000000000001 46.822  Z " stroke-width="0" stroke-dasharray="0" stroke="rgba(255, 255, 255, 0)" fill="none" class="stroke" mask="url(#Clip7368)" />
    <path d="M 20.159999999999997 44.51999999999999  L 20.418 43.31199999999999  C 20.262 43.279999999999994  20.104 43.25799999999999  19.944 43.22999999999999  L 19.014 43.07199999999999  C 18.892 43.05399999999999  18.774 43.07199999999999  18.669999999999998 43.11799999999999  L 14.767999999999997 44.82399999999999  L 15.309999999999999 45.93199999999999  L 18.999999999999996 44.325999999999986  C 19.249999999999996 44.36799999999999  19.499999999999996 44.40799999999999  19.741999999999997 44.44399999999999  C 19.877999999999997 44.47799999999999  20.019999999999996 44.49599999999999  20.159999999999997 44.51999999999999  Z " stroke-width="0" stroke-dasharray="0" stroke="rgba(255, 255, 255, 0)" fill="none" class="stroke" mask="url(#Clip7368)" />
    <path d="M 27.878 43.35399999999998  L 27.873999999999995 43.35199999999999  C 26.607999999999997 43.55999999999999  25.311999999999998 43.66399999999999  23.99 43.66399999999999  C 23.444 43.66399999999999  22.939999999999998 43.633999999999986  22.445999999999998 43.58799999999999  L 22.407999999999998 44.817999999999984  C 22.909999999999997 44.865999999999985  23.429999999999996 44.89799999999998  23.99 44.89799999999998  C 25.386 44.89799999999998  26.756 44.78199999999998  28.086 44.56599999999998  L 27.878 43.35399999999998  Z " stroke-width="0" stroke-dasharray="0" stroke="rgba(255, 255, 255, 0)" fill="none" class="stroke" mask="url(#Clip7368)" />
    <path d="M 1.9080000000000008 13.709999999999997  L 3.034 14.231999999999996  C 3.774 12.581999999999997  4.7379999999999995 11.035999999999998  5.884 9.627999999999998  L 4.944000000000001 8.814  C 3.724000000000001 10.303999999999998  2.7120000000000006 11.927999999999999  1.9280000000000008 13.667999999999997  L 1.9080000000000008 13.709999999999997  Z " stroke-width="0" stroke-dasharray="0" stroke="rgba(255, 255, 255, 0)" fill="none" class="stroke" mask="url(#Clip7368)" />
    <path d="M 41.982 37.248000000000005  L 41.064 36.419999999999995  C 39.84 37.721999999999994  38.444 38.87799999999999  36.924 39.876  L 37.602 40.906  C 39.214 39.858  40.684 38.626000000000005  41.982 37.248000000000005  Z " stroke-width="0" stroke-dasharray="0" stroke="rgba(255, 255, 255, 0)" fill="none" class="stroke" mask="url(#Clip7368)" />
    <path d="M 0.752 29.445999999999998  L 1.94 29.101999999999997  C 1.564 27.509999999999998  1.354 25.749999999999996  1.294 23.759999999999998  L 0.062 23.759999999999998  C 0.122 25.901999999999994  0.352 27.769999999999996  0.752 29.445999999999998  Z " stroke-width="0" stroke-dasharray="0" stroke="rgba(255, 255, 255, 0)" fill="none" class="stroke" mask="url(#Clip7368)" />
    <path d="M 2.26 16.211999999999996  L 1.076 15.849999999999998  C 0.4820000000000001 17.669999999999995  0.14 19.555999999999997  0.05600000000000005 21.475999999999996  L 1.286 21.535999999999994  C 1.37 19.689999999999994  1.7039999999999997 17.903999999999996  2.26 16.211999999999996  Z " stroke-width="0" stroke-dasharray="0" stroke="rgba(255, 255, 255, 0)" fill="none" class="stroke" mask="url(#Clip7368)" />
    <path d="M 8.299999999999999 42.73799999999999  L 9.474 42.36999999999999  L 8.294 38.739999999999995  C 8.254000000000001 38.61999999999999  8.182 38.521999999999984  8.084 38.446  C 7.619999999999999 38.081999999999994  7.186 37.714  6.763999999999999 37.33  L 5.919999999999999 38.221999999999994  C 6.308 38.59  6.735999999999999 38.94599999999999  7.177999999999999 39.304  L 8.299999999999999 42.73799999999999  Z " stroke-width="0" stroke-dasharray="0" stroke="rgba(255, 255, 255, 0)" fill="none" class="stroke" mask="url(#Clip7368)" />
    <path d="M 4.344 36.608  L 5.264 35.785999999999994  C 4.082000000000001 34.403999999999996  3.1900000000000004 32.88799999999999  2.5540000000000003 31.155999999999995  L 1.4080000000000004 31.613999999999997  C 1.4900000000000004 31.827999999999996  1.5740000000000003 32.04599999999999  1.6600000000000004 32.257999999999996  C 2.3200000000000003 33.849999999999994  3.2020000000000004 35.275999999999996  4.344 36.608  Z " stroke-width="0" stroke-dasharray="0" stroke="rgba(255, 255, 255, 0)" fill="none" class="stroke" mask="url(#Clip7368)" />
  </g>
</svg>