<?xml version="1.0" encoding="utf-8"?>
<svg version="1.1" xmlns:xlink="http://www.w3.org/1999/xlink" width="24px" height="24px" xmlns="http://www.w3.org/2000/svg">
  <defs>
    <pattern id="BGPattern" patternUnits="userSpaceOnUse" alignment="0 0" imageRepeat="None" />
    <mask fill="white" id="Clip4735">
      <path d="M 8.742 16.3185  C 9.034786453749648 16.02562511138564  9.034786453749648 15.55087488861436  8.742 15.258000000000001  C 8.44912511138564 14.965213546250354  7.974374888614361 14.965213546250354  7.681500000000001 15.258000000000001  L 1.5375000000000005 21.402  L 1.5375000000000005 17.25  C 1.5375000000000005 16.835786437626904  1.2017135623730957 16.5  0.7875000000000005 16.5  C 0.37328643762690544 16.5  0.03750000000000053 16.835786437626904  0.03750000000000053 17.25  L 0.03750000000000053 23.2125  C 0.03750000000000053 23.626713562373094  0.37328643762690544 23.9625  0.7875000000000005 23.9625  L 6.75 23.9625  C 7.164213562373095 23.9625  7.5 23.626713562373094  7.5 23.2125  C 7.5 22.798286437626906  7.164213562373095 22.4625  6.75 22.4625  L 2.598 22.4625  L 8.742 16.3185  Z M 15.258000000000001 16.3185  C 14.965213546250352 16.02562511138564  14.965213546250352 15.55087488861436  15.258000000000001 15.258000000000001  C 15.550874888614361 14.965213546250352  16.025625111385644 14.965213546250352  16.3185 15.258000000000001  L 22.462500000000002 21.402  L 22.462500000000002 17.25  C 22.462500000000002 16.835786437626904  22.798286437626906 16.5  23.212500000000002 16.5  C 23.626713562373098 16.5  23.962500000000002 16.835786437626904  23.962500000000002 17.25  L 23.962500000000002 23.2125  C 23.962500000000002 23.626713562373094  23.626713562373098 23.9625  23.212500000000002 23.9625  L 17.25 23.9625  C 16.835786437626904 23.9625  16.5 23.626713562373094  16.5 23.2125  C 16.5 22.798286437626906  16.835786437626904 22.4625  17.25 22.4625  L 21.402 22.4625  L 15.258000000000001 16.3185  Z M 15.258000000000001 7.681500000000001  C 14.965213546250354 7.974374888614362  14.965213546250354 8.449125111385639  15.258000000000001 8.742  C 15.550874888614361 9.034786453749648  16.025625111385644 9.034786453749648  16.3185 8.742  L 22.462500000000002 2.5980000000000003  L 22.462500000000002 6.75  C 22.462500000000002 7.164213562373095  22.798286437626906 7.5  23.212500000000002 7.5  C 23.626713562373098 7.5  23.962500000000002 7.164213562373095  23.962500000000002 6.75  L 23.962500000000002 0.7875000000000001  C 23.962500000000002 0.37328643762690494  23.626713562373098 0.03750000000000003  23.212500000000002 0.03750000000000003  L 17.25000001117587 0.03749999999999987  C 16.835786448802775 0.03749999999999987  16.50000001117587 0.3732864376269048  16.50000001117587 0.7874999999999999  C 16.50000001117587 1.201713562373095  16.835786448802775 1.5374999999999999  17.25 1.5374999999999999  L 21.402 1.5374999999999999  L 15.258000000000001 7.681500000000001  Z M 8.742 7.681500000000001  C 9.034786453749648 7.974374888614361  9.034786453749648 8.44912511138564  8.742 8.742  C 8.44912511138564 9.034786453749646  7.974374888614361 9.034786453749648  7.681500000000001 8.742  L 1.5374999999999999 2.598  L 1.5374999999999999 6.75  C 1.5374999999999999 7.164213562373095  1.201713562373095 7.5  0.7874999999999999 7.5  C 0.3732864376269048 7.5  0.03749999999999987 7.164213562373095  0.03749999999999987 6.75  L 0.03749999999999987 0.7875000000000001  C 0.03749999999999987 0.37328643762690494  0.3732864376269048 0.03750000000000003  0.7874999999999999 0.03750000000000003  L 6.749999988824129 0.03749999999999987  C 7.164213551197224 0.03749999999999987  7.499999988824129 0.3732864376269048  7.499999988824129 0.7874999999999999  C 7.499999988824129 1.201713562373095  7.164213551197224 1.5374999999999999  6.75 1.5374999999999999  L 2.598 1.5374999999999999  L 8.742 7.681500000000001  Z " fill-rule="evenodd" />
    </mask>
  </defs>
  <g>
    <path d="M 8.742 16.3185  C 9.034786453749648 16.02562511138564  9.034786453749648 15.55087488861436  8.742 15.258000000000001  C 8.44912511138564 14.965213546250354  7.974374888614361 14.965213546250354  7.681500000000001 15.258000000000001  L 1.5375000000000005 21.402  L 1.5375000000000005 17.25  C 1.5375000000000005 16.835786437626904  1.2017135623730957 16.5  0.7875000000000005 16.5  C 0.37328643762690544 16.5  0.03750000000000053 16.835786437626904  0.03750000000000053 17.25  L 0.03750000000000053 23.2125  C 0.03750000000000053 23.626713562373094  0.37328643762690544 23.9625  0.7875000000000005 23.9625  L 6.75 23.9625  C 7.164213562373095 23.9625  7.5 23.626713562373094  7.5 23.2125  C 7.5 22.798286437626906  7.164213562373095 22.4625  6.75 22.4625  L 2.598 22.4625  L 8.742 16.3185  Z M 15.258000000000001 16.3185  C 14.965213546250352 16.02562511138564  14.965213546250352 15.55087488861436  15.258000000000001 15.258000000000001  C 15.550874888614361 14.965213546250352  16.025625111385644 14.965213546250352  16.3185 15.258000000000001  L 22.462500000000002 21.402  L 22.462500000000002 17.25  C 22.462500000000002 16.835786437626904  22.798286437626906 16.5  23.212500000000002 16.5  C 23.626713562373098 16.5  23.962500000000002 16.835786437626904  23.962500000000002 17.25  L 23.962500000000002 23.2125  C 23.962500000000002 23.626713562373094  23.626713562373098 23.9625  23.212500000000002 23.9625  L 17.25 23.9625  C 16.835786437626904 23.9625  16.5 23.626713562373094  16.5 23.2125  C 16.5 22.798286437626906  16.835786437626904 22.4625  17.25 22.4625  L 21.402 22.4625  L 15.258000000000001 16.3185  Z M 15.258000000000001 7.681500000000001  C 14.965213546250354 7.974374888614362  14.965213546250354 8.449125111385639  15.258000000000001 8.742  C 15.550874888614361 9.034786453749648  16.025625111385644 9.034786453749648  16.3185 8.742  L 22.462500000000002 2.5980000000000003  L 22.462500000000002 6.75  C 22.462500000000002 7.164213562373095  22.798286437626906 7.5  23.212500000000002 7.5  C 23.626713562373098 7.5  23.962500000000002 7.164213562373095  23.962500000000002 6.75  L 23.962500000000002 0.7875000000000001  C 23.962500000000002 0.37328643762690494  23.626713562373098 0.03750000000000003  23.212500000000002 0.03750000000000003  L 17.25000001117587 0.03749999999999987  C 16.835786448802775 0.03749999999999987  16.50000001117587 0.3732864376269048  16.50000001117587 0.7874999999999999  C 16.50000001117587 1.201713562373095  16.835786448802775 1.5374999999999999  17.25 1.5374999999999999  L 21.402 1.5374999999999999  L 15.258000000000001 7.681500000000001  Z M 8.742 7.681500000000001  C 9.034786453749648 7.974374888614361  9.034786453749648 8.44912511138564  8.742 8.742  C 8.44912511138564 9.034786453749646  7.974374888614361 9.034786453749648  7.681500000000001 8.742  L 1.5374999999999999 2.598  L 1.5374999999999999 6.75  C 1.5374999999999999 7.164213562373095  1.201713562373095 7.5  0.7874999999999999 7.5  C 0.3732864376269048 7.5  0.03749999999999987 7.164213562373095  0.03749999999999987 6.75  L 0.03749999999999987 0.7875000000000001  C 0.03749999999999987 0.37328643762690494  0.3732864376269048 0.03750000000000003  0.7874999999999999 0.03750000000000003  L 6.749999988824129 0.03749999999999987  C 7.164213551197224 0.03749999999999987  7.499999988824129 0.3732864376269048  7.499999988824129 0.7874999999999999  C 7.499999988824129 1.201713562373095  7.164213551197224 1.5374999999999999  6.75 1.5374999999999999  L 2.598 1.5374999999999999  L 8.742 7.681500000000001  Z " fill-rule="nonzero" fill="rgba(0, 0, 0, 1)" stroke="none" class="fill" />
    <path d="M 8.742 16.3185  C 9.034786453749648 16.02562511138564  9.034786453749648 15.55087488861436  8.742 15.258000000000001  C 8.44912511138564 14.965213546250354  7.974374888614361 14.965213546250354  7.681500000000001 15.258000000000001  L 1.5375000000000005 21.402  L 1.5375000000000005 17.25  C 1.5375000000000005 16.835786437626904  1.2017135623730957 16.5  0.7875000000000005 16.5  C 0.37328643762690544 16.5  0.03750000000000053 16.835786437626904  0.03750000000000053 17.25  L 0.03750000000000053 23.2125  C 0.03750000000000053 23.626713562373094  0.37328643762690544 23.9625  0.7875000000000005 23.9625  L 6.75 23.9625  C 7.164213562373095 23.9625  7.5 23.626713562373094  7.5 23.2125  C 7.5 22.798286437626906  7.164213562373095 22.4625  6.75 22.4625  L 2.598 22.4625  L 8.742 16.3185  Z " stroke-width="0" stroke-dasharray="0" stroke="rgba(255, 255, 255, 0)" fill="none" class="stroke" mask="url(#Clip4735)" />
    <path d="M 15.258000000000001 16.3185  C 14.965213546250352 16.02562511138564  14.965213546250352 15.55087488861436  15.258000000000001 15.258000000000001  C 15.550874888614361 14.965213546250352  16.025625111385644 14.965213546250352  16.3185 15.258000000000001  L 22.462500000000002 21.402  L 22.462500000000002 17.25  C 22.462500000000002 16.835786437626904  22.798286437626906 16.5  23.212500000000002 16.5  C 23.626713562373098 16.5  23.962500000000002 16.835786437626904  23.962500000000002 17.25  L 23.962500000000002 23.2125  C 23.962500000000002 23.626713562373094  23.626713562373098 23.9625  23.212500000000002 23.9625  L 17.25 23.9625  C 16.835786437626904 23.9625  16.5 23.626713562373094  16.5 23.2125  C 16.5 22.798286437626906  16.835786437626904 22.4625  17.25 22.4625  L 21.402 22.4625  L 15.258000000000001 16.3185  Z " stroke-width="0" stroke-dasharray="0" stroke="rgba(255, 255, 255, 0)" fill="none" class="stroke" mask="url(#Clip4735)" />
    <path d="M 15.258000000000001 7.681500000000001  C 14.965213546250354 7.974374888614362  14.965213546250354 8.449125111385639  15.258000000000001 8.742  C 15.550874888614361 9.034786453749648  16.025625111385644 9.034786453749648  16.3185 8.742  L 22.462500000000002 2.5980000000000003  L 22.462500000000002 6.75  C 22.462500000000002 7.164213562373095  22.798286437626906 7.5  23.212500000000002 7.5  C 23.626713562373098 7.5  23.962500000000002 7.164213562373095  23.962500000000002 6.75  L 23.962500000000002 0.7875000000000001  C 23.962500000000002 0.37328643762690494  23.626713562373098 0.03750000000000003  23.212500000000002 0.03750000000000003  L 17.25000001117587 0.03749999999999987  C 16.835786448802775 0.03749999999999987  16.50000001117587 0.3732864376269048  16.50000001117587 0.7874999999999999  C 16.50000001117587 1.201713562373095  16.835786448802775 1.5374999999999999  17.25 1.5374999999999999  L 21.402 1.5374999999999999  L 15.258000000000001 7.681500000000001  Z " stroke-width="0" stroke-dasharray="0" stroke="rgba(255, 255, 255, 0)" fill="none" class="stroke" mask="url(#Clip4735)" />
    <path d="M 8.742 7.681500000000001  C 9.034786453749648 7.974374888614361  9.034786453749648 8.44912511138564  8.742 8.742  C 8.44912511138564 9.034786453749646  7.974374888614361 9.034786453749648  7.681500000000001 8.742  L 1.5374999999999999 2.598  L 1.5374999999999999 6.75  C 1.5374999999999999 7.164213562373095  1.201713562373095 7.5  0.7874999999999999 7.5  C 0.3732864376269048 7.5  0.03749999999999987 7.164213562373095  0.03749999999999987 6.75  L 0.03749999999999987 0.7875000000000001  C 0.03749999999999987 0.37328643762690494  0.3732864376269048 0.03750000000000003  0.7874999999999999 0.03750000000000003  L 6.749999988824129 0.03749999999999987  C 7.164213551197224 0.03749999999999987  7.499999988824129 0.3732864376269048  7.499999988824129 0.7874999999999999  C 7.499999988824129 1.201713562373095  7.164213551197224 1.5374999999999999  6.75 1.5374999999999999  L 2.598 1.5374999999999999  L 8.742 7.681500000000001  Z " stroke-width="0" stroke-dasharray="0" stroke="rgba(255, 255, 255, 0)" fill="none" class="stroke" mask="url(#Clip4735)" />
  </g>
</svg>