<?xml version="1.0" encoding="utf-8"?>
<svg version="1.1" xmlns:xlink="http://www.w3.org/1999/xlink" width="7px" height="10px" xmlns="http://www.w3.org/2000/svg">
  <defs>
    <pattern id="BGPattern" patternUnits="userSpaceOnUse" alignment="0 0" imageRepeat="None" />
    <mask fill="white" id="Clip6265">
      <path d="M 1.5 3.5420000000000016  L 5.565000000000001 0.6395  C 5.6920213550534555 0.5490618310914108  5.84407231608688 0.50046225420739  6.000000142452649 0.50046225420739  C 6.414033194836804 0.50046225420739  6.749744815306048 0.8359670262559851  6.75 1.25  L 6.75 8.75  C 6.749744815306048 9.164032973744014  6.414033194836804 9.499537745792608  6.000000142452649 9.499537745792608  C 5.84407231608688 9.499537745792608  5.692021355053452 9.45093816890859  5.565000000000001 9.360500000000002  L 1.5 6.457999999999998  L 1.5 8.75  C 1.5 9.164213562373096  1.1642135623730958 9.5  0.75 9.5  C 0.3357864376269042 9.5  0 9.164213562373096  0 8.75  L 0 1.25  C 0 0.8357864376269051  0.3357864376269042 0.5  0.75 0.5  C 1.1642135623730958 0.5  1.5 0.8357864376269051  1.5 1.25  L 1.5 3.5420000000000016  Z " fill-rule="evenodd" />
    </mask>
  </defs>
  <g transform="matrix(1 0 0 1 -9 -4 )">
    <path d="M 1.5 3.5420000000000016  L 5.565000000000001 0.6395  C 5.6920213550534555 0.5490618310914108  5.84407231608688 0.50046225420739  6.000000142452649 0.50046225420739  C 6.414033194836804 0.50046225420739  6.749744815306048 0.8359670262559851  6.75 1.25  L 6.75 8.75  C 6.749744815306048 9.164032973744014  6.414033194836804 9.499537745792608  6.000000142452649 9.499537745792608  C 5.84407231608688 9.499537745792608  5.692021355053452 9.45093816890859  5.565000000000001 9.360500000000002  L 1.5 6.457999999999998  L 1.5 8.75  C 1.5 9.164213562373096  1.1642135623730958 9.5  0.75 9.5  C 0.3357864376269042 9.5  0 9.164213562373096  0 8.75  L 0 1.25  C 0 0.8357864376269051  0.3357864376269042 0.5  0.75 0.5  C 1.1642135623730958 0.5  1.5 0.8357864376269051  1.5 1.25  L 1.5 3.5420000000000016  Z " fill-rule="nonzero" fill="rgba(0, 0, 0, 1)" stroke="none" transform="matrix(1 0 0 1 9 4 )" class="fill" />
    <path d="M 1.5 3.5420000000000016  L 5.565000000000001 0.6395  C 5.6920213550534555 0.5490618310914108  5.84407231608688 0.50046225420739  6.000000142452649 0.50046225420739  C 6.414033194836804 0.50046225420739  6.749744815306048 0.8359670262559851  6.75 1.25  L 6.75 8.75  C 6.749744815306048 9.164032973744014  6.414033194836804 9.499537745792608  6.000000142452649 9.499537745792608  C 5.84407231608688 9.499537745792608  5.692021355053452 9.45093816890859  5.565000000000001 9.360500000000002  L 1.5 6.457999999999998  L 1.5 8.75  C 1.5 9.164213562373096  1.1642135623730958 9.5  0.75 9.5  C 0.3357864376269042 9.5  0 9.164213562373096  0 8.75  L 0 1.25  C 0 0.8357864376269051  0.3357864376269042 0.5  0.75 0.5  C 1.1642135623730958 0.5  1.5 0.8357864376269051  1.5 1.25  L 1.5 3.5420000000000016  Z " stroke-width="0" stroke-dasharray="0" stroke="rgba(255, 255, 255, 0)" fill="none" transform="matrix(1 0 0 1 9 4 )" class="stroke" mask="url(#Clip6265)" />
  </g>
</svg>