<?xml version="1.0" encoding="utf-8"?>
<svg version="1.1" xmlns:xlink="http://www.w3.org/1999/xlink" width="10px" height="10px" xmlns="http://www.w3.org/2000/svg">
  <defs>
    <pattern id="BGPattern" patternUnits="userSpaceOnUse" alignment="0 0" imageRepeat="None" />
    <mask fill="white" id="Clip5501">
      <path d="M 5 9.5  C 7.4852813742385695 9.5  9.5 7.4852813742385695  9.5 5  C 9.5 2.5147186257614287  7.4852813742385695 0.5  5 0.5  C 2.5147186257614287 0.5  0.5 2.5147186257614287  0.5 5  C 0.5 7.4852813742385695  2.5147186257614287 9.5  5 9.5  Z " fill-rule="evenodd" />
    </mask>
  </defs>
  <g transform="matrix(1 0 0 1 -4 -7 )">
    <path d="M 5 9.5  C 7.4852813742385695 9.5  9.5 7.4852813742385695  9.5 5  C 9.5 2.5147186257614287  7.4852813742385695 0.5  5 0.5  C 2.5147186257614287 0.5  0.5 2.5147186257614287  0.5 5  C 0.5 7.4852813742385695  2.5147186257614287 9.5  5 9.5  Z " fill-rule="nonzero" fill="rgba(0, 0, 0, 1)" stroke="none" transform="matrix(1 0 0 1 4 7 )" class="fill" />
    <path d="M 5 9.5  C 7.4852813742385695 9.5  9.5 7.4852813742385695  9.5 5  C 9.5 2.5147186257614287  7.4852813742385695 0.5  5 0.5  C 2.5147186257614287 0.5  0.5 2.5147186257614287  0.5 5  C 0.5 7.4852813742385695  2.5147186257614287 9.5  5 9.5  Z " stroke-width="0" stroke-dasharray="0" stroke="rgba(255, 255, 255, 0)" fill="none" transform="matrix(1 0 0 1 4 7 )" class="stroke" mask="url(#Clip5501)" />
  </g>
</svg>