<?xml version="1.0" encoding="utf-8"?>
<svg version="1.1" xmlns:xlink="http://www.w3.org/1999/xlink" width="22px" height="24px" xmlns="http://www.w3.org/2000/svg">
  <defs>
    <pattern id="BGPattern" patternUnits="userSpaceOnUse" alignment="0 0" imageRepeat="None" />
    <mask fill="white" id="Clip6143">
      <path d="M 1.3295 1.1640000000000001  C 1.4372555892396095 0.9483799973937586  1.6420794829204284 0.79769211920896  1.88 0.759  C 2.118146512333307 0.7202068029793925  2.3604134166199806 0.7983574172654162  2.531 0.9690000000000001  L 3.5 1.9394999999999998  L 4.468999999999999 0.9689999999999999  C 4.60970639451525 0.8279374489685476  4.800759108712638 0.7486593244718718  5 0.7486593244718718  C 5.199240891287362 0.7486593244718718  5.39029360548475 0.8279374489685476  5.531000000000001 0.9689999999999999  L 6.5 1.9394999999999998  L 7.468999999999999 0.9689999999999999  C 7.60970639451525 0.8279374489685476  7.800759108712638 0.7486593244718718  8 0.7486593244718718  C 8.199240891287362 0.7486593244718718  8.39029360548475 0.8279374489685476  8.531 0.9689999999999999  L 9.5 1.9394999999999998  L 10.469 0.9689999999999999  C 10.60970639451525 0.8279374489685474  10.800759108712638 0.7486593244718724  11 0.7486593244718724  C 11.19924089128736 0.7486593244718724  11.390293605484748 0.8279374489685478  11.530999999999999 0.9689999999999999  L 12.500000000000002 1.9394999999999998  L 13.469 0.9689999999999999  C 13.60970639451525 0.8279374489685489  13.80075910871264 0.7486593244718718  14 0.7486593244718718  C 14.19924089128736 0.7486593244718718  14.390293605484752 0.8279374489685476  14.531000000000002 0.9689999999999999  L 15.500000000000004 1.9394999999999998  L 16.469000000000005 0.9689999999999999  C 16.609706394515253 0.8279374489685465  16.80075910871264 0.7486593244718718  17.000000000000007 0.7486593244718718  C 17.199240891287367 0.7486593244718718  17.390293605484754 0.8279374489685476  17.531000000000006 0.9689999999999999  L 18.500000000000007 1.9394999999999998  L 19.46900000000001 0.9689999999999999  C 19.60966902614615 0.8282214502502352  19.800522915897375 0.7491236710398939  19.999536420430488 0.7491236710398939  C 20.283730854621957 0.7491236710398939  20.54351295723287 0.9097545135215408  20.670500000000008 1.164  L 21.420500000000008 2.6639999999999997  C 21.472770898042285 2.768292854668329  21.49999218809708 2.883341325843341  21.5 3  L 21.5 21  C 21.49999218809708 21.11665867415666  21.472770898042278 21.231707145331672  21.420499999999997 21.336  L 20.670499999999997 22.836  C 20.543314750060098 23.08969634064883  20.283828354652627 23.24987733076748  20.000036316249712 23.24987733076748  C 19.801512621161798 23.24987733076748  19.61108724645466 23.17116734158018  19.470499999999998 23.031000000000002  L 18.5 22.0605  L 17.531 23.031000000000002  C 17.39029360548475 23.172062551031452  17.19924089128736 23.25134067552813  17 23.25134067552813  C 16.80075910871264 23.25134067552813  16.60970639451525 23.172062551031452  16.468999999999998 23.031000000000002  L 15.5 22.0605  L 14.530999999999999 23.031000000000002  C 14.390293605484752 23.172062551031452  14.19924089128736 23.25134067552813  14 23.25134067552813  C 13.80075910871264 23.25134067552813  13.60970639451525 23.172062551031452  13.468999999999998 23.031000000000002  L 12.500000000000002 22.0605  L 11.530999999999999 23.031000000000002  C 11.390293605484748 23.172062551031452  11.19924089128736 23.25134067552813  10.999999999999998 23.25134067552813  C 10.800759108712636 23.25134067552813  10.60970639451525 23.172062551031452  10.468999999999998 23.031000000000002  L 9.5 22.0605  L 8.531 23.031000000000002  C 8.39029360548475 23.172062551031452  8.199240891287362 23.25134067552813  8 23.25134067552813  C 7.800759108712638 23.25134067552813  7.60970639451525 23.172062551031452  7.468999999999999 23.031000000000002  L 6.5 22.0605  L 5.531000000000001 23.031000000000002  C 5.39029360548475 23.172062551031452  5.199240891287362 23.25134067552813  5 23.25134067552813  C 4.800759108712638 23.25134067552813  4.60970639451525 23.172062551031452  4.468999999999999 23.031000000000002  L 3.5 22.0605  L 2.531 23.031000000000002  C 2.3903309738538554 23.171778549749764  2.199477084102634 23.250876328960107  2.000463579569521 23.250876328960107  C 1.7162691453780492 23.250876328960107  1.4564870427671353 23.09024548647846  1.3295 22.836  L 0.5794999999999999 21.336  C 0.5272291019577202 21.231707145331672  0.5000078119029185 21.11665867415666  0.5 21  L 0.5 3  C 0.5000078119029185 2.8833413258433405  0.5272291019577202 2.7682928546683288  0.5794999999999999 2.664  L 1.3295 1.1640000000000001  Z M 2.9689999999999994 3.531  L 2.2055 2.766  L 2 3.1769999999999996  L 2 20.823  L 2.2055 21.233999999999998  L 2.9705000000000004 20.468999999999998  C 3.2633748886143614 20.176213546250352  3.7381251113856395 20.176213546250352  4.031000000000001 20.468999999999998  L 5 21.4395  L 5.968999999999999 20.470499999999998  C 6.10970639451525 20.329437448968545  6.300759108712638 20.25015932447187  6.5 20.25015932447187  C 6.699240891287363 20.25015932447187  6.89029360548475 20.329437448968545  7.031 20.470499999999998  L 8 21.4395  L 8.969 20.470499999999998  C 9.10970639451525 20.329437448968545  9.300759108712638 20.25015932447187  9.5 20.25015932447187  C 9.699240891287362 20.25015932447187  9.89029360548475 20.329437448968545  10.031 20.470499999999998  L 11 21.4395  L 11.969000000000001 20.470499999999998  C 12.10970639451525 20.329437448968548  12.30075910871264 20.25015932447187  12.500000000000002 20.25015932447187  C 12.69924089128736 20.25015932447187  12.89029360548475 20.329437448968545  13.031000000000002 20.470499999999998  L 14.000000000000005 21.4395  L 14.969000000000003 20.470499999999998  C 15.109706394515253 20.329437448968545  15.300759108712638 20.25015932447187  15.500000000000009 20.25015932447187  C 15.699240891287367 20.25015932447187  15.890293605484755 20.329437448968545  16.031000000000006 20.470499999999998  L 17.000000000000007 21.4395  L 17.96900000000001 20.470499999999998  C 18.109706394515253 20.329437448968548  18.300759108712644 20.25015932447187  18.500000000000007 20.25015932447187  C 18.699240891287367 20.25015932447187  18.890293605484757 20.329437448968545  19.031000000000006 20.470499999999998  L 19.794500000000006 21.233999999999998  L 20 20.822999999999997  L 20 3.1769999999999996  L 19.794500000000006 2.766  L 19.029500000000006 3.531  C 18.73662511138565 3.8237864537496478  18.261874888614365 3.8237864537496478  17.96900000000001 3.531  L 17 2.5605  L 16.031 3.531  C 15.89029360548475 3.672062551031451  15.69924089128736 3.7513406755281284  15.5 3.7513406755281284  C 15.300759108712638 3.7513406755281284  15.10970639451525 3.6720625510314524  14.969 3.531  L 14 2.5605  L 13.030999999999999 3.531  C 12.890293605484748 3.672062551031451  12.69924089128736 3.7513406755281284  12.500000000000002 3.7513406755281284  C 12.30075910871264 3.7513406755281284  12.10970639451525 3.6720625510314524  11.968999999999996 3.531  L 11 2.5605  L 10.031 3.531  C 9.89029360548475 3.6720625510314524  9.699240891287362 3.7513406755281284  9.5 3.7513406755281284  C 9.300759108712638 3.7513406755281284  9.10970639451525 3.6720625510314524  8.969 3.531  L 8 2.5605  L 7.031 3.531  C 6.89029360548475 3.6720625510314524  6.699240891287363 3.7513406755281284  6.5 3.7513406755281284  C 6.300759108712638 3.7513406755281284  6.10970639451525 3.6720625510314524  5.968999999999999 3.531  L 5 2.5605  L 4.031000000000001 3.531  C 3.89029360548475 3.6720625510314524  3.6992408912873618 3.7513406755281284  3.5 3.7513406755281284  C 3.300759108712638 3.7513406755281284  3.10970639451525 3.6720625510314524  2.9689999999999994 3.531  Z " fill-rule="evenodd" />
    </mask>
  </defs>
  <g>
    <path d="M 1.3295 1.1640000000000001  C 1.4372555892396095 0.9483799973937586  1.6420794829204284 0.79769211920896  1.88 0.759  C 2.118146512333307 0.7202068029793925  2.3604134166199806 0.7983574172654162  2.531 0.9690000000000001  L 3.5 1.9394999999999998  L 4.468999999999999 0.9689999999999999  C 4.60970639451525 0.8279374489685476  4.800759108712638 0.7486593244718718  5 0.7486593244718718  C 5.199240891287362 0.7486593244718718  5.39029360548475 0.8279374489685476  5.531000000000001 0.9689999999999999  L 6.5 1.9394999999999998  L 7.468999999999999 0.9689999999999999  C 7.60970639451525 0.8279374489685476  7.800759108712638 0.7486593244718718  8 0.7486593244718718  C 8.199240891287362 0.7486593244718718  8.39029360548475 0.8279374489685476  8.531 0.9689999999999999  L 9.5 1.9394999999999998  L 10.469 0.9689999999999999  C 10.60970639451525 0.8279374489685474  10.800759108712638 0.7486593244718724  11 0.7486593244718724  C 11.19924089128736 0.7486593244718724  11.390293605484748 0.8279374489685478  11.530999999999999 0.9689999999999999  L 12.500000000000002 1.9394999999999998  L 13.469 0.9689999999999999  C 13.60970639451525 0.8279374489685489  13.80075910871264 0.7486593244718718  14 0.7486593244718718  C 14.19924089128736 0.7486593244718718  14.390293605484752 0.8279374489685476  14.531000000000002 0.9689999999999999  L 15.500000000000004 1.9394999999999998  L 16.469000000000005 0.9689999999999999  C 16.609706394515253 0.8279374489685465  16.80075910871264 0.7486593244718718  17.000000000000007 0.7486593244718718  C 17.199240891287367 0.7486593244718718  17.390293605484754 0.8279374489685476  17.531000000000006 0.9689999999999999  L 18.500000000000007 1.9394999999999998  L 19.46900000000001 0.9689999999999999  C 19.60966902614615 0.8282214502502352  19.800522915897375 0.7491236710398939  19.999536420430488 0.7491236710398939  C 20.283730854621957 0.7491236710398939  20.54351295723287 0.9097545135215408  20.670500000000008 1.164  L 21.420500000000008 2.6639999999999997  C 21.472770898042285 2.768292854668329  21.49999218809708 2.883341325843341  21.5 3  L 21.5 21  C 21.49999218809708 21.11665867415666  21.472770898042278 21.231707145331672  21.420499999999997 21.336  L 20.670499999999997 22.836  C 20.543314750060098 23.08969634064883  20.283828354652627 23.24987733076748  20.000036316249712 23.24987733076748  C 19.801512621161798 23.24987733076748  19.61108724645466 23.17116734158018  19.470499999999998 23.031000000000002  L 18.5 22.0605  L 17.531 23.031000000000002  C 17.39029360548475 23.172062551031452  17.19924089128736 23.25134067552813  17 23.25134067552813  C 16.80075910871264 23.25134067552813  16.60970639451525 23.172062551031452  16.468999999999998 23.031000000000002  L 15.5 22.0605  L 14.530999999999999 23.031000000000002  C 14.390293605484752 23.172062551031452  14.19924089128736 23.25134067552813  14 23.25134067552813  C 13.80075910871264 23.25134067552813  13.60970639451525 23.172062551031452  13.468999999999998 23.031000000000002  L 12.500000000000002 22.0605  L 11.530999999999999 23.031000000000002  C 11.390293605484748 23.172062551031452  11.19924089128736 23.25134067552813  10.999999999999998 23.25134067552813  C 10.800759108712636 23.25134067552813  10.60970639451525 23.172062551031452  10.468999999999998 23.031000000000002  L 9.5 22.0605  L 8.531 23.031000000000002  C 8.39029360548475 23.172062551031452  8.199240891287362 23.25134067552813  8 23.25134067552813  C 7.800759108712638 23.25134067552813  7.60970639451525 23.172062551031452  7.468999999999999 23.031000000000002  L 6.5 22.0605  L 5.531000000000001 23.031000000000002  C 5.39029360548475 23.172062551031452  5.199240891287362 23.25134067552813  5 23.25134067552813  C 4.800759108712638 23.25134067552813  4.60970639451525 23.172062551031452  4.468999999999999 23.031000000000002  L 3.5 22.0605  L 2.531 23.031000000000002  C 2.3903309738538554 23.171778549749764  2.199477084102634 23.250876328960107  2.000463579569521 23.250876328960107  C 1.7162691453780492 23.250876328960107  1.4564870427671353 23.09024548647846  1.3295 22.836  L 0.5794999999999999 21.336  C 0.5272291019577202 21.231707145331672  0.5000078119029185 21.11665867415666  0.5 21  L 0.5 3  C 0.5000078119029185 2.8833413258433405  0.5272291019577202 2.7682928546683288  0.5794999999999999 2.664  L 1.3295 1.1640000000000001  Z M 2.9689999999999994 3.531  L 2.2055 2.766  L 2 3.1769999999999996  L 2 20.823  L 2.2055 21.233999999999998  L 2.9705000000000004 20.468999999999998  C 3.2633748886143614 20.176213546250352  3.7381251113856395 20.176213546250352  4.031000000000001 20.468999999999998  L 5 21.4395  L 5.968999999999999 20.470499999999998  C 6.10970639451525 20.329437448968545  6.300759108712638 20.25015932447187  6.5 20.25015932447187  C 6.699240891287363 20.25015932447187  6.89029360548475 20.329437448968545  7.031 20.470499999999998  L 8 21.4395  L 8.969 20.470499999999998  C 9.10970639451525 20.329437448968545  9.300759108712638 20.25015932447187  9.5 20.25015932447187  C 9.699240891287362 20.25015932447187  9.89029360548475 20.329437448968545  10.031 20.470499999999998  L 11 21.4395  L 11.969000000000001 20.470499999999998  C 12.10970639451525 20.329437448968548  12.30075910871264 20.25015932447187  12.500000000000002 20.25015932447187  C 12.69924089128736 20.25015932447187  12.89029360548475 20.329437448968545  13.031000000000002 20.470499999999998  L 14.000000000000005 21.4395  L 14.969000000000003 20.470499999999998  C 15.109706394515253 20.329437448968545  15.300759108712638 20.25015932447187  15.500000000000009 20.25015932447187  C 15.699240891287367 20.25015932447187  15.890293605484755 20.329437448968545  16.031000000000006 20.470499999999998  L 17.000000000000007 21.4395  L 17.96900000000001 20.470499999999998  C 18.109706394515253 20.329437448968548  18.300759108712644 20.25015932447187  18.500000000000007 20.25015932447187  C 18.699240891287367 20.25015932447187  18.890293605484757 20.329437448968545  19.031000000000006 20.470499999999998  L 19.794500000000006 21.233999999999998  L 20 20.822999999999997  L 20 3.1769999999999996  L 19.794500000000006 2.766  L 19.029500000000006 3.531  C 18.73662511138565 3.8237864537496478  18.261874888614365 3.8237864537496478  17.96900000000001 3.531  L 17 2.5605  L 16.031 3.531  C 15.89029360548475 3.672062551031451  15.69924089128736 3.7513406755281284  15.5 3.7513406755281284  C 15.300759108712638 3.7513406755281284  15.10970639451525 3.6720625510314524  14.969 3.531  L 14 2.5605  L 13.030999999999999 3.531  C 12.890293605484748 3.672062551031451  12.69924089128736 3.7513406755281284  12.500000000000002 3.7513406755281284  C 12.30075910871264 3.7513406755281284  12.10970639451525 3.6720625510314524  11.968999999999996 3.531  L 11 2.5605  L 10.031 3.531  C 9.89029360548475 3.6720625510314524  9.699240891287362 3.7513406755281284  9.5 3.7513406755281284  C 9.300759108712638 3.7513406755281284  9.10970639451525 3.6720625510314524  8.969 3.531  L 8 2.5605  L 7.031 3.531  C 6.89029360548475 3.6720625510314524  6.699240891287363 3.7513406755281284  6.5 3.7513406755281284  C 6.300759108712638 3.7513406755281284  6.10970639451525 3.6720625510314524  5.968999999999999 3.531  L 5 2.5605  L 4.031000000000001 3.531  C 3.89029360548475 3.6720625510314524  3.6992408912873618 3.7513406755281284  3.5 3.7513406755281284  C 3.300759108712638 3.7513406755281284  3.10970639451525 3.6720625510314524  2.9689999999999994 3.531  Z " fill-rule="nonzero" fill="rgba(0, 0, 0, 1)" stroke="none" class="fill" />
    <path d="M 1.3295 1.1640000000000001  C 1.4372555892396095 0.9483799973937586  1.6420794829204284 0.79769211920896  1.88 0.759  C 2.118146512333307 0.7202068029793925  2.3604134166199806 0.7983574172654162  2.531 0.9690000000000001  L 3.5 1.9394999999999998  L 4.468999999999999 0.9689999999999999  C 4.60970639451525 0.8279374489685476  4.800759108712638 0.7486593244718718  5 0.7486593244718718  C 5.199240891287362 0.7486593244718718  5.39029360548475 0.8279374489685476  5.531000000000001 0.9689999999999999  L 6.5 1.9394999999999998  L 7.468999999999999 0.9689999999999999  C 7.60970639451525 0.8279374489685476  7.800759108712638 0.7486593244718718  8 0.7486593244718718  C 8.199240891287362 0.7486593244718718  8.39029360548475 0.8279374489685476  8.531 0.9689999999999999  L 9.5 1.9394999999999998  L 10.469 0.9689999999999999  C 10.60970639451525 0.8279374489685474  10.800759108712638 0.7486593244718724  11 0.7486593244718724  C 11.19924089128736 0.7486593244718724  11.390293605484748 0.8279374489685478  11.530999999999999 0.9689999999999999  L 12.500000000000002 1.9394999999999998  L 13.469 0.9689999999999999  C 13.60970639451525 0.8279374489685489  13.80075910871264 0.7486593244718718  14 0.7486593244718718  C 14.19924089128736 0.7486593244718718  14.390293605484752 0.8279374489685476  14.531000000000002 0.9689999999999999  L 15.500000000000004 1.9394999999999998  L 16.469000000000005 0.9689999999999999  C 16.609706394515253 0.8279374489685465  16.80075910871264 0.7486593244718718  17.000000000000007 0.7486593244718718  C 17.199240891287367 0.7486593244718718  17.390293605484754 0.8279374489685476  17.531000000000006 0.9689999999999999  L 18.500000000000007 1.9394999999999998  L 19.46900000000001 0.9689999999999999  C 19.60966902614615 0.8282214502502352  19.800522915897375 0.7491236710398939  19.999536420430488 0.7491236710398939  C 20.283730854621957 0.7491236710398939  20.54351295723287 0.9097545135215408  20.670500000000008 1.164  L 21.420500000000008 2.6639999999999997  C 21.472770898042285 2.768292854668329  21.49999218809708 2.883341325843341  21.5 3  L 21.5 21  C 21.49999218809708 21.11665867415666  21.472770898042278 21.231707145331672  21.420499999999997 21.336  L 20.670499999999997 22.836  C 20.543314750060098 23.08969634064883  20.283828354652627 23.24987733076748  20.000036316249712 23.24987733076748  C 19.801512621161798 23.24987733076748  19.61108724645466 23.17116734158018  19.470499999999998 23.031000000000002  L 18.5 22.0605  L 17.531 23.031000000000002  C 17.39029360548475 23.172062551031452  17.19924089128736 23.25134067552813  17 23.25134067552813  C 16.80075910871264 23.25134067552813  16.60970639451525 23.172062551031452  16.468999999999998 23.031000000000002  L 15.5 22.0605  L 14.530999999999999 23.031000000000002  C 14.390293605484752 23.172062551031452  14.19924089128736 23.25134067552813  14 23.25134067552813  C 13.80075910871264 23.25134067552813  13.60970639451525 23.172062551031452  13.468999999999998 23.031000000000002  L 12.500000000000002 22.0605  L 11.530999999999999 23.031000000000002  C 11.390293605484748 23.172062551031452  11.19924089128736 23.25134067552813  10.999999999999998 23.25134067552813  C 10.800759108712636 23.25134067552813  10.60970639451525 23.172062551031452  10.468999999999998 23.031000000000002  L 9.5 22.0605  L 8.531 23.031000000000002  C 8.39029360548475 23.172062551031452  8.199240891287362 23.25134067552813  8 23.25134067552813  C 7.800759108712638 23.25134067552813  7.60970639451525 23.172062551031452  7.468999999999999 23.031000000000002  L 6.5 22.0605  L 5.531000000000001 23.031000000000002  C 5.39029360548475 23.172062551031452  5.199240891287362 23.25134067552813  5 23.25134067552813  C 4.800759108712638 23.25134067552813  4.60970639451525 23.172062551031452  4.468999999999999 23.031000000000002  L 3.5 22.0605  L 2.531 23.031000000000002  C 2.3903309738538554 23.171778549749764  2.199477084102634 23.250876328960107  2.000463579569521 23.250876328960107  C 1.7162691453780492 23.250876328960107  1.4564870427671353 23.09024548647846  1.3295 22.836  L 0.5794999999999999 21.336  C 0.5272291019577202 21.231707145331672  0.5000078119029185 21.11665867415666  0.5 21  L 0.5 3  C 0.5000078119029185 2.8833413258433405  0.5272291019577202 2.7682928546683288  0.5794999999999999 2.664  L 1.3295 1.1640000000000001  Z " stroke-width="0" stroke-dasharray="0" stroke="rgba(255, 255, 255, 0)" fill="none" class="stroke" mask="url(#Clip6143)" />
    <path d="M 2.9689999999999994 3.531  L 2.2055 2.766  L 2 3.1769999999999996  L 2 20.823  L 2.2055 21.233999999999998  L 2.9705000000000004 20.468999999999998  C 3.2633748886143614 20.176213546250352  3.7381251113856395 20.176213546250352  4.031000000000001 20.468999999999998  L 5 21.4395  L 5.968999999999999 20.470499999999998  C 6.10970639451525 20.329437448968545  6.300759108712638 20.25015932447187  6.5 20.25015932447187  C 6.699240891287363 20.25015932447187  6.89029360548475 20.329437448968545  7.031 20.470499999999998  L 8 21.4395  L 8.969 20.470499999999998  C 9.10970639451525 20.329437448968545  9.300759108712638 20.25015932447187  9.5 20.25015932447187  C 9.699240891287362 20.25015932447187  9.89029360548475 20.329437448968545  10.031 20.470499999999998  L 11 21.4395  L 11.969000000000001 20.470499999999998  C 12.10970639451525 20.329437448968548  12.30075910871264 20.25015932447187  12.500000000000002 20.25015932447187  C 12.69924089128736 20.25015932447187  12.89029360548475 20.329437448968545  13.031000000000002 20.470499999999998  L 14.000000000000005 21.4395  L 14.969000000000003 20.470499999999998  C 15.109706394515253 20.329437448968545  15.300759108712638 20.25015932447187  15.500000000000009 20.25015932447187  C 15.699240891287367 20.25015932447187  15.890293605484755 20.329437448968545  16.031000000000006 20.470499999999998  L 17.000000000000007 21.4395  L 17.96900000000001 20.470499999999998  C 18.109706394515253 20.329437448968548  18.300759108712644 20.25015932447187  18.500000000000007 20.25015932447187  C 18.699240891287367 20.25015932447187  18.890293605484757 20.329437448968545  19.031000000000006 20.470499999999998  L 19.794500000000006 21.233999999999998  L 20 20.822999999999997  L 20 3.1769999999999996  L 19.794500000000006 2.766  L 19.029500000000006 3.531  C 18.73662511138565 3.8237864537496478  18.261874888614365 3.8237864537496478  17.96900000000001 3.531  L 17 2.5605  L 16.031 3.531  C 15.89029360548475 3.672062551031451  15.69924089128736 3.7513406755281284  15.5 3.7513406755281284  C 15.300759108712638 3.7513406755281284  15.10970639451525 3.6720625510314524  14.969 3.531  L 14 2.5605  L 13.030999999999999 3.531  C 12.890293605484748 3.672062551031451  12.69924089128736 3.7513406755281284  12.500000000000002 3.7513406755281284  C 12.30075910871264 3.7513406755281284  12.10970639451525 3.6720625510314524  11.968999999999996 3.531  L 11 2.5605  L 10.031 3.531  C 9.89029360548475 3.6720625510314524  9.699240891287362 3.7513406755281284  9.5 3.7513406755281284  C 9.300759108712638 3.7513406755281284  9.10970639451525 3.6720625510314524  8.969 3.531  L 8 2.5605  L 7.031 3.531  C 6.89029360548475 3.6720625510314524  6.699240891287363 3.7513406755281284  6.5 3.7513406755281284  C 6.300759108712638 3.7513406755281284  6.10970639451525 3.6720625510314524  5.968999999999999 3.531  L 5 2.5605  L 4.031000000000001 3.531  C 3.89029360548475 3.6720625510314524  3.6992408912873618 3.7513406755281284  3.5 3.7513406755281284  C 3.300759108712638 3.7513406755281284  3.10970639451525 3.6720625510314524  2.9689999999999994 3.531  Z " stroke-width="0" stroke-dasharray="0" stroke="rgba(255, 255, 255, 0)" fill="none" class="stroke" mask="url(#Clip6143)" />
  </g>
</svg>