<?xml version="1.0" encoding="utf-8"?>
<svg version="1.1" xmlns:xlink="http://www.w3.org/1999/xlink" width="48px" height="48px" xmlns="http://www.w3.org/2000/svg">
  <defs>
    <pattern id="BGPattern" patternUnits="userSpaceOnUse" alignment="0 0" imageRepeat="None" />
    <mask fill="white" id="Clip2606">
      <path d="M 47.49375 24.55625  C 47.49375 22.85625  47.34375 21.224999999999998  47.0625 20  L 24.481250000000003 20  L 24.481250000000003 29  L 37.38125 29  C 36.825 31.93125  35.1375 34.46875  32.59375 36.168749999999996  C 30.44375 37.606249999999996  27.700000000000003 38.45625  24.475 38.45625  C 18.231250000000003 38.45625  12.950000000000003 34.2375  11.0625 28.568749999999994  C 10.587499999999999 27.131249999999994  10.3125 25.593749999999993  10.3125 24.012499999999996  C 10.3125 22.43125  10.587499999999999 20.893749999999997  11.0625 19.456249999999997  C 12.95625 13.793749999999996  18.2375 9.574999999999996  24.481250000000003 9.574999999999996  C 28 9.574999999999996  31.15625 10.787499999999994  33.643750000000004 13.162499999999994  L 40.518750000000004 6.281249999999995  C 36.362500000000004 2.4062499999999947  30.94375000000001 0.03124999999999467  24.481250000000003 0.03124999999999467  C 15.112500000000004 0.03124999999999467  7.006250000000001 5.406249999999995  3.0625000000000036 13.243749999999995  C 1.4375000000000036 16.481249999999996  0.5125000000000028 20.143749999999997  0.5125000000000028 24.018749999999997  C 0.5125000000000028 27.893749999999997  1.4375 31.549999999999997  3.0625 34.7875  C 7.00625 42.625  15.1125 48  24.481250000000003 48  C 30.956250000000004 48  36.38125 45.85  40.34375 42.1875  C 44.875 38.0125  47.49375 31.862499999999997  47.49375 24.55625  Z " fill-rule="evenodd" />
    </mask>
  </defs>
  <g>
    <path d="M 47.49375 24.55625  C 47.49375 22.85625  47.34375 21.224999999999998  47.0625 20  L 24.481250000000003 20  L 24.481250000000003 29  L 37.38125 29  C 36.825 31.93125  35.1375 34.46875  32.59375 36.168749999999996  C 30.44375 37.606249999999996  27.700000000000003 38.45625  24.475 38.45625  C 18.231250000000003 38.45625  12.950000000000003 34.2375  11.0625 28.568749999999994  C 10.587499999999999 27.131249999999994  10.3125 25.593749999999993  10.3125 24.012499999999996  C 10.3125 22.43125  10.587499999999999 20.893749999999997  11.0625 19.456249999999997  C 12.95625 13.793749999999996  18.2375 9.574999999999996  24.481250000000003 9.574999999999996  C 28 9.574999999999996  31.15625 10.787499999999994  33.643750000000004 13.162499999999994  L 40.518750000000004 6.281249999999995  C 36.362500000000004 2.4062499999999947  30.94375000000001 0.03124999999999467  24.481250000000003 0.03124999999999467  C 15.112500000000004 0.03124999999999467  7.006250000000001 5.406249999999995  3.0625000000000036 13.243749999999995  C 1.4375000000000036 16.481249999999996  0.5125000000000028 20.143749999999997  0.5125000000000028 24.018749999999997  C 0.5125000000000028 27.893749999999997  1.4375 31.549999999999997  3.0625 34.7875  C 7.00625 42.625  15.1125 48  24.481250000000003 48  C 30.956250000000004 48  36.38125 45.85  40.34375 42.1875  C 44.875 38.0125  47.49375 31.862499999999997  47.49375 24.55625  Z " fill-rule="nonzero" fill="rgba(0, 0, 0, 1)" stroke="none" class="fill" />
    <path d="M 47.49375 24.55625  C 47.49375 22.85625  47.34375 21.224999999999998  47.0625 20  L 24.481250000000003 20  L 24.481250000000003 29  L 37.38125 29  C 36.825 31.93125  35.1375 34.46875  32.59375 36.168749999999996  C 30.44375 37.606249999999996  27.700000000000003 38.45625  24.475 38.45625  C 18.231250000000003 38.45625  12.950000000000003 34.2375  11.0625 28.568749999999994  C 10.587499999999999 27.131249999999994  10.3125 25.593749999999993  10.3125 24.012499999999996  C 10.3125 22.43125  10.587499999999999 20.893749999999997  11.0625 19.456249999999997  C 12.95625 13.793749999999996  18.2375 9.574999999999996  24.481250000000003 9.574999999999996  C 28 9.574999999999996  31.15625 10.787499999999994  33.643750000000004 13.162499999999994  L 40.518750000000004 6.281249999999995  C 36.362500000000004 2.4062499999999947  30.94375000000001 0.03124999999999467  24.481250000000003 0.03124999999999467  C 15.112500000000004 0.03124999999999467  7.006250000000001 5.406249999999995  3.0625000000000036 13.243749999999995  C 1.4375000000000036 16.481249999999996  0.5125000000000028 20.143749999999997  0.5125000000000028 24.018749999999997  C 0.5125000000000028 27.893749999999997  1.4375 31.549999999999997  3.0625 34.7875  C 7.00625 42.625  15.1125 48  24.481250000000003 48  C 30.956250000000004 48  36.38125 45.85  40.34375 42.1875  C 44.875 38.0125  47.49375 31.862499999999997  47.49375 24.55625  Z " stroke-width="0" stroke-dasharray="0" stroke="rgba(255, 255, 255, 0)" fill="none" class="stroke" mask="url(#Clip2606)" />
  </g>
</svg>