<?xml version="1.0" encoding="utf-8"?>
<svg version="1.1" xmlns:xlink="http://www.w3.org/1999/xlink" width="24px" height="24px" xmlns="http://www.w3.org/2000/svg">
  <defs>
    <pattern id="BGPattern" patternUnits="userSpaceOnUse" alignment="0 0" imageRepeat="None" />
    <mask fill="white" id="Clip6381">
      <path d="M 24 12  C 24 18.627416997969522  18.627416997969522 24  12 24  C 5.372583002030479 24  0 18.627416997969522  0 12  C 0 5.372583002030479  5.372583002030479 0  12 0  C 18.627416997969522 0  24 5.372583002030479  24 12  Z M 16.906500000000005 7.223999999999995  C 16.456500000000002 7.231499999999994  15.762000000000004 7.472999999999995  12.430500000000002 8.859  C 11.2635 9.344999999999999  8.9295 10.35  5.431500000000001 11.873999999999999  C 4.8645000000000005 12.098999999999998  4.566000000000001 12.320999999999998  4.5390000000000015 12.536999999999999  C 4.4940000000000015 12.901499999999999  4.951500000000001 13.045499999999999  5.574000000000001 13.241999999999999  L 5.836500000000001 13.324499999999999  C 6.448500000000001 13.523999999999997  7.2735 13.756499999999999  7.7010000000000005 13.7655  C 8.091000000000001 13.7745  8.524500000000002 13.6155  9.003 13.285499999999999  C 12.271500000000001 11.078999999999999  13.959000000000001 9.964499999999997  14.064000000000002 9.940499999999998  C 14.139000000000003 9.9225  14.244 9.901499999999999  14.313000000000002 9.964499999999997  C 14.383500000000003 10.026  14.376000000000001 10.144499999999999  14.368500000000004 10.175999999999998  C 14.323500000000005 10.369499999999999  12.528000000000002 12.037499999999998  11.599500000000003 12.901499999999999  C 11.310000000000004 13.171499999999998  11.104500000000003 13.361999999999998  11.062500000000005 13.4055  C 10.970014431841335 13.500018353619364  10.876002070113053 13.593030583839898  10.780500000000004 13.6845  C 10.210500000000005 14.2335  9.784500000000005 14.6445  10.803000000000004 15.316499999999998  C 11.293500000000003 15.640499999999996  11.686500000000002 15.905999999999999  12.078000000000005 16.173  C 12.504000000000005 16.464  12.930000000000003 16.7535  13.482000000000005 17.116499999999995  C 13.621500000000005 17.2065  13.756500000000004 17.303999999999995  13.887000000000004 17.396999999999995  C 14.383500000000003 17.750999999999998  14.832000000000004 18.068999999999996  15.382500000000004 18.017999999999994  C 15.703500000000005 17.987999999999996  16.035000000000004 17.687999999999995  16.203000000000003 16.787999999999997  C 16.600500000000004 14.662499999999994  17.382000000000005 10.058999999999996  17.562000000000005 8.161499999999993  C 17.57298398969892 8.003763376807717  17.566444031104098 7.8452951493178595  17.542500000000004 7.688999999999993  C 17.52837935051666 7.562881728969511  17.467337767740176 7.446688540702002  17.371500000000005 7.363499999999995  C 17.235013585258933 7.269284523390647  17.072309104018338 7.2204731790184695  16.906500000000005 7.223999999999995  Z " fill-rule="evenodd" />
    </mask>
  </defs>
  <g>
    <path d="M 24 12  C 24 18.627416997969522  18.627416997969522 24  12 24  C 5.372583002030479 24  0 18.627416997969522  0 12  C 0 5.372583002030479  5.372583002030479 0  12 0  C 18.627416997969522 0  24 5.372583002030479  24 12  Z M 16.906500000000005 7.223999999999995  C 16.456500000000002 7.231499999999994  15.762000000000004 7.472999999999995  12.430500000000002 8.859  C 11.2635 9.344999999999999  8.9295 10.35  5.431500000000001 11.873999999999999  C 4.8645000000000005 12.098999999999998  4.566000000000001 12.320999999999998  4.5390000000000015 12.536999999999999  C 4.4940000000000015 12.901499999999999  4.951500000000001 13.045499999999999  5.574000000000001 13.241999999999999  L 5.836500000000001 13.324499999999999  C 6.448500000000001 13.523999999999997  7.2735 13.756499999999999  7.7010000000000005 13.7655  C 8.091000000000001 13.7745  8.524500000000002 13.6155  9.003 13.285499999999999  C 12.271500000000001 11.078999999999999  13.959000000000001 9.964499999999997  14.064000000000002 9.940499999999998  C 14.139000000000003 9.9225  14.244 9.901499999999999  14.313000000000002 9.964499999999997  C 14.383500000000003 10.026  14.376000000000001 10.144499999999999  14.368500000000004 10.175999999999998  C 14.323500000000005 10.369499999999999  12.528000000000002 12.037499999999998  11.599500000000003 12.901499999999999  C 11.310000000000004 13.171499999999998  11.104500000000003 13.361999999999998  11.062500000000005 13.4055  C 10.970014431841335 13.500018353619364  10.876002070113053 13.593030583839898  10.780500000000004 13.6845  C 10.210500000000005 14.2335  9.784500000000005 14.6445  10.803000000000004 15.316499999999998  C 11.293500000000003 15.640499999999996  11.686500000000002 15.905999999999999  12.078000000000005 16.173  C 12.504000000000005 16.464  12.930000000000003 16.7535  13.482000000000005 17.116499999999995  C 13.621500000000005 17.2065  13.756500000000004 17.303999999999995  13.887000000000004 17.396999999999995  C 14.383500000000003 17.750999999999998  14.832000000000004 18.068999999999996  15.382500000000004 18.017999999999994  C 15.703500000000005 17.987999999999996  16.035000000000004 17.687999999999995  16.203000000000003 16.787999999999997  C 16.600500000000004 14.662499999999994  17.382000000000005 10.058999999999996  17.562000000000005 8.161499999999993  C 17.57298398969892 8.003763376807717  17.566444031104098 7.8452951493178595  17.542500000000004 7.688999999999993  C 17.52837935051666 7.562881728969511  17.467337767740176 7.446688540702002  17.371500000000005 7.363499999999995  C 17.235013585258933 7.269284523390647  17.072309104018338 7.2204731790184695  16.906500000000005 7.223999999999995  Z " fill-rule="nonzero" fill="rgba(0, 0, 0, 1)" stroke="none" class="fill" />
    <path d="M 24 12  C 24 18.627416997969522  18.627416997969522 24  12 24  C 5.372583002030479 24  0 18.627416997969522  0 12  C 0 5.372583002030479  5.372583002030479 0  12 0  C 18.627416997969522 0  24 5.372583002030479  24 12  Z " stroke-width="0" stroke-dasharray="0" stroke="rgba(255, 255, 255, 0)" fill="none" class="stroke" mask="url(#Clip6381)" />
    <path d="M 16.906500000000005 7.223999999999995  C 16.456500000000002 7.231499999999994  15.762000000000004 7.472999999999995  12.430500000000002 8.859  C 11.2635 9.344999999999999  8.9295 10.35  5.431500000000001 11.873999999999999  C 4.8645000000000005 12.098999999999998  4.566000000000001 12.320999999999998  4.5390000000000015 12.536999999999999  C 4.4940000000000015 12.901499999999999  4.951500000000001 13.045499999999999  5.574000000000001 13.241999999999999  L 5.836500000000001 13.324499999999999  C 6.448500000000001 13.523999999999997  7.2735 13.756499999999999  7.7010000000000005 13.7655  C 8.091000000000001 13.7745  8.524500000000002 13.6155  9.003 13.285499999999999  C 12.271500000000001 11.078999999999999  13.959000000000001 9.964499999999997  14.064000000000002 9.940499999999998  C 14.139000000000003 9.9225  14.244 9.901499999999999  14.313000000000002 9.964499999999997  C 14.383500000000003 10.026  14.376000000000001 10.144499999999999  14.368500000000004 10.175999999999998  C 14.323500000000005 10.369499999999999  12.528000000000002 12.037499999999998  11.599500000000003 12.901499999999999  C 11.310000000000004 13.171499999999998  11.104500000000003 13.361999999999998  11.062500000000005 13.4055  C 10.970014431841335 13.500018353619364  10.876002070113053 13.593030583839898  10.780500000000004 13.6845  C 10.210500000000005 14.2335  9.784500000000005 14.6445  10.803000000000004 15.316499999999998  C 11.293500000000003 15.640499999999996  11.686500000000002 15.905999999999999  12.078000000000005 16.173  C 12.504000000000005 16.464  12.930000000000003 16.7535  13.482000000000005 17.116499999999995  C 13.621500000000005 17.2065  13.756500000000004 17.303999999999995  13.887000000000004 17.396999999999995  C 14.383500000000003 17.750999999999998  14.832000000000004 18.068999999999996  15.382500000000004 18.017999999999994  C 15.703500000000005 17.987999999999996  16.035000000000004 17.687999999999995  16.203000000000003 16.787999999999997  C 16.600500000000004 14.662499999999994  17.382000000000005 10.058999999999996  17.562000000000005 8.161499999999993  C 17.57298398969892 8.003763376807717  17.566444031104098 7.8452951493178595  17.542500000000004 7.688999999999993  C 17.52837935051666 7.562881728969511  17.467337767740176 7.446688540702002  17.371500000000005 7.363499999999995  C 17.235013585258933 7.269284523390647  17.072309104018338 7.2204731790184695  16.906500000000005 7.223999999999995  Z " stroke-width="0" stroke-dasharray="0" stroke="rgba(255, 255, 255, 0)" fill="none" class="stroke" mask="url(#Clip6381)" />
  </g>
</svg>