<?xml version="1.0" encoding="utf-8"?>
<svg version="1.1" xmlns:xlink="http://www.w3.org/1999/xlink" width="48px" height="40px" xmlns="http://www.w3.org/2000/svg">
  <defs>
    <pattern id="BGPattern" patternUnits="userSpaceOnUse" alignment="0 0" imageRepeat="None" />
    <mask fill="white" id="Clip6860">
      <path d="M 21.280271479253436 2.4911306493907084  C 15.045746141252796 0.43881429466546606  8.464831872506767 -0.35092198566749744  1.9217440485372017 0.16802920458635384  C -0.399403568306852 0.3829502802200624  0.2023754434675321 0.46891871047354616  5.790323409943957 0.7268240012339966  C 16.882204740603626 1.1996503676281556  23.458789654995115 2.9620031878245667  27.972132243303 6.574631086431179  C 29.76636443870899 8.339959061332264  31.215497337540114 10.424537067606948  32.24515399249319 12.721373849555249  C 32.24515399249319 12.721373849555249  25.13517404493804 14.354774024371434  17.00529590210293 15.945189984060878  C 8.875417759267824 17.535605943750323  2.4395084580184085 18.9540850429328  2.7032752326597786 19.04005347318628  C 9.461936270043239 18.55365882816167  16.19126181308783 17.721541433750886  22.86482595506196 16.54696899583526  L 32.37996812175433 15.11285927297033  C 32.53236670265824 15.089413337446654  32.45030592832537 15.88266748933107  32.45030592832537 16.117126844567842  C 32.45030592832537 18.266337600904926  30.258110956861543 21.87701167155123  26.991310607229167 25.104735461977477  C 21.61828371638645 30.348809707439965  14.0511080261196 34.260373283973465  4.379659622602709 36.75345776132448  C 1.7146382847447221 37.441205203352354  0.0812381099285363 38  0.6830171217029211 38  C 3.004164738546975 38.08596843025349  11.901897269782513 35.46002365160162  15.942413491696236 33.572625841945595  C 20.73318481911 31.407650666110104  25.04455379687967 28.30978825472237  28.624710782045348 24.45997223507635  C 31.516376163298887 20.86102113219188  34.47447169520284 18.989253946218312  34.59560902874184 14.657617358218925  L 40.57432258727955 13.668980410303867  C 43.75710833461875 13.153169828782964  46.631189264229526 12.594375032135321  46.98287829708469 12.465422386755098  C 47.45375083551854 12.293485526248134  47.53971926577202 11.777674944727227  47.373643889145974 10.488148490924976  C 47.07275438325878 8.124016658954181  45.22443313280888 6.275695408504285  41.484806416782355 4.554372975474312  C 35.818705331893675 1.9323358527430656  29.996298010180475 1.4282482389840032  26.94441873618181 3.2257699624659306  C 26.606406499048795 3.421152758496575  26.20977942310659 4.040516221913718  25.90107460537817 4.175330351174862  C 24.361458172656697 3.6126278986066076  22.821190463948447 3.051227998011889  21.280271479253436 2.4911306493907084  Z M 29.038922309630316 5.261658697105249  C 29.66610108488868 3.7005501568204  33.99383001696745 4.079592781119853  39.11090544501003 5.585994138516119  C 42.29173736438892 6.531646871304437  47.27790631909096 9.521003650573293  46.519821070492064 9.669494575556584  L 40.52938454419251 10.841791351740449  L 33.913723070594884 12.357961848938242  C 32.689708723723506 9.859234407100761  30.937809343410883 7.656027614127691  28.77906319090956 5.900560440125455  L 29.038922309630316 5.261658697105249  Z " fill-rule="evenodd" />
    </mask>
  </defs>
  <g>
    <path d="M 21.280271479253436 2.4911306493907084  C 15.045746141252796 0.43881429466546606  8.464831872506767 -0.35092198566749744  1.9217440485372017 0.16802920458635384  C -0.399403568306852 0.3829502802200624  0.2023754434675321 0.46891871047354616  5.790323409943957 0.7268240012339966  C 16.882204740603626 1.1996503676281556  23.458789654995115 2.9620031878245667  27.972132243303 6.574631086431179  C 29.76636443870899 8.339959061332264  31.215497337540114 10.424537067606948  32.24515399249319 12.721373849555249  C 32.24515399249319 12.721373849555249  25.13517404493804 14.354774024371434  17.00529590210293 15.945189984060878  C 8.875417759267824 17.535605943750323  2.4395084580184085 18.9540850429328  2.7032752326597786 19.04005347318628  C 9.461936270043239 18.55365882816167  16.19126181308783 17.721541433750886  22.86482595506196 16.54696899583526  L 32.37996812175433 15.11285927297033  C 32.53236670265824 15.089413337446654  32.45030592832537 15.88266748933107  32.45030592832537 16.117126844567842  C 32.45030592832537 18.266337600904926  30.258110956861543 21.87701167155123  26.991310607229167 25.104735461977477  C 21.61828371638645 30.348809707439965  14.0511080261196 34.260373283973465  4.379659622602709 36.75345776132448  C 1.7146382847447221 37.441205203352354  0.0812381099285363 38  0.6830171217029211 38  C 3.004164738546975 38.08596843025349  11.901897269782513 35.46002365160162  15.942413491696236 33.572625841945595  C 20.73318481911 31.407650666110104  25.04455379687967 28.30978825472237  28.624710782045348 24.45997223507635  C 31.516376163298887 20.86102113219188  34.47447169520284 18.989253946218312  34.59560902874184 14.657617358218925  L 40.57432258727955 13.668980410303867  C 43.75710833461875 13.153169828782964  46.631189264229526 12.594375032135321  46.98287829708469 12.465422386755098  C 47.45375083551854 12.293485526248134  47.53971926577202 11.777674944727227  47.373643889145974 10.488148490924976  C 47.07275438325878 8.124016658954181  45.22443313280888 6.275695408504285  41.484806416782355 4.554372975474312  C 35.818705331893675 1.9323358527430656  29.996298010180475 1.4282482389840032  26.94441873618181 3.2257699624659306  C 26.606406499048795 3.421152758496575  26.20977942310659 4.040516221913718  25.90107460537817 4.175330351174862  C 24.361458172656697 3.6126278986066076  22.821190463948447 3.051227998011889  21.280271479253436 2.4911306493907084  Z M 29.038922309630316 5.261658697105249  C 29.66610108488868 3.7005501568204  33.99383001696745 4.079592781119853  39.11090544501003 5.585994138516119  C 42.29173736438892 6.531646871304437  47.27790631909096 9.521003650573293  46.519821070492064 9.669494575556584  L 40.52938454419251 10.841791351740449  L 33.913723070594884 12.357961848938242  C 32.689708723723506 9.859234407100761  30.937809343410883 7.656027614127691  28.77906319090956 5.900560440125455  L 29.038922309630316 5.261658697105249  Z " fill-rule="nonzero" fill="rgba(252, 0, 0, 1)" stroke="none" class="fill" />
    <path d="M 21.280271479253436 2.4911306493907084  C 15.045746141252796 0.43881429466546606  8.464831872506767 -0.35092198566749744  1.9217440485372017 0.16802920458635384  C -0.399403568306852 0.3829502802200624  0.2023754434675321 0.46891871047354616  5.790323409943957 0.7268240012339966  C 16.882204740603626 1.1996503676281556  23.458789654995115 2.9620031878245667  27.972132243303 6.574631086431179  C 29.76636443870899 8.339959061332264  31.215497337540114 10.424537067606948  32.24515399249319 12.721373849555249  C 32.24515399249319 12.721373849555249  25.13517404493804 14.354774024371434  17.00529590210293 15.945189984060878  C 8.875417759267824 17.535605943750323  2.4395084580184085 18.9540850429328  2.7032752326597786 19.04005347318628  C 9.461936270043239 18.55365882816167  16.19126181308783 17.721541433750886  22.86482595506196 16.54696899583526  L 32.37996812175433 15.11285927297033  C 32.53236670265824 15.089413337446654  32.45030592832537 15.88266748933107  32.45030592832537 16.117126844567842  C 32.45030592832537 18.266337600904926  30.258110956861543 21.87701167155123  26.991310607229167 25.104735461977477  C 21.61828371638645 30.348809707439965  14.0511080261196 34.260373283973465  4.379659622602709 36.75345776132448  C 1.7146382847447221 37.441205203352354  0.0812381099285363 38  0.6830171217029211 38  C 3.004164738546975 38.08596843025349  11.901897269782513 35.46002365160162  15.942413491696236 33.572625841945595  C 20.73318481911 31.407650666110104  25.04455379687967 28.30978825472237  28.624710782045348 24.45997223507635  C 31.516376163298887 20.86102113219188  34.47447169520284 18.989253946218312  34.59560902874184 14.657617358218925  L 40.57432258727955 13.668980410303867  C 43.75710833461875 13.153169828782964  46.631189264229526 12.594375032135321  46.98287829708469 12.465422386755098  C 47.45375083551854 12.293485526248134  47.53971926577202 11.777674944727227  47.373643889145974 10.488148490924976  C 47.07275438325878 8.124016658954181  45.22443313280888 6.275695408504285  41.484806416782355 4.554372975474312  C 35.818705331893675 1.9323358527430656  29.996298010180475 1.4282482389840032  26.94441873618181 3.2257699624659306  C 26.606406499048795 3.421152758496575  26.20977942310659 4.040516221913718  25.90107460537817 4.175330351174862  C 24.361458172656697 3.6126278986066076  22.821190463948447 3.051227998011889  21.280271479253436 2.4911306493907084  Z " stroke-width="0" stroke-dasharray="0" stroke="rgba(255, 255, 255, 0)" fill="none" class="stroke" mask="url(#Clip6860)" />
    <path d="M 29.038922309630316 5.261658697105249  C 29.66610108488868 3.7005501568204  33.99383001696745 4.079592781119853  39.11090544501003 5.585994138516119  C 42.29173736438892 6.531646871304437  47.27790631909096 9.521003650573293  46.519821070492064 9.669494575556584  L 40.52938454419251 10.841791351740449  L 33.913723070594884 12.357961848938242  C 32.689708723723506 9.859234407100761  30.937809343410883 7.656027614127691  28.77906319090956 5.900560440125455  L 29.038922309630316 5.261658697105249  Z " stroke-width="0" stroke-dasharray="0" stroke="rgba(255, 255, 255, 0)" fill="none" class="stroke" mask="url(#Clip6860)" />
  </g>
</svg>