<?xml version="1.0" encoding="utf-8"?>
<svg version="1.1" xmlns:xlink="http://www.w3.org/1999/xlink" width="8px" height="10px" xmlns="http://www.w3.org/2000/svg">
  <defs>
    <pattern id="BGPattern" patternUnits="userSpaceOnUse" alignment="0 0" imageRepeat="None" />
    <mask fill="white" id="Clip5442">
      <path d="M 3.25 1.25  C 3.25 0.8357864376269051  3.585786437626904 0.5  4 0.5  C 4.414213562373096 0.5  4.75 0.8357864376269051  4.75 1.25  L 4.75 6.939499999999999  L 6.469000000000001 5.218999999999998  C 6.609829956104798 5.078170043895202  6.800836366088188 4.999052598379887  7 4.999052598379887  C 7.414736797839849 4.999052598379887  7.750947401620115 5.335263202160151  7.750947401620115 5.75  C 7.750947401620115 5.949163633911812  7.671829956104798 6.1401700438952  7.531000000000002 6.280999999999999  L 4.531000000000002 9.280999999999999  C 4.39029360548475 9.422062551031452  4.1992408912873636 9.501340675528127  4 9.501340675528127  C 3.8007591087126364 9.501340675528127  3.6097063945152517 9.422062551031452  3.469000000000001 9.280999999999999  L 0.4690000000000012 6.280999999999999  C 0.328170043895204 6.140170043895202  0.2490525983798868 5.949163633911811  0.2490525983798868 5.75  C 0.2490525983798868 5.335263202160151  0.5852632021601529 4.999052598379887  1.0000000000000018 4.999052598379887  C 1.1991636339118124 4.999052598379887  1.3901700438952034 5.078170043895202  1.5310000000000024 5.218999999999998  L 3.25 6.939499999999999  L 3.25 1.25  Z " fill-rule="evenodd" />
    </mask>
  </defs>
  <g transform="matrix(1 0 0 1 -5 -7 )">
    <path d="M 3.25 1.25  C 3.25 0.8357864376269051  3.585786437626904 0.5  4 0.5  C 4.414213562373096 0.5  4.75 0.8357864376269051  4.75 1.25  L 4.75 6.939499999999999  L 6.469000000000001 5.218999999999998  C 6.609829956104798 5.078170043895202  6.800836366088188 4.999052598379887  7 4.999052598379887  C 7.414736797839849 4.999052598379887  7.750947401620115 5.335263202160151  7.750947401620115 5.75  C 7.750947401620115 5.949163633911812  7.671829956104798 6.1401700438952  7.531000000000002 6.280999999999999  L 4.531000000000002 9.280999999999999  C 4.39029360548475 9.422062551031452  4.1992408912873636 9.501340675528127  4 9.501340675528127  C 3.8007591087126364 9.501340675528127  3.6097063945152517 9.422062551031452  3.469000000000001 9.280999999999999  L 0.4690000000000012 6.280999999999999  C 0.328170043895204 6.140170043895202  0.2490525983798868 5.949163633911811  0.2490525983798868 5.75  C 0.2490525983798868 5.335263202160151  0.5852632021601529 4.999052598379887  1.0000000000000018 4.999052598379887  C 1.1991636339118124 4.999052598379887  1.3901700438952034 5.078170043895202  1.5310000000000024 5.218999999999998  L 3.25 6.939499999999999  L 3.25 1.25  Z " fill-rule="nonzero" fill="rgba(0, 0, 0, 1)" stroke="none" transform="matrix(1 0 0 1 5 7 )" class="fill" />
    <path d="M 3.25 1.25  C 3.25 0.8357864376269051  3.585786437626904 0.5  4 0.5  C 4.414213562373096 0.5  4.75 0.8357864376269051  4.75 1.25  L 4.75 6.939499999999999  L 6.469000000000001 5.218999999999998  C 6.609829956104798 5.078170043895202  6.800836366088188 4.999052598379887  7 4.999052598379887  C 7.414736797839849 4.999052598379887  7.750947401620115 5.335263202160151  7.750947401620115 5.75  C 7.750947401620115 5.949163633911812  7.671829956104798 6.1401700438952  7.531000000000002 6.280999999999999  L 4.531000000000002 9.280999999999999  C 4.39029360548475 9.422062551031452  4.1992408912873636 9.501340675528127  4 9.501340675528127  C 3.8007591087126364 9.501340675528127  3.6097063945152517 9.422062551031452  3.469000000000001 9.280999999999999  L 0.4690000000000012 6.280999999999999  C 0.328170043895204 6.140170043895202  0.2490525983798868 5.949163633911811  0.2490525983798868 5.75  C 0.2490525983798868 5.335263202160151  0.5852632021601529 4.999052598379887  1.0000000000000018 4.999052598379887  C 1.1991636339118124 4.999052598379887  1.3901700438952034 5.078170043895202  1.5310000000000024 5.218999999999998  L 3.25 6.939499999999999  L 3.25 1.25  Z " stroke-width="0" stroke-dasharray="0" stroke="rgba(255, 255, 255, 0)" fill="none" transform="matrix(1 0 0 1 5 7 )" class="stroke" mask="url(#Clip5442)" />
  </g>
</svg>