<?xml version="1.0" encoding="utf-8"?>
<svg version="1.1" xmlns:xlink="http://www.w3.org/1999/xlink" width="50px" height="21px" xmlns="http://www.w3.org/2000/svg">
  <defs>
    <pattern id="BGPattern" patternUnits="userSpaceOnUse" alignment="0 0" imageRepeat="None" />
    <mask fill="white" id="Clip651">
      <path d="M 10.06240249609985 0.05460218408737205  C 10.15600624024961 1.0218408736349716  9.773790951638063 1.981279251170065  9.196567862714517 2.6911076443057595  C 8.611544461778465 3.385335413416556  7.675507020280804 3.9313572542901625  6.739469578783145 3.853354134165386  C 6.6224648985959504 2.9173166926677254  7.082683307332288 1.9188767550701866  7.620904836193447 1.3104524180967019  C 8.205928237129484 0.6006240249610073  9.227769110764427 0.09360374414976036  10.06240249609985 0.05460218408737205  Z M 13.073322932917323 5.678627145085783  C 12.098283931357258 4.227769110764427  10.57722308892356 4.071762870514817  10.04680187207488 4.032761310452429  C 8.68954758190327 3.9547581903275955  7.527301092043687 4.804992199688002  6.887675507020276 4.804992199688002  C 6.232449297971925 4.804992199688002  5.24960998439937 4.071762870514817  4.1731669266770695 4.09516380655225  C 2.7769110764430565 4.118564742589683  1.4820592823712957 4.906396255850211  0.7722308892355727 6.162246489859626  C -0.6942277691107606 8.68174726989082  0.3900156006240252 12.40249609984403  1.8096723868954712 14.453978159126393  C 2.503900156006239 15.468018720748828  3.3307332293291694 16.583463338533534  4.42277691107644 16.544461778471145  C 5.460218408736353 16.505460218408757  5.865834633385333 15.87363494539784  7.113884555382214 15.87363494539784  C 8.369734789391572 15.87363494539784  8.736349453978164 16.544461778471145  9.828393135725435 16.52886115444619  C 10.959438377535093 16.505460218408757  11.66926677067083 15.514820592823698  12.363494539781584 14.50078003120126  C 13.151326053042112 13.346333853354167  13.478939157566302 12.230889235569407  13.494539781591271 12.168486739469586  C 13.471138845553824 12.145085803432153  11.31045241809673 11.318252730109238  11.287051482059283 8.822152886115475  C 11.263650546021836 6.731669266770666  12.995319812792516 5.741029641185662  13.073322932917323 5.678627145085783  Z M 23.58814352574103 1.2090483619344923  L 18 1.2090483619344923  L 18 16.41185647425897  L 20.241809672386893 16.41185647425897  L 20.241809672386893 11.21684867394697  L 23.510140405616227 11.21684867394697  C 26.497659906396255 11.21684867394697  28.58814352574103 9.165366614664606  28.58814352574103 6.201248049922015  C 28.58814352574103 3.2371294851794232  26.528861154446194 1.2090483619344923  23.58814352574103 1.2090483619344923  Z M 20.241809672386893 9.235569422776905  L 20.241809672386893 3.198127925116978  L 22.96411856474259 3.198127925116978  C 25.01560062402495 3.198127925116978  26.18564742589703 4.290171606864305  26.18564742589703 6.209048361934492  C 26.18564742589703 8.12792511700468  25.01560062402495 9.235569422776905  22.956318252730114 9.235569422776905  L 20.241809672386893 9.235569422776905  Z M 29.165366614664578 13.252730109204379  C 29.17316692667707 15.218408736349488  30.702028081123245 16.52886115444619  32.893915756630264 16.52886115444619  C 34.37597503900156 16.52886115444619  35.74882995319814 15.780031201248049  36.372854914196566 14.58658346333857  L 36.419656786271446 14.58658346333857  L 36.419656786271446 16.41185647425897  L 38.60374414976599 16.41185647425897  L 38.60374414976599 8.845553822152908  C 38.60374414976599 6.6536661466458895  36.84867394695789 5.2340093603744435  34.14976599063962 5.2340093603744435  C 31.645865834633387 5.2340093603744435  29.789391575663014 6.669266770670844  29.7191887675507 8.634945397815898  L 31.848673946957874 8.634945397815898  C 32.02808112324493 7.698907956318237  32.893915756630264 7.082683307332275  34.07956318252731 7.082683307332275  C 35.5226209048362 7.082683307332275  36.33385335413416 7.753510140405638  36.33385335413416 8.99375975039004  L 36.33385335413416 9.836193447737912  L 33.38533541341654 10.015600624024955  C 30.647425897035873 10.179407176287043  29.165366614664578 11.302652106084222  29.165366614664578 13.252730109204379  Z M 36.34165366614664 12.293291731669285  C 36.34165366614664 13.712948517940731  35.13260530421218 14.726989079563168  33.53354134165366 14.726989079563168  C 32.2776911076443 14.726989079563168  31.47425897035882 14.118564742589683  31.47425897035882 13.198127925116978  C 31.47425897035882 12.238689547581886  32.24648985959438 11.684867394695802  33.72074882995321 11.599063962558489  L 36.34165366614664 11.435257410296401  L 36.34165366614664 12.293291731669285  Z M 40.62402496099844 20.491419656786263  C 40.764430577223095 20.52262090483623  41.34945397815912 20.546021840873664  41.528861154446176 20.546021840873664  C 43.829953198127924 20.546021840873664  44.91419656786272 19.664586583463347  45.858034321372855 17.004680187207498  L 50 5.382215288611519  L 47.597503900156 5.382215288611519  L 44.82059282371296 14.360374414976604  L 44.77379095163806 14.360374414976604  L 41.996879875195006 5.382215288611519  L 39.53198127925117 5.382215288611519  L 43.52574102964118 16.450858034321357  L 43.307332293291736 17.12168486739472  C 42.948517940717636 18.260530421216856  42.363494539781584 18.705148205928253  41.31825273010921 18.705148205928253  C 41.13104524180969 18.705148205928253  40.77223088923557 18.68174726989082  40.62402496099844 18.666146645865865  L 40.62402496099844 20.491419656786263  Z " fill-rule="evenodd" />
    </mask>
  </defs>
  <g>
    <path d="M 10.06240249609985 0.05460218408737205  C 10.15600624024961 1.0218408736349716  9.773790951638063 1.981279251170065  9.196567862714517 2.6911076443057595  C 8.611544461778465 3.385335413416556  7.675507020280804 3.9313572542901625  6.739469578783145 3.853354134165386  C 6.6224648985959504 2.9173166926677254  7.082683307332288 1.9188767550701866  7.620904836193447 1.3104524180967019  C 8.205928237129484 0.6006240249610073  9.227769110764427 0.09360374414976036  10.06240249609985 0.05460218408737205  Z M 13.073322932917323 5.678627145085783  C 12.098283931357258 4.227769110764427  10.57722308892356 4.071762870514817  10.04680187207488 4.032761310452429  C 8.68954758190327 3.9547581903275955  7.527301092043687 4.804992199688002  6.887675507020276 4.804992199688002  C 6.232449297971925 4.804992199688002  5.24960998439937 4.071762870514817  4.1731669266770695 4.09516380655225  C 2.7769110764430565 4.118564742589683  1.4820592823712957 4.906396255850211  0.7722308892355727 6.162246489859626  C -0.6942277691107606 8.68174726989082  0.3900156006240252 12.40249609984403  1.8096723868954712 14.453978159126393  C 2.503900156006239 15.468018720748828  3.3307332293291694 16.583463338533534  4.42277691107644 16.544461778471145  C 5.460218408736353 16.505460218408757  5.865834633385333 15.87363494539784  7.113884555382214 15.87363494539784  C 8.369734789391572 15.87363494539784  8.736349453978164 16.544461778471145  9.828393135725435 16.52886115444619  C 10.959438377535093 16.505460218408757  11.66926677067083 15.514820592823698  12.363494539781584 14.50078003120126  C 13.151326053042112 13.346333853354167  13.478939157566302 12.230889235569407  13.494539781591271 12.168486739469586  C 13.471138845553824 12.145085803432153  11.31045241809673 11.318252730109238  11.287051482059283 8.822152886115475  C 11.263650546021836 6.731669266770666  12.995319812792516 5.741029641185662  13.073322932917323 5.678627145085783  Z M 23.58814352574103 1.2090483619344923  L 18 1.2090483619344923  L 18 16.41185647425897  L 20.241809672386893 16.41185647425897  L 20.241809672386893 11.21684867394697  L 23.510140405616227 11.21684867394697  C 26.497659906396255 11.21684867394697  28.58814352574103 9.165366614664606  28.58814352574103 6.201248049922015  C 28.58814352574103 3.2371294851794232  26.528861154446194 1.2090483619344923  23.58814352574103 1.2090483619344923  Z M 20.241809672386893 9.235569422776905  L 20.241809672386893 3.198127925116978  L 22.96411856474259 3.198127925116978  C 25.01560062402495 3.198127925116978  26.18564742589703 4.290171606864305  26.18564742589703 6.209048361934492  C 26.18564742589703 8.12792511700468  25.01560062402495 9.235569422776905  22.956318252730114 9.235569422776905  L 20.241809672386893 9.235569422776905  Z M 29.165366614664578 13.252730109204379  C 29.17316692667707 15.218408736349488  30.702028081123245 16.52886115444619  32.893915756630264 16.52886115444619  C 34.37597503900156 16.52886115444619  35.74882995319814 15.780031201248049  36.372854914196566 14.58658346333857  L 36.419656786271446 14.58658346333857  L 36.419656786271446 16.41185647425897  L 38.60374414976599 16.41185647425897  L 38.60374414976599 8.845553822152908  C 38.60374414976599 6.6536661466458895  36.84867394695789 5.2340093603744435  34.14976599063962 5.2340093603744435  C 31.645865834633387 5.2340093603744435  29.789391575663014 6.669266770670844  29.7191887675507 8.634945397815898  L 31.848673946957874 8.634945397815898  C 32.02808112324493 7.698907956318237  32.893915756630264 7.082683307332275  34.07956318252731 7.082683307332275  C 35.5226209048362 7.082683307332275  36.33385335413416 7.753510140405638  36.33385335413416 8.99375975039004  L 36.33385335413416 9.836193447737912  L 33.38533541341654 10.015600624024955  C 30.647425897035873 10.179407176287043  29.165366614664578 11.302652106084222  29.165366614664578 13.252730109204379  Z M 36.34165366614664 12.293291731669285  C 36.34165366614664 13.712948517940731  35.13260530421218 14.726989079563168  33.53354134165366 14.726989079563168  C 32.2776911076443 14.726989079563168  31.47425897035882 14.118564742589683  31.47425897035882 13.198127925116978  C 31.47425897035882 12.238689547581886  32.24648985959438 11.684867394695802  33.72074882995321 11.599063962558489  L 36.34165366614664 11.435257410296401  L 36.34165366614664 12.293291731669285  Z M 40.62402496099844 20.491419656786263  C 40.764430577223095 20.52262090483623  41.34945397815912 20.546021840873664  41.528861154446176 20.546021840873664  C 43.829953198127924 20.546021840873664  44.91419656786272 19.664586583463347  45.858034321372855 17.004680187207498  L 50 5.382215288611519  L 47.597503900156 5.382215288611519  L 44.82059282371296 14.360374414976604  L 44.77379095163806 14.360374414976604  L 41.996879875195006 5.382215288611519  L 39.53198127925117 5.382215288611519  L 43.52574102964118 16.450858034321357  L 43.307332293291736 17.12168486739472  C 42.948517940717636 18.260530421216856  42.363494539781584 18.705148205928253  41.31825273010921 18.705148205928253  C 41.13104524180969 18.705148205928253  40.77223088923557 18.68174726989082  40.62402496099844 18.666146645865865  L 40.62402496099844 20.491419656786263  Z " fill-rule="nonzero" fill="rgba(0, 0, 0, 1)" stroke="none" class="fill" />
    <path d="M 10.06240249609985 0.05460218408737205  C 10.15600624024961 1.0218408736349716  9.773790951638063 1.981279251170065  9.196567862714517 2.6911076443057595  C 8.611544461778465 3.385335413416556  7.675507020280804 3.9313572542901625  6.739469578783145 3.853354134165386  C 6.6224648985959504 2.9173166926677254  7.082683307332288 1.9188767550701866  7.620904836193447 1.3104524180967019  C 8.205928237129484 0.6006240249610073  9.227769110764427 0.09360374414976036  10.06240249609985 0.05460218408737205  Z " stroke-width="0" stroke-dasharray="0" stroke="rgba(255, 255, 255, 0)" fill="none" class="stroke" mask="url(#Clip651)" />
    <path d="M 13.073322932917323 5.678627145085783  C 12.098283931357258 4.227769110764427  10.57722308892356 4.071762870514817  10.04680187207488 4.032761310452429  C 8.68954758190327 3.9547581903275955  7.527301092043687 4.804992199688002  6.887675507020276 4.804992199688002  C 6.232449297971925 4.804992199688002  5.24960998439937 4.071762870514817  4.1731669266770695 4.09516380655225  C 2.7769110764430565 4.118564742589683  1.4820592823712957 4.906396255850211  0.7722308892355727 6.162246489859626  C -0.6942277691107606 8.68174726989082  0.3900156006240252 12.40249609984403  1.8096723868954712 14.453978159126393  C 2.503900156006239 15.468018720748828  3.3307332293291694 16.583463338533534  4.42277691107644 16.544461778471145  C 5.460218408736353 16.505460218408757  5.865834633385333 15.87363494539784  7.113884555382214 15.87363494539784  C 8.369734789391572 15.87363494539784  8.736349453978164 16.544461778471145  9.828393135725435 16.52886115444619  C 10.959438377535093 16.505460218408757  11.66926677067083 15.514820592823698  12.363494539781584 14.50078003120126  C 13.151326053042112 13.346333853354167  13.478939157566302 12.230889235569407  13.494539781591271 12.168486739469586  C 13.471138845553824 12.145085803432153  11.31045241809673 11.318252730109238  11.287051482059283 8.822152886115475  C 11.263650546021836 6.731669266770666  12.995319812792516 5.741029641185662  13.073322932917323 5.678627145085783  Z " stroke-width="0" stroke-dasharray="0" stroke="rgba(255, 255, 255, 0)" fill="none" class="stroke" mask="url(#Clip651)" />
    <path d="M 23.58814352574103 1.2090483619344923  L 18 1.2090483619344923  L 18 16.41185647425897  L 20.241809672386893 16.41185647425897  L 20.241809672386893 11.21684867394697  L 23.510140405616227 11.21684867394697  C 26.497659906396255 11.21684867394697  28.58814352574103 9.165366614664606  28.58814352574103 6.201248049922015  C 28.58814352574103 3.2371294851794232  26.528861154446194 1.2090483619344923  23.58814352574103 1.2090483619344923  Z " stroke-width="0" stroke-dasharray="0" stroke="rgba(255, 255, 255, 0)" fill="none" class="stroke" mask="url(#Clip651)" />
    <path d="M 20.241809672386893 9.235569422776905  L 20.241809672386893 3.198127925116978  L 22.96411856474259 3.198127925116978  C 25.01560062402495 3.198127925116978  26.18564742589703 4.290171606864305  26.18564742589703 6.209048361934492  C 26.18564742589703 8.12792511700468  25.01560062402495 9.235569422776905  22.956318252730114 9.235569422776905  L 20.241809672386893 9.235569422776905  Z " stroke-width="0" stroke-dasharray="0" stroke="rgba(255, 255, 255, 0)" fill="none" class="stroke" mask="url(#Clip651)" />
    <path d="M 29.165366614664578 13.252730109204379  C 29.17316692667707 15.218408736349488  30.702028081123245 16.52886115444619  32.893915756630264 16.52886115444619  C 34.37597503900156 16.52886115444619  35.74882995319814 15.780031201248049  36.372854914196566 14.58658346333857  L 36.419656786271446 14.58658346333857  L 36.419656786271446 16.41185647425897  L 38.60374414976599 16.41185647425897  L 38.60374414976599 8.845553822152908  C 38.60374414976599 6.6536661466458895  36.84867394695789 5.2340093603744435  34.14976599063962 5.2340093603744435  C 31.645865834633387 5.2340093603744435  29.789391575663014 6.669266770670844  29.7191887675507 8.634945397815898  L 31.848673946957874 8.634945397815898  C 32.02808112324493 7.698907956318237  32.893915756630264 7.082683307332275  34.07956318252731 7.082683307332275  C 35.5226209048362 7.082683307332275  36.33385335413416 7.753510140405638  36.33385335413416 8.99375975039004  L 36.33385335413416 9.836193447737912  L 33.38533541341654 10.015600624024955  C 30.647425897035873 10.179407176287043  29.165366614664578 11.302652106084222  29.165366614664578 13.252730109204379  Z " stroke-width="0" stroke-dasharray="0" stroke="rgba(255, 255, 255, 0)" fill="none" class="stroke" mask="url(#Clip651)" />
    <path d="M 36.34165366614664 12.293291731669285  C 36.34165366614664 13.712948517940731  35.13260530421218 14.726989079563168  33.53354134165366 14.726989079563168  C 32.2776911076443 14.726989079563168  31.47425897035882 14.118564742589683  31.47425897035882 13.198127925116978  C 31.47425897035882 12.238689547581886  32.24648985959438 11.684867394695802  33.72074882995321 11.599063962558489  L 36.34165366614664 11.435257410296401  L 36.34165366614664 12.293291731669285  Z " stroke-width="0" stroke-dasharray="0" stroke="rgba(255, 255, 255, 0)" fill="none" class="stroke" mask="url(#Clip651)" />
    <path d="M 40.62402496099844 20.491419656786263  C 40.764430577223095 20.52262090483623  41.34945397815912 20.546021840873664  41.528861154446176 20.546021840873664  C 43.829953198127924 20.546021840873664  44.91419656786272 19.664586583463347  45.858034321372855 17.004680187207498  L 50 5.382215288611519  L 47.597503900156 5.382215288611519  L 44.82059282371296 14.360374414976604  L 44.77379095163806 14.360374414976604  L 41.996879875195006 5.382215288611519  L 39.53198127925117 5.382215288611519  L 43.52574102964118 16.450858034321357  L 43.307332293291736 17.12168486739472  C 42.948517940717636 18.260530421216856  42.363494539781584 18.705148205928253  41.31825273010921 18.705148205928253  C 41.13104524180969 18.705148205928253  40.77223088923557 18.68174726989082  40.62402496099844 18.666146645865865  L 40.62402496099844 20.491419656786263  Z " stroke-width="0" stroke-dasharray="0" stroke="rgba(255, 255, 255, 0)" fill="none" class="stroke" mask="url(#Clip651)" />
  </g>
</svg>