<?xml version="1.0" encoding="utf-8"?>
<svg version="1.1" xmlns:xlink="http://www.w3.org/1999/xlink" width="50px" height="50px" xmlns="http://www.w3.org/2000/svg">
  <defs>
    <pattern id="BGPattern" patternUnits="userSpaceOnUse" alignment="0 0" imageRepeat="None" />
    <mask fill="white" id="Clip941">
      <path d="M 21 0.050403225806462615  L 21 15.836693548387103  C 20.76612903225805 26.96572580645162  14.616935483870975 36.54233870967744  5.887096774193537 40.77620967741939  C 2.217741935483872 36.41129032258067  0 30.816532258064537  0 24.657258064516157  C 0 12.288306451612897  8.981854838709666 2.0362903225806406  21 0.050403225806462615  Z M 36.875 46.54233870967744  C 33.3366935483871 48.48790322580646  29.264112903225794 49.59677419354841  24.899193548387103 49.59677419354841  C 20.574596774193537 49.59677419354841  16.502016129032256 48.48790322580646  12.95362903225808 46.53225806451616  C 18.719758064516128 42.89314516129036  23.377016129032256 37.38911290322582  24.899193548387103 30.94758064516131  C 26.461693548387107 37.38911290322582  31.118951612903235 42.89314516129036  36.875 46.54233870967744  Z M 50 24.657258064516157  C 50 30.816532258064537  47.78225806451613 36.41129032258067  44.11290322580646 40.77620967741939  C 35.383064516129025 36.54233870967744  29.23387096774195 26.975806451612925  29 15.836693548387103  L 29 0.050403225806462615  C 41.018145161290306 2.0362903225806406  50 12.288306451612897  50 24.657258064516157  Z " fill-rule="evenodd" />
    </mask>
  </defs>
  <g>
    <path d="M 21 0.050403225806462615  L 21 15.836693548387103  C 20.76612903225805 26.96572580645162  14.616935483870975 36.54233870967744  5.887096774193537 40.77620967741939  C 2.217741935483872 36.41129032258067  0 30.816532258064537  0 24.657258064516157  C 0 12.288306451612897  8.981854838709666 2.0362903225806406  21 0.050403225806462615  Z M 36.875 46.54233870967744  C 33.3366935483871 48.48790322580646  29.264112903225794 49.59677419354841  24.899193548387103 49.59677419354841  C 20.574596774193537 49.59677419354841  16.502016129032256 48.48790322580646  12.95362903225808 46.53225806451616  C 18.719758064516128 42.89314516129036  23.377016129032256 37.38911290322582  24.899193548387103 30.94758064516131  C 26.461693548387107 37.38911290322582  31.118951612903235 42.89314516129036  36.875 46.54233870967744  Z M 50 24.657258064516157  C 50 30.816532258064537  47.78225806451613 36.41129032258067  44.11290322580646 40.77620967741939  C 35.383064516129025 36.54233870967744  29.23387096774195 26.975806451612925  29 15.836693548387103  L 29 0.050403225806462615  C 41.018145161290306 2.0362903225806406  50 12.288306451612897  50 24.657258064516157  Z " fill-rule="nonzero" fill="rgba(0, 0, 0, 1)" stroke="none" class="fill" />
    <path d="M 21 0.050403225806462615  L 21 15.836693548387103  C 20.76612903225805 26.96572580645162  14.616935483870975 36.54233870967744  5.887096774193537 40.77620967741939  C 2.217741935483872 36.41129032258067  0 30.816532258064537  0 24.657258064516157  C 0 12.288306451612897  8.981854838709666 2.0362903225806406  21 0.050403225806462615  Z " stroke-width="0" stroke-dasharray="0" stroke="rgba(255, 255, 255, 0)" fill="none" class="stroke" mask="url(#Clip941)" />
    <path d="M 36.875 46.54233870967744  C 33.3366935483871 48.48790322580646  29.264112903225794 49.59677419354841  24.899193548387103 49.59677419354841  C 20.574596774193537 49.59677419354841  16.502016129032256 48.48790322580646  12.95362903225808 46.53225806451616  C 18.719758064516128 42.89314516129036  23.377016129032256 37.38911290322582  24.899193548387103 30.94758064516131  C 26.461693548387107 37.38911290322582  31.118951612903235 42.89314516129036  36.875 46.54233870967744  Z " stroke-width="0" stroke-dasharray="0" stroke="rgba(255, 255, 255, 0)" fill="none" class="stroke" mask="url(#Clip941)" />
    <path d="M 50 24.657258064516157  C 50 30.816532258064537  47.78225806451613 36.41129032258067  44.11290322580646 40.77620967741939  C 35.383064516129025 36.54233870967744  29.23387096774195 26.975806451612925  29 15.836693548387103  L 29 0.050403225806462615  C 41.018145161290306 2.0362903225806406  50 12.288306451612897  50 24.657258064516157  Z " stroke-width="0" stroke-dasharray="0" stroke="rgba(255, 255, 255, 0)" fill="none" class="stroke" mask="url(#Clip941)" />
  </g>
</svg>