<?xml version="1.0" encoding="utf-8"?>
<svg version="1.1" xmlns:xlink="http://www.w3.org/1999/xlink" width="23px" height="18px" xmlns="http://www.w3.org/2000/svg">
  <defs>
    <pattern id="BGPattern" patternUnits="userSpaceOnUse" alignment="0 0" imageRepeat="None" />
    <mask fill="white" id="Clip6151">
      <path d="M 0 17.25  L 0 14.25  C 0 13.835786437626904  0.3357864376269049 13.5  0.75 13.5  L 3.75 13.5  C 4.164213562373095 13.5  4.5 13.835786437626904  4.5 14.25  L 4.5 17.25  C 4.5 17.664213562373096  4.164213562373095 18  3.75 18  L 0.75 18  C 0.3357864376269049 18  0 17.664213562373096  0 17.25  Z M 6 17.25  L 6 9.75  C 6 9.335786437626904  6.335786437626904 9  6.750000000000001 9  L 9.75 9  C 10.164213562373096 9  10.5 9.335786437626904  10.5 9.75  L 10.5 17.25  C 10.5 17.664213562373096  10.164213562373096 18  9.75 18  L 6.750000000000001 18  C 6.335786437626904 18  6 17.664213562373096  6 17.25  Z M 12 17.25  L 12 5.25  C 12 4.835786437626905  12.335786437626902 4.5  12.75 4.5  L 15.750000000000002 4.5  C 16.164213562373096 4.5  16.5 4.835786437626905  16.5 5.25  L 16.5 17.25  C 16.5 17.664213562373096  16.164213562373096 18  15.750000000000002 18  L 12.75 18  C 12.335786437626902 18  12 17.664213562373096  12 17.25  Z M 18 17.25  L 18 0.75  C 18 0.3357864376269051  18.335786437626904 0  18.75 0  L 21.75 0  C 22.164213562373096 0  22.5 0.3357864376269051  22.5 0.75  L 22.5 17.25  C 22.5 17.664213562373096  22.164213562373096 18  21.75 18  L 18.75 18  C 18.335786437626904 18  18 17.664213562373096  18 17.25  Z " fill-rule="evenodd" />
    </mask>
  </defs>
  <g>
    <path d="M 0 17.25  L 0 14.25  C 0 13.835786437626904  0.3357864376269049 13.5  0.75 13.5  L 3.75 13.5  C 4.164213562373095 13.5  4.5 13.835786437626904  4.5 14.25  L 4.5 17.25  C 4.5 17.664213562373096  4.164213562373095 18  3.75 18  L 0.75 18  C 0.3357864376269049 18  0 17.664213562373096  0 17.25  Z M 6 17.25  L 6 9.75  C 6 9.335786437626904  6.335786437626904 9  6.750000000000001 9  L 9.75 9  C 10.164213562373096 9  10.5 9.335786437626904  10.5 9.75  L 10.5 17.25  C 10.5 17.664213562373096  10.164213562373096 18  9.75 18  L 6.750000000000001 18  C 6.335786437626904 18  6 17.664213562373096  6 17.25  Z M 12 17.25  L 12 5.25  C 12 4.835786437626905  12.335786437626902 4.5  12.75 4.5  L 15.750000000000002 4.5  C 16.164213562373096 4.5  16.5 4.835786437626905  16.5 5.25  L 16.5 17.25  C 16.5 17.664213562373096  16.164213562373096 18  15.750000000000002 18  L 12.75 18  C 12.335786437626902 18  12 17.664213562373096  12 17.25  Z M 18 17.25  L 18 0.75  C 18 0.3357864376269051  18.335786437626904 0  18.75 0  L 21.75 0  C 22.164213562373096 0  22.5 0.3357864376269051  22.5 0.75  L 22.5 17.25  C 22.5 17.664213562373096  22.164213562373096 18  21.75 18  L 18.75 18  C 18.335786437626904 18  18 17.664213562373096  18 17.25  Z " fill-rule="nonzero" fill="rgba(0, 0, 0, 1)" stroke="none" class="fill" />
    <path d="M 0 17.25  L 0 14.25  C 0 13.835786437626904  0.3357864376269049 13.5  0.75 13.5  L 3.75 13.5  C 4.164213562373095 13.5  4.5 13.835786437626904  4.5 14.25  L 4.5 17.25  C 4.5 17.664213562373096  4.164213562373095 18  3.75 18  L 0.75 18  C 0.3357864376269049 18  0 17.664213562373096  0 17.25  Z " stroke-width="0" stroke-dasharray="0" stroke="rgba(255, 255, 255, 0)" fill="none" class="stroke" mask="url(#Clip6151)" />
    <path d="M 6 17.25  L 6 9.75  C 6 9.335786437626904  6.335786437626904 9  6.750000000000001 9  L 9.75 9  C 10.164213562373096 9  10.5 9.335786437626904  10.5 9.75  L 10.5 17.25  C 10.5 17.664213562373096  10.164213562373096 18  9.75 18  L 6.750000000000001 18  C 6.335786437626904 18  6 17.664213562373096  6 17.25  Z " stroke-width="0" stroke-dasharray="0" stroke="rgba(255, 255, 255, 0)" fill="none" class="stroke" mask="url(#Clip6151)" />
    <path d="M 12 17.25  L 12 5.25  C 12 4.835786437626905  12.335786437626902 4.5  12.75 4.5  L 15.750000000000002 4.5  C 16.164213562373096 4.5  16.5 4.835786437626905  16.5 5.25  L 16.5 17.25  C 16.5 17.664213562373096  16.164213562373096 18  15.750000000000002 18  L 12.75 18  C 12.335786437626902 18  12 17.664213562373096  12 17.25  Z " stroke-width="0" stroke-dasharray="0" stroke="rgba(255, 255, 255, 0)" fill="none" class="stroke" mask="url(#Clip6151)" />
    <path d="M 18 17.25  L 18 0.75  C 18 0.3357864376269051  18.335786437626904 0  18.75 0  L 21.75 0  C 22.164213562373096 0  22.5 0.3357864376269051  22.5 0.75  L 22.5 17.25  C 22.5 17.664213562373096  22.164213562373096 18  21.75 18  L 18.75 18  C 18.335786437626904 18  18 17.664213562373096  18 17.25  Z " stroke-width="0" stroke-dasharray="0" stroke="rgba(255, 255, 255, 0)" fill="none" class="stroke" mask="url(#Clip6151)" />
  </g>
</svg>