<?xml version="1.0" encoding="utf-8"?>
<svg version="1.1" xmlns:xlink="http://www.w3.org/1999/xlink" width="65px" height="56px" xmlns="http://www.w3.org/2000/svg">
  <defs>
    <pattern id="BGPattern" patternUnits="userSpaceOnUse" alignment="0 0" imageRepeat="None" />
    <mask fill="white" id="Clip1986">
      <path d="M 29 6  C 29 7.104569499661587  29.895430500338414 8  31 8  L 39 8  C 40.10456949966159 8  41 7.104569499661587  41 6  L 41 2  C 41 0.8954305003384135  40.10456949966159 0  39 0  L 31 0  C 29.895430500338414 0  29 0.8954305003384135  29 2  L 29 6  Z M 29 22  C 29 23.104569499661586  29.895430500338414 24  31 24  L 47 24  C 48.10456949966159 24  49 23.104569499661586  49 22  L 49 18  C 49 16.895430500338414  48.10456949966159 16  47 16  L 31 16  C 29.895430500338414 16  29 16.895430500338414  29 18  L 29 22  Z M 65 50  C 65 48.89543050033841  64.10456949966158 48  63 48  L 31 48  C 29.895430500338414 48  29 48.89543050033841  29 50  L 29 54  C 29 55.10456949966159  29.895430500338414 56  31 56  L 63 56  C 64.10456949966158 56  65 55.10456949966159  65 54  L 65 50  Z M 29 38  C 29 39.10456949966159  29.895430500338414 40  31 40  L 55 40  C 56.10456949966159 40  57 39.10456949966159  57 38  L 57 34  C 57 32.89543050033841  56.10456949966159 32  55 32  L 31 32  C 29.895430500338414 32  29 32.89543050033841  29 34  L 29 38  Z M 1.5862499999999997 12.58625  C 0.33125000000000004 13.842500000000001  1.2225 16  3 16  L 9 16  L 9 54  C 9 55.10456949966159  9.895430500338414 56  11 56  L 15 56  C 16.104569499661586 56  17 55.10456949966159  17 54  L 17 16  L 23 16  C 24.77625 16  25.67375 13.844999999999999  24.41375 12.58625  L 14.41375 0.5862499999999997  C 13.6328075814286 -0.19418070287234102  12.3671924185714 -0.19418070287234102  11.58625 0.5862499999999997  L 1.5862499999999997 12.58625  Z " fill-rule="evenodd" />
    </mask>
  </defs>
  <g>
    <path d="M 29 6  C 29 7.104569499661587  29.895430500338414 8  31 8  L 39 8  C 40.10456949966159 8  41 7.104569499661587  41 6  L 41 2  C 41 0.8954305003384135  40.10456949966159 0  39 0  L 31 0  C 29.895430500338414 0  29 0.8954305003384135  29 2  L 29 6  Z M 29 22  C 29 23.104569499661586  29.895430500338414 24  31 24  L 47 24  C 48.10456949966159 24  49 23.104569499661586  49 22  L 49 18  C 49 16.895430500338414  48.10456949966159 16  47 16  L 31 16  C 29.895430500338414 16  29 16.895430500338414  29 18  L 29 22  Z M 65 50  C 65 48.89543050033841  64.10456949966158 48  63 48  L 31 48  C 29.895430500338414 48  29 48.89543050033841  29 50  L 29 54  C 29 55.10456949966159  29.895430500338414 56  31 56  L 63 56  C 64.10456949966158 56  65 55.10456949966159  65 54  L 65 50  Z M 29 38  C 29 39.10456949966159  29.895430500338414 40  31 40  L 55 40  C 56.10456949966159 40  57 39.10456949966159  57 38  L 57 34  C 57 32.89543050033841  56.10456949966159 32  55 32  L 31 32  C 29.895430500338414 32  29 32.89543050033841  29 34  L 29 38  Z M 1.5862499999999997 12.58625  C 0.33125000000000004 13.842500000000001  1.2225 16  3 16  L 9 16  L 9 54  C 9 55.10456949966159  9.895430500338414 56  11 56  L 15 56  C 16.104569499661586 56  17 55.10456949966159  17 54  L 17 16  L 23 16  C 24.77625 16  25.67375 13.844999999999999  24.41375 12.58625  L 14.41375 0.5862499999999997  C 13.6328075814286 -0.19418070287234102  12.3671924185714 -0.19418070287234102  11.58625 0.5862499999999997  L 1.5862499999999997 12.58625  Z " fill-rule="nonzero" fill="rgba(0, 0, 0, 1)" stroke="none" class="fill" />
    <path d="M 29 6  C 29 7.104569499661587  29.895430500338414 8  31 8  L 39 8  C 40.10456949966159 8  41 7.104569499661587  41 6  L 41 2  C 41 0.8954305003384135  40.10456949966159 0  39 0  L 31 0  C 29.895430500338414 0  29 0.8954305003384135  29 2  L 29 6  Z " stroke-width="0" stroke-dasharray="0" stroke="rgba(255, 255, 255, 0)" fill="none" class="stroke" mask="url(#Clip1986)" />
    <path d="M 29 22  C 29 23.104569499661586  29.895430500338414 24  31 24  L 47 24  C 48.10456949966159 24  49 23.104569499661586  49 22  L 49 18  C 49 16.895430500338414  48.10456949966159 16  47 16  L 31 16  C 29.895430500338414 16  29 16.895430500338414  29 18  L 29 22  Z " stroke-width="0" stroke-dasharray="0" stroke="rgba(255, 255, 255, 0)" fill="none" class="stroke" mask="url(#Clip1986)" />
    <path d="M 65 50  C 65 48.89543050033841  64.10456949966158 48  63 48  L 31 48  C 29.895430500338414 48  29 48.89543050033841  29 50  L 29 54  C 29 55.10456949966159  29.895430500338414 56  31 56  L 63 56  C 64.10456949966158 56  65 55.10456949966159  65 54  L 65 50  Z " stroke-width="0" stroke-dasharray="0" stroke="rgba(255, 255, 255, 0)" fill="none" class="stroke" mask="url(#Clip1986)" />
    <path d="M 29 38  C 29 39.10456949966159  29.895430500338414 40  31 40  L 55 40  C 56.10456949966159 40  57 39.10456949966159  57 38  L 57 34  C 57 32.89543050033841  56.10456949966159 32  55 32  L 31 32  C 29.895430500338414 32  29 32.89543050033841  29 34  L 29 38  Z " stroke-width="0" stroke-dasharray="0" stroke="rgba(255, 255, 255, 0)" fill="none" class="stroke" mask="url(#Clip1986)" />
    <path d="M 1.5862499999999997 12.58625  C 0.33125000000000004 13.842500000000001  1.2225 16  3 16  L 9 16  L 9 54  C 9 55.10456949966159  9.895430500338414 56  11 56  L 15 56  C 16.104569499661586 56  17 55.10456949966159  17 54  L 17 16  L 23 16  C 24.77625 16  25.67375 13.844999999999999  24.41375 12.58625  L 14.41375 0.5862499999999997  C 13.6328075814286 -0.19418070287234102  12.3671924185714 -0.19418070287234102  11.58625 0.5862499999999997  L 1.5862499999999997 12.58625  Z " stroke-width="0" stroke-dasharray="0" stroke="rgba(255, 255, 255, 0)" fill="none" class="stroke" mask="url(#Clip1986)" />
  </g>
</svg>