<?xml version="1.0" encoding="utf-8"?>
<svg version="1.1" xmlns:xlink="http://www.w3.org/1999/xlink" width="12px" height="12px" xmlns="http://www.w3.org/2000/svg">
  <defs>
    <pattern id="BGPattern" patternUnits="userSpaceOnUse" alignment="0 0" imageRepeat="None" />
    <mask fill="white" id="Clip5428">
      <path d="M 6 11.25  C 3.1005050633883346 11.25  0.75 8.899494936611664  0.75 6  C 0.75 3.1005050633883346  3.1005050633883346 0.75  6 0.75  C 8.899494936611664 0.75  11.25 3.1005050633883346  11.25 6  C 11.25 8.899494936611664  8.899494936611664 11.25  6 11.25  Z M 9.749999999999996 5.999999999999998  C 9.749999999999996 3.9289321881345245  8.071067811865472 2.2499999999999982  5.999999999999998 2.2499999999999982  C 3.9289321881345245 2.2499999999999982  2.2499999999999982 3.9289321881345245  2.2499999999999982 5.999999999999998  C 2.2499999999999982 8.071067811865472  3.9289321881345245 9.749999999999996  5.999999999999998 9.749999999999996  C 8.071067811865472 9.749999999999996  9.749999999999996 8.071067811865472  9.749999999999996 5.999999999999998  Z " fill-rule="evenodd" />
    </mask>
  </defs>
  <g transform="matrix(1 0 0 1 -6 -3 )">
    <path d="M 6 11.25  C 3.1005050633883346 11.25  0.75 8.899494936611664  0.75 6  C 0.75 3.1005050633883346  3.1005050633883346 0.75  6 0.75  C 8.899494936611664 0.75  11.25 3.1005050633883346  11.25 6  C 11.25 8.899494936611664  8.899494936611664 11.25  6 11.25  Z M 9.749999999999996 5.999999999999998  C 9.749999999999996 3.9289321881345245  8.071067811865472 2.2499999999999982  5.999999999999998 2.2499999999999982  C 3.9289321881345245 2.2499999999999982  2.2499999999999982 3.9289321881345245  2.2499999999999982 5.999999999999998  C 2.2499999999999982 8.071067811865472  3.9289321881345245 9.749999999999996  5.999999999999998 9.749999999999996  C 8.071067811865472 9.749999999999996  9.749999999999996 8.071067811865472  9.749999999999996 5.999999999999998  Z " fill-rule="nonzero" fill="rgba(0, 0, 0, 1)" stroke="none" transform="matrix(1 0 0 1 6 3 )" class="fill" />
    <path d="M 6 11.25  C 3.1005050633883346 11.25  0.75 8.899494936611664  0.75 6  C 0.75 3.1005050633883346  3.1005050633883346 0.75  6 0.75  C 8.899494936611664 0.75  11.25 3.1005050633883346  11.25 6  C 11.25 8.899494936611664  8.899494936611664 11.25  6 11.25  Z " stroke-width="0" stroke-dasharray="0" stroke="rgba(255, 255, 255, 0)" fill="none" transform="matrix(1 0 0 1 6 3 )" class="stroke" mask="url(#Clip5428)" />
    <path d="M 9.749999999999996 5.999999999999998  C 9.749999999999996 3.9289321881345245  8.071067811865472 2.2499999999999982  5.999999999999998 2.2499999999999982  C 3.9289321881345245 2.2499999999999982  2.2499999999999982 3.9289321881345245  2.2499999999999982 5.999999999999998  C 2.2499999999999982 8.071067811865472  3.9289321881345245 9.749999999999996  5.999999999999998 9.749999999999996  C 8.071067811865472 9.749999999999996  9.749999999999996 8.071067811865472  9.749999999999996 5.999999999999998  Z " stroke-width="0" stroke-dasharray="0" stroke="rgba(255, 255, 255, 0)" fill="none" transform="matrix(1 0 0 1 6 3 )" class="stroke" mask="url(#Clip5428)" />
  </g>
</svg>