<?xml version="1.0" encoding="utf-8"?>
<svg version="1.1" xmlns:xlink="http://www.w3.org/1999/xlink" width="20px" height="21px" xmlns="http://www.w3.org/2000/svg">
  <defs>
    <pattern id="BGPattern" patternUnits="userSpaceOnUse" alignment="0 0" imageRepeat="None" />
    <mask fill="white" id="Clip4362">
      <path d="M 9 21  L 9 2  L 0 2  L 0 0  L 20 0  L 20 2  L 11 2  L 11 21  L 9 21  Z " fill-rule="evenodd" />
    </mask>
  </defs>
  <g transform="matrix(1 0 0 1 -2 -6 )">
    <path d="M 9 21  L 9 2  L 0 2  L 0 0  L 20 0  L 20 2  L 11 2  L 11 21  L 9 21  Z " fill-rule="nonzero" fill="rgba(0, 0, 0, 1)" stroke="none" transform="matrix(1 0 0 1 2 6 )" class="fill" />
    <path d="M 9 21  L 9 2  L 0 2  L 0 0  L 20 0  L 20 2  L 11 2  L 11 21  L 9 21  Z " stroke-width="0" stroke-dasharray="0" stroke="rgba(255, 255, 255, 0)" fill="none" transform="matrix(1 0 0 1 2 6 )" class="stroke" mask="url(#Clip4362)" />
  </g>
</svg>