<?xml version="1.0" encoding="utf-8"?>
<svg version="1.1" xmlns:xlink="http://www.w3.org/1999/xlink" width="50px" height="40px" xmlns="http://www.w3.org/2000/svg">
  <defs>
    <pattern id="BGPattern" patternUnits="userSpaceOnUse" alignment="0 0" imageRepeat="None" />
    <mask fill="white" id="Clip2123">
      <path d="M 49.7109375 30.328125  L 47.6953125 29.1640625  C 47.8984375 28.0625  47.8984375 26.9375  47.6953125 25.8359375  L 49.7109375 24.671875  C 49.9453125 24.5390625  50.046875 24.265625  49.96875 24.0078125  C 49.4453125 22.3203125  48.546875 20.7890625  47.375 19.5234375  C 47.1953125 19.328125  46.90625 19.28125  46.671875 19.4140625  L 44.65625 20.578125  C 43.8046875 19.8515625  42.828125 19.2890625  41.7734375 18.9140625  L 41.7734375 16.5859375  C 41.7734375 16.3203125  41.5859375 16.0859375  41.328125 16.03125  C 39.5859375 15.640625  37.8125 15.65625  36.15625 16.03125  C 35.8984375 16.0859375  35.7109375 16.3203125  35.7109375 16.5859375  L 35.7109375 18.9140625  C 34.65625 19.2890625  33.6796875 19.8515625  32.828125 20.578125  L 30.8125 19.4140625  C 30.5859375 19.28125  30.289062500000004 19.328125  30.109375 19.5234375  C 28.9375 20.7890625  28.0390625 22.3203125  27.515625 24.0078125  C 27.437499999999996 24.265625  27.546875 24.5390625  27.773437499999996 24.671875  L 29.789062500000004 25.8359375  C 29.585937499999996 26.9375  29.585937499999996 28.0625  29.789062500000004 29.1640625  L 27.773437499999996 30.328125  C 27.5390625 30.4609375  27.437499999999996 30.734375  27.515625 30.9921875  C 28.0390625 32.6796875  28.9375 34.203125  30.109375 35.4765625  C 30.289062500000004 35.671875  30.578125 35.71875  30.8125 35.5859375  L 32.828125 34.421875  C 33.6796875 35.1484375  34.65625 35.7109375  35.7109375 36.0859375  L 35.7109375 38.4140625  C 35.7109375 38.6796875  35.8984375 38.9140625  36.15625 38.96875  C 37.8984375 39.359375  39.671875 39.34375  41.328125 38.96875  C 41.5859375 38.9140625  41.7734375 38.6796875  41.7734375 38.4140625  L 41.7734375 36.0859375  C 42.828125 35.7109375  43.8046875 35.1484375  44.65625 34.421875  L 46.671875 35.5859375  C 46.8984375 35.71875  47.1953125 35.671875  47.375 35.4765625  C 48.546875 34.2109375  49.4453125 32.6796875  49.96875 30.9921875  C 50.046875 30.734375  49.9375 30.4609375  49.7109375 30.328125  Z M 42.5390625 27.5  C 42.5390625 29.5859375  40.84375 31.2890625  38.75 31.2890625  C 36.65625 31.2890625  34.9609375 29.5859375  34.9609375 27.5  C 34.9609375 25.4140625  36.6640625 23.7109375  38.75 23.7109375  C 40.8359375 23.7109375  42.5390625 25.4140625  42.5390625 27.5  Z M 7.5 10  C 7.5 15.5234375  11.9765625 20  17.5 20  C 23.0234375 20  27.500000000000004 15.5234375  27.500000000000004 10  C 27.500000000000004 4.4765625  23.0234375 0  17.5 0  C 11.9765625 0  7.5 4.4765625  7.5 10  Z M 33.21875 38.4140625  L 33.21875 37.6953125  C 33.0390625 37.6015625  32.859375 37.4921875  32.6875 37.390625  L 32.0703125 37.75  C 31.601562500000004 38.015625  31.070312500000004 38.1640625  30.539062500000004 38.1640625  C 29.6875 38.1640625  28.867187500000004 37.8046875  28.281250000000004 37.1796875  C 26.851562499999996 35.6328125  25.7578125 33.75  25.140625 31.7421875  C 24.7109375 30.359375  25.289062499999996 28.8984375  26.5390625 28.171875  L 27.15625 27.8125  C 27.1484375 27.609375  27.1484375 27.40625  27.15625 27.203125  L 26.5390625 26.84375  C 25.289062499999996 26.125  24.7109375 24.65625  25.140625 23.2734375  C 25.210937500000004 23.046875  25.3125 22.8203125  25.390625 22.59375  C 25.093749999999996 22.5703125  24.8046875 22.5  24.5 22.5  L 23.1953125 22.5  C 21.4609375 23.296875  19.53125 23.75  17.5 23.75  C 15.46875 23.75  13.546875 23.296875  11.8046875 22.5  L 10.5 22.5  C 4.703125 22.5  0 27.203125  0 33  L 0 36.25  C 0 38.3203125  1.6796875 40  3.75 40  L 31.25 40  C 32.0390625 40  32.7734375 39.75  33.375 39.3359375  C 33.28125 39.0390625  33.21875 38.734375  33.21875 38.4140625  Z " fill-rule="evenodd" />
    </mask>
  </defs>
  <g>
    <path d="M 49.7109375 30.328125  L 47.6953125 29.1640625  C 47.8984375 28.0625  47.8984375 26.9375  47.6953125 25.8359375  L 49.7109375 24.671875  C 49.9453125 24.5390625  50.046875 24.265625  49.96875 24.0078125  C 49.4453125 22.3203125  48.546875 20.7890625  47.375 19.5234375  C 47.1953125 19.328125  46.90625 19.28125  46.671875 19.4140625  L 44.65625 20.578125  C 43.8046875 19.8515625  42.828125 19.2890625  41.7734375 18.9140625  L 41.7734375 16.5859375  C 41.7734375 16.3203125  41.5859375 16.0859375  41.328125 16.03125  C 39.5859375 15.640625  37.8125 15.65625  36.15625 16.03125  C 35.8984375 16.0859375  35.7109375 16.3203125  35.7109375 16.5859375  L 35.7109375 18.9140625  C 34.65625 19.2890625  33.6796875 19.8515625  32.828125 20.578125  L 30.8125 19.4140625  C 30.5859375 19.28125  30.289062500000004 19.328125  30.109375 19.5234375  C 28.9375 20.7890625  28.0390625 22.3203125  27.515625 24.0078125  C 27.437499999999996 24.265625  27.546875 24.5390625  27.773437499999996 24.671875  L 29.789062500000004 25.8359375  C 29.585937499999996 26.9375  29.585937499999996 28.0625  29.789062500000004 29.1640625  L 27.773437499999996 30.328125  C 27.5390625 30.4609375  27.437499999999996 30.734375  27.515625 30.9921875  C 28.0390625 32.6796875  28.9375 34.203125  30.109375 35.4765625  C 30.289062500000004 35.671875  30.578125 35.71875  30.8125 35.5859375  L 32.828125 34.421875  C 33.6796875 35.1484375  34.65625 35.7109375  35.7109375 36.0859375  L 35.7109375 38.4140625  C 35.7109375 38.6796875  35.8984375 38.9140625  36.15625 38.96875  C 37.8984375 39.359375  39.671875 39.34375  41.328125 38.96875  C 41.5859375 38.9140625  41.7734375 38.6796875  41.7734375 38.4140625  L 41.7734375 36.0859375  C 42.828125 35.7109375  43.8046875 35.1484375  44.65625 34.421875  L 46.671875 35.5859375  C 46.8984375 35.71875  47.1953125 35.671875  47.375 35.4765625  C 48.546875 34.2109375  49.4453125 32.6796875  49.96875 30.9921875  C 50.046875 30.734375  49.9375 30.4609375  49.7109375 30.328125  Z M 42.5390625 27.5  C 42.5390625 29.5859375  40.84375 31.2890625  38.75 31.2890625  C 36.65625 31.2890625  34.9609375 29.5859375  34.9609375 27.5  C 34.9609375 25.4140625  36.6640625 23.7109375  38.75 23.7109375  C 40.8359375 23.7109375  42.5390625 25.4140625  42.5390625 27.5  Z M 7.5 10  C 7.5 15.5234375  11.9765625 20  17.5 20  C 23.0234375 20  27.500000000000004 15.5234375  27.500000000000004 10  C 27.500000000000004 4.4765625  23.0234375 0  17.5 0  C 11.9765625 0  7.5 4.4765625  7.5 10  Z M 33.21875 38.4140625  L 33.21875 37.6953125  C 33.0390625 37.6015625  32.859375 37.4921875  32.6875 37.390625  L 32.0703125 37.75  C 31.601562500000004 38.015625  31.070312500000004 38.1640625  30.539062500000004 38.1640625  C 29.6875 38.1640625  28.867187500000004 37.8046875  28.281250000000004 37.1796875  C 26.851562499999996 35.6328125  25.7578125 33.75  25.140625 31.7421875  C 24.7109375 30.359375  25.289062499999996 28.8984375  26.5390625 28.171875  L 27.15625 27.8125  C 27.1484375 27.609375  27.1484375 27.40625  27.15625 27.203125  L 26.5390625 26.84375  C 25.289062499999996 26.125  24.7109375 24.65625  25.140625 23.2734375  C 25.210937500000004 23.046875  25.3125 22.8203125  25.390625 22.59375  C 25.093749999999996 22.5703125  24.8046875 22.5  24.5 22.5  L 23.1953125 22.5  C 21.4609375 23.296875  19.53125 23.75  17.5 23.75  C 15.46875 23.75  13.546875 23.296875  11.8046875 22.5  L 10.5 22.5  C 4.703125 22.5  0 27.203125  0 33  L 0 36.25  C 0 38.3203125  1.6796875 40  3.75 40  L 31.25 40  C 32.0390625 40  32.7734375 39.75  33.375 39.3359375  C 33.28125 39.0390625  33.21875 38.734375  33.21875 38.4140625  Z " fill-rule="nonzero" fill="rgba(0, 0, 0, 1)" stroke="none" class="fill" />
    <path d="M 49.7109375 30.328125  L 47.6953125 29.1640625  C 47.8984375 28.0625  47.8984375 26.9375  47.6953125 25.8359375  L 49.7109375 24.671875  C 49.9453125 24.5390625  50.046875 24.265625  49.96875 24.0078125  C 49.4453125 22.3203125  48.546875 20.7890625  47.375 19.5234375  C 47.1953125 19.328125  46.90625 19.28125  46.671875 19.4140625  L 44.65625 20.578125  C 43.8046875 19.8515625  42.828125 19.2890625  41.7734375 18.9140625  L 41.7734375 16.5859375  C 41.7734375 16.3203125  41.5859375 16.0859375  41.328125 16.03125  C 39.5859375 15.640625  37.8125 15.65625  36.15625 16.03125  C 35.8984375 16.0859375  35.7109375 16.3203125  35.7109375 16.5859375  L 35.7109375 18.9140625  C 34.65625 19.2890625  33.6796875 19.8515625  32.828125 20.578125  L 30.8125 19.4140625  C 30.5859375 19.28125  30.289062500000004 19.328125  30.109375 19.5234375  C 28.9375 20.7890625  28.0390625 22.3203125  27.515625 24.0078125  C 27.437499999999996 24.265625  27.546875 24.5390625  27.773437499999996 24.671875  L 29.789062500000004 25.8359375  C 29.585937499999996 26.9375  29.585937499999996 28.0625  29.789062500000004 29.1640625  L 27.773437499999996 30.328125  C 27.5390625 30.4609375  27.437499999999996 30.734375  27.515625 30.9921875  C 28.0390625 32.6796875  28.9375 34.203125  30.109375 35.4765625  C 30.289062500000004 35.671875  30.578125 35.71875  30.8125 35.5859375  L 32.828125 34.421875  C 33.6796875 35.1484375  34.65625 35.7109375  35.7109375 36.0859375  L 35.7109375 38.4140625  C 35.7109375 38.6796875  35.8984375 38.9140625  36.15625 38.96875  C 37.8984375 39.359375  39.671875 39.34375  41.328125 38.96875  C 41.5859375 38.9140625  41.7734375 38.6796875  41.7734375 38.4140625  L 41.7734375 36.0859375  C 42.828125 35.7109375  43.8046875 35.1484375  44.65625 34.421875  L 46.671875 35.5859375  C 46.8984375 35.71875  47.1953125 35.671875  47.375 35.4765625  C 48.546875 34.2109375  49.4453125 32.6796875  49.96875 30.9921875  C 50.046875 30.734375  49.9375 30.4609375  49.7109375 30.328125  Z " stroke-width="0" stroke-dasharray="0" stroke="rgba(255, 255, 255, 0)" fill="none" class="stroke" mask="url(#Clip2123)" />
    <path d="M 42.5390625 27.5  C 42.5390625 29.5859375  40.84375 31.2890625  38.75 31.2890625  C 36.65625 31.2890625  34.9609375 29.5859375  34.9609375 27.5  C 34.9609375 25.4140625  36.6640625 23.7109375  38.75 23.7109375  C 40.8359375 23.7109375  42.5390625 25.4140625  42.5390625 27.5  Z " stroke-width="0" stroke-dasharray="0" stroke="rgba(255, 255, 255, 0)" fill="none" class="stroke" mask="url(#Clip2123)" />
    <path d="M 7.5 10  C 7.5 15.5234375  11.9765625 20  17.5 20  C 23.0234375 20  27.500000000000004 15.5234375  27.500000000000004 10  C 27.500000000000004 4.4765625  23.0234375 0  17.5 0  C 11.9765625 0  7.5 4.4765625  7.5 10  Z " stroke-width="0" stroke-dasharray="0" stroke="rgba(255, 255, 255, 0)" fill="none" class="stroke" mask="url(#Clip2123)" />
    <path d="M 33.21875 38.4140625  L 33.21875 37.6953125  C 33.0390625 37.6015625  32.859375 37.4921875  32.6875 37.390625  L 32.0703125 37.75  C 31.601562500000004 38.015625  31.070312500000004 38.1640625  30.539062500000004 38.1640625  C 29.6875 38.1640625  28.867187500000004 37.8046875  28.281250000000004 37.1796875  C 26.851562499999996 35.6328125  25.7578125 33.75  25.140625 31.7421875  C 24.7109375 30.359375  25.289062499999996 28.8984375  26.5390625 28.171875  L 27.15625 27.8125  C 27.1484375 27.609375  27.1484375 27.40625  27.15625 27.203125  L 26.5390625 26.84375  C 25.289062499999996 26.125  24.7109375 24.65625  25.140625 23.2734375  C 25.210937500000004 23.046875  25.3125 22.8203125  25.390625 22.59375  C 25.093749999999996 22.5703125  24.8046875 22.5  24.5 22.5  L 23.1953125 22.5  C 21.4609375 23.296875  19.53125 23.75  17.5 23.75  C 15.46875 23.75  13.546875 23.296875  11.8046875 22.5  L 10.5 22.5  C 4.703125 22.5  0 27.203125  0 33  L 0 36.25  C 0 38.3203125  1.6796875 40  3.75 40  L 31.25 40  C 32.0390625 40  32.7734375 39.75  33.375 39.3359375  C 33.28125 39.0390625  33.21875 38.734375  33.21875 38.4140625  Z " stroke-width="0" stroke-dasharray="0" stroke="rgba(255, 255, 255, 0)" fill="none" class="stroke" mask="url(#Clip2123)" />
  </g>
</svg>