<?xml version="1.0" encoding="utf-8"?>
<svg version="1.1" xmlns:xlink="http://www.w3.org/1999/xlink" width="48px" height="34px" xmlns="http://www.w3.org/2000/svg">
  <defs>
    <pattern id="BGPattern" patternUnits="userSpaceOnUse" alignment="0 0" imageRepeat="None" />
    <mask fill="white" id="Clip7056">
      <path d="M 42.42 14.734000000000005  C 42.38802786007128 6.687104487245422  35.846941886761 0.18539030365137465  27.800000000000004 0.2020000000000004  C 22.506290008063523 0.2229212535900582  17.642007566271893 3.11850985673531  15.100000000000001 7.7620000000000005  C 14.015987163173854 7.081616199284332  12.76757505368506 6.708336830998647  11.487999999999998 6.682  C 7.526313464923818 6.678097719929907  4.307275027373578 9.878358433261106  4.287999999999999 13.840000000000003  C 4.310596684684838 14.355111881125811  4.389738474552911 14.866180049595908  4.523999999999998 15.363999999999997  C 1.718573572548809 17.207258523268575  0.020704924716911148 20.331276786874394  0 23.688  C 0.02350190371034635 29.22496684922626  4.479479472286009 33.721873924222535  10.016 33.79600000000001  L 38.032 33.79600000000001  C 38.07956678563712 33.796690988406425  38.12713796254698 33.79703649627824  38.17470976680987 33.79703649627824  C 43.60090743389741 33.79703649627824  47.999709766809865 29.39823416336579  47.999709766809865 23.972036496278243  C 47.999709766809865 20.182929691514016  45.82081584188854 16.731524272232527  42.4 15.102  C 42.406 14.978000000000002  42.42 14.872  42.42 14.734000000000005  Z M 16.132 9.22  C 18.285288065031278 4.733364577509018  22.823404079988936 1.881679059710808  27.799999999999997 1.888  C 27.820014699785908 1.8879066936456805  27.84002958987808 1.8878600402784071  27.86004450715484 1.8878600402784071  C 34.96025249836447 1.8878600402784071  40.72133436890005 7.633816543732646  40.74 14.734000000000002  C 40.74 14.964000000000002  40.716 15.218  40.699999999999996 15.508000000000003  C 40.678918527907726 15.866677465847378  40.887759053185356 16.199215840712522  41.220000000000006 16.336000000000002  C 44.30225097122689 17.594133627797248  46.31673799851723 20.592268022419823  46.31673799851723 23.92140774238102  C 46.31673799851723 28.44627669774471  42.64860695388092 32.11440774238102  38.123737998517235 32.11440774238102  C 38.09649149051749 32.11440774238102  38.069245152018304 32.11427182656297  38.04200000000001 32  L 10.042000000000009 32  C 5.41897119269382 32.08436220381559  1.6869081881468375 28.328296607218043  1.6869081881468375 23.705172798347515  C 1.6869081881468375 20.7188577074846  3.270736990759301 17.956573234256517  5.848 16.447999999999997  C 6.185768449059397 16.248369182695384  6.340888119507321 15.841905875104562  6.2219999999999995 15.468  C 6.055909173244128 14.941309736543953  5.971595294655035 14.392257759171777  5.9719999999999995 13.84  C 5.995691835984762 10.811074572787565  8.457813216767304 8.368136248077347  11.48683129969556 8.368136248077347  C 12.707722894401808 8.368136248077347  13.894104012359783 8.773259598598752  14.859999999999996 9.52  C 15.007314825014722 9.633576042086258  15.188092948394875 9.695173082917767  15.374106859178715 9.695173082917767  C 15.69694161341846 9.695173082917767  15.991353351989588 9.510586990329008  16.132 9.22  Z M 17.136 15.639999999999997  L 17.14 15.644000000000002  C 14.024698693920794 15.55754515241141  11.42440739850694 18.003248683527463  11.32 21.118  C 11.424942137735526 24.232205023744804  14.025242762563796 26.677023755542102  17.14 26.590000000000003  C 19.098177601986784 26.532086007626212  20.928466192379826 25.60374251586436  22.132 24.058  C 22.29158892921818 23.89971296286706  22.38135531132573 23.68424679078259  22.38135531132573 23.45947265425143  C 22.38135531132573 22.99389661014407  22.003931355433092 22.61647265425143  21.53835531132573 22.61647265425143  C 21.296358282713566 22.61647265425143  21.06603170327566 22.720471997191048  20.906 22.901999999999997  C 20.048564707843738 24.139135947323553  18.64512223099171 24.8844585585036  17.14 24.902  C 17.08007018989666 24.904722707772798  17.020086293239245 24.906084587900295  16.960094666518188 24.906084587900295  C 14.839248054989927 24.906084587900295  13.094119476707178 23.236757153081793  13 21.118  C 13.091108067517599 18.996858534816415  14.837251229196825 17.3241063788552  16.960348446774947 17.3241063788552  C 17.018920539965347 17.3241063788552  17.07748543898431 17.32540457135607  17.136 17.327999999999996  C 18.400473864869024 17.450233193096988  19.587593471281835 17.99239339294151  20.508 18.868000000000002  C 21.281915863332678 19.51924215168517  22.016538185982306 20.21579768125204  22.708 20.953999999999997  C 22.749535574846487 21.045486026956695  22.807109974050373 21.12879956933408  22.878 21.199999999999996  C 23.99088142762755 22.426559414336293  25.175634320308866 23.585934285641123  26.426000000000002 24.671999999999997  C 27.637811151230267 25.80472357836499  29.20470699541204 26.48251027866735  30.86 26.589999999999993  C 33.97475723743621 26.677023755542102  36.57505786226447 24.232205023744797  36.68000000000001 21.118  C 36.57559260149307 18.003248683527456  33.97530130607922 15.557545152411404  30.86 15.643999999999995  C 28.901822398013216 15.701913992373786  27.071533807620185 16.63025748413564  25.86800000000001 18.175999999999995  C 25.73225391004494 18.329980218258545  25.6573553113258 18.528199888027874  25.6573553113258 18.733472654251354  C 25.6573553113258 19.199048698358713  26.03477926721844 19.576472654251354  26.500355311325805 19.576472654251354  C 26.722736663990858 19.576472654251354  26.93610993979287 19.48860202712905  27.094 19.331999999999994  C 27.951435292156262 18.094864052676446  29.354877769008297 17.34954144149639  30.860000000000007 17.331999999999994  C 30.919900479519278 17.329279961116615  30.979854966071745 17.327919416465267  31.039817171319434 17.327919416465267  C 33.16143703722664 17.327919416465267  34.90691450831491 18.99842316802389  35 21.118  C 34.90588052329282 23.23675715308179  33.16075194501007 24.906084587900295  31.039905333481816 24.906084587900295  C 30.979913706760655 24.906084587900295  30.91992981010344 24.9047227077728  30.86 24.901999999999997  C 29.595526135130974 24.779766806903005  28.40840652871816 24.237606607058485  27.488 23.362000000000005  C 26.71456104020625 22.709514509791962  25.97997179798851 22.01232253808713  25.287999999999997 21.273999999999997  C 25.24605471976652 21.183935389789557  25.188500449730967 21.102005193621295  25.117999999999995 21.032  C 24.005221023850964 19.8034580599029  22.820469092177284 18.64208060264217  21.57 17.554  C 20.357343147978412 16.42315577763221  18.790666890598477 15.7468773931881  17.136 15.639999999999997  Z " fill-rule="evenodd" />
    </mask>
  </defs>
  <g>
    <path d="M 42.42 14.734000000000005  C 42.38802786007128 6.687104487245422  35.846941886761 0.18539030365137465  27.800000000000004 0.2020000000000004  C 22.506290008063523 0.2229212535900582  17.642007566271893 3.11850985673531  15.100000000000001 7.7620000000000005  C 14.015987163173854 7.081616199284332  12.76757505368506 6.708336830998647  11.487999999999998 6.682  C 7.526313464923818 6.678097719929907  4.307275027373578 9.878358433261106  4.287999999999999 13.840000000000003  C 4.310596684684838 14.355111881125811  4.389738474552911 14.866180049595908  4.523999999999998 15.363999999999997  C 1.718573572548809 17.207258523268575  0.020704924716911148 20.331276786874394  0 23.688  C 0.02350190371034635 29.22496684922626  4.479479472286009 33.721873924222535  10.016 33.79600000000001  L 38.032 33.79600000000001  C 38.07956678563712 33.796690988406425  38.12713796254698 33.79703649627824  38.17470976680987 33.79703649627824  C 43.60090743389741 33.79703649627824  47.999709766809865 29.39823416336579  47.999709766809865 23.972036496278243  C 47.999709766809865 20.182929691514016  45.82081584188854 16.731524272232527  42.4 15.102  C 42.406 14.978000000000002  42.42 14.872  42.42 14.734000000000005  Z M 16.132 9.22  C 18.285288065031278 4.733364577509018  22.823404079988936 1.881679059710808  27.799999999999997 1.888  C 27.820014699785908 1.8879066936456805  27.84002958987808 1.8878600402784071  27.86004450715484 1.8878600402784071  C 34.96025249836447 1.8878600402784071  40.72133436890005 7.633816543732646  40.74 14.734000000000002  C 40.74 14.964000000000002  40.716 15.218  40.699999999999996 15.508000000000003  C 40.678918527907726 15.866677465847378  40.887759053185356 16.199215840712522  41.220000000000006 16.336000000000002  C 44.30225097122689 17.594133627797248  46.31673799851723 20.592268022419823  46.31673799851723 23.92140774238102  C 46.31673799851723 28.44627669774471  42.64860695388092 32.11440774238102  38.123737998517235 32.11440774238102  C 38.09649149051749 32.11440774238102  38.069245152018304 32.11427182656297  38.04200000000001 32  L 10.042000000000009 32  C 5.41897119269382 32.08436220381559  1.6869081881468375 28.328296607218043  1.6869081881468375 23.705172798347515  C 1.6869081881468375 20.7188577074846  3.270736990759301 17.956573234256517  5.848 16.447999999999997  C 6.185768449059397 16.248369182695384  6.340888119507321 15.841905875104562  6.2219999999999995 15.468  C 6.055909173244128 14.941309736543953  5.971595294655035 14.392257759171777  5.9719999999999995 13.84  C 5.995691835984762 10.811074572787565  8.457813216767304 8.368136248077347  11.48683129969556 8.368136248077347  C 12.707722894401808 8.368136248077347  13.894104012359783 8.773259598598752  14.859999999999996 9.52  C 15.007314825014722 9.633576042086258  15.188092948394875 9.695173082917767  15.374106859178715 9.695173082917767  C 15.69694161341846 9.695173082917767  15.991353351989588 9.510586990329008  16.132 9.22  Z M 17.136 15.639999999999997  L 17.14 15.644000000000002  C 14.024698693920794 15.55754515241141  11.42440739850694 18.003248683527463  11.32 21.118  C 11.424942137735526 24.232205023744804  14.025242762563796 26.677023755542102  17.14 26.590000000000003  C 19.098177601986784 26.532086007626212  20.928466192379826 25.60374251586436  22.132 24.058  C 22.29158892921818 23.89971296286706  22.38135531132573 23.68424679078259  22.38135531132573 23.45947265425143  C 22.38135531132573 22.99389661014407  22.003931355433092 22.61647265425143  21.53835531132573 22.61647265425143  C 21.296358282713566 22.61647265425143  21.06603170327566 22.720471997191048  20.906 22.901999999999997  C 20.048564707843738 24.139135947323553  18.64512223099171 24.8844585585036  17.14 24.902  C 17.08007018989666 24.904722707772798  17.020086293239245 24.906084587900295  16.960094666518188 24.906084587900295  C 14.839248054989927 24.906084587900295  13.094119476707178 23.236757153081793  13 21.118  C 13.091108067517599 18.996858534816415  14.837251229196825 17.3241063788552  16.960348446774947 17.3241063788552  C 17.018920539965347 17.3241063788552  17.07748543898431 17.32540457135607  17.136 17.327999999999996  C 18.400473864869024 17.450233193096988  19.587593471281835 17.99239339294151  20.508 18.868000000000002  C 21.281915863332678 19.51924215168517  22.016538185982306 20.21579768125204  22.708 20.953999999999997  C 22.749535574846487 21.045486026956695  22.807109974050373 21.12879956933408  22.878 21.199999999999996  C 23.99088142762755 22.426559414336293  25.175634320308866 23.585934285641123  26.426000000000002 24.671999999999997  C 27.637811151230267 25.80472357836499  29.20470699541204 26.48251027866735  30.86 26.589999999999993  C 33.97475723743621 26.677023755542102  36.57505786226447 24.232205023744797  36.68000000000001 21.118  C 36.57559260149307 18.003248683527456  33.97530130607922 15.557545152411404  30.86 15.643999999999995  C 28.901822398013216 15.701913992373786  27.071533807620185 16.63025748413564  25.86800000000001 18.175999999999995  C 25.73225391004494 18.329980218258545  25.6573553113258 18.528199888027874  25.6573553113258 18.733472654251354  C 25.6573553113258 19.199048698358713  26.03477926721844 19.576472654251354  26.500355311325805 19.576472654251354  C 26.722736663990858 19.576472654251354  26.93610993979287 19.48860202712905  27.094 19.331999999999994  C 27.951435292156262 18.094864052676446  29.354877769008297 17.34954144149639  30.860000000000007 17.331999999999994  C 30.919900479519278 17.329279961116615  30.979854966071745 17.327919416465267  31.039817171319434 17.327919416465267  C 33.16143703722664 17.327919416465267  34.90691450831491 18.99842316802389  35 21.118  C 34.90588052329282 23.23675715308179  33.16075194501007 24.906084587900295  31.039905333481816 24.906084587900295  C 30.979913706760655 24.906084587900295  30.91992981010344 24.9047227077728  30.86 24.901999999999997  C 29.595526135130974 24.779766806903005  28.40840652871816 24.237606607058485  27.488 23.362000000000005  C 26.71456104020625 22.709514509791962  25.97997179798851 22.01232253808713  25.287999999999997 21.273999999999997  C 25.24605471976652 21.183935389789557  25.188500449730967 21.102005193621295  25.117999999999995 21.032  C 24.005221023850964 19.8034580599029  22.820469092177284 18.64208060264217  21.57 17.554  C 20.357343147978412 16.42315577763221  18.790666890598477 15.7468773931881  17.136 15.639999999999997  Z " fill-rule="nonzero" fill="rgba(0, 132, 255, 1)" stroke="none" class="fill" />
    <path d="M 42.42 14.734000000000005  C 42.38802786007128 6.687104487245422  35.846941886761 0.18539030365137465  27.800000000000004 0.2020000000000004  C 22.506290008063523 0.2229212535900582  17.642007566271893 3.11850985673531  15.100000000000001 7.7620000000000005  C 14.015987163173854 7.081616199284332  12.76757505368506 6.708336830998647  11.487999999999998 6.682  C 7.526313464923818 6.678097719929907  4.307275027373578 9.878358433261106  4.287999999999999 13.840000000000003  C 4.310596684684838 14.355111881125811  4.389738474552911 14.866180049595908  4.523999999999998 15.363999999999997  C 1.718573572548809 17.207258523268575  0.020704924716911148 20.331276786874394  0 23.688  C 0.02350190371034635 29.22496684922626  4.479479472286009 33.721873924222535  10.016 33.79600000000001  L 38.032 33.79600000000001  C 38.07956678563712 33.796690988406425  38.12713796254698 33.79703649627824  38.17470976680987 33.79703649627824  C 43.60090743389741 33.79703649627824  47.999709766809865 29.39823416336579  47.999709766809865 23.972036496278243  C 47.999709766809865 20.182929691514016  45.82081584188854 16.731524272232527  42.4 15.102  C 42.406 14.978000000000002  42.42 14.872  42.42 14.734000000000005  Z " stroke-width="0" stroke-dasharray="0" stroke="rgba(255, 255, 255, 0)" fill="none" class="stroke" mask="url(#Clip7056)" />
    <path d="M 16.132 9.22  C 18.285288065031278 4.733364577509018  22.823404079988936 1.881679059710808  27.799999999999997 1.888  C 27.820014699785908 1.8879066936456805  27.84002958987808 1.8878600402784071  27.86004450715484 1.8878600402784071  C 34.96025249836447 1.8878600402784071  40.72133436890005 7.633816543732646  40.74 14.734000000000002  C 40.74 14.964000000000002  40.716 15.218  40.699999999999996 15.508000000000003  C 40.678918527907726 15.866677465847378  40.887759053185356 16.199215840712522  41.220000000000006 16.336000000000002  C 44.30225097122689 17.594133627797248  46.31673799851723 20.592268022419823  46.31673799851723 23.92140774238102  C 46.31673799851723 28.44627669774471  42.64860695388092 32.11440774238102  38.123737998517235 32.11440774238102  C 38.09649149051749 32.11440774238102  38.069245152018304 32.11427182656297  38.04200000000001 32  L 10.042000000000009 32  C 5.41897119269382 32.08436220381559  1.6869081881468375 28.328296607218043  1.6869081881468375 23.705172798347515  C 1.6869081881468375 20.7188577074846  3.270736990759301 17.956573234256517  5.848 16.447999999999997  C 6.185768449059397 16.248369182695384  6.340888119507321 15.841905875104562  6.2219999999999995 15.468  C 6.055909173244128 14.941309736543953  5.971595294655035 14.392257759171777  5.9719999999999995 13.84  C 5.995691835984762 10.811074572787565  8.457813216767304 8.368136248077347  11.48683129969556 8.368136248077347  C 12.707722894401808 8.368136248077347  13.894104012359783 8.773259598598752  14.859999999999996 9.52  C 15.007314825014722 9.633576042086258  15.188092948394875 9.695173082917767  15.374106859178715 9.695173082917767  C 15.69694161341846 9.695173082917767  15.991353351989588 9.510586990329008  16.132 9.22  Z " stroke-width="0" stroke-dasharray="0" stroke="rgba(255, 255, 255, 0)" fill="none" class="stroke" mask="url(#Clip7056)" />
    <path d="M 17.136 15.639999999999997  L 17.14 15.644000000000002  C 14.024698693920794 15.55754515241141  11.42440739850694 18.003248683527463  11.32 21.118  C 11.424942137735526 24.232205023744804  14.025242762563796 26.677023755542102  17.14 26.590000000000003  C 19.098177601986784 26.532086007626212  20.928466192379826 25.60374251586436  22.132 24.058  C 22.29158892921818 23.89971296286706  22.38135531132573 23.68424679078259  22.38135531132573 23.45947265425143  C 22.38135531132573 22.99389661014407  22.003931355433092 22.61647265425143  21.53835531132573 22.61647265425143  C 21.296358282713566 22.61647265425143  21.06603170327566 22.720471997191048  20.906 22.901999999999997  C 20.048564707843738 24.139135947323553  18.64512223099171 24.8844585585036  17.14 24.902  C 17.08007018989666 24.904722707772798  17.020086293239245 24.906084587900295  16.960094666518188 24.906084587900295  C 14.839248054989927 24.906084587900295  13.094119476707178 23.236757153081793  13 21.118  C 13.091108067517599 18.996858534816415  14.837251229196825 17.3241063788552  16.960348446774947 17.3241063788552  C 17.018920539965347 17.3241063788552  17.07748543898431 17.32540457135607  17.136 17.327999999999996  C 18.400473864869024 17.450233193096988  19.587593471281835 17.99239339294151  20.508 18.868000000000002  C 21.281915863332678 19.51924215168517  22.016538185982306 20.21579768125204  22.708 20.953999999999997  C 22.749535574846487 21.045486026956695  22.807109974050373 21.12879956933408  22.878 21.199999999999996  C 23.99088142762755 22.426559414336293  25.175634320308866 23.585934285641123  26.426000000000002 24.671999999999997  C 27.637811151230267 25.80472357836499  29.20470699541204 26.48251027866735  30.86 26.589999999999993  C 33.97475723743621 26.677023755542102  36.57505786226447 24.232205023744797  36.68000000000001 21.118  C 36.57559260149307 18.003248683527456  33.97530130607922 15.557545152411404  30.86 15.643999999999995  C 28.901822398013216 15.701913992373786  27.071533807620185 16.63025748413564  25.86800000000001 18.175999999999995  C 25.73225391004494 18.329980218258545  25.6573553113258 18.528199888027874  25.6573553113258 18.733472654251354  C 25.6573553113258 19.199048698358713  26.03477926721844 19.576472654251354  26.500355311325805 19.576472654251354  C 26.722736663990858 19.576472654251354  26.93610993979287 19.48860202712905  27.094 19.331999999999994  C 27.951435292156262 18.094864052676446  29.354877769008297 17.34954144149639  30.860000000000007 17.331999999999994  C 30.919900479519278 17.329279961116615  30.979854966071745 17.327919416465267  31.039817171319434 17.327919416465267  C 33.16143703722664 17.327919416465267  34.90691450831491 18.99842316802389  35 21.118  C 34.90588052329282 23.23675715308179  33.16075194501007 24.906084587900295  31.039905333481816 24.906084587900295  C 30.979913706760655 24.906084587900295  30.91992981010344 24.9047227077728  30.86 24.901999999999997  C 29.595526135130974 24.779766806903005  28.40840652871816 24.237606607058485  27.488 23.362000000000005  C 26.71456104020625 22.709514509791962  25.97997179798851 22.01232253808713  25.287999999999997 21.273999999999997  C 25.24605471976652 21.183935389789557  25.188500449730967 21.102005193621295  25.117999999999995 21.032  C 24.005221023850964 19.8034580599029  22.820469092177284 18.64208060264217  21.57 17.554  C 20.357343147978412 16.42315577763221  18.790666890598477 15.7468773931881  17.136 15.639999999999997  Z " stroke-width="0" stroke-dasharray="0" stroke="rgba(255, 255, 255, 0)" fill="none" class="stroke" mask="url(#Clip7056)" />
  </g>
</svg>