<?xml version="1.0" encoding="utf-8"?>
<svg version="1.1" xmlns:xlink="http://www.w3.org/1999/xlink" width="24px" height="26px" xmlns="http://www.w3.org/2000/svg">
  <defs>
    <pattern id="BGPattern" patternUnits="userSpaceOnUse" alignment="0 0" imageRepeat="None" />
    <mask fill="white" id="Clip612">
      <path d="M 19.200000000000003 8.2  C 19.200000000000003 11.047999999999998  17.696 14.119999999999997  15.472000000000001 15.783999999999999  C 19.952 16.776  23.200000000000003 19.607999999999997  23.200000000000003 22.584  C 23.200000000000003 24.36  21.76 25.8  19.984 25.8  L 4.016000000000002 25.8  C 2.240000000000002 25.8  0.8000000000000016 24.36  0.8000000000000016 22.584  C 0.8000000000000016 19.608  4.048000000000002 16.776  8.528000000000002 15.783999999999999  C 6.304000000000002 14.119999999999997  4.8000000000000025 11.047999999999998  4.8000000000000025 8.2  C 4.8000000000000025 3.559999999999999  7.520000000000003 0.1999999999999993  12.000000000000004 0.1999999999999993  C 16.480000000000004 0.1999999999999993  19.200000000000003 3.5599999999999987  19.200000000000003 8.2  Z " fill-rule="evenodd" />
    </mask>
  </defs>
  <g>
    <path d="M 19.200000000000003 8.2  C 19.200000000000003 11.047999999999998  17.696 14.119999999999997  15.472000000000001 15.783999999999999  C 19.952 16.776  23.200000000000003 19.607999999999997  23.200000000000003 22.584  C 23.200000000000003 24.36  21.76 25.8  19.984 25.8  L 4.016000000000002 25.8  C 2.240000000000002 25.8  0.8000000000000016 24.36  0.8000000000000016 22.584  C 0.8000000000000016 19.608  4.048000000000002 16.776  8.528000000000002 15.783999999999999  C 6.304000000000002 14.119999999999997  4.8000000000000025 11.047999999999998  4.8000000000000025 8.2  C 4.8000000000000025 3.559999999999999  7.520000000000003 0.1999999999999993  12.000000000000004 0.1999999999999993  C 16.480000000000004 0.1999999999999993  19.200000000000003 3.5599999999999987  19.200000000000003 8.2  Z " fill-rule="nonzero" fill="rgba(0, 0, 0, 1)" stroke="none" class="fill" />
    <path d="M 19.200000000000003 8.2  C 19.200000000000003 11.047999999999998  17.696 14.119999999999997  15.472000000000001 15.783999999999999  C 19.952 16.776  23.200000000000003 19.607999999999997  23.200000000000003 22.584  C 23.200000000000003 24.36  21.76 25.8  19.984 25.8  L 4.016000000000002 25.8  C 2.240000000000002 25.8  0.8000000000000016 24.36  0.8000000000000016 22.584  C 0.8000000000000016 19.608  4.048000000000002 16.776  8.528000000000002 15.783999999999999  C 6.304000000000002 14.119999999999997  4.8000000000000025 11.047999999999998  4.8000000000000025 8.2  C 4.8000000000000025 3.559999999999999  7.520000000000003 0.1999999999999993  12.000000000000004 0.1999999999999993  C 16.480000000000004 0.1999999999999993  19.200000000000003 3.5599999999999987  19.200000000000003 8.2  Z " stroke-width="0" stroke-dasharray="0" stroke="rgba(255, 255, 255, 0)" fill="none" class="stroke" mask="url(#Clip612)" />
  </g>
</svg>