<?xml version="1.0" encoding="utf-8"?>
<svg version="1.1" xmlns:xlink="http://www.w3.org/1999/xlink" width="32px" height="48px" xmlns="http://www.w3.org/2000/svg">
  <defs>
    <pattern id="BGPattern" patternUnits="userSpaceOnUse" alignment="0 0" imageRepeat="None" />
    <mask fill="white" id="Clip6907">
      <path d="M 16 16  L 0 0  L 32 0  L 32 16  L 16 16  Z M 0 32  L 0 16  L 16 16  L 32 32  L 0 32  Z M 16 48  L 0 32  L 16 32  L 16 48  Z " fill-rule="evenodd" />
    </mask>
  </defs>
  <g>
    <path d="M 16 16  L 0 0  L 32 0  L 32 16  L 16 16  Z M 0 32  L 0 16  L 16 16  L 32 32  L 0 32  Z M 16 48  L 0 32  L 16 32  L 16 48  Z " fill-rule="nonzero" fill="rgba(0, 85, 255, 1)" stroke="none" class="fill" />
    <path d="M 16 16  L 0 0  L 32 0  L 32 16  L 16 16  Z " stroke-width="0" stroke-dasharray="0" stroke="rgba(255, 255, 255, 0)" fill="none" class="stroke" mask="url(#Clip6907)" />
    <path d="M 0 32  L 0 16  L 16 16  L 32 32  L 0 32  Z " stroke-width="0" stroke-dasharray="0" stroke="rgba(255, 255, 255, 0)" fill="none" class="stroke" mask="url(#Clip6907)" />
    <path d="M 16 48  L 0 32  L 16 32  L 16 48  Z " stroke-width="0" stroke-dasharray="0" stroke="rgba(255, 255, 255, 0)" fill="none" class="stroke" mask="url(#Clip6907)" />
  </g>
</svg>