<?xml version="1.0" encoding="utf-8"?>
<svg version="1.1" xmlns:xlink="http://www.w3.org/1999/xlink" width="16px" height="50px" xmlns="http://www.w3.org/2000/svg">
  <defs>
    <pattern id="BGPattern" patternUnits="userSpaceOnUse" alignment="0 0" imageRepeat="None" />
    <mask fill="white" id="Clip1516">
      <path d="M 7.8125 34.375  C 12.120312500000011 34.375  15.625 37.87968749999999  15.625 42.1875  C 15.625 46.49531250000001  12.120312500000011 50  7.8125 50  C 3.5046874999999886 50  0 46.49531250000001  0 42.1875  C 0 37.87968749999999  3.5046874999999886 34.375  7.8125 34.375  Z M 3.2451171875 0  C 1.9046874999999943 0  0.83740234375 1.1220703125  0.904296875 2.4608398437500227  L 2.232421875 29.023339843750023  C 2.2948242187499943 30.270703125000008  3.3243164062500057 31.25  4.5732421875 31.25  L 11.0517578125 31.25  C 12.300683593749994 31.25  13.330175781250006 30.270703125000008  13.392578125 29.023339843750023  L 14.720703125 2.4608398437500227  C 14.78759765625 1.1220703125  13.720312500000006 0  12.3798828125 0  L 3.2451171875 0  Z " fill-rule="evenodd" />
    </mask>
  </defs>
  <g>
    <path d="M 7.8125 34.375  C 12.120312500000011 34.375  15.625 37.87968749999999  15.625 42.1875  C 15.625 46.49531250000001  12.120312500000011 50  7.8125 50  C 3.5046874999999886 50  0 46.49531250000001  0 42.1875  C 0 37.87968749999999  3.5046874999999886 34.375  7.8125 34.375  Z M 3.2451171875 0  C 1.9046874999999943 0  0.83740234375 1.1220703125  0.904296875 2.4608398437500227  L 2.232421875 29.023339843750023  C 2.2948242187499943 30.270703125000008  3.3243164062500057 31.25  4.5732421875 31.25  L 11.0517578125 31.25  C 12.300683593749994 31.25  13.330175781250006 30.270703125000008  13.392578125 29.023339843750023  L 14.720703125 2.4608398437500227  C 14.78759765625 1.1220703125  13.720312500000006 0  12.3798828125 0  L 3.2451171875 0  Z " fill-rule="nonzero" fill="rgba(0, 0, 0, 1)" stroke="none" class="fill" />
    <path d="M 7.8125 34.375  C 12.120312500000011 34.375  15.625 37.87968749999999  15.625 42.1875  C 15.625 46.49531250000001  12.120312500000011 50  7.8125 50  C 3.5046874999999886 50  0 46.49531250000001  0 42.1875  C 0 37.87968749999999  3.5046874999999886 34.375  7.8125 34.375  Z " stroke-width="0" stroke-dasharray="0" stroke="rgba(255, 255, 255, 0)" fill="none" class="stroke" mask="url(#Clip1516)" />
    <path d="M 3.2451171875 0  C 1.9046874999999943 0  0.83740234375 1.1220703125  0.904296875 2.4608398437500227  L 2.232421875 29.023339843750023  C 2.2948242187499943 30.270703125000008  3.3243164062500057 31.25  4.5732421875 31.25  L 11.0517578125 31.25  C 12.300683593749994 31.25  13.330175781250006 30.270703125000008  13.392578125 29.023339843750023  L 14.720703125 2.4608398437500227  C 14.78759765625 1.1220703125  13.720312500000006 0  12.3798828125 0  L 3.2451171875 0  Z " stroke-width="0" stroke-dasharray="0" stroke="rgba(255, 255, 255, 0)" fill="none" class="stroke" mask="url(#Clip1516)" />
  </g>
</svg>