<?xml version="1.0" encoding="utf-8"?>
<svg version="1.1" xmlns:xlink="http://www.w3.org/1999/xlink" width="50px" height="50px" xmlns="http://www.w3.org/2000/svg">
  <defs>
    <pattern id="BGPattern" patternUnits="userSpaceOnUse" alignment="0 0" imageRepeat="None" />
    <mask fill="white" id="Clip2178">
      <path d="M 45.888888888888914 23.96003898635479  C 49.50194931773876 20.346978557504883  50.732943469785596 15.254385964912274  49.58382066276806 10.633528265107202  C 49.365497076023416 9.753411306042892  48.26413255360626 9.455165692007824  47.62280701754389 10.096491228070192  L 40.375243664717345 17.34405458089668  L 33.75925925925924 16.241715399610143  L 32.6569200779727 9.625730994152036  L 39.904483430799246 2.378167641325547  C 40.5497076023392 1.7329434697855675  40.23879142300194 0.6335282651072021  39.35282651072123 0.4132553606237935  C 34.73489278752436 -0.730994152046776  29.650097465886915 0.5019493177387915  26.040935672514593 4.110136452241704  C 22.177387914229996 7.973684210526301  21.114035087719287 13.574074074074078  22.72222222222223 18.457115009746587  L 1.9239766081871608 39.255360623781655  C -0.5116959064327489 41.691033138401565  -0.5116959064327489 45.640350877192986  1.9239766081871608 48.076023391812896  C 4.3596491228070136 50.51169590643275  8.308966861598435 50.51169590643275  10.744639376218345 48.076023391812896  L 31.52534113060426 27.295321637426923  C 36.41033138401559 28.9239766081871  42 27.848927875243646  45.888888888888914 23.96003898635479  Z M 8.674463937621852 43.664717348927866  C 8.674463937621852 44.956140350877206  7.626705653021418 46.00389863547758  6.335282651072134 46.00389863547758  C 5.043859649122794 46.00389863547758  3.996101364522417 44.956140350877206  3.996101364522417 43.664717348927866  C 3.996101364522417 42.372319688109144  5.043859649122794 41.32553606237815  6.335282651072134 41.32553606237815  C 7.626705653021418 41.32553606237815  8.674463937621852 42.372319688109144  8.674463937621852 43.664717348927866  Z " fill-rule="evenodd" />
    </mask>
  </defs>
  <g>
    <path d="M 45.888888888888914 23.96003898635479  C 49.50194931773876 20.346978557504883  50.732943469785596 15.254385964912274  49.58382066276806 10.633528265107202  C 49.365497076023416 9.753411306042892  48.26413255360626 9.455165692007824  47.62280701754389 10.096491228070192  L 40.375243664717345 17.34405458089668  L 33.75925925925924 16.241715399610143  L 32.6569200779727 9.625730994152036  L 39.904483430799246 2.378167641325547  C 40.5497076023392 1.7329434697855675  40.23879142300194 0.6335282651072021  39.35282651072123 0.4132553606237935  C 34.73489278752436 -0.730994152046776  29.650097465886915 0.5019493177387915  26.040935672514593 4.110136452241704  C 22.177387914229996 7.973684210526301  21.114035087719287 13.574074074074078  22.72222222222223 18.457115009746587  L 1.9239766081871608 39.255360623781655  C -0.5116959064327489 41.691033138401565  -0.5116959064327489 45.640350877192986  1.9239766081871608 48.076023391812896  C 4.3596491228070136 50.51169590643275  8.308966861598435 50.51169590643275  10.744639376218345 48.076023391812896  L 31.52534113060426 27.295321637426923  C 36.41033138401559 28.9239766081871  42 27.848927875243646  45.888888888888914 23.96003898635479  Z M 8.674463937621852 43.664717348927866  C 8.674463937621852 44.956140350877206  7.626705653021418 46.00389863547758  6.335282651072134 46.00389863547758  C 5.043859649122794 46.00389863547758  3.996101364522417 44.956140350877206  3.996101364522417 43.664717348927866  C 3.996101364522417 42.372319688109144  5.043859649122794 41.32553606237815  6.335282651072134 41.32553606237815  C 7.626705653021418 41.32553606237815  8.674463937621852 42.372319688109144  8.674463937621852 43.664717348927866  Z " fill-rule="nonzero" fill="rgba(0, 0, 0, 1)" stroke="none" class="fill" />
    <path d="M 45.888888888888914 23.96003898635479  C 49.50194931773876 20.346978557504883  50.732943469785596 15.254385964912274  49.58382066276806 10.633528265107202  C 49.365497076023416 9.753411306042892  48.26413255360626 9.455165692007824  47.62280701754389 10.096491228070192  L 40.375243664717345 17.34405458089668  L 33.75925925925924 16.241715399610143  L 32.6569200779727 9.625730994152036  L 39.904483430799246 2.378167641325547  C 40.5497076023392 1.7329434697855675  40.23879142300194 0.6335282651072021  39.35282651072123 0.4132553606237935  C 34.73489278752436 -0.730994152046776  29.650097465886915 0.5019493177387915  26.040935672514593 4.110136452241704  C 22.177387914229996 7.973684210526301  21.114035087719287 13.574074074074078  22.72222222222223 18.457115009746587  L 1.9239766081871608 39.255360623781655  C -0.5116959064327489 41.691033138401565  -0.5116959064327489 45.640350877192986  1.9239766081871608 48.076023391812896  C 4.3596491228070136 50.51169590643275  8.308966861598435 50.51169590643275  10.744639376218345 48.076023391812896  L 31.52534113060426 27.295321637426923  C 36.41033138401559 28.9239766081871  42 27.848927875243646  45.888888888888914 23.96003898635479  Z " stroke-width="0" stroke-dasharray="0" stroke="rgba(255, 255, 255, 0)" fill="none" class="stroke" mask="url(#Clip2178)" />
    <path d="M 8.674463937621852 43.664717348927866  C 8.674463937621852 44.956140350877206  7.626705653021418 46.00389863547758  6.335282651072134 46.00389863547758  C 5.043859649122794 46.00389863547758  3.996101364522417 44.956140350877206  3.996101364522417 43.664717348927866  C 3.996101364522417 42.372319688109144  5.043859649122794 41.32553606237815  6.335282651072134 41.32553606237815  C 7.626705653021418 41.32553606237815  8.674463937621852 42.372319688109144  8.674463937621852 43.664717348927866  Z " stroke-width="0" stroke-dasharray="0" stroke="rgba(255, 255, 255, 0)" fill="none" class="stroke" mask="url(#Clip2178)" />
  </g>
</svg>