<?xml version="1.0" encoding="utf-8"?>
<svg version="1.1" xmlns:xlink="http://www.w3.org/1999/xlink" width="24px" height="24px" xmlns="http://www.w3.org/2000/svg">
  <defs>
    <pattern id="BGPattern" patternUnits="userSpaceOnUse" alignment="0 0" imageRepeat="None" />
    <mask fill="white" id="Clip5857">
      <path d="M 7.5 0  L 1.5 0  C 0.6715728752538098 0  0 0.6715728752538098  0 1.5  L 0 13.5  C 0 14.32842712474619  0.6715728752538098 15  1.5 15  L 7.5 15  C 8.32842712474619 15  9 14.32842712474619  9 13.5  L 9 1.5  C 9 0.6715728752538098  8.32842712474619 0  7.5 0  Z M 21 1.5  L 13.5 1.5  C 12.67157287525381 1.5  12 2.1715728752538097  12 3  L 12 10.5  C 12 11.32842712474619  12.67157287525381 12  13.5 12  L 21 12  C 21.82842712474619 12  22.5 11.32842712474619  22.5 10.5  L 22.5 3  C 22.5 2.1715728752538097  21.82842712474619 1.5  21 1.5  Z M 7.5 18  L 4.5 18  C 3.67157287525381 18  3 18.67157287525381  3 19.5  L 3 22.5  C 3 23.32842712474619  3.67157287525381 24  4.5 24  L 7.5 24  C 8.32842712474619 24  9 23.32842712474619  9 22.5  L 9 19.5  C 9 18.67157287525381  8.32842712474619 18  7.5 18  Z M 22.5 15  L 13.5 15  C 12.67157287525381 15  12 15.67157287525381  12 16.5  L 12 19.5  C 12 20.32842712474619  12.67157287525381 21  13.5 21  L 22.5 21  C 23.32842712474619 21  24 20.32842712474619  24 19.5  L 24 16.5  C 24 15.67157287525381  23.32842712474619 15  22.5 15  Z M 1.5 1.5  L 7.5 1.5  L 7.5 13.5  L 1.5 13.5  L 1.5 1.5  Z M 13.5 3  L 21 3  L 21 10.5  L 13.5 10.5  L 13.5 3  Z M 4.5 19.5  L 7.5 19.5  L 7.5 22.5  L 4.5 22.5  L 4.5 19.5  Z M 13.5 16.5  L 22.5 16.5  L 22.5 19.5  L 13.5 19.5  L 13.5 16.5  Z " fill-rule="evenodd" />
    </mask>
  </defs>
  <g>
    <path d="M 7.5 0  L 1.5 0  C 0.6715728752538098 0  0 0.6715728752538098  0 1.5  L 0 13.5  C 0 14.32842712474619  0.6715728752538098 15  1.5 15  L 7.5 15  C 8.32842712474619 15  9 14.32842712474619  9 13.5  L 9 1.5  C 9 0.6715728752538098  8.32842712474619 0  7.5 0  Z M 21 1.5  L 13.5 1.5  C 12.67157287525381 1.5  12 2.1715728752538097  12 3  L 12 10.5  C 12 11.32842712474619  12.67157287525381 12  13.5 12  L 21 12  C 21.82842712474619 12  22.5 11.32842712474619  22.5 10.5  L 22.5 3  C 22.5 2.1715728752538097  21.82842712474619 1.5  21 1.5  Z M 7.5 18  L 4.5 18  C 3.67157287525381 18  3 18.67157287525381  3 19.5  L 3 22.5  C 3 23.32842712474619  3.67157287525381 24  4.5 24  L 7.5 24  C 8.32842712474619 24  9 23.32842712474619  9 22.5  L 9 19.5  C 9 18.67157287525381  8.32842712474619 18  7.5 18  Z M 22.5 15  L 13.5 15  C 12.67157287525381 15  12 15.67157287525381  12 16.5  L 12 19.5  C 12 20.32842712474619  12.67157287525381 21  13.5 21  L 22.5 21  C 23.32842712474619 21  24 20.32842712474619  24 19.5  L 24 16.5  C 24 15.67157287525381  23.32842712474619 15  22.5 15  Z M 1.5 1.5  L 7.5 1.5  L 7.5 13.5  L 1.5 13.5  L 1.5 1.5  Z M 13.5 3  L 21 3  L 21 10.5  L 13.5 10.5  L 13.5 3  Z M 4.5 19.5  L 7.5 19.5  L 7.5 22.5  L 4.5 22.5  L 4.5 19.5  Z M 13.5 16.5  L 22.5 16.5  L 22.5 19.5  L 13.5 19.5  L 13.5 16.5  Z " fill-rule="nonzero" fill="rgba(0, 0, 0, 1)" stroke="none" class="fill" />
    <path d="M 7.5 0  L 1.5 0  C 0.6715728752538098 0  0 0.6715728752538098  0 1.5  L 0 13.5  C 0 14.32842712474619  0.6715728752538098 15  1.5 15  L 7.5 15  C 8.32842712474619 15  9 14.32842712474619  9 13.5  L 9 1.5  C 9 0.6715728752538098  8.32842712474619 0  7.5 0  Z " stroke-width="0" stroke-dasharray="0" stroke="rgba(255, 255, 255, 0)" fill="none" class="stroke" mask="url(#Clip5857)" />
    <path d="M 21 1.5  L 13.5 1.5  C 12.67157287525381 1.5  12 2.1715728752538097  12 3  L 12 10.5  C 12 11.32842712474619  12.67157287525381 12  13.5 12  L 21 12  C 21.82842712474619 12  22.5 11.32842712474619  22.5 10.5  L 22.5 3  C 22.5 2.1715728752538097  21.82842712474619 1.5  21 1.5  Z " stroke-width="0" stroke-dasharray="0" stroke="rgba(255, 255, 255, 0)" fill="none" class="stroke" mask="url(#Clip5857)" />
    <path d="M 7.5 18  L 4.5 18  C 3.67157287525381 18  3 18.67157287525381  3 19.5  L 3 22.5  C 3 23.32842712474619  3.67157287525381 24  4.5 24  L 7.5 24  C 8.32842712474619 24  9 23.32842712474619  9 22.5  L 9 19.5  C 9 18.67157287525381  8.32842712474619 18  7.5 18  Z " stroke-width="0" stroke-dasharray="0" stroke="rgba(255, 255, 255, 0)" fill="none" class="stroke" mask="url(#Clip5857)" />
    <path d="M 22.5 15  L 13.5 15  C 12.67157287525381 15  12 15.67157287525381  12 16.5  L 12 19.5  C 12 20.32842712474619  12.67157287525381 21  13.5 21  L 22.5 21  C 23.32842712474619 21  24 20.32842712474619  24 19.5  L 24 16.5  C 24 15.67157287525381  23.32842712474619 15  22.5 15  Z " stroke-width="0" stroke-dasharray="0" stroke="rgba(255, 255, 255, 0)" fill="none" class="stroke" mask="url(#Clip5857)" />
    <path d="M 1.5 1.5  L 7.5 1.5  L 7.5 13.5  L 1.5 13.5  L 1.5 1.5  Z " stroke-width="0" stroke-dasharray="0" stroke="rgba(255, 255, 255, 0)" fill="none" class="stroke" mask="url(#Clip5857)" />
    <path d="M 13.5 3  L 21 3  L 21 10.5  L 13.5 10.5  L 13.5 3  Z " stroke-width="0" stroke-dasharray="0" stroke="rgba(255, 255, 255, 0)" fill="none" class="stroke" mask="url(#Clip5857)" />
    <path d="M 4.5 19.5  L 7.5 19.5  L 7.5 22.5  L 4.5 22.5  L 4.5 19.5  Z " stroke-width="0" stroke-dasharray="0" stroke="rgba(255, 255, 255, 0)" fill="none" class="stroke" mask="url(#Clip5857)" />
    <path d="M 13.5 16.5  L 22.5 16.5  L 22.5 19.5  L 13.5 19.5  L 13.5 16.5  Z " stroke-width="0" stroke-dasharray="0" stroke="rgba(255, 255, 255, 0)" fill="none" class="stroke" mask="url(#Clip5857)" />
  </g>
</svg>