<?xml version="1.0" encoding="utf-8"?>
<svg version="1.1" xmlns:xlink="http://www.w3.org/1999/xlink" width="50px" height="50px" xmlns="http://www.w3.org/2000/svg">
  <defs>
    <pattern id="BGPattern" patternUnits="userSpaceOnUse" alignment="0 0" imageRepeat="None" />
    <mask fill="white" id="Clip1588">
      <path d="M 49.121692607003865 22.792120622568063  C 50.03336575875482 21.880447470817103  50.03336575875482 20.402237354085628  49.121692607003865 19.49046692607004  L 46.920622568093336 17.28939688715954  C 46.008852140077806 16.377626459143983  44.530642023346275 16.377626459143983  43.618968871595314 17.28939688715954  L 43.06867704280154 17.839688715953315  L 32.06303501945524 6.834143968871587  L 32.61332684824902 6.283852140077811  C 33.5250972762646 5.372081712062254  33.5250972762646 3.893871595330751  32.61332684824902 2.9821984435797617  L 30.41225680933849 0.7810311284046634  C 29.50048638132296 -0.13073929961089448  28.02227626459143 -0.13073929961089448  27.110603112840465 0.7810311284046634  L 15.004474708171186 12.887159533073941  C 14.09270428015563 13.798929961089499  14.09270428015563 15.277140077821002  15.004474708171186 16.18881322957199  L 17.205544747081717 18.389883268482492  C 18.117315175097275 19.30165369649805  19.59552529182878 19.30165369649805  20.507198443579767 18.389883268482492  L 21.057490272373542 17.839591439688718  L 24.909435797665367 21.691536964980514  L 17.026167315175087 29.57480544747079  L 16.475875486381312 29.024513618677016  C 15.26021400778211 27.808852140077818  13.289299610894945 27.808852140077818  12.073638132295713 29.024513618677016  L 0.9117704280155579 40.18657587548637  C -0.3038910505836441 41.40223735408563  -0.3038910505836441 43.37315175097274  0.9117704280155579 44.588813229572  L 5.314007782101157 48.99105058365757  C 6.529669260700388 50.206712062256834  8.500583657587555 50.206712062256834  9.716245136186757 48.99105058365757  L 20.87821011673151 37.829085603112844  C 22.09387159533074 36.613424124513585  22.09387159533074 34.642509727626475  20.87821011673151 33.426848249027216  L 20.327918287937734 32.87655642023344  L 28.211186770428014 24.993287937743162  L 32.06313229571981 28.845233463035015  L 31.512840466926033 29.39552529182879  C 30.601070038910507 30.307295719844372  30.601070038910507 31.78550583657585  31.512840466926033 32.69717898832687  L 33.713910505836566 34.89824902723734  C 34.62568093385215 35.81001945525293  36.103891050583684 35.81001945525293  37.015564202334645 34.89824902723734  L 49.121692607003865 22.792120622568063  Z " fill-rule="evenodd" />
    </mask>
  </defs>
  <g>
    <path d="M 49.121692607003865 22.792120622568063  C 50.03336575875482 21.880447470817103  50.03336575875482 20.402237354085628  49.121692607003865 19.49046692607004  L 46.920622568093336 17.28939688715954  C 46.008852140077806 16.377626459143983  44.530642023346275 16.377626459143983  43.618968871595314 17.28939688715954  L 43.06867704280154 17.839688715953315  L 32.06303501945524 6.834143968871587  L 32.61332684824902 6.283852140077811  C 33.5250972762646 5.372081712062254  33.5250972762646 3.893871595330751  32.61332684824902 2.9821984435797617  L 30.41225680933849 0.7810311284046634  C 29.50048638132296 -0.13073929961089448  28.02227626459143 -0.13073929961089448  27.110603112840465 0.7810311284046634  L 15.004474708171186 12.887159533073941  C 14.09270428015563 13.798929961089499  14.09270428015563 15.277140077821002  15.004474708171186 16.18881322957199  L 17.205544747081717 18.389883268482492  C 18.117315175097275 19.30165369649805  19.59552529182878 19.30165369649805  20.507198443579767 18.389883268482492  L 21.057490272373542 17.839591439688718  L 24.909435797665367 21.691536964980514  L 17.026167315175087 29.57480544747079  L 16.475875486381312 29.024513618677016  C 15.26021400778211 27.808852140077818  13.289299610894945 27.808852140077818  12.073638132295713 29.024513618677016  L 0.9117704280155579 40.18657587548637  C -0.3038910505836441 41.40223735408563  -0.3038910505836441 43.37315175097274  0.9117704280155579 44.588813229572  L 5.314007782101157 48.99105058365757  C 6.529669260700388 50.206712062256834  8.500583657587555 50.206712062256834  9.716245136186757 48.99105058365757  L 20.87821011673151 37.829085603112844  C 22.09387159533074 36.613424124513585  22.09387159533074 34.642509727626475  20.87821011673151 33.426848249027216  L 20.327918287937734 32.87655642023344  L 28.211186770428014 24.993287937743162  L 32.06313229571981 28.845233463035015  L 31.512840466926033 29.39552529182879  C 30.601070038910507 30.307295719844372  30.601070038910507 31.78550583657585  31.512840466926033 32.69717898832687  L 33.713910505836566 34.89824902723734  C 34.62568093385215 35.81001945525293  36.103891050583684 35.81001945525293  37.015564202334645 34.89824902723734  L 49.121692607003865 22.792120622568063  Z " fill-rule="nonzero" fill="rgba(0, 0, 0, 1)" stroke="none" class="fill" />
    <path d="M 49.121692607003865 22.792120622568063  C 50.03336575875482 21.880447470817103  50.03336575875482 20.402237354085628  49.121692607003865 19.49046692607004  L 46.920622568093336 17.28939688715954  C 46.008852140077806 16.377626459143983  44.530642023346275 16.377626459143983  43.618968871595314 17.28939688715954  L 43.06867704280154 17.839688715953315  L 32.06303501945524 6.834143968871587  L 32.61332684824902 6.283852140077811  C 33.5250972762646 5.372081712062254  33.5250972762646 3.893871595330751  32.61332684824902 2.9821984435797617  L 30.41225680933849 0.7810311284046634  C 29.50048638132296 -0.13073929961089448  28.02227626459143 -0.13073929961089448  27.110603112840465 0.7810311284046634  L 15.004474708171186 12.887159533073941  C 14.09270428015563 13.798929961089499  14.09270428015563 15.277140077821002  15.004474708171186 16.18881322957199  L 17.205544747081717 18.389883268482492  C 18.117315175097275 19.30165369649805  19.59552529182878 19.30165369649805  20.507198443579767 18.389883268482492  L 21.057490272373542 17.839591439688718  L 24.909435797665367 21.691536964980514  L 17.026167315175087 29.57480544747079  L 16.475875486381312 29.024513618677016  C 15.26021400778211 27.808852140077818  13.289299610894945 27.808852140077818  12.073638132295713 29.024513618677016  L 0.9117704280155579 40.18657587548637  C -0.3038910505836441 41.40223735408563  -0.3038910505836441 43.37315175097274  0.9117704280155579 44.588813229572  L 5.314007782101157 48.99105058365757  C 6.529669260700388 50.206712062256834  8.500583657587555 50.206712062256834  9.716245136186757 48.99105058365757  L 20.87821011673151 37.829085603112844  C 22.09387159533074 36.613424124513585  22.09387159533074 34.642509727626475  20.87821011673151 33.426848249027216  L 20.327918287937734 32.87655642023344  L 28.211186770428014 24.993287937743162  L 32.06313229571981 28.845233463035015  L 31.512840466926033 29.39552529182879  C 30.601070038910507 30.307295719844372  30.601070038910507 31.78550583657585  31.512840466926033 32.69717898832687  L 33.713910505836566 34.89824902723734  C 34.62568093385215 35.81001945525293  36.103891050583684 35.81001945525293  37.015564202334645 34.89824902723734  L 49.121692607003865 22.792120622568063  Z " stroke-width="0" stroke-dasharray="0" stroke="rgba(255, 255, 255, 0)" fill="none" class="stroke" mask="url(#Clip1588)" />
  </g>
</svg>