<?xml version="1.0" encoding="utf-8"?>
<svg version="1.1" xmlns:xlink="http://www.w3.org/1999/xlink" width="6px" height="10px" xmlns="http://www.w3.org/2000/svg">
  <defs>
    <pattern id="BGPattern" patternUnits="userSpaceOnUse" alignment="0 0" imageRepeat="None" />
    <mask fill="white" id="Clip3215">
      <path d="M 1 0  L 6 5  L 1 10  L 0.2999999999999998 9.3  L 4.6 5  L 0.2999999999999998 0.7000000000000002  L 1 0  Z " fill-rule="evenodd" />
    </mask>
  </defs>
  <g transform="matrix(1 0 0 1 -5 -3 )">
    <path d="M 1 0  L 6 5  L 1 10  L 0.2999999999999998 9.3  L 4.6 5  L 0.2999999999999998 0.7000000000000002  L 1 0  Z " fill-rule="nonzero" fill="rgba(0, 0, 0, 1)" stroke="none" transform="matrix(1 0 0 1 5 3 )" class="fill" />
    <path d="M 1 0  L 6 5  L 1 10  L 0.2999999999999998 9.3  L 4.6 5  L 0.2999999999999998 0.7000000000000002  L 1 0  Z " stroke-width="0" stroke-dasharray="0" stroke="rgba(255, 255, 255, 0)" fill="none" transform="matrix(1 0 0 1 5 3 )" class="stroke" mask="url(#Clip3215)" />
  </g>
</svg>