<?xml version="1.0" encoding="utf-8"?>
<svg version="1.1" xmlns:xlink="http://www.w3.org/1999/xlink" width="58px" height="50px" xmlns="http://www.w3.org/2000/svg">
  <defs>
    <pattern id="BGPattern" patternUnits="userSpaceOnUse" alignment="0 0" imageRepeat="None" />
    <mask fill="white" id="Clip2612">
      <path d="M 55 49  C 56.5375 49.5  57.5 47.8375  56.73125 46.5  L 30.73125 1.5  C 30.343750000000004 0.8312499999999998  29.675000000000004 0.5  29 0.5  C 28.324999999999996 0.5  27.65 0.8312499999999998  27.26875 1.5  L 1.2687500000000007 46.5  C 0.5 47.8375  1.4625000000000004 49.5  3 49  L 55 49  Z M 7.331250000000001 45  L 7.331250000000004 45.00625  L 29 7.49375  L 50.66875 45  L 7.331250000000001 45  Z M 29 14.374999999999998  C 28.325 14.374999999999998  27.65 14.70625  27.268750000000004 15.375  L 13.018750000000004 40  C 12.250000000000004 41.33125  13.212500000000006 43  14.750000000000002 43  L 43.237500000000004 43  C 44.78125000000001 43  45.743750000000006 41.33125  44.96875000000001 40  L 30.73125 15.375  C 30.343750000000004 14.70625  29.668750000000003 14.374999999999998  29 14.374999999999998  Z M 29 19.375  L 40.643750000000004 39  L 17.35625 39  L 29 19.375  Z M 29 26.375  C 28.324999999999996 26.375  27.65625 26.706249999999997  27.268750000000004 27.36875  L 23.706250000000004 33.51875  C 22.9375 34.84375  23.9 36.5  25.4375 36.5  L 32.5625 36.5  C 34.1 36.5  35.05625 34.84375  34.29375 33.51875  L 30.73125 27.36875  C 30.350000000000005 26.706249999999997  29.675000000000004 26.375  29 26.375  Z M 29.00625000000001 30.349999999999994  L 30.837500000000006 33.51875  L 27.168750000000006 33.51875  L 29.00625000000001 30.349999999999994  Z " fill-rule="evenodd" />
    </mask>
  </defs>
  <g>
    <path d="M 55 49  C 56.5375 49.5  57.5 47.8375  56.73125 46.5  L 30.73125 1.5  C 30.343750000000004 0.8312499999999998  29.675000000000004 0.5  29 0.5  C 28.324999999999996 0.5  27.65 0.8312499999999998  27.26875 1.5  L 1.2687500000000007 46.5  C 0.5 47.8375  1.4625000000000004 49.5  3 49  L 55 49  Z M 7.331250000000001 45  L 7.331250000000004 45.00625  L 29 7.49375  L 50.66875 45  L 7.331250000000001 45  Z M 29 14.374999999999998  C 28.325 14.374999999999998  27.65 14.70625  27.268750000000004 15.375  L 13.018750000000004 40  C 12.250000000000004 41.33125  13.212500000000006 43  14.750000000000002 43  L 43.237500000000004 43  C 44.78125000000001 43  45.743750000000006 41.33125  44.96875000000001 40  L 30.73125 15.375  C 30.343750000000004 14.70625  29.668750000000003 14.374999999999998  29 14.374999999999998  Z M 29 19.375  L 40.643750000000004 39  L 17.35625 39  L 29 19.375  Z M 29 26.375  C 28.324999999999996 26.375  27.65625 26.706249999999997  27.268750000000004 27.36875  L 23.706250000000004 33.51875  C 22.9375 34.84375  23.9 36.5  25.4375 36.5  L 32.5625 36.5  C 34.1 36.5  35.05625 34.84375  34.29375 33.51875  L 30.73125 27.36875  C 30.350000000000005 26.706249999999997  29.675000000000004 26.375  29 26.375  Z M 29.00625000000001 30.349999999999994  L 30.837500000000006 33.51875  L 27.168750000000006 33.51875  L 29.00625000000001 30.349999999999994  Z " fill-rule="nonzero" fill="rgba(0, 0, 0, 1)" stroke="none" class="fill" />
    <path d="M 55 49  C 56.5375 49.5  57.5 47.8375  56.73125 46.5  L 30.73125 1.5  C 30.343750000000004 0.8312499999999998  29.675000000000004 0.5  29 0.5  C 28.324999999999996 0.5  27.65 0.8312499999999998  27.26875 1.5  L 1.2687500000000007 46.5  C 0.5 47.8375  1.4625000000000004 49.5  3 49  L 55 49  Z " stroke-width="0" stroke-dasharray="0" stroke="rgba(255, 255, 255, 0)" fill="none" class="stroke" mask="url(#Clip2612)" />
    <path d="M 7.331250000000001 45  L 7.331250000000004 45.00625  L 29 7.49375  L 50.66875 45  L 7.331250000000001 45  Z " stroke-width="0" stroke-dasharray="0" stroke="rgba(255, 255, 255, 0)" fill="none" class="stroke" mask="url(#Clip2612)" />
    <path d="M 29 14.374999999999998  C 28.325 14.374999999999998  27.65 14.70625  27.268750000000004 15.375  L 13.018750000000004 40  C 12.250000000000004 41.33125  13.212500000000006 43  14.750000000000002 43  L 43.237500000000004 43  C 44.78125000000001 43  45.743750000000006 41.33125  44.96875000000001 40  L 30.73125 15.375  C 30.343750000000004 14.70625  29.668750000000003 14.374999999999998  29 14.374999999999998  Z " stroke-width="0" stroke-dasharray="0" stroke="rgba(255, 255, 255, 0)" fill="none" class="stroke" mask="url(#Clip2612)" />
    <path d="M 29 19.375  L 40.643750000000004 39  L 17.35625 39  L 29 19.375  Z " stroke-width="0" stroke-dasharray="0" stroke="rgba(255, 255, 255, 0)" fill="none" class="stroke" mask="url(#Clip2612)" />
    <path d="M 29 26.375  C 28.324999999999996 26.375  27.65625 26.706249999999997  27.268750000000004 27.36875  L 23.706250000000004 33.51875  C 22.9375 34.84375  23.9 36.5  25.4375 36.5  L 32.5625 36.5  C 34.1 36.5  35.05625 34.84375  34.29375 33.51875  L 30.73125 27.36875  C 30.350000000000005 26.706249999999997  29.675000000000004 26.375  29 26.375  Z " stroke-width="0" stroke-dasharray="0" stroke="rgba(255, 255, 255, 0)" fill="none" class="stroke" mask="url(#Clip2612)" />
    <path d="M 29.00625000000001 30.349999999999994  L 30.837500000000006 33.51875  L 27.168750000000006 33.51875  L 29.00625000000001 30.349999999999994  Z " stroke-width="0" stroke-dasharray="0" stroke="rgba(255, 255, 255, 0)" fill="none" class="stroke" mask="url(#Clip2612)" />
  </g>
</svg>