<?xml version="1.0" encoding="utf-8"?>
<svg version="1.1" xmlns:xlink="http://www.w3.org/1999/xlink" width="48px" height="48px" xmlns="http://www.w3.org/2000/svg">
  <defs>
    <pattern id="BGPattern" patternUnits="userSpaceOnUse" alignment="0 0" imageRepeat="None" />
    <mask fill="white" id="Clip7211">
      <path d="M 37.28 7.324000000000001  C 32.26 2.744  26.416 0.22  20.984 0.016  C 16.16 -0.164  11.674 1.446  8.42 4.984  C 5.82 7.8100000000000005  4.372 11.494  3.9699999999999998 15.532  L 3.13 15.532  C 1.404 15.532  0 16.936  0 18.66  L 0 28.14  C 0 29.863999999999997  1.404 31.270000000000003  3.128 31.270000000000003  L 7.308 31.270000000000003  C 8.683579030148483 33.94428274917927  10.410176877094324 36.42286205030722  12.442 38.64  C 21.358 48.33  33.822 50.704  41.546 44.668  L 45.746 44.668  C 46.900000000000006 44.668  47.846000000000004 43.722  47.846000000000004 42.568  L 47.846000000000004 36.84  C 47.83987776752991 36.34754208620628  47.65752738459295 35.87357299748299  47.332 35.504000000000005  C 49.046 28.642000000000003  47.242 20.230000000000004  42.296 13.082000000000004  C 42.3 13.048000000000005  42.316 13.018000000000004  42.316 12.984000000000004  L 42.316 8.96  C 42.31272570792966 8.05938045283567  41.584608833247515 7.329478977970485  40.684000000000005 7.324000000000001  L 37.28 7.324000000000001  Z M 15.164000000000005 8.344000000000001  C 17.612000000000005 5.684000000000001  20.92000000000001 4.388000000000002  24.48 4.372  C 28.04 4.354  31.856 5.614  35.324 8.072  C 35.13715489753182 8.331188257236954  35.03262333383111 8.640601685791061  35.024 8.959999999999999  L 35.024 12.983999999999998  C 35.024 13.879999999999999  35.76 14.622  36.656 14.622  L 40.684 14.622  C 40.96120685139601 14.615075816067108  41.231664844398495 14.53504232834188  41.467999999999996 14.389999999999997  C 45.959999999999994 20.99  46.934 29.024  43.946 34.738  L 40.02 34.738  C 38.864000000000004 34.738  37.918000000000006 35.686  37.918000000000006 36.838  L 37.918000000000006 40.422000000000004  C 31.940000000000005 43.022000000000006  23.918000000000006 40.86600000000001  18.004000000000005 34.44200000000001  C 16.830678912179255 33.154300280537036  15.792576480794562 31.749611645170788  14.906000000000006 30.250000000000007  C 15.418000000000006 29.692000000000007  15.738000000000007 28.95600000000001  15.738000000000007 28.140000000000008  L 15.738000000000007 18.66  C 15.738000000000007 16.936  14.334000000000007 15.532  12.610000000000007 15.532  L 11.792000000000007 15.532  C 12.266000000000009 12.806000000000001  13.352000000000007 10.312000000000001  15.164000000000005 8.344000000000001  Z M 36.656000000000006 8.39  L 36.656 8.392  L 40.684 8.392  C 41.007999999999996 8.392  41.25 8.636  41.25 8.959999999999999  L 41.25 12.983999999999998  C 41.25 13.309999999999999  41.01 13.553999999999998  40.684 13.553999999999998  L 36.656000000000006 13.553999999999998  C 36.6526366999803 13.554060614851164  36.649272922066736 13.554090924122175  36.64590907587782 13.554090924122175  C 36.336629615972576 13.554090924122175  36.085909075877815 13.303370384027417  36.085909075877815 12.994090924122176  C 36.085909075877815 12.990727077933062  36.085939385148826 12.98736330001989  36.086 12.983999999999998  L 36.086 8.96  C 36.08593938514883 8.956636699980521  36.085909075877815 8.953272922066523  36.085909075877815 8.949909075877827  C 36.085909075877815 8.640629615972582  36.336629615972576 8.389909075877826  36.64590907587782 8.389909075877826  C 36.6492729220667 8.389909075877826  36.652636699980334 8.389939385148839  36.656000000000006 8.39  Z M 3.1260000000000003 16.598  L 3.128 16.596  L 12.608 16.596  C 13.762 16.596  14.672 17.506  14.672 18.658  L 14.672 28.137999999999998  C 14.672 29.29  13.762 30.202  12.610000000000003 30.202  L 3.130000000000001 30.202  C 3.1233124230629885 30.202065582375177  3.1166245647598743 30.202098374154012  3.109936666260614 30.202098374154012  C 1.9799620681068113 30.202098374154012  1.0639366662606147 29.286072972307814  1.0639366662606147 28.156098374154013  C 1.0639366662606147 28.150732187144715  1.0639577776704516 28.145366020899473  1.064 28.14  L 1.064 18.66  C 1.064 17.508  1.9740000000000002 16.598  3.1260000000000003 16.598  Z M 40.02 35.804  L 40.02 35.802  L 45.746 35.802  C 46.328 35.802  46.786 36.254  46.786 36.838  L 46.786 42.564  C 46.78604786684506 42.56804186691628  46.78607180089691 42.572083981830474  46.78607180089691 42.576126132174515  C 46.78607180089691 43.14166571600125  46.327611384723646 43.60012613217451  45.76207180089691 43.60012613217451  C 45.75671428646108 43.60012613217451  45.751356854518896 43.600084086821596  45.746 43.6  L 40.02 43.6  C 40.01462458461504 43.60008500282697  40.00924858119583 43.6001275062329  40.00387249376709 43.6001275062329  C 39.44054204893968 43.6001275062329  38.983872493767095 43.14345795106032  38.983872493767095 42.580127506232905  C 38.983872493767095 42.57475141880425  38.983914997173024 42.569375415384876  38.984 42.564  L 38.984 36.84  C 38.983914997173024 36.83462458461504  38.983872493767095 36.82924858119583  38.983872493767095 36.82387249376709  C 38.983872493767095 36.26054204893968  39.44054204893968 35.803872493767095  40.00387249376709 35.803872493767095  C 40.009248581195756 35.803872493767095  40.01462458461512 35.803914997173024  40.02 35.804  Z " fill-rule="evenodd" />
    </mask>
  </defs>
  <g>
    <path d="M 37.28 7.324000000000001  C 32.26 2.744  26.416 0.22  20.984 0.016  C 16.16 -0.164  11.674 1.446  8.42 4.984  C 5.82 7.8100000000000005  4.372 11.494  3.9699999999999998 15.532  L 3.13 15.532  C 1.404 15.532  0 16.936  0 18.66  L 0 28.14  C 0 29.863999999999997  1.404 31.270000000000003  3.128 31.270000000000003  L 7.308 31.270000000000003  C 8.683579030148483 33.94428274917927  10.410176877094324 36.42286205030722  12.442 38.64  C 21.358 48.33  33.822 50.704  41.546 44.668  L 45.746 44.668  C 46.900000000000006 44.668  47.846000000000004 43.722  47.846000000000004 42.568  L 47.846000000000004 36.84  C 47.83987776752991 36.34754208620628  47.65752738459295 35.87357299748299  47.332 35.504000000000005  C 49.046 28.642000000000003  47.242 20.230000000000004  42.296 13.082000000000004  C 42.3 13.048000000000005  42.316 13.018000000000004  42.316 12.984000000000004  L 42.316 8.96  C 42.31272570792966 8.05938045283567  41.584608833247515 7.329478977970485  40.684000000000005 7.324000000000001  L 37.28 7.324000000000001  Z M 15.164000000000005 8.344000000000001  C 17.612000000000005 5.684000000000001  20.92000000000001 4.388000000000002  24.48 4.372  C 28.04 4.354  31.856 5.614  35.324 8.072  C 35.13715489753182 8.331188257236954  35.03262333383111 8.640601685791061  35.024 8.959999999999999  L 35.024 12.983999999999998  C 35.024 13.879999999999999  35.76 14.622  36.656 14.622  L 40.684 14.622  C 40.96120685139601 14.615075816067108  41.231664844398495 14.53504232834188  41.467999999999996 14.389999999999997  C 45.959999999999994 20.99  46.934 29.024  43.946 34.738  L 40.02 34.738  C 38.864000000000004 34.738  37.918000000000006 35.686  37.918000000000006 36.838  L 37.918000000000006 40.422000000000004  C 31.940000000000005 43.022000000000006  23.918000000000006 40.86600000000001  18.004000000000005 34.44200000000001  C 16.830678912179255 33.154300280537036  15.792576480794562 31.749611645170788  14.906000000000006 30.250000000000007  C 15.418000000000006 29.692000000000007  15.738000000000007 28.95600000000001  15.738000000000007 28.140000000000008  L 15.738000000000007 18.66  C 15.738000000000007 16.936  14.334000000000007 15.532  12.610000000000007 15.532  L 11.792000000000007 15.532  C 12.266000000000009 12.806000000000001  13.352000000000007 10.312000000000001  15.164000000000005 8.344000000000001  Z M 36.656000000000006 8.39  L 36.656 8.392  L 40.684 8.392  C 41.007999999999996 8.392  41.25 8.636  41.25 8.959999999999999  L 41.25 12.983999999999998  C 41.25 13.309999999999999  41.01 13.553999999999998  40.684 13.553999999999998  L 36.656000000000006 13.553999999999998  C 36.6526366999803 13.554060614851164  36.649272922066736 13.554090924122175  36.64590907587782 13.554090924122175  C 36.336629615972576 13.554090924122175  36.085909075877815 13.303370384027417  36.085909075877815 12.994090924122176  C 36.085909075877815 12.990727077933062  36.085939385148826 12.98736330001989  36.086 12.983999999999998  L 36.086 8.96  C 36.08593938514883 8.956636699980521  36.085909075877815 8.953272922066523  36.085909075877815 8.949909075877827  C 36.085909075877815 8.640629615972582  36.336629615972576 8.389909075877826  36.64590907587782 8.389909075877826  C 36.6492729220667 8.389909075877826  36.652636699980334 8.389939385148839  36.656000000000006 8.39  Z M 3.1260000000000003 16.598  L 3.128 16.596  L 12.608 16.596  C 13.762 16.596  14.672 17.506  14.672 18.658  L 14.672 28.137999999999998  C 14.672 29.29  13.762 30.202  12.610000000000003 30.202  L 3.130000000000001 30.202  C 3.1233124230629885 30.202065582375177  3.1166245647598743 30.202098374154012  3.109936666260614 30.202098374154012  C 1.9799620681068113 30.202098374154012  1.0639366662606147 29.286072972307814  1.0639366662606147 28.156098374154013  C 1.0639366662606147 28.150732187144715  1.0639577776704516 28.145366020899473  1.064 28.14  L 1.064 18.66  C 1.064 17.508  1.9740000000000002 16.598  3.1260000000000003 16.598  Z M 40.02 35.804  L 40.02 35.802  L 45.746 35.802  C 46.328 35.802  46.786 36.254  46.786 36.838  L 46.786 42.564  C 46.78604786684506 42.56804186691628  46.78607180089691 42.572083981830474  46.78607180089691 42.576126132174515  C 46.78607180089691 43.14166571600125  46.327611384723646 43.60012613217451  45.76207180089691 43.60012613217451  C 45.75671428646108 43.60012613217451  45.751356854518896 43.600084086821596  45.746 43.6  L 40.02 43.6  C 40.01462458461504 43.60008500282697  40.00924858119583 43.6001275062329  40.00387249376709 43.6001275062329  C 39.44054204893968 43.6001275062329  38.983872493767095 43.14345795106032  38.983872493767095 42.580127506232905  C 38.983872493767095 42.57475141880425  38.983914997173024 42.569375415384876  38.984 42.564  L 38.984 36.84  C 38.983914997173024 36.83462458461504  38.983872493767095 36.82924858119583  38.983872493767095 36.82387249376709  C 38.983872493767095 36.26054204893968  39.44054204893968 35.803872493767095  40.00387249376709 35.803872493767095  C 40.009248581195756 35.803872493767095  40.01462458461512 35.803914997173024  40.02 35.804  Z " fill-rule="nonzero" fill="rgba(7, 144, 192, 1)" stroke="none" class="fill" />
    <path d="M 37.28 7.324000000000001  C 32.26 2.744  26.416 0.22  20.984 0.016  C 16.16 -0.164  11.674 1.446  8.42 4.984  C 5.82 7.8100000000000005  4.372 11.494  3.9699999999999998 15.532  L 3.13 15.532  C 1.404 15.532  0 16.936  0 18.66  L 0 28.14  C 0 29.863999999999997  1.404 31.270000000000003  3.128 31.270000000000003  L 7.308 31.270000000000003  C 8.683579030148483 33.94428274917927  10.410176877094324 36.42286205030722  12.442 38.64  C 21.358 48.33  33.822 50.704  41.546 44.668  L 45.746 44.668  C 46.900000000000006 44.668  47.846000000000004 43.722  47.846000000000004 42.568  L 47.846000000000004 36.84  C 47.83987776752991 36.34754208620628  47.65752738459295 35.87357299748299  47.332 35.504000000000005  C 49.046 28.642000000000003  47.242 20.230000000000004  42.296 13.082000000000004  C 42.3 13.048000000000005  42.316 13.018000000000004  42.316 12.984000000000004  L 42.316 8.96  C 42.31272570792966 8.05938045283567  41.584608833247515 7.329478977970485  40.684000000000005 7.324000000000001  L 37.28 7.324000000000001  Z " stroke-width="0" stroke-dasharray="0" stroke="rgba(255, 255, 255, 0)" fill="none" class="stroke" mask="url(#Clip7211)" />
    <path d="M 15.164000000000005 8.344000000000001  C 17.612000000000005 5.684000000000001  20.92000000000001 4.388000000000002  24.48 4.372  C 28.04 4.354  31.856 5.614  35.324 8.072  C 35.13715489753182 8.331188257236954  35.03262333383111 8.640601685791061  35.024 8.959999999999999  L 35.024 12.983999999999998  C 35.024 13.879999999999999  35.76 14.622  36.656 14.622  L 40.684 14.622  C 40.96120685139601 14.615075816067108  41.231664844398495 14.53504232834188  41.467999999999996 14.389999999999997  C 45.959999999999994 20.99  46.934 29.024  43.946 34.738  L 40.02 34.738  C 38.864000000000004 34.738  37.918000000000006 35.686  37.918000000000006 36.838  L 37.918000000000006 40.422000000000004  C 31.940000000000005 43.022000000000006  23.918000000000006 40.86600000000001  18.004000000000005 34.44200000000001  C 16.830678912179255 33.154300280537036  15.792576480794562 31.749611645170788  14.906000000000006 30.250000000000007  C 15.418000000000006 29.692000000000007  15.738000000000007 28.95600000000001  15.738000000000007 28.140000000000008  L 15.738000000000007 18.66  C 15.738000000000007 16.936  14.334000000000007 15.532  12.610000000000007 15.532  L 11.792000000000007 15.532  C 12.266000000000009 12.806000000000001  13.352000000000007 10.312000000000001  15.164000000000005 8.344000000000001  Z " stroke-width="0" stroke-dasharray="0" stroke="rgba(255, 255, 255, 0)" fill="none" class="stroke" mask="url(#Clip7211)" />
    <path d="M 36.656000000000006 8.39  L 36.656 8.392  L 40.684 8.392  C 41.007999999999996 8.392  41.25 8.636  41.25 8.959999999999999  L 41.25 12.983999999999998  C 41.25 13.309999999999999  41.01 13.553999999999998  40.684 13.553999999999998  L 36.656000000000006 13.553999999999998  C 36.6526366999803 13.554060614851164  36.649272922066736 13.554090924122175  36.64590907587782 13.554090924122175  C 36.336629615972576 13.554090924122175  36.085909075877815 13.303370384027417  36.085909075877815 12.994090924122176  C 36.085909075877815 12.990727077933062  36.085939385148826 12.98736330001989  36.086 12.983999999999998  L 36.086 8.96  C 36.08593938514883 8.956636699980521  36.085909075877815 8.953272922066523  36.085909075877815 8.949909075877827  C 36.085909075877815 8.640629615972582  36.336629615972576 8.389909075877826  36.64590907587782 8.389909075877826  C 36.6492729220667 8.389909075877826  36.652636699980334 8.389939385148839  36.656000000000006 8.39  Z " stroke-width="0" stroke-dasharray="0" stroke="rgba(255, 255, 255, 0)" fill="none" class="stroke" mask="url(#Clip7211)" />
    <path d="M 3.1260000000000003 16.598  L 3.128 16.596  L 12.608 16.596  C 13.762 16.596  14.672 17.506  14.672 18.658  L 14.672 28.137999999999998  C 14.672 29.29  13.762 30.202  12.610000000000003 30.202  L 3.130000000000001 30.202  C 3.1233124230629885 30.202065582375177  3.1166245647598743 30.202098374154012  3.109936666260614 30.202098374154012  C 1.9799620681068113 30.202098374154012  1.0639366662606147 29.286072972307814  1.0639366662606147 28.156098374154013  C 1.0639366662606147 28.150732187144715  1.0639577776704516 28.145366020899473  1.064 28.14  L 1.064 18.66  C 1.064 17.508  1.9740000000000002 16.598  3.1260000000000003 16.598  Z " stroke-width="0" stroke-dasharray="0" stroke="rgba(255, 255, 255, 0)" fill="none" class="stroke" mask="url(#Clip7211)" />
    <path d="M 40.02 35.804  L 40.02 35.802  L 45.746 35.802  C 46.328 35.802  46.786 36.254  46.786 36.838  L 46.786 42.564  C 46.78604786684506 42.56804186691628  46.78607180089691 42.572083981830474  46.78607180089691 42.576126132174515  C 46.78607180089691 43.14166571600125  46.327611384723646 43.60012613217451  45.76207180089691 43.60012613217451  C 45.75671428646108 43.60012613217451  45.751356854518896 43.600084086821596  45.746 43.6  L 40.02 43.6  C 40.01462458461504 43.60008500282697  40.00924858119583 43.6001275062329  40.00387249376709 43.6001275062329  C 39.44054204893968 43.6001275062329  38.983872493767095 43.14345795106032  38.983872493767095 42.580127506232905  C 38.983872493767095 42.57475141880425  38.983914997173024 42.569375415384876  38.984 42.564  L 38.984 36.84  C 38.983914997173024 36.83462458461504  38.983872493767095 36.82924858119583  38.983872493767095 36.82387249376709  C 38.983872493767095 36.26054204893968  39.44054204893968 35.803872493767095  40.00387249376709 35.803872493767095  C 40.009248581195756 35.803872493767095  40.01462458461512 35.803914997173024  40.02 35.804  Z " stroke-width="0" stroke-dasharray="0" stroke="rgba(255, 255, 255, 0)" fill="none" class="stroke" mask="url(#Clip7211)" />
  </g>
</svg>