<?xml version="1.0" encoding="utf-8"?>
<svg version="1.1" xmlns:xlink="http://www.w3.org/1999/xlink" width="50px" height="45px" xmlns="http://www.w3.org/2000/svg">
  <defs>
    <pattern id="BGPattern" patternUnits="userSpaceOnUse" alignment="0 0" imageRepeat="None" />
    <mask fill="white" id="Clip1526">
      <path d="M 13.258232235701911 22.18370883882153  C 13.258232235701911 28.65996533795493  18.469237435008665 33.90658578856153  24.93006932409014 33.96741767764297  L 27.753206239168094 38.00051993067592  C 26.852406781199306 38.08543570698714  25.948120525051877 38.12805907426656  25.043327556325835 38.128249566724435  C 14.661178509532077 38.128249566724435  5.548613518197584 32.586741767764295  0.6625649913344773 24.29540727902946  C -0.10536952329502469 22.992301651981734  -0.10536952329502469 21.375029370548646  0.6625649913344773 20.07192374350086  C 2.7442807625649834 16.53934142114383  5.594367417677631 13.505632582322391  8.983535528596178 11.18656845753901  L 13.92954939341422 18.252339688041616  C 13.495320623916795 19.481802426343165  13.258232235701911 20.804766031195868  13.258232235701911 22.18370883882153  Z M 49.424090121317136 20.072010398613543  C 50.19193488779501 21.37510946869304  50.19193488779501 22.99230820894996  49.424090121317136 24.29540727902946  C 46.67998266897746 28.95199306759099  42.600259965337955 32.74081455805896  37.71048526863086 35.1684575389948  L 37.71143847487002 35.169757365684575  L 41.3050259965338 40.29974003466208  C 41.96360485268633 41.24081455805896  41.73483535528595 42.53717504332758  40.793760831889074 43.19575389948011  L 39.657712305025996 43.9912478336222  C 38.71663778162912 44.64982668977473  37.420277296360496 44.42105719237435  36.761698440207965 43.47998266897747  L 8.781629116117841 4.0675909878683  C 8.12305025996534 3.126516464471422  8.35181975736569 1.8301559792028004  9.292894280762567 1.1715771230502696  L 10.428942807625646 0.376083188908126  C 11.370017331022524 -0.2824956672443477  12.666377816291174 -0.053726169844026124  13.324956672443678 0.887348353552852  L 17.747660311958384 7.179982668977459  C 20.07625649913348 6.566377816291151  22.522097053726156 6.239168110918571  25.043327556325835 6.239168110918571  C 35.42547660311959 6.239168110918571  44.53804159445406 11.78067590987871  49.424090121317136 20.072010398613543  Z M 33.95355285961875 29.900433275563277  C 35.74488734835353 27.833622183708826  36.82842287694973 25.136395147313692  36.82842287694973 22.18370883882153  C 36.82842287694973 15.669497400346643  31.556499133448877 10.398613518197578  25.043327556325835 10.398613518197578  C 23.488821490467956 10.398613518197578  22.00554592720971 10.69956672443675  20.64740034662043 11.24540727902945  L 22.319757365684552 13.590121317157697  C 24.561438474869988 12.882062391681131  27.089601386481775 13.05606585788564  29.286828422876965 14.232235701906404  L 29.284228769497417 14.232235701906404  C 27.234835355285952 14.232235701906404  25.573656845753927 15.893414211438483  25.573656845753927 17.942807625649948  C 25.573656845753927 19.99012131715773  27.232842287695007 21.653379549393435  29.284228769497417 21.653379549393435  C 31.333622183708826 21.653379549393435  32.994800693240904 19.992201039861357  32.994800693240904 17.942807625649948  L 32.994800693240904 17.9402079722704  C 34.59462738301562 20.928942807625674  34.40831889081454 24.691854419410735  32.2798960138648 27.55459272097056  L 33.95355285961875 29.900433275563277  Z M 16.07313691507798 21.314558058925513  C 15.638648180242626 25.854159445407277  18.613344887348376 29.837435008665523  22.79150779896014 30.912218370883917  L 16.07313691507798 21.314558058925513  Z " fill-rule="evenodd" />
    </mask>
  </defs>
  <g>
    <path d="M 13.258232235701911 22.18370883882153  C 13.258232235701911 28.65996533795493  18.469237435008665 33.90658578856153  24.93006932409014 33.96741767764297  L 27.753206239168094 38.00051993067592  C 26.852406781199306 38.08543570698714  25.948120525051877 38.12805907426656  25.043327556325835 38.128249566724435  C 14.661178509532077 38.128249566724435  5.548613518197584 32.586741767764295  0.6625649913344773 24.29540727902946  C -0.10536952329502469 22.992301651981734  -0.10536952329502469 21.375029370548646  0.6625649913344773 20.07192374350086  C 2.7442807625649834 16.53934142114383  5.594367417677631 13.505632582322391  8.983535528596178 11.18656845753901  L 13.92954939341422 18.252339688041616  C 13.495320623916795 19.481802426343165  13.258232235701911 20.804766031195868  13.258232235701911 22.18370883882153  Z M 49.424090121317136 20.072010398613543  C 50.19193488779501 21.37510946869304  50.19193488779501 22.99230820894996  49.424090121317136 24.29540727902946  C 46.67998266897746 28.95199306759099  42.600259965337955 32.74081455805896  37.71048526863086 35.1684575389948  L 37.71143847487002 35.169757365684575  L 41.3050259965338 40.29974003466208  C 41.96360485268633 41.24081455805896  41.73483535528595 42.53717504332758  40.793760831889074 43.19575389948011  L 39.657712305025996 43.9912478336222  C 38.71663778162912 44.64982668977473  37.420277296360496 44.42105719237435  36.761698440207965 43.47998266897747  L 8.781629116117841 4.0675909878683  C 8.12305025996534 3.126516464471422  8.35181975736569 1.8301559792028004  9.292894280762567 1.1715771230502696  L 10.428942807625646 0.376083188908126  C 11.370017331022524 -0.2824956672443477  12.666377816291174 -0.053726169844026124  13.324956672443678 0.887348353552852  L 17.747660311958384 7.179982668977459  C 20.07625649913348 6.566377816291151  22.522097053726156 6.239168110918571  25.043327556325835 6.239168110918571  C 35.42547660311959 6.239168110918571  44.53804159445406 11.78067590987871  49.424090121317136 20.072010398613543  Z M 33.95355285961875 29.900433275563277  C 35.74488734835353 27.833622183708826  36.82842287694973 25.136395147313692  36.82842287694973 22.18370883882153  C 36.82842287694973 15.669497400346643  31.556499133448877 10.398613518197578  25.043327556325835 10.398613518197578  C 23.488821490467956 10.398613518197578  22.00554592720971 10.69956672443675  20.64740034662043 11.24540727902945  L 22.319757365684552 13.590121317157697  C 24.561438474869988 12.882062391681131  27.089601386481775 13.05606585788564  29.286828422876965 14.232235701906404  L 29.284228769497417 14.232235701906404  C 27.234835355285952 14.232235701906404  25.573656845753927 15.893414211438483  25.573656845753927 17.942807625649948  C 25.573656845753927 19.99012131715773  27.232842287695007 21.653379549393435  29.284228769497417 21.653379549393435  C 31.333622183708826 21.653379549393435  32.994800693240904 19.992201039861357  32.994800693240904 17.942807625649948  L 32.994800693240904 17.9402079722704  C 34.59462738301562 20.928942807625674  34.40831889081454 24.691854419410735  32.2798960138648 27.55459272097056  L 33.95355285961875 29.900433275563277  Z M 16.07313691507798 21.314558058925513  C 15.638648180242626 25.854159445407277  18.613344887348376 29.837435008665523  22.79150779896014 30.912218370883917  L 16.07313691507798 21.314558058925513  Z " fill-rule="nonzero" fill="rgba(0, 0, 0, 1)" stroke="none" class="fill" />
    <path d="M 13.258232235701911 22.18370883882153  C 13.258232235701911 28.65996533795493  18.469237435008665 33.90658578856153  24.93006932409014 33.96741767764297  L 27.753206239168094 38.00051993067592  C 26.852406781199306 38.08543570698714  25.948120525051877 38.12805907426656  25.043327556325835 38.128249566724435  C 14.661178509532077 38.128249566724435  5.548613518197584 32.586741767764295  0.6625649913344773 24.29540727902946  C -0.10536952329502469 22.992301651981734  -0.10536952329502469 21.375029370548646  0.6625649913344773 20.07192374350086  C 2.7442807625649834 16.53934142114383  5.594367417677631 13.505632582322391  8.983535528596178 11.18656845753901  L 13.92954939341422 18.252339688041616  C 13.495320623916795 19.481802426343165  13.258232235701911 20.804766031195868  13.258232235701911 22.18370883882153  Z " stroke-width="0" stroke-dasharray="0" stroke="rgba(255, 255, 255, 0)" fill="none" class="stroke" mask="url(#Clip1526)" />
    <path d="M 49.424090121317136 20.072010398613543  C 50.19193488779501 21.37510946869304  50.19193488779501 22.99230820894996  49.424090121317136 24.29540727902946  C 46.67998266897746 28.95199306759099  42.600259965337955 32.74081455805896  37.71048526863086 35.1684575389948  L 37.71143847487002 35.169757365684575  L 41.3050259965338 40.29974003466208  C 41.96360485268633 41.24081455805896  41.73483535528595 42.53717504332758  40.793760831889074 43.19575389948011  L 39.657712305025996 43.9912478336222  C 38.71663778162912 44.64982668977473  37.420277296360496 44.42105719237435  36.761698440207965 43.47998266897747  L 8.781629116117841 4.0675909878683  C 8.12305025996534 3.126516464471422  8.35181975736569 1.8301559792028004  9.292894280762567 1.1715771230502696  L 10.428942807625646 0.376083188908126  C 11.370017331022524 -0.2824956672443477  12.666377816291174 -0.053726169844026124  13.324956672443678 0.887348353552852  L 17.747660311958384 7.179982668977459  C 20.07625649913348 6.566377816291151  22.522097053726156 6.239168110918571  25.043327556325835 6.239168110918571  C 35.42547660311959 6.239168110918571  44.53804159445406 11.78067590987871  49.424090121317136 20.072010398613543  Z " stroke-width="0" stroke-dasharray="0" stroke="rgba(255, 255, 255, 0)" fill="none" class="stroke" mask="url(#Clip1526)" />
    <path d="M 33.95355285961875 29.900433275563277  C 35.74488734835353 27.833622183708826  36.82842287694973 25.136395147313692  36.82842287694973 22.18370883882153  C 36.82842287694973 15.669497400346643  31.556499133448877 10.398613518197578  25.043327556325835 10.398613518197578  C 23.488821490467956 10.398613518197578  22.00554592720971 10.69956672443675  20.64740034662043 11.24540727902945  L 22.319757365684552 13.590121317157697  C 24.561438474869988 12.882062391681131  27.089601386481775 13.05606585788564  29.286828422876965 14.232235701906404  L 29.284228769497417 14.232235701906404  C 27.234835355285952 14.232235701906404  25.573656845753927 15.893414211438483  25.573656845753927 17.942807625649948  C 25.573656845753927 19.99012131715773  27.232842287695007 21.653379549393435  29.284228769497417 21.653379549393435  C 31.333622183708826 21.653379549393435  32.994800693240904 19.992201039861357  32.994800693240904 17.942807625649948  L 32.994800693240904 17.9402079722704  C 34.59462738301562 20.928942807625674  34.40831889081454 24.691854419410735  32.2798960138648 27.55459272097056  L 33.95355285961875 29.900433275563277  Z " stroke-width="0" stroke-dasharray="0" stroke="rgba(255, 255, 255, 0)" fill="none" class="stroke" mask="url(#Clip1526)" />
    <path d="M 16.07313691507798 21.314558058925513  C 15.638648180242626 25.854159445407277  18.613344887348376 29.837435008665523  22.79150779896014 30.912218370883917  L 16.07313691507798 21.314558058925513  Z " stroke-width="0" stroke-dasharray="0" stroke="rgba(255, 255, 255, 0)" fill="none" class="stroke" mask="url(#Clip1526)" />
  </g>
</svg>