<?xml version="1.0" encoding="utf-8"?>
<svg version="1.1" xmlns:xlink="http://www.w3.org/1999/xlink" width="24px" height="21px" xmlns="http://www.w3.org/2000/svg">
  <defs>
    <pattern id="BGPattern" patternUnits="userSpaceOnUse" alignment="0 0" imageRepeat="None" />
    <mask fill="white" id="Clip100">
      <path d="M 23.008 0.711999999999998  C 23.279999999999998 0.9359999999999982  23.439999999999998 1.2719999999999985  23.44 1.6239999999999999  C 23.44 1.8639999999999997  23.328000000000003 2.1679999999999993  23.152 2.3759999999999994  L 8.128000000000002 20.168  C 7.920000000000002 20.439999999999998  7.568000000000001 20.599999999999998  7.216000000000001 20.599999999999998  C 6.864000000000001 20.599999999999998  6.5280000000000005 20.424  6.208000000000002 20.072  L 0.7840000000000016 12.311999999999998  C 0.6400000000000015 12.104  0.5600000000000014 11.895999999999997  0.5600000000000014 11.639999999999997  C 0.5600000000000014 11.271999999999998  0.7520000000000016 10.919999999999996  1.088000000000001 10.663999999999998  C 1.2960000000000012 10.519999999999998  1.5040000000000013 10.439999999999998  1.7600000000000007 10.439999999999998  C 2.128000000000001 10.439999999999998  2.4800000000000004 10.631999999999998  2.7360000000000007 10.968  L 7.312000000000001 17.415999999999997  L 21.344 0.8239999999999981  C 21.552 0.5679999999999978  21.888 0.4079999999999977  22.224 0.4079999999999977  C 22.48 0.4079999999999977  22.784 0.5199999999999978  23.008 0.711999999999998  Z " fill-rule="evenodd" />
    </mask>
  </defs>
  <g>
    <path d="M 23.008 0.711999999999998  C 23.279999999999998 0.9359999999999982  23.439999999999998 1.2719999999999985  23.44 1.6239999999999999  C 23.44 1.8639999999999997  23.328000000000003 2.1679999999999993  23.152 2.3759999999999994  L 8.128000000000002 20.168  C 7.920000000000002 20.439999999999998  7.568000000000001 20.599999999999998  7.216000000000001 20.599999999999998  C 6.864000000000001 20.599999999999998  6.5280000000000005 20.424  6.208000000000002 20.072  L 0.7840000000000016 12.311999999999998  C 0.6400000000000015 12.104  0.5600000000000014 11.895999999999997  0.5600000000000014 11.639999999999997  C 0.5600000000000014 11.271999999999998  0.7520000000000016 10.919999999999996  1.088000000000001 10.663999999999998  C 1.2960000000000012 10.519999999999998  1.5040000000000013 10.439999999999998  1.7600000000000007 10.439999999999998  C 2.128000000000001 10.439999999999998  2.4800000000000004 10.631999999999998  2.7360000000000007 10.968  L 7.312000000000001 17.415999999999997  L 21.344 0.8239999999999981  C 21.552 0.5679999999999978  21.888 0.4079999999999977  22.224 0.4079999999999977  C 22.48 0.4079999999999977  22.784 0.5199999999999978  23.008 0.711999999999998  Z " fill-rule="nonzero" fill="rgba(0, 0, 0, 1)" stroke="none" class="fill" />
    <path d="M 23.008 0.711999999999998  C 23.279999999999998 0.9359999999999982  23.439999999999998 1.2719999999999985  23.44 1.6239999999999999  C 23.44 1.8639999999999997  23.328000000000003 2.1679999999999993  23.152 2.3759999999999994  L 8.128000000000002 20.168  C 7.920000000000002 20.439999999999998  7.568000000000001 20.599999999999998  7.216000000000001 20.599999999999998  C 6.864000000000001 20.599999999999998  6.5280000000000005 20.424  6.208000000000002 20.072  L 0.7840000000000016 12.311999999999998  C 0.6400000000000015 12.104  0.5600000000000014 11.895999999999997  0.5600000000000014 11.639999999999997  C 0.5600000000000014 11.271999999999998  0.7520000000000016 10.919999999999996  1.088000000000001 10.663999999999998  C 1.2960000000000012 10.519999999999998  1.5040000000000013 10.439999999999998  1.7600000000000007 10.439999999999998  C 2.128000000000001 10.439999999999998  2.4800000000000004 10.631999999999998  2.7360000000000007 10.968  L 7.312000000000001 17.415999999999997  L 21.344 0.8239999999999981  C 21.552 0.5679999999999978  21.888 0.4079999999999977  22.224 0.4079999999999977  C 22.48 0.4079999999999977  22.784 0.5199999999999978  23.008 0.711999999999998  Z " stroke-width="0" stroke-dasharray="0" stroke="rgba(255, 255, 255, 0)" fill="none" class="stroke" mask="url(#Clip100)" />
  </g>
</svg>