<?xml version="1.0" encoding="utf-8"?>
<svg version="1.1" xmlns:xlink="http://www.w3.org/1999/xlink" width="22px" height="22px" xmlns="http://www.w3.org/2000/svg">
  <defs>
    <pattern id="BGPattern" patternUnits="userSpaceOnUse" alignment="0 0" imageRepeat="None" />
    <mask fill="white" id="Clip6274">
      <path d="M 18.939500000000002 0.9395000000000016  C 19.525249777228723 0.3539270925007092  20.47475022277128 0.35392709250070764  21.0605 0.9394999999999998  C 21.646072907499295 1.525249777228721  21.646072907499295 2.474750222771279  21.0605 3.0604999999999993  L 3.060500000000001 21.0605  C 2.7808413521357456 21.330603359814063  2.4072314653650926 21.481567691408827  2.0184323085911755 21.481567691408827  C 1.1900051838449857 21.481567691408827  0.5184323085911757 20.809994816155015  0.5184323085911757 19.981567691408827  C 0.5184323085911757 19.59276853463491  0.669396640185939 19.21915864786426  0.939500000000001 18.939500000000002  L 18.939500000000002 0.9395000000000016  Z " fill-rule="evenodd" />
    </mask>
  </defs>
  <g>
    <path d="M 18.939500000000002 0.9395000000000016  C 19.525249777228723 0.3539270925007092  20.47475022277128 0.35392709250070764  21.0605 0.9394999999999998  C 21.646072907499295 1.525249777228721  21.646072907499295 2.474750222771279  21.0605 3.0604999999999993  L 3.060500000000001 21.0605  C 2.7808413521357456 21.330603359814063  2.4072314653650926 21.481567691408827  2.0184323085911755 21.481567691408827  C 1.1900051838449857 21.481567691408827  0.5184323085911757 20.809994816155015  0.5184323085911757 19.981567691408827  C 0.5184323085911757 19.59276853463491  0.669396640185939 19.21915864786426  0.939500000000001 18.939500000000002  L 18.939500000000002 0.9395000000000016  Z " fill-rule="nonzero" fill="rgba(0, 0, 0, 1)" stroke="none" class="fill" />
    <path d="M 18.939500000000002 0.9395000000000016  C 19.525249777228723 0.3539270925007092  20.47475022277128 0.35392709250070764  21.0605 0.9394999999999998  C 21.646072907499295 1.525249777228721  21.646072907499295 2.474750222771279  21.0605 3.0604999999999993  L 3.060500000000001 21.0605  C 2.7808413521357456 21.330603359814063  2.4072314653650926 21.481567691408827  2.0184323085911755 21.481567691408827  C 1.1900051838449857 21.481567691408827  0.5184323085911757 20.809994816155015  0.5184323085911757 19.981567691408827  C 0.5184323085911757 19.59276853463491  0.669396640185939 19.21915864786426  0.939500000000001 18.939500000000002  L 18.939500000000002 0.9395000000000016  Z " stroke-width="0" stroke-dasharray="0" stroke="rgba(255, 255, 255, 0)" fill="none" class="stroke" mask="url(#Clip6274)" />
  </g>
</svg>