<?xml version="1.0" encoding="utf-8"?>
<svg version="1.1" xmlns:xlink="http://www.w3.org/1999/xlink" width="6px" height="6px" xmlns="http://www.w3.org/2000/svg">
  <defs>
    <pattern id="BGPattern" patternUnits="userSpaceOnUse" alignment="0 0" imageRepeat="None" />
    <mask fill="white" id="Clip3264">
      <path d="M 0 6  L 5 6  L 5 5  L 1.7000000000000002 5  L 6 0.6999999999999993  L 5.3 0  L 1 4.300000000000001  L 1 1  L 0 1  L 0 6  Z " fill-rule="evenodd" />
    </mask>
  </defs>
  <g transform="matrix(1 0 0 1 -2 -10 )">
    <path d="M 0 6  L 5 6  L 5 5  L 1.7000000000000002 5  L 6 0.6999999999999993  L 5.3 0  L 1 4.300000000000001  L 1 1  L 0 1  L 0 6  Z " fill-rule="nonzero" fill="rgba(0, 0, 0, 1)" stroke="none" transform="matrix(1 0 0 1 2 10 )" class="fill" />
    <path d="M 0 6  L 5 6  L 5 5  L 1.7000000000000002 5  L 6 0.6999999999999993  L 5.3 0  L 1 4.300000000000001  L 1 1  L 0 1  L 0 6  Z " stroke-width="0" stroke-dasharray="0" stroke="rgba(255, 255, 255, 0)" fill="none" transform="matrix(1 0 0 1 2 10 )" class="stroke" mask="url(#Clip3264)" />
  </g>
</svg>