<?xml version="1.0" encoding="utf-8"?>
<svg version="1.1" xmlns:xlink="http://www.w3.org/1999/xlink" width="56px" height="56px" xmlns="http://www.w3.org/2000/svg">
  <defs>
    <pattern id="BGPattern" patternUnits="userSpaceOnUse" alignment="0 0" imageRepeat="None" />
    <mask fill="white" id="Clip2401">
      <path d="M 56 28  C 56 12.537500000000001  43.4625 0  28 0  C 12.537500000000001 0  0 12.537500000000001  0 28  C 0 43.4625  12.537500000000001 56  28 56  C 43.4625 56  56 43.4625  56 28  Z M 29.200000000000003 29.86250000000001  L 22.33125 29.862499999999997  L 22.325 29.956249999999997  C 22.23125 31.231249999999996  21.93125 32.699999999999996  21.51875 34.18125  L 23.01875 33.05  L 27.45625 38.09375  C 28.03125 40.15625  27.25 42.0375  27.25 42.0375  L 21.26875 35.04375  L 21.26875 35.0375  C 20.712500000000002 36.85  20.0125 38.61875  19.1875 40.331250000000004  C 17.775 43.18750000000001  15.7375 43.75000000000001  13.59375 43.93750000000001  C 11.44375 44.12500000000001  12.1375 43.60625000000001  12.1375 43.60625000000001  C 16.3875 40.13750000000001  17.0125 38.11875000000001  18.1875 35.91250000000001  C 18.93125 34.51875000000001  19.4625 31.893750000000008  19.76875 29.86250000000001  L 12.506250000000001 29.86250000000001  C 12.506250000000001 29.86250000000001  12.806250000000002 27.912500000000012  13.70625 27.256250000000012  L 20.05625 27.256250000000012  C 20.09375 26.30000000000001  19.974999999999998 20.83125000000001  19.93125 19.04375000000001  L 16.84375 19.04375000000001  C 16.26875 21.85625000000001  14.281250000000002 22.58750000000001  13.837499999999999 22.80000000000001  C 13.399999999999999 23.01250000000001  12.362499999999997 23.243750000000013  12.518749999999997 22.80000000000001  C 12.681249999999999 22.35625000000001  14.206249999999999 19.912500000000012  15.218749999999996 15.881250000000012  C 16.237499999999997 11.843750000000012  19.212499999999995 12.006250000000012  19.212499999999995 12.006250000000012  C 18.412499999999994 13.412500000000012  17.812499999999996 16.60625000000001  17.812499999999996 16.60625000000001  L 27.793749999999996 16.60625000000001  C 28.424999999999997 16.60625000000001  28.456249999999994 19.04375000000001  28.456249999999994 19.04375000000001  L 22.781249999999996 19.04375000000001  C 22.737499999999997 20.46250000000001  22.606249999999996 24.28125000000001  22.468749999999996 27.25625000000001  L 28.4375 27.25625000000001  C 28.4375 27.25625000000001  29.200000000000003 28.218750000000007  29.200000000000003 29.86250000000001  Z M 44 16  L 44 40.3  L 38.512499999999996 40.3  L 34.168749999999996 43.2125  L 33.14375 40.3  L 30 40.3  L 30 16  L 44 16  Z M 21.5125 34.1875  C 21.5125 34.1875  21.5125 34.18125  21.5125 34.1875  Z M 34.175000000000004 37.7  L 35.0125 40.08125  L 38.5625 37.699999999999996  L 41.4125 37.699999999999996  L 41 37.699999999999996  L 41 18.79375  L 33 18.79375  L 33 37.7  L 34.175000000000004 37.7  Z " fill-rule="evenodd" />
    </mask>
  </defs>
  <g>
    <path d="M 56 28  C 56 12.537500000000001  43.4625 0  28 0  C 12.537500000000001 0  0 12.537500000000001  0 28  C 0 43.4625  12.537500000000001 56  28 56  C 43.4625 56  56 43.4625  56 28  Z M 29.200000000000003 29.86250000000001  L 22.33125 29.862499999999997  L 22.325 29.956249999999997  C 22.23125 31.231249999999996  21.93125 32.699999999999996  21.51875 34.18125  L 23.01875 33.05  L 27.45625 38.09375  C 28.03125 40.15625  27.25 42.0375  27.25 42.0375  L 21.26875 35.04375  L 21.26875 35.0375  C 20.712500000000002 36.85  20.0125 38.61875  19.1875 40.331250000000004  C 17.775 43.18750000000001  15.7375 43.75000000000001  13.59375 43.93750000000001  C 11.44375 44.12500000000001  12.1375 43.60625000000001  12.1375 43.60625000000001  C 16.3875 40.13750000000001  17.0125 38.11875000000001  18.1875 35.91250000000001  C 18.93125 34.51875000000001  19.4625 31.893750000000008  19.76875 29.86250000000001  L 12.506250000000001 29.86250000000001  C 12.506250000000001 29.86250000000001  12.806250000000002 27.912500000000012  13.70625 27.256250000000012  L 20.05625 27.256250000000012  C 20.09375 26.30000000000001  19.974999999999998 20.83125000000001  19.93125 19.04375000000001  L 16.84375 19.04375000000001  C 16.26875 21.85625000000001  14.281250000000002 22.58750000000001  13.837499999999999 22.80000000000001  C 13.399999999999999 23.01250000000001  12.362499999999997 23.243750000000013  12.518749999999997 22.80000000000001  C 12.681249999999999 22.35625000000001  14.206249999999999 19.912500000000012  15.218749999999996 15.881250000000012  C 16.237499999999997 11.843750000000012  19.212499999999995 12.006250000000012  19.212499999999995 12.006250000000012  C 18.412499999999994 13.412500000000012  17.812499999999996 16.60625000000001  17.812499999999996 16.60625000000001  L 27.793749999999996 16.60625000000001  C 28.424999999999997 16.60625000000001  28.456249999999994 19.04375000000001  28.456249999999994 19.04375000000001  L 22.781249999999996 19.04375000000001  C 22.737499999999997 20.46250000000001  22.606249999999996 24.28125000000001  22.468749999999996 27.25625000000001  L 28.4375 27.25625000000001  C 28.4375 27.25625000000001  29.200000000000003 28.218750000000007  29.200000000000003 29.86250000000001  Z M 44 16  L 44 40.3  L 38.512499999999996 40.3  L 34.168749999999996 43.2125  L 33.14375 40.3  L 30 40.3  L 30 16  L 44 16  Z M 21.5125 34.1875  C 21.5125 34.1875  21.5125 34.18125  21.5125 34.1875  Z M 34.175000000000004 37.7  L 35.0125 40.08125  L 38.5625 37.699999999999996  L 41.4125 37.699999999999996  L 41 37.699999999999996  L 41 18.79375  L 33 18.79375  L 33 37.7  L 34.175000000000004 37.7  Z " fill-rule="nonzero" fill="rgba(0, 0, 0, 1)" stroke="none" class="fill" />
    <path d="M 56 28  C 56 12.537500000000001  43.4625 0  28 0  C 12.537500000000001 0  0 12.537500000000001  0 28  C 0 43.4625  12.537500000000001 56  28 56  C 43.4625 56  56 43.4625  56 28  Z " stroke-width="0" stroke-dasharray="0" stroke="rgba(255, 255, 255, 0)" fill="none" class="stroke" mask="url(#Clip2401)" />
    <path d="M 29.200000000000003 29.86250000000001  L 22.33125 29.862499999999997  L 22.325 29.956249999999997  C 22.23125 31.231249999999996  21.93125 32.699999999999996  21.51875 34.18125  L 23.01875 33.05  L 27.45625 38.09375  C 28.03125 40.15625  27.25 42.0375  27.25 42.0375  L 21.26875 35.04375  L 21.26875 35.0375  C 20.712500000000002 36.85  20.0125 38.61875  19.1875 40.331250000000004  C 17.775 43.18750000000001  15.7375 43.75000000000001  13.59375 43.93750000000001  C 11.44375 44.12500000000001  12.1375 43.60625000000001  12.1375 43.60625000000001  C 16.3875 40.13750000000001  17.0125 38.11875000000001  18.1875 35.91250000000001  C 18.93125 34.51875000000001  19.4625 31.893750000000008  19.76875 29.86250000000001  L 12.506250000000001 29.86250000000001  C 12.506250000000001 29.86250000000001  12.806250000000002 27.912500000000012  13.70625 27.256250000000012  L 20.05625 27.256250000000012  C 20.09375 26.30000000000001  19.974999999999998 20.83125000000001  19.93125 19.04375000000001  L 16.84375 19.04375000000001  C 16.26875 21.85625000000001  14.281250000000002 22.58750000000001  13.837499999999999 22.80000000000001  C 13.399999999999999 23.01250000000001  12.362499999999997 23.243750000000013  12.518749999999997 22.80000000000001  C 12.681249999999999 22.35625000000001  14.206249999999999 19.912500000000012  15.218749999999996 15.881250000000012  C 16.237499999999997 11.843750000000012  19.212499999999995 12.006250000000012  19.212499999999995 12.006250000000012  C 18.412499999999994 13.412500000000012  17.812499999999996 16.60625000000001  17.812499999999996 16.60625000000001  L 27.793749999999996 16.60625000000001  C 28.424999999999997 16.60625000000001  28.456249999999994 19.04375000000001  28.456249999999994 19.04375000000001  L 22.781249999999996 19.04375000000001  C 22.737499999999997 20.46250000000001  22.606249999999996 24.28125000000001  22.468749999999996 27.25625000000001  L 28.4375 27.25625000000001  C 28.4375 27.25625000000001  29.200000000000003 28.218750000000007  29.200000000000003 29.86250000000001  Z " stroke-width="0" stroke-dasharray="0" stroke="rgba(255, 255, 255, 0)" fill="none" class="stroke" mask="url(#Clip2401)" />
    <path d="M 44 16  L 44 40.3  L 38.512499999999996 40.3  L 34.168749999999996 43.2125  L 33.14375 40.3  L 30 40.3  L 30 16  L 44 16  Z " stroke-width="0" stroke-dasharray="0" stroke="rgba(255, 255, 255, 0)" fill="none" class="stroke" mask="url(#Clip2401)" />
    <path d="M 21.5125 34.1875  C 21.5125 34.1875  21.5125 34.18125  21.5125 34.1875  Z " stroke-width="0" stroke-dasharray="0" stroke="rgba(255, 255, 255, 0)" fill="none" class="stroke" mask="url(#Clip2401)" />
    <path d="M 34.175000000000004 37.7  L 35.0125 40.08125  L 38.5625 37.699999999999996  L 41.4125 37.699999999999996  L 41 37.699999999999996  L 41 18.79375  L 33 18.79375  L 33 37.7  L 34.175000000000004 37.7  Z " stroke-width="0" stroke-dasharray="0" stroke="rgba(255, 255, 255, 0)" fill="none" class="stroke" mask="url(#Clip2401)" />
  </g>
</svg>