<?xml version="1.0" encoding="utf-8"?>
<svg version="1.1" xmlns:xlink="http://www.w3.org/1999/xlink" width="8px" height="8px" xmlns="http://www.w3.org/2000/svg">
  <defs>
    <pattern id="BGPattern" patternUnits="userSpaceOnUse" alignment="0 0" imageRepeat="None" />
    <mask fill="white" id="Clip3565">
      <path d="M 8 1.4100000000000001  L 6.59 0  L 4 2.59  L 1.4100000000000001 0  L 0 1.4100000000000001  L 2.59 4  L 0 6.59  L 1.4100000000000001 8  L 4 5.41  L 6.59 8  L 8 6.59  L 5.41 4  L 8 1.4100000000000001  Z " fill-rule="evenodd" />
    </mask>
  </defs>
  <g transform="matrix(1 0 0 1 -12 -22 )">
    <path d="M 8 1.4100000000000001  L 6.59 0  L 4 2.59  L 1.4100000000000001 0  L 0 1.4100000000000001  L 2.59 4  L 0 6.59  L 1.4100000000000001 8  L 4 5.41  L 6.59 8  L 8 6.59  L 5.41 4  L 8 1.4100000000000001  Z " fill-rule="nonzero" fill="rgba(0, 0, 0, 1)" stroke="none" transform="matrix(1 0 0 1 12 22 )" class="fill" />
    <path d="M 8 1.4100000000000001  L 6.59 0  L 4 2.59  L 1.4100000000000001 0  L 0 1.4100000000000001  L 2.59 4  L 0 6.59  L 1.4100000000000001 8  L 4 5.41  L 6.59 8  L 8 6.59  L 5.41 4  L 8 1.4100000000000001  Z " stroke-width="0" stroke-dasharray="0" stroke="rgba(255, 255, 255, 0)" fill="none" transform="matrix(1 0 0 1 12 22 )" class="stroke" mask="url(#Clip3565)" />
  </g>
</svg>