<?xml version="1.0" encoding="utf-8"?>
<svg version="1.1" xmlns:xlink="http://www.w3.org/1999/xlink" width="48px" height="64px" xmlns="http://www.w3.org/2000/svg">
  <defs>
    <pattern id="BGPattern" patternUnits="userSpaceOnUse" alignment="0 0" imageRepeat="None" />
    <mask fill="white" id="Clip1798">
      <path d="M 0 28  L 0 43.99999999999999  C 0 55.04569499661586  8.95430500338413 63.99999999999999  20 64  L 27.999999999999996 63.99999999999999  C 39.04569499661587 63.99999999999999  48 55.04569499661586  48 43.99999999999999  L 48 28  L 0 28  Z M 22 24  L 22 0  L 19.999999999999996 0  C 8.95430500338413 0  0 8.95430500338413  0 20  L 0 24  L 22 24  Z M 28 0  L 26 0  L 26 24  L 48 24  L 48 19.999999999999996  C 48 8.95430500338413  39.04569499661587 0  28 0  Z " fill-rule="evenodd" />
    </mask>
  </defs>
  <g>
    <path d="M 0 28  L 0 43.99999999999999  C 0 55.04569499661586  8.95430500338413 63.99999999999999  20 64  L 27.999999999999996 63.99999999999999  C 39.04569499661587 63.99999999999999  48 55.04569499661586  48 43.99999999999999  L 48 28  L 0 28  Z M 22 24  L 22 0  L 19.999999999999996 0  C 8.95430500338413 0  0 8.95430500338413  0 20  L 0 24  L 22 24  Z M 28 0  L 26 0  L 26 24  L 48 24  L 48 19.999999999999996  C 48 8.95430500338413  39.04569499661587 0  28 0  Z " fill-rule="nonzero" fill="rgba(0, 0, 0, 1)" stroke="none" class="fill" />
    <path d="M 0 28  L 0 43.99999999999999  C 0 55.04569499661586  8.95430500338413 63.99999999999999  20 64  L 27.999999999999996 63.99999999999999  C 39.04569499661587 63.99999999999999  48 55.04569499661586  48 43.99999999999999  L 48 28  L 0 28  Z " stroke-width="0" stroke-dasharray="0" stroke="rgba(255, 255, 255, 0)" fill="none" class="stroke" mask="url(#Clip1798)" />
    <path d="M 22 24  L 22 0  L 19.999999999999996 0  C 8.95430500338413 0  0 8.95430500338413  0 20  L 0 24  L 22 24  Z " stroke-width="0" stroke-dasharray="0" stroke="rgba(255, 255, 255, 0)" fill="none" class="stroke" mask="url(#Clip1798)" />
    <path d="M 28 0  L 26 0  L 26 24  L 48 24  L 48 19.999999999999996  C 48 8.95430500338413  39.04569499661587 0  28 0  Z " stroke-width="0" stroke-dasharray="0" stroke="rgba(255, 255, 255, 0)" fill="none" class="stroke" mask="url(#Clip1798)" />
  </g>
</svg>