<?xml version="1.0" encoding="utf-8"?>
<svg version="1.1" xmlns:xlink="http://www.w3.org/1999/xlink" width="50px" height="50px" xmlns="http://www.w3.org/2000/svg">
  <defs>
    <pattern id="BGPattern" patternUnits="userSpaceOnUse" alignment="0 0" imageRepeat="None" />
    <mask fill="white" id="Clip1441">
      <path d="M 27.28125 22.71875  C 26.02116935483872 21.45967741935482  23.97883064516128 21.45967741935482  22.719758064516128 22.71875  C 21.459677419354847 23.97883064516128  21.459677419354847 26.02116935483872  22.719758064516128 27.2802419354839  C 23.97883064516128 28.54032258064518  26.022177419354847 28.54032258064518  27.28125 27.2802419354839  C 28.541330645161285 26.020161290322562  28.541330645161285 23.97782258064518  27.28125 22.71875  Z M 50 25  C 50 11.192540322580669  38.80745967741936 0  25 0  C 11.19254032258064 0  0 11.192540322580669  0 25  C 0 38.80745967741939  11.19254032258064 50  25 50  C 38.80745967741936 50  50 38.80745967741939  50 25  Z M 35.075604838709694 12.283266129032256  C 36.75403225806451 11.517137096774206  38.48286290322582 13.245967741935488  37.715725806451616 14.924395161290304  L 31.065524193548384 29.475806451612925  C 30.743860270719836 30.179522765719526  30.179522765719497 30.743860270719836  29.475806451612897 31.06552419354841  L 14.925403225806463 37.71572580645159  C 13.246975806451616 38.482862903225794  11.517137096774206 36.75302419354841  12.284274193548384 35.07459677419354  L 18.935483870967744 20.523185483870975  C 19.257147793796292 19.819469169764375  19.82148529879663 19.255131664764065  20.52520161290323 18.933467741935488  L 35.075604838709694 12.283266129032256  Z " fill-rule="evenodd" />
    </mask>
  </defs>
  <g>
    <path d="M 27.28125 22.71875  C 26.02116935483872 21.45967741935482  23.97883064516128 21.45967741935482  22.719758064516128 22.71875  C 21.459677419354847 23.97883064516128  21.459677419354847 26.02116935483872  22.719758064516128 27.2802419354839  C 23.97883064516128 28.54032258064518  26.022177419354847 28.54032258064518  27.28125 27.2802419354839  C 28.541330645161285 26.020161290322562  28.541330645161285 23.97782258064518  27.28125 22.71875  Z M 50 25  C 50 11.192540322580669  38.80745967741936 0  25 0  C 11.19254032258064 0  0 11.192540322580669  0 25  C 0 38.80745967741939  11.19254032258064 50  25 50  C 38.80745967741936 50  50 38.80745967741939  50 25  Z M 35.075604838709694 12.283266129032256  C 36.75403225806451 11.517137096774206  38.48286290322582 13.245967741935488  37.715725806451616 14.924395161290304  L 31.065524193548384 29.475806451612925  C 30.743860270719836 30.179522765719526  30.179522765719497 30.743860270719836  29.475806451612897 31.06552419354841  L 14.925403225806463 37.71572580645159  C 13.246975806451616 38.482862903225794  11.517137096774206 36.75302419354841  12.284274193548384 35.07459677419354  L 18.935483870967744 20.523185483870975  C 19.257147793796292 19.819469169764375  19.82148529879663 19.255131664764065  20.52520161290323 18.933467741935488  L 35.075604838709694 12.283266129032256  Z " fill-rule="nonzero" fill="rgba(0, 0, 0, 1)" stroke="none" class="fill" />
    <path d="M 27.28125 22.71875  C 26.02116935483872 21.45967741935482  23.97883064516128 21.45967741935482  22.719758064516128 22.71875  C 21.459677419354847 23.97883064516128  21.459677419354847 26.02116935483872  22.719758064516128 27.2802419354839  C 23.97883064516128 28.54032258064518  26.022177419354847 28.54032258064518  27.28125 27.2802419354839  C 28.541330645161285 26.020161290322562  28.541330645161285 23.97782258064518  27.28125 22.71875  Z " stroke-width="0" stroke-dasharray="0" stroke="rgba(255, 255, 255, 0)" fill="none" class="stroke" mask="url(#Clip1441)" />
    <path d="M 50 25  C 50 11.192540322580669  38.80745967741936 0  25 0  C 11.19254032258064 0  0 11.192540322580669  0 25  C 0 38.80745967741939  11.19254032258064 50  25 50  C 38.80745967741936 50  50 38.80745967741939  50 25  Z " stroke-width="0" stroke-dasharray="0" stroke="rgba(255, 255, 255, 0)" fill="none" class="stroke" mask="url(#Clip1441)" />
    <path d="M 35.075604838709694 12.283266129032256  C 36.75403225806451 11.517137096774206  38.48286290322582 13.245967741935488  37.715725806451616 14.924395161290304  L 31.065524193548384 29.475806451612925  C 30.743860270719836 30.179522765719526  30.179522765719497 30.743860270719836  29.475806451612897 31.06552419354841  L 14.925403225806463 37.71572580645159  C 13.246975806451616 38.482862903225794  11.517137096774206 36.75302419354841  12.284274193548384 35.07459677419354  L 18.935483870967744 20.523185483870975  C 19.257147793796292 19.819469169764375  19.82148529879663 19.255131664764065  20.52520161290323 18.933467741935488  L 35.075604838709694 12.283266129032256  Z " stroke-width="0" stroke-dasharray="0" stroke="rgba(255, 255, 255, 0)" fill="none" class="stroke" mask="url(#Clip1441)" />
  </g>
</svg>