<?xml version="1.0" encoding="utf-8"?>
<svg version="1.1" xmlns:xlink="http://www.w3.org/1999/xlink" width="21px" height="25px" xmlns="http://www.w3.org/2000/svg">
  <defs>
    <pattern id="BGPattern" patternUnits="userSpaceOnUse" alignment="0 0" imageRepeat="None" />
    <mask fill="white" id="Clip5613">
      <path d="M 14.25 0  L 21 6.75  L 21 21  C 21 22.65685424949238  19.65685424949238 24  18 24  L 17.25 24  L 17.25 22.5  L 18 22.5  C 18.82842712474619 22.5  19.5 21.82842712474619  19.5 21  L 19.5 6.75  L 16.5 6.75  C 15.257359312880716 6.75  14.25 5.742640687119285  14.25 4.5  L 14.25 1.5  L 6 1.5  C 5.17157287525381 1.5  4.5 2.1715728752538097  4.5 3  L 4.5 16.5  L 3 16.5  L 3 3  C 3 1.3431457505076196  4.343145750507619 0  6 0  L 14.25 0  Z M 3.498 18.1665  C 3.1980000000000004 17.986500000000003  2.8335000000000004 17.898  2.4000000000000004 17.898  L 0 17.898  L 0 23.898  L 1.1865 23.898  L 1.1865 21.8835  L 2.391 21.8835  C 2.8214999999999995 21.8835  3.1874999999999996 21.798000000000002  3.489 21.624000000000002  C 3.7935 21.4485  4.026 21.2115  4.1835 20.913  C 4.346979922147954 20.599769380624423  4.429971875138859 20.250790795687507  4.425000000000001 19.8975  C 4.425000000000001 19.5225  4.3455 19.183500000000002  4.188000000000001 18.882  C 4.031340919508677 18.58228937248503  3.7918307178198782 18.33392770682077  3.498 18.1665  Z M 5.821499999999999 22.261499999999998  L 4.674 22.261499999999998  C 4.691364200149878 22.739429792212015  4.909820985938507 23.18778374409242  5.275500000000001 23.496  C 5.4705 23.658  5.7075000000000005 23.784  5.9925 23.874000000000002  C 6.277500000000002 23.9655  6.609 24.0105  6.99 24.0105  C 7.497 24.0105  7.926 23.931  8.277 23.773500000000002  C 8.6325 23.616000000000003  8.901 23.395500000000002  9.087 23.113500000000002  C 9.276162132795127 22.820642174732377  9.37381318097667 22.478080208919046  9.3675 22.129500000000004  C 9.3675 21.7935  9.3 21.5145  9.165000000000001 21.289500000000004  C 9.027762661028483 21.064713732912566  8.833759884177317 20.880023089350257  8.602500000000001 20.754  C 8.337277856618691 20.60734887124361  8.051620257487576 20.50117525032762  7.755 20.439  L 6.823500000000001 20.223000000000003  C 6.603395978060164 20.182877152765148  6.395509505678815 20.092536364767327  6.215999999999999 19.959000000000003  C 6.07779482543768 19.85167398171527  5.998298852354842 19.6854551289057  6.001499999999999 19.5105  C 6.001499999999999 19.276500000000002  6.092999999999999 19.084500000000002  6.2775 18.9345  C 6.465 18.783  6.7215 18.706500000000002  7.046999999999999 18.706500000000002  C 7.261499999999999 18.706500000000002  7.446 18.741000000000003  7.601999999999999 18.8085  C 7.745016421416651 18.86730660601592  7.871265809485746 18.960576562099618  7.9695 19.080000000000005  C 8.061819000375294 19.19135089510531  8.123820449961173 19.324654011714944  8.1495 19.467000000000002  L 9.2745 19.467000000000002  C 9.256218969097448 19.16168099902884  9.15281586933919 18.86757972031942  8.975999999999999 18.618000000000002  C 8.786417427943404 18.348760615131233  8.527159914966825 18.13616945449044  8.225999999999999 18.003  C 7.857660043336068 17.841411248588955  7.458062105719297 17.763540881258507  7.055999999999999 17.775000000000002  C 6.616499999999999 17.775000000000002  6.228 17.85  5.8919999999999995 18.000000000000004  C 5.5545 18.148500000000002  5.292 18.360000000000003  5.1 18.631500000000003  C 4.9094999999999995 18.904500000000002  4.8149999999999995 19.224  4.8149999999999995 19.59  C 4.8149999999999995 19.8915  4.875 20.154  4.9995 20.375999999999998  C 5.1225000000000005 20.5995  5.298 20.781  5.526 20.9265  C 5.7555000000000005 21.069000000000003  6.024 21.177  6.336 21.246  L 7.263000000000002 21.462  C 7.573500000000001 21.5355  7.803000000000001 21.6315  7.956 21.7515  C 8.10829853652508 21.866810121350106  8.194118162168504 22.049667624355052  8.1855 22.2405  C 8.18839859816706 22.39511521407464  8.143905938001343 22.546913701698852  8.057999999999998 22.675499999999996  C 7.961413411739894 22.807190365591424  7.828472131340097 22.90780866801167  7.6754999999999995 22.964999999999996  C 7.509 23.0355  7.3020000000000005 23.07  7.055999999999999 23.07  C 6.8805 23.07  6.719999999999999 23.0505  6.575999999999998 23.009999999999998  C 6.44338463201947 22.973274706436925  6.317708842558709 22.91499762664665  6.203999999999999 22.8375  C 6.002143622882322 22.706847231467343  5.863611130723445 22.498233596216323  5.821499999999999 22.261499999999998  Z M 10.1325 23.8965  L 10.131 23.896500000000003  L 10.131 17.898  L 12.319499999999998 17.898  C 12.9285 17.898  13.429499999999999 18.015  13.825499999999998 18.249000000000002  C 14.221499999999997 18.4845  14.5155 18.8235  14.710499999999998 19.269  C 14.9055 19.7145  15.002999999999997 20.2515  15.002999999999997 20.8815  C 15.002999999999997 21.514499999999998  14.9055 22.0575  14.709 22.5075  C 14.513999999999998 22.959  14.215499999999999 23.3025  13.818000000000001 23.540999999999997  C 13.421999999999999 23.778  12.9225 23.8965  12.318 23.8965  L 10.1325 23.8965  Z M 2.9399999999999995 19.116000000000003  C 3.1245000000000003 19.296  3.2175000000000002 19.558500000000002  3.2175000000000002 19.8975  C 3.2229074715686132 20.09513153351662  3.1790932694318084 20.291006790128215  3.09 20.4675  C 3.0100712125898275 20.621166375295836  2.885653164008963 20.74715271860671  2.7329999999999997 20.829  C 2.558402379576608 20.9154468573625  2.365243620249246 20.957684239402084  2.1705 20.952  L 1.182 20.952  L 1.182 18.843000000000004  L 2.1719999999999997 18.843000000000004  C 2.4989999999999997 18.843000000000004  2.7555000000000005 18.933000000000003  2.9399999999999995 19.116000000000003  Z M 13.073999999999998 19.0935  C 12.836999999999996 18.9405  12.533999999999997 18.8655  12.1605 18.865500000000004  L 11.317499999999999 18.865500000000004  L 11.317499999999999 22.926000000000002  L 12.1605 22.926000000000002  C 12.439499999999999 22.926000000000002  12.680999999999997 22.884000000000004  12.885000000000002 22.803000000000004  C 13.08257556761898 22.723674948773557  13.255489529312909 22.5932129177949  13.385999999999997 22.425  C 13.527009065627059 22.236582220631227  13.62760794389455 22.021086146372937  13.681499999999996 21.792  C 13.748999999999999 21.540000000000003  13.782 21.243000000000002  13.782 20.904  C 13.792872208484596 20.519947727318396  13.733393133693834 20.13714650238296  13.606499999999997 19.774499999999996  C 13.509443690138395 19.494722490377292  13.322117954539355 19.255156620061904  13.073999999999998 19.0935  Z " fill-rule="evenodd" />
    </mask>
  </defs>
  <g>
    <path d="M 14.25 0  L 21 6.75  L 21 21  C 21 22.65685424949238  19.65685424949238 24  18 24  L 17.25 24  L 17.25 22.5  L 18 22.5  C 18.82842712474619 22.5  19.5 21.82842712474619  19.5 21  L 19.5 6.75  L 16.5 6.75  C 15.257359312880716 6.75  14.25 5.742640687119285  14.25 4.5  L 14.25 1.5  L 6 1.5  C 5.17157287525381 1.5  4.5 2.1715728752538097  4.5 3  L 4.5 16.5  L 3 16.5  L 3 3  C 3 1.3431457505076196  4.343145750507619 0  6 0  L 14.25 0  Z M 3.498 18.1665  C 3.1980000000000004 17.986500000000003  2.8335000000000004 17.898  2.4000000000000004 17.898  L 0 17.898  L 0 23.898  L 1.1865 23.898  L 1.1865 21.8835  L 2.391 21.8835  C 2.8214999999999995 21.8835  3.1874999999999996 21.798000000000002  3.489 21.624000000000002  C 3.7935 21.4485  4.026 21.2115  4.1835 20.913  C 4.346979922147954 20.599769380624423  4.429971875138859 20.250790795687507  4.425000000000001 19.8975  C 4.425000000000001 19.5225  4.3455 19.183500000000002  4.188000000000001 18.882  C 4.031340919508677 18.58228937248503  3.7918307178198782 18.33392770682077  3.498 18.1665  Z M 5.821499999999999 22.261499999999998  L 4.674 22.261499999999998  C 4.691364200149878 22.739429792212015  4.909820985938507 23.18778374409242  5.275500000000001 23.496  C 5.4705 23.658  5.7075000000000005 23.784  5.9925 23.874000000000002  C 6.277500000000002 23.9655  6.609 24.0105  6.99 24.0105  C 7.497 24.0105  7.926 23.931  8.277 23.773500000000002  C 8.6325 23.616000000000003  8.901 23.395500000000002  9.087 23.113500000000002  C 9.276162132795127 22.820642174732377  9.37381318097667 22.478080208919046  9.3675 22.129500000000004  C 9.3675 21.7935  9.3 21.5145  9.165000000000001 21.289500000000004  C 9.027762661028483 21.064713732912566  8.833759884177317 20.880023089350257  8.602500000000001 20.754  C 8.337277856618691 20.60734887124361  8.051620257487576 20.50117525032762  7.755 20.439  L 6.823500000000001 20.223000000000003  C 6.603395978060164 20.182877152765148  6.395509505678815 20.092536364767327  6.215999999999999 19.959000000000003  C 6.07779482543768 19.85167398171527  5.998298852354842 19.6854551289057  6.001499999999999 19.5105  C 6.001499999999999 19.276500000000002  6.092999999999999 19.084500000000002  6.2775 18.9345  C 6.465 18.783  6.7215 18.706500000000002  7.046999999999999 18.706500000000002  C 7.261499999999999 18.706500000000002  7.446 18.741000000000003  7.601999999999999 18.8085  C 7.745016421416651 18.86730660601592  7.871265809485746 18.960576562099618  7.9695 19.080000000000005  C 8.061819000375294 19.19135089510531  8.123820449961173 19.324654011714944  8.1495 19.467000000000002  L 9.2745 19.467000000000002  C 9.256218969097448 19.16168099902884  9.15281586933919 18.86757972031942  8.975999999999999 18.618000000000002  C 8.786417427943404 18.348760615131233  8.527159914966825 18.13616945449044  8.225999999999999 18.003  C 7.857660043336068 17.841411248588955  7.458062105719297 17.763540881258507  7.055999999999999 17.775000000000002  C 6.616499999999999 17.775000000000002  6.228 17.85  5.8919999999999995 18.000000000000004  C 5.5545 18.148500000000002  5.292 18.360000000000003  5.1 18.631500000000003  C 4.9094999999999995 18.904500000000002  4.8149999999999995 19.224  4.8149999999999995 19.59  C 4.8149999999999995 19.8915  4.875 20.154  4.9995 20.375999999999998  C 5.1225000000000005 20.5995  5.298 20.781  5.526 20.9265  C 5.7555000000000005 21.069000000000003  6.024 21.177  6.336 21.246  L 7.263000000000002 21.462  C 7.573500000000001 21.5355  7.803000000000001 21.6315  7.956 21.7515  C 8.10829853652508 21.866810121350106  8.194118162168504 22.049667624355052  8.1855 22.2405  C 8.18839859816706 22.39511521407464  8.143905938001343 22.546913701698852  8.057999999999998 22.675499999999996  C 7.961413411739894 22.807190365591424  7.828472131340097 22.90780866801167  7.6754999999999995 22.964999999999996  C 7.509 23.0355  7.3020000000000005 23.07  7.055999999999999 23.07  C 6.8805 23.07  6.719999999999999 23.0505  6.575999999999998 23.009999999999998  C 6.44338463201947 22.973274706436925  6.317708842558709 22.91499762664665  6.203999999999999 22.8375  C 6.002143622882322 22.706847231467343  5.863611130723445 22.498233596216323  5.821499999999999 22.261499999999998  Z M 10.1325 23.8965  L 10.131 23.896500000000003  L 10.131 17.898  L 12.319499999999998 17.898  C 12.9285 17.898  13.429499999999999 18.015  13.825499999999998 18.249000000000002  C 14.221499999999997 18.4845  14.5155 18.8235  14.710499999999998 19.269  C 14.9055 19.7145  15.002999999999997 20.2515  15.002999999999997 20.8815  C 15.002999999999997 21.514499999999998  14.9055 22.0575  14.709 22.5075  C 14.513999999999998 22.959  14.215499999999999 23.3025  13.818000000000001 23.540999999999997  C 13.421999999999999 23.778  12.9225 23.8965  12.318 23.8965  L 10.1325 23.8965  Z M 2.9399999999999995 19.116000000000003  C 3.1245000000000003 19.296  3.2175000000000002 19.558500000000002  3.2175000000000002 19.8975  C 3.2229074715686132 20.09513153351662  3.1790932694318084 20.291006790128215  3.09 20.4675  C 3.0100712125898275 20.621166375295836  2.885653164008963 20.74715271860671  2.7329999999999997 20.829  C 2.558402379576608 20.9154468573625  2.365243620249246 20.957684239402084  2.1705 20.952  L 1.182 20.952  L 1.182 18.843000000000004  L 2.1719999999999997 18.843000000000004  C 2.4989999999999997 18.843000000000004  2.7555000000000005 18.933000000000003  2.9399999999999995 19.116000000000003  Z M 13.073999999999998 19.0935  C 12.836999999999996 18.9405  12.533999999999997 18.8655  12.1605 18.865500000000004  L 11.317499999999999 18.865500000000004  L 11.317499999999999 22.926000000000002  L 12.1605 22.926000000000002  C 12.439499999999999 22.926000000000002  12.680999999999997 22.884000000000004  12.885000000000002 22.803000000000004  C 13.08257556761898 22.723674948773557  13.255489529312909 22.5932129177949  13.385999999999997 22.425  C 13.527009065627059 22.236582220631227  13.62760794389455 22.021086146372937  13.681499999999996 21.792  C 13.748999999999999 21.540000000000003  13.782 21.243000000000002  13.782 20.904  C 13.792872208484596 20.519947727318396  13.733393133693834 20.13714650238296  13.606499999999997 19.774499999999996  C 13.509443690138395 19.494722490377292  13.322117954539355 19.255156620061904  13.073999999999998 19.0935  Z " fill-rule="nonzero" fill="rgba(0, 0, 0, 1)" stroke="none" class="fill" />
    <path d="M 14.25 0  L 21 6.75  L 21 21  C 21 22.65685424949238  19.65685424949238 24  18 24  L 17.25 24  L 17.25 22.5  L 18 22.5  C 18.82842712474619 22.5  19.5 21.82842712474619  19.5 21  L 19.5 6.75  L 16.5 6.75  C 15.257359312880716 6.75  14.25 5.742640687119285  14.25 4.5  L 14.25 1.5  L 6 1.5  C 5.17157287525381 1.5  4.5 2.1715728752538097  4.5 3  L 4.5 16.5  L 3 16.5  L 3 3  C 3 1.3431457505076196  4.343145750507619 0  6 0  L 14.25 0  Z " stroke-width="0" stroke-dasharray="0" stroke="rgba(255, 255, 255, 0)" fill="none" class="stroke" mask="url(#Clip5613)" />
    <path d="M 3.498 18.1665  C 3.1980000000000004 17.986500000000003  2.8335000000000004 17.898  2.4000000000000004 17.898  L 0 17.898  L 0 23.898  L 1.1865 23.898  L 1.1865 21.8835  L 2.391 21.8835  C 2.8214999999999995 21.8835  3.1874999999999996 21.798000000000002  3.489 21.624000000000002  C 3.7935 21.4485  4.026 21.2115  4.1835 20.913  C 4.346979922147954 20.599769380624423  4.429971875138859 20.250790795687507  4.425000000000001 19.8975  C 4.425000000000001 19.5225  4.3455 19.183500000000002  4.188000000000001 18.882  C 4.031340919508677 18.58228937248503  3.7918307178198782 18.33392770682077  3.498 18.1665  Z " stroke-width="0" stroke-dasharray="0" stroke="rgba(255, 255, 255, 0)" fill="none" class="stroke" mask="url(#Clip5613)" />
    <path d="M 5.821499999999999 22.261499999999998  L 4.674 22.261499999999998  C 4.691364200149878 22.739429792212015  4.909820985938507 23.18778374409242  5.275500000000001 23.496  C 5.4705 23.658  5.7075000000000005 23.784  5.9925 23.874000000000002  C 6.277500000000002 23.9655  6.609 24.0105  6.99 24.0105  C 7.497 24.0105  7.926 23.931  8.277 23.773500000000002  C 8.6325 23.616000000000003  8.901 23.395500000000002  9.087 23.113500000000002  C 9.276162132795127 22.820642174732377  9.37381318097667 22.478080208919046  9.3675 22.129500000000004  C 9.3675 21.7935  9.3 21.5145  9.165000000000001 21.289500000000004  C 9.027762661028483 21.064713732912566  8.833759884177317 20.880023089350257  8.602500000000001 20.754  C 8.337277856618691 20.60734887124361  8.051620257487576 20.50117525032762  7.755 20.439  L 6.823500000000001 20.223000000000003  C 6.603395978060164 20.182877152765148  6.395509505678815 20.092536364767327  6.215999999999999 19.959000000000003  C 6.07779482543768 19.85167398171527  5.998298852354842 19.6854551289057  6.001499999999999 19.5105  C 6.001499999999999 19.276500000000002  6.092999999999999 19.084500000000002  6.2775 18.9345  C 6.465 18.783  6.7215 18.706500000000002  7.046999999999999 18.706500000000002  C 7.261499999999999 18.706500000000002  7.446 18.741000000000003  7.601999999999999 18.8085  C 7.745016421416651 18.86730660601592  7.871265809485746 18.960576562099618  7.9695 19.080000000000005  C 8.061819000375294 19.19135089510531  8.123820449961173 19.324654011714944  8.1495 19.467000000000002  L 9.2745 19.467000000000002  C 9.256218969097448 19.16168099902884  9.15281586933919 18.86757972031942  8.975999999999999 18.618000000000002  C 8.786417427943404 18.348760615131233  8.527159914966825 18.13616945449044  8.225999999999999 18.003  C 7.857660043336068 17.841411248588955  7.458062105719297 17.763540881258507  7.055999999999999 17.775000000000002  C 6.616499999999999 17.775000000000002  6.228 17.85  5.8919999999999995 18.000000000000004  C 5.5545 18.148500000000002  5.292 18.360000000000003  5.1 18.631500000000003  C 4.9094999999999995 18.904500000000002  4.8149999999999995 19.224  4.8149999999999995 19.59  C 4.8149999999999995 19.8915  4.875 20.154  4.9995 20.375999999999998  C 5.1225000000000005 20.5995  5.298 20.781  5.526 20.9265  C 5.7555000000000005 21.069000000000003  6.024 21.177  6.336 21.246  L 7.263000000000002 21.462  C 7.573500000000001 21.5355  7.803000000000001 21.6315  7.956 21.7515  C 8.10829853652508 21.866810121350106  8.194118162168504 22.049667624355052  8.1855 22.2405  C 8.18839859816706 22.39511521407464  8.143905938001343 22.546913701698852  8.057999999999998 22.675499999999996  C 7.961413411739894 22.807190365591424  7.828472131340097 22.90780866801167  7.6754999999999995 22.964999999999996  C 7.509 23.0355  7.3020000000000005 23.07  7.055999999999999 23.07  C 6.8805 23.07  6.719999999999999 23.0505  6.575999999999998 23.009999999999998  C 6.44338463201947 22.973274706436925  6.317708842558709 22.91499762664665  6.203999999999999 22.8375  C 6.002143622882322 22.706847231467343  5.863611130723445 22.498233596216323  5.821499999999999 22.261499999999998  Z " stroke-width="0" stroke-dasharray="0" stroke="rgba(255, 255, 255, 0)" fill="none" class="stroke" mask="url(#Clip5613)" />
    <path d="M 10.1325 23.8965  L 10.131 23.896500000000003  L 10.131 17.898  L 12.319499999999998 17.898  C 12.9285 17.898  13.429499999999999 18.015  13.825499999999998 18.249000000000002  C 14.221499999999997 18.4845  14.5155 18.8235  14.710499999999998 19.269  C 14.9055 19.7145  15.002999999999997 20.2515  15.002999999999997 20.8815  C 15.002999999999997 21.514499999999998  14.9055 22.0575  14.709 22.5075  C 14.513999999999998 22.959  14.215499999999999 23.3025  13.818000000000001 23.540999999999997  C 13.421999999999999 23.778  12.9225 23.8965  12.318 23.8965  L 10.1325 23.8965  Z " stroke-width="0" stroke-dasharray="0" stroke="rgba(255, 255, 255, 0)" fill="none" class="stroke" mask="url(#Clip5613)" />
    <path d="M 2.9399999999999995 19.116000000000003  C 3.1245000000000003 19.296  3.2175000000000002 19.558500000000002  3.2175000000000002 19.8975  C 3.2229074715686132 20.09513153351662  3.1790932694318084 20.291006790128215  3.09 20.4675  C 3.0100712125898275 20.621166375295836  2.885653164008963 20.74715271860671  2.7329999999999997 20.829  C 2.558402379576608 20.9154468573625  2.365243620249246 20.957684239402084  2.1705 20.952  L 1.182 20.952  L 1.182 18.843000000000004  L 2.1719999999999997 18.843000000000004  C 2.4989999999999997 18.843000000000004  2.7555000000000005 18.933000000000003  2.9399999999999995 19.116000000000003  Z " stroke-width="0" stroke-dasharray="0" stroke="rgba(255, 255, 255, 0)" fill="none" class="stroke" mask="url(#Clip5613)" />
    <path d="M 13.073999999999998 19.0935  C 12.836999999999996 18.9405  12.533999999999997 18.8655  12.1605 18.865500000000004  L 11.317499999999999 18.865500000000004  L 11.317499999999999 22.926000000000002  L 12.1605 22.926000000000002  C 12.439499999999999 22.926000000000002  12.680999999999997 22.884000000000004  12.885000000000002 22.803000000000004  C 13.08257556761898 22.723674948773557  13.255489529312909 22.5932129177949  13.385999999999997 22.425  C 13.527009065627059 22.236582220631227  13.62760794389455 22.021086146372937  13.681499999999996 21.792  C 13.748999999999999 21.540000000000003  13.782 21.243000000000002  13.782 20.904  C 13.792872208484596 20.519947727318396  13.733393133693834 20.13714650238296  13.606499999999997 19.774499999999996  C 13.509443690138395 19.494722490377292  13.322117954539355 19.255156620061904  13.073999999999998 19.0935  Z " stroke-width="0" stroke-dasharray="0" stroke="rgba(255, 255, 255, 0)" fill="none" class="stroke" mask="url(#Clip5613)" />
  </g>
</svg>