<?xml version="1.0" encoding="utf-8"?>
<svg version="1.1" xmlns:xlink="http://www.w3.org/1999/xlink" width="65px" height="57px" xmlns="http://www.w3.org/2000/svg">
  <defs>
    <pattern id="BGPattern" patternUnits="userSpaceOnUse" alignment="0 0" imageRepeat="None" />
    <mask fill="white" id="Clip1301">
      <path d="M 43.666666666666664 8.055555555555557  C 43.666666666666664 7.5644444444444465  44.06444444444444 7.166666666666668  44.55555555555555 8  L 63.059999999999995 8  L 65 0  L 23 0  L 23 39  L 54.33333333333333 39  L 56.273333333333326 32  L 44.55555555555555 32  C 44.06444444444444 32.05555555555556  43.666666666666664 31.657777777777785  43.666666666666664 31.166666666666668  L 43.666666666666664 29.38888888888889  C 43.666666666666664 28.89777777777778  44.06444444444444 28.5  44.55555555555555 28  L 57.24222222222222 28  L 59.182222222222215 22  L 44.55555555555555 22  C 44.06444444444444 21.38888888888889  43.666666666666664 20.99111111111111  43.666666666666664 20.5  L 43.666666666666664 18.72222222222222  C 43.666666666666664 18.23111111111111  44.06444444444444 17.833333333333336  44.55555555555555 18  L 60.151111111111106 18  L 62.09111111111111 11  L 44.55555555555555 11  C 44.06444444444444 10.722222222222223  43.666666666666664 10.324444444444445  43.666666666666664 9.833333333333334  L 43.666666666666664 8.055555555555557  Z M 17.90111111111111 39.50888888888889  C 18.666666666666664 39.04  18.978888888888886 38.101111111111116  18.644444444444446 37.278888888888886  L 15.780000000000001 30.25  C 15.471111111111112 29.493333333333336  14.691111111111113 29.028888888888886  13.864444444444445 29.11  L 8.861111111111112 29.601111111111116  C 6.941111111111113 24.38555555555556  6.900000000000001 18.514444444444447  8.861111111111112 13.187777777777782  L 13.864444444444445 13.678888888888892  C 14.689999999999998 13.760000000000005  15.471111111111112 13.29444444444445  15.780000000000001 12.538888888888891  L 18.644444444444446 5.510000000000004  C 18.98 4.688888888888893  18.666666666666664 3.7488888888888923  17.90222222222222 3.2800000000000042  L 13.537777777777777 0.6022222222222263  C 11.945555555555556 -0.37444444444444286  9.898888888888889 0  8.661111111111111 1.3855555555555572  C -1.624444444444443 12.896666666666667  -1.5611111111111104 30.22444444444445  8.894444444444444 41.662222222222226  C 9.991111111111111 42.86222222222223  12.129999999999999 43.0488888888889  13.52222222222222 42.19555555555556  L 17.90111111111111 39.50888888888889  Z M 61.44444444444444 49.83333333333333  C 61.44444444444444 45.90555555555555  58.26111111111111 42.72222222222222  54.33333333333333 42  L 22.333333333333332 42  C 18.405555555555555 42.72222222222222  15.222222222222221 45.90555555555555  15.222222222222221 49.83333333333333  L 15.222222222222221 53.388888888888886  C 15.222222222222221 55.352222222222224  16.814444444444447 56.94444444444444  18.77777777777778 57  L 57.888888888888886 57  C 59.85222222222222 56.94444444444444  61.44444444444444 55.352222222222224  61.44444444444444 53.388888888888886  L 61.44444444444444 49.83333333333333  Z M 41.888888888888886 49.83333333333333  C 41.888888888888886 51.79666666666667  40.29666666666667 53.388888888888886  38.33333333333333 53.388888888888886  C 36.37 53.388888888888886  34.77777777777778 51.79666666666667  34.77777777777778 49.83333333333333  C 34.77777777777778 47.87  36.37 46.27777777777778  38.33333333333333 46.27777777777778  C 40.29666666666667 46.27777777777778  41.888888888888886 47.87  41.888888888888886 49.83333333333333  Z " fill-rule="evenodd" />
    </mask>
  </defs>
  <g>
    <path d="M 43.666666666666664 8.055555555555557  C 43.666666666666664 7.5644444444444465  44.06444444444444 7.166666666666668  44.55555555555555 8  L 63.059999999999995 8  L 65 0  L 23 0  L 23 39  L 54.33333333333333 39  L 56.273333333333326 32  L 44.55555555555555 32  C 44.06444444444444 32.05555555555556  43.666666666666664 31.657777777777785  43.666666666666664 31.166666666666668  L 43.666666666666664 29.38888888888889  C 43.666666666666664 28.89777777777778  44.06444444444444 28.5  44.55555555555555 28  L 57.24222222222222 28  L 59.182222222222215 22  L 44.55555555555555 22  C 44.06444444444444 21.38888888888889  43.666666666666664 20.99111111111111  43.666666666666664 20.5  L 43.666666666666664 18.72222222222222  C 43.666666666666664 18.23111111111111  44.06444444444444 17.833333333333336  44.55555555555555 18  L 60.151111111111106 18  L 62.09111111111111 11  L 44.55555555555555 11  C 44.06444444444444 10.722222222222223  43.666666666666664 10.324444444444445  43.666666666666664 9.833333333333334  L 43.666666666666664 8.055555555555557  Z M 17.90111111111111 39.50888888888889  C 18.666666666666664 39.04  18.978888888888886 38.101111111111116  18.644444444444446 37.278888888888886  L 15.780000000000001 30.25  C 15.471111111111112 29.493333333333336  14.691111111111113 29.028888888888886  13.864444444444445 29.11  L 8.861111111111112 29.601111111111116  C 6.941111111111113 24.38555555555556  6.900000000000001 18.514444444444447  8.861111111111112 13.187777777777782  L 13.864444444444445 13.678888888888892  C 14.689999999999998 13.760000000000005  15.471111111111112 13.29444444444445  15.780000000000001 12.538888888888891  L 18.644444444444446 5.510000000000004  C 18.98 4.688888888888893  18.666666666666664 3.7488888888888923  17.90222222222222 3.2800000000000042  L 13.537777777777777 0.6022222222222263  C 11.945555555555556 -0.37444444444444286  9.898888888888889 0  8.661111111111111 1.3855555555555572  C -1.624444444444443 12.896666666666667  -1.5611111111111104 30.22444444444445  8.894444444444444 41.662222222222226  C 9.991111111111111 42.86222222222223  12.129999999999999 43.0488888888889  13.52222222222222 42.19555555555556  L 17.90111111111111 39.50888888888889  Z M 61.44444444444444 49.83333333333333  C 61.44444444444444 45.90555555555555  58.26111111111111 42.72222222222222  54.33333333333333 42  L 22.333333333333332 42  C 18.405555555555555 42.72222222222222  15.222222222222221 45.90555555555555  15.222222222222221 49.83333333333333  L 15.222222222222221 53.388888888888886  C 15.222222222222221 55.352222222222224  16.814444444444447 56.94444444444444  18.77777777777778 57  L 57.888888888888886 57  C 59.85222222222222 56.94444444444444  61.44444444444444 55.352222222222224  61.44444444444444 53.388888888888886  L 61.44444444444444 49.83333333333333  Z M 41.888888888888886 49.83333333333333  C 41.888888888888886 51.79666666666667  40.29666666666667 53.388888888888886  38.33333333333333 53.388888888888886  C 36.37 53.388888888888886  34.77777777777778 51.79666666666667  34.77777777777778 49.83333333333333  C 34.77777777777778 47.87  36.37 46.27777777777778  38.33333333333333 46.27777777777778  C 40.29666666666667 46.27777777777778  41.888888888888886 47.87  41.888888888888886 49.83333333333333  Z " fill-rule="nonzero" fill="rgba(0, 0, 0, 1)" stroke="none" class="fill" />
    <path d="M 43.666666666666664 8.055555555555557  C 43.666666666666664 7.5644444444444465  44.06444444444444 7.166666666666668  44.55555555555555 8  L 63.059999999999995 8  L 65 0  L 23 0  L 23 39  L 54.33333333333333 39  L 56.273333333333326 32  L 44.55555555555555 32  C 44.06444444444444 32.05555555555556  43.666666666666664 31.657777777777785  43.666666666666664 31.166666666666668  L 43.666666666666664 29.38888888888889  C 43.666666666666664 28.89777777777778  44.06444444444444 28.5  44.55555555555555 28  L 57.24222222222222 28  L 59.182222222222215 22  L 44.55555555555555 22  C 44.06444444444444 21.38888888888889  43.666666666666664 20.99111111111111  43.666666666666664 20.5  L 43.666666666666664 18.72222222222222  C 43.666666666666664 18.23111111111111  44.06444444444444 17.833333333333336  44.55555555555555 18  L 60.151111111111106 18  L 62.09111111111111 11  L 44.55555555555555 11  C 44.06444444444444 10.722222222222223  43.666666666666664 10.324444444444445  43.666666666666664 9.833333333333334  L 43.666666666666664 8.055555555555557  Z " stroke-width="0" stroke-dasharray="0" stroke="rgba(255, 255, 255, 0)" fill="none" class="stroke" mask="url(#Clip1301)" />
    <path d="M 17.90111111111111 39.50888888888889  C 18.666666666666664 39.04  18.978888888888886 38.101111111111116  18.644444444444446 37.278888888888886  L 15.780000000000001 30.25  C 15.471111111111112 29.493333333333336  14.691111111111113 29.028888888888886  13.864444444444445 29.11  L 8.861111111111112 29.601111111111116  C 6.941111111111113 24.38555555555556  6.900000000000001 18.514444444444447  8.861111111111112 13.187777777777782  L 13.864444444444445 13.678888888888892  C 14.689999999999998 13.760000000000005  15.471111111111112 13.29444444444445  15.780000000000001 12.538888888888891  L 18.644444444444446 5.510000000000004  C 18.98 4.688888888888893  18.666666666666664 3.7488888888888923  17.90222222222222 3.2800000000000042  L 13.537777777777777 0.6022222222222263  C 11.945555555555556 -0.37444444444444286  9.898888888888889 0  8.661111111111111 1.3855555555555572  C -1.624444444444443 12.896666666666667  -1.5611111111111104 30.22444444444445  8.894444444444444 41.662222222222226  C 9.991111111111111 42.86222222222223  12.129999999999999 43.0488888888889  13.52222222222222 42.19555555555556  L 17.90111111111111 39.50888888888889  Z " stroke-width="0" stroke-dasharray="0" stroke="rgba(255, 255, 255, 0)" fill="none" class="stroke" mask="url(#Clip1301)" />
    <path d="M 61.44444444444444 49.83333333333333  C 61.44444444444444 45.90555555555555  58.26111111111111 42.72222222222222  54.33333333333333 42  L 22.333333333333332 42  C 18.405555555555555 42.72222222222222  15.222222222222221 45.90555555555555  15.222222222222221 49.83333333333333  L 15.222222222222221 53.388888888888886  C 15.222222222222221 55.352222222222224  16.814444444444447 56.94444444444444  18.77777777777778 57  L 57.888888888888886 57  C 59.85222222222222 56.94444444444444  61.44444444444444 55.352222222222224  61.44444444444444 53.388888888888886  L 61.44444444444444 49.83333333333333  Z " stroke-width="0" stroke-dasharray="0" stroke="rgba(255, 255, 255, 0)" fill="none" class="stroke" mask="url(#Clip1301)" />
    <path d="M 41.888888888888886 49.83333333333333  C 41.888888888888886 51.79666666666667  40.29666666666667 53.388888888888886  38.33333333333333 53.388888888888886  C 36.37 53.388888888888886  34.77777777777778 51.79666666666667  34.77777777777778 49.83333333333333  C 34.77777777777778 47.87  36.37 46.27777777777778  38.33333333333333 46.27777777777778  C 40.29666666666667 46.27777777777778  41.888888888888886 47.87  41.888888888888886 49.83333333333333  Z " stroke-width="0" stroke-dasharray="0" stroke="rgba(255, 255, 255, 0)" fill="none" class="stroke" mask="url(#Clip1301)" />
  </g>
</svg>