<?xml version="1.0" encoding="utf-8"?>
<svg version="1.1" xmlns:xlink="http://www.w3.org/1999/xlink" width="50px" height="50px" xmlns="http://www.w3.org/2000/svg">
  <defs>
    <pattern id="BGPattern" patternUnits="userSpaceOnUse" alignment="0 0" imageRepeat="None" />
    <mask fill="white" id="Clip736">
      <path d="M 48.75 17.02620967741933  C 54.11290322580646 34.19354838709677  41.39112903225805 50  25 50  L 25 40.3125  C 35.26209677419354 40.3125  43.225806451612925 30.14112903225805  39.28427419354841 19.3447580645161  C 37.8427419354839 15.352822580645181  34.63709677419354 12.147177419354819  30.635080645161285 10.705645161290306  C 19.83870967741933 6.794354838709695  9.6572580645161 14.727822580645181  9.6572580645161 24.98991935483872  L 0 24.98991935483872  C 0 8.639112903225794  15.81653225806451 -4.112903225806463  32.96370967741939 1.2399193548387188  C 40.44354838709677 3.588709677419359  46.43145161290323 9.54637096774195  48.75 17.02620967741933  Z M 25.0302419354839 40.3427419354839  L 25.0302419354839 30.705645161290306  L 15.393145161290306 30.705645161290306  L 15.393145161290306 40.3427419354839  L 25.0302419354839 40.3427419354839  Z M 15.393145161290306 47.76209677419354  L 15.393145161290306 40.3427419354839  L 7.963709677419331 40.3427419354839  L 7.963709677419331 47.76209677419354  L 15.393145161290306 47.76209677419354  Z M 7.963709677419331 40.3427419354839  L 7.963709677419331 34.133064516129025  L 1.7540322580645127 34.133064516129025  L 1.7540322580645127 40.3427419354839  L 7.963709677419331 40.3427419354839  Z " fill-rule="evenodd" />
    </mask>
  </defs>
  <g>
    <path d="M 48.75 17.02620967741933  C 54.11290322580646 34.19354838709677  41.39112903225805 50  25 50  L 25 40.3125  C 35.26209677419354 40.3125  43.225806451612925 30.14112903225805  39.28427419354841 19.3447580645161  C 37.8427419354839 15.352822580645181  34.63709677419354 12.147177419354819  30.635080645161285 10.705645161290306  C 19.83870967741933 6.794354838709695  9.6572580645161 14.727822580645181  9.6572580645161 24.98991935483872  L 0 24.98991935483872  C 0 8.639112903225794  15.81653225806451 -4.112903225806463  32.96370967741939 1.2399193548387188  C 40.44354838709677 3.588709677419359  46.43145161290323 9.54637096774195  48.75 17.02620967741933  Z M 25.0302419354839 40.3427419354839  L 25.0302419354839 30.705645161290306  L 15.393145161290306 30.705645161290306  L 15.393145161290306 40.3427419354839  L 25.0302419354839 40.3427419354839  Z M 15.393145161290306 47.76209677419354  L 15.393145161290306 40.3427419354839  L 7.963709677419331 40.3427419354839  L 7.963709677419331 47.76209677419354  L 15.393145161290306 47.76209677419354  Z M 7.963709677419331 40.3427419354839  L 7.963709677419331 34.133064516129025  L 1.7540322580645127 34.133064516129025  L 1.7540322580645127 40.3427419354839  L 7.963709677419331 40.3427419354839  Z " fill-rule="nonzero" fill="rgba(0, 0, 0, 1)" stroke="none" class="fill" />
    <path d="M 48.75 17.02620967741933  C 54.11290322580646 34.19354838709677  41.39112903225805 50  25 50  L 25 40.3125  C 35.26209677419354 40.3125  43.225806451612925 30.14112903225805  39.28427419354841 19.3447580645161  C 37.8427419354839 15.352822580645181  34.63709677419354 12.147177419354819  30.635080645161285 10.705645161290306  C 19.83870967741933 6.794354838709695  9.6572580645161 14.727822580645181  9.6572580645161 24.98991935483872  L 0 24.98991935483872  C 0 8.639112903225794  15.81653225806451 -4.112903225806463  32.96370967741939 1.2399193548387188  C 40.44354838709677 3.588709677419359  46.43145161290323 9.54637096774195  48.75 17.02620967741933  Z " stroke-width="0" stroke-dasharray="0" stroke="rgba(255, 255, 255, 0)" fill="none" class="stroke" mask="url(#Clip736)" />
    <path d="M 25.0302419354839 40.3427419354839  L 25.0302419354839 30.705645161290306  L 15.393145161290306 30.705645161290306  L 15.393145161290306 40.3427419354839  L 25.0302419354839 40.3427419354839  Z " stroke-width="0" stroke-dasharray="0" stroke="rgba(255, 255, 255, 0)" fill="none" class="stroke" mask="url(#Clip736)" />
    <path d="M 15.393145161290306 47.76209677419354  L 15.393145161290306 40.3427419354839  L 7.963709677419331 40.3427419354839  L 7.963709677419331 47.76209677419354  L 15.393145161290306 47.76209677419354  Z " stroke-width="0" stroke-dasharray="0" stroke="rgba(255, 255, 255, 0)" fill="none" class="stroke" mask="url(#Clip736)" />
    <path d="M 7.963709677419331 40.3427419354839  L 7.963709677419331 34.133064516129025  L 1.7540322580645127 34.133064516129025  L 1.7540322580645127 40.3427419354839  L 7.963709677419331 40.3427419354839  Z " stroke-width="0" stroke-dasharray="0" stroke="rgba(255, 255, 255, 0)" fill="none" class="stroke" mask="url(#Clip736)" />
  </g>
</svg>