<?xml version="1.0" encoding="utf-8"?>
<svg version="1.1" xmlns:xlink="http://www.w3.org/1999/xlink" width="50px" height="50px" xmlns="http://www.w3.org/2000/svg">
  <defs>
    <pattern id="BGPattern" patternUnits="userSpaceOnUse" alignment="0 0" imageRepeat="None" />
    <mask fill="white" id="Clip2250">
      <path d="M 50 47.25  C 50 46.14375  49.10625 45.25  48 45  L 2 45  C 0.8937499999999997 45.25  0 46.14375  0 47.25  L 0 49.5  C 0 49.775  0.22499999999999964 50  0.5 50  L 49.5 50  C 49.775 50  50 49.775  50 49.5  L 50 47.25  Z M 7.61875 39.381249999999994  C 8.03125 39.78124999999999  8.55 39.99999999999999  9.106250000000003 40  C 9.231250000000003 40  9.356250000000003 39.9875  9.481250000000003 39.96875  L 19.99375 38.125  C 20.11875 38.1  20.237499999999997 38.04375  20.325 37.95  L 46.818749999999994 11.456250000000004  C 46.93576755562016 11.339472128215146  47.00152752004815 11.180943419003814  47.00152752004815 11.015625000000004  C 47.00152752004815 10.850306580996193  46.93576755562016 10.691777871784858  46.818749999999994 10.575000000000003  L 36.43125 0.18125000000000036  C 36.3125 0.0625  36.15625 0  35.9875 0  C 35.818749999999994 0  35.662499999999994 0.0625  35.543749999999996 0.18125000000000036  L 9.05 26.674999999999997  C 8.95625 26.768749999999997  8.9 26.881249999999994  8.875 27.006249999999994  L 7.03125 37.51875  C 6.9078143609224 38.198488419030326  7.1276339986326 38.89536344070735  7.61875 39.381249999999994  Z " fill-rule="evenodd" />
    </mask>
  </defs>
  <g>
    <path d="M 50 47.25  C 50 46.14375  49.10625 45.25  48 45  L 2 45  C 0.8937499999999997 45.25  0 46.14375  0 47.25  L 0 49.5  C 0 49.775  0.22499999999999964 50  0.5 50  L 49.5 50  C 49.775 50  50 49.775  50 49.5  L 50 47.25  Z M 7.61875 39.381249999999994  C 8.03125 39.78124999999999  8.55 39.99999999999999  9.106250000000003 40  C 9.231250000000003 40  9.356250000000003 39.9875  9.481250000000003 39.96875  L 19.99375 38.125  C 20.11875 38.1  20.237499999999997 38.04375  20.325 37.95  L 46.818749999999994 11.456250000000004  C 46.93576755562016 11.339472128215146  47.00152752004815 11.180943419003814  47.00152752004815 11.015625000000004  C 47.00152752004815 10.850306580996193  46.93576755562016 10.691777871784858  46.818749999999994 10.575000000000003  L 36.43125 0.18125000000000036  C 36.3125 0.0625  36.15625 0  35.9875 0  C 35.818749999999994 0  35.662499999999994 0.0625  35.543749999999996 0.18125000000000036  L 9.05 26.674999999999997  C 8.95625 26.768749999999997  8.9 26.881249999999994  8.875 27.006249999999994  L 7.03125 37.51875  C 6.9078143609224 38.198488419030326  7.1276339986326 38.89536344070735  7.61875 39.381249999999994  Z " fill-rule="nonzero" fill="rgba(0, 0, 0, 1)" stroke="none" class="fill" />
    <path d="M 50 47.25  C 50 46.14375  49.10625 45.25  48 45  L 2 45  C 0.8937499999999997 45.25  0 46.14375  0 47.25  L 0 49.5  C 0 49.775  0.22499999999999964 50  0.5 50  L 49.5 50  C 49.775 50  50 49.775  50 49.5  L 50 47.25  Z " stroke-width="0" stroke-dasharray="0" stroke="rgba(255, 255, 255, 0)" fill="none" class="stroke" mask="url(#Clip2250)" />
    <path d="M 7.61875 39.381249999999994  C 8.03125 39.78124999999999  8.55 39.99999999999999  9.106250000000003 40  C 9.231250000000003 40  9.356250000000003 39.9875  9.481250000000003 39.96875  L 19.99375 38.125  C 20.11875 38.1  20.237499999999997 38.04375  20.325 37.95  L 46.818749999999994 11.456250000000004  C 46.93576755562016 11.339472128215146  47.00152752004815 11.180943419003814  47.00152752004815 11.015625000000004  C 47.00152752004815 10.850306580996193  46.93576755562016 10.691777871784858  46.818749999999994 10.575000000000003  L 36.43125 0.18125000000000036  C 36.3125 0.0625  36.15625 0  35.9875 0  C 35.818749999999994 0  35.662499999999994 0.0625  35.543749999999996 0.18125000000000036  L 9.05 26.674999999999997  C 8.95625 26.768749999999997  8.9 26.881249999999994  8.875 27.006249999999994  L 7.03125 37.51875  C 6.9078143609224 38.198488419030326  7.1276339986326 38.89536344070735  7.61875 39.381249999999994  Z " stroke-width="0" stroke-dasharray="0" stroke="rgba(255, 255, 255, 0)" fill="none" class="stroke" mask="url(#Clip2250)" />
  </g>
</svg>