<?xml version="1.0" encoding="utf-8"?>
<svg version="1.1" xmlns:xlink="http://www.w3.org/1999/xlink" width="50px" height="50px" xmlns="http://www.w3.org/2000/svg">
  <defs>
    <pattern id="BGPattern" patternUnits="userSpaceOnUse" alignment="0 0" imageRepeat="None" />
    <mask fill="white" id="Clip819">
      <path d="M 50 0  L 0 0  L 0 50  L 50 50  L 50 0  Z M 2.377232142857167 21.964285714285722  C 2.377232142857167 21.975446428571445  2.377232142857167 21.997767857142833  2.366071428571445 22.008928571428555  L 2.34375 22.008928571428555  C 2.3549107142857224 21.997767857142833  2.366071428571445 21.975446428571445  2.377232142857167 21.964285714285722  Z M 35.71428571428572 10.714285714285722  L 26 28.024553571428555  L 26 39.28571428571428  L 24 39.28571428571428  L 24 27.823660714285726  L 14.285714285714276 10.714285714285722  L 18.448660714285722 10.714285714285722  C 24.308035714285722 21.685267857142833  23.939732142857167 22.008928571428555  25.066964285714278 24.732142857142833  C 26.43973214285717 21.71875  25.714285714285722 22.008928571428555  31.830357142857167 10.714285714285722  L 35.71428571428572 10.714285714285722  Z " fill-rule="evenodd" />
    </mask>
  </defs>
  <g>
    <path d="M 50 0  L 0 0  L 0 50  L 50 50  L 50 0  Z M 2.377232142857167 21.964285714285722  C 2.377232142857167 21.975446428571445  2.377232142857167 21.997767857142833  2.366071428571445 22.008928571428555  L 2.34375 22.008928571428555  C 2.3549107142857224 21.997767857142833  2.366071428571445 21.975446428571445  2.377232142857167 21.964285714285722  Z M 35.71428571428572 10.714285714285722  L 26 28.024553571428555  L 26 39.28571428571428  L 24 39.28571428571428  L 24 27.823660714285726  L 14.285714285714276 10.714285714285722  L 18.448660714285722 10.714285714285722  C 24.308035714285722 21.685267857142833  23.939732142857167 22.008928571428555  25.066964285714278 24.732142857142833  C 26.43973214285717 21.71875  25.714285714285722 22.008928571428555  31.830357142857167 10.714285714285722  L 35.71428571428572 10.714285714285722  Z " fill-rule="nonzero" fill="rgba(0, 0, 0, 1)" stroke="none" class="fill" />
    <path d="M 50 0  L 0 0  L 0 50  L 50 50  L 50 0  Z " stroke-width="0" stroke-dasharray="0" stroke="rgba(255, 255, 255, 0)" fill="none" class="stroke" mask="url(#Clip819)" />
    <path d="M 2.377232142857167 21.964285714285722  C 2.377232142857167 21.975446428571445  2.377232142857167 21.997767857142833  2.366071428571445 22.008928571428555  L 2.34375 22.008928571428555  C 2.3549107142857224 21.997767857142833  2.366071428571445 21.975446428571445  2.377232142857167 21.964285714285722  Z " stroke-width="0" stroke-dasharray="0" stroke="rgba(255, 255, 255, 0)" fill="none" class="stroke" mask="url(#Clip819)" />
    <path d="M 35.71428571428572 10.714285714285722  L 26 28.024553571428555  L 26 39.28571428571428  L 24 39.28571428571428  L 24 27.823660714285726  L 14.285714285714276 10.714285714285722  L 18.448660714285722 10.714285714285722  C 24.308035714285722 21.685267857142833  23.939732142857167 22.008928571428555  25.066964285714278 24.732142857142833  C 26.43973214285717 21.71875  25.714285714285722 22.008928571428555  31.830357142857167 10.714285714285722  L 35.71428571428572 10.714285714285722  Z " stroke-width="0" stroke-dasharray="0" stroke="rgba(255, 255, 255, 0)" fill="none" class="stroke" mask="url(#Clip819)" />
  </g>
</svg>