<?xml version="1.0" encoding="utf-8"?>
<svg version="1.1" xmlns:xlink="http://www.w3.org/1999/xlink" width="50px" height="30px" xmlns="http://www.w3.org/2000/svg">
  <defs>
    <pattern id="BGPattern" patternUnits="userSpaceOnUse" alignment="0 0" imageRepeat="None" />
    <mask fill="white" id="Clip1987">
      <path d="M 1.3888888888888857 7.118055555555543  C -1.2326388888888857 4.496527777777715  0.625 0  4.3402777777777715 0  L 45.65972222222223 0  C 49.375 0  51.232638888888914 4.496527777777715  48.611111111111086 7.118055555555543  L 27.951388888888886 27.777777777777715  C 26.319444444444457 29.40972222222217  23.680555555555543 29.40972222222217  22.06597222222223 27.777777777777715  L 1.3888888888888857 7.118055555555543  Z " fill-rule="evenodd" />
    </mask>
  </defs>
  <g>
    <path d="M 1.3888888888888857 7.118055555555543  C -1.2326388888888857 4.496527777777715  0.625 0  4.3402777777777715 0  L 45.65972222222223 0  C 49.375 0  51.232638888888914 4.496527777777715  48.611111111111086 7.118055555555543  L 27.951388888888886 27.777777777777715  C 26.319444444444457 29.40972222222217  23.680555555555543 29.40972222222217  22.06597222222223 27.777777777777715  L 1.3888888888888857 7.118055555555543  Z " fill-rule="nonzero" fill="rgba(0, 0, 0, 1)" stroke="none" class="fill" />
    <path d="M 1.3888888888888857 7.118055555555543  C -1.2326388888888857 4.496527777777715  0.625 0  4.3402777777777715 0  L 45.65972222222223 0  C 49.375 0  51.232638888888914 4.496527777777715  48.611111111111086 7.118055555555543  L 27.951388888888886 27.777777777777715  C 26.319444444444457 29.40972222222217  23.680555555555543 29.40972222222217  22.06597222222223 27.777777777777715  L 1.3888888888888857 7.118055555555543  Z " stroke-width="0" stroke-dasharray="0" stroke="rgba(255, 255, 255, 0)" fill="none" class="stroke" mask="url(#Clip1987)" />
  </g>
</svg>