<?xml version="1.0" encoding="utf-8"?>
<svg version="1.1" xmlns:xlink="http://www.w3.org/1999/xlink" width="50px" height="50px" xmlns="http://www.w3.org/2000/svg">
  <defs>
    <pattern id="BGPattern" patternUnits="userSpaceOnUse" alignment="0 0" imageRepeat="None" />
    <mask fill="white" id="Clip1073">
      <path d="M 25 0  C 11.189516129032256 0  0 11.189516129032256  0 25  C 0 38.810483870967744  11.189516129032256 50  25 50  C 38.810483870967744 50  50 38.810483870967744  50 25  C 50 11.189516129032256  38.810483870967744 0  25 0  Z M 25 4.838709677419359  C 36.139112903225794 4.838709677419359  45.16129032258061 13.860887096774208  45.16129032258061 25  C 45.16129032258061 36.139112903225794  36.139112903225794 45.16129032258064  25 45.16129032258064  C 13.860887096774208 45.16129032258064  4.838709677419331 36.139112903225794  4.838709677419331 25  C 4.838709677419331 13.860887096774208  13.860887096774208 4.838709677419359  25 4.838709677419359  Z M 36.69354838709677 22  C 37.35887096774195 21.774193548387103  37.90322580645159 22.31854838709677  37.90322580645159 22.98387096774195  L 37.90322580645159 27.01612903225805  C 37.90322580645159 27.68145161290323  37.35887096774195 28.225806451612893  36.69354838709677 28  L 25 28  L 25 34.97983870967741  C 25 36.05846774193549  23.699596774193537 36.59274193548387  22.933467741935488 35.8366935483871  L 12.953629032258048 25.856854838709666  C 12.479838709677438 25.38306451612902  12.479838709677438 24.616935483870975  12.953629032258048 24.143145161290306  L 22.933467741935488 14.163306451612897  C 23.699596774193537 13.397177419354847  25 13.941532258064512  25 15.020161290322589  L 25 22  L 36.69354838709677 22  Z " fill-rule="evenodd" />
    </mask>
  </defs>
  <g>
    <path d="M 25 0  C 11.189516129032256 0  0 11.189516129032256  0 25  C 0 38.810483870967744  11.189516129032256 50  25 50  C 38.810483870967744 50  50 38.810483870967744  50 25  C 50 11.189516129032256  38.810483870967744 0  25 0  Z M 25 4.838709677419359  C 36.139112903225794 4.838709677419359  45.16129032258061 13.860887096774208  45.16129032258061 25  C 45.16129032258061 36.139112903225794  36.139112903225794 45.16129032258064  25 45.16129032258064  C 13.860887096774208 45.16129032258064  4.838709677419331 36.139112903225794  4.838709677419331 25  C 4.838709677419331 13.860887096774208  13.860887096774208 4.838709677419359  25 4.838709677419359  Z M 36.69354838709677 22  C 37.35887096774195 21.774193548387103  37.90322580645159 22.31854838709677  37.90322580645159 22.98387096774195  L 37.90322580645159 27.01612903225805  C 37.90322580645159 27.68145161290323  37.35887096774195 28.225806451612893  36.69354838709677 28  L 25 28  L 25 34.97983870967741  C 25 36.05846774193549  23.699596774193537 36.59274193548387  22.933467741935488 35.8366935483871  L 12.953629032258048 25.856854838709666  C 12.479838709677438 25.38306451612902  12.479838709677438 24.616935483870975  12.953629032258048 24.143145161290306  L 22.933467741935488 14.163306451612897  C 23.699596774193537 13.397177419354847  25 13.941532258064512  25 15.020161290322589  L 25 22  L 36.69354838709677 22  Z " fill-rule="nonzero" fill="rgba(0, 0, 0, 1)" stroke="none" class="fill" />
    <path d="M 25 0  C 11.189516129032256 0  0 11.189516129032256  0 25  C 0 38.810483870967744  11.189516129032256 50  25 50  C 38.810483870967744 50  50 38.810483870967744  50 25  C 50 11.189516129032256  38.810483870967744 0  25 0  Z " stroke-width="0" stroke-dasharray="0" stroke="rgba(255, 255, 255, 0)" fill="none" class="stroke" mask="url(#Clip1073)" />
    <path d="M 25 4.838709677419359  C 36.139112903225794 4.838709677419359  45.16129032258061 13.860887096774208  45.16129032258061 25  C 45.16129032258061 36.139112903225794  36.139112903225794 45.16129032258064  25 45.16129032258064  C 13.860887096774208 45.16129032258064  4.838709677419331 36.139112903225794  4.838709677419331 25  C 4.838709677419331 13.860887096774208  13.860887096774208 4.838709677419359  25 4.838709677419359  Z " stroke-width="0" stroke-dasharray="0" stroke="rgba(255, 255, 255, 0)" fill="none" class="stroke" mask="url(#Clip1073)" />
    <path d="M 36.69354838709677 22  C 37.35887096774195 21.774193548387103  37.90322580645159 22.31854838709677  37.90322580645159 22.98387096774195  L 37.90322580645159 27.01612903225805  C 37.90322580645159 27.68145161290323  37.35887096774195 28.225806451612893  36.69354838709677 28  L 25 28  L 25 34.97983870967741  C 25 36.05846774193549  23.699596774193537 36.59274193548387  22.933467741935488 35.8366935483871  L 12.953629032258048 25.856854838709666  C 12.479838709677438 25.38306451612902  12.479838709677438 24.616935483870975  12.953629032258048 24.143145161290306  L 22.933467741935488 14.163306451612897  C 23.699596774193537 13.397177419354847  25 13.941532258064512  25 15.020161290322589  L 25 22  L 36.69354838709677 22  Z " stroke-width="0" stroke-dasharray="0" stroke="rgba(255, 255, 255, 0)" fill="none" class="stroke" mask="url(#Clip1073)" />
  </g>
</svg>