<?xml version="1.0" encoding="utf-8"?>
<svg version="1.1" xmlns:xlink="http://www.w3.org/1999/xlink" width="48px" height="48px" xmlns="http://www.w3.org/2000/svg">
  <defs>
    <pattern id="BGPattern" patternUnits="userSpaceOnUse" alignment="0 0" imageRepeat="None" />
    <mask fill="white" id="Clip6916">
      <path d="M 47.988 24.002000000000002  C 47.988 10.652000000000001  37.352 0.014000000000000002  24.001999999999995 0.014000000000000002  C 10.652 0.014000000000000002  0.014000000000000002 10.652  0.014000000000000002 24  C 0.014000000000000002 37.348  10.652 47.99  24 47.99  C 37.348 47.99  47.988 37.352000000000004  47.988 24.002000000000002  Z M 23.793999999999997 42.775999999999996  C 13.571999999999997 42.775999999999996  5.227999999999998 34.431999999999995  5.228 24.21  L 23.793999999999997 42.775999999999996  Z M 42.775999999999996 24  C 42.775999999999996 32.972  36.517999999999994 40.482  28.174 42.358000000000004  L 5.646 19.83  C 7.52 11.486  15.032 5.228  24 5.228  C 30.0132959300297 5.239750881574301  35.664194003321015 8.104535037458788  39.228 12.948  L 36.518 15.239999999999998  C 33.64826940123277 11.040235971624211  28.88051814321473 8.539452263984128  23.794 8.565999999999999  C 17.297923014424576 8.524279527171434  11.502213585010946 12.639337910428853  9.4 18.786  L 29.008000000000003 38.396  C 33.808 36.726  37.56 32.556  38.604 27.548000000000002  L 30.468000000000004 27.548000000000002  L 30.468000000000004 24  L 42.775999999999996 24  Z " fill-rule="evenodd" />
    </mask>
  </defs>
  <g>
    <path d="M 47.988 24.002000000000002  C 47.988 10.652000000000001  37.352 0.014000000000000002  24.001999999999995 0.014000000000000002  C 10.652 0.014000000000000002  0.014000000000000002 10.652  0.014000000000000002 24  C 0.014000000000000002 37.348  10.652 47.99  24 47.99  C 37.348 47.99  47.988 37.352000000000004  47.988 24.002000000000002  Z M 23.793999999999997 42.775999999999996  C 13.571999999999997 42.775999999999996  5.227999999999998 34.431999999999995  5.228 24.21  L 23.793999999999997 42.775999999999996  Z M 42.775999999999996 24  C 42.775999999999996 32.972  36.517999999999994 40.482  28.174 42.358000000000004  L 5.646 19.83  C 7.52 11.486  15.032 5.228  24 5.228  C 30.0132959300297 5.239750881574301  35.664194003321015 8.104535037458788  39.228 12.948  L 36.518 15.239999999999998  C 33.64826940123277 11.040235971624211  28.88051814321473 8.539452263984128  23.794 8.565999999999999  C 17.297923014424576 8.524279527171434  11.502213585010946 12.639337910428853  9.4 18.786  L 29.008000000000003 38.396  C 33.808 36.726  37.56 32.556  38.604 27.548000000000002  L 30.468000000000004 27.548000000000002  L 30.468000000000004 24  L 42.775999999999996 24  Z " fill-rule="nonzero" fill="rgba(102, 51, 153, 1)" stroke="none" class="fill" />
    <path d="M 47.988 24.002000000000002  C 47.988 10.652000000000001  37.352 0.014000000000000002  24.001999999999995 0.014000000000000002  C 10.652 0.014000000000000002  0.014000000000000002 10.652  0.014000000000000002 24  C 0.014000000000000002 37.348  10.652 47.99  24 47.99  C 37.348 47.99  47.988 37.352000000000004  47.988 24.002000000000002  Z " stroke-width="0" stroke-dasharray="0" stroke="rgba(255, 255, 255, 0)" fill="none" class="stroke" mask="url(#Clip6916)" />
    <path d="M 23.793999999999997 42.775999999999996  C 13.571999999999997 42.775999999999996  5.227999999999998 34.431999999999995  5.228 24.21  L 23.793999999999997 42.775999999999996  Z " stroke-width="0" stroke-dasharray="0" stroke="rgba(255, 255, 255, 0)" fill="none" class="stroke" mask="url(#Clip6916)" />
    <path d="M 42.775999999999996 24  C 42.775999999999996 32.972  36.517999999999994 40.482  28.174 42.358000000000004  L 5.646 19.83  C 7.52 11.486  15.032 5.228  24 5.228  C 30.0132959300297 5.239750881574301  35.664194003321015 8.104535037458788  39.228 12.948  L 36.518 15.239999999999998  C 33.64826940123277 11.040235971624211  28.88051814321473 8.539452263984128  23.794 8.565999999999999  C 17.297923014424576 8.524279527171434  11.502213585010946 12.639337910428853  9.4 18.786  L 29.008000000000003 38.396  C 33.808 36.726  37.56 32.556  38.604 27.548000000000002  L 30.468000000000004 27.548000000000002  L 30.468000000000004 24  L 42.775999999999996 24  Z " stroke-width="0" stroke-dasharray="0" stroke="rgba(255, 255, 255, 0)" fill="none" class="stroke" mask="url(#Clip6916)" />
  </g>
</svg>