<?xml version="1.0" encoding="utf-8"?>
<svg version="1.1" xmlns:xlink="http://www.w3.org/1999/xlink" width="24px" height="24px" xmlns="http://www.w3.org/2000/svg">
  <defs>
    <pattern id="BGPattern" patternUnits="userSpaceOnUse" alignment="0 0" imageRepeat="None" />
    <mask fill="white" id="Clip5349">
      <path d="M 11.3295 0.41400000000000003  C 11.456656913337723 0.1602443133189636  11.716167603959967 0  12 0  C 12.283832396040031 0  12.543343086662277 0.16024431331896388  12.670499999999999 0.41400000000000003  L 13.215 1.5  L 20.25 1.5  C 21.492640687119284 1.5  22.5 2.507359312880715  22.5 3.75  L 22.5 16.5  L 23.25 16.5  C 23.664213562373096 16.5  24 16.835786437626904  24 17.25  C 24 17.664213562373096  23.664213562373096 18  23.25 18  L 18.96 18  L 20.227500000000003 23.0685  C 20.239660470627882 23.12254015776798  20.24579684460766 23.177761164850793  20.24579684460766 23.233152641609223  C 20.24579684460766 23.647366203982315  19.910010406980756 23.983152641609223  19.49579684460766 23.983152641609223  C 19.157972192114226 23.983152641609223  18.86184216989514 23.75729667357224  18.7725 23.4315  L 18.165 21  L 5.835 21  L 5.227500000000001 23.4315  C 5.138157830104849 23.75729667357223  4.8420278078857715 23.983152641609195  4.5042031553923465 23.983152641609195  C 4.089989593019252 23.983152641609195  3.7542031553923465 23.647366203982287  3.7542031553923465 23.233152641609195  C 3.7542031553923465 23.17776116485078  3.7603395293721245 23.12254015776797  3.772500000000001 23.0685  L 5.04 18  L 0.75 18  C 0.3357864376269049 18  0 17.664213562373096  0 17.25  C 0 16.835786437626904  0.3357864376269049 16.5  0.75 16.5  L 1.5 16.5  L 1.5 3.75  C 1.5 2.507359312880715  2.507359312880715 1.5  3.75 1.5  L 10.7865 1.5  L 11.3295 0.41400000000000003  Z M 3 3.75  L 3 16.5  L 21 16.5  L 21 3.75  C 21 3.335786437626905  20.664213562373096 3  20.25 3  L 3.75 3  C 3.335786437626905 3  3 3.335786437626905  3 3.75  Z M 17.79 19.5  L 17.415 18  L 6.584999999999999 18  L 6.209999999999999 19.5  L 17.79 19.5  Z " fill-rule="evenodd" />
    </mask>
  </defs>
  <g>
    <path d="M 11.3295 0.41400000000000003  C 11.456656913337723 0.1602443133189636  11.716167603959967 0  12 0  C 12.283832396040031 0  12.543343086662277 0.16024431331896388  12.670499999999999 0.41400000000000003  L 13.215 1.5  L 20.25 1.5  C 21.492640687119284 1.5  22.5 2.507359312880715  22.5 3.75  L 22.5 16.5  L 23.25 16.5  C 23.664213562373096 16.5  24 16.835786437626904  24 17.25  C 24 17.664213562373096  23.664213562373096 18  23.25 18  L 18.96 18  L 20.227500000000003 23.0685  C 20.239660470627882 23.12254015776798  20.24579684460766 23.177761164850793  20.24579684460766 23.233152641609223  C 20.24579684460766 23.647366203982315  19.910010406980756 23.983152641609223  19.49579684460766 23.983152641609223  C 19.157972192114226 23.983152641609223  18.86184216989514 23.75729667357224  18.7725 23.4315  L 18.165 21  L 5.835 21  L 5.227500000000001 23.4315  C 5.138157830104849 23.75729667357223  4.8420278078857715 23.983152641609195  4.5042031553923465 23.983152641609195  C 4.089989593019252 23.983152641609195  3.7542031553923465 23.647366203982287  3.7542031553923465 23.233152641609195  C 3.7542031553923465 23.17776116485078  3.7603395293721245 23.12254015776797  3.772500000000001 23.0685  L 5.04 18  L 0.75 18  C 0.3357864376269049 18  0 17.664213562373096  0 17.25  C 0 16.835786437626904  0.3357864376269049 16.5  0.75 16.5  L 1.5 16.5  L 1.5 3.75  C 1.5 2.507359312880715  2.507359312880715 1.5  3.75 1.5  L 10.7865 1.5  L 11.3295 0.41400000000000003  Z M 3 3.75  L 3 16.5  L 21 16.5  L 21 3.75  C 21 3.335786437626905  20.664213562373096 3  20.25 3  L 3.75 3  C 3.335786437626905 3  3 3.335786437626905  3 3.75  Z M 17.79 19.5  L 17.415 18  L 6.584999999999999 18  L 6.209999999999999 19.5  L 17.79 19.5  Z " fill-rule="nonzero" fill="rgba(0, 0, 0, 1)" stroke="none" class="fill" />
    <path d="M 11.3295 0.41400000000000003  C 11.456656913337723 0.1602443133189636  11.716167603959967 0  12 0  C 12.283832396040031 0  12.543343086662277 0.16024431331896388  12.670499999999999 0.41400000000000003  L 13.215 1.5  L 20.25 1.5  C 21.492640687119284 1.5  22.5 2.507359312880715  22.5 3.75  L 22.5 16.5  L 23.25 16.5  C 23.664213562373096 16.5  24 16.835786437626904  24 17.25  C 24 17.664213562373096  23.664213562373096 18  23.25 18  L 18.96 18  L 20.227500000000003 23.0685  C 20.239660470627882 23.12254015776798  20.24579684460766 23.177761164850793  20.24579684460766 23.233152641609223  C 20.24579684460766 23.647366203982315  19.910010406980756 23.983152641609223  19.49579684460766 23.983152641609223  C 19.157972192114226 23.983152641609223  18.86184216989514 23.75729667357224  18.7725 23.4315  L 18.165 21  L 5.835 21  L 5.227500000000001 23.4315  C 5.138157830104849 23.75729667357223  4.8420278078857715 23.983152641609195  4.5042031553923465 23.983152641609195  C 4.089989593019252 23.983152641609195  3.7542031553923465 23.647366203982287  3.7542031553923465 23.233152641609195  C 3.7542031553923465 23.17776116485078  3.7603395293721245 23.12254015776797  3.772500000000001 23.0685  L 5.04 18  L 0.75 18  C 0.3357864376269049 18  0 17.664213562373096  0 17.25  C 0 16.835786437626904  0.3357864376269049 16.5  0.75 16.5  L 1.5 16.5  L 1.5 3.75  C 1.5 2.507359312880715  2.507359312880715 1.5  3.75 1.5  L 10.7865 1.5  L 11.3295 0.41400000000000003  Z " stroke-width="0" stroke-dasharray="0" stroke="rgba(255, 255, 255, 0)" fill="none" class="stroke" mask="url(#Clip5349)" />
    <path d="M 3 3.75  L 3 16.5  L 21 16.5  L 21 3.75  C 21 3.335786437626905  20.664213562373096 3  20.25 3  L 3.75 3  C 3.335786437626905 3  3 3.335786437626905  3 3.75  Z " stroke-width="0" stroke-dasharray="0" stroke="rgba(255, 255, 255, 0)" fill="none" class="stroke" mask="url(#Clip5349)" />
    <path d="M 17.79 19.5  L 17.415 18  L 6.584999999999999 18  L 6.209999999999999 19.5  L 17.79 19.5  Z " stroke-width="0" stroke-dasharray="0" stroke="rgba(255, 255, 255, 0)" fill="none" class="stroke" mask="url(#Clip5349)" />
  </g>
</svg>