<?xml version="1.0" encoding="utf-8"?>
<svg version="1.1" xmlns:xlink="http://www.w3.org/1999/xlink" width="48px" height="48px" xmlns="http://www.w3.org/2000/svg">
  <defs>
    <pattern id="BGPattern" patternUnits="userSpaceOnUse" alignment="0 0" imageRepeat="None" />
    <mask fill="white" id="Clip7122">
      <path d="M 48 24  C 48 10.744  37.256 0  24 0  C 10.744 0  0 10.744  0 24  C 0 37.256  10.744 48  24 48  C 37.256 48  48 37.256  48 24  Z M 35.013999999999996 12.986  C 39.79199999999999 17.738  39.955999999999996 25.322000000000003  35.391999999999996 29.886  C 27.186 38.092  12.525999999999996 35.474  12.525999999999996 35.474  C 12.525999999999996 35.474  9.88 20.842  18.114 12.608  C 22.676000000000002 8.046  30.236 8.234000000000002  35.013999999999996 12.986  Z M 29.101999999999997 18.898  L 26.753999999999998 14.065999999999999  L 24.406 18.898  L 19.573999999999998 21.246  L 24.406 23.593999999999998  L 26.753999999999998 28.426000000000002  L 29.101999999999997 23.593999999999998  L 33.934 21.246  L 29.101999999999997 18.898  Z " fill-rule="evenodd" />
    </mask>
  </defs>
  <g>
    <path d="M 48 24  C 48 10.744  37.256 0  24 0  C 10.744 0  0 10.744  0 24  C 0 37.256  10.744 48  24 48  C 37.256 48  48 37.256  48 24  Z M 35.013999999999996 12.986  C 39.79199999999999 17.738  39.955999999999996 25.322000000000003  35.391999999999996 29.886  C 27.186 38.092  12.525999999999996 35.474  12.525999999999996 35.474  C 12.525999999999996 35.474  9.88 20.842  18.114 12.608  C 22.676000000000002 8.046  30.236 8.234000000000002  35.013999999999996 12.986  Z M 29.101999999999997 18.898  L 26.753999999999998 14.065999999999999  L 24.406 18.898  L 19.573999999999998 21.246  L 24.406 23.593999999999998  L 26.753999999999998 28.426000000000002  L 29.101999999999997 23.593999999999998  L 33.934 21.246  L 29.101999999999997 18.898  Z " fill-rule="nonzero" fill="rgba(0, 0, 0, 1)" stroke="none" class="fill" />
    <path d="M 48 24  C 48 10.744  37.256 0  24 0  C 10.744 0  0 10.744  0 24  C 0 37.256  10.744 48  24 48  C 37.256 48  48 37.256  48 24  Z " stroke-width="0" stroke-dasharray="0" stroke="rgba(255, 255, 255, 0)" fill="none" class="stroke" mask="url(#Clip7122)" />
    <path d="M 35.013999999999996 12.986  C 39.79199999999999 17.738  39.955999999999996 25.322000000000003  35.391999999999996 29.886  C 27.186 38.092  12.525999999999996 35.474  12.525999999999996 35.474  C 12.525999999999996 35.474  9.88 20.842  18.114 12.608  C 22.676000000000002 8.046  30.236 8.234000000000002  35.013999999999996 12.986  Z " stroke-width="0" stroke-dasharray="0" stroke="rgba(255, 255, 255, 0)" fill="none" class="stroke" mask="url(#Clip7122)" />
    <path d="M 29.101999999999997 18.898  L 26.753999999999998 14.065999999999999  L 24.406 18.898  L 19.573999999999998 21.246  L 24.406 23.593999999999998  L 26.753999999999998 28.426000000000002  L 29.101999999999997 23.593999999999998  L 33.934 21.246  L 29.101999999999997 18.898  Z " stroke-width="0" stroke-dasharray="0" stroke="rgba(255, 255, 255, 0)" fill="none" class="stroke" mask="url(#Clip7122)" />
  </g>
</svg>