<?xml version="1.0" encoding="utf-8"?>
<svg version="1.1" xmlns:xlink="http://www.w3.org/1999/xlink" width="24px" height="12px" xmlns="http://www.w3.org/2000/svg">
  <defs>
    <pattern id="BGPattern" patternUnits="userSpaceOnUse" alignment="0 0" imageRepeat="None" />
    <mask fill="white" id="Clip6119">
      <path d="M 21 0  L 3 0  C 1.3431457505076196 0  0 1.3431457505076203  0 3  L 0 7.5  C 0 9.15685424949238  1.3431457505076196 10.5  3 10.5  C 3 11.328427124746192  3.67157287525381 12  4.5 12  L 6 12  C 6.82842712474619 12  7.5 11.328427124746192  7.5 10.5  L 16.5 10.5  C 16.5 11.328427124746192  17.17157287525381 12  18 12  L 19.5 12  C 20.32842712474619 12  21 11.328427124746192  21 10.5  C 22.65685424949238 10.5  24 9.15685424949238  24 7.5  L 24 3  C 24 1.3431457505076203  22.65685424949238 0  21 0  Z M 3.75 3  L 9.75 3  C 10.164213562373096 3  10.5 3.335786437626904  10.5 3.75  C 10.5 4.164213562373096  10.164213562373096 4.5  9.75 4.5  L 3.75 4.5  C 3.335786437626905 4.5  3 4.164213562373096  3 3.75  C 3 3.335786437626904  3.335786437626905 3  3.75 3  Z M 20.999999999999996 5.250000067055225  C 20.999999999999996 6.492640754174509  19.992640687119284 7.500000067055225  18.749999999999996 7.500000067055225  C 17.507359312880713 7.500000067055225  16.499999999999996 6.492640754174509  16.499999999999996 5.250000067055225  C 16.500000037033576 4.00735933906741  17.507359339067406 3.0000000670552254  18.749999999999996 3.0000000670552254  C 19.992640687119284 3.0000000670552254  20.999999999999996 4.0073593799359415  20.999999999999996 5.250000067055225  Z M 3.75 7.5  C 3.335786437626905 7.5  3 7.164213562373096  3 6.75  C 3 6.335786437626904  3.335786437626905 6  3.75 6  L 9.75 6  C 10.164213562373096 6  10.5 6.335786437626904  10.5 6.75  C 10.5 7.164213562373096  10.164213562373096 7.5  9.75 7.5  L 3.75 7.5  Z " fill-rule="evenodd" />
    </mask>
  </defs>
  <g>
    <path d="M 21 0  L 3 0  C 1.3431457505076196 0  0 1.3431457505076203  0 3  L 0 7.5  C 0 9.15685424949238  1.3431457505076196 10.5  3 10.5  C 3 11.328427124746192  3.67157287525381 12  4.5 12  L 6 12  C 6.82842712474619 12  7.5 11.328427124746192  7.5 10.5  L 16.5 10.5  C 16.5 11.328427124746192  17.17157287525381 12  18 12  L 19.5 12  C 20.32842712474619 12  21 11.328427124746192  21 10.5  C 22.65685424949238 10.5  24 9.15685424949238  24 7.5  L 24 3  C 24 1.3431457505076203  22.65685424949238 0  21 0  Z M 3.75 3  L 9.75 3  C 10.164213562373096 3  10.5 3.335786437626904  10.5 3.75  C 10.5 4.164213562373096  10.164213562373096 4.5  9.75 4.5  L 3.75 4.5  C 3.335786437626905 4.5  3 4.164213562373096  3 3.75  C 3 3.335786437626904  3.335786437626905 3  3.75 3  Z M 20.999999999999996 5.250000067055225  C 20.999999999999996 6.492640754174509  19.992640687119284 7.500000067055225  18.749999999999996 7.500000067055225  C 17.507359312880713 7.500000067055225  16.499999999999996 6.492640754174509  16.499999999999996 5.250000067055225  C 16.500000037033576 4.00735933906741  17.507359339067406 3.0000000670552254  18.749999999999996 3.0000000670552254  C 19.992640687119284 3.0000000670552254  20.999999999999996 4.0073593799359415  20.999999999999996 5.250000067055225  Z M 3.75 7.5  C 3.335786437626905 7.5  3 7.164213562373096  3 6.75  C 3 6.335786437626904  3.335786437626905 6  3.75 6  L 9.75 6  C 10.164213562373096 6  10.5 6.335786437626904  10.5 6.75  C 10.5 7.164213562373096  10.164213562373096 7.5  9.75 7.5  L 3.75 7.5  Z " fill-rule="nonzero" fill="rgba(0, 0, 0, 1)" stroke="none" class="fill" />
    <path d="M 21 0  L 3 0  C 1.3431457505076196 0  0 1.3431457505076203  0 3  L 0 7.5  C 0 9.15685424949238  1.3431457505076196 10.5  3 10.5  C 3 11.328427124746192  3.67157287525381 12  4.5 12  L 6 12  C 6.82842712474619 12  7.5 11.328427124746192  7.5 10.5  L 16.5 10.5  C 16.5 11.328427124746192  17.17157287525381 12  18 12  L 19.5 12  C 20.32842712474619 12  21 11.328427124746192  21 10.5  C 22.65685424949238 10.5  24 9.15685424949238  24 7.5  L 24 3  C 24 1.3431457505076203  22.65685424949238 0  21 0  Z " stroke-width="0" stroke-dasharray="0" stroke="rgba(255, 255, 255, 0)" fill="none" class="stroke" mask="url(#Clip6119)" />
    <path d="M 3.75 3  L 9.75 3  C 10.164213562373096 3  10.5 3.335786437626904  10.5 3.75  C 10.5 4.164213562373096  10.164213562373096 4.5  9.75 4.5  L 3.75 4.5  C 3.335786437626905 4.5  3 4.164213562373096  3 3.75  C 3 3.335786437626904  3.335786437626905 3  3.75 3  Z " stroke-width="0" stroke-dasharray="0" stroke="rgba(255, 255, 255, 0)" fill="none" class="stroke" mask="url(#Clip6119)" />
    <path d="M 20.999999999999996 5.250000067055225  C 20.999999999999996 6.492640754174509  19.992640687119284 7.500000067055225  18.749999999999996 7.500000067055225  C 17.507359312880713 7.500000067055225  16.499999999999996 6.492640754174509  16.499999999999996 5.250000067055225  C 16.500000037033576 4.00735933906741  17.507359339067406 3.0000000670552254  18.749999999999996 3.0000000670552254  C 19.992640687119284 3.0000000670552254  20.999999999999996 4.0073593799359415  20.999999999999996 5.250000067055225  Z " stroke-width="0" stroke-dasharray="0" stroke="rgba(255, 255, 255, 0)" fill="none" class="stroke" mask="url(#Clip6119)" />
    <path d="M 3.75 7.5  C 3.335786437626905 7.5  3 7.164213562373096  3 6.75  C 3 6.335786437626904  3.335786437626905 6  3.75 6  L 9.75 6  C 10.164213562373096 6  10.5 6.335786437626904  10.5 6.75  C 10.5 7.164213562373096  10.164213562373096 7.5  9.75 7.5  L 3.75 7.5  Z " stroke-width="0" stroke-dasharray="0" stroke="rgba(255, 255, 255, 0)" fill="none" class="stroke" mask="url(#Clip6119)" />
  </g>
</svg>