<?xml version="1.0" encoding="utf-8"?>
<svg version="1.1" xmlns:xlink="http://www.w3.org/1999/xlink" width="38px" height="56px" xmlns="http://www.w3.org/2000/svg">
  <defs>
    <pattern id="BGPattern" patternUnits="userSpaceOnUse" alignment="0 0" imageRepeat="None" />
    <mask fill="white" id="Clip3053">
      <path d="M 37 4  C 37.5 1.7937500000000002  35.70625 0  33.5 0  L 4.5 0  C 2.2937499999999993 0  0.5 1.7937500000000002  1 4  L 1 52  C 0.5 54.20625  2.2937499999999993 56  4.5 56  L 33.5 56  C 35.70625 56  37.5 54.20625  37 52  L 37 4  Z M 33 5  L 33 51  L 5 51  L 5 5  L 33 5  Z " fill-rule="evenodd" />
    </mask>
  </defs>
  <g>
    <path d="M 37 4  C 37.5 1.7937500000000002  35.70625 0  33.5 0  L 4.5 0  C 2.2937499999999993 0  0.5 1.7937500000000002  1 4  L 1 52  C 0.5 54.20625  2.2937499999999993 56  4.5 56  L 33.5 56  C 35.70625 56  37.5 54.20625  37 52  L 37 4  Z M 33 5  L 33 51  L 5 51  L 5 5  L 33 5  Z " fill-rule="nonzero" fill="rgba(51, 51, 51, 1)" stroke="none" class="fill" />
    <path d="M 37 4  C 37.5 1.7937500000000002  35.70625 0  33.5 0  L 4.5 0  C 2.2937499999999993 0  0.5 1.7937500000000002  1 4  L 1 52  C 0.5 54.20625  2.2937499999999993 56  4.5 56  L 33.5 56  C 35.70625 56  37.5 54.20625  37 52  L 37 4  Z " stroke-width="0" stroke-dasharray="0" stroke="rgba(255, 255, 255, 0)" fill="none" class="stroke" mask="url(#Clip3053)" />
    <path d="M 33 5  L 33 51  L 5 51  L 5 5  L 33 5  Z " stroke-width="0" stroke-dasharray="0" stroke="rgba(255, 255, 255, 0)" fill="none" class="stroke" mask="url(#Clip3053)" />
  </g>
</svg>