<?xml version="1.0" encoding="utf-8"?>
<svg version="1.1" xmlns:xlink="http://www.w3.org/1999/xlink" width="10px" height="10px" xmlns="http://www.w3.org/2000/svg">
  <defs>
    <pattern id="BGPattern" patternUnits="userSpaceOnUse" alignment="0 0" imageRepeat="None" />
    <mask fill="white" id="Clip4326">
      <path d="M 1.7070000000000007 9.706999095392732  C 1.5197449315824034 9.894903708205588  1.2652781168406673 10.000361656962456  1 9.999999068087702  C 0.4477986470126787 9.999881160151888  0.00021352346109893006 9.552200498190118  0.00021352346109893006 8.999999184075063  C 0.00021352346109893006 8.73483503221342  0.10552892111843803 8.480526901298777  0.29299999999999926 8.29299922716513  L 7.292999999999999 1.292999879503739  C 7.481436371934809 1.0978973228045914  7.741044254655428 0.9877117022264953  8.012288205727426 0.9877117022264953  C 8.56457295555822 0.9877117022264953  9.012288205727426 1.4354269106725672  9.012288205727426 1.9877116090352653  C 9.012288205727426 2.258955534829706  8.902102574880995 2.5185633933571454  8.707 2.7069997477313397  L 1.7070000000000007 9.706999095392732  Z " fill-rule="evenodd" />
    </mask>
  </defs>
  <g transform="matrix(1 0 0 1 -10 -6 )">
    <path d="M 1.7070000000000007 9.706999095392732  C 1.5197449315824034 9.894903708205588  1.2652781168406673 10.000361656962456  1 9.999999068087702  C 0.4477986470126787 9.999881160151888  0.00021352346109893006 9.552200498190118  0.00021352346109893006 8.999999184075063  C 0.00021352346109893006 8.73483503221342  0.10552892111843803 8.480526901298777  0.29299999999999926 8.29299922716513  L 7.292999999999999 1.292999879503739  C 7.481436371934809 1.0978973228045914  7.741044254655428 0.9877117022264953  8.012288205727426 0.9877117022264953  C 8.56457295555822 0.9877117022264953  9.012288205727426 1.4354269106725672  9.012288205727426 1.9877116090352653  C 9.012288205727426 2.258955534829706  8.902102574880995 2.5185633933571454  8.707 2.7069997477313397  L 1.7070000000000007 9.706999095392732  Z " fill-rule="nonzero" fill="rgba(0, 0, 0, 1)" stroke="none" transform="matrix(1 0 0 1 10 6 )" class="fill" />
    <path d="M 1.7070000000000007 9.706999095392732  C 1.5197449315824034 9.894903708205588  1.2652781168406673 10.000361656962456  1 9.999999068087702  C 0.4477986470126787 9.999881160151888  0.00021352346109893006 9.552200498190118  0.00021352346109893006 8.999999184075063  C 0.00021352346109893006 8.73483503221342  0.10552892111843803 8.480526901298777  0.29299999999999926 8.29299922716513  L 7.292999999999999 1.292999879503739  C 7.481436371934809 1.0978973228045914  7.741044254655428 0.9877117022264953  8.012288205727426 0.9877117022264953  C 8.56457295555822 0.9877117022264953  9.012288205727426 1.4354269106725672  9.012288205727426 1.9877116090352653  C 9.012288205727426 2.258955534829706  8.902102574880995 2.5185633933571454  8.707 2.7069997477313397  L 1.7070000000000007 9.706999095392732  Z " stroke-width="0" stroke-dasharray="0" stroke="rgba(255, 255, 255, 0)" fill="none" transform="matrix(1 0 0 1 10 6 )" class="stroke" mask="url(#Clip4326)" />
  </g>
</svg>