<?xml version="1.0" encoding="utf-8"?>
<svg version="1.1" xmlns:xlink="http://www.w3.org/1999/xlink" width="27px" height="27px" xmlns="http://www.w3.org/2000/svg">
  <defs>
    <pattern id="BGPattern" patternUnits="userSpaceOnUse" alignment="0 0" imageRepeat="None" />
    <mask fill="white" id="Clip4327">
      <path d="M 27 25.5859  L 22.707 21.293  C 21.40784315843125 20.07459726108697  19.75483361099137 19.30097478432962  17.987000000000002 19.084  C 18.186200000000003 18.9199  18.380100000000002 18.7476  18.564700000000002 18.563  C 21.048375201384108 15.889960453531081  21.72743705821522 12.006098012773425  20.2981 8.6489  L 18.421300000000002 9.3462  C 19.5313 12.326699999999999  19.0559 15.243699999999999  17.1491 17.148400000000002  C 15.669795089146888 18.570132978352547  13.620357043232664 19.235232931861162  11.5881 18.9531  C 9.40607000142234 18.699428606084755  7.373099338128413 17.71813540219088  5.817100000000001 16.1675  C 2.8444000000000007 13.197500000000002  1.741200000000001 7.9399  4.836600000000001 4.8475  C 6.743400000000001 2.9421999999999997  9.6633 2.4675000000000002  12.646 3.5765000000000002  L 13.344700000000001 1.7015000000000002  C 9.6616 0.3330000000000002  5.8591 0.9961000000000002  3.4207000000000005 3.4331  C -0.5219999999999998 7.371599999999998  0.7446000000000002 13.9287  4.4007000000000005 17.582000000000004  C 6.282695828926429 19.454004885112887  8.740319895167996 20.637621096816535  11.377300000000002 20.942  C 11.587300000000003 20.964  11.792600000000002 20.9654  11.999600000000001 20.9752  L 11.999600000000001 21  L 16.9964 21  C 18.583067702065577 21.053670849062648  20.10176520545645 21.65709169499352  21.2926 22.707  L 25.5859 27  L 27 25.5859  Z " fill-rule="evenodd" />
    </mask>
  </defs>
  <g transform="matrix(1 0 0 1 -1 -3 )">
    <path d="M 27 25.5859  L 22.707 21.293  C 21.40784315843125 20.07459726108697  19.75483361099137 19.30097478432962  17.987000000000002 19.084  C 18.186200000000003 18.9199  18.380100000000002 18.7476  18.564700000000002 18.563  C 21.048375201384108 15.889960453531081  21.72743705821522 12.006098012773425  20.2981 8.6489  L 18.421300000000002 9.3462  C 19.5313 12.326699999999999  19.0559 15.243699999999999  17.1491 17.148400000000002  C 15.669795089146888 18.570132978352547  13.620357043232664 19.235232931861162  11.5881 18.9531  C 9.40607000142234 18.699428606084755  7.373099338128413 17.71813540219088  5.817100000000001 16.1675  C 2.8444000000000007 13.197500000000002  1.741200000000001 7.9399  4.836600000000001 4.8475  C 6.743400000000001 2.9421999999999997  9.6633 2.4675000000000002  12.646 3.5765000000000002  L 13.344700000000001 1.7015000000000002  C 9.6616 0.3330000000000002  5.8591 0.9961000000000002  3.4207000000000005 3.4331  C -0.5219999999999998 7.371599999999998  0.7446000000000002 13.9287  4.4007000000000005 17.582000000000004  C 6.282695828926429 19.454004885112887  8.740319895167996 20.637621096816535  11.377300000000002 20.942  C 11.587300000000003 20.964  11.792600000000002 20.9654  11.999600000000001 20.9752  L 11.999600000000001 21  L 16.9964 21  C 18.583067702065577 21.053670849062648  20.10176520545645 21.65709169499352  21.2926 22.707  L 25.5859 27  L 27 25.5859  Z " fill-rule="nonzero" fill="rgba(0, 0, 0, 1)" stroke="none" transform="matrix(1 0 0 1 1 3 )" class="fill" />
    <path d="M 27 25.5859  L 22.707 21.293  C 21.40784315843125 20.07459726108697  19.75483361099137 19.30097478432962  17.987000000000002 19.084  C 18.186200000000003 18.9199  18.380100000000002 18.7476  18.564700000000002 18.563  C 21.048375201384108 15.889960453531081  21.72743705821522 12.006098012773425  20.2981 8.6489  L 18.421300000000002 9.3462  C 19.5313 12.326699999999999  19.0559 15.243699999999999  17.1491 17.148400000000002  C 15.669795089146888 18.570132978352547  13.620357043232664 19.235232931861162  11.5881 18.9531  C 9.40607000142234 18.699428606084755  7.373099338128413 17.71813540219088  5.817100000000001 16.1675  C 2.8444000000000007 13.197500000000002  1.741200000000001 7.9399  4.836600000000001 4.8475  C 6.743400000000001 2.9421999999999997  9.6633 2.4675000000000002  12.646 3.5765000000000002  L 13.344700000000001 1.7015000000000002  C 9.6616 0.3330000000000002  5.8591 0.9961000000000002  3.4207000000000005 3.4331  C -0.5219999999999998 7.371599999999998  0.7446000000000002 13.9287  4.4007000000000005 17.582000000000004  C 6.282695828926429 19.454004885112887  8.740319895167996 20.637621096816535  11.377300000000002 20.942  C 11.587300000000003 20.964  11.792600000000002 20.9654  11.999600000000001 20.9752  L 11.999600000000001 21  L 16.9964 21  C 18.583067702065577 21.053670849062648  20.10176520545645 21.65709169499352  21.2926 22.707  L 25.5859 27  L 27 25.5859  Z " stroke-width="0" stroke-dasharray="0" stroke="rgba(255, 255, 255, 0)" fill="none" transform="matrix(1 0 0 1 1 3 )" class="stroke" mask="url(#Clip4327)" />
  </g>
</svg>