<?xml version="1.0" encoding="utf-8"?>
<svg version="1.1" xmlns:xlink="http://www.w3.org/1999/xlink" width="50px" height="50px" xmlns="http://www.w3.org/2000/svg">
  <defs>
    <pattern id="BGPattern" patternUnits="userSpaceOnUse" alignment="0 0" imageRepeat="None" />
    <mask fill="white" id="Clip1042">
      <path d="M 35.40178571428572 14.453125  C 32.61160714285711 11.662946428571445  28.92857142857144 10.133928571428555  25 10.133928571428555  C 16.886160714285722 10.133928571428555  10.290178571428555 16.729910714285722  10.279017857142833 24.84375  C 10.279017857142833 27.622767857142833  11.060267857142833 30.334821428571445  12.533482142857167 32.66741071428572  L 12.87946428571428 33.225446428571445  L 11.395089285714278 38.649553571428555  L 16.964285714285722 37.1875  L 17.5 37.51116071428572  C 19.754464285714278 38.850446428571445  22.34375 39.56473214285717  24.988839285714278 39.56473214285717  L 25 39.56473214285717  C 33.102678571428555 39.56473214285717  39.87723214285717 32.96875  39.87723214285717 24.854910714285722  C 39.87723214285717 20.926339285714278  38.180803571428555 17.232142857142833  35.40178571428572 14.453125  Z M 33.91741071428572 29.02901785714283  C 34.01785714285717 29.24107142857145  34.01785714285717 30.13392857142855  33.649553571428555 31.160714285714274  C 33.28125 32.19866071428572  31.51785714285717 33.13616071428572  30.669642857142833 33.258928571428555  C 29.263392857142833 33.47098214285711  28.169642857142836 33.359375  25.36830357142856 32.15401785714289  C 20.9375 30.234375000000004  18.035714285714278 25.770089285714278  17.8125 25.479910714285726  C 17.589285714285722 25.189732142857167  16.004464285714278 23.080357142857167  16.004464285714278 20.904017857142833  C 16.004464285714278 18.727678571428555  17.142857142857167 17.65625  17.555803571428555 17.209821428571445  C 17.957589285714278 16.763392857142833  18.4375 16.651785714285722  18.738839285714278 16.651785714285722  C 19.02901785714289 16.651785714285722  19.330357142857167 16.651785714285722  19.587053571428555 16.662946428571445  C 19.854910714285722 16.674107142857167  20.223214285714278 16.5625  20.580357142857167 17.421875  C 20.948660714285722 18.303571428571445  21.830357142857167 20.479910714285722  21.941964285714278 20.703125  C 22.053571428571445 20.926339285714278  22.131696428571445 21.183035714285722  21.975446428571445 21.473214285714278  C 21.127232142857167 23.16964285714289  20.223214285714278 23.102678571428555  20.680803571428555 23.883928571428555  C 22.38839285714289 26.819196428571445  24.095982142857167 27.834821428571445  26.696428571428555 29.140624999999996  C 27.142857142857167 29.363839285714278  27.39955357142855 29.330357142857167  27.65625 29.02901785714283  C 27.912946428571445 28.738839285714278  28.761160714285722 27.734375  29.051339285714278 27.299107142857164  C 29.34151785714289 26.852678571428555  29.642857142857164 26.93080357142856  30.04464285714289 27.07589285714283  C 30.44642857142856 27.22098214285717  32.62276785714289 28.292410714285722  33.069196428571445 28.515625  C 33.515625 28.738839285714278  33.805803571428555 28.85044642857145  33.91741071428572 29.02901785714283  Z M 50 5.357142857142833  C 50 2.399553571428555  47.600446428571445 0  44.64285714285717 0  L 5.357142857142833 0  C 2.399553571428555 0  0 2.399553571428555  0 5.357142857142833  L 0 44.64285714285717  C 0 47.600446428571445  2.399553571428555 50  5.357142857142833 50  L 44.64285714285717 50  C 47.600446428571445 50  50 47.600446428571445  50 44.64285714285717  L 50 5.357142857142833  Z M 42.85714285714283 24.854910714285722  C 42.85714285714283 34.609375  34.743303571428555 42.54464285714283  24.988839285714278 42.54464285714283  C 22.020089285714278 42.54464285714283  19.107142857142833 41.796875  16.52901785714289 40.390625  L 7.142857142857167 42.85714285714283  L 9.654017857142833 33.68303571428572  C 8.102678571428555 31.004464285714278  7.287946428571444 27.957589285714278  7.287946428571444 24.832589285714278  C 7.299107142857167 15.078125  15.234375 7.142857142857167  24.988839285714278 7.142857142857167  C 29.720982142857167 7.142857142857167  34.162946428571445 8.984375  37.51116071428572 12.332589285714278  C 40.84821428571428 15.680803571428555  42.85714285714283 20.122767857142833  42.85714285714283 24.854910714285722  Z " fill-rule="evenodd" />
    </mask>
  </defs>
  <g>
    <path d="M 35.40178571428572 14.453125  C 32.61160714285711 11.662946428571445  28.92857142857144 10.133928571428555  25 10.133928571428555  C 16.886160714285722 10.133928571428555  10.290178571428555 16.729910714285722  10.279017857142833 24.84375  C 10.279017857142833 27.622767857142833  11.060267857142833 30.334821428571445  12.533482142857167 32.66741071428572  L 12.87946428571428 33.225446428571445  L 11.395089285714278 38.649553571428555  L 16.964285714285722 37.1875  L 17.5 37.51116071428572  C 19.754464285714278 38.850446428571445  22.34375 39.56473214285717  24.988839285714278 39.56473214285717  L 25 39.56473214285717  C 33.102678571428555 39.56473214285717  39.87723214285717 32.96875  39.87723214285717 24.854910714285722  C 39.87723214285717 20.926339285714278  38.180803571428555 17.232142857142833  35.40178571428572 14.453125  Z M 33.91741071428572 29.02901785714283  C 34.01785714285717 29.24107142857145  34.01785714285717 30.13392857142855  33.649553571428555 31.160714285714274  C 33.28125 32.19866071428572  31.51785714285717 33.13616071428572  30.669642857142833 33.258928571428555  C 29.263392857142833 33.47098214285711  28.169642857142836 33.359375  25.36830357142856 32.15401785714289  C 20.9375 30.234375000000004  18.035714285714278 25.770089285714278  17.8125 25.479910714285726  C 17.589285714285722 25.189732142857167  16.004464285714278 23.080357142857167  16.004464285714278 20.904017857142833  C 16.004464285714278 18.727678571428555  17.142857142857167 17.65625  17.555803571428555 17.209821428571445  C 17.957589285714278 16.763392857142833  18.4375 16.651785714285722  18.738839285714278 16.651785714285722  C 19.02901785714289 16.651785714285722  19.330357142857167 16.651785714285722  19.587053571428555 16.662946428571445  C 19.854910714285722 16.674107142857167  20.223214285714278 16.5625  20.580357142857167 17.421875  C 20.948660714285722 18.303571428571445  21.830357142857167 20.479910714285722  21.941964285714278 20.703125  C 22.053571428571445 20.926339285714278  22.131696428571445 21.183035714285722  21.975446428571445 21.473214285714278  C 21.127232142857167 23.16964285714289  20.223214285714278 23.102678571428555  20.680803571428555 23.883928571428555  C 22.38839285714289 26.819196428571445  24.095982142857167 27.834821428571445  26.696428571428555 29.140624999999996  C 27.142857142857167 29.363839285714278  27.39955357142855 29.330357142857167  27.65625 29.02901785714283  C 27.912946428571445 28.738839285714278  28.761160714285722 27.734375  29.051339285714278 27.299107142857164  C 29.34151785714289 26.852678571428555  29.642857142857164 26.93080357142856  30.04464285714289 27.07589285714283  C 30.44642857142856 27.22098214285717  32.62276785714289 28.292410714285722  33.069196428571445 28.515625  C 33.515625 28.738839285714278  33.805803571428555 28.85044642857145  33.91741071428572 29.02901785714283  Z M 50 5.357142857142833  C 50 2.399553571428555  47.600446428571445 0  44.64285714285717 0  L 5.357142857142833 0  C 2.399553571428555 0  0 2.399553571428555  0 5.357142857142833  L 0 44.64285714285717  C 0 47.600446428571445  2.399553571428555 50  5.357142857142833 50  L 44.64285714285717 50  C 47.600446428571445 50  50 47.600446428571445  50 44.64285714285717  L 50 5.357142857142833  Z M 42.85714285714283 24.854910714285722  C 42.85714285714283 34.609375  34.743303571428555 42.54464285714283  24.988839285714278 42.54464285714283  C 22.020089285714278 42.54464285714283  19.107142857142833 41.796875  16.52901785714289 40.390625  L 7.142857142857167 42.85714285714283  L 9.654017857142833 33.68303571428572  C 8.102678571428555 31.004464285714278  7.287946428571444 27.957589285714278  7.287946428571444 24.832589285714278  C 7.299107142857167 15.078125  15.234375 7.142857142857167  24.988839285714278 7.142857142857167  C 29.720982142857167 7.142857142857167  34.162946428571445 8.984375  37.51116071428572 12.332589285714278  C 40.84821428571428 15.680803571428555  42.85714285714283 20.122767857142833  42.85714285714283 24.854910714285722  Z " fill-rule="nonzero" fill="rgba(0, 0, 0, 1)" stroke="none" class="fill" />
    <path d="M 35.40178571428572 14.453125  C 32.61160714285711 11.662946428571445  28.92857142857144 10.133928571428555  25 10.133928571428555  C 16.886160714285722 10.133928571428555  10.290178571428555 16.729910714285722  10.279017857142833 24.84375  C 10.279017857142833 27.622767857142833  11.060267857142833 30.334821428571445  12.533482142857167 32.66741071428572  L 12.87946428571428 33.225446428571445  L 11.395089285714278 38.649553571428555  L 16.964285714285722 37.1875  L 17.5 37.51116071428572  C 19.754464285714278 38.850446428571445  22.34375 39.56473214285717  24.988839285714278 39.56473214285717  L 25 39.56473214285717  C 33.102678571428555 39.56473214285717  39.87723214285717 32.96875  39.87723214285717 24.854910714285722  C 39.87723214285717 20.926339285714278  38.180803571428555 17.232142857142833  35.40178571428572 14.453125  Z " stroke-width="0" stroke-dasharray="0" stroke="rgba(255, 255, 255, 0)" fill="none" class="stroke" mask="url(#Clip1042)" />
    <path d="M 33.91741071428572 29.02901785714283  C 34.01785714285717 29.24107142857145  34.01785714285717 30.13392857142855  33.649553571428555 31.160714285714274  C 33.28125 32.19866071428572  31.51785714285717 33.13616071428572  30.669642857142833 33.258928571428555  C 29.263392857142833 33.47098214285711  28.169642857142836 33.359375  25.36830357142856 32.15401785714289  C 20.9375 30.234375000000004  18.035714285714278 25.770089285714278  17.8125 25.479910714285726  C 17.589285714285722 25.189732142857167  16.004464285714278 23.080357142857167  16.004464285714278 20.904017857142833  C 16.004464285714278 18.727678571428555  17.142857142857167 17.65625  17.555803571428555 17.209821428571445  C 17.957589285714278 16.763392857142833  18.4375 16.651785714285722  18.738839285714278 16.651785714285722  C 19.02901785714289 16.651785714285722  19.330357142857167 16.651785714285722  19.587053571428555 16.662946428571445  C 19.854910714285722 16.674107142857167  20.223214285714278 16.5625  20.580357142857167 17.421875  C 20.948660714285722 18.303571428571445  21.830357142857167 20.479910714285722  21.941964285714278 20.703125  C 22.053571428571445 20.926339285714278  22.131696428571445 21.183035714285722  21.975446428571445 21.473214285714278  C 21.127232142857167 23.16964285714289  20.223214285714278 23.102678571428555  20.680803571428555 23.883928571428555  C 22.38839285714289 26.819196428571445  24.095982142857167 27.834821428571445  26.696428571428555 29.140624999999996  C 27.142857142857167 29.363839285714278  27.39955357142855 29.330357142857167  27.65625 29.02901785714283  C 27.912946428571445 28.738839285714278  28.761160714285722 27.734375  29.051339285714278 27.299107142857164  C 29.34151785714289 26.852678571428555  29.642857142857164 26.93080357142856  30.04464285714289 27.07589285714283  C 30.44642857142856 27.22098214285717  32.62276785714289 28.292410714285722  33.069196428571445 28.515625  C 33.515625 28.738839285714278  33.805803571428555 28.85044642857145  33.91741071428572 29.02901785714283  Z " stroke-width="0" stroke-dasharray="0" stroke="rgba(255, 255, 255, 0)" fill="none" class="stroke" mask="url(#Clip1042)" />
    <path d="M 50 5.357142857142833  C 50 2.399553571428555  47.600446428571445 0  44.64285714285717 0  L 5.357142857142833 0  C 2.399553571428555 0  0 2.399553571428555  0 5.357142857142833  L 0 44.64285714285717  C 0 47.600446428571445  2.399553571428555 50  5.357142857142833 50  L 44.64285714285717 50  C 47.600446428571445 50  50 47.600446428571445  50 44.64285714285717  L 50 5.357142857142833  Z " stroke-width="0" stroke-dasharray="0" stroke="rgba(255, 255, 255, 0)" fill="none" class="stroke" mask="url(#Clip1042)" />
    <path d="M 42.85714285714283 24.854910714285722  C 42.85714285714283 34.609375  34.743303571428555 42.54464285714283  24.988839285714278 42.54464285714283  C 22.020089285714278 42.54464285714283  19.107142857142833 41.796875  16.52901785714289 40.390625  L 7.142857142857167 42.85714285714283  L 9.654017857142833 33.68303571428572  C 8.102678571428555 31.004464285714278  7.287946428571444 27.957589285714278  7.287946428571444 24.832589285714278  C 7.299107142857167 15.078125  15.234375 7.142857142857167  24.988839285714278 7.142857142857167  C 29.720982142857167 7.142857142857167  34.162946428571445 8.984375  37.51116071428572 12.332589285714278  C 40.84821428571428 15.680803571428555  42.85714285714283 20.122767857142833  42.85714285714283 24.854910714285722  Z " stroke-width="0" stroke-dasharray="0" stroke="rgba(255, 255, 255, 0)" fill="none" class="stroke" mask="url(#Clip1042)" />
  </g>
</svg>