<?xml version="1.0" encoding="utf-8"?>
<svg version="1.1" xmlns:xlink="http://www.w3.org/1999/xlink" width="48px" height="48px" xmlns="http://www.w3.org/2000/svg">
  <defs>
    <pattern id="BGPattern" patternUnits="userSpaceOnUse" alignment="0 0" imageRepeat="None" />
    <mask fill="white" id="Clip6788">
      <path d="M 41.084 7.033999999999999  C 36.476 2.434000000000001  30.55 0  23.966 0  C 17.382 0  11.586 2.434000000000001  7.109999999999999 6.970000000000001  C 2.5 11.638000000000002  0 17.688  0 24  C 0 30.378  2.434 36.296  7.044 40.9  C 11.654 45.5  17.644 48  23.966 48  C 30.286 48  36.410000000000004 45.5  41.152 40.834  C 45.63 36.428  48 30.574000000000005  48 24  C 48 17.490000000000002  45.628 11.572  41.084 7.033999999999999  Z M 10.203999999999997 10.060000000000002  C 13.891999999999996 6.312000000000001  18.631999999999998 4.340000000000002  24.032000000000004 4.340000000000001  C 29.432000000000002 4.340000000000001  34.238 6.380000000000001  37.992000000000004 10.126000000000001  C 41.678000000000004 13.808  43.652 18.674  43.652 24  C 43.652 29.391999999999996  41.744 34.126  38.056 37.744  C 34.169999999999995 41.556  29.168 43.596000000000004  24.031999999999996 43.596000000000004  C 18.83 43.596000000000004  13.955999999999996 41.55800000000001  10.203999999999997 37.81  C 6.4499999999999975 34.06  4.343999999999997 29.130000000000003  4.343999999999997 24  C 4.343999999999997 18.806  6.4499999999999975 13.874000000000002  10.203999999999997 10.060000000000002  Z M 23.722 20.012  C 22.362000000000002 17.54  20.048000000000002 16.556  17.36 16.556  C 13.446000000000002 16.556  10.33 19.32  10.33 24  C 10.33 28.759999999999998  13.26 31.444000000000003  17.492 31.444000000000003  C 20.208000000000002 31.444000000000003  22.524 29.956  23.802 27.695999999999998  L 20.82 26.18  C 20.154 27.776  19.142 28.253999999999998  17.864 28.253999999999998  C 15.654 28.253999999999998  14.643999999999998 26.42  14.643999999999998 24.001999999999995  C 14.643999999999998 21.582  15.496000000000002 19.747999999999998  17.864 19.747999999999998  C 18.504 19.747999999999998  19.784 20.093999999999998  20.528000000000002 21.688  L 23.722 20.012  Z M 37.586000000000006 20.012  C 36.226000000000006 17.54  33.912000000000006 16.556  31.223999999999997 16.556  C 27.310000000000002 16.556  24.195999999999998 19.32  24.195999999999998 24  C 24.195999999999998 28.759999999999998  27.124000000000002 31.444000000000003  31.356 31.444000000000003  C 34.074 31.444000000000003  36.388000000000005 29.956  37.666000000000004 27.695999999999998  L 34.68600000000001 26.18  C 34.02000000000001 27.776  33.00600000000001 28.253999999999998  31.73000000000001 28.253999999999998  C 29.520000000000003 28.253999999999998  28.508000000000003 26.42  28.508000000000003 24.001999999999995  C 28.508000000000003 21.582  29.360000000000007 19.747999999999998  31.72800000000001 19.747999999999998  C 32.368 19.747999999999998  33.648 20.093999999999998  34.392 21.688  L 37.586000000000006 20.012  Z " fill-rule="evenodd" />
    </mask>
  </defs>
  <g>
    <path d="M 41.084 7.033999999999999  C 36.476 2.434000000000001  30.55 0  23.966 0  C 17.382 0  11.586 2.434000000000001  7.109999999999999 6.970000000000001  C 2.5 11.638000000000002  0 17.688  0 24  C 0 30.378  2.434 36.296  7.044 40.9  C 11.654 45.5  17.644 48  23.966 48  C 30.286 48  36.410000000000004 45.5  41.152 40.834  C 45.63 36.428  48 30.574000000000005  48 24  C 48 17.490000000000002  45.628 11.572  41.084 7.033999999999999  Z M 10.203999999999997 10.060000000000002  C 13.891999999999996 6.312000000000001  18.631999999999998 4.340000000000002  24.032000000000004 4.340000000000001  C 29.432000000000002 4.340000000000001  34.238 6.380000000000001  37.992000000000004 10.126000000000001  C 41.678000000000004 13.808  43.652 18.674  43.652 24  C 43.652 29.391999999999996  41.744 34.126  38.056 37.744  C 34.169999999999995 41.556  29.168 43.596000000000004  24.031999999999996 43.596000000000004  C 18.83 43.596000000000004  13.955999999999996 41.55800000000001  10.203999999999997 37.81  C 6.4499999999999975 34.06  4.343999999999997 29.130000000000003  4.343999999999997 24  C 4.343999999999997 18.806  6.4499999999999975 13.874000000000002  10.203999999999997 10.060000000000002  Z M 23.722 20.012  C 22.362000000000002 17.54  20.048000000000002 16.556  17.36 16.556  C 13.446000000000002 16.556  10.33 19.32  10.33 24  C 10.33 28.759999999999998  13.26 31.444000000000003  17.492 31.444000000000003  C 20.208000000000002 31.444000000000003  22.524 29.956  23.802 27.695999999999998  L 20.82 26.18  C 20.154 27.776  19.142 28.253999999999998  17.864 28.253999999999998  C 15.654 28.253999999999998  14.643999999999998 26.42  14.643999999999998 24.001999999999995  C 14.643999999999998 21.582  15.496000000000002 19.747999999999998  17.864 19.747999999999998  C 18.504 19.747999999999998  19.784 20.093999999999998  20.528000000000002 21.688  L 23.722 20.012  Z M 37.586000000000006 20.012  C 36.226000000000006 17.54  33.912000000000006 16.556  31.223999999999997 16.556  C 27.310000000000002 16.556  24.195999999999998 19.32  24.195999999999998 24  C 24.195999999999998 28.759999999999998  27.124000000000002 31.444000000000003  31.356 31.444000000000003  C 34.074 31.444000000000003  36.388000000000005 29.956  37.666000000000004 27.695999999999998  L 34.68600000000001 26.18  C 34.02000000000001 27.776  33.00600000000001 28.253999999999998  31.73000000000001 28.253999999999998  C 29.520000000000003 28.253999999999998  28.508000000000003 26.42  28.508000000000003 24.001999999999995  C 28.508000000000003 21.582  29.360000000000007 19.747999999999998  31.72800000000001 19.747999999999998  C 32.368 19.747999999999998  33.648 20.093999999999998  34.392 21.688  L 37.586000000000006 20.012  Z " fill-rule="nonzero" fill="rgba(239, 148, 33, 1)" stroke="none" class="fill" />
    <path d="M 41.084 7.033999999999999  C 36.476 2.434000000000001  30.55 0  23.966 0  C 17.382 0  11.586 2.434000000000001  7.109999999999999 6.970000000000001  C 2.5 11.638000000000002  0 17.688  0 24  C 0 30.378  2.434 36.296  7.044 40.9  C 11.654 45.5  17.644 48  23.966 48  C 30.286 48  36.410000000000004 45.5  41.152 40.834  C 45.63 36.428  48 30.574000000000005  48 24  C 48 17.490000000000002  45.628 11.572  41.084 7.033999999999999  Z " stroke-width="0" stroke-dasharray="0" stroke="rgba(255, 255, 255, 0)" fill="none" class="stroke" mask="url(#Clip6788)" />
    <path d="M 10.203999999999997 10.060000000000002  C 13.891999999999996 6.312000000000001  18.631999999999998 4.340000000000002  24.032000000000004 4.340000000000001  C 29.432000000000002 4.340000000000001  34.238 6.380000000000001  37.992000000000004 10.126000000000001  C 41.678000000000004 13.808  43.652 18.674  43.652 24  C 43.652 29.391999999999996  41.744 34.126  38.056 37.744  C 34.169999999999995 41.556  29.168 43.596000000000004  24.031999999999996 43.596000000000004  C 18.83 43.596000000000004  13.955999999999996 41.55800000000001  10.203999999999997 37.81  C 6.4499999999999975 34.06  4.343999999999997 29.130000000000003  4.343999999999997 24  C 4.343999999999997 18.806  6.4499999999999975 13.874000000000002  10.203999999999997 10.060000000000002  Z " stroke-width="0" stroke-dasharray="0" stroke="rgba(255, 255, 255, 0)" fill="none" class="stroke" mask="url(#Clip6788)" />
    <path d="M 23.722 20.012  C 22.362000000000002 17.54  20.048000000000002 16.556  17.36 16.556  C 13.446000000000002 16.556  10.33 19.32  10.33 24  C 10.33 28.759999999999998  13.26 31.444000000000003  17.492 31.444000000000003  C 20.208000000000002 31.444000000000003  22.524 29.956  23.802 27.695999999999998  L 20.82 26.18  C 20.154 27.776  19.142 28.253999999999998  17.864 28.253999999999998  C 15.654 28.253999999999998  14.643999999999998 26.42  14.643999999999998 24.001999999999995  C 14.643999999999998 21.582  15.496000000000002 19.747999999999998  17.864 19.747999999999998  C 18.504 19.747999999999998  19.784 20.093999999999998  20.528000000000002 21.688  L 23.722 20.012  Z " stroke-width="0" stroke-dasharray="0" stroke="rgba(255, 255, 255, 0)" fill="none" class="stroke" mask="url(#Clip6788)" />
    <path d="M 37.586000000000006 20.012  C 36.226000000000006 17.54  33.912000000000006 16.556  31.223999999999997 16.556  C 27.310000000000002 16.556  24.195999999999998 19.32  24.195999999999998 24  C 24.195999999999998 28.759999999999998  27.124000000000002 31.444000000000003  31.356 31.444000000000003  C 34.074 31.444000000000003  36.388000000000005 29.956  37.666000000000004 27.695999999999998  L 34.68600000000001 26.18  C 34.02000000000001 27.776  33.00600000000001 28.253999999999998  31.73000000000001 28.253999999999998  C 29.520000000000003 28.253999999999998  28.508000000000003 26.42  28.508000000000003 24.001999999999995  C 28.508000000000003 21.582  29.360000000000007 19.747999999999998  31.72800000000001 19.747999999999998  C 32.368 19.747999999999998  33.648 20.093999999999998  34.392 21.688  L 37.586000000000006 20.012  Z " stroke-width="0" stroke-dasharray="0" stroke="rgba(255, 255, 255, 0)" fill="none" class="stroke" mask="url(#Clip6788)" />
  </g>
</svg>