<?xml version="1.0" encoding="utf-8"?>
<svg version="1.1" xmlns:xlink="http://www.w3.org/1999/xlink" width="24px" height="30px" xmlns="http://www.w3.org/2000/svg">
  <defs>
    <pattern id="BGPattern" patternUnits="userSpaceOnUse" alignment="0 0" imageRepeat="None" />
    <mask fill="white" id="Clip314">
      <path d="M 17.183999999999997 2.2319999999999984  L 21.632 6.776  C 22.656000000000002 7.832  23.184 9.128  23 10.584  L 23 24.439999999999998  C 23.184 27.176  20.96 29.4  18.224 29  L 5.744 29  C 3.007999999999999 29.4  0.7839999999999998 27.176  1 24.439999999999998  L 1 5.559999999999999  C 0.7839999999999998 2.8239999999999985  3.008 0.5999999999999988  5.744 0.5999999999999988  L 13.264 0.5999999999999988  C 14.768 0.5999999999999988  16.128 1.1439999999999988  17.183999999999997 2.2319999999999984  Z M 18.224 27  C 19.632 27  20.784 25.848  20.784 24.44  L 20.784 10.584000000000001  C 20.784 9.736  20.512 9.064000000000002  19.904 8.440000000000001  L 15.456 3.8960000000000012  C 14.864 3.288000000000002  14.16 3.0000000000000018  13.264 3.0000000000000018  L 5.744 3.0000000000000018  C 4.336 3.0000000000000018  3.1839999999999993 4.152000000000002  3.1839999999999993 5.560000000000002  L 3.1839999999999993 24.44  C 3.1839999999999993 25.848000000000003  4.3359999999999985 27  5.744 27  L 18.224 27  Z M 11.999999999999996 7.800000000000001  C 12.671999999999997 7.800000000000001  13.199999999999996 8.328000000000001  13.2 9  C 13.2 12.072  18 12.024000000000001  18 17.224  C 18 18.072  17.824 19.416  17.168 21.64  C 16.592 23.608  15.919999999999998 24.6  14.303999999999998 24.6  L 9.695999999999998 24.6  C 8.095999999999998 24.6  7.423999999999998 23.608  6.847999999999999 21.64  C 6.191999999999998 19.416  5.999999999999998 18.072  5.999999999999998 17.224  C 5.999999999999998 12.024000000000001  10.799999999999997 12.072  10.799999999999997 9  C 10.799999999999997 8.328  11.327999999999998 7.800000000000001  11.999999999999996 7.800000000000001  Z M 13.584 22.200000000000003  C 14.335999999999999 22.200000000000003  14.559999999999999 21.912000000000003  14.783999999999999 21.256  C 15.407999999999998 19.432  15.599999999999998 18.088  15.599999999999998 17.224  C 15.599999999999998 15.191999999999998  14.271999999999998 14.312000000000001  13.2 13.224  L 13.2 16.248  C 13.759999999999998 16.632  14.128 17.272000000000002  14.128 17.992  C 14.128 19.16  13.168 20.12  12 20.12  C 10.832 20.12  9.888 19.176000000000002  9.888 17.992  C 9.888 17.272000000000002  10.256 16.632  10.8 16.248  L 10.8 13.272000000000002  C 9.728000000000002 14.376000000000001  8.4 15.256000000000002  8.4 17.224000000000004  C 8.4 18.088000000000005  8.608 19.432000000000002  9.216000000000001 21.240000000000002  C 9.440000000000001 21.912000000000003  9.680000000000001 22.200000000000003  10.416 22.200000000000003  L 13.584 22.200000000000003  Z " fill-rule="evenodd" />
    </mask>
  </defs>
  <g>
    <path d="M 17.183999999999997 2.2319999999999984  L 21.632 6.776  C 22.656000000000002 7.832  23.184 9.128  23 10.584  L 23 24.439999999999998  C 23.184 27.176  20.96 29.4  18.224 29  L 5.744 29  C 3.007999999999999 29.4  0.7839999999999998 27.176  1 24.439999999999998  L 1 5.559999999999999  C 0.7839999999999998 2.8239999999999985  3.008 0.5999999999999988  5.744 0.5999999999999988  L 13.264 0.5999999999999988  C 14.768 0.5999999999999988  16.128 1.1439999999999988  17.183999999999997 2.2319999999999984  Z M 18.224 27  C 19.632 27  20.784 25.848  20.784 24.44  L 20.784 10.584000000000001  C 20.784 9.736  20.512 9.064000000000002  19.904 8.440000000000001  L 15.456 3.8960000000000012  C 14.864 3.288000000000002  14.16 3.0000000000000018  13.264 3.0000000000000018  L 5.744 3.0000000000000018  C 4.336 3.0000000000000018  3.1839999999999993 4.152000000000002  3.1839999999999993 5.560000000000002  L 3.1839999999999993 24.44  C 3.1839999999999993 25.848000000000003  4.3359999999999985 27  5.744 27  L 18.224 27  Z M 11.999999999999996 7.800000000000001  C 12.671999999999997 7.800000000000001  13.199999999999996 8.328000000000001  13.2 9  C 13.2 12.072  18 12.024000000000001  18 17.224  C 18 18.072  17.824 19.416  17.168 21.64  C 16.592 23.608  15.919999999999998 24.6  14.303999999999998 24.6  L 9.695999999999998 24.6  C 8.095999999999998 24.6  7.423999999999998 23.608  6.847999999999999 21.64  C 6.191999999999998 19.416  5.999999999999998 18.072  5.999999999999998 17.224  C 5.999999999999998 12.024000000000001  10.799999999999997 12.072  10.799999999999997 9  C 10.799999999999997 8.328  11.327999999999998 7.800000000000001  11.999999999999996 7.800000000000001  Z M 13.584 22.200000000000003  C 14.335999999999999 22.200000000000003  14.559999999999999 21.912000000000003  14.783999999999999 21.256  C 15.407999999999998 19.432  15.599999999999998 18.088  15.599999999999998 17.224  C 15.599999999999998 15.191999999999998  14.271999999999998 14.312000000000001  13.2 13.224  L 13.2 16.248  C 13.759999999999998 16.632  14.128 17.272000000000002  14.128 17.992  C 14.128 19.16  13.168 20.12  12 20.12  C 10.832 20.12  9.888 19.176000000000002  9.888 17.992  C 9.888 17.272000000000002  10.256 16.632  10.8 16.248  L 10.8 13.272000000000002  C 9.728000000000002 14.376000000000001  8.4 15.256000000000002  8.4 17.224000000000004  C 8.4 18.088000000000005  8.608 19.432000000000002  9.216000000000001 21.240000000000002  C 9.440000000000001 21.912000000000003  9.680000000000001 22.200000000000003  10.416 22.200000000000003  L 13.584 22.200000000000003  Z " fill-rule="nonzero" fill="rgba(0, 0, 0, 1)" stroke="none" class="fill" />
    <path d="M 17.183999999999997 2.2319999999999984  L 21.632 6.776  C 22.656000000000002 7.832  23.184 9.128  23 10.584  L 23 24.439999999999998  C 23.184 27.176  20.96 29.4  18.224 29  L 5.744 29  C 3.007999999999999 29.4  0.7839999999999998 27.176  1 24.439999999999998  L 1 5.559999999999999  C 0.7839999999999998 2.8239999999999985  3.008 0.5999999999999988  5.744 0.5999999999999988  L 13.264 0.5999999999999988  C 14.768 0.5999999999999988  16.128 1.1439999999999988  17.183999999999997 2.2319999999999984  Z " stroke-width="0" stroke-dasharray="0" stroke="rgba(255, 255, 255, 0)" fill="none" class="stroke" mask="url(#Clip314)" />
    <path d="M 18.224 27  C 19.632 27  20.784 25.848  20.784 24.44  L 20.784 10.584000000000001  C 20.784 9.736  20.512 9.064000000000002  19.904 8.440000000000001  L 15.456 3.8960000000000012  C 14.864 3.288000000000002  14.16 3.0000000000000018  13.264 3.0000000000000018  L 5.744 3.0000000000000018  C 4.336 3.0000000000000018  3.1839999999999993 4.152000000000002  3.1839999999999993 5.560000000000002  L 3.1839999999999993 24.44  C 3.1839999999999993 25.848000000000003  4.3359999999999985 27  5.744 27  L 18.224 27  Z " stroke-width="0" stroke-dasharray="0" stroke="rgba(255, 255, 255, 0)" fill="none" class="stroke" mask="url(#Clip314)" />
    <path d="M 11.999999999999996 7.800000000000001  C 12.671999999999997 7.800000000000001  13.199999999999996 8.328000000000001  13.2 9  C 13.2 12.072  18 12.024000000000001  18 17.224  C 18 18.072  17.824 19.416  17.168 21.64  C 16.592 23.608  15.919999999999998 24.6  14.303999999999998 24.6  L 9.695999999999998 24.6  C 8.095999999999998 24.6  7.423999999999998 23.608  6.847999999999999 21.64  C 6.191999999999998 19.416  5.999999999999998 18.072  5.999999999999998 17.224  C 5.999999999999998 12.024000000000001  10.799999999999997 12.072  10.799999999999997 9  C 10.799999999999997 8.328  11.327999999999998 7.800000000000001  11.999999999999996 7.800000000000001  Z " stroke-width="0" stroke-dasharray="0" stroke="rgba(255, 255, 255, 0)" fill="none" class="stroke" mask="url(#Clip314)" />
    <path d="M 13.584 22.200000000000003  C 14.335999999999999 22.200000000000003  14.559999999999999 21.912000000000003  14.783999999999999 21.256  C 15.407999999999998 19.432  15.599999999999998 18.088  15.599999999999998 17.224  C 15.599999999999998 15.191999999999998  14.271999999999998 14.312000000000001  13.2 13.224  L 13.2 16.248  C 13.759999999999998 16.632  14.128 17.272000000000002  14.128 17.992  C 14.128 19.16  13.168 20.12  12 20.12  C 10.832 20.12  9.888 19.176000000000002  9.888 17.992  C 9.888 17.272000000000002  10.256 16.632  10.8 16.248  L 10.8 13.272000000000002  C 9.728000000000002 14.376000000000001  8.4 15.256000000000002  8.4 17.224000000000004  C 8.4 18.088000000000005  8.608 19.432000000000002  9.216000000000001 21.240000000000002  C 9.440000000000001 21.912000000000003  9.680000000000001 22.200000000000003  10.416 22.200000000000003  L 13.584 22.200000000000003  Z " stroke-width="0" stroke-dasharray="0" stroke="rgba(255, 255, 255, 0)" fill="none" class="stroke" mask="url(#Clip314)" />
  </g>
</svg>