<?xml version="1.0" encoding="utf-8"?>
<svg version="1.1" xmlns:xlink="http://www.w3.org/1999/xlink" width="20px" height="20px" xmlns="http://www.w3.org/2000/svg">
  <defs>
    <pattern id="BGPattern" patternUnits="userSpaceOnUse" alignment="0 0" imageRepeat="None" />
    <mask fill="white" id="Clip4897">
      <path d="M 12.203999999999999 18  C 12.618213562373093 18  12.953999999999999 18.335786437626904  12.953999999999999 18.75  C 12.953999999999999 19.164213562373096  12.618213562373093 19.5  12.203999999999999 19.5  L 2.25 19.5  C 1.0073593128807148 19.5  0 18.492640687119284  0 17.25  L 0 2.25  C 0 1.0073593128807148  1.0073593128807148 0  2.25 0  L 17.25 0  C 18.492640687119284 0  19.5 1.0073593128807148  19.5 2.25  L 19.5 12.203999999999999  C 19.5 12.618213562373093  19.164213562373096 12.953999999999999  18.75 12.953999999999999  C 18.335786437626904 12.953999999999999  18 12.618213562373093  18 12.203999999999999  L 18 2.25  C 18 1.835786437626905  17.664213562373096 1.5  17.25 1.5  L 2.25 1.5  C 1.835786437626905 1.5  1.5 1.835786437626905  1.5 2.25  L 1.5 17.25  C 1.5 17.664213562373096  1.835786437626905 18  2.25 18  L 12.203999999999999 18  Z " fill-rule="evenodd" />
    </mask>
  </defs>
  <g>
    <path d="M 12.203999999999999 18  C 12.618213562373093 18  12.953999999999999 18.335786437626904  12.953999999999999 18.75  C 12.953999999999999 19.164213562373096  12.618213562373093 19.5  12.203999999999999 19.5  L 2.25 19.5  C 1.0073593128807148 19.5  0 18.492640687119284  0 17.25  L 0 2.25  C 0 1.0073593128807148  1.0073593128807148 0  2.25 0  L 17.25 0  C 18.492640687119284 0  19.5 1.0073593128807148  19.5 2.25  L 19.5 12.203999999999999  C 19.5 12.618213562373093  19.164213562373096 12.953999999999999  18.75 12.953999999999999  C 18.335786437626904 12.953999999999999  18 12.618213562373093  18 12.203999999999999  L 18 2.25  C 18 1.835786437626905  17.664213562373096 1.5  17.25 1.5  L 2.25 1.5  C 1.835786437626905 1.5  1.5 1.835786437626905  1.5 2.25  L 1.5 17.25  C 1.5 17.664213562373096  1.835786437626905 18  2.25 18  L 12.203999999999999 18  Z " fill-rule="nonzero" fill="rgba(0, 0, 0, 1)" stroke="none" class="fill" />
    <path d="M 12.203999999999999 18  C 12.618213562373093 18  12.953999999999999 18.335786437626904  12.953999999999999 18.75  C 12.953999999999999 19.164213562373096  12.618213562373093 19.5  12.203999999999999 19.5  L 2.25 19.5  C 1.0073593128807148 19.5  0 18.492640687119284  0 17.25  L 0 2.25  C 0 1.0073593128807148  1.0073593128807148 0  2.25 0  L 17.25 0  C 18.492640687119284 0  19.5 1.0073593128807148  19.5 2.25  L 19.5 12.203999999999999  C 19.5 12.618213562373093  19.164213562373096 12.953999999999999  18.75 12.953999999999999  C 18.335786437626904 12.953999999999999  18 12.618213562373093  18 12.203999999999999  L 18 2.25  C 18 1.835786437626905  17.664213562373096 1.5  17.25 1.5  L 2.25 1.5  C 1.835786437626905 1.5  1.5 1.835786437626905  1.5 2.25  L 1.5 17.25  C 1.5 17.664213562373096  1.835786437626905 18  2.25 18  L 12.203999999999999 18  Z " stroke-width="0" stroke-dasharray="0" stroke="rgba(255, 255, 255, 0)" fill="none" class="stroke" mask="url(#Clip4897)" />
  </g>
</svg>