<?xml version="1.0" encoding="utf-8"?>
<svg version="1.1" xmlns:xlink="http://www.w3.org/1999/xlink" width="16px" height="16px" xmlns="http://www.w3.org/2000/svg">
  <defs>
    <pattern id="BGPattern" patternUnits="userSpaceOnUse" alignment="0 0" imageRepeat="None" />
    <mask fill="white" id="Clip4898">
      <path d="M 16 7.75  L 16 15.25  C 16 15.664213562373096  15.664213562373096 16  15.25 16  L 7.75 16  C 7.335786437626904 16  7 15.664213562373096  7 15.25  C 7 14.835786437626904  7.335786437626904 14.5  7.75 14.5  L 13.439499999999999 14.5  L 1.2189999999999994 2.2810000000000006  C 1.0781700438952022 2.1401700438952016  0.9990525983798868 1.9491636339118124  0.9990525983798868 1.75  C 0.9990525983798868 1.3352632021601512  1.3352632021601512 0.9990525983798868  1.75 0.9990525983798868  C 1.9491636339118124 0.9990525983798868  2.1401700438952016 1.0781700438952022  2.2810000000000006 1.2189999999999994  L 14.5 13.439499999999999  L 14.5 7.75  C 14.5 7.335786437626904  14.835786437626904 7  15.25 7  C 15.664213562373096 7  16 7.335786437626904  16 7.75  Z " fill-rule="evenodd" />
    </mask>
  </defs>
  <g transform="matrix(1 0 0 1 -8 -8 )">
    <path d="M 16 7.75  L 16 15.25  C 16 15.664213562373096  15.664213562373096 16  15.25 16  L 7.75 16  C 7.335786437626904 16  7 15.664213562373096  7 15.25  C 7 14.835786437626904  7.335786437626904 14.5  7.75 14.5  L 13.439499999999999 14.5  L 1.2189999999999994 2.2810000000000006  C 1.0781700438952022 2.1401700438952016  0.9990525983798868 1.9491636339118124  0.9990525983798868 1.75  C 0.9990525983798868 1.3352632021601512  1.3352632021601512 0.9990525983798868  1.75 0.9990525983798868  C 1.9491636339118124 0.9990525983798868  2.1401700438952016 1.0781700438952022  2.2810000000000006 1.2189999999999994  L 14.5 13.439499999999999  L 14.5 7.75  C 14.5 7.335786437626904  14.835786437626904 7  15.25 7  C 15.664213562373096 7  16 7.335786437626904  16 7.75  Z " fill-rule="nonzero" fill="rgba(0, 0, 0, 1)" stroke="none" transform="matrix(1 0 0 1 8 8 )" class="fill" />
    <path d="M 16 7.75  L 16 15.25  C 16 15.664213562373096  15.664213562373096 16  15.25 16  L 7.75 16  C 7.335786437626904 16  7 15.664213562373096  7 15.25  C 7 14.835786437626904  7.335786437626904 14.5  7.75 14.5  L 13.439499999999999 14.5  L 1.2189999999999994 2.2810000000000006  C 1.0781700438952022 2.1401700438952016  0.9990525983798868 1.9491636339118124  0.9990525983798868 1.75  C 0.9990525983798868 1.3352632021601512  1.3352632021601512 0.9990525983798868  1.75 0.9990525983798868  C 1.9491636339118124 0.9990525983798868  2.1401700438952016 1.0781700438952022  2.2810000000000006 1.2189999999999994  L 14.5 13.439499999999999  L 14.5 7.75  C 14.5 7.335786437626904  14.835786437626904 7  15.25 7  C 15.664213562373096 7  16 7.335786437626904  16 7.75  Z " stroke-width="0" stroke-dasharray="0" stroke="rgba(255, 255, 255, 0)" fill="none" transform="matrix(1 0 0 1 8 8 )" class="stroke" mask="url(#Clip4898)" />
  </g>
</svg>