<?xml version="1.0" encoding="utf-8"?>
<svg version="1.1" xmlns:xlink="http://www.w3.org/1999/xlink" width="44px" height="50px" xmlns="http://www.w3.org/2000/svg">
  <defs>
    <pattern id="BGPattern" patternUnits="userSpaceOnUse" alignment="0 0" imageRepeat="None" />
    <mask fill="white" id="Clip1291">
      <path d="M 15.7255859375 43  C 15.7255859375 47.2021484375  18.5234375 50  21.97265625 50  C 25.421875 50  28.2197265625 47.2021484375  28.2197265625 43  L 15.7255859375 43  Z M 43.84765625 37.5  C 43.8525390625 36.7626953125  43.5927734375 36.0087890625  43.0068359375 35.3798828125  C 41.1201171875 33.3525390625  37.58984375 30.302734375  37.58984375 20.3125  C 37.58984375 12.724609375000002  32.26953125 6.650390624999999  25.095703125 5.16015625  L 25.095703125 3.125  C 25.095703125 1.3994140625  23.697265625 0  21.97265625 0  C 20.248046875 0  18.849609375 1.3994140625  18.849609375 3.125  L 18.849609375 5.16015625  C 11.67578125 6.650390624999999  6.35546875 12.724609375000002  6.35546875 20.3125  C 6.35546875 30.302734375  2.8251953125 33.3525390625  0.9384765625 35.3798828125  C 0.3525390625 36.009765625  0.0927734375 36.7626953125  0.09765625000000001 37.5  C 0.10839843750000001 39.1015625  1.365234375 40.625  3.2324218750000004 40  L 40.712890625 40  C 42.580078125 40.625  43.837890625 39.1015625  43.84765625 37.5  Z " fill-rule="evenodd" />
    </mask>
  </defs>
  <g>
    <path d="M 15.7255859375 43  C 15.7255859375 47.2021484375  18.5234375 50  21.97265625 50  C 25.421875 50  28.2197265625 47.2021484375  28.2197265625 43  L 15.7255859375 43  Z M 43.84765625 37.5  C 43.8525390625 36.7626953125  43.5927734375 36.0087890625  43.0068359375 35.3798828125  C 41.1201171875 33.3525390625  37.58984375 30.302734375  37.58984375 20.3125  C 37.58984375 12.724609375000002  32.26953125 6.650390624999999  25.095703125 5.16015625  L 25.095703125 3.125  C 25.095703125 1.3994140625  23.697265625 0  21.97265625 0  C 20.248046875 0  18.849609375 1.3994140625  18.849609375 3.125  L 18.849609375 5.16015625  C 11.67578125 6.650390624999999  6.35546875 12.724609375000002  6.35546875 20.3125  C 6.35546875 30.302734375  2.8251953125 33.3525390625  0.9384765625 35.3798828125  C 0.3525390625 36.009765625  0.0927734375 36.7626953125  0.09765625000000001 37.5  C 0.10839843750000001 39.1015625  1.365234375 40.625  3.2324218750000004 40  L 40.712890625 40  C 42.580078125 40.625  43.837890625 39.1015625  43.84765625 37.5  Z " fill-rule="nonzero" fill="rgba(0, 0, 0, 1)" stroke="none" class="fill" />
    <path d="M 15.7255859375 43  C 15.7255859375 47.2021484375  18.5234375 50  21.97265625 50  C 25.421875 50  28.2197265625 47.2021484375  28.2197265625 43  L 15.7255859375 43  Z " stroke-width="0" stroke-dasharray="0" stroke="rgba(255, 255, 255, 0)" fill="none" class="stroke" mask="url(#Clip1291)" />
    <path d="M 43.84765625 37.5  C 43.8525390625 36.7626953125  43.5927734375 36.0087890625  43.0068359375 35.3798828125  C 41.1201171875 33.3525390625  37.58984375 30.302734375  37.58984375 20.3125  C 37.58984375 12.724609375000002  32.26953125 6.650390624999999  25.095703125 5.16015625  L 25.095703125 3.125  C 25.095703125 1.3994140625  23.697265625 0  21.97265625 0  C 20.248046875 0  18.849609375 1.3994140625  18.849609375 3.125  L 18.849609375 5.16015625  C 11.67578125 6.650390624999999  6.35546875 12.724609375000002  6.35546875 20.3125  C 6.35546875 30.302734375  2.8251953125 33.3525390625  0.9384765625 35.3798828125  C 0.3525390625 36.009765625  0.0927734375 36.7626953125  0.09765625000000001 37.5  C 0.10839843750000001 39.1015625  1.365234375 40.625  3.2324218750000004 40  L 40.712890625 40  C 42.580078125 40.625  43.837890625 39.1015625  43.84765625 37.5  Z " stroke-width="0" stroke-dasharray="0" stroke="rgba(255, 255, 255, 0)" fill="none" class="stroke" mask="url(#Clip1291)" />
  </g>
</svg>