<?xml version="1.0" encoding="utf-8"?>
<svg version="1.1" xmlns:xlink="http://www.w3.org/1999/xlink" width="8px" height="14px" xmlns="http://www.w3.org/2000/svg">
  <defs>
    <pattern id="BGPattern" patternUnits="userSpaceOnUse" alignment="0 0" imageRepeat="None" />
    <mask fill="white" id="Clip4652">
      <path d="M 8 2  C 8 0.8954305003384135  7.1045694996615865 0  6 0  L 2 0  C 0.8954305003384135 0  0 0.8954305003384135  0 2  L 0 12  C 0 13.104569499661586  0.8954305003384135 14  2 14  L 6 14  C 7.1045694996615865 14  8 13.104569499661586  8 12  L 8 2  Z M 6 2  L 6 12  L 2 12  L 2 2  L 6 2  Z " fill-rule="evenodd" />
    </mask>
  </defs>
  <g transform="matrix(1 0 0 1 -10 -9 )">
    <path d="M 8 2  C 8 0.8954305003384135  7.1045694996615865 0  6 0  L 2 0  C 0.8954305003384135 0  0 0.8954305003384135  0 2  L 0 12  C 0 13.104569499661586  0.8954305003384135 14  2 14  L 6 14  C 7.1045694996615865 14  8 13.104569499661586  8 12  L 8 2  Z M 6 2  L 6 12  L 2 12  L 2 2  L 6 2  Z " fill-rule="nonzero" fill="rgba(0, 0, 0, 1)" stroke="none" transform="matrix(1 0 0 1 10 9 )" class="fill" />
    <path d="M 8 2  C 8 0.8954305003384135  7.1045694996615865 0  6 0  L 2 0  C 0.8954305003384135 0  0 0.8954305003384135  0 2  L 0 12  C 0 13.104569499661586  0.8954305003384135 14  2 14  L 6 14  C 7.1045694996615865 14  8 13.104569499661586  8 12  L 8 2  Z " stroke-width="0" stroke-dasharray="0" stroke="rgba(255, 255, 255, 0)" fill="none" transform="matrix(1 0 0 1 10 9 )" class="stroke" mask="url(#Clip4652)" />
    <path d="M 6 2  L 6 12  L 2 12  L 2 2  L 6 2  Z " stroke-width="0" stroke-dasharray="0" stroke="rgba(255, 255, 255, 0)" fill="none" transform="matrix(1 0 0 1 10 9 )" class="stroke" mask="url(#Clip4652)" />
  </g>
</svg>