<?xml version="1.0" encoding="utf-8"?>
<svg version="1.1" xmlns:xlink="http://www.w3.org/1999/xlink" width="28px" height="18px" xmlns="http://www.w3.org/2000/svg">
  <defs>
    <pattern id="BGPattern" patternUnits="userSpaceOnUse" alignment="0 0" imageRepeat="None" />
    <mask fill="white" id="Clip4634">
      <path d="M 28 2  C 27.998512673471637 0.896047158067784  27.10395284193222 0.0014873265283608106  26 0  L 2 0  C 0.8959559279449096 0.0012674655592963546  0.0012674655592963546 0.8959559279449092  0 2  L 0 16.000000000000004  C 0.0011024596593429692 17.10411252349923  0.8958874765007727 17.998897540340657  2 18  L 26 18  C 27.10404407205509 17.998732534440702  27.998732534440702 17.10404407205509  28 16  L 28 2  Z M 18 15  L 18 16  L 10 16  L 10 15  C 10.000496201605975 14.447920914228458  10.44792091422846 14.000496201605973  11 14  L 16.999999999999996 14  C 17.552079085771542 14.00049620160597  17.999503798394024 14.447920914228455  18 15  Z M 26 2  L 26 16  L 20 16  L 20 15  C 19.998181288863563 13.34389967031846  18.656100329681536 12.00181871113643  17 12  L 11 12  C 9.34389967031846 12.001818711136433  8.001818711136432 13.34389967031846  8 15  L 8 16  L 2 16  L 2 2  L 26 2  Z " fill-rule="evenodd" />
    </mask>
  </defs>
  <g transform="matrix(1 0 0 1 -2 -12 )">
    <path d="M 28 2  C 27.998512673471637 0.896047158067784  27.10395284193222 0.0014873265283608106  26 0  L 2 0  C 0.8959559279449096 0.0012674655592963546  0.0012674655592963546 0.8959559279449092  0 2  L 0 16.000000000000004  C 0.0011024596593429692 17.10411252349923  0.8958874765007727 17.998897540340657  2 18  L 26 18  C 27.10404407205509 17.998732534440702  27.998732534440702 17.10404407205509  28 16  L 28 2  Z M 18 15  L 18 16  L 10 16  L 10 15  C 10.000496201605975 14.447920914228458  10.44792091422846 14.000496201605973  11 14  L 16.999999999999996 14  C 17.552079085771542 14.00049620160597  17.999503798394024 14.447920914228455  18 15  Z M 26 2  L 26 16  L 20 16  L 20 15  C 19.998181288863563 13.34389967031846  18.656100329681536 12.00181871113643  17 12  L 11 12  C 9.34389967031846 12.001818711136433  8.001818711136432 13.34389967031846  8 15  L 8 16  L 2 16  L 2 2  L 26 2  Z " fill-rule="nonzero" fill="rgba(0, 0, 0, 1)" stroke="none" transform="matrix(1 0 0 1 2 12 )" class="fill" />
    <path d="M 28 2  C 27.998512673471637 0.896047158067784  27.10395284193222 0.0014873265283608106  26 0  L 2 0  C 0.8959559279449096 0.0012674655592963546  0.0012674655592963546 0.8959559279449092  0 2  L 0 16.000000000000004  C 0.0011024596593429692 17.10411252349923  0.8958874765007727 17.998897540340657  2 18  L 26 18  C 27.10404407205509 17.998732534440702  27.998732534440702 17.10404407205509  28 16  L 28 2  Z " stroke-width="0" stroke-dasharray="0" stroke="rgba(255, 255, 255, 0)" fill="none" transform="matrix(1 0 0 1 2 12 )" class="stroke" mask="url(#Clip4634)" />
    <path d="M 18 15  L 18 16  L 10 16  L 10 15  C 10.000496201605975 14.447920914228458  10.44792091422846 14.000496201605973  11 14  L 16.999999999999996 14  C 17.552079085771542 14.00049620160597  17.999503798394024 14.447920914228455  18 15  Z " stroke-width="0" stroke-dasharray="0" stroke="rgba(255, 255, 255, 0)" fill="none" transform="matrix(1 0 0 1 2 12 )" class="stroke" mask="url(#Clip4634)" />
    <path d="M 26 2  L 26 16  L 20 16  L 20 15  C 19.998181288863563 13.34389967031846  18.656100329681536 12.00181871113643  17 12  L 11 12  C 9.34389967031846 12.001818711136433  8.001818711136432 13.34389967031846  8 15  L 8 16  L 2 16  L 2 2  L 26 2  Z " stroke-width="0" stroke-dasharray="0" stroke="rgba(255, 255, 255, 0)" fill="none" transform="matrix(1 0 0 1 2 12 )" class="stroke" mask="url(#Clip4634)" />
  </g>
</svg>