<?xml version="1.0" encoding="utf-8"?>
<svg version="1.1" xmlns:xlink="http://www.w3.org/1999/xlink" width="8px" height="8px" xmlns="http://www.w3.org/2000/svg">
  <defs>
    <pattern id="BGPattern" patternUnits="userSpaceOnUse" alignment="0 0" imageRepeat="None" />
    <mask fill="white" id="Clip4635">
      <path d="M 6 0  C 7.1039528419322195 0.0014873265283616988  7.998512673471637 0.8960471580677827  8 2  L 8 6  C 7.998512673471637 7.103952841932214  7.1039528419322195 7.998512673471639  6 8  L 2 8  C 0.8960471580677805 7.998512673471639  0.001487326528362587 7.103952841932216  0 6  L 0 2  C 0.001487326528362587 0.8960471580677845  0.8960471580677805 0.0014873265283616988  2 0  L 6 0  Z M 2 6  L 6 6  L 6.001999999999999 2  L 2 2  L 2 6  Z " fill-rule="evenodd" />
    </mask>
  </defs>
  <g transform="matrix(1 0 0 1 -22 -2 )">
    <path d="M 6 0  C 7.1039528419322195 0.0014873265283616988  7.998512673471637 0.8960471580677827  8 2  L 8 6  C 7.998512673471637 7.103952841932214  7.1039528419322195 7.998512673471639  6 8  L 2 8  C 0.8960471580677805 7.998512673471639  0.001487326528362587 7.103952841932216  0 6  L 0 2  C 0.001487326528362587 0.8960471580677845  0.8960471580677805 0.0014873265283616988  2 0  L 6 0  Z M 2 6  L 6 6  L 6.001999999999999 2  L 2 2  L 2 6  Z " fill-rule="nonzero" fill="rgba(0, 0, 0, 1)" stroke="none" transform="matrix(1 0 0 1 22 2 )" class="fill" />
    <path d="M 6 0  C 7.1039528419322195 0.0014873265283616988  7.998512673471637 0.8960471580677827  8 2  L 8 6  C 7.998512673471637 7.103952841932214  7.1039528419322195 7.998512673471639  6 8  L 2 8  C 0.8960471580677805 7.998512673471639  0.001487326528362587 7.103952841932216  0 6  L 0 2  C 0.001487326528362587 0.8960471580677845  0.8960471580677805 0.0014873265283616988  2 0  L 6 0  Z " stroke-width="0" stroke-dasharray="0" stroke="rgba(255, 255, 255, 0)" fill="none" transform="matrix(1 0 0 1 22 2 )" class="stroke" mask="url(#Clip4635)" />
    <path d="M 2 6  L 6 6  L 6.001999999999999 2  L 2 2  L 2 6  Z " stroke-width="0" stroke-dasharray="0" stroke="rgba(255, 255, 255, 0)" fill="none" transform="matrix(1 0 0 1 22 2 )" class="stroke" mask="url(#Clip4635)" />
  </g>
</svg>