<?xml version="1.0" encoding="utf-8"?>
<svg version="1.1" xmlns:xlink="http://www.w3.org/1999/xlink" width="8px" height="8px" xmlns="http://www.w3.org/2000/svg">
  <defs>
    <pattern id="BGPattern" patternUnits="userSpaceOnUse" alignment="0 0" imageRepeat="None" />
    <mask fill="white" id="Clip4637">
      <path d="M 6 0  C 7.104044072055091 0.0012674655592967987  7.998732534440704 0.8959559279449092  8 2  L 8 6  C 7.998732534440704 7.104044072055091  7.104044072055091 7.998732534440704  6 8  L 2 8  C 0.8959559279449092 7.998732534440704  0.0012674655592967987 7.104044072055091  0 6  L 0 2  C 0.0012674655592967987 0.8959559279449087  0.8959559279449087 0.0012674655592967987  2 0  L 6 0  Z M 2 6  L 6 6  L 6.0015 2  L 2 2  L 2 6  Z " fill-rule="evenodd" />
    </mask>
  </defs>
  <g transform="matrix(1 0 0 1 -2 -2 )">
    <path d="M 6 0  C 7.104044072055091 0.0012674655592967987  7.998732534440704 0.8959559279449092  8 2  L 8 6  C 7.998732534440704 7.104044072055091  7.104044072055091 7.998732534440704  6 8  L 2 8  C 0.8959559279449092 7.998732534440704  0.0012674655592967987 7.104044072055091  0 6  L 0 2  C 0.0012674655592967987 0.8959559279449087  0.8959559279449087 0.0012674655592967987  2 0  L 6 0  Z M 2 6  L 6 6  L 6.0015 2  L 2 2  L 2 6  Z " fill-rule="nonzero" fill="rgba(0, 0, 0, 1)" stroke="none" transform="matrix(1 0 0 1 2 2 )" class="fill" />
    <path d="M 6 0  C 7.104044072055091 0.0012674655592967987  7.998732534440704 0.8959559279449092  8 2  L 8 6  C 7.998732534440704 7.104044072055091  7.104044072055091 7.998732534440704  6 8  L 2 8  C 0.8959559279449092 7.998732534440704  0.0012674655592967987 7.104044072055091  0 6  L 0 2  C 0.0012674655592967987 0.8959559279449087  0.8959559279449087 0.0012674655592967987  2 0  L 6 0  Z " stroke-width="0" stroke-dasharray="0" stroke="rgba(255, 255, 255, 0)" fill="none" transform="matrix(1 0 0 1 2 2 )" class="stroke" mask="url(#Clip4637)" />
    <path d="M 2 6  L 6 6  L 6.0015 2  L 2 2  L 2 6  Z " stroke-width="0" stroke-dasharray="0" stroke="rgba(255, 255, 255, 0)" fill="none" transform="matrix(1 0 0 1 2 2 )" class="stroke" mask="url(#Clip4637)" />
  </g>
</svg>