<?xml version="1.0" encoding="utf-8"?>
<svg version="1.1" xmlns:xlink="http://www.w3.org/1999/xlink" width="24px" height="24px" xmlns="http://www.w3.org/2000/svg">
  <defs>
    <pattern id="BGPattern" patternUnits="userSpaceOnUse" alignment="0 0" imageRepeat="None" />
    <mask fill="white" id="Clip193">
      <path d="M 1.3280000000000003 0  L 22.672 0  C 23.408 0  24 0.5920000000000005  24 1.3280000000000012  L 24 22.672  C 24 23.408  23.408 24  22.672 24  L 16.560000000000002 24  L 16.560000000000002 14.704  L 19.664 14.704  L 20.128 11.104000000000003  L 16.56 11.104000000000003  L 16.56 8.784000000000002  C 16.56 7.728000000000003  16.831999999999997 7.024000000000002  18.336 7.024000000000002  L 20.272 7.024000000000002  L 20.272 3.7920000000000016  C 19.936 3.7280000000000015  18.784 3.6480000000000015  17.471999999999998 3.6480000000000015  C 14.719999999999999 3.6480000000000015  12.815999999999999 5.328000000000002  12.815999999999999 8.432000000000002  L 12.815999999999999 11.104000000000003  L 9.68 11.104000000000003  L 9.68 14.704  L 12.815999999999999 14.704  L 12.815999999999999 24  L 1.3280000000000003 24  C 0.5920000000000005 24  0 23.408  0 22.672  L 0 1.3280000000000003  C 0 0.5920000000000005  0.5919999999999996 0  1.3280000000000003 0  Z " fill-rule="evenodd" />
    </mask>
  </defs>
  <g>
    <path d="M 1.3280000000000003 0  L 22.672 0  C 23.408 0  24 0.5920000000000005  24 1.3280000000000012  L 24 22.672  C 24 23.408  23.408 24  22.672 24  L 16.560000000000002 24  L 16.560000000000002 14.704  L 19.664 14.704  L 20.128 11.104000000000003  L 16.56 11.104000000000003  L 16.56 8.784000000000002  C 16.56 7.728000000000003  16.831999999999997 7.024000000000002  18.336 7.024000000000002  L 20.272 7.024000000000002  L 20.272 3.7920000000000016  C 19.936 3.7280000000000015  18.784 3.6480000000000015  17.471999999999998 3.6480000000000015  C 14.719999999999999 3.6480000000000015  12.815999999999999 5.328000000000002  12.815999999999999 8.432000000000002  L 12.815999999999999 11.104000000000003  L 9.68 11.104000000000003  L 9.68 14.704  L 12.815999999999999 14.704  L 12.815999999999999 24  L 1.3280000000000003 24  C 0.5920000000000005 24  0 23.408  0 22.672  L 0 1.3280000000000003  C 0 0.5920000000000005  0.5919999999999996 0  1.3280000000000003 0  Z " fill-rule="nonzero" fill="rgba(0, 0, 0, 1)" stroke="none" class="fill" />
    <path d="M 1.3280000000000003 0  L 22.672 0  C 23.408 0  24 0.5920000000000005  24 1.3280000000000012  L 24 22.672  C 24 23.408  23.408 24  22.672 24  L 16.560000000000002 24  L 16.560000000000002 14.704  L 19.664 14.704  L 20.128 11.104000000000003  L 16.56 11.104000000000003  L 16.56 8.784000000000002  C 16.56 7.728000000000003  16.831999999999997 7.024000000000002  18.336 7.024000000000002  L 20.272 7.024000000000002  L 20.272 3.7920000000000016  C 19.936 3.7280000000000015  18.784 3.6480000000000015  17.471999999999998 3.6480000000000015  C 14.719999999999999 3.6480000000000015  12.815999999999999 5.328000000000002  12.815999999999999 8.432000000000002  L 12.815999999999999 11.104000000000003  L 9.68 11.104000000000003  L 9.68 14.704  L 12.815999999999999 14.704  L 12.815999999999999 24  L 1.3280000000000003 24  C 0.5920000000000005 24  0 23.408  0 22.672  L 0 1.3280000000000003  C 0 0.5920000000000005  0.5919999999999996 0  1.3280000000000003 0  Z " stroke-width="0" stroke-dasharray="0" stroke="rgba(255, 255, 255, 0)" fill="none" class="stroke" mask="url(#Clip193)" />
  </g>
</svg>