<?xml version="1.0" encoding="utf-8"?>
<svg version="1.1" xmlns:xlink="http://www.w3.org/1999/xlink" width="48px" height="14px" xmlns="http://www.w3.org/2000/svg">
  <defs>
    <pattern id="BGPattern" patternUnits="userSpaceOnUse" alignment="0 0" imageRepeat="None" />
    <mask fill="white" id="Clip7519">
      <path d="M 48 0.16000000000000014  L 0 0.15800000000000125  L 0 13.841999999999999  L 48 13.841999999999999  L 48 0.16000000000000014  Z M 6 11.046  L 3.5999999999999996 2.9879999999999995  L 5.186 2.9879999999999995  L 6.7379999999999995 9.076  L 8.258 2.9879999999999995  L 9.93 2.9879999999999995  L 7.475999999999999 11.046  L 6 11.046  Z M 12.288 11.021999999999998  L 14.576 2.9879999999999995  L 16.744 2.9879999999999995  L 19.034 11.055999999999997  L 17.406 11.055999999999997  L 16.866 9.041999999999998  L 14.456 9.041999999999998  C 14.456 9.041999999999998  14.036 10.661999999999999  13.948 11.021999999999998  C 13.464000000000002 11.055999999999997  12.288 11.021999999999998  12.288 11.021999999999998  Z M 22.944000000000003 11.046  L 22.944000000000003 2.9879999999999995  L 24.528 2.9879999999999995  L 24.528 9.692  L 27.908 9.692  L 27.908 11.046  L 22.944000000000003 11.046  Z M 32.290000000000006 11.055999999999997  L 29.844 2.9879999999999995  L 31.476000000000003 2.9879999999999995  L 33.028000000000006 8.997999999999998  L 34.53600000000001 2.9879999999999995  L 36.16600000000001 2.9879999999999995  L 33.72200000000001 11.055999999999997  L 32.290000000000006 11.055999999999997  Z M 39.5 8.491999999999997  L 39.5 2.9879999999999995  L 42.88 2.9879999999999995  L 42.88 4.032  L 40.712 4.032  L 40.712 5.199999999999999  L 42.692 5.199999999999999  L 42.692 6.245999999999999  L 40.712 6.245999999999999  L 40.712 7.445999999999998  L 42.88 7.445999999999998  L 42.88 8.491999999999997  L 39.5 8.491999999999997  Z M 16.624000000000002 7.751999999999999  L 15.696000000000002 4.347999999999999  L 14.844000000000001 7.751999999999999  L 16.624000000000002 7.751999999999999  Z " fill-rule="evenodd" />
    </mask>
  </defs>
  <g>
    <path d="M 48 0.16000000000000014  L 0 0.15800000000000125  L 0 13.841999999999999  L 48 13.841999999999999  L 48 0.16000000000000014  Z M 6 11.046  L 3.5999999999999996 2.9879999999999995  L 5.186 2.9879999999999995  L 6.7379999999999995 9.076  L 8.258 2.9879999999999995  L 9.93 2.9879999999999995  L 7.475999999999999 11.046  L 6 11.046  Z M 12.288 11.021999999999998  L 14.576 2.9879999999999995  L 16.744 2.9879999999999995  L 19.034 11.055999999999997  L 17.406 11.055999999999997  L 16.866 9.041999999999998  L 14.456 9.041999999999998  C 14.456 9.041999999999998  14.036 10.661999999999999  13.948 11.021999999999998  C 13.464000000000002 11.055999999999997  12.288 11.021999999999998  12.288 11.021999999999998  Z M 22.944000000000003 11.046  L 22.944000000000003 2.9879999999999995  L 24.528 2.9879999999999995  L 24.528 9.692  L 27.908 9.692  L 27.908 11.046  L 22.944000000000003 11.046  Z M 32.290000000000006 11.055999999999997  L 29.844 2.9879999999999995  L 31.476000000000003 2.9879999999999995  L 33.028000000000006 8.997999999999998  L 34.53600000000001 2.9879999999999995  L 36.16600000000001 2.9879999999999995  L 33.72200000000001 11.055999999999997  L 32.290000000000006 11.055999999999997  Z M 39.5 8.491999999999997  L 39.5 2.9879999999999995  L 42.88 2.9879999999999995  L 42.88 4.032  L 40.712 4.032  L 40.712 5.199999999999999  L 42.692 5.199999999999999  L 42.692 6.245999999999999  L 40.712 6.245999999999999  L 40.712 7.445999999999998  L 42.88 7.445999999999998  L 42.88 8.491999999999997  L 39.5 8.491999999999997  Z M 16.624000000000002 7.751999999999999  L 15.696000000000002 4.347999999999999  L 14.844000000000001 7.751999999999999  L 16.624000000000002 7.751999999999999  Z " fill-rule="nonzero" fill="rgba(247, 72, 67, 1)" stroke="none" class="fill" />
    <path d="M 48 0.16000000000000014  L 0 0.15800000000000125  L 0 13.841999999999999  L 48 13.841999999999999  L 48 0.16000000000000014  Z " stroke-width="0" stroke-dasharray="0" stroke="rgba(255, 255, 255, 0)" fill="none" class="stroke" mask="url(#Clip7519)" />
    <path d="M 6 11.046  L 3.5999999999999996 2.9879999999999995  L 5.186 2.9879999999999995  L 6.7379999999999995 9.076  L 8.258 2.9879999999999995  L 9.93 2.9879999999999995  L 7.475999999999999 11.046  L 6 11.046  Z " stroke-width="0" stroke-dasharray="0" stroke="rgba(255, 255, 255, 0)" fill="none" class="stroke" mask="url(#Clip7519)" />
    <path d="M 12.288 11.021999999999998  L 14.576 2.9879999999999995  L 16.744 2.9879999999999995  L 19.034 11.055999999999997  L 17.406 11.055999999999997  L 16.866 9.041999999999998  L 14.456 9.041999999999998  C 14.456 9.041999999999998  14.036 10.661999999999999  13.948 11.021999999999998  C 13.464000000000002 11.055999999999997  12.288 11.021999999999998  12.288 11.021999999999998  Z " stroke-width="0" stroke-dasharray="0" stroke="rgba(255, 255, 255, 0)" fill="none" class="stroke" mask="url(#Clip7519)" />
    <path d="M 22.944000000000003 11.046  L 22.944000000000003 2.9879999999999995  L 24.528 2.9879999999999995  L 24.528 9.692  L 27.908 9.692  L 27.908 11.046  L 22.944000000000003 11.046  Z " stroke-width="0" stroke-dasharray="0" stroke="rgba(255, 255, 255, 0)" fill="none" class="stroke" mask="url(#Clip7519)" />
    <path d="M 32.290000000000006 11.055999999999997  L 29.844 2.9879999999999995  L 31.476000000000003 2.9879999999999995  L 33.028000000000006 8.997999999999998  L 34.53600000000001 2.9879999999999995  L 36.16600000000001 2.9879999999999995  L 33.72200000000001 11.055999999999997  L 32.290000000000006 11.055999999999997  Z " stroke-width="0" stroke-dasharray="0" stroke="rgba(255, 255, 255, 0)" fill="none" class="stroke" mask="url(#Clip7519)" />
    <path d="M 39.5 8.491999999999997  L 39.5 2.9879999999999995  L 42.88 2.9879999999999995  L 42.88 4.032  L 40.712 4.032  L 40.712 5.199999999999999  L 42.692 5.199999999999999  L 42.692 6.245999999999999  L 40.712 6.245999999999999  L 40.712 7.445999999999998  L 42.88 7.445999999999998  L 42.88 8.491999999999997  L 39.5 8.491999999999997  Z " stroke-width="0" stroke-dasharray="0" stroke="rgba(255, 255, 255, 0)" fill="none" class="stroke" mask="url(#Clip7519)" />
    <path d="M 16.624000000000002 7.751999999999999  L 15.696000000000002 4.347999999999999  L 14.844000000000001 7.751999999999999  L 16.624000000000002 7.751999999999999  Z " stroke-width="0" stroke-dasharray="0" stroke="rgba(255, 255, 255, 0)" fill="none" class="stroke" mask="url(#Clip7519)" />
  </g>
</svg>