<?xml version="1.0" encoding="utf-8"?>
<svg version="1.1" xmlns:xlink="http://www.w3.org/1999/xlink" width="50px" height="50px" xmlns="http://www.w3.org/2000/svg">
  <defs>
    <pattern id="BGPattern" patternUnits="userSpaceOnUse" alignment="0 0" imageRepeat="None" />
    <mask fill="white" id="Clip823">
      <path d="M 50 7.001953125  C 46.4453125 6.42578125  43.65234375 3.5546875  43.271484375 0  L 7.021484375000001 0  C 6.630859375000001 3.6425781249999996  3.65234375 6.62109375  0 7.001953125  L 0 43.28125  C 3.65234375 43.759765625  6.4453125 46.4453125  7.021484375000001 50  L 43.369140625 50  C 43.662109375 46.4453125  46.54296875 43.57421875  50 43.18359375  L 50 7.001953125  Z M 39.658203125 38.486328125  C 40.224609375 38.486328125  40.419921875 39.541015625  39.658203125 39.541015625  C 36.11328125 39.541015625  37.822265625 39.345703125  34.27734375 39.345703125  C 30.78125 39.345703125  32.2265625 39.541015625  28.798828124999996 39.541015625  C 28.22265625 39.541015625  28.3203125 38.740234375  28.798828124999996 38.583984375  C 31.025390625 37.841796875  31.03515625 37.587890625  31.201171875 37.333984375  C 32.216796875 35.810546875  31.777343749999996 29.228515625  31.777343749999996 26.298828125  C 31.777343749999996 25.78125  31.15234375 25.048828125  30.429687500000004 25  L 19.5703125 25  C 18.84765625 25.048828125  18.22265625 25.78125  18.22265625 26.298828125  C 18.22265625 29.228515625  17.783203125 35.810546875  18.798828125 37.333984375  C 18.96484375 37.578125  18.974609375 37.841796875  21.201171875 38.583984375  C 21.6796875 38.740234375  21.787109375 39.541015625  21.201171875 39.541015625  C 17.7734375 39.541015625  19.21875 39.345703125  15.72265625 39.345703125  C 12.177734375 39.345703125  13.886718749999998 39.541015625  10.341796875 39.541015625  C 9.5703125 39.541015625  9.775390625 38.486328125  10.341796875 38.486328125  C 11.337890625 38.154296875  11.66015625 38.14453125  12.4609375 37.138671875  C 13.212890625000002 35.87890625  13.232421875 32.802734375  13.232421875 24.658203125  L 13.232421875 14.775390625000002  C 13.232421875 12.607421875  12.041015625 12.01171875  10.439453125 11.611328125  C 9.580078125 11.396484375  10.048828125 10.458984375  10.537109375 10.458984375  C 14.1015625 10.458984375  12.548828125 10.654296875  16.11328125 10.654296875  C 19.306640625 10.654296875  17.724609375 10.458984375  20.91796875 10.458984375  C 21.240234375 10.458984375  21.748046875 11.26953125  21.015625 11.513671875  C 20.537109375 11.669921875  18.3203125 11.875  18.3203125 15.351562499999998  C 18.3203125 19.8046875  18.30078125 20.80078125  18.41796875 22.0703125  C 18.41796875 22.197265625  18.642578125 23.3203125  19.66796875 24  L 30.332031250000004 24  C 31.357421875000004 23.3203125  31.582031249999996 22.197265625  31.582031249999996 22.0703125  C 31.699218750000004 20.80078125  31.679687499999996 19.8046875  31.679687499999996 15.351562499999998  C 31.679687499999996 11.875  29.462890625 11.669921875  28.984375 11.513671875  C 28.251953125 11.26953125  28.759765625 10.458984375  29.08203125 10.458984375  C 32.275390625 10.458984375  30.693359375 10.654296875  33.88671875 10.654296875  C 37.451171875 10.654296875  35.8984375 10.458984375  39.462890625 10.458984375  C 39.94140625 10.458984375  40.4296875 11.396484375  39.560546875 11.611328125  C 37.958984375 12.01171875  36.767578125 12.617187499999998  36.767578125 14.775390625000002  L 36.767578125 24.658203125  C 36.767578125 32.802734375  36.77734375 35.87890625  37.5390625 37.138671875  C 38.33984375 38.134765625  38.65234375 38.154296875  39.658203125 38.486328125  Z " fill-rule="evenodd" />
    </mask>
  </defs>
  <g>
    <path d="M 50 7.001953125  C 46.4453125 6.42578125  43.65234375 3.5546875  43.271484375 0  L 7.021484375000001 0  C 6.630859375000001 3.6425781249999996  3.65234375 6.62109375  0 7.001953125  L 0 43.28125  C 3.65234375 43.759765625  6.4453125 46.4453125  7.021484375000001 50  L 43.369140625 50  C 43.662109375 46.4453125  46.54296875 43.57421875  50 43.18359375  L 50 7.001953125  Z M 39.658203125 38.486328125  C 40.224609375 38.486328125  40.419921875 39.541015625  39.658203125 39.541015625  C 36.11328125 39.541015625  37.822265625 39.345703125  34.27734375 39.345703125  C 30.78125 39.345703125  32.2265625 39.541015625  28.798828124999996 39.541015625  C 28.22265625 39.541015625  28.3203125 38.740234375  28.798828124999996 38.583984375  C 31.025390625 37.841796875  31.03515625 37.587890625  31.201171875 37.333984375  C 32.216796875 35.810546875  31.777343749999996 29.228515625  31.777343749999996 26.298828125  C 31.777343749999996 25.78125  31.15234375 25.048828125  30.429687500000004 25  L 19.5703125 25  C 18.84765625 25.048828125  18.22265625 25.78125  18.22265625 26.298828125  C 18.22265625 29.228515625  17.783203125 35.810546875  18.798828125 37.333984375  C 18.96484375 37.578125  18.974609375 37.841796875  21.201171875 38.583984375  C 21.6796875 38.740234375  21.787109375 39.541015625  21.201171875 39.541015625  C 17.7734375 39.541015625  19.21875 39.345703125  15.72265625 39.345703125  C 12.177734375 39.345703125  13.886718749999998 39.541015625  10.341796875 39.541015625  C 9.5703125 39.541015625  9.775390625 38.486328125  10.341796875 38.486328125  C 11.337890625 38.154296875  11.66015625 38.14453125  12.4609375 37.138671875  C 13.212890625000002 35.87890625  13.232421875 32.802734375  13.232421875 24.658203125  L 13.232421875 14.775390625000002  C 13.232421875 12.607421875  12.041015625 12.01171875  10.439453125 11.611328125  C 9.580078125 11.396484375  10.048828125 10.458984375  10.537109375 10.458984375  C 14.1015625 10.458984375  12.548828125 10.654296875  16.11328125 10.654296875  C 19.306640625 10.654296875  17.724609375 10.458984375  20.91796875 10.458984375  C 21.240234375 10.458984375  21.748046875 11.26953125  21.015625 11.513671875  C 20.537109375 11.669921875  18.3203125 11.875  18.3203125 15.351562499999998  C 18.3203125 19.8046875  18.30078125 20.80078125  18.41796875 22.0703125  C 18.41796875 22.197265625  18.642578125 23.3203125  19.66796875 24  L 30.332031250000004 24  C 31.357421875000004 23.3203125  31.582031249999996 22.197265625  31.582031249999996 22.0703125  C 31.699218750000004 20.80078125  31.679687499999996 19.8046875  31.679687499999996 15.351562499999998  C 31.679687499999996 11.875  29.462890625 11.669921875  28.984375 11.513671875  C 28.251953125 11.26953125  28.759765625 10.458984375  29.08203125 10.458984375  C 32.275390625 10.458984375  30.693359375 10.654296875  33.88671875 10.654296875  C 37.451171875 10.654296875  35.8984375 10.458984375  39.462890625 10.458984375  C 39.94140625 10.458984375  40.4296875 11.396484375  39.560546875 11.611328125  C 37.958984375 12.01171875  36.767578125 12.617187499999998  36.767578125 14.775390625000002  L 36.767578125 24.658203125  C 36.767578125 32.802734375  36.77734375 35.87890625  37.5390625 37.138671875  C 38.33984375 38.134765625  38.65234375 38.154296875  39.658203125 38.486328125  Z " fill-rule="nonzero" fill="rgba(0, 0, 0, 1)" stroke="none" class="fill" />
    <path d="M 50 7.001953125  C 46.4453125 6.42578125  43.65234375 3.5546875  43.271484375 0  L 7.021484375000001 0  C 6.630859375000001 3.6425781249999996  3.65234375 6.62109375  0 7.001953125  L 0 43.28125  C 3.65234375 43.759765625  6.4453125 46.4453125  7.021484375000001 50  L 43.369140625 50  C 43.662109375 46.4453125  46.54296875 43.57421875  50 43.18359375  L 50 7.001953125  Z " stroke-width="0" stroke-dasharray="0" stroke="rgba(255, 255, 255, 0)" fill="none" class="stroke" mask="url(#Clip823)" />
    <path d="M 39.658203125 38.486328125  C 40.224609375 38.486328125  40.419921875 39.541015625  39.658203125 39.541015625  C 36.11328125 39.541015625  37.822265625 39.345703125  34.27734375 39.345703125  C 30.78125 39.345703125  32.2265625 39.541015625  28.798828124999996 39.541015625  C 28.22265625 39.541015625  28.3203125 38.740234375  28.798828124999996 38.583984375  C 31.025390625 37.841796875  31.03515625 37.587890625  31.201171875 37.333984375  C 32.216796875 35.810546875  31.777343749999996 29.228515625  31.777343749999996 26.298828125  C 31.777343749999996 25.78125  31.15234375 25.048828125  30.429687500000004 25  L 19.5703125 25  C 18.84765625 25.048828125  18.22265625 25.78125  18.22265625 26.298828125  C 18.22265625 29.228515625  17.783203125 35.810546875  18.798828125 37.333984375  C 18.96484375 37.578125  18.974609375 37.841796875  21.201171875 38.583984375  C 21.6796875 38.740234375  21.787109375 39.541015625  21.201171875 39.541015625  C 17.7734375 39.541015625  19.21875 39.345703125  15.72265625 39.345703125  C 12.177734375 39.345703125  13.886718749999998 39.541015625  10.341796875 39.541015625  C 9.5703125 39.541015625  9.775390625 38.486328125  10.341796875 38.486328125  C 11.337890625 38.154296875  11.66015625 38.14453125  12.4609375 37.138671875  C 13.212890625000002 35.87890625  13.232421875 32.802734375  13.232421875 24.658203125  L 13.232421875 14.775390625000002  C 13.232421875 12.607421875  12.041015625 12.01171875  10.439453125 11.611328125  C 9.580078125 11.396484375  10.048828125 10.458984375  10.537109375 10.458984375  C 14.1015625 10.458984375  12.548828125 10.654296875  16.11328125 10.654296875  C 19.306640625 10.654296875  17.724609375 10.458984375  20.91796875 10.458984375  C 21.240234375 10.458984375  21.748046875 11.26953125  21.015625 11.513671875  C 20.537109375 11.669921875  18.3203125 11.875  18.3203125 15.351562499999998  C 18.3203125 19.8046875  18.30078125 20.80078125  18.41796875 22.0703125  C 18.41796875 22.197265625  18.642578125 23.3203125  19.66796875 24  L 30.332031250000004 24  C 31.357421875000004 23.3203125  31.582031249999996 22.197265625  31.582031249999996 22.0703125  C 31.699218750000004 20.80078125  31.679687499999996 19.8046875  31.679687499999996 15.351562499999998  C 31.679687499999996 11.875  29.462890625 11.669921875  28.984375 11.513671875  C 28.251953125 11.26953125  28.759765625 10.458984375  29.08203125 10.458984375  C 32.275390625 10.458984375  30.693359375 10.654296875  33.88671875 10.654296875  C 37.451171875 10.654296875  35.8984375 10.458984375  39.462890625 10.458984375  C 39.94140625 10.458984375  40.4296875 11.396484375  39.560546875 11.611328125  C 37.958984375 12.01171875  36.767578125 12.617187499999998  36.767578125 14.775390625000002  L 36.767578125 24.658203125  C 36.767578125 32.802734375  36.77734375 35.87890625  37.5390625 37.138671875  C 38.33984375 38.134765625  38.65234375 38.154296875  39.658203125 38.486328125  Z " stroke-width="0" stroke-dasharray="0" stroke="rgba(255, 255, 255, 0)" fill="none" class="stroke" mask="url(#Clip823)" />
  </g>
</svg>