<?xml version="1.0" encoding="utf-8"?>
<svg version="1.1" xmlns:xlink="http://www.w3.org/1999/xlink" width="50px" height="50px" xmlns="http://www.w3.org/2000/svg">
  <defs>
    <pattern id="BGPattern" patternUnits="userSpaceOnUse" alignment="0 0" imageRepeat="None" />
    <mask fill="white" id="Clip1335">
      <path d="M 50 14.84375  C 50 13.548828125  48.9501953125 12.5  47.65625 12.5  L 46.875 12.5  L 46.875 7.8125  C 46.875 3.4375000000000004  37.1875 0  25 0  C 12.812499999999998 0  3.125 3.4375000000000004  3.125 7.8125  L 3.125 12.5  L 2.34375 12.5  C 1.0498046875 12.5  0 13.548828125  0 14.84375  L 0 22.65625  C 0 23.9501953125  1.0498046875 25  2.34375 25  L 4 25  L 4 40.625  C 3.125 42.3505859375  4.5244140625 43.75  6.25 43.75  L 6.25 46.875  C 6.25 48.6005859375  7.6494140625 50  9.375 50  L 12.5 50  C 14.225585937499998 50  15.625 48.6005859375  15.625 46.875  L 15.625 43  L 34.375 43  L 34.375 46.875  C 34.375 48.6005859375  35.7744140625 50  37.5 50  L 40.625 50  C 42.3505859375 50  43.75 48.6005859375  43.75 46.875  L 43.75 43.75  L 44.375 43.75  C 45.9375 43.75  46.875 42.5  46 41.25  L 46 25  L 47.65625 25  C 48.9501953125 25  50 23.9501953125  50 22.65625  L 50 14.84375  Z M 14.0625 35.9375  C 14.0625 37.6630859375  12.663085937499998 39.0625  10.9375 39.0625  C 9.2119140625 39.0625  7.8125 37.6630859375  7.8125 35.9375  C 7.8125 34.2119140625  9.2119140625 32.8125  10.9375 32.8125  C 12.663085937499998 32.8125  14.0625 34.2119140625  14.0625 35.9375  Z M 37.5 28  L 12.5 28  C 10.7744140625 28.125  9.375 26.7255859375  10 25  L 10 12.5  C 9.375 10.7744140625  10.7744140625 9.375  12.5 10  L 37.5 10  C 39.2255859375 9.375  40.625 10.7744140625  40 12.5  L 40 25  C 40.625 26.7255859375  39.2255859375 28.125  37.5 28  Z M 42.1875 35.9375  C 42.1875 37.6630859375  40.7880859375 39.0625  39.0625 39.0625  C 37.3369140625 39.0625  35.9375 37.6630859375  35.9375 35.9375  C 35.9375 34.2119140625  37.3369140625 32.8125  39.0625 32.8125  C 40.7880859375 32.8125  42.1875 34.2119140625  42.1875 35.9375  Z " fill-rule="evenodd" />
    </mask>
  </defs>
  <g>
    <path d="M 50 14.84375  C 50 13.548828125  48.9501953125 12.5  47.65625 12.5  L 46.875 12.5  L 46.875 7.8125  C 46.875 3.4375000000000004  37.1875 0  25 0  C 12.812499999999998 0  3.125 3.4375000000000004  3.125 7.8125  L 3.125 12.5  L 2.34375 12.5  C 1.0498046875 12.5  0 13.548828125  0 14.84375  L 0 22.65625  C 0 23.9501953125  1.0498046875 25  2.34375 25  L 4 25  L 4 40.625  C 3.125 42.3505859375  4.5244140625 43.75  6.25 43.75  L 6.25 46.875  C 6.25 48.6005859375  7.6494140625 50  9.375 50  L 12.5 50  C 14.225585937499998 50  15.625 48.6005859375  15.625 46.875  L 15.625 43  L 34.375 43  L 34.375 46.875  C 34.375 48.6005859375  35.7744140625 50  37.5 50  L 40.625 50  C 42.3505859375 50  43.75 48.6005859375  43.75 46.875  L 43.75 43.75  L 44.375 43.75  C 45.9375 43.75  46.875 42.5  46 41.25  L 46 25  L 47.65625 25  C 48.9501953125 25  50 23.9501953125  50 22.65625  L 50 14.84375  Z M 14.0625 35.9375  C 14.0625 37.6630859375  12.663085937499998 39.0625  10.9375 39.0625  C 9.2119140625 39.0625  7.8125 37.6630859375  7.8125 35.9375  C 7.8125 34.2119140625  9.2119140625 32.8125  10.9375 32.8125  C 12.663085937499998 32.8125  14.0625 34.2119140625  14.0625 35.9375  Z M 37.5 28  L 12.5 28  C 10.7744140625 28.125  9.375 26.7255859375  10 25  L 10 12.5  C 9.375 10.7744140625  10.7744140625 9.375  12.5 10  L 37.5 10  C 39.2255859375 9.375  40.625 10.7744140625  40 12.5  L 40 25  C 40.625 26.7255859375  39.2255859375 28.125  37.5 28  Z M 42.1875 35.9375  C 42.1875 37.6630859375  40.7880859375 39.0625  39.0625 39.0625  C 37.3369140625 39.0625  35.9375 37.6630859375  35.9375 35.9375  C 35.9375 34.2119140625  37.3369140625 32.8125  39.0625 32.8125  C 40.7880859375 32.8125  42.1875 34.2119140625  42.1875 35.9375  Z " fill-rule="nonzero" fill="rgba(0, 0, 0, 1)" stroke="none" class="fill" />
    <path d="M 50 14.84375  C 50 13.548828125  48.9501953125 12.5  47.65625 12.5  L 46.875 12.5  L 46.875 7.8125  C 46.875 3.4375000000000004  37.1875 0  25 0  C 12.812499999999998 0  3.125 3.4375000000000004  3.125 7.8125  L 3.125 12.5  L 2.34375 12.5  C 1.0498046875 12.5  0 13.548828125  0 14.84375  L 0 22.65625  C 0 23.9501953125  1.0498046875 25  2.34375 25  L 4 25  L 4 40.625  C 3.125 42.3505859375  4.5244140625 43.75  6.25 43.75  L 6.25 46.875  C 6.25 48.6005859375  7.6494140625 50  9.375 50  L 12.5 50  C 14.225585937499998 50  15.625 48.6005859375  15.625 46.875  L 15.625 43  L 34.375 43  L 34.375 46.875  C 34.375 48.6005859375  35.7744140625 50  37.5 50  L 40.625 50  C 42.3505859375 50  43.75 48.6005859375  43.75 46.875  L 43.75 43.75  L 44.375 43.75  C 45.9375 43.75  46.875 42.5  46 41.25  L 46 25  L 47.65625 25  C 48.9501953125 25  50 23.9501953125  50 22.65625  L 50 14.84375  Z " stroke-width="0" stroke-dasharray="0" stroke="rgba(255, 255, 255, 0)" fill="none" class="stroke" mask="url(#Clip1335)" />
    <path d="M 14.0625 35.9375  C 14.0625 37.6630859375  12.663085937499998 39.0625  10.9375 39.0625  C 9.2119140625 39.0625  7.8125 37.6630859375  7.8125 35.9375  C 7.8125 34.2119140625  9.2119140625 32.8125  10.9375 32.8125  C 12.663085937499998 32.8125  14.0625 34.2119140625  14.0625 35.9375  Z " stroke-width="0" stroke-dasharray="0" stroke="rgba(255, 255, 255, 0)" fill="none" class="stroke" mask="url(#Clip1335)" />
    <path d="M 37.5 28  L 12.5 28  C 10.7744140625 28.125  9.375 26.7255859375  10 25  L 10 12.5  C 9.375 10.7744140625  10.7744140625 9.375  12.5 10  L 37.5 10  C 39.2255859375 9.375  40.625 10.7744140625  40 12.5  L 40 25  C 40.625 26.7255859375  39.2255859375 28.125  37.5 28  Z " stroke-width="0" stroke-dasharray="0" stroke="rgba(255, 255, 255, 0)" fill="none" class="stroke" mask="url(#Clip1335)" />
    <path d="M 42.1875 35.9375  C 42.1875 37.6630859375  40.7880859375 39.0625  39.0625 39.0625  C 37.3369140625 39.0625  35.9375 37.6630859375  35.9375 35.9375  C 35.9375 34.2119140625  37.3369140625 32.8125  39.0625 32.8125  C 40.7880859375 32.8125  42.1875 34.2119140625  42.1875 35.9375  Z " stroke-width="0" stroke-dasharray="0" stroke="rgba(255, 255, 255, 0)" fill="none" class="stroke" mask="url(#Clip1335)" />
  </g>
</svg>