<?xml version="1.0" encoding="utf-8"?>
<svg version="1.1" xmlns:xlink="http://www.w3.org/1999/xlink" width="50px" height="40px" xmlns="http://www.w3.org/2000/svg">
  <defs>
    <pattern id="BGPattern" patternUnits="userSpaceOnUse" alignment="0 0" imageRepeat="None" />
    <mask fill="white" id="Clip1327">
      <path d="M 10.589062500000011 14.121874999999989  C 10.740624999999994 14.6484375  11.244531249999994 15  11.792187500000011 15  L 14.427343750000004 15  C 15.287499999999996 15  15.881249999999994 14.153906250000006  15.588281249999994 13.345312500000006  C 15.203125 12.284375000000011  14.998437499999994 11.159375000000011  14.998437499999994 10  C 14.998437499999994 8.840624999999989  15.203125 7.715624999999989  15.588281249999994 6.654687499999994  C 15.882031250000011 5.846093749999994  15.287499999999996 5  14.427343750000004 5  L 11.792187500000011 5  C 11.244531249999994 5  10.740624999999994 5.350781250000011  10.588281249999994 5.877343749999994  C 10.206250000000011 7.203906249999989  10 8.584374999999994  10 10  C 10 11.415625000000006  10.206250000000011 12.796093750000011  10.589062500000011 14.121874999999989  Z M 7.038281250000011 18.174218749999994  C 3.1492187499999886 10.883593749999989  5.732812499999994 4.256249999999994  7.025000000000007 1.8234375000000114  C 7.465624999999989 0.9937500000000057  6.872656250000006 0  5.934374999999989 0  L 3.1742187499999943 0  C 2.6843749999999886 0  2.2257812500000114 0.28046875000001137  2.0226562500000114 0.7273437499999886  C 0.734375 3.5578125000000114  0 6.69140625  0 10  C 0 11.93359375  0.24375000000000568 15.338281249999994  2.0851562500000114 19.28593749999999  C 2.2898437499999886 19.72578125000001  2.7429687499999886 20  3.2265625 20  L 5.948437500000011 20  C 6.887499999999988 20  7.480468749999999 19.00468749999999  7.038281250000011 18.174218749999994  Z M 50 10  C 50 6.690625000000011  49.26406250000002 3.5562500000000057  47.97343749999999 0.7257812500000114  C 47.77031249999999 0.2796874999999943  47.3125 0  46.82265625000002 0  L 44.05546874999999 0  C 43.119531249999994 0  42.51953125 0.9890624999999886  42.96015625000001 1.81640625  C 44.38750000000002 4.495312500000011  46.74296874999999 11.146093750000006  42.982031250000006 18.162499999999994  C 42.53515625 18.99687499999999  43.122656250000006 20  44.068749999999994 20  L 46.82109374999999 20  C 47.31093750000002 20  47.76875000000001 19.720312500000006  47.97187500000001 19.27421874999999  C 49.263281250000006 16.443749999999994  50 13.309374999999989  50 10  Z M 39.41093749999999 5.878125000000011  C 39.259375000000006 5.350781250000011  38.755468750000006 5  38.20781249999999 5  L 35.572656249999994 5  C 34.712500000000006 5  34.118750000000006 5.846093749999994  34.411718750000006 6.654687499999994  C 34.796875 7.715624999999989  35.001562500000006 8.840624999999989  35.001562500000006 10  C 35.001562500000006 11.159375000000011  34.796875 12.284375000000011  34.411718750000006 13.345312500000006  C 34.11796874999999 14.153906250000006  34.712500000000006 15  35.572656249999994 15  L 38.20781249999999 15  C 38.756249999999994 15  39.259375000000006 14.649218749999989  39.411718750000006 14.121874999999989  C 39.794531250000006 12.796093750000011  40 11.415625000000006  40 10  C 40 8.584374999999994  39.79374999999999 7.203906249999989  39.41093749999999 5.878125000000011  Z M 39.31718749999999 37.307031249999994  L 29.121874999999985 12.821875000000006  C 29.67265624999999 12.017968749999994  29.99687499999999 11.047656249999989  29.99687499999999 10  C 29.99687499999999 7.23828125  27.760156249999994 5  25 5  C 22.240624999999994 5  20.00312500000001 7.23828125  20.00312500000001 10  C 20.00312500000001 11.047656249999989  20.32734375000001 12.017968749999994  20.87812500000001 12.821875000000006  L 10.682812500000011 37.307031249999994  C 10.417187500000011 37.943749999999994  10.71875 38.67578125  11.35546875 38.94140625  L 13.660937499999989 39.90312499999999  C 14.297656249999987 40.16874999999999  15.029687499999994 39.8671875  15.294531250000007 39.23046875  L 19.13749999999999 30  L 30.861718749999994 30  L 34.705468749999994 39.23046875  C 34.971093749999994 39.86796874999999  35.70234375000001 40.16874999999999  36.33906250000001 39.90312499999999  L 38.64453125 38.94140625  C 39.28125 38.67578125  39.58203125 37.943749999999994  39.31718749999999 37.307031249999994  Z M 28.779687499999994 25  L 21.220312500000006 25  L 25 15.922656249999989  L 28.779687499999994 25  Z " fill-rule="evenodd" />
    </mask>
  </defs>
  <g>
    <path d="M 10.589062500000011 14.121874999999989  C 10.740624999999994 14.6484375  11.244531249999994 15  11.792187500000011 15  L 14.427343750000004 15  C 15.287499999999996 15  15.881249999999994 14.153906250000006  15.588281249999994 13.345312500000006  C 15.203125 12.284375000000011  14.998437499999994 11.159375000000011  14.998437499999994 10  C 14.998437499999994 8.840624999999989  15.203125 7.715624999999989  15.588281249999994 6.654687499999994  C 15.882031250000011 5.846093749999994  15.287499999999996 5  14.427343750000004 5  L 11.792187500000011 5  C 11.244531249999994 5  10.740624999999994 5.350781250000011  10.588281249999994 5.877343749999994  C 10.206250000000011 7.203906249999989  10 8.584374999999994  10 10  C 10 11.415625000000006  10.206250000000011 12.796093750000011  10.589062500000011 14.121874999999989  Z M 7.038281250000011 18.174218749999994  C 3.1492187499999886 10.883593749999989  5.732812499999994 4.256249999999994  7.025000000000007 1.8234375000000114  C 7.465624999999989 0.9937500000000057  6.872656250000006 0  5.934374999999989 0  L 3.1742187499999943 0  C 2.6843749999999886 0  2.2257812500000114 0.28046875000001137  2.0226562500000114 0.7273437499999886  C 0.734375 3.5578125000000114  0 6.69140625  0 10  C 0 11.93359375  0.24375000000000568 15.338281249999994  2.0851562500000114 19.28593749999999  C 2.2898437499999886 19.72578125000001  2.7429687499999886 20  3.2265625 20  L 5.948437500000011 20  C 6.887499999999988 20  7.480468749999999 19.00468749999999  7.038281250000011 18.174218749999994  Z M 50 10  C 50 6.690625000000011  49.26406250000002 3.5562500000000057  47.97343749999999 0.7257812500000114  C 47.77031249999999 0.2796874999999943  47.3125 0  46.82265625000002 0  L 44.05546874999999 0  C 43.119531249999994 0  42.51953125 0.9890624999999886  42.96015625000001 1.81640625  C 44.38750000000002 4.495312500000011  46.74296874999999 11.146093750000006  42.982031250000006 18.162499999999994  C 42.53515625 18.99687499999999  43.122656250000006 20  44.068749999999994 20  L 46.82109374999999 20  C 47.31093750000002 20  47.76875000000001 19.720312500000006  47.97187500000001 19.27421874999999  C 49.263281250000006 16.443749999999994  50 13.309374999999989  50 10  Z M 39.41093749999999 5.878125000000011  C 39.259375000000006 5.350781250000011  38.755468750000006 5  38.20781249999999 5  L 35.572656249999994 5  C 34.712500000000006 5  34.118750000000006 5.846093749999994  34.411718750000006 6.654687499999994  C 34.796875 7.715624999999989  35.001562500000006 8.840624999999989  35.001562500000006 10  C 35.001562500000006 11.159375000000011  34.796875 12.284375000000011  34.411718750000006 13.345312500000006  C 34.11796874999999 14.153906250000006  34.712500000000006 15  35.572656249999994 15  L 38.20781249999999 15  C 38.756249999999994 15  39.259375000000006 14.649218749999989  39.411718750000006 14.121874999999989  C 39.794531250000006 12.796093750000011  40 11.415625000000006  40 10  C 40 8.584374999999994  39.79374999999999 7.203906249999989  39.41093749999999 5.878125000000011  Z M 39.31718749999999 37.307031249999994  L 29.121874999999985 12.821875000000006  C 29.67265624999999 12.017968749999994  29.99687499999999 11.047656249999989  29.99687499999999 10  C 29.99687499999999 7.23828125  27.760156249999994 5  25 5  C 22.240624999999994 5  20.00312500000001 7.23828125  20.00312500000001 10  C 20.00312500000001 11.047656249999989  20.32734375000001 12.017968749999994  20.87812500000001 12.821875000000006  L 10.682812500000011 37.307031249999994  C 10.417187500000011 37.943749999999994  10.71875 38.67578125  11.35546875 38.94140625  L 13.660937499999989 39.90312499999999  C 14.297656249999987 40.16874999999999  15.029687499999994 39.8671875  15.294531250000007 39.23046875  L 19.13749999999999 30  L 30.861718749999994 30  L 34.705468749999994 39.23046875  C 34.971093749999994 39.86796874999999  35.70234375000001 40.16874999999999  36.33906250000001 39.90312499999999  L 38.64453125 38.94140625  C 39.28125 38.67578125  39.58203125 37.943749999999994  39.31718749999999 37.307031249999994  Z M 28.779687499999994 25  L 21.220312500000006 25  L 25 15.922656249999989  L 28.779687499999994 25  Z " fill-rule="nonzero" fill="rgba(0, 0, 0, 1)" stroke="none" class="fill" />
    <path d="M 10.589062500000011 14.121874999999989  C 10.740624999999994 14.6484375  11.244531249999994 15  11.792187500000011 15  L 14.427343750000004 15  C 15.287499999999996 15  15.881249999999994 14.153906250000006  15.588281249999994 13.345312500000006  C 15.203125 12.284375000000011  14.998437499999994 11.159375000000011  14.998437499999994 10  C 14.998437499999994 8.840624999999989  15.203125 7.715624999999989  15.588281249999994 6.654687499999994  C 15.882031250000011 5.846093749999994  15.287499999999996 5  14.427343750000004 5  L 11.792187500000011 5  C 11.244531249999994 5  10.740624999999994 5.350781250000011  10.588281249999994 5.877343749999994  C 10.206250000000011 7.203906249999989  10 8.584374999999994  10 10  C 10 11.415625000000006  10.206250000000011 12.796093750000011  10.589062500000011 14.121874999999989  Z " stroke-width="0" stroke-dasharray="0" stroke="rgba(255, 255, 255, 0)" fill="none" class="stroke" mask="url(#Clip1327)" />
    <path d="M 7.038281250000011 18.174218749999994  C 3.1492187499999886 10.883593749999989  5.732812499999994 4.256249999999994  7.025000000000007 1.8234375000000114  C 7.465624999999989 0.9937500000000057  6.872656250000006 0  5.934374999999989 0  L 3.1742187499999943 0  C 2.6843749999999886 0  2.2257812500000114 0.28046875000001137  2.0226562500000114 0.7273437499999886  C 0.734375 3.5578125000000114  0 6.69140625  0 10  C 0 11.93359375  0.24375000000000568 15.338281249999994  2.0851562500000114 19.28593749999999  C 2.2898437499999886 19.72578125000001  2.7429687499999886 20  3.2265625 20  L 5.948437500000011 20  C 6.887499999999988 20  7.480468749999999 19.00468749999999  7.038281250000011 18.174218749999994  Z " stroke-width="0" stroke-dasharray="0" stroke="rgba(255, 255, 255, 0)" fill="none" class="stroke" mask="url(#Clip1327)" />
    <path d="M 50 10  C 50 6.690625000000011  49.26406250000002 3.5562500000000057  47.97343749999999 0.7257812500000114  C 47.77031249999999 0.2796874999999943  47.3125 0  46.82265625000002 0  L 44.05546874999999 0  C 43.119531249999994 0  42.51953125 0.9890624999999886  42.96015625000001 1.81640625  C 44.38750000000002 4.495312500000011  46.74296874999999 11.146093750000006  42.982031250000006 18.162499999999994  C 42.53515625 18.99687499999999  43.122656250000006 20  44.068749999999994 20  L 46.82109374999999 20  C 47.31093750000002 20  47.76875000000001 19.720312500000006  47.97187500000001 19.27421874999999  C 49.263281250000006 16.443749999999994  50 13.309374999999989  50 10  Z " stroke-width="0" stroke-dasharray="0" stroke="rgba(255, 255, 255, 0)" fill="none" class="stroke" mask="url(#Clip1327)" />
    <path d="M 39.41093749999999 5.878125000000011  C 39.259375000000006 5.350781250000011  38.755468750000006 5  38.20781249999999 5  L 35.572656249999994 5  C 34.712500000000006 5  34.118750000000006 5.846093749999994  34.411718750000006 6.654687499999994  C 34.796875 7.715624999999989  35.001562500000006 8.840624999999989  35.001562500000006 10  C 35.001562500000006 11.159375000000011  34.796875 12.284375000000011  34.411718750000006 13.345312500000006  C 34.11796874999999 14.153906250000006  34.712500000000006 15  35.572656249999994 15  L 38.20781249999999 15  C 38.756249999999994 15  39.259375000000006 14.649218749999989  39.411718750000006 14.121874999999989  C 39.794531250000006 12.796093750000011  40 11.415625000000006  40 10  C 40 8.584374999999994  39.79374999999999 7.203906249999989  39.41093749999999 5.878125000000011  Z " stroke-width="0" stroke-dasharray="0" stroke="rgba(255, 255, 255, 0)" fill="none" class="stroke" mask="url(#Clip1327)" />
    <path d="M 39.31718749999999 37.307031249999994  L 29.121874999999985 12.821875000000006  C 29.67265624999999 12.017968749999994  29.99687499999999 11.047656249999989  29.99687499999999 10  C 29.99687499999999 7.23828125  27.760156249999994 5  25 5  C 22.240624999999994 5  20.00312500000001 7.23828125  20.00312500000001 10  C 20.00312500000001 11.047656249999989  20.32734375000001 12.017968749999994  20.87812500000001 12.821875000000006  L 10.682812500000011 37.307031249999994  C 10.417187500000011 37.943749999999994  10.71875 38.67578125  11.35546875 38.94140625  L 13.660937499999989 39.90312499999999  C 14.297656249999987 40.16874999999999  15.029687499999994 39.8671875  15.294531250000007 39.23046875  L 19.13749999999999 30  L 30.861718749999994 30  L 34.705468749999994 39.23046875  C 34.971093749999994 39.86796874999999  35.70234375000001 40.16874999999999  36.33906250000001 39.90312499999999  L 38.64453125 38.94140625  C 39.28125 38.67578125  39.58203125 37.943749999999994  39.31718749999999 37.307031249999994  Z " stroke-width="0" stroke-dasharray="0" stroke="rgba(255, 255, 255, 0)" fill="none" class="stroke" mask="url(#Clip1327)" />
    <path d="M 28.779687499999994 25  L 21.220312500000006 25  L 25 15.922656249999989  L 28.779687499999994 25  Z " stroke-width="0" stroke-dasharray="0" stroke="rgba(255, 255, 255, 0)" fill="none" class="stroke" mask="url(#Clip1327)" />
  </g>
</svg>