<?xml version="1.0" encoding="utf-8"?>
<svg version="1.1" xmlns:xlink="http://www.w3.org/1999/xlink" width="14px" height="12px" xmlns="http://www.w3.org/2000/svg">
  <defs>
    <pattern id="BGPattern" patternUnits="userSpaceOnUse" alignment="0 0" imageRepeat="None" />
    <mask fill="white" id="Clip3247">
      <path d="M 14 3  C 14 2.4000000000000004  13.6 2  13 2  L 7 2  L 5.3 0.2999999999999998  C 5.1 0.10000000000000009  4.9 0  4.6 0  L 1 0  C 0.3999999999999999 0  0 0.3999999999999999  0 1  L 0 11  C 0 11.6  0.3999999999999999 12  1 12  L 7 12  L 7 11  L 1 11  L 1 1  L 4.6 1  L 6.3 2.7  L 6.6 3  L 13 3  L 13 7  L 14 7  L 14 3  Z " fill-rule="evenodd" />
    </mask>
  </defs>
  <g transform="matrix(1 0 0 1 -1 -2 )">
    <path d="M 14 3  C 14 2.4000000000000004  13.6 2  13 2  L 7 2  L 5.3 0.2999999999999998  C 5.1 0.10000000000000009  4.9 0  4.6 0  L 1 0  C 0.3999999999999999 0  0 0.3999999999999999  0 1  L 0 11  C 0 11.6  0.3999999999999999 12  1 12  L 7 12  L 7 11  L 1 11  L 1 1  L 4.6 1  L 6.3 2.7  L 6.6 3  L 13 3  L 13 7  L 14 7  L 14 3  Z " fill-rule="nonzero" fill="rgba(0, 0, 0, 1)" stroke="none" transform="matrix(1 0 0 1 1 2 )" class="fill" />
    <path d="M 14 3  C 14 2.4000000000000004  13.6 2  13 2  L 7 2  L 5.3 0.2999999999999998  C 5.1 0.10000000000000009  4.9 0  4.6 0  L 1 0  C 0.3999999999999999 0  0 0.3999999999999999  0 1  L 0 11  C 0 11.6  0.3999999999999999 12  1 12  L 7 12  L 7 11  L 1 11  L 1 1  L 4.6 1  L 6.3 2.7  L 6.6 3  L 13 3  L 13 7  L 14 7  L 14 3  Z " stroke-width="0" stroke-dasharray="0" stroke="rgba(255, 255, 255, 0)" fill="none" transform="matrix(1 0 0 1 1 2 )" class="stroke" mask="url(#Clip3247)" />
  </g>
</svg>