<?xml version="1.0" encoding="utf-8"?>
<svg version="1.1" xmlns:xlink="http://www.w3.org/1999/xlink" width="28px" height="23px" xmlns="http://www.w3.org/2000/svg">
  <defs>
    <pattern id="BGPattern" patternUnits="userSpaceOnUse" alignment="0 0" imageRepeat="None" />
    <mask fill="white" id="Clip4273">
      <path d="M 27 8.15  C 27.04052470842371 7.861091469712743  26.952864773245807 7.568891685786403  26.76 7.35  C 26.569997318383994 7.12786224901058  26.292311818211424 6.999980768667948  26 7  L 20 7  L 20 2.999999999999999  C 20 1.3431457505076185  18.65685424949238 0  17 0  L 11 0  C 9.34314575050762 0  8 1.3431457505076194  8 3  L 8 7  L 2 7  C 1.996225573643772 6.999957256663784  1.9924509355251367 6.9999358844818165  1.9886762671540898 6.9999358844818165  C 1.4363915173232966 6.9999358844818165  0.9886762671540898 7.447651134651023  0.9886762671540898 7.9999358844818165  C 0.9886762671540898 8.050170674256966  0.9924615607041504 8.100334055563835  1 8.15  L 2.88 20.3  C 3.0295388443472904 21.286076111838188  3.8827132543214535 22.01127436031623  4.88 22  L 23.14 22  C 24.13728674567855 22.011274360316232  24.99046115565271 21.28607611183819  25.14 20.3  L 27 8.15  Z M 10 7  L 10 3  C 10 2.4477152501692068  10.447715250169207 2  11 2  L 17 2  C 17.552284749830793 2  18 2.4477152501692068  18 3  L 18 7  L 10 7  Z M 24.83 9  L 23.14 20  L 4.86 20  L 3.17 9  L 24.83 9  Z " fill-rule="evenodd" />
    </mask>
  </defs>
  <g transform="matrix(1 0 0 1 -2 -4 )">
    <path d="M 27 8.15  C 27.04052470842371 7.861091469712743  26.952864773245807 7.568891685786403  26.76 7.35  C 26.569997318383994 7.12786224901058  26.292311818211424 6.999980768667948  26 7  L 20 7  L 20 2.999999999999999  C 20 1.3431457505076185  18.65685424949238 0  17 0  L 11 0  C 9.34314575050762 0  8 1.3431457505076194  8 3  L 8 7  L 2 7  C 1.996225573643772 6.999957256663784  1.9924509355251367 6.9999358844818165  1.9886762671540898 6.9999358844818165  C 1.4363915173232966 6.9999358844818165  0.9886762671540898 7.447651134651023  0.9886762671540898 7.9999358844818165  C 0.9886762671540898 8.050170674256966  0.9924615607041504 8.100334055563835  1 8.15  L 2.88 20.3  C 3.0295388443472904 21.286076111838188  3.8827132543214535 22.01127436031623  4.88 22  L 23.14 22  C 24.13728674567855 22.011274360316232  24.99046115565271 21.28607611183819  25.14 20.3  L 27 8.15  Z M 10 7  L 10 3  C 10 2.4477152501692068  10.447715250169207 2  11 2  L 17 2  C 17.552284749830793 2  18 2.4477152501692068  18 3  L 18 7  L 10 7  Z M 24.83 9  L 23.14 20  L 4.86 20  L 3.17 9  L 24.83 9  Z " fill-rule="nonzero" fill="rgba(0, 0, 0, 1)" stroke="none" transform="matrix(1 0 0 1 2 4 )" class="fill" />
    <path d="M 27 8.15  C 27.04052470842371 7.861091469712743  26.952864773245807 7.568891685786403  26.76 7.35  C 26.569997318383994 7.12786224901058  26.292311818211424 6.999980768667948  26 7  L 20 7  L 20 2.999999999999999  C 20 1.3431457505076185  18.65685424949238 0  17 0  L 11 0  C 9.34314575050762 0  8 1.3431457505076194  8 3  L 8 7  L 2 7  C 1.996225573643772 6.999957256663784  1.9924509355251367 6.9999358844818165  1.9886762671540898 6.9999358844818165  C 1.4363915173232966 6.9999358844818165  0.9886762671540898 7.447651134651023  0.9886762671540898 7.9999358844818165  C 0.9886762671540898 8.050170674256966  0.9924615607041504 8.100334055563835  1 8.15  L 2.88 20.3  C 3.0295388443472904 21.286076111838188  3.8827132543214535 22.01127436031623  4.88 22  L 23.14 22  C 24.13728674567855 22.011274360316232  24.99046115565271 21.28607611183819  25.14 20.3  L 27 8.15  Z " stroke-width="0" stroke-dasharray="0" stroke="rgba(255, 255, 255, 0)" fill="none" transform="matrix(1 0 0 1 2 4 )" class="stroke" mask="url(#Clip4273)" />
    <path d="M 10 7  L 10 3  C 10 2.4477152501692068  10.447715250169207 2  11 2  L 17 2  C 17.552284749830793 2  18 2.4477152501692068  18 3  L 18 7  L 10 7  Z " stroke-width="0" stroke-dasharray="0" stroke="rgba(255, 255, 255, 0)" fill="none" transform="matrix(1 0 0 1 2 4 )" class="stroke" mask="url(#Clip4273)" />
    <path d="M 24.83 9  L 23.14 20  L 4.86 20  L 3.17 9  L 24.83 9  Z " stroke-width="0" stroke-dasharray="0" stroke="rgba(255, 255, 255, 0)" fill="none" transform="matrix(1 0 0 1 2 4 )" class="stroke" mask="url(#Clip4273)" />
  </g>
</svg>