<?xml version="1.0" encoding="utf-8"?>
<svg version="1.1" xmlns:xlink="http://www.w3.org/1999/xlink" width="16px" height="16px" xmlns="http://www.w3.org/2000/svg">
  <defs>
    <pattern id="BGPattern" patternUnits="userSpaceOnUse" alignment="0 0" imageRepeat="None" />
    <mask fill="white" id="Clip3456">
      <path d="M 16 8  C 16 3.5817220013536524  12.418277998646346 0  8 0  C 3.5817220013536524 0  0 3.5817220013536524  0 8  C 0 12.418277998646346  3.5817220013536524 16  8 16  C 12.418277998646346 16  16 12.418277998646346  16 8  Z M 8 2  L 8 14  C 4.686291501015237 14  2 11.31370849898476  2 8  C 2 4.686291501015237  4.686291501015237 2  8 2  Z " fill-rule="evenodd" />
    </mask>
  </defs>
  <g transform="matrix(1 0 0 1 -8 -8 )">
    <path d="M 16 8  C 16 3.5817220013536524  12.418277998646346 0  8 0  C 3.5817220013536524 0  0 3.5817220013536524  0 8  C 0 12.418277998646346  3.5817220013536524 16  8 16  C 12.418277998646346 16  16 12.418277998646346  16 8  Z M 8 2  L 8 14  C 4.686291501015237 14  2 11.31370849898476  2 8  C 2 4.686291501015237  4.686291501015237 2  8 2  Z " fill-rule="nonzero" fill="rgba(0, 0, 0, 1)" stroke="none" transform="matrix(1 0 0 1 8 8 )" class="fill" />
    <path d="M 16 8  C 16 3.5817220013536524  12.418277998646346 0  8 0  C 3.5817220013536524 0  0 3.5817220013536524  0 8  C 0 12.418277998646346  3.5817220013536524 16  8 16  C 12.418277998646346 16  16 12.418277998646346  16 8  Z " stroke-width="0" stroke-dasharray="0" stroke="rgba(255, 255, 255, 0)" fill="none" transform="matrix(1 0 0 1 8 8 )" class="stroke" mask="url(#Clip3456)" />
    <path d="M 8 2  L 8 14  C 4.686291501015237 14  2 11.31370849898476  2 8  C 2 4.686291501015237  4.686291501015237 2  8 2  Z " stroke-width="0" stroke-dasharray="0" stroke="rgba(255, 255, 255, 0)" fill="none" transform="matrix(1 0 0 1 8 8 )" class="stroke" mask="url(#Clip3456)" />
  </g>
</svg>