<?xml version="1.0" encoding="utf-8"?>
<svg version="1.1" xmlns:xlink="http://www.w3.org/1999/xlink" width="25px" height="25px" xmlns="http://www.w3.org/2000/svg">
  <defs>
    <pattern id="BGPattern" patternUnits="userSpaceOnUse" alignment="0 0" imageRepeat="None" />
    <mask fill="white" id="Clip5227">
      <path d="M 3.1874999999999996 21.625  C 3.1874999999999996 21.41789321881345  3.3553932188134525 21.25  3.5624999999999996 21.25  C 3.769606781186548 21.25  3.9375 21.41789321881345  3.9375 21.625  L 3.9375 22.48  L 4.689 22.0495  C 4.74376709816012 22.019901264537573  4.805041430399137 22.004402796314245  4.867295106450074 22.004402796314245  C 5.074401887636621 22.004402796314245  5.242295106450074 22.172296015127696  5.242295106450074 22.379402796314245  C 5.242295106450074 22.510806511625187  5.173515641440702 22.632623886169675  5.061 22.700499999999998  L 4.318499999999999 23.124999999999996  L 5.061 23.549499999999995  C 5.182183436186917 23.61499327224966  5.25770489354992 23.741653771214104  5.25770489354992 23.879402796314235  C 5.25770489354992 24.086509577500784  5.089811674736467 24.254402796314235  4.88270489354992 24.254402796314235  C 4.814433718677426 24.254402796314235  4.7474578222503965 24.235765228429873  4.688999999999999 24.200499999999995  L 3.937499999999999 23.771499999999996  L 3.937499999999999 24.624999999999993  C 3.937499999999999 24.832106781186543  3.769606781186547 24.999999999999993  3.562499999999999 24.999999999999993  C 3.3553932188134525 24.999999999999993  3.1874999999999996 24.832106781186543  3.1874999999999996 24.624999999999993  L 3.1874999999999996 23.769999999999996  L 2.4359999999999995 24.200499999999995  C 2.377542177749598 24.235765228429877  2.3105662813225734 24.254402796314235  2.242295106450076 24.254402796314235  C 2.035188325263528 24.254402796314235  1.8672951064500756 24.086509577500784  1.8672951064500756 23.879402796314235  C 1.8672951064500756 23.7416537712141  1.9428165638130794 23.61499327224966  2.0639999999999996 23.549499999999995  L 2.8064999999999993 23.124999999999996  L 2.063999999999999 22.700499999999998  C 1.9428165638130817 22.635006727750337  1.8672951064500756 22.508346228785893  1.8672951064500756 22.370597203685758  C 1.8672951064500756 22.16349042249921  2.035188325263528 21.995597203685758  2.242295106450076 21.995597203685758  C 2.3105662813225676 21.995597203685758  2.3775421777496026 22.014234771570123  2.435999999999999 22.0495  L 3.1874999999999996 22.478499999999997  L 3.1874999999999996 21.625  Z M 6.3345 17.579500000000003  L 6.336 17.579500000000003  C 6.7054288677715785 17.765055109591923  6.855041438081198 18.214563728907827  6.6705 18.584500000000002  L 5.9205000000000005 20.084500000000002  C 5.789619485068717 20.327206561131483  5.536111800043747 20.478519587558367  5.260365206220817 20.478519587558367  C 4.846151643847722 20.478519587558367  4.510365206220817 20.142733149931463  4.510365206220817 19.728519587558367  C 4.510365206220817 19.619910634345885  4.5339538091072855 19.512597409768595  4.5794999999999995 19.414  L 5.3294999999999995 17.914  C 5.515055109591922 17.544571132228423  5.964563728907825 17.394958561918806  6.3345 17.579500000000003  Z M 9.187499999999998 21.625  C 9.187499999999998 21.41789321881345  9.35539321881345 21.25  9.5625 21.25  C 9.769606781186548 21.25  9.9375 21.41789321881345  9.9375 21.625  L 9.9375 22.48  L 10.6875 22.0495  C 10.744337261184672 22.01689060360603  10.808722547797478 21.999732345518563  10.87425 21.999732345518563  C 11.081504602674869 21.999732345518563  11.249517654481437 22.16774539732513  11.249517654481437 22.375  C 11.249517654481437 22.509434610459888  11.17760601488599 22.63359931404006  11.061 22.700499999999998  L 10.3185 23.124999999999996  L 11.061 23.549499999999995  C 11.182183436186918 23.614993272249656  11.25770489354992 23.741653771214104  11.25770489354992 23.879402796314235  C 11.25770489354992 24.086509577500784  11.089811674736469 24.254402796314235  10.88270489354992 24.254402796314235  C 10.814433718677428 24.254402796314235  10.747457822250396 24.235765228429873  10.689 24.200499999999995  L 9.937499999999998 23.771499999999996  L 9.937499999999998 24.624999999999993  C 9.937499999999998 24.832106781186543  9.769606781186546 24.999999999999993  9.562499999999998 24.999999999999993  C 9.35539321881345 24.999999999999993  9.187499999999998 24.832106781186543  9.187499999999998 24.624999999999993  L 9.187499999999998 23.769999999999996  L 8.435999999999998 24.200499999999995  C 8.377542177749598 24.235765228429877  8.310566281322572 24.254402796314235  8.242295106450076 24.254402796314235  C 8.03518832526353 24.254402796314235  7.867295106450076 24.086509577500784  7.867295106450076 23.879402796314235  C 7.867295106450076 23.741653771214104  7.942816563813078 23.61499327224966  8.063999999999998 23.549499999999995  L 8.806499999999998 23.124999999999996  L 8.063999999999998 22.700499999999998  C 7.94281656381308 22.635006727750337  7.867295106450076 22.508346228785893  7.867295106450076 22.370597203685758  C 7.867295106450076 22.16349042249921  8.03518832526353 21.995597203685758  8.242295106450076 21.995597203685758  C 8.310566281322568 21.995597203685758  8.3775421777496 22.014234771570123  8.435999999999998 22.0495  L 9.187499999999998 22.478499999999997  L 9.187499999999998 21.625  Z M 12.334500000000002 17.579500000000003  L 12.336 17.579500000000003  C 12.705428867771577 17.765055109591923  12.855041438081196 18.214563728907827  12.6705 18.584500000000002  L 11.9205 20.084500000000002  C 11.789619485068718 20.327206561131483  11.536111800043749 20.478519587558367  11.260365206220818 20.478519587558367  C 10.846151643847723 20.478519587558367  10.510365206220818 20.142733149931463  10.510365206220818 19.728519587558367  C 10.510365206220818 19.619910634345885  10.533953809107286 19.512597409768592  10.579500000000001 19.414  L 11.329500000000001 17.914  C 11.515055109591923 17.544571132228423  11.964563728907827 17.394958561918806  12.334500000000002 17.579500000000003  Z M 15.187500000000004 21.625  C 15.187500000000004 21.41789321881345  15.355393218813454 21.25  15.562500000000002 21.25  C 15.769606781186548 21.25  15.937499999999998 21.41789321881345  15.937499999999998 21.625  L 15.937499999999998 22.48  L 16.6875 22.0495  C 16.744337261184672 22.016890603606026  16.808722547797476 21.999732345518563  16.874250000000004 21.999732345518563  C 17.08150460267487 21.999732345518563  17.249517654481437 22.16774539732513  17.249517654481437 22.375  C 17.249517654481437 22.509434610459888  17.177606014885992 22.63359931404006  17.061 22.700499999999998  L 16.3185 23.124999999999996  L 17.061 23.549499999999995  C 17.182183436186925 23.614993272249656  17.257704893549935 23.741653771214104  17.257704893549935 23.879402796314242  C 17.257704893549935 24.08650957750079  17.08981167473648 24.254402796314242  16.882704893549935 24.254402796314242  C 16.814433718677435 24.254402796314242  16.747457822250404 24.235765228429877  16.689 24.200499999999995  L 15.937500000000004 23.771499999999996  L 15.937500000000004 24.624999999999993  C 15.937500000000004 24.832106781186543  15.769606781186551 24.999999999999993  15.562500000000004 24.999999999999993  C 15.355393218813454 24.999999999999993  15.187500000000004 24.832106781186543  15.187500000000004 24.624999999999993  L 15.187500000000004 23.769999999999996  L 14.436000000000003 24.200499999999995  C 14.3775421777496 24.235765228429877  14.310566281322574 24.254402796314242  14.242295106450072 24.254402796314242  C 14.035188325263523 24.254402796314242  13.867295106450072 24.08650957750079  13.867295106450072 23.879402796314242  C 13.867295106450072 23.741653771214104  13.942816563813079 23.614993272249656  14.064000000000004 23.549499999999995  L 14.806500000000003 23.124999999999996  L 14.064000000000004 22.700499999999998  C 13.942816563813079 22.635006727750337  13.867295106450072 22.50834622878589  13.867295106450072 22.370597203685755  C 13.867295106450072 22.163490422499205  14.035188325263523 21.995597203685755  14.242295106450072 21.995597203685755  C 14.310566281322568 21.995597203685755  14.377542177749604 22.014234771570116  14.436000000000003 22.0495  L 15.187500000000004 22.478499999999997  L 15.187500000000004 21.625  Z M 18.334500000000002 17.579500000000003  L 18.336 17.579500000000003  C 18.705428867771577 17.765055109591923  18.855041438081198 18.214563728907827  18.6705 18.584500000000002  L 17.9205 20.084500000000002  C 17.79785910219654 20.349990365233815  17.532082949605172 20.519980412441637  17.239634793779185 20.519980412441637  C 16.82542123140609 20.519980412441637  16.489634793779185 20.184193974814733  16.489634793779185 19.769980412441637  C 16.489634793779185 19.6457076299454  16.52051509817563 19.523382383527363  16.579500000000003 19.414  L 17.329500000000003 17.914  C 17.515055109591923 17.544571132228423  17.964563728907827 17.394958561918806  18.334500000000002 17.579500000000003  Z M 24.00514334981515 11.50000293933955  C 24.00514334981515 9.247515548418168  22.339716475697593 7.342011279862002  20.1075 7.040500000000001  C 19.41084980679725 3.528698129242073  16.32961600723235 0.9986592723499144  12.749382233978388 0.9986592723499144  C 9.752791579664908 0.9986592723499144  7.043678645524479 2.7820298264364123  5.859000000000001 5.534500000000001  C 5.659548552660307 5.5115231578477015  5.458943294424531 5.500006361308186  5.258172741002994 5.500006361308186  C 2.3586778043913283 5.500006361308186  0.008172741002993977 7.8505114246965215  0.008172741002993977 10.750006361308188  C 0.008172741002993977 13.64631015699906  2.353699713695991 15.995491287468916  5.25 16  L 19.5 16  C 19.501714449237745 16.00000195955954  19.503428899457546 16.000002939339552  19.50514334981515 16.000002939339552  C 21.990424724053717 16.000002939339552  24.00514334981515 13.98528431357812  24.00514334981515 11.50000293933955  Z " fill-rule="evenodd" />
    </mask>
  </defs>
  <g>
    <path d="M 3.1874999999999996 21.625  C 3.1874999999999996 21.41789321881345  3.3553932188134525 21.25  3.5624999999999996 21.25  C 3.769606781186548 21.25  3.9375 21.41789321881345  3.9375 21.625  L 3.9375 22.48  L 4.689 22.0495  C 4.74376709816012 22.019901264537573  4.805041430399137 22.004402796314245  4.867295106450074 22.004402796314245  C 5.074401887636621 22.004402796314245  5.242295106450074 22.172296015127696  5.242295106450074 22.379402796314245  C 5.242295106450074 22.510806511625187  5.173515641440702 22.632623886169675  5.061 22.700499999999998  L 4.318499999999999 23.124999999999996  L 5.061 23.549499999999995  C 5.182183436186917 23.61499327224966  5.25770489354992 23.741653771214104  5.25770489354992 23.879402796314235  C 5.25770489354992 24.086509577500784  5.089811674736467 24.254402796314235  4.88270489354992 24.254402796314235  C 4.814433718677426 24.254402796314235  4.7474578222503965 24.235765228429873  4.688999999999999 24.200499999999995  L 3.937499999999999 23.771499999999996  L 3.937499999999999 24.624999999999993  C 3.937499999999999 24.832106781186543  3.769606781186547 24.999999999999993  3.562499999999999 24.999999999999993  C 3.3553932188134525 24.999999999999993  3.1874999999999996 24.832106781186543  3.1874999999999996 24.624999999999993  L 3.1874999999999996 23.769999999999996  L 2.4359999999999995 24.200499999999995  C 2.377542177749598 24.235765228429877  2.3105662813225734 24.254402796314235  2.242295106450076 24.254402796314235  C 2.035188325263528 24.254402796314235  1.8672951064500756 24.086509577500784  1.8672951064500756 23.879402796314235  C 1.8672951064500756 23.7416537712141  1.9428165638130794 23.61499327224966  2.0639999999999996 23.549499999999995  L 2.8064999999999993 23.124999999999996  L 2.063999999999999 22.700499999999998  C 1.9428165638130817 22.635006727750337  1.8672951064500756 22.508346228785893  1.8672951064500756 22.370597203685758  C 1.8672951064500756 22.16349042249921  2.035188325263528 21.995597203685758  2.242295106450076 21.995597203685758  C 2.3105662813225676 21.995597203685758  2.3775421777496026 22.014234771570123  2.435999999999999 22.0495  L 3.1874999999999996 22.478499999999997  L 3.1874999999999996 21.625  Z M 6.3345 17.579500000000003  L 6.336 17.579500000000003  C 6.7054288677715785 17.765055109591923  6.855041438081198 18.214563728907827  6.6705 18.584500000000002  L 5.9205000000000005 20.084500000000002  C 5.789619485068717 20.327206561131483  5.536111800043747 20.478519587558367  5.260365206220817 20.478519587558367  C 4.846151643847722 20.478519587558367  4.510365206220817 20.142733149931463  4.510365206220817 19.728519587558367  C 4.510365206220817 19.619910634345885  4.5339538091072855 19.512597409768595  4.5794999999999995 19.414  L 5.3294999999999995 17.914  C 5.515055109591922 17.544571132228423  5.964563728907825 17.394958561918806  6.3345 17.579500000000003  Z M 9.187499999999998 21.625  C 9.187499999999998 21.41789321881345  9.35539321881345 21.25  9.5625 21.25  C 9.769606781186548 21.25  9.9375 21.41789321881345  9.9375 21.625  L 9.9375 22.48  L 10.6875 22.0495  C 10.744337261184672 22.01689060360603  10.808722547797478 21.999732345518563  10.87425 21.999732345518563  C 11.081504602674869 21.999732345518563  11.249517654481437 22.16774539732513  11.249517654481437 22.375  C 11.249517654481437 22.509434610459888  11.17760601488599 22.63359931404006  11.061 22.700499999999998  L 10.3185 23.124999999999996  L 11.061 23.549499999999995  C 11.182183436186918 23.614993272249656  11.25770489354992 23.741653771214104  11.25770489354992 23.879402796314235  C 11.25770489354992 24.086509577500784  11.089811674736469 24.254402796314235  10.88270489354992 24.254402796314235  C 10.814433718677428 24.254402796314235  10.747457822250396 24.235765228429873  10.689 24.200499999999995  L 9.937499999999998 23.771499999999996  L 9.937499999999998 24.624999999999993  C 9.937499999999998 24.832106781186543  9.769606781186546 24.999999999999993  9.562499999999998 24.999999999999993  C 9.35539321881345 24.999999999999993  9.187499999999998 24.832106781186543  9.187499999999998 24.624999999999993  L 9.187499999999998 23.769999999999996  L 8.435999999999998 24.200499999999995  C 8.377542177749598 24.235765228429877  8.310566281322572 24.254402796314235  8.242295106450076 24.254402796314235  C 8.03518832526353 24.254402796314235  7.867295106450076 24.086509577500784  7.867295106450076 23.879402796314235  C 7.867295106450076 23.741653771214104  7.942816563813078 23.61499327224966  8.063999999999998 23.549499999999995  L 8.806499999999998 23.124999999999996  L 8.063999999999998 22.700499999999998  C 7.94281656381308 22.635006727750337  7.867295106450076 22.508346228785893  7.867295106450076 22.370597203685758  C 7.867295106450076 22.16349042249921  8.03518832526353 21.995597203685758  8.242295106450076 21.995597203685758  C 8.310566281322568 21.995597203685758  8.3775421777496 22.014234771570123  8.435999999999998 22.0495  L 9.187499999999998 22.478499999999997  L 9.187499999999998 21.625  Z M 12.334500000000002 17.579500000000003  L 12.336 17.579500000000003  C 12.705428867771577 17.765055109591923  12.855041438081196 18.214563728907827  12.6705 18.584500000000002  L 11.9205 20.084500000000002  C 11.789619485068718 20.327206561131483  11.536111800043749 20.478519587558367  11.260365206220818 20.478519587558367  C 10.846151643847723 20.478519587558367  10.510365206220818 20.142733149931463  10.510365206220818 19.728519587558367  C 10.510365206220818 19.619910634345885  10.533953809107286 19.512597409768592  10.579500000000001 19.414  L 11.329500000000001 17.914  C 11.515055109591923 17.544571132228423  11.964563728907827 17.394958561918806  12.334500000000002 17.579500000000003  Z M 15.187500000000004 21.625  C 15.187500000000004 21.41789321881345  15.355393218813454 21.25  15.562500000000002 21.25  C 15.769606781186548 21.25  15.937499999999998 21.41789321881345  15.937499999999998 21.625  L 15.937499999999998 22.48  L 16.6875 22.0495  C 16.744337261184672 22.016890603606026  16.808722547797476 21.999732345518563  16.874250000000004 21.999732345518563  C 17.08150460267487 21.999732345518563  17.249517654481437 22.16774539732513  17.249517654481437 22.375  C 17.249517654481437 22.509434610459888  17.177606014885992 22.63359931404006  17.061 22.700499999999998  L 16.3185 23.124999999999996  L 17.061 23.549499999999995  C 17.182183436186925 23.614993272249656  17.257704893549935 23.741653771214104  17.257704893549935 23.879402796314242  C 17.257704893549935 24.08650957750079  17.08981167473648 24.254402796314242  16.882704893549935 24.254402796314242  C 16.814433718677435 24.254402796314242  16.747457822250404 24.235765228429877  16.689 24.200499999999995  L 15.937500000000004 23.771499999999996  L 15.937500000000004 24.624999999999993  C 15.937500000000004 24.832106781186543  15.769606781186551 24.999999999999993  15.562500000000004 24.999999999999993  C 15.355393218813454 24.999999999999993  15.187500000000004 24.832106781186543  15.187500000000004 24.624999999999993  L 15.187500000000004 23.769999999999996  L 14.436000000000003 24.200499999999995  C 14.3775421777496 24.235765228429877  14.310566281322574 24.254402796314242  14.242295106450072 24.254402796314242  C 14.035188325263523 24.254402796314242  13.867295106450072 24.08650957750079  13.867295106450072 23.879402796314242  C 13.867295106450072 23.741653771214104  13.942816563813079 23.614993272249656  14.064000000000004 23.549499999999995  L 14.806500000000003 23.124999999999996  L 14.064000000000004 22.700499999999998  C 13.942816563813079 22.635006727750337  13.867295106450072 22.50834622878589  13.867295106450072 22.370597203685755  C 13.867295106450072 22.163490422499205  14.035188325263523 21.995597203685755  14.242295106450072 21.995597203685755  C 14.310566281322568 21.995597203685755  14.377542177749604 22.014234771570116  14.436000000000003 22.0495  L 15.187500000000004 22.478499999999997  L 15.187500000000004 21.625  Z M 18.334500000000002 17.579500000000003  L 18.336 17.579500000000003  C 18.705428867771577 17.765055109591923  18.855041438081198 18.214563728907827  18.6705 18.584500000000002  L 17.9205 20.084500000000002  C 17.79785910219654 20.349990365233815  17.532082949605172 20.519980412441637  17.239634793779185 20.519980412441637  C 16.82542123140609 20.519980412441637  16.489634793779185 20.184193974814733  16.489634793779185 19.769980412441637  C 16.489634793779185 19.6457076299454  16.52051509817563 19.523382383527363  16.579500000000003 19.414  L 17.329500000000003 17.914  C 17.515055109591923 17.544571132228423  17.964563728907827 17.394958561918806  18.334500000000002 17.579500000000003  Z M 24.00514334981515 11.50000293933955  C 24.00514334981515 9.247515548418168  22.339716475697593 7.342011279862002  20.1075 7.040500000000001  C 19.41084980679725 3.528698129242073  16.32961600723235 0.9986592723499144  12.749382233978388 0.9986592723499144  C 9.752791579664908 0.9986592723499144  7.043678645524479 2.7820298264364123  5.859000000000001 5.534500000000001  C 5.659548552660307 5.5115231578477015  5.458943294424531 5.500006361308186  5.258172741002994 5.500006361308186  C 2.3586778043913283 5.500006361308186  0.008172741002993977 7.8505114246965215  0.008172741002993977 10.750006361308188  C 0.008172741002993977 13.64631015699906  2.353699713695991 15.995491287468916  5.25 16  L 19.5 16  C 19.501714449237745 16.00000195955954  19.503428899457546 16.000002939339552  19.50514334981515 16.000002939339552  C 21.990424724053717 16.000002939339552  24.00514334981515 13.98528431357812  24.00514334981515 11.50000293933955  Z " fill-rule="nonzero" fill="rgba(0, 0, 0, 1)" stroke="none" class="fill" />
    <path d="M 3.1874999999999996 21.625  C 3.1874999999999996 21.41789321881345  3.3553932188134525 21.25  3.5624999999999996 21.25  C 3.769606781186548 21.25  3.9375 21.41789321881345  3.9375 21.625  L 3.9375 22.48  L 4.689 22.0495  C 4.74376709816012 22.019901264537573  4.805041430399137 22.004402796314245  4.867295106450074 22.004402796314245  C 5.074401887636621 22.004402796314245  5.242295106450074 22.172296015127696  5.242295106450074 22.379402796314245  C 5.242295106450074 22.510806511625187  5.173515641440702 22.632623886169675  5.061 22.700499999999998  L 4.318499999999999 23.124999999999996  L 5.061 23.549499999999995  C 5.182183436186917 23.61499327224966  5.25770489354992 23.741653771214104  5.25770489354992 23.879402796314235  C 5.25770489354992 24.086509577500784  5.089811674736467 24.254402796314235  4.88270489354992 24.254402796314235  C 4.814433718677426 24.254402796314235  4.7474578222503965 24.235765228429873  4.688999999999999 24.200499999999995  L 3.937499999999999 23.771499999999996  L 3.937499999999999 24.624999999999993  C 3.937499999999999 24.832106781186543  3.769606781186547 24.999999999999993  3.562499999999999 24.999999999999993  C 3.3553932188134525 24.999999999999993  3.1874999999999996 24.832106781186543  3.1874999999999996 24.624999999999993  L 3.1874999999999996 23.769999999999996  L 2.4359999999999995 24.200499999999995  C 2.377542177749598 24.235765228429877  2.3105662813225734 24.254402796314235  2.242295106450076 24.254402796314235  C 2.035188325263528 24.254402796314235  1.8672951064500756 24.086509577500784  1.8672951064500756 23.879402796314235  C 1.8672951064500756 23.7416537712141  1.9428165638130794 23.61499327224966  2.0639999999999996 23.549499999999995  L 2.8064999999999993 23.124999999999996  L 2.063999999999999 22.700499999999998  C 1.9428165638130817 22.635006727750337  1.8672951064500756 22.508346228785893  1.8672951064500756 22.370597203685758  C 1.8672951064500756 22.16349042249921  2.035188325263528 21.995597203685758  2.242295106450076 21.995597203685758  C 2.3105662813225676 21.995597203685758  2.3775421777496026 22.014234771570123  2.435999999999999 22.0495  L 3.1874999999999996 22.478499999999997  L 3.1874999999999996 21.625  Z " stroke-width="0" stroke-dasharray="0" stroke="rgba(255, 255, 255, 0)" fill="none" class="stroke" mask="url(#Clip5227)" />
    <path d="M 6.3345 17.579500000000003  L 6.336 17.579500000000003  C 6.7054288677715785 17.765055109591923  6.855041438081198 18.214563728907827  6.6705 18.584500000000002  L 5.9205000000000005 20.084500000000002  C 5.789619485068717 20.327206561131483  5.536111800043747 20.478519587558367  5.260365206220817 20.478519587558367  C 4.846151643847722 20.478519587558367  4.510365206220817 20.142733149931463  4.510365206220817 19.728519587558367  C 4.510365206220817 19.619910634345885  4.5339538091072855 19.512597409768595  4.5794999999999995 19.414  L 5.3294999999999995 17.914  C 5.515055109591922 17.544571132228423  5.964563728907825 17.394958561918806  6.3345 17.579500000000003  Z " stroke-width="0" stroke-dasharray="0" stroke="rgba(255, 255, 255, 0)" fill="none" class="stroke" mask="url(#Clip5227)" />
    <path d="M 9.187499999999998 21.625  C 9.187499999999998 21.41789321881345  9.35539321881345 21.25  9.5625 21.25  C 9.769606781186548 21.25  9.9375 21.41789321881345  9.9375 21.625  L 9.9375 22.48  L 10.6875 22.0495  C 10.744337261184672 22.01689060360603  10.808722547797478 21.999732345518563  10.87425 21.999732345518563  C 11.081504602674869 21.999732345518563  11.249517654481437 22.16774539732513  11.249517654481437 22.375  C 11.249517654481437 22.509434610459888  11.17760601488599 22.63359931404006  11.061 22.700499999999998  L 10.3185 23.124999999999996  L 11.061 23.549499999999995  C 11.182183436186918 23.614993272249656  11.25770489354992 23.741653771214104  11.25770489354992 23.879402796314235  C 11.25770489354992 24.086509577500784  11.089811674736469 24.254402796314235  10.88270489354992 24.254402796314235  C 10.814433718677428 24.254402796314235  10.747457822250396 24.235765228429873  10.689 24.200499999999995  L 9.937499999999998 23.771499999999996  L 9.937499999999998 24.624999999999993  C 9.937499999999998 24.832106781186543  9.769606781186546 24.999999999999993  9.562499999999998 24.999999999999993  C 9.35539321881345 24.999999999999993  9.187499999999998 24.832106781186543  9.187499999999998 24.624999999999993  L 9.187499999999998 23.769999999999996  L 8.435999999999998 24.200499999999995  C 8.377542177749598 24.235765228429877  8.310566281322572 24.254402796314235  8.242295106450076 24.254402796314235  C 8.03518832526353 24.254402796314235  7.867295106450076 24.086509577500784  7.867295106450076 23.879402796314235  C 7.867295106450076 23.741653771214104  7.942816563813078 23.61499327224966  8.063999999999998 23.549499999999995  L 8.806499999999998 23.124999999999996  L 8.063999999999998 22.700499999999998  C 7.94281656381308 22.635006727750337  7.867295106450076 22.508346228785893  7.867295106450076 22.370597203685758  C 7.867295106450076 22.16349042249921  8.03518832526353 21.995597203685758  8.242295106450076 21.995597203685758  C 8.310566281322568 21.995597203685758  8.3775421777496 22.014234771570123  8.435999999999998 22.0495  L 9.187499999999998 22.478499999999997  L 9.187499999999998 21.625  Z " stroke-width="0" stroke-dasharray="0" stroke="rgba(255, 255, 255, 0)" fill="none" class="stroke" mask="url(#Clip5227)" />
    <path d="M 12.334500000000002 17.579500000000003  L 12.336 17.579500000000003  C 12.705428867771577 17.765055109591923  12.855041438081196 18.214563728907827  12.6705 18.584500000000002  L 11.9205 20.084500000000002  C 11.789619485068718 20.327206561131483  11.536111800043749 20.478519587558367  11.260365206220818 20.478519587558367  C 10.846151643847723 20.478519587558367  10.510365206220818 20.142733149931463  10.510365206220818 19.728519587558367  C 10.510365206220818 19.619910634345885  10.533953809107286 19.512597409768592  10.579500000000001 19.414  L 11.329500000000001 17.914  C 11.515055109591923 17.544571132228423  11.964563728907827 17.394958561918806  12.334500000000002 17.579500000000003  Z " stroke-width="0" stroke-dasharray="0" stroke="rgba(255, 255, 255, 0)" fill="none" class="stroke" mask="url(#Clip5227)" />
    <path d="M 15.187500000000004 21.625  C 15.187500000000004 21.41789321881345  15.355393218813454 21.25  15.562500000000002 21.25  C 15.769606781186548 21.25  15.937499999999998 21.41789321881345  15.937499999999998 21.625  L 15.937499999999998 22.48  L 16.6875 22.0495  C 16.744337261184672 22.016890603606026  16.808722547797476 21.999732345518563  16.874250000000004 21.999732345518563  C 17.08150460267487 21.999732345518563  17.249517654481437 22.16774539732513  17.249517654481437 22.375  C 17.249517654481437 22.509434610459888  17.177606014885992 22.63359931404006  17.061 22.700499999999998  L 16.3185 23.124999999999996  L 17.061 23.549499999999995  C 17.182183436186925 23.614993272249656  17.257704893549935 23.741653771214104  17.257704893549935 23.879402796314242  C 17.257704893549935 24.08650957750079  17.08981167473648 24.254402796314242  16.882704893549935 24.254402796314242  C 16.814433718677435 24.254402796314242  16.747457822250404 24.235765228429877  16.689 24.200499999999995  L 15.937500000000004 23.771499999999996  L 15.937500000000004 24.624999999999993  C 15.937500000000004 24.832106781186543  15.769606781186551 24.999999999999993  15.562500000000004 24.999999999999993  C 15.355393218813454 24.999999999999993  15.187500000000004 24.832106781186543  15.187500000000004 24.624999999999993  L 15.187500000000004 23.769999999999996  L 14.436000000000003 24.200499999999995  C 14.3775421777496 24.235765228429877  14.310566281322574 24.254402796314242  14.242295106450072 24.254402796314242  C 14.035188325263523 24.254402796314242  13.867295106450072 24.08650957750079  13.867295106450072 23.879402796314242  C 13.867295106450072 23.741653771214104  13.942816563813079 23.614993272249656  14.064000000000004 23.549499999999995  L 14.806500000000003 23.124999999999996  L 14.064000000000004 22.700499999999998  C 13.942816563813079 22.635006727750337  13.867295106450072 22.50834622878589  13.867295106450072 22.370597203685755  C 13.867295106450072 22.163490422499205  14.035188325263523 21.995597203685755  14.242295106450072 21.995597203685755  C 14.310566281322568 21.995597203685755  14.377542177749604 22.014234771570116  14.436000000000003 22.0495  L 15.187500000000004 22.478499999999997  L 15.187500000000004 21.625  Z " stroke-width="0" stroke-dasharray="0" stroke="rgba(255, 255, 255, 0)" fill="none" class="stroke" mask="url(#Clip5227)" />
    <path d="M 18.334500000000002 17.579500000000003  L 18.336 17.579500000000003  C 18.705428867771577 17.765055109591923  18.855041438081198 18.214563728907827  18.6705 18.584500000000002  L 17.9205 20.084500000000002  C 17.79785910219654 20.349990365233815  17.532082949605172 20.519980412441637  17.239634793779185 20.519980412441637  C 16.82542123140609 20.519980412441637  16.489634793779185 20.184193974814733  16.489634793779185 19.769980412441637  C 16.489634793779185 19.6457076299454  16.52051509817563 19.523382383527363  16.579500000000003 19.414  L 17.329500000000003 17.914  C 17.515055109591923 17.544571132228423  17.964563728907827 17.394958561918806  18.334500000000002 17.579500000000003  Z " stroke-width="0" stroke-dasharray="0" stroke="rgba(255, 255, 255, 0)" fill="none" class="stroke" mask="url(#Clip5227)" />
    <path d="M 24.00514334981515 11.50000293933955  C 24.00514334981515 9.247515548418168  22.339716475697593 7.342011279862002  20.1075 7.040500000000001  C 19.41084980679725 3.528698129242073  16.32961600723235 0.9986592723499144  12.749382233978388 0.9986592723499144  C 9.752791579664908 0.9986592723499144  7.043678645524479 2.7820298264364123  5.859000000000001 5.534500000000001  C 5.659548552660307 5.5115231578477015  5.458943294424531 5.500006361308186  5.258172741002994 5.500006361308186  C 2.3586778043913283 5.500006361308186  0.008172741002993977 7.8505114246965215  0.008172741002993977 10.750006361308188  C 0.008172741002993977 13.64631015699906  2.353699713695991 15.995491287468916  5.25 16  L 19.5 16  C 19.501714449237745 16.00000195955954  19.503428899457546 16.000002939339552  19.50514334981515 16.000002939339552  C 21.990424724053717 16.000002939339552  24.00514334981515 13.98528431357812  24.00514334981515 11.50000293933955  Z " stroke-width="0" stroke-dasharray="0" stroke="rgba(255, 255, 255, 0)" fill="none" class="stroke" mask="url(#Clip5227)" />
  </g>
</svg>