<?xml version="1.0" encoding="utf-8"?>
<svg version="1.1" xmlns:xlink="http://www.w3.org/1999/xlink" width="56px" height="64px" xmlns="http://www.w3.org/2000/svg">
  <defs>
    <pattern id="BGPattern" patternUnits="userSpaceOnUse" alignment="0 0" imageRepeat="None" />
    <mask fill="white" id="Clip1705">
      <path d="M 56 44.80078125  C 56 46.000000416666666  55.60026041666667 46.79947958333334  54.80078125 47.19921875  C 54.40039 48.80078125  54.40039 54.40039  54.80078125 56.40039  C 55.59961041666668 57.199219166666666  55.99935000000001 57.999349583333334  56 58.80078125  L 56 60.80078125  C 56 62.80078125  54.40039 64  52.80078125 64  L 12 64  C 5.19921875 64  0 58.80078125  0 52  L 0 12  C 0 5.19921875  5.19921875 0  12 0  L 52.80078125 0  C 54.80078125 0  56 1.19921875  56 3.19921875  L 56 44.80078125  Z M 47.59961 56  L 47.59961 48  L 12 48  C 10 48  8 49.59961  8 52  C 8 54.40039  9.59961 56  12 56  L 47.59961 56  Z M 16.634763750000005 18.0488275  C 16.26171875 19.3105475  16 20.61914  16.0019525 22.0019525  C 16.0019525 22.06640625  16.01953125 22.125  16.01953125 22.1894525  L 20.6582025 26.248047500000002  C 20.87484582461308 26.43791432844914  20.999080962900898 26.71198888176046  20.999080962900898 27.0000578711445  C 20.999080962900898 27.551974443405477  20.551916367408403 27.999524476054763  20 28  L 19.998047499999995 28  C 19.758760845165778 27.987881712691753  19.529274676972577 27.901141186512852  19.3417975 27.7519525  L 16.3925775 25.171875  C 17.8359375 31.36914  23.36328125 36  30 36  C 36.63671875 36  42.1640625 31.36914  43.609375 25.171875  L 40.66015625 27.7519525  C 40.47760262603524 27.910660084848516  40.2438490130012 27.998057939083797  40.0019525 27.998047500000002  L 39.99999999999999 27.998047500000002  C 39.71578267721674 27.982323951343606  39.44765236185486 27.86114243120216  39.2480475 27.658202499999998  C 39.09912701048724 27.469823134809012  39.01244549351372 27.239810773564656  39 27  C 39.01565262057707 26.715367502825636  39.13764009369559 26.446995775764577  39.3417975 26.2480475  L 43.98046875 22.189452499999998  C 43.9824225 22.1230475  44 22.064452499999998  44 21.999999999999996  C 44 20.619139999999998  43.73828125 19.3105475  43.36718625 18.050781249999996  L 40.70898375 20.707031249999996  C 40.52130861661283 20.894898091734138  40.26665142154697 21.000456715117163  40.0011031097183 21.000456715117163  C 39.44849596366479 21.000456715117163  39.0005193597183 20.552480111170674  39.0005193597183 19.999872965117167  C 39.0005193597183 19.734803062142348  39.105699036981385 19.480564347093857  39.29296875 19.292968749999996  L 42.59570250000001 15.992187499999998  C 41.34624513578163 13.390354297445896  39.3219350182165 11.239141004122041  36.80078125 9.833984999999997  C 38.92177480388104 13.224375693590659  38.16596582397545 17.66601286343712  35.04296874999999 20.164062499999993  C 36.29841717272684 21.465145771686064  37.00000759254553 23.202631166183778  37.00000759254553 25.010660043715514  C 37.00000759254553 28.31323480242194  34.68535484822707 31.163792894503235  31.453125 31.8417975  L 31.27539 27.556639999999998  L 32.85937499999999 28.634764999999994  C 32.942278331097356 28.69119132342474  33.04034196387311 28.721155211217333  33.140625 28.720702499999998  C 33.141700232647125 28.72070947081423  33.14277548506525 28.720712956248814  33.143850740308295 28.720712956248814  C 33.41865313434941 28.720712956248814  33.64142449030829 28.497941600289934  33.64142449030829 28.223139206248813  C 33.64142449030829 28.13282148875221  33.61684143332977 28.044207009319557  33.57031125 27.9667975  L 32.50390625 26.177735  L 34.7421875 25.712889999999998  C 34.97431256571865 25.664416412751937  35.14062303847716 25.45978856495429  35.14062303847716 25.222656249999996  C 35.14062303847716 24.985523935045705  34.97431256571865 24.78089608724806  34.7421875 24.7324225  L 32.50390625 24.267577499999998  L 33.57031125 22.478514999999998  C 33.616841433329775 22.401105490680425  33.64142449030829 22.312491011247793  33.64142449030829 22.222173293751176  C 33.64142449030829 21.947370899710055  33.41865313434941 21.72459954375118  33.143850740308295 21.72459954375118  C 33.14277548506516 21.72459954375118  33.14170023264722 21.72460302918576  33.140625 21.724609999999995  C 33.04130247448474 21.728497454481555  32.94456656498771 21.757383656932117  32.859375 21.80859375  L 31.0859375 23.015625  L 30.499999999999996 8.978515  C 30.48824075632662 8.710908913401887  30.267864326471685 8.500003681266596  30.000000000000007 8.500003681266596  C 29.732135673528326 8.500003681266596  29.51175924367338 8.710908913401886  29.5 8.978515  L 28.921875 22.8300775  L 27.421875 21.810547500000002  C 27.338984523353385 21.754313780281528  27.241124703407134 21.72425176566107  27.140959528061217 21.72425176566107  C 26.864610046364632 21.72425176566107  26.640584528061215 21.948277283964487  26.640584528061215 22.22462676566107  C 26.640584528061215 22.314684492255527  26.664889689966067 22.4030729592333  26.71093625 22.480468750000004  L 27.77734375 24.269531250000004  L 25.539062500000004 24.734375000000004  C 25.307038931237898 24.782352022122176  25.140621954832103 24.986700587601494  25.140621954832103 25.223632500000004  C 25.140621954832103 25.460564412398515  25.307038931237898 25.66491297787783  25.5390625 25.71289  L 27.77734375 26.1796875  L 26.71093625 27.966797500000002  C 26.66839546076074 28.045646549450304  26.64435158967253 28.133140866530297  26.640625000000004 28.222656250000004  C 26.648070664165413 28.358426353408067  26.703437095555273 28.48715330638949  26.796875 28.585937500000004  C 26.889838587881144 28.673666998128155  27.012802128122804 28.722572951633357  27.140625 28.72265625  C 27.240768215768046 28.72217337561649  27.338564685928585 28.692291120845216  27.421875 28.63671875  L 28.716796250000005 27.75586  L 28.546874999999993 31.845702499999998  C 25.31436830401848 31.166381174143016  22.999990030117143 28.31507477808386  22.999990030117143 25.011958521678483  C 22.999990030117143 23.203545359619866  23.701556954841067 21.465654778289185  24.957031250000004 20.1640625  C 21.832958971568633 17.66562926868149  21.07783232601207 13.222227118397255  23.20117125 9.83203125  C 20.67988417257646 11.237630628936662  18.65506297799727 13.388662257794808  17.40429625 15.990235  L 20.707030000000003 19.292968750000004  C 20.893476613006435 19.4803412822829  20.998143741746674 19.733917878327972  20.998143741746674 19.99824874174667  C 20.998143741746674 20.550476192034672  20.550474942034672 20.998144991746674  19.998247491746675 20.998144991746674  C 19.73391662832797 20.998144991746674  19.480340032282903 20.89347786300643  19.292967500000003 20.70703125  L 16.634763750000005 18.0488275  Z " fill-rule="evenodd" />
    </mask>
  </defs>
  <g>
    <path d="M 56 44.80078125  C 56 46.000000416666666  55.60026041666667 46.79947958333334  54.80078125 47.19921875  C 54.40039 48.80078125  54.40039 54.40039  54.80078125 56.40039  C 55.59961041666668 57.199219166666666  55.99935000000001 57.999349583333334  56 58.80078125  L 56 60.80078125  C 56 62.80078125  54.40039 64  52.80078125 64  L 12 64  C 5.19921875 64  0 58.80078125  0 52  L 0 12  C 0 5.19921875  5.19921875 0  12 0  L 52.80078125 0  C 54.80078125 0  56 1.19921875  56 3.19921875  L 56 44.80078125  Z M 47.59961 56  L 47.59961 48  L 12 48  C 10 48  8 49.59961  8 52  C 8 54.40039  9.59961 56  12 56  L 47.59961 56  Z M 16.634763750000005 18.0488275  C 16.26171875 19.3105475  16 20.61914  16.0019525 22.0019525  C 16.0019525 22.06640625  16.01953125 22.125  16.01953125 22.1894525  L 20.6582025 26.248047500000002  C 20.87484582461308 26.43791432844914  20.999080962900898 26.71198888176046  20.999080962900898 27.0000578711445  C 20.999080962900898 27.551974443405477  20.551916367408403 27.999524476054763  20 28  L 19.998047499999995 28  C 19.758760845165778 27.987881712691753  19.529274676972577 27.901141186512852  19.3417975 27.7519525  L 16.3925775 25.171875  C 17.8359375 31.36914  23.36328125 36  30 36  C 36.63671875 36  42.1640625 31.36914  43.609375 25.171875  L 40.66015625 27.7519525  C 40.47760262603524 27.910660084848516  40.2438490130012 27.998057939083797  40.0019525 27.998047500000002  L 39.99999999999999 27.998047500000002  C 39.71578267721674 27.982323951343606  39.44765236185486 27.86114243120216  39.2480475 27.658202499999998  C 39.09912701048724 27.469823134809012  39.01244549351372 27.239810773564656  39 27  C 39.01565262057707 26.715367502825636  39.13764009369559 26.446995775764577  39.3417975 26.2480475  L 43.98046875 22.189452499999998  C 43.9824225 22.1230475  44 22.064452499999998  44 21.999999999999996  C 44 20.619139999999998  43.73828125 19.3105475  43.36718625 18.050781249999996  L 40.70898375 20.707031249999996  C 40.52130861661283 20.894898091734138  40.26665142154697 21.000456715117163  40.0011031097183 21.000456715117163  C 39.44849596366479 21.000456715117163  39.0005193597183 20.552480111170674  39.0005193597183 19.999872965117167  C 39.0005193597183 19.734803062142348  39.105699036981385 19.480564347093857  39.29296875 19.292968749999996  L 42.59570250000001 15.992187499999998  C 41.34624513578163 13.390354297445896  39.3219350182165 11.239141004122041  36.80078125 9.833984999999997  C 38.92177480388104 13.224375693590659  38.16596582397545 17.66601286343712  35.04296874999999 20.164062499999993  C 36.29841717272684 21.465145771686064  37.00000759254553 23.202631166183778  37.00000759254553 25.010660043715514  C 37.00000759254553 28.31323480242194  34.68535484822707 31.163792894503235  31.453125 31.8417975  L 31.27539 27.556639999999998  L 32.85937499999999 28.634764999999994  C 32.942278331097356 28.69119132342474  33.04034196387311 28.721155211217333  33.140625 28.720702499999998  C 33.141700232647125 28.72070947081423  33.14277548506525 28.720712956248814  33.143850740308295 28.720712956248814  C 33.41865313434941 28.720712956248814  33.64142449030829 28.497941600289934  33.64142449030829 28.223139206248813  C 33.64142449030829 28.13282148875221  33.61684143332977 28.044207009319557  33.57031125 27.9667975  L 32.50390625 26.177735  L 34.7421875 25.712889999999998  C 34.97431256571865 25.664416412751937  35.14062303847716 25.45978856495429  35.14062303847716 25.222656249999996  C 35.14062303847716 24.985523935045705  34.97431256571865 24.78089608724806  34.7421875 24.7324225  L 32.50390625 24.267577499999998  L 33.57031125 22.478514999999998  C 33.616841433329775 22.401105490680425  33.64142449030829 22.312491011247793  33.64142449030829 22.222173293751176  C 33.64142449030829 21.947370899710055  33.41865313434941 21.72459954375118  33.143850740308295 21.72459954375118  C 33.14277548506516 21.72459954375118  33.14170023264722 21.72460302918576  33.140625 21.724609999999995  C 33.04130247448474 21.728497454481555  32.94456656498771 21.757383656932117  32.859375 21.80859375  L 31.0859375 23.015625  L 30.499999999999996 8.978515  C 30.48824075632662 8.710908913401887  30.267864326471685 8.500003681266596  30.000000000000007 8.500003681266596  C 29.732135673528326 8.500003681266596  29.51175924367338 8.710908913401886  29.5 8.978515  L 28.921875 22.8300775  L 27.421875 21.810547500000002  C 27.338984523353385 21.754313780281528  27.241124703407134 21.72425176566107  27.140959528061217 21.72425176566107  C 26.864610046364632 21.72425176566107  26.640584528061215 21.948277283964487  26.640584528061215 22.22462676566107  C 26.640584528061215 22.314684492255527  26.664889689966067 22.4030729592333  26.71093625 22.480468750000004  L 27.77734375 24.269531250000004  L 25.539062500000004 24.734375000000004  C 25.307038931237898 24.782352022122176  25.140621954832103 24.986700587601494  25.140621954832103 25.223632500000004  C 25.140621954832103 25.460564412398515  25.307038931237898 25.66491297787783  25.5390625 25.71289  L 27.77734375 26.1796875  L 26.71093625 27.966797500000002  C 26.66839546076074 28.045646549450304  26.64435158967253 28.133140866530297  26.640625000000004 28.222656250000004  C 26.648070664165413 28.358426353408067  26.703437095555273 28.48715330638949  26.796875 28.585937500000004  C 26.889838587881144 28.673666998128155  27.012802128122804 28.722572951633357  27.140625 28.72265625  C 27.240768215768046 28.72217337561649  27.338564685928585 28.692291120845216  27.421875 28.63671875  L 28.716796250000005 27.75586  L 28.546874999999993 31.845702499999998  C 25.31436830401848 31.166381174143016  22.999990030117143 28.31507477808386  22.999990030117143 25.011958521678483  C 22.999990030117143 23.203545359619866  23.701556954841067 21.465654778289185  24.957031250000004 20.1640625  C 21.832958971568633 17.66562926868149  21.07783232601207 13.222227118397255  23.20117125 9.83203125  C 20.67988417257646 11.237630628936662  18.65506297799727 13.388662257794808  17.40429625 15.990235  L 20.707030000000003 19.292968750000004  C 20.893476613006435 19.4803412822829  20.998143741746674 19.733917878327972  20.998143741746674 19.99824874174667  C 20.998143741746674 20.550476192034672  20.550474942034672 20.998144991746674  19.998247491746675 20.998144991746674  C 19.73391662832797 20.998144991746674  19.480340032282903 20.89347786300643  19.292967500000003 20.70703125  L 16.634763750000005 18.0488275  Z " fill-rule="nonzero" fill="rgba(0, 0, 0, 1)" stroke="none" class="fill" />
    <path d="M 56 44.80078125  C 56 46.000000416666666  55.60026041666667 46.79947958333334  54.80078125 47.19921875  C 54.40039 48.80078125  54.40039 54.40039  54.80078125 56.40039  C 55.59961041666668 57.199219166666666  55.99935000000001 57.999349583333334  56 58.80078125  L 56 60.80078125  C 56 62.80078125  54.40039 64  52.80078125 64  L 12 64  C 5.19921875 64  0 58.80078125  0 52  L 0 12  C 0 5.19921875  5.19921875 0  12 0  L 52.80078125 0  C 54.80078125 0  56 1.19921875  56 3.19921875  L 56 44.80078125  Z " stroke-width="0" stroke-dasharray="0" stroke="rgba(255, 255, 255, 0)" fill="none" class="stroke" mask="url(#Clip1705)" />
    <path d="M 47.59961 56  L 47.59961 48  L 12 48  C 10 48  8 49.59961  8 52  C 8 54.40039  9.59961 56  12 56  L 47.59961 56  Z " stroke-width="0" stroke-dasharray="0" stroke="rgba(255, 255, 255, 0)" fill="none" class="stroke" mask="url(#Clip1705)" />
    <path d="M 16.634763750000005 18.0488275  C 16.26171875 19.3105475  16 20.61914  16.0019525 22.0019525  C 16.0019525 22.06640625  16.01953125 22.125  16.01953125 22.1894525  L 20.6582025 26.248047500000002  C 20.87484582461308 26.43791432844914  20.999080962900898 26.71198888176046  20.999080962900898 27.0000578711445  C 20.999080962900898 27.551974443405477  20.551916367408403 27.999524476054763  20 28  L 19.998047499999995 28  C 19.758760845165778 27.987881712691753  19.529274676972577 27.901141186512852  19.3417975 27.7519525  L 16.3925775 25.171875  C 17.8359375 31.36914  23.36328125 36  30 36  C 36.63671875 36  42.1640625 31.36914  43.609375 25.171875  L 40.66015625 27.7519525  C 40.47760262603524 27.910660084848516  40.2438490130012 27.998057939083797  40.0019525 27.998047500000002  L 39.99999999999999 27.998047500000002  C 39.71578267721674 27.982323951343606  39.44765236185486 27.86114243120216  39.2480475 27.658202499999998  C 39.09912701048724 27.469823134809012  39.01244549351372 27.239810773564656  39 27  C 39.01565262057707 26.715367502825636  39.13764009369559 26.446995775764577  39.3417975 26.2480475  L 43.98046875 22.189452499999998  C 43.9824225 22.1230475  44 22.064452499999998  44 21.999999999999996  C 44 20.619139999999998  43.73828125 19.3105475  43.36718625 18.050781249999996  L 40.70898375 20.707031249999996  C 40.52130861661283 20.894898091734138  40.26665142154697 21.000456715117163  40.0011031097183 21.000456715117163  C 39.44849596366479 21.000456715117163  39.0005193597183 20.552480111170674  39.0005193597183 19.999872965117167  C 39.0005193597183 19.734803062142348  39.105699036981385 19.480564347093857  39.29296875 19.292968749999996  L 42.59570250000001 15.992187499999998  C 41.34624513578163 13.390354297445896  39.3219350182165 11.239141004122041  36.80078125 9.833984999999997  C 38.92177480388104 13.224375693590659  38.16596582397545 17.66601286343712  35.04296874999999 20.164062499999993  C 36.29841717272684 21.465145771686064  37.00000759254553 23.202631166183778  37.00000759254553 25.010660043715514  C 37.00000759254553 28.31323480242194  34.68535484822707 31.163792894503235  31.453125 31.8417975  L 31.27539 27.556639999999998  L 32.85937499999999 28.634764999999994  C 32.942278331097356 28.69119132342474  33.04034196387311 28.721155211217333  33.140625 28.720702499999998  C 33.141700232647125 28.72070947081423  33.14277548506525 28.720712956248814  33.143850740308295 28.720712956248814  C 33.41865313434941 28.720712956248814  33.64142449030829 28.497941600289934  33.64142449030829 28.223139206248813  C 33.64142449030829 28.13282148875221  33.61684143332977 28.044207009319557  33.57031125 27.9667975  L 32.50390625 26.177735  L 34.7421875 25.712889999999998  C 34.97431256571865 25.664416412751937  35.14062303847716 25.45978856495429  35.14062303847716 25.222656249999996  C 35.14062303847716 24.985523935045705  34.97431256571865 24.78089608724806  34.7421875 24.7324225  L 32.50390625 24.267577499999998  L 33.57031125 22.478514999999998  C 33.616841433329775 22.401105490680425  33.64142449030829 22.312491011247793  33.64142449030829 22.222173293751176  C 33.64142449030829 21.947370899710055  33.41865313434941 21.72459954375118  33.143850740308295 21.72459954375118  C 33.14277548506516 21.72459954375118  33.14170023264722 21.72460302918576  33.140625 21.724609999999995  C 33.04130247448474 21.728497454481555  32.94456656498771 21.757383656932117  32.859375 21.80859375  L 31.0859375 23.015625  L 30.499999999999996 8.978515  C 30.48824075632662 8.710908913401887  30.267864326471685 8.500003681266596  30.000000000000007 8.500003681266596  C 29.732135673528326 8.500003681266596  29.51175924367338 8.710908913401886  29.5 8.978515  L 28.921875 22.8300775  L 27.421875 21.810547500000002  C 27.338984523353385 21.754313780281528  27.241124703407134 21.72425176566107  27.140959528061217 21.72425176566107  C 26.864610046364632 21.72425176566107  26.640584528061215 21.948277283964487  26.640584528061215 22.22462676566107  C 26.640584528061215 22.314684492255527  26.664889689966067 22.4030729592333  26.71093625 22.480468750000004  L 27.77734375 24.269531250000004  L 25.539062500000004 24.734375000000004  C 25.307038931237898 24.782352022122176  25.140621954832103 24.986700587601494  25.140621954832103 25.223632500000004  C 25.140621954832103 25.460564412398515  25.307038931237898 25.66491297787783  25.5390625 25.71289  L 27.77734375 26.1796875  L 26.71093625 27.966797500000002  C 26.66839546076074 28.045646549450304  26.64435158967253 28.133140866530297  26.640625000000004 28.222656250000004  C 26.648070664165413 28.358426353408067  26.703437095555273 28.48715330638949  26.796875 28.585937500000004  C 26.889838587881144 28.673666998128155  27.012802128122804 28.722572951633357  27.140625 28.72265625  C 27.240768215768046 28.72217337561649  27.338564685928585 28.692291120845216  27.421875 28.63671875  L 28.716796250000005 27.75586  L 28.546874999999993 31.845702499999998  C 25.31436830401848 31.166381174143016  22.999990030117143 28.31507477808386  22.999990030117143 25.011958521678483  C 22.999990030117143 23.203545359619866  23.701556954841067 21.465654778289185  24.957031250000004 20.1640625  C 21.832958971568633 17.66562926868149  21.07783232601207 13.222227118397255  23.20117125 9.83203125  C 20.67988417257646 11.237630628936662  18.65506297799727 13.388662257794808  17.40429625 15.990235  L 20.707030000000003 19.292968750000004  C 20.893476613006435 19.4803412822829  20.998143741746674 19.733917878327972  20.998143741746674 19.99824874174667  C 20.998143741746674 20.550476192034672  20.550474942034672 20.998144991746674  19.998247491746675 20.998144991746674  C 19.73391662832797 20.998144991746674  19.480340032282903 20.89347786300643  19.292967500000003 20.70703125  L 16.634763750000005 18.0488275  Z " stroke-width="0" stroke-dasharray="0" stroke="rgba(255, 255, 255, 0)" fill="none" class="stroke" mask="url(#Clip1705)" />
  </g>
</svg>