<?xml version="1.0" encoding="utf-8"?>
<svg version="1.1" xmlns:xlink="http://www.w3.org/1999/xlink" width="50px" height="45px" xmlns="http://www.w3.org/2000/svg">
  <defs>
    <pattern id="BGPattern" patternUnits="userSpaceOnUse" alignment="0 0" imageRepeat="None" />
    <mask fill="white" id="Clip2105">
      <path d="M 49.88814878892734 22.331314878892726  C 50.07897923875433 23.05121107266433  49.1592560553633 23.870501730103797  48.270847750865045 23.151470588235266  C 43.82171280276816 19.239965397923868  38.96531141868513 19.37136678200693  34.55397923875432 25.809861591695494  C 34.09567474048441 26.489878892733543  33.26453287197231 26.429671280276807  32.84671280276817 25.809861591695494  C 32.6319204152249 25.49636678200693  30.059688581314877 20.54965397923877  25 20.54965397923877  C 21.041003460207605 20.54965397923877  18.897750865051904 23.264013840830447  17.153200692041537 25.809861591695494  C 16.735467128027693 26.429671280276807  15.904411764705884 26.489878892733543  15.446107266435973 25.809861591695494  C 11.042647058823519 19.383823529411757  6.2235294117647015 19.20034602076123  1.7292387543252514 23.151470588235266  C 0.8460207612456827 23.866349480968836  -0.07975778546713741 23.05553633217994  0.11193771626298599 22.331314878892726  C 2.867301038062294 11.641262975778544  13.798961937716255 5.5892733564014065  25.00008650519032 5.5892733564014065  C 36.14134948096887 5.5892733564014065  47.192647058823525 11.641262975778544  49.88814878892734 22.331314878892726  Z M 27 22.602768166089962  C 25.879238754325257 21.66799307958479  23.83866782006919 21.7604671280277  23 22.577941176470574  L 23 35.98615916955015  C 22.231833910034595 37.51254325259515  20.990051903114193 38.754325259515554  19.46366782006919 38.754325259515554  C 17.937283737024217 38.754325259515554  16.695501730103814 37.51254325259515  16.695501730103814 35.98615916955015  C 16.695501730103814 34.45735294117645  15.456141868512105 33.217993079584744  13.927335640138407 33.217993079584744  C 12.398529411764713 33.217993079584744  11.159169550173004 34.45735294117645  11.159169550173004 35.98615916955015  C 11.159169550173004 40.5653114186851  14.884515570934271 44.29065743944636  19.46366782006919 44.29065743944636  C 24.04282006920414 44.29065743944636  27.76816608996541 40.5653114186851  27 35.98615916955015  L 27 22.602768166089962  Z M 22.231833910034595 4.324134948096912  C 24.073870678508456 4.16533882395197  25.926164102215438 4.165541418545217  27.76816608996541 4.324740484429071  L 27.76816608996541 2.768166089965405  C 27.76816608996541 1.2393598615917085  26.528806228373696 0  25 0  C 23.471193771626304 0  22.231833910034595 1.2393598615917085  22.231833910034595 2.768166089965405  L 22.231833910034595 4.324134948096912  Z " fill-rule="evenodd" />
    </mask>
  </defs>
  <g>
    <path d="M 49.88814878892734 22.331314878892726  C 50.07897923875433 23.05121107266433  49.1592560553633 23.870501730103797  48.270847750865045 23.151470588235266  C 43.82171280276816 19.239965397923868  38.96531141868513 19.37136678200693  34.55397923875432 25.809861591695494  C 34.09567474048441 26.489878892733543  33.26453287197231 26.429671280276807  32.84671280276817 25.809861591695494  C 32.6319204152249 25.49636678200693  30.059688581314877 20.54965397923877  25 20.54965397923877  C 21.041003460207605 20.54965397923877  18.897750865051904 23.264013840830447  17.153200692041537 25.809861591695494  C 16.735467128027693 26.429671280276807  15.904411764705884 26.489878892733543  15.446107266435973 25.809861591695494  C 11.042647058823519 19.383823529411757  6.2235294117647015 19.20034602076123  1.7292387543252514 23.151470588235266  C 0.8460207612456827 23.866349480968836  -0.07975778546713741 23.05553633217994  0.11193771626298599 22.331314878892726  C 2.867301038062294 11.641262975778544  13.798961937716255 5.5892733564014065  25.00008650519032 5.5892733564014065  C 36.14134948096887 5.5892733564014065  47.192647058823525 11.641262975778544  49.88814878892734 22.331314878892726  Z M 27 22.602768166089962  C 25.879238754325257 21.66799307958479  23.83866782006919 21.7604671280277  23 22.577941176470574  L 23 35.98615916955015  C 22.231833910034595 37.51254325259515  20.990051903114193 38.754325259515554  19.46366782006919 38.754325259515554  C 17.937283737024217 38.754325259515554  16.695501730103814 37.51254325259515  16.695501730103814 35.98615916955015  C 16.695501730103814 34.45735294117645  15.456141868512105 33.217993079584744  13.927335640138407 33.217993079584744  C 12.398529411764713 33.217993079584744  11.159169550173004 34.45735294117645  11.159169550173004 35.98615916955015  C 11.159169550173004 40.5653114186851  14.884515570934271 44.29065743944636  19.46366782006919 44.29065743944636  C 24.04282006920414 44.29065743944636  27.76816608996541 40.5653114186851  27 35.98615916955015  L 27 22.602768166089962  Z M 22.231833910034595 4.324134948096912  C 24.073870678508456 4.16533882395197  25.926164102215438 4.165541418545217  27.76816608996541 4.324740484429071  L 27.76816608996541 2.768166089965405  C 27.76816608996541 1.2393598615917085  26.528806228373696 0  25 0  C 23.471193771626304 0  22.231833910034595 1.2393598615917085  22.231833910034595 2.768166089965405  L 22.231833910034595 4.324134948096912  Z " fill-rule="nonzero" fill="rgba(0, 0, 0, 1)" stroke="none" class="fill" />
    <path d="M 49.88814878892734 22.331314878892726  C 50.07897923875433 23.05121107266433  49.1592560553633 23.870501730103797  48.270847750865045 23.151470588235266  C 43.82171280276816 19.239965397923868  38.96531141868513 19.37136678200693  34.55397923875432 25.809861591695494  C 34.09567474048441 26.489878892733543  33.26453287197231 26.429671280276807  32.84671280276817 25.809861591695494  C 32.6319204152249 25.49636678200693  30.059688581314877 20.54965397923877  25 20.54965397923877  C 21.041003460207605 20.54965397923877  18.897750865051904 23.264013840830447  17.153200692041537 25.809861591695494  C 16.735467128027693 26.429671280276807  15.904411764705884 26.489878892733543  15.446107266435973 25.809861591695494  C 11.042647058823519 19.383823529411757  6.2235294117647015 19.20034602076123  1.7292387543252514 23.151470588235266  C 0.8460207612456827 23.866349480968836  -0.07975778546713741 23.05553633217994  0.11193771626298599 22.331314878892726  C 2.867301038062294 11.641262975778544  13.798961937716255 5.5892733564014065  25.00008650519032 5.5892733564014065  C 36.14134948096887 5.5892733564014065  47.192647058823525 11.641262975778544  49.88814878892734 22.331314878892726  Z " stroke-width="0" stroke-dasharray="0" stroke="rgba(255, 255, 255, 0)" fill="none" class="stroke" mask="url(#Clip2105)" />
    <path d="M 27 22.602768166089962  C 25.879238754325257 21.66799307958479  23.83866782006919 21.7604671280277  23 22.577941176470574  L 23 35.98615916955015  C 22.231833910034595 37.51254325259515  20.990051903114193 38.754325259515554  19.46366782006919 38.754325259515554  C 17.937283737024217 38.754325259515554  16.695501730103814 37.51254325259515  16.695501730103814 35.98615916955015  C 16.695501730103814 34.45735294117645  15.456141868512105 33.217993079584744  13.927335640138407 33.217993079584744  C 12.398529411764713 33.217993079584744  11.159169550173004 34.45735294117645  11.159169550173004 35.98615916955015  C 11.159169550173004 40.5653114186851  14.884515570934271 44.29065743944636  19.46366782006919 44.29065743944636  C 24.04282006920414 44.29065743944636  27.76816608996541 40.5653114186851  27 35.98615916955015  L 27 22.602768166089962  Z " stroke-width="0" stroke-dasharray="0" stroke="rgba(255, 255, 255, 0)" fill="none" class="stroke" mask="url(#Clip2105)" />
    <path d="M 22.231833910034595 4.324134948096912  C 24.073870678508456 4.16533882395197  25.926164102215438 4.165541418545217  27.76816608996541 4.324740484429071  L 27.76816608996541 2.768166089965405  C 27.76816608996541 1.2393598615917085  26.528806228373696 0  25 0  C 23.471193771626304 0  22.231833910034595 1.2393598615917085  22.231833910034595 2.768166089965405  L 22.231833910034595 4.324134948096912  Z " stroke-width="0" stroke-dasharray="0" stroke="rgba(255, 255, 255, 0)" fill="none" class="stroke" mask="url(#Clip2105)" />
  </g>
</svg>