<?xml version="1.0" encoding="utf-8"?>
<svg version="1.1" xmlns:xlink="http://www.w3.org/1999/xlink" width="24px" height="18px" xmlns="http://www.w3.org/2000/svg">
  <defs>
    <pattern id="BGPattern" patternUnits="userSpaceOnUse" alignment="0 0" imageRepeat="None" />
    <mask fill="white" id="Clip4737">
      <path d="M 0 15.75  L 0 2.249999999999999  C 0 1.0073593128807143  1.0073593128807148 0  2.25 0  L 21.75 0  C 22.992640687119284 0  24 1.0073593128807143  24 2.25  L 24 15.749999999999996  C 24 16.992640687119284  22.992640687119284 17.999999999999996  21.75 18  L 2.25 17.999999999999996  C 1.0073593128807148 17.999999999999996  0 16.992640687119284  0 15.75  Z M 21.75 1.5  L 2.25 1.5  C 1.835786437626905 1.5  1.5 1.835786437626905  1.5 2.25  L 1.5 15.75  C 1.5 16.164213562373096  1.835786437626905 16.5  2.25 16.5  L 21.75 16.5  C 22.164213562373096 16.5  22.5 16.164213562373096  22.5 15.75  L 22.5 2.25  C 22.5 1.835786437626905  22.164213562373096 1.5  21.75 1.5  Z " fill-rule="evenodd" />
    </mask>
  </defs>
  <g>
    <path d="M 0 15.75  L 0 2.249999999999999  C 0 1.0073593128807143  1.0073593128807148 0  2.25 0  L 21.75 0  C 22.992640687119284 0  24 1.0073593128807143  24 2.25  L 24 15.749999999999996  C 24 16.992640687119284  22.992640687119284 17.999999999999996  21.75 18  L 2.25 17.999999999999996  C 1.0073593128807148 17.999999999999996  0 16.992640687119284  0 15.75  Z M 21.75 1.5  L 2.25 1.5  C 1.835786437626905 1.5  1.5 1.835786437626905  1.5 2.25  L 1.5 15.75  C 1.5 16.164213562373096  1.835786437626905 16.5  2.25 16.5  L 21.75 16.5  C 22.164213562373096 16.5  22.5 16.164213562373096  22.5 15.75  L 22.5 2.25  C 22.5 1.835786437626905  22.164213562373096 1.5  21.75 1.5  Z " fill-rule="nonzero" fill="rgba(0, 0, 0, 1)" stroke="none" class="fill" />
    <path d="M 0 15.75  L 0 2.249999999999999  C 0 1.0073593128807143  1.0073593128807148 0  2.25 0  L 21.75 0  C 22.992640687119284 0  24 1.0073593128807143  24 2.25  L 24 15.749999999999996  C 24 16.992640687119284  22.992640687119284 17.999999999999996  21.75 18  L 2.25 17.999999999999996  C 1.0073593128807148 17.999999999999996  0 16.992640687119284  0 15.75  Z " stroke-width="0" stroke-dasharray="0" stroke="rgba(255, 255, 255, 0)" fill="none" class="stroke" mask="url(#Clip4737)" />
    <path d="M 21.75 1.5  L 2.25 1.5  C 1.835786437626905 1.5  1.5 1.835786437626905  1.5 2.25  L 1.5 15.75  C 1.5 16.164213562373096  1.835786437626905 16.5  2.25 16.5  L 21.75 16.5  C 22.164213562373096 16.5  22.5 16.164213562373096  22.5 15.75  L 22.5 2.25  C 22.5 1.835786437626905  22.164213562373096 1.5  21.75 1.5  Z " stroke-width="0" stroke-dasharray="0" stroke="rgba(255, 255, 255, 0)" fill="none" class="stroke" mask="url(#Clip4737)" />
  </g>
</svg>