<?xml version="1.0" encoding="utf-8"?>
<svg version="1.1" xmlns:xlink="http://www.w3.org/1999/xlink" width="50px" height="50px" xmlns="http://www.w3.org/2000/svg">
  <defs>
    <pattern id="BGPattern" patternUnits="userSpaceOnUse" alignment="0 0" imageRepeat="None" />
    <mask fill="white" id="Clip761">
      <path d="M 49.52008928571428 23.136160714285722  C 49.53125 10.357142857142833  38.44866071428572 0  24.776785714285722 0  C 1.5513392857142776 0  -8.872767857142861 27.455357142857167  9.21875 41.13839285714289  L 9.21875 50  L 17.667410714285722 45.3125  C 33.537946428571445 49.75446428571428  49.52008928571428 38.62723214285717  49.52008928571428 23.136160714285722  Z M 40.90401785714286 16.696428571428555  L 27.38839285714286 31.037946428571445  L 20.98214285714286 24.386160714285722  L 8.660714285714278 31.205357142857164  L 22.176339285714278 16.863839285714278  L 28.582589285714278 23.515625  L 40.90401785714286 16.696428571428555  Z " fill-rule="evenodd" />
    </mask>
  </defs>
  <g>
    <path d="M 49.52008928571428 23.136160714285722  C 49.53125 10.357142857142833  38.44866071428572 0  24.776785714285722 0  C 1.5513392857142776 0  -8.872767857142861 27.455357142857167  9.21875 41.13839285714289  L 9.21875 50  L 17.667410714285722 45.3125  C 33.537946428571445 49.75446428571428  49.52008928571428 38.62723214285717  49.52008928571428 23.136160714285722  Z M 40.90401785714286 16.696428571428555  L 27.38839285714286 31.037946428571445  L 20.98214285714286 24.386160714285722  L 8.660714285714278 31.205357142857164  L 22.176339285714278 16.863839285714278  L 28.582589285714278 23.515625  L 40.90401785714286 16.696428571428555  Z " fill-rule="nonzero" fill="rgba(0, 0, 0, 1)" stroke="none" class="fill" />
    <path d="M 49.52008928571428 23.136160714285722  C 49.53125 10.357142857142833  38.44866071428572 0  24.776785714285722 0  C 1.5513392857142776 0  -8.872767857142861 27.455357142857167  9.21875 41.13839285714289  L 9.21875 50  L 17.667410714285722 45.3125  C 33.537946428571445 49.75446428571428  49.52008928571428 38.62723214285717  49.52008928571428 23.136160714285722  Z " stroke-width="0" stroke-dasharray="0" stroke="rgba(255, 255, 255, 0)" fill="none" class="stroke" mask="url(#Clip761)" />
    <path d="M 40.90401785714286 16.696428571428555  L 27.38839285714286 31.037946428571445  L 20.98214285714286 24.386160714285722  L 8.660714285714278 31.205357142857164  L 22.176339285714278 16.863839285714278  L 28.582589285714278 23.515625  L 40.90401785714286 16.696428571428555  Z " stroke-width="0" stroke-dasharray="0" stroke="rgba(255, 255, 255, 0)" fill="none" class="stroke" mask="url(#Clip761)" />
  </g>
</svg>