<?xml version="1.0" encoding="utf-8"?>
<svg version="1.1" xmlns:xlink="http://www.w3.org/1999/xlink" width="36px" height="50px" xmlns="http://www.w3.org/2000/svg">
  <defs>
    <pattern id="BGPattern" patternUnits="userSpaceOnUse" alignment="0 0" imageRepeat="None" />
    <mask fill="white" id="Clip988">
      <path d="M 35.3515625 35.00147710805959  C 35.3515625 18.394146339359622  14.080128260419542 21.370195625172528  14.080128260419542 15.105855817002464  C 14.080128260419542 12.929924699834372  15.895030447833278 12.09077637662159  18.8027769631521 12.09077637662159  C 23.03754873378415 12.09077637662159  28.41395252553133 13.388529016008818  32 15.671793058239016  L 32 2.5674186620204296  C 28.033408518492934 0.7232438586806609  23.427850279464508 0.020701076455964085  18.81253450179406 0.020701076455964085  C 7.523062292989209 0.020701076455964085  0 5.914254416229653  0 15.769368444659108  C 0 31.17652196039194  21.154343775876328 28.678592068037574  21.154343775876328 35.32347588324592  C 21.154343775876328 37.89946608473639  18.91986742685617 38.72885686930721  15.81697013869723 38.72885686930721  C 11.211411899668803 38.72885686930721  5.259313328043049 36.826136834115346  1 34.2891767871929  L 1 46.82761394217499  C 5.756947798785518 49.05233275255313  11.006503588186604 49.989056462186056  15.807212600055209 49.989056462186056  C 27.37965342947831 49.989056462186056  35.3515625 45.012711754761256  35.3515625 35.00147710805959  Z " fill-rule="evenodd" />
    </mask>
  </defs>
  <g>
    <path d="M 35.3515625 35.00147710805959  C 35.3515625 18.394146339359622  14.080128260419542 21.370195625172528  14.080128260419542 15.105855817002464  C 14.080128260419542 12.929924699834372  15.895030447833278 12.09077637662159  18.8027769631521 12.09077637662159  C 23.03754873378415 12.09077637662159  28.41395252553133 13.388529016008818  32 15.671793058239016  L 32 2.5674186620204296  C 28.033408518492934 0.7232438586806609  23.427850279464508 0.020701076455964085  18.81253450179406 0.020701076455964085  C 7.523062292989209 0.020701076455964085  0 5.914254416229653  0 15.769368444659108  C 0 31.17652196039194  21.154343775876328 28.678592068037574  21.154343775876328 35.32347588324592  C 21.154343775876328 37.89946608473639  18.91986742685617 38.72885686930721  15.81697013869723 38.72885686930721  C 11.211411899668803 38.72885686930721  5.259313328043049 36.826136834115346  1 34.2891767871929  L 1 46.82761394217499  C 5.756947798785518 49.05233275255313  11.006503588186604 49.989056462186056  15.807212600055209 49.989056462186056  C 27.37965342947831 49.989056462186056  35.3515625 45.012711754761256  35.3515625 35.00147710805959  Z " fill-rule="nonzero" fill="rgba(0, 0, 0, 1)" stroke="none" class="fill" />
    <path d="M 35.3515625 35.00147710805959  C 35.3515625 18.394146339359622  14.080128260419542 21.370195625172528  14.080128260419542 15.105855817002464  C 14.080128260419542 12.929924699834372  15.895030447833278 12.09077637662159  18.8027769631521 12.09077637662159  C 23.03754873378415 12.09077637662159  28.41395252553133 13.388529016008818  32 15.671793058239016  L 32 2.5674186620204296  C 28.033408518492934 0.7232438586806609  23.427850279464508 0.020701076455964085  18.81253450179406 0.020701076455964085  C 7.523062292989209 0.020701076455964085  0 5.914254416229653  0 15.769368444659108  C 0 31.17652196039194  21.154343775876328 28.678592068037574  21.154343775876328 35.32347588324592  C 21.154343775876328 37.89946608473639  18.91986742685617 38.72885686930721  15.81697013869723 38.72885686930721  C 11.211411899668803 38.72885686930721  5.259313328043049 36.826136834115346  1 34.2891767871929  L 1 46.82761394217499  C 5.756947798785518 49.05233275255313  11.006503588186604 49.989056462186056  15.807212600055209 49.989056462186056  C 27.37965342947831 49.989056462186056  35.3515625 45.012711754761256  35.3515625 35.00147710805959  Z " stroke-width="0" stroke-dasharray="0" stroke="rgba(255, 255, 255, 0)" fill="none" class="stroke" mask="url(#Clip988)" />
  </g>
</svg>