<?xml version="1.0" encoding="utf-8"?>
<svg version="1.1" xmlns:xlink="http://www.w3.org/1999/xlink" width="42px" height="48px" xmlns="http://www.w3.org/2000/svg">
  <defs>
    <pattern id="BGPattern" patternUnits="userSpaceOnUse" alignment="0 0" imageRepeat="None" />
    <mask fill="white" id="Clip6706">
      <path d="M 0.3719999999999999 0  L 0.3700000000000001 0  L 0.3700000000000001 0.714  L 2.8339999999999996 2.806  C 5.788 5.214  6.1739999999999995 5.684  7 7.857999999999999  L 7 48  L 23.466 48  C 32.54 48  41.632000000000005 44.742  41.632000000000005 34.302  C 41.632000000000005 28.137999999999998  37.284000000000006 23.386  31.260000000000005 22.708  L 31.260000000000005 22.573999999999998  C 36.21000000000001 21.084  39.598000000000006 17.494  39.598000000000006 12.067999999999998  C 39.598000000000006 3.323999999999998  32.138000000000005 0.003999999999997783  24.900000000000006 0  L 0.3719999999999999 0  Z M 15 7.328  L 14.722000000000001 7.328  L 21.770000000000003 7.328  C 26.536 7.328  28.012000000000004 7.982  29.458000000000006 9.354  C 30.554000000000002 10.395999999999999  31.056000000000004 11.828  31.060000000000002 13.494  C 31.060000000000002 15.044  30.526000000000003 16.426  29.398000000000003 17.502  C 27.988 18.854  26.050000000000004 19.523999999999997  22.512000000000008 19.523999999999997  L 15 19.523999999999997  L 15 7.328  Z M 15 26.843999999999994  L 14.722000000000001 26.843999999999994  L 22.919999999999998 26.843999999999994  C 29.832 26.843999999999994  33.09 28.605999999999995  33.09 33.623999999999995  C 33.09 39.92999999999999  26.980000000000004 40.675999999999995  22.578 40.675999999999995  L 15 40.675999999999995  L 15 26.843999999999994  Z " fill-rule="evenodd" />
    </mask>
  </defs>
  <g>
    <path d="M 0.3719999999999999 0  L 0.3700000000000001 0  L 0.3700000000000001 0.714  L 2.8339999999999996 2.806  C 5.788 5.214  6.1739999999999995 5.684  7 7.857999999999999  L 7 48  L 23.466 48  C 32.54 48  41.632000000000005 44.742  41.632000000000005 34.302  C 41.632000000000005 28.137999999999998  37.284000000000006 23.386  31.260000000000005 22.708  L 31.260000000000005 22.573999999999998  C 36.21000000000001 21.084  39.598000000000006 17.494  39.598000000000006 12.067999999999998  C 39.598000000000006 3.323999999999998  32.138000000000005 0.003999999999997783  24.900000000000006 0  L 0.3719999999999999 0  Z M 15 7.328  L 14.722000000000001 7.328  L 21.770000000000003 7.328  C 26.536 7.328  28.012000000000004 7.982  29.458000000000006 9.354  C 30.554000000000002 10.395999999999999  31.056000000000004 11.828  31.060000000000002 13.494  C 31.060000000000002 15.044  30.526000000000003 16.426  29.398000000000003 17.502  C 27.988 18.854  26.050000000000004 19.523999999999997  22.512000000000008 19.523999999999997  L 15 19.523999999999997  L 15 7.328  Z M 15 26.843999999999994  L 14.722000000000001 26.843999999999994  L 22.919999999999998 26.843999999999994  C 29.832 26.843999999999994  33.09 28.605999999999995  33.09 33.623999999999995  C 33.09 39.92999999999999  26.980000000000004 40.675999999999995  22.578 40.675999999999995  L 15 40.675999999999995  L 15 26.843999999999994  Z " fill-rule="nonzero" fill="rgba(237, 28, 36, 1)" stroke="none" class="fill" />
    <path d="M 0.3719999999999999 0  L 0.3700000000000001 0  L 0.3700000000000001 0.714  L 2.8339999999999996 2.806  C 5.788 5.214  6.1739999999999995 5.684  7 7.857999999999999  L 7 48  L 23.466 48  C 32.54 48  41.632000000000005 44.742  41.632000000000005 34.302  C 41.632000000000005 28.137999999999998  37.284000000000006 23.386  31.260000000000005 22.708  L 31.260000000000005 22.573999999999998  C 36.21000000000001 21.084  39.598000000000006 17.494  39.598000000000006 12.067999999999998  C 39.598000000000006 3.323999999999998  32.138000000000005 0.003999999999997783  24.900000000000006 0  L 0.3719999999999999 0  Z " stroke-width="0" stroke-dasharray="0" stroke="rgba(255, 255, 255, 0)" fill="none" class="stroke" mask="url(#Clip6706)" />
    <path d="M 15 7.328  L 14.722000000000001 7.328  L 21.770000000000003 7.328  C 26.536 7.328  28.012000000000004 7.982  29.458000000000006 9.354  C 30.554000000000002 10.395999999999999  31.056000000000004 11.828  31.060000000000002 13.494  C 31.060000000000002 15.044  30.526000000000003 16.426  29.398000000000003 17.502  C 27.988 18.854  26.050000000000004 19.523999999999997  22.512000000000008 19.523999999999997  L 15 19.523999999999997  L 15 7.328  Z " stroke-width="0" stroke-dasharray="0" stroke="rgba(255, 255, 255, 0)" fill="none" class="stroke" mask="url(#Clip6706)" />
    <path d="M 15 26.843999999999994  L 14.722000000000001 26.843999999999994  L 22.919999999999998 26.843999999999994  C 29.832 26.843999999999994  33.09 28.605999999999995  33.09 33.623999999999995  C 33.09 39.92999999999999  26.980000000000004 40.675999999999995  22.578 40.675999999999995  L 15 40.675999999999995  L 15 26.843999999999994  Z " stroke-width="0" stroke-dasharray="0" stroke="rgba(255, 255, 255, 0)" fill="none" class="stroke" mask="url(#Clip6706)" />
  </g>
</svg>