<?xml version="1.0" encoding="utf-8"?>
<svg version="1.1" xmlns:xlink="http://www.w3.org/1999/xlink" width="24px" height="5px" xmlns="http://www.w3.org/2000/svg">
  <defs>
    <pattern id="BGPattern" patternUnits="userSpaceOnUse" alignment="0 0" imageRepeat="None" />
    <mask fill="white" id="Clip5271">
      <path d="M 0 4.5  L 0 3  C 0 1.3431457505076194  1.3431457505076196 0  3 0  L 21 0  C 22.65685424949238 0  24 1.3431457505076194  24 3  L 24 4.5  L 0 4.5  Z " fill-rule="evenodd" />
    </mask>
  </defs>
  <g>
    <path d="M 0 4.5  L 0 3  C 0 1.3431457505076194  1.3431457505076196 0  3 0  L 21 0  C 22.65685424949238 0  24 1.3431457505076194  24 3  L 24 4.5  L 0 4.5  Z " fill-rule="nonzero" fill="rgba(0, 0, 0, 1)" stroke="none" class="fill" />
    <path d="M 0 4.5  L 0 3  C 0 1.3431457505076194  1.3431457505076196 0  3 0  L 21 0  C 22.65685424949238 0  24 1.3431457505076194  24 3  L 24 4.5  L 0 4.5  Z " stroke-width="0" stroke-dasharray="0" stroke="rgba(255, 255, 255, 0)" fill="none" class="stroke" mask="url(#Clip5271)" />
  </g>
</svg>