<?xml version="1.0" encoding="utf-8"?>
<svg version="1.1" xmlns:xlink="http://www.w3.org/1999/xlink" width="50px" height="50px" xmlns="http://www.w3.org/2000/svg">
  <defs>
    <pattern id="BGPattern" patternUnits="userSpaceOnUse" alignment="0 0" imageRepeat="None" />
    <mask fill="white" id="Clip1449">
      <path d="M 50 25  C 50 11.192842741935465  38.80715725806451 0  25 0  C 11.192842741935493 0  0 11.192842741935465  0 25  C 0 38.807157258064535  11.192842741935493 50  25 50  C 38.80715725806451 50  50 38.807157258064535  50 25  Z M 36.86360887096777 33.45635080645161  C 37.19420998911647 33.90854514814663  37.171146183487 34.52855696458067  36.80786290322581 34.954939516129  C 36.64737903225807 35.143145161290306  32.79818548387095 39.56491935483871  25.734173387096774 39.56491935483871  C 17.19667338709678 39.56491935483871  11.169254032258067 33.18790322580645  11.169254032258067 24.890826612903197  C 11.169254032258067 16.694959677419376  17.419657258064518 10.435080645161293  25.661391129032268 10.435080645161293  C 32.411088709677415 10.435080645161293  35.94012096774193 14.19667338709678  36.08699596774193 14.356854838709692  C 36.459214609919115 14.762560206936485  36.510509108681276 15.368440219375032  36.21179435483873 15.830947580645157  L 33.95574596774193 19.32439516129034  C 33.547580645161304 19.956149193548356  32.66804435483871 20.065423387096757  32.11764112903228 19.555745967741927  C 32.09415322580645 19.534173387096757  29.443346774193575 17.148487903225828  25.87973790322582 17.148487903225828  C 21.230947580645164 17.148487903225828  18.428528225806474 20.533064516129002  18.428528225806474 24.81804435483872  C 18.428528225806474 28.81018145161289  21.00050403225808 32.85151209677417  25.916129032258084 32.85151209677417  C 29.81703629032259 32.85151209677417  32.49677419354839 29.994858870967732  32.5233870967742 29.96592741935484  C 33.04072580645163 29.404939516129048  33.94062500000001 29.458568548387063  34.389112903225794 30.07207661290323  L 36.86360887096777 33.45635080645161  Z " fill-rule="evenodd" />
    </mask>
  </defs>
  <g>
    <path d="M 50 25  C 50 11.192842741935465  38.80715725806451 0  25 0  C 11.192842741935493 0  0 11.192842741935465  0 25  C 0 38.807157258064535  11.192842741935493 50  25 50  C 38.80715725806451 50  50 38.807157258064535  50 25  Z M 36.86360887096777 33.45635080645161  C 37.19420998911647 33.90854514814663  37.171146183487 34.52855696458067  36.80786290322581 34.954939516129  C 36.64737903225807 35.143145161290306  32.79818548387095 39.56491935483871  25.734173387096774 39.56491935483871  C 17.19667338709678 39.56491935483871  11.169254032258067 33.18790322580645  11.169254032258067 24.890826612903197  C 11.169254032258067 16.694959677419376  17.419657258064518 10.435080645161293  25.661391129032268 10.435080645161293  C 32.411088709677415 10.435080645161293  35.94012096774193 14.19667338709678  36.08699596774193 14.356854838709692  C 36.459214609919115 14.762560206936485  36.510509108681276 15.368440219375032  36.21179435483873 15.830947580645157  L 33.95574596774193 19.32439516129034  C 33.547580645161304 19.956149193548356  32.66804435483871 20.065423387096757  32.11764112903228 19.555745967741927  C 32.09415322580645 19.534173387096757  29.443346774193575 17.148487903225828  25.87973790322582 17.148487903225828  C 21.230947580645164 17.148487903225828  18.428528225806474 20.533064516129002  18.428528225806474 24.81804435483872  C 18.428528225806474 28.81018145161289  21.00050403225808 32.85151209677417  25.916129032258084 32.85151209677417  C 29.81703629032259 32.85151209677417  32.49677419354839 29.994858870967732  32.5233870967742 29.96592741935484  C 33.04072580645163 29.404939516129048  33.94062500000001 29.458568548387063  34.389112903225794 30.07207661290323  L 36.86360887096777 33.45635080645161  Z " fill-rule="nonzero" fill="rgba(0, 0, 0, 1)" stroke="none" class="fill" />
    <path d="M 50 25  C 50 11.192842741935465  38.80715725806451 0  25 0  C 11.192842741935493 0  0 11.192842741935465  0 25  C 0 38.807157258064535  11.192842741935493 50  25 50  C 38.80715725806451 50  50 38.807157258064535  50 25  Z " stroke-width="0" stroke-dasharray="0" stroke="rgba(255, 255, 255, 0)" fill="none" class="stroke" mask="url(#Clip1449)" />
    <path d="M 36.86360887096777 33.45635080645161  C 37.19420998911647 33.90854514814663  37.171146183487 34.52855696458067  36.80786290322581 34.954939516129  C 36.64737903225807 35.143145161290306  32.79818548387095 39.56491935483871  25.734173387096774 39.56491935483871  C 17.19667338709678 39.56491935483871  11.169254032258067 33.18790322580645  11.169254032258067 24.890826612903197  C 11.169254032258067 16.694959677419376  17.419657258064518 10.435080645161293  25.661391129032268 10.435080645161293  C 32.411088709677415 10.435080645161293  35.94012096774193 14.19667338709678  36.08699596774193 14.356854838709692  C 36.459214609919115 14.762560206936485  36.510509108681276 15.368440219375032  36.21179435483873 15.830947580645157  L 33.95574596774193 19.32439516129034  C 33.547580645161304 19.956149193548356  32.66804435483871 20.065423387096757  32.11764112903228 19.555745967741927  C 32.09415322580645 19.534173387096757  29.443346774193575 17.148487903225828  25.87973790322582 17.148487903225828  C 21.230947580645164 17.148487903225828  18.428528225806474 20.533064516129002  18.428528225806474 24.81804435483872  C 18.428528225806474 28.81018145161289  21.00050403225808 32.85151209677417  25.916129032258084 32.85151209677417  C 29.81703629032259 32.85151209677417  32.49677419354839 29.994858870967732  32.5233870967742 29.96592741935484  C 33.04072580645163 29.404939516129048  33.94062500000001 29.458568548387063  34.389112903225794 30.07207661290323  L 36.86360887096777 33.45635080645161  Z " stroke-width="0" stroke-dasharray="0" stroke="rgba(255, 255, 255, 0)" fill="none" class="stroke" mask="url(#Clip1449)" />
  </g>
</svg>