<?xml version="1.0" encoding="utf-8"?>
<svg version="1.1" xmlns:xlink="http://www.w3.org/1999/xlink" width="25px" height="26px" xmlns="http://www.w3.org/2000/svg">
  <defs>
    <pattern id="BGPattern" patternUnits="userSpaceOnUse" alignment="0 0" imageRepeat="None" />
    <mask fill="white" id="Clip3414">
      <path d="M 12.955422518863365 0.9990058392251921  C 12.955422518863365 0.46405616851784964  12.534417941848327 0.023846708855005574  12 0  L 11.799999999999999 0  C 5.482595921014614 1.0468126404669147  0.8498732931670315 6.510361510646  0.8498732931670315 12.913907696051993  C 0.8498732931670315 20.018697520049802  6.517331126956163 25.826381707917427  13.620000000000001 25.99999763750198  C 13.790000000000003 25.99999763750198  13.95 25.99999763750198  14.109999999999994 25.99999763750198  C 18.37271059752483 26.002555599231197  22.369267627970427 23.927779215461587  24.82 20.439998142713097  C 24.931791351999074 20.27462374847027  24.99153163092346 20.079576950970523  24.99153163092346 19.879962336320645  C 24.99153163092346 19.330981887048615  24.548960814207685 18.884647253523216  23.999999999999996 18.879998284462978  C 17.257322969684832 18.273626730677393  12.09156161880262 12.622460013903527  12.09156161880262 5.852572885284957  C 12.09156161880262 4.327146059205901  12.358395711623897 2.813476772750006  12.879999999999999 1.3799998746058744  C 12.929798478038487 1.2591514130914678  12.955422518863365 1.129712528475119  12.955422518863365 0.9990058392251921  Z " fill-rule="evenodd" />
    </mask>
  </defs>
  <g transform="matrix(1 0 0 1 -3 -3 )">
    <path d="M 12.955422518863365 0.9990058392251921  C 12.955422518863365 0.46405616851784964  12.534417941848327 0.023846708855005574  12 0  L 11.799999999999999 0  C 5.482595921014614 1.0468126404669147  0.8498732931670315 6.510361510646  0.8498732931670315 12.913907696051993  C 0.8498732931670315 20.018697520049802  6.517331126956163 25.826381707917427  13.620000000000001 25.99999763750198  C 13.790000000000003 25.99999763750198  13.95 25.99999763750198  14.109999999999994 25.99999763750198  C 18.37271059752483 26.002555599231197  22.369267627970427 23.927779215461587  24.82 20.439998142713097  C 24.931791351999074 20.27462374847027  24.99153163092346 20.079576950970523  24.99153163092346 19.879962336320645  C 24.99153163092346 19.330981887048615  24.548960814207685 18.884647253523216  23.999999999999996 18.879998284462978  C 17.257322969684832 18.273626730677393  12.09156161880262 12.622460013903527  12.09156161880262 5.852572885284957  C 12.09156161880262 4.327146059205901  12.358395711623897 2.813476772750006  12.879999999999999 1.3799998746058744  C 12.929798478038487 1.2591514130914678  12.955422518863365 1.129712528475119  12.955422518863365 0.9990058392251921  Z " fill-rule="nonzero" fill="rgba(0, 0, 0, 1)" stroke="none" transform="matrix(1 0 0 1 3 3 )" class="fill" />
    <path d="M 12.955422518863365 0.9990058392251921  C 12.955422518863365 0.46405616851784964  12.534417941848327 0.023846708855005574  12 0  L 11.799999999999999 0  C 5.482595921014614 1.0468126404669147  0.8498732931670315 6.510361510646  0.8498732931670315 12.913907696051993  C 0.8498732931670315 20.018697520049802  6.517331126956163 25.826381707917427  13.620000000000001 25.99999763750198  C 13.790000000000003 25.99999763750198  13.95 25.99999763750198  14.109999999999994 25.99999763750198  C 18.37271059752483 26.002555599231197  22.369267627970427 23.927779215461587  24.82 20.439998142713097  C 24.931791351999074 20.27462374847027  24.99153163092346 20.079576950970523  24.99153163092346 19.879962336320645  C 24.99153163092346 19.330981887048615  24.548960814207685 18.884647253523216  23.999999999999996 18.879998284462978  C 17.257322969684832 18.273626730677393  12.09156161880262 12.622460013903527  12.09156161880262 5.852572885284957  C 12.09156161880262 4.327146059205901  12.358395711623897 2.813476772750006  12.879999999999999 1.3799998746058744  C 12.929798478038487 1.2591514130914678  12.955422518863365 1.129712528475119  12.955422518863365 0.9990058392251921  Z " stroke-width="0" stroke-dasharray="0" stroke="rgba(255, 255, 255, 0)" fill="none" transform="matrix(1 0 0 1 3 3 )" class="stroke" mask="url(#Clip3414)" />
  </g>
</svg>