<?xml version="1.0" encoding="utf-8"?>
<svg version="1.1" xmlns:xlink="http://www.w3.org/1999/xlink" width="22px" height="22px" xmlns="http://www.w3.org/2000/svg">
  <defs>
    <pattern id="BGPattern" patternUnits="userSpaceOnUse" alignment="0 0" imageRepeat="None" />
    <mask fill="white" id="Clip3343">
      <path d="M 22 11  C 22 4.9  17.1 0  11 0  C 4.9 0  0 4.9  0 11  C 0 17.1  4.9 22  11 22  C 17.1 22  22 17.1  22 11  Z M 10.1 13  L 10.1 5  L 11.9 5  L 11.9 13  L 10.1 13  Z M 12.200000000000001 17  C 12.200000000000001 17.599999999999998  11.7 18.2  11 18.2  C 10.3 18.2  9.8 17.599999999999998  9.8 17  C 9.8 16.400000000000002  10.4 15.8  11 15.8  C 11.6 15.8  12.200000000000001 16.400000000000002  12.200000000000001 17  Z " fill-rule="evenodd" />
    </mask>
  </defs>
  <g transform="matrix(1 0 0 1 -1 -1 )">
    <path d="M 22 11  C 22 4.9  17.1 0  11 0  C 4.9 0  0 4.9  0 11  C 0 17.1  4.9 22  11 22  C 17.1 22  22 17.1  22 11  Z M 10.1 13  L 10.1 5  L 11.9 5  L 11.9 13  L 10.1 13  Z M 12.200000000000001 17  C 12.200000000000001 17.599999999999998  11.7 18.2  11 18.2  C 10.3 18.2  9.8 17.599999999999998  9.8 17  C 9.8 16.400000000000002  10.4 15.8  11 15.8  C 11.6 15.8  12.200000000000001 16.400000000000002  12.200000000000001 17  Z " fill-rule="nonzero" fill="rgba(0, 0, 0, 1)" stroke="none" transform="matrix(1 0 0 1 1 1 )" class="fill" />
    <path d="M 22 11  C 22 4.9  17.1 0  11 0  C 4.9 0  0 4.9  0 11  C 0 17.1  4.9 22  11 22  C 17.1 22  22 17.1  22 11  Z " stroke-width="0" stroke-dasharray="0" stroke="rgba(255, 255, 255, 0)" fill="none" transform="matrix(1 0 0 1 1 1 )" class="stroke" mask="url(#Clip3343)" />
    <path d="M 10.1 13  L 10.1 5  L 11.9 5  L 11.9 13  L 10.1 13  Z " stroke-width="0" stroke-dasharray="0" stroke="rgba(255, 255, 255, 0)" fill="none" transform="matrix(1 0 0 1 1 1 )" class="stroke" mask="url(#Clip3343)" />
    <path d="M 12.200000000000001 17  C 12.200000000000001 17.599999999999998  11.7 18.2  11 18.2  C 10.3 18.2  9.8 17.599999999999998  9.8 17  C 9.8 16.400000000000002  10.4 15.8  11 15.8  C 11.6 15.8  12.200000000000001 16.400000000000002  12.200000000000001 17  Z " stroke-width="0" stroke-dasharray="0" stroke="rgba(255, 255, 255, 0)" fill="none" transform="matrix(1 0 0 1 1 1 )" class="stroke" mask="url(#Clip3343)" />
  </g>
</svg>