<?xml version="1.0" encoding="utf-8"?>
<svg version="1.1" xmlns:xlink="http://www.w3.org/1999/xlink" width="4px" height="14px" xmlns="http://www.w3.org/2000/svg">
  <defs>
    <pattern id="BGPattern" patternUnits="userSpaceOnUse" alignment="0 0" imageRepeat="None" />
    <mask fill="white" id="Clip3344">
      <path d="M 2 10.8  C 2.5999999999999996 10.8  3.1999999999999993 11.3  3.1999999999999993 12  C 3.1999999999999993 12.7  2.5999999999999996 13.2  2 13.2  C 1.4000000000000004 13.2  0.8000000000000007 12.599999999999998  0.8000000000000007 12  C 0.8000000000000007 11.400000000000002  1.4000000000000004 10.8  2 10.8  Z M 2.9000000000000004 8  L 2.9000000000000004 0  L 1.0999999999999996 0  L 1.0999999999999996 8  L 2.9000000000000004 8  Z " fill-rule="evenodd" />
    </mask>
  </defs>
  <g transform="matrix(1 0 0 1 -10 -6 )">
    <path d="M 2 10.8  C 2.5999999999999996 10.8  3.1999999999999993 11.3  3.1999999999999993 12  C 3.1999999999999993 12.7  2.5999999999999996 13.2  2 13.2  C 1.4000000000000004 13.2  0.8000000000000007 12.599999999999998  0.8000000000000007 12  C 0.8000000000000007 11.400000000000002  1.4000000000000004 10.8  2 10.8  Z M 2.9000000000000004 8  L 2.9000000000000004 0  L 1.0999999999999996 0  L 1.0999999999999996 8  L 2.9000000000000004 8  Z " fill-rule="nonzero" fill="rgba(255, 255, 255, 0)" stroke="none" transform="matrix(1 0 0 1 10 6 )" class="fill" />
    <path d="M 2 10.8  C 2.5999999999999996 10.8  3.1999999999999993 11.3  3.1999999999999993 12  C 3.1999999999999993 12.7  2.5999999999999996 13.2  2 13.2  C 1.4000000000000004 13.2  0.8000000000000007 12.599999999999998  0.8000000000000007 12  C 0.8000000000000007 11.400000000000002  1.4000000000000004 10.8  2 10.8  Z " stroke-width="0" stroke-dasharray="0" stroke="rgba(255, 255, 255, 0)" fill="none" transform="matrix(1 0 0 1 10 6 )" class="stroke" mask="url(#Clip3344)" />
    <path d="M 2.9000000000000004 8  L 2.9000000000000004 0  L 1.0999999999999996 0  L 1.0999999999999996 8  L 2.9000000000000004 8  Z " stroke-width="0" stroke-dasharray="0" stroke="rgba(255, 255, 255, 0)" fill="none" transform="matrix(1 0 0 1 10 6 )" class="stroke" mask="url(#Clip3344)" />
  </g>
</svg>