<?xml version="1.0" encoding="utf-8"?>
<svg version="1.1" xmlns:xlink="http://www.w3.org/1999/xlink" width="10px" height="6px" xmlns="http://www.w3.org/2000/svg">
  <defs>
    <pattern id="BGPattern" patternUnits="userSpaceOnUse" alignment="0 0" imageRepeat="None" />
    <mask fill="white" id="Clip5174">
      <path d="M 0.5 3.75  L 0.5 2.25  C 0.5 1.0073593128807148  1.5073593128807161 0  2.75 0  L 7.25 0  C 8.492640687119284 0  9.5 1.0073593128807148  9.5 2.25  L 9.5 3.75  C 9.5 4.992640687119286  8.492640687119284 6  7.25 6  L 2.75 6  C 1.5073593128807161 6  0.5 4.992640687119286  0.5 3.75  Z M 8 3.75  L 8 2.25  C 8 1.835786437626905  7.664213562373096 1.5  7.25 1.5  L 2.75 1.5  C 2.335786437626904 1.5  2 1.835786437626905  2 2.25  L 2 3.75  C 2 4.164213562373095  2.335786437626904 4.5  2.75 4.5  L 7.25 4.5  C 7.664213562373096 4.5  8 4.164213562373095  8 3.75  Z " fill-rule="evenodd" />
    </mask>
  </defs>
  <g transform="matrix(1 0 0 1 -6 0 )">
    <path d="M 0.5 3.75  L 0.5 2.25  C 0.5 1.0073593128807148  1.5073593128807161 0  2.75 0  L 7.25 0  C 8.492640687119284 0  9.5 1.0073593128807148  9.5 2.25  L 9.5 3.75  C 9.5 4.992640687119286  8.492640687119284 6  7.25 6  L 2.75 6  C 1.5073593128807161 6  0.5 4.992640687119286  0.5 3.75  Z M 8 3.75  L 8 2.25  C 8 1.835786437626905  7.664213562373096 1.5  7.25 1.5  L 2.75 1.5  C 2.335786437626904 1.5  2 1.835786437626905  2 2.25  L 2 3.75  C 2 4.164213562373095  2.335786437626904 4.5  2.75 4.5  L 7.25 4.5  C 7.664213562373096 4.5  8 4.164213562373095  8 3.75  Z " fill-rule="nonzero" fill="rgba(0, 0, 0, 1)" stroke="none" transform="matrix(1 0 0 1 6 0 )" class="fill" />
    <path d="M 0.5 3.75  L 0.5 2.25  C 0.5 1.0073593128807148  1.5073593128807161 0  2.75 0  L 7.25 0  C 8.492640687119284 0  9.5 1.0073593128807148  9.5 2.25  L 9.5 3.75  C 9.5 4.992640687119286  8.492640687119284 6  7.25 6  L 2.75 6  C 1.5073593128807161 6  0.5 4.992640687119286  0.5 3.75  Z " stroke-width="0" stroke-dasharray="0" stroke="rgba(255, 255, 255, 0)" fill="none" transform="matrix(1 0 0 1 6 0 )" class="stroke" mask="url(#Clip5174)" />
    <path d="M 8 3.75  L 8 2.25  C 8 1.835786437626905  7.664213562373096 1.5  7.25 1.5  L 2.75 1.5  C 2.335786437626904 1.5  2 1.835786437626905  2 2.25  L 2 3.75  C 2 4.164213562373095  2.335786437626904 4.5  2.75 4.5  L 7.25 4.5  C 7.664213562373096 4.5  8 4.164213562373095  8 3.75  Z " stroke-width="0" stroke-dasharray="0" stroke="rgba(255, 255, 255, 0)" fill="none" transform="matrix(1 0 0 1 6 0 )" class="stroke" mask="url(#Clip5174)" />
  </g>
</svg>