<?xml version="1.0" encoding="utf-8"?>
<svg version="1.1" xmlns:xlink="http://www.w3.org/1999/xlink" width="16px" height="10px" xmlns="http://www.w3.org/2000/svg">
  <defs>
    <pattern id="BGPattern" patternUnits="userSpaceOnUse" alignment="0 0" imageRepeat="None" />
    <mask fill="white" id="Clip5522">
      <path d="M 3.5 5  L 3.5 2  L 0.5 2  L 0.5 0.5  L 15.5 0.5  L 15.5 2  L 11 2  L 11 5  L 15.5 5  L 15.5 6.5  L 11 6.5  L 11 9.5  L 9.5 9.5  L 9.5 6.5  L 5 6.5  L 5 9.5  L 3.5 9.5  L 3.5 6.5  L 0.5 6.5  L 0.5 5  L 3.5 5  Z M 9.5 2  L 5 2  L 5 5  L 9.5 5  L 9.5 2  Z " fill-rule="evenodd" />
    </mask>
  </defs>
  <g transform="matrix(1 0 0 1 -1 -13 )">
    <path d="M 3.5 5  L 3.5 2  L 0.5 2  L 0.5 0.5  L 15.5 0.5  L 15.5 2  L 11 2  L 11 5  L 15.5 5  L 15.5 6.5  L 11 6.5  L 11 9.5  L 9.5 9.5  L 9.5 6.5  L 5 6.5  L 5 9.5  L 3.5 9.5  L 3.5 6.5  L 0.5 6.5  L 0.5 5  L 3.5 5  Z M 9.5 2  L 5 2  L 5 5  L 9.5 5  L 9.5 2  Z " fill-rule="nonzero" fill="rgba(0, 0, 0, 1)" stroke="none" transform="matrix(1 0 0 1 1 13 )" class="fill" />
    <path d="M 3.5 5  L 3.5 2  L 0.5 2  L 0.5 0.5  L 15.5 0.5  L 15.5 2  L 11 2  L 11 5  L 15.5 5  L 15.5 6.5  L 11 6.5  L 11 9.5  L 9.5 9.5  L 9.5 6.5  L 5 6.5  L 5 9.5  L 3.5 9.5  L 3.5 6.5  L 0.5 6.5  L 0.5 5  L 3.5 5  Z " stroke-width="0" stroke-dasharray="0" stroke="rgba(255, 255, 255, 0)" fill="none" transform="matrix(1 0 0 1 1 13 )" class="stroke" mask="url(#Clip5522)" />
    <path d="M 9.5 2  L 5 2  L 5 5  L 9.5 5  L 9.5 2  Z " stroke-width="0" stroke-dasharray="0" stroke="rgba(255, 255, 255, 0)" fill="none" transform="matrix(1 0 0 1 1 13 )" class="stroke" mask="url(#Clip5522)" />
  </g>
</svg>