<?xml version="1.0" encoding="utf-8"?>
<svg version="1.1" xmlns:xlink="http://www.w3.org/1999/xlink" width="24px" height="25px" xmlns="http://www.w3.org/2000/svg">
  <defs>
    <pattern id="BGPattern" patternUnits="userSpaceOnUse" alignment="0 0" imageRepeat="None" />
    <mask fill="white" id="Clip6090">
      <path d="M 1.5 12  C 1.5006814119471177 6.201492032001644  6.201491919462189 1.5012339080044068  11.99999992749862 1.5012339080044068  C 17.798989800721955 1.5012339080044068  22.49999992749862 6.202244034781075  22.49999992749862 12.001233908004407  C 22.49999992749862 17.80022378122774  17.798989800721955 22.50123390800441  11.99999992749862 22.50123390800441  C 9.790527946827877 22.50123390800441  7.637359574700499 21.80425056541689  5.847 20.5095  C 5.596500000000001 20.328  5.523 19.9005  5.844 19.579500000000003  L 8.544 16.879499999999997  C 10.634362395778961 18.443443798849152  13.556293553193722 18.233821441099362  15.402000000000001 16.387500000000003  L 17.523 14.265000000000002  C 17.81578645374965 13.972125111385642  17.81578645374965 13.497374888614361  17.523 13.204500000000003  L 16.4625 12.144  L 18.801 9.7995  C 18.946843474864885 9.658224103302352  19.029172585017022 9.463851173362325  19.029172585017022 9.26080143032287  C 19.029172585017022 8.846587867949776  18.693386147390118 8.51080143032287  18.279172585017022 8.51080143032287  C 18.075386365160927 8.51080143032287  17.88037368222829 8.593727027772646  17.738999999999997 8.7405  L 15.4005 11.0835  L 13.279499999999999 8.9625  L 15.6195 6.6195  C 15.773558007954938 6.4775030366245145  15.861196777153188 6.277538263640444  15.861196777153188 6.068022136760192  C 15.861196777153188 5.653808574387098  15.525410339526282 5.318022136760192  15.111196777153188 5.318022136760192  C 14.901311232624082 5.318022136760192  14.70102874671265 5.405969171653315  14.559 5.5605  L 12.218999999999998 7.900500000000001  L 11.158499999999998 6.8415  C 10.865625111385638 6.548713546250354  10.39087488861436 6.548713546250354  10.097999999999999 6.8415  L 7.9769999999999985 8.962499999999999  C 6.131529149195504 10.8079942165336  5.92193305545811 13.728920266758102  7.484999999999999 15.818999999999999  L 4.784999999999999 18.519  C 3.914999999999999 19.389  3.854999999999999 20.919  4.966499999999999 21.7245  C 7.012909344369177 23.20490124088292  9.474256592441375 24.00185222478771  11.99999985705264 24.00185222478771  C 18.62741685502216 24.00185222478771  23.99999985705264 18.62926922275723  23.99999985705264 12.001852224787708  C 23.99999985705264 5.374435226818187  18.62741685502216 0.0018522247877088562  11.99999985705264 0.0018522247877088562  C 5.373306186298304 0.0018522247877088562  0.0010228438564603808 5.373306408184696  0 12  C 0 12.414213562373096  0.3357864376269049 12.75  0.75 12.75  C 1.1642135623730951 12.75  1.5 12.414213562373096  1.5 12  Z " fill-rule="evenodd" />
    </mask>
  </defs>
  <g>
    <path d="M 1.5 12  C 1.5006814119471177 6.201492032001644  6.201491919462189 1.5012339080044068  11.99999992749862 1.5012339080044068  C 17.798989800721955 1.5012339080044068  22.49999992749862 6.202244034781075  22.49999992749862 12.001233908004407  C 22.49999992749862 17.80022378122774  17.798989800721955 22.50123390800441  11.99999992749862 22.50123390800441  C 9.790527946827877 22.50123390800441  7.637359574700499 21.80425056541689  5.847 20.5095  C 5.596500000000001 20.328  5.523 19.9005  5.844 19.579500000000003  L 8.544 16.879499999999997  C 10.634362395778961 18.443443798849152  13.556293553193722 18.233821441099362  15.402000000000001 16.387500000000003  L 17.523 14.265000000000002  C 17.81578645374965 13.972125111385642  17.81578645374965 13.497374888614361  17.523 13.204500000000003  L 16.4625 12.144  L 18.801 9.7995  C 18.946843474864885 9.658224103302352  19.029172585017022 9.463851173362325  19.029172585017022 9.26080143032287  C 19.029172585017022 8.846587867949776  18.693386147390118 8.51080143032287  18.279172585017022 8.51080143032287  C 18.075386365160927 8.51080143032287  17.88037368222829 8.593727027772646  17.738999999999997 8.7405  L 15.4005 11.0835  L 13.279499999999999 8.9625  L 15.6195 6.6195  C 15.773558007954938 6.4775030366245145  15.861196777153188 6.277538263640444  15.861196777153188 6.068022136760192  C 15.861196777153188 5.653808574387098  15.525410339526282 5.318022136760192  15.111196777153188 5.318022136760192  C 14.901311232624082 5.318022136760192  14.70102874671265 5.405969171653315  14.559 5.5605  L 12.218999999999998 7.900500000000001  L 11.158499999999998 6.8415  C 10.865625111385638 6.548713546250354  10.39087488861436 6.548713546250354  10.097999999999999 6.8415  L 7.9769999999999985 8.962499999999999  C 6.131529149195504 10.8079942165336  5.92193305545811 13.728920266758102  7.484999999999999 15.818999999999999  L 4.784999999999999 18.519  C 3.914999999999999 19.389  3.854999999999999 20.919  4.966499999999999 21.7245  C 7.012909344369177 23.20490124088292  9.474256592441375 24.00185222478771  11.99999985705264 24.00185222478771  C 18.62741685502216 24.00185222478771  23.99999985705264 18.62926922275723  23.99999985705264 12.001852224787708  C 23.99999985705264 5.374435226818187  18.62741685502216 0.0018522247877088562  11.99999985705264 0.0018522247877088562  C 5.373306186298304 0.0018522247877088562  0.0010228438564603808 5.373306408184696  0 12  C 0 12.414213562373096  0.3357864376269049 12.75  0.75 12.75  C 1.1642135623730951 12.75  1.5 12.414213562373096  1.5 12  Z " fill-rule="nonzero" fill="rgba(0, 0, 0, 1)" stroke="none" class="fill" />
    <path d="M 1.5 12  C 1.5006814119471177 6.201492032001644  6.201491919462189 1.5012339080044068  11.99999992749862 1.5012339080044068  C 17.798989800721955 1.5012339080044068  22.49999992749862 6.202244034781075  22.49999992749862 12.001233908004407  C 22.49999992749862 17.80022378122774  17.798989800721955 22.50123390800441  11.99999992749862 22.50123390800441  C 9.790527946827877 22.50123390800441  7.637359574700499 21.80425056541689  5.847 20.5095  C 5.596500000000001 20.328  5.523 19.9005  5.844 19.579500000000003  L 8.544 16.879499999999997  C 10.634362395778961 18.443443798849152  13.556293553193722 18.233821441099362  15.402000000000001 16.387500000000003  L 17.523 14.265000000000002  C 17.81578645374965 13.972125111385642  17.81578645374965 13.497374888614361  17.523 13.204500000000003  L 16.4625 12.144  L 18.801 9.7995  C 18.946843474864885 9.658224103302352  19.029172585017022 9.463851173362325  19.029172585017022 9.26080143032287  C 19.029172585017022 8.846587867949776  18.693386147390118 8.51080143032287  18.279172585017022 8.51080143032287  C 18.075386365160927 8.51080143032287  17.88037368222829 8.593727027772646  17.738999999999997 8.7405  L 15.4005 11.0835  L 13.279499999999999 8.9625  L 15.6195 6.6195  C 15.773558007954938 6.4775030366245145  15.861196777153188 6.277538263640444  15.861196777153188 6.068022136760192  C 15.861196777153188 5.653808574387098  15.525410339526282 5.318022136760192  15.111196777153188 5.318022136760192  C 14.901311232624082 5.318022136760192  14.70102874671265 5.405969171653315  14.559 5.5605  L 12.218999999999998 7.900500000000001  L 11.158499999999998 6.8415  C 10.865625111385638 6.548713546250354  10.39087488861436 6.548713546250354  10.097999999999999 6.8415  L 7.9769999999999985 8.962499999999999  C 6.131529149195504 10.8079942165336  5.92193305545811 13.728920266758102  7.484999999999999 15.818999999999999  L 4.784999999999999 18.519  C 3.914999999999999 19.389  3.854999999999999 20.919  4.966499999999999 21.7245  C 7.012909344369177 23.20490124088292  9.474256592441375 24.00185222478771  11.99999985705264 24.00185222478771  C 18.62741685502216 24.00185222478771  23.99999985705264 18.62926922275723  23.99999985705264 12.001852224787708  C 23.99999985705264 5.374435226818187  18.62741685502216 0.0018522247877088562  11.99999985705264 0.0018522247877088562  C 5.373306186298304 0.0018522247877088562  0.0010228438564603808 5.373306408184696  0 12  C 0 12.414213562373096  0.3357864376269049 12.75  0.75 12.75  C 1.1642135623730951 12.75  1.5 12.414213562373096  1.5 12  Z " stroke-width="0" stroke-dasharray="0" stroke="rgba(255, 255, 255, 0)" fill="none" class="stroke" mask="url(#Clip6090)" />
  </g>
</svg>