<?xml version="1.0" encoding="utf-8"?>
<svg version="1.1" xmlns:xlink="http://www.w3.org/1999/xlink" width="22px" height="24px" xmlns="http://www.w3.org/2000/svg">
  <defs>
    <pattern id="BGPattern" patternUnits="userSpaceOnUse" alignment="0 0" imageRepeat="None" />
    <mask fill="white" id="Clip4678">
      <path d="M 6.7189999999999985 14.281000000000002  L 0.7189999999999999 8.281  C 0.5779374489685476 8.14029360548475  0.4986593244718718 7.949240891287362  0.4986593244718718 7.75  C 0.4986593244718718 7.550759108712638  0.5779374489685476 7.35970639451525  0.7189999999999999 7.218999999999999  L 6.719 1.2189999999999999  C 6.8598299561047975 1.078170043895202  7.050836366088188 0.9990525983798861  7.25 0.9990525983798861  C 7.664736797839849 0.9990525983798861  8.000947401620113 1.3352632021601512  8.000947401620113 1.7499999999999998  C 8.000947401620113 1.9491636339118128  7.921829956104798 2.140170043895202  7.781000000000001 2.2809999999999997  L 3.0604999999999993 7  L 17.749999999999996 7  C 19.821067811865472 6.999999999999999  21.499999999999993 8.678932188134523  21.5 10.75  L 21.5 22.75  C 21.5 23.164213562373096  21.164213562373096 23.5  20.75 23.5  C 20.335786437626904 23.5  20 23.164213562373096  20 22.75  L 20 10.75  C 19.999999999999996 9.507359312880716  18.992640687119284 8.5  17.75 8.5  L 3.0604999999999993 8.5  L 7.781 13.219000000000001  C 7.921829956104797 13.359829956104797  8.000947401620113 13.550836366088188  8.000947401620113 13.75  C 8.000947401620113 14.164736797839847  7.664736797839847 14.500947401620113  7.249999999999998 14.500947401620113  C 7.050836366088186 14.500947401620113  6.8598299561047975 14.421829956104798  6.7189999999999985 14.281000000000002  Z " fill-rule="evenodd" />
    </mask>
  </defs>
  <g>
    <path d="M 6.7189999999999985 14.281000000000002  L 0.7189999999999999 8.281  C 0.5779374489685476 8.14029360548475  0.4986593244718718 7.949240891287362  0.4986593244718718 7.75  C 0.4986593244718718 7.550759108712638  0.5779374489685476 7.35970639451525  0.7189999999999999 7.218999999999999  L 6.719 1.2189999999999999  C 6.8598299561047975 1.078170043895202  7.050836366088188 0.9990525983798861  7.25 0.9990525983798861  C 7.664736797839849 0.9990525983798861  8.000947401620113 1.3352632021601512  8.000947401620113 1.7499999999999998  C 8.000947401620113 1.9491636339118128  7.921829956104798 2.140170043895202  7.781000000000001 2.2809999999999997  L 3.0604999999999993 7  L 17.749999999999996 7  C 19.821067811865472 6.999999999999999  21.499999999999993 8.678932188134523  21.5 10.75  L 21.5 22.75  C 21.5 23.164213562373096  21.164213562373096 23.5  20.75 23.5  C 20.335786437626904 23.5  20 23.164213562373096  20 22.75  L 20 10.75  C 19.999999999999996 9.507359312880716  18.992640687119284 8.5  17.75 8.5  L 3.0604999999999993 8.5  L 7.781 13.219000000000001  C 7.921829956104797 13.359829956104797  8.000947401620113 13.550836366088188  8.000947401620113 13.75  C 8.000947401620113 14.164736797839847  7.664736797839847 14.500947401620113  7.249999999999998 14.500947401620113  C 7.050836366088186 14.500947401620113  6.8598299561047975 14.421829956104798  6.7189999999999985 14.281000000000002  Z " fill-rule="nonzero" fill="rgba(0, 0, 0, 1)" stroke="none" class="fill" />
    <path d="M 6.7189999999999985 14.281000000000002  L 0.7189999999999999 8.281  C 0.5779374489685476 8.14029360548475  0.4986593244718718 7.949240891287362  0.4986593244718718 7.75  C 0.4986593244718718 7.550759108712638  0.5779374489685476 7.35970639451525  0.7189999999999999 7.218999999999999  L 6.719 1.2189999999999999  C 6.8598299561047975 1.078170043895202  7.050836366088188 0.9990525983798861  7.25 0.9990525983798861  C 7.664736797839849 0.9990525983798861  8.000947401620113 1.3352632021601512  8.000947401620113 1.7499999999999998  C 8.000947401620113 1.9491636339118128  7.921829956104798 2.140170043895202  7.781000000000001 2.2809999999999997  L 3.0604999999999993 7  L 17.749999999999996 7  C 19.821067811865472 6.999999999999999  21.499999999999993 8.678932188134523  21.5 10.75  L 21.5 22.75  C 21.5 23.164213562373096  21.164213562373096 23.5  20.75 23.5  C 20.335786437626904 23.5  20 23.164213562373096  20 22.75  L 20 10.75  C 19.999999999999996 9.507359312880716  18.992640687119284 8.5  17.75 8.5  L 3.0604999999999993 8.5  L 7.781 13.219000000000001  C 7.921829956104797 13.359829956104797  8.000947401620113 13.550836366088188  8.000947401620113 13.75  C 8.000947401620113 14.164736797839847  7.664736797839847 14.500947401620113  7.249999999999998 14.500947401620113  C 7.050836366088186 14.500947401620113  6.8598299561047975 14.421829956104798  6.7189999999999985 14.281000000000002  Z " stroke-width="0" stroke-dasharray="0" stroke="rgba(255, 255, 255, 0)" fill="none" class="stroke" mask="url(#Clip4678)" />
  </g>
</svg>