<?xml version="1.0" encoding="utf-8"?>
<svg version="1.1" xmlns:xlink="http://www.w3.org/1999/xlink" width="46px" height="48px" xmlns="http://www.w3.org/2000/svg">
  <defs>
    <pattern id="BGPattern" patternUnits="userSpaceOnUse" alignment="0 0" imageRepeat="None" />
    <mask fill="white" id="Clip7126">
      <path d="M 44.436 28.771999999999984  C 45.47 23.441999999999986  45.386 15.757999999999988  45.386 15.758  C 45.386 5.345999999999998  38.564 2.2939999999999987  38.564 2.2939999999999987  C 35.124 0.714  29.215999999999998 0.05  23.082 0  L 22.93 0  C 16.794 0.05  10.89 0.714  7.449999999999999 2.294  C 7.449999999999999 2.294  0.6279999999999992 5.346  0.6279999999999992 15.758000000000003  C 0.6279999999999992 18.142  0.5819999999999992 20.994  0.6579999999999993 24.016  C 0.9059999999999993 34.199999999999996  2.5259999999999994 44.233999999999995  11.94 46.726  C 16.28 47.874  20.008 48.116  23.01 47.949999999999996  C 28.454 47.65  31.509999999999998 46.00599999999999  31.509999999999998 46.00599999999999  L 31.33 42.05599999999999  C 31.33 42.05599999999999  27.439999999999998 43.28199999999999  23.072 43.13399999999999  C 18.741999999999997 42.98599999999999  14.174000000000001 42.66799999999999  13.474 37.35199999999999  C 13.408284266885595 36.858081447305445  13.376210373344978 36.36026789131055  13.377999999999997 35.86199999999999  C 13.377999999999997 35.86199999999999  17.628 36.90199999999999  23.012 37.14799999999999  C 26.304000000000002 37.29799999999999  29.392 36.953999999999986  32.528 36.58199999999999  C 38.542 35.86399999999999  43.778 32.15799999999999  44.436 28.771999999999984  Z M 37 29.176000000000002  L 37.338 29.176000000000002  L 32 29.176000000000002  L 32 16.938  C 32.344 14.357999999999999  31.258 13.049999999999999  29.087999999999997 13.049999999999999  C 26.688000000000002 13.049999999999999  25.484 14.601999999999999  25.484 17.674  L 25.484 24.372  L 20.518 24.372  L 20.518 17.672  C 20.518 14.600000000000001  19.314 13.048000000000002  16.914 13.048000000000002  C 14.744000000000002 13.048000000000002  13.658000000000003 14.358  14 16.936  L 14 29.174  L 9 29.174  L 9 16.568  C 8.664 13.990000000000002  9.32 11.942  10.638 10.428  C 11.998 8.912  13.776 8.136000000000001  15.985999999999999 8.136000000000001  C 18.542 8.136000000000001  20.478 9.118  21.758000000000003 11.084000000000001  L 23 13.169999999999998  L 24.244000000000003 11.084  C 25.523999999999997 9.118  27.460000000000004 8.136  30.016 8.136  C 32.224 8.136  34.004 8.911999999999999  35.364 10.427999999999999  C 36.68 11.941999999999998  37.336 13.989999999999998  37 16.567999999999998  L 37 29.176000000000002  Z " fill-rule="evenodd" />
    </mask>
  </defs>
  <g>
    <path d="M 44.436 28.771999999999984  C 45.47 23.441999999999986  45.386 15.757999999999988  45.386 15.758  C 45.386 5.345999999999998  38.564 2.2939999999999987  38.564 2.2939999999999987  C 35.124 0.714  29.215999999999998 0.05  23.082 0  L 22.93 0  C 16.794 0.05  10.89 0.714  7.449999999999999 2.294  C 7.449999999999999 2.294  0.6279999999999992 5.346  0.6279999999999992 15.758000000000003  C 0.6279999999999992 18.142  0.5819999999999992 20.994  0.6579999999999993 24.016  C 0.9059999999999993 34.199999999999996  2.5259999999999994 44.233999999999995  11.94 46.726  C 16.28 47.874  20.008 48.116  23.01 47.949999999999996  C 28.454 47.65  31.509999999999998 46.00599999999999  31.509999999999998 46.00599999999999  L 31.33 42.05599999999999  C 31.33 42.05599999999999  27.439999999999998 43.28199999999999  23.072 43.13399999999999  C 18.741999999999997 42.98599999999999  14.174000000000001 42.66799999999999  13.474 37.35199999999999  C 13.408284266885595 36.858081447305445  13.376210373344978 36.36026789131055  13.377999999999997 35.86199999999999  C 13.377999999999997 35.86199999999999  17.628 36.90199999999999  23.012 37.14799999999999  C 26.304000000000002 37.29799999999999  29.392 36.953999999999986  32.528 36.58199999999999  C 38.542 35.86399999999999  43.778 32.15799999999999  44.436 28.771999999999984  Z M 37 29.176000000000002  L 37.338 29.176000000000002  L 32 29.176000000000002  L 32 16.938  C 32.344 14.357999999999999  31.258 13.049999999999999  29.087999999999997 13.049999999999999  C 26.688000000000002 13.049999999999999  25.484 14.601999999999999  25.484 17.674  L 25.484 24.372  L 20.518 24.372  L 20.518 17.672  C 20.518 14.600000000000001  19.314 13.048000000000002  16.914 13.048000000000002  C 14.744000000000002 13.048000000000002  13.658000000000003 14.358  14 16.936  L 14 29.174  L 9 29.174  L 9 16.568  C 8.664 13.990000000000002  9.32 11.942  10.638 10.428  C 11.998 8.912  13.776 8.136000000000001  15.985999999999999 8.136000000000001  C 18.542 8.136000000000001  20.478 9.118  21.758000000000003 11.084000000000001  L 23 13.169999999999998  L 24.244000000000003 11.084  C 25.523999999999997 9.118  27.460000000000004 8.136  30.016 8.136  C 32.224 8.136  34.004 8.911999999999999  35.364 10.427999999999999  C 36.68 11.941999999999998  37.336 13.989999999999998  37 16.567999999999998  L 37 29.176000000000002  Z " fill-rule="nonzero" fill="rgba(48, 136, 212, 1)" stroke="none" class="fill" />
    <path d="M 44.436 28.771999999999984  C 45.47 23.441999999999986  45.386 15.757999999999988  45.386 15.758  C 45.386 5.345999999999998  38.564 2.2939999999999987  38.564 2.2939999999999987  C 35.124 0.714  29.215999999999998 0.05  23.082 0  L 22.93 0  C 16.794 0.05  10.89 0.714  7.449999999999999 2.294  C 7.449999999999999 2.294  0.6279999999999992 5.346  0.6279999999999992 15.758000000000003  C 0.6279999999999992 18.142  0.5819999999999992 20.994  0.6579999999999993 24.016  C 0.9059999999999993 34.199999999999996  2.5259999999999994 44.233999999999995  11.94 46.726  C 16.28 47.874  20.008 48.116  23.01 47.949999999999996  C 28.454 47.65  31.509999999999998 46.00599999999999  31.509999999999998 46.00599999999999  L 31.33 42.05599999999999  C 31.33 42.05599999999999  27.439999999999998 43.28199999999999  23.072 43.13399999999999  C 18.741999999999997 42.98599999999999  14.174000000000001 42.66799999999999  13.474 37.35199999999999  C 13.408284266885595 36.858081447305445  13.376210373344978 36.36026789131055  13.377999999999997 35.86199999999999  C 13.377999999999997 35.86199999999999  17.628 36.90199999999999  23.012 37.14799999999999  C 26.304000000000002 37.29799999999999  29.392 36.953999999999986  32.528 36.58199999999999  C 38.542 35.86399999999999  43.778 32.15799999999999  44.436 28.771999999999984  Z " stroke-width="0" stroke-dasharray="0" stroke="rgba(255, 255, 255, 0)" fill="none" class="stroke" mask="url(#Clip7126)" />
    <path d="M 37 29.176000000000002  L 37.338 29.176000000000002  L 32 29.176000000000002  L 32 16.938  C 32.344 14.357999999999999  31.258 13.049999999999999  29.087999999999997 13.049999999999999  C 26.688000000000002 13.049999999999999  25.484 14.601999999999999  25.484 17.674  L 25.484 24.372  L 20.518 24.372  L 20.518 17.672  C 20.518 14.600000000000001  19.314 13.048000000000002  16.914 13.048000000000002  C 14.744000000000002 13.048000000000002  13.658000000000003 14.358  14 16.936  L 14 29.174  L 9 29.174  L 9 16.568  C 8.664 13.990000000000002  9.32 11.942  10.638 10.428  C 11.998 8.912  13.776 8.136000000000001  15.985999999999999 8.136000000000001  C 18.542 8.136000000000001  20.478 9.118  21.758000000000003 11.084000000000001  L 23 13.169999999999998  L 24.244000000000003 11.084  C 25.523999999999997 9.118  27.460000000000004 8.136  30.016 8.136  C 32.224 8.136  34.004 8.911999999999999  35.364 10.427999999999999  C 36.68 11.941999999999998  37.336 13.989999999999998  37 16.567999999999998  L 37 29.176000000000002  Z " stroke-width="0" stroke-dasharray="0" stroke="rgba(255, 255, 255, 0)" fill="none" class="stroke" mask="url(#Clip7126)" />
  </g>
</svg>