<?xml version="1.0" encoding="utf-8"?>
<svg version="1.1" xmlns:xlink="http://www.w3.org/1999/xlink" width="41px" height="50px" xmlns="http://www.w3.org/2000/svg">
  <defs>
    <pattern id="BGPattern" patternUnits="userSpaceOnUse" alignment="0 0" imageRepeat="None" />
    <mask fill="white" id="Clip1233">
      <path d="M 22.25 25.02500000000001  C 21.07499999999999 26.212500000000006  19.17500000000001 26.212500000000006  18 25.037499999999994  L 1 8.037499999999994  C -0.17500000000001137 6.862500000000011  -0.17500000000001137 4.962500000000006  1 3.800000000000012  L 3.8249999999999886 0.9749999999999943  C 5 -0.19999999999998863  6.900000000000006 -0.19999999999998863  8.0625 0.9749999999999943  L 20.11250000000001 13.025000000000006  L 32.162499999999994 0.9749999999999943  C 33.337500000000006 -0.19999999999998863  35.23750000000001 -0.19999999999998863  36.400000000000006 0.9749999999999943  L 39.25 3.7874999999999943  C 40.42500000000001 4.962500000000006  40.42500000000001 6.862500000000011  39.25 8.025000000000006  L 22.25 25.02500000000001  Z M 18 49.025000000000006  C 19.17500000000001 50.212499999999984  21.07499999999999 50.212499999999984  22.25 49.037499999999994  L 39.25 32.037499999999994  C 40.42500000000001 30.862500000000008  40.42500000000001 28.96250000000001  39.25 27.800000000000015  L 36.42500000000001 24.974999999999994  C 35.25 23.80000000000001  33.349999999999994 23.80000000000001  32.1875 24.974999999999994  L 20.125 37.01249999999999  L 8.074999999999989 24.962500000000006  C 6.900000000000006 23.787499999999994  5 23.787499999999994  3.8375000000000057 24.962500000000006  L 1 27.787499999999994  C -0.17500000000001137 28.96250000000001  -0.17500000000001137 30.862500000000008  1 32.025000000000006  L 18 49.025000000000006  Z " fill-rule="evenodd" />
    </mask>
  </defs>
  <g>
    <path d="M 22.25 25.02500000000001  C 21.07499999999999 26.212500000000006  19.17500000000001 26.212500000000006  18 25.037499999999994  L 1 8.037499999999994  C -0.17500000000001137 6.862500000000011  -0.17500000000001137 4.962500000000006  1 3.800000000000012  L 3.8249999999999886 0.9749999999999943  C 5 -0.19999999999998863  6.900000000000006 -0.19999999999998863  8.0625 0.9749999999999943  L 20.11250000000001 13.025000000000006  L 32.162499999999994 0.9749999999999943  C 33.337500000000006 -0.19999999999998863  35.23750000000001 -0.19999999999998863  36.400000000000006 0.9749999999999943  L 39.25 3.7874999999999943  C 40.42500000000001 4.962500000000006  40.42500000000001 6.862500000000011  39.25 8.025000000000006  L 22.25 25.02500000000001  Z M 18 49.025000000000006  C 19.17500000000001 50.212499999999984  21.07499999999999 50.212499999999984  22.25 49.037499999999994  L 39.25 32.037499999999994  C 40.42500000000001 30.862500000000008  40.42500000000001 28.96250000000001  39.25 27.800000000000015  L 36.42500000000001 24.974999999999994  C 35.25 23.80000000000001  33.349999999999994 23.80000000000001  32.1875 24.974999999999994  L 20.125 37.01249999999999  L 8.074999999999989 24.962500000000006  C 6.900000000000006 23.787499999999994  5 23.787499999999994  3.8375000000000057 24.962500000000006  L 1 27.787499999999994  C -0.17500000000001137 28.96250000000001  -0.17500000000001137 30.862500000000008  1 32.025000000000006  L 18 49.025000000000006  Z " fill-rule="nonzero" fill="rgba(0, 0, 0, 1)" stroke="none" class="fill" />
    <path d="M 22.25 25.02500000000001  C 21.07499999999999 26.212500000000006  19.17500000000001 26.212500000000006  18 25.037499999999994  L 1 8.037499999999994  C -0.17500000000001137 6.862500000000011  -0.17500000000001137 4.962500000000006  1 3.800000000000012  L 3.8249999999999886 0.9749999999999943  C 5 -0.19999999999998863  6.900000000000006 -0.19999999999998863  8.0625 0.9749999999999943  L 20.11250000000001 13.025000000000006  L 32.162499999999994 0.9749999999999943  C 33.337500000000006 -0.19999999999998863  35.23750000000001 -0.19999999999998863  36.400000000000006 0.9749999999999943  L 39.25 3.7874999999999943  C 40.42500000000001 4.962500000000006  40.42500000000001 6.862500000000011  39.25 8.025000000000006  L 22.25 25.02500000000001  Z " stroke-width="0" stroke-dasharray="0" stroke="rgba(255, 255, 255, 0)" fill="none" class="stroke" mask="url(#Clip1233)" />
    <path d="M 18 49.025000000000006  C 19.17500000000001 50.212499999999984  21.07499999999999 50.212499999999984  22.25 49.037499999999994  L 39.25 32.037499999999994  C 40.42500000000001 30.862500000000008  40.42500000000001 28.96250000000001  39.25 27.800000000000015  L 36.42500000000001 24.974999999999994  C 35.25 23.80000000000001  33.349999999999994 23.80000000000001  32.1875 24.974999999999994  L 20.125 37.01249999999999  L 8.074999999999989 24.962500000000006  C 6.900000000000006 23.787499999999994  5 23.787499999999994  3.8375000000000057 24.962500000000006  L 1 27.787499999999994  C -0.17500000000001137 28.96250000000001  -0.17500000000001137 30.862500000000008  1 32.025000000000006  L 18 49.025000000000006  Z " stroke-width="0" stroke-dasharray="0" stroke="rgba(255, 255, 255, 0)" fill="none" class="stroke" mask="url(#Clip1233)" />
  </g>
</svg>