<?xml version="1.0" encoding="utf-8"?>
<svg version="1.1" xmlns:xlink="http://www.w3.org/1999/xlink" width="26px" height="16px" xmlns="http://www.w3.org/2000/svg">
  <defs>
    <pattern id="BGPattern" patternUnits="userSpaceOnUse" alignment="0 0" imageRepeat="None" />
    <mask fill="white" id="Clip4060">
      <path d="M 2 0  C 0.8959559279449087 0.0012674655592963546  0.0012674655592967987 0.8959559279449092  0 2  L 0 14  C 0.0011024596593411928 15.104112523499232  0.8958874765007708 15.99889754034066  2 16  L 24 16  C 25.10404407205509 15.998732534440702  25.998732534440702 15.104044072055093  26 14  L 26 2  C 25.998512673471637 0.8960471580677822  25.103952841932216 0.0014873265283590342  24 0  L 2 0  Z M 2 14  L 2 2  L 4 2  L 4 14  L 2 14  Z M 24 2  L 24 14  L 6 14  L 6 2  L 24 2  Z " fill-rule="evenodd" />
    </mask>
  </defs>
  <g transform="matrix(1 0 0 1 -3 -8 )">
    <path d="M 2 0  C 0.8959559279449087 0.0012674655592963546  0.0012674655592967987 0.8959559279449092  0 2  L 0 14  C 0.0011024596593411928 15.104112523499232  0.8958874765007708 15.99889754034066  2 16  L 24 16  C 25.10404407205509 15.998732534440702  25.998732534440702 15.104044072055093  26 14  L 26 2  C 25.998512673471637 0.8960471580677822  25.103952841932216 0.0014873265283590342  24 0  L 2 0  Z M 2 14  L 2 2  L 4 2  L 4 14  L 2 14  Z M 24 2  L 24 14  L 6 14  L 6 2  L 24 2  Z " fill-rule="nonzero" fill="rgba(0, 0, 0, 1)" stroke="none" transform="matrix(1 0 0 1 3 8 )" class="fill" />
    <path d="M 2 0  C 0.8959559279449087 0.0012674655592963546  0.0012674655592967987 0.8959559279449092  0 2  L 0 14  C 0.0011024596593411928 15.104112523499232  0.8958874765007708 15.99889754034066  2 16  L 24 16  C 25.10404407205509 15.998732534440702  25.998732534440702 15.104044072055093  26 14  L 26 2  C 25.998512673471637 0.8960471580677822  25.103952841932216 0.0014873265283590342  24 0  L 2 0  Z " stroke-width="0" stroke-dasharray="0" stroke="rgba(255, 255, 255, 0)" fill="none" transform="matrix(1 0 0 1 3 8 )" class="stroke" mask="url(#Clip4060)" />
    <path d="M 2 14  L 2 2  L 4 2  L 4 14  L 2 14  Z " stroke-width="0" stroke-dasharray="0" stroke="rgba(255, 255, 255, 0)" fill="none" transform="matrix(1 0 0 1 3 8 )" class="stroke" mask="url(#Clip4060)" />
    <path d="M 24 2  L 24 14  L 6 14  L 6 2  L 24 2  Z " stroke-width="0" stroke-dasharray="0" stroke="rgba(255, 255, 255, 0)" fill="none" transform="matrix(1 0 0 1 3 8 )" class="stroke" mask="url(#Clip4060)" />
  </g>
</svg>