<?xml version="1.0" encoding="utf-8"?>
<svg version="1.1" xmlns:xlink="http://www.w3.org/1999/xlink" width="23px" height="23px" xmlns="http://www.w3.org/2000/svg">
  <defs>
    <pattern id="BGPattern" patternUnits="userSpaceOnUse" alignment="0 0" imageRepeat="None" />
    <mask fill="white" id="Clip5055">
      <path d="M 0.75 2  C 0.3357864376269049 2  0 1.664213562373095  0 1.25  C 0 0.8357864376269051  0.3357864376269049 0.5  0.75 0.5  L 3 0.5  C 3.3442278510810937 0.5000950959905774  3.6441968699951244 0.7345038757192737  3.7275000000000005 1.0685000000000002  L 4.335 3.5  L 21.75 3.5  C 22.16403663168905 3.5002500198434037  22.499547105656813 3.835963156080356  22.499547105656813 4.249999863257797  C 22.499547105656813 4.299359218278767  22.494674442583452 4.348598025982552  22.485 4.397  L 20.985 11.896999999999998  C 20.917490055120986 12.233461086456266  20.63022995538003 12.481184312254385  20.2875 12.498499999999998  L 6.192 13.206499999999998  L 6.6225 15.5  L 19.5 15.5  C 19.914213562373096 15.5  20.25 15.835786437626904  20.25 16.25  C 20.25 16.664213562373096  19.914213562373096 17  19.5 17  L 6 17  C 5.639267516501567 16.99966584479618  5.32987465067304 16.742573605981438  5.2635 16.388  L 3.015 4.410500000000001  L 2.415 2  L 0.75 2  Z M 10.5 20  C 10.5 18.34314575050762  9.15685424949238 17  7.5 17  C 5.84314575050762 17  4.5 18.34314575050762  4.5 20  C 4.5 21.65685424949238  5.84314575050762 23  7.5 23  C 9.15685424949238 23  10.5 21.65685424949238  10.5 20  Z M 21 20  C 21 18.34314575050762  19.65685424949238 17  18 17  C 16.34314575050762 17  15 18.34314575050762  15 20  C 15 21.65685424949238  16.34314575050762 23  18 23  C 19.65685424949238 23  21 21.65685424949238  21 20  Z M 20.835 5  L 4.653 5  L 5.913 11.718499999999999  L 19.629 11.03  L 20.835 5  Z M 6 20  C 6 19.17157287525381  6.671572875253811 18.5  7.5 18.5  C 8.32842712474619 18.5  9 19.17157287525381  9 20  C 9 20.82842712474619  8.32842712474619 21.5  7.5 21.5  C 6.671572875253811 21.5  6 20.82842712474619  6 20  Z M 16.5 20  C 16.5 19.17157287525381  17.17157287525381 18.5  18 18.5  C 18.82842712474619 18.5  19.5 19.17157287525381  19.5 20  C 19.5 20.82842712474619  18.82842712474619 21.5  18 21.5  C 17.17157287525381 21.5  16.5 20.82842712474619  16.5 20  Z " fill-rule="evenodd" />
    </mask>
  </defs>
  <g>
    <path d="M 0.75 2  C 0.3357864376269049 2  0 1.664213562373095  0 1.25  C 0 0.8357864376269051  0.3357864376269049 0.5  0.75 0.5  L 3 0.5  C 3.3442278510810937 0.5000950959905774  3.6441968699951244 0.7345038757192737  3.7275000000000005 1.0685000000000002  L 4.335 3.5  L 21.75 3.5  C 22.16403663168905 3.5002500198434037  22.499547105656813 3.835963156080356  22.499547105656813 4.249999863257797  C 22.499547105656813 4.299359218278767  22.494674442583452 4.348598025982552  22.485 4.397  L 20.985 11.896999999999998  C 20.917490055120986 12.233461086456266  20.63022995538003 12.481184312254385  20.2875 12.498499999999998  L 6.192 13.206499999999998  L 6.6225 15.5  L 19.5 15.5  C 19.914213562373096 15.5  20.25 15.835786437626904  20.25 16.25  C 20.25 16.664213562373096  19.914213562373096 17  19.5 17  L 6 17  C 5.639267516501567 16.99966584479618  5.32987465067304 16.742573605981438  5.2635 16.388  L 3.015 4.410500000000001  L 2.415 2  L 0.75 2  Z M 10.5 20  C 10.5 18.34314575050762  9.15685424949238 17  7.5 17  C 5.84314575050762 17  4.5 18.34314575050762  4.5 20  C 4.5 21.65685424949238  5.84314575050762 23  7.5 23  C 9.15685424949238 23  10.5 21.65685424949238  10.5 20  Z M 21 20  C 21 18.34314575050762  19.65685424949238 17  18 17  C 16.34314575050762 17  15 18.34314575050762  15 20  C 15 21.65685424949238  16.34314575050762 23  18 23  C 19.65685424949238 23  21 21.65685424949238  21 20  Z M 20.835 5  L 4.653 5  L 5.913 11.718499999999999  L 19.629 11.03  L 20.835 5  Z M 6 20  C 6 19.17157287525381  6.671572875253811 18.5  7.5 18.5  C 8.32842712474619 18.5  9 19.17157287525381  9 20  C 9 20.82842712474619  8.32842712474619 21.5  7.5 21.5  C 6.671572875253811 21.5  6 20.82842712474619  6 20  Z M 16.5 20  C 16.5 19.17157287525381  17.17157287525381 18.5  18 18.5  C 18.82842712474619 18.5  19.5 19.17157287525381  19.5 20  C 19.5 20.82842712474619  18.82842712474619 21.5  18 21.5  C 17.17157287525381 21.5  16.5 20.82842712474619  16.5 20  Z " fill-rule="nonzero" fill="rgba(0, 0, 0, 1)" stroke="none" class="fill" />
    <path d="M 0.75 2  C 0.3357864376269049 2  0 1.664213562373095  0 1.25  C 0 0.8357864376269051  0.3357864376269049 0.5  0.75 0.5  L 3 0.5  C 3.3442278510810937 0.5000950959905774  3.6441968699951244 0.7345038757192737  3.7275000000000005 1.0685000000000002  L 4.335 3.5  L 21.75 3.5  C 22.16403663168905 3.5002500198434037  22.499547105656813 3.835963156080356  22.499547105656813 4.249999863257797  C 22.499547105656813 4.299359218278767  22.494674442583452 4.348598025982552  22.485 4.397  L 20.985 11.896999999999998  C 20.917490055120986 12.233461086456266  20.63022995538003 12.481184312254385  20.2875 12.498499999999998  L 6.192 13.206499999999998  L 6.6225 15.5  L 19.5 15.5  C 19.914213562373096 15.5  20.25 15.835786437626904  20.25 16.25  C 20.25 16.664213562373096  19.914213562373096 17  19.5 17  L 6 17  C 5.639267516501567 16.99966584479618  5.32987465067304 16.742573605981438  5.2635 16.388  L 3.015 4.410500000000001  L 2.415 2  L 0.75 2  Z " stroke-width="0" stroke-dasharray="0" stroke="rgba(255, 255, 255, 0)" fill="none" class="stroke" mask="url(#Clip5055)" />
    <path d="M 10.5 20  C 10.5 18.34314575050762  9.15685424949238 17  7.5 17  C 5.84314575050762 17  4.5 18.34314575050762  4.5 20  C 4.5 21.65685424949238  5.84314575050762 23  7.5 23  C 9.15685424949238 23  10.5 21.65685424949238  10.5 20  Z " stroke-width="0" stroke-dasharray="0" stroke="rgba(255, 255, 255, 0)" fill="none" class="stroke" mask="url(#Clip5055)" />
    <path d="M 21 20  C 21 18.34314575050762  19.65685424949238 17  18 17  C 16.34314575050762 17  15 18.34314575050762  15 20  C 15 21.65685424949238  16.34314575050762 23  18 23  C 19.65685424949238 23  21 21.65685424949238  21 20  Z " stroke-width="0" stroke-dasharray="0" stroke="rgba(255, 255, 255, 0)" fill="none" class="stroke" mask="url(#Clip5055)" />
    <path d="M 20.835 5  L 4.653 5  L 5.913 11.718499999999999  L 19.629 11.03  L 20.835 5  Z " stroke-width="0" stroke-dasharray="0" stroke="rgba(255, 255, 255, 0)" fill="none" class="stroke" mask="url(#Clip5055)" />
    <path d="M 6 20  C 6 19.17157287525381  6.671572875253811 18.5  7.5 18.5  C 8.32842712474619 18.5  9 19.17157287525381  9 20  C 9 20.82842712474619  8.32842712474619 21.5  7.5 21.5  C 6.671572875253811 21.5  6 20.82842712474619  6 20  Z " stroke-width="0" stroke-dasharray="0" stroke="rgba(255, 255, 255, 0)" fill="none" class="stroke" mask="url(#Clip5055)" />
    <path d="M 16.5 20  C 16.5 19.17157287525381  17.17157287525381 18.5  18 18.5  C 18.82842712474619 18.5  19.5 19.17157287525381  19.5 20  C 19.5 20.82842712474619  18.82842712474619 21.5  18 21.5  C 17.17157287525381 21.5  16.5 20.82842712474619  16.5 20  Z " stroke-width="0" stroke-dasharray="0" stroke="rgba(255, 255, 255, 0)" fill="none" class="stroke" mask="url(#Clip5055)" />
  </g>
</svg>