<?xml version="1.0" encoding="utf-8"?>
<svg version="1.1" xmlns:xlink="http://www.w3.org/1999/xlink" width="56px" height="56px" xmlns="http://www.w3.org/2000/svg">
  <defs>
    <pattern id="BGPattern" patternUnits="userSpaceOnUse" alignment="0 0" imageRepeat="None" />
    <mask fill="white" id="Clip2494">
      <path d="M 56 28  C 56 12.537500000000001  43.4625 0  28 0  C 12.537500000000001 0  0 12.537500000000001  0 28  C 0 43.4625  12.537500000000001 56  28 56  C 43.4625 56  56 43.4625  56 28  Z M 51.25 28  C 51.25 40.8375  40.8375 51.25  28 51.25  C 15.162500000000001 51.25  4.75 40.8375  4.75 28  C 4.75 15.162500000000001  15.162500000000001 4.75  28 4.75  C 40.8375 4.75  51.25 15.162500000000001  51.25 28  Z M 41.67401500906784 16.35989600326696  C 41.67401500906784 15.534887448534846  41.168352547510594 14.79420545113232  40.4 14.493749999999999  C 39.90565595040815 14.300577741283982  39.35480113974448 14.311819676195483  38.86875 14.524999999999999  L 21.93125 21.9375  L 14.524999999999999 38.875  C 14.299999999999995 39.3875  14.299999999999995 39.96875  14.524999999999999 40.48125  C 14.737499999999995 40.96875  15.131249999999998 41.35  15.631249999999996 41.54375  C 15.868749999999997 41.6375  16.112499999999997 41.681250000000006  16.362499999999997 41.681250000000006  C 16.637499999999996 41.681250000000006  16.906249999999996 41.62500000000001  17.162499999999998 41.5125  L 34.099999999999994 34.1  L 41.50624999999999 17.1625  C 41.61689766068803 16.909389568041153  41.67401500906784 16.63613466019631  41.67401500906784 16.35989600326696  Z M 36.275 19.75  L 32.05 29.400000000000002  L 33.6875 31.0375  L 31.0375 33.6875  L 29.400000000000002 32.05  L 19.75 36.275  L 23.96875 26.625  L 22.375 25.025  L 25.025 22.375  L 26.61875 23.96875  L 36.275 19.75  Z M 26.624999999999996 23.96875  L 25.025 22.375  L 22.375 25.025  L 23.96875 26.625  L 29.400000000000002 32.05  L 31.0375 33.6875  L 33.6875 31.0375  L 32.05 29.400000000000002  L 26.624999999999996 23.96875  Z " fill-rule="evenodd" />
    </mask>
  </defs>
  <g>
    <path d="M 56 28  C 56 12.537500000000001  43.4625 0  28 0  C 12.537500000000001 0  0 12.537500000000001  0 28  C 0 43.4625  12.537500000000001 56  28 56  C 43.4625 56  56 43.4625  56 28  Z M 51.25 28  C 51.25 40.8375  40.8375 51.25  28 51.25  C 15.162500000000001 51.25  4.75 40.8375  4.75 28  C 4.75 15.162500000000001  15.162500000000001 4.75  28 4.75  C 40.8375 4.75  51.25 15.162500000000001  51.25 28  Z M 41.67401500906784 16.35989600326696  C 41.67401500906784 15.534887448534846  41.168352547510594 14.79420545113232  40.4 14.493749999999999  C 39.90565595040815 14.300577741283982  39.35480113974448 14.311819676195483  38.86875 14.524999999999999  L 21.93125 21.9375  L 14.524999999999999 38.875  C 14.299999999999995 39.3875  14.299999999999995 39.96875  14.524999999999999 40.48125  C 14.737499999999995 40.96875  15.131249999999998 41.35  15.631249999999996 41.54375  C 15.868749999999997 41.6375  16.112499999999997 41.681250000000006  16.362499999999997 41.681250000000006  C 16.637499999999996 41.681250000000006  16.906249999999996 41.62500000000001  17.162499999999998 41.5125  L 34.099999999999994 34.1  L 41.50624999999999 17.1625  C 41.61689766068803 16.909389568041153  41.67401500906784 16.63613466019631  41.67401500906784 16.35989600326696  Z M 36.275 19.75  L 32.05 29.400000000000002  L 33.6875 31.0375  L 31.0375 33.6875  L 29.400000000000002 32.05  L 19.75 36.275  L 23.96875 26.625  L 22.375 25.025  L 25.025 22.375  L 26.61875 23.96875  L 36.275 19.75  Z M 26.624999999999996 23.96875  L 25.025 22.375  L 22.375 25.025  L 23.96875 26.625  L 29.400000000000002 32.05  L 31.0375 33.6875  L 33.6875 31.0375  L 32.05 29.400000000000002  L 26.624999999999996 23.96875  Z " fill-rule="nonzero" fill="rgba(0, 0, 0, 1)" stroke="none" class="fill" />
    <path d="M 56 28  C 56 12.537500000000001  43.4625 0  28 0  C 12.537500000000001 0  0 12.537500000000001  0 28  C 0 43.4625  12.537500000000001 56  28 56  C 43.4625 56  56 43.4625  56 28  Z " stroke-width="0" stroke-dasharray="0" stroke="rgba(255, 255, 255, 0)" fill="none" class="stroke" mask="url(#Clip2494)" />
    <path d="M 51.25 28  C 51.25 40.8375  40.8375 51.25  28 51.25  C 15.162500000000001 51.25  4.75 40.8375  4.75 28  C 4.75 15.162500000000001  15.162500000000001 4.75  28 4.75  C 40.8375 4.75  51.25 15.162500000000001  51.25 28  Z " stroke-width="0" stroke-dasharray="0" stroke="rgba(255, 255, 255, 0)" fill="none" class="stroke" mask="url(#Clip2494)" />
    <path d="M 41.67401500906784 16.35989600326696  C 41.67401500906784 15.534887448534846  41.168352547510594 14.79420545113232  40.4 14.493749999999999  C 39.90565595040815 14.300577741283982  39.35480113974448 14.311819676195483  38.86875 14.524999999999999  L 21.93125 21.9375  L 14.524999999999999 38.875  C 14.299999999999995 39.3875  14.299999999999995 39.96875  14.524999999999999 40.48125  C 14.737499999999995 40.96875  15.131249999999998 41.35  15.631249999999996 41.54375  C 15.868749999999997 41.6375  16.112499999999997 41.681250000000006  16.362499999999997 41.681250000000006  C 16.637499999999996 41.681250000000006  16.906249999999996 41.62500000000001  17.162499999999998 41.5125  L 34.099999999999994 34.1  L 41.50624999999999 17.1625  C 41.61689766068803 16.909389568041153  41.67401500906784 16.63613466019631  41.67401500906784 16.35989600326696  Z " stroke-width="0" stroke-dasharray="0" stroke="rgba(255, 255, 255, 0)" fill="none" class="stroke" mask="url(#Clip2494)" />
    <path d="M 36.275 19.75  L 32.05 29.400000000000002  L 33.6875 31.0375  L 31.0375 33.6875  L 29.400000000000002 32.05  L 19.75 36.275  L 23.96875 26.625  L 22.375 25.025  L 25.025 22.375  L 26.61875 23.96875  L 36.275 19.75  Z " stroke-width="0" stroke-dasharray="0" stroke="rgba(255, 255, 255, 0)" fill="none" class="stroke" mask="url(#Clip2494)" />
    <path d="M 26.624999999999996 23.96875  L 25.025 22.375  L 22.375 25.025  L 23.96875 26.625  L 29.400000000000002 32.05  L 31.0375 33.6875  L 33.6875 31.0375  L 32.05 29.400000000000002  L 26.624999999999996 23.96875  Z " stroke-width="0" stroke-dasharray="0" stroke="rgba(255, 255, 255, 0)" fill="none" class="stroke" mask="url(#Clip2494)" />
  </g>
</svg>