<?xml version="1.0" encoding="utf-8"?>
<svg version="1.1" xmlns:xlink="http://www.w3.org/1999/xlink" width="29px" height="50px" xmlns="http://www.w3.org/2000/svg">
  <defs>
    <pattern id="BGPattern" patternUnits="userSpaceOnUse" alignment="0 0" imageRepeat="None" />
    <mask fill="white" id="Clip1360">
      <path d="M 5.728523489932854 48.960402684563746  C 3.6145973154362423 51.07449664429532  0 49.57718120805367  0 46.58758389261743  L 0 3.4124161073825405  C 0 0.4228187919462983  3.6145973154362423 -1.0743288590604152  5.728523489932854 1.0395973154362537  L 27.316107382550285 22.627181208053685  C 28.626510067114054 23.937583892617454  28.626510067114054 26.062416107382546  27.316107382550285 27.37281879194631  L 5.728523489932854 48.960402684563746  Z " fill-rule="evenodd" />
    </mask>
  </defs>
  <g>
    <path d="M 5.728523489932854 48.960402684563746  C 3.6145973154362423 51.07449664429532  0 49.57718120805367  0 46.58758389261743  L 0 3.4124161073825405  C 0 0.4228187919462983  3.6145973154362423 -1.0743288590604152  5.728523489932854 1.0395973154362537  L 27.316107382550285 22.627181208053685  C 28.626510067114054 23.937583892617454  28.626510067114054 26.062416107382546  27.316107382550285 27.37281879194631  L 5.728523489932854 48.960402684563746  Z " fill-rule="nonzero" fill="rgba(0, 0, 0, 1)" stroke="none" class="fill" />
    <path d="M 5.728523489932854 48.960402684563746  C 3.6145973154362423 51.07449664429532  0 49.57718120805367  0 46.58758389261743  L 0 3.4124161073825405  C 0 0.4228187919462983  3.6145973154362423 -1.0743288590604152  5.728523489932854 1.0395973154362537  L 27.316107382550285 22.627181208053685  C 28.626510067114054 23.937583892617454  28.626510067114054 26.062416107382546  27.316107382550285 27.37281879194631  L 5.728523489932854 48.960402684563746  Z " stroke-width="0" stroke-dasharray="0" stroke="rgba(255, 255, 255, 0)" fill="none" class="stroke" mask="url(#Clip1360)" />
  </g>
</svg>