<?xml version="1.0" encoding="utf-8"?>
<svg version="1.1" xmlns:xlink="http://www.w3.org/1999/xlink" width="24px" height="30px" xmlns="http://www.w3.org/2000/svg">
  <defs>
    <pattern id="BGPattern" patternUnits="userSpaceOnUse" alignment="0 0" imageRepeat="None" />
    <mask fill="white" id="Clip267">
      <path d="M 18.223999999999997 29  L 5.744 29  C 3.007999999999999 29.4  0.7839999999999998 27.176  1 24.439999999999998  L 1 5.559999999999999  C 0.7839999999999998 2.8239999999999985  3.008 0.5999999999999988  5.744 0.5999999999999988  L 13.264 0.5999999999999988  C 14.768 0.5999999999999988  16.128 1.1439999999999988  17.183999999999997 2.2319999999999984  L 21.631999999999998 6.775999999999998  C 22.656 7.831999999999997  23.183999999999997 9.127999999999998  23 10.583999999999998  L 23 24.439999999999998  C 23.183999999999997 27.176  20.959999999999997 29.4  18.223999999999997 29  Z M 3.1839999999999993 24.44  C 3.1839999999999993 25.848000000000003  4.3359999999999985 27  5.744 27  L 18.224 27  C 19.632 27  20.784 25.848  20.784 24.44  L 20.784 10.584000000000001  C 20.784 9.736  20.512 9.064000000000002  19.904 8.440000000000001  L 15.456 3.8960000000000012  C 14.864 3.288000000000002  14.16 3.0000000000000018  13.264 3.0000000000000018  L 5.744 3.0000000000000018  C 4.336 3.0000000000000018  3.1839999999999993 4.152000000000002  3.1839999999999993 5.560000000000002  L 3.1839999999999993 24.44  Z M 15.087999999999997 21.992  C 14.495999999999999 22.68  13.679999999999996 23.112000000000002  12.783999999999999 23.112  C 10.943999999999999 23.112  10.015999999999998 21.479999999999997  10.015999999999998 19.464  C 10.015999999999998 17.4  11.183999999999997 15.767999999999999  13.215999999999998 15.767999999999999  C 13.951999999999998 15.767999999999999  14.495999999999999 15.959999999999997  14.991999999999997 16.471999999999998  L 14.991999999999997 12.711999999999998  L 17 12.711999999999998  L 17 23  L 15.663999999999998 23  C 15.424 23  15.247999999999998 22.904  15.215999999999998 22.696  L 15.087999999999997 21.992  Z M 9 23  L 7 23  L 7 12.984  L 9 12.984  L 9 23  Z M 12.079999999999998 19.464  C 12.079999999999998 20.663999999999998  12.399999999999999 21.432  13.376000000000001 21.432  C 13.968 21.432  14.496000000000002 21.176  14.992 20.584  L 14.992 18.04  C 14.64 17.608  14.176000000000002 17.384  13.616 17.384  C 12.576 17.384  12.079999999999998 18.2  12.079999999999998 19.464  Z " fill-rule="evenodd" />
    </mask>
  </defs>
  <g>
    <path d="M 18.223999999999997 29  L 5.744 29  C 3.007999999999999 29.4  0.7839999999999998 27.176  1 24.439999999999998  L 1 5.559999999999999  C 0.7839999999999998 2.8239999999999985  3.008 0.5999999999999988  5.744 0.5999999999999988  L 13.264 0.5999999999999988  C 14.768 0.5999999999999988  16.128 1.1439999999999988  17.183999999999997 2.2319999999999984  L 21.631999999999998 6.775999999999998  C 22.656 7.831999999999997  23.183999999999997 9.127999999999998  23 10.583999999999998  L 23 24.439999999999998  C 23.183999999999997 27.176  20.959999999999997 29.4  18.223999999999997 29  Z M 3.1839999999999993 24.44  C 3.1839999999999993 25.848000000000003  4.3359999999999985 27  5.744 27  L 18.224 27  C 19.632 27  20.784 25.848  20.784 24.44  L 20.784 10.584000000000001  C 20.784 9.736  20.512 9.064000000000002  19.904 8.440000000000001  L 15.456 3.8960000000000012  C 14.864 3.288000000000002  14.16 3.0000000000000018  13.264 3.0000000000000018  L 5.744 3.0000000000000018  C 4.336 3.0000000000000018  3.1839999999999993 4.152000000000002  3.1839999999999993 5.560000000000002  L 3.1839999999999993 24.44  Z M 15.087999999999997 21.992  C 14.495999999999999 22.68  13.679999999999996 23.112000000000002  12.783999999999999 23.112  C 10.943999999999999 23.112  10.015999999999998 21.479999999999997  10.015999999999998 19.464  C 10.015999999999998 17.4  11.183999999999997 15.767999999999999  13.215999999999998 15.767999999999999  C 13.951999999999998 15.767999999999999  14.495999999999999 15.959999999999997  14.991999999999997 16.471999999999998  L 14.991999999999997 12.711999999999998  L 17 12.711999999999998  L 17 23  L 15.663999999999998 23  C 15.424 23  15.247999999999998 22.904  15.215999999999998 22.696  L 15.087999999999997 21.992  Z M 9 23  L 7 23  L 7 12.984  L 9 12.984  L 9 23  Z M 12.079999999999998 19.464  C 12.079999999999998 20.663999999999998  12.399999999999999 21.432  13.376000000000001 21.432  C 13.968 21.432  14.496000000000002 21.176  14.992 20.584  L 14.992 18.04  C 14.64 17.608  14.176000000000002 17.384  13.616 17.384  C 12.576 17.384  12.079999999999998 18.2  12.079999999999998 19.464  Z " fill-rule="nonzero" fill="rgba(0, 0, 0, 1)" stroke="none" class="fill" />
    <path d="M 18.223999999999997 29  L 5.744 29  C 3.007999999999999 29.4  0.7839999999999998 27.176  1 24.439999999999998  L 1 5.559999999999999  C 0.7839999999999998 2.8239999999999985  3.008 0.5999999999999988  5.744 0.5999999999999988  L 13.264 0.5999999999999988  C 14.768 0.5999999999999988  16.128 1.1439999999999988  17.183999999999997 2.2319999999999984  L 21.631999999999998 6.775999999999998  C 22.656 7.831999999999997  23.183999999999997 9.127999999999998  23 10.583999999999998  L 23 24.439999999999998  C 23.183999999999997 27.176  20.959999999999997 29.4  18.223999999999997 29  Z " stroke-width="0" stroke-dasharray="0" stroke="rgba(255, 255, 255, 0)" fill="none" class="stroke" mask="url(#Clip267)" />
    <path d="M 3.1839999999999993 24.44  C 3.1839999999999993 25.848000000000003  4.3359999999999985 27  5.744 27  L 18.224 27  C 19.632 27  20.784 25.848  20.784 24.44  L 20.784 10.584000000000001  C 20.784 9.736  20.512 9.064000000000002  19.904 8.440000000000001  L 15.456 3.8960000000000012  C 14.864 3.288000000000002  14.16 3.0000000000000018  13.264 3.0000000000000018  L 5.744 3.0000000000000018  C 4.336 3.0000000000000018  3.1839999999999993 4.152000000000002  3.1839999999999993 5.560000000000002  L 3.1839999999999993 24.44  Z " stroke-width="0" stroke-dasharray="0" stroke="rgba(255, 255, 255, 0)" fill="none" class="stroke" mask="url(#Clip267)" />
    <path d="M 15.087999999999997 21.992  C 14.495999999999999 22.68  13.679999999999996 23.112000000000002  12.783999999999999 23.112  C 10.943999999999999 23.112  10.015999999999998 21.479999999999997  10.015999999999998 19.464  C 10.015999999999998 17.4  11.183999999999997 15.767999999999999  13.215999999999998 15.767999999999999  C 13.951999999999998 15.767999999999999  14.495999999999999 15.959999999999997  14.991999999999997 16.471999999999998  L 14.991999999999997 12.711999999999998  L 17 12.711999999999998  L 17 23  L 15.663999999999998 23  C 15.424 23  15.247999999999998 22.904  15.215999999999998 22.696  L 15.087999999999997 21.992  Z " stroke-width="0" stroke-dasharray="0" stroke="rgba(255, 255, 255, 0)" fill="none" class="stroke" mask="url(#Clip267)" />
    <path d="M 9 23  L 7 23  L 7 12.984  L 9 12.984  L 9 23  Z " stroke-width="0" stroke-dasharray="0" stroke="rgba(255, 255, 255, 0)" fill="none" class="stroke" mask="url(#Clip267)" />
    <path d="M 12.079999999999998 19.464  C 12.079999999999998 20.663999999999998  12.399999999999999 21.432  13.376000000000001 21.432  C 13.968 21.432  14.496000000000002 21.176  14.992 20.584  L 14.992 18.04  C 14.64 17.608  14.176000000000002 17.384  13.616 17.384  C 12.576 17.384  12.079999999999998 18.2  12.079999999999998 19.464  Z " stroke-width="0" stroke-dasharray="0" stroke="rgba(255, 255, 255, 0)" fill="none" class="stroke" mask="url(#Clip267)" />
  </g>
</svg>