<?xml version="1.0" encoding="utf-8"?>
<svg version="1.1" xmlns:xlink="http://www.w3.org/1999/xlink" width="48px" height="50px" xmlns="http://www.w3.org/2000/svg">
  <defs>
    <pattern id="BGPattern" patternUnits="userSpaceOnUse" alignment="0 0" imageRepeat="None" />
    <mask fill="white" id="Clip2254">
      <path d="M 13 15.09375  L 5.68125 32.76875  L 8.34375 34.43125  C 8.350000000000001 34.4375  8.3625 34.44375  8.368749999999999 34.449999999999996  L 9.162499999999998 34.949999999999996  L 9.181249999999999 34.96874999999999  C 10.968583260810775 36.0022211368077  12.997896746697204 36.5435151697062  15.0625 36.537499999999994  C 17.86875 36.537499999999994  20.5125 35.55624999999999  22.625 33.8  C 25.512953667608414 31.37838244901252  29.162364810115854 30.052732191667488  32.93125 30.056250000000002  C 36.199999999999996 30.056250000000002  39.31875 31.0375  41.96875 32.8375  L 42.4625 33.15  L 35 15.087499999999999  L 35 4.237500000000001  L 39.45625 4.237500000000001  C 39.731249999999996 4.237500000000001  39.95625 4.012500000000001  39.95625 3.7375000000000007  L 39.95625 0.5  C 39.95625 0.22499999999999964  39.731249999999996 0  39.45625 0  L 8.54375 0  C 8.26875 0  8.04375 0.22499999999999964  8.04375 0.5  L 8.04375 3.7437500000000004  C 8.04375 4.018750000000001  8.26875 4.24375  8.54375 4.24375  L 13 4.24375  L 13 15.09375  Z M 24 22.56875  C 24 21.19375  25.11875 20.075000000000003  26.49375 20.074999999999996  C 27.86875 20.074999999999996  28.987499999999997 21.193749999999994  28.987499999999997 22.568749999999994  C 28.987499999999997 23.943749999999994  27.86875 25.0625  26.49375 25.0625  C 25.11875 25.0625  24 23.94375  24 22.56875  Z M 47.14587512514949 46.01099960097541  C 47.14587512514949 45.517604978130294  47.054018414571516 45.02852240140832  46.875 44.56875  L 45.00625 39.73125  L 39.65 36.3875  L 39.64375 36.393750000000004  C 39.599999999999994 36.362500000000004  39.55 36.331250000000004  39.506249999999994 36.300000000000004  L 38.99999999999999 35.987500000000004  L 38.981249999999996 35.96875000000001  C 37.168749999999996 34.87500000000001  35.0875 34.29375000000001  32.918749999999996 34.29375000000001  C 30.112499999999997 34.29375000000001  27.468749999999993 35.27500000000001  25.356249999999996 37.03125000000001  C 22.468296332391578 39.45286755098748  18.81888518988413 40.77851780833251  15.049999999999997 40.775000000000006  C 11.737499999999997 40.775000000000006  8.581249999999997 39.768750000000004  5.912499999999998 37.925000000000004  L 4.1062499999999975 36.79375  L 1.125 44.56875  C 0.9499999999999993 45.03125  0.8562499999999993 45.518750000000004  0.8562499999999993 46.00625  C 0.8562499999999993 48.206250000000004  2.643749999999999 49.99375  4.84375 50  L 43.15 50  C 43.64375 49.99375  44.13125 49.9  44.58749999999999 49.725  C 46.128021423910674 49.1374015253404  47.14587512514949 47.6597804308464  47.14587512514949 46.01099960097541  Z " fill-rule="evenodd" />
    </mask>
  </defs>
  <g>
    <path d="M 13 15.09375  L 5.68125 32.76875  L 8.34375 34.43125  C 8.350000000000001 34.4375  8.3625 34.44375  8.368749999999999 34.449999999999996  L 9.162499999999998 34.949999999999996  L 9.181249999999999 34.96874999999999  C 10.968583260810775 36.0022211368077  12.997896746697204 36.5435151697062  15.0625 36.537499999999994  C 17.86875 36.537499999999994  20.5125 35.55624999999999  22.625 33.8  C 25.512953667608414 31.37838244901252  29.162364810115854 30.052732191667488  32.93125 30.056250000000002  C 36.199999999999996 30.056250000000002  39.31875 31.0375  41.96875 32.8375  L 42.4625 33.15  L 35 15.087499999999999  L 35 4.237500000000001  L 39.45625 4.237500000000001  C 39.731249999999996 4.237500000000001  39.95625 4.012500000000001  39.95625 3.7375000000000007  L 39.95625 0.5  C 39.95625 0.22499999999999964  39.731249999999996 0  39.45625 0  L 8.54375 0  C 8.26875 0  8.04375 0.22499999999999964  8.04375 0.5  L 8.04375 3.7437500000000004  C 8.04375 4.018750000000001  8.26875 4.24375  8.54375 4.24375  L 13 4.24375  L 13 15.09375  Z M 24 22.56875  C 24 21.19375  25.11875 20.075000000000003  26.49375 20.074999999999996  C 27.86875 20.074999999999996  28.987499999999997 21.193749999999994  28.987499999999997 22.568749999999994  C 28.987499999999997 23.943749999999994  27.86875 25.0625  26.49375 25.0625  C 25.11875 25.0625  24 23.94375  24 22.56875  Z M 47.14587512514949 46.01099960097541  C 47.14587512514949 45.517604978130294  47.054018414571516 45.02852240140832  46.875 44.56875  L 45.00625 39.73125  L 39.65 36.3875  L 39.64375 36.393750000000004  C 39.599999999999994 36.362500000000004  39.55 36.331250000000004  39.506249999999994 36.300000000000004  L 38.99999999999999 35.987500000000004  L 38.981249999999996 35.96875000000001  C 37.168749999999996 34.87500000000001  35.0875 34.29375000000001  32.918749999999996 34.29375000000001  C 30.112499999999997 34.29375000000001  27.468749999999993 35.27500000000001  25.356249999999996 37.03125000000001  C 22.468296332391578 39.45286755098748  18.81888518988413 40.77851780833251  15.049999999999997 40.775000000000006  C 11.737499999999997 40.775000000000006  8.581249999999997 39.768750000000004  5.912499999999998 37.925000000000004  L 4.1062499999999975 36.79375  L 1.125 44.56875  C 0.9499999999999993 45.03125  0.8562499999999993 45.518750000000004  0.8562499999999993 46.00625  C 0.8562499999999993 48.206250000000004  2.643749999999999 49.99375  4.84375 50  L 43.15 50  C 43.64375 49.99375  44.13125 49.9  44.58749999999999 49.725  C 46.128021423910674 49.1374015253404  47.14587512514949 47.6597804308464  47.14587512514949 46.01099960097541  Z " fill-rule="nonzero" fill="rgba(0, 0, 0, 1)" stroke="none" class="fill" />
    <path d="M 13 15.09375  L 5.68125 32.76875  L 8.34375 34.43125  C 8.350000000000001 34.4375  8.3625 34.44375  8.368749999999999 34.449999999999996  L 9.162499999999998 34.949999999999996  L 9.181249999999999 34.96874999999999  C 10.968583260810775 36.0022211368077  12.997896746697204 36.5435151697062  15.0625 36.537499999999994  C 17.86875 36.537499999999994  20.5125 35.55624999999999  22.625 33.8  C 25.512953667608414 31.37838244901252  29.162364810115854 30.052732191667488  32.93125 30.056250000000002  C 36.199999999999996 30.056250000000002  39.31875 31.0375  41.96875 32.8375  L 42.4625 33.15  L 35 15.087499999999999  L 35 4.237500000000001  L 39.45625 4.237500000000001  C 39.731249999999996 4.237500000000001  39.95625 4.012500000000001  39.95625 3.7375000000000007  L 39.95625 0.5  C 39.95625 0.22499999999999964  39.731249999999996 0  39.45625 0  L 8.54375 0  C 8.26875 0  8.04375 0.22499999999999964  8.04375 0.5  L 8.04375 3.7437500000000004  C 8.04375 4.018750000000001  8.26875 4.24375  8.54375 4.24375  L 13 4.24375  L 13 15.09375  Z " stroke-width="0" stroke-dasharray="0" stroke="rgba(255, 255, 255, 0)" fill="none" class="stroke" mask="url(#Clip2254)" />
    <path d="M 24 22.56875  C 24 21.19375  25.11875 20.075000000000003  26.49375 20.074999999999996  C 27.86875 20.074999999999996  28.987499999999997 21.193749999999994  28.987499999999997 22.568749999999994  C 28.987499999999997 23.943749999999994  27.86875 25.0625  26.49375 25.0625  C 25.11875 25.0625  24 23.94375  24 22.56875  Z " stroke-width="0" stroke-dasharray="0" stroke="rgba(255, 255, 255, 0)" fill="none" class="stroke" mask="url(#Clip2254)" />
    <path d="M 47.14587512514949 46.01099960097541  C 47.14587512514949 45.517604978130294  47.054018414571516 45.02852240140832  46.875 44.56875  L 45.00625 39.73125  L 39.65 36.3875  L 39.64375 36.393750000000004  C 39.599999999999994 36.362500000000004  39.55 36.331250000000004  39.506249999999994 36.300000000000004  L 38.99999999999999 35.987500000000004  L 38.981249999999996 35.96875000000001  C 37.168749999999996 34.87500000000001  35.0875 34.29375000000001  32.918749999999996 34.29375000000001  C 30.112499999999997 34.29375000000001  27.468749999999993 35.27500000000001  25.356249999999996 37.03125000000001  C 22.468296332391578 39.45286755098748  18.81888518988413 40.77851780833251  15.049999999999997 40.775000000000006  C 11.737499999999997 40.775000000000006  8.581249999999997 39.768750000000004  5.912499999999998 37.925000000000004  L 4.1062499999999975 36.79375  L 1.125 44.56875  C 0.9499999999999993 45.03125  0.8562499999999993 45.518750000000004  0.8562499999999993 46.00625  C 0.8562499999999993 48.206250000000004  2.643749999999999 49.99375  4.84375 50  L 43.15 50  C 43.64375 49.99375  44.13125 49.9  44.58749999999999 49.725  C 46.128021423910674 49.1374015253404  47.14587512514949 47.6597804308464  47.14587512514949 46.01099960097541  Z " stroke-width="0" stroke-dasharray="0" stroke="rgba(255, 255, 255, 0)" fill="none" class="stroke" mask="url(#Clip2254)" />
  </g>
</svg>