<?xml version="1.0" encoding="utf-8"?>
<svg version="1.1" xmlns:xlink="http://www.w3.org/1999/xlink" width="18px" height="12px" xmlns="http://www.w3.org/2000/svg">
  <defs>
    <pattern id="BGPattern" patternUnits="userSpaceOnUse" alignment="0 0" imageRepeat="None" />
    <mask fill="white" id="Clip4016">
      <path d="M 10.585999999999999 10.585999999999999  L 14.172 7  L 0 7  L 0 5  L 14.172 5  L 10.585999999999999 1.4139999999999997  L 12 0  L 18 6  L 12 12  L 10.585999999999999 10.585999999999999  Z " fill-rule="evenodd" />
    </mask>
  </defs>
  <g transform="matrix(1 0 0 1 -10 -10 )">
    <path d="M 10.585999999999999 10.585999999999999  L 14.172 7  L 0 7  L 0 5  L 14.172 5  L 10.585999999999999 1.4139999999999997  L 12 0  L 18 6  L 12 12  L 10.585999999999999 10.585999999999999  Z " fill-rule="nonzero" fill="rgba(0, 0, 0, 1)" stroke="none" transform="matrix(1 0 0 1 10 10 )" class="fill" />
    <path d="M 10.585999999999999 10.585999999999999  L 14.172 7  L 0 7  L 0 5  L 14.172 5  L 10.585999999999999 1.4139999999999997  L 12 0  L 18 6  L 12 12  L 10.585999999999999 10.585999999999999  Z " stroke-width="0" stroke-dasharray="0" stroke="rgba(255, 255, 255, 0)" fill="none" transform="matrix(1 0 0 1 10 10 )" class="stroke" mask="url(#Clip4016)" />
  </g>
</svg>