<?xml version="1.0" encoding="utf-8"?>
<svg version="1.1" xmlns:xlink="http://www.w3.org/1999/xlink" width="18px" height="18px" xmlns="http://www.w3.org/2000/svg">
  <defs>
    <pattern id="BGPattern" patternUnits="userSpaceOnUse" alignment="0 0" imageRepeat="None" />
    <mask fill="white" id="Clip3981">
      <path d="M 0.39810000000000123 14.57  C 0.398100000000003 16.46433669191962  1.9337633080803798 18  3.828099999999999 18  L 14.1719 18  C 16.066236691919624 18  17.601899999999997 16.464336691919623  17.6019 14.57  L 17.6019 0.33060000000000045  L 14 0.33060000000000045  L 14 14.57  L 0.39810000000000123 14.57  Z " fill-rule="evenodd" />
    </mask>
  </defs>
  <g transform="matrix(1 0 0 1 -7 -10 )">
    <path d="M 0.39810000000000123 14.57  C 0.398100000000003 16.46433669191962  1.9337633080803798 18  3.828099999999999 18  L 14.1719 18  C 16.066236691919624 18  17.601899999999997 16.464336691919623  17.6019 14.57  L 17.6019 0.33060000000000045  L 14 0.33060000000000045  L 14 14.57  L 0.39810000000000123 14.57  Z " fill-rule="nonzero" fill="rgba(39, 36, 37, 1)" stroke="none" transform="matrix(1 0 0 1 7 10 )" class="fill" />
    <path d="M 0.39810000000000123 14.57  C 0.398100000000003 16.46433669191962  1.9337633080803798 18  3.828099999999999 18  L 14.1719 18  C 16.066236691919624 18  17.601899999999997 16.464336691919623  17.6019 14.57  L 17.6019 0.33060000000000045  L 14 0.33060000000000045  L 14 14.57  L 0.39810000000000123 14.57  Z " stroke-width="0" stroke-dasharray="0" stroke="rgba(255, 255, 255, 0)" fill="none" transform="matrix(1 0 0 1 7 10 )" class="stroke" mask="url(#Clip3981)" />
  </g>
</svg>