<?xml version="1.0" encoding="utf-8"?>
<svg version="1.1" xmlns:xlink="http://www.w3.org/1999/xlink" width="5px" height="4px" xmlns="http://www.w3.org/2000/svg">
  <defs>
    <pattern id="BGPattern" patternUnits="userSpaceOnUse" alignment="0 0" imageRepeat="None" />
    <mask fill="white" id="Clip5268">
      <path d="M 0 2.75  L 0 1.25  C 0 0.8357864376269051  0.3357864376269051 0.5  0.75 0.5  L 3.75 0.5  C 4.164213562373095 0.5  4.5 0.8357864376269051  4.5 1.25  L 4.5 2.75  C 4.5 3.164213562373096  4.164213562373095 3.5  3.75 3.5  L 0.75 3.5  C 0.3357864376269051 3.5  0 3.164213562373096  0 2.75  Z " fill-rule="evenodd" />
    </mask>
  </defs>
  <g transform="matrix(1 0 0 1 -3 -4 )">
    <path d="M 0 2.75  L 0 1.25  C 0 0.8357864376269051  0.3357864376269051 0.5  0.75 0.5  L 3.75 0.5  C 4.164213562373095 0.5  4.5 0.8357864376269051  4.5 1.25  L 4.5 2.75  C 4.5 3.164213562373096  4.164213562373095 3.5  3.75 3.5  L 0.75 3.5  C 0.3357864376269051 3.5  0 3.164213562373096  0 2.75  Z " fill-rule="nonzero" fill="rgba(0, 0, 0, 1)" stroke="none" transform="matrix(1 0 0 1 3 4 )" class="fill" />
    <path d="M 0 2.75  L 0 1.25  C 0 0.8357864376269051  0.3357864376269051 0.5  0.75 0.5  L 3.75 0.5  C 4.164213562373095 0.5  4.5 0.8357864376269051  4.5 1.25  L 4.5 2.75  C 4.5 3.164213562373096  4.164213562373095 3.5  3.75 3.5  L 0.75 3.5  C 0.3357864376269051 3.5  0 3.164213562373096  0 2.75  Z " stroke-width="0" stroke-dasharray="0" stroke="rgba(255, 255, 255, 0)" fill="none" transform="matrix(1 0 0 1 3 4 )" class="stroke" mask="url(#Clip5268)" />
  </g>
</svg>