<?xml version="1.0" encoding="utf-8"?>
<svg version="1.1" xmlns:xlink="http://www.w3.org/1999/xlink" width="24px" height="14px" xmlns="http://www.w3.org/2000/svg">
  <defs>
    <pattern id="BGPattern" patternUnits="userSpaceOnUse" alignment="0 0" imageRepeat="None" />
    <mask fill="white" id="Clip4865">
      <path d="M 24 12  L 24 0  L 0 0  L 0 12  C 0 12.828427124746192  0.6715728752538098 13.5  1.5 13.5  L 22.5 13.5  C 23.32842712474619 13.5  24 12.828427124746192  24 12  Z M 6.749999999999998 10.499999999999996  C 4.6789321881345245 10.499999999999996  2.9999999999999996 8.821067811865472  2.9999999999999996 6.7499999999999964  C 2.9999999999999996 4.678932188134523  4.6789321881345245 2.9999999999999982  6.749999999999998 2.9999999999999982  C 8.821067811865476 2.9999999999999982  10.499999999999996 4.678932188134523  10.499999999999996 6.7499999999999964  C 10.499999999999996 8.821067811865472  8.821067811865476 10.499999999999996  6.749999999999998 10.499999999999996  Z M 17.25 10.499999999999996  C 15.178932188134524 10.499999999999996  13.5 8.821067811865472  13.5 6.7499999999999964  C 13.5 4.678932188134523  15.178932188134524 2.9999999999999982  17.25 2.9999999999999982  C 19.321067811865472 2.9999999999999982  20.999999999999996 4.678932188134523  20.999999999999996 6.7499999999999964  C 20.999999999999996 8.821067811865472  19.321067811865472 10.499999999999996  17.25 10.499999999999996  Z " fill-rule="evenodd" />
    </mask>
  </defs>
  <g transform="matrix(1 0 0 1 0 -9 )">
    <path d="M 24 12  L 24 0  L 0 0  L 0 12  C 0 12.828427124746192  0.6715728752538098 13.5  1.5 13.5  L 22.5 13.5  C 23.32842712474619 13.5  24 12.828427124746192  24 12  Z M 6.749999999999998 10.499999999999996  C 4.6789321881345245 10.499999999999996  2.9999999999999996 8.821067811865472  2.9999999999999996 6.7499999999999964  C 2.9999999999999996 4.678932188134523  4.6789321881345245 2.9999999999999982  6.749999999999998 2.9999999999999982  C 8.821067811865476 2.9999999999999982  10.499999999999996 4.678932188134523  10.499999999999996 6.7499999999999964  C 10.499999999999996 8.821067811865472  8.821067811865476 10.499999999999996  6.749999999999998 10.499999999999996  Z M 17.25 10.499999999999996  C 15.178932188134524 10.499999999999996  13.5 8.821067811865472  13.5 6.7499999999999964  C 13.5 4.678932188134523  15.178932188134524 2.9999999999999982  17.25 2.9999999999999982  C 19.321067811865472 2.9999999999999982  20.999999999999996 4.678932188134523  20.999999999999996 6.7499999999999964  C 20.999999999999996 8.821067811865472  19.321067811865472 10.499999999999996  17.25 10.499999999999996  Z " fill-rule="nonzero" fill="rgba(0, 0, 0, 1)" stroke="none" transform="matrix(1 0 0 1 0 9 )" class="fill" />
    <path d="M 24 12  L 24 0  L 0 0  L 0 12  C 0 12.828427124746192  0.6715728752538098 13.5  1.5 13.5  L 22.5 13.5  C 23.32842712474619 13.5  24 12.828427124746192  24 12  Z " stroke-width="0" stroke-dasharray="0" stroke="rgba(255, 255, 255, 0)" fill="none" transform="matrix(1 0 0 1 0 9 )" class="stroke" mask="url(#Clip4865)" />
    <path d="M 6.749999999999998 10.499999999999996  C 4.6789321881345245 10.499999999999996  2.9999999999999996 8.821067811865472  2.9999999999999996 6.7499999999999964  C 2.9999999999999996 4.678932188134523  4.6789321881345245 2.9999999999999982  6.749999999999998 2.9999999999999982  C 8.821067811865476 2.9999999999999982  10.499999999999996 4.678932188134523  10.499999999999996 6.7499999999999964  C 10.499999999999996 8.821067811865472  8.821067811865476 10.499999999999996  6.749999999999998 10.499999999999996  Z " stroke-width="0" stroke-dasharray="0" stroke="rgba(255, 255, 255, 0)" fill="none" transform="matrix(1 0 0 1 0 9 )" class="stroke" mask="url(#Clip4865)" />
    <path d="M 17.25 10.499999999999996  C 15.178932188134524 10.499999999999996  13.5 8.821067811865472  13.5 6.7499999999999964  C 13.5 4.678932188134523  15.178932188134524 2.9999999999999982  17.25 2.9999999999999982  C 19.321067811865472 2.9999999999999982  20.999999999999996 4.678932188134523  20.999999999999996 6.7499999999999964  C 20.999999999999996 8.821067811865472  19.321067811865472 10.499999999999996  17.25 10.499999999999996  Z " stroke-width="0" stroke-dasharray="0" stroke="rgba(255, 255, 255, 0)" fill="none" transform="matrix(1 0 0 1 0 9 )" class="stroke" mask="url(#Clip4865)" />
  </g>
</svg>