<?xml version="1.0" encoding="utf-8"?>
<svg version="1.1" xmlns:xlink="http://www.w3.org/1999/xlink" width="50px" height="41px" xmlns="http://www.w3.org/2000/svg">
  <defs>
    <pattern id="BGPattern" patternUnits="userSpaceOnUse" alignment="0 0" imageRepeat="None" />
    <mask fill="white" id="Clip1737">
      <path d="M 4.6875 0  C 7.276367187500001 0  9.375 2.0986328125  9.375 4.6875  C 9.375 7.276367187499999  7.276367187500001 9.375  4.6875 9.375  C 2.0986328125 9.375  0 7.276367187499999  0 4.6875  C 0 2.0986328125  2.0986328125 0  4.6875 0  Z M 9.375 20.3125  C 9.375 17.7236328125  7.276367187500001 15.625  4.6875 15.625  C 2.0986328125 15.625  0 17.7236328125  0 20.3125  C 0 22.9013671875  2.0986328125 25  4.6875 25  C 7.276367187500001 25  9.375 22.9013671875  9.375 20.3125  Z M 9.375 35.9375  C 9.375 33.3486328125  7.276367187500001 31.25  4.6875 31.25  C 2.0986328125 31.25  0 33.3486328125  0 35.9375  C 0 38.5263671875  2.0986328125 40.625  4.6875 40.625  C 7.276367187500001 40.625  9.375 38.5263671875  9.375 35.9375  Z M 12.5 6.640625  C 12.5 7.503613281250011  13.19951171874999 8.203125  14.0625 9  L 48.4375 9  C 49.30048828125001 8.203125  50 7.503613281250011  50 6.640625  L 50 2.734375  C 50 1.8713867187499886  49.30048828125001 1.171875  48.4375 1.171875  L 14.0625 1.171875  C 13.19951171874999 1.171875  12.5 1.8713867187499886  12.5 2.734375  L 12.5 6.640625  Z M 12.5 22.265625  C 12.5 23.12861328125001  13.19951171874999 23.828125  14.0625 23.828125  L 48.4375 23.828125  C 49.30048828125001 23.828125  50 23.12861328125001  50 22.265625  L 50 18.359375  C 50 17.49638671874999  49.30048828125001 16.796875  48.4375 17  L 14.0625 17  C 13.19951171874999 16.796875  12.5 17.49638671874999  12.5 18.359375  L 12.5 22.265625  Z M 12.5 37.890625  C 12.5 38.75361328125001  13.19951171874999 39.453125  14.0625 39  L 48.4375 39  C 49.30048828125001 39.453125  50 38.75361328125001  50 37.890625  L 50 33.984375  C 50 33.12138671874999  49.30048828125001 32.421875  48.4375 32  L 14.0625 32  C 13.19951171874999 32.421875  12.5 33.12138671874999  12.5 33.984375  L 12.5 37.890625  Z " fill-rule="evenodd" />
    </mask>
  </defs>
  <g>
    <path d="M 4.6875 0  C 7.276367187500001 0  9.375 2.0986328125  9.375 4.6875  C 9.375 7.276367187499999  7.276367187500001 9.375  4.6875 9.375  C 2.0986328125 9.375  0 7.276367187499999  0 4.6875  C 0 2.0986328125  2.0986328125 0  4.6875 0  Z M 9.375 20.3125  C 9.375 17.7236328125  7.276367187500001 15.625  4.6875 15.625  C 2.0986328125 15.625  0 17.7236328125  0 20.3125  C 0 22.9013671875  2.0986328125 25  4.6875 25  C 7.276367187500001 25  9.375 22.9013671875  9.375 20.3125  Z M 9.375 35.9375  C 9.375 33.3486328125  7.276367187500001 31.25  4.6875 31.25  C 2.0986328125 31.25  0 33.3486328125  0 35.9375  C 0 38.5263671875  2.0986328125 40.625  4.6875 40.625  C 7.276367187500001 40.625  9.375 38.5263671875  9.375 35.9375  Z M 12.5 6.640625  C 12.5 7.503613281250011  13.19951171874999 8.203125  14.0625 9  L 48.4375 9  C 49.30048828125001 8.203125  50 7.503613281250011  50 6.640625  L 50 2.734375  C 50 1.8713867187499886  49.30048828125001 1.171875  48.4375 1.171875  L 14.0625 1.171875  C 13.19951171874999 1.171875  12.5 1.8713867187499886  12.5 2.734375  L 12.5 6.640625  Z M 12.5 22.265625  C 12.5 23.12861328125001  13.19951171874999 23.828125  14.0625 23.828125  L 48.4375 23.828125  C 49.30048828125001 23.828125  50 23.12861328125001  50 22.265625  L 50 18.359375  C 50 17.49638671874999  49.30048828125001 16.796875  48.4375 17  L 14.0625 17  C 13.19951171874999 16.796875  12.5 17.49638671874999  12.5 18.359375  L 12.5 22.265625  Z M 12.5 37.890625  C 12.5 38.75361328125001  13.19951171874999 39.453125  14.0625 39  L 48.4375 39  C 49.30048828125001 39.453125  50 38.75361328125001  50 37.890625  L 50 33.984375  C 50 33.12138671874999  49.30048828125001 32.421875  48.4375 32  L 14.0625 32  C 13.19951171874999 32.421875  12.5 33.12138671874999  12.5 33.984375  L 12.5 37.890625  Z " fill-rule="nonzero" fill="rgba(0, 0, 0, 1)" stroke="none" class="fill" />
    <path d="M 4.6875 0  C 7.276367187500001 0  9.375 2.0986328125  9.375 4.6875  C 9.375 7.276367187499999  7.276367187500001 9.375  4.6875 9.375  C 2.0986328125 9.375  0 7.276367187499999  0 4.6875  C 0 2.0986328125  2.0986328125 0  4.6875 0  Z " stroke-width="0" stroke-dasharray="0" stroke="rgba(255, 255, 255, 0)" fill="none" class="stroke" mask="url(#Clip1737)" />
    <path d="M 9.375 20.3125  C 9.375 17.7236328125  7.276367187500001 15.625  4.6875 15.625  C 2.0986328125 15.625  0 17.7236328125  0 20.3125  C 0 22.9013671875  2.0986328125 25  4.6875 25  C 7.276367187500001 25  9.375 22.9013671875  9.375 20.3125  Z " stroke-width="0" stroke-dasharray="0" stroke="rgba(255, 255, 255, 0)" fill="none" class="stroke" mask="url(#Clip1737)" />
    <path d="M 9.375 35.9375  C 9.375 33.3486328125  7.276367187500001 31.25  4.6875 31.25  C 2.0986328125 31.25  0 33.3486328125  0 35.9375  C 0 38.5263671875  2.0986328125 40.625  4.6875 40.625  C 7.276367187500001 40.625  9.375 38.5263671875  9.375 35.9375  Z " stroke-width="0" stroke-dasharray="0" stroke="rgba(255, 255, 255, 0)" fill="none" class="stroke" mask="url(#Clip1737)" />
    <path d="M 12.5 6.640625  C 12.5 7.503613281250011  13.19951171874999 8.203125  14.0625 9  L 48.4375 9  C 49.30048828125001 8.203125  50 7.503613281250011  50 6.640625  L 50 2.734375  C 50 1.8713867187499886  49.30048828125001 1.171875  48.4375 1.171875  L 14.0625 1.171875  C 13.19951171874999 1.171875  12.5 1.8713867187499886  12.5 2.734375  L 12.5 6.640625  Z " stroke-width="0" stroke-dasharray="0" stroke="rgba(255, 255, 255, 0)" fill="none" class="stroke" mask="url(#Clip1737)" />
    <path d="M 12.5 22.265625  C 12.5 23.12861328125001  13.19951171874999 23.828125  14.0625 23.828125  L 48.4375 23.828125  C 49.30048828125001 23.828125  50 23.12861328125001  50 22.265625  L 50 18.359375  C 50 17.49638671874999  49.30048828125001 16.796875  48.4375 17  L 14.0625 17  C 13.19951171874999 16.796875  12.5 17.49638671874999  12.5 18.359375  L 12.5 22.265625  Z " stroke-width="0" stroke-dasharray="0" stroke="rgba(255, 255, 255, 0)" fill="none" class="stroke" mask="url(#Clip1737)" />
    <path d="M 12.5 37.890625  C 12.5 38.75361328125001  13.19951171874999 39.453125  14.0625 39  L 48.4375 39  C 49.30048828125001 39.453125  50 38.75361328125001  50 37.890625  L 50 33.984375  C 50 33.12138671874999  49.30048828125001 32.421875  48.4375 32  L 14.0625 32  C 13.19951171874999 32.421875  12.5 33.12138671874999  12.5 33.984375  L 12.5 37.890625  Z " stroke-width="0" stroke-dasharray="0" stroke="rgba(255, 255, 255, 0)" fill="none" class="stroke" mask="url(#Clip1737)" />
  </g>
</svg>