<?xml version="1.0" encoding="utf-8"?>
<svg version="1.1" xmlns:xlink="http://www.w3.org/1999/xlink" width="18px" height="24px" xmlns="http://www.w3.org/2000/svg">
  <defs>
    <pattern id="BGPattern" patternUnits="userSpaceOnUse" alignment="0 0" imageRepeat="None" />
    <mask fill="white" id="Clip5355">
      <path d="M 0 15  C 0 19.970562748477143  4.029437251522858 24  9 24  C 13.970562748477139 24  17.999999999999996 19.97056274847714  18 15  C 18 8.529  13.5 0  9 0  C 4.5 0  0 8.529  0 15  Z M 16.499999999999996 14.999999999999996  C 16.499999999999996 19.142135623730947  13.142135623730951 22.499999999999993  8.999999999999998 22.499999999999993  C 4.857864376269048 22.499999999999993  1.5 19.142135623730947  1.5 15  C 1.5 12.066  2.535 8.571000000000002  4.1129999999999995 5.82  C 4.899 4.4505  5.781000000000001 3.333  6.6690000000000005 2.574  C 7.566000000000001 1.809  8.358 1.5  9 1.5  C 9.642000000000001 1.5  10.434 1.809  11.330999999999998 2.574  C 12.218999999999998 3.333  13.100999999999999 4.4505  13.887 5.82  C 15.465 8.571000000000002  16.5 12.066  16.499999999999996 14.999999999999996  Z " fill-rule="evenodd" />
    </mask>
  </defs>
  <g>
    <path d="M 0 15  C 0 19.970562748477143  4.029437251522858 24  9 24  C 13.970562748477139 24  17.999999999999996 19.97056274847714  18 15  C 18 8.529  13.5 0  9 0  C 4.5 0  0 8.529  0 15  Z M 16.499999999999996 14.999999999999996  C 16.499999999999996 19.142135623730947  13.142135623730951 22.499999999999993  8.999999999999998 22.499999999999993  C 4.857864376269048 22.499999999999993  1.5 19.142135623730947  1.5 15  C 1.5 12.066  2.535 8.571000000000002  4.1129999999999995 5.82  C 4.899 4.4505  5.781000000000001 3.333  6.6690000000000005 2.574  C 7.566000000000001 1.809  8.358 1.5  9 1.5  C 9.642000000000001 1.5  10.434 1.809  11.330999999999998 2.574  C 12.218999999999998 3.333  13.100999999999999 4.4505  13.887 5.82  C 15.465 8.571000000000002  16.5 12.066  16.499999999999996 14.999999999999996  Z " fill-rule="nonzero" fill="rgba(0, 0, 0, 1)" stroke="none" class="fill" />
    <path d="M 0 15  C 0 19.970562748477143  4.029437251522858 24  9 24  C 13.970562748477139 24  17.999999999999996 19.97056274847714  18 15  C 18 8.529  13.5 0  9 0  C 4.5 0  0 8.529  0 15  Z " stroke-width="0" stroke-dasharray="0" stroke="rgba(255, 255, 255, 0)" fill="none" class="stroke" mask="url(#Clip5355)" />
    <path d="M 16.499999999999996 14.999999999999996  C 16.499999999999996 19.142135623730947  13.142135623730951 22.499999999999993  8.999999999999998 22.499999999999993  C 4.857864376269048 22.499999999999993  1.5 19.142135623730947  1.5 15  C 1.5 12.066  2.535 8.571000000000002  4.1129999999999995 5.82  C 4.899 4.4505  5.781000000000001 3.333  6.6690000000000005 2.574  C 7.566000000000001 1.809  8.358 1.5  9 1.5  C 9.642000000000001 1.5  10.434 1.809  11.330999999999998 2.574  C 12.218999999999998 3.333  13.100999999999999 4.4505  13.887 5.82  C 15.465 8.571000000000002  16.5 12.066  16.499999999999996 14.999999999999996  Z " stroke-width="0" stroke-dasharray="0" stroke="rgba(255, 255, 255, 0)" fill="none" class="stroke" mask="url(#Clip5355)" />
  </g>
</svg>