<?xml version="1.0" encoding="utf-8"?>
<svg version="1.1" xmlns:xlink="http://www.w3.org/1999/xlink" width="28px" height="29px" xmlns="http://www.w3.org/2000/svg">
  <defs>
    <pattern id="BGPattern" patternUnits="userSpaceOnUse" alignment="0 0" imageRepeat="None" />
    <mask fill="white" id="Clip3652">
      <path d="M 28 24.012983346207417  C 28 22.1889902095693  26.76607376044901 20.595998284159528  25 20.14  L 25 15.000000000000002  C 25 13.895430500338414  24.104569499661586 13  23 13  L 5 13  L 5 8  L 8 8  L 8 0  L 0 0  L 0 8  L 3 8  L 3 13  C 3 14.104569499661586  3.8954305003384135 15.000000000000002  5 15  L 23 15  L 23 20.14  C 21.23392623955099 20.595998284159528  20 22.188990209569305  20 24.012983346207417  C 20 26.22212234553059  21.790861000676827 28.012983346207417  24 28.012983346207417  C 26.209138999323173 28.012983346207417  28 26.22212234553059  28 24.012983346207417  Z M 2 6  L 2 2  L 6 2  L 6 6  L 2 6  Z M 26 24  C 26 25.104569499661586  25.104569499661586 26  24 26  C 22.895430500338414 26  22 25.104569499661586  22 24  C 22 22.895430500338414  22.895430500338414 22  24 22  C 25.104569499661586 22  26 22.895430500338414  26 24  Z " fill-rule="evenodd" />
    </mask>
  </defs>
  <g transform="matrix(1 0 0 1 -2 -2 )">
    <path d="M 28 24.012983346207417  C 28 22.1889902095693  26.76607376044901 20.595998284159528  25 20.14  L 25 15.000000000000002  C 25 13.895430500338414  24.104569499661586 13  23 13  L 5 13  L 5 8  L 8 8  L 8 0  L 0 0  L 0 8  L 3 8  L 3 13  C 3 14.104569499661586  3.8954305003384135 15.000000000000002  5 15  L 23 15  L 23 20.14  C 21.23392623955099 20.595998284159528  20 22.188990209569305  20 24.012983346207417  C 20 26.22212234553059  21.790861000676827 28.012983346207417  24 28.012983346207417  C 26.209138999323173 28.012983346207417  28 26.22212234553059  28 24.012983346207417  Z M 2 6  L 2 2  L 6 2  L 6 6  L 2 6  Z M 26 24  C 26 25.104569499661586  25.104569499661586 26  24 26  C 22.895430500338414 26  22 25.104569499661586  22 24  C 22 22.895430500338414  22.895430500338414 22  24 22  C 25.104569499661586 22  26 22.895430500338414  26 24  Z " fill-rule="nonzero" fill="rgba(0, 0, 0, 1)" stroke="none" transform="matrix(1 0 0 1 2 2 )" class="fill" />
    <path d="M 28 24.012983346207417  C 28 22.1889902095693  26.76607376044901 20.595998284159528  25 20.14  L 25 15.000000000000002  C 25 13.895430500338414  24.104569499661586 13  23 13  L 5 13  L 5 8  L 8 8  L 8 0  L 0 0  L 0 8  L 3 8  L 3 13  C 3 14.104569499661586  3.8954305003384135 15.000000000000002  5 15  L 23 15  L 23 20.14  C 21.23392623955099 20.595998284159528  20 22.188990209569305  20 24.012983346207417  C 20 26.22212234553059  21.790861000676827 28.012983346207417  24 28.012983346207417  C 26.209138999323173 28.012983346207417  28 26.22212234553059  28 24.012983346207417  Z " stroke-width="0" stroke-dasharray="0" stroke="rgba(255, 255, 255, 0)" fill="none" transform="matrix(1 0 0 1 2 2 )" class="stroke" mask="url(#Clip3652)" />
    <path d="M 2 6  L 2 2  L 6 2  L 6 6  L 2 6  Z " stroke-width="0" stroke-dasharray="0" stroke="rgba(255, 255, 255, 0)" fill="none" transform="matrix(1 0 0 1 2 2 )" class="stroke" mask="url(#Clip3652)" />
    <path d="M 26 24  C 26 25.104569499661586  25.104569499661586 26  24 26  C 22.895430500338414 26  22 25.104569499661586  22 24  C 22 22.895430500338414  22.895430500338414 22  24 22  C 25.104569499661586 22  26 22.895430500338414  26 24  Z " stroke-width="0" stroke-dasharray="0" stroke="rgba(255, 255, 255, 0)" fill="none" transform="matrix(1 0 0 1 2 2 )" class="stroke" mask="url(#Clip3652)" />
  </g>
</svg>