<?xml version="1.0" encoding="utf-8"?>
<svg version="1.1" xmlns:xlink="http://www.w3.org/1999/xlink" width="29px" height="28px" xmlns="http://www.w3.org/2000/svg">
  <defs>
    <pattern id="BGPattern" patternUnits="userSpaceOnUse" alignment="0 0" imageRepeat="None" />
    <mask fill="white" id="Clip4454">
      <path d="M 28.94 14.34  C 29.01943275247907 14.120292409252158  29.01943275247907 13.879707590747842  28.94 13.66  C 27.793330255134887 10.673204315740987  25.798079315387962 8.087025397323375  23.2 6.220000000000001  L 28 1.4100000000000001  L 26.59 0  L 0 26.59  L 1.4100000000000001 28  L 6.51 22.9  C 8.783875526940992 24.234007142493038  11.364042530690272 24.957418451955455  14 24.999999999999996  C 20.662097609955357 24.749471718910947  26.53603045179214 20.55829875411978  28.94 14.34  Z M 17.44 12  C 17.799506351220792 12.605731233724939  17.992685054153483 13.295655172770266  18 14  C 17.9867686004091 16.19970904014361  16.19982119379223 17.975940163007003  14.000072360124015 17.975940163007003  C 13.297897371978033 17.975940163007003  12.608094043744384 17.791100196440297  12 17.44  L 17.44 12  Z M 26.93 14  C 24.9 19.07  19.3 23  14.000000000000004 23.000000000000004  C 11.90206271200111 22.96335005097964  9.84389539685856 22.421365991325434  8 21.42  L 10.54 18.880000000000003  C 11.544459514242934 19.57695418747356  12.737857866564386 19.950430586360675  13.960430586360669 19.950430586360675  C 17.27413908534543 19.950430586360675  19.96043058636067 17.264139085345434  19.96043058636067 13.950430586360673  C 19.96043058636067 12.72785786656439  19.58695418747356 11.534459514242938  18.89 10.530000000000003  L 21.76 7.660000000000005  C 24.054589299494626 9.234983116497627  25.848954680686933 11.435423448559375  26.93 14  Z " fill-rule="evenodd" />
    </mask>
  </defs>
  <g transform="matrix(1 0 0 1 -2 -2 )">
    <path d="M 28.94 14.34  C 29.01943275247907 14.120292409252158  29.01943275247907 13.879707590747842  28.94 13.66  C 27.793330255134887 10.673204315740987  25.798079315387962 8.087025397323375  23.2 6.220000000000001  L 28 1.4100000000000001  L 26.59 0  L 0 26.59  L 1.4100000000000001 28  L 6.51 22.9  C 8.783875526940992 24.234007142493038  11.364042530690272 24.957418451955455  14 24.999999999999996  C 20.662097609955357 24.749471718910947  26.53603045179214 20.55829875411978  28.94 14.34  Z M 17.44 12  C 17.799506351220792 12.605731233724939  17.992685054153483 13.295655172770266  18 14  C 17.9867686004091 16.19970904014361  16.19982119379223 17.975940163007003  14.000072360124015 17.975940163007003  C 13.297897371978033 17.975940163007003  12.608094043744384 17.791100196440297  12 17.44  L 17.44 12  Z M 26.93 14  C 24.9 19.07  19.3 23  14.000000000000004 23.000000000000004  C 11.90206271200111 22.96335005097964  9.84389539685856 22.421365991325434  8 21.42  L 10.54 18.880000000000003  C 11.544459514242934 19.57695418747356  12.737857866564386 19.950430586360675  13.960430586360669 19.950430586360675  C 17.27413908534543 19.950430586360675  19.96043058636067 17.264139085345434  19.96043058636067 13.950430586360673  C 19.96043058636067 12.72785786656439  19.58695418747356 11.534459514242938  18.89 10.530000000000003  L 21.76 7.660000000000005  C 24.054589299494626 9.234983116497627  25.848954680686933 11.435423448559375  26.93 14  Z " fill-rule="nonzero" fill="rgba(0, 0, 0, 1)" stroke="none" transform="matrix(1 0 0 1 2 2 )" class="fill" />
    <path d="M 28.94 14.34  C 29.01943275247907 14.120292409252158  29.01943275247907 13.879707590747842  28.94 13.66  C 27.793330255134887 10.673204315740987  25.798079315387962 8.087025397323375  23.2 6.220000000000001  L 28 1.4100000000000001  L 26.59 0  L 0 26.59  L 1.4100000000000001 28  L 6.51 22.9  C 8.783875526940992 24.234007142493038  11.364042530690272 24.957418451955455  14 24.999999999999996  C 20.662097609955357 24.749471718910947  26.53603045179214 20.55829875411978  28.94 14.34  Z " stroke-width="0" stroke-dasharray="0" stroke="rgba(255, 255, 255, 0)" fill="none" transform="matrix(1 0 0 1 2 2 )" class="stroke" mask="url(#Clip4454)" />
    <path d="M 17.44 12  C 17.799506351220792 12.605731233724939  17.992685054153483 13.295655172770266  18 14  C 17.9867686004091 16.19970904014361  16.19982119379223 17.975940163007003  14.000072360124015 17.975940163007003  C 13.297897371978033 17.975940163007003  12.608094043744384 17.791100196440297  12 17.44  L 17.44 12  Z " stroke-width="0" stroke-dasharray="0" stroke="rgba(255, 255, 255, 0)" fill="none" transform="matrix(1 0 0 1 2 2 )" class="stroke" mask="url(#Clip4454)" />
    <path d="M 26.93 14  C 24.9 19.07  19.3 23  14.000000000000004 23.000000000000004  C 11.90206271200111 22.96335005097964  9.84389539685856 22.421365991325434  8 21.42  L 10.54 18.880000000000003  C 11.544459514242934 19.57695418747356  12.737857866564386 19.950430586360675  13.960430586360669 19.950430586360675  C 17.27413908534543 19.950430586360675  19.96043058636067 17.264139085345434  19.96043058636067 13.950430586360673  C 19.96043058636067 12.72785786656439  19.58695418747356 11.534459514242938  18.89 10.530000000000003  L 21.76 7.660000000000005  C 24.054589299494626 9.234983116497627  25.848954680686933 11.435423448559375  26.93 14  Z " stroke-width="0" stroke-dasharray="0" stroke="rgba(255, 255, 255, 0)" fill="none" transform="matrix(1 0 0 1 2 2 )" class="stroke" mask="url(#Clip4454)" />
  </g>
</svg>