<?xml version="1.0" encoding="utf-8"?>
<svg version="1.1" xmlns:xlink="http://www.w3.org/1999/xlink" width="64px" height="64px" xmlns="http://www.w3.org/2000/svg">
  <defs>
    <pattern id="BGPattern" patternUnits="userSpaceOnUse" alignment="0 0" imageRepeat="None" />
    <mask fill="white" id="Clip1654">
      <path d="M 64 58  C 64 56.895  63.105 56  62 56  L 2 56  C 0.895 56  0 56.895  0 58  L 0 62  C 0 63.105  0.895 64  2 64  L 62 64  C 63.105 64  64 63.105  64 62  L 64 58  Z M 26 52  L 24 48  L 16 44  L 24 40  L 28 32  L 32 40  L 40 44  L 32 48  L 30 52  L 56 52  L 45.198750000000004 26.79625  C 44.426418786527236 24.99544650027695  44.34234652587184 22.973708803563877  44.962500000000006 21.115000000000002  L 52 0  L 28.5525 13.39875  C 25.59459714577356 15.088981435043914  23.25346788983536 17.67928812207617  21.869999999999997 20.7925  L 8 52  L 26 52  Z M 28 22  L 32 20  L 34 16  L 36 20  L 40 22  L 36 24  L 34 28  L 32 24  L 28 22  Z " fill-rule="evenodd" />
    </mask>
  </defs>
  <g>
    <path d="M 64 58  C 64 56.895  63.105 56  62 56  L 2 56  C 0.895 56  0 56.895  0 58  L 0 62  C 0 63.105  0.895 64  2 64  L 62 64  C 63.105 64  64 63.105  64 62  L 64 58  Z M 26 52  L 24 48  L 16 44  L 24 40  L 28 32  L 32 40  L 40 44  L 32 48  L 30 52  L 56 52  L 45.198750000000004 26.79625  C 44.426418786527236 24.99544650027695  44.34234652587184 22.973708803563877  44.962500000000006 21.115000000000002  L 52 0  L 28.5525 13.39875  C 25.59459714577356 15.088981435043914  23.25346788983536 17.67928812207617  21.869999999999997 20.7925  L 8 52  L 26 52  Z M 28 22  L 32 20  L 34 16  L 36 20  L 40 22  L 36 24  L 34 28  L 32 24  L 28 22  Z " fill-rule="nonzero" fill="rgba(0, 0, 0, 1)" stroke="none" class="fill" />
    <path d="M 64 58  C 64 56.895  63.105 56  62 56  L 2 56  C 0.895 56  0 56.895  0 58  L 0 62  C 0 63.105  0.895 64  2 64  L 62 64  C 63.105 64  64 63.105  64 62  L 64 58  Z " stroke-width="0" stroke-dasharray="0" stroke="rgba(255, 255, 255, 0)" fill="none" class="stroke" mask="url(#Clip1654)" />
    <path d="M 26 52  L 24 48  L 16 44  L 24 40  L 28 32  L 32 40  L 40 44  L 32 48  L 30 52  L 56 52  L 45.198750000000004 26.79625  C 44.426418786527236 24.99544650027695  44.34234652587184 22.973708803563877  44.962500000000006 21.115000000000002  L 52 0  L 28.5525 13.39875  C 25.59459714577356 15.088981435043914  23.25346788983536 17.67928812207617  21.869999999999997 20.7925  L 8 52  L 26 52  Z " stroke-width="0" stroke-dasharray="0" stroke="rgba(255, 255, 255, 0)" fill="none" class="stroke" mask="url(#Clip1654)" />
    <path d="M 28 22  L 32 20  L 34 16  L 36 20  L 40 22  L 36 24  L 34 28  L 32 24  L 28 22  Z " stroke-width="0" stroke-dasharray="0" stroke="rgba(255, 255, 255, 0)" fill="none" class="stroke" mask="url(#Clip1654)" />
  </g>
</svg>