<?xml version="1.0" encoding="utf-8"?>
<svg version="1.1" xmlns:xlink="http://www.w3.org/1999/xlink" width="44px" height="48px" xmlns="http://www.w3.org/2000/svg">
  <defs>
    <pattern id="BGPattern" patternUnits="userSpaceOnUse" alignment="0 0" imageRepeat="None" />
    <mask fill="white" id="Clip6993">
      <path d="M 43 4.32  C 43.54 1.92  41.622 0  39.22 0  L 4.78 0  C 2.378 0  0.45999999999999996 1.92  1 4.32  L 1 43.682  C 0.45999999999999996 46.078  2.378 48  4.78 48  L 39.22 48  C 41.62 48  43.538 46.078  43 43.682  L 43 4.32  Z M 41 4.32  L 41 43.682  C 41.14 44.760000000000005  40.298 45.602000000000004  39.22 45  L 4.78 45  C 3.7 45.602000000000004  2.8600000000000003 44.760000000000005  3 43.682  L 3 4.32  C 2.8600000000000003 3.24  3.7 2.3980000000000006  4.78 3  L 39.22 3  C 40.298 2.3980000000000006  41.14 3.240000000000001  41 4.32  Z M 11.26 31.200000000000003  L 11.26 40.798  L 16.66 36  L 11.26 31.200000000000003  Z M 32 26.400000000000006  C 32.74 26.04200000000001  32.74 23.398000000000007  30.700000000000003 21.360000000000003  C 29.742000000000004 20.400000000000002  27.942 19.200000000000003  24.942000000000004 19.200000000000003  C 21.700000000000003 19.200000000000003  18.340000000000003 20.042  16 20.880000000000003  L 16 7.199999999999999  L 12 7.199999999999999  L 12 27.96  L 14.502000000000002 26.400000000000002  C 14.502000000000002 26.400000000000002  20.022000000000002 23.880000000000003  24.822000000000003 23.880000000000003  C 27.222 23.880000000000003  27.822000000000003 25.200000000000003  27 26.400000000000002  L 27 40.800000000000004  L 32 40.800000000000004  L 32 26.400000000000006  Z M 27.942 7.199999999999999  C 27.46 9.958  26.259999999999998 12.48  24.340000000000003 15  L 29.139999999999997 15  C 31.299999999999997 12.48  32.38 9.958  32.74 7.199999999999999  L 27.942 7.199999999999999  Z " fill-rule="evenodd" />
    </mask>
  </defs>
  <g>
    <path d="M 43 4.32  C 43.54 1.92  41.622 0  39.22 0  L 4.78 0  C 2.378 0  0.45999999999999996 1.92  1 4.32  L 1 43.682  C 0.45999999999999996 46.078  2.378 48  4.78 48  L 39.22 48  C 41.62 48  43.538 46.078  43 43.682  L 43 4.32  Z M 41 4.32  L 41 43.682  C 41.14 44.760000000000005  40.298 45.602000000000004  39.22 45  L 4.78 45  C 3.7 45.602000000000004  2.8600000000000003 44.760000000000005  3 43.682  L 3 4.32  C 2.8600000000000003 3.24  3.7 2.3980000000000006  4.78 3  L 39.22 3  C 40.298 2.3980000000000006  41.14 3.240000000000001  41 4.32  Z M 11.26 31.200000000000003  L 11.26 40.798  L 16.66 36  L 11.26 31.200000000000003  Z M 32 26.400000000000006  C 32.74 26.04200000000001  32.74 23.398000000000007  30.700000000000003 21.360000000000003  C 29.742000000000004 20.400000000000002  27.942 19.200000000000003  24.942000000000004 19.200000000000003  C 21.700000000000003 19.200000000000003  18.340000000000003 20.042  16 20.880000000000003  L 16 7.199999999999999  L 12 7.199999999999999  L 12 27.96  L 14.502000000000002 26.400000000000002  C 14.502000000000002 26.400000000000002  20.022000000000002 23.880000000000003  24.822000000000003 23.880000000000003  C 27.222 23.880000000000003  27.822000000000003 25.200000000000003  27 26.400000000000002  L 27 40.800000000000004  L 32 40.800000000000004  L 32 26.400000000000006  Z M 27.942 7.199999999999999  C 27.46 9.958  26.259999999999998 12.48  24.340000000000003 15  L 29.139999999999997 15  C 31.299999999999997 12.48  32.38 9.958  32.74 7.199999999999999  L 27.942 7.199999999999999  Z " fill-rule="nonzero" fill="rgba(67, 0, 152, 1)" stroke="none" class="fill" />
    <path d="M 43 4.32  C 43.54 1.92  41.622 0  39.22 0  L 4.78 0  C 2.378 0  0.45999999999999996 1.92  1 4.32  L 1 43.682  C 0.45999999999999996 46.078  2.378 48  4.78 48  L 39.22 48  C 41.62 48  43.538 46.078  43 43.682  L 43 4.32  Z " stroke-width="0" stroke-dasharray="0" stroke="rgba(255, 255, 255, 0)" fill="none" class="stroke" mask="url(#Clip6993)" />
    <path d="M 41 4.32  L 41 43.682  C 41.14 44.760000000000005  40.298 45.602000000000004  39.22 45  L 4.78 45  C 3.7 45.602000000000004  2.8600000000000003 44.760000000000005  3 43.682  L 3 4.32  C 2.8600000000000003 3.24  3.7 2.3980000000000006  4.78 3  L 39.22 3  C 40.298 2.3980000000000006  41.14 3.240000000000001  41 4.32  Z " stroke-width="0" stroke-dasharray="0" stroke="rgba(255, 255, 255, 0)" fill="none" class="stroke" mask="url(#Clip6993)" />
    <path d="M 11.26 31.200000000000003  L 11.26 40.798  L 16.66 36  L 11.26 31.200000000000003  Z " stroke-width="0" stroke-dasharray="0" stroke="rgba(255, 255, 255, 0)" fill="none" class="stroke" mask="url(#Clip6993)" />
    <path d="M 32 26.400000000000006  C 32.74 26.04200000000001  32.74 23.398000000000007  30.700000000000003 21.360000000000003  C 29.742000000000004 20.400000000000002  27.942 19.200000000000003  24.942000000000004 19.200000000000003  C 21.700000000000003 19.200000000000003  18.340000000000003 20.042  16 20.880000000000003  L 16 7.199999999999999  L 12 7.199999999999999  L 12 27.96  L 14.502000000000002 26.400000000000002  C 14.502000000000002 26.400000000000002  20.022000000000002 23.880000000000003  24.822000000000003 23.880000000000003  C 27.222 23.880000000000003  27.822000000000003 25.200000000000003  27 26.400000000000002  L 27 40.800000000000004  L 32 40.800000000000004  L 32 26.400000000000006  Z " stroke-width="0" stroke-dasharray="0" stroke="rgba(255, 255, 255, 0)" fill="none" class="stroke" mask="url(#Clip6993)" />
    <path d="M 27.942 7.199999999999999  C 27.46 9.958  26.259999999999998 12.48  24.340000000000003 15  L 29.139999999999997 15  C 31.299999999999997 12.48  32.38 9.958  32.74 7.199999999999999  L 27.942 7.199999999999999  Z " stroke-width="0" stroke-dasharray="0" stroke="rgba(255, 255, 255, 0)" fill="none" class="stroke" mask="url(#Clip6993)" />
  </g>
</svg>