<?xml version="1.0" encoding="utf-8"?>
<svg version="1.1" xmlns:xlink="http://www.w3.org/1999/xlink" width="16px" height="16px" xmlns="http://www.w3.org/2000/svg">
  <defs>
    <pattern id="BGPattern" patternUnits="userSpaceOnUse" alignment="0 0" imageRepeat="None" />
    <mask fill="white" id="Clip4918">
      <path d="M 16 8.25  L 16 0.75  C 16 0.3357864376269049  15.664213562373096 0  15.25 0  L 7.75 0  C 7.335786437626904 0  7 0.3357864376269049  7 0.75  C 7 1.1642135623730951  7.335786437626904 1.5  7.75 1.5  L 13.439499999999999 1.5  L 1.2189999999999994 13.719000000000001  C 1.0781700438952022 13.859829956104798  0.9990525983798868 14.05083636608819  0.9990525983798868 14.25  C 0.9990525983798868 14.664736797839849  1.3352632021601512 15.000947401620115  1.75 15.000947401620115  C 1.9491636339118124 15.000947401620115  2.1401700438952016 14.921829956104798  2.2810000000000006 14.781000000000002  L 14.5 2.5605  L 14.5 8.25  C 14.5 8.664213562373096  14.835786437626904 9  15.25 9  C 15.664213562373096 9  16 8.664213562373096  16 8.25  Z " fill-rule="evenodd" />
    </mask>
  </defs>
  <g transform="matrix(1 0 0 1 -8 0 )">
    <path d="M 16 8.25  L 16 0.75  C 16 0.3357864376269049  15.664213562373096 0  15.25 0  L 7.75 0  C 7.335786437626904 0  7 0.3357864376269049  7 0.75  C 7 1.1642135623730951  7.335786437626904 1.5  7.75 1.5  L 13.439499999999999 1.5  L 1.2189999999999994 13.719000000000001  C 1.0781700438952022 13.859829956104798  0.9990525983798868 14.05083636608819  0.9990525983798868 14.25  C 0.9990525983798868 14.664736797839849  1.3352632021601512 15.000947401620115  1.75 15.000947401620115  C 1.9491636339118124 15.000947401620115  2.1401700438952016 14.921829956104798  2.2810000000000006 14.781000000000002  L 14.5 2.5605  L 14.5 8.25  C 14.5 8.664213562373096  14.835786437626904 9  15.25 9  C 15.664213562373096 9  16 8.664213562373096  16 8.25  Z " fill-rule="nonzero" fill="rgba(0, 0, 0, 1)" stroke="none" transform="matrix(1 0 0 1 8 0 )" class="fill" />
    <path d="M 16 8.25  L 16 0.75  C 16 0.3357864376269049  15.664213562373096 0  15.25 0  L 7.75 0  C 7.335786437626904 0  7 0.3357864376269049  7 0.75  C 7 1.1642135623730951  7.335786437626904 1.5  7.75 1.5  L 13.439499999999999 1.5  L 1.2189999999999994 13.719000000000001  C 1.0781700438952022 13.859829956104798  0.9990525983798868 14.05083636608819  0.9990525983798868 14.25  C 0.9990525983798868 14.664736797839849  1.3352632021601512 15.000947401620115  1.75 15.000947401620115  C 1.9491636339118124 15.000947401620115  2.1401700438952016 14.921829956104798  2.2810000000000006 14.781000000000002  L 14.5 2.5605  L 14.5 8.25  C 14.5 8.664213562373096  14.835786437626904 9  15.25 9  C 15.664213562373096 9  16 8.664213562373096  16 8.25  Z " stroke-width="0" stroke-dasharray="0" stroke="rgba(255, 255, 255, 0)" fill="none" transform="matrix(1 0 0 1 8 0 )" class="stroke" mask="url(#Clip4918)" />
  </g>
</svg>