<?xml version="1.0" encoding="utf-8"?>
<svg version="1.1" xmlns:xlink="http://www.w3.org/1999/xlink" width="35px" height="34px" xmlns="http://www.w3.org/2000/svg">
  <defs>
    <pattern id="BGPattern" patternUnits="userSpaceOnUse" alignment="0 0" imageRepeat="None" />
    <mask fill="white" id="Clip2730">
      <path d="M 34.26875 33.425000000000004  C 35.193749999999994 26.950000000000003  33.5625 20.112500000000004  29.206249999999997 14.53125  C 24.28125 8.2375  16.956249999999997 4.93125  9.543749999999996 4.893750000000001  L 9.531249999999996 0.8937500000000007  C 9.531249999999996 0.4875000000000007  9.056249999999995 0.26250000000000107  8.743749999999995 0.5125000000000011  L 0.743749999999995 6.825000000000001  C 0.493749999999995 7.018750000000001  0.49999999999999645 7.393750000000001  0.743749999999995 7.593750000000002  L 8.75 13.912500000000001  C 9.068750000000003 14.162500000000001  9.543749999999998 13.9375  9.537500000000001 13.53125  L 9.537500000000001 9.5375  C 10.34375 9.54375  11.15625 9.59375  11.962499999999999 9.69375  C 14.59375 10.01875  17.09375 10.83125  19.4 12.1125  C 21.78125 13.4375  23.85 15.21875  25.549999999999997 17.38125  C 27.24375 19.55  28.46875 21.9875  29.18125 24.618750000000002  C 29.86875 27.1625  30.056250000000002 29.7875  29.737499999999997 32.41875  C 29.693749999999994 32.75625  29.65 33.09375  29.5875 33.425000000000004  L 34.26875 33.425000000000004  Z " fill-rule="evenodd" />
    </mask>
  </defs>
  <g transform="matrix(1 0 0 1 -15 0 )">
    <path d="M 34.26875 33.425000000000004  C 35.193749999999994 26.950000000000003  33.5625 20.112500000000004  29.206249999999997 14.53125  C 24.28125 8.2375  16.956249999999997 4.93125  9.543749999999996 4.893750000000001  L 9.531249999999996 0.8937500000000007  C 9.531249999999996 0.4875000000000007  9.056249999999995 0.26250000000000107  8.743749999999995 0.5125000000000011  L 0.743749999999995 6.825000000000001  C 0.493749999999995 7.018750000000001  0.49999999999999645 7.393750000000001  0.743749999999995 7.593750000000002  L 8.75 13.912500000000001  C 9.068750000000003 14.162500000000001  9.543749999999998 13.9375  9.537500000000001 13.53125  L 9.537500000000001 9.5375  C 10.34375 9.54375  11.15625 9.59375  11.962499999999999 9.69375  C 14.59375 10.01875  17.09375 10.83125  19.4 12.1125  C 21.78125 13.4375  23.85 15.21875  25.549999999999997 17.38125  C 27.24375 19.55  28.46875 21.9875  29.18125 24.618750000000002  C 29.86875 27.1625  30.056250000000002 29.7875  29.737499999999997 32.41875  C 29.693749999999994 32.75625  29.65 33.09375  29.5875 33.425000000000004  L 34.26875 33.425000000000004  Z " fill-rule="nonzero" fill="rgba(0, 0, 0, 1)" stroke="none" transform="matrix(1 0 0 1 15 0 )" class="fill" />
    <path d="M 34.26875 33.425000000000004  C 35.193749999999994 26.950000000000003  33.5625 20.112500000000004  29.206249999999997 14.53125  C 24.28125 8.2375  16.956249999999997 4.93125  9.543749999999996 4.893750000000001  L 9.531249999999996 0.8937500000000007  C 9.531249999999996 0.4875000000000007  9.056249999999995 0.26250000000000107  8.743749999999995 0.5125000000000011  L 0.743749999999995 6.825000000000001  C 0.493749999999995 7.018750000000001  0.49999999999999645 7.393750000000001  0.743749999999995 7.593750000000002  L 8.75 13.912500000000001  C 9.068750000000003 14.162500000000001  9.543749999999998 13.9375  9.537500000000001 13.53125  L 9.537500000000001 9.5375  C 10.34375 9.54375  11.15625 9.59375  11.962499999999999 9.69375  C 14.59375 10.01875  17.09375 10.83125  19.4 12.1125  C 21.78125 13.4375  23.85 15.21875  25.549999999999997 17.38125  C 27.24375 19.55  28.46875 21.9875  29.18125 24.618750000000002  C 29.86875 27.1625  30.056250000000002 29.7875  29.737499999999997 32.41875  C 29.693749999999994 32.75625  29.65 33.09375  29.5875 33.425000000000004  L 34.26875 33.425000000000004  Z " stroke-width="0" stroke-dasharray="0" stroke="rgba(255, 255, 255, 0)" fill="none" transform="matrix(1 0 0 1 15 0 )" class="stroke" mask="url(#Clip2730)" />
  </g>
</svg>