<?xml version="1.0" encoding="utf-8"?>
<svg version="1.1" xmlns:xlink="http://www.w3.org/1999/xlink" width="50px" height="50px" xmlns="http://www.w3.org/2000/svg">
  <defs>
    <pattern id="BGPattern" patternUnits="userSpaceOnUse" alignment="0 0" imageRepeat="None" />
    <mask fill="white" id="Clip1857">
      <path d="M 50 25  C 50 11.189516129032256  38.810483870967744 0  25 0  C 11.189516129032256 0  0 11.189516129032256  0 25  C 0 38.810483870967744  11.189516129032256 50  25 50  C 38.810483870967744 50  50 38.810483870967744  50 25  Z M 36.6633064516129 23.185483870967744  C 38.31653225806451 24.112903225806463  38.31653225806451 26.502016129032256  36.6633064516129 27.41935483870969  L 18.92137096774195 37.600806451612925  C 17.32862903225805 38.48790322580646  15.322580645161283 37.34879032258061  16 35.48387096774195  L 16 14.516129032258048  C 15.322580645161283 12.661290322580667  17.31854838709677 11.512096774193537  18.92137096774195 12.399193548387075  L 36.6633064516129 23.185483870967744  Z " fill-rule="evenodd" />
    </mask>
  </defs>
  <g>
    <path d="M 50 25  C 50 11.189516129032256  38.810483870967744 0  25 0  C 11.189516129032256 0  0 11.189516129032256  0 25  C 0 38.810483870967744  11.189516129032256 50  25 50  C 38.810483870967744 50  50 38.810483870967744  50 25  Z M 36.6633064516129 23.185483870967744  C 38.31653225806451 24.112903225806463  38.31653225806451 26.502016129032256  36.6633064516129 27.41935483870969  L 18.92137096774195 37.600806451612925  C 17.32862903225805 38.48790322580646  15.322580645161283 37.34879032258061  16 35.48387096774195  L 16 14.516129032258048  C 15.322580645161283 12.661290322580667  17.31854838709677 11.512096774193537  18.92137096774195 12.399193548387075  L 36.6633064516129 23.185483870967744  Z " fill-rule="nonzero" fill="rgba(0, 0, 0, 1)" stroke="none" class="fill" />
    <path d="M 50 25  C 50 11.189516129032256  38.810483870967744 0  25 0  C 11.189516129032256 0  0 11.189516129032256  0 25  C 0 38.810483870967744  11.189516129032256 50  25 50  C 38.810483870967744 50  50 38.810483870967744  50 25  Z " stroke-width="0" stroke-dasharray="0" stroke="rgba(255, 255, 255, 0)" fill="none" class="stroke" mask="url(#Clip1857)" />
    <path d="M 36.6633064516129 23.185483870967744  C 38.31653225806451 24.112903225806463  38.31653225806451 26.502016129032256  36.6633064516129 27.41935483870969  L 18.92137096774195 37.600806451612925  C 17.32862903225805 38.48790322580646  15.322580645161283 37.34879032258061  16 35.48387096774195  L 16 14.516129032258048  C 15.322580645161283 12.661290322580667  17.31854838709677 11.512096774193537  18.92137096774195 12.399193548387075  L 36.6633064516129 23.185483870967744  Z " stroke-width="0" stroke-dasharray="0" stroke="rgba(255, 255, 255, 0)" fill="none" class="stroke" mask="url(#Clip1857)" />
  </g>
</svg>