<?xml version="1.0" encoding="utf-8"?>
<svg version="1.1" xmlns:xlink="http://www.w3.org/1999/xlink" width="56px" height="56px" xmlns="http://www.w3.org/2000/svg">
  <defs>
    <pattern id="BGPattern" patternUnits="userSpaceOnUse" alignment="0 0" imageRepeat="None" />
    <mask fill="white" id="Clip2240">
      <path d="M 56 28  C 56 12.537500000000001  43.4625 0  28 0  C 12.537500000000001 0  0 12.537500000000001  0 28  C 0 43.4625  12.537500000000001 56  28 56  C 43.4625 56  56 43.4625  56 28  Z M 30.675 17.4125  C 37.224999999999994 19.78125  42.918749999999996 20.993750000000002  42.1875 24.08125  C 42.125 24.34375  41.96875 24.73125  41.75 25.19375  L 41.75625 25.19375  L 41.73125 25.2375  C 40.462500000000006 27.931250000000002  37.1625 33.21875  37.1625 33.21875  C 37.1625 33.21875  37.15625 33.20625  37.143750000000004 33.1875  L 36.175000000000004 34.8625  L 40.831250000000004 34.8625  L 31.94375 46.625  L 33.9625 38.625  L 30.299999999999997 38.625  L 31.574999999999996 33.33125  C 30.543749999999996 33.574999999999996  29.331249999999994 33.918749999999996  27.887499999999996 34.381249999999994  C 27.887499999999996 34.381249999999994  25.937499999999996 35.51875  22.268749999999997 32.193749999999994  C 22.268749999999997 32.193749999999994  19.793749999999996 30.02499999999999  21.231249999999996 29.481249999999996  C 21.843749999999996 29.249999999999996  24.193749999999994 28.956249999999997  26.043749999999996 28.712499999999995  C 28.543749999999996 28.375  30.081249999999997 28.199999999999992  30.081249999999997 28.199999999999992  C 30.081249999999997 28.199999999999992  22.375 28.312499999999996  20.54375 28.03125  C 18.7125 27.74375  16.393749999999997 24.7125  15.899999999999999 22.04375  C 15.899999999999999 22.04375  15.137500000000001 20.58125  17.54375 21.275  C 19.95 21.96875  29.912500000000005 23.974999999999998  29.912500000000005 23.974999999999998  C 29.912500000000005 23.974999999999998  16.950000000000003 20.018749999999997  16.087500000000002 19.05625  C 15.225000000000001 18.09375  13.55 13.79375  13.76875 11.149999999999999  C 13.76875 11.149999999999999  13.8625 10.493749999999999  14.54375 10.66875  C 14.54375 10.66875  24.125 15.024999999999999  30.675 17.4125  Z " fill-rule="evenodd" />
    </mask>
  </defs>
  <g>
    <path d="M 56 28  C 56 12.537500000000001  43.4625 0  28 0  C 12.537500000000001 0  0 12.537500000000001  0 28  C 0 43.4625  12.537500000000001 56  28 56  C 43.4625 56  56 43.4625  56 28  Z M 30.675 17.4125  C 37.224999999999994 19.78125  42.918749999999996 20.993750000000002  42.1875 24.08125  C 42.125 24.34375  41.96875 24.73125  41.75 25.19375  L 41.75625 25.19375  L 41.73125 25.2375  C 40.462500000000006 27.931250000000002  37.1625 33.21875  37.1625 33.21875  C 37.1625 33.21875  37.15625 33.20625  37.143750000000004 33.1875  L 36.175000000000004 34.8625  L 40.831250000000004 34.8625  L 31.94375 46.625  L 33.9625 38.625  L 30.299999999999997 38.625  L 31.574999999999996 33.33125  C 30.543749999999996 33.574999999999996  29.331249999999994 33.918749999999996  27.887499999999996 34.381249999999994  C 27.887499999999996 34.381249999999994  25.937499999999996 35.51875  22.268749999999997 32.193749999999994  C 22.268749999999997 32.193749999999994  19.793749999999996 30.02499999999999  21.231249999999996 29.481249999999996  C 21.843749999999996 29.249999999999996  24.193749999999994 28.956249999999997  26.043749999999996 28.712499999999995  C 28.543749999999996 28.375  30.081249999999997 28.199999999999992  30.081249999999997 28.199999999999992  C 30.081249999999997 28.199999999999992  22.375 28.312499999999996  20.54375 28.03125  C 18.7125 27.74375  16.393749999999997 24.7125  15.899999999999999 22.04375  C 15.899999999999999 22.04375  15.137500000000001 20.58125  17.54375 21.275  C 19.95 21.96875  29.912500000000005 23.974999999999998  29.912500000000005 23.974999999999998  C 29.912500000000005 23.974999999999998  16.950000000000003 20.018749999999997  16.087500000000002 19.05625  C 15.225000000000001 18.09375  13.55 13.79375  13.76875 11.149999999999999  C 13.76875 11.149999999999999  13.8625 10.493749999999999  14.54375 10.66875  C 14.54375 10.66875  24.125 15.024999999999999  30.675 17.4125  Z " fill-rule="nonzero" fill="rgba(0, 0, 0, 1)" stroke="none" class="fill" />
    <path d="M 56 28  C 56 12.537500000000001  43.4625 0  28 0  C 12.537500000000001 0  0 12.537500000000001  0 28  C 0 43.4625  12.537500000000001 56  28 56  C 43.4625 56  56 43.4625  56 28  Z " stroke-width="0" stroke-dasharray="0" stroke="rgba(255, 255, 255, 0)" fill="none" class="stroke" mask="url(#Clip2240)" />
    <path d="M 30.675 17.4125  C 37.224999999999994 19.78125  42.918749999999996 20.993750000000002  42.1875 24.08125  C 42.125 24.34375  41.96875 24.73125  41.75 25.19375  L 41.75625 25.19375  L 41.73125 25.2375  C 40.462500000000006 27.931250000000002  37.1625 33.21875  37.1625 33.21875  C 37.1625 33.21875  37.15625 33.20625  37.143750000000004 33.1875  L 36.175000000000004 34.8625  L 40.831250000000004 34.8625  L 31.94375 46.625  L 33.9625 38.625  L 30.299999999999997 38.625  L 31.574999999999996 33.33125  C 30.543749999999996 33.574999999999996  29.331249999999994 33.918749999999996  27.887499999999996 34.381249999999994  C 27.887499999999996 34.381249999999994  25.937499999999996 35.51875  22.268749999999997 32.193749999999994  C 22.268749999999997 32.193749999999994  19.793749999999996 30.02499999999999  21.231249999999996 29.481249999999996  C 21.843749999999996 29.249999999999996  24.193749999999994 28.956249999999997  26.043749999999996 28.712499999999995  C 28.543749999999996 28.375  30.081249999999997 28.199999999999992  30.081249999999997 28.199999999999992  C 30.081249999999997 28.199999999999992  22.375 28.312499999999996  20.54375 28.03125  C 18.7125 27.74375  16.393749999999997 24.7125  15.899999999999999 22.04375  C 15.899999999999999 22.04375  15.137500000000001 20.58125  17.54375 21.275  C 19.95 21.96875  29.912500000000005 23.974999999999998  29.912500000000005 23.974999999999998  C 29.912500000000005 23.974999999999998  16.950000000000003 20.018749999999997  16.087500000000002 19.05625  C 15.225000000000001 18.09375  13.55 13.79375  13.76875 11.149999999999999  C 13.76875 11.149999999999999  13.8625 10.493749999999999  14.54375 10.66875  C 14.54375 10.66875  24.125 15.024999999999999  30.675 17.4125  Z " stroke-width="0" stroke-dasharray="0" stroke="rgba(255, 255, 255, 0)" fill="none" class="stroke" mask="url(#Clip2240)" />
  </g>
</svg>