<?xml version="1.0" encoding="utf-8"?>
<svg version="1.1" xmlns:xlink="http://www.w3.org/1999/xlink" width="8px" height="8px" xmlns="http://www.w3.org/2000/svg">
  <defs>
    <pattern id="BGPattern" patternUnits="userSpaceOnUse" alignment="0 0" imageRepeat="None" />
    <mask fill="white" id="Clip5437">
      <path d="M 0.28600000000000136 3.4689999999999976  L 0.2875000000000014 3.4689999999999976  C 0.26231003503831474 3.644990200427298  0.24966722120329088 3.822548963500683  0.24966722120329088 4.000332778796707  C 0.24966722120329088 6.071400590662183  1.9285994093378154 7.750332778796706  3.999667221203289 7.750332778796706  C 4.177451036499315 7.750332778796706  4.355009799572702 7.737689964961685  4.531000000000002 7.712499999999999  L 0.28600000000000136 3.4689999999999976  Z M 7.712499999999999 4.529499999999999  L 7.712500000000002 4.530999999999999  L 3.4689999999999994 0.2859999999999978  C 3.6449902004272996 0.2608100350383129  3.8225489635006813 0.24816722120328905  4.000332778796707 0.24816722120328905  C 6.071400590662183 0.24816722120328905  7.750332778796706 1.9270994093378135  7.750332778796706 3.998167221203289  C 7.750332778796706 4.175951036499313  7.737689964961685 4.3535097995727  7.712499999999999 4.529499999999999  Z " fill-rule="evenodd" />
    </mask>
  </defs>
  <g transform="matrix(1 0 0 1 -8 -6 )">
    <path d="M 0.28600000000000136 3.4689999999999976  L 0.2875000000000014 3.4689999999999976  C 0.26231003503831474 3.644990200427298  0.24966722120329088 3.822548963500683  0.24966722120329088 4.000332778796707  C 0.24966722120329088 6.071400590662183  1.9285994093378154 7.750332778796706  3.999667221203289 7.750332778796706  C 4.177451036499315 7.750332778796706  4.355009799572702 7.737689964961685  4.531000000000002 7.712499999999999  L 0.28600000000000136 3.4689999999999976  Z M 7.712499999999999 4.529499999999999  L 7.712500000000002 4.530999999999999  L 3.4689999999999994 0.2859999999999978  C 3.6449902004272996 0.2608100350383129  3.8225489635006813 0.24816722120328905  4.000332778796707 0.24816722120328905  C 6.071400590662183 0.24816722120328905  7.750332778796706 1.9270994093378135  7.750332778796706 3.998167221203289  C 7.750332778796706 4.175951036499313  7.737689964961685 4.3535097995727  7.712499999999999 4.529499999999999  Z " fill-rule="nonzero" fill="rgba(0, 0, 0, 1)" stroke="none" transform="matrix(1 0 0 1 8 6 )" class="fill" />
    <path d="M 0.28600000000000136 3.4689999999999976  L 0.2875000000000014 3.4689999999999976  C 0.26231003503831474 3.644990200427298  0.24966722120329088 3.822548963500683  0.24966722120329088 4.000332778796707  C 0.24966722120329088 6.071400590662183  1.9285994093378154 7.750332778796706  3.999667221203289 7.750332778796706  C 4.177451036499315 7.750332778796706  4.355009799572702 7.737689964961685  4.531000000000002 7.712499999999999  L 0.28600000000000136 3.4689999999999976  Z " stroke-width="0" stroke-dasharray="0" stroke="rgba(255, 255, 255, 0)" fill="none" transform="matrix(1 0 0 1 8 6 )" class="stroke" mask="url(#Clip5437)" />
    <path d="M 7.712499999999999 4.529499999999999  L 7.712500000000002 4.530999999999999  L 3.4689999999999994 0.2859999999999978  C 3.6449902004272996 0.2608100350383129  3.8225489635006813 0.24816722120328905  4.000332778796707 0.24816722120328905  C 6.071400590662183 0.24816722120328905  7.750332778796706 1.9270994093378135  7.750332778796706 3.998167221203289  C 7.750332778796706 4.175951036499313  7.737689964961685 4.3535097995727  7.712499999999999 4.529499999999999  Z " stroke-width="0" stroke-dasharray="0" stroke="rgba(255, 255, 255, 0)" fill="none" transform="matrix(1 0 0 1 8 6 )" class="stroke" mask="url(#Clip5437)" />
  </g>
</svg>