<?xml version="1.0" encoding="utf-8"?>
<svg version="1.1" xmlns:xlink="http://www.w3.org/1999/xlink" width="24px" height="18px" xmlns="http://www.w3.org/2000/svg">
  <defs>
    <pattern id="BGPattern" patternUnits="userSpaceOnUse" alignment="0 0" imageRepeat="None" />
    <mask fill="white" id="Clip5436">
      <path d="M 11.999999999999998 17.249999999999996  C 13.44060669899271 17.24499700822826  14.864905727684885 16.944822159170556  16.185 16.368000000000002  L 13.763999999999998 13.945500000000003  C 13.196790549231316 14.148294015824483  12.59891154976697 14.251960406664871  11.996539593335125 14.251960406664871  C 9.097044656723458 14.251960406664871  6.746539593335125 11.901455343276536  6.746539593335125 9.001960406664871  C 6.746539593335125 8.39958845023303  6.850205984175513 7.801709450768676  7.052999999999997 7.234500000000001  L 3.9629999999999974 4.1445  C 1.407 6.417  0 9  0 9  C 0 9  4.5 17.25  11.999999999999998 17.249999999999996  Z M 7.8149999999999995 1.6334999999999997  L 7.8149999999999995 1.6320000000000006  C 9.135081258838467 1.0551371929679636  10.559388802964357 0.754960549259712  12 0.75  C 19.5 0.75  24 9  24 9  C 24 9  22.5915 11.5815  20.0385 13.857  L 16.945500000000003 10.763999999999998  C 17.148294015824483 10.196790549231322  17.25196040666487 9.59891154976697  17.25196040666487 8.996539593335129  C 17.25196040666487 6.0970446567234635  14.901455343276536 3.746539593335129  12.001960406664871 3.746539593335129  C 11.39958845023303 3.746539593335129  10.801709450768676 3.850205984175516  10.2345 4.053  L 7.8149999999999995 1.6334999999999997  Z " fill-rule="evenodd" />
    </mask>
  </defs>
  <g transform="matrix(1 0 0 1 0 -1 )">
    <path d="M 11.999999999999998 17.249999999999996  C 13.44060669899271 17.24499700822826  14.864905727684885 16.944822159170556  16.185 16.368000000000002  L 13.763999999999998 13.945500000000003  C 13.196790549231316 14.148294015824483  12.59891154976697 14.251960406664871  11.996539593335125 14.251960406664871  C 9.097044656723458 14.251960406664871  6.746539593335125 11.901455343276536  6.746539593335125 9.001960406664871  C 6.746539593335125 8.39958845023303  6.850205984175513 7.801709450768676  7.052999999999997 7.234500000000001  L 3.9629999999999974 4.1445  C 1.407 6.417  0 9  0 9  C 0 9  4.5 17.25  11.999999999999998 17.249999999999996  Z M 7.8149999999999995 1.6334999999999997  L 7.8149999999999995 1.6320000000000006  C 9.135081258838467 1.0551371929679636  10.559388802964357 0.754960549259712  12 0.75  C 19.5 0.75  24 9  24 9  C 24 9  22.5915 11.5815  20.0385 13.857  L 16.945500000000003 10.763999999999998  C 17.148294015824483 10.196790549231322  17.25196040666487 9.59891154976697  17.25196040666487 8.996539593335129  C 17.25196040666487 6.0970446567234635  14.901455343276536 3.746539593335129  12.001960406664871 3.746539593335129  C 11.39958845023303 3.746539593335129  10.801709450768676 3.850205984175516  10.2345 4.053  L 7.8149999999999995 1.6334999999999997  Z " fill-rule="nonzero" fill="rgba(0, 0, 0, 1)" stroke="none" transform="matrix(1 0 0 1 0 1 )" class="fill" />
    <path d="M 11.999999999999998 17.249999999999996  C 13.44060669899271 17.24499700822826  14.864905727684885 16.944822159170556  16.185 16.368000000000002  L 13.763999999999998 13.945500000000003  C 13.196790549231316 14.148294015824483  12.59891154976697 14.251960406664871  11.996539593335125 14.251960406664871  C 9.097044656723458 14.251960406664871  6.746539593335125 11.901455343276536  6.746539593335125 9.001960406664871  C 6.746539593335125 8.39958845023303  6.850205984175513 7.801709450768676  7.052999999999997 7.234500000000001  L 3.9629999999999974 4.1445  C 1.407 6.417  0 9  0 9  C 0 9  4.5 17.25  11.999999999999998 17.249999999999996  Z " stroke-width="0" stroke-dasharray="0" stroke="rgba(255, 255, 255, 0)" fill="none" transform="matrix(1 0 0 1 0 1 )" class="stroke" mask="url(#Clip5436)" />
    <path d="M 7.8149999999999995 1.6334999999999997  L 7.8149999999999995 1.6320000000000006  C 9.135081258838467 1.0551371929679636  10.559388802964357 0.754960549259712  12 0.75  C 19.5 0.75  24 9  24 9  C 24 9  22.5915 11.5815  20.0385 13.857  L 16.945500000000003 10.763999999999998  C 17.148294015824483 10.196790549231322  17.25196040666487 9.59891154976697  17.25196040666487 8.996539593335129  C 17.25196040666487 6.0970446567234635  14.901455343276536 3.746539593335129  12.001960406664871 3.746539593335129  C 11.39958845023303 3.746539593335129  10.801709450768676 3.850205984175516  10.2345 4.053  L 7.8149999999999995 1.6334999999999997  Z " stroke-width="0" stroke-dasharray="0" stroke="rgba(255, 255, 255, 0)" fill="none" transform="matrix(1 0 0 1 0 1 )" class="stroke" mask="url(#Clip5436)" />
  </g>
</svg>