<?xml version="1.0" encoding="utf-8"?>
<svg version="1.1" xmlns:xlink="http://www.w3.org/1999/xlink" width="24px" height="24px" xmlns="http://www.w3.org/2000/svg">
  <defs>
    <pattern id="BGPattern" patternUnits="userSpaceOnUse" alignment="0 0" imageRepeat="None" />
    <mask fill="white" id="Clip4962">
      <path d="M 4.5 0.75  C 4.5 0.3357864376269049  4.835786437626905 0  5.25 0  C 5.664213562373095 0  6 0.3357864376269049  6 0.75  L 6 1.5  L 18 1.5  L 18 0.75  C 18 0.3357864376269049  18.335786437626904 0  18.75 0  C 19.164213562373096 0  19.5 0.3357864376269049  19.5 0.75  L 19.5 1.5  L 21 1.5  C 22.65685424949238 1.5  24 2.8431457505076194  24 4.5  L 24 21  C 24 22.65685424949238  22.65685424949238 24  21 24  L 3 24  C 1.3431457505076196 24  0 22.65685424949238  0 21  L 0 4.5  C 0 2.8431457505076194  1.3431457505076196 1.5  3 1.5  L 4.5 1.5  L 4.5 0.75  Z M 3.8175 4.5  C 3.3659999999999997 4.5  3 4.836  3 5.25  L 3 6.75  C 3 7.164  3.3675 7.5  3.8175 7.5  L 20.181 7.5  C 20.634 7.5  21 7.164  21 6.75  L 21 5.25  C 21 4.836  20.6325 4.5  20.1825 4.5  L 3.8175 4.5  Z M 16.81499999847333 11.78254411919169  C 16.81750006386529 11.78254411919169  16.820000107629006 11.782529412540011  16.822499999999998 11.782499999999999  C 16.83283350542863 11.78299992696465  16.84317758542004 11.783250000000002  16.853523176819934 11.783250000000002  C 17.2080899862113 11.783250000000002  17.49552317681993 11.495816809391371  17.49552317681993 11.141250000000001  C 17.49552317681993 10.786683190608631  17.2080899862113 10.499250000000002  16.853523176819934 10.499250000000002  C 16.84317758542004 10.499250000000002  16.83283350542863 10.499500073035351  16.822499999999998 10.500000000000002  C 16.4655 10.500000000000002  16.177500000000002 10.782  16.17749999847333 11.145044119191688  C 16.17749999847333 11.497125647208819  16.4629184704562 11.78254411919169  16.81499999847333 11.78254411919169  Z M 17.3265 18.7845  L 17.3265 12.626999999999999  L 16.3185 12.626999999999999  L 16.3185 18.7845  L 17.3265 18.7845  Z M 6 18.7845  L 7.026 18.7845  L 7.026 15.334500000000004  L 10.4175 15.334500000000004  L 10.4175 14.419500000000005  L 7.026 14.419500000000005  L 7.026 11.7015  L 10.722 11.7015  L 10.722 10.7865  L 6 10.7865  L 6 18.7845  Z M 11.97 12.627000000000004  L 11.97 18.7845  L 12.984000000000002 18.7845  L 12.984000000000002 14.97  C 12.984000000000002 14.139  13.3245 13.459500000000002  14.413499999999999 13.459500000000002  C 14.600999999999999 13.459500000000002  14.800500000000001 13.4655  14.907 13.482000000000003  L 14.906999999999998 12.5625  C 14.78086464124156 12.543542869895163  14.653547894263681 12.533517929188246  14.526000000000002 12.532500000000002  C 13.653 12.532500000000002  13.189500000000002 13.012500000000003  13.008000000000001 13.383000000000003  L 12.978000000000002 13.383000000000003  L 12.978000000000002 12.627000000000004  L 11.97 12.627000000000004  Z " fill-rule="evenodd" />
    </mask>
  </defs>
  <g>
    <path d="M 4.5 0.75  C 4.5 0.3357864376269049  4.835786437626905 0  5.25 0  C 5.664213562373095 0  6 0.3357864376269049  6 0.75  L 6 1.5  L 18 1.5  L 18 0.75  C 18 0.3357864376269049  18.335786437626904 0  18.75 0  C 19.164213562373096 0  19.5 0.3357864376269049  19.5 0.75  L 19.5 1.5  L 21 1.5  C 22.65685424949238 1.5  24 2.8431457505076194  24 4.5  L 24 21  C 24 22.65685424949238  22.65685424949238 24  21 24  L 3 24  C 1.3431457505076196 24  0 22.65685424949238  0 21  L 0 4.5  C 0 2.8431457505076194  1.3431457505076196 1.5  3 1.5  L 4.5 1.5  L 4.5 0.75  Z M 3.8175 4.5  C 3.3659999999999997 4.5  3 4.836  3 5.25  L 3 6.75  C 3 7.164  3.3675 7.5  3.8175 7.5  L 20.181 7.5  C 20.634 7.5  21 7.164  21 6.75  L 21 5.25  C 21 4.836  20.6325 4.5  20.1825 4.5  L 3.8175 4.5  Z M 16.81499999847333 11.78254411919169  C 16.81750006386529 11.78254411919169  16.820000107629006 11.782529412540011  16.822499999999998 11.782499999999999  C 16.83283350542863 11.78299992696465  16.84317758542004 11.783250000000002  16.853523176819934 11.783250000000002  C 17.2080899862113 11.783250000000002  17.49552317681993 11.495816809391371  17.49552317681993 11.141250000000001  C 17.49552317681993 10.786683190608631  17.2080899862113 10.499250000000002  16.853523176819934 10.499250000000002  C 16.84317758542004 10.499250000000002  16.83283350542863 10.499500073035351  16.822499999999998 10.500000000000002  C 16.4655 10.500000000000002  16.177500000000002 10.782  16.17749999847333 11.145044119191688  C 16.17749999847333 11.497125647208819  16.4629184704562 11.78254411919169  16.81499999847333 11.78254411919169  Z M 17.3265 18.7845  L 17.3265 12.626999999999999  L 16.3185 12.626999999999999  L 16.3185 18.7845  L 17.3265 18.7845  Z M 6 18.7845  L 7.026 18.7845  L 7.026 15.334500000000004  L 10.4175 15.334500000000004  L 10.4175 14.419500000000005  L 7.026 14.419500000000005  L 7.026 11.7015  L 10.722 11.7015  L 10.722 10.7865  L 6 10.7865  L 6 18.7845  Z M 11.97 12.627000000000004  L 11.97 18.7845  L 12.984000000000002 18.7845  L 12.984000000000002 14.97  C 12.984000000000002 14.139  13.3245 13.459500000000002  14.413499999999999 13.459500000000002  C 14.600999999999999 13.459500000000002  14.800500000000001 13.4655  14.907 13.482000000000003  L 14.906999999999998 12.5625  C 14.78086464124156 12.543542869895163  14.653547894263681 12.533517929188246  14.526000000000002 12.532500000000002  C 13.653 12.532500000000002  13.189500000000002 13.012500000000003  13.008000000000001 13.383000000000003  L 12.978000000000002 13.383000000000003  L 12.978000000000002 12.627000000000004  L 11.97 12.627000000000004  Z " fill-rule="nonzero" fill="rgba(0, 0, 0, 1)" stroke="none" class="fill" />
    <path d="M 4.5 0.75  C 4.5 0.3357864376269049  4.835786437626905 0  5.25 0  C 5.664213562373095 0  6 0.3357864376269049  6 0.75  L 6 1.5  L 18 1.5  L 18 0.75  C 18 0.3357864376269049  18.335786437626904 0  18.75 0  C 19.164213562373096 0  19.5 0.3357864376269049  19.5 0.75  L 19.5 1.5  L 21 1.5  C 22.65685424949238 1.5  24 2.8431457505076194  24 4.5  L 24 21  C 24 22.65685424949238  22.65685424949238 24  21 24  L 3 24  C 1.3431457505076196 24  0 22.65685424949238  0 21  L 0 4.5  C 0 2.8431457505076194  1.3431457505076196 1.5  3 1.5  L 4.5 1.5  L 4.5 0.75  Z " stroke-width="0" stroke-dasharray="0" stroke="rgba(255, 255, 255, 0)" fill="none" class="stroke" mask="url(#Clip4962)" />
    <path d="M 3.8175 4.5  C 3.3659999999999997 4.5  3 4.836  3 5.25  L 3 6.75  C 3 7.164  3.3675 7.5  3.8175 7.5  L 20.181 7.5  C 20.634 7.5  21 7.164  21 6.75  L 21 5.25  C 21 4.836  20.6325 4.5  20.1825 4.5  L 3.8175 4.5  Z " stroke-width="0" stroke-dasharray="0" stroke="rgba(255, 255, 255, 0)" fill="none" class="stroke" mask="url(#Clip4962)" />
    <path d="M 16.81499999847333 11.78254411919169  C 16.81750006386529 11.78254411919169  16.820000107629006 11.782529412540011  16.822499999999998 11.782499999999999  C 16.83283350542863 11.78299992696465  16.84317758542004 11.783250000000002  16.853523176819934 11.783250000000002  C 17.2080899862113 11.783250000000002  17.49552317681993 11.495816809391371  17.49552317681993 11.141250000000001  C 17.49552317681993 10.786683190608631  17.2080899862113 10.499250000000002  16.853523176819934 10.499250000000002  C 16.84317758542004 10.499250000000002  16.83283350542863 10.499500073035351  16.822499999999998 10.500000000000002  C 16.4655 10.500000000000002  16.177500000000002 10.782  16.17749999847333 11.145044119191688  C 16.17749999847333 11.497125647208819  16.4629184704562 11.78254411919169  16.81499999847333 11.78254411919169  Z " stroke-width="0" stroke-dasharray="0" stroke="rgba(255, 255, 255, 0)" fill="none" class="stroke" mask="url(#Clip4962)" />
    <path d="M 17.3265 18.7845  L 17.3265 12.626999999999999  L 16.3185 12.626999999999999  L 16.3185 18.7845  L 17.3265 18.7845  Z " stroke-width="0" stroke-dasharray="0" stroke="rgba(255, 255, 255, 0)" fill="none" class="stroke" mask="url(#Clip4962)" />
    <path d="M 6 18.7845  L 7.026 18.7845  L 7.026 15.334500000000004  L 10.4175 15.334500000000004  L 10.4175 14.419500000000005  L 7.026 14.419500000000005  L 7.026 11.7015  L 10.722 11.7015  L 10.722 10.7865  L 6 10.7865  L 6 18.7845  Z " stroke-width="0" stroke-dasharray="0" stroke="rgba(255, 255, 255, 0)" fill="none" class="stroke" mask="url(#Clip4962)" />
    <path d="M 11.97 12.627000000000004  L 11.97 18.7845  L 12.984000000000002 18.7845  L 12.984000000000002 14.97  C 12.984000000000002 14.139  13.3245 13.459500000000002  14.413499999999999 13.459500000000002  C 14.600999999999999 13.459500000000002  14.800500000000001 13.4655  14.907 13.482000000000003  L 14.906999999999998 12.5625  C 14.78086464124156 12.543542869895163  14.653547894263681 12.533517929188246  14.526000000000002 12.532500000000002  C 13.653 12.532500000000002  13.189500000000002 13.012500000000003  13.008000000000001 13.383000000000003  L 12.978000000000002 13.383000000000003  L 12.978000000000002 12.627000000000004  L 11.97 12.627000000000004  Z " stroke-width="0" stroke-dasharray="0" stroke="rgba(255, 255, 255, 0)" fill="none" class="stroke" mask="url(#Clip4962)" />
  </g>
</svg>