<?xml version="1.0" encoding="utf-8"?>
<svg version="1.1" xmlns:xlink="http://www.w3.org/1999/xlink" width="16px" height="16px" xmlns="http://www.w3.org/2000/svg">
  <defs>
    <pattern id="BGPattern" patternUnits="userSpaceOnUse" alignment="0 0" imageRepeat="None" />
    <mask fill="white" id="Clip3727">
      <path d="M 16 8  C 16 12.418277998646346  12.418277998646346 16  8 16  C 3.581722001353654 16  0 12.418277998646346  0 8  C 0 3.581722001353654  3.581722001353654 0  8 0  C 12.418277998646346 0  16 3.581722001353654  16 8  Z M 14 8  C 14 4.686291501015237  11.31370849898476 2  8 2  C 4.686291501015241 2  2 4.686291501015237  2 8  C 2 11.31370849898476  4.686291501015241 13.999999999999996  8 13.999999999999996  C 11.31370849898476 13.999999999999996  14 11.313708498984756  14 8  Z " fill-rule="evenodd" />
    </mask>
  </defs>
  <g transform="matrix(1 0 0 1 -13 -14 )">
    <path d="M 16 8  C 16 12.418277998646346  12.418277998646346 16  8 16  C 3.581722001353654 16  0 12.418277998646346  0 8  C 0 3.581722001353654  3.581722001353654 0  8 0  C 12.418277998646346 0  16 3.581722001353654  16 8  Z M 14 8  C 14 4.686291501015237  11.31370849898476 2  8 2  C 4.686291501015241 2  2 4.686291501015237  2 8  C 2 11.31370849898476  4.686291501015241 13.999999999999996  8 13.999999999999996  C 11.31370849898476 13.999999999999996  14 11.313708498984756  14 8  Z " fill-rule="nonzero" fill="rgba(0, 0, 0, 1)" stroke="none" transform="matrix(1 0 0 1 13 14 )" class="fill" />
    <path d="M 16 8  C 16 12.418277998646346  12.418277998646346 16  8 16  C 3.581722001353654 16  0 12.418277998646346  0 8  C 0 3.581722001353654  3.581722001353654 0  8 0  C 12.418277998646346 0  16 3.581722001353654  16 8  Z " stroke-width="0" stroke-dasharray="0" stroke="rgba(255, 255, 255, 0)" fill="none" transform="matrix(1 0 0 1 13 14 )" class="stroke" mask="url(#Clip3727)" />
    <path d="M 14 8  C 14 4.686291501015237  11.31370849898476 2  8 2  C 4.686291501015241 2  2 4.686291501015237  2 8  C 2 11.31370849898476  4.686291501015241 13.999999999999996  8 13.999999999999996  C 11.31370849898476 13.999999999999996  14 11.313708498984756  14 8  Z " stroke-width="0" stroke-dasharray="0" stroke="rgba(255, 255, 255, 0)" fill="none" transform="matrix(1 0 0 1 13 14 )" class="stroke" mask="url(#Clip3727)" />
  </g>
</svg>