<?xml version="1.0" encoding="utf-8"?>
<svg version="1.1" xmlns:xlink="http://www.w3.org/1999/xlink" width="7px" height="6px" xmlns="http://www.w3.org/2000/svg">
  <defs>
    <pattern id="BGPattern" patternUnits="userSpaceOnUse" alignment="0 0" imageRepeat="None" />
    <mask fill="white" id="Clip6474">
      <path d="M 6.785499999999999 5.855  L 6.785499999999999 0.7144999999999992  L 5.070999999999998 0.7144999999999992  L 5.070999999999998 5.855  L 6.785499999999999 5.855  Z M 2.0710000000000015 5.855  L 2.070999999999998 0.7144999999999992  L 0.3565000000000005 0.7144999999999992  L 0.3565000000000005 5.855  L 2.0710000000000015 5.855  Z " fill-rule="evenodd" />
    </mask>
  </defs>
  <g transform="matrix(1 0 0 1 -10 -4 )">
    <path d="M 6.785499999999999 5.855  L 6.785499999999999 0.7144999999999992  L 5.070999999999998 0.7144999999999992  L 5.070999999999998 5.855  L 6.785499999999999 5.855  Z M 2.0710000000000015 5.855  L 2.070999999999998 0.7144999999999992  L 0.3565000000000005 0.7144999999999992  L 0.3565000000000005 5.855  L 2.0710000000000015 5.855  Z " fill-rule="nonzero" fill="rgba(0, 0, 0, 1)" stroke="none" transform="matrix(1 0 0 1 10 4 )" class="fill" />
    <path d="M 6.785499999999999 5.855  L 6.785499999999999 0.7144999999999992  L 5.070999999999998 0.7144999999999992  L 5.070999999999998 5.855  L 6.785499999999999 5.855  Z " stroke-width="0" stroke-dasharray="0" stroke="rgba(255, 255, 255, 0)" fill="none" transform="matrix(1 0 0 1 10 4 )" class="stroke" mask="url(#Clip6474)" />
    <path d="M 2.0710000000000015 5.855  L 2.070999999999998 0.7144999999999992  L 0.3565000000000005 0.7144999999999992  L 0.3565000000000005 5.855  L 2.0710000000000015 5.855  Z " stroke-width="0" stroke-dasharray="0" stroke="rgba(255, 255, 255, 0)" fill="none" transform="matrix(1 0 0 1 10 4 )" class="stroke" mask="url(#Clip6474)" />
  </g>
</svg>