<?xml version="1.0" encoding="utf-8"?>
<svg version="1.1" xmlns:xlink="http://www.w3.org/1999/xlink" width="50px" height="50px" xmlns="http://www.w3.org/2000/svg">
  <defs>
    <pattern id="BGPattern" patternUnits="userSpaceOnUse" alignment="0 0" imageRepeat="None" />
    <mask fill="white" id="Clip2386">
      <path d="M 50 2  C 50 0.8937499999999997  49.10625 0  48 0  L 2 0  C 0.8937499999999997 0  0 0.8937499999999997  0 2  L 0 48  C 0 49.10625  0.8937499999999997 50  2 50  L 48 50  C 49.10625 50  50 49.10625  50 48  L 50 2  Z M 41.93750000000001 14.506250000000001  C 40.993750000000006 15.89375  39.81250000000001 17.125  38.45625 18.10625  C 38.474999999999994 18.4  38.474999999999994 18.70625  38.474999999999994 19.006249999999998  C 38.474999999999994 28.181249999999995  31.487499999999997 38.75  18.718749999999993 38.75  C 14.781249999999993 38.75  11.131249999999994 37.60625  8.056249999999993 35.6375  C 8.618749999999993 35.7  9.156249999999993 35.725  9.731249999999992 35.725  C 12.981249999999992 35.725  15.968749999999993 34.625  18.349999999999994 32.7625  C 15.299999999999994 32.7  12.737499999999994 30.700000000000006  11.862499999999994 27.950000000000003  C 12.931249999999995 28.106250000000006  13.893749999999994 28.106250000000006  14.993749999999995 27.825000000000006  C 11.755636363180734 27.167130278662427  9.430884154841824 24.31675917957422  9.437499999999993 21.012500000000003  L 9.437499999999993 20.925000000000004  C 10.356249999999992 21.443750000000005  11.437499999999993 21.762500000000003  12.568749999999994 21.806250000000006  C 10.637368146132847 20.519080146128214  9.47656612580829 18.352249708189042  9.474999999999994 16.031250000000007  C 9.474999999999994 14.73750000000001  9.812499999999993 13.556250000000006  10.418749999999996 12.531250000000007  C 13.944064603690116 16.871007119207516  19.147014992583852 19.508834805454512  24.731249999999996 19.78750000000001  C 23.75 15.06875  27.275 11.25  31.512500000000003 11.25  C 33.5125 11.25  35.3125 12.087499999999999  36.581250000000004 13.4375  C 38.150000000000006 13.14375  39.650000000000006 12.556249999999999  40.987500000000004 11.76875  C 40.46875000000001 13.375  39.38125 14.73125  37.93750000000001 15.587500000000002  C 39.337500000000006 15.437500000000004  40.68750000000001 15.049999999999999  41.93750000000001 14.506250000000001  Z " fill-rule="evenodd" />
    </mask>
  </defs>
  <g>
    <path d="M 50 2  C 50 0.8937499999999997  49.10625 0  48 0  L 2 0  C 0.8937499999999997 0  0 0.8937499999999997  0 2  L 0 48  C 0 49.10625  0.8937499999999997 50  2 50  L 48 50  C 49.10625 50  50 49.10625  50 48  L 50 2  Z M 41.93750000000001 14.506250000000001  C 40.993750000000006 15.89375  39.81250000000001 17.125  38.45625 18.10625  C 38.474999999999994 18.4  38.474999999999994 18.70625  38.474999999999994 19.006249999999998  C 38.474999999999994 28.181249999999995  31.487499999999997 38.75  18.718749999999993 38.75  C 14.781249999999993 38.75  11.131249999999994 37.60625  8.056249999999993 35.6375  C 8.618749999999993 35.7  9.156249999999993 35.725  9.731249999999992 35.725  C 12.981249999999992 35.725  15.968749999999993 34.625  18.349999999999994 32.7625  C 15.299999999999994 32.7  12.737499999999994 30.700000000000006  11.862499999999994 27.950000000000003  C 12.931249999999995 28.106250000000006  13.893749999999994 28.106250000000006  14.993749999999995 27.825000000000006  C 11.755636363180734 27.167130278662427  9.430884154841824 24.31675917957422  9.437499999999993 21.012500000000003  L 9.437499999999993 20.925000000000004  C 10.356249999999992 21.443750000000005  11.437499999999993 21.762500000000003  12.568749999999994 21.806250000000006  C 10.637368146132847 20.519080146128214  9.47656612580829 18.352249708189042  9.474999999999994 16.031250000000007  C 9.474999999999994 14.73750000000001  9.812499999999993 13.556250000000006  10.418749999999996 12.531250000000007  C 13.944064603690116 16.871007119207516  19.147014992583852 19.508834805454512  24.731249999999996 19.78750000000001  C 23.75 15.06875  27.275 11.25  31.512500000000003 11.25  C 33.5125 11.25  35.3125 12.087499999999999  36.581250000000004 13.4375  C 38.150000000000006 13.14375  39.650000000000006 12.556249999999999  40.987500000000004 11.76875  C 40.46875000000001 13.375  39.38125 14.73125  37.93750000000001 15.587500000000002  C 39.337500000000006 15.437500000000004  40.68750000000001 15.049999999999999  41.93750000000001 14.506250000000001  Z " fill-rule="nonzero" fill="rgba(0, 0, 0, 1)" stroke="none" class="fill" />
    <path d="M 50 2  C 50 0.8937499999999997  49.10625 0  48 0  L 2 0  C 0.8937499999999997 0  0 0.8937499999999997  0 2  L 0 48  C 0 49.10625  0.8937499999999997 50  2 50  L 48 50  C 49.10625 50  50 49.10625  50 48  L 50 2  Z " stroke-width="0" stroke-dasharray="0" stroke="rgba(255, 255, 255, 0)" fill="none" class="stroke" mask="url(#Clip2386)" />
    <path d="M 41.93750000000001 14.506250000000001  C 40.993750000000006 15.89375  39.81250000000001 17.125  38.45625 18.10625  C 38.474999999999994 18.4  38.474999999999994 18.70625  38.474999999999994 19.006249999999998  C 38.474999999999994 28.181249999999995  31.487499999999997 38.75  18.718749999999993 38.75  C 14.781249999999993 38.75  11.131249999999994 37.60625  8.056249999999993 35.6375  C 8.618749999999993 35.7  9.156249999999993 35.725  9.731249999999992 35.725  C 12.981249999999992 35.725  15.968749999999993 34.625  18.349999999999994 32.7625  C 15.299999999999994 32.7  12.737499999999994 30.700000000000006  11.862499999999994 27.950000000000003  C 12.931249999999995 28.106250000000006  13.893749999999994 28.106250000000006  14.993749999999995 27.825000000000006  C 11.755636363180734 27.167130278662427  9.430884154841824 24.31675917957422  9.437499999999993 21.012500000000003  L 9.437499999999993 20.925000000000004  C 10.356249999999992 21.443750000000005  11.437499999999993 21.762500000000003  12.568749999999994 21.806250000000006  C 10.637368146132847 20.519080146128214  9.47656612580829 18.352249708189042  9.474999999999994 16.031250000000007  C 9.474999999999994 14.73750000000001  9.812499999999993 13.556250000000006  10.418749999999996 12.531250000000007  C 13.944064603690116 16.871007119207516  19.147014992583852 19.508834805454512  24.731249999999996 19.78750000000001  C 23.75 15.06875  27.275 11.25  31.512500000000003 11.25  C 33.5125 11.25  35.3125 12.087499999999999  36.581250000000004 13.4375  C 38.150000000000006 13.14375  39.650000000000006 12.556249999999999  40.987500000000004 11.76875  C 40.46875000000001 13.375  39.38125 14.73125  37.93750000000001 15.587500000000002  C 39.337500000000006 15.437500000000004  40.68750000000001 15.049999999999999  41.93750000000001 14.506250000000001  Z " stroke-width="0" stroke-dasharray="0" stroke="rgba(255, 255, 255, 0)" fill="none" class="stroke" mask="url(#Clip2386)" />
  </g>
</svg>