<?xml version="1.0" encoding="utf-8"?>
<svg version="1.1" xmlns:xlink="http://www.w3.org/1999/xlink" width="50px" height="30px" xmlns="http://www.w3.org/2000/svg">
  <defs>
    <pattern id="BGPattern" patternUnits="userSpaceOnUse" alignment="0 0" imageRepeat="None" />
    <mask fill="white" id="Clip1796">
      <path d="M 49.921684867394674 19.88260530424145  C 49.875819032761285 14.454290171651905  45.44001560062401 10.02410296417645  40.01162246489861 9.984633385393408  C 38.85234009360374 9.976209048419946  37.738611544461776 10.165756630322676  36.701638065522616 10.520826833129775  L 34.13330733229327 6.240249610053297  L 40.56162246489862 6.240249610053297  C 41.59555382215291 6.240249610053297  42.43369734789394 5.40210608431471  42.43369734789394 4.368174727063433  L 42.43369734789394 1.8720748830768912  C 42.43369734789394 0.8381435258256147  41.59555382215291 0  40.56162246489862 0  L 37.02722308892356 0  C 36.49651488067116 0  35.99074710749005 0.2252594288533487  35.63572542901716 0.6197347894768086  L 32.710920436817446 3.869578783227098  L 30.934477379095142 0.9088923557786188  C 30.596145533669127 0.34501227340444984  29.986766646889407 0  29.329173166926694 0  L 23.08892355694229 0  C 22.399609984399376 0  21.84087363494541 0.5587363495393447  21.84087363494541 1.2480499220802699  L 21.84087363494541 2.4960998440735125  C 21.84087363494541 3.1854134166144377  22.399609984399376 3.744149766066755  23.08892355694229 3.744149766066755  L 28.269188767550702 3.744149766066755  L 29.76684867394698 6.240249610053297  L 17.777223088923563 6.240249610053297  C 16.394461778471168 4.440483619418899  14.273010920436832 3.120124805070134  9.984399375975045 3.120124805070134  L 5.658346333853331 3.120124805070134  C 4.608814352574086 3.120124805070134  3.724570982839339 3.9790171607618845  3.7444617784711336 5.028393135797842  C 3.7638065522621105 6.045631825342468  4.594383775350991 6.8642745710499184  5.616224648985963 6.8642745710499184  L 9.984399375975045 6.8642745710499184  C 11.895787831513246 6.8642745710499184  13.002028081123228 7.715990639690176  13.71193447737909 8.796333853415604  L 12.831201248049922 10.397659906453043  C 11.816692667706718 10.096177847171589  10.735179407176304 9.950234009418466  9.613494539781584 9.991263650604026  C 4.357020280811241 10.183229329230585  0.12207488299532088 14.47776911080939  0.0026521060842696897 19.736427457128002  C -0.12503900156008285 25.35694227770449  4.39290171606865 29.953198127925134  9.984399375975045 29.953198127925134  C 14.636661466458634 29.953198127925134  18.544773790951638 26.771138845563087  19.653120124805014 22.46489859596562  L 26.223790951638083 22.46489859596562  C 27.290327613104527 22.46489859596562  28.1418096723869 21.574024961022815  28.09399375975039 20.508814352601576  C 27.92878315132606 16.8333073323314  29.46076443057723 13.202652106132916  32.47659906396257 10.756396255905997  L 33.450468018720755 12.379485179458243  C 31.29399375975038 14.224570982884984  29.932761310452406 16.972308892393414  29.953510140405626 20.03775351016924  C 29.990171606864298 25.463338533554406  34.415522620904824 29.90140405616239  39.84102964118563 29.952730109204367  C 45.42831513260529 30.00561622464886  49.9688767550702 25.468564742602723  49.921684867394674 19.88260530424145  Z M 15.70179407176289 22.46489859596562  C 14.73689547581904 24.666536661481814  12.537987519500804 26.20904836194535  9.984399375975045 26.20904836194535  C 6.5435257410296686 26.20904836194535  3.7441497659906418 23.409672386914508  3.7441497659906418 19.96879875197908  C 3.7441497659906418 16.527925117043708  6.5435257410296686 13.72854914201281  9.984399375975045 13.72854914201281  C 10.315288611544474 13.72854914201281  10.640015600623997 13.755148205975274  10.957020280811207 13.805148205975172  L 7.71996879875195 19.690639625614835  C 7.034867394695767 20.93658346336474  7.937753510140396 22.46489859596562  9.360374414976604 22.46489859596562  L 15.70179407176289 22.46489859596562  Z M 46.16879875195008 20.30826833076128  C 46.00031201248049 23.471918876773884  43.44071762870516 26.03151326054183  40.27698907956318 26.200000000010903  C 36.6826833073323 26.391341653676477  33.697347893915776 23.52215288613411  33.697347893915776 19.96879875197908  C 33.697347893915776 18.30241809675772  34.35522620904834 16.787753510178675  35.423166926677084 15.66739469582933  L 39.277457098283946 22.091107644328645  C 39.6320592823713 22.682137285512567  40.39875195007801 22.873790951658634  40.989781591263636 22.519188767572302  L 42.05998439937599 21.877067082706787  C 42.65101404056162 21.522464898620456  42.842667706708255 20.755772230915966  42.4880655226209 20.164742589732043  L 38.700546021840864 13.85218408741025  C 39.10775346143231 13.769900067538742  39.52215971745704 13.728482959537132  39.93759750390018 13.72854914201281  C 43.49095163806555 13.72854914201281  46.36021840873633 16.7139625585408  46.16879875195008 20.30826833076128  Z " fill-rule="evenodd" />
    </mask>
  </defs>
  <g>
    <path d="M 49.921684867394674 19.88260530424145  C 49.875819032761285 14.454290171651905  45.44001560062401 10.02410296417645  40.01162246489861 9.984633385393408  C 38.85234009360374 9.976209048419946  37.738611544461776 10.165756630322676  36.701638065522616 10.520826833129775  L 34.13330733229327 6.240249610053297  L 40.56162246489862 6.240249610053297  C 41.59555382215291 6.240249610053297  42.43369734789394 5.40210608431471  42.43369734789394 4.368174727063433  L 42.43369734789394 1.8720748830768912  C 42.43369734789394 0.8381435258256147  41.59555382215291 0  40.56162246489862 0  L 37.02722308892356 0  C 36.49651488067116 0  35.99074710749005 0.2252594288533487  35.63572542901716 0.6197347894768086  L 32.710920436817446 3.869578783227098  L 30.934477379095142 0.9088923557786188  C 30.596145533669127 0.34501227340444984  29.986766646889407 0  29.329173166926694 0  L 23.08892355694229 0  C 22.399609984399376 0  21.84087363494541 0.5587363495393447  21.84087363494541 1.2480499220802699  L 21.84087363494541 2.4960998440735125  C 21.84087363494541 3.1854134166144377  22.399609984399376 3.744149766066755  23.08892355694229 3.744149766066755  L 28.269188767550702 3.744149766066755  L 29.76684867394698 6.240249610053297  L 17.777223088923563 6.240249610053297  C 16.394461778471168 4.440483619418899  14.273010920436832 3.120124805070134  9.984399375975045 3.120124805070134  L 5.658346333853331 3.120124805070134  C 4.608814352574086 3.120124805070134  3.724570982839339 3.9790171607618845  3.7444617784711336 5.028393135797842  C 3.7638065522621105 6.045631825342468  4.594383775350991 6.8642745710499184  5.616224648985963 6.8642745710499184  L 9.984399375975045 6.8642745710499184  C 11.895787831513246 6.8642745710499184  13.002028081123228 7.715990639690176  13.71193447737909 8.796333853415604  L 12.831201248049922 10.397659906453043  C 11.816692667706718 10.096177847171589  10.735179407176304 9.950234009418466  9.613494539781584 9.991263650604026  C 4.357020280811241 10.183229329230585  0.12207488299532088 14.47776911080939  0.0026521060842696897 19.736427457128002  C -0.12503900156008285 25.35694227770449  4.39290171606865 29.953198127925134  9.984399375975045 29.953198127925134  C 14.636661466458634 29.953198127925134  18.544773790951638 26.771138845563087  19.653120124805014 22.46489859596562  L 26.223790951638083 22.46489859596562  C 27.290327613104527 22.46489859596562  28.1418096723869 21.574024961022815  28.09399375975039 20.508814352601576  C 27.92878315132606 16.8333073323314  29.46076443057723 13.202652106132916  32.47659906396257 10.756396255905997  L 33.450468018720755 12.379485179458243  C 31.29399375975038 14.224570982884984  29.932761310452406 16.972308892393414  29.953510140405626 20.03775351016924  C 29.990171606864298 25.463338533554406  34.415522620904824 29.90140405616239  39.84102964118563 29.952730109204367  C 45.42831513260529 30.00561622464886  49.9688767550702 25.468564742602723  49.921684867394674 19.88260530424145  Z M 15.70179407176289 22.46489859596562  C 14.73689547581904 24.666536661481814  12.537987519500804 26.20904836194535  9.984399375975045 26.20904836194535  C 6.5435257410296686 26.20904836194535  3.7441497659906418 23.409672386914508  3.7441497659906418 19.96879875197908  C 3.7441497659906418 16.527925117043708  6.5435257410296686 13.72854914201281  9.984399375975045 13.72854914201281  C 10.315288611544474 13.72854914201281  10.640015600623997 13.755148205975274  10.957020280811207 13.805148205975172  L 7.71996879875195 19.690639625614835  C 7.034867394695767 20.93658346336474  7.937753510140396 22.46489859596562  9.360374414976604 22.46489859596562  L 15.70179407176289 22.46489859596562  Z M 46.16879875195008 20.30826833076128  C 46.00031201248049 23.471918876773884  43.44071762870516 26.03151326054183  40.27698907956318 26.200000000010903  C 36.6826833073323 26.391341653676477  33.697347893915776 23.52215288613411  33.697347893915776 19.96879875197908  C 33.697347893915776 18.30241809675772  34.35522620904834 16.787753510178675  35.423166926677084 15.66739469582933  L 39.277457098283946 22.091107644328645  C 39.6320592823713 22.682137285512567  40.39875195007801 22.873790951658634  40.989781591263636 22.519188767572302  L 42.05998439937599 21.877067082706787  C 42.65101404056162 21.522464898620456  42.842667706708255 20.755772230915966  42.4880655226209 20.164742589732043  L 38.700546021840864 13.85218408741025  C 39.10775346143231 13.769900067538742  39.52215971745704 13.728482959537132  39.93759750390018 13.72854914201281  C 43.49095163806555 13.72854914201281  46.36021840873633 16.7139625585408  46.16879875195008 20.30826833076128  Z " fill-rule="nonzero" fill="rgba(0, 0, 0, 1)" stroke="none" class="fill" />
    <path d="M 49.921684867394674 19.88260530424145  C 49.875819032761285 14.454290171651905  45.44001560062401 10.02410296417645  40.01162246489861 9.984633385393408  C 38.85234009360374 9.976209048419946  37.738611544461776 10.165756630322676  36.701638065522616 10.520826833129775  L 34.13330733229327 6.240249610053297  L 40.56162246489862 6.240249610053297  C 41.59555382215291 6.240249610053297  42.43369734789394 5.40210608431471  42.43369734789394 4.368174727063433  L 42.43369734789394 1.8720748830768912  C 42.43369734789394 0.8381435258256147  41.59555382215291 0  40.56162246489862 0  L 37.02722308892356 0  C 36.49651488067116 0  35.99074710749005 0.2252594288533487  35.63572542901716 0.6197347894768086  L 32.710920436817446 3.869578783227098  L 30.934477379095142 0.9088923557786188  C 30.596145533669127 0.34501227340444984  29.986766646889407 0  29.329173166926694 0  L 23.08892355694229 0  C 22.399609984399376 0  21.84087363494541 0.5587363495393447  21.84087363494541 1.2480499220802699  L 21.84087363494541 2.4960998440735125  C 21.84087363494541 3.1854134166144377  22.399609984399376 3.744149766066755  23.08892355694229 3.744149766066755  L 28.269188767550702 3.744149766066755  L 29.76684867394698 6.240249610053297  L 17.777223088923563 6.240249610053297  C 16.394461778471168 4.440483619418899  14.273010920436832 3.120124805070134  9.984399375975045 3.120124805070134  L 5.658346333853331 3.120124805070134  C 4.608814352574086 3.120124805070134  3.724570982839339 3.9790171607618845  3.7444617784711336 5.028393135797842  C 3.7638065522621105 6.045631825342468  4.594383775350991 6.8642745710499184  5.616224648985963 6.8642745710499184  L 9.984399375975045 6.8642745710499184  C 11.895787831513246 6.8642745710499184  13.002028081123228 7.715990639690176  13.71193447737909 8.796333853415604  L 12.831201248049922 10.397659906453043  C 11.816692667706718 10.096177847171589  10.735179407176304 9.950234009418466  9.613494539781584 9.991263650604026  C 4.357020280811241 10.183229329230585  0.12207488299532088 14.47776911080939  0.0026521060842696897 19.736427457128002  C -0.12503900156008285 25.35694227770449  4.39290171606865 29.953198127925134  9.984399375975045 29.953198127925134  C 14.636661466458634 29.953198127925134  18.544773790951638 26.771138845563087  19.653120124805014 22.46489859596562  L 26.223790951638083 22.46489859596562  C 27.290327613104527 22.46489859596562  28.1418096723869 21.574024961022815  28.09399375975039 20.508814352601576  C 27.92878315132606 16.8333073323314  29.46076443057723 13.202652106132916  32.47659906396257 10.756396255905997  L 33.450468018720755 12.379485179458243  C 31.29399375975038 14.224570982884984  29.932761310452406 16.972308892393414  29.953510140405626 20.03775351016924  C 29.990171606864298 25.463338533554406  34.415522620904824 29.90140405616239  39.84102964118563 29.952730109204367  C 45.42831513260529 30.00561622464886  49.9688767550702 25.468564742602723  49.921684867394674 19.88260530424145  Z " stroke-width="0" stroke-dasharray="0" stroke="rgba(255, 255, 255, 0)" fill="none" class="stroke" mask="url(#Clip1796)" />
    <path d="M 15.70179407176289 22.46489859596562  C 14.73689547581904 24.666536661481814  12.537987519500804 26.20904836194535  9.984399375975045 26.20904836194535  C 6.5435257410296686 26.20904836194535  3.7441497659906418 23.409672386914508  3.7441497659906418 19.96879875197908  C 3.7441497659906418 16.527925117043708  6.5435257410296686 13.72854914201281  9.984399375975045 13.72854914201281  C 10.315288611544474 13.72854914201281  10.640015600623997 13.755148205975274  10.957020280811207 13.805148205975172  L 7.71996879875195 19.690639625614835  C 7.034867394695767 20.93658346336474  7.937753510140396 22.46489859596562  9.360374414976604 22.46489859596562  L 15.70179407176289 22.46489859596562  Z " stroke-width="0" stroke-dasharray="0" stroke="rgba(255, 255, 255, 0)" fill="none" class="stroke" mask="url(#Clip1796)" />
    <path d="M 46.16879875195008 20.30826833076128  C 46.00031201248049 23.471918876773884  43.44071762870516 26.03151326054183  40.27698907956318 26.200000000010903  C 36.6826833073323 26.391341653676477  33.697347893915776 23.52215288613411  33.697347893915776 19.96879875197908  C 33.697347893915776 18.30241809675772  34.35522620904834 16.787753510178675  35.423166926677084 15.66739469582933  L 39.277457098283946 22.091107644328645  C 39.6320592823713 22.682137285512567  40.39875195007801 22.873790951658634  40.989781591263636 22.519188767572302  L 42.05998439937599 21.877067082706787  C 42.65101404056162 21.522464898620456  42.842667706708255 20.755772230915966  42.4880655226209 20.164742589732043  L 38.700546021840864 13.85218408741025  C 39.10775346143231 13.769900067538742  39.52215971745704 13.728482959537132  39.93759750390018 13.72854914201281  C 43.49095163806555 13.72854914201281  46.36021840873633 16.7139625585408  46.16879875195008 20.30826833076128  Z " stroke-width="0" stroke-dasharray="0" stroke="rgba(255, 255, 255, 0)" fill="none" class="stroke" mask="url(#Clip1796)" />
  </g>
</svg>