<?xml version="1.0" encoding="utf-8"?>
<svg version="1.1" xmlns:xlink="http://www.w3.org/1999/xlink" width="48px" height="49px" xmlns="http://www.w3.org/2000/svg">
  <defs>
    <pattern id="BGPattern" patternUnits="userSpaceOnUse" alignment="0 0" imageRepeat="None" />
    <mask fill="white" id="Clip7188">
      <path d="M 35.775999999999996 44.952  C 35.775999999999996 44.92  35.772 44.924  35.626 45.004  C 35.448 45.098  35.458 45.135999999999996  35.63599999999999 45.04599999999999  C 35.68810478434148 45.02364290926017  35.735583115525245 44.991764601179646  35.775999999999996 44.952  Z M 36.104 44.763999999999996  C 36.104 44.726  36.08 44.736  35.982 44.815999999999995  C 35.897999999999996 44.882  35.897999999999996 44.885999999999996  36 44.833999999999996  C 36.056 44.806  36.104 44.773999999999994  36.104 44.763999999999996  Z M 36.338 44.62199999999999  C 36.338 44.583999999999996  36.314 44.593999999999994  36.216 44.67399999999999  C 36.132 44.739999999999995  36.132 44.74399999999999  36.234 44.69199999999999  C 36.29 44.663999999999994  36.338 44.63199999999999  36.338 44.62199999999999  Z M 36.572 44.48199999999999  C 36.572 44.443999999999996  36.548 44.45399999999999  36.45 44.53399999999999  C 36.366 44.599999999999994  36.366 44.60399999999999  36.468 44.55199999999999  C 36.524 44.523999999999994  36.572 44.49199999999999  36.572 44.48199999999999  Z M 36.94800000000001 44.22599999999999  C 36.88665754573907 44.252340620712616  36.82832276186724 44.285195843812836  36.774 44.32399999999999  C 36.61 44.42799999999999  36.558 44.49799999999999  36.704 44.41799999999999  C 36.808 44.35799999999999  36.976 44.22999999999999  36.94800000000001 44.22599999999999  Z M 22.43199999999999 0.018000000000002292  L 22.428 0.012  C 22.324 0.022  21.996000000000002 0.054000000000000006  21.7 0.078  C 14.884 0.692  8.498 4.37  4.454000000000001 10.024000000000001  C 2.2183232851077728 13.12729336736835  0.7651332660615628 16.72459047306206  0.21800000000000086 20.509999999999998  C 0.026000000000000856 21.828  0.002000000000000862 22.217999999999996  0.002000000000000862 24.005999999999997  C 0.002000000000000862 25.793999999999997  0.026000000000000863 26.181999999999995  0.21800000000000086 27.501999999999995  C 1.522000000000001 36.513999999999996  7.936000000000002 44.086  16.634 46.891999999999996  C 18.192 47.394  19.834 47.736  21.7 47.94199999999999  C 22.428 48.02199999999999  25.57 48.02199999999999  26.298000000000002 47.94199999999999  C 29.52 47.58599999999999  32.251999999999995 46.788  34.944 45.413999999999994  C 35.356 45.20199999999999  35.436 45.145999999999994  35.379999999999995 45.09999999999999  C 34.06503153733954 43.36254182877363  32.762332476782866 41.61583172710604  31.472 39.85999999999999  L 27.634 34.675999999999995  L 22.826 27.55999999999999  C 21.22737564081828 25.17890167822503  19.61334176873924 22.80818525975619  17.984 20.447999999999993  C 17.966 20.443999999999992  17.946 23.605999999999995  17.938000000000002 27.465999999999994  C 17.924000000000003 34.22599999999999  17.92 34.49799999999999  17.834000000000003 34.657999999999994  C 17.75237053372835 34.844929178116125  17.606098146235226 34.99617198654348  17.422000000000004 35.083999999999996  C 17.272000000000006 35.16  17.140000000000004 35.174  16.432000000000006 35.174  L 15.619999999999997 35.174  L 15.403999999999998 35.038  C 15.270731239387391 34.95401308577968  15.162325537639866 34.835940633557854  15.09 34.696  L 14.991999999999997 34.483999999999995  L 15.001999999999999 25.077999999999996  L 15.015999999999998 15.667999999999996  L 15.161999999999999 15.485999999999994  C 15.26009210465647 15.370753730964113  15.377933633420191 15.273906957324963  15.51 15.199999999999994  C 15.702 15.105999999999996  15.777999999999999 15.095999999999997  16.59 15.095999999999997  C 17.548 15.095999999999997  17.706 15.133999999999997  17.956 15.405999999999997  C 19.902284533186265 18.30249011875663  21.832314864887525 21.209869143471376  23.746 24.127999999999997  C 26.861999999999995 28.852  31.119999999999997 35.30199999999999  33.214 38.47  L 37.013999999999996 44.226  L 37.205999999999996 44.1  C 39.03447925474185 42.883758863729696  40.692450098478304 41.428914671031144  42.13599999999999 39.774  C 45.1599280109159 36.31333674175456  47.12103836979957 32.053616153442775  47.78399999999999 27.506  C 47.97599999999999 26.188  47.99999999999999 25.798000000000002  47.99999999999999 24.01  C 47.99999999999999 22.222  47.97599999999999 21.834000000000003  47.78399999999999 20.514000000000003  C 46.47999999999999 11.502000000000002  40.06599999999999 3.9300000000000037  31.367999999999988 1.1240000000000023  C 29.742530820461546 0.606495452310543  28.068546712157712 0.2560175945671858  26.371999999999993 0.07800000000000229  C 25.921999999999993 0.03200000000000229  22.819999999999993 -0.019999999999997714  22.43199999999999 0.018000000000002292  Z M 31.279999999999994 14.434000000000005  C 31.97399999999999 14.434000000000005  32.09599999999999 14.444  32.252 14.527999999999999  C 32.47795754225158 14.64155604599209  32.64876787718418 14.841195129436516  32.726 15.081999999999999  C 32.763999999999996 15.203999999999999  32.772 17.812  32.763999999999996 23.69  L 32.74999999999999 32.126000000000005  L 31.261999999999993 29.846000000000004  L 29.76999999999999 27.566000000000003  L 29.76999999999999 21.434000000000005  C 29.76999999999999 17.470000000000006  29.78799999999999 15.242000000000004  29.815999999999995 15.134000000000002  C 29.884541012731887 14.882187141343557  30.051854868798955 14.668717738775229  30.27999999999999 14.542000000000003  C 30.47199999999999 14.444  30.54199999999999 14.434000000000005  31.279999999999994 14.434000000000005  Z " fill-rule="evenodd" />
    </mask>
  </defs>
  <g>
    <path d="M 35.775999999999996 44.952  C 35.775999999999996 44.92  35.772 44.924  35.626 45.004  C 35.448 45.098  35.458 45.135999999999996  35.63599999999999 45.04599999999999  C 35.68810478434148 45.02364290926017  35.735583115525245 44.991764601179646  35.775999999999996 44.952  Z M 36.104 44.763999999999996  C 36.104 44.726  36.08 44.736  35.982 44.815999999999995  C 35.897999999999996 44.882  35.897999999999996 44.885999999999996  36 44.833999999999996  C 36.056 44.806  36.104 44.773999999999994  36.104 44.763999999999996  Z M 36.338 44.62199999999999  C 36.338 44.583999999999996  36.314 44.593999999999994  36.216 44.67399999999999  C 36.132 44.739999999999995  36.132 44.74399999999999  36.234 44.69199999999999  C 36.29 44.663999999999994  36.338 44.63199999999999  36.338 44.62199999999999  Z M 36.572 44.48199999999999  C 36.572 44.443999999999996  36.548 44.45399999999999  36.45 44.53399999999999  C 36.366 44.599999999999994  36.366 44.60399999999999  36.468 44.55199999999999  C 36.524 44.523999999999994  36.572 44.49199999999999  36.572 44.48199999999999  Z M 36.94800000000001 44.22599999999999  C 36.88665754573907 44.252340620712616  36.82832276186724 44.285195843812836  36.774 44.32399999999999  C 36.61 44.42799999999999  36.558 44.49799999999999  36.704 44.41799999999999  C 36.808 44.35799999999999  36.976 44.22999999999999  36.94800000000001 44.22599999999999  Z M 22.43199999999999 0.018000000000002292  L 22.428 0.012  C 22.324 0.022  21.996000000000002 0.054000000000000006  21.7 0.078  C 14.884 0.692  8.498 4.37  4.454000000000001 10.024000000000001  C 2.2183232851077728 13.12729336736835  0.7651332660615628 16.72459047306206  0.21800000000000086 20.509999999999998  C 0.026000000000000856 21.828  0.002000000000000862 22.217999999999996  0.002000000000000862 24.005999999999997  C 0.002000000000000862 25.793999999999997  0.026000000000000863 26.181999999999995  0.21800000000000086 27.501999999999995  C 1.522000000000001 36.513999999999996  7.936000000000002 44.086  16.634 46.891999999999996  C 18.192 47.394  19.834 47.736  21.7 47.94199999999999  C 22.428 48.02199999999999  25.57 48.02199999999999  26.298000000000002 47.94199999999999  C 29.52 47.58599999999999  32.251999999999995 46.788  34.944 45.413999999999994  C 35.356 45.20199999999999  35.436 45.145999999999994  35.379999999999995 45.09999999999999  C 34.06503153733954 43.36254182877363  32.762332476782866 41.61583172710604  31.472 39.85999999999999  L 27.634 34.675999999999995  L 22.826 27.55999999999999  C 21.22737564081828 25.17890167822503  19.61334176873924 22.80818525975619  17.984 20.447999999999993  C 17.966 20.443999999999992  17.946 23.605999999999995  17.938000000000002 27.465999999999994  C 17.924000000000003 34.22599999999999  17.92 34.49799999999999  17.834000000000003 34.657999999999994  C 17.75237053372835 34.844929178116125  17.606098146235226 34.99617198654348  17.422000000000004 35.083999999999996  C 17.272000000000006 35.16  17.140000000000004 35.174  16.432000000000006 35.174  L 15.619999999999997 35.174  L 15.403999999999998 35.038  C 15.270731239387391 34.95401308577968  15.162325537639866 34.835940633557854  15.09 34.696  L 14.991999999999997 34.483999999999995  L 15.001999999999999 25.077999999999996  L 15.015999999999998 15.667999999999996  L 15.161999999999999 15.485999999999994  C 15.26009210465647 15.370753730964113  15.377933633420191 15.273906957324963  15.51 15.199999999999994  C 15.702 15.105999999999996  15.777999999999999 15.095999999999997  16.59 15.095999999999997  C 17.548 15.095999999999997  17.706 15.133999999999997  17.956 15.405999999999997  C 19.902284533186265 18.30249011875663  21.832314864887525 21.209869143471376  23.746 24.127999999999997  C 26.861999999999995 28.852  31.119999999999997 35.30199999999999  33.214 38.47  L 37.013999999999996 44.226  L 37.205999999999996 44.1  C 39.03447925474185 42.883758863729696  40.692450098478304 41.428914671031144  42.13599999999999 39.774  C 45.1599280109159 36.31333674175456  47.12103836979957 32.053616153442775  47.78399999999999 27.506  C 47.97599999999999 26.188  47.99999999999999 25.798000000000002  47.99999999999999 24.01  C 47.99999999999999 22.222  47.97599999999999 21.834000000000003  47.78399999999999 20.514000000000003  C 46.47999999999999 11.502000000000002  40.06599999999999 3.9300000000000037  31.367999999999988 1.1240000000000023  C 29.742530820461546 0.606495452310543  28.068546712157712 0.2560175945671858  26.371999999999993 0.07800000000000229  C 25.921999999999993 0.03200000000000229  22.819999999999993 -0.019999999999997714  22.43199999999999 0.018000000000002292  Z M 31.279999999999994 14.434000000000005  C 31.97399999999999 14.434000000000005  32.09599999999999 14.444  32.252 14.527999999999999  C 32.47795754225158 14.64155604599209  32.64876787718418 14.841195129436516  32.726 15.081999999999999  C 32.763999999999996 15.203999999999999  32.772 17.812  32.763999999999996 23.69  L 32.74999999999999 32.126000000000005  L 31.261999999999993 29.846000000000004  L 29.76999999999999 27.566000000000003  L 29.76999999999999 21.434000000000005  C 29.76999999999999 17.470000000000006  29.78799999999999 15.242000000000004  29.815999999999995 15.134000000000002  C 29.884541012731887 14.882187141343557  30.051854868798955 14.668717738775229  30.27999999999999 14.542000000000003  C 30.47199999999999 14.444  30.54199999999999 14.434000000000005  31.279999999999994 14.434000000000005  Z " fill-rule="nonzero" fill="rgba(0, 0, 0, 1)" stroke="none" class="fill" />
    <path d="M 35.775999999999996 44.952  C 35.775999999999996 44.92  35.772 44.924  35.626 45.004  C 35.448 45.098  35.458 45.135999999999996  35.63599999999999 45.04599999999999  C 35.68810478434148 45.02364290926017  35.735583115525245 44.991764601179646  35.775999999999996 44.952  Z " stroke-width="0" stroke-dasharray="0" stroke="rgba(255, 255, 255, 0)" fill="none" class="stroke" mask="url(#Clip7188)" />
    <path d="M 36.104 44.763999999999996  C 36.104 44.726  36.08 44.736  35.982 44.815999999999995  C 35.897999999999996 44.882  35.897999999999996 44.885999999999996  36 44.833999999999996  C 36.056 44.806  36.104 44.773999999999994  36.104 44.763999999999996  Z " stroke-width="0" stroke-dasharray="0" stroke="rgba(255, 255, 255, 0)" fill="none" class="stroke" mask="url(#Clip7188)" />
    <path d="M 36.338 44.62199999999999  C 36.338 44.583999999999996  36.314 44.593999999999994  36.216 44.67399999999999  C 36.132 44.739999999999995  36.132 44.74399999999999  36.234 44.69199999999999  C 36.29 44.663999999999994  36.338 44.63199999999999  36.338 44.62199999999999  Z " stroke-width="0" stroke-dasharray="0" stroke="rgba(255, 255, 255, 0)" fill="none" class="stroke" mask="url(#Clip7188)" />
    <path d="M 36.572 44.48199999999999  C 36.572 44.443999999999996  36.548 44.45399999999999  36.45 44.53399999999999  C 36.366 44.599999999999994  36.366 44.60399999999999  36.468 44.55199999999999  C 36.524 44.523999999999994  36.572 44.49199999999999  36.572 44.48199999999999  Z " stroke-width="0" stroke-dasharray="0" stroke="rgba(255, 255, 255, 0)" fill="none" class="stroke" mask="url(#Clip7188)" />
    <path d="M 36.94800000000001 44.22599999999999  C 36.88665754573907 44.252340620712616  36.82832276186724 44.285195843812836  36.774 44.32399999999999  C 36.61 44.42799999999999  36.558 44.49799999999999  36.704 44.41799999999999  C 36.808 44.35799999999999  36.976 44.22999999999999  36.94800000000001 44.22599999999999  Z " stroke-width="0" stroke-dasharray="0" stroke="rgba(255, 255, 255, 0)" fill="none" class="stroke" mask="url(#Clip7188)" />
    <path d="M 22.43199999999999 0.018000000000002292  L 22.428 0.012  C 22.324 0.022  21.996000000000002 0.054000000000000006  21.7 0.078  C 14.884 0.692  8.498 4.37  4.454000000000001 10.024000000000001  C 2.2183232851077728 13.12729336736835  0.7651332660615628 16.72459047306206  0.21800000000000086 20.509999999999998  C 0.026000000000000856 21.828  0.002000000000000862 22.217999999999996  0.002000000000000862 24.005999999999997  C 0.002000000000000862 25.793999999999997  0.026000000000000863 26.181999999999995  0.21800000000000086 27.501999999999995  C 1.522000000000001 36.513999999999996  7.936000000000002 44.086  16.634 46.891999999999996  C 18.192 47.394  19.834 47.736  21.7 47.94199999999999  C 22.428 48.02199999999999  25.57 48.02199999999999  26.298000000000002 47.94199999999999  C 29.52 47.58599999999999  32.251999999999995 46.788  34.944 45.413999999999994  C 35.356 45.20199999999999  35.436 45.145999999999994  35.379999999999995 45.09999999999999  C 34.06503153733954 43.36254182877363  32.762332476782866 41.61583172710604  31.472 39.85999999999999  L 27.634 34.675999999999995  L 22.826 27.55999999999999  C 21.22737564081828 25.17890167822503  19.61334176873924 22.80818525975619  17.984 20.447999999999993  C 17.966 20.443999999999992  17.946 23.605999999999995  17.938000000000002 27.465999999999994  C 17.924000000000003 34.22599999999999  17.92 34.49799999999999  17.834000000000003 34.657999999999994  C 17.75237053372835 34.844929178116125  17.606098146235226 34.99617198654348  17.422000000000004 35.083999999999996  C 17.272000000000006 35.16  17.140000000000004 35.174  16.432000000000006 35.174  L 15.619999999999997 35.174  L 15.403999999999998 35.038  C 15.270731239387391 34.95401308577968  15.162325537639866 34.835940633557854  15.09 34.696  L 14.991999999999997 34.483999999999995  L 15.001999999999999 25.077999999999996  L 15.015999999999998 15.667999999999996  L 15.161999999999999 15.485999999999994  C 15.26009210465647 15.370753730964113  15.377933633420191 15.273906957324963  15.51 15.199999999999994  C 15.702 15.105999999999996  15.777999999999999 15.095999999999997  16.59 15.095999999999997  C 17.548 15.095999999999997  17.706 15.133999999999997  17.956 15.405999999999997  C 19.902284533186265 18.30249011875663  21.832314864887525 21.209869143471376  23.746 24.127999999999997  C 26.861999999999995 28.852  31.119999999999997 35.30199999999999  33.214 38.47  L 37.013999999999996 44.226  L 37.205999999999996 44.1  C 39.03447925474185 42.883758863729696  40.692450098478304 41.428914671031144  42.13599999999999 39.774  C 45.1599280109159 36.31333674175456  47.12103836979957 32.053616153442775  47.78399999999999 27.506  C 47.97599999999999 26.188  47.99999999999999 25.798000000000002  47.99999999999999 24.01  C 47.99999999999999 22.222  47.97599999999999 21.834000000000003  47.78399999999999 20.514000000000003  C 46.47999999999999 11.502000000000002  40.06599999999999 3.9300000000000037  31.367999999999988 1.1240000000000023  C 29.742530820461546 0.606495452310543  28.068546712157712 0.2560175945671858  26.371999999999993 0.07800000000000229  C 25.921999999999993 0.03200000000000229  22.819999999999993 -0.019999999999997714  22.43199999999999 0.018000000000002292  Z " stroke-width="0" stroke-dasharray="0" stroke="rgba(255, 255, 255, 0)" fill="none" class="stroke" mask="url(#Clip7188)" />
    <path d="M 31.279999999999994 14.434000000000005  C 31.97399999999999 14.434000000000005  32.09599999999999 14.444  32.252 14.527999999999999  C 32.47795754225158 14.64155604599209  32.64876787718418 14.841195129436516  32.726 15.081999999999999  C 32.763999999999996 15.203999999999999  32.772 17.812  32.763999999999996 23.69  L 32.74999999999999 32.126000000000005  L 31.261999999999993 29.846000000000004  L 29.76999999999999 27.566000000000003  L 29.76999999999999 21.434000000000005  C 29.76999999999999 17.470000000000006  29.78799999999999 15.242000000000004  29.815999999999995 15.134000000000002  C 29.884541012731887 14.882187141343557  30.051854868798955 14.668717738775229  30.27999999999999 14.542000000000003  C 30.47199999999999 14.444  30.54199999999999 14.434000000000005  31.279999999999994 14.434000000000005  Z " stroke-width="0" stroke-dasharray="0" stroke="rgba(255, 255, 255, 0)" fill="none" class="stroke" mask="url(#Clip7188)" />
  </g>
</svg>