<?xml version="1.0" encoding="utf-8"?>
<svg version="1.1" xmlns:xlink="http://www.w3.org/1999/xlink" width="24px" height="30px" xmlns="http://www.w3.org/2000/svg">
  <defs>
    <pattern id="BGPattern" patternUnits="userSpaceOnUse" alignment="0 0" imageRepeat="None" />
    <mask fill="white" id="Clip400">
      <path d="M 20.000000000000004 11.8  L 21.056 11.8  C 22.752000000000002 11.8  24 13.048  24 14.744  L 24 26.456  C 24 28.152  22.752 29.4  21.056 29  L 2.9440000000000026 29  C 1.2480000000000029 29.4  0 28.151999999999997  0 26.456  L 0 14.744  C 0 13.048  1.2480000000000029 11.8  2.9440000000000026 11.8  L 4.0000000000000036 11.8  L 4.0000000000000036 8.600000000000001  C 4.0000000000000036 4.184000000000001  7.584000000000003 0.6000000000000014  12.000000000000004 0.6000000000000014  C 16.416000000000004 0.6000000000000014  20.000000000000004 4.184000000000001  20.000000000000004 8.600000000000001  L 20.000000000000004 11.8  Z M 12 3.0000000000000018  C 8.911999999999999 3.0000000000000018  6.4 5.512000000000002  6.4 8.6  L 6.4 12  L 17.6 12  L 17.6 8.600000000000001  C 17.6 5.512000000000001  15.088000000000001 3.0000000000000018  12 3.0000000000000018  Z M 21.104000000000003 27  C 21.376 27  21.6 26.776  21.6 26.504  L 21.6 14.696000000000002  C 21.6 14.424000000000001  21.376 14.200000000000001  21.104000000000003 14.200000000000001  L 2.8960000000000043 14.200000000000001  C 2.624000000000004 14.200000000000001  2.400000000000004 14.424000000000001  2.400000000000004 14.696000000000002  L 2.400000000000004 26.504  C 2.400000000000004 26.776  2.624000000000004 27  2.8960000000000043 27  L 21.104000000000003 27  Z " fill-rule="evenodd" />
    </mask>
  </defs>
  <g>
    <path d="M 20.000000000000004 11.8  L 21.056 11.8  C 22.752000000000002 11.8  24 13.048  24 14.744  L 24 26.456  C 24 28.152  22.752 29.4  21.056 29  L 2.9440000000000026 29  C 1.2480000000000029 29.4  0 28.151999999999997  0 26.456  L 0 14.744  C 0 13.048  1.2480000000000029 11.8  2.9440000000000026 11.8  L 4.0000000000000036 11.8  L 4.0000000000000036 8.600000000000001  C 4.0000000000000036 4.184000000000001  7.584000000000003 0.6000000000000014  12.000000000000004 0.6000000000000014  C 16.416000000000004 0.6000000000000014  20.000000000000004 4.184000000000001  20.000000000000004 8.600000000000001  L 20.000000000000004 11.8  Z M 12 3.0000000000000018  C 8.911999999999999 3.0000000000000018  6.4 5.512000000000002  6.4 8.6  L 6.4 12  L 17.6 12  L 17.6 8.600000000000001  C 17.6 5.512000000000001  15.088000000000001 3.0000000000000018  12 3.0000000000000018  Z M 21.104000000000003 27  C 21.376 27  21.6 26.776  21.6 26.504  L 21.6 14.696000000000002  C 21.6 14.424000000000001  21.376 14.200000000000001  21.104000000000003 14.200000000000001  L 2.8960000000000043 14.200000000000001  C 2.624000000000004 14.200000000000001  2.400000000000004 14.424000000000001  2.400000000000004 14.696000000000002  L 2.400000000000004 26.504  C 2.400000000000004 26.776  2.624000000000004 27  2.8960000000000043 27  L 21.104000000000003 27  Z " fill-rule="nonzero" fill="rgba(0, 0, 0, 1)" stroke="none" class="fill" />
    <path d="M 20.000000000000004 11.8  L 21.056 11.8  C 22.752000000000002 11.8  24 13.048  24 14.744  L 24 26.456  C 24 28.152  22.752 29.4  21.056 29  L 2.9440000000000026 29  C 1.2480000000000029 29.4  0 28.151999999999997  0 26.456  L 0 14.744  C 0 13.048  1.2480000000000029 11.8  2.9440000000000026 11.8  L 4.0000000000000036 11.8  L 4.0000000000000036 8.600000000000001  C 4.0000000000000036 4.184000000000001  7.584000000000003 0.6000000000000014  12.000000000000004 0.6000000000000014  C 16.416000000000004 0.6000000000000014  20.000000000000004 4.184000000000001  20.000000000000004 8.600000000000001  L 20.000000000000004 11.8  Z " stroke-width="0" stroke-dasharray="0" stroke="rgba(255, 255, 255, 0)" fill="none" class="stroke" mask="url(#Clip400)" />
    <path d="M 12 3.0000000000000018  C 8.911999999999999 3.0000000000000018  6.4 5.512000000000002  6.4 8.6  L 6.4 12  L 17.6 12  L 17.6 8.600000000000001  C 17.6 5.512000000000001  15.088000000000001 3.0000000000000018  12 3.0000000000000018  Z " stroke-width="0" stroke-dasharray="0" stroke="rgba(255, 255, 255, 0)" fill="none" class="stroke" mask="url(#Clip400)" />
    <path d="M 21.104000000000003 27  C 21.376 27  21.6 26.776  21.6 26.504  L 21.6 14.696000000000002  C 21.6 14.424000000000001  21.376 14.200000000000001  21.104000000000003 14.200000000000001  L 2.8960000000000043 14.200000000000001  C 2.624000000000004 14.200000000000001  2.400000000000004 14.424000000000001  2.400000000000004 14.696000000000002  L 2.400000000000004 26.504  C 2.400000000000004 26.776  2.624000000000004 27  2.8960000000000043 27  L 21.104000000000003 27  Z " stroke-width="0" stroke-dasharray="0" stroke="rgba(255, 255, 255, 0)" fill="none" class="stroke" mask="url(#Clip400)" />
  </g>
</svg>