<?xml version="1.0" encoding="utf-8"?>
<svg version="1.1" xmlns:xlink="http://www.w3.org/1999/xlink" width="50px" height="38px" xmlns="http://www.w3.org/2000/svg">
  <defs>
    <pattern id="BGPattern" patternUnits="userSpaceOnUse" alignment="0 0" imageRepeat="None" />
    <mask fill="white" id="Clip1574">
      <path d="M 50 10.9375  C 50 8.3486328125  47.9013671875 6.25  45.3125 7  L 26.5625 7  L 20.3125 0  L 4.6875 0  C 2.0986328125 0  0 2.0986328125  0 4.6875  L 0 32.8125  C 0 35.4013671875  2.0986328125 37.5  4.6875 37  L 45.3125 37  C 47.9013671875 37.5  50 35.4013671875  50 32.8125  L 50 10.9375  Z " fill-rule="evenodd" />
    </mask>
  </defs>
  <g>
    <path d="M 50 10.9375  C 50 8.3486328125  47.9013671875 6.25  45.3125 7  L 26.5625 7  L 20.3125 0  L 4.6875 0  C 2.0986328125 0  0 2.0986328125  0 4.6875  L 0 32.8125  C 0 35.4013671875  2.0986328125 37.5  4.6875 37  L 45.3125 37  C 47.9013671875 37.5  50 35.4013671875  50 32.8125  L 50 10.9375  Z " fill-rule="nonzero" fill="rgba(0, 0, 0, 1)" stroke="none" class="fill" />
    <path d="M 50 10.9375  C 50 8.3486328125  47.9013671875 6.25  45.3125 7  L 26.5625 7  L 20.3125 0  L 4.6875 0  C 2.0986328125 0  0 2.0986328125  0 4.6875  L 0 32.8125  C 0 35.4013671875  2.0986328125 37.5  4.6875 37  L 45.3125 37  C 47.9013671875 37.5  50 35.4013671875  50 32.8125  L 50 10.9375  Z " stroke-width="0" stroke-dasharray="0" stroke="rgba(255, 255, 255, 0)" fill="none" class="stroke" mask="url(#Clip1574)" />
  </g>
</svg>