<?xml version="1.0" encoding="utf-8"?>
<svg version="1.1" xmlns:xlink="http://www.w3.org/1999/xlink" width="42px" height="32px" xmlns="http://www.w3.org/2000/svg">
  <defs>
    <pattern id="BGPattern" patternUnits="userSpaceOnUse" alignment="0 0" imageRepeat="None" />
    <mask fill="white" id="Clip2989">
      <path d="M 19.75625 7.149999999999999  L 12.28125 0  L 1 0  L 1 32  L 41 32  L 41 7.149999999999999  L 19.75625 7.149999999999999  Z M 22.3125 11.25  C 22.55625 11.25  22.75 11.45  22.75 11.693750000000001  L 22.75 17  L 28.03125 17  C 28.2875 17  28.5 17.19375  28.5 17.4375  L 28.5 20.0625  C 28.5 20.299999999999997  28.2875 20.5  28.03125 20.5  L 22.75 20.5  L 22.75 25.80625  C 22.75 26.049999999999997  22.55625 26.25  22.3125 26.25  L 19.6875 26.25  C 19.45 26.25  19.25 26.049999999999997  19.25 25.80625  L 19.25 20.5  L 13.96875 20.5  C 13.712499999999999 20.5  13.500000000000002 20.299999999999997  13.500000000000002 20.0625  L 13.500000000000002 17.4375  C 13.500000000000002 17.19375  13.712499999999999 17  13.96875 17  L 19.25 17  L 19.25 11.693750000000001  C 19.25 11.450000000000003  19.45 11.25  19.6875 11.25  L 22.3125 11.25  Z " fill-rule="evenodd" />
    </mask>
  </defs>
  <g transform="matrix(1 0 0 1 -4 -5 )">
    <path d="M 19.75625 7.149999999999999  L 12.28125 0  L 1 0  L 1 32  L 41 32  L 41 7.149999999999999  L 19.75625 7.149999999999999  Z M 22.3125 11.25  C 22.55625 11.25  22.75 11.45  22.75 11.693750000000001  L 22.75 17  L 28.03125 17  C 28.2875 17  28.5 17.19375  28.5 17.4375  L 28.5 20.0625  C 28.5 20.299999999999997  28.2875 20.5  28.03125 20.5  L 22.75 20.5  L 22.75 25.80625  C 22.75 26.049999999999997  22.55625 26.25  22.3125 26.25  L 19.6875 26.25  C 19.45 26.25  19.25 26.049999999999997  19.25 25.80625  L 19.25 20.5  L 13.96875 20.5  C 13.712499999999999 20.5  13.500000000000002 20.299999999999997  13.500000000000002 20.0625  L 13.500000000000002 17.4375  C 13.500000000000002 17.19375  13.712499999999999 17  13.96875 17  L 19.25 17  L 19.25 11.693750000000001  C 19.25 11.450000000000003  19.45 11.25  19.6875 11.25  L 22.3125 11.25  Z " fill-rule="nonzero" fill="rgba(217, 217, 217, 1)" stroke="none" transform="matrix(1 0 0 1 4 5 )" class="fill" />
    <path d="M 19.75625 7.149999999999999  L 12.28125 0  L 1 0  L 1 32  L 41 32  L 41 7.149999999999999  L 19.75625 7.149999999999999  Z " stroke-width="0" stroke-dasharray="0" stroke="rgba(255, 255, 255, 0)" fill="none" transform="matrix(1 0 0 1 4 5 )" class="stroke" mask="url(#Clip2989)" />
    <path d="M 22.3125 11.25  C 22.55625 11.25  22.75 11.45  22.75 11.693750000000001  L 22.75 17  L 28.03125 17  C 28.2875 17  28.5 17.19375  28.5 17.4375  L 28.5 20.0625  C 28.5 20.299999999999997  28.2875 20.5  28.03125 20.5  L 22.75 20.5  L 22.75 25.80625  C 22.75 26.049999999999997  22.55625 26.25  22.3125 26.25  L 19.6875 26.25  C 19.45 26.25  19.25 26.049999999999997  19.25 25.80625  L 19.25 20.5  L 13.96875 20.5  C 13.712499999999999 20.5  13.500000000000002 20.299999999999997  13.500000000000002 20.0625  L 13.500000000000002 17.4375  C 13.500000000000002 17.19375  13.712499999999999 17  13.96875 17  L 19.25 17  L 19.25 11.693750000000001  C 19.25 11.450000000000003  19.45 11.25  19.6875 11.25  L 22.3125 11.25  Z " stroke-width="0" stroke-dasharray="0" stroke="rgba(255, 255, 255, 0)" fill="none" transform="matrix(1 0 0 1 4 5 )" class="stroke" mask="url(#Clip2989)" />
  </g>
</svg>