<?xml version="1.0" encoding="utf-8"?>
<svg version="1.1" xmlns:xlink="http://www.w3.org/1999/xlink" width="50px" height="50px" xmlns="http://www.w3.org/2000/svg">
  <defs>
    <pattern id="BGPattern" patternUnits="userSpaceOnUse" alignment="0 0" imageRepeat="None" />
    <mask fill="white" id="Clip883">
      <path d="M 50 25  C 50 11.199596774193537  38.810483870967744 0  25 0  C 11.189516129032256 0  0 11.199596774193537  0 25  C 0 38.810483870967744  11.189516129032256 50  25 50  C 38.810483870967744 50  50 38.810483870967744  50 25  Z M 17 12.903225806451616  L 17 35.47379032258064  C 13.77016129032259 36.54233870967741  11.008064516129025 38.2258064516129  9 40.33266129032256  L 9 12.903225806451616  C 8.870967741935488 10.675403225806463  10.675403225806463 8.870967741935488  12.903225806451616 8.870967741935488  C 15.131048387096769 8.870967741935488  16.935483870967744 10.675403225806463  17 12.903225806451616  Z M 29 12.903225806451616  L 29 34.4758064516129  C 27.731854838709697 34.2741935483871  26.39112903225805 34.1633064516129  25.02016129032259 34.1633064516129  C 23.629032258064512 34.1633064516129  22.278225806451616 34.2741935483871  21 34.4758064516129  L 21 12.903225806451616  C 20.967741935483872 10.675403225806463  22.772177419354847 8.870967741935488  25 8.870967741935488  C 27.227822580645157 8.870967741935488  29.032258064516125 10.675403225806463  29 12.903225806451616  Z M 41 12.903225806451616  L 41 40.29233870967741  C 38.991935483870975 38.195564516129025  36.22983870967741 36.52217741935485  33 35.45362903225805  L 33 12.903225806451616  C 33.064516129032256 10.675403225806463  34.86895161290323 8.870967741935488  37.096774193548384 8.870967741935488  C 39.32459677419354 8.870967741935488  41.12903225806451 10.675403225806463  41 12.903225806451616  Z " fill-rule="evenodd" />
    </mask>
  </defs>
  <g>
    <path d="M 50 25  C 50 11.199596774193537  38.810483870967744 0  25 0  C 11.189516129032256 0  0 11.199596774193537  0 25  C 0 38.810483870967744  11.189516129032256 50  25 50  C 38.810483870967744 50  50 38.810483870967744  50 25  Z M 17 12.903225806451616  L 17 35.47379032258064  C 13.77016129032259 36.54233870967741  11.008064516129025 38.2258064516129  9 40.33266129032256  L 9 12.903225806451616  C 8.870967741935488 10.675403225806463  10.675403225806463 8.870967741935488  12.903225806451616 8.870967741935488  C 15.131048387096769 8.870967741935488  16.935483870967744 10.675403225806463  17 12.903225806451616  Z M 29 12.903225806451616  L 29 34.4758064516129  C 27.731854838709697 34.2741935483871  26.39112903225805 34.1633064516129  25.02016129032259 34.1633064516129  C 23.629032258064512 34.1633064516129  22.278225806451616 34.2741935483871  21 34.4758064516129  L 21 12.903225806451616  C 20.967741935483872 10.675403225806463  22.772177419354847 8.870967741935488  25 8.870967741935488  C 27.227822580645157 8.870967741935488  29.032258064516125 10.675403225806463  29 12.903225806451616  Z M 41 12.903225806451616  L 41 40.29233870967741  C 38.991935483870975 38.195564516129025  36.22983870967741 36.52217741935485  33 35.45362903225805  L 33 12.903225806451616  C 33.064516129032256 10.675403225806463  34.86895161290323 8.870967741935488  37.096774193548384 8.870967741935488  C 39.32459677419354 8.870967741935488  41.12903225806451 10.675403225806463  41 12.903225806451616  Z " fill-rule="nonzero" fill="rgba(0, 0, 0, 1)" stroke="none" class="fill" />
    <path d="M 50 25  C 50 11.199596774193537  38.810483870967744 0  25 0  C 11.189516129032256 0  0 11.199596774193537  0 25  C 0 38.810483870967744  11.189516129032256 50  25 50  C 38.810483870967744 50  50 38.810483870967744  50 25  Z " stroke-width="0" stroke-dasharray="0" stroke="rgba(255, 255, 255, 0)" fill="none" class="stroke" mask="url(#Clip883)" />
    <path d="M 17 12.903225806451616  L 17 35.47379032258064  C 13.77016129032259 36.54233870967741  11.008064516129025 38.2258064516129  9 40.33266129032256  L 9 12.903225806451616  C 8.870967741935488 10.675403225806463  10.675403225806463 8.870967741935488  12.903225806451616 8.870967741935488  C 15.131048387096769 8.870967741935488  16.935483870967744 10.675403225806463  17 12.903225806451616  Z " stroke-width="0" stroke-dasharray="0" stroke="rgba(255, 255, 255, 0)" fill="none" class="stroke" mask="url(#Clip883)" />
    <path d="M 29 12.903225806451616  L 29 34.4758064516129  C 27.731854838709697 34.2741935483871  26.39112903225805 34.1633064516129  25.02016129032259 34.1633064516129  C 23.629032258064512 34.1633064516129  22.278225806451616 34.2741935483871  21 34.4758064516129  L 21 12.903225806451616  C 20.967741935483872 10.675403225806463  22.772177419354847 8.870967741935488  25 8.870967741935488  C 27.227822580645157 8.870967741935488  29.032258064516125 10.675403225806463  29 12.903225806451616  Z " stroke-width="0" stroke-dasharray="0" stroke="rgba(255, 255, 255, 0)" fill="none" class="stroke" mask="url(#Clip883)" />
    <path d="M 41 12.903225806451616  L 41 40.29233870967741  C 38.991935483870975 38.195564516129025  36.22983870967741 36.52217741935485  33 35.45362903225805  L 33 12.903225806451616  C 33.064516129032256 10.675403225806463  34.86895161290323 8.870967741935488  37.096774193548384 8.870967741935488  C 39.32459677419354 8.870967741935488  41.12903225806451 10.675403225806463  41 12.903225806451616  Z " stroke-width="0" stroke-dasharray="0" stroke="rgba(255, 255, 255, 0)" fill="none" class="stroke" mask="url(#Clip883)" />
  </g>
</svg>