<?xml version="1.0" encoding="utf-8"?>
<svg version="1.1" xmlns:xlink="http://www.w3.org/1999/xlink" width="48px" height="48px" xmlns="http://www.w3.org/2000/svg">
  <defs>
    <pattern id="BGPattern" patternUnits="userSpaceOnUse" alignment="0 0" imageRepeat="None" />
    <mask fill="white" id="Clip6683">
      <path d="M 48 15.064  L 35.86 23.252  L 41.424 37.228  L 32.828 37.228  L 29.178000000000004 27.756  L 9.408000000000005 41.09  L 2 25.200000000000003  L 3.63 25.200000000000003  L 12.41 32.036  L 27.630000000000003 23.740000000000002  L 25.46 18.1  L 23.124000000000002 23.062  L 13.248000000000005 28.494  L 20.354000000000003 10  L 30.508000000000003 10  L 34.552 19.97  L 48 12.64  L 48 0  L 0 0  L 0 48  L 48 48  L 48 15.064  Z " fill-rule="evenodd" />
    </mask>
  </defs>
  <g>
    <path d="M 48 15.064  L 35.86 23.252  L 41.424 37.228  L 32.828 37.228  L 29.178000000000004 27.756  L 9.408000000000005 41.09  L 2 25.200000000000003  L 3.63 25.200000000000003  L 12.41 32.036  L 27.630000000000003 23.740000000000002  L 25.46 18.1  L 23.124000000000002 23.062  L 13.248000000000005 28.494  L 20.354000000000003 10  L 30.508000000000003 10  L 34.552 19.97  L 48 12.64  L 48 0  L 0 0  L 0 48  L 48 48  L 48 15.064  Z " fill-rule="nonzero" fill="rgba(229, 25, 55, 1)" stroke="none" class="fill" />
    <path d="M 48 15.064  L 35.86 23.252  L 41.424 37.228  L 32.828 37.228  L 29.178000000000004 27.756  L 9.408000000000005 41.09  L 2 25.200000000000003  L 3.63 25.200000000000003  L 12.41 32.036  L 27.630000000000003 23.740000000000002  L 25.46 18.1  L 23.124000000000002 23.062  L 13.248000000000005 28.494  L 20.354000000000003 10  L 30.508000000000003 10  L 34.552 19.97  L 48 12.64  L 48 0  L 0 0  L 0 48  L 48 48  L 48 15.064  Z " stroke-width="0" stroke-dasharray="0" stroke="rgba(255, 255, 255, 0)" fill="none" class="stroke" mask="url(#Clip6683)" />
  </g>
</svg>