<?xml version="1.0" encoding="utf-8"?>
<svg version="1.1" xmlns:xlink="http://www.w3.org/1999/xlink" width="24px" height="24px" xmlns="http://www.w3.org/2000/svg">
  <defs>
    <pattern id="BGPattern" patternUnits="userSpaceOnUse" alignment="0 0" imageRepeat="None" />
    <mask fill="white" id="Clip5699">
      <path d="M 0 24  L 0 0  L 1.5 0  L 1.5 22.5  L 24 22.5  L 24 24  L 0 24  Z M 15.75 6  C 15.335786437626904 6  15 5.664213562373095  15 5.25  C 15 4.835786437626905  15.335786437626904 4.5  15.75 4.5  L 21.75 4.5  C 22.164213562373096 4.5  22.5 4.835786437626905  22.5 5.25  L 22.5 11.25  C 22.5 11.664213562373096  22.164213562373096 12  21.75 12  C 21.335786437626904 12  21 11.664213562373096  21 11.25  L 21 7.3500000000000005  L 15.5805 13.9755  C 15.438048217244393 14.149372524471318  15.225122667140884 14.250187124349395  15.000346856217469 14.250187124349395  C 14.801671180048022 14.250187124349395  14.611112809319112 14.17135690990035  14.470500000000001 14.031000000000002  L 10.59 10.150500000000001  L 5.105999999999999 17.691000000000003  C 4.963803015525829 17.871814337272905  4.746494973418354 17.977374680469065  4.516464960252709 17.977374680469065  C 4.1022513978796145 17.977374680469065  3.7664649602527094 17.64158824284216  3.7664649602527094 17.227374680469065  C 3.7664649602527094 17.078342695026386  3.810865054280998 16.93268958519328  3.893999999999999 16.809  L 9.893999999999998 8.559000000000001  C 10.035099292175486 8.364631154941332  10.260754024656043 8.249597861992608  10.50093782548754 8.249597861992608  C 10.699718937679123 8.249597861992608  10.89036955582218 8.328511535226301  11.030999999999999 8.469000000000003  L 14.944499999999998 12.384000000000004  L 20.1675 6  L 15.75 6  Z " fill-rule="evenodd" />
    </mask>
  </defs>
  <g>
    <path d="M 0 24  L 0 0  L 1.5 0  L 1.5 22.5  L 24 22.5  L 24 24  L 0 24  Z M 15.75 6  C 15.335786437626904 6  15 5.664213562373095  15 5.25  C 15 4.835786437626905  15.335786437626904 4.5  15.75 4.5  L 21.75 4.5  C 22.164213562373096 4.5  22.5 4.835786437626905  22.5 5.25  L 22.5 11.25  C 22.5 11.664213562373096  22.164213562373096 12  21.75 12  C 21.335786437626904 12  21 11.664213562373096  21 11.25  L 21 7.3500000000000005  L 15.5805 13.9755  C 15.438048217244393 14.149372524471318  15.225122667140884 14.250187124349395  15.000346856217469 14.250187124349395  C 14.801671180048022 14.250187124349395  14.611112809319112 14.17135690990035  14.470500000000001 14.031000000000002  L 10.59 10.150500000000001  L 5.105999999999999 17.691000000000003  C 4.963803015525829 17.871814337272905  4.746494973418354 17.977374680469065  4.516464960252709 17.977374680469065  C 4.1022513978796145 17.977374680469065  3.7664649602527094 17.64158824284216  3.7664649602527094 17.227374680469065  C 3.7664649602527094 17.078342695026386  3.810865054280998 16.93268958519328  3.893999999999999 16.809  L 9.893999999999998 8.559000000000001  C 10.035099292175486 8.364631154941332  10.260754024656043 8.249597861992608  10.50093782548754 8.249597861992608  C 10.699718937679123 8.249597861992608  10.89036955582218 8.328511535226301  11.030999999999999 8.469000000000003  L 14.944499999999998 12.384000000000004  L 20.1675 6  L 15.75 6  Z " fill-rule="nonzero" fill="rgba(0, 0, 0, 1)" stroke="none" class="fill" />
    <path d="M 0 24  L 0 0  L 1.5 0  L 1.5 22.5  L 24 22.5  L 24 24  L 0 24  Z " stroke-width="0" stroke-dasharray="0" stroke="rgba(255, 255, 255, 0)" fill="none" class="stroke" mask="url(#Clip5699)" />
    <path d="M 15.75 6  C 15.335786437626904 6  15 5.664213562373095  15 5.25  C 15 4.835786437626905  15.335786437626904 4.5  15.75 4.5  L 21.75 4.5  C 22.164213562373096 4.5  22.5 4.835786437626905  22.5 5.25  L 22.5 11.25  C 22.5 11.664213562373096  22.164213562373096 12  21.75 12  C 21.335786437626904 12  21 11.664213562373096  21 11.25  L 21 7.3500000000000005  L 15.5805 13.9755  C 15.438048217244393 14.149372524471318  15.225122667140884 14.250187124349395  15.000346856217469 14.250187124349395  C 14.801671180048022 14.250187124349395  14.611112809319112 14.17135690990035  14.470500000000001 14.031000000000002  L 10.59 10.150500000000001  L 5.105999999999999 17.691000000000003  C 4.963803015525829 17.871814337272905  4.746494973418354 17.977374680469065  4.516464960252709 17.977374680469065  C 4.1022513978796145 17.977374680469065  3.7664649602527094 17.64158824284216  3.7664649602527094 17.227374680469065  C 3.7664649602527094 17.078342695026386  3.810865054280998 16.93268958519328  3.893999999999999 16.809  L 9.893999999999998 8.559000000000001  C 10.035099292175486 8.364631154941332  10.260754024656043 8.249597861992608  10.50093782548754 8.249597861992608  C 10.699718937679123 8.249597861992608  10.89036955582218 8.328511535226301  11.030999999999999 8.469000000000003  L 14.944499999999998 12.384000000000004  L 20.1675 6  L 15.75 6  Z " stroke-width="0" stroke-dasharray="0" stroke="rgba(255, 255, 255, 0)" fill="none" class="stroke" mask="url(#Clip5699)" />
  </g>
</svg>