<?xml version="1.0" encoding="utf-8"?>
<svg version="1.1" xmlns:xlink="http://www.w3.org/1999/xlink" width="12px" height="7px" xmlns="http://www.w3.org/2000/svg">
  <defs>
    <pattern id="BGPattern" patternUnits="userSpaceOnUse" alignment="0 0" imageRepeat="None" />
    <mask fill="white" id="Clip111">
      <path d="M 10.399999999999999 0.20000000000000273  C 10.703999999999997 0.20000000000000273  11.023999999999997 0.3280000000000028  11.248000000000001 0.5519999999999994  C 11.488 0.7919999999999994  11.600000000000001 1.0959999999999994  11.600000000000001 1.3999999999999997  C 11.600000000000001 1.7039999999999997  11.488000000000003 2.024  11.248000000000001 2.2479999999999998  L 6.847999999999999 6.648  C 6.6080000000000005 6.872  6.3039999999999985 7  5.999999999999998 7  C 5.695999999999998 7  5.391999999999998 6.888000000000002  5.1519999999999975 6.648  L 0.7519999999999971 2.248000000000002  C 0.5279999999999969 2.024000000000002  0.3999999999999968 1.7040000000000015  0.3999999999999968 1.4000000000000015  C 0.3999999999999968 1.0960000000000012  0.5279999999999969 0.7920000000000011  0.7519999999999971 0.5520000000000012  C 0.9759999999999973 0.312000000000001  1.2959999999999976 0.20000000000000095  1.5999999999999979 0.20000000000000095  C 1.9039999999999981 0.20000000000000095  2.2239999999999984 0.328000000000001  2.4479999999999986 0.5520000000000012  L 5.999999999999998 4.104000000000001  L 9.552 0.5520000000000028  C 9.791999999999998 0.3120000000000028  10.096 0.20000000000000273  10.399999999999999 0.20000000000000273  Z " fill-rule="evenodd" />
    </mask>
  </defs>
  <g>
    <path d="M 10.399999999999999 0.20000000000000273  C 10.703999999999997 0.20000000000000273  11.023999999999997 0.3280000000000028  11.248000000000001 0.5519999999999994  C 11.488 0.7919999999999994  11.600000000000001 1.0959999999999994  11.600000000000001 1.3999999999999997  C 11.600000000000001 1.7039999999999997  11.488000000000003 2.024  11.248000000000001 2.2479999999999998  L 6.847999999999999 6.648  C 6.6080000000000005 6.872  6.3039999999999985 7  5.999999999999998 7  C 5.695999999999998 7  5.391999999999998 6.888000000000002  5.1519999999999975 6.648  L 0.7519999999999971 2.248000000000002  C 0.5279999999999969 2.024000000000002  0.3999999999999968 1.7040000000000015  0.3999999999999968 1.4000000000000015  C 0.3999999999999968 1.0960000000000012  0.5279999999999969 0.7920000000000011  0.7519999999999971 0.5520000000000012  C 0.9759999999999973 0.312000000000001  1.2959999999999976 0.20000000000000095  1.5999999999999979 0.20000000000000095  C 1.9039999999999981 0.20000000000000095  2.2239999999999984 0.328000000000001  2.4479999999999986 0.5520000000000012  L 5.999999999999998 4.104000000000001  L 9.552 0.5520000000000028  C 9.791999999999998 0.3120000000000028  10.096 0.20000000000000273  10.399999999999999 0.20000000000000273  Z " fill-rule="nonzero" fill="rgba(0, 0, 0, 1)" stroke="none" class="fill" />
    <path d="M 10.399999999999999 0.20000000000000273  C 10.703999999999997 0.20000000000000273  11.023999999999997 0.3280000000000028  11.248000000000001 0.5519999999999994  C 11.488 0.7919999999999994  11.600000000000001 1.0959999999999994  11.600000000000001 1.3999999999999997  C 11.600000000000001 1.7039999999999997  11.488000000000003 2.024  11.248000000000001 2.2479999999999998  L 6.847999999999999 6.648  C 6.6080000000000005 6.872  6.3039999999999985 7  5.999999999999998 7  C 5.695999999999998 7  5.391999999999998 6.888000000000002  5.1519999999999975 6.648  L 0.7519999999999971 2.248000000000002  C 0.5279999999999969 2.024000000000002  0.3999999999999968 1.7040000000000015  0.3999999999999968 1.4000000000000015  C 0.3999999999999968 1.0960000000000012  0.5279999999999969 0.7920000000000011  0.7519999999999971 0.5520000000000012  C 0.9759999999999973 0.312000000000001  1.2959999999999976 0.20000000000000095  1.5999999999999979 0.20000000000000095  C 1.9039999999999981 0.20000000000000095  2.2239999999999984 0.328000000000001  2.4479999999999986 0.5520000000000012  L 5.999999999999998 4.104000000000001  L 9.552 0.5520000000000028  C 9.791999999999998 0.3120000000000028  10.096 0.20000000000000273  10.399999999999999 0.20000000000000273  Z " stroke-width="0" stroke-dasharray="0" stroke="rgba(255, 255, 255, 0)" fill="none" class="stroke" mask="url(#Clip111)" />
  </g>
</svg>