<?xml version="1.0" encoding="utf-8"?>
<svg version="1.1" xmlns:xlink="http://www.w3.org/1999/xlink" width="18px" height="16px" xmlns="http://www.w3.org/2000/svg">
  <defs>
    <pattern id="BGPattern" patternUnits="userSpaceOnUse" alignment="0 0" imageRepeat="None" />
    <mask fill="white" id="Clip4041">
      <path d="M 18 0  L 16 0  L 16 3  C 16 6.865993248815556  12.865993248815553 10  9 10  C 5.1340067511844465 10  2.000000000000001 6.865993248815556  2.000000000000001 3  L 2.000000000000001 0  L 0 0  L 0 3  C 0.002174915965301949 7.581960314640224  3.4464106587503904 11.430893757202558  8 11.939999999999998  L 8 14  L 4.000000000000001 14  L 4.000000000000001 16  L 14 16  L 14 14  L 10 14  L 10 11.939999999999998  C 14.553589341249605 11.430893757202558  17.997825084034698 7.58196031464022  18 3  L 18 0  Z " fill-rule="evenodd" />
    </mask>
  </defs>
  <g transform="matrix(1 0 0 1 -7 -14 )">
    <path d="M 18 0  L 16 0  L 16 3  C 16 6.865993248815556  12.865993248815553 10  9 10  C 5.1340067511844465 10  2.000000000000001 6.865993248815556  2.000000000000001 3  L 2.000000000000001 0  L 0 0  L 0 3  C 0.002174915965301949 7.581960314640224  3.4464106587503904 11.430893757202558  8 11.939999999999998  L 8 14  L 4.000000000000001 14  L 4.000000000000001 16  L 14 16  L 14 14  L 10 14  L 10 11.939999999999998  C 14.553589341249605 11.430893757202558  17.997825084034698 7.58196031464022  18 3  L 18 0  Z " fill-rule="nonzero" fill="rgba(0, 0, 0, 1)" stroke="none" transform="matrix(1 0 0 1 7 14 )" class="fill" />
    <path d="M 18 0  L 16 0  L 16 3  C 16 6.865993248815556  12.865993248815553 10  9 10  C 5.1340067511844465 10  2.000000000000001 6.865993248815556  2.000000000000001 3  L 2.000000000000001 0  L 0 0  L 0 3  C 0.002174915965301949 7.581960314640224  3.4464106587503904 11.430893757202558  8 11.939999999999998  L 8 14  L 4.000000000000001 14  L 4.000000000000001 16  L 14 16  L 14 14  L 10 14  L 10 11.939999999999998  C 14.553589341249605 11.430893757202558  17.997825084034698 7.58196031464022  18 3  L 18 0  Z " stroke-width="0" stroke-dasharray="0" stroke="rgba(255, 255, 255, 0)" fill="none" transform="matrix(1 0 0 1 7 14 )" class="stroke" mask="url(#Clip4041)" />
  </g>
</svg>