<?xml version="1.0" encoding="utf-8"?>
<svg version="1.1" xmlns:xlink="http://www.w3.org/1999/xlink" width="28px" height="20px" xmlns="http://www.w3.org/2000/svg">
  <defs>
    <pattern id="BGPattern" patternUnits="userSpaceOnUse" alignment="0 0" imageRepeat="None" />
    <mask fill="white" id="Clip4139">
      <path d="M 26 18  C 26 19.104569499661586  25.104569499661586 20  24 20  L 20 20  C 18.895430500338414 20  18 19.104569499661586  18 18  L 18 11  L 20 11  L 20 18  L 24 18  L 24 9  L 26 9  L 26 3  C 26 2.4477152501692068  25.552284749830793 2  25 2  L 18.58 2  L 14 10  L 9.42 2  L 3 2  C 2.4477152501692068 2  2 2.4477152501692068  2 3  L 2 9  L 4 9  L 4 18  L 8 18  L 8 11  L 10 11  L 10 18  C 10 19.104569499661586  9.104569499661586 20  8 20  L 4 20  C 2.8954305003384135 20  2 19.104569499661586  2 18  L 2 11  C 0.895430500338413 11  0 10.104569499661586  0 9  L 0 3  C 0 1.3431457505076203  1.3431457505076199 0  3 0  L 10.58 0  L 14 6  L 17.42 0  L 25 0  C 26.65685424949238 0  28 1.3431457505076203  28 3  L 28 9  C 28 10.104569499661586  27.104569499661586 11  26 11  L 26 18  Z " fill-rule="evenodd" />
    </mask>
  </defs>
  <g transform="matrix(1 0 0 1 -2 -10 )">
    <path d="M 26 18  C 26 19.104569499661586  25.104569499661586 20  24 20  L 20 20  C 18.895430500338414 20  18 19.104569499661586  18 18  L 18 11  L 20 11  L 20 18  L 24 18  L 24 9  L 26 9  L 26 3  C 26 2.4477152501692068  25.552284749830793 2  25 2  L 18.58 2  L 14 10  L 9.42 2  L 3 2  C 2.4477152501692068 2  2 2.4477152501692068  2 3  L 2 9  L 4 9  L 4 18  L 8 18  L 8 11  L 10 11  L 10 18  C 10 19.104569499661586  9.104569499661586 20  8 20  L 4 20  C 2.8954305003384135 20  2 19.104569499661586  2 18  L 2 11  C 0.895430500338413 11  0 10.104569499661586  0 9  L 0 3  C 0 1.3431457505076203  1.3431457505076199 0  3 0  L 10.58 0  L 14 6  L 17.42 0  L 25 0  C 26.65685424949238 0  28 1.3431457505076203  28 3  L 28 9  C 28 10.104569499661586  27.104569499661586 11  26 11  L 26 18  Z " fill-rule="nonzero" fill="rgba(0, 0, 0, 1)" stroke="none" transform="matrix(1 0 0 1 2 10 )" class="fill" />
    <path d="M 26 18  C 26 19.104569499661586  25.104569499661586 20  24 20  L 20 20  C 18.895430500338414 20  18 19.104569499661586  18 18  L 18 11  L 20 11  L 20 18  L 24 18  L 24 9  L 26 9  L 26 3  C 26 2.4477152501692068  25.552284749830793 2  25 2  L 18.58 2  L 14 10  L 9.42 2  L 3 2  C 2.4477152501692068 2  2 2.4477152501692068  2 3  L 2 9  L 4 9  L 4 18  L 8 18  L 8 11  L 10 11  L 10 18  C 10 19.104569499661586  9.104569499661586 20  8 20  L 4 20  C 2.8954305003384135 20  2 19.104569499661586  2 18  L 2 11  C 0.895430500338413 11  0 10.104569499661586  0 9  L 0 3  C 0 1.3431457505076203  1.3431457505076199 0  3 0  L 10.58 0  L 14 6  L 17.42 0  L 25 0  C 26.65685424949238 0  28 1.3431457505076203  28 3  L 28 9  C 28 10.104569499661586  27.104569499661586 11  26 11  L 26 18  Z " stroke-width="0" stroke-dasharray="0" stroke="rgba(255, 255, 255, 0)" fill="none" transform="matrix(1 0 0 1 2 10 )" class="stroke" mask="url(#Clip4139)" />
  </g>
</svg>