<?xml version="1.0" encoding="utf-8"?>
<svg version="1.1" xmlns:xlink="http://www.w3.org/1999/xlink" width="24px" height="24px" xmlns="http://www.w3.org/2000/svg">
  <defs>
    <pattern id="BGPattern" patternUnits="userSpaceOnUse" alignment="0 0" imageRepeat="None" />
    <mask fill="white" id="Clip4889">
      <path d="M 18.375 0  L 5.625 0  C 5.152864045000421 0  4.7082815729997485 0.22229123600033684  4.425000000000001 0.6000000000000001  L 0.15000000000000002 6.300000000000001  C 0.052633403898972524 6.429822128134704  0 6.58772233983162  0 6.75  L 0 22.5  C 0 23.32842712474619  0.6715728752538098 24  1.5 24  L 22.5 24  C 23.32842712474619 24  24 23.32842712474619  24 22.5  L 24 6.75  C 24 6.58772233983162  23.947366596101027 6.429822128134704  23.85 6.300000000000001  L 19.575000000000003 0.6000000000000001  C 19.291718427000255 0.2222912360003355  18.84713595499958 0  18.375 0  Z M 21.75 6  L 22.5 7.0005  L 22.5 7.5  L 1.5 7.5  L 1.5 7.0005  L 2.25 6  L 11.25 6  L 11.25 1.5  L 12.75 1.5  L 12.75 6  L 21.75 6  Z " fill-rule="evenodd" />
    </mask>
  </defs>
  <g>
    <path d="M 18.375 0  L 5.625 0  C 5.152864045000421 0  4.7082815729997485 0.22229123600033684  4.425000000000001 0.6000000000000001  L 0.15000000000000002 6.300000000000001  C 0.052633403898972524 6.429822128134704  0 6.58772233983162  0 6.75  L 0 22.5  C 0 23.32842712474619  0.6715728752538098 24  1.5 24  L 22.5 24  C 23.32842712474619 24  24 23.32842712474619  24 22.5  L 24 6.75  C 24 6.58772233983162  23.947366596101027 6.429822128134704  23.85 6.300000000000001  L 19.575000000000003 0.6000000000000001  C 19.291718427000255 0.2222912360003355  18.84713595499958 0  18.375 0  Z M 21.75 6  L 22.5 7.0005  L 22.5 7.5  L 1.5 7.5  L 1.5 7.0005  L 2.25 6  L 11.25 6  L 11.25 1.5  L 12.75 1.5  L 12.75 6  L 21.75 6  Z " fill-rule="nonzero" fill="rgba(0, 0, 0, 1)" stroke="none" class="fill" />
    <path d="M 18.375 0  L 5.625 0  C 5.152864045000421 0  4.7082815729997485 0.22229123600033684  4.425000000000001 0.6000000000000001  L 0.15000000000000002 6.300000000000001  C 0.052633403898972524 6.429822128134704  0 6.58772233983162  0 6.75  L 0 22.5  C 0 23.32842712474619  0.6715728752538098 24  1.5 24  L 22.5 24  C 23.32842712474619 24  24 23.32842712474619  24 22.5  L 24 6.75  C 24 6.58772233983162  23.947366596101027 6.429822128134704  23.85 6.300000000000001  L 19.575000000000003 0.6000000000000001  C 19.291718427000255 0.2222912360003355  18.84713595499958 0  18.375 0  Z " stroke-width="0" stroke-dasharray="0" stroke="rgba(255, 255, 255, 0)" fill="none" class="stroke" mask="url(#Clip4889)" />
    <path d="M 21.75 6  L 22.5 7.0005  L 22.5 7.5  L 1.5 7.5  L 1.5 7.0005  L 2.25 6  L 11.25 6  L 11.25 1.5  L 12.75 1.5  L 12.75 6  L 21.75 6  Z " stroke-width="0" stroke-dasharray="0" stroke="rgba(255, 255, 255, 0)" fill="none" class="stroke" mask="url(#Clip4889)" />
  </g>
</svg>