<?xml version="1.0" encoding="utf-8"?>
<svg version="1.1" xmlns:xlink="http://www.w3.org/1999/xlink" width="14px" height="14px" xmlns="http://www.w3.org/2000/svg">
  <defs>
    <pattern id="BGPattern" patternUnits="userSpaceOnUse" alignment="0 0" imageRepeat="None" />
    <mask fill="white" id="Clip463">
      <path d="M 5.800000000000004 1.400000000000004  C 5.800000000000004 0.7440000000000033  6.344000000000005 0.20000000000000462  7 0.1999999999999993  C 7.656 0.1999999999999993  8.2 0.7439999999999998  8.2 1.3999999999999986  L 8.2 5.799999999999999  L 12.600000000000001 5.799999999999999  C 13.256 5.799999999999999  13.8 6.343999999999999  13.8 6.999999999999998  C 13.8 7.656  13.256 8.2  12.600000000000001 8.2  L 8.200000000000003 8.2  L 8.200000000000003 12.600000000000001  C 8.200000000000003 13.256  7.656000000000002 13.8  7.0000000000000036 13.8  C 6.344000000000005 13.8  5.800000000000004 13.256  5.800000000000004 12.600000000000001  L 5.800000000000004 8.200000000000003  L 1.400000000000004 8.200000000000003  C 0.7440000000000033 8.200000000000003  0.20000000000000462 7.656000000000002  0.20000000000000462 7.0000000000000036  C 0.20000000000000462 6.344000000000005  0.7440000000000051 5.800000000000004  1.400000000000004 5.800000000000004  L 5.800000000000004 5.800000000000004  L 5.800000000000004 1.400000000000004  Z " fill-rule="evenodd" />
    </mask>
  </defs>
  <g>
    <path d="M 5.800000000000004 1.400000000000004  C 5.800000000000004 0.7440000000000033  6.344000000000005 0.20000000000000462  7 0.1999999999999993  C 7.656 0.1999999999999993  8.2 0.7439999999999998  8.2 1.3999999999999986  L 8.2 5.799999999999999  L 12.600000000000001 5.799999999999999  C 13.256 5.799999999999999  13.8 6.343999999999999  13.8 6.999999999999998  C 13.8 7.656  13.256 8.2  12.600000000000001 8.2  L 8.200000000000003 8.2  L 8.200000000000003 12.600000000000001  C 8.200000000000003 13.256  7.656000000000002 13.8  7.0000000000000036 13.8  C 6.344000000000005 13.8  5.800000000000004 13.256  5.800000000000004 12.600000000000001  L 5.800000000000004 8.200000000000003  L 1.400000000000004 8.200000000000003  C 0.7440000000000033 8.200000000000003  0.20000000000000462 7.656000000000002  0.20000000000000462 7.0000000000000036  C 0.20000000000000462 6.344000000000005  0.7440000000000051 5.800000000000004  1.400000000000004 5.800000000000004  L 5.800000000000004 5.800000000000004  L 5.800000000000004 1.400000000000004  Z " fill-rule="nonzero" fill="rgba(0, 0, 0, 1)" stroke="none" class="fill" />
    <path d="M 5.800000000000004 1.400000000000004  C 5.800000000000004 0.7440000000000033  6.344000000000005 0.20000000000000462  7 0.1999999999999993  C 7.656 0.1999999999999993  8.2 0.7439999999999998  8.2 1.3999999999999986  L 8.2 5.799999999999999  L 12.600000000000001 5.799999999999999  C 13.256 5.799999999999999  13.8 6.343999999999999  13.8 6.999999999999998  C 13.8 7.656  13.256 8.2  12.600000000000001 8.2  L 8.200000000000003 8.2  L 8.200000000000003 12.600000000000001  C 8.200000000000003 13.256  7.656000000000002 13.8  7.0000000000000036 13.8  C 6.344000000000005 13.8  5.800000000000004 13.256  5.800000000000004 12.600000000000001  L 5.800000000000004 8.200000000000003  L 1.400000000000004 8.200000000000003  C 0.7440000000000033 8.200000000000003  0.20000000000000462 7.656000000000002  0.20000000000000462 7.0000000000000036  C 0.20000000000000462 6.344000000000005  0.7440000000000051 5.800000000000004  1.400000000000004 5.800000000000004  L 5.800000000000004 5.800000000000004  L 5.800000000000004 1.400000000000004  Z " stroke-width="0" stroke-dasharray="0" stroke="rgba(255, 255, 255, 0)" fill="none" class="stroke" mask="url(#Clip463)" />
  </g>
</svg>