<?xml version="1.0" encoding="utf-8"?>
<svg version="1.1" xmlns:xlink="http://www.w3.org/1999/xlink" width="48px" height="48px" xmlns="http://www.w3.org/2000/svg">
  <defs>
    <pattern id="BGPattern" patternUnits="userSpaceOnUse" alignment="0 0" imageRepeat="None" />
    <mask fill="white" id="Clip2902">
      <path d="M 47.25 24  C 47.25 11.162500000000001  36.8375 0.75  24 0.75  C 11.162500000000001 0.75  0.75 11.162500000000001  0.75 24  C 0.75 36.8375  11.162500000000001 47.25  24 47.25  C 36.8375 47.25  47.25 36.8375  47.25 24  Z M 17.962499999999995 25.7125  C 17.962499999999995 31.06875  20.262499999999996 34.0625  24.34375 34.0625  C 27.65 34.0625  29.893749999999997 32.08125  30.15625 29.200000000000003  C 30.18125 28.94375  30.393749999999997 28.743750000000006  30.65625 28.743750000000006  L 34.20625 28.743750000000006  C 34.36875 28.743750000000006  34.5 28.875000000000007  34.5 29.03750000000001  C 34.5 34.20000000000001  30.206249999999997 37.87500000000001  24.331249999999997 37.87500000000001  C 17.4625 37.875  13.5 33.3  13.5 25.69375  L 13.5 22.425  C 13.5 14.7625  17.4625 10.125  24.331249999999997 10.125  C 30.224999999999994 10.125  34.5 13.91875  34.5 19.3375  C 34.5 19.5  34.36875 19.631249999999998  34.20625 19.631249999999998  L 30.662499999999994 19.631249999999998  C 30.39999999999999 19.631249999999998  30.18124999999999 19.43125  30.162499999999994 19.16875  C 29.912499999999994 16.068749999999998  27.662499999999994 13.956249999999997  24.349999999999994 13.956249999999997  C 20.274999999999995 13.956249999999997  17.968749999999993 16.987499999999997  17.962499999999995 22.424999999999997  L 17.962499999999995 25.7125  Z " fill-rule="evenodd" />
    </mask>
  </defs>
  <g transform="matrix(1 0 0 1 -4 -4 )">
    <path d="M 47.25 24  C 47.25 11.162500000000001  36.8375 0.75  24 0.75  C 11.162500000000001 0.75  0.75 11.162500000000001  0.75 24  C 0.75 36.8375  11.162500000000001 47.25  24 47.25  C 36.8375 47.25  47.25 36.8375  47.25 24  Z M 17.962499999999995 25.7125  C 17.962499999999995 31.06875  20.262499999999996 34.0625  24.34375 34.0625  C 27.65 34.0625  29.893749999999997 32.08125  30.15625 29.200000000000003  C 30.18125 28.94375  30.393749999999997 28.743750000000006  30.65625 28.743750000000006  L 34.20625 28.743750000000006  C 34.36875 28.743750000000006  34.5 28.875000000000007  34.5 29.03750000000001  C 34.5 34.20000000000001  30.206249999999997 37.87500000000001  24.331249999999997 37.87500000000001  C 17.4625 37.875  13.5 33.3  13.5 25.69375  L 13.5 22.425  C 13.5 14.7625  17.4625 10.125  24.331249999999997 10.125  C 30.224999999999994 10.125  34.5 13.91875  34.5 19.3375  C 34.5 19.5  34.36875 19.631249999999998  34.20625 19.631249999999998  L 30.662499999999994 19.631249999999998  C 30.39999999999999 19.631249999999998  30.18124999999999 19.43125  30.162499999999994 19.16875  C 29.912499999999994 16.068749999999998  27.662499999999994 13.956249999999997  24.349999999999994 13.956249999999997  C 20.274999999999995 13.956249999999997  17.968749999999993 16.987499999999997  17.962499999999995 22.424999999999997  L 17.962499999999995 25.7125  Z " fill-rule="nonzero" fill="rgba(230, 230, 230, 1)" stroke="none" transform="matrix(1 0 0 1 4 4 )" class="fill" />
    <path d="M 47.25 24  C 47.25 11.162500000000001  36.8375 0.75  24 0.75  C 11.162500000000001 0.75  0.75 11.162500000000001  0.75 24  C 0.75 36.8375  11.162500000000001 47.25  24 47.25  C 36.8375 47.25  47.25 36.8375  47.25 24  Z " stroke-width="0" stroke-dasharray="0" stroke="rgba(255, 255, 255, 0)" fill="none" transform="matrix(1 0 0 1 4 4 )" class="stroke" mask="url(#Clip2902)" />
    <path d="M 17.962499999999995 25.7125  C 17.962499999999995 31.06875  20.262499999999996 34.0625  24.34375 34.0625  C 27.65 34.0625  29.893749999999997 32.08125  30.15625 29.200000000000003  C 30.18125 28.94375  30.393749999999997 28.743750000000006  30.65625 28.743750000000006  L 34.20625 28.743750000000006  C 34.36875 28.743750000000006  34.5 28.875000000000007  34.5 29.03750000000001  C 34.5 34.20000000000001  30.206249999999997 37.87500000000001  24.331249999999997 37.87500000000001  C 17.4625 37.875  13.5 33.3  13.5 25.69375  L 13.5 22.425  C 13.5 14.7625  17.4625 10.125  24.331249999999997 10.125  C 30.224999999999994 10.125  34.5 13.91875  34.5 19.3375  C 34.5 19.5  34.36875 19.631249999999998  34.20625 19.631249999999998  L 30.662499999999994 19.631249999999998  C 30.39999999999999 19.631249999999998  30.18124999999999 19.43125  30.162499999999994 19.16875  C 29.912499999999994 16.068749999999998  27.662499999999994 13.956249999999997  24.349999999999994 13.956249999999997  C 20.274999999999995 13.956249999999997  17.968749999999993 16.987499999999997  17.962499999999995 22.424999999999997  L 17.962499999999995 25.7125  Z " stroke-width="0" stroke-dasharray="0" stroke="rgba(255, 255, 255, 0)" fill="none" transform="matrix(1 0 0 1 4 4 )" class="stroke" mask="url(#Clip2902)" />
  </g>
</svg>