<?xml version="1.0" encoding="utf-8"?>
<svg version="1.1" xmlns:xlink="http://www.w3.org/1999/xlink" width="35px" height="50px" xmlns="http://www.w3.org/2000/svg">
  <defs>
    <pattern id="BGPattern" patternUnits="userSpaceOnUse" alignment="0 0" imageRepeat="None" />
    <mask fill="white" id="Clip1731">
      <path d="M 23.828125 40  C 24.47529296875001 40.625  25 41.14970703124999  25 41.796875  L 25 44.53125  C 25 45.551660156249994  24.34765625 46.419335937499994  23.4375 46.741113281249994  L 23.4375 47.65625  C 23.4375 48.95068359375  22.38818359375 50  21.09375 50  L 13.28125 50  C 11.98681640625 50  10.9375 48.95068359375  10.9375 47.65625  L 10.9375 46.741113281249994  C 10.02734375 46.419335937499994  9.375 45.551660156249994  9.375 44.53125  L 9.375 41.796875  C 9.375 41.14970703124999  9.899707031249989 40.625  10.546875 40  L 23.828125 40  Z M 23.35039062499999 37  L 11.024707031249989 37  C 10.057226562500006 37.5  9.186230468750011 36.90644531250001  8.839550781250011 36.00322265624999  C 5.048535156250011 26.127050781250006  0 27.122167968750006  0 17.1875  C 0 7.695605468749989  7.69580078125 0  17.1875 0  C 26.67919921875 0  34.375 7.695605468749989  34.375 17.1875  C 34.375 27.122167968750006  29.32646484374999 26.127050781250006  25.535546874999994 36.00322265624999  C 25.188867187499994 36.90644531250001  24.317773437499994 37.5  23.35039062499999 37  Z M 7.8125 18.75  C 8.675390625000006 18.75  9.375 18.050390625000006  9.375 17.1875  C 9.375 12.879687499999989  12.879687499999989 9.375  17.1875 9.375  C 18.05048828125001 9.375  18.75 8.675390625000006  18.75 7.8125  C 18.75 6.949609374999994  18.05048828125001 6.25  17.1875 6.25  C 11.156542968749989 6.25  6.25 11.156542968749989  6.25 17.1875  C 6.25 18.050390625000006  6.949609374999994 18.75  7.8125 18.75  Z " fill-rule="evenodd" />
    </mask>
  </defs>
  <g>
    <path d="M 23.828125 40  C 24.47529296875001 40.625  25 41.14970703124999  25 41.796875  L 25 44.53125  C 25 45.551660156249994  24.34765625 46.419335937499994  23.4375 46.741113281249994  L 23.4375 47.65625  C 23.4375 48.95068359375  22.38818359375 50  21.09375 50  L 13.28125 50  C 11.98681640625 50  10.9375 48.95068359375  10.9375 47.65625  L 10.9375 46.741113281249994  C 10.02734375 46.419335937499994  9.375 45.551660156249994  9.375 44.53125  L 9.375 41.796875  C 9.375 41.14970703124999  9.899707031249989 40.625  10.546875 40  L 23.828125 40  Z M 23.35039062499999 37  L 11.024707031249989 37  C 10.057226562500006 37.5  9.186230468750011 36.90644531250001  8.839550781250011 36.00322265624999  C 5.048535156250011 26.127050781250006  0 27.122167968750006  0 17.1875  C 0 7.695605468749989  7.69580078125 0  17.1875 0  C 26.67919921875 0  34.375 7.695605468749989  34.375 17.1875  C 34.375 27.122167968750006  29.32646484374999 26.127050781250006  25.535546874999994 36.00322265624999  C 25.188867187499994 36.90644531250001  24.317773437499994 37.5  23.35039062499999 37  Z M 7.8125 18.75  C 8.675390625000006 18.75  9.375 18.050390625000006  9.375 17.1875  C 9.375 12.879687499999989  12.879687499999989 9.375  17.1875 9.375  C 18.05048828125001 9.375  18.75 8.675390625000006  18.75 7.8125  C 18.75 6.949609374999994  18.05048828125001 6.25  17.1875 6.25  C 11.156542968749989 6.25  6.25 11.156542968749989  6.25 17.1875  C 6.25 18.050390625000006  6.949609374999994 18.75  7.8125 18.75  Z " fill-rule="nonzero" fill="rgba(0, 0, 0, 1)" stroke="none" class="fill" />
    <path d="M 23.828125 40  C 24.47529296875001 40.625  25 41.14970703124999  25 41.796875  L 25 44.53125  C 25 45.551660156249994  24.34765625 46.419335937499994  23.4375 46.741113281249994  L 23.4375 47.65625  C 23.4375 48.95068359375  22.38818359375 50  21.09375 50  L 13.28125 50  C 11.98681640625 50  10.9375 48.95068359375  10.9375 47.65625  L 10.9375 46.741113281249994  C 10.02734375 46.419335937499994  9.375 45.551660156249994  9.375 44.53125  L 9.375 41.796875  C 9.375 41.14970703124999  9.899707031249989 40.625  10.546875 40  L 23.828125 40  Z " stroke-width="0" stroke-dasharray="0" stroke="rgba(255, 255, 255, 0)" fill="none" class="stroke" mask="url(#Clip1731)" />
    <path d="M 23.35039062499999 37  L 11.024707031249989 37  C 10.057226562500006 37.5  9.186230468750011 36.90644531250001  8.839550781250011 36.00322265624999  C 5.048535156250011 26.127050781250006  0 27.122167968750006  0 17.1875  C 0 7.695605468749989  7.69580078125 0  17.1875 0  C 26.67919921875 0  34.375 7.695605468749989  34.375 17.1875  C 34.375 27.122167968750006  29.32646484374999 26.127050781250006  25.535546874999994 36.00322265624999  C 25.188867187499994 36.90644531250001  24.317773437499994 37.5  23.35039062499999 37  Z " stroke-width="0" stroke-dasharray="0" stroke="rgba(255, 255, 255, 0)" fill="none" class="stroke" mask="url(#Clip1731)" />
    <path d="M 7.8125 18.75  C 8.675390625000006 18.75  9.375 18.050390625000006  9.375 17.1875  C 9.375 12.879687499999989  12.879687499999989 9.375  17.1875 9.375  C 18.05048828125001 9.375  18.75 8.675390625000006  18.75 7.8125  C 18.75 6.949609374999994  18.05048828125001 6.25  17.1875 6.25  C 11.156542968749989 6.25  6.25 11.156542968749989  6.25 17.1875  C 6.25 18.050390625000006  6.949609374999994 18.75  7.8125 18.75  Z " stroke-width="0" stroke-dasharray="0" stroke="rgba(255, 255, 255, 0)" fill="none" class="stroke" mask="url(#Clip1731)" />
  </g>
</svg>