<?xml version="1.0" encoding="utf-8"?>
<svg version="1.1" xmlns:xlink="http://www.w3.org/1999/xlink" width="11px" height="11px" xmlns="http://www.w3.org/2000/svg">
  <defs>
    <pattern id="BGPattern" patternUnits="userSpaceOnUse" alignment="0 0" imageRepeat="None" />
    <mask fill="white" id="Clip4604">
      <path d="M 9 4  L 11 4  L 11 2  L 9 2  L 9 0  L 7 0  L 7 2  L 4 2  L 4 0  L 2 0  L 2 2  L 0 2  L 0 4  L 2 4  L 2 7  L 0 7  L 0 9  L 2 9  L 2 11  L 4 11  L 4 9  L 7 9  L 7 11  L 9 11  L 9 9  L 11 9  L 11 7  L 9 7  L 9 4  Z M 7 4  L 7 7  L 4 7  L 4 4  L 7 4  Z " fill-rule="evenodd" />
    </mask>
  </defs>
  <g transform="matrix(1 0 0 1 -19 -19 )">
    <path d="M 9 4  L 11 4  L 11 2  L 9 2  L 9 0  L 7 0  L 7 2  L 4 2  L 4 0  L 2 0  L 2 2  L 0 2  L 0 4  L 2 4  L 2 7  L 0 7  L 0 9  L 2 9  L 2 11  L 4 11  L 4 9  L 7 9  L 7 11  L 9 11  L 9 9  L 11 9  L 11 7  L 9 7  L 9 4  Z M 7 4  L 7 7  L 4 7  L 4 4  L 7 4  Z " fill-rule="nonzero" fill="rgba(39, 36, 37, 1)" stroke="none" transform="matrix(1 0 0 1 19 19 )" class="fill" />
    <path d="M 9 4  L 11 4  L 11 2  L 9 2  L 9 0  L 7 0  L 7 2  L 4 2  L 4 0  L 2 0  L 2 2  L 0 2  L 0 4  L 2 4  L 2 7  L 0 7  L 0 9  L 2 9  L 2 11  L 4 11  L 4 9  L 7 9  L 7 11  L 9 11  L 9 9  L 11 9  L 11 7  L 9 7  L 9 4  Z " stroke-width="0" stroke-dasharray="0" stroke="rgba(255, 255, 255, 0)" fill="none" transform="matrix(1 0 0 1 19 19 )" class="stroke" mask="url(#Clip4604)" />
    <path d="M 7 4  L 7 7  L 4 7  L 4 4  L 7 4  Z " stroke-width="0" stroke-dasharray="0" stroke="rgba(255, 255, 255, 0)" fill="none" transform="matrix(1 0 0 1 19 19 )" class="stroke" mask="url(#Clip4604)" />
  </g>
</svg>