<?xml version="1.0" encoding="utf-8"?>
<svg version="1.1" xmlns:xlink="http://www.w3.org/1999/xlink" width="50px" height="40px" xmlns="http://www.w3.org/2000/svg">
  <defs>
    <pattern id="BGPattern" patternUnits="userSpaceOnUse" alignment="0 0" imageRepeat="None" />
    <mask fill="white" id="Clip1374">
      <path d="M 8 32.5  L 8 5  L 42 5  L 42 32.5  L 47 32.5  L 47 3.125  C 47.5 1.4015625000000114  46.09843749999999 0  44.375 0  L 5.625 0  C 3.901562500000012 0  2.5 1.4015625000000114  3 3.125  L 3 32.5  L 8 32.5  Z M 50 36.25  C 50 35.55937499999999  49.44062500000001 35  48.75 35  L 37.5 35  L 37.5 30  L 22.5 30  L 22.5 35  L 1.25 35  C 0.5593749999999886 35  0 35.55937499999999  0 36.25  L 0 38.75  C 0 39.44062500000001  0.5593749999999886 40  1.25 40  L 48.75 40  C 49.44062500000001 40  50 39.44062500000001  50 38.75  L 50 36.25  Z " fill-rule="evenodd" />
    </mask>
  </defs>
  <g>
    <path d="M 8 32.5  L 8 5  L 42 5  L 42 32.5  L 47 32.5  L 47 3.125  C 47.5 1.4015625000000114  46.09843749999999 0  44.375 0  L 5.625 0  C 3.901562500000012 0  2.5 1.4015625000000114  3 3.125  L 3 32.5  L 8 32.5  Z M 50 36.25  C 50 35.55937499999999  49.44062500000001 35  48.75 35  L 37.5 35  L 37.5 30  L 22.5 30  L 22.5 35  L 1.25 35  C 0.5593749999999886 35  0 35.55937499999999  0 36.25  L 0 38.75  C 0 39.44062500000001  0.5593749999999886 40  1.25 40  L 48.75 40  C 49.44062500000001 40  50 39.44062500000001  50 38.75  L 50 36.25  Z " fill-rule="nonzero" fill="rgba(0, 0, 0, 1)" stroke="none" class="fill" />
    <path d="M 8 32.5  L 8 5  L 42 5  L 42 32.5  L 47 32.5  L 47 3.125  C 47.5 1.4015625000000114  46.09843749999999 0  44.375 0  L 5.625 0  C 3.901562500000012 0  2.5 1.4015625000000114  3 3.125  L 3 32.5  L 8 32.5  Z " stroke-width="0" stroke-dasharray="0" stroke="rgba(255, 255, 255, 0)" fill="none" class="stroke" mask="url(#Clip1374)" />
    <path d="M 50 36.25  C 50 35.55937499999999  49.44062500000001 35  48.75 35  L 37.5 35  L 37.5 30  L 22.5 30  L 22.5 35  L 1.25 35  C 0.5593749999999886 35  0 35.55937499999999  0 36.25  L 0 38.75  C 0 39.44062500000001  0.5593749999999886 40  1.25 40  L 48.75 40  C 49.44062500000001 40  50 39.44062500000001  50 38.75  L 50 36.25  Z " stroke-width="0" stroke-dasharray="0" stroke="rgba(255, 255, 255, 0)" fill="none" class="stroke" mask="url(#Clip1374)" />
  </g>
</svg>