<?xml version="1.0" encoding="utf-8"?>
<svg version="1.1" xmlns:xlink="http://www.w3.org/1999/xlink" width="24px" height="24px" xmlns="http://www.w3.org/2000/svg">
  <defs>
    <pattern id="BGPattern" patternUnits="userSpaceOnUse" alignment="0 0" imageRepeat="None" />
    <mask fill="white" id="Clip4726">
      <path d="M 21 0  L 3 0  C 1.3431457505076196 0  0 1.3431457505076196  0 3  L 0 21  C 0 22.65685424949238  1.3431457505076196 24  3 24  L 21 24  C 22.65685424949238 24  24 22.65685424949238  24 21  L 24 3  C 24 1.3431457505076196  22.65685424949238 0  21 0  Z M 14.962499999999999 10.098  L 8.8185 16.241999999999997  C 8.67717272104889 16.388326931160748  8.482466809008429 16.470966154295567  8.27903384570443 16.470966154295567  C 7.864820283331334 16.470966154295567  7.529033845704429 16.135179716668663  7.529033845704429 15.720966154295567  C 7.529033845704429 15.517533190991568  7.611673068839252 15.322827278951108  7.757999999999999 15.181499999999998  L 13.902000000000001 9.037499999999998  L 9.75 9.037499999999998  C 9.335786437626904 9.037499999999998  9 8.701713562373094  9 8.287499999999998  C 9 7.873286437626903  9.335786437626904 7.537499999999998  9.75 7.537499999999998  L 15.712499999999999 7.537499999999998  C 16.126713562373094 7.537499999999998  16.4625 7.873286437626903  16.4625 8.287499999999998  L 16.4625 14.25  C 16.4625 14.664213562373096  16.126713562373094 15  15.712499999999999 15  C 15.298286437626905 15  14.962499999999999 14.664213562373096  14.962499999999999 14.25  L 14.962499999999999 10.098  Z " fill-rule="evenodd" />
    </mask>
  </defs>
  <g>
    <path d="M 21 0  L 3 0  C 1.3431457505076196 0  0 1.3431457505076196  0 3  L 0 21  C 0 22.65685424949238  1.3431457505076196 24  3 24  L 21 24  C 22.65685424949238 24  24 22.65685424949238  24 21  L 24 3  C 24 1.3431457505076196  22.65685424949238 0  21 0  Z M 14.962499999999999 10.098  L 8.8185 16.241999999999997  C 8.67717272104889 16.388326931160748  8.482466809008429 16.470966154295567  8.27903384570443 16.470966154295567  C 7.864820283331334 16.470966154295567  7.529033845704429 16.135179716668663  7.529033845704429 15.720966154295567  C 7.529033845704429 15.517533190991568  7.611673068839252 15.322827278951108  7.757999999999999 15.181499999999998  L 13.902000000000001 9.037499999999998  L 9.75 9.037499999999998  C 9.335786437626904 9.037499999999998  9 8.701713562373094  9 8.287499999999998  C 9 7.873286437626903  9.335786437626904 7.537499999999998  9.75 7.537499999999998  L 15.712499999999999 7.537499999999998  C 16.126713562373094 7.537499999999998  16.4625 7.873286437626903  16.4625 8.287499999999998  L 16.4625 14.25  C 16.4625 14.664213562373096  16.126713562373094 15  15.712499999999999 15  C 15.298286437626905 15  14.962499999999999 14.664213562373096  14.962499999999999 14.25  L 14.962499999999999 10.098  Z " fill-rule="nonzero" fill="rgba(0, 0, 0, 1)" stroke="none" class="fill" />
    <path d="M 21 0  L 3 0  C 1.3431457505076196 0  0 1.3431457505076196  0 3  L 0 21  C 0 22.65685424949238  1.3431457505076196 24  3 24  L 21 24  C 22.65685424949238 24  24 22.65685424949238  24 21  L 24 3  C 24 1.3431457505076196  22.65685424949238 0  21 0  Z " stroke-width="0" stroke-dasharray="0" stroke="rgba(255, 255, 255, 0)" fill="none" class="stroke" mask="url(#Clip4726)" />
    <path d="M 14.962499999999999 10.098  L 8.8185 16.241999999999997  C 8.67717272104889 16.388326931160748  8.482466809008429 16.470966154295567  8.27903384570443 16.470966154295567  C 7.864820283331334 16.470966154295567  7.529033845704429 16.135179716668663  7.529033845704429 15.720966154295567  C 7.529033845704429 15.517533190991568  7.611673068839252 15.322827278951108  7.757999999999999 15.181499999999998  L 13.902000000000001 9.037499999999998  L 9.75 9.037499999999998  C 9.335786437626904 9.037499999999998  9 8.701713562373094  9 8.287499999999998  C 9 7.873286437626903  9.335786437626904 7.537499999999998  9.75 7.537499999999998  L 15.712499999999999 7.537499999999998  C 16.126713562373094 7.537499999999998  16.4625 7.873286437626903  16.4625 8.287499999999998  L 16.4625 14.25  C 16.4625 14.664213562373096  16.126713562373094 15  15.712499999999999 15  C 15.298286437626905 15  14.962499999999999 14.664213562373096  14.962499999999999 14.25  L 14.962499999999999 10.098  Z " stroke-width="0" stroke-dasharray="0" stroke="rgba(255, 255, 255, 0)" fill="none" class="stroke" mask="url(#Clip4726)" />
  </g>
</svg>