<?xml version="1.0" encoding="utf-8"?>
<svg version="1.1" xmlns:xlink="http://www.w3.org/1999/xlink" width="24px" height="24px" xmlns="http://www.w3.org/2000/svg">
  <defs>
    <pattern id="BGPattern" patternUnits="userSpaceOnUse" alignment="0 0" imageRepeat="None" />
    <mask fill="white" id="Clip6175">
      <path d="M 21 0  L 3 0  C 1.3431457505076196 0  0 1.3431457505076196  0 3  L 0 21  C 0 22.65685424949238  1.3431457505076196 24  3 24  L 21 24  C 22.65685424949238 24  24 22.65685424949238  24 21  L 24 3  C 24 1.3431457505076196  22.65685424949238 0  21 0  Z M 3.75 5.25  C 3.75 4.42157287525381  4.42157287525381 3.75  5.25 3.75  C 13.5345 3.75  20.25 10.4655  20.25 18.75  C 20.25 19.57842712474619  19.57842712474619 20.25  18.75 20.25  C 17.92157287525381 20.25  17.25 19.57842712474619  17.25 18.75  C 17.25 12.122583002030478  11.877416997969522 6.75  5.25 6.75  C 4.42157287525381 6.75  3.75 6.07842712474619  3.75 5.25  Z M 3.75 11.25  C 3.75 10.42157287525381  4.42157287525381 9.75  5.249999999999999 9.75  C 10.22056274847714 9.75  14.25 13.779437251522856  14.25 18.75  C 14.25 19.57842712474619  13.57842712474619 20.25  12.75 20.25  C 11.92157287525381 20.25  11.25 19.57842712474619  11.25 18.75  C 11.25 15.43629150101524  8.563708498984761 12.75  5.25 12.75  C 4.42157287525381 12.75  3.75 12.07842712474619  3.75 11.25  Z M 8.25 18  C 8.25 19.242640687119284  7.242640687119285 20.25  6 20.25  C 4.757359312880714 20.25  3.75 19.242640687119284  3.75 18  C 3.75 16.757359312880716  4.757359312880714 15.75  6 15.75  C 7.242640687119285 15.75  8.25 16.757359312880716  8.25 18  Z " fill-rule="evenodd" />
    </mask>
  </defs>
  <g>
    <path d="M 21 0  L 3 0  C 1.3431457505076196 0  0 1.3431457505076196  0 3  L 0 21  C 0 22.65685424949238  1.3431457505076196 24  3 24  L 21 24  C 22.65685424949238 24  24 22.65685424949238  24 21  L 24 3  C 24 1.3431457505076196  22.65685424949238 0  21 0  Z M 3.75 5.25  C 3.75 4.42157287525381  4.42157287525381 3.75  5.25 3.75  C 13.5345 3.75  20.25 10.4655  20.25 18.75  C 20.25 19.57842712474619  19.57842712474619 20.25  18.75 20.25  C 17.92157287525381 20.25  17.25 19.57842712474619  17.25 18.75  C 17.25 12.122583002030478  11.877416997969522 6.75  5.25 6.75  C 4.42157287525381 6.75  3.75 6.07842712474619  3.75 5.25  Z M 3.75 11.25  C 3.75 10.42157287525381  4.42157287525381 9.75  5.249999999999999 9.75  C 10.22056274847714 9.75  14.25 13.779437251522856  14.25 18.75  C 14.25 19.57842712474619  13.57842712474619 20.25  12.75 20.25  C 11.92157287525381 20.25  11.25 19.57842712474619  11.25 18.75  C 11.25 15.43629150101524  8.563708498984761 12.75  5.25 12.75  C 4.42157287525381 12.75  3.75 12.07842712474619  3.75 11.25  Z M 8.25 18  C 8.25 19.242640687119284  7.242640687119285 20.25  6 20.25  C 4.757359312880714 20.25  3.75 19.242640687119284  3.75 18  C 3.75 16.757359312880716  4.757359312880714 15.75  6 15.75  C 7.242640687119285 15.75  8.25 16.757359312880716  8.25 18  Z " fill-rule="nonzero" fill="rgba(0, 0, 0, 1)" stroke="none" class="fill" />
    <path d="M 21 0  L 3 0  C 1.3431457505076196 0  0 1.3431457505076196  0 3  L 0 21  C 0 22.65685424949238  1.3431457505076196 24  3 24  L 21 24  C 22.65685424949238 24  24 22.65685424949238  24 21  L 24 3  C 24 1.3431457505076196  22.65685424949238 0  21 0  Z " stroke-width="0" stroke-dasharray="0" stroke="rgba(255, 255, 255, 0)" fill="none" class="stroke" mask="url(#Clip6175)" />
    <path d="M 3.75 5.25  C 3.75 4.42157287525381  4.42157287525381 3.75  5.25 3.75  C 13.5345 3.75  20.25 10.4655  20.25 18.75  C 20.25 19.57842712474619  19.57842712474619 20.25  18.75 20.25  C 17.92157287525381 20.25  17.25 19.57842712474619  17.25 18.75  C 17.25 12.122583002030478  11.877416997969522 6.75  5.25 6.75  C 4.42157287525381 6.75  3.75 6.07842712474619  3.75 5.25  Z " stroke-width="0" stroke-dasharray="0" stroke="rgba(255, 255, 255, 0)" fill="none" class="stroke" mask="url(#Clip6175)" />
    <path d="M 3.75 11.25  C 3.75 10.42157287525381  4.42157287525381 9.75  5.249999999999999 9.75  C 10.22056274847714 9.75  14.25 13.779437251522856  14.25 18.75  C 14.25 19.57842712474619  13.57842712474619 20.25  12.75 20.25  C 11.92157287525381 20.25  11.25 19.57842712474619  11.25 18.75  C 11.25 15.43629150101524  8.563708498984761 12.75  5.25 12.75  C 4.42157287525381 12.75  3.75 12.07842712474619  3.75 11.25  Z " stroke-width="0" stroke-dasharray="0" stroke="rgba(255, 255, 255, 0)" fill="none" class="stroke" mask="url(#Clip6175)" />
    <path d="M 8.25 18  C 8.25 19.242640687119284  7.242640687119285 20.25  6 20.25  C 4.757359312880714 20.25  3.75 19.242640687119284  3.75 18  C 3.75 16.757359312880716  4.757359312880714 15.75  6 15.75  C 7.242640687119285 15.75  8.25 16.757359312880716  8.25 18  Z " stroke-width="0" stroke-dasharray="0" stroke="rgba(255, 255, 255, 0)" fill="none" class="stroke" mask="url(#Clip6175)" />
  </g>
</svg>