<?xml version="1.0" encoding="utf-8"?>
<svg version="1.1" xmlns:xlink="http://www.w3.org/1999/xlink" width="8px" height="8px" xmlns="http://www.w3.org/2000/svg">
  <defs>
    <pattern id="BGPattern" patternUnits="userSpaceOnUse" alignment="0 0" imageRepeat="None" />
    <mask fill="white" id="Clip5163">
      <path d="M 4.75 3  L 4.75 0.75  C 4.75 0.3357864376269042  4.414213562373096 0  4 0  C 3.585786437626904 0  3.25 0.3357864376269042  3.25 0.75  L 3.25 3  L 1 3  C 0.5857864376269042 3  0.25 3.335786437626904  0.25 3.75  C 0.25 4.164213562373096  0.5857864376269042 4.5  1 4.5  L 3.25 4.5  L 3.25 6.75  C 3.25 7.164213562373096  3.585786437626904 7.5  4 7.5  C 4.414213562373096 7.5  4.75 7.164213562373096  4.75 6.75  L 4.75 4.5  L 7 4.5  C 7.414213562373096 4.5  7.75 4.164213562373096  7.75 3.75  C 7.75 3.335786437626904  7.414213562373096 3  7 3  L 4.75 3  Z " fill-rule="evenodd" />
    </mask>
  </defs>
  <g transform="matrix(1 0 0 1 -5 -9 )">
    <path d="M 4.75 3  L 4.75 0.75  C 4.75 0.3357864376269042  4.414213562373096 0  4 0  C 3.585786437626904 0  3.25 0.3357864376269042  3.25 0.75  L 3.25 3  L 1 3  C 0.5857864376269042 3  0.25 3.335786437626904  0.25 3.75  C 0.25 4.164213562373096  0.5857864376269042 4.5  1 4.5  L 3.25 4.5  L 3.25 6.75  C 3.25 7.164213562373096  3.585786437626904 7.5  4 7.5  C 4.414213562373096 7.5  4.75 7.164213562373096  4.75 6.75  L 4.75 4.5  L 7 4.5  C 7.414213562373096 4.5  7.75 4.164213562373096  7.75 3.75  C 7.75 3.335786437626904  7.414213562373096 3  7 3  L 4.75 3  Z " fill-rule="nonzero" fill="rgba(0, 0, 0, 1)" stroke="none" transform="matrix(1 0 0 1 5 9 )" class="fill" />
    <path d="M 4.75 3  L 4.75 0.75  C 4.75 0.3357864376269042  4.414213562373096 0  4 0  C 3.585786437626904 0  3.25 0.3357864376269042  3.25 0.75  L 3.25 3  L 1 3  C 0.5857864376269042 3  0.25 3.335786437626904  0.25 3.75  C 0.25 4.164213562373096  0.5857864376269042 4.5  1 4.5  L 3.25 4.5  L 3.25 6.75  C 3.25 7.164213562373096  3.585786437626904 7.5  4 7.5  C 4.414213562373096 7.5  4.75 7.164213562373096  4.75 6.75  L 4.75 4.5  L 7 4.5  C 7.414213562373096 4.5  7.75 4.164213562373096  7.75 3.75  C 7.75 3.335786437626904  7.414213562373096 3  7 3  L 4.75 3  Z " stroke-width="0" stroke-dasharray="0" stroke="rgba(255, 255, 255, 0)" fill="none" transform="matrix(1 0 0 1 5 9 )" class="stroke" mask="url(#Clip5163)" />
  </g>
</svg>