<?xml version="1.0" encoding="utf-8"?>
<svg version="1.1" xmlns:xlink="http://www.w3.org/1999/xlink" width="12px" height="5px" xmlns="http://www.w3.org/2000/svg">
  <defs>
    <pattern id="BGPattern" patternUnits="userSpaceOnUse" alignment="0 0" imageRepeat="None" />
    <mask fill="white" id="Clip3733">
      <path d="M 0 3  L 0 5  L 2 5  L 2 3  C 2.0004962016059737 2.4479209142284617  2.447920914228459 2.000496201605973  3 2  L 9 2  C 9.552079085771544 2.000496201605973  9.999503798394027 2.447920914228458  10 3  L 10 5  L 12 5  L 12 3  C 11.998181288863565 1.3438996703184607  10.65610032968154 0.001818711136433393  9 0  L 2.999999999999999 0  C 1.3438996703184627 0.001818711136433393  0.0018187111364340591 1.3438996703184607  0 3  Z " fill-rule="evenodd" />
    </mask>
  </defs>
  <g transform="matrix(1 0 0 1 -2 -26 )">
    <path d="M 0 3  L 0 5  L 2 5  L 2 3  C 2.0004962016059737 2.4479209142284617  2.447920914228459 2.000496201605973  3 2  L 9 2  C 9.552079085771544 2.000496201605973  9.999503798394027 2.447920914228458  10 3  L 10 5  L 12 5  L 12 3  C 11.998181288863565 1.3438996703184607  10.65610032968154 0.001818711136433393  9 0  L 2.999999999999999 0  C 1.3438996703184627 0.001818711136433393  0.0018187111364340591 1.3438996703184607  0 3  Z " fill-rule="nonzero" fill="rgba(0, 0, 0, 1)" stroke="none" transform="matrix(1 0 0 1 2 26 )" class="fill" />
    <path d="M 0 3  L 0 5  L 2 5  L 2 3  C 2.0004962016059737 2.4479209142284617  2.447920914228459 2.000496201605973  3 2  L 9 2  C 9.552079085771544 2.000496201605973  9.999503798394027 2.447920914228458  10 3  L 10 5  L 12 5  L 12 3  C 11.998181288863565 1.3438996703184607  10.65610032968154 0.001818711136433393  9 0  L 2.999999999999999 0  C 1.3438996703184627 0.001818711136433393  0.0018187111364340591 1.3438996703184607  0 3  Z " stroke-width="0" stroke-dasharray="0" stroke="rgba(255, 255, 255, 0)" fill="none" transform="matrix(1 0 0 1 2 26 )" class="stroke" mask="url(#Clip3733)" />
  </g>
</svg>