<?xml version="1.0" encoding="utf-8"?>
<svg version="1.1" xmlns:xlink="http://www.w3.org/1999/xlink" width="12px" height="14px" xmlns="http://www.w3.org/2000/svg">
  <defs>
    <pattern id="BGPattern" patternUnits="userSpaceOnUse" alignment="0 0" imageRepeat="None" />
    <mask fill="white" id="Clip5561">
      <path d="M 0 13.25  L 0 1.25  C 0 0.8357864376269051  0.3357864376269051 0.5  0.75 0.5  L 11.25 0.5  C 11.664213562373096 0.5  12 0.8357864376269051  12 1.25  L 12 13.25  C 12 13.664213562373096  11.664213562373096 14  11.25 14  L 0.75 14  C 0.3357864376269051 14  0 13.664213562373096  0 13.25  Z " fill-rule="evenodd" />
    </mask>
  </defs>
  <g transform="matrix(1 0 0 1 -3 -7 )">
    <path d="M 0 13.25  L 0 1.25  C 0 0.8357864376269051  0.3357864376269051 0.5  0.75 0.5  L 11.25 0.5  C 11.664213562373096 0.5  12 0.8357864376269051  12 1.25  L 12 13.25  C 12 13.664213562373096  11.664213562373096 14  11.25 14  L 0.75 14  C 0.3357864376269051 14  0 13.664213562373096  0 13.25  Z " fill-rule="nonzero" fill="rgba(0, 0, 0, 1)" stroke="none" transform="matrix(1 0 0 1 3 7 )" class="fill" />
    <path d="M 0 13.25  L 0 1.25  C 0 0.8357864376269051  0.3357864376269051 0.5  0.75 0.5  L 11.25 0.5  C 11.664213562373096 0.5  12 0.8357864376269051  12 1.25  L 12 13.25  C 12 13.664213562373096  11.664213562373096 14  11.25 14  L 0.75 14  C 0.3357864376269051 14  0 13.664213562373096  0 13.25  Z " stroke-width="0" stroke-dasharray="0" stroke="rgba(255, 255, 255, 0)" fill="none" transform="matrix(1 0 0 1 3 7 )" class="stroke" mask="url(#Clip5561)" />
  </g>
</svg>