<?xml version="1.0" encoding="utf-8"?>
<svg version="1.1" xmlns:xlink="http://www.w3.org/1999/xlink" width="48px" height="48px" xmlns="http://www.w3.org/2000/svg">
  <defs>
    <pattern id="BGPattern" patternUnits="userSpaceOnUse" alignment="0 0" imageRepeat="None" />
    <mask fill="white" id="Clip6917">
      <path d="M 25.201999999999998 25.270000000000003  L 25.200000000000003 25.270000000000003  L 22.95 25.164  C 21.06 25.098  20.555999999999997 24.997999999999998  20.555999999999997 24.293999999999997  C 20.555999999999997 24.023999999999997  20.755999999999997 23.657999999999998  21.162 23.453999999999997  C 21.496 23.525999999999996  21.836 23.56  22.176 23.56  C 27.006 23.56  29.436 21.22  29.436 17.599999999999998  C 29.436 16.999999999999996  29.287999999999997 16.459999999999997  28.986000000000004 16.13  L 30.906 16.13  L 30.906 12.11  L 25.200000000000003 12.11  C 24.256 11.879999999999999  23.416 11.709999999999999  22.27 11.709999999999999  C 17.183999999999997 11.709999999999999  14.661999999999999 14.658000000000001  14.661999999999999 18.07  C 14.661999999999999 20.21  15.674 21.75  17.182 22.554000000000002  C 16.014 23.022000000000002  15.137999999999998 24.294000000000004  15.137999999999998 25.634  C 15.137999999999998 26.806000000000004  15.782 27.742  16.758 28.208  C 15.478000000000002 28.880000000000003  14.328 30.518  14.328 32.088  C 14.328 35.408  17.028 37.04  21.608 37.04  C 27.354 37.04  30.997999999999998 33.832  30.997999999999998 30.22  L 30.961999999999996 30.22  C 30.961999999999996 26.872  28.806 25.4  25.201999999999998 25.270000000000003  Z M 19.626 18.03  C 19.626 16.67  20.592000000000002 15.71  22.276 15.709999999999999  C 24.066000000000003 15.709999999999999  24.96 16.669999999999998  24.96 18.096  C 24.96 19.516  23.96 20.376  22.310000000000002 20.376  C 20.524 20.376  19.626 19.486  19.626 18.03  Z M 26.292 30.819999999999993  L 26.292 30.817999999999998  C 26.292 32.077999999999996  25.067999999999998 33.044  22.652 33.044  C 20.764000000000003 33.044  19.652 32.233999999999995  19.652 31.04  C 19.652 30.333999999999996  20.104000000000003 29.623999999999995  20.852 29.045999999999996  C 21.032 29.075999999999993  21.304000000000002 29.045999999999996  21.512 29.075999999999993  L 24.211999999999996 29.14  C 25.804 29.205999999999996  26.372 29.915999999999997  26.372 30.819999999999993  L 26.292 30.819999999999993  Z M 38.966 25.4  C 38.966 23.380000000000003  37.292 21.708000000000002  35.274 21.708  L 35.274 21.712  C 33.294000000000004 21.712  31.625999999999998 23.38  31.625999999999998 25.402  C 31.625999999999998 27.421999999999997  33.294000000000004 29.048000000000002  35.274 29.048000000000002  C 37.294000000000004 29.048000000000002  38.966 27.42  38.966 25.4  Z M 48 24  C 48 10.746000000000002  37.254 0  24 0  C 10.746 0  0 10.746  0 24  C 0 37.254  10.746 48  24 48  C 37.254 48  48 37.254  48 24  Z M 44.67 24  C 44.67 35.416  35.416000000000004 44.67  24 44.67  C 12.585999999999999 44.67  3.33 35.416  3.33 24  C 3.33 12.585999999999999  12.585999999999999 3.33  24 3.33  C 35.416 3.33  44.67 12.585999999999999  44.67 24  Z " fill-rule="evenodd" />
    </mask>
  </defs>
  <g>
    <path d="M 25.201999999999998 25.270000000000003  L 25.200000000000003 25.270000000000003  L 22.95 25.164  C 21.06 25.098  20.555999999999997 24.997999999999998  20.555999999999997 24.293999999999997  C 20.555999999999997 24.023999999999997  20.755999999999997 23.657999999999998  21.162 23.453999999999997  C 21.496 23.525999999999996  21.836 23.56  22.176 23.56  C 27.006 23.56  29.436 21.22  29.436 17.599999999999998  C 29.436 16.999999999999996  29.287999999999997 16.459999999999997  28.986000000000004 16.13  L 30.906 16.13  L 30.906 12.11  L 25.200000000000003 12.11  C 24.256 11.879999999999999  23.416 11.709999999999999  22.27 11.709999999999999  C 17.183999999999997 11.709999999999999  14.661999999999999 14.658000000000001  14.661999999999999 18.07  C 14.661999999999999 20.21  15.674 21.75  17.182 22.554000000000002  C 16.014 23.022000000000002  15.137999999999998 24.294000000000004  15.137999999999998 25.634  C 15.137999999999998 26.806000000000004  15.782 27.742  16.758 28.208  C 15.478000000000002 28.880000000000003  14.328 30.518  14.328 32.088  C 14.328 35.408  17.028 37.04  21.608 37.04  C 27.354 37.04  30.997999999999998 33.832  30.997999999999998 30.22  L 30.961999999999996 30.22  C 30.961999999999996 26.872  28.806 25.4  25.201999999999998 25.270000000000003  Z M 19.626 18.03  C 19.626 16.67  20.592000000000002 15.71  22.276 15.709999999999999  C 24.066000000000003 15.709999999999999  24.96 16.669999999999998  24.96 18.096  C 24.96 19.516  23.96 20.376  22.310000000000002 20.376  C 20.524 20.376  19.626 19.486  19.626 18.03  Z M 26.292 30.819999999999993  L 26.292 30.817999999999998  C 26.292 32.077999999999996  25.067999999999998 33.044  22.652 33.044  C 20.764000000000003 33.044  19.652 32.233999999999995  19.652 31.04  C 19.652 30.333999999999996  20.104000000000003 29.623999999999995  20.852 29.045999999999996  C 21.032 29.075999999999993  21.304000000000002 29.045999999999996  21.512 29.075999999999993  L 24.211999999999996 29.14  C 25.804 29.205999999999996  26.372 29.915999999999997  26.372 30.819999999999993  L 26.292 30.819999999999993  Z M 38.966 25.4  C 38.966 23.380000000000003  37.292 21.708000000000002  35.274 21.708  L 35.274 21.712  C 33.294000000000004 21.712  31.625999999999998 23.38  31.625999999999998 25.402  C 31.625999999999998 27.421999999999997  33.294000000000004 29.048000000000002  35.274 29.048000000000002  C 37.294000000000004 29.048000000000002  38.966 27.42  38.966 25.4  Z M 48 24  C 48 10.746000000000002  37.254 0  24 0  C 10.746 0  0 10.746  0 24  C 0 37.254  10.746 48  24 48  C 37.254 48  48 37.254  48 24  Z M 44.67 24  C 44.67 35.416  35.416000000000004 44.67  24 44.67  C 12.585999999999999 44.67  3.33 35.416  3.33 24  C 3.33 12.585999999999999  12.585999999999999 3.33  24 3.33  C 35.416 3.33  44.67 12.585999999999999  44.67 24  Z " fill-rule="nonzero" fill="rgba(47, 166, 106, 1)" stroke="none" class="fill" />
    <path d="M 25.201999999999998 25.270000000000003  L 25.200000000000003 25.270000000000003  L 22.95 25.164  C 21.06 25.098  20.555999999999997 24.997999999999998  20.555999999999997 24.293999999999997  C 20.555999999999997 24.023999999999997  20.755999999999997 23.657999999999998  21.162 23.453999999999997  C 21.496 23.525999999999996  21.836 23.56  22.176 23.56  C 27.006 23.56  29.436 21.22  29.436 17.599999999999998  C 29.436 16.999999999999996  29.287999999999997 16.459999999999997  28.986000000000004 16.13  L 30.906 16.13  L 30.906 12.11  L 25.200000000000003 12.11  C 24.256 11.879999999999999  23.416 11.709999999999999  22.27 11.709999999999999  C 17.183999999999997 11.709999999999999  14.661999999999999 14.658000000000001  14.661999999999999 18.07  C 14.661999999999999 20.21  15.674 21.75  17.182 22.554000000000002  C 16.014 23.022000000000002  15.137999999999998 24.294000000000004  15.137999999999998 25.634  C 15.137999999999998 26.806000000000004  15.782 27.742  16.758 28.208  C 15.478000000000002 28.880000000000003  14.328 30.518  14.328 32.088  C 14.328 35.408  17.028 37.04  21.608 37.04  C 27.354 37.04  30.997999999999998 33.832  30.997999999999998 30.22  L 30.961999999999996 30.22  C 30.961999999999996 26.872  28.806 25.4  25.201999999999998 25.270000000000003  Z " stroke-width="0" stroke-dasharray="0" stroke="rgba(255, 255, 255, 0)" fill="none" class="stroke" mask="url(#Clip6917)" />
    <path d="M 19.626 18.03  C 19.626 16.67  20.592000000000002 15.71  22.276 15.709999999999999  C 24.066000000000003 15.709999999999999  24.96 16.669999999999998  24.96 18.096  C 24.96 19.516  23.96 20.376  22.310000000000002 20.376  C 20.524 20.376  19.626 19.486  19.626 18.03  Z " stroke-width="0" stroke-dasharray="0" stroke="rgba(255, 255, 255, 0)" fill="none" class="stroke" mask="url(#Clip6917)" />
    <path d="M 26.292 30.819999999999993  L 26.292 30.817999999999998  C 26.292 32.077999999999996  25.067999999999998 33.044  22.652 33.044  C 20.764000000000003 33.044  19.652 32.233999999999995  19.652 31.04  C 19.652 30.333999999999996  20.104000000000003 29.623999999999995  20.852 29.045999999999996  C 21.032 29.075999999999993  21.304000000000002 29.045999999999996  21.512 29.075999999999993  L 24.211999999999996 29.14  C 25.804 29.205999999999996  26.372 29.915999999999997  26.372 30.819999999999993  L 26.292 30.819999999999993  Z " stroke-width="0" stroke-dasharray="0" stroke="rgba(255, 255, 255, 0)" fill="none" class="stroke" mask="url(#Clip6917)" />
    <path d="M 38.966 25.4  C 38.966 23.380000000000003  37.292 21.708000000000002  35.274 21.708  L 35.274 21.712  C 33.294000000000004 21.712  31.625999999999998 23.38  31.625999999999998 25.402  C 31.625999999999998 27.421999999999997  33.294000000000004 29.048000000000002  35.274 29.048000000000002  C 37.294000000000004 29.048000000000002  38.966 27.42  38.966 25.4  Z " stroke-width="0" stroke-dasharray="0" stroke="rgba(255, 255, 255, 0)" fill="none" class="stroke" mask="url(#Clip6917)" />
    <path d="M 48 24  C 48 10.746000000000002  37.254 0  24 0  C 10.746 0  0 10.746  0 24  C 0 37.254  10.746 48  24 48  C 37.254 48  48 37.254  48 24  Z " stroke-width="0" stroke-dasharray="0" stroke="rgba(255, 255, 255, 0)" fill="none" class="stroke" mask="url(#Clip6917)" />
    <path d="M 44.67 24  C 44.67 35.416  35.416000000000004 44.67  24 44.67  C 12.585999999999999 44.67  3.33 35.416  3.33 24  C 3.33 12.585999999999999  12.585999999999999 3.33  24 3.33  C 35.416 3.33  44.67 12.585999999999999  44.67 24  Z " stroke-width="0" stroke-dasharray="0" stroke="rgba(255, 255, 255, 0)" fill="none" class="stroke" mask="url(#Clip6917)" />
  </g>
</svg>