<?xml version="1.0" encoding="utf-8"?>
<svg version="1.1" xmlns:xlink="http://www.w3.org/1999/xlink" width="2px" height="24px" xmlns="http://www.w3.org/2000/svg">
  <defs>
    <pattern id="BGPattern" patternUnits="userSpaceOnUse" alignment="0 0" imageRepeat="None" />
    <mask fill="white" id="Clip6541">
      <path d="M 1.75 23.25  C 1.75 23.664213562373096  1.4142135623730958 24  1 24  C 0.5857864376269042 24  0.25 23.664213562373096  0.25 23.25  L 0.25 0.75  C 0.25 0.3357864376269049  0.5857864376269042 0  1 0  C 1.4142135623730958 0  1.75 0.3357864376269049  1.75 0.75  L 1.75 23.25  Z " fill-rule="evenodd" />
    </mask>
  </defs>
  <g transform="matrix(1 0 0 1 -8 0 )">
    <path d="M 1.75 23.25  C 1.75 23.664213562373096  1.4142135623730958 24  1 24  C 0.5857864376269042 24  0.25 23.664213562373096  0.25 23.25  L 0.25 0.75  C 0.25 0.3357864376269049  0.5857864376269042 0  1 0  C 1.4142135623730958 0  1.75 0.3357864376269049  1.75 0.75  L 1.75 23.25  Z " fill-rule="nonzero" fill="rgba(0, 0, 0, 1)" stroke="none" transform="matrix(1 0 0 1 8 0 )" class="fill" />
    <path d="M 1.75 23.25  C 1.75 23.664213562373096  1.4142135623730958 24  1 24  C 0.5857864376269042 24  0.25 23.664213562373096  0.25 23.25  L 0.25 0.75  C 0.25 0.3357864376269049  0.5857864376269042 0  1 0  C 1.4142135623730958 0  1.75 0.3357864376269049  1.75 0.75  L 1.75 23.25  Z " stroke-width="0" stroke-dasharray="0" stroke="rgba(255, 255, 255, 0)" fill="none" transform="matrix(1 0 0 1 8 0 )" class="stroke" mask="url(#Clip6541)" />
  </g>
</svg>