<?xml version="1.0" encoding="utf-8"?>
<svg version="1.1" xmlns:xlink="http://www.w3.org/1999/xlink" width="11px" height="10px" xmlns="http://www.w3.org/2000/svg">
  <defs>
    <pattern id="BGPattern" patternUnits="userSpaceOnUse" alignment="0 0" imageRepeat="None" />
    <mask fill="white" id="Clip6439">
      <path d="M 9.624 2  C 9.858 1.4644999999999992  10.152000000000001 0.9619999999999997  10.5 0.5  L 4.5 0.5  C 2.0147186257614296 0.5  0 2.5147186257614287  0 5  C 0 7.4852813742385695  2.0147186257614296 9.5  4.5 9.5  L 10.500000000000002 9.5  C 10.150831604807319 9.03565414710484  9.856856448336014 8.53227202985946  9.624 8  L 4.5 8  C 2.8431457505076194 8  1.5 6.65685424949238  1.5 5  C 1.5 3.3431457505076203  2.8431457505076194 2  4.5 2  L 9.624 2  Z " fill-rule="evenodd" />
    </mask>
  </defs>
  <g transform="matrix(1 0 0 1 0 -3 )">
    <path d="M 9.624 2  C 9.858 1.4644999999999992  10.152000000000001 0.9619999999999997  10.5 0.5  L 4.5 0.5  C 2.0147186257614296 0.5  0 2.5147186257614287  0 5  C 0 7.4852813742385695  2.0147186257614296 9.5  4.5 9.5  L 10.500000000000002 9.5  C 10.150831604807319 9.03565414710484  9.856856448336014 8.53227202985946  9.624 8  L 4.5 8  C 2.8431457505076194 8  1.5 6.65685424949238  1.5 5  C 1.5 3.3431457505076203  2.8431457505076194 2  4.5 2  L 9.624 2  Z " fill-rule="nonzero" fill="rgba(0, 0, 0, 1)" stroke="none" transform="matrix(1 0 0 1 0 3 )" class="fill" />
    <path d="M 9.624 2  C 9.858 1.4644999999999992  10.152000000000001 0.9619999999999997  10.5 0.5  L 4.5 0.5  C 2.0147186257614296 0.5  0 2.5147186257614287  0 5  C 0 7.4852813742385695  2.0147186257614296 9.5  4.5 9.5  L 10.500000000000002 9.5  C 10.150831604807319 9.03565414710484  9.856856448336014 8.53227202985946  9.624 8  L 4.5 8  C 2.8431457505076194 8  1.5 6.65685424949238  1.5 5  C 1.5 3.3431457505076203  2.8431457505076194 2  4.5 2  L 9.624 2  Z " stroke-width="0" stroke-dasharray="0" stroke="rgba(255, 255, 255, 0)" fill="none" transform="matrix(1 0 0 1 0 3 )" class="stroke" mask="url(#Clip6439)" />
  </g>
</svg>