<?xml version="1.0" encoding="utf-8"?>
<svg version="1.1" xmlns:xlink="http://www.w3.org/1999/xlink" width="48px" height="48px" xmlns="http://www.w3.org/2000/svg">
  <defs>
    <pattern id="BGPattern" patternUnits="userSpaceOnUse" alignment="0 0" imageRepeat="None" />
    <mask fill="white" id="Clip7280">
      <path d="M 48 24  C 48 10.745166004060957  37.254833995939045 0  24 0  C 10.745166004060957 0  0 10.745166004060957  0 24  C 0 37.254833995939045  10.745166004060957 48  24 48  C 37.254833995939045 48  48 37.254833995939045  48 24  Z M 24 44.918  L 24 44.92  C 20.23 44.92  17.172 42.4  17.172 39  L 30.828 39  C 30.828 42.398  27.772 44.918  24 44.918  Z M 35.28 33  L 35.28 37  L 12.72 37  L 12.72 33  L 35.28 33  Z M 35.19800000000001 31.232000000000006  L 35.2 31  L 12.782 31  C 12.707999999999998 31.144000000000002  12.632 31.058  12.559999999999999 30.97  C 11.047463892373127 29.304915125751  9.896576526484653 27.34432061309247  9.18 25.212  C 9.17 25.162  11.98 25.786  13.969999999999999 26.233999999999995  C 13.969999999999999 26.233999999999995  14.995999999999999 26.472  16.494 26.744  C 15.04086984241037 25.072125537300167  14.227992248548325 22.938941964915905  14.2 20.724  C 14.2 15.911999999999999  17.89 11.708  16.56 8.31  C 17.86 8.416  19.24 11.044  19.334 15.154  C 20.712 13.254000000000001  21.288 9.774000000000001  21.288 7.644  C 21.288 5.438000000000001  22.742 2.8740000000000006  24.195999999999998 2.7860000000000005  C 22.896 4.924  24.532 6.754000000000001  25.984 11.298000000000002  C 26.528000000000006 13.006  26.458000000000006 15.878000000000002  26.878 17.698  C 27.018 13.914000000000001  27.668 8.398  30.068000000000005 6.4879999999999995  C 29.009999999999998 8.888  30.226000000000006 11.888  31.056000000000004 13.335999999999999  C 32.51441172067632 15.53612266853742  33.26658613589885 18.12896137629896  33.212 20.768  C 33.204333076188405 22.96509853321204  32.41770813088741 25.088277214402833  30.992000000000004 26.759999999999998  C 32.57600000000001 26.46  33.672000000000004 26.194000000000003  33.672000000000004 26.194000000000003  L 38.818000000000005 25.194000000000003  C 38.12161022520607 27.471682241268446  36.8788561732894 29.544541071509563  35.19800000000001 31.232000000000006  Z " fill-rule="evenodd" />
    </mask>
  </defs>
  <g>
    <path d="M 48 24  C 48 10.745166004060957  37.254833995939045 0  24 0  C 10.745166004060957 0  0 10.745166004060957  0 24  C 0 37.254833995939045  10.745166004060957 48  24 48  C 37.254833995939045 48  48 37.254833995939045  48 24  Z M 24 44.918  L 24 44.92  C 20.23 44.92  17.172 42.4  17.172 39  L 30.828 39  C 30.828 42.398  27.772 44.918  24 44.918  Z M 35.28 33  L 35.28 37  L 12.72 37  L 12.72 33  L 35.28 33  Z M 35.19800000000001 31.232000000000006  L 35.2 31  L 12.782 31  C 12.707999999999998 31.144000000000002  12.632 31.058  12.559999999999999 30.97  C 11.047463892373127 29.304915125751  9.896576526484653 27.34432061309247  9.18 25.212  C 9.17 25.162  11.98 25.786  13.969999999999999 26.233999999999995  C 13.969999999999999 26.233999999999995  14.995999999999999 26.472  16.494 26.744  C 15.04086984241037 25.072125537300167  14.227992248548325 22.938941964915905  14.2 20.724  C 14.2 15.911999999999999  17.89 11.708  16.56 8.31  C 17.86 8.416  19.24 11.044  19.334 15.154  C 20.712 13.254000000000001  21.288 9.774000000000001  21.288 7.644  C 21.288 5.438000000000001  22.742 2.8740000000000006  24.195999999999998 2.7860000000000005  C 22.896 4.924  24.532 6.754000000000001  25.984 11.298000000000002  C 26.528000000000006 13.006  26.458000000000006 15.878000000000002  26.878 17.698  C 27.018 13.914000000000001  27.668 8.398  30.068000000000005 6.4879999999999995  C 29.009999999999998 8.888  30.226000000000006 11.888  31.056000000000004 13.335999999999999  C 32.51441172067632 15.53612266853742  33.26658613589885 18.12896137629896  33.212 20.768  C 33.204333076188405 22.96509853321204  32.41770813088741 25.088277214402833  30.992000000000004 26.759999999999998  C 32.57600000000001 26.46  33.672000000000004 26.194000000000003  33.672000000000004 26.194000000000003  L 38.818000000000005 25.194000000000003  C 38.12161022520607 27.471682241268446  36.8788561732894 29.544541071509563  35.19800000000001 31.232000000000006  Z " fill-rule="nonzero" fill="rgba(230, 82, 44, 1)" stroke="none" class="fill" />
    <path d="M 48 24  C 48 10.745166004060957  37.254833995939045 0  24 0  C 10.745166004060957 0  0 10.745166004060957  0 24  C 0 37.254833995939045  10.745166004060957 48  24 48  C 37.254833995939045 48  48 37.254833995939045  48 24  Z " stroke-width="0" stroke-dasharray="0" stroke="rgba(255, 255, 255, 0)" fill="none" class="stroke" mask="url(#Clip7280)" />
    <path d="M 24 44.918  L 24 44.92  C 20.23 44.92  17.172 42.4  17.172 39  L 30.828 39  C 30.828 42.398  27.772 44.918  24 44.918  Z " stroke-width="0" stroke-dasharray="0" stroke="rgba(255, 255, 255, 0)" fill="none" class="stroke" mask="url(#Clip7280)" />
    <path d="M 35.28 33  L 35.28 37  L 12.72 37  L 12.72 33  L 35.28 33  Z " stroke-width="0" stroke-dasharray="0" stroke="rgba(255, 255, 255, 0)" fill="none" class="stroke" mask="url(#Clip7280)" />
    <path d="M 35.19800000000001 31.232000000000006  L 35.2 31  L 12.782 31  C 12.707999999999998 31.144000000000002  12.632 31.058  12.559999999999999 30.97  C 11.047463892373127 29.304915125751  9.896576526484653 27.34432061309247  9.18 25.212  C 9.17 25.162  11.98 25.786  13.969999999999999 26.233999999999995  C 13.969999999999999 26.233999999999995  14.995999999999999 26.472  16.494 26.744  C 15.04086984241037 25.072125537300167  14.227992248548325 22.938941964915905  14.2 20.724  C 14.2 15.911999999999999  17.89 11.708  16.56 8.31  C 17.86 8.416  19.24 11.044  19.334 15.154  C 20.712 13.254000000000001  21.288 9.774000000000001  21.288 7.644  C 21.288 5.438000000000001  22.742 2.8740000000000006  24.195999999999998 2.7860000000000005  C 22.896 4.924  24.532 6.754000000000001  25.984 11.298000000000002  C 26.528000000000006 13.006  26.458000000000006 15.878000000000002  26.878 17.698  C 27.018 13.914000000000001  27.668 8.398  30.068000000000005 6.4879999999999995  C 29.009999999999998 8.888  30.226000000000006 11.888  31.056000000000004 13.335999999999999  C 32.51441172067632 15.53612266853742  33.26658613589885 18.12896137629896  33.212 20.768  C 33.204333076188405 22.96509853321204  32.41770813088741 25.088277214402833  30.992000000000004 26.759999999999998  C 32.57600000000001 26.46  33.672000000000004 26.194000000000003  33.672000000000004 26.194000000000003  L 38.818000000000005 25.194000000000003  C 38.12161022520607 27.471682241268446  36.8788561732894 29.544541071509563  35.19800000000001 31.232000000000006  Z " stroke-width="0" stroke-dasharray="0" stroke="rgba(255, 255, 255, 0)" fill="none" class="stroke" mask="url(#Clip7280)" />
  </g>
</svg>