<?xml version="1.0" encoding="utf-8"?>
<svg version="1.1" xmlns:xlink="http://www.w3.org/1999/xlink" width="25px" height="25px" xmlns="http://www.w3.org/2000/svg">
  <defs>
    <pattern id="BGPattern" patternUnits="userSpaceOnUse" alignment="0 0" imageRepeat="None" />
    <mask fill="white" id="Clip3985">
      <path d="M 12 2.1622000000000003  C 15.2041 2.1622000000000003  15.5837 2.1744000000000003  16.849 2.2322000000000015  C 17.6099535264616 2.2412585943423258  18.363690307325612 2.3810261471193357  19.077300000000005 2.6454000000000004  C 20.123763541788446 3.0491939601866536  20.950906039813354 3.8763364582115596  21.354700000000005 4.922800000000002  C 21.619073852880668 5.636409692674389  21.75884140565768 6.390146473538403  21.7679 7.1511  C 21.8256 8.4164  21.8379 8.796  21.8379 12.0001  C 21.8379 15.2042  21.8257 15.5838  21.767900000000004 16.849100000000004  C 21.75884140565768 17.61005352646161  21.61907385288067 18.363790307325612  21.354700000000005 19.077400000000004  C 20.95090603981335 20.12386354178845  20.12376354178845 20.95100603981335  19.0773 21.354800000000004  C 18.363690307325616 21.619173852880667  17.6099535264616 21.75894140565768  16.849 21.768  C 15.5838 21.8257  15.2044 21.838  12 21.838  C 8.7956 21.838  8.4162 21.8258  7.151000000000002 21.768000000000004  C 6.390046473538403 21.75894140565768  5.636309692674388 21.619173852880667  4.922700000000001 21.354800000000004  C 3.8762364582115563 20.95100603981335  3.049093960186652 20.123863541788445  2.6453000000000007 19.077400000000004  C 2.3809261471193324 18.363790307325612  2.241158594342325 17.61005352646161  2.232099999999999 16.8491  C 2.1743999999999994 15.5838  2.162099999999999 15.2042  2.162099999999999 12.0001  C 2.162099999999999 8.796  2.174299999999999 8.4164  2.2321 7.151100000000001  C 2.241158594342325 6.3901464735383975  2.3809261471193324 5.636409692674395  2.6452999999999998 4.922799999999999  C 3.0490705002738236 3.876298534656793  3.8762162647266267 3.0491164504637416  4.922700000000001 2.6453000000000007  C 5.63630969267439 2.380926147119335  6.390046473538401 2.241158594342326  7.151 2.2321  C 8.4163 2.1744000000000003  8.7959 2.1620999999999997  12 2.1620999999999997  Z M 16.9471 0.07270000000000021  C 15.6677 0.013799999999999812  15.259 0  12 0  C 8.741 0  8.3323 0.013799999999999812  7.052399999999999 0.0721999999999996  C 6.057050392198802 0.09218310310391153  5.0722940266732035 0.2807894417559442  4.139999999999999 0.6299999999999999  C 2.527868556378727 1.2534319428233864  1.2534319428233864 2.527868556378727  0.6300000000000008 4.140000000000001  C 0.28073396950569673 5.072451853204038  0.09212673262660953 6.057381972072973  0.0721999999999996 7.052900000000001  C 0.013799999999999812 8.3323  0 8.741  0 12  C 0 15.259  0.013799999999999812 15.6677  0.0721999999999996 16.947599999999998  C 0.09213829793761352 17.94311681363473  0.280745165235988 18.92804500250786  0.6299999999999999 19.8605  C 1.2534319428233847 21.472631443621268  2.527868556378727 22.747068057176616  4.140000000000001 23.3705  C 5.072451853204038 23.719766030494302  6.057381972072973 23.908373267373392  7.052900000000001 23.9283  C 8.3323 23.9862  8.741 24  12 24  C 15.259 24  15.6677 23.9862  16.947599999999998 23.927799999999998  C 17.94311681363473 23.907861702062387  18.928045002507865 23.719254834764012  19.8605 23.37  C 21.472631443621275 22.746568057176614  22.747068057176616 21.47213144362127  23.370499999999996 19.859999999999996  C 23.71975483476401 18.927545002507863  23.908361702062383 17.94261681363473  23.9283 16.9471  C 23.9862 15.6677  24 15.259  24 12  C 24 8.741  23.9862 8.3323  23.927800000000005 7.052399999999999  C 23.90781689689609 6.057050392198802  23.71921055824406 5.0722940266732035  23.37 4.139999999999999  C 22.746451011578923 2.5280581509684223  21.472030663643213 1.2538193443928192  19.859999999999996 0.6305000000000005  C 18.927545002507863 0.28124516523598864  17.942616813634725 0.09263829793761325  16.9471 0.07270000000000021  Z " fill-rule="evenodd" />
    </mask>
  </defs>
  <g transform="matrix(1 0 0 1 -4 -4 )">
    <path d="M 12 2.1622000000000003  C 15.2041 2.1622000000000003  15.5837 2.1744000000000003  16.849 2.2322000000000015  C 17.6099535264616 2.2412585943423258  18.363690307325612 2.3810261471193357  19.077300000000005 2.6454000000000004  C 20.123763541788446 3.0491939601866536  20.950906039813354 3.8763364582115596  21.354700000000005 4.922800000000002  C 21.619073852880668 5.636409692674389  21.75884140565768 6.390146473538403  21.7679 7.1511  C 21.8256 8.4164  21.8379 8.796  21.8379 12.0001  C 21.8379 15.2042  21.8257 15.5838  21.767900000000004 16.849100000000004  C 21.75884140565768 17.61005352646161  21.61907385288067 18.363790307325612  21.354700000000005 19.077400000000004  C 20.95090603981335 20.12386354178845  20.12376354178845 20.95100603981335  19.0773 21.354800000000004  C 18.363690307325616 21.619173852880667  17.6099535264616 21.75894140565768  16.849 21.768  C 15.5838 21.8257  15.2044 21.838  12 21.838  C 8.7956 21.838  8.4162 21.8258  7.151000000000002 21.768000000000004  C 6.390046473538403 21.75894140565768  5.636309692674388 21.619173852880667  4.922700000000001 21.354800000000004  C 3.8762364582115563 20.95100603981335  3.049093960186652 20.123863541788445  2.6453000000000007 19.077400000000004  C 2.3809261471193324 18.363790307325612  2.241158594342325 17.61005352646161  2.232099999999999 16.8491  C 2.1743999999999994 15.5838  2.162099999999999 15.2042  2.162099999999999 12.0001  C 2.162099999999999 8.796  2.174299999999999 8.4164  2.2321 7.151100000000001  C 2.241158594342325 6.3901464735383975  2.3809261471193324 5.636409692674395  2.6452999999999998 4.922799999999999  C 3.0490705002738236 3.876298534656793  3.8762162647266267 3.0491164504637416  4.922700000000001 2.6453000000000007  C 5.63630969267439 2.380926147119335  6.390046473538401 2.241158594342326  7.151 2.2321  C 8.4163 2.1744000000000003  8.7959 2.1620999999999997  12 2.1620999999999997  Z M 16.9471 0.07270000000000021  C 15.6677 0.013799999999999812  15.259 0  12 0  C 8.741 0  8.3323 0.013799999999999812  7.052399999999999 0.0721999999999996  C 6.057050392198802 0.09218310310391153  5.0722940266732035 0.2807894417559442  4.139999999999999 0.6299999999999999  C 2.527868556378727 1.2534319428233864  1.2534319428233864 2.527868556378727  0.6300000000000008 4.140000000000001  C 0.28073396950569673 5.072451853204038  0.09212673262660953 6.057381972072973  0.0721999999999996 7.052900000000001  C 0.013799999999999812 8.3323  0 8.741  0 12  C 0 15.259  0.013799999999999812 15.6677  0.0721999999999996 16.947599999999998  C 0.09213829793761352 17.94311681363473  0.280745165235988 18.92804500250786  0.6299999999999999 19.8605  C 1.2534319428233847 21.472631443621268  2.527868556378727 22.747068057176616  4.140000000000001 23.3705  C 5.072451853204038 23.719766030494302  6.057381972072973 23.908373267373392  7.052900000000001 23.9283  C 8.3323 23.9862  8.741 24  12 24  C 15.259 24  15.6677 23.9862  16.947599999999998 23.927799999999998  C 17.94311681363473 23.907861702062387  18.928045002507865 23.719254834764012  19.8605 23.37  C 21.472631443621275 22.746568057176614  22.747068057176616 21.47213144362127  23.370499999999996 19.859999999999996  C 23.71975483476401 18.927545002507863  23.908361702062383 17.94261681363473  23.9283 16.9471  C 23.9862 15.6677  24 15.259  24 12  C 24 8.741  23.9862 8.3323  23.927800000000005 7.052399999999999  C 23.90781689689609 6.057050392198802  23.71921055824406 5.0722940266732035  23.37 4.139999999999999  C 22.746451011578923 2.5280581509684223  21.472030663643213 1.2538193443928192  19.859999999999996 0.6305000000000005  C 18.927545002507863 0.28124516523598864  17.942616813634725 0.09263829793761325  16.9471 0.07270000000000021  Z " fill-rule="nonzero" fill="rgba(0, 0, 0, 1)" stroke="none" transform="matrix(1 0 0 1 4 4 )" class="fill" />
    <path d="M 12 2.1622000000000003  C 15.2041 2.1622000000000003  15.5837 2.1744000000000003  16.849 2.2322000000000015  C 17.6099535264616 2.2412585943423258  18.363690307325612 2.3810261471193357  19.077300000000005 2.6454000000000004  C 20.123763541788446 3.0491939601866536  20.950906039813354 3.8763364582115596  21.354700000000005 4.922800000000002  C 21.619073852880668 5.636409692674389  21.75884140565768 6.390146473538403  21.7679 7.1511  C 21.8256 8.4164  21.8379 8.796  21.8379 12.0001  C 21.8379 15.2042  21.8257 15.5838  21.767900000000004 16.849100000000004  C 21.75884140565768 17.61005352646161  21.61907385288067 18.363790307325612  21.354700000000005 19.077400000000004  C 20.95090603981335 20.12386354178845  20.12376354178845 20.95100603981335  19.0773 21.354800000000004  C 18.363690307325616 21.619173852880667  17.6099535264616 21.75894140565768  16.849 21.768  C 15.5838 21.8257  15.2044 21.838  12 21.838  C 8.7956 21.838  8.4162 21.8258  7.151000000000002 21.768000000000004  C 6.390046473538403 21.75894140565768  5.636309692674388 21.619173852880667  4.922700000000001 21.354800000000004  C 3.8762364582115563 20.95100603981335  3.049093960186652 20.123863541788445  2.6453000000000007 19.077400000000004  C 2.3809261471193324 18.363790307325612  2.241158594342325 17.61005352646161  2.232099999999999 16.8491  C 2.1743999999999994 15.5838  2.162099999999999 15.2042  2.162099999999999 12.0001  C 2.162099999999999 8.796  2.174299999999999 8.4164  2.2321 7.151100000000001  C 2.241158594342325 6.3901464735383975  2.3809261471193324 5.636409692674395  2.6452999999999998 4.922799999999999  C 3.0490705002738236 3.876298534656793  3.8762162647266267 3.0491164504637416  4.922700000000001 2.6453000000000007  C 5.63630969267439 2.380926147119335  6.390046473538401 2.241158594342326  7.151 2.2321  C 8.4163 2.1744000000000003  8.7959 2.1620999999999997  12 2.1620999999999997  Z " stroke-width="0" stroke-dasharray="0" stroke="rgba(255, 255, 255, 0)" fill="none" transform="matrix(1 0 0 1 4 4 )" class="stroke" mask="url(#Clip3985)" />
    <path d="M 16.9471 0.07270000000000021  C 15.6677 0.013799999999999812  15.259 0  12 0  C 8.741 0  8.3323 0.013799999999999812  7.052399999999999 0.0721999999999996  C 6.057050392198802 0.09218310310391153  5.0722940266732035 0.2807894417559442  4.139999999999999 0.6299999999999999  C 2.527868556378727 1.2534319428233864  1.2534319428233864 2.527868556378727  0.6300000000000008 4.140000000000001  C 0.28073396950569673 5.072451853204038  0.09212673262660953 6.057381972072973  0.0721999999999996 7.052900000000001  C 0.013799999999999812 8.3323  0 8.741  0 12  C 0 15.259  0.013799999999999812 15.6677  0.0721999999999996 16.947599999999998  C 0.09213829793761352 17.94311681363473  0.280745165235988 18.92804500250786  0.6299999999999999 19.8605  C 1.2534319428233847 21.472631443621268  2.527868556378727 22.747068057176616  4.140000000000001 23.3705  C 5.072451853204038 23.719766030494302  6.057381972072973 23.908373267373392  7.052900000000001 23.9283  C 8.3323 23.9862  8.741 24  12 24  C 15.259 24  15.6677 23.9862  16.947599999999998 23.927799999999998  C 17.94311681363473 23.907861702062387  18.928045002507865 23.719254834764012  19.8605 23.37  C 21.472631443621275 22.746568057176614  22.747068057176616 21.47213144362127  23.370499999999996 19.859999999999996  C 23.71975483476401 18.927545002507863  23.908361702062383 17.94261681363473  23.9283 16.9471  C 23.9862 15.6677  24 15.259  24 12  C 24 8.741  23.9862 8.3323  23.927800000000005 7.052399999999999  C 23.90781689689609 6.057050392198802  23.71921055824406 5.0722940266732035  23.37 4.139999999999999  C 22.746451011578923 2.5280581509684223  21.472030663643213 1.2538193443928192  19.859999999999996 0.6305000000000005  C 18.927545002507863 0.28124516523598864  17.942616813634725 0.09263829793761325  16.9471 0.07270000000000021  Z " stroke-width="0" stroke-dasharray="0" stroke="rgba(255, 255, 255, 0)" fill="none" transform="matrix(1 0 0 1 4 4 )" class="stroke" mask="url(#Clip3985)" />
  </g>
</svg>