<?xml version="1.0" encoding="utf-8"?>
<svg version="1.1" xmlns:xlink="http://www.w3.org/1999/xlink" width="22px" height="22px" xmlns="http://www.w3.org/2000/svg">
  <defs>
    <pattern id="BGPattern" patternUnits="userSpaceOnUse" alignment="0 0" imageRepeat="None" />
    <mask fill="white" id="Clip3716">
      <path d="M 6.41 22  L 21.41 7  C 21.78555408606018 6.624863485715464  21.996573312831543 6.115818496198135  21.996573312831543 5.585  C 21.996573312831543 5.054181503801864  21.78555408606018 4.545136514284536  21.41 4.17  L 17.83 0.5899999999999999  C 17.45486348571546 0.21444591393981938  16.945818496198136 0.0034266871684582867  16.415 0.0034266871684582867  C 15.884181503801866 0.0034266871684582867  15.375136514284534 0.21444591393982027  14.999999999999998 0.5899999999999999  L 0 15.59  L 0 22  L 6.41 22  Z M 13.409999999999998 5  L 16.41 2  L 20 5.59  L 17 8.59  L 13.409999999999998 5  Z M 5.59 20  L 2 20  L 2 16.41  L 12 6.41  L 15.59 10  L 5.59 20  Z " fill-rule="evenodd" />
    </mask>
  </defs>
  <g transform="matrix(1 0 0 1 -4 -2 )">
    <path d="M 6.41 22  L 21.41 7  C 21.78555408606018 6.624863485715464  21.996573312831543 6.115818496198135  21.996573312831543 5.585  C 21.996573312831543 5.054181503801864  21.78555408606018 4.545136514284536  21.41 4.17  L 17.83 0.5899999999999999  C 17.45486348571546 0.21444591393981938  16.945818496198136 0.0034266871684582867  16.415 0.0034266871684582867  C 15.884181503801866 0.0034266871684582867  15.375136514284534 0.21444591393982027  14.999999999999998 0.5899999999999999  L 0 15.59  L 0 22  L 6.41 22  Z M 13.409999999999998 5  L 16.41 2  L 20 5.59  L 17 8.59  L 13.409999999999998 5  Z M 5.59 20  L 2 20  L 2 16.41  L 12 6.41  L 15.59 10  L 5.59 20  Z " fill-rule="nonzero" fill="rgba(0, 0, 0, 1)" stroke="none" transform="matrix(1 0 0 1 4 2 )" class="fill" />
    <path d="M 6.41 22  L 21.41 7  C 21.78555408606018 6.624863485715464  21.996573312831543 6.115818496198135  21.996573312831543 5.585  C 21.996573312831543 5.054181503801864  21.78555408606018 4.545136514284536  21.41 4.17  L 17.83 0.5899999999999999  C 17.45486348571546 0.21444591393981938  16.945818496198136 0.0034266871684582867  16.415 0.0034266871684582867  C 15.884181503801866 0.0034266871684582867  15.375136514284534 0.21444591393982027  14.999999999999998 0.5899999999999999  L 0 15.59  L 0 22  L 6.41 22  Z " stroke-width="0" stroke-dasharray="0" stroke="rgba(255, 255, 255, 0)" fill="none" transform="matrix(1 0 0 1 4 2 )" class="stroke" mask="url(#Clip3716)" />
    <path d="M 13.409999999999998 5  L 16.41 2  L 20 5.59  L 17 8.59  L 13.409999999999998 5  Z " stroke-width="0" stroke-dasharray="0" stroke="rgba(255, 255, 255, 0)" fill="none" transform="matrix(1 0 0 1 4 2 )" class="stroke" mask="url(#Clip3716)" />
    <path d="M 5.59 20  L 2 20  L 2 16.41  L 12 6.41  L 15.59 10  L 5.59 20  Z " stroke-width="0" stroke-dasharray="0" stroke="rgba(255, 255, 255, 0)" fill="none" transform="matrix(1 0 0 1 4 2 )" class="stroke" mask="url(#Clip3716)" />
  </g>
</svg>