<?xml version="1.0" encoding="utf-8"?>
<svg version="1.1" xmlns:xlink="http://www.w3.org/1999/xlink" width="26px" height="39px" xmlns="http://www.w3.org/2000/svg">
  <defs>
    <pattern id="BGPattern" patternUnits="userSpaceOnUse" alignment="0 0" imageRepeat="None" />
    <mask fill="white" id="Clip3004">
      <path d="M 0 20.5  C 0 20.775  0.22500000000000142 21  0.5 21  L 12 21  C 12.274999999999999 21  12.5 20.775  12.5 20.5  L 12.5 17.5  C 12.5 17.225  12.274999999999999 17  12 17  L 0.5 17  C 0.22500000000000142 17  0 17.225  0 17.5  L 0 20.5  Z M 0 3.5  C 0 3.7749999999999986  0.22500000000000142 4  0.5 4  L 12 4  C 12.274999999999999 4  12.5 3.7749999999999986  12.5 3.5  L 12.5 0.5  C 12.5 0.22499999999999964  12.274999999999999 0  12 0  L 0.5 0  C 0.22500000000000142 0  0 0.22499999999999964  0 0.5  L 0 3.5  Z M 20.999999999999993 36.25  C 20.999999999999993 37.63071187457698  22.11928812542301 38.75  23.499999999999993 38.75  C 24.880711874576974 38.75  25.999999999999993 37.63071187457698  25.999999999999993 36.25  C 25.999999999999993 34.86928812542302  24.880711874576974 33.75  23.499999999999993 33.75  C 22.11928812542301 33.75  20.999999999999993 34.86928812542302  20.999999999999993 36.25  Z " fill-rule="evenodd" />
    </mask>
  </defs>
  <g transform="matrix(1 0 0 1 -9 -9 )">
    <path d="M 0 20.5  C 0 20.775  0.22500000000000142 21  0.5 21  L 12 21  C 12.274999999999999 21  12.5 20.775  12.5 20.5  L 12.5 17.5  C 12.5 17.225  12.274999999999999 17  12 17  L 0.5 17  C 0.22500000000000142 17  0 17.225  0 17.5  L 0 20.5  Z M 0 3.5  C 0 3.7749999999999986  0.22500000000000142 4  0.5 4  L 12 4  C 12.274999999999999 4  12.5 3.7749999999999986  12.5 3.5  L 12.5 0.5  C 12.5 0.22499999999999964  12.274999999999999 0  12 0  L 0.5 0  C 0.22500000000000142 0  0 0.22499999999999964  0 0.5  L 0 3.5  Z M 20.999999999999993 36.25  C 20.999999999999993 37.63071187457698  22.11928812542301 38.75  23.499999999999993 38.75  C 24.880711874576974 38.75  25.999999999999993 37.63071187457698  25.999999999999993 36.25  C 25.999999999999993 34.86928812542302  24.880711874576974 33.75  23.499999999999993 33.75  C 22.11928812542301 33.75  20.999999999999993 34.86928812542302  20.999999999999993 36.25  Z " fill-rule="nonzero" fill="rgba(0, 0, 0, 1)" stroke="none" transform="matrix(1 0 0 1 9 9 )" class="fill" />
    <path d="M 0 20.5  C 0 20.775  0.22500000000000142 21  0.5 21  L 12 21  C 12.274999999999999 21  12.5 20.775  12.5 20.5  L 12.5 17.5  C 12.5 17.225  12.274999999999999 17  12 17  L 0.5 17  C 0.22500000000000142 17  0 17.225  0 17.5  L 0 20.5  Z " stroke-width="0" stroke-dasharray="0" stroke="rgba(255, 255, 255, 0)" fill="none" transform="matrix(1 0 0 1 9 9 )" class="stroke" mask="url(#Clip3004)" />
    <path d="M 0 3.5  C 0 3.7749999999999986  0.22500000000000142 4  0.5 4  L 12 4  C 12.274999999999999 4  12.5 3.7749999999999986  12.5 3.5  L 12.5 0.5  C 12.5 0.22499999999999964  12.274999999999999 0  12 0  L 0.5 0  C 0.22500000000000142 0  0 0.22499999999999964  0 0.5  L 0 3.5  Z " stroke-width="0" stroke-dasharray="0" stroke="rgba(255, 255, 255, 0)" fill="none" transform="matrix(1 0 0 1 9 9 )" class="stroke" mask="url(#Clip3004)" />
    <path d="M 20.999999999999993 36.25  C 20.999999999999993 37.63071187457698  22.11928812542301 38.75  23.499999999999993 38.75  C 24.880711874576974 38.75  25.999999999999993 37.63071187457698  25.999999999999993 36.25  C 25.999999999999993 34.86928812542302  24.880711874576974 33.75  23.499999999999993 33.75  C 22.11928812542301 33.75  20.999999999999993 34.86928812542302  20.999999999999993 36.25  Z " stroke-width="0" stroke-dasharray="0" stroke="rgba(255, 255, 255, 0)" fill="none" transform="matrix(1 0 0 1 9 9 )" class="stroke" mask="url(#Clip3004)" />
  </g>
</svg>