<?xml version="1.0" encoding="utf-8"?>
<svg version="1.1" xmlns:xlink="http://www.w3.org/1999/xlink" width="49px" height="40px" xmlns="http://www.w3.org/2000/svg">
  <defs>
    <pattern id="BGPattern" patternUnits="userSpaceOnUse" alignment="0 0" imageRepeat="None" />
    <mask fill="white" id="Clip6773">
      <path d="M 3.4999999999999982 7.18  C 3.639999999999998 8.54  5.8199999999999985 9.9  10.28 10.939999999999998  C 14.48 12  19.84 12.54  26.3 12.54  C 32.9 12.54  38.14 12  42.31999999999999 10.939999999999998  C 46.779999999999994 9.899999999999999  48.919999999999995 8.5  48.919999999999995 7.18  C 48.919999999999995 6.24  47.959999999999994 5.32  46.21999999999999 4.619999999999999  C 46.61999999999999 4.879999999999999  46.919999999999995 5.3199999999999985  46.919999999999995 5.799999999999999  C 46.919999999999995 7.139999999999999  44.89999999999999 8.239999999999998  40.839999999999996 9.159999999999998  C 37.08 9.979999999999999  32.279999999999994 10.559999999999999  26.439999999999998 10.559999999999999  C 20.799999999999997 10.559999999999999  15.78 9.979999999999999  12.159999999999998 9.2  C 8.259999999999998 8.239999999999998  6.219999999999999 7.199999999999999  6.219999999999999 5.84  C 6.219999999999999 5.279999999999999  6.479999999999998 4.800000000000001  7.259999999999999 4.24  C 4.8199999999999985 5.18  3.4999999999999982 5.98  3.4999999999999982 7.18  Z M 13.459999999999996 4.019999999999998  C 13.799999999999994 5.759999999999998  16.419999999999995 6.919999999999998  19.66 6.619999999999999  C 24.2 6.219999999999999  25.520000000000003 3.299999999999999  30.84 2.8199999999999994  C 33.46 2.619999999999999  35.12 3.1399999999999997  35.3 4.059999999999999  C 35.459999999999994 4.919999999999998  34.16 5.499999999999998  32.58 5.619999999999999  C 30.4 5.84  29.5 5.059999999999999  29.319999999999997 4.3199999999999985  C 27.7 4.499999999999998  27.44 5.179999999999998  27.52 5.659999999999998  C 27.7 6.579999999999998  29.660000000000004 7.499999999999998  33.019999999999996 7.179999999999998  C 36.81999999999999 6.879999999999997  38.099999999999994 5.379999999999997  37.779999999999994 3.879999999999998  C 37.379999999999995 1.9199999999999982  34.459999999999994 0.2799999999999976  29.21999999999999 0.7799999999999976  C 22.499999999999993 1.3799999999999972  22.539999999999992 4.499999999999998  17.959999999999994 4.879999999999997  C 16.079999999999995 5.059999999999997  15.039999999999992 4.619999999999997  14.859999999999992 3.8799999999999972  C 14.739999999999995 3.139999999999997  15.659999999999995 2.7799999999999976  16.739999999999995 2.6999999999999975  C 17.739999999999995 2.599999999999998  18.959999999999994 2.7799999999999976  19.539999999999996 3.099999999999998  C 19.959999999999997 2.879999999999998  20.099999999999994 2.6599999999999975  20.059999999999995 2.3999999999999977  C 19.859999999999996 1.6999999999999975  18.479999999999997 1.3999999999999977  16.739999999999995 1.5199999999999978  C 13.339999999999995 1.8199999999999976  13.339999999999995 3.339999999999998  13.459999999999996 4.019999999999998  Z M 49 11.22  C 48.14 12.420000000000002  46.12 13.48  42.5 14.3  C 38.3 15.280000000000001  32.94 15.920000000000002  26.48 15.920000000000002  C 19.880000000000003 15.920000000000002  14.5 15.240000000000002  10.32 14.32  C 6.560000000000001 13.36  4.5600000000000005 12.3  3.86 11.2  C 4.220000000000001 13.66  4.84 16.04  5.640000000000001 18.299999999999997  C 4.680000000000001 18.9  3.8200000000000003 19.639999999999997  3.0400000000000005 20.639999999999997  C 1.6116149194114884 22.38050033308882  0.8841579020358298 24.59139911138739  0.9999999999999999 26.839999999999996  C 1.1453475463382594 28.914889532998835  2.1808934856668474 30.82554471683045  3.84 32.08  C 5.58 33.44  7.46 33.839999999999996  9.6 33.44  C 10.42 33.3  11.34 32.879999999999995  12.18 32.599999999999994  C 10.42 32.599999999999994  8.94 32.03999999999999  7.46 30.859999999999992  C 5.836059906944672 29.731995436735723  4.756058236619762 27.97789876412748  4.48 26.019999999999996  C 4.08 24.139999999999993  4.48 22.39999999999999  5.54 20.859999999999992  C 5.78 20.55999999999999  6.04 20.299999999999994  6.319999999999999 20.059999999999995  C 6.92 21.519999999999992  7.5600000000000005 22.95999999999999  8.280000000000001 24.29999999999999  C 9.9 26.75999999999999  11.52 28.89999999999999  13.14 31.21999999999999  C 13.84 32.57999999999999  14.3 33.919999999999995  14.620000000000005 35.26  C 15.704271565325334 36.756836017526695  17.284849021517964 37.82000471003295  19.080000000000002 38.25999999999999  C 21.380000000000003 39.05999999999999  23.78 39.41999999999999  26.240000000000006 39.279999999999994  L 26.500000000000004 39.27999999999999  C 29.002991599331832 39.38945420842902  31.504733841001297 39.03690516624255  33.88 38.239999999999995  C 35.60254244691748 37.73612711887694  37.11720427623196 36.691290949581294  38.2 35.26  L 38.34 35.26  C 38.6 33.919999999999995  39.040000000000006 32.58  39.68000000000001 31.22  C 41.28000000000001 28.879999999999995  42.92000000000001 26.759999999999998  44.52000000000001 24.3  C 46.72563970517998 20.21741878530472  48.23948000602155 15.797545764097642  49 11.22  Z " fill-rule="evenodd" />
    </mask>
  </defs>
  <g>
    <path d="M 3.4999999999999982 7.18  C 3.639999999999998 8.54  5.8199999999999985 9.9  10.28 10.939999999999998  C 14.48 12  19.84 12.54  26.3 12.54  C 32.9 12.54  38.14 12  42.31999999999999 10.939999999999998  C 46.779999999999994 9.899999999999999  48.919999999999995 8.5  48.919999999999995 7.18  C 48.919999999999995 6.24  47.959999999999994 5.32  46.21999999999999 4.619999999999999  C 46.61999999999999 4.879999999999999  46.919999999999995 5.3199999999999985  46.919999999999995 5.799999999999999  C 46.919999999999995 7.139999999999999  44.89999999999999 8.239999999999998  40.839999999999996 9.159999999999998  C 37.08 9.979999999999999  32.279999999999994 10.559999999999999  26.439999999999998 10.559999999999999  C 20.799999999999997 10.559999999999999  15.78 9.979999999999999  12.159999999999998 9.2  C 8.259999999999998 8.239999999999998  6.219999999999999 7.199999999999999  6.219999999999999 5.84  C 6.219999999999999 5.279999999999999  6.479999999999998 4.800000000000001  7.259999999999999 4.24  C 4.8199999999999985 5.18  3.4999999999999982 5.98  3.4999999999999982 7.18  Z M 13.459999999999996 4.019999999999998  C 13.799999999999994 5.759999999999998  16.419999999999995 6.919999999999998  19.66 6.619999999999999  C 24.2 6.219999999999999  25.520000000000003 3.299999999999999  30.84 2.8199999999999994  C 33.46 2.619999999999999  35.12 3.1399999999999997  35.3 4.059999999999999  C 35.459999999999994 4.919999999999998  34.16 5.499999999999998  32.58 5.619999999999999  C 30.4 5.84  29.5 5.059999999999999  29.319999999999997 4.3199999999999985  C 27.7 4.499999999999998  27.44 5.179999999999998  27.52 5.659999999999998  C 27.7 6.579999999999998  29.660000000000004 7.499999999999998  33.019999999999996 7.179999999999998  C 36.81999999999999 6.879999999999997  38.099999999999994 5.379999999999997  37.779999999999994 3.879999999999998  C 37.379999999999995 1.9199999999999982  34.459999999999994 0.2799999999999976  29.21999999999999 0.7799999999999976  C 22.499999999999993 1.3799999999999972  22.539999999999992 4.499999999999998  17.959999999999994 4.879999999999997  C 16.079999999999995 5.059999999999997  15.039999999999992 4.619999999999997  14.859999999999992 3.8799999999999972  C 14.739999999999995 3.139999999999997  15.659999999999995 2.7799999999999976  16.739999999999995 2.6999999999999975  C 17.739999999999995 2.599999999999998  18.959999999999994 2.7799999999999976  19.539999999999996 3.099999999999998  C 19.959999999999997 2.879999999999998  20.099999999999994 2.6599999999999975  20.059999999999995 2.3999999999999977  C 19.859999999999996 1.6999999999999975  18.479999999999997 1.3999999999999977  16.739999999999995 1.5199999999999978  C 13.339999999999995 1.8199999999999976  13.339999999999995 3.339999999999998  13.459999999999996 4.019999999999998  Z M 49 11.22  C 48.14 12.420000000000002  46.12 13.48  42.5 14.3  C 38.3 15.280000000000001  32.94 15.920000000000002  26.48 15.920000000000002  C 19.880000000000003 15.920000000000002  14.5 15.240000000000002  10.32 14.32  C 6.560000000000001 13.36  4.5600000000000005 12.3  3.86 11.2  C 4.220000000000001 13.66  4.84 16.04  5.640000000000001 18.299999999999997  C 4.680000000000001 18.9  3.8200000000000003 19.639999999999997  3.0400000000000005 20.639999999999997  C 1.6116149194114884 22.38050033308882  0.8841579020358298 24.59139911138739  0.9999999999999999 26.839999999999996  C 1.1453475463382594 28.914889532998835  2.1808934856668474 30.82554471683045  3.84 32.08  C 5.58 33.44  7.46 33.839999999999996  9.6 33.44  C 10.42 33.3  11.34 32.879999999999995  12.18 32.599999999999994  C 10.42 32.599999999999994  8.94 32.03999999999999  7.46 30.859999999999992  C 5.836059906944672 29.731995436735723  4.756058236619762 27.97789876412748  4.48 26.019999999999996  C 4.08 24.139999999999993  4.48 22.39999999999999  5.54 20.859999999999992  C 5.78 20.55999999999999  6.04 20.299999999999994  6.319999999999999 20.059999999999995  C 6.92 21.519999999999992  7.5600000000000005 22.95999999999999  8.280000000000001 24.29999999999999  C 9.9 26.75999999999999  11.52 28.89999999999999  13.14 31.21999999999999  C 13.84 32.57999999999999  14.3 33.919999999999995  14.620000000000005 35.26  C 15.704271565325334 36.756836017526695  17.284849021517964 37.82000471003295  19.080000000000002 38.25999999999999  C 21.380000000000003 39.05999999999999  23.78 39.41999999999999  26.240000000000006 39.279999999999994  L 26.500000000000004 39.27999999999999  C 29.002991599331832 39.38945420842902  31.504733841001297 39.03690516624255  33.88 38.239999999999995  C 35.60254244691748 37.73612711887694  37.11720427623196 36.691290949581294  38.2 35.26  L 38.34 35.26  C 38.6 33.919999999999995  39.040000000000006 32.58  39.68000000000001 31.22  C 41.28000000000001 28.879999999999995  42.92000000000001 26.759999999999998  44.52000000000001 24.3  C 46.72563970517998 20.21741878530472  48.23948000602155 15.797545764097642  49 11.22  Z " fill-rule="nonzero" fill="rgba(47, 38, 37, 1)" stroke="none" class="fill" />
    <path d="M 3.4999999999999982 7.18  C 3.639999999999998 8.54  5.8199999999999985 9.9  10.28 10.939999999999998  C 14.48 12  19.84 12.54  26.3 12.54  C 32.9 12.54  38.14 12  42.31999999999999 10.939999999999998  C 46.779999999999994 9.899999999999999  48.919999999999995 8.5  48.919999999999995 7.18  C 48.919999999999995 6.24  47.959999999999994 5.32  46.21999999999999 4.619999999999999  C 46.61999999999999 4.879999999999999  46.919999999999995 5.3199999999999985  46.919999999999995 5.799999999999999  C 46.919999999999995 7.139999999999999  44.89999999999999 8.239999999999998  40.839999999999996 9.159999999999998  C 37.08 9.979999999999999  32.279999999999994 10.559999999999999  26.439999999999998 10.559999999999999  C 20.799999999999997 10.559999999999999  15.78 9.979999999999999  12.159999999999998 9.2  C 8.259999999999998 8.239999999999998  6.219999999999999 7.199999999999999  6.219999999999999 5.84  C 6.219999999999999 5.279999999999999  6.479999999999998 4.800000000000001  7.259999999999999 4.24  C 4.8199999999999985 5.18  3.4999999999999982 5.98  3.4999999999999982 7.18  Z " stroke-width="0" stroke-dasharray="0" stroke="rgba(255, 255, 255, 0)" fill="none" class="stroke" mask="url(#Clip6773)" />
    <path d="M 13.459999999999996 4.019999999999998  C 13.799999999999994 5.759999999999998  16.419999999999995 6.919999999999998  19.66 6.619999999999999  C 24.2 6.219999999999999  25.520000000000003 3.299999999999999  30.84 2.8199999999999994  C 33.46 2.619999999999999  35.12 3.1399999999999997  35.3 4.059999999999999  C 35.459999999999994 4.919999999999998  34.16 5.499999999999998  32.58 5.619999999999999  C 30.4 5.84  29.5 5.059999999999999  29.319999999999997 4.3199999999999985  C 27.7 4.499999999999998  27.44 5.179999999999998  27.52 5.659999999999998  C 27.7 6.579999999999998  29.660000000000004 7.499999999999998  33.019999999999996 7.179999999999998  C 36.81999999999999 6.879999999999997  38.099999999999994 5.379999999999997  37.779999999999994 3.879999999999998  C 37.379999999999995 1.9199999999999982  34.459999999999994 0.2799999999999976  29.21999999999999 0.7799999999999976  C 22.499999999999993 1.3799999999999972  22.539999999999992 4.499999999999998  17.959999999999994 4.879999999999997  C 16.079999999999995 5.059999999999997  15.039999999999992 4.619999999999997  14.859999999999992 3.8799999999999972  C 14.739999999999995 3.139999999999997  15.659999999999995 2.7799999999999976  16.739999999999995 2.6999999999999975  C 17.739999999999995 2.599999999999998  18.959999999999994 2.7799999999999976  19.539999999999996 3.099999999999998  C 19.959999999999997 2.879999999999998  20.099999999999994 2.6599999999999975  20.059999999999995 2.3999999999999977  C 19.859999999999996 1.6999999999999975  18.479999999999997 1.3999999999999977  16.739999999999995 1.5199999999999978  C 13.339999999999995 1.8199999999999976  13.339999999999995 3.339999999999998  13.459999999999996 4.019999999999998  Z " stroke-width="0" stroke-dasharray="0" stroke="rgba(255, 255, 255, 0)" fill="none" class="stroke" mask="url(#Clip6773)" />
    <path d="M 49 11.22  C 48.14 12.420000000000002  46.12 13.48  42.5 14.3  C 38.3 15.280000000000001  32.94 15.920000000000002  26.48 15.920000000000002  C 19.880000000000003 15.920000000000002  14.5 15.240000000000002  10.32 14.32  C 6.560000000000001 13.36  4.5600000000000005 12.3  3.86 11.2  C 4.220000000000001 13.66  4.84 16.04  5.640000000000001 18.299999999999997  C 4.680000000000001 18.9  3.8200000000000003 19.639999999999997  3.0400000000000005 20.639999999999997  C 1.6116149194114884 22.38050033308882  0.8841579020358298 24.59139911138739  0.9999999999999999 26.839999999999996  C 1.1453475463382594 28.914889532998835  2.1808934856668474 30.82554471683045  3.84 32.08  C 5.58 33.44  7.46 33.839999999999996  9.6 33.44  C 10.42 33.3  11.34 32.879999999999995  12.18 32.599999999999994  C 10.42 32.599999999999994  8.94 32.03999999999999  7.46 30.859999999999992  C 5.836059906944672 29.731995436735723  4.756058236619762 27.97789876412748  4.48 26.019999999999996  C 4.08 24.139999999999993  4.48 22.39999999999999  5.54 20.859999999999992  C 5.78 20.55999999999999  6.04 20.299999999999994  6.319999999999999 20.059999999999995  C 6.92 21.519999999999992  7.5600000000000005 22.95999999999999  8.280000000000001 24.29999999999999  C 9.9 26.75999999999999  11.52 28.89999999999999  13.14 31.21999999999999  C 13.84 32.57999999999999  14.3 33.919999999999995  14.620000000000005 35.26  C 15.704271565325334 36.756836017526695  17.284849021517964 37.82000471003295  19.080000000000002 38.25999999999999  C 21.380000000000003 39.05999999999999  23.78 39.41999999999999  26.240000000000006 39.279999999999994  L 26.500000000000004 39.27999999999999  C 29.002991599331832 39.38945420842902  31.504733841001297 39.03690516624255  33.88 38.239999999999995  C 35.60254244691748 37.73612711887694  37.11720427623196 36.691290949581294  38.2 35.26  L 38.34 35.26  C 38.6 33.919999999999995  39.040000000000006 32.58  39.68000000000001 31.22  C 41.28000000000001 28.879999999999995  42.92000000000001 26.759999999999998  44.52000000000001 24.3  C 46.72563970517998 20.21741878530472  48.23948000602155 15.797545764097642  49 11.22  Z " stroke-width="0" stroke-dasharray="0" stroke="rgba(255, 255, 255, 0)" fill="none" class="stroke" mask="url(#Clip6773)" />
  </g>
</svg>