<?xml version="1.0" encoding="utf-8"?>
<svg version="1.1" xmlns:xlink="http://www.w3.org/1999/xlink" width="24px" height="24px" xmlns="http://www.w3.org/2000/svg">
  <defs>
    <pattern id="BGPattern" patternUnits="userSpaceOnUse" alignment="0 0" imageRepeat="None" />
    <mask fill="white" id="Clip466">
      <path d="M 13.2 22  C 13.2 22.656  12.655999999999999 23.2  12 23.2  C 11.344 23.2  10.8 22.656  10.8 22  L 10.8 13.2  L 2 13.2  C 1.3440000000000003 13.2  0.7999999999999998 12.655999999999999  0.7999999999999998 12  C 0.7999999999999998 11.344000000000001  1.3439999999999994 10.8  2 10.8  L 10.8 10.8  L 10.8 2  C 10.8 1.3440000000000003  11.344000000000001 0.7999999999999998  12 0.7999999999999998  C 12.655999999999999 0.7999999999999998  13.2 1.3439999999999994  13.2 2  L 13.2 10.8  L 22 10.8  C 22.656 10.8  23.2 11.344000000000001  23.2 12  C 23.2 12.655999999999999  22.656 13.2  22 13.2  L 13.2 13.2  L 13.2 22  Z " fill-rule="evenodd" />
    </mask>
  </defs>
  <g>
    <path d="M 13.2 22  C 13.2 22.656  12.655999999999999 23.2  12 23.2  C 11.344 23.2  10.8 22.656  10.8 22  L 10.8 13.2  L 2 13.2  C 1.3440000000000003 13.2  0.7999999999999998 12.655999999999999  0.7999999999999998 12  C 0.7999999999999998 11.344000000000001  1.3439999999999994 10.8  2 10.8  L 10.8 10.8  L 10.8 2  C 10.8 1.3440000000000003  11.344000000000001 0.7999999999999998  12 0.7999999999999998  C 12.655999999999999 0.7999999999999998  13.2 1.3439999999999994  13.2 2  L 13.2 10.8  L 22 10.8  C 22.656 10.8  23.2 11.344000000000001  23.2 12  C 23.2 12.655999999999999  22.656 13.2  22 13.2  L 13.2 13.2  L 13.2 22  Z " fill-rule="nonzero" fill="rgba(0, 0, 0, 1)" stroke="none" class="fill" />
    <path d="M 13.2 22  C 13.2 22.656  12.655999999999999 23.2  12 23.2  C 11.344 23.2  10.8 22.656  10.8 22  L 10.8 13.2  L 2 13.2  C 1.3440000000000003 13.2  0.7999999999999998 12.655999999999999  0.7999999999999998 12  C 0.7999999999999998 11.344000000000001  1.3439999999999994 10.8  2 10.8  L 10.8 10.8  L 10.8 2  C 10.8 1.3440000000000003  11.344000000000001 0.7999999999999998  12 0.7999999999999998  C 12.655999999999999 0.7999999999999998  13.2 1.3439999999999994  13.2 2  L 13.2 10.8  L 22 10.8  C 22.656 10.8  23.2 11.344000000000001  23.2 12  C 23.2 12.655999999999999  22.656 13.2  22 13.2  L 13.2 13.2  L 13.2 22  Z " stroke-width="0" stroke-dasharray="0" stroke="rgba(255, 255, 255, 0)" fill="none" class="stroke" mask="url(#Clip466)" />
  </g>
</svg>