<?xml version="1.0" encoding="utf-8"?>
<svg version="1.1" xmlns:xlink="http://www.w3.org/1999/xlink" width="18px" height="9px" xmlns="http://www.w3.org/2000/svg">
  <defs>
    <pattern id="BGPattern" patternUnits="userSpaceOnUse" alignment="0 0" imageRepeat="None" />
    <mask fill="white" id="Clip5829">
      <path d="M 0 7.5  L 0 1.5  C 0 0.6715728752538102  0.6715728752538102 0  1.5 0  L 16.5 0  C 17.32842712474619 0  18 0.6715728752538102  18 1.5  L 18 7.5  C 18 8.32842712474619  17.32842712474619 9  16.5 9  L 1.5 9  C 0.6715728752538102 9  0 8.32842712474619  0 7.5  Z " fill-rule="evenodd" />
    </mask>
  </defs>
  <g transform="matrix(1 0 0 1 0 -3 )">
    <path d="M 0 7.5  L 0 1.5  C 0 0.6715728752538102  0.6715728752538102 0  1.5 0  L 16.5 0  C 17.32842712474619 0  18 0.6715728752538102  18 1.5  L 18 7.5  C 18 8.32842712474619  17.32842712474619 9  16.5 9  L 1.5 9  C 0.6715728752538102 9  0 8.32842712474619  0 7.5  Z " fill-rule="nonzero" fill="rgba(0, 0, 0, 1)" stroke="none" transform="matrix(1 0 0 1 0 3 )" class="fill" />
    <path d="M 0 7.5  L 0 1.5  C 0 0.6715728752538102  0.6715728752538102 0  1.5 0  L 16.5 0  C 17.32842712474619 0  18 0.6715728752538102  18 1.5  L 18 7.5  C 18 8.32842712474619  17.32842712474619 9  16.5 9  L 1.5 9  C 0.6715728752538102 9  0 8.32842712474619  0 7.5  Z " stroke-width="0" stroke-dasharray="0" stroke="rgba(255, 255, 255, 0)" fill="none" transform="matrix(1 0 0 1 0 3 )" class="stroke" mask="url(#Clip5829)" />
  </g>
</svg>