<?xml version="1.0" encoding="utf-8"?>
<svg version="1.1" xmlns:xlink="http://www.w3.org/1999/xlink" width="50px" height="50px" xmlns="http://www.w3.org/2000/svg">
  <defs>
    <pattern id="BGPattern" patternUnits="userSpaceOnUse" alignment="0 0" imageRepeat="None" />
    <mask fill="white" id="Clip1617">
      <path d="M 50 25  C 50 11.189516129032256  38.810483870967744 0  25 0  C 11.189516129032256 0  0 11.189516129032256  0 25  C 0 38.810483870967744  11.189516129032256 50  25 50  C 38.810483870967744 50  50 38.810483870967744  50 25  Z M 9.102822580645153 17.560483870967744  C 8.639112903225794 17.086693548387103  8.91129032258064 16.320564516129025  9.53629032258064 16.219758064516128  L 13.054435483870975 15.715725806451616  L 14.616935483870975 12.530241935483872  C 14.909274193548383 11.945564516129025  15.725806451612897 11.945564516129025  16.018145161290334 12.530241935483872  L 17.580645161290334 15.715725806451616  L 21.09879032258064 16.219758064516128  C 21.72379032258064 16.320564516129025  21.995967741935488 17.086693548387103  21.532258064516128 17.550403225806463  L 18.971774193548384 20.030241935483872  L 19.576612903225794 23.548387096774206  C 19.67741935483872 24.173387096774206  19.04233870967741 24.6572580645161  18.467741935483872 24.3447580645161  L 15.322580645161283 22.711693548387103  L 12.16733870967741 24.354838709677438  C 11.592741935483872 24.667338709677438  10.95766129032259 24.183467741935488  11.058467741935488 23.558467741935488  L 11.663306451612897 20.040322580645153  L 9.102822580645153 17.560483870967744  Z M 39.49596774193549 33.336693548387075  C 38.55846774193549 38.88104838709677  31.108870967741954 42.741935483870975  25 42.741935483870975  C 18.89112903225805 42.741935483870975  11.441532258064512 38.88104838709677  10.504032258064512 33.336693548387075  C 10.302419354838719 32.14717741935482  11.441532258064512 31.169354838709694  12.590725806451616 31.5322580645161  C 15.635080645161281 32.51008064516128  20.16129032258064 33.064516129032256  25 33.064516129032256  C 29.838709677419363 33.064516129032256  34.36491935483872 32.51008064516128  37.409274193548384 31.5322580645161  C 38.56854838709677 31.159274193548413  39.6875 32.147177419354875  39.49596774193549 33.336693548387075  Z M 40.45362903225805 16.22983870967741  C 41.08870967741936 16.320564516129025  41.360887096774206 17.086693548387103  40.89717741935482 17.550403225806463  L 38.3366935483871 20.030241935483872  L 38.94153225806451 23.548387096774206  C 39.04233870967744 24.173387096774206  38.40725806451613 24.6572580645161  37.83266129032259 24.3447580645161  L 34.67741935483872 22.711693548387103  L 31.522177419354847 24.354838709677438  C 30.94758064516128 24.667338709677438  30.312499999999996 24.183467741935488  30.413306451612897 23.558467741935488  L 31.018145161290334 20.040322580645153  L 28.45766129032259 17.560483870967744  C 28.004032258064516 17.096774193548384  28.266129032258082 16.330645161290334  28.89112903225808 16.22983870967741  L 32.409274193548384 15.725806451612897  L 33.971774193548384 12.540322580645153  C 34.264112903225794 11.955645161290334  35.080645161290334 11.955645161290334  35.372983870967744 12.540322580645153  L 36.935483870967744 15.725806451612897  L 40.45362903225805 16.22983870967741  Z " fill-rule="evenodd" />
    </mask>
  </defs>
  <g>
    <path d="M 50 25  C 50 11.189516129032256  38.810483870967744 0  25 0  C 11.189516129032256 0  0 11.189516129032256  0 25  C 0 38.810483870967744  11.189516129032256 50  25 50  C 38.810483870967744 50  50 38.810483870967744  50 25  Z M 9.102822580645153 17.560483870967744  C 8.639112903225794 17.086693548387103  8.91129032258064 16.320564516129025  9.53629032258064 16.219758064516128  L 13.054435483870975 15.715725806451616  L 14.616935483870975 12.530241935483872  C 14.909274193548383 11.945564516129025  15.725806451612897 11.945564516129025  16.018145161290334 12.530241935483872  L 17.580645161290334 15.715725806451616  L 21.09879032258064 16.219758064516128  C 21.72379032258064 16.320564516129025  21.995967741935488 17.086693548387103  21.532258064516128 17.550403225806463  L 18.971774193548384 20.030241935483872  L 19.576612903225794 23.548387096774206  C 19.67741935483872 24.173387096774206  19.04233870967741 24.6572580645161  18.467741935483872 24.3447580645161  L 15.322580645161283 22.711693548387103  L 12.16733870967741 24.354838709677438  C 11.592741935483872 24.667338709677438  10.95766129032259 24.183467741935488  11.058467741935488 23.558467741935488  L 11.663306451612897 20.040322580645153  L 9.102822580645153 17.560483870967744  Z M 39.49596774193549 33.336693548387075  C 38.55846774193549 38.88104838709677  31.108870967741954 42.741935483870975  25 42.741935483870975  C 18.89112903225805 42.741935483870975  11.441532258064512 38.88104838709677  10.504032258064512 33.336693548387075  C 10.302419354838719 32.14717741935482  11.441532258064512 31.169354838709694  12.590725806451616 31.5322580645161  C 15.635080645161281 32.51008064516128  20.16129032258064 33.064516129032256  25 33.064516129032256  C 29.838709677419363 33.064516129032256  34.36491935483872 32.51008064516128  37.409274193548384 31.5322580645161  C 38.56854838709677 31.159274193548413  39.6875 32.147177419354875  39.49596774193549 33.336693548387075  Z M 40.45362903225805 16.22983870967741  C 41.08870967741936 16.320564516129025  41.360887096774206 17.086693548387103  40.89717741935482 17.550403225806463  L 38.3366935483871 20.030241935483872  L 38.94153225806451 23.548387096774206  C 39.04233870967744 24.173387096774206  38.40725806451613 24.6572580645161  37.83266129032259 24.3447580645161  L 34.67741935483872 22.711693548387103  L 31.522177419354847 24.354838709677438  C 30.94758064516128 24.667338709677438  30.312499999999996 24.183467741935488  30.413306451612897 23.558467741935488  L 31.018145161290334 20.040322580645153  L 28.45766129032259 17.560483870967744  C 28.004032258064516 17.096774193548384  28.266129032258082 16.330645161290334  28.89112903225808 16.22983870967741  L 32.409274193548384 15.725806451612897  L 33.971774193548384 12.540322580645153  C 34.264112903225794 11.955645161290334  35.080645161290334 11.955645161290334  35.372983870967744 12.540322580645153  L 36.935483870967744 15.725806451612897  L 40.45362903225805 16.22983870967741  Z " fill-rule="nonzero" fill="rgba(0, 0, 0, 1)" stroke="none" class="fill" />
    <path d="M 50 25  C 50 11.189516129032256  38.810483870967744 0  25 0  C 11.189516129032256 0  0 11.189516129032256  0 25  C 0 38.810483870967744  11.189516129032256 50  25 50  C 38.810483870967744 50  50 38.810483870967744  50 25  Z " stroke-width="0" stroke-dasharray="0" stroke="rgba(255, 255, 255, 0)" fill="none" class="stroke" mask="url(#Clip1617)" />
    <path d="M 9.102822580645153 17.560483870967744  C 8.639112903225794 17.086693548387103  8.91129032258064 16.320564516129025  9.53629032258064 16.219758064516128  L 13.054435483870975 15.715725806451616  L 14.616935483870975 12.530241935483872  C 14.909274193548383 11.945564516129025  15.725806451612897 11.945564516129025  16.018145161290334 12.530241935483872  L 17.580645161290334 15.715725806451616  L 21.09879032258064 16.219758064516128  C 21.72379032258064 16.320564516129025  21.995967741935488 17.086693548387103  21.532258064516128 17.550403225806463  L 18.971774193548384 20.030241935483872  L 19.576612903225794 23.548387096774206  C 19.67741935483872 24.173387096774206  19.04233870967741 24.6572580645161  18.467741935483872 24.3447580645161  L 15.322580645161283 22.711693548387103  L 12.16733870967741 24.354838709677438  C 11.592741935483872 24.667338709677438  10.95766129032259 24.183467741935488  11.058467741935488 23.558467741935488  L 11.663306451612897 20.040322580645153  L 9.102822580645153 17.560483870967744  Z " stroke-width="0" stroke-dasharray="0" stroke="rgba(255, 255, 255, 0)" fill="none" class="stroke" mask="url(#Clip1617)" />
    <path d="M 39.49596774193549 33.336693548387075  C 38.55846774193549 38.88104838709677  31.108870967741954 42.741935483870975  25 42.741935483870975  C 18.89112903225805 42.741935483870975  11.441532258064512 38.88104838709677  10.504032258064512 33.336693548387075  C 10.302419354838719 32.14717741935482  11.441532258064512 31.169354838709694  12.590725806451616 31.5322580645161  C 15.635080645161281 32.51008064516128  20.16129032258064 33.064516129032256  25 33.064516129032256  C 29.838709677419363 33.064516129032256  34.36491935483872 32.51008064516128  37.409274193548384 31.5322580645161  C 38.56854838709677 31.159274193548413  39.6875 32.147177419354875  39.49596774193549 33.336693548387075  Z " stroke-width="0" stroke-dasharray="0" stroke="rgba(255, 255, 255, 0)" fill="none" class="stroke" mask="url(#Clip1617)" />
    <path d="M 40.45362903225805 16.22983870967741  C 41.08870967741936 16.320564516129025  41.360887096774206 17.086693548387103  40.89717741935482 17.550403225806463  L 38.3366935483871 20.030241935483872  L 38.94153225806451 23.548387096774206  C 39.04233870967744 24.173387096774206  38.40725806451613 24.6572580645161  37.83266129032259 24.3447580645161  L 34.67741935483872 22.711693548387103  L 31.522177419354847 24.354838709677438  C 30.94758064516128 24.667338709677438  30.312499999999996 24.183467741935488  30.413306451612897 23.558467741935488  L 31.018145161290334 20.040322580645153  L 28.45766129032259 17.560483870967744  C 28.004032258064516 17.096774193548384  28.266129032258082 16.330645161290334  28.89112903225808 16.22983870967741  L 32.409274193548384 15.725806451612897  L 33.971774193548384 12.540322580645153  C 34.264112903225794 11.955645161290334  35.080645161290334 11.955645161290334  35.372983870967744 12.540322580645153  L 36.935483870967744 15.725806451612897  L 40.45362903225805 16.22983870967741  Z " stroke-width="0" stroke-dasharray="0" stroke="rgba(255, 255, 255, 0)" fill="none" class="stroke" mask="url(#Clip1617)" />
  </g>
</svg>