<?xml version="1.0" encoding="utf-8"?>
<svg version="1.1" xmlns:xlink="http://www.w3.org/1999/xlink" width="50px" height="33px" xmlns="http://www.w3.org/2000/svg">
  <defs>
    <pattern id="BGPattern" patternUnits="userSpaceOnUse" alignment="0 0" imageRepeat="None" />
    <mask fill="white" id="Clip1240">
      <path d="M 22.36024844720498 1.211180124223631  C 23.81987577639751 -0.26397515527952464  26.18012422360249 -0.26397515527952464  27.639751552795015 1.1956521739130608  L 48.757763975155285 22.31366459627327  C 50.217391304347814 23.7732919254658  50.217391304347814 26.13354037267078  48.757763975155285 27.577639751552738  L 45.248447204968954 31.086956521739125  C 43.7888198757764 32.546583850931654  41.428571428571416 32.546583850931654  39.98447204968943 31.086956521739125  L 25 16.13354037267078  L 10.031055900621112 31.10248447204964  C 8.571428571428555 32.56211180124217  6.211180124223603 32.56211180124217  4.767080745341616 31.10248447204964  L 1.2422360248447148 27.593167701863308  C -0.21739130434781373 26.13354037267078  -0.21739130434781373 23.7732919254658  1.2422360248447148 22.32919254658384  L 22.36024844720498 1.211180124223631  Z " fill-rule="evenodd" />
    </mask>
  </defs>
  <g>
    <path d="M 22.36024844720498 1.211180124223631  C 23.81987577639751 -0.26397515527952464  26.18012422360249 -0.26397515527952464  27.639751552795015 1.1956521739130608  L 48.757763975155285 22.31366459627327  C 50.217391304347814 23.7732919254658  50.217391304347814 26.13354037267078  48.757763975155285 27.577639751552738  L 45.248447204968954 31.086956521739125  C 43.7888198757764 32.546583850931654  41.428571428571416 32.546583850931654  39.98447204968943 31.086956521739125  L 25 16.13354037267078  L 10.031055900621112 31.10248447204964  C 8.571428571428555 32.56211180124217  6.211180124223603 32.56211180124217  4.767080745341616 31.10248447204964  L 1.2422360248447148 27.593167701863308  C -0.21739130434781373 26.13354037267078  -0.21739130434781373 23.7732919254658  1.2422360248447148 22.32919254658384  L 22.36024844720498 1.211180124223631  Z " fill-rule="nonzero" fill="rgba(0, 0, 0, 1)" stroke="none" class="fill" />
    <path d="M 22.36024844720498 1.211180124223631  C 23.81987577639751 -0.26397515527952464  26.18012422360249 -0.26397515527952464  27.639751552795015 1.1956521739130608  L 48.757763975155285 22.31366459627327  C 50.217391304347814 23.7732919254658  50.217391304347814 26.13354037267078  48.757763975155285 27.577639751552738  L 45.248447204968954 31.086956521739125  C 43.7888198757764 32.546583850931654  41.428571428571416 32.546583850931654  39.98447204968943 31.086956521739125  L 25 16.13354037267078  L 10.031055900621112 31.10248447204964  C 8.571428571428555 32.56211180124217  6.211180124223603 32.56211180124217  4.767080745341616 31.10248447204964  L 1.2422360248447148 27.593167701863308  C -0.21739130434781373 26.13354037267078  -0.21739130434781373 23.7732919254658  1.2422360248447148 22.32919254658384  L 22.36024844720498 1.211180124223631  Z " stroke-width="0" stroke-dasharray="0" stroke="rgba(255, 255, 255, 0)" fill="none" class="stroke" mask="url(#Clip1240)" />
  </g>
</svg>