<?xml version="1.0" encoding="utf-8"?>
<svg version="1.1" xmlns:xlink="http://www.w3.org/1999/xlink" width="48px" height="48px" xmlns="http://www.w3.org/2000/svg">
  <defs>
    <pattern id="BGPattern" patternUnits="userSpaceOnUse" alignment="0 0" imageRepeat="None" />
    <mask fill="white" id="Clip7570">
      <path d="M 24 19.232000000000003  C 16.836 24.648000000000003  4.442 38.242000000000004  8.204 42.066  C 12.422 45.762  17.954 48  24 48  C 30.052 48  35.578 45.762  39.804 42.066  C 43.558 38.242000000000004  31.172000000000004 24.648000000000003  24 19.232000000000003  Z M 40.134 6.762000000000001  C 38.95 6.762000000000001  36.164 7.630000000000002  30.524 13.254000000000001  C 35.524 19.176000000000002  45.492000000000004 33.88  42.676 39.078  C 46.004 34.96  48 29.722  48 24.008  C 48 17.328  45.27 11.283999999999999  40.86 6.936000000000001  C 40.86 6.936000000000001  40.806 6.892000000000001  40.696 6.852  C 40.57 6.808000000000002  40.391999999999996 6.762000000000001  40.134 6.762000000000001  Z M 7.307999999999998 6.855999999999998  L 7.308 6.852  C 7.194000000000001 6.892000000000001  7.144 6.934000000000001  7.136 6.936000000000001  C 2.73 11.284000000000002  0 17.328  0 24.008  C 0 29.716  1.996 34.954  5.322 39.074  C 2.52 33.864  12.48 19.171999999999997  17.482 13.253999999999998  C 11.841999999999999 7.627999999999998  9.049999999999999 6.7639999999999985  7.869999999999999 6.7639999999999985  C 7.607999999999999 6.7639999999999985  7.4239999999999995 6.805999999999997  7.307999999999998 6.855999999999998  Z M 24 7.090000000000002  L 24 7.102000000000001  C 24 7.102000000000001  18.11 3.656000000000001  13.509999999999998 3.492000000000001  C 11.704 3.426000000000001  10.602 4.082000000000001  10.468 4.170000000000001  C 14.758 1.292000000000001  19.318 0  23.968 0  L 24 0  C 28.668 0  33.21 1.292000000000001  37.532 4.170000000000001  C 37.395999999999994 4.078000000000001  36.302 3.426000000000001  34.492 3.492000000000001  C 29.892000000000003 3.656000000000001  24 7.090000000000002  24 7.090000000000002  Z " fill-rule="evenodd" />
    </mask>
  </defs>
  <g>
    <path d="M 24 19.232000000000003  C 16.836 24.648000000000003  4.442 38.242000000000004  8.204 42.066  C 12.422 45.762  17.954 48  24 48  C 30.052 48  35.578 45.762  39.804 42.066  C 43.558 38.242000000000004  31.172000000000004 24.648000000000003  24 19.232000000000003  Z M 40.134 6.762000000000001  C 38.95 6.762000000000001  36.164 7.630000000000002  30.524 13.254000000000001  C 35.524 19.176000000000002  45.492000000000004 33.88  42.676 39.078  C 46.004 34.96  48 29.722  48 24.008  C 48 17.328  45.27 11.283999999999999  40.86 6.936000000000001  C 40.86 6.936000000000001  40.806 6.892000000000001  40.696 6.852  C 40.57 6.808000000000002  40.391999999999996 6.762000000000001  40.134 6.762000000000001  Z M 7.307999999999998 6.855999999999998  L 7.308 6.852  C 7.194000000000001 6.892000000000001  7.144 6.934000000000001  7.136 6.936000000000001  C 2.73 11.284000000000002  0 17.328  0 24.008  C 0 29.716  1.996 34.954  5.322 39.074  C 2.52 33.864  12.48 19.171999999999997  17.482 13.253999999999998  C 11.841999999999999 7.627999999999998  9.049999999999999 6.7639999999999985  7.869999999999999 6.7639999999999985  C 7.607999999999999 6.7639999999999985  7.4239999999999995 6.805999999999997  7.307999999999998 6.855999999999998  Z M 24 7.090000000000002  L 24 7.102000000000001  C 24 7.102000000000001  18.11 3.656000000000001  13.509999999999998 3.492000000000001  C 11.704 3.426000000000001  10.602 4.082000000000001  10.468 4.170000000000001  C 14.758 1.292000000000001  19.318 0  23.968 0  L 24 0  C 28.668 0  33.21 1.292000000000001  37.532 4.170000000000001  C 37.395999999999994 4.078000000000001  36.302 3.426000000000001  34.492 3.492000000000001  C 29.892000000000003 3.656000000000001  24 7.090000000000002  24 7.090000000000002  Z " fill-rule="nonzero" fill="rgba(16, 124, 16, 1)" stroke="none" class="fill" />
    <path d="M 24 19.232000000000003  C 16.836 24.648000000000003  4.442 38.242000000000004  8.204 42.066  C 12.422 45.762  17.954 48  24 48  C 30.052 48  35.578 45.762  39.804 42.066  C 43.558 38.242000000000004  31.172000000000004 24.648000000000003  24 19.232000000000003  Z " stroke-width="0" stroke-dasharray="0" stroke="rgba(255, 255, 255, 0)" fill="none" class="stroke" mask="url(#Clip7570)" />
    <path d="M 40.134 6.762000000000001  C 38.95 6.762000000000001  36.164 7.630000000000002  30.524 13.254000000000001  C 35.524 19.176000000000002  45.492000000000004 33.88  42.676 39.078  C 46.004 34.96  48 29.722  48 24.008  C 48 17.328  45.27 11.283999999999999  40.86 6.936000000000001  C 40.86 6.936000000000001  40.806 6.892000000000001  40.696 6.852  C 40.57 6.808000000000002  40.391999999999996 6.762000000000001  40.134 6.762000000000001  Z " stroke-width="0" stroke-dasharray="0" stroke="rgba(255, 255, 255, 0)" fill="none" class="stroke" mask="url(#Clip7570)" />
    <path d="M 7.307999999999998 6.855999999999998  L 7.308 6.852  C 7.194000000000001 6.892000000000001  7.144 6.934000000000001  7.136 6.936000000000001  C 2.73 11.284000000000002  0 17.328  0 24.008  C 0 29.716  1.996 34.954  5.322 39.074  C 2.52 33.864  12.48 19.171999999999997  17.482 13.253999999999998  C 11.841999999999999 7.627999999999998  9.049999999999999 6.7639999999999985  7.869999999999999 6.7639999999999985  C 7.607999999999999 6.7639999999999985  7.4239999999999995 6.805999999999997  7.307999999999998 6.855999999999998  Z " stroke-width="0" stroke-dasharray="0" stroke="rgba(255, 255, 255, 0)" fill="none" class="stroke" mask="url(#Clip7570)" />
    <path d="M 24 7.090000000000002  L 24 7.102000000000001  C 24 7.102000000000001  18.11 3.656000000000001  13.509999999999998 3.492000000000001  C 11.704 3.426000000000001  10.602 4.082000000000001  10.468 4.170000000000001  C 14.758 1.292000000000001  19.318 0  23.968 0  L 24 0  C 28.668 0  33.21 1.292000000000001  37.532 4.170000000000001  C 37.395999999999994 4.078000000000001  36.302 3.426000000000001  34.492 3.492000000000001  C 29.892000000000003 3.656000000000001  24 7.090000000000002  24 7.090000000000002  Z " stroke-width="0" stroke-dasharray="0" stroke="rgba(255, 255, 255, 0)" fill="none" class="stroke" mask="url(#Clip7570)" />
  </g>
</svg>