<?xml version="1.0" encoding="utf-8"?>
<svg version="1.1" xmlns:xlink="http://www.w3.org/1999/xlink" width="14px" height="16px" xmlns="http://www.w3.org/2000/svg">
  <defs>
    <pattern id="BGPattern" patternUnits="userSpaceOnUse" alignment="0 0" imageRepeat="None" />
    <mask fill="white" id="Clip3196">
      <path d="M 13 13.9  C 14.300000000000002 12.500000000000002  14.300000000000002 10.4  13.1 9  L 6 1.9  C 4.6 0.6  2.3 0.7  1 2.1  C -0.2999999999999998 3.5  -0.30000000000000004 5.6  0.8999999999999999 7  L 2.5 8.6  L 3.3 7.8  L 1.7000000000000002 6.2  C 0.7000000000000002 5.3  0.7000000000000002 3.7  1.6 2.7  C 2.5 1.7000000000000002  4.1 1.7000000000000002  5.1 2.6  L 5.199999999999999 2.7  L 12.299999999999999 9.8  C 13.299999999999999 10.700000000000001  13.299999999999999 12.3  12.399999999999999 13.3  C 11.499999999999998 14.3  9.899999999999999 14.3  8.899999999999999 13.4  L 8.799999999999999 13.3  L 5.5 9.9  C 4.9 9.4  4.9 8.5  5.5 8  C 6.1 7.5  6.9 7.5  7.4 8  L 9.1 9.7  L 9.9 9  L 8.1 7.2  C 7.1 6.3  5.6 6.3  4.6 7.3  C 3.6999999999999993 8.2  3.6999999999999993 9.7  4.6 10.6  L 8 14.1  C 9.4 15.4  11.7 15.299999999999999  13 13.9  Z " fill-rule="evenodd" />
    </mask>
  </defs>
  <g transform="matrix(1 0 0 1 -1 0 )">
    <path d="M 13 13.9  C 14.300000000000002 12.500000000000002  14.300000000000002 10.4  13.1 9  L 6 1.9  C 4.6 0.6  2.3 0.7  1 2.1  C -0.2999999999999998 3.5  -0.30000000000000004 5.6  0.8999999999999999 7  L 2.5 8.6  L 3.3 7.8  L 1.7000000000000002 6.2  C 0.7000000000000002 5.3  0.7000000000000002 3.7  1.6 2.7  C 2.5 1.7000000000000002  4.1 1.7000000000000002  5.1 2.6  L 5.199999999999999 2.7  L 12.299999999999999 9.8  C 13.299999999999999 10.700000000000001  13.299999999999999 12.3  12.399999999999999 13.3  C 11.499999999999998 14.3  9.899999999999999 14.3  8.899999999999999 13.4  L 8.799999999999999 13.3  L 5.5 9.9  C 4.9 9.4  4.9 8.5  5.5 8  C 6.1 7.5  6.9 7.5  7.4 8  L 9.1 9.7  L 9.9 9  L 8.1 7.2  C 7.1 6.3  5.6 6.3  4.6 7.3  C 3.6999999999999993 8.2  3.6999999999999993 9.7  4.6 10.6  L 8 14.1  C 9.4 15.4  11.7 15.299999999999999  13 13.9  Z " fill-rule="nonzero" fill="rgba(0, 0, 0, 1)" stroke="none" transform="matrix(1 0 0 1 1 0 )" class="fill" />
    <path d="M 13 13.9  C 14.300000000000002 12.500000000000002  14.300000000000002 10.4  13.1 9  L 6 1.9  C 4.6 0.6  2.3 0.7  1 2.1  C -0.2999999999999998 3.5  -0.30000000000000004 5.6  0.8999999999999999 7  L 2.5 8.6  L 3.3 7.8  L 1.7000000000000002 6.2  C 0.7000000000000002 5.3  0.7000000000000002 3.7  1.6 2.7  C 2.5 1.7000000000000002  4.1 1.7000000000000002  5.1 2.6  L 5.199999999999999 2.7  L 12.299999999999999 9.8  C 13.299999999999999 10.700000000000001  13.299999999999999 12.3  12.399999999999999 13.3  C 11.499999999999998 14.3  9.899999999999999 14.3  8.899999999999999 13.4  L 8.799999999999999 13.3  L 5.5 9.9  C 4.9 9.4  4.9 8.5  5.5 8  C 6.1 7.5  6.9 7.5  7.4 8  L 9.1 9.7  L 9.9 9  L 8.1 7.2  C 7.1 6.3  5.6 6.3  4.6 7.3  C 3.6999999999999993 8.2  3.6999999999999993 9.7  4.6 10.6  L 8 14.1  C 9.4 15.4  11.7 15.299999999999999  13 13.9  Z " stroke-width="0" stroke-dasharray="0" stroke="rgba(255, 255, 255, 0)" fill="none" transform="matrix(1 0 0 1 1 0 )" class="stroke" mask="url(#Clip3196)" />
  </g>
</svg>