<?xml version="1.0" encoding="utf-8"?>
<svg version="1.1" xmlns:xlink="http://www.w3.org/1999/xlink" width="12px" height="5px" xmlns="http://www.w3.org/2000/svg">
  <defs>
    <pattern id="BGPattern" patternUnits="userSpaceOnUse" alignment="0 0" imageRepeat="None" />
    <mask fill="white" id="Clip3593">
      <path d="M 11.999999999999998 2.9999999999999982  C 11.999999999999998 1.3431457505076185  10.656854249492378 0  9 0  L 3 0  C 1.3431457505076203 0  0 1.3431457505076185  0 3  L 0 5  L 2 5  L 2 3  C 2 2.4477152501692068  2.4477152501692068 2  3 2  L 9 2  C 9.552284749830793 2  10 2.4477152501692068  10 3  L 10 5  L 12 5  L 11.999999999999998 2.9999999999999982  Z " fill-rule="evenodd" />
    </mask>
  </defs>
  <g transform="matrix(1 0 0 1 -2 -11 )">
    <path d="M 11.999999999999998 2.9999999999999982  C 11.999999999999998 1.3431457505076185  10.656854249492378 0  9 0  L 3 0  C 1.3431457505076203 0  0 1.3431457505076185  0 3  L 0 5  L 2 5  L 2 3  C 2 2.4477152501692068  2.4477152501692068 2  3 2  L 9 2  C 9.552284749830793 2  10 2.4477152501692068  10 3  L 10 5  L 12 5  L 11.999999999999998 2.9999999999999982  Z " fill-rule="nonzero" fill="rgba(0, 0, 0, 1)" stroke="none" transform="matrix(1 0 0 1 2 11 )" class="fill" />
    <path d="M 11.999999999999998 2.9999999999999982  C 11.999999999999998 1.3431457505076185  10.656854249492378 0  9 0  L 3 0  C 1.3431457505076203 0  0 1.3431457505076185  0 3  L 0 5  L 2 5  L 2 3  C 2 2.4477152501692068  2.4477152501692068 2  3 2  L 9 2  C 9.552284749830793 2  10 2.4477152501692068  10 3  L 10 5  L 12 5  L 11.999999999999998 2.9999999999999982  Z " stroke-width="0" stroke-dasharray="0" stroke="rgba(255, 255, 255, 0)" fill="none" transform="matrix(1 0 0 1 2 11 )" class="stroke" mask="url(#Clip3593)" />
  </g>
</svg>