<?xml version="1.0" encoding="utf-8"?>
<svg version="1.1" xmlns:xlink="http://www.w3.org/1999/xlink" width="12px" height="5px" xmlns="http://www.w3.org/2000/svg">
  <defs>
    <pattern id="BGPattern" patternUnits="userSpaceOnUse" alignment="0 0" imageRepeat="None" />
    <mask fill="white" id="Clip3595">
      <path d="M 12 2.999999999999998  C 12 1.3431457505076194  10.65685424949238 0  9 0  L 3 0  C 1.3431457505076203 0  0 1.3431457505076194  0 3.0000000000000018  L 0 5  L 2 5  L 2 3.0000000000000018  C 2 2.4477152501692085  2.4477152501692068 2.000000000000002  3 2.000000000000002  L 9 2.000000000000002  C 9.552284749830793 2.000000000000002  10 2.4477152501692085  10 3.0000000000000018  L 10 5  L 12 5  L 12 2.999999999999998  Z " fill-rule="evenodd" />
    </mask>
  </defs>
  <g transform="matrix(1 0 0 1 -18 -25 )">
    <path d="M 12 2.999999999999998  C 12 1.3431457505076194  10.65685424949238 0  9 0  L 3 0  C 1.3431457505076203 0  0 1.3431457505076194  0 3.0000000000000018  L 0 5  L 2 5  L 2 3.0000000000000018  C 2 2.4477152501692085  2.4477152501692068 2.000000000000002  3 2.000000000000002  L 9 2.000000000000002  C 9.552284749830793 2.000000000000002  10 2.4477152501692085  10 3.0000000000000018  L 10 5  L 12 5  L 12 2.999999999999998  Z " fill-rule="nonzero" fill="rgba(0, 0, 0, 1)" stroke="none" transform="matrix(1 0 0 1 18 25 )" class="fill" />
    <path d="M 12 2.999999999999998  C 12 1.3431457505076194  10.65685424949238 0  9 0  L 3 0  C 1.3431457505076203 0  0 1.3431457505076194  0 3.0000000000000018  L 0 5  L 2 5  L 2 3.0000000000000018  C 2 2.4477152501692085  2.4477152501692068 2.000000000000002  3 2.000000000000002  L 9 2.000000000000002  C 9.552284749830793 2.000000000000002  10 2.4477152501692085  10 3.0000000000000018  L 10 5  L 12 5  L 12 2.999999999999998  Z " stroke-width="0" stroke-dasharray="0" stroke="rgba(255, 255, 255, 0)" fill="none" transform="matrix(1 0 0 1 18 25 )" class="stroke" mask="url(#Clip3595)" />
  </g>
</svg>