<?xml version="1.0" encoding="utf-8"?>
<svg version="1.1" xmlns:xlink="http://www.w3.org/1999/xlink" width="8px" height="8px" xmlns="http://www.w3.org/2000/svg">
  <defs>
    <pattern id="BGPattern" patternUnits="userSpaceOnUse" alignment="0 0" imageRepeat="None" />
    <mask fill="white" id="Clip3594">
      <path d="M 0 4  C 0 6.209138999323173  1.7908610006768262 8  4 8  C 6.209138999323173 8  8 6.209138999323173  8 4  C 8 1.7908610006768262  6.209138999323173 0  4 0  C 1.7908610006768262 0  0 1.7908610006768262  0 4  Z M 2 4  C 2 2.8954305003384135  2.8954305003384135 2  4 2  C 5.1045694996615865 2  6 2.8954305003384135  6 4  C 6 5.1045694996615865  5.1045694996615865 6  4 6  C 2.8954305003384135 6  2 5.1045694996615865  2 4  Z " fill-rule="evenodd" />
    </mask>
  </defs>
  <g transform="matrix(1 0 0 1 -4 -2 )">
    <path d="M 0 4  C 0 6.209138999323173  1.7908610006768262 8  4 8  C 6.209138999323173 8  8 6.209138999323173  8 4  C 8 1.7908610006768262  6.209138999323173 0  4 0  C 1.7908610006768262 0  0 1.7908610006768262  0 4  Z M 2 4  C 2 2.8954305003384135  2.8954305003384135 2  4 2  C 5.1045694996615865 2  6 2.8954305003384135  6 4  C 6 5.1045694996615865  5.1045694996615865 6  4 6  C 2.8954305003384135 6  2 5.1045694996615865  2 4  Z " fill-rule="nonzero" fill="rgba(0, 0, 0, 1)" stroke="none" transform="matrix(1 0 0 1 4 2 )" class="fill" />
    <path d="M 0 4  C 0 6.209138999323173  1.7908610006768262 8  4 8  C 6.209138999323173 8  8 6.209138999323173  8 4  C 8 1.7908610006768262  6.209138999323173 0  4 0  C 1.7908610006768262 0  0 1.7908610006768262  0 4  Z " stroke-width="0" stroke-dasharray="0" stroke="rgba(255, 255, 255, 0)" fill="none" transform="matrix(1 0 0 1 4 2 )" class="stroke" mask="url(#Clip3594)" />
    <path d="M 2 4  C 2 2.8954305003384135  2.8954305003384135 2  4 2  C 5.1045694996615865 2  6 2.8954305003384135  6 4  C 6 5.1045694996615865  5.1045694996615865 6  4 6  C 2.8954305003384135 6  2 5.1045694996615865  2 4  Z " stroke-width="0" stroke-dasharray="0" stroke="rgba(255, 255, 255, 0)" fill="none" transform="matrix(1 0 0 1 4 2 )" class="stroke" mask="url(#Clip3594)" />
  </g>
</svg>