<?xml version="1.0" encoding="utf-8"?>
<svg version="1.1" xmlns:xlink="http://www.w3.org/1999/xlink" width="50px" height="50px" xmlns="http://www.w3.org/2000/svg">
  <defs>
    <pattern id="BGPattern" patternUnits="userSpaceOnUse" alignment="0 0" imageRepeat="None" />
    <mask fill="white" id="Clip1030">
      <path d="M 50 5  C 50 2.2433035714285836  47.756696428571445 0  45 0  L 5 0  C 2.2433035714285836 0  0 2.2433035714285836  0 5  L 0 45  C 0 47.756696428571445  2.2433035714285836 50  5 50  L 45 50  C 47.756696428571445 50  50 47.756696428571445  50 45  L 50 5  Z M 36.819196428571445 9.386160714285722  C 40.53571428571428 9.486607142857139  42.287946428571445 11.897321428571445  42.07589285714283 16.60714285714286  C 41.91964285714289 20.12276785714286  39.46428571428572 24.944196428571416  34.709821428571445 31.049107142857167  C 29.79910714285714 37.43303571428572  25.636160714285722 40.625  22.243303571428584 40.625  C 20.133928571428584 40.625  18.359375 38.68303571428572  16.897321428571445 34.787946428571445  C 14.05133928571428 24.375  12.834821428571416 18.270089285714278  10.491071428571416 18.270089285714278  C 10.223214285714278 18.270089285714278  9.274553571428584 18.839285714285722  7.656250000000001 19.96651785714286  L 5.959821428571416 17.77901785714286  C 10.122767857142861 14.118303571428584  14.095982142857139 10.055803571428584  16.584821428571416 9.832589285714278  C 19.397321428571416 9.564732142857139  21.12723214285714 11.484375  21.774553571428555 15.602678571428582  C 24.084821428571416 30.245535714285722  25.11160714285714 32.45535714285717  29.319196428571416 25.82589285714286  C 30.82589285714286 23.4375  31.640625 21.618303571428584  31.75223214285714 20.368303571428584  C 32.14285714285714 16.662946428571445  28.86160714285714 16.91964285714286  26.640625 17.868303571428584  C 28.415178571428584 12.053571428571445  31.808035714285722 9.229910714285722  36.819196428571445 9.386160714285722  Z " fill-rule="evenodd" />
    </mask>
  </defs>
  <g>
    <path d="M 50 5  C 50 2.2433035714285836  47.756696428571445 0  45 0  L 5 0  C 2.2433035714285836 0  0 2.2433035714285836  0 5  L 0 45  C 0 47.756696428571445  2.2433035714285836 50  5 50  L 45 50  C 47.756696428571445 50  50 47.756696428571445  50 45  L 50 5  Z M 36.819196428571445 9.386160714285722  C 40.53571428571428 9.486607142857139  42.287946428571445 11.897321428571445  42.07589285714283 16.60714285714286  C 41.91964285714289 20.12276785714286  39.46428571428572 24.944196428571416  34.709821428571445 31.049107142857167  C 29.79910714285714 37.43303571428572  25.636160714285722 40.625  22.243303571428584 40.625  C 20.133928571428584 40.625  18.359375 38.68303571428572  16.897321428571445 34.787946428571445  C 14.05133928571428 24.375  12.834821428571416 18.270089285714278  10.491071428571416 18.270089285714278  C 10.223214285714278 18.270089285714278  9.274553571428584 18.839285714285722  7.656250000000001 19.96651785714286  L 5.959821428571416 17.77901785714286  C 10.122767857142861 14.118303571428584  14.095982142857139 10.055803571428584  16.584821428571416 9.832589285714278  C 19.397321428571416 9.564732142857139  21.12723214285714 11.484375  21.774553571428555 15.602678571428582  C 24.084821428571416 30.245535714285722  25.11160714285714 32.45535714285717  29.319196428571416 25.82589285714286  C 30.82589285714286 23.4375  31.640625 21.618303571428584  31.75223214285714 20.368303571428584  C 32.14285714285714 16.662946428571445  28.86160714285714 16.91964285714286  26.640625 17.868303571428584  C 28.415178571428584 12.053571428571445  31.808035714285722 9.229910714285722  36.819196428571445 9.386160714285722  Z " fill-rule="nonzero" fill="rgba(0, 0, 0, 1)" stroke="none" class="fill" />
    <path d="M 50 5  C 50 2.2433035714285836  47.756696428571445 0  45 0  L 5 0  C 2.2433035714285836 0  0 2.2433035714285836  0 5  L 0 45  C 0 47.756696428571445  2.2433035714285836 50  5 50  L 45 50  C 47.756696428571445 50  50 47.756696428571445  50 45  L 50 5  Z " stroke-width="0" stroke-dasharray="0" stroke="rgba(255, 255, 255, 0)" fill="none" class="stroke" mask="url(#Clip1030)" />
    <path d="M 36.819196428571445 9.386160714285722  C 40.53571428571428 9.486607142857139  42.287946428571445 11.897321428571445  42.07589285714283 16.60714285714286  C 41.91964285714289 20.12276785714286  39.46428571428572 24.944196428571416  34.709821428571445 31.049107142857167  C 29.79910714285714 37.43303571428572  25.636160714285722 40.625  22.243303571428584 40.625  C 20.133928571428584 40.625  18.359375 38.68303571428572  16.897321428571445 34.787946428571445  C 14.05133928571428 24.375  12.834821428571416 18.270089285714278  10.491071428571416 18.270089285714278  C 10.223214285714278 18.270089285714278  9.274553571428584 18.839285714285722  7.656250000000001 19.96651785714286  L 5.959821428571416 17.77901785714286  C 10.122767857142861 14.118303571428584  14.095982142857139 10.055803571428584  16.584821428571416 9.832589285714278  C 19.397321428571416 9.564732142857139  21.12723214285714 11.484375  21.774553571428555 15.602678571428582  C 24.084821428571416 30.245535714285722  25.11160714285714 32.45535714285717  29.319196428571416 25.82589285714286  C 30.82589285714286 23.4375  31.640625 21.618303571428584  31.75223214285714 20.368303571428584  C 32.14285714285714 16.662946428571445  28.86160714285714 16.91964285714286  26.640625 17.868303571428584  C 28.415178571428584 12.053571428571445  31.808035714285722 9.229910714285722  36.819196428571445 9.386160714285722  Z " stroke-width="0" stroke-dasharray="0" stroke="rgba(255, 255, 255, 0)" fill="none" class="stroke" mask="url(#Clip1030)" />
  </g>
</svg>