<?xml version="1.0" encoding="utf-8"?>
<svg version="1.1" xmlns:xlink="http://www.w3.org/1999/xlink" width="12px" height="14px" xmlns="http://www.w3.org/2000/svg">
  <defs>
    <pattern id="BGPattern" patternUnits="userSpaceOnUse" alignment="0 0" imageRepeat="None" />
    <mask fill="white" id="Clip6081">
      <path d="M 1.8495000000000008 0.41800000000000015  L 11.394000000000002 5.956000000000001  C 11.768336335015803 6.1703194488348565  11.999276819924141 6.568652671432941  11.999276819924141 7  C 11.999276819924141 7.43134732856706  11.768336335015803 7.8296805511651435  11.393999999999998 8.044  L 1.849499999999999 13.582  C 1.0694999999999997 14.035  0 13.517500000000002  0 12.538  L 0 1.4619999999999997  C 0 0.48249999999999993  1.0694999999999997 -0.03500000000000014  1.8495000000000008 0.41800000000000015  Z M 1.5 12.0505  L 10.206 7  L 1.5 1.9495000000000005  L 1.5 12.0505  Z " fill-rule="evenodd" />
    </mask>
  </defs>
  <g>
    <path d="M 1.8495000000000008 0.41800000000000015  L 11.394000000000002 5.956000000000001  C 11.768336335015803 6.1703194488348565  11.999276819924141 6.568652671432941  11.999276819924141 7  C 11.999276819924141 7.43134732856706  11.768336335015803 7.8296805511651435  11.393999999999998 8.044  L 1.849499999999999 13.582  C 1.0694999999999997 14.035  0 13.517500000000002  0 12.538  L 0 1.4619999999999997  C 0 0.48249999999999993  1.0694999999999997 -0.03500000000000014  1.8495000000000008 0.41800000000000015  Z M 1.5 12.0505  L 10.206 7  L 1.5 1.9495000000000005  L 1.5 12.0505  Z " fill-rule="nonzero" fill="rgba(0, 0, 0, 1)" stroke="none" class="fill" />
    <path d="M 1.8495000000000008 0.41800000000000015  L 11.394000000000002 5.956000000000001  C 11.768336335015803 6.1703194488348565  11.999276819924141 6.568652671432941  11.999276819924141 7  C 11.999276819924141 7.43134732856706  11.768336335015803 7.8296805511651435  11.393999999999998 8.044  L 1.849499999999999 13.582  C 1.0694999999999997 14.035  0 13.517500000000002  0 12.538  L 0 1.4619999999999997  C 0 0.48249999999999993  1.0694999999999997 -0.03500000000000014  1.8495000000000008 0.41800000000000015  Z " stroke-width="0" stroke-dasharray="0" stroke="rgba(255, 255, 255, 0)" fill="none" class="stroke" mask="url(#Clip6081)" />
    <path d="M 1.5 12.0505  L 10.206 7  L 1.5 1.9495000000000005  L 1.5 12.0505  Z " stroke-width="0" stroke-dasharray="0" stroke="rgba(255, 255, 255, 0)" fill="none" class="stroke" mask="url(#Clip6081)" />
  </g>
</svg>