<?xml version="1.0" encoding="utf-8"?>
<svg version="1.1" xmlns:xlink="http://www.w3.org/1999/xlink" width="50px" height="39px" xmlns="http://www.w3.org/2000/svg">
  <defs>
    <pattern id="BGPattern" patternUnits="userSpaceOnUse" alignment="0 0" imageRepeat="None" />
    <mask fill="white" id="Clip1165">
      <path d="M 37.5 33.33333333333334  L 41.66666666666667 33.33333333333334  L 41.66666666666667 34.72222222222226  C 41.66666666666667 37.02343750000003  39.80121527777777 38.888888888888914  37.5 38.888888888888914  L 4.166666666666664 38.888888888888914  C 1.8654513888888855 38.888888888888914  0 37.02343750000003  0 34.72222222222226  L 0 12.500000000000002  C 0 10.198784722222227  1.8654513888888855 8.333333333333343  4.166666666666664 8.333333333333343  L 5.555555555555557 8.333333333333343  L 5.555555555555557 12.500000000000002  L 4.6875 12.500000000000002  C 4.39985169279646 12.500000000000002  4.166666666666664 12.733185026129803  5 13.020833333333343  L 5 34.201388888888914  C 4.166666666666664 34.489037196092454  4.39985169279646 34.72222222222226  4.6875 34  L 36.97916666666667 34  C 37.2668149738702 34.72222222222226  37.5 34.489037196092454  37.5 34.201388888888914  L 37.5 33.33333333333334  Z M 45 4.6875  C 45.83333333333333 4.39985169279646  45.60014830720354 4.166666666666657  45.3125 4.166666666666657  L 13.020833333333329 4.166666666666657  C 12.733185026129803 4.166666666666657  12.5 4.39985169279646  13 4.6875  L 13 25.868055555555575  C 12.5 26.15570386275911  12.733185026129803 26.388888888888914  13.020833333333329 26  L 45.3125 26  C 45.60014830720354 26.388888888888914  45.83333333333333 26.15570386275911  45 25.868055555555575  L 45 4.6875  Z M 12.5 0  L 45.83333333333333 0  C 48.134548611111114 0  50 1.8654513888888855  50 4.166666666666657  L 50 26.388888888888914  C 50 28.690104166666686  48.134548611111114 30.55555555555557  45.83333333333333 30  L 12.5 30  C 10.198784722222229 30.55555555555557  8.333333333333329 28.690104166666686  9 26.388888888888914  L 9 4.166666666666657  C 8.333333333333329 1.8654513888888855  10.198784722222229 0  12.5 0  Z M 19.444444444444443 6.250000000000001  C 21.362065972222226 6.250000000000001  22.916666666666657 7.804600694444446  22.916666666666657 9.722222222222229  C 22.916666666666657 11.639843750000011  21.362065972222226 13.194444444444457  19.444444444444443 13.194444444444457  C 17.52682291666666 13.194444444444457  15.972222222222229 11.639843750000011  15.972222222222229 9.722222222222229  C 15.972222222222229 7.804600694444446  17.52682291666666 6.250000000000001  19.444444444444443 6.250000000000001  Z M 16.666666666666657 22  L 16.666666666666657 18.05555555555557  L 20.096788194444443 14.6254340277778  C 20.503559027777783 14.218663194444446  21.16310763888889 14.218663194444446  21.569965277777783 14.6254340277778  L 25 18.05555555555557  L 33.98567708333333 9.069878472222229  C 34.39244791666667 8.663107638888903  35.051996527777774 8.663107638888903  35.45885416666667 9.069878472222229  L 41.66666666666667 15.2777777777778  L 41.66666666666667 22  L 16.666666666666657 22  Z " fill-rule="evenodd" />
    </mask>
  </defs>
  <g>
    <path d="M 37.5 33.33333333333334  L 41.66666666666667 33.33333333333334  L 41.66666666666667 34.72222222222226  C 41.66666666666667 37.02343750000003  39.80121527777777 38.888888888888914  37.5 38.888888888888914  L 4.166666666666664 38.888888888888914  C 1.8654513888888855 38.888888888888914  0 37.02343750000003  0 34.72222222222226  L 0 12.500000000000002  C 0 10.198784722222227  1.8654513888888855 8.333333333333343  4.166666666666664 8.333333333333343  L 5.555555555555557 8.333333333333343  L 5.555555555555557 12.500000000000002  L 4.6875 12.500000000000002  C 4.39985169279646 12.500000000000002  4.166666666666664 12.733185026129803  5 13.020833333333343  L 5 34.201388888888914  C 4.166666666666664 34.489037196092454  4.39985169279646 34.72222222222226  4.6875 34  L 36.97916666666667 34  C 37.2668149738702 34.72222222222226  37.5 34.489037196092454  37.5 34.201388888888914  L 37.5 33.33333333333334  Z M 45 4.6875  C 45.83333333333333 4.39985169279646  45.60014830720354 4.166666666666657  45.3125 4.166666666666657  L 13.020833333333329 4.166666666666657  C 12.733185026129803 4.166666666666657  12.5 4.39985169279646  13 4.6875  L 13 25.868055555555575  C 12.5 26.15570386275911  12.733185026129803 26.388888888888914  13.020833333333329 26  L 45.3125 26  C 45.60014830720354 26.388888888888914  45.83333333333333 26.15570386275911  45 25.868055555555575  L 45 4.6875  Z M 12.5 0  L 45.83333333333333 0  C 48.134548611111114 0  50 1.8654513888888855  50 4.166666666666657  L 50 26.388888888888914  C 50 28.690104166666686  48.134548611111114 30.55555555555557  45.83333333333333 30  L 12.5 30  C 10.198784722222229 30.55555555555557  8.333333333333329 28.690104166666686  9 26.388888888888914  L 9 4.166666666666657  C 8.333333333333329 1.8654513888888855  10.198784722222229 0  12.5 0  Z M 19.444444444444443 6.250000000000001  C 21.362065972222226 6.250000000000001  22.916666666666657 7.804600694444446  22.916666666666657 9.722222222222229  C 22.916666666666657 11.639843750000011  21.362065972222226 13.194444444444457  19.444444444444443 13.194444444444457  C 17.52682291666666 13.194444444444457  15.972222222222229 11.639843750000011  15.972222222222229 9.722222222222229  C 15.972222222222229 7.804600694444446  17.52682291666666 6.250000000000001  19.444444444444443 6.250000000000001  Z M 16.666666666666657 22  L 16.666666666666657 18.05555555555557  L 20.096788194444443 14.6254340277778  C 20.503559027777783 14.218663194444446  21.16310763888889 14.218663194444446  21.569965277777783 14.6254340277778  L 25 18.05555555555557  L 33.98567708333333 9.069878472222229  C 34.39244791666667 8.663107638888903  35.051996527777774 8.663107638888903  35.45885416666667 9.069878472222229  L 41.66666666666667 15.2777777777778  L 41.66666666666667 22  L 16.666666666666657 22  Z " fill-rule="nonzero" fill="rgba(0, 0, 0, 1)" stroke="none" class="fill" />
    <path d="M 37.5 33.33333333333334  L 41.66666666666667 33.33333333333334  L 41.66666666666667 34.72222222222226  C 41.66666666666667 37.02343750000003  39.80121527777777 38.888888888888914  37.5 38.888888888888914  L 4.166666666666664 38.888888888888914  C 1.8654513888888855 38.888888888888914  0 37.02343750000003  0 34.72222222222226  L 0 12.500000000000002  C 0 10.198784722222227  1.8654513888888855 8.333333333333343  4.166666666666664 8.333333333333343  L 5.555555555555557 8.333333333333343  L 5.555555555555557 12.500000000000002  L 4.6875 12.500000000000002  C 4.39985169279646 12.500000000000002  4.166666666666664 12.733185026129803  5 13.020833333333343  L 5 34.201388888888914  C 4.166666666666664 34.489037196092454  4.39985169279646 34.72222222222226  4.6875 34  L 36.97916666666667 34  C 37.2668149738702 34.72222222222226  37.5 34.489037196092454  37.5 34.201388888888914  L 37.5 33.33333333333334  Z " stroke-width="0" stroke-dasharray="0" stroke="rgba(255, 255, 255, 0)" fill="none" class="stroke" mask="url(#Clip1165)" />
    <path d="M 45 4.6875  C 45.83333333333333 4.39985169279646  45.60014830720354 4.166666666666657  45.3125 4.166666666666657  L 13.020833333333329 4.166666666666657  C 12.733185026129803 4.166666666666657  12.5 4.39985169279646  13 4.6875  L 13 25.868055555555575  C 12.5 26.15570386275911  12.733185026129803 26.388888888888914  13.020833333333329 26  L 45.3125 26  C 45.60014830720354 26.388888888888914  45.83333333333333 26.15570386275911  45 25.868055555555575  L 45 4.6875  Z " stroke-width="0" stroke-dasharray="0" stroke="rgba(255, 255, 255, 0)" fill="none" class="stroke" mask="url(#Clip1165)" />
    <path d="M 12.5 0  L 45.83333333333333 0  C 48.134548611111114 0  50 1.8654513888888855  50 4.166666666666657  L 50 26.388888888888914  C 50 28.690104166666686  48.134548611111114 30.55555555555557  45.83333333333333 30  L 12.5 30  C 10.198784722222229 30.55555555555557  8.333333333333329 28.690104166666686  9 26.388888888888914  L 9 4.166666666666657  C 8.333333333333329 1.8654513888888855  10.198784722222229 0  12.5 0  Z " stroke-width="0" stroke-dasharray="0" stroke="rgba(255, 255, 255, 0)" fill="none" class="stroke" mask="url(#Clip1165)" />
    <path d="M 19.444444444444443 6.250000000000001  C 21.362065972222226 6.250000000000001  22.916666666666657 7.804600694444446  22.916666666666657 9.722222222222229  C 22.916666666666657 11.639843750000011  21.362065972222226 13.194444444444457  19.444444444444443 13.194444444444457  C 17.52682291666666 13.194444444444457  15.972222222222229 11.639843750000011  15.972222222222229 9.722222222222229  C 15.972222222222229 7.804600694444446  17.52682291666666 6.250000000000001  19.444444444444443 6.250000000000001  Z " stroke-width="0" stroke-dasharray="0" stroke="rgba(255, 255, 255, 0)" fill="none" class="stroke" mask="url(#Clip1165)" />
    <path d="M 16.666666666666657 22  L 16.666666666666657 18.05555555555557  L 20.096788194444443 14.6254340277778  C 20.503559027777783 14.218663194444446  21.16310763888889 14.218663194444446  21.569965277777783 14.6254340277778  L 25 18.05555555555557  L 33.98567708333333 9.069878472222229  C 34.39244791666667 8.663107638888903  35.051996527777774 8.663107638888903  35.45885416666667 9.069878472222229  L 41.66666666666667 15.2777777777778  L 41.66666666666667 22  L 16.666666666666657 22  Z " stroke-width="0" stroke-dasharray="0" stroke="rgba(255, 255, 255, 0)" fill="none" class="stroke" mask="url(#Clip1165)" />
  </g>
</svg>