<?xml version="1.0" encoding="utf-8"?>
<svg version="1.1" xmlns:xlink="http://www.w3.org/1999/xlink" width="14px" height="8px" xmlns="http://www.w3.org/2000/svg">
  <defs>
    <pattern id="BGPattern" patternUnits="userSpaceOnUse" alignment="0 0" imageRepeat="None" />
    <mask fill="white" id="Clip3844">
      <path d="M 13.999999999999996 4.999999999999998  L 14 8  L 12 8  L 12 5.000000000000001  C 12 3.3431457505076225  10.656854249492376 2.0000000000000027  9 2.0000000000000027  L 5 2.0000000000000027  C 3.3431457505076203 2.0000000000000027  2 3.3431457505076225  2 5.000000000000001  L 2 8  L 0 8  L 0 4.999999999999998  C 0 2.238576250846033  2.238576250846034 0  5 0  L 8.999999999999996 0  C 11.761423749153963 0  13.999999999999996 2.238576250846033  13.999999999999996 4.999999999999998  Z " fill-rule="evenodd" />
    </mask>
  </defs>
  <g transform="matrix(1 0 0 1 -17 -22 )">
    <path d="M 13.999999999999996 4.999999999999998  L 14 8  L 12 8  L 12 5.000000000000001  C 12 3.3431457505076225  10.656854249492376 2.0000000000000027  9 2.0000000000000027  L 5 2.0000000000000027  C 3.3431457505076203 2.0000000000000027  2 3.3431457505076225  2 5.000000000000001  L 2 8  L 0 8  L 0 4.999999999999998  C 0 2.238576250846033  2.238576250846034 0  5 0  L 8.999999999999996 0  C 11.761423749153963 0  13.999999999999996 2.238576250846033  13.999999999999996 4.999999999999998  Z " fill-rule="nonzero" fill="rgba(0, 0, 0, 1)" stroke="none" transform="matrix(1 0 0 1 17 22 )" class="fill" />
    <path d="M 13.999999999999996 4.999999999999998  L 14 8  L 12 8  L 12 5.000000000000001  C 12 3.3431457505076225  10.656854249492376 2.0000000000000027  9 2.0000000000000027  L 5 2.0000000000000027  C 3.3431457505076203 2.0000000000000027  2 3.3431457505076225  2 5.000000000000001  L 2 8  L 0 8  L 0 4.999999999999998  C 0 2.238576250846033  2.238576250846034 0  5 0  L 8.999999999999996 0  C 11.761423749153963 0  13.999999999999996 2.238576250846033  13.999999999999996 4.999999999999998  Z " stroke-width="0" stroke-dasharray="0" stroke="rgba(255, 255, 255, 0)" fill="none" transform="matrix(1 0 0 1 17 22 )" class="stroke" mask="url(#Clip3844)" />
  </g>
</svg>