<?xml version="1.0" encoding="utf-8"?>
<svg version="1.1" xmlns:xlink="http://www.w3.org/1999/xlink" width="19px" height="19px" xmlns="http://www.w3.org/2000/svg">
  <defs>
    <pattern id="BGPattern" patternUnits="userSpaceOnUse" alignment="0 0" imageRepeat="None" />
    <mask fill="white" id="Clip3638">
      <path d="M 18.91 15.409999999999993  C 19.0298830420606 14.809255837635678  19.0298830420606 14.190744162364311  18.91 13.59  C 18.609632588499046 12.138504497892804  17.615219788573796 10.927264846856039  16.25 10.350000000000001  C 15.130000000000003 9.883333333333338  13.870000000000001 9.883333333333336  12.75 10.350000000000001  C 12.528332778265547 10.450735072925582  12.314416410506713 10.567720586543695  12.11 10.700000000000003  L 9.3 7.890000000000001  C 9.75751173234171 7.165882733345956  10.000352019826874 6.326893204532454  10.000352019826874 5.4703520198268745  C 10.000352019826874 2.96850210309338  7.972201936560368 0.9403520198268742  5.4703520198268745 0.9403520198268742  C 2.96850210309338 0.9403520198268742  0.9403520198268742 2.96850210309338  0.9403520198268742 5.4703520198268745  C 0.9403520198268742 7.972201936560368  2.96850210309338 10.000352019826874  5.4703520198268745 10.000352019826874  C 6.326893204532454 10.000352019826874  7.165882733345956 9.75751173234171  7.890000000000001 9.3  L 10.7 12.11  C 10.076788160611766 13.089419625029056  9.858095080390465 14.272513337701653  10.09 15.409999999999995  C 10.390367411500954 16.861495502107193  11.3847802114262 18.072735153143963  12.75 18.650000000000002  C 13.870000000000005 19.11666666666667  15.129999999999995 19.11666666666667  16.25 18.65  C 17.615219788573796 18.072735153143963  18.609632588499046 16.861495502107193  18.91 15.409999999999993  Z M 7.999999999999998 5.5  C 7.999999999999998 6.880711874576981  6.880711874576981 7.999999999999998  5.5 7.999999999999998  C 4.119288125423017 7.999999999999998  3 6.880711874576981  3 5.5  C 3 4.119288125423017  4.119288125423017 3  5.5 3  C 6.880711874576981 3  7.999999999999998 4.119288125423017  7.999999999999998 5.5  Z " fill-rule="evenodd" />
    </mask>
  </defs>
  <g transform="matrix(1 0 0 1 -6 -6 )">
    <path d="M 18.91 15.409999999999993  C 19.0298830420606 14.809255837635678  19.0298830420606 14.190744162364311  18.91 13.59  C 18.609632588499046 12.138504497892804  17.615219788573796 10.927264846856039  16.25 10.350000000000001  C 15.130000000000003 9.883333333333338  13.870000000000001 9.883333333333336  12.75 10.350000000000001  C 12.528332778265547 10.450735072925582  12.314416410506713 10.567720586543695  12.11 10.700000000000003  L 9.3 7.890000000000001  C 9.75751173234171 7.165882733345956  10.000352019826874 6.326893204532454  10.000352019826874 5.4703520198268745  C 10.000352019826874 2.96850210309338  7.972201936560368 0.9403520198268742  5.4703520198268745 0.9403520198268742  C 2.96850210309338 0.9403520198268742  0.9403520198268742 2.96850210309338  0.9403520198268742 5.4703520198268745  C 0.9403520198268742 7.972201936560368  2.96850210309338 10.000352019826874  5.4703520198268745 10.000352019826874  C 6.326893204532454 10.000352019826874  7.165882733345956 9.75751173234171  7.890000000000001 9.3  L 10.7 12.11  C 10.076788160611766 13.089419625029056  9.858095080390465 14.272513337701653  10.09 15.409999999999995  C 10.390367411500954 16.861495502107193  11.3847802114262 18.072735153143963  12.75 18.650000000000002  C 13.870000000000005 19.11666666666667  15.129999999999995 19.11666666666667  16.25 18.65  C 17.615219788573796 18.072735153143963  18.609632588499046 16.861495502107193  18.91 15.409999999999993  Z M 7.999999999999998 5.5  C 7.999999999999998 6.880711874576981  6.880711874576981 7.999999999999998  5.5 7.999999999999998  C 4.119288125423017 7.999999999999998  3 6.880711874576981  3 5.5  C 3 4.119288125423017  4.119288125423017 3  5.5 3  C 6.880711874576981 3  7.999999999999998 4.119288125423017  7.999999999999998 5.5  Z " fill-rule="nonzero" fill="rgba(0, 0, 0, 1)" stroke="none" transform="matrix(1 0 0 1 6 6 )" class="fill" />
    <path d="M 18.91 15.409999999999993  C 19.0298830420606 14.809255837635678  19.0298830420606 14.190744162364311  18.91 13.59  C 18.609632588499046 12.138504497892804  17.615219788573796 10.927264846856039  16.25 10.350000000000001  C 15.130000000000003 9.883333333333338  13.870000000000001 9.883333333333336  12.75 10.350000000000001  C 12.528332778265547 10.450735072925582  12.314416410506713 10.567720586543695  12.11 10.700000000000003  L 9.3 7.890000000000001  C 9.75751173234171 7.165882733345956  10.000352019826874 6.326893204532454  10.000352019826874 5.4703520198268745  C 10.000352019826874 2.96850210309338  7.972201936560368 0.9403520198268742  5.4703520198268745 0.9403520198268742  C 2.96850210309338 0.9403520198268742  0.9403520198268742 2.96850210309338  0.9403520198268742 5.4703520198268745  C 0.9403520198268742 7.972201936560368  2.96850210309338 10.000352019826874  5.4703520198268745 10.000352019826874  C 6.326893204532454 10.000352019826874  7.165882733345956 9.75751173234171  7.890000000000001 9.3  L 10.7 12.11  C 10.076788160611766 13.089419625029056  9.858095080390465 14.272513337701653  10.09 15.409999999999995  C 10.390367411500954 16.861495502107193  11.3847802114262 18.072735153143963  12.75 18.650000000000002  C 13.870000000000005 19.11666666666667  15.129999999999995 19.11666666666667  16.25 18.65  C 17.615219788573796 18.072735153143963  18.609632588499046 16.861495502107193  18.91 15.409999999999993  Z " stroke-width="0" stroke-dasharray="0" stroke="rgba(255, 255, 255, 0)" fill="none" transform="matrix(1 0 0 1 6 6 )" class="stroke" mask="url(#Clip3638)" />
    <path d="M 7.999999999999998 5.5  C 7.999999999999998 6.880711874576981  6.880711874576981 7.999999999999998  5.5 7.999999999999998  C 4.119288125423017 7.999999999999998  3 6.880711874576981  3 5.5  C 3 4.119288125423017  4.119288125423017 3  5.5 3  C 6.880711874576981 3  7.999999999999998 4.119288125423017  7.999999999999998 5.5  Z " stroke-width="0" stroke-dasharray="0" stroke="rgba(255, 255, 255, 0)" fill="none" transform="matrix(1 0 0 1 6 6 )" class="stroke" mask="url(#Clip3638)" />
  </g>
</svg>