<?xml version="1.0" encoding="utf-8"?>
<svg version="1.1" xmlns:xlink="http://www.w3.org/1999/xlink" width="50px" height="32px" xmlns="http://www.w3.org/2000/svg">
  <defs>
    <pattern id="BGPattern" patternUnits="userSpaceOnUse" alignment="0 0" imageRepeat="None" />
    <mask fill="white" id="Clip1111">
      <path d="M 49.338581314878894 18.025000000000006  C 50.105190314556694 16.724180704160204  50.105190314556694 15.109729330441866  49.338581314878894 13.808910034602064  C 44.46107266435985 5.531920415224903  35.36418685121106 0  25 0  C 14.631487889273359 0  5.536678200692037 5.535813148788918  0.6614186851211059 13.808910034602064  C -0.10518722308171392 15.10976115364457  -0.10518722308171392 16.724235386147825  0.6614186851211059 18.025086505190302  C 5.5390138408304495 26.301989619377167  14.635813148788927 31.83391003460207  25 31.83391003460207  C 35.36851211072664 31.83391003460207  44.46332179930795 26.298096885813152  49.338581314878894 18.025000000000006  Z M 45.76124567474048 15.916955017301035  C 41.61695501730105 22.94974048442907  33.87162629757785 27.681660899653963  25 27.681660899653963  C 16.128373702422152 27.681660899653963  8.383131487889273 22.94974048442907  4.238754325259521 15.916955017301035  C 8.058564013840822 9.434861591695494  14.937456747404838 4.907439446366794  22.937889273356404 4.238148788927333  C 23.785294117647055 5.1105536332179895  24.30795847750865 6.300173010380632  24.30795847750865 7.612456747404849  C 24.30795847750865 10.287889273356399  22.13910034602077 12.456747404844293  19.463667820069205 12.456747404844293  C 16.78823529411764 12.456747404844293  14.61937716262976 10.287889273356399  14.61937716262976 7.612456747404849  L 14.619463667820071 7.608823529411751  C 13.736505190311417 9.259775086505186  13.23529411764706 11.145674740484424  13.23529411764706 13.14878892733563  C 13.23529411764706 19.64628027681661  18.502508650519033 24.913494809688586  25 24.913494809688586  C 31.49749134948098 24.913494809688586  36.76470588235293 19.64628027681661  36.76470588235293 13.14878892733563  C 36.76470588235293 10.464446366782  35.86505190311419 7.990570934256056  34.35164359861591 6.010813148788941  C 39.161245674740485 8.013667820069202  43.16686851211074 11.514359861591686  45.76124567474048 15.916955017301035  Z " fill-rule="evenodd" />
    </mask>
  </defs>
  <g>
    <path d="M 49.338581314878894 18.025000000000006  C 50.105190314556694 16.724180704160204  50.105190314556694 15.109729330441866  49.338581314878894 13.808910034602064  C 44.46107266435985 5.531920415224903  35.36418685121106 0  25 0  C 14.631487889273359 0  5.536678200692037 5.535813148788918  0.6614186851211059 13.808910034602064  C -0.10518722308171392 15.10976115364457  -0.10518722308171392 16.724235386147825  0.6614186851211059 18.025086505190302  C 5.5390138408304495 26.301989619377167  14.635813148788927 31.83391003460207  25 31.83391003460207  C 35.36851211072664 31.83391003460207  44.46332179930795 26.298096885813152  49.338581314878894 18.025000000000006  Z M 45.76124567474048 15.916955017301035  C 41.61695501730105 22.94974048442907  33.87162629757785 27.681660899653963  25 27.681660899653963  C 16.128373702422152 27.681660899653963  8.383131487889273 22.94974048442907  4.238754325259521 15.916955017301035  C 8.058564013840822 9.434861591695494  14.937456747404838 4.907439446366794  22.937889273356404 4.238148788927333  C 23.785294117647055 5.1105536332179895  24.30795847750865 6.300173010380632  24.30795847750865 7.612456747404849  C 24.30795847750865 10.287889273356399  22.13910034602077 12.456747404844293  19.463667820069205 12.456747404844293  C 16.78823529411764 12.456747404844293  14.61937716262976 10.287889273356399  14.61937716262976 7.612456747404849  L 14.619463667820071 7.608823529411751  C 13.736505190311417 9.259775086505186  13.23529411764706 11.145674740484424  13.23529411764706 13.14878892733563  C 13.23529411764706 19.64628027681661  18.502508650519033 24.913494809688586  25 24.913494809688586  C 31.49749134948098 24.913494809688586  36.76470588235293 19.64628027681661  36.76470588235293 13.14878892733563  C 36.76470588235293 10.464446366782  35.86505190311419 7.990570934256056  34.35164359861591 6.010813148788941  C 39.161245674740485 8.013667820069202  43.16686851211074 11.514359861591686  45.76124567474048 15.916955017301035  Z " fill-rule="nonzero" fill="rgba(0, 0, 0, 1)" stroke="none" class="fill" />
    <path d="M 49.338581314878894 18.025000000000006  C 50.105190314556694 16.724180704160204  50.105190314556694 15.109729330441866  49.338581314878894 13.808910034602064  C 44.46107266435985 5.531920415224903  35.36418685121106 0  25 0  C 14.631487889273359 0  5.536678200692037 5.535813148788918  0.6614186851211059 13.808910034602064  C -0.10518722308171392 15.10976115364457  -0.10518722308171392 16.724235386147825  0.6614186851211059 18.025086505190302  C 5.5390138408304495 26.301989619377167  14.635813148788927 31.83391003460207  25 31.83391003460207  C 35.36851211072664 31.83391003460207  44.46332179930795 26.298096885813152  49.338581314878894 18.025000000000006  Z " stroke-width="0" stroke-dasharray="0" stroke="rgba(255, 255, 255, 0)" fill="none" class="stroke" mask="url(#Clip1111)" />
    <path d="M 45.76124567474048 15.916955017301035  C 41.61695501730105 22.94974048442907  33.87162629757785 27.681660899653963  25 27.681660899653963  C 16.128373702422152 27.681660899653963  8.383131487889273 22.94974048442907  4.238754325259521 15.916955017301035  C 8.058564013840822 9.434861591695494  14.937456747404838 4.907439446366794  22.937889273356404 4.238148788927333  C 23.785294117647055 5.1105536332179895  24.30795847750865 6.300173010380632  24.30795847750865 7.612456747404849  C 24.30795847750865 10.287889273356399  22.13910034602077 12.456747404844293  19.463667820069205 12.456747404844293  C 16.78823529411764 12.456747404844293  14.61937716262976 10.287889273356399  14.61937716262976 7.612456747404849  L 14.619463667820071 7.608823529411751  C 13.736505190311417 9.259775086505186  13.23529411764706 11.145674740484424  13.23529411764706 13.14878892733563  C 13.23529411764706 19.64628027681661  18.502508650519033 24.913494809688586  25 24.913494809688586  C 31.49749134948098 24.913494809688586  36.76470588235293 19.64628027681661  36.76470588235293 13.14878892733563  C 36.76470588235293 10.464446366782  35.86505190311419 7.990570934256056  34.35164359861591 6.010813148788941  C 39.161245674740485 8.013667820069202  43.16686851211074 11.514359861591686  45.76124567474048 15.916955017301035  Z " stroke-width="0" stroke-dasharray="0" stroke="rgba(255, 255, 255, 0)" fill="none" class="stroke" mask="url(#Clip1111)" />
  </g>
</svg>