<?xml version="1.0" encoding="utf-8"?>
<svg version="1.1" xmlns:xlink="http://www.w3.org/1999/xlink" width="21px" height="24px" xmlns="http://www.w3.org/2000/svg">
  <defs>
    <pattern id="BGPattern" patternUnits="userSpaceOnUse" alignment="0 0" imageRepeat="None" />
    <mask fill="white" id="Clip5600">
      <path d="M 14.25 0  L 21 6.75  L 21 21  C 21 22.65685424949238  19.65685424949238 24  18 24  L 16.5 24  L 16.5 22.5  L 18 22.5  C 18.82842712474619 22.5  19.5 21.82842712474619  19.5 21  L 19.5 6.75  L 16.5 6.75  C 15.257359312880716 6.75  14.25 5.742640687119285  14.25 4.5  L 14.25 1.5  L 6 1.5  C 5.17157287525381 1.5  4.5 2.1715728752538097  4.5 3  L 4.5 16.5  L 3 16.5  L 3 3  C 3 1.3431457505076196  4.343145750507619 0  6 0  L 14.25 0  Z M 4.8165000000000004 17.775000000000006  L 4.8149999999999995 17.775  L 3.5099999999999993 17.775  L 1.2449999999999999 20.46  L 1.185 20.46  L 1.185 17.775000000000002  L 0 17.775000000000002  L 0 23.773500000000002  L 1.1865 23.773500000000002  L 1.1865 21.849000000000004  L 1.8014999999999999 21.150000000000006  L 3.4815000000000005 23.773500000000006  L 4.908 23.773500000000006  L 2.676 20.359500000000004  L 4.8165000000000004 17.775000000000006  Z M 9.1695 23.7735  L 9.1695 22.803  L 6.484499999999999 22.803  L 6.484499999999999 21.1935  L 9.011999999999999 21.1935  L 9.011999999999999 20.2845  L 6.484500000000001 20.2845  L 6.484500000000001 18.747  L 9.169500000000001 18.747  L 9.169500000000001 17.775  L 5.306999999999999 17.775  L 5.306999999999999 23.7735  L 9.1695 23.7735  Z M 14.544 17.775  L 12.533999999999997 21.471  L 12.533999999999997 23.7735  L 11.343 23.7735  L 11.343 21.4935  L 9.3345 17.775  L 10.649999999999999 17.775  L 11.929499999999999 20.319  L 11.9775 20.319  L 13.26 17.775  L 14.544 17.775  Z " fill-rule="evenodd" />
    </mask>
  </defs>
  <g>
    <path d="M 14.25 0  L 21 6.75  L 21 21  C 21 22.65685424949238  19.65685424949238 24  18 24  L 16.5 24  L 16.5 22.5  L 18 22.5  C 18.82842712474619 22.5  19.5 21.82842712474619  19.5 21  L 19.5 6.75  L 16.5 6.75  C 15.257359312880716 6.75  14.25 5.742640687119285  14.25 4.5  L 14.25 1.5  L 6 1.5  C 5.17157287525381 1.5  4.5 2.1715728752538097  4.5 3  L 4.5 16.5  L 3 16.5  L 3 3  C 3 1.3431457505076196  4.343145750507619 0  6 0  L 14.25 0  Z M 4.8165000000000004 17.775000000000006  L 4.8149999999999995 17.775  L 3.5099999999999993 17.775  L 1.2449999999999999 20.46  L 1.185 20.46  L 1.185 17.775000000000002  L 0 17.775000000000002  L 0 23.773500000000002  L 1.1865 23.773500000000002  L 1.1865 21.849000000000004  L 1.8014999999999999 21.150000000000006  L 3.4815000000000005 23.773500000000006  L 4.908 23.773500000000006  L 2.676 20.359500000000004  L 4.8165000000000004 17.775000000000006  Z M 9.1695 23.7735  L 9.1695 22.803  L 6.484499999999999 22.803  L 6.484499999999999 21.1935  L 9.011999999999999 21.1935  L 9.011999999999999 20.2845  L 6.484500000000001 20.2845  L 6.484500000000001 18.747  L 9.169500000000001 18.747  L 9.169500000000001 17.775  L 5.306999999999999 17.775  L 5.306999999999999 23.7735  L 9.1695 23.7735  Z M 14.544 17.775  L 12.533999999999997 21.471  L 12.533999999999997 23.7735  L 11.343 23.7735  L 11.343 21.4935  L 9.3345 17.775  L 10.649999999999999 17.775  L 11.929499999999999 20.319  L 11.9775 20.319  L 13.26 17.775  L 14.544 17.775  Z " fill-rule="nonzero" fill="rgba(0, 0, 0, 1)" stroke="none" class="fill" />
    <path d="M 14.25 0  L 21 6.75  L 21 21  C 21 22.65685424949238  19.65685424949238 24  18 24  L 16.5 24  L 16.5 22.5  L 18 22.5  C 18.82842712474619 22.5  19.5 21.82842712474619  19.5 21  L 19.5 6.75  L 16.5 6.75  C 15.257359312880716 6.75  14.25 5.742640687119285  14.25 4.5  L 14.25 1.5  L 6 1.5  C 5.17157287525381 1.5  4.5 2.1715728752538097  4.5 3  L 4.5 16.5  L 3 16.5  L 3 3  C 3 1.3431457505076196  4.343145750507619 0  6 0  L 14.25 0  Z " stroke-width="0" stroke-dasharray="0" stroke="rgba(255, 255, 255, 0)" fill="none" class="stroke" mask="url(#Clip5600)" />
    <path d="M 4.8165000000000004 17.775000000000006  L 4.8149999999999995 17.775  L 3.5099999999999993 17.775  L 1.2449999999999999 20.46  L 1.185 20.46  L 1.185 17.775000000000002  L 0 17.775000000000002  L 0 23.773500000000002  L 1.1865 23.773500000000002  L 1.1865 21.849000000000004  L 1.8014999999999999 21.150000000000006  L 3.4815000000000005 23.773500000000006  L 4.908 23.773500000000006  L 2.676 20.359500000000004  L 4.8165000000000004 17.775000000000006  Z " stroke-width="0" stroke-dasharray="0" stroke="rgba(255, 255, 255, 0)" fill="none" class="stroke" mask="url(#Clip5600)" />
    <path d="M 9.1695 23.7735  L 9.1695 22.803  L 6.484499999999999 22.803  L 6.484499999999999 21.1935  L 9.011999999999999 21.1935  L 9.011999999999999 20.2845  L 6.484500000000001 20.2845  L 6.484500000000001 18.747  L 9.169500000000001 18.747  L 9.169500000000001 17.775  L 5.306999999999999 17.775  L 5.306999999999999 23.7735  L 9.1695 23.7735  Z " stroke-width="0" stroke-dasharray="0" stroke="rgba(255, 255, 255, 0)" fill="none" class="stroke" mask="url(#Clip5600)" />
    <path d="M 14.544 17.775  L 12.533999999999997 21.471  L 12.533999999999997 23.7735  L 11.343 23.7735  L 11.343 21.4935  L 9.3345 17.775  L 10.649999999999999 17.775  L 11.929499999999999 20.319  L 11.9775 20.319  L 13.26 17.775  L 14.544 17.775  Z " stroke-width="0" stroke-dasharray="0" stroke="rgba(255, 255, 255, 0)" fill="none" class="stroke" mask="url(#Clip5600)" />
  </g>
</svg>