<?xml version="1.0" encoding="utf-8"?>
<svg version="1.1" xmlns:xlink="http://www.w3.org/1999/xlink" width="8px" height="14px" xmlns="http://www.w3.org/2000/svg">
  <defs>
    <pattern id="BGPattern" patternUnits="userSpaceOnUse" alignment="0 0" imageRepeat="None" />
    <mask fill="white" id="Clip6004">
      <path d="M 0.25 1  C 0.25 0.5857864376269051  0.5857864376269042 0.25  1 0.25  C 1.4142135623730958 0.25  1.75 0.5857864376269051  1.75 1  L 1.75 13  C 1.75 13.414213562373096  1.4142135623730958 13.75  1 13.75  C 0.5857864376269042 13.75  0.25 13.414213562373096  0.25 13  L 0.25 1  Z M 6.25 1  C 6.25 0.5857864376269051  6.585786437626904 0.25  7 0.25  C 7.414213562373096 0.25  7.75 0.5857864376269051  7.75 1  L 7.75 13  C 7.75 13.414213562373096  7.414213562373096 13.75  7 13.75  C 6.585786437626904 13.75  6.25 13.414213562373096  6.25 13  L 6.25 1  Z " fill-rule="evenodd" />
    </mask>
  </defs>
  <g>
    <path d="M 0.25 1  C 0.25 0.5857864376269051  0.5857864376269042 0.25  1 0.25  C 1.4142135623730958 0.25  1.75 0.5857864376269051  1.75 1  L 1.75 13  C 1.75 13.414213562373096  1.4142135623730958 13.75  1 13.75  C 0.5857864376269042 13.75  0.25 13.414213562373096  0.25 13  L 0.25 1  Z M 6.25 1  C 6.25 0.5857864376269051  6.585786437626904 0.25  7 0.25  C 7.414213562373096 0.25  7.75 0.5857864376269051  7.75 1  L 7.75 13  C 7.75 13.414213562373096  7.414213562373096 13.75  7 13.75  C 6.585786437626904 13.75  6.25 13.414213562373096  6.25 13  L 6.25 1  Z " fill-rule="nonzero" fill="rgba(0, 0, 0, 1)" stroke="none" class="fill" />
    <path d="M 0.25 1  C 0.25 0.5857864376269051  0.5857864376269042 0.25  1 0.25  C 1.4142135623730958 0.25  1.75 0.5857864376269051  1.75 1  L 1.75 13  C 1.75 13.414213562373096  1.4142135623730958 13.75  1 13.75  C 0.5857864376269042 13.75  0.25 13.414213562373096  0.25 13  L 0.25 1  Z " stroke-width="0" stroke-dasharray="0" stroke="rgba(255, 255, 255, 0)" fill="none" class="stroke" mask="url(#Clip6004)" />
    <path d="M 6.25 1  C 6.25 0.5857864376269051  6.585786437626904 0.25  7 0.25  C 7.414213562373096 0.25  7.75 0.5857864376269051  7.75 1  L 7.75 13  C 7.75 13.414213562373096  7.414213562373096 13.75  7 13.75  C 6.585786437626904 13.75  6.25 13.414213562373096  6.25 13  L 6.25 1  Z " stroke-width="0" stroke-dasharray="0" stroke="rgba(255, 255, 255, 0)" fill="none" class="stroke" mask="url(#Clip6004)" />
  </g>
</svg>