<?xml version="1.0" encoding="utf-8"?>
<svg version="1.1" xmlns:xlink="http://www.w3.org/1999/xlink" width="18px" height="17px" xmlns="http://www.w3.org/2000/svg">
  <defs>
    <pattern id="BGPattern" patternUnits="userSpaceOnUse" alignment="0 0" imageRepeat="None" />
    <mask fill="white" id="Clip3797">
      <path d="M 0.46000000000000085 4.22  L 2.130000000000001 5.89  L 2.8000000000000007 3  L 10.8 3  L 8.8 12  L 14 12  L 11.509999999999998 15.25  L 12.939999999999998 16.68  L 16.81 11.61  C 17.023876064456374 11.32072062143385  17.065881534227746 10.938852714421403  16.919999999999998 10.61  C 16.763500803504176 10.240495051544684  16.40128019946181 10.000327042342679  16 10  L 11.25 10  L 13 2.2200000000000006  C 13.067094633381693 1.9209888367813148  12.993384764298174 1.6077218931763642  12.8 1.37  C 12.605001877778022 1.1294574969682918  12.309569722080898 0.9928201249583724  12 1  L 2 1  C 1.5263385010646484 0.9873368608896369  1.1088118287316355 1.3088323985860568  1 1.77  L 0.46000000000000085 4.22  Z " fill-rule="evenodd" />
    </mask>
  </defs>
  <g transform="matrix(1 0 0 1 -9 -1 )">
    <path d="M 0.46000000000000085 4.22  L 2.130000000000001 5.89  L 2.8000000000000007 3  L 10.8 3  L 8.8 12  L 14 12  L 11.509999999999998 15.25  L 12.939999999999998 16.68  L 16.81 11.61  C 17.023876064456374 11.32072062143385  17.065881534227746 10.938852714421403  16.919999999999998 10.61  C 16.763500803504176 10.240495051544684  16.40128019946181 10.000327042342679  16 10  L 11.25 10  L 13 2.2200000000000006  C 13.067094633381693 1.9209888367813148  12.993384764298174 1.6077218931763642  12.8 1.37  C 12.605001877778022 1.1294574969682918  12.309569722080898 0.9928201249583724  12 1  L 2 1  C 1.5263385010646484 0.9873368608896369  1.1088118287316355 1.3088323985860568  1 1.77  L 0.46000000000000085 4.22  Z " fill-rule="nonzero" fill="rgba(0, 0, 0, 1)" stroke="none" transform="matrix(1 0 0 1 9 1 )" class="fill" />
    <path d="M 0.46000000000000085 4.22  L 2.130000000000001 5.89  L 2.8000000000000007 3  L 10.8 3  L 8.8 12  L 14 12  L 11.509999999999998 15.25  L 12.939999999999998 16.68  L 16.81 11.61  C 17.023876064456374 11.32072062143385  17.065881534227746 10.938852714421403  16.919999999999998 10.61  C 16.763500803504176 10.240495051544684  16.40128019946181 10.000327042342679  16 10  L 11.25 10  L 13 2.2200000000000006  C 13.067094633381693 1.9209888367813148  12.993384764298174 1.6077218931763642  12.8 1.37  C 12.605001877778022 1.1294574969682918  12.309569722080898 0.9928201249583724  12 1  L 2 1  C 1.5263385010646484 0.9873368608896369  1.1088118287316355 1.3088323985860568  1 1.77  L 0.46000000000000085 4.22  Z " stroke-width="0" stroke-dasharray="0" stroke="rgba(255, 255, 255, 0)" fill="none" transform="matrix(1 0 0 1 9 1 )" class="stroke" mask="url(#Clip3797)" />
  </g>
</svg>