<?xml version="1.0" encoding="utf-8"?>
<svg version="1.1" xmlns:xlink="http://www.w3.org/1999/xlink" width="48px" height="48px" xmlns="http://www.w3.org/2000/svg">
  <defs>
    <pattern id="BGPattern" patternUnits="userSpaceOnUse" alignment="0 0" imageRepeat="None" />
    <mask fill="white" id="Clip7386">
      <path d="M 48 24  C 48 10.746000000000002  37.254 0  24 0  C 10.746 0  0 10.746  0 24  C 0 37.254  10.746 48  24 48  C 37.254 48  48 37.254  48 24  Z M 39.858000000000004 9.928  L 39.856 9.932  L 39.940000000000005 11.684000000000001  L 38.108000000000004 11.998000000000001  C 36.69800000000001 12.386  35.468 12.928  34.422000000000004 13.623999999999999  C 33.376000000000005 14.32  32.49 15.084  31.762000000000008 15.92  C 31.055385226527257 16.731120896992348  30.458285999790427 17.63147660037143  29.986000000000004 18.598  L 29.954 18.669999999999998  C 29.468000000000004 19.682  29.036000000000005 20.75  28.654000000000003 21.867999999999995  C 29.437996919278536 21.194299846585857  30.321862166900804 20.646438334319235  31.274000000000008 20.244  L 31.340000000000003 20.22  C 32.382000000000005 19.773999999999997  33.622 19.549999999999997  35.068000000000005 19.549999999999997  C 36.746 19.549999999999997  38.154 20.141999999999996  39.290000000000006 21.317999999999998  C 40.42600000000001 22.494  40.99600000000001 24.028  40.99600000000001 25.914  C 40.99600000000001 28.732  39.91400000000001 31.169999999999995  37.74800000000001 33.232  C 35.582000000000015 35.294  32.92000000000001 36.326  29.76400000000001 36.326  C 27.254000000000012 36.326  25.25200000000001 35.578  23.75800000000001 34.082  C 22.26400000000001 32.586  21.518000000000008 30.595999999999997  21.518000000000008 28.119999999999997  C 21.518000000000008 23.394000000000002  23.198000000000008 19.346000000000004  26.558000000000007 15.974  C 29.918000000000006 12.601999999999997  34.348000000000006 10.59  39.858000000000004 9.928  Z M 15.852000000000002 18.204  L 15.85 18.206  C 16.72 18.206  17.526 18.259999999999998  18.272 18.368  C 19.048 18.477999999999998  19.75 18.686  20.401999999999997 18.982  L 20.354 18.962  C 20.926 19.222  21.402 19.605999999999998  21.764 20.082  L 21.77 20.09  C 22.108 20.554  22.274 21.116  22.274 21.778  C 22.274 22.439999999999998  22.038 23.006  21.562 23.482  C 21.088 23.958  20.464000000000002 24.193999999999996  19.696 24.193999999999996  C 19.032 24.193999999999996  18.482000000000003 24.012  18.040000000000003 23.65  C 17.598000000000003 23.287999999999997  17.242000000000004 22.862  16.966 22.366  C 16.692 21.86  16.472 21.334  16.312 20.798  C 16.152 20.261999999999997  16.02 19.811999999999998  15.918 19.45  C 15.116 19.497999999999998  14.388000000000002 19.806  13.73 20.368  C 13.072 20.929999999999996  12.740000000000002 21.625999999999998  12.740000000000002 22.459999999999997  C 12.740000000000002 22.965999999999998  12.818000000000001 23.363999999999997  12.972 23.651999999999997  C 13.125999999999998 23.939999999999998  13.34 24.182  13.594000000000001 24.367999999999995  L 13.6 24.372  C 13.924 24.602  14.296 24.805999999999997  14.687999999999999 24.964  L 14.723999999999998 24.976  C 15.025999999999996 25.114000000000004  15.585999999999999 25.33  16.151999999999997 25.534  L 16.415999999999997 25.616  C 17.971999999999998 26.192  19.145999999999997 26.886  19.935999999999996 27.692  C 20.577999999999996 28.348  20.953999999999997 29.176000000000002  21.073999999999998 30.174  C 21.058 29.939999999999998  21.308 32.391999999999996  21.11 30.54  C 21.114 30.651999999999997  21.122 30.766  21.122 30.881999999999998  C 21.122 31.747999999999998  20.928 32.576  20.544 33.372  C 20.16 34.168  19.616 34.828  18.908 35.356  C 18.09978273809011 35.939677953477  17.195396862188943 36.3769783096388  16.236 36.648  L 16.176000000000002 36.662000000000006  C 15.144000000000002 36.956  13.832000000000004 37.104000000000006  12.242 37.104000000000006  C 10.798000000000002 37.104000000000006  9.606000000000002 36.982000000000006  8.664000000000001 36.736000000000004  C 7.722000000000001 36.49  6.974000000000002 36.172000000000004  6.424000000000001 35.788000000000004  C 5.862000000000001 35.402  5.4780000000000015 34.992000000000004  5.274000000000001 34.554  C 5.07 34.116  4.964000000000001 33.704  4.964000000000001 33.32  C 4.964000000000001 32.622  5.214000000000001 32.01  5.710000000000001 31.488  C 6.2059999999999995 30.966  6.870000000000001 30.706  7.692000000000002 30.706  C 8.38 30.706  8.954 30.89  9.418000000000001 31.262  C 9.89 31.648  10.278 32.114  10.566 32.644  L 10.578000000000001 32.668  C 10.850000000000001 33.156  11.096000000000002 33.724  11.282000000000002 34.316  L 11.300000000000002 34.38  C 11.370000000000003 34.56  11.512000000000002 35.024  11.644000000000002 35.492000000000004  L 11.712000000000002 35.77  C 13.006 35.77  13.986 35.482000000000006  14.650000000000002 34.898  C 15.314000000000004 34.314  15.646000000000004 33.516000000000005  15.646000000000004 32.506  C 15.646000000000004 32.062  15.546000000000003 31.690000000000005  15.346000000000002 31.39  C 15.146 31.09  14.878000000000004 30.823999999999998  14.548000000000002 30.594  C 14.216000000000001 30.378  13.794000000000002 30.168000000000003  13.278000000000002 29.964000000000006  C 12.762 29.759999999999998  12.252000000000002 29.567999999999998  11.748000000000003 29.386000000000003  C 10.362000000000004 28.894000000000002  9.268000000000002 28.212000000000003  8.460000000000003 27.340000000000003  C 7.652000000000003 26.468000000000004  7.250000000000002 25.384  7.250000000000002 24.084000000000003  L 7.250000000000002 24.058  C 7.250000000000002 23.276000000000003  7.4360000000000035 22.538000000000004  7.7680000000000025 21.884000000000004  L 7.756000000000002 21.912000000000003  C 8.096000000000004 21.232000000000003  8.624000000000002 20.604000000000003  9.344000000000003 20.024  C 10.054000000000002 19.472  10.952000000000004 19.032  12.040000000000003 18.702  C 13.128 18.372000000000003  14.398000000000003 18.204  15.852000000000002 18.204  Z M 31.883999999999993 21.951999999999995  L 31.884 21.954  C 31.226 21.954  30.604 22.086000000000002  30.018 22.352  C 29.432000000000002 22.618  28.808 23.146  28.150000000000006 23.936  C 28.07 24.302  27.932000000000002 25.004  27.730000000000004 26.046  C 27.528 27.087999999999994  27.426000000000002 28.369999999999997  27.426000000000002 29.892000000000003  C 27.426000000000002 31.448  27.672 32.66  28.156 33.532  C 28.640000000000008 34.403999999999996  29.288000000000004 34.842  30.092 34.842  C 31.344 34.842  32.428000000000004 33.978  33.348 32.251999999999995  L 33.352 32.251999999999995  C 34.272 30.523999999999994  34.732 28.427999999999997  34.732 25.964  C 34.732 24.727999999999994  34.464 23.747999999999994  33.928 23.027999999999995  C 33.391999999999996 22.307999999999996  32.711999999999996 21.951999999999995  31.883999999999993 21.951999999999995  Z " fill-rule="evenodd" />
    </mask>
  </defs>
  <g>
    <path d="M 48 24  C 48 10.746000000000002  37.254 0  24 0  C 10.746 0  0 10.746  0 24  C 0 37.254  10.746 48  24 48  C 37.254 48  48 37.254  48 24  Z M 39.858000000000004 9.928  L 39.856 9.932  L 39.940000000000005 11.684000000000001  L 38.108000000000004 11.998000000000001  C 36.69800000000001 12.386  35.468 12.928  34.422000000000004 13.623999999999999  C 33.376000000000005 14.32  32.49 15.084  31.762000000000008 15.92  C 31.055385226527257 16.731120896992348  30.458285999790427 17.63147660037143  29.986000000000004 18.598  L 29.954 18.669999999999998  C 29.468000000000004 19.682  29.036000000000005 20.75  28.654000000000003 21.867999999999995  C 29.437996919278536 21.194299846585857  30.321862166900804 20.646438334319235  31.274000000000008 20.244  L 31.340000000000003 20.22  C 32.382000000000005 19.773999999999997  33.622 19.549999999999997  35.068000000000005 19.549999999999997  C 36.746 19.549999999999997  38.154 20.141999999999996  39.290000000000006 21.317999999999998  C 40.42600000000001 22.494  40.99600000000001 24.028  40.99600000000001 25.914  C 40.99600000000001 28.732  39.91400000000001 31.169999999999995  37.74800000000001 33.232  C 35.582000000000015 35.294  32.92000000000001 36.326  29.76400000000001 36.326  C 27.254000000000012 36.326  25.25200000000001 35.578  23.75800000000001 34.082  C 22.26400000000001 32.586  21.518000000000008 30.595999999999997  21.518000000000008 28.119999999999997  C 21.518000000000008 23.394000000000002  23.198000000000008 19.346000000000004  26.558000000000007 15.974  C 29.918000000000006 12.601999999999997  34.348000000000006 10.59  39.858000000000004 9.928  Z M 15.852000000000002 18.204  L 15.85 18.206  C 16.72 18.206  17.526 18.259999999999998  18.272 18.368  C 19.048 18.477999999999998  19.75 18.686  20.401999999999997 18.982  L 20.354 18.962  C 20.926 19.222  21.402 19.605999999999998  21.764 20.082  L 21.77 20.09  C 22.108 20.554  22.274 21.116  22.274 21.778  C 22.274 22.439999999999998  22.038 23.006  21.562 23.482  C 21.088 23.958  20.464000000000002 24.193999999999996  19.696 24.193999999999996  C 19.032 24.193999999999996  18.482000000000003 24.012  18.040000000000003 23.65  C 17.598000000000003 23.287999999999997  17.242000000000004 22.862  16.966 22.366  C 16.692 21.86  16.472 21.334  16.312 20.798  C 16.152 20.261999999999997  16.02 19.811999999999998  15.918 19.45  C 15.116 19.497999999999998  14.388000000000002 19.806  13.73 20.368  C 13.072 20.929999999999996  12.740000000000002 21.625999999999998  12.740000000000002 22.459999999999997  C 12.740000000000002 22.965999999999998  12.818000000000001 23.363999999999997  12.972 23.651999999999997  C 13.125999999999998 23.939999999999998  13.34 24.182  13.594000000000001 24.367999999999995  L 13.6 24.372  C 13.924 24.602  14.296 24.805999999999997  14.687999999999999 24.964  L 14.723999999999998 24.976  C 15.025999999999996 25.114000000000004  15.585999999999999 25.33  16.151999999999997 25.534  L 16.415999999999997 25.616  C 17.971999999999998 26.192  19.145999999999997 26.886  19.935999999999996 27.692  C 20.577999999999996 28.348  20.953999999999997 29.176000000000002  21.073999999999998 30.174  C 21.058 29.939999999999998  21.308 32.391999999999996  21.11 30.54  C 21.114 30.651999999999997  21.122 30.766  21.122 30.881999999999998  C 21.122 31.747999999999998  20.928 32.576  20.544 33.372  C 20.16 34.168  19.616 34.828  18.908 35.356  C 18.09978273809011 35.939677953477  17.195396862188943 36.3769783096388  16.236 36.648  L 16.176000000000002 36.662000000000006  C 15.144000000000002 36.956  13.832000000000004 37.104000000000006  12.242 37.104000000000006  C 10.798000000000002 37.104000000000006  9.606000000000002 36.982000000000006  8.664000000000001 36.736000000000004  C 7.722000000000001 36.49  6.974000000000002 36.172000000000004  6.424000000000001 35.788000000000004  C 5.862000000000001 35.402  5.4780000000000015 34.992000000000004  5.274000000000001 34.554  C 5.07 34.116  4.964000000000001 33.704  4.964000000000001 33.32  C 4.964000000000001 32.622  5.214000000000001 32.01  5.710000000000001 31.488  C 6.2059999999999995 30.966  6.870000000000001 30.706  7.692000000000002 30.706  C 8.38 30.706  8.954 30.89  9.418000000000001 31.262  C 9.89 31.648  10.278 32.114  10.566 32.644  L 10.578000000000001 32.668  C 10.850000000000001 33.156  11.096000000000002 33.724  11.282000000000002 34.316  L 11.300000000000002 34.38  C 11.370000000000003 34.56  11.512000000000002 35.024  11.644000000000002 35.492000000000004  L 11.712000000000002 35.77  C 13.006 35.77  13.986 35.482000000000006  14.650000000000002 34.898  C 15.314000000000004 34.314  15.646000000000004 33.516000000000005  15.646000000000004 32.506  C 15.646000000000004 32.062  15.546000000000003 31.690000000000005  15.346000000000002 31.39  C 15.146 31.09  14.878000000000004 30.823999999999998  14.548000000000002 30.594  C 14.216000000000001 30.378  13.794000000000002 30.168000000000003  13.278000000000002 29.964000000000006  C 12.762 29.759999999999998  12.252000000000002 29.567999999999998  11.748000000000003 29.386000000000003  C 10.362000000000004 28.894000000000002  9.268000000000002 28.212000000000003  8.460000000000003 27.340000000000003  C 7.652000000000003 26.468000000000004  7.250000000000002 25.384  7.250000000000002 24.084000000000003  L 7.250000000000002 24.058  C 7.250000000000002 23.276000000000003  7.4360000000000035 22.538000000000004  7.7680000000000025 21.884000000000004  L 7.756000000000002 21.912000000000003  C 8.096000000000004 21.232000000000003  8.624000000000002 20.604000000000003  9.344000000000003 20.024  C 10.054000000000002 19.472  10.952000000000004 19.032  12.040000000000003 18.702  C 13.128 18.372000000000003  14.398000000000003 18.204  15.852000000000002 18.204  Z M 31.883999999999993 21.951999999999995  L 31.884 21.954  C 31.226 21.954  30.604 22.086000000000002  30.018 22.352  C 29.432000000000002 22.618  28.808 23.146  28.150000000000006 23.936  C 28.07 24.302  27.932000000000002 25.004  27.730000000000004 26.046  C 27.528 27.087999999999994  27.426000000000002 28.369999999999997  27.426000000000002 29.892000000000003  C 27.426000000000002 31.448  27.672 32.66  28.156 33.532  C 28.640000000000008 34.403999999999996  29.288000000000004 34.842  30.092 34.842  C 31.344 34.842  32.428000000000004 33.978  33.348 32.251999999999995  L 33.352 32.251999999999995  C 34.272 30.523999999999994  34.732 28.427999999999997  34.732 25.964  C 34.732 24.727999999999994  34.464 23.747999999999994  33.928 23.027999999999995  C 33.391999999999996 22.307999999999996  32.711999999999996 21.951999999999995  31.883999999999993 21.951999999999995  Z " fill-rule="nonzero" fill="rgba(0, 0, 0, 1)" stroke="none" class="fill" />
    <path d="M 48 24  C 48 10.746000000000002  37.254 0  24 0  C 10.746 0  0 10.746  0 24  C 0 37.254  10.746 48  24 48  C 37.254 48  48 37.254  48 24  Z " stroke-width="0" stroke-dasharray="0" stroke="rgba(255, 255, 255, 0)" fill="none" class="stroke" mask="url(#Clip7386)" />
    <path d="M 39.858000000000004 9.928  L 39.856 9.932  L 39.940000000000005 11.684000000000001  L 38.108000000000004 11.998000000000001  C 36.69800000000001 12.386  35.468 12.928  34.422000000000004 13.623999999999999  C 33.376000000000005 14.32  32.49 15.084  31.762000000000008 15.92  C 31.055385226527257 16.731120896992348  30.458285999790427 17.63147660037143  29.986000000000004 18.598  L 29.954 18.669999999999998  C 29.468000000000004 19.682  29.036000000000005 20.75  28.654000000000003 21.867999999999995  C 29.437996919278536 21.194299846585857  30.321862166900804 20.646438334319235  31.274000000000008 20.244  L 31.340000000000003 20.22  C 32.382000000000005 19.773999999999997  33.622 19.549999999999997  35.068000000000005 19.549999999999997  C 36.746 19.549999999999997  38.154 20.141999999999996  39.290000000000006 21.317999999999998  C 40.42600000000001 22.494  40.99600000000001 24.028  40.99600000000001 25.914  C 40.99600000000001 28.732  39.91400000000001 31.169999999999995  37.74800000000001 33.232  C 35.582000000000015 35.294  32.92000000000001 36.326  29.76400000000001 36.326  C 27.254000000000012 36.326  25.25200000000001 35.578  23.75800000000001 34.082  C 22.26400000000001 32.586  21.518000000000008 30.595999999999997  21.518000000000008 28.119999999999997  C 21.518000000000008 23.394000000000002  23.198000000000008 19.346000000000004  26.558000000000007 15.974  C 29.918000000000006 12.601999999999997  34.348000000000006 10.59  39.858000000000004 9.928  Z " stroke-width="0" stroke-dasharray="0" stroke="rgba(255, 255, 255, 0)" fill="none" class="stroke" mask="url(#Clip7386)" />
    <path d="M 15.852000000000002 18.204  L 15.85 18.206  C 16.72 18.206  17.526 18.259999999999998  18.272 18.368  C 19.048 18.477999999999998  19.75 18.686  20.401999999999997 18.982  L 20.354 18.962  C 20.926 19.222  21.402 19.605999999999998  21.764 20.082  L 21.77 20.09  C 22.108 20.554  22.274 21.116  22.274 21.778  C 22.274 22.439999999999998  22.038 23.006  21.562 23.482  C 21.088 23.958  20.464000000000002 24.193999999999996  19.696 24.193999999999996  C 19.032 24.193999999999996  18.482000000000003 24.012  18.040000000000003 23.65  C 17.598000000000003 23.287999999999997  17.242000000000004 22.862  16.966 22.366  C 16.692 21.86  16.472 21.334  16.312 20.798  C 16.152 20.261999999999997  16.02 19.811999999999998  15.918 19.45  C 15.116 19.497999999999998  14.388000000000002 19.806  13.73 20.368  C 13.072 20.929999999999996  12.740000000000002 21.625999999999998  12.740000000000002 22.459999999999997  C 12.740000000000002 22.965999999999998  12.818000000000001 23.363999999999997  12.972 23.651999999999997  C 13.125999999999998 23.939999999999998  13.34 24.182  13.594000000000001 24.367999999999995  L 13.6 24.372  C 13.924 24.602  14.296 24.805999999999997  14.687999999999999 24.964  L 14.723999999999998 24.976  C 15.025999999999996 25.114000000000004  15.585999999999999 25.33  16.151999999999997 25.534  L 16.415999999999997 25.616  C 17.971999999999998 26.192  19.145999999999997 26.886  19.935999999999996 27.692  C 20.577999999999996 28.348  20.953999999999997 29.176000000000002  21.073999999999998 30.174  C 21.058 29.939999999999998  21.308 32.391999999999996  21.11 30.54  C 21.114 30.651999999999997  21.122 30.766  21.122 30.881999999999998  C 21.122 31.747999999999998  20.928 32.576  20.544 33.372  C 20.16 34.168  19.616 34.828  18.908 35.356  C 18.09978273809011 35.939677953477  17.195396862188943 36.3769783096388  16.236 36.648  L 16.176000000000002 36.662000000000006  C 15.144000000000002 36.956  13.832000000000004 37.104000000000006  12.242 37.104000000000006  C 10.798000000000002 37.104000000000006  9.606000000000002 36.982000000000006  8.664000000000001 36.736000000000004  C 7.722000000000001 36.49  6.974000000000002 36.172000000000004  6.424000000000001 35.788000000000004  C 5.862000000000001 35.402  5.4780000000000015 34.992000000000004  5.274000000000001 34.554  C 5.07 34.116  4.964000000000001 33.704  4.964000000000001 33.32  C 4.964000000000001 32.622  5.214000000000001 32.01  5.710000000000001 31.488  C 6.2059999999999995 30.966  6.870000000000001 30.706  7.692000000000002 30.706  C 8.38 30.706  8.954 30.89  9.418000000000001 31.262  C 9.89 31.648  10.278 32.114  10.566 32.644  L 10.578000000000001 32.668  C 10.850000000000001 33.156  11.096000000000002 33.724  11.282000000000002 34.316  L 11.300000000000002 34.38  C 11.370000000000003 34.56  11.512000000000002 35.024  11.644000000000002 35.492000000000004  L 11.712000000000002 35.77  C 13.006 35.77  13.986 35.482000000000006  14.650000000000002 34.898  C 15.314000000000004 34.314  15.646000000000004 33.516000000000005  15.646000000000004 32.506  C 15.646000000000004 32.062  15.546000000000003 31.690000000000005  15.346000000000002 31.39  C 15.146 31.09  14.878000000000004 30.823999999999998  14.548000000000002 30.594  C 14.216000000000001 30.378  13.794000000000002 30.168000000000003  13.278000000000002 29.964000000000006  C 12.762 29.759999999999998  12.252000000000002 29.567999999999998  11.748000000000003 29.386000000000003  C 10.362000000000004 28.894000000000002  9.268000000000002 28.212000000000003  8.460000000000003 27.340000000000003  C 7.652000000000003 26.468000000000004  7.250000000000002 25.384  7.250000000000002 24.084000000000003  L 7.250000000000002 24.058  C 7.250000000000002 23.276000000000003  7.4360000000000035 22.538000000000004  7.7680000000000025 21.884000000000004  L 7.756000000000002 21.912000000000003  C 8.096000000000004 21.232000000000003  8.624000000000002 20.604000000000003  9.344000000000003 20.024  C 10.054000000000002 19.472  10.952000000000004 19.032  12.040000000000003 18.702  C 13.128 18.372000000000003  14.398000000000003 18.204  15.852000000000002 18.204  Z " stroke-width="0" stroke-dasharray="0" stroke="rgba(255, 255, 255, 0)" fill="none" class="stroke" mask="url(#Clip7386)" />
    <path d="M 31.883999999999993 21.951999999999995  L 31.884 21.954  C 31.226 21.954  30.604 22.086000000000002  30.018 22.352  C 29.432000000000002 22.618  28.808 23.146  28.150000000000006 23.936  C 28.07 24.302  27.932000000000002 25.004  27.730000000000004 26.046  C 27.528 27.087999999999994  27.426000000000002 28.369999999999997  27.426000000000002 29.892000000000003  C 27.426000000000002 31.448  27.672 32.66  28.156 33.532  C 28.640000000000008 34.403999999999996  29.288000000000004 34.842  30.092 34.842  C 31.344 34.842  32.428000000000004 33.978  33.348 32.251999999999995  L 33.352 32.251999999999995  C 34.272 30.523999999999994  34.732 28.427999999999997  34.732 25.964  C 34.732 24.727999999999994  34.464 23.747999999999994  33.928 23.027999999999995  C 33.391999999999996 22.307999999999996  32.711999999999996 21.951999999999995  31.883999999999993 21.951999999999995  Z " stroke-width="0" stroke-dasharray="0" stroke="rgba(255, 255, 255, 0)" fill="none" class="stroke" mask="url(#Clip7386)" />
  </g>
</svg>