<?xml version="1.0" encoding="utf-8"?>
<svg version="1.1" xmlns:xlink="http://www.w3.org/1999/xlink" width="21px" height="24px" xmlns="http://www.w3.org/2000/svg">
  <defs>
    <pattern id="BGPattern" patternUnits="userSpaceOnUse" alignment="0 0" imageRepeat="None" />
    <mask fill="white" id="Clip5584">
      <path d="M 14.25 0  L 21 6.75  L 21 21  C 21 22.65685424949238  19.65685424949238 24  18 24  L 9 24  L 9 22.5  L 18 22.5  C 18.82842712474619 22.5  19.5 21.82842712474619  19.5 21  L 19.5 6.75  L 16.5 6.75  C 15.257359312880716 6.75  14.25 5.742640687119285  14.25 4.5  L 14.25 1.5  L 6 1.5  C 5.17157287525381 1.5  4.5 2.1715728752538097  4.5 3  L 4.5 16.5  L 3 16.5  L 3 3  C 3 1.3431457505076196  4.343145750507619 0  6 0  L 14.25 0  Z M 1.6695 22.232999999999997  L 1.6695 22.23  L 1.2000000000000002 23.775  L 0 23.775  L 2.013 17.7765  L 3.402 17.7765  L 5.406000000000001 23.775  L 4.1445 23.775  L 3.6734999999999993 22.232999999999997  L 1.6695 22.232999999999997  Z M 1.9154999999999998 21.348000000000006  L 3.4364999999999997 21.348000000000003  L 2.7015 18.922500000000003  L 2.6505 18.922500000000003  L 1.9154999999999998 21.348000000000006  Z M 7.072500000000001 17.775  L 7.073999999999999 17.775000000000002  L 7.073999999999999 23.773500000000002  L 5.887499999999999 23.773500000000002  L 5.887499999999999 17.775  L 7.072500000000001 17.775  Z " fill-rule="evenodd" />
    </mask>
  </defs>
  <g>
    <path d="M 14.25 0  L 21 6.75  L 21 21  C 21 22.65685424949238  19.65685424949238 24  18 24  L 9 24  L 9 22.5  L 18 22.5  C 18.82842712474619 22.5  19.5 21.82842712474619  19.5 21  L 19.5 6.75  L 16.5 6.75  C 15.257359312880716 6.75  14.25 5.742640687119285  14.25 4.5  L 14.25 1.5  L 6 1.5  C 5.17157287525381 1.5  4.5 2.1715728752538097  4.5 3  L 4.5 16.5  L 3 16.5  L 3 3  C 3 1.3431457505076196  4.343145750507619 0  6 0  L 14.25 0  Z M 1.6695 22.232999999999997  L 1.6695 22.23  L 1.2000000000000002 23.775  L 0 23.775  L 2.013 17.7765  L 3.402 17.7765  L 5.406000000000001 23.775  L 4.1445 23.775  L 3.6734999999999993 22.232999999999997  L 1.6695 22.232999999999997  Z M 1.9154999999999998 21.348000000000006  L 3.4364999999999997 21.348000000000003  L 2.7015 18.922500000000003  L 2.6505 18.922500000000003  L 1.9154999999999998 21.348000000000006  Z M 7.072500000000001 17.775  L 7.073999999999999 17.775000000000002  L 7.073999999999999 23.773500000000002  L 5.887499999999999 23.773500000000002  L 5.887499999999999 17.775  L 7.072500000000001 17.775  Z " fill-rule="nonzero" fill="rgba(0, 0, 0, 1)" stroke="none" class="fill" />
    <path d="M 14.25 0  L 21 6.75  L 21 21  C 21 22.65685424949238  19.65685424949238 24  18 24  L 9 24  L 9 22.5  L 18 22.5  C 18.82842712474619 22.5  19.5 21.82842712474619  19.5 21  L 19.5 6.75  L 16.5 6.75  C 15.257359312880716 6.75  14.25 5.742640687119285  14.25 4.5  L 14.25 1.5  L 6 1.5  C 5.17157287525381 1.5  4.5 2.1715728752538097  4.5 3  L 4.5 16.5  L 3 16.5  L 3 3  C 3 1.3431457505076196  4.343145750507619 0  6 0  L 14.25 0  Z " stroke-width="0" stroke-dasharray="0" stroke="rgba(255, 255, 255, 0)" fill="none" class="stroke" mask="url(#Clip5584)" />
    <path d="M 1.6695 22.232999999999997  L 1.6695 22.23  L 1.2000000000000002 23.775  L 0 23.775  L 2.013 17.7765  L 3.402 17.7765  L 5.406000000000001 23.775  L 4.1445 23.775  L 3.6734999999999993 22.232999999999997  L 1.6695 22.232999999999997  Z " stroke-width="0" stroke-dasharray="0" stroke="rgba(255, 255, 255, 0)" fill="none" class="stroke" mask="url(#Clip5584)" />
    <path d="M 1.9154999999999998 21.348000000000006  L 3.4364999999999997 21.348000000000003  L 2.7015 18.922500000000003  L 2.6505 18.922500000000003  L 1.9154999999999998 21.348000000000006  Z " stroke-width="0" stroke-dasharray="0" stroke="rgba(255, 255, 255, 0)" fill="none" class="stroke" mask="url(#Clip5584)" />
    <path d="M 7.072500000000001 17.775  L 7.073999999999999 17.775000000000002  L 7.073999999999999 23.773500000000002  L 5.887499999999999 23.773500000000002  L 5.887499999999999 17.775  L 7.072500000000001 17.775  Z " stroke-width="0" stroke-dasharray="0" stroke="rgba(255, 255, 255, 0)" fill="none" class="stroke" mask="url(#Clip5584)" />
  </g>
</svg>