<?xml version="1.0" encoding="utf-8"?>
<svg version="1.1" xmlns:xlink="http://www.w3.org/1999/xlink" width="50px" height="50px" xmlns="http://www.w3.org/2000/svg">
  <defs>
    <pattern id="BGPattern" patternUnits="userSpaceOnUse" alignment="0 0" imageRepeat="None" />
    <mask fill="white" id="Clip1318">
      <path d="M 50 25  C 50 11.189516129032256  38.810483870967744 0  25 0  C 11.189516129032256 0  0 11.189516129032256  0 25  C 0 38.810483870967744  11.189516129032256 50  25 50  C 38.810483870967744 50  50 38.810483870967744  50 25  Z M 15.322580645161283 15.322580645161295  C 15.322580645161283 17.10685483870968  13.88104838709677 18.548387096774192  12.096774193548384 18.548387096774192  C 10.3125 18.548387096774192  8.870967741935488 17.10685483870968  8.870967741935488 15.322580645161295  C 8.870967741935488 13.538306451612911  10.3125 12.096774193548384  12.096774193548384 12.096774193548384  C 13.88104838709677 12.096774193548384  15.322580645161283 13.538306451612911  15.322580645161283 15.322580645161295  Z M 21.774193548387103 12.096774193548384  C 19.98991935483872 12.096774193548384  18.548387096774206 10.655241935483872  18.548387096774206 8.870967741935488  C 18.548387096774206 7.086693548387103  19.98991935483872 5.6451612903225765  21.774193548387103 5.6451612903225765  C 23.558467741935488 5.6451612903225765  25 7.086693548387103  25 8.870967741935488  C 25 10.655241935483872  23.558467741935488 12.096774193548384  21.774193548387103 12.096774193548384  Z M 26.612903225806463 20.16129032258064  C 26.612903225806463 21.945564516129025  25.17137096774195 23.38709677419355  23.387096774193537 23.38709677419355  C 21.602822580645153 23.38709677419355  20.16129032258064 21.945564516129025  20.16129032258064 20.16129032258064  C 20.16129032258064 18.377016129032256  21.602822580645153 16.935483870967744  23.387096774193537 16.935483870967744  C 25.17137096774195 16.935483870967744  26.612903225806463 18.377016129032256  26.612903225806463 20.16129032258064  Z " fill-rule="evenodd" />
    </mask>
  </defs>
  <g>
    <path d="M 50 25  C 50 11.189516129032256  38.810483870967744 0  25 0  C 11.189516129032256 0  0 11.189516129032256  0 25  C 0 38.810483870967744  11.189516129032256 50  25 50  C 38.810483870967744 50  50 38.810483870967744  50 25  Z M 15.322580645161283 15.322580645161295  C 15.322580645161283 17.10685483870968  13.88104838709677 18.548387096774192  12.096774193548384 18.548387096774192  C 10.3125 18.548387096774192  8.870967741935488 17.10685483870968  8.870967741935488 15.322580645161295  C 8.870967741935488 13.538306451612911  10.3125 12.096774193548384  12.096774193548384 12.096774193548384  C 13.88104838709677 12.096774193548384  15.322580645161283 13.538306451612911  15.322580645161283 15.322580645161295  Z M 21.774193548387103 12.096774193548384  C 19.98991935483872 12.096774193548384  18.548387096774206 10.655241935483872  18.548387096774206 8.870967741935488  C 18.548387096774206 7.086693548387103  19.98991935483872 5.6451612903225765  21.774193548387103 5.6451612903225765  C 23.558467741935488 5.6451612903225765  25 7.086693548387103  25 8.870967741935488  C 25 10.655241935483872  23.558467741935488 12.096774193548384  21.774193548387103 12.096774193548384  Z M 26.612903225806463 20.16129032258064  C 26.612903225806463 21.945564516129025  25.17137096774195 23.38709677419355  23.387096774193537 23.38709677419355  C 21.602822580645153 23.38709677419355  20.16129032258064 21.945564516129025  20.16129032258064 20.16129032258064  C 20.16129032258064 18.377016129032256  21.602822580645153 16.935483870967744  23.387096774193537 16.935483870967744  C 25.17137096774195 16.935483870967744  26.612903225806463 18.377016129032256  26.612903225806463 20.16129032258064  Z " fill-rule="nonzero" fill="rgba(0, 0, 0, 1)" stroke="none" class="fill" />
    <path d="M 50 25  C 50 11.189516129032256  38.810483870967744 0  25 0  C 11.189516129032256 0  0 11.189516129032256  0 25  C 0 38.810483870967744  11.189516129032256 50  25 50  C 38.810483870967744 50  50 38.810483870967744  50 25  Z " stroke-width="0" stroke-dasharray="0" stroke="rgba(255, 255, 255, 0)" fill="none" class="stroke" mask="url(#Clip1318)" />
    <path d="M 15.322580645161283 15.322580645161295  C 15.322580645161283 17.10685483870968  13.88104838709677 18.548387096774192  12.096774193548384 18.548387096774192  C 10.3125 18.548387096774192  8.870967741935488 17.10685483870968  8.870967741935488 15.322580645161295  C 8.870967741935488 13.538306451612911  10.3125 12.096774193548384  12.096774193548384 12.096774193548384  C 13.88104838709677 12.096774193548384  15.322580645161283 13.538306451612911  15.322580645161283 15.322580645161295  Z " stroke-width="0" stroke-dasharray="0" stroke="rgba(255, 255, 255, 0)" fill="none" class="stroke" mask="url(#Clip1318)" />
    <path d="M 21.774193548387103 12.096774193548384  C 19.98991935483872 12.096774193548384  18.548387096774206 10.655241935483872  18.548387096774206 8.870967741935488  C 18.548387096774206 7.086693548387103  19.98991935483872 5.6451612903225765  21.774193548387103 5.6451612903225765  C 23.558467741935488 5.6451612903225765  25 7.086693548387103  25 8.870967741935488  C 25 10.655241935483872  23.558467741935488 12.096774193548384  21.774193548387103 12.096774193548384  Z " stroke-width="0" stroke-dasharray="0" stroke="rgba(255, 255, 255, 0)" fill="none" class="stroke" mask="url(#Clip1318)" />
    <path d="M 26.612903225806463 20.16129032258064  C 26.612903225806463 21.945564516129025  25.17137096774195 23.38709677419355  23.387096774193537 23.38709677419355  C 21.602822580645153 23.38709677419355  20.16129032258064 21.945564516129025  20.16129032258064 20.16129032258064  C 20.16129032258064 18.377016129032256  21.602822580645153 16.935483870967744  23.387096774193537 16.935483870967744  C 25.17137096774195 16.935483870967744  26.612903225806463 18.377016129032256  26.612903225806463 20.16129032258064  Z " stroke-width="0" stroke-dasharray="0" stroke="rgba(255, 255, 255, 0)" fill="none" class="stroke" mask="url(#Clip1318)" />
  </g>
</svg>