<?xml version="1.0" encoding="utf-8"?>
<svg version="1.1" xmlns:xlink="http://www.w3.org/1999/xlink" width="24px" height="24px" xmlns="http://www.w3.org/2000/svg">
  <defs>
    <pattern id="BGPattern" patternUnits="userSpaceOnUse" alignment="0 0" imageRepeat="None" />
    <mask fill="white" id="Clip6018">
      <path d="M 12 24  C 5.372583002030479 24  0 18.627416997969522  0 12  C 0 5.372583002030479  5.372583002030479 0  12 0  C 18.627416997969522 0  24 5.372583002030479  24 12  C 24 18.627416997969522  18.627416997969522 24  12 24  Z M 11.25 11.6895  L 11.25 1.5270000000000001  C 5.756320923369614 1.92068813066934  1.500526516505863 6.49237505935049  1.500526516505863 12.000142314893921  C 1.500526516505863 14.52593823587435  2.410998733877821 16.967093285121663  4.0649999999999995 18.876  L 11.25 11.6895  Z M 22.498250035038847 12.000054568280492  C 22.498250035038847 6.492759452036616  18.243162121528265 1.921296086730195  12.75 1.5270000000000001  L 12.75 11.6895  L 19.935 18.8745  C 21.588240502140284 16.965785089428337  22.498250035038847 14.525207388954058  22.498250035038847 12.000054568280492  Z M 12.75 22.473000000000003  C 15.013116947831001 22.314542026252653  17.163284771013224 21.42425461464611  18.875999999999998 19.936500000000002  L 12.75 13.810500000000001  L 12.75 22.473000000000003  Z M 5.1240000000000006 19.936500000000002  C 6.836715228986779 21.424254614646117  8.986883052168995 22.31454202625266  11.25 22.473  L 11.25 13.810500000000001  L 5.1240000000000006 19.936500000000002  Z " fill-rule="evenodd" />
    </mask>
  </defs>
  <g>
    <path d="M 12 24  C 5.372583002030479 24  0 18.627416997969522  0 12  C 0 5.372583002030479  5.372583002030479 0  12 0  C 18.627416997969522 0  24 5.372583002030479  24 12  C 24 18.627416997969522  18.627416997969522 24  12 24  Z M 11.25 11.6895  L 11.25 1.5270000000000001  C 5.756320923369614 1.92068813066934  1.500526516505863 6.49237505935049  1.500526516505863 12.000142314893921  C 1.500526516505863 14.52593823587435  2.410998733877821 16.967093285121663  4.0649999999999995 18.876  L 11.25 11.6895  Z M 22.498250035038847 12.000054568280492  C 22.498250035038847 6.492759452036616  18.243162121528265 1.921296086730195  12.75 1.5270000000000001  L 12.75 11.6895  L 19.935 18.8745  C 21.588240502140284 16.965785089428337  22.498250035038847 14.525207388954058  22.498250035038847 12.000054568280492  Z M 12.75 22.473000000000003  C 15.013116947831001 22.314542026252653  17.163284771013224 21.42425461464611  18.875999999999998 19.936500000000002  L 12.75 13.810500000000001  L 12.75 22.473000000000003  Z M 5.1240000000000006 19.936500000000002  C 6.836715228986779 21.424254614646117  8.986883052168995 22.31454202625266  11.25 22.473  L 11.25 13.810500000000001  L 5.1240000000000006 19.936500000000002  Z " fill-rule="nonzero" fill="rgba(0, 0, 0, 1)" stroke="none" class="fill" />
    <path d="M 12 24  C 5.372583002030479 24  0 18.627416997969522  0 12  C 0 5.372583002030479  5.372583002030479 0  12 0  C 18.627416997969522 0  24 5.372583002030479  24 12  C 24 18.627416997969522  18.627416997969522 24  12 24  Z " stroke-width="0" stroke-dasharray="0" stroke="rgba(255, 255, 255, 0)" fill="none" class="stroke" mask="url(#Clip6018)" />
    <path d="M 11.25 11.6895  L 11.25 1.5270000000000001  C 5.756320923369614 1.92068813066934  1.500526516505863 6.49237505935049  1.500526516505863 12.000142314893921  C 1.500526516505863 14.52593823587435  2.410998733877821 16.967093285121663  4.0649999999999995 18.876  L 11.25 11.6895  Z " stroke-width="0" stroke-dasharray="0" stroke="rgba(255, 255, 255, 0)" fill="none" class="stroke" mask="url(#Clip6018)" />
    <path d="M 22.498250035038847 12.000054568280492  C 22.498250035038847 6.492759452036616  18.243162121528265 1.921296086730195  12.75 1.5270000000000001  L 12.75 11.6895  L 19.935 18.8745  C 21.588240502140284 16.965785089428337  22.498250035038847 14.525207388954058  22.498250035038847 12.000054568280492  Z " stroke-width="0" stroke-dasharray="0" stroke="rgba(255, 255, 255, 0)" fill="none" class="stroke" mask="url(#Clip6018)" />
    <path d="M 12.75 22.473000000000003  C 15.013116947831001 22.314542026252653  17.163284771013224 21.42425461464611  18.875999999999998 19.936500000000002  L 12.75 13.810500000000001  L 12.75 22.473000000000003  Z " stroke-width="0" stroke-dasharray="0" stroke="rgba(255, 255, 255, 0)" fill="none" class="stroke" mask="url(#Clip6018)" />
    <path d="M 5.1240000000000006 19.936500000000002  C 6.836715228986779 21.424254614646117  8.986883052168995 22.31454202625266  11.25 22.473  L 11.25 13.810500000000001  L 5.1240000000000006 19.936500000000002  Z " stroke-width="0" stroke-dasharray="0" stroke="rgba(255, 255, 255, 0)" fill="none" class="stroke" mask="url(#Clip6018)" />
  </g>
</svg>