<?xml version="1.0" encoding="utf-8"?>
<svg version="1.1" xmlns:xlink="http://www.w3.org/1999/xlink" width="14px" height="11px" xmlns="http://www.w3.org/2000/svg">
  <defs>
    <pattern id="BGPattern" patternUnits="userSpaceOnUse" alignment="0 0" imageRepeat="None" />
    <mask fill="white" id="Clip4318">
      <path d="M 5 8.18  L 1.4100000000000001 4.59  L 0 6  L 5 11  L 14 2  L 12.59 0.5800000000000001  L 5 8.18  Z " fill-rule="evenodd" />
    </mask>
  </defs>
  <g transform="matrix(1 0 0 1 -9 -12 )">
    <path d="M 5 8.18  L 1.4100000000000001 4.59  L 0 6  L 5 11  L 14 2  L 12.59 0.5800000000000001  L 5 8.18  Z " fill-rule="nonzero" fill="rgba(0, 0, 0, 1)" stroke="none" transform="matrix(1 0 0 1 9 12 )" class="fill" />
    <path d="M 5 8.18  L 1.4100000000000001 4.59  L 0 6  L 5 11  L 14 2  L 12.59 0.5800000000000001  L 5 8.18  Z " stroke-width="0" stroke-dasharray="0" stroke="rgba(255, 255, 255, 0)" fill="none" transform="matrix(1 0 0 1 9 12 )" class="stroke" mask="url(#Clip4318)" />
  </g>
</svg>