<?xml version="1.0" encoding="utf-8"?>
<svg version="1.1" xmlns:xlink="http://www.w3.org/1999/xlink" width="4px" height="13px" xmlns="http://www.w3.org/2000/svg">
  <defs>
    <pattern id="BGPattern" patternUnits="userSpaceOnUse" alignment="0 0" imageRepeat="None" />
    <mask fill="white" id="Clip4151">
      <path d="M 0.05099999999999838 1.315999999999999  L 2 7.161999999999999  L 2 13  L 4 13  L 4 6.838  L 1.9490000000000016 0.684000000000001  L 0.05099999999999838 1.315999999999999  Z " fill-rule="evenodd" />
    </mask>
  </defs>
  <g transform="matrix(1 0 0 1 -17 -17 )">
    <path d="M 0.05099999999999838 1.315999999999999  L 2 7.161999999999999  L 2 13  L 4 13  L 4 6.838  L 1.9490000000000016 0.684000000000001  L 0.05099999999999838 1.315999999999999  Z " fill-rule="nonzero" fill="rgba(0, 0, 0, 1)" stroke="none" transform="matrix(1 0 0 1 17 17 )" class="fill" />
    <path d="M 0.05099999999999838 1.315999999999999  L 2 7.161999999999999  L 2 13  L 4 13  L 4 6.838  L 1.9490000000000016 0.684000000000001  L 0.05099999999999838 1.315999999999999  Z " stroke-width="0" stroke-dasharray="0" stroke="rgba(255, 255, 255, 0)" fill="none" transform="matrix(1 0 0 1 17 17 )" class="stroke" mask="url(#Clip4151)" />
  </g>
</svg>