<?xml version="1.0" encoding="utf-8"?>
<svg version="1.1" xmlns:xlink="http://www.w3.org/1999/xlink" width="10px" height="10px" xmlns="http://www.w3.org/2000/svg">
  <defs>
    <pattern id="BGPattern" patternUnits="userSpaceOnUse" alignment="0 0" imageRepeat="None" />
    <mask fill="white" id="Clip4152">
      <path d="M 10.000000000000002 5.000000000000002  C 9.99696881477261 7.760167216135899  7.760167216135899 9.99696881477261  4.999999999999998 9.999999999999998  C 2.238576250846033 9.999999999999998  0 7.761423749153968  0 5  C 0 2.238576250846033  2.238576250846033 0  5 0  C 7.761423749153968 0  9.999999999999998 2.238576250846033  9.999999999999998 5  Z " fill-rule="evenodd" />
    </mask>
  </defs>
  <g transform="matrix(1 0 0 1 -4 -4 )">
    <path d="M 10.000000000000002 5.000000000000002  C 9.99696881477261 7.760167216135899  7.760167216135899 9.99696881477261  4.999999999999998 9.999999999999998  C 2.238576250846033 9.999999999999998  0 7.761423749153968  0 5  C 0 2.238576250846033  2.238576250846033 0  5 0  C 7.761423749153968 0  9.999999999999998 2.238576250846033  9.999999999999998 5  Z " fill-rule="nonzero" fill="rgba(0, 0, 0, 1)" stroke="none" transform="matrix(1 0 0 1 4 4 )" class="fill" />
    <path d="M 10.000000000000002 5.000000000000002  C 9.99696881477261 7.760167216135899  7.760167216135899 9.99696881477261  4.999999999999998 9.999999999999998  C 2.238576250846033 9.999999999999998  0 7.761423749153968  0 5  C 0 2.238576250846033  2.238576250846033 0  5 0  C 7.761423749153968 0  9.999999999999998 2.238576250846033  9.999999999999998 5  Z " stroke-width="0" stroke-dasharray="0" stroke="rgba(255, 255, 255, 0)" fill="none" transform="matrix(1 0 0 1 4 4 )" class="stroke" mask="url(#Clip4152)" />
  </g>
</svg>