<?xml version="1.0" encoding="utf-8"?>
<svg version="1.1" xmlns:xlink="http://www.w3.org/1999/xlink" width="10px" height="10px" xmlns="http://www.w3.org/2000/svg">
  <defs>
    <pattern id="BGPattern" patternUnits="userSpaceOnUse" alignment="0 0" imageRepeat="None" />
    <mask fill="white" id="Clip4153">
      <path d="M 10 5.0000000000000036  C 9.996968814772607 7.760167216135901  7.760167216135898 9.996968814772611  4.999999999999998 9.999999999999996  C 2.238576250846033 9.999999999999996  0 7.761423749153963  0 5  C 0 2.238576250846034  2.238576250846033 0  4.999999999999998 0  C 7.761423749153959 0  9.999999999999993 2.238576250846034  9.999999999999993 5  Z " fill-rule="evenodd" />
    </mask>
  </defs>
  <g transform="matrix(1 0 0 1 -18 -18 )">
    <path d="M 10 5.0000000000000036  C 9.996968814772607 7.760167216135901  7.760167216135898 9.996968814772611  4.999999999999998 9.999999999999996  C 2.238576250846033 9.999999999999996  0 7.761423749153963  0 5  C 0 2.238576250846034  2.238576250846033 0  4.999999999999998 0  C 7.761423749153959 0  9.999999999999993 2.238576250846034  9.999999999999993 5  Z " fill-rule="nonzero" fill="rgba(0, 0, 0, 1)" stroke="none" transform="matrix(1 0 0 1 18 18 )" class="fill" />
    <path d="M 10 5.0000000000000036  C 9.996968814772607 7.760167216135901  7.760167216135898 9.996968814772611  4.999999999999998 9.999999999999996  C 2.238576250846033 9.999999999999996  0 7.761423749153963  0 5  C 0 2.238576250846034  2.238576250846033 0  4.999999999999998 0  C 7.761423749153959 0  9.999999999999993 2.238576250846034  9.999999999999993 5  Z " stroke-width="0" stroke-dasharray="0" stroke="rgba(255, 255, 255, 0)" fill="none" transform="matrix(1 0 0 1 18 18 )" class="stroke" mask="url(#Clip4153)" />
  </g>
</svg>