<?xml version="1.0" encoding="utf-8"?>
<svg version="1.1" xmlns:xlink="http://www.w3.org/1999/xlink" width="20px" height="20px" xmlns="http://www.w3.org/2000/svg">
  <defs>
    <pattern id="BGPattern" patternUnits="userSpaceOnUse" alignment="0 0" imageRepeat="None" />
    <mask fill="white" id="Clip4879">
      <path d="M 10.75 0.859  L 9.25 0.859  L 9.25 2.266  L 10.75 2.266  L 10.75 0.859  Z M 9.25 3.67  L 9.25 3.6715  L 9.25 5.078499999999999  L 10.75 5.078499999999999  L 10.75 3.67  L 9.25 3.67  Z M 10.75 6.484  L 9.25 6.484  L 9.25 7.890999999999998  L 10.75 7.890999999999998  L 10.75 6.484  Z M 0.859 9.25  L 0.859 10.75  L 2.266 10.75  L 2.266 9.25  L 0.859 9.25  Z M 3.67 10.75  L 3.6715 10.75  L 5.078499999999999 10.75  L 5.078499999999999 9.25  L 3.67 9.25  L 3.67 10.75  Z M 6.484 9.25  L 6.484 10.75  L 7.890999999999998 10.75  L 7.890999999999998 9.25  L 6.484 9.25  Z M 9.2965 10.75  L 10.703499999999998 10.75  L 10.703499999999998 10.703499999999998  L 10.75 10.703499999999998  L 10.75 9.295  L 10.703499999999998 9.295  L 10.703499999999998 9.25  L 9.295 9.25  L 9.295 9.2965  L 9.25 9.2965  L 9.25 10.703499999999998  L 9.2965 10.703499999999998  L 9.2965 10.75  Z M 12.108999999999998 9.25  L 12.108999999999998 10.75  L 13.515999999999998 10.75  L 13.515999999999998 9.25  L 12.108999999999998 9.25  Z M 14.921499999999998 9.25  L 14.921499999999998 10.75  L 16.3285 10.75  L 16.3285 9.25  L 14.921499999999998 9.25  Z M 17.733999999999998 9.25  L 17.733999999999998 10.75  L 19.141 10.75  L 19.141 9.25  L 17.733999999999998 9.25  Z M 10.75 12.109000000000002  L 9.25 12.109000000000002  L 9.25 13.516000000000002  L 10.75 13.516000000000002  L 10.75 12.109000000000002  Z M 10.75 14.921500000000002  L 9.25 14.921500000000002  L 9.25 16.328500000000002  L 10.75 16.328500000000002  L 10.75 14.921500000000002  Z M 10.75 17.734  L 9.25 17.734  L 9.25 19.141000000000002  L 10.75 19.141000000000002  L 10.75 17.734  Z " fill-rule="evenodd" />
    </mask>
  </defs>
  <g transform="matrix(1 0 0 1 -2 -2 )">
    <path d="M 10.75 0.859  L 9.25 0.859  L 9.25 2.266  L 10.75 2.266  L 10.75 0.859  Z M 9.25 3.67  L 9.25 3.6715  L 9.25 5.078499999999999  L 10.75 5.078499999999999  L 10.75 3.67  L 9.25 3.67  Z M 10.75 6.484  L 9.25 6.484  L 9.25 7.890999999999998  L 10.75 7.890999999999998  L 10.75 6.484  Z M 0.859 9.25  L 0.859 10.75  L 2.266 10.75  L 2.266 9.25  L 0.859 9.25  Z M 3.67 10.75  L 3.6715 10.75  L 5.078499999999999 10.75  L 5.078499999999999 9.25  L 3.67 9.25  L 3.67 10.75  Z M 6.484 9.25  L 6.484 10.75  L 7.890999999999998 10.75  L 7.890999999999998 9.25  L 6.484 9.25  Z M 9.2965 10.75  L 10.703499999999998 10.75  L 10.703499999999998 10.703499999999998  L 10.75 10.703499999999998  L 10.75 9.295  L 10.703499999999998 9.295  L 10.703499999999998 9.25  L 9.295 9.25  L 9.295 9.2965  L 9.25 9.2965  L 9.25 10.703499999999998  L 9.2965 10.703499999999998  L 9.2965 10.75  Z M 12.108999999999998 9.25  L 12.108999999999998 10.75  L 13.515999999999998 10.75  L 13.515999999999998 9.25  L 12.108999999999998 9.25  Z M 14.921499999999998 9.25  L 14.921499999999998 10.75  L 16.3285 10.75  L 16.3285 9.25  L 14.921499999999998 9.25  Z M 17.733999999999998 9.25  L 17.733999999999998 10.75  L 19.141 10.75  L 19.141 9.25  L 17.733999999999998 9.25  Z M 10.75 12.109000000000002  L 9.25 12.109000000000002  L 9.25 13.516000000000002  L 10.75 13.516000000000002  L 10.75 12.109000000000002  Z M 10.75 14.921500000000002  L 9.25 14.921500000000002  L 9.25 16.328500000000002  L 10.75 16.328500000000002  L 10.75 14.921500000000002  Z M 10.75 17.734  L 9.25 17.734  L 9.25 19.141000000000002  L 10.75 19.141000000000002  L 10.75 17.734  Z " fill-rule="nonzero" fill="rgba(0, 0, 0, 1)" stroke="none" transform="matrix(1 0 0 1 2 2 )" class="fill" />
    <path d="M 10.75 0.859  L 9.25 0.859  L 9.25 2.266  L 10.75 2.266  L 10.75 0.859  Z " stroke-width="0" stroke-dasharray="0" stroke="rgba(255, 255, 255, 0)" fill="none" transform="matrix(1 0 0 1 2 2 )" class="stroke" mask="url(#Clip4879)" />
    <path d="M 9.25 3.67  L 9.25 3.6715  L 9.25 5.078499999999999  L 10.75 5.078499999999999  L 10.75 3.67  L 9.25 3.67  Z " stroke-width="0" stroke-dasharray="0" stroke="rgba(255, 255, 255, 0)" fill="none" transform="matrix(1 0 0 1 2 2 )" class="stroke" mask="url(#Clip4879)" />
    <path d="M 10.75 6.484  L 9.25 6.484  L 9.25 7.890999999999998  L 10.75 7.890999999999998  L 10.75 6.484  Z " stroke-width="0" stroke-dasharray="0" stroke="rgba(255, 255, 255, 0)" fill="none" transform="matrix(1 0 0 1 2 2 )" class="stroke" mask="url(#Clip4879)" />
    <path d="M 0.859 9.25  L 0.859 10.75  L 2.266 10.75  L 2.266 9.25  L 0.859 9.25  Z " stroke-width="0" stroke-dasharray="0" stroke="rgba(255, 255, 255, 0)" fill="none" transform="matrix(1 0 0 1 2 2 )" class="stroke" mask="url(#Clip4879)" />
    <path d="M 3.67 10.75  L 3.6715 10.75  L 5.078499999999999 10.75  L 5.078499999999999 9.25  L 3.67 9.25  L 3.67 10.75  Z " stroke-width="0" stroke-dasharray="0" stroke="rgba(255, 255, 255, 0)" fill="none" transform="matrix(1 0 0 1 2 2 )" class="stroke" mask="url(#Clip4879)" />
    <path d="M 6.484 9.25  L 6.484 10.75  L 7.890999999999998 10.75  L 7.890999999999998 9.25  L 6.484 9.25  Z " stroke-width="0" stroke-dasharray="0" stroke="rgba(255, 255, 255, 0)" fill="none" transform="matrix(1 0 0 1 2 2 )" class="stroke" mask="url(#Clip4879)" />
    <path d="M 9.2965 10.75  L 10.703499999999998 10.75  L 10.703499999999998 10.703499999999998  L 10.75 10.703499999999998  L 10.75 9.295  L 10.703499999999998 9.295  L 10.703499999999998 9.25  L 9.295 9.25  L 9.295 9.2965  L 9.25 9.2965  L 9.25 10.703499999999998  L 9.2965 10.703499999999998  L 9.2965 10.75  Z " stroke-width="0" stroke-dasharray="0" stroke="rgba(255, 255, 255, 0)" fill="none" transform="matrix(1 0 0 1 2 2 )" class="stroke" mask="url(#Clip4879)" />
    <path d="M 12.108999999999998 9.25  L 12.108999999999998 10.75  L 13.515999999999998 10.75  L 13.515999999999998 9.25  L 12.108999999999998 9.25  Z " stroke-width="0" stroke-dasharray="0" stroke="rgba(255, 255, 255, 0)" fill="none" transform="matrix(1 0 0 1 2 2 )" class="stroke" mask="url(#Clip4879)" />
    <path d="M 14.921499999999998 9.25  L 14.921499999999998 10.75  L 16.3285 10.75  L 16.3285 9.25  L 14.921499999999998 9.25  Z " stroke-width="0" stroke-dasharray="0" stroke="rgba(255, 255, 255, 0)" fill="none" transform="matrix(1 0 0 1 2 2 )" class="stroke" mask="url(#Clip4879)" />
    <path d="M 17.733999999999998 9.25  L 17.733999999999998 10.75  L 19.141 10.75  L 19.141 9.25  L 17.733999999999998 9.25  Z " stroke-width="0" stroke-dasharray="0" stroke="rgba(255, 255, 255, 0)" fill="none" transform="matrix(1 0 0 1 2 2 )" class="stroke" mask="url(#Clip4879)" />
    <path d="M 10.75 12.109000000000002  L 9.25 12.109000000000002  L 9.25 13.516000000000002  L 10.75 13.516000000000002  L 10.75 12.109000000000002  Z " stroke-width="0" stroke-dasharray="0" stroke="rgba(255, 255, 255, 0)" fill="none" transform="matrix(1 0 0 1 2 2 )" class="stroke" mask="url(#Clip4879)" />
    <path d="M 10.75 14.921500000000002  L 9.25 14.921500000000002  L 9.25 16.328500000000002  L 10.75 16.328500000000002  L 10.75 14.921500000000002  Z " stroke-width="0" stroke-dasharray="0" stroke="rgba(255, 255, 255, 0)" fill="none" transform="matrix(1 0 0 1 2 2 )" class="stroke" mask="url(#Clip4879)" />
    <path d="M 10.75 17.734  L 9.25 17.734  L 9.25 19.141000000000002  L 10.75 19.141000000000002  L 10.75 17.734  Z " stroke-width="0" stroke-dasharray="0" stroke="rgba(255, 255, 255, 0)" fill="none" transform="matrix(1 0 0 1 2 2 )" class="stroke" mask="url(#Clip4879)" />
  </g>
</svg>