<?xml version="1.0" encoding="utf-8"?>
<svg version="1.1" xmlns:xlink="http://www.w3.org/1999/xlink" width="38px" height="50px" xmlns="http://www.w3.org/2000/svg">
  <defs>
    <pattern id="BGPattern" patternUnits="userSpaceOnUse" alignment="0 0" imageRepeat="None" />
    <mask fill="white" id="Clip1542">
      <path d="M 24.21875 16  C 22.929687500000004 15.625  21.875 14.570312499999998  21.875 13.28125  L 21.875 0  L 2.34375 0  C 1.044921875 0  0 1.044921875  0 2.34375  L 0 47.65625  C 0 48.955078125  1.044921875 50  2.34375 50  L 35.15625 50  C 36.455078125 50  37.5 48.955078125  37 47.65625  L 37 16  L 24.21875 16  Z M 28.240234375 31.25  C 29.634765625 31.25  30.330078125 32.9384765625  29.3408203125 33.921875  L 19.9248046875 43.267578125  C 19.275390625 43.9130859375  18.2265625 43.9130859375  17.5771484375 43.267578125  L 8.1611328125 33.921875  C 7.169921875 32.9384765625  7.865234375 31.25  9.259765625 31.25  L 15.624999999999998 31.25  L 15.624999999999998 23.4375  C 15.624999999999998 22.57421875  16.32421875 21.875  17.1875 21.875  L 20.3125 21.875  C 21.17578125 21.875  21.875 22.57421875  21.875 23.4375  L 21.875 31.25  L 28.240234375 31.25  Z M 37.5 11.904296875  C 37.5 11.2890625  37.255859375 10.693359375  36.81640625 10.25390625  L 27.255859375 0.68359375  C 26.81640625 0.244140625  26.220703125 0  25.595703125 0  L 25 0  L 25 13  L 37.5 13  L 37.5 11.904296875  Z " fill-rule="evenodd" />
    </mask>
  </defs>
  <g>
    <path d="M 24.21875 16  C 22.929687500000004 15.625  21.875 14.570312499999998  21.875 13.28125  L 21.875 0  L 2.34375 0  C 1.044921875 0  0 1.044921875  0 2.34375  L 0 47.65625  C 0 48.955078125  1.044921875 50  2.34375 50  L 35.15625 50  C 36.455078125 50  37.5 48.955078125  37 47.65625  L 37 16  L 24.21875 16  Z M 28.240234375 31.25  C 29.634765625 31.25  30.330078125 32.9384765625  29.3408203125 33.921875  L 19.9248046875 43.267578125  C 19.275390625 43.9130859375  18.2265625 43.9130859375  17.5771484375 43.267578125  L 8.1611328125 33.921875  C 7.169921875 32.9384765625  7.865234375 31.25  9.259765625 31.25  L 15.624999999999998 31.25  L 15.624999999999998 23.4375  C 15.624999999999998 22.57421875  16.32421875 21.875  17.1875 21.875  L 20.3125 21.875  C 21.17578125 21.875  21.875 22.57421875  21.875 23.4375  L 21.875 31.25  L 28.240234375 31.25  Z M 37.5 11.904296875  C 37.5 11.2890625  37.255859375 10.693359375  36.81640625 10.25390625  L 27.255859375 0.68359375  C 26.81640625 0.244140625  26.220703125 0  25.595703125 0  L 25 0  L 25 13  L 37.5 13  L 37.5 11.904296875  Z " fill-rule="nonzero" fill="rgba(0, 0, 0, 1)" stroke="none" class="fill" />
    <path d="M 24.21875 16  C 22.929687500000004 15.625  21.875 14.570312499999998  21.875 13.28125  L 21.875 0  L 2.34375 0  C 1.044921875 0  0 1.044921875  0 2.34375  L 0 47.65625  C 0 48.955078125  1.044921875 50  2.34375 50  L 35.15625 50  C 36.455078125 50  37.5 48.955078125  37 47.65625  L 37 16  L 24.21875 16  Z " stroke-width="0" stroke-dasharray="0" stroke="rgba(255, 255, 255, 0)" fill="none" class="stroke" mask="url(#Clip1542)" />
    <path d="M 28.240234375 31.25  C 29.634765625 31.25  30.330078125 32.9384765625  29.3408203125 33.921875  L 19.9248046875 43.267578125  C 19.275390625 43.9130859375  18.2265625 43.9130859375  17.5771484375 43.267578125  L 8.1611328125 33.921875  C 7.169921875 32.9384765625  7.865234375 31.25  9.259765625 31.25  L 15.624999999999998 31.25  L 15.624999999999998 23.4375  C 15.624999999999998 22.57421875  16.32421875 21.875  17.1875 21.875  L 20.3125 21.875  C 21.17578125 21.875  21.875 22.57421875  21.875 23.4375  L 21.875 31.25  L 28.240234375 31.25  Z " stroke-width="0" stroke-dasharray="0" stroke="rgba(255, 255, 255, 0)" fill="none" class="stroke" mask="url(#Clip1542)" />
    <path d="M 37.5 11.904296875  C 37.5 11.2890625  37.255859375 10.693359375  36.81640625 10.25390625  L 27.255859375 0.68359375  C 26.81640625 0.244140625  26.220703125 0  25.595703125 0  L 25 0  L 25 13  L 37.5 13  L 37.5 11.904296875  Z " stroke-width="0" stroke-dasharray="0" stroke="rgba(255, 255, 255, 0)" fill="none" class="stroke" mask="url(#Clip1542)" />
  </g>
</svg>