<?xml version="1.0" encoding="utf-8"?>
<svg version="1.1" xmlns:xlink="http://www.w3.org/1999/xlink" width="48px" height="48px" xmlns="http://www.w3.org/2000/svg">
  <defs>
    <pattern id="BGPattern" patternUnits="userSpaceOnUse" alignment="0 0" imageRepeat="None" />
    <mask fill="white" id="Clip7439">
      <path d="M 32.93600000000001 16.342  C 32.19545805845051 15.159723651072152  30.899054887321746 14.441262453086452  29.504 14.440000000000001  C 29.49798952697956 14.439973436500555  29.49197900259785 14.439960154702192  29.485968470878525 14.439960154702192  C 27.23264669156889 14.439960154702192  25.405968470878527 16.266638375392557  25.405968470878527 18.519960154702193  C 25.405968470878527 18.525306785295193  25.405978980605987 18.530653410724298  25.406000000000002 18.536  C 25.406000000000002 19.446  25.698 20.316000000000003  26.234 21.018  L 31.490000000000002 28.342  C 32.11 29.416  31.738000000000003 30.826  30.662000000000006 31.485999999999997  C 29.586 32.108  28.180000000000003 31.735999999999997  27.518 30.657999999999994  C 26.896549628194172 29.591416903899997  27.22436022938009 28.2246581876652  28.262 27.555999999999997  L 28.345999999999997 27.513999999999996  C 28.758000000000003 27.223999999999997  28.884 26.685999999999993  28.594 26.271999999999995  C 28.42657271117018 26.021852702219363  28.148850352165734 25.867727961431378  27.848 25.85799999999999  C 27.700962265338276 25.860647462927595  27.557582345502272 25.904284829834207  27.434000000000005 25.983999999999995  L 27.351999999999997 26.025999999999996  C 25.449999999999996 27.225999999999992  24.828 29.747999999999998  26.028 31.652  C 27.229999999999997 33.558  29.752000000000002 34.18  31.654000000000003 32.976  C 33.558 31.776000000000003  34.18 29.253999999999998  32.978 27.349999999999994  C 32.896 27.223999999999997  32.814 27.141999999999996  32.77 27.017999999999994  L 27.516000000000005 19.652  C 27.313604706694576 19.29971896684804  27.21319522739025 18.898081049630758  27.226000000000006 18.491999999999997  C 27.226000000000006 17.209999999999997  28.260000000000005 16.215999999999998  29.502000000000002 16.215999999999998  C 30.742000000000004 16.215999999999998  31.778000000000006 17.249999999999996  31.778000000000006 18.491999999999997  C 31.778000000000006 19.279999999999998  31.364000000000004 19.981999999999996  30.702000000000005 20.438  C 30.660000000000004 20.438  30.660000000000004 20.48  30.620000000000005 20.48  C 30.206000000000003 20.77  30.080000000000005 21.308  30.372 21.722  C 30.536000000000005 21.970000000000002  30.828000000000003 22.094  31.116000000000007 22.136000000000003  C 31.262762565982 22.133430022988215  31.405989119224166 22.09053124858718  31.530000000000005 22.012000000000004  L 31.612000000000002 21.970000000000002  C 33.516000000000005 20.770000000000003  34.138000000000005 18.246000000000002  32.93600000000001 16.342  Z M 28.346000000000004 29.461999999999996  C 28.346000000000004 30.125999999999998  28.882000000000005 30.622  29.504 30.622  C 29.504668974858784 30.622001161406033  29.505337950598417 30.62200174210937  29.506006926465346 30.62200174210937  C 30.144448097269745 30.62200174210937  30.662006926465345 30.10444291291377  30.662006926465345 29.46600174210937  C 30.662006926465345 29.464667825076134  30.662004617640108 29.46333390904073  30.662000000000006 29.461999999999996  C 30.662000000000006 28.822454259695945  30.143545740304063 28.304000000000002  29.504 28.304000000000002  C 28.86445425969594 28.304000000000002  28.346000000000004 28.822454259695945  28.346000000000004 29.461999999999996  Z M 30.662 18.538  C 30.622 17.876  30.125999999999998 17.378  29.504 17.378  C 29.50333102514122 17.377998838593967  29.50266204940158 17.377998257890628  29.50199307353465 17.377998257890628  C 28.86355190273025 17.377998257890628  28.345993073534643 17.895557087086228  28.345993073534643 18.533998257890627  C 28.345993073534643 18.53533217492465  28.345995382359895 18.536666090958473  28.345999999999997 18.537999999999997  C 28.345999999999997 19.17754574030406  28.86445425969594 19.695999999999998  29.503999999999998 19.695999999999998  C 30.143545740304056 19.695999999999998  30.662 19.17754574030406  30.662 18.537999999999997  Z M 48 24  C 48 10.757999999999996  37.242 0  24 0  C 10.758 0  0 10.758  0 24  C 0 37.244  10.758 48  24 48  C 37.242000000000004 48  48 37.242000000000004  48 24  Z M 21.394000000000002 33.806  C 20.557811200987743 34.39472928117918  19.56064795123479 34.71175457206703  18.538 34.714  C 18.528658662790257 34.7140500933523  18.519317208056464 34.7140751401635  18.509975736533722 34.7140751401635  C 15.629952727536722 34.7140751401635  13.292776112274048 32.38400963751954  13.284000000000002 29.504  C 13.275419585898266 27.39609226522002  14.530760984631295 25.488257032117282  16.47 24.662  L 14.276 21.6  C 12.58 19.240000000000002  13.117999999999999 15.972000000000001  15.434000000000001 14.316000000000003  C 17.75 12.660000000000004  21.061999999999998 13.156000000000002  22.716 15.474  C 24.372 17.792  23.876 21.102000000000004  21.558 22.758000000000003  C 21.236761974197403 22.990418024688186  20.889805820875868 23.185035596183823  20.524 23.338  L 22.799999999999997 26.567999999999998  C 23.385045350008184 27.429500313085526  23.69783841184915 28.4468676664735  23.69783841184915 29.48824216731969  C 23.69783841184915 31.22159540626368  22.833822917324394 32.840897198374655  21.394000000000002 33.806  Z M 31.531999999999996 23.338  L 33.848 26.565999999999995  C 35.464 28.964  34.842 32.192  32.442 33.804  C 30.042 35.416000000000004  26.814 34.800000000000004  25.200000000000003 32.398  C 24.615152733587223 31.536144454089662  24.302490184219224 30.51856960723501  24.302490184219224 29.47701245227571  C 24.302490184219224 27.742368613929656  25.16712771515636 26.121855219316735  26.608 25.156  C 26.897999999999996 24.948  27.186 24.826  27.478 24.660000000000004  L 25.243999999999996 21.598000000000003  C 23.554467886626473 19.25261182921328  24.071308784197818 15.983749364781062  26.402000000000005 14.274000000000003  C 28.748178914489344 12.5860389243521  32.01625516979586 13.103647943488578  33.726 15.434000000000001  C 35.4132451533242 17.779932187032063  34.89668364339627 21.047027609063285  32.568 22.758000000000003  C 32.24632763287364 22.990855292196787  31.898657248510574 23.18549701317225  31.531999999999996 23.338  Z M 21.764000000000003 26.980000000000004  L 16.51 19.654000000000003  C 16.30835655766633 19.30214438110943  16.20798785483768 18.901361767745357  16.220000000000002 18.496  C 16.220000000000002 17.214  17.254 16.22  18.496000000000002 16.22  C 19.78 16.22  20.772000000000002 17.253999999999998  20.772000000000002 18.496  C 20.772000000000002 19.284  20.358 20.028  19.696 20.442  L 19.614 20.484  C 19.2 20.774  19.076 21.312  19.364 21.726000000000003  C 19.53 21.974000000000004  19.82 22.098000000000003  20.11 22.140000000000004  C 20.256714887071734 22.137124450421627  20.399860968950147 22.094249778554662  20.524 22.016000000000005  L 20.606 21.974000000000004  C 22.530208178794116 20.791882458309306  23.140197489867187 18.278690772570467  21.972 16.346000000000004  C 20.790548292855778 14.4210785583751  18.277210215468685 13.810160560886551  16.344 14.978000000000005  C 14.433717987020287 16.17035546925985  13.827573598878573 18.671367651416425  14.98 20.606  C 15.064 20.732000000000003  15.146 20.856  15.227999999999998 20.938000000000002  L 20.482 28.264000000000003  C 20.689999999999998 28.596000000000004  20.772 29.009999999999998  20.772 29.42  C 20.772 30.706000000000003  19.778 31.698  18.496 31.74000000000001  C 17.22939278870022 31.745585937894262  16.19536727794343 30.728526303393416  16.18 29.462000000000003  C 16.18 28.676000000000002  16.594 27.93  17.256 27.516000000000002  L 17.34 27.476  C 17.754 27.184  17.878 26.648000000000003  17.587999999999997 26.234  C 17.420572711170177 25.983852702219373  17.142850352165738 25.82972796143138  16.842000000000002 25.819999999999997  C 16.694928741738465 25.82243481251566  16.5514917190235 25.86608955855934  16.428 25.946  L 16.344 25.988000000000007  C 14.440000000000001 27.186000000000003  13.82 29.714000000000002  15.02 31.616000000000003  C 16.220000000000002 33.518  18.744 34.14  20.648000000000003 32.940000000000005  C 21.848000000000003 32.194  22.592000000000002 30.870000000000005  22.592000000000002 29.464000000000006  C 22.592000000000002 28.55400000000001  22.302000000000003 27.686000000000007  21.764000000000003 26.980000000000004  Z M 17.378 29.461999999999996  C 17.378 30.125999999999998  17.876 30.622  18.538 30.622  C 19.158 30.622  19.696 30.125999999999998  19.696 29.461999999999996  C 19.670181797925956 28.840617443898566  19.15891869290567 28.35015599651132  18.537000000000003 28.35015599651132  C 17.915081307094336 28.35015599651132  17.403818202074042 28.840617443898566  17.378 29.461999999999996  Z M 19.656577079667652 18.50198691804445  C 19.656577079667652 17.88333559305355  19.156644124662495 17.380984783673423  18.538 17.378  C 17.91128337955543 17.37230809691159  17.3954139437058 17.869499501463213  17.378 18.496  C 17.378 19.118  17.876 19.656  18.496 19.656  C 19.118 19.656  19.656 19.157999999999998  19.656 18.538  C 19.656384695085094 18.525999492060393  19.656577079667652 18.51399359040265  19.656577079667652 18.50198691804445  Z " fill-rule="evenodd" />
    </mask>
  </defs>
  <g>
    <path d="M 32.93600000000001 16.342  C 32.19545805845051 15.159723651072152  30.899054887321746 14.441262453086452  29.504 14.440000000000001  C 29.49798952697956 14.439973436500555  29.49197900259785 14.439960154702192  29.485968470878525 14.439960154702192  C 27.23264669156889 14.439960154702192  25.405968470878527 16.266638375392557  25.405968470878527 18.519960154702193  C 25.405968470878527 18.525306785295193  25.405978980605987 18.530653410724298  25.406000000000002 18.536  C 25.406000000000002 19.446  25.698 20.316000000000003  26.234 21.018  L 31.490000000000002 28.342  C 32.11 29.416  31.738000000000003 30.826  30.662000000000006 31.485999999999997  C 29.586 32.108  28.180000000000003 31.735999999999997  27.518 30.657999999999994  C 26.896549628194172 29.591416903899997  27.22436022938009 28.2246581876652  28.262 27.555999999999997  L 28.345999999999997 27.513999999999996  C 28.758000000000003 27.223999999999997  28.884 26.685999999999993  28.594 26.271999999999995  C 28.42657271117018 26.021852702219363  28.148850352165734 25.867727961431378  27.848 25.85799999999999  C 27.700962265338276 25.860647462927595  27.557582345502272 25.904284829834207  27.434000000000005 25.983999999999995  L 27.351999999999997 26.025999999999996  C 25.449999999999996 27.225999999999992  24.828 29.747999999999998  26.028 31.652  C 27.229999999999997 33.558  29.752000000000002 34.18  31.654000000000003 32.976  C 33.558 31.776000000000003  34.18 29.253999999999998  32.978 27.349999999999994  C 32.896 27.223999999999997  32.814 27.141999999999996  32.77 27.017999999999994  L 27.516000000000005 19.652  C 27.313604706694576 19.29971896684804  27.21319522739025 18.898081049630758  27.226000000000006 18.491999999999997  C 27.226000000000006 17.209999999999997  28.260000000000005 16.215999999999998  29.502000000000002 16.215999999999998  C 30.742000000000004 16.215999999999998  31.778000000000006 17.249999999999996  31.778000000000006 18.491999999999997  C 31.778000000000006 19.279999999999998  31.364000000000004 19.981999999999996  30.702000000000005 20.438  C 30.660000000000004 20.438  30.660000000000004 20.48  30.620000000000005 20.48  C 30.206000000000003 20.77  30.080000000000005 21.308  30.372 21.722  C 30.536000000000005 21.970000000000002  30.828000000000003 22.094  31.116000000000007 22.136000000000003  C 31.262762565982 22.133430022988215  31.405989119224166 22.09053124858718  31.530000000000005 22.012000000000004  L 31.612000000000002 21.970000000000002  C 33.516000000000005 20.770000000000003  34.138000000000005 18.246000000000002  32.93600000000001 16.342  Z M 28.346000000000004 29.461999999999996  C 28.346000000000004 30.125999999999998  28.882000000000005 30.622  29.504 30.622  C 29.504668974858784 30.622001161406033  29.505337950598417 30.62200174210937  29.506006926465346 30.62200174210937  C 30.144448097269745 30.62200174210937  30.662006926465345 30.10444291291377  30.662006926465345 29.46600174210937  C 30.662006926465345 29.464667825076134  30.662004617640108 29.46333390904073  30.662000000000006 29.461999999999996  C 30.662000000000006 28.822454259695945  30.143545740304063 28.304000000000002  29.504 28.304000000000002  C 28.86445425969594 28.304000000000002  28.346000000000004 28.822454259695945  28.346000000000004 29.461999999999996  Z M 30.662 18.538  C 30.622 17.876  30.125999999999998 17.378  29.504 17.378  C 29.50333102514122 17.377998838593967  29.50266204940158 17.377998257890628  29.50199307353465 17.377998257890628  C 28.86355190273025 17.377998257890628  28.345993073534643 17.895557087086228  28.345993073534643 18.533998257890627  C 28.345993073534643 18.53533217492465  28.345995382359895 18.536666090958473  28.345999999999997 18.537999999999997  C 28.345999999999997 19.17754574030406  28.86445425969594 19.695999999999998  29.503999999999998 19.695999999999998  C 30.143545740304056 19.695999999999998  30.662 19.17754574030406  30.662 18.537999999999997  Z M 48 24  C 48 10.757999999999996  37.242 0  24 0  C 10.758 0  0 10.758  0 24  C 0 37.244  10.758 48  24 48  C 37.242000000000004 48  48 37.242000000000004  48 24  Z M 21.394000000000002 33.806  C 20.557811200987743 34.39472928117918  19.56064795123479 34.71175457206703  18.538 34.714  C 18.528658662790257 34.7140500933523  18.519317208056464 34.7140751401635  18.509975736533722 34.7140751401635  C 15.629952727536722 34.7140751401635  13.292776112274048 32.38400963751954  13.284000000000002 29.504  C 13.275419585898266 27.39609226522002  14.530760984631295 25.488257032117282  16.47 24.662  L 14.276 21.6  C 12.58 19.240000000000002  13.117999999999999 15.972000000000001  15.434000000000001 14.316000000000003  C 17.75 12.660000000000004  21.061999999999998 13.156000000000002  22.716 15.474  C 24.372 17.792  23.876 21.102000000000004  21.558 22.758000000000003  C 21.236761974197403 22.990418024688186  20.889805820875868 23.185035596183823  20.524 23.338  L 22.799999999999997 26.567999999999998  C 23.385045350008184 27.429500313085526  23.69783841184915 28.4468676664735  23.69783841184915 29.48824216731969  C 23.69783841184915 31.22159540626368  22.833822917324394 32.840897198374655  21.394000000000002 33.806  Z M 31.531999999999996 23.338  L 33.848 26.565999999999995  C 35.464 28.964  34.842 32.192  32.442 33.804  C 30.042 35.416000000000004  26.814 34.800000000000004  25.200000000000003 32.398  C 24.615152733587223 31.536144454089662  24.302490184219224 30.51856960723501  24.302490184219224 29.47701245227571  C 24.302490184219224 27.742368613929656  25.16712771515636 26.121855219316735  26.608 25.156  C 26.897999999999996 24.948  27.186 24.826  27.478 24.660000000000004  L 25.243999999999996 21.598000000000003  C 23.554467886626473 19.25261182921328  24.071308784197818 15.983749364781062  26.402000000000005 14.274000000000003  C 28.748178914489344 12.5860389243521  32.01625516979586 13.103647943488578  33.726 15.434000000000001  C 35.4132451533242 17.779932187032063  34.89668364339627 21.047027609063285  32.568 22.758000000000003  C 32.24632763287364 22.990855292196787  31.898657248510574 23.18549701317225  31.531999999999996 23.338  Z M 21.764000000000003 26.980000000000004  L 16.51 19.654000000000003  C 16.30835655766633 19.30214438110943  16.20798785483768 18.901361767745357  16.220000000000002 18.496  C 16.220000000000002 17.214  17.254 16.22  18.496000000000002 16.22  C 19.78 16.22  20.772000000000002 17.253999999999998  20.772000000000002 18.496  C 20.772000000000002 19.284  20.358 20.028  19.696 20.442  L 19.614 20.484  C 19.2 20.774  19.076 21.312  19.364 21.726000000000003  C 19.53 21.974000000000004  19.82 22.098000000000003  20.11 22.140000000000004  C 20.256714887071734 22.137124450421627  20.399860968950147 22.094249778554662  20.524 22.016000000000005  L 20.606 21.974000000000004  C 22.530208178794116 20.791882458309306  23.140197489867187 18.278690772570467  21.972 16.346000000000004  C 20.790548292855778 14.4210785583751  18.277210215468685 13.810160560886551  16.344 14.978000000000005  C 14.433717987020287 16.17035546925985  13.827573598878573 18.671367651416425  14.98 20.606  C 15.064 20.732000000000003  15.146 20.856  15.227999999999998 20.938000000000002  L 20.482 28.264000000000003  C 20.689999999999998 28.596000000000004  20.772 29.009999999999998  20.772 29.42  C 20.772 30.706000000000003  19.778 31.698  18.496 31.74000000000001  C 17.22939278870022 31.745585937894262  16.19536727794343 30.728526303393416  16.18 29.462000000000003  C 16.18 28.676000000000002  16.594 27.93  17.256 27.516000000000002  L 17.34 27.476  C 17.754 27.184  17.878 26.648000000000003  17.587999999999997 26.234  C 17.420572711170177 25.983852702219373  17.142850352165738 25.82972796143138  16.842000000000002 25.819999999999997  C 16.694928741738465 25.82243481251566  16.5514917190235 25.86608955855934  16.428 25.946  L 16.344 25.988000000000007  C 14.440000000000001 27.186000000000003  13.82 29.714000000000002  15.02 31.616000000000003  C 16.220000000000002 33.518  18.744 34.14  20.648000000000003 32.940000000000005  C 21.848000000000003 32.194  22.592000000000002 30.870000000000005  22.592000000000002 29.464000000000006  C 22.592000000000002 28.55400000000001  22.302000000000003 27.686000000000007  21.764000000000003 26.980000000000004  Z M 17.378 29.461999999999996  C 17.378 30.125999999999998  17.876 30.622  18.538 30.622  C 19.158 30.622  19.696 30.125999999999998  19.696 29.461999999999996  C 19.670181797925956 28.840617443898566  19.15891869290567 28.35015599651132  18.537000000000003 28.35015599651132  C 17.915081307094336 28.35015599651132  17.403818202074042 28.840617443898566  17.378 29.461999999999996  Z M 19.656577079667652 18.50198691804445  C 19.656577079667652 17.88333559305355  19.156644124662495 17.380984783673423  18.538 17.378  C 17.91128337955543 17.37230809691159  17.3954139437058 17.869499501463213  17.378 18.496  C 17.378 19.118  17.876 19.656  18.496 19.656  C 19.118 19.656  19.656 19.157999999999998  19.656 18.538  C 19.656384695085094 18.525999492060393  19.656577079667652 18.51399359040265  19.656577079667652 18.50198691804445  Z " fill-rule="nonzero" fill="rgba(33, 33, 33, 1)" stroke="none" class="fill" />
    <path d="M 32.93600000000001 16.342  C 32.19545805845051 15.159723651072152  30.899054887321746 14.441262453086452  29.504 14.440000000000001  C 29.49798952697956 14.439973436500555  29.49197900259785 14.439960154702192  29.485968470878525 14.439960154702192  C 27.23264669156889 14.439960154702192  25.405968470878527 16.266638375392557  25.405968470878527 18.519960154702193  C 25.405968470878527 18.525306785295193  25.405978980605987 18.530653410724298  25.406000000000002 18.536  C 25.406000000000002 19.446  25.698 20.316000000000003  26.234 21.018  L 31.490000000000002 28.342  C 32.11 29.416  31.738000000000003 30.826  30.662000000000006 31.485999999999997  C 29.586 32.108  28.180000000000003 31.735999999999997  27.518 30.657999999999994  C 26.896549628194172 29.591416903899997  27.22436022938009 28.2246581876652  28.262 27.555999999999997  L 28.345999999999997 27.513999999999996  C 28.758000000000003 27.223999999999997  28.884 26.685999999999993  28.594 26.271999999999995  C 28.42657271117018 26.021852702219363  28.148850352165734 25.867727961431378  27.848 25.85799999999999  C 27.700962265338276 25.860647462927595  27.557582345502272 25.904284829834207  27.434000000000005 25.983999999999995  L 27.351999999999997 26.025999999999996  C 25.449999999999996 27.225999999999992  24.828 29.747999999999998  26.028 31.652  C 27.229999999999997 33.558  29.752000000000002 34.18  31.654000000000003 32.976  C 33.558 31.776000000000003  34.18 29.253999999999998  32.978 27.349999999999994  C 32.896 27.223999999999997  32.814 27.141999999999996  32.77 27.017999999999994  L 27.516000000000005 19.652  C 27.313604706694576 19.29971896684804  27.21319522739025 18.898081049630758  27.226000000000006 18.491999999999997  C 27.226000000000006 17.209999999999997  28.260000000000005 16.215999999999998  29.502000000000002 16.215999999999998  C 30.742000000000004 16.215999999999998  31.778000000000006 17.249999999999996  31.778000000000006 18.491999999999997  C 31.778000000000006 19.279999999999998  31.364000000000004 19.981999999999996  30.702000000000005 20.438  C 30.660000000000004 20.438  30.660000000000004 20.48  30.620000000000005 20.48  C 30.206000000000003 20.77  30.080000000000005 21.308  30.372 21.722  C 30.536000000000005 21.970000000000002  30.828000000000003 22.094  31.116000000000007 22.136000000000003  C 31.262762565982 22.133430022988215  31.405989119224166 22.09053124858718  31.530000000000005 22.012000000000004  L 31.612000000000002 21.970000000000002  C 33.516000000000005 20.770000000000003  34.138000000000005 18.246000000000002  32.93600000000001 16.342  Z " stroke-width="0" stroke-dasharray="0" stroke="rgba(255, 255, 255, 0)" fill="none" class="stroke" mask="url(#Clip7439)" />
    <path d="M 28.346000000000004 29.461999999999996  C 28.346000000000004 30.125999999999998  28.882000000000005 30.622  29.504 30.622  C 29.504668974858784 30.622001161406033  29.505337950598417 30.62200174210937  29.506006926465346 30.62200174210937  C 30.144448097269745 30.62200174210937  30.662006926465345 30.10444291291377  30.662006926465345 29.46600174210937  C 30.662006926465345 29.464667825076134  30.662004617640108 29.46333390904073  30.662000000000006 29.461999999999996  C 30.662000000000006 28.822454259695945  30.143545740304063 28.304000000000002  29.504 28.304000000000002  C 28.86445425969594 28.304000000000002  28.346000000000004 28.822454259695945  28.346000000000004 29.461999999999996  Z " stroke-width="0" stroke-dasharray="0" stroke="rgba(255, 255, 255, 0)" fill="none" class="stroke" mask="url(#Clip7439)" />
    <path d="M 30.662 18.538  C 30.622 17.876  30.125999999999998 17.378  29.504 17.378  C 29.50333102514122 17.377998838593967  29.50266204940158 17.377998257890628  29.50199307353465 17.377998257890628  C 28.86355190273025 17.377998257890628  28.345993073534643 17.895557087086228  28.345993073534643 18.533998257890627  C 28.345993073534643 18.53533217492465  28.345995382359895 18.536666090958473  28.345999999999997 18.537999999999997  C 28.345999999999997 19.17754574030406  28.86445425969594 19.695999999999998  29.503999999999998 19.695999999999998  C 30.143545740304056 19.695999999999998  30.662 19.17754574030406  30.662 18.537999999999997  Z " stroke-width="0" stroke-dasharray="0" stroke="rgba(255, 255, 255, 0)" fill="none" class="stroke" mask="url(#Clip7439)" />
    <path d="M 48 24  C 48 10.757999999999996  37.242 0  24 0  C 10.758 0  0 10.758  0 24  C 0 37.244  10.758 48  24 48  C 37.242000000000004 48  48 37.242000000000004  48 24  Z " stroke-width="0" stroke-dasharray="0" stroke="rgba(255, 255, 255, 0)" fill="none" class="stroke" mask="url(#Clip7439)" />
    <path d="M 21.394000000000002 33.806  C 20.557811200987743 34.39472928117918  19.56064795123479 34.71175457206703  18.538 34.714  C 18.528658662790257 34.7140500933523  18.519317208056464 34.7140751401635  18.509975736533722 34.7140751401635  C 15.629952727536722 34.7140751401635  13.292776112274048 32.38400963751954  13.284000000000002 29.504  C 13.275419585898266 27.39609226522002  14.530760984631295 25.488257032117282  16.47 24.662  L 14.276 21.6  C 12.58 19.240000000000002  13.117999999999999 15.972000000000001  15.434000000000001 14.316000000000003  C 17.75 12.660000000000004  21.061999999999998 13.156000000000002  22.716 15.474  C 24.372 17.792  23.876 21.102000000000004  21.558 22.758000000000003  C 21.236761974197403 22.990418024688186  20.889805820875868 23.185035596183823  20.524 23.338  L 22.799999999999997 26.567999999999998  C 23.385045350008184 27.429500313085526  23.69783841184915 28.4468676664735  23.69783841184915 29.48824216731969  C 23.69783841184915 31.22159540626368  22.833822917324394 32.840897198374655  21.394000000000002 33.806  Z " stroke-width="0" stroke-dasharray="0" stroke="rgba(255, 255, 255, 0)" fill="none" class="stroke" mask="url(#Clip7439)" />
    <path d="M 31.531999999999996 23.338  L 33.848 26.565999999999995  C 35.464 28.964  34.842 32.192  32.442 33.804  C 30.042 35.416000000000004  26.814 34.800000000000004  25.200000000000003 32.398  C 24.615152733587223 31.536144454089662  24.302490184219224 30.51856960723501  24.302490184219224 29.47701245227571  C 24.302490184219224 27.742368613929656  25.16712771515636 26.121855219316735  26.608 25.156  C 26.897999999999996 24.948  27.186 24.826  27.478 24.660000000000004  L 25.243999999999996 21.598000000000003  C 23.554467886626473 19.25261182921328  24.071308784197818 15.983749364781062  26.402000000000005 14.274000000000003  C 28.748178914489344 12.5860389243521  32.01625516979586 13.103647943488578  33.726 15.434000000000001  C 35.4132451533242 17.779932187032063  34.89668364339627 21.047027609063285  32.568 22.758000000000003  C 32.24632763287364 22.990855292196787  31.898657248510574 23.18549701317225  31.531999999999996 23.338  Z " stroke-width="0" stroke-dasharray="0" stroke="rgba(255, 255, 255, 0)" fill="none" class="stroke" mask="url(#Clip7439)" />
    <path d="M 21.764000000000003 26.980000000000004  L 16.51 19.654000000000003  C 16.30835655766633 19.30214438110943  16.20798785483768 18.901361767745357  16.220000000000002 18.496  C 16.220000000000002 17.214  17.254 16.22  18.496000000000002 16.22  C 19.78 16.22  20.772000000000002 17.253999999999998  20.772000000000002 18.496  C 20.772000000000002 19.284  20.358 20.028  19.696 20.442  L 19.614 20.484  C 19.2 20.774  19.076 21.312  19.364 21.726000000000003  C 19.53 21.974000000000004  19.82 22.098000000000003  20.11 22.140000000000004  C 20.256714887071734 22.137124450421627  20.399860968950147 22.094249778554662  20.524 22.016000000000005  L 20.606 21.974000000000004  C 22.530208178794116 20.791882458309306  23.140197489867187 18.278690772570467  21.972 16.346000000000004  C 20.790548292855778 14.4210785583751  18.277210215468685 13.810160560886551  16.344 14.978000000000005  C 14.433717987020287 16.17035546925985  13.827573598878573 18.671367651416425  14.98 20.606  C 15.064 20.732000000000003  15.146 20.856  15.227999999999998 20.938000000000002  L 20.482 28.264000000000003  C 20.689999999999998 28.596000000000004  20.772 29.009999999999998  20.772 29.42  C 20.772 30.706000000000003  19.778 31.698  18.496 31.74000000000001  C 17.22939278870022 31.745585937894262  16.19536727794343 30.728526303393416  16.18 29.462000000000003  C 16.18 28.676000000000002  16.594 27.93  17.256 27.516000000000002  L 17.34 27.476  C 17.754 27.184  17.878 26.648000000000003  17.587999999999997 26.234  C 17.420572711170177 25.983852702219373  17.142850352165738 25.82972796143138  16.842000000000002 25.819999999999997  C 16.694928741738465 25.82243481251566  16.5514917190235 25.86608955855934  16.428 25.946  L 16.344 25.988000000000007  C 14.440000000000001 27.186000000000003  13.82 29.714000000000002  15.02 31.616000000000003  C 16.220000000000002 33.518  18.744 34.14  20.648000000000003 32.940000000000005  C 21.848000000000003 32.194  22.592000000000002 30.870000000000005  22.592000000000002 29.464000000000006  C 22.592000000000002 28.55400000000001  22.302000000000003 27.686000000000007  21.764000000000003 26.980000000000004  Z " stroke-width="0" stroke-dasharray="0" stroke="rgba(255, 255, 255, 0)" fill="none" class="stroke" mask="url(#Clip7439)" />
    <path d="M 17.378 29.461999999999996  C 17.378 30.125999999999998  17.876 30.622  18.538 30.622  C 19.158 30.622  19.696 30.125999999999998  19.696 29.461999999999996  C 19.670181797925956 28.840617443898566  19.15891869290567 28.35015599651132  18.537000000000003 28.35015599651132  C 17.915081307094336 28.35015599651132  17.403818202074042 28.840617443898566  17.378 29.461999999999996  Z " stroke-width="0" stroke-dasharray="0" stroke="rgba(255, 255, 255, 0)" fill="none" class="stroke" mask="url(#Clip7439)" />
    <path d="M 19.656577079667652 18.50198691804445  C 19.656577079667652 17.88333559305355  19.156644124662495 17.380984783673423  18.538 17.378  C 17.91128337955543 17.37230809691159  17.3954139437058 17.869499501463213  17.378 18.496  C 17.378 19.118  17.876 19.656  18.496 19.656  C 19.118 19.656  19.656 19.157999999999998  19.656 18.538  C 19.656384695085094 18.525999492060393  19.656577079667652 18.51399359040265  19.656577079667652 18.50198691804445  Z " stroke-width="0" stroke-dasharray="0" stroke="rgba(255, 255, 255, 0)" fill="none" class="stroke" mask="url(#Clip7439)" />
  </g>
</svg>