<?xml version="1.0" encoding="utf-8"?>
<svg version="1.1" xmlns:xlink="http://www.w3.org/1999/xlink" width="48px" height="48px" xmlns="http://www.w3.org/2000/svg">
  <defs>
    <pattern id="BGPattern" patternUnits="userSpaceOnUse" alignment="0 0" imageRepeat="None" />
    <mask fill="white" id="Clip6729">
      <path d="M 24 0  C 37.254 0  48 10.746  48 24  C 48 37.254  37.254 48  24 48  C 10.746000000000002 48  0 37.254  0 24  C 0 10.746000000000002  10.746 0  24 0  Z M 34.554 20.480000000000004  L 39.704 23.454  L 37.75 9.574  L 24.75 14.822  L 29.9 17.796  L 25.029999999999994 26.226  L 16.6 21.36  L 8.294000000000002 35.74  L 12.948000000000002 38.432  L 18.572000000000003 28.695999999999998  L 27 33.56  L 34.554 20.480000000000004  Z " fill-rule="evenodd" />
    </mask>
  </defs>
  <g>
    <path d="M 24 0  C 37.254 0  48 10.746  48 24  C 48 37.254  37.254 48  24 48  C 10.746000000000002 48  0 37.254  0 24  C 0 10.746000000000002  10.746 0  24 0  Z M 34.554 20.480000000000004  L 39.704 23.454  L 37.75 9.574  L 24.75 14.822  L 29.9 17.796  L 25.029999999999994 26.226  L 16.6 21.36  L 8.294000000000002 35.74  L 12.948000000000002 38.432  L 18.572000000000003 28.695999999999998  L 27 33.56  L 34.554 20.480000000000004  Z " fill-rule="nonzero" fill="rgba(238, 51, 34, 1)" stroke="none" class="fill" />
    <path d="M 24 0  C 37.254 0  48 10.746  48 24  C 48 37.254  37.254 48  24 48  C 10.746000000000002 48  0 37.254  0 24  C 0 10.746000000000002  10.746 0  24 0  Z " stroke-width="0" stroke-dasharray="0" stroke="rgba(255, 255, 255, 0)" fill="none" class="stroke" mask="url(#Clip6729)" />
    <path d="M 34.554 20.480000000000004  L 39.704 23.454  L 37.75 9.574  L 24.75 14.822  L 29.9 17.796  L 25.029999999999994 26.226  L 16.6 21.36  L 8.294000000000002 35.74  L 12.948000000000002 38.432  L 18.572000000000003 28.695999999999998  L 27 33.56  L 34.554 20.480000000000004  Z " stroke-width="0" stroke-dasharray="0" stroke="rgba(255, 255, 255, 0)" fill="none" class="stroke" mask="url(#Clip6729)" />
  </g>
</svg>