<?xml version="1.0" encoding="utf-8"?>
<svg version="1.1" xmlns:xlink="http://www.w3.org/1999/xlink" width="12px" height="12px" xmlns="http://www.w3.org/2000/svg">
  <defs>
    <pattern id="BGPattern" patternUnits="userSpaceOnUse" alignment="0 0" imageRepeat="None" />
    <mask fill="white" id="Clip3364">
      <path d="M 12 5  L 7 5  L 7 0  L 5 0  L 5 5  L 0 5  L 0 7  L 5 7  L 5 12  L 7 12  L 7 7  L 12 7  L 12 5  Z " fill-rule="evenodd" />
    </mask>
  </defs>
  <g transform="matrix(1 0 0 1 -10 -10 )">
    <path d="M 12 5  L 7 5  L 7 0  L 5 0  L 5 5  L 0 5  L 0 7  L 5 7  L 5 12  L 7 12  L 7 7  L 12 7  L 12 5  Z " fill-rule="nonzero" fill="rgba(0, 0, 0, 1)" stroke="none" transform="matrix(1 0 0 1 10 10 )" class="fill" />
    <path d="M 12 5  L 7 5  L 7 0  L 5 0  L 5 5  L 0 5  L 0 7  L 5 7  L 5 12  L 7 12  L 7 7  L 12 7  L 12 5  Z " stroke-width="0" stroke-dasharray="0" stroke="rgba(255, 255, 255, 0)" fill="none" transform="matrix(1 0 0 1 10 10 )" class="stroke" mask="url(#Clip3364)" />
  </g>
</svg>