<?xml version="1.0" encoding="utf-8"?>
<svg version="1.1" xmlns:xlink="http://www.w3.org/1999/xlink" width="11px" height="11px" xmlns="http://www.w3.org/2000/svg">
  <defs>
    <pattern id="BGPattern" patternUnits="userSpaceOnUse" alignment="0 0" imageRepeat="None" />
    <mask fill="white" id="Clip3646">
      <path d="M 1.9999999999999991 5.4999999999999964  C 1.9999999999999991 3.567003375592222  3.567003375592222 1.9999999999999964  5.5 1.9999999999999964  C 7.432996624407779 1.9999999999999964  9 3.567003375592222  9 5.4999999999999964  C 9 7.4329966244077745  7.432996624407779 8.999999999999996  5.5 8.999999999999996  C 3.567003375592222 8.999999999999996  1.9999999999999991 7.4329966244077745  1.9999999999999991 5.4999999999999964  Z M 11 5.5  C 11 2.462433875930632  8.537566124069365 0  5.5 0  C 2.4624338759306355 0  0 2.4624338759306355  0 5.5  C 0 8.537566124069361  2.4624338759306355 11  5.5 11  C 8.537566124069365 11  11 8.537566124069361  11 5.5  Z " fill-rule="evenodd" />
    </mask>
  </defs>
  <g transform="matrix(1 0 0 1 -3 -18 )">
    <path d="M 1.9999999999999991 5.4999999999999964  C 1.9999999999999991 3.567003375592222  3.567003375592222 1.9999999999999964  5.5 1.9999999999999964  C 7.432996624407779 1.9999999999999964  9 3.567003375592222  9 5.4999999999999964  C 9 7.4329966244077745  7.432996624407779 8.999999999999996  5.5 8.999999999999996  C 3.567003375592222 8.999999999999996  1.9999999999999991 7.4329966244077745  1.9999999999999991 5.4999999999999964  Z M 11 5.5  C 11 2.462433875930632  8.537566124069365 0  5.5 0  C 2.4624338759306355 0  0 2.4624338759306355  0 5.5  C 0 8.537566124069361  2.4624338759306355 11  5.5 11  C 8.537566124069365 11  11 8.537566124069361  11 5.5  Z " fill-rule="nonzero" fill="rgba(0, 0, 0, 1)" stroke="none" transform="matrix(1 0 0 1 3 18 )" class="fill" />
    <path d="M 1.9999999999999991 5.4999999999999964  C 1.9999999999999991 3.567003375592222  3.567003375592222 1.9999999999999964  5.5 1.9999999999999964  C 7.432996624407779 1.9999999999999964  9 3.567003375592222  9 5.4999999999999964  C 9 7.4329966244077745  7.432996624407779 8.999999999999996  5.5 8.999999999999996  C 3.567003375592222 8.999999999999996  1.9999999999999991 7.4329966244077745  1.9999999999999991 5.4999999999999964  Z " stroke-width="0" stroke-dasharray="0" stroke="rgba(255, 255, 255, 0)" fill="none" transform="matrix(1 0 0 1 3 18 )" class="stroke" mask="url(#Clip3646)" />
    <path d="M 11 5.5  C 11 2.462433875930632  8.537566124069365 0  5.5 0  C 2.4624338759306355 0  0 2.4624338759306355  0 5.5  C 0 8.537566124069361  2.4624338759306355 11  5.5 11  C 8.537566124069365 11  11 8.537566124069361  11 5.5  Z " stroke-width="0" stroke-dasharray="0" stroke="rgba(255, 255, 255, 0)" fill="none" transform="matrix(1 0 0 1 3 18 )" class="stroke" mask="url(#Clip3646)" />
  </g>
</svg>