<?xml version="1.0" encoding="utf-8"?>
<svg version="1.1" xmlns:xlink="http://www.w3.org/1999/xlink" width="24px" height="24px" xmlns="http://www.w3.org/2000/svg">
  <defs>
    <pattern id="BGPattern" patternUnits="userSpaceOnUse" alignment="0 0" imageRepeat="None" />
    <mask fill="white" id="Clip5044">
      <path d="M 0 21  L 0 3  C 0 1.3431457505076196  1.3431457505076196 0  3 0  L 21 0  C 22.65685424949238 0  24 1.3431457505076196  24 3  L 24 21  C 24 22.65685424949238  22.65685424949238 24  21 24  L 3 24  C 1.3431457505076196 24  0 22.65685424949238  0 21  Z M 15.000000026825418 18.750200594435157  C 15.414213589198514 18.750200594435157  15.750000026825418 18.414414156808252  15.75 18  L 15.750000026825418 5.999799405564843  C 15.750000026825418 5.585585843191748  15.414213589198514 5.249799405564843  15.000000026825418 5.249799405564843  C 14.816440169493625 5.249799405564843  14.639253678502984 5.317116248166261  14.501999999999999 5.439  L 7.751999999999999 11.439  C 7.591583200429673 11.581337467429789  7.499774045124893 11.785539038007585  7.499774045124893 12  C 7.499774045124893 12.214460961992415  7.591583200429673 12.418662532570213  7.751999999999999 12.561  L 14.501999999999999 18.561  C 14.639253678502984 18.68288375183374  14.816440169493625 18.750200594435157  15.000000026825418 18.750200594435157  Z " fill-rule="evenodd" />
    </mask>
  </defs>
  <g>
    <path d="M 0 21  L 0 3  C 0 1.3431457505076196  1.3431457505076196 0  3 0  L 21 0  C 22.65685424949238 0  24 1.3431457505076196  24 3  L 24 21  C 24 22.65685424949238  22.65685424949238 24  21 24  L 3 24  C 1.3431457505076196 24  0 22.65685424949238  0 21  Z M 15.000000026825418 18.750200594435157  C 15.414213589198514 18.750200594435157  15.750000026825418 18.414414156808252  15.75 18  L 15.750000026825418 5.999799405564843  C 15.750000026825418 5.585585843191748  15.414213589198514 5.249799405564843  15.000000026825418 5.249799405564843  C 14.816440169493625 5.249799405564843  14.639253678502984 5.317116248166261  14.501999999999999 5.439  L 7.751999999999999 11.439  C 7.591583200429673 11.581337467429789  7.499774045124893 11.785539038007585  7.499774045124893 12  C 7.499774045124893 12.214460961992415  7.591583200429673 12.418662532570213  7.751999999999999 12.561  L 14.501999999999999 18.561  C 14.639253678502984 18.68288375183374  14.816440169493625 18.750200594435157  15.000000026825418 18.750200594435157  Z " fill-rule="nonzero" fill="rgba(0, 0, 0, 1)" stroke="none" class="fill" />
    <path d="M 0 21  L 0 3  C 0 1.3431457505076196  1.3431457505076196 0  3 0  L 21 0  C 22.65685424949238 0  24 1.3431457505076196  24 3  L 24 21  C 24 22.65685424949238  22.65685424949238 24  21 24  L 3 24  C 1.3431457505076196 24  0 22.65685424949238  0 21  Z " stroke-width="0" stroke-dasharray="0" stroke="rgba(255, 255, 255, 0)" fill="none" class="stroke" mask="url(#Clip5044)" />
    <path d="M 15.000000026825418 18.750200594435157  C 15.414213589198514 18.750200594435157  15.750000026825418 18.414414156808252  15.75 18  L 15.750000026825418 5.999799405564843  C 15.750000026825418 5.585585843191748  15.414213589198514 5.249799405564843  15.000000026825418 5.249799405564843  C 14.816440169493625 5.249799405564843  14.639253678502984 5.317116248166261  14.501999999999999 5.439  L 7.751999999999999 11.439  C 7.591583200429673 11.581337467429789  7.499774045124893 11.785539038007585  7.499774045124893 12  C 7.499774045124893 12.214460961992415  7.591583200429673 12.418662532570213  7.751999999999999 12.561  L 14.501999999999999 18.561  C 14.639253678502984 18.68288375183374  14.816440169493625 18.750200594435157  15.000000026825418 18.750200594435157  Z " stroke-width="0" stroke-dasharray="0" stroke="rgba(255, 255, 255, 0)" fill="none" class="stroke" mask="url(#Clip5044)" />
  </g>
</svg>