<?xml version="1.0" encoding="utf-8"?>
<svg version="1.1" xmlns:xlink="http://www.w3.org/1999/xlink" width="48px" height="36px" xmlns="http://www.w3.org/2000/svg">
  <defs>
    <pattern id="BGPattern" patternUnits="userSpaceOnUse" alignment="0 0" imageRepeat="None" />
    <mask fill="white" id="Clip6912">
      <path d="M 48 14.400000000000002  C 48 6.4200000000000035  41.34 0  33.12 0  C 28.3 0  24.08 2.480000000000004  21.36 5.940000000000003  L 21.36 13.520000000000003  C 25 3.4200000000000035  33.12 4.160000000000004  33.12 4.160000000000004  C 39 4.160000000000004  43.68 8.760000000000003  43.68 14.400000000000002  C 43.68 20.080000000000002  39 24.660000000000004  33.12 24.660000000000004  C 30.343572142191924 24.669012669790924  27.67359632981255 23.592409519637954  25.68 21.660000000000004  L 20.56 16.060000000000006  C 18.28330796667671 13.851717883041605  15.231683609886865 12.623887847721452  12.060000000000002 12.640000000000004  C 5.4 12.640000000000004  0 17.860000000000003  0 24.320000000000004  C 0 30.800000000000004  5.4 36  12.060000000000002 36  C 15.8 36  19.16 34.38000000000001  21.36 31.780000000000005  L 21.36 25.720000000000002  C 17.76 32.58  12.060000000000002 31.840000000000003  12.060000000000002 31.840000000000003  C 7.800000000000001 31.840000000000003  4.34 28.48  4.34 24.320000000000004  C 4.34 20.200000000000003  7.800000000000001 16.840000000000003  12.060000000000002 16.840000000000003  C 14.18 16.840000000000003  16.1 17.680000000000003  17.5 19.000000000000004  L 22.62 24.62  C 25.431609805079432 27.350896750113126  29.200461373305867 28.87279490718743  33.12 28.860000000000003  C 41.34 28.860000000000003  48 22.380000000000003  48 14.400000000000002  Z " fill-rule="evenodd" />
    </mask>
  </defs>
  <g>
    <path d="M 48 14.400000000000002  C 48 6.4200000000000035  41.34 0  33.12 0  C 28.3 0  24.08 2.480000000000004  21.36 5.940000000000003  L 21.36 13.520000000000003  C 25 3.4200000000000035  33.12 4.160000000000004  33.12 4.160000000000004  C 39 4.160000000000004  43.68 8.760000000000003  43.68 14.400000000000002  C 43.68 20.080000000000002  39 24.660000000000004  33.12 24.660000000000004  C 30.343572142191924 24.669012669790924  27.67359632981255 23.592409519637954  25.68 21.660000000000004  L 20.56 16.060000000000006  C 18.28330796667671 13.851717883041605  15.231683609886865 12.623887847721452  12.060000000000002 12.640000000000004  C 5.4 12.640000000000004  0 17.860000000000003  0 24.320000000000004  C 0 30.800000000000004  5.4 36  12.060000000000002 36  C 15.8 36  19.16 34.38000000000001  21.36 31.780000000000005  L 21.36 25.720000000000002  C 17.76 32.58  12.060000000000002 31.840000000000003  12.060000000000002 31.840000000000003  C 7.800000000000001 31.840000000000003  4.34 28.48  4.34 24.320000000000004  C 4.34 20.200000000000003  7.800000000000001 16.840000000000003  12.060000000000002 16.840000000000003  C 14.18 16.840000000000003  16.1 17.680000000000003  17.5 19.000000000000004  L 22.62 24.62  C 25.431609805079432 27.350896750113126  29.200461373305867 28.87279490718743  33.12 28.860000000000003  C 41.34 28.860000000000003  48 22.380000000000003  48 14.400000000000002  Z " fill-rule="nonzero" fill="rgba(255, 0, 0, 1)" stroke="none" class="fill" />
    <path d="M 48 14.400000000000002  C 48 6.4200000000000035  41.34 0  33.12 0  C 28.3 0  24.08 2.480000000000004  21.36 5.940000000000003  L 21.36 13.520000000000003  C 25 3.4200000000000035  33.12 4.160000000000004  33.12 4.160000000000004  C 39 4.160000000000004  43.68 8.760000000000003  43.68 14.400000000000002  C 43.68 20.080000000000002  39 24.660000000000004  33.12 24.660000000000004  C 30.343572142191924 24.669012669790924  27.67359632981255 23.592409519637954  25.68 21.660000000000004  L 20.56 16.060000000000006  C 18.28330796667671 13.851717883041605  15.231683609886865 12.623887847721452  12.060000000000002 12.640000000000004  C 5.4 12.640000000000004  0 17.860000000000003  0 24.320000000000004  C 0 30.800000000000004  5.4 36  12.060000000000002 36  C 15.8 36  19.16 34.38000000000001  21.36 31.780000000000005  L 21.36 25.720000000000002  C 17.76 32.58  12.060000000000002 31.840000000000003  12.060000000000002 31.840000000000003  C 7.800000000000001 31.840000000000003  4.34 28.48  4.34 24.320000000000004  C 4.34 20.200000000000003  7.800000000000001 16.840000000000003  12.060000000000002 16.840000000000003  C 14.18 16.840000000000003  16.1 17.680000000000003  17.5 19.000000000000004  L 22.62 24.62  C 25.431609805079432 27.350896750113126  29.200461373305867 28.87279490718743  33.12 28.860000000000003  C 41.34 28.860000000000003  48 22.380000000000003  48 14.400000000000002  Z " stroke-width="0" stroke-dasharray="0" stroke="rgba(255, 255, 255, 0)" fill="none" class="stroke" mask="url(#Clip6912)" />
  </g>
</svg>