<?xml version="1.0" encoding="utf-8"?>
<svg version="1.1" xmlns:xlink="http://www.w3.org/1999/xlink" width="48px" height="36px" xmlns="http://www.w3.org/2000/svg">
  <defs>
    <pattern id="BGPattern" patternUnits="userSpaceOnUse" alignment="0 0" imageRepeat="None" />
    <mask fill="white" id="Clip2904">
      <path d="M 1 14  L 1 35  L 47 35  L 47 14  L 1 14  Z M 32.1875 31  L 32.1875 26.5  C 32.1875 26.225  32.4125 26  32.6875 26  L 43 26  C 43.275 26  43.5 26.225  43.5 26.5  L 43.5 31  C 43.5 31.275  43.275 31.5  43 31  L 32.6875 31  C 32.4125 31.5  32.1875 31.275  32.1875 31  Z M 0.5 8  L 0.5 1  L 47.5 1  L 47.5 8  L 0.5 8  Z " fill-rule="evenodd" />
    </mask>
  </defs>
  <g transform="matrix(1 0 0 1 -4 -4 )">
    <path d="M 1 14  L 1 35  L 47 35  L 47 14  L 1 14  Z M 32.1875 31  L 32.1875 26.5  C 32.1875 26.225  32.4125 26  32.6875 26  L 43 26  C 43.275 26  43.5 26.225  43.5 26.5  L 43.5 31  C 43.5 31.275  43.275 31.5  43 31  L 32.6875 31  C 32.4125 31.5  32.1875 31.275  32.1875 31  Z M 0.5 8  L 0.5 1  L 47.5 1  L 47.5 8  L 0.5 8  Z " fill-rule="nonzero" fill="rgba(217, 217, 217, 1)" stroke="none" transform="matrix(1 0 0 1 4 4 )" class="fill" />
    <path d="M 1 14  L 1 35  L 47 35  L 47 14  L 1 14  Z " stroke-width="0" stroke-dasharray="0" stroke="rgba(255, 255, 255, 0)" fill="none" transform="matrix(1 0 0 1 4 4 )" class="stroke" mask="url(#Clip2904)" />
    <path d="M 32.1875 31  L 32.1875 26.5  C 32.1875 26.225  32.4125 26  32.6875 26  L 43 26  C 43.275 26  43.5 26.225  43.5 26.5  L 43.5 31  C 43.5 31.275  43.275 31.5  43 31  L 32.6875 31  C 32.4125 31.5  32.1875 31.275  32.1875 31  Z " stroke-width="0" stroke-dasharray="0" stroke="rgba(255, 255, 255, 0)" fill="none" transform="matrix(1 0 0 1 4 4 )" class="stroke" mask="url(#Clip2904)" />
    <path d="M 0.5 8  L 0.5 1  L 47.5 1  L 47.5 8  L 0.5 8  Z " stroke-width="0" stroke-dasharray="0" stroke="rgba(255, 255, 255, 0)" fill="none" transform="matrix(1 0 0 1 4 4 )" class="stroke" mask="url(#Clip2904)" />
  </g>
</svg>