<?xml version="1.0" encoding="utf-8"?>
<svg version="1.1" xmlns:xlink="http://www.w3.org/1999/xlink" width="12px" height="10px" xmlns="http://www.w3.org/2000/svg">
  <defs>
    <pattern id="BGPattern" patternUnits="userSpaceOnUse" alignment="0 0" imageRepeat="None" />
    <mask fill="white" id="Clip6431">
      <path d="M 1.5 0.27499999999999947  L 0 0.27499999999999947  L 0 1.625  L 1.5 1.625  L 1.5 0.27499999999999947  Z M 12 0.27499999999999947  L 10.5 0.27499999999999947  L 10.5 1.625  L 12 1.625  L 12 0.27499999999999947  Z M 1.5 2.9749999999999996  L 0 2.9749999999999996  L 0 4.324999999999999  L 1.5 4.324999999999999  L 1.5 2.9749999999999996  Z M 12 2.9749999999999996  L 10.5 2.9749999999999996  L 10.5 4.324999999999999  L 12 4.324999999999999  L 12 2.9749999999999996  Z M 1.5 5.674999999999999  L 0 5.674999999999999  L 0 7.024999999999999  L 1.5 7.024999999999999  L 1.5 5.674999999999999  Z M 12 5.674999999999999  L 10.5 5.674999999999999  L 10.5 7.024999999999999  L 12 7.024999999999999  L 12 5.674999999999999  Z M 1.5 8.375  L 0 8.375  L 0 9.725000000000001  L 1.5 9.725000000000001  L 1.5 8.375  Z M 12 8.375  L 10.5 8.375  L 10.5 9.725000000000001  L 12 9.725000000000001  L 12 8.375  Z " fill-rule="evenodd" />
    </mask>
  </defs>
  <g transform="matrix(1 0 0 1 -6 -3 )">
    <path d="M 1.5 0.27499999999999947  L 0 0.27499999999999947  L 0 1.625  L 1.5 1.625  L 1.5 0.27499999999999947  Z M 12 0.27499999999999947  L 10.5 0.27499999999999947  L 10.5 1.625  L 12 1.625  L 12 0.27499999999999947  Z M 1.5 2.9749999999999996  L 0 2.9749999999999996  L 0 4.324999999999999  L 1.5 4.324999999999999  L 1.5 2.9749999999999996  Z M 12 2.9749999999999996  L 10.5 2.9749999999999996  L 10.5 4.324999999999999  L 12 4.324999999999999  L 12 2.9749999999999996  Z M 1.5 5.674999999999999  L 0 5.674999999999999  L 0 7.024999999999999  L 1.5 7.024999999999999  L 1.5 5.674999999999999  Z M 12 5.674999999999999  L 10.5 5.674999999999999  L 10.5 7.024999999999999  L 12 7.024999999999999  L 12 5.674999999999999  Z M 1.5 8.375  L 0 8.375  L 0 9.725000000000001  L 1.5 9.725000000000001  L 1.5 8.375  Z M 12 8.375  L 10.5 8.375  L 10.5 9.725000000000001  L 12 9.725000000000001  L 12 8.375  Z " fill-rule="nonzero" fill="rgba(0, 0, 0, 1)" stroke="none" transform="matrix(1 0 0 1 6 3 )" class="fill" />
    <path d="M 1.5 0.27499999999999947  L 0 0.27499999999999947  L 0 1.625  L 1.5 1.625  L 1.5 0.27499999999999947  Z " stroke-width="0" stroke-dasharray="0" stroke="rgba(255, 255, 255, 0)" fill="none" transform="matrix(1 0 0 1 6 3 )" class="stroke" mask="url(#Clip6431)" />
    <path d="M 12 0.27499999999999947  L 10.5 0.27499999999999947  L 10.5 1.625  L 12 1.625  L 12 0.27499999999999947  Z " stroke-width="0" stroke-dasharray="0" stroke="rgba(255, 255, 255, 0)" fill="none" transform="matrix(1 0 0 1 6 3 )" class="stroke" mask="url(#Clip6431)" />
    <path d="M 1.5 2.9749999999999996  L 0 2.9749999999999996  L 0 4.324999999999999  L 1.5 4.324999999999999  L 1.5 2.9749999999999996  Z " stroke-width="0" stroke-dasharray="0" stroke="rgba(255, 255, 255, 0)" fill="none" transform="matrix(1 0 0 1 6 3 )" class="stroke" mask="url(#Clip6431)" />
    <path d="M 12 2.9749999999999996  L 10.5 2.9749999999999996  L 10.5 4.324999999999999  L 12 4.324999999999999  L 12 2.9749999999999996  Z " stroke-width="0" stroke-dasharray="0" stroke="rgba(255, 255, 255, 0)" fill="none" transform="matrix(1 0 0 1 6 3 )" class="stroke" mask="url(#Clip6431)" />
    <path d="M 1.5 5.674999999999999  L 0 5.674999999999999  L 0 7.024999999999999  L 1.5 7.024999999999999  L 1.5 5.674999999999999  Z " stroke-width="0" stroke-dasharray="0" stroke="rgba(255, 255, 255, 0)" fill="none" transform="matrix(1 0 0 1 6 3 )" class="stroke" mask="url(#Clip6431)" />
    <path d="M 12 5.674999999999999  L 10.5 5.674999999999999  L 10.5 7.024999999999999  L 12 7.024999999999999  L 12 5.674999999999999  Z " stroke-width="0" stroke-dasharray="0" stroke="rgba(255, 255, 255, 0)" fill="none" transform="matrix(1 0 0 1 6 3 )" class="stroke" mask="url(#Clip6431)" />
    <path d="M 1.5 8.375  L 0 8.375  L 0 9.725000000000001  L 1.5 9.725000000000001  L 1.5 8.375  Z " stroke-width="0" stroke-dasharray="0" stroke="rgba(255, 255, 255, 0)" fill="none" transform="matrix(1 0 0 1 6 3 )" class="stroke" mask="url(#Clip6431)" />
    <path d="M 12 8.375  L 10.5 8.375  L 10.5 9.725000000000001  L 12 9.725000000000001  L 12 8.375  Z " stroke-width="0" stroke-dasharray="0" stroke="rgba(255, 255, 255, 0)" fill="none" transform="matrix(1 0 0 1 6 3 )" class="stroke" mask="url(#Clip6431)" />
  </g>
</svg>