<?xml version="1.0" encoding="utf-8"?>
<svg version="1.1" xmlns:xlink="http://www.w3.org/1999/xlink" width="24px" height="25px" xmlns="http://www.w3.org/2000/svg">
  <defs>
    <pattern id="BGPattern" patternUnits="userSpaceOnUse" alignment="0 0" imageRepeat="None" />
    <mask fill="white" id="Clip4263">
      <path d="M 23.92 2.3399999558142253  C 24.059072858870564 1.97885079460141  23.977278472816035 1.5698788720512815  23.71 1.2899999756411755  C 23.434461494967632 1.0157528583335125  23.024952895138323 0.926050976255199  22.66 1.0599999799842215  L 0.6600000000000001 9.059999828921743  C 0.27153861669614887 9.207344148057583  0.01464771252610575 9.579533099000423  0.01464771252610575 9.994999811266316  C 0.01464771252610575 10.41046652353221  0.27153861669614887 10.78265547447505  0.6600000000000001 10.92999979361089  L 9.25 14.359999728842851  L 15.59 7.999999848937522  L 17 9.409999822312761  L 10.629999999999999 15.779999702029265  L 14.07 24.36999953982593  C 14.22162730289277 24.750720575490213  14.590196151712316 25.000396242556622  15 24.99999952792976  C 15.413676591533108 24.991516797733883  15.779407354488153 24.72914473361176  15.920000000000002 24.339999540392412  L 23.92 2.3399999558142253  Z " fill-rule="evenodd" />
    </mask>
  </defs>
  <g transform="matrix(1 0 0 1 -4 -3 )">
    <path d="M 23.92 2.3399999558142253  C 24.059072858870564 1.97885079460141  23.977278472816035 1.5698788720512815  23.71 1.2899999756411755  C 23.434461494967632 1.0157528583335125  23.024952895138323 0.926050976255199  22.66 1.0599999799842215  L 0.6600000000000001 9.059999828921743  C 0.27153861669614887 9.207344148057583  0.01464771252610575 9.579533099000423  0.01464771252610575 9.994999811266316  C 0.01464771252610575 10.41046652353221  0.27153861669614887 10.78265547447505  0.6600000000000001 10.92999979361089  L 9.25 14.359999728842851  L 15.59 7.999999848937522  L 17 9.409999822312761  L 10.629999999999999 15.779999702029265  L 14.07 24.36999953982593  C 14.22162730289277 24.750720575490213  14.590196151712316 25.000396242556622  15 24.99999952792976  C 15.413676591533108 24.991516797733883  15.779407354488153 24.72914473361176  15.920000000000002 24.339999540392412  L 23.92 2.3399999558142253  Z " fill-rule="nonzero" fill="rgba(0, 0, 0, 1)" stroke="none" transform="matrix(1 0 0 1 4 3 )" class="fill" />
    <path d="M 23.92 2.3399999558142253  C 24.059072858870564 1.97885079460141  23.977278472816035 1.5698788720512815  23.71 1.2899999756411755  C 23.434461494967632 1.0157528583335125  23.024952895138323 0.926050976255199  22.66 1.0599999799842215  L 0.6600000000000001 9.059999828921743  C 0.27153861669614887 9.207344148057583  0.01464771252610575 9.579533099000423  0.01464771252610575 9.994999811266316  C 0.01464771252610575 10.41046652353221  0.27153861669614887 10.78265547447505  0.6600000000000001 10.92999979361089  L 9.25 14.359999728842851  L 15.59 7.999999848937522  L 17 9.409999822312761  L 10.629999999999999 15.779999702029265  L 14.07 24.36999953982593  C 14.22162730289277 24.750720575490213  14.590196151712316 25.000396242556622  15 24.99999952792976  C 15.413676591533108 24.991516797733883  15.779407354488153 24.72914473361176  15.920000000000002 24.339999540392412  L 23.92 2.3399999558142253  Z " stroke-width="0" stroke-dasharray="0" stroke="rgba(255, 255, 255, 0)" fill="none" transform="matrix(1 0 0 1 4 3 )" class="stroke" mask="url(#Clip4263)" />
  </g>
</svg>