<?xml version="1.0" encoding="utf-8"?>
<svg version="1.1" xmlns:xlink="http://www.w3.org/1999/xlink" width="24px" height="24px" xmlns="http://www.w3.org/2000/svg">
  <defs>
    <pattern id="BGPattern" patternUnits="userSpaceOnUse" alignment="0 0" imageRepeat="None" />
    <mask fill="white" id="Clip5678">
      <path d="M 0.15000000000000002 7.050000000000001  L 4.65 1.0499999999999998  C 4.791640786499874 0.8611456180001684  5.01393202250021 0.7499999999999999  5.25 1  L 18.75 1  C 18.98606797749979 0.7499999999999999  19.208359213500128 0.8611456180001684  19.35 1.0499999999999998  L 23.814 7.011000000000001  C 24.0375 7.2885  24.048000000000002 7.686000000000001  23.829 7.977  L 12.600000000000001 22.950000000000003  C 12.458359213500128 23.138854381999835  12.23606797749979 23.25  12 23.25  C 11.76393202250021 23.25  11.541640786499874 23.138854381999835  11.4 22.950000000000003  L 0.15000000000000002 7.949999999999999  C -0.0499999999999997 7.683333333333333  -0.0499999999999997 7.316666666666667  0.15000000000000002 7.050000000000001  Z M 17.856 6.731999999999999  L 21.729 6.727500000000001  L 19.02 3.1125000000000003  L 17.856 6.731999999999999  Z M 7.7235 6.7425  L 16.2795 6.733499999999999  L 17.720999999999997 2.25  L 6.279 2.25  L 7.7235 6.7425  Z M 15.798 8.235  L 8.205 8.2425  L 12 20.049  L 15.798 8.235  Z M 2.2515 6.748500000000001  L 6.1485 6.744000000000001  L 4.9785 3.1110000000000007  L 2.2515 6.748500000000001  Z M 6.628500000000001 8.2455  L 2.25 8.25  L 9.918 18.4755  L 6.628500000000001 8.2455  Z M 17.373 8.2335  L 14.082000000000003 18.4755  L 21.7665 8.229  L 17.373 8.2335  Z " fill-rule="evenodd" />
    </mask>
  </defs>
  <g>
    <path d="M 0.15000000000000002 7.050000000000001  L 4.65 1.0499999999999998  C 4.791640786499874 0.8611456180001684  5.01393202250021 0.7499999999999999  5.25 1  L 18.75 1  C 18.98606797749979 0.7499999999999999  19.208359213500128 0.8611456180001684  19.35 1.0499999999999998  L 23.814 7.011000000000001  C 24.0375 7.2885  24.048000000000002 7.686000000000001  23.829 7.977  L 12.600000000000001 22.950000000000003  C 12.458359213500128 23.138854381999835  12.23606797749979 23.25  12 23.25  C 11.76393202250021 23.25  11.541640786499874 23.138854381999835  11.4 22.950000000000003  L 0.15000000000000002 7.949999999999999  C -0.0499999999999997 7.683333333333333  -0.0499999999999997 7.316666666666667  0.15000000000000002 7.050000000000001  Z M 17.856 6.731999999999999  L 21.729 6.727500000000001  L 19.02 3.1125000000000003  L 17.856 6.731999999999999  Z M 7.7235 6.7425  L 16.2795 6.733499999999999  L 17.720999999999997 2.25  L 6.279 2.25  L 7.7235 6.7425  Z M 15.798 8.235  L 8.205 8.2425  L 12 20.049  L 15.798 8.235  Z M 2.2515 6.748500000000001  L 6.1485 6.744000000000001  L 4.9785 3.1110000000000007  L 2.2515 6.748500000000001  Z M 6.628500000000001 8.2455  L 2.25 8.25  L 9.918 18.4755  L 6.628500000000001 8.2455  Z M 17.373 8.2335  L 14.082000000000003 18.4755  L 21.7665 8.229  L 17.373 8.2335  Z " fill-rule="nonzero" fill="rgba(0, 0, 0, 1)" stroke="none" class="fill" />
    <path d="M 0.15000000000000002 7.050000000000001  L 4.65 1.0499999999999998  C 4.791640786499874 0.8611456180001684  5.01393202250021 0.7499999999999999  5.25 1  L 18.75 1  C 18.98606797749979 0.7499999999999999  19.208359213500128 0.8611456180001684  19.35 1.0499999999999998  L 23.814 7.011000000000001  C 24.0375 7.2885  24.048000000000002 7.686000000000001  23.829 7.977  L 12.600000000000001 22.950000000000003  C 12.458359213500128 23.138854381999835  12.23606797749979 23.25  12 23.25  C 11.76393202250021 23.25  11.541640786499874 23.138854381999835  11.4 22.950000000000003  L 0.15000000000000002 7.949999999999999  C -0.0499999999999997 7.683333333333333  -0.0499999999999997 7.316666666666667  0.15000000000000002 7.050000000000001  Z " stroke-width="0" stroke-dasharray="0" stroke="rgba(255, 255, 255, 0)" fill="none" class="stroke" mask="url(#Clip5678)" />
    <path d="M 17.856 6.731999999999999  L 21.729 6.727500000000001  L 19.02 3.1125000000000003  L 17.856 6.731999999999999  Z " stroke-width="0" stroke-dasharray="0" stroke="rgba(255, 255, 255, 0)" fill="none" class="stroke" mask="url(#Clip5678)" />
    <path d="M 7.7235 6.7425  L 16.2795 6.733499999999999  L 17.720999999999997 2.25  L 6.279 2.25  L 7.7235 6.7425  Z " stroke-width="0" stroke-dasharray="0" stroke="rgba(255, 255, 255, 0)" fill="none" class="stroke" mask="url(#Clip5678)" />
    <path d="M 15.798 8.235  L 8.205 8.2425  L 12 20.049  L 15.798 8.235  Z " stroke-width="0" stroke-dasharray="0" stroke="rgba(255, 255, 255, 0)" fill="none" class="stroke" mask="url(#Clip5678)" />
    <path d="M 2.2515 6.748500000000001  L 6.1485 6.744000000000001  L 4.9785 3.1110000000000007  L 2.2515 6.748500000000001  Z " stroke-width="0" stroke-dasharray="0" stroke="rgba(255, 255, 255, 0)" fill="none" class="stroke" mask="url(#Clip5678)" />
    <path d="M 6.628500000000001 8.2455  L 2.25 8.25  L 9.918 18.4755  L 6.628500000000001 8.2455  Z " stroke-width="0" stroke-dasharray="0" stroke="rgba(255, 255, 255, 0)" fill="none" class="stroke" mask="url(#Clip5678)" />
    <path d="M 17.373 8.2335  L 14.082000000000003 18.4755  L 21.7665 8.229  L 17.373 8.2335  Z " stroke-width="0" stroke-dasharray="0" stroke="rgba(255, 255, 255, 0)" fill="none" class="stroke" mask="url(#Clip5678)" />
  </g>
</svg>