<?xml version="1.0" encoding="utf-8"?>
<svg version="1.1" xmlns:xlink="http://www.w3.org/1999/xlink" width="18px" height="12px" xmlns="http://www.w3.org/2000/svg">
  <defs>
    <pattern id="BGPattern" patternUnits="userSpaceOnUse" alignment="0 0" imageRepeat="None" />
    <mask fill="white" id="Clip4080">
      <path d="M 12 12  L 10 12  L 10 10  L 12 10  C 14.209138999323173 10  16 8.209138999323173  16 6.000000000000002  C 16 3.790861000676828  14.209138999323173 2.0000000000000018  12 2.0000000000000018  L 0 2  L 0 0  L 12 0  C 15.313708409577792 0  17.999999910593033 2.6862915010152384  17.999999910593033 5.999999999999999  C 17.999999910593033 9.313708498984758  15.313708409577792 12  11.999999910593033 12  Z " fill-rule="evenodd" />
    </mask>
  </defs>
  <g transform="matrix(1 0 0 1 -12 -5 )">
    <path d="M 12 12  L 10 12  L 10 10  L 12 10  C 14.209138999323173 10  16 8.209138999323173  16 6.000000000000002  C 16 3.790861000676828  14.209138999323173 2.0000000000000018  12 2.0000000000000018  L 0 2  L 0 0  L 12 0  C 15.313708409577792 0  17.999999910593033 2.6862915010152384  17.999999910593033 5.999999999999999  C 17.999999910593033 9.313708498984758  15.313708409577792 12  11.999999910593033 12  Z " fill-rule="nonzero" fill="rgba(0, 0, 0, 1)" stroke="none" transform="matrix(1 0 0 1 12 5 )" class="fill" />
    <path d="M 12 12  L 10 12  L 10 10  L 12 10  C 14.209138999323173 10  16 8.209138999323173  16 6.000000000000002  C 16 3.790861000676828  14.209138999323173 2.0000000000000018  12 2.0000000000000018  L 0 2  L 0 0  L 12 0  C 15.313708409577792 0  17.999999910593033 2.6862915010152384  17.999999910593033 5.999999999999999  C 17.999999910593033 9.313708498984758  15.313708409577792 12  11.999999910593033 12  Z " stroke-width="0" stroke-dasharray="0" stroke="rgba(255, 255, 255, 0)" fill="none" transform="matrix(1 0 0 1 12 5 )" class="stroke" mask="url(#Clip4080)" />
  </g>
</svg>