<?xml version="1.0" encoding="utf-8"?>
<svg version="1.1" xmlns:xlink="http://www.w3.org/1999/xlink" width="48px" height="48px" xmlns="http://www.w3.org/2000/svg">
  <defs>
    <pattern id="BGPattern" patternUnits="userSpaceOnUse" alignment="0 0" imageRepeat="None" />
    <mask fill="white" id="Clip7407">
      <path d="M 0 3.5999999999999996  L 0 20.4  C 0 22.388225099390855  1.6117749006091433 24  3.5999999999999996 24  L 7.199999999999999 23.999999999999996  C 16.478383797157328 23.999999999999996  23.999999999999996 31.521616202842672  24 40.8  L 24 44.4  C 24 46.38822509939085  25.61177490060914 48  27.6 48  L 44.4 48  C 46.38822509939085 48  48 46.38822509939085  48 44.4  L 48 40.79999999999999  C 48 18.266782206903624  29.73321779309638 0  7.200000000000009 0  L 3.5999999999999996 0  C 1.6117749006091433 0  0 1.6117749006091433  0 3.5999999999999996  Z " fill-rule="evenodd" />
    </mask>
  </defs>
  <g>
    <path d="M 0 3.5999999999999996  L 0 20.4  C 0 22.388225099390855  1.6117749006091433 24  3.5999999999999996 24  L 7.199999999999999 23.999999999999996  C 16.478383797157328 23.999999999999996  23.999999999999996 31.521616202842672  24 40.8  L 24 44.4  C 24 46.38822509939085  25.61177490060914 48  27.6 48  L 44.4 48  C 46.38822509939085 48  48 46.38822509939085  48 44.4  L 48 40.79999999999999  C 48 18.266782206903624  29.73321779309638 0  7.200000000000009 0  L 3.5999999999999996 0  C 1.6117749006091433 0  0 1.6117749006091433  0 3.5999999999999996  Z " fill-rule="nonzero" fill="rgba(123, 22, 255, 1)" stroke="none" class="fill" />
    <path d="M 0 3.5999999999999996  L 0 20.4  C 0 22.388225099390855  1.6117749006091433 24  3.5999999999999996 24  L 7.199999999999999 23.999999999999996  C 16.478383797157328 23.999999999999996  23.999999999999996 31.521616202842672  24 40.8  L 24 44.4  C 24 46.38822509939085  25.61177490060914 48  27.6 48  L 44.4 48  C 46.38822509939085 48  48 46.38822509939085  48 44.4  L 48 40.79999999999999  C 48 18.266782206903624  29.73321779309638 0  7.200000000000009 0  L 3.5999999999999996 0  C 1.6117749006091433 0  0 1.6117749006091433  0 3.5999999999999996  Z " stroke-width="0" stroke-dasharray="0" stroke="rgba(255, 255, 255, 0)" fill="none" class="stroke" mask="url(#Clip7407)" />
  </g>
</svg>