<?xml version="1.0" encoding="utf-8"?>
<svg version="1.1" xmlns:xlink="http://www.w3.org/1999/xlink" width="18px" height="16px" xmlns="http://www.w3.org/2000/svg">
  <defs>
    <pattern id="BGPattern" patternUnits="userSpaceOnUse" alignment="0 0" imageRepeat="None" />
    <mask fill="white" id="Clip3315">
      <path d="M 18 8  L 10.8 0.7999999999999998  L 9.8 1.7999999999999998  L 15.2 7.300000000000001  L 0 7.300000000000001  L 0 8.7  L 15.2 8.7  L 9.8 14.2  L 10.8 15.2  L 18 8  Z " fill-rule="evenodd" />
    </mask>
  </defs>
  <g transform="matrix(1 0 0 1 -1 -2 )">
    <path d="M 18 8  L 10.8 0.7999999999999998  L 9.8 1.7999999999999998  L 15.2 7.300000000000001  L 0 7.300000000000001  L 0 8.7  L 15.2 8.7  L 9.8 14.2  L 10.8 15.2  L 18 8  Z " fill-rule="nonzero" fill="rgba(0, 0, 0, 1)" stroke="none" transform="matrix(1 0 0 1 1 2 )" class="fill" />
    <path d="M 18 8  L 10.8 0.7999999999999998  L 9.8 1.7999999999999998  L 15.2 7.300000000000001  L 0 7.300000000000001  L 0 8.7  L 15.2 8.7  L 9.8 14.2  L 10.8 15.2  L 18 8  Z " stroke-width="0" stroke-dasharray="0" stroke="rgba(255, 255, 255, 0)" fill="none" transform="matrix(1 0 0 1 1 2 )" class="stroke" mask="url(#Clip3315)" />
  </g>
</svg>