<?xml version="1.0" encoding="utf-8"?>
<svg version="1.1" xmlns:xlink="http://www.w3.org/1999/xlink" width="10px" height="10px" xmlns="http://www.w3.org/2000/svg">
  <defs>
    <pattern id="BGPattern" patternUnits="userSpaceOnUse" alignment="0 0" imageRepeat="None" />
    <mask fill="white" id="Clip4395">
      <path d="M 10 4.999999999999999  C 9.996748861492355 7.760075961836517  7.760075961836517 9.996748861492355  4.999999999999999 10  C 2.238576250846034 10  0 7.761423749153968  0 5.000000000000001  C 0 2.238576250846034  2.238576250846034 0  5.000000000000001 0  C 7.761423749153968 0  10 2.238576250846034  10 5.000000000000001  Z M 7.999999999999998 5  C 7.998181288863565 3.3438996703184607  6.6561003296815375 2.0018187111364334  4.999999999999999 2  C 3.3431457505076185 1.9999999999999991  1.9999999999999991 3.3431457505076185  1.9999999999999991 4.999999999999999  C 1.9999999999999991 6.65685424949238  3.3431457505076185 8  4.999999999999999 8  C 6.65685424949238 8  8 6.65685424949238  8 4.999999999999999  Z " fill-rule="evenodd" />
    </mask>
  </defs>
  <g transform="matrix(1 0 0 1 -2 -2 )">
    <path d="M 10 4.999999999999999  C 9.996748861492355 7.760075961836517  7.760075961836517 9.996748861492355  4.999999999999999 10  C 2.238576250846034 10  0 7.761423749153968  0 5.000000000000001  C 0 2.238576250846034  2.238576250846034 0  5.000000000000001 0  C 7.761423749153968 0  10 2.238576250846034  10 5.000000000000001  Z M 7.999999999999998 5  C 7.998181288863565 3.3438996703184607  6.6561003296815375 2.0018187111364334  4.999999999999999 2  C 3.3431457505076185 1.9999999999999991  1.9999999999999991 3.3431457505076185  1.9999999999999991 4.999999999999999  C 1.9999999999999991 6.65685424949238  3.3431457505076185 8  4.999999999999999 8  C 6.65685424949238 8  8 6.65685424949238  8 4.999999999999999  Z " fill-rule="nonzero" fill="rgba(0, 0, 0, 1)" stroke="none" transform="matrix(1 0 0 1 2 2 )" class="fill" />
    <path d="M 10 4.999999999999999  C 9.996748861492355 7.760075961836517  7.760075961836517 9.996748861492355  4.999999999999999 10  C 2.238576250846034 10  0 7.761423749153968  0 5.000000000000001  C 0 2.238576250846034  2.238576250846034 0  5.000000000000001 0  C 7.761423749153968 0  10 2.238576250846034  10 5.000000000000001  Z " stroke-width="0" stroke-dasharray="0" stroke="rgba(255, 255, 255, 0)" fill="none" transform="matrix(1 0 0 1 2 2 )" class="stroke" mask="url(#Clip4395)" />
    <path d="M 7.999999999999998 5  C 7.998181288863565 3.3438996703184607  6.6561003296815375 2.0018187111364334  4.999999999999999 2  C 3.3431457505076185 1.9999999999999991  1.9999999999999991 3.3431457505076185  1.9999999999999991 4.999999999999999  C 1.9999999999999991 6.65685424949238  3.3431457505076185 8  4.999999999999999 8  C 6.65685424949238 8  8 6.65685424949238  8 4.999999999999999  Z " stroke-width="0" stroke-dasharray="0" stroke="rgba(255, 255, 255, 0)" fill="none" transform="matrix(1 0 0 1 2 2 )" class="stroke" mask="url(#Clip4395)" />
  </g>
</svg>