<?xml version="1.0" encoding="utf-8"?>
<svg version="1.1" xmlns:xlink="http://www.w3.org/1999/xlink" width="12px" height="10px" xmlns="http://www.w3.org/2000/svg">
  <defs>
    <pattern id="BGPattern" patternUnits="userSpaceOnUse" alignment="0 0" imageRepeat="None" />
    <mask fill="white" id="Clip4393">
      <path d="M 10 9.9999999932697  L 2 9.9999999932697  C 1.4475992303360448 10  0.999883980166838 9.55228475013212  0.999883980166838 9.00000000067303  C 0.999883980166838 8.84472226446692  1.0360442675031956 8.691577913983096  1.1055000000000001 8.552699994243778  L 5.105499999999999 0.5526999996280143  C 5.2932797929431645 0.23749353313436558  5.6330989679887375 0.04438571942599452  6 0.04438571942599452  C 6.366901032011262 0.04438571942599452  6.706720207056836 0.23749353313436558  6.894499999999999 0.5526999996280179  L 10.8945 8.552699994243778  C 10.963955732496805 8.691577913983096  11.000116019833163 8.84472226446692  11.000116019833163 9.00000000067303  C 11.000116019833163 9.55228475013212  10.552400769663956 10  10.000116019833163 10  Z M 6 3.236299997821873  L 3.6182 7.999999994615759  L 8.3818 7.999999994615759  L 6 3.236299997821873  Z " fill-rule="evenodd" />
    </mask>
  </defs>
  <g transform="matrix(1 0 0 1 -1 -20 )">
    <path d="M 10 9.9999999932697  L 2 9.9999999932697  C 1.4475992303360448 10  0.999883980166838 9.55228475013212  0.999883980166838 9.00000000067303  C 0.999883980166838 8.84472226446692  1.0360442675031956 8.691577913983096  1.1055000000000001 8.552699994243778  L 5.105499999999999 0.5526999996280143  C 5.2932797929431645 0.23749353313436558  5.6330989679887375 0.04438571942599452  6 0.04438571942599452  C 6.366901032011262 0.04438571942599452  6.706720207056836 0.23749353313436558  6.894499999999999 0.5526999996280179  L 10.8945 8.552699994243778  C 10.963955732496805 8.691577913983096  11.000116019833163 8.84472226446692  11.000116019833163 9.00000000067303  C 11.000116019833163 9.55228475013212  10.552400769663956 10  10.000116019833163 10  Z M 6 3.236299997821873  L 3.6182 7.999999994615759  L 8.3818 7.999999994615759  L 6 3.236299997821873  Z " fill-rule="nonzero" fill="rgba(0, 0, 0, 1)" stroke="none" transform="matrix(1 0 0 1 1 20 )" class="fill" />
    <path d="M 10 9.9999999932697  L 2 9.9999999932697  C 1.4475992303360448 10  0.999883980166838 9.55228475013212  0.999883980166838 9.00000000067303  C 0.999883980166838 8.84472226446692  1.0360442675031956 8.691577913983096  1.1055000000000001 8.552699994243778  L 5.105499999999999 0.5526999996280143  C 5.2932797929431645 0.23749353313436558  5.6330989679887375 0.04438571942599452  6 0.04438571942599452  C 6.366901032011262 0.04438571942599452  6.706720207056836 0.23749353313436558  6.894499999999999 0.5526999996280179  L 10.8945 8.552699994243778  C 10.963955732496805 8.691577913983096  11.000116019833163 8.84472226446692  11.000116019833163 9.00000000067303  C 11.000116019833163 9.55228475013212  10.552400769663956 10  10.000116019833163 10  Z " stroke-width="0" stroke-dasharray="0" stroke="rgba(255, 255, 255, 0)" fill="none" transform="matrix(1 0 0 1 1 20 )" class="stroke" mask="url(#Clip4393)" />
    <path d="M 6 3.236299997821873  L 3.6182 7.999999994615759  L 8.3818 7.999999994615759  L 6 3.236299997821873  Z " stroke-width="0" stroke-dasharray="0" stroke="rgba(255, 255, 255, 0)" fill="none" transform="matrix(1 0 0 1 1 20 )" class="stroke" mask="url(#Clip4393)" />
  </g>
</svg>