<?xml version="1.0" encoding="utf-8"?>
<svg version="1.1" xmlns:xlink="http://www.w3.org/1999/xlink" width="48px" height="42px" xmlns="http://www.w3.org/2000/svg">
  <defs>
    <pattern id="BGPattern" patternUnits="userSpaceOnUse" alignment="0 0" imageRepeat="None" />
    <mask fill="white" id="Clip6741">
      <path d="M 12 1  L 7 9  L 31 9  L 43 29.6  L 48 21  L 36 1  L 12 1  Z M 15.2 12  L 5.2 12  L 0 21  L 12 41  L 36 41  L 41.2 32.8  L 36.2 24.2  L 31 33  L 17.000000000000004 33  L 10 21  L 15.2 12  Z " fill-rule="evenodd" />
    </mask>
  </defs>
  <g>
    <path d="M 12 1  L 7 9  L 31 9  L 43 29.6  L 48 21  L 36 1  L 12 1  Z M 15.2 12  L 5.2 12  L 0 21  L 12 41  L 36 41  L 41.2 32.8  L 36.2 24.2  L 31 33  L 17.000000000000004 33  L 10 21  L 15.2 12  Z " fill-rule="nonzero" fill="rgba(30, 171, 226, 1)" stroke="none" class="fill" />
    <path d="M 12 1  L 7 9  L 31 9  L 43 29.6  L 48 21  L 36 1  L 12 1  Z " stroke-width="0" stroke-dasharray="0" stroke="rgba(255, 255, 255, 0)" fill="none" class="stroke" mask="url(#Clip6741)" />
    <path d="M 15.2 12  L 5.2 12  L 0 21  L 12 41  L 36 41  L 41.2 32.8  L 36.2 24.2  L 31 33  L 17.000000000000004 33  L 10 21  L 15.2 12  Z " stroke-width="0" stroke-dasharray="0" stroke="rgba(255, 255, 255, 0)" fill="none" class="stroke" mask="url(#Clip6741)" />
  </g>
</svg>