<?xml version="1.0" encoding="utf-8"?>
<svg version="1.1" xmlns:xlink="http://www.w3.org/1999/xlink" width="48px" height="39px" xmlns="http://www.w3.org/2000/svg">
  <defs>
    <pattern id="BGPattern" patternUnits="userSpaceOnUse" alignment="0 0" imageRepeat="None" />
    <mask fill="white" id="Clip2654">
      <path d="M 43 5.562500000000004  C 43.67782254102365 5.153370990594496  43.840876544549126 4.7409402757947525  44.16875 4.487500000000001  L 48 0.8062500000000004  L 48 0  L 34.73125 0  L 25.275 23.65  L 14.51875 0  L 0.6062499999999993 0  L 0.6062499999999993 0.8062500000000004  L 5.081249999999999 6.21875  C 5.518749999999999 6.618749999999999  5.743749999999999 7.206250000000001  6 7.793749999999999  L 6 29.0625  C 5.8249999999999975 29.831249999999997  5.581249999999999 30.612499999999994  5.0437499999999975 31.168750000000003  L 0 37.3125  L 0 38  L 14.287500000000001 38  L 14.287500000000001 37.300000000000004  L 9.25 31.175000000000008  C 8.702899363279467 30.6195470738915  8.446335073851785 29.84060864562906  9 29.06875  L 9 10.66875  L 21.099999999999998 38.11875  L 22.55625 38.11875  L 33 10.66875  L 33 32.537499999999994  C 33.34375 33.1125  33.34375 33.231249999999996  32.96875 33.6125  L 29.0875 37.381249999999994  L 29.0875 38  L 47.912499999999994 38  L 47.912499999999994 37.38125  L 44.168749999999996 33.7  C 43.84374999999999 33.45  43.675 33.03125  43 32.625  L 43 5.562500000000004  Z " fill-rule="evenodd" />
    </mask>
  </defs>
  <g>
    <path d="M 43 5.562500000000004  C 43.67782254102365 5.153370990594496  43.840876544549126 4.7409402757947525  44.16875 4.487500000000001  L 48 0.8062500000000004  L 48 0  L 34.73125 0  L 25.275 23.65  L 14.51875 0  L 0.6062499999999993 0  L 0.6062499999999993 0.8062500000000004  L 5.081249999999999 6.21875  C 5.518749999999999 6.618749999999999  5.743749999999999 7.206250000000001  6 7.793749999999999  L 6 29.0625  C 5.8249999999999975 29.831249999999997  5.581249999999999 30.612499999999994  5.0437499999999975 31.168750000000003  L 0 37.3125  L 0 38  L 14.287500000000001 38  L 14.287500000000001 37.300000000000004  L 9.25 31.175000000000008  C 8.702899363279467 30.6195470738915  8.446335073851785 29.84060864562906  9 29.06875  L 9 10.66875  L 21.099999999999998 38.11875  L 22.55625 38.11875  L 33 10.66875  L 33 32.537499999999994  C 33.34375 33.1125  33.34375 33.231249999999996  32.96875 33.6125  L 29.0875 37.381249999999994  L 29.0875 38  L 47.912499999999994 38  L 47.912499999999994 37.38125  L 44.168749999999996 33.7  C 43.84374999999999 33.45  43.675 33.03125  43 32.625  L 43 5.562500000000004  Z " fill-rule="nonzero" fill="rgba(0, 0, 0, 1)" stroke="none" class="fill" />
    <path d="M 43 5.562500000000004  C 43.67782254102365 5.153370990594496  43.840876544549126 4.7409402757947525  44.16875 4.487500000000001  L 48 0.8062500000000004  L 48 0  L 34.73125 0  L 25.275 23.65  L 14.51875 0  L 0.6062499999999993 0  L 0.6062499999999993 0.8062500000000004  L 5.081249999999999 6.21875  C 5.518749999999999 6.618749999999999  5.743749999999999 7.206250000000001  6 7.793749999999999  L 6 29.0625  C 5.8249999999999975 29.831249999999997  5.581249999999999 30.612499999999994  5.0437499999999975 31.168750000000003  L 0 37.3125  L 0 38  L 14.287500000000001 38  L 14.287500000000001 37.300000000000004  L 9.25 31.175000000000008  C 8.702899363279467 30.6195470738915  8.446335073851785 29.84060864562906  9 29.06875  L 9 10.66875  L 21.099999999999998 38.11875  L 22.55625 38.11875  L 33 10.66875  L 33 32.537499999999994  C 33.34375 33.1125  33.34375 33.231249999999996  32.96875 33.6125  L 29.0875 37.381249999999994  L 29.0875 38  L 47.912499999999994 38  L 47.912499999999994 37.38125  L 44.168749999999996 33.7  C 43.84374999999999 33.45  43.675 33.03125  43 32.625  L 43 5.562500000000004  Z " stroke-width="0" stroke-dasharray="0" stroke="rgba(255, 255, 255, 0)" fill="none" class="stroke" mask="url(#Clip2654)" />
  </g>
</svg>