<?xml version="1.0" encoding="utf-8"?>
<svg version="1.1" xmlns:xlink="http://www.w3.org/1999/xlink" width="24px" height="25px" xmlns="http://www.w3.org/2000/svg">
  <defs>
    <pattern id="BGPattern" patternUnits="userSpaceOnUse" alignment="0 0" imageRepeat="None" />
    <mask fill="white" id="Clip6198">
      <path d="M 9.750000000000004 19.500000000000004  C 11.824714676411364 19.503251574274177  13.845935504049606 18.841952276180834  15.517500000000004 17.613  L 15.516000000000005 17.613  C 15.561 17.673000000000002  15.609000000000004 17.73  15.663000000000006 17.785500000000003  L 21.438000000000002 23.5605  C 21.719391989585958 23.84209099382187  22.101160889869206 24.00030390671357  22.499250000000004 24.00030390671357  C 23.327844967789467 24.00030390671357  23.999553906713572 23.328594967789467  23.999553906713572 22.5  C 23.999553906713572 22.102278432007893  23.841632189930472 21.720831010432544  23.560500000000005 21.439500000000002  L 17.785500000000006 15.664500000000004  C 17.73186749608773 15.610218752920623  17.674202734464714 15.560075481944082  17.613 15.5145  C 18.84162783982483 13.84390778751052  19.502926698700726 11.823739651850696  19.5 9.75  C 19.498344120973073 4.365909725860988  15.134090274139012 0.0016558790269254442  9.750000000000002 0  C 4.365223689149766 0  0 4.365223689149764  0 9.75  C 0 15.134776310850237  4.365223689149766 19.5  9.750000000000002 19.5  Z M 9.750000000000002 14.249999999999998  C 1.0125000000000015 8.604000000000001  7.254000000000001 4.215  9.750000000000002 6.722999999999998  C 12.245999999999999 4.213499999999999  18.487499999999997 8.604  9.750000000000002 14.249999999999998  Z " fill-rule="evenodd" />
    </mask>
  </defs>
  <g>
    <path d="M 9.750000000000004 19.500000000000004  C 11.824714676411364 19.503251574274177  13.845935504049606 18.841952276180834  15.517500000000004 17.613  L 15.516000000000005 17.613  C 15.561 17.673000000000002  15.609000000000004 17.73  15.663000000000006 17.785500000000003  L 21.438000000000002 23.5605  C 21.719391989585958 23.84209099382187  22.101160889869206 24.00030390671357  22.499250000000004 24.00030390671357  C 23.327844967789467 24.00030390671357  23.999553906713572 23.328594967789467  23.999553906713572 22.5  C 23.999553906713572 22.102278432007893  23.841632189930472 21.720831010432544  23.560500000000005 21.439500000000002  L 17.785500000000006 15.664500000000004  C 17.73186749608773 15.610218752920623  17.674202734464714 15.560075481944082  17.613 15.5145  C 18.84162783982483 13.84390778751052  19.502926698700726 11.823739651850696  19.5 9.75  C 19.498344120973073 4.365909725860988  15.134090274139012 0.0016558790269254442  9.750000000000002 0  C 4.365223689149766 0  0 4.365223689149764  0 9.75  C 0 15.134776310850237  4.365223689149766 19.5  9.750000000000002 19.5  Z M 9.750000000000002 14.249999999999998  C 1.0125000000000015 8.604000000000001  7.254000000000001 4.215  9.750000000000002 6.722999999999998  C 12.245999999999999 4.213499999999999  18.487499999999997 8.604  9.750000000000002 14.249999999999998  Z " fill-rule="nonzero" fill="rgba(0, 0, 0, 1)" stroke="none" class="fill" />
    <path d="M 9.750000000000004 19.500000000000004  C 11.824714676411364 19.503251574274177  13.845935504049606 18.841952276180834  15.517500000000004 17.613  L 15.516000000000005 17.613  C 15.561 17.673000000000002  15.609000000000004 17.73  15.663000000000006 17.785500000000003  L 21.438000000000002 23.5605  C 21.719391989585958 23.84209099382187  22.101160889869206 24.00030390671357  22.499250000000004 24.00030390671357  C 23.327844967789467 24.00030390671357  23.999553906713572 23.328594967789467  23.999553906713572 22.5  C 23.999553906713572 22.102278432007893  23.841632189930472 21.720831010432544  23.560500000000005 21.439500000000002  L 17.785500000000006 15.664500000000004  C 17.73186749608773 15.610218752920623  17.674202734464714 15.560075481944082  17.613 15.5145  C 18.84162783982483 13.84390778751052  19.502926698700726 11.823739651850696  19.5 9.75  C 19.498344120973073 4.365909725860988  15.134090274139012 0.0016558790269254442  9.750000000000002 0  C 4.365223689149766 0  0 4.365223689149764  0 9.75  C 0 15.134776310850237  4.365223689149766 19.5  9.750000000000002 19.5  Z " stroke-width="0" stroke-dasharray="0" stroke="rgba(255, 255, 255, 0)" fill="none" class="stroke" mask="url(#Clip6198)" />
    <path d="M 9.750000000000002 14.249999999999998  C 1.0125000000000015 8.604000000000001  7.254000000000001 4.215  9.750000000000002 6.722999999999998  C 12.245999999999999 4.213499999999999  18.487499999999997 8.604  9.750000000000002 14.249999999999998  Z " stroke-width="0" stroke-dasharray="0" stroke="rgba(255, 255, 255, 0)" fill="none" class="stroke" mask="url(#Clip6198)" />
  </g>
</svg>