<?xml version="1.0" encoding="utf-8"?>
<svg version="1.1" xmlns:xlink="http://www.w3.org/1999/xlink" width="50px" height="44px" xmlns="http://www.w3.org/2000/svg">
  <defs>
    <pattern id="BGPattern" patternUnits="userSpaceOnUse" alignment="0 0" imageRepeat="None" />
    <mask fill="white" id="Clip1151">
      <path d="M 8.125 10.3125  C 3.7208007812500057 10.3125  0 14.033300781250006  0 18.4375  C 0 22.892187500000006  3.68798828125 26.562499999999996  8.125 26.562499999999996  L 11.606152343749997 26.562499999999996  C 11.772477357640426 27.310474884502185  12.032643158205872 28.03443732915801  12.380468750000006 28.71718749999999  C 12.135644531249994 30.8662109375  12.722558593749994 33.10957031250001  13.941503906250006 34.84912109375  C 14.052734375 39.97480468750001  17.593652343749994 43.75  23.701269531250006 43.75  L 25.78125 43.75  C 31.64677734374999 43.75  35.40156250000001 39.84375  38.203125 39.84375  L 38.464746093749994 39.84375  C 39.025976562500006 40.32734375000001  39.78662109375 40.625  40.624902343749994 40.625  L 46.874902343749994 40.625  C 48.60078125000001 40.625  49.999902343749994 39.365820312500006  50 37.8125  L 50 15.3125  C 49.999902343749994 13.759179687499994  48.60078125000001 12.500000000000002  46.874902343749994 12.500000000000002  L 40.624902343749994 12.500000000000002  C 39.78662109375 12.500000000000002  39.025976562500006 12.797656249999989  38.464746093749994 13.281249999999998  L 38.203125 13.281249999999998  C 37.523046875000006 13.281249999999998  36.75175781249999 12.676464843750011  35.25556640625001 10.969921875000011  L 35.24296874999999 10.955468749999994  L 35.23017578125001 10.941210937499989  C 34.365332031250006 9.970800781250006  33.461035156250006 8.905957031250011  32.705664062500006 7.69384765625  C 30.87910156250001 4.739941406250011  29.737695312499994 0  25.3125 0  C 19.753124999999997 0  16.328125 3.4458984375000057  16.328125 8.125  C 16.328125 8.908789062500006  16.407617187499994 9.637597656249994  16.540625000000006 10.3125  L 8.125 10.3125  Z M 8.125 21.875  C 6.271972656249999 21.875  4.6875 20.29052734375  4.6875 18.4375  C 4.6875 16.611328125  6.325683593750001 14.999999999999998  8.125 15  L 23.59375 15  C 23.59375 13.308105468749998  21.015625 11.562499999999998  21.015625 8.125  C 21.015625 5.546875  23.02978515625 4.6875  25.3125 4.6875  C 26.17128906249999 4.6875  27.30908203125 7.882031250000011  28.723242187500002 10.166015625  C 29.609375 11.589355468749998  30.629882812499996 12.824707031249998  31.73095703125 14.060058593749998  C 33.304101562499994 15.854394531249994  35.035253906250006 17.63749999999999  37 17.926855468750006  L 37 35.18779296874999  C 33.3212890625 35.55537109375001  30.223730468750006 39.0625  25.78125 39.0625  L 23.701269531250006 39.0625  C 19.743847656249997 39.0625  18.122753906249997 36.89482421874999  18.759765625 33.07373046875  C 17.332812500000003 32.292382812499994  16.401269531249994 29.755468750000006  17.49755859375 27.8369140625  C 15.6064453125 26.05712890625  15.760546875000003 23.307519531249994  17.01416015625 21.875  L 8.125 21.875  Z M 41.40625 34.375  C 41.40625 33.08056640625  42.45556640625 32.03125  43.75 32.03125  C 45.04443359375 32.03125  46.09375 33.08056640625  46.09375 34.375  C 46.09375 35.66943359375  45.04443359375 36.71875  43.75 36.71875  C 42.45556640625 36.71875  41.40625 35.66943359375  41.40625 34.375  Z " fill-rule="evenodd" />
    </mask>
  </defs>
  <g>
    <path d="M 8.125 10.3125  C 3.7208007812500057 10.3125  0 14.033300781250006  0 18.4375  C 0 22.892187500000006  3.68798828125 26.562499999999996  8.125 26.562499999999996  L 11.606152343749997 26.562499999999996  C 11.772477357640426 27.310474884502185  12.032643158205872 28.03443732915801  12.380468750000006 28.71718749999999  C 12.135644531249994 30.8662109375  12.722558593749994 33.10957031250001  13.941503906250006 34.84912109375  C 14.052734375 39.97480468750001  17.593652343749994 43.75  23.701269531250006 43.75  L 25.78125 43.75  C 31.64677734374999 43.75  35.40156250000001 39.84375  38.203125 39.84375  L 38.464746093749994 39.84375  C 39.025976562500006 40.32734375000001  39.78662109375 40.625  40.624902343749994 40.625  L 46.874902343749994 40.625  C 48.60078125000001 40.625  49.999902343749994 39.365820312500006  50 37.8125  L 50 15.3125  C 49.999902343749994 13.759179687499994  48.60078125000001 12.500000000000002  46.874902343749994 12.500000000000002  L 40.624902343749994 12.500000000000002  C 39.78662109375 12.500000000000002  39.025976562500006 12.797656249999989  38.464746093749994 13.281249999999998  L 38.203125 13.281249999999998  C 37.523046875000006 13.281249999999998  36.75175781249999 12.676464843750011  35.25556640625001 10.969921875000011  L 35.24296874999999 10.955468749999994  L 35.23017578125001 10.941210937499989  C 34.365332031250006 9.970800781250006  33.461035156250006 8.905957031250011  32.705664062500006 7.69384765625  C 30.87910156250001 4.739941406250011  29.737695312499994 0  25.3125 0  C 19.753124999999997 0  16.328125 3.4458984375000057  16.328125 8.125  C 16.328125 8.908789062500006  16.407617187499994 9.637597656249994  16.540625000000006 10.3125  L 8.125 10.3125  Z M 8.125 21.875  C 6.271972656249999 21.875  4.6875 20.29052734375  4.6875 18.4375  C 4.6875 16.611328125  6.325683593750001 14.999999999999998  8.125 15  L 23.59375 15  C 23.59375 13.308105468749998  21.015625 11.562499999999998  21.015625 8.125  C 21.015625 5.546875  23.02978515625 4.6875  25.3125 4.6875  C 26.17128906249999 4.6875  27.30908203125 7.882031250000011  28.723242187500002 10.166015625  C 29.609375 11.589355468749998  30.629882812499996 12.824707031249998  31.73095703125 14.060058593749998  C 33.304101562499994 15.854394531249994  35.035253906250006 17.63749999999999  37 17.926855468750006  L 37 35.18779296874999  C 33.3212890625 35.55537109375001  30.223730468750006 39.0625  25.78125 39.0625  L 23.701269531250006 39.0625  C 19.743847656249997 39.0625  18.122753906249997 36.89482421874999  18.759765625 33.07373046875  C 17.332812500000003 32.292382812499994  16.401269531249994 29.755468750000006  17.49755859375 27.8369140625  C 15.6064453125 26.05712890625  15.760546875000003 23.307519531249994  17.01416015625 21.875  L 8.125 21.875  Z M 41.40625 34.375  C 41.40625 33.08056640625  42.45556640625 32.03125  43.75 32.03125  C 45.04443359375 32.03125  46.09375 33.08056640625  46.09375 34.375  C 46.09375 35.66943359375  45.04443359375 36.71875  43.75 36.71875  C 42.45556640625 36.71875  41.40625 35.66943359375  41.40625 34.375  Z " fill-rule="nonzero" fill="rgba(0, 0, 0, 1)" stroke="none" class="fill" />
    <path d="M 8.125 10.3125  C 3.7208007812500057 10.3125  0 14.033300781250006  0 18.4375  C 0 22.892187500000006  3.68798828125 26.562499999999996  8.125 26.562499999999996  L 11.606152343749997 26.562499999999996  C 11.772477357640426 27.310474884502185  12.032643158205872 28.03443732915801  12.380468750000006 28.71718749999999  C 12.135644531249994 30.8662109375  12.722558593749994 33.10957031250001  13.941503906250006 34.84912109375  C 14.052734375 39.97480468750001  17.593652343749994 43.75  23.701269531250006 43.75  L 25.78125 43.75  C 31.64677734374999 43.75  35.40156250000001 39.84375  38.203125 39.84375  L 38.464746093749994 39.84375  C 39.025976562500006 40.32734375000001  39.78662109375 40.625  40.624902343749994 40.625  L 46.874902343749994 40.625  C 48.60078125000001 40.625  49.999902343749994 39.365820312500006  50 37.8125  L 50 15.3125  C 49.999902343749994 13.759179687499994  48.60078125000001 12.500000000000002  46.874902343749994 12.500000000000002  L 40.624902343749994 12.500000000000002  C 39.78662109375 12.500000000000002  39.025976562500006 12.797656249999989  38.464746093749994 13.281249999999998  L 38.203125 13.281249999999998  C 37.523046875000006 13.281249999999998  36.75175781249999 12.676464843750011  35.25556640625001 10.969921875000011  L 35.24296874999999 10.955468749999994  L 35.23017578125001 10.941210937499989  C 34.365332031250006 9.970800781250006  33.461035156250006 8.905957031250011  32.705664062500006 7.69384765625  C 30.87910156250001 4.739941406250011  29.737695312499994 0  25.3125 0  C 19.753124999999997 0  16.328125 3.4458984375000057  16.328125 8.125  C 16.328125 8.908789062500006  16.407617187499994 9.637597656249994  16.540625000000006 10.3125  L 8.125 10.3125  Z " stroke-width="0" stroke-dasharray="0" stroke="rgba(255, 255, 255, 0)" fill="none" class="stroke" mask="url(#Clip1151)" />
    <path d="M 8.125 21.875  C 6.271972656249999 21.875  4.6875 20.29052734375  4.6875 18.4375  C 4.6875 16.611328125  6.325683593750001 14.999999999999998  8.125 15  L 23.59375 15  C 23.59375 13.308105468749998  21.015625 11.562499999999998  21.015625 8.125  C 21.015625 5.546875  23.02978515625 4.6875  25.3125 4.6875  C 26.17128906249999 4.6875  27.30908203125 7.882031250000011  28.723242187500002 10.166015625  C 29.609375 11.589355468749998  30.629882812499996 12.824707031249998  31.73095703125 14.060058593749998  C 33.304101562499994 15.854394531249994  35.035253906250006 17.63749999999999  37 17.926855468750006  L 37 35.18779296874999  C 33.3212890625 35.55537109375001  30.223730468750006 39.0625  25.78125 39.0625  L 23.701269531250006 39.0625  C 19.743847656249997 39.0625  18.122753906249997 36.89482421874999  18.759765625 33.07373046875  C 17.332812500000003 32.292382812499994  16.401269531249994 29.755468750000006  17.49755859375 27.8369140625  C 15.6064453125 26.05712890625  15.760546875000003 23.307519531249994  17.01416015625 21.875  L 8.125 21.875  Z " stroke-width="0" stroke-dasharray="0" stroke="rgba(255, 255, 255, 0)" fill="none" class="stroke" mask="url(#Clip1151)" />
    <path d="M 41.40625 34.375  C 41.40625 33.08056640625  42.45556640625 32.03125  43.75 32.03125  C 45.04443359375 32.03125  46.09375 33.08056640625  46.09375 34.375  C 46.09375 35.66943359375  45.04443359375 36.71875  43.75 36.71875  C 42.45556640625 36.71875  41.40625 35.66943359375  41.40625 34.375  Z " stroke-width="0" stroke-dasharray="0" stroke="rgba(255, 255, 255, 0)" fill="none" class="stroke" mask="url(#Clip1151)" />
  </g>
</svg>