<?xml version="1.0" encoding="utf-8"?>
<svg version="1.1" xmlns:xlink="http://www.w3.org/1999/xlink" width="18px" height="24px" xmlns="http://www.w3.org/2000/svg">
  <defs>
    <pattern id="BGPattern" patternUnits="userSpaceOnUse" alignment="0 0" imageRepeat="None" />
    <mask fill="white" id="Clip5531">
      <path d="M 0 21  L 0 3  C 0 1.3431457505076196  1.3431457505076194 0  3 0  L 10.939499999999999 0  C 11.33729222021822 8.495610824209971E-05  11.718760902963812 0.15817593778357192  12 0.4395  L 17.5605 6  C 17.84182406221643 6.281239097036188  17.999915043891757 6.662707779781778  18 7.060499999999999  L 18 21  C 18 22.65685424949238  16.65685424949238 24  15 24  L 3 24  C 1.3431457505076194 24  0 22.65685424949238  0 21  Z M 6.749999999999998 11.25  L 5.25 11.25  C 4.42157287525381 11.25  3.75 11.92157287525381  3.75 12.75  L 3.75 14.157  L 3.1499999999999995 16.555500000000002  C 2.9968283244666747 17.17039761405745  3.2465906308144348 17.8152166453495  3.774 18.1665  L 5.1690000000000005 19.0965  C 5.67271135691718 19.432132552589422  6.328788643082818 19.432132552589422  6.8325 19.0965  L 8.2275 18.1665  C 8.754345142691184 17.814808118665795  9.003475139757704 17.17007169252256  8.85 16.555500000000002  L 8.249999999999998 14.157  L 8.249999999999998 12.75  C 8.249999999999998 11.92157287525381  7.578427124746188 11.25  6.749999999999998 11.25  Z M 11.25 2.25  L 10.5 6  C 10.5 6.82842712474619  11.17157287525381 7.5  12 7.5  L 15.75 6.75  L 11.25 2.25  Z M 5.25 3  L 5.25 4.5  L 3.75 4.5  L 3.75 6  L 5.25 6  L 5.25 7.5  L 3.75 7.5  L 3.75 9  L 5.25 9  L 5.25 10.5  L 7.5 10.5  L 7.5 9  L 6 9  L 6 7.5  L 7.5 7.5  L 7.5 6  L 6 6  L 6 4.5  L 7.5 4.5  L 7.5 3  L 6 3  L 6 1.5  L 3.75 1.5  L 3.75 3  L 5.25 3  Z M 5.205000000000002 14.521500000000001  C 5.234873850122298 14.402301950214635  5.24998710478725 14.27988458742852  5.25 14.157  L 5.25 12.75  L 6.75 12.75  L 6.75 14.157  C 6.750012895212752 14.279884587428516  6.765126149877705 14.402301950214639  6.795 14.521500000000001  L 7.395000000000001 16.9185  L 6.000000000000002 17.8485  L 4.605000000000002 16.9185  L 5.205000000000002 14.521500000000001  Z " fill-rule="evenodd" />
    </mask>
  </defs>
  <g>
    <path d="M 0 21  L 0 3  C 0 1.3431457505076196  1.3431457505076194 0  3 0  L 10.939499999999999 0  C 11.33729222021822 8.495610824209971E-05  11.718760902963812 0.15817593778357192  12 0.4395  L 17.5605 6  C 17.84182406221643 6.281239097036188  17.999915043891757 6.662707779781778  18 7.060499999999999  L 18 21  C 18 22.65685424949238  16.65685424949238 24  15 24  L 3 24  C 1.3431457505076194 24  0 22.65685424949238  0 21  Z M 6.749999999999998 11.25  L 5.25 11.25  C 4.42157287525381 11.25  3.75 11.92157287525381  3.75 12.75  L 3.75 14.157  L 3.1499999999999995 16.555500000000002  C 2.9968283244666747 17.17039761405745  3.2465906308144348 17.8152166453495  3.774 18.1665  L 5.1690000000000005 19.0965  C 5.67271135691718 19.432132552589422  6.328788643082818 19.432132552589422  6.8325 19.0965  L 8.2275 18.1665  C 8.754345142691184 17.814808118665795  9.003475139757704 17.17007169252256  8.85 16.555500000000002  L 8.249999999999998 14.157  L 8.249999999999998 12.75  C 8.249999999999998 11.92157287525381  7.578427124746188 11.25  6.749999999999998 11.25  Z M 11.25 2.25  L 10.5 6  C 10.5 6.82842712474619  11.17157287525381 7.5  12 7.5  L 15.75 6.75  L 11.25 2.25  Z M 5.25 3  L 5.25 4.5  L 3.75 4.5  L 3.75 6  L 5.25 6  L 5.25 7.5  L 3.75 7.5  L 3.75 9  L 5.25 9  L 5.25 10.5  L 7.5 10.5  L 7.5 9  L 6 9  L 6 7.5  L 7.5 7.5  L 7.5 6  L 6 6  L 6 4.5  L 7.5 4.5  L 7.5 3  L 6 3  L 6 1.5  L 3.75 1.5  L 3.75 3  L 5.25 3  Z M 5.205000000000002 14.521500000000001  C 5.234873850122298 14.402301950214635  5.24998710478725 14.27988458742852  5.25 14.157  L 5.25 12.75  L 6.75 12.75  L 6.75 14.157  C 6.750012895212752 14.279884587428516  6.765126149877705 14.402301950214639  6.795 14.521500000000001  L 7.395000000000001 16.9185  L 6.000000000000002 17.8485  L 4.605000000000002 16.9185  L 5.205000000000002 14.521500000000001  Z " fill-rule="nonzero" fill="rgba(0, 0, 0, 1)" stroke="none" class="fill" />
    <path d="M 0 21  L 0 3  C 0 1.3431457505076196  1.3431457505076194 0  3 0  L 10.939499999999999 0  C 11.33729222021822 8.495610824209971E-05  11.718760902963812 0.15817593778357192  12 0.4395  L 17.5605 6  C 17.84182406221643 6.281239097036188  17.999915043891757 6.662707779781778  18 7.060499999999999  L 18 21  C 18 22.65685424949238  16.65685424949238 24  15 24  L 3 24  C 1.3431457505076194 24  0 22.65685424949238  0 21  Z " stroke-width="0" stroke-dasharray="0" stroke="rgba(255, 255, 255, 0)" fill="none" class="stroke" mask="url(#Clip5531)" />
    <path d="M 6.749999999999998 11.25  L 5.25 11.25  C 4.42157287525381 11.25  3.75 11.92157287525381  3.75 12.75  L 3.75 14.157  L 3.1499999999999995 16.555500000000002  C 2.9968283244666747 17.17039761405745  3.2465906308144348 17.8152166453495  3.774 18.1665  L 5.1690000000000005 19.0965  C 5.67271135691718 19.432132552589422  6.328788643082818 19.432132552589422  6.8325 19.0965  L 8.2275 18.1665  C 8.754345142691184 17.814808118665795  9.003475139757704 17.17007169252256  8.85 16.555500000000002  L 8.249999999999998 14.157  L 8.249999999999998 12.75  C 8.249999999999998 11.92157287525381  7.578427124746188 11.25  6.749999999999998 11.25  Z " stroke-width="0" stroke-dasharray="0" stroke="rgba(255, 255, 255, 0)" fill="none" class="stroke" mask="url(#Clip5531)" />
    <path d="M 11.25 2.25  L 10.5 6  C 10.5 6.82842712474619  11.17157287525381 7.5  12 7.5  L 15.75 6.75  L 11.25 2.25  Z " stroke-width="0" stroke-dasharray="0" stroke="rgba(255, 255, 255, 0)" fill="none" class="stroke" mask="url(#Clip5531)" />
    <path d="M 5.25 3  L 5.25 4.5  L 3.75 4.5  L 3.75 6  L 5.25 6  L 5.25 7.5  L 3.75 7.5  L 3.75 9  L 5.25 9  L 5.25 10.5  L 7.5 10.5  L 7.5 9  L 6 9  L 6 7.5  L 7.5 7.5  L 7.5 6  L 6 6  L 6 4.5  L 7.5 4.5  L 7.5 3  L 6 3  L 6 1.5  L 3.75 1.5  L 3.75 3  L 5.25 3  Z " stroke-width="0" stroke-dasharray="0" stroke="rgba(255, 255, 255, 0)" fill="none" class="stroke" mask="url(#Clip5531)" />
    <path d="M 5.205000000000002 14.521500000000001  C 5.234873850122298 14.402301950214635  5.24998710478725 14.27988458742852  5.25 14.157  L 5.25 12.75  L 6.75 12.75  L 6.75 14.157  C 6.750012895212752 14.279884587428516  6.765126149877705 14.402301950214639  6.795 14.521500000000001  L 7.395000000000001 16.9185  L 6.000000000000002 17.8485  L 4.605000000000002 16.9185  L 5.205000000000002 14.521500000000001  Z " stroke-width="0" stroke-dasharray="0" stroke="rgba(255, 255, 255, 0)" fill="none" class="stroke" mask="url(#Clip5531)" />
  </g>
</svg>