<?xml version="1.0" encoding="utf-8"?>
<svg version="1.1" xmlns:xlink="http://www.w3.org/1999/xlink" width="28px" height="28px" xmlns="http://www.w3.org/2000/svg">
  <defs>
    <pattern id="BGPattern" patternUnits="userSpaceOnUse" alignment="0 0" imageRepeat="None" />
    <mask fill="white" id="Clip3726">
      <path d="M 14 0  C 6.268013502368891 0  0 6.268013502368892  0 14  C 0 21.73198649763111  6.268013502368891 28  14 28  C 21.73198649763111 28  28 21.73198649763111  28 14  C 28 6.268013502368892  21.73198649763111 0  14 0  Z M 25.927018758312975 14.072981241687023  C 25.927018758312975 16.877896819916142  24.944449125795764 19.59419301978976  23.15 21.75  L 6.25 4.8500000000000005  C 8.405806980210238 3.055550874204232  11.122103180083858 2.0729812416870237  13.927018758312975 2.0729812416870237  C 20.554435756282498 2.0729812416870237  25.927018758312975 7.445564243717503  25.927018758312975 14.072981241687023  Z M 21.73 23.16  C 17.258014688052704 26.938708924358462  10.711985311947297 26.938708924358462  6.24 23.16  C 1.1978454630206734 18.878187990116523  0.571647205083516 11.323553292574662  4.84 6.2700000000000005  L 21.73 23.16  Z " fill-rule="evenodd" />
    </mask>
  </defs>
  <g transform="matrix(1 0 0 1 -2 -2 )">
    <path d="M 14 0  C 6.268013502368891 0  0 6.268013502368892  0 14  C 0 21.73198649763111  6.268013502368891 28  14 28  C 21.73198649763111 28  28 21.73198649763111  28 14  C 28 6.268013502368892  21.73198649763111 0  14 0  Z M 25.927018758312975 14.072981241687023  C 25.927018758312975 16.877896819916142  24.944449125795764 19.59419301978976  23.15 21.75  L 6.25 4.8500000000000005  C 8.405806980210238 3.055550874204232  11.122103180083858 2.0729812416870237  13.927018758312975 2.0729812416870237  C 20.554435756282498 2.0729812416870237  25.927018758312975 7.445564243717503  25.927018758312975 14.072981241687023  Z M 21.73 23.16  C 17.258014688052704 26.938708924358462  10.711985311947297 26.938708924358462  6.24 23.16  C 1.1978454630206734 18.878187990116523  0.571647205083516 11.323553292574662  4.84 6.2700000000000005  L 21.73 23.16  Z " fill-rule="nonzero" fill="rgba(0, 0, 0, 1)" stroke="none" transform="matrix(1 0 0 1 2 2 )" class="fill" />
    <path d="M 14 0  C 6.268013502368891 0  0 6.268013502368892  0 14  C 0 21.73198649763111  6.268013502368891 28  14 28  C 21.73198649763111 28  28 21.73198649763111  28 14  C 28 6.268013502368892  21.73198649763111 0  14 0  Z " stroke-width="0" stroke-dasharray="0" stroke="rgba(255, 255, 255, 0)" fill="none" transform="matrix(1 0 0 1 2 2 )" class="stroke" mask="url(#Clip3726)" />
    <path d="M 25.927018758312975 14.072981241687023  C 25.927018758312975 16.877896819916142  24.944449125795764 19.59419301978976  23.15 21.75  L 6.25 4.8500000000000005  C 8.405806980210238 3.055550874204232  11.122103180083858 2.0729812416870237  13.927018758312975 2.0729812416870237  C 20.554435756282498 2.0729812416870237  25.927018758312975 7.445564243717503  25.927018758312975 14.072981241687023  Z " stroke-width="0" stroke-dasharray="0" stroke="rgba(255, 255, 255, 0)" fill="none" transform="matrix(1 0 0 1 2 2 )" class="stroke" mask="url(#Clip3726)" />
    <path d="M 21.73 23.16  C 17.258014688052704 26.938708924358462  10.711985311947297 26.938708924358462  6.24 23.16  C 1.1978454630206734 18.878187990116523  0.571647205083516 11.323553292574662  4.84 6.2700000000000005  L 21.73 23.16  Z " stroke-width="0" stroke-dasharray="0" stroke="rgba(255, 255, 255, 0)" fill="none" transform="matrix(1 0 0 1 2 2 )" class="stroke" mask="url(#Clip3726)" />
  </g>
</svg>