<?xml version="1.0" encoding="utf-8"?>
<svg version="1.1" xmlns:xlink="http://www.w3.org/1999/xlink" width="50px" height="30px" xmlns="http://www.w3.org/2000/svg">
  <defs>
    <pattern id="BGPattern" patternUnits="userSpaceOnUse" alignment="0 0" imageRepeat="None" />
    <mask fill="white" id="Clip1183">
      <path d="M 32.5 15  C 32.5 10.167187500000011  29.142187500000006 6.25  25 6.25  C 20.857812499999994 6.25  17.5 10.167187500000011  17.5 15  C 17.5 19.83203125  20.857812499999994 23.75  25 23.75  C 29.140624999999996 23.75  32.5 19.833593750000006  32.5 15  Z M 28.125 18.125  L 28.125 19.375  C 28.125 19.720312500000006  27.84531250000001 20  27.500000000000004 20  L 22.5 20  C 22.154687499999994 20  21.875 19.720312500000006  21.875 19.375  L 21.875 18.125  C 21.875 17.779687499999994  22.154687499999994 17.5  22.5 17.5  L 23.75 17.5  L 23.75 13.168749999999989  L 23.713281249999994 13.192968750000006  C 23.610662325781163 13.261455693890099  23.49005378239839 13.298006025352862  23.366679939582212 13.298006025352862  C 23.157730552557126 13.298006025352862  22.96263178063961 13.193485882229538  22.846874999999997 13.01953125  L 22.153125000000003 11.979687500000011  C 22.084638056109924 11.87706857578118  22.048087724647147 11.756460032398394  22.048087724647147 11.633086189582201  C 22.048087724647147 11.424136802557143  22.152607867770485 11.2290380306396  22.326562499999994 11.11328125  L 23.524218750000003 10.314843749999994  C 23.83214500058878 10.109529949256313  24.19396476682313 9.999978209367185  24.564062500000006 10  L 25.624999999999996 10  C 25.970312500000002 10  26.25 10.279687499999994  26.25 10.625  L 26.25 17.5  L 27.500000000000004 17.5  C 27.84531250000001 17.5  28.125 17.779687499999994  28.125 18.125  Z M 50 2.5  C 50 1.1195312499999943  48.88046874999998 0  47.5 0  L 2.5 0  C 1.1195312499999943 0  0 1.1195312499999943  0 2.5  L 0 27.5  C 0 28.880468750000006  1.1195312499999943 30  2.5 30  L 47.5 30  C 48.88046874999998 30  50 28.880468750000006  50 27.5  L 50 2.5  Z M 46 8.75  L 46 21.25  C 43.48828125 21.25  41.25 23.48828125  41.25 26  L 8.75 26  C 8.75 23.48828125  6.511718750000001 21.25  4 21.25  L 4 8.75  C 6.511718750000001 8.75  8.75 6.51171875  8.75 4  L 41.25 4  C 41.25 6.51171875  43.48828125 8.75  46 8.75  Z " fill-rule="evenodd" />
    </mask>
  </defs>
  <g>
    <path d="M 32.5 15  C 32.5 10.167187500000011  29.142187500000006 6.25  25 6.25  C 20.857812499999994 6.25  17.5 10.167187500000011  17.5 15  C 17.5 19.83203125  20.857812499999994 23.75  25 23.75  C 29.140624999999996 23.75  32.5 19.833593750000006  32.5 15  Z M 28.125 18.125  L 28.125 19.375  C 28.125 19.720312500000006  27.84531250000001 20  27.500000000000004 20  L 22.5 20  C 22.154687499999994 20  21.875 19.720312500000006  21.875 19.375  L 21.875 18.125  C 21.875 17.779687499999994  22.154687499999994 17.5  22.5 17.5  L 23.75 17.5  L 23.75 13.168749999999989  L 23.713281249999994 13.192968750000006  C 23.610662325781163 13.261455693890099  23.49005378239839 13.298006025352862  23.366679939582212 13.298006025352862  C 23.157730552557126 13.298006025352862  22.96263178063961 13.193485882229538  22.846874999999997 13.01953125  L 22.153125000000003 11.979687500000011  C 22.084638056109924 11.87706857578118  22.048087724647147 11.756460032398394  22.048087724647147 11.633086189582201  C 22.048087724647147 11.424136802557143  22.152607867770485 11.2290380306396  22.326562499999994 11.11328125  L 23.524218750000003 10.314843749999994  C 23.83214500058878 10.109529949256313  24.19396476682313 9.999978209367185  24.564062500000006 10  L 25.624999999999996 10  C 25.970312500000002 10  26.25 10.279687499999994  26.25 10.625  L 26.25 17.5  L 27.500000000000004 17.5  C 27.84531250000001 17.5  28.125 17.779687499999994  28.125 18.125  Z M 50 2.5  C 50 1.1195312499999943  48.88046874999998 0  47.5 0  L 2.5 0  C 1.1195312499999943 0  0 1.1195312499999943  0 2.5  L 0 27.5  C 0 28.880468750000006  1.1195312499999943 30  2.5 30  L 47.5 30  C 48.88046874999998 30  50 28.880468750000006  50 27.5  L 50 2.5  Z M 46 8.75  L 46 21.25  C 43.48828125 21.25  41.25 23.48828125  41.25 26  L 8.75 26  C 8.75 23.48828125  6.511718750000001 21.25  4 21.25  L 4 8.75  C 6.511718750000001 8.75  8.75 6.51171875  8.75 4  L 41.25 4  C 41.25 6.51171875  43.48828125 8.75  46 8.75  Z " fill-rule="nonzero" fill="rgba(0, 0, 0, 1)" stroke="none" class="fill" />
    <path d="M 32.5 15  C 32.5 10.167187500000011  29.142187500000006 6.25  25 6.25  C 20.857812499999994 6.25  17.5 10.167187500000011  17.5 15  C 17.5 19.83203125  20.857812499999994 23.75  25 23.75  C 29.140624999999996 23.75  32.5 19.833593750000006  32.5 15  Z " stroke-width="0" stroke-dasharray="0" stroke="rgba(255, 255, 255, 0)" fill="none" class="stroke" mask="url(#Clip1183)" />
    <path d="M 28.125 18.125  L 28.125 19.375  C 28.125 19.720312500000006  27.84531250000001 20  27.500000000000004 20  L 22.5 20  C 22.154687499999994 20  21.875 19.720312500000006  21.875 19.375  L 21.875 18.125  C 21.875 17.779687499999994  22.154687499999994 17.5  22.5 17.5  L 23.75 17.5  L 23.75 13.168749999999989  L 23.713281249999994 13.192968750000006  C 23.610662325781163 13.261455693890099  23.49005378239839 13.298006025352862  23.366679939582212 13.298006025352862  C 23.157730552557126 13.298006025352862  22.96263178063961 13.193485882229538  22.846874999999997 13.01953125  L 22.153125000000003 11.979687500000011  C 22.084638056109924 11.87706857578118  22.048087724647147 11.756460032398394  22.048087724647147 11.633086189582201  C 22.048087724647147 11.424136802557143  22.152607867770485 11.2290380306396  22.326562499999994 11.11328125  L 23.524218750000003 10.314843749999994  C 23.83214500058878 10.109529949256313  24.19396476682313 9.999978209367185  24.564062500000006 10  L 25.624999999999996 10  C 25.970312500000002 10  26.25 10.279687499999994  26.25 10.625  L 26.25 17.5  L 27.500000000000004 17.5  C 27.84531250000001 17.5  28.125 17.779687499999994  28.125 18.125  Z " stroke-width="0" stroke-dasharray="0" stroke="rgba(255, 255, 255, 0)" fill="none" class="stroke" mask="url(#Clip1183)" />
    <path d="M 50 2.5  C 50 1.1195312499999943  48.88046874999998 0  47.5 0  L 2.5 0  C 1.1195312499999943 0  0 1.1195312499999943  0 2.5  L 0 27.5  C 0 28.880468750000006  1.1195312499999943 30  2.5 30  L 47.5 30  C 48.88046874999998 30  50 28.880468750000006  50 27.5  L 50 2.5  Z " stroke-width="0" stroke-dasharray="0" stroke="rgba(255, 255, 255, 0)" fill="none" class="stroke" mask="url(#Clip1183)" />
    <path d="M 46 8.75  L 46 21.25  C 43.48828125 21.25  41.25 23.48828125  41.25 26  L 8.75 26  C 8.75 23.48828125  6.511718750000001 21.25  4 21.25  L 4 8.75  C 6.511718750000001 8.75  8.75 6.51171875  8.75 4  L 41.25 4  C 41.25 6.51171875  43.48828125 8.75  46 8.75  Z " stroke-width="0" stroke-dasharray="0" stroke="rgba(255, 255, 255, 0)" fill="none" class="stroke" mask="url(#Clip1183)" />
  </g>
</svg>