<?xml version="1.0" encoding="utf-8"?>
<svg version="1.1" xmlns:xlink="http://www.w3.org/1999/xlink" width="48px" height="36px" xmlns="http://www.w3.org/2000/svg">
  <defs>
    <pattern id="BGPattern" patternUnits="userSpaceOnUse" alignment="0 0" imageRepeat="None" />
    <mask fill="white" id="Clip7442">
      <path d="M 0 35  L 48 35  L 48 22.894  C 41.43 25.485999999999997  33.275999999999996 28.006  23.54 30.466  C 14.472 32.756  6.623999999999999 34.406  0 35.416000000000004  L 0 35  Z M 0 22.158000000000005  L 0 22.156  L 0 32.422  C 7.476 31.321999999999996  14.232 30.009999999999998  20.26 28.488  C 26.183999999999997 26.991999999999997  30.75 25.537999999999997  33.954 24.128  C 37.158 22.722  38.634 21.534  38.394 20.568  C 38.18 19.728  36.702 19.298000000000002  33.96 19.278000000000002  C 32.554 19.298000000000002  30.62 19.398000000000003  28.152 19.578000000000003  C 25.68 19.758000000000003  22.604 20.046000000000003  18.932000000000002 20.430000000000003  C 13.232000000000003 21.038000000000004  8.500000000000002 21.504000000000005  4.732000000000003 21.818000000000005  C 2.940000000000003 21.968000000000004  1.3620000000000028 22.082000000000004  0 22.158000000000005  Z M 2.106 28.081999999999994  L 2.07 28.055999999999997  C 2.19 28.055999999999997  2.298 28.105999999999995  2.3899999999999997 28.195999999999998  C 2.4819999999999998 28.287999999999997  2.53 28.402  2.53 28.528  C 2.53 28.659999999999997  2.4819999999999998 28.768  2.3899999999999997 28.863999999999997  C 2.296 28.954  2.1819999999999995 28.995999999999995  2.062 28.995999999999995  C 1.9979999999999998 28.995999999999995  1.9339999999999997 28.983999999999995  1.8780000000000001 28.959999999999994  C 1.818 28.935999999999993  1.77 28.89999999999999  1.7279999999999998 28.859999999999992  C 1.682 28.831999999999994  1.6480000000000001 28.77199999999999  1.628 28.71199999999999  C 1.628 28.681999999999988  1.5959999999999996 28.621999999999986  1.5959999999999996 28.53199999999999  C 1.5959999999999996 28.411999999999992  1.6559999999999997 28.291999999999987  1.746 28.20199999999999  C 1.8359999999999996 28.111999999999995  1.9559999999999997 28.081999999999994  2.106 28.081999999999994  Z M 3.6239999999999988 28.081999999999994  L 3.69 28.055999999999997  C 3.816 28.055999999999997  3.9240000000000004 28.105999999999995  4.02 28.195999999999998  C 4.109999999999999 28.287999999999997  4.151999999999999 28.402  4.151999999999999 28.528  C 4.151999999999999 28.659999999999997  4.108 28.768  4.017999999999999 28.863999999999997  C 3.897999999999999 28.954  3.8059999999999983 28.995999999999995  3.6579999999999986 28.995999999999995  C 3.597999999999999 28.995999999999995  3.5379999999999985 28.983999999999995  3.477999999999999 28.959999999999994  C 3.4179999999999984 28.935999999999993  3.3579999999999988 28.89999999999999  3.3259999999999987 28.859999999999992  C 3.2659999999999987 28.831999999999994  3.235999999999999 28.77199999999999  3.2059999999999986 28.71199999999999  C 3.1759999999999984 28.681999999999988  3.1759999999999984 28.621999999999986  3.1759999999999984 28.53199999999999  C 3.1759999999999984 28.411999999999992  3.203999999999999 28.291999999999987  3.2959999999999985 28.20199999999999  C 3.387999999999999 28.111999999999995  3.503999999999999 28.081999999999994  3.6239999999999988 28.081999999999994  Z M 2.0399999999999996 25.034  L 2.07 25.035999999999998  C 2.19 25.035999999999998  2.298 25.08  2.3899999999999997 25.176  C 2.4819999999999998 25.266  2.53 25.375999999999998  2.53 25.505999999999997  C 2.53 25.633999999999997  2.4819999999999998 25.745999999999995  2.3899999999999997 25.835999999999995  C 2.2979999999999996 25.925999999999995  2.1899999999999995 25.975999999999996  2.062 25.975999999999996  C 1.932 25.975999999999996  1.818 25.927999999999997  1.7279999999999998 25.835999999999995  C 1.638 25.745999999999995  1.5879999999999996 25.631999999999994  1.5879999999999996 25.505999999999997  C 1.5879999999999996 25.372  1.6199999999999997 25.259999999999998  1.7079999999999997 25.169999999999998  C 1.7959999999999998 25.08  1.9199999999999997 25.034  2.0399999999999996 25.034  Z M 3.623999999999999 25.034  L 3.69 25.035999999999998  C 3.816 25.035999999999998  3.9240000000000004 25.08  4.02 25.176  C 4.109999999999999 25.266  4.151999999999999 25.375999999999998  4.151999999999999 25.505999999999997  C 4.151999999999999 25.633999999999997  4.108 25.745999999999995  4.017999999999999 25.835999999999995  C 3.897999999999999 25.925999999999995  3.8059999999999983 25.975999999999996  3.6579999999999986 25.975999999999996  C 3.509999999999999 25.975999999999996  3.4179999999999993 25.927999999999997  3.3259999999999996 25.835999999999995  C 3.2359999999999993 25.745999999999995  3.1759999999999993 25.631999999999994  3.1759999999999993 25.505999999999997  C 3.1759999999999993 25.372  3.2039999999999997 25.259999999999998  3.2959999999999994 25.169999999999998  C 3.387999999999999 25.08  3.5039999999999996 25.034  3.623999999999999 25.034  Z M 47.998000000000005 3.270000000000003  L 48 3.194000000000001  L 48 12.82  C 44.73 13.02  40.64 13.373999999999999  35.724000000000004 13.888000000000002  C 30.744000000000003 14.428  26.684000000000005 14.848000000000003  23.538000000000004 15.118000000000002  C 20.386000000000003 15.418000000000003  18.112000000000002 15.570000000000004  16.718000000000004 15.598000000000003  C 13.992000000000004 15.658000000000001  12.538000000000004 15.298000000000002  12.328000000000003 14.490000000000002  C 12.118000000000002 13.590000000000003  13.738000000000003 12.39  17.218000000000004 10.950000000000003  C 20.698000000000004 9.480000000000004  25.318000000000005 8.010000000000003  31.018 6.570000000000004  C 36.028000000000006 5.310000000000004  41.69800000000001 4.200000000000003  47.998000000000005 3.270000000000003  Z M 46.292 1  L 46.29 0.49400000000000066  C 39.78 1.7040000000000006  33.036 3.194000000000001  26.061999999999998 4.954000000000001  C 15.174 7.704000000000001  6.488000000000001 10.440000000000001  0 13.146  L 0 1  L 46.292 1  Z " fill-rule="evenodd" />
    </mask>
  </defs>
  <g>
    <path d="M 0 35  L 48 35  L 48 22.894  C 41.43 25.485999999999997  33.275999999999996 28.006  23.54 30.466  C 14.472 32.756  6.623999999999999 34.406  0 35.416000000000004  L 0 35  Z M 0 22.158000000000005  L 0 22.156  L 0 32.422  C 7.476 31.321999999999996  14.232 30.009999999999998  20.26 28.488  C 26.183999999999997 26.991999999999997  30.75 25.537999999999997  33.954 24.128  C 37.158 22.722  38.634 21.534  38.394 20.568  C 38.18 19.728  36.702 19.298000000000002  33.96 19.278000000000002  C 32.554 19.298000000000002  30.62 19.398000000000003  28.152 19.578000000000003  C 25.68 19.758000000000003  22.604 20.046000000000003  18.932000000000002 20.430000000000003  C 13.232000000000003 21.038000000000004  8.500000000000002 21.504000000000005  4.732000000000003 21.818000000000005  C 2.940000000000003 21.968000000000004  1.3620000000000028 22.082000000000004  0 22.158000000000005  Z M 2.106 28.081999999999994  L 2.07 28.055999999999997  C 2.19 28.055999999999997  2.298 28.105999999999995  2.3899999999999997 28.195999999999998  C 2.4819999999999998 28.287999999999997  2.53 28.402  2.53 28.528  C 2.53 28.659999999999997  2.4819999999999998 28.768  2.3899999999999997 28.863999999999997  C 2.296 28.954  2.1819999999999995 28.995999999999995  2.062 28.995999999999995  C 1.9979999999999998 28.995999999999995  1.9339999999999997 28.983999999999995  1.8780000000000001 28.959999999999994  C 1.818 28.935999999999993  1.77 28.89999999999999  1.7279999999999998 28.859999999999992  C 1.682 28.831999999999994  1.6480000000000001 28.77199999999999  1.628 28.71199999999999  C 1.628 28.681999999999988  1.5959999999999996 28.621999999999986  1.5959999999999996 28.53199999999999  C 1.5959999999999996 28.411999999999992  1.6559999999999997 28.291999999999987  1.746 28.20199999999999  C 1.8359999999999996 28.111999999999995  1.9559999999999997 28.081999999999994  2.106 28.081999999999994  Z M 3.6239999999999988 28.081999999999994  L 3.69 28.055999999999997  C 3.816 28.055999999999997  3.9240000000000004 28.105999999999995  4.02 28.195999999999998  C 4.109999999999999 28.287999999999997  4.151999999999999 28.402  4.151999999999999 28.528  C 4.151999999999999 28.659999999999997  4.108 28.768  4.017999999999999 28.863999999999997  C 3.897999999999999 28.954  3.8059999999999983 28.995999999999995  3.6579999999999986 28.995999999999995  C 3.597999999999999 28.995999999999995  3.5379999999999985 28.983999999999995  3.477999999999999 28.959999999999994  C 3.4179999999999984 28.935999999999993  3.3579999999999988 28.89999999999999  3.3259999999999987 28.859999999999992  C 3.2659999999999987 28.831999999999994  3.235999999999999 28.77199999999999  3.2059999999999986 28.71199999999999  C 3.1759999999999984 28.681999999999988  3.1759999999999984 28.621999999999986  3.1759999999999984 28.53199999999999  C 3.1759999999999984 28.411999999999992  3.203999999999999 28.291999999999987  3.2959999999999985 28.20199999999999  C 3.387999999999999 28.111999999999995  3.503999999999999 28.081999999999994  3.6239999999999988 28.081999999999994  Z M 2.0399999999999996 25.034  L 2.07 25.035999999999998  C 2.19 25.035999999999998  2.298 25.08  2.3899999999999997 25.176  C 2.4819999999999998 25.266  2.53 25.375999999999998  2.53 25.505999999999997  C 2.53 25.633999999999997  2.4819999999999998 25.745999999999995  2.3899999999999997 25.835999999999995  C 2.2979999999999996 25.925999999999995  2.1899999999999995 25.975999999999996  2.062 25.975999999999996  C 1.932 25.975999999999996  1.818 25.927999999999997  1.7279999999999998 25.835999999999995  C 1.638 25.745999999999995  1.5879999999999996 25.631999999999994  1.5879999999999996 25.505999999999997  C 1.5879999999999996 25.372  1.6199999999999997 25.259999999999998  1.7079999999999997 25.169999999999998  C 1.7959999999999998 25.08  1.9199999999999997 25.034  2.0399999999999996 25.034  Z M 3.623999999999999 25.034  L 3.69 25.035999999999998  C 3.816 25.035999999999998  3.9240000000000004 25.08  4.02 25.176  C 4.109999999999999 25.266  4.151999999999999 25.375999999999998  4.151999999999999 25.505999999999997  C 4.151999999999999 25.633999999999997  4.108 25.745999999999995  4.017999999999999 25.835999999999995  C 3.897999999999999 25.925999999999995  3.8059999999999983 25.975999999999996  3.6579999999999986 25.975999999999996  C 3.509999999999999 25.975999999999996  3.4179999999999993 25.927999999999997  3.3259999999999996 25.835999999999995  C 3.2359999999999993 25.745999999999995  3.1759999999999993 25.631999999999994  3.1759999999999993 25.505999999999997  C 3.1759999999999993 25.372  3.2039999999999997 25.259999999999998  3.2959999999999994 25.169999999999998  C 3.387999999999999 25.08  3.5039999999999996 25.034  3.623999999999999 25.034  Z M 47.998000000000005 3.270000000000003  L 48 3.194000000000001  L 48 12.82  C 44.73 13.02  40.64 13.373999999999999  35.724000000000004 13.888000000000002  C 30.744000000000003 14.428  26.684000000000005 14.848000000000003  23.538000000000004 15.118000000000002  C 20.386000000000003 15.418000000000003  18.112000000000002 15.570000000000004  16.718000000000004 15.598000000000003  C 13.992000000000004 15.658000000000001  12.538000000000004 15.298000000000002  12.328000000000003 14.490000000000002  C 12.118000000000002 13.590000000000003  13.738000000000003 12.39  17.218000000000004 10.950000000000003  C 20.698000000000004 9.480000000000004  25.318000000000005 8.010000000000003  31.018 6.570000000000004  C 36.028000000000006 5.310000000000004  41.69800000000001 4.200000000000003  47.998000000000005 3.270000000000003  Z M 46.292 1  L 46.29 0.49400000000000066  C 39.78 1.7040000000000006  33.036 3.194000000000001  26.061999999999998 4.954000000000001  C 15.174 7.704000000000001  6.488000000000001 10.440000000000001  0 13.146  L 0 1  L 46.292 1  Z " fill-rule="nonzero" fill="rgba(128, 156, 201, 1)" stroke="none" class="fill" />
    <path d="M 0 35  L 48 35  L 48 22.894  C 41.43 25.485999999999997  33.275999999999996 28.006  23.54 30.466  C 14.472 32.756  6.623999999999999 34.406  0 35.416000000000004  L 0 35  Z " stroke-width="0" stroke-dasharray="0" stroke="rgba(255, 255, 255, 0)" fill="none" class="stroke" mask="url(#Clip7442)" />
    <path d="M 0 22.158000000000005  L 0 22.156  L 0 32.422  C 7.476 31.321999999999996  14.232 30.009999999999998  20.26 28.488  C 26.183999999999997 26.991999999999997  30.75 25.537999999999997  33.954 24.128  C 37.158 22.722  38.634 21.534  38.394 20.568  C 38.18 19.728  36.702 19.298000000000002  33.96 19.278000000000002  C 32.554 19.298000000000002  30.62 19.398000000000003  28.152 19.578000000000003  C 25.68 19.758000000000003  22.604 20.046000000000003  18.932000000000002 20.430000000000003  C 13.232000000000003 21.038000000000004  8.500000000000002 21.504000000000005  4.732000000000003 21.818000000000005  C 2.940000000000003 21.968000000000004  1.3620000000000028 22.082000000000004  0 22.158000000000005  Z " stroke-width="0" stroke-dasharray="0" stroke="rgba(255, 255, 255, 0)" fill="none" class="stroke" mask="url(#Clip7442)" />
    <path d="M 2.106 28.081999999999994  L 2.07 28.055999999999997  C 2.19 28.055999999999997  2.298 28.105999999999995  2.3899999999999997 28.195999999999998  C 2.4819999999999998 28.287999999999997  2.53 28.402  2.53 28.528  C 2.53 28.659999999999997  2.4819999999999998 28.768  2.3899999999999997 28.863999999999997  C 2.296 28.954  2.1819999999999995 28.995999999999995  2.062 28.995999999999995  C 1.9979999999999998 28.995999999999995  1.9339999999999997 28.983999999999995  1.8780000000000001 28.959999999999994  C 1.818 28.935999999999993  1.77 28.89999999999999  1.7279999999999998 28.859999999999992  C 1.682 28.831999999999994  1.6480000000000001 28.77199999999999  1.628 28.71199999999999  C 1.628 28.681999999999988  1.5959999999999996 28.621999999999986  1.5959999999999996 28.53199999999999  C 1.5959999999999996 28.411999999999992  1.6559999999999997 28.291999999999987  1.746 28.20199999999999  C 1.8359999999999996 28.111999999999995  1.9559999999999997 28.081999999999994  2.106 28.081999999999994  Z " stroke-width="0" stroke-dasharray="0" stroke="rgba(255, 255, 255, 0)" fill="none" class="stroke" mask="url(#Clip7442)" />
    <path d="M 3.6239999999999988 28.081999999999994  L 3.69 28.055999999999997  C 3.816 28.055999999999997  3.9240000000000004 28.105999999999995  4.02 28.195999999999998  C 4.109999999999999 28.287999999999997  4.151999999999999 28.402  4.151999999999999 28.528  C 4.151999999999999 28.659999999999997  4.108 28.768  4.017999999999999 28.863999999999997  C 3.897999999999999 28.954  3.8059999999999983 28.995999999999995  3.6579999999999986 28.995999999999995  C 3.597999999999999 28.995999999999995  3.5379999999999985 28.983999999999995  3.477999999999999 28.959999999999994  C 3.4179999999999984 28.935999999999993  3.3579999999999988 28.89999999999999  3.3259999999999987 28.859999999999992  C 3.2659999999999987 28.831999999999994  3.235999999999999 28.77199999999999  3.2059999999999986 28.71199999999999  C 3.1759999999999984 28.681999999999988  3.1759999999999984 28.621999999999986  3.1759999999999984 28.53199999999999  C 3.1759999999999984 28.411999999999992  3.203999999999999 28.291999999999987  3.2959999999999985 28.20199999999999  C 3.387999999999999 28.111999999999995  3.503999999999999 28.081999999999994  3.6239999999999988 28.081999999999994  Z " stroke-width="0" stroke-dasharray="0" stroke="rgba(255, 255, 255, 0)" fill="none" class="stroke" mask="url(#Clip7442)" />
    <path d="M 2.0399999999999996 25.034  L 2.07 25.035999999999998  C 2.19 25.035999999999998  2.298 25.08  2.3899999999999997 25.176  C 2.4819999999999998 25.266  2.53 25.375999999999998  2.53 25.505999999999997  C 2.53 25.633999999999997  2.4819999999999998 25.745999999999995  2.3899999999999997 25.835999999999995  C 2.2979999999999996 25.925999999999995  2.1899999999999995 25.975999999999996  2.062 25.975999999999996  C 1.932 25.975999999999996  1.818 25.927999999999997  1.7279999999999998 25.835999999999995  C 1.638 25.745999999999995  1.5879999999999996 25.631999999999994  1.5879999999999996 25.505999999999997  C 1.5879999999999996 25.372  1.6199999999999997 25.259999999999998  1.7079999999999997 25.169999999999998  C 1.7959999999999998 25.08  1.9199999999999997 25.034  2.0399999999999996 25.034  Z " stroke-width="0" stroke-dasharray="0" stroke="rgba(255, 255, 255, 0)" fill="none" class="stroke" mask="url(#Clip7442)" />
    <path d="M 3.623999999999999 25.034  L 3.69 25.035999999999998  C 3.816 25.035999999999998  3.9240000000000004 25.08  4.02 25.176  C 4.109999999999999 25.266  4.151999999999999 25.375999999999998  4.151999999999999 25.505999999999997  C 4.151999999999999 25.633999999999997  4.108 25.745999999999995  4.017999999999999 25.835999999999995  C 3.897999999999999 25.925999999999995  3.8059999999999983 25.975999999999996  3.6579999999999986 25.975999999999996  C 3.509999999999999 25.975999999999996  3.4179999999999993 25.927999999999997  3.3259999999999996 25.835999999999995  C 3.2359999999999993 25.745999999999995  3.1759999999999993 25.631999999999994  3.1759999999999993 25.505999999999997  C 3.1759999999999993 25.372  3.2039999999999997 25.259999999999998  3.2959999999999994 25.169999999999998  C 3.387999999999999 25.08  3.5039999999999996 25.034  3.623999999999999 25.034  Z " stroke-width="0" stroke-dasharray="0" stroke="rgba(255, 255, 255, 0)" fill="none" class="stroke" mask="url(#Clip7442)" />
    <path d="M 47.998000000000005 3.270000000000003  L 48 3.194000000000001  L 48 12.82  C 44.73 13.02  40.64 13.373999999999999  35.724000000000004 13.888000000000002  C 30.744000000000003 14.428  26.684000000000005 14.848000000000003  23.538000000000004 15.118000000000002  C 20.386000000000003 15.418000000000003  18.112000000000002 15.570000000000004  16.718000000000004 15.598000000000003  C 13.992000000000004 15.658000000000001  12.538000000000004 15.298000000000002  12.328000000000003 14.490000000000002  C 12.118000000000002 13.590000000000003  13.738000000000003 12.39  17.218000000000004 10.950000000000003  C 20.698000000000004 9.480000000000004  25.318000000000005 8.010000000000003  31.018 6.570000000000004  C 36.028000000000006 5.310000000000004  41.69800000000001 4.200000000000003  47.998000000000005 3.270000000000003  Z " stroke-width="0" stroke-dasharray="0" stroke="rgba(255, 255, 255, 0)" fill="none" class="stroke" mask="url(#Clip7442)" />
    <path d="M 46.292 1  L 46.29 0.49400000000000066  C 39.78 1.7040000000000006  33.036 3.194000000000001  26.061999999999998 4.954000000000001  C 15.174 7.704000000000001  6.488000000000001 10.440000000000001  0 13.146  L 0 1  L 46.292 1  Z " stroke-width="0" stroke-dasharray="0" stroke="rgba(255, 255, 255, 0)" fill="none" class="stroke" mask="url(#Clip7442)" />
  </g>
</svg>