<?xml version="1.0" encoding="utf-8"?>
<svg version="1.1" xmlns:xlink="http://www.w3.org/1999/xlink" width="18px" height="18px" xmlns="http://www.w3.org/2000/svg">
  <defs>
    <pattern id="BGPattern" patternUnits="userSpaceOnUse" alignment="0 0" imageRepeat="None" />
    <mask fill="white" id="Clip4742">
      <path d="M 6.496500000000001 1.2960000000000003  L 9 0  L 11.5035 1.2960000000000003  L 14.290500000000002 1.7189999999999999  L 15.553500000000003 4.238999999999999  L 17.559 6.218999999999999  L 17.1 9  L 17.558999999999997 11.781000000000002  L 15.5535 13.761  L 14.290499999999998 16.281  L 11.503499999999999 16.704  L 9 18  L 6.496499999999999 16.704  L 3.7094999999999985 16.281  L 2.4464999999999986 13.761  L 0.44099999999999806 11.780999999999999  L 0.9000000000000004 9  L 0.44099999999999984 6.218999999999999  L 2.4465000000000003 4.238999999999999  L 3.7095000000000002 1.7189999999999994  L 6.496500000000001 1.2960000000000003  Z " fill-rule="evenodd" />
    </mask>
  </defs>
  <g>
    <path d="M 6.496500000000001 1.2960000000000003  L 9 0  L 11.5035 1.2960000000000003  L 14.290500000000002 1.7189999999999999  L 15.553500000000003 4.238999999999999  L 17.559 6.218999999999999  L 17.1 9  L 17.558999999999997 11.781000000000002  L 15.5535 13.761  L 14.290499999999998 16.281  L 11.503499999999999 16.704  L 9 18  L 6.496499999999999 16.704  L 3.7094999999999985 16.281  L 2.4464999999999986 13.761  L 0.44099999999999806 11.780999999999999  L 0.9000000000000004 9  L 0.44099999999999984 6.218999999999999  L 2.4465000000000003 4.238999999999999  L 3.7095000000000002 1.7189999999999994  L 6.496500000000001 1.2960000000000003  Z " fill-rule="nonzero" fill="rgba(0, 0, 0, 1)" stroke="none" class="fill" />
    <path d="M 6.496500000000001 1.2960000000000003  L 9 0  L 11.5035 1.2960000000000003  L 14.290500000000002 1.7189999999999999  L 15.553500000000003 4.238999999999999  L 17.559 6.218999999999999  L 17.1 9  L 17.558999999999997 11.781000000000002  L 15.5535 13.761  L 14.290499999999998 16.281  L 11.503499999999999 16.704  L 9 18  L 6.496499999999999 16.704  L 3.7094999999999985 16.281  L 2.4464999999999986 13.761  L 0.44099999999999806 11.780999999999999  L 0.9000000000000004 9  L 0.44099999999999984 6.218999999999999  L 2.4465000000000003 4.238999999999999  L 3.7095000000000002 1.7189999999999994  L 6.496500000000001 1.2960000000000003  Z " stroke-width="0" stroke-dasharray="0" stroke="rgba(255, 255, 255, 0)" fill="none" class="stroke" mask="url(#Clip4742)" />
  </g>
</svg>