<?xml version="1.0" encoding="utf-8"?>
<svg version="1.1" xmlns:xlink="http://www.w3.org/1999/xlink" width="40px" height="48px" xmlns="http://www.w3.org/2000/svg">
  <defs>
    <pattern id="BGPattern" patternUnits="userSpaceOnUse" alignment="0 0" imageRepeat="None" />
    <mask fill="white" id="Clip7416">
      <path d="M 0.5440000000000005 31  L 39.456 31  L 39.456 33.226  C 39.456 36.734  36.666000000000004 39.58  33.256 39.58  L 31.448 39.58  L 23.29 48  L 23.29 39  L 6.742000000000001 39  C 3.3340000000000014 39.58  0.5440000000000005 36.733999999999995  0.5440000000000005 33.217999999999996  L 0.5440000000000005 31  Z M 0.5499999999999998 28  L 0.5499999999999998 21  L 39.196 21  L 39.196 28  L 0.5499999999999998 28  Z M 0.5499999999999998 19  L 0.5499999999999998 11  L 39.196 11  L 39.196 19  L 0.5499999999999998 19  Z M 6.75 0  L 33.15 0  C 36.512 0  39.196 2.84  39.196 6.356  L 39.196 9  L 0.5499999999999998 9  L 0.5499999999999998 6.356  C 0.5499999999999998 2.844  3.34 0  6.75 0  Z " fill-rule="evenodd" />
    </mask>
  </defs>
  <g>
    <path d="M 0.5440000000000005 31  L 39.456 31  L 39.456 33.226  C 39.456 36.734  36.666000000000004 39.58  33.256 39.58  L 31.448 39.58  L 23.29 48  L 23.29 39  L 6.742000000000001 39  C 3.3340000000000014 39.58  0.5440000000000005 36.733999999999995  0.5440000000000005 33.217999999999996  L 0.5440000000000005 31  Z M 0.5499999999999998 28  L 0.5499999999999998 21  L 39.196 21  L 39.196 28  L 0.5499999999999998 28  Z M 0.5499999999999998 19  L 0.5499999999999998 11  L 39.196 11  L 39.196 19  L 0.5499999999999998 19  Z M 6.75 0  L 33.15 0  C 36.512 0  39.196 2.84  39.196 6.356  L 39.196 9  L 0.5499999999999998 9  L 0.5499999999999998 6.356  C 0.5499999999999998 2.844  3.34 0  6.75 0  Z " fill-rule="nonzero" fill="rgba(30, 83, 151, 1)" stroke="none" class="fill" />
    <path d="M 0.5440000000000005 31  L 39.456 31  L 39.456 33.226  C 39.456 36.734  36.666000000000004 39.58  33.256 39.58  L 31.448 39.58  L 23.29 48  L 23.29 39  L 6.742000000000001 39  C 3.3340000000000014 39.58  0.5440000000000005 36.733999999999995  0.5440000000000005 33.217999999999996  L 0.5440000000000005 31  Z " stroke-width="0" stroke-dasharray="0" stroke="rgba(255, 255, 255, 0)" fill="none" class="stroke" mask="url(#Clip7416)" />
    <path d="M 0.5499999999999998 28  L 0.5499999999999998 21  L 39.196 21  L 39.196 28  L 0.5499999999999998 28  Z " stroke-width="0" stroke-dasharray="0" stroke="rgba(255, 255, 255, 0)" fill="none" class="stroke" mask="url(#Clip7416)" />
    <path d="M 0.5499999999999998 19  L 0.5499999999999998 11  L 39.196 11  L 39.196 19  L 0.5499999999999998 19  Z " stroke-width="0" stroke-dasharray="0" stroke="rgba(255, 255, 255, 0)" fill="none" class="stroke" mask="url(#Clip7416)" />
    <path d="M 6.75 0  L 33.15 0  C 36.512 0  39.196 2.84  39.196 6.356  L 39.196 9  L 0.5499999999999998 9  L 0.5499999999999998 6.356  C 0.5499999999999998 2.844  3.34 0  6.75 0  Z " stroke-width="0" stroke-dasharray="0" stroke="rgba(255, 255, 255, 0)" fill="none" class="stroke" mask="url(#Clip7416)" />
  </g>
</svg>