<?xml version="1.0" encoding="utf-8"?>
<svg version="1.1" xmlns:xlink="http://www.w3.org/1999/xlink" width="30px" height="30px" xmlns="http://www.w3.org/2000/svg">
  <defs>
    <pattern id="BGPattern" patternUnits="userSpaceOnUse" alignment="0 0" imageRepeat="None" />
    <mask fill="white" id="Clip2853">
      <path d="M 0 29.625  L 0 17  L 13 17  L 13 29.625  L 0 29.625  Z M 16.75 13  L 16.75 0.375  L 29 0.375  L 29 13  L 16.75 13  Z " fill-rule="evenodd" />
    </mask>
  </defs>
  <g transform="matrix(1 0 0 1 -5 -4 )">
    <path d="M 0 29.625  L 0 17  L 13 17  L 13 29.625  L 0 29.625  Z M 16.75 13  L 16.75 0.375  L 29 0.375  L 29 13  L 16.75 13  Z " fill-rule="nonzero" fill="rgba(217, 217, 217, 1)" stroke="none" transform="matrix(1 0 0 1 5 4 )" class="fill" />
    <path d="M 0 29.625  L 0 17  L 13 17  L 13 29.625  L 0 29.625  Z " stroke-width="0" stroke-dasharray="0" stroke="rgba(255, 255, 255, 0)" fill="none" transform="matrix(1 0 0 1 5 4 )" class="stroke" mask="url(#Clip2853)" />
    <path d="M 16.75 13  L 16.75 0.375  L 29 0.375  L 29 13  L 16.75 13  Z " stroke-width="0" stroke-dasharray="0" stroke="rgba(255, 255, 255, 0)" fill="none" transform="matrix(1 0 0 1 5 4 )" class="stroke" mask="url(#Clip2853)" />
  </g>
</svg>