<?xml version="1.0" encoding="utf-8"?>
<svg version="1.1" xmlns:xlink="http://www.w3.org/1999/xlink" width="13px" height="14px" xmlns="http://www.w3.org/2000/svg">
  <defs>
    <pattern id="BGPattern" patternUnits="userSpaceOnUse" alignment="0 0" imageRepeat="None" />
    <mask fill="white" id="Clip5962">
      <path d="M 0.75 14  C 0.3357864376269049 14  0 13.664213562373096  0 13.25  C 0 12.835786437626904  0.3357864376269049 12.5  0.75 12.5  L 6 12.5  C 6.414213562373095 12.5  6.750000000000001 12.835786437626904  6.750000000000001 13.25  C 6.750000000000001 13.664213562373096  6.414213562373095 14  6 14  L 0.75 14  Z M 0.75 8  C 0.3357864376269049 8  0 7.664213562373096  0 7.250000000000001  C 0 6.835786437626904  0.3357864376269049 6.5  0.75 6.5  L 12 6.5  C 12.414213562373096 6.5  12.75 6.835786437626904  12.75 7.250000000000001  C 12.75 7.664213562373096  12.414213562373096 8  12 8  L 0.75 8  Z M 0.75 2  C 0.3357864376269049 2  0 1.664213562373095  0 1.25  C 0 0.8357864376269051  0.3357864376269049 0.5  0.75 0.5  L 12 0.5  C 12.414213562373096 0.5  12.75 0.8357864376269051  12.75 1.25  C 12.75 1.664213562373095  12.414213562373096 2  12 2  L 0.75 2  Z " fill-rule="evenodd" />
    </mask>
  </defs>
  <g transform="matrix(1 0 0 1 0 -3 )">
    <path d="M 0.75 14  C 0.3357864376269049 14  0 13.664213562373096  0 13.25  C 0 12.835786437626904  0.3357864376269049 12.5  0.75 12.5  L 6 12.5  C 6.414213562373095 12.5  6.750000000000001 12.835786437626904  6.750000000000001 13.25  C 6.750000000000001 13.664213562373096  6.414213562373095 14  6 14  L 0.75 14  Z M 0.75 8  C 0.3357864376269049 8  0 7.664213562373096  0 7.250000000000001  C 0 6.835786437626904  0.3357864376269049 6.5  0.75 6.5  L 12 6.5  C 12.414213562373096 6.5  12.75 6.835786437626904  12.75 7.250000000000001  C 12.75 7.664213562373096  12.414213562373096 8  12 8  L 0.75 8  Z M 0.75 2  C 0.3357864376269049 2  0 1.664213562373095  0 1.25  C 0 0.8357864376269051  0.3357864376269049 0.5  0.75 0.5  L 12 0.5  C 12.414213562373096 0.5  12.75 0.8357864376269051  12.75 1.25  C 12.75 1.664213562373095  12.414213562373096 2  12 2  L 0.75 2  Z " fill-rule="nonzero" fill="rgba(0, 0, 0, 1)" stroke="none" transform="matrix(1 0 0 1 0 3 )" class="fill" />
    <path d="M 0.75 14  C 0.3357864376269049 14  0 13.664213562373096  0 13.25  C 0 12.835786437626904  0.3357864376269049 12.5  0.75 12.5  L 6 12.5  C 6.414213562373095 12.5  6.750000000000001 12.835786437626904  6.750000000000001 13.25  C 6.750000000000001 13.664213562373096  6.414213562373095 14  6 14  L 0.75 14  Z " stroke-width="0" stroke-dasharray="0" stroke="rgba(255, 255, 255, 0)" fill="none" transform="matrix(1 0 0 1 0 3 )" class="stroke" mask="url(#Clip5962)" />
    <path d="M 0.75 8  C 0.3357864376269049 8  0 7.664213562373096  0 7.250000000000001  C 0 6.835786437626904  0.3357864376269049 6.5  0.75 6.5  L 12 6.5  C 12.414213562373096 6.5  12.75 6.835786437626904  12.75 7.250000000000001  C 12.75 7.664213562373096  12.414213562373096 8  12 8  L 0.75 8  Z " stroke-width="0" stroke-dasharray="0" stroke="rgba(255, 255, 255, 0)" fill="none" transform="matrix(1 0 0 1 0 3 )" class="stroke" mask="url(#Clip5962)" />
    <path d="M 0.75 2  C 0.3357864376269049 2  0 1.664213562373095  0 1.25  C 0 0.8357864376269051  0.3357864376269049 0.5  0.75 0.5  L 12 0.5  C 12.414213562373096 0.5  12.75 0.8357864376269051  12.75 1.25  C 12.75 1.664213562373095  12.414213562373096 2  12 2  L 0.75 2  Z " stroke-width="0" stroke-dasharray="0" stroke="rgba(255, 255, 255, 0)" fill="none" transform="matrix(1 0 0 1 0 3 )" class="stroke" mask="url(#Clip5962)" />
  </g>
</svg>