<?xml version="1.0" encoding="utf-8"?>
<svg version="1.1" xmlns:xlink="http://www.w3.org/1999/xlink" width="50px" height="50px" xmlns="http://www.w3.org/2000/svg">
  <defs>
    <pattern id="BGPattern" patternUnits="userSpaceOnUse" alignment="0 0" imageRepeat="None" />
    <mask fill="white" id="Clip1095">
      <path d="M 50 25  C 50 11.189516129032256  38.810483870967744 0  25 0  C 11.189516129032256 0  0 11.189516129032256  0 25  C 0 38.810483870967744  11.189516129032256 50  25 50  C 38.810483870967744 50  50 38.810483870967744  50 25  Z M 45.16129032258064 25  C 45.16129032258064 36.139112903225794  36.139112903225794 45.16129032258064  25 45.16129032258064  C 13.860887096774208 45.16129032258064  4.838709677419359 36.139112903225794  4.838709677419359 25  C 4.838709677419359 13.860887096774208  13.860887096774208 4.838709677419359  25 4.838709677419359  C 36.139112903225794 4.838709677419359  45.16129032258064 13.860887096774208  45.16129032258064 25  Z M 32.923387096774206 34.375  C 32.53024193548387 34.909274193548384  31.774193548387103 35.03024193548387  31.22983870967741 34.63709677419354  L 22.67137096774195 28.417338709677438  C 22.35887096774195 28.185483870967744  22.17741935483872 27.82258064516128  23 27.439516129032253  L 23 10.887096774193537  C 22.17741935483872 10.221774193548384  22.721774193548384 9.677419354838719  23.387096774193537 9.677419354838719  L 26.612903225806463 9.677419354838719  C 27.278225806451616 9.677419354838719  27.82258064516128 10.221774193548384  27 10.887096774193537  L 27 25.17137096774195  L 34.55645161290323 30.07056451612902  C 35.1008064516129 30.46370967741936  35.2116935483871 31.219758064516128  34.81854838709677 31.764112903225822  L 32.923387096774206 34.375  Z " fill-rule="evenodd" />
    </mask>
  </defs>
  <g>
    <path d="M 50 25  C 50 11.189516129032256  38.810483870967744 0  25 0  C 11.189516129032256 0  0 11.189516129032256  0 25  C 0 38.810483870967744  11.189516129032256 50  25 50  C 38.810483870967744 50  50 38.810483870967744  50 25  Z M 45.16129032258064 25  C 45.16129032258064 36.139112903225794  36.139112903225794 45.16129032258064  25 45.16129032258064  C 13.860887096774208 45.16129032258064  4.838709677419359 36.139112903225794  4.838709677419359 25  C 4.838709677419359 13.860887096774208  13.860887096774208 4.838709677419359  25 4.838709677419359  C 36.139112903225794 4.838709677419359  45.16129032258064 13.860887096774208  45.16129032258064 25  Z M 32.923387096774206 34.375  C 32.53024193548387 34.909274193548384  31.774193548387103 35.03024193548387  31.22983870967741 34.63709677419354  L 22.67137096774195 28.417338709677438  C 22.35887096774195 28.185483870967744  22.17741935483872 27.82258064516128  23 27.439516129032253  L 23 10.887096774193537  C 22.17741935483872 10.221774193548384  22.721774193548384 9.677419354838719  23.387096774193537 9.677419354838719  L 26.612903225806463 9.677419354838719  C 27.278225806451616 9.677419354838719  27.82258064516128 10.221774193548384  27 10.887096774193537  L 27 25.17137096774195  L 34.55645161290323 30.07056451612902  C 35.1008064516129 30.46370967741936  35.2116935483871 31.219758064516128  34.81854838709677 31.764112903225822  L 32.923387096774206 34.375  Z " fill-rule="nonzero" fill="rgba(0, 0, 0, 1)" stroke="none" class="fill" />
    <path d="M 50 25  C 50 11.189516129032256  38.810483870967744 0  25 0  C 11.189516129032256 0  0 11.189516129032256  0 25  C 0 38.810483870967744  11.189516129032256 50  25 50  C 38.810483870967744 50  50 38.810483870967744  50 25  Z " stroke-width="0" stroke-dasharray="0" stroke="rgba(255, 255, 255, 0)" fill="none" class="stroke" mask="url(#Clip1095)" />
    <path d="M 45.16129032258064 25  C 45.16129032258064 36.139112903225794  36.139112903225794 45.16129032258064  25 45.16129032258064  C 13.860887096774208 45.16129032258064  4.838709677419359 36.139112903225794  4.838709677419359 25  C 4.838709677419359 13.860887096774208  13.860887096774208 4.838709677419359  25 4.838709677419359  C 36.139112903225794 4.838709677419359  45.16129032258064 13.860887096774208  45.16129032258064 25  Z " stroke-width="0" stroke-dasharray="0" stroke="rgba(255, 255, 255, 0)" fill="none" class="stroke" mask="url(#Clip1095)" />
    <path d="M 32.923387096774206 34.375  C 32.53024193548387 34.909274193548384  31.774193548387103 35.03024193548387  31.22983870967741 34.63709677419354  L 22.67137096774195 28.417338709677438  C 22.35887096774195 28.185483870967744  22.17741935483872 27.82258064516128  23 27.439516129032253  L 23 10.887096774193537  C 22.17741935483872 10.221774193548384  22.721774193548384 9.677419354838719  23.387096774193537 9.677419354838719  L 26.612903225806463 9.677419354838719  C 27.278225806451616 9.677419354838719  27.82258064516128 10.221774193548384  27 10.887096774193537  L 27 25.17137096774195  L 34.55645161290323 30.07056451612902  C 35.1008064516129 30.46370967741936  35.2116935483871 31.219758064516128  34.81854838709677 31.764112903225822  L 32.923387096774206 34.375  Z " stroke-width="0" stroke-dasharray="0" stroke="rgba(255, 255, 255, 0)" fill="none" class="stroke" mask="url(#Clip1095)" />
  </g>
</svg>