<?xml version="1.0" encoding="utf-8"?>
<svg version="1.1" xmlns:xlink="http://www.w3.org/1999/xlink" width="30px" height="29px" xmlns="http://www.w3.org/2000/svg">
  <defs>
    <pattern id="BGPattern" patternUnits="userSpaceOnUse" alignment="0 0" imageRepeat="None" />
    <mask fill="white" id="Clip4132">
      <path d="M 29.000010104453693 4.000249999999999  C 29.000010104453693 2.9393404927243987  28.578443437085006 1.921909139311793  27.8281 1.1719  C 26.245719221693065 -0.3398042575584792  23.75428077830693 -0.33980425755847743  22.1719 1.1719  L 3.05 20.292  C 1.733130152443282 21.60175648900772  0.9949535913532658 23.383894750542698  1 25.2412  L 1 28  L 3.7558999999999996 28  C 5.613513188880186 28.005416536931357  7.396036940698627 27.267199629612605  8.7059 25.95  L 27.8281 6.8286  C 28.578443437085006 6.0785908606882035  29.000010104453693 5.061159507275602  29.000010104453693 4.000249999999999  Z M 7.788600000000001 18.3818  L 9.91 16.26  L 12.7386 19.0886  L 10.6172 21.21  L 7.788600000000001 18.3818  Z M 9.203 22.6242  L 7.291499999999999 24.5356  C 6.355894084603548 25.47641658389073  5.082730905978989 26.003744380807184  3.7558999999999996 26  L 3 26  L 3 25.241200000000003  C 2.99645623390267 23.914555501643406  3.523763520463655 22.641621884652327  4.4643999999999995 21.7061  L 6.3744 19.7961  L 9.203 22.6242  Z M 26.4141 5.4141  L 14.1528 17.6748  L 11.3242 14.846200000000001  L 23.5859 2.5862000000000034  C 24.377154719747267 1.830411833078339  25.62284528025273 1.8304118330783405  26.414099999999998 2.5862000000000034  C 26.789225822339045 2.961198484145509  26.9999800227784 3.4698820085093542  26.9999800227784 4.000300000000003  C 26.9999800227784 4.530717991490652  26.78922582233905 5.039401515854497  26.414099999999998 5.414400000000003  Z " fill-rule="evenodd" />
    </mask>
  </defs>
  <g transform="matrix(1 0 0 1 -1 -2 )">
    <path d="M 29.000010104453693 4.000249999999999  C 29.000010104453693 2.9393404927243987  28.578443437085006 1.921909139311793  27.8281 1.1719  C 26.245719221693065 -0.3398042575584792  23.75428077830693 -0.33980425755847743  22.1719 1.1719  L 3.05 20.292  C 1.733130152443282 21.60175648900772  0.9949535913532658 23.383894750542698  1 25.2412  L 1 28  L 3.7558999999999996 28  C 5.613513188880186 28.005416536931357  7.396036940698627 27.267199629612605  8.7059 25.95  L 27.8281 6.8286  C 28.578443437085006 6.0785908606882035  29.000010104453693 5.061159507275602  29.000010104453693 4.000249999999999  Z M 7.788600000000001 18.3818  L 9.91 16.26  L 12.7386 19.0886  L 10.6172 21.21  L 7.788600000000001 18.3818  Z M 9.203 22.6242  L 7.291499999999999 24.5356  C 6.355894084603548 25.47641658389073  5.082730905978989 26.003744380807184  3.7558999999999996 26  L 3 26  L 3 25.241200000000003  C 2.99645623390267 23.914555501643406  3.523763520463655 22.641621884652327  4.4643999999999995 21.7061  L 6.3744 19.7961  L 9.203 22.6242  Z M 26.4141 5.4141  L 14.1528 17.6748  L 11.3242 14.846200000000001  L 23.5859 2.5862000000000034  C 24.377154719747267 1.830411833078339  25.62284528025273 1.8304118330783405  26.414099999999998 2.5862000000000034  C 26.789225822339045 2.961198484145509  26.9999800227784 3.4698820085093542  26.9999800227784 4.000300000000003  C 26.9999800227784 4.530717991490652  26.78922582233905 5.039401515854497  26.414099999999998 5.414400000000003  Z " fill-rule="nonzero" fill="rgba(0, 0, 0, 1)" stroke="none" transform="matrix(1 0 0 1 1 2 )" class="fill" />
    <path d="M 29.000010104453693 4.000249999999999  C 29.000010104453693 2.9393404927243987  28.578443437085006 1.921909139311793  27.8281 1.1719  C 26.245719221693065 -0.3398042575584792  23.75428077830693 -0.33980425755847743  22.1719 1.1719  L 3.05 20.292  C 1.733130152443282 21.60175648900772  0.9949535913532658 23.383894750542698  1 25.2412  L 1 28  L 3.7558999999999996 28  C 5.613513188880186 28.005416536931357  7.396036940698627 27.267199629612605  8.7059 25.95  L 27.8281 6.8286  C 28.578443437085006 6.0785908606882035  29.000010104453693 5.061159507275602  29.000010104453693 4.000249999999999  Z " stroke-width="0" stroke-dasharray="0" stroke="rgba(255, 255, 255, 0)" fill="none" transform="matrix(1 0 0 1 1 2 )" class="stroke" mask="url(#Clip4132)" />
    <path d="M 7.788600000000001 18.3818  L 9.91 16.26  L 12.7386 19.0886  L 10.6172 21.21  L 7.788600000000001 18.3818  Z " stroke-width="0" stroke-dasharray="0" stroke="rgba(255, 255, 255, 0)" fill="none" transform="matrix(1 0 0 1 1 2 )" class="stroke" mask="url(#Clip4132)" />
    <path d="M 9.203 22.6242  L 7.291499999999999 24.5356  C 6.355894084603548 25.47641658389073  5.082730905978989 26.003744380807184  3.7558999999999996 26  L 3 26  L 3 25.241200000000003  C 2.99645623390267 23.914555501643406  3.523763520463655 22.641621884652327  4.4643999999999995 21.7061  L 6.3744 19.7961  L 9.203 22.6242  Z " stroke-width="0" stroke-dasharray="0" stroke="rgba(255, 255, 255, 0)" fill="none" transform="matrix(1 0 0 1 1 2 )" class="stroke" mask="url(#Clip4132)" />
    <path d="M 26.4141 5.4141  L 14.1528 17.6748  L 11.3242 14.846200000000001  L 23.5859 2.5862000000000034  C 24.377154719747267 1.830411833078339  25.62284528025273 1.8304118330783405  26.414099999999998 2.5862000000000034  C 26.789225822339045 2.961198484145509  26.9999800227784 3.4698820085093542  26.9999800227784 4.000300000000003  C 26.9999800227784 4.530717991490652  26.78922582233905 5.039401515854497  26.414099999999998 5.414400000000003  Z " stroke-width="0" stroke-dasharray="0" stroke="rgba(255, 255, 255, 0)" fill="none" transform="matrix(1 0 0 1 1 2 )" class="stroke" mask="url(#Clip4132)" />
  </g>
</svg>