<?xml version="1.0" encoding="utf-8"?>
<svg version="1.1" xmlns:xlink="http://www.w3.org/1999/xlink" width="6px" height="7px" xmlns="http://www.w3.org/2000/svg">
  <defs>
    <pattern id="BGPattern" patternUnits="userSpaceOnUse" alignment="0 0" imageRepeat="None" />
    <mask fill="white" id="Clip5364">
      <path d="M 6 3.5  C 6 5.15685424949238  4.65685424949238 6.5  3 6.5  C 1.3431457505076203 6.5  0 5.15685424949238  0 3.5  C 0 1.8431457505076203  1.3431457505076203 0.5  3 0.5  C 4.65685424949238 0.5  6 1.8431457505076203  6 3.5  Z " fill-rule="evenodd" />
    </mask>
  </defs>
  <g transform="matrix(1 0 0 1 -9 -13 )">
    <path d="M 6 3.5  C 6 5.15685424949238  4.65685424949238 6.5  3 6.5  C 1.3431457505076203 6.5  0 5.15685424949238  0 3.5  C 0 1.8431457505076203  1.3431457505076203 0.5  3 0.5  C 4.65685424949238 0.5  6 1.8431457505076203  6 3.5  Z " fill-rule="nonzero" fill="rgba(0, 0, 0, 1)" stroke="none" transform="matrix(1 0 0 1 9 13 )" class="fill" />
    <path d="M 6 3.5  C 6 5.15685424949238  4.65685424949238 6.5  3 6.5  C 1.3431457505076203 6.5  0 5.15685424949238  0 3.5  C 0 1.8431457505076203  1.3431457505076203 0.5  3 0.5  C 4.65685424949238 0.5  6 1.8431457505076203  6 3.5  Z " stroke-width="0" stroke-dasharray="0" stroke="rgba(255, 255, 255, 0)" fill="none" transform="matrix(1 0 0 1 9 13 )" class="stroke" mask="url(#Clip5364)" />
  </g>
</svg>