<?xml version="1.0" encoding="utf-8"?>
<svg version="1.1" xmlns:xlink="http://www.w3.org/1999/xlink" width="38px" height="49px" xmlns="http://www.w3.org/2000/svg">
  <defs>
    <pattern id="BGPattern" patternUnits="userSpaceOnUse" alignment="0 0" imageRepeat="None" />
    <mask fill="white" id="Clip3112">
      <path d="M 19 0.8187499999999996  L 1 7.168749999999999  L 1 33.89375  L 19 48.40625  L 37 33.89375  L 37 7.168749999999999  L 19 0.8187499999999996  Z M 25.737499999999997 13.912499999999996  C 25.924999999999994 13.656249999999996  26.231249999999992 13.499999999999996  26.549999999999997 13.499999999999998  L 30 13.499999999999998  C 30.40625 13.499999999999998  30.643749999999997 13.962499999999997  30.40625 14.29375  L 17.11875 32.5875  C 16.929285373135315 32.8468248586124  16.627413863358438 33.00013159352998  16.306250000000002 33.00013159352998  C 15.98508613664156 33.00013159352998  15.683214626864682 32.8468248586124  15.493749999999999 32.5875  L 7.59375 21.7125  C 7.356249999999999 21.381249999999998  7.59375 20.91875  8 20.91875  L 11.45 20.91875  C 11.774999999999997 20.91875  12.075 21.075  12.2625 21.33125  L 16.30625 26.899999999999995  L 25.737499999999997 13.912499999999996  Z " fill-rule="evenodd" />
    </mask>
  </defs>
  <g transform="matrix(1 0 0 1 -5 -4 )">
    <path d="M 19 0.8187499999999996  L 1 7.168749999999999  L 1 33.89375  L 19 48.40625  L 37 33.89375  L 37 7.168749999999999  L 19 0.8187499999999996  Z M 25.737499999999997 13.912499999999996  C 25.924999999999994 13.656249999999996  26.231249999999992 13.499999999999996  26.549999999999997 13.499999999999998  L 30 13.499999999999998  C 30.40625 13.499999999999998  30.643749999999997 13.962499999999997  30.40625 14.29375  L 17.11875 32.5875  C 16.929285373135315 32.8468248586124  16.627413863358438 33.00013159352998  16.306250000000002 33.00013159352998  C 15.98508613664156 33.00013159352998  15.683214626864682 32.8468248586124  15.493749999999999 32.5875  L 7.59375 21.7125  C 7.356249999999999 21.381249999999998  7.59375 20.91875  8 20.91875  L 11.45 20.91875  C 11.774999999999997 20.91875  12.075 21.075  12.2625 21.33125  L 16.30625 26.899999999999995  L 25.737499999999997 13.912499999999996  Z " fill-rule="nonzero" fill="rgba(230, 230, 230, 1)" stroke="none" transform="matrix(1 0 0 1 5 4 )" class="fill" />
    <path d="M 19 0.8187499999999996  L 1 7.168749999999999  L 1 33.89375  L 19 48.40625  L 37 33.89375  L 37 7.168749999999999  L 19 0.8187499999999996  Z " stroke-width="0" stroke-dasharray="0" stroke="rgba(255, 255, 255, 0)" fill="none" transform="matrix(1 0 0 1 5 4 )" class="stroke" mask="url(#Clip3112)" />
    <path d="M 25.737499999999997 13.912499999999996  C 25.924999999999994 13.656249999999996  26.231249999999992 13.499999999999996  26.549999999999997 13.499999999999998  L 30 13.499999999999998  C 30.40625 13.499999999999998  30.643749999999997 13.962499999999997  30.40625 14.29375  L 17.11875 32.5875  C 16.929285373135315 32.8468248586124  16.627413863358438 33.00013159352998  16.306250000000002 33.00013159352998  C 15.98508613664156 33.00013159352998  15.683214626864682 32.8468248586124  15.493749999999999 32.5875  L 7.59375 21.7125  C 7.356249999999999 21.381249999999998  7.59375 20.91875  8 20.91875  L 11.45 20.91875  C 11.774999999999997 20.91875  12.075 21.075  12.2625 21.33125  L 16.30625 26.899999999999995  L 25.737499999999997 13.912499999999996  Z " stroke-width="0" stroke-dasharray="0" stroke="rgba(255, 255, 255, 0)" fill="none" transform="matrix(1 0 0 1 5 4 )" class="stroke" mask="url(#Clip3112)" />
  </g>
</svg>