<?xml version="1.0" encoding="utf-8"?>
<svg version="1.1" xmlns:xlink="http://www.w3.org/1999/xlink" width="6px" height="6px" xmlns="http://www.w3.org/2000/svg">
  <defs>
    <pattern id="BGPattern" patternUnits="userSpaceOnUse" alignment="0 0" imageRepeat="None" />
    <mask fill="white" id="Clip3261">
      <path d="M 6 0  L 1 0  L 1 1  L 4.300000000000001 1  L 0 5.3  L 0.6999999999999993 6  L 5 1.7000000000000002  L 5 5  L 6 5  L 6 0  Z " fill-rule="evenodd" />
    </mask>
  </defs>
  <g transform="matrix(1 0 0 1 -9 -1 )">
    <path d="M 6 0  L 1 0  L 1 1  L 4.300000000000001 1  L 0 5.3  L 0.6999999999999993 6  L 5 1.7000000000000002  L 5 5  L 6 5  L 6 0  Z " fill-rule="nonzero" fill="rgba(0, 0, 0, 1)" stroke="none" transform="matrix(1 0 0 1 9 1 )" class="fill" />
    <path d="M 6 0  L 1 0  L 1 1  L 4.300000000000001 1  L 0 5.3  L 0.6999999999999993 6  L 5 1.7000000000000002  L 5 5  L 6 5  L 6 0  Z " stroke-width="0" stroke-dasharray="0" stroke="rgba(255, 255, 255, 0)" fill="none" transform="matrix(1 0 0 1 9 1 )" class="stroke" mask="url(#Clip3261)" />
  </g>
</svg>