<?xml version="1.0" encoding="utf-8"?>
<svg version="1.1" xmlns:xlink="http://www.w3.org/1999/xlink" width="50px" height="50px" xmlns="http://www.w3.org/2000/svg">
  <defs>
    <pattern id="BGPattern" patternUnits="userSpaceOnUse" alignment="0 0" imageRepeat="None" />
    <mask fill="white" id="Clip1104">
      <path d="M 50 25  C 50 11.192842741935493  38.80715725806451 0  25 0  C 11.192842741935493 0  0 11.192842741935493  0 25  C 0 38.80715725806451  11.192842741935493 50  25 50  C 38.80715725806451 50  50 38.80715725806451  50 25  Z M 45.16129032258064 25  C 45.16129032258064 36.142338709677404  36.144052419354836 45.16129032258064  25 45.16129032258064  C 13.857661290322595 45.16129032258064  4.838709677419359 36.144052419354836  4.838709677419359 25  C 4.838709677419359 13.857762096774195  13.855947580645164 4.838709677419359  25 4.838709677419359  C 36.142338709677404 4.838709677419359  45.16129032258064 13.855947580645164  45.16129032258064 25  Z M 35.93780241935485 33.40907258064516  C 36.29053409931237 33.88769104017115  36.241210856600105 34.55209909608175  35.82167338709678 34.97338709677419  C 34.85252016129033 35.952419354838696  31.231955645161293 39.146370967741944  25.33125000000001 39.146370967741944  C 17.021774193548396 39.146370967741944  11.169556451612891 32.954334677419354  11.169556451612891 24.87550403225808  C 11.169556451612891 16.896471774193543  17.245665322580635 10.822983870967732  25.258467741935476 10.822983870967732  C 30.856350806451616 10.822983870967732  34.203830645161304 13.50645161290322  35.09647177419353 14.328931451612902  C 35.52957174523698 14.72725412283097  35.612043408171814 15.379955992400824  35.291633064516134 15.873487903225822  L 33.46149193548388 18.707459677419365  C 33.07429435483871 19.307258064516134  32.255241935483866 19.441532258064512  31.69747983870968 19.001915322580658  C 30.83104838709676 18.31885080645162  28.49042338709677 16.729939516129036  25.476915322580652 16.729939516129036  C 20.607661290322568 16.729939516129036  17.622479838709666 20.291431451612908  17.622479838709666 24.802721774193543  C 17.622479838709666 28.995161290322585  20.332963709677415 33.23941532258064  25.513306451612895 33.23941532258064  C 28.805342741935476 33.23941532258064  31.24344758064515 31.320161290322574  32.138911290322596 30.49495967741936  C 32.67016129032257 30.005342741935493  33.509475806451604 30.08780241935483  33.93528225806452 30.670161290322568  L 35.93780241935485 33.40907258064516  Z " fill-rule="evenodd" />
    </mask>
  </defs>
  <g>
    <path d="M 50 25  C 50 11.192842741935493  38.80715725806451 0  25 0  C 11.192842741935493 0  0 11.192842741935493  0 25  C 0 38.80715725806451  11.192842741935493 50  25 50  C 38.80715725806451 50  50 38.80715725806451  50 25  Z M 45.16129032258064 25  C 45.16129032258064 36.142338709677404  36.144052419354836 45.16129032258064  25 45.16129032258064  C 13.857661290322595 45.16129032258064  4.838709677419359 36.144052419354836  4.838709677419359 25  C 4.838709677419359 13.857762096774195  13.855947580645164 4.838709677419359  25 4.838709677419359  C 36.142338709677404 4.838709677419359  45.16129032258064 13.855947580645164  45.16129032258064 25  Z M 35.93780241935485 33.40907258064516  C 36.29053409931237 33.88769104017115  36.241210856600105 34.55209909608175  35.82167338709678 34.97338709677419  C 34.85252016129033 35.952419354838696  31.231955645161293 39.146370967741944  25.33125000000001 39.146370967741944  C 17.021774193548396 39.146370967741944  11.169556451612891 32.954334677419354  11.169556451612891 24.87550403225808  C 11.169556451612891 16.896471774193543  17.245665322580635 10.822983870967732  25.258467741935476 10.822983870967732  C 30.856350806451616 10.822983870967732  34.203830645161304 13.50645161290322  35.09647177419353 14.328931451612902  C 35.52957174523698 14.72725412283097  35.612043408171814 15.379955992400824  35.291633064516134 15.873487903225822  L 33.46149193548388 18.707459677419365  C 33.07429435483871 19.307258064516134  32.255241935483866 19.441532258064512  31.69747983870968 19.001915322580658  C 30.83104838709676 18.31885080645162  28.49042338709677 16.729939516129036  25.476915322580652 16.729939516129036  C 20.607661290322568 16.729939516129036  17.622479838709666 20.291431451612908  17.622479838709666 24.802721774193543  C 17.622479838709666 28.995161290322585  20.332963709677415 33.23941532258064  25.513306451612895 33.23941532258064  C 28.805342741935476 33.23941532258064  31.24344758064515 31.320161290322574  32.138911290322596 30.49495967741936  C 32.67016129032257 30.005342741935493  33.509475806451604 30.08780241935483  33.93528225806452 30.670161290322568  L 35.93780241935485 33.40907258064516  Z " fill-rule="nonzero" fill="rgba(0, 0, 0, 1)" stroke="none" class="fill" />
    <path d="M 50 25  C 50 11.192842741935493  38.80715725806451 0  25 0  C 11.192842741935493 0  0 11.192842741935493  0 25  C 0 38.80715725806451  11.192842741935493 50  25 50  C 38.80715725806451 50  50 38.80715725806451  50 25  Z " stroke-width="0" stroke-dasharray="0" stroke="rgba(255, 255, 255, 0)" fill="none" class="stroke" mask="url(#Clip1104)" />
    <path d="M 45.16129032258064 25  C 45.16129032258064 36.142338709677404  36.144052419354836 45.16129032258064  25 45.16129032258064  C 13.857661290322595 45.16129032258064  4.838709677419359 36.144052419354836  4.838709677419359 25  C 4.838709677419359 13.857762096774195  13.855947580645164 4.838709677419359  25 4.838709677419359  C 36.142338709677404 4.838709677419359  45.16129032258064 13.855947580645164  45.16129032258064 25  Z " stroke-width="0" stroke-dasharray="0" stroke="rgba(255, 255, 255, 0)" fill="none" class="stroke" mask="url(#Clip1104)" />
    <path d="M 35.93780241935485 33.40907258064516  C 36.29053409931237 33.88769104017115  36.241210856600105 34.55209909608175  35.82167338709678 34.97338709677419  C 34.85252016129033 35.952419354838696  31.231955645161293 39.146370967741944  25.33125000000001 39.146370967741944  C 17.021774193548396 39.146370967741944  11.169556451612891 32.954334677419354  11.169556451612891 24.87550403225808  C 11.169556451612891 16.896471774193543  17.245665322580635 10.822983870967732  25.258467741935476 10.822983870967732  C 30.856350806451616 10.822983870967732  34.203830645161304 13.50645161290322  35.09647177419353 14.328931451612902  C 35.52957174523698 14.72725412283097  35.612043408171814 15.379955992400824  35.291633064516134 15.873487903225822  L 33.46149193548388 18.707459677419365  C 33.07429435483871 19.307258064516134  32.255241935483866 19.441532258064512  31.69747983870968 19.001915322580658  C 30.83104838709676 18.31885080645162  28.49042338709677 16.729939516129036  25.476915322580652 16.729939516129036  C 20.607661290322568 16.729939516129036  17.622479838709666 20.291431451612908  17.622479838709666 24.802721774193543  C 17.622479838709666 28.995161290322585  20.332963709677415 33.23941532258064  25.513306451612895 33.23941532258064  C 28.805342741935476 33.23941532258064  31.24344758064515 31.320161290322574  32.138911290322596 30.49495967741936  C 32.67016129032257 30.005342741935493  33.509475806451604 30.08780241935483  33.93528225806452 30.670161290322568  L 35.93780241935485 33.40907258064516  Z " stroke-width="0" stroke-dasharray="0" stroke="rgba(255, 255, 255, 0)" fill="none" class="stroke" mask="url(#Clip1104)" />
  </g>
</svg>