<?xml version="1.0" encoding="utf-8"?>
<svg version="1.1" xmlns:xlink="http://www.w3.org/1999/xlink" width="12px" height="12px" xmlns="http://www.w3.org/2000/svg">
  <defs>
    <pattern id="BGPattern" patternUnits="userSpaceOnUse" alignment="0 0" imageRepeat="None" />
    <mask fill="white" id="Clip4456">
      <path d="M 12 6  C 12 2.686291501015237  9.31370849898476 0  6 0  C 2.686291501015237 0  0 2.686291501015237  0 6  C 0 9.31370849898476  2.686291501015237 12  6 12  C 9.31370849898476 12  12 9.31370849898476  12 6  Z M 10 6  C 10 8.209138999323173  8.209138999323173 10  6 10  C 3.790861000676827 10  2 8.209138999323173  2 6  C 2 3.790861000676827  3.790861000676827 2  6 2  C 8.209138999323173 2  10 3.790861000676827  10 6  Z " fill-rule="evenodd" />
    </mask>
  </defs>
  <g transform="matrix(1 0 0 1 -10 -10 )">
    <path d="M 12 6  C 12 2.686291501015237  9.31370849898476 0  6 0  C 2.686291501015237 0  0 2.686291501015237  0 6  C 0 9.31370849898476  2.686291501015237 12  6 12  C 9.31370849898476 12  12 9.31370849898476  12 6  Z M 10 6  C 10 8.209138999323173  8.209138999323173 10  6 10  C 3.790861000676827 10  2 8.209138999323173  2 6  C 2 3.790861000676827  3.790861000676827 2  6 2  C 8.209138999323173 2  10 3.790861000676827  10 6  Z " fill-rule="nonzero" fill="rgba(0, 0, 0, 1)" stroke="none" transform="matrix(1 0 0 1 10 10 )" class="fill" />
    <path d="M 12 6  C 12 2.686291501015237  9.31370849898476 0  6 0  C 2.686291501015237 0  0 2.686291501015237  0 6  C 0 9.31370849898476  2.686291501015237 12  6 12  C 9.31370849898476 12  12 9.31370849898476  12 6  Z " stroke-width="0" stroke-dasharray="0" stroke="rgba(255, 255, 255, 0)" fill="none" transform="matrix(1 0 0 1 10 10 )" class="stroke" mask="url(#Clip4456)" />
    <path d="M 10 6  C 10 8.209138999323173  8.209138999323173 10  6 10  C 3.790861000676827 10  2 8.209138999323173  2 6  C 2 3.790861000676827  3.790861000676827 2  6 2  C 8.209138999323173 2  10 3.790861000676827  10 6  Z " stroke-width="0" stroke-dasharray="0" stroke="rgba(255, 255, 255, 0)" fill="none" transform="matrix(1 0 0 1 10 10 )" class="stroke" mask="url(#Clip4456)" />
  </g>
</svg>