<?xml version="1.0" encoding="utf-8"?>
<svg version="1.1" xmlns:xlink="http://www.w3.org/1999/xlink" width="50px" height="50px" xmlns="http://www.w3.org/2000/svg">
  <defs>
    <pattern id="BGPattern" patternUnits="userSpaceOnUse" alignment="0 0" imageRepeat="None" />
    <mask fill="white" id="Clip1174">
      <path d="M 48.942996108949416 12.251264591439678  C 50.58910505836576 9.425389105058372  49.82821011673151 5.545914396887156  47.09260700389105 2.8102140077820934  C 44.356906614785984 0.0746108949416282  40.47743190661478 -0.6864785992218003  37.651653696498045 0.9596303501945442  C 33.8136186770428 3.1953307392996066  21.741634241245137 -3.901848249027239  8.871206225680936 8.968579766536976  C -4.015272373540853 21.85525291828793  3.1053501945525284 33.898054474708175  0.8624513618676986 37.74883268482489  C -0.7836575875486317 40.57480544747082  -0.022762645914397694 44.45428015564204  2.7128404669260675 47.189883268482475  C 5.449708171206225 49.92675097276265  9.32869649805447 50.68579766536965  12.15418287937743 49.04017509727626  C 15.989105058365752 46.80573929961088  28.064396887159514 53.900972762645914  40.93414396887158 41.03151750972762  C 53.82071984435797 28.144649805447468  46.69999999999999 16.101848249027228  48.942996108949416 12.251264591439678  Z M 40.00184824902723 4.989494163424126  C 42.21293774319065 3.7015564202334588  46.22801556420234 7.64396887159532  44.913132295719834 9.901070038910518  C 41.13881322957198 16.38054474708173  49.34892996108948 26.01342412451362  37.63249027237353 37.72986381322957  C 25.916536964980537 49.44610894941633  16.282782101167314 41.23647859922178  9.804085603112838 45.01031128404668  C 7.5979571984435665 46.29503891050584  3.5749999999999886 42.36040856031127  4.892315175097266 40.09902723735408  C 8.666634241245134 33.6195525291829  0.4565175097276181 23.986673151750978  12.17295719844357 12.270233463035026  C 23.88842412451362 0.5546692607003934  33.52295719844358 8.763229571984425  40.00184824902723 4.989494163424126  Z M 26.21789883268482 9.061770428015564  C 27.28336575875485 8.928696498054478  28.256420233463032 9.684630350194539  28.389688715953298 10.750875486381318  C 28.522957198443578 11.8170233463035  27.766731517509726 12.789494163424136  26.700486381322946 12.922762645914391  C 21.365272373540847 13.589591439688716  13.49241245136187 21.462354085603124  12.825486381322959 26.797762645914393  C 12.691926070038903 27.86673151750972  11.716634241245131 28.620136186770424  10.653696498054472 28.486964980544744  C 9.587451361867707 28.353696498054486  8.831225680933855 27.38132295719845  8.96449416342412 26.315175097276267  C 9.855739299610889 19.18618677042801  19.097470817120623 9.95184824902725  26.21789883268482 9.061770428015564  Z " fill-rule="evenodd" />
    </mask>
  </defs>
  <g>
    <path d="M 48.942996108949416 12.251264591439678  C 50.58910505836576 9.425389105058372  49.82821011673151 5.545914396887156  47.09260700389105 2.8102140077820934  C 44.356906614785984 0.0746108949416282  40.47743190661478 -0.6864785992218003  37.651653696498045 0.9596303501945442  C 33.8136186770428 3.1953307392996066  21.741634241245137 -3.901848249027239  8.871206225680936 8.968579766536976  C -4.015272373540853 21.85525291828793  3.1053501945525284 33.898054474708175  0.8624513618676986 37.74883268482489  C -0.7836575875486317 40.57480544747082  -0.022762645914397694 44.45428015564204  2.7128404669260675 47.189883268482475  C 5.449708171206225 49.92675097276265  9.32869649805447 50.68579766536965  12.15418287937743 49.04017509727626  C 15.989105058365752 46.80573929961088  28.064396887159514 53.900972762645914  40.93414396887158 41.03151750972762  C 53.82071984435797 28.144649805447468  46.69999999999999 16.101848249027228  48.942996108949416 12.251264591439678  Z M 40.00184824902723 4.989494163424126  C 42.21293774319065 3.7015564202334588  46.22801556420234 7.64396887159532  44.913132295719834 9.901070038910518  C 41.13881322957198 16.38054474708173  49.34892996108948 26.01342412451362  37.63249027237353 37.72986381322957  C 25.916536964980537 49.44610894941633  16.282782101167314 41.23647859922178  9.804085603112838 45.01031128404668  C 7.5979571984435665 46.29503891050584  3.5749999999999886 42.36040856031127  4.892315175097266 40.09902723735408  C 8.666634241245134 33.6195525291829  0.4565175097276181 23.986673151750978  12.17295719844357 12.270233463035026  C 23.88842412451362 0.5546692607003934  33.52295719844358 8.763229571984425  40.00184824902723 4.989494163424126  Z M 26.21789883268482 9.061770428015564  C 27.28336575875485 8.928696498054478  28.256420233463032 9.684630350194539  28.389688715953298 10.750875486381318  C 28.522957198443578 11.8170233463035  27.766731517509726 12.789494163424136  26.700486381322946 12.922762645914391  C 21.365272373540847 13.589591439688716  13.49241245136187 21.462354085603124  12.825486381322959 26.797762645914393  C 12.691926070038903 27.86673151750972  11.716634241245131 28.620136186770424  10.653696498054472 28.486964980544744  C 9.587451361867707 28.353696498054486  8.831225680933855 27.38132295719845  8.96449416342412 26.315175097276267  C 9.855739299610889 19.18618677042801  19.097470817120623 9.95184824902725  26.21789883268482 9.061770428015564  Z " fill-rule="nonzero" fill="rgba(0, 0, 0, 1)" stroke="none" class="fill" />
    <path d="M 48.942996108949416 12.251264591439678  C 50.58910505836576 9.425389105058372  49.82821011673151 5.545914396887156  47.09260700389105 2.8102140077820934  C 44.356906614785984 0.0746108949416282  40.47743190661478 -0.6864785992218003  37.651653696498045 0.9596303501945442  C 33.8136186770428 3.1953307392996066  21.741634241245137 -3.901848249027239  8.871206225680936 8.968579766536976  C -4.015272373540853 21.85525291828793  3.1053501945525284 33.898054474708175  0.8624513618676986 37.74883268482489  C -0.7836575875486317 40.57480544747082  -0.022762645914397694 44.45428015564204  2.7128404669260675 47.189883268482475  C 5.449708171206225 49.92675097276265  9.32869649805447 50.68579766536965  12.15418287937743 49.04017509727626  C 15.989105058365752 46.80573929961088  28.064396887159514 53.900972762645914  40.93414396887158 41.03151750972762  C 53.82071984435797 28.144649805447468  46.69999999999999 16.101848249027228  48.942996108949416 12.251264591439678  Z " stroke-width="0" stroke-dasharray="0" stroke="rgba(255, 255, 255, 0)" fill="none" class="stroke" mask="url(#Clip1174)" />
    <path d="M 40.00184824902723 4.989494163424126  C 42.21293774319065 3.7015564202334588  46.22801556420234 7.64396887159532  44.913132295719834 9.901070038910518  C 41.13881322957198 16.38054474708173  49.34892996108948 26.01342412451362  37.63249027237353 37.72986381322957  C 25.916536964980537 49.44610894941633  16.282782101167314 41.23647859922178  9.804085603112838 45.01031128404668  C 7.5979571984435665 46.29503891050584  3.5749999999999886 42.36040856031127  4.892315175097266 40.09902723735408  C 8.666634241245134 33.6195525291829  0.4565175097276181 23.986673151750978  12.17295719844357 12.270233463035026  C 23.88842412451362 0.5546692607003934  33.52295719844358 8.763229571984425  40.00184824902723 4.989494163424126  Z " stroke-width="0" stroke-dasharray="0" stroke="rgba(255, 255, 255, 0)" fill="none" class="stroke" mask="url(#Clip1174)" />
    <path d="M 26.21789883268482 9.061770428015564  C 27.28336575875485 8.928696498054478  28.256420233463032 9.684630350194539  28.389688715953298 10.750875486381318  C 28.522957198443578 11.8170233463035  27.766731517509726 12.789494163424136  26.700486381322946 12.922762645914391  C 21.365272373540847 13.589591439688716  13.49241245136187 21.462354085603124  12.825486381322959 26.797762645914393  C 12.691926070038903 27.86673151750972  11.716634241245131 28.620136186770424  10.653696498054472 28.486964980544744  C 9.587451361867707 28.353696498054486  8.831225680933855 27.38132295719845  8.96449416342412 26.315175097276267  C 9.855739299610889 19.18618677042801  19.097470817120623 9.95184824902725  26.21789883268482 9.061770428015564  Z " stroke-width="0" stroke-dasharray="0" stroke="rgba(255, 255, 255, 0)" fill="none" class="stroke" mask="url(#Clip1174)" />
  </g>
</svg>