<?xml version="1.0" encoding="utf-8"?>
<svg version="1.1" xmlns:xlink="http://www.w3.org/1999/xlink" width="24px" height="24px" xmlns="http://www.w3.org/2000/svg">
  <defs>
    <pattern id="BGPattern" patternUnits="userSpaceOnUse" alignment="0 0" imageRepeat="None" />
    <mask fill="white" id="Clip4923">
      <path d="M 0 5.25  L 0 0.75  C 0 0.3357864376269049  0.3357864376269049 0  0.75 0  L 23.25 0  C 23.664213562373096 0  24 0.3357864376269049  24 0.75  L 24 5.25  C 24 5.664213562373095  23.664213562373096 6  23.25 6  L 21 6  L 21 9  L 23.25 9  C 23.664213562373096 9  24 9.335786437626904  24 9.75  L 24 14.25  C 24 14.664213562373096  23.664213562373096 15  23.25 15  L 21 15  L 21 18  L 23.25 18  C 23.664213562373096 18  24 18.335786437626904  24 18.75  L 24 23.25  C 24 23.664213562373096  23.664213562373096 24  23.25 24  L 0.75 24  C 0.3357864376269049 24  0 23.664213562373096  0 23.25  L 0 18.75  C 0 18.335786437626904  0.3357864376269049 18  0.75 18  L 3 18  L 3 15  L 0.75 15  C 0.3357864376269049 15  0 14.664213562373096  0 14.25  L 0 9.75  C 0 9.335786437626904  0.3357864376269049 9  0.75 9  L 3 9  L 3 6  L 0.75 6  C 0.3357864376269049 6  0 5.664213562373095  0 5.25  Z M 11.25 6  L 4.5 6  L 4.5 9  L 11.25 9  L 11.25 6  Z M 19.5 6  L 12.75 6  L 12.75 9  L 19.5 9  L 19.5 6  Z M 11.25 15  L 4.5 15  L 4.5 18  L 11.25 18  L 11.25 15  Z M 19.5 15  L 12.75 15  L 12.75 18  L 19.5 18  L 19.5 15  Z M 6.75 1.5  L 1.5 1.5  L 1.5 4.5  L 6.75 4.5  L 6.75 1.5  Z M 22.5 1.5  L 8.25 1.5  L 8.25 4.5  L 22.5 4.5  L 22.5 1.5  Z M 6.75 10.5  L 1.5 10.5  L 1.5 13.5  L 6.75 13.5  L 6.75 10.5  Z M 15.75 10.5  L 8.25 10.5  L 8.25 13.5  L 15.75 13.5  L 15.75 10.5  Z M 22.5 10.5  L 17.25 10.5  L 17.25 13.5  L 22.5 13.5  L 22.5 10.5  Z M 6.75 19.5  L 1.5 19.5  L 1.5 22.5  L 6.75 22.5  L 6.75 19.5  Z M 15.75 19.5  L 8.25 19.5  L 8.25 22.5  L 15.75 22.5  L 15.75 19.5  Z M 22.5 19.5  L 17.25 19.5  L 17.25 22.5  L 22.5 22.5  L 22.5 19.5  Z " fill-rule="evenodd" />
    </mask>
  </defs>
  <g>
    <path d="M 0 5.25  L 0 0.75  C 0 0.3357864376269049  0.3357864376269049 0  0.75 0  L 23.25 0  C 23.664213562373096 0  24 0.3357864376269049  24 0.75  L 24 5.25  C 24 5.664213562373095  23.664213562373096 6  23.25 6  L 21 6  L 21 9  L 23.25 9  C 23.664213562373096 9  24 9.335786437626904  24 9.75  L 24 14.25  C 24 14.664213562373096  23.664213562373096 15  23.25 15  L 21 15  L 21 18  L 23.25 18  C 23.664213562373096 18  24 18.335786437626904  24 18.75  L 24 23.25  C 24 23.664213562373096  23.664213562373096 24  23.25 24  L 0.75 24  C 0.3357864376269049 24  0 23.664213562373096  0 23.25  L 0 18.75  C 0 18.335786437626904  0.3357864376269049 18  0.75 18  L 3 18  L 3 15  L 0.75 15  C 0.3357864376269049 15  0 14.664213562373096  0 14.25  L 0 9.75  C 0 9.335786437626904  0.3357864376269049 9  0.75 9  L 3 9  L 3 6  L 0.75 6  C 0.3357864376269049 6  0 5.664213562373095  0 5.25  Z M 11.25 6  L 4.5 6  L 4.5 9  L 11.25 9  L 11.25 6  Z M 19.5 6  L 12.75 6  L 12.75 9  L 19.5 9  L 19.5 6  Z M 11.25 15  L 4.5 15  L 4.5 18  L 11.25 18  L 11.25 15  Z M 19.5 15  L 12.75 15  L 12.75 18  L 19.5 18  L 19.5 15  Z M 6.75 1.5  L 1.5 1.5  L 1.5 4.5  L 6.75 4.5  L 6.75 1.5  Z M 22.5 1.5  L 8.25 1.5  L 8.25 4.5  L 22.5 4.5  L 22.5 1.5  Z M 6.75 10.5  L 1.5 10.5  L 1.5 13.5  L 6.75 13.5  L 6.75 10.5  Z M 15.75 10.5  L 8.25 10.5  L 8.25 13.5  L 15.75 13.5  L 15.75 10.5  Z M 22.5 10.5  L 17.25 10.5  L 17.25 13.5  L 22.5 13.5  L 22.5 10.5  Z M 6.75 19.5  L 1.5 19.5  L 1.5 22.5  L 6.75 22.5  L 6.75 19.5  Z M 15.75 19.5  L 8.25 19.5  L 8.25 22.5  L 15.75 22.5  L 15.75 19.5  Z M 22.5 19.5  L 17.25 19.5  L 17.25 22.5  L 22.5 22.5  L 22.5 19.5  Z " fill-rule="nonzero" fill="rgba(0, 0, 0, 1)" stroke="none" class="fill" />
    <path d="M 0 5.25  L 0 0.75  C 0 0.3357864376269049  0.3357864376269049 0  0.75 0  L 23.25 0  C 23.664213562373096 0  24 0.3357864376269049  24 0.75  L 24 5.25  C 24 5.664213562373095  23.664213562373096 6  23.25 6  L 21 6  L 21 9  L 23.25 9  C 23.664213562373096 9  24 9.335786437626904  24 9.75  L 24 14.25  C 24 14.664213562373096  23.664213562373096 15  23.25 15  L 21 15  L 21 18  L 23.25 18  C 23.664213562373096 18  24 18.335786437626904  24 18.75  L 24 23.25  C 24 23.664213562373096  23.664213562373096 24  23.25 24  L 0.75 24  C 0.3357864376269049 24  0 23.664213562373096  0 23.25  L 0 18.75  C 0 18.335786437626904  0.3357864376269049 18  0.75 18  L 3 18  L 3 15  L 0.75 15  C 0.3357864376269049 15  0 14.664213562373096  0 14.25  L 0 9.75  C 0 9.335786437626904  0.3357864376269049 9  0.75 9  L 3 9  L 3 6  L 0.75 6  C 0.3357864376269049 6  0 5.664213562373095  0 5.25  Z " stroke-width="0" stroke-dasharray="0" stroke="rgba(255, 255, 255, 0)" fill="none" class="stroke" mask="url(#Clip4923)" />
    <path d="M 11.25 6  L 4.5 6  L 4.5 9  L 11.25 9  L 11.25 6  Z " stroke-width="0" stroke-dasharray="0" stroke="rgba(255, 255, 255, 0)" fill="none" class="stroke" mask="url(#Clip4923)" />
    <path d="M 19.5 6  L 12.75 6  L 12.75 9  L 19.5 9  L 19.5 6  Z " stroke-width="0" stroke-dasharray="0" stroke="rgba(255, 255, 255, 0)" fill="none" class="stroke" mask="url(#Clip4923)" />
    <path d="M 11.25 15  L 4.5 15  L 4.5 18  L 11.25 18  L 11.25 15  Z " stroke-width="0" stroke-dasharray="0" stroke="rgba(255, 255, 255, 0)" fill="none" class="stroke" mask="url(#Clip4923)" />
    <path d="M 19.5 15  L 12.75 15  L 12.75 18  L 19.5 18  L 19.5 15  Z " stroke-width="0" stroke-dasharray="0" stroke="rgba(255, 255, 255, 0)" fill="none" class="stroke" mask="url(#Clip4923)" />
    <path d="M 6.75 1.5  L 1.5 1.5  L 1.5 4.5  L 6.75 4.5  L 6.75 1.5  Z " stroke-width="0" stroke-dasharray="0" stroke="rgba(255, 255, 255, 0)" fill="none" class="stroke" mask="url(#Clip4923)" />
    <path d="M 22.5 1.5  L 8.25 1.5  L 8.25 4.5  L 22.5 4.5  L 22.5 1.5  Z " stroke-width="0" stroke-dasharray="0" stroke="rgba(255, 255, 255, 0)" fill="none" class="stroke" mask="url(#Clip4923)" />
    <path d="M 6.75 10.5  L 1.5 10.5  L 1.5 13.5  L 6.75 13.5  L 6.75 10.5  Z " stroke-width="0" stroke-dasharray="0" stroke="rgba(255, 255, 255, 0)" fill="none" class="stroke" mask="url(#Clip4923)" />
    <path d="M 15.75 10.5  L 8.25 10.5  L 8.25 13.5  L 15.75 13.5  L 15.75 10.5  Z " stroke-width="0" stroke-dasharray="0" stroke="rgba(255, 255, 255, 0)" fill="none" class="stroke" mask="url(#Clip4923)" />
    <path d="M 22.5 10.5  L 17.25 10.5  L 17.25 13.5  L 22.5 13.5  L 22.5 10.5  Z " stroke-width="0" stroke-dasharray="0" stroke="rgba(255, 255, 255, 0)" fill="none" class="stroke" mask="url(#Clip4923)" />
    <path d="M 6.75 19.5  L 1.5 19.5  L 1.5 22.5  L 6.75 22.5  L 6.75 19.5  Z " stroke-width="0" stroke-dasharray="0" stroke="rgba(255, 255, 255, 0)" fill="none" class="stroke" mask="url(#Clip4923)" />
    <path d="M 15.75 19.5  L 8.25 19.5  L 8.25 22.5  L 15.75 22.5  L 15.75 19.5  Z " stroke-width="0" stroke-dasharray="0" stroke="rgba(255, 255, 255, 0)" fill="none" class="stroke" mask="url(#Clip4923)" />
    <path d="M 22.5 19.5  L 17.25 19.5  L 17.25 22.5  L 22.5 22.5  L 22.5 19.5  Z " stroke-width="0" stroke-dasharray="0" stroke="rgba(255, 255, 255, 0)" fill="none" class="stroke" mask="url(#Clip4923)" />
  </g>
</svg>