<?xml version="1.0" encoding="utf-8"?>
<svg version="1.1" xmlns:xlink="http://www.w3.org/1999/xlink" width="22px" height="22px" xmlns="http://www.w3.org/2000/svg">
  <defs>
    <pattern id="BGPattern" patternUnits="userSpaceOnUse" alignment="0 0" imageRepeat="None" />
    <mask fill="white" id="Clip6589">
      <path d="M 0.9394999999999998 3.0604999999999993  C 0.35392709250070586 2.474750222771279  0.35392709250070586 1.5252497772287206  0.9394999999999998 0.9394999999999998  C 1.525249777228721 0.35392709250070564  2.474750222771279 0.35392709250070586  3.0604999999999993 0.9394999999999998  L 11 8.879000000000001  L 18.9395 0.9395000000000002  C 19.22215455790222 0.646846137678478  19.61156638198316 0.48156769140881894  20.01843230859118 0.48156769140881894  C 20.84685943333737 0.48156769140881894  21.51843230859118 1.1531405666626289  21.51843230859118 1.9815676914088194  C 21.51843230859118 2.3884336180168404  21.35315386232152 2.7778454420977807  21.060499999999998 3.0604999999999993  L 13.120999999999999 11  L 21.0605 18.9395  C 21.33060335981406 19.219158647864255  21.48156769140882 19.592768534634903  21.48156769140882 19.98156769140882  C 21.48156769140882 20.809994816155008  20.809994816155008 21.48156769140882  19.98156769140882 21.48156769140882  C 19.592768534634903 21.48156769140882  19.21915864786426 21.330603359814056  18.939500000000002 21.060499999999998  L 11 13.120999999999999  L 3.0604999999999993 21.0605  C 2.7808413521357433 21.330603359814063  2.4072314653650912 21.481567691408827  2.0184323085911746 21.481567691408827  C 1.1900051838449843 21.481567691408827  0.5184323085911744 20.809994816155015  0.5184323085911744 19.981567691408827  C 0.5184323085911744 19.59276853463491  0.6693966401859377 19.21915864786426  0.9394999999999998 18.939500000000002  L 8.879000000000001 11  L 0.9394999999999998 3.0604999999999993  Z " fill-rule="evenodd" />
    </mask>
  </defs>
  <g>
    <path d="M 0.9394999999999998 3.0604999999999993  C 0.35392709250070586 2.474750222771279  0.35392709250070586 1.5252497772287206  0.9394999999999998 0.9394999999999998  C 1.525249777228721 0.35392709250070564  2.474750222771279 0.35392709250070586  3.0604999999999993 0.9394999999999998  L 11 8.879000000000001  L 18.9395 0.9395000000000002  C 19.22215455790222 0.646846137678478  19.61156638198316 0.48156769140881894  20.01843230859118 0.48156769140881894  C 20.84685943333737 0.48156769140881894  21.51843230859118 1.1531405666626289  21.51843230859118 1.9815676914088194  C 21.51843230859118 2.3884336180168404  21.35315386232152 2.7778454420977807  21.060499999999998 3.0604999999999993  L 13.120999999999999 11  L 21.0605 18.9395  C 21.33060335981406 19.219158647864255  21.48156769140882 19.592768534634903  21.48156769140882 19.98156769140882  C 21.48156769140882 20.809994816155008  20.809994816155008 21.48156769140882  19.98156769140882 21.48156769140882  C 19.592768534634903 21.48156769140882  19.21915864786426 21.330603359814056  18.939500000000002 21.060499999999998  L 11 13.120999999999999  L 3.0604999999999993 21.0605  C 2.7808413521357433 21.330603359814063  2.4072314653650912 21.481567691408827  2.0184323085911746 21.481567691408827  C 1.1900051838449843 21.481567691408827  0.5184323085911744 20.809994816155015  0.5184323085911744 19.981567691408827  C 0.5184323085911744 19.59276853463491  0.6693966401859377 19.21915864786426  0.9394999999999998 18.939500000000002  L 8.879000000000001 11  L 0.9394999999999998 3.0604999999999993  Z " fill-rule="nonzero" fill="rgba(0, 0, 0, 1)" stroke="none" class="fill" />
    <path d="M 0.9394999999999998 3.0604999999999993  C 0.35392709250070586 2.474750222771279  0.35392709250070586 1.5252497772287206  0.9394999999999998 0.9394999999999998  C 1.525249777228721 0.35392709250070564  2.474750222771279 0.35392709250070586  3.0604999999999993 0.9394999999999998  L 11 8.879000000000001  L 18.9395 0.9395000000000002  C 19.22215455790222 0.646846137678478  19.61156638198316 0.48156769140881894  20.01843230859118 0.48156769140881894  C 20.84685943333737 0.48156769140881894  21.51843230859118 1.1531405666626289  21.51843230859118 1.9815676914088194  C 21.51843230859118 2.3884336180168404  21.35315386232152 2.7778454420977807  21.060499999999998 3.0604999999999993  L 13.120999999999999 11  L 21.0605 18.9395  C 21.33060335981406 19.219158647864255  21.48156769140882 19.592768534634903  21.48156769140882 19.98156769140882  C 21.48156769140882 20.809994816155008  20.809994816155008 21.48156769140882  19.98156769140882 21.48156769140882  C 19.592768534634903 21.48156769140882  19.21915864786426 21.330603359814056  18.939500000000002 21.060499999999998  L 11 13.120999999999999  L 3.0604999999999993 21.0605  C 2.7808413521357433 21.330603359814063  2.4072314653650912 21.481567691408827  2.0184323085911746 21.481567691408827  C 1.1900051838449843 21.481567691408827  0.5184323085911744 20.809994816155015  0.5184323085911744 19.981567691408827  C 0.5184323085911744 19.59276853463491  0.6693966401859377 19.21915864786426  0.9394999999999998 18.939500000000002  L 8.879000000000001 11  L 0.9394999999999998 3.0604999999999993  Z " stroke-width="0" stroke-dasharray="0" stroke="rgba(255, 255, 255, 0)" fill="none" class="stroke" mask="url(#Clip6589)" />
  </g>
</svg>