<?xml version="1.0" encoding="utf-8"?>
<svg version="1.1" xmlns:xlink="http://www.w3.org/1999/xlink" width="6px" height="17px" xmlns="http://www.w3.org/2000/svg">
  <defs>
    <pattern id="BGPattern" patternUnits="userSpaceOnUse" alignment="0 0" imageRepeat="None" />
    <mask fill="white" id="Clip5879">
      <path d="M 2.120000000000001 1.0859999999999994  L 2.3629999999999995 0.2909999999999999  C 2.415383042363041 0.12121362348848796  2.5723165827205103 0.005398492452793668  2.749999999999999 0.005398492452793668  C 2.927683417279489 0.005398492452793668  3.0846169576369578 0.12121362348848796  3.1370000000000005 0.2909999999999999  L 3.38 1.0860000000000003  C 3.4325 1.2585000000000006  3.59 1.3770000000000007  3.7669999999999995 1.3770000000000007  L 4.593500000000001 1.3770000000000007  C 4.982 1.3770000000000007  5.1485 1.8765  4.8395 2.1165000000000003  L 4.1375 2.6610000000000005  C 4.001686159451252 2.76721652511178  3.945581483083145 2.9462740028823315  3.996500000000001 3.1109999999999998  L 4.256 3.9644999999999992  C 4.373 4.3485  3.9365000000000006 4.657499999999999  3.621500000000001 4.4145  L 2.996000000000001 3.9284999999999997  C 2.8513298057965364 3.8158929282747867  2.648670194203466 3.8158929282747867  2.5040000000000013 3.9284999999999997  L 1.8785000000000012 4.413  C 1.5635000000000012 4.657500000000001  1.1285000000000012 4.3485  1.244000000000001 3.9644999999999992  L 1.5035000000000012 3.109499999999999  C 1.553731207519018 2.945226852996064  1.4976934543314129 2.766979106154637  1.3625000000000007 2.6609999999999996  L 0.660500000000001 2.1164999999999994  C 0.35150000000000103 1.8764999999999992  0.5180000000000011 1.3769999999999998  0.9065000000000007 1.3769999999999998  L 1.731500000000001 1.3769999999999998  C 1.9110569644866495 1.3764493394163573  2.068982573959523 1.2581575701586836  2.120000000000001 1.0859999999999994  Z M 2.120000000000001 7.086000000000002  L 2.3629999999999995 6.290999999999999  C 2.415383042363041 6.121213623488487  2.5723165827205103 6.005398492452793  2.749999999999999 6.005398492452793  C 2.927683417279489 6.005398492452793  3.0846169576369578 6.121213623488487  3.1370000000000005 6.291  L 3.38 7.086  C 3.4325 7.2585000000000015  3.59 7.377000000000001  3.7669999999999995 7.377000000000001  L 4.593500000000001 7.377000000000001  C 4.982 7.377000000000001  5.1485 7.8765  4.8395 8.1165  L 4.1375 8.661000000000001  C 4.001686159451251 8.767216525111781  3.945581483083144 8.946274002882333  3.996500000000001 9.111000000000002  L 4.256 9.964500000000001  C 4.373 10.347000000000001  3.9365000000000006 10.6575  3.621500000000001 10.4145  L 2.996000000000001 9.928500000000003  C 2.8513298057965364 9.815892928274788  2.648670194203466 9.815892928274788  2.5040000000000013 9.928500000000003  L 1.8785000000000012 10.413000000000004  C 1.5635000000000012 10.657500000000002  1.1285000000000012 10.348500000000005  1.244000000000001 9.964500000000005  L 1.5035000000000012 9.109500000000004  C 1.5537312075190193 8.945226852996068  1.4976934543314133 8.766979106154642  1.3625000000000007 8.661000000000003  L 0.660500000000001 8.116500000000002  C 0.35150000000000103 7.876500000000002  0.5180000000000011 7.3770000000000024  0.9065000000000007 7.3770000000000024  L 1.731500000000001 7.3770000000000024  C 1.911056964486649 7.376449339416359  2.068982573959523 7.258157570158687  2.120000000000001 7.086000000000002  Z M 2.120000000000001 13.086000000000002  L 2.3629999999999995 12.290999999999997  C 2.415383042363041 12.121213623488487  2.572316582720511 12.005398492452795  2.749999999999999 12.005398492452795  C 2.9276834172794883 12.005398492452795  3.0846169576369578 12.121213623488487  3.1370000000000005 12.290999999999997  L 3.38 13.085999999999999  C 3.4325 13.258499999999998  3.59 13.376999999999999  3.7669999999999995 13.376999999999999  L 4.593500000000001 13.376999999999999  C 4.982 13.376999999999999  5.1485 13.8765  4.8395 14.116499999999998  L 4.1375 14.660999999999998  C 4.0016861594512525 14.767216525111778  3.945581483083144 14.94627400288233  3.996500000000001 15.111  L 4.256 15.964500000000001  C 4.373 16.347  3.9365000000000006 16.6575  3.621500000000001 16.414500000000004  L 2.996000000000001 15.928500000000003  C 2.8513298057965364 15.815892928274792  2.648670194203466 15.815892928274792  2.5040000000000013 15.928500000000003  L 1.8785000000000012 16.413000000000004  C 1.5635000000000012 16.657500000000002  1.1285000000000012 16.348500000000005  1.244000000000001 15.964500000000005  L 1.5035000000000012 15.109500000000004  C 1.5537312075190193 14.945226852996068  1.4976934543314133 14.76697910615464  1.3625000000000007 14.661000000000005  L 0.660500000000001 14.116500000000006  C 0.35150000000000103 13.876500000000004  0.5180000000000011 13.377000000000002  0.9065000000000007 13.377000000000002  L 1.731500000000001 13.377000000000002  C 1.91105696448665 13.376449339416364  2.0689825739595227 13.258157570158687  2.120000000000001 13.086000000000002  Z " fill-rule="evenodd" />
    </mask>
  </defs>
  <g>
    <path d="M 2.120000000000001 1.0859999999999994  L 2.3629999999999995 0.2909999999999999  C 2.415383042363041 0.12121362348848796  2.5723165827205103 0.005398492452793668  2.749999999999999 0.005398492452793668  C 2.927683417279489 0.005398492452793668  3.0846169576369578 0.12121362348848796  3.1370000000000005 0.2909999999999999  L 3.38 1.0860000000000003  C 3.4325 1.2585000000000006  3.59 1.3770000000000007  3.7669999999999995 1.3770000000000007  L 4.593500000000001 1.3770000000000007  C 4.982 1.3770000000000007  5.1485 1.8765  4.8395 2.1165000000000003  L 4.1375 2.6610000000000005  C 4.001686159451252 2.76721652511178  3.945581483083145 2.9462740028823315  3.996500000000001 3.1109999999999998  L 4.256 3.9644999999999992  C 4.373 4.3485  3.9365000000000006 4.657499999999999  3.621500000000001 4.4145  L 2.996000000000001 3.9284999999999997  C 2.8513298057965364 3.8158929282747867  2.648670194203466 3.8158929282747867  2.5040000000000013 3.9284999999999997  L 1.8785000000000012 4.413  C 1.5635000000000012 4.657500000000001  1.1285000000000012 4.3485  1.244000000000001 3.9644999999999992  L 1.5035000000000012 3.109499999999999  C 1.553731207519018 2.945226852996064  1.4976934543314129 2.766979106154637  1.3625000000000007 2.6609999999999996  L 0.660500000000001 2.1164999999999994  C 0.35150000000000103 1.8764999999999992  0.5180000000000011 1.3769999999999998  0.9065000000000007 1.3769999999999998  L 1.731500000000001 1.3769999999999998  C 1.9110569644866495 1.3764493394163573  2.068982573959523 1.2581575701586836  2.120000000000001 1.0859999999999994  Z M 2.120000000000001 7.086000000000002  L 2.3629999999999995 6.290999999999999  C 2.415383042363041 6.121213623488487  2.5723165827205103 6.005398492452793  2.749999999999999 6.005398492452793  C 2.927683417279489 6.005398492452793  3.0846169576369578 6.121213623488487  3.1370000000000005 6.291  L 3.38 7.086  C 3.4325 7.2585000000000015  3.59 7.377000000000001  3.7669999999999995 7.377000000000001  L 4.593500000000001 7.377000000000001  C 4.982 7.377000000000001  5.1485 7.8765  4.8395 8.1165  L 4.1375 8.661000000000001  C 4.001686159451251 8.767216525111781  3.945581483083144 8.946274002882333  3.996500000000001 9.111000000000002  L 4.256 9.964500000000001  C 4.373 10.347000000000001  3.9365000000000006 10.6575  3.621500000000001 10.4145  L 2.996000000000001 9.928500000000003  C 2.8513298057965364 9.815892928274788  2.648670194203466 9.815892928274788  2.5040000000000013 9.928500000000003  L 1.8785000000000012 10.413000000000004  C 1.5635000000000012 10.657500000000002  1.1285000000000012 10.348500000000005  1.244000000000001 9.964500000000005  L 1.5035000000000012 9.109500000000004  C 1.5537312075190193 8.945226852996068  1.4976934543314133 8.766979106154642  1.3625000000000007 8.661000000000003  L 0.660500000000001 8.116500000000002  C 0.35150000000000103 7.876500000000002  0.5180000000000011 7.3770000000000024  0.9065000000000007 7.3770000000000024  L 1.731500000000001 7.3770000000000024  C 1.911056964486649 7.376449339416359  2.068982573959523 7.258157570158687  2.120000000000001 7.086000000000002  Z M 2.120000000000001 13.086000000000002  L 2.3629999999999995 12.290999999999997  C 2.415383042363041 12.121213623488487  2.572316582720511 12.005398492452795  2.749999999999999 12.005398492452795  C 2.9276834172794883 12.005398492452795  3.0846169576369578 12.121213623488487  3.1370000000000005 12.290999999999997  L 3.38 13.085999999999999  C 3.4325 13.258499999999998  3.59 13.376999999999999  3.7669999999999995 13.376999999999999  L 4.593500000000001 13.376999999999999  C 4.982 13.376999999999999  5.1485 13.8765  4.8395 14.116499999999998  L 4.1375 14.660999999999998  C 4.0016861594512525 14.767216525111778  3.945581483083144 14.94627400288233  3.996500000000001 15.111  L 4.256 15.964500000000001  C 4.373 16.347  3.9365000000000006 16.6575  3.621500000000001 16.414500000000004  L 2.996000000000001 15.928500000000003  C 2.8513298057965364 15.815892928274792  2.648670194203466 15.815892928274792  2.5040000000000013 15.928500000000003  L 1.8785000000000012 16.413000000000004  C 1.5635000000000012 16.657500000000002  1.1285000000000012 16.348500000000005  1.244000000000001 15.964500000000005  L 1.5035000000000012 15.109500000000004  C 1.5537312075190193 14.945226852996068  1.4976934543314133 14.76697910615464  1.3625000000000007 14.661000000000005  L 0.660500000000001 14.116500000000006  C 0.35150000000000103 13.876500000000004  0.5180000000000011 13.377000000000002  0.9065000000000007 13.377000000000002  L 1.731500000000001 13.377000000000002  C 1.91105696448665 13.376449339416364  2.0689825739595227 13.258157570158687  2.120000000000001 13.086000000000002  Z " fill-rule="nonzero" fill="rgba(0, 0, 0, 1)" stroke="none" class="fill" />
    <path d="M 2.120000000000001 1.0859999999999994  L 2.3629999999999995 0.2909999999999999  C 2.415383042363041 0.12121362348848796  2.5723165827205103 0.005398492452793668  2.749999999999999 0.005398492452793668  C 2.927683417279489 0.005398492452793668  3.0846169576369578 0.12121362348848796  3.1370000000000005 0.2909999999999999  L 3.38 1.0860000000000003  C 3.4325 1.2585000000000006  3.59 1.3770000000000007  3.7669999999999995 1.3770000000000007  L 4.593500000000001 1.3770000000000007  C 4.982 1.3770000000000007  5.1485 1.8765  4.8395 2.1165000000000003  L 4.1375 2.6610000000000005  C 4.001686159451252 2.76721652511178  3.945581483083145 2.9462740028823315  3.996500000000001 3.1109999999999998  L 4.256 3.9644999999999992  C 4.373 4.3485  3.9365000000000006 4.657499999999999  3.621500000000001 4.4145  L 2.996000000000001 3.9284999999999997  C 2.8513298057965364 3.8158929282747867  2.648670194203466 3.8158929282747867  2.5040000000000013 3.9284999999999997  L 1.8785000000000012 4.413  C 1.5635000000000012 4.657500000000001  1.1285000000000012 4.3485  1.244000000000001 3.9644999999999992  L 1.5035000000000012 3.109499999999999  C 1.553731207519018 2.945226852996064  1.4976934543314129 2.766979106154637  1.3625000000000007 2.6609999999999996  L 0.660500000000001 2.1164999999999994  C 0.35150000000000103 1.8764999999999992  0.5180000000000011 1.3769999999999998  0.9065000000000007 1.3769999999999998  L 1.731500000000001 1.3769999999999998  C 1.9110569644866495 1.3764493394163573  2.068982573959523 1.2581575701586836  2.120000000000001 1.0859999999999994  Z " stroke-width="0" stroke-dasharray="0" stroke="rgba(255, 255, 255, 0)" fill="none" class="stroke" mask="url(#Clip5879)" />
    <path d="M 2.120000000000001 7.086000000000002  L 2.3629999999999995 6.290999999999999  C 2.415383042363041 6.121213623488487  2.5723165827205103 6.005398492452793  2.749999999999999 6.005398492452793  C 2.927683417279489 6.005398492452793  3.0846169576369578 6.121213623488487  3.1370000000000005 6.291  L 3.38 7.086  C 3.4325 7.2585000000000015  3.59 7.377000000000001  3.7669999999999995 7.377000000000001  L 4.593500000000001 7.377000000000001  C 4.982 7.377000000000001  5.1485 7.8765  4.8395 8.1165  L 4.1375 8.661000000000001  C 4.001686159451251 8.767216525111781  3.945581483083144 8.946274002882333  3.996500000000001 9.111000000000002  L 4.256 9.964500000000001  C 4.373 10.347000000000001  3.9365000000000006 10.6575  3.621500000000001 10.4145  L 2.996000000000001 9.928500000000003  C 2.8513298057965364 9.815892928274788  2.648670194203466 9.815892928274788  2.5040000000000013 9.928500000000003  L 1.8785000000000012 10.413000000000004  C 1.5635000000000012 10.657500000000002  1.1285000000000012 10.348500000000005  1.244000000000001 9.964500000000005  L 1.5035000000000012 9.109500000000004  C 1.5537312075190193 8.945226852996068  1.4976934543314133 8.766979106154642  1.3625000000000007 8.661000000000003  L 0.660500000000001 8.116500000000002  C 0.35150000000000103 7.876500000000002  0.5180000000000011 7.3770000000000024  0.9065000000000007 7.3770000000000024  L 1.731500000000001 7.3770000000000024  C 1.911056964486649 7.376449339416359  2.068982573959523 7.258157570158687  2.120000000000001 7.086000000000002  Z " stroke-width="0" stroke-dasharray="0" stroke="rgba(255, 255, 255, 0)" fill="none" class="stroke" mask="url(#Clip5879)" />
    <path d="M 2.120000000000001 13.086000000000002  L 2.3629999999999995 12.290999999999997  C 2.415383042363041 12.121213623488487  2.572316582720511 12.005398492452795  2.749999999999999 12.005398492452795  C 2.9276834172794883 12.005398492452795  3.0846169576369578 12.121213623488487  3.1370000000000005 12.290999999999997  L 3.38 13.085999999999999  C 3.4325 13.258499999999998  3.59 13.376999999999999  3.7669999999999995 13.376999999999999  L 4.593500000000001 13.376999999999999  C 4.982 13.376999999999999  5.1485 13.8765  4.8395 14.116499999999998  L 4.1375 14.660999999999998  C 4.0016861594512525 14.767216525111778  3.945581483083144 14.94627400288233  3.996500000000001 15.111  L 4.256 15.964500000000001  C 4.373 16.347  3.9365000000000006 16.6575  3.621500000000001 16.414500000000004  L 2.996000000000001 15.928500000000003  C 2.8513298057965364 15.815892928274792  2.648670194203466 15.815892928274792  2.5040000000000013 15.928500000000003  L 1.8785000000000012 16.413000000000004  C 1.5635000000000012 16.657500000000002  1.1285000000000012 16.348500000000005  1.244000000000001 15.964500000000005  L 1.5035000000000012 15.109500000000004  C 1.5537312075190193 14.945226852996068  1.4976934543314133 14.76697910615464  1.3625000000000007 14.661000000000005  L 0.660500000000001 14.116500000000006  C 0.35150000000000103 13.876500000000004  0.5180000000000011 13.377000000000002  0.9065000000000007 13.377000000000002  L 1.731500000000001 13.377000000000002  C 1.91105696448665 13.376449339416364  2.0689825739595227 13.258157570158687  2.120000000000001 13.086000000000002  Z " stroke-width="0" stroke-dasharray="0" stroke="rgba(255, 255, 255, 0)" fill="none" class="stroke" mask="url(#Clip5879)" />
  </g>
</svg>