<?xml version="1.0" encoding="utf-8"?>
<svg version="1.1" xmlns:xlink="http://www.w3.org/1999/xlink" width="22px" height="11px" xmlns="http://www.w3.org/2000/svg">
  <defs>
    <pattern id="BGPattern" patternUnits="userSpaceOnUse" alignment="0 0" imageRepeat="None" />
    <mask fill="white" id="Clip6349">
      <path d="M 11 5.5  C 11 8.39949493661166  8.649494936611664 10.75  5.75 10.75  C 2.850505063388333 10.75  0.5 8.39949493661166  0.5 5.5  C 0.49999999999999933 2.6005050633883346  2.8505050633883338 0.24999999999999822  5.75 0.24999999999999822  C 8.649494936611664 0.24999999999999822  11 2.6005050633883346  11 5.5  Z M 21.5 5.5  C 21.5 8.39949493661166  19.149494936611664 10.75  16.25 10.75  C 13.350505063388335 10.75  11 8.39949493661166  11 5.5  C 11 2.6005050633883346  13.350505063388335 0.24999999999999822  16.25 0.24999999999999822  C 19.149494936611664 0.24999999999999822  21.5 2.6005050633883346  21.5 5.5  Z " fill-rule="evenodd" />
    </mask>
  </defs>
  <g transform="matrix(1 0 0 1 0 -7 )">
    <path d="M 11 5.5  C 11 8.39949493661166  8.649494936611664 10.75  5.75 10.75  C 2.850505063388333 10.75  0.5 8.39949493661166  0.5 5.5  C 0.49999999999999933 2.6005050633883346  2.8505050633883338 0.24999999999999822  5.75 0.24999999999999822  C 8.649494936611664 0.24999999999999822  11 2.6005050633883346  11 5.5  Z M 21.5 5.5  C 21.5 8.39949493661166  19.149494936611664 10.75  16.25 10.75  C 13.350505063388335 10.75  11 8.39949493661166  11 5.5  C 11 2.6005050633883346  13.350505063388335 0.24999999999999822  16.25 0.24999999999999822  C 19.149494936611664 0.24999999999999822  21.5 2.6005050633883346  21.5 5.5  Z " fill-rule="nonzero" fill="rgba(0, 0, 0, 1)" stroke="none" transform="matrix(1 0 0 1 0 7 )" class="fill" />
    <path d="M 11 5.5  C 11 8.39949493661166  8.649494936611664 10.75  5.75 10.75  C 2.850505063388333 10.75  0.5 8.39949493661166  0.5 5.5  C 0.49999999999999933 2.6005050633883346  2.8505050633883338 0.24999999999999822  5.75 0.24999999999999822  C 8.649494936611664 0.24999999999999822  11 2.6005050633883346  11 5.5  Z " stroke-width="0" stroke-dasharray="0" stroke="rgba(255, 255, 255, 0)" fill="none" transform="matrix(1 0 0 1 0 7 )" class="stroke" mask="url(#Clip6349)" />
    <path d="M 21.5 5.5  C 21.5 8.39949493661166  19.149494936611664 10.75  16.25 10.75  C 13.350505063388335 10.75  11 8.39949493661166  11 5.5  C 11 2.6005050633883346  13.350505063388335 0.24999999999999822  16.25 0.24999999999999822  C 19.149494936611664 0.24999999999999822  21.5 2.6005050633883346  21.5 5.5  Z " stroke-width="0" stroke-dasharray="0" stroke="rgba(255, 255, 255, 0)" fill="none" transform="matrix(1 0 0 1 0 7 )" class="stroke" mask="url(#Clip6349)" />
  </g>
</svg>