<?xml version="1.0" encoding="utf-8"?>
<svg version="1.1" xmlns:xlink="http://www.w3.org/1999/xlink" width="12px" height="11px" xmlns="http://www.w3.org/2000/svg">
  <defs>
    <pattern id="BGPattern" patternUnits="userSpaceOnUse" alignment="0 0" imageRepeat="None" />
    <mask fill="white" id="Clip6348">
      <path d="M 11.25 5.75  C 11.25 8.649494936611664  8.899494936611664 11  6 11  C 3.1005050633883346 11  0.75 8.649494936611664  0.75 5.75  C 0.75 2.8505050633883338  3.1005050633883346 0.49999999999999933  6 0.49999999999999933  C 8.899494936611664 0.49999999999999933  11.25 2.8505050633883338  11.25 5.75  Z " fill-rule="evenodd" />
    </mask>
  </defs>
  <g transform="matrix(1 0 0 1 -5 0 )">
    <path d="M 11.25 5.75  C 11.25 8.649494936611664  8.899494936611664 11  6 11  C 3.1005050633883346 11  0.75 8.649494936611664  0.75 5.75  C 0.75 2.8505050633883338  3.1005050633883346 0.49999999999999933  6 0.49999999999999933  C 8.899494936611664 0.49999999999999933  11.25 2.8505050633883338  11.25 5.75  Z " fill-rule="nonzero" fill="rgba(0, 0, 0, 1)" stroke="none" transform="matrix(1 0 0 1 5 0 )" class="fill" />
    <path d="M 11.25 5.75  C 11.25 8.649494936611664  8.899494936611664 11  6 11  C 3.1005050633883346 11  0.75 8.649494936611664  0.75 5.75  C 0.75 2.8505050633883338  3.1005050633883346 0.49999999999999933  6 0.49999999999999933  C 8.899494936611664 0.49999999999999933  11.25 2.8505050633883338  11.25 5.75  Z " stroke-width="0" stroke-dasharray="0" stroke="rgba(255, 255, 255, 0)" fill="none" transform="matrix(1 0 0 1 5 0 )" class="stroke" mask="url(#Clip6348)" />
  </g>
</svg>