<?xml version="1.0" encoding="utf-8"?>
<svg version="1.1" xmlns:xlink="http://www.w3.org/1999/xlink" width="12px" height="13px" xmlns="http://www.w3.org/2000/svg">
  <defs>
    <pattern id="BGPattern" patternUnits="userSpaceOnUse" alignment="0 0" imageRepeat="None" />
    <mask fill="white" id="Clip6052">
      <path d="M 9 3.25  C 9 4.90685424949238  7.65685424949238 6.25  6 6.25  C 4.34314575050762 6.25  3 4.90685424949238  3 3.25  C 3 1.5931457505076203  4.34314575050762 0.25  6 0.25  C 7.65685424949238 0.25  9 1.5931457505076203  9 3.25  Z M 6 7  C 1.200000000000001 7  0 10.600000000000001  0 11.799999999999997  C 0 13  1.200000000000001 13  1.200000000000001 13  L 10.8 13  C 10.8 13  12 13  12 11.799999999999997  C 12 10.599999999999998  10.799999999999997 7  6 7  Z " fill-rule="evenodd" />
    </mask>
  </defs>
  <g transform="matrix(1 0 0 1 -12 -8 )">
    <path d="M 9 3.25  C 9 4.90685424949238  7.65685424949238 6.25  6 6.25  C 4.34314575050762 6.25  3 4.90685424949238  3 3.25  C 3 1.5931457505076203  4.34314575050762 0.25  6 0.25  C 7.65685424949238 0.25  9 1.5931457505076203  9 3.25  Z M 6 7  C 1.200000000000001 7  0 10.600000000000001  0 11.799999999999997  C 0 13  1.200000000000001 13  1.200000000000001 13  L 10.8 13  C 10.8 13  12 13  12 11.799999999999997  C 12 10.599999999999998  10.799999999999997 7  6 7  Z " fill-rule="nonzero" fill="rgba(0, 0, 0, 1)" stroke="none" transform="matrix(1 0 0 1 12 8 )" class="fill" />
    <path d="M 9 3.25  C 9 4.90685424949238  7.65685424949238 6.25  6 6.25  C 4.34314575050762 6.25  3 4.90685424949238  3 3.25  C 3 1.5931457505076203  4.34314575050762 0.25  6 0.25  C 7.65685424949238 0.25  9 1.5931457505076203  9 3.25  Z " stroke-width="0" stroke-dasharray="0" stroke="rgba(255, 255, 255, 0)" fill="none" transform="matrix(1 0 0 1 12 8 )" class="stroke" mask="url(#Clip6052)" />
    <path d="M 6 7  C 1.200000000000001 7  0 10.600000000000001  0 11.799999999999997  C 0 13  1.200000000000001 13  1.200000000000001 13  L 10.8 13  C 10.8 13  12 13  12 11.799999999999997  C 12 10.599999999999998  10.799999999999997 7  6 7  Z " stroke-width="0" stroke-dasharray="0" stroke="rgba(255, 255, 255, 0)" fill="none" transform="matrix(1 0 0 1 12 8 )" class="stroke" mask="url(#Clip6052)" />
  </g>
</svg>