<?xml version="1.0" encoding="utf-8"?>
<svg version="1.1" xmlns:xlink="http://www.w3.org/1999/xlink" width="50px" height="50px" xmlns="http://www.w3.org/2000/svg">
  <defs>
    <pattern id="BGPattern" patternUnits="userSpaceOnUse" alignment="0 0" imageRepeat="None" />
    <mask fill="white" id="Clip1478">
      <path d="M 48.98732943469787 27.161793372319693  C 50.20760233918128 25.940545808966874  50.20760233918128 23.96198830409358  48.98732943469787 22.740740740740733  L 27.161793372319693 0.9152046783625849  C 25.941520467836256 -0.30506822612085216  23.96198830409358 -0.30506822612085216  22.740740740740733 0.9152046783625849  L 0.9152046783625849 22.740740740740733  C -0.30506822612085216 23.961988304093552  -0.30506822612085216 25.940545808966874  0.9152046783625849 27.161793372319693  L 22.740740740740733 48.98732943469787  C 23.96101364522417 50.20857699805069  25.940545808966846 50.20857699805069  27.161793372319693 48.98732943469787  L 48.98732943469787 27.161793372319693  Z M 39.14522417153995 22.818713450292393  C 39.479532163742704 23.127680311890828  39.479532163742704 23.65594541910332  39.14522417153995 23.964912280701753  L 30.937621832358676 31.54093567251462  C 30.438596491228054 32.00194931773879  29.628654970760238 31.648148148148152  29.628654970760238 30.967836257309955  L 29.628654970760238 25.730994152046776  L 20.271929824561397 25.730994152046776  L 20.271929824561397 31.968810916179336  C 20.271929824561397 32.39961013645225  19.923001949317722 32.7485380116959  19.492202729044834 32.7485380116959  L 16.373294346978554 32.7485380116959  C 15.942495126705666 32.7485380116959  15.59356725146199 32.39961013645225  15.59356725146199 31.968810916179336  L 15.59356725146199 24.17153996101365  C 15.59356725146199 22.44931773879142  16.990253411306043 21.05263157894737  18.71247563352827 21  L 29.628654970760238 21  L 29.628654970760238 15.81578947368422  C 29.628654970760238 15.136452241715403  30.437621832358673 14.781676413255354  30.937621832358676 15.242690058479525  L 39.14522417153995 22.818713450292393  Z " fill-rule="evenodd" />
    </mask>
  </defs>
  <g>
    <path d="M 48.98732943469787 27.161793372319693  C 50.20760233918128 25.940545808966874  50.20760233918128 23.96198830409358  48.98732943469787 22.740740740740733  L 27.161793372319693 0.9152046783625849  C 25.941520467836256 -0.30506822612085216  23.96198830409358 -0.30506822612085216  22.740740740740733 0.9152046783625849  L 0.9152046783625849 22.740740740740733  C -0.30506822612085216 23.961988304093552  -0.30506822612085216 25.940545808966874  0.9152046783625849 27.161793372319693  L 22.740740740740733 48.98732943469787  C 23.96101364522417 50.20857699805069  25.940545808966846 50.20857699805069  27.161793372319693 48.98732943469787  L 48.98732943469787 27.161793372319693  Z M 39.14522417153995 22.818713450292393  C 39.479532163742704 23.127680311890828  39.479532163742704 23.65594541910332  39.14522417153995 23.964912280701753  L 30.937621832358676 31.54093567251462  C 30.438596491228054 32.00194931773879  29.628654970760238 31.648148148148152  29.628654970760238 30.967836257309955  L 29.628654970760238 25.730994152046776  L 20.271929824561397 25.730994152046776  L 20.271929824561397 31.968810916179336  C 20.271929824561397 32.39961013645225  19.923001949317722 32.7485380116959  19.492202729044834 32.7485380116959  L 16.373294346978554 32.7485380116959  C 15.942495126705666 32.7485380116959  15.59356725146199 32.39961013645225  15.59356725146199 31.968810916179336  L 15.59356725146199 24.17153996101365  C 15.59356725146199 22.44931773879142  16.990253411306043 21.05263157894737  18.71247563352827 21  L 29.628654970760238 21  L 29.628654970760238 15.81578947368422  C 29.628654970760238 15.136452241715403  30.437621832358673 14.781676413255354  30.937621832358676 15.242690058479525  L 39.14522417153995 22.818713450292393  Z " fill-rule="nonzero" fill="rgba(0, 0, 0, 1)" stroke="none" class="fill" />
    <path d="M 48.98732943469787 27.161793372319693  C 50.20760233918128 25.940545808966874  50.20760233918128 23.96198830409358  48.98732943469787 22.740740740740733  L 27.161793372319693 0.9152046783625849  C 25.941520467836256 -0.30506822612085216  23.96198830409358 -0.30506822612085216  22.740740740740733 0.9152046783625849  L 0.9152046783625849 22.740740740740733  C -0.30506822612085216 23.961988304093552  -0.30506822612085216 25.940545808966874  0.9152046783625849 27.161793372319693  L 22.740740740740733 48.98732943469787  C 23.96101364522417 50.20857699805069  25.940545808966846 50.20857699805069  27.161793372319693 48.98732943469787  L 48.98732943469787 27.161793372319693  Z " stroke-width="0" stroke-dasharray="0" stroke="rgba(255, 255, 255, 0)" fill="none" class="stroke" mask="url(#Clip1478)" />
    <path d="M 39.14522417153995 22.818713450292393  C 39.479532163742704 23.127680311890828  39.479532163742704 23.65594541910332  39.14522417153995 23.964912280701753  L 30.937621832358676 31.54093567251462  C 30.438596491228054 32.00194931773879  29.628654970760238 31.648148148148152  29.628654970760238 30.967836257309955  L 29.628654970760238 25.730994152046776  L 20.271929824561397 25.730994152046776  L 20.271929824561397 31.968810916179336  C 20.271929824561397 32.39961013645225  19.923001949317722 32.7485380116959  19.492202729044834 32.7485380116959  L 16.373294346978554 32.7485380116959  C 15.942495126705666 32.7485380116959  15.59356725146199 32.39961013645225  15.59356725146199 31.968810916179336  L 15.59356725146199 24.17153996101365  C 15.59356725146199 22.44931773879142  16.990253411306043 21.05263157894737  18.71247563352827 21  L 29.628654970760238 21  L 29.628654970760238 15.81578947368422  C 29.628654970760238 15.136452241715403  30.437621832358673 14.781676413255354  30.937621832358676 15.242690058479525  L 39.14522417153995 22.818713450292393  Z " stroke-width="0" stroke-dasharray="0" stroke="rgba(255, 255, 255, 0)" fill="none" class="stroke" mask="url(#Clip1478)" />
  </g>
</svg>