<?xml version="1.0" encoding="utf-8"?>
<svg version="1.1" xmlns:xlink="http://www.w3.org/1999/xlink" width="8px" height="11px" xmlns="http://www.w3.org/2000/svg">
  <defs>
    <pattern id="BGPattern" patternUnits="userSpaceOnUse" alignment="0 0" imageRepeat="None" />
    <mask fill="white" id="Clip5475">
      <path d="M 1 11  C 0.5857864376269042 11  0.25 10.664213562373096  0.25 10.25  C 0.25 9.835786437626904  0.5857864376269042 9.5  1 9.5  L 7 9.5  C 7.414213562373096 9.5  7.75 9.835786437626904  7.75 10.25  C 7.75 10.664213562373096  7.414213562373096 11  7 11  L 1 11  Z M 3.25 1.25  C 3.25 0.8357864376269052  3.585786437626904 0.5  4 0.5  C 4.414213562373096 0.5  4.75 0.8357864376269052  4.75 1.25  L 4.75 7.25  C 4.75 7.664213562373096  4.414213562373096 8  4 8  C 3.585786437626904 8  3.25 7.664213562373096  3.25 7.25  L 3.25 1.25  Z " fill-rule="evenodd" />
    </mask>
  </defs>
  <g transform="matrix(1 0 0 1 -5 -7 )">
    <path d="M 1 11  C 0.5857864376269042 11  0.25 10.664213562373096  0.25 10.25  C 0.25 9.835786437626904  0.5857864376269042 9.5  1 9.5  L 7 9.5  C 7.414213562373096 9.5  7.75 9.835786437626904  7.75 10.25  C 7.75 10.664213562373096  7.414213562373096 11  7 11  L 1 11  Z M 3.25 1.25  C 3.25 0.8357864376269052  3.585786437626904 0.5  4 0.5  C 4.414213562373096 0.5  4.75 0.8357864376269052  4.75 1.25  L 4.75 7.25  C 4.75 7.664213562373096  4.414213562373096 8  4 8  C 3.585786437626904 8  3.25 7.664213562373096  3.25 7.25  L 3.25 1.25  Z " fill-rule="nonzero" fill="rgba(0, 0, 0, 1)" stroke="none" transform="matrix(1 0 0 1 5 7 )" class="fill" />
    <path d="M 1 11  C 0.5857864376269042 11  0.25 10.664213562373096  0.25 10.25  C 0.25 9.835786437626904  0.5857864376269042 9.5  1 9.5  L 7 9.5  C 7.414213562373096 9.5  7.75 9.835786437626904  7.75 10.25  C 7.75 10.664213562373096  7.414213562373096 11  7 11  L 1 11  Z " stroke-width="0" stroke-dasharray="0" stroke="rgba(255, 255, 255, 0)" fill="none" transform="matrix(1 0 0 1 5 7 )" class="stroke" mask="url(#Clip5475)" />
    <path d="M 3.25 1.25  C 3.25 0.8357864376269052  3.585786437626904 0.5  4 0.5  C 4.414213562373096 0.5  4.75 0.8357864376269052  4.75 1.25  L 4.75 7.25  C 4.75 7.664213562373096  4.414213562373096 8  4 8  C 3.585786437626904 8  3.25 7.664213562373096  3.25 7.25  L 3.25 1.25  Z " stroke-width="0" stroke-dasharray="0" stroke="rgba(255, 255, 255, 0)" fill="none" transform="matrix(1 0 0 1 5 7 )" class="stroke" mask="url(#Clip5475)" />
  </g>
</svg>