<?xml version="1.0" encoding="utf-8"?>
<svg version="1.1" xmlns:xlink="http://www.w3.org/1999/xlink" width="56px" height="56px" xmlns="http://www.w3.org/2000/svg">
  <defs>
    <pattern id="BGPattern" patternUnits="userSpaceOnUse" alignment="0 0" imageRepeat="None" />
    <mask fill="white" id="Clip1443">
      <path d="M 0.58575 52.242625  C -0.19525000000000003 51.461625  -0.19525000000000003 50.195249999999994  0.58575 49.41425  L 13 37  L 8.88475 33.121375  C 6.99475 31.231375  8.33325 28  11.006 28  L 25.006 28  C 26.662875 28  28 29.343125000000004  28 31  L 28 45  C 28 47.67275  24.774625 49.011250000000004  22.88475 47.121375  L 19 43  L 6.585750000000001 55.414249999999996  C 5.804750000000001 56.19524999999999  4.538375 56.19524999999999  3.7573750000000006 55.414249999999996  L 0.58575 52.242625  Z M 55.414249999999996 3.7573750000000015  C 56.19524999999999 4.538375000000002  56.19524999999999 5.804750000000002  55.41425 6.585750000000001  L 43 19  L 47.11525 22.878625  C 49.005250000000004 24.768625  47.66675 28  44.994 28  L 30.994 28  C 29.337125000000004 28  28 26.656875  28 25  L 28 11  C 28 8.32725  31.225375 6.98875  33.11525 8.878625  L 37 13  L 49.414249999999996 0.5857500000000009  C 50.195249999999994 -0.19524999999999926  51.461625 -0.19524999999999926  52.242625 0.5857500000000009  L 55.414249999999996 3.7573750000000015  Z " fill-rule="evenodd" />
    </mask>
  </defs>
  <g>
    <path d="M 0.58575 52.242625  C -0.19525000000000003 51.461625  -0.19525000000000003 50.195249999999994  0.58575 49.41425  L 13 37  L 8.88475 33.121375  C 6.99475 31.231375  8.33325 28  11.006 28  L 25.006 28  C 26.662875 28  28 29.343125000000004  28 31  L 28 45  C 28 47.67275  24.774625 49.011250000000004  22.88475 47.121375  L 19 43  L 6.585750000000001 55.414249999999996  C 5.804750000000001 56.19524999999999  4.538375 56.19524999999999  3.7573750000000006 55.414249999999996  L 0.58575 52.242625  Z M 55.414249999999996 3.7573750000000015  C 56.19524999999999 4.538375000000002  56.19524999999999 5.804750000000002  55.41425 6.585750000000001  L 43 19  L 47.11525 22.878625  C 49.005250000000004 24.768625  47.66675 28  44.994 28  L 30.994 28  C 29.337125000000004 28  28 26.656875  28 25  L 28 11  C 28 8.32725  31.225375 6.98875  33.11525 8.878625  L 37 13  L 49.414249999999996 0.5857500000000009  C 50.195249999999994 -0.19524999999999926  51.461625 -0.19524999999999926  52.242625 0.5857500000000009  L 55.414249999999996 3.7573750000000015  Z " fill-rule="nonzero" fill="rgba(0, 0, 0, 1)" stroke="none" class="fill" />
    <path d="M 0.58575 52.242625  C -0.19525000000000003 51.461625  -0.19525000000000003 50.195249999999994  0.58575 49.41425  L 13 37  L 8.88475 33.121375  C 6.99475 31.231375  8.33325 28  11.006 28  L 25.006 28  C 26.662875 28  28 29.343125000000004  28 31  L 28 45  C 28 47.67275  24.774625 49.011250000000004  22.88475 47.121375  L 19 43  L 6.585750000000001 55.414249999999996  C 5.804750000000001 56.19524999999999  4.538375 56.19524999999999  3.7573750000000006 55.414249999999996  L 0.58575 52.242625  Z " stroke-width="0" stroke-dasharray="0" stroke="rgba(255, 255, 255, 0)" fill="none" class="stroke" mask="url(#Clip1443)" />
    <path d="M 55.414249999999996 3.7573750000000015  C 56.19524999999999 4.538375000000002  56.19524999999999 5.804750000000002  55.41425 6.585750000000001  L 43 19  L 47.11525 22.878625  C 49.005250000000004 24.768625  47.66675 28  44.994 28  L 30.994 28  C 29.337125000000004 28  28 26.656875  28 25  L 28 11  C 28 8.32725  31.225375 6.98875  33.11525 8.878625  L 37 13  L 49.414249999999996 0.5857500000000009  C 50.195249999999994 -0.19524999999999926  51.461625 -0.19524999999999926  52.242625 0.5857500000000009  L 55.414249999999996 3.7573750000000015  Z " stroke-width="0" stroke-dasharray="0" stroke="rgba(255, 255, 255, 0)" fill="none" class="stroke" mask="url(#Clip1443)" />
  </g>
</svg>