<?xml version="1.0" encoding="utf-8"?>
<svg version="1.1" xmlns:xlink="http://www.w3.org/1999/xlink" width="13px" height="12px" xmlns="http://www.w3.org/2000/svg">
  <defs>
    <pattern id="BGPattern" patternUnits="userSpaceOnUse" alignment="0 0" imageRepeat="None" />
    <mask fill="white" id="Clip4715">
      <path d="M 0.75 6.75  C 0.3357864376269051 6.75  0 6.414213562373096  0 6  C 0 5.585786437626904  0.3357864376269051 5.25  0.75 5.25  L 9.439499999999999 5.25  L 6.219000000000001 2.0310000000000006  C 6.078170043895204 1.8901700438952034  5.999052598379887 1.6991636339118124  5.999052598379887 1.5  C 5.999052598379887 1.0852632021601512  6.335263202160151 0.7490525983798868  6.750000000000001 0.7490525983798868  C 6.949163633911812 0.7490525983798868  7.140170043895203 0.8281700438952013  7.281000000000002 0.9689999999999994  L 11.781000000000002 5.468999999999999  C 11.922062551031452 5.609706394515252  12.001340675528127 5.800759108712638  12.001340675528127 6  C 12.001340675528127 6.19924089128736  11.922062551031452 6.390293605484748  11.781000000000002 6.530999999999999  L 7.281000000000002 11.030999999999999  C 7.140170043895203 11.171829956104794  6.949163633911812 11.250947401620117  6.750000000000001 11.250947401620117  C 6.335263202160149 11.250947401620117  5.999052598379887 10.91473679783985  5.999052598379887 10.5  C 5.999052598379887 10.300836366088188  6.078170043895204 10.109829956104797  6.219000000000001 9.968999999999998  L 9.439499999999999 6.75  L 0.75 6.75  Z " fill-rule="evenodd" />
    </mask>
  </defs>
  <g>
    <path d="M 0.75 6.75  C 0.3357864376269051 6.75  0 6.414213562373096  0 6  C 0 5.585786437626904  0.3357864376269051 5.25  0.75 5.25  L 9.439499999999999 5.25  L 6.219000000000001 2.0310000000000006  C 6.078170043895204 1.8901700438952034  5.999052598379887 1.6991636339118124  5.999052598379887 1.5  C 5.999052598379887 1.0852632021601512  6.335263202160151 0.7490525983798868  6.750000000000001 0.7490525983798868  C 6.949163633911812 0.7490525983798868  7.140170043895203 0.8281700438952013  7.281000000000002 0.9689999999999994  L 11.781000000000002 5.468999999999999  C 11.922062551031452 5.609706394515252  12.001340675528127 5.800759108712638  12.001340675528127 6  C 12.001340675528127 6.19924089128736  11.922062551031452 6.390293605484748  11.781000000000002 6.530999999999999  L 7.281000000000002 11.030999999999999  C 7.140170043895203 11.171829956104794  6.949163633911812 11.250947401620117  6.750000000000001 11.250947401620117  C 6.335263202160149 11.250947401620117  5.999052598379887 10.91473679783985  5.999052598379887 10.5  C 5.999052598379887 10.300836366088188  6.078170043895204 10.109829956104797  6.219000000000001 9.968999999999998  L 9.439499999999999 6.75  L 0.75 6.75  Z " fill-rule="nonzero" fill="rgba(0, 0, 0, 1)" stroke="none" class="fill" />
    <path d="M 0.75 6.75  C 0.3357864376269051 6.75  0 6.414213562373096  0 6  C 0 5.585786437626904  0.3357864376269051 5.25  0.75 5.25  L 9.439499999999999 5.25  L 6.219000000000001 2.0310000000000006  C 6.078170043895204 1.8901700438952034  5.999052598379887 1.6991636339118124  5.999052598379887 1.5  C 5.999052598379887 1.0852632021601512  6.335263202160151 0.7490525983798868  6.750000000000001 0.7490525983798868  C 6.949163633911812 0.7490525983798868  7.140170043895203 0.8281700438952013  7.281000000000002 0.9689999999999994  L 11.781000000000002 5.468999999999999  C 11.922062551031452 5.609706394515252  12.001340675528127 5.800759108712638  12.001340675528127 6  C 12.001340675528127 6.19924089128736  11.922062551031452 6.390293605484748  11.781000000000002 6.530999999999999  L 7.281000000000002 11.030999999999999  C 7.140170043895203 11.171829956104794  6.949163633911812 11.250947401620117  6.750000000000001 11.250947401620117  C 6.335263202160149 11.250947401620117  5.999052598379887 10.91473679783985  5.999052598379887 10.5  C 5.999052598379887 10.300836366088188  6.078170043895204 10.109829956104797  6.219000000000001 9.968999999999998  L 9.439499999999999 6.75  L 0.75 6.75  Z " stroke-width="0" stroke-dasharray="0" stroke="rgba(255, 255, 255, 0)" fill="none" class="stroke" mask="url(#Clip4715)" />
  </g>
</svg>