<?xml version="1.0" encoding="utf-8"?>
<svg version="1.1" xmlns:xlink="http://www.w3.org/1999/xlink" width="24px" height="22px" xmlns="http://www.w3.org/2000/svg">
  <defs>
    <pattern id="BGPattern" patternUnits="userSpaceOnUse" alignment="0 0" imageRepeat="None" />
    <mask fill="white" id="Clip5775">
      <path d="M 16.5 4.689500000000001  L 13.060500000000001 1.25  C 12.47475022277128 0.6644270925007048  11.525249777228723 0.6644270925007061  10.939500000000002 1.25  L 0.9690000000000001 11.219000000000001  C 0.8284988056107242 11.359699923094212  0.7495827410700093 11.550410733295637  0.7495827410700093 11.749250000000002  C 0.7495827410700093 12.163694008116861  1.0855559918831408 12.499667258929993  1.5 12.499667258929993  C 1.69920680886921 12.499667258929993  1.8902390977873909 12.420459998255344  2.031 12.279500000000002  L 3 11.310500000000001  L 3 19.25  C 3 20.492640687119284  4.007359312880714 21.5  5.25 21.5  L 18.749999999999996 21.5  C 19.992640687119284 21.5  20.999999999999996 20.492640687119284  21 19.25  L 21 11.310500000000001  L 21.969 12.279500000000002  C 22.109760902212606 12.420459998255343  22.300793191130794 12.499667258929993  22.5 12.499667258929993  C 22.91444400811686 12.499667258929993  23.250417258929993 12.163694008116861  23.250417258929993 11.749250000000002  C 23.250417258929993 11.550410733295637  23.17150119438928 11.359699923094212  23.031000000000002 11.219000000000001  L 19.5 7.689500000000001  L 19.5 2.75  C 19.5 2.335786437626905  19.164213562373096 2  18.75 2  L 17.25 2  C 16.835786437626904 2  16.5 2.335786437626905  16.5 2.75  L 16.5 4.689500000000001  Z M 19.5 19.25  L 19.5 9.8105  L 12 2.3104999999999998  L 4.5 9.8105  L 4.5 19.25  C 4.5 19.664213562373096  4.835786437626905 20  5.25 20  L 18.75 20  C 19.164213562373096 20  19.5 19.664213562373096  19.5 19.25  Z M 12 17  C 3.2624999999999997 11.354000000000001  9.504000000000001 6.963500000000001  12 9.473  C 14.495999999999999 6.963500000000001  20.737499999999997 11.354000000000001  12 17  Z " fill-rule="evenodd" />
    </mask>
  </defs>
  <g>
    <path d="M 16.5 4.689500000000001  L 13.060500000000001 1.25  C 12.47475022277128 0.6644270925007048  11.525249777228723 0.6644270925007061  10.939500000000002 1.25  L 0.9690000000000001 11.219000000000001  C 0.8284988056107242 11.359699923094212  0.7495827410700093 11.550410733295637  0.7495827410700093 11.749250000000002  C 0.7495827410700093 12.163694008116861  1.0855559918831408 12.499667258929993  1.5 12.499667258929993  C 1.69920680886921 12.499667258929993  1.8902390977873909 12.420459998255344  2.031 12.279500000000002  L 3 11.310500000000001  L 3 19.25  C 3 20.492640687119284  4.007359312880714 21.5  5.25 21.5  L 18.749999999999996 21.5  C 19.992640687119284 21.5  20.999999999999996 20.492640687119284  21 19.25  L 21 11.310500000000001  L 21.969 12.279500000000002  C 22.109760902212606 12.420459998255343  22.300793191130794 12.499667258929993  22.5 12.499667258929993  C 22.91444400811686 12.499667258929993  23.250417258929993 12.163694008116861  23.250417258929993 11.749250000000002  C 23.250417258929993 11.550410733295637  23.17150119438928 11.359699923094212  23.031000000000002 11.219000000000001  L 19.5 7.689500000000001  L 19.5 2.75  C 19.5 2.335786437626905  19.164213562373096 2  18.75 2  L 17.25 2  C 16.835786437626904 2  16.5 2.335786437626905  16.5 2.75  L 16.5 4.689500000000001  Z M 19.5 19.25  L 19.5 9.8105  L 12 2.3104999999999998  L 4.5 9.8105  L 4.5 19.25  C 4.5 19.664213562373096  4.835786437626905 20  5.25 20  L 18.75 20  C 19.164213562373096 20  19.5 19.664213562373096  19.5 19.25  Z M 12 17  C 3.2624999999999997 11.354000000000001  9.504000000000001 6.963500000000001  12 9.473  C 14.495999999999999 6.963500000000001  20.737499999999997 11.354000000000001  12 17  Z " fill-rule="nonzero" fill="rgba(0, 0, 0, 1)" stroke="none" class="fill" />
    <path d="M 16.5 4.689500000000001  L 13.060500000000001 1.25  C 12.47475022277128 0.6644270925007048  11.525249777228723 0.6644270925007061  10.939500000000002 1.25  L 0.9690000000000001 11.219000000000001  C 0.8284988056107242 11.359699923094212  0.7495827410700093 11.550410733295637  0.7495827410700093 11.749250000000002  C 0.7495827410700093 12.163694008116861  1.0855559918831408 12.499667258929993  1.5 12.499667258929993  C 1.69920680886921 12.499667258929993  1.8902390977873909 12.420459998255344  2.031 12.279500000000002  L 3 11.310500000000001  L 3 19.25  C 3 20.492640687119284  4.007359312880714 21.5  5.25 21.5  L 18.749999999999996 21.5  C 19.992640687119284 21.5  20.999999999999996 20.492640687119284  21 19.25  L 21 11.310500000000001  L 21.969 12.279500000000002  C 22.109760902212606 12.420459998255343  22.300793191130794 12.499667258929993  22.5 12.499667258929993  C 22.91444400811686 12.499667258929993  23.250417258929993 12.163694008116861  23.250417258929993 11.749250000000002  C 23.250417258929993 11.550410733295637  23.17150119438928 11.359699923094212  23.031000000000002 11.219000000000001  L 19.5 7.689500000000001  L 19.5 2.75  C 19.5 2.335786437626905  19.164213562373096 2  18.75 2  L 17.25 2  C 16.835786437626904 2  16.5 2.335786437626905  16.5 2.75  L 16.5 4.689500000000001  Z " stroke-width="0" stroke-dasharray="0" stroke="rgba(255, 255, 255, 0)" fill="none" class="stroke" mask="url(#Clip5775)" />
    <path d="M 19.5 19.25  L 19.5 9.8105  L 12 2.3104999999999998  L 4.5 9.8105  L 4.5 19.25  C 4.5 19.664213562373096  4.835786437626905 20  5.25 20  L 18.75 20  C 19.164213562373096 20  19.5 19.664213562373096  19.5 19.25  Z " stroke-width="0" stroke-dasharray="0" stroke="rgba(255, 255, 255, 0)" fill="none" class="stroke" mask="url(#Clip5775)" />
    <path d="M 12 17  C 3.2624999999999997 11.354000000000001  9.504000000000001 6.963500000000001  12 9.473  C 14.495999999999999 6.963500000000001  20.737499999999997 11.354000000000001  12 17  Z " stroke-width="0" stroke-dasharray="0" stroke="rgba(255, 255, 255, 0)" fill="none" class="stroke" mask="url(#Clip5775)" />
  </g>
</svg>