<?xml version="1.0" encoding="utf-8"?>
<svg version="1.1" xmlns:xlink="http://www.w3.org/1999/xlink" width="10px" height="14px" xmlns="http://www.w3.org/2000/svg">
  <defs>
    <pattern id="BGPattern" patternUnits="userSpaceOnUse" alignment="0 0" imageRepeat="None" />
    <mask fill="white" id="Clip6533">
      <path d="M 8.282 0.4150000000000009  C 8.507212245028418 0.23496995485726035  8.815688741062317 0.1999820725093704  9.075500000000002 0.3249999999999993  C 9.334794521753082 0.449910735512443  9.499737206215734 0.7121870888982809  9.5 1  L 9.5 13  C 9.499410947412105 13.41379626169265  9.163797440876358 13.748932351414961  8.750000759916052 13.748932351414961  C 8.579925692584911 13.748932351414961  8.414900659724939 13.691127014338331  8.282 13.585  L 4.737500000000001 10.75  L 1.25 10.75  C 0.8357864376269051 10.75  0.5 10.414213562373096  0.5 10  L 0.5 4  C 0.5 3.585786437626904  0.8357864376269051 3.25  1.25 3.25  L 4.737500000000001 3.25  L 8.282 0.4150000000000009  Z " fill-rule="evenodd" />
    </mask>
  </defs>
  <g>
    <path d="M 8.282 0.4150000000000009  C 8.507212245028418 0.23496995485726035  8.815688741062317 0.1999820725093704  9.075500000000002 0.3249999999999993  C 9.334794521753082 0.449910735512443  9.499737206215734 0.7121870888982809  9.5 1  L 9.5 13  C 9.499410947412105 13.41379626169265  9.163797440876358 13.748932351414961  8.750000759916052 13.748932351414961  C 8.579925692584911 13.748932351414961  8.414900659724939 13.691127014338331  8.282 13.585  L 4.737500000000001 10.75  L 1.25 10.75  C 0.8357864376269051 10.75  0.5 10.414213562373096  0.5 10  L 0.5 4  C 0.5 3.585786437626904  0.8357864376269051 3.25  1.25 3.25  L 4.737500000000001 3.25  L 8.282 0.4150000000000009  Z " fill-rule="nonzero" fill="rgba(0, 0, 0, 1)" stroke="none" class="fill" />
    <path d="M 8.282 0.4150000000000009  C 8.507212245028418 0.23496995485726035  8.815688741062317 0.1999820725093704  9.075500000000002 0.3249999999999993  C 9.334794521753082 0.449910735512443  9.499737206215734 0.7121870888982809  9.5 1  L 9.5 13  C 9.499410947412105 13.41379626169265  9.163797440876358 13.748932351414961  8.750000759916052 13.748932351414961  C 8.579925692584911 13.748932351414961  8.414900659724939 13.691127014338331  8.282 13.585  L 4.737500000000001 10.75  L 1.25 10.75  C 0.8357864376269051 10.75  0.5 10.414213562373096  0.5 10  L 0.5 4  C 0.5 3.585786437626904  0.8357864376269051 3.25  1.25 3.25  L 4.737500000000001 3.25  L 8.282 0.4150000000000009  Z " stroke-width="0" stroke-dasharray="0" stroke="rgba(255, 255, 255, 0)" fill="none" class="stroke" mask="url(#Clip6533)" />
  </g>
</svg>