<?xml version="1.0" encoding="utf-8"?>
<svg version="1.1" xmlns:xlink="http://www.w3.org/1999/xlink" width="51px" height="51px" xmlns="http://www.w3.org/2000/svg">
  <defs>
    <pattern id="BGPattern" patternUnits="userSpaceOnUse" alignment="0 0" imageRepeat="None" />
    <mask fill="white" id="Clip2739">
      <path d="M 50.00021558134527 46.768750000000004  C 50.00021558134527 46.63277372469048  49.946178341072596 46.502371143124584  49.85 46.40625  L 33.61875 30.174999999999994  C 36.1375 26.91875  37.5 22.9375  37.5 18.75  C 37.5 13.737499999999999  35.54375 9.037500000000001  32.00625 5.49375  C 28.46875 1.9499999999999995  23.75625 0  18.75 0  C 13.743749999999999 0  9.03125 1.956250000000001  5.49375 5.49375  C 1.9499999999999995 9.03125  0 13.737499999999999  0 18.75  C 0 23.75625  1.956250000000001 28.46875  5.49375 32.00625  C 9.03125 35.55  13.737499999999999 37.5  18.75 37.5  C 22.9375 37.5  26.9125 36.1375  30.16875 33.625  L 46.400000000000006 49.85  C 46.49612114312459 49.946178341072596  46.62652372469048 50.000215581345266  46.76250000000001 50.000215581345266  C 46.89847627530954 50.000215581345266  47.02887885687543 49.94617834107259  47.12500000000001 49.85  L 49.85000000000001 47.13125  C 49.946178341072596 47.03512885687543  50.00021558134527 46.90472627530953  50.00021558134527 46.768750000000004  Z M 32.75 18.75  C 32.75 22.4875  31.293750000000003 26.006250000000005  28.65 28.65  C 26 31.293750000000003  22.4875 32.75  18.75 32.75  C 15.012500000000001 32.75  11.5 31.293750000000003  8.85 28.65  C 6.206250000000001 26  4.75 22.4875  4.75 18.75  C 4.75 15.012500000000001  6.206250000000001 11.493749999999999  8.85 8.85  C 11.5 6.206250000000001  15.012500000000001 4.75  18.75 4.75  C 22.4875 4.75  26.006250000000005 6.199999999999999  28.65 8.85  C 31.293749999999996 11.5  32.75 15.012500000000001  32.75 18.75  Z " fill-rule="evenodd" />
    </mask>
  </defs>
  <g>
    <path d="M 50.00021558134527 46.768750000000004  C 50.00021558134527 46.63277372469048  49.946178341072596 46.502371143124584  49.85 46.40625  L 33.61875 30.174999999999994  C 36.1375 26.91875  37.5 22.9375  37.5 18.75  C 37.5 13.737499999999999  35.54375 9.037500000000001  32.00625 5.49375  C 28.46875 1.9499999999999995  23.75625 0  18.75 0  C 13.743749999999999 0  9.03125 1.956250000000001  5.49375 5.49375  C 1.9499999999999995 9.03125  0 13.737499999999999  0 18.75  C 0 23.75625  1.956250000000001 28.46875  5.49375 32.00625  C 9.03125 35.55  13.737499999999999 37.5  18.75 37.5  C 22.9375 37.5  26.9125 36.1375  30.16875 33.625  L 46.400000000000006 49.85  C 46.49612114312459 49.946178341072596  46.62652372469048 50.000215581345266  46.76250000000001 50.000215581345266  C 46.89847627530954 50.000215581345266  47.02887885687543 49.94617834107259  47.12500000000001 49.85  L 49.85000000000001 47.13125  C 49.946178341072596 47.03512885687543  50.00021558134527 46.90472627530953  50.00021558134527 46.768750000000004  Z M 32.75 18.75  C 32.75 22.4875  31.293750000000003 26.006250000000005  28.65 28.65  C 26 31.293750000000003  22.4875 32.75  18.75 32.75  C 15.012500000000001 32.75  11.5 31.293750000000003  8.85 28.65  C 6.206250000000001 26  4.75 22.4875  4.75 18.75  C 4.75 15.012500000000001  6.206250000000001 11.493749999999999  8.85 8.85  C 11.5 6.206250000000001  15.012500000000001 4.75  18.75 4.75  C 22.4875 4.75  26.006250000000005 6.199999999999999  28.65 8.85  C 31.293749999999996 11.5  32.75 15.012500000000001  32.75 18.75  Z " fill-rule="nonzero" fill="rgba(0, 0, 0, 1)" stroke="none" class="fill" />
    <path d="M 50.00021558134527 46.768750000000004  C 50.00021558134527 46.63277372469048  49.946178341072596 46.502371143124584  49.85 46.40625  L 33.61875 30.174999999999994  C 36.1375 26.91875  37.5 22.9375  37.5 18.75  C 37.5 13.737499999999999  35.54375 9.037500000000001  32.00625 5.49375  C 28.46875 1.9499999999999995  23.75625 0  18.75 0  C 13.743749999999999 0  9.03125 1.956250000000001  5.49375 5.49375  C 1.9499999999999995 9.03125  0 13.737499999999999  0 18.75  C 0 23.75625  1.956250000000001 28.46875  5.49375 32.00625  C 9.03125 35.55  13.737499999999999 37.5  18.75 37.5  C 22.9375 37.5  26.9125 36.1375  30.16875 33.625  L 46.400000000000006 49.85  C 46.49612114312459 49.946178341072596  46.62652372469048 50.000215581345266  46.76250000000001 50.000215581345266  C 46.89847627530954 50.000215581345266  47.02887885687543 49.94617834107259  47.12500000000001 49.85  L 49.85000000000001 47.13125  C 49.946178341072596 47.03512885687543  50.00021558134527 46.90472627530953  50.00021558134527 46.768750000000004  Z " stroke-width="0" stroke-dasharray="0" stroke="rgba(255, 255, 255, 0)" fill="none" class="stroke" mask="url(#Clip2739)" />
    <path d="M 32.75 18.75  C 32.75 22.4875  31.293750000000003 26.006250000000005  28.65 28.65  C 26 31.293750000000003  22.4875 32.75  18.75 32.75  C 15.012500000000001 32.75  11.5 31.293750000000003  8.85 28.65  C 6.206250000000001 26  4.75 22.4875  4.75 18.75  C 4.75 15.012500000000001  6.206250000000001 11.493749999999999  8.85 8.85  C 11.5 6.206250000000001  15.012500000000001 4.75  18.75 4.75  C 22.4875 4.75  26.006250000000005 6.199999999999999  28.65 8.85  C 31.293749999999996 11.5  32.75 15.012500000000001  32.75 18.75  Z " stroke-width="0" stroke-dasharray="0" stroke="rgba(255, 255, 255, 0)" fill="none" class="stroke" mask="url(#Clip2739)" />
  </g>
</svg>