<?xml version="1.0" encoding="utf-8"?>
<svg version="1.1" xmlns:xlink="http://www.w3.org/1999/xlink" width="50px" height="50px" xmlns="http://www.w3.org/2000/svg">
  <defs>
    <pattern id="BGPattern" patternUnits="userSpaceOnUse" alignment="0 0" imageRepeat="None" />
    <mask fill="white" id="Clip1145">
      <path d="M 39.09979838709677 21.584677419354847  C 38.69758064516128 19.044354838709666  35.654233870967744 17.33870967741936  33.064516129032256 17.33870967741936  C 30.47479838709677 17.33870967741936  27.431451612903228 19.044354838709694  27.030241935483872 21.584677419354847  C 26.85383064516128 22.715725806451616  28.189516129032256 23.423387096774206  29.02923387096774 22.67741935483872  L 29.991935483870975 21.82258064516128  C 31.48487903225806 20.492943548387103  34.64516129032258 20.492943548387103  36.13810483870968 21.82258064516128  L 37.1008064516129 22.67741935483872  C 37.955645161290334 23.42641129032259  39.2741935483871 22.70262096774195  39.09979838709677 21.584677419354847  Z M 13.709677419354833 20.16129032258064  C 13.709677419354833 21.94254032258064  15.154233870967742 23.387096774193537  16.935483870967744 23.387096774193537  C 18.716733870967744 23.387096774193537  20.16129032258064 21.94254032258064  20.16129032258064 20.16129032258064  C 20.16129032258064 18.38004032258064  18.716733870967744 16.935483870967744  16.935483870967744 16.935483870967744  C 15.154233870967742 16.935483870967744  13.709677419354833 18.38004032258064  13.709677419354833 20.16129032258064  Z M 37.42540322580646 31.449596774193537  C 37.59475806451613 30.45262096774195  36.65221774193549 29.586693548387107  35.640120967741936 29.903225806451616  C 33.02620967741936 30.73991935483872  29.148185483870957 31.219758064516128  25 31.219758064516128  C 20.85181451612904 31.219758064516128  16.97379032258064 30.740927419354847  14.359879032258064 29.903225806451616  C 13.35786290322581 29.587701612903235  12.404233870967744 30.444556451612897  12.574596774193553 31.449596774193537  C 13.373991935483872 36.20262096774195  19.764112903225808 39.51612903225805  25 39.51612903225805  C 30.235887096774196 39.51612903225805  36.62600806451613 36.20262096774195  37.42540322580646 31.449596774193537  Z M 50 25  C 50 11.19254032258064  38.80745967741936 0  25 0  C 11.19254032258064 0  0 11.19254032258064  0 25  C 0 38.80745967741936  11.19254032258064 50  25 50  C 38.80745967741936 50  50 38.80745967741936  50 25  Z M 45.16129032258064 25  C 45.16129032258064 36.116935483870975  36.116935483870975 45.16129032258064  25 45.16129032258064  C 13.883064516129027 45.16129032258064  4.838709677419359 36.116935483870975  4.838709677419359 25  C 4.838709677419359 13.883064516129027  13.883064516129027 4.838709677419359  25 4.838709677419359  C 36.116935483870975 4.838709677419359  45.16129032258064 13.883064516129027  45.16129032258064 25  Z " fill-rule="evenodd" />
    </mask>
  </defs>
  <g>
    <path d="M 39.09979838709677 21.584677419354847  C 38.69758064516128 19.044354838709666  35.654233870967744 17.33870967741936  33.064516129032256 17.33870967741936  C 30.47479838709677 17.33870967741936  27.431451612903228 19.044354838709694  27.030241935483872 21.584677419354847  C 26.85383064516128 22.715725806451616  28.189516129032256 23.423387096774206  29.02923387096774 22.67741935483872  L 29.991935483870975 21.82258064516128  C 31.48487903225806 20.492943548387103  34.64516129032258 20.492943548387103  36.13810483870968 21.82258064516128  L 37.1008064516129 22.67741935483872  C 37.955645161290334 23.42641129032259  39.2741935483871 22.70262096774195  39.09979838709677 21.584677419354847  Z M 13.709677419354833 20.16129032258064  C 13.709677419354833 21.94254032258064  15.154233870967742 23.387096774193537  16.935483870967744 23.387096774193537  C 18.716733870967744 23.387096774193537  20.16129032258064 21.94254032258064  20.16129032258064 20.16129032258064  C 20.16129032258064 18.38004032258064  18.716733870967744 16.935483870967744  16.935483870967744 16.935483870967744  C 15.154233870967742 16.935483870967744  13.709677419354833 18.38004032258064  13.709677419354833 20.16129032258064  Z M 37.42540322580646 31.449596774193537  C 37.59475806451613 30.45262096774195  36.65221774193549 29.586693548387107  35.640120967741936 29.903225806451616  C 33.02620967741936 30.73991935483872  29.148185483870957 31.219758064516128  25 31.219758064516128  C 20.85181451612904 31.219758064516128  16.97379032258064 30.740927419354847  14.359879032258064 29.903225806451616  C 13.35786290322581 29.587701612903235  12.404233870967744 30.444556451612897  12.574596774193553 31.449596774193537  C 13.373991935483872 36.20262096774195  19.764112903225808 39.51612903225805  25 39.51612903225805  C 30.235887096774196 39.51612903225805  36.62600806451613 36.20262096774195  37.42540322580646 31.449596774193537  Z M 50 25  C 50 11.19254032258064  38.80745967741936 0  25 0  C 11.19254032258064 0  0 11.19254032258064  0 25  C 0 38.80745967741936  11.19254032258064 50  25 50  C 38.80745967741936 50  50 38.80745967741936  50 25  Z M 45.16129032258064 25  C 45.16129032258064 36.116935483870975  36.116935483870975 45.16129032258064  25 45.16129032258064  C 13.883064516129027 45.16129032258064  4.838709677419359 36.116935483870975  4.838709677419359 25  C 4.838709677419359 13.883064516129027  13.883064516129027 4.838709677419359  25 4.838709677419359  C 36.116935483870975 4.838709677419359  45.16129032258064 13.883064516129027  45.16129032258064 25  Z " fill-rule="nonzero" fill="rgba(0, 0, 0, 1)" stroke="none" class="fill" />
    <path d="M 39.09979838709677 21.584677419354847  C 38.69758064516128 19.044354838709666  35.654233870967744 17.33870967741936  33.064516129032256 17.33870967741936  C 30.47479838709677 17.33870967741936  27.431451612903228 19.044354838709694  27.030241935483872 21.584677419354847  C 26.85383064516128 22.715725806451616  28.189516129032256 23.423387096774206  29.02923387096774 22.67741935483872  L 29.991935483870975 21.82258064516128  C 31.48487903225806 20.492943548387103  34.64516129032258 20.492943548387103  36.13810483870968 21.82258064516128  L 37.1008064516129 22.67741935483872  C 37.955645161290334 23.42641129032259  39.2741935483871 22.70262096774195  39.09979838709677 21.584677419354847  Z " stroke-width="0" stroke-dasharray="0" stroke="rgba(255, 255, 255, 0)" fill="none" class="stroke" mask="url(#Clip1145)" />
    <path d="M 13.709677419354833 20.16129032258064  C 13.709677419354833 21.94254032258064  15.154233870967742 23.387096774193537  16.935483870967744 23.387096774193537  C 18.716733870967744 23.387096774193537  20.16129032258064 21.94254032258064  20.16129032258064 20.16129032258064  C 20.16129032258064 18.38004032258064  18.716733870967744 16.935483870967744  16.935483870967744 16.935483870967744  C 15.154233870967742 16.935483870967744  13.709677419354833 18.38004032258064  13.709677419354833 20.16129032258064  Z " stroke-width="0" stroke-dasharray="0" stroke="rgba(255, 255, 255, 0)" fill="none" class="stroke" mask="url(#Clip1145)" />
    <path d="M 37.42540322580646 31.449596774193537  C 37.59475806451613 30.45262096774195  36.65221774193549 29.586693548387107  35.640120967741936 29.903225806451616  C 33.02620967741936 30.73991935483872  29.148185483870957 31.219758064516128  25 31.219758064516128  C 20.85181451612904 31.219758064516128  16.97379032258064 30.740927419354847  14.359879032258064 29.903225806451616  C 13.35786290322581 29.587701612903235  12.404233870967744 30.444556451612897  12.574596774193553 31.449596774193537  C 13.373991935483872 36.20262096774195  19.764112903225808 39.51612903225805  25 39.51612903225805  C 30.235887096774196 39.51612903225805  36.62600806451613 36.20262096774195  37.42540322580646 31.449596774193537  Z " stroke-width="0" stroke-dasharray="0" stroke="rgba(255, 255, 255, 0)" fill="none" class="stroke" mask="url(#Clip1145)" />
    <path d="M 50 25  C 50 11.19254032258064  38.80745967741936 0  25 0  C 11.19254032258064 0  0 11.19254032258064  0 25  C 0 38.80745967741936  11.19254032258064 50  25 50  C 38.80745967741936 50  50 38.80745967741936  50 25  Z " stroke-width="0" stroke-dasharray="0" stroke="rgba(255, 255, 255, 0)" fill="none" class="stroke" mask="url(#Clip1145)" />
    <path d="M 45.16129032258064 25  C 45.16129032258064 36.116935483870975  36.116935483870975 45.16129032258064  25 45.16129032258064  C 13.883064516129027 45.16129032258064  4.838709677419359 36.116935483870975  4.838709677419359 25  C 4.838709677419359 13.883064516129027  13.883064516129027 4.838709677419359  25 4.838709677419359  C 36.116935483870975 4.838709677419359  45.16129032258064 13.883064516129027  45.16129032258064 25  Z " stroke-width="0" stroke-dasharray="0" stroke="rgba(255, 255, 255, 0)" fill="none" class="stroke" mask="url(#Clip1145)" />
  </g>
</svg>