<?xml version="1.0" encoding="utf-8"?>
<svg version="1.1" xmlns:xlink="http://www.w3.org/1999/xlink" width="10px" height="6px" xmlns="http://www.w3.org/2000/svg">
  <defs>
    <pattern id="BGPattern" patternUnits="userSpaceOnUse" alignment="0 0" imageRepeat="None" />
    <mask fill="white" id="Clip3229">
      <path d="M 0 1  L 5 6  L 10 1  L 9.3 0.2999999999999998  L 5 4.6  L 0.7000000000000002 0.2999999999999998  L 0 1  Z " fill-rule="evenodd" />
    </mask>
  </defs>
  <g transform="matrix(1 0 0 1 -3 -4 )">
    <path d="M 0 1  L 5 6  L 10 1  L 9.3 0.2999999999999998  L 5 4.6  L 0.7000000000000002 0.2999999999999998  L 0 1  Z " fill-rule="nonzero" fill="rgba(0, 0, 0, 1)" stroke="none" transform="matrix(1 0 0 1 3 4 )" class="fill" />
    <path d="M 0 1  L 5 6  L 10 1  L 9.3 0.2999999999999998  L 5 4.6  L 0.7000000000000002 0.2999999999999998  L 0 1  Z " stroke-width="0" stroke-dasharray="0" stroke="rgba(255, 255, 255, 0)" fill="none" transform="matrix(1 0 0 1 3 4 )" class="stroke" mask="url(#Clip3229)" />
  </g>
</svg>