<?xml version="1.0" encoding="utf-8"?>
<svg version="1.1" xmlns:xlink="http://www.w3.org/1999/xlink" width="48px" height="48px" xmlns="http://www.w3.org/2000/svg">
  <defs>
    <pattern id="BGPattern" patternUnits="userSpaceOnUse" alignment="0 0" imageRepeat="None" />
    <mask fill="white" id="Clip7360">
      <path d="M 24 48  L 48 24  L 24 0  L 0 24  L 24 48  Z M 24 6.392000000000001  L 24 6.394  L 32.836 15.23  C 29.945999999999998 14.458000000000002  26.976 14.058  24 14.058  C 21.024 14.058  18.052 14.456  15.164000000000001 15.234000000000002  L 24 6.392000000000001  Z M 24 41.608  L 16.138 33.74  C 18.518 32.424  21.206000000000003 31.724000000000004  24 31.724000000000004  C 26.793999999999997 31.724000000000004  29.482 32.42400000000001  31.862000000000002 33.74  L 24 41.608  Z M 41.361999999999995 24.244  L 35.156000000000006 30.446  C 31.762000000000008 28.286  27.884000000000007 27.202  24.000000000000007 27.202  C 20.116000000000007 27.202  16.238000000000007 28.286  12.844000000000005 30.446  L 6.638000000000005 24.244  C 11.644 20.568  17.668 18.58  24 18.58  C 30.332 18.58  36.356 20.567999999999998  41.361999999999995 24.244  Z " fill-rule="evenodd" />
    </mask>
  </defs>
  <g>
    <path d="M 24 48  L 48 24  L 24 0  L 0 24  L 24 48  Z M 24 6.392000000000001  L 24 6.394  L 32.836 15.23  C 29.945999999999998 14.458000000000002  26.976 14.058  24 14.058  C 21.024 14.058  18.052 14.456  15.164000000000001 15.234000000000002  L 24 6.392000000000001  Z M 24 41.608  L 16.138 33.74  C 18.518 32.424  21.206000000000003 31.724000000000004  24 31.724000000000004  C 26.793999999999997 31.724000000000004  29.482 32.42400000000001  31.862000000000002 33.74  L 24 41.608  Z M 41.361999999999995 24.244  L 35.156000000000006 30.446  C 31.762000000000008 28.286  27.884000000000007 27.202  24.000000000000007 27.202  C 20.116000000000007 27.202  16.238000000000007 28.286  12.844000000000005 30.446  L 6.638000000000005 24.244  C 11.644 20.568  17.668 18.58  24 18.58  C 30.332 18.58  36.356 20.567999999999998  41.361999999999995 24.244  Z " fill-rule="nonzero" fill="rgba(137, 201, 103, 1)" stroke="none" class="fill" />
    <path d="M 24 48  L 48 24  L 24 0  L 0 24  L 24 48  Z " stroke-width="0" stroke-dasharray="0" stroke="rgba(255, 255, 255, 0)" fill="none" class="stroke" mask="url(#Clip7360)" />
    <path d="M 24 6.392000000000001  L 24 6.394  L 32.836 15.23  C 29.945999999999998 14.458000000000002  26.976 14.058  24 14.058  C 21.024 14.058  18.052 14.456  15.164000000000001 15.234000000000002  L 24 6.392000000000001  Z " stroke-width="0" stroke-dasharray="0" stroke="rgba(255, 255, 255, 0)" fill="none" class="stroke" mask="url(#Clip7360)" />
    <path d="M 24 41.608  L 16.138 33.74  C 18.518 32.424  21.206000000000003 31.724000000000004  24 31.724000000000004  C 26.793999999999997 31.724000000000004  29.482 32.42400000000001  31.862000000000002 33.74  L 24 41.608  Z " stroke-width="0" stroke-dasharray="0" stroke="rgba(255, 255, 255, 0)" fill="none" class="stroke" mask="url(#Clip7360)" />
    <path d="M 41.361999999999995 24.244  L 35.156000000000006 30.446  C 31.762000000000008 28.286  27.884000000000007 27.202  24.000000000000007 27.202  C 20.116000000000007 27.202  16.238000000000007 28.286  12.844000000000005 30.446  L 6.638000000000005 24.244  C 11.644 20.568  17.668 18.58  24 18.58  C 30.332 18.58  36.356 20.567999999999998  41.361999999999995 24.244  Z " stroke-width="0" stroke-dasharray="0" stroke="rgba(255, 255, 255, 0)" fill="none" class="stroke" mask="url(#Clip7360)" />
  </g>
</svg>