<?xml version="1.0" encoding="utf-8"?>
<svg version="1.1" xmlns:xlink="http://www.w3.org/1999/xlink" width="20px" height="20px" xmlns="http://www.w3.org/2000/svg">
  <defs>
    <pattern id="BGPattern" patternUnits="userSpaceOnUse" alignment="0 0" imageRepeat="None" />
    <mask fill="white" id="Clip48">
      <path d="M 17.551999999999992 0.7520000000000024  C 17.775999999999993 0.5280000000000022  18.095999999999993 0.40000000000000213  18.4 0.40000000000000036  C 19.072 0.40000000000000036  19.599999999999998 0.9280000000000008  19.599999999999998 1.6000000000000005  C 19.599999999999998 1.9040000000000008  19.488 2.208  19.247999999999998 2.4480000000000004  L 4.495999999999997 17.200000000000003  L 13.599999999999994 17.200000000000003  C 14.271999999999995 17.200000000000003  14.799999999999994 17.728  14.799999999999994 18.400000000000002  C 14.799999999999994 19.088  14.287999999999993 19.6  13.599999999999994 19.6  L 1.5999999999999943 19.6  C 0.9279999999999946 19.6  0.39999999999999414 19.072000000000003  0.39999999999999414 18.400000000000002  L 0.39999999999999414 6.400000000000002  C 0.39999999999999414 5.7280000000000015  0.9279999999999937 5.200000000000003  1.5999999999999943 5.200000000000003  C 2.271999999999995 5.200000000000003  2.7999999999999936 5.728000000000003  2.7999999999999936 6.400000000000002  L 2.7999999999999936 15.520000000000003  L 17.551999999999992 0.7520000000000024  Z " fill-rule="evenodd" />
    </mask>
  </defs>
  <g>
    <path d="M 17.551999999999992 0.7520000000000024  C 17.775999999999993 0.5280000000000022  18.095999999999993 0.40000000000000213  18.4 0.40000000000000036  C 19.072 0.40000000000000036  19.599999999999998 0.9280000000000008  19.599999999999998 1.6000000000000005  C 19.599999999999998 1.9040000000000008  19.488 2.208  19.247999999999998 2.4480000000000004  L 4.495999999999997 17.200000000000003  L 13.599999999999994 17.200000000000003  C 14.271999999999995 17.200000000000003  14.799999999999994 17.728  14.799999999999994 18.400000000000002  C 14.799999999999994 19.088  14.287999999999993 19.6  13.599999999999994 19.6  L 1.5999999999999943 19.6  C 0.9279999999999946 19.6  0.39999999999999414 19.072000000000003  0.39999999999999414 18.400000000000002  L 0.39999999999999414 6.400000000000002  C 0.39999999999999414 5.7280000000000015  0.9279999999999937 5.200000000000003  1.5999999999999943 5.200000000000003  C 2.271999999999995 5.200000000000003  2.7999999999999936 5.728000000000003  2.7999999999999936 6.400000000000002  L 2.7999999999999936 15.520000000000003  L 17.551999999999992 0.7520000000000024  Z " fill-rule="nonzero" fill="rgba(0, 0, 0, 1)" stroke="none" class="fill" />
    <path d="M 17.551999999999992 0.7520000000000024  C 17.775999999999993 0.5280000000000022  18.095999999999993 0.40000000000000213  18.4 0.40000000000000036  C 19.072 0.40000000000000036  19.599999999999998 0.9280000000000008  19.599999999999998 1.6000000000000005  C 19.599999999999998 1.9040000000000008  19.488 2.208  19.247999999999998 2.4480000000000004  L 4.495999999999997 17.200000000000003  L 13.599999999999994 17.200000000000003  C 14.271999999999995 17.200000000000003  14.799999999999994 17.728  14.799999999999994 18.400000000000002  C 14.799999999999994 19.088  14.287999999999993 19.6  13.599999999999994 19.6  L 1.5999999999999943 19.6  C 0.9279999999999946 19.6  0.39999999999999414 19.072000000000003  0.39999999999999414 18.400000000000002  L 0.39999999999999414 6.400000000000002  C 0.39999999999999414 5.7280000000000015  0.9279999999999937 5.200000000000003  1.5999999999999943 5.200000000000003  C 2.271999999999995 5.200000000000003  2.7999999999999936 5.728000000000003  2.7999999999999936 6.400000000000002  L 2.7999999999999936 15.520000000000003  L 17.551999999999992 0.7520000000000024  Z " stroke-width="0" stroke-dasharray="0" stroke="rgba(255, 255, 255, 0)" fill="none" class="stroke" mask="url(#Clip48)" />
  </g>
</svg>