<?xml version="1.0" encoding="utf-8"?>
<svg version="1.1" xmlns:xlink="http://www.w3.org/1999/xlink" width="50px" height="15px" xmlns="http://www.w3.org/2000/svg">
  <defs>
    <pattern id="BGPattern" patternUnits="userSpaceOnUse" alignment="0 0" imageRepeat="None" />
    <mask fill="white" id="Clip1505">
      <path d="M 25 0  C 29.012096774193534 0  32.258064516129025 3.2459677419354875  32.258064516129025 7.258064516129025  C 32.258064516129025 11.270161290322562  29.012096774193534 14.51612903225805  25 14.51612903225805  C 20.987903225806463 14.51612903225805  17.741935483870975 11.270161290322562  17.741935483870975 7.258064516129025  C 17.741935483870975 3.2459677419354875  20.987903225806463 0  25 0  Z M 50 7.258064516129025  C 50 3.2459677419354875  46.75403225806451 0  42.741935483870975 0  C 38.72983870967741 0  35.48387096774195 3.2459677419354875  35.48387096774195 7.258064516129025  C 35.48387096774195 11.270161290322562  38.72983870967741 14.51612903225805  42.741935483870975 14.51612903225805  C 46.75403225806451 14.51612903225805  50 11.270161290322562  50 7.258064516129025  Z M 14.51612903225808 7.258064516129025  C 14.51612903225808 3.2459677419354875  11.27016129032259 0  7.258064516129024 0  C 3.2459677419354875 0  0 3.2459677419354875  0 7.258064516129025  C 0 11.270161290322562  3.2459677419354875 14.51612903225805  7.258064516129024 14.51612903225805  C 11.27016129032259 14.51612903225805  14.51612903225808 11.270161290322562  14.51612903225808 7.258064516129025  Z " fill-rule="evenodd" />
    </mask>
  </defs>
  <g>
    <path d="M 25 0  C 29.012096774193534 0  32.258064516129025 3.2459677419354875  32.258064516129025 7.258064516129025  C 32.258064516129025 11.270161290322562  29.012096774193534 14.51612903225805  25 14.51612903225805  C 20.987903225806463 14.51612903225805  17.741935483870975 11.270161290322562  17.741935483870975 7.258064516129025  C 17.741935483870975 3.2459677419354875  20.987903225806463 0  25 0  Z M 50 7.258064516129025  C 50 3.2459677419354875  46.75403225806451 0  42.741935483870975 0  C 38.72983870967741 0  35.48387096774195 3.2459677419354875  35.48387096774195 7.258064516129025  C 35.48387096774195 11.270161290322562  38.72983870967741 14.51612903225805  42.741935483870975 14.51612903225805  C 46.75403225806451 14.51612903225805  50 11.270161290322562  50 7.258064516129025  Z M 14.51612903225808 7.258064516129025  C 14.51612903225808 3.2459677419354875  11.27016129032259 0  7.258064516129024 0  C 3.2459677419354875 0  0 3.2459677419354875  0 7.258064516129025  C 0 11.270161290322562  3.2459677419354875 14.51612903225805  7.258064516129024 14.51612903225805  C 11.27016129032259 14.51612903225805  14.51612903225808 11.270161290322562  14.51612903225808 7.258064516129025  Z " fill-rule="nonzero" fill="rgba(0, 0, 0, 1)" stroke="none" class="fill" />
    <path d="M 25 0  C 29.012096774193534 0  32.258064516129025 3.2459677419354875  32.258064516129025 7.258064516129025  C 32.258064516129025 11.270161290322562  29.012096774193534 14.51612903225805  25 14.51612903225805  C 20.987903225806463 14.51612903225805  17.741935483870975 11.270161290322562  17.741935483870975 7.258064516129025  C 17.741935483870975 3.2459677419354875  20.987903225806463 0  25 0  Z " stroke-width="0" stroke-dasharray="0" stroke="rgba(255, 255, 255, 0)" fill="none" class="stroke" mask="url(#Clip1505)" />
    <path d="M 50 7.258064516129025  C 50 3.2459677419354875  46.75403225806451 0  42.741935483870975 0  C 38.72983870967741 0  35.48387096774195 3.2459677419354875  35.48387096774195 7.258064516129025  C 35.48387096774195 11.270161290322562  38.72983870967741 14.51612903225805  42.741935483870975 14.51612903225805  C 46.75403225806451 14.51612903225805  50 11.270161290322562  50 7.258064516129025  Z " stroke-width="0" stroke-dasharray="0" stroke="rgba(255, 255, 255, 0)" fill="none" class="stroke" mask="url(#Clip1505)" />
    <path d="M 14.51612903225808 7.258064516129025  C 14.51612903225808 3.2459677419354875  11.27016129032259 0  7.258064516129024 0  C 3.2459677419354875 0  0 3.2459677419354875  0 7.258064516129025  C 0 11.270161290322562  3.2459677419354875 14.51612903225805  7.258064516129024 14.51612903225805  C 11.27016129032259 14.51612903225805  14.51612903225808 11.270161290322562  14.51612903225808 7.258064516129025  Z " stroke-width="0" stroke-dasharray="0" stroke="rgba(255, 255, 255, 0)" fill="none" class="stroke" mask="url(#Clip1505)" />
  </g>
</svg>