<?xml version="1.0" encoding="utf-8"?>
<svg version="1.1" xmlns:xlink="http://www.w3.org/1999/xlink" width="10px" height="10px" xmlns="http://www.w3.org/2000/svg">
  <defs>
    <pattern id="BGPattern" patternUnits="userSpaceOnUse" alignment="0 0" imageRepeat="None" />
    <mask fill="white" id="Clip4432">
      <path d="M 4.9999999367797265 1.9999999999999982  C 6.656854186272106 1.9999999999999982  7.9999999367797265 3.3431457505076185  7.9999999367797265 4.999999999999998  C 7.9999999367797265 6.656854249492378  6.656854186272106 8  4.9999999367797265 8  C 3.343145813727893 8  2.0000000632202726 6.656854249492378  2.0000000632202726 4.999999999999998  C 2.0000000632202726 3.3431457505076185  3.343145813727893 1.9999999999999982  5.0000000632202735 1.9999999999999982  Z M 4.999999999999999 0  C 2.238576250846032 0  0 2.2385762508460303  0 4.999999999999998  C 0 7.761423749153966  2.238576250846032 9.999999999999996  4.999999999999999 9.999999999999996  C 7.761423749153966 9.999999999999996  9.999999999999998 7.761423749153966  9.999999999999998 4.999999999999998  C 9.999999999999998 2.2385762508460303  7.761423749153966 0  4.999999999999999 0  Z " fill-rule="evenodd" />
    </mask>
  </defs>
  <g transform="matrix(1 0 0 1 -3 -9 )">
    <path d="M 4.9999999367797265 1.9999999999999982  C 6.656854186272106 1.9999999999999982  7.9999999367797265 3.3431457505076185  7.9999999367797265 4.999999999999998  C 7.9999999367797265 6.656854249492378  6.656854186272106 8  4.9999999367797265 8  C 3.343145813727893 8  2.0000000632202726 6.656854249492378  2.0000000632202726 4.999999999999998  C 2.0000000632202726 3.3431457505076185  3.343145813727893 1.9999999999999982  5.0000000632202735 1.9999999999999982  Z M 4.999999999999999 0  C 2.238576250846032 0  0 2.2385762508460303  0 4.999999999999998  C 0 7.761423749153966  2.238576250846032 9.999999999999996  4.999999999999999 9.999999999999996  C 7.761423749153966 9.999999999999996  9.999999999999998 7.761423749153966  9.999999999999998 4.999999999999998  C 9.999999999999998 2.2385762508460303  7.761423749153966 0  4.999999999999999 0  Z " fill-rule="nonzero" fill="rgba(0, 0, 0, 1)" stroke="none" transform="matrix(1 0 0 1 3 9 )" class="fill" />
    <path d="M 4.9999999367797265 1.9999999999999982  C 6.656854186272106 1.9999999999999982  7.9999999367797265 3.3431457505076185  7.9999999367797265 4.999999999999998  C 7.9999999367797265 6.656854249492378  6.656854186272106 8  4.9999999367797265 8  C 3.343145813727893 8  2.0000000632202726 6.656854249492378  2.0000000632202726 4.999999999999998  C 2.0000000632202726 3.3431457505076185  3.343145813727893 1.9999999999999982  5.0000000632202735 1.9999999999999982  Z " stroke-width="0" stroke-dasharray="0" stroke="rgba(255, 255, 255, 0)" fill="none" transform="matrix(1 0 0 1 3 9 )" class="stroke" mask="url(#Clip4432)" />
    <path d="M 4.999999999999999 0  C 2.238576250846032 0  0 2.2385762508460303  0 4.999999999999998  C 0 7.761423749153966  2.238576250846032 9.999999999999996  4.999999999999999 9.999999999999996  C 7.761423749153966 9.999999999999996  9.999999999999998 7.761423749153966  9.999999999999998 4.999999999999998  C 9.999999999999998 2.2385762508460303  7.761423749153966 0  4.999999999999999 0  Z " stroke-width="0" stroke-dasharray="0" stroke="rgba(255, 255, 255, 0)" fill="none" transform="matrix(1 0 0 1 3 9 )" class="stroke" mask="url(#Clip4432)" />
  </g>
</svg>