<?xml version="1.0" encoding="utf-8"?>
<svg version="1.1" xmlns:xlink="http://www.w3.org/1999/xlink" width="50px" height="45px" xmlns="http://www.w3.org/2000/svg">
  <defs>
    <pattern id="BGPattern" patternUnits="userSpaceOnUse" alignment="0 0" imageRepeat="None" />
    <mask fill="white" id="Clip1323">
      <path d="M 23.611111111111114 5.555555555555543  C 23.611111111111114 2.486979166666657  21.123263888888886 0  18.055555555555543 0  C 15.462673611111114 0  13.303819444444457 1.7838541666666572  12.69097222222223 4.185763888888886  C 12.625868055555541 4.1840277777777715  12.565104166666657 4.166666666666657  12.5 4.166666666666657  C 9.432291666666657 4.166666666666657  6.944444444444457 6.653645833333343  6.944444444444457 9.722222222222229  C 6.944444444444457 10.142361111111114  7.000000000000001 10.547743055555571  7.088541666666657 10.940972222222229  C 4.560763888888886 11.979166666666657  2.7777777777777715 14.459201388888886  2.7777777777777715 17.361111111111114  C 2.7777777777777715 18.453125  3.052083333333343 19.47222222222223  3.5017361111111143 20.39149305555557  C 1.4184027777777715 21.59027777777777  0 23.81336805555557  0 26.388888888888886  C 0 29.282986111111114  1.772569444444457 31.760416666666686  4.289930555555543 32.802951388888914  C 4.211805555555543 33.19965277777777  4.166666666666657 33.60850694444446  4.166666666666657 34.02777777777777  C 4.166666666666657 37.479166666666686  6.9644097222222285 40.27777777777777  10.416666666666657 40.27777777777777  C 10.774305555555543 40.27777777777777  11.119791666666657 40.23003472222223  11.4609375 40.17274305555557  C 12.292534722222229 42.6484375  14.605034722222229 44.44444444444446  17.361111111111114 44.44444444444446  C 20.813368055555543 44.44444444444446  23.611111111111114 41.64583333333334  24 38.19444444444446  L 24 17.834201388888886  C 22.6640625 18.61371527777777  21.529513888888886 19.17534722222223  20.28125 19.430555555555543  C 19.849826388888886 19.51909722222223  19.444444444444457 19.185763888888886  19.444444444444457 18.74565972222223  L 19.444444444444457 17.341145833333343  C 19.444444444444457 17.03125  19.6484375 16.752604166666686  19.947916666666657 16.67621527777777  C 22.048611111111114 16.14149305555557  23.611111111111114 14.25  23.611111111111114 11.985243055555571  L 23.611111111111114 5.555555555555543  Z M 45.71006944444446 32.802951388888914  C 48.22743055555557 31.760416666666686  50 29.282986111111114  50 26.388888888888886  C 50 23.81336805555557  48.58159722222223 21.59027777777777  46.498263888888886 20.39149305555557  C 46.947048611111086 19.47222222222223  47.22222222222223 18.453125  47.22222222222223 17.361111111111114  C 47.22222222222223 14.459201388888886  45.439236111111114 11.979166666666657  42.91145833333334 10.940972222222229  C 43 10.547743055555571  43.05555555555554 10.142361111111114  43.05555555555554 9.722222222222229  C 43.05555555555554 6.653645833333343  40.56770833333334 4.166666666666657  37.5 4.166666666666657  C 37.43489583333334 4.166666666666657  37.37413194444446 4.1840277777777715  37.30902777777777 4.185763888888886  C 36.69618055555554 1.7838541666666572  34.537326388888886 0  31.944444444444457 0  C 28.87673611111111 0  26.388888888888886 2.486979166666657  26.388888888888886 5.555555555555543  L 26.388888888888886 11.985243055555571  C 26.388888888888886 14.25  27.950520833333343 16.14149305555557  30.05208333333334 16.67621527777777  C 30.352430555555543 16.752604166666686  30.555555555555543 17.03125  30.555555555555543 17.341145833333343  L 30.555555555555543 18.74565972222223  C 30.555555555555543 19.185763888888886  30.149305555555543 19.51909722222223  29.71875 19.430555555555543  C 28.470486111111114 19.17534722222223  27.336805555555543 18.61371527777777  26 17.834201388888886  L 26 38.19444444444446  C 26.388888888888886 41.64583333333334  29.186631944444457 44.44444444444446  32.638888888888886 44.44444444444446  C 35.39496527777777 44.44444444444446  37.70746527777777 42.6484375  38.5390625 40.17274305555557  C 38.88020833333334 40.2309027777778  39.22569444444446 40.27777777777777  39.583333333333314 40.27777777777777  C 43.03559027777777 40.27777777777777  45.833333333333314 37.479166666666686  45.833333333333314 34.02777777777777  C 45.833333333333314 33.60850694444446  45.78819444444446 33.19965277777777  45.71006944444446 32.802951388888914  Z " fill-rule="evenodd" />
    </mask>
  </defs>
  <g>
    <path d="M 23.611111111111114 5.555555555555543  C 23.611111111111114 2.486979166666657  21.123263888888886 0  18.055555555555543 0  C 15.462673611111114 0  13.303819444444457 1.7838541666666572  12.69097222222223 4.185763888888886  C 12.625868055555541 4.1840277777777715  12.565104166666657 4.166666666666657  12.5 4.166666666666657  C 9.432291666666657 4.166666666666657  6.944444444444457 6.653645833333343  6.944444444444457 9.722222222222229  C 6.944444444444457 10.142361111111114  7.000000000000001 10.547743055555571  7.088541666666657 10.940972222222229  C 4.560763888888886 11.979166666666657  2.7777777777777715 14.459201388888886  2.7777777777777715 17.361111111111114  C 2.7777777777777715 18.453125  3.052083333333343 19.47222222222223  3.5017361111111143 20.39149305555557  C 1.4184027777777715 21.59027777777777  0 23.81336805555557  0 26.388888888888886  C 0 29.282986111111114  1.772569444444457 31.760416666666686  4.289930555555543 32.802951388888914  C 4.211805555555543 33.19965277777777  4.166666666666657 33.60850694444446  4.166666666666657 34.02777777777777  C 4.166666666666657 37.479166666666686  6.9644097222222285 40.27777777777777  10.416666666666657 40.27777777777777  C 10.774305555555543 40.27777777777777  11.119791666666657 40.23003472222223  11.4609375 40.17274305555557  C 12.292534722222229 42.6484375  14.605034722222229 44.44444444444446  17.361111111111114 44.44444444444446  C 20.813368055555543 44.44444444444446  23.611111111111114 41.64583333333334  24 38.19444444444446  L 24 17.834201388888886  C 22.6640625 18.61371527777777  21.529513888888886 19.17534722222223  20.28125 19.430555555555543  C 19.849826388888886 19.51909722222223  19.444444444444457 19.185763888888886  19.444444444444457 18.74565972222223  L 19.444444444444457 17.341145833333343  C 19.444444444444457 17.03125  19.6484375 16.752604166666686  19.947916666666657 16.67621527777777  C 22.048611111111114 16.14149305555557  23.611111111111114 14.25  23.611111111111114 11.985243055555571  L 23.611111111111114 5.555555555555543  Z M 45.71006944444446 32.802951388888914  C 48.22743055555557 31.760416666666686  50 29.282986111111114  50 26.388888888888886  C 50 23.81336805555557  48.58159722222223 21.59027777777777  46.498263888888886 20.39149305555557  C 46.947048611111086 19.47222222222223  47.22222222222223 18.453125  47.22222222222223 17.361111111111114  C 47.22222222222223 14.459201388888886  45.439236111111114 11.979166666666657  42.91145833333334 10.940972222222229  C 43 10.547743055555571  43.05555555555554 10.142361111111114  43.05555555555554 9.722222222222229  C 43.05555555555554 6.653645833333343  40.56770833333334 4.166666666666657  37.5 4.166666666666657  C 37.43489583333334 4.166666666666657  37.37413194444446 4.1840277777777715  37.30902777777777 4.185763888888886  C 36.69618055555554 1.7838541666666572  34.537326388888886 0  31.944444444444457 0  C 28.87673611111111 0  26.388888888888886 2.486979166666657  26.388888888888886 5.555555555555543  L 26.388888888888886 11.985243055555571  C 26.388888888888886 14.25  27.950520833333343 16.14149305555557  30.05208333333334 16.67621527777777  C 30.352430555555543 16.752604166666686  30.555555555555543 17.03125  30.555555555555543 17.341145833333343  L 30.555555555555543 18.74565972222223  C 30.555555555555543 19.185763888888886  30.149305555555543 19.51909722222223  29.71875 19.430555555555543  C 28.470486111111114 19.17534722222223  27.336805555555543 18.61371527777777  26 17.834201388888886  L 26 38.19444444444446  C 26.388888888888886 41.64583333333334  29.186631944444457 44.44444444444446  32.638888888888886 44.44444444444446  C 35.39496527777777 44.44444444444446  37.70746527777777 42.6484375  38.5390625 40.17274305555557  C 38.88020833333334 40.2309027777778  39.22569444444446 40.27777777777777  39.583333333333314 40.27777777777777  C 43.03559027777777 40.27777777777777  45.833333333333314 37.479166666666686  45.833333333333314 34.02777777777777  C 45.833333333333314 33.60850694444446  45.78819444444446 33.19965277777777  45.71006944444446 32.802951388888914  Z " fill-rule="nonzero" fill="rgba(0, 0, 0, 1)" stroke="none" class="fill" />
    <path d="M 23.611111111111114 5.555555555555543  C 23.611111111111114 2.486979166666657  21.123263888888886 0  18.055555555555543 0  C 15.462673611111114 0  13.303819444444457 1.7838541666666572  12.69097222222223 4.185763888888886  C 12.625868055555541 4.1840277777777715  12.565104166666657 4.166666666666657  12.5 4.166666666666657  C 9.432291666666657 4.166666666666657  6.944444444444457 6.653645833333343  6.944444444444457 9.722222222222229  C 6.944444444444457 10.142361111111114  7.000000000000001 10.547743055555571  7.088541666666657 10.940972222222229  C 4.560763888888886 11.979166666666657  2.7777777777777715 14.459201388888886  2.7777777777777715 17.361111111111114  C 2.7777777777777715 18.453125  3.052083333333343 19.47222222222223  3.5017361111111143 20.39149305555557  C 1.4184027777777715 21.59027777777777  0 23.81336805555557  0 26.388888888888886  C 0 29.282986111111114  1.772569444444457 31.760416666666686  4.289930555555543 32.802951388888914  C 4.211805555555543 33.19965277777777  4.166666666666657 33.60850694444446  4.166666666666657 34.02777777777777  C 4.166666666666657 37.479166666666686  6.9644097222222285 40.27777777777777  10.416666666666657 40.27777777777777  C 10.774305555555543 40.27777777777777  11.119791666666657 40.23003472222223  11.4609375 40.17274305555557  C 12.292534722222229 42.6484375  14.605034722222229 44.44444444444446  17.361111111111114 44.44444444444446  C 20.813368055555543 44.44444444444446  23.611111111111114 41.64583333333334  24 38.19444444444446  L 24 17.834201388888886  C 22.6640625 18.61371527777777  21.529513888888886 19.17534722222223  20.28125 19.430555555555543  C 19.849826388888886 19.51909722222223  19.444444444444457 19.185763888888886  19.444444444444457 18.74565972222223  L 19.444444444444457 17.341145833333343  C 19.444444444444457 17.03125  19.6484375 16.752604166666686  19.947916666666657 16.67621527777777  C 22.048611111111114 16.14149305555557  23.611111111111114 14.25  23.611111111111114 11.985243055555571  L 23.611111111111114 5.555555555555543  Z " stroke-width="0" stroke-dasharray="0" stroke="rgba(255, 255, 255, 0)" fill="none" class="stroke" mask="url(#Clip1323)" />
    <path d="M 45.71006944444446 32.802951388888914  C 48.22743055555557 31.760416666666686  50 29.282986111111114  50 26.388888888888886  C 50 23.81336805555557  48.58159722222223 21.59027777777777  46.498263888888886 20.39149305555557  C 46.947048611111086 19.47222222222223  47.22222222222223 18.453125  47.22222222222223 17.361111111111114  C 47.22222222222223 14.459201388888886  45.439236111111114 11.979166666666657  42.91145833333334 10.940972222222229  C 43 10.547743055555571  43.05555555555554 10.142361111111114  43.05555555555554 9.722222222222229  C 43.05555555555554 6.653645833333343  40.56770833333334 4.166666666666657  37.5 4.166666666666657  C 37.43489583333334 4.166666666666657  37.37413194444446 4.1840277777777715  37.30902777777777 4.185763888888886  C 36.69618055555554 1.7838541666666572  34.537326388888886 0  31.944444444444457 0  C 28.87673611111111 0  26.388888888888886 2.486979166666657  26.388888888888886 5.555555555555543  L 26.388888888888886 11.985243055555571  C 26.388888888888886 14.25  27.950520833333343 16.14149305555557  30.05208333333334 16.67621527777777  C 30.352430555555543 16.752604166666686  30.555555555555543 17.03125  30.555555555555543 17.341145833333343  L 30.555555555555543 18.74565972222223  C 30.555555555555543 19.185763888888886  30.149305555555543 19.51909722222223  29.71875 19.430555555555543  C 28.470486111111114 19.17534722222223  27.336805555555543 18.61371527777777  26 17.834201388888886  L 26 38.19444444444446  C 26.388888888888886 41.64583333333334  29.186631944444457 44.44444444444446  32.638888888888886 44.44444444444446  C 35.39496527777777 44.44444444444446  37.70746527777777 42.6484375  38.5390625 40.17274305555557  C 38.88020833333334 40.2309027777778  39.22569444444446 40.27777777777777  39.583333333333314 40.27777777777777  C 43.03559027777777 40.27777777777777  45.833333333333314 37.479166666666686  45.833333333333314 34.02777777777777  C 45.833333333333314 33.60850694444446  45.78819444444446 33.19965277777777  45.71006944444446 32.802951388888914  Z " stroke-width="0" stroke-dasharray="0" stroke="rgba(255, 255, 255, 0)" fill="none" class="stroke" mask="url(#Clip1323)" />
  </g>
</svg>