<?xml version="1.0" encoding="utf-8"?>
<svg version="1.1" xmlns:xlink="http://www.w3.org/1999/xlink" width="56px" height="56px" xmlns="http://www.w3.org/2000/svg">
  <defs>
    <pattern id="BGPattern" patternUnits="userSpaceOnUse" alignment="0 0" imageRepeat="None" />
    <mask fill="white" id="Clip2534">
      <path d="M 56 28  C 56 12.537500000000001  43.4625 0  28 0  C 12.537500000000001 0  0 12.537500000000001  0 28  C 0 43.4625  12.537500000000001 56  28 56  C 43.4625 56  56 43.4625  56 28  Z M 51.25 28  C 51.25 40.8375  40.8375 51.25  28 51.25  C 15.162500000000001 51.25  4.75 40.8375  4.75 28  C 4.75 15.162500000000001  15.162500000000001 4.75  28 4.75  C 40.8375 4.75  51.25 15.162500000000001  51.25 28  Z M 35.75000000000001 14.950000000000003  C 35.75000000000001 14.712500000000002  35.587500000000006 14.512500000000003  35.35625 14.4625  C 34.362500000000004 14.24375  33.206250000000004 14.125  31.900000000000006 14.125  C 25.231250000000006 14.125  20.718750000000007 17.60625  19.487500000000004 23.49375  L 17.5 23.49375  C 17.225 23.49375  17 23.71875  17 23.99375  L 17 25.693749999999998  C 17 25.968749999999996  17.225 26.193749999999998  17.5 26.193749999999998  L 19.15 26.193749999999998  C 19.131249999999998 26.45  19.131249999999998 26.718749999999996  19.131249999999998 26.99375  L 19.131249999999998 29.299999999999997  L 17.5 29.299999999999997  C 17.225 29.299999999999997  17 29.525  17 29.8  L 17 31.5  C 17 31.774999999999995  17.225 32  17.5 32  L 19.3875 32  C 20.4625 38.2  25.0375 41.875  31.9 41.875  C 33.20625 41.875  34.3625 41.76875  35.356249999999996 41.55625  C 35.5875 41.50625  35.756249999999994 41.30625  35.756249999999994 41.06875  L 35.756249999999994 38.393750000000004  C 35.756249999999994 38.081250000000004  35.46874999999999 37.84375000000001  35.162499999999994 37.90625000000001  C 34.24374999999999 38.081250000000004  33.168749999999996 38.16250000000001  31.924999999999997 38.16250000000001  C 27.643749999999997 38.16250000000001  24.768749999999997 35.87500000000001  23.812499999999996 32.00000000000001  L 31.974999999999994 32.00000000000001  C 32.24999999999999 32.00000000000001  32.474999999999994 31.77500000000001  32.474999999999994 31.500000000000007  L 32.474999999999994 29.800000000000004  C 32.474999999999994 29.525000000000006  32.24999999999999 29.3  31.974999999999994 29.3  L 23.45 29.3  L 23.45 27.050000000000004  C 23.45 26.756250000000005  23.45 26.462500000000006  23.46875 26.187500000000004  L 31.9625 26.187500000000004  C 32.2375 26.187500000000004  32.4625 25.962500000000002  32.4625 25.687500000000004  L 32.4625 23.987500000000004  C 32.4625 23.712500000000006  32.2375 23.487500000000004  31.9625 23.487500000000004  L 23.94375 23.487500000000004  C 25.01875 19.931250000000006  27.837500000000002 17.837500000000006  31.918750000000006 17.837500000000006  C 33.1625 17.837500000000006  34.237500000000004 17.931250000000006  35.150000000000006 18.112500000000004  C 35.1829112545908 18.119218383712276  35.21641575560613 18.122603224083445  35.2500057445678 18.122603224083445  C 35.52521258062597 18.122603224083445  35.74868078176653 17.900203674169518  35.75000000000001 17.625000000000004  L 35.75000000000001 14.950000000000003  Z " fill-rule="evenodd" />
    </mask>
  </defs>
  <g>
    <path d="M 56 28  C 56 12.537500000000001  43.4625 0  28 0  C 12.537500000000001 0  0 12.537500000000001  0 28  C 0 43.4625  12.537500000000001 56  28 56  C 43.4625 56  56 43.4625  56 28  Z M 51.25 28  C 51.25 40.8375  40.8375 51.25  28 51.25  C 15.162500000000001 51.25  4.75 40.8375  4.75 28  C 4.75 15.162500000000001  15.162500000000001 4.75  28 4.75  C 40.8375 4.75  51.25 15.162500000000001  51.25 28  Z M 35.75000000000001 14.950000000000003  C 35.75000000000001 14.712500000000002  35.587500000000006 14.512500000000003  35.35625 14.4625  C 34.362500000000004 14.24375  33.206250000000004 14.125  31.900000000000006 14.125  C 25.231250000000006 14.125  20.718750000000007 17.60625  19.487500000000004 23.49375  L 17.5 23.49375  C 17.225 23.49375  17 23.71875  17 23.99375  L 17 25.693749999999998  C 17 25.968749999999996  17.225 26.193749999999998  17.5 26.193749999999998  L 19.15 26.193749999999998  C 19.131249999999998 26.45  19.131249999999998 26.718749999999996  19.131249999999998 26.99375  L 19.131249999999998 29.299999999999997  L 17.5 29.299999999999997  C 17.225 29.299999999999997  17 29.525  17 29.8  L 17 31.5  C 17 31.774999999999995  17.225 32  17.5 32  L 19.3875 32  C 20.4625 38.2  25.0375 41.875  31.9 41.875  C 33.20625 41.875  34.3625 41.76875  35.356249999999996 41.55625  C 35.5875 41.50625  35.756249999999994 41.30625  35.756249999999994 41.06875  L 35.756249999999994 38.393750000000004  C 35.756249999999994 38.081250000000004  35.46874999999999 37.84375000000001  35.162499999999994 37.90625000000001  C 34.24374999999999 38.081250000000004  33.168749999999996 38.16250000000001  31.924999999999997 38.16250000000001  C 27.643749999999997 38.16250000000001  24.768749999999997 35.87500000000001  23.812499999999996 32.00000000000001  L 31.974999999999994 32.00000000000001  C 32.24999999999999 32.00000000000001  32.474999999999994 31.77500000000001  32.474999999999994 31.500000000000007  L 32.474999999999994 29.800000000000004  C 32.474999999999994 29.525000000000006  32.24999999999999 29.3  31.974999999999994 29.3  L 23.45 29.3  L 23.45 27.050000000000004  C 23.45 26.756250000000005  23.45 26.462500000000006  23.46875 26.187500000000004  L 31.9625 26.187500000000004  C 32.2375 26.187500000000004  32.4625 25.962500000000002  32.4625 25.687500000000004  L 32.4625 23.987500000000004  C 32.4625 23.712500000000006  32.2375 23.487500000000004  31.9625 23.487500000000004  L 23.94375 23.487500000000004  C 25.01875 19.931250000000006  27.837500000000002 17.837500000000006  31.918750000000006 17.837500000000006  C 33.1625 17.837500000000006  34.237500000000004 17.931250000000006  35.150000000000006 18.112500000000004  C 35.1829112545908 18.119218383712276  35.21641575560613 18.122603224083445  35.2500057445678 18.122603224083445  C 35.52521258062597 18.122603224083445  35.74868078176653 17.900203674169518  35.75000000000001 17.625000000000004  L 35.75000000000001 14.950000000000003  Z " fill-rule="nonzero" fill="rgba(0, 0, 0, 1)" stroke="none" class="fill" />
    <path d="M 56 28  C 56 12.537500000000001  43.4625 0  28 0  C 12.537500000000001 0  0 12.537500000000001  0 28  C 0 43.4625  12.537500000000001 56  28 56  C 43.4625 56  56 43.4625  56 28  Z " stroke-width="0" stroke-dasharray="0" stroke="rgba(255, 255, 255, 0)" fill="none" class="stroke" mask="url(#Clip2534)" />
    <path d="M 51.25 28  C 51.25 40.8375  40.8375 51.25  28 51.25  C 15.162500000000001 51.25  4.75 40.8375  4.75 28  C 4.75 15.162500000000001  15.162500000000001 4.75  28 4.75  C 40.8375 4.75  51.25 15.162500000000001  51.25 28  Z " stroke-width="0" stroke-dasharray="0" stroke="rgba(255, 255, 255, 0)" fill="none" class="stroke" mask="url(#Clip2534)" />
    <path d="M 35.75000000000001 14.950000000000003  C 35.75000000000001 14.712500000000002  35.587500000000006 14.512500000000003  35.35625 14.4625  C 34.362500000000004 14.24375  33.206250000000004 14.125  31.900000000000006 14.125  C 25.231250000000006 14.125  20.718750000000007 17.60625  19.487500000000004 23.49375  L 17.5 23.49375  C 17.225 23.49375  17 23.71875  17 23.99375  L 17 25.693749999999998  C 17 25.968749999999996  17.225 26.193749999999998  17.5 26.193749999999998  L 19.15 26.193749999999998  C 19.131249999999998 26.45  19.131249999999998 26.718749999999996  19.131249999999998 26.99375  L 19.131249999999998 29.299999999999997  L 17.5 29.299999999999997  C 17.225 29.299999999999997  17 29.525  17 29.8  L 17 31.5  C 17 31.774999999999995  17.225 32  17.5 32  L 19.3875 32  C 20.4625 38.2  25.0375 41.875  31.9 41.875  C 33.20625 41.875  34.3625 41.76875  35.356249999999996 41.55625  C 35.5875 41.50625  35.756249999999994 41.30625  35.756249999999994 41.06875  L 35.756249999999994 38.393750000000004  C 35.756249999999994 38.081250000000004  35.46874999999999 37.84375000000001  35.162499999999994 37.90625000000001  C 34.24374999999999 38.081250000000004  33.168749999999996 38.16250000000001  31.924999999999997 38.16250000000001  C 27.643749999999997 38.16250000000001  24.768749999999997 35.87500000000001  23.812499999999996 32.00000000000001  L 31.974999999999994 32.00000000000001  C 32.24999999999999 32.00000000000001  32.474999999999994 31.77500000000001  32.474999999999994 31.500000000000007  L 32.474999999999994 29.800000000000004  C 32.474999999999994 29.525000000000006  32.24999999999999 29.3  31.974999999999994 29.3  L 23.45 29.3  L 23.45 27.050000000000004  C 23.45 26.756250000000005  23.45 26.462500000000006  23.46875 26.187500000000004  L 31.9625 26.187500000000004  C 32.2375 26.187500000000004  32.4625 25.962500000000002  32.4625 25.687500000000004  L 32.4625 23.987500000000004  C 32.4625 23.712500000000006  32.2375 23.487500000000004  31.9625 23.487500000000004  L 23.94375 23.487500000000004  C 25.01875 19.931250000000006  27.837500000000002 17.837500000000006  31.918750000000006 17.837500000000006  C 33.1625 17.837500000000006  34.237500000000004 17.931250000000006  35.150000000000006 18.112500000000004  C 35.1829112545908 18.119218383712276  35.21641575560613 18.122603224083445  35.2500057445678 18.122603224083445  C 35.52521258062597 18.122603224083445  35.74868078176653 17.900203674169518  35.75000000000001 17.625000000000004  L 35.75000000000001 14.950000000000003  Z " stroke-width="0" stroke-dasharray="0" stroke="rgba(255, 255, 255, 0)" fill="none" class="stroke" mask="url(#Clip2534)" />
  </g>
</svg>