<?xml version="1.0" encoding="utf-8"?>
<svg version="1.1" xmlns:xlink="http://www.w3.org/1999/xlink" width="20px" height="17px" xmlns="http://www.w3.org/2000/svg">
  <defs>
    <pattern id="BGPattern" patternUnits="userSpaceOnUse" alignment="0 0" imageRepeat="None" />
    <mask fill="white" id="Clip6400">
      <path d="M 0.49865932447187156 1.25  C 0.49865932447187156 1.0507591087126382  0.577937448968548 0.8597063945152499  0.7189999999999994 0.7189999999999994  C 0.8597063945152499 0.577937448968548  1.0507591087126382 0.49865932447187244  1.25 0.49865932447187244  C 1.4492408912873618 0.49865932447187244  1.6402936054847501 0.577937448968548  1.7810000000000006 0.7189999999999994  L 3.7654999999999994 2.7049999999999983  C 4.204180067086272 3.144226320160934  4.204180067086272 3.8557736798390643  3.7654999999999994 4.294999999999998  L 1.7810000000000006 6.280999999999999  C 1.6401700438952034 6.421829956104796  1.4491636339118124 6.500947401620115  1.25 6.500947401620115  C 0.8352632021601494 6.500947401620115  0.4990525983798868 6.164736797839849  0.4990525983798868 5.75  C 0.4990525983798868 5.550836366088188  0.5781700438952022 5.359829956104797  0.7189999999999994 5.218999999999998  L 2.4395000000000007 3.5  L 0.7189999999999994 1.7810000000000006  C 0.577937448968548 1.6402936054847501  0.49865932447187156 1.4492408912873618  0.49865932447187156 1.25  Z M 5 7.25  C 4.585786437626904 7.25  4.25 6.914213562373096  4.25 6.5  C 4.25 6.085786437626904  4.585786437626904 5.75  5 5.75  L 8 5.75  C 8.414213562373096 5.75  8.75 6.085786437626904  8.75 6.5  C 8.75 6.914213562373096  8.414213562373096 7.25  8 7.25  L 5 7.25  Z M 20 11.75  C 20 14.64949493661166  17.64949493661166 17  14.75 17  C 11.850505063388333 17  9.5 14.64949493661166  9.5 11.75  C 9.5 8.850505063388333  11.850505063388333 6.5  14.75 6.5  C 17.64949493661166 6.5  20 8.850505063388333  20 11.75  Z M 15.5 9.5  C 15.5 9.085786437626904  15.164213562373096 8.75  14.75 8.75  C 14.335786437626904 8.75  14 9.085786437626904  14 9.5  L 14 11  L 12.5 11  C 12.085786437626904 11  11.75 11.335786437626904  11.75 11.75  C 11.75 12.164213562373096  12.085786437626904 12.5  12.5 12.5  L 14 12.5  L 14 14  C 14 14.414213562373096  14.335786437626904 14.75  14.75 14.75  C 15.164213562373096 14.75  15.5 14.414213562373096  15.5 14  L 15.5 12.5  L 17 12.5  C 17.414213562373096 12.5  17.75 12.164213562373096  17.75 11.75  C 17.75 11.335786437626904  17.414213562373096 11  17 11  L 15.5 11  L 15.5 9.5  Z " fill-rule="evenodd" />
    </mask>
  </defs>
  <g transform="matrix(1 0 0 1 -4 -4 )">
    <path d="M 0.49865932447187156 1.25  C 0.49865932447187156 1.0507591087126382  0.577937448968548 0.8597063945152499  0.7189999999999994 0.7189999999999994  C 0.8597063945152499 0.577937448968548  1.0507591087126382 0.49865932447187244  1.25 0.49865932447187244  C 1.4492408912873618 0.49865932447187244  1.6402936054847501 0.577937448968548  1.7810000000000006 0.7189999999999994  L 3.7654999999999994 2.7049999999999983  C 4.204180067086272 3.144226320160934  4.204180067086272 3.8557736798390643  3.7654999999999994 4.294999999999998  L 1.7810000000000006 6.280999999999999  C 1.6401700438952034 6.421829956104796  1.4491636339118124 6.500947401620115  1.25 6.500947401620115  C 0.8352632021601494 6.500947401620115  0.4990525983798868 6.164736797839849  0.4990525983798868 5.75  C 0.4990525983798868 5.550836366088188  0.5781700438952022 5.359829956104797  0.7189999999999994 5.218999999999998  L 2.4395000000000007 3.5  L 0.7189999999999994 1.7810000000000006  C 0.577937448968548 1.6402936054847501  0.49865932447187156 1.4492408912873618  0.49865932447187156 1.25  Z M 5 7.25  C 4.585786437626904 7.25  4.25 6.914213562373096  4.25 6.5  C 4.25 6.085786437626904  4.585786437626904 5.75  5 5.75  L 8 5.75  C 8.414213562373096 5.75  8.75 6.085786437626904  8.75 6.5  C 8.75 6.914213562373096  8.414213562373096 7.25  8 7.25  L 5 7.25  Z M 20 11.75  C 20 14.64949493661166  17.64949493661166 17  14.75 17  C 11.850505063388333 17  9.5 14.64949493661166  9.5 11.75  C 9.5 8.850505063388333  11.850505063388333 6.5  14.75 6.5  C 17.64949493661166 6.5  20 8.850505063388333  20 11.75  Z M 15.5 9.5  C 15.5 9.085786437626904  15.164213562373096 8.75  14.75 8.75  C 14.335786437626904 8.75  14 9.085786437626904  14 9.5  L 14 11  L 12.5 11  C 12.085786437626904 11  11.75 11.335786437626904  11.75 11.75  C 11.75 12.164213562373096  12.085786437626904 12.5  12.5 12.5  L 14 12.5  L 14 14  C 14 14.414213562373096  14.335786437626904 14.75  14.75 14.75  C 15.164213562373096 14.75  15.5 14.414213562373096  15.5 14  L 15.5 12.5  L 17 12.5  C 17.414213562373096 12.5  17.75 12.164213562373096  17.75 11.75  C 17.75 11.335786437626904  17.414213562373096 11  17 11  L 15.5 11  L 15.5 9.5  Z " fill-rule="nonzero" fill="rgba(0, 0, 0, 1)" stroke="none" transform="matrix(1 0 0 1 4 4 )" class="fill" />
    <path d="M 0.49865932447187156 1.25  C 0.49865932447187156 1.0507591087126382  0.577937448968548 0.8597063945152499  0.7189999999999994 0.7189999999999994  C 0.8597063945152499 0.577937448968548  1.0507591087126382 0.49865932447187244  1.25 0.49865932447187244  C 1.4492408912873618 0.49865932447187244  1.6402936054847501 0.577937448968548  1.7810000000000006 0.7189999999999994  L 3.7654999999999994 2.7049999999999983  C 4.204180067086272 3.144226320160934  4.204180067086272 3.8557736798390643  3.7654999999999994 4.294999999999998  L 1.7810000000000006 6.280999999999999  C 1.6401700438952034 6.421829956104796  1.4491636339118124 6.500947401620115  1.25 6.500947401620115  C 0.8352632021601494 6.500947401620115  0.4990525983798868 6.164736797839849  0.4990525983798868 5.75  C 0.4990525983798868 5.550836366088188  0.5781700438952022 5.359829956104797  0.7189999999999994 5.218999999999998  L 2.4395000000000007 3.5  L 0.7189999999999994 1.7810000000000006  C 0.577937448968548 1.6402936054847501  0.49865932447187156 1.4492408912873618  0.49865932447187156 1.25  Z " stroke-width="0" stroke-dasharray="0" stroke="rgba(255, 255, 255, 0)" fill="none" transform="matrix(1 0 0 1 4 4 )" class="stroke" mask="url(#Clip6400)" />
    <path d="M 5 7.25  C 4.585786437626904 7.25  4.25 6.914213562373096  4.25 6.5  C 4.25 6.085786437626904  4.585786437626904 5.75  5 5.75  L 8 5.75  C 8.414213562373096 5.75  8.75 6.085786437626904  8.75 6.5  C 8.75 6.914213562373096  8.414213562373096 7.25  8 7.25  L 5 7.25  Z " stroke-width="0" stroke-dasharray="0" stroke="rgba(255, 255, 255, 0)" fill="none" transform="matrix(1 0 0 1 4 4 )" class="stroke" mask="url(#Clip6400)" />
    <path d="M 20 11.75  C 20 14.64949493661166  17.64949493661166 17  14.75 17  C 11.850505063388333 17  9.5 14.64949493661166  9.5 11.75  C 9.5 8.850505063388333  11.850505063388333 6.5  14.75 6.5  C 17.64949493661166 6.5  20 8.850505063388333  20 11.75  Z " stroke-width="0" stroke-dasharray="0" stroke="rgba(255, 255, 255, 0)" fill="none" transform="matrix(1 0 0 1 4 4 )" class="stroke" mask="url(#Clip6400)" />
    <path d="M 15.5 9.5  C 15.5 9.085786437626904  15.164213562373096 8.75  14.75 8.75  C 14.335786437626904 8.75  14 9.085786437626904  14 9.5  L 14 11  L 12.5 11  C 12.085786437626904 11  11.75 11.335786437626904  11.75 11.75  C 11.75 12.164213562373096  12.085786437626904 12.5  12.5 12.5  L 14 12.5  L 14 14  C 14 14.414213562373096  14.335786437626904 14.75  14.75 14.75  C 15.164213562373096 14.75  15.5 14.414213562373096  15.5 14  L 15.5 12.5  L 17 12.5  C 17.414213562373096 12.5  17.75 12.164213562373096  17.75 11.75  C 17.75 11.335786437626904  17.414213562373096 11  17 11  L 15.5 11  L 15.5 9.5  Z " stroke-width="0" stroke-dasharray="0" stroke="rgba(255, 255, 255, 0)" fill="none" transform="matrix(1 0 0 1 4 4 )" class="stroke" mask="url(#Clip6400)" />
  </g>
</svg>