<?xml version="1.0" encoding="utf-8"?>
<svg version="1.1" xmlns:xlink="http://www.w3.org/1999/xlink" width="50px" height="40px" xmlns="http://www.w3.org/2000/svg">
  <defs>
    <pattern id="BGPattern" patternUnits="userSpaceOnUse" alignment="0 0" imageRepeat="None" />
    <mask fill="white" id="Clip1704">
      <path d="M 30 5.812499999199019  C 30 9.225781248728708  31.91874999999999 12.189843748320243  34.71406250000001 14.148437498050328  C 36.462500000000006 15.373437497881525  37.5 17.36406249760722  37.5 19.507031247311943  L 37.5 21.87499999698565  C 37.5 22.22031249693805  37.779687499999994 22.499999996899533  38.125 22.499999996899533  L 41.875 22.499999996899533  C 42.220312500000006 22.499999996899533  42.5 22.22031249693805  42.5 21.87499999698565  L 42.5 19.507031247311943  C 42.5 16.128906247777422  40.85859375000001 12.99062499820991  38.09843749999999 11.064843748475255  C 36.23828125 9.767187498654096  35 7.760937498930559  35 5.492968749243062  L 35 0.6249999999138822  C 35 0.2796874999614545  34.720312500000006 0  34.375 0  L 30.625000000000004 0  C 30.279687499999998 0  30 0.2796874999614545  30 0.6249999999138822  L 30 5.812499999199019  Z M 19.90546875000001 29.725781245903818  C 18.75390625 28.382031246088957  16.97968750000001 27.76406249617412  15.232031250000006 28.045312496135352  C 9.846093749999994 28.911718746015993  4.663281249999997 30.83515624575091  0 33.7499999953493  C 6.53515625 37.83437499478646  14.0859375 39.99999999448801  21.79218750000001 39.99999999448801  L 28.71171874999999 39.99999999448801  L 19.90546875000001 29.725781245903818  Z M 50 19.507031247311943  C 50 14.394531248016449  47.46796875000001 9.648437498670432  43.224999999999994 6.803906249062436  C 42.78203124999999 6.507031249103363  42.5 6.025781249169654  42.5 5.492968749243062  L 42.5 0.6249999999138822  C 42.5 0.2796874999614545  42.220312500000006 0  41.875 0  L 38.125 0  C 37.779687499999994 0  37.5 0.2796874999614545  37.5 0.6249999999138822  L 37.5 5.492968749243062  C 37.5 7.213281249006002  38.294531250000006 8.88437499877574  39.73750000000001 9.820312498646786  C 43.03046875000001 11.956249998352462  45 15.589062497851842  45 19.507031247311943  L 45 21.87499999698565  C 45 22.22031249693805  45.279687499999994 22.499999996899533  45.625 22.499999996899533  L 49.375 22.499999996899533  C 49.720312500000006 22.499999996899533  50 22.22031249693805  50 21.87499999698565  L 50 19.507031247311943  Z M 31.997656250000006 29.249999995969347  C 31.046492441035696 28.13954775483495  29.656656660211294 27.50144525489361  28.19453125000001 27.503906246209965  C 25.50703125000001 27.50859374620933  21.412499999999994 27.515624996208373  21.303124999999994 27.51718749620818  L 30.506250000000023 38.253906244728626  C 31.45602435898888 39.3622158073141  32.8427474307523 40.00006846526105  34.302343750000006 39.99999999448801  L 41.212500000000006 39.99999999448801  L 31.997656250000006 29.249999995969347  Z M 50 29.374999995952123  C 50 28.339062496094925  49.16015625 27.499999996210533  48.125 27  L 33.75 27  L 42.96796875000001 38.253906244728626  C 43.9177431089889 39.3622158073141  45.304466180752286 40.00006846526105  46.764062499999994 39.99999999448801  L 48.125 39.99999999448801  C 49.16015625 39.99999999448801  50 39.16015624460374  50 38.12499999474642  L 50 29.374999995952123  Z " fill-rule="evenodd" />
    </mask>
  </defs>
  <g>
    <path d="M 30 5.812499999199019  C 30 9.225781248728708  31.91874999999999 12.189843748320243  34.71406250000001 14.148437498050328  C 36.462500000000006 15.373437497881525  37.5 17.36406249760722  37.5 19.507031247311943  L 37.5 21.87499999698565  C 37.5 22.22031249693805  37.779687499999994 22.499999996899533  38.125 22.499999996899533  L 41.875 22.499999996899533  C 42.220312500000006 22.499999996899533  42.5 22.22031249693805  42.5 21.87499999698565  L 42.5 19.507031247311943  C 42.5 16.128906247777422  40.85859375000001 12.99062499820991  38.09843749999999 11.064843748475255  C 36.23828125 9.767187498654096  35 7.760937498930559  35 5.492968749243062  L 35 0.6249999999138822  C 35 0.2796874999614545  34.720312500000006 0  34.375 0  L 30.625000000000004 0  C 30.279687499999998 0  30 0.2796874999614545  30 0.6249999999138822  L 30 5.812499999199019  Z M 19.90546875000001 29.725781245903818  C 18.75390625 28.382031246088957  16.97968750000001 27.76406249617412  15.232031250000006 28.045312496135352  C 9.846093749999994 28.911718746015993  4.663281249999997 30.83515624575091  0 33.7499999953493  C 6.53515625 37.83437499478646  14.0859375 39.99999999448801  21.79218750000001 39.99999999448801  L 28.71171874999999 39.99999999448801  L 19.90546875000001 29.725781245903818  Z M 50 19.507031247311943  C 50 14.394531248016449  47.46796875000001 9.648437498670432  43.224999999999994 6.803906249062436  C 42.78203124999999 6.507031249103363  42.5 6.025781249169654  42.5 5.492968749243062  L 42.5 0.6249999999138822  C 42.5 0.2796874999614545  42.220312500000006 0  41.875 0  L 38.125 0  C 37.779687499999994 0  37.5 0.2796874999614545  37.5 0.6249999999138822  L 37.5 5.492968749243062  C 37.5 7.213281249006002  38.294531250000006 8.88437499877574  39.73750000000001 9.820312498646786  C 43.03046875000001 11.956249998352462  45 15.589062497851842  45 19.507031247311943  L 45 21.87499999698565  C 45 22.22031249693805  45.279687499999994 22.499999996899533  45.625 22.499999996899533  L 49.375 22.499999996899533  C 49.720312500000006 22.499999996899533  50 22.22031249693805  50 21.87499999698565  L 50 19.507031247311943  Z M 31.997656250000006 29.249999995969347  C 31.046492441035696 28.13954775483495  29.656656660211294 27.50144525489361  28.19453125000001 27.503906246209965  C 25.50703125000001 27.50859374620933  21.412499999999994 27.515624996208373  21.303124999999994 27.51718749620818  L 30.506250000000023 38.253906244728626  C 31.45602435898888 39.3622158073141  32.8427474307523 40.00006846526105  34.302343750000006 39.99999999448801  L 41.212500000000006 39.99999999448801  L 31.997656250000006 29.249999995969347  Z M 50 29.374999995952123  C 50 28.339062496094925  49.16015625 27.499999996210533  48.125 27  L 33.75 27  L 42.96796875000001 38.253906244728626  C 43.9177431089889 39.3622158073141  45.304466180752286 40.00006846526105  46.764062499999994 39.99999999448801  L 48.125 39.99999999448801  C 49.16015625 39.99999999448801  50 39.16015624460374  50 38.12499999474642  L 50 29.374999995952123  Z " fill-rule="nonzero" fill="rgba(0, 0, 0, 1)" stroke="none" class="fill" />
    <path d="M 30 5.812499999199019  C 30 9.225781248728708  31.91874999999999 12.189843748320243  34.71406250000001 14.148437498050328  C 36.462500000000006 15.373437497881525  37.5 17.36406249760722  37.5 19.507031247311943  L 37.5 21.87499999698565  C 37.5 22.22031249693805  37.779687499999994 22.499999996899533  38.125 22.499999996899533  L 41.875 22.499999996899533  C 42.220312500000006 22.499999996899533  42.5 22.22031249693805  42.5 21.87499999698565  L 42.5 19.507031247311943  C 42.5 16.128906247777422  40.85859375000001 12.99062499820991  38.09843749999999 11.064843748475255  C 36.23828125 9.767187498654096  35 7.760937498930559  35 5.492968749243062  L 35 0.6249999999138822  C 35 0.2796874999614545  34.720312500000006 0  34.375 0  L 30.625000000000004 0  C 30.279687499999998 0  30 0.2796874999614545  30 0.6249999999138822  L 30 5.812499999199019  Z " stroke-width="0" stroke-dasharray="0" stroke="rgba(255, 255, 255, 0)" fill="none" class="stroke" mask="url(#Clip1704)" />
    <path d="M 19.90546875000001 29.725781245903818  C 18.75390625 28.382031246088957  16.97968750000001 27.76406249617412  15.232031250000006 28.045312496135352  C 9.846093749999994 28.911718746015993  4.663281249999997 30.83515624575091  0 33.7499999953493  C 6.53515625 37.83437499478646  14.0859375 39.99999999448801  21.79218750000001 39.99999999448801  L 28.71171874999999 39.99999999448801  L 19.90546875000001 29.725781245903818  Z " stroke-width="0" stroke-dasharray="0" stroke="rgba(255, 255, 255, 0)" fill="none" class="stroke" mask="url(#Clip1704)" />
    <path d="M 50 19.507031247311943  C 50 14.394531248016449  47.46796875000001 9.648437498670432  43.224999999999994 6.803906249062436  C 42.78203124999999 6.507031249103363  42.5 6.025781249169654  42.5 5.492968749243062  L 42.5 0.6249999999138822  C 42.5 0.2796874999614545  42.220312500000006 0  41.875 0  L 38.125 0  C 37.779687499999994 0  37.5 0.2796874999614545  37.5 0.6249999999138822  L 37.5 5.492968749243062  C 37.5 7.213281249006002  38.294531250000006 8.88437499877574  39.73750000000001 9.820312498646786  C 43.03046875000001 11.956249998352462  45 15.589062497851842  45 19.507031247311943  L 45 21.87499999698565  C 45 22.22031249693805  45.279687499999994 22.499999996899533  45.625 22.499999996899533  L 49.375 22.499999996899533  C 49.720312500000006 22.499999996899533  50 22.22031249693805  50 21.87499999698565  L 50 19.507031247311943  Z " stroke-width="0" stroke-dasharray="0" stroke="rgba(255, 255, 255, 0)" fill="none" class="stroke" mask="url(#Clip1704)" />
    <path d="M 31.997656250000006 29.249999995969347  C 31.046492441035696 28.13954775483495  29.656656660211294 27.50144525489361  28.19453125000001 27.503906246209965  C 25.50703125000001 27.50859374620933  21.412499999999994 27.515624996208373  21.303124999999994 27.51718749620818  L 30.506250000000023 38.253906244728626  C 31.45602435898888 39.3622158073141  32.8427474307523 40.00006846526105  34.302343750000006 39.99999999448801  L 41.212500000000006 39.99999999448801  L 31.997656250000006 29.249999995969347  Z " stroke-width="0" stroke-dasharray="0" stroke="rgba(255, 255, 255, 0)" fill="none" class="stroke" mask="url(#Clip1704)" />
    <path d="M 50 29.374999995952123  C 50 28.339062496094925  49.16015625 27.499999996210533  48.125 27  L 33.75 27  L 42.96796875000001 38.253906244728626  C 43.9177431089889 39.3622158073141  45.304466180752286 40.00006846526105  46.764062499999994 39.99999999448801  L 48.125 39.99999999448801  C 49.16015625 39.99999999448801  50 39.16015624460374  50 38.12499999474642  L 50 29.374999995952123  Z " stroke-width="0" stroke-dasharray="0" stroke="rgba(255, 255, 255, 0)" fill="none" class="stroke" mask="url(#Clip1704)" />
  </g>
</svg>