<?xml version="1.0" encoding="utf-8"?>
<svg version="1.1" xmlns:xlink="http://www.w3.org/1999/xlink" width="49px" height="48px" xmlns="http://www.w3.org/2000/svg">
  <defs>
    <pattern id="BGPattern" patternUnits="userSpaceOnUse" alignment="0 0" imageRepeat="None" />
    <mask fill="white" id="Clip6876">
      <path d="M 44 23.34  C 44.122 21.584  42.698 20.162  40.944 21  L 7.055999999999999 21  C 5.302 20.162  3.8779999999999997 21.584  4 23.34  L 4 44.519999999999996  C 3.8779999999999997 46.273999999999994  5.3 47.69799999999999  7.055999999999999 47  L 40.943999999999996 47  C 42.69799999999999 47.69799999999999  44.12199999999999 46.275999999999996  44 44.519999999999996  L 44 23.34  Z M 35.12 33.93  C 35.12 40.062  30.132000000000005 45.05  24 45.05  C 17.868000000000002 45.05  12.880000000000003 40.062  12.880000000000003 33.93  C 12.880000000000003 27.798000000000002  17.868000000000002 22.810000000000002  24 22.810000000000002  C 30.131999999999998 22.810000000000002  35.12 27.798000000000002  35.12 33.93  Z M 33.108000000000004 33.92999999999999  C 33.108000000000004 28.907999999999987  29.022000000000002 24.821999999999996  24 24.821999999999996  C 18.978 24.821999999999996  14.892 28.908  14.892 33.93  C 14.892 38.952  18.978 43.038  24 43.038  C 29.022000000000002 43.038  33.108000000000004 38.952  33.108000000000004 33.92999999999999  Z M 30.618000000000002 33.928  C 30.617999999999995 37.566  27.635999999999996 40.548  24 40.548  C 20.874 40.548  18.238 38.342  17.558 35.412  L 20.898 35.412  C 21.448 36.574  22.616 37.37  24 37.37  C 25.92 37.37  27.441999999999997 35.848  27.441999999999997 33.928  C 27.441999999999997 32.007999999999996  25.92 30.485999999999997  24 30.485999999999997  C 22.701999999999998 30.485999999999997  21.6 31.189999999999998  21.014 32.233999999999995  L 17.61 32.233999999999995  C 18.366 29.409999999999997  20.948 27.309999999999995  24 27.309999999999995  C 27.635999999999996 27.309999999999995  30.618000000000002 30.291999999999994  30.618000000000002 33.928  Z M 47.72399999999999 2.4399999999999995  C 48.292 1.6439999999999997  47.83 0.948  47.698 0.792  C 47.696 0.794  47.694 0.796  47.694 0.798  C 47.690000000000005 0.794  47.686 0.792  47.682 0.788  C 47.684000000000005 0.786  47.686 0.782  47.690000000000005 0.78  C 47.458000000000006 0.506  47.132000000000005 0.318  46.65200000000001 0.30400000000000005  C 46.248000000000005 0.31400000000000006  45.870000000000005 0.498  45.62800000000001 0.8220000000000001  L 41.992000000000004 5.5280000000000005  C 41.664 5.412000000000001  41.31400000000001 5.338  40.946000000000005 6  L 7.055999999999999 6  C 6.688000000000001 5.338  6.34 5.414  6.01 5.5280000000000005  L 2.374 0.82  C 2.132 0.4959999999999999  1.754 0.31399999999999995  1.35 0.30199999999999994  C 0.8700000000000001 0.31399999999999995  0.544 0.502  0.31200000000000006 0.7779999999999999  C 0.31400000000000006 0.7799999999999998  0.31600000000000006 0.7839999999999999  0.32000000000000006 0.7859999999999998  C 0.314 0.79  0.31 0.794  0.306 0.798  C 0.306 0.796  0.304 0.794  0.302 0.792  C 0.17 0.948  -0.292 1.6439999999999997  0.278 2.44  L 4.096 7.382  C 3.962 7.734  3.8799999999999994 8.114  3.8799999999999994 8.514  L 3.8799999999999994 15.927999999999999  C 3.8799999999999994 17.682  5.302 19.105999999999998  7.057999999999999 20  L 40.946 20  C 42.699999999999996 19.105999999999998  44.123999999999995 17.683999999999997  44.123999999999995 15.927999999999997  L 44.123999999999995 8.514  C 44.123999999999995 8.113999999999999  44.041999999999994 7.734  43.90599999999999 7.382  L 47.72399999999999 2.4399999999999995  Z M 17.381999999999998 12.881999999999998  C 17.381999999999998 14.856  15.782 16.456  13.807999999999998 16.456  C 11.834 16.456  10.234 14.856  10.234 12.881999999999998  C 10.234 10.908  11.834 9.308  13.807999999999998 9.308  C 15.782 9.308  17.381999999999998 10.908  17.381999999999998 12.881999999999998  Z M 38.032 12.881999999999998  C 38.032 14.856  36.432 16.456  34.458 16.456  C 32.484 16.456  30.884000000000004 14.856  30.884000000000004 12.881999999999998  C 30.884000000000004 10.908  32.484 9.308  34.458 9.308  C 36.431999999999995 9.308  38.032 10.908  38.032 12.881999999999998  Z " fill-rule="evenodd" />
    </mask>
  </defs>
  <g>
    <path d="M 44 23.34  C 44.122 21.584  42.698 20.162  40.944 21  L 7.055999999999999 21  C 5.302 20.162  3.8779999999999997 21.584  4 23.34  L 4 44.519999999999996  C 3.8779999999999997 46.273999999999994  5.3 47.69799999999999  7.055999999999999 47  L 40.943999999999996 47  C 42.69799999999999 47.69799999999999  44.12199999999999 46.275999999999996  44 44.519999999999996  L 44 23.34  Z M 35.12 33.93  C 35.12 40.062  30.132000000000005 45.05  24 45.05  C 17.868000000000002 45.05  12.880000000000003 40.062  12.880000000000003 33.93  C 12.880000000000003 27.798000000000002  17.868000000000002 22.810000000000002  24 22.810000000000002  C 30.131999999999998 22.810000000000002  35.12 27.798000000000002  35.12 33.93  Z M 33.108000000000004 33.92999999999999  C 33.108000000000004 28.907999999999987  29.022000000000002 24.821999999999996  24 24.821999999999996  C 18.978 24.821999999999996  14.892 28.908  14.892 33.93  C 14.892 38.952  18.978 43.038  24 43.038  C 29.022000000000002 43.038  33.108000000000004 38.952  33.108000000000004 33.92999999999999  Z M 30.618000000000002 33.928  C 30.617999999999995 37.566  27.635999999999996 40.548  24 40.548  C 20.874 40.548  18.238 38.342  17.558 35.412  L 20.898 35.412  C 21.448 36.574  22.616 37.37  24 37.37  C 25.92 37.37  27.441999999999997 35.848  27.441999999999997 33.928  C 27.441999999999997 32.007999999999996  25.92 30.485999999999997  24 30.485999999999997  C 22.701999999999998 30.485999999999997  21.6 31.189999999999998  21.014 32.233999999999995  L 17.61 32.233999999999995  C 18.366 29.409999999999997  20.948 27.309999999999995  24 27.309999999999995  C 27.635999999999996 27.309999999999995  30.618000000000002 30.291999999999994  30.618000000000002 33.928  Z M 47.72399999999999 2.4399999999999995  C 48.292 1.6439999999999997  47.83 0.948  47.698 0.792  C 47.696 0.794  47.694 0.796  47.694 0.798  C 47.690000000000005 0.794  47.686 0.792  47.682 0.788  C 47.684000000000005 0.786  47.686 0.782  47.690000000000005 0.78  C 47.458000000000006 0.506  47.132000000000005 0.318  46.65200000000001 0.30400000000000005  C 46.248000000000005 0.31400000000000006  45.870000000000005 0.498  45.62800000000001 0.8220000000000001  L 41.992000000000004 5.5280000000000005  C 41.664 5.412000000000001  41.31400000000001 5.338  40.946000000000005 6  L 7.055999999999999 6  C 6.688000000000001 5.338  6.34 5.414  6.01 5.5280000000000005  L 2.374 0.82  C 2.132 0.4959999999999999  1.754 0.31399999999999995  1.35 0.30199999999999994  C 0.8700000000000001 0.31399999999999995  0.544 0.502  0.31200000000000006 0.7779999999999999  C 0.31400000000000006 0.7799999999999998  0.31600000000000006 0.7839999999999999  0.32000000000000006 0.7859999999999998  C 0.314 0.79  0.31 0.794  0.306 0.798  C 0.306 0.796  0.304 0.794  0.302 0.792  C 0.17 0.948  -0.292 1.6439999999999997  0.278 2.44  L 4.096 7.382  C 3.962 7.734  3.8799999999999994 8.114  3.8799999999999994 8.514  L 3.8799999999999994 15.927999999999999  C 3.8799999999999994 17.682  5.302 19.105999999999998  7.057999999999999 20  L 40.946 20  C 42.699999999999996 19.105999999999998  44.123999999999995 17.683999999999997  44.123999999999995 15.927999999999997  L 44.123999999999995 8.514  C 44.123999999999995 8.113999999999999  44.041999999999994 7.734  43.90599999999999 7.382  L 47.72399999999999 2.4399999999999995  Z M 17.381999999999998 12.881999999999998  C 17.381999999999998 14.856  15.782 16.456  13.807999999999998 16.456  C 11.834 16.456  10.234 14.856  10.234 12.881999999999998  C 10.234 10.908  11.834 9.308  13.807999999999998 9.308  C 15.782 9.308  17.381999999999998 10.908  17.381999999999998 12.881999999999998  Z M 38.032 12.881999999999998  C 38.032 14.856  36.432 16.456  34.458 16.456  C 32.484 16.456  30.884000000000004 14.856  30.884000000000004 12.881999999999998  C 30.884000000000004 10.908  32.484 9.308  34.458 9.308  C 36.431999999999995 9.308  38.032 10.908  38.032 12.881999999999998  Z " fill-rule="nonzero" fill="rgba(25, 118, 210, 1)" stroke="none" class="fill" />
    <path d="M 44 23.34  C 44.122 21.584  42.698 20.162  40.944 21  L 7.055999999999999 21  C 5.302 20.162  3.8779999999999997 21.584  4 23.34  L 4 44.519999999999996  C 3.8779999999999997 46.273999999999994  5.3 47.69799999999999  7.055999999999999 47  L 40.943999999999996 47  C 42.69799999999999 47.69799999999999  44.12199999999999 46.275999999999996  44 44.519999999999996  L 44 23.34  Z " stroke-width="0" stroke-dasharray="0" stroke="rgba(255, 255, 255, 0)" fill="none" class="stroke" mask="url(#Clip6876)" />
    <path d="M 35.12 33.93  C 35.12 40.062  30.132000000000005 45.05  24 45.05  C 17.868000000000002 45.05  12.880000000000003 40.062  12.880000000000003 33.93  C 12.880000000000003 27.798000000000002  17.868000000000002 22.810000000000002  24 22.810000000000002  C 30.131999999999998 22.810000000000002  35.12 27.798000000000002  35.12 33.93  Z " stroke-width="0" stroke-dasharray="0" stroke="rgba(255, 255, 255, 0)" fill="none" class="stroke" mask="url(#Clip6876)" />
    <path d="M 33.108000000000004 33.92999999999999  C 33.108000000000004 28.907999999999987  29.022000000000002 24.821999999999996  24 24.821999999999996  C 18.978 24.821999999999996  14.892 28.908  14.892 33.93  C 14.892 38.952  18.978 43.038  24 43.038  C 29.022000000000002 43.038  33.108000000000004 38.952  33.108000000000004 33.92999999999999  Z " stroke-width="0" stroke-dasharray="0" stroke="rgba(255, 255, 255, 0)" fill="none" class="stroke" mask="url(#Clip6876)" />
    <path d="M 30.618000000000002 33.928  C 30.617999999999995 37.566  27.635999999999996 40.548  24 40.548  C 20.874 40.548  18.238 38.342  17.558 35.412  L 20.898 35.412  C 21.448 36.574  22.616 37.37  24 37.37  C 25.92 37.37  27.441999999999997 35.848  27.441999999999997 33.928  C 27.441999999999997 32.007999999999996  25.92 30.485999999999997  24 30.485999999999997  C 22.701999999999998 30.485999999999997  21.6 31.189999999999998  21.014 32.233999999999995  L 17.61 32.233999999999995  C 18.366 29.409999999999997  20.948 27.309999999999995  24 27.309999999999995  C 27.635999999999996 27.309999999999995  30.618000000000002 30.291999999999994  30.618000000000002 33.928  Z " stroke-width="0" stroke-dasharray="0" stroke="rgba(255, 255, 255, 0)" fill="none" class="stroke" mask="url(#Clip6876)" />
    <path d="M 47.72399999999999 2.4399999999999995  C 48.292 1.6439999999999997  47.83 0.948  47.698 0.792  C 47.696 0.794  47.694 0.796  47.694 0.798  C 47.690000000000005 0.794  47.686 0.792  47.682 0.788  C 47.684000000000005 0.786  47.686 0.782  47.690000000000005 0.78  C 47.458000000000006 0.506  47.132000000000005 0.318  46.65200000000001 0.30400000000000005  C 46.248000000000005 0.31400000000000006  45.870000000000005 0.498  45.62800000000001 0.8220000000000001  L 41.992000000000004 5.5280000000000005  C 41.664 5.412000000000001  41.31400000000001 5.338  40.946000000000005 6  L 7.055999999999999 6  C 6.688000000000001 5.338  6.34 5.414  6.01 5.5280000000000005  L 2.374 0.82  C 2.132 0.4959999999999999  1.754 0.31399999999999995  1.35 0.30199999999999994  C 0.8700000000000001 0.31399999999999995  0.544 0.502  0.31200000000000006 0.7779999999999999  C 0.31400000000000006 0.7799999999999998  0.31600000000000006 0.7839999999999999  0.32000000000000006 0.7859999999999998  C 0.314 0.79  0.31 0.794  0.306 0.798  C 0.306 0.796  0.304 0.794  0.302 0.792  C 0.17 0.948  -0.292 1.6439999999999997  0.278 2.44  L 4.096 7.382  C 3.962 7.734  3.8799999999999994 8.114  3.8799999999999994 8.514  L 3.8799999999999994 15.927999999999999  C 3.8799999999999994 17.682  5.302 19.105999999999998  7.057999999999999 20  L 40.946 20  C 42.699999999999996 19.105999999999998  44.123999999999995 17.683999999999997  44.123999999999995 15.927999999999997  L 44.123999999999995 8.514  C 44.123999999999995 8.113999999999999  44.041999999999994 7.734  43.90599999999999 7.382  L 47.72399999999999 2.4399999999999995  Z " stroke-width="0" stroke-dasharray="0" stroke="rgba(255, 255, 255, 0)" fill="none" class="stroke" mask="url(#Clip6876)" />
    <path d="M 17.381999999999998 12.881999999999998  C 17.381999999999998 14.856  15.782 16.456  13.807999999999998 16.456  C 11.834 16.456  10.234 14.856  10.234 12.881999999999998  C 10.234 10.908  11.834 9.308  13.807999999999998 9.308  C 15.782 9.308  17.381999999999998 10.908  17.381999999999998 12.881999999999998  Z " stroke-width="0" stroke-dasharray="0" stroke="rgba(255, 255, 255, 0)" fill="none" class="stroke" mask="url(#Clip6876)" />
    <path d="M 38.032 12.881999999999998  C 38.032 14.856  36.432 16.456  34.458 16.456  C 32.484 16.456  30.884000000000004 14.856  30.884000000000004 12.881999999999998  C 30.884000000000004 10.908  32.484 9.308  34.458 9.308  C 36.431999999999995 9.308  38.032 10.908  38.032 12.881999999999998  Z " stroke-width="0" stroke-dasharray="0" stroke="rgba(255, 255, 255, 0)" fill="none" class="stroke" mask="url(#Clip6876)" />
  </g>
</svg>