<?xml version="1.0" encoding="utf-8"?>
<svg version="1.1" xmlns:xlink="http://www.w3.org/1999/xlink" width="50px" height="40px" xmlns="http://www.w3.org/2000/svg">
  <defs>
    <pattern id="BGPattern" patternUnits="userSpaceOnUse" alignment="0 0" imageRepeat="None" />
    <mask fill="white" id="Clip2017">
      <path d="M 25 17.5  L 25 30  L 10 30  L 10 17.5  L 5 17.5  L 5 37.5  C 5 38.8828125  6.1171875 40  7.5 40  L 27.500000000000004 40  C 28.8828125 40  30 38.8828125  30 37.5  L 30 17.5  L 25 17.5  Z M 47.5 15  C 49.4921875 15  50.6796875 12.7734375  49.578125 11.109375  L 42.9140625 1.109375  C 42.4453125 0.4140625  41.6640625 0  40.828125 0  L 9.171875 0  C 8.3359375 0  7.5546875 0.4140625  7.09375 1.109375  L 0.42968750000000006 11.109375  C -0.6796875 12.7734375  0.5078125 15  2.5078125 15  L 47.5 15  Z M 40 17.5  L 40 38.75  C 40 39.4375  40.5625 40  41.25 40  L 43.75 40  C 44.4375 40  45 39.4375  45 38.75  L 45 17.5  L 40 17.5  Z " fill-rule="evenodd" />
    </mask>
  </defs>
  <g>
    <path d="M 25 17.5  L 25 30  L 10 30  L 10 17.5  L 5 17.5  L 5 37.5  C 5 38.8828125  6.1171875 40  7.5 40  L 27.500000000000004 40  C 28.8828125 40  30 38.8828125  30 37.5  L 30 17.5  L 25 17.5  Z M 47.5 15  C 49.4921875 15  50.6796875 12.7734375  49.578125 11.109375  L 42.9140625 1.109375  C 42.4453125 0.4140625  41.6640625 0  40.828125 0  L 9.171875 0  C 8.3359375 0  7.5546875 0.4140625  7.09375 1.109375  L 0.42968750000000006 11.109375  C -0.6796875 12.7734375  0.5078125 15  2.5078125 15  L 47.5 15  Z M 40 17.5  L 40 38.75  C 40 39.4375  40.5625 40  41.25 40  L 43.75 40  C 44.4375 40  45 39.4375  45 38.75  L 45 17.5  L 40 17.5  Z " fill-rule="nonzero" fill="rgba(0, 0, 0, 1)" stroke="none" class="fill" />
    <path d="M 25 17.5  L 25 30  L 10 30  L 10 17.5  L 5 17.5  L 5 37.5  C 5 38.8828125  6.1171875 40  7.5 40  L 27.500000000000004 40  C 28.8828125 40  30 38.8828125  30 37.5  L 30 17.5  L 25 17.5  Z " stroke-width="0" stroke-dasharray="0" stroke="rgba(255, 255, 255, 0)" fill="none" class="stroke" mask="url(#Clip2017)" />
    <path d="M 47.5 15  C 49.4921875 15  50.6796875 12.7734375  49.578125 11.109375  L 42.9140625 1.109375  C 42.4453125 0.4140625  41.6640625 0  40.828125 0  L 9.171875 0  C 8.3359375 0  7.5546875 0.4140625  7.09375 1.109375  L 0.42968750000000006 11.109375  C -0.6796875 12.7734375  0.5078125 15  2.5078125 15  L 47.5 15  Z " stroke-width="0" stroke-dasharray="0" stroke="rgba(255, 255, 255, 0)" fill="none" class="stroke" mask="url(#Clip2017)" />
    <path d="M 40 17.5  L 40 38.75  C 40 39.4375  40.5625 40  41.25 40  L 43.75 40  C 44.4375 40  45 39.4375  45 38.75  L 45 17.5  L 40 17.5  Z " stroke-width="0" stroke-dasharray="0" stroke="rgba(255, 255, 255, 0)" fill="none" class="stroke" mask="url(#Clip2017)" />
  </g>
</svg>