<?xml version="1.0" encoding="utf-8"?>
<svg version="1.1" xmlns:xlink="http://www.w3.org/1999/xlink" width="24px" height="24px" xmlns="http://www.w3.org/2000/svg">
  <defs>
    <pattern id="BGPattern" patternUnits="userSpaceOnUse" alignment="0 0" imageRepeat="None" />
    <mask fill="white" id="Clip5688">
      <path d="M 4.5 3.7589999999999995  L 4.5 3.749999999999999  C 4.5 1.6789321881345245  6.1789321881345245 0  8.249999999999998 0  C 10.321067811865474 0  11.999999999999998 1.6789321881345245  11.999999999999998 3.749999999999999  C 11.999999999999998 1.6789321881345245  13.678932188134523 0  15.749999999999996 0  C 17.821067811865472 0  19.499999999999996 1.6789321881345245  19.5 3.75  L 19.5 3.7589999999999995  C 19.5 3.8639999999999994  19.5 4.164  19.442999999999998 4.5  L 22.5 4.5  C 23.32842712474619 4.5  24 5.17157287525381  24 6  L 24 9  C 24 9.82842712474619  23.32842712474619 10.5  22.5 10.5  L 22.5 21.75  C 22.5 22.992640687119284  21.492640687119284 24  20.25 24  L 3.75 24  C 2.507359312880714 24  1.5 22.992640687119284  1.5 21.75  L 1.5 10.5  C 0.6715728752538098 10.5  0 9.82842712474619  0 9  L 0 6  C 0 5.17157287525381  0.6715728752538098 4.5  1.5 4.5  L 4.556999999999999 4.5  C 4.517380856383918 4.255020342423209  4.498314440997028 4.007156942393641  4.5 3.7589999999999995  Z M 6.0675 4.3950000000000005  C 6.0765123865409985 4.4307689487950785  6.088041098996234 4.465856334528403  6.101999999999999 4.5  L 10.5 4.5  L 10.499999999999998 3.749999952584795  C 10.499999999999998 2.5073592654655092  9.492640687119284 1.499999952584795  8.249999999999998 1.499999952584795  C 7.007359312880714 1.499999952584795  5.999999999999998 2.5073592654655092  6 3.75  C 6 3.8775  6.003 4.161  6.0675 4.3950000000000005  Z M 13.5 3.75  L 13.5 4.5  L 17.898 4.5  C 17.911792581477343 4.465795325894453  17.92331752127788 4.4307194221536905  17.9325 4.3950000000000005  C 17.997 4.161  18 3.8775  18 3.75  C 18 2.5073593128807143  16.992640687119284 1.4999999999999996  15.75 1.4999999999999996  C 14.507359312880716 1.4999999999999996  13.5 2.5073593128807143  13.5 3.75  Z M 10.5 6  L 1.5 6  L 1.5 9  L 10.5 9  L 10.5 6  Z M 22.5 6  L 13.5 6  L 13.5 9  L 22.5 9  L 22.5 6  Z M 21 21.75  L 21 10.5  L 13.5 10.5  L 13.5 22.5  L 20.25 22.5  C 20.664213562373096 22.5  21 22.164213562373096  21 21.75  Z M 3.75 22.5  L 10.5 22.5  L 10.5 10.5  L 3 10.5  L 3 21.75  C 3 22.164213562373096  3.335786437626905 22.5  3.75 22.5  Z " fill-rule="evenodd" />
    </mask>
  </defs>
  <g>
    <path d="M 4.5 3.7589999999999995  L 4.5 3.749999999999999  C 4.5 1.6789321881345245  6.1789321881345245 0  8.249999999999998 0  C 10.321067811865474 0  11.999999999999998 1.6789321881345245  11.999999999999998 3.749999999999999  C 11.999999999999998 1.6789321881345245  13.678932188134523 0  15.749999999999996 0  C 17.821067811865472 0  19.499999999999996 1.6789321881345245  19.5 3.75  L 19.5 3.7589999999999995  C 19.5 3.8639999999999994  19.5 4.164  19.442999999999998 4.5  L 22.5 4.5  C 23.32842712474619 4.5  24 5.17157287525381  24 6  L 24 9  C 24 9.82842712474619  23.32842712474619 10.5  22.5 10.5  L 22.5 21.75  C 22.5 22.992640687119284  21.492640687119284 24  20.25 24  L 3.75 24  C 2.507359312880714 24  1.5 22.992640687119284  1.5 21.75  L 1.5 10.5  C 0.6715728752538098 10.5  0 9.82842712474619  0 9  L 0 6  C 0 5.17157287525381  0.6715728752538098 4.5  1.5 4.5  L 4.556999999999999 4.5  C 4.517380856383918 4.255020342423209  4.498314440997028 4.007156942393641  4.5 3.7589999999999995  Z M 6.0675 4.3950000000000005  C 6.0765123865409985 4.4307689487950785  6.088041098996234 4.465856334528403  6.101999999999999 4.5  L 10.5 4.5  L 10.499999999999998 3.749999952584795  C 10.499999999999998 2.5073592654655092  9.492640687119284 1.499999952584795  8.249999999999998 1.499999952584795  C 7.007359312880714 1.499999952584795  5.999999999999998 2.5073592654655092  6 3.75  C 6 3.8775  6.003 4.161  6.0675 4.3950000000000005  Z M 13.5 3.75  L 13.5 4.5  L 17.898 4.5  C 17.911792581477343 4.465795325894453  17.92331752127788 4.4307194221536905  17.9325 4.3950000000000005  C 17.997 4.161  18 3.8775  18 3.75  C 18 2.5073593128807143  16.992640687119284 1.4999999999999996  15.75 1.4999999999999996  C 14.507359312880716 1.4999999999999996  13.5 2.5073593128807143  13.5 3.75  Z M 10.5 6  L 1.5 6  L 1.5 9  L 10.5 9  L 10.5 6  Z M 22.5 6  L 13.5 6  L 13.5 9  L 22.5 9  L 22.5 6  Z M 21 21.75  L 21 10.5  L 13.5 10.5  L 13.5 22.5  L 20.25 22.5  C 20.664213562373096 22.5  21 22.164213562373096  21 21.75  Z M 3.75 22.5  L 10.5 22.5  L 10.5 10.5  L 3 10.5  L 3 21.75  C 3 22.164213562373096  3.335786437626905 22.5  3.75 22.5  Z " fill-rule="nonzero" fill="rgba(0, 0, 0, 1)" stroke="none" class="fill" />
    <path d="M 4.5 3.7589999999999995  L 4.5 3.749999999999999  C 4.5 1.6789321881345245  6.1789321881345245 0  8.249999999999998 0  C 10.321067811865474 0  11.999999999999998 1.6789321881345245  11.999999999999998 3.749999999999999  C 11.999999999999998 1.6789321881345245  13.678932188134523 0  15.749999999999996 0  C 17.821067811865472 0  19.499999999999996 1.6789321881345245  19.5 3.75  L 19.5 3.7589999999999995  C 19.5 3.8639999999999994  19.5 4.164  19.442999999999998 4.5  L 22.5 4.5  C 23.32842712474619 4.5  24 5.17157287525381  24 6  L 24 9  C 24 9.82842712474619  23.32842712474619 10.5  22.5 10.5  L 22.5 21.75  C 22.5 22.992640687119284  21.492640687119284 24  20.25 24  L 3.75 24  C 2.507359312880714 24  1.5 22.992640687119284  1.5 21.75  L 1.5 10.5  C 0.6715728752538098 10.5  0 9.82842712474619  0 9  L 0 6  C 0 5.17157287525381  0.6715728752538098 4.5  1.5 4.5  L 4.556999999999999 4.5  C 4.517380856383918 4.255020342423209  4.498314440997028 4.007156942393641  4.5 3.7589999999999995  Z " stroke-width="0" stroke-dasharray="0" stroke="rgba(255, 255, 255, 0)" fill="none" class="stroke" mask="url(#Clip5688)" />
    <path d="M 6.0675 4.3950000000000005  C 6.0765123865409985 4.4307689487950785  6.088041098996234 4.465856334528403  6.101999999999999 4.5  L 10.5 4.5  L 10.499999999999998 3.749999952584795  C 10.499999999999998 2.5073592654655092  9.492640687119284 1.499999952584795  8.249999999999998 1.499999952584795  C 7.007359312880714 1.499999952584795  5.999999999999998 2.5073592654655092  6 3.75  C 6 3.8775  6.003 4.161  6.0675 4.3950000000000005  Z " stroke-width="0" stroke-dasharray="0" stroke="rgba(255, 255, 255, 0)" fill="none" class="stroke" mask="url(#Clip5688)" />
    <path d="M 13.5 3.75  L 13.5 4.5  L 17.898 4.5  C 17.911792581477343 4.465795325894453  17.92331752127788 4.4307194221536905  17.9325 4.3950000000000005  C 17.997 4.161  18 3.8775  18 3.75  C 18 2.5073593128807143  16.992640687119284 1.4999999999999996  15.75 1.4999999999999996  C 14.507359312880716 1.4999999999999996  13.5 2.5073593128807143  13.5 3.75  Z " stroke-width="0" stroke-dasharray="0" stroke="rgba(255, 255, 255, 0)" fill="none" class="stroke" mask="url(#Clip5688)" />
    <path d="M 10.5 6  L 1.5 6  L 1.5 9  L 10.5 9  L 10.5 6  Z " stroke-width="0" stroke-dasharray="0" stroke="rgba(255, 255, 255, 0)" fill="none" class="stroke" mask="url(#Clip5688)" />
    <path d="M 22.5 6  L 13.5 6  L 13.5 9  L 22.5 9  L 22.5 6  Z " stroke-width="0" stroke-dasharray="0" stroke="rgba(255, 255, 255, 0)" fill="none" class="stroke" mask="url(#Clip5688)" />
    <path d="M 21 21.75  L 21 10.5  L 13.5 10.5  L 13.5 22.5  L 20.25 22.5  C 20.664213562373096 22.5  21 22.164213562373096  21 21.75  Z " stroke-width="0" stroke-dasharray="0" stroke="rgba(255, 255, 255, 0)" fill="none" class="stroke" mask="url(#Clip5688)" />
    <path d="M 3.75 22.5  L 10.5 22.5  L 10.5 10.5  L 3 10.5  L 3 21.75  C 3 22.164213562373096  3.335786437626905 22.5  3.75 22.5  Z " stroke-width="0" stroke-dasharray="0" stroke="rgba(255, 255, 255, 0)" fill="none" class="stroke" mask="url(#Clip5688)" />
  </g>
</svg>