<?xml version="1.0" encoding="utf-8"?>
<svg version="1.1" xmlns:xlink="http://www.w3.org/1999/xlink" width="45px" height="49px" xmlns="http://www.w3.org/2000/svg">
  <defs>
    <pattern id="BGPattern" patternUnits="userSpaceOnUse" alignment="0 0" imageRepeat="None" />
    <mask fill="white" id="Clip7564">
      <path d="M 44.923021908315825 22.111549115264257  C 44.923021908315825 10.505561261725742  35.55473998679134 1.075851272079429  23.949 0.9999999999999999  C 17.608464998849733 0.9928868209846854  11.52919297240218 3.5254366367417473  7.069000000000001 8.032  C -2.2524374904891 17.423711879219066  -2.2524374904890987 32.57628812078093  7.069000000000003 41.967999999999996  C 12.815241133519297 47.75575443411811  21.12492430558753 50.19809183146714  29.089 48.44  L 29.089 43.372  C 27.41911039201667 43.839758492410674  25.69316515955564 44.07728623785268  23.959 44.077999999999996  C 18.917328758177284 44.08825258011072  14.08253172898155 42.07435426467077  10.539000000000003 38.488  C 3.12549890420865 31.024989070041503  3.122819482265172 18.97830801216791  10.533000000000005 11.512  C 14.074789722598755 7.925495667672843  18.908446764091654 5.911471900384133  23.949 5.922  C 32.8433810627315 5.984913057053478  40.02051364495763 13.212991541182134  40.02051364495763 22.10759510411987  C 40.02051364495763 25.268001371871097  39.09529137330541 28.35926903221352  37.359 31  L 33.179 20.672  C 32.567 19.162  31.839000000000002 16.882  29.061000000000003 16.882  C 26.283 16.882  25.561 19.162000000000003  24.953 20.672  L 21.109 30.214  L 15.953000000000003 17.126  L 10.533000000000003 17.126  L 16.959000000000003 33.026  C 17.611000000000004 34.64  18.319000000000003 36.82  21.113000000000003 36.82  C 23.907000000000004 36.82  24.607000000000003 34.64  25.257000000000005 33.028  L 29.065000000000005 23.573999999999998  L 32.889 33.028  C 33.663000000000004 34.974  34.483000000000004 36.815999999999995  37.029 36.815999999999995  C 38.452434312569764 36.7580003834618  39.77118319737683 36.05221187416282  40.609 34.89999999999999  C 43.40754314428864 31.224037457695168  44.923021908315825 26.731564736760905  44.923021908315825 22.111549115264257  Z " fill-rule="evenodd" />
    </mask>
  </defs>
  <g>
    <path d="M 44.923021908315825 22.111549115264257  C 44.923021908315825 10.505561261725742  35.55473998679134 1.075851272079429  23.949 0.9999999999999999  C 17.608464998849733 0.9928868209846854  11.52919297240218 3.5254366367417473  7.069000000000001 8.032  C -2.2524374904891 17.423711879219066  -2.2524374904890987 32.57628812078093  7.069000000000003 41.967999999999996  C 12.815241133519297 47.75575443411811  21.12492430558753 50.19809183146714  29.089 48.44  L 29.089 43.372  C 27.41911039201667 43.839758492410674  25.69316515955564 44.07728623785268  23.959 44.077999999999996  C 18.917328758177284 44.08825258011072  14.08253172898155 42.07435426467077  10.539000000000003 38.488  C 3.12549890420865 31.024989070041503  3.122819482265172 18.97830801216791  10.533000000000005 11.512  C 14.074789722598755 7.925495667672843  18.908446764091654 5.911471900384133  23.949 5.922  C 32.8433810627315 5.984913057053478  40.02051364495763 13.212991541182134  40.02051364495763 22.10759510411987  C 40.02051364495763 25.268001371871097  39.09529137330541 28.35926903221352  37.359 31  L 33.179 20.672  C 32.567 19.162  31.839000000000002 16.882  29.061000000000003 16.882  C 26.283 16.882  25.561 19.162000000000003  24.953 20.672  L 21.109 30.214  L 15.953000000000003 17.126  L 10.533000000000003 17.126  L 16.959000000000003 33.026  C 17.611000000000004 34.64  18.319000000000003 36.82  21.113000000000003 36.82  C 23.907000000000004 36.82  24.607000000000003 34.64  25.257000000000005 33.028  L 29.065000000000005 23.573999999999998  L 32.889 33.028  C 33.663000000000004 34.974  34.483000000000004 36.815999999999995  37.029 36.815999999999995  C 38.452434312569764 36.7580003834618  39.77118319737683 36.05221187416282  40.609 34.89999999999999  C 43.40754314428864 31.224037457695168  44.923021908315825 26.731564736760905  44.923021908315825 22.111549115264257  Z " fill-rule="nonzero" fill="rgba(32, 37, 45, 1)" stroke="none" class="fill" />
    <path d="M 44.923021908315825 22.111549115264257  C 44.923021908315825 10.505561261725742  35.55473998679134 1.075851272079429  23.949 0.9999999999999999  C 17.608464998849733 0.9928868209846854  11.52919297240218 3.5254366367417473  7.069000000000001 8.032  C -2.2524374904891 17.423711879219066  -2.2524374904890987 32.57628812078093  7.069000000000003 41.967999999999996  C 12.815241133519297 47.75575443411811  21.12492430558753 50.19809183146714  29.089 48.44  L 29.089 43.372  C 27.41911039201667 43.839758492410674  25.69316515955564 44.07728623785268  23.959 44.077999999999996  C 18.917328758177284 44.08825258011072  14.08253172898155 42.07435426467077  10.539000000000003 38.488  C 3.12549890420865 31.024989070041503  3.122819482265172 18.97830801216791  10.533000000000005 11.512  C 14.074789722598755 7.925495667672843  18.908446764091654 5.911471900384133  23.949 5.922  C 32.8433810627315 5.984913057053478  40.02051364495763 13.212991541182134  40.02051364495763 22.10759510411987  C 40.02051364495763 25.268001371871097  39.09529137330541 28.35926903221352  37.359 31  L 33.179 20.672  C 32.567 19.162  31.839000000000002 16.882  29.061000000000003 16.882  C 26.283 16.882  25.561 19.162000000000003  24.953 20.672  L 21.109 30.214  L 15.953000000000003 17.126  L 10.533000000000003 17.126  L 16.959000000000003 33.026  C 17.611000000000004 34.64  18.319000000000003 36.82  21.113000000000003 36.82  C 23.907000000000004 36.82  24.607000000000003 34.64  25.257000000000005 33.028  L 29.065000000000005 23.573999999999998  L 32.889 33.028  C 33.663000000000004 34.974  34.483000000000004 36.815999999999995  37.029 36.815999999999995  C 38.452434312569764 36.7580003834618  39.77118319737683 36.05221187416282  40.609 34.89999999999999  C 43.40754314428864 31.224037457695168  44.923021908315825 26.731564736760905  44.923021908315825 22.111549115264257  Z " stroke-width="0" stroke-dasharray="0" stroke="rgba(255, 255, 255, 0)" fill="none" class="stroke" mask="url(#Clip7564)" />
  </g>
</svg>