<?xml version="1.0" encoding="utf-8"?>
<svg version="1.1" xmlns:xlink="http://www.w3.org/1999/xlink" width="4px" height="4px" xmlns="http://www.w3.org/2000/svg">
  <defs>
    <pattern id="BGPattern" patternUnits="userSpaceOnUse" alignment="0 0" imageRepeat="None" />
    <mask fill="white" id="Clip5986">
      <path d="M 0.5 2  L 0.5 3.5  L 3.5 3.5  L 3.5 2  C 3.5 1.1715728752538102  2.82842712474619 0.5  2 0.5  C 1.1715728752538102 0.5  0.5 1.1715728752538102  0.5 2  Z " fill-rule="evenodd" />
    </mask>
  </defs>
  <g transform="matrix(1 0 0 1 -8 -10 )">
    <path d="M 0.5 2  L 0.5 3.5  L 3.5 3.5  L 3.5 2  C 3.5 1.1715728752538102  2.82842712474619 0.5  2 0.5  C 1.1715728752538102 0.5  0.5 1.1715728752538102  0.5 2  Z " fill-rule="nonzero" fill="rgba(0, 0, 0, 1)" stroke="none" transform="matrix(1 0 0 1 8 10 )" class="fill" />
    <path d="M 0.5 2  L 0.5 3.5  L 3.5 3.5  L 3.5 2  C 3.5 1.1715728752538102  2.82842712474619 0.5  2 0.5  C 1.1715728752538102 0.5  0.5 1.1715728752538102  0.5 2  Z " stroke-width="0" stroke-dasharray="0" stroke="rgba(255, 255, 255, 0)" fill="none" transform="matrix(1 0 0 1 8 10 )" class="stroke" mask="url(#Clip5986)" />
  </g>
</svg>