<?xml version="1.0" encoding="utf-8"?>
<svg version="1.1" xmlns:xlink="http://www.w3.org/1999/xlink" width="4px" height="6px" xmlns="http://www.w3.org/2000/svg">
  <defs>
    <pattern id="BGPattern" patternUnits="userSpaceOnUse" alignment="0 0" imageRepeat="None" />
    <mask fill="white" id="Clip5632">
      <path d="M 2.794999999999998 2.5215000000000014  C 2.7651261498777036 2.4023019502146354  2.750012895212752 2.279884587428521  2.75 2.157  L 2.75 0.75  L 1.25 0.75  L 1.25 2.157  C 1.2499871047872482 2.2798845874285156  1.2348738501222947 2.402301950214639  1.205 2.5215000000000014  L 0.6049999999999986 4.918500000000002  L 1.9999999999999982 5.848500000000001  L 3.3949999999999996 4.918500000000002  L 2.794999999999998 2.5215000000000014  Z " fill-rule="evenodd" />
    </mask>
  </defs>
  <g transform="matrix(1 0 0 1 -7 -12 )">
    <path d="M 2.794999999999998 2.5215000000000014  C 2.7651261498777036 2.4023019502146354  2.750012895212752 2.279884587428521  2.75 2.157  L 2.75 0.75  L 1.25 0.75  L 1.25 2.157  C 1.2499871047872482 2.2798845874285156  1.2348738501222947 2.402301950214639  1.205 2.5215000000000014  L 0.6049999999999986 4.918500000000002  L 1.9999999999999982 5.848500000000001  L 3.3949999999999996 4.918500000000002  L 2.794999999999998 2.5215000000000014  Z " fill-rule="nonzero" fill="rgba(0, 0, 0, 1)" stroke="none" transform="matrix(1 0 0 1 7 12 )" class="fill" />
    <path d="M 2.794999999999998 2.5215000000000014  C 2.7651261498777036 2.4023019502146354  2.750012895212752 2.279884587428521  2.75 2.157  L 2.75 0.75  L 1.25 0.75  L 1.25 2.157  C 1.2499871047872482 2.2798845874285156  1.2348738501222947 2.402301950214639  1.205 2.5215000000000014  L 0.6049999999999986 4.918500000000002  L 1.9999999999999982 5.848500000000001  L 3.3949999999999996 4.918500000000002  L 2.794999999999998 2.5215000000000014  Z " stroke-width="0" stroke-dasharray="0" stroke="rgba(255, 255, 255, 0)" fill="none" transform="matrix(1 0 0 1 7 12 )" class="stroke" mask="url(#Clip5632)" />
  </g>
</svg>