<?xml version="1.0" encoding="utf-8"?>
<svg version="1.1" xmlns:xlink="http://www.w3.org/1999/xlink" width="22px" height="28px" xmlns="http://www.w3.org/2000/svg">
  <defs>
    <pattern id="BGPattern" patternUnits="userSpaceOnUse" alignment="0 0" imageRepeat="None" />
    <mask fill="white" id="Clip4215">
      <path d="M 22 5  C 22 3.8954305003384135  21.104569499661586 3  20 3  L 17 3  L 17 2  C 17 0.895430500338413  16.104569499661586 0  14.999999999999998 0  L 7 0  C 5.8954305003384135 0  5 0.895430500338413  5 2  L 5 3  L 2 3  C 0.8954305003384135 3  0 3.8954305003384135  0 5  L 0 26  C 0 27.104569499661586  0.8954305003384135 28  2 28  L 20 28  C 21.104569499661586 28  22 27.104569499661586  22 26  L 22 5  Z M 7 6  L 7 2  L 14.999999999999998 2  L 14.999999999999998 6  L 7 6  Z M 20 5  L 20 26  L 2 26  L 2 5  L 5 5  L 5 8  L 17 8  L 17 5  L 20 5  Z " fill-rule="evenodd" />
    </mask>
  </defs>
  <g transform="matrix(1 0 0 1 -5 -2 )">
    <path d="M 22 5  C 22 3.8954305003384135  21.104569499661586 3  20 3  L 17 3  L 17 2  C 17 0.895430500338413  16.104569499661586 0  14.999999999999998 0  L 7 0  C 5.8954305003384135 0  5 0.895430500338413  5 2  L 5 3  L 2 3  C 0.8954305003384135 3  0 3.8954305003384135  0 5  L 0 26  C 0 27.104569499661586  0.8954305003384135 28  2 28  L 20 28  C 21.104569499661586 28  22 27.104569499661586  22 26  L 22 5  Z M 7 6  L 7 2  L 14.999999999999998 2  L 14.999999999999998 6  L 7 6  Z M 20 5  L 20 26  L 2 26  L 2 5  L 5 5  L 5 8  L 17 8  L 17 5  L 20 5  Z " fill-rule="nonzero" fill="rgba(0, 0, 0, 1)" stroke="none" transform="matrix(1 0 0 1 5 2 )" class="fill" />
    <path d="M 22 5  C 22 3.8954305003384135  21.104569499661586 3  20 3  L 17 3  L 17 2  C 17 0.895430500338413  16.104569499661586 0  14.999999999999998 0  L 7 0  C 5.8954305003384135 0  5 0.895430500338413  5 2  L 5 3  L 2 3  C 0.8954305003384135 3  0 3.8954305003384135  0 5  L 0 26  C 0 27.104569499661586  0.8954305003384135 28  2 28  L 20 28  C 21.104569499661586 28  22 27.104569499661586  22 26  L 22 5  Z " stroke-width="0" stroke-dasharray="0" stroke="rgba(255, 255, 255, 0)" fill="none" transform="matrix(1 0 0 1 5 2 )" class="stroke" mask="url(#Clip4215)" />
    <path d="M 7 6  L 7 2  L 14.999999999999998 2  L 14.999999999999998 6  L 7 6  Z " stroke-width="0" stroke-dasharray="0" stroke="rgba(255, 255, 255, 0)" fill="none" transform="matrix(1 0 0 1 5 2 )" class="stroke" mask="url(#Clip4215)" />
    <path d="M 20 5  L 20 26  L 2 26  L 2 5  L 5 5  L 5 8  L 17 8  L 17 5  L 20 5  Z " stroke-width="0" stroke-dasharray="0" stroke="rgba(255, 255, 255, 0)" fill="none" transform="matrix(1 0 0 1 5 2 )" class="stroke" mask="url(#Clip4215)" />
  </g>
</svg>