<?xml version="1.0" encoding="utf-8"?>
<svg version="1.1" xmlns:xlink="http://www.w3.org/1999/xlink" width="16px" height="24px" xmlns="http://www.w3.org/2000/svg">
  <defs>
    <pattern id="BGPattern" patternUnits="userSpaceOnUse" alignment="0 0" imageRepeat="None" />
    <mask fill="white" id="Clip6058">
      <path d="M 0.5 21  L 0.5 3  C 0.5 1.3431457505076196  1.8431457505076194 0  3.5 0  L 12.5 0  C 14.15685424949238 0  15.5 1.3431457505076196  15.5 3  L 15.5 21  C 15.5 22.65685424949238  14.15685424949238 24  12.5 24  L 3.5 24  C 1.8431457505076194 24  0.5 22.65685424949238  0.5 21  Z M 8 21  C 8.82842712474619 21  9.5 20.32842712474619  9.5 19.5  C 9.5 18.67157287525381  8.82842712474619 18  8 18  C 7.17157287525381 18  6.5 18.67157287525381  6.5 19.5  C 6.5 20.32842712474619  7.17157287525381 21  8 21  Z " fill-rule="evenodd" />
    </mask>
  </defs>
  <g>
    <path d="M 0.5 21  L 0.5 3  C 0.5 1.3431457505076196  1.8431457505076194 0  3.5 0  L 12.5 0  C 14.15685424949238 0  15.5 1.3431457505076196  15.5 3  L 15.5 21  C 15.5 22.65685424949238  14.15685424949238 24  12.5 24  L 3.5 24  C 1.8431457505076194 24  0.5 22.65685424949238  0.5 21  Z M 8 21  C 8.82842712474619 21  9.5 20.32842712474619  9.5 19.5  C 9.5 18.67157287525381  8.82842712474619 18  8 18  C 7.17157287525381 18  6.5 18.67157287525381  6.5 19.5  C 6.5 20.32842712474619  7.17157287525381 21  8 21  Z " fill-rule="nonzero" fill="rgba(0, 0, 0, 1)" stroke="none" class="fill" />
    <path d="M 0.5 21  L 0.5 3  C 0.5 1.3431457505076196  1.8431457505076194 0  3.5 0  L 12.5 0  C 14.15685424949238 0  15.5 1.3431457505076196  15.5 3  L 15.5 21  C 15.5 22.65685424949238  14.15685424949238 24  12.5 24  L 3.5 24  C 1.8431457505076194 24  0.5 22.65685424949238  0.5 21  Z " stroke-width="0" stroke-dasharray="0" stroke="rgba(255, 255, 255, 0)" fill="none" class="stroke" mask="url(#Clip6058)" />
    <path d="M 8 21  C 8.82842712474619 21  9.5 20.32842712474619  9.5 19.5  C 9.5 18.67157287525381  8.82842712474619 18  8 18  C 7.17157287525381 18  6.5 18.67157287525381  6.5 19.5  C 6.5 20.32842712474619  7.17157287525381 21  8 21  Z " stroke-width="0" stroke-dasharray="0" stroke="rgba(255, 255, 255, 0)" fill="none" class="stroke" mask="url(#Clip6058)" />
  </g>
</svg>