<?xml version="1.0" encoding="utf-8"?>
<svg version="1.1" xmlns:xlink="http://www.w3.org/1999/xlink" width="52px" height="52px" xmlns="http://www.w3.org/2000/svg">
  <defs>
    <pattern id="BGPattern" patternUnits="userSpaceOnUse" alignment="0 0" imageRepeat="None" />
    <mask fill="white" id="Clip2419">
      <path d="M 51.35625 4.012500000000005  C 51.550000000000004 3.8125000000000053  51.550000000000004 3.4937500000000044  51.35625 3.3000000000000007  L 48.706250000000004 0.6500000000000004  C 48.60625 0.5500000000000007  48.48125 0.5062500000000005  48.35 0.5062500000000005  C 48.21875 0.5062500000000005  48.09375 0.5562500000000004  47.99375 0.6500000000000004  L 43.237500000000004 5.406250000000002  C 41.16986042986484 4.005331195486752  38.72878683389306 3.2584192923482007  36.231249999999996 3.2624999999999993  C 33.03124999999999 3.2624999999999993  29.83125 4.481249999999999  27.3875 6.924999999999999  L 21.01875 13.293750000000001  C 20.825083070452088 13.489336352046646  20.825083070452084 13.804413647953353  21.01875 14  L 38 30.981250000000003  C 38.1 31.081250000000008  38.225 31.125  38.35625 31.125  C 38.48125 31.125  38.612500000000004 31.075000000000006  38.712500000000006 30.981250000000003  L 45.081250000000004 24.612500000000004  C 49.3875 20.300000000000004  49.893750000000004 13.631250000000005  46.6 8.768750000000004  L 51.35625 4.012500000000005  Z M 44.487500000000004 15.768749999999997  C 44.487500000000004 17.974999999999998  43.62500000000001 20.043749999999996  42.06875 21.60625  L 38.35625 25.318749999999998  L 26.681250000000006 13.643749999999997  L 30.393750000000004 9.931249999999997  C 31.950000000000003 8.374999999999996  34.025000000000006 7.512499999999997  36.23125 7.512499999999997  C 38.4375 7.512499999999997  40.50625 8.368749999999995  42.06875 9.931249999999995  C 43.625 11.487499999999994  44.487500000000004 13.562499999999995  44.487500000000004 15.768749999999997  Z M 32.46875 30.43125  L 30.181250000000006 28.168750000000003  C 29.985663647953352 27.97508307045208  29.670586352046655 27.975083070452087  29.475000000000012 28.168750000000003  L 25.3125 32.33125  L 19.66875 26.6875  L 23.8375 22.51875  C 24.03125 22.325  24.03125 22.00625  23.8375 21.8125  L 21.562500000000004 19.5375  C 21.366913647953357 19.34383307045208  21.051836352046646 19.34383307045208  20.85625 19.5375  L 16.6875 23.70625  L 13.999999999999996 21.01875  C 13.905725613510901 20.924402038103374  13.77710274942914 20.872501584175644  13.643750000000002 20.875  C 13.518749999999999 20.875  13.3875 20.925  13.287500000000001 21.01875  L 6.925000000000002 27.387500000000003  C 2.6187500000000004 31.700000000000003  2.1125000000000007 38.368750000000006  5.40625 43.23125  L 0.6500000000000004 47.987500000000004  C 0.4563330704520903 48.183086352046644  0.4563330704520858 48.498163647953355  0.6500000000000004 48.69375  L 3.3000000000000007 51.34375  C 3.4000000000000004 51.44375  3.5250000000000004 51.4875  3.65625 51.4875  C 3.7874999999999996 51.4875  3.9124999999999996 51.4375  4.012499999999999 51.34375  L 8.768749999999999 46.5875  C 10.875 48.01875  13.325 48.731249999999996  15.774999999999999 48.731249999999996  C 18.974999999999998 48.731249999999996  22.174999999999997 47.512499999999996  24.61875 45.068749999999994  L 30.987499999999997 38.699999999999996  C 31.18125 38.506249999999994  31.18125 38.18749999999999  30.987499999999997 37.99375  L 28.299999999999997 35.30625  L 32.46875 31.137499999999996  C 32.6625 30.943749999999994  32.6625 30.624999999999996  32.46875 30.43125  Z M 25.318749999999994 38.35625  L 21.60625 42.068749999999994  C 20.0611850393489 43.62173266101184  17.95940169924425 44.49260006210445  15.768749999999997 44.487500000000004  C 13.562499999999995 44.487500000000004  11.493749999999999 43.63125  9.931249999999997 42.068749999999994  C 8.37826733898816 40.5236850393489  7.507399937895551 38.42190169924426  7.512499999999997 36.23125  C 7.512499999999997 34.025000000000006  8.368749999999995 31.956250000000004  9.931249999999995 30.393750000000004  L 13.643749999999994 26.681250000000006  L 25.318749999999994 38.35625  Z " fill-rule="evenodd" />
    </mask>
  </defs>
  <g>
    <path d="M 51.35625 4.012500000000005  C 51.550000000000004 3.8125000000000053  51.550000000000004 3.4937500000000044  51.35625 3.3000000000000007  L 48.706250000000004 0.6500000000000004  C 48.60625 0.5500000000000007  48.48125 0.5062500000000005  48.35 0.5062500000000005  C 48.21875 0.5062500000000005  48.09375 0.5562500000000004  47.99375 0.6500000000000004  L 43.237500000000004 5.406250000000002  C 41.16986042986484 4.005331195486752  38.72878683389306 3.2584192923482007  36.231249999999996 3.2624999999999993  C 33.03124999999999 3.2624999999999993  29.83125 4.481249999999999  27.3875 6.924999999999999  L 21.01875 13.293750000000001  C 20.825083070452088 13.489336352046646  20.825083070452084 13.804413647953353  21.01875 14  L 38 30.981250000000003  C 38.1 31.081250000000008  38.225 31.125  38.35625 31.125  C 38.48125 31.125  38.612500000000004 31.075000000000006  38.712500000000006 30.981250000000003  L 45.081250000000004 24.612500000000004  C 49.3875 20.300000000000004  49.893750000000004 13.631250000000005  46.6 8.768750000000004  L 51.35625 4.012500000000005  Z M 44.487500000000004 15.768749999999997  C 44.487500000000004 17.974999999999998  43.62500000000001 20.043749999999996  42.06875 21.60625  L 38.35625 25.318749999999998  L 26.681250000000006 13.643749999999997  L 30.393750000000004 9.931249999999997  C 31.950000000000003 8.374999999999996  34.025000000000006 7.512499999999997  36.23125 7.512499999999997  C 38.4375 7.512499999999997  40.50625 8.368749999999995  42.06875 9.931249999999995  C 43.625 11.487499999999994  44.487500000000004 13.562499999999995  44.487500000000004 15.768749999999997  Z M 32.46875 30.43125  L 30.181250000000006 28.168750000000003  C 29.985663647953352 27.97508307045208  29.670586352046655 27.975083070452087  29.475000000000012 28.168750000000003  L 25.3125 32.33125  L 19.66875 26.6875  L 23.8375 22.51875  C 24.03125 22.325  24.03125 22.00625  23.8375 21.8125  L 21.562500000000004 19.5375  C 21.366913647953357 19.34383307045208  21.051836352046646 19.34383307045208  20.85625 19.5375  L 16.6875 23.70625  L 13.999999999999996 21.01875  C 13.905725613510901 20.924402038103374  13.77710274942914 20.872501584175644  13.643750000000002 20.875  C 13.518749999999999 20.875  13.3875 20.925  13.287500000000001 21.01875  L 6.925000000000002 27.387500000000003  C 2.6187500000000004 31.700000000000003  2.1125000000000007 38.368750000000006  5.40625 43.23125  L 0.6500000000000004 47.987500000000004  C 0.4563330704520903 48.183086352046644  0.4563330704520858 48.498163647953355  0.6500000000000004 48.69375  L 3.3000000000000007 51.34375  C 3.4000000000000004 51.44375  3.5250000000000004 51.4875  3.65625 51.4875  C 3.7874999999999996 51.4875  3.9124999999999996 51.4375  4.012499999999999 51.34375  L 8.768749999999999 46.5875  C 10.875 48.01875  13.325 48.731249999999996  15.774999999999999 48.731249999999996  C 18.974999999999998 48.731249999999996  22.174999999999997 47.512499999999996  24.61875 45.068749999999994  L 30.987499999999997 38.699999999999996  C 31.18125 38.506249999999994  31.18125 38.18749999999999  30.987499999999997 37.99375  L 28.299999999999997 35.30625  L 32.46875 31.137499999999996  C 32.6625 30.943749999999994  32.6625 30.624999999999996  32.46875 30.43125  Z M 25.318749999999994 38.35625  L 21.60625 42.068749999999994  C 20.0611850393489 43.62173266101184  17.95940169924425 44.49260006210445  15.768749999999997 44.487500000000004  C 13.562499999999995 44.487500000000004  11.493749999999999 43.63125  9.931249999999997 42.068749999999994  C 8.37826733898816 40.5236850393489  7.507399937895551 38.42190169924426  7.512499999999997 36.23125  C 7.512499999999997 34.025000000000006  8.368749999999995 31.956250000000004  9.931249999999995 30.393750000000004  L 13.643749999999994 26.681250000000006  L 25.318749999999994 38.35625  Z " fill-rule="nonzero" fill="rgba(0, 0, 0, 1)" stroke="none" class="fill" />
    <path d="M 51.35625 4.012500000000005  C 51.550000000000004 3.8125000000000053  51.550000000000004 3.4937500000000044  51.35625 3.3000000000000007  L 48.706250000000004 0.6500000000000004  C 48.60625 0.5500000000000007  48.48125 0.5062500000000005  48.35 0.5062500000000005  C 48.21875 0.5062500000000005  48.09375 0.5562500000000004  47.99375 0.6500000000000004  L 43.237500000000004 5.406250000000002  C 41.16986042986484 4.005331195486752  38.72878683389306 3.2584192923482007  36.231249999999996 3.2624999999999993  C 33.03124999999999 3.2624999999999993  29.83125 4.481249999999999  27.3875 6.924999999999999  L 21.01875 13.293750000000001  C 20.825083070452088 13.489336352046646  20.825083070452084 13.804413647953353  21.01875 14  L 38 30.981250000000003  C 38.1 31.081250000000008  38.225 31.125  38.35625 31.125  C 38.48125 31.125  38.612500000000004 31.075000000000006  38.712500000000006 30.981250000000003  L 45.081250000000004 24.612500000000004  C 49.3875 20.300000000000004  49.893750000000004 13.631250000000005  46.6 8.768750000000004  L 51.35625 4.012500000000005  Z " stroke-width="0" stroke-dasharray="0" stroke="rgba(255, 255, 255, 0)" fill="none" class="stroke" mask="url(#Clip2419)" />
    <path d="M 44.487500000000004 15.768749999999997  C 44.487500000000004 17.974999999999998  43.62500000000001 20.043749999999996  42.06875 21.60625  L 38.35625 25.318749999999998  L 26.681250000000006 13.643749999999997  L 30.393750000000004 9.931249999999997  C 31.950000000000003 8.374999999999996  34.025000000000006 7.512499999999997  36.23125 7.512499999999997  C 38.4375 7.512499999999997  40.50625 8.368749999999995  42.06875 9.931249999999995  C 43.625 11.487499999999994  44.487500000000004 13.562499999999995  44.487500000000004 15.768749999999997  Z " stroke-width="0" stroke-dasharray="0" stroke="rgba(255, 255, 255, 0)" fill="none" class="stroke" mask="url(#Clip2419)" />
    <path d="M 32.46875 30.43125  L 30.181250000000006 28.168750000000003  C 29.985663647953352 27.97508307045208  29.670586352046655 27.975083070452087  29.475000000000012 28.168750000000003  L 25.3125 32.33125  L 19.66875 26.6875  L 23.8375 22.51875  C 24.03125 22.325  24.03125 22.00625  23.8375 21.8125  L 21.562500000000004 19.5375  C 21.366913647953357 19.34383307045208  21.051836352046646 19.34383307045208  20.85625 19.5375  L 16.6875 23.70625  L 13.999999999999996 21.01875  C 13.905725613510901 20.924402038103374  13.77710274942914 20.872501584175644  13.643750000000002 20.875  C 13.518749999999999 20.875  13.3875 20.925  13.287500000000001 21.01875  L 6.925000000000002 27.387500000000003  C 2.6187500000000004 31.700000000000003  2.1125000000000007 38.368750000000006  5.40625 43.23125  L 0.6500000000000004 47.987500000000004  C 0.4563330704520903 48.183086352046644  0.4563330704520858 48.498163647953355  0.6500000000000004 48.69375  L 3.3000000000000007 51.34375  C 3.4000000000000004 51.44375  3.5250000000000004 51.4875  3.65625 51.4875  C 3.7874999999999996 51.4875  3.9124999999999996 51.4375  4.012499999999999 51.34375  L 8.768749999999999 46.5875  C 10.875 48.01875  13.325 48.731249999999996  15.774999999999999 48.731249999999996  C 18.974999999999998 48.731249999999996  22.174999999999997 47.512499999999996  24.61875 45.068749999999994  L 30.987499999999997 38.699999999999996  C 31.18125 38.506249999999994  31.18125 38.18749999999999  30.987499999999997 37.99375  L 28.299999999999997 35.30625  L 32.46875 31.137499999999996  C 32.6625 30.943749999999994  32.6625 30.624999999999996  32.46875 30.43125  Z " stroke-width="0" stroke-dasharray="0" stroke="rgba(255, 255, 255, 0)" fill="none" class="stroke" mask="url(#Clip2419)" />
    <path d="M 25.318749999999994 38.35625  L 21.60625 42.068749999999994  C 20.0611850393489 43.62173266101184  17.95940169924425 44.49260006210445  15.768749999999997 44.487500000000004  C 13.562499999999995 44.487500000000004  11.493749999999999 43.63125  9.931249999999997 42.068749999999994  C 8.37826733898816 40.5236850393489  7.507399937895551 38.42190169924426  7.512499999999997 36.23125  C 7.512499999999997 34.025000000000006  8.368749999999995 31.956250000000004  9.931249999999995 30.393750000000004  L 13.643749999999994 26.681250000000006  L 25.318749999999994 38.35625  Z " stroke-width="0" stroke-dasharray="0" stroke="rgba(255, 255, 255, 0)" fill="none" class="stroke" mask="url(#Clip2419)" />
  </g>
</svg>