<?xml version="1.0" encoding="utf-8"?>
<svg version="1.1" xmlns:xlink="http://www.w3.org/1999/xlink" width="46px" height="48px" xmlns="http://www.w3.org/2000/svg">
  <defs>
    <pattern id="BGPattern" patternUnits="userSpaceOnUse" alignment="0 0" imageRepeat="None" />
    <mask fill="white" id="Clip7212">
      <path d="M 3.358000000000002 36.42399999999999  L 3.3600000000000003 36.424  C 6.970000000000001 34.1  11.216000000000001 30.1  9.604 25.404  C 8.729999999999999 22.84  7.511999999999999 20.646  7.35 17.88  C 7.20854773002679 15.526812315856699  7.559347291012372 13.169984197390459  8.379999999999999 10.959999999999999  C 11.620000000000001 2.28  21.252 -1.834  29.962 0.778  C 38.022 3.21  43.578 12.564  40.2 20.724  C 38.27 25.436  37.410000000000004 29.07  41.71 32.736000000000004  C 42.874 33.728  45.71 35.216  45.694 36.982000000000006  C 45.694 39.30800000000001  41.154 36.49400000000001  40.650000000000006 36.092000000000006  C 41.22200000000001 37.098000000000006  46.926 43.066  43.300000000000004 43.468  C 39.96000000000001 43.856  37.00600000000001 39.190000000000005  35 37.184000000000005  C 31.628 33.82000000000001  32.21 41.268  32.194 42.804  C 32.194 45.228  30.458 50.156000000000006  27.374000000000002 46.948  C 24.834000000000003 44.306  25.824 40.082  24.026000000000003 37.138  C 22.090000000000003 33.914  18.866000000000003 40.361999999999995  18.060000000000002 41.538  C 17.160000000000004 42.858  12.634000000000002 49.226  10.868000000000002 45.831999999999994  C 9.418000000000003 43.071999999999996  11.736000000000004 38.75599999999999  12.882000000000001 36.26199999999999  C 12.464000000000002 37.16799999999999  9.512 38.507999999999996  8.652000000000001 38.94199999999999  C 6.784751469981887 39.97152269352778  4.667600531086147 40.46046890316481  2.538000000000001 40.35399999999999  C -1.9959999999999987 40.02799999999999  1.4840000000000009 37.617999999999995  3.312000000000001 36.43399999999999  L 3.358000000000002 36.42399999999999  Z " fill-rule="evenodd" />
    </mask>
  </defs>
  <g>
    <path d="M 3.358000000000002 36.42399999999999  L 3.3600000000000003 36.424  C 6.970000000000001 34.1  11.216000000000001 30.1  9.604 25.404  C 8.729999999999999 22.84  7.511999999999999 20.646  7.35 17.88  C 7.20854773002679 15.526812315856699  7.559347291012372 13.169984197390459  8.379999999999999 10.959999999999999  C 11.620000000000001 2.28  21.252 -1.834  29.962 0.778  C 38.022 3.21  43.578 12.564  40.2 20.724  C 38.27 25.436  37.410000000000004 29.07  41.71 32.736000000000004  C 42.874 33.728  45.71 35.216  45.694 36.982000000000006  C 45.694 39.30800000000001  41.154 36.49400000000001  40.650000000000006 36.092000000000006  C 41.22200000000001 37.098000000000006  46.926 43.066  43.300000000000004 43.468  C 39.96000000000001 43.856  37.00600000000001 39.190000000000005  35 37.184000000000005  C 31.628 33.82000000000001  32.21 41.268  32.194 42.804  C 32.194 45.228  30.458 50.156000000000006  27.374000000000002 46.948  C 24.834000000000003 44.306  25.824 40.082  24.026000000000003 37.138  C 22.090000000000003 33.914  18.866000000000003 40.361999999999995  18.060000000000002 41.538  C 17.160000000000004 42.858  12.634000000000002 49.226  10.868000000000002 45.831999999999994  C 9.418000000000003 43.071999999999996  11.736000000000004 38.75599999999999  12.882000000000001 36.26199999999999  C 12.464000000000002 37.16799999999999  9.512 38.507999999999996  8.652000000000001 38.94199999999999  C 6.784751469981887 39.97152269352778  4.667600531086147 40.46046890316481  2.538000000000001 40.35399999999999  C -1.9959999999999987 40.02799999999999  1.4840000000000009 37.617999999999995  3.312000000000001 36.43399999999999  L 3.358000000000002 36.42399999999999  Z " fill-rule="nonzero" fill="rgba(47, 147, 224, 1)" stroke="none" class="fill" />
    <path d="M 3.358000000000002 36.42399999999999  L 3.3600000000000003 36.424  C 6.970000000000001 34.1  11.216000000000001 30.1  9.604 25.404  C 8.729999999999999 22.84  7.511999999999999 20.646  7.35 17.88  C 7.20854773002679 15.526812315856699  7.559347291012372 13.169984197390459  8.379999999999999 10.959999999999999  C 11.620000000000001 2.28  21.252 -1.834  29.962 0.778  C 38.022 3.21  43.578 12.564  40.2 20.724  C 38.27 25.436  37.410000000000004 29.07  41.71 32.736000000000004  C 42.874 33.728  45.71 35.216  45.694 36.982000000000006  C 45.694 39.30800000000001  41.154 36.49400000000001  40.650000000000006 36.092000000000006  C 41.22200000000001 37.098000000000006  46.926 43.066  43.300000000000004 43.468  C 39.96000000000001 43.856  37.00600000000001 39.190000000000005  35 37.184000000000005  C 31.628 33.82000000000001  32.21 41.268  32.194 42.804  C 32.194 45.228  30.458 50.156000000000006  27.374000000000002 46.948  C 24.834000000000003 44.306  25.824 40.082  24.026000000000003 37.138  C 22.090000000000003 33.914  18.866000000000003 40.361999999999995  18.060000000000002 41.538  C 17.160000000000004 42.858  12.634000000000002 49.226  10.868000000000002 45.831999999999994  C 9.418000000000003 43.071999999999996  11.736000000000004 38.75599999999999  12.882000000000001 36.26199999999999  C 12.464000000000002 37.16799999999999  9.512 38.507999999999996  8.652000000000001 38.94199999999999  C 6.784751469981887 39.97152269352778  4.667600531086147 40.46046890316481  2.538000000000001 40.35399999999999  C -1.9959999999999987 40.02799999999999  1.4840000000000009 37.617999999999995  3.312000000000001 36.43399999999999  L 3.358000000000002 36.42399999999999  Z " stroke-width="0" stroke-dasharray="0" stroke="rgba(255, 255, 255, 0)" fill="none" class="stroke" mask="url(#Clip7212)" />
  </g>
</svg>