<?xml version="1.0" encoding="utf-8"?>
<svg version="1.1" xmlns:xlink="http://www.w3.org/1999/xlink" width="30px" height="30px" xmlns="http://www.w3.org/2000/svg">
  <defs>
    <pattern id="BGPattern" patternUnits="userSpaceOnUse" alignment="0 0" imageRepeat="None" />
    <mask fill="white" id="Clip560">
      <path d="M 8.759999999999998 1  L 21.24 1  C 25.976 0.6000000000000001  29.4 4.024  29 8.76  L 29 21.240000000000002  C 29.4 25.976000000000003  25.976 29.400000000000002  21.24 29  L 8.759999999999998 29  C 4.023999999999998 29.400000000000002  0.5999999999999979 25.976000000000003  1 21.240000000000002  L 1 8.760000000000002  C 0.5999999999999979 4.024000000000002  4.023999999999997 0.6000000000000014  8.759999999999998 1  Z M 27 8.760000000000002  C 27 5.352000000000002  24.648 3.0000000000000018  21.24 3  L 8.759999999999998 3  C 5.3519999999999985 3  2.9999999999999982 5.352  3 8.76  L 3 21.240000000000002  C 2.9999999999999982 24.648000000000003  5.3519999999999985 27  8.759999999999998 27  L 21.24 27  C 24.648 27  27 24.648  27 21.240000000000002  L 27 8.760000000000002  Z M 8.967999999999996 15.847999999999999  C 8.743999999999996 15.608  8.599999999999996 15.304  8.6 15  C 8.6 14.616  8.808 14.312  8.968 14.152  L 14.168 8.951999999999998  C 14.392 8.727999999999998  14.696 8.599999999999998  15 8.599999999999998  C 15.304000000000004 8.599999999999998  15.608 8.727999999999998  15.847999999999999 8.951999999999998  C 16.104 9.191999999999998  16.215999999999998 9.511999999999999  16.215999999999998 9.815999999999999  C 16.215999999999998 10.12  16.087999999999997 10.424  15.863999999999997 10.648  L 12.711999999999996 13.8  L 20.199999999999996 13.8  C 20.535999999999994 13.8  20.839999999999996 13.928  21.047999999999995 14.136000000000001  C 21.271999999999995 14.360000000000001  21.399999999999995 14.664000000000001  21.399999999999995 15  C 21.399999999999995 15.336  21.271999999999995 15.639999999999999  21.047999999999995 15.847999999999999  C 20.823999999999995 16.055999999999997  20.535999999999994 16.2  20.199999999999996 16.2  L 12.711999999999996 16.2  L 15.847999999999997 19.368  C 16.071999999999996 19.592  16.199999999999996 19.895999999999997  16.199999999999996 20.2  C 16.199999999999996 20.52  16.055999999999997 20.84  15.799999999999999 21.08  C 15.575999999999997 21.287999999999997  15.287999999999998 21.4  14.999999999999996 21.4  C 14.695999999999996 21.4  14.375999999999996 21.288  14.151999999999996 21.048  L 8.967999999999996 15.847999999999999  Z " fill-rule="evenodd" />
    </mask>
  </defs>
  <g>
    <path d="M 8.759999999999998 1  L 21.24 1  C 25.976 0.6000000000000001  29.4 4.024  29 8.76  L 29 21.240000000000002  C 29.4 25.976000000000003  25.976 29.400000000000002  21.24 29  L 8.759999999999998 29  C 4.023999999999998 29.400000000000002  0.5999999999999979 25.976000000000003  1 21.240000000000002  L 1 8.760000000000002  C 0.5999999999999979 4.024000000000002  4.023999999999997 0.6000000000000014  8.759999999999998 1  Z M 27 8.760000000000002  C 27 5.352000000000002  24.648 3.0000000000000018  21.24 3  L 8.759999999999998 3  C 5.3519999999999985 3  2.9999999999999982 5.352  3 8.76  L 3 21.240000000000002  C 2.9999999999999982 24.648000000000003  5.3519999999999985 27  8.759999999999998 27  L 21.24 27  C 24.648 27  27 24.648  27 21.240000000000002  L 27 8.760000000000002  Z M 8.967999999999996 15.847999999999999  C 8.743999999999996 15.608  8.599999999999996 15.304  8.6 15  C 8.6 14.616  8.808 14.312  8.968 14.152  L 14.168 8.951999999999998  C 14.392 8.727999999999998  14.696 8.599999999999998  15 8.599999999999998  C 15.304000000000004 8.599999999999998  15.608 8.727999999999998  15.847999999999999 8.951999999999998  C 16.104 9.191999999999998  16.215999999999998 9.511999999999999  16.215999999999998 9.815999999999999  C 16.215999999999998 10.12  16.087999999999997 10.424  15.863999999999997 10.648  L 12.711999999999996 13.8  L 20.199999999999996 13.8  C 20.535999999999994 13.8  20.839999999999996 13.928  21.047999999999995 14.136000000000001  C 21.271999999999995 14.360000000000001  21.399999999999995 14.664000000000001  21.399999999999995 15  C 21.399999999999995 15.336  21.271999999999995 15.639999999999999  21.047999999999995 15.847999999999999  C 20.823999999999995 16.055999999999997  20.535999999999994 16.2  20.199999999999996 16.2  L 12.711999999999996 16.2  L 15.847999999999997 19.368  C 16.071999999999996 19.592  16.199999999999996 19.895999999999997  16.199999999999996 20.2  C 16.199999999999996 20.52  16.055999999999997 20.84  15.799999999999999 21.08  C 15.575999999999997 21.287999999999997  15.287999999999998 21.4  14.999999999999996 21.4  C 14.695999999999996 21.4  14.375999999999996 21.288  14.151999999999996 21.048  L 8.967999999999996 15.847999999999999  Z " fill-rule="nonzero" fill="rgba(0, 0, 0, 1)" stroke="none" class="fill" />
    <path d="M 8.759999999999998 1  L 21.24 1  C 25.976 0.6000000000000001  29.4 4.024  29 8.76  L 29 21.240000000000002  C 29.4 25.976000000000003  25.976 29.400000000000002  21.24 29  L 8.759999999999998 29  C 4.023999999999998 29.400000000000002  0.5999999999999979 25.976000000000003  1 21.240000000000002  L 1 8.760000000000002  C 0.5999999999999979 4.024000000000002  4.023999999999997 0.6000000000000014  8.759999999999998 1  Z " stroke-width="0" stroke-dasharray="0" stroke="rgba(255, 255, 255, 0)" fill="none" class="stroke" mask="url(#Clip560)" />
    <path d="M 27 8.760000000000002  C 27 5.352000000000002  24.648 3.0000000000000018  21.24 3  L 8.759999999999998 3  C 5.3519999999999985 3  2.9999999999999982 5.352  3 8.76  L 3 21.240000000000002  C 2.9999999999999982 24.648000000000003  5.3519999999999985 27  8.759999999999998 27  L 21.24 27  C 24.648 27  27 24.648  27 21.240000000000002  L 27 8.760000000000002  Z " stroke-width="0" stroke-dasharray="0" stroke="rgba(255, 255, 255, 0)" fill="none" class="stroke" mask="url(#Clip560)" />
    <path d="M 8.967999999999996 15.847999999999999  C 8.743999999999996 15.608  8.599999999999996 15.304  8.6 15  C 8.6 14.616  8.808 14.312  8.968 14.152  L 14.168 8.951999999999998  C 14.392 8.727999999999998  14.696 8.599999999999998  15 8.599999999999998  C 15.304000000000004 8.599999999999998  15.608 8.727999999999998  15.847999999999999 8.951999999999998  C 16.104 9.191999999999998  16.215999999999998 9.511999999999999  16.215999999999998 9.815999999999999  C 16.215999999999998 10.12  16.087999999999997 10.424  15.863999999999997 10.648  L 12.711999999999996 13.8  L 20.199999999999996 13.8  C 20.535999999999994 13.8  20.839999999999996 13.928  21.047999999999995 14.136000000000001  C 21.271999999999995 14.360000000000001  21.399999999999995 14.664000000000001  21.399999999999995 15  C 21.399999999999995 15.336  21.271999999999995 15.639999999999999  21.047999999999995 15.847999999999999  C 20.823999999999995 16.055999999999997  20.535999999999994 16.2  20.199999999999996 16.2  L 12.711999999999996 16.2  L 15.847999999999997 19.368  C 16.071999999999996 19.592  16.199999999999996 19.895999999999997  16.199999999999996 20.2  C 16.199999999999996 20.52  16.055999999999997 20.84  15.799999999999999 21.08  C 15.575999999999997 21.287999999999997  15.287999999999998 21.4  14.999999999999996 21.4  C 14.695999999999996 21.4  14.375999999999996 21.288  14.151999999999996 21.048  L 8.967999999999996 15.847999999999999  Z " stroke-width="0" stroke-dasharray="0" stroke="rgba(255, 255, 255, 0)" fill="none" class="stroke" mask="url(#Clip560)" />
  </g>
</svg>