<?xml version="1.0" encoding="utf-8"?>
<svg version="1.1" xmlns:xlink="http://www.w3.org/1999/xlink" width="50px" height="48px" xmlns="http://www.w3.org/2000/svg">
  <defs>
    <pattern id="BGPattern" patternUnits="userSpaceOnUse" alignment="0 0" imageRepeat="None" />
    <mask fill="white" id="Clip907">
      <path d="M 32.05078125 0.048828125  C 41.953125 0.048828125  50 8.125  50 18.046875  C 50 27.939453125  41.953125 35.99609375  32.05078125 35.99609375  C 22.119140625 35.99609375  14.042968750000002 27.94921875  14.042968750000002 18.046875  C 14.042968750000002 8.125  22.119140625 0.048828125  32.05078125 0.048828125  Z M 0 0.048828125  L 0 47.998046875  L 9 47.998046875  L 9 0.048828125  L 0 0.048828125  Z " fill-rule="evenodd" />
    </mask>
  </defs>
  <g>
    <path d="M 32.05078125 0.048828125  C 41.953125 0.048828125  50 8.125  50 18.046875  C 50 27.939453125  41.953125 35.99609375  32.05078125 35.99609375  C 22.119140625 35.99609375  14.042968750000002 27.94921875  14.042968750000002 18.046875  C 14.042968750000002 8.125  22.119140625 0.048828125  32.05078125 0.048828125  Z M 0 0.048828125  L 0 47.998046875  L 9 47.998046875  L 9 0.048828125  L 0 0.048828125  Z " fill-rule="nonzero" fill="rgba(0, 0, 0, 1)" stroke="none" class="fill" />
    <path d="M 32.05078125 0.048828125  C 41.953125 0.048828125  50 8.125  50 18.046875  C 50 27.939453125  41.953125 35.99609375  32.05078125 35.99609375  C 22.119140625 35.99609375  14.042968750000002 27.94921875  14.042968750000002 18.046875  C 14.042968750000002 8.125  22.119140625 0.048828125  32.05078125 0.048828125  Z " stroke-width="0" stroke-dasharray="0" stroke="rgba(255, 255, 255, 0)" fill="none" class="stroke" mask="url(#Clip907)" />
    <path d="M 0 0.048828125  L 0 47.998046875  L 9 47.998046875  L 9 0.048828125  L 0 0.048828125  Z " stroke-width="0" stroke-dasharray="0" stroke="rgba(255, 255, 255, 0)" fill="none" class="stroke" mask="url(#Clip907)" />
  </g>
</svg>