<?xml version="1.0" encoding="utf-8"?>
<svg version="1.1" xmlns:xlink="http://www.w3.org/1999/xlink" width="21px" height="21px" xmlns="http://www.w3.org/2000/svg">
  <defs>
    <pattern id="BGPattern" patternUnits="userSpaceOnUse" alignment="0 0" imageRepeat="None" />
    <mask fill="white" id="Clip6380">
      <path d="M 8.379000000000001 0.5  L 1.5 0.5  C 0.6715728752538102 0.5  0 1.1715728752538097  0 2  L 0 8.879000000000001  C 8.495610824255094E-05 9.276792220218223  0.15817593778357253 9.658260902963812  0.4395000000000002 9.9395  L 10.939499999999999 20.4395  C 11.52524977722872 21.025072907499293  12.474750222771277 21.025072907499293  13.060499999999998 20.4395  L 19.9395 13.560499999999998  C 20.525072907499293 12.974750222771277  20.525072907499293 12.02524977722872  19.9395 11.439499999999997  L 9.439499999999999 0.9394999999999989  C 9.15826090296381 0.6581759377835722  8.776792220218223 0.5000849561082426  8.379000000000001 0.5  Z M 5.249999999999998 3.500000047415205  C 6.492640687119285 3.500000047415205  7.499999999999998 4.5073593602959185  7.499999999999998 5.750000047415205  C 7.499999999999998 6.99264073453449  6.492640687119285 8.000000047415204  5.249999999999998 8.000000047415204  C 4.007359312880715 8.000000047415204  2.9999999999999982 6.99264073453449  3 5.750000000000001  C 3.000000026186693 4.507359331397505  4.007359331397503 3.500000047415205  5.249999999999998 3.500000047415205  Z " fill-rule="evenodd" />
    </mask>
  </defs>
  <g transform="matrix(1 0 0 1 -3 0 )">
    <path d="M 8.379000000000001 0.5  L 1.5 0.5  C 0.6715728752538102 0.5  0 1.1715728752538097  0 2  L 0 8.879000000000001  C 8.495610824255094E-05 9.276792220218223  0.15817593778357253 9.658260902963812  0.4395000000000002 9.9395  L 10.939499999999999 20.4395  C 11.52524977722872 21.025072907499293  12.474750222771277 21.025072907499293  13.060499999999998 20.4395  L 19.9395 13.560499999999998  C 20.525072907499293 12.974750222771277  20.525072907499293 12.02524977722872  19.9395 11.439499999999997  L 9.439499999999999 0.9394999999999989  C 9.15826090296381 0.6581759377835722  8.776792220218223 0.5000849561082426  8.379000000000001 0.5  Z M 5.249999999999998 3.500000047415205  C 6.492640687119285 3.500000047415205  7.499999999999998 4.5073593602959185  7.499999999999998 5.750000047415205  C 7.499999999999998 6.99264073453449  6.492640687119285 8.000000047415204  5.249999999999998 8.000000047415204  C 4.007359312880715 8.000000047415204  2.9999999999999982 6.99264073453449  3 5.750000000000001  C 3.000000026186693 4.507359331397505  4.007359331397503 3.500000047415205  5.249999999999998 3.500000047415205  Z " fill-rule="nonzero" fill="rgba(0, 0, 0, 1)" stroke="none" transform="matrix(1 0 0 1 3 0 )" class="fill" />
    <path d="M 8.379000000000001 0.5  L 1.5 0.5  C 0.6715728752538102 0.5  0 1.1715728752538097  0 2  L 0 8.879000000000001  C 8.495610824255094E-05 9.276792220218223  0.15817593778357253 9.658260902963812  0.4395000000000002 9.9395  L 10.939499999999999 20.4395  C 11.52524977722872 21.025072907499293  12.474750222771277 21.025072907499293  13.060499999999998 20.4395  L 19.9395 13.560499999999998  C 20.525072907499293 12.974750222771277  20.525072907499293 12.02524977722872  19.9395 11.439499999999997  L 9.439499999999999 0.9394999999999989  C 9.15826090296381 0.6581759377835722  8.776792220218223 0.5000849561082426  8.379000000000001 0.5  Z " stroke-width="0" stroke-dasharray="0" stroke="rgba(255, 255, 255, 0)" fill="none" transform="matrix(1 0 0 1 3 0 )" class="stroke" mask="url(#Clip6380)" />
    <path d="M 5.249999999999998 3.500000047415205  C 6.492640687119285 3.500000047415205  7.499999999999998 4.5073593602959185  7.499999999999998 5.750000047415205  C 7.499999999999998 6.99264073453449  6.492640687119285 8.000000047415204  5.249999999999998 8.000000047415204  C 4.007359312880715 8.000000047415204  2.9999999999999982 6.99264073453449  3 5.750000000000001  C 3.000000026186693 4.507359331397505  4.007359331397503 3.500000047415205  5.249999999999998 3.500000047415205  Z " stroke-width="0" stroke-dasharray="0" stroke="rgba(255, 255, 255, 0)" fill="none" transform="matrix(1 0 0 1 3 0 )" class="stroke" mask="url(#Clip6380)" />
  </g>
</svg>