<?xml version="1.0" encoding="utf-8"?>
<svg version="1.1" xmlns:xlink="http://www.w3.org/1999/xlink" width="28px" height="35px" xmlns="http://www.w3.org/2000/svg">
  <defs>
    <pattern id="BGPattern" patternUnits="userSpaceOnUse" alignment="0 0" imageRepeat="None" />
    <mask fill="white" id="Clip3135">
      <path d="M 16.625 14  C 15.243749999999999 13.375  14.125 12.256250000000001  14 10.875  L 14 0  L 1 0  L 1 34  L 27 34  L 27 14  L 16.625 14  Z " fill-rule="evenodd" />
    </mask>
  </defs>
  <g transform="matrix(1 0 0 1 -4 -17 )">
    <path d="M 16.625 14  C 15.243749999999999 13.375  14.125 12.256250000000001  14 10.875  L 14 0  L 1 0  L 1 34  L 27 34  L 27 14  L 16.625 14  Z " fill-rule="nonzero" fill="rgba(217, 217, 217, 1)" stroke="none" transform="matrix(1 0 0 1 4 17 )" class="fill" />
    <path d="M 16.625 14  C 15.243749999999999 13.375  14.125 12.256250000000001  14 10.875  L 14 0  L 1 0  L 1 34  L 27 34  L 27 14  L 16.625 14  Z " stroke-width="0" stroke-dasharray="0" stroke="rgba(255, 255, 255, 0)" fill="none" transform="matrix(1 0 0 1 4 17 )" class="stroke" mask="url(#Clip3135)" />
  </g>
</svg>