<?xml version="1.0" encoding="utf-8"?>
<svg version="1.1" xmlns:xlink="http://www.w3.org/1999/xlink" width="25px" height="22px" xmlns="http://www.w3.org/2000/svg">
  <defs>
    <pattern id="BGPattern" patternUnits="userSpaceOnUse" alignment="0 0" imageRepeat="None" />
    <mask fill="white" id="Clip4275">
      <path d="M 25 9  L 25 7  L 19 7  L 19 3  C 19 1.2999999999999998  17.7 0  16 0  L 10 0  C 8.3 0  7.000000000000001 1.2999999999999998  7.000000000000001 3  L 7.000000000000001 7  L 1 7  C 0.3999999999999999 7  0 7.4  0 8  C 0 8.1  0 8.1  0 8.2  L 1.9000000000000004 20.299999999999997  C 2 21.299999999999997  2.9000000000000004 21.999999999999996  3.900000000000001 21.999999999999996  L 12 21.999999999999996  L 12 19.999999999999996  L 3.900000000000001 19.999999999999996  L 2.2 9  L 25 9  Z M 9 7  L 9 3  C 9 2.4000000000000004  9.4 2  10 2  L 16 2  C 16.6 2  17 2.4000000000000004  17 3  L 17 7  L 9 7  Z " fill-rule="evenodd" />
    </mask>
  </defs>
  <g transform="matrix(1 0 0 1 -3 -4 )">
    <path d="M 25 9  L 25 7  L 19 7  L 19 3  C 19 1.2999999999999998  17.7 0  16 0  L 10 0  C 8.3 0  7.000000000000001 1.2999999999999998  7.000000000000001 3  L 7.000000000000001 7  L 1 7  C 0.3999999999999999 7  0 7.4  0 8  C 0 8.1  0 8.1  0 8.2  L 1.9000000000000004 20.299999999999997  C 2 21.299999999999997  2.9000000000000004 21.999999999999996  3.900000000000001 21.999999999999996  L 12 21.999999999999996  L 12 19.999999999999996  L 3.900000000000001 19.999999999999996  L 2.2 9  L 25 9  Z M 9 7  L 9 3  C 9 2.4000000000000004  9.4 2  10 2  L 16 2  C 16.6 2  17 2.4000000000000004  17 3  L 17 7  L 9 7  Z " fill-rule="nonzero" fill="rgba(0, 0, 0, 1)" stroke="none" transform="matrix(1 0 0 1 3 4 )" class="fill" />
    <path d="M 25 9  L 25 7  L 19 7  L 19 3  C 19 1.2999999999999998  17.7 0  16 0  L 10 0  C 8.3 0  7.000000000000001 1.2999999999999998  7.000000000000001 3  L 7.000000000000001 7  L 1 7  C 0.3999999999999999 7  0 7.4  0 8  C 0 8.1  0 8.1  0 8.2  L 1.9000000000000004 20.299999999999997  C 2 21.299999999999997  2.9000000000000004 21.999999999999996  3.900000000000001 21.999999999999996  L 12 21.999999999999996  L 12 19.999999999999996  L 3.900000000000001 19.999999999999996  L 2.2 9  L 25 9  Z " stroke-width="0" stroke-dasharray="0" stroke="rgba(255, 255, 255, 0)" fill="none" transform="matrix(1 0 0 1 3 4 )" class="stroke" mask="url(#Clip4275)" />
    <path d="M 9 7  L 9 3  C 9 2.4000000000000004  9.4 2  10 2  L 16 2  C 16.6 2  17 2.4000000000000004  17 3  L 17 7  L 9 7  Z " stroke-width="0" stroke-dasharray="0" stroke="rgba(255, 255, 255, 0)" fill="none" transform="matrix(1 0 0 1 3 4 )" class="stroke" mask="url(#Clip4275)" />
  </g>
</svg>