<?xml version="1.0" encoding="utf-8"?>
<svg version="1.1" xmlns:xlink="http://www.w3.org/1999/xlink" width="50px" height="50px" xmlns="http://www.w3.org/2000/svg">
  <defs>
    <pattern id="BGPattern" patternUnits="userSpaceOnUse" alignment="0 0" imageRepeat="None" />
    <mask fill="white" id="Clip1491">
      <path d="M 19 2.34375  C 18.75 1.044921875  19.794921875 0  21.09375 0  L 28.90625 0  C 30.205078125 0  31.25 1.044921875  31 2.34375  L 31 18.75  L 39.814453125 18.75  C 41.552734375 18.75  42.421875 20.849609375  41.19140625 22.080078125  L 26.337890625 36.943359375  C 25.60546875 37.67578125  24.404296875 37.67578125  23.671875 36.943359375  L 8.798828125 22.080078125  C 7.568359375 20.849609375  8.4375 18.75  10.17578125 18.75  L 19 18.75  L 19 2.34375  Z M 47.65625 34  C 48.955078125 34.375  50 35.419921875  50 36.71875  L 50 47.65625  C 50 48.955078125  48.955078125 50  47.65625 50  L 2.34375 50  C 1.044921875 50  0 48.955078125  0 47.65625  L 0 36.71875  C 0 35.419921875  1.044921875 34.375  2.34375 34  L 16.669921875 34  L 21.455078125 39.16015625  C 23.41796875 41.123046875  26.58203125 41.123046875  28.544921875 39.16015625  L 33.330078125 34  L 47.65625 34  Z M 35.9375 47.265625  C 37.01171875 47.265625  37.890625 46.38671875  37.890625 45.3125  C 37.890625 44.23828125  37.01171875 43.359375  35.9375 43.359375  C 34.86328125 43.359375  33.984375 44.23828125  33.984375 45.3125  C 33.984375 46.38671875  34.86328125 47.265625  35.9375 47.265625  Z M 42.1875 47.265625  C 43.26171875 47.265625  44.140625 46.38671875  44.140625 45.3125  C 44.140625 44.23828125  43.26171875 43.359375  42.1875 43.359375  C 41.11328125 43.359375  40.234375 44.23828125  40.234375 45.3125  C 40.234375 46.38671875  41.11328125 47.265625  42.1875 47.265625  Z " fill-rule="evenodd" />
    </mask>
  </defs>
  <g>
    <path d="M 19 2.34375  C 18.75 1.044921875  19.794921875 0  21.09375 0  L 28.90625 0  C 30.205078125 0  31.25 1.044921875  31 2.34375  L 31 18.75  L 39.814453125 18.75  C 41.552734375 18.75  42.421875 20.849609375  41.19140625 22.080078125  L 26.337890625 36.943359375  C 25.60546875 37.67578125  24.404296875 37.67578125  23.671875 36.943359375  L 8.798828125 22.080078125  C 7.568359375 20.849609375  8.4375 18.75  10.17578125 18.75  L 19 18.75  L 19 2.34375  Z M 47.65625 34  C 48.955078125 34.375  50 35.419921875  50 36.71875  L 50 47.65625  C 50 48.955078125  48.955078125 50  47.65625 50  L 2.34375 50  C 1.044921875 50  0 48.955078125  0 47.65625  L 0 36.71875  C 0 35.419921875  1.044921875 34.375  2.34375 34  L 16.669921875 34  L 21.455078125 39.16015625  C 23.41796875 41.123046875  26.58203125 41.123046875  28.544921875 39.16015625  L 33.330078125 34  L 47.65625 34  Z M 35.9375 47.265625  C 37.01171875 47.265625  37.890625 46.38671875  37.890625 45.3125  C 37.890625 44.23828125  37.01171875 43.359375  35.9375 43.359375  C 34.86328125 43.359375  33.984375 44.23828125  33.984375 45.3125  C 33.984375 46.38671875  34.86328125 47.265625  35.9375 47.265625  Z M 42.1875 47.265625  C 43.26171875 47.265625  44.140625 46.38671875  44.140625 45.3125  C 44.140625 44.23828125  43.26171875 43.359375  42.1875 43.359375  C 41.11328125 43.359375  40.234375 44.23828125  40.234375 45.3125  C 40.234375 46.38671875  41.11328125 47.265625  42.1875 47.265625  Z " fill-rule="nonzero" fill="rgba(0, 0, 0, 1)" stroke="none" class="fill" />
    <path d="M 19 2.34375  C 18.75 1.044921875  19.794921875 0  21.09375 0  L 28.90625 0  C 30.205078125 0  31.25 1.044921875  31 2.34375  L 31 18.75  L 39.814453125 18.75  C 41.552734375 18.75  42.421875 20.849609375  41.19140625 22.080078125  L 26.337890625 36.943359375  C 25.60546875 37.67578125  24.404296875 37.67578125  23.671875 36.943359375  L 8.798828125 22.080078125  C 7.568359375 20.849609375  8.4375 18.75  10.17578125 18.75  L 19 18.75  L 19 2.34375  Z " stroke-width="0" stroke-dasharray="0" stroke="rgba(255, 255, 255, 0)" fill="none" class="stroke" mask="url(#Clip1491)" />
    <path d="M 47.65625 34  C 48.955078125 34.375  50 35.419921875  50 36.71875  L 50 47.65625  C 50 48.955078125  48.955078125 50  47.65625 50  L 2.34375 50  C 1.044921875 50  0 48.955078125  0 47.65625  L 0 36.71875  C 0 35.419921875  1.044921875 34.375  2.34375 34  L 16.669921875 34  L 21.455078125 39.16015625  C 23.41796875 41.123046875  26.58203125 41.123046875  28.544921875 39.16015625  L 33.330078125 34  L 47.65625 34  Z " stroke-width="0" stroke-dasharray="0" stroke="rgba(255, 255, 255, 0)" fill="none" class="stroke" mask="url(#Clip1491)" />
    <path d="M 35.9375 47.265625  C 37.01171875 47.265625  37.890625 46.38671875  37.890625 45.3125  C 37.890625 44.23828125  37.01171875 43.359375  35.9375 43.359375  C 34.86328125 43.359375  33.984375 44.23828125  33.984375 45.3125  C 33.984375 46.38671875  34.86328125 47.265625  35.9375 47.265625  Z " stroke-width="0" stroke-dasharray="0" stroke="rgba(255, 255, 255, 0)" fill="none" class="stroke" mask="url(#Clip1491)" />
    <path d="M 42.1875 47.265625  C 43.26171875 47.265625  44.140625 46.38671875  44.140625 45.3125  C 44.140625 44.23828125  43.26171875 43.359375  42.1875 43.359375  C 41.11328125 43.359375  40.234375 44.23828125  40.234375 45.3125  C 40.234375 46.38671875  41.11328125 47.265625  42.1875 47.265625  Z " stroke-width="0" stroke-dasharray="0" stroke="rgba(255, 255, 255, 0)" fill="none" class="stroke" mask="url(#Clip1491)" />
  </g>
</svg>