<?xml version="1.0" encoding="utf-8"?>
<svg version="1.1" xmlns:xlink="http://www.w3.org/1999/xlink" width="10px" height="10px" xmlns="http://www.w3.org/2000/svg">
  <defs>
    <pattern id="BGPattern" patternUnits="userSpaceOnUse" alignment="0 0" imageRepeat="None" />
    <mask fill="white" id="Clip4725">
      <path d="M 0.7580000000000009 8.1815  C 0.4652135462503537 8.47437488861436  0.4652135462503537 8.94912511138564  0.7579999999999991 9.241999999999997  C 1.0508748886143593 9.534786453749646  1.52562511138564 9.534786453749646  1.8185000000000002 9.241999999999997  L 7.962499999999999 3.097999999999999  L 7.962499999999999 7.25  C 7.962499999999999 7.664213562373096  8.298286437626905 8  8.712499999999999 8  C 9.126713562373094 8  9.462499999999999 7.664213562373096  9.462499999999999 7.25  L 9.462499999999999 1.2875000000000014  C 9.462499999999999 0.8732864376269056  9.126713562373094 0.5375000000000005  8.712499999999999 0.5375000000000005  L 2.75 0.5375000000000005  C 2.335786437626904 0.5375000000000005  2 0.8732864376269056  2 1.2875000000000014  C 2 1.7017135623730955  2.335786437626904 2.0375000000000014  2.75 2.0375000000000014  L 6.902000000000001 2.0375000000000014  L 0.7580000000000009 8.1815  Z " fill-rule="evenodd" />
    </mask>
  </defs>
  <g transform="matrix(1 0 0 1 -7 -7 )">
    <path d="M 0.7580000000000009 8.1815  C 0.4652135462503537 8.47437488861436  0.4652135462503537 8.94912511138564  0.7579999999999991 9.241999999999997  C 1.0508748886143593 9.534786453749646  1.52562511138564 9.534786453749646  1.8185000000000002 9.241999999999997  L 7.962499999999999 3.097999999999999  L 7.962499999999999 7.25  C 7.962499999999999 7.664213562373096  8.298286437626905 8  8.712499999999999 8  C 9.126713562373094 8  9.462499999999999 7.664213562373096  9.462499999999999 7.25  L 9.462499999999999 1.2875000000000014  C 9.462499999999999 0.8732864376269056  9.126713562373094 0.5375000000000005  8.712499999999999 0.5375000000000005  L 2.75 0.5375000000000005  C 2.335786437626904 0.5375000000000005  2 0.8732864376269056  2 1.2875000000000014  C 2 1.7017135623730955  2.335786437626904 2.0375000000000014  2.75 2.0375000000000014  L 6.902000000000001 2.0375000000000014  L 0.7580000000000009 8.1815  Z " fill-rule="nonzero" fill="rgba(0, 0, 0, 1)" stroke="none" transform="matrix(1 0 0 1 7 7 )" class="fill" />
    <path d="M 0.7580000000000009 8.1815  C 0.4652135462503537 8.47437488861436  0.4652135462503537 8.94912511138564  0.7579999999999991 9.241999999999997  C 1.0508748886143593 9.534786453749646  1.52562511138564 9.534786453749646  1.8185000000000002 9.241999999999997  L 7.962499999999999 3.097999999999999  L 7.962499999999999 7.25  C 7.962499999999999 7.664213562373096  8.298286437626905 8  8.712499999999999 8  C 9.126713562373094 8  9.462499999999999 7.664213562373096  9.462499999999999 7.25  L 9.462499999999999 1.2875000000000014  C 9.462499999999999 0.8732864376269056  9.126713562373094 0.5375000000000005  8.712499999999999 0.5375000000000005  L 2.75 0.5375000000000005  C 2.335786437626904 0.5375000000000005  2 0.8732864376269056  2 1.2875000000000014  C 2 1.7017135623730955  2.335786437626904 2.0375000000000014  2.75 2.0375000000000014  L 6.902000000000001 2.0375000000000014  L 0.7580000000000009 8.1815  Z " stroke-width="0" stroke-dasharray="0" stroke="rgba(255, 255, 255, 0)" fill="none" transform="matrix(1 0 0 1 7 7 )" class="stroke" mask="url(#Clip4725)" />
  </g>
</svg>