<?xml version="1.0" encoding="utf-8"?>
<svg version="1.1" xmlns:xlink="http://www.w3.org/1999/xlink" width="50px" height="50px" xmlns="http://www.w3.org/2000/svg">
  <defs>
    <pattern id="BGPattern" patternUnits="userSpaceOnUse" alignment="0 0" imageRepeat="None" />
    <mask fill="white" id="Clip924">
      <path d="M 28.336693548387103 17.5  C 30.403225806451616 17.5  32.0866935483871 19.183467741935488  32.0866935483871 21.25  C 32.0866935483871 23.316532258064512  30.403225806451616 25  28.336693548387103 25  L 21.25 25  L 21.25 17.5  L 28.336693548387103 17.5  Z M 25 0  C 38.810483870967744 0  50 11.189516129032256  50 25  C 50 38.810483870967744  38.810483870967744 50  25 50  C 11.189516129032256 50  0 38.810483870967744  0 25  C 0 11.189516129032256  11.189516129032256 0  25 0  Z M 28.336693548387103 30  C 33.16532258064518 30  37.086693548387075 26.07862903225808  37.086693548387075 21.25  C 37.086693548387075 16.42137096774195  33.16532258064518 12.5  28.336693548387103 13  L 17 13  L 17 37.5  L 21.25 37.5  L 21.25 30  L 28.336693548387103 30  Z " fill-rule="evenodd" />
    </mask>
  </defs>
  <g>
    <path d="M 28.336693548387103 17.5  C 30.403225806451616 17.5  32.0866935483871 19.183467741935488  32.0866935483871 21.25  C 32.0866935483871 23.316532258064512  30.403225806451616 25  28.336693548387103 25  L 21.25 25  L 21.25 17.5  L 28.336693548387103 17.5  Z M 25 0  C 38.810483870967744 0  50 11.189516129032256  50 25  C 50 38.810483870967744  38.810483870967744 50  25 50  C 11.189516129032256 50  0 38.810483870967744  0 25  C 0 11.189516129032256  11.189516129032256 0  25 0  Z M 28.336693548387103 30  C 33.16532258064518 30  37.086693548387075 26.07862903225808  37.086693548387075 21.25  C 37.086693548387075 16.42137096774195  33.16532258064518 12.5  28.336693548387103 13  L 17 13  L 17 37.5  L 21.25 37.5  L 21.25 30  L 28.336693548387103 30  Z " fill-rule="nonzero" fill="rgba(0, 0, 0, 1)" stroke="none" class="fill" />
    <path d="M 28.336693548387103 17.5  C 30.403225806451616 17.5  32.0866935483871 19.183467741935488  32.0866935483871 21.25  C 32.0866935483871 23.316532258064512  30.403225806451616 25  28.336693548387103 25  L 21.25 25  L 21.25 17.5  L 28.336693548387103 17.5  Z " stroke-width="0" stroke-dasharray="0" stroke="rgba(255, 255, 255, 0)" fill="none" class="stroke" mask="url(#Clip924)" />
    <path d="M 25 0  C 38.810483870967744 0  50 11.189516129032256  50 25  C 50 38.810483870967744  38.810483870967744 50  25 50  C 11.189516129032256 50  0 38.810483870967744  0 25  C 0 11.189516129032256  11.189516129032256 0  25 0  Z " stroke-width="0" stroke-dasharray="0" stroke="rgba(255, 255, 255, 0)" fill="none" class="stroke" mask="url(#Clip924)" />
    <path d="M 28.336693548387103 30  C 33.16532258064518 30  37.086693548387075 26.07862903225808  37.086693548387075 21.25  C 37.086693548387075 16.42137096774195  33.16532258064518 12.5  28.336693548387103 13  L 17 13  L 17 37.5  L 21.25 37.5  L 21.25 30  L 28.336693548387103 30  Z " stroke-width="0" stroke-dasharray="0" stroke="rgba(255, 255, 255, 0)" fill="none" class="stroke" mask="url(#Clip924)" />
  </g>
</svg>