<?xml version="1.0" encoding="utf-8"?>
<svg version="1.1" xmlns:xlink="http://www.w3.org/1999/xlink" width="10px" height="19px" xmlns="http://www.w3.org/2000/svg">
  <defs>
    <pattern id="BGPattern" patternUnits="userSpaceOnUse" alignment="0 0" imageRepeat="None" />
    <mask fill="white" id="Clip4194">
      <path d="M 10 11  C 10 9.895430500338414  9.104569499661586 9  8 9  L 2.1099999999999994 8.999999999999998  C 2.4857876734180095 6.4974621592221204  3.8977840519266707 4.268758363838273  6 2.8599999999999994  L 7.789999999999999 1.6599999999999993  L 6.699999999999999 0  L 4.899999999999999 1.2000000000000004  C 1.8399192252812 3.2392316669711185  0.001232964211389742 6.672696827948414  0 10.350000000000001  L 0 17  C 0 18.104569499661586  0.8954305003384135 19  2 19  L 8 19  C 9.104569499661586 19  10 18.104569499661586  10 17  L 10 11  Z " fill-rule="evenodd" />
    </mask>
  </defs>
  <g transform="matrix(1 0 0 1 -18 -6 )">
    <path d="M 10 11  C 10 9.895430500338414  9.104569499661586 9  8 9  L 2.1099999999999994 8.999999999999998  C 2.4857876734180095 6.4974621592221204  3.8977840519266707 4.268758363838273  6 2.8599999999999994  L 7.789999999999999 1.6599999999999993  L 6.699999999999999 0  L 4.899999999999999 1.2000000000000004  C 1.8399192252812 3.2392316669711185  0.001232964211389742 6.672696827948414  0 10.350000000000001  L 0 17  C 0 18.104569499661586  0.8954305003384135 19  2 19  L 8 19  C 9.104569499661586 19  10 18.104569499661586  10 17  L 10 11  Z " fill-rule="nonzero" fill="rgba(0, 0, 0, 1)" stroke="none" transform="matrix(1 0 0 1 18 6 )" class="fill" />
    <path d="M 10 11  C 10 9.895430500338414  9.104569499661586 9  8 9  L 2.1099999999999994 8.999999999999998  C 2.4857876734180095 6.4974621592221204  3.8977840519266707 4.268758363838273  6 2.8599999999999994  L 7.789999999999999 1.6599999999999993  L 6.699999999999999 0  L 4.899999999999999 1.2000000000000004  C 1.8399192252812 3.2392316669711185  0.001232964211389742 6.672696827948414  0 10.350000000000001  L 0 17  C 0 18.104569499661586  0.8954305003384135 19  2 19  L 8 19  C 9.104569499661586 19  10 18.104569499661586  10 17  L 10 11  Z " stroke-width="0" stroke-dasharray="0" stroke="rgba(255, 255, 255, 0)" fill="none" transform="matrix(1 0 0 1 18 6 )" class="stroke" mask="url(#Clip4194)" />
  </g>
</svg>