<?xml version="1.0" encoding="utf-8"?>
<svg version="1.1" xmlns:xlink="http://www.w3.org/1999/xlink" width="64px" height="52px" xmlns="http://www.w3.org/2000/svg">
  <defs>
    <pattern id="BGPattern" patternUnits="userSpaceOnUse" alignment="0 0" imageRepeat="None" />
    <mask fill="white" id="Clip1872">
      <path d="M 31 23.303535156250003  C 30.40625 21.550410156250003  28.971875000000004 20.116035156250003  27.21875 20.11603515625  C 25.465625000000003 20.11603515625  24.03125 21.55041015625  24.03125 23.30353515625  L 24.03125 31.27228515625  C 24.03125 32.15283203124999  23.318046875 32.86603515624999  22.4375 32.86603515624999  C 21.556953125 32.86603515624999  20.84375 32.15283203124999  20.84375 31.27228515625  L 20.84375 23.647187499999994  C 20.84375 21.91498046875  21.313906250000002 20.213652343749995  22.207402343750005 18.72748046875  L 29.952031250000005 5.819101562499997  C 30.857480468749998 4.309023437499997  30.369394531250002 2.3516992187499968  28.859316406250002 1.445253906249997  C 27.4199609375 0.581640624999997  25.60009765625 1.016933593749997  24.645839843749997 2.362656249999997  C 24.625917968750002 2.385566406249997  24.58408203125 2.383574218749997  24.567148437500002 2.410468749999997  L 12.886953124999996 19.9317578125  C 11.835078125000003 21.5095703125  11.281250000000002 23.34337890625  11.281250000000002 25.233964843749998  L 11.281250000000002 33.225625  L 2.3044531250000015 36.217890625  C 1.0026637575588997 36.6510067338015  0.12452302917143691 37.8690858520172  0.12500000000000178 39.24103515625  L 0.12500000000000178 48.80353515625  C 0.12500000000000178 49.88130859375  0.9736718750000017 51.99103515625  3.3125000000000018 51.99103515625  C 3.5804492187500014 51.99103515625  3.8513867187500015 51.95716796875001  4.115351562500003 51.8884375  L 21.96435546875 47.244648437500004  C 26.935859375000007 45.82322265625  30.40625 41.222265625  31 36.05353515625  L 31 23.303535156250003  Z M 63.874999999999986 39.24900390625  C 63.874999999999986 37.8773828125  62.99744140625 36.66015625  61.695546875 36.225859375  L 52.71875 33.233593750000004  L 52.71875 25.24193359375  C 52.71875 23.351347656250002  52.164921875000005 21.517539062500003  51.113046875 19.939726562500002  L 39.4328515625 2.41943359375  C 39.414921875 2.3925390625  39.374082031250005 2.39552734375  39.354160156249996 2.37162109375  C 38.39990234375 1.0258984375  36.5800390625 0.5906054687500001  35.14068359375 1.45421875  C 33.63060546875 2.35966796875  33.142519531249995 4.317988281250001  34.047968749999995 5.82806640625  L 41.792597656249995 18.7364453125  C 42.68609375 20.2226171875  43.15624999999999 21.9239453125  43.15624999999999 23.656152343749998  L 43.15624999999999 31.28125  C 43.15624999999999 32.16179687499999  42.44304687499999 32.875  41.56249999999999 32.875  C 40.681953125 32.875  39.96874999999999 32.16179687499999  39.96874999999999 31.28125  L 39.96874999999999 23.3125  C 39.96874999999999 21.559375  38.534375 20.125  36.78124999999999 20.125  C 35.02812499999999 20.125  33.59374999999999 21.559375  33 23.3125  L 33 36.0625  C 33.59374999999999 41.23123046875  37.06414062499999 45.832187499999996  42.03564453124999 47.2526171875  L 59.8846484375 51.896406250000005  C 60.14960937499999 51.96513671875  60.42054687499999 51.99900390625  60.687499999999986 51.99900390625  C 63.02632812499999 51.99900390625  63.874999999999986 49.88927734375  63.874999999999986 48.81150390625  L 63.874999999999986 39.24900390625  Z " fill-rule="evenodd" />
    </mask>
  </defs>
  <g>
    <path d="M 31 23.303535156250003  C 30.40625 21.550410156250003  28.971875000000004 20.116035156250003  27.21875 20.11603515625  C 25.465625000000003 20.11603515625  24.03125 21.55041015625  24.03125 23.30353515625  L 24.03125 31.27228515625  C 24.03125 32.15283203124999  23.318046875 32.86603515624999  22.4375 32.86603515624999  C 21.556953125 32.86603515624999  20.84375 32.15283203124999  20.84375 31.27228515625  L 20.84375 23.647187499999994  C 20.84375 21.91498046875  21.313906250000002 20.213652343749995  22.207402343750005 18.72748046875  L 29.952031250000005 5.819101562499997  C 30.857480468749998 4.309023437499997  30.369394531250002 2.3516992187499968  28.859316406250002 1.445253906249997  C 27.4199609375 0.581640624999997  25.60009765625 1.016933593749997  24.645839843749997 2.362656249999997  C 24.625917968750002 2.385566406249997  24.58408203125 2.383574218749997  24.567148437500002 2.410468749999997  L 12.886953124999996 19.9317578125  C 11.835078125000003 21.5095703125  11.281250000000002 23.34337890625  11.281250000000002 25.233964843749998  L 11.281250000000002 33.225625  L 2.3044531250000015 36.217890625  C 1.0026637575588997 36.6510067338015  0.12452302917143691 37.8690858520172  0.12500000000000178 39.24103515625  L 0.12500000000000178 48.80353515625  C 0.12500000000000178 49.88130859375  0.9736718750000017 51.99103515625  3.3125000000000018 51.99103515625  C 3.5804492187500014 51.99103515625  3.8513867187500015 51.95716796875001  4.115351562500003 51.8884375  L 21.96435546875 47.244648437500004  C 26.935859375000007 45.82322265625  30.40625 41.222265625  31 36.05353515625  L 31 23.303535156250003  Z M 63.874999999999986 39.24900390625  C 63.874999999999986 37.8773828125  62.99744140625 36.66015625  61.695546875 36.225859375  L 52.71875 33.233593750000004  L 52.71875 25.24193359375  C 52.71875 23.351347656250002  52.164921875000005 21.517539062500003  51.113046875 19.939726562500002  L 39.4328515625 2.41943359375  C 39.414921875 2.3925390625  39.374082031250005 2.39552734375  39.354160156249996 2.37162109375  C 38.39990234375 1.0258984375  36.5800390625 0.5906054687500001  35.14068359375 1.45421875  C 33.63060546875 2.35966796875  33.142519531249995 4.317988281250001  34.047968749999995 5.82806640625  L 41.792597656249995 18.7364453125  C 42.68609375 20.2226171875  43.15624999999999 21.9239453125  43.15624999999999 23.656152343749998  L 43.15624999999999 31.28125  C 43.15624999999999 32.16179687499999  42.44304687499999 32.875  41.56249999999999 32.875  C 40.681953125 32.875  39.96874999999999 32.16179687499999  39.96874999999999 31.28125  L 39.96874999999999 23.3125  C 39.96874999999999 21.559375  38.534375 20.125  36.78124999999999 20.125  C 35.02812499999999 20.125  33.59374999999999 21.559375  33 23.3125  L 33 36.0625  C 33.59374999999999 41.23123046875  37.06414062499999 45.832187499999996  42.03564453124999 47.2526171875  L 59.8846484375 51.896406250000005  C 60.14960937499999 51.96513671875  60.42054687499999 51.99900390625  60.687499999999986 51.99900390625  C 63.02632812499999 51.99900390625  63.874999999999986 49.88927734375  63.874999999999986 48.81150390625  L 63.874999999999986 39.24900390625  Z " fill-rule="nonzero" fill="rgba(0, 0, 0, 1)" stroke="none" class="fill" />
    <path d="M 31 23.303535156250003  C 30.40625 21.550410156250003  28.971875000000004 20.116035156250003  27.21875 20.11603515625  C 25.465625000000003 20.11603515625  24.03125 21.55041015625  24.03125 23.30353515625  L 24.03125 31.27228515625  C 24.03125 32.15283203124999  23.318046875 32.86603515624999  22.4375 32.86603515624999  C 21.556953125 32.86603515624999  20.84375 32.15283203124999  20.84375 31.27228515625  L 20.84375 23.647187499999994  C 20.84375 21.91498046875  21.313906250000002 20.213652343749995  22.207402343750005 18.72748046875  L 29.952031250000005 5.819101562499997  C 30.857480468749998 4.309023437499997  30.369394531250002 2.3516992187499968  28.859316406250002 1.445253906249997  C 27.4199609375 0.581640624999997  25.60009765625 1.016933593749997  24.645839843749997 2.362656249999997  C 24.625917968750002 2.385566406249997  24.58408203125 2.383574218749997  24.567148437500002 2.410468749999997  L 12.886953124999996 19.9317578125  C 11.835078125000003 21.5095703125  11.281250000000002 23.34337890625  11.281250000000002 25.233964843749998  L 11.281250000000002 33.225625  L 2.3044531250000015 36.217890625  C 1.0026637575588997 36.6510067338015  0.12452302917143691 37.8690858520172  0.12500000000000178 39.24103515625  L 0.12500000000000178 48.80353515625  C 0.12500000000000178 49.88130859375  0.9736718750000017 51.99103515625  3.3125000000000018 51.99103515625  C 3.5804492187500014 51.99103515625  3.8513867187500015 51.95716796875001  4.115351562500003 51.8884375  L 21.96435546875 47.244648437500004  C 26.935859375000007 45.82322265625  30.40625 41.222265625  31 36.05353515625  L 31 23.303535156250003  Z " stroke-width="0" stroke-dasharray="0" stroke="rgba(255, 255, 255, 0)" fill="none" class="stroke" mask="url(#Clip1872)" />
    <path d="M 63.874999999999986 39.24900390625  C 63.874999999999986 37.8773828125  62.99744140625 36.66015625  61.695546875 36.225859375  L 52.71875 33.233593750000004  L 52.71875 25.24193359375  C 52.71875 23.351347656250002  52.164921875000005 21.517539062500003  51.113046875 19.939726562500002  L 39.4328515625 2.41943359375  C 39.414921875 2.3925390625  39.374082031250005 2.39552734375  39.354160156249996 2.37162109375  C 38.39990234375 1.0258984375  36.5800390625 0.5906054687500001  35.14068359375 1.45421875  C 33.63060546875 2.35966796875  33.142519531249995 4.317988281250001  34.047968749999995 5.82806640625  L 41.792597656249995 18.7364453125  C 42.68609375 20.2226171875  43.15624999999999 21.9239453125  43.15624999999999 23.656152343749998  L 43.15624999999999 31.28125  C 43.15624999999999 32.16179687499999  42.44304687499999 32.875  41.56249999999999 32.875  C 40.681953125 32.875  39.96874999999999 32.16179687499999  39.96874999999999 31.28125  L 39.96874999999999 23.3125  C 39.96874999999999 21.559375  38.534375 20.125  36.78124999999999 20.125  C 35.02812499999999 20.125  33.59374999999999 21.559375  33 23.3125  L 33 36.0625  C 33.59374999999999 41.23123046875  37.06414062499999 45.832187499999996  42.03564453124999 47.2526171875  L 59.8846484375 51.896406250000005  C 60.14960937499999 51.96513671875  60.42054687499999 51.99900390625  60.687499999999986 51.99900390625  C 63.02632812499999 51.99900390625  63.874999999999986 49.88927734375  63.874999999999986 48.81150390625  L 63.874999999999986 39.24900390625  Z " stroke-width="0" stroke-dasharray="0" stroke="rgba(255, 255, 255, 0)" fill="none" class="stroke" mask="url(#Clip1872)" />
  </g>
</svg>