<?xml version="1.0" encoding="utf-8"?>
<svg version="1.1" xmlns:xlink="http://www.w3.org/1999/xlink" width="40px" height="48px" xmlns="http://www.w3.org/2000/svg">
  <defs>
    <pattern id="BGPattern" patternUnits="userSpaceOnUse" alignment="0 0" imageRepeat="None" />
    <mask fill="white" id="Clip7183">
      <path d="M 1.1180000000000003 10.688  L 1.8040000000000003 9.996  L 10 21.503999999999998  L 10 45.806  L 1.1180000000000003 37.41  L 1.1180000000000003 10.688  Z M 1.9400000000000004 8.574  L 1 10.316  L 1 37.784  L 11 47.986  L 11 21.225999999999996  L 1.9400000000000004 8.574  Z M 39 37.786  L 39 10.414  L 29 0  L 29 26.662  L 38.022 39.7  C 38.022 39.7  39.786 37.786  39 37.786  Z M 2.9779999999999998 7.530000000000001  L 10.43 0.002  L 37.01 40.562000000000005  L 29.572000000000003 48  L 2.9779999999999998 7.530000000000001  Z " fill-rule="evenodd" />
    </mask>
  </defs>
  <g>
    <path d="M 1.1180000000000003 10.688  L 1.8040000000000003 9.996  L 10 21.503999999999998  L 10 45.806  L 1.1180000000000003 37.41  L 1.1180000000000003 10.688  Z M 1.9400000000000004 8.574  L 1 10.316  L 1 37.784  L 11 47.986  L 11 21.225999999999996  L 1.9400000000000004 8.574  Z M 39 37.786  L 39 10.414  L 29 0  L 29 26.662  L 38.022 39.7  C 38.022 39.7  39.786 37.786  39 37.786  Z M 2.9779999999999998 7.530000000000001  L 10.43 0.002  L 37.01 40.562000000000005  L 29.572000000000003 48  L 2.9779999999999998 7.530000000000001  Z " fill-rule="nonzero" fill="rgba(87, 161, 67, 1)" stroke="none" class="fill" />
    <path d="M 1.1180000000000003 10.688  L 1.8040000000000003 9.996  L 10 21.503999999999998  L 10 45.806  L 1.1180000000000003 37.41  L 1.1180000000000003 10.688  Z " stroke-width="0" stroke-dasharray="0" stroke="rgba(255, 255, 255, 0)" fill="none" class="stroke" mask="url(#Clip7183)" />
    <path d="M 1.9400000000000004 8.574  L 1 10.316  L 1 37.784  L 11 47.986  L 11 21.225999999999996  L 1.9400000000000004 8.574  Z " stroke-width="0" stroke-dasharray="0" stroke="rgba(255, 255, 255, 0)" fill="none" class="stroke" mask="url(#Clip7183)" />
    <path d="M 39 37.786  L 39 10.414  L 29 0  L 29 26.662  L 38.022 39.7  C 38.022 39.7  39.786 37.786  39 37.786  Z " stroke-width="0" stroke-dasharray="0" stroke="rgba(255, 255, 255, 0)" fill="none" class="stroke" mask="url(#Clip7183)" />
    <path d="M 2.9779999999999998 7.530000000000001  L 10.43 0.002  L 37.01 40.562000000000005  L 29.572000000000003 48  L 2.9779999999999998 7.530000000000001  Z " stroke-width="0" stroke-dasharray="0" stroke="rgba(255, 255, 255, 0)" fill="none" class="stroke" mask="url(#Clip7183)" />
  </g>
</svg>