<?xml version="1.0" encoding="utf-8"?>
<svg version="1.1" xmlns:xlink="http://www.w3.org/1999/xlink" width="44px" height="56px" xmlns="http://www.w3.org/2000/svg">
  <defs>
    <pattern id="BGPattern" patternUnits="userSpaceOnUse" alignment="0 0" imageRepeat="None" />
    <mask fill="white" id="Clip2261">
      <path d="M 29.962500000000006 0.5875000000000004  L 43.4125 14.043750000000001  C 43.7875 14.41875  44 14.925  44 15.45625  L 44 54  C 44 55.10625  43.10625 56  42 56  L 2 56  C 0.8937500000000006 56  0 55.10625  0 54  L 0 2  C 0 0.8937499999999997  0.8937500000000006 0  2 0  L 28.543750000000003 0  C 29.075000000000003 0  29.587500000000006 0.21250000000000036  29.962500000000006 0.5875000000000004  Z M 27 17  L 39.3875 17  L 27 4.612500000000001  L 27 17  Z " fill-rule="evenodd" />
    </mask>
  </defs>
  <g>
    <path d="M 29.962500000000006 0.5875000000000004  L 43.4125 14.043750000000001  C 43.7875 14.41875  44 14.925  44 15.45625  L 44 54  C 44 55.10625  43.10625 56  42 56  L 2 56  C 0.8937500000000006 56  0 55.10625  0 54  L 0 2  C 0 0.8937499999999997  0.8937500000000006 0  2 0  L 28.543750000000003 0  C 29.075000000000003 0  29.587500000000006 0.21250000000000036  29.962500000000006 0.5875000000000004  Z M 27 17  L 39.3875 17  L 27 4.612500000000001  L 27 17  Z " fill-rule="nonzero" fill="rgba(0, 0, 0, 1)" stroke="none" class="fill" />
    <path d="M 29.962500000000006 0.5875000000000004  L 43.4125 14.043750000000001  C 43.7875 14.41875  44 14.925  44 15.45625  L 44 54  C 44 55.10625  43.10625 56  42 56  L 2 56  C 0.8937500000000006 56  0 55.10625  0 54  L 0 2  C 0 0.8937499999999997  0.8937500000000006 0  2 0  L 28.543750000000003 0  C 29.075000000000003 0  29.587500000000006 0.21250000000000036  29.962500000000006 0.5875000000000004  Z " stroke-width="0" stroke-dasharray="0" stroke="rgba(255, 255, 255, 0)" fill="none" class="stroke" mask="url(#Clip2261)" />
    <path d="M 27 17  L 39.3875 17  L 27 4.612500000000001  L 27 17  Z " stroke-width="0" stroke-dasharray="0" stroke="rgba(255, 255, 255, 0)" fill="none" class="stroke" mask="url(#Clip2261)" />
  </g>
</svg>