<?xml version="1.0" encoding="utf-8"?>
<svg version="1.1" xmlns:xlink="http://www.w3.org/1999/xlink" width="14px" height="7px" xmlns="http://www.w3.org/2000/svg">
  <defs>
    <pattern id="BGPattern" patternUnits="userSpaceOnUse" alignment="0 0" imageRepeat="None" />
    <mask fill="white" id="Clip4375">
      <path d="M 14 6.9999998524860345  L 11.999999999999996 6.999999852486034  C 11.999999999999996 4.238576161524719  9.761423749153966 1.9999999578531527  6.999999999999998 1.9999999578531527  C 4.23857625084603 1.9999999578531527  1.9999999999999991 4.238576161524719  1.9999999999999991 6.999999852486034  L 0 6.9999998524860345  C 0 3.1340067427479807  3.1340068087922326 0  6.999999999999998 0  C 10.865993248815553 0  13.999999999999996 3.13400683265416  13.999999999999996 7  Z " fill-rule="evenodd" />
    </mask>
  </defs>
  <g transform="matrix(1 0 0 1 -6 -1 )">
    <path d="M 14 6.9999998524860345  L 11.999999999999996 6.999999852486034  C 11.999999999999996 4.238576161524719  9.761423749153966 1.9999999578531527  6.999999999999998 1.9999999578531527  C 4.23857625084603 1.9999999578531527  1.9999999999999991 4.238576161524719  1.9999999999999991 6.999999852486034  L 0 6.9999998524860345  C 0 3.1340067427479807  3.1340068087922326 0  6.999999999999998 0  C 10.865993248815553 0  13.999999999999996 3.13400683265416  13.999999999999996 7  Z " fill-rule="nonzero" fill="rgba(0, 0, 0, 1)" stroke="none" transform="matrix(1 0 0 1 6 1 )" class="fill" />
    <path d="M 14 6.9999998524860345  L 11.999999999999996 6.999999852486034  C 11.999999999999996 4.238576161524719  9.761423749153966 1.9999999578531527  6.999999999999998 1.9999999578531527  C 4.23857625084603 1.9999999578531527  1.9999999999999991 4.238576161524719  1.9999999999999991 6.999999852486034  L 0 6.9999998524860345  C 0 3.1340067427479807  3.1340068087922326 0  6.999999999999998 0  C 10.865993248815553 0  13.999999999999996 3.13400683265416  13.999999999999996 7  Z " stroke-width="0" stroke-dasharray="0" stroke="rgba(255, 255, 255, 0)" fill="none" transform="matrix(1 0 0 1 6 1 )" class="stroke" mask="url(#Clip4375)" />
  </g>
</svg>