<?xml version="1.0" encoding="utf-8"?>
<svg version="1.1" xmlns:xlink="http://www.w3.org/1999/xlink" width="18px" height="24px" xmlns="http://www.w3.org/2000/svg">
  <defs>
    <pattern id="BGPattern" patternUnits="userSpaceOnUse" alignment="0 0" imageRepeat="None" />
    <mask fill="white" id="Clip5450">
      <path d="M 18 3  C 18 1.3431457505076196  16.65685424949238 0  15 0  L 3 0  C 1.3431457505076194 0  0 1.3431457505076196  0 3  L 0 21  C 0 22.65685424949238  1.3431457505076194 24  3 24  L 15 24  C 16.65685424949238 24  18 22.65685424949238  18 21  L 18 3  Z M 5.289 13.023  C 6.753 13.023  7.574999999999999 14.208000000000002  7.574999999999999 16.3275  C 7.574999999999999 18.450000000000003  6.753 19.636499999999998  5.289 19.636499999999998  C 3.822 19.634999999999998  3 18.450000000000003  3 16.3275  C 3 14.209499999999998  3.822 13.023  5.289 13.023  Z M 11.595 18.608999999999998  L 13.282499999999999 18.607499999999998  L 13.282499999999999 19.5  L 8.7825 19.5  L 8.7825 18.607499999999998  L 10.554000000000002 18.607499999999998  L 10.554000000000002 14.25  L 10.479000000000001 14.25  L 8.775 15.3705  L 8.775 14.3385  L 10.560000000000002 13.1595  L 11.595 13.1595  L 11.595 18.608999999999998  Z M 5.2905 13.910999999999998  L 5.289 13.9095  C 4.476 13.9095  4.041 14.754000000000001  4.041 16.3275  C 4.041 16.4595  4.0455000000000005 16.587  4.050000000000001 16.7055  L 6.390000000000001 14.991  C 6.200999999999999 14.28  5.827500000000001 13.910999999999998  5.2905 13.910999999999998  Z M 6.524999999999999 15.952499999999997  L 4.190999999999999 17.671499999999998  C 4.38 18.379499999999997  4.748999999999999 18.7485  5.289 18.7485  C 6.099 18.7485  6.533999999999999 17.903999999999996  6.533999999999999 16.327499999999997  C 6.533999999999999 16.199999999999996  6.529499999999999 16.072499999999998  6.524999999999999 15.952499999999997  Z " fill-rule="evenodd" />
    </mask>
  </defs>
  <g>
    <path d="M 18 3  C 18 1.3431457505076196  16.65685424949238 0  15 0  L 3 0  C 1.3431457505076194 0  0 1.3431457505076196  0 3  L 0 21  C 0 22.65685424949238  1.3431457505076194 24  3 24  L 15 24  C 16.65685424949238 24  18 22.65685424949238  18 21  L 18 3  Z M 5.289 13.023  C 6.753 13.023  7.574999999999999 14.208000000000002  7.574999999999999 16.3275  C 7.574999999999999 18.450000000000003  6.753 19.636499999999998  5.289 19.636499999999998  C 3.822 19.634999999999998  3 18.450000000000003  3 16.3275  C 3 14.209499999999998  3.822 13.023  5.289 13.023  Z M 11.595 18.608999999999998  L 13.282499999999999 18.607499999999998  L 13.282499999999999 19.5  L 8.7825 19.5  L 8.7825 18.607499999999998  L 10.554000000000002 18.607499999999998  L 10.554000000000002 14.25  L 10.479000000000001 14.25  L 8.775 15.3705  L 8.775 14.3385  L 10.560000000000002 13.1595  L 11.595 13.1595  L 11.595 18.608999999999998  Z M 5.2905 13.910999999999998  L 5.289 13.9095  C 4.476 13.9095  4.041 14.754000000000001  4.041 16.3275  C 4.041 16.4595  4.0455000000000005 16.587  4.050000000000001 16.7055  L 6.390000000000001 14.991  C 6.200999999999999 14.28  5.827500000000001 13.910999999999998  5.2905 13.910999999999998  Z M 6.524999999999999 15.952499999999997  L 4.190999999999999 17.671499999999998  C 4.38 18.379499999999997  4.748999999999999 18.7485  5.289 18.7485  C 6.099 18.7485  6.533999999999999 17.903999999999996  6.533999999999999 16.327499999999997  C 6.533999999999999 16.199999999999996  6.529499999999999 16.072499999999998  6.524999999999999 15.952499999999997  Z " fill-rule="nonzero" fill="rgba(0, 0, 0, 1)" stroke="none" class="fill" />
    <path d="M 18 3  C 18 1.3431457505076196  16.65685424949238 0  15 0  L 3 0  C 1.3431457505076194 0  0 1.3431457505076196  0 3  L 0 21  C 0 22.65685424949238  1.3431457505076194 24  3 24  L 15 24  C 16.65685424949238 24  18 22.65685424949238  18 21  L 18 3  Z " stroke-width="0" stroke-dasharray="0" stroke="rgba(255, 255, 255, 0)" fill="none" class="stroke" mask="url(#Clip5450)" />
    <path d="M 5.289 13.023  C 6.753 13.023  7.574999999999999 14.208000000000002  7.574999999999999 16.3275  C 7.574999999999999 18.450000000000003  6.753 19.636499999999998  5.289 19.636499999999998  C 3.822 19.634999999999998  3 18.450000000000003  3 16.3275  C 3 14.209499999999998  3.822 13.023  5.289 13.023  Z " stroke-width="0" stroke-dasharray="0" stroke="rgba(255, 255, 255, 0)" fill="none" class="stroke" mask="url(#Clip5450)" />
    <path d="M 11.595 18.608999999999998  L 13.282499999999999 18.607499999999998  L 13.282499999999999 19.5  L 8.7825 19.5  L 8.7825 18.607499999999998  L 10.554000000000002 18.607499999999998  L 10.554000000000002 14.25  L 10.479000000000001 14.25  L 8.775 15.3705  L 8.775 14.3385  L 10.560000000000002 13.1595  L 11.595 13.1595  L 11.595 18.608999999999998  Z " stroke-width="0" stroke-dasharray="0" stroke="rgba(255, 255, 255, 0)" fill="none" class="stroke" mask="url(#Clip5450)" />
    <path d="M 5.2905 13.910999999999998  L 5.289 13.9095  C 4.476 13.9095  4.041 14.754000000000001  4.041 16.3275  C 4.041 16.4595  4.0455000000000005 16.587  4.050000000000001 16.7055  L 6.390000000000001 14.991  C 6.200999999999999 14.28  5.827500000000001 13.910999999999998  5.2905 13.910999999999998  Z " stroke-width="0" stroke-dasharray="0" stroke="rgba(255, 255, 255, 0)" fill="none" class="stroke" mask="url(#Clip5450)" />
    <path d="M 6.524999999999999 15.952499999999997  L 4.190999999999999 17.671499999999998  C 4.38 18.379499999999997  4.748999999999999 18.7485  5.289 18.7485  C 6.099 18.7485  6.533999999999999 17.903999999999996  6.533999999999999 16.327499999999997  C 6.533999999999999 16.199999999999996  6.529499999999999 16.072499999999998  6.524999999999999 15.952499999999997  Z " stroke-width="0" stroke-dasharray="0" stroke="rgba(255, 255, 255, 0)" fill="none" class="stroke" mask="url(#Clip5450)" />
  </g>
</svg>