<?xml version="1.0" encoding="utf-8"?>
<svg version="1.1" xmlns:xlink="http://www.w3.org/1999/xlink" width="24px" height="24px" xmlns="http://www.w3.org/2000/svg">
  <defs>
    <pattern id="BGPattern" patternUnits="userSpaceOnUse" alignment="0 0" imageRepeat="None" />
    <mask fill="white" id="Clip6177">
      <path d="M 1.5 4.5  L 1.5 2.25  C 1.5 1.0073593128807152  2.507359312880715 0  3.75 0  L 21.75 0  C 22.992640687119284 0  24 1.0073593128807148  24 2.25  L 24 21.75  C 24 22.992640687119284  22.992640687119284 24  21.75 24  L 3.75 24  C 2.507359312880714 24  1.5 22.992640687119284  1.5 21.75  L 1.5 19.5  L 0.75 19.5  C 0.3357864376269049 19.5  0 19.164213562373096  0 18.75  C 0 18.335786437626904  0.3357864376269049 18  0.75 18  L 1.5 18  L 1.5 12.75  L 0.75 12.75  C 0.3357864376269049 12.75  0 12.414213562373096  0 12  C 0 11.585786437626904  0.3357864376269049 11.25  0.75 11.25  L 1.5 11.25  L 1.5 6  L 0.75 6  C 0.3357864376269049 6  0 5.664213562373095  0 5.25  C 0 4.835786437626905  0.3357864376269049 4.5  0.75 4.5  L 1.5 4.5  Z M 21.75 1.5  L 3.75 1.5  C 3.335786437626905 1.5  3 1.835786437626905  3 2.25  L 3 21.75  C 3 22.164213562373096  3.335786437626905 22.5  3.75 22.5  L 21.75 22.5  C 22.164213562373096 22.5  22.5 22.164213562373096  22.5 21.75  L 22.5 2.25  C 22.5 1.835786437626905  22.164213562373096 1.5  21.75 1.5  Z " fill-rule="evenodd" />
    </mask>
  </defs>
  <g>
    <path d="M 1.5 4.5  L 1.5 2.25  C 1.5 1.0073593128807152  2.507359312880715 0  3.75 0  L 21.75 0  C 22.992640687119284 0  24 1.0073593128807148  24 2.25  L 24 21.75  C 24 22.992640687119284  22.992640687119284 24  21.75 24  L 3.75 24  C 2.507359312880714 24  1.5 22.992640687119284  1.5 21.75  L 1.5 19.5  L 0.75 19.5  C 0.3357864376269049 19.5  0 19.164213562373096  0 18.75  C 0 18.335786437626904  0.3357864376269049 18  0.75 18  L 1.5 18  L 1.5 12.75  L 0.75 12.75  C 0.3357864376269049 12.75  0 12.414213562373096  0 12  C 0 11.585786437626904  0.3357864376269049 11.25  0.75 11.25  L 1.5 11.25  L 1.5 6  L 0.75 6  C 0.3357864376269049 6  0 5.664213562373095  0 5.25  C 0 4.835786437626905  0.3357864376269049 4.5  0.75 4.5  L 1.5 4.5  Z M 21.75 1.5  L 3.75 1.5  C 3.335786437626905 1.5  3 1.835786437626905  3 2.25  L 3 21.75  C 3 22.164213562373096  3.335786437626905 22.5  3.75 22.5  L 21.75 22.5  C 22.164213562373096 22.5  22.5 22.164213562373096  22.5 21.75  L 22.5 2.25  C 22.5 1.835786437626905  22.164213562373096 1.5  21.75 1.5  Z " fill-rule="nonzero" fill="rgba(0, 0, 0, 1)" stroke="none" class="fill" />
    <path d="M 1.5 4.5  L 1.5 2.25  C 1.5 1.0073593128807152  2.507359312880715 0  3.75 0  L 21.75 0  C 22.992640687119284 0  24 1.0073593128807148  24 2.25  L 24 21.75  C 24 22.992640687119284  22.992640687119284 24  21.75 24  L 3.75 24  C 2.507359312880714 24  1.5 22.992640687119284  1.5 21.75  L 1.5 19.5  L 0.75 19.5  C 0.3357864376269049 19.5  0 19.164213562373096  0 18.75  C 0 18.335786437626904  0.3357864376269049 18  0.75 18  L 1.5 18  L 1.5 12.75  L 0.75 12.75  C 0.3357864376269049 12.75  0 12.414213562373096  0 12  C 0 11.585786437626904  0.3357864376269049 11.25  0.75 11.25  L 1.5 11.25  L 1.5 6  L 0.75 6  C 0.3357864376269049 6  0 5.664213562373095  0 5.25  C 0 4.835786437626905  0.3357864376269049 4.5  0.75 4.5  L 1.5 4.5  Z " stroke-width="0" stroke-dasharray="0" stroke="rgba(255, 255, 255, 0)" fill="none" class="stroke" mask="url(#Clip6177)" />
    <path d="M 21.75 1.5  L 3.75 1.5  C 3.335786437626905 1.5  3 1.835786437626905  3 2.25  L 3 21.75  C 3 22.164213562373096  3.335786437626905 22.5  3.75 22.5  L 21.75 22.5  C 22.164213562373096 22.5  22.5 22.164213562373096  22.5 21.75  L 22.5 2.25  C 22.5 1.835786437626905  22.164213562373096 1.5  21.75 1.5  Z " stroke-width="0" stroke-dasharray="0" stroke="rgba(255, 255, 255, 0)" fill="none" class="stroke" mask="url(#Clip6177)" />
  </g>
</svg>