<?xml version="1.0" encoding="utf-8"?>
<svg version="1.1" xmlns:xlink="http://www.w3.org/1999/xlink" width="24px" height="24px" xmlns="http://www.w3.org/2000/svg">
  <defs>
    <pattern id="BGPattern" patternUnits="userSpaceOnUse" alignment="0 0" imageRepeat="None" />
    <mask fill="white" id="Clip5400">
      <path d="M 22.411499986918415 5.452499982746214  L 13.411499998226514 0.6524999979352415  C 12.529287507656884 0.18209997675830775  11.470712492343118 0.18209997675830863  10.588500001773488 0.6524999979352415  L 1.5885000130815867 5.452499982746214  C 0.6106673870534146 5.973885121394522  -0.00011080336837544789 6.991848770155305  0 8.099999974368515  L 0 8.569499972882838  L 6.333000007120333 12.281999961135075  C 6.369000007075101 12.194999961410376  6.408000007026098 12.110999961676184  6.4530000069695586 12.026999961941991  C 7.450500005716244 10.076999968112535  9.996000002517938 9.15149997104117  12 10.151999967875206  C 14.003999997482065 9.15149997104117  16.549499994283757 10.076999968112535  17.548499993028557 12.026999961941991  C 17.590912080901468 12.110843818912175  17.630928294951453 12.195878273606144  17.668499992877784 12.281999961135075  L 23.999999984922535 8.569499972882838  L 23.999999984922535 8.099999974368515  C 24.000110803368372 6.991848770155306  23.389332612946585 5.973885121394522  22.411499986918415 5.452499982746214  Z M 0 10.307999967381562  L 0 10.309499967376816  L 6.000000007538732 13.825499956250852  C 5.982000007561349 14.638499953678211  6.186000007305032 15.500999950948932  6.624000006754706 16.366499948210162  L 6.630000006747165 16.375499948181684  L 0 20.057999936528848  L 0 10.307999967381562  Z M 3.0000000113080985 24  C 1.6225293316393667 24.000308125459753  0.42184789331088623 23.062527055375725  0.08850001496626807 21.725999931250662  L 7.438500005731322 17.641499944175575  C 8.283000004670246 18.73649994071058  9.513000003124807 19.841999937212353  11.17350000103846 20.93849993374261  L 12 21.485999932010113  L 12.826499998961541 20.93849993374261  C 14.486999996875195 19.843499937207607  15.716999995329754 18.73799994070583  16.56149999426868 17.641499944175575  L 23.911499985033732 21.725999931250662  C 23.578152106689117 23.062527055375718  22.377470668360633 24.000308125459753  20.9999999886919 24  L 3.0000000113080985 24  Z M 23.999999984922535 20.0594999365241  L 23.999999984922535 20.057999936528848  L 17.369999993252833 16.37549994818168  L 17.375999993245294 16.36649994821016  C 17.813999992694967 15.500999950948932  18.017999992438654 14.638499953678211  17.998499992463152 13.82549995625085  L 23.999999984922535 10.309499967376816  L 23.999999984922535 20.0594999365241  Z " fill-rule="evenodd" />
    </mask>
  </defs>
  <g>
    <path d="M 22.411499986918415 5.452499982746214  L 13.411499998226514 0.6524999979352415  C 12.529287507656884 0.18209997675830775  11.470712492343118 0.18209997675830863  10.588500001773488 0.6524999979352415  L 1.5885000130815867 5.452499982746214  C 0.6106673870534146 5.973885121394522  -0.00011080336837544789 6.991848770155305  0 8.099999974368515  L 0 8.569499972882838  L 6.333000007120333 12.281999961135075  C 6.369000007075101 12.194999961410376  6.408000007026098 12.110999961676184  6.4530000069695586 12.026999961941991  C 7.450500005716244 10.076999968112535  9.996000002517938 9.15149997104117  12 10.151999967875206  C 14.003999997482065 9.15149997104117  16.549499994283757 10.076999968112535  17.548499993028557 12.026999961941991  C 17.590912080901468 12.110843818912175  17.630928294951453 12.195878273606144  17.668499992877784 12.281999961135075  L 23.999999984922535 8.569499972882838  L 23.999999984922535 8.099999974368515  C 24.000110803368372 6.991848770155306  23.389332612946585 5.973885121394522  22.411499986918415 5.452499982746214  Z M 0 10.307999967381562  L 0 10.309499967376816  L 6.000000007538732 13.825499956250852  C 5.982000007561349 14.638499953678211  6.186000007305032 15.500999950948932  6.624000006754706 16.366499948210162  L 6.630000006747165 16.375499948181684  L 0 20.057999936528848  L 0 10.307999967381562  Z M 3.0000000113080985 24  C 1.6225293316393667 24.000308125459753  0.42184789331088623 23.062527055375725  0.08850001496626807 21.725999931250662  L 7.438500005731322 17.641499944175575  C 8.283000004670246 18.73649994071058  9.513000003124807 19.841999937212353  11.17350000103846 20.93849993374261  L 12 21.485999932010113  L 12.826499998961541 20.93849993374261  C 14.486999996875195 19.843499937207607  15.716999995329754 18.73799994070583  16.56149999426868 17.641499944175575  L 23.911499985033732 21.725999931250662  C 23.578152106689117 23.062527055375718  22.377470668360633 24.000308125459753  20.9999999886919 24  L 3.0000000113080985 24  Z M 23.999999984922535 20.0594999365241  L 23.999999984922535 20.057999936528848  L 17.369999993252833 16.37549994818168  L 17.375999993245294 16.36649994821016  C 17.813999992694967 15.500999950948932  18.017999992438654 14.638499953678211  17.998499992463152 13.82549995625085  L 23.999999984922535 10.309499967376816  L 23.999999984922535 20.0594999365241  Z " fill-rule="nonzero" fill="rgba(0, 0, 0, 1)" stroke="none" class="fill" />
    <path d="M 22.411499986918415 5.452499982746214  L 13.411499998226514 0.6524999979352415  C 12.529287507656884 0.18209997675830775  11.470712492343118 0.18209997675830863  10.588500001773488 0.6524999979352415  L 1.5885000130815867 5.452499982746214  C 0.6106673870534146 5.973885121394522  -0.00011080336837544789 6.991848770155305  0 8.099999974368515  L 0 8.569499972882838  L 6.333000007120333 12.281999961135075  C 6.369000007075101 12.194999961410376  6.408000007026098 12.110999961676184  6.4530000069695586 12.026999961941991  C 7.450500005716244 10.076999968112535  9.996000002517938 9.15149997104117  12 10.151999967875206  C 14.003999997482065 9.15149997104117  16.549499994283757 10.076999968112535  17.548499993028557 12.026999961941991  C 17.590912080901468 12.110843818912175  17.630928294951453 12.195878273606144  17.668499992877784 12.281999961135075  L 23.999999984922535 8.569499972882838  L 23.999999984922535 8.099999974368515  C 24.000110803368372 6.991848770155306  23.389332612946585 5.973885121394522  22.411499986918415 5.452499982746214  Z " stroke-width="0" stroke-dasharray="0" stroke="rgba(255, 255, 255, 0)" fill="none" class="stroke" mask="url(#Clip5400)" />
    <path d="M 0 10.307999967381562  L 0 10.309499967376816  L 6.000000007538732 13.825499956250852  C 5.982000007561349 14.638499953678211  6.186000007305032 15.500999950948932  6.624000006754706 16.366499948210162  L 6.630000006747165 16.375499948181684  L 0 20.057999936528848  L 0 10.307999967381562  Z " stroke-width="0" stroke-dasharray="0" stroke="rgba(255, 255, 255, 0)" fill="none" class="stroke" mask="url(#Clip5400)" />
    <path d="M 3.0000000113080985 24  C 1.6225293316393667 24.000308125459753  0.42184789331088623 23.062527055375725  0.08850001496626807 21.725999931250662  L 7.438500005731322 17.641499944175575  C 8.283000004670246 18.73649994071058  9.513000003124807 19.841999937212353  11.17350000103846 20.93849993374261  L 12 21.485999932010113  L 12.826499998961541 20.93849993374261  C 14.486999996875195 19.843499937207607  15.716999995329754 18.73799994070583  16.56149999426868 17.641499944175575  L 23.911499985033732 21.725999931250662  C 23.578152106689117 23.062527055375718  22.377470668360633 24.000308125459753  20.9999999886919 24  L 3.0000000113080985 24  Z " stroke-width="0" stroke-dasharray="0" stroke="rgba(255, 255, 255, 0)" fill="none" class="stroke" mask="url(#Clip5400)" />
    <path d="M 23.999999984922535 20.0594999365241  L 23.999999984922535 20.057999936528848  L 17.369999993252833 16.37549994818168  L 17.375999993245294 16.36649994821016  C 17.813999992694967 15.500999950948932  18.017999992438654 14.638499953678211  17.998499992463152 13.82549995625085  L 23.999999984922535 10.309499967376816  L 23.999999984922535 20.0594999365241  Z " stroke-width="0" stroke-dasharray="0" stroke="rgba(255, 255, 255, 0)" fill="none" class="stroke" mask="url(#Clip5400)" />
  </g>
</svg>