<?xml version="1.0" encoding="utf-8"?>
<svg version="1.1" xmlns:xlink="http://www.w3.org/1999/xlink" width="20px" height="20px" xmlns="http://www.w3.org/2000/svg">
  <defs>
    <pattern id="BGPattern" patternUnits="userSpaceOnUse" alignment="0 0" imageRepeat="None" />
    <mask fill="white" id="Clip600">
      <path d="M 19.248 2.4480000000000004  L 11.696000000000002 10  L 19.248 17.552  C 19.472 17.776  19.6 18.064  19.6 18.4  C 19.6 19.055999999999997  19.056 19.599999999999998  18.400000000000002 19.599999999999998  C 18.080000000000002 19.599999999999998  17.776000000000003 19.456  17.552000000000003 19.247999999999998  L 10.000000000000004 11.695999999999998  L 2.448000000000004 19.247999999999998  C 2.2240000000000038 19.455999999999996  1.9360000000000035 19.599999999999998  1.600000000000004 19.599999999999998  C 0.9440000000000044 19.599999999999998  0.4000000000000039 19.055999999999997  0.4000000000000039 18.4  C 0.4000000000000039 18.064  0.544000000000004 17.776  0.7520000000000042 17.552  L 8.304000000000004 10  L 0.7520000000000042 2.4480000000000004  C 0.544000000000004 2.224  0.4000000000000039 1.92  0.4000000000000039 1.6000000000000005  C 0.4000000000000039 0.9440000000000008  0.9440000000000044 0.40000000000000036  1.600000000000004 0.40000000000000036  C 1.9360000000000044 0.40000000000000036  2.2240000000000038 0.5280000000000005  2.448000000000004 0.7520000000000007  L 10.000000000000004 8.304  L 17.552000000000003 0.7520000000000007  C 17.776000000000003 0.5280000000000005  18.080000000000002 0.40000000000000036  18.400000000000002 0.40000000000000036  C 19.056 0.40000000000000036  19.6 0.9440000000000008  19.6 1.6000000000000005  C 19.6 1.9200000000000008  19.472 2.224  19.248 2.4480000000000004  Z " fill-rule="evenodd" />
    </mask>
  </defs>
  <g>
    <path d="M 19.248 2.4480000000000004  L 11.696000000000002 10  L 19.248 17.552  C 19.472 17.776  19.6 18.064  19.6 18.4  C 19.6 19.055999999999997  19.056 19.599999999999998  18.400000000000002 19.599999999999998  C 18.080000000000002 19.599999999999998  17.776000000000003 19.456  17.552000000000003 19.247999999999998  L 10.000000000000004 11.695999999999998  L 2.448000000000004 19.247999999999998  C 2.2240000000000038 19.455999999999996  1.9360000000000035 19.599999999999998  1.600000000000004 19.599999999999998  C 0.9440000000000044 19.599999999999998  0.4000000000000039 19.055999999999997  0.4000000000000039 18.4  C 0.4000000000000039 18.064  0.544000000000004 17.776  0.7520000000000042 17.552  L 8.304000000000004 10  L 0.7520000000000042 2.4480000000000004  C 0.544000000000004 2.224  0.4000000000000039 1.92  0.4000000000000039 1.6000000000000005  C 0.4000000000000039 0.9440000000000008  0.9440000000000044 0.40000000000000036  1.600000000000004 0.40000000000000036  C 1.9360000000000044 0.40000000000000036  2.2240000000000038 0.5280000000000005  2.448000000000004 0.7520000000000007  L 10.000000000000004 8.304  L 17.552000000000003 0.7520000000000007  C 17.776000000000003 0.5280000000000005  18.080000000000002 0.40000000000000036  18.400000000000002 0.40000000000000036  C 19.056 0.40000000000000036  19.6 0.9440000000000008  19.6 1.6000000000000005  C 19.6 1.9200000000000008  19.472 2.224  19.248 2.4480000000000004  Z " fill-rule="nonzero" fill="rgba(0, 0, 0, 1)" stroke="none" class="fill" />
    <path d="M 19.248 2.4480000000000004  L 11.696000000000002 10  L 19.248 17.552  C 19.472 17.776  19.6 18.064  19.6 18.4  C 19.6 19.055999999999997  19.056 19.599999999999998  18.400000000000002 19.599999999999998  C 18.080000000000002 19.599999999999998  17.776000000000003 19.456  17.552000000000003 19.247999999999998  L 10.000000000000004 11.695999999999998  L 2.448000000000004 19.247999999999998  C 2.2240000000000038 19.455999999999996  1.9360000000000035 19.599999999999998  1.600000000000004 19.599999999999998  C 0.9440000000000044 19.599999999999998  0.4000000000000039 19.055999999999997  0.4000000000000039 18.4  C 0.4000000000000039 18.064  0.544000000000004 17.776  0.7520000000000042 17.552  L 8.304000000000004 10  L 0.7520000000000042 2.4480000000000004  C 0.544000000000004 2.224  0.4000000000000039 1.92  0.4000000000000039 1.6000000000000005  C 0.4000000000000039 0.9440000000000008  0.9440000000000044 0.40000000000000036  1.600000000000004 0.40000000000000036  C 1.9360000000000044 0.40000000000000036  2.2240000000000038 0.5280000000000005  2.448000000000004 0.7520000000000007  L 10.000000000000004 8.304  L 17.552000000000003 0.7520000000000007  C 17.776000000000003 0.5280000000000005  18.080000000000002 0.40000000000000036  18.400000000000002 0.40000000000000036  C 19.056 0.40000000000000036  19.6 0.9440000000000008  19.6 1.6000000000000005  C 19.6 1.9200000000000008  19.472 2.224  19.248 2.4480000000000004  Z " stroke-width="0" stroke-dasharray="0" stroke="rgba(255, 255, 255, 0)" fill="none" class="stroke" mask="url(#Clip600)" />
  </g>
</svg>