<?xml version="1.0" encoding="utf-8"?>
<svg version="1.1" xmlns:xlink="http://www.w3.org/1999/xlink" width="50px" height="32px" xmlns="http://www.w3.org/2000/svg">
  <defs>
    <pattern id="BGPattern" patternUnits="userSpaceOnUse" alignment="0 0" imageRepeat="None" />
    <mask fill="white" id="Clip811">
      <path d="M 30.36209415584415 13.351948051948057  C 30.510957792207787 14.138636363636351  30.61720779220778 14.925324675324674  30.61720779220778 15.94577922077923  C 30.61720779220778 24.854301948051955  24.642775974025966 31.16883116883116  15.649350649350652 31.16883116883116  C 7.038636363636357 31.16883116883116  0.06493506493507084 24.19521103896102  0.06493506493507084 15.58441558441558  C 0.06493506493507084 6.973620129870142  7.038636363636357 0  15.649350649350652 0  C 19.859090909090895 0  23.367126623376635 1.5307629870129915  26.088555194805195 4.0821428571428555  L 21.857548701298697 8.143019480519484  C 20.70941558441558 7.0374188311688215  18.689691558441552 5.740503246753235  15.649350649350652 5.740503246753235  C 10.334090909090918 5.740503246753235  5.996753246753258 10.14155844155843  5.996753246753258 15.58441558441558  C 5.996753246753258 21.02727272727273  10.334090909090918 25.428327922077926  15.649350649350652 25.428327922077926  C 21.815016233766244 25.428327922077926  24.132548701298703 20.98474025974025  24.493912337662323 18.709740259740272  L 15.649350649350652 18.709740259740272  L 15.649350649350652 13.351866883116884  L 30.36209415584415 13.351866883116884  Z M 49.93506493506493 13.874431818181819  L 45.41128246753246 13.874431818181819  L 45.41128246753246 9.350649350649348  L 40.86574675324675 9.350649350649348  L 40.86574675324675 13.874431818181819  L 36.34196428571428 13.874431818181819  L 36.34196428571428 18.419967532467524  L 40.86574675324675 18.419967532467524  L 40.86574675324675 22.943749999999994  L 45.41128246753246 22.943749999999994  L 45.41128246753246 18.419967532467524  L 49.93506493506493 18.419967532467524  L 49.93506493506493 13.874431818181819  Z " fill-rule="evenodd" />
    </mask>
  </defs>
  <g>
    <path d="M 30.36209415584415 13.351948051948057  C 30.510957792207787 14.138636363636351  30.61720779220778 14.925324675324674  30.61720779220778 15.94577922077923  C 30.61720779220778 24.854301948051955  24.642775974025966 31.16883116883116  15.649350649350652 31.16883116883116  C 7.038636363636357 31.16883116883116  0.06493506493507084 24.19521103896102  0.06493506493507084 15.58441558441558  C 0.06493506493507084 6.973620129870142  7.038636363636357 0  15.649350649350652 0  C 19.859090909090895 0  23.367126623376635 1.5307629870129915  26.088555194805195 4.0821428571428555  L 21.857548701298697 8.143019480519484  C 20.70941558441558 7.0374188311688215  18.689691558441552 5.740503246753235  15.649350649350652 5.740503246753235  C 10.334090909090918 5.740503246753235  5.996753246753258 10.14155844155843  5.996753246753258 15.58441558441558  C 5.996753246753258 21.02727272727273  10.334090909090918 25.428327922077926  15.649350649350652 25.428327922077926  C 21.815016233766244 25.428327922077926  24.132548701298703 20.98474025974025  24.493912337662323 18.709740259740272  L 15.649350649350652 18.709740259740272  L 15.649350649350652 13.351866883116884  L 30.36209415584415 13.351866883116884  Z M 49.93506493506493 13.874431818181819  L 45.41128246753246 13.874431818181819  L 45.41128246753246 9.350649350649348  L 40.86574675324675 9.350649350649348  L 40.86574675324675 13.874431818181819  L 36.34196428571428 13.874431818181819  L 36.34196428571428 18.419967532467524  L 40.86574675324675 18.419967532467524  L 40.86574675324675 22.943749999999994  L 45.41128246753246 22.943749999999994  L 45.41128246753246 18.419967532467524  L 49.93506493506493 18.419967532467524  L 49.93506493506493 13.874431818181819  Z " fill-rule="nonzero" fill="rgba(0, 0, 0, 1)" stroke="none" class="fill" />
    <path d="M 30.36209415584415 13.351948051948057  C 30.510957792207787 14.138636363636351  30.61720779220778 14.925324675324674  30.61720779220778 15.94577922077923  C 30.61720779220778 24.854301948051955  24.642775974025966 31.16883116883116  15.649350649350652 31.16883116883116  C 7.038636363636357 31.16883116883116  0.06493506493507084 24.19521103896102  0.06493506493507084 15.58441558441558  C 0.06493506493507084 6.973620129870142  7.038636363636357 0  15.649350649350652 0  C 19.859090909090895 0  23.367126623376635 1.5307629870129915  26.088555194805195 4.0821428571428555  L 21.857548701298697 8.143019480519484  C 20.70941558441558 7.0374188311688215  18.689691558441552 5.740503246753235  15.649350649350652 5.740503246753235  C 10.334090909090918 5.740503246753235  5.996753246753258 10.14155844155843  5.996753246753258 15.58441558441558  C 5.996753246753258 21.02727272727273  10.334090909090918 25.428327922077926  15.649350649350652 25.428327922077926  C 21.815016233766244 25.428327922077926  24.132548701298703 20.98474025974025  24.493912337662323 18.709740259740272  L 15.649350649350652 18.709740259740272  L 15.649350649350652 13.351866883116884  L 30.36209415584415 13.351866883116884  Z " stroke-width="0" stroke-dasharray="0" stroke="rgba(255, 255, 255, 0)" fill="none" class="stroke" mask="url(#Clip811)" />
    <path d="M 49.93506493506493 13.874431818181819  L 45.41128246753246 13.874431818181819  L 45.41128246753246 9.350649350649348  L 40.86574675324675 9.350649350649348  L 40.86574675324675 13.874431818181819  L 36.34196428571428 13.874431818181819  L 36.34196428571428 18.419967532467524  L 40.86574675324675 18.419967532467524  L 40.86574675324675 22.943749999999994  L 45.41128246753246 22.943749999999994  L 45.41128246753246 18.419967532467524  L 49.93506493506493 18.419967532467524  L 49.93506493506493 13.874431818181819  Z " stroke-width="0" stroke-dasharray="0" stroke="rgba(255, 255, 255, 0)" fill="none" class="stroke" mask="url(#Clip811)" />
  </g>
</svg>