<?xml version="1.0" encoding="utf-8"?>
<svg version="1.1" xmlns:xlink="http://www.w3.org/1999/xlink" width="24px" height="24px" xmlns="http://www.w3.org/2000/svg">
  <defs>
    <pattern id="BGPattern" patternUnits="userSpaceOnUse" alignment="0 0" imageRepeat="None" />
    <mask fill="white" id="Clip4933">
      <path d="M 6 12  C 6 15.31370849898476  8.686291501015239 18  12 18  C 15.31370849898476 18  18 15.31370849898476  18 12  C 18 8.686291501015239  15.31370849898476 6  12 6  C 8.686291501015239 6  6 8.686291501015239  6 12  Z M 11.25 0.75  C 11.25 0.3357864376269049  11.585786437626904 0  12 0  C 12.414213562373096 0  12.75 0.3357864376269049  12.75 0.75  L 12.75 3.75  C 12.75 4.164213562373095  12.414213562373096 4.5  12 4.5  C 11.585786437626904 4.5  11.25 4.164213562373095  11.25 3.75  L 11.25 0.75  Z M 11.25 20.25  C 11.25 19.835786437626904  11.585786437626904 19.5  12 19.5  C 12.414213562373096 19.5  12.75 19.835786437626904  12.75 20.25  L 12.75 23.25  C 12.75 23.664213562373096  12.414213562373096 24  12 24  C 11.585786437626904 24  11.25 23.664213562373096  11.25 23.25  L 11.25 20.25  Z M 23.25 11.25  C 23.664213562373096 11.25  24 11.585786437626904  24 12  C 24 12.414213562373096  23.664213562373096 12.75  23.25 12.75  L 20.25 12.75  C 19.835786437626904 12.75  19.5 12.414213562373096  19.5 12  C 19.5 11.585786437626904  19.835786437626904 11.25  20.25 11.25  L 23.25 11.25  Z M 3.75 11.25  C 4.164213562373095 11.25  4.5 11.585786437626904  4.5 12  C 4.5 12.414213562373096  4.164213562373095 12.75  3.75 12.75  L 0.75 12.75  C 0.3357864376269049 12.75  0 12.414213562373096  0 12  C 0 11.585786437626904  0.3357864376269049 11.25  0.75 11.25  L 3.75 11.25  Z M 19.424999999999997 3.5145  C 19.71787488861436 3.2217135462503523  20.192625111385638 3.2217135462503523  20.485500000000002 3.5145  C 20.778286453749647 3.807374888614361  20.778286453749647 4.282125111385639  20.485500000000002 4.574999999999999  L 18.3645 6.6975  C 18.22380007690579 6.838001194389275  18.033089266704366 6.91691725892999  17.83425 6.91691725892999  C 17.41980599188314 6.91691725892999  17.083832741070008 6.580944008116859  17.083832741070008 6.166499999999999  C 17.083832741070008 5.967293191130789  17.163040001744655 5.776260902212609  17.304 5.6354999999999995  L 19.424999999999997 3.5145  Z M 5.6354999999999995 17.304  C 5.928374888614361 17.011213546250353  6.403125111385638 17.011213546250353  6.696000000000001 17.304  C 6.988786453749649 17.59687488861436  6.988786453749649 18.07162511138564  6.696000000000001 18.3645  L 4.574999999999999 20.485500000000002  C 4.43517067606787 20.62055167990704  4.248365732682537 20.69603384570443  4.05396615429557 20.69603384570443  C 3.639752591922475 20.69603384570443  3.30396615429557 20.360247408077527  3.30396615429557 19.94603384570443  C 3.30396615429557 19.751634267317463  3.3794483200929584 19.56482932393213  3.5145 19.424999999999997  L 5.6354999999999995 17.304  Z M 20.485500000000002 19.424999999999997  C 20.77828645374965 19.71787488861436  20.77828645374965 20.192625111385638  20.485500000000002 20.485500000000002  C 20.192625111385638 20.77828645374965  19.71787488861436 20.77828645374965  19.424999999999997 20.485500000000002  L 17.304 18.3645  C 17.168948320092948 18.224670676067866  17.09346615429555 18.037865732682526  17.09346615429555 17.84346615429555  C 17.09346615429555 17.429252591922456  17.429252591922456 17.09346615429555  17.84346615429555 17.09346615429555  C 18.037865732682526 17.09346615429555  18.224670676067866 17.168948320092948  18.3645 17.304  L 20.485500000000002 19.424999999999997  Z M 6.916340675528127 6.166499999999999  C 6.916340675528127 6.365740891287362  6.837062551031451 6.556793605484749  6.696000000000001 6.6975  C 6.4031251113856404 6.990286453749647  5.9283748886143615 6.990286453749647  5.6355 6.6975  L 3.5145 4.574999999999999  C 3.3681730688392397 4.4336727210488895  3.2855338457044088 4.238966809008419  3.2855338457044088 4.035533845704409  C 3.2855338457044088 3.621320283331314  3.621320283331314 3.2855338457044088  4.035533845704409 3.2855338457044088  C 4.238966809008419 3.2855338457044088  4.4336727210488895 3.3681730688392397  4.574999999999999 3.5145  L 6.696 5.6354999999999995  C 6.837062551031451 5.77620639451525  6.916340675528127 5.967259108712637  6.916340675528127 6.166499999999999  Z M 16.5 12  C 16.5 14.48528137423857  14.48528137423857 16.5  12 16.5  C 9.514718625761429 16.5  7.5 14.48528137423857  7.5 12  C 7.5 9.514718625761429  9.514718625761429 7.5  12 7.5  C 14.48528137423857 7.5  16.5 9.514718625761429  16.5 12  Z " fill-rule="evenodd" />
    </mask>
  </defs>
  <g>
    <path d="M 6 12  C 6 15.31370849898476  8.686291501015239 18  12 18  C 15.31370849898476 18  18 15.31370849898476  18 12  C 18 8.686291501015239  15.31370849898476 6  12 6  C 8.686291501015239 6  6 8.686291501015239  6 12  Z M 11.25 0.75  C 11.25 0.3357864376269049  11.585786437626904 0  12 0  C 12.414213562373096 0  12.75 0.3357864376269049  12.75 0.75  L 12.75 3.75  C 12.75 4.164213562373095  12.414213562373096 4.5  12 4.5  C 11.585786437626904 4.5  11.25 4.164213562373095  11.25 3.75  L 11.25 0.75  Z M 11.25 20.25  C 11.25 19.835786437626904  11.585786437626904 19.5  12 19.5  C 12.414213562373096 19.5  12.75 19.835786437626904  12.75 20.25  L 12.75 23.25  C 12.75 23.664213562373096  12.414213562373096 24  12 24  C 11.585786437626904 24  11.25 23.664213562373096  11.25 23.25  L 11.25 20.25  Z M 23.25 11.25  C 23.664213562373096 11.25  24 11.585786437626904  24 12  C 24 12.414213562373096  23.664213562373096 12.75  23.25 12.75  L 20.25 12.75  C 19.835786437626904 12.75  19.5 12.414213562373096  19.5 12  C 19.5 11.585786437626904  19.835786437626904 11.25  20.25 11.25  L 23.25 11.25  Z M 3.75 11.25  C 4.164213562373095 11.25  4.5 11.585786437626904  4.5 12  C 4.5 12.414213562373096  4.164213562373095 12.75  3.75 12.75  L 0.75 12.75  C 0.3357864376269049 12.75  0 12.414213562373096  0 12  C 0 11.585786437626904  0.3357864376269049 11.25  0.75 11.25  L 3.75 11.25  Z M 19.424999999999997 3.5145  C 19.71787488861436 3.2217135462503523  20.192625111385638 3.2217135462503523  20.485500000000002 3.5145  C 20.778286453749647 3.807374888614361  20.778286453749647 4.282125111385639  20.485500000000002 4.574999999999999  L 18.3645 6.6975  C 18.22380007690579 6.838001194389275  18.033089266704366 6.91691725892999  17.83425 6.91691725892999  C 17.41980599188314 6.91691725892999  17.083832741070008 6.580944008116859  17.083832741070008 6.166499999999999  C 17.083832741070008 5.967293191130789  17.163040001744655 5.776260902212609  17.304 5.6354999999999995  L 19.424999999999997 3.5145  Z M 5.6354999999999995 17.304  C 5.928374888614361 17.011213546250353  6.403125111385638 17.011213546250353  6.696000000000001 17.304  C 6.988786453749649 17.59687488861436  6.988786453749649 18.07162511138564  6.696000000000001 18.3645  L 4.574999999999999 20.485500000000002  C 4.43517067606787 20.62055167990704  4.248365732682537 20.69603384570443  4.05396615429557 20.69603384570443  C 3.639752591922475 20.69603384570443  3.30396615429557 20.360247408077527  3.30396615429557 19.94603384570443  C 3.30396615429557 19.751634267317463  3.3794483200929584 19.56482932393213  3.5145 19.424999999999997  L 5.6354999999999995 17.304  Z M 20.485500000000002 19.424999999999997  C 20.77828645374965 19.71787488861436  20.77828645374965 20.192625111385638  20.485500000000002 20.485500000000002  C 20.192625111385638 20.77828645374965  19.71787488861436 20.77828645374965  19.424999999999997 20.485500000000002  L 17.304 18.3645  C 17.168948320092948 18.224670676067866  17.09346615429555 18.037865732682526  17.09346615429555 17.84346615429555  C 17.09346615429555 17.429252591922456  17.429252591922456 17.09346615429555  17.84346615429555 17.09346615429555  C 18.037865732682526 17.09346615429555  18.224670676067866 17.168948320092948  18.3645 17.304  L 20.485500000000002 19.424999999999997  Z M 6.916340675528127 6.166499999999999  C 6.916340675528127 6.365740891287362  6.837062551031451 6.556793605484749  6.696000000000001 6.6975  C 6.4031251113856404 6.990286453749647  5.9283748886143615 6.990286453749647  5.6355 6.6975  L 3.5145 4.574999999999999  C 3.3681730688392397 4.4336727210488895  3.2855338457044088 4.238966809008419  3.2855338457044088 4.035533845704409  C 3.2855338457044088 3.621320283331314  3.621320283331314 3.2855338457044088  4.035533845704409 3.2855338457044088  C 4.238966809008419 3.2855338457044088  4.4336727210488895 3.3681730688392397  4.574999999999999 3.5145  L 6.696 5.6354999999999995  C 6.837062551031451 5.77620639451525  6.916340675528127 5.967259108712637  6.916340675528127 6.166499999999999  Z M 16.5 12  C 16.5 14.48528137423857  14.48528137423857 16.5  12 16.5  C 9.514718625761429 16.5  7.5 14.48528137423857  7.5 12  C 7.5 9.514718625761429  9.514718625761429 7.5  12 7.5  C 14.48528137423857 7.5  16.5 9.514718625761429  16.5 12  Z " fill-rule="nonzero" fill="rgba(0, 0, 0, 1)" stroke="none" class="fill" />
    <path d="M 6 12  C 6 15.31370849898476  8.686291501015239 18  12 18  C 15.31370849898476 18  18 15.31370849898476  18 12  C 18 8.686291501015239  15.31370849898476 6  12 6  C 8.686291501015239 6  6 8.686291501015239  6 12  Z " stroke-width="0" stroke-dasharray="0" stroke="rgba(255, 255, 255, 0)" fill="none" class="stroke" mask="url(#Clip4933)" />
    <path d="M 11.25 0.75  C 11.25 0.3357864376269049  11.585786437626904 0  12 0  C 12.414213562373096 0  12.75 0.3357864376269049  12.75 0.75  L 12.75 3.75  C 12.75 4.164213562373095  12.414213562373096 4.5  12 4.5  C 11.585786437626904 4.5  11.25 4.164213562373095  11.25 3.75  L 11.25 0.75  Z " stroke-width="0" stroke-dasharray="0" stroke="rgba(255, 255, 255, 0)" fill="none" class="stroke" mask="url(#Clip4933)" />
    <path d="M 11.25 20.25  C 11.25 19.835786437626904  11.585786437626904 19.5  12 19.5  C 12.414213562373096 19.5  12.75 19.835786437626904  12.75 20.25  L 12.75 23.25  C 12.75 23.664213562373096  12.414213562373096 24  12 24  C 11.585786437626904 24  11.25 23.664213562373096  11.25 23.25  L 11.25 20.25  Z " stroke-width="0" stroke-dasharray="0" stroke="rgba(255, 255, 255, 0)" fill="none" class="stroke" mask="url(#Clip4933)" />
    <path d="M 23.25 11.25  C 23.664213562373096 11.25  24 11.585786437626904  24 12  C 24 12.414213562373096  23.664213562373096 12.75  23.25 12.75  L 20.25 12.75  C 19.835786437626904 12.75  19.5 12.414213562373096  19.5 12  C 19.5 11.585786437626904  19.835786437626904 11.25  20.25 11.25  L 23.25 11.25  Z " stroke-width="0" stroke-dasharray="0" stroke="rgba(255, 255, 255, 0)" fill="none" class="stroke" mask="url(#Clip4933)" />
    <path d="M 3.75 11.25  C 4.164213562373095 11.25  4.5 11.585786437626904  4.5 12  C 4.5 12.414213562373096  4.164213562373095 12.75  3.75 12.75  L 0.75 12.75  C 0.3357864376269049 12.75  0 12.414213562373096  0 12  C 0 11.585786437626904  0.3357864376269049 11.25  0.75 11.25  L 3.75 11.25  Z " stroke-width="0" stroke-dasharray="0" stroke="rgba(255, 255, 255, 0)" fill="none" class="stroke" mask="url(#Clip4933)" />
    <path d="M 19.424999999999997 3.5145  C 19.71787488861436 3.2217135462503523  20.192625111385638 3.2217135462503523  20.485500000000002 3.5145  C 20.778286453749647 3.807374888614361  20.778286453749647 4.282125111385639  20.485500000000002 4.574999999999999  L 18.3645 6.6975  C 18.22380007690579 6.838001194389275  18.033089266704366 6.91691725892999  17.83425 6.91691725892999  C 17.41980599188314 6.91691725892999  17.083832741070008 6.580944008116859  17.083832741070008 6.166499999999999  C 17.083832741070008 5.967293191130789  17.163040001744655 5.776260902212609  17.304 5.6354999999999995  L 19.424999999999997 3.5145  Z " stroke-width="0" stroke-dasharray="0" stroke="rgba(255, 255, 255, 0)" fill="none" class="stroke" mask="url(#Clip4933)" />
    <path d="M 5.6354999999999995 17.304  C 5.928374888614361 17.011213546250353  6.403125111385638 17.011213546250353  6.696000000000001 17.304  C 6.988786453749649 17.59687488861436  6.988786453749649 18.07162511138564  6.696000000000001 18.3645  L 4.574999999999999 20.485500000000002  C 4.43517067606787 20.62055167990704  4.248365732682537 20.69603384570443  4.05396615429557 20.69603384570443  C 3.639752591922475 20.69603384570443  3.30396615429557 20.360247408077527  3.30396615429557 19.94603384570443  C 3.30396615429557 19.751634267317463  3.3794483200929584 19.56482932393213  3.5145 19.424999999999997  L 5.6354999999999995 17.304  Z " stroke-width="0" stroke-dasharray="0" stroke="rgba(255, 255, 255, 0)" fill="none" class="stroke" mask="url(#Clip4933)" />
    <path d="M 20.485500000000002 19.424999999999997  C 20.77828645374965 19.71787488861436  20.77828645374965 20.192625111385638  20.485500000000002 20.485500000000002  C 20.192625111385638 20.77828645374965  19.71787488861436 20.77828645374965  19.424999999999997 20.485500000000002  L 17.304 18.3645  C 17.168948320092948 18.224670676067866  17.09346615429555 18.037865732682526  17.09346615429555 17.84346615429555  C 17.09346615429555 17.429252591922456  17.429252591922456 17.09346615429555  17.84346615429555 17.09346615429555  C 18.037865732682526 17.09346615429555  18.224670676067866 17.168948320092948  18.3645 17.304  L 20.485500000000002 19.424999999999997  Z " stroke-width="0" stroke-dasharray="0" stroke="rgba(255, 255, 255, 0)" fill="none" class="stroke" mask="url(#Clip4933)" />
    <path d="M 6.916340675528127 6.166499999999999  C 6.916340675528127 6.365740891287362  6.837062551031451 6.556793605484749  6.696000000000001 6.6975  C 6.4031251113856404 6.990286453749647  5.9283748886143615 6.990286453749647  5.6355 6.6975  L 3.5145 4.574999999999999  C 3.3681730688392397 4.4336727210488895  3.2855338457044088 4.238966809008419  3.2855338457044088 4.035533845704409  C 3.2855338457044088 3.621320283331314  3.621320283331314 3.2855338457044088  4.035533845704409 3.2855338457044088  C 4.238966809008419 3.2855338457044088  4.4336727210488895 3.3681730688392397  4.574999999999999 3.5145  L 6.696 5.6354999999999995  C 6.837062551031451 5.77620639451525  6.916340675528127 5.967259108712637  6.916340675528127 6.166499999999999  Z " stroke-width="0" stroke-dasharray="0" stroke="rgba(255, 255, 255, 0)" fill="none" class="stroke" mask="url(#Clip4933)" />
    <path d="M 16.5 12  C 16.5 14.48528137423857  14.48528137423857 16.5  12 16.5  C 9.514718625761429 16.5  7.5 14.48528137423857  7.5 12  C 7.5 9.514718625761429  9.514718625761429 7.5  12 7.5  C 14.48528137423857 7.5  16.5 9.514718625761429  16.5 12  Z " stroke-width="0" stroke-dasharray="0" stroke="rgba(255, 255, 255, 0)" fill="none" class="stroke" mask="url(#Clip4933)" />
  </g>
</svg>