<?xml version="1.0" encoding="utf-8"?>
<svg version="1.1" xmlns:xlink="http://www.w3.org/1999/xlink" width="42px" height="48px" xmlns="http://www.w3.org/2000/svg">
  <defs>
    <pattern id="BGPattern" patternUnits="userSpaceOnUse" alignment="0 0" imageRepeat="None" />
    <mask fill="white" id="Clip6966">
      <path d="M 41.522 21.46199999999999  C 41.589999999999996 18.617999999999988  40.827999999999996 16.73599999999999  39.276 15.858  C 36.942 14.544  34.010000000000005 16.258  33.540000000000006 16.554000000000002  L 23.466000000000008 22.268  C 21.97800000000001 21.086000000000002  19.858000000000008 21.136  18.428000000000008 22.388  C 16.998000000000008 23.638  16.666000000000007 25.729999999999997  17.63800000000001 27.364000000000004  C 18.61000000000001 28.998  20.61000000000001 29.700000000000003  22.390000000000008 29.036  C 24.170000000000005 28.372000000000003  25.22200000000001 26.531999999999996  24.890000000000008 24.662000000000006  L 34.93600000000001 18.96  L 35.00000000000001 18.922  C 35.660000000000004 18.504  37.19200000000001 17.88  37.90800000000001 18.284  C 38.42400000000001 18.576  38.71800000000001 19.549999999999997  38.74200000000001 20.983999999999998  L 38 20.983999999999998  L 38 33.586  C 38.72800000000001 34.762  38.10200000000001 35.848  37.08400000000001 36.437999999999995  L 22.640000000000008 44.782  C 21.620000000000008 45.367999999999995  20.366000000000007 45.367999999999995  19.348000000000006 44.782  L 4.904000000000005 36.437999999999995  C 3.886000000000005 35.84799999999999  3.260000000000005 34.76199999999999  4 33.586  L 4 16.906  C 3.260000000000005 15.73  3.886000000000005 14.643999999999998  4.904000000000005 14.056000000000001  L 17.976000000000006 6.512  C 19.218000000000007 7.938  21.304000000000006 8.276  22.934000000000005 7.311999999999999  C 24.564000000000004 6.352  25.278000000000006 4.361999999999999  24.630000000000003 2.5859999999999994  C 23.982000000000006 0.8059999999999994  22.158000000000005 -0.25600000000000067  20.292000000000005 0.05399999999999938  C 18.424000000000007 0.3659999999999994  17.046000000000006 1.963999999999999  17.010000000000005 3.856  L 3.5239999999999996 11.646  C 1.6400000000000006 12.73  0.48 14.734000000000002  1 16.906  L 1 33.581999999999994  C 0.47799999999999976 35.75399999999999  1.6340000000000003 37.757999999999996  3.5139999999999993 38.843999999999994  L 17.956 47.187999999999995  C 19.836 48.269999999999996  22.150000000000002 48.269999999999996  24.03 47.187999999999995  L 38.474000000000004 38.843999999999994  C 40.35 37.757999999999996  41.508 35.75399999999999  41 33.58599999999999  L 41 21.46199999999999  L 41.522 21.46199999999999  Z " fill-rule="evenodd" />
    </mask>
  </defs>
  <g>
    <path d="M 41.522 21.46199999999999  C 41.589999999999996 18.617999999999988  40.827999999999996 16.73599999999999  39.276 15.858  C 36.942 14.544  34.010000000000005 16.258  33.540000000000006 16.554000000000002  L 23.466000000000008 22.268  C 21.97800000000001 21.086000000000002  19.858000000000008 21.136  18.428000000000008 22.388  C 16.998000000000008 23.638  16.666000000000007 25.729999999999997  17.63800000000001 27.364000000000004  C 18.61000000000001 28.998  20.61000000000001 29.700000000000003  22.390000000000008 29.036  C 24.170000000000005 28.372000000000003  25.22200000000001 26.531999999999996  24.890000000000008 24.662000000000006  L 34.93600000000001 18.96  L 35.00000000000001 18.922  C 35.660000000000004 18.504  37.19200000000001 17.88  37.90800000000001 18.284  C 38.42400000000001 18.576  38.71800000000001 19.549999999999997  38.74200000000001 20.983999999999998  L 38 20.983999999999998  L 38 33.586  C 38.72800000000001 34.762  38.10200000000001 35.848  37.08400000000001 36.437999999999995  L 22.640000000000008 44.782  C 21.620000000000008 45.367999999999995  20.366000000000007 45.367999999999995  19.348000000000006 44.782  L 4.904000000000005 36.437999999999995  C 3.886000000000005 35.84799999999999  3.260000000000005 34.76199999999999  4 33.586  L 4 16.906  C 3.260000000000005 15.73  3.886000000000005 14.643999999999998  4.904000000000005 14.056000000000001  L 17.976000000000006 6.512  C 19.218000000000007 7.938  21.304000000000006 8.276  22.934000000000005 7.311999999999999  C 24.564000000000004 6.352  25.278000000000006 4.361999999999999  24.630000000000003 2.5859999999999994  C 23.982000000000006 0.8059999999999994  22.158000000000005 -0.25600000000000067  20.292000000000005 0.05399999999999938  C 18.424000000000007 0.3659999999999994  17.046000000000006 1.963999999999999  17.010000000000005 3.856  L 3.5239999999999996 11.646  C 1.6400000000000006 12.73  0.48 14.734000000000002  1 16.906  L 1 33.581999999999994  C 0.47799999999999976 35.75399999999999  1.6340000000000003 37.757999999999996  3.5139999999999993 38.843999999999994  L 17.956 47.187999999999995  C 19.836 48.269999999999996  22.150000000000002 48.269999999999996  24.03 47.187999999999995  L 38.474000000000004 38.843999999999994  C 40.35 37.757999999999996  41.508 35.75399999999999  41 33.58599999999999  L 41 21.46199999999999  L 41.522 21.46199999999999  Z " fill-rule="nonzero" fill="rgba(39, 174, 96, 1)" stroke="none" class="fill" />
    <path d="M 41.522 21.46199999999999  C 41.589999999999996 18.617999999999988  40.827999999999996 16.73599999999999  39.276 15.858  C 36.942 14.544  34.010000000000005 16.258  33.540000000000006 16.554000000000002  L 23.466000000000008 22.268  C 21.97800000000001 21.086000000000002  19.858000000000008 21.136  18.428000000000008 22.388  C 16.998000000000008 23.638  16.666000000000007 25.729999999999997  17.63800000000001 27.364000000000004  C 18.61000000000001 28.998  20.61000000000001 29.700000000000003  22.390000000000008 29.036  C 24.170000000000005 28.372000000000003  25.22200000000001 26.531999999999996  24.890000000000008 24.662000000000006  L 34.93600000000001 18.96  L 35.00000000000001 18.922  C 35.660000000000004 18.504  37.19200000000001 17.88  37.90800000000001 18.284  C 38.42400000000001 18.576  38.71800000000001 19.549999999999997  38.74200000000001 20.983999999999998  L 38 20.983999999999998  L 38 33.586  C 38.72800000000001 34.762  38.10200000000001 35.848  37.08400000000001 36.437999999999995  L 22.640000000000008 44.782  C 21.620000000000008 45.367999999999995  20.366000000000007 45.367999999999995  19.348000000000006 44.782  L 4.904000000000005 36.437999999999995  C 3.886000000000005 35.84799999999999  3.260000000000005 34.76199999999999  4 33.586  L 4 16.906  C 3.260000000000005 15.73  3.886000000000005 14.643999999999998  4.904000000000005 14.056000000000001  L 17.976000000000006 6.512  C 19.218000000000007 7.938  21.304000000000006 8.276  22.934000000000005 7.311999999999999  C 24.564000000000004 6.352  25.278000000000006 4.361999999999999  24.630000000000003 2.5859999999999994  C 23.982000000000006 0.8059999999999994  22.158000000000005 -0.25600000000000067  20.292000000000005 0.05399999999999938  C 18.424000000000007 0.3659999999999994  17.046000000000006 1.963999999999999  17.010000000000005 3.856  L 3.5239999999999996 11.646  C 1.6400000000000006 12.73  0.48 14.734000000000002  1 16.906  L 1 33.581999999999994  C 0.47799999999999976 35.75399999999999  1.6340000000000003 37.757999999999996  3.5139999999999993 38.843999999999994  L 17.956 47.187999999999995  C 19.836 48.269999999999996  22.150000000000002 48.269999999999996  24.03 47.187999999999995  L 38.474000000000004 38.843999999999994  C 40.35 37.757999999999996  41.508 35.75399999999999  41 33.58599999999999  L 41 21.46199999999999  L 41.522 21.46199999999999  Z " stroke-width="0" stroke-dasharray="0" stroke="rgba(255, 255, 255, 0)" fill="none" class="stroke" mask="url(#Clip6966)" />
  </g>
</svg>