<?xml version="1.0" encoding="utf-8"?>
<svg version="1.1" xmlns:xlink="http://www.w3.org/1999/xlink" width="8px" height="2px" xmlns="http://www.w3.org/2000/svg">
  <defs>
    <pattern id="BGPattern" patternUnits="userSpaceOnUse" alignment="0 0" imageRepeat="None" />
    <mask fill="white" id="Clip4845">
      <path d="M 1 1.5  C 0.5857864376269042 1.5  0.25 1.1642135623730958  0.25 0.75  C 0.25 0.3357864376269042  0.5857864376269042 0  1 0  L 7 0  C 7.414213562373096 0  7.75 0.3357864376269042  7.75 0.75  C 7.75 1.1642135623730958  7.414213562373096 1.5  7 1.5  L 1 1.5  Z " fill-rule="evenodd" />
    </mask>
  </defs>
  <g transform="matrix(1 0 0 1 -5 -9 )">
    <path d="M 1 1.5  C 0.5857864376269042 1.5  0.25 1.1642135623730958  0.25 0.75  C 0.25 0.3357864376269042  0.5857864376269042 0  1 0  L 7 0  C 7.414213562373096 0  7.75 0.3357864376269042  7.75 0.75  C 7.75 1.1642135623730958  7.414213562373096 1.5  7 1.5  L 1 1.5  Z " fill-rule="nonzero" fill="rgba(0, 0, 0, 1)" stroke="none" transform="matrix(1 0 0 1 5 9 )" class="fill" />
    <path d="M 1 1.5  C 0.5857864376269042 1.5  0.25 1.1642135623730958  0.25 0.75  C 0.25 0.3357864376269042  0.5857864376269042 0  1 0  L 7 0  C 7.414213562373096 0  7.75 0.3357864376269042  7.75 0.75  C 7.75 1.1642135623730958  7.414213562373096 1.5  7 1.5  L 1 1.5  Z " stroke-width="0" stroke-dasharray="0" stroke="rgba(255, 255, 255, 0)" fill="none" transform="matrix(1 0 0 1 5 9 )" class="stroke" mask="url(#Clip4845)" />
  </g>
</svg>