<?xml version="1.0" encoding="utf-8"?>
<svg version="1.1" xmlns:xlink="http://www.w3.org/1999/xlink" width="50px" height="50px" xmlns="http://www.w3.org/2000/svg">
  <defs>
    <pattern id="BGPattern" patternUnits="userSpaceOnUse" alignment="0 0" imageRepeat="None" />
    <mask fill="white" id="Clip965">
      <path d="M 49.98883928571428 37.48883928571428  C 50 34.631696428571445  49.02901785714283 31.99776785714289  47.399553571428555 29.888392857142833  C 47.72321428571428 28.325892857142833  47.92410714285711 26.662946428571445  47.92410714285711 25  C 47.92410714285711 12.332589285714278  37.66741071428572 2.087053571428555  25.011160714285722 2.087053571428555  C 23.348214285714278 2.087053571428555  21.696428571428555 2.2767857142857224  20.122767857142833 2.611607142857167  C 18.002232142857167 0.9709821428571672  15.368303571428555 0  12.5 0  C 5.602678571428555 0  0 5.602678571428555  0 12.5  C 0 15.368303571428555  0.9709821428571672 18.002232142857167  2.600446428571445 20.111607142857167  C 2.2767857142857224 21.674107142857167  2.075892857142833 23.337053571428555  2.075892857142833 25  C 2.075892857142833 37.66741071428572  12.332589285714278 47.912946428571445  24.988839285714278 47.912946428571445  C 26.651785714285726 47.912946428571445  28.303571428571445 47.72321428571428  29.877232142857167 47.38839285714289  C 31.997767857142833 49.01785714285717  34.631696428571445 49.98883928571428  37.48883928571428 49.98883928571428  C 44.38616071428572 49.98883928571428  49.98883928571428 44.38616071428572  49.98883928571428 37.48883928571428  Z M 38.180803571428555 30.44642857142856  C 38.180803571428555 37.04241071428572  31.808035714285722 40.100446428571445  25.680803571428555 40.100446428571445  C 18.359375 40.100446428571445  12.232142857142833 36.84151785714289  12.232142857142833 32.84598214285717  C 12.232142857142833 31.060267857142833  13.236607142857167 29.430803571428555  15.524553571428557 29.430803571428555  C 19.006696428571445 29.430803571428555  19.330357142857167 34.44196428571428  25.357142857142833 34.44196428571428  C 28.225446428571445 34.44196428571428  30.078125 33.16964285714283  30.078125 31.506696428571445  C 30.078125 29.41964285714283  28.292410714285722 29.095982142857114  25.390625 28.381696428571445  C 18.415178571428555 26.662946428571445  12.243303571428555 25.926339285714278  12.243303571428555 18.649553571428555  C 12.243303571428555 12.042410714285722  18.783482142857167 9.598214285714278  24.419642857142833 9.598214285714278  C 30.569196428571445 9.598214285714278  36.78571428571428 12.042410714285722  36.78571428571428 15.78125  C 36.78571428571428 17.667410714285722  35.51339285714289 19.330357142857167  33.40401785714289 19.330357142857167  C 30.245535714285722 19.330357142857167  30.145089285714278 15.591517857142833  25.033482142857167 15.591517857142833  C 22.165178571428555 15.591517857142833  20.345982142857167 16.372767857142833  20.345982142857167 18.102678571428555  C 20.345982142857167 20.3125  22.667410714285722 20.535714285714278  28.058035714285722 21.785714285714278  C 32.678571428571445 22.823660714285722  38.180803571428555 24.776785714285722  38.180803571428555 30.44642857142856  Z " fill-rule="evenodd" />
    </mask>
  </defs>
  <g>
    <path d="M 49.98883928571428 37.48883928571428  C 50 34.631696428571445  49.02901785714283 31.99776785714289  47.399553571428555 29.888392857142833  C 47.72321428571428 28.325892857142833  47.92410714285711 26.662946428571445  47.92410714285711 25  C 47.92410714285711 12.332589285714278  37.66741071428572 2.087053571428555  25.011160714285722 2.087053571428555  C 23.348214285714278 2.087053571428555  21.696428571428555 2.2767857142857224  20.122767857142833 2.611607142857167  C 18.002232142857167 0.9709821428571672  15.368303571428555 0  12.5 0  C 5.602678571428555 0  0 5.602678571428555  0 12.5  C 0 15.368303571428555  0.9709821428571672 18.002232142857167  2.600446428571445 20.111607142857167  C 2.2767857142857224 21.674107142857167  2.075892857142833 23.337053571428555  2.075892857142833 25  C 2.075892857142833 37.66741071428572  12.332589285714278 47.912946428571445  24.988839285714278 47.912946428571445  C 26.651785714285726 47.912946428571445  28.303571428571445 47.72321428571428  29.877232142857167 47.38839285714289  C 31.997767857142833 49.01785714285717  34.631696428571445 49.98883928571428  37.48883928571428 49.98883928571428  C 44.38616071428572 49.98883928571428  49.98883928571428 44.38616071428572  49.98883928571428 37.48883928571428  Z M 38.180803571428555 30.44642857142856  C 38.180803571428555 37.04241071428572  31.808035714285722 40.100446428571445  25.680803571428555 40.100446428571445  C 18.359375 40.100446428571445  12.232142857142833 36.84151785714289  12.232142857142833 32.84598214285717  C 12.232142857142833 31.060267857142833  13.236607142857167 29.430803571428555  15.524553571428557 29.430803571428555  C 19.006696428571445 29.430803571428555  19.330357142857167 34.44196428571428  25.357142857142833 34.44196428571428  C 28.225446428571445 34.44196428571428  30.078125 33.16964285714283  30.078125 31.506696428571445  C 30.078125 29.41964285714283  28.292410714285722 29.095982142857114  25.390625 28.381696428571445  C 18.415178571428555 26.662946428571445  12.243303571428555 25.926339285714278  12.243303571428555 18.649553571428555  C 12.243303571428555 12.042410714285722  18.783482142857167 9.598214285714278  24.419642857142833 9.598214285714278  C 30.569196428571445 9.598214285714278  36.78571428571428 12.042410714285722  36.78571428571428 15.78125  C 36.78571428571428 17.667410714285722  35.51339285714289 19.330357142857167  33.40401785714289 19.330357142857167  C 30.245535714285722 19.330357142857167  30.145089285714278 15.591517857142833  25.033482142857167 15.591517857142833  C 22.165178571428555 15.591517857142833  20.345982142857167 16.372767857142833  20.345982142857167 18.102678571428555  C 20.345982142857167 20.3125  22.667410714285722 20.535714285714278  28.058035714285722 21.785714285714278  C 32.678571428571445 22.823660714285722  38.180803571428555 24.776785714285722  38.180803571428555 30.44642857142856  Z " fill-rule="nonzero" fill="rgba(0, 0, 0, 1)" stroke="none" class="fill" />
    <path d="M 49.98883928571428 37.48883928571428  C 50 34.631696428571445  49.02901785714283 31.99776785714289  47.399553571428555 29.888392857142833  C 47.72321428571428 28.325892857142833  47.92410714285711 26.662946428571445  47.92410714285711 25  C 47.92410714285711 12.332589285714278  37.66741071428572 2.087053571428555  25.011160714285722 2.087053571428555  C 23.348214285714278 2.087053571428555  21.696428571428555 2.2767857142857224  20.122767857142833 2.611607142857167  C 18.002232142857167 0.9709821428571672  15.368303571428555 0  12.5 0  C 5.602678571428555 0  0 5.602678571428555  0 12.5  C 0 15.368303571428555  0.9709821428571672 18.002232142857167  2.600446428571445 20.111607142857167  C 2.2767857142857224 21.674107142857167  2.075892857142833 23.337053571428555  2.075892857142833 25  C 2.075892857142833 37.66741071428572  12.332589285714278 47.912946428571445  24.988839285714278 47.912946428571445  C 26.651785714285726 47.912946428571445  28.303571428571445 47.72321428571428  29.877232142857167 47.38839285714289  C 31.997767857142833 49.01785714285717  34.631696428571445 49.98883928571428  37.48883928571428 49.98883928571428  C 44.38616071428572 49.98883928571428  49.98883928571428 44.38616071428572  49.98883928571428 37.48883928571428  Z " stroke-width="0" stroke-dasharray="0" stroke="rgba(255, 255, 255, 0)" fill="none" class="stroke" mask="url(#Clip965)" />
    <path d="M 38.180803571428555 30.44642857142856  C 38.180803571428555 37.04241071428572  31.808035714285722 40.100446428571445  25.680803571428555 40.100446428571445  C 18.359375 40.100446428571445  12.232142857142833 36.84151785714289  12.232142857142833 32.84598214285717  C 12.232142857142833 31.060267857142833  13.236607142857167 29.430803571428555  15.524553571428557 29.430803571428555  C 19.006696428571445 29.430803571428555  19.330357142857167 34.44196428571428  25.357142857142833 34.44196428571428  C 28.225446428571445 34.44196428571428  30.078125 33.16964285714283  30.078125 31.506696428571445  C 30.078125 29.41964285714283  28.292410714285722 29.095982142857114  25.390625 28.381696428571445  C 18.415178571428555 26.662946428571445  12.243303571428555 25.926339285714278  12.243303571428555 18.649553571428555  C 12.243303571428555 12.042410714285722  18.783482142857167 9.598214285714278  24.419642857142833 9.598214285714278  C 30.569196428571445 9.598214285714278  36.78571428571428 12.042410714285722  36.78571428571428 15.78125  C 36.78571428571428 17.667410714285722  35.51339285714289 19.330357142857167  33.40401785714289 19.330357142857167  C 30.245535714285722 19.330357142857167  30.145089285714278 15.591517857142833  25.033482142857167 15.591517857142833  C 22.165178571428555 15.591517857142833  20.345982142857167 16.372767857142833  20.345982142857167 18.102678571428555  C 20.345982142857167 20.3125  22.667410714285722 20.535714285714278  28.058035714285722 21.785714285714278  C 32.678571428571445 22.823660714285722  38.180803571428555 24.776785714285722  38.180803571428555 30.44642857142856  Z " stroke-width="0" stroke-dasharray="0" stroke="rgba(255, 255, 255, 0)" fill="none" class="stroke" mask="url(#Clip965)" />
  </g>
</svg>