<?xml version="1.0" encoding="utf-8"?>
<svg version="1.1" xmlns:xlink="http://www.w3.org/1999/xlink" width="10px" height="10px" xmlns="http://www.w3.org/2000/svg">
  <defs>
    <pattern id="BGPattern" patternUnits="userSpaceOnUse" alignment="0 0" imageRepeat="None" />
    <mask fill="white" id="Clip3741">
      <path d="M 2.0000000000000013 5.000000000000001  C 2.0000000000000013 3.3431457505076216  3.3431457505076216 2.0000000000000013  5.000000000000001 2.0000000000000013  C 6.65685424949238 2.0000000000000013  8 3.3431457505076216  8 5.000000000000001  C 8 6.65685424949238  6.65685424949238 8  5.000000000000001 8  C 3.3431457505076216 8  2.0000000000000013 6.65685424949238  2.0000000000000013 5.000000000000001  Z M 9.999999999999996 4.999999999999999  C 9.999999999999996 2.2385762508460334  7.761423749153963 0  4.999999999999999 0  C 2.2385762508460334 0  0 2.2385762508460334  0 4.999999999999999  C 0 7.761423749153963  2.2385762508460334 9.999999999999996  4.999999999999999 9.999999999999996  C 7.761423749153963 9.999999999999996  9.999999999999996 7.761423749153963  9.999999999999996 4.999999999999999  Z " fill-rule="evenodd" />
    </mask>
  </defs>
  <g transform="matrix(1 0 0 1 -11 -11 )">
    <path d="M 2.0000000000000013 5.000000000000001  C 2.0000000000000013 3.3431457505076216  3.3431457505076216 2.0000000000000013  5.000000000000001 2.0000000000000013  C 6.65685424949238 2.0000000000000013  8 3.3431457505076216  8 5.000000000000001  C 8 6.65685424949238  6.65685424949238 8  5.000000000000001 8  C 3.3431457505076216 8  2.0000000000000013 6.65685424949238  2.0000000000000013 5.000000000000001  Z M 9.999999999999996 4.999999999999999  C 9.999999999999996 2.2385762508460334  7.761423749153963 0  4.999999999999999 0  C 2.2385762508460334 0  0 2.2385762508460334  0 4.999999999999999  C 0 7.761423749153963  2.2385762508460334 9.999999999999996  4.999999999999999 9.999999999999996  C 7.761423749153963 9.999999999999996  9.999999999999996 7.761423749153963  9.999999999999996 4.999999999999999  Z " fill-rule="nonzero" fill="rgba(0, 0, 0, 1)" stroke="none" transform="matrix(1 0 0 1 11 11 )" class="fill" />
    <path d="M 2.0000000000000013 5.000000000000001  C 2.0000000000000013 3.3431457505076216  3.3431457505076216 2.0000000000000013  5.000000000000001 2.0000000000000013  C 6.65685424949238 2.0000000000000013  8 3.3431457505076216  8 5.000000000000001  C 8 6.65685424949238  6.65685424949238 8  5.000000000000001 8  C 3.3431457505076216 8  2.0000000000000013 6.65685424949238  2.0000000000000013 5.000000000000001  Z " stroke-width="0" stroke-dasharray="0" stroke="rgba(255, 255, 255, 0)" fill="none" transform="matrix(1 0 0 1 11 11 )" class="stroke" mask="url(#Clip3741)" />
    <path d="M 9.999999999999996 4.999999999999999  C 9.999999999999996 2.2385762508460334  7.761423749153963 0  4.999999999999999 0  C 2.2385762508460334 0  0 2.2385762508460334  0 4.999999999999999  C 0 7.761423749153963  2.2385762508460334 9.999999999999996  4.999999999999999 9.999999999999996  C 7.761423749153963 9.999999999999996  9.999999999999996 7.761423749153963  9.999999999999996 4.999999999999999  Z " stroke-width="0" stroke-dasharray="0" stroke="rgba(255, 255, 255, 0)" fill="none" transform="matrix(1 0 0 1 11 11 )" class="stroke" mask="url(#Clip3741)" />
  </g>
</svg>