<?xml version="1.0" encoding="utf-8"?>
<svg version="1.1" xmlns:xlink="http://www.w3.org/1999/xlink" width="10px" height="10px" xmlns="http://www.w3.org/2000/svg">
  <defs>
    <pattern id="BGPattern" patternUnits="userSpaceOnUse" alignment="0 0" imageRepeat="None" />
    <mask fill="white" id="Clip3739">
      <path d="M 2 4.999999999999999  C 2 3.3431457505076185  3.3431457505076203 2  5 2  C 6.65685424949238 1.9999999999999993  8 3.3431457505076185  8 4.999999999999999  C 8 6.65685424949238  6.65685424949238 8  5 8  C 3.3431457505076203 8  2 6.65685424949238  2 4.999999999999999  Z M 10 4.999999999999999  C 10 2.238576250846033  7.761423749153966 0  5 0  C 2.238576250846034 0  0 2.238576250846033  0 4.999999999999999  C 0 7.761423749153966  2.238576250846034 10  5 10  C 7.761423749153966 10  10 7.761423749153966  10 4.999999999999999  Z " fill-rule="evenodd" />
    </mask>
  </defs>
  <g transform="matrix(1 0 0 1 -19 -2 )">
    <path d="M 2 4.999999999999999  C 2 3.3431457505076185  3.3431457505076203 2  5 2  C 6.65685424949238 1.9999999999999993  8 3.3431457505076185  8 4.999999999999999  C 8 6.65685424949238  6.65685424949238 8  5 8  C 3.3431457505076203 8  2 6.65685424949238  2 4.999999999999999  Z M 10 4.999999999999999  C 10 2.238576250846033  7.761423749153966 0  5 0  C 2.238576250846034 0  0 2.238576250846033  0 4.999999999999999  C 0 7.761423749153966  2.238576250846034 10  5 10  C 7.761423749153966 10  10 7.761423749153966  10 4.999999999999999  Z " fill-rule="nonzero" fill="rgba(0, 0, 0, 1)" stroke="none" transform="matrix(1 0 0 1 19 2 )" class="fill" />
    <path d="M 2 4.999999999999999  C 2 3.3431457505076185  3.3431457505076203 2  5 2  C 6.65685424949238 1.9999999999999993  8 3.3431457505076185  8 4.999999999999999  C 8 6.65685424949238  6.65685424949238 8  5 8  C 3.3431457505076203 8  2 6.65685424949238  2 4.999999999999999  Z " stroke-width="0" stroke-dasharray="0" stroke="rgba(255, 255, 255, 0)" fill="none" transform="matrix(1 0 0 1 19 2 )" class="stroke" mask="url(#Clip3739)" />
    <path d="M 10 4.999999999999999  C 10 2.238576250846033  7.761423749153966 0  5 0  C 2.238576250846034 0  0 2.238576250846033  0 4.999999999999999  C 0 7.761423749153966  2.238576250846034 10  5 10  C 7.761423749153966 10  10 7.761423749153966  10 4.999999999999999  Z " stroke-width="0" stroke-dasharray="0" stroke="rgba(255, 255, 255, 0)" fill="none" transform="matrix(1 0 0 1 19 2 )" class="stroke" mask="url(#Clip3739)" />
  </g>
</svg>