<?xml version="1.0" encoding="utf-8"?>
<svg version="1.1" xmlns:xlink="http://www.w3.org/1999/xlink" width="7px" height="9px" xmlns="http://www.w3.org/2000/svg">
  <defs>
    <pattern id="BGPattern" patternUnits="userSpaceOnUse" alignment="0 0" imageRepeat="None" />
    <mask fill="white" id="Clip3738">
      <path d="M 7 5  C 6.996803843515998 2.239901226237464  4.7600987737625395 0.0031961564839981804  2 0  L 0 0  L 0 2  L 2 1.9999999999999982  C 3.6561003296815393 2.001818711136437  4.998181288863563 3.3438996703184607  5 5  L 5 9  L 7 9  L 7 5  Z " fill-rule="evenodd" />
    </mask>
  </defs>
  <g transform="matrix(1 0 0 1 -24 -14 )">
    <path d="M 7 5  C 6.996803843515998 2.239901226237464  4.7600987737625395 0.0031961564839981804  2 0  L 0 0  L 0 2  L 2 1.9999999999999982  C 3.6561003296815393 2.001818711136437  4.998181288863563 3.3438996703184607  5 5  L 5 9  L 7 9  L 7 5  Z " fill-rule="nonzero" fill="rgba(0, 0, 0, 1)" stroke="none" transform="matrix(1 0 0 1 24 14 )" class="fill" />
    <path d="M 7 5  C 6.996803843515998 2.239901226237464  4.7600987737625395 0.0031961564839981804  2 0  L 0 0  L 0 2  L 2 1.9999999999999982  C 3.6561003296815393 2.001818711136437  4.998181288863563 3.3438996703184607  5 5  L 5 9  L 7 9  L 7 5  Z " stroke-width="0" stroke-dasharray="0" stroke="rgba(255, 255, 255, 0)" fill="none" transform="matrix(1 0 0 1 24 14 )" class="stroke" mask="url(#Clip3738)" />
  </g>
</svg>