<?xml version="1.0" encoding="utf-8"?>
<svg version="1.1" xmlns:xlink="http://www.w3.org/1999/xlink" width="7px" height="9px" xmlns="http://www.w3.org/2000/svg">
  <defs>
    <pattern id="BGPattern" patternUnits="userSpaceOnUse" alignment="0 0" imageRepeat="None" />
    <mask fill="white" id="Clip3742">
      <path d="M 7 2.0000000000000013  L 7 0  L 5 0  C 2.239924038163484 0.0032511385076467994  0.003251138507644802 2.2399240381634846  0 5.000000000000001  L 0 9  L 2 9  L 2 4.999999999999997  C 2.0018187111364347 3.343899670318462  3.3438996703184625 2.0018187111364347  5 2.0000000000000013  L 7 2.0000000000000013  Z " fill-rule="evenodd" />
    </mask>
  </defs>
  <g transform="matrix(1 0 0 1 -1 -14 )">
    <path d="M 7 2.0000000000000013  L 7 0  L 5 0  C 2.239924038163484 0.0032511385076467994  0.003251138507644802 2.2399240381634846  0 5.000000000000001  L 0 9  L 2 9  L 2 4.999999999999997  C 2.0018187111364347 3.343899670318462  3.3438996703184625 2.0018187111364347  5 2.0000000000000013  L 7 2.0000000000000013  Z " fill-rule="nonzero" fill="rgba(0, 0, 0, 1)" stroke="none" transform="matrix(1 0 0 1 1 14 )" class="fill" />
    <path d="M 7 2.0000000000000013  L 7 0  L 5 0  C 2.239924038163484 0.0032511385076467994  0.003251138507644802 2.2399240381634846  0 5.000000000000001  L 0 9  L 2 9  L 2 4.999999999999997  C 2.0018187111364347 3.343899670318462  3.3438996703184625 2.0018187111364347  5 2.0000000000000013  L 7 2.0000000000000013  Z " stroke-width="0" stroke-dasharray="0" stroke="rgba(255, 255, 255, 0)" fill="none" transform="matrix(1 0 0 1 1 14 )" class="stroke" mask="url(#Clip3742)" />
  </g>
</svg>