<?xml version="1.0" encoding="utf-8"?>
<svg version="1.1" xmlns:xlink="http://www.w3.org/1999/xlink" width="50px" height="50px" xmlns="http://www.w3.org/2000/svg">
  <defs>
    <pattern id="BGPattern" patternUnits="userSpaceOnUse" alignment="0 0" imageRepeat="None" />
    <mask fill="white" id="Clip2165">
      <path d="M 50 12.5  C 50 9.0537109375  47.1962890625 6.25  43.75 6.25  L 41.212890625 6.25  C 42.81640625 9.01171875  43.75 12.2080078125  43.75 15.625  C 43.75 25.9638671875  35.3388671875 34.375  25 34.375  C 14.6611328125 34.375  6.25 25.9638671875  6.25 15.625  C 6.25 12.2080078125  7.18359375 9.01171875  8.787109375 6.25  L 6.25 6.25  C 2.8037109375 6.25  0 9.0537109375  0 12.5  L 0 43.75  C 0 47.1962890625  2.8037109375 50  6.25 50  L 43.75 50  C 47.1962890625 50  50 47.1962890625  50 43.75  L 50 12.5  Z M 9.375 15.625  C 9.375 24.2548828125  16.3701171875 31.25  25 31.25  C 33.6298828125 31.25  40.625 24.2548828125  40.625 15.625  C 40.625 6.9951171875  33.6298828125 0  25 0  C 16.3701171875 0  9.375 6.9951171875  9.375 15.625  Z M 21.09375 20.3125  C 21.09375 18.166015625  22.828125 16.4287109375  24.970703125 16.412109375  L 28.249999999999996 8.759765625  C 28.591796874999996 7.9619140625  29.513671875000004 7.595703125  30.3037109375 7.938476562500001  C 31.0966796875 8.2783203125  31.4638671875 9.197265625  31.125000000000004 9.9892578125  L 27.8369140625 17.66015625  C 28.4892578125 18.359375  28.90625 19.2822265625  28.90625 20.3125  C 28.90625 22.4697265625  27.157226562499996 24.21875  25 24.21875  C 22.8427734375 24.21875  21.09375 22.4697265625  21.09375 20.3125  Z " fill-rule="evenodd" />
    </mask>
  </defs>
  <g>
    <path d="M 50 12.5  C 50 9.0537109375  47.1962890625 6.25  43.75 6.25  L 41.212890625 6.25  C 42.81640625 9.01171875  43.75 12.2080078125  43.75 15.625  C 43.75 25.9638671875  35.3388671875 34.375  25 34.375  C 14.6611328125 34.375  6.25 25.9638671875  6.25 15.625  C 6.25 12.2080078125  7.18359375 9.01171875  8.787109375 6.25  L 6.25 6.25  C 2.8037109375 6.25  0 9.0537109375  0 12.5  L 0 43.75  C 0 47.1962890625  2.8037109375 50  6.25 50  L 43.75 50  C 47.1962890625 50  50 47.1962890625  50 43.75  L 50 12.5  Z M 9.375 15.625  C 9.375 24.2548828125  16.3701171875 31.25  25 31.25  C 33.6298828125 31.25  40.625 24.2548828125  40.625 15.625  C 40.625 6.9951171875  33.6298828125 0  25 0  C 16.3701171875 0  9.375 6.9951171875  9.375 15.625  Z M 21.09375 20.3125  C 21.09375 18.166015625  22.828125 16.4287109375  24.970703125 16.412109375  L 28.249999999999996 8.759765625  C 28.591796874999996 7.9619140625  29.513671875000004 7.595703125  30.3037109375 7.938476562500001  C 31.0966796875 8.2783203125  31.4638671875 9.197265625  31.125000000000004 9.9892578125  L 27.8369140625 17.66015625  C 28.4892578125 18.359375  28.90625 19.2822265625  28.90625 20.3125  C 28.90625 22.4697265625  27.157226562499996 24.21875  25 24.21875  C 22.8427734375 24.21875  21.09375 22.4697265625  21.09375 20.3125  Z " fill-rule="nonzero" fill="rgba(0, 0, 0, 1)" stroke="none" class="fill" />
    <path d="M 50 12.5  C 50 9.0537109375  47.1962890625 6.25  43.75 6.25  L 41.212890625 6.25  C 42.81640625 9.01171875  43.75 12.2080078125  43.75 15.625  C 43.75 25.9638671875  35.3388671875 34.375  25 34.375  C 14.6611328125 34.375  6.25 25.9638671875  6.25 15.625  C 6.25 12.2080078125  7.18359375 9.01171875  8.787109375 6.25  L 6.25 6.25  C 2.8037109375 6.25  0 9.0537109375  0 12.5  L 0 43.75  C 0 47.1962890625  2.8037109375 50  6.25 50  L 43.75 50  C 47.1962890625 50  50 47.1962890625  50 43.75  L 50 12.5  Z " stroke-width="0" stroke-dasharray="0" stroke="rgba(255, 255, 255, 0)" fill="none" class="stroke" mask="url(#Clip2165)" />
    <path d="M 9.375 15.625  C 9.375 24.2548828125  16.3701171875 31.25  25 31.25  C 33.6298828125 31.25  40.625 24.2548828125  40.625 15.625  C 40.625 6.9951171875  33.6298828125 0  25 0  C 16.3701171875 0  9.375 6.9951171875  9.375 15.625  Z " stroke-width="0" stroke-dasharray="0" stroke="rgba(255, 255, 255, 0)" fill="none" class="stroke" mask="url(#Clip2165)" />
    <path d="M 21.09375 20.3125  C 21.09375 18.166015625  22.828125 16.4287109375  24.970703125 16.412109375  L 28.249999999999996 8.759765625  C 28.591796874999996 7.9619140625  29.513671875000004 7.595703125  30.3037109375 7.938476562500001  C 31.0966796875 8.2783203125  31.4638671875 9.197265625  31.125000000000004 9.9892578125  L 27.8369140625 17.66015625  C 28.4892578125 18.359375  28.90625 19.2822265625  28.90625 20.3125  C 28.90625 22.4697265625  27.157226562499996 24.21875  25 24.21875  C 22.8427734375 24.21875  21.09375 22.4697265625  21.09375 20.3125  Z " stroke-width="0" stroke-dasharray="0" stroke="rgba(255, 255, 255, 0)" fill="none" class="stroke" mask="url(#Clip2165)" />
  </g>
</svg>