<?xml version="1.0" encoding="utf-8"?>
<svg version="1.1" xmlns:xlink="http://www.w3.org/1999/xlink" width="18px" height="24px" xmlns="http://www.w3.org/2000/svg">
  <defs>
    <pattern id="BGPattern" patternUnits="userSpaceOnUse" alignment="0 0" imageRepeat="None" />
    <mask fill="white" id="Clip5493">
      <path d="M 0 21  L 0 3  C 0 1.3431457505076196  1.3431457505076194 0  3 0  L 10.939499999999999 0  C 11.33729222021822 8.495610824209971E-05  11.718760902963812 0.15817593778357192  12 0.4395  L 17.5605 6  C 17.84182406221643 6.281239097036188  17.999915043891757 6.662707779781778  18 7.060499999999999  L 18 21  C 18 22.65685424949238  16.65685424949238 24  15 24  L 3 24  C 1.3431457505076194 24  0 22.65685424949238  0 21  Z M 11.25 2.25  L 10.5 6  C 10.5 6.82842712474619  11.17157287525381 7.5  12 7.5  L 15.75 6.75  L 11.25 2.25  Z M 6.75 9.201  L 6.75 8.25  C 6.75 7.835786437626905  6.414213562373096 7.5  6 7.5  C 5.585786437626904 7.5  5.25 7.835786437626905  5.25 8.25  L 5.25 9.201  L 4.426499999999999 8.7255  C 4.311467076523459 8.658062424036444  4.180534776423469 8.622512476681102  4.047191609611668 8.622512476681102  C 3.6329780472385718 8.622512476681102  3.2971916096116676 8.958298914308006  3.2971916096116676 9.372512476681102  C 3.2971916096116676 9.64223644120299  3.4420244538554936 9.891187452587388  3.676499999999999 10.0245  L 4.5 10.5  L 3.676499999999999 10.9755  C 3.442024453855492 11.108812547412612  3.2971916096116676 11.35776355879701  3.2971916096116676 11.627487523318898  C 3.2971916096116676 12.041701085691994  3.6329780472385718 12.377487523318898  4.047191609611668 12.377487523318898  C 4.180534776423469 12.377487523318898  4.311467076523459 12.341937575963556  4.426499999999999 12.2745  L 5.25 11.799  L 5.25 12.75  C 5.25 13.164213562373096  5.585786437626904 13.5  6 13.5  C 6.414213562373096 13.5  6.75 13.164213562373096  6.75 12.75  L 6.75 11.799  L 7.573500000000001 12.2745  C 7.68853292347654 12.341937575963556  7.819465223576531 12.377487523318898  7.952808390388332 12.377487523318898  C 8.367021952761428 12.377487523318898  8.702808390388332 12.041701085691994  8.702808390388332 11.627487523318898  C 8.702808390388332 11.35776355879701  8.557975546144506 11.108812547412612  8.323500000000001 10.9755  L 7.5 10.5  L 8.323500000000001 10.0245  C 8.557975546144508 9.891187452587388  8.702808390388332 9.64223644120299  8.702808390388332 9.372512476681102  C 8.702808390388332 8.958298914308006  8.367021952761428 8.622512476681102  7.952808390388332 8.622512476681102  C 7.819465223576531 8.622512476681102  7.68853292347654 8.658062424036443  7.573500000000001 8.7255  L 6.75 9.201  Z M 11.25 15  L 3.75 15  C 3.335786437626905 15  3 15.335786437626904  3 15.75  C 3 16.164213562373096  3.335786437626905 16.5  3.75 16.5  L 11.25 16.5  C 11.664213562373096 16.5  12 16.164213562373096  12 15.75  C 12 15.335786437626904  11.664213562373096 15  11.25 15  Z M 11.25 18  L 3.75 18  C 3.335786437626905 18  3 18.335786437626904  3 18.75  C 3 19.164213562373096  3.335786437626905 19.5  3.75 19.5  L 11.25 19.5  C 11.664213562373096 19.5  12 19.164213562373096  12 18.75  C 12 18.335786437626904  11.664213562373096 18  11.25 18  Z " fill-rule="evenodd" />
    </mask>
  </defs>
  <g>
    <path d="M 0 21  L 0 3  C 0 1.3431457505076196  1.3431457505076194 0  3 0  L 10.939499999999999 0  C 11.33729222021822 8.495610824209971E-05  11.718760902963812 0.15817593778357192  12 0.4395  L 17.5605 6  C 17.84182406221643 6.281239097036188  17.999915043891757 6.662707779781778  18 7.060499999999999  L 18 21  C 18 22.65685424949238  16.65685424949238 24  15 24  L 3 24  C 1.3431457505076194 24  0 22.65685424949238  0 21  Z M 11.25 2.25  L 10.5 6  C 10.5 6.82842712474619  11.17157287525381 7.5  12 7.5  L 15.75 6.75  L 11.25 2.25  Z M 6.75 9.201  L 6.75 8.25  C 6.75 7.835786437626905  6.414213562373096 7.5  6 7.5  C 5.585786437626904 7.5  5.25 7.835786437626905  5.25 8.25  L 5.25 9.201  L 4.426499999999999 8.7255  C 4.311467076523459 8.658062424036444  4.180534776423469 8.622512476681102  4.047191609611668 8.622512476681102  C 3.6329780472385718 8.622512476681102  3.2971916096116676 8.958298914308006  3.2971916096116676 9.372512476681102  C 3.2971916096116676 9.64223644120299  3.4420244538554936 9.891187452587388  3.676499999999999 10.0245  L 4.5 10.5  L 3.676499999999999 10.9755  C 3.442024453855492 11.108812547412612  3.2971916096116676 11.35776355879701  3.2971916096116676 11.627487523318898  C 3.2971916096116676 12.041701085691994  3.6329780472385718 12.377487523318898  4.047191609611668 12.377487523318898  C 4.180534776423469 12.377487523318898  4.311467076523459 12.341937575963556  4.426499999999999 12.2745  L 5.25 11.799  L 5.25 12.75  C 5.25 13.164213562373096  5.585786437626904 13.5  6 13.5  C 6.414213562373096 13.5  6.75 13.164213562373096  6.75 12.75  L 6.75 11.799  L 7.573500000000001 12.2745  C 7.68853292347654 12.341937575963556  7.819465223576531 12.377487523318898  7.952808390388332 12.377487523318898  C 8.367021952761428 12.377487523318898  8.702808390388332 12.041701085691994  8.702808390388332 11.627487523318898  C 8.702808390388332 11.35776355879701  8.557975546144506 11.108812547412612  8.323500000000001 10.9755  L 7.5 10.5  L 8.323500000000001 10.0245  C 8.557975546144508 9.891187452587388  8.702808390388332 9.64223644120299  8.702808390388332 9.372512476681102  C 8.702808390388332 8.958298914308006  8.367021952761428 8.622512476681102  7.952808390388332 8.622512476681102  C 7.819465223576531 8.622512476681102  7.68853292347654 8.658062424036443  7.573500000000001 8.7255  L 6.75 9.201  Z M 11.25 15  L 3.75 15  C 3.335786437626905 15  3 15.335786437626904  3 15.75  C 3 16.164213562373096  3.335786437626905 16.5  3.75 16.5  L 11.25 16.5  C 11.664213562373096 16.5  12 16.164213562373096  12 15.75  C 12 15.335786437626904  11.664213562373096 15  11.25 15  Z M 11.25 18  L 3.75 18  C 3.335786437626905 18  3 18.335786437626904  3 18.75  C 3 19.164213562373096  3.335786437626905 19.5  3.75 19.5  L 11.25 19.5  C 11.664213562373096 19.5  12 19.164213562373096  12 18.75  C 12 18.335786437626904  11.664213562373096 18  11.25 18  Z " fill-rule="nonzero" fill="rgba(0, 0, 0, 1)" stroke="none" class="fill" />
    <path d="M 0 21  L 0 3  C 0 1.3431457505076196  1.3431457505076194 0  3 0  L 10.939499999999999 0  C 11.33729222021822 8.495610824209971E-05  11.718760902963812 0.15817593778357192  12 0.4395  L 17.5605 6  C 17.84182406221643 6.281239097036188  17.999915043891757 6.662707779781778  18 7.060499999999999  L 18 21  C 18 22.65685424949238  16.65685424949238 24  15 24  L 3 24  C 1.3431457505076194 24  0 22.65685424949238  0 21  Z " stroke-width="0" stroke-dasharray="0" stroke="rgba(255, 255, 255, 0)" fill="none" class="stroke" mask="url(#Clip5493)" />
    <path d="M 11.25 2.25  L 10.5 6  C 10.5 6.82842712474619  11.17157287525381 7.5  12 7.5  L 15.75 6.75  L 11.25 2.25  Z " stroke-width="0" stroke-dasharray="0" stroke="rgba(255, 255, 255, 0)" fill="none" class="stroke" mask="url(#Clip5493)" />
    <path d="M 6.75 9.201  L 6.75 8.25  C 6.75 7.835786437626905  6.414213562373096 7.5  6 7.5  C 5.585786437626904 7.5  5.25 7.835786437626905  5.25 8.25  L 5.25 9.201  L 4.426499999999999 8.7255  C 4.311467076523459 8.658062424036444  4.180534776423469 8.622512476681102  4.047191609611668 8.622512476681102  C 3.6329780472385718 8.622512476681102  3.2971916096116676 8.958298914308006  3.2971916096116676 9.372512476681102  C 3.2971916096116676 9.64223644120299  3.4420244538554936 9.891187452587388  3.676499999999999 10.0245  L 4.5 10.5  L 3.676499999999999 10.9755  C 3.442024453855492 11.108812547412612  3.2971916096116676 11.35776355879701  3.2971916096116676 11.627487523318898  C 3.2971916096116676 12.041701085691994  3.6329780472385718 12.377487523318898  4.047191609611668 12.377487523318898  C 4.180534776423469 12.377487523318898  4.311467076523459 12.341937575963556  4.426499999999999 12.2745  L 5.25 11.799  L 5.25 12.75  C 5.25 13.164213562373096  5.585786437626904 13.5  6 13.5  C 6.414213562373096 13.5  6.75 13.164213562373096  6.75 12.75  L 6.75 11.799  L 7.573500000000001 12.2745  C 7.68853292347654 12.341937575963556  7.819465223576531 12.377487523318898  7.952808390388332 12.377487523318898  C 8.367021952761428 12.377487523318898  8.702808390388332 12.041701085691994  8.702808390388332 11.627487523318898  C 8.702808390388332 11.35776355879701  8.557975546144506 11.108812547412612  8.323500000000001 10.9755  L 7.5 10.5  L 8.323500000000001 10.0245  C 8.557975546144508 9.891187452587388  8.702808390388332 9.64223644120299  8.702808390388332 9.372512476681102  C 8.702808390388332 8.958298914308006  8.367021952761428 8.622512476681102  7.952808390388332 8.622512476681102  C 7.819465223576531 8.622512476681102  7.68853292347654 8.658062424036443  7.573500000000001 8.7255  L 6.75 9.201  Z " stroke-width="0" stroke-dasharray="0" stroke="rgba(255, 255, 255, 0)" fill="none" class="stroke" mask="url(#Clip5493)" />
    <path d="M 11.25 15  L 3.75 15  C 3.335786437626905 15  3 15.335786437626904  3 15.75  C 3 16.164213562373096  3.335786437626905 16.5  3.75 16.5  L 11.25 16.5  C 11.664213562373096 16.5  12 16.164213562373096  12 15.75  C 12 15.335786437626904  11.664213562373096 15  11.25 15  Z " stroke-width="0" stroke-dasharray="0" stroke="rgba(255, 255, 255, 0)" fill="none" class="stroke" mask="url(#Clip5493)" />
    <path d="M 11.25 18  L 3.75 18  C 3.335786437626905 18  3 18.335786437626904  3 18.75  C 3 19.164213562373096  3.335786437626905 19.5  3.75 19.5  L 11.25 19.5  C 11.664213562373096 19.5  12 19.164213562373096  12 18.75  C 12 18.335786437626904  11.664213562373096 18  11.25 18  Z " stroke-width="0" stroke-dasharray="0" stroke="rgba(255, 255, 255, 0)" fill="none" class="stroke" mask="url(#Clip5493)" />
  </g>
</svg>