<?xml version="1.0" encoding="utf-8"?>
<svg version="1.1" xmlns:xlink="http://www.w3.org/1999/xlink" width="44px" height="48px" xmlns="http://www.w3.org/2000/svg">
  <defs>
    <pattern id="BGPattern" patternUnits="userSpaceOnUse" alignment="0 0" imageRepeat="None" />
    <mask fill="white" id="Clip6809">
      <path d="M 43.988 1.272  L 31.722 0  L 29.467999999999996 21.168  L 25.619999999999994 3.3200000000000003  L 13.553999999999998 5.852  L 17.4 23.696  L 0.011999999999998236 27.34  L 3.0819999999999985 41.6  L 33.664 48  L 40.664 32.512  L 43.988 1.272  Z M 20.772 27.214  L 20.78 27.22  C 21.00175571778864 27.216170694918787  21.22163244026899 27.261238594557618  21.424 27.351999999999997  C 21.839999999999996 27.538000000000004  22.543999999999993 27.932  22.683999999999997 28.536  C 22.920542778104718 29.318496147165867  22.676329695345913 30.166980062904795  22.060000000000002 30.704  C 21.380986255318746 31.21199250141583  20.47544088358329 31.299153171778784  19.712000000000003 30.93  C 18.83 30.64  18.438000000000002 29.586  18.772 28.311999999999998  C 19.020000000000003 27.366  20.192 27.224000000000004  20.772 27.214  Z M 27.756 29.147999999999996  C 28.059141372820974 28.702705359506787  28.532192152522292 28.401804557739588  29.064 28.316  C 29.910059421648697 28.266109643501302  30.71570056697466 28.68274120722701  31.164 29.402  C 31.527627288994097 30.14776718334076  31.43284330354719 31.035784358470295  30.92 31.688000000000002  C 30.462000000000007 32.472  29.259999999999998 32.577999999999996  28.076000000000004 32.007999999999996  C 27.275999999999996 31.621999999999993  27.275999999999996 30.64  27.370000000000005 30.041999999999994  C 27.41623769966896 29.71479660262115  27.54955293585386 29.40603022658668  27.756 29.147999999999996  Z " fill-rule="evenodd" />
    </mask>
  </defs>
  <g>
    <path d="M 43.988 1.272  L 31.722 0  L 29.467999999999996 21.168  L 25.619999999999994 3.3200000000000003  L 13.553999999999998 5.852  L 17.4 23.696  L 0.011999999999998236 27.34  L 3.0819999999999985 41.6  L 33.664 48  L 40.664 32.512  L 43.988 1.272  Z M 20.772 27.214  L 20.78 27.22  C 21.00175571778864 27.216170694918787  21.22163244026899 27.261238594557618  21.424 27.351999999999997  C 21.839999999999996 27.538000000000004  22.543999999999993 27.932  22.683999999999997 28.536  C 22.920542778104718 29.318496147165867  22.676329695345913 30.166980062904795  22.060000000000002 30.704  C 21.380986255318746 31.21199250141583  20.47544088358329 31.299153171778784  19.712000000000003 30.93  C 18.83 30.64  18.438000000000002 29.586  18.772 28.311999999999998  C 19.020000000000003 27.366  20.192 27.224000000000004  20.772 27.214  Z M 27.756 29.147999999999996  C 28.059141372820974 28.702705359506787  28.532192152522292 28.401804557739588  29.064 28.316  C 29.910059421648697 28.266109643501302  30.71570056697466 28.68274120722701  31.164 29.402  C 31.527627288994097 30.14776718334076  31.43284330354719 31.035784358470295  30.92 31.688000000000002  C 30.462000000000007 32.472  29.259999999999998 32.577999999999996  28.076000000000004 32.007999999999996  C 27.275999999999996 31.621999999999993  27.275999999999996 30.64  27.370000000000005 30.041999999999994  C 27.41623769966896 29.71479660262115  27.54955293585386 29.40603022658668  27.756 29.147999999999996  Z " fill-rule="nonzero" fill="rgba(0, 204, 188, 1)" stroke="none" class="fill" />
    <path d="M 43.988 1.272  L 31.722 0  L 29.467999999999996 21.168  L 25.619999999999994 3.3200000000000003  L 13.553999999999998 5.852  L 17.4 23.696  L 0.011999999999998236 27.34  L 3.0819999999999985 41.6  L 33.664 48  L 40.664 32.512  L 43.988 1.272  Z " stroke-width="0" stroke-dasharray="0" stroke="rgba(255, 255, 255, 0)" fill="none" class="stroke" mask="url(#Clip6809)" />
    <path d="M 20.772 27.214  L 20.78 27.22  C 21.00175571778864 27.216170694918787  21.22163244026899 27.261238594557618  21.424 27.351999999999997  C 21.839999999999996 27.538000000000004  22.543999999999993 27.932  22.683999999999997 28.536  C 22.920542778104718 29.318496147165867  22.676329695345913 30.166980062904795  22.060000000000002 30.704  C 21.380986255318746 31.21199250141583  20.47544088358329 31.299153171778784  19.712000000000003 30.93  C 18.83 30.64  18.438000000000002 29.586  18.772 28.311999999999998  C 19.020000000000003 27.366  20.192 27.224000000000004  20.772 27.214  Z " stroke-width="0" stroke-dasharray="0" stroke="rgba(255, 255, 255, 0)" fill="none" class="stroke" mask="url(#Clip6809)" />
    <path d="M 27.756 29.147999999999996  C 28.059141372820974 28.702705359506787  28.532192152522292 28.401804557739588  29.064 28.316  C 29.910059421648697 28.266109643501302  30.71570056697466 28.68274120722701  31.164 29.402  C 31.527627288994097 30.14776718334076  31.43284330354719 31.035784358470295  30.92 31.688000000000002  C 30.462000000000007 32.472  29.259999999999998 32.577999999999996  28.076000000000004 32.007999999999996  C 27.275999999999996 31.621999999999993  27.275999999999996 30.64  27.370000000000005 30.041999999999994  C 27.41623769966896 29.71479660262115  27.54955293585386 29.40603022658668  27.756 29.147999999999996  Z " stroke-width="0" stroke-dasharray="0" stroke="rgba(255, 255, 255, 0)" fill="none" class="stroke" mask="url(#Clip6809)" />
  </g>
</svg>