<?xml version="1.0" encoding="utf-8"?>
<svg version="1.1" xmlns:xlink="http://www.w3.org/1999/xlink" width="50px" height="50px" xmlns="http://www.w3.org/2000/svg">
  <defs>
    <pattern id="BGPattern" patternUnits="userSpaceOnUse" alignment="0 0" imageRepeat="None" />
    <mask fill="white" id="Clip754">
      <path d="M 15.312500000000002 37.92410714285717  C 5.245535714285722 29.944196428571445  5.803571428571416 20.390625  0 0  C 53.30357142857145 0  40.915178571428584 35.412946428571445  40.97098214285714 40.881696428571445  L 50 50  L 47.09821428571428 50  L 39.241071428571445 42.053571428571445  C 34.88839285714286 42.522321428571445  25.35714285714286 45.90401785714289  15.312500000000002 37.92410714285717  Z M 24.988839285714278 22.77901785714289  C 21.45089285714286 16.082589285714278  18.180803571428555 9.542410714285722  8.895089285714278 5.133928571428555  C 3.348214285714277 2.5111607142857224  8.314732142857139 6.160714285714278  8.314732142857139 6.160714285714278  C 13.359375000000002 9.642857142857167  15.680803571428584 14.386160714285722  18.381696428571416 19.542410714285722  C 21.897321428571416 26.261160714285726  27.198660714285722 35.133928571428555  34.475446428571416 38.258928571428555  C 41.72991071428572 41.383928571428555  38.29241071428572 39.65401785714289  35.14508928571428 37.31026785714289  C 31.99776785714286 34.944196428571445  27.533482142857142 27.600446428571445  24.988839285714278 22.77901785714289  Z " fill-rule="evenodd" />
    </mask>
  </defs>
  <g>
    <path d="M 15.312500000000002 37.92410714285717  C 5.245535714285722 29.944196428571445  5.803571428571416 20.390625  0 0  C 53.30357142857145 0  40.915178571428584 35.412946428571445  40.97098214285714 40.881696428571445  L 50 50  L 47.09821428571428 50  L 39.241071428571445 42.053571428571445  C 34.88839285714286 42.522321428571445  25.35714285714286 45.90401785714289  15.312500000000002 37.92410714285717  Z M 24.988839285714278 22.77901785714289  C 21.45089285714286 16.082589285714278  18.180803571428555 9.542410714285722  8.895089285714278 5.133928571428555  C 3.348214285714277 2.5111607142857224  8.314732142857139 6.160714285714278  8.314732142857139 6.160714285714278  C 13.359375000000002 9.642857142857167  15.680803571428584 14.386160714285722  18.381696428571416 19.542410714285722  C 21.897321428571416 26.261160714285726  27.198660714285722 35.133928571428555  34.475446428571416 38.258928571428555  C 41.72991071428572 41.383928571428555  38.29241071428572 39.65401785714289  35.14508928571428 37.31026785714289  C 31.99776785714286 34.944196428571445  27.533482142857142 27.600446428571445  24.988839285714278 22.77901785714289  Z " fill-rule="nonzero" fill="rgba(0, 0, 0, 1)" stroke="none" class="fill" />
    <path d="M 15.312500000000002 37.92410714285717  C 5.245535714285722 29.944196428571445  5.803571428571416 20.390625  0 0  C 53.30357142857145 0  40.915178571428584 35.412946428571445  40.97098214285714 40.881696428571445  L 50 50  L 47.09821428571428 50  L 39.241071428571445 42.053571428571445  C 34.88839285714286 42.522321428571445  25.35714285714286 45.90401785714289  15.312500000000002 37.92410714285717  Z " stroke-width="0" stroke-dasharray="0" stroke="rgba(255, 255, 255, 0)" fill="none" class="stroke" mask="url(#Clip754)" />
    <path d="M 24.988839285714278 22.77901785714289  C 21.45089285714286 16.082589285714278  18.180803571428555 9.542410714285722  8.895089285714278 5.133928571428555  C 3.348214285714277 2.5111607142857224  8.314732142857139 6.160714285714278  8.314732142857139 6.160714285714278  C 13.359375000000002 9.642857142857167  15.680803571428584 14.386160714285722  18.381696428571416 19.542410714285722  C 21.897321428571416 26.261160714285726  27.198660714285722 35.133928571428555  34.475446428571416 38.258928571428555  C 41.72991071428572 41.383928571428555  38.29241071428572 39.65401785714289  35.14508928571428 37.31026785714289  C 31.99776785714286 34.944196428571445  27.533482142857142 27.600446428571445  24.988839285714278 22.77901785714289  Z " stroke-width="0" stroke-dasharray="0" stroke="rgba(255, 255, 255, 0)" fill="none" class="stroke" mask="url(#Clip754)" />
  </g>
</svg>