<?xml version="1.0" encoding="utf-8"?>
<svg version="1.1" xmlns:xlink="http://www.w3.org/1999/xlink" width="22px" height="14px" xmlns="http://www.w3.org/2000/svg">
  <defs>
    <pattern id="BGPattern" patternUnits="userSpaceOnUse" alignment="0 0" imageRepeat="None" />
    <mask fill="white" id="Clip5218">
      <path d="M 18.25 6.49999940416594  L 18.209500000000002 6.499999404165936  C 17.83011372843156 3.0811676764507645  14.940498420085543 0.4944746580155321  11.50068062427649 0.4944746580155321  C 8.632158033671887 0.4944746580155321  6.076951637291743 2.307462670029062  5.1295 5.0149995402911065  C 2.7943653195409284 5.2061324382744925  0.9966014689200469 7.157056802235172  0.9966014689200469 9.500000412500503  C 0.9966014689200469 11.985281558921333  3.0113200946814764 14  5.496601468920047 14  C 5.497734312735889 14  5.498867156507229 13.999999572221672  5.5 14  L 18.25 14  C 20.321067811865472 13.999998716665099  21.999999999999996 12.321066682432878  21.999999999999996 10.249999060415517  C 21.999999999999996 8.178931438398159  20.321067811865472 6.499999404165936  18.25 6.499999404165936  Z " fill-rule="evenodd" />
    </mask>
  </defs>
  <g transform="matrix(1 0 0 1 0 -9 )">
    <path d="M 18.25 6.49999940416594  L 18.209500000000002 6.499999404165936  C 17.83011372843156 3.0811676764507645  14.940498420085543 0.4944746580155321  11.50068062427649 0.4944746580155321  C 8.632158033671887 0.4944746580155321  6.076951637291743 2.307462670029062  5.1295 5.0149995402911065  C 2.7943653195409284 5.2061324382744925  0.9966014689200469 7.157056802235172  0.9966014689200469 9.500000412500503  C 0.9966014689200469 11.985281558921333  3.0113200946814764 14  5.496601468920047 14  C 5.497734312735889 14  5.498867156507229 13.999999572221672  5.5 14  L 18.25 14  C 20.321067811865472 13.999998716665099  21.999999999999996 12.321066682432878  21.999999999999996 10.249999060415517  C 21.999999999999996 8.178931438398159  20.321067811865472 6.499999404165936  18.25 6.499999404165936  Z " fill-rule="nonzero" fill="rgba(0, 0, 0, 1)" stroke="none" transform="matrix(1 0 0 1 0 9 )" class="fill" />
    <path d="M 18.25 6.49999940416594  L 18.209500000000002 6.499999404165936  C 17.83011372843156 3.0811676764507645  14.940498420085543 0.4944746580155321  11.50068062427649 0.4944746580155321  C 8.632158033671887 0.4944746580155321  6.076951637291743 2.307462670029062  5.1295 5.0149995402911065  C 2.7943653195409284 5.2061324382744925  0.9966014689200469 7.157056802235172  0.9966014689200469 9.500000412500503  C 0.9966014689200469 11.985281558921333  3.0113200946814764 14  5.496601468920047 14  C 5.497734312735889 14  5.498867156507229 13.999999572221672  5.5 14  L 18.25 14  C 20.321067811865472 13.999998716665099  21.999999999999996 12.321066682432878  21.999999999999996 10.249999060415517  C 21.999999999999996 8.178931438398159  20.321067811865472 6.499999404165936  18.25 6.499999404165936  Z " stroke-width="0" stroke-dasharray="0" stroke="rgba(255, 255, 255, 0)" fill="none" transform="matrix(1 0 0 1 0 9 )" class="stroke" mask="url(#Clip5218)" />
  </g>
</svg>