<?xml version="1.0" encoding="utf-8"?>
<svg version="1.1" xmlns:xlink="http://www.w3.org/1999/xlink" width="50px" height="50px" xmlns="http://www.w3.org/2000/svg">
  <defs>
    <pattern id="BGPattern" patternUnits="userSpaceOnUse" alignment="0 0" imageRepeat="None" />
    <mask fill="white" id="Clip1031">
      <path d="M 50 5.357142857142833  C 50 2.399553571428555  47.600446428571445 0  44.64285714285717 0  L 5.357142857142833 0  C 2.399553571428555 0  0 2.399553571428555  0 5.357142857142833  L 0 44.64285714285717  C 0 47.600446428571445  2.399553571428555 50  5.357142857142833 50  L 44.64285714285717 50  C 47.600446428571445 50  50 47.600446428571445  50 44.64285714285717  L 50 5.357142857142833  Z M 37.64508928571428 9.553571428571445  C 41.31696428571428 9.665178571428555  43.046875 12.053571428571445  42.834821428571445 16.696428571428555  C 42.678571428571445 20.167410714285722  40.24553571428572 24.933035714285722  35.546875 30.970982142857167  C 30.691964285714278 37.27678571428572  26.58482142857144 40.43526785714289  23.225446428571445 40.43526785714289  C 21.138392857142833 40.43526785714289  19.386160714285722 38.515625  17.946428571428555 34.67633928571428  C 15.133928571428557 24.375  13.939732142857167 18.337053571428555  11.618303571428555 18.337053571428555  C 11.350446428571445 18.337053571428555  10.412946428571445 18.895089285714278  8.816964285714278 20.022321428571445  L 7.142857142857167 17.857142857142833  C 11.261160714285722 14.241071428571445  15.189732142857167 10.223214285714278  17.645089285714278 10  C 20.424107142857167 9.732142857142833  22.131696428571445 11.629464285714278  22.779017857142833 15.703125000000002  C 25.066964285714278 30.167410714285726  26.082589285714274 32.35491071428572  30.234375000000004 25.80357142857144  C 31.729910714285726 23.4375  32.53348214285717 21.651785714285722  32.633928571428555 20.412946428571445  C 33.01339285714283 16.75223214285711  29.776785714285726 16.997767857142833  27.589285714285722 17.935267857142833  C 29.341517857142836 12.1875  32.70089285714283 9.397321428571445  37.64508928571428 9.553571428571445  Z " fill-rule="evenodd" />
    </mask>
  </defs>
  <g>
    <path d="M 50 5.357142857142833  C 50 2.399553571428555  47.600446428571445 0  44.64285714285717 0  L 5.357142857142833 0  C 2.399553571428555 0  0 2.399553571428555  0 5.357142857142833  L 0 44.64285714285717  C 0 47.600446428571445  2.399553571428555 50  5.357142857142833 50  L 44.64285714285717 50  C 47.600446428571445 50  50 47.600446428571445  50 44.64285714285717  L 50 5.357142857142833  Z M 37.64508928571428 9.553571428571445  C 41.31696428571428 9.665178571428555  43.046875 12.053571428571445  42.834821428571445 16.696428571428555  C 42.678571428571445 20.167410714285722  40.24553571428572 24.933035714285722  35.546875 30.970982142857167  C 30.691964285714278 37.27678571428572  26.58482142857144 40.43526785714289  23.225446428571445 40.43526785714289  C 21.138392857142833 40.43526785714289  19.386160714285722 38.515625  17.946428571428555 34.67633928571428  C 15.133928571428557 24.375  13.939732142857167 18.337053571428555  11.618303571428555 18.337053571428555  C 11.350446428571445 18.337053571428555  10.412946428571445 18.895089285714278  8.816964285714278 20.022321428571445  L 7.142857142857167 17.857142857142833  C 11.261160714285722 14.241071428571445  15.189732142857167 10.223214285714278  17.645089285714278 10  C 20.424107142857167 9.732142857142833  22.131696428571445 11.629464285714278  22.779017857142833 15.703125000000002  C 25.066964285714278 30.167410714285726  26.082589285714274 32.35491071428572  30.234375000000004 25.80357142857144  C 31.729910714285726 23.4375  32.53348214285717 21.651785714285722  32.633928571428555 20.412946428571445  C 33.01339285714283 16.75223214285711  29.776785714285726 16.997767857142833  27.589285714285722 17.935267857142833  C 29.341517857142836 12.1875  32.70089285714283 9.397321428571445  37.64508928571428 9.553571428571445  Z " fill-rule="nonzero" fill="rgba(0, 0, 0, 1)" stroke="none" class="fill" />
    <path d="M 50 5.357142857142833  C 50 2.399553571428555  47.600446428571445 0  44.64285714285717 0  L 5.357142857142833 0  C 2.399553571428555 0  0 2.399553571428555  0 5.357142857142833  L 0 44.64285714285717  C 0 47.600446428571445  2.399553571428555 50  5.357142857142833 50  L 44.64285714285717 50  C 47.600446428571445 50  50 47.600446428571445  50 44.64285714285717  L 50 5.357142857142833  Z " stroke-width="0" stroke-dasharray="0" stroke="rgba(255, 255, 255, 0)" fill="none" class="stroke" mask="url(#Clip1031)" />
    <path d="M 37.64508928571428 9.553571428571445  C 41.31696428571428 9.665178571428555  43.046875 12.053571428571445  42.834821428571445 16.696428571428555  C 42.678571428571445 20.167410714285722  40.24553571428572 24.933035714285722  35.546875 30.970982142857167  C 30.691964285714278 37.27678571428572  26.58482142857144 40.43526785714289  23.225446428571445 40.43526785714289  C 21.138392857142833 40.43526785714289  19.386160714285722 38.515625  17.946428571428555 34.67633928571428  C 15.133928571428557 24.375  13.939732142857167 18.337053571428555  11.618303571428555 18.337053571428555  C 11.350446428571445 18.337053571428555  10.412946428571445 18.895089285714278  8.816964285714278 20.022321428571445  L 7.142857142857167 17.857142857142833  C 11.261160714285722 14.241071428571445  15.189732142857167 10.223214285714278  17.645089285714278 10  C 20.424107142857167 9.732142857142833  22.131696428571445 11.629464285714278  22.779017857142833 15.703125000000002  C 25.066964285714278 30.167410714285726  26.082589285714274 32.35491071428572  30.234375000000004 25.80357142857144  C 31.729910714285726 23.4375  32.53348214285717 21.651785714285722  32.633928571428555 20.412946428571445  C 33.01339285714283 16.75223214285711  29.776785714285726 16.997767857142833  27.589285714285722 17.935267857142833  C 29.341517857142836 12.1875  32.70089285714283 9.397321428571445  37.64508928571428 9.553571428571445  Z " stroke-width="0" stroke-dasharray="0" stroke="rgba(255, 255, 255, 0)" fill="none" class="stroke" mask="url(#Clip1031)" />
  </g>
</svg>