<?xml version="1.0" encoding="utf-8"?>
<svg version="1.1" xmlns:xlink="http://www.w3.org/1999/xlink" width="20px" height="19px" xmlns="http://www.w3.org/2000/svg">
  <defs>
    <pattern id="BGPattern" patternUnits="userSpaceOnUse" alignment="0 0" imageRepeat="None" />
    <mask fill="white" id="Clip2956">
      <path d="M 12 7.25  L 12 0.5  C 12 0.22500000000000142  11.774999999999999 0  11.5 0  L 8.5 0  C 8.225000000000001 0  8 0.22500000000000142  8 0.5  L 8 7.25  L 1.25 7.25  C 0.9750000000000014 7.25  0.75 7.475000000000001  0.75 7.75  L 0.75 10.75  C 0.75 11.024999999999999  0.9750000000000014 11.25  1.25 11.25  L 8 11.25  L 8 18  C 8 18.275  8.225000000000001 18.5  8.5 18.5  L 11.5 18.5  C 11.774999999999999 18.5  12 18.275  12 18  L 12 11.25  L 18.75 11.25  C 19.025 11.25  19.25 11.024999999999999  19.25 10.75  L 19.25 7.75  C 19.25 7.475000000000001  19.025 7.25  18.75 7.25  L 12 7.25  Z " fill-rule="evenodd" />
    </mask>
  </defs>
  <g transform="matrix(1 0 0 1 -12 -25 )">
    <path d="M 12 7.25  L 12 0.5  C 12 0.22500000000000142  11.774999999999999 0  11.5 0  L 8.5 0  C 8.225000000000001 0  8 0.22500000000000142  8 0.5  L 8 7.25  L 1.25 7.25  C 0.9750000000000014 7.25  0.75 7.475000000000001  0.75 7.75  L 0.75 10.75  C 0.75 11.024999999999999  0.9750000000000014 11.25  1.25 11.25  L 8 11.25  L 8 18  C 8 18.275  8.225000000000001 18.5  8.5 18.5  L 11.5 18.5  C 11.774999999999999 18.5  12 18.275  12 18  L 12 11.25  L 18.75 11.25  C 19.025 11.25  19.25 11.024999999999999  19.25 10.75  L 19.25 7.75  C 19.25 7.475000000000001  19.025 7.25  18.75 7.25  L 12 7.25  Z " fill-rule="nonzero" fill="rgba(0, 0, 0, 1)" stroke="none" transform="matrix(1 0 0 1 12 25 )" class="fill" />
    <path d="M 12 7.25  L 12 0.5  C 12 0.22500000000000142  11.774999999999999 0  11.5 0  L 8.5 0  C 8.225000000000001 0  8 0.22500000000000142  8 0.5  L 8 7.25  L 1.25 7.25  C 0.9750000000000014 7.25  0.75 7.475000000000001  0.75 7.75  L 0.75 10.75  C 0.75 11.024999999999999  0.9750000000000014 11.25  1.25 11.25  L 8 11.25  L 8 18  C 8 18.275  8.225000000000001 18.5  8.5 18.5  L 11.5 18.5  C 11.774999999999999 18.5  12 18.275  12 18  L 12 11.25  L 18.75 11.25  C 19.025 11.25  19.25 11.024999999999999  19.25 10.75  L 19.25 7.75  C 19.25 7.475000000000001  19.025 7.25  18.75 7.25  L 12 7.25  Z " stroke-width="0" stroke-dasharray="0" stroke="rgba(255, 255, 255, 0)" fill="none" transform="matrix(1 0 0 1 12 25 )" class="stroke" mask="url(#Clip2956)" />
  </g>
</svg>