<?xml version="1.0" encoding="utf-8"?>
<svg version="1.1" xmlns:xlink="http://www.w3.org/1999/xlink" width="50px" height="46px" xmlns="http://www.w3.org/2000/svg">
  <defs>
    <pattern id="BGPattern" patternUnits="userSpaceOnUse" alignment="0 0" imageRepeat="None" />
    <mask fill="white" id="Clip1380">
      <path d="M 26.65194346289752 0.026501766784463147  C 26.042402826855128 0  25.530035335689032 0.4770318021201376  25 1.0865724381625341  L 25 22  L 45.64487632508835 22  C 46.254416961130744 21.201413427561818  46.73144876325088 20.689045936395758  46.70494699646645 20.07950530035336  C 46.13957597173146 9.266784452296804  37.47349823321554 0.5918727915194495  26.65194346289752 0.026501766784463147  Z M 28.798586572438158 25  L 48.913427561837466 25  C 49.52296819787986 25.441696113074187  50 25.954063604240275  49.97349823321554 26.56360424028267  C 49.726148409893995 31.263250883392203  47.92402826855124 35.89222614840986  44.56713780918727 39.62014134275617  C 44.16077738515901 40.070671378091845  43.454063604240275 40.09717314487631  43.021201413427576 39.66431095406358  L 28.798586572438158 25  Z M 22 24.02826855123675  L 35.51236749116609 38.250883392226115  C 35.9363957597173 38.674911660777354  35.92756183745581 39.38162544169609  35.47703180212014 39.779151943462864  C 31.713780918727906 43.17137809187278  26.73144876325088 45.22968197879857  21.27208480565372 45.22968197879857  C 9.593639575971736 45.22084805653708  0.0706713780918733 35.67137809187278  0.08833922261483451 23.98409893992931  C 0.10600706713780994 12.667844522968181  8.992932862190813 3.4363957597173  20.16784452296821 2.8533568904593665  C 20.777385159010606 2.8180212014134156  21.289752650176666 3.3038869257950405  22 3.913427561837466  L 22 24.02826855123675  Z " fill-rule="evenodd" />
    </mask>
  </defs>
  <g>
    <path d="M 26.65194346289752 0.026501766784463147  C 26.042402826855128 0  25.530035335689032 0.4770318021201376  25 1.0865724381625341  L 25 22  L 45.64487632508835 22  C 46.254416961130744 21.201413427561818  46.73144876325088 20.689045936395758  46.70494699646645 20.07950530035336  C 46.13957597173146 9.266784452296804  37.47349823321554 0.5918727915194495  26.65194346289752 0.026501766784463147  Z M 28.798586572438158 25  L 48.913427561837466 25  C 49.52296819787986 25.441696113074187  50 25.954063604240275  49.97349823321554 26.56360424028267  C 49.726148409893995 31.263250883392203  47.92402826855124 35.89222614840986  44.56713780918727 39.62014134275617  C 44.16077738515901 40.070671378091845  43.454063604240275 40.09717314487631  43.021201413427576 39.66431095406358  L 28.798586572438158 25  Z M 22 24.02826855123675  L 35.51236749116609 38.250883392226115  C 35.9363957597173 38.674911660777354  35.92756183745581 39.38162544169609  35.47703180212014 39.779151943462864  C 31.713780918727906 43.17137809187278  26.73144876325088 45.22968197879857  21.27208480565372 45.22968197879857  C 9.593639575971736 45.22084805653708  0.0706713780918733 35.67137809187278  0.08833922261483451 23.98409893992931  C 0.10600706713780994 12.667844522968181  8.992932862190813 3.4363957597173  20.16784452296821 2.8533568904593665  C 20.777385159010606 2.8180212014134156  21.289752650176666 3.3038869257950405  22 3.913427561837466  L 22 24.02826855123675  Z " fill-rule="nonzero" fill="rgba(0, 0, 0, 1)" stroke="none" class="fill" />
    <path d="M 26.65194346289752 0.026501766784463147  C 26.042402826855128 0  25.530035335689032 0.4770318021201376  25 1.0865724381625341  L 25 22  L 45.64487632508835 22  C 46.254416961130744 21.201413427561818  46.73144876325088 20.689045936395758  46.70494699646645 20.07950530035336  C 46.13957597173146 9.266784452296804  37.47349823321554 0.5918727915194495  26.65194346289752 0.026501766784463147  Z " stroke-width="0" stroke-dasharray="0" stroke="rgba(255, 255, 255, 0)" fill="none" class="stroke" mask="url(#Clip1380)" />
    <path d="M 28.798586572438158 25  L 48.913427561837466 25  C 49.52296819787986 25.441696113074187  50 25.954063604240275  49.97349823321554 26.56360424028267  C 49.726148409893995 31.263250883392203  47.92402826855124 35.89222614840986  44.56713780918727 39.62014134275617  C 44.16077738515901 40.070671378091845  43.454063604240275 40.09717314487631  43.021201413427576 39.66431095406358  L 28.798586572438158 25  Z " stroke-width="0" stroke-dasharray="0" stroke="rgba(255, 255, 255, 0)" fill="none" class="stroke" mask="url(#Clip1380)" />
    <path d="M 22 24.02826855123675  L 35.51236749116609 38.250883392226115  C 35.9363957597173 38.674911660777354  35.92756183745581 39.38162544169609  35.47703180212014 39.779151943462864  C 31.713780918727906 43.17137809187278  26.73144876325088 45.22968197879857  21.27208480565372 45.22968197879857  C 9.593639575971736 45.22084805653708  0.0706713780918733 35.67137809187278  0.08833922261483451 23.98409893992931  C 0.10600706713780994 12.667844522968181  8.992932862190813 3.4363957597173  20.16784452296821 2.8533568904593665  C 20.777385159010606 2.8180212014134156  21.289752650176666 3.3038869257950405  22 3.913427561837466  L 22 24.02826855123675  Z " stroke-width="0" stroke-dasharray="0" stroke="rgba(255, 255, 255, 0)" fill="none" class="stroke" mask="url(#Clip1380)" />
  </g>
</svg>