<?xml version="1.0" encoding="utf-8"?>
<svg version="1.1" xmlns:xlink="http://www.w3.org/1999/xlink" width="29px" height="50px" xmlns="http://www.w3.org/2000/svg">
  <defs>
    <pattern id="BGPattern" patternUnits="userSpaceOnUse" alignment="0 0" imageRepeat="None" />
    <mask fill="white" id="Clip1483">
      <path d="M 27.509765625 36.630859375  C 29.609374999999996 30.615234375  26.083984375 24.443359375  20.4296875 22.79296875  L 9.8828125 19.70703125  C 8.662109375 19.35546875  7.812500000000001 18.212890625  7.812500000000001 16.943359375  C 7.812500000000001 15.351562499999998  9.1015625 14.0625  10.693359375 14.0625  L 17.16796875 14.0625  C 18.359375 14.0625  19.53125 14.423828124999998  20.5078125 15.087890625  C 21.103515625 15.48828125  21.904296875 15.390625  22.412109375 14.892578125  L 25.810546875 11.572265625  C 26.50390625 10.8984375  26.40625 9.775390625  25.634765625 9.1796875  C 23.2421875 7.3046875  20.25390625 6.259765624999999  17.1875 6.25  L 17.1875 1.5625  C 17.1875 0.703125  16.484375 0  15.625000000000002 0  L 12.5 0  C 11.640625 0  10.9375 0.703125  10.9375 1.5625  L 10.9375 6.25  L 10.693359375 6.25  C 4.47265625 6.25  -0.52734375 11.591796875  0.048828125 17.9296875  C 0.458984375 22.431640625  3.8964843749999996 26.09375  8.232421875 27.36328125  L 18.2421875 30.29296875  C 19.462890625 30.654296874999996  20.3125 31.787109375  20.3125 33.056640625  C 20.3125 34.6484375  19.0234375 35.9375  17.431640625 35.9375  L 10.95703125 35.9375  C 9.765625 35.9375  8.59375 35.576171875  7.6171875 34.912109375  C 7.021484375 34.51171875  6.220703125 34.609375  5.712890625 35.107421875  L 2.314453125 38.427734375  C 1.62109375 39.1015625  1.71875 40.224609375  2.490234375 40.8203125  C 4.8828125 42.6953125  7.87109375 43.740234375  10.9375 43.75  L 10.9375 48.4375  C 10.9375 49.296875  11.640625 50  12.5 50  L 15.625000000000002 50  C 16.484375 50  17.1875 49.296875  17.1875 48.4375  L 17.1875 43.73046875  C 21.73828125 43.642578125  26.005859375 40.9375  27.509765625 36.630859375  Z " fill-rule="evenodd" />
    </mask>
  </defs>
  <g>
    <path d="M 27.509765625 36.630859375  C 29.609374999999996 30.615234375  26.083984375 24.443359375  20.4296875 22.79296875  L 9.8828125 19.70703125  C 8.662109375 19.35546875  7.812500000000001 18.212890625  7.812500000000001 16.943359375  C 7.812500000000001 15.351562499999998  9.1015625 14.0625  10.693359375 14.0625  L 17.16796875 14.0625  C 18.359375 14.0625  19.53125 14.423828124999998  20.5078125 15.087890625  C 21.103515625 15.48828125  21.904296875 15.390625  22.412109375 14.892578125  L 25.810546875 11.572265625  C 26.50390625 10.8984375  26.40625 9.775390625  25.634765625 9.1796875  C 23.2421875 7.3046875  20.25390625 6.259765624999999  17.1875 6.25  L 17.1875 1.5625  C 17.1875 0.703125  16.484375 0  15.625000000000002 0  L 12.5 0  C 11.640625 0  10.9375 0.703125  10.9375 1.5625  L 10.9375 6.25  L 10.693359375 6.25  C 4.47265625 6.25  -0.52734375 11.591796875  0.048828125 17.9296875  C 0.458984375 22.431640625  3.8964843749999996 26.09375  8.232421875 27.36328125  L 18.2421875 30.29296875  C 19.462890625 30.654296874999996  20.3125 31.787109375  20.3125 33.056640625  C 20.3125 34.6484375  19.0234375 35.9375  17.431640625 35.9375  L 10.95703125 35.9375  C 9.765625 35.9375  8.59375 35.576171875  7.6171875 34.912109375  C 7.021484375 34.51171875  6.220703125 34.609375  5.712890625 35.107421875  L 2.314453125 38.427734375  C 1.62109375 39.1015625  1.71875 40.224609375  2.490234375 40.8203125  C 4.8828125 42.6953125  7.87109375 43.740234375  10.9375 43.75  L 10.9375 48.4375  C 10.9375 49.296875  11.640625 50  12.5 50  L 15.625000000000002 50  C 16.484375 50  17.1875 49.296875  17.1875 48.4375  L 17.1875 43.73046875  C 21.73828125 43.642578125  26.005859375 40.9375  27.509765625 36.630859375  Z " fill-rule="nonzero" fill="rgba(0, 0, 0, 1)" stroke="none" class="fill" />
    <path d="M 27.509765625 36.630859375  C 29.609374999999996 30.615234375  26.083984375 24.443359375  20.4296875 22.79296875  L 9.8828125 19.70703125  C 8.662109375 19.35546875  7.812500000000001 18.212890625  7.812500000000001 16.943359375  C 7.812500000000001 15.351562499999998  9.1015625 14.0625  10.693359375 14.0625  L 17.16796875 14.0625  C 18.359375 14.0625  19.53125 14.423828124999998  20.5078125 15.087890625  C 21.103515625 15.48828125  21.904296875 15.390625  22.412109375 14.892578125  L 25.810546875 11.572265625  C 26.50390625 10.8984375  26.40625 9.775390625  25.634765625 9.1796875  C 23.2421875 7.3046875  20.25390625 6.259765624999999  17.1875 6.25  L 17.1875 1.5625  C 17.1875 0.703125  16.484375 0  15.625000000000002 0  L 12.5 0  C 11.640625 0  10.9375 0.703125  10.9375 1.5625  L 10.9375 6.25  L 10.693359375 6.25  C 4.47265625 6.25  -0.52734375 11.591796875  0.048828125 17.9296875  C 0.458984375 22.431640625  3.8964843749999996 26.09375  8.232421875 27.36328125  L 18.2421875 30.29296875  C 19.462890625 30.654296874999996  20.3125 31.787109375  20.3125 33.056640625  C 20.3125 34.6484375  19.0234375 35.9375  17.431640625 35.9375  L 10.95703125 35.9375  C 9.765625 35.9375  8.59375 35.576171875  7.6171875 34.912109375  C 7.021484375 34.51171875  6.220703125 34.609375  5.712890625 35.107421875  L 2.314453125 38.427734375  C 1.62109375 39.1015625  1.71875 40.224609375  2.490234375 40.8203125  C 4.8828125 42.6953125  7.87109375 43.740234375  10.9375 43.75  L 10.9375 48.4375  C 10.9375 49.296875  11.640625 50  12.5 50  L 15.625000000000002 50  C 16.484375 50  17.1875 49.296875  17.1875 48.4375  L 17.1875 43.73046875  C 21.73828125 43.642578125  26.005859375 40.9375  27.509765625 36.630859375  Z " stroke-width="0" stroke-dasharray="0" stroke="rgba(255, 255, 255, 0)" fill="none" class="stroke" mask="url(#Clip1483)" />
  </g>
</svg>