<?xml version="1.0" encoding="utf-8"?>
<svg version="1.1" xmlns:xlink="http://www.w3.org/1999/xlink" width="30px" height="30px" xmlns="http://www.w3.org/2000/svg">
  <defs>
    <pattern id="BGPattern" patternUnits="userSpaceOnUse" alignment="0 0" imageRepeat="None" />
    <mask fill="white" id="Clip567">
      <path d="M 8.759999999999998 1  L 21.24 1  C 25.976 0.6000000000000001  29.4 4.024  29 8.76  L 29 21.240000000000002  C 29.4 25.976000000000003  25.976 29.400000000000002  21.24 29  L 8.759999999999998 29  C 4.023999999999998 29.400000000000002  0.5999999999999979 25.976000000000003  1 21.240000000000002  L 1 8.760000000000002  C 0.5999999999999979 4.024000000000002  4.023999999999997 0.6000000000000014  8.759999999999998 1  Z M 27 8.760000000000002  C 27 5.352000000000002  24.648 3.0000000000000018  21.24 3  L 8.759999999999998 3  C 5.3519999999999985 3  2.9999999999999982 5.352  3 8.76  L 3 21.240000000000002  C 2.9999999999999982 24.648000000000003  5.3519999999999985 27  8.759999999999998 27  L 21.24 27  C 24.648 27  27 24.648  27 21.240000000000002  L 27 8.760000000000002  Z M 10.600000000000001 11.864  C 10.600000000000001 9.752  12.360000000000001 7.800000000000001  15 7.800000000000001  C 17.64 7.800000000000001  19.4 9.752  19.4 11.864  C 19.4 14.904  16.2 15.975999999999999  16.2 17  C 16.2 17.672  15.655999999999997 18.2  15 18.2  C 14.328 18.2  13.8 17.672  13.8 17  C 13.8 14.648  17 13.656  17 11.864  C 17 11.192  16.2 10.200000000000001  15 10.200000000000001  C 13.8 10.200000000000001  13 11.192  13 11.864  C 13 12.536000000000001  12.472 13.064  11.8 13.064  C 11.144 13.064  10.600000000000001 12.536  10.600000000000001 11.864  Z M 13.4 20.6  C 13.4 19.72  14.104000000000001 19  15 19  C 15.879999999999999 19  16.6 19.72  16.6 20.6  C 16.6 21.480000000000004  15.880000000000003 22.200000000000003  15 22.200000000000003  C 14.104 22.200000000000003  13.4 21.480000000000004  13.4 20.6  Z " fill-rule="evenodd" />
    </mask>
  </defs>
  <g>
    <path d="M 8.759999999999998 1  L 21.24 1  C 25.976 0.6000000000000001  29.4 4.024  29 8.76  L 29 21.240000000000002  C 29.4 25.976000000000003  25.976 29.400000000000002  21.24 29  L 8.759999999999998 29  C 4.023999999999998 29.400000000000002  0.5999999999999979 25.976000000000003  1 21.240000000000002  L 1 8.760000000000002  C 0.5999999999999979 4.024000000000002  4.023999999999997 0.6000000000000014  8.759999999999998 1  Z M 27 8.760000000000002  C 27 5.352000000000002  24.648 3.0000000000000018  21.24 3  L 8.759999999999998 3  C 5.3519999999999985 3  2.9999999999999982 5.352  3 8.76  L 3 21.240000000000002  C 2.9999999999999982 24.648000000000003  5.3519999999999985 27  8.759999999999998 27  L 21.24 27  C 24.648 27  27 24.648  27 21.240000000000002  L 27 8.760000000000002  Z M 10.600000000000001 11.864  C 10.600000000000001 9.752  12.360000000000001 7.800000000000001  15 7.800000000000001  C 17.64 7.800000000000001  19.4 9.752  19.4 11.864  C 19.4 14.904  16.2 15.975999999999999  16.2 17  C 16.2 17.672  15.655999999999997 18.2  15 18.2  C 14.328 18.2  13.8 17.672  13.8 17  C 13.8 14.648  17 13.656  17 11.864  C 17 11.192  16.2 10.200000000000001  15 10.200000000000001  C 13.8 10.200000000000001  13 11.192  13 11.864  C 13 12.536000000000001  12.472 13.064  11.8 13.064  C 11.144 13.064  10.600000000000001 12.536  10.600000000000001 11.864  Z M 13.4 20.6  C 13.4 19.72  14.104000000000001 19  15 19  C 15.879999999999999 19  16.6 19.72  16.6 20.6  C 16.6 21.480000000000004  15.880000000000003 22.200000000000003  15 22.200000000000003  C 14.104 22.200000000000003  13.4 21.480000000000004  13.4 20.6  Z " fill-rule="nonzero" fill="rgba(0, 0, 0, 1)" stroke="none" class="fill" />
    <path d="M 8.759999999999998 1  L 21.24 1  C 25.976 0.6000000000000001  29.4 4.024  29 8.76  L 29 21.240000000000002  C 29.4 25.976000000000003  25.976 29.400000000000002  21.24 29  L 8.759999999999998 29  C 4.023999999999998 29.400000000000002  0.5999999999999979 25.976000000000003  1 21.240000000000002  L 1 8.760000000000002  C 0.5999999999999979 4.024000000000002  4.023999999999997 0.6000000000000014  8.759999999999998 1  Z " stroke-width="0" stroke-dasharray="0" stroke="rgba(255, 255, 255, 0)" fill="none" class="stroke" mask="url(#Clip567)" />
    <path d="M 27 8.760000000000002  C 27 5.352000000000002  24.648 3.0000000000000018  21.24 3  L 8.759999999999998 3  C 5.3519999999999985 3  2.9999999999999982 5.352  3 8.76  L 3 21.240000000000002  C 2.9999999999999982 24.648000000000003  5.3519999999999985 27  8.759999999999998 27  L 21.24 27  C 24.648 27  27 24.648  27 21.240000000000002  L 27 8.760000000000002  Z " stroke-width="0" stroke-dasharray="0" stroke="rgba(255, 255, 255, 0)" fill="none" class="stroke" mask="url(#Clip567)" />
    <path d="M 10.600000000000001 11.864  C 10.600000000000001 9.752  12.360000000000001 7.800000000000001  15 7.800000000000001  C 17.64 7.800000000000001  19.4 9.752  19.4 11.864  C 19.4 14.904  16.2 15.975999999999999  16.2 17  C 16.2 17.672  15.655999999999997 18.2  15 18.2  C 14.328 18.2  13.8 17.672  13.8 17  C 13.8 14.648  17 13.656  17 11.864  C 17 11.192  16.2 10.200000000000001  15 10.200000000000001  C 13.8 10.200000000000001  13 11.192  13 11.864  C 13 12.536000000000001  12.472 13.064  11.8 13.064  C 11.144 13.064  10.600000000000001 12.536  10.600000000000001 11.864  Z " stroke-width="0" stroke-dasharray="0" stroke="rgba(255, 255, 255, 0)" fill="none" class="stroke" mask="url(#Clip567)" />
    <path d="M 13.4 20.6  C 13.4 19.72  14.104000000000001 19  15 19  C 15.879999999999999 19  16.6 19.72  16.6 20.6  C 16.6 21.480000000000004  15.880000000000003 22.200000000000003  15 22.200000000000003  C 14.104 22.200000000000003  13.4 21.480000000000004  13.4 20.6  Z " stroke-width="0" stroke-dasharray="0" stroke="rgba(255, 255, 255, 0)" fill="none" class="stroke" mask="url(#Clip567)" />
  </g>
</svg>