<?xml version="1.0" encoding="utf-8"?>
<svg version="1.1" xmlns:xlink="http://www.w3.org/1999/xlink" width="24px" height="20px" xmlns="http://www.w3.org/2000/svg">
  <defs>
    <pattern id="BGPattern" patternUnits="userSpaceOnUse" alignment="0 0" imageRepeat="None" />
    <mask fill="white" id="Clip4840">
      <path d="M 17.5695 0.4099999999999999  C 15.6195 0.21350000000000002  13.4775 0.40400000000000014  12 1.6745  C 10.522499999999999 0.40400000000000014  8.3805 0.21500000000000008  6.4305 0.4099999999999999  C 4.1594999999999995 0.6395  1.8675000000000002 1.4180000000000001  0.43949999999999956 2.0675  C 0.17190260430215176 2.189205067717466  8.140082228371844E-05 2.4560263905275006  0 2.75  L 0 19.25  C 0.00011465817558158437 19.664132457375977  0.3358674980066615 19.99979235235766  0.7499999712549705 19.99979235235766  C 0.8571178734511469 19.99979235235766  0.9629930519616883 19.976846815614692  1.0605 19.9325  C 2.3834999999999997 19.3325  4.515 18.611  6.580500000000001 18.4025  C 8.694 18.189500000000002  10.4655 18.533  11.415000000000001 19.718000000000004  C 11.557347565093423 19.8954284685085  11.772527604476288 19.99866536458514  12 19.99866536458514  C 12.227472395523712 19.99866536458514  12.44265243490658 19.8954284685085  12.585 19.718000000000004  C 13.5345 18.533  15.306000000000001 18.189500000000002  17.418 18.4025  C 19.485 18.611  21.618 19.3325  22.9395 19.9325  C 23.037006948038314 19.976846815614692  23.14288212654885 19.99979235235766  23.25000002874503 19.99979235235766  C 23.66413250199334 19.99979235235766  23.99988534182442 19.664132457375977  24 19.25  L 24 2.75  C 23.999918599177718 2.4560263905275006  23.82809739569785 2.189205067717466  23.5605 2.0675  C 22.1325 1.4179999999999997  19.8405 0.6395  17.5695 0.4099999999999999  Z M 12.75 17.6495  L 12.75 3.0305  C 13.731 1.9969999999999999  15.423 1.7014999999999993  17.418 1.9024999999999999  C 19.269 2.0885  21.1725 2.6869999999999994  22.5 3.242  L 22.5 18.1265  C 21.124500000000005 17.6015  19.3395 17.089999999999996  17.5695 16.91  C 15.930000000000001 16.745  14.1525 16.8545  12.75 17.6495  Z M 1.5 18.1265  L 1.5 3.242  C 2.8274999999999997 2.6869999999999994  4.731 2.0885  6.582 1.9024999999999999  C 8.577 1.7014999999999993  10.269 1.9969999999999999  11.25 3.0305  L 11.25 17.6495  C 9.8475 16.852999999999998  8.0715 16.744999999999997  6.4305 16.911499999999997  C 4.660500000000001 17.0885  2.8770000000000002 17.6015  1.5 18.1265  Z " fill-rule="evenodd" />
    </mask>
  </defs>
  <g>
    <path d="M 17.5695 0.4099999999999999  C 15.6195 0.21350000000000002  13.4775 0.40400000000000014  12 1.6745  C 10.522499999999999 0.40400000000000014  8.3805 0.21500000000000008  6.4305 0.4099999999999999  C 4.1594999999999995 0.6395  1.8675000000000002 1.4180000000000001  0.43949999999999956 2.0675  C 0.17190260430215176 2.189205067717466  8.140082228371844E-05 2.4560263905275006  0 2.75  L 0 19.25  C 0.00011465817558158437 19.664132457375977  0.3358674980066615 19.99979235235766  0.7499999712549705 19.99979235235766  C 0.8571178734511469 19.99979235235766  0.9629930519616883 19.976846815614692  1.0605 19.9325  C 2.3834999999999997 19.3325  4.515 18.611  6.580500000000001 18.4025  C 8.694 18.189500000000002  10.4655 18.533  11.415000000000001 19.718000000000004  C 11.557347565093423 19.8954284685085  11.772527604476288 19.99866536458514  12 19.99866536458514  C 12.227472395523712 19.99866536458514  12.44265243490658 19.8954284685085  12.585 19.718000000000004  C 13.5345 18.533  15.306000000000001 18.189500000000002  17.418 18.4025  C 19.485 18.611  21.618 19.3325  22.9395 19.9325  C 23.037006948038314 19.976846815614692  23.14288212654885 19.99979235235766  23.25000002874503 19.99979235235766  C 23.66413250199334 19.99979235235766  23.99988534182442 19.664132457375977  24 19.25  L 24 2.75  C 23.999918599177718 2.4560263905275006  23.82809739569785 2.189205067717466  23.5605 2.0675  C 22.1325 1.4179999999999997  19.8405 0.6395  17.5695 0.4099999999999999  Z M 12.75 17.6495  L 12.75 3.0305  C 13.731 1.9969999999999999  15.423 1.7014999999999993  17.418 1.9024999999999999  C 19.269 2.0885  21.1725 2.6869999999999994  22.5 3.242  L 22.5 18.1265  C 21.124500000000005 17.6015  19.3395 17.089999999999996  17.5695 16.91  C 15.930000000000001 16.745  14.1525 16.8545  12.75 17.6495  Z M 1.5 18.1265  L 1.5 3.242  C 2.8274999999999997 2.6869999999999994  4.731 2.0885  6.582 1.9024999999999999  C 8.577 1.7014999999999993  10.269 1.9969999999999999  11.25 3.0305  L 11.25 17.6495  C 9.8475 16.852999999999998  8.0715 16.744999999999997  6.4305 16.911499999999997  C 4.660500000000001 17.0885  2.8770000000000002 17.6015  1.5 18.1265  Z " fill-rule="nonzero" fill="rgba(0, 0, 0, 1)" stroke="none" class="fill" />
    <path d="M 17.5695 0.4099999999999999  C 15.6195 0.21350000000000002  13.4775 0.40400000000000014  12 1.6745  C 10.522499999999999 0.40400000000000014  8.3805 0.21500000000000008  6.4305 0.4099999999999999  C 4.1594999999999995 0.6395  1.8675000000000002 1.4180000000000001  0.43949999999999956 2.0675  C 0.17190260430215176 2.189205067717466  8.140082228371844E-05 2.4560263905275006  0 2.75  L 0 19.25  C 0.00011465817558158437 19.664132457375977  0.3358674980066615 19.99979235235766  0.7499999712549705 19.99979235235766  C 0.8571178734511469 19.99979235235766  0.9629930519616883 19.976846815614692  1.0605 19.9325  C 2.3834999999999997 19.3325  4.515 18.611  6.580500000000001 18.4025  C 8.694 18.189500000000002  10.4655 18.533  11.415000000000001 19.718000000000004  C 11.557347565093423 19.8954284685085  11.772527604476288 19.99866536458514  12 19.99866536458514  C 12.227472395523712 19.99866536458514  12.44265243490658 19.8954284685085  12.585 19.718000000000004  C 13.5345 18.533  15.306000000000001 18.189500000000002  17.418 18.4025  C 19.485 18.611  21.618 19.3325  22.9395 19.9325  C 23.037006948038314 19.976846815614692  23.14288212654885 19.99979235235766  23.25000002874503 19.99979235235766  C 23.66413250199334 19.99979235235766  23.99988534182442 19.664132457375977  24 19.25  L 24 2.75  C 23.999918599177718 2.4560263905275006  23.82809739569785 2.189205067717466  23.5605 2.0675  C 22.1325 1.4179999999999997  19.8405 0.6395  17.5695 0.4099999999999999  Z " stroke-width="0" stroke-dasharray="0" stroke="rgba(255, 255, 255, 0)" fill="none" class="stroke" mask="url(#Clip4840)" />
    <path d="M 12.75 17.6495  L 12.75 3.0305  C 13.731 1.9969999999999999  15.423 1.7014999999999993  17.418 1.9024999999999999  C 19.269 2.0885  21.1725 2.6869999999999994  22.5 3.242  L 22.5 18.1265  C 21.124500000000005 17.6015  19.3395 17.089999999999996  17.5695 16.91  C 15.930000000000001 16.745  14.1525 16.8545  12.75 17.6495  Z " stroke-width="0" stroke-dasharray="0" stroke="rgba(255, 255, 255, 0)" fill="none" class="stroke" mask="url(#Clip4840)" />
    <path d="M 1.5 18.1265  L 1.5 3.242  C 2.8274999999999997 2.6869999999999994  4.731 2.0885  6.582 1.9024999999999999  C 8.577 1.7014999999999993  10.269 1.9969999999999999  11.25 3.0305  L 11.25 17.6495  C 9.8475 16.852999999999998  8.0715 16.744999999999997  6.4305 16.911499999999997  C 4.660500000000001 17.0885  2.8770000000000002 17.6015  1.5 18.1265  Z " stroke-width="0" stroke-dasharray="0" stroke="rgba(255, 255, 255, 0)" fill="none" class="stroke" mask="url(#Clip4840)" />
  </g>
</svg>