<?xml version="1.0" encoding="utf-8"?>
<svg version="1.1" xmlns:xlink="http://www.w3.org/1999/xlink" width="50px" height="50px" xmlns="http://www.w3.org/2000/svg">
  <defs>
    <pattern id="BGPattern" patternUnits="userSpaceOnUse" alignment="0 0" imageRepeat="None" />
    <mask fill="white" id="Clip1725">
      <path d="M 49.30651750972763 9.538521400778222  C 50.47957198443578 7.524708171206214  49.91556420233462 4.480252918287931  47.66906614785992 2.233754863813232  C 45.42256809338522 -0.01264591439689866  42.37821011673151 -0.5768482490272504  40.364494163424126 0.5962062256809304  C 34.634338521400764 3.9339494163424154  22.733171206225677 -4.566926070038903  9.13171206225681 9.034533073929964  C -4.4697470817120575 22.63599221789883  4.031225680933858 34.53706225680935  0.6934824902723733 40.26702334630349  C -0.4795719844358075 42.28083657587547  0.08453307392994702 45.32529182879378  2.3309338521400775 47.57178988326848  C 4.577529182879374 49.818385214007776  7.621984435797657 50.38219844357974  9.635894941634234 49.20914396887156  C 15.365564202334639 45.8715953307393  27.266828793774323 54.37247081712064  40.86819066147859 40.771108949416345  C 54.46955252918286 27.169747081712075  45.96887159533074 15.268482490272362  49.30651750972763 9.538521400778222  Z M 24.95350194552529 7.404669260700388  C 25.161867704280155 8.238618677042808  24.65496108949418 9.083560311284032  23.821108949416328 9.292023346303495  C 18.160700389105045 10.707101167315187  10.80476653696499 18.061964980544758  9.389396887159535 23.723735408560316  C 9.212645914396887 24.430933852140072  8.577918287937734 24.903112840466918  7.8805447470817 24.903112840466918  C 7.755642023346297 24.903112840466918  7.628599221789897 24.887937743190662  7.501848249027233 24.856322957198444  C 6.66799610894941 24.647762645914383  6.160992217898837 23.80282101167316  6.369357976653703 22.96887159533074  C 8.064299610894949 16.189396887159546  16.275875486381324 7.969844357976655  23.066050583657585 6.272178988326857  C 23.90019455252917 6.063715953307394  24.745136186770424 6.570719844357967  24.95350194552529 7.404669260700388  Z " fill-rule="evenodd" />
    </mask>
  </defs>
  <g>
    <path d="M 49.30651750972763 9.538521400778222  C 50.47957198443578 7.524708171206214  49.91556420233462 4.480252918287931  47.66906614785992 2.233754863813232  C 45.42256809338522 -0.01264591439689866  42.37821011673151 -0.5768482490272504  40.364494163424126 0.5962062256809304  C 34.634338521400764 3.9339494163424154  22.733171206225677 -4.566926070038903  9.13171206225681 9.034533073929964  C -4.4697470817120575 22.63599221789883  4.031225680933858 34.53706225680935  0.6934824902723733 40.26702334630349  C -0.4795719844358075 42.28083657587547  0.08453307392994702 45.32529182879378  2.3309338521400775 47.57178988326848  C 4.577529182879374 49.818385214007776  7.621984435797657 50.38219844357974  9.635894941634234 49.20914396887156  C 15.365564202334639 45.8715953307393  27.266828793774323 54.37247081712064  40.86819066147859 40.771108949416345  C 54.46955252918286 27.169747081712075  45.96887159533074 15.268482490272362  49.30651750972763 9.538521400778222  Z M 24.95350194552529 7.404669260700388  C 25.161867704280155 8.238618677042808  24.65496108949418 9.083560311284032  23.821108949416328 9.292023346303495  C 18.160700389105045 10.707101167315187  10.80476653696499 18.061964980544758  9.389396887159535 23.723735408560316  C 9.212645914396887 24.430933852140072  8.577918287937734 24.903112840466918  7.8805447470817 24.903112840466918  C 7.755642023346297 24.903112840466918  7.628599221789897 24.887937743190662  7.501848249027233 24.856322957198444  C 6.66799610894941 24.647762645914383  6.160992217898837 23.80282101167316  6.369357976653703 22.96887159533074  C 8.064299610894949 16.189396887159546  16.275875486381324 7.969844357976655  23.066050583657585 6.272178988326857  C 23.90019455252917 6.063715953307394  24.745136186770424 6.570719844357967  24.95350194552529 7.404669260700388  Z " fill-rule="nonzero" fill="rgba(0, 0, 0, 1)" stroke="none" class="fill" />
    <path d="M 49.30651750972763 9.538521400778222  C 50.47957198443578 7.524708171206214  49.91556420233462 4.480252918287931  47.66906614785992 2.233754863813232  C 45.42256809338522 -0.01264591439689866  42.37821011673151 -0.5768482490272504  40.364494163424126 0.5962062256809304  C 34.634338521400764 3.9339494163424154  22.733171206225677 -4.566926070038903  9.13171206225681 9.034533073929964  C -4.4697470817120575 22.63599221789883  4.031225680933858 34.53706225680935  0.6934824902723733 40.26702334630349  C -0.4795719844358075 42.28083657587547  0.08453307392994702 45.32529182879378  2.3309338521400775 47.57178988326848  C 4.577529182879374 49.818385214007776  7.621984435797657 50.38219844357974  9.635894941634234 49.20914396887156  C 15.365564202334639 45.8715953307393  27.266828793774323 54.37247081712064  40.86819066147859 40.771108949416345  C 54.46955252918286 27.169747081712075  45.96887159533074 15.268482490272362  49.30651750972763 9.538521400778222  Z " stroke-width="0" stroke-dasharray="0" stroke="rgba(255, 255, 255, 0)" fill="none" class="stroke" mask="url(#Clip1725)" />
    <path d="M 24.95350194552529 7.404669260700388  C 25.161867704280155 8.238618677042808  24.65496108949418 9.083560311284032  23.821108949416328 9.292023346303495  C 18.160700389105045 10.707101167315187  10.80476653696499 18.061964980544758  9.389396887159535 23.723735408560316  C 9.212645914396887 24.430933852140072  8.577918287937734 24.903112840466918  7.8805447470817 24.903112840466918  C 7.755642023346297 24.903112840466918  7.628599221789897 24.887937743190662  7.501848249027233 24.856322957198444  C 6.66799610894941 24.647762645914383  6.160992217898837 23.80282101167316  6.369357976653703 22.96887159533074  C 8.064299610894949 16.189396887159546  16.275875486381324 7.969844357976655  23.066050583657585 6.272178988326857  C 23.90019455252917 6.063715953307394  24.745136186770424 6.570719844357967  24.95350194552529 7.404669260700388  Z " stroke-width="0" stroke-dasharray="0" stroke="rgba(255, 255, 255, 0)" fill="none" class="stroke" mask="url(#Clip1725)" />
  </g>
</svg>