<?xml version="1.0" encoding="utf-8"?>
<svg version="1.1" xmlns:xlink="http://www.w3.org/1999/xlink" width="50px" height="50px" xmlns="http://www.w3.org/2000/svg">
  <defs>
    <pattern id="BGPattern" patternUnits="userSpaceOnUse" alignment="0 0" imageRepeat="None" />
    <mask fill="white" id="Clip1072">
      <path d="M 50 25  C 50 11.189516129032256  38.810483870967744 0  25 0  C 11.189516129032256 0  0 11.189516129032256  0 25  C 0 38.810483870967744  11.189516129032256 50  25 50  C 38.810483870967744 50  50 38.810483870967744  50 25  Z M 45.16129032258061 25  C 45.16129032258061 36.139112903225794  36.139112903225794 45.16129032258064  25 45.16129032258064  C 13.860887096774208 45.16129032258064  4.838709677419331 36.139112903225794  4.838709677419331 25  C 4.838709677419331 13.860887096774208  13.860887096774208 4.838709677419359  25 4.838709677419359  C 36.139112903225794 4.838709677419359  45.16129032258061 13.860887096774208  45.16129032258061 25  Z M 22.98387096774195 12.096774193548384  C 22.31854838709677 12.096774193548384  21.774193548387075 12.64112903225805  22 13.306451612903231  L 22 25  L 15.020161290322562 25  C 13.941532258064512 25  13.4072580645161 26.300403225806463  14.163306451612925 27.066532258064512  L 24.143145161290306 37.04637096774195  C 24.616935483870975 37.52016129032256  25.38306451612902 37.52016129032256  25.85685483870969 37.04637096774195  L 35.836693548387075 27.066532258064512  C 36.60282258064518 26.300403225806463  36.05846774193549 25  34.97983870967744 25  L 28 25  L 28 13.306451612903231  C 28.22580645161292 12.64112903225805  27.68145161290323 12.096774193548384  27.01612903225805 12.096774193548384  L 22.98387096774195 12.096774193548384  Z " fill-rule="evenodd" />
    </mask>
  </defs>
  <g>
    <path d="M 50 25  C 50 11.189516129032256  38.810483870967744 0  25 0  C 11.189516129032256 0  0 11.189516129032256  0 25  C 0 38.810483870967744  11.189516129032256 50  25 50  C 38.810483870967744 50  50 38.810483870967744  50 25  Z M 45.16129032258061 25  C 45.16129032258061 36.139112903225794  36.139112903225794 45.16129032258064  25 45.16129032258064  C 13.860887096774208 45.16129032258064  4.838709677419331 36.139112903225794  4.838709677419331 25  C 4.838709677419331 13.860887096774208  13.860887096774208 4.838709677419359  25 4.838709677419359  C 36.139112903225794 4.838709677419359  45.16129032258061 13.860887096774208  45.16129032258061 25  Z M 22.98387096774195 12.096774193548384  C 22.31854838709677 12.096774193548384  21.774193548387075 12.64112903225805  22 13.306451612903231  L 22 25  L 15.020161290322562 25  C 13.941532258064512 25  13.4072580645161 26.300403225806463  14.163306451612925 27.066532258064512  L 24.143145161290306 37.04637096774195  C 24.616935483870975 37.52016129032256  25.38306451612902 37.52016129032256  25.85685483870969 37.04637096774195  L 35.836693548387075 27.066532258064512  C 36.60282258064518 26.300403225806463  36.05846774193549 25  34.97983870967744 25  L 28 25  L 28 13.306451612903231  C 28.22580645161292 12.64112903225805  27.68145161290323 12.096774193548384  27.01612903225805 12.096774193548384  L 22.98387096774195 12.096774193548384  Z " fill-rule="nonzero" fill="rgba(0, 0, 0, 1)" stroke="none" class="fill" />
    <path d="M 50 25  C 50 11.189516129032256  38.810483870967744 0  25 0  C 11.189516129032256 0  0 11.189516129032256  0 25  C 0 38.810483870967744  11.189516129032256 50  25 50  C 38.810483870967744 50  50 38.810483870967744  50 25  Z " stroke-width="0" stroke-dasharray="0" stroke="rgba(255, 255, 255, 0)" fill="none" class="stroke" mask="url(#Clip1072)" />
    <path d="M 45.16129032258061 25  C 45.16129032258061 36.139112903225794  36.139112903225794 45.16129032258064  25 45.16129032258064  C 13.860887096774208 45.16129032258064  4.838709677419331 36.139112903225794  4.838709677419331 25  C 4.838709677419331 13.860887096774208  13.860887096774208 4.838709677419359  25 4.838709677419359  C 36.139112903225794 4.838709677419359  45.16129032258061 13.860887096774208  45.16129032258061 25  Z " stroke-width="0" stroke-dasharray="0" stroke="rgba(255, 255, 255, 0)" fill="none" class="stroke" mask="url(#Clip1072)" />
    <path d="M 22.98387096774195 12.096774193548384  C 22.31854838709677 12.096774193548384  21.774193548387075 12.64112903225805  22 13.306451612903231  L 22 25  L 15.020161290322562 25  C 13.941532258064512 25  13.4072580645161 26.300403225806463  14.163306451612925 27.066532258064512  L 24.143145161290306 37.04637096774195  C 24.616935483870975 37.52016129032256  25.38306451612902 37.52016129032256  25.85685483870969 37.04637096774195  L 35.836693548387075 27.066532258064512  C 36.60282258064518 26.300403225806463  36.05846774193549 25  34.97983870967744 25  L 28 25  L 28 13.306451612903231  C 28.22580645161292 12.64112903225805  27.68145161290323 12.096774193548384  27.01612903225805 12.096774193548384  L 22.98387096774195 12.096774193548384  Z " stroke-width="0" stroke-dasharray="0" stroke="rgba(255, 255, 255, 0)" fill="none" class="stroke" mask="url(#Clip1072)" />
  </g>
</svg>