<?xml version="1.0" encoding="utf-8"?>
<svg version="1.1" xmlns:xlink="http://www.w3.org/1999/xlink" width="48px" height="48px" xmlns="http://www.w3.org/2000/svg">
  <defs>
    <pattern id="BGPattern" patternUnits="userSpaceOnUse" alignment="0 0" imageRepeat="None" />
    <mask fill="white" id="Clip7041">
      <path d="M 24 0  L 1.992 0  C 0.8927616219386344 0.002200684044435602  0.002200684044435602 0.8927616219386344  0 1.992  L 0 24  C 0 37.256  10.744 48  24 48  C 37.256 48  48 37.256  48 24  C 48 10.744  37.256 0  24 0  Z M 7.512000000000004 23.668  C 7.602000000000004 14.468  15.132000000000005 7.0760000000000005  24.332000000000008 7.1640000000000015  C 33.53497605793289 7.250854870695639  40.92545253317138 14.781010814087411  40.84 23.984  C 40.75095139522552 33.18540800662457  33.22144204299246 40.57345927590247  24.020000000000003 40.488  C 14.826000000000004 40.397999999999996  7.428000000000004 32.868  7.512000000000004 23.668  Z M 24.285999999999994 11.703999999999999  L 24.270000000000003 11.704  C 17.534371049138333 11.650723498032432  12.027070492465452 17.06049428042792  11.959999999999999 23.796  C 11.90007217188415 30.54005277557594  17.315992947678286 36.05713041875268  24.06 36.122  C 24.09681209256778 36.12233330556357  24.13362550540664 36.122499960906886  24.17043910685797 36.122499960906886  C 30.86682414439297 36.122499960906886  36.311181167964634 30.724143979280072  36.367999999999995 24.028000000000002  C 36.42906869563245 17.29078895010991  31.023097334012874 11.776537082819747  24.285999999999994 11.703999999999999  Z M 24.174000000000007 17.729746365604207  C 24.19266695385474 17.729746365604207  24.21133381197951 17.729830911269953  24.229999999999997 17.73  C 27.644164839883402 17.768461425034218  30.383769742587774 20.56173145805601  30.356 23.976000000000003  C 30.32546391736249 27.365062387717476  27.569450632056864 30.0963553496416  24.180250679238476 30.0963553496416  C 24.15816664299591 30.0963553496416  24.136082765589332 30.09623689805722  24.114 30.096  L 24.118000000000002 30.094  C 20.72562398196266 30.06326996813166  17.991746365604207 27.304515200056375  17.991746365604207 23.912  C 17.991746365604207 20.497635598137204  20.759635598137205 17.729746365604207  24.174000000000007 17.729746365604207  Z " fill-rule="evenodd" />
    </mask>
  </defs>
  <g>
    <path d="M 24 0  L 1.992 0  C 0.8927616219386344 0.002200684044435602  0.002200684044435602 0.8927616219386344  0 1.992  L 0 24  C 0 37.256  10.744 48  24 48  C 37.256 48  48 37.256  48 24  C 48 10.744  37.256 0  24 0  Z M 7.512000000000004 23.668  C 7.602000000000004 14.468  15.132000000000005 7.0760000000000005  24.332000000000008 7.1640000000000015  C 33.53497605793289 7.250854870695639  40.92545253317138 14.781010814087411  40.84 23.984  C 40.75095139522552 33.18540800662457  33.22144204299246 40.57345927590247  24.020000000000003 40.488  C 14.826000000000004 40.397999999999996  7.428000000000004 32.868  7.512000000000004 23.668  Z M 24.285999999999994 11.703999999999999  L 24.270000000000003 11.704  C 17.534371049138333 11.650723498032432  12.027070492465452 17.06049428042792  11.959999999999999 23.796  C 11.90007217188415 30.54005277557594  17.315992947678286 36.05713041875268  24.06 36.122  C 24.09681209256778 36.12233330556357  24.13362550540664 36.122499960906886  24.17043910685797 36.122499960906886  C 30.86682414439297 36.122499960906886  36.311181167964634 30.724143979280072  36.367999999999995 24.028000000000002  C 36.42906869563245 17.29078895010991  31.023097334012874 11.776537082819747  24.285999999999994 11.703999999999999  Z M 24.174000000000007 17.729746365604207  C 24.19266695385474 17.729746365604207  24.21133381197951 17.729830911269953  24.229999999999997 17.73  C 27.644164839883402 17.768461425034218  30.383769742587774 20.56173145805601  30.356 23.976000000000003  C 30.32546391736249 27.365062387717476  27.569450632056864 30.0963553496416  24.180250679238476 30.0963553496416  C 24.15816664299591 30.0963553496416  24.136082765589332 30.09623689805722  24.114 30.096  L 24.118000000000002 30.094  C 20.72562398196266 30.06326996813166  17.991746365604207 27.304515200056375  17.991746365604207 23.912  C 17.991746365604207 20.497635598137204  20.759635598137205 17.729746365604207  24.174000000000007 17.729746365604207  Z " fill-rule="nonzero" fill="rgba(243, 109, 93, 1)" stroke="none" class="fill" />
    <path d="M 24 0  L 1.992 0  C 0.8927616219386344 0.002200684044435602  0.002200684044435602 0.8927616219386344  0 1.992  L 0 24  C 0 37.256  10.744 48  24 48  C 37.256 48  48 37.256  48 24  C 48 10.744  37.256 0  24 0  Z " stroke-width="0" stroke-dasharray="0" stroke="rgba(255, 255, 255, 0)" fill="none" class="stroke" mask="url(#Clip7041)" />
    <path d="M 7.512000000000004 23.668  C 7.602000000000004 14.468  15.132000000000005 7.0760000000000005  24.332000000000008 7.1640000000000015  C 33.53497605793289 7.250854870695639  40.92545253317138 14.781010814087411  40.84 23.984  C 40.75095139522552 33.18540800662457  33.22144204299246 40.57345927590247  24.020000000000003 40.488  C 14.826000000000004 40.397999999999996  7.428000000000004 32.868  7.512000000000004 23.668  Z " stroke-width="0" stroke-dasharray="0" stroke="rgba(255, 255, 255, 0)" fill="none" class="stroke" mask="url(#Clip7041)" />
    <path d="M 24.285999999999994 11.703999999999999  L 24.270000000000003 11.704  C 17.534371049138333 11.650723498032432  12.027070492465452 17.06049428042792  11.959999999999999 23.796  C 11.90007217188415 30.54005277557594  17.315992947678286 36.05713041875268  24.06 36.122  C 24.09681209256778 36.12233330556357  24.13362550540664 36.122499960906886  24.17043910685797 36.122499960906886  C 30.86682414439297 36.122499960906886  36.311181167964634 30.724143979280072  36.367999999999995 24.028000000000002  C 36.42906869563245 17.29078895010991  31.023097334012874 11.776537082819747  24.285999999999994 11.703999999999999  Z " stroke-width="0" stroke-dasharray="0" stroke="rgba(255, 255, 255, 0)" fill="none" class="stroke" mask="url(#Clip7041)" />
    <path d="M 24.174000000000007 17.729746365604207  C 24.19266695385474 17.729746365604207  24.21133381197951 17.729830911269953  24.229999999999997 17.73  C 27.644164839883402 17.768461425034218  30.383769742587774 20.56173145805601  30.356 23.976000000000003  C 30.32546391736249 27.365062387717476  27.569450632056864 30.0963553496416  24.180250679238476 30.0963553496416  C 24.15816664299591 30.0963553496416  24.136082765589332 30.09623689805722  24.114 30.096  L 24.118000000000002 30.094  C 20.72562398196266 30.06326996813166  17.991746365604207 27.304515200056375  17.991746365604207 23.912  C 17.991746365604207 20.497635598137204  20.759635598137205 17.729746365604207  24.174000000000007 17.729746365604207  Z " stroke-width="0" stroke-dasharray="0" stroke="rgba(255, 255, 255, 0)" fill="none" class="stroke" mask="url(#Clip7041)" />
  </g>
</svg>