<?xml version="1.0" encoding="utf-8"?>
<svg version="1.1" xmlns:xlink="http://www.w3.org/1999/xlink" width="10px" height="7px" xmlns="http://www.w3.org/2000/svg">
  <defs>
    <pattern id="BGPattern" patternUnits="userSpaceOnUse" alignment="0 0" imageRepeat="None" />
    <mask fill="white" id="Clip4351">
      <path d="M 8.59 6.41  L 5 2.83  L 1.4100000000000001 6.42  L 0 5  L 5 0  L 10 5  L 8.59 6.41  Z " fill-rule="evenodd" />
    </mask>
  </defs>
  <g transform="matrix(1 0 0 1 -3 -7 )">
    <path d="M 8.59 6.41  L 5 2.83  L 1.4100000000000001 6.42  L 0 5  L 5 0  L 10 5  L 8.59 6.41  Z " fill-rule="nonzero" fill="rgba(0, 0, 0, 1)" stroke="none" transform="matrix(1 0 0 1 3 7 )" class="fill" />
    <path d="M 8.59 6.41  L 5 2.83  L 1.4100000000000001 6.42  L 0 5  L 5 0  L 10 5  L 8.59 6.41  Z " stroke-width="0" stroke-dasharray="0" stroke="rgba(255, 255, 255, 0)" fill="none" transform="matrix(1 0 0 1 3 7 )" class="stroke" mask="url(#Clip4351)" />
  </g>
</svg>