<?xml version="1.0" encoding="utf-8"?>
<svg version="1.1" xmlns:xlink="http://www.w3.org/1999/xlink" width="26px" height="18px" xmlns="http://www.w3.org/2000/svg">
  <defs>
    <pattern id="BGPattern" patternUnits="userSpaceOnUse" alignment="0 0" imageRepeat="None" />
    <mask fill="white" id="Clip508">
      <path d="M 10.039999999999997 16.736  C 9.719999999999997 17.056  9.319999999999997 17.2  8.904 17.2  C 8.504 17.2  8.104 17.04  7.783999999999999 16.736  L 0.9839999999999992 9.952000000000002  C 0.6639999999999993 9.648000000000003  0.5199999999999991 9.232000000000003  0.5199999999999991 8.816000000000003  C 0.5199999999999991 8.416000000000004  0.6799999999999993 8.000000000000004  0.9839999999999992 7.6960000000000015  L 7.783999999999999 0.8960000000000008  C 8.088 0.5920000000000005  8.504 0.4320000000000004  8.904 0.4320000000000004  C 9.32 0.4320000000000004  9.72 0.5760000000000005  10.04 0.8960000000000008  L 11.351999999999999 2.208  L 6.567999999999998 7.007999999999999  C 6.071999999999997 7.52  5.815999999999997 8.16  5.815999999999997 8.815999999999999  C 5.815999999999997 9.471999999999998  6.055999999999997 10.128  6.567999999999998 10.64  L 11.351999999999997 15.424  L 10.039999999999997 16.736  Z M 18.232 16.736  C 17.912 17.056  17.512 17.2  17.096 17.2  C 16.696 17.2  16.296 17.04  15.975999999999999 16.736  L 9.175999999999998 9.952000000000002  C 8.855999999999998 9.648000000000003  8.711999999999998 9.232000000000003  8.711999999999998 8.816000000000003  C 8.711999999999998 8.416000000000004  8.871999999999998 8.000000000000004  9.175999999999998 7.6960000000000015  L 15.975999999999999 0.8960000000000008  C 16.279999999999998 0.5920000000000005  16.695999999999998 0.4320000000000004  17.096 0.4320000000000004  C 17.512 0.4320000000000004  17.928 0.5760000000000005  18.232 0.8960000000000008  L 25.016 7.6960000000000015  C 25.319999999999997 8.016000000000002  25.479999999999997 8.416  25.479999999999997 8.816000000000003  C 25.479999999999997 9.232000000000003  25.336 9.632000000000001  25.016 9.952000000000002  L 18.232 16.736  Z " fill-rule="evenodd" />
    </mask>
  </defs>
  <g>
    <path d="M 10.039999999999997 16.736  C 9.719999999999997 17.056  9.319999999999997 17.2  8.904 17.2  C 8.504 17.2  8.104 17.04  7.783999999999999 16.736  L 0.9839999999999992 9.952000000000002  C 0.6639999999999993 9.648000000000003  0.5199999999999991 9.232000000000003  0.5199999999999991 8.816000000000003  C 0.5199999999999991 8.416000000000004  0.6799999999999993 8.000000000000004  0.9839999999999992 7.6960000000000015  L 7.783999999999999 0.8960000000000008  C 8.088 0.5920000000000005  8.504 0.4320000000000004  8.904 0.4320000000000004  C 9.32 0.4320000000000004  9.72 0.5760000000000005  10.04 0.8960000000000008  L 11.351999999999999 2.208  L 6.567999999999998 7.007999999999999  C 6.071999999999997 7.52  5.815999999999997 8.16  5.815999999999997 8.815999999999999  C 5.815999999999997 9.471999999999998  6.055999999999997 10.128  6.567999999999998 10.64  L 11.351999999999997 15.424  L 10.039999999999997 16.736  Z M 18.232 16.736  C 17.912 17.056  17.512 17.2  17.096 17.2  C 16.696 17.2  16.296 17.04  15.975999999999999 16.736  L 9.175999999999998 9.952000000000002  C 8.855999999999998 9.648000000000003  8.711999999999998 9.232000000000003  8.711999999999998 8.816000000000003  C 8.711999999999998 8.416000000000004  8.871999999999998 8.000000000000004  9.175999999999998 7.6960000000000015  L 15.975999999999999 0.8960000000000008  C 16.279999999999998 0.5920000000000005  16.695999999999998 0.4320000000000004  17.096 0.4320000000000004  C 17.512 0.4320000000000004  17.928 0.5760000000000005  18.232 0.8960000000000008  L 25.016 7.6960000000000015  C 25.319999999999997 8.016000000000002  25.479999999999997 8.416  25.479999999999997 8.816000000000003  C 25.479999999999997 9.232000000000003  25.336 9.632000000000001  25.016 9.952000000000002  L 18.232 16.736  Z " fill-rule="nonzero" fill="rgba(0, 0, 0, 1)" stroke="none" class="fill" />
    <path d="M 10.039999999999997 16.736  C 9.719999999999997 17.056  9.319999999999997 17.2  8.904 17.2  C 8.504 17.2  8.104 17.04  7.783999999999999 16.736  L 0.9839999999999992 9.952000000000002  C 0.6639999999999993 9.648000000000003  0.5199999999999991 9.232000000000003  0.5199999999999991 8.816000000000003  C 0.5199999999999991 8.416000000000004  0.6799999999999993 8.000000000000004  0.9839999999999992 7.6960000000000015  L 7.783999999999999 0.8960000000000008  C 8.088 0.5920000000000005  8.504 0.4320000000000004  8.904 0.4320000000000004  C 9.32 0.4320000000000004  9.72 0.5760000000000005  10.04 0.8960000000000008  L 11.351999999999999 2.208  L 6.567999999999998 7.007999999999999  C 6.071999999999997 7.52  5.815999999999997 8.16  5.815999999999997 8.815999999999999  C 5.815999999999997 9.471999999999998  6.055999999999997 10.128  6.567999999999998 10.64  L 11.351999999999997 15.424  L 10.039999999999997 16.736  Z " stroke-width="0" stroke-dasharray="0" stroke="rgba(255, 255, 255, 0)" fill="none" class="stroke" mask="url(#Clip508)" />
    <path d="M 18.232 16.736  C 17.912 17.056  17.512 17.2  17.096 17.2  C 16.696 17.2  16.296 17.04  15.975999999999999 16.736  L 9.175999999999998 9.952000000000002  C 8.855999999999998 9.648000000000003  8.711999999999998 9.232000000000003  8.711999999999998 8.816000000000003  C 8.711999999999998 8.416000000000004  8.871999999999998 8.000000000000004  9.175999999999998 7.6960000000000015  L 15.975999999999999 0.8960000000000008  C 16.279999999999998 0.5920000000000005  16.695999999999998 0.4320000000000004  17.096 0.4320000000000004  C 17.512 0.4320000000000004  17.928 0.5760000000000005  18.232 0.8960000000000008  L 25.016 7.6960000000000015  C 25.319999999999997 8.016000000000002  25.479999999999997 8.416  25.479999999999997 8.816000000000003  C 25.479999999999997 9.232000000000003  25.336 9.632000000000001  25.016 9.952000000000002  L 18.232 16.736  Z " stroke-width="0" stroke-dasharray="0" stroke="rgba(255, 255, 255, 0)" fill="none" class="stroke" mask="url(#Clip508)" />
  </g>
</svg>