<?xml version="1.0" encoding="utf-8"?>
<svg version="1.1" xmlns:xlink="http://www.w3.org/1999/xlink" width="24px" height="24px" xmlns="http://www.w3.org/2000/svg">
  <defs>
    <pattern id="BGPattern" patternUnits="userSpaceOnUse" alignment="0 0" imageRepeat="None" />
    <mask fill="white" id="Clip5927">
      <path d="M 11.193 11  L 11.193 0  L 0 0  L 0 11  L 11.193 11  Z M 24 11  L 24 0  L 12.807 0  L 12.807 11  L 24 11  Z M 11.193 24  L 11.193 12  L 0 12  L 0 24  L 11.193 24  Z M 24 24  L 24 12  L 12.807 12  L 12.807 24  L 24 24  Z " fill-rule="evenodd" />
    </mask>
  </defs>
  <g>
    <path d="M 11.193 11  L 11.193 0  L 0 0  L 0 11  L 11.193 11  Z M 24 11  L 24 0  L 12.807 0  L 12.807 11  L 24 11  Z M 11.193 24  L 11.193 12  L 0 12  L 0 24  L 11.193 24  Z M 24 24  L 24 12  L 12.807 12  L 12.807 24  L 24 24  Z " fill-rule="nonzero" fill="rgba(0, 0, 0, 1)" stroke="none" class="fill" />
    <path d="M 11.193 11  L 11.193 0  L 0 0  L 0 11  L 11.193 11  Z " stroke-width="0" stroke-dasharray="0" stroke="rgba(255, 255, 255, 0)" fill="none" class="stroke" mask="url(#Clip5927)" />
    <path d="M 24 11  L 24 0  L 12.807 0  L 12.807 11  L 24 11  Z " stroke-width="0" stroke-dasharray="0" stroke="rgba(255, 255, 255, 0)" fill="none" class="stroke" mask="url(#Clip5927)" />
    <path d="M 11.193 24  L 11.193 12  L 0 12  L 0 24  L 11.193 24  Z " stroke-width="0" stroke-dasharray="0" stroke="rgba(255, 255, 255, 0)" fill="none" class="stroke" mask="url(#Clip5927)" />
    <path d="M 24 24  L 24 12  L 12.807 12  L 12.807 24  L 24 24  Z " stroke-width="0" stroke-dasharray="0" stroke="rgba(255, 255, 255, 0)" fill="none" class="stroke" mask="url(#Clip5927)" />
  </g>
</svg>