<?xml version="1.0" encoding="utf-8"?>
<svg version="1.1" xmlns:xlink="http://www.w3.org/1999/xlink" width="50px" height="39px" xmlns="http://www.w3.org/2000/svg">
  <defs>
    <pattern id="BGPattern" patternUnits="userSpaceOnUse" alignment="0 0" imageRepeat="None" />
    <mask fill="white" id="Clip692">
      <path d="M 40.564236111111086 16.13715277777777  L 40.807291666666686 17.30034722222223  C 40.807291666666686 17.30034722222223  41.467013888888914 20.529513888888914  41.614583333333314 21.20659722222223  L 38.71527777777777 21.20659722222223  C 39.001736111111086 20.43402777777777  40.104166666666686 17.430555555555543  40.104166666666686 17.430555555555543  C 40.08680555555554 17.45659722222223  40.390625 16.640625  40.564236111111086 16.13715277777777  Z M 45.833333333333314 0  C 48.13368055555554 0  50 1.8663194444444573  50 4.166666666666686  L 50 34.72222222222223  C 50 37.02256944444446  48.13368055555554 38.888888888888914  45.833333333333314 38.888888888888914  L 4.166666666666686 38.888888888888914  C 1.8663194444444573 38.888888888888914  0 37.02256944444446  0 34.72222222222223  L 0 4.166666666666686  C 0 1.8663194444444573  1.8663194444444573 0  4.166666666666686 0  L 45.833333333333314 0  Z M 9.548611111111086 25.972222222222225  L 13.237847222222229 25.972222222222225  L 18.723958333333314 12.500000000000002  L 15.03472222222223 12.500000000000002  L 11.623263888888914 21.701388888888914  L 11.25 19.835069444444457  L 10.034722222222229 13.637152777777771  C 9.835069444444457 12.777777777777771  9.21875 12.534722222222229  8.454861111111086 12.500000000000002  L 2.8385416666666856 12.500000000000002  L 2.7777777777777715 12.769097222222229  C 4.149305555555543 13.116319444444457  5.373263888888914 13.619791666666686  6.4409722222222285 14.253472222222229  L 9.548611111111086 25.972222222222225  Z M 17.951388888888914 25.98958333333337  L 21.432291666666686 25.98958333333337  L 23.619791666666686 12.500000000000002  L 20.130208333333314 12.500000000000002  L 17.951388888888914 25.98958333333337  Z M 27.500000000000004 26.180555555555543  C 31.163194444444457 26.189236111111143  33.55034722222223 24.375  33.576388888888914 21.579861111111143  C 33.59375 20.04340277777777  32.65625 18.87152777777777  30.651041666666686 17.907986111111143  C 29.427083333333314 17.291666666666686  28.680555555555543 16.875  28.680555555555543 16.241319444444457  C 28.697916666666686 15.66840277777777  29.314236111111086 15.078125  30.68576388888891 15.078125  C 31.822916666666686 15.052083333333314  32.65625 15.321180555555543  33.28125 15.590277777777771  L 33.59375 15.737847222222229  L 34.07118055555554 12.821180555555545  C 33.385416666666686 12.552083333333314  32.291666666666686 12.248263888888914  30.946180555555543 12.248263888888914  C 27.500000000000004 12.248263888888914  25.078125 14.088541666666686  25.060763888888914 16.710069444444457  C 25.03472222222223 18.64583333333337  26.796874999999996 19.72222222222223  28.11631944444446 20.373263888888914  C 29.461805555555543 21.032986111111143  29.921874999999996 21.467013888888914  29.921874999999996 22.048611111111143  C 29.90451388888891 22.951388888888914  28.828125 23.368055555555543  27.829861111111086 23.368055555555543  C 26.440972222222232 23.368055555555543  25.694444444444457 23.151041666666686  24.557291666666686 22.647569444444457  L 24.09722222222223 22.430555555555543  L 23.611111111111086 25.460069444444457  C 24.427083333333314 25.83333333333337  25.937500000000004 26.163194444444457  27.500000000000004 26.180555555555543  Z M 42.604166666666686 25.98958333333337  L 45.833333333333314 25.98958333333337  L 43.020833333333314 12.500000000000002  L 40.32118055555554 12.500000000000002  C 39.48784722222223 12.500000000000002  38.854166666666686 12.743055555555543  38.498263888888914 13.619791666666686  L 33.31597222222223 25.98958333333337  L 36.979166666666686 25.98958333333337  C 36.979166666666686 25.98958333333337  37.578125 24.322916666666686  37.708333333333314 23.967013888888914  L 42.1875 23.967013888888914  C 42.291666666666686 24.444444444444457  42.604166666666686 25.98958333333337  42.604166666666686 25.98958333333337  Z " fill-rule="evenodd" />
    </mask>
  </defs>
  <g>
    <path d="M 40.564236111111086 16.13715277777777  L 40.807291666666686 17.30034722222223  C 40.807291666666686 17.30034722222223  41.467013888888914 20.529513888888914  41.614583333333314 21.20659722222223  L 38.71527777777777 21.20659722222223  C 39.001736111111086 20.43402777777777  40.104166666666686 17.430555555555543  40.104166666666686 17.430555555555543  C 40.08680555555554 17.45659722222223  40.390625 16.640625  40.564236111111086 16.13715277777777  Z M 45.833333333333314 0  C 48.13368055555554 0  50 1.8663194444444573  50 4.166666666666686  L 50 34.72222222222223  C 50 37.02256944444446  48.13368055555554 38.888888888888914  45.833333333333314 38.888888888888914  L 4.166666666666686 38.888888888888914  C 1.8663194444444573 38.888888888888914  0 37.02256944444446  0 34.72222222222223  L 0 4.166666666666686  C 0 1.8663194444444573  1.8663194444444573 0  4.166666666666686 0  L 45.833333333333314 0  Z M 9.548611111111086 25.972222222222225  L 13.237847222222229 25.972222222222225  L 18.723958333333314 12.500000000000002  L 15.03472222222223 12.500000000000002  L 11.623263888888914 21.701388888888914  L 11.25 19.835069444444457  L 10.034722222222229 13.637152777777771  C 9.835069444444457 12.777777777777771  9.21875 12.534722222222229  8.454861111111086 12.500000000000002  L 2.8385416666666856 12.500000000000002  L 2.7777777777777715 12.769097222222229  C 4.149305555555543 13.116319444444457  5.373263888888914 13.619791666666686  6.4409722222222285 14.253472222222229  L 9.548611111111086 25.972222222222225  Z M 17.951388888888914 25.98958333333337  L 21.432291666666686 25.98958333333337  L 23.619791666666686 12.500000000000002  L 20.130208333333314 12.500000000000002  L 17.951388888888914 25.98958333333337  Z M 27.500000000000004 26.180555555555543  C 31.163194444444457 26.189236111111143  33.55034722222223 24.375  33.576388888888914 21.579861111111143  C 33.59375 20.04340277777777  32.65625 18.87152777777777  30.651041666666686 17.907986111111143  C 29.427083333333314 17.291666666666686  28.680555555555543 16.875  28.680555555555543 16.241319444444457  C 28.697916666666686 15.66840277777777  29.314236111111086 15.078125  30.68576388888891 15.078125  C 31.822916666666686 15.052083333333314  32.65625 15.321180555555543  33.28125 15.590277777777771  L 33.59375 15.737847222222229  L 34.07118055555554 12.821180555555545  C 33.385416666666686 12.552083333333314  32.291666666666686 12.248263888888914  30.946180555555543 12.248263888888914  C 27.500000000000004 12.248263888888914  25.078125 14.088541666666686  25.060763888888914 16.710069444444457  C 25.03472222222223 18.64583333333337  26.796874999999996 19.72222222222223  28.11631944444446 20.373263888888914  C 29.461805555555543 21.032986111111143  29.921874999999996 21.467013888888914  29.921874999999996 22.048611111111143  C 29.90451388888891 22.951388888888914  28.828125 23.368055555555543  27.829861111111086 23.368055555555543  C 26.440972222222232 23.368055555555543  25.694444444444457 23.151041666666686  24.557291666666686 22.647569444444457  L 24.09722222222223 22.430555555555543  L 23.611111111111086 25.460069444444457  C 24.427083333333314 25.83333333333337  25.937500000000004 26.163194444444457  27.500000000000004 26.180555555555543  Z M 42.604166666666686 25.98958333333337  L 45.833333333333314 25.98958333333337  L 43.020833333333314 12.500000000000002  L 40.32118055555554 12.500000000000002  C 39.48784722222223 12.500000000000002  38.854166666666686 12.743055555555543  38.498263888888914 13.619791666666686  L 33.31597222222223 25.98958333333337  L 36.979166666666686 25.98958333333337  C 36.979166666666686 25.98958333333337  37.578125 24.322916666666686  37.708333333333314 23.967013888888914  L 42.1875 23.967013888888914  C 42.291666666666686 24.444444444444457  42.604166666666686 25.98958333333337  42.604166666666686 25.98958333333337  Z " fill-rule="nonzero" fill="rgba(0, 0, 0, 1)" stroke="none" class="fill" />
    <path d="M 40.564236111111086 16.13715277777777  L 40.807291666666686 17.30034722222223  C 40.807291666666686 17.30034722222223  41.467013888888914 20.529513888888914  41.614583333333314 21.20659722222223  L 38.71527777777777 21.20659722222223  C 39.001736111111086 20.43402777777777  40.104166666666686 17.430555555555543  40.104166666666686 17.430555555555543  C 40.08680555555554 17.45659722222223  40.390625 16.640625  40.564236111111086 16.13715277777777  Z " stroke-width="0" stroke-dasharray="0" stroke="rgba(255, 255, 255, 0)" fill="none" class="stroke" mask="url(#Clip692)" />
    <path d="M 45.833333333333314 0  C 48.13368055555554 0  50 1.8663194444444573  50 4.166666666666686  L 50 34.72222222222223  C 50 37.02256944444446  48.13368055555554 38.888888888888914  45.833333333333314 38.888888888888914  L 4.166666666666686 38.888888888888914  C 1.8663194444444573 38.888888888888914  0 37.02256944444446  0 34.72222222222223  L 0 4.166666666666686  C 0 1.8663194444444573  1.8663194444444573 0  4.166666666666686 0  L 45.833333333333314 0  Z " stroke-width="0" stroke-dasharray="0" stroke="rgba(255, 255, 255, 0)" fill="none" class="stroke" mask="url(#Clip692)" />
    <path d="M 9.548611111111086 25.972222222222225  L 13.237847222222229 25.972222222222225  L 18.723958333333314 12.500000000000002  L 15.03472222222223 12.500000000000002  L 11.623263888888914 21.701388888888914  L 11.25 19.835069444444457  L 10.034722222222229 13.637152777777771  C 9.835069444444457 12.777777777777771  9.21875 12.534722222222229  8.454861111111086 12.500000000000002  L 2.8385416666666856 12.500000000000002  L 2.7777777777777715 12.769097222222229  C 4.149305555555543 13.116319444444457  5.373263888888914 13.619791666666686  6.4409722222222285 14.253472222222229  L 9.548611111111086 25.972222222222225  Z " stroke-width="0" stroke-dasharray="0" stroke="rgba(255, 255, 255, 0)" fill="none" class="stroke" mask="url(#Clip692)" />
    <path d="M 17.951388888888914 25.98958333333337  L 21.432291666666686 25.98958333333337  L 23.619791666666686 12.500000000000002  L 20.130208333333314 12.500000000000002  L 17.951388888888914 25.98958333333337  Z " stroke-width="0" stroke-dasharray="0" stroke="rgba(255, 255, 255, 0)" fill="none" class="stroke" mask="url(#Clip692)" />
    <path d="M 27.500000000000004 26.180555555555543  C 31.163194444444457 26.189236111111143  33.55034722222223 24.375  33.576388888888914 21.579861111111143  C 33.59375 20.04340277777777  32.65625 18.87152777777777  30.651041666666686 17.907986111111143  C 29.427083333333314 17.291666666666686  28.680555555555543 16.875  28.680555555555543 16.241319444444457  C 28.697916666666686 15.66840277777777  29.314236111111086 15.078125  30.68576388888891 15.078125  C 31.822916666666686 15.052083333333314  32.65625 15.321180555555543  33.28125 15.590277777777771  L 33.59375 15.737847222222229  L 34.07118055555554 12.821180555555545  C 33.385416666666686 12.552083333333314  32.291666666666686 12.248263888888914  30.946180555555543 12.248263888888914  C 27.500000000000004 12.248263888888914  25.078125 14.088541666666686  25.060763888888914 16.710069444444457  C 25.03472222222223 18.64583333333337  26.796874999999996 19.72222222222223  28.11631944444446 20.373263888888914  C 29.461805555555543 21.032986111111143  29.921874999999996 21.467013888888914  29.921874999999996 22.048611111111143  C 29.90451388888891 22.951388888888914  28.828125 23.368055555555543  27.829861111111086 23.368055555555543  C 26.440972222222232 23.368055555555543  25.694444444444457 23.151041666666686  24.557291666666686 22.647569444444457  L 24.09722222222223 22.430555555555543  L 23.611111111111086 25.460069444444457  C 24.427083333333314 25.83333333333337  25.937500000000004 26.163194444444457  27.500000000000004 26.180555555555543  Z " stroke-width="0" stroke-dasharray="0" stroke="rgba(255, 255, 255, 0)" fill="none" class="stroke" mask="url(#Clip692)" />
    <path d="M 42.604166666666686 25.98958333333337  L 45.833333333333314 25.98958333333337  L 43.020833333333314 12.500000000000002  L 40.32118055555554 12.500000000000002  C 39.48784722222223 12.500000000000002  38.854166666666686 12.743055555555543  38.498263888888914 13.619791666666686  L 33.31597222222223 25.98958333333337  L 36.979166666666686 25.98958333333337  C 36.979166666666686 25.98958333333337  37.578125 24.322916666666686  37.708333333333314 23.967013888888914  L 42.1875 23.967013888888914  C 42.291666666666686 24.444444444444457  42.604166666666686 25.98958333333337  42.604166666666686 25.98958333333337  Z " stroke-width="0" stroke-dasharray="0" stroke="rgba(255, 255, 255, 0)" fill="none" class="stroke" mask="url(#Clip692)" />
  </g>
</svg>