<?xml version="1.0" encoding="utf-8"?>
<svg version="1.1" xmlns:xlink="http://www.w3.org/1999/xlink" width="7px" height="14px" xmlns="http://www.w3.org/2000/svg">
  <defs>
    <pattern id="BGPattern" patternUnits="userSpaceOnUse" alignment="0 0" imageRepeat="None" />
    <mask fill="white" id="Clip3932">
      <path d="M 4 2  L 7 2  L 7 0  L 4 0  C 2.8954305003384135 0  2 0.8954305003384135  2 2  L 2 4  L 0 4  L 0 6  L 2 6  L 2 14  L 4 14  L 4 6  L 7 6  L 7 4  L 4 4  L 4 2  Z " fill-rule="evenodd" />
    </mask>
  </defs>
  <g transform="matrix(1 0 0 1 -17 -9 )">
    <path d="M 4 2  L 7 2  L 7 0  L 4 0  C 2.8954305003384135 0  2 0.8954305003384135  2 2  L 2 4  L 0 4  L 0 6  L 2 6  L 2 14  L 4 14  L 4 6  L 7 6  L 7 4  L 4 4  L 4 2  Z " fill-rule="nonzero" fill="rgba(0, 0, 0, 1)" stroke="none" transform="matrix(1 0 0 1 17 9 )" class="fill" />
    <path d="M 4 2  L 7 2  L 7 0  L 4 0  C 2.8954305003384135 0  2 0.8954305003384135  2 2  L 2 4  L 0 4  L 0 6  L 2 6  L 2 14  L 4 14  L 4 6  L 7 6  L 7 4  L 4 4  L 4 2  Z " stroke-width="0" stroke-dasharray="0" stroke="rgba(255, 255, 255, 0)" fill="none" transform="matrix(1 0 0 1 17 9 )" class="stroke" mask="url(#Clip3932)" />
  </g>
</svg>