<?xml version="1.0" encoding="utf-8"?>
<svg version="1.1" xmlns:xlink="http://www.w3.org/1999/xlink" width="24px" height="23px" xmlns="http://www.w3.org/2000/svg">
  <defs>
    <pattern id="BGPattern" patternUnits="userSpaceOnUse" alignment="0 0" imageRepeat="None" />
    <mask fill="white" id="Clip5088">
      <path d="M 21 0  L 3 0  C 1.3431457505076196 0  0 1.3431457505076196  0 3  L 0 22.1895  C 8.796989372040738E-05 22.603651340945696  0.33584863279220384 22.93934069249021  0.7499999830807447 22.93934069249021  C 0.9492408826710381 22.93934069249021  1.1402936041271703 22.860062561404604  1.281 22.718999999999998  L 5.5605 18.4395  C 5.8417390970361875 18.15817593778357  6.223207779781779 18.000084956108243  6.6209999999999996 18  L 21 18  C 22.65685424949238 18  24 16.65685424949238  24 15  L 24 3  C 24 1.3431457505076196  22.65685424949238 0  21 0  Z M 12 13.6875  C 3.2624999999999997 7.9125000000000005  9.504000000000001 3.423  12 5.989499999999999  C 14.495999999999999 3.423  20.737499999999997 7.913999999999999  12 13.6875  Z " fill-rule="evenodd" />
    </mask>
  </defs>
  <g>
    <path d="M 21 0  L 3 0  C 1.3431457505076196 0  0 1.3431457505076196  0 3  L 0 22.1895  C 8.796989372040738E-05 22.603651340945696  0.33584863279220384 22.93934069249021  0.7499999830807447 22.93934069249021  C 0.9492408826710381 22.93934069249021  1.1402936041271703 22.860062561404604  1.281 22.718999999999998  L 5.5605 18.4395  C 5.8417390970361875 18.15817593778357  6.223207779781779 18.000084956108243  6.6209999999999996 18  L 21 18  C 22.65685424949238 18  24 16.65685424949238  24 15  L 24 3  C 24 1.3431457505076196  22.65685424949238 0  21 0  Z M 12 13.6875  C 3.2624999999999997 7.9125000000000005  9.504000000000001 3.423  12 5.989499999999999  C 14.495999999999999 3.423  20.737499999999997 7.913999999999999  12 13.6875  Z " fill-rule="nonzero" fill="rgba(0, 0, 0, 1)" stroke="none" class="fill" />
    <path d="M 21 0  L 3 0  C 1.3431457505076196 0  0 1.3431457505076196  0 3  L 0 22.1895  C 8.796989372040738E-05 22.603651340945696  0.33584863279220384 22.93934069249021  0.7499999830807447 22.93934069249021  C 0.9492408826710381 22.93934069249021  1.1402936041271703 22.860062561404604  1.281 22.718999999999998  L 5.5605 18.4395  C 5.8417390970361875 18.15817593778357  6.223207779781779 18.000084956108243  6.6209999999999996 18  L 21 18  C 22.65685424949238 18  24 16.65685424949238  24 15  L 24 3  C 24 1.3431457505076196  22.65685424949238 0  21 0  Z " stroke-width="0" stroke-dasharray="0" stroke="rgba(255, 255, 255, 0)" fill="none" class="stroke" mask="url(#Clip5088)" />
    <path d="M 12 13.6875  C 3.2624999999999997 7.9125000000000005  9.504000000000001 3.423  12 5.989499999999999  C 14.495999999999999 3.423  20.737499999999997 7.913999999999999  12 13.6875  Z " stroke-width="0" stroke-dasharray="0" stroke="rgba(255, 255, 255, 0)" fill="none" class="stroke" mask="url(#Clip5088)" />
  </g>
</svg>