<?xml version="1.0" encoding="utf-8"?>
<svg version="1.1" xmlns:xlink="http://www.w3.org/1999/xlink" width="10px" height="10px" xmlns="http://www.w3.org/2000/svg">
  <defs>
    <pattern id="BGPattern" patternUnits="userSpaceOnUse" alignment="0 0" imageRepeat="None" />
    <mask fill="white" id="Clip6522">
      <path d="M 0.11900000000000066 9.881  L 0.24799999999999933 9.841999999999999  L 8 3.5  C 8.82842712474619 3.5  9.5 2.82842712474619  9.5 2  C 9.5 1.1715728752538102  8.82842712474619 0.5  8 0.5  C 7.17157287525381 0.5  6.5 1.1715728752538102  6.5 2  L 0.15800000000000036 9.751999999999999  L 0.11900000000000066 9.881  Z " fill-rule="evenodd" />
    </mask>
  </defs>
  <g transform="matrix(1 0 0 1 -3 -10 )">
    <path d="M 0.11900000000000066 9.881  L 0.24799999999999933 9.841999999999999  L 8 3.5  C 8.82842712474619 3.5  9.5 2.82842712474619  9.5 2  C 9.5 1.1715728752538102  8.82842712474619 0.5  8 0.5  C 7.17157287525381 0.5  6.5 1.1715728752538102  6.5 2  L 0.15800000000000036 9.751999999999999  L 0.11900000000000066 9.881  Z " fill-rule="nonzero" fill="rgba(0, 0, 0, 1)" stroke="none" transform="matrix(1 0 0 1 3 10 )" class="fill" />
    <path d="M 0.11900000000000066 9.881  L 0.24799999999999933 9.841999999999999  L 8 3.5  C 8.82842712474619 3.5  9.5 2.82842712474619  9.5 2  C 9.5 1.1715728752538102  8.82842712474619 0.5  8 0.5  C 7.17157287525381 0.5  6.5 1.1715728752538102  6.5 2  L 0.15800000000000036 9.751999999999999  L 0.11900000000000066 9.881  Z " stroke-width="0" stroke-dasharray="0" stroke="rgba(255, 255, 255, 0)" fill="none" transform="matrix(1 0 0 1 3 10 )" class="stroke" mask="url(#Clip6522)" />
  </g>
</svg>