<?xml version="1.0" encoding="utf-8"?>
<svg version="1.1" xmlns:xlink="http://www.w3.org/1999/xlink" width="14px" height="14px" xmlns="http://www.w3.org/2000/svg">
  <defs>
    <pattern id="BGPattern" patternUnits="userSpaceOnUse" alignment="0 0" imageRepeat="None" />
    <mask fill="white" id="Clip3292">
      <path d="M 14 7  C 14 3.0999999999999996  10.9 0  7 0  C 3.0999999999999996 0  0 3.0999999999999996  0 7  C 0 10.9  3.0999999999999996 14  7 14  C 10.9 14  14 10.9  14 7  Z M 10 5  L 10 9  C 10 9.6  9.6 10  9 10  L 5 10  C 4.4 10  4 9.6  4 9  L 4 5  C 4 4.4  4.4 4  5 4  L 9 4  C 9.6 4  10 4.4  10 5  Z " fill-rule="evenodd" />
    </mask>
  </defs>
  <g transform="matrix(1 0 0 1 -1 -1 )">
    <path d="M 14 7  C 14 3.0999999999999996  10.9 0  7 0  C 3.0999999999999996 0  0 3.0999999999999996  0 7  C 0 10.9  3.0999999999999996 14  7 14  C 10.9 14  14 10.9  14 7  Z M 10 5  L 10 9  C 10 9.6  9.6 10  9 10  L 5 10  C 4.4 10  4 9.6  4 9  L 4 5  C 4 4.4  4.4 4  5 4  L 9 4  C 9.6 4  10 4.4  10 5  Z " fill-rule="nonzero" fill="rgba(0, 0, 0, 1)" stroke="none" transform="matrix(1 0 0 1 1 1 )" class="fill" />
    <path d="M 14 7  C 14 3.0999999999999996  10.9 0  7 0  C 3.0999999999999996 0  0 3.0999999999999996  0 7  C 0 10.9  3.0999999999999996 14  7 14  C 10.9 14  14 10.9  14 7  Z " stroke-width="0" stroke-dasharray="0" stroke="rgba(255, 255, 255, 0)" fill="none" transform="matrix(1 0 0 1 1 1 )" class="stroke" mask="url(#Clip3292)" />
    <path d="M 10 5  L 10 9  C 10 9.6  9.6 10  9 10  L 5 10  C 4.4 10  4 9.6  4 9  L 4 5  C 4 4.4  4.4 4  5 4  L 9 4  C 9.6 4  10 4.4  10 5  Z " stroke-width="0" stroke-dasharray="0" stroke="rgba(255, 255, 255, 0)" fill="none" transform="matrix(1 0 0 1 1 1 )" class="stroke" mask="url(#Clip3292)" />
  </g>
</svg>