<?xml version="1.0" encoding="utf-8"?>
<svg version="1.1" xmlns:xlink="http://www.w3.org/1999/xlink" width="50px" height="50px" xmlns="http://www.w3.org/2000/svg">
  <defs>
    <pattern id="BGPattern" patternUnits="userSpaceOnUse" alignment="0 0" imageRepeat="None" />
    <mask fill="white" id="Clip2396">
      <path d="M 20.731250000000003 32.487500000000004  C 21.281250000000004 31.59375000000001  20.993750000000002 30.575000000000003  20.1 30.19375  C 19.212500000000002 29.825000000000003  18.075000000000003 30.206250000000008  17.525000000000002 31.0625  C 16.975 31.924999999999997  17.231250000000003 32.95  18.106250000000003 33.35  C 19.000000000000004 33.75625  20.181250000000002 33.36875  20.731250000000003 32.487500000000004  Z M 50 2  C 50 0.8937499999999997  49.10625 0  48 0  L 2 0  C 0.8937499999999997 0  0 0.8937499999999997  0 2  L 0 48  C 0 49.10625  0.8937499999999997 50  2 50  L 48 50  C 49.10625 50  50 49.10625  50 48  L 50 2  Z M 37.8375 29.19375  C 37.85 33.5375  31.606249999999996 39  22.225 39  C 15.06875 39  7.75 35.525  7.75 29.806250000000002  C 7.75 26.81875  9.6375 23.362499999999997  12.89375 20.099999999999998  C 17.2375 15.75  22.30625 13.762499999999998  24.2125 15.674999999999997  C 25.056249999999995 16.518749999999997  25.137499999999996 17.974999999999998  24.59375 19.7125  C 24.3125 20.5875  25.412499999999998 20.10625  25.412499999999998 20.10625  C 28.925000000000008 18.631249999999998  31.9875 18.54375  33.10625 20.15  C 33.706250000000004 21.006249999999998  33.643750000000004 22.2  33.09375 23.59375  C 32.8375 24.23125  33.175 24.33125  33.65625 24.475  C 35.6375 25.087499999999995  37.8375 26.575000000000003  37.8375 29.19375  Z M 35.12653858136659 21.17333656069321  C 35.12653858136659 21.05508481622183  35.144997937544446 20.937557820866623  35.181250000000006 20.825  C 35.42208980558913 20.085169870699563  35.250619353729086 19.273066758418  34.731249999999996 18.693749999999998  C 34.21141308183361 18.11609392212075  33.42210606838807 17.86094029541781  32.6625 18.024999999999995  C 32.58442620143379 18.04162075263594  32.50482335147525 18.049999999999997  32.425 18.049999999999997  C 31.795050207224257 18.049999999999997  31.284374999999997 17.539324792775748  31.284374999999997 16.909374999999997  C 31.284374999999997 16.370954180672157  31.660880184931393 15.905859540462785  32.1875 15.793749999999998  C 33.69375 15.474999999999998  35.31875 15.937499999999998  36.41875 17.162499999999998  C 37.525000000000006 18.3875  37.81875 20.05625  37.35 21.525  C 37.19968810510624 21.99410857097312  36.76351789202942 22.312364648319026  36.27091610852981 22.312364648319026  C 36.151301428921975 22.312364648319026  36.03244111805903 22.29342527743235  35.91875 22.256249999999998  C 35.44698945008242 22.106372988184294  35.12653858136659 21.66833265676806  35.12653858136659 21.17333656069321  Z M 39.893750000000004 14.018749999999997  C 42.1625 16.531249999999996  42.775000000000006 19.9625  41.806250000000006 22.96875  C 41.806250000000006 22.96875  41.806250000000006 22.975  41.806250000000006 22.96875  C 41.6325133665323 23.516622000094706  41.12395026665964 23.888871874511654  40.549191059428935 23.888871874511654  C 40.41153880683374 23.888871874511654  40.274735251720124 23.867320284454955  40.143750000000004 23.825  C 39.44826855469325 23.598847376309212  39.06773848583662 22.851777314656847  39.29375 22.15625  C 39.98125 20.01875  39.54375 17.58125  37.9375 15.793749999999998  C 36.382953402185564 14.069523250277213  34.02707502051583 13.304875160776723  31.75625 13.787499999999998  C 31.665502204599523 13.80689026368042  31.572964139644615 13.816666322828155  31.48016788597216 13.816666322828155  C 30.855803732656923 13.816666322828155  30.31666537363855 13.379607513826144  30.1875 12.768749999999999  C 30.16737947442604 12.676532323001979  30.157231744155556 12.582418701533223  30.157231744155556 12.488031544036652  C 30.157231744155556 11.866378404768536  30.591962902457155 11.329396729377393  31.200000000000006 11.199999999999996  C 34.2875 10.543749999999996  37.625 11.499999999999996  39.893750000000004 14.018749999999997  Z M 31.91250000000001 29.125000000000007  C 31.54375000000001 25.368750000000006  26.61250000000001 22.781250000000007  20.900000000000006 23.35  C 15.187500000000007 23.9125  10.856250000000006 27.418750000000003  11.231250000000006 31.175000000000004  C 11.600000000000005 34.931250000000006  16.531250000000007 37.518750000000004  22.243750000000006 36.956250000000004  C 27.956250000000004 36.3875  32.28750000000001 32.8875  31.91250000000001 29.125000000000007  Z M 22.812500000000007 26.237500000000004  C 25.625000000000007 26.968750000000007  27.062500000000007 29.625000000000007  25.912500000000012 32.20625  C 24.74375000000001 34.849999999999994  21.393750000000008 36.256249999999994  18.550000000000008 35.3375  C 15.806250000000011 34.449999999999996  14.643750000000008 31.731249999999996  15.843750000000007 29.2875  C 17.025000000000006 26.887500000000003  20.093750000000007 25.53125  22.812500000000007 26.237500000000004  Z M 22.56250000000001 30.149999999999995  C 22.75000000000001 29.799999999999986  22.62500000000001 29.412499999999998  22.281250000000007 29.287499999999994  C 21.94375000000001 29.14999999999999  21.518750000000008 29.318749999999994  21.31875000000001 29.64999999999999  C 21.125000000000007 29.98749999999999  21.23125000000001 30.368749999999988  21.57500000000001 30.51249999999999  C 21.91875000000001 30.656249999999986  22.36250000000001 30.49374999999999  22.56250000000001 30.149999999999995  Z " fill-rule="evenodd" />
    </mask>
  </defs>
  <g>
    <path d="M 20.731250000000003 32.487500000000004  C 21.281250000000004 31.59375000000001  20.993750000000002 30.575000000000003  20.1 30.19375  C 19.212500000000002 29.825000000000003  18.075000000000003 30.206250000000008  17.525000000000002 31.0625  C 16.975 31.924999999999997  17.231250000000003 32.95  18.106250000000003 33.35  C 19.000000000000004 33.75625  20.181250000000002 33.36875  20.731250000000003 32.487500000000004  Z M 50 2  C 50 0.8937499999999997  49.10625 0  48 0  L 2 0  C 0.8937499999999997 0  0 0.8937499999999997  0 2  L 0 48  C 0 49.10625  0.8937499999999997 50  2 50  L 48 50  C 49.10625 50  50 49.10625  50 48  L 50 2  Z M 37.8375 29.19375  C 37.85 33.5375  31.606249999999996 39  22.225 39  C 15.06875 39  7.75 35.525  7.75 29.806250000000002  C 7.75 26.81875  9.6375 23.362499999999997  12.89375 20.099999999999998  C 17.2375 15.75  22.30625 13.762499999999998  24.2125 15.674999999999997  C 25.056249999999995 16.518749999999997  25.137499999999996 17.974999999999998  24.59375 19.7125  C 24.3125 20.5875  25.412499999999998 20.10625  25.412499999999998 20.10625  C 28.925000000000008 18.631249999999998  31.9875 18.54375  33.10625 20.15  C 33.706250000000004 21.006249999999998  33.643750000000004 22.2  33.09375 23.59375  C 32.8375 24.23125  33.175 24.33125  33.65625 24.475  C 35.6375 25.087499999999995  37.8375 26.575000000000003  37.8375 29.19375  Z M 35.12653858136659 21.17333656069321  C 35.12653858136659 21.05508481622183  35.144997937544446 20.937557820866623  35.181250000000006 20.825  C 35.42208980558913 20.085169870699563  35.250619353729086 19.273066758418  34.731249999999996 18.693749999999998  C 34.21141308183361 18.11609392212075  33.42210606838807 17.86094029541781  32.6625 18.024999999999995  C 32.58442620143379 18.04162075263594  32.50482335147525 18.049999999999997  32.425 18.049999999999997  C 31.795050207224257 18.049999999999997  31.284374999999997 17.539324792775748  31.284374999999997 16.909374999999997  C 31.284374999999997 16.370954180672157  31.660880184931393 15.905859540462785  32.1875 15.793749999999998  C 33.69375 15.474999999999998  35.31875 15.937499999999998  36.41875 17.162499999999998  C 37.525000000000006 18.3875  37.81875 20.05625  37.35 21.525  C 37.19968810510624 21.99410857097312  36.76351789202942 22.312364648319026  36.27091610852981 22.312364648319026  C 36.151301428921975 22.312364648319026  36.03244111805903 22.29342527743235  35.91875 22.256249999999998  C 35.44698945008242 22.106372988184294  35.12653858136659 21.66833265676806  35.12653858136659 21.17333656069321  Z M 39.893750000000004 14.018749999999997  C 42.1625 16.531249999999996  42.775000000000006 19.9625  41.806250000000006 22.96875  C 41.806250000000006 22.96875  41.806250000000006 22.975  41.806250000000006 22.96875  C 41.6325133665323 23.516622000094706  41.12395026665964 23.888871874511654  40.549191059428935 23.888871874511654  C 40.41153880683374 23.888871874511654  40.274735251720124 23.867320284454955  40.143750000000004 23.825  C 39.44826855469325 23.598847376309212  39.06773848583662 22.851777314656847  39.29375 22.15625  C 39.98125 20.01875  39.54375 17.58125  37.9375 15.793749999999998  C 36.382953402185564 14.069523250277213  34.02707502051583 13.304875160776723  31.75625 13.787499999999998  C 31.665502204599523 13.80689026368042  31.572964139644615 13.816666322828155  31.48016788597216 13.816666322828155  C 30.855803732656923 13.816666322828155  30.31666537363855 13.379607513826144  30.1875 12.768749999999999  C 30.16737947442604 12.676532323001979  30.157231744155556 12.582418701533223  30.157231744155556 12.488031544036652  C 30.157231744155556 11.866378404768536  30.591962902457155 11.329396729377393  31.200000000000006 11.199999999999996  C 34.2875 10.543749999999996  37.625 11.499999999999996  39.893750000000004 14.018749999999997  Z M 31.91250000000001 29.125000000000007  C 31.54375000000001 25.368750000000006  26.61250000000001 22.781250000000007  20.900000000000006 23.35  C 15.187500000000007 23.9125  10.856250000000006 27.418750000000003  11.231250000000006 31.175000000000004  C 11.600000000000005 34.931250000000006  16.531250000000007 37.518750000000004  22.243750000000006 36.956250000000004  C 27.956250000000004 36.3875  32.28750000000001 32.8875  31.91250000000001 29.125000000000007  Z M 22.812500000000007 26.237500000000004  C 25.625000000000007 26.968750000000007  27.062500000000007 29.625000000000007  25.912500000000012 32.20625  C 24.74375000000001 34.849999999999994  21.393750000000008 36.256249999999994  18.550000000000008 35.3375  C 15.806250000000011 34.449999999999996  14.643750000000008 31.731249999999996  15.843750000000007 29.2875  C 17.025000000000006 26.887500000000003  20.093750000000007 25.53125  22.812500000000007 26.237500000000004  Z M 22.56250000000001 30.149999999999995  C 22.75000000000001 29.799999999999986  22.62500000000001 29.412499999999998  22.281250000000007 29.287499999999994  C 21.94375000000001 29.14999999999999  21.518750000000008 29.318749999999994  21.31875000000001 29.64999999999999  C 21.125000000000007 29.98749999999999  21.23125000000001 30.368749999999988  21.57500000000001 30.51249999999999  C 21.91875000000001 30.656249999999986  22.36250000000001 30.49374999999999  22.56250000000001 30.149999999999995  Z " fill-rule="nonzero" fill="rgba(0, 0, 0, 1)" stroke="none" class="fill" />
    <path d="M 20.731250000000003 32.487500000000004  C 21.281250000000004 31.59375000000001  20.993750000000002 30.575000000000003  20.1 30.19375  C 19.212500000000002 29.825000000000003  18.075000000000003 30.206250000000008  17.525000000000002 31.0625  C 16.975 31.924999999999997  17.231250000000003 32.95  18.106250000000003 33.35  C 19.000000000000004 33.75625  20.181250000000002 33.36875  20.731250000000003 32.487500000000004  Z " stroke-width="0" stroke-dasharray="0" stroke="rgba(255, 255, 255, 0)" fill="none" class="stroke" mask="url(#Clip2396)" />
    <path d="M 50 2  C 50 0.8937499999999997  49.10625 0  48 0  L 2 0  C 0.8937499999999997 0  0 0.8937499999999997  0 2  L 0 48  C 0 49.10625  0.8937499999999997 50  2 50  L 48 50  C 49.10625 50  50 49.10625  50 48  L 50 2  Z " stroke-width="0" stroke-dasharray="0" stroke="rgba(255, 255, 255, 0)" fill="none" class="stroke" mask="url(#Clip2396)" />
    <path d="M 37.8375 29.19375  C 37.85 33.5375  31.606249999999996 39  22.225 39  C 15.06875 39  7.75 35.525  7.75 29.806250000000002  C 7.75 26.81875  9.6375 23.362499999999997  12.89375 20.099999999999998  C 17.2375 15.75  22.30625 13.762499999999998  24.2125 15.674999999999997  C 25.056249999999995 16.518749999999997  25.137499999999996 17.974999999999998  24.59375 19.7125  C 24.3125 20.5875  25.412499999999998 20.10625  25.412499999999998 20.10625  C 28.925000000000008 18.631249999999998  31.9875 18.54375  33.10625 20.15  C 33.706250000000004 21.006249999999998  33.643750000000004 22.2  33.09375 23.59375  C 32.8375 24.23125  33.175 24.33125  33.65625 24.475  C 35.6375 25.087499999999995  37.8375 26.575000000000003  37.8375 29.19375  Z " stroke-width="0" stroke-dasharray="0" stroke="rgba(255, 255, 255, 0)" fill="none" class="stroke" mask="url(#Clip2396)" />
    <path d="M 35.12653858136659 21.17333656069321  C 35.12653858136659 21.05508481622183  35.144997937544446 20.937557820866623  35.181250000000006 20.825  C 35.42208980558913 20.085169870699563  35.250619353729086 19.273066758418  34.731249999999996 18.693749999999998  C 34.21141308183361 18.11609392212075  33.42210606838807 17.86094029541781  32.6625 18.024999999999995  C 32.58442620143379 18.04162075263594  32.50482335147525 18.049999999999997  32.425 18.049999999999997  C 31.795050207224257 18.049999999999997  31.284374999999997 17.539324792775748  31.284374999999997 16.909374999999997  C 31.284374999999997 16.370954180672157  31.660880184931393 15.905859540462785  32.1875 15.793749999999998  C 33.69375 15.474999999999998  35.31875 15.937499999999998  36.41875 17.162499999999998  C 37.525000000000006 18.3875  37.81875 20.05625  37.35 21.525  C 37.19968810510624 21.99410857097312  36.76351789202942 22.312364648319026  36.27091610852981 22.312364648319026  C 36.151301428921975 22.312364648319026  36.03244111805903 22.29342527743235  35.91875 22.256249999999998  C 35.44698945008242 22.106372988184294  35.12653858136659 21.66833265676806  35.12653858136659 21.17333656069321  Z " stroke-width="0" stroke-dasharray="0" stroke="rgba(255, 255, 255, 0)" fill="none" class="stroke" mask="url(#Clip2396)" />
    <path d="M 39.893750000000004 14.018749999999997  C 42.1625 16.531249999999996  42.775000000000006 19.9625  41.806250000000006 22.96875  C 41.806250000000006 22.96875  41.806250000000006 22.975  41.806250000000006 22.96875  C 41.6325133665323 23.516622000094706  41.12395026665964 23.888871874511654  40.549191059428935 23.888871874511654  C 40.41153880683374 23.888871874511654  40.274735251720124 23.867320284454955  40.143750000000004 23.825  C 39.44826855469325 23.598847376309212  39.06773848583662 22.851777314656847  39.29375 22.15625  C 39.98125 20.01875  39.54375 17.58125  37.9375 15.793749999999998  C 36.382953402185564 14.069523250277213  34.02707502051583 13.304875160776723  31.75625 13.787499999999998  C 31.665502204599523 13.80689026368042  31.572964139644615 13.816666322828155  31.48016788597216 13.816666322828155  C 30.855803732656923 13.816666322828155  30.31666537363855 13.379607513826144  30.1875 12.768749999999999  C 30.16737947442604 12.676532323001979  30.157231744155556 12.582418701533223  30.157231744155556 12.488031544036652  C 30.157231744155556 11.866378404768536  30.591962902457155 11.329396729377393  31.200000000000006 11.199999999999996  C 34.2875 10.543749999999996  37.625 11.499999999999996  39.893750000000004 14.018749999999997  Z " stroke-width="0" stroke-dasharray="0" stroke="rgba(255, 255, 255, 0)" fill="none" class="stroke" mask="url(#Clip2396)" />
    <path d="M 31.91250000000001 29.125000000000007  C 31.54375000000001 25.368750000000006  26.61250000000001 22.781250000000007  20.900000000000006 23.35  C 15.187500000000007 23.9125  10.856250000000006 27.418750000000003  11.231250000000006 31.175000000000004  C 11.600000000000005 34.931250000000006  16.531250000000007 37.518750000000004  22.243750000000006 36.956250000000004  C 27.956250000000004 36.3875  32.28750000000001 32.8875  31.91250000000001 29.125000000000007  Z " stroke-width="0" stroke-dasharray="0" stroke="rgba(255, 255, 255, 0)" fill="none" class="stroke" mask="url(#Clip2396)" />
    <path d="M 22.812500000000007 26.237500000000004  C 25.625000000000007 26.968750000000007  27.062500000000007 29.625000000000007  25.912500000000012 32.20625  C 24.74375000000001 34.849999999999994  21.393750000000008 36.256249999999994  18.550000000000008 35.3375  C 15.806250000000011 34.449999999999996  14.643750000000008 31.731249999999996  15.843750000000007 29.2875  C 17.025000000000006 26.887500000000003  20.093750000000007 25.53125  22.812500000000007 26.237500000000004  Z " stroke-width="0" stroke-dasharray="0" stroke="rgba(255, 255, 255, 0)" fill="none" class="stroke" mask="url(#Clip2396)" />
    <path d="M 22.56250000000001 30.149999999999995  C 22.75000000000001 29.799999999999986  22.62500000000001 29.412499999999998  22.281250000000007 29.287499999999994  C 21.94375000000001 29.14999999999999  21.518750000000008 29.318749999999994  21.31875000000001 29.64999999999999  C 21.125000000000007 29.98749999999999  21.23125000000001 30.368749999999988  21.57500000000001 30.51249999999999  C 21.91875000000001 30.656249999999986  22.36250000000001 30.49374999999999  22.56250000000001 30.149999999999995  Z " stroke-width="0" stroke-dasharray="0" stroke="rgba(255, 255, 255, 0)" fill="none" class="stroke" mask="url(#Clip2396)" />
  </g>
</svg>