<?xml version="1.0" encoding="utf-8"?>
<svg version="1.1" xmlns:xlink="http://www.w3.org/1999/xlink" width="48px" height="48px" xmlns="http://www.w3.org/2000/svg">
  <defs>
    <pattern id="BGPattern" patternUnits="userSpaceOnUse" alignment="0 0" imageRepeat="None" />
    <mask fill="white" id="Clip6711">
      <path d="M 48 43.949999999999996  C 48 46.2  46.2 48  43.952 48  L 4.052 48  C 1.7999999999999998 48  0 46.2  0 43.952  L 0 4.052  C 0 1.7999999999999998  1.7999999999999998 0  4.05 0  L 44.1 0  C 46.2 0  48 1.7999999999999998  48 4.05  L 48 43.949999999999996  Z M 24 7.945999999999998  L 24 7.949999999999999  L 18 7.949999999999999  C 12.45 7.949999999999999  7.949999999999999 12.45  8 18  L 8 30  C 7.949999999999999 35.548  12.45 40.048  18 40  L 30 40  C 35.548 40.048  40.048 35.548  40.048 30  L 40.048 22.05  C 40.048 20.85  39.148 19.95  37.948 19.95  L 36 19.95  C 34.952 19.95  34.048 19.05  34.048 17.997999999999998  C 34.048 12.445999999999998  29.548000000000002 7.945999999999998  24 7.945999999999998  Z M 30.152 31.951999999999998  L 30.148 32  L 18 32  C 16.95 31.950000000000003  16.05 31.049999999999997  16.05 30  C 16.05 28.950000000000003  16.95 28.048000000000002  18 28  L 30.148 28  C 31.200000000000003 28.048000000000002  32.102 28.948  32.102 30  C 32.102 31.052  31.201999999999998 31.951999999999998  30.152 31.951999999999998  Z M 17.848000000000003 16.049999999999997  L 25.048000000000002 16.049999999999997  C 26.102 16.049999999999997  27 16.949999999999996  27 17.999999999999996  C 27 19.049999999999997  26.1 19.949999999999996  25.049999999999997 19.949999999999996  L 17.85 19.949999999999996  C 16.8 19.949999999999996  15.898000000000003 19.049999999999997  15.898000000000003 17.999999999999996  C 15.898000000000003 16.949999999999996  16.798000000000002 16.049999999999997  17.848000000000003 16.049999999999997  Z " fill-rule="evenodd" />
    </mask>
  </defs>
  <g>
    <path d="M 48 43.949999999999996  C 48 46.2  46.2 48  43.952 48  L 4.052 48  C 1.7999999999999998 48  0 46.2  0 43.952  L 0 4.052  C 0 1.7999999999999998  1.7999999999999998 0  4.05 0  L 44.1 0  C 46.2 0  48 1.7999999999999998  48 4.05  L 48 43.949999999999996  Z M 24 7.945999999999998  L 24 7.949999999999999  L 18 7.949999999999999  C 12.45 7.949999999999999  7.949999999999999 12.45  8 18  L 8 30  C 7.949999999999999 35.548  12.45 40.048  18 40  L 30 40  C 35.548 40.048  40.048 35.548  40.048 30  L 40.048 22.05  C 40.048 20.85  39.148 19.95  37.948 19.95  L 36 19.95  C 34.952 19.95  34.048 19.05  34.048 17.997999999999998  C 34.048 12.445999999999998  29.548000000000002 7.945999999999998  24 7.945999999999998  Z M 30.152 31.951999999999998  L 30.148 32  L 18 32  C 16.95 31.950000000000003  16.05 31.049999999999997  16.05 30  C 16.05 28.950000000000003  16.95 28.048000000000002  18 28  L 30.148 28  C 31.200000000000003 28.048000000000002  32.102 28.948  32.102 30  C 32.102 31.052  31.201999999999998 31.951999999999998  30.152 31.951999999999998  Z M 17.848000000000003 16.049999999999997  L 25.048000000000002 16.049999999999997  C 26.102 16.049999999999997  27 16.949999999999996  27 17.999999999999996  C 27 19.049999999999997  26.1 19.949999999999996  25.049999999999997 19.949999999999996  L 17.85 19.949999999999996  C 16.8 19.949999999999996  15.898000000000003 19.049999999999997  15.898000000000003 17.999999999999996  C 15.898000000000003 16.949999999999996  16.798000000000002 16.049999999999997  17.848000000000003 16.049999999999997  Z " fill-rule="nonzero" fill="rgba(255, 87, 34, 1)" stroke="none" class="fill" />
    <path d="M 48 43.949999999999996  C 48 46.2  46.2 48  43.952 48  L 4.052 48  C 1.7999999999999998 48  0 46.2  0 43.952  L 0 4.052  C 0 1.7999999999999998  1.7999999999999998 0  4.05 0  L 44.1 0  C 46.2 0  48 1.7999999999999998  48 4.05  L 48 43.949999999999996  Z " stroke-width="0" stroke-dasharray="0" stroke="rgba(255, 255, 255, 0)" fill="none" class="stroke" mask="url(#Clip6711)" />
    <path d="M 24 7.945999999999998  L 24 7.949999999999999  L 18 7.949999999999999  C 12.45 7.949999999999999  7.949999999999999 12.45  8 18  L 8 30  C 7.949999999999999 35.548  12.45 40.048  18 40  L 30 40  C 35.548 40.048  40.048 35.548  40.048 30  L 40.048 22.05  C 40.048 20.85  39.148 19.95  37.948 19.95  L 36 19.95  C 34.952 19.95  34.048 19.05  34.048 17.997999999999998  C 34.048 12.445999999999998  29.548000000000002 7.945999999999998  24 7.945999999999998  Z " stroke-width="0" stroke-dasharray="0" stroke="rgba(255, 255, 255, 0)" fill="none" class="stroke" mask="url(#Clip6711)" />
    <path d="M 30.152 31.951999999999998  L 30.148 32  L 18 32  C 16.95 31.950000000000003  16.05 31.049999999999997  16.05 30  C 16.05 28.950000000000003  16.95 28.048000000000002  18 28  L 30.148 28  C 31.200000000000003 28.048000000000002  32.102 28.948  32.102 30  C 32.102 31.052  31.201999999999998 31.951999999999998  30.152 31.951999999999998  Z " stroke-width="0" stroke-dasharray="0" stroke="rgba(255, 255, 255, 0)" fill="none" class="stroke" mask="url(#Clip6711)" />
    <path d="M 17.848000000000003 16.049999999999997  L 25.048000000000002 16.049999999999997  C 26.102 16.049999999999997  27 16.949999999999996  27 17.999999999999996  C 27 19.049999999999997  26.1 19.949999999999996  25.049999999999997 19.949999999999996  L 17.85 19.949999999999996  C 16.8 19.949999999999996  15.898000000000003 19.049999999999997  15.898000000000003 17.999999999999996  C 15.898000000000003 16.949999999999996  16.798000000000002 16.049999999999997  17.848000000000003 16.049999999999997  Z " stroke-width="0" stroke-dasharray="0" stroke="rgba(255, 255, 255, 0)" fill="none" class="stroke" mask="url(#Clip6711)" />
  </g>
</svg>