<?xml version="1.0" encoding="utf-8"?>
<svg version="1.1" xmlns:xlink="http://www.w3.org/1999/xlink" width="6px" height="13px" xmlns="http://www.w3.org/2000/svg">
  <defs>
    <pattern id="BGPattern" patternUnits="userSpaceOnUse" alignment="0 0" imageRepeat="None" />
    <mask fill="white" id="Clip3996">
      <path d="M 0.31269999999999953 9.4788  L 0.31269999999999953 3.1661  C 0.3214302654390586 1.7799040108544446  1.4476265195114255 0.660778208337085  2.8338500000000018 0.660778208337085  C 4.220073480488578 0.660778208337085  5.346269734560941 1.7799040108544446  5.355 3.1661  L 5.355 9.4788  C 5.3550333332507005 9.484092670508897  5.355050000000002 9.489385432862786  5.355050000000002 9.494678208337085  C 5.355050000000002 10.887098519610479  4.226270311273398 12.015878208337085  2.8338500000000018 12.015878208337085  C 1.4414296887266058 12.015878208337085  0.3126500000000014 10.887098519610479  0.3126500000000014 9.494678208337085  C 0.3126500000000014 9.489385432862786  0.31266666674929944 9.484092670508897  0.31269999999999953 9.4788  Z " fill-rule="evenodd" />
    </mask>
  </defs>
  <g transform="matrix(1 0 0 1 -10 -16 )">
    <path d="M 0.31269999999999953 9.4788  L 0.31269999999999953 3.1661  C 0.3214302654390586 1.7799040108544446  1.4476265195114255 0.660778208337085  2.8338500000000018 0.660778208337085  C 4.220073480488578 0.660778208337085  5.346269734560941 1.7799040108544446  5.355 3.1661  L 5.355 9.4788  C 5.3550333332507005 9.484092670508897  5.355050000000002 9.489385432862786  5.355050000000002 9.494678208337085  C 5.355050000000002 10.887098519610479  4.226270311273398 12.015878208337085  2.8338500000000018 12.015878208337085  C 1.4414296887266058 12.015878208337085  0.3126500000000014 10.887098519610479  0.3126500000000014 9.494678208337085  C 0.3126500000000014 9.489385432862786  0.31266666674929944 9.484092670508897  0.31269999999999953 9.4788  Z " fill-rule="nonzero" fill="rgba(0, 0, 0, 1)" stroke="none" transform="matrix(1 0 0 1 10 16 )" class="fill" />
    <path d="M 0.31269999999999953 9.4788  L 0.31269999999999953 3.1661  C 0.3214302654390586 1.7799040108544446  1.4476265195114255 0.660778208337085  2.8338500000000018 0.660778208337085  C 4.220073480488578 0.660778208337085  5.346269734560941 1.7799040108544446  5.355 3.1661  L 5.355 9.4788  C 5.3550333332507005 9.484092670508897  5.355050000000002 9.489385432862786  5.355050000000002 9.494678208337085  C 5.355050000000002 10.887098519610479  4.226270311273398 12.015878208337085  2.8338500000000018 12.015878208337085  C 1.4414296887266058 12.015878208337085  0.3126500000000014 10.887098519610479  0.3126500000000014 9.494678208337085  C 0.3126500000000014 9.489385432862786  0.31266666674929944 9.484092670508897  0.31269999999999953 9.4788  Z " stroke-width="0" stroke-dasharray="0" stroke="rgba(255, 255, 255, 0)" fill="none" transform="matrix(1 0 0 1 10 16 )" class="stroke" mask="url(#Clip3996)" />
  </g>
</svg>