<?xml version="1.0" encoding="utf-8"?>
<svg version="1.1" xmlns:xlink="http://www.w3.org/1999/xlink" width="35px" height="50px" xmlns="http://www.w3.org/2000/svg">
  <defs>
    <pattern id="BGPattern" patternUnits="userSpaceOnUse" alignment="0 0" imageRepeat="None" />
    <mask fill="white" id="Clip888">
      <path d="M 20.0869140625 31.8603515625  C 20.0869140625 30.345703125  21.2177734375 29.227539062500004  22.73828125 29.227539062500004  C 24.2587890625 29.227539062500004  25.3896484375 30.3466796875  25.3896484375 31.8603515625  C 25.3896484375 33.37890625  24.2548828125 34.4931640625  22.73828125 34.4931640625  C 21.205078125 34.4931640625  20.0869140625 33.36328125  20.0869140625 31.8603515625  Z M 12.34375 34.4931640625  C 10.8359375 34.4931640625  9.6923828125 33.388671875  9.6923828125 31.8603515625  C 9.6923828125 30.3359375  10.8330078125 29.227539062500004  12.34375 29.227539062500004  C 13.8642578125 29.227539062500004  14.9951171875 30.3466796875  14.9951171875 31.8603515625  C 14.9951171875 33.365234375  13.875 34.4931640625  12.34375 34.4931640625  Z M 34.7421875 32.76171875  C 34.7421875 23.244140625  26.9892578125 15.522460937499998  17.3828125 15.522460937499998  C 13.98828125 15.522460937499998  7.3916015625 17.4580078125  4.4423828125 22.16796875  L 0 0  L 0 32.76171875  C 0.0234375 42.2978515625  7.7978515625 50  17.3828125 50  C 26.9765625 50  34.7421875 42.2900390625  34.7421875 32.76171875  Z M 30.3232421875 32.76171875  C 30.3232421875 39.859375  24.537109375 45.6123046875  17.3828125 45.6123046875  C 10.227539062500002 45.6123046875  4.4423828125 39.8603515625  4.4423828125 32.76171875  C 4.4423828125 25.6640625  10.227539062500002 19.9111328125  17.3828125 19.9111328125  C 24.5380859375 19.9111328125  30.3232421875 25.6640625  30.3232421875 32.76171875  Z " fill-rule="evenodd" />
    </mask>
  </defs>
  <g>
    <path d="M 20.0869140625 31.8603515625  C 20.0869140625 30.345703125  21.2177734375 29.227539062500004  22.73828125 29.227539062500004  C 24.2587890625 29.227539062500004  25.3896484375 30.3466796875  25.3896484375 31.8603515625  C 25.3896484375 33.37890625  24.2548828125 34.4931640625  22.73828125 34.4931640625  C 21.205078125 34.4931640625  20.0869140625 33.36328125  20.0869140625 31.8603515625  Z M 12.34375 34.4931640625  C 10.8359375 34.4931640625  9.6923828125 33.388671875  9.6923828125 31.8603515625  C 9.6923828125 30.3359375  10.8330078125 29.227539062500004  12.34375 29.227539062500004  C 13.8642578125 29.227539062500004  14.9951171875 30.3466796875  14.9951171875 31.8603515625  C 14.9951171875 33.365234375  13.875 34.4931640625  12.34375 34.4931640625  Z M 34.7421875 32.76171875  C 34.7421875 23.244140625  26.9892578125 15.522460937499998  17.3828125 15.522460937499998  C 13.98828125 15.522460937499998  7.3916015625 17.4580078125  4.4423828125 22.16796875  L 0 0  L 0 32.76171875  C 0.0234375 42.2978515625  7.7978515625 50  17.3828125 50  C 26.9765625 50  34.7421875 42.2900390625  34.7421875 32.76171875  Z M 30.3232421875 32.76171875  C 30.3232421875 39.859375  24.537109375 45.6123046875  17.3828125 45.6123046875  C 10.227539062500002 45.6123046875  4.4423828125 39.8603515625  4.4423828125 32.76171875  C 4.4423828125 25.6640625  10.227539062500002 19.9111328125  17.3828125 19.9111328125  C 24.5380859375 19.9111328125  30.3232421875 25.6640625  30.3232421875 32.76171875  Z " fill-rule="nonzero" fill="rgba(0, 0, 0, 1)" stroke="none" class="fill" />
    <path d="M 20.0869140625 31.8603515625  C 20.0869140625 30.345703125  21.2177734375 29.227539062500004  22.73828125 29.227539062500004  C 24.2587890625 29.227539062500004  25.3896484375 30.3466796875  25.3896484375 31.8603515625  C 25.3896484375 33.37890625  24.2548828125 34.4931640625  22.73828125 34.4931640625  C 21.205078125 34.4931640625  20.0869140625 33.36328125  20.0869140625 31.8603515625  Z " stroke-width="0" stroke-dasharray="0" stroke="rgba(255, 255, 255, 0)" fill="none" class="stroke" mask="url(#Clip888)" />
    <path d="M 12.34375 34.4931640625  C 10.8359375 34.4931640625  9.6923828125 33.388671875  9.6923828125 31.8603515625  C 9.6923828125 30.3359375  10.8330078125 29.227539062500004  12.34375 29.227539062500004  C 13.8642578125 29.227539062500004  14.9951171875 30.3466796875  14.9951171875 31.8603515625  C 14.9951171875 33.365234375  13.875 34.4931640625  12.34375 34.4931640625  Z " stroke-width="0" stroke-dasharray="0" stroke="rgba(255, 255, 255, 0)" fill="none" class="stroke" mask="url(#Clip888)" />
    <path d="M 34.7421875 32.76171875  C 34.7421875 23.244140625  26.9892578125 15.522460937499998  17.3828125 15.522460937499998  C 13.98828125 15.522460937499998  7.3916015625 17.4580078125  4.4423828125 22.16796875  L 0 0  L 0 32.76171875  C 0.0234375 42.2978515625  7.7978515625 50  17.3828125 50  C 26.9765625 50  34.7421875 42.2900390625  34.7421875 32.76171875  Z " stroke-width="0" stroke-dasharray="0" stroke="rgba(255, 255, 255, 0)" fill="none" class="stroke" mask="url(#Clip888)" />
    <path d="M 30.3232421875 32.76171875  C 30.3232421875 39.859375  24.537109375 45.6123046875  17.3828125 45.6123046875  C 10.227539062500002 45.6123046875  4.4423828125 39.8603515625  4.4423828125 32.76171875  C 4.4423828125 25.6640625  10.227539062500002 19.9111328125  17.3828125 19.9111328125  C 24.5380859375 19.9111328125  30.3232421875 25.6640625  30.3232421875 32.76171875  Z " stroke-width="0" stroke-dasharray="0" stroke="rgba(255, 255, 255, 0)" fill="none" class="stroke" mask="url(#Clip888)" />
  </g>
</svg>