<?xml version="1.0" encoding="utf-8"?>
<svg version="1.1" xmlns:xlink="http://www.w3.org/1999/xlink" width="50px" height="39px" xmlns="http://www.w3.org/2000/svg">
  <defs>
    <pattern id="BGPattern" patternUnits="userSpaceOnUse" alignment="0 0" imageRepeat="None" />
    <mask fill="white" id="Clip923">
      <path d="M 46.26516464471405 25.251299826689774  C 50.09532062391682 26.46447140381281  50.528596187175054 28.25823223570188  49.55805892547659 29.488734835355274  C 48.578856152513 30.719237435008665  46.195840554592735 31.594454072790313  46.195840554592735 31.594454072790313  L 28.422876949740044 37.97227036395145  L 28.422876949740044 33.26689774696706  L 41.499133448873465 28.604852686308504  C 42.98093587521663 28.07625649913342  43.214904679376076 27.3223570190641  42.00173310225301 26.92374350086652  C 40.79722703639516 26.525129982669  38.613518197573654 26.63778162911609  37.13171577123052 27.175043327556295  L 28.422876949740044 30.251299826689774  L 28.422876949740044 25.363951473136922  C 30.433275563258235 24.68804159445409  32.50433275563259 24.185441941074544  34.98266897746967 23.908145580589235  C 38.52686308492201 23.518197573656835  42.85961871750433 23.960138648180248  46.26516464471405 25.251299826689774  Z M 39.16811091854419 15.008665511265178  C 39.16811091854419 21.46447140381281  35.18197573656846 23.916811091854413  30 21.47313691507799  L 30 9.42807625649914  C 30.112651646447148 8.015597920277287  29.852686308492192 6.7157712305025825  28.52686308492201 6.343154246100539  C 27.512998266897736 6.013864818024274  26.880415944540715 6.958405545927235  26 8.37088388214903  L 26 38.518197573656835  L 19 35.93587521663778  L 19 0  C 22.20970537261698 0.6412478336222023  27.24436741767764 2.1577123050259956  29.948006932409015 3.0675909878683  C 36.83708838821491 5.433275563258235  39.16811091854419 8.379549393414209  39.16811091854419 15.008665511265178  Z M 17.166377816291174 33.63951473136916  C 12.6949740034662 34.445407279029496  8.379549393414209 34.272097053726156  3.830155979202772 32.77296360485269  C -0.10398613518196953 31.66377816291163  -0.7625649913345001 29.350086655112648  1.0311958405546022 28.024263431542465  C 2.68630849220105 26.793760831889074  5.511265164644726 25.86655112651647  5.511265164644726 25.86655112651647  L 17.166377816291174 21.72443674176776  L 17.166377816291174 26.44714038128251  L 8.778162911611787 29.445407279029496  C 7.296360485268622 29.974003466204522  7.071057192374354 30.727902946273844  8.27556325823224 31.126516464471422  C 9.480069324090124 31.525129982669  11.663778162911626 31.412478336221852  13.145580589254763 30.875216637781648  L 17.166377816291174 29.410745233968786  L 17.166377816291174 33.63951473136916  Z " fill-rule="evenodd" />
    </mask>
  </defs>
  <g>
    <path d="M 46.26516464471405 25.251299826689774  C 50.09532062391682 26.46447140381281  50.528596187175054 28.25823223570188  49.55805892547659 29.488734835355274  C 48.578856152513 30.719237435008665  46.195840554592735 31.594454072790313  46.195840554592735 31.594454072790313  L 28.422876949740044 37.97227036395145  L 28.422876949740044 33.26689774696706  L 41.499133448873465 28.604852686308504  C 42.98093587521663 28.07625649913342  43.214904679376076 27.3223570190641  42.00173310225301 26.92374350086652  C 40.79722703639516 26.525129982669  38.613518197573654 26.63778162911609  37.13171577123052 27.175043327556295  L 28.422876949740044 30.251299826689774  L 28.422876949740044 25.363951473136922  C 30.433275563258235 24.68804159445409  32.50433275563259 24.185441941074544  34.98266897746967 23.908145580589235  C 38.52686308492201 23.518197573656835  42.85961871750433 23.960138648180248  46.26516464471405 25.251299826689774  Z M 39.16811091854419 15.008665511265178  C 39.16811091854419 21.46447140381281  35.18197573656846 23.916811091854413  30 21.47313691507799  L 30 9.42807625649914  C 30.112651646447148 8.015597920277287  29.852686308492192 6.7157712305025825  28.52686308492201 6.343154246100539  C 27.512998266897736 6.013864818024274  26.880415944540715 6.958405545927235  26 8.37088388214903  L 26 38.518197573656835  L 19 35.93587521663778  L 19 0  C 22.20970537261698 0.6412478336222023  27.24436741767764 2.1577123050259956  29.948006932409015 3.0675909878683  C 36.83708838821491 5.433275563258235  39.16811091854419 8.379549393414209  39.16811091854419 15.008665511265178  Z M 17.166377816291174 33.63951473136916  C 12.6949740034662 34.445407279029496  8.379549393414209 34.272097053726156  3.830155979202772 32.77296360485269  C -0.10398613518196953 31.66377816291163  -0.7625649913345001 29.350086655112648  1.0311958405546022 28.024263431542465  C 2.68630849220105 26.793760831889074  5.511265164644726 25.86655112651647  5.511265164644726 25.86655112651647  L 17.166377816291174 21.72443674176776  L 17.166377816291174 26.44714038128251  L 8.778162911611787 29.445407279029496  C 7.296360485268622 29.974003466204522  7.071057192374354 30.727902946273844  8.27556325823224 31.126516464471422  C 9.480069324090124 31.525129982669  11.663778162911626 31.412478336221852  13.145580589254763 30.875216637781648  L 17.166377816291174 29.410745233968786  L 17.166377816291174 33.63951473136916  Z " fill-rule="nonzero" fill="rgba(0, 0, 0, 1)" stroke="none" class="fill" />
    <path d="M 46.26516464471405 25.251299826689774  C 50.09532062391682 26.46447140381281  50.528596187175054 28.25823223570188  49.55805892547659 29.488734835355274  C 48.578856152513 30.719237435008665  46.195840554592735 31.594454072790313  46.195840554592735 31.594454072790313  L 28.422876949740044 37.97227036395145  L 28.422876949740044 33.26689774696706  L 41.499133448873465 28.604852686308504  C 42.98093587521663 28.07625649913342  43.214904679376076 27.3223570190641  42.00173310225301 26.92374350086652  C 40.79722703639516 26.525129982669  38.613518197573654 26.63778162911609  37.13171577123052 27.175043327556295  L 28.422876949740044 30.251299826689774  L 28.422876949740044 25.363951473136922  C 30.433275563258235 24.68804159445409  32.50433275563259 24.185441941074544  34.98266897746967 23.908145580589235  C 38.52686308492201 23.518197573656835  42.85961871750433 23.960138648180248  46.26516464471405 25.251299826689774  Z " stroke-width="0" stroke-dasharray="0" stroke="rgba(255, 255, 255, 0)" fill="none" class="stroke" mask="url(#Clip923)" />
    <path d="M 39.16811091854419 15.008665511265178  C 39.16811091854419 21.46447140381281  35.18197573656846 23.916811091854413  30 21.47313691507799  L 30 9.42807625649914  C 30.112651646447148 8.015597920277287  29.852686308492192 6.7157712305025825  28.52686308492201 6.343154246100539  C 27.512998266897736 6.013864818024274  26.880415944540715 6.958405545927235  26 8.37088388214903  L 26 38.518197573656835  L 19 35.93587521663778  L 19 0  C 22.20970537261698 0.6412478336222023  27.24436741767764 2.1577123050259956  29.948006932409015 3.0675909878683  C 36.83708838821491 5.433275563258235  39.16811091854419 8.379549393414209  39.16811091854419 15.008665511265178  Z " stroke-width="0" stroke-dasharray="0" stroke="rgba(255, 255, 255, 0)" fill="none" class="stroke" mask="url(#Clip923)" />
    <path d="M 17.166377816291174 33.63951473136916  C 12.6949740034662 34.445407279029496  8.379549393414209 34.272097053726156  3.830155979202772 32.77296360485269  C -0.10398613518196953 31.66377816291163  -0.7625649913345001 29.350086655112648  1.0311958405546022 28.024263431542465  C 2.68630849220105 26.793760831889074  5.511265164644726 25.86655112651647  5.511265164644726 25.86655112651647  L 17.166377816291174 21.72443674176776  L 17.166377816291174 26.44714038128251  L 8.778162911611787 29.445407279029496  C 7.296360485268622 29.974003466204522  7.071057192374354 30.727902946273844  8.27556325823224 31.126516464471422  C 9.480069324090124 31.525129982669  11.663778162911626 31.412478336221852  13.145580589254763 30.875216637781648  L 17.166377816291174 29.410745233968786  L 17.166377816291174 33.63951473136916  Z " stroke-width="0" stroke-dasharray="0" stroke="rgba(255, 255, 255, 0)" fill="none" class="stroke" mask="url(#Clip923)" />
  </g>
</svg>