<?xml version="1.0" encoding="utf-8"?>
<svg version="1.1" xmlns:xlink="http://www.w3.org/1999/xlink" width="18px" height="18px" xmlns="http://www.w3.org/2000/svg">
  <defs>
    <pattern id="BGPattern" patternUnits="userSpaceOnUse" alignment="0 0" imageRepeat="None" />
    <mask fill="white" id="Clip4445">
      <path d="M 0 18  L 2 18  L 2 2  L 18 2  L 18 0  L 2 0  C 0.8954305003384131 0  0 0.8954305003384135  0 2  L 0 18  Z " fill-rule="evenodd" />
    </mask>
  </defs>
  <g transform="matrix(1 0 0 1 -2 -6 )">
    <path d="M 0 18  L 2 18  L 2 2  L 18 2  L 18 0  L 2 0  C 0.8954305003384131 0  0 0.8954305003384135  0 2  L 0 18  Z " fill-rule="nonzero" fill="rgba(0, 0, 0, 1)" stroke="none" transform="matrix(1 0 0 1 2 6 )" class="fill" />
    <path d="M 0 18  L 2 18  L 2 2  L 18 2  L 18 0  L 2 0  C 0.8954305003384131 0  0 0.8954305003384135  0 2  L 0 18  Z " stroke-width="0" stroke-dasharray="0" stroke="rgba(255, 255, 255, 0)" fill="none" transform="matrix(1 0 0 1 2 6 )" class="stroke" mask="url(#Clip4445)" />
  </g>
</svg>