<?xml version="1.0" encoding="utf-8"?>
<svg version="1.1" xmlns:xlink="http://www.w3.org/1999/xlink" width="24px" height="24px" xmlns="http://www.w3.org/2000/svg">
  <defs>
    <pattern id="BGPattern" patternUnits="userSpaceOnUse" alignment="0 0" imageRepeat="None" />
    <mask fill="white" id="Clip6338">
      <path d="M 24 12  C 24 18.627416997969522  18.627416997969522 24  12 24  C 5.372583002030479 24  0 18.627416997969522  0 12  C 0 5.372583002030479  5.372583002030479 0  12 0  C 18.627416997969522 0  24 5.372583002030479  24 12  Z M 14.25 7.5  L 9.75 7.5  C 8.507359312880716 7.5  7.5 8.507359312880716  7.5 9.75  L 7.5 14.25  C 7.5 15.492640687119284  8.507359312880716 16.5  9.75 16.5  L 14.25 16.5  C 15.492640687119284 16.5  16.5 15.492640687119284  16.5 14.25  L 16.5 9.75  C 16.5 8.507359312880716  15.492640687119284 7.5  14.25 7.5  Z " fill-rule="evenodd" />
    </mask>
  </defs>
  <g>
    <path d="M 24 12  C 24 18.627416997969522  18.627416997969522 24  12 24  C 5.372583002030479 24  0 18.627416997969522  0 12  C 0 5.372583002030479  5.372583002030479 0  12 0  C 18.627416997969522 0  24 5.372583002030479  24 12  Z M 14.25 7.5  L 9.75 7.5  C 8.507359312880716 7.5  7.5 8.507359312880716  7.5 9.75  L 7.5 14.25  C 7.5 15.492640687119284  8.507359312880716 16.5  9.75 16.5  L 14.25 16.5  C 15.492640687119284 16.5  16.5 15.492640687119284  16.5 14.25  L 16.5 9.75  C 16.5 8.507359312880716  15.492640687119284 7.5  14.25 7.5  Z " fill-rule="nonzero" fill="rgba(0, 0, 0, 1)" stroke="none" class="fill" />
    <path d="M 24 12  C 24 18.627416997969522  18.627416997969522 24  12 24  C 5.372583002030479 24  0 18.627416997969522  0 12  C 0 5.372583002030479  5.372583002030479 0  12 0  C 18.627416997969522 0  24 5.372583002030479  24 12  Z " stroke-width="0" stroke-dasharray="0" stroke="rgba(255, 255, 255, 0)" fill="none" class="stroke" mask="url(#Clip6338)" />
    <path d="M 14.25 7.5  L 9.75 7.5  C 8.507359312880716 7.5  7.5 8.507359312880716  7.5 9.75  L 7.5 14.25  C 7.5 15.492640687119284  8.507359312880716 16.5  9.75 16.5  L 14.25 16.5  C 15.492640687119284 16.5  16.5 15.492640687119284  16.5 14.25  L 16.5 9.75  C 16.5 8.507359312880716  15.492640687119284 7.5  14.25 7.5  Z " stroke-width="0" stroke-dasharray="0" stroke="rgba(255, 255, 255, 0)" fill="none" class="stroke" mask="url(#Clip6338)" />
  </g>
</svg>