<?xml version="1.0" encoding="utf-8"?>
<svg version="1.1" xmlns:xlink="http://www.w3.org/1999/xlink" width="34px" height="50px" xmlns="http://www.w3.org/2000/svg">
  <defs>
    <pattern id="BGPattern" patternUnits="userSpaceOnUse" alignment="0 0" imageRepeat="None" />
    <mask fill="white" id="Clip766">
      <path d="M 17 16.669921874999993  L 25.300781250000007 16.669921875  C 29.904053066216626 16.669921875  33.6357421875 12.938232753716624  33.6357421875 8.3349609375  C 33.6357421875 3.731689121283377  29.904053066216626 0  25.300781250000007 0  L 8.630859375 0  C 4.030284261663409 0  0.30078124999999867 3.72950301166341  0.30078124999999867 8.330078125  C 0.30078124999999867 12.930653238336589  4.030284261663409 16.66015625  8.630859375 16.66015625  C 4.027587682983974 16.66015625  0.2958985617005969 20.391845371283377  0.2958985617005969 24.9951171875  C 0.2958985617005969 29.598389003716623  4.027587682983974 33.330078125  8.630859499200596 33.330078125  C 8.629232248037816 33.33007717207067  8.627605120810976 33.330076695605975  8.625977993569752 33.330076695605975  C 4.022706177353127 33.330076695605975  0.2910170560697498 37.061765816889356  0.2910170560697498 41.665037633105975  C 0.2910170560697498 46.2683094493226  4.022706177353127 49.999998570605975  8.625977993569752 49.999998570605975  C 13.227342510295387 49.999998570605975  16.9582411253546 46.27128560169512  17 41.66992187499999  L 17 16.669921874999993  Z M 33.63085937499999 25  C 33.63032015542663 20.399648257235633  29.901132992764367 16.670461094573366  25.30078125 16.669921875  C 20.70020613666341 16.669921875  16.970703125 20.39942488666341  16.970703125 25  C 16.970703125 29.600575113336586  20.70020613666341 33.330078125  25.30078125 33.330078125  C 29.901356363336586 33.330078125  33.630859375 29.600575113336586  33.630859375 25  Z " fill-rule="evenodd" />
    </mask>
  </defs>
  <g>
    <path d="M 17 16.669921874999993  L 25.300781250000007 16.669921875  C 29.904053066216626 16.669921875  33.6357421875 12.938232753716624  33.6357421875 8.3349609375  C 33.6357421875 3.731689121283377  29.904053066216626 0  25.300781250000007 0  L 8.630859375 0  C 4.030284261663409 0  0.30078124999999867 3.72950301166341  0.30078124999999867 8.330078125  C 0.30078124999999867 12.930653238336589  4.030284261663409 16.66015625  8.630859375 16.66015625  C 4.027587682983974 16.66015625  0.2958985617005969 20.391845371283377  0.2958985617005969 24.9951171875  C 0.2958985617005969 29.598389003716623  4.027587682983974 33.330078125  8.630859499200596 33.330078125  C 8.629232248037816 33.33007717207067  8.627605120810976 33.330076695605975  8.625977993569752 33.330076695605975  C 4.022706177353127 33.330076695605975  0.2910170560697498 37.061765816889356  0.2910170560697498 41.665037633105975  C 0.2910170560697498 46.2683094493226  4.022706177353127 49.999998570605975  8.625977993569752 49.999998570605975  C 13.227342510295387 49.999998570605975  16.9582411253546 46.27128560169512  17 41.66992187499999  L 17 16.669921874999993  Z M 33.63085937499999 25  C 33.63032015542663 20.399648257235633  29.901132992764367 16.670461094573366  25.30078125 16.669921875  C 20.70020613666341 16.669921875  16.970703125 20.39942488666341  16.970703125 25  C 16.970703125 29.600575113336586  20.70020613666341 33.330078125  25.30078125 33.330078125  C 29.901356363336586 33.330078125  33.630859375 29.600575113336586  33.630859375 25  Z " fill-rule="nonzero" fill="rgba(0, 0, 0, 1)" stroke="none" class="fill" />
    <path d="M 17 16.669921874999993  L 25.300781250000007 16.669921875  C 29.904053066216626 16.669921875  33.6357421875 12.938232753716624  33.6357421875 8.3349609375  C 33.6357421875 3.731689121283377  29.904053066216626 0  25.300781250000007 0  L 8.630859375 0  C 4.030284261663409 0  0.30078124999999867 3.72950301166341  0.30078124999999867 8.330078125  C 0.30078124999999867 12.930653238336589  4.030284261663409 16.66015625  8.630859375 16.66015625  C 4.027587682983974 16.66015625  0.2958985617005969 20.391845371283377  0.2958985617005969 24.9951171875  C 0.2958985617005969 29.598389003716623  4.027587682983974 33.330078125  8.630859499200596 33.330078125  C 8.629232248037816 33.33007717207067  8.627605120810976 33.330076695605975  8.625977993569752 33.330076695605975  C 4.022706177353127 33.330076695605975  0.2910170560697498 37.061765816889356  0.2910170560697498 41.665037633105975  C 0.2910170560697498 46.2683094493226  4.022706177353127 49.999998570605975  8.625977993569752 49.999998570605975  C 13.227342510295387 49.999998570605975  16.9582411253546 46.27128560169512  17 41.66992187499999  L 17 16.669921874999993  Z " stroke-width="0" stroke-dasharray="0" stroke="rgba(255, 255, 255, 0)" fill="none" class="stroke" mask="url(#Clip766)" />
    <path d="M 33.63085937499999 25  C 33.63032015542663 20.399648257235633  29.901132992764367 16.670461094573366  25.30078125 16.669921875  C 20.70020613666341 16.669921875  16.970703125 20.39942488666341  16.970703125 25  C 16.970703125 29.600575113336586  20.70020613666341 33.330078125  25.30078125 33.330078125  C 29.901356363336586 33.330078125  33.630859375 29.600575113336586  33.630859375 25  Z " stroke-width="0" stroke-dasharray="0" stroke="rgba(255, 255, 255, 0)" fill="none" class="stroke" mask="url(#Clip766)" />
  </g>
</svg>