<?xml version="1.0" encoding="utf-8"?>
<svg version="1.1" xmlns:xlink="http://www.w3.org/1999/xlink" width="50px" height="50px" xmlns="http://www.w3.org/2000/svg">
  <defs>
    <pattern id="BGPattern" patternUnits="userSpaceOnUse" alignment="0 0" imageRepeat="None" />
    <mask fill="white" id="Clip851">
      <path d="M 50 44.64285714285717  C 50 47.58928571428572  47.58928571428572 50  44.64285714285714 50  L 5.357142857142861 50  C 2.4107142857142776 50  0 47.58928571428572  0 44.64285714285717  L 0 5.357142857142833  C 0 2.4107142857142776  2.4107142857142776 0  5.357142857142861 0  L 44.64285714285714 0  C 47.58928571428572 0  50 2.4107142857142776  50 5.357142857142833  L 50 44.64285714285717  Z M 22.276785714285722 20.680803571428555  L 22.276785714285722 16.350446428571445  C 22.276785714285722 12.924107142857167  20.3125 11.316964285714278  17.84598214285714 11.316964285714278  C 14.966517857142861 11.316964285714278  13.381696428571416 13.526785714285722  14 16.283482142857167  L 14 33.56026785714289  C 13.381696428571416 36.43973214285717  14.910714285714278 38.649553571428555  17.901785714285722 38.649553571428555  C 20.301339285714278 38.649553571428555  22.276785714285722 37.087053571428555  22.276785714285722 33.56026785714289  L 22.276785714285722 28.895089285714278  L 29.040178571428555 37.34375  C 30.41294642857145 39.006696428571445  33.39285714285714 39.21875  35.26785714285714 37.34375  C 36.897321428571445 35.65848214285717  36.91964285714286 33.23660714285717  35.71428571428572 31.71875  L 30.234375000000004 24.709821428571445  L 34.75446428571428 18.158482142857167  C 35.803571428571416 16.651785714285722  35.81473214285714 14.308035714285722  34.12946428571428 12.678571428571445  C 32.29910714285714 10.90401785714289  29.151785714285694 10.74776785714289  27.276785714285694 13.459821428571445  L 22.276785714285722 20.680803571428555  Z " fill-rule="evenodd" />
    </mask>
  </defs>
  <g>
    <path d="M 50 44.64285714285717  C 50 47.58928571428572  47.58928571428572 50  44.64285714285714 50  L 5.357142857142861 50  C 2.4107142857142776 50  0 47.58928571428572  0 44.64285714285717  L 0 5.357142857142833  C 0 2.4107142857142776  2.4107142857142776 0  5.357142857142861 0  L 44.64285714285714 0  C 47.58928571428572 0  50 2.4107142857142776  50 5.357142857142833  L 50 44.64285714285717  Z M 22.276785714285722 20.680803571428555  L 22.276785714285722 16.350446428571445  C 22.276785714285722 12.924107142857167  20.3125 11.316964285714278  17.84598214285714 11.316964285714278  C 14.966517857142861 11.316964285714278  13.381696428571416 13.526785714285722  14 16.283482142857167  L 14 33.56026785714289  C 13.381696428571416 36.43973214285717  14.910714285714278 38.649553571428555  17.901785714285722 38.649553571428555  C 20.301339285714278 38.649553571428555  22.276785714285722 37.087053571428555  22.276785714285722 33.56026785714289  L 22.276785714285722 28.895089285714278  L 29.040178571428555 37.34375  C 30.41294642857145 39.006696428571445  33.39285714285714 39.21875  35.26785714285714 37.34375  C 36.897321428571445 35.65848214285717  36.91964285714286 33.23660714285717  35.71428571428572 31.71875  L 30.234375000000004 24.709821428571445  L 34.75446428571428 18.158482142857167  C 35.803571428571416 16.651785714285722  35.81473214285714 14.308035714285722  34.12946428571428 12.678571428571445  C 32.29910714285714 10.90401785714289  29.151785714285694 10.74776785714289  27.276785714285694 13.459821428571445  L 22.276785714285722 20.680803571428555  Z " fill-rule="nonzero" fill="rgba(0, 0, 0, 1)" stroke="none" class="fill" />
    <path d="M 50 44.64285714285717  C 50 47.58928571428572  47.58928571428572 50  44.64285714285714 50  L 5.357142857142861 50  C 2.4107142857142776 50  0 47.58928571428572  0 44.64285714285717  L 0 5.357142857142833  C 0 2.4107142857142776  2.4107142857142776 0  5.357142857142861 0  L 44.64285714285714 0  C 47.58928571428572 0  50 2.4107142857142776  50 5.357142857142833  L 50 44.64285714285717  Z " stroke-width="0" stroke-dasharray="0" stroke="rgba(255, 255, 255, 0)" fill="none" class="stroke" mask="url(#Clip851)" />
    <path d="M 22.276785714285722 20.680803571428555  L 22.276785714285722 16.350446428571445  C 22.276785714285722 12.924107142857167  20.3125 11.316964285714278  17.84598214285714 11.316964285714278  C 14.966517857142861 11.316964285714278  13.381696428571416 13.526785714285722  14 16.283482142857167  L 14 33.56026785714289  C 13.381696428571416 36.43973214285717  14.910714285714278 38.649553571428555  17.901785714285722 38.649553571428555  C 20.301339285714278 38.649553571428555  22.276785714285722 37.087053571428555  22.276785714285722 33.56026785714289  L 22.276785714285722 28.895089285714278  L 29.040178571428555 37.34375  C 30.41294642857145 39.006696428571445  33.39285714285714 39.21875  35.26785714285714 37.34375  C 36.897321428571445 35.65848214285717  36.91964285714286 33.23660714285717  35.71428571428572 31.71875  L 30.234375000000004 24.709821428571445  L 34.75446428571428 18.158482142857167  C 35.803571428571416 16.651785714285722  35.81473214285714 14.308035714285722  34.12946428571428 12.678571428571445  C 32.29910714285714 10.90401785714289  29.151785714285694 10.74776785714289  27.276785714285694 13.459821428571445  L 22.276785714285722 20.680803571428555  Z " stroke-width="0" stroke-dasharray="0" stroke="rgba(255, 255, 255, 0)" fill="none" class="stroke" mask="url(#Clip851)" />
  </g>
</svg>