<?xml version="1.0" encoding="utf-8"?>
<svg version="1.1" xmlns:xlink="http://www.w3.org/1999/xlink" width="18px" height="12px" xmlns="http://www.w3.org/2000/svg">
  <defs>
    <pattern id="BGPattern" patternUnits="userSpaceOnUse" alignment="0 0" imageRepeat="None" />
    <mask fill="white" id="Clip4905">
      <path d="M 5.718999999999998 11.031000000000002  L 1.2189999999999994 6.530999999999999  C 1.077937448968548 6.390293605484748  0.9986593244718724 6.19924089128736  0.9986593244718724 5.999999999999998  C 0.9986593244718724 5.8007591087126364  1.077937448968548 5.60970639451525  1.2189999999999994 5.468999999999998  L 5.718999999999999 0.9689999999999985  C 5.859829956104798 0.8281700438952004  6.050836366088188 0.749052598379885  6.25 0.749052598379885  C 6.664736797839847 0.749052598379885  7.000947401620115 1.0852632021601494  7.000947401620115 1.4999999999999982  C 7.000947401620115 1.6991636339118132  6.921829956104798 1.8901700438951998  6.781000000000001 2.030999999999999  L 3.5604999999999993 5.25  L 16.75 5.25  C 17.164213562373096 5.25  17.5 5.585786437626904  17.5 6  C 17.5 6.414213562373096  17.164213562373096 6.75  16.75 6.75  L 3.5604999999999993 6.75  L 6.780999999999999 9.969000000000001  C 6.921829956104796 10.109829956104797  7.000947401620113 10.300836366088191  7.000947401620113 10.5  C 7.000947401620113 10.91473679783985  6.664736797839847 11.250947401620117  6.249999999999998 11.250947401620117  C 6.050836366088186 11.250947401620117  5.859829956104797 11.171829956104798  5.718999999999998 11.031000000000002  Z " fill-rule="evenodd" />
    </mask>
  </defs>
  <g transform="matrix(1 0 0 1 -5 -3 )">
    <path d="M 5.718999999999998 11.031000000000002  L 1.2189999999999994 6.530999999999999  C 1.077937448968548 6.390293605484748  0.9986593244718724 6.19924089128736  0.9986593244718724 5.999999999999998  C 0.9986593244718724 5.8007591087126364  1.077937448968548 5.60970639451525  1.2189999999999994 5.468999999999998  L 5.718999999999999 0.9689999999999985  C 5.859829956104798 0.8281700438952004  6.050836366088188 0.749052598379885  6.25 0.749052598379885  C 6.664736797839847 0.749052598379885  7.000947401620115 1.0852632021601494  7.000947401620115 1.4999999999999982  C 7.000947401620115 1.6991636339118132  6.921829956104798 1.8901700438951998  6.781000000000001 2.030999999999999  L 3.5604999999999993 5.25  L 16.75 5.25  C 17.164213562373096 5.25  17.5 5.585786437626904  17.5 6  C 17.5 6.414213562373096  17.164213562373096 6.75  16.75 6.75  L 3.5604999999999993 6.75  L 6.780999999999999 9.969000000000001  C 6.921829956104796 10.109829956104797  7.000947401620113 10.300836366088191  7.000947401620113 10.5  C 7.000947401620113 10.91473679783985  6.664736797839847 11.250947401620117  6.249999999999998 11.250947401620117  C 6.050836366088186 11.250947401620117  5.859829956104797 11.171829956104798  5.718999999999998 11.031000000000002  Z " fill-rule="nonzero" fill="rgba(0, 0, 0, 1)" stroke="none" transform="matrix(1 0 0 1 5 3 )" class="fill" />
    <path d="M 5.718999999999998 11.031000000000002  L 1.2189999999999994 6.530999999999999  C 1.077937448968548 6.390293605484748  0.9986593244718724 6.19924089128736  0.9986593244718724 5.999999999999998  C 0.9986593244718724 5.8007591087126364  1.077937448968548 5.60970639451525  1.2189999999999994 5.468999999999998  L 5.718999999999999 0.9689999999999985  C 5.859829956104798 0.8281700438952004  6.050836366088188 0.749052598379885  6.25 0.749052598379885  C 6.664736797839847 0.749052598379885  7.000947401620115 1.0852632021601494  7.000947401620115 1.4999999999999982  C 7.000947401620115 1.6991636339118132  6.921829956104798 1.8901700438951998  6.781000000000001 2.030999999999999  L 3.5604999999999993 5.25  L 16.75 5.25  C 17.164213562373096 5.25  17.5 5.585786437626904  17.5 6  C 17.5 6.414213562373096  17.164213562373096 6.75  16.75 6.75  L 3.5604999999999993 6.75  L 6.780999999999999 9.969000000000001  C 6.921829956104796 10.109829956104797  7.000947401620113 10.300836366088191  7.000947401620113 10.5  C 7.000947401620113 10.91473679783985  6.664736797839847 11.250947401620117  6.249999999999998 11.250947401620117  C 6.050836366088186 11.250947401620117  5.859829956104797 11.171829956104798  5.718999999999998 11.031000000000002  Z " stroke-width="0" stroke-dasharray="0" stroke="rgba(255, 255, 255, 0)" fill="none" transform="matrix(1 0 0 1 5 3 )" class="stroke" mask="url(#Clip4905)" />
  </g>
</svg>