<?xml version="1.0" encoding="utf-8"?>
<svg version="1.1" xmlns:xlink="http://www.w3.org/1999/xlink" width="56px" height="44px" xmlns="http://www.w3.org/2000/svg">
  <defs>
    <pattern id="BGPattern" patternUnits="userSpaceOnUse" alignment="0 0" imageRepeat="None" />
    <mask fill="white" id="Clip2737">
      <path d="M 56 6  C 56 4.893750000000001  55.10625 4  54 4  L 44 4  L 44 0.5  C 44 0.22499999999999964  43.775 0  43.5 0  L 40 0  C 39.725 0  39.5 0.22499999999999964  39.5 0.5  L 39.5 4  L 30.25 4  L 30.25 0.5  C 30.25 0.22499999999999964  30.024999999999995 0  29.75 0  L 26.25 0  C 25.975 0  25.75 0.22499999999999964  25.75 0.5  L 25.75 4  L 16.5 4  L 16.5 0.5  C 16.5 0.22499999999999964  16.275 0  16 0  L 12.5 0  C 12.225000000000001 0  12 0.22499999999999964  12 0.5  L 12 4  L 2 4  C 0.8937499999999997 4  0 4.893750000000001  0 6  L 0 42  C 0 43.10625  0.8937499999999997 44  2 44  L 54 44  C 55.10625 44  56 43.10625  56 42  L 56 6  Z M 51 8.5  L 51 39  L 5 39  L 5 8.5  L 12 8.5  L 12 12  C 12 12.274999999999999  12.225000000000001 12.500000000000002  12.5 12.500000000000002  L 16 12.500000000000002  C 16.275 12.500000000000002  16.5 12.274999999999999  16.5 12  L 16.5 8.5  L 25.75 8.5  L 25.75 12  C 25.75 12.274999999999999  25.975 12.500000000000002  26.25 12.500000000000002  L 29.75 12.500000000000002  C 30.024999999999995 12.500000000000002  30.25 12.274999999999999  30.25 12  L 30.25 8.5  L 39.5 8.5  L 39.5 12  C 39.5 12.274999999999999  39.725 12.500000000000002  40 12.500000000000002  L 43.5 12.500000000000002  C 43.775 12.500000000000002  44 12.274999999999999  44 12  L 44 8.5  L 51 8.5  Z M 22.5 21.5  C 22.5 21.225  22.275 21  22 21  L 10.5 21  C 10.225 21  10 21.225  10 21.5  L 10 24.499999999999996  C 10 24.775  10.225 25.000000000000004  10.5 25  L 22 25  C 22.275 25.000000000000004  22.5 24.775  22.5 24.499999999999996  L 22.5 21.5  Z M 22.5 29.999999999999996  C 22.5 29.725000000000005  22.275 29.5  22 29  L 10.5 29  C 10.225 29.5  10 29.725000000000005  10 29.999999999999996  L 10 33  C 10 33.275  10.225 33.5  10.5 33  L 22 33  C 22.275 33.5  22.5 33.275  22.5 33  L 22.5 29.999999999999996  Z M 42.0625 18.00625  C 41.75 18  41.45 18.15625  41.2625 18.4125  L 34.7875 27.393749999999997  L 31.4875 22.824999999999996  C 31.300000000000008 22.562499999999993  31.000000000000007 22.412499999999994  30.68125000000001 22.412499999999994  L 27.25 22.412499999999994  C 26.84375 22.412499999999994  26.60625 22.87499999999999  26.84375 23.206249999999997  L 33.974999999999994 33.09375  C 34.16176930953001 33.35295200243228  34.46176846211834 33.506552498068885  34.78124999999999 33.506552498068885  C 35.10073153788165 33.506552498068885  35.40073069046997 33.35295200243229  35.5875 33.09375  L 45.9 18.8  C 46.137499999999996 18.46875  45.9 18.00625  45.49375 18.00625  L 42.0625 18.00625  Z " fill-rule="evenodd" />
    </mask>
  </defs>
  <g>
    <path d="M 56 6  C 56 4.893750000000001  55.10625 4  54 4  L 44 4  L 44 0.5  C 44 0.22499999999999964  43.775 0  43.5 0  L 40 0  C 39.725 0  39.5 0.22499999999999964  39.5 0.5  L 39.5 4  L 30.25 4  L 30.25 0.5  C 30.25 0.22499999999999964  30.024999999999995 0  29.75 0  L 26.25 0  C 25.975 0  25.75 0.22499999999999964  25.75 0.5  L 25.75 4  L 16.5 4  L 16.5 0.5  C 16.5 0.22499999999999964  16.275 0  16 0  L 12.5 0  C 12.225000000000001 0  12 0.22499999999999964  12 0.5  L 12 4  L 2 4  C 0.8937499999999997 4  0 4.893750000000001  0 6  L 0 42  C 0 43.10625  0.8937499999999997 44  2 44  L 54 44  C 55.10625 44  56 43.10625  56 42  L 56 6  Z M 51 8.5  L 51 39  L 5 39  L 5 8.5  L 12 8.5  L 12 12  C 12 12.274999999999999  12.225000000000001 12.500000000000002  12.5 12.500000000000002  L 16 12.500000000000002  C 16.275 12.500000000000002  16.5 12.274999999999999  16.5 12  L 16.5 8.5  L 25.75 8.5  L 25.75 12  C 25.75 12.274999999999999  25.975 12.500000000000002  26.25 12.500000000000002  L 29.75 12.500000000000002  C 30.024999999999995 12.500000000000002  30.25 12.274999999999999  30.25 12  L 30.25 8.5  L 39.5 8.5  L 39.5 12  C 39.5 12.274999999999999  39.725 12.500000000000002  40 12.500000000000002  L 43.5 12.500000000000002  C 43.775 12.500000000000002  44 12.274999999999999  44 12  L 44 8.5  L 51 8.5  Z M 22.5 21.5  C 22.5 21.225  22.275 21  22 21  L 10.5 21  C 10.225 21  10 21.225  10 21.5  L 10 24.499999999999996  C 10 24.775  10.225 25.000000000000004  10.5 25  L 22 25  C 22.275 25.000000000000004  22.5 24.775  22.5 24.499999999999996  L 22.5 21.5  Z M 22.5 29.999999999999996  C 22.5 29.725000000000005  22.275 29.5  22 29  L 10.5 29  C 10.225 29.5  10 29.725000000000005  10 29.999999999999996  L 10 33  C 10 33.275  10.225 33.5  10.5 33  L 22 33  C 22.275 33.5  22.5 33.275  22.5 33  L 22.5 29.999999999999996  Z M 42.0625 18.00625  C 41.75 18  41.45 18.15625  41.2625 18.4125  L 34.7875 27.393749999999997  L 31.4875 22.824999999999996  C 31.300000000000008 22.562499999999993  31.000000000000007 22.412499999999994  30.68125000000001 22.412499999999994  L 27.25 22.412499999999994  C 26.84375 22.412499999999994  26.60625 22.87499999999999  26.84375 23.206249999999997  L 33.974999999999994 33.09375  C 34.16176930953001 33.35295200243228  34.46176846211834 33.506552498068885  34.78124999999999 33.506552498068885  C 35.10073153788165 33.506552498068885  35.40073069046997 33.35295200243229  35.5875 33.09375  L 45.9 18.8  C 46.137499999999996 18.46875  45.9 18.00625  45.49375 18.00625  L 42.0625 18.00625  Z " fill-rule="nonzero" fill="rgba(0, 0, 0, 1)" stroke="none" class="fill" />
    <path d="M 56 6  C 56 4.893750000000001  55.10625 4  54 4  L 44 4  L 44 0.5  C 44 0.22499999999999964  43.775 0  43.5 0  L 40 0  C 39.725 0  39.5 0.22499999999999964  39.5 0.5  L 39.5 4  L 30.25 4  L 30.25 0.5  C 30.25 0.22499999999999964  30.024999999999995 0  29.75 0  L 26.25 0  C 25.975 0  25.75 0.22499999999999964  25.75 0.5  L 25.75 4  L 16.5 4  L 16.5 0.5  C 16.5 0.22499999999999964  16.275 0  16 0  L 12.5 0  C 12.225000000000001 0  12 0.22499999999999964  12 0.5  L 12 4  L 2 4  C 0.8937499999999997 4  0 4.893750000000001  0 6  L 0 42  C 0 43.10625  0.8937499999999997 44  2 44  L 54 44  C 55.10625 44  56 43.10625  56 42  L 56 6  Z " stroke-width="0" stroke-dasharray="0" stroke="rgba(255, 255, 255, 0)" fill="none" class="stroke" mask="url(#Clip2737)" />
    <path d="M 51 8.5  L 51 39  L 5 39  L 5 8.5  L 12 8.5  L 12 12  C 12 12.274999999999999  12.225000000000001 12.500000000000002  12.5 12.500000000000002  L 16 12.500000000000002  C 16.275 12.500000000000002  16.5 12.274999999999999  16.5 12  L 16.5 8.5  L 25.75 8.5  L 25.75 12  C 25.75 12.274999999999999  25.975 12.500000000000002  26.25 12.500000000000002  L 29.75 12.500000000000002  C 30.024999999999995 12.500000000000002  30.25 12.274999999999999  30.25 12  L 30.25 8.5  L 39.5 8.5  L 39.5 12  C 39.5 12.274999999999999  39.725 12.500000000000002  40 12.500000000000002  L 43.5 12.500000000000002  C 43.775 12.500000000000002  44 12.274999999999999  44 12  L 44 8.5  L 51 8.5  Z " stroke-width="0" stroke-dasharray="0" stroke="rgba(255, 255, 255, 0)" fill="none" class="stroke" mask="url(#Clip2737)" />
    <path d="M 22.5 21.5  C 22.5 21.225  22.275 21  22 21  L 10.5 21  C 10.225 21  10 21.225  10 21.5  L 10 24.499999999999996  C 10 24.775  10.225 25.000000000000004  10.5 25  L 22 25  C 22.275 25.000000000000004  22.5 24.775  22.5 24.499999999999996  L 22.5 21.5  Z " stroke-width="0" stroke-dasharray="0" stroke="rgba(255, 255, 255, 0)" fill="none" class="stroke" mask="url(#Clip2737)" />
    <path d="M 22.5 29.999999999999996  C 22.5 29.725000000000005  22.275 29.5  22 29  L 10.5 29  C 10.225 29.5  10 29.725000000000005  10 29.999999999999996  L 10 33  C 10 33.275  10.225 33.5  10.5 33  L 22 33  C 22.275 33.5  22.5 33.275  22.5 33  L 22.5 29.999999999999996  Z " stroke-width="0" stroke-dasharray="0" stroke="rgba(255, 255, 255, 0)" fill="none" class="stroke" mask="url(#Clip2737)" />
    <path d="M 42.0625 18.00625  C 41.75 18  41.45 18.15625  41.2625 18.4125  L 34.7875 27.393749999999997  L 31.4875 22.824999999999996  C 31.300000000000008 22.562499999999993  31.000000000000007 22.412499999999994  30.68125000000001 22.412499999999994  L 27.25 22.412499999999994  C 26.84375 22.412499999999994  26.60625 22.87499999999999  26.84375 23.206249999999997  L 33.974999999999994 33.09375  C 34.16176930953001 33.35295200243228  34.46176846211834 33.506552498068885  34.78124999999999 33.506552498068885  C 35.10073153788165 33.506552498068885  35.40073069046997 33.35295200243229  35.5875 33.09375  L 45.9 18.8  C 46.137499999999996 18.46875  45.9 18.00625  45.49375 18.00625  L 42.0625 18.00625  Z " stroke-width="0" stroke-dasharray="0" stroke="rgba(255, 255, 255, 0)" fill="none" class="stroke" mask="url(#Clip2737)" />
  </g>
</svg>