<?xml version="1.0" encoding="utf-8"?>
<svg version="1.1" xmlns:xlink="http://www.w3.org/1999/xlink" width="42px" height="37px" xmlns="http://www.w3.org/2000/svg">
  <defs>
    <pattern id="BGPattern" patternUnits="userSpaceOnUse" alignment="0 0" imageRepeat="None" />
    <mask fill="white" id="Clip2830">
      <path d="M 33.5 0  L 33.5 3  C 33.5 3.2749999999999986  33.275 3.5  33 3.5  L 29.499999999999996 3.5  C 29.225000000000005 3.5  29 3.2749999999999986  29 3  L 29 0  L 13 0  L 13 3  C 13 3.2749999999999986  12.774999999999999 3.5  12.5 3.5  L 9 3.5  C 8.725000000000001 3.5  8.5 3.2749999999999986  8.5 3  L 8.5 0  L 1 0  L 1 36  L 41 36  L 41 0  L 33.5 0  Z M 29.4625 10.375000000000007  C 29.4625 10.456250000000008  29.437499999999996 10.537500000000009  29.4 10.6125  L 23.81875 20.86875  L 26.887500000000003 20.86875  C 27.1625 20.86875  27.3875 21.09375  27.3875 21.36875  L 27.3875 22.699999999999996  C 27.3875 22.974999999999994  27.1625 23.199999999999996  26.887500000000003 23.199999999999996  L 22.800000000000004 23.199999999999996  L 22.800000000000004 25.30625  L 26.887500000000003 25.30625  C 27.1625 25.30625  27.3875 25.53125  27.3875 25.80625  L 27.3875 27.137499999999996  C 27.3875 27.412499999999994  27.1625 27.637499999999996  26.887500000000003 27.637499999999996  L 22.800000000000004 27.637499999999996  L 22.800000000000004 31  C 22.800000000000004 31.275  22.575000000000003 31.5  22.300000000000004 31.5  L 19.718750000000004 31.5  C 19.443750000000005 31.5  19.218750000000004 31.275  19.218750000000004 31  L 19.218750000000004 27.637500000000003  L 15.150000000000007 27.637500000000003  C 14.875000000000007 27.637500000000003  14.650000000000006 27.4125  14.650000000000006 27.137500000000003  L 14.650000000000006 25.806250000000006  C 14.650000000000006 25.531250000000007  14.875000000000007 25.306250000000006  15.150000000000007 25.306250000000006  L 19.218750000000007 25.306250000000006  L 19.218750000000007 23.200000000000003  L 15.150000000000007 23.200000000000003  C 14.875000000000007 23.200000000000003  14.650000000000006 22.975  14.650000000000006 22.700000000000003  L 14.650000000000006 21.368750000000006  C 14.650000000000006 21.093750000000007  14.875000000000007 20.868750000000006  15.150000000000007 20.868750000000006  L 18.1875 20.868750000000006  L 12.60625 10.618750000000006  C 12.474999999999998 10.375000000000007  12.5625 10.068750000000005  12.806249999999999 9.937500000000007  C 12.875 9.893750000000008  12.962499999999999 9.875000000000007  13.043750000000001 9.875000000000007  L 15.91875 9.875000000000007  C 16.10657845550125 9.876039886347037  16.277978778238836 9.98225980466329  16.3625 10.150000000000006  L 20.950000000000003 19.237500000000004  L 21.125 19.237500000000004  L 25.7125 10.150000000000006  C 25.793749999999996 9.981250000000006  25.96875 9.875000000000007  26.156249999999996 9.875000000000007  L 28.968750000000004 9.875000000000007  C 29.25 9.875000000000007  29.46875 10.100000000000009  29.4625 10.375000000000007  Z " fill-rule="evenodd" />
    </mask>
  </defs>
  <g transform="matrix(1 0 0 1 -4 -9 )">
    <path d="M 33.5 0  L 33.5 3  C 33.5 3.2749999999999986  33.275 3.5  33 3.5  L 29.499999999999996 3.5  C 29.225000000000005 3.5  29 3.2749999999999986  29 3  L 29 0  L 13 0  L 13 3  C 13 3.2749999999999986  12.774999999999999 3.5  12.5 3.5  L 9 3.5  C 8.725000000000001 3.5  8.5 3.2749999999999986  8.5 3  L 8.5 0  L 1 0  L 1 36  L 41 36  L 41 0  L 33.5 0  Z M 29.4625 10.375000000000007  C 29.4625 10.456250000000008  29.437499999999996 10.537500000000009  29.4 10.6125  L 23.81875 20.86875  L 26.887500000000003 20.86875  C 27.1625 20.86875  27.3875 21.09375  27.3875 21.36875  L 27.3875 22.699999999999996  C 27.3875 22.974999999999994  27.1625 23.199999999999996  26.887500000000003 23.199999999999996  L 22.800000000000004 23.199999999999996  L 22.800000000000004 25.30625  L 26.887500000000003 25.30625  C 27.1625 25.30625  27.3875 25.53125  27.3875 25.80625  L 27.3875 27.137499999999996  C 27.3875 27.412499999999994  27.1625 27.637499999999996  26.887500000000003 27.637499999999996  L 22.800000000000004 27.637499999999996  L 22.800000000000004 31  C 22.800000000000004 31.275  22.575000000000003 31.5  22.300000000000004 31.5  L 19.718750000000004 31.5  C 19.443750000000005 31.5  19.218750000000004 31.275  19.218750000000004 31  L 19.218750000000004 27.637500000000003  L 15.150000000000007 27.637500000000003  C 14.875000000000007 27.637500000000003  14.650000000000006 27.4125  14.650000000000006 27.137500000000003  L 14.650000000000006 25.806250000000006  C 14.650000000000006 25.531250000000007  14.875000000000007 25.306250000000006  15.150000000000007 25.306250000000006  L 19.218750000000007 25.306250000000006  L 19.218750000000007 23.200000000000003  L 15.150000000000007 23.200000000000003  C 14.875000000000007 23.200000000000003  14.650000000000006 22.975  14.650000000000006 22.700000000000003  L 14.650000000000006 21.368750000000006  C 14.650000000000006 21.093750000000007  14.875000000000007 20.868750000000006  15.150000000000007 20.868750000000006  L 18.1875 20.868750000000006  L 12.60625 10.618750000000006  C 12.474999999999998 10.375000000000007  12.5625 10.068750000000005  12.806249999999999 9.937500000000007  C 12.875 9.893750000000008  12.962499999999999 9.875000000000007  13.043750000000001 9.875000000000007  L 15.91875 9.875000000000007  C 16.10657845550125 9.876039886347037  16.277978778238836 9.98225980466329  16.3625 10.150000000000006  L 20.950000000000003 19.237500000000004  L 21.125 19.237500000000004  L 25.7125 10.150000000000006  C 25.793749999999996 9.981250000000006  25.96875 9.875000000000007  26.156249999999996 9.875000000000007  L 28.968750000000004 9.875000000000007  C 29.25 9.875000000000007  29.46875 10.100000000000009  29.4625 10.375000000000007  Z " fill-rule="nonzero" fill="rgba(217, 217, 217, 1)" stroke="none" transform="matrix(1 0 0 1 4 9 )" class="fill" />
    <path d="M 33.5 0  L 33.5 3  C 33.5 3.2749999999999986  33.275 3.5  33 3.5  L 29.499999999999996 3.5  C 29.225000000000005 3.5  29 3.2749999999999986  29 3  L 29 0  L 13 0  L 13 3  C 13 3.2749999999999986  12.774999999999999 3.5  12.5 3.5  L 9 3.5  C 8.725000000000001 3.5  8.5 3.2749999999999986  8.5 3  L 8.5 0  L 1 0  L 1 36  L 41 36  L 41 0  L 33.5 0  Z " stroke-width="0" stroke-dasharray="0" stroke="rgba(255, 255, 255, 0)" fill="none" transform="matrix(1 0 0 1 4 9 )" class="stroke" mask="url(#Clip2830)" />
    <path d="M 29.4625 10.375000000000007  C 29.4625 10.456250000000008  29.437499999999996 10.537500000000009  29.4 10.6125  L 23.81875 20.86875  L 26.887500000000003 20.86875  C 27.1625 20.86875  27.3875 21.09375  27.3875 21.36875  L 27.3875 22.699999999999996  C 27.3875 22.974999999999994  27.1625 23.199999999999996  26.887500000000003 23.199999999999996  L 22.800000000000004 23.199999999999996  L 22.800000000000004 25.30625  L 26.887500000000003 25.30625  C 27.1625 25.30625  27.3875 25.53125  27.3875 25.80625  L 27.3875 27.137499999999996  C 27.3875 27.412499999999994  27.1625 27.637499999999996  26.887500000000003 27.637499999999996  L 22.800000000000004 27.637499999999996  L 22.800000000000004 31  C 22.800000000000004 31.275  22.575000000000003 31.5  22.300000000000004 31.5  L 19.718750000000004 31.5  C 19.443750000000005 31.5  19.218750000000004 31.275  19.218750000000004 31  L 19.218750000000004 27.637500000000003  L 15.150000000000007 27.637500000000003  C 14.875000000000007 27.637500000000003  14.650000000000006 27.4125  14.650000000000006 27.137500000000003  L 14.650000000000006 25.806250000000006  C 14.650000000000006 25.531250000000007  14.875000000000007 25.306250000000006  15.150000000000007 25.306250000000006  L 19.218750000000007 25.306250000000006  L 19.218750000000007 23.200000000000003  L 15.150000000000007 23.200000000000003  C 14.875000000000007 23.200000000000003  14.650000000000006 22.975  14.650000000000006 22.700000000000003  L 14.650000000000006 21.368750000000006  C 14.650000000000006 21.093750000000007  14.875000000000007 20.868750000000006  15.150000000000007 20.868750000000006  L 18.1875 20.868750000000006  L 12.60625 10.618750000000006  C 12.474999999999998 10.375000000000007  12.5625 10.068750000000005  12.806249999999999 9.937500000000007  C 12.875 9.893750000000008  12.962499999999999 9.875000000000007  13.043750000000001 9.875000000000007  L 15.91875 9.875000000000007  C 16.10657845550125 9.876039886347037  16.277978778238836 9.98225980466329  16.3625 10.150000000000006  L 20.950000000000003 19.237500000000004  L 21.125 19.237500000000004  L 25.7125 10.150000000000006  C 25.793749999999996 9.981250000000006  25.96875 9.875000000000007  26.156249999999996 9.875000000000007  L 28.968750000000004 9.875000000000007  C 29.25 9.875000000000007  29.46875 10.100000000000009  29.4625 10.375000000000007  Z " stroke-width="0" stroke-dasharray="0" stroke="rgba(255, 255, 255, 0)" fill="none" transform="matrix(1 0 0 1 4 9 )" class="stroke" mask="url(#Clip2830)" />
  </g>
</svg>