<?xml version="1.0" encoding="utf-8"?>
<svg version="1.1" xmlns:xlink="http://www.w3.org/1999/xlink" width="48px" height="48px" xmlns="http://www.w3.org/2000/svg">
  <defs>
    <pattern id="BGPattern" patternUnits="userSpaceOnUse" alignment="0 0" imageRepeat="None" />
    <mask fill="white" id="Clip6854">
      <path d="M 48 24  C 48 10.753999999999998  37.246 0  24 0  C 10.754 0  0 10.754  0 24  C 0 37.246  10.754 48  24 48  C 37.246 48  48 37.246  48 24  Z M 36.96 25.92000000000001  C 37.68 26.080000000000013  38.160000000000004 26.88000000000001  37.92 27.6  C 36.32 33.92  30.560000000000002 38.400000000000006  24 38.400000000000006  C 17.439999999999998 38.400000000000006  11.68 33.92  10.08 27.6  C 9.92 26.88000000000001  10.32 26.080000000000005  11.04 25.92000000000001  C 11.759999999999998 25.760000000000005  12.559999999999999 26.160000000000004  12.719999999999999 26.88000000000001  C 14.079999999999998 32.00000000000001  18.72 35.60000000000001  24 35.60000000000001  C 29.28 35.60000000000001  33.92 32.00000000000001  35.28 26.88000000000001  C 35.44 26.16000000000001  36.24 25.680000000000014  36.96 25.92000000000001  Z " fill-rule="evenodd" />
    </mask>
  </defs>
  <g>
    <path d="M 48 24  C 48 10.753999999999998  37.246 0  24 0  C 10.754 0  0 10.754  0 24  C 0 37.246  10.754 48  24 48  C 37.246 48  48 37.246  48 24  Z M 36.96 25.92000000000001  C 37.68 26.080000000000013  38.160000000000004 26.88000000000001  37.92 27.6  C 36.32 33.92  30.560000000000002 38.400000000000006  24 38.400000000000006  C 17.439999999999998 38.400000000000006  11.68 33.92  10.08 27.6  C 9.92 26.88000000000001  10.32 26.080000000000005  11.04 25.92000000000001  C 11.759999999999998 25.760000000000005  12.559999999999999 26.160000000000004  12.719999999999999 26.88000000000001  C 14.079999999999998 32.00000000000001  18.72 35.60000000000001  24 35.60000000000001  C 29.28 35.60000000000001  33.92 32.00000000000001  35.28 26.88000000000001  C 35.44 26.16000000000001  36.24 25.680000000000014  36.96 25.92000000000001  Z " fill-rule="nonzero" fill="rgba(0, 0, 0, 1)" stroke="none" class="fill" />
    <path d="M 48 24  C 48 10.753999999999998  37.246 0  24 0  C 10.754 0  0 10.754  0 24  C 0 37.246  10.754 48  24 48  C 37.246 48  48 37.246  48 24  Z " stroke-width="0" stroke-dasharray="0" stroke="rgba(255, 255, 255, 0)" fill="none" class="stroke" mask="url(#Clip6854)" />
    <path d="M 36.96 25.92000000000001  C 37.68 26.080000000000013  38.160000000000004 26.88000000000001  37.92 27.6  C 36.32 33.92  30.560000000000002 38.400000000000006  24 38.400000000000006  C 17.439999999999998 38.400000000000006  11.68 33.92  10.08 27.6  C 9.92 26.88000000000001  10.32 26.080000000000005  11.04 25.92000000000001  C 11.759999999999998 25.760000000000005  12.559999999999999 26.160000000000004  12.719999999999999 26.88000000000001  C 14.079999999999998 32.00000000000001  18.72 35.60000000000001  24 35.60000000000001  C 29.28 35.60000000000001  33.92 32.00000000000001  35.28 26.88000000000001  C 35.44 26.16000000000001  36.24 25.680000000000014  36.96 25.92000000000001  Z " stroke-width="0" stroke-dasharray="0" stroke="rgba(255, 255, 255, 0)" fill="none" class="stroke" mask="url(#Clip6854)" />
  </g>
</svg>