<?xml version="1.0" encoding="utf-8"?>
<svg version="1.1" xmlns:xlink="http://www.w3.org/1999/xlink" width="28px" height="28px" xmlns="http://www.w3.org/2000/svg">
  <defs>
    <pattern id="BGPattern" patternUnits="userSpaceOnUse" alignment="0 0" imageRepeat="None" />
    <mask fill="white" id="Clip504">
      <path d="M 18.831999999999997 17.568  C 19.583999999999996 22.032000000000004  19.119999999999997 22.448  14.159999999999998 26.288  C 13.648 26.672  12.928 26.528  12.592 26  C 8.096 18.656  9.264000000000001 19.776  1.888 15.28  C 1.3439999999999999 14.960000000000003  1.2159999999999997 14.224  1.6 13.728000000000002  C 5.4719999999999995 8.720000000000002  5.808 8.272000000000002  10.368 9.056000000000001  C 13.600000000000001 3.248000000000001  19.823999999999998 0.16000000000000014  26.863999999999997 1.056000000000001  C 27.759999999999998 8.080000000000002  24.687999999999995 14.304000000000002  18.831999999999997 17.568  Z M 4.3999999999999995 14.016000000000002  C 10.527999999999999 17.776000000000003  10.192 17.44  13.872 23.472  C 17.216 20.880000000000003  17.056 21.408  16.176 16.304000000000002  C 22.031999999999996 13.040000000000003  24.784 9.008000000000003  24.656 3.264000000000003  C 18.96 3.136000000000003  14.912 5.840000000000003  11.632 11.712000000000003  C 6.559999999999999 10.816000000000003  7.008 10.640000000000004  4.3999999999999995 14.016000000000002  Z M 20.96 9.936  C 20.128 10.768  18.768 10.768  17.936 9.936  C 17.104 9.104  17.104 7.744  17.936 6.911999999999999  C 18.768 6.079999999999998  20.128 6.079999999999998  20.96 6.911999999999999  C 21.792 7.744  21.792 9.104  20.96 9.936  Z M 8.544 21.439999999999998  C 10.752 25.567999999999998  4.640000000000001 27.04  0.944 27.04  C 0.944 23.311999999999998  2.4480000000000004 17.264  6.5440000000000005 19.439999999999998  C 4.832000000000001 19.695999999999998  4.912000000000001 22.095999999999997  4.912000000000001 23.072  C 5.968000000000001 23.072  8.304 23.151999999999997  8.544 21.439999999999998  Z " fill-rule="evenodd" />
    </mask>
  </defs>
  <g>
    <path d="M 18.831999999999997 17.568  C 19.583999999999996 22.032000000000004  19.119999999999997 22.448  14.159999999999998 26.288  C 13.648 26.672  12.928 26.528  12.592 26  C 8.096 18.656  9.264000000000001 19.776  1.888 15.28  C 1.3439999999999999 14.960000000000003  1.2159999999999997 14.224  1.6 13.728000000000002  C 5.4719999999999995 8.720000000000002  5.808 8.272000000000002  10.368 9.056000000000001  C 13.600000000000001 3.248000000000001  19.823999999999998 0.16000000000000014  26.863999999999997 1.056000000000001  C 27.759999999999998 8.080000000000002  24.687999999999995 14.304000000000002  18.831999999999997 17.568  Z M 4.3999999999999995 14.016000000000002  C 10.527999999999999 17.776000000000003  10.192 17.44  13.872 23.472  C 17.216 20.880000000000003  17.056 21.408  16.176 16.304000000000002  C 22.031999999999996 13.040000000000003  24.784 9.008000000000003  24.656 3.264000000000003  C 18.96 3.136000000000003  14.912 5.840000000000003  11.632 11.712000000000003  C 6.559999999999999 10.816000000000003  7.008 10.640000000000004  4.3999999999999995 14.016000000000002  Z M 20.96 9.936  C 20.128 10.768  18.768 10.768  17.936 9.936  C 17.104 9.104  17.104 7.744  17.936 6.911999999999999  C 18.768 6.079999999999998  20.128 6.079999999999998  20.96 6.911999999999999  C 21.792 7.744  21.792 9.104  20.96 9.936  Z M 8.544 21.439999999999998  C 10.752 25.567999999999998  4.640000000000001 27.04  0.944 27.04  C 0.944 23.311999999999998  2.4480000000000004 17.264  6.5440000000000005 19.439999999999998  C 4.832000000000001 19.695999999999998  4.912000000000001 22.095999999999997  4.912000000000001 23.072  C 5.968000000000001 23.072  8.304 23.151999999999997  8.544 21.439999999999998  Z " fill-rule="nonzero" fill="rgba(0, 0, 0, 1)" stroke="none" class="fill" />
    <path d="M 18.831999999999997 17.568  C 19.583999999999996 22.032000000000004  19.119999999999997 22.448  14.159999999999998 26.288  C 13.648 26.672  12.928 26.528  12.592 26  C 8.096 18.656  9.264000000000001 19.776  1.888 15.28  C 1.3439999999999999 14.960000000000003  1.2159999999999997 14.224  1.6 13.728000000000002  C 5.4719999999999995 8.720000000000002  5.808 8.272000000000002  10.368 9.056000000000001  C 13.600000000000001 3.248000000000001  19.823999999999998 0.16000000000000014  26.863999999999997 1.056000000000001  C 27.759999999999998 8.080000000000002  24.687999999999995 14.304000000000002  18.831999999999997 17.568  Z " stroke-width="0" stroke-dasharray="0" stroke="rgba(255, 255, 255, 0)" fill="none" class="stroke" mask="url(#Clip504)" />
    <path d="M 4.3999999999999995 14.016000000000002  C 10.527999999999999 17.776000000000003  10.192 17.44  13.872 23.472  C 17.216 20.880000000000003  17.056 21.408  16.176 16.304000000000002  C 22.031999999999996 13.040000000000003  24.784 9.008000000000003  24.656 3.264000000000003  C 18.96 3.136000000000003  14.912 5.840000000000003  11.632 11.712000000000003  C 6.559999999999999 10.816000000000003  7.008 10.640000000000004  4.3999999999999995 14.016000000000002  Z " stroke-width="0" stroke-dasharray="0" stroke="rgba(255, 255, 255, 0)" fill="none" class="stroke" mask="url(#Clip504)" />
    <path d="M 20.96 9.936  C 20.128 10.768  18.768 10.768  17.936 9.936  C 17.104 9.104  17.104 7.744  17.936 6.911999999999999  C 18.768 6.079999999999998  20.128 6.079999999999998  20.96 6.911999999999999  C 21.792 7.744  21.792 9.104  20.96 9.936  Z " stroke-width="0" stroke-dasharray="0" stroke="rgba(255, 255, 255, 0)" fill="none" class="stroke" mask="url(#Clip504)" />
    <path d="M 8.544 21.439999999999998  C 10.752 25.567999999999998  4.640000000000001 27.04  0.944 27.04  C 0.944 23.311999999999998  2.4480000000000004 17.264  6.5440000000000005 19.439999999999998  C 4.832000000000001 19.695999999999998  4.912000000000001 22.095999999999997  4.912000000000001 23.072  C 5.968000000000001 23.072  8.304 23.151999999999997  8.544 21.439999999999998  Z " stroke-width="0" stroke-dasharray="0" stroke="rgba(255, 255, 255, 0)" fill="none" class="stroke" mask="url(#Clip504)" />
  </g>
</svg>