<?xml version="1.0" encoding="utf-8"?>
<svg version="1.1" xmlns:xlink="http://www.w3.org/1999/xlink" width="32px" height="24px" xmlns="http://www.w3.org/2000/svg">
  <defs>
    <pattern id="BGPattern" patternUnits="userSpaceOnUse" alignment="0 0" imageRepeat="None" />
    <mask fill="white" id="Clip441">
      <path d="M 12.399999999999999 22  C 12.399999999999999 22.656  11.871999999999998 23.2  11.2 23.2  C 5.023999999999999 23.2  0 18.192  0 12  C 0 5.808  5.024 0.8000000000000007  11.2 0.8000000000000007  C 11.872 0.8000000000000007  12.399999999999999 1.3280000000000012  12.399999999999999 2.000000000000001  C 12.399999999999999 2.6560000000000006  11.871999999999998 3.200000000000001  11.2 3.200000000000001  C 6.351999999999999 3.200000000000001  2.3999999999999986 7.152000000000001  2.3999999999999986 12  C 2.3999999999999986 16.848  6.3519999999999985 20.8  11.2 20.8  C 11.872 20.8  12.399999999999999 21.328  12.399999999999999 22  Z M 32 12  C 32 18.192  26.992 23.2  20.8 23.2  C 14.624 23.2  9.600000000000001 18.192  9.600000000000001 12  C 9.600000000000001 5.808  14.624000000000002 0.8000000000000007  20.8 0.8000000000000007  C 26.992 0.8000000000000007  32 5.808  32 12  Z M 12 12  C 12 16.848  15.952 20.8  20.8 20.8  C 25.664 20.8  29.6 16.864  29.6 12  C 29.6 7.135999999999999  25.664 3.1999999999999993  20.8 3.1999999999999993  C 15.952000000000002 3.1999999999999993  12 7.151999999999999  12 12  Z M 20.448 18.32  C 20.016000000000002 18.96  19.312 19.088  18.8 18.768  C 18.192 18.448  18.016000000000002 17.648  18.400000000000002 17.056  C 19.408 15.616  20.000000000000004 13.872  20.000000000000004 12  C 20.000000000000004 10.128  19.408000000000005 8.384  18.400000000000002 6.943999999999999  C 18.032000000000004 6.399999999999999  18.160000000000004 5.68  18.688000000000002 5.295999999999999  C 19.200000000000003 4.911999999999999  20.016000000000002 5.023999999999999  20.368000000000002 5.552  C 21.648000000000003 7.3759999999999994  22.400000000000002 9.6  22.400000000000002 12  C 22.400000000000002 14.352  21.680000000000003 16.528  20.448 18.32  Z " fill-rule="evenodd" />
    </mask>
  </defs>
  <g>
    <path d="M 12.399999999999999 22  C 12.399999999999999 22.656  11.871999999999998 23.2  11.2 23.2  C 5.023999999999999 23.2  0 18.192  0 12  C 0 5.808  5.024 0.8000000000000007  11.2 0.8000000000000007  C 11.872 0.8000000000000007  12.399999999999999 1.3280000000000012  12.399999999999999 2.000000000000001  C 12.399999999999999 2.6560000000000006  11.871999999999998 3.200000000000001  11.2 3.200000000000001  C 6.351999999999999 3.200000000000001  2.3999999999999986 7.152000000000001  2.3999999999999986 12  C 2.3999999999999986 16.848  6.3519999999999985 20.8  11.2 20.8  C 11.872 20.8  12.399999999999999 21.328  12.399999999999999 22  Z M 32 12  C 32 18.192  26.992 23.2  20.8 23.2  C 14.624 23.2  9.600000000000001 18.192  9.600000000000001 12  C 9.600000000000001 5.808  14.624000000000002 0.8000000000000007  20.8 0.8000000000000007  C 26.992 0.8000000000000007  32 5.808  32 12  Z M 12 12  C 12 16.848  15.952 20.8  20.8 20.8  C 25.664 20.8  29.6 16.864  29.6 12  C 29.6 7.135999999999999  25.664 3.1999999999999993  20.8 3.1999999999999993  C 15.952000000000002 3.1999999999999993  12 7.151999999999999  12 12  Z M 20.448 18.32  C 20.016000000000002 18.96  19.312 19.088  18.8 18.768  C 18.192 18.448  18.016000000000002 17.648  18.400000000000002 17.056  C 19.408 15.616  20.000000000000004 13.872  20.000000000000004 12  C 20.000000000000004 10.128  19.408000000000005 8.384  18.400000000000002 6.943999999999999  C 18.032000000000004 6.399999999999999  18.160000000000004 5.68  18.688000000000002 5.295999999999999  C 19.200000000000003 4.911999999999999  20.016000000000002 5.023999999999999  20.368000000000002 5.552  C 21.648000000000003 7.3759999999999994  22.400000000000002 9.6  22.400000000000002 12  C 22.400000000000002 14.352  21.680000000000003 16.528  20.448 18.32  Z " fill-rule="nonzero" fill="rgba(0, 0, 0, 1)" stroke="none" class="fill" />
    <path d="M 12.399999999999999 22  C 12.399999999999999 22.656  11.871999999999998 23.2  11.2 23.2  C 5.023999999999999 23.2  0 18.192  0 12  C 0 5.808  5.024 0.8000000000000007  11.2 0.8000000000000007  C 11.872 0.8000000000000007  12.399999999999999 1.3280000000000012  12.399999999999999 2.000000000000001  C 12.399999999999999 2.6560000000000006  11.871999999999998 3.200000000000001  11.2 3.200000000000001  C 6.351999999999999 3.200000000000001  2.3999999999999986 7.152000000000001  2.3999999999999986 12  C 2.3999999999999986 16.848  6.3519999999999985 20.8  11.2 20.8  C 11.872 20.8  12.399999999999999 21.328  12.399999999999999 22  Z " stroke-width="0" stroke-dasharray="0" stroke="rgba(255, 255, 255, 0)" fill="none" class="stroke" mask="url(#Clip441)" />
    <path d="M 32 12  C 32 18.192  26.992 23.2  20.8 23.2  C 14.624 23.2  9.600000000000001 18.192  9.600000000000001 12  C 9.600000000000001 5.808  14.624000000000002 0.8000000000000007  20.8 0.8000000000000007  C 26.992 0.8000000000000007  32 5.808  32 12  Z " stroke-width="0" stroke-dasharray="0" stroke="rgba(255, 255, 255, 0)" fill="none" class="stroke" mask="url(#Clip441)" />
    <path d="M 12 12  C 12 16.848  15.952 20.8  20.8 20.8  C 25.664 20.8  29.6 16.864  29.6 12  C 29.6 7.135999999999999  25.664 3.1999999999999993  20.8 3.1999999999999993  C 15.952000000000002 3.1999999999999993  12 7.151999999999999  12 12  Z " stroke-width="0" stroke-dasharray="0" stroke="rgba(255, 255, 255, 0)" fill="none" class="stroke" mask="url(#Clip441)" />
    <path d="M 20.448 18.32  C 20.016000000000002 18.96  19.312 19.088  18.8 18.768  C 18.192 18.448  18.016000000000002 17.648  18.400000000000002 17.056  C 19.408 15.616  20.000000000000004 13.872  20.000000000000004 12  C 20.000000000000004 10.128  19.408000000000005 8.384  18.400000000000002 6.943999999999999  C 18.032000000000004 6.399999999999999  18.160000000000004 5.68  18.688000000000002 5.295999999999999  C 19.200000000000003 4.911999999999999  20.016000000000002 5.023999999999999  20.368000000000002 5.552  C 21.648000000000003 7.3759999999999994  22.400000000000002 9.6  22.400000000000002 12  C 22.400000000000002 14.352  21.680000000000003 16.528  20.448 18.32  Z " stroke-width="0" stroke-dasharray="0" stroke="rgba(255, 255, 255, 0)" fill="none" class="stroke" mask="url(#Clip441)" />
  </g>
</svg>