<?xml version="1.0" encoding="utf-8"?>
<svg version="1.1" xmlns:xlink="http://www.w3.org/1999/xlink" width="50px" height="40px" xmlns="http://www.w3.org/2000/svg">
  <defs>
    <pattern id="BGPattern" patternUnits="userSpaceOnUse" alignment="0 0" imageRepeat="None" />
    <mask fill="white" id="Clip2043">
      <path d="M 38.901640625 22.95491627066024  C 40.366093750000005 21.49046350319983  40.366093750000005 19.116089082892696  38.901640625 17.651636315432285  L 22.348359375 1.098359106840529  C 21.645101963395177 0.39509666632356977  20.69127859671113 0  19.696718750000002 0  L 3.75 0  C 1.6789062500000114 0  0 1.6789058401026895  0 3.7499990844545628  L 0 19.69671394113574  C 0 20.691273545029606  0.39509676278461825 21.64509667884202  1.0983593750000011 22.34835391874972  L 17.651640625 38.901631127341474  C 19.11601562499999 40.36608389480189  21.490390625000003 40.36616201978283  22.954921874999997 38.901631127341474  L 38.901640625 22.95491627066024  Z M 12.5 8.749997863727314  C 12.5 10.821091108079186  10.821093749999989 12.499996948181877  8.75 12.499996948181877  C 6.6789062500000105 12.499996948181877  5 10.821091108079186  5 8.749997863727314  C 5 6.67890461937544  6.6789062500000105 4.999998779272751  8.75 4.999998779272751  C 10.821093749999989 4.999998779272751  12.5 6.67890461937544  12.5 8.749997863727314  Z M 48.901640625 17.651636315432285  C 50.366093750000005 19.116089082892696  50.366093750000005 21.49046350319983  48.901640625 22.95491627066024  L 32.954921875 38.901631127341474  C 31.49046874999999 40.36608389480189  29.116093750000005 40.36608389480189  27.651640625000002 38.901631127341474  L 27.623515624999982 38.87350613420802  L 41.22187500000001 25.275150079185615  C 42.549921874999995 23.947103528422232  43.28125 22.181400834510605  43.28125 20.303276293046263  C 43.28125 18.425151751581925  42.54984375000001 16.65944905767035  41.22187500000001 15.33140250690691  L 25.89039062500001 0  L 29.696718750000002 0  C 30.69127859671113 0  31.645101963395177 0.39509666632356977  32.348359375 1.098359106840529  L 48.901640625 17.651636315432285  Z " fill-rule="evenodd" />
    </mask>
  </defs>
  <g>
    <path d="M 38.901640625 22.95491627066024  C 40.366093750000005 21.49046350319983  40.366093750000005 19.116089082892696  38.901640625 17.651636315432285  L 22.348359375 1.098359106840529  C 21.645101963395177 0.39509666632356977  20.69127859671113 0  19.696718750000002 0  L 3.75 0  C 1.6789062500000114 0  0 1.6789058401026895  0 3.7499990844545628  L 0 19.69671394113574  C 0 20.691273545029606  0.39509676278461825 21.64509667884202  1.0983593750000011 22.34835391874972  L 17.651640625 38.901631127341474  C 19.11601562499999 40.36608389480189  21.490390625000003 40.36616201978283  22.954921874999997 38.901631127341474  L 38.901640625 22.95491627066024  Z M 12.5 8.749997863727314  C 12.5 10.821091108079186  10.821093749999989 12.499996948181877  8.75 12.499996948181877  C 6.6789062500000105 12.499996948181877  5 10.821091108079186  5 8.749997863727314  C 5 6.67890461937544  6.6789062500000105 4.999998779272751  8.75 4.999998779272751  C 10.821093749999989 4.999998779272751  12.5 6.67890461937544  12.5 8.749997863727314  Z M 48.901640625 17.651636315432285  C 50.366093750000005 19.116089082892696  50.366093750000005 21.49046350319983  48.901640625 22.95491627066024  L 32.954921875 38.901631127341474  C 31.49046874999999 40.36608389480189  29.116093750000005 40.36608389480189  27.651640625000002 38.901631127341474  L 27.623515624999982 38.87350613420802  L 41.22187500000001 25.275150079185615  C 42.549921874999995 23.947103528422232  43.28125 22.181400834510605  43.28125 20.303276293046263  C 43.28125 18.425151751581925  42.54984375000001 16.65944905767035  41.22187500000001 15.33140250690691  L 25.89039062500001 0  L 29.696718750000002 0  C 30.69127859671113 0  31.645101963395177 0.39509666632356977  32.348359375 1.098359106840529  L 48.901640625 17.651636315432285  Z " fill-rule="nonzero" fill="rgba(0, 0, 0, 1)" stroke="none" class="fill" />
    <path d="M 38.901640625 22.95491627066024  C 40.366093750000005 21.49046350319983  40.366093750000005 19.116089082892696  38.901640625 17.651636315432285  L 22.348359375 1.098359106840529  C 21.645101963395177 0.39509666632356977  20.69127859671113 0  19.696718750000002 0  L 3.75 0  C 1.6789062500000114 0  0 1.6789058401026895  0 3.7499990844545628  L 0 19.69671394113574  C 0 20.691273545029606  0.39509676278461825 21.64509667884202  1.0983593750000011 22.34835391874972  L 17.651640625 38.901631127341474  C 19.11601562499999 40.36608389480189  21.490390625000003 40.36616201978283  22.954921874999997 38.901631127341474  L 38.901640625 22.95491627066024  Z " stroke-width="0" stroke-dasharray="0" stroke="rgba(255, 255, 255, 0)" fill="none" class="stroke" mask="url(#Clip2043)" />
    <path d="M 12.5 8.749997863727314  C 12.5 10.821091108079186  10.821093749999989 12.499996948181877  8.75 12.499996948181877  C 6.6789062500000105 12.499996948181877  5 10.821091108079186  5 8.749997863727314  C 5 6.67890461937544  6.6789062500000105 4.999998779272751  8.75 4.999998779272751  C 10.821093749999989 4.999998779272751  12.5 6.67890461937544  12.5 8.749997863727314  Z " stroke-width="0" stroke-dasharray="0" stroke="rgba(255, 255, 255, 0)" fill="none" class="stroke" mask="url(#Clip2043)" />
    <path d="M 48.901640625 17.651636315432285  C 50.366093750000005 19.116089082892696  50.366093750000005 21.49046350319983  48.901640625 22.95491627066024  L 32.954921875 38.901631127341474  C 31.49046874999999 40.36608389480189  29.116093750000005 40.36608389480189  27.651640625000002 38.901631127341474  L 27.623515624999982 38.87350613420802  L 41.22187500000001 25.275150079185615  C 42.549921874999995 23.947103528422232  43.28125 22.181400834510605  43.28125 20.303276293046263  C 43.28125 18.425151751581925  42.54984375000001 16.65944905767035  41.22187500000001 15.33140250690691  L 25.89039062500001 0  L 29.696718750000002 0  C 30.69127859671113 0  31.645101963395177 0.39509666632356977  32.348359375 1.098359106840529  L 48.901640625 17.651636315432285  Z " stroke-width="0" stroke-dasharray="0" stroke="rgba(255, 255, 255, 0)" fill="none" class="stroke" mask="url(#Clip2043)" />
  </g>
</svg>