<?xml version="1.0" encoding="utf-8"?>
<svg version="1.1" xmlns:xlink="http://www.w3.org/1999/xlink" width="64px" height="57px" xmlns="http://www.w3.org/2000/svg">
  <defs>
    <pattern id="BGPattern" patternUnits="userSpaceOnUse" alignment="0 0" imageRepeat="None" />
    <mask fill="white" id="Clip1418">
      <path d="M 46.22222222222222 33.833333333333336  C 46.22222222222222 29.477777777777774  43.08888888888889 25.866666666666667  38.94444444444444 25.11111111111111  C 38.17777777777778 20.977777777777778  34.577777777777776 17.833333333333336  30.22222222222222 17.833333333333336  C 28.855555555555554 17.833333333333336  27.566666666666663 18.166666666666668  26.411111111111108 18.72222222222222  C 24.477777777777774 16.044444444444444  21.34444444444444 14.277777777777779  17.77777777777778 14.277777777777779  C 11.888888888888888 14.277777777777779  7.111111111111111 19.055555555555557  7.111111111111111 24.944444444444443  C 7.111111111111111 25  7.133333333333333 25.066666666666666  7.133333333333333 25.12222222222222  C 3.066666666666667 25.933333333333334  0 29.522222222222226  0 33.833333333333336  C 0 38.74444444444444  3.9777777777777774 42.72222222222222  8.88888888888889 42  L 37.33333333333333 42  C 42.24444444444444 42.72222222222222  46.22222222222222 38.74444444444444  46.22222222222222 33.833333333333336  Z M 63.8111111111111 26.122222222222224  C 64.27777777777777 25.58888888888889  63.78888888888888 24.78888888888889  63.099999999999994 24.922222222222224  C 55.27777777777777 26.400000000000002  48.099999999999994 20.444444444444446  48.099999999999994 12.611111111111114  C 48.099999999999994 8.100000000000001  50.533333333333324 3.9444444444444473  54.48888888888888 1.7111111111111148  C 55.099999999999994 1.3666666666666705  54.94444444444444 0.4444444444444482  54.255555555555546 0.322222222222226  C 53.28888888888889 0.14444444444444604  52.3 0.055555555555557135  51.31111111111111 0.055555555555557135  C 42.65555555555555 0.055555555555557135  35.63333333333333 6.855555555555557  35.266666666666666 15.377777777777778  C 38.23333333333333 16.700000000000003  40.62222222222221 19.133333333333333  41.8111111111111 22.233333333333338  C 45.93333333333333 23.822222222222226  48.92222222222222 27.500000000000004  49.6111111111111 31.877777777777784  C 50.17777777777777 31.93333333333334  50.722222222222214 32.04444444444445  51.29999999999999 32.04444444444445  C 56.26666666666665 32.04444444444445  60.8111111111111 29.800000000000004  63.8111111111111 26.122222222222224  Z M 41.16666666666666 48.93333333333333  C 41.64444444444444 48.077777777777776  41.35555555555555 47  40.5 46.51111111111111  C 39.65555555555555 46.03333333333333  38.56666666666667 46.31111111111111  38.077777777777776 47.17777777777778  L 34.011111111111106 54.28888888888889  C 33.52222222222222 55.144444444444446  33.822222222222216 56.22222222222222  34.67777777777777 56.711111111111116  C 34.95555555555555 56.86666666666667  35.255555555555546 56.94444444444444  35.55555555555555 56.94444444444444  C 36.16666666666666 56.94444444444444  36.76666666666666 56.62222222222222  37.09999999999999 56.04444444444444  L 41.16666666666666 48.93333333333333  Z M 30.5 48.93333333333333  C 30.977777777777778 48.077777777777776  30.688888888888886 47  29.833333333333332 46.51111111111111  C 28.988888888888884 46.03333333333333  27.9 46.31111111111111  27.411111111111108 47.17777777777778  L 23.34444444444444 54.28888888888889  C 22.855555555555554 55.144444444444446  23.155555555555555 56.22222222222222  24.01111111111111 56.711111111111116  C 24.288888888888888 56.86666666666667  24.588888888888885 56.94444444444444  24.888888888888886 56.94444444444444  C 25.5 56.94444444444444  26.099999999999998 56.62222222222222  26.433333333333334 56.04444444444444  L 30.5 48.93333333333333  Z M 19.833333333333332 48.93333333333333  C 20.31111111111111 48.077777777777776  20.02222222222222 47  19.166666666666664 46.51111111111111  C 18.322222222222223 46.03333333333333  17.23333333333333 46.31111111111111  16.744444444444444 47.17777777777778  L 12.677777777777777 54.28888888888889  C 12.188888888888886 55.144444444444446  12.488888888888887 56.22222222222222  13.344444444444443 56.711111111111116  C 13.62222222222222 56.86666666666667  13.92222222222222 56.94444444444444  14.222222222222221 56.94444444444444  C 14.833333333333332 56.94444444444444  15.433333333333334 56.62222222222222  15.766666666666666 56.04444444444444  L 19.833333333333332 48.93333333333333  Z M 9.166666666666666 48.93333333333333  C 9.644444444444444 48.077777777777776  9.355555555555556 47  8.5 46.51111111111111  C 7.655555555555556 46.03333333333333  6.566666666666666 46.31111111111111  6.0777777777777775 47.17777777777778  L 2.011111111111111 54.28888888888889  C 1.5222222222222224 55.144444444444446  1.8222222222222224 56.22222222222222  2.6777777777777776 56.711111111111116  C 2.9555555555555557 56.86666666666667  3.2555555555555555 56.94444444444444  3.5555555555555554 56.94444444444444  C 4.166666666666666 56.94444444444444  4.766666666666667 56.62222222222222  5.1 56.04444444444444  L 9.166666666666666 48.93333333333333  Z " fill-rule="evenodd" />
    </mask>
  </defs>
  <g>
    <path d="M 46.22222222222222 33.833333333333336  C 46.22222222222222 29.477777777777774  43.08888888888889 25.866666666666667  38.94444444444444 25.11111111111111  C 38.17777777777778 20.977777777777778  34.577777777777776 17.833333333333336  30.22222222222222 17.833333333333336  C 28.855555555555554 17.833333333333336  27.566666666666663 18.166666666666668  26.411111111111108 18.72222222222222  C 24.477777777777774 16.044444444444444  21.34444444444444 14.277777777777779  17.77777777777778 14.277777777777779  C 11.888888888888888 14.277777777777779  7.111111111111111 19.055555555555557  7.111111111111111 24.944444444444443  C 7.111111111111111 25  7.133333333333333 25.066666666666666  7.133333333333333 25.12222222222222  C 3.066666666666667 25.933333333333334  0 29.522222222222226  0 33.833333333333336  C 0 38.74444444444444  3.9777777777777774 42.72222222222222  8.88888888888889 42  L 37.33333333333333 42  C 42.24444444444444 42.72222222222222  46.22222222222222 38.74444444444444  46.22222222222222 33.833333333333336  Z M 63.8111111111111 26.122222222222224  C 64.27777777777777 25.58888888888889  63.78888888888888 24.78888888888889  63.099999999999994 24.922222222222224  C 55.27777777777777 26.400000000000002  48.099999999999994 20.444444444444446  48.099999999999994 12.611111111111114  C 48.099999999999994 8.100000000000001  50.533333333333324 3.9444444444444473  54.48888888888888 1.7111111111111148  C 55.099999999999994 1.3666666666666705  54.94444444444444 0.4444444444444482  54.255555555555546 0.322222222222226  C 53.28888888888889 0.14444444444444604  52.3 0.055555555555557135  51.31111111111111 0.055555555555557135  C 42.65555555555555 0.055555555555557135  35.63333333333333 6.855555555555557  35.266666666666666 15.377777777777778  C 38.23333333333333 16.700000000000003  40.62222222222221 19.133333333333333  41.8111111111111 22.233333333333338  C 45.93333333333333 23.822222222222226  48.92222222222222 27.500000000000004  49.6111111111111 31.877777777777784  C 50.17777777777777 31.93333333333334  50.722222222222214 32.04444444444445  51.29999999999999 32.04444444444445  C 56.26666666666665 32.04444444444445  60.8111111111111 29.800000000000004  63.8111111111111 26.122222222222224  Z M 41.16666666666666 48.93333333333333  C 41.64444444444444 48.077777777777776  41.35555555555555 47  40.5 46.51111111111111  C 39.65555555555555 46.03333333333333  38.56666666666667 46.31111111111111  38.077777777777776 47.17777777777778  L 34.011111111111106 54.28888888888889  C 33.52222222222222 55.144444444444446  33.822222222222216 56.22222222222222  34.67777777777777 56.711111111111116  C 34.95555555555555 56.86666666666667  35.255555555555546 56.94444444444444  35.55555555555555 56.94444444444444  C 36.16666666666666 56.94444444444444  36.76666666666666 56.62222222222222  37.09999999999999 56.04444444444444  L 41.16666666666666 48.93333333333333  Z M 30.5 48.93333333333333  C 30.977777777777778 48.077777777777776  30.688888888888886 47  29.833333333333332 46.51111111111111  C 28.988888888888884 46.03333333333333  27.9 46.31111111111111  27.411111111111108 47.17777777777778  L 23.34444444444444 54.28888888888889  C 22.855555555555554 55.144444444444446  23.155555555555555 56.22222222222222  24.01111111111111 56.711111111111116  C 24.288888888888888 56.86666666666667  24.588888888888885 56.94444444444444  24.888888888888886 56.94444444444444  C 25.5 56.94444444444444  26.099999999999998 56.62222222222222  26.433333333333334 56.04444444444444  L 30.5 48.93333333333333  Z M 19.833333333333332 48.93333333333333  C 20.31111111111111 48.077777777777776  20.02222222222222 47  19.166666666666664 46.51111111111111  C 18.322222222222223 46.03333333333333  17.23333333333333 46.31111111111111  16.744444444444444 47.17777777777778  L 12.677777777777777 54.28888888888889  C 12.188888888888886 55.144444444444446  12.488888888888887 56.22222222222222  13.344444444444443 56.711111111111116  C 13.62222222222222 56.86666666666667  13.92222222222222 56.94444444444444  14.222222222222221 56.94444444444444  C 14.833333333333332 56.94444444444444  15.433333333333334 56.62222222222222  15.766666666666666 56.04444444444444  L 19.833333333333332 48.93333333333333  Z M 9.166666666666666 48.93333333333333  C 9.644444444444444 48.077777777777776  9.355555555555556 47  8.5 46.51111111111111  C 7.655555555555556 46.03333333333333  6.566666666666666 46.31111111111111  6.0777777777777775 47.17777777777778  L 2.011111111111111 54.28888888888889  C 1.5222222222222224 55.144444444444446  1.8222222222222224 56.22222222222222  2.6777777777777776 56.711111111111116  C 2.9555555555555557 56.86666666666667  3.2555555555555555 56.94444444444444  3.5555555555555554 56.94444444444444  C 4.166666666666666 56.94444444444444  4.766666666666667 56.62222222222222  5.1 56.04444444444444  L 9.166666666666666 48.93333333333333  Z " fill-rule="nonzero" fill="rgba(0, 0, 0, 1)" stroke="none" class="fill" />
    <path d="M 46.22222222222222 33.833333333333336  C 46.22222222222222 29.477777777777774  43.08888888888889 25.866666666666667  38.94444444444444 25.11111111111111  C 38.17777777777778 20.977777777777778  34.577777777777776 17.833333333333336  30.22222222222222 17.833333333333336  C 28.855555555555554 17.833333333333336  27.566666666666663 18.166666666666668  26.411111111111108 18.72222222222222  C 24.477777777777774 16.044444444444444  21.34444444444444 14.277777777777779  17.77777777777778 14.277777777777779  C 11.888888888888888 14.277777777777779  7.111111111111111 19.055555555555557  7.111111111111111 24.944444444444443  C 7.111111111111111 25  7.133333333333333 25.066666666666666  7.133333333333333 25.12222222222222  C 3.066666666666667 25.933333333333334  0 29.522222222222226  0 33.833333333333336  C 0 38.74444444444444  3.9777777777777774 42.72222222222222  8.88888888888889 42  L 37.33333333333333 42  C 42.24444444444444 42.72222222222222  46.22222222222222 38.74444444444444  46.22222222222222 33.833333333333336  Z " stroke-width="0" stroke-dasharray="0" stroke="rgba(255, 255, 255, 0)" fill="none" class="stroke" mask="url(#Clip1418)" />
    <path d="M 63.8111111111111 26.122222222222224  C 64.27777777777777 25.58888888888889  63.78888888888888 24.78888888888889  63.099999999999994 24.922222222222224  C 55.27777777777777 26.400000000000002  48.099999999999994 20.444444444444446  48.099999999999994 12.611111111111114  C 48.099999999999994 8.100000000000001  50.533333333333324 3.9444444444444473  54.48888888888888 1.7111111111111148  C 55.099999999999994 1.3666666666666705  54.94444444444444 0.4444444444444482  54.255555555555546 0.322222222222226  C 53.28888888888889 0.14444444444444604  52.3 0.055555555555557135  51.31111111111111 0.055555555555557135  C 42.65555555555555 0.055555555555557135  35.63333333333333 6.855555555555557  35.266666666666666 15.377777777777778  C 38.23333333333333 16.700000000000003  40.62222222222221 19.133333333333333  41.8111111111111 22.233333333333338  C 45.93333333333333 23.822222222222226  48.92222222222222 27.500000000000004  49.6111111111111 31.877777777777784  C 50.17777777777777 31.93333333333334  50.722222222222214 32.04444444444445  51.29999999999999 32.04444444444445  C 56.26666666666665 32.04444444444445  60.8111111111111 29.800000000000004  63.8111111111111 26.122222222222224  Z " stroke-width="0" stroke-dasharray="0" stroke="rgba(255, 255, 255, 0)" fill="none" class="stroke" mask="url(#Clip1418)" />
    <path d="M 41.16666666666666 48.93333333333333  C 41.64444444444444 48.077777777777776  41.35555555555555 47  40.5 46.51111111111111  C 39.65555555555555 46.03333333333333  38.56666666666667 46.31111111111111  38.077777777777776 47.17777777777778  L 34.011111111111106 54.28888888888889  C 33.52222222222222 55.144444444444446  33.822222222222216 56.22222222222222  34.67777777777777 56.711111111111116  C 34.95555555555555 56.86666666666667  35.255555555555546 56.94444444444444  35.55555555555555 56.94444444444444  C 36.16666666666666 56.94444444444444  36.76666666666666 56.62222222222222  37.09999999999999 56.04444444444444  L 41.16666666666666 48.93333333333333  Z " stroke-width="0" stroke-dasharray="0" stroke="rgba(255, 255, 255, 0)" fill="none" class="stroke" mask="url(#Clip1418)" />
    <path d="M 30.5 48.93333333333333  C 30.977777777777778 48.077777777777776  30.688888888888886 47  29.833333333333332 46.51111111111111  C 28.988888888888884 46.03333333333333  27.9 46.31111111111111  27.411111111111108 47.17777777777778  L 23.34444444444444 54.28888888888889  C 22.855555555555554 55.144444444444446  23.155555555555555 56.22222222222222  24.01111111111111 56.711111111111116  C 24.288888888888888 56.86666666666667  24.588888888888885 56.94444444444444  24.888888888888886 56.94444444444444  C 25.5 56.94444444444444  26.099999999999998 56.62222222222222  26.433333333333334 56.04444444444444  L 30.5 48.93333333333333  Z " stroke-width="0" stroke-dasharray="0" stroke="rgba(255, 255, 255, 0)" fill="none" class="stroke" mask="url(#Clip1418)" />
    <path d="M 19.833333333333332 48.93333333333333  C 20.31111111111111 48.077777777777776  20.02222222222222 47  19.166666666666664 46.51111111111111  C 18.322222222222223 46.03333333333333  17.23333333333333 46.31111111111111  16.744444444444444 47.17777777777778  L 12.677777777777777 54.28888888888889  C 12.188888888888886 55.144444444444446  12.488888888888887 56.22222222222222  13.344444444444443 56.711111111111116  C 13.62222222222222 56.86666666666667  13.92222222222222 56.94444444444444  14.222222222222221 56.94444444444444  C 14.833333333333332 56.94444444444444  15.433333333333334 56.62222222222222  15.766666666666666 56.04444444444444  L 19.833333333333332 48.93333333333333  Z " stroke-width="0" stroke-dasharray="0" stroke="rgba(255, 255, 255, 0)" fill="none" class="stroke" mask="url(#Clip1418)" />
    <path d="M 9.166666666666666 48.93333333333333  C 9.644444444444444 48.077777777777776  9.355555555555556 47  8.5 46.51111111111111  C 7.655555555555556 46.03333333333333  6.566666666666666 46.31111111111111  6.0777777777777775 47.17777777777778  L 2.011111111111111 54.28888888888889  C 1.5222222222222224 55.144444444444446  1.8222222222222224 56.22222222222222  2.6777777777777776 56.711111111111116  C 2.9555555555555557 56.86666666666667  3.2555555555555555 56.94444444444444  3.5555555555555554 56.94444444444444  C 4.166666666666666 56.94444444444444  4.766666666666667 56.62222222222222  5.1 56.04444444444444  L 9.166666666666666 48.93333333333333  Z " stroke-width="0" stroke-dasharray="0" stroke="rgba(255, 255, 255, 0)" fill="none" class="stroke" mask="url(#Clip1418)" />
  </g>
</svg>