<?xml version="1.0" encoding="utf-8"?>
<svg version="1.1" xmlns:xlink="http://www.w3.org/1999/xlink" width="50px" height="25px" xmlns="http://www.w3.org/2000/svg">
  <defs>
    <pattern id="BGPattern" patternUnits="userSpaceOnUse" alignment="0 0" imageRepeat="None" />
    <mask fill="white" id="Clip1809">
      <path d="M 49.99921875000001 5.625  C 50 5.210156250000011  49.60234374999999 4.91015625  49.203125 5.024218749999989  L 32.5 10  L 28.55546874999999 8.028124999999989  C 27.861184215786807 7.681105259759249  27.095710110631043 7.500301452950964  26.31953125000001 7.5  L 21.875 7.5  L 21.875 3.75  L 26.25 3.75  C 26.94062500000001 3.75  27.500000000000004 3.1906250000000114  27.500000000000004 2.5  L 27.500000000000004 1.25  C 27.500000000000004 0.5593749999999886  26.94062500000001 0  26.25 0  L 13.750000000000002 0  C 13.05937499999999 0  12.5 0.5593749999999886  12.5 1.25  L 12.5 2.5  C 12.5 3.1906250000000114  13.05937499999999 3.75  13.750000000000002 3.75  L 18.125 3.75  L 18.125 7.5  L 13.750000000000002 7.5  L 2.9468749999999773 5.535937499999989  C 2.797668546966463 5.508394582347478  2.646258564370214 5.494534946634872  2.4945312500000227 5.494531250000023  C 1.1460937499999773 5.494531250000023  0 6.590624999999989  0 7.995312500000011  L 0 15.413281250000011  C 0 16.62109375  0.8640624999999886 17.65703124999999  2.0531250000000227 17.872656249999977  L 7.5 18.86406249999999  L 7.5 22.5  C 7.5 23.880468749999977  8.619531250000023 25  10 25  L 31.45546875000002 25  C 32.12343750000002 25  32.76406250000002 24.732812500000023  33.23359375000001 24.25703125000001  L 49.81640625 7.479687500000011  C 49.93359375 7.3625000000000105  49.99921875000001 7.203125000000001  49.99921875000001 7.037500000000023  L 49.99921875000001 5.625  Z M 7.5 10.175000000000011  L 7.5 15.052343749999977  L 3.75 14.370312500000013  L 3.75 9.492968749999989  L 7.5 10.175000000000011  Z M 46.25 15  C 46.25 15  42.91640625000002 19.825781249999977  42.91640625000002 21.666406250000023  C 42.91640625000002 23.50703125000001  44.40859375000002 25  46.25 25  C 48.09140624999998 25  49.58359374999998 23.5078125  49.58359374999998 21.666406250000023  C 49.58359374999998 19.82499999999999  46.25 15  46.25 15  Z " fill-rule="evenodd" />
    </mask>
  </defs>
  <g>
    <path d="M 49.99921875000001 5.625  C 50 5.210156250000011  49.60234374999999 4.91015625  49.203125 5.024218749999989  L 32.5 10  L 28.55546874999999 8.028124999999989  C 27.861184215786807 7.681105259759249  27.095710110631043 7.500301452950964  26.31953125000001 7.5  L 21.875 7.5  L 21.875 3.75  L 26.25 3.75  C 26.94062500000001 3.75  27.500000000000004 3.1906250000000114  27.500000000000004 2.5  L 27.500000000000004 1.25  C 27.500000000000004 0.5593749999999886  26.94062500000001 0  26.25 0  L 13.750000000000002 0  C 13.05937499999999 0  12.5 0.5593749999999886  12.5 1.25  L 12.5 2.5  C 12.5 3.1906250000000114  13.05937499999999 3.75  13.750000000000002 3.75  L 18.125 3.75  L 18.125 7.5  L 13.750000000000002 7.5  L 2.9468749999999773 5.535937499999989  C 2.797668546966463 5.508394582347478  2.646258564370214 5.494534946634872  2.4945312500000227 5.494531250000023  C 1.1460937499999773 5.494531250000023  0 6.590624999999989  0 7.995312500000011  L 0 15.413281250000011  C 0 16.62109375  0.8640624999999886 17.65703124999999  2.0531250000000227 17.872656249999977  L 7.5 18.86406249999999  L 7.5 22.5  C 7.5 23.880468749999977  8.619531250000023 25  10 25  L 31.45546875000002 25  C 32.12343750000002 25  32.76406250000002 24.732812500000023  33.23359375000001 24.25703125000001  L 49.81640625 7.479687500000011  C 49.93359375 7.3625000000000105  49.99921875000001 7.203125000000001  49.99921875000001 7.037500000000023  L 49.99921875000001 5.625  Z M 7.5 10.175000000000011  L 7.5 15.052343749999977  L 3.75 14.370312500000013  L 3.75 9.492968749999989  L 7.5 10.175000000000011  Z M 46.25 15  C 46.25 15  42.91640625000002 19.825781249999977  42.91640625000002 21.666406250000023  C 42.91640625000002 23.50703125000001  44.40859375000002 25  46.25 25  C 48.09140624999998 25  49.58359374999998 23.5078125  49.58359374999998 21.666406250000023  C 49.58359374999998 19.82499999999999  46.25 15  46.25 15  Z " fill-rule="nonzero" fill="rgba(0, 0, 0, 1)" stroke="none" class="fill" />
    <path d="M 49.99921875000001 5.625  C 50 5.210156250000011  49.60234374999999 4.91015625  49.203125 5.024218749999989  L 32.5 10  L 28.55546874999999 8.028124999999989  C 27.861184215786807 7.681105259759249  27.095710110631043 7.500301452950964  26.31953125000001 7.5  L 21.875 7.5  L 21.875 3.75  L 26.25 3.75  C 26.94062500000001 3.75  27.500000000000004 3.1906250000000114  27.500000000000004 2.5  L 27.500000000000004 1.25  C 27.500000000000004 0.5593749999999886  26.94062500000001 0  26.25 0  L 13.750000000000002 0  C 13.05937499999999 0  12.5 0.5593749999999886  12.5 1.25  L 12.5 2.5  C 12.5 3.1906250000000114  13.05937499999999 3.75  13.750000000000002 3.75  L 18.125 3.75  L 18.125 7.5  L 13.750000000000002 7.5  L 2.9468749999999773 5.535937499999989  C 2.797668546966463 5.508394582347478  2.646258564370214 5.494534946634872  2.4945312500000227 5.494531250000023  C 1.1460937499999773 5.494531250000023  0 6.590624999999989  0 7.995312500000011  L 0 15.413281250000011  C 0 16.62109375  0.8640624999999886 17.65703124999999  2.0531250000000227 17.872656249999977  L 7.5 18.86406249999999  L 7.5 22.5  C 7.5 23.880468749999977  8.619531250000023 25  10 25  L 31.45546875000002 25  C 32.12343750000002 25  32.76406250000002 24.732812500000023  33.23359375000001 24.25703125000001  L 49.81640625 7.479687500000011  C 49.93359375 7.3625000000000105  49.99921875000001 7.203125000000001  49.99921875000001 7.037500000000023  L 49.99921875000001 5.625  Z " stroke-width="0" stroke-dasharray="0" stroke="rgba(255, 255, 255, 0)" fill="none" class="stroke" mask="url(#Clip1809)" />
    <path d="M 7.5 10.175000000000011  L 7.5 15.052343749999977  L 3.75 14.370312500000013  L 3.75 9.492968749999989  L 7.5 10.175000000000011  Z " stroke-width="0" stroke-dasharray="0" stroke="rgba(255, 255, 255, 0)" fill="none" class="stroke" mask="url(#Clip1809)" />
    <path d="M 46.25 15  C 46.25 15  42.91640625000002 19.825781249999977  42.91640625000002 21.666406250000023  C 42.91640625000002 23.50703125000001  44.40859375000002 25  46.25 25  C 48.09140624999998 25  49.58359374999998 23.5078125  49.58359374999998 21.666406250000023  C 49.58359374999998 19.82499999999999  46.25 15  46.25 15  Z " stroke-width="0" stroke-dasharray="0" stroke="rgba(255, 255, 255, 0)" fill="none" class="stroke" mask="url(#Clip1809)" />
  </g>
</svg>