<?xml version="1.0" encoding="utf-8"?>
<svg version="1.1" xmlns:xlink="http://www.w3.org/1999/xlink" width="42px" height="42px" xmlns="http://www.w3.org/2000/svg">
  <defs>
    <pattern id="BGPattern" patternUnits="userSpaceOnUse" alignment="0 0" imageRepeat="None" />
    <mask fill="white" id="Clip3144">
      <path d="M 42 2  C 42 0.8937500000000007  41.10625 0  40 0  L 2 0  C 0.8937499999999999 0  0 0.8937500000000007  0 2  L 0 40  C 0 41.10625  0.8937499999999999 42  2 42  L 40 42  C 41.10625 42  42 41.10625  42 40  L 42 2  Z M 37 5  L 37 37  L 5 37  L 5 5  L 37 5  Z " fill-rule="evenodd" />
    </mask>
  </defs>
  <g transform="matrix(1 0 0 1 0 -8 )">
    <path d="M 42 2  C 42 0.8937500000000007  41.10625 0  40 0  L 2 0  C 0.8937499999999999 0  0 0.8937500000000007  0 2  L 0 40  C 0 41.10625  0.8937499999999999 42  2 42  L 40 42  C 41.10625 42  42 41.10625  42 40  L 42 2  Z M 37 5  L 37 37  L 5 37  L 5 5  L 37 5  Z " fill-rule="nonzero" fill="rgba(0, 0, 0, 1)" stroke="none" transform="matrix(1 0 0 1 0 8 )" class="fill" />
    <path d="M 42 2  C 42 0.8937500000000007  41.10625 0  40 0  L 2 0  C 0.8937499999999999 0  0 0.8937500000000007  0 2  L 0 40  C 0 41.10625  0.8937499999999999 42  2 42  L 40 42  C 41.10625 42  42 41.10625  42 40  L 42 2  Z " stroke-width="0" stroke-dasharray="0" stroke="rgba(255, 255, 255, 0)" fill="none" transform="matrix(1 0 0 1 0 8 )" class="stroke" mask="url(#Clip3144)" />
    <path d="M 37 5  L 37 37  L 5 37  L 5 5  L 37 5  Z " stroke-width="0" stroke-dasharray="0" stroke="rgba(255, 255, 255, 0)" fill="none" transform="matrix(1 0 0 1 0 8 )" class="stroke" mask="url(#Clip3144)" />
  </g>
</svg>