<?xml version="1.0" encoding="utf-8"?>
<svg version="1.1" xmlns:xlink="http://www.w3.org/1999/xlink" width="29px" height="50px" xmlns="http://www.w3.org/2000/svg">
  <defs>
    <pattern id="BGPattern" patternUnits="userSpaceOnUse" alignment="0 0" imageRepeat="None" />
    <mask fill="white" id="Clip1756">
      <path d="M 14.0625 31.25  C 12.994140625 31.25  11.9521484375 31.138671875  11 30.951171875  L 11 46.2529296875  L 13.087890625 49.4775390625  C 13.5517578125 50.1728515625  14.57421875 50.1728515625  15.0380859375 49.4775390625  L 17 46.2529296875  L 17 30.951171875  C 16.1728515625 31.138671875  15.130859374999998 31.25  14.0625 31.25  Z M 28.125 14.0625  C 28.125 6.2958984375  21.8291015625 0  14.0625 0  C 6.2958984375 0  0 6.2958984375  0 14.0625  C 0 21.8291015625  6.2958984375 28.125  14.0625 28.125  C 21.8291015625 28.125  28.125 21.8291015625  28.125 14.0625  Z M 15.234375 6.25  C 15.234375 6.896484375  14.708984375 7.421875  14.0625 7.421875  C 10.400390625 7.421875  7.421875 10.400390625  7.421875 14.0625  C 7.421875 14.708984375  6.896484375 15.234375  6.25 15.234375  C 5.603515625 15.234375  5.078125 14.708984375  5.078125 14.0625  C 5.078125 9.1083984375  9.109375 5.078125  14.0625 5.078125  C 14.708984375 5.078125  15.234375 5.603515625  15.234375 6.25  Z " fill-rule="evenodd" />
    </mask>
  </defs>
  <g>
    <path d="M 14.0625 31.25  C 12.994140625 31.25  11.9521484375 31.138671875  11 30.951171875  L 11 46.2529296875  L 13.087890625 49.4775390625  C 13.5517578125 50.1728515625  14.57421875 50.1728515625  15.0380859375 49.4775390625  L 17 46.2529296875  L 17 30.951171875  C 16.1728515625 31.138671875  15.130859374999998 31.25  14.0625 31.25  Z M 28.125 14.0625  C 28.125 6.2958984375  21.8291015625 0  14.0625 0  C 6.2958984375 0  0 6.2958984375  0 14.0625  C 0 21.8291015625  6.2958984375 28.125  14.0625 28.125  C 21.8291015625 28.125  28.125 21.8291015625  28.125 14.0625  Z M 15.234375 6.25  C 15.234375 6.896484375  14.708984375 7.421875  14.0625 7.421875  C 10.400390625 7.421875  7.421875 10.400390625  7.421875 14.0625  C 7.421875 14.708984375  6.896484375 15.234375  6.25 15.234375  C 5.603515625 15.234375  5.078125 14.708984375  5.078125 14.0625  C 5.078125 9.1083984375  9.109375 5.078125  14.0625 5.078125  C 14.708984375 5.078125  15.234375 5.603515625  15.234375 6.25  Z " fill-rule="nonzero" fill="rgba(0, 0, 0, 1)" stroke="none" class="fill" />
    <path d="M 14.0625 31.25  C 12.994140625 31.25  11.9521484375 31.138671875  11 30.951171875  L 11 46.2529296875  L 13.087890625 49.4775390625  C 13.5517578125 50.1728515625  14.57421875 50.1728515625  15.0380859375 49.4775390625  L 17 46.2529296875  L 17 30.951171875  C 16.1728515625 31.138671875  15.130859374999998 31.25  14.0625 31.25  Z " stroke-width="0" stroke-dasharray="0" stroke="rgba(255, 255, 255, 0)" fill="none" class="stroke" mask="url(#Clip1756)" />
    <path d="M 28.125 14.0625  C 28.125 6.2958984375  21.8291015625 0  14.0625 0  C 6.2958984375 0  0 6.2958984375  0 14.0625  C 0 21.8291015625  6.2958984375 28.125  14.0625 28.125  C 21.8291015625 28.125  28.125 21.8291015625  28.125 14.0625  Z " stroke-width="0" stroke-dasharray="0" stroke="rgba(255, 255, 255, 0)" fill="none" class="stroke" mask="url(#Clip1756)" />
    <path d="M 15.234375 6.25  C 15.234375 6.896484375  14.708984375 7.421875  14.0625 7.421875  C 10.400390625 7.421875  7.421875 10.400390625  7.421875 14.0625  C 7.421875 14.708984375  6.896484375 15.234375  6.25 15.234375  C 5.603515625 15.234375  5.078125 14.708984375  5.078125 14.0625  C 5.078125 9.1083984375  9.109375 5.078125  14.0625 5.078125  C 14.708984375 5.078125  15.234375 5.603515625  15.234375 6.25  Z " stroke-width="0" stroke-dasharray="0" stroke="rgba(255, 255, 255, 0)" fill="none" class="stroke" mask="url(#Clip1756)" />
  </g>
</svg>