<?xml version="1.0" encoding="utf-8"?>
<svg version="1.1" xmlns:xlink="http://www.w3.org/1999/xlink" width="24px" height="23px" xmlns="http://www.w3.org/2000/svg">
  <defs>
    <pattern id="BGPattern" patternUnits="userSpaceOnUse" alignment="0 0" imageRepeat="None" />
    <mask fill="white" id="Clip4814">
      <path d="M 3.3255 8  L 7.6065 0.8645000000000002  C 7.742006085090084 0.63830501749554  7.98632203503775 0.49986501214781365  8.25 0.49986501214781365  C 8.664288114105268 0.49986501214781365  9.000134987852187 0.8357118858947301  9.000134987852187 1.25  C 9.000134987852187 1.3857827618359306  8.963279780353433 1.51901935497423  8.8935 1.6355000000000004  L 5.0745000000000005 8  L 18.9255 8  L 15.105 1.6355  C 15.035220219646567 1.5190193549742306  14.998365012147815 1.3857827618359289  14.998365012147815 1.25  C 14.998365012147815 0.8357118858947299  15.334211885894732 0.4998650121478129  15.7485 0.4998650121478129  C 16.01217796496225 0.4998650121478129  16.256493914909917 0.6383050174955398  16.392000000000003 0.8644999999999998  L 20.6745 8  L 23.25 8  C 23.664213562373096 8  24 8.335786437626904  24 8.75  L 24 11.750000000000002  C 24 12.164213562373096  23.664213562373096 12.5  23.25 12.5  L 22.5 12.5  L 22.5 20  C 22.5 21.65685424949238  21.15685424949238 23  19.5 23  L 4.5 23  C 2.8431457505076194 23  1.5 21.65685424949238  1.5 20  L 1.5 12.5  L 0.75 12.5  C 0.3357864376269049 12.5  0 12.164213562373096  0 11.750000000000002  L 0 8.75  C 0 8.335786437626904  0.3357864376269049 8  0.75 8  L 3.3255 8  Z M 5.25 19.25  L 5.25 14.75  C 5.25 14.335786437626904  4.914213562373095 14  4.5 14  C 4.085786437626905 14  3.75 14.335786437626904  3.75 14.75  L 3.75 19.25  C 3.75 19.664213562373096  4.085786437626905 20  4.5 20  C 4.914213562373095 20  5.25 19.664213562373096  5.25 19.25  Z M 9 19.25  L 9 14.75  C 9 14.335786437626904  8.664213562373096 14  8.25 14  C 7.835786437626905 14  7.5 14.335786437626904  7.5 14.75  L 7.5 19.25  C 7.5 19.664213562373096  7.835786437626905 20  8.25 20  C 8.664213562373096 20  9 19.664213562373096  9 19.25  Z M 12.75 19.25  L 12.75 14.75  C 12.75 14.335786437626904  12.414213562373096 14  12 14  C 11.585786437626904 14  11.25 14.335786437626904  11.25 14.75  L 11.25 19.25  C 11.25 19.664213562373096  11.585786437626904 20  12 20  C 12.414213562373096 20  12.75 19.664213562373096  12.75 19.25  Z M 16.5 19.25  L 16.5 14.75  C 16.5 14.335786437626904  16.164213562373096 14  15.75 14  C 15.335786437626904 14  15 14.335786437626904  15 14.75  L 15 19.25  C 15 19.664213562373096  15.335786437626904 20  15.75 20  C 16.164213562373096 20  16.5 19.664213562373096  16.5 19.25  Z M 20.25 19.25  L 20.25 14.75  C 20.25 14.335786437626904  19.914213562373096 14  19.5 14  C 19.085786437626904 14  18.75 14.335786437626904  18.75 14.75  L 18.75 19.25  C 18.75 19.664213562373096  19.085786437626904 20  19.5 20  C 19.914213562373096 20  20.25 19.664213562373096  20.25 19.25  Z " fill-rule="evenodd" />
    </mask>
  </defs>
  <g>
    <path d="M 3.3255 8  L 7.6065 0.8645000000000002  C 7.742006085090084 0.63830501749554  7.98632203503775 0.49986501214781365  8.25 0.49986501214781365  C 8.664288114105268 0.49986501214781365  9.000134987852187 0.8357118858947301  9.000134987852187 1.25  C 9.000134987852187 1.3857827618359306  8.963279780353433 1.51901935497423  8.8935 1.6355000000000004  L 5.0745000000000005 8  L 18.9255 8  L 15.105 1.6355  C 15.035220219646567 1.5190193549742306  14.998365012147815 1.3857827618359289  14.998365012147815 1.25  C 14.998365012147815 0.8357118858947299  15.334211885894732 0.4998650121478129  15.7485 0.4998650121478129  C 16.01217796496225 0.4998650121478129  16.256493914909917 0.6383050174955398  16.392000000000003 0.8644999999999998  L 20.6745 8  L 23.25 8  C 23.664213562373096 8  24 8.335786437626904  24 8.75  L 24 11.750000000000002  C 24 12.164213562373096  23.664213562373096 12.5  23.25 12.5  L 22.5 12.5  L 22.5 20  C 22.5 21.65685424949238  21.15685424949238 23  19.5 23  L 4.5 23  C 2.8431457505076194 23  1.5 21.65685424949238  1.5 20  L 1.5 12.5  L 0.75 12.5  C 0.3357864376269049 12.5  0 12.164213562373096  0 11.750000000000002  L 0 8.75  C 0 8.335786437626904  0.3357864376269049 8  0.75 8  L 3.3255 8  Z M 5.25 19.25  L 5.25 14.75  C 5.25 14.335786437626904  4.914213562373095 14  4.5 14  C 4.085786437626905 14  3.75 14.335786437626904  3.75 14.75  L 3.75 19.25  C 3.75 19.664213562373096  4.085786437626905 20  4.5 20  C 4.914213562373095 20  5.25 19.664213562373096  5.25 19.25  Z M 9 19.25  L 9 14.75  C 9 14.335786437626904  8.664213562373096 14  8.25 14  C 7.835786437626905 14  7.5 14.335786437626904  7.5 14.75  L 7.5 19.25  C 7.5 19.664213562373096  7.835786437626905 20  8.25 20  C 8.664213562373096 20  9 19.664213562373096  9 19.25  Z M 12.75 19.25  L 12.75 14.75  C 12.75 14.335786437626904  12.414213562373096 14  12 14  C 11.585786437626904 14  11.25 14.335786437626904  11.25 14.75  L 11.25 19.25  C 11.25 19.664213562373096  11.585786437626904 20  12 20  C 12.414213562373096 20  12.75 19.664213562373096  12.75 19.25  Z M 16.5 19.25  L 16.5 14.75  C 16.5 14.335786437626904  16.164213562373096 14  15.75 14  C 15.335786437626904 14  15 14.335786437626904  15 14.75  L 15 19.25  C 15 19.664213562373096  15.335786437626904 20  15.75 20  C 16.164213562373096 20  16.5 19.664213562373096  16.5 19.25  Z M 20.25 19.25  L 20.25 14.75  C 20.25 14.335786437626904  19.914213562373096 14  19.5 14  C 19.085786437626904 14  18.75 14.335786437626904  18.75 14.75  L 18.75 19.25  C 18.75 19.664213562373096  19.085786437626904 20  19.5 20  C 19.914213562373096 20  20.25 19.664213562373096  20.25 19.25  Z " fill-rule="nonzero" fill="rgba(0, 0, 0, 1)" stroke="none" class="fill" />
    <path d="M 3.3255 8  L 7.6065 0.8645000000000002  C 7.742006085090084 0.63830501749554  7.98632203503775 0.49986501214781365  8.25 0.49986501214781365  C 8.664288114105268 0.49986501214781365  9.000134987852187 0.8357118858947301  9.000134987852187 1.25  C 9.000134987852187 1.3857827618359306  8.963279780353433 1.51901935497423  8.8935 1.6355000000000004  L 5.0745000000000005 8  L 18.9255 8  L 15.105 1.6355  C 15.035220219646567 1.5190193549742306  14.998365012147815 1.3857827618359289  14.998365012147815 1.25  C 14.998365012147815 0.8357118858947299  15.334211885894732 0.4998650121478129  15.7485 0.4998650121478129  C 16.01217796496225 0.4998650121478129  16.256493914909917 0.6383050174955398  16.392000000000003 0.8644999999999998  L 20.6745 8  L 23.25 8  C 23.664213562373096 8  24 8.335786437626904  24 8.75  L 24 11.750000000000002  C 24 12.164213562373096  23.664213562373096 12.5  23.25 12.5  L 22.5 12.5  L 22.5 20  C 22.5 21.65685424949238  21.15685424949238 23  19.5 23  L 4.5 23  C 2.8431457505076194 23  1.5 21.65685424949238  1.5 20  L 1.5 12.5  L 0.75 12.5  C 0.3357864376269049 12.5  0 12.164213562373096  0 11.750000000000002  L 0 8.75  C 0 8.335786437626904  0.3357864376269049 8  0.75 8  L 3.3255 8  Z " stroke-width="0" stroke-dasharray="0" stroke="rgba(255, 255, 255, 0)" fill="none" class="stroke" mask="url(#Clip4814)" />
    <path d="M 5.25 19.25  L 5.25 14.75  C 5.25 14.335786437626904  4.914213562373095 14  4.5 14  C 4.085786437626905 14  3.75 14.335786437626904  3.75 14.75  L 3.75 19.25  C 3.75 19.664213562373096  4.085786437626905 20  4.5 20  C 4.914213562373095 20  5.25 19.664213562373096  5.25 19.25  Z " stroke-width="0" stroke-dasharray="0" stroke="rgba(255, 255, 255, 0)" fill="none" class="stroke" mask="url(#Clip4814)" />
    <path d="M 9 19.25  L 9 14.75  C 9 14.335786437626904  8.664213562373096 14  8.25 14  C 7.835786437626905 14  7.5 14.335786437626904  7.5 14.75  L 7.5 19.25  C 7.5 19.664213562373096  7.835786437626905 20  8.25 20  C 8.664213562373096 20  9 19.664213562373096  9 19.25  Z " stroke-width="0" stroke-dasharray="0" stroke="rgba(255, 255, 255, 0)" fill="none" class="stroke" mask="url(#Clip4814)" />
    <path d="M 12.75 19.25  L 12.75 14.75  C 12.75 14.335786437626904  12.414213562373096 14  12 14  C 11.585786437626904 14  11.25 14.335786437626904  11.25 14.75  L 11.25 19.25  C 11.25 19.664213562373096  11.585786437626904 20  12 20  C 12.414213562373096 20  12.75 19.664213562373096  12.75 19.25  Z " stroke-width="0" stroke-dasharray="0" stroke="rgba(255, 255, 255, 0)" fill="none" class="stroke" mask="url(#Clip4814)" />
    <path d="M 16.5 19.25  L 16.5 14.75  C 16.5 14.335786437626904  16.164213562373096 14  15.75 14  C 15.335786437626904 14  15 14.335786437626904  15 14.75  L 15 19.25  C 15 19.664213562373096  15.335786437626904 20  15.75 20  C 16.164213562373096 20  16.5 19.664213562373096  16.5 19.25  Z " stroke-width="0" stroke-dasharray="0" stroke="rgba(255, 255, 255, 0)" fill="none" class="stroke" mask="url(#Clip4814)" />
    <path d="M 20.25 19.25  L 20.25 14.75  C 20.25 14.335786437626904  19.914213562373096 14  19.5 14  C 19.085786437626904 14  18.75 14.335786437626904  18.75 14.75  L 18.75 19.25  C 18.75 19.664213562373096  19.085786437626904 20  19.5 20  C 19.914213562373096 20  20.25 19.664213562373096  20.25 19.25  Z " stroke-width="0" stroke-dasharray="0" stroke="rgba(255, 255, 255, 0)" fill="none" class="stroke" mask="url(#Clip4814)" />
  </g>
</svg>