<?xml version="1.0" encoding="utf-8"?>
<svg version="1.1" xmlns:xlink="http://www.w3.org/1999/xlink" width="64px" height="65px" xmlns="http://www.w3.org/2000/svg">
  <defs>
    <pattern id="BGPattern" patternUnits="userSpaceOnUse" alignment="0 0" imageRepeat="None" />
    <mask fill="white" id="Clip1851">
      <path d="M 63.971250000000005 44.23250000000001  C 61.36125 21.635  42.5975 3.165  19.85875 1.01875  C 17.83875 0.82875  15.95875 2.07125  15.4425 4.0337499999999995  L 13.59125 11.0675  C 37.04375 11.75375  52.908750000000005 27.393750000000004  53.901250000000005 50.6925  L 61.018750000000004 48.720000000000006  C 62.98375000000001 48.17500000000001  64.205 46.260000000000005  63.971250000000005 44.23250000000001  Z M 12.550000000000004 15.023749999999993  L 12.55 15.01875  L 0.06875 62.455000000000005  C 0.02441227338829163 62.62339208547465  0.0019659739498003666 62.79679709008506  0.0019659739498003666 62.970928444101474  C 0.0019659739498003666 64.08999541844612  0.9091489996051552 64.99717844410148  2.0282159739498007 64.99717844410148  C 2.210880073689171 64.99717844410148  2.392705389779227 64.97247851881404  2.56875 64.92375  L 49.94375 51.786249999999995  C 49.410000000000004 29.924999999999997  34.55875 15.268749999999997  12.550000000000004 15.023749999999993  Z M 20 49  C 20 51.20913899932317  18.209138999323173 53  16 53  C 13.790861000676827 53  12 51.20913899932317  12 49  C 12 46.79086100067683  13.790861000676827 45  16 45  C 18.209138999323173 45  20 46.79086100067683  20 49  Z M 26 30  C 26 32.20913899932317  24.209138999323173 34  22 34  C 19.790861000676827 34  18 32.20913899932317  18 30  C 18 27.790861000676827  19.790861000676827 26  22 26  C 24.209138999323173 26  26 27.790861000676827  26 30  Z M 39 43  C 39 45.20913899932317  37.20913899932317 47  35 47  C 32.79086100067683 47  31 45.20913899932317  31 43  C 31 40.79086100067683  32.79086100067683 39  35 39  C 37.20913899932317 39  39 40.79086100067683  39 43  Z " fill-rule="evenodd" />
    </mask>
  </defs>
  <g>
    <path d="M 63.971250000000005 44.23250000000001  C 61.36125 21.635  42.5975 3.165  19.85875 1.01875  C 17.83875 0.82875  15.95875 2.07125  15.4425 4.0337499999999995  L 13.59125 11.0675  C 37.04375 11.75375  52.908750000000005 27.393750000000004  53.901250000000005 50.6925  L 61.018750000000004 48.720000000000006  C 62.98375000000001 48.17500000000001  64.205 46.260000000000005  63.971250000000005 44.23250000000001  Z M 12.550000000000004 15.023749999999993  L 12.55 15.01875  L 0.06875 62.455000000000005  C 0.02441227338829163 62.62339208547465  0.0019659739498003666 62.79679709008506  0.0019659739498003666 62.970928444101474  C 0.0019659739498003666 64.08999541844612  0.9091489996051552 64.99717844410148  2.0282159739498007 64.99717844410148  C 2.210880073689171 64.99717844410148  2.392705389779227 64.97247851881404  2.56875 64.92375  L 49.94375 51.786249999999995  C 49.410000000000004 29.924999999999997  34.55875 15.268749999999997  12.550000000000004 15.023749999999993  Z M 20 49  C 20 51.20913899932317  18.209138999323173 53  16 53  C 13.790861000676827 53  12 51.20913899932317  12 49  C 12 46.79086100067683  13.790861000676827 45  16 45  C 18.209138999323173 45  20 46.79086100067683  20 49  Z M 26 30  C 26 32.20913899932317  24.209138999323173 34  22 34  C 19.790861000676827 34  18 32.20913899932317  18 30  C 18 27.790861000676827  19.790861000676827 26  22 26  C 24.209138999323173 26  26 27.790861000676827  26 30  Z M 39 43  C 39 45.20913899932317  37.20913899932317 47  35 47  C 32.79086100067683 47  31 45.20913899932317  31 43  C 31 40.79086100067683  32.79086100067683 39  35 39  C 37.20913899932317 39  39 40.79086100067683  39 43  Z " fill-rule="nonzero" fill="rgba(0, 0, 0, 1)" stroke="none" class="fill" />
    <path d="M 63.971250000000005 44.23250000000001  C 61.36125 21.635  42.5975 3.165  19.85875 1.01875  C 17.83875 0.82875  15.95875 2.07125  15.4425 4.0337499999999995  L 13.59125 11.0675  C 37.04375 11.75375  52.908750000000005 27.393750000000004  53.901250000000005 50.6925  L 61.018750000000004 48.720000000000006  C 62.98375000000001 48.17500000000001  64.205 46.260000000000005  63.971250000000005 44.23250000000001  Z " stroke-width="0" stroke-dasharray="0" stroke="rgba(255, 255, 255, 0)" fill="none" class="stroke" mask="url(#Clip1851)" />
    <path d="M 12.550000000000004 15.023749999999993  L 12.55 15.01875  L 0.06875 62.455000000000005  C 0.02441227338829163 62.62339208547465  0.0019659739498003666 62.79679709008506  0.0019659739498003666 62.970928444101474  C 0.0019659739498003666 64.08999541844612  0.9091489996051552 64.99717844410148  2.0282159739498007 64.99717844410148  C 2.210880073689171 64.99717844410148  2.392705389779227 64.97247851881404  2.56875 64.92375  L 49.94375 51.786249999999995  C 49.410000000000004 29.924999999999997  34.55875 15.268749999999997  12.550000000000004 15.023749999999993  Z " stroke-width="0" stroke-dasharray="0" stroke="rgba(255, 255, 255, 0)" fill="none" class="stroke" mask="url(#Clip1851)" />
    <path d="M 20 49  C 20 51.20913899932317  18.209138999323173 53  16 53  C 13.790861000676827 53  12 51.20913899932317  12 49  C 12 46.79086100067683  13.790861000676827 45  16 45  C 18.209138999323173 45  20 46.79086100067683  20 49  Z " stroke-width="0" stroke-dasharray="0" stroke="rgba(255, 255, 255, 0)" fill="none" class="stroke" mask="url(#Clip1851)" />
    <path d="M 26 30  C 26 32.20913899932317  24.209138999323173 34  22 34  C 19.790861000676827 34  18 32.20913899932317  18 30  C 18 27.790861000676827  19.790861000676827 26  22 26  C 24.209138999323173 26  26 27.790861000676827  26 30  Z " stroke-width="0" stroke-dasharray="0" stroke="rgba(255, 255, 255, 0)" fill="none" class="stroke" mask="url(#Clip1851)" />
    <path d="M 39 43  C 39 45.20913899932317  37.20913899932317 47  35 47  C 32.79086100067683 47  31 45.20913899932317  31 43  C 31 40.79086100067683  32.79086100067683 39  35 39  C 37.20913899932317 39  39 40.79086100067683  39 43  Z " stroke-width="0" stroke-dasharray="0" stroke="rgba(255, 255, 255, 0)" fill="none" class="stroke" mask="url(#Clip1851)" />
  </g>
</svg>