<?xml version="1.0" encoding="utf-8"?>
<svg version="1.1" xmlns:xlink="http://www.w3.org/1999/xlink" width="24px" height="24px" xmlns="http://www.w3.org/2000/svg">
  <defs>
    <pattern id="BGPattern" patternUnits="userSpaceOnUse" alignment="0 0" imageRepeat="None" />
    <mask fill="white" id="Clip5417">
      <path d="M 0.21899999999999997 6.8100000000000005  L 6.8100000000000005 0.21899999999999997  C 6.950558304689489 0.07879656973809517  7.140971319212147 4.217846243504028E-05  7.339499999999999 0  L 16.6605 0  C 16.85902868078785 4.2178462434335224E-05  17.04944169531051 0.078796569738095  17.189999999999998 0.21899999999999997  L 23.781 6.8100000000000005  C 23.921203430261905 6.950558304689489  23.999957821537564 7.140971319212147  24 7.339499999999999  L 24 16.6605  C 23.999957821537564 16.85902868078785  23.921203430261905 17.04944169531051  23.781 17.189999999999998  L 17.189999999999998 23.781  C 17.04944169531051 23.9212034302619  16.85902868078785 23.999957821537564  16.6605 24  L 7.339499999999999 24  C 7.140971319212147 23.999957821537564  6.950558304689489 23.921203430261905  6.8100000000000005 23.781  L 0.21899999999999997 17.19  C 0.07879656973809457 17.049441695310513  4.217846243433515E-05 16.85902868078785  0 16.6605  L 0 7.339499999999999  C 4.217846243504008E-05 7.140971319212149  0.07879656973809585 6.950558304689489  0.21899999999999997 6.8100000000000005  Z M 16.35 1.5  L 7.6499999999999995 1.5  L 1.5 7.6499999999999995  L 1.5 16.349999999999998  L 7.6499999999999995 22.5  L 16.349999999999998 22.5  L 22.499999999999996 16.35  L 22.499999999999996 7.6499999999999995  L 16.35 1.5  Z " fill-rule="evenodd" />
    </mask>
  </defs>
  <g>
    <path d="M 0.21899999999999997 6.8100000000000005  L 6.8100000000000005 0.21899999999999997  C 6.950558304689489 0.07879656973809517  7.140971319212147 4.217846243504028E-05  7.339499999999999 0  L 16.6605 0  C 16.85902868078785 4.2178462434335224E-05  17.04944169531051 0.078796569738095  17.189999999999998 0.21899999999999997  L 23.781 6.8100000000000005  C 23.921203430261905 6.950558304689489  23.999957821537564 7.140971319212147  24 7.339499999999999  L 24 16.6605  C 23.999957821537564 16.85902868078785  23.921203430261905 17.04944169531051  23.781 17.189999999999998  L 17.189999999999998 23.781  C 17.04944169531051 23.9212034302619  16.85902868078785 23.999957821537564  16.6605 24  L 7.339499999999999 24  C 7.140971319212147 23.999957821537564  6.950558304689489 23.921203430261905  6.8100000000000005 23.781  L 0.21899999999999997 17.19  C 0.07879656973809457 17.049441695310513  4.217846243433515E-05 16.85902868078785  0 16.6605  L 0 7.339499999999999  C 4.217846243504008E-05 7.140971319212149  0.07879656973809585 6.950558304689489  0.21899999999999997 6.8100000000000005  Z M 16.35 1.5  L 7.6499999999999995 1.5  L 1.5 7.6499999999999995  L 1.5 16.349999999999998  L 7.6499999999999995 22.5  L 16.349999999999998 22.5  L 22.499999999999996 16.35  L 22.499999999999996 7.6499999999999995  L 16.35 1.5  Z " fill-rule="nonzero" fill="rgba(0, 0, 0, 1)" stroke="none" class="fill" />
    <path d="M 0.21899999999999997 6.8100000000000005  L 6.8100000000000005 0.21899999999999997  C 6.950558304689489 0.07879656973809517  7.140971319212147 4.217846243504028E-05  7.339499999999999 0  L 16.6605 0  C 16.85902868078785 4.2178462434335224E-05  17.04944169531051 0.078796569738095  17.189999999999998 0.21899999999999997  L 23.781 6.8100000000000005  C 23.921203430261905 6.950558304689489  23.999957821537564 7.140971319212147  24 7.339499999999999  L 24 16.6605  C 23.999957821537564 16.85902868078785  23.921203430261905 17.04944169531051  23.781 17.189999999999998  L 17.189999999999998 23.781  C 17.04944169531051 23.9212034302619  16.85902868078785 23.999957821537564  16.6605 24  L 7.339499999999999 24  C 7.140971319212147 23.999957821537564  6.950558304689489 23.921203430261905  6.8100000000000005 23.781  L 0.21899999999999997 17.19  C 0.07879656973809457 17.049441695310513  4.217846243433515E-05 16.85902868078785  0 16.6605  L 0 7.339499999999999  C 4.217846243504008E-05 7.140971319212149  0.07879656973809585 6.950558304689489  0.21899999999999997 6.8100000000000005  Z " stroke-width="0" stroke-dasharray="0" stroke="rgba(255, 255, 255, 0)" fill="none" class="stroke" mask="url(#Clip5417)" />
    <path d="M 16.35 1.5  L 7.6499999999999995 1.5  L 1.5 7.6499999999999995  L 1.5 16.349999999999998  L 7.6499999999999995 22.5  L 16.349999999999998 22.5  L 22.499999999999996 16.35  L 22.499999999999996 7.6499999999999995  L 16.35 1.5  Z " stroke-width="0" stroke-dasharray="0" stroke="rgba(255, 255, 255, 0)" fill="none" class="stroke" mask="url(#Clip5417)" />
  </g>
</svg>