<?xml version="1.0" encoding="utf-8"?>
<svg version="1.1" xmlns:xlink="http://www.w3.org/1999/xlink" width="50px" height="50px" xmlns="http://www.w3.org/2000/svg">
  <defs>
    <pattern id="BGPattern" patternUnits="userSpaceOnUse" alignment="0 0" imageRepeat="None" />
    <mask fill="white" id="Clip949">
      <path d="M 24.84879032258067 26.703629032258082  C 23.941532258064512 26.703629032258082  23.074596774193537 26.028225806451616  23.074596774193537 25.080645161290306  C 23.074596774193537 24.163306451612897  23.73991935483872 23.29637096774195  24.7177419354839 23.29637096774195  C 25.614919354838715 23.29637096774195  26.471774193548413 23.941532258064512  26.471774193548413 24.919354838709694  C 26.471774193548413 25.836693548387103  25.826612903225794 26.703629032258082  24.84879032258067 26.703629032258082  Z M 25 0  C 38.810483870967744 0  50 11.189516129032256  50 25  C 50 38.810483870967744  38.810483870967744 50  25 50  C 11.189516129032256 50  0 38.810483870967744  0 25  C 0 11.189516129032256  11.189516129032256 0  25 0  Z M 25 47.31854838709677  C 37.32862903225805 47.31854838709677  47.31854838709677 37.32862903225805  47.31854838709677 25  C 47.31854838709677 12.671370967741948  37.32862903225805 2.6814516129032313  25 2.6814516129032313  C 12.671370967741948 2.6814516129032313  2.6814516129032313 12.671370967741948  2.6814516129032313 25  C 2.6814516129032313 37.32862903225805  12.671370967741948 47.31854838709677  25 47.31854838709677  Z M 40.393145161290306 34.375  C 40.18145161290323 34.375  40.01008064516128 34.54637096774195  40.01008064516128 34.73790322580646  C 40.01008064516128 35.100806451612925  41.320564516129025 35.76612903225805  41.65322580645159 35.96774193548387  C 38.89112903225805 40.15120967741936  34.616935483870975 43.16532258064518  29.768145161290306 44.36491935483872  L 29.32459677419354 42.5  C 29.294354838709697 42.247983870967744  29.133064516129025 42.21774193548387  28.90120967741933 42.21774193548387  C 28.70967741935482 42.21774193548387  28.598790322580612 42.5  28.61895161290323 42.64112903225805  L 29.062500000000004 44.53629032258064  C 27.721774193548356 44.81854838709677  26.360887096774206 44.95967741935485  24.98991935483872 44.95967741935485  C 21.330645161290306 44.95967741935485  17.731854838709694 43.93145161290323  14.606854838709694 42.02620967741936  C 14.778225806451587 41.74395161290323  15.836693548387073 40.2116935483871  15.836693548387073 39.98991935483872  C 15.836693548387073 39.798387096774206  15.66532258064518 39.627016129032256  15.473790322580614 39.627016129032256  C 15.080645161290306 39.627016129032256  14.24395161290323 41.30040322580646  13.991935483870977 41.633064516129025  C 9.778225806451587 38.840725806451616  6.73387096774195 34.51612903225805  5.564516129032256 29.576612903225797  L 7.489919354838719 29.153225806451616  C 7.711693548387075 29.092741935483872  7.7721774193548185 28.93145161290323  7.7721774193548185 28.72983870967741  C 7.7721774193548185 28.5383064516129  7.489919354838719 28.42741935483872  7.32862903225805 28.44758064516128  L 5.443548387096769 28.88104838709677  C 5.1915322580645125 27.600806451612897  5.050403225806463 26.310483870967744  5.050403225806463 25  C 5.050403225806463 21.26008064516128  6.10887096774195 17.580645161290334  8.094758064516157 14.425403225806463  C 8.377016129032256 14.596774193548384  9.7177419354839 15.514112903225794  9.939516129032256 15.514112903225794  C 10.131048387096769 15.514112903225794  10.302419354838719 15.372983870967744  10.302419354838719 15.181451612903233  C 10.302419354838719 14.788306451612899  8.820564516129025 14.04233870967741  8.487903225806463 13.810483870967744  C 11.330645161290306 9.657258064516128  15.655241935483843 6.663306451612897  20.564516129032256 5.554435483870975  L 20.987903225806463 7.4193548387096655  C 21.048387096774206 7.64112903225805  21.20967741935482 7.701612903225794  21.411290322580612 7.701612903225794  C 21.612903225806463 7.701612903225794  21.71370967741933 7.4193548387096655  21.69354838709677 7.258064516129024  L 21.270161290322562 5.413306451612897  C 22.5 5.1915322580645125  23.75 5.050403225806463  25.01008064516128 5.050403225806463  C 28.749999999999996 5.050403225806463  32.399193548387075 6.108870967741922  35.58467741935482 8.094758064516128  C 35.393145161290306 8.377016129032256  34.49596774193549 9.6875  34.49596774193549 9.909274193548384  C 34.49596774193549 10.100806451612897  34.63709677419354 10.272177419354847  34.82862903225805 10.272177419354847  C 35.22177419354841 10.272177419354847  35.9677419354839 8.820564516129025  36.169354838709694 8.487903225806463  C 40.30241935483872 11.280241935483872  43.25604838709677 15.544354838709666  44.4052419354839 20.403225806451616  L 42.8427419354839 20.735887096774206  C 42.59072580645159 20.79637096774192  42.560483870967744 20.95766129032259  42.560483870967744 21.179435483870975  C 42.560483870967744 21.370967741935488  42.8427419354839 21.481854838709666  42.98387096774195 21.461693548387103  L 44.576612903225794 21.09879032258064  C 44.82862903225805 22.379032258064512  44.9697580645161 23.689516129032256  44.9697580645161 25  C 44.9697580645161 28.659274193548384  43.961693548387075 32.258064516129025  42.06653225806451 35.35282258064515  C 41.78427419354841 35.2116935483871  40.61491935483872 34.375  40.393145161290306 34.375  Z M 26.895161290322562 26.522177419354847  L 36.663306451612925 10.322580645161281  C 35.35282258064518 11.552419354838719  23.13508064516128 22.79233870967741  22.792338709677438 23.377016129032256  L 13.054435483870975 39.55645161290323  C 14.334677419354819 38.356854838709694  26.582661290322562 27.05645161290323  26.895161290322562 26.522177419354847  Z " fill-rule="evenodd" />
    </mask>
  </defs>
  <g>
    <path d="M 24.84879032258067 26.703629032258082  C 23.941532258064512 26.703629032258082  23.074596774193537 26.028225806451616  23.074596774193537 25.080645161290306  C 23.074596774193537 24.163306451612897  23.73991935483872 23.29637096774195  24.7177419354839 23.29637096774195  C 25.614919354838715 23.29637096774195  26.471774193548413 23.941532258064512  26.471774193548413 24.919354838709694  C 26.471774193548413 25.836693548387103  25.826612903225794 26.703629032258082  24.84879032258067 26.703629032258082  Z M 25 0  C 38.810483870967744 0  50 11.189516129032256  50 25  C 50 38.810483870967744  38.810483870967744 50  25 50  C 11.189516129032256 50  0 38.810483870967744  0 25  C 0 11.189516129032256  11.189516129032256 0  25 0  Z M 25 47.31854838709677  C 37.32862903225805 47.31854838709677  47.31854838709677 37.32862903225805  47.31854838709677 25  C 47.31854838709677 12.671370967741948  37.32862903225805 2.6814516129032313  25 2.6814516129032313  C 12.671370967741948 2.6814516129032313  2.6814516129032313 12.671370967741948  2.6814516129032313 25  C 2.6814516129032313 37.32862903225805  12.671370967741948 47.31854838709677  25 47.31854838709677  Z M 40.393145161290306 34.375  C 40.18145161290323 34.375  40.01008064516128 34.54637096774195  40.01008064516128 34.73790322580646  C 40.01008064516128 35.100806451612925  41.320564516129025 35.76612903225805  41.65322580645159 35.96774193548387  C 38.89112903225805 40.15120967741936  34.616935483870975 43.16532258064518  29.768145161290306 44.36491935483872  L 29.32459677419354 42.5  C 29.294354838709697 42.247983870967744  29.133064516129025 42.21774193548387  28.90120967741933 42.21774193548387  C 28.70967741935482 42.21774193548387  28.598790322580612 42.5  28.61895161290323 42.64112903225805  L 29.062500000000004 44.53629032258064  C 27.721774193548356 44.81854838709677  26.360887096774206 44.95967741935485  24.98991935483872 44.95967741935485  C 21.330645161290306 44.95967741935485  17.731854838709694 43.93145161290323  14.606854838709694 42.02620967741936  C 14.778225806451587 41.74395161290323  15.836693548387073 40.2116935483871  15.836693548387073 39.98991935483872  C 15.836693548387073 39.798387096774206  15.66532258064518 39.627016129032256  15.473790322580614 39.627016129032256  C 15.080645161290306 39.627016129032256  14.24395161290323 41.30040322580646  13.991935483870977 41.633064516129025  C 9.778225806451587 38.840725806451616  6.73387096774195 34.51612903225805  5.564516129032256 29.576612903225797  L 7.489919354838719 29.153225806451616  C 7.711693548387075 29.092741935483872  7.7721774193548185 28.93145161290323  7.7721774193548185 28.72983870967741  C 7.7721774193548185 28.5383064516129  7.489919354838719 28.42741935483872  7.32862903225805 28.44758064516128  L 5.443548387096769 28.88104838709677  C 5.1915322580645125 27.600806451612897  5.050403225806463 26.310483870967744  5.050403225806463 25  C 5.050403225806463 21.26008064516128  6.10887096774195 17.580645161290334  8.094758064516157 14.425403225806463  C 8.377016129032256 14.596774193548384  9.7177419354839 15.514112903225794  9.939516129032256 15.514112903225794  C 10.131048387096769 15.514112903225794  10.302419354838719 15.372983870967744  10.302419354838719 15.181451612903233  C 10.302419354838719 14.788306451612899  8.820564516129025 14.04233870967741  8.487903225806463 13.810483870967744  C 11.330645161290306 9.657258064516128  15.655241935483843 6.663306451612897  20.564516129032256 5.554435483870975  L 20.987903225806463 7.4193548387096655  C 21.048387096774206 7.64112903225805  21.20967741935482 7.701612903225794  21.411290322580612 7.701612903225794  C 21.612903225806463 7.701612903225794  21.71370967741933 7.4193548387096655  21.69354838709677 7.258064516129024  L 21.270161290322562 5.413306451612897  C 22.5 5.1915322580645125  23.75 5.050403225806463  25.01008064516128 5.050403225806463  C 28.749999999999996 5.050403225806463  32.399193548387075 6.108870967741922  35.58467741935482 8.094758064516128  C 35.393145161290306 8.377016129032256  34.49596774193549 9.6875  34.49596774193549 9.909274193548384  C 34.49596774193549 10.100806451612897  34.63709677419354 10.272177419354847  34.82862903225805 10.272177419354847  C 35.22177419354841 10.272177419354847  35.9677419354839 8.820564516129025  36.169354838709694 8.487903225806463  C 40.30241935483872 11.280241935483872  43.25604838709677 15.544354838709666  44.4052419354839 20.403225806451616  L 42.8427419354839 20.735887096774206  C 42.59072580645159 20.79637096774192  42.560483870967744 20.95766129032259  42.560483870967744 21.179435483870975  C 42.560483870967744 21.370967741935488  42.8427419354839 21.481854838709666  42.98387096774195 21.461693548387103  L 44.576612903225794 21.09879032258064  C 44.82862903225805 22.379032258064512  44.9697580645161 23.689516129032256  44.9697580645161 25  C 44.9697580645161 28.659274193548384  43.961693548387075 32.258064516129025  42.06653225806451 35.35282258064515  C 41.78427419354841 35.2116935483871  40.61491935483872 34.375  40.393145161290306 34.375  Z M 26.895161290322562 26.522177419354847  L 36.663306451612925 10.322580645161281  C 35.35282258064518 11.552419354838719  23.13508064516128 22.79233870967741  22.792338709677438 23.377016129032256  L 13.054435483870975 39.55645161290323  C 14.334677419354819 38.356854838709694  26.582661290322562 27.05645161290323  26.895161290322562 26.522177419354847  Z " fill-rule="nonzero" fill="rgba(0, 0, 0, 1)" stroke="none" class="fill" />
    <path d="M 24.84879032258067 26.703629032258082  C 23.941532258064512 26.703629032258082  23.074596774193537 26.028225806451616  23.074596774193537 25.080645161290306  C 23.074596774193537 24.163306451612897  23.73991935483872 23.29637096774195  24.7177419354839 23.29637096774195  C 25.614919354838715 23.29637096774195  26.471774193548413 23.941532258064512  26.471774193548413 24.919354838709694  C 26.471774193548413 25.836693548387103  25.826612903225794 26.703629032258082  24.84879032258067 26.703629032258082  Z " stroke-width="0" stroke-dasharray="0" stroke="rgba(255, 255, 255, 0)" fill="none" class="stroke" mask="url(#Clip949)" />
    <path d="M 25 0  C 38.810483870967744 0  50 11.189516129032256  50 25  C 50 38.810483870967744  38.810483870967744 50  25 50  C 11.189516129032256 50  0 38.810483870967744  0 25  C 0 11.189516129032256  11.189516129032256 0  25 0  Z " stroke-width="0" stroke-dasharray="0" stroke="rgba(255, 255, 255, 0)" fill="none" class="stroke" mask="url(#Clip949)" />
    <path d="M 25 47.31854838709677  C 37.32862903225805 47.31854838709677  47.31854838709677 37.32862903225805  47.31854838709677 25  C 47.31854838709677 12.671370967741948  37.32862903225805 2.6814516129032313  25 2.6814516129032313  C 12.671370967741948 2.6814516129032313  2.6814516129032313 12.671370967741948  2.6814516129032313 25  C 2.6814516129032313 37.32862903225805  12.671370967741948 47.31854838709677  25 47.31854838709677  Z " stroke-width="0" stroke-dasharray="0" stroke="rgba(255, 255, 255, 0)" fill="none" class="stroke" mask="url(#Clip949)" />
    <path d="M 40.393145161290306 34.375  C 40.18145161290323 34.375  40.01008064516128 34.54637096774195  40.01008064516128 34.73790322580646  C 40.01008064516128 35.100806451612925  41.320564516129025 35.76612903225805  41.65322580645159 35.96774193548387  C 38.89112903225805 40.15120967741936  34.616935483870975 43.16532258064518  29.768145161290306 44.36491935483872  L 29.32459677419354 42.5  C 29.294354838709697 42.247983870967744  29.133064516129025 42.21774193548387  28.90120967741933 42.21774193548387  C 28.70967741935482 42.21774193548387  28.598790322580612 42.5  28.61895161290323 42.64112903225805  L 29.062500000000004 44.53629032258064  C 27.721774193548356 44.81854838709677  26.360887096774206 44.95967741935485  24.98991935483872 44.95967741935485  C 21.330645161290306 44.95967741935485  17.731854838709694 43.93145161290323  14.606854838709694 42.02620967741936  C 14.778225806451587 41.74395161290323  15.836693548387073 40.2116935483871  15.836693548387073 39.98991935483872  C 15.836693548387073 39.798387096774206  15.66532258064518 39.627016129032256  15.473790322580614 39.627016129032256  C 15.080645161290306 39.627016129032256  14.24395161290323 41.30040322580646  13.991935483870977 41.633064516129025  C 9.778225806451587 38.840725806451616  6.73387096774195 34.51612903225805  5.564516129032256 29.576612903225797  L 7.489919354838719 29.153225806451616  C 7.711693548387075 29.092741935483872  7.7721774193548185 28.93145161290323  7.7721774193548185 28.72983870967741  C 7.7721774193548185 28.5383064516129  7.489919354838719 28.42741935483872  7.32862903225805 28.44758064516128  L 5.443548387096769 28.88104838709677  C 5.1915322580645125 27.600806451612897  5.050403225806463 26.310483870967744  5.050403225806463 25  C 5.050403225806463 21.26008064516128  6.10887096774195 17.580645161290334  8.094758064516157 14.425403225806463  C 8.377016129032256 14.596774193548384  9.7177419354839 15.514112903225794  9.939516129032256 15.514112903225794  C 10.131048387096769 15.514112903225794  10.302419354838719 15.372983870967744  10.302419354838719 15.181451612903233  C 10.302419354838719 14.788306451612899  8.820564516129025 14.04233870967741  8.487903225806463 13.810483870967744  C 11.330645161290306 9.657258064516128  15.655241935483843 6.663306451612897  20.564516129032256 5.554435483870975  L 20.987903225806463 7.4193548387096655  C 21.048387096774206 7.64112903225805  21.20967741935482 7.701612903225794  21.411290322580612 7.701612903225794  C 21.612903225806463 7.701612903225794  21.71370967741933 7.4193548387096655  21.69354838709677 7.258064516129024  L 21.270161290322562 5.413306451612897  C 22.5 5.1915322580645125  23.75 5.050403225806463  25.01008064516128 5.050403225806463  C 28.749999999999996 5.050403225806463  32.399193548387075 6.108870967741922  35.58467741935482 8.094758064516128  C 35.393145161290306 8.377016129032256  34.49596774193549 9.6875  34.49596774193549 9.909274193548384  C 34.49596774193549 10.100806451612897  34.63709677419354 10.272177419354847  34.82862903225805 10.272177419354847  C 35.22177419354841 10.272177419354847  35.9677419354839 8.820564516129025  36.169354838709694 8.487903225806463  C 40.30241935483872 11.280241935483872  43.25604838709677 15.544354838709666  44.4052419354839 20.403225806451616  L 42.8427419354839 20.735887096774206  C 42.59072580645159 20.79637096774192  42.560483870967744 20.95766129032259  42.560483870967744 21.179435483870975  C 42.560483870967744 21.370967741935488  42.8427419354839 21.481854838709666  42.98387096774195 21.461693548387103  L 44.576612903225794 21.09879032258064  C 44.82862903225805 22.379032258064512  44.9697580645161 23.689516129032256  44.9697580645161 25  C 44.9697580645161 28.659274193548384  43.961693548387075 32.258064516129025  42.06653225806451 35.35282258064515  C 41.78427419354841 35.2116935483871  40.61491935483872 34.375  40.393145161290306 34.375  Z " stroke-width="0" stroke-dasharray="0" stroke="rgba(255, 255, 255, 0)" fill="none" class="stroke" mask="url(#Clip949)" />
    <path d="M 26.895161290322562 26.522177419354847  L 36.663306451612925 10.322580645161281  C 35.35282258064518 11.552419354838719  23.13508064516128 22.79233870967741  22.792338709677438 23.377016129032256  L 13.054435483870975 39.55645161290323  C 14.334677419354819 38.356854838709694  26.582661290322562 27.05645161290323  26.895161290322562 26.522177419354847  Z " stroke-width="0" stroke-dasharray="0" stroke="rgba(255, 255, 255, 0)" fill="none" class="stroke" mask="url(#Clip949)" />
  </g>
</svg>