<?xml version="1.0" encoding="utf-8"?>
<svg version="1.1" xmlns:xlink="http://www.w3.org/1999/xlink" width="24px" height="22px" xmlns="http://www.w3.org/2000/svg">
  <defs>
    <pattern id="BGPattern" patternUnits="userSpaceOnUse" alignment="0 0" imageRepeat="None" />
    <mask fill="white" id="Clip6525">
      <path d="M 23.988 5.304500000000002  L 23.988 5.305999999999999  C 23.881500000000003 7.640000000000001  22.251 10.836500000000001  19.095 14.895499999999998  C 15.8325 19.139  13.071000000000002 21.259999999999998  10.812000000000001 21.259999999999998  C 9.412500000000001 21.259999999999998  8.229000000000001 19.9685  7.2615 17.3855  L 5.324999999999999 10.2845  C 4.6049999999999995 7.699999999999999  3.834 6.41  3.0105000000000004 6.41  C 2.8335000000000004 6.41  2.205 6.7895  1.1295000000000002 7.541  L 0 6.085999999999999  C 1.174746898343826 5.054221431711209  2.3417793794901147 4.013692471443245  3.5010000000000003 2.9645  C 5.082 1.5995  6.2685 0.8825000000000005  7.060500000000001 0.8090000000000003  C 8.925 0.6245000000000003  10.075500000000002 1.9010000000000002  10.5075 4.6385000000000005  C 10.9725 7.5905000000000005  11.296500000000002 9.4235  11.476500000000001 10.137500000000001  C 12.0165 12.584000000000001  12.6105 13.806500000000002  13.2555 13.805000000000001  C 13.756499999999999 13.805000000000001  14.5095 13.010000000000002  15.517499999999998 11.424500000000002  C 16.523999999999997 9.837500000000002  17.062499999999996 8.630000000000003  17.133 7.802000000000001  C 17.276999999999997 6.432500000000001  16.7385 5.747000000000002  15.517499999999998 5.747000000000002  C 14.904624810649262 5.755983284662113  14.299937529891556 5.889167571816341  13.739999999999998 6.138500000000002  C 14.923499999999997 2.2790000000000017  17.176499999999997 0.4010000000000016  20.502 0.5045000000000022  C 22.968 0.5795000000000021  24.130499999999998 2.1800000000000024  23.988 5.304500000000002  Z " fill-rule="evenodd" />
    </mask>
  </defs>
  <g>
    <path d="M 23.988 5.304500000000002  L 23.988 5.305999999999999  C 23.881500000000003 7.640000000000001  22.251 10.836500000000001  19.095 14.895499999999998  C 15.8325 19.139  13.071000000000002 21.259999999999998  10.812000000000001 21.259999999999998  C 9.412500000000001 21.259999999999998  8.229000000000001 19.9685  7.2615 17.3855  L 5.324999999999999 10.2845  C 4.6049999999999995 7.699999999999999  3.834 6.41  3.0105000000000004 6.41  C 2.8335000000000004 6.41  2.205 6.7895  1.1295000000000002 7.541  L 0 6.085999999999999  C 1.174746898343826 5.054221431711209  2.3417793794901147 4.013692471443245  3.5010000000000003 2.9645  C 5.082 1.5995  6.2685 0.8825000000000005  7.060500000000001 0.8090000000000003  C 8.925 0.6245000000000003  10.075500000000002 1.9010000000000002  10.5075 4.6385000000000005  C 10.9725 7.5905000000000005  11.296500000000002 9.4235  11.476500000000001 10.137500000000001  C 12.0165 12.584000000000001  12.6105 13.806500000000002  13.2555 13.805000000000001  C 13.756499999999999 13.805000000000001  14.5095 13.010000000000002  15.517499999999998 11.424500000000002  C 16.523999999999997 9.837500000000002  17.062499999999996 8.630000000000003  17.133 7.802000000000001  C 17.276999999999997 6.432500000000001  16.7385 5.747000000000002  15.517499999999998 5.747000000000002  C 14.904624810649262 5.755983284662113  14.299937529891556 5.889167571816341  13.739999999999998 6.138500000000002  C 14.923499999999997 2.2790000000000017  17.176499999999997 0.4010000000000016  20.502 0.5045000000000022  C 22.968 0.5795000000000021  24.130499999999998 2.1800000000000024  23.988 5.304500000000002  Z " fill-rule="nonzero" fill="rgba(0, 0, 0, 1)" stroke="none" class="fill" />
    <path d="M 23.988 5.304500000000002  L 23.988 5.305999999999999  C 23.881500000000003 7.640000000000001  22.251 10.836500000000001  19.095 14.895499999999998  C 15.8325 19.139  13.071000000000002 21.259999999999998  10.812000000000001 21.259999999999998  C 9.412500000000001 21.259999999999998  8.229000000000001 19.9685  7.2615 17.3855  L 5.324999999999999 10.2845  C 4.6049999999999995 7.699999999999999  3.834 6.41  3.0105000000000004 6.41  C 2.8335000000000004 6.41  2.205 6.7895  1.1295000000000002 7.541  L 0 6.085999999999999  C 1.174746898343826 5.054221431711209  2.3417793794901147 4.013692471443245  3.5010000000000003 2.9645  C 5.082 1.5995  6.2685 0.8825000000000005  7.060500000000001 0.8090000000000003  C 8.925 0.6245000000000003  10.075500000000002 1.9010000000000002  10.5075 4.6385000000000005  C 10.9725 7.5905000000000005  11.296500000000002 9.4235  11.476500000000001 10.137500000000001  C 12.0165 12.584000000000001  12.6105 13.806500000000002  13.2555 13.805000000000001  C 13.756499999999999 13.805000000000001  14.5095 13.010000000000002  15.517499999999998 11.424500000000002  C 16.523999999999997 9.837500000000002  17.062499999999996 8.630000000000003  17.133 7.802000000000001  C 17.276999999999997 6.432500000000001  16.7385 5.747000000000002  15.517499999999998 5.747000000000002  C 14.904624810649262 5.755983284662113  14.299937529891556 5.889167571816341  13.739999999999998 6.138500000000002  C 14.923499999999997 2.2790000000000017  17.176499999999997 0.4010000000000016  20.502 0.5045000000000022  C 22.968 0.5795000000000021  24.130499999999998 2.1800000000000024  23.988 5.304500000000002  Z " stroke-width="0" stroke-dasharray="0" stroke="rgba(255, 255, 255, 0)" fill="none" class="stroke" mask="url(#Clip6525)" />
  </g>
</svg>