<?xml version="1.0" encoding="utf-8"?>
<svg version="1.1" xmlns:xlink="http://www.w3.org/1999/xlink" width="24px" height="30px" xmlns="http://www.w3.org/2000/svg">
  <defs>
    <pattern id="BGPattern" patternUnits="userSpaceOnUse" alignment="0 0" imageRepeat="None" />
    <mask fill="white" id="Clip224">
      <path d="M 18.223999999999997 29  L 5.744 29  C 3.007999999999999 29.4  0.7839999999999998 27.176  1 24.439999999999998  L 1 5.559999999999999  C 0.7839999999999998 2.8239999999999985  3.008 0.5999999999999988  5.744 0.5999999999999988  L 13.264 0.5999999999999988  C 14.768 0.5999999999999988  16.128 1.1439999999999988  17.183999999999997 2.2319999999999984  L 21.631999999999998 6.775999999999998  C 22.656 7.831999999999997  23.183999999999997 9.127999999999998  23 10.583999999999998  L 23 24.439999999999998  C 23.183999999999997 27.176  20.959999999999997 29.4  18.223999999999997 29  Z M 3.1839999999999993 24.44  C 3.1839999999999993 25.848000000000003  4.3359999999999985 27  5.744 27  L 18.224 27  C 19.632 27  20.784 25.848  20.784 24.44  L 20.784 10.584000000000001  C 20.784 9.736  20.512 9.064000000000002  19.904 8.440000000000001  L 15.456 3.8960000000000012  C 14.864 3.288000000000002  14.16 3.0000000000000018  13.264 3.0000000000000018  L 5.744 3.0000000000000018  C 4.336 3.0000000000000018  3.1839999999999993 4.152000000000002  3.1839999999999993 5.560000000000002  L 3.1839999999999993 24.44  Z M 11.28 21.799999999999994  C 11.28 22.471999999999994  10.735999999999999 22.999999999999993  10.08 23  C 7.92 23  6.48 21.56  6.48 19.4  C 6.48 18.168  5.280000000000001 18.296  5.280000000000001 17  C 5.280000000000001 15.559999999999999  6.48 15.896  6.48 14.6  C 6.48 12.44  7.92 11  10.08 11  C 10.736 11  11.28 11.544  11.28 12.2  C 11.28 12.872  10.735999999999999 13.399999999999999  10.08 13.399999999999999  C 9.408 13.399999999999999  8.88 13.943999999999999  8.88 14.599999999999998  C 8.88 15.527999999999999  8.864 16.375999999999998  7.6800000000000015 16.999999999999996  C 8.864 17.623999999999995  8.88 18.455999999999996  8.88 19.399999999999995  C 8.88 20.071999999999996  9.408000000000001 20.599999999999994  10.08 20.599999999999994  C 10.736 20.599999999999994  11.28 21.143999999999995  11.28 21.799999999999994  Z M 17.520000000000003 19.400000000000002  C 17.520000000000003 21.560000000000002  16.080000000000002 23.000000000000004  13.920000000000002 23  C 13.248000000000001 23  12.720000000000002 22.472  12.720000000000002 21.8  C 12.720000000000002 21.144000000000002  13.248000000000001 20.6  13.920000000000002 20.6  C 14.576 20.6  15.120000000000001 20.072000000000003  15.120000000000001 19.400000000000002  C 15.120000000000001 18.456000000000003  15.152000000000001 17.624000000000002  16.32 17.000000000000004  C 15.152000000000001 16.376000000000005  15.120000000000001 15.528000000000002  15.120000000000001 14.600000000000003  C 15.120000000000001 13.944000000000003  14.576 13.400000000000004  13.920000000000002 13.400000000000004  C 13.248000000000001 13.400000000000004  12.720000000000002 12.872000000000003  12.720000000000002 12.200000000000005  C 12.720000000000002 11.544000000000004  13.248000000000001 11.000000000000005  13.920000000000002 11.000000000000005  C 16.080000000000002 11.000000000000005  17.520000000000003 12.440000000000005  17.520000000000003 14.600000000000005  C 17.520000000000003 15.864000000000004  18.720000000000002 15.560000000000006  18.720000000000002 17.000000000000004  C 18.720000000000002 18.408000000000005  17.520000000000003 18.056000000000004  17.520000000000003 19.400000000000002  Z " fill-rule="evenodd" />
    </mask>
  </defs>
  <g>
    <path d="M 18.223999999999997 29  L 5.744 29  C 3.007999999999999 29.4  0.7839999999999998 27.176  1 24.439999999999998  L 1 5.559999999999999  C 0.7839999999999998 2.8239999999999985  3.008 0.5999999999999988  5.744 0.5999999999999988  L 13.264 0.5999999999999988  C 14.768 0.5999999999999988  16.128 1.1439999999999988  17.183999999999997 2.2319999999999984  L 21.631999999999998 6.775999999999998  C 22.656 7.831999999999997  23.183999999999997 9.127999999999998  23 10.583999999999998  L 23 24.439999999999998  C 23.183999999999997 27.176  20.959999999999997 29.4  18.223999999999997 29  Z M 3.1839999999999993 24.44  C 3.1839999999999993 25.848000000000003  4.3359999999999985 27  5.744 27  L 18.224 27  C 19.632 27  20.784 25.848  20.784 24.44  L 20.784 10.584000000000001  C 20.784 9.736  20.512 9.064000000000002  19.904 8.440000000000001  L 15.456 3.8960000000000012  C 14.864 3.288000000000002  14.16 3.0000000000000018  13.264 3.0000000000000018  L 5.744 3.0000000000000018  C 4.336 3.0000000000000018  3.1839999999999993 4.152000000000002  3.1839999999999993 5.560000000000002  L 3.1839999999999993 24.44  Z M 11.28 21.799999999999994  C 11.28 22.471999999999994  10.735999999999999 22.999999999999993  10.08 23  C 7.92 23  6.48 21.56  6.48 19.4  C 6.48 18.168  5.280000000000001 18.296  5.280000000000001 17  C 5.280000000000001 15.559999999999999  6.48 15.896  6.48 14.6  C 6.48 12.44  7.92 11  10.08 11  C 10.736 11  11.28 11.544  11.28 12.2  C 11.28 12.872  10.735999999999999 13.399999999999999  10.08 13.399999999999999  C 9.408 13.399999999999999  8.88 13.943999999999999  8.88 14.599999999999998  C 8.88 15.527999999999999  8.864 16.375999999999998  7.6800000000000015 16.999999999999996  C 8.864 17.623999999999995  8.88 18.455999999999996  8.88 19.399999999999995  C 8.88 20.071999999999996  9.408000000000001 20.599999999999994  10.08 20.599999999999994  C 10.736 20.599999999999994  11.28 21.143999999999995  11.28 21.799999999999994  Z M 17.520000000000003 19.400000000000002  C 17.520000000000003 21.560000000000002  16.080000000000002 23.000000000000004  13.920000000000002 23  C 13.248000000000001 23  12.720000000000002 22.472  12.720000000000002 21.8  C 12.720000000000002 21.144000000000002  13.248000000000001 20.6  13.920000000000002 20.6  C 14.576 20.6  15.120000000000001 20.072000000000003  15.120000000000001 19.400000000000002  C 15.120000000000001 18.456000000000003  15.152000000000001 17.624000000000002  16.32 17.000000000000004  C 15.152000000000001 16.376000000000005  15.120000000000001 15.528000000000002  15.120000000000001 14.600000000000003  C 15.120000000000001 13.944000000000003  14.576 13.400000000000004  13.920000000000002 13.400000000000004  C 13.248000000000001 13.400000000000004  12.720000000000002 12.872000000000003  12.720000000000002 12.200000000000005  C 12.720000000000002 11.544000000000004  13.248000000000001 11.000000000000005  13.920000000000002 11.000000000000005  C 16.080000000000002 11.000000000000005  17.520000000000003 12.440000000000005  17.520000000000003 14.600000000000005  C 17.520000000000003 15.864000000000004  18.720000000000002 15.560000000000006  18.720000000000002 17.000000000000004  C 18.720000000000002 18.408000000000005  17.520000000000003 18.056000000000004  17.520000000000003 19.400000000000002  Z " fill-rule="nonzero" fill="rgba(0, 0, 0, 1)" stroke="none" class="fill" />
    <path d="M 18.223999999999997 29  L 5.744 29  C 3.007999999999999 29.4  0.7839999999999998 27.176  1 24.439999999999998  L 1 5.559999999999999  C 0.7839999999999998 2.8239999999999985  3.008 0.5999999999999988  5.744 0.5999999999999988  L 13.264 0.5999999999999988  C 14.768 0.5999999999999988  16.128 1.1439999999999988  17.183999999999997 2.2319999999999984  L 21.631999999999998 6.775999999999998  C 22.656 7.831999999999997  23.183999999999997 9.127999999999998  23 10.583999999999998  L 23 24.439999999999998  C 23.183999999999997 27.176  20.959999999999997 29.4  18.223999999999997 29  Z " stroke-width="0" stroke-dasharray="0" stroke="rgba(255, 255, 255, 0)" fill="none" class="stroke" mask="url(#Clip224)" />
    <path d="M 3.1839999999999993 24.44  C 3.1839999999999993 25.848000000000003  4.3359999999999985 27  5.744 27  L 18.224 27  C 19.632 27  20.784 25.848  20.784 24.44  L 20.784 10.584000000000001  C 20.784 9.736  20.512 9.064000000000002  19.904 8.440000000000001  L 15.456 3.8960000000000012  C 14.864 3.288000000000002  14.16 3.0000000000000018  13.264 3.0000000000000018  L 5.744 3.0000000000000018  C 4.336 3.0000000000000018  3.1839999999999993 4.152000000000002  3.1839999999999993 5.560000000000002  L 3.1839999999999993 24.44  Z " stroke-width="0" stroke-dasharray="0" stroke="rgba(255, 255, 255, 0)" fill="none" class="stroke" mask="url(#Clip224)" />
    <path d="M 11.28 21.799999999999994  C 11.28 22.471999999999994  10.735999999999999 22.999999999999993  10.08 23  C 7.92 23  6.48 21.56  6.48 19.4  C 6.48 18.168  5.280000000000001 18.296  5.280000000000001 17  C 5.280000000000001 15.559999999999999  6.48 15.896  6.48 14.6  C 6.48 12.44  7.92 11  10.08 11  C 10.736 11  11.28 11.544  11.28 12.2  C 11.28 12.872  10.735999999999999 13.399999999999999  10.08 13.399999999999999  C 9.408 13.399999999999999  8.88 13.943999999999999  8.88 14.599999999999998  C 8.88 15.527999999999999  8.864 16.375999999999998  7.6800000000000015 16.999999999999996  C 8.864 17.623999999999995  8.88 18.455999999999996  8.88 19.399999999999995  C 8.88 20.071999999999996  9.408000000000001 20.599999999999994  10.08 20.599999999999994  C 10.736 20.599999999999994  11.28 21.143999999999995  11.28 21.799999999999994  Z " stroke-width="0" stroke-dasharray="0" stroke="rgba(255, 255, 255, 0)" fill="none" class="stroke" mask="url(#Clip224)" />
    <path d="M 17.520000000000003 19.400000000000002  C 17.520000000000003 21.560000000000002  16.080000000000002 23.000000000000004  13.920000000000002 23  C 13.248000000000001 23  12.720000000000002 22.472  12.720000000000002 21.8  C 12.720000000000002 21.144000000000002  13.248000000000001 20.6  13.920000000000002 20.6  C 14.576 20.6  15.120000000000001 20.072000000000003  15.120000000000001 19.400000000000002  C 15.120000000000001 18.456000000000003  15.152000000000001 17.624000000000002  16.32 17.000000000000004  C 15.152000000000001 16.376000000000005  15.120000000000001 15.528000000000002  15.120000000000001 14.600000000000003  C 15.120000000000001 13.944000000000003  14.576 13.400000000000004  13.920000000000002 13.400000000000004  C 13.248000000000001 13.400000000000004  12.720000000000002 12.872000000000003  12.720000000000002 12.200000000000005  C 12.720000000000002 11.544000000000004  13.248000000000001 11.000000000000005  13.920000000000002 11.000000000000005  C 16.080000000000002 11.000000000000005  17.520000000000003 12.440000000000005  17.520000000000003 14.600000000000005  C 17.520000000000003 15.864000000000004  18.720000000000002 15.560000000000006  18.720000000000002 17.000000000000004  C 18.720000000000002 18.408000000000005  17.520000000000003 18.056000000000004  17.520000000000003 19.400000000000002  Z " stroke-width="0" stroke-dasharray="0" stroke="rgba(255, 255, 255, 0)" fill="none" class="stroke" mask="url(#Clip224)" />
  </g>
</svg>