<?xml version="1.0" encoding="utf-8"?>
<svg version="1.1" xmlns:xlink="http://www.w3.org/1999/xlink" width="26px" height="26px" xmlns="http://www.w3.org/2000/svg">
  <defs>
    <pattern id="BGPattern" patternUnits="userSpaceOnUse" alignment="0 0" imageRepeat="None" />
    <mask fill="white" id="Clip3893">
      <path d="M 21 0  L 16 3.7499999999999996  L 16 10.25  L 13 8  L 8 11.75  L 8 18.25  L 5 16  L 0 19.75  L 0 26  L 2 26  L 2 20.75  L 5 18.5  L 8 20.75  L 8 26  L 10 26  L 10 12.75  L 13 10.5  L 16 12.75  L 16 26  L 18 26  L 18 4.75  L 21 2.5  L 24 4.75  L 24 26  L 26 26  L 26 3.7499999999999996  L 21 0  Z " fill-rule="evenodd" />
    </mask>
  </defs>
  <g transform="matrix(1 0 0 1 -2 -4 )">
    <path d="M 21 0  L 16 3.7499999999999996  L 16 10.25  L 13 8  L 8 11.75  L 8 18.25  L 5 16  L 0 19.75  L 0 26  L 2 26  L 2 20.75  L 5 18.5  L 8 20.75  L 8 26  L 10 26  L 10 12.75  L 13 10.5  L 16 12.75  L 16 26  L 18 26  L 18 4.75  L 21 2.5  L 24 4.75  L 24 26  L 26 26  L 26 3.7499999999999996  L 21 0  Z " fill-rule="nonzero" fill="rgba(0, 0, 0, 1)" stroke="none" transform="matrix(1 0 0 1 2 4 )" class="fill" />
    <path d="M 21 0  L 16 3.7499999999999996  L 16 10.25  L 13 8  L 8 11.75  L 8 18.25  L 5 16  L 0 19.75  L 0 26  L 2 26  L 2 20.75  L 5 18.5  L 8 20.75  L 8 26  L 10 26  L 10 12.75  L 13 10.5  L 16 12.75  L 16 26  L 18 26  L 18 4.75  L 21 2.5  L 24 4.75  L 24 26  L 26 26  L 26 3.7499999999999996  L 21 0  Z " stroke-width="0" stroke-dasharray="0" stroke="rgba(255, 255, 255, 0)" fill="none" transform="matrix(1 0 0 1 2 4 )" class="stroke" mask="url(#Clip3893)" />
  </g>
</svg>