<?xml version="1.0" encoding="utf-8"?>
<svg version="1.1" xmlns:xlink="http://www.w3.org/1999/xlink" width="24px" height="18px" xmlns="http://www.w3.org/2000/svg">
  <defs>
    <pattern id="BGPattern" patternUnits="userSpaceOnUse" alignment="0 0" imageRepeat="None" />
    <mask fill="white" id="Clip5033">
      <path d="M 21.75 0  L 2.25 0  C 1.0073593128807152 0  0 1.0073593128807143  0 2.25  L 0 15.749999999999996  C 0 16.992640687119284  1.0073593128807148 17.999999999999996  2.25 18  L 21.75 17.999999999999996  C 22.992640687119284 17.999999999999996  24 16.992640687119284  24 15.75  L 24 2.249999999999999  C 24 1.0073593128807143  22.992640687119284 0  21.75 0  Z M 2.25 1.5  L 21.75 1.5  C 22.164213562373096 1.5  22.5 1.835786437626905  22.5 2.25  L 22.5 11.2485  L 16.8375 8.329500000000001  C 16.548714055544856 8.185375966880368  16.200108508711 8.242167858392296  15.972 8.470500000000001  L 10.407 14.035500000000003  L 6.417 11.376000000000001  C 6.119983421913718 11.17825526036034  5.724770669194376 11.217149213802559  5.4719999999999995 11.469000000000001  L 1.5030000000000001 15  L 1.5030000000000001 15.809999999999999  C 1.5 15.790499999999998  1.5 15.7695  1.5 15.75  L 1.5 2.25  C 1.5 1.835786437626905  1.835786437626905 1.5  2.25 1.5  Z M 6.753 7.499999999999998  C 7.995640687119284 7.499999999999998  9.003 6.492640687119284  9.003 5.25  C 9.003 4.007359312880714  7.995640687119284 3  6.753 3  C 5.5103593128807145 3  4.503 4.007359312880714  4.503 5.25  C 4.503 6.492640687119284  5.510359312880716 7.499999999999998  6.753 7.499999999999998  Z " fill-rule="evenodd" />
    </mask>
  </defs>
  <g>
    <path d="M 21.75 0  L 2.25 0  C 1.0073593128807152 0  0 1.0073593128807143  0 2.25  L 0 15.749999999999996  C 0 16.992640687119284  1.0073593128807148 17.999999999999996  2.25 18  L 21.75 17.999999999999996  C 22.992640687119284 17.999999999999996  24 16.992640687119284  24 15.75  L 24 2.249999999999999  C 24 1.0073593128807143  22.992640687119284 0  21.75 0  Z M 2.25 1.5  L 21.75 1.5  C 22.164213562373096 1.5  22.5 1.835786437626905  22.5 2.25  L 22.5 11.2485  L 16.8375 8.329500000000001  C 16.548714055544856 8.185375966880368  16.200108508711 8.242167858392296  15.972 8.470500000000001  L 10.407 14.035500000000003  L 6.417 11.376000000000001  C 6.119983421913718 11.17825526036034  5.724770669194376 11.217149213802559  5.4719999999999995 11.469000000000001  L 1.5030000000000001 15  L 1.5030000000000001 15.809999999999999  C 1.5 15.790499999999998  1.5 15.7695  1.5 15.75  L 1.5 2.25  C 1.5 1.835786437626905  1.835786437626905 1.5  2.25 1.5  Z M 6.753 7.499999999999998  C 7.995640687119284 7.499999999999998  9.003 6.492640687119284  9.003 5.25  C 9.003 4.007359312880714  7.995640687119284 3  6.753 3  C 5.5103593128807145 3  4.503 4.007359312880714  4.503 5.25  C 4.503 6.492640687119284  5.510359312880716 7.499999999999998  6.753 7.499999999999998  Z " fill-rule="nonzero" fill="rgba(0, 0, 0, 1)" stroke="none" class="fill" />
    <path d="M 21.75 0  L 2.25 0  C 1.0073593128807152 0  0 1.0073593128807143  0 2.25  L 0 15.749999999999996  C 0 16.992640687119284  1.0073593128807148 17.999999999999996  2.25 18  L 21.75 17.999999999999996  C 22.992640687119284 17.999999999999996  24 16.992640687119284  24 15.75  L 24 2.249999999999999  C 24 1.0073593128807143  22.992640687119284 0  21.75 0  Z " stroke-width="0" stroke-dasharray="0" stroke="rgba(255, 255, 255, 0)" fill="none" class="stroke" mask="url(#Clip5033)" />
    <path d="M 2.25 1.5  L 21.75 1.5  C 22.164213562373096 1.5  22.5 1.835786437626905  22.5 2.25  L 22.5 11.2485  L 16.8375 8.329500000000001  C 16.548714055544856 8.185375966880368  16.200108508711 8.242167858392296  15.972 8.470500000000001  L 10.407 14.035500000000003  L 6.417 11.376000000000001  C 6.119983421913718 11.17825526036034  5.724770669194376 11.217149213802559  5.4719999999999995 11.469000000000001  L 1.5030000000000001 15  L 1.5030000000000001 15.809999999999999  C 1.5 15.790499999999998  1.5 15.7695  1.5 15.75  L 1.5 2.25  C 1.5 1.835786437626905  1.835786437626905 1.5  2.25 1.5  Z " stroke-width="0" stroke-dasharray="0" stroke="rgba(255, 255, 255, 0)" fill="none" class="stroke" mask="url(#Clip5033)" />
    <path d="M 6.753 7.499999999999998  C 7.995640687119284 7.499999999999998  9.003 6.492640687119284  9.003 5.25  C 9.003 4.007359312880714  7.995640687119284 3  6.753 3  C 5.5103593128807145 3  4.503 4.007359312880714  4.503 5.25  C 4.503 6.492640687119284  5.510359312880716 7.499999999999998  6.753 7.499999999999998  Z " stroke-width="0" stroke-dasharray="0" stroke="rgba(255, 255, 255, 0)" fill="none" class="stroke" mask="url(#Clip5033)" />
  </g>
</svg>