<?xml version="1.0" encoding="utf-8"?>
<svg version="1.1" xmlns:xlink="http://www.w3.org/1999/xlink" width="50px" height="50px" xmlns="http://www.w3.org/2000/svg">
  <defs>
    <pattern id="BGPattern" patternUnits="userSpaceOnUse" alignment="0 0" imageRepeat="None" />
    <mask fill="white" id="Clip1517">
      <path d="M 25 0  C 38.80614919354838 0  50 11.197883064516134  50 25  C 50 38.81018145161289  38.80614919354838 50  25 50  C 11.193850806451621 50  0 38.81018145161289  0 25  C 0 11.197883064516134  11.193850806451621 0  25 0  Z M 29.637096774193537 34.67741935483872  C 29.637096774193537 32.1164314516129  27.560987903225808 30.040322580645153  25 30.040322580645153  C 22.439012096774192 30.040322580645153  20.36290322580645 32.1164314516129  20.36290322580645 34.67741935483872  C 20.36290322580645 37.23840725806451  22.439012096774192 39.314516129032256  25 39.314516129032256  C 27.560987903225808 39.314516129032256  29.637096774193537 37.23840725806451  29.637096774193537 34.67741935483872  Z M 21.805241935483878 12.096774193548384  C 21.111290322580643 12.096774193548384  20.55967741935484 12.679435483870973  20.597479838709674 13.372379032258067  L 21.345262096774192 27.082056451612914  C 21.380241935483866 27.723588709677415  21.910685483870964 28.225806451612893  22.553124999999994 28.225806451612893  L 27.446875000000006 28.225806451612893  C 28.089314516129036 28.225806451612893  28.619758064516134 27.723588709677415  28.65473790322579 27.082056451612914  L 29.40252016129034 13.372379032258067  C 29.440322580645155 12.679435483870973  28.88860887096774 12.096774193548384  28.194657258064527 12.096774193548384  L 21.805241935483878 12.096774193548384  Z " fill-rule="evenodd" />
    </mask>
  </defs>
  <g>
    <path d="M 25 0  C 38.80614919354838 0  50 11.197883064516134  50 25  C 50 38.81018145161289  38.80614919354838 50  25 50  C 11.193850806451621 50  0 38.81018145161289  0 25  C 0 11.197883064516134  11.193850806451621 0  25 0  Z M 29.637096774193537 34.67741935483872  C 29.637096774193537 32.1164314516129  27.560987903225808 30.040322580645153  25 30.040322580645153  C 22.439012096774192 30.040322580645153  20.36290322580645 32.1164314516129  20.36290322580645 34.67741935483872  C 20.36290322580645 37.23840725806451  22.439012096774192 39.314516129032256  25 39.314516129032256  C 27.560987903225808 39.314516129032256  29.637096774193537 37.23840725806451  29.637096774193537 34.67741935483872  Z M 21.805241935483878 12.096774193548384  C 21.111290322580643 12.096774193548384  20.55967741935484 12.679435483870973  20.597479838709674 13.372379032258067  L 21.345262096774192 27.082056451612914  C 21.380241935483866 27.723588709677415  21.910685483870964 28.225806451612893  22.553124999999994 28.225806451612893  L 27.446875000000006 28.225806451612893  C 28.089314516129036 28.225806451612893  28.619758064516134 27.723588709677415  28.65473790322579 27.082056451612914  L 29.40252016129034 13.372379032258067  C 29.440322580645155 12.679435483870973  28.88860887096774 12.096774193548384  28.194657258064527 12.096774193548384  L 21.805241935483878 12.096774193548384  Z " fill-rule="nonzero" fill="rgba(0, 0, 0, 1)" stroke="none" class="fill" />
    <path d="M 25 0  C 38.80614919354838 0  50 11.197883064516134  50 25  C 50 38.81018145161289  38.80614919354838 50  25 50  C 11.193850806451621 50  0 38.81018145161289  0 25  C 0 11.197883064516134  11.193850806451621 0  25 0  Z " stroke-width="0" stroke-dasharray="0" stroke="rgba(255, 255, 255, 0)" fill="none" class="stroke" mask="url(#Clip1517)" />
    <path d="M 29.637096774193537 34.67741935483872  C 29.637096774193537 32.1164314516129  27.560987903225808 30.040322580645153  25 30.040322580645153  C 22.439012096774192 30.040322580645153  20.36290322580645 32.1164314516129  20.36290322580645 34.67741935483872  C 20.36290322580645 37.23840725806451  22.439012096774192 39.314516129032256  25 39.314516129032256  C 27.560987903225808 39.314516129032256  29.637096774193537 37.23840725806451  29.637096774193537 34.67741935483872  Z " stroke-width="0" stroke-dasharray="0" stroke="rgba(255, 255, 255, 0)" fill="none" class="stroke" mask="url(#Clip1517)" />
    <path d="M 21.805241935483878 12.096774193548384  C 21.111290322580643 12.096774193548384  20.55967741935484 12.679435483870973  20.597479838709674 13.372379032258067  L 21.345262096774192 27.082056451612914  C 21.380241935483866 27.723588709677415  21.910685483870964 28.225806451612893  22.553124999999994 28.225806451612893  L 27.446875000000006 28.225806451612893  C 28.089314516129036 28.225806451612893  28.619758064516134 27.723588709677415  28.65473790322579 27.082056451612914  L 29.40252016129034 13.372379032258067  C 29.440322580645155 12.679435483870973  28.88860887096774 12.096774193548384  28.194657258064527 12.096774193548384  L 21.805241935483878 12.096774193548384  Z " stroke-width="0" stroke-dasharray="0" stroke="rgba(255, 255, 255, 0)" fill="none" class="stroke" mask="url(#Clip1517)" />
  </g>
</svg>