<?xml version="1.0" encoding="utf-8"?>
<svg version="1.1" xmlns:xlink="http://www.w3.org/1999/xlink" width="50px" height="38px" xmlns="http://www.w3.org/2000/svg">
  <defs>
    <pattern id="BGPattern" patternUnits="userSpaceOnUse" alignment="0 0" imageRepeat="None" />
    <mask fill="white" id="Clip1413">
      <path d="M 50 4.6875  C 50 2.099609375  47.900390625 0  45.3125 0  L 4.6875 0  C 2.099609375 0  0 2.099609375  0 4.6875  L 0 32.8125  C 0 35.400390625  2.099609375 37.5  4.6875 37  L 45.3125 37  C 47.900390625 37.5  50 35.400390625  50 32.8125  L 50 4.6875  Z M 12.28515625 18.662109375  C 12.294921875 23.349609375  17.275390625 25.546875  21.298828125 21.845703125  C 21.572265625 21.601562499999996  21.9921875 21.640625  22.197265625 21.93359375  L 24.1015625 24.638671875  C 24.267578125 24.873046875  24.248046875 25.185546875  24.052734375 25.390625  C 18.818359375 30.9375  7.177734375 28.525390625  7.177734375 18.759765625  C 7.177734375 9.2578125  19.0625 7.08984375  24.0234375 11.914062499999998  C 24.228515625 12.109375  24.267578125 12.2265625  24.12109375 12.470703124999998  L 22.412109375 15.44921875  C 22.2265625 15.751953125  21.806640625 15.83984375  21.5234375 15.615234375  C 17.5390625 12.490234375  12.28515625 14.16015625  12.28515625 18.662109375  Z M 30.888671875 18.662109375  C 30.888671875 23.349609375  35.869140625 25.546875  39.892578125 21.845703125  C 40.166015625 21.601562499999996  40.5859375 21.640625  40.791015625 21.93359375  L 42.6953125 24.638671875  C 42.861328125 24.873046875  42.841796875 25.185546875  42.646484375 25.390625  C 37.421875 30.947265625  25.78125 28.525390625  25.78125 18.759765625  C 25.78125 9.2578125  37.666015625 7.08984375  42.626953125 11.914062499999998  C 42.83203125 12.109375  42.87109375 12.2265625  42.724609375 12.470703124999998  L 41.015625 15.44921875  C 40.830078125 15.751953125  40.41015625 15.83984375  40.126953125 15.615234375  C 36.142578125 12.490234375  30.888671875 14.16015625  30.888671875 18.662109375  Z " fill-rule="evenodd" />
    </mask>
  </defs>
  <g>
    <path d="M 50 4.6875  C 50 2.099609375  47.900390625 0  45.3125 0  L 4.6875 0  C 2.099609375 0  0 2.099609375  0 4.6875  L 0 32.8125  C 0 35.400390625  2.099609375 37.5  4.6875 37  L 45.3125 37  C 47.900390625 37.5  50 35.400390625  50 32.8125  L 50 4.6875  Z M 12.28515625 18.662109375  C 12.294921875 23.349609375  17.275390625 25.546875  21.298828125 21.845703125  C 21.572265625 21.601562499999996  21.9921875 21.640625  22.197265625 21.93359375  L 24.1015625 24.638671875  C 24.267578125 24.873046875  24.248046875 25.185546875  24.052734375 25.390625  C 18.818359375 30.9375  7.177734375 28.525390625  7.177734375 18.759765625  C 7.177734375 9.2578125  19.0625 7.08984375  24.0234375 11.914062499999998  C 24.228515625 12.109375  24.267578125 12.2265625  24.12109375 12.470703124999998  L 22.412109375 15.44921875  C 22.2265625 15.751953125  21.806640625 15.83984375  21.5234375 15.615234375  C 17.5390625 12.490234375  12.28515625 14.16015625  12.28515625 18.662109375  Z M 30.888671875 18.662109375  C 30.888671875 23.349609375  35.869140625 25.546875  39.892578125 21.845703125  C 40.166015625 21.601562499999996  40.5859375 21.640625  40.791015625 21.93359375  L 42.6953125 24.638671875  C 42.861328125 24.873046875  42.841796875 25.185546875  42.646484375 25.390625  C 37.421875 30.947265625  25.78125 28.525390625  25.78125 18.759765625  C 25.78125 9.2578125  37.666015625 7.08984375  42.626953125 11.914062499999998  C 42.83203125 12.109375  42.87109375 12.2265625  42.724609375 12.470703124999998  L 41.015625 15.44921875  C 40.830078125 15.751953125  40.41015625 15.83984375  40.126953125 15.615234375  C 36.142578125 12.490234375  30.888671875 14.16015625  30.888671875 18.662109375  Z " fill-rule="nonzero" fill="rgba(0, 0, 0, 1)" stroke="none" class="fill" />
    <path d="M 50 4.6875  C 50 2.099609375  47.900390625 0  45.3125 0  L 4.6875 0  C 2.099609375 0  0 2.099609375  0 4.6875  L 0 32.8125  C 0 35.400390625  2.099609375 37.5  4.6875 37  L 45.3125 37  C 47.900390625 37.5  50 35.400390625  50 32.8125  L 50 4.6875  Z " stroke-width="0" stroke-dasharray="0" stroke="rgba(255, 255, 255, 0)" fill="none" class="stroke" mask="url(#Clip1413)" />
    <path d="M 12.28515625 18.662109375  C 12.294921875 23.349609375  17.275390625 25.546875  21.298828125 21.845703125  C 21.572265625 21.601562499999996  21.9921875 21.640625  22.197265625 21.93359375  L 24.1015625 24.638671875  C 24.267578125 24.873046875  24.248046875 25.185546875  24.052734375 25.390625  C 18.818359375 30.9375  7.177734375 28.525390625  7.177734375 18.759765625  C 7.177734375 9.2578125  19.0625 7.08984375  24.0234375 11.914062499999998  C 24.228515625 12.109375  24.267578125 12.2265625  24.12109375 12.470703124999998  L 22.412109375 15.44921875  C 22.2265625 15.751953125  21.806640625 15.83984375  21.5234375 15.615234375  C 17.5390625 12.490234375  12.28515625 14.16015625  12.28515625 18.662109375  Z " stroke-width="0" stroke-dasharray="0" stroke="rgba(255, 255, 255, 0)" fill="none" class="stroke" mask="url(#Clip1413)" />
    <path d="M 30.888671875 18.662109375  C 30.888671875 23.349609375  35.869140625 25.546875  39.892578125 21.845703125  C 40.166015625 21.601562499999996  40.5859375 21.640625  40.791015625 21.93359375  L 42.6953125 24.638671875  C 42.861328125 24.873046875  42.841796875 25.185546875  42.646484375 25.390625  C 37.421875 30.947265625  25.78125 28.525390625  25.78125 18.759765625  C 25.78125 9.2578125  37.666015625 7.08984375  42.626953125 11.914062499999998  C 42.83203125 12.109375  42.87109375 12.2265625  42.724609375 12.470703124999998  L 41.015625 15.44921875  C 40.830078125 15.751953125  40.41015625 15.83984375  40.126953125 15.615234375  C 36.142578125 12.490234375  30.888671875 14.16015625  30.888671875 18.662109375  Z " stroke-width="0" stroke-dasharray="0" stroke="rgba(255, 255, 255, 0)" fill="none" class="stroke" mask="url(#Clip1413)" />
  </g>
</svg>