<?xml version="1.0" encoding="utf-8"?>
<svg version="1.1" xmlns:xlink="http://www.w3.org/1999/xlink" width="8px" height="29px" xmlns="http://www.w3.org/2000/svg">
  <defs>
    <pattern id="BGPattern" patternUnits="userSpaceOnUse" alignment="0 0" imageRepeat="None" />
    <mask fill="white" id="Clip3422">
      <path d="M 8 7.004900000000001  C 7.998897540340659 5.900787476500774  7.104112523499229 5.006002459659342  6 5.0049  L 5 5.0049  L 5 0.0049000000000001265  L 3 0.0049000000000001265  L 3 5.0049  L 2 5.004900000000001  C 0.8958874765007732 5.006002459659343  0.0011024596593411928 5.900787476500773  0 7.004899999999999  L 0 9.0049  C 0.0011024596593411928 10.10901252349923  0.8958874765007732 11.003797540340656  2 11.0049  L 3 11.0049  L 3 28.0049  L 5 28.0049  L 5 11.0049  L 6.000000000000002 11.0049  C 7.104112523499229 11.003797540340658  7.998897540340659 10.109012523499228  8 9.0049  L 8 7.004900000000001  Z M 6 7.004899999999999  L 6 9.0049  L 2 9.0049  L 2 7.004899999999999  L 6 7.004899999999999  Z " fill-rule="evenodd" />
    </mask>
  </defs>
  <g transform="matrix(1 0 0 1 -8 -2 )">
    <path d="M 8 7.004900000000001  C 7.998897540340659 5.900787476500774  7.104112523499229 5.006002459659342  6 5.0049  L 5 5.0049  L 5 0.0049000000000001265  L 3 0.0049000000000001265  L 3 5.0049  L 2 5.004900000000001  C 0.8958874765007732 5.006002459659343  0.0011024596593411928 5.900787476500773  0 7.004899999999999  L 0 9.0049  C 0.0011024596593411928 10.10901252349923  0.8958874765007732 11.003797540340656  2 11.0049  L 3 11.0049  L 3 28.0049  L 5 28.0049  L 5 11.0049  L 6.000000000000002 11.0049  C 7.104112523499229 11.003797540340658  7.998897540340659 10.109012523499228  8 9.0049  L 8 7.004900000000001  Z M 6 7.004899999999999  L 6 9.0049  L 2 9.0049  L 2 7.004899999999999  L 6 7.004899999999999  Z " fill-rule="nonzero" fill="rgba(0, 0, 0, 1)" stroke="none" transform="matrix(1 0 0 1 8 2 )" class="fill" />
    <path d="M 8 7.004900000000001  C 7.998897540340659 5.900787476500774  7.104112523499229 5.006002459659342  6 5.0049  L 5 5.0049  L 5 0.0049000000000001265  L 3 0.0049000000000001265  L 3 5.0049  L 2 5.004900000000001  C 0.8958874765007732 5.006002459659343  0.0011024596593411928 5.900787476500773  0 7.004899999999999  L 0 9.0049  C 0.0011024596593411928 10.10901252349923  0.8958874765007732 11.003797540340656  2 11.0049  L 3 11.0049  L 3 28.0049  L 5 28.0049  L 5 11.0049  L 6.000000000000002 11.0049  C 7.104112523499229 11.003797540340658  7.998897540340659 10.109012523499228  8 9.0049  L 8 7.004900000000001  Z " stroke-width="0" stroke-dasharray="0" stroke="rgba(255, 255, 255, 0)" fill="none" transform="matrix(1 0 0 1 8 2 )" class="stroke" mask="url(#Clip3422)" />
    <path d="M 6 7.004899999999999  L 6 9.0049  L 2 9.0049  L 2 7.004899999999999  L 6 7.004899999999999  Z " stroke-width="0" stroke-dasharray="0" stroke="rgba(255, 255, 255, 0)" fill="none" transform="matrix(1 0 0 1 8 2 )" class="stroke" mask="url(#Clip3422)" />
  </g>
</svg>