<?xml version="1.0" encoding="utf-8"?>
<svg version="1.1" xmlns:xlink="http://www.w3.org/1999/xlink" width="24px" height="16px" xmlns="http://www.w3.org/2000/svg">
  <defs>
    <pattern id="BGPattern" patternUnits="userSpaceOnUse" alignment="0 0" imageRepeat="None" />
    <mask fill="white" id="Clip5788">
      <path d="M 5.715 1.3444999999999983  L 5.7135 1.3445  C 6.140703633334184 0.8104555328073033  6.78760940494352 0.49969789678677756  7.4715 0.5  L 16.5285 0.5  C 17.212390595056483 0.49969789678677756  17.859296366665816 0.8104555328073033  18.2865 1.3445  L 23.8365 8.281999999999998  C 23.962465223478347 8.44012922954719  24.019256793008473 8.642415391492605  23.994000000000003 8.843  L 23.409 13.529  C 23.268249292948973 14.655326679823887  22.310586939752937 15.500436372301785  21.1755 15.5  L 2.8244999999999996 15.5  C 1.6894130602470603 15.500436372301785  0.7317507070510287 14.655326679823894  0.5909999999999999 13.529  L 0.005999999999999839 8.843  C -0.018837869330225118 8.642208567277653  0.03850114730577566 8.439899206694022  0.16499999999999984 8.281999999999998  L 5.715 1.3444999999999983  Z M 22.3995 9.5  L 22.401000000000003 9.5  L 15.674999999999997 9.499999999999996  C 15.32010565057403 11.247742983815067  13.78341120797456 12.503759422170035  11.999999999999996 12.503759422170035  C 10.216588792025432 12.503759422170035  8.679894349425965 11.247742983815073  8.325 9.5  L 1.5990000000000002 9.5  L 2.079 13.343  C 2.125963672007247 13.71882080355347  2.445756762854621 14.000650529491399  2.8245 14  L 21.1755 14  C 21.553671803219718 13.999893271254042  21.872606709593885 13.718253172480075  21.919500000000003 13.343  L 22.3995 9.5  Z M 16.53 2  L 7.470000000000001 2  C 7.2423028847747295 2.000324503212262  7.027082912956874 2.1040715665501013  6.885000000000002 2.282  L 2.31 8  L 9 8  C 9.414213562373096 8  9.75 8.335786437626904  9.75 8.75  C 9.75 9.992640687119282  10.757359312880716 11  12 11  C 13.242640687119284 11  14.25 9.992640687119282  14.25 8.75  C 14.25 8.335786437626904  14.585786437626904 8  15 8  L 21.69 8  L 17.115000000000002 2.282000000000001  C 16.972917087043125 2.104071566550102  16.75769711522527 2.000324503212262  16.53 2  Z " fill-rule="evenodd" />
    </mask>
  </defs>
  <g>
    <path d="M 5.715 1.3444999999999983  L 5.7135 1.3445  C 6.140703633334184 0.8104555328073033  6.78760940494352 0.49969789678677756  7.4715 0.5  L 16.5285 0.5  C 17.212390595056483 0.49969789678677756  17.859296366665816 0.8104555328073033  18.2865 1.3445  L 23.8365 8.281999999999998  C 23.962465223478347 8.44012922954719  24.019256793008473 8.642415391492605  23.994000000000003 8.843  L 23.409 13.529  C 23.268249292948973 14.655326679823887  22.310586939752937 15.500436372301785  21.1755 15.5  L 2.8244999999999996 15.5  C 1.6894130602470603 15.500436372301785  0.7317507070510287 14.655326679823894  0.5909999999999999 13.529  L 0.005999999999999839 8.843  C -0.018837869330225118 8.642208567277653  0.03850114730577566 8.439899206694022  0.16499999999999984 8.281999999999998  L 5.715 1.3444999999999983  Z M 22.3995 9.5  L 22.401000000000003 9.5  L 15.674999999999997 9.499999999999996  C 15.32010565057403 11.247742983815067  13.78341120797456 12.503759422170035  11.999999999999996 12.503759422170035  C 10.216588792025432 12.503759422170035  8.679894349425965 11.247742983815073  8.325 9.5  L 1.5990000000000002 9.5  L 2.079 13.343  C 2.125963672007247 13.71882080355347  2.445756762854621 14.000650529491399  2.8245 14  L 21.1755 14  C 21.553671803219718 13.999893271254042  21.872606709593885 13.718253172480075  21.919500000000003 13.343  L 22.3995 9.5  Z M 16.53 2  L 7.470000000000001 2  C 7.2423028847747295 2.000324503212262  7.027082912956874 2.1040715665501013  6.885000000000002 2.282  L 2.31 8  L 9 8  C 9.414213562373096 8  9.75 8.335786437626904  9.75 8.75  C 9.75 9.992640687119282  10.757359312880716 11  12 11  C 13.242640687119284 11  14.25 9.992640687119282  14.25 8.75  C 14.25 8.335786437626904  14.585786437626904 8  15 8  L 21.69 8  L 17.115000000000002 2.282000000000001  C 16.972917087043125 2.104071566550102  16.75769711522527 2.000324503212262  16.53 2  Z " fill-rule="nonzero" fill="rgba(0, 0, 0, 1)" stroke="none" class="fill" />
    <path d="M 5.715 1.3444999999999983  L 5.7135 1.3445  C 6.140703633334184 0.8104555328073033  6.78760940494352 0.49969789678677756  7.4715 0.5  L 16.5285 0.5  C 17.212390595056483 0.49969789678677756  17.859296366665816 0.8104555328073033  18.2865 1.3445  L 23.8365 8.281999999999998  C 23.962465223478347 8.44012922954719  24.019256793008473 8.642415391492605  23.994000000000003 8.843  L 23.409 13.529  C 23.268249292948973 14.655326679823887  22.310586939752937 15.500436372301785  21.1755 15.5  L 2.8244999999999996 15.5  C 1.6894130602470603 15.500436372301785  0.7317507070510287 14.655326679823894  0.5909999999999999 13.529  L 0.005999999999999839 8.843  C -0.018837869330225118 8.642208567277653  0.03850114730577566 8.439899206694022  0.16499999999999984 8.281999999999998  L 5.715 1.3444999999999983  Z " stroke-width="0" stroke-dasharray="0" stroke="rgba(255, 255, 255, 0)" fill="none" class="stroke" mask="url(#Clip5788)" />
    <path d="M 22.3995 9.5  L 22.401000000000003 9.5  L 15.674999999999997 9.499999999999996  C 15.32010565057403 11.247742983815067  13.78341120797456 12.503759422170035  11.999999999999996 12.503759422170035  C 10.216588792025432 12.503759422170035  8.679894349425965 11.247742983815073  8.325 9.5  L 1.5990000000000002 9.5  L 2.079 13.343  C 2.125963672007247 13.71882080355347  2.445756762854621 14.000650529491399  2.8245 14  L 21.1755 14  C 21.553671803219718 13.999893271254042  21.872606709593885 13.718253172480075  21.919500000000003 13.343  L 22.3995 9.5  Z " stroke-width="0" stroke-dasharray="0" stroke="rgba(255, 255, 255, 0)" fill="none" class="stroke" mask="url(#Clip5788)" />
    <path d="M 16.53 2  L 7.470000000000001 2  C 7.2423028847747295 2.000324503212262  7.027082912956874 2.1040715665501013  6.885000000000002 2.282  L 2.31 8  L 9 8  C 9.414213562373096 8  9.75 8.335786437626904  9.75 8.75  C 9.75 9.992640687119282  10.757359312880716 11  12 11  C 13.242640687119284 11  14.25 9.992640687119282  14.25 8.75  C 14.25 8.335786437626904  14.585786437626904 8  15 8  L 21.69 8  L 17.115000000000002 2.282000000000001  C 16.972917087043125 2.104071566550102  16.75769711522527 2.000324503212262  16.53 2  Z " stroke-width="0" stroke-dasharray="0" stroke="rgba(255, 255, 255, 0)" fill="none" class="stroke" mask="url(#Clip5788)" />
  </g>
</svg>