<?xml version="1.0" encoding="utf-8"?>
<svg version="1.1" xmlns:xlink="http://www.w3.org/1999/xlink" width="48px" height="48px" xmlns="http://www.w3.org/2000/svg">
  <defs>
    <pattern id="BGPattern" patternUnits="userSpaceOnUse" alignment="0 0" imageRepeat="None" />
    <mask fill="white" id="Clip7035">
      <path d="M 48 4.35  C 48 1.9500000000000002  46.05 0  43.65 0  L 4.35 0  C 1.9500000000000002 0  0 1.9500000000000002  0 4.35  L 0 43.65  C 0 46.05  1.9500000000000002 48  4.35 48  L 43.65 48  C 46.05 48  48 46.05  48 43.65  L 48 4.35  Z M 16.042 9.335999999999999  L 16.04 9.334  C 17.636 9.334  18.976 10.594  18.976 12.213999999999999  C 18.976 13.854  17.636 15.102  16.04 15.102  L 16.04 15.155999999999999  C 14.433999999999997 15.155999999999999  13.132000000000001 13.855999999999998  13.132000000000001 12.245999999999999  C 13.132000000000001 10.636  14.432000000000002 9.335999999999999  16.042 9.335999999999999  Z M 35.67400000000001 36.961999999999996  L 35.672 36.964  C 32.70399999999999 36.964  31.263999999999996 35.193999999999996  31.263999999999996 32.784  C 31.263999999999996 32.092  31.351999999999997 31.358000000000004  31.564 30.624000000000002  L 32.983999999999995 25.534  C 33.16 24.974000000000004  33.20399999999999 24.454  33.20399999999999 23.983999999999998  C 33.20399999999999 22.343999999999998  32.20399999999999 21.354  30.611999999999995 21.354  C 28.58599999999999 21.354  27.251999999999995 22.808  26.56199999999999 25.613999999999997  L 23.801999999999992 36.684  L 18.974 36.684  L 19.838 33.204  C 18.422 35.536  16.448 36.974000000000004  14.018 36.974000000000004  C 11.084 36.974000000000004  9.704 35.290000000000006  9.704 32.748000000000005  C 9.712 32.01800000000001  9.798 31.288000000000004  9.964 30.578000000000003  L 9.964 30.582  L 12.164000000000001 21.602000000000004  L 8.75 21.602000000000004  L 9.786 17.792000000000005  L 17.985999999999997 17.792000000000005  L 14.745999999999995 30.602000000000004  C 14.535999999999994 31.422000000000004  14.445999999999998 32.102000000000004  14.445999999999998 32.574000000000005  C 14.445999999999998 33.394000000000005  14.849999999999994 33.63400000000001  15.479999999999997 33.782000000000004  C 15.869999999999997 33.862  18.929999999999996 33.806000000000004  20.599999999999998 30.102000000000004  L 22.72 21.602000000000004  L 19.274 21.602000000000004  L 20.314 17.852000000000004  L 27.753999999999998 17.852000000000004  L 26.793999999999997 22.172000000000004  C 28.088 19.772000000000006  30.668 17.462000000000003  33.218 17.462000000000003  C 35.918000000000006 17.462000000000003  38.168000000000006 19.412000000000003  38.168000000000006 23.102000000000004  C 38.168000000000006 24.170000000000005  38.00800000000001 25.232000000000003  37.68800000000001 26.252000000000002  L 36.30800000000001 31.204  C 36.18800000000001 31.711999999999996  36.10000000000001 32.134  36.10000000000001 32.524  C 36.10000000000001 33.392  36.46000000000001 33.814  37.08800000000001 33.814  C 37.71600000000001 33.814  38.55800000000001 33.334  39.48800000000001 30.694000000000003  L 41.37400000000001 31.413999999999994  C 40.26400000000001 35.342  38.22200000000001 36.961999999999996  35.67400000000001 36.961999999999996  Z " fill-rule="evenodd" />
    </mask>
  </defs>
  <g>
    <path d="M 48 4.35  C 48 1.9500000000000002  46.05 0  43.65 0  L 4.35 0  C 1.9500000000000002 0  0 1.9500000000000002  0 4.35  L 0 43.65  C 0 46.05  1.9500000000000002 48  4.35 48  L 43.65 48  C 46.05 48  48 46.05  48 43.65  L 48 4.35  Z M 16.042 9.335999999999999  L 16.04 9.334  C 17.636 9.334  18.976 10.594  18.976 12.213999999999999  C 18.976 13.854  17.636 15.102  16.04 15.102  L 16.04 15.155999999999999  C 14.433999999999997 15.155999999999999  13.132000000000001 13.855999999999998  13.132000000000001 12.245999999999999  C 13.132000000000001 10.636  14.432000000000002 9.335999999999999  16.042 9.335999999999999  Z M 35.67400000000001 36.961999999999996  L 35.672 36.964  C 32.70399999999999 36.964  31.263999999999996 35.193999999999996  31.263999999999996 32.784  C 31.263999999999996 32.092  31.351999999999997 31.358000000000004  31.564 30.624000000000002  L 32.983999999999995 25.534  C 33.16 24.974000000000004  33.20399999999999 24.454  33.20399999999999 23.983999999999998  C 33.20399999999999 22.343999999999998  32.20399999999999 21.354  30.611999999999995 21.354  C 28.58599999999999 21.354  27.251999999999995 22.808  26.56199999999999 25.613999999999997  L 23.801999999999992 36.684  L 18.974 36.684  L 19.838 33.204  C 18.422 35.536  16.448 36.974000000000004  14.018 36.974000000000004  C 11.084 36.974000000000004  9.704 35.290000000000006  9.704 32.748000000000005  C 9.712 32.01800000000001  9.798 31.288000000000004  9.964 30.578000000000003  L 9.964 30.582  L 12.164000000000001 21.602000000000004  L 8.75 21.602000000000004  L 9.786 17.792000000000005  L 17.985999999999997 17.792000000000005  L 14.745999999999995 30.602000000000004  C 14.535999999999994 31.422000000000004  14.445999999999998 32.102000000000004  14.445999999999998 32.574000000000005  C 14.445999999999998 33.394000000000005  14.849999999999994 33.63400000000001  15.479999999999997 33.782000000000004  C 15.869999999999997 33.862  18.929999999999996 33.806000000000004  20.599999999999998 30.102000000000004  L 22.72 21.602000000000004  L 19.274 21.602000000000004  L 20.314 17.852000000000004  L 27.753999999999998 17.852000000000004  L 26.793999999999997 22.172000000000004  C 28.088 19.772000000000006  30.668 17.462000000000003  33.218 17.462000000000003  C 35.918000000000006 17.462000000000003  38.168000000000006 19.412000000000003  38.168000000000006 23.102000000000004  C 38.168000000000006 24.170000000000005  38.00800000000001 25.232000000000003  37.68800000000001 26.252000000000002  L 36.30800000000001 31.204  C 36.18800000000001 31.711999999999996  36.10000000000001 32.134  36.10000000000001 32.524  C 36.10000000000001 33.392  36.46000000000001 33.814  37.08800000000001 33.814  C 37.71600000000001 33.814  38.55800000000001 33.334  39.48800000000001 30.694000000000003  L 41.37400000000001 31.413999999999994  C 40.26400000000001 35.342  38.22200000000001 36.961999999999996  35.67400000000001 36.961999999999996  Z " fill-rule="nonzero" fill="rgba(255, 51, 102, 1)" stroke="none" class="fill" />
    <path d="M 48 4.35  C 48 1.9500000000000002  46.05 0  43.65 0  L 4.35 0  C 1.9500000000000002 0  0 1.9500000000000002  0 4.35  L 0 43.65  C 0 46.05  1.9500000000000002 48  4.35 48  L 43.65 48  C 46.05 48  48 46.05  48 43.65  L 48 4.35  Z " stroke-width="0" stroke-dasharray="0" stroke="rgba(255, 255, 255, 0)" fill="none" class="stroke" mask="url(#Clip7035)" />
    <path d="M 16.042 9.335999999999999  L 16.04 9.334  C 17.636 9.334  18.976 10.594  18.976 12.213999999999999  C 18.976 13.854  17.636 15.102  16.04 15.102  L 16.04 15.155999999999999  C 14.433999999999997 15.155999999999999  13.132000000000001 13.855999999999998  13.132000000000001 12.245999999999999  C 13.132000000000001 10.636  14.432000000000002 9.335999999999999  16.042 9.335999999999999  Z " stroke-width="0" stroke-dasharray="0" stroke="rgba(255, 255, 255, 0)" fill="none" class="stroke" mask="url(#Clip7035)" />
    <path d="M 35.67400000000001 36.961999999999996  L 35.672 36.964  C 32.70399999999999 36.964  31.263999999999996 35.193999999999996  31.263999999999996 32.784  C 31.263999999999996 32.092  31.351999999999997 31.358000000000004  31.564 30.624000000000002  L 32.983999999999995 25.534  C 33.16 24.974000000000004  33.20399999999999 24.454  33.20399999999999 23.983999999999998  C 33.20399999999999 22.343999999999998  32.20399999999999 21.354  30.611999999999995 21.354  C 28.58599999999999 21.354  27.251999999999995 22.808  26.56199999999999 25.613999999999997  L 23.801999999999992 36.684  L 18.974 36.684  L 19.838 33.204  C 18.422 35.536  16.448 36.974000000000004  14.018 36.974000000000004  C 11.084 36.974000000000004  9.704 35.290000000000006  9.704 32.748000000000005  C 9.712 32.01800000000001  9.798 31.288000000000004  9.964 30.578000000000003  L 9.964 30.582  L 12.164000000000001 21.602000000000004  L 8.75 21.602000000000004  L 9.786 17.792000000000005  L 17.985999999999997 17.792000000000005  L 14.745999999999995 30.602000000000004  C 14.535999999999994 31.422000000000004  14.445999999999998 32.102000000000004  14.445999999999998 32.574000000000005  C 14.445999999999998 33.394000000000005  14.849999999999994 33.63400000000001  15.479999999999997 33.782000000000004  C 15.869999999999997 33.862  18.929999999999996 33.806000000000004  20.599999999999998 30.102000000000004  L 22.72 21.602000000000004  L 19.274 21.602000000000004  L 20.314 17.852000000000004  L 27.753999999999998 17.852000000000004  L 26.793999999999997 22.172000000000004  C 28.088 19.772000000000006  30.668 17.462000000000003  33.218 17.462000000000003  C 35.918000000000006 17.462000000000003  38.168000000000006 19.412000000000003  38.168000000000006 23.102000000000004  C 38.168000000000006 24.170000000000005  38.00800000000001 25.232000000000003  37.68800000000001 26.252000000000002  L 36.30800000000001 31.204  C 36.18800000000001 31.711999999999996  36.10000000000001 32.134  36.10000000000001 32.524  C 36.10000000000001 33.392  36.46000000000001 33.814  37.08800000000001 33.814  C 37.71600000000001 33.814  38.55800000000001 33.334  39.48800000000001 30.694000000000003  L 41.37400000000001 31.413999999999994  C 40.26400000000001 35.342  38.22200000000001 36.961999999999996  35.67400000000001 36.961999999999996  Z " stroke-width="0" stroke-dasharray="0" stroke="rgba(255, 255, 255, 0)" fill="none" class="stroke" mask="url(#Clip7035)" />
  </g>
</svg>