<?xml version="1.0" encoding="utf-8"?>
<svg version="1.1" xmlns:xlink="http://www.w3.org/1999/xlink" width="8px" height="28px" xmlns="http://www.w3.org/2000/svg">
  <defs>
    <pattern id="BGPattern" patternUnits="userSpaceOnUse" alignment="0 0" imageRepeat="None" />
    <mask fill="white" id="Clip3670">
      <path d="M 8 6  C 7.998732534440704 4.89595592794491  7.104044072055091 4.0012674655592955  6 4  L 5 4  L 5 0  L 3 0  L 3 4  L 2 4  C 0.8959559279449092 4.001267465559296  0.0012674655592963546 4.895955927944909  0 6  L 0 22  C 0.0012674655592954664 23.104044072055093  0.8959559279449083 23.998732534440702  2 24  L 3 24  L 3 28  L 5 28  L 5 24  L 6 24  C 7.104044072055091 23.998732534440702  7.998732534440704 23.10404407205509  8 22  L 8 6  Z M 6 6  L 6 22  L 2 22  L 2 6  L 6 6  Z " fill-rule="evenodd" />
    </mask>
  </defs>
  <g transform="matrix(1 0 0 1 -6 -2 )">
    <path d="M 8 6  C 7.998732534440704 4.89595592794491  7.104044072055091 4.0012674655592955  6 4  L 5 4  L 5 0  L 3 0  L 3 4  L 2 4  C 0.8959559279449092 4.001267465559296  0.0012674655592963546 4.895955927944909  0 6  L 0 22  C 0.0012674655592954664 23.104044072055093  0.8959559279449083 23.998732534440702  2 24  L 3 24  L 3 28  L 5 28  L 5 24  L 6 24  C 7.104044072055091 23.998732534440702  7.998732534440704 23.10404407205509  8 22  L 8 6  Z M 6 6  L 6 22  L 2 22  L 2 6  L 6 6  Z " fill-rule="nonzero" fill="rgba(0, 0, 0, 1)" stroke="none" transform="matrix(1 0 0 1 6 2 )" class="fill" />
    <path d="M 8 6  C 7.998732534440704 4.89595592794491  7.104044072055091 4.0012674655592955  6 4  L 5 4  L 5 0  L 3 0  L 3 4  L 2 4  C 0.8959559279449092 4.001267465559296  0.0012674655592963546 4.895955927944909  0 6  L 0 22  C 0.0012674655592954664 23.104044072055093  0.8959559279449083 23.998732534440702  2 24  L 3 24  L 3 28  L 5 28  L 5 24  L 6 24  C 7.104044072055091 23.998732534440702  7.998732534440704 23.10404407205509  8 22  L 8 6  Z " stroke-width="0" stroke-dasharray="0" stroke="rgba(255, 255, 255, 0)" fill="none" transform="matrix(1 0 0 1 6 2 )" class="stroke" mask="url(#Clip3670)" />
    <path d="M 6 6  L 6 22  L 2 22  L 2 6  L 6 6  Z " stroke-width="0" stroke-dasharray="0" stroke="rgba(255, 255, 255, 0)" fill="none" transform="matrix(1 0 0 1 6 2 )" class="stroke" mask="url(#Clip3670)" />
  </g>
</svg>