<?xml version="1.0" encoding="utf-8"?>
<svg version="1.1" xmlns:xlink="http://www.w3.org/1999/xlink" width="28px" height="13px" xmlns="http://www.w3.org/2000/svg">
  <defs>
    <pattern id="BGPattern" patternUnits="userSpaceOnUse" alignment="0 0" imageRepeat="None" />
    <mask fill="white" id="Clip4006">
      <path d="M 28 10.420700000000004  L 28 6.670000000000002  L 28 4.1036  C 28 1.9320000000000004  25.8285 0.7476000000000003  24.0518 0.7476000000000003  C 22.815762961847874 0.8442631447540075  21.641557658303824 1.3277306323693772  20.6958 2.129400000000002  C 19.872514443145725 1.2614701877280758  18.73338560303286 0.7631328764927314  17.5372 0.747600000000002  C 16.288820975964448 0.7899018781313192  15.09744513142152 1.2804391671627293  14.181199999999997 2.1294000000000004  C 13.502222465681541 1.1844258296775845  12.38037734667661 0.6609334666352336  11.22 0.7476000000000003  C 10.016258532884148 0.6545194561874883  8.870611812503364 1.2790934575800446  8.296700000000001 2.3413000000000004  L 5.6925 8.249199999999998  L 2.801 1.6219999999999999  C 2.4790993177606317 0.8864650977147033  1.624157435747581 0.5482924523017694  0.8862000000000001 0.8645999999999993  C 0.3488232272898846 1.0949633902697578  0.00041657491540547653 1.6233890476422772  0.00041657491540547653 2.2080608251593006  C 0.00041657491540547653 2.419123894800782  0.04612530421155636 2.6276835493497153  0.1344000000000003 2.8194  L 3.718400000000001 10.618099999999998  C 3.718400000000001 10.618099999999998  4.3107 12  5.495100000000001 12.000000000000004  C 6.24243281779855 12.110725148115279  6.9710210752607455 11.705935668213812  7.271799999999999 11.012899999999998  C 7.545299999999999 10.602899999999998  9.6177 6.2438999999999965  10.866199999999997 3.602899999999998  C 10.948342842061269 3.4292059745220667  11.12326245959034 3.318434555423609  11.315400589561023 3.318434555423609  C 11.589830881751944 3.318434555423609  11.812300589561023 3.5409042632326884  11.812300589561023 3.8153345554236093  L 11.8123 10.3671  C 11.80137584068331 11.212480999125415  12.444178568820004 11.92326618796119  13.286399999999999 11.9971  C 13.321384762974198 11.99943320668169  13.356437520142366 12.000600780506584  13.391500000000192 12.000600780506584  C 14.263778533882949 12.000600780506584  14.970900000000192 11.293479314389337  14.970900000000192 10.421200780506584  L 14.970899999999997 4.991899999999998  C 14.970899999999997 4.065166189783927  15.722166189783927 3.3138999999999967  16.648899999999998 3.3138999999999967  C 17.575633810216072 3.3138999999999967  18.3269 4.065166189783927  18.3269 4.991899999999998  L 18.326900000000002 10.420700000000004  C 18.326866666798583 10.42488889073216  18.326850000000004 10.42907789750905  18.326850000000004 10.433266920863993  C 18.326850000000004 11.305490226271765  19.033926694592232 12.012566920863993  19.906150000000004 12.012566920863993  C 20.778373305407776 12.012566920863993  21.485450000000004 11.305490226271765  21.485450000000004 10.433266920863993  C 21.485450000000004 10.42907789750905  21.48543333320142 10.42488889073216  21.485400000000002 10.4207  L 21.485400000000002 4.991899999999998  C 21.48540003905891 4.065166217402744  22.23666621740275 3.3139000707224078  23.1634 3.3139000707224078  C 24.090133810216074 3.3139000707224078  24.8414 4.065166260506338  24.8414 4.991900070722409  L 24.8414 10.420700000000004  C 24.8414 11.292923305407776  25.548476694592228 12.000000000000004  26.4207 12.000000000000004  C 27.292923305407772 12.000000000000004  28 11.292923305407776  28 10.420700000000004  Z " fill-rule="evenodd" />
    </mask>
  </defs>
  <g transform="matrix(1 0 0 1 -2 -10 )">
    <path d="M 28 10.420700000000004  L 28 6.670000000000002  L 28 4.1036  C 28 1.9320000000000004  25.8285 0.7476000000000003  24.0518 0.7476000000000003  C 22.815762961847874 0.8442631447540075  21.641557658303824 1.3277306323693772  20.6958 2.129400000000002  C 19.872514443145725 1.2614701877280758  18.73338560303286 0.7631328764927314  17.5372 0.747600000000002  C 16.288820975964448 0.7899018781313192  15.09744513142152 1.2804391671627293  14.181199999999997 2.1294000000000004  C 13.502222465681541 1.1844258296775845  12.38037734667661 0.6609334666352336  11.22 0.7476000000000003  C 10.016258532884148 0.6545194561874883  8.870611812503364 1.2790934575800446  8.296700000000001 2.3413000000000004  L 5.6925 8.249199999999998  L 2.801 1.6219999999999999  C 2.4790993177606317 0.8864650977147033  1.624157435747581 0.5482924523017694  0.8862000000000001 0.8645999999999993  C 0.3488232272898846 1.0949633902697578  0.00041657491540547653 1.6233890476422772  0.00041657491540547653 2.2080608251593006  C 0.00041657491540547653 2.419123894800782  0.04612530421155636 2.6276835493497153  0.1344000000000003 2.8194  L 3.718400000000001 10.618099999999998  C 3.718400000000001 10.618099999999998  4.3107 12  5.495100000000001 12.000000000000004  C 6.24243281779855 12.110725148115279  6.9710210752607455 11.705935668213812  7.271799999999999 11.012899999999998  C 7.545299999999999 10.602899999999998  9.6177 6.2438999999999965  10.866199999999997 3.602899999999998  C 10.948342842061269 3.4292059745220667  11.12326245959034 3.318434555423609  11.315400589561023 3.318434555423609  C 11.589830881751944 3.318434555423609  11.812300589561023 3.5409042632326884  11.812300589561023 3.8153345554236093  L 11.8123 10.3671  C 11.80137584068331 11.212480999125415  12.444178568820004 11.92326618796119  13.286399999999999 11.9971  C 13.321384762974198 11.99943320668169  13.356437520142366 12.000600780506584  13.391500000000192 12.000600780506584  C 14.263778533882949 12.000600780506584  14.970900000000192 11.293479314389337  14.970900000000192 10.421200780506584  L 14.970899999999997 4.991899999999998  C 14.970899999999997 4.065166189783927  15.722166189783927 3.3138999999999967  16.648899999999998 3.3138999999999967  C 17.575633810216072 3.3138999999999967  18.3269 4.065166189783927  18.3269 4.991899999999998  L 18.326900000000002 10.420700000000004  C 18.326866666798583 10.42488889073216  18.326850000000004 10.42907789750905  18.326850000000004 10.433266920863993  C 18.326850000000004 11.305490226271765  19.033926694592232 12.012566920863993  19.906150000000004 12.012566920863993  C 20.778373305407776 12.012566920863993  21.485450000000004 11.305490226271765  21.485450000000004 10.433266920863993  C 21.485450000000004 10.42907789750905  21.48543333320142 10.42488889073216  21.485400000000002 10.4207  L 21.485400000000002 4.991899999999998  C 21.48540003905891 4.065166217402744  22.23666621740275 3.3139000707224078  23.1634 3.3139000707224078  C 24.090133810216074 3.3139000707224078  24.8414 4.065166260506338  24.8414 4.991900070722409  L 24.8414 10.420700000000004  C 24.8414 11.292923305407776  25.548476694592228 12.000000000000004  26.4207 12.000000000000004  C 27.292923305407772 12.000000000000004  28 11.292923305407776  28 10.420700000000004  Z " fill-rule="nonzero" fill="rgba(0, 0, 0, 1)" stroke="none" transform="matrix(1 0 0 1 2 10 )" class="fill" />
    <path d="M 28 10.420700000000004  L 28 6.670000000000002  L 28 4.1036  C 28 1.9320000000000004  25.8285 0.7476000000000003  24.0518 0.7476000000000003  C 22.815762961847874 0.8442631447540075  21.641557658303824 1.3277306323693772  20.6958 2.129400000000002  C 19.872514443145725 1.2614701877280758  18.73338560303286 0.7631328764927314  17.5372 0.747600000000002  C 16.288820975964448 0.7899018781313192  15.09744513142152 1.2804391671627293  14.181199999999997 2.1294000000000004  C 13.502222465681541 1.1844258296775845  12.38037734667661 0.6609334666352336  11.22 0.7476000000000003  C 10.016258532884148 0.6545194561874883  8.870611812503364 1.2790934575800446  8.296700000000001 2.3413000000000004  L 5.6925 8.249199999999998  L 2.801 1.6219999999999999  C 2.4790993177606317 0.8864650977147033  1.624157435747581 0.5482924523017694  0.8862000000000001 0.8645999999999993  C 0.3488232272898846 1.0949633902697578  0.00041657491540547653 1.6233890476422772  0.00041657491540547653 2.2080608251593006  C 0.00041657491540547653 2.419123894800782  0.04612530421155636 2.6276835493497153  0.1344000000000003 2.8194  L 3.718400000000001 10.618099999999998  C 3.718400000000001 10.618099999999998  4.3107 12  5.495100000000001 12.000000000000004  C 6.24243281779855 12.110725148115279  6.9710210752607455 11.705935668213812  7.271799999999999 11.012899999999998  C 7.545299999999999 10.602899999999998  9.6177 6.2438999999999965  10.866199999999997 3.602899999999998  C 10.948342842061269 3.4292059745220667  11.12326245959034 3.318434555423609  11.315400589561023 3.318434555423609  C 11.589830881751944 3.318434555423609  11.812300589561023 3.5409042632326884  11.812300589561023 3.8153345554236093  L 11.8123 10.3671  C 11.80137584068331 11.212480999125415  12.444178568820004 11.92326618796119  13.286399999999999 11.9971  C 13.321384762974198 11.99943320668169  13.356437520142366 12.000600780506584  13.391500000000192 12.000600780506584  C 14.263778533882949 12.000600780506584  14.970900000000192 11.293479314389337  14.970900000000192 10.421200780506584  L 14.970899999999997 4.991899999999998  C 14.970899999999997 4.065166189783927  15.722166189783927 3.3138999999999967  16.648899999999998 3.3138999999999967  C 17.575633810216072 3.3138999999999967  18.3269 4.065166189783927  18.3269 4.991899999999998  L 18.326900000000002 10.420700000000004  C 18.326866666798583 10.42488889073216  18.326850000000004 10.42907789750905  18.326850000000004 10.433266920863993  C 18.326850000000004 11.305490226271765  19.033926694592232 12.012566920863993  19.906150000000004 12.012566920863993  C 20.778373305407776 12.012566920863993  21.485450000000004 11.305490226271765  21.485450000000004 10.433266920863993  C 21.485450000000004 10.42907789750905  21.48543333320142 10.42488889073216  21.485400000000002 10.4207  L 21.485400000000002 4.991899999999998  C 21.48540003905891 4.065166217402744  22.23666621740275 3.3139000707224078  23.1634 3.3139000707224078  C 24.090133810216074 3.3139000707224078  24.8414 4.065166260506338  24.8414 4.991900070722409  L 24.8414 10.420700000000004  C 24.8414 11.292923305407776  25.548476694592228 12.000000000000004  26.4207 12.000000000000004  C 27.292923305407772 12.000000000000004  28 11.292923305407776  28 10.420700000000004  Z " stroke-width="0" stroke-dasharray="0" stroke="rgba(255, 255, 255, 0)" fill="none" transform="matrix(1 0 0 1 2 10 )" class="stroke" mask="url(#Clip4006)" />
  </g>
</svg>