<?xml version="1.0" encoding="utf-8"?>
<svg version="1.1" xmlns:xlink="http://www.w3.org/1999/xlink" width="64px" height="51px" xmlns="http://www.w3.org/2000/svg">
  <defs>
    <pattern id="BGPattern" patternUnits="userSpaceOnUse" alignment="0 0" imageRepeat="None" />
    <mask fill="white" id="Clip1797">
      <path d="M 63.48552734375 49.339511693297446  C 64.04428188065108 48.31637347860574  63.999582230460796 47.0697499017197  63.368984375 46.089257788724154  L 34.681484375 1.464257811744639  C 34.09478515625 0.551835937215327  33.08474609375 0  32 0  C 30.91525390625 0  29.905214843750002 0.551835937215327  29.318515625000003 1.46425781174464  L 0.6310156250000002 46.089257788724154  C 0.00041125838451018526 47.070111988363635  -0.04428490030665194 48.317020209668684  0.5144726562500002 49.340507787046946  C 1.0734873398247013 50.363737053155624  2.146525932439254 51.00014940430324  3.3125000000000018 51  L 60.6875 51  C 61.853925781250005 50.99999997369087  62.92671875 50.36349606776922  63.48552734375 49.339511693297446  Z M 21.833867187500005 24.896367174656827  L 32 9.082382807814716  L 40.50564453125 22.312499988489755  L 32 22.312499988489755  L 25.625 28.687499985201114  L 21.833867187500005 24.896367174656827  Z " fill-rule="evenodd" />
    </mask>
  </defs>
  <g>
    <path d="M 63.48552734375 49.339511693297446  C 64.04428188065108 48.31637347860574  63.999582230460796 47.0697499017197  63.368984375 46.089257788724154  L 34.681484375 1.464257811744639  C 34.09478515625 0.551835937215327  33.08474609375 0  32 0  C 30.91525390625 0  29.905214843750002 0.551835937215327  29.318515625000003 1.46425781174464  L 0.6310156250000002 46.089257788724154  C 0.00041125838451018526 47.070111988363635  -0.04428490030665194 48.317020209668684  0.5144726562500002 49.340507787046946  C 1.0734873398247013 50.363737053155624  2.146525932439254 51.00014940430324  3.3125000000000018 51  L 60.6875 51  C 61.853925781250005 50.99999997369087  62.92671875 50.36349606776922  63.48552734375 49.339511693297446  Z M 21.833867187500005 24.896367174656827  L 32 9.082382807814716  L 40.50564453125 22.312499988489755  L 32 22.312499988489755  L 25.625 28.687499985201114  L 21.833867187500005 24.896367174656827  Z " fill-rule="nonzero" fill="rgba(0, 0, 0, 1)" stroke="none" class="fill" />
    <path d="M 63.48552734375 49.339511693297446  C 64.04428188065108 48.31637347860574  63.999582230460796 47.0697499017197  63.368984375 46.089257788724154  L 34.681484375 1.464257811744639  C 34.09478515625 0.551835937215327  33.08474609375 0  32 0  C 30.91525390625 0  29.905214843750002 0.551835937215327  29.318515625000003 1.46425781174464  L 0.6310156250000002 46.089257788724154  C 0.00041125838451018526 47.070111988363635  -0.04428490030665194 48.317020209668684  0.5144726562500002 49.340507787046946  C 1.0734873398247013 50.363737053155624  2.146525932439254 51.00014940430324  3.3125000000000018 51  L 60.6875 51  C 61.853925781250005 50.99999997369087  62.92671875 50.36349606776922  63.48552734375 49.339511693297446  Z " stroke-width="0" stroke-dasharray="0" stroke="rgba(255, 255, 255, 0)" fill="none" class="stroke" mask="url(#Clip1797)" />
    <path d="M 21.833867187500005 24.896367174656827  L 32 9.082382807814716  L 40.50564453125 22.312499988489755  L 32 22.312499988489755  L 25.625 28.687499985201114  L 21.833867187500005 24.896367174656827  Z " stroke-width="0" stroke-dasharray="0" stroke="rgba(255, 255, 255, 0)" fill="none" class="stroke" mask="url(#Clip1797)" />
  </g>
</svg>