<?xml version="1.0" encoding="utf-8"?>
<svg version="1.1" xmlns:xlink="http://www.w3.org/1999/xlink" width="2px" height="18px" xmlns="http://www.w3.org/2000/svg">
  <defs>
    <pattern id="BGPattern" patternUnits="userSpaceOnUse" alignment="0 0" imageRepeat="None" />
    <mask fill="white" id="Clip6288">
      <path d="M 0.25 0.75  C 0.25 0.3357864376269051  0.5857864376269051 0  1 0  C 1.414213562373095 0  1.75 0.3357864376269051  1.75 0.75  L 1.75 17.25  C 1.75 17.664213562373096  1.414213562373095 18  1 18  C 0.5857864376269051 18  0.25 17.664213562373096  0.25 17.25  L 0.25 0.75  Z " fill-rule="evenodd" />
    </mask>
  </defs>
  <g transform="matrix(1 0 0 1 -3 -1 )">
    <path d="M 0.25 0.75  C 0.25 0.3357864376269051  0.5857864376269051 0  1 0  C 1.414213562373095 0  1.75 0.3357864376269051  1.75 0.75  L 1.75 17.25  C 1.75 17.664213562373096  1.414213562373095 18  1 18  C 0.5857864376269051 18  0.25 17.664213562373096  0.25 17.25  L 0.25 0.75  Z " fill-rule="nonzero" fill="rgba(0, 0, 0, 1)" stroke="none" transform="matrix(1 0 0 1 3 1 )" class="fill" />
    <path d="M 0.25 0.75  C 0.25 0.3357864376269051  0.5857864376269051 0  1 0  C 1.414213562373095 0  1.75 0.3357864376269051  1.75 0.75  L 1.75 17.25  C 1.75 17.664213562373096  1.414213562373095 18  1 18  C 0.5857864376269051 18  0.25 17.664213562373096  0.25 17.25  L 0.25 0.75  Z " stroke-width="0" stroke-dasharray="0" stroke="rgba(255, 255, 255, 0)" fill="none" transform="matrix(1 0 0 1 3 1 )" class="stroke" mask="url(#Clip6288)" />
  </g>
</svg>