<?xml version="1.0" encoding="utf-8"?>
<svg version="1.1" xmlns:xlink="http://www.w3.org/1999/xlink" width="21px" height="24px" xmlns="http://www.w3.org/2000/svg">
  <defs>
    <pattern id="BGPattern" patternUnits="userSpaceOnUse" alignment="0 0" imageRepeat="None" />
    <mask fill="white" id="Clip5716">
      <path d="M 9.821999999999997 6.696000000000001  L 9.75 6.699  L 9.75 2.625  C 9.75 1.175252531694167  8.57474746830583 0  7.124999999999998 0  C 5.675252531694167 0  4.499999999999998 1.175252531694167  4.5 2.625  L 4.5 10.635  L 2.7014999999999993 10.995000000000001  C 1.5571903973750576 11.223631503638776  0.777582058836658 12.289161363161602  0.9060000000000001 13.448999999999998  L 1.4234999999999989 18.107999999999997  C 1.4900518788548966 18.703568604065566  1.6983698029134846 19.274514025559476  2.0310000000000006 19.772999999999996  L 4.1805 22.997999999999998  C 4.59775847357953 23.62394236429755  5.300231115750752 23.999945349049455  6.052499999999999 24  L 15.629999999999995 24  C 16.437297183554314 23.999739605924404  17.182580618122596 23.5669943858525  17.583 22.866  L 19.675499999999996 19.2045  C 20.041320406280086 18.564462789145267  20.268244929896678 17.85455701593932  20.3415 17.121000000000002  L 20.7495 13.048500000000002  C 20.759418711833696 12.94930913797441  20.76438731389642 12.849685543244142  20.76438731389642 12.749999997883641  C 20.76438731389642 11.093189754880893  19.421310241833947 9.750062233163554  17.764499999999998 9.750000000000004  L 16.8915 9.750000000000004  C 16.797796580629885 9.623061254973294  16.700251422556164 9.499003823166717  16.598999999999997 9.378000000000002  C 16.312499999999996 9.034500000000001  15.834 8.526000000000003  15.278999999999996 8.304000000000002  C 14.732999999999997 8.085000000000003  14.009999999999998 8.106000000000002  13.541999999999998 8.142000000000003  L 13.344000000000001 8.160000000000004  C 13.184302281273048 7.7512076752350225  12.887316873323016 7.410735118263737  12.503999999999998 7.197000000000001  C 12.1588887207174 6.9980157272098005  11.785668528073538 6.852368822763417  11.396999999999997 6.765000000000001  C 10.931999999999999 6.672000000000001  10.288499999999997 6.678000000000001  9.821999999999997 6.696000000000001  Z M 6 2.6249999999999996  C 6 2.003679656440357  6.503679656440358 1.5  7.125 1.5  C 7.746320343559641 1.500000000000002  8.249999999999996 2.0036796564403585  8.249999999999996 2.625  L 8.249999999999996 12  C 8.249999999999996 12.414213562373096  8.585786437626902 12.75  8.999999999999996 12.75  C 9.414213562373092 12.75  9.749999999999996 12.414213562373096  9.749999999999996 12  L 9.749999999999996 8.200499999999998  L 9.878999999999998 8.194499999999998  C 10.352999999999998 8.174999999999999  10.8345 8.1825  11.102999999999998 8.234999999999998  C 11.339144427736342 8.292649916591179  11.565554722281274 8.384629098750057  11.774999999999999 8.508  C 11.8905 8.571  12 8.7285  12 8.979  L 12 12  C 12 12.414213562373096  12.335786437626904 12.75  12.749999999999998 12.75  C 13.164213562373098 12.75  13.500000000000002 12.414213562373096  13.500000000000002 12  L 13.500000000000002 9.652500000000002  C 13.552943448162615 9.64691766594793  13.60594664900059 9.641917363982083  13.658999999999999 9.637500000000001  C 14.133000000000003 9.601500000000001  14.535 9.621  14.720999999999998 9.696000000000002  C 14.898 9.7665  15.169500000000003 10.008  15.450000000000003 10.341  C 15.555030834836671 10.467051480472387  15.655106850114906 10.597150300334093  15.75 10.731  L 15.75 12.75  C 15.75 13.164213562373096  16.085786437626904 13.5  16.5 13.5  C 16.914213562373096 13.5  17.25 13.164213562373096  17.25 12.75  L 17.25 11.25  L 17.764518844351965 11.24999999988163  C 18.592945969098153 11.24999999988163  19.264518844351965 11.92157287513544  19.264518844351965 12.74999999988163  C 19.264518844351965 12.80009418220223  19.262009418236012 12.850156917919275  19.256999999999998 12.899999999999999  L 18.848999999999997 16.972499999999997  C 18.79650534891711 17.495864271091143  18.634497225956263 18.002331305331513  18.3735 18.459  L 16.281 22.122  C 16.14752687270753 22.355664795284167  15.899099061184774 22.4999132019748  15.629999999999999 22.5  L 6.052499999999999 22.5  C 5.801648861190834 22.499870371314735  5.567471515962328 22.3743378040408  5.4285000000000005 22.165499999999998  L 3.279 18.9405  C 3.0794218817480914 18.641408415335682  2.9544311273129376 18.298841162439338  2.9144999999999994 17.941499999999998  L 2.3970000000000002 13.283999999999997  C 2.3536398553254188 12.897025807915714  2.613639877192127 12.54123630430864  2.9955 12.464999999999998  L 4.5 12.165  L 4.5 13.5  C 4.5 13.914213562373096  4.835786437626905 14.25  5.25 14.25  C 5.664213562373096 14.25  6 13.914213562373096  6 13.5  L 6 2.6249999999999996  Z " fill-rule="evenodd" />
    </mask>
  </defs>
  <g>
    <path d="M 9.821999999999997 6.696000000000001  L 9.75 6.699  L 9.75 2.625  C 9.75 1.175252531694167  8.57474746830583 0  7.124999999999998 0  C 5.675252531694167 0  4.499999999999998 1.175252531694167  4.5 2.625  L 4.5 10.635  L 2.7014999999999993 10.995000000000001  C 1.5571903973750576 11.223631503638776  0.777582058836658 12.289161363161602  0.9060000000000001 13.448999999999998  L 1.4234999999999989 18.107999999999997  C 1.4900518788548966 18.703568604065566  1.6983698029134846 19.274514025559476  2.0310000000000006 19.772999999999996  L 4.1805 22.997999999999998  C 4.59775847357953 23.62394236429755  5.300231115750752 23.999945349049455  6.052499999999999 24  L 15.629999999999995 24  C 16.437297183554314 23.999739605924404  17.182580618122596 23.5669943858525  17.583 22.866  L 19.675499999999996 19.2045  C 20.041320406280086 18.564462789145267  20.268244929896678 17.85455701593932  20.3415 17.121000000000002  L 20.7495 13.048500000000002  C 20.759418711833696 12.94930913797441  20.76438731389642 12.849685543244142  20.76438731389642 12.749999997883641  C 20.76438731389642 11.093189754880893  19.421310241833947 9.750062233163554  17.764499999999998 9.750000000000004  L 16.8915 9.750000000000004  C 16.797796580629885 9.623061254973294  16.700251422556164 9.499003823166717  16.598999999999997 9.378000000000002  C 16.312499999999996 9.034500000000001  15.834 8.526000000000003  15.278999999999996 8.304000000000002  C 14.732999999999997 8.085000000000003  14.009999999999998 8.106000000000002  13.541999999999998 8.142000000000003  L 13.344000000000001 8.160000000000004  C 13.184302281273048 7.7512076752350225  12.887316873323016 7.410735118263737  12.503999999999998 7.197000000000001  C 12.1588887207174 6.9980157272098005  11.785668528073538 6.852368822763417  11.396999999999997 6.765000000000001  C 10.931999999999999 6.672000000000001  10.288499999999997 6.678000000000001  9.821999999999997 6.696000000000001  Z M 6 2.6249999999999996  C 6 2.003679656440357  6.503679656440358 1.5  7.125 1.5  C 7.746320343559641 1.500000000000002  8.249999999999996 2.0036796564403585  8.249999999999996 2.625  L 8.249999999999996 12  C 8.249999999999996 12.414213562373096  8.585786437626902 12.75  8.999999999999996 12.75  C 9.414213562373092 12.75  9.749999999999996 12.414213562373096  9.749999999999996 12  L 9.749999999999996 8.200499999999998  L 9.878999999999998 8.194499999999998  C 10.352999999999998 8.174999999999999  10.8345 8.1825  11.102999999999998 8.234999999999998  C 11.339144427736342 8.292649916591179  11.565554722281274 8.384629098750057  11.774999999999999 8.508  C 11.8905 8.571  12 8.7285  12 8.979  L 12 12  C 12 12.414213562373096  12.335786437626904 12.75  12.749999999999998 12.75  C 13.164213562373098 12.75  13.500000000000002 12.414213562373096  13.500000000000002 12  L 13.500000000000002 9.652500000000002  C 13.552943448162615 9.64691766594793  13.60594664900059 9.641917363982083  13.658999999999999 9.637500000000001  C 14.133000000000003 9.601500000000001  14.535 9.621  14.720999999999998 9.696000000000002  C 14.898 9.7665  15.169500000000003 10.008  15.450000000000003 10.341  C 15.555030834836671 10.467051480472387  15.655106850114906 10.597150300334093  15.75 10.731  L 15.75 12.75  C 15.75 13.164213562373096  16.085786437626904 13.5  16.5 13.5  C 16.914213562373096 13.5  17.25 13.164213562373096  17.25 12.75  L 17.25 11.25  L 17.764518844351965 11.24999999988163  C 18.592945969098153 11.24999999988163  19.264518844351965 11.92157287513544  19.264518844351965 12.74999999988163  C 19.264518844351965 12.80009418220223  19.262009418236012 12.850156917919275  19.256999999999998 12.899999999999999  L 18.848999999999997 16.972499999999997  C 18.79650534891711 17.495864271091143  18.634497225956263 18.002331305331513  18.3735 18.459  L 16.281 22.122  C 16.14752687270753 22.355664795284167  15.899099061184774 22.4999132019748  15.629999999999999 22.5  L 6.052499999999999 22.5  C 5.801648861190834 22.499870371314735  5.567471515962328 22.3743378040408  5.4285000000000005 22.165499999999998  L 3.279 18.9405  C 3.0794218817480914 18.641408415335682  2.9544311273129376 18.298841162439338  2.9144999999999994 17.941499999999998  L 2.3970000000000002 13.283999999999997  C 2.3536398553254188 12.897025807915714  2.613639877192127 12.54123630430864  2.9955 12.464999999999998  L 4.5 12.165  L 4.5 13.5  C 4.5 13.914213562373096  4.835786437626905 14.25  5.25 14.25  C 5.664213562373096 14.25  6 13.914213562373096  6 13.5  L 6 2.6249999999999996  Z " fill-rule="nonzero" fill="rgba(0, 0, 0, 1)" stroke="none" class="fill" />
    <path d="M 9.821999999999997 6.696000000000001  L 9.75 6.699  L 9.75 2.625  C 9.75 1.175252531694167  8.57474746830583 0  7.124999999999998 0  C 5.675252531694167 0  4.499999999999998 1.175252531694167  4.5 2.625  L 4.5 10.635  L 2.7014999999999993 10.995000000000001  C 1.5571903973750576 11.223631503638776  0.777582058836658 12.289161363161602  0.9060000000000001 13.448999999999998  L 1.4234999999999989 18.107999999999997  C 1.4900518788548966 18.703568604065566  1.6983698029134846 19.274514025559476  2.0310000000000006 19.772999999999996  L 4.1805 22.997999999999998  C 4.59775847357953 23.62394236429755  5.300231115750752 23.999945349049455  6.052499999999999 24  L 15.629999999999995 24  C 16.437297183554314 23.999739605924404  17.182580618122596 23.5669943858525  17.583 22.866  L 19.675499999999996 19.2045  C 20.041320406280086 18.564462789145267  20.268244929896678 17.85455701593932  20.3415 17.121000000000002  L 20.7495 13.048500000000002  C 20.759418711833696 12.94930913797441  20.76438731389642 12.849685543244142  20.76438731389642 12.749999997883641  C 20.76438731389642 11.093189754880893  19.421310241833947 9.750062233163554  17.764499999999998 9.750000000000004  L 16.8915 9.750000000000004  C 16.797796580629885 9.623061254973294  16.700251422556164 9.499003823166717  16.598999999999997 9.378000000000002  C 16.312499999999996 9.034500000000001  15.834 8.526000000000003  15.278999999999996 8.304000000000002  C 14.732999999999997 8.085000000000003  14.009999999999998 8.106000000000002  13.541999999999998 8.142000000000003  L 13.344000000000001 8.160000000000004  C 13.184302281273048 7.7512076752350225  12.887316873323016 7.410735118263737  12.503999999999998 7.197000000000001  C 12.1588887207174 6.9980157272098005  11.785668528073538 6.852368822763417  11.396999999999997 6.765000000000001  C 10.931999999999999 6.672000000000001  10.288499999999997 6.678000000000001  9.821999999999997 6.696000000000001  Z " stroke-width="0" stroke-dasharray="0" stroke="rgba(255, 255, 255, 0)" fill="none" class="stroke" mask="url(#Clip5716)" />
    <path d="M 6 2.6249999999999996  C 6 2.003679656440357  6.503679656440358 1.5  7.125 1.5  C 7.746320343559641 1.500000000000002  8.249999999999996 2.0036796564403585  8.249999999999996 2.625  L 8.249999999999996 12  C 8.249999999999996 12.414213562373096  8.585786437626902 12.75  8.999999999999996 12.75  C 9.414213562373092 12.75  9.749999999999996 12.414213562373096  9.749999999999996 12  L 9.749999999999996 8.200499999999998  L 9.878999999999998 8.194499999999998  C 10.352999999999998 8.174999999999999  10.8345 8.1825  11.102999999999998 8.234999999999998  C 11.339144427736342 8.292649916591179  11.565554722281274 8.384629098750057  11.774999999999999 8.508  C 11.8905 8.571  12 8.7285  12 8.979  L 12 12  C 12 12.414213562373096  12.335786437626904 12.75  12.749999999999998 12.75  C 13.164213562373098 12.75  13.500000000000002 12.414213562373096  13.500000000000002 12  L 13.500000000000002 9.652500000000002  C 13.552943448162615 9.64691766594793  13.60594664900059 9.641917363982083  13.658999999999999 9.637500000000001  C 14.133000000000003 9.601500000000001  14.535 9.621  14.720999999999998 9.696000000000002  C 14.898 9.7665  15.169500000000003 10.008  15.450000000000003 10.341  C 15.555030834836671 10.467051480472387  15.655106850114906 10.597150300334093  15.75 10.731  L 15.75 12.75  C 15.75 13.164213562373096  16.085786437626904 13.5  16.5 13.5  C 16.914213562373096 13.5  17.25 13.164213562373096  17.25 12.75  L 17.25 11.25  L 17.764518844351965 11.24999999988163  C 18.592945969098153 11.24999999988163  19.264518844351965 11.92157287513544  19.264518844351965 12.74999999988163  C 19.264518844351965 12.80009418220223  19.262009418236012 12.850156917919275  19.256999999999998 12.899999999999999  L 18.848999999999997 16.972499999999997  C 18.79650534891711 17.495864271091143  18.634497225956263 18.002331305331513  18.3735 18.459  L 16.281 22.122  C 16.14752687270753 22.355664795284167  15.899099061184774 22.4999132019748  15.629999999999999 22.5  L 6.052499999999999 22.5  C 5.801648861190834 22.499870371314735  5.567471515962328 22.3743378040408  5.4285000000000005 22.165499999999998  L 3.279 18.9405  C 3.0794218817480914 18.641408415335682  2.9544311273129376 18.298841162439338  2.9144999999999994 17.941499999999998  L 2.3970000000000002 13.283999999999997  C 2.3536398553254188 12.897025807915714  2.613639877192127 12.54123630430864  2.9955 12.464999999999998  L 4.5 12.165  L 4.5 13.5  C 4.5 13.914213562373096  4.835786437626905 14.25  5.25 14.25  C 5.664213562373096 14.25  6 13.914213562373096  6 13.5  L 6 2.6249999999999996  Z " stroke-width="0" stroke-dasharray="0" stroke="rgba(255, 255, 255, 0)" fill="none" class="stroke" mask="url(#Clip5716)" />
  </g>
</svg>