<?xml version="1.0" encoding="utf-8"?>
<svg version="1.1" xmlns:xlink="http://www.w3.org/1999/xlink" width="26px" height="26px" xmlns="http://www.w3.org/2000/svg">
  <defs>
    <pattern id="BGPattern" patternUnits="userSpaceOnUse" alignment="0 0" imageRepeat="None" />
    <mask fill="white" id="Clip5676">
      <path d="M 14.504499999999997 2.519499999999999  L 14.398 2.0905  C 14.033499999999998 0.6355  11.968 0.6355  11.602 2.0905  L 11.4955 2.5195  C 11.335267162288769 3.160576854613833  10.759274224964491 3.6103233073527337  10.098476150056158 3.6103233073527337  C 9.707784348004113 3.6103233073527337  9.33386169057001 3.4515745756585963  9.062500000000002 3.1704999999999997  L 8.755 2.8539999999999996  C 7.7125 1.7754999999999996  5.923000000000002 2.8089999999999997  6.3355000000000015 4.2505  L 6.455500000000002 4.676499999999999  C 6.492250818716497 4.805140570793948  6.510895194995034 4.9382750851096695  6.510895194995034 5.072062300980715  C 6.510895194995034 5.867352340737058  5.866185234751376 6.512062300980714  5.070895194995034 6.512062300980714  C 4.937514488604441 6.512062300980714  4.804780533751497 6.4935310484065925  4.676500000000002 6.457  L 4.2505000000000015 6.3355  C 2.810500000000002 5.923  1.7755000000000016 7.7125  2.854000000000002 8.754999999999999  L 3.170500000000002 9.0625  C 3.451574575658598 9.33386169057001  3.6103233073527354 9.707784348004111  3.6103233073527354 10.098476150056158  C 3.6103233073527354 10.75927422496449  3.1605768546138346 11.335267162288769  2.5195000000000016 11.4955  L 2.090500000000002 11.602  C 0.6355000000000018 11.9665  0.6355000000000018 14.031999999999996  2.090500000000002 14.398  L 2.5195000000000016 14.5045  C 3.1605768546138346 14.664732837711233  3.6103233073527354 15.24072577503551  3.6103233073527354 15.90152384994384  C 3.6103233073527354 16.29221565199589  3.451574575658598 16.66613830942999  3.170500000000002 16.9375  L 2.854000000000002 17.245  C 1.7755000000000016 18.2875  2.8090000000000015 20.076999999999998  4.2505000000000015 19.6645  L 4.676500000000001 19.5445  C 4.8052843219537005 19.507661210566088  4.938578843135468 19.4889715469807  5.072528453019298 19.4889715469807  C 5.86781849277564 19.4889715469807  6.512528453019297 20.13368150722436  6.512528453019297 20.9289715469807  C 6.512528453019297 21.062921156864533  6.493838789433912 21.196215678046293  6.457000000000001 21.325  L 6.3355000000000015 21.749499999999998  C 5.923000000000002 23.1895  7.7125 24.2245  8.755 23.146  L 9.062500000000002 22.8295  C 9.33386169057001 22.548425424341403  9.707784348004113 22.389676692647264  10.098476150056158 22.389676692647264  C 10.759274224964491 22.389676692647264  11.335267162288769 22.839423145386164  11.495500000000002 23.4805  L 11.602 23.909499999999998  C 11.966500000000002 25.3645  14.032 25.3645  14.398 23.909499999999998  L 14.5045 23.4805  C 14.664732837711233 22.839423145386167  15.240725775035507 22.389676692647264  15.90152384994384 22.389676692647264  C 16.292215651995882 22.389676692647264  16.66613830942999 22.548425424341403  16.9375 22.8295  L 17.245 23.146  C 18.2875 24.2245  20.076999999999998 23.191  19.6645 21.749499999999998  L 19.5445 21.323499999999996  C 19.507661210566088 21.1947156780463  19.4889715469807 21.06142115686453  19.4889715469807 20.9274715469807  C 19.4889715469807 20.13218150722436  20.13368150722436 19.4874715469807  20.9289715469807 19.4874715469807  C 21.06292115686453 19.4874715469807  21.196215678046297 19.506161210566084  21.325 19.543  L 21.749499999999998 19.664499999999997  C 23.1895 20.076999999999998  24.2245 18.287499999999998  23.146 17.244999999999997  L 22.8295 16.937499999999993  C 22.548425424341403 16.666138309429986  22.389676692647264 16.292215651995885  22.389676692647264 15.90152384994384  C 22.389676692647264 15.240725775035507  22.839423145386164 14.664732837711226  23.4805 14.504499999999997  L 23.909499999999998 14.397999999999998  C 25.3645 14.033499999999997  25.3645 11.967999999999998  23.909499999999998 11.601999999999999  L 23.4805 11.495499999999996  C 22.839423145386164 11.335267162288767  22.389676692647264 10.75927422496449  22.389676692647264 10.098476150056156  C 22.389676692647264 9.707784348004111  22.548425424341403 9.333861690570009  22.8295 9.062499999999998  L 23.146 8.754999999999999  C 24.2245 7.712499999999999  23.191 5.922999999999998  21.749499999999998 6.335499999999999  L 21.323499999999996 6.455499999999998  C 21.194859429206044 6.492250818716494  21.061724914890323 6.5108951949950296  20.92793769901928 6.5108951949950296  C 20.13264765926294 6.5108951949950296  19.48793769901928 5.866185234751373  19.48793769901928 5.070895194995031  C 19.48793769901928 4.937514488604437  19.506468951593405 4.804780533751494  19.543 4.676499999999999  L 19.664499999999997 4.250499999999999  C 20.076999999999998 2.8104999999999993  18.287499999999998 1.7754999999999992  17.244999999999997 2.853999999999999  L 16.937499999999993 3.170499999999999  C 16.66613830942999 3.4515745756585936  16.292215651995885 3.6103233073527337  15.90152384994384 3.6103233073527337  C 15.24072577503551 3.6103233073527337  14.664732837711226 3.1605768546138324  14.504499999999997 2.519499999999999  Z M 13.106042149638837 20.49625  C 13.070693440313388 20.49625  13.035345173040003 20.49599999374734  13.000000111714007 20.497  C 8.859521342232547 20.497  5.503000111714005 17.140478769481458  5.503000111714005 13  C 5.503000111714005 8.859521230518542  8.859521342232547 5.503  13 5.503000000000001  C 13.035345173040003 5.502500006252658  13.070693440313388 5.50225  13.106042149638837 5.50225  C 17.246520919120297 5.50225  20.60304214963884 8.858771230518542  20.60304214963884 12.99925  C 20.60304214963884 17.139728769481458  17.246520919120297 20.49625  13.106042149638837 20.49625  Z " fill-rule="evenodd" />
    </mask>
  </defs>
  <g>
    <path d="M 14.504499999999997 2.519499999999999  L 14.398 2.0905  C 14.033499999999998 0.6355  11.968 0.6355  11.602 2.0905  L 11.4955 2.5195  C 11.335267162288769 3.160576854613833  10.759274224964491 3.6103233073527337  10.098476150056158 3.6103233073527337  C 9.707784348004113 3.6103233073527337  9.33386169057001 3.4515745756585963  9.062500000000002 3.1704999999999997  L 8.755 2.8539999999999996  C 7.7125 1.7754999999999996  5.923000000000002 2.8089999999999997  6.3355000000000015 4.2505  L 6.455500000000002 4.676499999999999  C 6.492250818716497 4.805140570793948  6.510895194995034 4.9382750851096695  6.510895194995034 5.072062300980715  C 6.510895194995034 5.867352340737058  5.866185234751376 6.512062300980714  5.070895194995034 6.512062300980714  C 4.937514488604441 6.512062300980714  4.804780533751497 6.4935310484065925  4.676500000000002 6.457  L 4.2505000000000015 6.3355  C 2.810500000000002 5.923  1.7755000000000016 7.7125  2.854000000000002 8.754999999999999  L 3.170500000000002 9.0625  C 3.451574575658598 9.33386169057001  3.6103233073527354 9.707784348004111  3.6103233073527354 10.098476150056158  C 3.6103233073527354 10.75927422496449  3.1605768546138346 11.335267162288769  2.5195000000000016 11.4955  L 2.090500000000002 11.602  C 0.6355000000000018 11.9665  0.6355000000000018 14.031999999999996  2.090500000000002 14.398  L 2.5195000000000016 14.5045  C 3.1605768546138346 14.664732837711233  3.6103233073527354 15.24072577503551  3.6103233073527354 15.90152384994384  C 3.6103233073527354 16.29221565199589  3.451574575658598 16.66613830942999  3.170500000000002 16.9375  L 2.854000000000002 17.245  C 1.7755000000000016 18.2875  2.8090000000000015 20.076999999999998  4.2505000000000015 19.6645  L 4.676500000000001 19.5445  C 4.8052843219537005 19.507661210566088  4.938578843135468 19.4889715469807  5.072528453019298 19.4889715469807  C 5.86781849277564 19.4889715469807  6.512528453019297 20.13368150722436  6.512528453019297 20.9289715469807  C 6.512528453019297 21.062921156864533  6.493838789433912 21.196215678046293  6.457000000000001 21.325  L 6.3355000000000015 21.749499999999998  C 5.923000000000002 23.1895  7.7125 24.2245  8.755 23.146  L 9.062500000000002 22.8295  C 9.33386169057001 22.548425424341403  9.707784348004113 22.389676692647264  10.098476150056158 22.389676692647264  C 10.759274224964491 22.389676692647264  11.335267162288769 22.839423145386164  11.495500000000002 23.4805  L 11.602 23.909499999999998  C 11.966500000000002 25.3645  14.032 25.3645  14.398 23.909499999999998  L 14.5045 23.4805  C 14.664732837711233 22.839423145386167  15.240725775035507 22.389676692647264  15.90152384994384 22.389676692647264  C 16.292215651995882 22.389676692647264  16.66613830942999 22.548425424341403  16.9375 22.8295  L 17.245 23.146  C 18.2875 24.2245  20.076999999999998 23.191  19.6645 21.749499999999998  L 19.5445 21.323499999999996  C 19.507661210566088 21.1947156780463  19.4889715469807 21.06142115686453  19.4889715469807 20.9274715469807  C 19.4889715469807 20.13218150722436  20.13368150722436 19.4874715469807  20.9289715469807 19.4874715469807  C 21.06292115686453 19.4874715469807  21.196215678046297 19.506161210566084  21.325 19.543  L 21.749499999999998 19.664499999999997  C 23.1895 20.076999999999998  24.2245 18.287499999999998  23.146 17.244999999999997  L 22.8295 16.937499999999993  C 22.548425424341403 16.666138309429986  22.389676692647264 16.292215651995885  22.389676692647264 15.90152384994384  C 22.389676692647264 15.240725775035507  22.839423145386164 14.664732837711226  23.4805 14.504499999999997  L 23.909499999999998 14.397999999999998  C 25.3645 14.033499999999997  25.3645 11.967999999999998  23.909499999999998 11.601999999999999  L 23.4805 11.495499999999996  C 22.839423145386164 11.335267162288767  22.389676692647264 10.75927422496449  22.389676692647264 10.098476150056156  C 22.389676692647264 9.707784348004111  22.548425424341403 9.333861690570009  22.8295 9.062499999999998  L 23.146 8.754999999999999  C 24.2245 7.712499999999999  23.191 5.922999999999998  21.749499999999998 6.335499999999999  L 21.323499999999996 6.455499999999998  C 21.194859429206044 6.492250818716494  21.061724914890323 6.5108951949950296  20.92793769901928 6.5108951949950296  C 20.13264765926294 6.5108951949950296  19.48793769901928 5.866185234751373  19.48793769901928 5.070895194995031  C 19.48793769901928 4.937514488604437  19.506468951593405 4.804780533751494  19.543 4.676499999999999  L 19.664499999999997 4.250499999999999  C 20.076999999999998 2.8104999999999993  18.287499999999998 1.7754999999999992  17.244999999999997 2.853999999999999  L 16.937499999999993 3.170499999999999  C 16.66613830942999 3.4515745756585936  16.292215651995885 3.6103233073527337  15.90152384994384 3.6103233073527337  C 15.24072577503551 3.6103233073527337  14.664732837711226 3.1605768546138324  14.504499999999997 2.519499999999999  Z M 13.106042149638837 20.49625  C 13.070693440313388 20.49625  13.035345173040003 20.49599999374734  13.000000111714007 20.497  C 8.859521342232547 20.497  5.503000111714005 17.140478769481458  5.503000111714005 13  C 5.503000111714005 8.859521230518542  8.859521342232547 5.503  13 5.503000000000001  C 13.035345173040003 5.502500006252658  13.070693440313388 5.50225  13.106042149638837 5.50225  C 17.246520919120297 5.50225  20.60304214963884 8.858771230518542  20.60304214963884 12.99925  C 20.60304214963884 17.139728769481458  17.246520919120297 20.49625  13.106042149638837 20.49625  Z " fill-rule="nonzero" fill="rgba(0, 0, 0, 1)" stroke="none" class="fill" />
    <path d="M 14.504499999999997 2.519499999999999  L 14.398 2.0905  C 14.033499999999998 0.6355  11.968 0.6355  11.602 2.0905  L 11.4955 2.5195  C 11.335267162288769 3.160576854613833  10.759274224964491 3.6103233073527337  10.098476150056158 3.6103233073527337  C 9.707784348004113 3.6103233073527337  9.33386169057001 3.4515745756585963  9.062500000000002 3.1704999999999997  L 8.755 2.8539999999999996  C 7.7125 1.7754999999999996  5.923000000000002 2.8089999999999997  6.3355000000000015 4.2505  L 6.455500000000002 4.676499999999999  C 6.492250818716497 4.805140570793948  6.510895194995034 4.9382750851096695  6.510895194995034 5.072062300980715  C 6.510895194995034 5.867352340737058  5.866185234751376 6.512062300980714  5.070895194995034 6.512062300980714  C 4.937514488604441 6.512062300980714  4.804780533751497 6.4935310484065925  4.676500000000002 6.457  L 4.2505000000000015 6.3355  C 2.810500000000002 5.923  1.7755000000000016 7.7125  2.854000000000002 8.754999999999999  L 3.170500000000002 9.0625  C 3.451574575658598 9.33386169057001  3.6103233073527354 9.707784348004111  3.6103233073527354 10.098476150056158  C 3.6103233073527354 10.75927422496449  3.1605768546138346 11.335267162288769  2.5195000000000016 11.4955  L 2.090500000000002 11.602  C 0.6355000000000018 11.9665  0.6355000000000018 14.031999999999996  2.090500000000002 14.398  L 2.5195000000000016 14.5045  C 3.1605768546138346 14.664732837711233  3.6103233073527354 15.24072577503551  3.6103233073527354 15.90152384994384  C 3.6103233073527354 16.29221565199589  3.451574575658598 16.66613830942999  3.170500000000002 16.9375  L 2.854000000000002 17.245  C 1.7755000000000016 18.2875  2.8090000000000015 20.076999999999998  4.2505000000000015 19.6645  L 4.676500000000001 19.5445  C 4.8052843219537005 19.507661210566088  4.938578843135468 19.4889715469807  5.072528453019298 19.4889715469807  C 5.86781849277564 19.4889715469807  6.512528453019297 20.13368150722436  6.512528453019297 20.9289715469807  C 6.512528453019297 21.062921156864533  6.493838789433912 21.196215678046293  6.457000000000001 21.325  L 6.3355000000000015 21.749499999999998  C 5.923000000000002 23.1895  7.7125 24.2245  8.755 23.146  L 9.062500000000002 22.8295  C 9.33386169057001 22.548425424341403  9.707784348004113 22.389676692647264  10.098476150056158 22.389676692647264  C 10.759274224964491 22.389676692647264  11.335267162288769 22.839423145386164  11.495500000000002 23.4805  L 11.602 23.909499999999998  C 11.966500000000002 25.3645  14.032 25.3645  14.398 23.909499999999998  L 14.5045 23.4805  C 14.664732837711233 22.839423145386167  15.240725775035507 22.389676692647264  15.90152384994384 22.389676692647264  C 16.292215651995882 22.389676692647264  16.66613830942999 22.548425424341403  16.9375 22.8295  L 17.245 23.146  C 18.2875 24.2245  20.076999999999998 23.191  19.6645 21.749499999999998  L 19.5445 21.323499999999996  C 19.507661210566088 21.1947156780463  19.4889715469807 21.06142115686453  19.4889715469807 20.9274715469807  C 19.4889715469807 20.13218150722436  20.13368150722436 19.4874715469807  20.9289715469807 19.4874715469807  C 21.06292115686453 19.4874715469807  21.196215678046297 19.506161210566084  21.325 19.543  L 21.749499999999998 19.664499999999997  C 23.1895 20.076999999999998  24.2245 18.287499999999998  23.146 17.244999999999997  L 22.8295 16.937499999999993  C 22.548425424341403 16.666138309429986  22.389676692647264 16.292215651995885  22.389676692647264 15.90152384994384  C 22.389676692647264 15.240725775035507  22.839423145386164 14.664732837711226  23.4805 14.504499999999997  L 23.909499999999998 14.397999999999998  C 25.3645 14.033499999999997  25.3645 11.967999999999998  23.909499999999998 11.601999999999999  L 23.4805 11.495499999999996  C 22.839423145386164 11.335267162288767  22.389676692647264 10.75927422496449  22.389676692647264 10.098476150056156  C 22.389676692647264 9.707784348004111  22.548425424341403 9.333861690570009  22.8295 9.062499999999998  L 23.146 8.754999999999999  C 24.2245 7.712499999999999  23.191 5.922999999999998  21.749499999999998 6.335499999999999  L 21.323499999999996 6.455499999999998  C 21.194859429206044 6.492250818716494  21.061724914890323 6.5108951949950296  20.92793769901928 6.5108951949950296  C 20.13264765926294 6.5108951949950296  19.48793769901928 5.866185234751373  19.48793769901928 5.070895194995031  C 19.48793769901928 4.937514488604437  19.506468951593405 4.804780533751494  19.543 4.676499999999999  L 19.664499999999997 4.250499999999999  C 20.076999999999998 2.8104999999999993  18.287499999999998 1.7754999999999992  17.244999999999997 2.853999999999999  L 16.937499999999993 3.170499999999999  C 16.66613830942999 3.4515745756585936  16.292215651995885 3.6103233073527337  15.90152384994384 3.6103233073527337  C 15.24072577503551 3.6103233073527337  14.664732837711226 3.1605768546138324  14.504499999999997 2.519499999999999  Z " stroke-width="0" stroke-dasharray="0" stroke="rgba(255, 255, 255, 0)" fill="none" class="stroke" mask="url(#Clip5676)" />
    <path d="M 13.106042149638837 20.49625  C 13.070693440313388 20.49625  13.035345173040003 20.49599999374734  13.000000111714007 20.497  C 8.859521342232547 20.497  5.503000111714005 17.140478769481458  5.503000111714005 13  C 5.503000111714005 8.859521230518542  8.859521342232547 5.503  13 5.503000000000001  C 13.035345173040003 5.502500006252658  13.070693440313388 5.50225  13.106042149638837 5.50225  C 17.246520919120297 5.50225  20.60304214963884 8.858771230518542  20.60304214963884 12.99925  C 20.60304214963884 17.139728769481458  17.246520919120297 20.49625  13.106042149638837 20.49625  Z " stroke-width="0" stroke-dasharray="0" stroke="rgba(255, 255, 255, 0)" fill="none" class="stroke" mask="url(#Clip5676)" />
  </g>
</svg>