<?xml version="1.0" encoding="utf-8"?>
<svg version="1.1" xmlns:xlink="http://www.w3.org/1999/xlink" width="20px" height="20px" xmlns="http://www.w3.org/2000/svg">
  <defs>
    <pattern id="BGPattern" patternUnits="userSpaceOnUse" alignment="0 0" imageRepeat="None" />
    <mask fill="white" id="Clip37">
      <path d="M 2.448000000000002 19.248000000000005  C 2.224000000000002 19.472000000000005  1.9040000000000017 19.600000000000005  1.5999999999999996 19.6  C 0.9279999999999999 19.6  0.39999999999999947 19.072000000000003  0.39999999999999947 18.400000000000002  C 0.39999999999999947 18.096000000000004  0.5119999999999996 17.792  0.7519999999999998 17.552000000000003  L 15.504000000000001 2.8000000000000025  L 6.400000000000002 2.8000000000000025  C 5.7280000000000015 2.8000000000000025  5.200000000000003 2.272000000000002  5.200000000000003 1.6000000000000023  C 5.200000000000003 0.9120000000000026  5.712000000000003 0.40000000000000213  6.400000000000002 0.40000000000000213  L 18.400000000000002 0.40000000000000213  C 19.072000000000003 0.40000000000000213  19.6 0.9280000000000026  19.6 1.6000000000000023  L 19.6 13.600000000000001  C 19.6 14.272000000000002  19.072000000000003 14.8  18.400000000000002 14.8  C 17.728 14.8  17.200000000000003 14.272000000000002  17.200000000000003 13.600000000000001  L 17.200000000000003 4.480000000000002  L 2.448000000000002 19.248000000000005  Z " fill-rule="evenodd" />
    </mask>
  </defs>
  <g>
    <path d="M 2.448000000000002 19.248000000000005  C 2.224000000000002 19.472000000000005  1.9040000000000017 19.600000000000005  1.5999999999999996 19.6  C 0.9279999999999999 19.6  0.39999999999999947 19.072000000000003  0.39999999999999947 18.400000000000002  C 0.39999999999999947 18.096000000000004  0.5119999999999996 17.792  0.7519999999999998 17.552000000000003  L 15.504000000000001 2.8000000000000025  L 6.400000000000002 2.8000000000000025  C 5.7280000000000015 2.8000000000000025  5.200000000000003 2.272000000000002  5.200000000000003 1.6000000000000023  C 5.200000000000003 0.9120000000000026  5.712000000000003 0.40000000000000213  6.400000000000002 0.40000000000000213  L 18.400000000000002 0.40000000000000213  C 19.072000000000003 0.40000000000000213  19.6 0.9280000000000026  19.6 1.6000000000000023  L 19.6 13.600000000000001  C 19.6 14.272000000000002  19.072000000000003 14.8  18.400000000000002 14.8  C 17.728 14.8  17.200000000000003 14.272000000000002  17.200000000000003 13.600000000000001  L 17.200000000000003 4.480000000000002  L 2.448000000000002 19.248000000000005  Z " fill-rule="nonzero" fill="rgba(0, 0, 0, 1)" stroke="none" class="fill" />
    <path d="M 2.448000000000002 19.248000000000005  C 2.224000000000002 19.472000000000005  1.9040000000000017 19.600000000000005  1.5999999999999996 19.6  C 0.9279999999999999 19.6  0.39999999999999947 19.072000000000003  0.39999999999999947 18.400000000000002  C 0.39999999999999947 18.096000000000004  0.5119999999999996 17.792  0.7519999999999998 17.552000000000003  L 15.504000000000001 2.8000000000000025  L 6.400000000000002 2.8000000000000025  C 5.7280000000000015 2.8000000000000025  5.200000000000003 2.272000000000002  5.200000000000003 1.6000000000000023  C 5.200000000000003 0.9120000000000026  5.712000000000003 0.40000000000000213  6.400000000000002 0.40000000000000213  L 18.400000000000002 0.40000000000000213  C 19.072000000000003 0.40000000000000213  19.6 0.9280000000000026  19.6 1.6000000000000023  L 19.6 13.600000000000001  C 19.6 14.272000000000002  19.072000000000003 14.8  18.400000000000002 14.8  C 17.728 14.8  17.200000000000003 14.272000000000002  17.200000000000003 13.600000000000001  L 17.200000000000003 4.480000000000002  L 2.448000000000002 19.248000000000005  Z " stroke-width="0" stroke-dasharray="0" stroke="rgba(255, 255, 255, 0)" fill="none" class="stroke" mask="url(#Clip37)" />
  </g>
</svg>