<?xml version="1.0" encoding="utf-8"?>
<svg version="1.1" xmlns:xlink="http://www.w3.org/1999/xlink" width="20px" height="28px" xmlns="http://www.w3.org/2000/svg">
  <defs>
    <pattern id="BGPattern" patternUnits="userSpaceOnUse" alignment="0 0" imageRepeat="None" />
    <mask fill="white" id="Clip3838">
      <path d="M 20 24  C 19.998181288863567 22.34389967031846  18.65610032968154 21.001818711136433  17 21  L 16.8685 21  L 17.832 19.5547  C 17.941485731982407 19.390417532932172  17.999937286758865 19.197423024393466  18 19  L 18 10.0005  C 18 0.11470000000000091  10.079999999999998 0.0005000000000006111  10 0.0005000000000006111  C 9.447910453404244 0.0004999309888025216  9.000276044773294 0.44791052241543733  9 1  L 8.9995 3  L 8 3  C 7.791586633422035 2.999822626922996  7.588372479732428 3.065054020491176  7.4190000000000005 3.1864999999999997  L 0.4190000000000005 8.186499999999999  C 0.06169286890525072 8.44162950861562  -0.08741235489973853 8.899977993108648  0.05140000000000011 9.316499999999998  L 1.051400000000001 12.316499999999998  C 1.2035716838323633 12.775414328895916  1.6629141285363227 13.05915310689516  2.141400000000001 12.989799999999997  L 7.011400000000002 12.293999999999997  L 3.1518999999999995 18.47  C 2.943513175501586 18.80338597463828  2.949813066251389 19.22794382951635  3.1679999999999993 19.555  L 4.131500000000001 21  L 3.9999999999999982 21  C 2.343899670318457 21.001818711136433  1.0018187111364334 22.34389967031846  1 24  L 1 28  L 20 28  L 20 24  Z M 5.1899999999999995 18.9824  L 9.848099999999999 11.53  C 9.947491408278083 11.371035451314292  10.000194160532637 11.187332157010124  10.000194160532637 10.999853145442557  C 10.000194160532637 10.447568395611764  9.55247891036343 9.999853145442557  9.000194160532637 9.999853145442557  C 8.952648448889452 9.999853145442557  8.90516327222231 10.003244032017134  8.858099999999999 10.01  L 2.6842999999999986 10.8919  L 2.181799999999999 9.3841  L 8.32 5.0005  L 9.999 5.0005  C 10.551089546595758 5.000500069011199  10.998723955226708 4.553089477584563  10.999000000000002 4.0009999999999994  L 11 2.1289  C 12.5013 2.4635999999999996  15.2167 3.67  15.86 8  L 13 8  L 13 10  L 16 10  L 16 12  L 13 12  L 13 14  L 16 14  L 16 16  L 13 16  L 13 18  L 16 18  L 16 18.6973  L 14.4648 21  L 6.534800000000001 21  L 5.1899999999999995 18.9824  Z M 18 23.999999999999996  L 18 26  L 3 26  L 3 24  C 3.000496201605973 23.447920914228455  3.447920914228458 23.000496201605973  4 23  L 17 23  C 17.552147590857572 23.000330990752104  17.999669009247892 23.447852409142424  18 23.999999999999996  Z " fill-rule="evenodd" />
    </mask>
  </defs>
  <g transform="matrix(1 0 0 1 -6 -2 )">
    <path d="M 20 24  C 19.998181288863567 22.34389967031846  18.65610032968154 21.001818711136433  17 21  L 16.8685 21  L 17.832 19.5547  C 17.941485731982407 19.390417532932172  17.999937286758865 19.197423024393466  18 19  L 18 10.0005  C 18 0.11470000000000091  10.079999999999998 0.0005000000000006111  10 0.0005000000000006111  C 9.447910453404244 0.0004999309888025216  9.000276044773294 0.44791052241543733  9 1  L 8.9995 3  L 8 3  C 7.791586633422035 2.999822626922996  7.588372479732428 3.065054020491176  7.4190000000000005 3.1864999999999997  L 0.4190000000000005 8.186499999999999  C 0.06169286890525072 8.44162950861562  -0.08741235489973853 8.899977993108648  0.05140000000000011 9.316499999999998  L 1.051400000000001 12.316499999999998  C 1.2035716838323633 12.775414328895916  1.6629141285363227 13.05915310689516  2.141400000000001 12.989799999999997  L 7.011400000000002 12.293999999999997  L 3.1518999999999995 18.47  C 2.943513175501586 18.80338597463828  2.949813066251389 19.22794382951635  3.1679999999999993 19.555  L 4.131500000000001 21  L 3.9999999999999982 21  C 2.343899670318457 21.001818711136433  1.0018187111364334 22.34389967031846  1 24  L 1 28  L 20 28  L 20 24  Z M 5.1899999999999995 18.9824  L 9.848099999999999 11.53  C 9.947491408278083 11.371035451314292  10.000194160532637 11.187332157010124  10.000194160532637 10.999853145442557  C 10.000194160532637 10.447568395611764  9.55247891036343 9.999853145442557  9.000194160532637 9.999853145442557  C 8.952648448889452 9.999853145442557  8.90516327222231 10.003244032017134  8.858099999999999 10.01  L 2.6842999999999986 10.8919  L 2.181799999999999 9.3841  L 8.32 5.0005  L 9.999 5.0005  C 10.551089546595758 5.000500069011199  10.998723955226708 4.553089477584563  10.999000000000002 4.0009999999999994  L 11 2.1289  C 12.5013 2.4635999999999996  15.2167 3.67  15.86 8  L 13 8  L 13 10  L 16 10  L 16 12  L 13 12  L 13 14  L 16 14  L 16 16  L 13 16  L 13 18  L 16 18  L 16 18.6973  L 14.4648 21  L 6.534800000000001 21  L 5.1899999999999995 18.9824  Z M 18 23.999999999999996  L 18 26  L 3 26  L 3 24  C 3.000496201605973 23.447920914228455  3.447920914228458 23.000496201605973  4 23  L 17 23  C 17.552147590857572 23.000330990752104  17.999669009247892 23.447852409142424  18 23.999999999999996  Z " fill-rule="nonzero" fill="rgba(0, 0, 0, 1)" stroke="none" transform="matrix(1 0 0 1 6 2 )" class="fill" />
    <path d="M 20 24  C 19.998181288863567 22.34389967031846  18.65610032968154 21.001818711136433  17 21  L 16.8685 21  L 17.832 19.5547  C 17.941485731982407 19.390417532932172  17.999937286758865 19.197423024393466  18 19  L 18 10.0005  C 18 0.11470000000000091  10.079999999999998 0.0005000000000006111  10 0.0005000000000006111  C 9.447910453404244 0.0004999309888025216  9.000276044773294 0.44791052241543733  9 1  L 8.9995 3  L 8 3  C 7.791586633422035 2.999822626922996  7.588372479732428 3.065054020491176  7.4190000000000005 3.1864999999999997  L 0.4190000000000005 8.186499999999999  C 0.06169286890525072 8.44162950861562  -0.08741235489973853 8.899977993108648  0.05140000000000011 9.316499999999998  L 1.051400000000001 12.316499999999998  C 1.2035716838323633 12.775414328895916  1.6629141285363227 13.05915310689516  2.141400000000001 12.989799999999997  L 7.011400000000002 12.293999999999997  L 3.1518999999999995 18.47  C 2.943513175501586 18.80338597463828  2.949813066251389 19.22794382951635  3.1679999999999993 19.555  L 4.131500000000001 21  L 3.9999999999999982 21  C 2.343899670318457 21.001818711136433  1.0018187111364334 22.34389967031846  1 24  L 1 28  L 20 28  L 20 24  Z " stroke-width="0" stroke-dasharray="0" stroke="rgba(255, 255, 255, 0)" fill="none" transform="matrix(1 0 0 1 6 2 )" class="stroke" mask="url(#Clip3838)" />
    <path d="M 5.1899999999999995 18.9824  L 9.848099999999999 11.53  C 9.947491408278083 11.371035451314292  10.000194160532637 11.187332157010124  10.000194160532637 10.999853145442557  C 10.000194160532637 10.447568395611764  9.55247891036343 9.999853145442557  9.000194160532637 9.999853145442557  C 8.952648448889452 9.999853145442557  8.90516327222231 10.003244032017134  8.858099999999999 10.01  L 2.6842999999999986 10.8919  L 2.181799999999999 9.3841  L 8.32 5.0005  L 9.999 5.0005  C 10.551089546595758 5.000500069011199  10.998723955226708 4.553089477584563  10.999000000000002 4.0009999999999994  L 11 2.1289  C 12.5013 2.4635999999999996  15.2167 3.67  15.86 8  L 13 8  L 13 10  L 16 10  L 16 12  L 13 12  L 13 14  L 16 14  L 16 16  L 13 16  L 13 18  L 16 18  L 16 18.6973  L 14.4648 21  L 6.534800000000001 21  L 5.1899999999999995 18.9824  Z " stroke-width="0" stroke-dasharray="0" stroke="rgba(255, 255, 255, 0)" fill="none" transform="matrix(1 0 0 1 6 2 )" class="stroke" mask="url(#Clip3838)" />
    <path d="M 18 23.999999999999996  L 18 26  L 3 26  L 3 24  C 3.000496201605973 23.447920914228455  3.447920914228458 23.000496201605973  4 23  L 17 23  C 17.552147590857572 23.000330990752104  17.999669009247892 23.447852409142424  18 23.999999999999996  Z " stroke-width="0" stroke-dasharray="0" stroke="rgba(255, 255, 255, 0)" fill="none" transform="matrix(1 0 0 1 6 2 )" class="stroke" mask="url(#Clip3838)" />
  </g>
</svg>