<?xml version="1.0" encoding="utf-8"?>
<svg version="1.1" xmlns:xlink="http://www.w3.org/1999/xlink" width="50px" height="50px" xmlns="http://www.w3.org/2000/svg">
  <defs>
    <pattern id="BGPattern" patternUnits="userSpaceOnUse" alignment="0 0" imageRepeat="None" />
    <mask fill="white" id="Clip1738">
      <path d="M 49.560428849902536 6.577972709551659  C 51.11890838206627 2.836257309941516  47.06627680311891 -1.216374269005854  43.32553606237818 0.3430799220273002  L 2.801169590643269 19.046783625730995  C -1.8742690058479636 21.229044834307985  -0.3157894736842195 28.086744639376203  4.67153996101365 28  L 22 28  L 22 45.23196881091616  C 21.8167641325536 50.21929824561403  28.674463937621823 51.77875243664716  30.856725146198837 47.10233918128654  L 49.560428849902536 6.577972709551659  Z " fill-rule="evenodd" />
    </mask>
  </defs>
  <g>
    <path d="M 49.560428849902536 6.577972709551659  C 51.11890838206627 2.836257309941516  47.06627680311891 -1.216374269005854  43.32553606237818 0.3430799220273002  L 2.801169590643269 19.046783625730995  C -1.8742690058479636 21.229044834307985  -0.3157894736842195 28.086744639376203  4.67153996101365 28  L 22 28  L 22 45.23196881091616  C 21.8167641325536 50.21929824561403  28.674463937621823 51.77875243664716  30.856725146198837 47.10233918128654  L 49.560428849902536 6.577972709551659  Z " fill-rule="nonzero" fill="rgba(0, 0, 0, 1)" stroke="none" class="fill" />
    <path d="M 49.560428849902536 6.577972709551659  C 51.11890838206627 2.836257309941516  47.06627680311891 -1.216374269005854  43.32553606237818 0.3430799220273002  L 2.801169590643269 19.046783625730995  C -1.8742690058479636 21.229044834307985  -0.3157894736842195 28.086744639376203  4.67153996101365 28  L 22 28  L 22 45.23196881091616  C 21.8167641325536 50.21929824561403  28.674463937621823 51.77875243664716  30.856725146198837 47.10233918128654  L 49.560428849902536 6.577972709551659  Z " stroke-width="0" stroke-dasharray="0" stroke="rgba(255, 255, 255, 0)" fill="none" class="stroke" mask="url(#Clip1738)" />
  </g>
</svg>