<?xml version="1.0" encoding="utf-8"?>
<svg version="1.1" xmlns:xlink="http://www.w3.org/1999/xlink" width="48px" height="48px" xmlns="http://www.w3.org/2000/svg">
  <defs>
    <pattern id="BGPattern" patternUnits="userSpaceOnUse" alignment="0 0" imageRepeat="None" />
    <mask fill="white" id="Clip7255">
      <path d="M 23.97 0.052  L 24.034 0  C 10.792 0  0.058 10.734  0.058 23.974  C 0.058 34.132  6.3740000000000006 42.808  15.294 46.298  C 15.084 44.4  14.896 41.492000000000004  15.376000000000001 39.42  C 15.814 37.546  18.188000000000002 27.506  18.188000000000002 27.506  C 18.188000000000002 27.506  17.470000000000002 26.066  17.470000000000002 23.944  C 17.470000000000002 20.618  19.404000000000003 18.122  21.806000000000004 18.122  C 23.854000000000006 18.122  24.842000000000006 19.66  24.842000000000006 21.498  C 24.842000000000006 23.556  23.536000000000005 26.632000000000005  22.858000000000004 29.482  C 22.288000000000004 31.867999999999995  24.058 33.812  26.40800000000001 33.812  C 30.66400000000001 33.812  33.944 29.321999999999996  33.944 22.837999999999997  C 33.944 17.115999999999996  29.818 13.099999999999998  23.928000000000004 13.099999999999998  C 17.108000000000004 13.099999999999998  13.110000000000007 18.223999999999997  13.110000000000007 23.497999999999998  C 13.110000000000007 25.564  13.898000000000003 27.784  14.888000000000005 28.979999999999997  C 15.086000000000006 29.219999999999995  15.112000000000005 29.429999999999996  15.058000000000003 29.669999999999995  C 14.878000000000005 30.419999999999995  14.472000000000005 32.068  14.390000000000006 32.396  C 14.284000000000006 32.846000000000004  14.046000000000006 32.938  13.588000000000006 32.726  C 10.598000000000006 31.345999999999997  8.722000000000007 26.97  8.722000000000007 23.433999999999997  C 8.722000000000007 15.881999999999998  14.218000000000007 8.929999999999998  24.562000000000005 8.929999999999998  C 32.87800000000001 8.929999999999998  39.346000000000004 14.863999999999997  39.346000000000004 22.775999999999996  C 39.346000000000004 31.045999999999992  34.132000000000005 37.699999999999996  26.880000000000003 37.699999999999996  C 24.452000000000005 37.699999999999996  22.172000000000004 36.44199999999999  21.364000000000004 34.94199999999999  L 19.866000000000003 40.63799999999999  C 19.328000000000003 42.727999999999994  17.858000000000004 45.34199999999999  16.870000000000005 46.92999999999999  C 19.116000000000003 47.61999999999999  21.482000000000006 47.99999999999999  23.970000000000006 47.99999999999999  C 37.184000000000005 47.99999999999999  47.940000000000005 37.269999999999996  47.940000000000005 24.025999999999996  C 47.94 10.78  37.184 0.052  23.97 0.052  Z " fill-rule="evenodd" />
    </mask>
  </defs>
  <g>
    <path d="M 23.97 0.052  L 24.034 0  C 10.792 0  0.058 10.734  0.058 23.974  C 0.058 34.132  6.3740000000000006 42.808  15.294 46.298  C 15.084 44.4  14.896 41.492000000000004  15.376000000000001 39.42  C 15.814 37.546  18.188000000000002 27.506  18.188000000000002 27.506  C 18.188000000000002 27.506  17.470000000000002 26.066  17.470000000000002 23.944  C 17.470000000000002 20.618  19.404000000000003 18.122  21.806000000000004 18.122  C 23.854000000000006 18.122  24.842000000000006 19.66  24.842000000000006 21.498  C 24.842000000000006 23.556  23.536000000000005 26.632000000000005  22.858000000000004 29.482  C 22.288000000000004 31.867999999999995  24.058 33.812  26.40800000000001 33.812  C 30.66400000000001 33.812  33.944 29.321999999999996  33.944 22.837999999999997  C 33.944 17.115999999999996  29.818 13.099999999999998  23.928000000000004 13.099999999999998  C 17.108000000000004 13.099999999999998  13.110000000000007 18.223999999999997  13.110000000000007 23.497999999999998  C 13.110000000000007 25.564  13.898000000000003 27.784  14.888000000000005 28.979999999999997  C 15.086000000000006 29.219999999999995  15.112000000000005 29.429999999999996  15.058000000000003 29.669999999999995  C 14.878000000000005 30.419999999999995  14.472000000000005 32.068  14.390000000000006 32.396  C 14.284000000000006 32.846000000000004  14.046000000000006 32.938  13.588000000000006 32.726  C 10.598000000000006 31.345999999999997  8.722000000000007 26.97  8.722000000000007 23.433999999999997  C 8.722000000000007 15.881999999999998  14.218000000000007 8.929999999999998  24.562000000000005 8.929999999999998  C 32.87800000000001 8.929999999999998  39.346000000000004 14.863999999999997  39.346000000000004 22.775999999999996  C 39.346000000000004 31.045999999999992  34.132000000000005 37.699999999999996  26.880000000000003 37.699999999999996  C 24.452000000000005 37.699999999999996  22.172000000000004 36.44199999999999  21.364000000000004 34.94199999999999  L 19.866000000000003 40.63799999999999  C 19.328000000000003 42.727999999999994  17.858000000000004 45.34199999999999  16.870000000000005 46.92999999999999  C 19.116000000000003 47.61999999999999  21.482000000000006 47.99999999999999  23.970000000000006 47.99999999999999  C 37.184000000000005 47.99999999999999  47.940000000000005 37.269999999999996  47.940000000000005 24.025999999999996  C 47.94 10.78  37.184 0.052  23.97 0.052  Z " fill-rule="nonzero" fill="rgba(189, 8, 28, 1)" stroke="none" class="fill" />
    <path d="M 23.97 0.052  L 24.034 0  C 10.792 0  0.058 10.734  0.058 23.974  C 0.058 34.132  6.3740000000000006 42.808  15.294 46.298  C 15.084 44.4  14.896 41.492000000000004  15.376000000000001 39.42  C 15.814 37.546  18.188000000000002 27.506  18.188000000000002 27.506  C 18.188000000000002 27.506  17.470000000000002 26.066  17.470000000000002 23.944  C 17.470000000000002 20.618  19.404000000000003 18.122  21.806000000000004 18.122  C 23.854000000000006 18.122  24.842000000000006 19.66  24.842000000000006 21.498  C 24.842000000000006 23.556  23.536000000000005 26.632000000000005  22.858000000000004 29.482  C 22.288000000000004 31.867999999999995  24.058 33.812  26.40800000000001 33.812  C 30.66400000000001 33.812  33.944 29.321999999999996  33.944 22.837999999999997  C 33.944 17.115999999999996  29.818 13.099999999999998  23.928000000000004 13.099999999999998  C 17.108000000000004 13.099999999999998  13.110000000000007 18.223999999999997  13.110000000000007 23.497999999999998  C 13.110000000000007 25.564  13.898000000000003 27.784  14.888000000000005 28.979999999999997  C 15.086000000000006 29.219999999999995  15.112000000000005 29.429999999999996  15.058000000000003 29.669999999999995  C 14.878000000000005 30.419999999999995  14.472000000000005 32.068  14.390000000000006 32.396  C 14.284000000000006 32.846000000000004  14.046000000000006 32.938  13.588000000000006 32.726  C 10.598000000000006 31.345999999999997  8.722000000000007 26.97  8.722000000000007 23.433999999999997  C 8.722000000000007 15.881999999999998  14.218000000000007 8.929999999999998  24.562000000000005 8.929999999999998  C 32.87800000000001 8.929999999999998  39.346000000000004 14.863999999999997  39.346000000000004 22.775999999999996  C 39.346000000000004 31.045999999999992  34.132000000000005 37.699999999999996  26.880000000000003 37.699999999999996  C 24.452000000000005 37.699999999999996  22.172000000000004 36.44199999999999  21.364000000000004 34.94199999999999  L 19.866000000000003 40.63799999999999  C 19.328000000000003 42.727999999999994  17.858000000000004 45.34199999999999  16.870000000000005 46.92999999999999  C 19.116000000000003 47.61999999999999  21.482000000000006 47.99999999999999  23.970000000000006 47.99999999999999  C 37.184000000000005 47.99999999999999  47.940000000000005 37.269999999999996  47.940000000000005 24.025999999999996  C 47.94 10.78  37.184 0.052  23.97 0.052  Z " stroke-width="0" stroke-dasharray="0" stroke="rgba(255, 255, 255, 0)" fill="none" class="stroke" mask="url(#Clip7255)" />
  </g>
</svg>