<?xml version="1.0" encoding="utf-8"?>
<svg version="1.1" xmlns:xlink="http://www.w3.org/1999/xlink" width="4px" height="17px" xmlns="http://www.w3.org/2000/svg">
  <defs>
    <pattern id="BGPattern" patternUnits="userSpaceOnUse" alignment="0 0" imageRepeat="None" />
    <mask fill="white" id="Clip4490">
      <path d="M 2 14  C 2.8000000000000007 14  3.5 14.7  3.5 15.5  C 3.5 16.3  2.8000000000000007 17  2 17  C 1.1999999999999993 17  0.5 16.3  0.5 15.5  C 0.5 14.7  1.1999999999999993 14  2 14  Z M 3.1000000000000014 11  L 3.1000000000000014 0  L 0.9000000000000021 0  L 0.9000000000000021 11  L 3.1000000000000014 11  Z " fill-rule="evenodd" />
    </mask>
  </defs>
  <g transform="matrix(1 0 0 1 -14 -8 )">
    <path d="M 2 14  C 2.8000000000000007 14  3.5 14.7  3.5 15.5  C 3.5 16.3  2.8000000000000007 17  2 17  C 1.1999999999999993 17  0.5 16.3  0.5 15.5  C 0.5 14.7  1.1999999999999993 14  2 14  Z M 3.1000000000000014 11  L 3.1000000000000014 0  L 0.9000000000000021 0  L 0.9000000000000021 11  L 3.1000000000000014 11  Z " fill-rule="nonzero" fill="rgba(255, 255, 255, 0)" stroke="none" transform="matrix(1 0 0 1 14 8 )" class="fill" />
    <path d="M 2 14  C 2.8000000000000007 14  3.5 14.7  3.5 15.5  C 3.5 16.3  2.8000000000000007 17  2 17  C 1.1999999999999993 17  0.5 16.3  0.5 15.5  C 0.5 14.7  1.1999999999999993 14  2 14  Z " stroke-width="0" stroke-dasharray="0" stroke="rgba(255, 255, 255, 0)" fill="none" transform="matrix(1 0 0 1 14 8 )" class="stroke" mask="url(#Clip4490)" />
    <path d="M 3.1000000000000014 11  L 3.1000000000000014 0  L 0.9000000000000021 0  L 0.9000000000000021 11  L 3.1000000000000014 11  Z " stroke-width="0" stroke-dasharray="0" stroke="rgba(255, 255, 255, 0)" fill="none" transform="matrix(1 0 0 1 14 8 )" class="stroke" mask="url(#Clip4490)" />
  </g>
</svg>