<?xml version="1.0" encoding="utf-8"?>
<svg version="1.1" xmlns:xlink="http://www.w3.org/1999/xlink" width="50px" height="50px" xmlns="http://www.w3.org/2000/svg">
  <defs>
    <pattern id="BGPattern" patternUnits="userSpaceOnUse" alignment="0 0" imageRepeat="None" />
    <mask fill="white" id="Clip1388">
      <path d="M 18.75 25  L 25 25  L 25 31.25  L 18.75 31.25  L 18.75 25  Z M 25 6.25  L 25 0  L 18.75 0  L 18.75 6.25  L 25 6.25  Z M 25 18.75  L 25 25  L 31.25 25  L 31.25 18.75  L 25 18.75  Z M 37.5 6.25  L 37.5 0  L 31.25 0  L 31.25 6.25  L 37.5 6.25  Z M 37.5 43.75  L 37.5 50  L 43.75 50  L 43.75 43.75  L 37.5 43.75  Z M 43.75 43.75  L 50 43.75  L 50 37.5  L 43.75 37.5  L 43.75 43.75  Z M 12.5 43.75  L 12.5 50  L 18.75 50  L 18.75 43.75  L 12.5 43.75  Z M 12.5 6.25  L 12.5 0  L 6.25 0  L 6.25 6.25  L 12.5 6.25  Z M 43.75 18.75  L 50 18.75  L 50 12.5  L 43.75 12.5  L 43.75 18.75  Z M 43.75 31.25  L 50 31.25  L 50 25  L 43.75 25  L 43.75 31.25  Z M 0 43.75  L 0 50  L 6.25 50  L 6.25 43.75  L 0 43.75  Z M 6.25 6.25  L 0 6.25  L 0 12.5  L 6.25 12.5  L 6.25 6.25  Z M 6.25 18.75  L 0 18.75  L 0 25  L 6.25 25  L 6.25 18.75  Z M 6.25 31.25  L 0 31.25  L 0 37.5  L 6.25 37.5  L 6.25 31.25  Z M 25 43.75  L 25 50  L 31.25 50  L 31.25 43.75  L 25 43.75  Z M 25 37.5  L 18.75 37.5  L 18.75 43.75  L 25 43.75  L 25 37.5  Z M 18.75 18.75  L 25 18.75  L 25 12.5  L 18.75 12.5  L 18.75 18.75  Z M 12.5 37.5  L 6.25 37.5  L 6.25 43.75  L 12.5 43.75  L 12.5 37.5  Z M 12.5 31.25  L 12.5 25  L 6.25 25  L 6.25 31.25  L 12.5 31.25  Z M 37.5 31.25  L 37.5 37.5  L 43.75 37.5  L 43.75 31.25  L 37.5 31.25  Z M 50 6.25  L 50 0  L 43.75 0  L 43.75 6.25  L 50 6.25  Z M 37.5 18.75  L 37.5 25  L 43.75 25  L 43.75 18.75  L 37.5 18.75  Z M 43.75 6.25  L 37.5 6.25  L 37.5 12.5  L 43.75 12.5  L 43.75 6.25  Z M 37.5 37.5  L 31.25 37.5  L 31.25 43.75  L 37.5 43.75  L 37.5 37.5  Z M 18.75 31.25  L 12.5 31.25  L 12.5 37.5  L 18.75 37.5  L 18.75 31.25  Z M 31.25 31.25  L 25 31.25  L 25 37.5  L 31.25 37.5  L 31.25 31.25  Z M 18.75 25  L 18.75 18.75  L 12.5 18.75  L 12.5 25  L 18.75 25  Z M 12.5 18.75  L 12.5 12.5  L 6.25 12.5  L 6.25 18.75  L 12.5 18.75  Z M 31.25 25  L 31.25 31.25  L 37.5 31.25  L 37.5 25  L 31.25 25  Z M 12.5 12.5  L 18.75 12.5  L 18.75 6.25  L 12.5 6.25  L 12.5 12.5  Z M 25 12.5  L 31.25 12.5  L 31.25 6.25  L 25 6.25  L 25 12.5  Z M 31.25 12.5  L 31.25 18.75  L 37.5 18.75  L 37.5 12.5  L 31.25 12.5  Z " fill-rule="evenodd" />
    </mask>
  </defs>
  <g>
    <path d="M 18.75 25  L 25 25  L 25 31.25  L 18.75 31.25  L 18.75 25  Z M 25 6.25  L 25 0  L 18.75 0  L 18.75 6.25  L 25 6.25  Z M 25 18.75  L 25 25  L 31.25 25  L 31.25 18.75  L 25 18.75  Z M 37.5 6.25  L 37.5 0  L 31.25 0  L 31.25 6.25  L 37.5 6.25  Z M 37.5 43.75  L 37.5 50  L 43.75 50  L 43.75 43.75  L 37.5 43.75  Z M 43.75 43.75  L 50 43.75  L 50 37.5  L 43.75 37.5  L 43.75 43.75  Z M 12.5 43.75  L 12.5 50  L 18.75 50  L 18.75 43.75  L 12.5 43.75  Z M 12.5 6.25  L 12.5 0  L 6.25 0  L 6.25 6.25  L 12.5 6.25  Z M 43.75 18.75  L 50 18.75  L 50 12.5  L 43.75 12.5  L 43.75 18.75  Z M 43.75 31.25  L 50 31.25  L 50 25  L 43.75 25  L 43.75 31.25  Z M 0 43.75  L 0 50  L 6.25 50  L 6.25 43.75  L 0 43.75  Z M 6.25 6.25  L 0 6.25  L 0 12.5  L 6.25 12.5  L 6.25 6.25  Z M 6.25 18.75  L 0 18.75  L 0 25  L 6.25 25  L 6.25 18.75  Z M 6.25 31.25  L 0 31.25  L 0 37.5  L 6.25 37.5  L 6.25 31.25  Z M 25 43.75  L 25 50  L 31.25 50  L 31.25 43.75  L 25 43.75  Z M 25 37.5  L 18.75 37.5  L 18.75 43.75  L 25 43.75  L 25 37.5  Z M 18.75 18.75  L 25 18.75  L 25 12.5  L 18.75 12.5  L 18.75 18.75  Z M 12.5 37.5  L 6.25 37.5  L 6.25 43.75  L 12.5 43.75  L 12.5 37.5  Z M 12.5 31.25  L 12.5 25  L 6.25 25  L 6.25 31.25  L 12.5 31.25  Z M 37.5 31.25  L 37.5 37.5  L 43.75 37.5  L 43.75 31.25  L 37.5 31.25  Z M 50 6.25  L 50 0  L 43.75 0  L 43.75 6.25  L 50 6.25  Z M 37.5 18.75  L 37.5 25  L 43.75 25  L 43.75 18.75  L 37.5 18.75  Z M 43.75 6.25  L 37.5 6.25  L 37.5 12.5  L 43.75 12.5  L 43.75 6.25  Z M 37.5 37.5  L 31.25 37.5  L 31.25 43.75  L 37.5 43.75  L 37.5 37.5  Z M 18.75 31.25  L 12.5 31.25  L 12.5 37.5  L 18.75 37.5  L 18.75 31.25  Z M 31.25 31.25  L 25 31.25  L 25 37.5  L 31.25 37.5  L 31.25 31.25  Z M 18.75 25  L 18.75 18.75  L 12.5 18.75  L 12.5 25  L 18.75 25  Z M 12.5 18.75  L 12.5 12.5  L 6.25 12.5  L 6.25 18.75  L 12.5 18.75  Z M 31.25 25  L 31.25 31.25  L 37.5 31.25  L 37.5 25  L 31.25 25  Z M 12.5 12.5  L 18.75 12.5  L 18.75 6.25  L 12.5 6.25  L 12.5 12.5  Z M 25 12.5  L 31.25 12.5  L 31.25 6.25  L 25 6.25  L 25 12.5  Z M 31.25 12.5  L 31.25 18.75  L 37.5 18.75  L 37.5 12.5  L 31.25 12.5  Z " fill-rule="nonzero" fill="rgba(0, 0, 0, 1)" stroke="none" class="fill" />
    <path d="M 18.75 25  L 25 25  L 25 31.25  L 18.75 31.25  L 18.75 25  Z " stroke-width="0" stroke-dasharray="0" stroke="rgba(255, 255, 255, 0)" fill="none" class="stroke" mask="url(#Clip1388)" />
    <path d="M 25 6.25  L 25 0  L 18.75 0  L 18.75 6.25  L 25 6.25  Z " stroke-width="0" stroke-dasharray="0" stroke="rgba(255, 255, 255, 0)" fill="none" class="stroke" mask="url(#Clip1388)" />
    <path d="M 25 18.75  L 25 25  L 31.25 25  L 31.25 18.75  L 25 18.75  Z " stroke-width="0" stroke-dasharray="0" stroke="rgba(255, 255, 255, 0)" fill="none" class="stroke" mask="url(#Clip1388)" />
    <path d="M 37.5 6.25  L 37.5 0  L 31.25 0  L 31.25 6.25  L 37.5 6.25  Z " stroke-width="0" stroke-dasharray="0" stroke="rgba(255, 255, 255, 0)" fill="none" class="stroke" mask="url(#Clip1388)" />
    <path d="M 37.5 43.75  L 37.5 50  L 43.75 50  L 43.75 43.75  L 37.5 43.75  Z " stroke-width="0" stroke-dasharray="0" stroke="rgba(255, 255, 255, 0)" fill="none" class="stroke" mask="url(#Clip1388)" />
    <path d="M 43.75 43.75  L 50 43.75  L 50 37.5  L 43.75 37.5  L 43.75 43.75  Z " stroke-width="0" stroke-dasharray="0" stroke="rgba(255, 255, 255, 0)" fill="none" class="stroke" mask="url(#Clip1388)" />
    <path d="M 12.5 43.75  L 12.5 50  L 18.75 50  L 18.75 43.75  L 12.5 43.75  Z " stroke-width="0" stroke-dasharray="0" stroke="rgba(255, 255, 255, 0)" fill="none" class="stroke" mask="url(#Clip1388)" />
    <path d="M 12.5 6.25  L 12.5 0  L 6.25 0  L 6.25 6.25  L 12.5 6.25  Z " stroke-width="0" stroke-dasharray="0" stroke="rgba(255, 255, 255, 0)" fill="none" class="stroke" mask="url(#Clip1388)" />
    <path d="M 43.75 18.75  L 50 18.75  L 50 12.5  L 43.75 12.5  L 43.75 18.75  Z " stroke-width="0" stroke-dasharray="0" stroke="rgba(255, 255, 255, 0)" fill="none" class="stroke" mask="url(#Clip1388)" />
    <path d="M 43.75 31.25  L 50 31.25  L 50 25  L 43.75 25  L 43.75 31.25  Z " stroke-width="0" stroke-dasharray="0" stroke="rgba(255, 255, 255, 0)" fill="none" class="stroke" mask="url(#Clip1388)" />
    <path d="M 0 43.75  L 0 50  L 6.25 50  L 6.25 43.75  L 0 43.75  Z " stroke-width="0" stroke-dasharray="0" stroke="rgba(255, 255, 255, 0)" fill="none" class="stroke" mask="url(#Clip1388)" />
    <path d="M 6.25 6.25  L 0 6.25  L 0 12.5  L 6.25 12.5  L 6.25 6.25  Z " stroke-width="0" stroke-dasharray="0" stroke="rgba(255, 255, 255, 0)" fill="none" class="stroke" mask="url(#Clip1388)" />
    <path d="M 6.25 18.75  L 0 18.75  L 0 25  L 6.25 25  L 6.25 18.75  Z " stroke-width="0" stroke-dasharray="0" stroke="rgba(255, 255, 255, 0)" fill="none" class="stroke" mask="url(#Clip1388)" />
    <path d="M 6.25 31.25  L 0 31.25  L 0 37.5  L 6.25 37.5  L 6.25 31.25  Z " stroke-width="0" stroke-dasharray="0" stroke="rgba(255, 255, 255, 0)" fill="none" class="stroke" mask="url(#Clip1388)" />
    <path d="M 25 43.75  L 25 50  L 31.25 50  L 31.25 43.75  L 25 43.75  Z " stroke-width="0" stroke-dasharray="0" stroke="rgba(255, 255, 255, 0)" fill="none" class="stroke" mask="url(#Clip1388)" />
    <path d="M 25 37.5  L 18.75 37.5  L 18.75 43.75  L 25 43.75  L 25 37.5  Z " stroke-width="0" stroke-dasharray="0" stroke="rgba(255, 255, 255, 0)" fill="none" class="stroke" mask="url(#Clip1388)" />
    <path d="M 18.75 18.75  L 25 18.75  L 25 12.5  L 18.75 12.5  L 18.75 18.75  Z " stroke-width="0" stroke-dasharray="0" stroke="rgba(255, 255, 255, 0)" fill="none" class="stroke" mask="url(#Clip1388)" />
    <path d="M 12.5 37.5  L 6.25 37.5  L 6.25 43.75  L 12.5 43.75  L 12.5 37.5  Z " stroke-width="0" stroke-dasharray="0" stroke="rgba(255, 255, 255, 0)" fill="none" class="stroke" mask="url(#Clip1388)" />
    <path d="M 12.5 31.25  L 12.5 25  L 6.25 25  L 6.25 31.25  L 12.5 31.25  Z " stroke-width="0" stroke-dasharray="0" stroke="rgba(255, 255, 255, 0)" fill="none" class="stroke" mask="url(#Clip1388)" />
    <path d="M 37.5 31.25  L 37.5 37.5  L 43.75 37.5  L 43.75 31.25  L 37.5 31.25  Z " stroke-width="0" stroke-dasharray="0" stroke="rgba(255, 255, 255, 0)" fill="none" class="stroke" mask="url(#Clip1388)" />
    <path d="M 50 6.25  L 50 0  L 43.75 0  L 43.75 6.25  L 50 6.25  Z " stroke-width="0" stroke-dasharray="0" stroke="rgba(255, 255, 255, 0)" fill="none" class="stroke" mask="url(#Clip1388)" />
    <path d="M 37.5 18.75  L 37.5 25  L 43.75 25  L 43.75 18.75  L 37.5 18.75  Z " stroke-width="0" stroke-dasharray="0" stroke="rgba(255, 255, 255, 0)" fill="none" class="stroke" mask="url(#Clip1388)" />
    <path d="M 43.75 6.25  L 37.5 6.25  L 37.5 12.5  L 43.75 12.5  L 43.75 6.25  Z " stroke-width="0" stroke-dasharray="0" stroke="rgba(255, 255, 255, 0)" fill="none" class="stroke" mask="url(#Clip1388)" />
    <path d="M 37.5 37.5  L 31.25 37.5  L 31.25 43.75  L 37.5 43.75  L 37.5 37.5  Z " stroke-width="0" stroke-dasharray="0" stroke="rgba(255, 255, 255, 0)" fill="none" class="stroke" mask="url(#Clip1388)" />
    <path d="M 18.75 31.25  L 12.5 31.25  L 12.5 37.5  L 18.75 37.5  L 18.75 31.25  Z " stroke-width="0" stroke-dasharray="0" stroke="rgba(255, 255, 255, 0)" fill="none" class="stroke" mask="url(#Clip1388)" />
    <path d="M 31.25 31.25  L 25 31.25  L 25 37.5  L 31.25 37.5  L 31.25 31.25  Z " stroke-width="0" stroke-dasharray="0" stroke="rgba(255, 255, 255, 0)" fill="none" class="stroke" mask="url(#Clip1388)" />
    <path d="M 18.75 25  L 18.75 18.75  L 12.5 18.75  L 12.5 25  L 18.75 25  Z " stroke-width="0" stroke-dasharray="0" stroke="rgba(255, 255, 255, 0)" fill="none" class="stroke" mask="url(#Clip1388)" />
    <path d="M 12.5 18.75  L 12.5 12.5  L 6.25 12.5  L 6.25 18.75  L 12.5 18.75  Z " stroke-width="0" stroke-dasharray="0" stroke="rgba(255, 255, 255, 0)" fill="none" class="stroke" mask="url(#Clip1388)" />
    <path d="M 31.25 25  L 31.25 31.25  L 37.5 31.25  L 37.5 25  L 31.25 25  Z " stroke-width="0" stroke-dasharray="0" stroke="rgba(255, 255, 255, 0)" fill="none" class="stroke" mask="url(#Clip1388)" />
    <path d="M 12.5 12.5  L 18.75 12.5  L 18.75 6.25  L 12.5 6.25  L 12.5 12.5  Z " stroke-width="0" stroke-dasharray="0" stroke="rgba(255, 255, 255, 0)" fill="none" class="stroke" mask="url(#Clip1388)" />
    <path d="M 25 12.5  L 31.25 12.5  L 31.25 6.25  L 25 6.25  L 25 12.5  Z " stroke-width="0" stroke-dasharray="0" stroke="rgba(255, 255, 255, 0)" fill="none" class="stroke" mask="url(#Clip1388)" />
    <path d="M 31.25 12.5  L 31.25 18.75  L 37.5 18.75  L 37.5 12.5  L 31.25 12.5  Z " stroke-width="0" stroke-dasharray="0" stroke="rgba(255, 255, 255, 0)" fill="none" class="stroke" mask="url(#Clip1388)" />
  </g>
</svg>