<?xml version="1.0" encoding="utf-8"?>
<svg version="1.1" xmlns:xlink="http://www.w3.org/1999/xlink" width="48px" height="48px" xmlns="http://www.w3.org/2000/svg">
  <defs>
    <pattern id="BGPattern" patternUnits="userSpaceOnUse" alignment="0 0" imageRepeat="None" />
    <mask fill="white" id="Clip7599">
      <path d="M 36.562 0  L 11.442 0  C 4.5 0  0 4.500000000000002  0 11.438000000000002  L 0 36.56  C 0 43.5  4.5 48  11.442 48  L 36.562 48  C 43.5 48  48 43.5  48 36.562  L 48 11.440000000000001  C 48 4.500000000000002  43.5 0  36.562 0  Z M 15.374000000000002 8.152000000000005  L 15.37 8.156000000000002  C 14.828 9.616000000000001  14.370000000000001 11.024000000000003  14.01 12.376000000000005  L 23.183999999999997 12.376000000000005  C 24.274 12.364000000000003  24.073999999999998 14.712000000000003  24.073999999999998 14.718000000000004  L 18.768 14.718000000000004  C 18.776000000000003 17.251333333333335  18.701333333333334 19.78266666666667  18.544 22.312000000000005  L 23.968 22.312000000000005  C 24.744 22.358000000000004  24.753999999999998 24.812000000000005  24.753999999999998 24.844  L 18.366 24.844  C 18.257834884022806 26.27091241374744  17.983993263926955 27.68039134071138  17.55 29.044000000000004  L 19.064 27.836000000000006  C 19.964 28.748000000000005  22.088 31.260000000000005  22.876 32.190000000000005  C 23.822000000000003 33.55200000000001  23.002000000000002 36.352000000000004  23.002000000000002 36.352000000000004  L 17.414 29.588000000000008  C 16.108 34.624  13.724000000000002 36.80200000000001  13.724 36.802  C 12.23437160568217 37.979441569299496  10.267337496766817 38.36390732695113  8.444000000000003 37.834  C 12.648966024239186 34.763709885269414  15.322645034581093 30.026624384808166  15.778000000000002 24.840000000000003  L 8.978000000000002 24.840000000000003  C 8.978000000000002 24.810000000000002  9.372000000000002 22.354000000000006  10.590000000000002 22.308000000000007  L 16.01 22.308000000000007  C 16.058 21.668000000000006  16.182000000000002 15.800000000000004  16.182000000000002 14.714000000000006  L 13.2 14.714000000000006  C 12.927999999999999 15.526000000000003  12.883999999999999 15.608000000000004  12.663999999999998 16.220000000000006  C 11.908915404297302 17.62778377553257  10.447409680570104 18.512964221733363  8.85 18.53  C 10.095472086445154 15.8966992101962  11.158639737573036 13.180977441381792  12.032 10.402000000000005  C 12.605861498135294 9.059435634948683  13.91417542315616 8.178613872142897  15.374000000000002 8.152000000000005  Z M 26 34.66  L 26 12  L 39 12  L 39 34.66  L 33.764 34.66  L 29.4 37.406  L 28.6 34.66  L 26 34.66  Z M 36 14.436  L 28 14.438000000000002  L 28 32.158  L 30.028 32.158  L 30.554000000000002 34.032000000000004  L 33.464 32.156000000000006  L 36 32.156000000000006  L 36 14.436  Z " fill-rule="evenodd" />
    </mask>
  </defs>
  <g>
    <path d="M 36.562 0  L 11.442 0  C 4.5 0  0 4.500000000000002  0 11.438000000000002  L 0 36.56  C 0 43.5  4.5 48  11.442 48  L 36.562 48  C 43.5 48  48 43.5  48 36.562  L 48 11.440000000000001  C 48 4.500000000000002  43.5 0  36.562 0  Z M 15.374000000000002 8.152000000000005  L 15.37 8.156000000000002  C 14.828 9.616000000000001  14.370000000000001 11.024000000000003  14.01 12.376000000000005  L 23.183999999999997 12.376000000000005  C 24.274 12.364000000000003  24.073999999999998 14.712000000000003  24.073999999999998 14.718000000000004  L 18.768 14.718000000000004  C 18.776000000000003 17.251333333333335  18.701333333333334 19.78266666666667  18.544 22.312000000000005  L 23.968 22.312000000000005  C 24.744 22.358000000000004  24.753999999999998 24.812000000000005  24.753999999999998 24.844  L 18.366 24.844  C 18.257834884022806 26.27091241374744  17.983993263926955 27.68039134071138  17.55 29.044000000000004  L 19.064 27.836000000000006  C 19.964 28.748000000000005  22.088 31.260000000000005  22.876 32.190000000000005  C 23.822000000000003 33.55200000000001  23.002000000000002 36.352000000000004  23.002000000000002 36.352000000000004  L 17.414 29.588000000000008  C 16.108 34.624  13.724000000000002 36.80200000000001  13.724 36.802  C 12.23437160568217 37.979441569299496  10.267337496766817 38.36390732695113  8.444000000000003 37.834  C 12.648966024239186 34.763709885269414  15.322645034581093 30.026624384808166  15.778000000000002 24.840000000000003  L 8.978000000000002 24.840000000000003  C 8.978000000000002 24.810000000000002  9.372000000000002 22.354000000000006  10.590000000000002 22.308000000000007  L 16.01 22.308000000000007  C 16.058 21.668000000000006  16.182000000000002 15.800000000000004  16.182000000000002 14.714000000000006  L 13.2 14.714000000000006  C 12.927999999999999 15.526000000000003  12.883999999999999 15.608000000000004  12.663999999999998 16.220000000000006  C 11.908915404297302 17.62778377553257  10.447409680570104 18.512964221733363  8.85 18.53  C 10.095472086445154 15.8966992101962  11.158639737573036 13.180977441381792  12.032 10.402000000000005  C 12.605861498135294 9.059435634948683  13.91417542315616 8.178613872142897  15.374000000000002 8.152000000000005  Z M 26 34.66  L 26 12  L 39 12  L 39 34.66  L 33.764 34.66  L 29.4 37.406  L 28.6 34.66  L 26 34.66  Z M 36 14.436  L 28 14.438000000000002  L 28 32.158  L 30.028 32.158  L 30.554000000000002 34.032000000000004  L 33.464 32.156000000000006  L 36 32.156000000000006  L 36 14.436  Z " fill-rule="nonzero" fill="rgba(0, 132, 255, 1)" stroke="none" class="fill" />
    <path d="M 36.562 0  L 11.442 0  C 4.5 0  0 4.500000000000002  0 11.438000000000002  L 0 36.56  C 0 43.5  4.5 48  11.442 48  L 36.562 48  C 43.5 48  48 43.5  48 36.562  L 48 11.440000000000001  C 48 4.500000000000002  43.5 0  36.562 0  Z " stroke-width="0" stroke-dasharray="0" stroke="rgba(255, 255, 255, 0)" fill="none" class="stroke" mask="url(#Clip7599)" />
    <path d="M 15.374000000000002 8.152000000000005  L 15.37 8.156000000000002  C 14.828 9.616000000000001  14.370000000000001 11.024000000000003  14.01 12.376000000000005  L 23.183999999999997 12.376000000000005  C 24.274 12.364000000000003  24.073999999999998 14.712000000000003  24.073999999999998 14.718000000000004  L 18.768 14.718000000000004  C 18.776000000000003 17.251333333333335  18.701333333333334 19.78266666666667  18.544 22.312000000000005  L 23.968 22.312000000000005  C 24.744 22.358000000000004  24.753999999999998 24.812000000000005  24.753999999999998 24.844  L 18.366 24.844  C 18.257834884022806 26.27091241374744  17.983993263926955 27.68039134071138  17.55 29.044000000000004  L 19.064 27.836000000000006  C 19.964 28.748000000000005  22.088 31.260000000000005  22.876 32.190000000000005  C 23.822000000000003 33.55200000000001  23.002000000000002 36.352000000000004  23.002000000000002 36.352000000000004  L 17.414 29.588000000000008  C 16.108 34.624  13.724000000000002 36.80200000000001  13.724 36.802  C 12.23437160568217 37.979441569299496  10.267337496766817 38.36390732695113  8.444000000000003 37.834  C 12.648966024239186 34.763709885269414  15.322645034581093 30.026624384808166  15.778000000000002 24.840000000000003  L 8.978000000000002 24.840000000000003  C 8.978000000000002 24.810000000000002  9.372000000000002 22.354000000000006  10.590000000000002 22.308000000000007  L 16.01 22.308000000000007  C 16.058 21.668000000000006  16.182000000000002 15.800000000000004  16.182000000000002 14.714000000000006  L 13.2 14.714000000000006  C 12.927999999999999 15.526000000000003  12.883999999999999 15.608000000000004  12.663999999999998 16.220000000000006  C 11.908915404297302 17.62778377553257  10.447409680570104 18.512964221733363  8.85 18.53  C 10.095472086445154 15.8966992101962  11.158639737573036 13.180977441381792  12.032 10.402000000000005  C 12.605861498135294 9.059435634948683  13.91417542315616 8.178613872142897  15.374000000000002 8.152000000000005  Z " stroke-width="0" stroke-dasharray="0" stroke="rgba(255, 255, 255, 0)" fill="none" class="stroke" mask="url(#Clip7599)" />
    <path d="M 26 34.66  L 26 12  L 39 12  L 39 34.66  L 33.764 34.66  L 29.4 37.406  L 28.6 34.66  L 26 34.66  Z " stroke-width="0" stroke-dasharray="0" stroke="rgba(255, 255, 255, 0)" fill="none" class="stroke" mask="url(#Clip7599)" />
    <path d="M 36 14.436  L 28 14.438000000000002  L 28 32.158  L 30.028 32.158  L 30.554000000000002 34.032000000000004  L 33.464 32.156000000000006  L 36 32.156000000000006  L 36 14.436  Z " stroke-width="0" stroke-dasharray="0" stroke="rgba(255, 255, 255, 0)" fill="none" class="stroke" mask="url(#Clip7599)" />
  </g>
</svg>