<?xml version="1.0" encoding="utf-8"?>
<svg version="1.1" xmlns:xlink="http://www.w3.org/1999/xlink" width="26px" height="21px" xmlns="http://www.w3.org/2000/svg">
  <defs>
    <pattern id="BGPattern" patternUnits="userSpaceOnUse" alignment="0 0" imageRepeat="None" />
    <mask fill="white" id="Clip2579">
      <path d="M 13.031250000000002 0.8125  C 7.350000000000001 0.8125  3.0812500000000007 3.8187500000000014  0.3187500000000014 9.643749999999997  C -0.018749999999997158 10.368749999999999  -0.018749999999997158 11.199999999999996  0.3187500000000014 11.918749999999996  C 3.0812500000000007 17.75  7.350000000000001 20.75  13.031250000000002 20.75  C 18.7125 20.75  22.981250000000003 17.74375  25.74375 11.918750000000003  C 26.081249999999997 11.200000000000003  26.081249999999997 10.368750000000006  25.75 9.650000000000006  L 25.74375 9.643750000000004  L 25.737499999999997 9.637500000000003  C 22.981250000000003 3.8125  18.7125 0.8125  13.031250000000002 0.8125  Z M 4.212499999999999 10.781249999999998  C 6.318749999999998 6.6875  9.149999999999999 4.8125  13.031250000000002 4.8125  C 16.9125 4.8125  19.74375 6.6875  21.85 10.781249999999998  C 19.75 14.875  16.9125 16.75  13.031250000000002 16.75  C 9.149999999999999 16.75  6.318750000000001 14.875  4.212499999999999 10.781249999999998  Z " fill-rule="evenodd" />
    </mask>
  </defs>
  <g transform="matrix(1 0 0 1 -12 -14 )">
    <path d="M 13.031250000000002 0.8125  C 7.350000000000001 0.8125  3.0812500000000007 3.8187500000000014  0.3187500000000014 9.643749999999997  C -0.018749999999997158 10.368749999999999  -0.018749999999997158 11.199999999999996  0.3187500000000014 11.918749999999996  C 3.0812500000000007 17.75  7.350000000000001 20.75  13.031250000000002 20.75  C 18.7125 20.75  22.981250000000003 17.74375  25.74375 11.918750000000003  C 26.081249999999997 11.200000000000003  26.081249999999997 10.368750000000006  25.75 9.650000000000006  L 25.74375 9.643750000000004  L 25.737499999999997 9.637500000000003  C 22.981250000000003 3.8125  18.7125 0.8125  13.031250000000002 0.8125  Z M 4.212499999999999 10.781249999999998  C 6.318749999999998 6.6875  9.149999999999999 4.8125  13.031250000000002 4.8125  C 16.9125 4.8125  19.74375 6.6875  21.85 10.781249999999998  C 19.75 14.875  16.9125 16.75  13.031250000000002 16.75  C 9.149999999999999 16.75  6.318750000000001 14.875  4.212499999999999 10.781249999999998  Z " fill-rule="nonzero" fill="rgba(0, 0, 0, 1)" stroke="none" transform="matrix(1 0 0 1 12 14 )" class="fill" />
    <path d="M 13.031250000000002 0.8125  C 7.350000000000001 0.8125  3.0812500000000007 3.8187500000000014  0.3187500000000014 9.643749999999997  C -0.018749999999997158 10.368749999999999  -0.018749999999997158 11.199999999999996  0.3187500000000014 11.918749999999996  C 3.0812500000000007 17.75  7.350000000000001 20.75  13.031250000000002 20.75  C 18.7125 20.75  22.981250000000003 17.74375  25.74375 11.918750000000003  C 26.081249999999997 11.200000000000003  26.081249999999997 10.368750000000006  25.75 9.650000000000006  L 25.74375 9.643750000000004  L 25.737499999999997 9.637500000000003  C 22.981250000000003 3.8125  18.7125 0.8125  13.031250000000002 0.8125  Z " stroke-width="0" stroke-dasharray="0" stroke="rgba(255, 255, 255, 0)" fill="none" transform="matrix(1 0 0 1 12 14 )" class="stroke" mask="url(#Clip2579)" />
    <path d="M 4.212499999999999 10.781249999999998  C 6.318749999999998 6.6875  9.149999999999999 4.8125  13.031250000000002 4.8125  C 16.9125 4.8125  19.74375 6.6875  21.85 10.781249999999998  C 19.75 14.875  16.9125 16.75  13.031250000000002 16.75  C 9.149999999999999 16.75  6.318750000000001 14.875  4.212499999999999 10.781249999999998  Z " stroke-width="0" stroke-dasharray="0" stroke="rgba(255, 255, 255, 0)" fill="none" transform="matrix(1 0 0 1 12 14 )" class="stroke" mask="url(#Clip2579)" />
  </g>
</svg>