<?xml version="1.0" encoding="utf-8"?>
<svg version="1.1" xmlns:xlink="http://www.w3.org/1999/xlink" width="8px" height="8px" xmlns="http://www.w3.org/2000/svg">
  <defs>
    <pattern id="BGPattern" patternUnits="userSpaceOnUse" alignment="0 0" imageRepeat="None" />
    <mask fill="white" id="Clip2580">
      <path d="M 0.5624999999999964 3.812499999999993  C 0.5624999999999964 5.745496624407771  2.129503375592222 7.312499999999993  4.0625 7.312499999999993  C 5.995496624407771 7.312499999999993  7.5625 5.745496624407771  7.5625 3.812499999999993  C 7.5625 1.879503375592222  5.995496624407771 0.3124999999999929  4.0625 0.3124999999999929  C 2.129503375592222 0.3124999999999929  0.5624999999999964 1.879503375592222  0.5624999999999964 3.812499999999993  Z " fill-rule="evenodd" />
    </mask>
  </defs>
  <g transform="matrix(1 0 0 1 -21 -21 )">
    <path d="M 0.5624999999999964 3.812499999999993  C 0.5624999999999964 5.745496624407771  2.129503375592222 7.312499999999993  4.0625 7.312499999999993  C 5.995496624407771 7.312499999999993  7.5625 5.745496624407771  7.5625 3.812499999999993  C 7.5625 1.879503375592222  5.995496624407771 0.3124999999999929  4.0625 0.3124999999999929  C 2.129503375592222 0.3124999999999929  0.5624999999999964 1.879503375592222  0.5624999999999964 3.812499999999993  Z " fill-rule="nonzero" fill="rgba(0, 0, 0, 1)" stroke="none" transform="matrix(1 0 0 1 21 21 )" class="fill" />
    <path d="M 0.5624999999999964 3.812499999999993  C 0.5624999999999964 5.745496624407771  2.129503375592222 7.312499999999993  4.0625 7.312499999999993  C 5.995496624407771 7.312499999999993  7.5625 5.745496624407771  7.5625 3.812499999999993  C 7.5625 1.879503375592222  5.995496624407771 0.3124999999999929  4.0625 0.3124999999999929  C 2.129503375592222 0.3124999999999929  0.5624999999999964 1.879503375592222  0.5624999999999964 3.812499999999993  Z " stroke-width="0" stroke-dasharray="0" stroke="rgba(255, 255, 255, 0)" fill="none" transform="matrix(1 0 0 1 21 21 )" class="stroke" mask="url(#Clip2580)" />
  </g>
</svg>