<?xml version="1.0" encoding="utf-8"?>
<svg version="1.1" xmlns:xlink="http://www.w3.org/1999/xlink" width="35px" height="34px" xmlns="http://www.w3.org/2000/svg">
  <defs>
    <pattern id="BGPattern" patternUnits="userSpaceOnUse" alignment="0 0" imageRepeat="None" />
    <mask fill="white" id="Clip2731">
      <path d="M 15.587499999999999 12.124999999999996  C 17.9 10.837499999999995  20.393749999999997 10.024999999999995  23.03125 9.7  C 23.84375 9.6  24.65 9.549999999999999  25.456249999999997 9.54375  L 25.456249999999997 13.537499999999998  C 25.456249999999997 13.943749999999998  25.924999999999997 14.16875  26.24375 13.91875  L 34.25 7.6  C 34.5 7.4  34.5 7.025  34.25 6.831249999999999  L 26.25 0.5187499999999989  C 25.93125 0.26874999999999893  25.4625 0.4937499999999986  25.4625 0.8999999999999986  L 25.449999999999996 4.899999999999999  C 18.037499999999994 4.931249999999999  10.712499999999995 8.237499999999999  5.787499999999994 14.537499999999998  C 1.4374999999999947 20.112499999999997  -0.19375000000000586 26.949999999999996  0.7187499999999947 33.4375  L 5.399999999999995 33.4375  C 5.343749999999995 33.10625  5.293749999999996 32.76875  5.249999999999995 32.43125  C 4.931249999999996 29.799999999999997  5.118749999999995 27.174999999999997  5.806249999999995 24.631249999999998  C 6.518749999999995 21.99375  7.743749999999995 19.5625  9.437499999999996 17.393749999999997  C 11.137499999999996 15.224999999999998  13.206249999999997 13.443749999999998  15.587499999999999 12.124999999999996  Z " fill-rule="evenodd" />
    </mask>
  </defs>
  <g>
    <path d="M 15.587499999999999 12.124999999999996  C 17.9 10.837499999999995  20.393749999999997 10.024999999999995  23.03125 9.7  C 23.84375 9.6  24.65 9.549999999999999  25.456249999999997 9.54375  L 25.456249999999997 13.537499999999998  C 25.456249999999997 13.943749999999998  25.924999999999997 14.16875  26.24375 13.91875  L 34.25 7.6  C 34.5 7.4  34.5 7.025  34.25 6.831249999999999  L 26.25 0.5187499999999989  C 25.93125 0.26874999999999893  25.4625 0.4937499999999986  25.4625 0.8999999999999986  L 25.449999999999996 4.899999999999999  C 18.037499999999994 4.931249999999999  10.712499999999995 8.237499999999999  5.787499999999994 14.537499999999998  C 1.4374999999999947 20.112499999999997  -0.19375000000000586 26.949999999999996  0.7187499999999947 33.4375  L 5.399999999999995 33.4375  C 5.343749999999995 33.10625  5.293749999999996 32.76875  5.249999999999995 32.43125  C 4.931249999999996 29.799999999999997  5.118749999999995 27.174999999999997  5.806249999999995 24.631249999999998  C 6.518749999999995 21.99375  7.743749999999995 19.5625  9.437499999999996 17.393749999999997  C 11.137499999999996 15.224999999999998  13.206249999999997 13.443749999999998  15.587499999999999 12.124999999999996  Z " fill-rule="nonzero" fill="rgba(0, 0, 0, 1)" stroke="none" class="fill" />
    <path d="M 15.587499999999999 12.124999999999996  C 17.9 10.837499999999995  20.393749999999997 10.024999999999995  23.03125 9.7  C 23.84375 9.6  24.65 9.549999999999999  25.456249999999997 9.54375  L 25.456249999999997 13.537499999999998  C 25.456249999999997 13.943749999999998  25.924999999999997 14.16875  26.24375 13.91875  L 34.25 7.6  C 34.5 7.4  34.5 7.025  34.25 6.831249999999999  L 26.25 0.5187499999999989  C 25.93125 0.26874999999999893  25.4625 0.4937499999999986  25.4625 0.8999999999999986  L 25.449999999999996 4.899999999999999  C 18.037499999999994 4.931249999999999  10.712499999999995 8.237499999999999  5.787499999999994 14.537499999999998  C 1.4374999999999947 20.112499999999997  -0.19375000000000586 26.949999999999996  0.7187499999999947 33.4375  L 5.399999999999995 33.4375  C 5.343749999999995 33.10625  5.293749999999996 32.76875  5.249999999999995 32.43125  C 4.931249999999996 29.799999999999997  5.118749999999995 27.174999999999997  5.806249999999995 24.631249999999998  C 6.518749999999995 21.99375  7.743749999999995 19.5625  9.437499999999996 17.393749999999997  C 11.137499999999996 15.224999999999998  13.206249999999997 13.443749999999998  15.587499999999999 12.124999999999996  Z " stroke-width="0" stroke-dasharray="0" stroke="rgba(255, 255, 255, 0)" fill="none" class="stroke" mask="url(#Clip2731)" />
  </g>
</svg>