<?xml version="1.0" encoding="utf-8"?>
<svg version="1.1" xmlns:xlink="http://www.w3.org/1999/xlink" width="25px" height="24px" xmlns="http://www.w3.org/2000/svg">
  <defs>
    <pattern id="BGPattern" patternUnits="userSpaceOnUse" alignment="0 0" imageRepeat="None" />
    <mask fill="white" id="Clip5414">
      <path d="M 1.6524999999999999 10.428  L 11.425 0.6525  C 12.295 -0.21749999999999994  13.705 -0.21749999999999994  14.575000000000001 0.6525  L 24.347500000000004 10.426499999999999  C 25.217500000000005 11.2965  25.217500000000005 12.704999999999998  24.347500000000004 13.5735  L 14.575000000000001 23.3475  C 13.705 24.2175  12.296500000000002 24.2175  11.428 23.3475  L 1.6524999999999999 13.575000000000001  C 1.234625977616937 13.157977098014637  0.9997951155754131 12.591861583576454  0.9997951155754131 12.001500000000002  C 0.9997951155754131 11.41113841642355  1.234625977616937 10.84502290198537  1.6524999999999999 10.428  Z M 12.475 1.7025000000000001  C 12.764958158111728 1.4125714249274859  13.235041841888268 1.4125714249274868  13.524999999999999 1.7025000000000001  L 13.524999999999999 1.7009999999999998  L 23.298999999999996 11.475  C 23.58892857507251 11.764958158111728  23.58892857507251 12.235041841888268  23.299 12.524999999999999  L 13.524999999999999 22.298999999999996  C 13.235041841888268 22.588928575072508  12.764958158111728 22.588928575072508  12.475000000000001 22.299  L 2.7009999999999996 12.524999999999999  C 2.4110714249274867 12.235041841888268  2.4110714249274867 11.764958158111728  2.7009999999999996 11.475000000000001  L 12.475 1.7025000000000001  Z " fill-rule="evenodd" />
    </mask>
  </defs>
  <g>
    <path d="M 1.6524999999999999 10.428  L 11.425 0.6525  C 12.295 -0.21749999999999994  13.705 -0.21749999999999994  14.575000000000001 0.6525  L 24.347500000000004 10.426499999999999  C 25.217500000000005 11.2965  25.217500000000005 12.704999999999998  24.347500000000004 13.5735  L 14.575000000000001 23.3475  C 13.705 24.2175  12.296500000000002 24.2175  11.428 23.3475  L 1.6524999999999999 13.575000000000001  C 1.234625977616937 13.157977098014637  0.9997951155754131 12.591861583576454  0.9997951155754131 12.001500000000002  C 0.9997951155754131 11.41113841642355  1.234625977616937 10.84502290198537  1.6524999999999999 10.428  Z M 12.475 1.7025000000000001  C 12.764958158111728 1.4125714249274859  13.235041841888268 1.4125714249274868  13.524999999999999 1.7025000000000001  L 13.524999999999999 1.7009999999999998  L 23.298999999999996 11.475  C 23.58892857507251 11.764958158111728  23.58892857507251 12.235041841888268  23.299 12.524999999999999  L 13.524999999999999 22.298999999999996  C 13.235041841888268 22.588928575072508  12.764958158111728 22.588928575072508  12.475000000000001 22.299  L 2.7009999999999996 12.524999999999999  C 2.4110714249274867 12.235041841888268  2.4110714249274867 11.764958158111728  2.7009999999999996 11.475000000000001  L 12.475 1.7025000000000001  Z " fill-rule="nonzero" fill="rgba(0, 0, 0, 1)" stroke="none" class="fill" />
    <path d="M 1.6524999999999999 10.428  L 11.425 0.6525  C 12.295 -0.21749999999999994  13.705 -0.21749999999999994  14.575000000000001 0.6525  L 24.347500000000004 10.426499999999999  C 25.217500000000005 11.2965  25.217500000000005 12.704999999999998  24.347500000000004 13.5735  L 14.575000000000001 23.3475  C 13.705 24.2175  12.296500000000002 24.2175  11.428 23.3475  L 1.6524999999999999 13.575000000000001  C 1.234625977616937 13.157977098014637  0.9997951155754131 12.591861583576454  0.9997951155754131 12.001500000000002  C 0.9997951155754131 11.41113841642355  1.234625977616937 10.84502290198537  1.6524999999999999 10.428  Z " stroke-width="0" stroke-dasharray="0" stroke="rgba(255, 255, 255, 0)" fill="none" class="stroke" mask="url(#Clip5414)" />
    <path d="M 12.475 1.7025000000000001  C 12.764958158111728 1.4125714249274859  13.235041841888268 1.4125714249274868  13.524999999999999 1.7025000000000001  L 13.524999999999999 1.7009999999999998  L 23.298999999999996 11.475  C 23.58892857507251 11.764958158111728  23.58892857507251 12.235041841888268  23.299 12.524999999999999  L 13.524999999999999 22.298999999999996  C 13.235041841888268 22.588928575072508  12.764958158111728 22.588928575072508  12.475000000000001 22.299  L 2.7009999999999996 12.524999999999999  C 2.4110714249274867 12.235041841888268  2.4110714249274867 11.764958158111728  2.7009999999999996 11.475000000000001  L 12.475 1.7025000000000001  Z " stroke-width="0" stroke-dasharray="0" stroke="rgba(255, 255, 255, 0)" fill="none" class="stroke" mask="url(#Clip5414)" />
  </g>
</svg>