<?xml version="1.0" encoding="utf-8"?>
<svg version="1.1" xmlns:xlink="http://www.w3.org/1999/xlink" width="24px" height="24px" xmlns="http://www.w3.org/2000/svg">
  <defs>
    <pattern id="BGPattern" patternUnits="userSpaceOnUse" alignment="0 0" imageRepeat="None" />
    <mask fill="white" id="Clip6593">
      <path d="M 12 0  C 5.372583002030479 0  0 5.372583002030479  0 12  C 0 18.627416997969522  5.372583002030479 24  12 24  C 18.627416997969522 24  24 18.627416997969522  24 12  C 24 5.372583002030479  18.627416997969522 0  12 0  Z M 12 22.5  C 6.201010126776668 22.5  1.5 17.79898987322333  1.5 12  C 1.5 6.201010126776668  6.201010126776668 1.5  12 1.5  C 14.899494936611664 1.4999999999999993  17.25 3.8505050633883338  17.25 6.75  C 17.25 9.649494936611664  14.899494936611664 12  12 12  C 9.100505063388335 12  6.75 14.350505063388336  6.75 17.25  C 6.75 20.149494936611664  9.100505063388335 22.5  12 22.5  Z M 12 19.0005  C 11.033225545421196 19.0005  10.249500000000001 18.216774454578804  10.249500000000001 17.25  C 10.249500000000001 16.283225545421196  11.033225545421196 15.499500000000001  12 15.499500000000001  C 12.966774454578804 15.499500000000001  13.750499999999999 16.283225545421196  13.750499999999999 17.25  C 13.750499999999999 18.216774454578804  12.966774454578804 19.0005  12 19.0005  Z " fill-rule="evenodd" />
    </mask>
  </defs>
  <g>
    <path d="M 12 0  C 5.372583002030479 0  0 5.372583002030479  0 12  C 0 18.627416997969522  5.372583002030479 24  12 24  C 18.627416997969522 24  24 18.627416997969522  24 12  C 24 5.372583002030479  18.627416997969522 0  12 0  Z M 12 22.5  C 6.201010126776668 22.5  1.5 17.79898987322333  1.5 12  C 1.5 6.201010126776668  6.201010126776668 1.5  12 1.5  C 14.899494936611664 1.4999999999999993  17.25 3.8505050633883338  17.25 6.75  C 17.25 9.649494936611664  14.899494936611664 12  12 12  C 9.100505063388335 12  6.75 14.350505063388336  6.75 17.25  C 6.75 20.149494936611664  9.100505063388335 22.5  12 22.5  Z M 12 19.0005  C 11.033225545421196 19.0005  10.249500000000001 18.216774454578804  10.249500000000001 17.25  C 10.249500000000001 16.283225545421196  11.033225545421196 15.499500000000001  12 15.499500000000001  C 12.966774454578804 15.499500000000001  13.750499999999999 16.283225545421196  13.750499999999999 17.25  C 13.750499999999999 18.216774454578804  12.966774454578804 19.0005  12 19.0005  Z " fill-rule="nonzero" fill="rgba(0, 0, 0, 1)" stroke="none" class="fill" />
    <path d="M 12 0  C 5.372583002030479 0  0 5.372583002030479  0 12  C 0 18.627416997969522  5.372583002030479 24  12 24  C 18.627416997969522 24  24 18.627416997969522  24 12  C 24 5.372583002030479  18.627416997969522 0  12 0  Z " stroke-width="0" stroke-dasharray="0" stroke="rgba(255, 255, 255, 0)" fill="none" class="stroke" mask="url(#Clip6593)" />
    <path d="M 12 22.5  C 6.201010126776668 22.5  1.5 17.79898987322333  1.5 12  C 1.5 6.201010126776668  6.201010126776668 1.5  12 1.5  C 14.899494936611664 1.4999999999999993  17.25 3.8505050633883338  17.25 6.75  C 17.25 9.649494936611664  14.899494936611664 12  12 12  C 9.100505063388335 12  6.75 14.350505063388336  6.75 17.25  C 6.75 20.149494936611664  9.100505063388335 22.5  12 22.5  Z " stroke-width="0" stroke-dasharray="0" stroke="rgba(255, 255, 255, 0)" fill="none" class="stroke" mask="url(#Clip6593)" />
    <path d="M 12 19.0005  C 11.033225545421196 19.0005  10.249500000000001 18.216774454578804  10.249500000000001 17.25  C 10.249500000000001 16.283225545421196  11.033225545421196 15.499500000000001  12 15.499500000000001  C 12.966774454578804 15.499500000000001  13.750499999999999 16.283225545421196  13.750499999999999 17.25  C 13.750499999999999 18.216774454578804  12.966774454578804 19.0005  12 19.0005  Z " stroke-width="0" stroke-dasharray="0" stroke="rgba(255, 255, 255, 0)" fill="none" class="stroke" mask="url(#Clip6593)" />
  </g>
</svg>