<?xml version="1.0" encoding="utf-8"?>
<svg version="1.1" xmlns:xlink="http://www.w3.org/1999/xlink" width="25px" height="28px" xmlns="http://www.w3.org/2000/svg">
  <defs>
    <pattern id="BGPattern" patternUnits="userSpaceOnUse" alignment="0 0" imageRepeat="None" />
    <mask fill="white" id="Clip557">
      <path d="M 0.9199999999999999 13.56000000000001  C 0.9199999999999999 5.7360000000000095  6.52 0.6160000000000085  13.4 0.6000000000000001  C 19.8 0.5840000000000001  24.6 5.5440000000000005  24.6 10.84  C 24.6 15.96  20.76 20.28  15.64 20.28  C 10.36 20.28  7.800000000000002 17.400000000000002  7.800000000000002 13.400000000000002  C 7.800000000000002 9.560000000000002  10.360000000000001 6.600000000000001  13.88 6.600000000000001  C 17.240000000000002 6.600000000000001  19 8.600000000000001  19 11.000000000000002  C 19 13.224000000000004  17.4 14.904000000000002  14.984 14.856  C 14.264 14.840000000000003  13.784000000000002 14.360000000000005  13.784000000000002 13.656000000000002  C 13.784000000000002 12.952000000000002  14.264000000000001 12.472000000000003  14.984 12.456000000000003  C 15.960000000000003 12.440000000000003  16.6 11.720000000000002  16.6 11.000000000000004  C 16.6 10.040000000000003  15.8 9.000000000000004  13.88 9.000000000000004  C 11.848 9.000000000000004  10.280000000000001 11.000000000000004  10.280000000000001 13.400000000000006  C 10.280000000000001 15.960000000000004  11.848 17.880000000000006  15.64 17.880000000000006  C 19.32 17.880000000000006  22.2 14.520000000000007  22.2 10.840000000000007  C 22.2 7.016000000000007  18.36 3.016000000000007  13.399999999999999 3.000000000000007  C 7.959999999999997 2.984000000000007  3.3199999999999985 7.144000000000007  3.3199999999999985 13.56000000000001  C 3.3199999999999985 19.75200000000001  7.944 24.69600000000001  14.168 24.616000000000007  L 14.2 24.616000000000007  C 14.856 24.616000000000007  15.4 25.160000000000007  15.4 25.816000000000006  C 15.4 26.472000000000005  14.855999999999996 27.016000000000005  14.2 27.016000000000005  C 14.136 27.016000000000005  14.056 27.016000000000005  13.991999999999999 27.000000000000007  C 6.4239999999999995 26.88800000000001  0.9199999999999999 21.016000000000005  0.9199999999999999 13.56000000000001  Z " fill-rule="evenodd" />
    </mask>
  </defs>
  <g>
    <path d="M 0.9199999999999999 13.56000000000001  C 0.9199999999999999 5.7360000000000095  6.52 0.6160000000000085  13.4 0.6000000000000001  C 19.8 0.5840000000000001  24.6 5.5440000000000005  24.6 10.84  C 24.6 15.96  20.76 20.28  15.64 20.28  C 10.36 20.28  7.800000000000002 17.400000000000002  7.800000000000002 13.400000000000002  C 7.800000000000002 9.560000000000002  10.360000000000001 6.600000000000001  13.88 6.600000000000001  C 17.240000000000002 6.600000000000001  19 8.600000000000001  19 11.000000000000002  C 19 13.224000000000004  17.4 14.904000000000002  14.984 14.856  C 14.264 14.840000000000003  13.784000000000002 14.360000000000005  13.784000000000002 13.656000000000002  C 13.784000000000002 12.952000000000002  14.264000000000001 12.472000000000003  14.984 12.456000000000003  C 15.960000000000003 12.440000000000003  16.6 11.720000000000002  16.6 11.000000000000004  C 16.6 10.040000000000003  15.8 9.000000000000004  13.88 9.000000000000004  C 11.848 9.000000000000004  10.280000000000001 11.000000000000004  10.280000000000001 13.400000000000006  C 10.280000000000001 15.960000000000004  11.848 17.880000000000006  15.64 17.880000000000006  C 19.32 17.880000000000006  22.2 14.520000000000007  22.2 10.840000000000007  C 22.2 7.016000000000007  18.36 3.016000000000007  13.399999999999999 3.000000000000007  C 7.959999999999997 2.984000000000007  3.3199999999999985 7.144000000000007  3.3199999999999985 13.56000000000001  C 3.3199999999999985 19.75200000000001  7.944 24.69600000000001  14.168 24.616000000000007  L 14.2 24.616000000000007  C 14.856 24.616000000000007  15.4 25.160000000000007  15.4 25.816000000000006  C 15.4 26.472000000000005  14.855999999999996 27.016000000000005  14.2 27.016000000000005  C 14.136 27.016000000000005  14.056 27.016000000000005  13.991999999999999 27.000000000000007  C 6.4239999999999995 26.88800000000001  0.9199999999999999 21.016000000000005  0.9199999999999999 13.56000000000001  Z " fill-rule="nonzero" fill="rgba(0, 0, 0, 1)" stroke="none" class="fill" />
    <path d="M 0.9199999999999999 13.56000000000001  C 0.9199999999999999 5.7360000000000095  6.52 0.6160000000000085  13.4 0.6000000000000001  C 19.8 0.5840000000000001  24.6 5.5440000000000005  24.6 10.84  C 24.6 15.96  20.76 20.28  15.64 20.28  C 10.36 20.28  7.800000000000002 17.400000000000002  7.800000000000002 13.400000000000002  C 7.800000000000002 9.560000000000002  10.360000000000001 6.600000000000001  13.88 6.600000000000001  C 17.240000000000002 6.600000000000001  19 8.600000000000001  19 11.000000000000002  C 19 13.224000000000004  17.4 14.904000000000002  14.984 14.856  C 14.264 14.840000000000003  13.784000000000002 14.360000000000005  13.784000000000002 13.656000000000002  C 13.784000000000002 12.952000000000002  14.264000000000001 12.472000000000003  14.984 12.456000000000003  C 15.960000000000003 12.440000000000003  16.6 11.720000000000002  16.6 11.000000000000004  C 16.6 10.040000000000003  15.8 9.000000000000004  13.88 9.000000000000004  C 11.848 9.000000000000004  10.280000000000001 11.000000000000004  10.280000000000001 13.400000000000006  C 10.280000000000001 15.960000000000004  11.848 17.880000000000006  15.64 17.880000000000006  C 19.32 17.880000000000006  22.2 14.520000000000007  22.2 10.840000000000007  C 22.2 7.016000000000007  18.36 3.016000000000007  13.399999999999999 3.000000000000007  C 7.959999999999997 2.984000000000007  3.3199999999999985 7.144000000000007  3.3199999999999985 13.56000000000001  C 3.3199999999999985 19.75200000000001  7.944 24.69600000000001  14.168 24.616000000000007  L 14.2 24.616000000000007  C 14.856 24.616000000000007  15.4 25.160000000000007  15.4 25.816000000000006  C 15.4 26.472000000000005  14.855999999999996 27.016000000000005  14.2 27.016000000000005  C 14.136 27.016000000000005  14.056 27.016000000000005  13.991999999999999 27.000000000000007  C 6.4239999999999995 26.88800000000001  0.9199999999999999 21.016000000000005  0.9199999999999999 13.56000000000001  Z " stroke-width="0" stroke-dasharray="0" stroke="rgba(255, 255, 255, 0)" fill="none" class="stroke" mask="url(#Clip557)" />
  </g>
</svg>