<?xml version="1.0" encoding="utf-8"?>
<svg version="1.1" xmlns:xlink="http://www.w3.org/1999/xlink" width="28px" height="28px" xmlns="http://www.w3.org/2000/svg">
  <defs>
    <pattern id="BGPattern" patternUnits="userSpaceOnUse" alignment="0 0" imageRepeat="None" />
    <mask fill="white" id="Clip3895">
      <path d="M 28 14  C 28 6.268013502368892  21.73198649763111 0  14 0  C 6.268013502368892 0  0 6.268013502368892  0 14  C 0 21.73198649763111  6.268013502368892 28  14 28  C 21.73198649763111 28  28 21.73198649763111  28 14  Z M 12.5 6.500000000000001  C 12.5 5.67157287525381  13.171572875253808 5  14 5  C 14.828427124746188 5  15.5 5.67157287525381  15.5 6.500000000000001  C 15.5 7.328427124746188  14.828427124746188 8  14 8  C 13.171572875253808 8  12.5 7.328427124746188  12.5 6.500000000000001  Z M 18 19.880000000000003  L 18 22.12  L 10 22.12  L 10 19.88  L 12.879999999999999 19.88  L 12.879999999999999 13.120000000000001  L 11 13.120000000000001  L 11 10.880000000000003  L 15.13 10.880000000000003  L 15.13 19.880000000000003  L 18 19.880000000000003  Z " fill-rule="evenodd" />
    </mask>
  </defs>
  <g transform="matrix(1 0 0 1 -2 -2 )">
    <path d="M 28 14  C 28 6.268013502368892  21.73198649763111 0  14 0  C 6.268013502368892 0  0 6.268013502368892  0 14  C 0 21.73198649763111  6.268013502368892 28  14 28  C 21.73198649763111 28  28 21.73198649763111  28 14  Z M 12.5 6.500000000000001  C 12.5 5.67157287525381  13.171572875253808 5  14 5  C 14.828427124746188 5  15.5 5.67157287525381  15.5 6.500000000000001  C 15.5 7.328427124746188  14.828427124746188 8  14 8  C 13.171572875253808 8  12.5 7.328427124746188  12.5 6.500000000000001  Z M 18 19.880000000000003  L 18 22.12  L 10 22.12  L 10 19.88  L 12.879999999999999 19.88  L 12.879999999999999 13.120000000000001  L 11 13.120000000000001  L 11 10.880000000000003  L 15.13 10.880000000000003  L 15.13 19.880000000000003  L 18 19.880000000000003  Z " fill-rule="nonzero" fill="rgba(0, 0, 0, 1)" stroke="none" transform="matrix(1 0 0 1 2 2 )" class="fill" />
    <path d="M 28 14  C 28 6.268013502368892  21.73198649763111 0  14 0  C 6.268013502368892 0  0 6.268013502368892  0 14  C 0 21.73198649763111  6.268013502368892 28  14 28  C 21.73198649763111 28  28 21.73198649763111  28 14  Z " stroke-width="0" stroke-dasharray="0" stroke="rgba(255, 255, 255, 0)" fill="none" transform="matrix(1 0 0 1 2 2 )" class="stroke" mask="url(#Clip3895)" />
    <path d="M 12.5 6.500000000000001  C 12.5 5.67157287525381  13.171572875253808 5  14 5  C 14.828427124746188 5  15.5 5.67157287525381  15.5 6.500000000000001  C 15.5 7.328427124746188  14.828427124746188 8  14 8  C 13.171572875253808 8  12.5 7.328427124746188  12.5 6.500000000000001  Z " stroke-width="0" stroke-dasharray="0" stroke="rgba(255, 255, 255, 0)" fill="none" transform="matrix(1 0 0 1 2 2 )" class="stroke" mask="url(#Clip3895)" />
    <path d="M 18 19.880000000000003  L 18 22.12  L 10 22.12  L 10 19.88  L 12.879999999999999 19.88  L 12.879999999999999 13.120000000000001  L 11 13.120000000000001  L 11 10.880000000000003  L 15.13 10.880000000000003  L 15.13 19.880000000000003  L 18 19.880000000000003  Z " stroke-width="0" stroke-dasharray="0" stroke="rgba(255, 255, 255, 0)" fill="none" transform="matrix(1 0 0 1 2 2 )" class="stroke" mask="url(#Clip3895)" />
  </g>
</svg>