<?xml version="1.0" encoding="utf-8"?>
<svg version="1.1" xmlns:xlink="http://www.w3.org/1999/xlink" width="49px" height="51px" xmlns="http://www.w3.org/2000/svg">
  <defs>
    <pattern id="BGPattern" patternUnits="userSpaceOnUse" alignment="0 0" imageRepeat="None" />
    <mask fill="white" id="Clip2802">
      <path d="M 49 43.499999979169566  C 49 43.22499997930126  48.775 42.999999979409  48.5 43  L 34.5 43  C 34.225 42.999999979409  34 43.22499997930126  34 43.499999979169566  L 34 46.49999997773298  C 34 46.7749999776013  34.225 46.99999997749356  34.5 47  L 48.5 47  C 48.775 46.99999997749356  49 46.7749999776013  49 46.49999997773298  L 49 43.499999979169566  Z M 15.968749999999993 26.443749987337124  C 16.21249999999999 26.381249987367056  16.374999999999993 26.14999998747779  16.34375 25.89999998759751  C 16.2875 25.356249987857893  16.25625 24.806249988121266  16.25625 24.249999988387632  C 16.25625 23.2562499888635  16.35 22.287499989327397  16.525000000000002 21.343749989779322  C 16.56875 21.11874998988706  16.450000000000003 20.8874999899978  16.243750000000002 20.79374999004269  C 15.393750000000002 20.412499990225257  14.612499999999999 19.887499990476663  13.937500000000002 19.2249999907939  C 12.329273422078796 17.665647622447107  11.451392973611778 15.501570238890277  11.518750000000004 13.262499993649108  C 11.575000000000003 11.25624999460982  12.381250000000005 9.34999999552265  13.787500000000007 7.912499996211013  C 15.331250000000004 6.331249996968209  17.406250000000004 5.468749997381228  19.612500000000004 5.493749997369255  C 21.606250000000003 5.512499997360277  23.531250000000004 6.281249996992152  24.987500000000004 7.6437499963397055  C 25.481250000000003 8.106249996118231  25.906250000000007 8.618749995872816  26.2625 9.168749995609442  C 26.387500000000006 9.362499995516664  26.63125 9.443749995477758  26.84375 9.368749995513669  C 27.94375 8.987499995696236  29.106250000000003 8.718749995824929  30.299999999999997 8.593749995884787  C 30.65 8.556249995902744  30.849999999999994 8.181249996082316  30.69374999999999 7.868749996231961  C 28.662499999999998 3.8499999981563815  24.512499999999996 1.0749999994852197  19.712499999999995 0.999999999521134  C 12.781249999999993 0.8937499995720128  7.006249999999995 6.574999996851487  7.006249999999995 13.493749993538373  C 7.006249999999995 17.418749991658846  8.812499999999995 20.91874998998283  11.643749999999994 23.212499988884446  C 9.656249999999993 24.13124998844449  7.824999999999995 25.399999987836935  6.237499999999994 26.98749998707675  C 2.812499999999993 30.40624998543965  0.8749999999999938 34.918749983278786  0.7499999999999938 39.73749998097128  C 0.7498958207156701 39.74166584175347  0.74984372496756 39.745832842157846  0.74984372496756 39.75000000538718  C 0.74984372496756 40.02614238017034  0.9737013500521634 40.250000005147754  1.24984372496756 40.250000005147754  L 4.7562499999999925 40.24999998072586  C 5.024999999999993 40.24999998072586  5.249999999999993 40.037499980827626  5.2562499999999925 39.768749980956315  C 5.374999999999993 36.143749982692185  6.843749999999993 32.74999998431732  9.424999999999994 30.17499998555038  C 11.262499999999992 28.337499986430288  13.512499999999994 27.06249998704084  15.968749999999993 26.443749987337124  Z M 31.999999999999996 36.74999998240188  C 38.9 36.74999998240188  44.5 31.156249985080503  44.5 24.249999988387632  C 44.5 17.412499991661843  39.00625 11.856249994322509  32.19375 11.74999999437339  C 25.268749999999994 11.643749994424267  19.5 17.32499999170374  19.5 24.249999988387632  C 19.5 28.1749999865081  21.3125 31.67499998483209  24.1375 33.96874998373371  C 22.129414437690098 34.89956901313409  20.301375031225426 36.177503967967354  18.737499999999997 37.74374998192601  C 15.3125 41.162499980288906  13.375 45.67499997812804  13.250000000000002 50.487499975823525  C 13.249895820715677 50.491665836605705  13.249843724967567 50.49583283701012  13.249843724967567 50.50000000023943  C 13.249843724967567 50.77614237502259  13.473701350052167 51  13.749843724967564 51  L 17.25 50.99999997557811  C 17.51875 50.99999997557811  17.74375 50.78749997567987  17.75 50.51874997580857  C 17.86875 46.89374997754443  19.3375 43.499999979169566  21.91875 40.92499998040263  C 24.612500000000004 38.231249981692564  28.1875 36.74999998240188  31.999999999999996 36.74999998240188  Z M 40.006249999999994 24.249999988387632  C 39.99999999999999 26.38749998736407  39.168749999999996 28.393749986403353  37.65625 29.90624998567908  C 36.14375 31.4187499849548  34.1375 32.249999984556744  31.999999999999996 32.249999984556744  C 29.862499999999994 32.249999984556744  27.856250000000003 31.4187499849548  26.34375 29.906249985679086  C 24.818853461473086 28.38932707991328  23.973328987283935 26.319483168089405  24 24.16874998842654  C 24.01875 22.1187499894082  24.8375 20.137499990356947  26.268749999999997 18.66874999106027  C 27.768749999999997 17.13124999179652  29.775000000000002 16.274999992206542  31.918749999999992 16.249999992218516  C 34.037499999999994 16.231249992227497  36.09374999999999 17.056249991832434  37.606249999999996 18.537499991123124  C 39.15624999999999 20.056249990395855  40.006249999999994 22.087499989423172  40.006249999999994 24.249999988387632  Z " fill-rule="evenodd" />
    </mask>
  </defs>
  <g>
    <path d="M 49 43.499999979169566  C 49 43.22499997930126  48.775 42.999999979409  48.5 43  L 34.5 43  C 34.225 42.999999979409  34 43.22499997930126  34 43.499999979169566  L 34 46.49999997773298  C 34 46.7749999776013  34.225 46.99999997749356  34.5 47  L 48.5 47  C 48.775 46.99999997749356  49 46.7749999776013  49 46.49999997773298  L 49 43.499999979169566  Z M 15.968749999999993 26.443749987337124  C 16.21249999999999 26.381249987367056  16.374999999999993 26.14999998747779  16.34375 25.89999998759751  C 16.2875 25.356249987857893  16.25625 24.806249988121266  16.25625 24.249999988387632  C 16.25625 23.2562499888635  16.35 22.287499989327397  16.525000000000002 21.343749989779322  C 16.56875 21.11874998988706  16.450000000000003 20.8874999899978  16.243750000000002 20.79374999004269  C 15.393750000000002 20.412499990225257  14.612499999999999 19.887499990476663  13.937500000000002 19.2249999907939  C 12.329273422078796 17.665647622447107  11.451392973611778 15.501570238890277  11.518750000000004 13.262499993649108  C 11.575000000000003 11.25624999460982  12.381250000000005 9.34999999552265  13.787500000000007 7.912499996211013  C 15.331250000000004 6.331249996968209  17.406250000000004 5.468749997381228  19.612500000000004 5.493749997369255  C 21.606250000000003 5.512499997360277  23.531250000000004 6.281249996992152  24.987500000000004 7.6437499963397055  C 25.481250000000003 8.106249996118231  25.906250000000007 8.618749995872816  26.2625 9.168749995609442  C 26.387500000000006 9.362499995516664  26.63125 9.443749995477758  26.84375 9.368749995513669  C 27.94375 8.987499995696236  29.106250000000003 8.718749995824929  30.299999999999997 8.593749995884787  C 30.65 8.556249995902744  30.849999999999994 8.181249996082316  30.69374999999999 7.868749996231961  C 28.662499999999998 3.8499999981563815  24.512499999999996 1.0749999994852197  19.712499999999995 0.999999999521134  C 12.781249999999993 0.8937499995720128  7.006249999999995 6.574999996851487  7.006249999999995 13.493749993538373  C 7.006249999999995 17.418749991658846  8.812499999999995 20.91874998998283  11.643749999999994 23.212499988884446  C 9.656249999999993 24.13124998844449  7.824999999999995 25.399999987836935  6.237499999999994 26.98749998707675  C 2.812499999999993 30.40624998543965  0.8749999999999938 34.918749983278786  0.7499999999999938 39.73749998097128  C 0.7498958207156701 39.74166584175347  0.74984372496756 39.745832842157846  0.74984372496756 39.75000000538718  C 0.74984372496756 40.02614238017034  0.9737013500521634 40.250000005147754  1.24984372496756 40.250000005147754  L 4.7562499999999925 40.24999998072586  C 5.024999999999993 40.24999998072586  5.249999999999993 40.037499980827626  5.2562499999999925 39.768749980956315  C 5.374999999999993 36.143749982692185  6.843749999999993 32.74999998431732  9.424999999999994 30.17499998555038  C 11.262499999999992 28.337499986430288  13.512499999999994 27.06249998704084  15.968749999999993 26.443749987337124  Z M 31.999999999999996 36.74999998240188  C 38.9 36.74999998240188  44.5 31.156249985080503  44.5 24.249999988387632  C 44.5 17.412499991661843  39.00625 11.856249994322509  32.19375 11.74999999437339  C 25.268749999999994 11.643749994424267  19.5 17.32499999170374  19.5 24.249999988387632  C 19.5 28.1749999865081  21.3125 31.67499998483209  24.1375 33.96874998373371  C 22.129414437690098 34.89956901313409  20.301375031225426 36.177503967967354  18.737499999999997 37.74374998192601  C 15.3125 41.162499980288906  13.375 45.67499997812804  13.250000000000002 50.487499975823525  C 13.249895820715677 50.491665836605705  13.249843724967567 50.49583283701012  13.249843724967567 50.50000000023943  C 13.249843724967567 50.77614237502259  13.473701350052167 51  13.749843724967564 51  L 17.25 50.99999997557811  C 17.51875 50.99999997557811  17.74375 50.78749997567987  17.75 50.51874997580857  C 17.86875 46.89374997754443  19.3375 43.499999979169566  21.91875 40.92499998040263  C 24.612500000000004 38.231249981692564  28.1875 36.74999998240188  31.999999999999996 36.74999998240188  Z M 40.006249999999994 24.249999988387632  C 39.99999999999999 26.38749998736407  39.168749999999996 28.393749986403353  37.65625 29.90624998567908  C 36.14375 31.4187499849548  34.1375 32.249999984556744  31.999999999999996 32.249999984556744  C 29.862499999999994 32.249999984556744  27.856250000000003 31.4187499849548  26.34375 29.906249985679086  C 24.818853461473086 28.38932707991328  23.973328987283935 26.319483168089405  24 24.16874998842654  C 24.01875 22.1187499894082  24.8375 20.137499990356947  26.268749999999997 18.66874999106027  C 27.768749999999997 17.13124999179652  29.775000000000002 16.274999992206542  31.918749999999992 16.249999992218516  C 34.037499999999994 16.231249992227497  36.09374999999999 17.056249991832434  37.606249999999996 18.537499991123124  C 39.15624999999999 20.056249990395855  40.006249999999994 22.087499989423172  40.006249999999994 24.249999988387632  Z " fill-rule="nonzero" fill="rgba(0, 0, 0, 1)" stroke="none" class="fill" />
    <path d="M 49 43.499999979169566  C 49 43.22499997930126  48.775 42.999999979409  48.5 43  L 34.5 43  C 34.225 42.999999979409  34 43.22499997930126  34 43.499999979169566  L 34 46.49999997773298  C 34 46.7749999776013  34.225 46.99999997749356  34.5 47  L 48.5 47  C 48.775 46.99999997749356  49 46.7749999776013  49 46.49999997773298  L 49 43.499999979169566  Z " stroke-width="0" stroke-dasharray="0" stroke="rgba(255, 255, 255, 0)" fill="none" class="stroke" mask="url(#Clip2802)" />
    <path d="M 15.968749999999993 26.443749987337124  C 16.21249999999999 26.381249987367056  16.374999999999993 26.14999998747779  16.34375 25.89999998759751  C 16.2875 25.356249987857893  16.25625 24.806249988121266  16.25625 24.249999988387632  C 16.25625 23.2562499888635  16.35 22.287499989327397  16.525000000000002 21.343749989779322  C 16.56875 21.11874998988706  16.450000000000003 20.8874999899978  16.243750000000002 20.79374999004269  C 15.393750000000002 20.412499990225257  14.612499999999999 19.887499990476663  13.937500000000002 19.2249999907939  C 12.329273422078796 17.665647622447107  11.451392973611778 15.501570238890277  11.518750000000004 13.262499993649108  C 11.575000000000003 11.25624999460982  12.381250000000005 9.34999999552265  13.787500000000007 7.912499996211013  C 15.331250000000004 6.331249996968209  17.406250000000004 5.468749997381228  19.612500000000004 5.493749997369255  C 21.606250000000003 5.512499997360277  23.531250000000004 6.281249996992152  24.987500000000004 7.6437499963397055  C 25.481250000000003 8.106249996118231  25.906250000000007 8.618749995872816  26.2625 9.168749995609442  C 26.387500000000006 9.362499995516664  26.63125 9.443749995477758  26.84375 9.368749995513669  C 27.94375 8.987499995696236  29.106250000000003 8.718749995824929  30.299999999999997 8.593749995884787  C 30.65 8.556249995902744  30.849999999999994 8.181249996082316  30.69374999999999 7.868749996231961  C 28.662499999999998 3.8499999981563815  24.512499999999996 1.0749999994852197  19.712499999999995 0.999999999521134  C 12.781249999999993 0.8937499995720128  7.006249999999995 6.574999996851487  7.006249999999995 13.493749993538373  C 7.006249999999995 17.418749991658846  8.812499999999995 20.91874998998283  11.643749999999994 23.212499988884446  C 9.656249999999993 24.13124998844449  7.824999999999995 25.399999987836935  6.237499999999994 26.98749998707675  C 2.812499999999993 30.40624998543965  0.8749999999999938 34.918749983278786  0.7499999999999938 39.73749998097128  C 0.7498958207156701 39.74166584175347  0.74984372496756 39.745832842157846  0.74984372496756 39.75000000538718  C 0.74984372496756 40.02614238017034  0.9737013500521634 40.250000005147754  1.24984372496756 40.250000005147754  L 4.7562499999999925 40.24999998072586  C 5.024999999999993 40.24999998072586  5.249999999999993 40.037499980827626  5.2562499999999925 39.768749980956315  C 5.374999999999993 36.143749982692185  6.843749999999993 32.74999998431732  9.424999999999994 30.17499998555038  C 11.262499999999992 28.337499986430288  13.512499999999994 27.06249998704084  15.968749999999993 26.443749987337124  Z " stroke-width="0" stroke-dasharray="0" stroke="rgba(255, 255, 255, 0)" fill="none" class="stroke" mask="url(#Clip2802)" />
    <path d="M 31.999999999999996 36.74999998240188  C 38.9 36.74999998240188  44.5 31.156249985080503  44.5 24.249999988387632  C 44.5 17.412499991661843  39.00625 11.856249994322509  32.19375 11.74999999437339  C 25.268749999999994 11.643749994424267  19.5 17.32499999170374  19.5 24.249999988387632  C 19.5 28.1749999865081  21.3125 31.67499998483209  24.1375 33.96874998373371  C 22.129414437690098 34.89956901313409  20.301375031225426 36.177503967967354  18.737499999999997 37.74374998192601  C 15.3125 41.162499980288906  13.375 45.67499997812804  13.250000000000002 50.487499975823525  C 13.249895820715677 50.491665836605705  13.249843724967567 50.49583283701012  13.249843724967567 50.50000000023943  C 13.249843724967567 50.77614237502259  13.473701350052167 51  13.749843724967564 51  L 17.25 50.99999997557811  C 17.51875 50.99999997557811  17.74375 50.78749997567987  17.75 50.51874997580857  C 17.86875 46.89374997754443  19.3375 43.499999979169566  21.91875 40.92499998040263  C 24.612500000000004 38.231249981692564  28.1875 36.74999998240188  31.999999999999996 36.74999998240188  Z " stroke-width="0" stroke-dasharray="0" stroke="rgba(255, 255, 255, 0)" fill="none" class="stroke" mask="url(#Clip2802)" />
    <path d="M 40.006249999999994 24.249999988387632  C 39.99999999999999 26.38749998736407  39.168749999999996 28.393749986403353  37.65625 29.90624998567908  C 36.14375 31.4187499849548  34.1375 32.249999984556744  31.999999999999996 32.249999984556744  C 29.862499999999994 32.249999984556744  27.856250000000003 31.4187499849548  26.34375 29.906249985679086  C 24.818853461473086 28.38932707991328  23.973328987283935 26.319483168089405  24 24.16874998842654  C 24.01875 22.1187499894082  24.8375 20.137499990356947  26.268749999999997 18.66874999106027  C 27.768749999999997 17.13124999179652  29.775000000000002 16.274999992206542  31.918749999999992 16.249999992218516  C 34.037499999999994 16.231249992227497  36.09374999999999 17.056249991832434  37.606249999999996 18.537499991123124  C 39.15624999999999 20.056249990395855  40.006249999999994 22.087499989423172  40.006249999999994 24.249999988387632  Z " stroke-width="0" stroke-dasharray="0" stroke="rgba(255, 255, 255, 0)" fill="none" class="stroke" mask="url(#Clip2802)" />
  </g>
</svg>