<?xml version="1.0" encoding="utf-8"?>
<svg version="1.1" xmlns:xlink="http://www.w3.org/1999/xlink" width="29px" height="28px" xmlns="http://www.w3.org/2000/svg">
  <defs>
    <pattern id="BGPattern" patternUnits="userSpaceOnUse" alignment="0 0" imageRepeat="None" />
    <mask fill="white" id="Clip4399">
      <path d="M 28.000256944607212 14.00025  C 28.000256944607212 13.47146779205976  27.790159703867815 12.96435153730401  27.41620036516466 12.5905  L 15.410003133342403 0.5838000000000001  C 14.63145137167929 -0.19457658477357853  13.369355545006911 -0.19457658477357853  12.590803783343798 0.5838000000000001  L 0.5838065517059975 12.5905  C -0.19460218390199918 13.368960448395375  -0.19460218390199918 14.631039551604626  0.5838065517059975 15.409500000000003  L 12.590503783412966 27.416199999999996  C 13.369055545076082 28.19457658477358  14.631151371748464 28.19457658477358  15.409703133411577 27.4162  L 27.416200365164656 15.41  C 27.790159703867815 15.03614846269599  28.000256944607212 14.529032207940237  28.000256944607212 14.00025  Z M 19.00000230562355 12  L 19.00000230562355 16  L 9.000004611247103 16  L 9.000004611247103 12  L 19.00000230562355 12  Z " fill-rule="evenodd" />
    </mask>
  </defs>
  <g transform="matrix(1 0 0 1 -2 -2 )">
    <path d="M 28.000256944607212 14.00025  C 28.000256944607212 13.47146779205976  27.790159703867815 12.96435153730401  27.41620036516466 12.5905  L 15.410003133342403 0.5838000000000001  C 14.63145137167929 -0.19457658477357853  13.369355545006911 -0.19457658477357853  12.590803783343798 0.5838000000000001  L 0.5838065517059975 12.5905  C -0.19460218390199918 13.368960448395375  -0.19460218390199918 14.631039551604626  0.5838065517059975 15.409500000000003  L 12.590503783412966 27.416199999999996  C 13.369055545076082 28.19457658477358  14.631151371748464 28.19457658477358  15.409703133411577 27.4162  L 27.416200365164656 15.41  C 27.790159703867815 15.03614846269599  28.000256944607212 14.529032207940237  28.000256944607212 14.00025  Z M 19.00000230562355 12  L 19.00000230562355 16  L 9.000004611247103 16  L 9.000004611247103 12  L 19.00000230562355 12  Z " fill-rule="nonzero" fill="rgba(0, 0, 0, 1)" stroke="none" transform="matrix(1 0 0 1 2 2 )" class="fill" />
    <path d="M 28.000256944607212 14.00025  C 28.000256944607212 13.47146779205976  27.790159703867815 12.96435153730401  27.41620036516466 12.5905  L 15.410003133342403 0.5838000000000001  C 14.63145137167929 -0.19457658477357853  13.369355545006911 -0.19457658477357853  12.590803783343798 0.5838000000000001  L 0.5838065517059975 12.5905  C -0.19460218390199918 13.368960448395375  -0.19460218390199918 14.631039551604626  0.5838065517059975 15.409500000000003  L 12.590503783412966 27.416199999999996  C 13.369055545076082 28.19457658477358  14.631151371748464 28.19457658477358  15.409703133411577 27.4162  L 27.416200365164656 15.41  C 27.790159703867815 15.03614846269599  28.000256944607212 14.529032207940237  28.000256944607212 14.00025  Z " stroke-width="0" stroke-dasharray="0" stroke="rgba(255, 255, 255, 0)" fill="none" transform="matrix(1 0 0 1 2 2 )" class="stroke" mask="url(#Clip4399)" />
    <path d="M 19.00000230562355 12  L 19.00000230562355 16  L 9.000004611247103 16  L 9.000004611247103 12  L 19.00000230562355 12  Z " stroke-width="0" stroke-dasharray="0" stroke="rgba(255, 255, 255, 0)" fill="none" transform="matrix(1 0 0 1 2 2 )" class="stroke" mask="url(#Clip4399)" />
  </g>
</svg>