<?xml version="1.0" encoding="utf-8"?>
<svg version="1.1" xmlns:xlink="http://www.w3.org/1999/xlink" width="20px" height="15px" xmlns="http://www.w3.org/2000/svg">
  <defs>
    <pattern id="BGPattern" patternUnits="userSpaceOnUse" alignment="0 0" imageRepeat="None" />
    <mask fill="white" id="Clip3342">
      <path d="M 2.9000000000000004 6.200000000000001  L 15.2 6.199999999999999  C 17 6.199999999999999  18.4 7.8999999999999995  18.4 9.5  C 18.4 11  16.9 12.7  15.2 12.7  L 12 12.7  L 12 14.2  L 15.2 14.2  C 17.4 14.2  20 11.899999999999999  20 9.399999999999999  C 20 6.899999999999999  18 4.599999999999998  15.2 4.599999999999998  L 2.8 4.599999999999998  L 5.8 1.5999999999999979  L 4.8 0.7000000000000002  L 0 5.5  L 4.8 10.3  L 5.9 9.200000000000001  L 2.9000000000000004 6.200000000000001  Z " fill-rule="evenodd" />
    </mask>
  </defs>
  <g>
    <path d="M 2.9000000000000004 6.200000000000001  L 15.2 6.199999999999999  C 17 6.199999999999999  18.4 7.8999999999999995  18.4 9.5  C 18.4 11  16.9 12.7  15.2 12.7  L 12 12.7  L 12 14.2  L 15.2 14.2  C 17.4 14.2  20 11.899999999999999  20 9.399999999999999  C 20 6.899999999999999  18 4.599999999999998  15.2 4.599999999999998  L 2.8 4.599999999999998  L 5.8 1.5999999999999979  L 4.8 0.7000000000000002  L 0 5.5  L 4.8 10.3  L 5.9 9.200000000000001  L 2.9000000000000004 6.200000000000001  Z " fill-rule="nonzero" fill="rgba(0, 0, 0, 1)" stroke="none" class="fill" />
    <path d="M 2.9000000000000004 6.200000000000001  L 15.2 6.199999999999999  C 17 6.199999999999999  18.4 7.8999999999999995  18.4 9.5  C 18.4 11  16.9 12.7  15.2 12.7  L 12 12.7  L 12 14.2  L 15.2 14.2  C 17.4 14.2  20 11.899999999999999  20 9.399999999999999  C 20 6.899999999999999  18 4.599999999999998  15.2 4.599999999999998  L 2.8 4.599999999999998  L 5.8 1.5999999999999979  L 4.8 0.7000000000000002  L 0 5.5  L 4.8 10.3  L 5.9 9.200000000000001  L 2.9000000000000004 6.200000000000001  Z " stroke-width="0" stroke-dasharray="0" stroke="rgba(255, 255, 255, 0)" fill="none" class="stroke" mask="url(#Clip3342)" />
  </g>
</svg>