<?xml version="1.0" encoding="utf-8"?>
<svg version="1.1" xmlns:xlink="http://www.w3.org/1999/xlink" width="16px" height="14px" xmlns="http://www.w3.org/2000/svg">
  <defs>
    <pattern id="BGPattern" patternUnits="userSpaceOnUse" alignment="0 0" imageRepeat="None" />
    <mask fill="white" id="Clip3245">
      <path d="M 9.3 2.8  C 9.8 2.3  10.5 2  11.2 2  C 11.899999999999999 2  12.6 2.3  13.2 2.8  C 14.299999999999999 3.9000000000000004  14.299999999999999 5.699999999999999  13.2 6.8  L 8 12.1  L 2.8 6.8  C 1.6999999999999997 5.699999999999999  1.6999999999999997 3.9000000000000004  2.8 2.8  C 3.9 1.6999999999999997  5.6 1.6999999999999997  6.699999999999999 2.8  L 8 4.1  L 9.3 2.8  Z M 13.9 2.0999999999999996  C 13.2 1.4  12.2 1  11.2 1  C 10.2 1  9.2 1.4  8.5 2.1  L 8 2.7  L 7.4 2.1  C 6 0.6000000000000001  3.6 0.6000000000000001  2.1 2.1  C 0.6 3.5999999999999996  0.6 6  2.1 7.5  L 8 13.5  L 13.9 7.5  C 15.4 6  15.4 3.5999999999999996  13.9 2.0999999999999996  Z " fill-rule="evenodd" />
    </mask>
  </defs>
  <g transform="matrix(1 0 0 1 0 -1 )">
    <path d="M 9.3 2.8  C 9.8 2.3  10.5 2  11.2 2  C 11.899999999999999 2  12.6 2.3  13.2 2.8  C 14.299999999999999 3.9000000000000004  14.299999999999999 5.699999999999999  13.2 6.8  L 8 12.1  L 2.8 6.8  C 1.6999999999999997 5.699999999999999  1.6999999999999997 3.9000000000000004  2.8 2.8  C 3.9 1.6999999999999997  5.6 1.6999999999999997  6.699999999999999 2.8  L 8 4.1  L 9.3 2.8  Z M 13.9 2.0999999999999996  C 13.2 1.4  12.2 1  11.2 1  C 10.2 1  9.2 1.4  8.5 2.1  L 8 2.7  L 7.4 2.1  C 6 0.6000000000000001  3.6 0.6000000000000001  2.1 2.1  C 0.6 3.5999999999999996  0.6 6  2.1 7.5  L 8 13.5  L 13.9 7.5  C 15.4 6  15.4 3.5999999999999996  13.9 2.0999999999999996  Z " fill-rule="nonzero" fill="rgba(0, 0, 0, 1)" stroke="none" transform="matrix(1 0 0 1 0 1 )" class="fill" />
    <path d="M 9.3 2.8  C 9.8 2.3  10.5 2  11.2 2  C 11.899999999999999 2  12.6 2.3  13.2 2.8  C 14.299999999999999 3.9000000000000004  14.299999999999999 5.699999999999999  13.2 6.8  L 8 12.1  L 2.8 6.8  C 1.6999999999999997 5.699999999999999  1.6999999999999997 3.9000000000000004  2.8 2.8  C 3.9 1.6999999999999997  5.6 1.6999999999999997  6.699999999999999 2.8  L 8 4.1  L 9.3 2.8  Z " stroke-width="0" stroke-dasharray="0" stroke="rgba(255, 255, 255, 0)" fill="none" transform="matrix(1 0 0 1 0 1 )" class="stroke" mask="url(#Clip3245)" />
    <path d="M 13.9 2.0999999999999996  C 13.2 1.4  12.2 1  11.2 1  C 10.2 1  9.2 1.4  8.5 2.1  L 8 2.7  L 7.4 2.1  C 6 0.6000000000000001  3.6 0.6000000000000001  2.1 2.1  C 0.6 3.5999999999999996  0.6 6  2.1 7.5  L 8 13.5  L 13.9 7.5  C 15.4 6  15.4 3.5999999999999996  13.9 2.0999999999999996  Z " stroke-width="0" stroke-dasharray="0" stroke="rgba(255, 255, 255, 0)" fill="none" transform="matrix(1 0 0 1 0 1 )" class="stroke" mask="url(#Clip3245)" />
  </g>
</svg>