<?xml version="1.0" encoding="utf-8"?>
<svg version="1.1" xmlns:xlink="http://www.w3.org/1999/xlink" width="14px" height="14px" xmlns="http://www.w3.org/2000/svg">
  <defs>
    <pattern id="BGPattern" patternUnits="userSpaceOnUse" alignment="0 0" imageRepeat="None" />
    <mask fill="white" id="Clip186">
      <path d="M 10.216000000000001 13.400000000000002  L 3.7840000000000007 13.399999999999999  C 2.024000000000001 13.399999999999999  0.6000000000000014 11.959999999999997  0.6000000000000014 10.215999999999998  L 0.6000000000000014 3.783999999999997  C 0.6000000000000014 2.0239999999999974  2.040000000000001 0.5999999999999979  3.7840000000000025 0.5999999999999979  L 10.216000000000001 0.5999999999999979  C 11.976000000000003 0.5999999999999979  13.400000000000002 2.0399999999999974  13.400000000000002 3.7839999999999985  L 13.400000000000002 10.216000000000001  C 13.400000000000002 11.976000000000003  11.96 13.400000000000002  10.216000000000001 13.400000000000002  Z M 3.0000000000000018 9.8  C 3.0000000000000018 10.472000000000001  3.5280000000000022 11  4.199999999999999 11  C 4.504 11  4.808 10.888000000000002  5.048 10.648  L 8.600000000000001 7.096  L 8.600000000000001 8.984000000000002  C 8.600000000000001 9.656000000000002  9.144000000000002 10.200000000000003  9.8 10.200000000000003  C 10.472000000000001 10.200000000000003  11 9.656000000000002  11 8.984000000000002  L 11 4.216000000000001  C 11 3.5440000000000005  10.472000000000001 3.0000000000000018  9.8 3.0000000000000018  L 5.016000000000002 3.0000000000000018  C 4.344000000000001 3.0000000000000018  3.800000000000003 3.544000000000002  3.800000000000003 4.200000000000001  C 3.800000000000003 4.872000000000002  4.344000000000003 5.4  5.016000000000002 5.4  L 6.904000000000002 5.4  L 3.352000000000002 8.952000000000002  C 3.112000000000002 9.192  3.0000000000000018 9.496000000000002  3.0000000000000018 9.8  Z " fill-rule="evenodd" />
    </mask>
  </defs>
  <g>
    <path d="M 10.216000000000001 13.400000000000002  L 3.7840000000000007 13.399999999999999  C 2.024000000000001 13.399999999999999  0.6000000000000014 11.959999999999997  0.6000000000000014 10.215999999999998  L 0.6000000000000014 3.783999999999997  C 0.6000000000000014 2.0239999999999974  2.040000000000001 0.5999999999999979  3.7840000000000025 0.5999999999999979  L 10.216000000000001 0.5999999999999979  C 11.976000000000003 0.5999999999999979  13.400000000000002 2.0399999999999974  13.400000000000002 3.7839999999999985  L 13.400000000000002 10.216000000000001  C 13.400000000000002 11.976000000000003  11.96 13.400000000000002  10.216000000000001 13.400000000000002  Z M 3.0000000000000018 9.8  C 3.0000000000000018 10.472000000000001  3.5280000000000022 11  4.199999999999999 11  C 4.504 11  4.808 10.888000000000002  5.048 10.648  L 8.600000000000001 7.096  L 8.600000000000001 8.984000000000002  C 8.600000000000001 9.656000000000002  9.144000000000002 10.200000000000003  9.8 10.200000000000003  C 10.472000000000001 10.200000000000003  11 9.656000000000002  11 8.984000000000002  L 11 4.216000000000001  C 11 3.5440000000000005  10.472000000000001 3.0000000000000018  9.8 3.0000000000000018  L 5.016000000000002 3.0000000000000018  C 4.344000000000001 3.0000000000000018  3.800000000000003 3.544000000000002  3.800000000000003 4.200000000000001  C 3.800000000000003 4.872000000000002  4.344000000000003 5.4  5.016000000000002 5.4  L 6.904000000000002 5.4  L 3.352000000000002 8.952000000000002  C 3.112000000000002 9.192  3.0000000000000018 9.496000000000002  3.0000000000000018 9.8  Z " fill-rule="nonzero" fill="rgba(0, 0, 0, 1)" stroke="none" class="fill" />
    <path d="M 10.216000000000001 13.400000000000002  L 3.7840000000000007 13.399999999999999  C 2.024000000000001 13.399999999999999  0.6000000000000014 11.959999999999997  0.6000000000000014 10.215999999999998  L 0.6000000000000014 3.783999999999997  C 0.6000000000000014 2.0239999999999974  2.040000000000001 0.5999999999999979  3.7840000000000025 0.5999999999999979  L 10.216000000000001 0.5999999999999979  C 11.976000000000003 0.5999999999999979  13.400000000000002 2.0399999999999974  13.400000000000002 3.7839999999999985  L 13.400000000000002 10.216000000000001  C 13.400000000000002 11.976000000000003  11.96 13.400000000000002  10.216000000000001 13.400000000000002  Z " stroke-width="0" stroke-dasharray="0" stroke="rgba(255, 255, 255, 0)" fill="none" class="stroke" mask="url(#Clip186)" />
    <path d="M 3.0000000000000018 9.8  C 3.0000000000000018 10.472000000000001  3.5280000000000022 11  4.199999999999999 11  C 4.504 11  4.808 10.888000000000002  5.048 10.648  L 8.600000000000001 7.096  L 8.600000000000001 8.984000000000002  C 8.600000000000001 9.656000000000002  9.144000000000002 10.200000000000003  9.8 10.200000000000003  C 10.472000000000001 10.200000000000003  11 9.656000000000002  11 8.984000000000002  L 11 4.216000000000001  C 11 3.5440000000000005  10.472000000000001 3.0000000000000018  9.8 3.0000000000000018  L 5.016000000000002 3.0000000000000018  C 4.344000000000001 3.0000000000000018  3.800000000000003 3.544000000000002  3.800000000000003 4.200000000000001  C 3.800000000000003 4.872000000000002  4.344000000000003 5.4  5.016000000000002 5.4  L 6.904000000000002 5.4  L 3.352000000000002 8.952000000000002  C 3.112000000000002 9.192  3.0000000000000018 9.496000000000002  3.0000000000000018 9.8  Z " stroke-width="0" stroke-dasharray="0" stroke="rgba(255, 255, 255, 0)" fill="none" class="stroke" mask="url(#Clip186)" />
  </g>
</svg>