<?xml version="1.0" encoding="utf-8"?>
<svg version="1.1" xmlns:xlink="http://www.w3.org/1999/xlink" width="14px" height="14px" xmlns="http://www.w3.org/2000/svg">
  <defs>
    <pattern id="BGPattern" patternUnits="userSpaceOnUse" alignment="0 0" imageRepeat="None" />
    <mask fill="white" id="Clip41">
      <path d="M 13.400000000000002 12.183999999999997  C 13.400000000000002 12.871999999999996  12.856000000000002 13.399999999999999  12.184000000000001 13.399999999999999  C 11.880000000000003 13.399999999999999  11.560000000000002 13.288  11.336000000000002 13.047999999999998  L 3.0000000000000018 4.679999999999998  L 3.0000000000000018 9.799999999999997  C 3.0000000000000018 10.487999999999996  2.4880000000000013 10.999999999999996  1.7840000000000025 10.999999999999996  C 1.0960000000000019 10.999999999999996  0.6000000000000032 10.487999999999996  0.6000000000000032 9.799999999999997  L 0.6000000000000032 1.7839999999999971  C 0.6000000000000032 1.0959999999999965  1.0960000000000036 0.5999999999999979  1.7840000000000025 0.5999999999999979  L 9.800000000000004 0.5999999999999979  C 10.488000000000003 0.5999999999999979  11.000000000000004 1.0959999999999983  11.000000000000004 1.7839999999999971  C 11.000000000000004 2.471999999999996  10.488000000000003 2.9999999999999964  9.800000000000004 2.9999999999999964  L 4.680000000000003 2.9999999999999964  L 13.048000000000002 11.335999999999999  C 13.288 11.559999999999999  13.400000000000002 11.879999999999999  13.400000000000002 12.183999999999997  Z " fill-rule="evenodd" />
    </mask>
  </defs>
  <g>
    <path d="M 13.400000000000002 12.183999999999997  C 13.400000000000002 12.871999999999996  12.856000000000002 13.399999999999999  12.184000000000001 13.399999999999999  C 11.880000000000003 13.399999999999999  11.560000000000002 13.288  11.336000000000002 13.047999999999998  L 3.0000000000000018 4.679999999999998  L 3.0000000000000018 9.799999999999997  C 3.0000000000000018 10.487999999999996  2.4880000000000013 10.999999999999996  1.7840000000000025 10.999999999999996  C 1.0960000000000019 10.999999999999996  0.6000000000000032 10.487999999999996  0.6000000000000032 9.799999999999997  L 0.6000000000000032 1.7839999999999971  C 0.6000000000000032 1.0959999999999965  1.0960000000000036 0.5999999999999979  1.7840000000000025 0.5999999999999979  L 9.800000000000004 0.5999999999999979  C 10.488000000000003 0.5999999999999979  11.000000000000004 1.0959999999999983  11.000000000000004 1.7839999999999971  C 11.000000000000004 2.471999999999996  10.488000000000003 2.9999999999999964  9.800000000000004 2.9999999999999964  L 4.680000000000003 2.9999999999999964  L 13.048000000000002 11.335999999999999  C 13.288 11.559999999999999  13.400000000000002 11.879999999999999  13.400000000000002 12.183999999999997  Z " fill-rule="nonzero" fill="rgba(0, 0, 0, 1)" stroke="none" class="fill" />
    <path d="M 13.400000000000002 12.183999999999997  C 13.400000000000002 12.871999999999996  12.856000000000002 13.399999999999999  12.184000000000001 13.399999999999999  C 11.880000000000003 13.399999999999999  11.560000000000002 13.288  11.336000000000002 13.047999999999998  L 3.0000000000000018 4.679999999999998  L 3.0000000000000018 9.799999999999997  C 3.0000000000000018 10.487999999999996  2.4880000000000013 10.999999999999996  1.7840000000000025 10.999999999999996  C 1.0960000000000019 10.999999999999996  0.6000000000000032 10.487999999999996  0.6000000000000032 9.799999999999997  L 0.6000000000000032 1.7839999999999971  C 0.6000000000000032 1.0959999999999965  1.0960000000000036 0.5999999999999979  1.7840000000000025 0.5999999999999979  L 9.800000000000004 0.5999999999999979  C 10.488000000000003 0.5999999999999979  11.000000000000004 1.0959999999999983  11.000000000000004 1.7839999999999971  C 11.000000000000004 2.471999999999996  10.488000000000003 2.9999999999999964  9.800000000000004 2.9999999999999964  L 4.680000000000003 2.9999999999999964  L 13.048000000000002 11.335999999999999  C 13.288 11.559999999999999  13.400000000000002 11.879999999999999  13.400000000000002 12.183999999999997  Z " stroke-width="0" stroke-dasharray="0" stroke="rgba(255, 255, 255, 0)" fill="none" class="stroke" mask="url(#Clip41)" />
  </g>
</svg>