<?xml version="1.0" encoding="utf-8"?>
<svg version="1.1" xmlns:xlink="http://www.w3.org/1999/xlink" width="38px" height="48px" xmlns="http://www.w3.org/2000/svg">
  <defs>
    <pattern id="BGPattern" patternUnits="userSpaceOnUse" alignment="0 0" imageRepeat="None" />
    <mask fill="white" id="Clip7058">
      <path d="M 37.4 29.400000000000006  C 33.8 33.400000000000006  27 36.2  19.4 36.2  C 11.799999999999997 36.2  4.999999999999998 33.400000000000006  1.3999999999999986 29.400000000000002  C 2.7999999999999985 33  5.199999999999999 36.2  8.399999999999999 38.400000000000006  C 11.599999999999998 40.60000000000001  15.399999999999999 41.800000000000004  19.4 41.800000000000004  C 23.4 41.800000000000004  27.199999999999996 40.6  30.4 38.400000000000006  C 33.6 36.20000000000001  36 33.00000000000001  37.4 29.400000000000006  Z M 1.3999999999999986 16.6  C 4.999999999999998 12.400000000000002  11.599999999999998 9.8  19.4 9.8  C 27 9.8  33.8 12.600000000000001  37.4 16.6  C 36 13.000000000000002  33.6 9.8  30.4 7.600000000000001  C 27 5.2  23.2 4  19.4 4  C 15.399999999999999 4  11.599999999999998 5.2  8.399999999999999 7.4  C 5.199999999999999 9.8  2.7999999999999985 12.8  1.3999999999999986 16.6  Z M 33.4 0.2000000000000005  C 31.853602700473772 0.2000000000000005  30.599999999999994 1.4536027004737788  30.599999999999994 3.000000000000001  C 30.599999999999994 4.546397299526222  31.853602700473772 5.8  33.4 5.8  C 34.94639729952622 5.8  36.199999999999996 4.546397299526222  36.199999999999996 3.000000000000001  C 36.199999999999996 1.4536027004737788  34.94639729952622 0.2000000000000005  33.4 0.2000000000000005  Z M 5.199999999999999 40.6  C 3.211774900609146 40.6  1.599999999999997 42.21177490060914  1.599999999999997 44.199999999999996  C 1.599999999999997 46.18822509939086  3.211774900609143 47.8  5.199999999999999 47.8  C 7.188225099390854 47.8  8.800000000000002 46.188225099390856  8.800000000000002 44.199999999999996  C 8.800000000000002 42.211774900609136  7.188225099390857 40.6  5.199999999999999 40.6  Z M 2.2 4.6  C 1.0954305003384128 4.6  0.2000000000000002 5.495430500338413  0.2000000000000002 6.6  C 0.2000000000000002 7.704569499661586  1.0954305003384128 8.6  2.2 8.6  C 3.3045694996615875 8.6  4.199999999999999 7.704569499661586  4.199999999999999 6.6  C 4.199999999999999 5.495430500338414  3.304569499661586 4.6  2.2 4.6  Z " fill-rule="evenodd" />
    </mask>
  </defs>
  <g>
    <path d="M 37.4 29.400000000000006  C 33.8 33.400000000000006  27 36.2  19.4 36.2  C 11.799999999999997 36.2  4.999999999999998 33.400000000000006  1.3999999999999986 29.400000000000002  C 2.7999999999999985 33  5.199999999999999 36.2  8.399999999999999 38.400000000000006  C 11.599999999999998 40.60000000000001  15.399999999999999 41.800000000000004  19.4 41.800000000000004  C 23.4 41.800000000000004  27.199999999999996 40.6  30.4 38.400000000000006  C 33.6 36.20000000000001  36 33.00000000000001  37.4 29.400000000000006  Z M 1.3999999999999986 16.6  C 4.999999999999998 12.400000000000002  11.599999999999998 9.8  19.4 9.8  C 27 9.8  33.8 12.600000000000001  37.4 16.6  C 36 13.000000000000002  33.6 9.8  30.4 7.600000000000001  C 27 5.2  23.2 4  19.4 4  C 15.399999999999999 4  11.599999999999998 5.2  8.399999999999999 7.4  C 5.199999999999999 9.8  2.7999999999999985 12.8  1.3999999999999986 16.6  Z M 33.4 0.2000000000000005  C 31.853602700473772 0.2000000000000005  30.599999999999994 1.4536027004737788  30.599999999999994 3.000000000000001  C 30.599999999999994 4.546397299526222  31.853602700473772 5.8  33.4 5.8  C 34.94639729952622 5.8  36.199999999999996 4.546397299526222  36.199999999999996 3.000000000000001  C 36.199999999999996 1.4536027004737788  34.94639729952622 0.2000000000000005  33.4 0.2000000000000005  Z M 5.199999999999999 40.6  C 3.211774900609146 40.6  1.599999999999997 42.21177490060914  1.599999999999997 44.199999999999996  C 1.599999999999997 46.18822509939086  3.211774900609143 47.8  5.199999999999999 47.8  C 7.188225099390854 47.8  8.800000000000002 46.188225099390856  8.800000000000002 44.199999999999996  C 8.800000000000002 42.211774900609136  7.188225099390857 40.6  5.199999999999999 40.6  Z M 2.2 4.6  C 1.0954305003384128 4.6  0.2000000000000002 5.495430500338413  0.2000000000000002 6.6  C 0.2000000000000002 7.704569499661586  1.0954305003384128 8.6  2.2 8.6  C 3.3045694996615875 8.6  4.199999999999999 7.704569499661586  4.199999999999999 6.6  C 4.199999999999999 5.495430500338414  3.304569499661586 4.6  2.2 4.6  Z " fill-rule="nonzero" fill="rgba(243, 118, 38, 1)" stroke="none" class="fill" />
    <path d="M 37.4 29.400000000000006  C 33.8 33.400000000000006  27 36.2  19.4 36.2  C 11.799999999999997 36.2  4.999999999999998 33.400000000000006  1.3999999999999986 29.400000000000002  C 2.7999999999999985 33  5.199999999999999 36.2  8.399999999999999 38.400000000000006  C 11.599999999999998 40.60000000000001  15.399999999999999 41.800000000000004  19.4 41.800000000000004  C 23.4 41.800000000000004  27.199999999999996 40.6  30.4 38.400000000000006  C 33.6 36.20000000000001  36 33.00000000000001  37.4 29.400000000000006  Z " stroke-width="0" stroke-dasharray="0" stroke="rgba(255, 255, 255, 0)" fill="none" class="stroke" mask="url(#Clip7058)" />
    <path d="M 1.3999999999999986 16.6  C 4.999999999999998 12.400000000000002  11.599999999999998 9.8  19.4 9.8  C 27 9.8  33.8 12.600000000000001  37.4 16.6  C 36 13.000000000000002  33.6 9.8  30.4 7.600000000000001  C 27 5.2  23.2 4  19.4 4  C 15.399999999999999 4  11.599999999999998 5.2  8.399999999999999 7.4  C 5.199999999999999 9.8  2.7999999999999985 12.8  1.3999999999999986 16.6  Z " stroke-width="0" stroke-dasharray="0" stroke="rgba(255, 255, 255, 0)" fill="none" class="stroke" mask="url(#Clip7058)" />
    <path d="M 33.4 0.2000000000000005  C 31.853602700473772 0.2000000000000005  30.599999999999994 1.4536027004737788  30.599999999999994 3.000000000000001  C 30.599999999999994 4.546397299526222  31.853602700473772 5.8  33.4 5.8  C 34.94639729952622 5.8  36.199999999999996 4.546397299526222  36.199999999999996 3.000000000000001  C 36.199999999999996 1.4536027004737788  34.94639729952622 0.2000000000000005  33.4 0.2000000000000005  Z " stroke-width="0" stroke-dasharray="0" stroke="rgba(255, 255, 255, 0)" fill="none" class="stroke" mask="url(#Clip7058)" />
    <path d="M 5.199999999999999 40.6  C 3.211774900609146 40.6  1.599999999999997 42.21177490060914  1.599999999999997 44.199999999999996  C 1.599999999999997 46.18822509939086  3.211774900609143 47.8  5.199999999999999 47.8  C 7.188225099390854 47.8  8.800000000000002 46.188225099390856  8.800000000000002 44.199999999999996  C 8.800000000000002 42.211774900609136  7.188225099390857 40.6  5.199999999999999 40.6  Z " stroke-width="0" stroke-dasharray="0" stroke="rgba(255, 255, 255, 0)" fill="none" class="stroke" mask="url(#Clip7058)" />
    <path d="M 2.2 4.6  C 1.0954305003384128 4.6  0.2000000000000002 5.495430500338413  0.2000000000000002 6.6  C 0.2000000000000002 7.704569499661586  1.0954305003384128 8.6  2.2 8.6  C 3.3045694996615875 8.6  4.199999999999999 7.704569499661586  4.199999999999999 6.6  C 4.199999999999999 5.495430500338414  3.304569499661586 4.6  2.2 4.6  Z " stroke-width="0" stroke-dasharray="0" stroke="rgba(255, 255, 255, 0)" fill="none" class="stroke" mask="url(#Clip7058)" />
  </g>
</svg>