<?xml version="1.0" encoding="utf-8"?>
<svg version="1.1" xmlns:xlink="http://www.w3.org/1999/xlink" width="48px" height="48px" xmlns="http://www.w3.org/2000/svg">
  <defs>
    <pattern id="BGPattern" patternUnits="userSpaceOnUse" alignment="0 0" imageRepeat="None" />
    <mask fill="white" id="Clip7145">
      <path d="M 23 25  L 23 48  L 0 48  L 0 25  L 23 25  Z M 48 25  L 48 48  L 25 48  L 25 25  L 48 25  Z M 23 0  L 23 23  L 0 23  L 0 0  L 23 0  Z M 48 0  L 48 23  L 25 23  L 25 0  L 48 0  Z " fill-rule="evenodd" />
    </mask>
  </defs>
  <g>
    <path d="M 23 25  L 23 48  L 0 48  L 0 25  L 23 25  Z M 48 25  L 48 48  L 25 48  L 25 25  L 48 25  Z M 23 0  L 23 23  L 0 23  L 0 0  L 23 0  Z M 48 0  L 48 23  L 25 23  L 25 0  L 48 0  Z " fill-rule="nonzero" fill="rgba(102, 102, 102, 1)" stroke="none" class="fill" />
    <path d="M 23 25  L 23 48  L 0 48  L 0 25  L 23 25  Z " stroke-width="0" stroke-dasharray="0" stroke="rgba(255, 255, 255, 0)" fill="none" class="stroke" mask="url(#Clip7145)" />
    <path d="M 48 25  L 48 48  L 25 48  L 25 25  L 48 25  Z " stroke-width="0" stroke-dasharray="0" stroke="rgba(255, 255, 255, 0)" fill="none" class="stroke" mask="url(#Clip7145)" />
    <path d="M 23 0  L 23 23  L 0 23  L 0 0  L 23 0  Z " stroke-width="0" stroke-dasharray="0" stroke="rgba(255, 255, 255, 0)" fill="none" class="stroke" mask="url(#Clip7145)" />
    <path d="M 48 0  L 48 23  L 25 23  L 25 0  L 48 0  Z " stroke-width="0" stroke-dasharray="0" stroke="rgba(255, 255, 255, 0)" fill="none" class="stroke" mask="url(#Clip7145)" />
  </g>
</svg>