<?xml version="1.0" encoding="utf-8"?>
<svg version="1.1" xmlns:xlink="http://www.w3.org/1999/xlink" width="28px" height="20px" xmlns="http://www.w3.org/2000/svg">
  <defs>
    <pattern id="BGPattern" patternUnits="userSpaceOnUse" alignment="0 0" imageRepeat="None" />
    <mask fill="white" id="Clip3345">
      <path d="M 28 2  C 28 0.8954305003384135  27.104569499661586 0  26 0  L 2 0  C 0.895430500338413 0  0 0.8954305003384135  0 2  L 0 18  C 0 19.104569499661586  0.895430500338413 20  2 20  L 26 20  C 27.104569499661586 20  28 19.104569499661586  28 18  L 28 2  Z M 12 5  L 12 15  L 10 15  L 10 11  L 6 11  L 6 5  L 8 5  L 8 9  L 10 9  L 10 5  L 12 5  Z M 19.19 9.379999999999999  L 22.189999999999998 15  L 20 15  L 17.91 10.940000000000001  L 17 12.27  L 17 15  L 15 15  L 15 5  L 17 5  L 17 9.39  L 20 5  L 22.19 5  L 19.19 9.379999999999999  Z " fill-rule="evenodd" />
    </mask>
  </defs>
  <g transform="matrix(1 0 0 1 -2 -6 )">
    <path d="M 28 2  C 28 0.8954305003384135  27.104569499661586 0  26 0  L 2 0  C 0.895430500338413 0  0 0.8954305003384135  0 2  L 0 18  C 0 19.104569499661586  0.895430500338413 20  2 20  L 26 20  C 27.104569499661586 20  28 19.104569499661586  28 18  L 28 2  Z M 12 5  L 12 15  L 10 15  L 10 11  L 6 11  L 6 5  L 8 5  L 8 9  L 10 9  L 10 5  L 12 5  Z M 19.19 9.379999999999999  L 22.189999999999998 15  L 20 15  L 17.91 10.940000000000001  L 17 12.27  L 17 15  L 15 15  L 15 5  L 17 5  L 17 9.39  L 20 5  L 22.19 5  L 19.19 9.379999999999999  Z " fill-rule="nonzero" fill="rgba(0, 0, 0, 1)" stroke="none" transform="matrix(1 0 0 1 2 6 )" class="fill" />
    <path d="M 28 2  C 28 0.8954305003384135  27.104569499661586 0  26 0  L 2 0  C 0.895430500338413 0  0 0.8954305003384135  0 2  L 0 18  C 0 19.104569499661586  0.895430500338413 20  2 20  L 26 20  C 27.104569499661586 20  28 19.104569499661586  28 18  L 28 2  Z " stroke-width="0" stroke-dasharray="0" stroke="rgba(255, 255, 255, 0)" fill="none" transform="matrix(1 0 0 1 2 6 )" class="stroke" mask="url(#Clip3345)" />
    <path d="M 12 5  L 12 15  L 10 15  L 10 11  L 6 11  L 6 5  L 8 5  L 8 9  L 10 9  L 10 5  L 12 5  Z " stroke-width="0" stroke-dasharray="0" stroke="rgba(255, 255, 255, 0)" fill="none" transform="matrix(1 0 0 1 2 6 )" class="stroke" mask="url(#Clip3345)" />
    <path d="M 19.19 9.379999999999999  L 22.189999999999998 15  L 20 15  L 17.91 10.940000000000001  L 17 12.27  L 17 15  L 15 15  L 15 5  L 17 5  L 17 9.39  L 20 5  L 22.19 5  L 19.19 9.379999999999999  Z " stroke-width="0" stroke-dasharray="0" stroke="rgba(255, 255, 255, 0)" fill="none" transform="matrix(1 0 0 1 2 6 )" class="stroke" mask="url(#Clip3345)" />
  </g>
</svg>