<?xml version="1.0" encoding="utf-8"?>
<svg version="1.1" xmlns:xlink="http://www.w3.org/1999/xlink" width="12px" height="12px" xmlns="http://www.w3.org/2000/svg">
  <defs>
    <pattern id="BGPattern" patternUnits="userSpaceOnUse" alignment="0 0" imageRepeat="None" />
    <mask fill="white" id="Clip3266">
      <path d="M 11 6  L 11 11  L 1 11  L 1 1  L 6 1  L 6 0  L 1 0  C 0.3999999999999999 0  0 0.3999999999999999  0 1  L 0 11  C 0 11.6  0.3999999999999999 12  1 12  L 11 12  C 11.6 12  12 11.6  12 11  L 12 6  L 11 6  Z " fill-rule="evenodd" />
    </mask>
  </defs>
  <g transform="matrix(1 0 0 1 -2 -2 )">
    <path d="M 11 6  L 11 11  L 1 11  L 1 1  L 6 1  L 6 0  L 1 0  C 0.3999999999999999 0  0 0.3999999999999999  0 1  L 0 11  C 0 11.6  0.3999999999999999 12  1 12  L 11 12  C 11.6 12  12 11.6  12 11  L 12 6  L 11 6  Z " fill-rule="nonzero" fill="rgba(0, 0, 0, 1)" stroke="none" transform="matrix(1 0 0 1 2 2 )" class="fill" />
    <path d="M 11 6  L 11 11  L 1 11  L 1 1  L 6 1  L 6 0  L 1 0  C 0.3999999999999999 0  0 0.3999999999999999  0 1  L 0 11  C 0 11.6  0.3999999999999999 12  1 12  L 11 12  C 11.6 12  12 11.6  12 11  L 12 6  L 11 6  Z " stroke-width="0" stroke-dasharray="0" stroke="rgba(255, 255, 255, 0)" fill="none" transform="matrix(1 0 0 1 2 2 )" class="stroke" mask="url(#Clip3266)" />
  </g>
</svg>