<?xml version="1.0" encoding="utf-8"?>
<svg version="1.1" xmlns:xlink="http://www.w3.org/1999/xlink" width="5px" height="5px" xmlns="http://www.w3.org/2000/svg">
  <defs>
    <pattern id="BGPattern" patternUnits="userSpaceOnUse" alignment="0 0" imageRepeat="None" />
    <mask fill="white" id="Clip3267">
      <path d="M 5 2  L 3 2  L 3 0  L 2 0  L 2 2  L 0 2  L 0 3  L 2 3  L 2 5  L 3 5  L 3 3  L 5 3  L 5 2  Z " fill-rule="evenodd" />
    </mask>
  </defs>
  <g transform="matrix(1 0 0 1 -10 -1 )">
    <path d="M 5 2  L 3 2  L 3 0  L 2 0  L 2 2  L 0 2  L 0 3  L 2 3  L 2 5  L 3 5  L 3 3  L 5 3  L 5 2  Z " fill-rule="nonzero" fill="rgba(0, 0, 0, 1)" stroke="none" transform="matrix(1 0 0 1 10 1 )" class="fill" />
    <path d="M 5 2  L 3 2  L 3 0  L 2 0  L 2 2  L 0 2  L 0 3  L 2 3  L 2 5  L 3 5  L 3 3  L 5 3  L 5 2  Z " stroke-width="0" stroke-dasharray="0" stroke="rgba(255, 255, 255, 0)" fill="none" transform="matrix(1 0 0 1 10 1 )" class="stroke" mask="url(#Clip3267)" />
  </g>
</svg>