<?xml version="1.0" encoding="utf-8"?>
<svg version="1.1" xmlns:xlink="http://www.w3.org/1999/xlink" width="50px" height="50px" xmlns="http://www.w3.org/2000/svg">
  <defs>
    <pattern id="BGPattern" patternUnits="userSpaceOnUse" alignment="0 0" imageRepeat="None" />
    <mask fill="white" id="Clip1188">
      <path d="M 49.85380116959064 5.399610136452253  C 50.44834307992201 1.4912280701754526  46.25730994152046 -1.306042884990262  42.8849902534113 0.6335282651072021  L 2.33918128654971 24.015594541910332  C -1.0136452241715403 25.955165692007796  -0.6920077972709535 30.916179337231963  2.89473684210526 32.387914230019476  L 14.035087719298248 36.99805068226121  L 14.035087719298248 45.22417153996102  C 14.035087719298248 49.74658869395711  19.805068226120852 51.608187134502934  22.475633528265107 48.01169590643275  L 26.744639376218316 42.2514619883041  L 37.651072124756325 46.754385964912274  C 38.2261208576998 46.98830409356725  38.83040935672514 47.10526315789474  39.434697855750485 47.10526315789474  C 40.23391812865496 47.10526315789474  41.0233918128655 46.900584795321635  41.73489278752436 46.50097465886938  C 42.98245614035088 45.799220272904506  43.8401559454191 44.55165692007796  44.06432748538012 43.138401559454195  L 49.85380116959064 5.399610136452253  Z M 22.280701754385973 40.399610136452225  L 18.713450292397653 45.22417153996102  L 18.713450292397653 38.927875243664715  L 22.280701754385973 40.399610136452225  Z M 45.22417153996102 4.678362573099406  L 39.434697855750485 42.426900584795334  L 24.444444444444443 36.23781676413256  L 38.10916179337232 16.520467836257296  C 39.152046783625735 15.009746588693956  37.1832358674464 13.255360623781684  35.79922027290448 14.454191033138414  L 15.18518518518519 32.417153996101376  L 4.67836257309942 28.070175438596497  L 45.22417153996102 4.678362573099406  Z " fill-rule="evenodd" />
    </mask>
  </defs>
  <g>
    <path d="M 49.85380116959064 5.399610136452253  C 50.44834307992201 1.4912280701754526  46.25730994152046 -1.306042884990262  42.8849902534113 0.6335282651072021  L 2.33918128654971 24.015594541910332  C -1.0136452241715403 25.955165692007796  -0.6920077972709535 30.916179337231963  2.89473684210526 32.387914230019476  L 14.035087719298248 36.99805068226121  L 14.035087719298248 45.22417153996102  C 14.035087719298248 49.74658869395711  19.805068226120852 51.608187134502934  22.475633528265107 48.01169590643275  L 26.744639376218316 42.2514619883041  L 37.651072124756325 46.754385964912274  C 38.2261208576998 46.98830409356725  38.83040935672514 47.10526315789474  39.434697855750485 47.10526315789474  C 40.23391812865496 47.10526315789474  41.0233918128655 46.900584795321635  41.73489278752436 46.50097465886938  C 42.98245614035088 45.799220272904506  43.8401559454191 44.55165692007796  44.06432748538012 43.138401559454195  L 49.85380116959064 5.399610136452253  Z M 22.280701754385973 40.399610136452225  L 18.713450292397653 45.22417153996102  L 18.713450292397653 38.927875243664715  L 22.280701754385973 40.399610136452225  Z M 45.22417153996102 4.678362573099406  L 39.434697855750485 42.426900584795334  L 24.444444444444443 36.23781676413256  L 38.10916179337232 16.520467836257296  C 39.152046783625735 15.009746588693956  37.1832358674464 13.255360623781684  35.79922027290448 14.454191033138414  L 15.18518518518519 32.417153996101376  L 4.67836257309942 28.070175438596497  L 45.22417153996102 4.678362573099406  Z " fill-rule="nonzero" fill="rgba(0, 0, 0, 1)" stroke="none" class="fill" />
    <path d="M 49.85380116959064 5.399610136452253  C 50.44834307992201 1.4912280701754526  46.25730994152046 -1.306042884990262  42.8849902534113 0.6335282651072021  L 2.33918128654971 24.015594541910332  C -1.0136452241715403 25.955165692007796  -0.6920077972709535 30.916179337231963  2.89473684210526 32.387914230019476  L 14.035087719298248 36.99805068226121  L 14.035087719298248 45.22417153996102  C 14.035087719298248 49.74658869395711  19.805068226120852 51.608187134502934  22.475633528265107 48.01169590643275  L 26.744639376218316 42.2514619883041  L 37.651072124756325 46.754385964912274  C 38.2261208576998 46.98830409356725  38.83040935672514 47.10526315789474  39.434697855750485 47.10526315789474  C 40.23391812865496 47.10526315789474  41.0233918128655 46.900584795321635  41.73489278752436 46.50097465886938  C 42.98245614035088 45.799220272904506  43.8401559454191 44.55165692007796  44.06432748538012 43.138401559454195  L 49.85380116959064 5.399610136452253  Z " stroke-width="0" stroke-dasharray="0" stroke="rgba(255, 255, 255, 0)" fill="none" class="stroke" mask="url(#Clip1188)" />
    <path d="M 22.280701754385973 40.399610136452225  L 18.713450292397653 45.22417153996102  L 18.713450292397653 38.927875243664715  L 22.280701754385973 40.399610136452225  Z " stroke-width="0" stroke-dasharray="0" stroke="rgba(255, 255, 255, 0)" fill="none" class="stroke" mask="url(#Clip1188)" />
    <path d="M 45.22417153996102 4.678362573099406  L 39.434697855750485 42.426900584795334  L 24.444444444444443 36.23781676413256  L 38.10916179337232 16.520467836257296  C 39.152046783625735 15.009746588693956  37.1832358674464 13.255360623781684  35.79922027290448 14.454191033138414  L 15.18518518518519 32.417153996101376  L 4.67836257309942 28.070175438596497  L 45.22417153996102 4.678362573099406  Z " stroke-width="0" stroke-dasharray="0" stroke="rgba(255, 255, 255, 0)" fill="none" class="stroke" mask="url(#Clip1188)" />
  </g>
</svg>