<?xml version="1.0" encoding="utf-8"?>
<svg version="1.1" xmlns:xlink="http://www.w3.org/1999/xlink" width="20px" height="26px" xmlns="http://www.w3.org/2000/svg">
  <defs>
    <pattern id="BGPattern" patternUnits="userSpaceOnUse" alignment="0 0" imageRepeat="None" />
    <mask fill="white" id="Clip266">
      <path d="M 16.336000000000002 25.8  L 3.6639999999999997 25.8  C 1.7759999999999998 25.8  0.40000000000000036 24.424  0.40000000000000036 22.536  L 0.40000000000000036 3.464000000000002  C 0.40000000000000036 1.5760000000000023  1.7759999999999998 0.2000000000000024  3.6639999999999997 0.2000000000000024  L 11.472000000000001 0.2000000000000024  C 12.608 0.2000000000000024  13.632000000000001 0.6160000000000023  14.432000000000002 1.4480000000000022  L 18.432000000000002 5.544000000000002  C 19.200000000000003 6.344000000000003  19.6 7.320000000000002  19.6 8.424000000000003  L 19.6 22.536  C 19.6 24.424  18.224 25.8  16.336000000000002 25.8  Z M 2 22.535999999999998  C 2.0000000000000018 23.543999999999997  2.6560000000000024 24.2  3.6639999999999997 24  L 16.336 24  C 17.343999999999998 24.2  18 23.544  18 22.535999999999998  L 18 8.423999999999998  C 18 7.719999999999996  17.776 7.159999999999998  17.28 6.647999999999998  L 13.280000000000001 2.551999999999998  C 12.784000000000002 2.0399999999999974  12.208000000000002 1.799999999999998  11.472000000000001 1.799999999999998  L 3.6640000000000015 1.799999999999998  C 2.6560000000000024 1.799999999999998  2.0000000000000018 2.4559999999999977  2 3.4639999999999977  L 2 22.535999999999998  Z M 12.239999999999998 18.696  C 11.823999999999998 19.176000000000002  11.247999999999998 19.48  10.623999999999999 19.48  C 9.408 19.48  8.783999999999999 18.328  8.783999999999999 16.92  C 8.783999999999999 15.464000000000002  9.568 14.312000000000003  10.927999999999997 14.312000000000003  C 11.439999999999998 14.312000000000003  11.823999999999998 14.455999999999998  12.175999999999998 14.808  L 12.175999999999998 12.168  L 13.439999999999998 12.168  L 13.439999999999998 19.4  L 12.639999999999997 19.4  C 12.479999999999997 19.4  12.367999999999999 19.336  12.335999999999999 19.192  L 12.239999999999998 18.696  Z M 7.76 19.4  L 6.48 19.4  L 6.48 12.36  L 7.76 12.36  L 7.76 19.4  Z M 10.015999999999998 16.920000000000005  C 10.015999999999998 17.896000000000004  10.271999999999998 18.520000000000007  11.04 18.52  C 11.456 18.52  11.823999999999998 18.344  12.175999999999998 17.928  L 12.175999999999998 15.688000000000004  C 11.919999999999998 15.384000000000004  11.599999999999998 15.224000000000004  11.2 15.224000000000004  C 10.399999999999999 15.224000000000004  10.015999999999998 15.896000000000004  10.015999999999998 16.920000000000005  Z " fill-rule="evenodd" />
    </mask>
  </defs>
  <g>
    <path d="M 16.336000000000002 25.8  L 3.6639999999999997 25.8  C 1.7759999999999998 25.8  0.40000000000000036 24.424  0.40000000000000036 22.536  L 0.40000000000000036 3.464000000000002  C 0.40000000000000036 1.5760000000000023  1.7759999999999998 0.2000000000000024  3.6639999999999997 0.2000000000000024  L 11.472000000000001 0.2000000000000024  C 12.608 0.2000000000000024  13.632000000000001 0.6160000000000023  14.432000000000002 1.4480000000000022  L 18.432000000000002 5.544000000000002  C 19.200000000000003 6.344000000000003  19.6 7.320000000000002  19.6 8.424000000000003  L 19.6 22.536  C 19.6 24.424  18.224 25.8  16.336000000000002 25.8  Z M 2 22.535999999999998  C 2.0000000000000018 23.543999999999997  2.6560000000000024 24.2  3.6639999999999997 24  L 16.336 24  C 17.343999999999998 24.2  18 23.544  18 22.535999999999998  L 18 8.423999999999998  C 18 7.719999999999996  17.776 7.159999999999998  17.28 6.647999999999998  L 13.280000000000001 2.551999999999998  C 12.784000000000002 2.0399999999999974  12.208000000000002 1.799999999999998  11.472000000000001 1.799999999999998  L 3.6640000000000015 1.799999999999998  C 2.6560000000000024 1.799999999999998  2.0000000000000018 2.4559999999999977  2 3.4639999999999977  L 2 22.535999999999998  Z M 12.239999999999998 18.696  C 11.823999999999998 19.176000000000002  11.247999999999998 19.48  10.623999999999999 19.48  C 9.408 19.48  8.783999999999999 18.328  8.783999999999999 16.92  C 8.783999999999999 15.464000000000002  9.568 14.312000000000003  10.927999999999997 14.312000000000003  C 11.439999999999998 14.312000000000003  11.823999999999998 14.455999999999998  12.175999999999998 14.808  L 12.175999999999998 12.168  L 13.439999999999998 12.168  L 13.439999999999998 19.4  L 12.639999999999997 19.4  C 12.479999999999997 19.4  12.367999999999999 19.336  12.335999999999999 19.192  L 12.239999999999998 18.696  Z M 7.76 19.4  L 6.48 19.4  L 6.48 12.36  L 7.76 12.36  L 7.76 19.4  Z M 10.015999999999998 16.920000000000005  C 10.015999999999998 17.896000000000004  10.271999999999998 18.520000000000007  11.04 18.52  C 11.456 18.52  11.823999999999998 18.344  12.175999999999998 17.928  L 12.175999999999998 15.688000000000004  C 11.919999999999998 15.384000000000004  11.599999999999998 15.224000000000004  11.2 15.224000000000004  C 10.399999999999999 15.224000000000004  10.015999999999998 15.896000000000004  10.015999999999998 16.920000000000005  Z " fill-rule="nonzero" fill="rgba(0, 0, 0, 1)" stroke="none" class="fill" />
    <path d="M 16.336000000000002 25.8  L 3.6639999999999997 25.8  C 1.7759999999999998 25.8  0.40000000000000036 24.424  0.40000000000000036 22.536  L 0.40000000000000036 3.464000000000002  C 0.40000000000000036 1.5760000000000023  1.7759999999999998 0.2000000000000024  3.6639999999999997 0.2000000000000024  L 11.472000000000001 0.2000000000000024  C 12.608 0.2000000000000024  13.632000000000001 0.6160000000000023  14.432000000000002 1.4480000000000022  L 18.432000000000002 5.544000000000002  C 19.200000000000003 6.344000000000003  19.6 7.320000000000002  19.6 8.424000000000003  L 19.6 22.536  C 19.6 24.424  18.224 25.8  16.336000000000002 25.8  Z " stroke-width="0" stroke-dasharray="0" stroke="rgba(255, 255, 255, 0)" fill="none" class="stroke" mask="url(#Clip266)" />
    <path d="M 2 22.535999999999998  C 2.0000000000000018 23.543999999999997  2.6560000000000024 24.2  3.6639999999999997 24  L 16.336 24  C 17.343999999999998 24.2  18 23.544  18 22.535999999999998  L 18 8.423999999999998  C 18 7.719999999999996  17.776 7.159999999999998  17.28 6.647999999999998  L 13.280000000000001 2.551999999999998  C 12.784000000000002 2.0399999999999974  12.208000000000002 1.799999999999998  11.472000000000001 1.799999999999998  L 3.6640000000000015 1.799999999999998  C 2.6560000000000024 1.799999999999998  2.0000000000000018 2.4559999999999977  2 3.4639999999999977  L 2 22.535999999999998  Z " stroke-width="0" stroke-dasharray="0" stroke="rgba(255, 255, 255, 0)" fill="none" class="stroke" mask="url(#Clip266)" />
    <path d="M 12.239999999999998 18.696  C 11.823999999999998 19.176000000000002  11.247999999999998 19.48  10.623999999999999 19.48  C 9.408 19.48  8.783999999999999 18.328  8.783999999999999 16.92  C 8.783999999999999 15.464000000000002  9.568 14.312000000000003  10.927999999999997 14.312000000000003  C 11.439999999999998 14.312000000000003  11.823999999999998 14.455999999999998  12.175999999999998 14.808  L 12.175999999999998 12.168  L 13.439999999999998 12.168  L 13.439999999999998 19.4  L 12.639999999999997 19.4  C 12.479999999999997 19.4  12.367999999999999 19.336  12.335999999999999 19.192  L 12.239999999999998 18.696  Z " stroke-width="0" stroke-dasharray="0" stroke="rgba(255, 255, 255, 0)" fill="none" class="stroke" mask="url(#Clip266)" />
    <path d="M 7.76 19.4  L 6.48 19.4  L 6.48 12.36  L 7.76 12.36  L 7.76 19.4  Z " stroke-width="0" stroke-dasharray="0" stroke="rgba(255, 255, 255, 0)" fill="none" class="stroke" mask="url(#Clip266)" />
    <path d="M 10.015999999999998 16.920000000000005  C 10.015999999999998 17.896000000000004  10.271999999999998 18.520000000000007  11.04 18.52  C 11.456 18.52  11.823999999999998 18.344  12.175999999999998 17.928  L 12.175999999999998 15.688000000000004  C 11.919999999999998 15.384000000000004  11.599999999999998 15.224000000000004  11.2 15.224000000000004  C 10.399999999999999 15.224000000000004  10.015999999999998 15.896000000000004  10.015999999999998 16.920000000000005  Z " stroke-width="0" stroke-dasharray="0" stroke="rgba(255, 255, 255, 0)" fill="none" class="stroke" mask="url(#Clip266)" />
  </g>
</svg>