<?xml version="1.0" encoding="utf-8"?>
<svg version="1.1" xmlns:xlink="http://www.w3.org/1999/xlink" width="16px" height="16px" xmlns="http://www.w3.org/2000/svg">
  <defs>
    <pattern id="BGPattern" patternUnits="userSpaceOnUse" alignment="0 0" imageRepeat="None" />
    <mask fill="white" id="Clip3822">
      <path d="M 2 3  L 2 16  L 0 16  L 0 2.9999999999999996  C 0.0018187111364341702 1.3438996703184607  1.3438996703184607 0.0018187111364340591  3 0  L 16 0  L 16 2  L 3 2  C 2.448012177328516 2.000716188507495  2.000716188507495 2.448012177328516  2 3  Z " fill-rule="evenodd" />
    </mask>
  </defs>
  <g transform="matrix(1 0 0 1 -1 -1 )">
    <path d="M 2 3  L 2 16  L 0 16  L 0 2.9999999999999996  C 0.0018187111364341702 1.3438996703184607  1.3438996703184607 0.0018187111364340591  3 0  L 16 0  L 16 2  L 3 2  C 2.448012177328516 2.000716188507495  2.000716188507495 2.448012177328516  2 3  Z " fill-rule="nonzero" fill="rgba(0, 0, 0, 1)" stroke="none" transform="matrix(1 0 0 1 1 1 )" class="fill" />
    <path d="M 2 3  L 2 16  L 0 16  L 0 2.9999999999999996  C 0.0018187111364341702 1.3438996703184607  1.3438996703184607 0.0018187111364340591  3 0  L 16 0  L 16 2  L 3 2  C 2.448012177328516 2.000716188507495  2.000716188507495 2.448012177328516  2 3  Z " stroke-width="0" stroke-dasharray="0" stroke="rgba(255, 255, 255, 0)" fill="none" transform="matrix(1 0 0 1 1 1 )" class="stroke" mask="url(#Clip3822)" />
  </g>
</svg>