<?xml version="1.0" encoding="utf-8"?>
<svg version="1.1" xmlns:xlink="http://www.w3.org/1999/xlink" width="23px" height="23px" xmlns="http://www.w3.org/2000/svg">
  <defs>
    <pattern id="BGPattern" patternUnits="userSpaceOnUse" alignment="0 0" imageRepeat="None" />
    <mask fill="white" id="Clip3821">
      <path d="M 23 2.9999999999999982  C 22.998181288863567 1.3438996703184607  21.65610032968154 0.001818711136433393  20 0  L 2.9999999999999982 0  C 1.3438996703184607 0.0018187111364342814  0.0018187111364342814 1.3438996703184607  0 3  L 0 14  C 0.0018187111364342814 15.65610032968154  1.3438996703184607 16.998181288863563  3 17  L 9 17  L 9 15  L 3 15  C 2.44792091422846 14.999503798394027  2.000496201605973 14.552079085771538  2 14  L 2 3  C 2.0007161885074947 2.448012177328515  2.448012177328515 2.0007161885074947  3 2  L 20 2  C 20.55207908577154 2.0004962016059746  20.999503798394027 2.44792091422846  21 3  L 21 14  C 20.999669009247892 14.552147590857572  20.552147590857572 14.999669009247896  20 15  L 14.8 15  L 10 21.8535  L 11.6387 23  L 15.840800000000002 17  L 20 17  C 21.65610032968154 16.998181288863563  22.99818128886356 15.65610032968154  23 14  L 23 2.9999999999999982  Z " fill-rule="evenodd" />
    </mask>
  </defs>
  <g transform="matrix(1 0 0 1 -7 -7 )">
    <path d="M 23 2.9999999999999982  C 22.998181288863567 1.3438996703184607  21.65610032968154 0.001818711136433393  20 0  L 2.9999999999999982 0  C 1.3438996703184607 0.0018187111364342814  0.0018187111364342814 1.3438996703184607  0 3  L 0 14  C 0.0018187111364342814 15.65610032968154  1.3438996703184607 16.998181288863563  3 17  L 9 17  L 9 15  L 3 15  C 2.44792091422846 14.999503798394027  2.000496201605973 14.552079085771538  2 14  L 2 3  C 2.0007161885074947 2.448012177328515  2.448012177328515 2.0007161885074947  3 2  L 20 2  C 20.55207908577154 2.0004962016059746  20.999503798394027 2.44792091422846  21 3  L 21 14  C 20.999669009247892 14.552147590857572  20.552147590857572 14.999669009247896  20 15  L 14.8 15  L 10 21.8535  L 11.6387 23  L 15.840800000000002 17  L 20 17  C 21.65610032968154 16.998181288863563  22.99818128886356 15.65610032968154  23 14  L 23 2.9999999999999982  Z " fill-rule="nonzero" fill="rgba(0, 0, 0, 1)" stroke="none" transform="matrix(1 0 0 1 7 7 )" class="fill" />
    <path d="M 23 2.9999999999999982  C 22.998181288863567 1.3438996703184607  21.65610032968154 0.001818711136433393  20 0  L 2.9999999999999982 0  C 1.3438996703184607 0.0018187111364342814  0.0018187111364342814 1.3438996703184607  0 3  L 0 14  C 0.0018187111364342814 15.65610032968154  1.3438996703184607 16.998181288863563  3 17  L 9 17  L 9 15  L 3 15  C 2.44792091422846 14.999503798394027  2.000496201605973 14.552079085771538  2 14  L 2 3  C 2.0007161885074947 2.448012177328515  2.448012177328515 2.0007161885074947  3 2  L 20 2  C 20.55207908577154 2.0004962016059746  20.999503798394027 2.44792091422846  21 3  L 21 14  C 20.999669009247892 14.552147590857572  20.552147590857572 14.999669009247896  20 15  L 14.8 15  L 10 21.8535  L 11.6387 23  L 15.840800000000002 17  L 20 17  C 21.65610032968154 16.998181288863563  22.99818128886356 15.65610032968154  23 14  L 23 2.9999999999999982  Z " stroke-width="0" stroke-dasharray="0" stroke="rgba(255, 255, 255, 0)" fill="none" transform="matrix(1 0 0 1 7 7 )" class="stroke" mask="url(#Clip3821)" />
  </g>
</svg>