<?xml version="1.0" encoding="utf-8"?>
<svg version="1.1" xmlns:xlink="http://www.w3.org/1999/xlink" width="33px" height="49px" xmlns="http://www.w3.org/2000/svg">
  <defs>
    <pattern id="BGPattern" patternUnits="userSpaceOnUse" alignment="0 0" imageRepeat="None" />
    <mask fill="white" id="Clip7403">
      <path d="M 26.608000000000004 7.704000000000001  L 26.61 7.704  C 26.61 7.704  27.29 10.586  25.118000000000002 10.984  C 23.61 11.25  21.172 9.75  19.946 8.258  C 18.43 6.413999999999999  18.626 4.959999999999999  19.796000000000003 3.6779999999999986  C 21.562000000000005 1.717999999999999  24.594 2.477999999999999  24.594 2.477999999999999  C 24.594 2.477999999999999  19.046 -2.3820000000000014  13.274000000000001 1.601999999999999  C 8.134 5.1419999999999995  9.61 9.961999999999998  14.25 14.171999999999999  C 18.43 17.976  15.094000000000001 22.148  10.873999999999999 21.61  C 7.994 21.242  6.814 18.922  7.5 17.5  C 8.100000000000001 16.28  10.172 15.532  10.172 15.532  C 10.172 15.532  7.789999999999999 14.572  4.992000000000001 15.624000000000002  C 2.468 16.57  0.3979999999999997 18.648  1 23.868000000000002  L 1 48.024  C 0.5620000000000012 48.024  3.1640000000000015 44.82  6.226000000000001 41.554  C 9.648 37.874  11.21 35.39  14.725999999999999 35.68  C 21.381999999999998 36.094  26.195999999999998 33.132  29.468000000000004 28.390000000000004  C 35.75 19.266  30.828000000000003 9.07  26.608000000000004 7.704000000000001  Z " fill-rule="evenodd" />
    </mask>
  </defs>
  <g>
    <path d="M 26.608000000000004 7.704000000000001  L 26.61 7.704  C 26.61 7.704  27.29 10.586  25.118000000000002 10.984  C 23.61 11.25  21.172 9.75  19.946 8.258  C 18.43 6.413999999999999  18.626 4.959999999999999  19.796000000000003 3.6779999999999986  C 21.562000000000005 1.717999999999999  24.594 2.477999999999999  24.594 2.477999999999999  C 24.594 2.477999999999999  19.046 -2.3820000000000014  13.274000000000001 1.601999999999999  C 8.134 5.1419999999999995  9.61 9.961999999999998  14.25 14.171999999999999  C 18.43 17.976  15.094000000000001 22.148  10.873999999999999 21.61  C 7.994 21.242  6.814 18.922  7.5 17.5  C 8.100000000000001 16.28  10.172 15.532  10.172 15.532  C 10.172 15.532  7.789999999999999 14.572  4.992000000000001 15.624000000000002  C 2.468 16.57  0.3979999999999997 18.648  1 23.868000000000002  L 1 48.024  C 0.5620000000000012 48.024  3.1640000000000015 44.82  6.226000000000001 41.554  C 9.648 37.874  11.21 35.39  14.725999999999999 35.68  C 21.381999999999998 36.094  26.195999999999998 33.132  29.468000000000004 28.390000000000004  C 35.75 19.266  30.828000000000003 9.07  26.608000000000004 7.704000000000001  Z " fill-rule="nonzero" fill="rgba(229, 53, 37, 1)" stroke="none" class="fill" />
    <path d="M 26.608000000000004 7.704000000000001  L 26.61 7.704  C 26.61 7.704  27.29 10.586  25.118000000000002 10.984  C 23.61 11.25  21.172 9.75  19.946 8.258  C 18.43 6.413999999999999  18.626 4.959999999999999  19.796000000000003 3.6779999999999986  C 21.562000000000005 1.717999999999999  24.594 2.477999999999999  24.594 2.477999999999999  C 24.594 2.477999999999999  19.046 -2.3820000000000014  13.274000000000001 1.601999999999999  C 8.134 5.1419999999999995  9.61 9.961999999999998  14.25 14.171999999999999  C 18.43 17.976  15.094000000000001 22.148  10.873999999999999 21.61  C 7.994 21.242  6.814 18.922  7.5 17.5  C 8.100000000000001 16.28  10.172 15.532  10.172 15.532  C 10.172 15.532  7.789999999999999 14.572  4.992000000000001 15.624000000000002  C 2.468 16.57  0.3979999999999997 18.648  1 23.868000000000002  L 1 48.024  C 0.5620000000000012 48.024  3.1640000000000015 44.82  6.226000000000001 41.554  C 9.648 37.874  11.21 35.39  14.725999999999999 35.68  C 21.381999999999998 36.094  26.195999999999998 33.132  29.468000000000004 28.390000000000004  C 35.75 19.266  30.828000000000003 9.07  26.608000000000004 7.704000000000001  Z " stroke-width="0" stroke-dasharray="0" stroke="rgba(255, 255, 255, 0)" fill="none" class="stroke" mask="url(#Clip7403)" />
  </g>
</svg>