<?xml version="1.0" encoding="utf-8"?>
<svg version="1.1" xmlns:xlink="http://www.w3.org/1999/xlink" width="48px" height="48px" xmlns="http://www.w3.org/2000/svg">
  <defs>
    <pattern id="BGPattern" patternUnits="userSpaceOnUse" alignment="0 0" imageRepeat="None" />
    <mask fill="white" id="Clip7544">
      <path d="M 48 0  L 29.490000000000002 0  C 29.490000000000002 0.084  29.490000000000002 0.17  29.490000000000002 0.258  C 29.490000000000002 3.298  27.026 5.762  23.985999999999997 5.762  C 20.945999999999998 5.762  18.482 3.298  18.482 0.258  C 18.482 0.168  18.482 0.08400000000000002  18.482 0  L 0 0  L 0 48  L 48 48  L 48 0  Z M 26.069999999999993 42.862  L 22.908 42.862  L 20.57 31.296  L 20.53 31.296  L 18.002000000000002 42.862  L 14.780000000000001 42.862  L 11.132 25.868000000000002  L 14.311999999999998 25.868000000000002  L 16.488 37.434000000000005  L 16.528 37.434000000000005  L 19.15 25.868000000000002  L 22.124 25.868000000000002  L 24.477999999999998 37.576  L 24.518 37.576  L 27.001999999999995 25.868000000000002  L 30.123999999999995 25.868000000000002  L 26.069999999999993 42.862  Z M 43.727999999999994 42.861999999999995  L 40.418 42.862  L 39.333999999999996 39.08  L 33.611999999999995 39.08  L 32.77799999999999 42.861999999999995  L 29.597999999999992 42.861999999999995  L 33.709999999999994 25.867999999999995  L 38.727999999999994 25.867999999999995  L 43.727999999999994 42.861999999999995  Z M 36.962 30.055999999999997  L 35.624 30.055999999999997  L 34.236000000000004 36.292  L 38.554 36.292  L 36.962 30.055999999999997  Z " fill-rule="evenodd" />
    </mask>
  </defs>
  <g>
    <path d="M 48 0  L 29.490000000000002 0  C 29.490000000000002 0.084  29.490000000000002 0.17  29.490000000000002 0.258  C 29.490000000000002 3.298  27.026 5.762  23.985999999999997 5.762  C 20.945999999999998 5.762  18.482 3.298  18.482 0.258  C 18.482 0.168  18.482 0.08400000000000002  18.482 0  L 0 0  L 0 48  L 48 48  L 48 0  Z M 26.069999999999993 42.862  L 22.908 42.862  L 20.57 31.296  L 20.53 31.296  L 18.002000000000002 42.862  L 14.780000000000001 42.862  L 11.132 25.868000000000002  L 14.311999999999998 25.868000000000002  L 16.488 37.434000000000005  L 16.528 37.434000000000005  L 19.15 25.868000000000002  L 22.124 25.868000000000002  L 24.477999999999998 37.576  L 24.518 37.576  L 27.001999999999995 25.868000000000002  L 30.123999999999995 25.868000000000002  L 26.069999999999993 42.862  Z M 43.727999999999994 42.861999999999995  L 40.418 42.862  L 39.333999999999996 39.08  L 33.611999999999995 39.08  L 32.77799999999999 42.861999999999995  L 29.597999999999992 42.861999999999995  L 33.709999999999994 25.867999999999995  L 38.727999999999994 25.867999999999995  L 43.727999999999994 42.861999999999995  Z M 36.962 30.055999999999997  L 35.624 30.055999999999997  L 34.236000000000004 36.292  L 38.554 36.292  L 36.962 30.055999999999997  Z " fill-rule="nonzero" fill="rgba(101, 79, 240, 1)" stroke="none" class="fill" />
    <path d="M 48 0  L 29.490000000000002 0  C 29.490000000000002 0.084  29.490000000000002 0.17  29.490000000000002 0.258  C 29.490000000000002 3.298  27.026 5.762  23.985999999999997 5.762  C 20.945999999999998 5.762  18.482 3.298  18.482 0.258  C 18.482 0.168  18.482 0.08400000000000002  18.482 0  L 0 0  L 0 48  L 48 48  L 48 0  Z " stroke-width="0" stroke-dasharray="0" stroke="rgba(255, 255, 255, 0)" fill="none" class="stroke" mask="url(#Clip7544)" />
    <path d="M 26.069999999999993 42.862  L 22.908 42.862  L 20.57 31.296  L 20.53 31.296  L 18.002000000000002 42.862  L 14.780000000000001 42.862  L 11.132 25.868000000000002  L 14.311999999999998 25.868000000000002  L 16.488 37.434000000000005  L 16.528 37.434000000000005  L 19.15 25.868000000000002  L 22.124 25.868000000000002  L 24.477999999999998 37.576  L 24.518 37.576  L 27.001999999999995 25.868000000000002  L 30.123999999999995 25.868000000000002  L 26.069999999999993 42.862  Z " stroke-width="0" stroke-dasharray="0" stroke="rgba(255, 255, 255, 0)" fill="none" class="stroke" mask="url(#Clip7544)" />
    <path d="M 43.727999999999994 42.861999999999995  L 40.418 42.862  L 39.333999999999996 39.08  L 33.611999999999995 39.08  L 32.77799999999999 42.861999999999995  L 29.597999999999992 42.861999999999995  L 33.709999999999994 25.867999999999995  L 38.727999999999994 25.867999999999995  L 43.727999999999994 42.861999999999995  Z " stroke-width="0" stroke-dasharray="0" stroke="rgba(255, 255, 255, 0)" fill="none" class="stroke" mask="url(#Clip7544)" />
    <path d="M 36.962 30.055999999999997  L 35.624 30.055999999999997  L 34.236000000000004 36.292  L 38.554 36.292  L 36.962 30.055999999999997  Z " stroke-width="0" stroke-dasharray="0" stroke="rgba(255, 255, 255, 0)" fill="none" class="stroke" mask="url(#Clip7544)" />
  </g>
</svg>