<?xml version="1.0" encoding="utf-8"?>
<svg version="1.1" xmlns:xlink="http://www.w3.org/1999/xlink" width="18px" height="20px" xmlns="http://www.w3.org/2000/svg">
  <defs>
    <pattern id="BGPattern" patternUnits="userSpaceOnUse" alignment="0 0" imageRepeat="None" />
    <mask fill="white" id="Clip5774">
      <path d="M 0 10.939499999999999  L 9 1.9395000000000007  L 18 10.939499999999999  L 17.999999999999996 17.25  C 17.999999999999996 18.492640687119284  16.992640687119284 19.5  15.75 19.5  L 2.249999999999999 19.5  C 1.0073593128807143 19.5  0 18.492640687119284  0 17.25  L 0 10.939499999999999  Z M 15.75 0  C 16.164213562373096 0  16.5 0.3357864376269051  16.5 0.75  L 16.5 6  L 13.5 3  L 13.5 0.75  C 13.5 0.3357864376269051  13.835786437626904 0  14.25 0  L 15.75 0  Z " fill-rule="evenodd" />
    </mask>
  </defs>
  <g transform="matrix(1 0 0 1 -3 -2 )">
    <path d="M 0 10.939499999999999  L 9 1.9395000000000007  L 18 10.939499999999999  L 17.999999999999996 17.25  C 17.999999999999996 18.492640687119284  16.992640687119284 19.5  15.75 19.5  L 2.249999999999999 19.5  C 1.0073593128807143 19.5  0 18.492640687119284  0 17.25  L 0 10.939499999999999  Z M 15.75 0  C 16.164213562373096 0  16.5 0.3357864376269051  16.5 0.75  L 16.5 6  L 13.5 3  L 13.5 0.75  C 13.5 0.3357864376269051  13.835786437626904 0  14.25 0  L 15.75 0  Z " fill-rule="nonzero" fill="rgba(0, 0, 0, 1)" stroke="none" transform="matrix(1 0 0 1 3 2 )" class="fill" />
    <path d="M 0 10.939499999999999  L 9 1.9395000000000007  L 18 10.939499999999999  L 17.999999999999996 17.25  C 17.999999999999996 18.492640687119284  16.992640687119284 19.5  15.75 19.5  L 2.249999999999999 19.5  C 1.0073593128807143 19.5  0 18.492640687119284  0 17.25  L 0 10.939499999999999  Z " stroke-width="0" stroke-dasharray="0" stroke="rgba(255, 255, 255, 0)" fill="none" transform="matrix(1 0 0 1 3 2 )" class="stroke" mask="url(#Clip5774)" />
    <path d="M 15.75 0  C 16.164213562373096 0  16.5 0.3357864376269051  16.5 0.75  L 16.5 6  L 13.5 3  L 13.5 0.75  C 13.5 0.3357864376269051  13.835786437626904 0  14.25 0  L 15.75 0  Z " stroke-width="0" stroke-dasharray="0" stroke="rgba(255, 255, 255, 0)" fill="none" transform="matrix(1 0 0 1 3 2 )" class="stroke" mask="url(#Clip5774)" />
  </g>
</svg>