<?xml version="1.0" encoding="utf-8"?>
<svg version="1.1" xmlns:xlink="http://www.w3.org/1999/xlink" width="28px" height="28px" xmlns="http://www.w3.org/2000/svg">
  <defs>
    <pattern id="BGPattern" patternUnits="userSpaceOnUse" alignment="0 0" imageRepeat="None" />
    <mask fill="white" id="Clip3351">
      <path d="M 28 14  C 27.991292706493873 21.728376945227772  21.728376945227772 27.991292706493876  13.999999999999998 28  C 6.268013502368891 28  0 21.73198649763111  0 14  C 0 6.268013502368892  6.268013502368891 0  13.999999999999998 0  C 21.731986497631105 0  27.999999999999996 6.268013502368892  27.999999999999996 14  Z M 26 14  C 25.992450193739593 7.37571275441529  20.62428724558471 2.007549806260408  13.999999999999998 2.000000000000001  C 7.372583002030474 2  1.9999999999999971 7.372583002030479  1.9999999999999971 14  C 1.9999999999999971 20.62741699796952  7.372583002030474 25.999999999999996  13.999999999999995 25.999999999999996  C 20.627416997969515 25.999999999999996  25.999999999999993 20.62741699796952  25.999999999999993 14  Z " fill-rule="evenodd" />
    </mask>
  </defs>
  <g transform="matrix(1 0 0 1 -2 -2 )">
    <path d="M 28 14  C 27.991292706493873 21.728376945227772  21.728376945227772 27.991292706493876  13.999999999999998 28  C 6.268013502368891 28  0 21.73198649763111  0 14  C 0 6.268013502368892  6.268013502368891 0  13.999999999999998 0  C 21.731986497631105 0  27.999999999999996 6.268013502368892  27.999999999999996 14  Z M 26 14  C 25.992450193739593 7.37571275441529  20.62428724558471 2.007549806260408  13.999999999999998 2.000000000000001  C 7.372583002030474 2  1.9999999999999971 7.372583002030479  1.9999999999999971 14  C 1.9999999999999971 20.62741699796952  7.372583002030474 25.999999999999996  13.999999999999995 25.999999999999996  C 20.627416997969515 25.999999999999996  25.999999999999993 20.62741699796952  25.999999999999993 14  Z " fill-rule="nonzero" fill="rgba(0, 0, 0, 1)" stroke="none" transform="matrix(1 0 0 1 2 2 )" class="fill" />
    <path d="M 28 14  C 27.991292706493873 21.728376945227772  21.728376945227772 27.991292706493876  13.999999999999998 28  C 6.268013502368891 28  0 21.73198649763111  0 14  C 0 6.268013502368892  6.268013502368891 0  13.999999999999998 0  C 21.731986497631105 0  27.999999999999996 6.268013502368892  27.999999999999996 14  Z " stroke-width="0" stroke-dasharray="0" stroke="rgba(255, 255, 255, 0)" fill="none" transform="matrix(1 0 0 1 2 2 )" class="stroke" mask="url(#Clip3351)" />
    <path d="M 26 14  C 25.992450193739593 7.37571275441529  20.62428724558471 2.007549806260408  13.999999999999998 2.000000000000001  C 7.372583002030474 2  1.9999999999999971 7.372583002030479  1.9999999999999971 14  C 1.9999999999999971 20.62741699796952  7.372583002030474 25.999999999999996  13.999999999999995 25.999999999999996  C 20.627416997969515 25.999999999999996  25.999999999999993 20.62741699796952  25.999999999999993 14  Z " stroke-width="0" stroke-dasharray="0" stroke="rgba(255, 255, 255, 0)" fill="none" transform="matrix(1 0 0 1 2 2 )" class="stroke" mask="url(#Clip3351)" />
  </g>
</svg>