<?xml version="1.0" encoding="utf-8"?>
<svg version="1.1" xmlns:xlink="http://www.w3.org/1999/xlink" width="50px" height="44px" xmlns="http://www.w3.org/2000/svg">
  <defs>
    <pattern id="BGPattern" patternUnits="userSpaceOnUse" alignment="0 0" imageRepeat="None" />
    <mask fill="white" id="Clip931">
      <path d="M 49.873046875 22.0703125  C 50.72265625 14.033203124999998  46.884765625 6.2890625  39.78515625 2.587890625  C 32.3828125 -1.259765625  25.17578125 -0.39062500000000006  17.861328125 3.02734375  C 16.7578125 3.5351562499999996  16.34765625 4.0625  15.91796875 4.8828125  C 14.912109374999998 6.7578125  14.335937500000002 8.53515625  13.974609375 10.029296875  C 11.904296875 12.529296874999998  10.419921875 15.507812500000002  9.74609375 18.80859375  C 8.7109375 20.56640625  7.705078125000001 22.851562500000004  7.490234375 25.78125  C 7.490234375 25.78125  7.421875 26.5234375  7.44140625 26.552734375  C 3.994140625 26.103515625  0 23.916015625  0 23.916015625  C 0.888671875 25.33203125  5.986328125 27.0703125  7.451171875 27.6171875  C 7.451171875 27.6171875  7.6171875 37.1875  13.750000000000002 40.4296875  C 12.646484375 38.75  12.451171875 38.45703125  12.451171875 38.45703125  C 12.451171875 38.45703125  9.2578125 32.6171875  9.8046875 28.291015625  C 9.873046875 28.291015625  9.951171875 28.310546875  10.01953125 28.310546875  C 12.353515625 36.845703125  20.09765625 43.095703125  29.248046875 43.095703125  C 29.853515625 43.095703125  30.429687500000004 43.076171875  31.005859375 43.02734375  C 32.373046875 43.173828125  33.701171875 43.076171875  34.921875 42.646484375  C 35.595703125 42.431640625  36.26953125 42.021484375  36.89453125 41.591796875  C 43.75 37.7734375  46.748046875 33.583984375  48.916015625 27.16796875  C 49.443359375 25.60546875  49.70703125 23.701171875  49.873046875 22.0703125  Z M 11.708984375 16.07421875  C 12.216796875 14.82421875  12.812499999999998 13.623046875  13.554687500000002 12.51953125  C 13.554687500000002 12.51953125  13.4375 13.720703125  13.486328125 14.443359375  C 13.154296874999998 14.6875  12.5 15.234375  11.708984375 16.07421875  Z M 10.91796875 27.16796875  C 10.703125 26.26953125  10.576171875 25.361328125  10.5078125 24.423828125  C 10.9375 22.744140625000004  11.806640625 20.60546875  13.41796875 19.04296875  C 13.41796875 19.04296875  13.583984375 23.73046875  14.960937499999998 27.841796875  L 10.91796875 27.16796875  Z M 26.328125000000004 41.728515625  C 19.189453125 40.595703125  13.369140625 35.41015625  11.279296875 28.603515624999996  C 12.724609375000002 28.916015625  14.599609375 29.345703125  15.48828125 29.4921875  C 18.154296875 36.9921875  26.064453124999996 41.630859375  26.064453124999996 41.630859375  C 26.162109374999996 41.6796875  26.230468750000004 41.69921875  26.328125000000004 41.728515625  Z M 48.125 22.958984375000004  C 48.10546875 30.380859375  43.84765625 36.826171875  37.6953125 39.951171875  C 36.279296875 40.41015625  34.16015625 40.771484375  31.376953125 40.3125  C 31.376953125 40.3125  22.48046875 38.056640625  18.92578125 29.785156249999996  C 22.65625 29.853515625  24.04296875 29.765625  26.54296875 29.404296875000004  C 30.390625 28.84765625  34.2578125 27.822265625  37.7734375 26.181640625000004  C 38.92578125 25.654296875  38.857421875 24.287109375  38.7109375 23.271484375  C 38.515625 22.021484375  37.626953125 22.08984375  36.62109375 22.8125  C 36.62109375 22.8125  28.61328125 28.53515625  18.0859375 28.056640625  C 16.259765625 24.931640625  15.46875 17.236328125  15.46875 17.236328125  C 19.51171875 13.798828125  23.59375 11.416015625  31.9140625 12.119140625  C 31.93359375 11.494140625  32.20703125 9.47265625  29.921874999999996 9.375  C 29.921874999999996 9.375  20.791015625 8.291015625  15.6640625 12.646484375  C 15.908203125 11.03515625  16.240234375 9.78515625  16.748046875 8.798828125  C 20.087890625 5.791015625  24.462890625 3.9648437499999996  29.27734375 3.9648437499999996  C 39.66796875 3.9648437499999996  48.125 12.470703125  48.125 22.958984375000004  Z " fill-rule="evenodd" />
    </mask>
  </defs>
  <g>
    <path d="M 49.873046875 22.0703125  C 50.72265625 14.033203124999998  46.884765625 6.2890625  39.78515625 2.587890625  C 32.3828125 -1.259765625  25.17578125 -0.39062500000000006  17.861328125 3.02734375  C 16.7578125 3.5351562499999996  16.34765625 4.0625  15.91796875 4.8828125  C 14.912109374999998 6.7578125  14.335937500000002 8.53515625  13.974609375 10.029296875  C 11.904296875 12.529296874999998  10.419921875 15.507812500000002  9.74609375 18.80859375  C 8.7109375 20.56640625  7.705078125000001 22.851562500000004  7.490234375 25.78125  C 7.490234375 25.78125  7.421875 26.5234375  7.44140625 26.552734375  C 3.994140625 26.103515625  0 23.916015625  0 23.916015625  C 0.888671875 25.33203125  5.986328125 27.0703125  7.451171875 27.6171875  C 7.451171875 27.6171875  7.6171875 37.1875  13.750000000000002 40.4296875  C 12.646484375 38.75  12.451171875 38.45703125  12.451171875 38.45703125  C 12.451171875 38.45703125  9.2578125 32.6171875  9.8046875 28.291015625  C 9.873046875 28.291015625  9.951171875 28.310546875  10.01953125 28.310546875  C 12.353515625 36.845703125  20.09765625 43.095703125  29.248046875 43.095703125  C 29.853515625 43.095703125  30.429687500000004 43.076171875  31.005859375 43.02734375  C 32.373046875 43.173828125  33.701171875 43.076171875  34.921875 42.646484375  C 35.595703125 42.431640625  36.26953125 42.021484375  36.89453125 41.591796875  C 43.75 37.7734375  46.748046875 33.583984375  48.916015625 27.16796875  C 49.443359375 25.60546875  49.70703125 23.701171875  49.873046875 22.0703125  Z M 11.708984375 16.07421875  C 12.216796875 14.82421875  12.812499999999998 13.623046875  13.554687500000002 12.51953125  C 13.554687500000002 12.51953125  13.4375 13.720703125  13.486328125 14.443359375  C 13.154296874999998 14.6875  12.5 15.234375  11.708984375 16.07421875  Z M 10.91796875 27.16796875  C 10.703125 26.26953125  10.576171875 25.361328125  10.5078125 24.423828125  C 10.9375 22.744140625000004  11.806640625 20.60546875  13.41796875 19.04296875  C 13.41796875 19.04296875  13.583984375 23.73046875  14.960937499999998 27.841796875  L 10.91796875 27.16796875  Z M 26.328125000000004 41.728515625  C 19.189453125 40.595703125  13.369140625 35.41015625  11.279296875 28.603515624999996  C 12.724609375000002 28.916015625  14.599609375 29.345703125  15.48828125 29.4921875  C 18.154296875 36.9921875  26.064453124999996 41.630859375  26.064453124999996 41.630859375  C 26.162109374999996 41.6796875  26.230468750000004 41.69921875  26.328125000000004 41.728515625  Z M 48.125 22.958984375000004  C 48.10546875 30.380859375  43.84765625 36.826171875  37.6953125 39.951171875  C 36.279296875 40.41015625  34.16015625 40.771484375  31.376953125 40.3125  C 31.376953125 40.3125  22.48046875 38.056640625  18.92578125 29.785156249999996  C 22.65625 29.853515625  24.04296875 29.765625  26.54296875 29.404296875000004  C 30.390625 28.84765625  34.2578125 27.822265625  37.7734375 26.181640625000004  C 38.92578125 25.654296875  38.857421875 24.287109375  38.7109375 23.271484375  C 38.515625 22.021484375  37.626953125 22.08984375  36.62109375 22.8125  C 36.62109375 22.8125  28.61328125 28.53515625  18.0859375 28.056640625  C 16.259765625 24.931640625  15.46875 17.236328125  15.46875 17.236328125  C 19.51171875 13.798828125  23.59375 11.416015625  31.9140625 12.119140625  C 31.93359375 11.494140625  32.20703125 9.47265625  29.921874999999996 9.375  C 29.921874999999996 9.375  20.791015625 8.291015625  15.6640625 12.646484375  C 15.908203125 11.03515625  16.240234375 9.78515625  16.748046875 8.798828125  C 20.087890625 5.791015625  24.462890625 3.9648437499999996  29.27734375 3.9648437499999996  C 39.66796875 3.9648437499999996  48.125 12.470703125  48.125 22.958984375000004  Z " fill-rule="nonzero" fill="rgba(0, 0, 0, 1)" stroke="none" class="fill" />
    <path d="M 49.873046875 22.0703125  C 50.72265625 14.033203124999998  46.884765625 6.2890625  39.78515625 2.587890625  C 32.3828125 -1.259765625  25.17578125 -0.39062500000000006  17.861328125 3.02734375  C 16.7578125 3.5351562499999996  16.34765625 4.0625  15.91796875 4.8828125  C 14.912109374999998 6.7578125  14.335937500000002 8.53515625  13.974609375 10.029296875  C 11.904296875 12.529296874999998  10.419921875 15.507812500000002  9.74609375 18.80859375  C 8.7109375 20.56640625  7.705078125000001 22.851562500000004  7.490234375 25.78125  C 7.490234375 25.78125  7.421875 26.5234375  7.44140625 26.552734375  C 3.994140625 26.103515625  0 23.916015625  0 23.916015625  C 0.888671875 25.33203125  5.986328125 27.0703125  7.451171875 27.6171875  C 7.451171875 27.6171875  7.6171875 37.1875  13.750000000000002 40.4296875  C 12.646484375 38.75  12.451171875 38.45703125  12.451171875 38.45703125  C 12.451171875 38.45703125  9.2578125 32.6171875  9.8046875 28.291015625  C 9.873046875 28.291015625  9.951171875 28.310546875  10.01953125 28.310546875  C 12.353515625 36.845703125  20.09765625 43.095703125  29.248046875 43.095703125  C 29.853515625 43.095703125  30.429687500000004 43.076171875  31.005859375 43.02734375  C 32.373046875 43.173828125  33.701171875 43.076171875  34.921875 42.646484375  C 35.595703125 42.431640625  36.26953125 42.021484375  36.89453125 41.591796875  C 43.75 37.7734375  46.748046875 33.583984375  48.916015625 27.16796875  C 49.443359375 25.60546875  49.70703125 23.701171875  49.873046875 22.0703125  Z " stroke-width="0" stroke-dasharray="0" stroke="rgba(255, 255, 255, 0)" fill="none" class="stroke" mask="url(#Clip931)" />
    <path d="M 11.708984375 16.07421875  C 12.216796875 14.82421875  12.812499999999998 13.623046875  13.554687500000002 12.51953125  C 13.554687500000002 12.51953125  13.4375 13.720703125  13.486328125 14.443359375  C 13.154296874999998 14.6875  12.5 15.234375  11.708984375 16.07421875  Z " stroke-width="0" stroke-dasharray="0" stroke="rgba(255, 255, 255, 0)" fill="none" class="stroke" mask="url(#Clip931)" />
    <path d="M 10.91796875 27.16796875  C 10.703125 26.26953125  10.576171875 25.361328125  10.5078125 24.423828125  C 10.9375 22.744140625000004  11.806640625 20.60546875  13.41796875 19.04296875  C 13.41796875 19.04296875  13.583984375 23.73046875  14.960937499999998 27.841796875  L 10.91796875 27.16796875  Z " stroke-width="0" stroke-dasharray="0" stroke="rgba(255, 255, 255, 0)" fill="none" class="stroke" mask="url(#Clip931)" />
    <path d="M 26.328125000000004 41.728515625  C 19.189453125 40.595703125  13.369140625 35.41015625  11.279296875 28.603515624999996  C 12.724609375000002 28.916015625  14.599609375 29.345703125  15.48828125 29.4921875  C 18.154296875 36.9921875  26.064453124999996 41.630859375  26.064453124999996 41.630859375  C 26.162109374999996 41.6796875  26.230468750000004 41.69921875  26.328125000000004 41.728515625  Z " stroke-width="0" stroke-dasharray="0" stroke="rgba(255, 255, 255, 0)" fill="none" class="stroke" mask="url(#Clip931)" />
    <path d="M 48.125 22.958984375000004  C 48.10546875 30.380859375  43.84765625 36.826171875  37.6953125 39.951171875  C 36.279296875 40.41015625  34.16015625 40.771484375  31.376953125 40.3125  C 31.376953125 40.3125  22.48046875 38.056640625  18.92578125 29.785156249999996  C 22.65625 29.853515625  24.04296875 29.765625  26.54296875 29.404296875000004  C 30.390625 28.84765625  34.2578125 27.822265625  37.7734375 26.181640625000004  C 38.92578125 25.654296875  38.857421875 24.287109375  38.7109375 23.271484375  C 38.515625 22.021484375  37.626953125 22.08984375  36.62109375 22.8125  C 36.62109375 22.8125  28.61328125 28.53515625  18.0859375 28.056640625  C 16.259765625 24.931640625  15.46875 17.236328125  15.46875 17.236328125  C 19.51171875 13.798828125  23.59375 11.416015625  31.9140625 12.119140625  C 31.93359375 11.494140625  32.20703125 9.47265625  29.921874999999996 9.375  C 29.921874999999996 9.375  20.791015625 8.291015625  15.6640625 12.646484375  C 15.908203125 11.03515625  16.240234375 9.78515625  16.748046875 8.798828125  C 20.087890625 5.791015625  24.462890625 3.9648437499999996  29.27734375 3.9648437499999996  C 39.66796875 3.9648437499999996  48.125 12.470703125  48.125 22.958984375000004  Z " stroke-width="0" stroke-dasharray="0" stroke="rgba(255, 255, 255, 0)" fill="none" class="stroke" mask="url(#Clip931)" />
  </g>
</svg>