<?xml version="1.0" encoding="utf-8"?>
<svg version="1.1" xmlns:xlink="http://www.w3.org/1999/xlink" width="18px" height="23px" xmlns="http://www.w3.org/2000/svg">
  <defs>
    <pattern id="BGPattern" patternUnits="userSpaceOnUse" alignment="0 0" imageRepeat="None" />
    <mask fill="white" id="Clip5168">
      <path d="M 3 1.25  C 3 0.9874999999999999  3.045 0.7340000000000002  3.1274999999999995 0.5  L 2.249999999999999 0.5  C 1.0073593128807143 0.5  0 1.5073593128807148  0 2.75  L 0 20.75  C 0 21.992640687119284  1.0073593128807143 23  2.25 23  L 15.749999999999996 23  C 16.992640687119284 23  17.999999999999996 21.992640687119284  18 20.75  L 17.999999999999996 2.75  C 17.999999999999996 1.5073593128807137  16.992640687119284 0.5  15.75 0.5  L 14.872499999999999 0.5  C 14.954999999999998 0.734  15 0.9874999999999999  15 1.25  L 15 2  C 15 3.2426406871192848  13.992640687119284 4.249999999999999  12.75 4.25  L 5.25 4.249999999999999  C 4.007359312880715 4.249999999999999  3 3.2426406871192848  3 2  L 3 1.25  Z M 7.281000000000001 9.719  L 9 11.439499999999999  L 10.719000000000001 9.718999999999998  C 10.859829956104798 9.578170043895202  11.05083636608819 9.499052598379885  11.25 9.499052598379885  C 11.664736797839849 9.499052598379885  12.000947401620115 9.83526320216015  12.000947401620115 10.249999999999998  C 12.000947401620115 10.449163633911812  11.921829956104798 10.6401700438952  11.781000000000002 10.780999999999999  L 10.060500000000001 12.5  L 11.781000000000002 14.219  C 11.921829956104798 14.359829956104798  12.000947401620115 14.550836366088191  12.000947401620115 14.75  C 12.000947401620115 15.16473679783985  11.664736797839849 15.500947401620115  11.25 15.500947401620115  C 11.050836366088188 15.500947401620115  10.8598299561048 15.4218299561048  10.719000000000001 15.281000000000002  L 9 13.560500000000001  L 7.281000000000001 15.281000000000002  C 7.140170043895203 15.4218299561048  6.949163633911812 15.500947401620115  6.75 15.500947401620115  C 6.335263202160149 15.500947401620115  5.999052598379887 15.16473679783985  5.999052598379887 14.75  C 5.999052598379887 14.550836366088188  6.078170043895202 14.359829956104798  6.218999999999999 14.219  L 7.939500000000001 12.5  L 6.218999999999999 10.781  C 6.078170043895202 10.640170043895202  5.999052598379887 10.449163633911812  5.999052598379887 10.25  C 5.999052598379887 9.835263202160151  6.335263202160151 9.499052598379887  6.75 9.499052598379887  C 6.949163633911812 9.499052598379887  7.140170043895202 9.578170043895202  7.281000000000001 9.719  Z " fill-rule="evenodd" />
    </mask>
  </defs>
  <g transform="matrix(1 0 0 1 0 -1 )">
    <path d="M 3 1.25  C 3 0.9874999999999999  3.045 0.7340000000000002  3.1274999999999995 0.5  L 2.249999999999999 0.5  C 1.0073593128807143 0.5  0 1.5073593128807148  0 2.75  L 0 20.75  C 0 21.992640687119284  1.0073593128807143 23  2.25 23  L 15.749999999999996 23  C 16.992640687119284 23  17.999999999999996 21.992640687119284  18 20.75  L 17.999999999999996 2.75  C 17.999999999999996 1.5073593128807137  16.992640687119284 0.5  15.75 0.5  L 14.872499999999999 0.5  C 14.954999999999998 0.734  15 0.9874999999999999  15 1.25  L 15 2  C 15 3.2426406871192848  13.992640687119284 4.249999999999999  12.75 4.25  L 5.25 4.249999999999999  C 4.007359312880715 4.249999999999999  3 3.2426406871192848  3 2  L 3 1.25  Z M 7.281000000000001 9.719  L 9 11.439499999999999  L 10.719000000000001 9.718999999999998  C 10.859829956104798 9.578170043895202  11.05083636608819 9.499052598379885  11.25 9.499052598379885  C 11.664736797839849 9.499052598379885  12.000947401620115 9.83526320216015  12.000947401620115 10.249999999999998  C 12.000947401620115 10.449163633911812  11.921829956104798 10.6401700438952  11.781000000000002 10.780999999999999  L 10.060500000000001 12.5  L 11.781000000000002 14.219  C 11.921829956104798 14.359829956104798  12.000947401620115 14.550836366088191  12.000947401620115 14.75  C 12.000947401620115 15.16473679783985  11.664736797839849 15.500947401620115  11.25 15.500947401620115  C 11.050836366088188 15.500947401620115  10.8598299561048 15.4218299561048  10.719000000000001 15.281000000000002  L 9 13.560500000000001  L 7.281000000000001 15.281000000000002  C 7.140170043895203 15.4218299561048  6.949163633911812 15.500947401620115  6.75 15.500947401620115  C 6.335263202160149 15.500947401620115  5.999052598379887 15.16473679783985  5.999052598379887 14.75  C 5.999052598379887 14.550836366088188  6.078170043895202 14.359829956104798  6.218999999999999 14.219  L 7.939500000000001 12.5  L 6.218999999999999 10.781  C 6.078170043895202 10.640170043895202  5.999052598379887 10.449163633911812  5.999052598379887 10.25  C 5.999052598379887 9.835263202160151  6.335263202160151 9.499052598379887  6.75 9.499052598379887  C 6.949163633911812 9.499052598379887  7.140170043895202 9.578170043895202  7.281000000000001 9.719  Z " fill-rule="nonzero" fill="rgba(0, 0, 0, 1)" stroke="none" transform="matrix(1 0 0 1 0 1 )" class="fill" />
    <path d="M 3 1.25  C 3 0.9874999999999999  3.045 0.7340000000000002  3.1274999999999995 0.5  L 2.249999999999999 0.5  C 1.0073593128807143 0.5  0 1.5073593128807148  0 2.75  L 0 20.75  C 0 21.992640687119284  1.0073593128807143 23  2.25 23  L 15.749999999999996 23  C 16.992640687119284 23  17.999999999999996 21.992640687119284  18 20.75  L 17.999999999999996 2.75  C 17.999999999999996 1.5073593128807137  16.992640687119284 0.5  15.75 0.5  L 14.872499999999999 0.5  C 14.954999999999998 0.734  15 0.9874999999999999  15 1.25  L 15 2  C 15 3.2426406871192848  13.992640687119284 4.249999999999999  12.75 4.25  L 5.25 4.249999999999999  C 4.007359312880715 4.249999999999999  3 3.2426406871192848  3 2  L 3 1.25  Z " stroke-width="0" stroke-dasharray="0" stroke="rgba(255, 255, 255, 0)" fill="none" transform="matrix(1 0 0 1 0 1 )" class="stroke" mask="url(#Clip5168)" />
    <path d="M 7.281000000000001 9.719  L 9 11.439499999999999  L 10.719000000000001 9.718999999999998  C 10.859829956104798 9.578170043895202  11.05083636608819 9.499052598379885  11.25 9.499052598379885  C 11.664736797839849 9.499052598379885  12.000947401620115 9.83526320216015  12.000947401620115 10.249999999999998  C 12.000947401620115 10.449163633911812  11.921829956104798 10.6401700438952  11.781000000000002 10.780999999999999  L 10.060500000000001 12.5  L 11.781000000000002 14.219  C 11.921829956104798 14.359829956104798  12.000947401620115 14.550836366088191  12.000947401620115 14.75  C 12.000947401620115 15.16473679783985  11.664736797839849 15.500947401620115  11.25 15.500947401620115  C 11.050836366088188 15.500947401620115  10.8598299561048 15.4218299561048  10.719000000000001 15.281000000000002  L 9 13.560500000000001  L 7.281000000000001 15.281000000000002  C 7.140170043895203 15.4218299561048  6.949163633911812 15.500947401620115  6.75 15.500947401620115  C 6.335263202160149 15.500947401620115  5.999052598379887 15.16473679783985  5.999052598379887 14.75  C 5.999052598379887 14.550836366088188  6.078170043895202 14.359829956104798  6.218999999999999 14.219  L 7.939500000000001 12.5  L 6.218999999999999 10.781  C 6.078170043895202 10.640170043895202  5.999052598379887 10.449163633911812  5.999052598379887 10.25  C 5.999052598379887 9.835263202160151  6.335263202160151 9.499052598379887  6.75 9.499052598379887  C 6.949163633911812 9.499052598379887  7.140170043895202 9.578170043895202  7.281000000000001 9.719  Z " stroke-width="0" stroke-dasharray="0" stroke="rgba(255, 255, 255, 0)" fill="none" transform="matrix(1 0 0 1 0 1 )" class="stroke" mask="url(#Clip5168)" />
  </g>
</svg>