<?xml version="1.0" encoding="utf-8"?>
<svg version="1.1" xmlns:xlink="http://www.w3.org/1999/xlink" width="50px" height="50px" xmlns="http://www.w3.org/2000/svg">
  <defs>
    <pattern id="BGPattern" patternUnits="userSpaceOnUse" alignment="0 0" imageRepeat="None" />
    <mask fill="white" id="Clip2245">
      <path d="M 50 2  C 50 0.8937499999999997  49.10625 0  48 0  L 2 0  C 0.8937499999999997 0  0 0.8937499999999997  0 2  L 0 48  C 0 49.10625  0.8937499999999997 50  2 50  L 48 50  C 49.10625 50  50 49.10625  50 48  L 50 2  Z M 36.125 18.000000000000004  C 36.53125 18.000000000000004  36.76875 18.462500000000002  36.53125 18.79375  L 25.406250000000004 34.16875  C 25.312865345234993 34.29835100121614  25.162865768940822 34.375151249034445  25.003124999999997 34.375151249034445  C 24.843384231059176 34.375151249034445  24.693384654765005 34.29835100121614  24.6 34.16875  L 13.475000000000001 18.793750000000003  C 13.237500000000002 18.462500000000002  13.475000000000001 18.000000000000004  13.881250000000001 18.000000000000004  L 16.8125 18.000000000000004  C 17.45 18.000000000000004  18.05625 18.306250000000002  18.43125 18.825000000000003  L 25 27.9125  L 31.575000000000003 18.825000000000003  C 31.95 18.306250000000002  32.550000000000004 18.000000000000004  33.19375 18.000000000000004  L 36.125 18.000000000000004  Z " fill-rule="evenodd" />
    </mask>
  </defs>
  <g>
    <path d="M 50 2  C 50 0.8937499999999997  49.10625 0  48 0  L 2 0  C 0.8937499999999997 0  0 0.8937499999999997  0 2  L 0 48  C 0 49.10625  0.8937499999999997 50  2 50  L 48 50  C 49.10625 50  50 49.10625  50 48  L 50 2  Z M 36.125 18.000000000000004  C 36.53125 18.000000000000004  36.76875 18.462500000000002  36.53125 18.79375  L 25.406250000000004 34.16875  C 25.312865345234993 34.29835100121614  25.162865768940822 34.375151249034445  25.003124999999997 34.375151249034445  C 24.843384231059176 34.375151249034445  24.693384654765005 34.29835100121614  24.6 34.16875  L 13.475000000000001 18.793750000000003  C 13.237500000000002 18.462500000000002  13.475000000000001 18.000000000000004  13.881250000000001 18.000000000000004  L 16.8125 18.000000000000004  C 17.45 18.000000000000004  18.05625 18.306250000000002  18.43125 18.825000000000003  L 25 27.9125  L 31.575000000000003 18.825000000000003  C 31.95 18.306250000000002  32.550000000000004 18.000000000000004  33.19375 18.000000000000004  L 36.125 18.000000000000004  Z " fill-rule="nonzero" fill="rgba(0, 0, 0, 1)" stroke="none" class="fill" />
    <path d="M 50 2  C 50 0.8937499999999997  49.10625 0  48 0  L 2 0  C 0.8937499999999997 0  0 0.8937499999999997  0 2  L 0 48  C 0 49.10625  0.8937499999999997 50  2 50  L 48 50  C 49.10625 50  50 49.10625  50 48  L 50 2  Z " stroke-width="0" stroke-dasharray="0" stroke="rgba(255, 255, 255, 0)" fill="none" class="stroke" mask="url(#Clip2245)" />
    <path d="M 36.125 18.000000000000004  C 36.53125 18.000000000000004  36.76875 18.462500000000002  36.53125 18.79375  L 25.406250000000004 34.16875  C 25.312865345234993 34.29835100121614  25.162865768940822 34.375151249034445  25.003124999999997 34.375151249034445  C 24.843384231059176 34.375151249034445  24.693384654765005 34.29835100121614  24.6 34.16875  L 13.475000000000001 18.793750000000003  C 13.237500000000002 18.462500000000002  13.475000000000001 18.000000000000004  13.881250000000001 18.000000000000004  L 16.8125 18.000000000000004  C 17.45 18.000000000000004  18.05625 18.306250000000002  18.43125 18.825000000000003  L 25 27.9125  L 31.575000000000003 18.825000000000003  C 31.95 18.306250000000002  32.550000000000004 18.000000000000004  33.19375 18.000000000000004  L 36.125 18.000000000000004  Z " stroke-width="0" stroke-dasharray="0" stroke="rgba(255, 255, 255, 0)" fill="none" class="stroke" mask="url(#Clip2245)" />
  </g>
</svg>