<?xml version="1.0" encoding="utf-8"?>
<svg version="1.1" xmlns:xlink="http://www.w3.org/1999/xlink" width="22px" height="19px" xmlns="http://www.w3.org/2000/svg">
  <defs>
    <pattern id="BGPattern" patternUnits="userSpaceOnUse" alignment="0 0" imageRepeat="None" />
    <mask fill="white" id="Clip5786">
      <path d="M 18.003 0.5  L 3.003000000000001 0.5  C 1.3461457505076206 0.5  0.003000000000001002 1.8431457505076194  0 3.5  L 0 15.5  C 0.003000000000001002 17.15685424949238  1.3461457505076206 18.5  3.003000000000001 18.5  L 18.003 18.5  C 19.65985424949238 18.5  21.003 17.15685424949238  21 15.5  L 21 3.5  C 21.003 1.8431457505076194  19.65985424949238 0.5  18.003 0.5  Z M 3.003000000000001 2  L 18.003 2  C 18.831427124746188 2  19.503 2.67157287525381  19.503 3.5  L 19.503 11.750000000000005  L 16.8375 8.829500000000003  C 16.548714055544853 8.68537596688037  16.200108508711004 8.742167858392296  15.972 8.970500000000003  L 10.407 14.535500000000003  L 6.417000000000001 11.876000000000001  C 6.1199834219137195 11.678255260360341  5.724770669194378 11.717149213802559  5.472000000000001 11.969000000000001  L 1.503000000000001 15.5  L 1.503000000000001 3.5  C 1.503000000000001 2.67157287525381  2.1745728752538107 2  3.003000000000001 2  Z M 6.753 9.500000047415202  C 7.995640687119284 9.500000047415202  9.003 8.49264073453449  9.003 7.250000047415204  C 9.003 6.007359360295918  7.995640687119284 5.000000047415204  6.753 5.000000047415204  C 5.510359331397504 5.000000047415204  4.503000026186695 6.007359331397506  4.503 7.250000047415204  C 4.503 8.49264073453449  5.5103593128807145 9.500000047415202  6.753 9.500000047415202  Z " fill-rule="evenodd" />
    </mask>
  </defs>
  <g transform="matrix(1 0 0 1 0 -3 )">
    <path d="M 18.003 0.5  L 3.003000000000001 0.5  C 1.3461457505076206 0.5  0.003000000000001002 1.8431457505076194  0 3.5  L 0 15.5  C 0.003000000000001002 17.15685424949238  1.3461457505076206 18.5  3.003000000000001 18.5  L 18.003 18.5  C 19.65985424949238 18.5  21.003 17.15685424949238  21 15.5  L 21 3.5  C 21.003 1.8431457505076194  19.65985424949238 0.5  18.003 0.5  Z M 3.003000000000001 2  L 18.003 2  C 18.831427124746188 2  19.503 2.67157287525381  19.503 3.5  L 19.503 11.750000000000005  L 16.8375 8.829500000000003  C 16.548714055544853 8.68537596688037  16.200108508711004 8.742167858392296  15.972 8.970500000000003  L 10.407 14.535500000000003  L 6.417000000000001 11.876000000000001  C 6.1199834219137195 11.678255260360341  5.724770669194378 11.717149213802559  5.472000000000001 11.969000000000001  L 1.503000000000001 15.5  L 1.503000000000001 3.5  C 1.503000000000001 2.67157287525381  2.1745728752538107 2  3.003000000000001 2  Z M 6.753 9.500000047415202  C 7.995640687119284 9.500000047415202  9.003 8.49264073453449  9.003 7.250000047415204  C 9.003 6.007359360295918  7.995640687119284 5.000000047415204  6.753 5.000000047415204  C 5.510359331397504 5.000000047415204  4.503000026186695 6.007359331397506  4.503 7.250000047415204  C 4.503 8.49264073453449  5.5103593128807145 9.500000047415202  6.753 9.500000047415202  Z " fill-rule="nonzero" fill="rgba(0, 0, 0, 1)" stroke="none" transform="matrix(1 0 0 1 0 3 )" class="fill" />
    <path d="M 18.003 0.5  L 3.003000000000001 0.5  C 1.3461457505076206 0.5  0.003000000000001002 1.8431457505076194  0 3.5  L 0 15.5  C 0.003000000000001002 17.15685424949238  1.3461457505076206 18.5  3.003000000000001 18.5  L 18.003 18.5  C 19.65985424949238 18.5  21.003 17.15685424949238  21 15.5  L 21 3.5  C 21.003 1.8431457505076194  19.65985424949238 0.5  18.003 0.5  Z " stroke-width="0" stroke-dasharray="0" stroke="rgba(255, 255, 255, 0)" fill="none" transform="matrix(1 0 0 1 0 3 )" class="stroke" mask="url(#Clip5786)" />
    <path d="M 3.003000000000001 2  L 18.003 2  C 18.831427124746188 2  19.503 2.67157287525381  19.503 3.5  L 19.503 11.750000000000005  L 16.8375 8.829500000000003  C 16.548714055544853 8.68537596688037  16.200108508711004 8.742167858392296  15.972 8.970500000000003  L 10.407 14.535500000000003  L 6.417000000000001 11.876000000000001  C 6.1199834219137195 11.678255260360341  5.724770669194378 11.717149213802559  5.472000000000001 11.969000000000001  L 1.503000000000001 15.5  L 1.503000000000001 3.5  C 1.503000000000001 2.67157287525381  2.1745728752538107 2  3.003000000000001 2  Z " stroke-width="0" stroke-dasharray="0" stroke="rgba(255, 255, 255, 0)" fill="none" transform="matrix(1 0 0 1 0 3 )" class="stroke" mask="url(#Clip5786)" />
    <path d="M 6.753 9.500000047415202  C 7.995640687119284 9.500000047415202  9.003 8.49264073453449  9.003 7.250000047415204  C 9.003 6.007359360295918  7.995640687119284 5.000000047415204  6.753 5.000000047415204  C 5.510359331397504 5.000000047415204  4.503000026186695 6.007359331397506  4.503 7.250000047415204  C 4.503 8.49264073453449  5.5103593128807145 9.500000047415202  6.753 9.500000047415202  Z " stroke-width="0" stroke-dasharray="0" stroke="rgba(255, 255, 255, 0)" fill="none" transform="matrix(1 0 0 1 0 3 )" class="stroke" mask="url(#Clip5786)" />
  </g>
</svg>