<?xml version="1.0" encoding="utf-8"?>
<svg version="1.1" xmlns:xlink="http://www.w3.org/1999/xlink" width="21px" height="19px" xmlns="http://www.w3.org/2000/svg">
  <defs>
    <pattern id="BGPattern" patternUnits="userSpaceOnUse" alignment="0 0" imageRepeat="None" />
    <mask fill="white" id="Clip5787">
      <path d="M 1.5 3.5  C 1.5 2.67157287525381  2.17157287525381 2  3 2  L 18 2  C 18.82842712474619 2  19.5 2.67157287525381  19.5 3.5  L 19.5 15.5  C 19.5 16.32842712474619  18.82842712474619 17  18 17  L 18 18.5  C 19.65685424949238 18.5  21 17.15685424949238  21 15.5  L 21 3.5  C 21 1.8431457505076194  19.65685424949238 0.5  18 0.5  L 3 0.5  C 1.3431457505076194 0.5  0 1.8431457505076194  0 3.5  L 1.5 3.5  Z " fill-rule="evenodd" />
    </mask>
  </defs>
  <g transform="matrix(1 0 0 1 -3 0 )">
    <path d="M 1.5 3.5  C 1.5 2.67157287525381  2.17157287525381 2  3 2  L 18 2  C 18.82842712474619 2  19.5 2.67157287525381  19.5 3.5  L 19.5 15.5  C 19.5 16.32842712474619  18.82842712474619 17  18 17  L 18 18.5  C 19.65685424949238 18.5  21 17.15685424949238  21 15.5  L 21 3.5  C 21 1.8431457505076194  19.65685424949238 0.5  18 0.5  L 3 0.5  C 1.3431457505076194 0.5  0 1.8431457505076194  0 3.5  L 1.5 3.5  Z " fill-rule="nonzero" fill="rgba(0, 0, 0, 1)" stroke="none" transform="matrix(1 0 0 1 3 0 )" class="fill" />
    <path d="M 1.5 3.5  C 1.5 2.67157287525381  2.17157287525381 2  3 2  L 18 2  C 18.82842712474619 2  19.5 2.67157287525381  19.5 3.5  L 19.5 15.5  C 19.5 16.32842712474619  18.82842712474619 17  18 17  L 18 18.5  C 19.65685424949238 18.5  21 17.15685424949238  21 15.5  L 21 3.5  C 21 1.8431457505076194  19.65685424949238 0.5  18 0.5  L 3 0.5  C 1.3431457505076194 0.5  0 1.8431457505076194  0 3.5  L 1.5 3.5  Z " stroke-width="0" stroke-dasharray="0" stroke="rgba(255, 255, 255, 0)" fill="none" transform="matrix(1 0 0 1 3 0 )" class="stroke" mask="url(#Clip5787)" />
  </g>
</svg>