<?xml version="1.0" encoding="utf-8"?>
<svg version="1.1" xmlns:xlink="http://www.w3.org/1999/xlink" width="48px" height="50px" xmlns="http://www.w3.org/2000/svg">
  <defs>
    <pattern id="BGPattern" patternUnits="userSpaceOnUse" alignment="0 0" imageRepeat="None" />
    <mask fill="white" id="Clip7489">
      <path d="M 41.78 8.879999999999999  C 37.235263245619905 3.855914792221656  30.77465938111701 0.9926100423744805  24 1  C 10.76 1  0 11.74  0 25  C 0 29.9  1.468 34.44  4 38.24  C 3 35.9  3.16 32.879999999999995  4.38 29.580000000000002  L 4.4 29.5  L 4.5 29.24  L 4.6 28.999999999999996  L 4.64 28.9  C 5.08 27.800000000000004  5.64 26.66  6.32 25.52  C 6.42 25.319999999999997  6.5 25.14  6.6 25  L 3.7199999999999998 25  L 4.42 23.42  C 6.8 22.76  10.76 21.44  14.54 17.78  L 14.64 17.78  L 16.64 17.78  L 14.059999999999999 23.28  L 18.2 23.28  L 17.44 24.92  L 13.32 24.92  C 13.32 24.92  11.38 28.800000000000004  10.72 31.56  C 10.22 34.64  10.72 37  13.48 37.82  C 15.18 38.34  17.32 38.22  19.62 37.58  C 25 35.9  30.68 32.239999999999995  34.86 27.36  C 41.74 19.38  41.88 11.2  35.16 9.1  C 30.86 7.76  24.78 9.26  19.16 12.6  C 26.160000000000004 8.08  33.88 6  39.18 7.62  C 40.18 7.919999999999999  41.06 8.36  41.78 8.879999999999999  Z M 48 25  C 48 20.32  46.66 16  44.34 12.26  C 46 16.619999999999997  43.94 23.14  38.4 29.580000000000002  C 30.08 39.26  16.94 45.1  9 42.66  C 8.099790729727752 42.382331181511745  7.249250281946059 41.96381127863504  6.480000000000002 41.42  C 11.015060309044387 46.26847535073919  17.361153235828287 49.014102313354606  24 49  C 37.26 49  48 38.26  48 25  Z " fill-rule="evenodd" />
    </mask>
  </defs>
  <g>
    <path d="M 41.78 8.879999999999999  C 37.235263245619905 3.855914792221656  30.77465938111701 0.9926100423744805  24 1  C 10.76 1  0 11.74  0 25  C 0 29.9  1.468 34.44  4 38.24  C 3 35.9  3.16 32.879999999999995  4.38 29.580000000000002  L 4.4 29.5  L 4.5 29.24  L 4.6 28.999999999999996  L 4.64 28.9  C 5.08 27.800000000000004  5.64 26.66  6.32 25.52  C 6.42 25.319999999999997  6.5 25.14  6.6 25  L 3.7199999999999998 25  L 4.42 23.42  C 6.8 22.76  10.76 21.44  14.54 17.78  L 14.64 17.78  L 16.64 17.78  L 14.059999999999999 23.28  L 18.2 23.28  L 17.44 24.92  L 13.32 24.92  C 13.32 24.92  11.38 28.800000000000004  10.72 31.56  C 10.22 34.64  10.72 37  13.48 37.82  C 15.18 38.34  17.32 38.22  19.62 37.58  C 25 35.9  30.68 32.239999999999995  34.86 27.36  C 41.74 19.38  41.88 11.2  35.16 9.1  C 30.86 7.76  24.78 9.26  19.16 12.6  C 26.160000000000004 8.08  33.88 6  39.18 7.62  C 40.18 7.919999999999999  41.06 8.36  41.78 8.879999999999999  Z M 48 25  C 48 20.32  46.66 16  44.34 12.26  C 46 16.619999999999997  43.94 23.14  38.4 29.580000000000002  C 30.08 39.26  16.94 45.1  9 42.66  C 8.099790729727752 42.382331181511745  7.249250281946059 41.96381127863504  6.480000000000002 41.42  C 11.015060309044387 46.26847535073919  17.361153235828287 49.014102313354606  24 49  C 37.26 49  48 38.26  48 25  Z " fill-rule="nonzero" fill="rgba(215, 25, 33, 1)" stroke="none" class="fill" />
    <path d="M 41.78 8.879999999999999  C 37.235263245619905 3.855914792221656  30.77465938111701 0.9926100423744805  24 1  C 10.76 1  0 11.74  0 25  C 0 29.9  1.468 34.44  4 38.24  C 3 35.9  3.16 32.879999999999995  4.38 29.580000000000002  L 4.4 29.5  L 4.5 29.24  L 4.6 28.999999999999996  L 4.64 28.9  C 5.08 27.800000000000004  5.64 26.66  6.32 25.52  C 6.42 25.319999999999997  6.5 25.14  6.6 25  L 3.7199999999999998 25  L 4.42 23.42  C 6.8 22.76  10.76 21.44  14.54 17.78  L 14.64 17.78  L 16.64 17.78  L 14.059999999999999 23.28  L 18.2 23.28  L 17.44 24.92  L 13.32 24.92  C 13.32 24.92  11.38 28.800000000000004  10.72 31.56  C 10.22 34.64  10.72 37  13.48 37.82  C 15.18 38.34  17.32 38.22  19.62 37.58  C 25 35.9  30.68 32.239999999999995  34.86 27.36  C 41.74 19.38  41.88 11.2  35.16 9.1  C 30.86 7.76  24.78 9.26  19.16 12.6  C 26.160000000000004 8.08  33.88 6  39.18 7.62  C 40.18 7.919999999999999  41.06 8.36  41.78 8.879999999999999  Z " stroke-width="0" stroke-dasharray="0" stroke="rgba(255, 255, 255, 0)" fill="none" class="stroke" mask="url(#Clip7489)" />
    <path d="M 48 25  C 48 20.32  46.66 16  44.34 12.26  C 46 16.619999999999997  43.94 23.14  38.4 29.580000000000002  C 30.08 39.26  16.94 45.1  9 42.66  C 8.099790729727752 42.382331181511745  7.249250281946059 41.96381127863504  6.480000000000002 41.42  C 11.015060309044387 46.26847535073919  17.361153235828287 49.014102313354606  24 49  C 37.26 49  48 38.26  48 25  Z " stroke-width="0" stroke-dasharray="0" stroke="rgba(255, 255, 255, 0)" fill="none" class="stroke" mask="url(#Clip7489)" />
  </g>
</svg>