<?xml version="1.0" encoding="utf-8"?>
<svg version="1.1" xmlns:xlink="http://www.w3.org/1999/xlink" width="24px" height="24px" xmlns="http://www.w3.org/2000/svg">
  <defs>
    <pattern id="BGPattern" patternUnits="userSpaceOnUse" alignment="0 0" imageRepeat="None" />
    <mask fill="white" id="Clip5007">
      <path d="M 6 1.5  L 6 0.75  C 6 0.3357864376269049  5.664213562373095 0  5.25 0  C 4.835786437626905 0  4.5 0.3357864376269049  4.5 0.75  L 4.5 1.5  L 3 1.5  C 1.3431457505076196 1.5  0 2.8431457505076194  0 4.5  L 0 6  L 24 6  L 24 4.5  C 24 2.8431457505076194  22.65685424949238 1.5  21 1.5  L 19.5 1.5  L 19.5 0.75  C 19.5 0.3357864376269049  19.164213562373096 0  18.75 0  C 18.335786437626904 0  18 0.3357864376269049  18 0.75  L 18 1.5  L 6 1.5  Z M 15 10.5  L 24 10.5  L 24 7.5  L 0 7.5  L 0 15  L 7.5 15  C 8.32842712474619 15  9 15.67157287525381  9 16.5  C 9 17.32842712474619  8.32842712474619 18  7.5 18  L 0 18  L 0 21  C 0 22.65685424949238  1.3431457505076196 24  3 24  L 21 24  C 22.65685424949238 24  24 22.65685424949238  24 21  L 24 13.5  L 15 13.5  C 14.17157287525381 13.5  13.5 12.82842712474619  13.5 12  C 13.5 11.17157287525381  14.17157287525381 10.5  15 10.5  Z " fill-rule="evenodd" />
    </mask>
  </defs>
  <g>
    <path d="M 6 1.5  L 6 0.75  C 6 0.3357864376269049  5.664213562373095 0  5.25 0  C 4.835786437626905 0  4.5 0.3357864376269049  4.5 0.75  L 4.5 1.5  L 3 1.5  C 1.3431457505076196 1.5  0 2.8431457505076194  0 4.5  L 0 6  L 24 6  L 24 4.5  C 24 2.8431457505076194  22.65685424949238 1.5  21 1.5  L 19.5 1.5  L 19.5 0.75  C 19.5 0.3357864376269049  19.164213562373096 0  18.75 0  C 18.335786437626904 0  18 0.3357864376269049  18 0.75  L 18 1.5  L 6 1.5  Z M 15 10.5  L 24 10.5  L 24 7.5  L 0 7.5  L 0 15  L 7.5 15  C 8.32842712474619 15  9 15.67157287525381  9 16.5  C 9 17.32842712474619  8.32842712474619 18  7.5 18  L 0 18  L 0 21  C 0 22.65685424949238  1.3431457505076196 24  3 24  L 21 24  C 22.65685424949238 24  24 22.65685424949238  24 21  L 24 13.5  L 15 13.5  C 14.17157287525381 13.5  13.5 12.82842712474619  13.5 12  C 13.5 11.17157287525381  14.17157287525381 10.5  15 10.5  Z " fill-rule="nonzero" fill="rgba(0, 0, 0, 1)" stroke="none" class="fill" />
    <path d="M 6 1.5  L 6 0.75  C 6 0.3357864376269049  5.664213562373095 0  5.25 0  C 4.835786437626905 0  4.5 0.3357864376269049  4.5 0.75  L 4.5 1.5  L 3 1.5  C 1.3431457505076196 1.5  0 2.8431457505076194  0 4.5  L 0 6  L 24 6  L 24 4.5  C 24 2.8431457505076194  22.65685424949238 1.5  21 1.5  L 19.5 1.5  L 19.5 0.75  C 19.5 0.3357864376269049  19.164213562373096 0  18.75 0  C 18.335786437626904 0  18 0.3357864376269049  18 0.75  L 18 1.5  L 6 1.5  Z " stroke-width="0" stroke-dasharray="0" stroke="rgba(255, 255, 255, 0)" fill="none" class="stroke" mask="url(#Clip5007)" />
    <path d="M 15 10.5  L 24 10.5  L 24 7.5  L 0 7.5  L 0 15  L 7.5 15  C 8.32842712474619 15  9 15.67157287525381  9 16.5  C 9 17.32842712474619  8.32842712474619 18  7.5 18  L 0 18  L 0 21  C 0 22.65685424949238  1.3431457505076196 24  3 24  L 21 24  C 22.65685424949238 24  24 22.65685424949238  24 21  L 24 13.5  L 15 13.5  C 14.17157287525381 13.5  13.5 12.82842712474619  13.5 12  C 13.5 11.17157287525381  14.17157287525381 10.5  15 10.5  Z " stroke-width="0" stroke-dasharray="0" stroke="rgba(255, 255, 255, 0)" fill="none" class="stroke" mask="url(#Clip5007)" />
  </g>
</svg>