<?xml version="1.0" encoding="utf-8"?>
<svg version="1.1" xmlns:xlink="http://www.w3.org/1999/xlink" width="24px" height="6px" xmlns="http://www.w3.org/2000/svg">
  <defs>
    <pattern id="BGPattern" patternUnits="userSpaceOnUse" alignment="0 0" imageRepeat="None" />
    <mask fill="white" id="Clip4409">
      <path d="M 0 6  L 2 6  L 2 2  L 22 2  L 22 6  L 24 6  L 24 2  C 24 0.8954305003384131  23.104569499661586 0  22 0  L 2 0  C 0.8954305003384135 0  0 0.8954305003384131  0 2  L 0 6  Z " fill-rule="evenodd" />
    </mask>
  </defs>
  <g transform="matrix(1 0 0 1 -4 -2 )">
    <path d="M 0 6  L 2 6  L 2 2  L 22 2  L 22 6  L 24 6  L 24 2  C 24 0.8954305003384131  23.104569499661586 0  22 0  L 2 0  C 0.8954305003384135 0  0 0.8954305003384131  0 2  L 0 6  Z " fill-rule="nonzero" fill="rgba(0, 0, 0, 1)" stroke="none" transform="matrix(1 0 0 1 4 2 )" class="fill" />
    <path d="M 0 6  L 2 6  L 2 2  L 22 2  L 22 6  L 24 6  L 24 2  C 24 0.8954305003384131  23.104569499661586 0  22 0  L 2 0  C 0.8954305003384135 0  0 0.8954305003384131  0 2  L 0 6  Z " stroke-width="0" stroke-dasharray="0" stroke="rgba(255, 255, 255, 0)" fill="none" transform="matrix(1 0 0 1 4 2 )" class="stroke" mask="url(#Clip4409)" />
  </g>
</svg>