<?xml version="1.0" encoding="utf-8"?>
<svg version="1.1" xmlns:xlink="http://www.w3.org/1999/xlink" width="20px" height="18px" xmlns="http://www.w3.org/2000/svg">
  <defs>
    <pattern id="BGPattern" patternUnits="userSpaceOnUse" alignment="0 0" imageRepeat="None" />
    <mask fill="white" id="Clip4018">
      <path d="M 11 0  C 6.030731879510137 0.001829997040794673  2.0033143657880768 4.030730932271208  2.0033143657880768 8.99999938972106  C 2.0033143657880768 10.77997736801736  2.5311232246928235 12.519985024914325  3.5199999999999996 14.000000000000002  L 5.179999999999999 12.890000000000002  C 4.410401076266568 11.738645702140682  3.9996133963570433 10.384882396516206  3.9996133963570433 9.000000010675883  C 3.9996133963570433 5.134006761860331  7.133620147541489 2.000000010675885  10.999613396357045 2.000000010675885  C 14.865606645172598 2.000000010675885  17.999613396357045 5.134006761860331  17.999613396357045 9.000000010675883  C 17.999613396357045 12.86584228224096  14.86584226566918 15.999786493042103  11 16  L 0 16  L 0 18  L 11 18  C 15.970562748477143 18  20 13.970562748477144  20 9  C 20 4.029437251522859  15.970562748477143 0  11 0  Z " fill-rule="evenodd" />
    </mask>
  </defs>
  <g transform="matrix(1 0 0 1 -2 -6 )">
    <path d="M 11 0  C 6.030731879510137 0.001829997040794673  2.0033143657880768 4.030730932271208  2.0033143657880768 8.99999938972106  C 2.0033143657880768 10.77997736801736  2.5311232246928235 12.519985024914325  3.5199999999999996 14.000000000000002  L 5.179999999999999 12.890000000000002  C 4.410401076266568 11.738645702140682  3.9996133963570433 10.384882396516206  3.9996133963570433 9.000000010675883  C 3.9996133963570433 5.134006761860331  7.133620147541489 2.000000010675885  10.999613396357045 2.000000010675885  C 14.865606645172598 2.000000010675885  17.999613396357045 5.134006761860331  17.999613396357045 9.000000010675883  C 17.999613396357045 12.86584228224096  14.86584226566918 15.999786493042103  11 16  L 0 16  L 0 18  L 11 18  C 15.970562748477143 18  20 13.970562748477144  20 9  C 20 4.029437251522859  15.970562748477143 0  11 0  Z " fill-rule="nonzero" fill="rgba(0, 0, 0, 1)" stroke="none" transform="matrix(1 0 0 1 2 6 )" class="fill" />
    <path d="M 11 0  C 6.030731879510137 0.001829997040794673  2.0033143657880768 4.030730932271208  2.0033143657880768 8.99999938972106  C 2.0033143657880768 10.77997736801736  2.5311232246928235 12.519985024914325  3.5199999999999996 14.000000000000002  L 5.179999999999999 12.890000000000002  C 4.410401076266568 11.738645702140682  3.9996133963570433 10.384882396516206  3.9996133963570433 9.000000010675883  C 3.9996133963570433 5.134006761860331  7.133620147541489 2.000000010675885  10.999613396357045 2.000000010675885  C 14.865606645172598 2.000000010675885  17.999613396357045 5.134006761860331  17.999613396357045 9.000000010675883  C 17.999613396357045 12.86584228224096  14.86584226566918 15.999786493042103  11 16  L 0 16  L 0 18  L 11 18  C 15.970562748477143 18  20 13.970562748477144  20 9  C 20 4.029437251522859  15.970562748477143 0  11 0  Z " stroke-width="0" stroke-dasharray="0" stroke="rgba(255, 255, 255, 0)" fill="none" transform="matrix(1 0 0 1 2 6 )" class="stroke" mask="url(#Clip4018)" />
  </g>
</svg>