<?xml version="1.0" encoding="utf-8"?>
<svg version="1.1" xmlns:xlink="http://www.w3.org/1999/xlink" width="48px" height="49px" xmlns="http://www.w3.org/2000/svg">
  <defs>
    <pattern id="BGPattern" patternUnits="userSpaceOnUse" alignment="0 0" imageRepeat="None" />
    <mask fill="white" id="Clip6926">
      <path d="M 47.092 27.234  C 48.30199999999999 26.028000000000002  48.30199999999999 24.07  47.092 22.86  L 26.134 1.904  C 24.926000000000002 0.6980000000000001  22.97 0.6980000000000001  21.758 1.904  L 17.416 6.254  L 22.936 11.774  C 24.226 11.344  25.693999999999996 11.633999999999999  26.714 12.656  C 27.746000000000002 13.685999999999998  28.029999999999994 15.171999999999999  27.590000000000003 16.456  L 32.906 21.776  C 34.196 21.33  35.68 21.62  36.705999999999996 22.646  C 38.147999999999996 24.086000000000002  38.147999999999996 26.414000000000005  36.705999999999996 27.854  C 35.267999999999994 29.291999999999998  32.943999999999996 29.291999999999998  31.505999999999997 27.854  C 30.427999999999997 26.772000000000002  30.157999999999994 25.179999999999996  30.697999999999993 23.862  L 25 18.91  L 25 31.96  C 26.072000000000003 32.132000000000005  26.404000000000003 32.366  26.695999999999998 32.656000000000006  C 28.121999999999996 34.098  28.121999999999996 36.422000000000004  26.695999999999998 37.856  C 25.257999999999996 39.298  22.918 39.298  21.477999999999998 37.856  C 20.04 36.418  20.04 34.098  21.477999999999998 32.660000000000004  C 21.842 32.300000000000004  22.252 32.028000000000006  23 31.848  L 23 18.67  C 22.253999999999998 18.488000000000003  21.84 18.226000000000003  21.488 17.868000000000002  C 20.398 16.778000000000002  20.136 15.184000000000003  20.695999999999998 13.85  L 15.271999999999998 8.4  L 0.8999999999999999 22.762  C -0.29999999999999993 23.972  -0.29999999999999993 25.93  0.8999999999999999 27.14  L 21.86 48.094  C 23.067999999999998 49.30200000000001  25.024 49.30200000000001  26.232 48.094  L 47.092 27.234  Z " fill-rule="evenodd" />
    </mask>
  </defs>
  <g>
    <path d="M 47.092 27.234  C 48.30199999999999 26.028000000000002  48.30199999999999 24.07  47.092 22.86  L 26.134 1.904  C 24.926000000000002 0.6980000000000001  22.97 0.6980000000000001  21.758 1.904  L 17.416 6.254  L 22.936 11.774  C 24.226 11.344  25.693999999999996 11.633999999999999  26.714 12.656  C 27.746000000000002 13.685999999999998  28.029999999999994 15.171999999999999  27.590000000000003 16.456  L 32.906 21.776  C 34.196 21.33  35.68 21.62  36.705999999999996 22.646  C 38.147999999999996 24.086000000000002  38.147999999999996 26.414000000000005  36.705999999999996 27.854  C 35.267999999999994 29.291999999999998  32.943999999999996 29.291999999999998  31.505999999999997 27.854  C 30.427999999999997 26.772000000000002  30.157999999999994 25.179999999999996  30.697999999999993 23.862  L 25 18.91  L 25 31.96  C 26.072000000000003 32.132000000000005  26.404000000000003 32.366  26.695999999999998 32.656000000000006  C 28.121999999999996 34.098  28.121999999999996 36.422000000000004  26.695999999999998 37.856  C 25.257999999999996 39.298  22.918 39.298  21.477999999999998 37.856  C 20.04 36.418  20.04 34.098  21.477999999999998 32.660000000000004  C 21.842 32.300000000000004  22.252 32.028000000000006  23 31.848  L 23 18.67  C 22.253999999999998 18.488000000000003  21.84 18.226000000000003  21.488 17.868000000000002  C 20.398 16.778000000000002  20.136 15.184000000000003  20.695999999999998 13.85  L 15.271999999999998 8.4  L 0.8999999999999999 22.762  C -0.29999999999999993 23.972  -0.29999999999999993 25.93  0.8999999999999999 27.14  L 21.86 48.094  C 23.067999999999998 49.30200000000001  25.024 49.30200000000001  26.232 48.094  L 47.092 27.234  Z " fill-rule="nonzero" fill="rgba(240, 80, 50, 1)" stroke="none" class="fill" />
    <path d="M 47.092 27.234  C 48.30199999999999 26.028000000000002  48.30199999999999 24.07  47.092 22.86  L 26.134 1.904  C 24.926000000000002 0.6980000000000001  22.97 0.6980000000000001  21.758 1.904  L 17.416 6.254  L 22.936 11.774  C 24.226 11.344  25.693999999999996 11.633999999999999  26.714 12.656  C 27.746000000000002 13.685999999999998  28.029999999999994 15.171999999999999  27.590000000000003 16.456  L 32.906 21.776  C 34.196 21.33  35.68 21.62  36.705999999999996 22.646  C 38.147999999999996 24.086000000000002  38.147999999999996 26.414000000000005  36.705999999999996 27.854  C 35.267999999999994 29.291999999999998  32.943999999999996 29.291999999999998  31.505999999999997 27.854  C 30.427999999999997 26.772000000000002  30.157999999999994 25.179999999999996  30.697999999999993 23.862  L 25 18.91  L 25 31.96  C 26.072000000000003 32.132000000000005  26.404000000000003 32.366  26.695999999999998 32.656000000000006  C 28.121999999999996 34.098  28.121999999999996 36.422000000000004  26.695999999999998 37.856  C 25.257999999999996 39.298  22.918 39.298  21.477999999999998 37.856  C 20.04 36.418  20.04 34.098  21.477999999999998 32.660000000000004  C 21.842 32.300000000000004  22.252 32.028000000000006  23 31.848  L 23 18.67  C 22.253999999999998 18.488000000000003  21.84 18.226000000000003  21.488 17.868000000000002  C 20.398 16.778000000000002  20.136 15.184000000000003  20.695999999999998 13.85  L 15.271999999999998 8.4  L 0.8999999999999999 22.762  C -0.29999999999999993 23.972  -0.29999999999999993 25.93  0.8999999999999999 27.14  L 21.86 48.094  C 23.067999999999998 49.30200000000001  25.024 49.30200000000001  26.232 48.094  L 47.092 27.234  Z " stroke-width="0" stroke-dasharray="0" stroke="rgba(255, 255, 255, 0)" fill="none" class="stroke" mask="url(#Clip6926)" />
  </g>
</svg>