<?xml version="1.0" encoding="utf-8"?>
<svg version="1.1" xmlns:xlink="http://www.w3.org/1999/xlink" width="50px" height="50px" xmlns="http://www.w3.org/2000/svg">
  <defs>
    <pattern id="BGPattern" patternUnits="userSpaceOnUse" alignment="0 0" imageRepeat="None" />
    <mask fill="white" id="Clip2039">
      <path d="M 29.39571150097467 32.23196881091616  C 33.888888888888886 26.179337231968812  42.21247563352827 24.688109161793363  48.46003898635479 28.898635477582847  C 51.53021442495128 21.31578947368422  50 12.300194931773888  43.859649122807014 6.150097465886944  C 35.68226120857699 -2.0467836257309955  22.417153996101376 -2.0467836257309955  14.239766081871352 6.150097465886944  L 8.781676413255354 11.61793372319687  L 29.39571150097467 32.23196881091616  Z M 26.617933723196867 40.53606237816763  C 26.60818713450294 39.191033138401565  26.8615984405458 37.904483430799246  27.222222222222232 36.666666666666686  L 5.740740740740733 15.194931773879148  C 3.0799220272904506 19.610136452241704  3.625730994152036 25.42884990253412  7.426900584795333 29.239766081871355  L 10.78947368421052 32.612085769980524  L 0.7504873294346908 41.32553606237815  C -0.08771929824561653 42.056530214424924  -0.1364522417154035 43.3430799220273  0.6530214424951168 44.13255360623782  L 5.857699805068222 49.34697855750488  C 6.637426900584785 50.1364522417154  7.9239766081871315 50.087719298245595  8.654970760233908 49.24951267056531  L 17.358674463937632 39.18128654970758  L 20.838206627680307 42.66081871345028  C 22.758284600389857 44.58089668615986  25.185185185185187 45.6335282651072  27.690058479532155 45.90643274853801  C 26.99805068226121 44.24951267056531  26.617933723196867 42.43664717348929  26.617933723196867 40.53606237816763  Z M 50 40.545808966861614  C 50 35.38011695906431  45.808966861598435 31.189083820662745  40.64327485380119 31.189083820662745  C 35.477582846003884 31.189083820662745  31.286549707602347 35.38011695906431  31.286549707602347 40.545808966861614  C 31.286549707602347 45.71150097465886  35.477582846003884 49.902534113060426  40.64327485380119 49.902534113060426  C 45.808966861598435 49.902534113060426  50 45.71150097465886  50 40.545808966861614  Z " fill-rule="evenodd" />
    </mask>
  </defs>
  <g>
    <path d="M 29.39571150097467 32.23196881091616  C 33.888888888888886 26.179337231968812  42.21247563352827 24.688109161793363  48.46003898635479 28.898635477582847  C 51.53021442495128 21.31578947368422  50 12.300194931773888  43.859649122807014 6.150097465886944  C 35.68226120857699 -2.0467836257309955  22.417153996101376 -2.0467836257309955  14.239766081871352 6.150097465886944  L 8.781676413255354 11.61793372319687  L 29.39571150097467 32.23196881091616  Z M 26.617933723196867 40.53606237816763  C 26.60818713450294 39.191033138401565  26.8615984405458 37.904483430799246  27.222222222222232 36.666666666666686  L 5.740740740740733 15.194931773879148  C 3.0799220272904506 19.610136452241704  3.625730994152036 25.42884990253412  7.426900584795333 29.239766081871355  L 10.78947368421052 32.612085769980524  L 0.7504873294346908 41.32553606237815  C -0.08771929824561653 42.056530214424924  -0.1364522417154035 43.3430799220273  0.6530214424951168 44.13255360623782  L 5.857699805068222 49.34697855750488  C 6.637426900584785 50.1364522417154  7.9239766081871315 50.087719298245595  8.654970760233908 49.24951267056531  L 17.358674463937632 39.18128654970758  L 20.838206627680307 42.66081871345028  C 22.758284600389857 44.58089668615986  25.185185185185187 45.6335282651072  27.690058479532155 45.90643274853801  C 26.99805068226121 44.24951267056531  26.617933723196867 42.43664717348929  26.617933723196867 40.53606237816763  Z M 50 40.545808966861614  C 50 35.38011695906431  45.808966861598435 31.189083820662745  40.64327485380119 31.189083820662745  C 35.477582846003884 31.189083820662745  31.286549707602347 35.38011695906431  31.286549707602347 40.545808966861614  C 31.286549707602347 45.71150097465886  35.477582846003884 49.902534113060426  40.64327485380119 49.902534113060426  C 45.808966861598435 49.902534113060426  50 45.71150097465886  50 40.545808966861614  Z " fill-rule="nonzero" fill="rgba(0, 0, 0, 1)" stroke="none" class="fill" />
    <path d="M 29.39571150097467 32.23196881091616  C 33.888888888888886 26.179337231968812  42.21247563352827 24.688109161793363  48.46003898635479 28.898635477582847  C 51.53021442495128 21.31578947368422  50 12.300194931773888  43.859649122807014 6.150097465886944  C 35.68226120857699 -2.0467836257309955  22.417153996101376 -2.0467836257309955  14.239766081871352 6.150097465886944  L 8.781676413255354 11.61793372319687  L 29.39571150097467 32.23196881091616  Z " stroke-width="0" stroke-dasharray="0" stroke="rgba(255, 255, 255, 0)" fill="none" class="stroke" mask="url(#Clip2039)" />
    <path d="M 26.617933723196867 40.53606237816763  C 26.60818713450294 39.191033138401565  26.8615984405458 37.904483430799246  27.222222222222232 36.666666666666686  L 5.740740740740733 15.194931773879148  C 3.0799220272904506 19.610136452241704  3.625730994152036 25.42884990253412  7.426900584795333 29.239766081871355  L 10.78947368421052 32.612085769980524  L 0.7504873294346908 41.32553606237815  C -0.08771929824561653 42.056530214424924  -0.1364522417154035 43.3430799220273  0.6530214424951168 44.13255360623782  L 5.857699805068222 49.34697855750488  C 6.637426900584785 50.1364522417154  7.9239766081871315 50.087719298245595  8.654970760233908 49.24951267056531  L 17.358674463937632 39.18128654970758  L 20.838206627680307 42.66081871345028  C 22.758284600389857 44.58089668615986  25.185185185185187 45.6335282651072  27.690058479532155 45.90643274853801  C 26.99805068226121 44.24951267056531  26.617933723196867 42.43664717348929  26.617933723196867 40.53606237816763  Z " stroke-width="0" stroke-dasharray="0" stroke="rgba(255, 255, 255, 0)" fill="none" class="stroke" mask="url(#Clip2039)" />
    <path d="M 50 40.545808966861614  C 50 35.38011695906431  45.808966861598435 31.189083820662745  40.64327485380119 31.189083820662745  C 35.477582846003884 31.189083820662745  31.286549707602347 35.38011695906431  31.286549707602347 40.545808966861614  C 31.286549707602347 45.71150097465886  35.477582846003884 49.902534113060426  40.64327485380119 49.902534113060426  C 45.808966861598435 49.902534113060426  50 45.71150097465886  50 40.545808966861614  Z " stroke-width="0" stroke-dasharray="0" stroke="rgba(255, 255, 255, 0)" fill="none" class="stroke" mask="url(#Clip2039)" />
  </g>
</svg>