<?xml version="1.0" encoding="utf-8"?>
<svg version="1.1" xmlns:xlink="http://www.w3.org/1999/xlink" width="18px" height="18px" xmlns="http://www.w3.org/2000/svg">
  <defs>
    <pattern id="BGPattern" patternUnits="userSpaceOnUse" alignment="0 0" imageRepeat="None" />
    <mask fill="white" id="Clip4004">
      <path d="M 17.791400000000003 13.617500000000003  C 17.788888868666636 13.657200952507829  17.779446317041927 13.696155708493642  17.7635 13.732600000000001  C 17.6099 14.092600000000001  16.8335 14.3903  15.520199999999999 14.593200000000003  C 15.396999999999998 14.612200000000001  15.345099999999999 14.811500000000002  15.273899999999998 15.137700000000002  C 15.244599999999998 15.2725  15.214699999999997 15.404600000000002  15.173899999999996 15.543399999999998  C 15.148677552739418 15.664494581854033  15.03717890322325 15.747818380319387  14.913899999999995 15.7377  L 14.8934 15.7377  C 14.767637929224882 15.733192561375912  14.642535084375936 15.71739573345491  14.5196 15.6905  C 14.19554810814672 15.622647012644919  13.865475810394305 15.587669802042655  13.534399999999994 15.586099999999998  C 13.296294289280045 15.586707508569962  13.058636514119609 15.606774306360034  12.823799999999999 15.646100000000004  C 12.328366337161167 15.771596041252977  11.867540635134883 16.007016009773114  11.475499999999997 16.3349  C 10.812523753397368 16.900836558443373  9.97952409599943 17.229137251539875  9.108699999999995 17.2677  C 9.058699999999995 17.2677  9.011399999999995 17.265900000000002  8.975199999999996 17.264200000000002  C 8.946499999999995 17.266600000000004  8.916799999999995 17.2677  8.887099999999991 17.267699999999998  C 8.016844539274826 17.229372632401468  7.184370935115071 16.901254627328647  6.521999999999995 16.3355  C 6.129444965067838 16.007161462594915  5.668054465421697 15.771339651664668  5.1719999999999935 15.645499999999998  C 4.937366018042297 15.606167874552355  4.699907041674145 15.586100918802934  4.461999999999996 15.585500000000003  C 4.130656762267366 15.588969435567964  3.8005378865122488 15.626330635980768  3.4767999999999954 15.697  C 3.3540109824623965 15.725603858401445  3.228978679588206 15.743537311529774  3.103099999999996 15.750599999999999  C 2.971748267322779 15.765569297630801  2.8504143828896087 15.678599659055973  2.8223999999999965 15.549399999999999  C 2.780999999999997 15.4087  2.751299999999997 15.272399999999998  2.722399999999997 15.141199999999998  C 2.6507999999999967 14.813199999999998  2.5986999999999973 14.613  2.4758999999999975 14.593999999999998  C 1.1625999999999976 14.391399999999997  0.38659999999999783 14.092899999999997  0.23199999999999843 13.731399999999997  C 0.21630297753179217 13.69529419922329  0.20709534671362206 13.656703393588323  0.20479999999999876 13.617399999999996  C 0.19872399155136655 13.509758286798288  0.27481098426144523 13.414865211989799  0.3811999999999971 13.397399999999998  C 1.4673369420832678 13.200609961499644  2.4460354487529568 12.618624501376917  3.137599999999999 11.758299999999998  C 3.5183381779001746 11.317901146376986  3.8348116162004295 10.825818617207144  4.077599999999999 10.296699999999998  L 4.082399999999998 10.286699999999996  C 4.227377939298638 10.04950525493501  4.260310974153306 9.760426393432926  4.172399999999998 9.496699999999997  C 4.003099999999998 9.097599999999996  3.4423999999999975 8.919799999999997  3.071699999999998 8.802099999999998  C 2.979599999999998 8.772999999999998  2.8922999999999988 8.745399999999998  2.822899999999999 8.717699999999997  C 2.4940999999999995 8.587699999999996  1.953599999999998 8.313599999999997  2.0256000000000007 7.934900000000001  C 2.138646195456685 7.642508000309526  2.4250563609159954 7.4543139768991225  2.738299999999999 7.466599999999998  C 2.8125189842474665 7.4649034920696415  2.8861998003182485 7.47958502631915  2.954099999999997 7.509599999999997  C 3.230850608395505 7.651449659130876  3.5349992814740006 7.731785025337677  3.845699999999999 7.745099999999997  C 4.030368646981939 7.758273113074882  4.213343791989402 7.7023541410225445  4.3591 7.588199999999997  C 4.349433333333334 7.412933333333331  4.3388333333333335 7.237733333333331  4.327299999999999 7.062599999999996  C 4.158492222302222 5.878804216756784  4.230670377576649 4.673102487250398  4.5394999999999985 3.5178999999999956  C 5.2821952358881 1.82294211830121  6.966910735163012 0.7368051143622054  8.8173 0.7599999999999998  C 8.935300000000002 0.7590000000000003  9.053266666666666 0.7578999999999994  9.171199999999999 0.7566999999999995  C 11.024345618662775 0.7330227132711693  12.711911181999245 1.820156284817303  13.456499999999998 3.5172999999999988  C 13.765348467857997 4.673561602849521  13.837389861783809 5.880305971924102  13.668299999999999 7.065099999999999  L 13.6647 7.122499999999999  C 13.654699999999998 7.285399999999999  13.6447 7.439499999999999  13.6369 7.588999999999999  C 13.769114261243512 7.693766416261127  13.933858796222804 7.748893560912704  14.102499999999996 7.744799999999998  C 14.39516084494743 7.722782270184185  14.680606669883364 7.643265218952029  14.942499999999995 7.510799999999998  C 15.029262914191246 7.473218980474169  15.123062342258681 7.454636396578584  15.217599999999997 7.456299999999997  C 15.324925751424825 7.455905230729247  15.431314138775846 7.476279642606237  15.530899999999999 7.5162999999999975  L 15.535899999999998 7.518199999999998  C 15.766434038532491 7.57304874779353  15.940763644181455 7.762087043236416  15.976799999999997 7.996299999999996  C 15.980199999999996 8.179799999999997  15.843799999999998 8.454099999999997  15.172899999999998 8.718899999999996  C 15.104199999999999 8.746099999999997  15.016499999999997 8.773999999999996  14.924 8.803299999999997  C 14.552799999999998 8.921099999999997  13.992799999999999 9.098899999999997  13.8235 9.497700000000002  C 13.735695674917299 9.761204828784624  13.76862853909362 10.050026047610938  13.913499999999999 10.286999999999999  L 13.918299999999999 10.297  C 14.598639234696833 11.851152110943108  15.966141614588764 12.998105103843514  17.615 13.397499999999997  C 17.72136419980105 13.41500766945839  17.79742917223001 13.509873281331238  17.791400000000003 13.617500000000003  Z " fill-rule="evenodd" />
    </mask>
  </defs>
  <g transform="matrix(1 0 0 1 -7 -7 )">
    <path d="M 17.791400000000003 13.617500000000003  C 17.788888868666636 13.657200952507829  17.779446317041927 13.696155708493642  17.7635 13.732600000000001  C 17.6099 14.092600000000001  16.8335 14.3903  15.520199999999999 14.593200000000003  C 15.396999999999998 14.612200000000001  15.345099999999999 14.811500000000002  15.273899999999998 15.137700000000002  C 15.244599999999998 15.2725  15.214699999999997 15.404600000000002  15.173899999999996 15.543399999999998  C 15.148677552739418 15.664494581854033  15.03717890322325 15.747818380319387  14.913899999999995 15.7377  L 14.8934 15.7377  C 14.767637929224882 15.733192561375912  14.642535084375936 15.71739573345491  14.5196 15.6905  C 14.19554810814672 15.622647012644919  13.865475810394305 15.587669802042655  13.534399999999994 15.586099999999998  C 13.296294289280045 15.586707508569962  13.058636514119609 15.606774306360034  12.823799999999999 15.646100000000004  C 12.328366337161167 15.771596041252977  11.867540635134883 16.007016009773114  11.475499999999997 16.3349  C 10.812523753397368 16.900836558443373  9.97952409599943 17.229137251539875  9.108699999999995 17.2677  C 9.058699999999995 17.2677  9.011399999999995 17.265900000000002  8.975199999999996 17.264200000000002  C 8.946499999999995 17.266600000000004  8.916799999999995 17.2677  8.887099999999991 17.267699999999998  C 8.016844539274826 17.229372632401468  7.184370935115071 16.901254627328647  6.521999999999995 16.3355  C 6.129444965067838 16.007161462594915  5.668054465421697 15.771339651664668  5.1719999999999935 15.645499999999998  C 4.937366018042297 15.606167874552355  4.699907041674145 15.586100918802934  4.461999999999996 15.585500000000003  C 4.130656762267366 15.588969435567964  3.8005378865122488 15.626330635980768  3.4767999999999954 15.697  C 3.3540109824623965 15.725603858401445  3.228978679588206 15.743537311529774  3.103099999999996 15.750599999999999  C 2.971748267322779 15.765569297630801  2.8504143828896087 15.678599659055973  2.8223999999999965 15.549399999999999  C 2.780999999999997 15.4087  2.751299999999997 15.272399999999998  2.722399999999997 15.141199999999998  C 2.6507999999999967 14.813199999999998  2.5986999999999973 14.613  2.4758999999999975 14.593999999999998  C 1.1625999999999976 14.391399999999997  0.38659999999999783 14.092899999999997  0.23199999999999843 13.731399999999997  C 0.21630297753179217 13.69529419922329  0.20709534671362206 13.656703393588323  0.20479999999999876 13.617399999999996  C 0.19872399155136655 13.509758286798288  0.27481098426144523 13.414865211989799  0.3811999999999971 13.397399999999998  C 1.4673369420832678 13.200609961499644  2.4460354487529568 12.618624501376917  3.137599999999999 11.758299999999998  C 3.5183381779001746 11.317901146376986  3.8348116162004295 10.825818617207144  4.077599999999999 10.296699999999998  L 4.082399999999998 10.286699999999996  C 4.227377939298638 10.04950525493501  4.260310974153306 9.760426393432926  4.172399999999998 9.496699999999997  C 4.003099999999998 9.097599999999996  3.4423999999999975 8.919799999999997  3.071699999999998 8.802099999999998  C 2.979599999999998 8.772999999999998  2.8922999999999988 8.745399999999998  2.822899999999999 8.717699999999997  C 2.4940999999999995 8.587699999999996  1.953599999999998 8.313599999999997  2.0256000000000007 7.934900000000001  C 2.138646195456685 7.642508000309526  2.4250563609159954 7.4543139768991225  2.738299999999999 7.466599999999998  C 2.8125189842474665 7.4649034920696415  2.8861998003182485 7.47958502631915  2.954099999999997 7.509599999999997  C 3.230850608395505 7.651449659130876  3.5349992814740006 7.731785025337677  3.845699999999999 7.745099999999997  C 4.030368646981939 7.758273113074882  4.213343791989402 7.7023541410225445  4.3591 7.588199999999997  C 4.349433333333334 7.412933333333331  4.3388333333333335 7.237733333333331  4.327299999999999 7.062599999999996  C 4.158492222302222 5.878804216756784  4.230670377576649 4.673102487250398  4.5394999999999985 3.5178999999999956  C 5.2821952358881 1.82294211830121  6.966910735163012 0.7368051143622054  8.8173 0.7599999999999998  C 8.935300000000002 0.7590000000000003  9.053266666666666 0.7578999999999994  9.171199999999999 0.7566999999999995  C 11.024345618662775 0.7330227132711693  12.711911181999245 1.820156284817303  13.456499999999998 3.5172999999999988  C 13.765348467857997 4.673561602849521  13.837389861783809 5.880305971924102  13.668299999999999 7.065099999999999  L 13.6647 7.122499999999999  C 13.654699999999998 7.285399999999999  13.6447 7.439499999999999  13.6369 7.588999999999999  C 13.769114261243512 7.693766416261127  13.933858796222804 7.748893560912704  14.102499999999996 7.744799999999998  C 14.39516084494743 7.722782270184185  14.680606669883364 7.643265218952029  14.942499999999995 7.510799999999998  C 15.029262914191246 7.473218980474169  15.123062342258681 7.454636396578584  15.217599999999997 7.456299999999997  C 15.324925751424825 7.455905230729247  15.431314138775846 7.476279642606237  15.530899999999999 7.5162999999999975  L 15.535899999999998 7.518199999999998  C 15.766434038532491 7.57304874779353  15.940763644181455 7.762087043236416  15.976799999999997 7.996299999999996  C 15.980199999999996 8.179799999999997  15.843799999999998 8.454099999999997  15.172899999999998 8.718899999999996  C 15.104199999999999 8.746099999999997  15.016499999999997 8.773999999999996  14.924 8.803299999999997  C 14.552799999999998 8.921099999999997  13.992799999999999 9.098899999999997  13.8235 9.497700000000002  C 13.735695674917299 9.761204828784624  13.76862853909362 10.050026047610938  13.913499999999999 10.286999999999999  L 13.918299999999999 10.297  C 14.598639234696833 11.851152110943108  15.966141614588764 12.998105103843514  17.615 13.397499999999997  C 17.72136419980105 13.41500766945839  17.79742917223001 13.509873281331238  17.791400000000003 13.617500000000003  Z " fill-rule="nonzero" fill="rgba(255, 255, 255, 0)" stroke="none" transform="matrix(1 0 0 1 7 7 )" class="fill" />
    <path d="M 17.791400000000003 13.617500000000003  C 17.788888868666636 13.657200952507829  17.779446317041927 13.696155708493642  17.7635 13.732600000000001  C 17.6099 14.092600000000001  16.8335 14.3903  15.520199999999999 14.593200000000003  C 15.396999999999998 14.612200000000001  15.345099999999999 14.811500000000002  15.273899999999998 15.137700000000002  C 15.244599999999998 15.2725  15.214699999999997 15.404600000000002  15.173899999999996 15.543399999999998  C 15.148677552739418 15.664494581854033  15.03717890322325 15.747818380319387  14.913899999999995 15.7377  L 14.8934 15.7377  C 14.767637929224882 15.733192561375912  14.642535084375936 15.71739573345491  14.5196 15.6905  C 14.19554810814672 15.622647012644919  13.865475810394305 15.587669802042655  13.534399999999994 15.586099999999998  C 13.296294289280045 15.586707508569962  13.058636514119609 15.606774306360034  12.823799999999999 15.646100000000004  C 12.328366337161167 15.771596041252977  11.867540635134883 16.007016009773114  11.475499999999997 16.3349  C 10.812523753397368 16.900836558443373  9.97952409599943 17.229137251539875  9.108699999999995 17.2677  C 9.058699999999995 17.2677  9.011399999999995 17.265900000000002  8.975199999999996 17.264200000000002  C 8.946499999999995 17.266600000000004  8.916799999999995 17.2677  8.887099999999991 17.267699999999998  C 8.016844539274826 17.229372632401468  7.184370935115071 16.901254627328647  6.521999999999995 16.3355  C 6.129444965067838 16.007161462594915  5.668054465421697 15.771339651664668  5.1719999999999935 15.645499999999998  C 4.937366018042297 15.606167874552355  4.699907041674145 15.586100918802934  4.461999999999996 15.585500000000003  C 4.130656762267366 15.588969435567964  3.8005378865122488 15.626330635980768  3.4767999999999954 15.697  C 3.3540109824623965 15.725603858401445  3.228978679588206 15.743537311529774  3.103099999999996 15.750599999999999  C 2.971748267322779 15.765569297630801  2.8504143828896087 15.678599659055973  2.8223999999999965 15.549399999999999  C 2.780999999999997 15.4087  2.751299999999997 15.272399999999998  2.722399999999997 15.141199999999998  C 2.6507999999999967 14.813199999999998  2.5986999999999973 14.613  2.4758999999999975 14.593999999999998  C 1.1625999999999976 14.391399999999997  0.38659999999999783 14.092899999999997  0.23199999999999843 13.731399999999997  C 0.21630297753179217 13.69529419922329  0.20709534671362206 13.656703393588323  0.20479999999999876 13.617399999999996  C 0.19872399155136655 13.509758286798288  0.27481098426144523 13.414865211989799  0.3811999999999971 13.397399999999998  C 1.4673369420832678 13.200609961499644  2.4460354487529568 12.618624501376917  3.137599999999999 11.758299999999998  C 3.5183381779001746 11.317901146376986  3.8348116162004295 10.825818617207144  4.077599999999999 10.296699999999998  L 4.082399999999998 10.286699999999996  C 4.227377939298638 10.04950525493501  4.260310974153306 9.760426393432926  4.172399999999998 9.496699999999997  C 4.003099999999998 9.097599999999996  3.4423999999999975 8.919799999999997  3.071699999999998 8.802099999999998  C 2.979599999999998 8.772999999999998  2.8922999999999988 8.745399999999998  2.822899999999999 8.717699999999997  C 2.4940999999999995 8.587699999999996  1.953599999999998 8.313599999999997  2.0256000000000007 7.934900000000001  C 2.138646195456685 7.642508000309526  2.4250563609159954 7.4543139768991225  2.738299999999999 7.466599999999998  C 2.8125189842474665 7.4649034920696415  2.8861998003182485 7.47958502631915  2.954099999999997 7.509599999999997  C 3.230850608395505 7.651449659130876  3.5349992814740006 7.731785025337677  3.845699999999999 7.745099999999997  C 4.030368646981939 7.758273113074882  4.213343791989402 7.7023541410225445  4.3591 7.588199999999997  C 4.349433333333334 7.412933333333331  4.3388333333333335 7.237733333333331  4.327299999999999 7.062599999999996  C 4.158492222302222 5.878804216756784  4.230670377576649 4.673102487250398  4.5394999999999985 3.5178999999999956  C 5.2821952358881 1.82294211830121  6.966910735163012 0.7368051143622054  8.8173 0.7599999999999998  C 8.935300000000002 0.7590000000000003  9.053266666666666 0.7578999999999994  9.171199999999999 0.7566999999999995  C 11.024345618662775 0.7330227132711693  12.711911181999245 1.820156284817303  13.456499999999998 3.5172999999999988  C 13.765348467857997 4.673561602849521  13.837389861783809 5.880305971924102  13.668299999999999 7.065099999999999  L 13.6647 7.122499999999999  C 13.654699999999998 7.285399999999999  13.6447 7.439499999999999  13.6369 7.588999999999999  C 13.769114261243512 7.693766416261127  13.933858796222804 7.748893560912704  14.102499999999996 7.744799999999998  C 14.39516084494743 7.722782270184185  14.680606669883364 7.643265218952029  14.942499999999995 7.510799999999998  C 15.029262914191246 7.473218980474169  15.123062342258681 7.454636396578584  15.217599999999997 7.456299999999997  C 15.324925751424825 7.455905230729247  15.431314138775846 7.476279642606237  15.530899999999999 7.5162999999999975  L 15.535899999999998 7.518199999999998  C 15.766434038532491 7.57304874779353  15.940763644181455 7.762087043236416  15.976799999999997 7.996299999999996  C 15.980199999999996 8.179799999999997  15.843799999999998 8.454099999999997  15.172899999999998 8.718899999999996  C 15.104199999999999 8.746099999999997  15.016499999999997 8.773999999999996  14.924 8.803299999999997  C 14.552799999999998 8.921099999999997  13.992799999999999 9.098899999999997  13.8235 9.497700000000002  C 13.735695674917299 9.761204828784624  13.76862853909362 10.050026047610938  13.913499999999999 10.286999999999999  L 13.918299999999999 10.297  C 14.598639234696833 11.851152110943108  15.966141614588764 12.998105103843514  17.615 13.397499999999997  C 17.72136419980105 13.41500766945839  17.79742917223001 13.509873281331238  17.791400000000003 13.617500000000003  Z " stroke-width="0" stroke-dasharray="0" stroke="rgba(255, 255, 255, 0)" fill="none" transform="matrix(1 0 0 1 7 7 )" class="stroke" mask="url(#Clip4004)" />
  </g>
</svg>