<?xml version="1.0" encoding="utf-8"?>
<svg version="1.1" xmlns:xlink="http://www.w3.org/1999/xlink" width="25px" height="25px" xmlns="http://www.w3.org/2000/svg">
  <defs>
    <pattern id="BGPattern" patternUnits="userSpaceOnUse" alignment="0 0" imageRepeat="None" />
    <mask fill="white" id="Clip4003">
      <path d="M 24.0005 17.766000000000002  C 24 17.7112  23.9793 5.785500000000001  23.977400000000003 5.6279  C 23.975945057276025 5.195643369698537  23.936257057443747 4.764362643022004  23.8588 4.3391  C 23.772412565611937 3.8191881995142127  23.60816839074006 3.315263337858882  23.371599999999997 2.8442999999999996  C 23.11259682552569 2.349273931983272  22.775318046095755 1.8993437700765412  22.372799999999998 1.5119000000000016  C 21.764703959299247 0.9172136716655032  21.013784029724974 0.4890463942338634  20.192299999999996 0.26860000000000106  C 19.43778574896082 0.08581886753590595  18.66248992395467 0.003175338420804863  17.8864 0.02280000000000104  L 17.881999999999998 0  L 6.1143 0  L 6.1136 0.02280000000000104  C 5.672168243198067 0.019285705610887938  5.230857544402802 0.03901300483091674  4.791499999999999 0.08190000000000097  C 4.31006756563778 0.13327295121125982  3.836168437738267 0.24001182580223546  3.3792000000000004 0.40000000000000036  C 1.8524161780573458 0.9748947119703724  0.6914099236847662 2.2435542627265086  0.2538 3.8152  C 0.07225683874072608 4.563004928593976  -0.010414960779383087 5.331392068907968  0 6.1007  L 0 17.9065  C 0.0075865262787804255 18.441131050533297  0.0439055871662406 18.97496783519531  0.10879999999999868 19.505699999999997  C 0.18894048360541849 20.065930025541924  0.35460298216619446 20.610538744344733  0.5999999999999996 21.1205  C 0.94627001952803 21.801287065078  1.439080390739548 22.39689433284854  2.0429999999999993 22.8645  C 2.474651210431742 23.20813986621148  2.963544004778292 23.472931407367742  3.487199999999999 23.6467  C 4.255965921865741 23.884122156093326  5.0567332743428395 24.001635043336083  5.8613 23.9951  C 6.364699999999999 23.9983  6.868199999999999 24.0109  7.371900000000001 24.0088  C 11.030899999999999 23.9934  14.689700000000002 24.0352  18.3486 23.9862  C 18.832032627676202 23.975691362517523  19.313727309722356 23.92457820458929  19.7886 23.833400000000005  C 20.686126936069478 23.675685403678422  21.52150505892948 23.269636345950875  22.2 22.6613  C 22.998963702863474 21.96764524515308  23.556840355682375 21.03804926086267  23.793100000000003 20.006700000000006  C 23.938675915713816 19.31636836502121  24.008223709998305 18.612171798013414  24.0005 17.9067  L 24.0005 17.766000000000002  Z M 20.791400000000003 16.617500000000003  C 20.788888868666636 16.65720095250783  20.779446317041927 16.69615570849364  20.7635 16.7326  C 20.6099 17.0926  19.8335 17.3903  18.5202 17.593200000000003  C 18.397 17.6122  18.3451 17.811500000000002  18.273899999999998 18.137700000000002  C 18.2446 18.2725  18.214699999999997 18.404600000000002  18.173899999999996 18.5434  C 18.148677552739418 18.664494581854033  18.03717890322325 18.747818380319387  17.913899999999995 18.7377  L 17.8934 18.7377  C 17.767637929224882 18.733192561375912  17.642535084375936 18.71739573345491  17.5196 18.6905  C 17.19554810814672 18.62264701264492  16.865475810394305 18.587669802042655  16.534399999999994 18.5861  C 16.296294289280045 18.586707508569962  16.05863651411961 18.606774306360034  15.823799999999999 18.646100000000004  C 15.328366337161167 18.771596041252977  14.867540635134882 19.007016009773114  14.475499999999997 19.3349  C 13.812523753397368 19.900836558443373  12.979524095999432 20.229137251539875  12.108699999999995 20.2677  C 12.058699999999995 20.2677  12.011399999999995 20.265900000000002  11.975199999999996 20.264200000000002  C 11.946499999999995 20.266600000000004  11.916799999999995 20.2677  11.887099999999991 20.267699999999998  C 11.016844539274826 20.229372632401468  10.184370935115071 19.901254627328647  9.521999999999995 19.3355  C 9.129444965067838 19.007161462594915  8.668054465421697 18.77133965166467  8.171999999999993 18.6455  C 7.9373660180422965 18.606167874552355  7.699907041674145 18.586100918802934  7.461999999999996 18.585500000000003  C 7.130656762267367 18.588969435567964  6.80053788651225 18.626330635980768  6.4767999999999954 18.697  C 6.3540109824623965 18.725603858401445  6.228978679588206 18.743537311529774  6.103099999999996 18.7506  C 5.971748267322779 18.7655692976308  5.850414382889609 18.678599659055973  5.8223999999999965 18.5494  C 5.780999999999997 18.4087  5.751299999999997 18.272399999999998  5.722399999999997 18.141199999999998  C 5.650799999999997 17.8132  5.598699999999997 17.613  5.4758999999999975 17.593999999999998  C 4.162599999999998 17.391399999999997  3.386599999999998 17.092899999999997  3.231999999999999 16.731399999999997  C 3.216302977531792 16.69529419922329  3.2070953467136216 16.656703393588323  3.2047999999999988 16.617399999999996  C 3.1987239915513666 16.509758286798288  3.2748109842614457 16.4148652119898  3.3811999999999975 16.397399999999998  C 4.467336942083268 16.200609961499644  5.446035448752957 15.618624501376917  6.137599999999999 14.758299999999998  C 6.5183381779001754 14.317901146376984  6.8348116162004295 13.825818617207144  7.0775999999999994 13.296699999999998  L 7.082399999999998 13.286699999999996  C 7.227377939298638 13.04950525493501  7.260310974153306 12.760426393432924  7.172399999999998 12.496699999999997  C 7.003099999999998 12.097599999999996  6.442399999999998 11.919799999999997  6.071699999999998 11.802099999999998  C 5.979599999999998 11.772999999999998  5.892299999999999 11.745399999999998  5.822899999999999 11.717699999999997  C 5.4940999999999995 11.587699999999996  4.953599999999998 11.313599999999997  5.025600000000001 10.9349  C 5.138646195456685 10.642508000309526  5.425056360915995 10.454313976899122  5.738299999999999 10.466599999999998  C 5.8125189842474665 10.464903492069642  5.8861998003182485 10.47958502631915  5.954099999999997 10.509599999999997  C 6.230850608395505 10.651449659130876  6.5349992814740006 10.731785025337677  6.845699999999999 10.745099999999997  C 7.030368646981939 10.758273113074882  7.213343791989402 10.702354141022544  7.359100000000001 10.588199999999997  C 7.349433333333335 10.412933333333331  7.3388333333333335 10.237733333333331  7.327299999999999 10.062599999999996  C 7.158492222302222 8.878804216756784  7.230670377576649 7.673102487250398  7.5394999999999985 6.517899999999996  C 8.2821952358881 4.82294211830121  9.966910735163012 3.736805114362205  11.8173 3.7599999999999993  C 11.935300000000002 3.7590000000000003  12.053266666666666 3.7578999999999994  12.171199999999999 3.7566999999999995  C 14.024345618662776 3.7330227132711697  15.711911181999245 4.820156284817303  16.4565 6.517299999999998  C 16.765348467857997 7.673561602849521  16.83738986178381 8.880305971924102  16.6683 10.0651  L 16.6647 10.122499999999999  C 16.6547 10.2854  16.6447 10.439499999999999  16.6369 10.588999999999999  C 16.769114261243512 10.693766416261127  16.933858796222804 10.748893560912704  17.102499999999996 10.744799999999998  C 17.39516084494743 10.722782270184185  17.680606669883364 10.64326521895203  17.942499999999995 10.510799999999998  C 18.029262914191246 10.473218980474169  18.12306234225868 10.454636396578584  18.217599999999997 10.456299999999997  C 18.324925751424825 10.455905230729247  18.431314138775846 10.476279642606237  18.5309 10.516299999999998  L 18.535899999999998 10.518199999999998  C 18.76643403853249 10.57304874779353  18.940763644181455 10.762087043236416  18.976799999999997 10.996299999999996  C 18.980199999999996 11.179799999999997  18.843799999999998 11.454099999999997  18.1729 11.718899999999996  C 18.1042 11.746099999999997  18.016499999999997 11.773999999999996  17.924 11.803299999999997  C 17.552799999999998 11.921099999999997  16.9928 12.098899999999997  16.8235 12.497700000000002  C 16.7356956749173 12.761204828784626  16.76862853909362 13.050026047610938  16.9135 13.286999999999999  L 16.9183 13.297  C 17.598639234696833 14.851152110943108  18.966141614588764 15.998105103843512  20.615 16.397499999999997  C 20.72136419980105 16.41500766945839  20.79742917223001 16.509873281331238  20.791400000000003 16.617500000000003  Z " fill-rule="evenodd" />
    </mask>
  </defs>
  <g transform="matrix(1 0 0 1 -4 -4 )">
    <path d="M 24.0005 17.766000000000002  C 24 17.7112  23.9793 5.785500000000001  23.977400000000003 5.6279  C 23.975945057276025 5.195643369698537  23.936257057443747 4.764362643022004  23.8588 4.3391  C 23.772412565611937 3.8191881995142127  23.60816839074006 3.315263337858882  23.371599999999997 2.8442999999999996  C 23.11259682552569 2.349273931983272  22.775318046095755 1.8993437700765412  22.372799999999998 1.5119000000000016  C 21.764703959299247 0.9172136716655032  21.013784029724974 0.4890463942338634  20.192299999999996 0.26860000000000106  C 19.43778574896082 0.08581886753590595  18.66248992395467 0.003175338420804863  17.8864 0.02280000000000104  L 17.881999999999998 0  L 6.1143 0  L 6.1136 0.02280000000000104  C 5.672168243198067 0.019285705610887938  5.230857544402802 0.03901300483091674  4.791499999999999 0.08190000000000097  C 4.31006756563778 0.13327295121125982  3.836168437738267 0.24001182580223546  3.3792000000000004 0.40000000000000036  C 1.8524161780573458 0.9748947119703724  0.6914099236847662 2.2435542627265086  0.2538 3.8152  C 0.07225683874072608 4.563004928593976  -0.010414960779383087 5.331392068907968  0 6.1007  L 0 17.9065  C 0.0075865262787804255 18.441131050533297  0.0439055871662406 18.97496783519531  0.10879999999999868 19.505699999999997  C 0.18894048360541849 20.065930025541924  0.35460298216619446 20.610538744344733  0.5999999999999996 21.1205  C 0.94627001952803 21.801287065078  1.439080390739548 22.39689433284854  2.0429999999999993 22.8645  C 2.474651210431742 23.20813986621148  2.963544004778292 23.472931407367742  3.487199999999999 23.6467  C 4.255965921865741 23.884122156093326  5.0567332743428395 24.001635043336083  5.8613 23.9951  C 6.364699999999999 23.9983  6.868199999999999 24.0109  7.371900000000001 24.0088  C 11.030899999999999 23.9934  14.689700000000002 24.0352  18.3486 23.9862  C 18.832032627676202 23.975691362517523  19.313727309722356 23.92457820458929  19.7886 23.833400000000005  C 20.686126936069478 23.675685403678422  21.52150505892948 23.269636345950875  22.2 22.6613  C 22.998963702863474 21.96764524515308  23.556840355682375 21.03804926086267  23.793100000000003 20.006700000000006  C 23.938675915713816 19.31636836502121  24.008223709998305 18.612171798013414  24.0005 17.9067  L 24.0005 17.766000000000002  Z M 20.791400000000003 16.617500000000003  C 20.788888868666636 16.65720095250783  20.779446317041927 16.69615570849364  20.7635 16.7326  C 20.6099 17.0926  19.8335 17.3903  18.5202 17.593200000000003  C 18.397 17.6122  18.3451 17.811500000000002  18.273899999999998 18.137700000000002  C 18.2446 18.2725  18.214699999999997 18.404600000000002  18.173899999999996 18.5434  C 18.148677552739418 18.664494581854033  18.03717890322325 18.747818380319387  17.913899999999995 18.7377  L 17.8934 18.7377  C 17.767637929224882 18.733192561375912  17.642535084375936 18.71739573345491  17.5196 18.6905  C 17.19554810814672 18.62264701264492  16.865475810394305 18.587669802042655  16.534399999999994 18.5861  C 16.296294289280045 18.586707508569962  16.05863651411961 18.606774306360034  15.823799999999999 18.646100000000004  C 15.328366337161167 18.771596041252977  14.867540635134882 19.007016009773114  14.475499999999997 19.3349  C 13.812523753397368 19.900836558443373  12.979524095999432 20.229137251539875  12.108699999999995 20.2677  C 12.058699999999995 20.2677  12.011399999999995 20.265900000000002  11.975199999999996 20.264200000000002  C 11.946499999999995 20.266600000000004  11.916799999999995 20.2677  11.887099999999991 20.267699999999998  C 11.016844539274826 20.229372632401468  10.184370935115071 19.901254627328647  9.521999999999995 19.3355  C 9.129444965067838 19.007161462594915  8.668054465421697 18.77133965166467  8.171999999999993 18.6455  C 7.9373660180422965 18.606167874552355  7.699907041674145 18.586100918802934  7.461999999999996 18.585500000000003  C 7.130656762267367 18.588969435567964  6.80053788651225 18.626330635980768  6.4767999999999954 18.697  C 6.3540109824623965 18.725603858401445  6.228978679588206 18.743537311529774  6.103099999999996 18.7506  C 5.971748267322779 18.7655692976308  5.850414382889609 18.678599659055973  5.8223999999999965 18.5494  C 5.780999999999997 18.4087  5.751299999999997 18.272399999999998  5.722399999999997 18.141199999999998  C 5.650799999999997 17.8132  5.598699999999997 17.613  5.4758999999999975 17.593999999999998  C 4.162599999999998 17.391399999999997  3.386599999999998 17.092899999999997  3.231999999999999 16.731399999999997  C 3.216302977531792 16.69529419922329  3.2070953467136216 16.656703393588323  3.2047999999999988 16.617399999999996  C 3.1987239915513666 16.509758286798288  3.2748109842614457 16.4148652119898  3.3811999999999975 16.397399999999998  C 4.467336942083268 16.200609961499644  5.446035448752957 15.618624501376917  6.137599999999999 14.758299999999998  C 6.5183381779001754 14.317901146376984  6.8348116162004295 13.825818617207144  7.0775999999999994 13.296699999999998  L 7.082399999999998 13.286699999999996  C 7.227377939298638 13.04950525493501  7.260310974153306 12.760426393432924  7.172399999999998 12.496699999999997  C 7.003099999999998 12.097599999999996  6.442399999999998 11.919799999999997  6.071699999999998 11.802099999999998  C 5.979599999999998 11.772999999999998  5.892299999999999 11.745399999999998  5.822899999999999 11.717699999999997  C 5.4940999999999995 11.587699999999996  4.953599999999998 11.313599999999997  5.025600000000001 10.9349  C 5.138646195456685 10.642508000309526  5.425056360915995 10.454313976899122  5.738299999999999 10.466599999999998  C 5.8125189842474665 10.464903492069642  5.8861998003182485 10.47958502631915  5.954099999999997 10.509599999999997  C 6.230850608395505 10.651449659130876  6.5349992814740006 10.731785025337677  6.845699999999999 10.745099999999997  C 7.030368646981939 10.758273113074882  7.213343791989402 10.702354141022544  7.359100000000001 10.588199999999997  C 7.349433333333335 10.412933333333331  7.3388333333333335 10.237733333333331  7.327299999999999 10.062599999999996  C 7.158492222302222 8.878804216756784  7.230670377576649 7.673102487250398  7.5394999999999985 6.517899999999996  C 8.2821952358881 4.82294211830121  9.966910735163012 3.736805114362205  11.8173 3.7599999999999993  C 11.935300000000002 3.7590000000000003  12.053266666666666 3.7578999999999994  12.171199999999999 3.7566999999999995  C 14.024345618662776 3.7330227132711697  15.711911181999245 4.820156284817303  16.4565 6.517299999999998  C 16.765348467857997 7.673561602849521  16.83738986178381 8.880305971924102  16.6683 10.0651  L 16.6647 10.122499999999999  C 16.6547 10.2854  16.6447 10.439499999999999  16.6369 10.588999999999999  C 16.769114261243512 10.693766416261127  16.933858796222804 10.748893560912704  17.102499999999996 10.744799999999998  C 17.39516084494743 10.722782270184185  17.680606669883364 10.64326521895203  17.942499999999995 10.510799999999998  C 18.029262914191246 10.473218980474169  18.12306234225868 10.454636396578584  18.217599999999997 10.456299999999997  C 18.324925751424825 10.455905230729247  18.431314138775846 10.476279642606237  18.5309 10.516299999999998  L 18.535899999999998 10.518199999999998  C 18.76643403853249 10.57304874779353  18.940763644181455 10.762087043236416  18.976799999999997 10.996299999999996  C 18.980199999999996 11.179799999999997  18.843799999999998 11.454099999999997  18.1729 11.718899999999996  C 18.1042 11.746099999999997  18.016499999999997 11.773999999999996  17.924 11.803299999999997  C 17.552799999999998 11.921099999999997  16.9928 12.098899999999997  16.8235 12.497700000000002  C 16.7356956749173 12.761204828784626  16.76862853909362 13.050026047610938  16.9135 13.286999999999999  L 16.9183 13.297  C 17.598639234696833 14.851152110943108  18.966141614588764 15.998105103843512  20.615 16.397499999999997  C 20.72136419980105 16.41500766945839  20.79742917223001 16.509873281331238  20.791400000000003 16.617500000000003  Z " fill-rule="nonzero" fill="rgba(0, 0, 0, 1)" stroke="none" transform="matrix(1 0 0 1 4 4 )" class="fill" />
    <path d="M 24.0005 17.766000000000002  C 24 17.7112  23.9793 5.785500000000001  23.977400000000003 5.6279  C 23.975945057276025 5.195643369698537  23.936257057443747 4.764362643022004  23.8588 4.3391  C 23.772412565611937 3.8191881995142127  23.60816839074006 3.315263337858882  23.371599999999997 2.8442999999999996  C 23.11259682552569 2.349273931983272  22.775318046095755 1.8993437700765412  22.372799999999998 1.5119000000000016  C 21.764703959299247 0.9172136716655032  21.013784029724974 0.4890463942338634  20.192299999999996 0.26860000000000106  C 19.43778574896082 0.08581886753590595  18.66248992395467 0.003175338420804863  17.8864 0.02280000000000104  L 17.881999999999998 0  L 6.1143 0  L 6.1136 0.02280000000000104  C 5.672168243198067 0.019285705610887938  5.230857544402802 0.03901300483091674  4.791499999999999 0.08190000000000097  C 4.31006756563778 0.13327295121125982  3.836168437738267 0.24001182580223546  3.3792000000000004 0.40000000000000036  C 1.8524161780573458 0.9748947119703724  0.6914099236847662 2.2435542627265086  0.2538 3.8152  C 0.07225683874072608 4.563004928593976  -0.010414960779383087 5.331392068907968  0 6.1007  L 0 17.9065  C 0.0075865262787804255 18.441131050533297  0.0439055871662406 18.97496783519531  0.10879999999999868 19.505699999999997  C 0.18894048360541849 20.065930025541924  0.35460298216619446 20.610538744344733  0.5999999999999996 21.1205  C 0.94627001952803 21.801287065078  1.439080390739548 22.39689433284854  2.0429999999999993 22.8645  C 2.474651210431742 23.20813986621148  2.963544004778292 23.472931407367742  3.487199999999999 23.6467  C 4.255965921865741 23.884122156093326  5.0567332743428395 24.001635043336083  5.8613 23.9951  C 6.364699999999999 23.9983  6.868199999999999 24.0109  7.371900000000001 24.0088  C 11.030899999999999 23.9934  14.689700000000002 24.0352  18.3486 23.9862  C 18.832032627676202 23.975691362517523  19.313727309722356 23.92457820458929  19.7886 23.833400000000005  C 20.686126936069478 23.675685403678422  21.52150505892948 23.269636345950875  22.2 22.6613  C 22.998963702863474 21.96764524515308  23.556840355682375 21.03804926086267  23.793100000000003 20.006700000000006  C 23.938675915713816 19.31636836502121  24.008223709998305 18.612171798013414  24.0005 17.9067  L 24.0005 17.766000000000002  Z " stroke-width="0" stroke-dasharray="0" stroke="rgba(255, 255, 255, 0)" fill="none" transform="matrix(1 0 0 1 4 4 )" class="stroke" mask="url(#Clip4003)" />
    <path d="M 20.791400000000003 16.617500000000003  C 20.788888868666636 16.65720095250783  20.779446317041927 16.69615570849364  20.7635 16.7326  C 20.6099 17.0926  19.8335 17.3903  18.5202 17.593200000000003  C 18.397 17.6122  18.3451 17.811500000000002  18.273899999999998 18.137700000000002  C 18.2446 18.2725  18.214699999999997 18.404600000000002  18.173899999999996 18.5434  C 18.148677552739418 18.664494581854033  18.03717890322325 18.747818380319387  17.913899999999995 18.7377  L 17.8934 18.7377  C 17.767637929224882 18.733192561375912  17.642535084375936 18.71739573345491  17.5196 18.6905  C 17.19554810814672 18.62264701264492  16.865475810394305 18.587669802042655  16.534399999999994 18.5861  C 16.296294289280045 18.586707508569962  16.05863651411961 18.606774306360034  15.823799999999999 18.646100000000004  C 15.328366337161167 18.771596041252977  14.867540635134882 19.007016009773114  14.475499999999997 19.3349  C 13.812523753397368 19.900836558443373  12.979524095999432 20.229137251539875  12.108699999999995 20.2677  C 12.058699999999995 20.2677  12.011399999999995 20.265900000000002  11.975199999999996 20.264200000000002  C 11.946499999999995 20.266600000000004  11.916799999999995 20.2677  11.887099999999991 20.267699999999998  C 11.016844539274826 20.229372632401468  10.184370935115071 19.901254627328647  9.521999999999995 19.3355  C 9.129444965067838 19.007161462594915  8.668054465421697 18.77133965166467  8.171999999999993 18.6455  C 7.9373660180422965 18.606167874552355  7.699907041674145 18.586100918802934  7.461999999999996 18.585500000000003  C 7.130656762267367 18.588969435567964  6.80053788651225 18.626330635980768  6.4767999999999954 18.697  C 6.3540109824623965 18.725603858401445  6.228978679588206 18.743537311529774  6.103099999999996 18.7506  C 5.971748267322779 18.7655692976308  5.850414382889609 18.678599659055973  5.8223999999999965 18.5494  C 5.780999999999997 18.4087  5.751299999999997 18.272399999999998  5.722399999999997 18.141199999999998  C 5.650799999999997 17.8132  5.598699999999997 17.613  5.4758999999999975 17.593999999999998  C 4.162599999999998 17.391399999999997  3.386599999999998 17.092899999999997  3.231999999999999 16.731399999999997  C 3.216302977531792 16.69529419922329  3.2070953467136216 16.656703393588323  3.2047999999999988 16.617399999999996  C 3.1987239915513666 16.509758286798288  3.2748109842614457 16.4148652119898  3.3811999999999975 16.397399999999998  C 4.467336942083268 16.200609961499644  5.446035448752957 15.618624501376917  6.137599999999999 14.758299999999998  C 6.5183381779001754 14.317901146376984  6.8348116162004295 13.825818617207144  7.0775999999999994 13.296699999999998  L 7.082399999999998 13.286699999999996  C 7.227377939298638 13.04950525493501  7.260310974153306 12.760426393432924  7.172399999999998 12.496699999999997  C 7.003099999999998 12.097599999999996  6.442399999999998 11.919799999999997  6.071699999999998 11.802099999999998  C 5.979599999999998 11.772999999999998  5.892299999999999 11.745399999999998  5.822899999999999 11.717699999999997  C 5.4940999999999995 11.587699999999996  4.953599999999998 11.313599999999997  5.025600000000001 10.9349  C 5.138646195456685 10.642508000309526  5.425056360915995 10.454313976899122  5.738299999999999 10.466599999999998  C 5.8125189842474665 10.464903492069642  5.8861998003182485 10.47958502631915  5.954099999999997 10.509599999999997  C 6.230850608395505 10.651449659130876  6.5349992814740006 10.731785025337677  6.845699999999999 10.745099999999997  C 7.030368646981939 10.758273113074882  7.213343791989402 10.702354141022544  7.359100000000001 10.588199999999997  C 7.349433333333335 10.412933333333331  7.3388333333333335 10.237733333333331  7.327299999999999 10.062599999999996  C 7.158492222302222 8.878804216756784  7.230670377576649 7.673102487250398  7.5394999999999985 6.517899999999996  C 8.2821952358881 4.82294211830121  9.966910735163012 3.736805114362205  11.8173 3.7599999999999993  C 11.935300000000002 3.7590000000000003  12.053266666666666 3.7578999999999994  12.171199999999999 3.7566999999999995  C 14.024345618662776 3.7330227132711697  15.711911181999245 4.820156284817303  16.4565 6.517299999999998  C 16.765348467857997 7.673561602849521  16.83738986178381 8.880305971924102  16.6683 10.0651  L 16.6647 10.122499999999999  C 16.6547 10.2854  16.6447 10.439499999999999  16.6369 10.588999999999999  C 16.769114261243512 10.693766416261127  16.933858796222804 10.748893560912704  17.102499999999996 10.744799999999998  C 17.39516084494743 10.722782270184185  17.680606669883364 10.64326521895203  17.942499999999995 10.510799999999998  C 18.029262914191246 10.473218980474169  18.12306234225868 10.454636396578584  18.217599999999997 10.456299999999997  C 18.324925751424825 10.455905230729247  18.431314138775846 10.476279642606237  18.5309 10.516299999999998  L 18.535899999999998 10.518199999999998  C 18.76643403853249 10.57304874779353  18.940763644181455 10.762087043236416  18.976799999999997 10.996299999999996  C 18.980199999999996 11.179799999999997  18.843799999999998 11.454099999999997  18.1729 11.718899999999996  C 18.1042 11.746099999999997  18.016499999999997 11.773999999999996  17.924 11.803299999999997  C 17.552799999999998 11.921099999999997  16.9928 12.098899999999997  16.8235 12.497700000000002  C 16.7356956749173 12.761204828784626  16.76862853909362 13.050026047610938  16.9135 13.286999999999999  L 16.9183 13.297  C 17.598639234696833 14.851152110943108  18.966141614588764 15.998105103843512  20.615 16.397499999999997  C 20.72136419980105 16.41500766945839  20.79742917223001 16.509873281331238  20.791400000000003 16.617500000000003  Z " stroke-width="0" stroke-dasharray="0" stroke="rgba(255, 255, 255, 0)" fill="none" transform="matrix(1 0 0 1 4 4 )" class="stroke" mask="url(#Clip4003)" />
  </g>
</svg>