<?xml version="1.0" encoding="utf-8"?>
<svg version="1.1" xmlns:xlink="http://www.w3.org/1999/xlink" width="14px" height="14px" xmlns="http://www.w3.org/2000/svg">
  <defs>
    <pattern id="BGPattern" patternUnits="userSpaceOnUse" alignment="0 0" imageRepeat="None" />
    <mask fill="white" id="Clip6334">
      <path d="M 0.25 11.5  L 0.2499999999999991 2.5  C 0.2499999999999991 1.2573593128807152  1.2573593128807152 0.2499999999999991  2.5 0.25  L 11.5 0.2499999999999991  C 12.742640687119284 0.25  13.749999999999996 1.2573593128807152  13.75 2.5  L 13.749999999999996 11.5  C 13.749999999999996 12.742640687119284  12.742640687119284 13.749999999999996  11.5 13.75  L 2.5 13.749999999999996  C 1.2573593128807152 13.749999999999996  0.25 12.742640687119284  0.25 11.5  Z M 11.5 1.75  L 2.5 1.75  C 2.085786437626905 1.75  1.75 2.085786437626905  1.75 2.5  L 1.75 11.5  C 1.75 11.914213562373096  2.085786437626905 12.25  2.5 12.25  L 11.5 12.25  C 11.914213562373096 12.25  12.25 11.914213562373096  12.25 11.5  L 12.25 2.5  C 12.25 2.085786437626905  11.914213562373096 1.75  11.5 1.75  Z " fill-rule="evenodd" />
    </mask>
  </defs>
  <g>
    <path d="M 0.25 11.5  L 0.2499999999999991 2.5  C 0.2499999999999991 1.2573593128807152  1.2573593128807152 0.2499999999999991  2.5 0.25  L 11.5 0.2499999999999991  C 12.742640687119284 0.25  13.749999999999996 1.2573593128807152  13.75 2.5  L 13.749999999999996 11.5  C 13.749999999999996 12.742640687119284  12.742640687119284 13.749999999999996  11.5 13.75  L 2.5 13.749999999999996  C 1.2573593128807152 13.749999999999996  0.25 12.742640687119284  0.25 11.5  Z M 11.5 1.75  L 2.5 1.75  C 2.085786437626905 1.75  1.75 2.085786437626905  1.75 2.5  L 1.75 11.5  C 1.75 11.914213562373096  2.085786437626905 12.25  2.5 12.25  L 11.5 12.25  C 11.914213562373096 12.25  12.25 11.914213562373096  12.25 11.5  L 12.25 2.5  C 12.25 2.085786437626905  11.914213562373096 1.75  11.5 1.75  Z " fill-rule="nonzero" fill="rgba(0, 0, 0, 1)" stroke="none" class="fill" />
    <path d="M 0.25 11.5  L 0.2499999999999991 2.5  C 0.2499999999999991 1.2573593128807152  1.2573593128807152 0.2499999999999991  2.5 0.25  L 11.5 0.2499999999999991  C 12.742640687119284 0.25  13.749999999999996 1.2573593128807152  13.75 2.5  L 13.749999999999996 11.5  C 13.749999999999996 12.742640687119284  12.742640687119284 13.749999999999996  11.5 13.75  L 2.5 13.749999999999996  C 1.2573593128807152 13.749999999999996  0.25 12.742640687119284  0.25 11.5  Z " stroke-width="0" stroke-dasharray="0" stroke="rgba(255, 255, 255, 0)" fill="none" class="stroke" mask="url(#Clip6334)" />
    <path d="M 11.5 1.75  L 2.5 1.75  C 2.085786437626905 1.75  1.75 2.085786437626905  1.75 2.5  L 1.75 11.5  C 1.75 11.914213562373096  2.085786437626905 12.25  2.5 12.25  L 11.5 12.25  C 11.914213562373096 12.25  12.25 11.914213562373096  12.25 11.5  L 12.25 2.5  C 12.25 2.085786437626905  11.914213562373096 1.75  11.5 1.75  Z " stroke-width="0" stroke-dasharray="0" stroke="rgba(255, 255, 255, 0)" fill="none" class="stroke" mask="url(#Clip6334)" />
  </g>
</svg>