<?xml version="1.0" encoding="utf-8"?>
<svg version="1.1" xmlns:xlink="http://www.w3.org/1999/xlink" width="24px" height="22px" xmlns="http://www.w3.org/2000/svg">
  <defs>
    <pattern id="BGPattern" patternUnits="userSpaceOnUse" alignment="0 0" imageRepeat="None" />
    <mask fill="white" id="Clip5855">
      <path d="M 0 19.25  L 0 2.75  C 0 1.5073593128807141  1.0073593128807148 0.5  2.25 0.5  L 21.75 0.5  C 22.992640687119284 0.5  24 1.5073593128807146  24 2.75  L 24 19.25  C 24 20.492640687119284  22.992640687119284 21.5  21.75 21.5  L 2.25 21.5  C 1.0073593128807148 21.5  0 20.492640687119284  0 19.25  Z M 21.75 2  L 2.25 2  C 1.835786437626905 2  1.5 2.335786437626905  1.5 2.75  L 1.5 19.25  C 1.5 19.664213562373096  1.835786437626905 20  2.25 20  L 21.75 20  C 22.164213562373096 20  22.5 19.664213562373096  22.5 19.25  L 22.5 2.75  C 22.5 2.335786437626905  22.164213562373096 2  21.75 2  Z " fill-rule="evenodd" />
    </mask>
  </defs>
  <g>
    <path d="M 0 19.25  L 0 2.75  C 0 1.5073593128807141  1.0073593128807148 0.5  2.25 0.5  L 21.75 0.5  C 22.992640687119284 0.5  24 1.5073593128807146  24 2.75  L 24 19.25  C 24 20.492640687119284  22.992640687119284 21.5  21.75 21.5  L 2.25 21.5  C 1.0073593128807148 21.5  0 20.492640687119284  0 19.25  Z M 21.75 2  L 2.25 2  C 1.835786437626905 2  1.5 2.335786437626905  1.5 2.75  L 1.5 19.25  C 1.5 19.664213562373096  1.835786437626905 20  2.25 20  L 21.75 20  C 22.164213562373096 20  22.5 19.664213562373096  22.5 19.25  L 22.5 2.75  C 22.5 2.335786437626905  22.164213562373096 2  21.75 2  Z " fill-rule="nonzero" fill="rgba(0, 0, 0, 1)" stroke="none" class="fill" />
    <path d="M 0 19.25  L 0 2.75  C 0 1.5073593128807141  1.0073593128807148 0.5  2.25 0.5  L 21.75 0.5  C 22.992640687119284 0.5  24 1.5073593128807146  24 2.75  L 24 19.25  C 24 20.492640687119284  22.992640687119284 21.5  21.75 21.5  L 2.25 21.5  C 1.0073593128807148 21.5  0 20.492640687119284  0 19.25  Z " stroke-width="0" stroke-dasharray="0" stroke="rgba(255, 255, 255, 0)" fill="none" class="stroke" mask="url(#Clip5855)" />
    <path d="M 21.75 2  L 2.25 2  C 1.835786437626905 2  1.5 2.335786437626905  1.5 2.75  L 1.5 19.25  C 1.5 19.664213562373096  1.835786437626905 20  2.25 20  L 21.75 20  C 22.164213562373096 20  22.5 19.664213562373096  22.5 19.25  L 22.5 2.75  C 22.5 2.335786437626905  22.164213562373096 2  21.75 2  Z " stroke-width="0" stroke-dasharray="0" stroke="rgba(255, 255, 255, 0)" fill="none" class="stroke" mask="url(#Clip5855)" />
  </g>
</svg>