<?xml version="1.0" encoding="utf-8"?>
<svg version="1.1" xmlns:xlink="http://www.w3.org/1999/xlink" width="48px" height="48px" xmlns="http://www.w3.org/2000/svg">
  <defs>
    <pattern id="BGPattern" patternUnits="userSpaceOnUse" alignment="0 0" imageRepeat="None" />
    <mask fill="white" id="Clip7292">
      <path d="M 32.618 26.012  L 25.758000000000003 26.012  L 25.758000000000003 33.312  L 19.75 27.215999999999998  L 19.75 20.226  L 26.914 20.226  L 32.618 26.012  Z M 35.47 29.1  L 47.53 41.224000000000004  L 47.53 48  L 40.222 48  L 28.762 36.2  L 28.762 29.1  L 35.47 29.1  Z M 24.113999999999997 38.38799999999999  C 25.209999999999997 38.38799999999999  25.435999999999996 38.42199999999999  25.874000000000002 38.328  L 32.618 45.07  C 30.000000000000007 45.954  27.504000000000005 46.522  23.968000000000004 46.522  C 10.272 46.52  0 36.486  0 23.13  C 0 9.84  10.272 0  23.968 0  C 37.728 0  48 9.904  48 23.13  C 48 27.369999999999997  46.954 31.281999999999996  45.086 34.647999999999996  L 37.836000000000006 27.197999999999997  C 38.156800498654356 25.885522265139166  38.31796667026772 24.539113206452498  38.315999999999995 23.187999999999995  C 38.315999999999995 14.605999999999995  32.019999999999996 8.133999999999995  24.116 8.133999999999995  C 16.207999999999995 8.133999999999995  9.619999999999996 14.605999999999995  9.619999999999996 23.187999999999995  C 9.619999999999996 31.769999999999996  16.279999999999994 38.38799999999999  24.113999999999997 38.38799999999999  Z " fill-rule="evenodd" />
    </mask>
  </defs>
  <g>
    <path d="M 32.618 26.012  L 25.758000000000003 26.012  L 25.758000000000003 33.312  L 19.75 27.215999999999998  L 19.75 20.226  L 26.914 20.226  L 32.618 26.012  Z M 35.47 29.1  L 47.53 41.224000000000004  L 47.53 48  L 40.222 48  L 28.762 36.2  L 28.762 29.1  L 35.47 29.1  Z M 24.113999999999997 38.38799999999999  C 25.209999999999997 38.38799999999999  25.435999999999996 38.42199999999999  25.874000000000002 38.328  L 32.618 45.07  C 30.000000000000007 45.954  27.504000000000005 46.522  23.968000000000004 46.522  C 10.272 46.52  0 36.486  0 23.13  C 0 9.84  10.272 0  23.968 0  C 37.728 0  48 9.904  48 23.13  C 48 27.369999999999997  46.954 31.281999999999996  45.086 34.647999999999996  L 37.836000000000006 27.197999999999997  C 38.156800498654356 25.885522265139166  38.31796667026772 24.539113206452498  38.315999999999995 23.187999999999995  C 38.315999999999995 14.605999999999995  32.019999999999996 8.133999999999995  24.116 8.133999999999995  C 16.207999999999995 8.133999999999995  9.619999999999996 14.605999999999995  9.619999999999996 23.187999999999995  C 9.619999999999996 31.769999999999996  16.279999999999994 38.38799999999999  24.113999999999997 38.38799999999999  Z " fill-rule="nonzero" fill="rgba(88, 150, 50, 1)" stroke="none" class="fill" />
    <path d="M 32.618 26.012  L 25.758000000000003 26.012  L 25.758000000000003 33.312  L 19.75 27.215999999999998  L 19.75 20.226  L 26.914 20.226  L 32.618 26.012  Z " stroke-width="0" stroke-dasharray="0" stroke="rgba(255, 255, 255, 0)" fill="none" class="stroke" mask="url(#Clip7292)" />
    <path d="M 35.47 29.1  L 47.53 41.224000000000004  L 47.53 48  L 40.222 48  L 28.762 36.2  L 28.762 29.1  L 35.47 29.1  Z " stroke-width="0" stroke-dasharray="0" stroke="rgba(255, 255, 255, 0)" fill="none" class="stroke" mask="url(#Clip7292)" />
    <path d="M 24.113999999999997 38.38799999999999  C 25.209999999999997 38.38799999999999  25.435999999999996 38.42199999999999  25.874000000000002 38.328  L 32.618 45.07  C 30.000000000000007 45.954  27.504000000000005 46.522  23.968000000000004 46.522  C 10.272 46.52  0 36.486  0 23.13  C 0 9.84  10.272 0  23.968 0  C 37.728 0  48 9.904  48 23.13  C 48 27.369999999999997  46.954 31.281999999999996  45.086 34.647999999999996  L 37.836000000000006 27.197999999999997  C 38.156800498654356 25.885522265139166  38.31796667026772 24.539113206452498  38.315999999999995 23.187999999999995  C 38.315999999999995 14.605999999999995  32.019999999999996 8.133999999999995  24.116 8.133999999999995  C 16.207999999999995 8.133999999999995  9.619999999999996 14.605999999999995  9.619999999999996 23.187999999999995  C 9.619999999999996 31.769999999999996  16.279999999999994 38.38799999999999  24.113999999999997 38.38799999999999  Z " stroke-width="0" stroke-dasharray="0" stroke="rgba(255, 255, 255, 0)" fill="none" class="stroke" mask="url(#Clip7292)" />
  </g>
</svg>