<?xml version="1.0" encoding="utf-8"?>
<svg version="1.1" xmlns:xlink="http://www.w3.org/1999/xlink" width="44px" height="48px" xmlns="http://www.w3.org/2000/svg">
  <defs>
    <pattern id="BGPattern" patternUnits="userSpaceOnUse" alignment="0 0" imageRepeat="None" />
    <mask fill="white" id="Clip6959">
      <path d="M 23.518 23.814  L 0.43999999999999995 0  C 0.37999999999999995 0.186  0.31999999999999984 0.37  1 0.616  L 1 47.074  C 0.31999999999999984 47.507999999999996  0.4419999999999997 47.754  0.6879999999999997 48  L 23.518 23.814  Z M 5.917999999999999 45.784  L 25.058 25.415999999999997  L 30.96 31.506  L 22.534 36.306  C 22.534 36.306  11.823999999999998 42.394  5.917999999999999 45.784  Z M 26.651999999999994 23.759999999999998  L 26.660000000000004 23.754  L 32.992 30.338  C 33.983999999999995 29.786  41.733999999999995 25.354  42.839999999999996 24.738  C 44.007999999999996 24.062  43.88999999999999 23.137999999999998  42.897999999999996 22.646  C 41.98 22.136  34.23 17.696  33.05799999999999 16.976  L 26.651999999999994 23.759999999999998  Z M 25.058 22.154  L 25.054 22.154  L 31.022 15.815999999999999  L 22.503999999999998 10.953999999999999  C 22.503999999999998 10.953999999999999  8.618 3.01  3.998 0.358  L 25.058 22.154  Z " fill-rule="evenodd" />
    </mask>
  </defs>
  <g>
    <path d="M 23.518 23.814  L 0.43999999999999995 0  C 0.37999999999999995 0.186  0.31999999999999984 0.37  1 0.616  L 1 47.074  C 0.31999999999999984 47.507999999999996  0.4419999999999997 47.754  0.6879999999999997 48  L 23.518 23.814  Z M 5.917999999999999 45.784  L 25.058 25.415999999999997  L 30.96 31.506  L 22.534 36.306  C 22.534 36.306  11.823999999999998 42.394  5.917999999999999 45.784  Z M 26.651999999999994 23.759999999999998  L 26.660000000000004 23.754  L 32.992 30.338  C 33.983999999999995 29.786  41.733999999999995 25.354  42.839999999999996 24.738  C 44.007999999999996 24.062  43.88999999999999 23.137999999999998  42.897999999999996 22.646  C 41.98 22.136  34.23 17.696  33.05799999999999 16.976  L 26.651999999999994 23.759999999999998  Z M 25.058 22.154  L 25.054 22.154  L 31.022 15.815999999999999  L 22.503999999999998 10.953999999999999  C 22.503999999999998 10.953999999999999  8.618 3.01  3.998 0.358  L 25.058 22.154  Z " fill-rule="nonzero" fill="rgba(96, 125, 139, 1)" stroke="none" class="fill" />
    <path d="M 23.518 23.814  L 0.43999999999999995 0  C 0.37999999999999995 0.186  0.31999999999999984 0.37  1 0.616  L 1 47.074  C 0.31999999999999984 47.507999999999996  0.4419999999999997 47.754  0.6879999999999997 48  L 23.518 23.814  Z " stroke-width="0" stroke-dasharray="0" stroke="rgba(255, 255, 255, 0)" fill="none" class="stroke" mask="url(#Clip6959)" />
    <path d="M 5.917999999999999 45.784  L 25.058 25.415999999999997  L 30.96 31.506  L 22.534 36.306  C 22.534 36.306  11.823999999999998 42.394  5.917999999999999 45.784  Z " stroke-width="0" stroke-dasharray="0" stroke="rgba(255, 255, 255, 0)" fill="none" class="stroke" mask="url(#Clip6959)" />
    <path d="M 26.651999999999994 23.759999999999998  L 26.660000000000004 23.754  L 32.992 30.338  C 33.983999999999995 29.786  41.733999999999995 25.354  42.839999999999996 24.738  C 44.007999999999996 24.062  43.88999999999999 23.137999999999998  42.897999999999996 22.646  C 41.98 22.136  34.23 17.696  33.05799999999999 16.976  L 26.651999999999994 23.759999999999998  Z " stroke-width="0" stroke-dasharray="0" stroke="rgba(255, 255, 255, 0)" fill="none" class="stroke" mask="url(#Clip6959)" />
    <path d="M 25.058 22.154  L 25.054 22.154  L 31.022 15.815999999999999  L 22.503999999999998 10.953999999999999  C 22.503999999999998 10.953999999999999  8.618 3.01  3.998 0.358  L 25.058 22.154  Z " stroke-width="0" stroke-dasharray="0" stroke="rgba(255, 255, 255, 0)" fill="none" class="stroke" mask="url(#Clip6959)" />
  </g>
</svg>