<?xml version="1.0" encoding="utf-8"?>
<svg version="1.1" xmlns:xlink="http://www.w3.org/1999/xlink" width="48px" height="48px" xmlns="http://www.w3.org/2000/svg">
  <defs>
    <pattern id="BGPattern" patternUnits="userSpaceOnUse" alignment="0 0" imageRepeat="None" />
    <mask fill="white" id="Clip7337">
      <path d="M 25.837999999999997 0  L 0 0  L 0 48  L 14.76 48  L 14.76 40.62  L 8 40.62  L 8 8  L 25.837999999999997 8  L 25.837999999999997 0  Z M 48 0  L 33.22 0  L 33.22 7.38  L 40 7.38  L 40 40  L 22.144 40  L 22.144 48  L 48 48  L 48 0  Z M 33 12.98  L 33.214 12.98  L 25 14.414000000000001  L 25 32.868  L 33 31.438000000000002  L 33 12.98  Z M 23 33.586  L 23 15.132000000000001  L 15 16.562  L 15 35.019999999999996  L 23 33.586  Z " fill-rule="evenodd" />
    </mask>
  </defs>
  <g>
    <path d="M 25.837999999999997 0  L 0 0  L 0 48  L 14.76 48  L 14.76 40.62  L 8 40.62  L 8 8  L 25.837999999999997 8  L 25.837999999999997 0  Z M 48 0  L 33.22 0  L 33.22 7.38  L 40 7.38  L 40 40  L 22.144 40  L 22.144 48  L 48 48  L 48 0  Z M 33 12.98  L 33.214 12.98  L 25 14.414000000000001  L 25 32.868  L 33 31.438000000000002  L 33 12.98  Z M 23 33.586  L 23 15.132000000000001  L 15 16.562  L 15 35.019999999999996  L 23 33.586  Z " fill-rule="nonzero" fill="rgba(0, 188, 246, 1)" stroke="none" class="fill" />
    <path d="M 25.837999999999997 0  L 0 0  L 0 48  L 14.76 48  L 14.76 40.62  L 8 40.62  L 8 8  L 25.837999999999997 8  L 25.837999999999997 0  Z " stroke-width="0" stroke-dasharray="0" stroke="rgba(255, 255, 255, 0)" fill="none" class="stroke" mask="url(#Clip7337)" />
    <path d="M 48 0  L 33.22 0  L 33.22 7.38  L 40 7.38  L 40 40  L 22.144 40  L 22.144 48  L 48 48  L 48 0  Z " stroke-width="0" stroke-dasharray="0" stroke="rgba(255, 255, 255, 0)" fill="none" class="stroke" mask="url(#Clip7337)" />
    <path d="M 33 12.98  L 33.214 12.98  L 25 14.414000000000001  L 25 32.868  L 33 31.438000000000002  L 33 12.98  Z " stroke-width="0" stroke-dasharray="0" stroke="rgba(255, 255, 255, 0)" fill="none" class="stroke" mask="url(#Clip7337)" />
    <path d="M 23 33.586  L 23 15.132000000000001  L 15 16.562  L 15 35.019999999999996  L 23 33.586  Z " stroke-width="0" stroke-dasharray="0" stroke="rgba(255, 255, 255, 0)" fill="none" class="stroke" mask="url(#Clip7337)" />
  </g>
</svg>