<?xml version="1.0" encoding="utf-8"?>
<svg version="1.1" xmlns:xlink="http://www.w3.org/1999/xlink" width="50px" height="50px" xmlns="http://www.w3.org/2000/svg">
  <defs>
    <pattern id="BGPattern" patternUnits="userSpaceOnUse" alignment="0 0" imageRepeat="None" />
    <mask fill="white" id="Clip1382">
      <path d="M 25 0  C 38.80715725806451 0  50 11.192842741935465  50 25  C 50 38.807157258064535  38.80715725806451 50  25 50  C 11.192842741935493 50  0 38.807157258064535  0 25  C 0 11.192842741935465  11.192842741935493 0  25 0  Z M 19.8272177419355 38.23719758064516  C 20.457157258064512 38.86713709677417  21.47832661290323 38.86713709677417  22.108266129032245 38.23729838709676  L 40.65665322580645 19.688911290322608  C 41.286491935483866 19.059072580645193  41.286491935483866 18.03780241935482  40.65665322580645 17.407963709677404  L 38.375705645161275 15.127016129032256  C 37.74586693548386 14.497076612903243  36.72459677419354 14.497076612903243  36.0946572580645 15.127016129032256  L 20.967741935483872 30.253830645161315  L 13.90534274193547 23.191431451612914  C 13.275504032258056 22.5615927419355  12.254233870967738 22.5615927419355  11.624294354838696 23.191431451612914  L 9.343346774193549 25.472379032258065  C 8.713508064516134 26.102217741935473  8.713508064516134 27.123487903225797  9.343346774193549 27.753326612903205  L 19.8272177419355 38.23719758064516  Z " fill-rule="evenodd" />
    </mask>
  </defs>
  <g>
    <path d="M 25 0  C 38.80715725806451 0  50 11.192842741935465  50 25  C 50 38.807157258064535  38.80715725806451 50  25 50  C 11.192842741935493 50  0 38.807157258064535  0 25  C 0 11.192842741935465  11.192842741935493 0  25 0  Z M 19.8272177419355 38.23719758064516  C 20.457157258064512 38.86713709677417  21.47832661290323 38.86713709677417  22.108266129032245 38.23729838709676  L 40.65665322580645 19.688911290322608  C 41.286491935483866 19.059072580645193  41.286491935483866 18.03780241935482  40.65665322580645 17.407963709677404  L 38.375705645161275 15.127016129032256  C 37.74586693548386 14.497076612903243  36.72459677419354 14.497076612903243  36.0946572580645 15.127016129032256  L 20.967741935483872 30.253830645161315  L 13.90534274193547 23.191431451612914  C 13.275504032258056 22.5615927419355  12.254233870967738 22.5615927419355  11.624294354838696 23.191431451612914  L 9.343346774193549 25.472379032258065  C 8.713508064516134 26.102217741935473  8.713508064516134 27.123487903225797  9.343346774193549 27.753326612903205  L 19.8272177419355 38.23719758064516  Z " fill-rule="nonzero" fill="rgba(0, 0, 0, 1)" stroke="none" class="fill" />
    <path d="M 25 0  C 38.80715725806451 0  50 11.192842741935465  50 25  C 50 38.807157258064535  38.80715725806451 50  25 50  C 11.192842741935493 50  0 38.807157258064535  0 25  C 0 11.192842741935465  11.192842741935493 0  25 0  Z " stroke-width="0" stroke-dasharray="0" stroke="rgba(255, 255, 255, 0)" fill="none" class="stroke" mask="url(#Clip1382)" />
    <path d="M 19.8272177419355 38.23719758064516  C 20.457157258064512 38.86713709677417  21.47832661290323 38.86713709677417  22.108266129032245 38.23729838709676  L 40.65665322580645 19.688911290322608  C 41.286491935483866 19.059072580645193  41.286491935483866 18.03780241935482  40.65665322580645 17.407963709677404  L 38.375705645161275 15.127016129032256  C 37.74586693548386 14.497076612903243  36.72459677419354 14.497076612903243  36.0946572580645 15.127016129032256  L 20.967741935483872 30.253830645161315  L 13.90534274193547 23.191431451612914  C 13.275504032258056 22.5615927419355  12.254233870967738 22.5615927419355  11.624294354838696 23.191431451612914  L 9.343346774193549 25.472379032258065  C 8.713508064516134 26.102217741935473  8.713508064516134 27.123487903225797  9.343346774193549 27.753326612903205  L 19.8272177419355 38.23719758064516  Z " stroke-width="0" stroke-dasharray="0" stroke="rgba(255, 255, 255, 0)" fill="none" class="stroke" mask="url(#Clip1382)" />
  </g>
</svg>