<?xml version="1.0" encoding="utf-8"?>
<svg version="1.1" xmlns:xlink="http://www.w3.org/1999/xlink" width="56px" height="44px" xmlns="http://www.w3.org/2000/svg">
  <defs>
    <pattern id="BGPattern" patternUnits="userSpaceOnUse" alignment="0 0" imageRepeat="None" />
    <mask fill="white" id="Clip2314">
      <path d="M 56 2  C 56 0.8937500000000006  55.10625 0  54 0  L 2 0  C 0.8937499999999997 0  0 0.8937500000000006  0 2  L 0 42  C 0 43.10625  0.8937499999999997 44  2 44  L 54 44  C 55.10625 44  56 43.10625  56 42  L 56 2  Z M 49.125071039166826 6.449999994392705  C 49.125071039166826 6.589463039509082  49.06040824578825 6.721044599847834  48.95 6.806249999999999  L 29.231250000000003 22.15  C 28.743750000000006 22.53125  28.0625 22.53125  27.575000000000003 22.15  L 7.849999999999999 6.806249999999999  C 7.739591754211734 6.721044599847834  7.674928960833164 6.589463039509082  7.674928960833164 6.449999994392705  C 7.674928960833164 6.201471856968848  7.876400823409308 5.999999994392706  8.124928960833165 5.999999994392706  L 48.675 6  C 48.923599176590685 5.999999994392706  49.125071039166826 6.201471856968848  49.125071039166826 6.449999994392705  Z " fill-rule="evenodd" />
    </mask>
  </defs>
  <g>
    <path d="M 56 2  C 56 0.8937500000000006  55.10625 0  54 0  L 2 0  C 0.8937499999999997 0  0 0.8937500000000006  0 2  L 0 42  C 0 43.10625  0.8937499999999997 44  2 44  L 54 44  C 55.10625 44  56 43.10625  56 42  L 56 2  Z M 49.125071039166826 6.449999994392705  C 49.125071039166826 6.589463039509082  49.06040824578825 6.721044599847834  48.95 6.806249999999999  L 29.231250000000003 22.15  C 28.743750000000006 22.53125  28.0625 22.53125  27.575000000000003 22.15  L 7.849999999999999 6.806249999999999  C 7.739591754211734 6.721044599847834  7.674928960833164 6.589463039509082  7.674928960833164 6.449999994392705  C 7.674928960833164 6.201471856968848  7.876400823409308 5.999999994392706  8.124928960833165 5.999999994392706  L 48.675 6  C 48.923599176590685 5.999999994392706  49.125071039166826 6.201471856968848  49.125071039166826 6.449999994392705  Z " fill-rule="nonzero" fill="rgba(0, 0, 0, 1)" stroke="none" class="fill" />
    <path d="M 56 2  C 56 0.8937500000000006  55.10625 0  54 0  L 2 0  C 0.8937499999999997 0  0 0.8937500000000006  0 2  L 0 42  C 0 43.10625  0.8937499999999997 44  2 44  L 54 44  C 55.10625 44  56 43.10625  56 42  L 56 2  Z " stroke-width="0" stroke-dasharray="0" stroke="rgba(255, 255, 255, 0)" fill="none" class="stroke" mask="url(#Clip2314)" />
    <path d="M 49.125071039166826 6.449999994392705  C 49.125071039166826 6.589463039509082  49.06040824578825 6.721044599847834  48.95 6.806249999999999  L 29.231250000000003 22.15  C 28.743750000000006 22.53125  28.0625 22.53125  27.575000000000003 22.15  L 7.849999999999999 6.806249999999999  C 7.739591754211734 6.721044599847834  7.674928960833164 6.589463039509082  7.674928960833164 6.449999994392705  C 7.674928960833164 6.201471856968848  7.876400823409308 5.999999994392706  8.124928960833165 5.999999994392706  L 48.675 6  C 48.923599176590685 5.999999994392706  49.125071039166826 6.201471856968848  49.125071039166826 6.449999994392705  Z " stroke-width="0" stroke-dasharray="0" stroke="rgba(255, 255, 255, 0)" fill="none" class="stroke" mask="url(#Clip2314)" />
  </g>
</svg>