<?xml version="1.0" encoding="utf-8"?>
<svg version="1.1" xmlns:xlink="http://www.w3.org/1999/xlink" width="11px" height="11px" xmlns="http://www.w3.org/2000/svg">
  <defs>
    <pattern id="BGPattern" patternUnits="userSpaceOnUse" alignment="0 0" imageRepeat="None" />
    <mask fill="white" id="Clip3226">
      <path d="M 1 1  L 10 1  L 10 10  L 1 10  L 1 1  Z M 11 1  C 11 0.44771525016920677  10.552284749830793 0  10 0  L 1 0  C 0.44771525016920677 0  0 0.44771525016920677  0 1  L 0 10  C 0 10.552284749830793  0.44771525016920677 11  1 11  L 10 11  C 10.552284749830793 11  11 10.552284749830793  11 10  L 11 1  Z " fill-rule="evenodd" />
    </mask>
  </defs>
  <g transform="matrix(1 0 0 1 -4 -4 )">
    <path d="M 1 1  L 10 1  L 10 10  L 1 10  L 1 1  Z M 11 1  C 11 0.44771525016920677  10.552284749830793 0  10 0  L 1 0  C 0.44771525016920677 0  0 0.44771525016920677  0 1  L 0 10  C 0 10.552284749830793  0.44771525016920677 11  1 11  L 10 11  C 10.552284749830793 11  11 10.552284749830793  11 10  L 11 1  Z " fill-rule="nonzero" fill="rgba(0, 0, 0, 1)" stroke="none" transform="matrix(1 0 0 1 4 4 )" class="fill" />
    <path d="M 1 1  L 10 1  L 10 10  L 1 10  L 1 1  Z " stroke-width="0" stroke-dasharray="0" stroke="rgba(255, 255, 255, 0)" fill="none" transform="matrix(1 0 0 1 4 4 )" class="stroke" mask="url(#Clip3226)" />
    <path d="M 11 1  C 11 0.44771525016920677  10.552284749830793 0  10 0  L 1 0  C 0.44771525016920677 0  0 0.44771525016920677  0 1  L 0 10  C 0 10.552284749830793  0.44771525016920677 11  1 11  L 10 11  C 10.552284749830793 11  11 10.552284749830793  11 10  L 11 1  Z " stroke-width="0" stroke-dasharray="0" stroke="rgba(255, 255, 255, 0)" fill="none" transform="matrix(1 0 0 1 4 4 )" class="stroke" mask="url(#Clip3226)" />
  </g>
</svg>