<?xml version="1.0" encoding="utf-8"?>
<svg version="1.1" xmlns:xlink="http://www.w3.org/1999/xlink" width="24px" height="24px" xmlns="http://www.w3.org/2000/svg">
  <defs>
    <pattern id="BGPattern" patternUnits="userSpaceOnUse" alignment="0 0" imageRepeat="None" />
    <mask fill="white" id="Clip5901">
      <path d="M 16.7865 18.292499999999997  L 16.785 18.2925  C 19.808999999999997 17.9325  22.439999999999998 16.080000000000002  22.77 14.388000000000002  C 23.292 11.721  23.25 7.8795  23.25 7.8795  C 23.25 2.6745  19.821 1.1474999999999995  19.821 1.1474999999999995  C 18.093 0.357  15.124500000000001 0.025500000000000002  12.040499999999998 0  L 11.965499999999999 0  C 8.879999999999999 0.025500000000000002  5.913 0.357  4.1850000000000005 1.1475  C 4.1850000000000005 1.1475  0.7574999999999998 2.673  0.7574999999999998 7.8795  L 0.7544999999999998 8.8725  C 0.7484999999999998 9.8325  0.7439999999999998 10.8975  0.7709999999999999 12.009  C 0.8954999999999997 17.1  1.71 22.119  6.440999999999999 23.364  C 8.622 23.938499999999998  10.4955 24.058500000000002  12.0045 23.976  C 14.739 23.826  16.275 23.005499999999998  16.275 23.005499999999998  L 16.185 21.03  C 16.185 21.03  14.230499999999997 21.645  12.0345 21.57  C 9.859499999999999 21.494999999999997  7.564499999999999 21.336  7.212 18.677999999999997  C 7.17844345438518 18.4314300564863  7.161904340758235 18.182842166820688  7.1625 17.933999999999997  C 7.1625 17.933999999999997  9.2985 18.452999999999996  12.0045 18.575999999999997  C 13.658999999999999 18.651  15.21 18.479999999999997  16.7865 18.292499999999997  Z M 19.2045 8.283000000000001  L 19.2045 14.587499999999999  L 16.695 14.587499999999999  L 16.695 8.4675  C 16.695 7.178999999999999  16.149 6.5249999999999995  15.058500000000002 6.5249999999999995  C 13.852500000000003 6.5249999999999995  13.248000000000001 7.3004999999999995  13.248000000000001 8.836500000000001  L 13.248000000000001 12.186  L 10.752 12.186  L 10.752 8.834999999999999  C 10.752 7.2989999999999995  10.1475 6.5235  8.941500000000001 6.5235  C 7.851 6.5235  7.305 7.1775  7.305 8.467500000000001  L 7.305 14.586  L 4.7955000000000005 14.586  L 4.7955000000000005 8.283000000000001  C 4.7955000000000005 6.9945  5.125500000000001 5.971500000000001  5.785500000000001 5.214  C 6.469500000000001 4.456500000000001  7.363500000000001 4.068000000000001  8.475000000000001 4.068000000000001  C 9.759 4.068000000000001  10.731 4.5600000000000005  11.374500000000001 5.542500000000001  L 12 6.584999999999999  L 12.625499999999999 5.5424999999999995  C 13.269 4.5600000000000005  14.241 4.068  15.526499999999999 4.068  C 16.636499999999998 4.068  17.5305 4.456499999999999  18.213 5.214  C 18.875999999999998 5.9715  19.2045 6.9945  19.2045 8.283000000000001  Z " fill-rule="evenodd" />
    </mask>
  </defs>
  <g>
    <path d="M 16.7865 18.292499999999997  L 16.785 18.2925  C 19.808999999999997 17.9325  22.439999999999998 16.080000000000002  22.77 14.388000000000002  C 23.292 11.721  23.25 7.8795  23.25 7.8795  C 23.25 2.6745  19.821 1.1474999999999995  19.821 1.1474999999999995  C 18.093 0.357  15.124500000000001 0.025500000000000002  12.040499999999998 0  L 11.965499999999999 0  C 8.879999999999999 0.025500000000000002  5.913 0.357  4.1850000000000005 1.1475  C 4.1850000000000005 1.1475  0.7574999999999998 2.673  0.7574999999999998 7.8795  L 0.7544999999999998 8.8725  C 0.7484999999999998 9.8325  0.7439999999999998 10.8975  0.7709999999999999 12.009  C 0.8954999999999997 17.1  1.71 22.119  6.440999999999999 23.364  C 8.622 23.938499999999998  10.4955 24.058500000000002  12.0045 23.976  C 14.739 23.826  16.275 23.005499999999998  16.275 23.005499999999998  L 16.185 21.03  C 16.185 21.03  14.230499999999997 21.645  12.0345 21.57  C 9.859499999999999 21.494999999999997  7.564499999999999 21.336  7.212 18.677999999999997  C 7.17844345438518 18.4314300564863  7.161904340758235 18.182842166820688  7.1625 17.933999999999997  C 7.1625 17.933999999999997  9.2985 18.452999999999996  12.0045 18.575999999999997  C 13.658999999999999 18.651  15.21 18.479999999999997  16.7865 18.292499999999997  Z M 19.2045 8.283000000000001  L 19.2045 14.587499999999999  L 16.695 14.587499999999999  L 16.695 8.4675  C 16.695 7.178999999999999  16.149 6.5249999999999995  15.058500000000002 6.5249999999999995  C 13.852500000000003 6.5249999999999995  13.248000000000001 7.3004999999999995  13.248000000000001 8.836500000000001  L 13.248000000000001 12.186  L 10.752 12.186  L 10.752 8.834999999999999  C 10.752 7.2989999999999995  10.1475 6.5235  8.941500000000001 6.5235  C 7.851 6.5235  7.305 7.1775  7.305 8.467500000000001  L 7.305 14.586  L 4.7955000000000005 14.586  L 4.7955000000000005 8.283000000000001  C 4.7955000000000005 6.9945  5.125500000000001 5.971500000000001  5.785500000000001 5.214  C 6.469500000000001 4.456500000000001  7.363500000000001 4.068000000000001  8.475000000000001 4.068000000000001  C 9.759 4.068000000000001  10.731 4.5600000000000005  11.374500000000001 5.542500000000001  L 12 6.584999999999999  L 12.625499999999999 5.5424999999999995  C 13.269 4.5600000000000005  14.241 4.068  15.526499999999999 4.068  C 16.636499999999998 4.068  17.5305 4.456499999999999  18.213 5.214  C 18.875999999999998 5.9715  19.2045 6.9945  19.2045 8.283000000000001  Z " fill-rule="nonzero" fill="rgba(0, 0, 0, 1)" stroke="none" class="fill" />
    <path d="M 16.7865 18.292499999999997  L 16.785 18.2925  C 19.808999999999997 17.9325  22.439999999999998 16.080000000000002  22.77 14.388000000000002  C 23.292 11.721  23.25 7.8795  23.25 7.8795  C 23.25 2.6745  19.821 1.1474999999999995  19.821 1.1474999999999995  C 18.093 0.357  15.124500000000001 0.025500000000000002  12.040499999999998 0  L 11.965499999999999 0  C 8.879999999999999 0.025500000000000002  5.913 0.357  4.1850000000000005 1.1475  C 4.1850000000000005 1.1475  0.7574999999999998 2.673  0.7574999999999998 7.8795  L 0.7544999999999998 8.8725  C 0.7484999999999998 9.8325  0.7439999999999998 10.8975  0.7709999999999999 12.009  C 0.8954999999999997 17.1  1.71 22.119  6.440999999999999 23.364  C 8.622 23.938499999999998  10.4955 24.058500000000002  12.0045 23.976  C 14.739 23.826  16.275 23.005499999999998  16.275 23.005499999999998  L 16.185 21.03  C 16.185 21.03  14.230499999999997 21.645  12.0345 21.57  C 9.859499999999999 21.494999999999997  7.564499999999999 21.336  7.212 18.677999999999997  C 7.17844345438518 18.4314300564863  7.161904340758235 18.182842166820688  7.1625 17.933999999999997  C 7.1625 17.933999999999997  9.2985 18.452999999999996  12.0045 18.575999999999997  C 13.658999999999999 18.651  15.21 18.479999999999997  16.7865 18.292499999999997  Z " stroke-width="0" stroke-dasharray="0" stroke="rgba(255, 255, 255, 0)" fill="none" class="stroke" mask="url(#Clip5901)" />
    <path d="M 19.2045 8.283000000000001  L 19.2045 14.587499999999999  L 16.695 14.587499999999999  L 16.695 8.4675  C 16.695 7.178999999999999  16.149 6.5249999999999995  15.058500000000002 6.5249999999999995  C 13.852500000000003 6.5249999999999995  13.248000000000001 7.3004999999999995  13.248000000000001 8.836500000000001  L 13.248000000000001 12.186  L 10.752 12.186  L 10.752 8.834999999999999  C 10.752 7.2989999999999995  10.1475 6.5235  8.941500000000001 6.5235  C 7.851 6.5235  7.305 7.1775  7.305 8.467500000000001  L 7.305 14.586  L 4.7955000000000005 14.586  L 4.7955000000000005 8.283000000000001  C 4.7955000000000005 6.9945  5.125500000000001 5.971500000000001  5.785500000000001 5.214  C 6.469500000000001 4.456500000000001  7.363500000000001 4.068000000000001  8.475000000000001 4.068000000000001  C 9.759 4.068000000000001  10.731 4.5600000000000005  11.374500000000001 5.542500000000001  L 12 6.584999999999999  L 12.625499999999999 5.5424999999999995  C 13.269 4.5600000000000005  14.241 4.068  15.526499999999999 4.068  C 16.636499999999998 4.068  17.5305 4.456499999999999  18.213 5.214  C 18.875999999999998 5.9715  19.2045 6.9945  19.2045 8.283000000000001  Z " stroke-width="0" stroke-dasharray="0" stroke="rgba(255, 255, 255, 0)" fill="none" class="stroke" mask="url(#Clip5901)" />
  </g>
</svg>