<?xml version="1.0" encoding="utf-8"?>
<svg version="1.1" xmlns:xlink="http://www.w3.org/1999/xlink" width="48px" height="26px" xmlns="http://www.w3.org/2000/svg">
  <defs>
    <pattern id="BGPattern" patternUnits="userSpaceOnUse" alignment="0 0" imageRepeat="None" />
    <mask fill="white" id="Clip6778">
      <path d="M 48 1  L 16.412 1  L 16.422 1.5239999999999991  L 13.508 1.5239999999999991  L 13.52 2.8339999999999996  L 13.52 3  L 0.0039999999999995595 3  L 0.0039999999999995595 3.2699999999999996  L 0 4.946  L 0.04 5.027999999999999  C 0.46399999999999997 5.962  1.366 6.829999999999998  2.554 7.653999999999999  C 3.742 8.475999999999999  5.224 9.245999999999999  6.843999999999999 9.914000000000001  C 10.084 11.242  13.847999999999999 12.154000000000003  16.856 12.114  C 18.348000000000003 12.094000000000001  19.386000000000003 12.57  20.096000000000004 13.458000000000002  C 20.778000000000002 14.310000000000002  21.116000000000003 15.642000000000005  21.144000000000005 17.298000000000002  L 15.880000000000003 21.478  L 15.896 25  L 40.58 25  L 40.571999999999996 21.75  L 35.312 17.31  C 35.422 13.284  36.727999999999994 10.424  38.866 8.5  C 41.04 6.542000000000002  44.086 5.52  47.606 5.268000000000001  L 47.996 5.2379999999999995  L 48 1  Z M 17.27599999999999 2.370000000000001  L 17.262 2  L 47.153999999999996 2  L 47.145999999999994 4.501999999999999  C 43.672 4.811999999999999  40.565999999999995 5.834  38.297999999999995 7.872000000000001  C 36.474 9.515999999999998  35.431999999999995 11.995999999999999  34.916 14.939999999999998  L 31.681999999999995 14.947999999999995  L 31.686 15.791999999999998  L 34.75599999999999 15.783999999999999  C 34.70199999999999 16.236  34.529999999999994 16.584  34.50999999999999 17.064  L 32.72399999999999 17.058  L 32.71999999999999 17.902  L 34.709999999999994 17.91  L 38.98599999999999 21.514000000000003  L 33.10399999999999 21.518  C 31.65599999999999 20.168  29.999999999999993 19.286  28.27199999999999 19.202  C 26.63799999999999 19.122000000000003  24.99599999999999 19.85  23.49799999999999 21.282000000000004  L 17.54199999999999 21.234  L 22.03799999999999 17.672  L 22.03799999999999 17.468  C 22.04199999999999 15.582  21.63799999999999 14.027999999999999  20.75799999999999 12.93  C 19.965999999999987 11.937999999999999  18.74399999999999 11.431999999999999  17.27599999999999 11.350000000000001  L 17.25999999999999 2.370000000000001  L 17.27599999999999 2.370000000000001  Z M 14.364 2.366000000000003  L 14.362000000000002 2.3679999999999986  L 16.414 2.3679999999999986  L 16.43 11.175999999999998  C 13.655999999999999 11.136  10.18 10.367999999999999  7.167999999999999 9.129999999999999  C 5.593999999999999 8.482  4.154 7.733999999999998  3.0359999999999996 6.9579999999999975  C 1.936 6.199999999999999  1.174 5.405999999999999  0.8480000000000001 4.720000000000001  L 0.8480000000000001 4  L 13.52 4  L 13.52 8.008000000000003  L 14.364 8.008000000000003  L 14.364 3.688000000000002  L 14.372 3.688000000000002  L 14.364 2.818000000000003  L 14.364 2.366000000000003  Z M 23.886000000000003 22.026000000000003  C 25.298000000000002 20.592000000000002  26.772000000000006 19.974000000000004  28.232 20.046  C 29.732 20.12  31.238 20.918  32.592 22.201999999999998  L 32.588 24.426000000000002  L 23.898000000000003 24.426000000000002  L 23.886000000000003 22.026000000000003  Z M 16.732 24.425999999999995  L 16.72 22.073999999999998  L 23.04 22.119999999999997  L 23.052 24.425999999999995  L 16.732 24.425999999999995  Z M 33.428 22.36  L 39.72 22.357999999999997  L 39.724 24.425999999999995  L 33.428 24.425999999999995  L 33.428 22.36  Z " fill-rule="evenodd" />
    </mask>
  </defs>
  <g>
    <path d="M 48 1  L 16.412 1  L 16.422 1.5239999999999991  L 13.508 1.5239999999999991  L 13.52 2.8339999999999996  L 13.52 3  L 0.0039999999999995595 3  L 0.0039999999999995595 3.2699999999999996  L 0 4.946  L 0.04 5.027999999999999  C 0.46399999999999997 5.962  1.366 6.829999999999998  2.554 7.653999999999999  C 3.742 8.475999999999999  5.224 9.245999999999999  6.843999999999999 9.914000000000001  C 10.084 11.242  13.847999999999999 12.154000000000003  16.856 12.114  C 18.348000000000003 12.094000000000001  19.386000000000003 12.57  20.096000000000004 13.458000000000002  C 20.778000000000002 14.310000000000002  21.116000000000003 15.642000000000005  21.144000000000005 17.298000000000002  L 15.880000000000003 21.478  L 15.896 25  L 40.58 25  L 40.571999999999996 21.75  L 35.312 17.31  C 35.422 13.284  36.727999999999994 10.424  38.866 8.5  C 41.04 6.542000000000002  44.086 5.52  47.606 5.268000000000001  L 47.996 5.2379999999999995  L 48 1  Z M 17.27599999999999 2.370000000000001  L 17.262 2  L 47.153999999999996 2  L 47.145999999999994 4.501999999999999  C 43.672 4.811999999999999  40.565999999999995 5.834  38.297999999999995 7.872000000000001  C 36.474 9.515999999999998  35.431999999999995 11.995999999999999  34.916 14.939999999999998  L 31.681999999999995 14.947999999999995  L 31.686 15.791999999999998  L 34.75599999999999 15.783999999999999  C 34.70199999999999 16.236  34.529999999999994 16.584  34.50999999999999 17.064  L 32.72399999999999 17.058  L 32.71999999999999 17.902  L 34.709999999999994 17.91  L 38.98599999999999 21.514000000000003  L 33.10399999999999 21.518  C 31.65599999999999 20.168  29.999999999999993 19.286  28.27199999999999 19.202  C 26.63799999999999 19.122000000000003  24.99599999999999 19.85  23.49799999999999 21.282000000000004  L 17.54199999999999 21.234  L 22.03799999999999 17.672  L 22.03799999999999 17.468  C 22.04199999999999 15.582  21.63799999999999 14.027999999999999  20.75799999999999 12.93  C 19.965999999999987 11.937999999999999  18.74399999999999 11.431999999999999  17.27599999999999 11.350000000000001  L 17.25999999999999 2.370000000000001  L 17.27599999999999 2.370000000000001  Z M 14.364 2.366000000000003  L 14.362000000000002 2.3679999999999986  L 16.414 2.3679999999999986  L 16.43 11.175999999999998  C 13.655999999999999 11.136  10.18 10.367999999999999  7.167999999999999 9.129999999999999  C 5.593999999999999 8.482  4.154 7.733999999999998  3.0359999999999996 6.9579999999999975  C 1.936 6.199999999999999  1.174 5.405999999999999  0.8480000000000001 4.720000000000001  L 0.8480000000000001 4  L 13.52 4  L 13.52 8.008000000000003  L 14.364 8.008000000000003  L 14.364 3.688000000000002  L 14.372 3.688000000000002  L 14.364 2.818000000000003  L 14.364 2.366000000000003  Z M 23.886000000000003 22.026000000000003  C 25.298000000000002 20.592000000000002  26.772000000000006 19.974000000000004  28.232 20.046  C 29.732 20.12  31.238 20.918  32.592 22.201999999999998  L 32.588 24.426000000000002  L 23.898000000000003 24.426000000000002  L 23.886000000000003 22.026000000000003  Z M 16.732 24.425999999999995  L 16.72 22.073999999999998  L 23.04 22.119999999999997  L 23.052 24.425999999999995  L 16.732 24.425999999999995  Z M 33.428 22.36  L 39.72 22.357999999999997  L 39.724 24.425999999999995  L 33.428 24.425999999999995  L 33.428 22.36  Z " fill-rule="nonzero" fill="rgba(0, 0, 0, 1)" stroke="none" class="fill" />
    <path d="M 48 1  L 16.412 1  L 16.422 1.5239999999999991  L 13.508 1.5239999999999991  L 13.52 2.8339999999999996  L 13.52 3  L 0.0039999999999995595 3  L 0.0039999999999995595 3.2699999999999996  L 0 4.946  L 0.04 5.027999999999999  C 0.46399999999999997 5.962  1.366 6.829999999999998  2.554 7.653999999999999  C 3.742 8.475999999999999  5.224 9.245999999999999  6.843999999999999 9.914000000000001  C 10.084 11.242  13.847999999999999 12.154000000000003  16.856 12.114  C 18.348000000000003 12.094000000000001  19.386000000000003 12.57  20.096000000000004 13.458000000000002  C 20.778000000000002 14.310000000000002  21.116000000000003 15.642000000000005  21.144000000000005 17.298000000000002  L 15.880000000000003 21.478  L 15.896 25  L 40.58 25  L 40.571999999999996 21.75  L 35.312 17.31  C 35.422 13.284  36.727999999999994 10.424  38.866 8.5  C 41.04 6.542000000000002  44.086 5.52  47.606 5.268000000000001  L 47.996 5.2379999999999995  L 48 1  Z " stroke-width="0" stroke-dasharray="0" stroke="rgba(255, 255, 255, 0)" fill="none" class="stroke" mask="url(#Clip6778)" />
    <path d="M 17.27599999999999 2.370000000000001  L 17.262 2  L 47.153999999999996 2  L 47.145999999999994 4.501999999999999  C 43.672 4.811999999999999  40.565999999999995 5.834  38.297999999999995 7.872000000000001  C 36.474 9.515999999999998  35.431999999999995 11.995999999999999  34.916 14.939999999999998  L 31.681999999999995 14.947999999999995  L 31.686 15.791999999999998  L 34.75599999999999 15.783999999999999  C 34.70199999999999 16.236  34.529999999999994 16.584  34.50999999999999 17.064  L 32.72399999999999 17.058  L 32.71999999999999 17.902  L 34.709999999999994 17.91  L 38.98599999999999 21.514000000000003  L 33.10399999999999 21.518  C 31.65599999999999 20.168  29.999999999999993 19.286  28.27199999999999 19.202  C 26.63799999999999 19.122000000000003  24.99599999999999 19.85  23.49799999999999 21.282000000000004  L 17.54199999999999 21.234  L 22.03799999999999 17.672  L 22.03799999999999 17.468  C 22.04199999999999 15.582  21.63799999999999 14.027999999999999  20.75799999999999 12.93  C 19.965999999999987 11.937999999999999  18.74399999999999 11.431999999999999  17.27599999999999 11.350000000000001  L 17.25999999999999 2.370000000000001  L 17.27599999999999 2.370000000000001  Z " stroke-width="0" stroke-dasharray="0" stroke="rgba(255, 255, 255, 0)" fill="none" class="stroke" mask="url(#Clip6778)" />
    <path d="M 14.364 2.366000000000003  L 14.362000000000002 2.3679999999999986  L 16.414 2.3679999999999986  L 16.43 11.175999999999998  C 13.655999999999999 11.136  10.18 10.367999999999999  7.167999999999999 9.129999999999999  C 5.593999999999999 8.482  4.154 7.733999999999998  3.0359999999999996 6.9579999999999975  C 1.936 6.199999999999999  1.174 5.405999999999999  0.8480000000000001 4.720000000000001  L 0.8480000000000001 4  L 13.52 4  L 13.52 8.008000000000003  L 14.364 8.008000000000003  L 14.364 3.688000000000002  L 14.372 3.688000000000002  L 14.364 2.818000000000003  L 14.364 2.366000000000003  Z " stroke-width="0" stroke-dasharray="0" stroke="rgba(255, 255, 255, 0)" fill="none" class="stroke" mask="url(#Clip6778)" />
    <path d="M 23.886000000000003 22.026000000000003  C 25.298000000000002 20.592000000000002  26.772000000000006 19.974000000000004  28.232 20.046  C 29.732 20.12  31.238 20.918  32.592 22.201999999999998  L 32.588 24.426000000000002  L 23.898000000000003 24.426000000000002  L 23.886000000000003 22.026000000000003  Z " stroke-width="0" stroke-dasharray="0" stroke="rgba(255, 255, 255, 0)" fill="none" class="stroke" mask="url(#Clip6778)" />
    <path d="M 16.732 24.425999999999995  L 16.72 22.073999999999998  L 23.04 22.119999999999997  L 23.052 24.425999999999995  L 16.732 24.425999999999995  Z " stroke-width="0" stroke-dasharray="0" stroke="rgba(255, 255, 255, 0)" fill="none" class="stroke" mask="url(#Clip6778)" />
    <path d="M 33.428 22.36  L 39.72 22.357999999999997  L 39.724 24.425999999999995  L 33.428 24.425999999999995  L 33.428 22.36  Z " stroke-width="0" stroke-dasharray="0" stroke="rgba(255, 255, 255, 0)" fill="none" class="stroke" mask="url(#Clip6778)" />
  </g>
</svg>