<?xml version="1.0" encoding="utf-8"?>
<svg version="1.1" xmlns:xlink="http://www.w3.org/1999/xlink" width="44px" height="48px" xmlns="http://www.w3.org/2000/svg">
  <defs>
    <pattern id="BGPattern" patternUnits="userSpaceOnUse" alignment="0 0" imageRepeat="None" />
    <mask fill="white" id="Clip6802">
      <path d="M 39.7945511389013 27.610987047789195  L 36.80750334970969 33.87985707905315  L 32.89682894149174 31.285841893702546  L 29.634658329611437 36.74899508709246  L 25.841893702545782 35.628852166145606  L 22.501116569897277 40.738276016078615  L 22.677981241625726 42.34970969182672  L 40.85573916927199 38.98928092898616  L 39.7945511389013 27.610987047789195  Z M 21.616793211255025 43.76462706565432  L 19.84814649397052 28.96694953104064  L 22.756587762393927 28.573916927199644  C 23.192338991928455 28.764716029307152  23.646778256566726 28.909609707887476  24.112550245645373 29.00625279142475  C 25.24598816310507 29.3857396642518  26.486708451196264 29.271650442358357  27.531933899062086 28.691826708351947  C 28.05450251854133 28.35637462792475  28.519093989041487 27.938242304474606  28.907548012505583 27.453774006252793  L 40.85573916927199 25.272443054935238  L 42.0741402411791 40.070120589548914  L 21.616793211255025 43.76462706565432  Z M 44 42.19249665029031  L 42.034836980795 23.641357748995084  L 40.85573916927199 23.857525681107635  L 38.595801697186246 0.39347923179991207  L 0 4.874050915587317  L 4.755694506476106 43.56811076373381  L 9.275569450647613 42.91960696739617  C 8.735451690924116 42.19058619131047  8.101073635935826 41.53638382210381  7.389012952210809 40.97409557838322  C 6.302712369481201 39.80161981967261  6.26889289975388 38.00073305669269  7.310406431442608 36.78829834747656  C 8.351942831621262 34.78383206788746  13.697186243858866 32.229120142920955  13.402411790978121 29.006252791424753  C 13.402338016118772 27.637690970976607  12.914637742127521 26.313933084428918  12.026797677534612 25.272443054935245  C 12.005193907368884 25.554662353824277  12.018394151429405 25.83846760112552  12.066100937918712 26.117463153193395  C 11.766232958679659 25.714967889891213  11.54002093448733 25.26254384150655  11.397945511389011 24.78115230013399  C 11.170524756507431 24.533883177558806  10.960409884489103 24.27123958753589  10.769093345243412 23.995087092451993  C 10.670868351455635 24.313123509037727  10.6244217070792 24.64488525458369  10.631531933899062 24.977668602054493  C 10.426555128549143 24.466876409713187  10.287864693525488 23.931927588907644  10.218847699866014 23.385886556498445  C 10.068241740582952 23.680056441107464  9.97487966227564 24.000154995303944  9.94372487717731 24.329164805716843  C 9.702262616731598 23.660944734526883  9.57600815845688 22.956577756783712  9.57034390352836 22.246092005359543  C 8.96226539342474 20.73930068977833  8.732851350092695 19.10641249900318  8.90218847699866 17.49039749888343  C 10.496391000898974 18.378460349787254  12.495943193747301 18.01640151651431  13.677534613666815 16.62572577043323  C 14.011612326931663 16.15408664582403  14.247431889236262 14.798124162572579  13.520321572130417 12.145154086645828  C 12.951143864198276 10.358933693462363  12.248247893791252 8.618116570491692  11.417597141581062 6.937472085752569  L 11.378293881196964 6.9767753461366695  C 11.614113443501564 7.76284055381867  12.105404198302814 9.374274229566772  12.301920500223314 10.179991067440826  C 12.821635906816802 11.558316899673539  12.977305955090133 13.047334752722787  12.753907994640464 14.503349709691829  C 12.518088432335865 15.46627958910228  11.967842786958462 16.09513175524788  10.592228673514963 16.78293881196963  C 9.216614560071463 17.47074586869138  7.349709691826708 15.780705672175081  7.231799910674406 15.68244752121483  C 6.036555001613054 14.735938991169892  5.158931438216182 13.446929382430739  4.716391246092006 11.987941045109427  C 4.598481464939706 11.044662795891023  5.246985261277357 10.474765520321576  5.581062974542208 9.708351942831623  C 5.238277379785652 9.815969058700546  4.903391650952849 9.947296795497724  4.578829834747655 10.101384546672623  C 5.0153398033168815 9.650197632102177  5.488609297421024 9.236086824761053  5.993747208575258 8.863331844573475  C 6.285869945807134 8.668133939557935  6.567905527223571 8.458246995248027  6.838767306833409 8.234479678427872  L 5.934792317999108 8.234479678427872  C 5.934792317999108 8.234479678427872  6.779812416257257 7.80214381420277  7.6248325145154086 7.46806610093792  C 6.995980348369807 7.448414470745871  6.406431442608307 7.46806610093792  6.406431442608307 7.46806610093792  C 6.406431442608307 7.46806610093792  8.234033050468959 6.642697632871821  9.68825368468066 6.0334970969182695  C 10.536227691607863 5.54900273826874  11.611916672261824 5.767502062464076  12.203662349263066 6.544439481911571  C 12.894008030177954 7.611268588685338  14.01169015022539 8.327731486151645  15.269316659222866 8.509602501116573  C 16.075678324126773 8.084988635949482  16.925654003518186 7.748951739445901  17.804376953997316 7.507369361322024  C 18.29974651286767 6.867893270917401  18.978484351538324 6.394833565177251  19.74988834301027 6.151406878070571  C 19.47463075000869 6.423316709088217  19.28943170335754 6.7731371305403805  19.21929432782492 7.153640017865122  C 19.63058828659826 6.829129210358143  20.063971499799376 6.533640655902838  20.516301920500222 6.269316659222871  C 20.316634339603148 6.532162839724412  20.145365074995706 6.815415854267492  20.005359535506923 7.114336757481022  L 20.064314426083076 7.192943278249222  C 20.57009505658906 6.901595338755037  21.095387545817427 6.6455152502562065  21.636444841447073 6.426529700759271  L 21.105850826261726 7.133988387673073  C 21.656096471639124 7.133988387673073  22.756587762393927 7.153640017865121  23.16927199642698 7.212594908441272  C 25.684680661009377 7.271549799017421  26.21527467619473 4.520321572130419  27.178204555605188 4.166592228673519  C 28.396605627512283 3.7342563644484184  28.92719964269764 3.4787851719517677  30.990620812862893 5.50290308173292  C 32.75926753014739 7.251898168825372  34.134881643590894 10.376507369361326  33.44707458686914 11.064314426083078  C 32.8771773112997 11.653863331844578  31.73738276016079 10.828494863778477  30.479678427869587 9.256364448414475  C 29.764623299487205 8.367803938024998  29.28478725359134 7.313516287887609  29.08441268423404 6.190710138454671  C 28.956198816272888 5.543044733955342  28.617696093877687 4.955846133882043  28.121482804823586 4.5203215721304195  C 28.383484453827396 5.117174123663344  28.53655982795564 5.756097424372523  28.573470299240732 6.40687807056722  C 28.537883753024847 7.562532615977294  28.823601440452787 8.705403365689037  29.398838767306838 9.708351942831625  C 29.320232246538637 9.865564984368024  29.28092898615454 10.435462259937475  29.202322465386338 10.553372041089775  C 28.268495007825937 9.695079987260456  27.20795804954276 8.985845896408582  26.05806163465833 8.450647610540422  C 27.825745731429546 9.77057151928833  29.33751896810146 11.402221047854932  30.51898168825369 13.265297007592679  C 31.403305046895934 15.09289861545333  30.892362661902638 16.76328718177758  31.32469852612774 17.195623046002687  C 32.23213652898791 18.24731440379119  32.99240864327814 19.417472353611817  33.584635998213486 20.673961589995535  C 34.06987672433102 22.463986060052388  33.79996438137991 24.37468132989051  32.83787405091559 25.96025011165699  L 30.65654309959804 26.294327824921837  C 30.3717369794109 26.22564529178942  30.095054274928046 26.126830040188395  29.83117463153193 25.99955337204109  C 30.03061794841378 25.64539385081488  30.188861216520287 25.269566089061918  30.302813756141127 24.879410451094238  L 30.184903974988835 24.66324251898169  C 29.428640843326068 25.65337469364237  28.487668432818406 26.4875700930286  27.41402411790978 27.11969629298794  C 26.304408150031954 27.69727810964728  25.010787693159962 27.810381537570514  23.817775792764625 27.434122376060742  C 21.753391024727986 26.716757234129652  19.81638674954564 25.675285757404893  18.07949977668602 24.348816435908887  C 18.07949977668602 24.348816435908887  18.05984814649397 24.722197409557836  18.17775792764627 24.80080393032604  C 19.280000109248853 25.961398861672254  20.51319970903819 26.99016430320775  21.852612773559628 27.866458240285844  L 18.708351942831623 28.220187583742742  L 20.201875837427426 39.83430102724431  C 19.533720410897725 39.93255917820456  19.435462259937474 39.97186243858866  18.728003573023678 40.07012058954892  C 18.279469246912942 38.19821381557887  17.14297475322609 36.56362605614035  15.544439481911567 35.491290754801256  C 14.22507299366151 34.74875486547624  12.674171151819102 34.531207548294724  11.201429209468515 34.88209021884771  L 11.103171058508263 35.00000000000001  C 12.38495897106332 34.85593894897637  13.676988039123543 35.16158023389385  14.758374274229569 35.864671728450205  C 16.057090395997914 36.948612169470856  16.995951742338935 38.40144870541462  17.450647610540422 40.03081732916482  C 18.186112592446403 41.72353693768748  18.000577799829447 43.67536295601788  16.959356855739163 45.19919606967396  C 15.411470487633991 46.82319146869172  12.891004451579786 47.026182021930985  11.10317105850826 45.670835194283164  C 11.595197216579166 46.63455018776808  12.49935693237111 47.32171157176996  13.559624832514515 47.53774006252792  C 15.035371228325051 47.85120689550836  16.57173782198852 47.4341931057997  17.686467172845017 46.41759714158106  C 18.69839880746402 45.02200113526815  19.141063324290922 43.29350159337262  18.92451987494417 41.583296114336754  L 20.319785618579722 41.38677981241626  L 20.83072800357302 44.98302813756141  L 44 42.19249665029031  Z M 27.90531487271104 13.442161679321128  C 28.259044216167936 13.579723090665478  28.00357302367129 13.697632871817778  27.944618133095133 13.854845913354179  C 27.885663242518984 14.012058954890577  27.78740509155873 14.090665475658778  27.924966502903082 14.581956230460026  L 27.924966502903082 14.601607860652077  L 27.944618133095133 14.660562751228227  L 28.003573023671276 14.798124162572577  C 28.210227564801173 15.358914732560434  28.588436643314417 15.840271741577281  29.08441268423403 16.17373827601608  C 29.2208744698234 16.150916682455186  29.358780481948735 16.137782776538486  29.49709691826708 16.13443501563198  C 29.826238028166284 16.10358232189099  30.157789774577534 16.157713219264256  30.460026797677536 16.29164805716838  C 30.478946847001488 16.148364847975778  30.485521567290192 16.00372100162427  30.479678427869587 15.859312192943282  C 30.440375167485495 15.151853506029479  30.617239839213937 13.93345243412238  29.261277355962484 13.284948637784726  C 28.78361632671904 13.04778653370082  28.212928124652375 13.101050765893707  27.787405091558735 13.42251004912908  C 27.826708351942834 13.42251004912908  27.866011612326936 13.442161679321128  27.90531487271104 13.442161679321128  Z M 31.914247431889237 21.912014292094685  C 32.13041536400179 21.32246538633318  32.13041536400179 20.713264850379634  31.776686020544886 20.51674854845913  C 31.24215724071186 20.43404867472921  30.697605386808053 20.44068955099633  30.165252344796787 20.53640017865118  C 29.265573827784845 20.62975685351435  28.388363035606996 20.875641696776324  27.571237159446184 21.263510495757036  C 27.398855031740688 21.419604264393826  27.30051718628309 21.641313318155223  27.30051718628309 21.873866242367136  C 27.30051718628309 22.15015937493356  27.439089155404343 22.408035634226884  27.669495310406436 22.56051808843234  C 28.425086771834206 23.287243649555215  29.431334929511564 23.69537227294883  30.479678427869587 23.700312639571237  C 31.049575703439036 23.62170611880304  31.540866458240288 22.717731129968737  31.914247431889237 21.912014292094685  Z M 22.12773559624833 16.19338990620813  C 22.029477445288073 15.151853506029477  21.223760607414025 15.309066547565877  21.832961143367573 14.739169271996428  C 22.147387226440372 14.44439481911568  20.26083072800357 14.031710585082628  18.78695846359982 15.053595355069229  C 18.26117605662481 15.43511528099285  17.94997921365577 16.045419303800177  17.94997921365577 16.695038109994393  C 17.94997921365577 17.309884358745865  18.228909213752704 17.891533389499145  18.708351942831623 18.276462706565432  C 18.788675622323073 18.356596566321464  18.881621542672796 18.422986509428412  18.98347476552032 18.47297900848593  C 19.84858368503018 18.069314659350514  20.7693563050017 17.797719857776183  21.71505136221528 17.66726217061188  C 22.052034651220318 17.254969121814284  22.20162255082955 16.720726623209885  22.12773559624833 16.19338990620813  Z " fill-rule="evenodd" />
    </mask>
  </defs>
  <g>
    <path d="M 39.7945511389013 27.610987047789195  L 36.80750334970969 33.87985707905315  L 32.89682894149174 31.285841893702546  L 29.634658329611437 36.74899508709246  L 25.841893702545782 35.628852166145606  L 22.501116569897277 40.738276016078615  L 22.677981241625726 42.34970969182672  L 40.85573916927199 38.98928092898616  L 39.7945511389013 27.610987047789195  Z M 21.616793211255025 43.76462706565432  L 19.84814649397052 28.96694953104064  L 22.756587762393927 28.573916927199644  C 23.192338991928455 28.764716029307152  23.646778256566726 28.909609707887476  24.112550245645373 29.00625279142475  C 25.24598816310507 29.3857396642518  26.486708451196264 29.271650442358357  27.531933899062086 28.691826708351947  C 28.05450251854133 28.35637462792475  28.519093989041487 27.938242304474606  28.907548012505583 27.453774006252793  L 40.85573916927199 25.272443054935238  L 42.0741402411791 40.070120589548914  L 21.616793211255025 43.76462706565432  Z M 44 42.19249665029031  L 42.034836980795 23.641357748995084  L 40.85573916927199 23.857525681107635  L 38.595801697186246 0.39347923179991207  L 0 4.874050915587317  L 4.755694506476106 43.56811076373381  L 9.275569450647613 42.91960696739617  C 8.735451690924116 42.19058619131047  8.101073635935826 41.53638382210381  7.389012952210809 40.97409557838322  C 6.302712369481201 39.80161981967261  6.26889289975388 38.00073305669269  7.310406431442608 36.78829834747656  C 8.351942831621262 34.78383206788746  13.697186243858866 32.229120142920955  13.402411790978121 29.006252791424753  C 13.402338016118772 27.637690970976607  12.914637742127521 26.313933084428918  12.026797677534612 25.272443054935245  C 12.005193907368884 25.554662353824277  12.018394151429405 25.83846760112552  12.066100937918712 26.117463153193395  C 11.766232958679659 25.714967889891213  11.54002093448733 25.26254384150655  11.397945511389011 24.78115230013399  C 11.170524756507431 24.533883177558806  10.960409884489103 24.27123958753589  10.769093345243412 23.995087092451993  C 10.670868351455635 24.313123509037727  10.6244217070792 24.64488525458369  10.631531933899062 24.977668602054493  C 10.426555128549143 24.466876409713187  10.287864693525488 23.931927588907644  10.218847699866014 23.385886556498445  C 10.068241740582952 23.680056441107464  9.97487966227564 24.000154995303944  9.94372487717731 24.329164805716843  C 9.702262616731598 23.660944734526883  9.57600815845688 22.956577756783712  9.57034390352836 22.246092005359543  C 8.96226539342474 20.73930068977833  8.732851350092695 19.10641249900318  8.90218847699866 17.49039749888343  C 10.496391000898974 18.378460349787254  12.495943193747301 18.01640151651431  13.677534613666815 16.62572577043323  C 14.011612326931663 16.15408664582403  14.247431889236262 14.798124162572579  13.520321572130417 12.145154086645828  C 12.951143864198276 10.358933693462363  12.248247893791252 8.618116570491692  11.417597141581062 6.937472085752569  L 11.378293881196964 6.9767753461366695  C 11.614113443501564 7.76284055381867  12.105404198302814 9.374274229566772  12.301920500223314 10.179991067440826  C 12.821635906816802 11.558316899673539  12.977305955090133 13.047334752722787  12.753907994640464 14.503349709691829  C 12.518088432335865 15.46627958910228  11.967842786958462 16.09513175524788  10.592228673514963 16.78293881196963  C 9.216614560071463 17.47074586869138  7.349709691826708 15.780705672175081  7.231799910674406 15.68244752121483  C 6.036555001613054 14.735938991169892  5.158931438216182 13.446929382430739  4.716391246092006 11.987941045109427  C 4.598481464939706 11.044662795891023  5.246985261277357 10.474765520321576  5.581062974542208 9.708351942831623  C 5.238277379785652 9.815969058700546  4.903391650952849 9.947296795497724  4.578829834747655 10.101384546672623  C 5.0153398033168815 9.650197632102177  5.488609297421024 9.236086824761053  5.993747208575258 8.863331844573475  C 6.285869945807134 8.668133939557935  6.567905527223571 8.458246995248027  6.838767306833409 8.234479678427872  L 5.934792317999108 8.234479678427872  C 5.934792317999108 8.234479678427872  6.779812416257257 7.80214381420277  7.6248325145154086 7.46806610093792  C 6.995980348369807 7.448414470745871  6.406431442608307 7.46806610093792  6.406431442608307 7.46806610093792  C 6.406431442608307 7.46806610093792  8.234033050468959 6.642697632871821  9.68825368468066 6.0334970969182695  C 10.536227691607863 5.54900273826874  11.611916672261824 5.767502062464076  12.203662349263066 6.544439481911571  C 12.894008030177954 7.611268588685338  14.01169015022539 8.327731486151645  15.269316659222866 8.509602501116573  C 16.075678324126773 8.084988635949482  16.925654003518186 7.748951739445901  17.804376953997316 7.507369361322024  C 18.29974651286767 6.867893270917401  18.978484351538324 6.394833565177251  19.74988834301027 6.151406878070571  C 19.47463075000869 6.423316709088217  19.28943170335754 6.7731371305403805  19.21929432782492 7.153640017865122  C 19.63058828659826 6.829129210358143  20.063971499799376 6.533640655902838  20.516301920500222 6.269316659222871  C 20.316634339603148 6.532162839724412  20.145365074995706 6.815415854267492  20.005359535506923 7.114336757481022  L 20.064314426083076 7.192943278249222  C 20.57009505658906 6.901595338755037  21.095387545817427 6.6455152502562065  21.636444841447073 6.426529700759271  L 21.105850826261726 7.133988387673073  C 21.656096471639124 7.133988387673073  22.756587762393927 7.153640017865121  23.16927199642698 7.212594908441272  C 25.684680661009377 7.271549799017421  26.21527467619473 4.520321572130419  27.178204555605188 4.166592228673519  C 28.396605627512283 3.7342563644484184  28.92719964269764 3.4787851719517677  30.990620812862893 5.50290308173292  C 32.75926753014739 7.251898168825372  34.134881643590894 10.376507369361326  33.44707458686914 11.064314426083078  C 32.8771773112997 11.653863331844578  31.73738276016079 10.828494863778477  30.479678427869587 9.256364448414475  C 29.764623299487205 8.367803938024998  29.28478725359134 7.313516287887609  29.08441268423404 6.190710138454671  C 28.956198816272888 5.543044733955342  28.617696093877687 4.955846133882043  28.121482804823586 4.5203215721304195  C 28.383484453827396 5.117174123663344  28.53655982795564 5.756097424372523  28.573470299240732 6.40687807056722  C 28.537883753024847 7.562532615977294  28.823601440452787 8.705403365689037  29.398838767306838 9.708351942831625  C 29.320232246538637 9.865564984368024  29.28092898615454 10.435462259937475  29.202322465386338 10.553372041089775  C 28.268495007825937 9.695079987260456  27.20795804954276 8.985845896408582  26.05806163465833 8.450647610540422  C 27.825745731429546 9.77057151928833  29.33751896810146 11.402221047854932  30.51898168825369 13.265297007592679  C 31.403305046895934 15.09289861545333  30.892362661902638 16.76328718177758  31.32469852612774 17.195623046002687  C 32.23213652898791 18.24731440379119  32.99240864327814 19.417472353611817  33.584635998213486 20.673961589995535  C 34.06987672433102 22.463986060052388  33.79996438137991 24.37468132989051  32.83787405091559 25.96025011165699  L 30.65654309959804 26.294327824921837  C 30.3717369794109 26.22564529178942  30.095054274928046 26.126830040188395  29.83117463153193 25.99955337204109  C 30.03061794841378 25.64539385081488  30.188861216520287 25.269566089061918  30.302813756141127 24.879410451094238  L 30.184903974988835 24.66324251898169  C 29.428640843326068 25.65337469364237  28.487668432818406 26.4875700930286  27.41402411790978 27.11969629298794  C 26.304408150031954 27.69727810964728  25.010787693159962 27.810381537570514  23.817775792764625 27.434122376060742  C 21.753391024727986 26.716757234129652  19.81638674954564 25.675285757404893  18.07949977668602 24.348816435908887  C 18.07949977668602 24.348816435908887  18.05984814649397 24.722197409557836  18.17775792764627 24.80080393032604  C 19.280000109248853 25.961398861672254  20.51319970903819 26.99016430320775  21.852612773559628 27.866458240285844  L 18.708351942831623 28.220187583742742  L 20.201875837427426 39.83430102724431  C 19.533720410897725 39.93255917820456  19.435462259937474 39.97186243858866  18.728003573023678 40.07012058954892  C 18.279469246912942 38.19821381557887  17.14297475322609 36.56362605614035  15.544439481911567 35.491290754801256  C 14.22507299366151 34.74875486547624  12.674171151819102 34.531207548294724  11.201429209468515 34.88209021884771  L 11.103171058508263 35.00000000000001  C 12.38495897106332 34.85593894897637  13.676988039123543 35.16158023389385  14.758374274229569 35.864671728450205  C 16.057090395997914 36.948612169470856  16.995951742338935 38.40144870541462  17.450647610540422 40.03081732916482  C 18.186112592446403 41.72353693768748  18.000577799829447 43.67536295601788  16.959356855739163 45.19919606967396  C 15.411470487633991 46.82319146869172  12.891004451579786 47.026182021930985  11.10317105850826 45.670835194283164  C 11.595197216579166 46.63455018776808  12.49935693237111 47.32171157176996  13.559624832514515 47.53774006252792  C 15.035371228325051 47.85120689550836  16.57173782198852 47.4341931057997  17.686467172845017 46.41759714158106  C 18.69839880746402 45.02200113526815  19.141063324290922 43.29350159337262  18.92451987494417 41.583296114336754  L 20.319785618579722 41.38677981241626  L 20.83072800357302 44.98302813756141  L 44 42.19249665029031  Z M 27.90531487271104 13.442161679321128  C 28.259044216167936 13.579723090665478  28.00357302367129 13.697632871817778  27.944618133095133 13.854845913354179  C 27.885663242518984 14.012058954890577  27.78740509155873 14.090665475658778  27.924966502903082 14.581956230460026  L 27.924966502903082 14.601607860652077  L 27.944618133095133 14.660562751228227  L 28.003573023671276 14.798124162572577  C 28.210227564801173 15.358914732560434  28.588436643314417 15.840271741577281  29.08441268423403 16.17373827601608  C 29.2208744698234 16.150916682455186  29.358780481948735 16.137782776538486  29.49709691826708 16.13443501563198  C 29.826238028166284 16.10358232189099  30.157789774577534 16.157713219264256  30.460026797677536 16.29164805716838  C 30.478946847001488 16.148364847975778  30.485521567290192 16.00372100162427  30.479678427869587 15.859312192943282  C 30.440375167485495 15.151853506029479  30.617239839213937 13.93345243412238  29.261277355962484 13.284948637784726  C 28.78361632671904 13.04778653370082  28.212928124652375 13.101050765893707  27.787405091558735 13.42251004912908  C 27.826708351942834 13.42251004912908  27.866011612326936 13.442161679321128  27.90531487271104 13.442161679321128  Z M 31.914247431889237 21.912014292094685  C 32.13041536400179 21.32246538633318  32.13041536400179 20.713264850379634  31.776686020544886 20.51674854845913  C 31.24215724071186 20.43404867472921  30.697605386808053 20.44068955099633  30.165252344796787 20.53640017865118  C 29.265573827784845 20.62975685351435  28.388363035606996 20.875641696776324  27.571237159446184 21.263510495757036  C 27.398855031740688 21.419604264393826  27.30051718628309 21.641313318155223  27.30051718628309 21.873866242367136  C 27.30051718628309 22.15015937493356  27.439089155404343 22.408035634226884  27.669495310406436 22.56051808843234  C 28.425086771834206 23.287243649555215  29.431334929511564 23.69537227294883  30.479678427869587 23.700312639571237  C 31.049575703439036 23.62170611880304  31.540866458240288 22.717731129968737  31.914247431889237 21.912014292094685  Z M 22.12773559624833 16.19338990620813  C 22.029477445288073 15.151853506029477  21.223760607414025 15.309066547565877  21.832961143367573 14.739169271996428  C 22.147387226440372 14.44439481911568  20.26083072800357 14.031710585082628  18.78695846359982 15.053595355069229  C 18.26117605662481 15.43511528099285  17.94997921365577 16.045419303800177  17.94997921365577 16.695038109994393  C 17.94997921365577 17.309884358745865  18.228909213752704 17.891533389499145  18.708351942831623 18.276462706565432  C 18.788675622323073 18.356596566321464  18.881621542672796 18.422986509428412  18.98347476552032 18.47297900848593  C 19.84858368503018 18.069314659350514  20.7693563050017 17.797719857776183  21.71505136221528 17.66726217061188  C 22.052034651220318 17.254969121814284  22.20162255082955 16.720726623209885  22.12773559624833 16.19338990620813  Z " fill-rule="nonzero" fill="rgba(99, 44, 166, 1)" stroke="none" class="fill" />
    <path d="M 39.7945511389013 27.610987047789195  L 36.80750334970969 33.87985707905315  L 32.89682894149174 31.285841893702546  L 29.634658329611437 36.74899508709246  L 25.841893702545782 35.628852166145606  L 22.501116569897277 40.738276016078615  L 22.677981241625726 42.34970969182672  L 40.85573916927199 38.98928092898616  L 39.7945511389013 27.610987047789195  Z " stroke-width="0" stroke-dasharray="0" stroke="rgba(255, 255, 255, 0)" fill="none" class="stroke" mask="url(#Clip6802)" />
    <path d="M 21.616793211255025 43.76462706565432  L 19.84814649397052 28.96694953104064  L 22.756587762393927 28.573916927199644  C 23.192338991928455 28.764716029307152  23.646778256566726 28.909609707887476  24.112550245645373 29.00625279142475  C 25.24598816310507 29.3857396642518  26.486708451196264 29.271650442358357  27.531933899062086 28.691826708351947  C 28.05450251854133 28.35637462792475  28.519093989041487 27.938242304474606  28.907548012505583 27.453774006252793  L 40.85573916927199 25.272443054935238  L 42.0741402411791 40.070120589548914  L 21.616793211255025 43.76462706565432  Z " stroke-width="0" stroke-dasharray="0" stroke="rgba(255, 255, 255, 0)" fill="none" class="stroke" mask="url(#Clip6802)" />
    <path d="M 44 42.19249665029031  L 42.034836980795 23.641357748995084  L 40.85573916927199 23.857525681107635  L 38.595801697186246 0.39347923179991207  L 0 4.874050915587317  L 4.755694506476106 43.56811076373381  L 9.275569450647613 42.91960696739617  C 8.735451690924116 42.19058619131047  8.101073635935826 41.53638382210381  7.389012952210809 40.97409557838322  C 6.302712369481201 39.80161981967261  6.26889289975388 38.00073305669269  7.310406431442608 36.78829834747656  C 8.351942831621262 34.78383206788746  13.697186243858866 32.229120142920955  13.402411790978121 29.006252791424753  C 13.402338016118772 27.637690970976607  12.914637742127521 26.313933084428918  12.026797677534612 25.272443054935245  C 12.005193907368884 25.554662353824277  12.018394151429405 25.83846760112552  12.066100937918712 26.117463153193395  C 11.766232958679659 25.714967889891213  11.54002093448733 25.26254384150655  11.397945511389011 24.78115230013399  C 11.170524756507431 24.533883177558806  10.960409884489103 24.27123958753589  10.769093345243412 23.995087092451993  C 10.670868351455635 24.313123509037727  10.6244217070792 24.64488525458369  10.631531933899062 24.977668602054493  C 10.426555128549143 24.466876409713187  10.287864693525488 23.931927588907644  10.218847699866014 23.385886556498445  C 10.068241740582952 23.680056441107464  9.97487966227564 24.000154995303944  9.94372487717731 24.329164805716843  C 9.702262616731598 23.660944734526883  9.57600815845688 22.956577756783712  9.57034390352836 22.246092005359543  C 8.96226539342474 20.73930068977833  8.732851350092695 19.10641249900318  8.90218847699866 17.49039749888343  C 10.496391000898974 18.378460349787254  12.495943193747301 18.01640151651431  13.677534613666815 16.62572577043323  C 14.011612326931663 16.15408664582403  14.247431889236262 14.798124162572579  13.520321572130417 12.145154086645828  C 12.951143864198276 10.358933693462363  12.248247893791252 8.618116570491692  11.417597141581062 6.937472085752569  L 11.378293881196964 6.9767753461366695  C 11.614113443501564 7.76284055381867  12.105404198302814 9.374274229566772  12.301920500223314 10.179991067440826  C 12.821635906816802 11.558316899673539  12.977305955090133 13.047334752722787  12.753907994640464 14.503349709691829  C 12.518088432335865 15.46627958910228  11.967842786958462 16.09513175524788  10.592228673514963 16.78293881196963  C 9.216614560071463 17.47074586869138  7.349709691826708 15.780705672175081  7.231799910674406 15.68244752121483  C 6.036555001613054 14.735938991169892  5.158931438216182 13.446929382430739  4.716391246092006 11.987941045109427  C 4.598481464939706 11.044662795891023  5.246985261277357 10.474765520321576  5.581062974542208 9.708351942831623  C 5.238277379785652 9.815969058700546  4.903391650952849 9.947296795497724  4.578829834747655 10.101384546672623  C 5.0153398033168815 9.650197632102177  5.488609297421024 9.236086824761053  5.993747208575258 8.863331844573475  C 6.285869945807134 8.668133939557935  6.567905527223571 8.458246995248027  6.838767306833409 8.234479678427872  L 5.934792317999108 8.234479678427872  C 5.934792317999108 8.234479678427872  6.779812416257257 7.80214381420277  7.6248325145154086 7.46806610093792  C 6.995980348369807 7.448414470745871  6.406431442608307 7.46806610093792  6.406431442608307 7.46806610093792  C 6.406431442608307 7.46806610093792  8.234033050468959 6.642697632871821  9.68825368468066 6.0334970969182695  C 10.536227691607863 5.54900273826874  11.611916672261824 5.767502062464076  12.203662349263066 6.544439481911571  C 12.894008030177954 7.611268588685338  14.01169015022539 8.327731486151645  15.269316659222866 8.509602501116573  C 16.075678324126773 8.084988635949482  16.925654003518186 7.748951739445901  17.804376953997316 7.507369361322024  C 18.29974651286767 6.867893270917401  18.978484351538324 6.394833565177251  19.74988834301027 6.151406878070571  C 19.47463075000869 6.423316709088217  19.28943170335754 6.7731371305403805  19.21929432782492 7.153640017865122  C 19.63058828659826 6.829129210358143  20.063971499799376 6.533640655902838  20.516301920500222 6.269316659222871  C 20.316634339603148 6.532162839724412  20.145365074995706 6.815415854267492  20.005359535506923 7.114336757481022  L 20.064314426083076 7.192943278249222  C 20.57009505658906 6.901595338755037  21.095387545817427 6.6455152502562065  21.636444841447073 6.426529700759271  L 21.105850826261726 7.133988387673073  C 21.656096471639124 7.133988387673073  22.756587762393927 7.153640017865121  23.16927199642698 7.212594908441272  C 25.684680661009377 7.271549799017421  26.21527467619473 4.520321572130419  27.178204555605188 4.166592228673519  C 28.396605627512283 3.7342563644484184  28.92719964269764 3.4787851719517677  30.990620812862893 5.50290308173292  C 32.75926753014739 7.251898168825372  34.134881643590894 10.376507369361326  33.44707458686914 11.064314426083078  C 32.8771773112997 11.653863331844578  31.73738276016079 10.828494863778477  30.479678427869587 9.256364448414475  C 29.764623299487205 8.367803938024998  29.28478725359134 7.313516287887609  29.08441268423404 6.190710138454671  C 28.956198816272888 5.543044733955342  28.617696093877687 4.955846133882043  28.121482804823586 4.5203215721304195  C 28.383484453827396 5.117174123663344  28.53655982795564 5.756097424372523  28.573470299240732 6.40687807056722  C 28.537883753024847 7.562532615977294  28.823601440452787 8.705403365689037  29.398838767306838 9.708351942831625  C 29.320232246538637 9.865564984368024  29.28092898615454 10.435462259937475  29.202322465386338 10.553372041089775  C 28.268495007825937 9.695079987260456  27.20795804954276 8.985845896408582  26.05806163465833 8.450647610540422  C 27.825745731429546 9.77057151928833  29.33751896810146 11.402221047854932  30.51898168825369 13.265297007592679  C 31.403305046895934 15.09289861545333  30.892362661902638 16.76328718177758  31.32469852612774 17.195623046002687  C 32.23213652898791 18.24731440379119  32.99240864327814 19.417472353611817  33.584635998213486 20.673961589995535  C 34.06987672433102 22.463986060052388  33.79996438137991 24.37468132989051  32.83787405091559 25.96025011165699  L 30.65654309959804 26.294327824921837  C 30.3717369794109 26.22564529178942  30.095054274928046 26.126830040188395  29.83117463153193 25.99955337204109  C 30.03061794841378 25.64539385081488  30.188861216520287 25.269566089061918  30.302813756141127 24.879410451094238  L 30.184903974988835 24.66324251898169  C 29.428640843326068 25.65337469364237  28.487668432818406 26.4875700930286  27.41402411790978 27.11969629298794  C 26.304408150031954 27.69727810964728  25.010787693159962 27.810381537570514  23.817775792764625 27.434122376060742  C 21.753391024727986 26.716757234129652  19.81638674954564 25.675285757404893  18.07949977668602 24.348816435908887  C 18.07949977668602 24.348816435908887  18.05984814649397 24.722197409557836  18.17775792764627 24.80080393032604  C 19.280000109248853 25.961398861672254  20.51319970903819 26.99016430320775  21.852612773559628 27.866458240285844  L 18.708351942831623 28.220187583742742  L 20.201875837427426 39.83430102724431  C 19.533720410897725 39.93255917820456  19.435462259937474 39.97186243858866  18.728003573023678 40.07012058954892  C 18.279469246912942 38.19821381557887  17.14297475322609 36.56362605614035  15.544439481911567 35.491290754801256  C 14.22507299366151 34.74875486547624  12.674171151819102 34.531207548294724  11.201429209468515 34.88209021884771  L 11.103171058508263 35.00000000000001  C 12.38495897106332 34.85593894897637  13.676988039123543 35.16158023389385  14.758374274229569 35.864671728450205  C 16.057090395997914 36.948612169470856  16.995951742338935 38.40144870541462  17.450647610540422 40.03081732916482  C 18.186112592446403 41.72353693768748  18.000577799829447 43.67536295601788  16.959356855739163 45.19919606967396  C 15.411470487633991 46.82319146869172  12.891004451579786 47.026182021930985  11.10317105850826 45.670835194283164  C 11.595197216579166 46.63455018776808  12.49935693237111 47.32171157176996  13.559624832514515 47.53774006252792  C 15.035371228325051 47.85120689550836  16.57173782198852 47.4341931057997  17.686467172845017 46.41759714158106  C 18.69839880746402 45.02200113526815  19.141063324290922 43.29350159337262  18.92451987494417 41.583296114336754  L 20.319785618579722 41.38677981241626  L 20.83072800357302 44.98302813756141  L 44 42.19249665029031  Z " stroke-width="0" stroke-dasharray="0" stroke="rgba(255, 255, 255, 0)" fill="none" class="stroke" mask="url(#Clip6802)" />
    <path d="M 27.90531487271104 13.442161679321128  C 28.259044216167936 13.579723090665478  28.00357302367129 13.697632871817778  27.944618133095133 13.854845913354179  C 27.885663242518984 14.012058954890577  27.78740509155873 14.090665475658778  27.924966502903082 14.581956230460026  L 27.924966502903082 14.601607860652077  L 27.944618133095133 14.660562751228227  L 28.003573023671276 14.798124162572577  C 28.210227564801173 15.358914732560434  28.588436643314417 15.840271741577281  29.08441268423403 16.17373827601608  C 29.2208744698234 16.150916682455186  29.358780481948735 16.137782776538486  29.49709691826708 16.13443501563198  C 29.826238028166284 16.10358232189099  30.157789774577534 16.157713219264256  30.460026797677536 16.29164805716838  C 30.478946847001488 16.148364847975778  30.485521567290192 16.00372100162427  30.479678427869587 15.859312192943282  C 30.440375167485495 15.151853506029479  30.617239839213937 13.93345243412238  29.261277355962484 13.284948637784726  C 28.78361632671904 13.04778653370082  28.212928124652375 13.101050765893707  27.787405091558735 13.42251004912908  C 27.826708351942834 13.42251004912908  27.866011612326936 13.442161679321128  27.90531487271104 13.442161679321128  Z " stroke-width="0" stroke-dasharray="0" stroke="rgba(255, 255, 255, 0)" fill="none" class="stroke" mask="url(#Clip6802)" />
    <path d="M 31.914247431889237 21.912014292094685  C 32.13041536400179 21.32246538633318  32.13041536400179 20.713264850379634  31.776686020544886 20.51674854845913  C 31.24215724071186 20.43404867472921  30.697605386808053 20.44068955099633  30.165252344796787 20.53640017865118  C 29.265573827784845 20.62975685351435  28.388363035606996 20.875641696776324  27.571237159446184 21.263510495757036  C 27.398855031740688 21.419604264393826  27.30051718628309 21.641313318155223  27.30051718628309 21.873866242367136  C 27.30051718628309 22.15015937493356  27.439089155404343 22.408035634226884  27.669495310406436 22.56051808843234  C 28.425086771834206 23.287243649555215  29.431334929511564 23.69537227294883  30.479678427869587 23.700312639571237  C 31.049575703439036 23.62170611880304  31.540866458240288 22.717731129968737  31.914247431889237 21.912014292094685  Z " stroke-width="0" stroke-dasharray="0" stroke="rgba(255, 255, 255, 0)" fill="none" class="stroke" mask="url(#Clip6802)" />
    <path d="M 22.12773559624833 16.19338990620813  C 22.029477445288073 15.151853506029477  21.223760607414025 15.309066547565877  21.832961143367573 14.739169271996428  C 22.147387226440372 14.44439481911568  20.26083072800357 14.031710585082628  18.78695846359982 15.053595355069229  C 18.26117605662481 15.43511528099285  17.94997921365577 16.045419303800177  17.94997921365577 16.695038109994393  C 17.94997921365577 17.309884358745865  18.228909213752704 17.891533389499145  18.708351942831623 18.276462706565432  C 18.788675622323073 18.356596566321464  18.881621542672796 18.422986509428412  18.98347476552032 18.47297900848593  C 19.84858368503018 18.069314659350514  20.7693563050017 17.797719857776183  21.71505136221528 17.66726217061188  C 22.052034651220318 17.254969121814284  22.20162255082955 16.720726623209885  22.12773559624833 16.19338990620813  Z " stroke-width="0" stroke-dasharray="0" stroke="rgba(255, 255, 255, 0)" fill="none" class="stroke" mask="url(#Clip6802)" />
  </g>
</svg>