<?xml version="1.0" encoding="utf-8"?>
<svg version="1.1" xmlns:xlink="http://www.w3.org/1999/xlink" width="28px" height="28px" xmlns="http://www.w3.org/2000/svg">
  <defs>
    <pattern id="BGPattern" patternUnits="userSpaceOnUse" alignment="0 0" imageRepeat="None" />
    <mask fill="white" id="Clip3537">
      <path d="M 28 14  C 28 6.268013502368892  21.73198649763111 0  14 0  C 6.268013502368892 0  0 6.268013502368892  0 14  C 0 21.73198649763111  6.268013502368892 28  14 28  C 21.73198649763111 28  28 21.73198649763111  28 14  Z M 25.999999999999996 14  C 25.999999999999996 20.62741699796952  20.62741699796952 25.999999999999996  14 25.999999999999996  C 7.372583002030475 25.999999999999996  1.9999999999999971 20.62741699796952  1.9999999999999971 13.999999999999996  C 1.9999999999999971 7.372583002030475  7.372583002030475 1.9999999999999971  13.999999999999996 1.9999999999999971  C 20.62741699796952 1.9999999999999971  25.999999999999996 7.372583002030475  25.999999999999996 13.999999999999996  Z " fill-rule="evenodd" />
    </mask>
  </defs>
  <g transform="matrix(1 0 0 1 -2 -2 )">
    <path d="M 28 14  C 28 6.268013502368892  21.73198649763111 0  14 0  C 6.268013502368892 0  0 6.268013502368892  0 14  C 0 21.73198649763111  6.268013502368892 28  14 28  C 21.73198649763111 28  28 21.73198649763111  28 14  Z M 25.999999999999996 14  C 25.999999999999996 20.62741699796952  20.62741699796952 25.999999999999996  14 25.999999999999996  C 7.372583002030475 25.999999999999996  1.9999999999999971 20.62741699796952  1.9999999999999971 13.999999999999996  C 1.9999999999999971 7.372583002030475  7.372583002030475 1.9999999999999971  13.999999999999996 1.9999999999999971  C 20.62741699796952 1.9999999999999971  25.999999999999996 7.372583002030475  25.999999999999996 13.999999999999996  Z " fill-rule="nonzero" fill="rgba(0, 0, 0, 1)" stroke="none" transform="matrix(1 0 0 1 2 2 )" class="fill" />
    <path d="M 28 14  C 28 6.268013502368892  21.73198649763111 0  14 0  C 6.268013502368892 0  0 6.268013502368892  0 14  C 0 21.73198649763111  6.268013502368892 28  14 28  C 21.73198649763111 28  28 21.73198649763111  28 14  Z " stroke-width="0" stroke-dasharray="0" stroke="rgba(255, 255, 255, 0)" fill="none" transform="matrix(1 0 0 1 2 2 )" class="stroke" mask="url(#Clip3537)" />
    <path d="M 25.999999999999996 14  C 25.999999999999996 20.62741699796952  20.62741699796952 25.999999999999996  14 25.999999999999996  C 7.372583002030475 25.999999999999996  1.9999999999999971 20.62741699796952  1.9999999999999971 13.999999999999996  C 1.9999999999999971 7.372583002030475  7.372583002030475 1.9999999999999971  13.999999999999996 1.9999999999999971  C 20.62741699796952 1.9999999999999971  25.999999999999996 7.372583002030475  25.999999999999996 13.999999999999996  Z " stroke-width="0" stroke-dasharray="0" stroke="rgba(255, 255, 255, 0)" fill="none" transform="matrix(1 0 0 1 2 2 )" class="stroke" mask="url(#Clip3537)" />
  </g>
</svg>