<?xml version="1.0" encoding="utf-8"?>
<svg version="1.1" xmlns:xlink="http://www.w3.org/1999/xlink" width="22px" height="22px" xmlns="http://www.w3.org/2000/svg">
  <defs>
    <pattern id="BGPattern" patternUnits="userSpaceOnUse" alignment="0 0" imageRepeat="None" />
    <mask fill="white" id="Clip3667">
      <path d="M 22 10.999999999999998  C 22 17.075132248138726  17.07513224813873 22  11 22  C 4.924867751861273 22  0 17.075132248138726  0 11.000000000000002  C 0 4.924867751861274  4.924867751861273 0  11 0  C 11.552284749830793 0  12 0.44771525016920666  12 0.9999999999999999  L 12 9.999999999999998  L 21 9.999999999999998  C 21.552284749830793 9.999999999999998  22 10.447715250169205  22 10.999999999999998  Z M 10 9.999999999999998  L 10 2.06  C 5.442679694412572 2.5670436214127696  1.995191828528073 6.419367996119632  1.995191828528073 11.004808171471929  C 1.995191828528073 15.97537091994906  6.024629080050932 20.004808171471925  10.995191828528073 20.004808171471925  C 15.58063200388036 20.004808171471925  19.43295637858723 16.55732030558742  19.94 12  L 12 12  C 10.895430500338414 12  10 11.104569499661583  10 9.999999999999998  Z " fill-rule="evenodd" />
    </mask>
  </defs>
  <g transform="matrix(1 0 0 1 -2 -8 )">
    <path d="M 22 10.999999999999998  C 22 17.075132248138726  17.07513224813873 22  11 22  C 4.924867751861273 22  0 17.075132248138726  0 11.000000000000002  C 0 4.924867751861274  4.924867751861273 0  11 0  C 11.552284749830793 0  12 0.44771525016920666  12 0.9999999999999999  L 12 9.999999999999998  L 21 9.999999999999998  C 21.552284749830793 9.999999999999998  22 10.447715250169205  22 10.999999999999998  Z M 10 9.999999999999998  L 10 2.06  C 5.442679694412572 2.5670436214127696  1.995191828528073 6.419367996119632  1.995191828528073 11.004808171471929  C 1.995191828528073 15.97537091994906  6.024629080050932 20.004808171471925  10.995191828528073 20.004808171471925  C 15.58063200388036 20.004808171471925  19.43295637858723 16.55732030558742  19.94 12  L 12 12  C 10.895430500338414 12  10 11.104569499661583  10 9.999999999999998  Z " fill-rule="nonzero" fill="rgba(0, 0, 0, 1)" stroke="none" transform="matrix(1 0 0 1 2 8 )" class="fill" />
    <path d="M 22 10.999999999999998  C 22 17.075132248138726  17.07513224813873 22  11 22  C 4.924867751861273 22  0 17.075132248138726  0 11.000000000000002  C 0 4.924867751861274  4.924867751861273 0  11 0  C 11.552284749830793 0  12 0.44771525016920666  12 0.9999999999999999  L 12 9.999999999999998  L 21 9.999999999999998  C 21.552284749830793 9.999999999999998  22 10.447715250169205  22 10.999999999999998  Z " stroke-width="0" stroke-dasharray="0" stroke="rgba(255, 255, 255, 0)" fill="none" transform="matrix(1 0 0 1 2 8 )" class="stroke" mask="url(#Clip3667)" />
    <path d="M 10 9.999999999999998  L 10 2.06  C 5.442679694412572 2.5670436214127696  1.995191828528073 6.419367996119632  1.995191828528073 11.004808171471929  C 1.995191828528073 15.97537091994906  6.024629080050932 20.004808171471925  10.995191828528073 20.004808171471925  C 15.58063200388036 20.004808171471925  19.43295637858723 16.55732030558742  19.94 12  L 12 12  C 10.895430500338414 12  10 11.104569499661583  10 9.999999999999998  Z " stroke-width="0" stroke-dasharray="0" stroke="rgba(255, 255, 255, 0)" fill="none" transform="matrix(1 0 0 1 2 8 )" class="stroke" mask="url(#Clip3667)" />
  </g>
</svg>