<?xml version="1.0" encoding="utf-8"?>
<svg version="1.1" xmlns:xlink="http://www.w3.org/1999/xlink" width="24px" height="12px" xmlns="http://www.w3.org/2000/svg">
  <defs>
    <pattern id="BGPattern" patternUnits="userSpaceOnUse" alignment="0 0" imageRepeat="None" />
    <mask fill="white" id="Clip6509">
      <path d="M 19.9395 0  L 4.060499999999999 0  C 3.6627077797817784 8.495610824255095E-05  3.281239097036187 0.15817593778357253  3 0.43950000000000067  L 0.4395 3  C 0.15817593778357186 3.281239097036188  8.495610824280624E-05 3.662707779781776  0 4.060499999999999  L 0 10.5  C 0 11.328427124746192  0.6715728752538098 12  1.5 12  L 22.5 12  C 23.32842712474619 12  24 11.328427124746192  24 10.5  L 24 4.060499999999999  C 23.999915043891757 3.662707779781778  23.84182406221643 3.281239097036188  23.5605 3  L 21 0.43950000000000067  C 20.718760902963812 0.15817593778357253  20.33729222021822 8.495610824166278E-05  19.9395 0  Z M 1.5 4.060499999999999  L 4.060499999999999 1.5  L 19.9395 1.5  L 22.5 4.060499999999999  L 22.5 10.5  L 1.5 10.5  L 1.5 4.060499999999999  Z " fill-rule="evenodd" />
    </mask>
  </defs>
  <g>
    <path d="M 19.9395 0  L 4.060499999999999 0  C 3.6627077797817784 8.495610824255095E-05  3.281239097036187 0.15817593778357253  3 0.43950000000000067  L 0.4395 3  C 0.15817593778357186 3.281239097036188  8.495610824280624E-05 3.662707779781776  0 4.060499999999999  L 0 10.5  C 0 11.328427124746192  0.6715728752538098 12  1.5 12  L 22.5 12  C 23.32842712474619 12  24 11.328427124746192  24 10.5  L 24 4.060499999999999  C 23.999915043891757 3.662707779781778  23.84182406221643 3.281239097036188  23.5605 3  L 21 0.43950000000000067  C 20.718760902963812 0.15817593778357253  20.33729222021822 8.495610824166278E-05  19.9395 0  Z M 1.5 4.060499999999999  L 4.060499999999999 1.5  L 19.9395 1.5  L 22.5 4.060499999999999  L 22.5 10.5  L 1.5 10.5  L 1.5 4.060499999999999  Z " fill-rule="nonzero" fill="rgba(0, 0, 0, 1)" stroke="none" class="fill" />
    <path d="M 19.9395 0  L 4.060499999999999 0  C 3.6627077797817784 8.495610824255095E-05  3.281239097036187 0.15817593778357253  3 0.43950000000000067  L 0.4395 3  C 0.15817593778357186 3.281239097036188  8.495610824280624E-05 3.662707779781776  0 4.060499999999999  L 0 10.5  C 0 11.328427124746192  0.6715728752538098 12  1.5 12  L 22.5 12  C 23.32842712474619 12  24 11.328427124746192  24 10.5  L 24 4.060499999999999  C 23.999915043891757 3.662707779781778  23.84182406221643 3.281239097036188  23.5605 3  L 21 0.43950000000000067  C 20.718760902963812 0.15817593778357253  20.33729222021822 8.495610824166278E-05  19.9395 0  Z " stroke-width="0" stroke-dasharray="0" stroke="rgba(255, 255, 255, 0)" fill="none" class="stroke" mask="url(#Clip6509)" />
    <path d="M 1.5 4.060499999999999  L 4.060499999999999 1.5  L 19.9395 1.5  L 22.5 4.060499999999999  L 22.5 10.5  L 1.5 10.5  L 1.5 4.060499999999999  Z " stroke-width="0" stroke-dasharray="0" stroke="rgba(255, 255, 255, 0)" fill="none" class="stroke" mask="url(#Clip6509)" />
  </g>
</svg>