<?xml version="1.0" encoding="utf-8"?>
<svg version="1.1" xmlns:xlink="http://www.w3.org/1999/xlink" width="18px" height="24px" xmlns="http://www.w3.org/2000/svg">
  <defs>
    <pattern id="BGPattern" patternUnits="userSpaceOnUse" alignment="0 0" imageRepeat="None" />
    <mask fill="white" id="Clip5539">
      <path d="M 0 3  C 0 1.3431457505076196  1.3431457505076194 0  3 0  L 15 0  C 16.65685424949238 0  18 1.3431457505076196  18 3  L 18 21  C 18 22.65685424949238  16.65685424949238 24  15 24  L 3 24  C 1.3431457505076194 24  0 22.65685424949238  0 21  L 0 3  Z " fill-rule="evenodd" />
    </mask>
  </defs>
  <g>
    <path d="M 0 3  C 0 1.3431457505076196  1.3431457505076194 0  3 0  L 15 0  C 16.65685424949238 0  18 1.3431457505076196  18 3  L 18 21  C 18 22.65685424949238  16.65685424949238 24  15 24  L 3 24  C 1.3431457505076194 24  0 22.65685424949238  0 21  L 0 3  Z " fill-rule="nonzero" fill="rgba(0, 0, 0, 1)" stroke="none" class="fill" />
    <path d="M 0 3  C 0 1.3431457505076196  1.3431457505076194 0  3 0  L 15 0  C 16.65685424949238 0  18 1.3431457505076196  18 3  L 18 21  C 18 22.65685424949238  16.65685424949238 24  15 24  L 3 24  C 1.3431457505076194 24  0 22.65685424949238  0 21  L 0 3  Z " stroke-width="0" stroke-dasharray="0" stroke="rgba(255, 255, 255, 0)" fill="none" class="stroke" mask="url(#Clip5539)" />
  </g>
</svg>