<?xml version="1.0" encoding="utf-8"?>
<svg version="1.1" xmlns:xlink="http://www.w3.org/1999/xlink" width="49px" height="42px" xmlns="http://www.w3.org/2000/svg">
  <defs>
    <pattern id="BGPattern" patternUnits="userSpaceOnUse" alignment="0 0" imageRepeat="None" />
    <mask fill="white" id="Clip7526">
      <path d="M 47.97999999999999 9.811999999999998  L 47.954 9.832  C 47.744 14.508000000000003  44.476 20.918  38.166 29.05  C 31.629999999999992 37.544  26.114 41.79  21.586 41.79  C 18.767999999999997 41.79  16.43 39.202  14.48 34.028  L 10.644 19.8  C 9.206 14.632000000000001  7.668 12.044  6.02 12.044  C 5.662 12.044  4.4079999999999995 12.8  2.2579999999999996 14.308  L 0 11.394  C 2.37 9.306000000000001  4.702 7.225999999999999  7.002 5.138  C 10.16 2.402  12.531999999999998 0.968  14.110000000000001 0.8199999999999998  C 17.844 0.45999999999999996  20.142 3.019999999999999  21.003999999999998 8.496  C 21.933999999999997 14.402000000000001  22.581999999999997 18.073999999999998  22.945999999999998 19.509999999999998  C 24.023999999999997 24.409999999999997  25.207999999999995 26.857999999999997  26.497999999999994 26.857999999999997  C 27.502 26.857999999999997  29.009999999999998 25.266  31.028000000000002 22.087999999999997  C 33.036 18.909999999999997  34.108 16.493999999999996  34.251999999999995 14.831999999999997  C 34.53999999999999 12.089999999999996  33.461999999999996 10.709999999999997  31.023999999999994 10.709999999999997  C 29.87599999999999 10.709999999999997  28.689999999999994 10.951999999999996  27.47 11.491999999999997  C 29.841999999999995 3.7559999999999976  34.337999999999994 -0.022000000000002018  40.99399999999999 0.2179999999999982  C 45.93999999999999 0.3379999999999983  48.24999999999999 3.5459999999999976  47.97999999999999 9.811999999999998  Z " fill-rule="evenodd" />
    </mask>
  </defs>
  <g>
    <path d="M 47.97999999999999 9.811999999999998  L 47.954 9.832  C 47.744 14.508000000000003  44.476 20.918  38.166 29.05  C 31.629999999999992 37.544  26.114 41.79  21.586 41.79  C 18.767999999999997 41.79  16.43 39.202  14.48 34.028  L 10.644 19.8  C 9.206 14.632000000000001  7.668 12.044  6.02 12.044  C 5.662 12.044  4.4079999999999995 12.8  2.2579999999999996 14.308  L 0 11.394  C 2.37 9.306000000000001  4.702 7.225999999999999  7.002 5.138  C 10.16 2.402  12.531999999999998 0.968  14.110000000000001 0.8199999999999998  C 17.844 0.45999999999999996  20.142 3.019999999999999  21.003999999999998 8.496  C 21.933999999999997 14.402000000000001  22.581999999999997 18.073999999999998  22.945999999999998 19.509999999999998  C 24.023999999999997 24.409999999999997  25.207999999999995 26.857999999999997  26.497999999999994 26.857999999999997  C 27.502 26.857999999999997  29.009999999999998 25.266  31.028000000000002 22.087999999999997  C 33.036 18.909999999999997  34.108 16.493999999999996  34.251999999999995 14.831999999999997  C 34.53999999999999 12.089999999999996  33.461999999999996 10.709999999999997  31.023999999999994 10.709999999999997  C 29.87599999999999 10.709999999999997  28.689999999999994 10.951999999999996  27.47 11.491999999999997  C 29.841999999999995 3.7559999999999976  34.337999999999994 -0.022000000000002018  40.99399999999999 0.2179999999999982  C 45.93999999999999 0.3379999999999983  48.24999999999999 3.5459999999999976  47.97999999999999 9.811999999999998  Z " fill-rule="nonzero" fill="rgba(26, 183, 234, 1)" stroke="none" class="fill" />
    <path d="M 47.97999999999999 9.811999999999998  L 47.954 9.832  C 47.744 14.508000000000003  44.476 20.918  38.166 29.05  C 31.629999999999992 37.544  26.114 41.79  21.586 41.79  C 18.767999999999997 41.79  16.43 39.202  14.48 34.028  L 10.644 19.8  C 9.206 14.632000000000001  7.668 12.044  6.02 12.044  C 5.662 12.044  4.4079999999999995 12.8  2.2579999999999996 14.308  L 0 11.394  C 2.37 9.306000000000001  4.702 7.225999999999999  7.002 5.138  C 10.16 2.402  12.531999999999998 0.968  14.110000000000001 0.8199999999999998  C 17.844 0.45999999999999996  20.142 3.019999999999999  21.003999999999998 8.496  C 21.933999999999997 14.402000000000001  22.581999999999997 18.073999999999998  22.945999999999998 19.509999999999998  C 24.023999999999997 24.409999999999997  25.207999999999995 26.857999999999997  26.497999999999994 26.857999999999997  C 27.502 26.857999999999997  29.009999999999998 25.266  31.028000000000002 22.087999999999997  C 33.036 18.909999999999997  34.108 16.493999999999996  34.251999999999995 14.831999999999997  C 34.53999999999999 12.089999999999996  33.461999999999996 10.709999999999997  31.023999999999994 10.709999999999997  C 29.87599999999999 10.709999999999997  28.689999999999994 10.951999999999996  27.47 11.491999999999997  C 29.841999999999995 3.7559999999999976  34.337999999999994 -0.022000000000002018  40.99399999999999 0.2179999999999982  C 45.93999999999999 0.3379999999999983  48.24999999999999 3.5459999999999976  47.97999999999999 9.811999999999998  Z " stroke-width="0" stroke-dasharray="0" stroke="rgba(255, 255, 255, 0)" fill="none" class="stroke" mask="url(#Clip7526)" />
  </g>
</svg>