<?xml version="1.0" encoding="utf-8"?>
<svg version="1.1" xmlns:xlink="http://www.w3.org/1999/xlink" width="64px" height="51px" xmlns="http://www.w3.org/2000/svg">
  <defs>
    <pattern id="BGPattern" patternUnits="userSpaceOnUse" alignment="0 0" imageRepeat="None" />
    <mask fill="white" id="Clip1889">
      <path d="M 64 32.611111111111114  C 64 14.244444444444444  48.44444444444444 -0.5666666666666678  29.81111111111111 0.6888888888888904  C 12.822222222222223 1.8222222222222237  0 16.711111111111112  0 33.74444444444444  L 0 48.61111111111111  C 0 49.58888888888889  0.7999999999999999 50.388888888888886  1.7777777777777777 50.388888888888886  L 5.333333333333333 50.388888888888886  C 6.31111111111111 50.388888888888886  7.111111111111111 49.58888888888889  8 48.61111111111111  L 8 32.611111111111114  C 7.111111111111111 17.811111111111114  20.099999999999998 5.977777777777778  35.27777777777778 7.9333333333333345  C 47.822222222222216 9.544444444444446  56.888888888888886 20.833333333333332  56 33.47777777777778  L 56 48.61111111111111  C 56.888888888888886 49.58888888888889  57.68888888888889 50.388888888888886  58.666666666666664 50.388888888888886  L 62.22222222222222 50.388888888888886  C 63.19999999999999 50.388888888888886  64 49.58888888888889  64 48.61111111111111  L 64 32.611111111111114  Z M 53 32.611111111111114  C 53.33333333333333 19.922222222222224  42.199999999999996 9.78888888888889  29.188888888888886 11.45555555555556  C 18.444444444444443 12.833333333333332  10.666666666666666 22.51111111111111  11 33.355555555555554  L 11 48.61111111111111  C 10.666666666666666 49.58888888888889  11.466666666666667 50.388888888888886  12.444444444444443 50.388888888888886  L 16 50.388888888888886  C 16.977777777777778 50.388888888888886  17.77777777777778 49.58888888888889  18 48.61111111111111  L 18 32.611111111111114  C 17.77777777777778 24.299999999999997  24.944444444444443 17.633333333333333  33.422222222222224 18.455555555555556  C 40.81111111111111 19.177777777777777  46.22222222222222 25.811111111111114  46 33.24444444444444  L 46 48.61111111111111  C 46.22222222222222 49.58888888888889  47.02222222222222 50.388888888888886  48 50.388888888888886  L 51.55555555555555 50.388888888888886  C 52.53333333333333 50.388888888888886  53.33333333333333 49.58888888888889  53 48.61111111111111  L 53 32.611111111111114  Z M 42 32.611111111111114  C 42.666666666666664 26.03333333333334  36.68888888888888 20.833333333333332  29.877777777777773 22.15555555555556  C 24.811111111111106 23.14444444444445  21.33333333333333 27.877777777777784  22 33.03333333333334  L 22 48.61111111111111  C 21.33333333333333 49.58888888888889  22.13333333333333 50.388888888888886  23.111111111111107 50.388888888888886  L 26.66666666666666 50.388888888888886  C 27.644444444444442 50.388888888888886  28.44444444444444 49.58888888888889  29 48.61111111111111  L 29 32.611111111111114  C 28.44444444444444 30.65555555555555  30.033333333333328 29.055555555555557  32 29.055555555555557  C 33.96666666666667 29.055555555555557  35.55555555555556 30.65555555555555  35 32.611111111111114  L 35 48.61111111111111  C 35.55555555555556 49.58888888888889  36.355555555555554 50.388888888888886  37.33333333333333 50.388888888888886  L 40.888888888888886 50.388888888888886  C 41.86666666666667 50.388888888888886  42.666666666666664 49.58888888888889  42 48.61111111111111  L 42 32.611111111111114  Z " fill-rule="evenodd" />
    </mask>
  </defs>
  <g>
    <path d="M 64 32.611111111111114  C 64 14.244444444444444  48.44444444444444 -0.5666666666666678  29.81111111111111 0.6888888888888904  C 12.822222222222223 1.8222222222222237  0 16.711111111111112  0 33.74444444444444  L 0 48.61111111111111  C 0 49.58888888888889  0.7999999999999999 50.388888888888886  1.7777777777777777 50.388888888888886  L 5.333333333333333 50.388888888888886  C 6.31111111111111 50.388888888888886  7.111111111111111 49.58888888888889  8 48.61111111111111  L 8 32.611111111111114  C 7.111111111111111 17.811111111111114  20.099999999999998 5.977777777777778  35.27777777777778 7.9333333333333345  C 47.822222222222216 9.544444444444446  56.888888888888886 20.833333333333332  56 33.47777777777778  L 56 48.61111111111111  C 56.888888888888886 49.58888888888889  57.68888888888889 50.388888888888886  58.666666666666664 50.388888888888886  L 62.22222222222222 50.388888888888886  C 63.19999999999999 50.388888888888886  64 49.58888888888889  64 48.61111111111111  L 64 32.611111111111114  Z M 53 32.611111111111114  C 53.33333333333333 19.922222222222224  42.199999999999996 9.78888888888889  29.188888888888886 11.45555555555556  C 18.444444444444443 12.833333333333332  10.666666666666666 22.51111111111111  11 33.355555555555554  L 11 48.61111111111111  C 10.666666666666666 49.58888888888889  11.466666666666667 50.388888888888886  12.444444444444443 50.388888888888886  L 16 50.388888888888886  C 16.977777777777778 50.388888888888886  17.77777777777778 49.58888888888889  18 48.61111111111111  L 18 32.611111111111114  C 17.77777777777778 24.299999999999997  24.944444444444443 17.633333333333333  33.422222222222224 18.455555555555556  C 40.81111111111111 19.177777777777777  46.22222222222222 25.811111111111114  46 33.24444444444444  L 46 48.61111111111111  C 46.22222222222222 49.58888888888889  47.02222222222222 50.388888888888886  48 50.388888888888886  L 51.55555555555555 50.388888888888886  C 52.53333333333333 50.388888888888886  53.33333333333333 49.58888888888889  53 48.61111111111111  L 53 32.611111111111114  Z M 42 32.611111111111114  C 42.666666666666664 26.03333333333334  36.68888888888888 20.833333333333332  29.877777777777773 22.15555555555556  C 24.811111111111106 23.14444444444445  21.33333333333333 27.877777777777784  22 33.03333333333334  L 22 48.61111111111111  C 21.33333333333333 49.58888888888889  22.13333333333333 50.388888888888886  23.111111111111107 50.388888888888886  L 26.66666666666666 50.388888888888886  C 27.644444444444442 50.388888888888886  28.44444444444444 49.58888888888889  29 48.61111111111111  L 29 32.611111111111114  C 28.44444444444444 30.65555555555555  30.033333333333328 29.055555555555557  32 29.055555555555557  C 33.96666666666667 29.055555555555557  35.55555555555556 30.65555555555555  35 32.611111111111114  L 35 48.61111111111111  C 35.55555555555556 49.58888888888889  36.355555555555554 50.388888888888886  37.33333333333333 50.388888888888886  L 40.888888888888886 50.388888888888886  C 41.86666666666667 50.388888888888886  42.666666666666664 49.58888888888889  42 48.61111111111111  L 42 32.611111111111114  Z " fill-rule="nonzero" fill="rgba(0, 0, 0, 1)" stroke="none" class="fill" />
    <path d="M 64 32.611111111111114  C 64 14.244444444444444  48.44444444444444 -0.5666666666666678  29.81111111111111 0.6888888888888904  C 12.822222222222223 1.8222222222222237  0 16.711111111111112  0 33.74444444444444  L 0 48.61111111111111  C 0 49.58888888888889  0.7999999999999999 50.388888888888886  1.7777777777777777 50.388888888888886  L 5.333333333333333 50.388888888888886  C 6.31111111111111 50.388888888888886  7.111111111111111 49.58888888888889  8 48.61111111111111  L 8 32.611111111111114  C 7.111111111111111 17.811111111111114  20.099999999999998 5.977777777777778  35.27777777777778 7.9333333333333345  C 47.822222222222216 9.544444444444446  56.888888888888886 20.833333333333332  56 33.47777777777778  L 56 48.61111111111111  C 56.888888888888886 49.58888888888889  57.68888888888889 50.388888888888886  58.666666666666664 50.388888888888886  L 62.22222222222222 50.388888888888886  C 63.19999999999999 50.388888888888886  64 49.58888888888889  64 48.61111111111111  L 64 32.611111111111114  Z " stroke-width="0" stroke-dasharray="0" stroke="rgba(255, 255, 255, 0)" fill="none" class="stroke" mask="url(#Clip1889)" />
    <path d="M 53 32.611111111111114  C 53.33333333333333 19.922222222222224  42.199999999999996 9.78888888888889  29.188888888888886 11.45555555555556  C 18.444444444444443 12.833333333333332  10.666666666666666 22.51111111111111  11 33.355555555555554  L 11 48.61111111111111  C 10.666666666666666 49.58888888888889  11.466666666666667 50.388888888888886  12.444444444444443 50.388888888888886  L 16 50.388888888888886  C 16.977777777777778 50.388888888888886  17.77777777777778 49.58888888888889  18 48.61111111111111  L 18 32.611111111111114  C 17.77777777777778 24.299999999999997  24.944444444444443 17.633333333333333  33.422222222222224 18.455555555555556  C 40.81111111111111 19.177777777777777  46.22222222222222 25.811111111111114  46 33.24444444444444  L 46 48.61111111111111  C 46.22222222222222 49.58888888888889  47.02222222222222 50.388888888888886  48 50.388888888888886  L 51.55555555555555 50.388888888888886  C 52.53333333333333 50.388888888888886  53.33333333333333 49.58888888888889  53 48.61111111111111  L 53 32.611111111111114  Z " stroke-width="0" stroke-dasharray="0" stroke="rgba(255, 255, 255, 0)" fill="none" class="stroke" mask="url(#Clip1889)" />
    <path d="M 42 32.611111111111114  C 42.666666666666664 26.03333333333334  36.68888888888888 20.833333333333332  29.877777777777773 22.15555555555556  C 24.811111111111106 23.14444444444445  21.33333333333333 27.877777777777784  22 33.03333333333334  L 22 48.61111111111111  C 21.33333333333333 49.58888888888889  22.13333333333333 50.388888888888886  23.111111111111107 50.388888888888886  L 26.66666666666666 50.388888888888886  C 27.644444444444442 50.388888888888886  28.44444444444444 49.58888888888889  29 48.61111111111111  L 29 32.611111111111114  C 28.44444444444444 30.65555555555555  30.033333333333328 29.055555555555557  32 29.055555555555557  C 33.96666666666667 29.055555555555557  35.55555555555556 30.65555555555555  35 32.611111111111114  L 35 48.61111111111111  C 35.55555555555556 49.58888888888889  36.355555555555554 50.388888888888886  37.33333333333333 50.388888888888886  L 40.888888888888886 50.388888888888886  C 41.86666666666667 50.388888888888886  42.666666666666664 49.58888888888889  42 48.61111111111111  L 42 32.611111111111114  Z " stroke-width="0" stroke-dasharray="0" stroke="rgba(255, 255, 255, 0)" fill="none" class="stroke" mask="url(#Clip1889)" />
  </g>
</svg>