<?xml version="1.0" encoding="utf-8"?>
<svg version="1.1" xmlns:xlink="http://www.w3.org/1999/xlink" width="50px" height="40px" xmlns="http://www.w3.org/2000/svg">
  <defs>
    <pattern id="BGPattern" patternUnits="userSpaceOnUse" alignment="0 0" imageRepeat="None" />
    <mask fill="white" id="Clip2132">
      <path d="M 50 17.5  C 50 16.8125  49.4375 16.25  48.75 16.25  L 43.75 16.25  L 43.75 11.25  C 43.75 10.5625  43.1875 10  42.5 10  L 40 10  C 39.3125 10  38.75 10.5625  38.75 11.25  L 38.75 16.25  L 33.75 16.25  C 33.0625 16.25  32.5 16.8125  32.5 17.5  L 32.5 20  C 32.5 20.6875  33.0625 21.25  33.75 21.25  L 38.75 21.25  L 38.75 26.25  C 38.75 26.9375  39.3125 27.5  40 27.5  L 42.5 27.5  C 43.1875 27.5  43.75 26.9375  43.75 26.25  L 43.75 21.25  L 48.75 21.25  C 49.4375 21.25  50 20.6875  50 20  L 50 17.5  Z M 7.5 10  C 7.5 15.5234375  11.9765625 20  17.5 20  C 23.0234375 20  27.500000000000004 15.5234375  27.500000000000004 10  C 27.500000000000004 4.4765625  23.0234375 0  17.5 0  C 11.9765625 0  7.5 4.4765625  7.5 10  Z M 35 33  C 35 27.203125  30.296875 22.5  24.5 22.5  L 23.1953125 22.5  C 21.4609375 23.296875  19.53125 23.75  17.5 23.75  C 15.46875 23.75  13.546875 23.296875  11.8046875 22.5  L 10.5 22.5  C 4.703125 22.5  0 27.203125  0 33  L 0 36.25  C 0 38.3203125  1.6796875 40  3.75 40  L 31.25 40  C 33.3203125 40  35 38.3203125  35 36.25  L 35 33  Z " fill-rule="evenodd" />
    </mask>
  </defs>
  <g>
    <path d="M 50 17.5  C 50 16.8125  49.4375 16.25  48.75 16.25  L 43.75 16.25  L 43.75 11.25  C 43.75 10.5625  43.1875 10  42.5 10  L 40 10  C 39.3125 10  38.75 10.5625  38.75 11.25  L 38.75 16.25  L 33.75 16.25  C 33.0625 16.25  32.5 16.8125  32.5 17.5  L 32.5 20  C 32.5 20.6875  33.0625 21.25  33.75 21.25  L 38.75 21.25  L 38.75 26.25  C 38.75 26.9375  39.3125 27.5  40 27.5  L 42.5 27.5  C 43.1875 27.5  43.75 26.9375  43.75 26.25  L 43.75 21.25  L 48.75 21.25  C 49.4375 21.25  50 20.6875  50 20  L 50 17.5  Z M 7.5 10  C 7.5 15.5234375  11.9765625 20  17.5 20  C 23.0234375 20  27.500000000000004 15.5234375  27.500000000000004 10  C 27.500000000000004 4.4765625  23.0234375 0  17.5 0  C 11.9765625 0  7.5 4.4765625  7.5 10  Z M 35 33  C 35 27.203125  30.296875 22.5  24.5 22.5  L 23.1953125 22.5  C 21.4609375 23.296875  19.53125 23.75  17.5 23.75  C 15.46875 23.75  13.546875 23.296875  11.8046875 22.5  L 10.5 22.5  C 4.703125 22.5  0 27.203125  0 33  L 0 36.25  C 0 38.3203125  1.6796875 40  3.75 40  L 31.25 40  C 33.3203125 40  35 38.3203125  35 36.25  L 35 33  Z " fill-rule="nonzero" fill="rgba(0, 0, 0, 1)" stroke="none" class="fill" />
    <path d="M 50 17.5  C 50 16.8125  49.4375 16.25  48.75 16.25  L 43.75 16.25  L 43.75 11.25  C 43.75 10.5625  43.1875 10  42.5 10  L 40 10  C 39.3125 10  38.75 10.5625  38.75 11.25  L 38.75 16.25  L 33.75 16.25  C 33.0625 16.25  32.5 16.8125  32.5 17.5  L 32.5 20  C 32.5 20.6875  33.0625 21.25  33.75 21.25  L 38.75 21.25  L 38.75 26.25  C 38.75 26.9375  39.3125 27.5  40 27.5  L 42.5 27.5  C 43.1875 27.5  43.75 26.9375  43.75 26.25  L 43.75 21.25  L 48.75 21.25  C 49.4375 21.25  50 20.6875  50 20  L 50 17.5  Z " stroke-width="0" stroke-dasharray="0" stroke="rgba(255, 255, 255, 0)" fill="none" class="stroke" mask="url(#Clip2132)" />
    <path d="M 7.5 10  C 7.5 15.5234375  11.9765625 20  17.5 20  C 23.0234375 20  27.500000000000004 15.5234375  27.500000000000004 10  C 27.500000000000004 4.4765625  23.0234375 0  17.5 0  C 11.9765625 0  7.5 4.4765625  7.5 10  Z " stroke-width="0" stroke-dasharray="0" stroke="rgba(255, 255, 255, 0)" fill="none" class="stroke" mask="url(#Clip2132)" />
    <path d="M 35 33  C 35 27.203125  30.296875 22.5  24.5 22.5  L 23.1953125 22.5  C 21.4609375 23.296875  19.53125 23.75  17.5 23.75  C 15.46875 23.75  13.546875 23.296875  11.8046875 22.5  L 10.5 22.5  C 4.703125 22.5  0 27.203125  0 33  L 0 36.25  C 0 38.3203125  1.6796875 40  3.75 40  L 31.25 40  C 33.3203125 40  35 38.3203125  35 36.25  L 35 33  Z " stroke-width="0" stroke-dasharray="0" stroke="rgba(255, 255, 255, 0)" fill="none" class="stroke" mask="url(#Clip2132)" />
  </g>
</svg>