<?xml version="1.0" encoding="utf-8"?>
<svg version="1.1" xmlns:xlink="http://www.w3.org/1999/xlink" width="24px" height="24px" xmlns="http://www.w3.org/2000/svg">
  <defs>
    <pattern id="BGPattern" patternUnits="userSpaceOnUse" alignment="0 0" imageRepeat="None" />
    <mask fill="white" id="Clip5781">
      <path d="M 24 12  C 24 5.372583002030479  18.627416997969522 0  12 0  C 5.372583002030479 0  0 5.372583002030479  0 12  C 0 18.627416997969522  5.372583002030479 24  12 24  C 18.627416997969522 24  24 18.627416997969522  24 12  Z M 7.4475 2.5364999999999998  L 7.447500000000002 2.535  C 9.24644654373773 1.66758712697863  11.25615052940761 1.3334172334795202  13.239 1.572  C 14.322 2.7225  15.0045 4.4025  15.0045 6.2745  C 15.0045 8.7585  13.8015 10.9065  12.057 11.9235  C 13.9515 12.2835  16.0395 10.701  17.166 7.810499999999999  C 17.736000000000004 6.348000000000001  17.971500000000002 4.776  17.904 3.3164999999999996  C 19.548072111599602 4.435823835755745  20.841902156263593 5.997468379214739  21.636 7.821000000000001  C 21.1815 9.336  20.067 10.770000000000001  18.444 11.706  C 16.284 12.954  13.809 12.981  12.053999999999998 11.9655  L 12.065999999999999 11.997  L 12.084 11.988  L 12.068999999999999 12.003  C 12.698999999999998 13.830000000000002  15.116999999999999 14.853000000000002  18.189 14.382000000000001  C 19.714036118498818 14.144587290701637  21.172970104336706 13.592378733737087  22.473 12.7605  C 22.331943300410725 14.748336767344684  21.625134020365167 16.654327624139114  20.436 18.253500000000003  C 18.891 18.6255  17.0835 18.3795  15.453 17.4375  C 13.3035 16.197  12.044999999999998 14.083499999999999  12.0345 12.067499999999999  L 12.016499999999999 12.062999999999999  C 10.748999999999999 13.520999999999999  11.071499999999999 16.128  13.0155 18.5535  C 13.98583801417817 19.757616852983062  15.196608816560353 20.746157571383705  16.570500000000003 21.456000000000003  C 14.773204331570053 22.327235565427294  12.764006777056762 22.665571941187302  10.780500000000002 22.431  C 9.690000000000001 21.280500000000004  9.001500000000002 19.593000000000004  9.001500000000002 17.712  C 9.001500000000002 15.225000000000001  10.207500000000003 13.075499999999998  11.955000000000002 12.059999999999999  L 11.952000000000002 12.049499999999998  C 10.053000000000003 11.674499999999998  7.953000000000002 13.256999999999998  6.822000000000003 16.1595  C 6.26640569135793 17.598252127062217  6.016105981168538 19.13682912112436  6.0870000000000015 20.6775  C 4.438476741141546 19.552585730859086  3.1432494186260223 17.982707795376413  2.352000000000002 16.1505  C 2.805 14.6355  3.9195 13.200000000000001  5.5440000000000005 12.261  C 7.7010000000000005 11.015999999999998  10.17 10.986  11.9235 11.997  L 11.931 11.988  C 11.307 10.155  8.886000000000001 9.1275  5.808 9.600000000000001  C 4.247999999999999 9.84  2.763 10.425  1.5284999999999995 11.22  C 1.674202939100506 9.227383461299516  2.388451050544708 7.31838358909406  3.5865 5.719500000000001  L 3.5835000000000004 5.724000000000001  C 5.121 5.3595000000000015  6.919500000000001 5.607000000000001  8.5425 6.544500000000001  C 10.6875 7.7835  11.946000000000002 9.8895  11.962499999999999 11.904  L 12 11.9115  C 13.2555 10.4505  12.93 7.852499999999999  10.9905 5.433  C 10.023039785364672 4.232352348509761  8.81650546301805 3.2459773373110634  7.4475 2.5364999999999998  Z " fill-rule="evenodd" />
    </mask>
  </defs>
  <g>
    <path d="M 24 12  C 24 5.372583002030479  18.627416997969522 0  12 0  C 5.372583002030479 0  0 5.372583002030479  0 12  C 0 18.627416997969522  5.372583002030479 24  12 24  C 18.627416997969522 24  24 18.627416997969522  24 12  Z M 7.4475 2.5364999999999998  L 7.447500000000002 2.535  C 9.24644654373773 1.66758712697863  11.25615052940761 1.3334172334795202  13.239 1.572  C 14.322 2.7225  15.0045 4.4025  15.0045 6.2745  C 15.0045 8.7585  13.8015 10.9065  12.057 11.9235  C 13.9515 12.2835  16.0395 10.701  17.166 7.810499999999999  C 17.736000000000004 6.348000000000001  17.971500000000002 4.776  17.904 3.3164999999999996  C 19.548072111599602 4.435823835755745  20.841902156263593 5.997468379214739  21.636 7.821000000000001  C 21.1815 9.336  20.067 10.770000000000001  18.444 11.706  C 16.284 12.954  13.809 12.981  12.053999999999998 11.9655  L 12.065999999999999 11.997  L 12.084 11.988  L 12.068999999999999 12.003  C 12.698999999999998 13.830000000000002  15.116999999999999 14.853000000000002  18.189 14.382000000000001  C 19.714036118498818 14.144587290701637  21.172970104336706 13.592378733737087  22.473 12.7605  C 22.331943300410725 14.748336767344684  21.625134020365167 16.654327624139114  20.436 18.253500000000003  C 18.891 18.6255  17.0835 18.3795  15.453 17.4375  C 13.3035 16.197  12.044999999999998 14.083499999999999  12.0345 12.067499999999999  L 12.016499999999999 12.062999999999999  C 10.748999999999999 13.520999999999999  11.071499999999999 16.128  13.0155 18.5535  C 13.98583801417817 19.757616852983062  15.196608816560353 20.746157571383705  16.570500000000003 21.456000000000003  C 14.773204331570053 22.327235565427294  12.764006777056762 22.665571941187302  10.780500000000002 22.431  C 9.690000000000001 21.280500000000004  9.001500000000002 19.593000000000004  9.001500000000002 17.712  C 9.001500000000002 15.225000000000001  10.207500000000003 13.075499999999998  11.955000000000002 12.059999999999999  L 11.952000000000002 12.049499999999998  C 10.053000000000003 11.674499999999998  7.953000000000002 13.256999999999998  6.822000000000003 16.1595  C 6.26640569135793 17.598252127062217  6.016105981168538 19.13682912112436  6.0870000000000015 20.6775  C 4.438476741141546 19.552585730859086  3.1432494186260223 17.982707795376413  2.352000000000002 16.1505  C 2.805 14.6355  3.9195 13.200000000000001  5.5440000000000005 12.261  C 7.7010000000000005 11.015999999999998  10.17 10.986  11.9235 11.997  L 11.931 11.988  C 11.307 10.155  8.886000000000001 9.1275  5.808 9.600000000000001  C 4.247999999999999 9.84  2.763 10.425  1.5284999999999995 11.22  C 1.674202939100506 9.227383461299516  2.388451050544708 7.31838358909406  3.5865 5.719500000000001  L 3.5835000000000004 5.724000000000001  C 5.121 5.3595000000000015  6.919500000000001 5.607000000000001  8.5425 6.544500000000001  C 10.6875 7.7835  11.946000000000002 9.8895  11.962499999999999 11.904  L 12 11.9115  C 13.2555 10.4505  12.93 7.852499999999999  10.9905 5.433  C 10.023039785364672 4.232352348509761  8.81650546301805 3.2459773373110634  7.4475 2.5364999999999998  Z " fill-rule="nonzero" fill="rgba(0, 0, 0, 1)" stroke="none" class="fill" />
    <path d="M 24 12  C 24 5.372583002030479  18.627416997969522 0  12 0  C 5.372583002030479 0  0 5.372583002030479  0 12  C 0 18.627416997969522  5.372583002030479 24  12 24  C 18.627416997969522 24  24 18.627416997969522  24 12  Z " stroke-width="0" stroke-dasharray="0" stroke="rgba(255, 255, 255, 0)" fill="none" class="stroke" mask="url(#Clip5781)" />
    <path d="M 7.4475 2.5364999999999998  L 7.447500000000002 2.535  C 9.24644654373773 1.66758712697863  11.25615052940761 1.3334172334795202  13.239 1.572  C 14.322 2.7225  15.0045 4.4025  15.0045 6.2745  C 15.0045 8.7585  13.8015 10.9065  12.057 11.9235  C 13.9515 12.2835  16.0395 10.701  17.166 7.810499999999999  C 17.736000000000004 6.348000000000001  17.971500000000002 4.776  17.904 3.3164999999999996  C 19.548072111599602 4.435823835755745  20.841902156263593 5.997468379214739  21.636 7.821000000000001  C 21.1815 9.336  20.067 10.770000000000001  18.444 11.706  C 16.284 12.954  13.809 12.981  12.053999999999998 11.9655  L 12.065999999999999 11.997  L 12.084 11.988  L 12.068999999999999 12.003  C 12.698999999999998 13.830000000000002  15.116999999999999 14.853000000000002  18.189 14.382000000000001  C 19.714036118498818 14.144587290701637  21.172970104336706 13.592378733737087  22.473 12.7605  C 22.331943300410725 14.748336767344684  21.625134020365167 16.654327624139114  20.436 18.253500000000003  C 18.891 18.6255  17.0835 18.3795  15.453 17.4375  C 13.3035 16.197  12.044999999999998 14.083499999999999  12.0345 12.067499999999999  L 12.016499999999999 12.062999999999999  C 10.748999999999999 13.520999999999999  11.071499999999999 16.128  13.0155 18.5535  C 13.98583801417817 19.757616852983062  15.196608816560353 20.746157571383705  16.570500000000003 21.456000000000003  C 14.773204331570053 22.327235565427294  12.764006777056762 22.665571941187302  10.780500000000002 22.431  C 9.690000000000001 21.280500000000004  9.001500000000002 19.593000000000004  9.001500000000002 17.712  C 9.001500000000002 15.225000000000001  10.207500000000003 13.075499999999998  11.955000000000002 12.059999999999999  L 11.952000000000002 12.049499999999998  C 10.053000000000003 11.674499999999998  7.953000000000002 13.256999999999998  6.822000000000003 16.1595  C 6.26640569135793 17.598252127062217  6.016105981168538 19.13682912112436  6.0870000000000015 20.6775  C 4.438476741141546 19.552585730859086  3.1432494186260223 17.982707795376413  2.352000000000002 16.1505  C 2.805 14.6355  3.9195 13.200000000000001  5.5440000000000005 12.261  C 7.7010000000000005 11.015999999999998  10.17 10.986  11.9235 11.997  L 11.931 11.988  C 11.307 10.155  8.886000000000001 9.1275  5.808 9.600000000000001  C 4.247999999999999 9.84  2.763 10.425  1.5284999999999995 11.22  C 1.674202939100506 9.227383461299516  2.388451050544708 7.31838358909406  3.5865 5.719500000000001  L 3.5835000000000004 5.724000000000001  C 5.121 5.3595000000000015  6.919500000000001 5.607000000000001  8.5425 6.544500000000001  C 10.6875 7.7835  11.946000000000002 9.8895  11.962499999999999 11.904  L 12 11.9115  C 13.2555 10.4505  12.93 7.852499999999999  10.9905 5.433  C 10.023039785364672 4.232352348509761  8.81650546301805 3.2459773373110634  7.4475 2.5364999999999998  Z " stroke-width="0" stroke-dasharray="0" stroke="rgba(255, 255, 255, 0)" fill="none" class="stroke" mask="url(#Clip5781)" />
  </g>
</svg>