<?xml version="1.0" encoding="utf-8"?>
<svg version="1.1" xmlns:xlink="http://www.w3.org/1999/xlink" width="18px" height="6px" xmlns="http://www.w3.org/2000/svg">
  <defs>
    <pattern id="BGPattern" patternUnits="userSpaceOnUse" alignment="0 0" imageRepeat="None" />
    <mask fill="white" id="Clip5384">
      <path d="M 0.9330000000000007 3.727500000000001  L 0.46499999999999986 1.8645000000000005  C 0.43513944064174126 1.7453002982831798  0.420039432325515 1.6228829596290142  0.420039432325515 1.4999999994816973  C 0.420039432325515 0.6715882739745833  1.0915882747791308 2.177746721354623E-05  1.92 0  L 6 0  C 6.82842712474619 0  7.5 0.6715728752538102  7.5 1.5  L 7.5 3  C 7.5 4.65685424949238  6.15685424949238 6  4.5 6  L 3.843 6  C 2.4665253464909576 5.9997915899324035  1.2667950915244601 5.062888839275578  0.9330000000000007 3.727500000000001  Z M 10.5 3  L 10.5 1.5  C 10.5 0.6715728752538102  11.17157287525381 0  12 0  L 16.080000000000002 0  C 16.908411725220873 2.1777467212658053E-05  17.57996056767449 0.6715882739745815  17.57996056767449 1.4999999994816973  C 17.57996056767449 1.6228829596290204  17.564860559358262 1.7453002982831745  17.535000000000004 1.8645000000000005  L 17.0685 3.727500000000001  C 16.734704908475543 5.06288883927558  15.534974653509046 5.9997915899324035  14.1585 6  L 13.5 6  C 11.84314575050762 6  10.5 4.65685424949238  10.5 3  Z " fill-rule="evenodd" />
    </mask>
  </defs>
  <g transform="matrix(1 0 0 1 -3 -6 )">
    <path d="M 0.9330000000000007 3.727500000000001  L 0.46499999999999986 1.8645000000000005  C 0.43513944064174126 1.7453002982831798  0.420039432325515 1.6228829596290142  0.420039432325515 1.4999999994816973  C 0.420039432325515 0.6715882739745833  1.0915882747791308 2.177746721354623E-05  1.92 0  L 6 0  C 6.82842712474619 0  7.5 0.6715728752538102  7.5 1.5  L 7.5 3  C 7.5 4.65685424949238  6.15685424949238 6  4.5 6  L 3.843 6  C 2.4665253464909576 5.9997915899324035  1.2667950915244601 5.062888839275578  0.9330000000000007 3.727500000000001  Z M 10.5 3  L 10.5 1.5  C 10.5 0.6715728752538102  11.17157287525381 0  12 0  L 16.080000000000002 0  C 16.908411725220873 2.1777467212658053E-05  17.57996056767449 0.6715882739745815  17.57996056767449 1.4999999994816973  C 17.57996056767449 1.6228829596290204  17.564860559358262 1.7453002982831745  17.535000000000004 1.8645000000000005  L 17.0685 3.727500000000001  C 16.734704908475543 5.06288883927558  15.534974653509046 5.9997915899324035  14.1585 6  L 13.5 6  C 11.84314575050762 6  10.5 4.65685424949238  10.5 3  Z " fill-rule="nonzero" fill="rgba(0, 0, 0, 1)" stroke="none" transform="matrix(1 0 0 1 3 6 )" class="fill" />
    <path d="M 0.9330000000000007 3.727500000000001  L 0.46499999999999986 1.8645000000000005  C 0.43513944064174126 1.7453002982831798  0.420039432325515 1.6228829596290142  0.420039432325515 1.4999999994816973  C 0.420039432325515 0.6715882739745833  1.0915882747791308 2.177746721354623E-05  1.92 0  L 6 0  C 6.82842712474619 0  7.5 0.6715728752538102  7.5 1.5  L 7.5 3  C 7.5 4.65685424949238  6.15685424949238 6  4.5 6  L 3.843 6  C 2.4665253464909576 5.9997915899324035  1.2667950915244601 5.062888839275578  0.9330000000000007 3.727500000000001  Z " stroke-width="0" stroke-dasharray="0" stroke="rgba(255, 255, 255, 0)" fill="none" transform="matrix(1 0 0 1 3 6 )" class="stroke" mask="url(#Clip5384)" />
    <path d="M 10.5 3  L 10.5 1.5  C 10.5 0.6715728752538102  11.17157287525381 0  12 0  L 16.080000000000002 0  C 16.908411725220873 2.1777467212658053E-05  17.57996056767449 0.6715882739745815  17.57996056767449 1.4999999994816973  C 17.57996056767449 1.6228829596290204  17.564860559358262 1.7453002982831745  17.535000000000004 1.8645000000000005  L 17.0685 3.727500000000001  C 16.734704908475543 5.06288883927558  15.534974653509046 5.9997915899324035  14.1585 6  L 13.5 6  C 11.84314575050762 6  10.5 4.65685424949238  10.5 3  Z " stroke-width="0" stroke-dasharray="0" stroke="rgba(255, 255, 255, 0)" fill="none" transform="matrix(1 0 0 1 3 6 )" class="stroke" mask="url(#Clip5384)" />
  </g>
</svg>