<?xml version="1.0" encoding="utf-8"?>
<svg version="1.1" xmlns:xlink="http://www.w3.org/1999/xlink" width="8px" height="8px" xmlns="http://www.w3.org/2000/svg">
  <defs>
    <pattern id="BGPattern" patternUnits="userSpaceOnUse" alignment="0 0" imageRepeat="None" />
    <mask fill="white" id="Clip5430">
      <path d="M 7.7499999999999964 3.9999999999999982  C 7.7499999999999964 6.071067811865472  6.071067811865472 7.7499999999999964  3.9999999999999982 7.7499999999999964  C 1.9289321881345245 7.7499999999999964  0.24999999999999822 6.071067811865472  0.24999999999999822 3.9999999999999982  C 0.24999999999999822 1.9289321881345245  1.9289321881345245 0.24999999999999822  3.9999999999999982 0.24999999999999822  C 6.071067811865472 0.24999999999999822  7.7499999999999964 1.9289321881345245  7.7499999999999964 3.9999999999999982  Z " fill-rule="evenodd" />
    </mask>
  </defs>
  <g transform="matrix(1 0 0 1 -8 -5 )">
    <path d="M 7.7499999999999964 3.9999999999999982  C 7.7499999999999964 6.071067811865472  6.071067811865472 7.7499999999999964  3.9999999999999982 7.7499999999999964  C 1.9289321881345245 7.7499999999999964  0.24999999999999822 6.071067811865472  0.24999999999999822 3.9999999999999982  C 0.24999999999999822 1.9289321881345245  1.9289321881345245 0.24999999999999822  3.9999999999999982 0.24999999999999822  C 6.071067811865472 0.24999999999999822  7.7499999999999964 1.9289321881345245  7.7499999999999964 3.9999999999999982  Z " fill-rule="nonzero" fill="rgba(0, 0, 0, 1)" stroke="none" transform="matrix(1 0 0 1 8 5 )" class="fill" />
    <path d="M 7.7499999999999964 3.9999999999999982  C 7.7499999999999964 6.071067811865472  6.071067811865472 7.7499999999999964  3.9999999999999982 7.7499999999999964  C 1.9289321881345245 7.7499999999999964  0.24999999999999822 6.071067811865472  0.24999999999999822 3.9999999999999982  C 0.24999999999999822 1.9289321881345245  1.9289321881345245 0.24999999999999822  3.9999999999999982 0.24999999999999822  C 6.071067811865472 0.24999999999999822  7.7499999999999964 1.9289321881345245  7.7499999999999964 3.9999999999999982  Z " stroke-width="0" stroke-dasharray="0" stroke="rgba(255, 255, 255, 0)" fill="none" transform="matrix(1 0 0 1 8 5 )" class="stroke" mask="url(#Clip5430)" />
  </g>
</svg>