<?xml version="1.0" encoding="utf-8"?>
<svg version="1.1" xmlns:xlink="http://www.w3.org/1999/xlink" width="50px" height="50px" xmlns="http://www.w3.org/2000/svg">
  <defs>
    <pattern id="BGPattern" patternUnits="userSpaceOnUse" alignment="0 0" imageRepeat="None" />
    <mask fill="white" id="Clip2350">
      <path d="M 50 2  C 50 0.8937499999999997  49.10625 0  48 0  L 2 0  C 0.8937499999999997 0  0 0.8937499999999997  0 2  L 0 48  C 0 49.10625  0.8937499999999997 50  2 50  L 48 50  C 49.10625 50  50 49.10625  50 48  L 50 2  Z M 34.16875 24.59375  C 34.44375 24.79375  34.44375 25.206249999999997  34.16875 25.406250000000004  L 18.793750000000003 36.53125  C 18.462500000000002 36.76875  18.000000000000004 36.53125  18.000000000000004 36.125  L 18.000000000000004 33.19375  C 18.000000000000004 32.55625  18.306250000000002 31.95  18.825000000000003 31.575000000000003  L 27.9125 25  L 18.825 18.425  C 18.30625 18.05  18 17.45  18 16.806250000000002  L 18 13.875000000000002  C 18 13.468749999999998  18.4625 13.23125  18.79375 13.468749999999998  L 34.16875 24.59375  Z " fill-rule="evenodd" />
    </mask>
  </defs>
  <g>
    <path d="M 50 2  C 50 0.8937499999999997  49.10625 0  48 0  L 2 0  C 0.8937499999999997 0  0 0.8937499999999997  0 2  L 0 48  C 0 49.10625  0.8937499999999997 50  2 50  L 48 50  C 49.10625 50  50 49.10625  50 48  L 50 2  Z M 34.16875 24.59375  C 34.44375 24.79375  34.44375 25.206249999999997  34.16875 25.406250000000004  L 18.793750000000003 36.53125  C 18.462500000000002 36.76875  18.000000000000004 36.53125  18.000000000000004 36.125  L 18.000000000000004 33.19375  C 18.000000000000004 32.55625  18.306250000000002 31.95  18.825000000000003 31.575000000000003  L 27.9125 25  L 18.825 18.425  C 18.30625 18.05  18 17.45  18 16.806250000000002  L 18 13.875000000000002  C 18 13.468749999999998  18.4625 13.23125  18.79375 13.468749999999998  L 34.16875 24.59375  Z " fill-rule="nonzero" fill="rgba(0, 0, 0, 1)" stroke="none" class="fill" />
    <path d="M 50 2  C 50 0.8937499999999997  49.10625 0  48 0  L 2 0  C 0.8937499999999997 0  0 0.8937499999999997  0 2  L 0 48  C 0 49.10625  0.8937499999999997 50  2 50  L 48 50  C 49.10625 50  50 49.10625  50 48  L 50 2  Z " stroke-width="0" stroke-dasharray="0" stroke="rgba(255, 255, 255, 0)" fill="none" class="stroke" mask="url(#Clip2350)" />
    <path d="M 34.16875 24.59375  C 34.44375 24.79375  34.44375 25.206249999999997  34.16875 25.406250000000004  L 18.793750000000003 36.53125  C 18.462500000000002 36.76875  18.000000000000004 36.53125  18.000000000000004 36.125  L 18.000000000000004 33.19375  C 18.000000000000004 32.55625  18.306250000000002 31.95  18.825000000000003 31.575000000000003  L 27.9125 25  L 18.825 18.425  C 18.30625 18.05  18 17.45  18 16.806250000000002  L 18 13.875000000000002  C 18 13.468749999999998  18.4625 13.23125  18.79375 13.468749999999998  L 34.16875 24.59375  Z " stroke-width="0" stroke-dasharray="0" stroke="rgba(255, 255, 255, 0)" fill="none" class="stroke" mask="url(#Clip2350)" />
  </g>
</svg>