<?xml version="1.0" encoding="utf-8"?>
<svg version="1.1" xmlns:xlink="http://www.w3.org/1999/xlink" width="52px" height="64px" xmlns="http://www.w3.org/2000/svg">
  <defs>
    <pattern id="BGPattern" patternUnits="userSpaceOnUse" alignment="0 0" imageRepeat="None" />
    <mask fill="white" id="Clip1916">
      <path d="M 28 6  C 28 9.31375  30.68625 12  34 12  C 37.31375 12  40 9.31375  40 6  C 40 2.6862499999999994  37.31375 0  34 0  C 30.68625 0  28 2.68625  28 6  Z M 18.96 45.010000000000005  C 16.795 43.73125  15.2025 41.838750000000005  14.21125 39.68375  L 12.36125 43.99875  L 4 43.99875  C 1.7912499999999998 43.99875  0 45.79  0 47.99875  C 0 50.2075  1.7912499999999998 51.99875  4 51.99875  L 13.681249999999999 51.99875  C 16.0875 51.99875  18.25375 50.56875  19.195 48.362500000000004  L 20.29375 45.79750000000001  L 18.96 45.010000000000005  Z M 52 31.997500000000002  C 52 29.78875  50.20875 27.99875  48 27.99875  L 42.49625 27.99875  L 39.23875 21.3425  C 37.67625 18.14875  34.807500000000005 15.813750000000002  31.51625 14.975000000000001  L 22.63125 12.332500000000001  C 19.09375 11.482500000000002  15.410000000000002 12.263750000000002  12.526250000000001 14.475000000000001  L 7.567500000000001 18.27625  C 5.813750000000001 19.62  5.481250000000001 22.130000000000003  6.827500000000001 23.88375  C 8.17375 25.637499999999996  10.682500000000001 25.96625  12.435 24.623749999999998  L 17.396250000000002 20.822499999999998  C 18.355 20.08625  19.57625 19.822499999999998  20.555000000000003 20.055  L 22.392500000000002 20.60125  L 17.71 31.525  C 16.1325 35.21  17.54625 39.52625  20.997500000000002 41.56375  L 31.620000000000005 47.835  L 28.18625 58.80125  C 27.526250000000005 60.908750000000005  28.700000000000006 63.1525  30.807500000000005 63.8125  C 31.206250000000004 63.9375  31.608750000000008 63.9975  32.005 63.9975  C 33.706250000000004 63.9975  35.283750000000005 62.901250000000005  35.82 61.191250000000004  L 39.775 48.55875  C 40.51375 45.962500000000006  39.41375 43.173750000000005  37.07 41.760000000000005  L 29.415 37.24250000000001  L 33.32875 27.457500000000007  L 35.8625 32.636250000000004  C 36.8625 34.67875  38.9775 35.9975  41.25125 35.9975  L 48 35.9975  C 50.20875 35.9975  52 34.206250000000004  52 31.997500000000002  Z " fill-rule="evenodd" />
    </mask>
  </defs>
  <g>
    <path d="M 28 6  C 28 9.31375  30.68625 12  34 12  C 37.31375 12  40 9.31375  40 6  C 40 2.6862499999999994  37.31375 0  34 0  C 30.68625 0  28 2.68625  28 6  Z M 18.96 45.010000000000005  C 16.795 43.73125  15.2025 41.838750000000005  14.21125 39.68375  L 12.36125 43.99875  L 4 43.99875  C 1.7912499999999998 43.99875  0 45.79  0 47.99875  C 0 50.2075  1.7912499999999998 51.99875  4 51.99875  L 13.681249999999999 51.99875  C 16.0875 51.99875  18.25375 50.56875  19.195 48.362500000000004  L 20.29375 45.79750000000001  L 18.96 45.010000000000005  Z M 52 31.997500000000002  C 52 29.78875  50.20875 27.99875  48 27.99875  L 42.49625 27.99875  L 39.23875 21.3425  C 37.67625 18.14875  34.807500000000005 15.813750000000002  31.51625 14.975000000000001  L 22.63125 12.332500000000001  C 19.09375 11.482500000000002  15.410000000000002 12.263750000000002  12.526250000000001 14.475000000000001  L 7.567500000000001 18.27625  C 5.813750000000001 19.62  5.481250000000001 22.130000000000003  6.827500000000001 23.88375  C 8.17375 25.637499999999996  10.682500000000001 25.96625  12.435 24.623749999999998  L 17.396250000000002 20.822499999999998  C 18.355 20.08625  19.57625 19.822499999999998  20.555000000000003 20.055  L 22.392500000000002 20.60125  L 17.71 31.525  C 16.1325 35.21  17.54625 39.52625  20.997500000000002 41.56375  L 31.620000000000005 47.835  L 28.18625 58.80125  C 27.526250000000005 60.908750000000005  28.700000000000006 63.1525  30.807500000000005 63.8125  C 31.206250000000004 63.9375  31.608750000000008 63.9975  32.005 63.9975  C 33.706250000000004 63.9975  35.283750000000005 62.901250000000005  35.82 61.191250000000004  L 39.775 48.55875  C 40.51375 45.962500000000006  39.41375 43.173750000000005  37.07 41.760000000000005  L 29.415 37.24250000000001  L 33.32875 27.457500000000007  L 35.8625 32.636250000000004  C 36.8625 34.67875  38.9775 35.9975  41.25125 35.9975  L 48 35.9975  C 50.20875 35.9975  52 34.206250000000004  52 31.997500000000002  Z " fill-rule="nonzero" fill="rgba(0, 0, 0, 1)" stroke="none" class="fill" />
    <path d="M 28 6  C 28 9.31375  30.68625 12  34 12  C 37.31375 12  40 9.31375  40 6  C 40 2.6862499999999994  37.31375 0  34 0  C 30.68625 0  28 2.68625  28 6  Z " stroke-width="0" stroke-dasharray="0" stroke="rgba(255, 255, 255, 0)" fill="none" class="stroke" mask="url(#Clip1916)" />
    <path d="M 18.96 45.010000000000005  C 16.795 43.73125  15.2025 41.838750000000005  14.21125 39.68375  L 12.36125 43.99875  L 4 43.99875  C 1.7912499999999998 43.99875  0 45.79  0 47.99875  C 0 50.2075  1.7912499999999998 51.99875  4 51.99875  L 13.681249999999999 51.99875  C 16.0875 51.99875  18.25375 50.56875  19.195 48.362500000000004  L 20.29375 45.79750000000001  L 18.96 45.010000000000005  Z " stroke-width="0" stroke-dasharray="0" stroke="rgba(255, 255, 255, 0)" fill="none" class="stroke" mask="url(#Clip1916)" />
    <path d="M 52 31.997500000000002  C 52 29.78875  50.20875 27.99875  48 27.99875  L 42.49625 27.99875  L 39.23875 21.3425  C 37.67625 18.14875  34.807500000000005 15.813750000000002  31.51625 14.975000000000001  L 22.63125 12.332500000000001  C 19.09375 11.482500000000002  15.410000000000002 12.263750000000002  12.526250000000001 14.475000000000001  L 7.567500000000001 18.27625  C 5.813750000000001 19.62  5.481250000000001 22.130000000000003  6.827500000000001 23.88375  C 8.17375 25.637499999999996  10.682500000000001 25.96625  12.435 24.623749999999998  L 17.396250000000002 20.822499999999998  C 18.355 20.08625  19.57625 19.822499999999998  20.555000000000003 20.055  L 22.392500000000002 20.60125  L 17.71 31.525  C 16.1325 35.21  17.54625 39.52625  20.997500000000002 41.56375  L 31.620000000000005 47.835  L 28.18625 58.80125  C 27.526250000000005 60.908750000000005  28.700000000000006 63.1525  30.807500000000005 63.8125  C 31.206250000000004 63.9375  31.608750000000008 63.9975  32.005 63.9975  C 33.706250000000004 63.9975  35.283750000000005 62.901250000000005  35.82 61.191250000000004  L 39.775 48.55875  C 40.51375 45.962500000000006  39.41375 43.173750000000005  37.07 41.760000000000005  L 29.415 37.24250000000001  L 33.32875 27.457500000000007  L 35.8625 32.636250000000004  C 36.8625 34.67875  38.9775 35.9975  41.25125 35.9975  L 48 35.9975  C 50.20875 35.9975  52 34.206250000000004  52 31.997500000000002  Z " stroke-width="0" stroke-dasharray="0" stroke="rgba(255, 255, 255, 0)" fill="none" class="stroke" mask="url(#Clip1916)" />
  </g>
</svg>