<?xml version="1.0" encoding="utf-8"?>
<svg version="1.1" xmlns:xlink="http://www.w3.org/1999/xlink" width="22px" height="14px" xmlns="http://www.w3.org/2000/svg">
  <defs>
    <pattern id="BGPattern" patternUnits="userSpaceOnUse" alignment="0 0" imageRepeat="None" />
    <mask fill="white" id="Clip5230">
      <path d="M 6.415000000000001 5.9404994554535  C 7.013440523326858 3.621336444373218  9.104869791247244 2.0006331454963275  11.5 1.9999998166664428  C 14.40014319154863 1.9999997766441144  16.75064825493697 4.350504624569224  16.75064825493697 7.249999295393527  C 16.75064825493697 7.277500579637415  16.750432163287382 7.305001439389131  16.75 7.332499327853346  C 16.749941705584252 7.336316504851755  16.749912557101965 7.340134071308939  16.749912557101965 7.343951693405936  C 16.749912557101965 7.75816521780941  17.08569899472887 8.093951624655853  17.499912557101965 8.093951624655853  C 17.5626786782979 8.093951624655853  17.62519656425006 8.086072574767684  17.686 8.070499260203267  C 17.868814459796667 8.023664601238936  18.05678608994525 7.99996928506809  18.245504431378162 7.99996928506809  C 19.488885106152864 7.99996928506809  20.49753473741676 9.00662094356938  20.5 10.249999060415519  C 20.5 11.492639633625934  19.492640687119284 12.499998854165268  18.25 12.499998854165268  L 5.5 12.499998854165268  C 3.8497848060823427 12.49067896417725  2.5169427761515637 11.150288332812575  2.5169427761515637 9.500046972486668  C 2.5169427761515637 7.8431928748727815  3.8600885266591836 6.500047247487005  5.516942776151563 6.500047247487005  C 5.56131155772188 6.500047247487005  5.605674879627902 6.501031541770894  5.65 6.502999403890939  C 6.00633901646195 6.5213443518036325  6.32626917269458 6.28610161143182  6.415000000000001 5.9404994554535  Z M 18.25 6.49999940416594  L 18.2095 6.499999404165936  C 17.830113728431556 3.0811676764507645  14.940498420085543 0.4944746580155321  11.500680624276486 0.4944746580155321  C 8.632158033671885 0.4944746580155321  6.0769516372917405 2.307462670029062  5.1294999999999975 5.0149995402911065  C 2.7943653195409253 5.2061324382744925  0.9966014689200453 7.157056802235172  0.9966014689200453 9.500000412500503  C 0.9966014689200453 11.985281558921333  3.0113200946814747 14  5.496601468920045 14  C 5.497734312735886 14  5.498867156507229 13.999999572221672  5.5 14  L 18.25 14  C 20.321067811865472 13.999998716665099  21.999999999999996 12.321066682432878  21.999999999999996 10.249999060415517  C 21.999999999999996 8.178931438398159  20.321067811865472 6.499999404165936  18.25 6.499999404165936  Z " fill-rule="evenodd" />
    </mask>
  </defs>
  <g transform="matrix(1 0 0 1 0 -9 )">
    <path d="M 6.415000000000001 5.9404994554535  C 7.013440523326858 3.621336444373218  9.104869791247244 2.0006331454963275  11.5 1.9999998166664428  C 14.40014319154863 1.9999997766441144  16.75064825493697 4.350504624569224  16.75064825493697 7.249999295393527  C 16.75064825493697 7.277500579637415  16.750432163287382 7.305001439389131  16.75 7.332499327853346  C 16.749941705584252 7.336316504851755  16.749912557101965 7.340134071308939  16.749912557101965 7.343951693405936  C 16.749912557101965 7.75816521780941  17.08569899472887 8.093951624655853  17.499912557101965 8.093951624655853  C 17.5626786782979 8.093951624655853  17.62519656425006 8.086072574767684  17.686 8.070499260203267  C 17.868814459796667 8.023664601238936  18.05678608994525 7.99996928506809  18.245504431378162 7.99996928506809  C 19.488885106152864 7.99996928506809  20.49753473741676 9.00662094356938  20.5 10.249999060415519  C 20.5 11.492639633625934  19.492640687119284 12.499998854165268  18.25 12.499998854165268  L 5.5 12.499998854165268  C 3.8497848060823427 12.49067896417725  2.5169427761515637 11.150288332812575  2.5169427761515637 9.500046972486668  C 2.5169427761515637 7.8431928748727815  3.8600885266591836 6.500047247487005  5.516942776151563 6.500047247487005  C 5.56131155772188 6.500047247487005  5.605674879627902 6.501031541770894  5.65 6.502999403890939  C 6.00633901646195 6.5213443518036325  6.32626917269458 6.28610161143182  6.415000000000001 5.9404994554535  Z M 18.25 6.49999940416594  L 18.2095 6.499999404165936  C 17.830113728431556 3.0811676764507645  14.940498420085543 0.4944746580155321  11.500680624276486 0.4944746580155321  C 8.632158033671885 0.4944746580155321  6.0769516372917405 2.307462670029062  5.1294999999999975 5.0149995402911065  C 2.7943653195409253 5.2061324382744925  0.9966014689200453 7.157056802235172  0.9966014689200453 9.500000412500503  C 0.9966014689200453 11.985281558921333  3.0113200946814747 14  5.496601468920045 14  C 5.497734312735886 14  5.498867156507229 13.999999572221672  5.5 14  L 18.25 14  C 20.321067811865472 13.999998716665099  21.999999999999996 12.321066682432878  21.999999999999996 10.249999060415517  C 21.999999999999996 8.178931438398159  20.321067811865472 6.499999404165936  18.25 6.499999404165936  Z " fill-rule="nonzero" fill="rgba(0, 0, 0, 1)" stroke="none" transform="matrix(1 0 0 1 0 9 )" class="fill" />
    <path d="M 6.415000000000001 5.9404994554535  C 7.013440523326858 3.621336444373218  9.104869791247244 2.0006331454963275  11.5 1.9999998166664428  C 14.40014319154863 1.9999997766441144  16.75064825493697 4.350504624569224  16.75064825493697 7.249999295393527  C 16.75064825493697 7.277500579637415  16.750432163287382 7.305001439389131  16.75 7.332499327853346  C 16.749941705584252 7.336316504851755  16.749912557101965 7.340134071308939  16.749912557101965 7.343951693405936  C 16.749912557101965 7.75816521780941  17.08569899472887 8.093951624655853  17.499912557101965 8.093951624655853  C 17.5626786782979 8.093951624655853  17.62519656425006 8.086072574767684  17.686 8.070499260203267  C 17.868814459796667 8.023664601238936  18.05678608994525 7.99996928506809  18.245504431378162 7.99996928506809  C 19.488885106152864 7.99996928506809  20.49753473741676 9.00662094356938  20.5 10.249999060415519  C 20.5 11.492639633625934  19.492640687119284 12.499998854165268  18.25 12.499998854165268  L 5.5 12.499998854165268  C 3.8497848060823427 12.49067896417725  2.5169427761515637 11.150288332812575  2.5169427761515637 9.500046972486668  C 2.5169427761515637 7.8431928748727815  3.8600885266591836 6.500047247487005  5.516942776151563 6.500047247487005  C 5.56131155772188 6.500047247487005  5.605674879627902 6.501031541770894  5.65 6.502999403890939  C 6.00633901646195 6.5213443518036325  6.32626917269458 6.28610161143182  6.415000000000001 5.9404994554535  Z " stroke-width="0" stroke-dasharray="0" stroke="rgba(255, 255, 255, 0)" fill="none" transform="matrix(1 0 0 1 0 9 )" class="stroke" mask="url(#Clip5230)" />
    <path d="M 18.25 6.49999940416594  L 18.2095 6.499999404165936  C 17.830113728431556 3.0811676764507645  14.940498420085543 0.4944746580155321  11.500680624276486 0.4944746580155321  C 8.632158033671885 0.4944746580155321  6.0769516372917405 2.307462670029062  5.1294999999999975 5.0149995402911065  C 2.7943653195409253 5.2061324382744925  0.9966014689200453 7.157056802235172  0.9966014689200453 9.500000412500503  C 0.9966014689200453 11.985281558921333  3.0113200946814747 14  5.496601468920045 14  C 5.497734312735886 14  5.498867156507229 13.999999572221672  5.5 14  L 18.25 14  C 20.321067811865472 13.999998716665099  21.999999999999996 12.321066682432878  21.999999999999996 10.249999060415517  C 21.999999999999996 8.178931438398159  20.321067811865472 6.499999404165936  18.25 6.499999404165936  Z " stroke-width="0" stroke-dasharray="0" stroke="rgba(255, 255, 255, 0)" fill="none" transform="matrix(1 0 0 1 0 9 )" class="stroke" mask="url(#Clip5230)" />
  </g>
</svg>