<?xml version="1.0" encoding="utf-8"?>
<svg version="1.1" xmlns:xlink="http://www.w3.org/1999/xlink" width="44px" height="50px" xmlns="http://www.w3.org/2000/svg">
  <defs>
    <pattern id="BGPattern" patternUnits="userSpaceOnUse" alignment="0 0" imageRepeat="None" />
    <mask fill="white" id="Clip2114">
      <path d="M 43 29.72709551656919  C 43.664717348927866 27.14424951267057  41.56920077972708 25.04873294346976  38.98635477582846 25  L 15 25  L 15 15  C 14.814814814814808 11.140350877192986  17.904483430799218 7.93372319688109  21.76413255360623 7.89473684210526  C 25.662768031189074 7.8557504873294315  28.849902534113056 11.023391812865498  28.849902534113056 14.912280701754414  L 28.849902534113056 16.471734892787538  C 28.849902534113056 17.768031189083842  29.892787524366465 18.810916179337255  31.189083820662773 18.810916179337255  L 34.307992202729054 18.810916179337255  C 35.60428849902533 18.810916179337255  36.64717348927874 17.768031189083842  36.64717348927874 16.471734892787538  L 36.64717348927874 14.912280701754414  C 36.64717348927874 6.725146198830402  29.970760233918124 0.06822612085770174  21.783625730994146 0.09746588693957392  C 13.596491228070164 0.1267056530214461  7.017543859649123 6.871345029239763  7.017543859649123 15.058479532163743  L 7.017543859649123 25.04873294346976  L 4.678362573099406 25.04873294346976  C 2.0955165692007824 25.04873294346976  0 27.14424951267057  0 29.72709551656919  L 0 45.321637426900566  C 0 47.904483430799246  2.0955165692007824 50  4.678362573099406 50  L 38.98635477582846 50  C 41.56920077972708 50  43.664717348927866 47.904483430799246  43 45.321637426900566  L 43 29.72709551656919  Z M 25.730994152046776 35.18518518518516  L 25.730994152046776 39.8635477582846  C 25.730994152046776 42.017543859649095  23.98635477582846 43.76218323586744  21.832358674463933 43.76218323586744  C 19.678362573099406 43.76218323586744  17.93372319688109 42.017543859649095  17.93372319688109 39.8635477582846  L 17.93372319688109 35.18518518518516  C 17.93372319688109 33.031189083820664  19.678362573099406 31.28654970760232  21.832358674463933 31.28654970760232  C 23.98635477582846 31.28654970760232  25.730994152046776 33.031189083820664  25.730994152046776 35.18518518518516  Z " fill-rule="evenodd" />
    </mask>
  </defs>
  <g>
    <path d="M 43 29.72709551656919  C 43.664717348927866 27.14424951267057  41.56920077972708 25.04873294346976  38.98635477582846 25  L 15 25  L 15 15  C 14.814814814814808 11.140350877192986  17.904483430799218 7.93372319688109  21.76413255360623 7.89473684210526  C 25.662768031189074 7.8557504873294315  28.849902534113056 11.023391812865498  28.849902534113056 14.912280701754414  L 28.849902534113056 16.471734892787538  C 28.849902534113056 17.768031189083842  29.892787524366465 18.810916179337255  31.189083820662773 18.810916179337255  L 34.307992202729054 18.810916179337255  C 35.60428849902533 18.810916179337255  36.64717348927874 17.768031189083842  36.64717348927874 16.471734892787538  L 36.64717348927874 14.912280701754414  C 36.64717348927874 6.725146198830402  29.970760233918124 0.06822612085770174  21.783625730994146 0.09746588693957392  C 13.596491228070164 0.1267056530214461  7.017543859649123 6.871345029239763  7.017543859649123 15.058479532163743  L 7.017543859649123 25.04873294346976  L 4.678362573099406 25.04873294346976  C 2.0955165692007824 25.04873294346976  0 27.14424951267057  0 29.72709551656919  L 0 45.321637426900566  C 0 47.904483430799246  2.0955165692007824 50  4.678362573099406 50  L 38.98635477582846 50  C 41.56920077972708 50  43.664717348927866 47.904483430799246  43 45.321637426900566  L 43 29.72709551656919  Z M 25.730994152046776 35.18518518518516  L 25.730994152046776 39.8635477582846  C 25.730994152046776 42.017543859649095  23.98635477582846 43.76218323586744  21.832358674463933 43.76218323586744  C 19.678362573099406 43.76218323586744  17.93372319688109 42.017543859649095  17.93372319688109 39.8635477582846  L 17.93372319688109 35.18518518518516  C 17.93372319688109 33.031189083820664  19.678362573099406 31.28654970760232  21.832358674463933 31.28654970760232  C 23.98635477582846 31.28654970760232  25.730994152046776 33.031189083820664  25.730994152046776 35.18518518518516  Z " fill-rule="nonzero" fill="rgba(0, 0, 0, 1)" stroke="none" class="fill" />
    <path d="M 43 29.72709551656919  C 43.664717348927866 27.14424951267057  41.56920077972708 25.04873294346976  38.98635477582846 25  L 15 25  L 15 15  C 14.814814814814808 11.140350877192986  17.904483430799218 7.93372319688109  21.76413255360623 7.89473684210526  C 25.662768031189074 7.8557504873294315  28.849902534113056 11.023391812865498  28.849902534113056 14.912280701754414  L 28.849902534113056 16.471734892787538  C 28.849902534113056 17.768031189083842  29.892787524366465 18.810916179337255  31.189083820662773 18.810916179337255  L 34.307992202729054 18.810916179337255  C 35.60428849902533 18.810916179337255  36.64717348927874 17.768031189083842  36.64717348927874 16.471734892787538  L 36.64717348927874 14.912280701754414  C 36.64717348927874 6.725146198830402  29.970760233918124 0.06822612085770174  21.783625730994146 0.09746588693957392  C 13.596491228070164 0.1267056530214461  7.017543859649123 6.871345029239763  7.017543859649123 15.058479532163743  L 7.017543859649123 25.04873294346976  L 4.678362573099406 25.04873294346976  C 2.0955165692007824 25.04873294346976  0 27.14424951267057  0 29.72709551656919  L 0 45.321637426900566  C 0 47.904483430799246  2.0955165692007824 50  4.678362573099406 50  L 38.98635477582846 50  C 41.56920077972708 50  43.664717348927866 47.904483430799246  43 45.321637426900566  L 43 29.72709551656919  Z " stroke-width="0" stroke-dasharray="0" stroke="rgba(255, 255, 255, 0)" fill="none" class="stroke" mask="url(#Clip2114)" />
    <path d="M 25.730994152046776 35.18518518518516  L 25.730994152046776 39.8635477582846  C 25.730994152046776 42.017543859649095  23.98635477582846 43.76218323586744  21.832358674463933 43.76218323586744  C 19.678362573099406 43.76218323586744  17.93372319688109 42.017543859649095  17.93372319688109 39.8635477582846  L 17.93372319688109 35.18518518518516  C 17.93372319688109 33.031189083820664  19.678362573099406 31.28654970760232  21.832358674463933 31.28654970760232  C 23.98635477582846 31.28654970760232  25.730994152046776 33.031189083820664  25.730994152046776 35.18518518518516  Z " stroke-width="0" stroke-dasharray="0" stroke="rgba(255, 255, 255, 0)" fill="none" class="stroke" mask="url(#Clip2114)" />
  </g>
</svg>