<?xml version="1.0" encoding="utf-8"?>
<svg version="1.1" xmlns:xlink="http://www.w3.org/1999/xlink" width="25px" height="24px" xmlns="http://www.w3.org/2000/svg">
  <defs>
    <pattern id="BGPattern" patternUnits="userSpaceOnUse" alignment="0 0" imageRepeat="None" />
    <mask fill="white" id="Clip5415">
      <path d="M 23.349 10.425  L 13.575000000000001 0.6525  C 12.705000000000002 -0.21749999999999994  11.295000000000002 -0.21749999999999994  10.425 0.6525  L 0.654 10.425  C -0.21599999999999997 11.295  -0.21599999999999997 12.703499999999998  0.654 13.572  L 10.428 23.346  C 11.298 24.215999999999998  12.706500000000002 24.215999999999998  13.575000000000001 23.346  L 23.349 13.572  C 24.219 12.702  24.219 11.2935  23.349 10.425  Z M 13.3567294084683 7.357499781284952  C 13.3567294084683 6.608074150431293  12.749425510109155 6.00042541513427  12 6  C 11.250574489890845 6.00042541513427  10.643270591531696 6.608074150431291  10.643270591531696 7.35749978128495  C 10.643270591531696 7.402583680354292  10.645516511060855 7.447639591149576  10.649999999999999 7.4925  L 11.174999999999997 12.753  C 11.211570375424497 13.181436352370337  11.570005697257407 13.51057983243417  11.999999999999998 13.51057983243417  C 12.42999430274259 13.51057983243417  12.788429624575501 13.181436352370337  12.825000000000001 12.753  L 13.349999999999998 7.4925000000000015  C 13.354483488939142 7.44763959114959  13.3567294084683 7.402583680354281  13.3567294084683 7.357499781284952  Z M 13.503000000000002 16.5  C 13.503000000000002 15.67157287525381  12.831427124746192 15  12.003 15  C 11.174572875253812 15  10.503 15.67157287525381  10.503 16.5  C 10.503 17.32842712474619  11.174572875253812 18  12.003 18  C 12.831427124746192 18  13.503000000000002 17.32842712474619  13.503000000000002 16.5  Z " fill-rule="evenodd" />
    </mask>
  </defs>
  <g>
    <path d="M 23.349 10.425  L 13.575000000000001 0.6525  C 12.705000000000002 -0.21749999999999994  11.295000000000002 -0.21749999999999994  10.425 0.6525  L 0.654 10.425  C -0.21599999999999997 11.295  -0.21599999999999997 12.703499999999998  0.654 13.572  L 10.428 23.346  C 11.298 24.215999999999998  12.706500000000002 24.215999999999998  13.575000000000001 23.346  L 23.349 13.572  C 24.219 12.702  24.219 11.2935  23.349 10.425  Z M 13.3567294084683 7.357499781284952  C 13.3567294084683 6.608074150431293  12.749425510109155 6.00042541513427  12 6  C 11.250574489890845 6.00042541513427  10.643270591531696 6.608074150431291  10.643270591531696 7.35749978128495  C 10.643270591531696 7.402583680354292  10.645516511060855 7.447639591149576  10.649999999999999 7.4925  L 11.174999999999997 12.753  C 11.211570375424497 13.181436352370337  11.570005697257407 13.51057983243417  11.999999999999998 13.51057983243417  C 12.42999430274259 13.51057983243417  12.788429624575501 13.181436352370337  12.825000000000001 12.753  L 13.349999999999998 7.4925000000000015  C 13.354483488939142 7.44763959114959  13.3567294084683 7.402583680354281  13.3567294084683 7.357499781284952  Z M 13.503000000000002 16.5  C 13.503000000000002 15.67157287525381  12.831427124746192 15  12.003 15  C 11.174572875253812 15  10.503 15.67157287525381  10.503 16.5  C 10.503 17.32842712474619  11.174572875253812 18  12.003 18  C 12.831427124746192 18  13.503000000000002 17.32842712474619  13.503000000000002 16.5  Z " fill-rule="nonzero" fill="rgba(0, 0, 0, 1)" stroke="none" class="fill" />
    <path d="M 23.349 10.425  L 13.575000000000001 0.6525  C 12.705000000000002 -0.21749999999999994  11.295000000000002 -0.21749999999999994  10.425 0.6525  L 0.654 10.425  C -0.21599999999999997 11.295  -0.21599999999999997 12.703499999999998  0.654 13.572  L 10.428 23.346  C 11.298 24.215999999999998  12.706500000000002 24.215999999999998  13.575000000000001 23.346  L 23.349 13.572  C 24.219 12.702  24.219 11.2935  23.349 10.425  Z " stroke-width="0" stroke-dasharray="0" stroke="rgba(255, 255, 255, 0)" fill="none" class="stroke" mask="url(#Clip5415)" />
    <path d="M 13.3567294084683 7.357499781284952  C 13.3567294084683 6.608074150431293  12.749425510109155 6.00042541513427  12 6  C 11.250574489890845 6.00042541513427  10.643270591531696 6.608074150431291  10.643270591531696 7.35749978128495  C 10.643270591531696 7.402583680354292  10.645516511060855 7.447639591149576  10.649999999999999 7.4925  L 11.174999999999997 12.753  C 11.211570375424497 13.181436352370337  11.570005697257407 13.51057983243417  11.999999999999998 13.51057983243417  C 12.42999430274259 13.51057983243417  12.788429624575501 13.181436352370337  12.825000000000001 12.753  L 13.349999999999998 7.4925000000000015  C 13.354483488939142 7.44763959114959  13.3567294084683 7.402583680354281  13.3567294084683 7.357499781284952  Z " stroke-width="0" stroke-dasharray="0" stroke="rgba(255, 255, 255, 0)" fill="none" class="stroke" mask="url(#Clip5415)" />
    <path d="M 13.503000000000002 16.5  C 13.503000000000002 15.67157287525381  12.831427124746192 15  12.003 15  C 11.174572875253812 15  10.503 15.67157287525381  10.503 16.5  C 10.503 17.32842712474619  11.174572875253812 18  12.003 18  C 12.831427124746192 18  13.503000000000002 17.32842712474619  13.503000000000002 16.5  Z " stroke-width="0" stroke-dasharray="0" stroke="rgba(255, 255, 255, 0)" fill="none" class="stroke" mask="url(#Clip5415)" />
  </g>
</svg>