<?xml version="1.0" encoding="utf-8"?>
<svg version="1.1" xmlns:xlink="http://www.w3.org/1999/xlink" width="28px" height="12px" xmlns="http://www.w3.org/2000/svg">
  <defs>
    <pattern id="BGPattern" patternUnits="userSpaceOnUse" alignment="0 0" imageRepeat="None" />
    <mask fill="white" id="Clip4269">
      <path d="M 0 5  L 0 7  L 5.099999999999999 6.9999999999999964  C 5.573192465901287 9.330323978420093  7.622118389367247 11.005012562893373  9.999999999999998 11.005012562893373  C 12.377881610632748 11.005012562893373  14.426807534098707 9.330323978420093  14.9 7  L 28 7  L 28 5  L 14.899999999999993 5  C 14.426807534098707 2.669676021579903  12.377881610632748 0.9949874371066194  9.999999999999998 0.9949874371066194  C 7.622118389367247 0.9949874371066194  5.573192465901286 2.669676021579903  5.099999999999998 5  L 0 5  Z M 10 9  C 8.34314575050762 9  7 7.65685424949238  7 6  C 7 4.34314575050762  8.34314575050762 3  10 3  C 11.65685424949238 3  13 4.34314575050762  13 6  C 13 7.65685424949238  11.65685424949238 9  10 9  Z " fill-rule="evenodd" />
    </mask>
  </defs>
  <g transform="matrix(1 0 0 1 -2 -18 )">
    <path d="M 0 5  L 0 7  L 5.099999999999999 6.9999999999999964  C 5.573192465901287 9.330323978420093  7.622118389367247 11.005012562893373  9.999999999999998 11.005012562893373  C 12.377881610632748 11.005012562893373  14.426807534098707 9.330323978420093  14.9 7  L 28 7  L 28 5  L 14.899999999999993 5  C 14.426807534098707 2.669676021579903  12.377881610632748 0.9949874371066194  9.999999999999998 0.9949874371066194  C 7.622118389367247 0.9949874371066194  5.573192465901286 2.669676021579903  5.099999999999998 5  L 0 5  Z M 10 9  C 8.34314575050762 9  7 7.65685424949238  7 6  C 7 4.34314575050762  8.34314575050762 3  10 3  C 11.65685424949238 3  13 4.34314575050762  13 6  C 13 7.65685424949238  11.65685424949238 9  10 9  Z " fill-rule="nonzero" fill="rgba(0, 0, 0, 1)" stroke="none" transform="matrix(1 0 0 1 2 18 )" class="fill" />
    <path d="M 0 5  L 0 7  L 5.099999999999999 6.9999999999999964  C 5.573192465901287 9.330323978420093  7.622118389367247 11.005012562893373  9.999999999999998 11.005012562893373  C 12.377881610632748 11.005012562893373  14.426807534098707 9.330323978420093  14.9 7  L 28 7  L 28 5  L 14.899999999999993 5  C 14.426807534098707 2.669676021579903  12.377881610632748 0.9949874371066194  9.999999999999998 0.9949874371066194  C 7.622118389367247 0.9949874371066194  5.573192465901286 2.669676021579903  5.099999999999998 5  L 0 5  Z " stroke-width="0" stroke-dasharray="0" stroke="rgba(255, 255, 255, 0)" fill="none" transform="matrix(1 0 0 1 2 18 )" class="stroke" mask="url(#Clip4269)" />
    <path d="M 10 9  C 8.34314575050762 9  7 7.65685424949238  7 6  C 7 4.34314575050762  8.34314575050762 3  10 3  C 11.65685424949238 3  13 4.34314575050762  13 6  C 13 7.65685424949238  11.65685424949238 9  10 9  Z " stroke-width="0" stroke-dasharray="0" stroke="rgba(255, 255, 255, 0)" fill="none" transform="matrix(1 0 0 1 2 18 )" class="stroke" mask="url(#Clip4269)" />
  </g>
</svg>