<?xml version="1.0" encoding="utf-8"?>
<svg version="1.1" xmlns:xlink="http://www.w3.org/1999/xlink" width="50px" height="52px" xmlns="http://www.w3.org/2000/svg">
  <defs>
    <pattern id="BGPattern" patternUnits="userSpaceOnUse" alignment="0 0" imageRepeat="None" />
    <mask fill="white" id="Clip3033">
      <path d="M 2 25  C 0.8937499999999997 25  0 25.89375  0 27.000000000000004  L 0 49.75  C 0 50.85625  0.8937499999999997 51.75  2 51.75  L 6 51.75  L 6 25  L 2 25  Z M 48.70625 29.668750000000003  C 48.70625 28.88125  48.59375 28.106250000000006  48.36875 27.356250000000003  C 49.418749999999996 25.968750000000004  50 24.268750000000004  50 22.500000000000004  C 50 19.693750000000005  48.43125 17.031250000000004  45.90625 15.5625  C 45.25621317547905 15.181219328889377  44.51610621805808 14.980548929355411  43.7625 15  L 28.768749999999997 15  L 29.143749999999997 7.3000000000000025  C 29.2375 5.443750000000003  28.581249999999997 3.681250000000002  27.299999999999997 2.337500000000002  C 26.036237091765358 0.9973915656332438  24.273236698459616 0.24149666015940777  22.43125 0.2500000000000018  C 19.18125 0.2500000000000018  16.30625 2.4375000000000018  15.443749999999998 5.568750000000001  L 10 24.993750000000002  L 10 51  L 39.568749999999994 51  C 40.14999999999999 51.743750000000006  40.70625 51.63125000000001  41.224999999999994 51.40625000000001  C 44.199999999999996 50.13750000000001  46.11874999999999 47.23125000000001  46.11874999999999 44.00625000000001  C 46.11874999999999 43.21875000000001  46.006249999999994 42.44375000000001  45.78124999999999 41.69375000000001  C 46.83124999999999 40.306250000000006  47.412499999999994 38.60625000000001  47.412499999999994 36.837500000000006  C 47.412499999999994 36.050000000000004  47.3 35.275000000000006  47.074999999999996 34.525000000000006  C 48.12499999999999 33.1375  48.70625 31.437500000000007  48.70625 29.668750000000003  Z M 45.5 22.5  C 45.5 23.53125  45.05625 24.5125  44.275 25.1875  L 42.90625 26.375  L 43.78125 27.968749999999996  C 44.06746289019228 28.4916889479358  44.215871156493904 29.07886947982484  44.2125 29.674999999999997  C 44.2125 30.706249999999997  43.76875 31.6875  42.9875 32.3625  L 41.61875 33.55  L 42.4875 35.13749999999999  C 42.77371289019228 35.66043894793579  42.9221211564939 36.24761947982483  42.918749999999996 36.84374999999999  C 42.918749999999996 37.87499999999999  42.474999999999994 38.856249999999996  41.693749999999994 39.53124999999999  L 40.324999999999996 40.71874999999999  L 41.19374999999999 42.30624999999999  C 41.47996289019227 42.829188947935776  41.6283711564939 43.41636947982482  41.62499999999999 44.01249999999999  C 41.62499999999999 45.41249999999999  40.79999999999999 46.67499999999999  39.52499999999999 47  L 15 47  L 15 25.675  C 15.725 21.475  17.4625 15.175  19.78125 6.768750000000001  C 20.114021223173012 5.5844235292680064  21.18861842176417 4.761923777739701  22.41875 4.75  C 22.8875 4.74375  23.35625 4.887499999999999  23.7375 5.168749999999999  C 24.35625 5.63125  24.6875 6.331249999999999  24.650000000000002 7.074999999999999  L 24.05 20  L 43.7 20  C 44.8125 20.15625  45.5 21.30625  45.5 22.5  Z " fill-rule="evenodd" />
    </mask>
  </defs>
  <g>
    <path d="M 2 25  C 0.8937499999999997 25  0 25.89375  0 27.000000000000004  L 0 49.75  C 0 50.85625  0.8937499999999997 51.75  2 51.75  L 6 51.75  L 6 25  L 2 25  Z M 48.70625 29.668750000000003  C 48.70625 28.88125  48.59375 28.106250000000006  48.36875 27.356250000000003  C 49.418749999999996 25.968750000000004  50 24.268750000000004  50 22.500000000000004  C 50 19.693750000000005  48.43125 17.031250000000004  45.90625 15.5625  C 45.25621317547905 15.181219328889377  44.51610621805808 14.980548929355411  43.7625 15  L 28.768749999999997 15  L 29.143749999999997 7.3000000000000025  C 29.2375 5.443750000000003  28.581249999999997 3.681250000000002  27.299999999999997 2.337500000000002  C 26.036237091765358 0.9973915656332438  24.273236698459616 0.24149666015940777  22.43125 0.2500000000000018  C 19.18125 0.2500000000000018  16.30625 2.4375000000000018  15.443749999999998 5.568750000000001  L 10 24.993750000000002  L 10 51  L 39.568749999999994 51  C 40.14999999999999 51.743750000000006  40.70625 51.63125000000001  41.224999999999994 51.40625000000001  C 44.199999999999996 50.13750000000001  46.11874999999999 47.23125000000001  46.11874999999999 44.00625000000001  C 46.11874999999999 43.21875000000001  46.006249999999994 42.44375000000001  45.78124999999999 41.69375000000001  C 46.83124999999999 40.306250000000006  47.412499999999994 38.60625000000001  47.412499999999994 36.837500000000006  C 47.412499999999994 36.050000000000004  47.3 35.275000000000006  47.074999999999996 34.525000000000006  C 48.12499999999999 33.1375  48.70625 31.437500000000007  48.70625 29.668750000000003  Z M 45.5 22.5  C 45.5 23.53125  45.05625 24.5125  44.275 25.1875  L 42.90625 26.375  L 43.78125 27.968749999999996  C 44.06746289019228 28.4916889479358  44.215871156493904 29.07886947982484  44.2125 29.674999999999997  C 44.2125 30.706249999999997  43.76875 31.6875  42.9875 32.3625  L 41.61875 33.55  L 42.4875 35.13749999999999  C 42.77371289019228 35.66043894793579  42.9221211564939 36.24761947982483  42.918749999999996 36.84374999999999  C 42.918749999999996 37.87499999999999  42.474999999999994 38.856249999999996  41.693749999999994 39.53124999999999  L 40.324999999999996 40.71874999999999  L 41.19374999999999 42.30624999999999  C 41.47996289019227 42.829188947935776  41.6283711564939 43.41636947982482  41.62499999999999 44.01249999999999  C 41.62499999999999 45.41249999999999  40.79999999999999 46.67499999999999  39.52499999999999 47  L 15 47  L 15 25.675  C 15.725 21.475  17.4625 15.175  19.78125 6.768750000000001  C 20.114021223173012 5.5844235292680064  21.18861842176417 4.761923777739701  22.41875 4.75  C 22.8875 4.74375  23.35625 4.887499999999999  23.7375 5.168749999999999  C 24.35625 5.63125  24.6875 6.331249999999999  24.650000000000002 7.074999999999999  L 24.05 20  L 43.7 20  C 44.8125 20.15625  45.5 21.30625  45.5 22.5  Z " fill-rule="nonzero" fill="rgba(0, 0, 0, 1)" stroke="none" class="fill" />
    <path d="M 2 25  C 0.8937499999999997 25  0 25.89375  0 27.000000000000004  L 0 49.75  C 0 50.85625  0.8937499999999997 51.75  2 51.75  L 6 51.75  L 6 25  L 2 25  Z " stroke-width="0" stroke-dasharray="0" stroke="rgba(255, 255, 255, 0)" fill="none" class="stroke" mask="url(#Clip3033)" />
    <path d="M 48.70625 29.668750000000003  C 48.70625 28.88125  48.59375 28.106250000000006  48.36875 27.356250000000003  C 49.418749999999996 25.968750000000004  50 24.268750000000004  50 22.500000000000004  C 50 19.693750000000005  48.43125 17.031250000000004  45.90625 15.5625  C 45.25621317547905 15.181219328889377  44.51610621805808 14.980548929355411  43.7625 15  L 28.768749999999997 15  L 29.143749999999997 7.3000000000000025  C 29.2375 5.443750000000003  28.581249999999997 3.681250000000002  27.299999999999997 2.337500000000002  C 26.036237091765358 0.9973915656332438  24.273236698459616 0.24149666015940777  22.43125 0.2500000000000018  C 19.18125 0.2500000000000018  16.30625 2.4375000000000018  15.443749999999998 5.568750000000001  L 10 24.993750000000002  L 10 51  L 39.568749999999994 51  C 40.14999999999999 51.743750000000006  40.70625 51.63125000000001  41.224999999999994 51.40625000000001  C 44.199999999999996 50.13750000000001  46.11874999999999 47.23125000000001  46.11874999999999 44.00625000000001  C 46.11874999999999 43.21875000000001  46.006249999999994 42.44375000000001  45.78124999999999 41.69375000000001  C 46.83124999999999 40.306250000000006  47.412499999999994 38.60625000000001  47.412499999999994 36.837500000000006  C 47.412499999999994 36.050000000000004  47.3 35.275000000000006  47.074999999999996 34.525000000000006  C 48.12499999999999 33.1375  48.70625 31.437500000000007  48.70625 29.668750000000003  Z " stroke-width="0" stroke-dasharray="0" stroke="rgba(255, 255, 255, 0)" fill="none" class="stroke" mask="url(#Clip3033)" />
    <path d="M 45.5 22.5  C 45.5 23.53125  45.05625 24.5125  44.275 25.1875  L 42.90625 26.375  L 43.78125 27.968749999999996  C 44.06746289019228 28.4916889479358  44.215871156493904 29.07886947982484  44.2125 29.674999999999997  C 44.2125 30.706249999999997  43.76875 31.6875  42.9875 32.3625  L 41.61875 33.55  L 42.4875 35.13749999999999  C 42.77371289019228 35.66043894793579  42.9221211564939 36.24761947982483  42.918749999999996 36.84374999999999  C 42.918749999999996 37.87499999999999  42.474999999999994 38.856249999999996  41.693749999999994 39.53124999999999  L 40.324999999999996 40.71874999999999  L 41.19374999999999 42.30624999999999  C 41.47996289019227 42.829188947935776  41.6283711564939 43.41636947982482  41.62499999999999 44.01249999999999  C 41.62499999999999 45.41249999999999  40.79999999999999 46.67499999999999  39.52499999999999 47  L 15 47  L 15 25.675  C 15.725 21.475  17.4625 15.175  19.78125 6.768750000000001  C 20.114021223173012 5.5844235292680064  21.18861842176417 4.761923777739701  22.41875 4.75  C 22.8875 4.74375  23.35625 4.887499999999999  23.7375 5.168749999999999  C 24.35625 5.63125  24.6875 6.331249999999999  24.650000000000002 7.074999999999999  L 24.05 20  L 43.7 20  C 44.8125 20.15625  45.5 21.30625  45.5 22.5  Z " stroke-width="0" stroke-dasharray="0" stroke="rgba(255, 255, 255, 0)" fill="none" class="stroke" mask="url(#Clip3033)" />
  </g>
</svg>