<?xml version="1.0" encoding="utf-8"?>
<svg version="1.1" xmlns:xlink="http://www.w3.org/1999/xlink" width="50px" height="42px" xmlns="http://www.w3.org/2000/svg">
  <defs>
    <pattern id="BGPattern" patternUnits="userSpaceOnUse" alignment="0 0" imageRepeat="None" />
    <mask fill="white" id="Clip2577">
      <path d="M 23.6875 16.25  C 23.45 16.25  23.25 16.45  23.25 16.69375  L 23.25 22  L 17.96875 22  C 17.7125 22  17.5 22.19375  17.5 22.4375  L 17.5 25.0625  C 17.5 25.299999999999997  17.7125 25.499999999999996  17.96875 25.499999999999996  L 23.25 25.499999999999996  L 23.25 30.80625  C 23.25 31.049999999999997  23.45 31.25  23.6875 31.25  L 26.3125 31.25  C 26.55625 31.25  26.75 31.049999999999997  26.75 30.80625  L 26.75 25.499999999999996  L 32.03125 25.499999999999996  C 32.2875 25.499999999999996  32.5 25.299999999999997  32.5 25.0625  L 32.5 22.4375  C 32.5 22.19375  32.2875 22  32.03125 22  L 26.75 22  L 26.75 16.69375  C 26.75 16.450000000000003  26.55625 16.25  26.3125 16.25  L 23.6875 16.25  Z M 50 9.649999999999999  C 50 8.54375  49.10625 7.649999999999999  48 8  L 25.5625 8  L 18.231250000000003 0.6374999999999993  C 18.137968682019967 0.5501736260793368  18.01527362606876 0.5010956036988556  17.8875 1  L 2 1  C 0.8937499999999997 0.5  0 1.3937500000000005  0 2.5  L 0 39.5  C 0 40.60625  0.8937499999999997 41.5  2 41  L 48 41  C 49.10625 41.5  50 40.60625  50 39.5  L 50 9.649999999999999  Z M 45 12.149999999999999  L 45 37  L 5 37  L 5 5  L 16.28125 5  L 23.75625 12.149999999999999  L 45 12.149999999999999  Z " fill-rule="evenodd" />
    </mask>
  </defs>
  <g>
    <path d="M 23.6875 16.25  C 23.45 16.25  23.25 16.45  23.25 16.69375  L 23.25 22  L 17.96875 22  C 17.7125 22  17.5 22.19375  17.5 22.4375  L 17.5 25.0625  C 17.5 25.299999999999997  17.7125 25.499999999999996  17.96875 25.499999999999996  L 23.25 25.499999999999996  L 23.25 30.80625  C 23.25 31.049999999999997  23.45 31.25  23.6875 31.25  L 26.3125 31.25  C 26.55625 31.25  26.75 31.049999999999997  26.75 30.80625  L 26.75 25.499999999999996  L 32.03125 25.499999999999996  C 32.2875 25.499999999999996  32.5 25.299999999999997  32.5 25.0625  L 32.5 22.4375  C 32.5 22.19375  32.2875 22  32.03125 22  L 26.75 22  L 26.75 16.69375  C 26.75 16.450000000000003  26.55625 16.25  26.3125 16.25  L 23.6875 16.25  Z M 50 9.649999999999999  C 50 8.54375  49.10625 7.649999999999999  48 8  L 25.5625 8  L 18.231250000000003 0.6374999999999993  C 18.137968682019967 0.5501736260793368  18.01527362606876 0.5010956036988556  17.8875 1  L 2 1  C 0.8937499999999997 0.5  0 1.3937500000000005  0 2.5  L 0 39.5  C 0 40.60625  0.8937499999999997 41.5  2 41  L 48 41  C 49.10625 41.5  50 40.60625  50 39.5  L 50 9.649999999999999  Z M 45 12.149999999999999  L 45 37  L 5 37  L 5 5  L 16.28125 5  L 23.75625 12.149999999999999  L 45 12.149999999999999  Z " fill-rule="nonzero" fill="rgba(0, 0, 0, 1)" stroke="none" class="fill" />
    <path d="M 23.6875 16.25  C 23.45 16.25  23.25 16.45  23.25 16.69375  L 23.25 22  L 17.96875 22  C 17.7125 22  17.5 22.19375  17.5 22.4375  L 17.5 25.0625  C 17.5 25.299999999999997  17.7125 25.499999999999996  17.96875 25.499999999999996  L 23.25 25.499999999999996  L 23.25 30.80625  C 23.25 31.049999999999997  23.45 31.25  23.6875 31.25  L 26.3125 31.25  C 26.55625 31.25  26.75 31.049999999999997  26.75 30.80625  L 26.75 25.499999999999996  L 32.03125 25.499999999999996  C 32.2875 25.499999999999996  32.5 25.299999999999997  32.5 25.0625  L 32.5 22.4375  C 32.5 22.19375  32.2875 22  32.03125 22  L 26.75 22  L 26.75 16.69375  C 26.75 16.450000000000003  26.55625 16.25  26.3125 16.25  L 23.6875 16.25  Z " stroke-width="0" stroke-dasharray="0" stroke="rgba(255, 255, 255, 0)" fill="none" class="stroke" mask="url(#Clip2577)" />
    <path d="M 50 9.649999999999999  C 50 8.54375  49.10625 7.649999999999999  48 8  L 25.5625 8  L 18.231250000000003 0.6374999999999993  C 18.137968682019967 0.5501736260793368  18.01527362606876 0.5010956036988556  17.8875 1  L 2 1  C 0.8937499999999997 0.5  0 1.3937500000000005  0 2.5  L 0 39.5  C 0 40.60625  0.8937499999999997 41.5  2 41  L 48 41  C 49.10625 41.5  50 40.60625  50 39.5  L 50 9.649999999999999  Z " stroke-width="0" stroke-dasharray="0" stroke="rgba(255, 255, 255, 0)" fill="none" class="stroke" mask="url(#Clip2577)" />
    <path d="M 45 12.149999999999999  L 45 37  L 5 37  L 5 5  L 16.28125 5  L 23.75625 12.149999999999999  L 45 12.149999999999999  Z " stroke-width="0" stroke-dasharray="0" stroke="rgba(255, 255, 255, 0)" fill="none" class="stroke" mask="url(#Clip2577)" />
  </g>
</svg>