<?xml version="1.0" encoding="utf-8"?>
<svg version="1.1" xmlns:xlink="http://www.w3.org/1999/xlink" width="9px" height="8px" xmlns="http://www.w3.org/2000/svg">
  <defs>
    <pattern id="BGPattern" patternUnits="userSpaceOnUse" alignment="0 0" imageRepeat="None" />
    <mask fill="white" id="Clip4012">
      <path d="M 8.003033755928389 4.539074865286343  C 8.003033755928389 5.017171286392841  7.6866919445757595 5.437579347782368  7.2273 5.57  L 2.2325000000000017 7.002099999999999  C 2.1365855247160077 7.029590949346694  2.0372989020354737 7.043538880700751  1.937522457595982 7.043538880700751  C 1.3462464044271378 7.043538880700751  0.8669224575959831 6.5642149338695965  0.8669224575959831 5.972938880700752  C 0.8669224575959831 5.7595750337972085  0.930675106597203 5.551077644092995  1.0500000000000007 5.374199999999998  L 3.9559999999999995 1.066399999999998  C 4.15498417058976 0.7711129835169928  4.487756987131917 0.5940803934541918  4.843831589215146 0.5940803934541918  C 5.103692935394903 0.5940803934541918  5.354683980676757 0.6885952980981003  5.550000000000001 0.8599999999999994  C 6.567285750765546 1.7563082558992917  7.374298195111997 2.8660143883833005  7.913499999999999 4.109999999999999  C 7.972553197502844 4.245339833970549  8.003033755928389 4.391412578989248  8.003033755928389 4.539074865286343  Z " fill-rule="evenodd" />
    </mask>
  </defs>
  <g transform="matrix(1 0 0 1 -17 -11 )">
    <path d="M 8.003033755928389 4.539074865286343  C 8.003033755928389 5.017171286392841  7.6866919445757595 5.437579347782368  7.2273 5.57  L 2.2325000000000017 7.002099999999999  C 2.1365855247160077 7.029590949346694  2.0372989020354737 7.043538880700751  1.937522457595982 7.043538880700751  C 1.3462464044271378 7.043538880700751  0.8669224575959831 6.5642149338695965  0.8669224575959831 5.972938880700752  C 0.8669224575959831 5.7595750337972085  0.930675106597203 5.551077644092995  1.0500000000000007 5.374199999999998  L 3.9559999999999995 1.066399999999998  C 4.15498417058976 0.7711129835169928  4.487756987131917 0.5940803934541918  4.843831589215146 0.5940803934541918  C 5.103692935394903 0.5940803934541918  5.354683980676757 0.6885952980981003  5.550000000000001 0.8599999999999994  C 6.567285750765546 1.7563082558992917  7.374298195111997 2.8660143883833005  7.913499999999999 4.109999999999999  C 7.972553197502844 4.245339833970549  8.003033755928389 4.391412578989248  8.003033755928389 4.539074865286343  Z " fill-rule="nonzero" fill="rgba(0, 0, 0, 1)" stroke="none" transform="matrix(1 0 0 1 17 11 )" class="fill" />
    <path d="M 8.003033755928389 4.539074865286343  C 8.003033755928389 5.017171286392841  7.6866919445757595 5.437579347782368  7.2273 5.57  L 2.2325000000000017 7.002099999999999  C 2.1365855247160077 7.029590949346694  2.0372989020354737 7.043538880700751  1.937522457595982 7.043538880700751  C 1.3462464044271378 7.043538880700751  0.8669224575959831 6.5642149338695965  0.8669224575959831 5.972938880700752  C 0.8669224575959831 5.7595750337972085  0.930675106597203 5.551077644092995  1.0500000000000007 5.374199999999998  L 3.9559999999999995 1.066399999999998  C 4.15498417058976 0.7711129835169928  4.487756987131917 0.5940803934541918  4.843831589215146 0.5940803934541918  C 5.103692935394903 0.5940803934541918  5.354683980676757 0.6885952980981003  5.550000000000001 0.8599999999999994  C 6.567285750765546 1.7563082558992917  7.374298195111997 2.8660143883833005  7.913499999999999 4.109999999999999  C 7.972553197502844 4.245339833970549  8.003033755928389 4.391412578989248  8.003033755928389 4.539074865286343  Z " stroke-width="0" stroke-dasharray="0" stroke="rgba(255, 255, 255, 0)" fill="none" transform="matrix(1 0 0 1 17 11 )" class="stroke" mask="url(#Clip4012)" />
  </g>
</svg>