<?xml version="1.0" encoding="utf-8"?>
<svg version="1.1" xmlns:xlink="http://www.w3.org/1999/xlink" width="8px" height="6px" xmlns="http://www.w3.org/2000/svg">
  <defs>
    <pattern id="BGPattern" patternUnits="userSpaceOnUse" alignment="0 0" imageRepeat="None" />
    <mask fill="white" id="Clip4009">
      <path d="M 1.619936667369041 0.13708607605884104  C 1.7828552093272787 0.13708607605884104  1.943624998093183 0.1742681180830683  2.09 0.24579999999999913  L 6.7606 2.5234999999999985  C 7.128591869485234 2.7028968904583657  7.362058869523416 3.0764448698258597  7.362058869523416 3.485836198890567  C 7.362058869523416 3.9772987647288254  7.027448050619416 4.405640383991923  6.550599999999999 4.5245999999999995  L 1.5086999999999993 5.7818000000000005  C 1.4243000291234154 5.802707427152299  1.3376714460883132 5.8132774334317645  1.250720450728302 5.8132774334317645  C 0.7047709365258008 5.8132774334317645  0.24587751115383405 5.4032997130734195  0.18460000000000054 4.860800000000001  C 0.029384181395434084 3.5138613124217564  0.17323605043736823 2.1492660249162014  0.6059000000000001 0.8643000000000001  C 0.7531021785218046 0.42960442861598125  1.1609936195488952 0.13708607605884104  1.619936667369041 0.13708607605884104  Z " fill-rule="evenodd" />
    </mask>
  </defs>
  <g transform="matrix(1 0 0 1 -7 -15 )">
    <path d="M 1.619936667369041 0.13708607605884104  C 1.7828552093272787 0.13708607605884104  1.943624998093183 0.1742681180830683  2.09 0.24579999999999913  L 6.7606 2.5234999999999985  C 7.128591869485234 2.7028968904583657  7.362058869523416 3.0764448698258597  7.362058869523416 3.485836198890567  C 7.362058869523416 3.9772987647288254  7.027448050619416 4.405640383991923  6.550599999999999 4.5245999999999995  L 1.5086999999999993 5.7818000000000005  C 1.4243000291234154 5.802707427152299  1.3376714460883132 5.8132774334317645  1.250720450728302 5.8132774334317645  C 0.7047709365258008 5.8132774334317645  0.24587751115383405 5.4032997130734195  0.18460000000000054 4.860800000000001  C 0.029384181395434084 3.5138613124217564  0.17323605043736823 2.1492660249162014  0.6059000000000001 0.8643000000000001  C 0.7531021785218046 0.42960442861598125  1.1609936195488952 0.13708607605884104  1.619936667369041 0.13708607605884104  Z " fill-rule="nonzero" fill="rgba(0, 0, 0, 1)" stroke="none" transform="matrix(1 0 0 1 7 15 )" class="fill" />
    <path d="M 1.619936667369041 0.13708607605884104  C 1.7828552093272787 0.13708607605884104  1.943624998093183 0.1742681180830683  2.09 0.24579999999999913  L 6.7606 2.5234999999999985  C 7.128591869485234 2.7028968904583657  7.362058869523416 3.0764448698258597  7.362058869523416 3.485836198890567  C 7.362058869523416 3.9772987647288254  7.027448050619416 4.405640383991923  6.550599999999999 4.5245999999999995  L 1.5086999999999993 5.7818000000000005  C 1.4243000291234154 5.802707427152299  1.3376714460883132 5.8132774334317645  1.250720450728302 5.8132774334317645  C 0.7047709365258008 5.8132774334317645  0.24587751115383405 5.4032997130734195  0.18460000000000054 4.860800000000001  C 0.029384181395434084 3.5138613124217564  0.17323605043736823 2.1492660249162014  0.6059000000000001 0.8643000000000001  C 0.7531021785218046 0.42960442861598125  1.1609936195488952 0.13708607605884104  1.619936667369041 0.13708607605884104  Z " stroke-width="0" stroke-dasharray="0" stroke="rgba(255, 255, 255, 0)" fill="none" transform="matrix(1 0 0 1 7 15 )" class="stroke" mask="url(#Clip4009)" />
  </g>
</svg>