<?xml version="1.0" encoding="utf-8"?>
<svg version="1.1" xmlns:xlink="http://www.w3.org/1999/xlink" width="23px" height="22px" xmlns="http://www.w3.org/2000/svg">
  <defs>
    <pattern id="BGPattern" patternUnits="userSpaceOnUse" alignment="0 0" imageRepeat="None" />
    <mask fill="white" id="Clip4289">
      <path d="M 22 11.415999999999999  C 22.781002097065272 10.633537149263866  22.781002097065272 9.366462850736134  22 8.584  L 13.4143 0  L 0 0  L 0 2  L 12.5857 2  L 15.585699999999997 5  L 0 20.5859  L 1.4141000000000004 22  L 17 6.414999999999999  L 20.584 10  L 17 13.5859  L 18.4141 14.999999999999998  L 22 11.415999999999999  Z " fill-rule="evenodd" />
    </mask>
  </defs>
  <g transform="matrix(1 0 0 1 -6 -8 )">
    <path d="M 22 11.415999999999999  C 22.781002097065272 10.633537149263866  22.781002097065272 9.366462850736134  22 8.584  L 13.4143 0  L 0 0  L 0 2  L 12.5857 2  L 15.585699999999997 5  L 0 20.5859  L 1.4141000000000004 22  L 17 6.414999999999999  L 20.584 10  L 17 13.5859  L 18.4141 14.999999999999998  L 22 11.415999999999999  Z " fill-rule="nonzero" fill="rgba(0, 0, 0, 1)" stroke="none" transform="matrix(1 0 0 1 6 8 )" class="fill" />
    <path d="M 22 11.415999999999999  C 22.781002097065272 10.633537149263866  22.781002097065272 9.366462850736134  22 8.584  L 13.4143 0  L 0 0  L 0 2  L 12.5857 2  L 15.585699999999997 5  L 0 20.5859  L 1.4141000000000004 22  L 17 6.414999999999999  L 20.584 10  L 17 13.5859  L 18.4141 14.999999999999998  L 22 11.415999999999999  Z " stroke-width="0" stroke-dasharray="0" stroke="rgba(255, 255, 255, 0)" fill="none" transform="matrix(1 0 0 1 6 8 )" class="stroke" mask="url(#Clip4289)" />
  </g>
</svg>