<?xml version="1.0" encoding="utf-8"?>
<svg version="1.1" xmlns:xlink="http://www.w3.org/1999/xlink" width="7px" height="7px" xmlns="http://www.w3.org/2000/svg">
  <defs>
    <pattern id="BGPattern" patternUnits="userSpaceOnUse" alignment="0 0" imageRepeat="None" />
    <mask fill="white" id="Clip4290">
      <path d="M 7 3.500000000000001  C 6.997795682013841 5.432082829401774  5.4320828294017725 6.9977956820138445  3.4999999999999982 7  C 1.5670033755922212 7  0 5.432996624407775  0 3.4999999999999996  C 0 1.5670033755922226  1.5670033755922212 0  3.4999999999999982 0  C 5.432996624407775 0  6.9999999999999964 1.5670033755922226  6.9999999999999964 3.4999999999999996  Z M 4.999999999999998 3.500000000000001  C 4.999063147822999 2.671961242587885  4.328038757412111 2.0009368521769955  3.4999999999999982 2.000000000000001  C 2.671572875253807 2.000000000000001  1.9999999999999991 2.67157287525381  1.9999999999999991 3.500000000000001  C 1.9999999999999991 4.328427124746191  2.671572875253807 4.999999999999999  3.4999999999999982 4.999999999999999  C 4.328427124746185 4.999999999999999  4.999999999999998 4.32842712474619  4.999999999999998 3.500000000000001  Z " fill-rule="evenodd" />
    </mask>
  </defs>
  <g transform="matrix(1 0 0 1 -21 -2 )">
    <path d="M 7 3.500000000000001  C 6.997795682013841 5.432082829401774  5.4320828294017725 6.9977956820138445  3.4999999999999982 7  C 1.5670033755922212 7  0 5.432996624407775  0 3.4999999999999996  C 0 1.5670033755922226  1.5670033755922212 0  3.4999999999999982 0  C 5.432996624407775 0  6.9999999999999964 1.5670033755922226  6.9999999999999964 3.4999999999999996  Z M 4.999999999999998 3.500000000000001  C 4.999063147822999 2.671961242587885  4.328038757412111 2.0009368521769955  3.4999999999999982 2.000000000000001  C 2.671572875253807 2.000000000000001  1.9999999999999991 2.67157287525381  1.9999999999999991 3.500000000000001  C 1.9999999999999991 4.328427124746191  2.671572875253807 4.999999999999999  3.4999999999999982 4.999999999999999  C 4.328427124746185 4.999999999999999  4.999999999999998 4.32842712474619  4.999999999999998 3.500000000000001  Z " fill-rule="nonzero" fill="rgba(0, 0, 0, 1)" stroke="none" transform="matrix(1 0 0 1 21 2 )" class="fill" />
    <path d="M 7 3.500000000000001  C 6.997795682013841 5.432082829401774  5.4320828294017725 6.9977956820138445  3.4999999999999982 7  C 1.5670033755922212 7  0 5.432996624407775  0 3.4999999999999996  C 0 1.5670033755922226  1.5670033755922212 0  3.4999999999999982 0  C 5.432996624407775 0  6.9999999999999964 1.5670033755922226  6.9999999999999964 3.4999999999999996  Z " stroke-width="0" stroke-dasharray="0" stroke="rgba(255, 255, 255, 0)" fill="none" transform="matrix(1 0 0 1 21 2 )" class="stroke" mask="url(#Clip4290)" />
    <path d="M 4.999999999999998 3.500000000000001  C 4.999063147822999 2.671961242587885  4.328038757412111 2.0009368521769955  3.4999999999999982 2.000000000000001  C 2.671572875253807 2.000000000000001  1.9999999999999991 2.67157287525381  1.9999999999999991 3.500000000000001  C 1.9999999999999991 4.328427124746191  2.671572875253807 4.999999999999999  3.4999999999999982 4.999999999999999  C 4.328427124746185 4.999999999999999  4.999999999999998 4.32842712474619  4.999999999999998 3.500000000000001  Z " stroke-width="0" stroke-dasharray="0" stroke="rgba(255, 255, 255, 0)" fill="none" transform="matrix(1 0 0 1 21 2 )" class="stroke" mask="url(#Clip4290)" />
  </g>
</svg>