<?xml version="1.0" encoding="utf-8"?>
<svg version="1.1" xmlns:xlink="http://www.w3.org/1999/xlink" width="50px" height="50px" xmlns="http://www.w3.org/2000/svg">
  <defs>
    <pattern id="BGPattern" patternUnits="userSpaceOnUse" alignment="0 0" imageRepeat="None" />
    <mask fill="white" id="Clip1931">
      <path d="M 28.460038986354792 17.543859649122794  C 29.10331384015595 17.543859649122794  29.629629629629616 18.070175438596493  29.629629629629616 18.713450292397653  L 29.629629629629616 21.832358674463933  C 29.629629629629616 22.47563352826512  29.10331384015595 23.001949317738763  28.460038986354792 23.001949317738763  L 23.00194931773879 23.001949317738763  L 23.00194931773879 28.460038986354792  C 23.00194931773879 29.10331384015592  22.47563352826512 29.629629629629616  21.832358674463933 29.629629629629616  L 18.713450292397653 29.629629629629616  C 18.070175438596493 29.629629629629616  17.543859649122794 29.10331384015592  17.543859649122794 28.460038986354792  L 17.543859649122794 23.001949317738763  L 12.085769980506825 23.001949317738763  C 11.442495126705666 23.001949317738763  10.916179337231966 22.47563352826512  10.916179337231966 21.832358674463933  L 10.916179337231966 18.713450292397653  C 10.916179337231966 18.070175438596493  11.442495126705666 17.543859649122794  12.085769980506825 17.543859649122794  L 17.543859649122794 17.543859649122794  L 17.543859649122794 12.085769980506825  C 17.543859649122794 11.442495126705666  18.070175438596493 10.916179337231966  18.713450292397653 10.916179337231966  L 21.832358674463933 10.916179337231966  C 22.47563352826512 10.916179337231966  23.00194931773879 11.442495126705666  23.00194931773879 12.085769980506825  L 23.00194931773879 17.543859649122794  L 28.460038986354792 17.543859649122794  Z M 49.22027290448344 43.14814814814815  C 50.12670565302142 44.06432748538009  50.12670565302142 45.545808966861614  49.22027290448344 46.46198830409355  L 46.46198830409355 49.22027290448341  C 45.545808966861614 50.1364522417154  44.06432748538012 50.1364522417154  43.15789473684211 49.22027290448341  L 33.43079922027289 39.5029239766082  C 32.992202729044834 39.06432748538009  32.7485380116959 38.46978557504872  32.7485380116959 37.8460038986355  L 32.7485380116959 36.257309941520475  C 29.307992202729054 38.94736842105266  24.980506822612085 40.545808966861614  20.272904483430807 40.545808966861614  C 9.074074074074076 40.545808966861614  0 31.471734892787538  0 20.272904483430807  C 0 9.074074074074076  9.074074074074076 0  20.272904483430807 0  C 31.471734892787513 0  40.545808966861614 9.074074074074076  40.545808966861614 20.272904483430807  C 40.545808966861614 24.980506822612085  38.94736842105263 29.307992202729054  36.257309941520475 32.74853801169593  L 37.84600389863547 32.74853801169593  C 38.46978557504872 32.74853801169593  39.06432748538012 32.992202729044834  39.5029239766082 33.43079922027289  L 49.22027290448344 43.14814814814815  Z M 20.272904483430807 33.52826510721246  C 27.60233918128654 33.52826510721246  33.52826510721246 27.60233918128654  33.52826510721246 20.272904483430807  C 33.52826510721246 12.943469785575045  27.60233918128654 7.017543859649124  20.272904483430807 7.017543859649124  C 12.943469785575045 7.017543859649124  7.017543859649124 12.943469785575045  7.017543859649124 20.272904483430807  C 7.017543859649124 27.60233918128654  12.943469785575045 33.52826510721246  20.272904483430807 33.52826510721246  Z " fill-rule="evenodd" />
    </mask>
  </defs>
  <g>
    <path d="M 28.460038986354792 17.543859649122794  C 29.10331384015595 17.543859649122794  29.629629629629616 18.070175438596493  29.629629629629616 18.713450292397653  L 29.629629629629616 21.832358674463933  C 29.629629629629616 22.47563352826512  29.10331384015595 23.001949317738763  28.460038986354792 23.001949317738763  L 23.00194931773879 23.001949317738763  L 23.00194931773879 28.460038986354792  C 23.00194931773879 29.10331384015592  22.47563352826512 29.629629629629616  21.832358674463933 29.629629629629616  L 18.713450292397653 29.629629629629616  C 18.070175438596493 29.629629629629616  17.543859649122794 29.10331384015592  17.543859649122794 28.460038986354792  L 17.543859649122794 23.001949317738763  L 12.085769980506825 23.001949317738763  C 11.442495126705666 23.001949317738763  10.916179337231966 22.47563352826512  10.916179337231966 21.832358674463933  L 10.916179337231966 18.713450292397653  C 10.916179337231966 18.070175438596493  11.442495126705666 17.543859649122794  12.085769980506825 17.543859649122794  L 17.543859649122794 17.543859649122794  L 17.543859649122794 12.085769980506825  C 17.543859649122794 11.442495126705666  18.070175438596493 10.916179337231966  18.713450292397653 10.916179337231966  L 21.832358674463933 10.916179337231966  C 22.47563352826512 10.916179337231966  23.00194931773879 11.442495126705666  23.00194931773879 12.085769980506825  L 23.00194931773879 17.543859649122794  L 28.460038986354792 17.543859649122794  Z M 49.22027290448344 43.14814814814815  C 50.12670565302142 44.06432748538009  50.12670565302142 45.545808966861614  49.22027290448344 46.46198830409355  L 46.46198830409355 49.22027290448341  C 45.545808966861614 50.1364522417154  44.06432748538012 50.1364522417154  43.15789473684211 49.22027290448341  L 33.43079922027289 39.5029239766082  C 32.992202729044834 39.06432748538009  32.7485380116959 38.46978557504872  32.7485380116959 37.8460038986355  L 32.7485380116959 36.257309941520475  C 29.307992202729054 38.94736842105266  24.980506822612085 40.545808966861614  20.272904483430807 40.545808966861614  C 9.074074074074076 40.545808966861614  0 31.471734892787538  0 20.272904483430807  C 0 9.074074074074076  9.074074074074076 0  20.272904483430807 0  C 31.471734892787513 0  40.545808966861614 9.074074074074076  40.545808966861614 20.272904483430807  C 40.545808966861614 24.980506822612085  38.94736842105263 29.307992202729054  36.257309941520475 32.74853801169593  L 37.84600389863547 32.74853801169593  C 38.46978557504872 32.74853801169593  39.06432748538012 32.992202729044834  39.5029239766082 33.43079922027289  L 49.22027290448344 43.14814814814815  Z M 20.272904483430807 33.52826510721246  C 27.60233918128654 33.52826510721246  33.52826510721246 27.60233918128654  33.52826510721246 20.272904483430807  C 33.52826510721246 12.943469785575045  27.60233918128654 7.017543859649124  20.272904483430807 7.017543859649124  C 12.943469785575045 7.017543859649124  7.017543859649124 12.943469785575045  7.017543859649124 20.272904483430807  C 7.017543859649124 27.60233918128654  12.943469785575045 33.52826510721246  20.272904483430807 33.52826510721246  Z " fill-rule="nonzero" fill="rgba(0, 0, 0, 1)" stroke="none" class="fill" />
    <path d="M 28.460038986354792 17.543859649122794  C 29.10331384015595 17.543859649122794  29.629629629629616 18.070175438596493  29.629629629629616 18.713450292397653  L 29.629629629629616 21.832358674463933  C 29.629629629629616 22.47563352826512  29.10331384015595 23.001949317738763  28.460038986354792 23.001949317738763  L 23.00194931773879 23.001949317738763  L 23.00194931773879 28.460038986354792  C 23.00194931773879 29.10331384015592  22.47563352826512 29.629629629629616  21.832358674463933 29.629629629629616  L 18.713450292397653 29.629629629629616  C 18.070175438596493 29.629629629629616  17.543859649122794 29.10331384015592  17.543859649122794 28.460038986354792  L 17.543859649122794 23.001949317738763  L 12.085769980506825 23.001949317738763  C 11.442495126705666 23.001949317738763  10.916179337231966 22.47563352826512  10.916179337231966 21.832358674463933  L 10.916179337231966 18.713450292397653  C 10.916179337231966 18.070175438596493  11.442495126705666 17.543859649122794  12.085769980506825 17.543859649122794  L 17.543859649122794 17.543859649122794  L 17.543859649122794 12.085769980506825  C 17.543859649122794 11.442495126705666  18.070175438596493 10.916179337231966  18.713450292397653 10.916179337231966  L 21.832358674463933 10.916179337231966  C 22.47563352826512 10.916179337231966  23.00194931773879 11.442495126705666  23.00194931773879 12.085769980506825  L 23.00194931773879 17.543859649122794  L 28.460038986354792 17.543859649122794  Z " stroke-width="0" stroke-dasharray="0" stroke="rgba(255, 255, 255, 0)" fill="none" class="stroke" mask="url(#Clip1931)" />
    <path d="M 49.22027290448344 43.14814814814815  C 50.12670565302142 44.06432748538009  50.12670565302142 45.545808966861614  49.22027290448344 46.46198830409355  L 46.46198830409355 49.22027290448341  C 45.545808966861614 50.1364522417154  44.06432748538012 50.1364522417154  43.15789473684211 49.22027290448341  L 33.43079922027289 39.5029239766082  C 32.992202729044834 39.06432748538009  32.7485380116959 38.46978557504872  32.7485380116959 37.8460038986355  L 32.7485380116959 36.257309941520475  C 29.307992202729054 38.94736842105266  24.980506822612085 40.545808966861614  20.272904483430807 40.545808966861614  C 9.074074074074076 40.545808966861614  0 31.471734892787538  0 20.272904483430807  C 0 9.074074074074076  9.074074074074076 0  20.272904483430807 0  C 31.471734892787513 0  40.545808966861614 9.074074074074076  40.545808966861614 20.272904483430807  C 40.545808966861614 24.980506822612085  38.94736842105263 29.307992202729054  36.257309941520475 32.74853801169593  L 37.84600389863547 32.74853801169593  C 38.46978557504872 32.74853801169593  39.06432748538012 32.992202729044834  39.5029239766082 33.43079922027289  L 49.22027290448344 43.14814814814815  Z " stroke-width="0" stroke-dasharray="0" stroke="rgba(255, 255, 255, 0)" fill="none" class="stroke" mask="url(#Clip1931)" />
    <path d="M 20.272904483430807 33.52826510721246  C 27.60233918128654 33.52826510721246  33.52826510721246 27.60233918128654  33.52826510721246 20.272904483430807  C 33.52826510721246 12.943469785575045  27.60233918128654 7.017543859649124  20.272904483430807 7.017543859649124  C 12.943469785575045 7.017543859649124  7.017543859649124 12.943469785575045  7.017543859649124 20.272904483430807  C 7.017543859649124 27.60233918128654  12.943469785575045 33.52826510721246  20.272904483430807 33.52826510721246  Z " stroke-width="0" stroke-dasharray="0" stroke="rgba(255, 255, 255, 0)" fill="none" class="stroke" mask="url(#Clip1931)" />
  </g>
</svg>