<?xml version="1.0" encoding="utf-8"?>
<svg version="1.1" xmlns:xlink="http://www.w3.org/1999/xlink" width="48px" height="56px" xmlns="http://www.w3.org/2000/svg">
  <defs>
    <pattern id="BGPattern" patternUnits="userSpaceOnUse" alignment="0 0" imageRepeat="None" />
    <mask fill="white" id="Clip2533">
      <path d="M 47.25 22.94375  C 47.25 19.868750000000002  46.63125 16.88125  45.41250000000001 14.068750000000001  C 44.23584537664394 11.355501968073364  42.5393520353865 8.898877692935873  40.418749999999996 6.837500000000002  C 38.29119525676151 4.757499354638107  35.78303859394808 3.106614512278676  33.03125 1.9750000000000023  C 30.168750000000003 0.7874999999999996  27.13125 0.1875  24 0.1875  C 20.86875 0.1875  17.83125 0.7874999999999996  14.96875 1.96875  C 12.2 3.1125  9.71875 4.75  7.581249999999999 6.831250000000001  C 5.462017428575788 8.893785434865883  3.76572236177779 11.350122596674748  2.5875000000000004 14.062500000000002  C 1.3687500000000004 16.875  0.75 19.8625  0.75 22.9375  C 0.75 27.35  1.8062500000000004 31.74375  3.8812499999999996 35.98125  C 5.549999999999999 39.3875  7.88125 42.706250000000004  10.818750000000001 45.862500000000004  C 15.837500000000002 51.25000000000001  21.1 54.54375  22.593750000000004 55.425000000000004  C 23.017749879283183 55.67541063971436  23.501326741669967 55.80709898170362  23.99375 55.806250000000006  C 24.481249999999996 55.806250000000006  24.9625 55.681250000000006  25.393749999999997 55.425000000000004  C 26.887499999999996 54.54375  32.15 51.25000000000001  37.168749999999996 45.862500000000004  C 40.106249999999996 42.712500000000006  42.43749999999999 39.3875  44.106249999999996 35.98125  C 46.19375 31.75  47.25 27.3625  47.25 22.94375  Z M 42.75 22.94375  C 42.75 38.025000000000006  28.11875 48.39375  24 51.0125  C 19.88125 48.393750000000004  5.25 38.025000000000006  5.25 22.94375  C 5.25 18.075000000000003  7.19375 13.5  10.725000000000001 10.05  C 14.26875 6.59375  18.98125 4.6875  24 4.6875  C 29.018749999999997 4.6875  33.73125 6.59375  37.275 10.05625  C 40.80625 13.5  42.75 18.075  42.75 22.94375  Z M 35 23.4375  C 35 17.362499999999997  30.075000000000003 12.4375  24 12.4375  C 17.925 12.4375  13 17.3625  13 23.4375  C 13 29.512500000000006  17.925 34.4375  24 34.4375  C 30.075000000000003 34.4375  35 29.512500000000006  35 23.4375  Z M 31 23.4375  C 31 25.30625  30.275 27.0625  28.950000000000003 28.387500000000014  C 27.63870507434978 29.70256144218945  25.857114055388756 30.440392066203604  24 30.4375  C 22.13125 30.4375  20.375 29.706249999999997  19.050000000000004 28.387500000000014  C 17.734938557810565 27.076205074349783  16.9971079337964 25.29461405538876  17 23.4375  C 17 21.56875  17.73125 19.8125  19.05 18.4875  C 20.375 17.1625  22.13125 16.4375  24 16.4375  C 25.86875 16.4375  27.625 17.1625  28.950000000000003 18.4875  C 30.275 19.8125  31 21.56875  31 23.4375  Z " fill-rule="evenodd" />
    </mask>
  </defs>
  <g>
    <path d="M 47.25 22.94375  C 47.25 19.868750000000002  46.63125 16.88125  45.41250000000001 14.068750000000001  C 44.23584537664394 11.355501968073364  42.5393520353865 8.898877692935873  40.418749999999996 6.837500000000002  C 38.29119525676151 4.757499354638107  35.78303859394808 3.106614512278676  33.03125 1.9750000000000023  C 30.168750000000003 0.7874999999999996  27.13125 0.1875  24 0.1875  C 20.86875 0.1875  17.83125 0.7874999999999996  14.96875 1.96875  C 12.2 3.1125  9.71875 4.75  7.581249999999999 6.831250000000001  C 5.462017428575788 8.893785434865883  3.76572236177779 11.350122596674748  2.5875000000000004 14.062500000000002  C 1.3687500000000004 16.875  0.75 19.8625  0.75 22.9375  C 0.75 27.35  1.8062500000000004 31.74375  3.8812499999999996 35.98125  C 5.549999999999999 39.3875  7.88125 42.706250000000004  10.818750000000001 45.862500000000004  C 15.837500000000002 51.25000000000001  21.1 54.54375  22.593750000000004 55.425000000000004  C 23.017749879283183 55.67541063971436  23.501326741669967 55.80709898170362  23.99375 55.806250000000006  C 24.481249999999996 55.806250000000006  24.9625 55.681250000000006  25.393749999999997 55.425000000000004  C 26.887499999999996 54.54375  32.15 51.25000000000001  37.168749999999996 45.862500000000004  C 40.106249999999996 42.712500000000006  42.43749999999999 39.3875  44.106249999999996 35.98125  C 46.19375 31.75  47.25 27.3625  47.25 22.94375  Z M 42.75 22.94375  C 42.75 38.025000000000006  28.11875 48.39375  24 51.0125  C 19.88125 48.393750000000004  5.25 38.025000000000006  5.25 22.94375  C 5.25 18.075000000000003  7.19375 13.5  10.725000000000001 10.05  C 14.26875 6.59375  18.98125 4.6875  24 4.6875  C 29.018749999999997 4.6875  33.73125 6.59375  37.275 10.05625  C 40.80625 13.5  42.75 18.075  42.75 22.94375  Z M 35 23.4375  C 35 17.362499999999997  30.075000000000003 12.4375  24 12.4375  C 17.925 12.4375  13 17.3625  13 23.4375  C 13 29.512500000000006  17.925 34.4375  24 34.4375  C 30.075000000000003 34.4375  35 29.512500000000006  35 23.4375  Z M 31 23.4375  C 31 25.30625  30.275 27.0625  28.950000000000003 28.387500000000014  C 27.63870507434978 29.70256144218945  25.857114055388756 30.440392066203604  24 30.4375  C 22.13125 30.4375  20.375 29.706249999999997  19.050000000000004 28.387500000000014  C 17.734938557810565 27.076205074349783  16.9971079337964 25.29461405538876  17 23.4375  C 17 21.56875  17.73125 19.8125  19.05 18.4875  C 20.375 17.1625  22.13125 16.4375  24 16.4375  C 25.86875 16.4375  27.625 17.1625  28.950000000000003 18.4875  C 30.275 19.8125  31 21.56875  31 23.4375  Z " fill-rule="nonzero" fill="rgba(0, 0, 0, 1)" stroke="none" class="fill" />
    <path d="M 47.25 22.94375  C 47.25 19.868750000000002  46.63125 16.88125  45.41250000000001 14.068750000000001  C 44.23584537664394 11.355501968073364  42.5393520353865 8.898877692935873  40.418749999999996 6.837500000000002  C 38.29119525676151 4.757499354638107  35.78303859394808 3.106614512278676  33.03125 1.9750000000000023  C 30.168750000000003 0.7874999999999996  27.13125 0.1875  24 0.1875  C 20.86875 0.1875  17.83125 0.7874999999999996  14.96875 1.96875  C 12.2 3.1125  9.71875 4.75  7.581249999999999 6.831250000000001  C 5.462017428575788 8.893785434865883  3.76572236177779 11.350122596674748  2.5875000000000004 14.062500000000002  C 1.3687500000000004 16.875  0.75 19.8625  0.75 22.9375  C 0.75 27.35  1.8062500000000004 31.74375  3.8812499999999996 35.98125  C 5.549999999999999 39.3875  7.88125 42.706250000000004  10.818750000000001 45.862500000000004  C 15.837500000000002 51.25000000000001  21.1 54.54375  22.593750000000004 55.425000000000004  C 23.017749879283183 55.67541063971436  23.501326741669967 55.80709898170362  23.99375 55.806250000000006  C 24.481249999999996 55.806250000000006  24.9625 55.681250000000006  25.393749999999997 55.425000000000004  C 26.887499999999996 54.54375  32.15 51.25000000000001  37.168749999999996 45.862500000000004  C 40.106249999999996 42.712500000000006  42.43749999999999 39.3875  44.106249999999996 35.98125  C 46.19375 31.75  47.25 27.3625  47.25 22.94375  Z " stroke-width="0" stroke-dasharray="0" stroke="rgba(255, 255, 255, 0)" fill="none" class="stroke" mask="url(#Clip2533)" />
    <path d="M 42.75 22.94375  C 42.75 38.025000000000006  28.11875 48.39375  24 51.0125  C 19.88125 48.393750000000004  5.25 38.025000000000006  5.25 22.94375  C 5.25 18.075000000000003  7.19375 13.5  10.725000000000001 10.05  C 14.26875 6.59375  18.98125 4.6875  24 4.6875  C 29.018749999999997 4.6875  33.73125 6.59375  37.275 10.05625  C 40.80625 13.5  42.75 18.075  42.75 22.94375  Z " stroke-width="0" stroke-dasharray="0" stroke="rgba(255, 255, 255, 0)" fill="none" class="stroke" mask="url(#Clip2533)" />
    <path d="M 35 23.4375  C 35 17.362499999999997  30.075000000000003 12.4375  24 12.4375  C 17.925 12.4375  13 17.3625  13 23.4375  C 13 29.512500000000006  17.925 34.4375  24 34.4375  C 30.075000000000003 34.4375  35 29.512500000000006  35 23.4375  Z " stroke-width="0" stroke-dasharray="0" stroke="rgba(255, 255, 255, 0)" fill="none" class="stroke" mask="url(#Clip2533)" />
    <path d="M 31 23.4375  C 31 25.30625  30.275 27.0625  28.950000000000003 28.387500000000014  C 27.63870507434978 29.70256144218945  25.857114055388756 30.440392066203604  24 30.4375  C 22.13125 30.4375  20.375 29.706249999999997  19.050000000000004 28.387500000000014  C 17.734938557810565 27.076205074349783  16.9971079337964 25.29461405538876  17 23.4375  C 17 21.56875  17.73125 19.8125  19.05 18.4875  C 20.375 17.1625  22.13125 16.4375  24 16.4375  C 25.86875 16.4375  27.625 17.1625  28.950000000000003 18.4875  C 30.275 19.8125  31 21.56875  31 23.4375  Z " stroke-width="0" stroke-dasharray="0" stroke="rgba(255, 255, 255, 0)" fill="none" class="stroke" mask="url(#Clip2533)" />
  </g>
</svg>