<?xml version="1.0" encoding="utf-8"?>
<svg version="1.1" xmlns:xlink="http://www.w3.org/1999/xlink" width="30px" height="27px" xmlns="http://www.w3.org/2000/svg">
  <defs>
    <pattern id="BGPattern" patternUnits="userSpaceOnUse" alignment="0 0" imageRepeat="None" />
    <mask fill="white" id="Clip3658">
      <path d="M 24 17.18  L 28.83 18  L 29.169999999999998 16  L 24 15.149999999999997  L 24 11  C 24 10.92  24 10.85  24 10.77  L 29.06 9.41  L 28.549999999999997 7.4799999999999995  L 23.72 8.77  C 23.054601787805822 6.2548562157511824  21.33335975849547 4.150710768903566  19 3  L 19 0  L 17 0  L 17.000000000000004 2.2300000000000004  C 15.684302680757293 1.9233100232862743  14.31569731924271 1.9233100232862743  13 2.2300000000000004  L 13 0  L 11 0  L 11 3  C 8.659270018233611 4.1639036938970095  6.940257640591317 6.288033638244814  6.29 8.82  L 1.46 7.4799999999999995  L 1 9.41  L 6 10.77  C 6 10.85  6 10.92  6 11  L 6 15.149999999999997  L 0.8400000000000001 16  L 1.1600000000000001 18  L 6 17.18  C 6.022844237007102 18.41398385516703  6.302090910692639 19.62972851987113  6.82 20.75  L 2.29 25.29  L 3.71 26.71  L 7.900000000000001 22.509999999999998  C 9.605293892681447 24.69911132088061  12.225070156630208 25.979177276390068  15 25.979177276390068  C 17.774929843369797 25.979177276390068  20.394706107318555 24.69911132088061  22.1 22.51  L 26.290000000000003 26.71  L 27.71 25.29  L 23.17 20.75  C 23.69135809111481 19.63047421396819  23.974017733872653 18.414697196323015  24 17.18  Z M 14 11  L 14 23.92  C 10.559073307021322 23.423347449276427  8.004074519453258 20.476582180947926  8 17  L 8 11  L 14 11  Z M 21.71 9  L 8.29 9  C 9.172473125639812 6.0303430561375535  11.901997226969133 3.9939658974014556  15 3.9939658974014556  C 18.098002773030863 3.9939658974014556  20.827526874360185 6.0303430561375535  21.71 9  Z M 22 11  L 22 16.999999999999996  C 21.995925480546738 20.476582180947922  19.440926692978678 23.423347449276427  16 23.92  L 16 11  L 22 11  Z " fill-rule="evenodd" />
    </mask>
  </defs>
  <g transform="matrix(1 0 0 1 -1 -2 )">
    <path d="M 24 17.18  L 28.83 18  L 29.169999999999998 16  L 24 15.149999999999997  L 24 11  C 24 10.92  24 10.85  24 10.77  L 29.06 9.41  L 28.549999999999997 7.4799999999999995  L 23.72 8.77  C 23.054601787805822 6.2548562157511824  21.33335975849547 4.150710768903566  19 3  L 19 0  L 17 0  L 17.000000000000004 2.2300000000000004  C 15.684302680757293 1.9233100232862743  14.31569731924271 1.9233100232862743  13 2.2300000000000004  L 13 0  L 11 0  L 11 3  C 8.659270018233611 4.1639036938970095  6.940257640591317 6.288033638244814  6.29 8.82  L 1.46 7.4799999999999995  L 1 9.41  L 6 10.77  C 6 10.85  6 10.92  6 11  L 6 15.149999999999997  L 0.8400000000000001 16  L 1.1600000000000001 18  L 6 17.18  C 6.022844237007102 18.41398385516703  6.302090910692639 19.62972851987113  6.82 20.75  L 2.29 25.29  L 3.71 26.71  L 7.900000000000001 22.509999999999998  C 9.605293892681447 24.69911132088061  12.225070156630208 25.979177276390068  15 25.979177276390068  C 17.774929843369797 25.979177276390068  20.394706107318555 24.69911132088061  22.1 22.51  L 26.290000000000003 26.71  L 27.71 25.29  L 23.17 20.75  C 23.69135809111481 19.63047421396819  23.974017733872653 18.414697196323015  24 17.18  Z M 14 11  L 14 23.92  C 10.559073307021322 23.423347449276427  8.004074519453258 20.476582180947926  8 17  L 8 11  L 14 11  Z M 21.71 9  L 8.29 9  C 9.172473125639812 6.0303430561375535  11.901997226969133 3.9939658974014556  15 3.9939658974014556  C 18.098002773030863 3.9939658974014556  20.827526874360185 6.0303430561375535  21.71 9  Z M 22 11  L 22 16.999999999999996  C 21.995925480546738 20.476582180947922  19.440926692978678 23.423347449276427  16 23.92  L 16 11  L 22 11  Z " fill-rule="nonzero" fill="rgba(0, 0, 0, 1)" stroke="none" transform="matrix(1 0 0 1 1 2 )" class="fill" />
    <path d="M 24 17.18  L 28.83 18  L 29.169999999999998 16  L 24 15.149999999999997  L 24 11  C 24 10.92  24 10.85  24 10.77  L 29.06 9.41  L 28.549999999999997 7.4799999999999995  L 23.72 8.77  C 23.054601787805822 6.2548562157511824  21.33335975849547 4.150710768903566  19 3  L 19 0  L 17 0  L 17.000000000000004 2.2300000000000004  C 15.684302680757293 1.9233100232862743  14.31569731924271 1.9233100232862743  13 2.2300000000000004  L 13 0  L 11 0  L 11 3  C 8.659270018233611 4.1639036938970095  6.940257640591317 6.288033638244814  6.29 8.82  L 1.46 7.4799999999999995  L 1 9.41  L 6 10.77  C 6 10.85  6 10.92  6 11  L 6 15.149999999999997  L 0.8400000000000001 16  L 1.1600000000000001 18  L 6 17.18  C 6.022844237007102 18.41398385516703  6.302090910692639 19.62972851987113  6.82 20.75  L 2.29 25.29  L 3.71 26.71  L 7.900000000000001 22.509999999999998  C 9.605293892681447 24.69911132088061  12.225070156630208 25.979177276390068  15 25.979177276390068  C 17.774929843369797 25.979177276390068  20.394706107318555 24.69911132088061  22.1 22.51  L 26.290000000000003 26.71  L 27.71 25.29  L 23.17 20.75  C 23.69135809111481 19.63047421396819  23.974017733872653 18.414697196323015  24 17.18  Z " stroke-width="0" stroke-dasharray="0" stroke="rgba(255, 255, 255, 0)" fill="none" transform="matrix(1 0 0 1 1 2 )" class="stroke" mask="url(#Clip3658)" />
    <path d="M 14 11  L 14 23.92  C 10.559073307021322 23.423347449276427  8.004074519453258 20.476582180947926  8 17  L 8 11  L 14 11  Z " stroke-width="0" stroke-dasharray="0" stroke="rgba(255, 255, 255, 0)" fill="none" transform="matrix(1 0 0 1 1 2 )" class="stroke" mask="url(#Clip3658)" />
    <path d="M 21.71 9  L 8.29 9  C 9.172473125639812 6.0303430561375535  11.901997226969133 3.9939658974014556  15 3.9939658974014556  C 18.098002773030863 3.9939658974014556  20.827526874360185 6.0303430561375535  21.71 9  Z " stroke-width="0" stroke-dasharray="0" stroke="rgba(255, 255, 255, 0)" fill="none" transform="matrix(1 0 0 1 1 2 )" class="stroke" mask="url(#Clip3658)" />
    <path d="M 22 11  L 22 16.999999999999996  C 21.995925480546738 20.476582180947922  19.440926692978678 23.423347449276427  16 23.92  L 16 11  L 22 11  Z " stroke-width="0" stroke-dasharray="0" stroke="rgba(255, 255, 255, 0)" fill="none" transform="matrix(1 0 0 1 1 2 )" class="stroke" mask="url(#Clip3658)" />
  </g>
</svg>