<?xml version="1.0" encoding="utf-8"?>
<svg version="1.1" xmlns:xlink="http://www.w3.org/1999/xlink" width="13px" height="9px" xmlns="http://www.w3.org/2000/svg">
  <defs>
    <pattern id="BGPattern" patternUnits="userSpaceOnUse" alignment="0 0" imageRepeat="None" />
    <mask fill="white" id="Clip4560">
      <path d="M 12.93 4.41  L 12.420000000000002 2.4800000000000004  C 12.136366332969594 1.4253016162874275  11.059074831441997 0.7931718922505695  10 1.0599999999999987  L 2.2699999999999996 3.129999999999999  C 1.2054464420403779 3.4134433808168865  0.5705506879937374 4.504391014530835  0.8499999999999996 5.57  L 1.3699999999999992 7.5  C 1.594481326177128 8.37003328127454  2.3716238384188113 8.983566843570603  3.269999999999998 8.999999999999996  C 3.445045059111425 8.991898259032496  3.6190436980148277 8.968475365333965  3.789999999999999 8.93  L 11.52 6.859999999999999  C 12.585481450911253 6.572255759809995  13.216492100851672 5.475818814878057  12.93 4.41  Z M 11 4.920000000000002  L 3.2699999999999996 7  L 2.76 5.059999999999999  L 10.48 3  L 11 4.920000000000002  Z " fill-rule="evenodd" />
    </mask>
  </defs>
  <g transform="matrix(1 0 0 1 -11 -22 )">
    <path d="M 12.93 4.41  L 12.420000000000002 2.4800000000000004  C 12.136366332969594 1.4253016162874275  11.059074831441997 0.7931718922505695  10 1.0599999999999987  L 2.2699999999999996 3.129999999999999  C 1.2054464420403779 3.4134433808168865  0.5705506879937374 4.504391014530835  0.8499999999999996 5.57  L 1.3699999999999992 7.5  C 1.594481326177128 8.37003328127454  2.3716238384188113 8.983566843570603  3.269999999999998 8.999999999999996  C 3.445045059111425 8.991898259032496  3.6190436980148277 8.968475365333965  3.789999999999999 8.93  L 11.52 6.859999999999999  C 12.585481450911253 6.572255759809995  13.216492100851672 5.475818814878057  12.93 4.41  Z M 11 4.920000000000002  L 3.2699999999999996 7  L 2.76 5.059999999999999  L 10.48 3  L 11 4.920000000000002  Z " fill-rule="nonzero" fill="rgba(0, 0, 0, 1)" stroke="none" transform="matrix(1 0 0 1 11 22 )" class="fill" />
    <path d="M 12.93 4.41  L 12.420000000000002 2.4800000000000004  C 12.136366332969594 1.4253016162874275  11.059074831441997 0.7931718922505695  10 1.0599999999999987  L 2.2699999999999996 3.129999999999999  C 1.2054464420403779 3.4134433808168865  0.5705506879937374 4.504391014530835  0.8499999999999996 5.57  L 1.3699999999999992 7.5  C 1.594481326177128 8.37003328127454  2.3716238384188113 8.983566843570603  3.269999999999998 8.999999999999996  C 3.445045059111425 8.991898259032496  3.6190436980148277 8.968475365333965  3.789999999999999 8.93  L 11.52 6.859999999999999  C 12.585481450911253 6.572255759809995  13.216492100851672 5.475818814878057  12.93 4.41  Z " stroke-width="0" stroke-dasharray="0" stroke="rgba(255, 255, 255, 0)" fill="none" transform="matrix(1 0 0 1 11 22 )" class="stroke" mask="url(#Clip4560)" />
    <path d="M 11 4.920000000000002  L 3.2699999999999996 7  L 2.76 5.059999999999999  L 10.48 3  L 11 4.920000000000002  Z " stroke-width="0" stroke-dasharray="0" stroke="rgba(255, 255, 255, 0)" fill="none" transform="matrix(1 0 0 1 11 22 )" class="stroke" mask="url(#Clip4560)" />
  </g>
</svg>