<?xml version="1.0" encoding="utf-8"?>
<svg version="1.1" xmlns:xlink="http://www.w3.org/1999/xlink" width="50px" height="40px" xmlns="http://www.w3.org/2000/svg">
  <defs>
    <pattern id="BGPattern" patternUnits="userSpaceOnUse" alignment="0 0" imageRepeat="None" />
    <mask fill="white" id="Clip2138">
      <path d="M 49.2578125 32.0390625  C 50.2421875 31.0625  50.2421875 29.484375  49.265625 28.5078125  L 42.2109375 21.4609375  C 41.2734375 20.5234375  40 20  38.671875 20  L 32.4765625 20  C 31.093749999999996 20  29.976562499999996 21.1171875  29.976562499999996 22.5  L 29.976562499999996 28.6875  C 29.976562499999996 30.015625  30.5 31.28125  31.4375 32.21875  L 38.4921875 39.265625  C 39.46875 40.2421875  41.0546875 40.2421875  42.03125 39.265625  L 49.2578125 32.0390625  Z M 36.859375 24.9921875  C 36.859375 26.0234375  36.0234375 26.8671875  34.984375 26.8671875  C 33.9453125 26.8671875  33.109375 26.03125  33.109375 24.9921875  C 33.109375 23.953125  33.9453125 23.1171875  34.984375 23.1171875  C 36.0234375 23.1171875  36.859375 23.953125  36.859375 24.9921875  Z M 7.5 10  C 7.5 15.515625  11.9765625 19.9921875  17.5 19.9921875  C 23.0234375 19.9921875  27.500000000000004 15.515625  27.500000000000004 9.9921875  C 27.500000000000004 4.4765625  23.0234375 0  17.5 0  C 11.9765625 0  7.5 4.4765625  7.5 10  Z M 29.6796875 33.984375  C 28.265625 32.5703125  27.484375 30.6875  27.484375 28.6796875  L 27.484375 22.96875  C 26.53125 22.6875  25.5390625 22.484375  24.5 22.484375  L 23.1953125 22.484375  C 21.4609375 23.28125  19.53125 23.734375  17.5 23.734375  C 15.46875 23.734375  13.546875 23.28125  11.8046875 22.484375  L 10.5 22.484375  C 4.703125 22.4921875  0 27.1953125  0 32.9921875  L 0 36.2421875  C 0 38.3125  1.6796875 39.9921875  3.75 40  L 31.25 40  C 32.4609375 39.9921875  33.5234375 39.40625  34.2109375 38.515625  L 29.6796875 33.984375  Z " fill-rule="evenodd" />
    </mask>
  </defs>
  <g>
    <path d="M 49.2578125 32.0390625  C 50.2421875 31.0625  50.2421875 29.484375  49.265625 28.5078125  L 42.2109375 21.4609375  C 41.2734375 20.5234375  40 20  38.671875 20  L 32.4765625 20  C 31.093749999999996 20  29.976562499999996 21.1171875  29.976562499999996 22.5  L 29.976562499999996 28.6875  C 29.976562499999996 30.015625  30.5 31.28125  31.4375 32.21875  L 38.4921875 39.265625  C 39.46875 40.2421875  41.0546875 40.2421875  42.03125 39.265625  L 49.2578125 32.0390625  Z M 36.859375 24.9921875  C 36.859375 26.0234375  36.0234375 26.8671875  34.984375 26.8671875  C 33.9453125 26.8671875  33.109375 26.03125  33.109375 24.9921875  C 33.109375 23.953125  33.9453125 23.1171875  34.984375 23.1171875  C 36.0234375 23.1171875  36.859375 23.953125  36.859375 24.9921875  Z M 7.5 10  C 7.5 15.515625  11.9765625 19.9921875  17.5 19.9921875  C 23.0234375 19.9921875  27.500000000000004 15.515625  27.500000000000004 9.9921875  C 27.500000000000004 4.4765625  23.0234375 0  17.5 0  C 11.9765625 0  7.5 4.4765625  7.5 10  Z M 29.6796875 33.984375  C 28.265625 32.5703125  27.484375 30.6875  27.484375 28.6796875  L 27.484375 22.96875  C 26.53125 22.6875  25.5390625 22.484375  24.5 22.484375  L 23.1953125 22.484375  C 21.4609375 23.28125  19.53125 23.734375  17.5 23.734375  C 15.46875 23.734375  13.546875 23.28125  11.8046875 22.484375  L 10.5 22.484375  C 4.703125 22.4921875  0 27.1953125  0 32.9921875  L 0 36.2421875  C 0 38.3125  1.6796875 39.9921875  3.75 40  L 31.25 40  C 32.4609375 39.9921875  33.5234375 39.40625  34.2109375 38.515625  L 29.6796875 33.984375  Z " fill-rule="nonzero" fill="rgba(0, 0, 0, 1)" stroke="none" class="fill" />
    <path d="M 49.2578125 32.0390625  C 50.2421875 31.0625  50.2421875 29.484375  49.265625 28.5078125  L 42.2109375 21.4609375  C 41.2734375 20.5234375  40 20  38.671875 20  L 32.4765625 20  C 31.093749999999996 20  29.976562499999996 21.1171875  29.976562499999996 22.5  L 29.976562499999996 28.6875  C 29.976562499999996 30.015625  30.5 31.28125  31.4375 32.21875  L 38.4921875 39.265625  C 39.46875 40.2421875  41.0546875 40.2421875  42.03125 39.265625  L 49.2578125 32.0390625  Z " stroke-width="0" stroke-dasharray="0" stroke="rgba(255, 255, 255, 0)" fill="none" class="stroke" mask="url(#Clip2138)" />
    <path d="M 36.859375 24.9921875  C 36.859375 26.0234375  36.0234375 26.8671875  34.984375 26.8671875  C 33.9453125 26.8671875  33.109375 26.03125  33.109375 24.9921875  C 33.109375 23.953125  33.9453125 23.1171875  34.984375 23.1171875  C 36.0234375 23.1171875  36.859375 23.953125  36.859375 24.9921875  Z " stroke-width="0" stroke-dasharray="0" stroke="rgba(255, 255, 255, 0)" fill="none" class="stroke" mask="url(#Clip2138)" />
    <path d="M 7.5 10  C 7.5 15.515625  11.9765625 19.9921875  17.5 19.9921875  C 23.0234375 19.9921875  27.500000000000004 15.515625  27.500000000000004 9.9921875  C 27.500000000000004 4.4765625  23.0234375 0  17.5 0  C 11.9765625 0  7.5 4.4765625  7.5 10  Z " stroke-width="0" stroke-dasharray="0" stroke="rgba(255, 255, 255, 0)" fill="none" class="stroke" mask="url(#Clip2138)" />
    <path d="M 29.6796875 33.984375  C 28.265625 32.5703125  27.484375 30.6875  27.484375 28.6796875  L 27.484375 22.96875  C 26.53125 22.6875  25.5390625 22.484375  24.5 22.484375  L 23.1953125 22.484375  C 21.4609375 23.28125  19.53125 23.734375  17.5 23.734375  C 15.46875 23.734375  13.546875 23.28125  11.8046875 22.484375  L 10.5 22.484375  C 4.703125 22.4921875  0 27.1953125  0 32.9921875  L 0 36.2421875  C 0 38.3125  1.6796875 39.9921875  3.75 40  L 31.25 40  C 32.4609375 39.9921875  33.5234375 39.40625  34.2109375 38.515625  L 29.6796875 33.984375  Z " stroke-width="0" stroke-dasharray="0" stroke="rgba(255, 255, 255, 0)" fill="none" class="stroke" mask="url(#Clip2138)" />
  </g>
</svg>