<?xml version="1.0" encoding="utf-8"?>
<svg version="1.1" xmlns:xlink="http://www.w3.org/1999/xlink" width="24px" height="23px" xmlns="http://www.w3.org/2000/svg">
  <defs>
    <pattern id="BGPattern" patternUnits="userSpaceOnUse" alignment="0 0" imageRepeat="None" />
    <mask fill="white" id="Clip5097">
      <path d="M 12 0.5  C 18.627 0.5  24 5.2010000000000005  24 11  C 24 16.799  18.627 21.5  12 21.500000000000004  C 10.811477639535862 21.50160220727483  9.627880178039874 21.34728570824723  8.479500000000002 21.041  C 7.603500000000001 21.485  5.5920000000000005 22.337000000000003  2.2080000000000006 22.892000000000003  C 1.9080000000000008 22.94  1.6800000000000008 22.628  1.7985000000000004 22.349  C 2.3295000000000003 21.095  2.8095000000000003 19.424000000000003  2.9535000000000005 17.900000000000002  C 1.116 16.055  0 13.64  0 11  C 0 5.2010000000000005  5.372999999999999 0.5  12 0.5  Z M 11.1315 9.750499999999999  C 11.0355 9.539  10.9215 9.334999999999999  10.791 9.149000000000001  C 10.692 9.002  10.578000000000001 8.8655  10.450500000000002 8.741  C 10.2375 8.528  10.000499999999999 8.36  9.747 8.254999999999999  L 9.735 8.249  C 9.393 8.09  9.0075 8  8.600999999999999 8  C 7.164 8  6 9.1205  6 10.500499999999999  C 6 11.8805  7.1625000000000005 12.999500000000001  8.602500000000001 12.9995  C 9.1155 12.9995  9.594 12.856999999999996  9.9975 12.609499999999997  C 9.792 13.193  9.4125 13.815499999999998  8.783999999999999 14.4395  C 8.666871941963448 14.553822442829514  8.600829031143535 14.710570351990587  8.600829031143535 14.874242594334612  C 8.600829031143535 15.04578813211429  8.673356545194814 15.209337447786531  8.8005 15.324499999999999  C 9.062187191573681 15.563395981679072  9.464757481913862 15.556818035758482  9.7185 15.309499999999998  C 11.721 13.316  11.7735 11.1725  11.1315 9.750499999999999  Z M 15.105 12.999500000000001  C 15.618000000000002 12.999500000000001  16.0965 12.857  16.5 12.6095  L 16.5015 12.609499999999997  C 16.294500000000003 13.193  15.916500000000001 13.815499999999998  15.2865 14.4395  C 15.169371941963448 14.553822442829519  15.103329031143534 14.710570351990585  15.103329031143534 14.874242594334612  C 15.103329031143534 15.04578813211429  15.175856545194812 15.209337447786531  15.303 15.324499999999999  C 15.564899535329182 15.564344163094603  15.968562997751773 15.557759114767968  16.2225 15.309499999999998  C 18.223499999999998 13.316  18.2775 11.1725  17.6355 9.750499999999999  C 17.5395 9.539  17.424 9.334999999999999  17.2935 9.149000000000001  C 17.194499999999998 9.002  17.0805 8.8655  16.953 8.741  C 16.740000000000002 8.528  16.5045 8.36  16.2495 8.254999999999999  L 16.2375 8.249  C 15.895500000000002 8.09  15.510000000000002 8  15.1035 8  C 13.668 8  12.502500000000001 9.1205  12.502500000000001 10.500499999999999  C 12.502500000000001 11.8805  13.668 12.999500000000001  15.105 12.999500000000001  Z " fill-rule="evenodd" />
    </mask>
  </defs>
  <g>
    <path d="M 12 0.5  C 18.627 0.5  24 5.2010000000000005  24 11  C 24 16.799  18.627 21.5  12 21.500000000000004  C 10.811477639535862 21.50160220727483  9.627880178039874 21.34728570824723  8.479500000000002 21.041  C 7.603500000000001 21.485  5.5920000000000005 22.337000000000003  2.2080000000000006 22.892000000000003  C 1.9080000000000008 22.94  1.6800000000000008 22.628  1.7985000000000004 22.349  C 2.3295000000000003 21.095  2.8095000000000003 19.424000000000003  2.9535000000000005 17.900000000000002  C 1.116 16.055  0 13.64  0 11  C 0 5.2010000000000005  5.372999999999999 0.5  12 0.5  Z M 11.1315 9.750499999999999  C 11.0355 9.539  10.9215 9.334999999999999  10.791 9.149000000000001  C 10.692 9.002  10.578000000000001 8.8655  10.450500000000002 8.741  C 10.2375 8.528  10.000499999999999 8.36  9.747 8.254999999999999  L 9.735 8.249  C 9.393 8.09  9.0075 8  8.600999999999999 8  C 7.164 8  6 9.1205  6 10.500499999999999  C 6 11.8805  7.1625000000000005 12.999500000000001  8.602500000000001 12.9995  C 9.1155 12.9995  9.594 12.856999999999996  9.9975 12.609499999999997  C 9.792 13.193  9.4125 13.815499999999998  8.783999999999999 14.4395  C 8.666871941963448 14.553822442829514  8.600829031143535 14.710570351990587  8.600829031143535 14.874242594334612  C 8.600829031143535 15.04578813211429  8.673356545194814 15.209337447786531  8.8005 15.324499999999999  C 9.062187191573681 15.563395981679072  9.464757481913862 15.556818035758482  9.7185 15.309499999999998  C 11.721 13.316  11.7735 11.1725  11.1315 9.750499999999999  Z M 15.105 12.999500000000001  C 15.618000000000002 12.999500000000001  16.0965 12.857  16.5 12.6095  L 16.5015 12.609499999999997  C 16.294500000000003 13.193  15.916500000000001 13.815499999999998  15.2865 14.4395  C 15.169371941963448 14.553822442829519  15.103329031143534 14.710570351990585  15.103329031143534 14.874242594334612  C 15.103329031143534 15.04578813211429  15.175856545194812 15.209337447786531  15.303 15.324499999999999  C 15.564899535329182 15.564344163094603  15.968562997751773 15.557759114767968  16.2225 15.309499999999998  C 18.223499999999998 13.316  18.2775 11.1725  17.6355 9.750499999999999  C 17.5395 9.539  17.424 9.334999999999999  17.2935 9.149000000000001  C 17.194499999999998 9.002  17.0805 8.8655  16.953 8.741  C 16.740000000000002 8.528  16.5045 8.36  16.2495 8.254999999999999  L 16.2375 8.249  C 15.895500000000002 8.09  15.510000000000002 8  15.1035 8  C 13.668 8  12.502500000000001 9.1205  12.502500000000001 10.500499999999999  C 12.502500000000001 11.8805  13.668 12.999500000000001  15.105 12.999500000000001  Z " fill-rule="nonzero" fill="rgba(0, 0, 0, 1)" stroke="none" class="fill" />
    <path d="M 12 0.5  C 18.627 0.5  24 5.2010000000000005  24 11  C 24 16.799  18.627 21.5  12 21.500000000000004  C 10.811477639535862 21.50160220727483  9.627880178039874 21.34728570824723  8.479500000000002 21.041  C 7.603500000000001 21.485  5.5920000000000005 22.337000000000003  2.2080000000000006 22.892000000000003  C 1.9080000000000008 22.94  1.6800000000000008 22.628  1.7985000000000004 22.349  C 2.3295000000000003 21.095  2.8095000000000003 19.424000000000003  2.9535000000000005 17.900000000000002  C 1.116 16.055  0 13.64  0 11  C 0 5.2010000000000005  5.372999999999999 0.5  12 0.5  Z " stroke-width="0" stroke-dasharray="0" stroke="rgba(255, 255, 255, 0)" fill="none" class="stroke" mask="url(#Clip5097)" />
    <path d="M 11.1315 9.750499999999999  C 11.0355 9.539  10.9215 9.334999999999999  10.791 9.149000000000001  C 10.692 9.002  10.578000000000001 8.8655  10.450500000000002 8.741  C 10.2375 8.528  10.000499999999999 8.36  9.747 8.254999999999999  L 9.735 8.249  C 9.393 8.09  9.0075 8  8.600999999999999 8  C 7.164 8  6 9.1205  6 10.500499999999999  C 6 11.8805  7.1625000000000005 12.999500000000001  8.602500000000001 12.9995  C 9.1155 12.9995  9.594 12.856999999999996  9.9975 12.609499999999997  C 9.792 13.193  9.4125 13.815499999999998  8.783999999999999 14.4395  C 8.666871941963448 14.553822442829514  8.600829031143535 14.710570351990587  8.600829031143535 14.874242594334612  C 8.600829031143535 15.04578813211429  8.673356545194814 15.209337447786531  8.8005 15.324499999999999  C 9.062187191573681 15.563395981679072  9.464757481913862 15.556818035758482  9.7185 15.309499999999998  C 11.721 13.316  11.7735 11.1725  11.1315 9.750499999999999  Z " stroke-width="0" stroke-dasharray="0" stroke="rgba(255, 255, 255, 0)" fill="none" class="stroke" mask="url(#Clip5097)" />
    <path d="M 15.105 12.999500000000001  C 15.618000000000002 12.999500000000001  16.0965 12.857  16.5 12.6095  L 16.5015 12.609499999999997  C 16.294500000000003 13.193  15.916500000000001 13.815499999999998  15.2865 14.4395  C 15.169371941963448 14.553822442829519  15.103329031143534 14.710570351990585  15.103329031143534 14.874242594334612  C 15.103329031143534 15.04578813211429  15.175856545194812 15.209337447786531  15.303 15.324499999999999  C 15.564899535329182 15.564344163094603  15.968562997751773 15.557759114767968  16.2225 15.309499999999998  C 18.223499999999998 13.316  18.2775 11.1725  17.6355 9.750499999999999  C 17.5395 9.539  17.424 9.334999999999999  17.2935 9.149000000000001  C 17.194499999999998 9.002  17.0805 8.8655  16.953 8.741  C 16.740000000000002 8.528  16.5045 8.36  16.2495 8.254999999999999  L 16.2375 8.249  C 15.895500000000002 8.09  15.510000000000002 8  15.1035 8  C 13.668 8  12.502500000000001 9.1205  12.502500000000001 10.500499999999999  C 12.502500000000001 11.8805  13.668 12.999500000000001  15.105 12.999500000000001  Z " stroke-width="0" stroke-dasharray="0" stroke="rgba(255, 255, 255, 0)" fill="none" class="stroke" mask="url(#Clip5097)" />
  </g>
</svg>