<?xml version="1.0" encoding="utf-8"?>
<svg version="1.1" xmlns:xlink="http://www.w3.org/1999/xlink" width="56px" height="56px" xmlns="http://www.w3.org/2000/svg">
  <defs>
    <pattern id="BGPattern" patternUnits="userSpaceOnUse" alignment="0 0" imageRepeat="None" />
    <mask fill="white" id="Clip2218">
      <path d="M 56 28  C 56 12.537500000000001  43.4625 0  28 0  C 12.537500000000001 0  0 12.537500000000001  0 28  C 0 43.4625  12.537500000000001 56  28 56  C 43.4625 56  56 43.4625  56 28  Z M 38.91875 35.9125  C 39.143750000000004 36.06875  39.19375 36.38125  39.03125 36.60625  L 37.24375 39.04375  C 37.149693115272186 39.17215236931234  37.00006084187347 39.24802673755916  36.84089468337951 39.24802673755916  C 36.7339027722333 39.24802673755916  36.62973952217022 39.213663734791915  36.543749999999996 39.150000000000006  L 26.20625 31.612499999999997  C 26.075562083587094 31.518650622802944  25.99864067036215 31.367138748268975  26 31.206249999999997  L 26 14  C 26 13.725000000000001  26.225 13.5  26.5 13.5  L 29.50625 13.5  C 29.78125 13.5  30.00625 13.725000000000001  30 14  L 30 29.46875  L 38.91875 35.9125  Z " fill-rule="evenodd" />
    </mask>
  </defs>
  <g>
    <path d="M 56 28  C 56 12.537500000000001  43.4625 0  28 0  C 12.537500000000001 0  0 12.537500000000001  0 28  C 0 43.4625  12.537500000000001 56  28 56  C 43.4625 56  56 43.4625  56 28  Z M 38.91875 35.9125  C 39.143750000000004 36.06875  39.19375 36.38125  39.03125 36.60625  L 37.24375 39.04375  C 37.149693115272186 39.17215236931234  37.00006084187347 39.24802673755916  36.84089468337951 39.24802673755916  C 36.7339027722333 39.24802673755916  36.62973952217022 39.213663734791915  36.543749999999996 39.150000000000006  L 26.20625 31.612499999999997  C 26.075562083587094 31.518650622802944  25.99864067036215 31.367138748268975  26 31.206249999999997  L 26 14  C 26 13.725000000000001  26.225 13.5  26.5 13.5  L 29.50625 13.5  C 29.78125 13.5  30.00625 13.725000000000001  30 14  L 30 29.46875  L 38.91875 35.9125  Z " fill-rule="nonzero" fill="rgba(0, 0, 0, 1)" stroke="none" class="fill" />
    <path d="M 56 28  C 56 12.537500000000001  43.4625 0  28 0  C 12.537500000000001 0  0 12.537500000000001  0 28  C 0 43.4625  12.537500000000001 56  28 56  C 43.4625 56  56 43.4625  56 28  Z " stroke-width="0" stroke-dasharray="0" stroke="rgba(255, 255, 255, 0)" fill="none" class="stroke" mask="url(#Clip2218)" />
    <path d="M 38.91875 35.9125  C 39.143750000000004 36.06875  39.19375 36.38125  39.03125 36.60625  L 37.24375 39.04375  C 37.149693115272186 39.17215236931234  37.00006084187347 39.24802673755916  36.84089468337951 39.24802673755916  C 36.7339027722333 39.24802673755916  36.62973952217022 39.213663734791915  36.543749999999996 39.150000000000006  L 26.20625 31.612499999999997  C 26.075562083587094 31.518650622802944  25.99864067036215 31.367138748268975  26 31.206249999999997  L 26 14  C 26 13.725000000000001  26.225 13.5  26.5 13.5  L 29.50625 13.5  C 29.78125 13.5  30.00625 13.725000000000001  30 14  L 30 29.46875  L 38.91875 35.9125  Z " stroke-width="0" stroke-dasharray="0" stroke="rgba(255, 255, 255, 0)" fill="none" class="stroke" mask="url(#Clip2218)" />
  </g>
</svg>