<?xml version="1.0" encoding="utf-8"?>
<svg version="1.1" xmlns:xlink="http://www.w3.org/1999/xlink" width="19px" height="8px" xmlns="http://www.w3.org/2000/svg">
  <defs>
    <pattern id="BGPattern" patternUnits="userSpaceOnUse" alignment="0 0" imageRepeat="None" />
    <mask fill="white" id="Clip3374">
      <path d="M 19 6  C 18.998732534440702 7.104044072055089  18.10404407205509 7.998732534440702  17 8  L 2.0000000000000018 8  C 0.895955927944911 7.998732534440702  0.001267465559298131 7.104044072055089  0 6  L 0 2  C 0.001267465559298131 0.8959559279449074  0.8959559279449092 0.001267465559298131  2 0  L 17 0  C 18.10404407205509 0.001267465559298131  18.998732534440702 0.895955927944911  19 2  L 19 6  Z M 17 6  L 17 2  L 2 2  L 2 6  L 17 6  Z " fill-rule="evenodd" />
    </mask>
  </defs>
  <g transform="matrix(1 0 0 1 -9 -18 )">
    <path d="M 19 6  C 18.998732534440702 7.104044072055089  18.10404407205509 7.998732534440702  17 8  L 2.0000000000000018 8  C 0.895955927944911 7.998732534440702  0.001267465559298131 7.104044072055089  0 6  L 0 2  C 0.001267465559298131 0.8959559279449074  0.8959559279449092 0.001267465559298131  2 0  L 17 0  C 18.10404407205509 0.001267465559298131  18.998732534440702 0.895955927944911  19 2  L 19 6  Z M 17 6  L 17 2  L 2 2  L 2 6  L 17 6  Z " fill-rule="nonzero" fill="rgba(0, 0, 0, 1)" stroke="none" transform="matrix(1 0 0 1 9 18 )" class="fill" />
    <path d="M 19 6  C 18.998732534440702 7.104044072055089  18.10404407205509 7.998732534440702  17 8  L 2.0000000000000018 8  C 0.895955927944911 7.998732534440702  0.001267465559298131 7.104044072055089  0 6  L 0 2  C 0.001267465559298131 0.8959559279449074  0.8959559279449092 0.001267465559298131  2 0  L 17 0  C 18.10404407205509 0.001267465559298131  18.998732534440702 0.895955927944911  19 2  L 19 6  Z " stroke-width="0" stroke-dasharray="0" stroke="rgba(255, 255, 255, 0)" fill="none" transform="matrix(1 0 0 1 9 18 )" class="stroke" mask="url(#Clip3374)" />
    <path d="M 17 6  L 17 2  L 2 2  L 2 6  L 17 6  Z " stroke-width="0" stroke-dasharray="0" stroke="rgba(255, 255, 255, 0)" fill="none" transform="matrix(1 0 0 1 9 18 )" class="stroke" mask="url(#Clip3374)" />
  </g>
</svg>