<?xml version="1.0" encoding="utf-8"?>
<svg version="1.1" xmlns:xlink="http://www.w3.org/1999/xlink" width="24px" height="24px" xmlns="http://www.w3.org/2000/svg">
  <defs>
    <pattern id="BGPattern" patternUnits="userSpaceOnUse" alignment="0 0" imageRepeat="None" />
    <mask fill="white" id="Clip5413">
      <path d="M 12 0  C 18.627416997969522 0  24 5.372583002030479  24 12  C 24 18.627416997969522  18.627416997969522 24  12 24  C 5.372583002030479 24  0 18.627416997969522  0 12  C 0 5.372583002030479  5.372583002030479 0  12 0  Z M 13.356729408468302 7.357499781284952  C 13.356729408468302 6.608074150431293  12.749425510109155 6.00042541513427  12 6  C 11.250574489890845 6.00042541513427  10.643270591531696 6.608074150431291  10.643270591531696 7.35749978128495  C 10.643270591531696 7.402583680354292  10.645516511060855 7.447639591149576  10.649999999999999 7.4925  L 11.174999999999997 12.753  C 11.211570375424497 13.181436352370337  11.570005697257407 13.51057983243417  11.999999999999998 13.51057983243417  C 12.42999430274259 13.51057983243417  12.7884296245755 13.181436352370337  12.825 12.753  L 13.349999999999998 7.4925000000000015  C 13.354483488939142 7.44763959114959  13.356729408468302 7.402583680354281  13.356729408468302 7.357499781284952  Z M 13.503 16.5  C 13.503 15.67157287525381  12.831427124746192 15  12.003 15  C 11.174572875253812 15  10.503 15.67157287525381  10.503 16.5  C 10.503 17.32842712474619  11.174572875253812 18  12.003 18  C 12.831427124746192 18  13.503 17.32842712474619  13.503 16.5  Z " fill-rule="evenodd" />
    </mask>
  </defs>
  <g>
    <path d="M 12 0  C 18.627416997969522 0  24 5.372583002030479  24 12  C 24 18.627416997969522  18.627416997969522 24  12 24  C 5.372583002030479 24  0 18.627416997969522  0 12  C 0 5.372583002030479  5.372583002030479 0  12 0  Z M 13.356729408468302 7.357499781284952  C 13.356729408468302 6.608074150431293  12.749425510109155 6.00042541513427  12 6  C 11.250574489890845 6.00042541513427  10.643270591531696 6.608074150431291  10.643270591531696 7.35749978128495  C 10.643270591531696 7.402583680354292  10.645516511060855 7.447639591149576  10.649999999999999 7.4925  L 11.174999999999997 12.753  C 11.211570375424497 13.181436352370337  11.570005697257407 13.51057983243417  11.999999999999998 13.51057983243417  C 12.42999430274259 13.51057983243417  12.7884296245755 13.181436352370337  12.825 12.753  L 13.349999999999998 7.4925000000000015  C 13.354483488939142 7.44763959114959  13.356729408468302 7.402583680354281  13.356729408468302 7.357499781284952  Z M 13.503 16.5  C 13.503 15.67157287525381  12.831427124746192 15  12.003 15  C 11.174572875253812 15  10.503 15.67157287525381  10.503 16.5  C 10.503 17.32842712474619  11.174572875253812 18  12.003 18  C 12.831427124746192 18  13.503 17.32842712474619  13.503 16.5  Z " fill-rule="nonzero" fill="rgba(0, 0, 0, 1)" stroke="none" class="fill" />
    <path d="M 12 0  C 18.627416997969522 0  24 5.372583002030479  24 12  C 24 18.627416997969522  18.627416997969522 24  12 24  C 5.372583002030479 24  0 18.627416997969522  0 12  C 0 5.372583002030479  5.372583002030479 0  12 0  Z " stroke-width="0" stroke-dasharray="0" stroke="rgba(255, 255, 255, 0)" fill="none" class="stroke" mask="url(#Clip5413)" />
    <path d="M 13.356729408468302 7.357499781284952  C 13.356729408468302 6.608074150431293  12.749425510109155 6.00042541513427  12 6  C 11.250574489890845 6.00042541513427  10.643270591531696 6.608074150431291  10.643270591531696 7.35749978128495  C 10.643270591531696 7.402583680354292  10.645516511060855 7.447639591149576  10.649999999999999 7.4925  L 11.174999999999997 12.753  C 11.211570375424497 13.181436352370337  11.570005697257407 13.51057983243417  11.999999999999998 13.51057983243417  C 12.42999430274259 13.51057983243417  12.7884296245755 13.181436352370337  12.825 12.753  L 13.349999999999998 7.4925000000000015  C 13.354483488939142 7.44763959114959  13.356729408468302 7.402583680354281  13.356729408468302 7.357499781284952  Z " stroke-width="0" stroke-dasharray="0" stroke="rgba(255, 255, 255, 0)" fill="none" class="stroke" mask="url(#Clip5413)" />
    <path d="M 13.503 16.5  C 13.503 15.67157287525381  12.831427124746192 15  12.003 15  C 11.174572875253812 15  10.503 15.67157287525381  10.503 16.5  C 10.503 17.32842712474619  11.174572875253812 18  12.003 18  C 12.831427124746192 18  13.503 17.32842712474619  13.503 16.5  Z " stroke-width="0" stroke-dasharray="0" stroke="rgba(255, 255, 255, 0)" fill="none" class="stroke" mask="url(#Clip5413)" />
  </g>
</svg>