<?xml version="1.0" encoding="utf-8"?>
<svg version="1.1" xmlns:xlink="http://www.w3.org/1999/xlink" width="16px" height="16px" xmlns="http://www.w3.org/2000/svg">
  <defs>
    <pattern id="BGPattern" patternUnits="userSpaceOnUse" alignment="0 0" imageRepeat="None" />
    <mask fill="white" id="Clip2405">
      <path d="M 13.299999999999997 2.6999999999999993  C 11.881250000000001 1.2749999999999986  10.006250000000001 0.5  8 0.5  C 5.993749999999999 0.5  4.118749999999999 1.2749999999999986  2.6999999999999993 2.6999999999999993  C 1.28125 4.118749999999999  0.5 5.993749999999999  0.5 8  C 0.5 10.006250000000001  1.28125 11.881250000000001  2.6999999999999993 13.299999999999997  C 4.118749999999999 14.712499999999999  6 15.5  8 15.5  C 10 15.5  11.881250000000001 14.71875  13.299999999999997 13.299999999999997  C 14.712499999999999 11.881250000000001  15.5 10  15.5 8  C 15.5 6  14.71875 4.118749999999999  13.299999999999997 2.6999999999999993  Z " fill-rule="evenodd" />
    </mask>
  </defs>
  <g transform="matrix(1 0 0 1 -20 -20 )">
    <path d="M 13.299999999999997 2.6999999999999993  C 11.881250000000001 1.2749999999999986  10.006250000000001 0.5  8 0.5  C 5.993749999999999 0.5  4.118749999999999 1.2749999999999986  2.6999999999999993 2.6999999999999993  C 1.28125 4.118749999999999  0.5 5.993749999999999  0.5 8  C 0.5 10.006250000000001  1.28125 11.881250000000001  2.6999999999999993 13.299999999999997  C 4.118749999999999 14.712499999999999  6 15.5  8 15.5  C 10 15.5  11.881250000000001 14.71875  13.299999999999997 13.299999999999997  C 14.712499999999999 11.881250000000001  15.5 10  15.5 8  C 15.5 6  14.71875 4.118749999999999  13.299999999999997 2.6999999999999993  Z " fill-rule="nonzero" fill="rgba(0, 0, 0, 1)" stroke="none" transform="matrix(1 0 0 1 20 20 )" class="fill" />
    <path d="M 13.299999999999997 2.6999999999999993  C 11.881250000000001 1.2749999999999986  10.006250000000001 0.5  8 0.5  C 5.993749999999999 0.5  4.118749999999999 1.2749999999999986  2.6999999999999993 2.6999999999999993  C 1.28125 4.118749999999999  0.5 5.993749999999999  0.5 8  C 0.5 10.006250000000001  1.28125 11.881250000000001  2.6999999999999993 13.299999999999997  C 4.118749999999999 14.712499999999999  6 15.5  8 15.5  C 10 15.5  11.881250000000001 14.71875  13.299999999999997 13.299999999999997  C 14.712499999999999 11.881250000000001  15.5 10  15.5 8  C 15.5 6  14.71875 4.118749999999999  13.299999999999997 2.6999999999999993  Z " stroke-width="0" stroke-dasharray="0" stroke="rgba(255, 255, 255, 0)" fill="none" transform="matrix(1 0 0 1 20 20 )" class="stroke" mask="url(#Clip2405)" />
  </g>
</svg>