<?xml version="1.0" encoding="utf-8"?>
<svg version="1.1" xmlns:xlink="http://www.w3.org/1999/xlink" width="10px" height="10px" xmlns="http://www.w3.org/2000/svg">
  <defs>
    <pattern id="BGPattern" patternUnits="userSpaceOnUse" alignment="0 0" imageRepeat="None" />
    <mask fill="white" id="Clip3630">
      <path d="M 4.999999999999998 10  C 2.239924038163478 9.99674886149235  0.0032511385076476884 7.760075961836513  0 5.000000000000001  L 2 5.000000000000001  C 2 6.65685424949238  3.3431457505076185 8  5 8  C 6.65685424949238 8  7.999999999999998 6.65685424949238  7.999999999999998 5.000000000000001  C 7.999999999999998 3.3431457505076216  6.656854249492378 2.0000000000000013  5 2.0000000000000013  L 4.999999999999998 0  C 7.761423749153964 0  9.999999999999998 2.2385762508460316  9.999999999999998 4.999999999999997  C 9.999999999999998 7.761423749153963  7.761423749153964 9.999999999999996  4.999999999999998 9.999999999999996  Z " fill-rule="evenodd" />
    </mask>
  </defs>
  <g transform="matrix(1 0 0 1 -6 -16 )">
    <path d="M 4.999999999999998 10  C 2.239924038163478 9.99674886149235  0.0032511385076476884 7.760075961836513  0 5.000000000000001  L 2 5.000000000000001  C 2 6.65685424949238  3.3431457505076185 8  5 8  C 6.65685424949238 8  7.999999999999998 6.65685424949238  7.999999999999998 5.000000000000001  C 7.999999999999998 3.3431457505076216  6.656854249492378 2.0000000000000013  5 2.0000000000000013  L 4.999999999999998 0  C 7.761423749153964 0  9.999999999999998 2.2385762508460316  9.999999999999998 4.999999999999997  C 9.999999999999998 7.761423749153963  7.761423749153964 9.999999999999996  4.999999999999998 9.999999999999996  Z " fill-rule="nonzero" fill="rgba(0, 0, 0, 1)" stroke="none" transform="matrix(1 0 0 1 6 16 )" class="fill" />
    <path d="M 4.999999999999998 10  C 2.239924038163478 9.99674886149235  0.0032511385076476884 7.760075961836513  0 5.000000000000001  L 2 5.000000000000001  C 2 6.65685424949238  3.3431457505076185 8  5 8  C 6.65685424949238 8  7.999999999999998 6.65685424949238  7.999999999999998 5.000000000000001  C 7.999999999999998 3.3431457505076216  6.656854249492378 2.0000000000000013  5 2.0000000000000013  L 4.999999999999998 0  C 7.761423749153964 0  9.999999999999998 2.2385762508460316  9.999999999999998 4.999999999999997  C 9.999999999999998 7.761423749153963  7.761423749153964 9.999999999999996  4.999999999999998 9.999999999999996  Z " stroke-width="0" stroke-dasharray="0" stroke="rgba(255, 255, 255, 0)" fill="none" transform="matrix(1 0 0 1 6 16 )" class="stroke" mask="url(#Clip3630)" />
  </g>
</svg>