<?xml version="1.0" encoding="utf-8"?>
<svg version="1.1" xmlns:xlink="http://www.w3.org/1999/xlink" width="10px" height="17px" xmlns="http://www.w3.org/2000/svg">
  <defs>
    <pattern id="BGPattern" patternUnits="userSpaceOnUse" alignment="0 0" imageRepeat="None" />
    <mask fill="white" id="Clip5183">
      <path d="M 7.25 0  L 2.75 0  C 1.5073593128807161 0  0.5 1.0073593128807148  0.5 2.25  L 0.5 3.75  C 0.5 4.992640687119286  1.5073593128807161 6  2.75 6  L 7.25 6  C 8.492640687119284 6  9.5 4.992640687119286  9.5 3.75  L 9.5 2.25  C 9.5 1.0073593128807148  8.492640687119284 0  7.25 0  Z M 1.9986593244718733 11.25  C 1.9986593244718733 11.050759108712638  2.077937448968548 10.85970639451525  2.2189999999999994 10.719  C 2.35970639451525 10.577937448968548  2.5507591087126382 10.498659324471873  2.75 10.498659324471873  C 2.9492408912873618 10.498659324471873  3.14029360548475 10.577937448968548  3.2810000000000006 10.719  L 5 12.439499999999999  L 6.719000000000001 10.718999999999998  C 6.859829956104798 10.578170043895202  7.050836366088189 10.499052598379887  7.25 10.499052598379887  C 7.664736797839849 10.499052598379887  8.000947401620115 10.83526320216015  8.000947401620115 11.249999999999998  C 8.000947401620115 11.449163633911812  7.921829956104798 11.6401700438952  7.781000000000002 11.780999999999999  L 6.060500000000001 13.5  L 7.781000000000002 15.219000000000001  C 7.921829956104798 15.359829956104798  8.000947401620115 15.55083636608819  8.000947401620115 15.75  C 8.000947401620115 16.16473679783985  7.664736797839849 16.500947401620117  7.25 16.500947401620117  C 7.050836366088188 16.500947401620117  6.8598299561048 16.421829956104798  6.719000000000001 16.281000000000002  L 5 14.560500000000001  L 3.2810000000000006 16.281000000000002  C 3.1401700438952034 16.421829956104798  2.9491636339118124 16.500947401620117  2.75 16.500947401620117  C 2.3352632021601494 16.500947401620117  1.9990525983798868 16.16473679783985  1.9990525983798868 15.75  C 1.9990525983798868 15.550836366088188  2.078170043895202 15.359829956104798  2.2189999999999994 15.219000000000001  L 3.9395000000000007 13.5  L 2.2189999999999994 11.781  C 2.077937448968548 11.64029360548475  1.9986593244718733 11.449240891287362  1.9986593244718733 11.25  Z M 2.75 1.5  L 7.25 1.5  C 7.664213562373096 1.5  8 1.835786437626905  8 2.25  L 8 3.75  C 8 4.164213562373095  7.664213562373096 4.5  7.25 4.5  L 2.75 4.5  C 2.335786437626904 4.5  2 4.164213562373095  2 3.75  L 2 2.25  C 2 1.835786437626905  2.335786437626904 1.5  2.75 1.5  Z " fill-rule="evenodd" />
    </mask>
  </defs>
  <g transform="matrix(1 0 0 1 -7 0 )">
    <path d="M 7.25 0  L 2.75 0  C 1.5073593128807161 0  0.5 1.0073593128807148  0.5 2.25  L 0.5 3.75  C 0.5 4.992640687119286  1.5073593128807161 6  2.75 6  L 7.25 6  C 8.492640687119284 6  9.5 4.992640687119286  9.5 3.75  L 9.5 2.25  C 9.5 1.0073593128807148  8.492640687119284 0  7.25 0  Z M 1.9986593244718733 11.25  C 1.9986593244718733 11.050759108712638  2.077937448968548 10.85970639451525  2.2189999999999994 10.719  C 2.35970639451525 10.577937448968548  2.5507591087126382 10.498659324471873  2.75 10.498659324471873  C 2.9492408912873618 10.498659324471873  3.14029360548475 10.577937448968548  3.2810000000000006 10.719  L 5 12.439499999999999  L 6.719000000000001 10.718999999999998  C 6.859829956104798 10.578170043895202  7.050836366088189 10.499052598379887  7.25 10.499052598379887  C 7.664736797839849 10.499052598379887  8.000947401620115 10.83526320216015  8.000947401620115 11.249999999999998  C 8.000947401620115 11.449163633911812  7.921829956104798 11.6401700438952  7.781000000000002 11.780999999999999  L 6.060500000000001 13.5  L 7.781000000000002 15.219000000000001  C 7.921829956104798 15.359829956104798  8.000947401620115 15.55083636608819  8.000947401620115 15.75  C 8.000947401620115 16.16473679783985  7.664736797839849 16.500947401620117  7.25 16.500947401620117  C 7.050836366088188 16.500947401620117  6.8598299561048 16.421829956104798  6.719000000000001 16.281000000000002  L 5 14.560500000000001  L 3.2810000000000006 16.281000000000002  C 3.1401700438952034 16.421829956104798  2.9491636339118124 16.500947401620117  2.75 16.500947401620117  C 2.3352632021601494 16.500947401620117  1.9990525983798868 16.16473679783985  1.9990525983798868 15.75  C 1.9990525983798868 15.550836366088188  2.078170043895202 15.359829956104798  2.2189999999999994 15.219000000000001  L 3.9395000000000007 13.5  L 2.2189999999999994 11.781  C 2.077937448968548 11.64029360548475  1.9986593244718733 11.449240891287362  1.9986593244718733 11.25  Z M 2.75 1.5  L 7.25 1.5  C 7.664213562373096 1.5  8 1.835786437626905  8 2.25  L 8 3.75  C 8 4.164213562373095  7.664213562373096 4.5  7.25 4.5  L 2.75 4.5  C 2.335786437626904 4.5  2 4.164213562373095  2 3.75  L 2 2.25  C 2 1.835786437626905  2.335786437626904 1.5  2.75 1.5  Z " fill-rule="nonzero" fill="rgba(0, 0, 0, 1)" stroke="none" transform="matrix(1 0 0 1 7 0 )" class="fill" />
    <path d="M 7.25 0  L 2.75 0  C 1.5073593128807161 0  0.5 1.0073593128807148  0.5 2.25  L 0.5 3.75  C 0.5 4.992640687119286  1.5073593128807161 6  2.75 6  L 7.25 6  C 8.492640687119284 6  9.5 4.992640687119286  9.5 3.75  L 9.5 2.25  C 9.5 1.0073593128807148  8.492640687119284 0  7.25 0  Z " stroke-width="0" stroke-dasharray="0" stroke="rgba(255, 255, 255, 0)" fill="none" transform="matrix(1 0 0 1 7 0 )" class="stroke" mask="url(#Clip5183)" />
    <path d="M 1.9986593244718733 11.25  C 1.9986593244718733 11.050759108712638  2.077937448968548 10.85970639451525  2.2189999999999994 10.719  C 2.35970639451525 10.577937448968548  2.5507591087126382 10.498659324471873  2.75 10.498659324471873  C 2.9492408912873618 10.498659324471873  3.14029360548475 10.577937448968548  3.2810000000000006 10.719  L 5 12.439499999999999  L 6.719000000000001 10.718999999999998  C 6.859829956104798 10.578170043895202  7.050836366088189 10.499052598379887  7.25 10.499052598379887  C 7.664736797839849 10.499052598379887  8.000947401620115 10.83526320216015  8.000947401620115 11.249999999999998  C 8.000947401620115 11.449163633911812  7.921829956104798 11.6401700438952  7.781000000000002 11.780999999999999  L 6.060500000000001 13.5  L 7.781000000000002 15.219000000000001  C 7.921829956104798 15.359829956104798  8.000947401620115 15.55083636608819  8.000947401620115 15.75  C 8.000947401620115 16.16473679783985  7.664736797839849 16.500947401620117  7.25 16.500947401620117  C 7.050836366088188 16.500947401620117  6.8598299561048 16.421829956104798  6.719000000000001 16.281000000000002  L 5 14.560500000000001  L 3.2810000000000006 16.281000000000002  C 3.1401700438952034 16.421829956104798  2.9491636339118124 16.500947401620117  2.75 16.500947401620117  C 2.3352632021601494 16.500947401620117  1.9990525983798868 16.16473679783985  1.9990525983798868 15.75  C 1.9990525983798868 15.550836366088188  2.078170043895202 15.359829956104798  2.2189999999999994 15.219000000000001  L 3.9395000000000007 13.5  L 2.2189999999999994 11.781  C 2.077937448968548 11.64029360548475  1.9986593244718733 11.449240891287362  1.9986593244718733 11.25  Z " stroke-width="0" stroke-dasharray="0" stroke="rgba(255, 255, 255, 0)" fill="none" transform="matrix(1 0 0 1 7 0 )" class="stroke" mask="url(#Clip5183)" />
    <path d="M 2.75 1.5  L 7.25 1.5  C 7.664213562373096 1.5  8 1.835786437626905  8 2.25  L 8 3.75  C 8 4.164213562373095  7.664213562373096 4.5  7.25 4.5  L 2.75 4.5  C 2.335786437626904 4.5  2 4.164213562373095  2 3.75  L 2 2.25  C 2 1.835786437626905  2.335786437626904 1.5  2.75 1.5  Z " stroke-width="0" stroke-dasharray="0" stroke="rgba(255, 255, 255, 0)" fill="none" transform="matrix(1 0 0 1 7 0 )" class="stroke" mask="url(#Clip5183)" />
  </g>
</svg>