<?xml version="1.0" encoding="utf-8"?>
<svg version="1.1" xmlns:xlink="http://www.w3.org/1999/xlink" width="48px" height="48px" xmlns="http://www.w3.org/2000/svg">
  <defs>
    <pattern id="BGPattern" patternUnits="userSpaceOnUse" alignment="0 0" imageRepeat="None" />
    <mask fill="white" id="Clip7393">
      <path d="M 31.42 0.804000000000002  L 31.42 0.8  L 30.486000000000004 2.274  C 37.438 6.554  43.054 12.834  46.396 20.054000000000002  L 48 19.388  C 44.658 11.768  38.64 5.216000000000001  31.42 0.804000000000002  Z M 46.529999999999994 32.221999999999994  C 43.054 17.916  31.555999999999997 5.884  16.98 1.7399999999999998  L 16.314 3.878  C 30.218 7.89  41.182 19.118000000000002  44.391999999999996 32.757999999999996  L 46.529999999999994 32.221999999999994  Z M 42.518 47.198  C 42.52 24.068000000000005  23.4 5.214  0 5.214  L 0 7.890000000000001  C 21.928 7.890000000000001  39.844 25.537999999999997  39.844 47.198  L 42.518 47.198  Z " fill-rule="evenodd" />
    </mask>
  </defs>
  <g>
    <path d="M 31.42 0.804000000000002  L 31.42 0.8  L 30.486000000000004 2.274  C 37.438 6.554  43.054 12.834  46.396 20.054000000000002  L 48 19.388  C 44.658 11.768  38.64 5.216000000000001  31.42 0.804000000000002  Z M 46.529999999999994 32.221999999999994  C 43.054 17.916  31.555999999999997 5.884  16.98 1.7399999999999998  L 16.314 3.878  C 30.218 7.89  41.182 19.118000000000002  44.391999999999996 32.757999999999996  L 46.529999999999994 32.221999999999994  Z M 42.518 47.198  C 42.52 24.068000000000005  23.4 5.214  0 5.214  L 0 7.890000000000001  C 21.928 7.890000000000001  39.844 25.537999999999997  39.844 47.198  L 42.518 47.198  Z " fill-rule="nonzero" fill="rgba(203, 48, 50, 1)" stroke="none" class="fill" />
    <path d="M 31.42 0.804000000000002  L 31.42 0.8  L 30.486000000000004 2.274  C 37.438 6.554  43.054 12.834  46.396 20.054000000000002  L 48 19.388  C 44.658 11.768  38.64 5.216000000000001  31.42 0.804000000000002  Z " stroke-width="0" stroke-dasharray="0" stroke="rgba(255, 255, 255, 0)" fill="none" class="stroke" mask="url(#Clip7393)" />
    <path d="M 46.529999999999994 32.221999999999994  C 43.054 17.916  31.555999999999997 5.884  16.98 1.7399999999999998  L 16.314 3.878  C 30.218 7.89  41.182 19.118000000000002  44.391999999999996 32.757999999999996  L 46.529999999999994 32.221999999999994  Z " stroke-width="0" stroke-dasharray="0" stroke="rgba(255, 255, 255, 0)" fill="none" class="stroke" mask="url(#Clip7393)" />
    <path d="M 42.518 47.198  C 42.52 24.068000000000005  23.4 5.214  0 5.214  L 0 7.890000000000001  C 21.928 7.890000000000001  39.844 25.537999999999997  39.844 47.198  L 42.518 47.198  Z " stroke-width="0" stroke-dasharray="0" stroke="rgba(255, 255, 255, 0)" fill="none" class="stroke" mask="url(#Clip7393)" />
  </g>
</svg>