<?xml version="1.0" encoding="utf-8"?>
<svg version="1.1" xmlns:xlink="http://www.w3.org/1999/xlink" width="24px" height="9px" xmlns="http://www.w3.org/2000/svg">
  <defs>
    <pattern id="BGPattern" patternUnits="userSpaceOnUse" alignment="0 0" imageRepeat="None" />
    <mask fill="white" id="Clip6543">
      <path d="M 21.75 0  L 2.25 0  C 1.0073593128807152 0  0 1.0073593128807143  0 2.25  L 0 5.25  L 9 5.25  C 9.414213562373096 5.25  9.75 5.585786437626904  9.75 6  C 9.75 6.3795  9.870000000000001 6.966000000000001  10.209 7.437000000000001  C 10.5195 7.869  11.044500000000001 8.25  12 8.25  C 12.9555 8.25  13.4805 7.869  13.790999999999999 7.437000000000001  C 14.129999999999999 6.966000000000001  14.249999999999996 6.3795  14.249999999999996 6  C 14.249999999999996 5.585786437626904  14.585786437626902 5.25  14.999999999999996 5.25  L 23.999999999999996 5.25  L 23.999999999999993 2.249999999999999  C 23.999999999999993 1.0073593128807152  22.992640687119284 0  21.75 0  Z " fill-rule="evenodd" />
    </mask>
  </defs>
  <g>
    <path d="M 21.75 0  L 2.25 0  C 1.0073593128807152 0  0 1.0073593128807143  0 2.25  L 0 5.25  L 9 5.25  C 9.414213562373096 5.25  9.75 5.585786437626904  9.75 6  C 9.75 6.3795  9.870000000000001 6.966000000000001  10.209 7.437000000000001  C 10.5195 7.869  11.044500000000001 8.25  12 8.25  C 12.9555 8.25  13.4805 7.869  13.790999999999999 7.437000000000001  C 14.129999999999999 6.966000000000001  14.249999999999996 6.3795  14.249999999999996 6  C 14.249999999999996 5.585786437626904  14.585786437626902 5.25  14.999999999999996 5.25  L 23.999999999999996 5.25  L 23.999999999999993 2.249999999999999  C 23.999999999999993 1.0073593128807152  22.992640687119284 0  21.75 0  Z " fill-rule="nonzero" fill="rgba(0, 0, 0, 1)" stroke="none" class="fill" />
    <path d="M 21.75 0  L 2.25 0  C 1.0073593128807152 0  0 1.0073593128807143  0 2.25  L 0 5.25  L 9 5.25  C 9.414213562373096 5.25  9.75 5.585786437626904  9.75 6  C 9.75 6.3795  9.870000000000001 6.966000000000001  10.209 7.437000000000001  C 10.5195 7.869  11.044500000000001 8.25  12 8.25  C 12.9555 8.25  13.4805 7.869  13.790999999999999 7.437000000000001  C 14.129999999999999 6.966000000000001  14.249999999999996 6.3795  14.249999999999996 6  C 14.249999999999996 5.585786437626904  14.585786437626902 5.25  14.999999999999996 5.25  L 23.999999999999996 5.25  L 23.999999999999993 2.249999999999999  C 23.999999999999993 1.0073593128807152  22.992640687119284 0  21.75 0  Z " stroke-width="0" stroke-dasharray="0" stroke="rgba(255, 255, 255, 0)" fill="none" class="stroke" mask="url(#Clip6543)" />
  </g>
</svg>