<?xml version="1.0" encoding="utf-8"?>
<svg version="1.1" xmlns:xlink="http://www.w3.org/1999/xlink" width="50px" height="48px" xmlns="http://www.w3.org/2000/svg">
  <defs>
    <pattern id="BGPattern" patternUnits="userSpaceOnUse" alignment="0 0" imageRepeat="None" />
    <mask fill="white" id="Clip937">
      <path d="M 46.85924369747897 28.592436974789905  C 52.10084033613447 25.903361344537785  50.16806722689074 18.11974789915965  44.359243697479 18.11974789915965  C 42.78361344537814 18.11974789915965  41.39705882352942 18.77100840336132  40.37815126050421 19.78991596638656  C 36.62815126050421 17.195378151260485  31.57563025210084 15.525210084033603  25.976890756302538 15.346638655462186  L 28.88655462184875 2.2373949579831844  L 38.15126050420167 4.317226890756302  C 38.15126050420167 6.586134453781511  40 8.434873949579838  42.26890756302521 8.434873949579838  C 44.57983193277312 8.434873949579838  46.43907563025209 6.533613445378137  46.43907563025209 4.264705882352928  C 46.43907563025209 1.9957983193277187  44.590336134453764 0.09453781512604564  42.26890756302521 0.09453781512604564  C 40.65126050420167 0.09453781512604564  39.25420168067228 1.0714285714285836  38.56092436974791 2.4054621848739544  L 28.329831932773118 0.13655462184874523  C 27.815126050420165 0  27.31092436974788 0.3676470588235361  27.174369747899163 0.8823529411764639  L 23.98109243697479 15.336134453781511  C 18.424369747899163 15.567226890756302  13.424369747899165 17.237394957983184  9.663865546218489 19.83193277310923  C 8.64495798319328 18.77100840336135  7.205882352941188 18.11974789915965  5.630252100840323 18.11974789915965  C -0.21008403361344108 18.11974789915965  -2.121848739495789 25.95588235294116  3.2247899159663973 28.634453781512605  C 3.0357142857142776 29.464285714285694  2.951680672268907 30.346638655462186  2.951680672268907 31.22899159663865  C 2.951680672268907 40.031512605041996  12.867647058823536 47.16386554621846  25.0420168067227 47.16386554621846  C 37.26890756302521 47.16386554621846  47.18487394957984 40.031512605041996  47.18487394957984 31.22899159663865  C 47.18487394957984 30.346638655462186  47.090336134453764 29.422268907563023  46.85924369747897 28.592436974789905  Z M 15.871848739495789 33.30882352941174  C 13.560924369747909 33.319327731092415  11.701680672268907 31.460084033613413  11.701680672268907 29.191176470588232  C 11.701680672268907 26.880252100840323  13.550420168067234 25.02100840336132  15.871848739495789 25.02100840336132  C 18.140756302521027 25.02100840336132  19.989495798319325 26.86974789915965  19.989495798319325 29.191176470588232  C 19.989495798319325 31.46008403361344  18.140756302521027 33.30882352941174  15.871848739495789 33.30882352941174  Z M 34.20168067226891 37.573529411764696  C 34.632352941176464 37.99369747899158  34.632352941176464 38.64495798319325  34.21218487394958 39.01260504201679  C 30.38865546218489 42.83613445378148  19.600840336134468 42.83613445378148  15.777310924369745 39.01260504201679  C 15.357142857142861 38.64495798319325  15.357142857142861 37.99369747899158  15.777310924369745 37.573529411764696  C 16.14495798319328 37.20588235294116  16.796218487394952 37.20588235294116  17.16386554621849 37.573529411764696  C 20.08403361344537 40.567226890756274  29.76890756302521 40.61974789915965  32.81512605042019 37.573529411764696  C 33.1827731092437 37.20588235294116  33.83403361344537 37.20588235294116  34.20168067226891 37.573529411764696  Z M 38.29831932773109 29.20168067226888  C 38.28781512605042 31.46008403361344  36.43907563025209 33.319327731092415  34.12815126050421 33.319327731092415  C 31.859243697479002 33.319327731092415  30.010504201680675 31.470588235294088  30.010504201680675 29.20168067226888  C 30.010504201680675 26.890756302520998  31.859243697479002 25.031512605041996  34.12815126050421 25.031512605041996  C 36.43907563025209 25.031512605041996  38.29831932773109 26.880252100840323  38.29831932773109 29.20168067226888  Z " fill-rule="evenodd" />
    </mask>
  </defs>
  <g>
    <path d="M 46.85924369747897 28.592436974789905  C 52.10084033613447 25.903361344537785  50.16806722689074 18.11974789915965  44.359243697479 18.11974789915965  C 42.78361344537814 18.11974789915965  41.39705882352942 18.77100840336132  40.37815126050421 19.78991596638656  C 36.62815126050421 17.195378151260485  31.57563025210084 15.525210084033603  25.976890756302538 15.346638655462186  L 28.88655462184875 2.2373949579831844  L 38.15126050420167 4.317226890756302  C 38.15126050420167 6.586134453781511  40 8.434873949579838  42.26890756302521 8.434873949579838  C 44.57983193277312 8.434873949579838  46.43907563025209 6.533613445378137  46.43907563025209 4.264705882352928  C 46.43907563025209 1.9957983193277187  44.590336134453764 0.09453781512604564  42.26890756302521 0.09453781512604564  C 40.65126050420167 0.09453781512604564  39.25420168067228 1.0714285714285836  38.56092436974791 2.4054621848739544  L 28.329831932773118 0.13655462184874523  C 27.815126050420165 0  27.31092436974788 0.3676470588235361  27.174369747899163 0.8823529411764639  L 23.98109243697479 15.336134453781511  C 18.424369747899163 15.567226890756302  13.424369747899165 17.237394957983184  9.663865546218489 19.83193277310923  C 8.64495798319328 18.77100840336135  7.205882352941188 18.11974789915965  5.630252100840323 18.11974789915965  C -0.21008403361344108 18.11974789915965  -2.121848739495789 25.95588235294116  3.2247899159663973 28.634453781512605  C 3.0357142857142776 29.464285714285694  2.951680672268907 30.346638655462186  2.951680672268907 31.22899159663865  C 2.951680672268907 40.031512605041996  12.867647058823536 47.16386554621846  25.0420168067227 47.16386554621846  C 37.26890756302521 47.16386554621846  47.18487394957984 40.031512605041996  47.18487394957984 31.22899159663865  C 47.18487394957984 30.346638655462186  47.090336134453764 29.422268907563023  46.85924369747897 28.592436974789905  Z M 15.871848739495789 33.30882352941174  C 13.560924369747909 33.319327731092415  11.701680672268907 31.460084033613413  11.701680672268907 29.191176470588232  C 11.701680672268907 26.880252100840323  13.550420168067234 25.02100840336132  15.871848739495789 25.02100840336132  C 18.140756302521027 25.02100840336132  19.989495798319325 26.86974789915965  19.989495798319325 29.191176470588232  C 19.989495798319325 31.46008403361344  18.140756302521027 33.30882352941174  15.871848739495789 33.30882352941174  Z M 34.20168067226891 37.573529411764696  C 34.632352941176464 37.99369747899158  34.632352941176464 38.64495798319325  34.21218487394958 39.01260504201679  C 30.38865546218489 42.83613445378148  19.600840336134468 42.83613445378148  15.777310924369745 39.01260504201679  C 15.357142857142861 38.64495798319325  15.357142857142861 37.99369747899158  15.777310924369745 37.573529411764696  C 16.14495798319328 37.20588235294116  16.796218487394952 37.20588235294116  17.16386554621849 37.573529411764696  C 20.08403361344537 40.567226890756274  29.76890756302521 40.61974789915965  32.81512605042019 37.573529411764696  C 33.1827731092437 37.20588235294116  33.83403361344537 37.20588235294116  34.20168067226891 37.573529411764696  Z M 38.29831932773109 29.20168067226888  C 38.28781512605042 31.46008403361344  36.43907563025209 33.319327731092415  34.12815126050421 33.319327731092415  C 31.859243697479002 33.319327731092415  30.010504201680675 31.470588235294088  30.010504201680675 29.20168067226888  C 30.010504201680675 26.890756302520998  31.859243697479002 25.031512605041996  34.12815126050421 25.031512605041996  C 36.43907563025209 25.031512605041996  38.29831932773109 26.880252100840323  38.29831932773109 29.20168067226888  Z " fill-rule="nonzero" fill="rgba(0, 0, 0, 1)" stroke="none" class="fill" />
    <path d="M 46.85924369747897 28.592436974789905  C 52.10084033613447 25.903361344537785  50.16806722689074 18.11974789915965  44.359243697479 18.11974789915965  C 42.78361344537814 18.11974789915965  41.39705882352942 18.77100840336132  40.37815126050421 19.78991596638656  C 36.62815126050421 17.195378151260485  31.57563025210084 15.525210084033603  25.976890756302538 15.346638655462186  L 28.88655462184875 2.2373949579831844  L 38.15126050420167 4.317226890756302  C 38.15126050420167 6.586134453781511  40 8.434873949579838  42.26890756302521 8.434873949579838  C 44.57983193277312 8.434873949579838  46.43907563025209 6.533613445378137  46.43907563025209 4.264705882352928  C 46.43907563025209 1.9957983193277187  44.590336134453764 0.09453781512604564  42.26890756302521 0.09453781512604564  C 40.65126050420167 0.09453781512604564  39.25420168067228 1.0714285714285836  38.56092436974791 2.4054621848739544  L 28.329831932773118 0.13655462184874523  C 27.815126050420165 0  27.31092436974788 0.3676470588235361  27.174369747899163 0.8823529411764639  L 23.98109243697479 15.336134453781511  C 18.424369747899163 15.567226890756302  13.424369747899165 17.237394957983184  9.663865546218489 19.83193277310923  C 8.64495798319328 18.77100840336135  7.205882352941188 18.11974789915965  5.630252100840323 18.11974789915965  C -0.21008403361344108 18.11974789915965  -2.121848739495789 25.95588235294116  3.2247899159663973 28.634453781512605  C 3.0357142857142776 29.464285714285694  2.951680672268907 30.346638655462186  2.951680672268907 31.22899159663865  C 2.951680672268907 40.031512605041996  12.867647058823536 47.16386554621846  25.0420168067227 47.16386554621846  C 37.26890756302521 47.16386554621846  47.18487394957984 40.031512605041996  47.18487394957984 31.22899159663865  C 47.18487394957984 30.346638655462186  47.090336134453764 29.422268907563023  46.85924369747897 28.592436974789905  Z " stroke-width="0" stroke-dasharray="0" stroke="rgba(255, 255, 255, 0)" fill="none" class="stroke" mask="url(#Clip937)" />
    <path d="M 15.871848739495789 33.30882352941174  C 13.560924369747909 33.319327731092415  11.701680672268907 31.460084033613413  11.701680672268907 29.191176470588232  C 11.701680672268907 26.880252100840323  13.550420168067234 25.02100840336132  15.871848739495789 25.02100840336132  C 18.140756302521027 25.02100840336132  19.989495798319325 26.86974789915965  19.989495798319325 29.191176470588232  C 19.989495798319325 31.46008403361344  18.140756302521027 33.30882352941174  15.871848739495789 33.30882352941174  Z " stroke-width="0" stroke-dasharray="0" stroke="rgba(255, 255, 255, 0)" fill="none" class="stroke" mask="url(#Clip937)" />
    <path d="M 34.20168067226891 37.573529411764696  C 34.632352941176464 37.99369747899158  34.632352941176464 38.64495798319325  34.21218487394958 39.01260504201679  C 30.38865546218489 42.83613445378148  19.600840336134468 42.83613445378148  15.777310924369745 39.01260504201679  C 15.357142857142861 38.64495798319325  15.357142857142861 37.99369747899158  15.777310924369745 37.573529411764696  C 16.14495798319328 37.20588235294116  16.796218487394952 37.20588235294116  17.16386554621849 37.573529411764696  C 20.08403361344537 40.567226890756274  29.76890756302521 40.61974789915965  32.81512605042019 37.573529411764696  C 33.1827731092437 37.20588235294116  33.83403361344537 37.20588235294116  34.20168067226891 37.573529411764696  Z " stroke-width="0" stroke-dasharray="0" stroke="rgba(255, 255, 255, 0)" fill="none" class="stroke" mask="url(#Clip937)" />
    <path d="M 38.29831932773109 29.20168067226888  C 38.28781512605042 31.46008403361344  36.43907563025209 33.319327731092415  34.12815126050421 33.319327731092415  C 31.859243697479002 33.319327731092415  30.010504201680675 31.470588235294088  30.010504201680675 29.20168067226888  C 30.010504201680675 26.890756302520998  31.859243697479002 25.031512605041996  34.12815126050421 25.031512605041996  C 36.43907563025209 25.031512605041996  38.29831932773109 26.880252100840323  38.29831932773109 29.20168067226888  Z " stroke-width="0" stroke-dasharray="0" stroke="rgba(255, 255, 255, 0)" fill="none" class="stroke" mask="url(#Clip937)" />
  </g>
</svg>