<?xml version="1.0" encoding="utf-8"?>
<svg version="1.1" xmlns:xlink="http://www.w3.org/1999/xlink" width="20px" height="12px" xmlns="http://www.w3.org/2000/svg">
  <defs>
    <pattern id="BGPattern" patternUnits="userSpaceOnUse" alignment="0 0" imageRepeat="None" />
    <mask fill="white" id="Clip4438">
      <path d="M 20 7  L 20 12  L 18 12  L 17.999999999999996 6.9999999999999964  C 17.999999999999996 4.23857625084603  15.761423749153963 1.9999999999999964  13 2  L 6.999999999999998 1.9999999999999964  C 4.238576250846032 1.9999999999999964  1.9999999999999996 4.23857625084603  2 7  L 2 12  L 0 12  L 0 7  C 0 3.134006751184444  3.1340067511844456 0  7 0  L 13 0  C 16.865993248815556 0  20 3.134006751184444  20 7  Z " fill-rule="evenodd" />
    </mask>
  </defs>
  <g transform="matrix(1 0 0 1 -6 -18 )">
    <path d="M 20 7  L 20 12  L 18 12  L 17.999999999999996 6.9999999999999964  C 17.999999999999996 4.23857625084603  15.761423749153963 1.9999999999999964  13 2  L 6.999999999999998 1.9999999999999964  C 4.238576250846032 1.9999999999999964  1.9999999999999996 4.23857625084603  2 7  L 2 12  L 0 12  L 0 7  C 0 3.134006751184444  3.1340067511844456 0  7 0  L 13 0  C 16.865993248815556 0  20 3.134006751184444  20 7  Z " fill-rule="nonzero" fill="rgba(0, 0, 0, 1)" stroke="none" transform="matrix(1 0 0 1 6 18 )" class="fill" />
    <path d="M 20 7  L 20 12  L 18 12  L 17.999999999999996 6.9999999999999964  C 17.999999999999996 4.23857625084603  15.761423749153963 1.9999999999999964  13 2  L 6.999999999999998 1.9999999999999964  C 4.238576250846032 1.9999999999999964  1.9999999999999996 4.23857625084603  2 7  L 2 12  L 0 12  L 0 7  C 0 3.134006751184444  3.1340067511844456 0  7 0  L 13 0  C 16.865993248815556 0  20 3.134006751184444  20 7  Z " stroke-width="0" stroke-dasharray="0" stroke="rgba(255, 255, 255, 0)" fill="none" transform="matrix(1 0 0 1 6 18 )" class="stroke" mask="url(#Clip4438)" />
  </g>
</svg>