<?xml version="1.0" encoding="utf-8"?>
<svg version="1.1" xmlns:xlink="http://www.w3.org/1999/xlink" width="56px" height="64px" xmlns="http://www.w3.org/2000/svg">
  <defs>
    <pattern id="BGPattern" patternUnits="userSpaceOnUse" alignment="0 0" imageRepeat="None" />
    <mask fill="white" id="Clip1564">
      <path d="M 56 35.2  C 56 28.54125  49.5025 14.807500000000005  40.445 6.4  C 37.845 8.8125  35.4975 11.34875  33.417500000000004 13.89625  C 30.01 9.2025  25.785 4.44125  21 0  C 8.7175 11.39625  0 26.245  0 35.2  C 0 51.10625  12.53625 64  28 64  C 43.46375 64  56 51.10625  56 35.2  Z M 42.19 29.803750000000004  C 45.60875 36.3275  44.16625 44.675000000000004  38.011250000000004 48.981249999999996  C 35.30375 50.87625  31.965 52  28.357499999999998 52  C 19.33875 52  12 46.0325  12 36.34375  C 12 31.5175  15.038749999999999 27.265  21.098750000000003 20  C 21.965000000000003 20.9975  33.4525 35.667500000000004  33.4525 35.667500000000004  L 40.78125 27.307500000000005  C 41.29875 28.163750000000004  41.77 29.001250000000006  42.19 29.803750000000004  Z " fill-rule="evenodd" />
    </mask>
  </defs>
  <g>
    <path d="M 56 35.2  C 56 28.54125  49.5025 14.807500000000005  40.445 6.4  C 37.845 8.8125  35.4975 11.34875  33.417500000000004 13.89625  C 30.01 9.2025  25.785 4.44125  21 0  C 8.7175 11.39625  0 26.245  0 35.2  C 0 51.10625  12.53625 64  28 64  C 43.46375 64  56 51.10625  56 35.2  Z M 42.19 29.803750000000004  C 45.60875 36.3275  44.16625 44.675000000000004  38.011250000000004 48.981249999999996  C 35.30375 50.87625  31.965 52  28.357499999999998 52  C 19.33875 52  12 46.0325  12 36.34375  C 12 31.5175  15.038749999999999 27.265  21.098750000000003 20  C 21.965000000000003 20.9975  33.4525 35.667500000000004  33.4525 35.667500000000004  L 40.78125 27.307500000000005  C 41.29875 28.163750000000004  41.77 29.001250000000006  42.19 29.803750000000004  Z " fill-rule="nonzero" fill="rgba(0, 0, 0, 1)" stroke="none" class="fill" />
    <path d="M 56 35.2  C 56 28.54125  49.5025 14.807500000000005  40.445 6.4  C 37.845 8.8125  35.4975 11.34875  33.417500000000004 13.89625  C 30.01 9.2025  25.785 4.44125  21 0  C 8.7175 11.39625  0 26.245  0 35.2  C 0 51.10625  12.53625 64  28 64  C 43.46375 64  56 51.10625  56 35.2  Z " stroke-width="0" stroke-dasharray="0" stroke="rgba(255, 255, 255, 0)" fill="none" class="stroke" mask="url(#Clip1564)" />
    <path d="M 42.19 29.803750000000004  C 45.60875 36.3275  44.16625 44.675000000000004  38.011250000000004 48.981249999999996  C 35.30375 50.87625  31.965 52  28.357499999999998 52  C 19.33875 52  12 46.0325  12 36.34375  C 12 31.5175  15.038749999999999 27.265  21.098750000000003 20  C 21.965000000000003 20.9975  33.4525 35.667500000000004  33.4525 35.667500000000004  L 40.78125 27.307500000000005  C 41.29875 28.163750000000004  41.77 29.001250000000006  42.19 29.803750000000004  Z " stroke-width="0" stroke-dasharray="0" stroke="rgba(255, 255, 255, 0)" fill="none" class="stroke" mask="url(#Clip1564)" />
  </g>
</svg>