<?xml version="1.0" encoding="utf-8"?>
<svg version="1.1" xmlns:xlink="http://www.w3.org/1999/xlink" width="22px" height="24px" xmlns="http://www.w3.org/2000/svg">
  <defs>
    <pattern id="BGPattern" patternUnits="userSpaceOnUse" alignment="0 0" imageRepeat="None" />
    <mask fill="white" id="Clip6434">
      <path d="M 12.500000000000002 16.5  L 12.500000000000002 0  L 15.469999999999999 0  C 15.686 1.0725  16.28 2.4255  17.322499999999998 3.768  C 18.3425 5.0835  19.695500000000003 6  21.5 6  L 21.5 9  C 18.8705 9  16.895 7.779  15.5 6.256500000000001  L 15.499999999999996 16.499999999999996  C 15.499999999999996 20.642135623730947  12.142135623730947 23.999999999999996  8 23.999999999999996  C 3.857864376269049 23.999999999999996  0.5000000000000009 20.642135623730947  0.5000000000000009 16.499999999999996  C 0.5000000000000009 12.357864376269049  3.857864376269049 9  8 9  L 8 12  C 5.514718625761429 12  3.5 14.014718625761429  3.5 16.5  C 3.5 18.985281374238568  5.514718625761429 20.999999999999996  8 20.999999999999996  C 10.485281374238568 20.999999999999996  12.500000000000002 18.985281374238568  12.500000000000002 16.5  Z " fill-rule="evenodd" />
    </mask>
  </defs>
  <g>
    <path d="M 12.500000000000002 16.5  L 12.500000000000002 0  L 15.469999999999999 0  C 15.686 1.0725  16.28 2.4255  17.322499999999998 3.768  C 18.3425 5.0835  19.695500000000003 6  21.5 6  L 21.5 9  C 18.8705 9  16.895 7.779  15.5 6.256500000000001  L 15.499999999999996 16.499999999999996  C 15.499999999999996 20.642135623730947  12.142135623730947 23.999999999999996  8 23.999999999999996  C 3.857864376269049 23.999999999999996  0.5000000000000009 20.642135623730947  0.5000000000000009 16.499999999999996  C 0.5000000000000009 12.357864376269049  3.857864376269049 9  8 9  L 8 12  C 5.514718625761429 12  3.5 14.014718625761429  3.5 16.5  C 3.5 18.985281374238568  5.514718625761429 20.999999999999996  8 20.999999999999996  C 10.485281374238568 20.999999999999996  12.500000000000002 18.985281374238568  12.500000000000002 16.5  Z " fill-rule="nonzero" fill="rgba(0, 0, 0, 1)" stroke="none" class="fill" />
    <path d="M 12.500000000000002 16.5  L 12.500000000000002 0  L 15.469999999999999 0  C 15.686 1.0725  16.28 2.4255  17.322499999999998 3.768  C 18.3425 5.0835  19.695500000000003 6  21.5 6  L 21.5 9  C 18.8705 9  16.895 7.779  15.5 6.256500000000001  L 15.499999999999996 16.499999999999996  C 15.499999999999996 20.642135623730947  12.142135623730947 23.999999999999996  8 23.999999999999996  C 3.857864376269049 23.999999999999996  0.5000000000000009 20.642135623730947  0.5000000000000009 16.499999999999996  C 0.5000000000000009 12.357864376269049  3.857864376269049 9  8 9  L 8 12  C 5.514718625761429 12  3.5 14.014718625761429  3.5 16.5  C 3.5 18.985281374238568  5.514718625761429 20.999999999999996  8 20.999999999999996  C 10.485281374238568 20.999999999999996  12.500000000000002 18.985281374238568  12.500000000000002 16.5  Z " stroke-width="0" stroke-dasharray="0" stroke="rgba(255, 255, 255, 0)" fill="none" class="stroke" mask="url(#Clip6434)" />
  </g>
</svg>