<?xml version="1.0" encoding="utf-8"?>
<svg version="1.1" xmlns:xlink="http://www.w3.org/1999/xlink" width="10px" height="10px" xmlns="http://www.w3.org/2000/svg">
  <defs>
    <pattern id="BGPattern" patternUnits="userSpaceOnUse" alignment="0 0" imageRepeat="None" />
    <mask fill="white" id="Clip3550">
      <path d="M 10 0  L 0 0  L 0 10  L 10 10  L 10 0  Z M 8 2  L 8 8  L 2 8  L 2 2  L 8 2  Z " fill-rule="evenodd" />
    </mask>
  </defs>
  <g transform="matrix(1 0 0 1 -11 -11 )">
    <path d="M 10 0  L 0 0  L 0 10  L 10 10  L 10 0  Z M 8 2  L 8 8  L 2 8  L 2 2  L 8 2  Z " fill-rule="nonzero" fill="rgba(0, 0, 0, 1)" stroke="none" transform="matrix(1 0 0 1 11 11 )" class="fill" />
    <path d="M 10 0  L 0 0  L 0 10  L 10 10  L 10 0  Z " stroke-width="0" stroke-dasharray="0" stroke="rgba(255, 255, 255, 0)" fill="none" transform="matrix(1 0 0 1 11 11 )" class="stroke" mask="url(#Clip3550)" />
    <path d="M 8 2  L 8 8  L 2 8  L 2 2  L 8 2  Z " stroke-width="0" stroke-dasharray="0" stroke="rgba(255, 255, 255, 0)" fill="none" transform="matrix(1 0 0 1 11 11 )" class="stroke" mask="url(#Clip3550)" />
  </g>
</svg>