<?xml version="1.0" encoding="utf-8"?>
<svg version="1.1" xmlns:xlink="http://www.w3.org/1999/xlink" width="50px" height="50px" xmlns="http://www.w3.org/2000/svg">
  <defs>
    <pattern id="BGPattern" patternUnits="userSpaceOnUse" alignment="0 0" imageRepeat="None" />
    <mask fill="white" id="Clip1139">
      <path d="M 12.451361867704279 38.52140077821012  C 12.529182879377428 37.89883268482491  12.003891050583661 37.37354085603113  11.391050583657588 37.46108949416342  C 8.88132295719845 37.82101167315176  3.2198443579766547 38.79377431906616  1.575875486381321 40.43774319066148  C -0.5544747081712131 42.56809338521401  -0.5155642023346303 46.07003891050584  1.663424124513611 48.249027237354085  C 3.8424124513618665 50.428015564202354  7.334630350194544 50.466926070038944  9.474708171206217 48.3365758754864  C 11.11867704280155 46.692607003891055  12.091439688715951 41.03112840466926  12.451361867704279 38.52140077821012  Z M 2.782101167315176 34.59143968871595  C 3.968871595330739 34.192607003891055  5.4766536964980475 33.784046692607006  7.383268482490266 33.40466926070039  C 3.920233463035018 26.16731517509729  5.155642023346303 17.227626459143977  11.14785992217898 11.245136186770424  C 14.824902723735406 7.568093385214013  19.70817120622567 5.54474708171206  24.902723735408557 5.54474708171206  C 28.424124513618665 5.54474708171206  31.789883268482484 6.4980544747081685  34.747081712062254 8.239299610894946  C 35.11673151750972 6.264591439688714  35.52529182879377 4.727626459143963  35.91439688715951 3.540856031128399  C 32.47081712062257 1.7704280155642067  28.686770428015564 0.8754863813229575  24.902723735408557 0.8754863813229575  C 18.725680933852146 0.8754863813229575  12.55836575875486 3.2295719844357933  7.840466926070036 7.937743190661478  C 0.6322957198443646 15.145914396887164  -1.0408560311283992 25.778210116731515  2.782101167315176 34.59143968871595  Z M 46.3715953307393 13.98832684824903  C 45.17509727626458 14.377431906614788  43.6284046692607 14.776264591439697  41.65369649805447 15.155642023346303  C 46.03112840466926 22.60700389105058  45.04863813229571 32.36381322957199  38.65758754863813 38.754863813229576  C 34.980544747081694 42.43190661478599  30.09727626459143 44.455252918287954  24.902723735408557 44.455252918287954  C 21.93579766536965 44.455252918287954  19.08560311284046 43.77431906614788  16.49805447470817 42.52918287937743  C 16.11867704280155 44.426070038910495  15.719844357976653 45.93385214007782  15.311284046692606 47.12062256809338  C 18.365758754863805 48.44357976653697  21.63424124513618 49.12451361867704  24.912451361867696 49.12451361867704  C 31.08949416342412 49.12451361867704  37.25680933852141 46.77042801556422  41.9747081712062 42.06225680933852  C 49.571984435797674 34.46498054474708  51.03112840466926 23.054474708171213  46.3715953307393 13.98832684824903  Z M 37.35408560311282 11.478599221789878  C 37.276264591439684 12.101167315175104  37.80155642023345 12.626459143968875  38.41439688715951 12.538910505836585  C 40.924124513618665 12.178988326848255  46.58560311284046 11.206225680933855  48.22957198443578 9.562256809338521  C 50.35992217898831 7.431906614786002  50.32101167315173 3.929961089494171  48.14202334630349 1.750972762645915  C 45.96303501945525 -0.428015564202326  42.47081712062254 -0.46692607003890885  40.33073929961088 1.6634241245136252  C 38.68677042801556 3.3073929961089448  37.71400778210116 8.96887159533074  37.35408560311282 11.478599221789878  Z M 20.53501945525292 24.192607003891055  C 20.632295719844365 23.784046692607006  20.51556420233463 23.365758754863805  20.2237354085603 23.073929961089505  C 19.931906614785987 22.782101167315176  19.52334630350194 22.665369649805456  19.11478599221789 22.7626459143969  L 10.311284046692606 24.97081712062257  C 9.756809338521407 25.10700389105058  9.387159533073927 25.622568093385212  9.42607003891051 26.196498054474716  C 9.474708171206231 26.760700389105068  9.922178988326849 27.217898832684824  10.4863813229572 27.26653696498055  L 15.573929961089492 27.733463035019458  L 16.040856031128413 32.82101167315176  C 16.08949416342412 33.38521400778211  16.54669260700389 33.83268482490273  17.110894941634243 33.88132295719845  L 17.198443579766547 33.88132295719845  C 17.733463035019454 33.88132295719845  18.200389105058363 33.52140077821012  18.336575875486375 32.99610894941634  L 20.53501945525292 24.192607003891055  Z M 22.976653696498047 20.32101167315176  C 23.463035019455248 20.807392996108945  24.07587548638132 20.632295719844365  24.08560311284046 20.632295719844365  L 32.88910505836574 18.433852140077832  C 33.443579766536956 18.297665369649806  33.81322957198444 17.782101167315176  33.774319066147854 17.208171206225686  C 33.72568093385213 16.643968871595334  33.278210116731515 16.186770428015564  32.71400778210116 16.138132295719856  L 27.626459143968873 15.671206225680933  L 27.159533073929964 10.583657587548643  C 27.11089494163423 10.019455252918291  26.653696498054476 9.571984435797674  26.08949416342412 9.523346303501953  C 25.54474708171206 9.513618677042814  25 9.85408560311285  24.863813229571974 10.408560311284049  L 22.66536964980544 19.212062256809332  C 22.568093385214013 19.610894941634243  22.684824902723733 20.02918287937743  22.976653696498047 20.32101167315176  Z M 35.49610894941634 21.08949416342412  C 34.29961089494162 23.44357976653697  31.974708171206228 26.410505836575883  29.143968871595323 29.241245136186777  C 26.31322957198442 32.071984435797674  23.336575875486375 34.38715953307393  20.98249027237354 35.603112840466935  C 20.08754863813229 36.07003891050584  20.00972762645914 37.305447470817114  20.817120622568083 37.87937743190662  C 24.60116731517509 40.573929961089505  31.225680933852136 38.48249027237354  34.79571984435796 34.90272373540856  C 38.365758754863805 31.322957198443575  40.46692607003891 24.708171206225686  37.77237354085602 20.92412451361868  C 37.20817120622567 20.126459143968873  35.9727626459144 20.184824902723733  35.49610894941634 21.08949416342412  Z " fill-rule="evenodd" />
    </mask>
  </defs>
  <g>
    <path d="M 12.451361867704279 38.52140077821012  C 12.529182879377428 37.89883268482491  12.003891050583661 37.37354085603113  11.391050583657588 37.46108949416342  C 8.88132295719845 37.82101167315176  3.2198443579766547 38.79377431906616  1.575875486381321 40.43774319066148  C -0.5544747081712131 42.56809338521401  -0.5155642023346303 46.07003891050584  1.663424124513611 48.249027237354085  C 3.8424124513618665 50.428015564202354  7.334630350194544 50.466926070038944  9.474708171206217 48.3365758754864  C 11.11867704280155 46.692607003891055  12.091439688715951 41.03112840466926  12.451361867704279 38.52140077821012  Z M 2.782101167315176 34.59143968871595  C 3.968871595330739 34.192607003891055  5.4766536964980475 33.784046692607006  7.383268482490266 33.40466926070039  C 3.920233463035018 26.16731517509729  5.155642023346303 17.227626459143977  11.14785992217898 11.245136186770424  C 14.824902723735406 7.568093385214013  19.70817120622567 5.54474708171206  24.902723735408557 5.54474708171206  C 28.424124513618665 5.54474708171206  31.789883268482484 6.4980544747081685  34.747081712062254 8.239299610894946  C 35.11673151750972 6.264591439688714  35.52529182879377 4.727626459143963  35.91439688715951 3.540856031128399  C 32.47081712062257 1.7704280155642067  28.686770428015564 0.8754863813229575  24.902723735408557 0.8754863813229575  C 18.725680933852146 0.8754863813229575  12.55836575875486 3.2295719844357933  7.840466926070036 7.937743190661478  C 0.6322957198443646 15.145914396887164  -1.0408560311283992 25.778210116731515  2.782101167315176 34.59143968871595  Z M 46.3715953307393 13.98832684824903  C 45.17509727626458 14.377431906614788  43.6284046692607 14.776264591439697  41.65369649805447 15.155642023346303  C 46.03112840466926 22.60700389105058  45.04863813229571 32.36381322957199  38.65758754863813 38.754863813229576  C 34.980544747081694 42.43190661478599  30.09727626459143 44.455252918287954  24.902723735408557 44.455252918287954  C 21.93579766536965 44.455252918287954  19.08560311284046 43.77431906614788  16.49805447470817 42.52918287937743  C 16.11867704280155 44.426070038910495  15.719844357976653 45.93385214007782  15.311284046692606 47.12062256809338  C 18.365758754863805 48.44357976653697  21.63424124513618 49.12451361867704  24.912451361867696 49.12451361867704  C 31.08949416342412 49.12451361867704  37.25680933852141 46.77042801556422  41.9747081712062 42.06225680933852  C 49.571984435797674 34.46498054474708  51.03112840466926 23.054474708171213  46.3715953307393 13.98832684824903  Z M 37.35408560311282 11.478599221789878  C 37.276264591439684 12.101167315175104  37.80155642023345 12.626459143968875  38.41439688715951 12.538910505836585  C 40.924124513618665 12.178988326848255  46.58560311284046 11.206225680933855  48.22957198443578 9.562256809338521  C 50.35992217898831 7.431906614786002  50.32101167315173 3.929961089494171  48.14202334630349 1.750972762645915  C 45.96303501945525 -0.428015564202326  42.47081712062254 -0.46692607003890885  40.33073929961088 1.6634241245136252  C 38.68677042801556 3.3073929961089448  37.71400778210116 8.96887159533074  37.35408560311282 11.478599221789878  Z M 20.53501945525292 24.192607003891055  C 20.632295719844365 23.784046692607006  20.51556420233463 23.365758754863805  20.2237354085603 23.073929961089505  C 19.931906614785987 22.782101167315176  19.52334630350194 22.665369649805456  19.11478599221789 22.7626459143969  L 10.311284046692606 24.97081712062257  C 9.756809338521407 25.10700389105058  9.387159533073927 25.622568093385212  9.42607003891051 26.196498054474716  C 9.474708171206231 26.760700389105068  9.922178988326849 27.217898832684824  10.4863813229572 27.26653696498055  L 15.573929961089492 27.733463035019458  L 16.040856031128413 32.82101167315176  C 16.08949416342412 33.38521400778211  16.54669260700389 33.83268482490273  17.110894941634243 33.88132295719845  L 17.198443579766547 33.88132295719845  C 17.733463035019454 33.88132295719845  18.200389105058363 33.52140077821012  18.336575875486375 32.99610894941634  L 20.53501945525292 24.192607003891055  Z M 22.976653696498047 20.32101167315176  C 23.463035019455248 20.807392996108945  24.07587548638132 20.632295719844365  24.08560311284046 20.632295719844365  L 32.88910505836574 18.433852140077832  C 33.443579766536956 18.297665369649806  33.81322957198444 17.782101167315176  33.774319066147854 17.208171206225686  C 33.72568093385213 16.643968871595334  33.278210116731515 16.186770428015564  32.71400778210116 16.138132295719856  L 27.626459143968873 15.671206225680933  L 27.159533073929964 10.583657587548643  C 27.11089494163423 10.019455252918291  26.653696498054476 9.571984435797674  26.08949416342412 9.523346303501953  C 25.54474708171206 9.513618677042814  25 9.85408560311285  24.863813229571974 10.408560311284049  L 22.66536964980544 19.212062256809332  C 22.568093385214013 19.610894941634243  22.684824902723733 20.02918287937743  22.976653696498047 20.32101167315176  Z M 35.49610894941634 21.08949416342412  C 34.29961089494162 23.44357976653697  31.974708171206228 26.410505836575883  29.143968871595323 29.241245136186777  C 26.31322957198442 32.071984435797674  23.336575875486375 34.38715953307393  20.98249027237354 35.603112840466935  C 20.08754863813229 36.07003891050584  20.00972762645914 37.305447470817114  20.817120622568083 37.87937743190662  C 24.60116731517509 40.573929961089505  31.225680933852136 38.48249027237354  34.79571984435796 34.90272373540856  C 38.365758754863805 31.322957198443575  40.46692607003891 24.708171206225686  37.77237354085602 20.92412451361868  C 37.20817120622567 20.126459143968873  35.9727626459144 20.184824902723733  35.49610894941634 21.08949416342412  Z " fill-rule="nonzero" fill="rgba(0, 0, 0, 1)" stroke="none" class="fill" />
    <path d="M 12.451361867704279 38.52140077821012  C 12.529182879377428 37.89883268482491  12.003891050583661 37.37354085603113  11.391050583657588 37.46108949416342  C 8.88132295719845 37.82101167315176  3.2198443579766547 38.79377431906616  1.575875486381321 40.43774319066148  C -0.5544747081712131 42.56809338521401  -0.5155642023346303 46.07003891050584  1.663424124513611 48.249027237354085  C 3.8424124513618665 50.428015564202354  7.334630350194544 50.466926070038944  9.474708171206217 48.3365758754864  C 11.11867704280155 46.692607003891055  12.091439688715951 41.03112840466926  12.451361867704279 38.52140077821012  Z " stroke-width="0" stroke-dasharray="0" stroke="rgba(255, 255, 255, 0)" fill="none" class="stroke" mask="url(#Clip1139)" />
    <path d="M 2.782101167315176 34.59143968871595  C 3.968871595330739 34.192607003891055  5.4766536964980475 33.784046692607006  7.383268482490266 33.40466926070039  C 3.920233463035018 26.16731517509729  5.155642023346303 17.227626459143977  11.14785992217898 11.245136186770424  C 14.824902723735406 7.568093385214013  19.70817120622567 5.54474708171206  24.902723735408557 5.54474708171206  C 28.424124513618665 5.54474708171206  31.789883268482484 6.4980544747081685  34.747081712062254 8.239299610894946  C 35.11673151750972 6.264591439688714  35.52529182879377 4.727626459143963  35.91439688715951 3.540856031128399  C 32.47081712062257 1.7704280155642067  28.686770428015564 0.8754863813229575  24.902723735408557 0.8754863813229575  C 18.725680933852146 0.8754863813229575  12.55836575875486 3.2295719844357933  7.840466926070036 7.937743190661478  C 0.6322957198443646 15.145914396887164  -1.0408560311283992 25.778210116731515  2.782101167315176 34.59143968871595  Z " stroke-width="0" stroke-dasharray="0" stroke="rgba(255, 255, 255, 0)" fill="none" class="stroke" mask="url(#Clip1139)" />
    <path d="M 46.3715953307393 13.98832684824903  C 45.17509727626458 14.377431906614788  43.6284046692607 14.776264591439697  41.65369649805447 15.155642023346303  C 46.03112840466926 22.60700389105058  45.04863813229571 32.36381322957199  38.65758754863813 38.754863813229576  C 34.980544747081694 42.43190661478599  30.09727626459143 44.455252918287954  24.902723735408557 44.455252918287954  C 21.93579766536965 44.455252918287954  19.08560311284046 43.77431906614788  16.49805447470817 42.52918287937743  C 16.11867704280155 44.426070038910495  15.719844357976653 45.93385214007782  15.311284046692606 47.12062256809338  C 18.365758754863805 48.44357976653697  21.63424124513618 49.12451361867704  24.912451361867696 49.12451361867704  C 31.08949416342412 49.12451361867704  37.25680933852141 46.77042801556422  41.9747081712062 42.06225680933852  C 49.571984435797674 34.46498054474708  51.03112840466926 23.054474708171213  46.3715953307393 13.98832684824903  Z " stroke-width="0" stroke-dasharray="0" stroke="rgba(255, 255, 255, 0)" fill="none" class="stroke" mask="url(#Clip1139)" />
    <path d="M 37.35408560311282 11.478599221789878  C 37.276264591439684 12.101167315175104  37.80155642023345 12.626459143968875  38.41439688715951 12.538910505836585  C 40.924124513618665 12.178988326848255  46.58560311284046 11.206225680933855  48.22957198443578 9.562256809338521  C 50.35992217898831 7.431906614786002  50.32101167315173 3.929961089494171  48.14202334630349 1.750972762645915  C 45.96303501945525 -0.428015564202326  42.47081712062254 -0.46692607003890885  40.33073929961088 1.6634241245136252  C 38.68677042801556 3.3073929961089448  37.71400778210116 8.96887159533074  37.35408560311282 11.478599221789878  Z " stroke-width="0" stroke-dasharray="0" stroke="rgba(255, 255, 255, 0)" fill="none" class="stroke" mask="url(#Clip1139)" />
    <path d="M 20.53501945525292 24.192607003891055  C 20.632295719844365 23.784046692607006  20.51556420233463 23.365758754863805  20.2237354085603 23.073929961089505  C 19.931906614785987 22.782101167315176  19.52334630350194 22.665369649805456  19.11478599221789 22.7626459143969  L 10.311284046692606 24.97081712062257  C 9.756809338521407 25.10700389105058  9.387159533073927 25.622568093385212  9.42607003891051 26.196498054474716  C 9.474708171206231 26.760700389105068  9.922178988326849 27.217898832684824  10.4863813229572 27.26653696498055  L 15.573929961089492 27.733463035019458  L 16.040856031128413 32.82101167315176  C 16.08949416342412 33.38521400778211  16.54669260700389 33.83268482490273  17.110894941634243 33.88132295719845  L 17.198443579766547 33.88132295719845  C 17.733463035019454 33.88132295719845  18.200389105058363 33.52140077821012  18.336575875486375 32.99610894941634  L 20.53501945525292 24.192607003891055  Z " stroke-width="0" stroke-dasharray="0" stroke="rgba(255, 255, 255, 0)" fill="none" class="stroke" mask="url(#Clip1139)" />
    <path d="M 22.976653696498047 20.32101167315176  C 23.463035019455248 20.807392996108945  24.07587548638132 20.632295719844365  24.08560311284046 20.632295719844365  L 32.88910505836574 18.433852140077832  C 33.443579766536956 18.297665369649806  33.81322957198444 17.782101167315176  33.774319066147854 17.208171206225686  C 33.72568093385213 16.643968871595334  33.278210116731515 16.186770428015564  32.71400778210116 16.138132295719856  L 27.626459143968873 15.671206225680933  L 27.159533073929964 10.583657587548643  C 27.11089494163423 10.019455252918291  26.653696498054476 9.571984435797674  26.08949416342412 9.523346303501953  C 25.54474708171206 9.513618677042814  25 9.85408560311285  24.863813229571974 10.408560311284049  L 22.66536964980544 19.212062256809332  C 22.568093385214013 19.610894941634243  22.684824902723733 20.02918287937743  22.976653696498047 20.32101167315176  Z " stroke-width="0" stroke-dasharray="0" stroke="rgba(255, 255, 255, 0)" fill="none" class="stroke" mask="url(#Clip1139)" />
    <path d="M 35.49610894941634 21.08949416342412  C 34.29961089494162 23.44357976653697  31.974708171206228 26.410505836575883  29.143968871595323 29.241245136186777  C 26.31322957198442 32.071984435797674  23.336575875486375 34.38715953307393  20.98249027237354 35.603112840466935  C 20.08754863813229 36.07003891050584  20.00972762645914 37.305447470817114  20.817120622568083 37.87937743190662  C 24.60116731517509 40.573929961089505  31.225680933852136 38.48249027237354  34.79571984435796 34.90272373540856  C 38.365758754863805 31.322957198443575  40.46692607003891 24.708171206225686  37.77237354085602 20.92412451361868  C 37.20817120622567 20.126459143968873  35.9727626459144 20.184824902723733  35.49610894941634 21.08949416342412  Z " stroke-width="0" stroke-dasharray="0" stroke="rgba(255, 255, 255, 0)" fill="none" class="stroke" mask="url(#Clip1139)" />
  </g>
</svg>