<?xml version="1.0" encoding="utf-8"?>
<svg version="1.1" xmlns:xlink="http://www.w3.org/1999/xlink" width="64px" height="64px" xmlns="http://www.w3.org/2000/svg">
  <defs>
    <pattern id="BGPattern" patternUnits="userSpaceOnUse" alignment="0 0" imageRepeat="None" />
    <mask fill="white" id="Clip1800">
      <path d="M 13.087499999999999 12.8  C 14.587499999999999 14.325000000000001  15.549999999999999 16.2375  15.8875 18.3125  C 16.05 19.275  16.8875 20  17.8875 20  L 19.95 20  C 21.175 20  22.15 18.9375  21.9875 17.75  C 21.5125 14.225  19.9375 10.975  17.4125 8.4125  C 15.6125 6.574999999999999  14.462500000000002 4.25  14.1125 1.7249999999999996  C 13.975 0.7375  13.125 0  12.1 0  L 10.05 0  C 8.825 0  7.875 1.0625  8.0125 2.25  C 8.5 6.2375  10.2625 9.9125  13.087499999999999 12.8  Z M 27.0875 12.8  C 28.5875 14.325000000000001  29.549999999999997 16.2375  29.8875 18.3125  C 30.05 19.275  30.8875 20  31.8875 20  L 33.95 20  C 35.175000000000004 20  36.150000000000006 18.9375  35.987500000000004 17.75  C 35.5125 14.225  33.93750000000001 10.975  31.412500000000005 8.4125  C 29.612500000000004 6.574999999999999  28.462500000000006 4.25  28.112500000000004 1.7249999999999996  C 27.975 0.7375  27.125 0  26.1 0  L 24.05 0  C 22.825 0  21.8625 1.0625  22.0125 2.25  C 22.5 6.2375  24.2625 9.9125  27.0875 12.8  Z M 64 38  C 64 30.275  57.725 24  50 24  L 4 24  C 1.7875 24  0 25.7875  0 28  L 0 52  C 0 58.625  5.375 64  12 64  L 36 64  C 42.625 64  48 58.625  48 52  L 50 52  C 57.725 52  64 45.725  64 38  Z M 56 38  C 56 41.3125  53.3125 44  50 44  L 48 44  L 48 32  L 50 32  C 53.3125 32  56 34.6875  56 38  Z " fill-rule="evenodd" />
    </mask>
  </defs>
  <g>
    <path d="M 13.087499999999999 12.8  C 14.587499999999999 14.325000000000001  15.549999999999999 16.2375  15.8875 18.3125  C 16.05 19.275  16.8875 20  17.8875 20  L 19.95 20  C 21.175 20  22.15 18.9375  21.9875 17.75  C 21.5125 14.225  19.9375 10.975  17.4125 8.4125  C 15.6125 6.574999999999999  14.462500000000002 4.25  14.1125 1.7249999999999996  C 13.975 0.7375  13.125 0  12.1 0  L 10.05 0  C 8.825 0  7.875 1.0625  8.0125 2.25  C 8.5 6.2375  10.2625 9.9125  13.087499999999999 12.8  Z M 27.0875 12.8  C 28.5875 14.325000000000001  29.549999999999997 16.2375  29.8875 18.3125  C 30.05 19.275  30.8875 20  31.8875 20  L 33.95 20  C 35.175000000000004 20  36.150000000000006 18.9375  35.987500000000004 17.75  C 35.5125 14.225  33.93750000000001 10.975  31.412500000000005 8.4125  C 29.612500000000004 6.574999999999999  28.462500000000006 4.25  28.112500000000004 1.7249999999999996  C 27.975 0.7375  27.125 0  26.1 0  L 24.05 0  C 22.825 0  21.8625 1.0625  22.0125 2.25  C 22.5 6.2375  24.2625 9.9125  27.0875 12.8  Z M 64 38  C 64 30.275  57.725 24  50 24  L 4 24  C 1.7875 24  0 25.7875  0 28  L 0 52  C 0 58.625  5.375 64  12 64  L 36 64  C 42.625 64  48 58.625  48 52  L 50 52  C 57.725 52  64 45.725  64 38  Z M 56 38  C 56 41.3125  53.3125 44  50 44  L 48 44  L 48 32  L 50 32  C 53.3125 32  56 34.6875  56 38  Z " fill-rule="nonzero" fill="rgba(0, 0, 0, 1)" stroke="none" class="fill" />
    <path d="M 13.087499999999999 12.8  C 14.587499999999999 14.325000000000001  15.549999999999999 16.2375  15.8875 18.3125  C 16.05 19.275  16.8875 20  17.8875 20  L 19.95 20  C 21.175 20  22.15 18.9375  21.9875 17.75  C 21.5125 14.225  19.9375 10.975  17.4125 8.4125  C 15.6125 6.574999999999999  14.462500000000002 4.25  14.1125 1.7249999999999996  C 13.975 0.7375  13.125 0  12.1 0  L 10.05 0  C 8.825 0  7.875 1.0625  8.0125 2.25  C 8.5 6.2375  10.2625 9.9125  13.087499999999999 12.8  Z " stroke-width="0" stroke-dasharray="0" stroke="rgba(255, 255, 255, 0)" fill="none" class="stroke" mask="url(#Clip1800)" />
    <path d="M 27.0875 12.8  C 28.5875 14.325000000000001  29.549999999999997 16.2375  29.8875 18.3125  C 30.05 19.275  30.8875 20  31.8875 20  L 33.95 20  C 35.175000000000004 20  36.150000000000006 18.9375  35.987500000000004 17.75  C 35.5125 14.225  33.93750000000001 10.975  31.412500000000005 8.4125  C 29.612500000000004 6.574999999999999  28.462500000000006 4.25  28.112500000000004 1.7249999999999996  C 27.975 0.7375  27.125 0  26.1 0  L 24.05 0  C 22.825 0  21.8625 1.0625  22.0125 2.25  C 22.5 6.2375  24.2625 9.9125  27.0875 12.8  Z " stroke-width="0" stroke-dasharray="0" stroke="rgba(255, 255, 255, 0)" fill="none" class="stroke" mask="url(#Clip1800)" />
    <path d="M 64 38  C 64 30.275  57.725 24  50 24  L 4 24  C 1.7875 24  0 25.7875  0 28  L 0 52  C 0 58.625  5.375 64  12 64  L 36 64  C 42.625 64  48 58.625  48 52  L 50 52  C 57.725 52  64 45.725  64 38  Z " stroke-width="0" stroke-dasharray="0" stroke="rgba(255, 255, 255, 0)" fill="none" class="stroke" mask="url(#Clip1800)" />
    <path d="M 56 38  C 56 41.3125  53.3125 44  50 44  L 48 44  L 48 32  L 50 32  C 53.3125 32  56 34.6875  56 38  Z " stroke-width="0" stroke-dasharray="0" stroke="rgba(255, 255, 255, 0)" fill="none" class="stroke" mask="url(#Clip1800)" />
  </g>
</svg>