<?xml version="1.0" encoding="utf-8"?>
<svg version="1.1" xmlns:xlink="http://www.w3.org/1999/xlink" width="24px" height="22px" xmlns="http://www.w3.org/2000/svg">
  <defs>
    <pattern id="BGPattern" patternUnits="userSpaceOnUse" alignment="0 0" imageRepeat="None" />
    <mask fill="white" id="Clip6354">
      <path d="M 18.9525 14.220500000000001  C 17.163 15.900500000000001  14.9895 17.9405  12.588 20.791999999999994  C 12.441790969906542 20.965198165781388  12.22665984450473 21.065126904435783  12 21.065126904435783  C 11.773340155495267 21.065126904435783  11.558209030093458 20.965198165781388  11.411999999999999 20.791999999999998  C 9.0105 17.939  6.837 15.898999999999997  5.047499999999999 14.220499999999996  C 1.9500000000000002 11.312  0 9.4835  0 6.38  C 0 3.1325000000000003  2.685 0.5  6 0.5  C 8.399999999999999 0.5  10.078499999999998 2.0749999999999997  11.106 3.5120000000000005  C 11.495999999999999 4.0595  11.793 4.586  11.999999999999998 4.999999999999999  C 12.259491403760535 4.481857968045001  12.558369176421937 3.984396977306565  12.894 3.5120000000000005  C 13.921500000000002 2.0735  15.600000000000001 0.5  18 0.5  C 21.315 0.5  24 3.1325000000000003  24 6.38  C 24 9.4835  22.049999999999997 11.312  18.9525 14.220500000000001  Z M 13.341000000000001 5.6705000000000005  L 12 8.354  L 10.658999999999999 5.6705000000000005  C 10.325999999999999 5.005999999999999  9.7485 4.0504999999999995  8.931 3.278  C 8.127 2.5174999999999996  7.164 2  6 2  C 3.4859999999999998 2  1.5 3.989  1.5 6.38  C 1.5 8.1965  2.331 9.479  4.302 11.434999999999997  C 4.805999999999999 11.9345  5.3835 12.4775  6.020999999999999 13.074499999999999  C 7.683 14.634499999999997  9.75 16.575499999999998  12 19.170499999999997  C 14.25 16.5755  16.317 14.6345  17.979 13.074499999999999  C 18.6165 12.4775  19.1925 11.935999999999998  19.698 11.434999999999997  C 21.669 9.479  22.5 8.1965  22.5 6.38  C 22.5 3.989  20.514 2  18 2  C 16.836 2  15.873000000000001 2.5175  15.068999999999999 3.2780000000000005  C 14.2515 4.0504999999999995  13.674 5.006  13.341000000000001 5.6705000000000005  Z " fill-rule="evenodd" />
    </mask>
  </defs>
  <g>
    <path d="M 18.9525 14.220500000000001  C 17.163 15.900500000000001  14.9895 17.9405  12.588 20.791999999999994  C 12.441790969906542 20.965198165781388  12.22665984450473 21.065126904435783  12 21.065126904435783  C 11.773340155495267 21.065126904435783  11.558209030093458 20.965198165781388  11.411999999999999 20.791999999999998  C 9.0105 17.939  6.837 15.898999999999997  5.047499999999999 14.220499999999996  C 1.9500000000000002 11.312  0 9.4835  0 6.38  C 0 3.1325000000000003  2.685 0.5  6 0.5  C 8.399999999999999 0.5  10.078499999999998 2.0749999999999997  11.106 3.5120000000000005  C 11.495999999999999 4.0595  11.793 4.586  11.999999999999998 4.999999999999999  C 12.259491403760535 4.481857968045001  12.558369176421937 3.984396977306565  12.894 3.5120000000000005  C 13.921500000000002 2.0735  15.600000000000001 0.5  18 0.5  C 21.315 0.5  24 3.1325000000000003  24 6.38  C 24 9.4835  22.049999999999997 11.312  18.9525 14.220500000000001  Z M 13.341000000000001 5.6705000000000005  L 12 8.354  L 10.658999999999999 5.6705000000000005  C 10.325999999999999 5.005999999999999  9.7485 4.0504999999999995  8.931 3.278  C 8.127 2.5174999999999996  7.164 2  6 2  C 3.4859999999999998 2  1.5 3.989  1.5 6.38  C 1.5 8.1965  2.331 9.479  4.302 11.434999999999997  C 4.805999999999999 11.9345  5.3835 12.4775  6.020999999999999 13.074499999999999  C 7.683 14.634499999999997  9.75 16.575499999999998  12 19.170499999999997  C 14.25 16.5755  16.317 14.6345  17.979 13.074499999999999  C 18.6165 12.4775  19.1925 11.935999999999998  19.698 11.434999999999997  C 21.669 9.479  22.5 8.1965  22.5 6.38  C 22.5 3.989  20.514 2  18 2  C 16.836 2  15.873000000000001 2.5175  15.068999999999999 3.2780000000000005  C 14.2515 4.0504999999999995  13.674 5.006  13.341000000000001 5.6705000000000005  Z " fill-rule="nonzero" fill="rgba(0, 0, 0, 1)" stroke="none" class="fill" />
    <path d="M 18.9525 14.220500000000001  C 17.163 15.900500000000001  14.9895 17.9405  12.588 20.791999999999994  C 12.441790969906542 20.965198165781388  12.22665984450473 21.065126904435783  12 21.065126904435783  C 11.773340155495267 21.065126904435783  11.558209030093458 20.965198165781388  11.411999999999999 20.791999999999998  C 9.0105 17.939  6.837 15.898999999999997  5.047499999999999 14.220499999999996  C 1.9500000000000002 11.312  0 9.4835  0 6.38  C 0 3.1325000000000003  2.685 0.5  6 0.5  C 8.399999999999999 0.5  10.078499999999998 2.0749999999999997  11.106 3.5120000000000005  C 11.495999999999999 4.0595  11.793 4.586  11.999999999999998 4.999999999999999  C 12.259491403760535 4.481857968045001  12.558369176421937 3.984396977306565  12.894 3.5120000000000005  C 13.921500000000002 2.0735  15.600000000000001 0.5  18 0.5  C 21.315 0.5  24 3.1325000000000003  24 6.38  C 24 9.4835  22.049999999999997 11.312  18.9525 14.220500000000001  Z " stroke-width="0" stroke-dasharray="0" stroke="rgba(255, 255, 255, 0)" fill="none" class="stroke" mask="url(#Clip6354)" />
    <path d="M 13.341000000000001 5.6705000000000005  L 12 8.354  L 10.658999999999999 5.6705000000000005  C 10.325999999999999 5.005999999999999  9.7485 4.0504999999999995  8.931 3.278  C 8.127 2.5174999999999996  7.164 2  6 2  C 3.4859999999999998 2  1.5 3.989  1.5 6.38  C 1.5 8.1965  2.331 9.479  4.302 11.434999999999997  C 4.805999999999999 11.9345  5.3835 12.4775  6.020999999999999 13.074499999999999  C 7.683 14.634499999999997  9.75 16.575499999999998  12 19.170499999999997  C 14.25 16.5755  16.317 14.6345  17.979 13.074499999999999  C 18.6165 12.4775  19.1925 11.935999999999998  19.698 11.434999999999997  C 21.669 9.479  22.5 8.1965  22.5 6.38  C 22.5 3.989  20.514 2  18 2  C 16.836 2  15.873000000000001 2.5175  15.068999999999999 3.2780000000000005  C 14.2515 4.0504999999999995  13.674 5.006  13.341000000000001 5.6705000000000005  Z " stroke-width="0" stroke-dasharray="0" stroke="rgba(255, 255, 255, 0)" fill="none" class="stroke" mask="url(#Clip6354)" />
  </g>
</svg>