<?xml version="1.0" encoding="utf-8"?>
<svg version="1.1" xmlns:xlink="http://www.w3.org/1999/xlink" width="38px" height="48px" xmlns="http://www.w3.org/2000/svg">
  <defs>
    <pattern id="BGPattern" patternUnits="userSpaceOnUse" alignment="0 0" imageRepeat="None" />
    <mask fill="white" id="Clip6701">
      <path d="M 37 14.072  L 19 26.136  L 19 24.123999999999995  C 19 22.863999999999997  19.504 21.612  20.759999999999998 21.107999999999997  L 36.34 11.307999999999996  C 37.346000000000004 10.803999999999997  37.85 9.547999999999996  37.85 8.287999999999997  L 37.85 0  L 19 12.060000000000002  L 0.15000000000000036 0  L 0.15000000000000036 25.379999999999995  C 0.15000000000000036 32.168  3.17 37.948  8.19 41.214  L 18.75 48  L 29.310000000000002 41.214  C 34.336 38.193999999999996  37.35 32.418  37 25.381999999999998  L 37 14.072  Z " fill-rule="evenodd" />
    </mask>
  </defs>
  <g>
    <path d="M 37 14.072  L 19 26.136  L 19 24.123999999999995  C 19 22.863999999999997  19.504 21.612  20.759999999999998 21.107999999999997  L 36.34 11.307999999999996  C 37.346000000000004 10.803999999999997  37.85 9.547999999999996  37.85 8.287999999999997  L 37.85 0  L 19 12.060000000000002  L 0.15000000000000036 0  L 0.15000000000000036 25.379999999999995  C 0.15000000000000036 32.168  3.17 37.948  8.19 41.214  L 18.75 48  L 29.310000000000002 41.214  C 34.336 38.193999999999996  37.35 32.418  37 25.381999999999998  L 37 14.072  Z " fill-rule="nonzero" fill="rgba(34, 34, 34, 1)" stroke="none" class="fill" />
    <path d="M 37 14.072  L 19 26.136  L 19 24.123999999999995  C 19 22.863999999999997  19.504 21.612  20.759999999999998 21.107999999999997  L 36.34 11.307999999999996  C 37.346000000000004 10.803999999999997  37.85 9.547999999999996  37.85 8.287999999999997  L 37.85 0  L 19 12.060000000000002  L 0.15000000000000036 0  L 0.15000000000000036 25.379999999999995  C 0.15000000000000036 32.168  3.17 37.948  8.19 41.214  L 18.75 48  L 29.310000000000002 41.214  C 34.336 38.193999999999996  37.35 32.418  37 25.381999999999998  L 37 14.072  Z " stroke-width="0" stroke-dasharray="0" stroke="rgba(255, 255, 255, 0)" fill="none" class="stroke" mask="url(#Clip6701)" />
  </g>
</svg>