<?xml version="1.0" encoding="utf-8"?>
<svg version="1.1" xmlns:xlink="http://www.w3.org/1999/xlink" width="36px" height="50px" xmlns="http://www.w3.org/2000/svg">
  <defs>
    <pattern id="BGPattern" patternUnits="userSpaceOnUse" alignment="0 0" imageRepeat="None" />
    <mask fill="white" id="Clip1869">
      <path d="M 35 37.053571428571445  C 35.71428571428578 36.31395089285712  35.11462053571438 35.71428571428572  34.375000000000114 35.71428571428572  L 29.297433035714334 35.71428571428572  C 28.557812500000068 35.71428571428572  27.95814732142867 36.31395089285712  27.95814732142867 37.053571428571445  L 27.95814732142867 42  L 15 42  L 15 28.57142857142855  L 23.660714285714334 28.57142857142855  C 24.4003348214286 28.57142857142855  25 27.971763392857156  25 27.232142857142833  L 25 22.767857142857167  C 25 22.028236607142844  24.4003348214286 21.428571428571445  23.660714285714334 21.428571428571445  L 14.285714285714334 21.428571428571445  L 14.285714285714334 14.335267857142867  C 14.285714285714334 10.734151785714289  17.02700892857149 7.964062500000011  21.182142857142935 7.964062500000011  C 23.822544642857224 7.964062500000011  26.30245535714289 9.248102678571456  27.616517857142867 10.067745535714266  C 28.19140625 10.426339285714278  28.9433035714286 10.296651785714289  29.367410714285825 9.768080357142878  L 32.547433035714334 5.8045758928571445  C 33.01986607142862 5.215736607142844  32.91339285714287 4.353124999999977  32.31093750000002 3.898214285714289  C 30.48258928571431 2.517857142857167  26.403571428571468 0  20.974441964285802 0  C 11.833258928571468 0  5.35714285714289 5.886383928571433  5.35714285714289 14.058147321428576  L 5.35714285714289 21.428571428571445  L 2.2321428571428896 21.428571428571445  C 1.4925223214285666 21.428571428571445  0.8928571428571672 22.028236607142844  0.8928571428571672 22.767857142857167  L 0.8928571428571672 27.232142857142833  C 0.8928571428571672 27.971763392857156  1.4925223214285666 28.57142857142855  2.2321428571428896 28.57142857142855  L 6 28.57142857142855  L 6 42.85714285714283  L 1.3392857142857224 42.85714285714283  C 0.5996651785714562 42.85714285714283  0 43.45680803571429  0 44.196428571428555  L 0 48.66071428571428  C 0 49.4003348214286  0.5996651785714562 50  1.3392857142857224 50  L 34.375000000000114 50  C 35.11462053571438 50  35.71428571428578 49.4003348214286  35 48.66071428571428  L 35 37.053571428571445  Z " fill-rule="evenodd" />
    </mask>
  </defs>
  <g>
    <path d="M 35 37.053571428571445  C 35.71428571428578 36.31395089285712  35.11462053571438 35.71428571428572  34.375000000000114 35.71428571428572  L 29.297433035714334 35.71428571428572  C 28.557812500000068 35.71428571428572  27.95814732142867 36.31395089285712  27.95814732142867 37.053571428571445  L 27.95814732142867 42  L 15 42  L 15 28.57142857142855  L 23.660714285714334 28.57142857142855  C 24.4003348214286 28.57142857142855  25 27.971763392857156  25 27.232142857142833  L 25 22.767857142857167  C 25 22.028236607142844  24.4003348214286 21.428571428571445  23.660714285714334 21.428571428571445  L 14.285714285714334 21.428571428571445  L 14.285714285714334 14.335267857142867  C 14.285714285714334 10.734151785714289  17.02700892857149 7.964062500000011  21.182142857142935 7.964062500000011  C 23.822544642857224 7.964062500000011  26.30245535714289 9.248102678571456  27.616517857142867 10.067745535714266  C 28.19140625 10.426339285714278  28.9433035714286 10.296651785714289  29.367410714285825 9.768080357142878  L 32.547433035714334 5.8045758928571445  C 33.01986607142862 5.215736607142844  32.91339285714287 4.353124999999977  32.31093750000002 3.898214285714289  C 30.48258928571431 2.517857142857167  26.403571428571468 0  20.974441964285802 0  C 11.833258928571468 0  5.35714285714289 5.886383928571433  5.35714285714289 14.058147321428576  L 5.35714285714289 21.428571428571445  L 2.2321428571428896 21.428571428571445  C 1.4925223214285666 21.428571428571445  0.8928571428571672 22.028236607142844  0.8928571428571672 22.767857142857167  L 0.8928571428571672 27.232142857142833  C 0.8928571428571672 27.971763392857156  1.4925223214285666 28.57142857142855  2.2321428571428896 28.57142857142855  L 6 28.57142857142855  L 6 42.85714285714283  L 1.3392857142857224 42.85714285714283  C 0.5996651785714562 42.85714285714283  0 43.45680803571429  0 44.196428571428555  L 0 48.66071428571428  C 0 49.4003348214286  0.5996651785714562 50  1.3392857142857224 50  L 34.375000000000114 50  C 35.11462053571438 50  35.71428571428578 49.4003348214286  35 48.66071428571428  L 35 37.053571428571445  Z " fill-rule="nonzero" fill="rgba(0, 0, 0, 1)" stroke="none" class="fill" />
    <path d="M 35 37.053571428571445  C 35.71428571428578 36.31395089285712  35.11462053571438 35.71428571428572  34.375000000000114 35.71428571428572  L 29.297433035714334 35.71428571428572  C 28.557812500000068 35.71428571428572  27.95814732142867 36.31395089285712  27.95814732142867 37.053571428571445  L 27.95814732142867 42  L 15 42  L 15 28.57142857142855  L 23.660714285714334 28.57142857142855  C 24.4003348214286 28.57142857142855  25 27.971763392857156  25 27.232142857142833  L 25 22.767857142857167  C 25 22.028236607142844  24.4003348214286 21.428571428571445  23.660714285714334 21.428571428571445  L 14.285714285714334 21.428571428571445  L 14.285714285714334 14.335267857142867  C 14.285714285714334 10.734151785714289  17.02700892857149 7.964062500000011  21.182142857142935 7.964062500000011  C 23.822544642857224 7.964062500000011  26.30245535714289 9.248102678571456  27.616517857142867 10.067745535714266  C 28.19140625 10.426339285714278  28.9433035714286 10.296651785714289  29.367410714285825 9.768080357142878  L 32.547433035714334 5.8045758928571445  C 33.01986607142862 5.215736607142844  32.91339285714287 4.353124999999977  32.31093750000002 3.898214285714289  C 30.48258928571431 2.517857142857167  26.403571428571468 0  20.974441964285802 0  C 11.833258928571468 0  5.35714285714289 5.886383928571433  5.35714285714289 14.058147321428576  L 5.35714285714289 21.428571428571445  L 2.2321428571428896 21.428571428571445  C 1.4925223214285666 21.428571428571445  0.8928571428571672 22.028236607142844  0.8928571428571672 22.767857142857167  L 0.8928571428571672 27.232142857142833  C 0.8928571428571672 27.971763392857156  1.4925223214285666 28.57142857142855  2.2321428571428896 28.57142857142855  L 6 28.57142857142855  L 6 42.85714285714283  L 1.3392857142857224 42.85714285714283  C 0.5996651785714562 42.85714285714283  0 43.45680803571429  0 44.196428571428555  L 0 48.66071428571428  C 0 49.4003348214286  0.5996651785714562 50  1.3392857142857224 50  L 34.375000000000114 50  C 35.11462053571438 50  35.71428571428578 49.4003348214286  35 48.66071428571428  L 35 37.053571428571445  Z " stroke-width="0" stroke-dasharray="0" stroke="rgba(255, 255, 255, 0)" fill="none" class="stroke" mask="url(#Clip1869)" />
  </g>
</svg>