<?xml version="1.0" encoding="utf-8"?>
<svg version="1.1" xmlns:xlink="http://www.w3.org/1999/xlink" width="24px" height="18px" xmlns="http://www.w3.org/2000/svg">
  <defs>
    <pattern id="BGPattern" patternUnits="userSpaceOnUse" alignment="0 0" imageRepeat="None" />
    <mask fill="white" id="Clip6029">
      <path d="M 10.5 18  L 22.5 18  C 22.5 18  24 18  24 16.5  C 24 15  22.5 10.5  16.5 10.5  C 10.5 10.5  9 15  9 16.5  C 9 18  10.5 18  10.5 18  Z M 16.499999999999996 0  C 18.985281374238568 0  20.999999999999996 2.014718720591838  20.999999999999996 4.500000094830408  C 20.999999999999996 6.985281469068978  18.985281374238568 9.00000009483041  16.499999999999996 9.00000009483041  C 14.014718625761429 9.00000009483041  11.999999999999996 6.985281469068978  12 4.5  C 12.000000052373386 2.0147186627950093  14.014718662795007 0  16.499999999999996 0  Z M 9.135 12.144  C 9.499500000000001 11.703  9.924 11.290500000000002  10.403999999999998 10.919999999999996  C 9.803972458397409 10.731057533442712  9.18545286921573 10.606850754151758  8.558999999999997 10.549499999999998  C 8.206998012660796 10.51602761109692  7.85358953371807 10.499508517888549  7.5 10.5  C 1.5 10.5  0 15  0 16.5  C 0 17.5005  0.49950000000000006 18  1.5 18  L 7.824 17.999999999999996  C 7.601632649873169 17.531722926028138  7.4907353676055255 17.01830958219646  7.5 16.5  C 7.5 14.985  8.0655 13.437000000000001  9.135 12.144  Z M 6.75 9.75  C 4.2647186257614305 9.75  2.25 7.7352813742385695  2.25 5.25  C 2.25 2.7647186257614287  4.264718625761429 0.75  6.75 0.75  C 9.23528137423857 0.75  11.25 2.7647186257614287  11.25 5.25  C 11.25 7.7352813742385695  9.23528137423857 9.75  6.75 9.75  Z M 22.467000000000002 16.5  L 10.533 16.5  C 10.521979015319925 16.498117187382935  10.510978391701755 16.496117073997816  10.5 16.494  C 10.5015 16.0995  10.750499999999999 14.948999999999998  11.64 13.914000000000001  C 12.4695 12.945  13.924499999999998 12  16.5 12  C 19.076999999999998 12  20.532 12.9435  21.36 13.913999999999998  C 22.2495 14.948999999999998  22.497 16.098  22.5 16.494  L 22.488 16.497  C 22.48102697698895 16.498180511251903  22.47402464524114 16.49918084435873  22.467000000000002 16.5  Z M 13.5 4.5  C 13.5 6.15685424949238  14.84314575050762 7.5  16.5 7.5  C 18.15685424949238 7.5  19.5 6.15685424949238  19.5 4.5  C 19.5 2.8431457505076194  18.15685424949238 1.5  16.5 1.5  C 14.84314575050762 1.5  13.5 2.8431457505076194  13.5 4.5  Z M 2.6399999999999997 13.914000000000001  C 3.4574999999999996 12.96  4.878 12.03  7.38 12  C 6.484500000000001 13.370999999999999  6 14.932500000000001  6 16.5  L 1.5 16.5  C 1.5 16.1085  1.7445 14.955000000000002  2.6399999999999997 13.914000000000001  Z M 9.75 5.25  C 9.75 3.5931457505076203  8.40685424949238 2.25  6.75 2.25  C 5.093145750507619 2.25  3.75 3.5931457505076203  3.75 5.25  C 3.75 6.90685424949238  5.093145750507619 8.25  6.75 8.25  C 8.40685424949238 8.25  9.75 6.90685424949238  9.75 5.25  Z " fill-rule="evenodd" />
    </mask>
  </defs>
  <g>
    <path d="M 10.5 18  L 22.5 18  C 22.5 18  24 18  24 16.5  C 24 15  22.5 10.5  16.5 10.5  C 10.5 10.5  9 15  9 16.5  C 9 18  10.5 18  10.5 18  Z M 16.499999999999996 0  C 18.985281374238568 0  20.999999999999996 2.014718720591838  20.999999999999996 4.500000094830408  C 20.999999999999996 6.985281469068978  18.985281374238568 9.00000009483041  16.499999999999996 9.00000009483041  C 14.014718625761429 9.00000009483041  11.999999999999996 6.985281469068978  12 4.5  C 12.000000052373386 2.0147186627950093  14.014718662795007 0  16.499999999999996 0  Z M 9.135 12.144  C 9.499500000000001 11.703  9.924 11.290500000000002  10.403999999999998 10.919999999999996  C 9.803972458397409 10.731057533442712  9.18545286921573 10.606850754151758  8.558999999999997 10.549499999999998  C 8.206998012660796 10.51602761109692  7.85358953371807 10.499508517888549  7.5 10.5  C 1.5 10.5  0 15  0 16.5  C 0 17.5005  0.49950000000000006 18  1.5 18  L 7.824 17.999999999999996  C 7.601632649873169 17.531722926028138  7.4907353676055255 17.01830958219646  7.5 16.5  C 7.5 14.985  8.0655 13.437000000000001  9.135 12.144  Z M 6.75 9.75  C 4.2647186257614305 9.75  2.25 7.7352813742385695  2.25 5.25  C 2.25 2.7647186257614287  4.264718625761429 0.75  6.75 0.75  C 9.23528137423857 0.75  11.25 2.7647186257614287  11.25 5.25  C 11.25 7.7352813742385695  9.23528137423857 9.75  6.75 9.75  Z M 22.467000000000002 16.5  L 10.533 16.5  C 10.521979015319925 16.498117187382935  10.510978391701755 16.496117073997816  10.5 16.494  C 10.5015 16.0995  10.750499999999999 14.948999999999998  11.64 13.914000000000001  C 12.4695 12.945  13.924499999999998 12  16.5 12  C 19.076999999999998 12  20.532 12.9435  21.36 13.913999999999998  C 22.2495 14.948999999999998  22.497 16.098  22.5 16.494  L 22.488 16.497  C 22.48102697698895 16.498180511251903  22.47402464524114 16.49918084435873  22.467000000000002 16.5  Z M 13.5 4.5  C 13.5 6.15685424949238  14.84314575050762 7.5  16.5 7.5  C 18.15685424949238 7.5  19.5 6.15685424949238  19.5 4.5  C 19.5 2.8431457505076194  18.15685424949238 1.5  16.5 1.5  C 14.84314575050762 1.5  13.5 2.8431457505076194  13.5 4.5  Z M 2.6399999999999997 13.914000000000001  C 3.4574999999999996 12.96  4.878 12.03  7.38 12  C 6.484500000000001 13.370999999999999  6 14.932500000000001  6 16.5  L 1.5 16.5  C 1.5 16.1085  1.7445 14.955000000000002  2.6399999999999997 13.914000000000001  Z M 9.75 5.25  C 9.75 3.5931457505076203  8.40685424949238 2.25  6.75 2.25  C 5.093145750507619 2.25  3.75 3.5931457505076203  3.75 5.25  C 3.75 6.90685424949238  5.093145750507619 8.25  6.75 8.25  C 8.40685424949238 8.25  9.75 6.90685424949238  9.75 5.25  Z " fill-rule="nonzero" fill="rgba(0, 0, 0, 1)" stroke="none" class="fill" />
    <path d="M 10.5 18  L 22.5 18  C 22.5 18  24 18  24 16.5  C 24 15  22.5 10.5  16.5 10.5  C 10.5 10.5  9 15  9 16.5  C 9 18  10.5 18  10.5 18  Z " stroke-width="0" stroke-dasharray="0" stroke="rgba(255, 255, 255, 0)" fill="none" class="stroke" mask="url(#Clip6029)" />
    <path d="M 16.499999999999996 0  C 18.985281374238568 0  20.999999999999996 2.014718720591838  20.999999999999996 4.500000094830408  C 20.999999999999996 6.985281469068978  18.985281374238568 9.00000009483041  16.499999999999996 9.00000009483041  C 14.014718625761429 9.00000009483041  11.999999999999996 6.985281469068978  12 4.5  C 12.000000052373386 2.0147186627950093  14.014718662795007 0  16.499999999999996 0  Z " stroke-width="0" stroke-dasharray="0" stroke="rgba(255, 255, 255, 0)" fill="none" class="stroke" mask="url(#Clip6029)" />
    <path d="M 9.135 12.144  C 9.499500000000001 11.703  9.924 11.290500000000002  10.403999999999998 10.919999999999996  C 9.803972458397409 10.731057533442712  9.18545286921573 10.606850754151758  8.558999999999997 10.549499999999998  C 8.206998012660796 10.51602761109692  7.85358953371807 10.499508517888549  7.5 10.5  C 1.5 10.5  0 15  0 16.5  C 0 17.5005  0.49950000000000006 18  1.5 18  L 7.824 17.999999999999996  C 7.601632649873169 17.531722926028138  7.4907353676055255 17.01830958219646  7.5 16.5  C 7.5 14.985  8.0655 13.437000000000001  9.135 12.144  Z " stroke-width="0" stroke-dasharray="0" stroke="rgba(255, 255, 255, 0)" fill="none" class="stroke" mask="url(#Clip6029)" />
    <path d="M 6.75 9.75  C 4.2647186257614305 9.75  2.25 7.7352813742385695  2.25 5.25  C 2.25 2.7647186257614287  4.264718625761429 0.75  6.75 0.75  C 9.23528137423857 0.75  11.25 2.7647186257614287  11.25 5.25  C 11.25 7.7352813742385695  9.23528137423857 9.75  6.75 9.75  Z " stroke-width="0" stroke-dasharray="0" stroke="rgba(255, 255, 255, 0)" fill="none" class="stroke" mask="url(#Clip6029)" />
    <path d="M 22.467000000000002 16.5  L 10.533 16.5  C 10.521979015319925 16.498117187382935  10.510978391701755 16.496117073997816  10.5 16.494  C 10.5015 16.0995  10.750499999999999 14.948999999999998  11.64 13.914000000000001  C 12.4695 12.945  13.924499999999998 12  16.5 12  C 19.076999999999998 12  20.532 12.9435  21.36 13.913999999999998  C 22.2495 14.948999999999998  22.497 16.098  22.5 16.494  L 22.488 16.497  C 22.48102697698895 16.498180511251903  22.47402464524114 16.49918084435873  22.467000000000002 16.5  Z " stroke-width="0" stroke-dasharray="0" stroke="rgba(255, 255, 255, 0)" fill="none" class="stroke" mask="url(#Clip6029)" />
    <path d="M 13.5 4.5  C 13.5 6.15685424949238  14.84314575050762 7.5  16.5 7.5  C 18.15685424949238 7.5  19.5 6.15685424949238  19.5 4.5  C 19.5 2.8431457505076194  18.15685424949238 1.5  16.5 1.5  C 14.84314575050762 1.5  13.5 2.8431457505076194  13.5 4.5  Z " stroke-width="0" stroke-dasharray="0" stroke="rgba(255, 255, 255, 0)" fill="none" class="stroke" mask="url(#Clip6029)" />
    <path d="M 2.6399999999999997 13.914000000000001  C 3.4574999999999996 12.96  4.878 12.03  7.38 12  C 6.484500000000001 13.370999999999999  6 14.932500000000001  6 16.5  L 1.5 16.5  C 1.5 16.1085  1.7445 14.955000000000002  2.6399999999999997 13.914000000000001  Z " stroke-width="0" stroke-dasharray="0" stroke="rgba(255, 255, 255, 0)" fill="none" class="stroke" mask="url(#Clip6029)" />
    <path d="M 9.75 5.25  C 9.75 3.5931457505076203  8.40685424949238 2.25  6.75 2.25  C 5.093145750507619 2.25  3.75 3.5931457505076203  3.75 5.25  C 3.75 6.90685424949238  5.093145750507619 8.25  6.75 8.25  C 8.40685424949238 8.25  9.75 6.90685424949238  9.75 5.25  Z " stroke-width="0" stroke-dasharray="0" stroke="rgba(255, 255, 255, 0)" fill="none" class="stroke" mask="url(#Clip6029)" />
  </g>
</svg>