<?xml version="1.0" encoding="utf-8"?>
<svg version="1.1" xmlns:xlink="http://www.w3.org/1999/xlink" width="50px" height="50px" xmlns="http://www.w3.org/2000/svg">
  <defs>
    <pattern id="BGPattern" patternUnits="userSpaceOnUse" alignment="0 0" imageRepeat="None" />
    <mask fill="white" id="Clip807">
      <path d="M 48.80040322580646 22  C 49.0322580645161 22.691532258064512  49.19354838709677 23.92137096774195  49.19354838709677 25.58467741935482  C 49.19354838709677 39.84879032258067  39.42540322580646 50  25 50  C 11.169354838709694 50  0 38.830645161290306  0 25  C 0 11.169354838709694  11.169354838709694 0  25 0  C 31.73387096774195 0  37.399193548387075 2.4697580645161565  41.764112903225794 6.542338709677438  L 34.95967741935482 13.084677419354819  C 26.058467741935488 4.4959677419354875  9.506048387096769 10.947580645161281  9.506048387096769 25  C 9.506048387096769 33.7197580645161  16.471774193548356 40.78629032258067  25 40.78629032258067  C 34.899193548387075 40.78629032258067  38.60887096774195 33.689516129032256  39.19354838709677 30  L 25 30  L 25 22  L 48.80040322580646 22  Z " fill-rule="evenodd" />
    </mask>
  </defs>
  <g>
    <path d="M 48.80040322580646 22  C 49.0322580645161 22.691532258064512  49.19354838709677 23.92137096774195  49.19354838709677 25.58467741935482  C 49.19354838709677 39.84879032258067  39.42540322580646 50  25 50  C 11.169354838709694 50  0 38.830645161290306  0 25  C 0 11.169354838709694  11.169354838709694 0  25 0  C 31.73387096774195 0  37.399193548387075 2.4697580645161565  41.764112903225794 6.542338709677438  L 34.95967741935482 13.084677419354819  C 26.058467741935488 4.4959677419354875  9.506048387096769 10.947580645161281  9.506048387096769 25  C 9.506048387096769 33.7197580645161  16.471774193548356 40.78629032258067  25 40.78629032258067  C 34.899193548387075 40.78629032258067  38.60887096774195 33.689516129032256  39.19354838709677 30  L 25 30  L 25 22  L 48.80040322580646 22  Z " fill-rule="nonzero" fill="rgba(0, 0, 0, 1)" stroke="none" class="fill" />
    <path d="M 48.80040322580646 22  C 49.0322580645161 22.691532258064512  49.19354838709677 23.92137096774195  49.19354838709677 25.58467741935482  C 49.19354838709677 39.84879032258067  39.42540322580646 50  25 50  C 11.169354838709694 50  0 38.830645161290306  0 25  C 0 11.169354838709694  11.169354838709694 0  25 0  C 31.73387096774195 0  37.399193548387075 2.4697580645161565  41.764112903225794 6.542338709677438  L 34.95967741935482 13.084677419354819  C 26.058467741935488 4.4959677419354875  9.506048387096769 10.947580645161281  9.506048387096769 25  C 9.506048387096769 33.7197580645161  16.471774193548356 40.78629032258067  25 40.78629032258067  C 34.899193548387075 40.78629032258067  38.60887096774195 33.689516129032256  39.19354838709677 30  L 25 30  L 25 22  L 48.80040322580646 22  Z " stroke-width="0" stroke-dasharray="0" stroke="rgba(255, 255, 255, 0)" fill="none" class="stroke" mask="url(#Clip807)" />
  </g>
</svg>