<?xml version="1.0" encoding="utf-8"?>
<svg version="1.1" xmlns:xlink="http://www.w3.org/1999/xlink" width="48px" height="48px" xmlns="http://www.w3.org/2000/svg">
  <defs>
    <pattern id="BGPattern" patternUnits="userSpaceOnUse" alignment="0 0" imageRepeat="None" />
    <mask fill="white" id="Clip6685">
      <path d="M 31 48  L 0 48  L 0 17  L 33 17  L 33 15  L 0 15  L 0 0  L 48 0  L 48 48  L 33 48  L 33 31  L 15 31  L 15 33  L 31 33  L 31 48  Z " fill-rule="evenodd" />
    </mask>
  </defs>
  <g>
    <path d="M 31 48  L 0 48  L 0 17  L 33 17  L 33 15  L 0 15  L 0 0  L 48 0  L 48 48  L 33 48  L 33 31  L 15 31  L 15 33  L 31 33  L 31 48  Z " fill-rule="nonzero" fill="rgba(83, 93, 108, 1)" stroke="none" class="fill" />
    <path d="M 31 48  L 0 48  L 0 17  L 33 17  L 33 15  L 0 15  L 0 0  L 48 0  L 48 48  L 33 48  L 33 31  L 15 31  L 15 33  L 31 33  L 31 48  Z " stroke-width="0" stroke-dasharray="0" stroke="rgba(255, 255, 255, 0)" fill="none" class="stroke" mask="url(#Clip6685)" />
  </g>
</svg>