<?xml version="1.0" encoding="utf-8"?>
<svg version="1.1" xmlns:xlink="http://www.w3.org/1999/xlink" width="50px" height="50px" xmlns="http://www.w3.org/2000/svg">
  <defs>
    <pattern id="BGPattern" patternUnits="userSpaceOnUse" alignment="0 0" imageRepeat="None" />
    <mask fill="white" id="Clip1830">
      <path d="M 1.3463035019455276 36.101167315175076  L 28.379377431906615 9.070038910505843  L 40.832684824902714 21.523346303501967  L 13.790856031128412 48.56517509727627  L 2.687743190661479 49.790856031128385  C 1.2013618677042928 49.9552529182879  -0.05447470817119892 48.69844357976655  0.11089494163422842 47.212062256809304  L 1.3463035019455276 36.101167315175076  Z M 48.53501945525292 13.821984435797674  C 50.358949416342405 11.997081712062254  50.358949416342405 9.03988326848247  48.53501945525292 7.215953307393022  L 42.68774319066148 1.3686770428015507  C 40.863813229571974 -0.45525291828795394  37.9056420233463 -0.45525291828795394  36.0817120622568 1.3686770428015507  L 30.580739299610883 6.869649805447466  L 43.034046692607006 19.32295719844359  L 48.53501945525292 13.821984435797674  Z " fill-rule="evenodd" />
    </mask>
  </defs>
  <g>
    <path d="M 1.3463035019455276 36.101167315175076  L 28.379377431906615 9.070038910505843  L 40.832684824902714 21.523346303501967  L 13.790856031128412 48.56517509727627  L 2.687743190661479 49.790856031128385  C 1.2013618677042928 49.9552529182879  -0.05447470817119892 48.69844357976655  0.11089494163422842 47.212062256809304  L 1.3463035019455276 36.101167315175076  Z M 48.53501945525292 13.821984435797674  C 50.358949416342405 11.997081712062254  50.358949416342405 9.03988326848247  48.53501945525292 7.215953307393022  L 42.68774319066148 1.3686770428015507  C 40.863813229571974 -0.45525291828795394  37.9056420233463 -0.45525291828795394  36.0817120622568 1.3686770428015507  L 30.580739299610883 6.869649805447466  L 43.034046692607006 19.32295719844359  L 48.53501945525292 13.821984435797674  Z " fill-rule="nonzero" fill="rgba(0, 0, 0, 1)" stroke="none" class="fill" />
    <path d="M 1.3463035019455276 36.101167315175076  L 28.379377431906615 9.070038910505843  L 40.832684824902714 21.523346303501967  L 13.790856031128412 48.56517509727627  L 2.687743190661479 49.790856031128385  C 1.2013618677042928 49.9552529182879  -0.05447470817119892 48.69844357976655  0.11089494163422842 47.212062256809304  L 1.3463035019455276 36.101167315175076  Z " stroke-width="0" stroke-dasharray="0" stroke="rgba(255, 255, 255, 0)" fill="none" class="stroke" mask="url(#Clip1830)" />
    <path d="M 48.53501945525292 13.821984435797674  C 50.358949416342405 11.997081712062254  50.358949416342405 9.03988326848247  48.53501945525292 7.215953307393022  L 42.68774319066148 1.3686770428015507  C 40.863813229571974 -0.45525291828795394  37.9056420233463 -0.45525291828795394  36.0817120622568 1.3686770428015507  L 30.580739299610883 6.869649805447466  L 43.034046692607006 19.32295719844359  L 48.53501945525292 13.821984435797674  Z " stroke-width="0" stroke-dasharray="0" stroke="rgba(255, 255, 255, 0)" fill="none" class="stroke" mask="url(#Clip1830)" />
  </g>
</svg>