<?xml version="1.0" encoding="utf-8"?>
<svg version="1.1" xmlns:xlink="http://www.w3.org/1999/xlink" width="18px" height="23px" xmlns="http://www.w3.org/2000/svg">
  <defs>
    <pattern id="BGPattern" patternUnits="userSpaceOnUse" alignment="0 0" imageRepeat="None" />
    <mask fill="white" id="Clip3613">
      <path d="M 18 8.0771  C 17.99865321939317 7.561451129773604  17.795740669246577 7.066766554035952  17.4346 6.698699999999999  L 11.377000000000002 0.5776000000000002  C 11.012404892908322 0.20938788881979062  10.516176974706816 0.00154072018078466  9.998000000000001 0  L 2.0000000000000018 0  C 0.8958874765007749 0.0011024596593411928  0.0011024596593429692 0.895887476500773  0 1.9999999999999996  L 0 20.999999999999996  C 0.0011024596593394165 22.10411252349923  0.8958874765007732 22.998897540340653  2 23  L 16 23  C 17.10411252349923 22.998897540340653  17.99889754034066 22.104112523499225  18 20.999999999999996  L 18 8.0771  Z M 10 7.999999999999998  L 10 2.029999999999999  L 15.9235 7.999999999999998  L 10 7.999999999999998  Z M 16 21  L 2 21  L 2 1.9999999999999996  L 8 1.9999999999999996  L 8 7.999999999999998  C 8.001267465559298 9.104044072055087  8.895955927944911 9.998732534440704  10 9.999999999999998  L 16 9.999999999999998  L 16 21  Z " fill-rule="evenodd" />
    </mask>
  </defs>
  <g transform="matrix(1 0 0 1 -10 -8 )">
    <path d="M 18 8.0771  C 17.99865321939317 7.561451129773604  17.795740669246577 7.066766554035952  17.4346 6.698699999999999  L 11.377000000000002 0.5776000000000002  C 11.012404892908322 0.20938788881979062  10.516176974706816 0.00154072018078466  9.998000000000001 0  L 2.0000000000000018 0  C 0.8958874765007749 0.0011024596593411928  0.0011024596593429692 0.895887476500773  0 1.9999999999999996  L 0 20.999999999999996  C 0.0011024596593394165 22.10411252349923  0.8958874765007732 22.998897540340653  2 23  L 16 23  C 17.10411252349923 22.998897540340653  17.99889754034066 22.104112523499225  18 20.999999999999996  L 18 8.0771  Z M 10 7.999999999999998  L 10 2.029999999999999  L 15.9235 7.999999999999998  L 10 7.999999999999998  Z M 16 21  L 2 21  L 2 1.9999999999999996  L 8 1.9999999999999996  L 8 7.999999999999998  C 8.001267465559298 9.104044072055087  8.895955927944911 9.998732534440704  10 9.999999999999998  L 16 9.999999999999998  L 16 21  Z " fill-rule="nonzero" fill="rgba(0, 0, 0, 1)" stroke="none" transform="matrix(1 0 0 1 10 8 )" class="fill" />
    <path d="M 18 8.0771  C 17.99865321939317 7.561451129773604  17.795740669246577 7.066766554035952  17.4346 6.698699999999999  L 11.377000000000002 0.5776000000000002  C 11.012404892908322 0.20938788881979062  10.516176974706816 0.00154072018078466  9.998000000000001 0  L 2.0000000000000018 0  C 0.8958874765007749 0.0011024596593411928  0.0011024596593429692 0.895887476500773  0 1.9999999999999996  L 0 20.999999999999996  C 0.0011024596593394165 22.10411252349923  0.8958874765007732 22.998897540340653  2 23  L 16 23  C 17.10411252349923 22.998897540340653  17.99889754034066 22.104112523499225  18 20.999999999999996  L 18 8.0771  Z " stroke-width="0" stroke-dasharray="0" stroke="rgba(255, 255, 255, 0)" fill="none" transform="matrix(1 0 0 1 10 8 )" class="stroke" mask="url(#Clip3613)" />
    <path d="M 10 7.999999999999998  L 10 2.029999999999999  L 15.9235 7.999999999999998  L 10 7.999999999999998  Z " stroke-width="0" stroke-dasharray="0" stroke="rgba(255, 255, 255, 0)" fill="none" transform="matrix(1 0 0 1 10 8 )" class="stroke" mask="url(#Clip3613)" />
    <path d="M 16 21  L 2 21  L 2 1.9999999999999996  L 8 1.9999999999999996  L 8 7.999999999999998  C 8.001267465559298 9.104044072055087  8.895955927944911 9.998732534440704  10 9.999999999999998  L 16 9.999999999999998  L 16 21  Z " stroke-width="0" stroke-dasharray="0" stroke="rgba(255, 255, 255, 0)" fill="none" transform="matrix(1 0 0 1 10 8 )" class="stroke" mask="url(#Clip3613)" />
  </g>
</svg>