<?xml version="1.0" encoding="utf-8"?>
<svg version="1.1" xmlns:xlink="http://www.w3.org/1999/xlink" width="16px" height="16px" xmlns="http://www.w3.org/2000/svg">
  <defs>
    <pattern id="BGPattern" patternUnits="userSpaceOnUse" alignment="0 0" imageRepeat="None" />
    <mask fill="white" id="Clip3614">
      <path d="M 2 2  L 2 16  L 0 16  L 0 2  C 0.001102459659342081 0.8958874765007727  0.8958874765007723 0.001102459659341637  2 0  L 16 0  L 16 2  L 2 2  Z " fill-rule="evenodd" />
    </mask>
  </defs>
  <g transform="matrix(1 0 0 1 -4 -2 )">
    <path d="M 2 2  L 2 16  L 0 16  L 0 2  C 0.001102459659342081 0.8958874765007727  0.8958874765007723 0.001102459659341637  2 0  L 16 0  L 16 2  L 2 2  Z " fill-rule="nonzero" fill="rgba(0, 0, 0, 1)" stroke="none" transform="matrix(1 0 0 1 4 2 )" class="fill" />
    <path d="M 2 2  L 2 16  L 0 16  L 0 2  C 0.001102459659342081 0.8958874765007727  0.8958874765007723 0.001102459659341637  2 0  L 16 0  L 16 2  L 2 2  Z " stroke-width="0" stroke-dasharray="0" stroke="rgba(255, 255, 255, 0)" fill="none" transform="matrix(1 0 0 1 4 2 )" class="stroke" mask="url(#Clip3614)" />
  </g>
</svg>