<?xml version="1.0" encoding="utf-8"?>
<svg version="1.1" xmlns:xlink="http://www.w3.org/1999/xlink" width="46px" height="46px" xmlns="http://www.w3.org/2000/svg">
  <defs>
    <pattern id="BGPattern" patternUnits="userSpaceOnUse" alignment="0 0" imageRepeat="None" />
    <mask fill="white" id="Clip2440">
      <path d="M 45 15.5  C 45.5 14.950000000000001  45.05 14.5  44.5 15  L 31 15  L 31 1.5  C 31.500000000000004 0.9499999999999993  31.049999999999997 0.5  30.499999999999996 1  L 1.5 1  C 0.9499999999999993 0.5  0.5 0.9499999999999993  1 1.5  L 1 30.499999999999996  C 0.5 31.049999999999997  0.9499999999999993 31.500000000000004  1.5 31  L 15 31  L 15 44.5  C 14.5 45.05  14.950000000000001 45.5  15.5 45  L 44.5 45  C 45.05 45.5  45.5 45.05  45 44.5  L 45 15.5  Z M 15.5 15  C 14.950000000000001 14.5  14.5 14.950000000000001  15 15.5  L 15 27  L 5 27  L 5 5  L 27.25 5  L 27.25 15  L 15.5 15  Z M 18.75 18.75  L 27.25 18.75  L 27.25 27.25  L 18.75 27.25  L 18.75 18.75  Z M 41 19  L 41 41  L 18.75 41  L 18.75 31  L 30.499999999999996 31  C 31.049999999999997 31.500000000000004  31.500000000000004 31.049999999999997  31 30.499999999999996  L 31 19  L 41 19  Z " fill-rule="evenodd" />
    </mask>
  </defs>
  <g>
    <path d="M 45 15.5  C 45.5 14.950000000000001  45.05 14.5  44.5 15  L 31 15  L 31 1.5  C 31.500000000000004 0.9499999999999993  31.049999999999997 0.5  30.499999999999996 1  L 1.5 1  C 0.9499999999999993 0.5  0.5 0.9499999999999993  1 1.5  L 1 30.499999999999996  C 0.5 31.049999999999997  0.9499999999999993 31.500000000000004  1.5 31  L 15 31  L 15 44.5  C 14.5 45.05  14.950000000000001 45.5  15.5 45  L 44.5 45  C 45.05 45.5  45.5 45.05  45 44.5  L 45 15.5  Z M 15.5 15  C 14.950000000000001 14.5  14.5 14.950000000000001  15 15.5  L 15 27  L 5 27  L 5 5  L 27.25 5  L 27.25 15  L 15.5 15  Z M 18.75 18.75  L 27.25 18.75  L 27.25 27.25  L 18.75 27.25  L 18.75 18.75  Z M 41 19  L 41 41  L 18.75 41  L 18.75 31  L 30.499999999999996 31  C 31.049999999999997 31.500000000000004  31.500000000000004 31.049999999999997  31 30.499999999999996  L 31 19  L 41 19  Z " fill-rule="nonzero" fill="rgba(0, 0, 0, 1)" stroke="none" class="fill" />
    <path d="M 45 15.5  C 45.5 14.950000000000001  45.05 14.5  44.5 15  L 31 15  L 31 1.5  C 31.500000000000004 0.9499999999999993  31.049999999999997 0.5  30.499999999999996 1  L 1.5 1  C 0.9499999999999993 0.5  0.5 0.9499999999999993  1 1.5  L 1 30.499999999999996  C 0.5 31.049999999999997  0.9499999999999993 31.500000000000004  1.5 31  L 15 31  L 15 44.5  C 14.5 45.05  14.950000000000001 45.5  15.5 45  L 44.5 45  C 45.05 45.5  45.5 45.05  45 44.5  L 45 15.5  Z " stroke-width="0" stroke-dasharray="0" stroke="rgba(255, 255, 255, 0)" fill="none" class="stroke" mask="url(#Clip2440)" />
    <path d="M 15.5 15  C 14.950000000000001 14.5  14.5 14.950000000000001  15 15.5  L 15 27  L 5 27  L 5 5  L 27.25 5  L 27.25 15  L 15.5 15  Z " stroke-width="0" stroke-dasharray="0" stroke="rgba(255, 255, 255, 0)" fill="none" class="stroke" mask="url(#Clip2440)" />
    <path d="M 18.75 18.75  L 27.25 18.75  L 27.25 27.25  L 18.75 27.25  L 18.75 18.75  Z " stroke-width="0" stroke-dasharray="0" stroke="rgba(255, 255, 255, 0)" fill="none" class="stroke" mask="url(#Clip2440)" />
    <path d="M 41 19  L 41 41  L 18.75 41  L 18.75 31  L 30.499999999999996 31  C 31.049999999999997 31.500000000000004  31.500000000000004 31.049999999999997  31 30.499999999999996  L 31 19  L 41 19  Z " stroke-width="0" stroke-dasharray="0" stroke="rgba(255, 255, 255, 0)" fill="none" class="stroke" mask="url(#Clip2440)" />
  </g>
</svg>