<?xml version="1.0" encoding="utf-8"?>
<svg version="1.1" xmlns:xlink="http://www.w3.org/1999/xlink" width="8px" height="3px" xmlns="http://www.w3.org/2000/svg">
  <defs>
    <pattern id="BGPattern" patternUnits="userSpaceOnUse" alignment="0 0" imageRepeat="None" />
    <mask fill="white" id="Clip5316">
      <path d="M 3.0519999999999996 1.3999999999999986  C 3.064 0.6679999999999993  2.5119999999999987 0.06799999999999962  1.8279999999999994 0.06799999999999962  C 1.1439999999999984 0.06799999999999962  0.6039999999999992 0.6679999999999993  0.6039999999999992 1.3999999999999986  C 0.6039999999999992 2.131999999999998  1.1560000000000006 2.7319999999999993  1.8279999999999994 2.7319999999999993  C 2.5120000000000005 2.7319999999999993  3.0519999999999996 2.131999999999998  3.0519999999999996 1.3999999999999986  Z M 7.432 1.3999999999999986  C 7.432 0.6679999999999993  6.892000000000001 0.06799999999999962  6.207999999999998 0.06799999999999962  C 5.524000000000001 0.06799999999999962  4.983999999999998 0.6679999999999993  4.983999999999998 1.3999999999999986  C 4.983999999999998 2.131999999999998  5.535999999999998 2.7319999999999993  6.207999999999998 2.7319999999999993  C 6.8919999999999995 2.7319999999999993  7.432 2.131999999999998  7.432 1.3999999999999986  Z " fill-rule="evenodd" />
    </mask>
  </defs>
  <g transform="matrix(1 0 0 1 -7 -10 )">
    <path d="M 3.0519999999999996 1.3999999999999986  C 3.064 0.6679999999999993  2.5119999999999987 0.06799999999999962  1.8279999999999994 0.06799999999999962  C 1.1439999999999984 0.06799999999999962  0.6039999999999992 0.6679999999999993  0.6039999999999992 1.3999999999999986  C 0.6039999999999992 2.131999999999998  1.1560000000000006 2.7319999999999993  1.8279999999999994 2.7319999999999993  C 2.5120000000000005 2.7319999999999993  3.0519999999999996 2.131999999999998  3.0519999999999996 1.3999999999999986  Z M 7.432 1.3999999999999986  C 7.432 0.6679999999999993  6.892000000000001 0.06799999999999962  6.207999999999998 0.06799999999999962  C 5.524000000000001 0.06799999999999962  4.983999999999998 0.6679999999999993  4.983999999999998 1.3999999999999986  C 4.983999999999998 2.131999999999998  5.535999999999998 2.7319999999999993  6.207999999999998 2.7319999999999993  C 6.8919999999999995 2.7319999999999993  7.432 2.131999999999998  7.432 1.3999999999999986  Z " fill-rule="nonzero" fill="rgba(0, 0, 0, 1)" stroke="none" transform="matrix(1 0 0 1 7 10 )" class="fill" />
    <path d="M 3.0519999999999996 1.3999999999999986  C 3.064 0.6679999999999993  2.5119999999999987 0.06799999999999962  1.8279999999999994 0.06799999999999962  C 1.1439999999999984 0.06799999999999962  0.6039999999999992 0.6679999999999993  0.6039999999999992 1.3999999999999986  C 0.6039999999999992 2.131999999999998  1.1560000000000006 2.7319999999999993  1.8279999999999994 2.7319999999999993  C 2.5120000000000005 2.7319999999999993  3.0519999999999996 2.131999999999998  3.0519999999999996 1.3999999999999986  Z " stroke-width="0" stroke-dasharray="0" stroke="rgba(255, 255, 255, 0)" fill="none" transform="matrix(1 0 0 1 7 10 )" class="stroke" mask="url(#Clip5316)" />
    <path d="M 7.432 1.3999999999999986  C 7.432 0.6679999999999993  6.892000000000001 0.06799999999999962  6.207999999999998 0.06799999999999962  C 5.524000000000001 0.06799999999999962  4.983999999999998 0.6679999999999993  4.983999999999998 1.3999999999999986  C 4.983999999999998 2.131999999999998  5.535999999999998 2.7319999999999993  6.207999999999998 2.7319999999999993  C 6.8919999999999995 2.7319999999999993  7.432 2.131999999999998  7.432 1.3999999999999986  Z " stroke-width="0" stroke-dasharray="0" stroke="rgba(255, 255, 255, 0)" fill="none" transform="matrix(1 0 0 1 7 10 )" class="stroke" mask="url(#Clip5316)" />
  </g>
</svg>