<?xml version="1.0" encoding="utf-8"?>
<svg version="1.1" xmlns:xlink="http://www.w3.org/1999/xlink" width="48px" height="46px" xmlns="http://www.w3.org/2000/svg">
  <defs>
    <pattern id="BGPattern" patternUnits="userSpaceOnUse" alignment="0 0" imageRepeat="None" />
    <mask fill="white" id="Clip2484">
      <path d="M 48 34  C 48 33.725  47.775 33.5  47.5 33.5  L 44.125 33.5  L 44.125 24  L 26.125 24  L 26.125 19  L 41 19  C 41.55 19  42 18.55  42 18  L 42 1.5  C 42 0.9499999999999993  41.55 0.5  41 1  L 7 1  C 6.449999999999999 0.5  6 0.9499999999999993  6 1.5  L 6 18  C 6 18.55  6.449999999999999 19  7 19  L 21.875 19  L 21.875 24  L 3.875 24  L 3.875 33.5  L 0.5 33.5  C 0.22499999999999964 33.5  0 33.725  0 34  L 0 45  C 0 45.275  0.22499999999999964 45.5  0.5 45  L 11.5 45  C 11.774999999999999 45.5  12 45.275  12 45  L 12 34  C 12 33.725  11.774999999999999 33.5  11.5 33.5  L 8.125 33.5  L 8.125 29  L 21.875 29  L 21.875 33.5  L 18.5 33.5  C 18.225 33.5  18 33.725  18 34  L 18 45  C 18 45.275  18.225 45.5  18.5 45  L 29.5 45  C 29.775 45.5  30 45.275  30 45  L 30 34  C 30 33.725  29.775 33.5  29.5 33.5  L 26.125 33.5  L 26.125 29  L 39.875 29  L 39.875 33.5  L 36.5 33.5  C 36.225 33.5  36 33.725  36 34  L 36 45  C 36 45.275  36.225 45.5  36.5 45  L 47.5 45  C 47.775 45.5  48 45.275  48 45  L 48 34  Z M 8 37.662499999999994  L 8 41.33125  C 8 41.425  7.925000000000001 41.5  7.831250000000001 41.5  L 4.162500000000001 41.5  C 4.068750000000001 41.5  3.993750000000002 41.425  3.993750000000002 41.33125  L 3.993750000000002 37.662499999999994  C 3.993750000000002 37.568749999999994  4.068750000000001 37.49374999999999  4.162500000000001 37.49374999999999  L 7.831250000000001 37.49374999999999  C 7.925000000000001 37.49374999999999  8 37.568749999999994  8 37.662499999999994  Z M 26 37.662499999999994  L 26 41.33125  C 26 41.425  25.924999999999997 41.5  25.831249999999997 41.5  L 22.162499999999998 41.5  C 22.068749999999998 41.5  21.99375 41.425  21.99375 41.33125  L 21.99375 37.662499999999994  C 21.99375 37.568749999999994  22.068749999999998 37.49374999999999  22.162499999999998 37.49374999999999  L 25.831249999999997 37.49374999999999  C 25.924999999999997 37.49374999999999  26 37.568749999999994  26 37.662499999999994  Z M 38 15  L 10 15  L 10 5  L 38 5  L 38 15  Z M 44 37.662499999999994  L 44 41.33125  C 44 41.425  43.925 41.5  43.83125 41.5  L 40.162499999999994 41.5  C 40.068749999999994 41.5  39.99374999999999 41.425  39.99374999999999 41.33125  L 39.99374999999999 37.662499999999994  C 39.99374999999999 37.568749999999994  40.068749999999994 37.49374999999999  40.162499999999994 37.49374999999999  L 43.83125 37.49374999999999  C 43.925 37.49374999999999  44 37.568749999999994  44 37.662499999999994  Z M 14.499999999999996 9.749999999999996  C 14.499999999999996 11.130711874576978  15.619288125423012 12.249999999999996  16.999999999999996 12.249999999999996  C 18.380711874576978 12.249999999999996  19.499999999999996 11.130711874576978  19.499999999999996 9.749999999999996  C 19.499999999999996 8.369288125423015  18.380711874576978 7.2499999999999964  16.999999999999996 7.2499999999999964  C 15.619288125423012 7.2499999999999964  14.499999999999996 8.369288125423015  14.499999999999996 9.749999999999996  Z " fill-rule="evenodd" />
    </mask>
  </defs>
  <g>
    <path d="M 48 34  C 48 33.725  47.775 33.5  47.5 33.5  L 44.125 33.5  L 44.125 24  L 26.125 24  L 26.125 19  L 41 19  C 41.55 19  42 18.55  42 18  L 42 1.5  C 42 0.9499999999999993  41.55 0.5  41 1  L 7 1  C 6.449999999999999 0.5  6 0.9499999999999993  6 1.5  L 6 18  C 6 18.55  6.449999999999999 19  7 19  L 21.875 19  L 21.875 24  L 3.875 24  L 3.875 33.5  L 0.5 33.5  C 0.22499999999999964 33.5  0 33.725  0 34  L 0 45  C 0 45.275  0.22499999999999964 45.5  0.5 45  L 11.5 45  C 11.774999999999999 45.5  12 45.275  12 45  L 12 34  C 12 33.725  11.774999999999999 33.5  11.5 33.5  L 8.125 33.5  L 8.125 29  L 21.875 29  L 21.875 33.5  L 18.5 33.5  C 18.225 33.5  18 33.725  18 34  L 18 45  C 18 45.275  18.225 45.5  18.5 45  L 29.5 45  C 29.775 45.5  30 45.275  30 45  L 30 34  C 30 33.725  29.775 33.5  29.5 33.5  L 26.125 33.5  L 26.125 29  L 39.875 29  L 39.875 33.5  L 36.5 33.5  C 36.225 33.5  36 33.725  36 34  L 36 45  C 36 45.275  36.225 45.5  36.5 45  L 47.5 45  C 47.775 45.5  48 45.275  48 45  L 48 34  Z M 8 37.662499999999994  L 8 41.33125  C 8 41.425  7.925000000000001 41.5  7.831250000000001 41.5  L 4.162500000000001 41.5  C 4.068750000000001 41.5  3.993750000000002 41.425  3.993750000000002 41.33125  L 3.993750000000002 37.662499999999994  C 3.993750000000002 37.568749999999994  4.068750000000001 37.49374999999999  4.162500000000001 37.49374999999999  L 7.831250000000001 37.49374999999999  C 7.925000000000001 37.49374999999999  8 37.568749999999994  8 37.662499999999994  Z M 26 37.662499999999994  L 26 41.33125  C 26 41.425  25.924999999999997 41.5  25.831249999999997 41.5  L 22.162499999999998 41.5  C 22.068749999999998 41.5  21.99375 41.425  21.99375 41.33125  L 21.99375 37.662499999999994  C 21.99375 37.568749999999994  22.068749999999998 37.49374999999999  22.162499999999998 37.49374999999999  L 25.831249999999997 37.49374999999999  C 25.924999999999997 37.49374999999999  26 37.568749999999994  26 37.662499999999994  Z M 38 15  L 10 15  L 10 5  L 38 5  L 38 15  Z M 44 37.662499999999994  L 44 41.33125  C 44 41.425  43.925 41.5  43.83125 41.5  L 40.162499999999994 41.5  C 40.068749999999994 41.5  39.99374999999999 41.425  39.99374999999999 41.33125  L 39.99374999999999 37.662499999999994  C 39.99374999999999 37.568749999999994  40.068749999999994 37.49374999999999  40.162499999999994 37.49374999999999  L 43.83125 37.49374999999999  C 43.925 37.49374999999999  44 37.568749999999994  44 37.662499999999994  Z M 14.499999999999996 9.749999999999996  C 14.499999999999996 11.130711874576978  15.619288125423012 12.249999999999996  16.999999999999996 12.249999999999996  C 18.380711874576978 12.249999999999996  19.499999999999996 11.130711874576978  19.499999999999996 9.749999999999996  C 19.499999999999996 8.369288125423015  18.380711874576978 7.2499999999999964  16.999999999999996 7.2499999999999964  C 15.619288125423012 7.2499999999999964  14.499999999999996 8.369288125423015  14.499999999999996 9.749999999999996  Z " fill-rule="nonzero" fill="rgba(0, 0, 0, 1)" stroke="none" class="fill" />
    <path d="M 48 34  C 48 33.725  47.775 33.5  47.5 33.5  L 44.125 33.5  L 44.125 24  L 26.125 24  L 26.125 19  L 41 19  C 41.55 19  42 18.55  42 18  L 42 1.5  C 42 0.9499999999999993  41.55 0.5  41 1  L 7 1  C 6.449999999999999 0.5  6 0.9499999999999993  6 1.5  L 6 18  C 6 18.55  6.449999999999999 19  7 19  L 21.875 19  L 21.875 24  L 3.875 24  L 3.875 33.5  L 0.5 33.5  C 0.22499999999999964 33.5  0 33.725  0 34  L 0 45  C 0 45.275  0.22499999999999964 45.5  0.5 45  L 11.5 45  C 11.774999999999999 45.5  12 45.275  12 45  L 12 34  C 12 33.725  11.774999999999999 33.5  11.5 33.5  L 8.125 33.5  L 8.125 29  L 21.875 29  L 21.875 33.5  L 18.5 33.5  C 18.225 33.5  18 33.725  18 34  L 18 45  C 18 45.275  18.225 45.5  18.5 45  L 29.5 45  C 29.775 45.5  30 45.275  30 45  L 30 34  C 30 33.725  29.775 33.5  29.5 33.5  L 26.125 33.5  L 26.125 29  L 39.875 29  L 39.875 33.5  L 36.5 33.5  C 36.225 33.5  36 33.725  36 34  L 36 45  C 36 45.275  36.225 45.5  36.5 45  L 47.5 45  C 47.775 45.5  48 45.275  48 45  L 48 34  Z " stroke-width="0" stroke-dasharray="0" stroke="rgba(255, 255, 255, 0)" fill="none" class="stroke" mask="url(#Clip2484)" />
    <path d="M 8 37.662499999999994  L 8 41.33125  C 8 41.425  7.925000000000001 41.5  7.831250000000001 41.5  L 4.162500000000001 41.5  C 4.068750000000001 41.5  3.993750000000002 41.425  3.993750000000002 41.33125  L 3.993750000000002 37.662499999999994  C 3.993750000000002 37.568749999999994  4.068750000000001 37.49374999999999  4.162500000000001 37.49374999999999  L 7.831250000000001 37.49374999999999  C 7.925000000000001 37.49374999999999  8 37.568749999999994  8 37.662499999999994  Z " stroke-width="0" stroke-dasharray="0" stroke="rgba(255, 255, 255, 0)" fill="none" class="stroke" mask="url(#Clip2484)" />
    <path d="M 26 37.662499999999994  L 26 41.33125  C 26 41.425  25.924999999999997 41.5  25.831249999999997 41.5  L 22.162499999999998 41.5  C 22.068749999999998 41.5  21.99375 41.425  21.99375 41.33125  L 21.99375 37.662499999999994  C 21.99375 37.568749999999994  22.068749999999998 37.49374999999999  22.162499999999998 37.49374999999999  L 25.831249999999997 37.49374999999999  C 25.924999999999997 37.49374999999999  26 37.568749999999994  26 37.662499999999994  Z " stroke-width="0" stroke-dasharray="0" stroke="rgba(255, 255, 255, 0)" fill="none" class="stroke" mask="url(#Clip2484)" />
    <path d="M 38 15  L 10 15  L 10 5  L 38 5  L 38 15  Z " stroke-width="0" stroke-dasharray="0" stroke="rgba(255, 255, 255, 0)" fill="none" class="stroke" mask="url(#Clip2484)" />
    <path d="M 44 37.662499999999994  L 44 41.33125  C 44 41.425  43.925 41.5  43.83125 41.5  L 40.162499999999994 41.5  C 40.068749999999994 41.5  39.99374999999999 41.425  39.99374999999999 41.33125  L 39.99374999999999 37.662499999999994  C 39.99374999999999 37.568749999999994  40.068749999999994 37.49374999999999  40.162499999999994 37.49374999999999  L 43.83125 37.49374999999999  C 43.925 37.49374999999999  44 37.568749999999994  44 37.662499999999994  Z " stroke-width="0" stroke-dasharray="0" stroke="rgba(255, 255, 255, 0)" fill="none" class="stroke" mask="url(#Clip2484)" />
    <path d="M 14.499999999999996 9.749999999999996  C 14.499999999999996 11.130711874576978  15.619288125423012 12.249999999999996  16.999999999999996 12.249999999999996  C 18.380711874576978 12.249999999999996  19.499999999999996 11.130711874576978  19.499999999999996 9.749999999999996  C 19.499999999999996 8.369288125423015  18.380711874576978 7.2499999999999964  16.999999999999996 7.2499999999999964  C 15.619288125423012 7.2499999999999964  14.499999999999996 8.369288125423015  14.499999999999996 9.749999999999996  Z " stroke-width="0" stroke-dasharray="0" stroke="rgba(255, 255, 255, 0)" fill="none" class="stroke" mask="url(#Clip2484)" />
  </g>
</svg>