<?xml version="1.0" encoding="utf-8"?>
<svg version="1.1" xmlns:xlink="http://www.w3.org/1999/xlink" width="44px" height="50px" xmlns="http://www.w3.org/2000/svg">
  <defs>
    <pattern id="BGPattern" patternUnits="userSpaceOnUse" alignment="0 0" imageRepeat="None" />
    <mask fill="white" id="Clip1083">
      <path d="M 31.640625 32  L 12.109375 32  C 11.46484375 32.03125  10.9375 31.503906250000004  10.9375 30.859375  L 10.9375 28.515625  C 10.9375 27.871093749999996  11.46484375 27.34375  12.109375 27  L 31.640625 27  C 32.28515625 27.34375  32.8125 27.871093749999996  32.8125 28.515625  L 32.8125 30.859375  C 32.8125 31.503906250000004  32.28515625 32.03125  31.640625 32  Z M 39.0625 6.25  C 41.650390625 6.25  43.75 8.349609375  43 10.9375  L 43 45.3125  C 43.75 47.900390625  41.650390625 50  39.0625 50  L 4.6875 50  C 2.099609375 50  0 47.900390625  0 45.3125  L 0 10.9375  C 0 8.349609375  2.099609375 6.25  4.6875 6.25  L 9.375 6.25  L 9.375 1.171875  C 9.375 0.52734375  9.90234375 0  10.546875 0  L 14.453125 0  C 15.09765625 0  15.625 0.52734375  15.625 1.171875  L 15.625 7  L 28.125 7  L 28.125 1.171875  C 28.125 0.52734375  28.652343750000004 0  29.296875000000004 0  L 33.203125 0  C 33.84765625 0  34.375 0.52734375  34.375 1.171875  L 34.375 6.25  L 39.0625 6.25  Z M 38.4765625 45  C 38.798828125 45.3125  39.0625 45.048828125  39 44.7265625  L 39 16  L 5 16  L 5 44.7265625  C 4.6875 45.048828125  4.951171875 45.3125  5.2734375 45  L 38.4765625 45  Z " fill-rule="evenodd" />
    </mask>
  </defs>
  <g>
    <path d="M 31.640625 32  L 12.109375 32  C 11.46484375 32.03125  10.9375 31.503906250000004  10.9375 30.859375  L 10.9375 28.515625  C 10.9375 27.871093749999996  11.46484375 27.34375  12.109375 27  L 31.640625 27  C 32.28515625 27.34375  32.8125 27.871093749999996  32.8125 28.515625  L 32.8125 30.859375  C 32.8125 31.503906250000004  32.28515625 32.03125  31.640625 32  Z M 39.0625 6.25  C 41.650390625 6.25  43.75 8.349609375  43 10.9375  L 43 45.3125  C 43.75 47.900390625  41.650390625 50  39.0625 50  L 4.6875 50  C 2.099609375 50  0 47.900390625  0 45.3125  L 0 10.9375  C 0 8.349609375  2.099609375 6.25  4.6875 6.25  L 9.375 6.25  L 9.375 1.171875  C 9.375 0.52734375  9.90234375 0  10.546875 0  L 14.453125 0  C 15.09765625 0  15.625 0.52734375  15.625 1.171875  L 15.625 7  L 28.125 7  L 28.125 1.171875  C 28.125 0.52734375  28.652343750000004 0  29.296875000000004 0  L 33.203125 0  C 33.84765625 0  34.375 0.52734375  34.375 1.171875  L 34.375 6.25  L 39.0625 6.25  Z M 38.4765625 45  C 38.798828125 45.3125  39.0625 45.048828125  39 44.7265625  L 39 16  L 5 16  L 5 44.7265625  C 4.6875 45.048828125  4.951171875 45.3125  5.2734375 45  L 38.4765625 45  Z " fill-rule="nonzero" fill="rgba(0, 0, 0, 1)" stroke="none" class="fill" />
    <path d="M 31.640625 32  L 12.109375 32  C 11.46484375 32.03125  10.9375 31.503906250000004  10.9375 30.859375  L 10.9375 28.515625  C 10.9375 27.871093749999996  11.46484375 27.34375  12.109375 27  L 31.640625 27  C 32.28515625 27.34375  32.8125 27.871093749999996  32.8125 28.515625  L 32.8125 30.859375  C 32.8125 31.503906250000004  32.28515625 32.03125  31.640625 32  Z " stroke-width="0" stroke-dasharray="0" stroke="rgba(255, 255, 255, 0)" fill="none" class="stroke" mask="url(#Clip1083)" />
    <path d="M 39.0625 6.25  C 41.650390625 6.25  43.75 8.349609375  43 10.9375  L 43 45.3125  C 43.75 47.900390625  41.650390625 50  39.0625 50  L 4.6875 50  C 2.099609375 50  0 47.900390625  0 45.3125  L 0 10.9375  C 0 8.349609375  2.099609375 6.25  4.6875 6.25  L 9.375 6.25  L 9.375 1.171875  C 9.375 0.52734375  9.90234375 0  10.546875 0  L 14.453125 0  C 15.09765625 0  15.625 0.52734375  15.625 1.171875  L 15.625 7  L 28.125 7  L 28.125 1.171875  C 28.125 0.52734375  28.652343750000004 0  29.296875000000004 0  L 33.203125 0  C 33.84765625 0  34.375 0.52734375  34.375 1.171875  L 34.375 6.25  L 39.0625 6.25  Z " stroke-width="0" stroke-dasharray="0" stroke="rgba(255, 255, 255, 0)" fill="none" class="stroke" mask="url(#Clip1083)" />
    <path d="M 38.4765625 45  C 38.798828125 45.3125  39.0625 45.048828125  39 44.7265625  L 39 16  L 5 16  L 5 44.7265625  C 4.6875 45.048828125  4.951171875 45.3125  5.2734375 45  L 38.4765625 45  Z " stroke-width="0" stroke-dasharray="0" stroke="rgba(255, 255, 255, 0)" fill="none" class="stroke" mask="url(#Clip1083)" />
  </g>
</svg>