<?xml version="1.0" encoding="utf-8"?>
<svg version="1.1" xmlns:xlink="http://www.w3.org/1999/xlink" width="49px" height="48px" xmlns="http://www.w3.org/2000/svg">
  <defs>
    <pattern id="BGPattern" patternUnits="userSpaceOnUse" alignment="0 0" imageRepeat="None" />
    <mask fill="white" id="Clip7363">
      <path d="M 49 24  C 49 10.742  38.254 0  25 0  C 11.746 0  0.998 10.742  0.998 24  C 0.998 37.25  11.745999999999999 48  25 48  C 38.254000000000005 48  49 37.25  49 24  Z M 28.075999999999993 30.758000000000003  C 26.065999999999995 32.562000000000005  23.403999999999993 33.472  20.744 33.472  C 18.17 33.472  15.597999999999999 32.620000000000005  13.622000000000002 30.909999999999997  C 11.193999999999999 28.812000000000005  9.754 25.951999999999998  9.564 22.862000000000002  C 9.384 19.864  10.404 16.974000000000004  12.436 14.728000000000002  C 14.719999999999999 12.201999999999998  18.814 8.278  18.986 8.11  C 20.096 7.045999999999999  21.856 7.087999999999999  22.918 8.2  C 23.977999999999998 9.314  23.942 11.078  22.83 12.142  C 22.787999999999997 12.181999999999999  18.708 16.094  16.555999999999997 18.47  C 15.54 19.598  15.027999999999997 21.035999999999998  15.117999999999999 22.524  C 15.215999999999998 24.102000000000004  15.973999999999998 25.582  17.257999999999996 26.696  C 18.945999999999994 28.156  22.277999999999995 28.478  24.363999999999997 26.610000000000003  C 25.601999999999997 25.492000000000004  27.107999999999997 23.856  27.123999999999995 23.838000000000005  C 28.16399999999999 22.704000000000004  29.923999999999996 22.632000000000005  31.053999999999995 23.676000000000005  C 32.184 24.716000000000008  32.25999999999999 26.480000000000004  31.21999999999999 27.614000000000004  C 31.14999999999999 27.684000000000005  29.51599999999999 29.462000000000003  28.075999999999993 30.758000000000003  Z M 40.431999999999995 25.138000000000005  C 40.61599999999999 28.132000000000005  39.593999999999994 31.028000000000006  37.56399999999999 33.274  C 35.27799999999999 35.798  31.18599999999999 39.724000000000004  31.011999999999993 39.892  C 30.471999999999998 40.404  29.781999999999993 40.662000000000006  29.09199999999999 40.662000000000006  C 28.35599999999999 40.662000000000006  27.627999999999993 40.37200000000001  27.07999999999999 39.80200000000001  C 26.01799999999999 38.684000000000005  26.05599999999999 36.92400000000001  27.167999999999992 35.86000000000001  C 27.209999999999994 35.82000000000001  31.29399999999999 31.906000000000006  33.44199999999999 29.528000000000006  C 34.45799999999999 28.402  34.96999999999999 26.962000000000007  34.879999999999995 25.474000000000004  C 34.784 23.896000000000004  34.023999999999994 22.416000000000004  32.739999999999995 21.306000000000004  C 31.052 19.846000000000004  27.719999999999995 19.520000000000003  25.635999999999996 21.394000000000005  C 24.393999999999995 22.506000000000007  22.889999999999997 24.146  22.875999999999998 24.162000000000006  C 21.833999999999996 25.29400000000001  20.077999999999996 25.370000000000005  18.944 24.330000000000005  C 17.816 23.288000000000004  17.736 21.522000000000006  18.779999999999998 20.388000000000005  C 18.848 20.314000000000004  20.479999999999997 18.536000000000005  21.921999999999997 17.242000000000004  C 25.879999999999995 13.686000000000003  32.364 13.616000000000007  36.376 17.088000000000005  C 38.803999999999995 19.190000000000005  40.245999999999995 22.048000000000005  40.431999999999995 25.138000000000005  Z " fill-rule="evenodd" />
    </mask>
  </defs>
  <g>
    <path d="M 49 24  C 49 10.742  38.254 0  25 0  C 11.746 0  0.998 10.742  0.998 24  C 0.998 37.25  11.745999999999999 48  25 48  C 38.254000000000005 48  49 37.25  49 24  Z M 28.075999999999993 30.758000000000003  C 26.065999999999995 32.562000000000005  23.403999999999993 33.472  20.744 33.472  C 18.17 33.472  15.597999999999999 32.620000000000005  13.622000000000002 30.909999999999997  C 11.193999999999999 28.812000000000005  9.754 25.951999999999998  9.564 22.862000000000002  C 9.384 19.864  10.404 16.974000000000004  12.436 14.728000000000002  C 14.719999999999999 12.201999999999998  18.814 8.278  18.986 8.11  C 20.096 7.045999999999999  21.856 7.087999999999999  22.918 8.2  C 23.977999999999998 9.314  23.942 11.078  22.83 12.142  C 22.787999999999997 12.181999999999999  18.708 16.094  16.555999999999997 18.47  C 15.54 19.598  15.027999999999997 21.035999999999998  15.117999999999999 22.524  C 15.215999999999998 24.102000000000004  15.973999999999998 25.582  17.257999999999996 26.696  C 18.945999999999994 28.156  22.277999999999995 28.478  24.363999999999997 26.610000000000003  C 25.601999999999997 25.492000000000004  27.107999999999997 23.856  27.123999999999995 23.838000000000005  C 28.16399999999999 22.704000000000004  29.923999999999996 22.632000000000005  31.053999999999995 23.676000000000005  C 32.184 24.716000000000008  32.25999999999999 26.480000000000004  31.21999999999999 27.614000000000004  C 31.14999999999999 27.684000000000005  29.51599999999999 29.462000000000003  28.075999999999993 30.758000000000003  Z M 40.431999999999995 25.138000000000005  C 40.61599999999999 28.132000000000005  39.593999999999994 31.028000000000006  37.56399999999999 33.274  C 35.27799999999999 35.798  31.18599999999999 39.724000000000004  31.011999999999993 39.892  C 30.471999999999998 40.404  29.781999999999993 40.662000000000006  29.09199999999999 40.662000000000006  C 28.35599999999999 40.662000000000006  27.627999999999993 40.37200000000001  27.07999999999999 39.80200000000001  C 26.01799999999999 38.684000000000005  26.05599999999999 36.92400000000001  27.167999999999992 35.86000000000001  C 27.209999999999994 35.82000000000001  31.29399999999999 31.906000000000006  33.44199999999999 29.528000000000006  C 34.45799999999999 28.402  34.96999999999999 26.962000000000007  34.879999999999995 25.474000000000004  C 34.784 23.896000000000004  34.023999999999994 22.416000000000004  32.739999999999995 21.306000000000004  C 31.052 19.846000000000004  27.719999999999995 19.520000000000003  25.635999999999996 21.394000000000005  C 24.393999999999995 22.506000000000007  22.889999999999997 24.146  22.875999999999998 24.162000000000006  C 21.833999999999996 25.29400000000001  20.077999999999996 25.370000000000005  18.944 24.330000000000005  C 17.816 23.288000000000004  17.736 21.522000000000006  18.779999999999998 20.388000000000005  C 18.848 20.314000000000004  20.479999999999997 18.536000000000005  21.921999999999997 17.242000000000004  C 25.879999999999995 13.686000000000003  32.364 13.616000000000007  36.376 17.088000000000005  C 38.803999999999995 19.190000000000005  40.245999999999995 22.048000000000005  40.431999999999995 25.138000000000005  Z " fill-rule="nonzero" fill="rgba(0, 136, 255, 1)" stroke="none" class="fill" />
    <path d="M 49 24  C 49 10.742  38.254 0  25 0  C 11.746 0  0.998 10.742  0.998 24  C 0.998 37.25  11.745999999999999 48  25 48  C 38.254000000000005 48  49 37.25  49 24  Z " stroke-width="0" stroke-dasharray="0" stroke="rgba(255, 255, 255, 0)" fill="none" class="stroke" mask="url(#Clip7363)" />
    <path d="M 28.075999999999993 30.758000000000003  C 26.065999999999995 32.562000000000005  23.403999999999993 33.472  20.744 33.472  C 18.17 33.472  15.597999999999999 32.620000000000005  13.622000000000002 30.909999999999997  C 11.193999999999999 28.812000000000005  9.754 25.951999999999998  9.564 22.862000000000002  C 9.384 19.864  10.404 16.974000000000004  12.436 14.728000000000002  C 14.719999999999999 12.201999999999998  18.814 8.278  18.986 8.11  C 20.096 7.045999999999999  21.856 7.087999999999999  22.918 8.2  C 23.977999999999998 9.314  23.942 11.078  22.83 12.142  C 22.787999999999997 12.181999999999999  18.708 16.094  16.555999999999997 18.47  C 15.54 19.598  15.027999999999997 21.035999999999998  15.117999999999999 22.524  C 15.215999999999998 24.102000000000004  15.973999999999998 25.582  17.257999999999996 26.696  C 18.945999999999994 28.156  22.277999999999995 28.478  24.363999999999997 26.610000000000003  C 25.601999999999997 25.492000000000004  27.107999999999997 23.856  27.123999999999995 23.838000000000005  C 28.16399999999999 22.704000000000004  29.923999999999996 22.632000000000005  31.053999999999995 23.676000000000005  C 32.184 24.716000000000008  32.25999999999999 26.480000000000004  31.21999999999999 27.614000000000004  C 31.14999999999999 27.684000000000005  29.51599999999999 29.462000000000003  28.075999999999993 30.758000000000003  Z " stroke-width="0" stroke-dasharray="0" stroke="rgba(255, 255, 255, 0)" fill="none" class="stroke" mask="url(#Clip7363)" />
    <path d="M 40.431999999999995 25.138000000000005  C 40.61599999999999 28.132000000000005  39.593999999999994 31.028000000000006  37.56399999999999 33.274  C 35.27799999999999 35.798  31.18599999999999 39.724000000000004  31.011999999999993 39.892  C 30.471999999999998 40.404  29.781999999999993 40.662000000000006  29.09199999999999 40.662000000000006  C 28.35599999999999 40.662000000000006  27.627999999999993 40.37200000000001  27.07999999999999 39.80200000000001  C 26.01799999999999 38.684000000000005  26.05599999999999 36.92400000000001  27.167999999999992 35.86000000000001  C 27.209999999999994 35.82000000000001  31.29399999999999 31.906000000000006  33.44199999999999 29.528000000000006  C 34.45799999999999 28.402  34.96999999999999 26.962000000000007  34.879999999999995 25.474000000000004  C 34.784 23.896000000000004  34.023999999999994 22.416000000000004  32.739999999999995 21.306000000000004  C 31.052 19.846000000000004  27.719999999999995 19.520000000000003  25.635999999999996 21.394000000000005  C 24.393999999999995 22.506000000000007  22.889999999999997 24.146  22.875999999999998 24.162000000000006  C 21.833999999999996 25.29400000000001  20.077999999999996 25.370000000000005  18.944 24.330000000000005  C 17.816 23.288000000000004  17.736 21.522000000000006  18.779999999999998 20.388000000000005  C 18.848 20.314000000000004  20.479999999999997 18.536000000000005  21.921999999999997 17.242000000000004  C 25.879999999999995 13.686000000000003  32.364 13.616000000000007  36.376 17.088000000000005  C 38.803999999999995 19.190000000000005  40.245999999999995 22.048000000000005  40.431999999999995 25.138000000000005  Z " stroke-width="0" stroke-dasharray="0" stroke="rgba(255, 255, 255, 0)" fill="none" class="stroke" mask="url(#Clip7363)" />
  </g>
</svg>