<?xml version="1.0" encoding="utf-8"?>
<svg version="1.1" xmlns:xlink="http://www.w3.org/1999/xlink" width="38px" height="38px" xmlns="http://www.w3.org/2000/svg">
  <defs>
    <pattern id="BGPattern" patternUnits="userSpaceOnUse" alignment="0 0" imageRepeat="None" />
    <mask fill="white" id="Clip2835">
      <path d="M 6.643749999999994 19.681250000000006  L 2.931249999999999 23.393750000000004  C 1.3687499999999984 24.956250000000004  0.5124999999999993 27.025000000000006  0.5124999999999993 29.231250000000003  C 0.5124999999999993 31.4375  1.375 33.5125  2.931249999999999 35.06875  C 4.493749999999999 36.63125  6.5625 37.487500000000004  8.768749999999997 37.487500000000004  C 10.974999999999998 37.487500000000004  13.049999999999997 36.62500000000001  14.606249999999996 35.06875  L 18.318749999999994 31.356250000000003  L 6.643749999999994 19.681250000000006  Z M 35.06875 2.931250000000004  C 33.50625 1.368750000000004  31.4375 0.5125000000000028  29.231250000000003 0.5125000000000028  C 27.025000000000006 0.5125000000000028  24.950000000000003 1.3750000000000036  23.393750000000004 2.931250000000002  L 19.681250000000006 6.643750000000001  L 31.356250000000003 18.31875  L 35.06875 14.606250000000003  C 36.625 13.043750000000003  37.487500000000004 10.975000000000001  37.487500000000004 8.768750000000004  C 37.487500000000004 6.562500000000007  36.62500000000001 4.487500000000004  35.06875 2.931250000000004  Z " fill-rule="evenodd" />
    </mask>
  </defs>
  <g transform="matrix(1 0 0 1 -7 -7 )">
    <path d="M 6.643749999999994 19.681250000000006  L 2.931249999999999 23.393750000000004  C 1.3687499999999984 24.956250000000004  0.5124999999999993 27.025000000000006  0.5124999999999993 29.231250000000003  C 0.5124999999999993 31.4375  1.375 33.5125  2.931249999999999 35.06875  C 4.493749999999999 36.63125  6.5625 37.487500000000004  8.768749999999997 37.487500000000004  C 10.974999999999998 37.487500000000004  13.049999999999997 36.62500000000001  14.606249999999996 35.06875  L 18.318749999999994 31.356250000000003  L 6.643749999999994 19.681250000000006  Z M 35.06875 2.931250000000004  C 33.50625 1.368750000000004  31.4375 0.5125000000000028  29.231250000000003 0.5125000000000028  C 27.025000000000006 0.5125000000000028  24.950000000000003 1.3750000000000036  23.393750000000004 2.931250000000002  L 19.681250000000006 6.643750000000001  L 31.356250000000003 18.31875  L 35.06875 14.606250000000003  C 36.625 13.043750000000003  37.487500000000004 10.975000000000001  37.487500000000004 8.768750000000004  C 37.487500000000004 6.562500000000007  36.62500000000001 4.487500000000004  35.06875 2.931250000000004  Z " fill-rule="nonzero" fill="rgba(217, 217, 217, 1)" stroke="none" transform="matrix(1 0 0 1 7 7 )" class="fill" />
    <path d="M 6.643749999999994 19.681250000000006  L 2.931249999999999 23.393750000000004  C 1.3687499999999984 24.956250000000004  0.5124999999999993 27.025000000000006  0.5124999999999993 29.231250000000003  C 0.5124999999999993 31.4375  1.375 33.5125  2.931249999999999 35.06875  C 4.493749999999999 36.63125  6.5625 37.487500000000004  8.768749999999997 37.487500000000004  C 10.974999999999998 37.487500000000004  13.049999999999997 36.62500000000001  14.606249999999996 35.06875  L 18.318749999999994 31.356250000000003  L 6.643749999999994 19.681250000000006  Z " stroke-width="0" stroke-dasharray="0" stroke="rgba(255, 255, 255, 0)" fill="none" transform="matrix(1 0 0 1 7 7 )" class="stroke" mask="url(#Clip2835)" />
    <path d="M 35.06875 2.931250000000004  C 33.50625 1.368750000000004  31.4375 0.5125000000000028  29.231250000000003 0.5125000000000028  C 27.025000000000006 0.5125000000000028  24.950000000000003 1.3750000000000036  23.393750000000004 2.931250000000002  L 19.681250000000006 6.643750000000001  L 31.356250000000003 18.31875  L 35.06875 14.606250000000003  C 36.625 13.043750000000003  37.487500000000004 10.975000000000001  37.487500000000004 8.768750000000004  C 37.487500000000004 6.562500000000007  36.62500000000001 4.487500000000004  35.06875 2.931250000000004  Z " stroke-width="0" stroke-dasharray="0" stroke="rgba(255, 255, 255, 0)" fill="none" transform="matrix(1 0 0 1 7 7 )" class="stroke" mask="url(#Clip2835)" />
  </g>
</svg>