<?xml version="1.0" encoding="utf-8"?>
<svg version="1.1" xmlns:xlink="http://www.w3.org/1999/xlink" width="50px" height="50px" xmlns="http://www.w3.org/2000/svg">
  <defs>
    <pattern id="BGPattern" patternUnits="userSpaceOnUse" alignment="0 0" imageRepeat="None" />
    <mask fill="white" id="Clip2220">
      <path d="M 50 2  C 50 0.8937499999999997  49.10625 0  48 0  L 2 0  C 0.8937499999999997 0  0 0.8937499999999997  0 2  L 0 48  C 0 49.10625  0.8937499999999997 50  2 50  L 48 50  C 49.10625 50  50 49.10625  50 48  L 50 2  Z M 27.612499999999997 25  L 35.25625 34.11875  C 35.53125 34.44375  35.300000000000004 34.9375  34.875 34.9375  L 31.193750000000005 34.9375  C 30.9 34.9375  30.61875 34.80625  30.425 34.58125  L 25 28.112499999999997  L 19.575 34.58125  C 19.3875 34.80625  19.10625 34.9375  18.80625 34.9375  L 15.125 34.9375  C 14.7 34.9375  14.46875 34.44375  14.74375 34.11875  L 22.3875 25  L 14.743749999999995 15.881250000000001  C 14.66734647005789 15.791403036175918  14.625393714703453 15.677308055662161  14.625393714703453 15.559367493106189  C 14.625393714703453 15.284951008034009  14.847852229631275 15.06249249310619  15.122268714703452 15.06249249310619  C 15.123179148293723 15.06249249310619  15.124089580164757 15.062494995413578  15.125 15.0625  L 18.80625 15.0625  C 19.099999999999998 15.0625  19.381249999999998 15.19375  19.575 15.418750000000001  L 25 21.8875  L 30.424999999999997 15.418750000000001  C 30.612499999999997 15.193749999999998  30.893749999999997 15.0625  31.19374999999999 15.0625  L 34.875 15.0625  C 35.3 15.0625  35.53125 15.556249999999999  35.25625 15.881250000000001  L 27.612499999999997 25  Z " fill-rule="evenodd" />
    </mask>
  </defs>
  <g>
    <path d="M 50 2  C 50 0.8937499999999997  49.10625 0  48 0  L 2 0  C 0.8937499999999997 0  0 0.8937499999999997  0 2  L 0 48  C 0 49.10625  0.8937499999999997 50  2 50  L 48 50  C 49.10625 50  50 49.10625  50 48  L 50 2  Z M 27.612499999999997 25  L 35.25625 34.11875  C 35.53125 34.44375  35.300000000000004 34.9375  34.875 34.9375  L 31.193750000000005 34.9375  C 30.9 34.9375  30.61875 34.80625  30.425 34.58125  L 25 28.112499999999997  L 19.575 34.58125  C 19.3875 34.80625  19.10625 34.9375  18.80625 34.9375  L 15.125 34.9375  C 14.7 34.9375  14.46875 34.44375  14.74375 34.11875  L 22.3875 25  L 14.743749999999995 15.881250000000001  C 14.66734647005789 15.791403036175918  14.625393714703453 15.677308055662161  14.625393714703453 15.559367493106189  C 14.625393714703453 15.284951008034009  14.847852229631275 15.06249249310619  15.122268714703452 15.06249249310619  C 15.123179148293723 15.06249249310619  15.124089580164757 15.062494995413578  15.125 15.0625  L 18.80625 15.0625  C 19.099999999999998 15.0625  19.381249999999998 15.19375  19.575 15.418750000000001  L 25 21.8875  L 30.424999999999997 15.418750000000001  C 30.612499999999997 15.193749999999998  30.893749999999997 15.0625  31.19374999999999 15.0625  L 34.875 15.0625  C 35.3 15.0625  35.53125 15.556249999999999  35.25625 15.881250000000001  L 27.612499999999997 25  Z " fill-rule="nonzero" fill="rgba(0, 0, 0, 1)" stroke="none" class="fill" />
    <path d="M 50 2  C 50 0.8937499999999997  49.10625 0  48 0  L 2 0  C 0.8937499999999997 0  0 0.8937499999999997  0 2  L 0 48  C 0 49.10625  0.8937499999999997 50  2 50  L 48 50  C 49.10625 50  50 49.10625  50 48  L 50 2  Z " stroke-width="0" stroke-dasharray="0" stroke="rgba(255, 255, 255, 0)" fill="none" class="stroke" mask="url(#Clip2220)" />
    <path d="M 27.612499999999997 25  L 35.25625 34.11875  C 35.53125 34.44375  35.300000000000004 34.9375  34.875 34.9375  L 31.193750000000005 34.9375  C 30.9 34.9375  30.61875 34.80625  30.425 34.58125  L 25 28.112499999999997  L 19.575 34.58125  C 19.3875 34.80625  19.10625 34.9375  18.80625 34.9375  L 15.125 34.9375  C 14.7 34.9375  14.46875 34.44375  14.74375 34.11875  L 22.3875 25  L 14.743749999999995 15.881250000000001  C 14.66734647005789 15.791403036175918  14.625393714703453 15.677308055662161  14.625393714703453 15.559367493106189  C 14.625393714703453 15.284951008034009  14.847852229631275 15.06249249310619  15.122268714703452 15.06249249310619  C 15.123179148293723 15.06249249310619  15.124089580164757 15.062494995413578  15.125 15.0625  L 18.80625 15.0625  C 19.099999999999998 15.0625  19.381249999999998 15.19375  19.575 15.418750000000001  L 25 21.8875  L 30.424999999999997 15.418750000000001  C 30.612499999999997 15.193749999999998  30.893749999999997 15.0625  31.19374999999999 15.0625  L 34.875 15.0625  C 35.3 15.0625  35.53125 15.556249999999999  35.25625 15.881250000000001  L 27.612499999999997 25  Z " stroke-width="0" stroke-dasharray="0" stroke="rgba(255, 255, 255, 0)" fill="none" class="stroke" mask="url(#Clip2220)" />
  </g>
</svg>