<?xml version="1.0" encoding="utf-8"?>
<svg version="1.1" xmlns:xlink="http://www.w3.org/1999/xlink" width="20px" height="20px" xmlns="http://www.w3.org/2000/svg">
  <defs>
    <pattern id="BGPattern" patternUnits="userSpaceOnUse" alignment="0 0" imageRepeat="None" />
    <mask fill="white" id="Clip3406">
      <path d="M 4 0  L 4 2  L 16.59 2  L 0 18.59  L 1.4100000000000001 20  L 18 3.41  L 18 16  L 20 16  L 20 0  L 4 0  Z " fill-rule="evenodd" />
    </mask>
  </defs>
  <g transform="matrix(1 0 0 1 -6 -6 )">
    <path d="M 4 0  L 4 2  L 16.59 2  L 0 18.59  L 1.4100000000000001 20  L 18 3.41  L 18 16  L 20 16  L 20 0  L 4 0  Z " fill-rule="nonzero" fill="rgba(0, 0, 0, 1)" stroke="none" transform="matrix(1 0 0 1 6 6 )" class="fill" />
    <path d="M 4 0  L 4 2  L 16.59 2  L 0 18.59  L 1.4100000000000001 20  L 18 3.41  L 18 16  L 20 16  L 20 0  L 4 0  Z " stroke-width="0" stroke-dasharray="0" stroke="rgba(255, 255, 255, 0)" fill="none" transform="matrix(1 0 0 1 6 6 )" class="stroke" mask="url(#Clip3406)" />
  </g>
</svg>