<?xml version="1.0" encoding="utf-8"?>
<svg version="1.1" xmlns:xlink="http://www.w3.org/1999/xlink" width="24px" height="24px" xmlns="http://www.w3.org/2000/svg">
  <defs>
    <pattern id="BGPattern" patternUnits="userSpaceOnUse" alignment="0 0" imageRepeat="None" />
    <mask fill="white" id="Clip4724">
      <path d="M 12 0  C 18.627416997969522 0  24 5.372583002030479  24 12  C 24 18.627416997969522  18.627416997969522 24  12 24  C 5.372583002030479 24  0 18.627416997969522  0 12  C 0 5.372583002030479  5.372583002030479 0  12 0  Z M 8.27903384570443 16.470966154295567  C 8.482466809008429 16.470966154295567  8.67717272104889 16.388326931160748  8.8185 16.241999999999997  L 14.962499999999999 10.098  L 14.962499999999999 14.25  C 14.962499999999999 14.664213562373096  15.298286437626905 15  15.712499999999999 15  C 16.126713562373094 15  16.4625 14.664213562373096  16.4625 14.25  L 16.4625 8.287499999999998  C 16.4625 7.873286437626903  16.126713562373094 7.537499999999998  15.712499999999999 7.537499999999998  L 9.75 7.537499999999998  C 9.335786437626904 7.537499999999998  9 7.873286437626903  9 8.287499999999998  C 9 8.701713562373094  9.335786437626904 9.037499999999998  9.75 9.037499999999998  L 13.902000000000001 9.037499999999998  L 7.757999999999999 15.181499999999998  C 7.611673068839252 15.322827278951108  7.529033845704429 15.517533190991568  7.529033845704429 15.720966154295567  C 7.529033845704429 16.135179716668663  7.864820283331334 16.470966154295567  8.27903384570443 16.470966154295567  Z " fill-rule="evenodd" />
    </mask>
  </defs>
  <g>
    <path d="M 12 0  C 18.627416997969522 0  24 5.372583002030479  24 12  C 24 18.627416997969522  18.627416997969522 24  12 24  C 5.372583002030479 24  0 18.627416997969522  0 12  C 0 5.372583002030479  5.372583002030479 0  12 0  Z M 8.27903384570443 16.470966154295567  C 8.482466809008429 16.470966154295567  8.67717272104889 16.388326931160748  8.8185 16.241999999999997  L 14.962499999999999 10.098  L 14.962499999999999 14.25  C 14.962499999999999 14.664213562373096  15.298286437626905 15  15.712499999999999 15  C 16.126713562373094 15  16.4625 14.664213562373096  16.4625 14.25  L 16.4625 8.287499999999998  C 16.4625 7.873286437626903  16.126713562373094 7.537499999999998  15.712499999999999 7.537499999999998  L 9.75 7.537499999999998  C 9.335786437626904 7.537499999999998  9 7.873286437626903  9 8.287499999999998  C 9 8.701713562373094  9.335786437626904 9.037499999999998  9.75 9.037499999999998  L 13.902000000000001 9.037499999999998  L 7.757999999999999 15.181499999999998  C 7.611673068839252 15.322827278951108  7.529033845704429 15.517533190991568  7.529033845704429 15.720966154295567  C 7.529033845704429 16.135179716668663  7.864820283331334 16.470966154295567  8.27903384570443 16.470966154295567  Z " fill-rule="nonzero" fill="rgba(0, 0, 0, 1)" stroke="none" class="fill" />
    <path d="M 12 0  C 18.627416997969522 0  24 5.372583002030479  24 12  C 24 18.627416997969522  18.627416997969522 24  12 24  C 5.372583002030479 24  0 18.627416997969522  0 12  C 0 5.372583002030479  5.372583002030479 0  12 0  Z " stroke-width="0" stroke-dasharray="0" stroke="rgba(255, 255, 255, 0)" fill="none" class="stroke" mask="url(#Clip4724)" />
    <path d="M 8.27903384570443 16.470966154295567  C 8.482466809008429 16.470966154295567  8.67717272104889 16.388326931160748  8.8185 16.241999999999997  L 14.962499999999999 10.098  L 14.962499999999999 14.25  C 14.962499999999999 14.664213562373096  15.298286437626905 15  15.712499999999999 15  C 16.126713562373094 15  16.4625 14.664213562373096  16.4625 14.25  L 16.4625 8.287499999999998  C 16.4625 7.873286437626903  16.126713562373094 7.537499999999998  15.712499999999999 7.537499999999998  L 9.75 7.537499999999998  C 9.335786437626904 7.537499999999998  9 7.873286437626903  9 8.287499999999998  C 9 8.701713562373094  9.335786437626904 9.037499999999998  9.75 9.037499999999998  L 13.902000000000001 9.037499999999998  L 7.757999999999999 15.181499999999998  C 7.611673068839252 15.322827278951108  7.529033845704429 15.517533190991568  7.529033845704429 15.720966154295567  C 7.529033845704429 16.135179716668663  7.864820283331334 16.470966154295567  8.27903384570443 16.470966154295567  Z " stroke-width="0" stroke-dasharray="0" stroke="rgba(255, 255, 255, 0)" fill="none" class="stroke" mask="url(#Clip4724)" />
  </g>
</svg>