<?xml version="1.0" encoding="utf-8"?>
<svg version="1.1" xmlns:xlink="http://www.w3.org/1999/xlink" width="8px" height="2px" xmlns="http://www.w3.org/2000/svg">
  <defs>
    <pattern id="BGPattern" patternUnits="userSpaceOnUse" alignment="0 0" imageRepeat="None" />
    <mask fill="white" id="Clip3805">
      <path d="M 7 2  L 1 2  C 0.44771525016920677 2  0 1.5522847498307932  0 1  C 0 0.44771525016920677  0.44771525016920677 0  1 0  L 7 0  C 7.552284749830793 0  8 0.44771525016920677  8 1  C 8 1.5522847498307932  7.552284749830793 2  7 2  Z " fill-rule="evenodd" />
    </mask>
  </defs>
  <g transform="matrix(1 0 0 1 -2 -28 )">
    <path d="M 7 2  L 1 2  C 0.44771525016920677 2  0 1.5522847498307932  0 1  C 0 0.44771525016920677  0.44771525016920677 0  1 0  L 7 0  C 7.552284749830793 0  8 0.44771525016920677  8 1  C 8 1.5522847498307932  7.552284749830793 2  7 2  Z " fill-rule="nonzero" fill="rgba(0, 0, 0, 1)" stroke="none" transform="matrix(1 0 0 1 2 28 )" class="fill" />
    <path d="M 7 2  L 1 2  C 0.44771525016920677 2  0 1.5522847498307932  0 1  C 0 0.44771525016920677  0.44771525016920677 0  1 0  L 7 0  C 7.552284749830793 0  8 0.44771525016920677  8 1  C 8 1.5522847498307932  7.552284749830793 2  7 2  Z " stroke-width="0" stroke-dasharray="0" stroke="rgba(255, 255, 255, 0)" fill="none" transform="matrix(1 0 0 1 2 28 )" class="stroke" mask="url(#Clip3805)" />
  </g>
</svg>