<?xml version="1.0" encoding="utf-8"?>
<svg version="1.1" xmlns:xlink="http://www.w3.org/1999/xlink" width="3px" height="4px" xmlns="http://www.w3.org/2000/svg">
  <defs>
    <pattern id="BGPattern" patternUnits="userSpaceOnUse" alignment="0 0" imageRepeat="None" />
    <mask fill="white" id="Clip5823">
      <path d="M 3 2  C 3 2.82842712474619  2.32842712474619 3.5  1.5 3.5  C 0.6715728752538102 3.5  0 2.82842712474619  0 2  C 0 1.1715728752538102  0.6715728752538102 0.5  1.5 0.5  C 2.32842712474619 0.5  3 1.1715728752538102  3 2  Z " fill-rule="evenodd" />
    </mask>
  </defs>
  <g transform="matrix(1 0 0 1 -3 -5 )">
    <path d="M 3 2  C 3 2.82842712474619  2.32842712474619 3.5  1.5 3.5  C 0.6715728752538102 3.5  0 2.82842712474619  0 2  C 0 1.1715728752538102  0.6715728752538102 0.5  1.5 0.5  C 2.32842712474619 0.5  3 1.1715728752538102  3 2  Z " fill-rule="nonzero" fill="rgba(0, 0, 0, 1)" stroke="none" transform="matrix(1 0 0 1 3 5 )" class="fill" />
    <path d="M 3 2  C 3 2.82842712474619  2.32842712474619 3.5  1.5 3.5  C 0.6715728752538102 3.5  0 2.82842712474619  0 2  C 0 1.1715728752538102  0.6715728752538102 0.5  1.5 0.5  C 2.32842712474619 0.5  3 1.1715728752538102  3 2  Z " stroke-width="0" stroke-dasharray="0" stroke="rgba(255, 255, 255, 0)" fill="none" transform="matrix(1 0 0 1 3 5 )" class="stroke" mask="url(#Clip5823)" />
  </g>
</svg>