<?xml version="1.0" encoding="utf-8"?>
<svg version="1.1" xmlns:xlink="http://www.w3.org/1999/xlink" width="16px" height="20px" xmlns="http://www.w3.org/2000/svg">
  <defs>
    <pattern id="BGPattern" patternUnits="userSpaceOnUse" alignment="0 0" imageRepeat="None" />
    <mask fill="white" id="Clip3486">
      <path d="M 16 18  C 16 19.104569499661586  15.104569499661586 20  14 20  L 2 20  C 0.8954305003384135 20  0 19.104569499661586  0 18  L 0 2  C 0 0.8954305003384135  0.8954305003384135 0  2 0  L 14 0  C 15.104569499661586 0  16 0.8954305003384135  16 2  L 16 18  Z M 14 2  L 2 2  L 2 18  L 14 18  L 14 2  Z " fill-rule="evenodd" />
    </mask>
  </defs>
  <g transform="matrix(1 0 0 1 -8 -6 )">
    <path d="M 16 18  C 16 19.104569499661586  15.104569499661586 20  14 20  L 2 20  C 0.8954305003384135 20  0 19.104569499661586  0 18  L 0 2  C 0 0.8954305003384135  0.8954305003384135 0  2 0  L 14 0  C 15.104569499661586 0  16 0.8954305003384135  16 2  L 16 18  Z M 14 2  L 2 2  L 2 18  L 14 18  L 14 2  Z " fill-rule="nonzero" fill="rgba(0, 0, 0, 1)" stroke="none" transform="matrix(1 0 0 1 8 6 )" class="fill" />
    <path d="M 16 18  C 16 19.104569499661586  15.104569499661586 20  14 20  L 2 20  C 0.8954305003384135 20  0 19.104569499661586  0 18  L 0 2  C 0 0.8954305003384135  0.8954305003384135 0  2 0  L 14 0  C 15.104569499661586 0  16 0.8954305003384135  16 2  L 16 18  Z " stroke-width="0" stroke-dasharray="0" stroke="rgba(255, 255, 255, 0)" fill="none" transform="matrix(1 0 0 1 8 6 )" class="stroke" mask="url(#Clip3486)" />
    <path d="M 14 2  L 2 2  L 2 18  L 14 18  L 14 2  Z " stroke-width="0" stroke-dasharray="0" stroke="rgba(255, 255, 255, 0)" fill="none" transform="matrix(1 0 0 1 8 6 )" class="stroke" mask="url(#Clip3486)" />
  </g>
</svg>