<?xml version="1.0" encoding="utf-8"?>
<svg version="1.1" xmlns:xlink="http://www.w3.org/1999/xlink" width="28px" height="28px" xmlns="http://www.w3.org/2000/svg">
  <defs>
    <pattern id="BGPattern" patternUnits="userSpaceOnUse" alignment="0 0" imageRepeat="None" />
    <mask fill="white" id="Clip3762">
      <path d="M 28 14  C 28 6.268013502368892  21.73198649763111 0  14 0  C 6.268013502368892 0  0 6.268013502368892  0 14  C 0 21.73198649763111  6.268013502368892 28  14 28  C 21.73198649763111 28  28 21.73198649763111  28 14  Z M 9 12.41  L 7.000000000000002 14.41  L 5.590000000000001 13  L 7.59 11  L 5.590000000000001 9  L 7.000000000000002 7.59  L 9 9.59  L 11 7.59  L 12.41 9  L 10.41 11  L 12.41 13  L 11 14.41  L 9 12.41  Z M 17 20  C 16.999999999999996 21.65685424949238  15.65685424949238 22.999999999999996  14 22.999999999999996  C 12.34314575050762 22.999999999999996  11 21.656854249492376  11 19.999999999999996  C 11 18.343145750507617  12.34314575050762 16.999999999999996  14 16.999999999999996  C 15.65685424949238 16.999999999999996  17 18.343145750507617  17 19.999999999999996  Z M 20.41 11  L 22.41 13  L 21 14.41  L 19 12.41  L 17 14.41  L 15.590000000000002 13  L 17.59 11  L 15.590000000000002 9  L 17 7.59  L 19 9.59  L 21 7.59  L 22.41 9  L 20.41 11  Z " fill-rule="evenodd" />
    </mask>
  </defs>
  <g transform="matrix(1 0 0 1 -2 -2 )">
    <path d="M 28 14  C 28 6.268013502368892  21.73198649763111 0  14 0  C 6.268013502368892 0  0 6.268013502368892  0 14  C 0 21.73198649763111  6.268013502368892 28  14 28  C 21.73198649763111 28  28 21.73198649763111  28 14  Z M 9 12.41  L 7.000000000000002 14.41  L 5.590000000000001 13  L 7.59 11  L 5.590000000000001 9  L 7.000000000000002 7.59  L 9 9.59  L 11 7.59  L 12.41 9  L 10.41 11  L 12.41 13  L 11 14.41  L 9 12.41  Z M 17 20  C 16.999999999999996 21.65685424949238  15.65685424949238 22.999999999999996  14 22.999999999999996  C 12.34314575050762 22.999999999999996  11 21.656854249492376  11 19.999999999999996  C 11 18.343145750507617  12.34314575050762 16.999999999999996  14 16.999999999999996  C 15.65685424949238 16.999999999999996  17 18.343145750507617  17 19.999999999999996  Z M 20.41 11  L 22.41 13  L 21 14.41  L 19 12.41  L 17 14.41  L 15.590000000000002 13  L 17.59 11  L 15.590000000000002 9  L 17 7.59  L 19 9.59  L 21 7.59  L 22.41 9  L 20.41 11  Z " fill-rule="nonzero" fill="rgba(0, 0, 0, 1)" stroke="none" transform="matrix(1 0 0 1 2 2 )" class="fill" />
    <path d="M 28 14  C 28 6.268013502368892  21.73198649763111 0  14 0  C 6.268013502368892 0  0 6.268013502368892  0 14  C 0 21.73198649763111  6.268013502368892 28  14 28  C 21.73198649763111 28  28 21.73198649763111  28 14  Z " stroke-width="0" stroke-dasharray="0" stroke="rgba(255, 255, 255, 0)" fill="none" transform="matrix(1 0 0 1 2 2 )" class="stroke" mask="url(#Clip3762)" />
    <path d="M 9 12.41  L 7.000000000000002 14.41  L 5.590000000000001 13  L 7.59 11  L 5.590000000000001 9  L 7.000000000000002 7.59  L 9 9.59  L 11 7.59  L 12.41 9  L 10.41 11  L 12.41 13  L 11 14.41  L 9 12.41  Z " stroke-width="0" stroke-dasharray="0" stroke="rgba(255, 255, 255, 0)" fill="none" transform="matrix(1 0 0 1 2 2 )" class="stroke" mask="url(#Clip3762)" />
    <path d="M 17 20  C 16.999999999999996 21.65685424949238  15.65685424949238 22.999999999999996  14 22.999999999999996  C 12.34314575050762 22.999999999999996  11 21.656854249492376  11 19.999999999999996  C 11 18.343145750507617  12.34314575050762 16.999999999999996  14 16.999999999999996  C 15.65685424949238 16.999999999999996  17 18.343145750507617  17 19.999999999999996  Z " stroke-width="0" stroke-dasharray="0" stroke="rgba(255, 255, 255, 0)" fill="none" transform="matrix(1 0 0 1 2 2 )" class="stroke" mask="url(#Clip3762)" />
    <path d="M 20.41 11  L 22.41 13  L 21 14.41  L 19 12.41  L 17 14.41  L 15.590000000000002 13  L 17.59 11  L 15.590000000000002 9  L 17 7.59  L 19 9.59  L 21 7.59  L 22.41 9  L 20.41 11  Z " stroke-width="0" stroke-dasharray="0" stroke="rgba(255, 255, 255, 0)" fill="none" transform="matrix(1 0 0 1 2 2 )" class="stroke" mask="url(#Clip3762)" />
  </g>
</svg>