<?xml version="1.0" encoding="utf-8"?>
<svg version="1.1" xmlns:xlink="http://www.w3.org/1999/xlink" width="44px" height="50px" xmlns="http://www.w3.org/2000/svg">
  <defs>
    <pattern id="BGPattern" patternUnits="userSpaceOnUse" alignment="0 0" imageRepeat="None" />
    <mask fill="white" id="Clip2677">
      <path d="M 43.125 15.968750000000002  C 43.13125 11.931249999999999  41.55625 8.1375  38.70625 5.2875  C 32.818749999999994 -0.6000000000000005  23.231249999999996 -0.6000000000000005  17.349999999999998 5.2875  L 1.0374999999999979 21.5875  C 0.9312499999999986 21.693749999999998  0.8749999999999981 21.8375  0.8749999999999981 21.987499999999997  C 0.8749999999999981 22.137499999999996  0.9312499999999986 22.281249999999996  1.0374999999999979 22.387499999999996  L 3.343749999999998 24.693749999999994  C 3.563218812467694 24.91225904157371  3.9180311875323 24.91225904157371  4.1374999999999975 24.693749999999994  L 20.449999999999996 8.393749999999994  C 22.474999999999994 6.368749999999994  25.168749999999996 5.256249999999994  28.03124999999999 5.256249999999994  C 30.89374999999999 5.256249999999994  33.58749999999999 6.368749999999995  35.606249999999996 8.393749999999994  C 37.631249999999994 10.418749999999992  38.74375 13.112499999999994  38.74375 15.968749999999993  C 38.74375 18.831249999999994  37.63125 21.518749999999994  35.606249999999996 23.543749999999992  L 18.981249999999996 40.162499999999994  L 16.287499999999994 42.856249999999996  C 13.768749999999994 45.37499999999999  9.674999999999994 45.37499999999999  7.156249999999993 42.856249999999996  C 5.937499999999993 41.637499999999996  5.268749999999994 40.01875  5.268749999999994 38.293749999999996  C 5.268749999999994 36.568749999999994  5.937499999999993 34.949999999999996  7.156249999999993 33.731249999999996  L 23.649999999999988 17.243749999999995  C 24.068749999999994 16.831249999999994  24.61874999999999 16.599999999999994  25.20624999999999 16.599999999999994  L 25.21249999999999 16.599999999999994  C 25.799999999999986 16.599999999999994  26.343749999999993 16.831249999999994  26.756249999999994 17.243749999999995  C 27.174999999999997 17.662499999999994  27.39999999999999 18.212499999999995  27.39999999999999 18.799999999999994  C 27.39999999999999 19.381249999999994  27.16874999999999 19.931249999999995  26.756249999999994 20.343749999999993  L 13.275 33.8125  C 13.16875 33.91875  13.112499999999995 34.0625  13.112499999999995 34.2125  C 13.112499999999995 34.3625  13.168749999999996 34.50625  13.275 34.6125  L 15.581249999999994 36.918749999999996  C 15.800718812467693 37.13725904157371  16.155531187532297 37.13725904157371  16.374999999999996 36.918749999999996  L 29.849999999999994 23.443749999999994  C 31.093749999999993 22.199999999999996  31.77499999999999 20.549999999999994  31.77499999999999 18.793749999999996  C 31.77499999999999 17.037499999999998  31.08749999999999 15.381249999999994  29.849999999999994 14.143749999999997  C 27.281249999999993 11.574999999999996  23.106249999999996 11.581249999999997  20.537499999999994 14.143749999999997  L 18.9375 15.75  L 4.050000000000001 30.631249999999998  C 2.0090191915043967 32.66025497327494  0.8655706155409533 35.42208844317089  0.875 38.3  C 0.875 41.193749999999994  2.0062499999999996 43.912499999999994  4.050000000000001 45.95625  C 6.168749999999998 48.068749999999994  8.943750000000001 49.125  11.71875 49.125  C 14.493749999999999 49.125  17.26875 48.06875  19.38125 45.95625  L 38.70625 26.64375  C 41.55 23.79375  43.125 20  43.125 15.968750000000002  Z " fill-rule="evenodd" />
    </mask>
  </defs>
  <g>
    <path d="M 43.125 15.968750000000002  C 43.13125 11.931249999999999  41.55625 8.1375  38.70625 5.2875  C 32.818749999999994 -0.6000000000000005  23.231249999999996 -0.6000000000000005  17.349999999999998 5.2875  L 1.0374999999999979 21.5875  C 0.9312499999999986 21.693749999999998  0.8749999999999981 21.8375  0.8749999999999981 21.987499999999997  C 0.8749999999999981 22.137499999999996  0.9312499999999986 22.281249999999996  1.0374999999999979 22.387499999999996  L 3.343749999999998 24.693749999999994  C 3.563218812467694 24.91225904157371  3.9180311875323 24.91225904157371  4.1374999999999975 24.693749999999994  L 20.449999999999996 8.393749999999994  C 22.474999999999994 6.368749999999994  25.168749999999996 5.256249999999994  28.03124999999999 5.256249999999994  C 30.89374999999999 5.256249999999994  33.58749999999999 6.368749999999995  35.606249999999996 8.393749999999994  C 37.631249999999994 10.418749999999992  38.74375 13.112499999999994  38.74375 15.968749999999993  C 38.74375 18.831249999999994  37.63125 21.518749999999994  35.606249999999996 23.543749999999992  L 18.981249999999996 40.162499999999994  L 16.287499999999994 42.856249999999996  C 13.768749999999994 45.37499999999999  9.674999999999994 45.37499999999999  7.156249999999993 42.856249999999996  C 5.937499999999993 41.637499999999996  5.268749999999994 40.01875  5.268749999999994 38.293749999999996  C 5.268749999999994 36.568749999999994  5.937499999999993 34.949999999999996  7.156249999999993 33.731249999999996  L 23.649999999999988 17.243749999999995  C 24.068749999999994 16.831249999999994  24.61874999999999 16.599999999999994  25.20624999999999 16.599999999999994  L 25.21249999999999 16.599999999999994  C 25.799999999999986 16.599999999999994  26.343749999999993 16.831249999999994  26.756249999999994 17.243749999999995  C 27.174999999999997 17.662499999999994  27.39999999999999 18.212499999999995  27.39999999999999 18.799999999999994  C 27.39999999999999 19.381249999999994  27.16874999999999 19.931249999999995  26.756249999999994 20.343749999999993  L 13.275 33.8125  C 13.16875 33.91875  13.112499999999995 34.0625  13.112499999999995 34.2125  C 13.112499999999995 34.3625  13.168749999999996 34.50625  13.275 34.6125  L 15.581249999999994 36.918749999999996  C 15.800718812467693 37.13725904157371  16.155531187532297 37.13725904157371  16.374999999999996 36.918749999999996  L 29.849999999999994 23.443749999999994  C 31.093749999999993 22.199999999999996  31.77499999999999 20.549999999999994  31.77499999999999 18.793749999999996  C 31.77499999999999 17.037499999999998  31.08749999999999 15.381249999999994  29.849999999999994 14.143749999999997  C 27.281249999999993 11.574999999999996  23.106249999999996 11.581249999999997  20.537499999999994 14.143749999999997  L 18.9375 15.75  L 4.050000000000001 30.631249999999998  C 2.0090191915043967 32.66025497327494  0.8655706155409533 35.42208844317089  0.875 38.3  C 0.875 41.193749999999994  2.0062499999999996 43.912499999999994  4.050000000000001 45.95625  C 6.168749999999998 48.068749999999994  8.943750000000001 49.125  11.71875 49.125  C 14.493749999999999 49.125  17.26875 48.06875  19.38125 45.95625  L 38.70625 26.64375  C 41.55 23.79375  43.125 20  43.125 15.968750000000002  Z " fill-rule="nonzero" fill="rgba(0, 0, 0, 1)" stroke="none" class="fill" />
    <path d="M 43.125 15.968750000000002  C 43.13125 11.931249999999999  41.55625 8.1375  38.70625 5.2875  C 32.818749999999994 -0.6000000000000005  23.231249999999996 -0.6000000000000005  17.349999999999998 5.2875  L 1.0374999999999979 21.5875  C 0.9312499999999986 21.693749999999998  0.8749999999999981 21.8375  0.8749999999999981 21.987499999999997  C 0.8749999999999981 22.137499999999996  0.9312499999999986 22.281249999999996  1.0374999999999979 22.387499999999996  L 3.343749999999998 24.693749999999994  C 3.563218812467694 24.91225904157371  3.9180311875323 24.91225904157371  4.1374999999999975 24.693749999999994  L 20.449999999999996 8.393749999999994  C 22.474999999999994 6.368749999999994  25.168749999999996 5.256249999999994  28.03124999999999 5.256249999999994  C 30.89374999999999 5.256249999999994  33.58749999999999 6.368749999999995  35.606249999999996 8.393749999999994  C 37.631249999999994 10.418749999999992  38.74375 13.112499999999994  38.74375 15.968749999999993  C 38.74375 18.831249999999994  37.63125 21.518749999999994  35.606249999999996 23.543749999999992  L 18.981249999999996 40.162499999999994  L 16.287499999999994 42.856249999999996  C 13.768749999999994 45.37499999999999  9.674999999999994 45.37499999999999  7.156249999999993 42.856249999999996  C 5.937499999999993 41.637499999999996  5.268749999999994 40.01875  5.268749999999994 38.293749999999996  C 5.268749999999994 36.568749999999994  5.937499999999993 34.949999999999996  7.156249999999993 33.731249999999996  L 23.649999999999988 17.243749999999995  C 24.068749999999994 16.831249999999994  24.61874999999999 16.599999999999994  25.20624999999999 16.599999999999994  L 25.21249999999999 16.599999999999994  C 25.799999999999986 16.599999999999994  26.343749999999993 16.831249999999994  26.756249999999994 17.243749999999995  C 27.174999999999997 17.662499999999994  27.39999999999999 18.212499999999995  27.39999999999999 18.799999999999994  C 27.39999999999999 19.381249999999994  27.16874999999999 19.931249999999995  26.756249999999994 20.343749999999993  L 13.275 33.8125  C 13.16875 33.91875  13.112499999999995 34.0625  13.112499999999995 34.2125  C 13.112499999999995 34.3625  13.168749999999996 34.50625  13.275 34.6125  L 15.581249999999994 36.918749999999996  C 15.800718812467693 37.13725904157371  16.155531187532297 37.13725904157371  16.374999999999996 36.918749999999996  L 29.849999999999994 23.443749999999994  C 31.093749999999993 22.199999999999996  31.77499999999999 20.549999999999994  31.77499999999999 18.793749999999996  C 31.77499999999999 17.037499999999998  31.08749999999999 15.381249999999994  29.849999999999994 14.143749999999997  C 27.281249999999993 11.574999999999996  23.106249999999996 11.581249999999997  20.537499999999994 14.143749999999997  L 18.9375 15.75  L 4.050000000000001 30.631249999999998  C 2.0090191915043967 32.66025497327494  0.8655706155409533 35.42208844317089  0.875 38.3  C 0.875 41.193749999999994  2.0062499999999996 43.912499999999994  4.050000000000001 45.95625  C 6.168749999999998 48.068749999999994  8.943750000000001 49.125  11.71875 49.125  C 14.493749999999999 49.125  17.26875 48.06875  19.38125 45.95625  L 38.70625 26.64375  C 41.55 23.79375  43.125 20  43.125 15.968750000000002  Z " stroke-width="0" stroke-dasharray="0" stroke="rgba(255, 255, 255, 0)" fill="none" class="stroke" mask="url(#Clip2677)" />
  </g>
</svg>