<?xml version="1.0" encoding="utf-8"?>
<svg version="1.1" xmlns:xlink="http://www.w3.org/1999/xlink" width="24px" height="24px" xmlns="http://www.w3.org/2000/svg">
  <defs>
    <pattern id="BGPattern" patternUnits="userSpaceOnUse" alignment="0 0" imageRepeat="None" />
    <mask fill="white" id="Clip6127">
      <path d="M 0 5.25  L 0 0.75  C 0 0.3357864376269049  0.3357864376269049 0  0.75 0  L 5.25 0  C 5.664213562373095 0  6 0.3357864376269049  6 0.75  C 6 1.1642135623730951  5.664213562373095 1.5  5.25 1.5  L 1.5 1.5  L 1.5 5.25  C 1.5 5.664213562373095  1.1642135623730951 6  0.75 6  C 0.3357864376269049 6  0 5.664213562373095  0 5.25  Z M 18.75 1.5  C 18.335786437626904 1.5  18 1.1642135623730951  18 0.75  C 18 0.3357864376269049  18.335786437626904 0  18.75 0  L 23.25 0  C 23.664213562373096 0  24 0.3357864376269049  24 0.75  L 24 5.25  C 24 5.664213562373095  23.664213562373096 6  23.25 6  C 22.835786437626904 6  22.5 5.664213562373095  22.5 5.25  L 22.5 1.5  L 18.75 1.5  Z M 0 18.75  C 0 18.335786437626904  0.3357864376269049 18  0.75 18  C 1.1642135623730951 18  1.5 18.335786437626904  1.5 18.75  L 1.5 22.5  L 5.25 22.5  C 5.664213562373095 22.5  6 22.835786437626904  6 23.25  C 6 23.664213562373096  5.664213562373095 24  5.25 24  L 0.75 24  C 0.3357864376269049 24  0 23.664213562373096  0 23.25  L 0 18.75  Z M 22.5 18.75  C 22.5 18.335786437626904  22.835786437626904 18  23.25 18  C 23.664213562373096 18  24 18.335786437626904  24 18.75  L 24 23.25  C 24 23.664213562373096  23.664213562373096 24  23.25 24  L 18.75 24  C 18.335786437626904 24  18 23.664213562373096  18 23.25  C 18 22.835786437626904  18.335786437626904 22.5  18.75 22.5  L 22.5 22.5  L 22.5 18.75  Z M 6 7.5  L 6 6  L 7.5 6  L 7.5 7.5  L 6 7.5  Z " fill-rule="evenodd" />
    </mask>
  </defs>
  <g>
    <path d="M 0 5.25  L 0 0.75  C 0 0.3357864376269049  0.3357864376269049 0  0.75 0  L 5.25 0  C 5.664213562373095 0  6 0.3357864376269049  6 0.75  C 6 1.1642135623730951  5.664213562373095 1.5  5.25 1.5  L 1.5 1.5  L 1.5 5.25  C 1.5 5.664213562373095  1.1642135623730951 6  0.75 6  C 0.3357864376269049 6  0 5.664213562373095  0 5.25  Z M 18.75 1.5  C 18.335786437626904 1.5  18 1.1642135623730951  18 0.75  C 18 0.3357864376269049  18.335786437626904 0  18.75 0  L 23.25 0  C 23.664213562373096 0  24 0.3357864376269049  24 0.75  L 24 5.25  C 24 5.664213562373095  23.664213562373096 6  23.25 6  C 22.835786437626904 6  22.5 5.664213562373095  22.5 5.25  L 22.5 1.5  L 18.75 1.5  Z M 0 18.75  C 0 18.335786437626904  0.3357864376269049 18  0.75 18  C 1.1642135623730951 18  1.5 18.335786437626904  1.5 18.75  L 1.5 22.5  L 5.25 22.5  C 5.664213562373095 22.5  6 22.835786437626904  6 23.25  C 6 23.664213562373096  5.664213562373095 24  5.25 24  L 0.75 24  C 0.3357864376269049 24  0 23.664213562373096  0 23.25  L 0 18.75  Z M 22.5 18.75  C 22.5 18.335786437626904  22.835786437626904 18  23.25 18  C 23.664213562373096 18  24 18.335786437626904  24 18.75  L 24 23.25  C 24 23.664213562373096  23.664213562373096 24  23.25 24  L 18.75 24  C 18.335786437626904 24  18 23.664213562373096  18 23.25  C 18 22.835786437626904  18.335786437626904 22.5  18.75 22.5  L 22.5 22.5  L 22.5 18.75  Z M 6 7.5  L 6 6  L 7.5 6  L 7.5 7.5  L 6 7.5  Z " fill-rule="nonzero" fill="rgba(0, 0, 0, 1)" stroke="none" class="fill" />
    <path d="M 0 5.25  L 0 0.75  C 0 0.3357864376269049  0.3357864376269049 0  0.75 0  L 5.25 0  C 5.664213562373095 0  6 0.3357864376269049  6 0.75  C 6 1.1642135623730951  5.664213562373095 1.5  5.25 1.5  L 1.5 1.5  L 1.5 5.25  C 1.5 5.664213562373095  1.1642135623730951 6  0.75 6  C 0.3357864376269049 6  0 5.664213562373095  0 5.25  Z " stroke-width="0" stroke-dasharray="0" stroke="rgba(255, 255, 255, 0)" fill="none" class="stroke" mask="url(#Clip6127)" />
    <path d="M 18.75 1.5  C 18.335786437626904 1.5  18 1.1642135623730951  18 0.75  C 18 0.3357864376269049  18.335786437626904 0  18.75 0  L 23.25 0  C 23.664213562373096 0  24 0.3357864376269049  24 0.75  L 24 5.25  C 24 5.664213562373095  23.664213562373096 6  23.25 6  C 22.835786437626904 6  22.5 5.664213562373095  22.5 5.25  L 22.5 1.5  L 18.75 1.5  Z " stroke-width="0" stroke-dasharray="0" stroke="rgba(255, 255, 255, 0)" fill="none" class="stroke" mask="url(#Clip6127)" />
    <path d="M 0 18.75  C 0 18.335786437626904  0.3357864376269049 18  0.75 18  C 1.1642135623730951 18  1.5 18.335786437626904  1.5 18.75  L 1.5 22.5  L 5.25 22.5  C 5.664213562373095 22.5  6 22.835786437626904  6 23.25  C 6 23.664213562373096  5.664213562373095 24  5.25 24  L 0.75 24  C 0.3357864376269049 24  0 23.664213562373096  0 23.25  L 0 18.75  Z " stroke-width="0" stroke-dasharray="0" stroke="rgba(255, 255, 255, 0)" fill="none" class="stroke" mask="url(#Clip6127)" />
    <path d="M 22.5 18.75  C 22.5 18.335786437626904  22.835786437626904 18  23.25 18  C 23.664213562373096 18  24 18.335786437626904  24 18.75  L 24 23.25  C 24 23.664213562373096  23.664213562373096 24  23.25 24  L 18.75 24  C 18.335786437626904 24  18 23.664213562373096  18 23.25  C 18 22.835786437626904  18.335786437626904 22.5  18.75 22.5  L 22.5 22.5  L 22.5 18.75  Z " stroke-width="0" stroke-dasharray="0" stroke="rgba(255, 255, 255, 0)" fill="none" class="stroke" mask="url(#Clip6127)" />
    <path d="M 6 7.5  L 6 6  L 7.5 6  L 7.5 7.5  L 6 7.5  Z " stroke-width="0" stroke-dasharray="0" stroke="rgba(255, 255, 255, 0)" fill="none" class="stroke" mask="url(#Clip6127)" />
  </g>
</svg>