<?xml version="1.0" encoding="utf-8"?>
<svg version="1.1" xmlns:xlink="http://www.w3.org/1999/xlink" width="42px" height="28px" xmlns="http://www.w3.org/2000/svg">
  <defs>
    <pattern id="BGPattern" patternUnits="userSpaceOnUse" alignment="0 0" imageRepeat="None" />
    <mask fill="white" id="Clip3131">
      <path d="M 1 27.75  L 1 0.25  L 6 0.25  L 6 27.75  L 1 27.75  Z M 23.5 11.687499999999996  C 23.5 11.583946609406723  23.416053390593277 11.499999999999996  23.3125 11.5  L 18.687499999999996 11.499999999999996  C 18.583946609406723 11.499999999999996  18.499999999999996 11.583946609406723  18.5 11.6875  L 18.499999999999996 16.3125  C 18.499999999999996 16.416053390593277  18.583946609406723 16.5  18.6875 16.5  L 23.3125 16.5  C 23.416053390593277 16.5  23.5 16.416053390593277  23.5 16.3125  L 23.5 11.687499999999996  Z M 36 23.25  L 36 4.75  L 41 4.75  L 41 23.25  L 36 23.25  Z " fill-rule="evenodd" />
    </mask>
  </defs>
  <g transform="matrix(1 0 0 1 -4 -8 )">
    <path d="M 1 27.75  L 1 0.25  L 6 0.25  L 6 27.75  L 1 27.75  Z M 23.5 11.687499999999996  C 23.5 11.583946609406723  23.416053390593277 11.499999999999996  23.3125 11.5  L 18.687499999999996 11.499999999999996  C 18.583946609406723 11.499999999999996  18.499999999999996 11.583946609406723  18.5 11.6875  L 18.499999999999996 16.3125  C 18.499999999999996 16.416053390593277  18.583946609406723 16.5  18.6875 16.5  L 23.3125 16.5  C 23.416053390593277 16.5  23.5 16.416053390593277  23.5 16.3125  L 23.5 11.687499999999996  Z M 36 23.25  L 36 4.75  L 41 4.75  L 41 23.25  L 36 23.25  Z " fill-rule="nonzero" fill="rgba(217, 217, 217, 1)" stroke="none" transform="matrix(1 0 0 1 4 8 )" class="fill" />
    <path d="M 1 27.75  L 1 0.25  L 6 0.25  L 6 27.75  L 1 27.75  Z " stroke-width="0" stroke-dasharray="0" stroke="rgba(255, 255, 255, 0)" fill="none" transform="matrix(1 0 0 1 4 8 )" class="stroke" mask="url(#Clip3131)" />
    <path d="M 23.5 11.687499999999996  C 23.5 11.583946609406723  23.416053390593277 11.499999999999996  23.3125 11.5  L 18.687499999999996 11.499999999999996  C 18.583946609406723 11.499999999999996  18.499999999999996 11.583946609406723  18.5 11.6875  L 18.499999999999996 16.3125  C 18.499999999999996 16.416053390593277  18.583946609406723 16.5  18.6875 16.5  L 23.3125 16.5  C 23.416053390593277 16.5  23.5 16.416053390593277  23.5 16.3125  L 23.5 11.687499999999996  Z " stroke-width="0" stroke-dasharray="0" stroke="rgba(255, 255, 255, 0)" fill="none" transform="matrix(1 0 0 1 4 8 )" class="stroke" mask="url(#Clip3131)" />
    <path d="M 36 23.25  L 36 4.75  L 41 4.75  L 41 23.25  L 36 23.25  Z " stroke-width="0" stroke-dasharray="0" stroke="rgba(255, 255, 255, 0)" fill="none" transform="matrix(1 0 0 1 4 8 )" class="stroke" mask="url(#Clip3131)" />
  </g>
</svg>