<?xml version="1.0" encoding="utf-8"?>
<svg version="1.1" xmlns:xlink="http://www.w3.org/1999/xlink" width="44px" height="50px" xmlns="http://www.w3.org/2000/svg">
  <defs>
    <pattern id="BGPattern" patternUnits="userSpaceOnUse" alignment="0 0" imageRepeat="None" />
    <mask fill="white" id="Clip1309">
      <path d="M 42.880859375 36.97265625  C 43.408203125 36.552734375  43.75 35.888671875  43 35.15625  L 43 2.34375  C 43.75 1.044921875  42.705078125 0  41.40625 0  L 9.375 0  C 4.19921875 0  0 4.19921875  0 9.375  L 0 40.625  C 0 45.80078125  4.19921875 50  9.375 50  L 41.40625 50  C 42.705078125 50  43.75 48.955078125  43.75 47.65625  L 43.75 46.09375  C 43.75 45.361328125  43.408203125 44.697265625  42.880859375 44.267578125  C 42.470703125 42.763671875  42.470703125 38.4765625  42.880859375 36.97265625  Z M 12.500000000000002 15.0390625  L 12.500000000000002 13.0859375  C 12.500000000000002 12.763671874999998  12.763671875 12.5  13.0859375 13  L 33.7890625 13  C 34.111328125 12.5  34.375 12.763671874999998  34.375 13.0859375  L 34.375 15.0390625  C 34.375 15.361328125000002  34.111328125 15.625  33.7890625 16  L 13.0859375 16  C 12.763671875 15.625  12.500000000000002 15.361328125000002  12.500000000000002 15.0390625  Z M 12.500000000000002 21.2890625  L 12.500000000000002 19.3359375  C 12.500000000000002 19.013671875  12.763671875 18.75  13.0859375 19  L 33.7890625 19  C 34.111328125 18.75  34.375 19.013671875  34.375 19.3359375  L 34.375 21.2890625  C 34.375 21.611328125  34.111328125 21.875  33.7890625 22  L 13.0859375 22  C 12.763671875 21.875  12.500000000000002 21.611328125  12.500000000000002 21.2890625  Z M 37.24609375 37  C 37.060546875 39.169921875  37.060546875 42.080078125  37.24609375 43  L 9.375 43  C 7.646484375000001 43.75  6.250000000000001 42.353515625  6.250000000000001 40.625  C 6.250000000000001 38.90625  7.65625 37.5  9.375 37  L 37.24609375 37  Z " fill-rule="evenodd" />
    </mask>
  </defs>
  <g>
    <path d="M 42.880859375 36.97265625  C 43.408203125 36.552734375  43.75 35.888671875  43 35.15625  L 43 2.34375  C 43.75 1.044921875  42.705078125 0  41.40625 0  L 9.375 0  C 4.19921875 0  0 4.19921875  0 9.375  L 0 40.625  C 0 45.80078125  4.19921875 50  9.375 50  L 41.40625 50  C 42.705078125 50  43.75 48.955078125  43.75 47.65625  L 43.75 46.09375  C 43.75 45.361328125  43.408203125 44.697265625  42.880859375 44.267578125  C 42.470703125 42.763671875  42.470703125 38.4765625  42.880859375 36.97265625  Z M 12.500000000000002 15.0390625  L 12.500000000000002 13.0859375  C 12.500000000000002 12.763671874999998  12.763671875 12.5  13.0859375 13  L 33.7890625 13  C 34.111328125 12.5  34.375 12.763671874999998  34.375 13.0859375  L 34.375 15.0390625  C 34.375 15.361328125000002  34.111328125 15.625  33.7890625 16  L 13.0859375 16  C 12.763671875 15.625  12.500000000000002 15.361328125000002  12.500000000000002 15.0390625  Z M 12.500000000000002 21.2890625  L 12.500000000000002 19.3359375  C 12.500000000000002 19.013671875  12.763671875 18.75  13.0859375 19  L 33.7890625 19  C 34.111328125 18.75  34.375 19.013671875  34.375 19.3359375  L 34.375 21.2890625  C 34.375 21.611328125  34.111328125 21.875  33.7890625 22  L 13.0859375 22  C 12.763671875 21.875  12.500000000000002 21.611328125  12.500000000000002 21.2890625  Z M 37.24609375 37  C 37.060546875 39.169921875  37.060546875 42.080078125  37.24609375 43  L 9.375 43  C 7.646484375000001 43.75  6.250000000000001 42.353515625  6.250000000000001 40.625  C 6.250000000000001 38.90625  7.65625 37.5  9.375 37  L 37.24609375 37  Z " fill-rule="nonzero" fill="rgba(0, 0, 0, 1)" stroke="none" class="fill" />
    <path d="M 42.880859375 36.97265625  C 43.408203125 36.552734375  43.75 35.888671875  43 35.15625  L 43 2.34375  C 43.75 1.044921875  42.705078125 0  41.40625 0  L 9.375 0  C 4.19921875 0  0 4.19921875  0 9.375  L 0 40.625  C 0 45.80078125  4.19921875 50  9.375 50  L 41.40625 50  C 42.705078125 50  43.75 48.955078125  43.75 47.65625  L 43.75 46.09375  C 43.75 45.361328125  43.408203125 44.697265625  42.880859375 44.267578125  C 42.470703125 42.763671875  42.470703125 38.4765625  42.880859375 36.97265625  Z " stroke-width="0" stroke-dasharray="0" stroke="rgba(255, 255, 255, 0)" fill="none" class="stroke" mask="url(#Clip1309)" />
    <path d="M 12.500000000000002 15.0390625  L 12.500000000000002 13.0859375  C 12.500000000000002 12.763671874999998  12.763671875 12.5  13.0859375 13  L 33.7890625 13  C 34.111328125 12.5  34.375 12.763671874999998  34.375 13.0859375  L 34.375 15.0390625  C 34.375 15.361328125000002  34.111328125 15.625  33.7890625 16  L 13.0859375 16  C 12.763671875 15.625  12.500000000000002 15.361328125000002  12.500000000000002 15.0390625  Z " stroke-width="0" stroke-dasharray="0" stroke="rgba(255, 255, 255, 0)" fill="none" class="stroke" mask="url(#Clip1309)" />
    <path d="M 12.500000000000002 21.2890625  L 12.500000000000002 19.3359375  C 12.500000000000002 19.013671875  12.763671875 18.75  13.0859375 19  L 33.7890625 19  C 34.111328125 18.75  34.375 19.013671875  34.375 19.3359375  L 34.375 21.2890625  C 34.375 21.611328125  34.111328125 21.875  33.7890625 22  L 13.0859375 22  C 12.763671875 21.875  12.500000000000002 21.611328125  12.500000000000002 21.2890625  Z " stroke-width="0" stroke-dasharray="0" stroke="rgba(255, 255, 255, 0)" fill="none" class="stroke" mask="url(#Clip1309)" />
    <path d="M 37.24609375 37  C 37.060546875 39.169921875  37.060546875 42.080078125  37.24609375 43  L 9.375 43  C 7.646484375000001 43.75  6.250000000000001 42.353515625  6.250000000000001 40.625  C 6.250000000000001 38.90625  7.65625 37.5  9.375 37  L 37.24609375 37  Z " stroke-width="0" stroke-dasharray="0" stroke="rgba(255, 255, 255, 0)" fill="none" class="stroke" mask="url(#Clip1309)" />
  </g>
</svg>