<?xml version="1.0" encoding="utf-8"?>
<svg version="1.1" xmlns:xlink="http://www.w3.org/1999/xlink" width="48px" height="48px" xmlns="http://www.w3.org/2000/svg">
  <defs>
    <pattern id="BGPattern" patternUnits="userSpaceOnUse" alignment="0 0" imageRepeat="None" />
    <mask fill="white" id="Clip6646">
      <path d="M 24.402 15.012  L 21.234 22.946  L 30.606 30.336  L 24.402 15.012  Z M 48 24  C 48 10.742000000000004  37.258 0  24 0  C 10.742 0  0 10.742  0 24  C 0 37.257999999999996  10.742 48  24 48  C 37.257999999999996 48  48 37.257999999999996  48 24  Z M 35.596 34.564  C 35.593999999999994 34.582  35.593999999999994 34.582  35.594 34.61  C 35.572 35.552  34.788000000000004 36.294  33.844 36.269999999999996  C 33.372 36.269999999999996  33.012 36.089999999999996  32.516 35.684  L 20.135999999999996 25.683999999999997  L 15.977999999999994 36.089999999999996  L 12.382000000000001 36.089999999999996  L 22.876 10.88  C 23.124000000000002 10.252  23.73 9.84  24.403999999999996 9.868  C 25.056 9.84  25.664 10.246  25.887999999999998 10.88  L 35.436 33.868  C 35.526 34.09  35.596 34.336000000000006  35.596 34.564  Z " fill-rule="evenodd" />
    </mask>
  </defs>
  <g>
    <path d="M 24.402 15.012  L 21.234 22.946  L 30.606 30.336  L 24.402 15.012  Z M 48 24  C 48 10.742000000000004  37.258 0  24 0  C 10.742 0  0 10.742  0 24  C 0 37.257999999999996  10.742 48  24 48  C 37.257999999999996 48  48 37.257999999999996  48 24  Z M 35.596 34.564  C 35.593999999999994 34.582  35.593999999999994 34.582  35.594 34.61  C 35.572 35.552  34.788000000000004 36.294  33.844 36.269999999999996  C 33.372 36.269999999999996  33.012 36.089999999999996  32.516 35.684  L 20.135999999999996 25.683999999999997  L 15.977999999999994 36.089999999999996  L 12.382000000000001 36.089999999999996  L 22.876 10.88  C 23.124000000000002 10.252  23.73 9.84  24.403999999999996 9.868  C 25.056 9.84  25.664 10.246  25.887999999999998 10.88  L 35.436 33.868  C 35.526 34.09  35.596 34.336000000000006  35.596 34.564  Z " fill-rule="nonzero" fill="rgba(238, 0, 0, 1)" stroke="none" class="fill" />
    <path d="M 24.402 15.012  L 21.234 22.946  L 30.606 30.336  L 24.402 15.012  Z " stroke-width="0" stroke-dasharray="0" stroke="rgba(255, 255, 255, 0)" fill="none" class="stroke" mask="url(#Clip6646)" />
    <path d="M 48 24  C 48 10.742000000000004  37.258 0  24 0  C 10.742 0  0 10.742  0 24  C 0 37.257999999999996  10.742 48  24 48  C 37.257999999999996 48  48 37.257999999999996  48 24  Z " stroke-width="0" stroke-dasharray="0" stroke="rgba(255, 255, 255, 0)" fill="none" class="stroke" mask="url(#Clip6646)" />
    <path d="M 35.596 34.564  C 35.593999999999994 34.582  35.593999999999994 34.582  35.594 34.61  C 35.572 35.552  34.788000000000004 36.294  33.844 36.269999999999996  C 33.372 36.269999999999996  33.012 36.089999999999996  32.516 35.684  L 20.135999999999996 25.683999999999997  L 15.977999999999994 36.089999999999996  L 12.382000000000001 36.089999999999996  L 22.876 10.88  C 23.124000000000002 10.252  23.73 9.84  24.403999999999996 9.868  C 25.056 9.84  25.664 10.246  25.887999999999998 10.88  L 35.436 33.868  C 35.526 34.09  35.596 34.336000000000006  35.596 34.564  Z " stroke-width="0" stroke-dasharray="0" stroke="rgba(255, 255, 255, 0)" fill="none" class="stroke" mask="url(#Clip6646)" />
  </g>
</svg>