<?xml version="1.0" encoding="utf-8"?>
<svg version="1.1" xmlns:xlink="http://www.w3.org/1999/xlink" width="49px" height="44px" xmlns="http://www.w3.org/2000/svg">
  <defs>
    <pattern id="BGPattern" patternUnits="userSpaceOnUse" alignment="0 0" imageRepeat="None" />
    <mask fill="white" id="Clip7171">
      <path d="M 24.979999999999993 32.54  L 24.979999999999993 32.52  L 24.999999999999996 32.52  L 36 20.680000000000003  L 36 42.760000000000005  C 36.87714856874511 43.2443593564507  37.27477362905807 43.62815577575018  37.75943645989137 43.62815577575018  C 37.99047514424605 43.62815577575018  38.2126652978057 43.53930464873908  38.379999999999995 43.38  L 48.339999999999996 33.440000000000005  C 48.76007218474979 33.014600428878765  48.99081118818347 32.43775292029456  49 31.840000000000003  L 49 8.58  L 49 8.56  L 41.04 0.6200000000000001  C 40.87437947778715 0.4501771124142877  40.64721292234195 0.35441028637222605  40.410000000000004 0.35441028637222605  C 40.17278707765806 0.35441028637222605  39.94562052221285 0.4501771124142908  39.78 0.6200000000000001  L 24.999999999999996 15.38  L 10.179999999999996 0.5799999999999983  C 10.014379477787148 0.41017711241428767  9.787212922341942 0.3144102863722238  9.549999999999997 0.3144102863722238  C 9.31278707765805 0.3144102863722238  9.085620522212846 0.41017711241428856  8.919999999999998 0.5799999999999983  L 0.9999999999999999 8.56  L 1.0199999999999998 8.56  L 1 8.56  L 1 31.880000000000003  C 0.9945655939794045 32.47085125366996  1.2249008623861326 33.03949144754907  1.64 33.46  L 11.579999999999998 43.419999999999995  C 11.747285992940784 43.579023946351995  11.969274139331542 43.667699639765814  12.200084058848764 43.667699639765814  C 12.692343365226504 43.667699639765814  13.093272259114359 43.2722133299882  14 42.78  L 14 20.66  L 24.979999999999993 32.54  Z " fill-rule="evenodd" />
    </mask>
  </defs>
  <g>
    <path d="M 24.979999999999993 32.54  L 24.979999999999993 32.52  L 24.999999999999996 32.52  L 36 20.680000000000003  L 36 42.760000000000005  C 36.87714856874511 43.2443593564507  37.27477362905807 43.62815577575018  37.75943645989137 43.62815577575018  C 37.99047514424605 43.62815577575018  38.2126652978057 43.53930464873908  38.379999999999995 43.38  L 48.339999999999996 33.440000000000005  C 48.76007218474979 33.014600428878765  48.99081118818347 32.43775292029456  49 31.840000000000003  L 49 8.58  L 49 8.56  L 41.04 0.6200000000000001  C 40.87437947778715 0.4501771124142877  40.64721292234195 0.35441028637222605  40.410000000000004 0.35441028637222605  C 40.17278707765806 0.35441028637222605  39.94562052221285 0.4501771124142908  39.78 0.6200000000000001  L 24.999999999999996 15.38  L 10.179999999999996 0.5799999999999983  C 10.014379477787148 0.41017711241428767  9.787212922341942 0.3144102863722238  9.549999999999997 0.3144102863722238  C 9.31278707765805 0.3144102863722238  9.085620522212846 0.41017711241428856  8.919999999999998 0.5799999999999983  L 0.9999999999999999 8.56  L 1.0199999999999998 8.56  L 1 8.56  L 1 31.880000000000003  C 0.9945655939794045 32.47085125366996  1.2249008623861326 33.03949144754907  1.64 33.46  L 11.579999999999998 43.419999999999995  C 11.747285992940784 43.579023946351995  11.969274139331542 43.667699639765814  12.200084058848764 43.667699639765814  C 12.692343365226504 43.667699639765814  13.093272259114359 43.2722133299882  14 42.78  L 14 20.66  L 24.979999999999993 32.54  Z " fill-rule="nonzero" fill="rgba(20, 34, 60, 1)" stroke="none" class="fill" />
    <path d="M 24.979999999999993 32.54  L 24.979999999999993 32.52  L 24.999999999999996 32.52  L 36 20.680000000000003  L 36 42.760000000000005  C 36.87714856874511 43.2443593564507  37.27477362905807 43.62815577575018  37.75943645989137 43.62815577575018  C 37.99047514424605 43.62815577575018  38.2126652978057 43.53930464873908  38.379999999999995 43.38  L 48.339999999999996 33.440000000000005  C 48.76007218474979 33.014600428878765  48.99081118818347 32.43775292029456  49 31.840000000000003  L 49 8.58  L 49 8.56  L 41.04 0.6200000000000001  C 40.87437947778715 0.4501771124142877  40.64721292234195 0.35441028637222605  40.410000000000004 0.35441028637222605  C 40.17278707765806 0.35441028637222605  39.94562052221285 0.4501771124142908  39.78 0.6200000000000001  L 24.999999999999996 15.38  L 10.179999999999996 0.5799999999999983  C 10.014379477787148 0.41017711241428767  9.787212922341942 0.3144102863722238  9.549999999999997 0.3144102863722238  C 9.31278707765805 0.3144102863722238  9.085620522212846 0.41017711241428856  8.919999999999998 0.5799999999999983  L 0.9999999999999999 8.56  L 1.0199999999999998 8.56  L 1 8.56  L 1 31.880000000000003  C 0.9945655939794045 32.47085125366996  1.2249008623861326 33.03949144754907  1.64 33.46  L 11.579999999999998 43.419999999999995  C 11.747285992940784 43.579023946351995  11.969274139331542 43.667699639765814  12.200084058848764 43.667699639765814  C 12.692343365226504 43.667699639765814  13.093272259114359 43.2722133299882  14 42.78  L 14 20.66  L 24.979999999999993 32.54  Z " stroke-width="0" stroke-dasharray="0" stroke="rgba(255, 255, 255, 0)" fill="none" class="stroke" mask="url(#Clip7171)" />
  </g>
</svg>