<?xml version="1.0" encoding="utf-8"?>
<svg version="1.1" xmlns:xlink="http://www.w3.org/1999/xlink" width="50px" height="44px" xmlns="http://www.w3.org/2000/svg">
  <defs>
    <pattern id="BGPattern" patternUnits="userSpaceOnUse" alignment="0 0" imageRepeat="None" />
    <mask fill="white" id="Clip1898">
      <path d="M 0.8114257812500226 18.961328125000023  C -0.26972656250001137 18.02753906250001  -0.27119140625001137 16.348730468749977  0.8114257812500226 15.413671874999977  L 17.99931640624999 0.5713867187499773  C 19.503808593750023 -0.7279296875000227  21.875 0.32685546875001137  21.875 2.34521484375  L 21.875 10.162890624999989  C 37.56142578125002 10.342480468750011  50 13.486328125  50 28.352148437499977  C 50 34.35224609375001  46.13466796875002 40.29638671875  41.86201171875001 43.40410156249999  C 40.52871093750002 44.37392578125002  38.62851562499998 43.15673828125  39.1201171875 41.58466796875001  C 43.54824218750002 27.42333984375  37.01982421874999 23.66376953125001  21.875 23.44580078125  L 21.875 32.03125  C 21.875 34.052734375  19.501953125 35.10283203124999  17.99931640624999 33.80507812500002  L 0.8114257812500226 18.961328125000023  Z " fill-rule="evenodd" />
    </mask>
  </defs>
  <g>
    <path d="M 0.8114257812500226 18.961328125000023  C -0.26972656250001137 18.02753906250001  -0.27119140625001137 16.348730468749977  0.8114257812500226 15.413671874999977  L 17.99931640624999 0.5713867187499773  C 19.503808593750023 -0.7279296875000227  21.875 0.32685546875001137  21.875 2.34521484375  L 21.875 10.162890624999989  C 37.56142578125002 10.342480468750011  50 13.486328125  50 28.352148437499977  C 50 34.35224609375001  46.13466796875002 40.29638671875  41.86201171875001 43.40410156249999  C 40.52871093750002 44.37392578125002  38.62851562499998 43.15673828125  39.1201171875 41.58466796875001  C 43.54824218750002 27.42333984375  37.01982421874999 23.66376953125001  21.875 23.44580078125  L 21.875 32.03125  C 21.875 34.052734375  19.501953125 35.10283203124999  17.99931640624999 33.80507812500002  L 0.8114257812500226 18.961328125000023  Z " fill-rule="nonzero" fill="rgba(0, 0, 0, 1)" stroke="none" class="fill" />
    <path d="M 0.8114257812500226 18.961328125000023  C -0.26972656250001137 18.02753906250001  -0.27119140625001137 16.348730468749977  0.8114257812500226 15.413671874999977  L 17.99931640624999 0.5713867187499773  C 19.503808593750023 -0.7279296875000227  21.875 0.32685546875001137  21.875 2.34521484375  L 21.875 10.162890624999989  C 37.56142578125002 10.342480468750011  50 13.486328125  50 28.352148437499977  C 50 34.35224609375001  46.13466796875002 40.29638671875  41.86201171875001 43.40410156249999  C 40.52871093750002 44.37392578125002  38.62851562499998 43.15673828125  39.1201171875 41.58466796875001  C 43.54824218750002 27.42333984375  37.01982421874999 23.66376953125001  21.875 23.44580078125  L 21.875 32.03125  C 21.875 34.052734375  19.501953125 35.10283203124999  17.99931640624999 33.80507812500002  L 0.8114257812500226 18.961328125000023  Z " stroke-width="0" stroke-dasharray="0" stroke="rgba(255, 255, 255, 0)" fill="none" class="stroke" mask="url(#Clip1898)" />
  </g>
</svg>