<?xml version="1.0" encoding="utf-8"?>
<svg version="1.1" xmlns:xlink="http://www.w3.org/1999/xlink" width="48px" height="64px" xmlns="http://www.w3.org/2000/svg">
  <defs>
    <pattern id="BGPattern" patternUnits="userSpaceOnUse" alignment="0 0" imageRepeat="None" />
    <mask fill="white" id="Clip1591">
      <path d="M 48 24  C 47.99999999999999 10.5  36.85374999999999 -0.39625  23.262499999999996 0.01125  C 10.126249999999999 0.405  0 11.865  0 25.00625  L 0 57.99625  C 0 59.77875  2.1537499999999996 60.67  3.4137499999999994 59.410000000000004  L 6.5287500000000005 57.09375  C 7.36125 56.475  8.528749999999999 56.595  9.2175 57.37  L 14.58625 63.41375  C 15.3675 64.195  16.63375 64.195  17.415 63.41375  L 22.505 57.6825  C 23.30125 56.786249999999995  24.699999999999996 56.786249999999995  25.494999999999997 57.6825  L 30.585 63.41375  C 31.36625 64.195  32.63250000000001 64.195  33.41375 63.41375  L 38.7825 57.37  C 39.47125 56.595  40.63875 56.473749999999995  41.47125 57.09375  L 44.58625 59.41  C 45.84625 60.669999999999995  48 59.777499999999996  48 57.996249999999996  L 48 24  Z M 20 24  C 20 26.20875  18.208749999999995 28  15.999999999999996 28  C 13.791249999999998 28  11.999999999999998 26.20875  11.999999999999998 24  C 11.999999999999998 21.79125  13.791249999999998 20  15.999999999999996 20  C 18.20875 20  20 21.79125  20 24  Z M 35.99999999999999 24  C 35.99999999999999 26.20875  34.208749999999995 28  31.999999999999993 28  C 29.79124999999999 28  27.999999999999996 26.20875  27.999999999999996 24  C 27.999999999999996 21.79125  29.791249999999998 20  31.999999999999993 20  C 34.20874999999999 20  35.99999999999999 21.79125  35.99999999999999 24  Z " fill-rule="evenodd" />
    </mask>
  </defs>
  <g>
    <path d="M 48 24  C 47.99999999999999 10.5  36.85374999999999 -0.39625  23.262499999999996 0.01125  C 10.126249999999999 0.405  0 11.865  0 25.00625  L 0 57.99625  C 0 59.77875  2.1537499999999996 60.67  3.4137499999999994 59.410000000000004  L 6.5287500000000005 57.09375  C 7.36125 56.475  8.528749999999999 56.595  9.2175 57.37  L 14.58625 63.41375  C 15.3675 64.195  16.63375 64.195  17.415 63.41375  L 22.505 57.6825  C 23.30125 56.786249999999995  24.699999999999996 56.786249999999995  25.494999999999997 57.6825  L 30.585 63.41375  C 31.36625 64.195  32.63250000000001 64.195  33.41375 63.41375  L 38.7825 57.37  C 39.47125 56.595  40.63875 56.473749999999995  41.47125 57.09375  L 44.58625 59.41  C 45.84625 60.669999999999995  48 59.777499999999996  48 57.996249999999996  L 48 24  Z M 20 24  C 20 26.20875  18.208749999999995 28  15.999999999999996 28  C 13.791249999999998 28  11.999999999999998 26.20875  11.999999999999998 24  C 11.999999999999998 21.79125  13.791249999999998 20  15.999999999999996 20  C 18.20875 20  20 21.79125  20 24  Z M 35.99999999999999 24  C 35.99999999999999 26.20875  34.208749999999995 28  31.999999999999993 28  C 29.79124999999999 28  27.999999999999996 26.20875  27.999999999999996 24  C 27.999999999999996 21.79125  29.791249999999998 20  31.999999999999993 20  C 34.20874999999999 20  35.99999999999999 21.79125  35.99999999999999 24  Z " fill-rule="nonzero" fill="rgba(0, 0, 0, 1)" stroke="none" class="fill" />
    <path d="M 48 24  C 47.99999999999999 10.5  36.85374999999999 -0.39625  23.262499999999996 0.01125  C 10.126249999999999 0.405  0 11.865  0 25.00625  L 0 57.99625  C 0 59.77875  2.1537499999999996 60.67  3.4137499999999994 59.410000000000004  L 6.5287500000000005 57.09375  C 7.36125 56.475  8.528749999999999 56.595  9.2175 57.37  L 14.58625 63.41375  C 15.3675 64.195  16.63375 64.195  17.415 63.41375  L 22.505 57.6825  C 23.30125 56.786249999999995  24.699999999999996 56.786249999999995  25.494999999999997 57.6825  L 30.585 63.41375  C 31.36625 64.195  32.63250000000001 64.195  33.41375 63.41375  L 38.7825 57.37  C 39.47125 56.595  40.63875 56.473749999999995  41.47125 57.09375  L 44.58625 59.41  C 45.84625 60.669999999999995  48 59.777499999999996  48 57.996249999999996  L 48 24  Z " stroke-width="0" stroke-dasharray="0" stroke="rgba(255, 255, 255, 0)" fill="none" class="stroke" mask="url(#Clip1591)" />
    <path d="M 20 24  C 20 26.20875  18.208749999999995 28  15.999999999999996 28  C 13.791249999999998 28  11.999999999999998 26.20875  11.999999999999998 24  C 11.999999999999998 21.79125  13.791249999999998 20  15.999999999999996 20  C 18.20875 20  20 21.79125  20 24  Z " stroke-width="0" stroke-dasharray="0" stroke="rgba(255, 255, 255, 0)" fill="none" class="stroke" mask="url(#Clip1591)" />
    <path d="M 35.99999999999999 24  C 35.99999999999999 26.20875  34.208749999999995 28  31.999999999999993 28  C 29.79124999999999 28  27.999999999999996 26.20875  27.999999999999996 24  C 27.999999999999996 21.79125  29.791249999999998 20  31.999999999999993 20  C 34.20874999999999 20  35.99999999999999 21.79125  35.99999999999999 24  Z " stroke-width="0" stroke-dasharray="0" stroke="rgba(255, 255, 255, 0)" fill="none" class="stroke" mask="url(#Clip1591)" />
  </g>
</svg>