<?xml version="1.0" encoding="utf-8"?>
<svg version="1.1" xmlns:xlink="http://www.w3.org/1999/xlink" width="17px" height="21px" xmlns="http://www.w3.org/2000/svg">
  <defs>
    <pattern id="BGPattern" patternUnits="userSpaceOnUse" alignment="0 0" imageRepeat="None" />
    <mask fill="white" id="Clip402">
      <path d="M 13.719999999999999 8.549999999999999  L 14.401499999999999 8.55  C 15.605 8.55  16.475 9.42  16.475 10.623500000000002  L 16.475 18.0765  C 16.475 19.279999999999998  15.605 20.15  14.401499999999999 20  L 2.5985000000000014 20  C 1.3950000000000014 20.15  0.5250000000000012 19.279999999999998  0.5250000000000012 18.0765  L 0.5250000000000012 10.623500000000002  C 0.5250000000000012 9.42  1.3950000000000005 8.549999999999999  2.5985000000000014 8.549999999999999  L 3.280000000000001 8.549999999999999  L 3.280000000000001 5.795  C 3.280000000000001 2.9094999999999978  5.614500000000003 0.5749999999999993  8.5 0.5749999999999993  C 11.385499999999997 0.5749999999999993  13.719999999999999 2.9095000000000013  13.719999999999999 5.795  L 13.719999999999999 8.549999999999999  Z M 8.5 2.75  C 6.818000000000001 2.75  5.455 4.1129999999999995  5.455 5.795  L 5.455 8.549999999999999  L 11.544999999999998 8.549999999999999  L 11.544999999999998 5.795  C 11.544999999999998 4.1129999999999995  10.181999999999999 2.75  8.5 2.75  Z " fill-rule="evenodd" />
    </mask>
  </defs>
  <g>
    <path d="M 13.719999999999999 8.549999999999999  L 14.401499999999999 8.55  C 15.605 8.55  16.475 9.42  16.475 10.623500000000002  L 16.475 18.0765  C 16.475 19.279999999999998  15.605 20.15  14.401499999999999 20  L 2.5985000000000014 20  C 1.3950000000000014 20.15  0.5250000000000012 19.279999999999998  0.5250000000000012 18.0765  L 0.5250000000000012 10.623500000000002  C 0.5250000000000012 9.42  1.3950000000000005 8.549999999999999  2.5985000000000014 8.549999999999999  L 3.280000000000001 8.549999999999999  L 3.280000000000001 5.795  C 3.280000000000001 2.9094999999999978  5.614500000000003 0.5749999999999993  8.5 0.5749999999999993  C 11.385499999999997 0.5749999999999993  13.719999999999999 2.9095000000000013  13.719999999999999 5.795  L 13.719999999999999 8.549999999999999  Z M 8.5 2.75  C 6.818000000000001 2.75  5.455 4.1129999999999995  5.455 5.795  L 5.455 8.549999999999999  L 11.544999999999998 8.549999999999999  L 11.544999999999998 5.795  C 11.544999999999998 4.1129999999999995  10.181999999999999 2.75  8.5 2.75  Z " fill-rule="nonzero" fill="rgba(0, 0, 0, 1)" stroke="none" class="fill" />
    <path d="M 13.719999999999999 8.549999999999999  L 14.401499999999999 8.55  C 15.605 8.55  16.475 9.42  16.475 10.623500000000002  L 16.475 18.0765  C 16.475 19.279999999999998  15.605 20.15  14.401499999999999 20  L 2.5985000000000014 20  C 1.3950000000000014 20.15  0.5250000000000012 19.279999999999998  0.5250000000000012 18.0765  L 0.5250000000000012 10.623500000000002  C 0.5250000000000012 9.42  1.3950000000000005 8.549999999999999  2.5985000000000014 8.549999999999999  L 3.280000000000001 8.549999999999999  L 3.280000000000001 5.795  C 3.280000000000001 2.9094999999999978  5.614500000000003 0.5749999999999993  8.5 0.5749999999999993  C 11.385499999999997 0.5749999999999993  13.719999999999999 2.9095000000000013  13.719999999999999 5.795  L 13.719999999999999 8.549999999999999  Z " stroke-width="0" stroke-dasharray="0" stroke="rgba(255, 255, 255, 0)" fill="none" class="stroke" mask="url(#Clip402)" />
    <path d="M 8.5 2.75  C 6.818000000000001 2.75  5.455 4.1129999999999995  5.455 5.795  L 5.455 8.549999999999999  L 11.544999999999998 8.549999999999999  L 11.544999999999998 5.795  C 11.544999999999998 4.1129999999999995  10.181999999999999 2.75  8.5 2.75  Z " stroke-width="0" stroke-dasharray="0" stroke="rgba(255, 255, 255, 0)" fill="none" class="stroke" mask="url(#Clip402)" />
  </g>
</svg>