<?xml version="1.0" encoding="utf-8"?>
<svg version="1.1" xmlns:xlink="http://www.w3.org/1999/xlink" width="21px" height="24px" xmlns="http://www.w3.org/2000/svg">
  <defs>
    <pattern id="BGPattern" patternUnits="userSpaceOnUse" alignment="0 0" imageRepeat="None" />
    <mask fill="white" id="Clip5601">
      <path d="M 14.25 0  L 21 6.75  L 21 21  C 21 22.65685424949238  19.65685424949238 24  18 24  L 18 22.5  C 18.82842712474619 22.5  19.5 21.82842712474619  19.5 21  L 19.5 6.75  L 16.5 6.75  C 15.257359312880716 6.75  14.25 5.742640687119285  14.25 4.5  L 14.25 1.5  L 6 1.5  C 5.17157287525381 1.5  4.5 2.1715728752538097  4.5 3  L 4.5 16.5  L 3 16.5  L 3 3  C 3 1.3431457505076196  4.343145750507619 0  6 0  L 14.25 0  Z M 0 23.7735  L 1.059 23.7735  L 1.059 19.7835  L 1.116 19.7835  L 2.544 23.0235  L 3.3179999999999996 23.0235  L 4.736999999999999 19.7835  L 4.793999999999999 19.7835  L 4.793999999999999 23.7735  L 5.8664999999999985 23.7735  L 5.8664999999999985 17.775  L 4.666499999999998 17.775  L 2.9564999999999984 21.669  L 2.9174999999999986 21.669  L 1.2075 17.775  L 0 17.775  L 0 23.7735  Z M 8.916 17.775  L 8.9145 17.775  C 8.5215 18.426  8.126999999999999 19.075499999999998  7.7295 19.725  C 7.332 20.375999999999998  6.958499999999999 21.03  6.607499999999999 21.69  L 6.607499999999999 22.662  L 9.513 22.662  L 9.513 23.7735  L 10.622999999999998 23.7735  L 10.622999999999998 22.662  L 11.358 22.662  L 11.358 21.703500000000002  L 10.622999999999998 21.703500000000002  L 10.622999999999998 17.775  L 8.916 17.775  Z M 12.025499999999996 23.7735  L 12.023999999999996 17.775  L 14.423999999999994 17.775  C 14.857499999999996 17.775  15.223499999999996 17.865  15.521999999999995 18.043499999999998  C 15.823499999999996 18.218999999999998  16.054499999999997 18.457499999999996  16.211999999999996 18.758999999999997  C 16.370999999999995 19.060499999999998  16.448999999999998 19.399499999999996  16.448999999999998 19.774499999999996  C 16.448999999999998 20.149499999999996  16.369499999999995 20.4885  16.208999999999996 20.789999999999996  C 16.049999999999997 21.088499999999996  15.818999999999996 21.325499999999995  15.512999999999998 21.500999999999998  C 15.176146649899842 21.68244176233815  14.79743994036236 21.771944850794412  14.414999999999994 21.760499999999997  L 13.210499999999996 21.760499999999997  L 13.210499999999996 23.7735  L 12.025499999999996 23.7735  Z M 7.686 21.7035  L 7.684499999999999 21.705  L 7.684499999999999 21.673499999999997  C 7.954499999999999 21.1635  8.2395 20.653499999999998  8.540999999999999 20.147999999999996  C 8.8455 19.641  9.148499999999999 19.148999999999997  9.4515 18.671999999999997  L 9.511499999999998 18.671999999999997  L 9.511499999999998 21.7035  L 7.686 21.7035  Z M 14.756999999999998 20.705999999999996  C 14.909434649628196 20.624550495459474  15.0338289286644 20.49911088634734  15.113999999999995 20.345999999999997  C 15.203336691475998 20.16905709525644  15.247157697788468 19.972635878726436  15.241499999999998 19.774499999999996  C 15.241499999999998 19.435499999999998  15.148500000000002 19.174499999999995  14.963999999999999 18.992999999999995  C 14.779499999999999 18.809999999999995  14.522999999999998 18.719999999999995  14.194499999999998 18.719999999999995  L 13.205999999999998 18.719999999999995  L 13.205999999999998 20.828999999999997  L 14.195999999999998 20.829  C 14.390233772958311 20.83437661022738  14.582833318062487 20.79214890247727  14.756999999999998 20.705999999999996  Z " fill-rule="evenodd" />
    </mask>
  </defs>
  <g>
    <path d="M 14.25 0  L 21 6.75  L 21 21  C 21 22.65685424949238  19.65685424949238 24  18 24  L 18 22.5  C 18.82842712474619 22.5  19.5 21.82842712474619  19.5 21  L 19.5 6.75  L 16.5 6.75  C 15.257359312880716 6.75  14.25 5.742640687119285  14.25 4.5  L 14.25 1.5  L 6 1.5  C 5.17157287525381 1.5  4.5 2.1715728752538097  4.5 3  L 4.5 16.5  L 3 16.5  L 3 3  C 3 1.3431457505076196  4.343145750507619 0  6 0  L 14.25 0  Z M 0 23.7735  L 1.059 23.7735  L 1.059 19.7835  L 1.116 19.7835  L 2.544 23.0235  L 3.3179999999999996 23.0235  L 4.736999999999999 19.7835  L 4.793999999999999 19.7835  L 4.793999999999999 23.7735  L 5.8664999999999985 23.7735  L 5.8664999999999985 17.775  L 4.666499999999998 17.775  L 2.9564999999999984 21.669  L 2.9174999999999986 21.669  L 1.2075 17.775  L 0 17.775  L 0 23.7735  Z M 8.916 17.775  L 8.9145 17.775  C 8.5215 18.426  8.126999999999999 19.075499999999998  7.7295 19.725  C 7.332 20.375999999999998  6.958499999999999 21.03  6.607499999999999 21.69  L 6.607499999999999 22.662  L 9.513 22.662  L 9.513 23.7735  L 10.622999999999998 23.7735  L 10.622999999999998 22.662  L 11.358 22.662  L 11.358 21.703500000000002  L 10.622999999999998 21.703500000000002  L 10.622999999999998 17.775  L 8.916 17.775  Z M 12.025499999999996 23.7735  L 12.023999999999996 17.775  L 14.423999999999994 17.775  C 14.857499999999996 17.775  15.223499999999996 17.865  15.521999999999995 18.043499999999998  C 15.823499999999996 18.218999999999998  16.054499999999997 18.457499999999996  16.211999999999996 18.758999999999997  C 16.370999999999995 19.060499999999998  16.448999999999998 19.399499999999996  16.448999999999998 19.774499999999996  C 16.448999999999998 20.149499999999996  16.369499999999995 20.4885  16.208999999999996 20.789999999999996  C 16.049999999999997 21.088499999999996  15.818999999999996 21.325499999999995  15.512999999999998 21.500999999999998  C 15.176146649899842 21.68244176233815  14.79743994036236 21.771944850794412  14.414999999999994 21.760499999999997  L 13.210499999999996 21.760499999999997  L 13.210499999999996 23.7735  L 12.025499999999996 23.7735  Z M 7.686 21.7035  L 7.684499999999999 21.705  L 7.684499999999999 21.673499999999997  C 7.954499999999999 21.1635  8.2395 20.653499999999998  8.540999999999999 20.147999999999996  C 8.8455 19.641  9.148499999999999 19.148999999999997  9.4515 18.671999999999997  L 9.511499999999998 18.671999999999997  L 9.511499999999998 21.7035  L 7.686 21.7035  Z M 14.756999999999998 20.705999999999996  C 14.909434649628196 20.624550495459474  15.0338289286644 20.49911088634734  15.113999999999995 20.345999999999997  C 15.203336691475998 20.16905709525644  15.247157697788468 19.972635878726436  15.241499999999998 19.774499999999996  C 15.241499999999998 19.435499999999998  15.148500000000002 19.174499999999995  14.963999999999999 18.992999999999995  C 14.779499999999999 18.809999999999995  14.522999999999998 18.719999999999995  14.194499999999998 18.719999999999995  L 13.205999999999998 18.719999999999995  L 13.205999999999998 20.828999999999997  L 14.195999999999998 20.829  C 14.390233772958311 20.83437661022738  14.582833318062487 20.79214890247727  14.756999999999998 20.705999999999996  Z " fill-rule="nonzero" fill="rgba(0, 0, 0, 1)" stroke="none" class="fill" />
    <path d="M 14.25 0  L 21 6.75  L 21 21  C 21 22.65685424949238  19.65685424949238 24  18 24  L 18 22.5  C 18.82842712474619 22.5  19.5 21.82842712474619  19.5 21  L 19.5 6.75  L 16.5 6.75  C 15.257359312880716 6.75  14.25 5.742640687119285  14.25 4.5  L 14.25 1.5  L 6 1.5  C 5.17157287525381 1.5  4.5 2.1715728752538097  4.5 3  L 4.5 16.5  L 3 16.5  L 3 3  C 3 1.3431457505076196  4.343145750507619 0  6 0  L 14.25 0  Z " stroke-width="0" stroke-dasharray="0" stroke="rgba(255, 255, 255, 0)" fill="none" class="stroke" mask="url(#Clip5601)" />
    <path d="M 0 23.7735  L 1.059 23.7735  L 1.059 19.7835  L 1.116 19.7835  L 2.544 23.0235  L 3.3179999999999996 23.0235  L 4.736999999999999 19.7835  L 4.793999999999999 19.7835  L 4.793999999999999 23.7735  L 5.8664999999999985 23.7735  L 5.8664999999999985 17.775  L 4.666499999999998 17.775  L 2.9564999999999984 21.669  L 2.9174999999999986 21.669  L 1.2075 17.775  L 0 17.775  L 0 23.7735  Z " stroke-width="0" stroke-dasharray="0" stroke="rgba(255, 255, 255, 0)" fill="none" class="stroke" mask="url(#Clip5601)" />
    <path d="M 8.916 17.775  L 8.9145 17.775  C 8.5215 18.426  8.126999999999999 19.075499999999998  7.7295 19.725  C 7.332 20.375999999999998  6.958499999999999 21.03  6.607499999999999 21.69  L 6.607499999999999 22.662  L 9.513 22.662  L 9.513 23.7735  L 10.622999999999998 23.7735  L 10.622999999999998 22.662  L 11.358 22.662  L 11.358 21.703500000000002  L 10.622999999999998 21.703500000000002  L 10.622999999999998 17.775  L 8.916 17.775  Z " stroke-width="0" stroke-dasharray="0" stroke="rgba(255, 255, 255, 0)" fill="none" class="stroke" mask="url(#Clip5601)" />
    <path d="M 12.025499999999996 23.7735  L 12.023999999999996 17.775  L 14.423999999999994 17.775  C 14.857499999999996 17.775  15.223499999999996 17.865  15.521999999999995 18.043499999999998  C 15.823499999999996 18.218999999999998  16.054499999999997 18.457499999999996  16.211999999999996 18.758999999999997  C 16.370999999999995 19.060499999999998  16.448999999999998 19.399499999999996  16.448999999999998 19.774499999999996  C 16.448999999999998 20.149499999999996  16.369499999999995 20.4885  16.208999999999996 20.789999999999996  C 16.049999999999997 21.088499999999996  15.818999999999996 21.325499999999995  15.512999999999998 21.500999999999998  C 15.176146649899842 21.68244176233815  14.79743994036236 21.771944850794412  14.414999999999994 21.760499999999997  L 13.210499999999996 21.760499999999997  L 13.210499999999996 23.7735  L 12.025499999999996 23.7735  Z " stroke-width="0" stroke-dasharray="0" stroke="rgba(255, 255, 255, 0)" fill="none" class="stroke" mask="url(#Clip5601)" />
    <path d="M 7.686 21.7035  L 7.684499999999999 21.705  L 7.684499999999999 21.673499999999997  C 7.954499999999999 21.1635  8.2395 20.653499999999998  8.540999999999999 20.147999999999996  C 8.8455 19.641  9.148499999999999 19.148999999999997  9.4515 18.671999999999997  L 9.511499999999998 18.671999999999997  L 9.511499999999998 21.7035  L 7.686 21.7035  Z " stroke-width="0" stroke-dasharray="0" stroke="rgba(255, 255, 255, 0)" fill="none" class="stroke" mask="url(#Clip5601)" />
    <path d="M 14.756999999999998 20.705999999999996  C 14.909434649628196 20.624550495459474  15.0338289286644 20.49911088634734  15.113999999999995 20.345999999999997  C 15.203336691475998 20.16905709525644  15.247157697788468 19.972635878726436  15.241499999999998 19.774499999999996  C 15.241499999999998 19.435499999999998  15.148500000000002 19.174499999999995  14.963999999999999 18.992999999999995  C 14.779499999999999 18.809999999999995  14.522999999999998 18.719999999999995  14.194499999999998 18.719999999999995  L 13.205999999999998 18.719999999999995  L 13.205999999999998 20.828999999999997  L 14.195999999999998 20.829  C 14.390233772958311 20.83437661022738  14.582833318062487 20.79214890247727  14.756999999999998 20.705999999999996  Z " stroke-width="0" stroke-dasharray="0" stroke="rgba(255, 255, 255, 0)" fill="none" class="stroke" mask="url(#Clip5601)" />
  </g>
</svg>