<?xml version="1.0" encoding="utf-8"?>
<svg version="1.1" xmlns:xlink="http://www.w3.org/1999/xlink" width="6px" height="9px" xmlns="http://www.w3.org/2000/svg">
  <defs>
    <pattern id="BGPattern" patternUnits="userSpaceOnUse" alignment="0 0" imageRepeat="None" />
    <mask fill="white" id="Clip3828">
      <path d="M 1.879999999999999 3.4200000000000017  L 2.619999999999999 3.419999999999998  C 2.9751291733596847 3.4552416972259934  3.3308679838570896 3.3591922183916942  3.619999999999999 3.150000000000002  C 3.824025526019856 2.9843135829049743  3.938739761385513 2.732682356941602  3.9299999999999997 2.4700000000000024  L 3.9299999999999997 2.390000000000004  C 3.9449431111641573 2.11100703526359  3.8350044604951155 1.8398250302799557  3.629999999999999 1.6500000000000021  C 3.3970319076749025 1.4590078944827383  3.1007495491797012 1.3626268862975515  2.799999999999999 1.3800000000000043  C 2.4865574033612656 1.3738245407036072  2.1778420984108813 1.4570736117014622  1.9099999999999966 1.6200000000000045  C 1.6337866273726735 1.791017265303795  1.4010172653037873 2.0237866273726794  1.2299999999999986 2.3000000000000043  L 0.29999999999999893 1.4700000000000042  C 0.43584989243396777 1.2909600492559665  0.5828055718601153 1.1206250571938394  0.7399999999999984 0.9600000000000044  C 0.9026400048246312 0.8046991319672685  1.0840447306796612 0.6703252609635424  1.2799999999999958 0.5600000000000005  C 1.498744635142522 0.4359786005462709  1.7346305270714844 0.3449940422308124  1.9799999999999969 0.29000000000000625  C 2.2641604565363913 0.2175694375654338  2.5568165825392484 0.18393080239269466  2.849999999999996 0.19000000000000483  C 3.2080533385644188 0.18828478712732633  3.5646695148753356 0.23538503682876843  3.9099999999999966 0.3300000000000072  C 4.2070223315815465 0.407992958183371  4.4856972329761255 0.5439319344734113  4.729999999999999 0.7300000000000075  C 4.953991346812526 0.8978917295776654  5.138340967341639 1.1129662868616315  5.269999999999994 1.3600000000000065  C 5.392863958679504 1.619199538202965  5.454452193065368 1.9031897300933345  5.449999999999996 2.190000000000005  C 5.451787540815811 2.417970413258306  5.414584895320218 2.644568344913292  5.3399999999999945 2.8600000000000065  C 5.263376765890676 3.0501165391945015  5.155187985283156 3.225923307681718  5.019999999999998 3.380000000000006  C 4.884401514561109 3.5252559708237605  4.725562802417484 3.6469196652316427  4.549999999999995 3.7400000000000055  C 4.369758390713535 3.8317622985604487  4.178061492347194 3.899024368162671  3.979999999999995 3.940000000000005  L 3.979999999999995 4  C 4.198915449886266 4.039694137773317  4.411051157426993 4.110406040286893  4.609999999999996 4.210000000000001  C 4.802391481740413 4.303455470440213  4.975418949864045 4.432377897669582  5.119999999999994 4.589999999999996  C 5.264085724367545 4.752441465728509  5.379101922271774 4.938497079985353  5.4599999999999955 5.140000000000001  C 5.543510701425561 5.374153371972998  5.584159744051677 5.621435047948548  5.579999999999995 5.870000000000001  C 5.5874923181149985 6.188212477102393  5.5189259892843125 6.50361758972355  5.3799999999999955 6.790000000000003  C 5.245554874659863 7.072006020748475  5.046914384320562 7.3185942156524355  4.799999999999995 7.509999999999998  C 4.534357255415154 7.71476951597937  4.232384219290866 7.867452511772552  3.909999999999995 7.960000000000004  C 3.5372631314021117 8.07255474668554  3.1493053865921397 8.126531476398227  2.7599999999999945 8.120000000000001  C 2.423414961491426 8.124523020632456  2.087553892899386 8.087578303087334  1.7599999999999945 8.010000000000002  C 1.494046141087022 7.940809431180504  1.238473176628089 7.836562564098568  1.0000000000000018 7.699999999999999  C 0.7945253897626543 7.5750381069754695  0.606264334977201 7.423756902237159  0.4399999999999995 7.25  C 0.2782631324073126 7.079248149774756  0.131083956114038 6.895274179408165  0 6.699999999999999  L 1.0700000000000003 5.890000000000001  C 1.1516460045331414 6.037448703496612  1.2452958139004924 6.177923417547639  1.3500000000000014 6.310000000000002  C 1.4549840463259667 6.438245672093846  1.5759693426707333 6.552509563086126  1.7100000000000009 6.650000000000002  C 1.8472597213361492 6.746943268890504  1.999192944207973 6.821221733405618  2.1599999999999984 6.870000000000001  C 2.345643261188977 6.920632277656747  2.537621894064639 6.944208600992354  2.7299999999999986 6.940000000000005  C 3.0890202717935473 6.9676351950633055  3.445479513491607 6.860697422553887  3.7299999999999986 6.640000000000001  C 3.9592428939211786 6.418036839047918  4.0829254328725195 6.108830491669561  4.0699999999999985 5.789999999999999  L 4.0699999999999985 5.710000000000001  C 4.077179875041626 5.400430277919103  3.9405425030317076 5.1049981222219785  3.6999999999999993 4.909999999999997  C 3.384926326384722 4.707466565325738  3.013992388090955 4.6094840155877606  2.639999999999999 4.629999999999999  L 1.879999999999999 4.629999999999999  L 1.879999999999999 3.4200000000000017  Z " fill-rule="evenodd" />
    </mask>
  </defs>
  <g transform="matrix(1 0 0 1 -10 -14 )">
    <path d="M 1.879999999999999 3.4200000000000017  L 2.619999999999999 3.419999999999998  C 2.9751291733596847 3.4552416972259934  3.3308679838570896 3.3591922183916942  3.619999999999999 3.150000000000002  C 3.824025526019856 2.9843135829049743  3.938739761385513 2.732682356941602  3.9299999999999997 2.4700000000000024  L 3.9299999999999997 2.390000000000004  C 3.9449431111641573 2.11100703526359  3.8350044604951155 1.8398250302799557  3.629999999999999 1.6500000000000021  C 3.3970319076749025 1.4590078944827383  3.1007495491797012 1.3626268862975515  2.799999999999999 1.3800000000000043  C 2.4865574033612656 1.3738245407036072  2.1778420984108813 1.4570736117014622  1.9099999999999966 1.6200000000000045  C 1.6337866273726735 1.791017265303795  1.4010172653037873 2.0237866273726794  1.2299999999999986 2.3000000000000043  L 0.29999999999999893 1.4700000000000042  C 0.43584989243396777 1.2909600492559665  0.5828055718601153 1.1206250571938394  0.7399999999999984 0.9600000000000044  C 0.9026400048246312 0.8046991319672685  1.0840447306796612 0.6703252609635424  1.2799999999999958 0.5600000000000005  C 1.498744635142522 0.4359786005462709  1.7346305270714844 0.3449940422308124  1.9799999999999969 0.29000000000000625  C 2.2641604565363913 0.2175694375654338  2.5568165825392484 0.18393080239269466  2.849999999999996 0.19000000000000483  C 3.2080533385644188 0.18828478712732633  3.5646695148753356 0.23538503682876843  3.9099999999999966 0.3300000000000072  C 4.2070223315815465 0.407992958183371  4.4856972329761255 0.5439319344734113  4.729999999999999 0.7300000000000075  C 4.953991346812526 0.8978917295776654  5.138340967341639 1.1129662868616315  5.269999999999994 1.3600000000000065  C 5.392863958679504 1.619199538202965  5.454452193065368 1.9031897300933345  5.449999999999996 2.190000000000005  C 5.451787540815811 2.417970413258306  5.414584895320218 2.644568344913292  5.3399999999999945 2.8600000000000065  C 5.263376765890676 3.0501165391945015  5.155187985283156 3.225923307681718  5.019999999999998 3.380000000000006  C 4.884401514561109 3.5252559708237605  4.725562802417484 3.6469196652316427  4.549999999999995 3.7400000000000055  C 4.369758390713535 3.8317622985604487  4.178061492347194 3.899024368162671  3.979999999999995 3.940000000000005  L 3.979999999999995 4  C 4.198915449886266 4.039694137773317  4.411051157426993 4.110406040286893  4.609999999999996 4.210000000000001  C 4.802391481740413 4.303455470440213  4.975418949864045 4.432377897669582  5.119999999999994 4.589999999999996  C 5.264085724367545 4.752441465728509  5.379101922271774 4.938497079985353  5.4599999999999955 5.140000000000001  C 5.543510701425561 5.374153371972998  5.584159744051677 5.621435047948548  5.579999999999995 5.870000000000001  C 5.5874923181149985 6.188212477102393  5.5189259892843125 6.50361758972355  5.3799999999999955 6.790000000000003  C 5.245554874659863 7.072006020748475  5.046914384320562 7.3185942156524355  4.799999999999995 7.509999999999998  C 4.534357255415154 7.71476951597937  4.232384219290866 7.867452511772552  3.909999999999995 7.960000000000004  C 3.5372631314021117 8.07255474668554  3.1493053865921397 8.126531476398227  2.7599999999999945 8.120000000000001  C 2.423414961491426 8.124523020632456  2.087553892899386 8.087578303087334  1.7599999999999945 8.010000000000002  C 1.494046141087022 7.940809431180504  1.238473176628089 7.836562564098568  1.0000000000000018 7.699999999999999  C 0.7945253897626543 7.5750381069754695  0.606264334977201 7.423756902237159  0.4399999999999995 7.25  C 0.2782631324073126 7.079248149774756  0.131083956114038 6.895274179408165  0 6.699999999999999  L 1.0700000000000003 5.890000000000001  C 1.1516460045331414 6.037448703496612  1.2452958139004924 6.177923417547639  1.3500000000000014 6.310000000000002  C 1.4549840463259667 6.438245672093846  1.5759693426707333 6.552509563086126  1.7100000000000009 6.650000000000002  C 1.8472597213361492 6.746943268890504  1.999192944207973 6.821221733405618  2.1599999999999984 6.870000000000001  C 2.345643261188977 6.920632277656747  2.537621894064639 6.944208600992354  2.7299999999999986 6.940000000000005  C 3.0890202717935473 6.9676351950633055  3.445479513491607 6.860697422553887  3.7299999999999986 6.640000000000001  C 3.9592428939211786 6.418036839047918  4.0829254328725195 6.108830491669561  4.0699999999999985 5.789999999999999  L 4.0699999999999985 5.710000000000001  C 4.077179875041626 5.400430277919103  3.9405425030317076 5.1049981222219785  3.6999999999999993 4.909999999999997  C 3.384926326384722 4.707466565325738  3.013992388090955 4.6094840155877606  2.639999999999999 4.629999999999999  L 1.879999999999999 4.629999999999999  L 1.879999999999999 3.4200000000000017  Z " fill-rule="nonzero" fill="rgba(0, 0, 0, 1)" stroke="none" transform="matrix(1 0 0 1 10 14 )" class="fill" />
    <path d="M 1.879999999999999 3.4200000000000017  L 2.619999999999999 3.419999999999998  C 2.9751291733596847 3.4552416972259934  3.3308679838570896 3.3591922183916942  3.619999999999999 3.150000000000002  C 3.824025526019856 2.9843135829049743  3.938739761385513 2.732682356941602  3.9299999999999997 2.4700000000000024  L 3.9299999999999997 2.390000000000004  C 3.9449431111641573 2.11100703526359  3.8350044604951155 1.8398250302799557  3.629999999999999 1.6500000000000021  C 3.3970319076749025 1.4590078944827383  3.1007495491797012 1.3626268862975515  2.799999999999999 1.3800000000000043  C 2.4865574033612656 1.3738245407036072  2.1778420984108813 1.4570736117014622  1.9099999999999966 1.6200000000000045  C 1.6337866273726735 1.791017265303795  1.4010172653037873 2.0237866273726794  1.2299999999999986 2.3000000000000043  L 0.29999999999999893 1.4700000000000042  C 0.43584989243396777 1.2909600492559665  0.5828055718601153 1.1206250571938394  0.7399999999999984 0.9600000000000044  C 0.9026400048246312 0.8046991319672685  1.0840447306796612 0.6703252609635424  1.2799999999999958 0.5600000000000005  C 1.498744635142522 0.4359786005462709  1.7346305270714844 0.3449940422308124  1.9799999999999969 0.29000000000000625  C 2.2641604565363913 0.2175694375654338  2.5568165825392484 0.18393080239269466  2.849999999999996 0.19000000000000483  C 3.2080533385644188 0.18828478712732633  3.5646695148753356 0.23538503682876843  3.9099999999999966 0.3300000000000072  C 4.2070223315815465 0.407992958183371  4.4856972329761255 0.5439319344734113  4.729999999999999 0.7300000000000075  C 4.953991346812526 0.8978917295776654  5.138340967341639 1.1129662868616315  5.269999999999994 1.3600000000000065  C 5.392863958679504 1.619199538202965  5.454452193065368 1.9031897300933345  5.449999999999996 2.190000000000005  C 5.451787540815811 2.417970413258306  5.414584895320218 2.644568344913292  5.3399999999999945 2.8600000000000065  C 5.263376765890676 3.0501165391945015  5.155187985283156 3.225923307681718  5.019999999999998 3.380000000000006  C 4.884401514561109 3.5252559708237605  4.725562802417484 3.6469196652316427  4.549999999999995 3.7400000000000055  C 4.369758390713535 3.8317622985604487  4.178061492347194 3.899024368162671  3.979999999999995 3.940000000000005  L 3.979999999999995 4  C 4.198915449886266 4.039694137773317  4.411051157426993 4.110406040286893  4.609999999999996 4.210000000000001  C 4.802391481740413 4.303455470440213  4.975418949864045 4.432377897669582  5.119999999999994 4.589999999999996  C 5.264085724367545 4.752441465728509  5.379101922271774 4.938497079985353  5.4599999999999955 5.140000000000001  C 5.543510701425561 5.374153371972998  5.584159744051677 5.621435047948548  5.579999999999995 5.870000000000001  C 5.5874923181149985 6.188212477102393  5.5189259892843125 6.50361758972355  5.3799999999999955 6.790000000000003  C 5.245554874659863 7.072006020748475  5.046914384320562 7.3185942156524355  4.799999999999995 7.509999999999998  C 4.534357255415154 7.71476951597937  4.232384219290866 7.867452511772552  3.909999999999995 7.960000000000004  C 3.5372631314021117 8.07255474668554  3.1493053865921397 8.126531476398227  2.7599999999999945 8.120000000000001  C 2.423414961491426 8.124523020632456  2.087553892899386 8.087578303087334  1.7599999999999945 8.010000000000002  C 1.494046141087022 7.940809431180504  1.238473176628089 7.836562564098568  1.0000000000000018 7.699999999999999  C 0.7945253897626543 7.5750381069754695  0.606264334977201 7.423756902237159  0.4399999999999995 7.25  C 0.2782631324073126 7.079248149774756  0.131083956114038 6.895274179408165  0 6.699999999999999  L 1.0700000000000003 5.890000000000001  C 1.1516460045331414 6.037448703496612  1.2452958139004924 6.177923417547639  1.3500000000000014 6.310000000000002  C 1.4549840463259667 6.438245672093846  1.5759693426707333 6.552509563086126  1.7100000000000009 6.650000000000002  C 1.8472597213361492 6.746943268890504  1.999192944207973 6.821221733405618  2.1599999999999984 6.870000000000001  C 2.345643261188977 6.920632277656747  2.537621894064639 6.944208600992354  2.7299999999999986 6.940000000000005  C 3.0890202717935473 6.9676351950633055  3.445479513491607 6.860697422553887  3.7299999999999986 6.640000000000001  C 3.9592428939211786 6.418036839047918  4.0829254328725195 6.108830491669561  4.0699999999999985 5.789999999999999  L 4.0699999999999985 5.710000000000001  C 4.077179875041626 5.400430277919103  3.9405425030317076 5.1049981222219785  3.6999999999999993 4.909999999999997  C 3.384926326384722 4.707466565325738  3.013992388090955 4.6094840155877606  2.639999999999999 4.629999999999999  L 1.879999999999999 4.629999999999999  L 1.879999999999999 3.4200000000000017  Z " stroke-width="0" stroke-dasharray="0" stroke="rgba(255, 255, 255, 0)" fill="none" transform="matrix(1 0 0 1 10 14 )" class="stroke" mask="url(#Clip3828)" />
  </g>
</svg>