<?xml version="1.0" encoding="utf-8"?>
<svg version="1.1" xmlns:xlink="http://www.w3.org/1999/xlink" width="50px" height="50px" xmlns="http://www.w3.org/2000/svg">
  <defs>
    <pattern id="BGPattern" patternUnits="userSpaceOnUse" alignment="0 0" imageRepeat="None" />
    <mask fill="white" id="Clip2070">
      <path d="M 50 25  C 50 11.189516129032256  38.810483870967744 0  25 0  C 11.189516129032256 0  0 11.189516129032256  0 25  C 0 38.810483870967744  11.189516129032256 50  25 50  C 38.810483870967744 50  50 38.810483870967744  50 25  Z M 30.645161290322566 25  L 37.258064516129025 31.5625  C 37.731854838709694 32.03629032258067  37.731854838709694 32.80241935483872  37.258064516129025 33.27620967741933  L 33.26612903225805 37.258064516129025  C 32.79233870967744 37.731854838709694  32.02620967741933 37.731854838709694  31.55241935483872 37.258064516129025  L 25 30.645161290322566  L 18.4375 37.258064516129025  C 17.96370967741933 37.731854838709694  17.19758064516128 37.731854838709694  16.72379032258067 37.258064516129025  L 12.741935483870975 33.26612903225805  C 12.268145161290306 32.79233870967744  12.268145161290306 32.02620967741933  12.741935483870975 31.55241935483872  L 19.354838709677438 25  L 12.741935483870975 18.4375  C 12.268145161290306 17.96370967741933  12.268145161290306 17.19758064516128  12.741935483870975 16.72379032258067  L 16.73387096774195 12.731854838709694  C 17.207661290322562 12.258064516129025  17.97379032258067 12.258064516129025  18.44758064516128 12.731854838709694  L 25 19.354838709677438  L 31.5625 12.741935483870975  C 32.03629032258067 12.268145161290306  32.80241935483872 12.268145161290306  33.27620967741933 12.741935483870975  L 37.268145161290306 16.73387096774195  C 37.741935483870975 17.207661290322562  37.741935483870975 17.97379032258067  37.268145161290306 18.44758064516128  L 30.645161290322566 25  Z " fill-rule="evenodd" />
    </mask>
  </defs>
  <g>
    <path d="M 50 25  C 50 11.189516129032256  38.810483870967744 0  25 0  C 11.189516129032256 0  0 11.189516129032256  0 25  C 0 38.810483870967744  11.189516129032256 50  25 50  C 38.810483870967744 50  50 38.810483870967744  50 25  Z M 30.645161290322566 25  L 37.258064516129025 31.5625  C 37.731854838709694 32.03629032258067  37.731854838709694 32.80241935483872  37.258064516129025 33.27620967741933  L 33.26612903225805 37.258064516129025  C 32.79233870967744 37.731854838709694  32.02620967741933 37.731854838709694  31.55241935483872 37.258064516129025  L 25 30.645161290322566  L 18.4375 37.258064516129025  C 17.96370967741933 37.731854838709694  17.19758064516128 37.731854838709694  16.72379032258067 37.258064516129025  L 12.741935483870975 33.26612903225805  C 12.268145161290306 32.79233870967744  12.268145161290306 32.02620967741933  12.741935483870975 31.55241935483872  L 19.354838709677438 25  L 12.741935483870975 18.4375  C 12.268145161290306 17.96370967741933  12.268145161290306 17.19758064516128  12.741935483870975 16.72379032258067  L 16.73387096774195 12.731854838709694  C 17.207661290322562 12.258064516129025  17.97379032258067 12.258064516129025  18.44758064516128 12.731854838709694  L 25 19.354838709677438  L 31.5625 12.741935483870975  C 32.03629032258067 12.268145161290306  32.80241935483872 12.268145161290306  33.27620967741933 12.741935483870975  L 37.268145161290306 16.73387096774195  C 37.741935483870975 17.207661290322562  37.741935483870975 17.97379032258067  37.268145161290306 18.44758064516128  L 30.645161290322566 25  Z " fill-rule="nonzero" fill="rgba(0, 0, 0, 1)" stroke="none" class="fill" />
    <path d="M 50 25  C 50 11.189516129032256  38.810483870967744 0  25 0  C 11.189516129032256 0  0 11.189516129032256  0 25  C 0 38.810483870967744  11.189516129032256 50  25 50  C 38.810483870967744 50  50 38.810483870967744  50 25  Z " stroke-width="0" stroke-dasharray="0" stroke="rgba(255, 255, 255, 0)" fill="none" class="stroke" mask="url(#Clip2070)" />
    <path d="M 30.645161290322566 25  L 37.258064516129025 31.5625  C 37.731854838709694 32.03629032258067  37.731854838709694 32.80241935483872  37.258064516129025 33.27620967741933  L 33.26612903225805 37.258064516129025  C 32.79233870967744 37.731854838709694  32.02620967741933 37.731854838709694  31.55241935483872 37.258064516129025  L 25 30.645161290322566  L 18.4375 37.258064516129025  C 17.96370967741933 37.731854838709694  17.19758064516128 37.731854838709694  16.72379032258067 37.258064516129025  L 12.741935483870975 33.26612903225805  C 12.268145161290306 32.79233870967744  12.268145161290306 32.02620967741933  12.741935483870975 31.55241935483872  L 19.354838709677438 25  L 12.741935483870975 18.4375  C 12.268145161290306 17.96370967741933  12.268145161290306 17.19758064516128  12.741935483870975 16.72379032258067  L 16.73387096774195 12.731854838709694  C 17.207661290322562 12.258064516129025  17.97379032258067 12.258064516129025  18.44758064516128 12.731854838709694  L 25 19.354838709677438  L 31.5625 12.741935483870975  C 32.03629032258067 12.268145161290306  32.80241935483872 12.268145161290306  33.27620967741933 12.741935483870975  L 37.268145161290306 16.73387096774195  C 37.741935483870975 17.207661290322562  37.741935483870975 17.97379032258067  37.268145161290306 18.44758064516128  L 30.645161290322566 25  Z " stroke-width="0" stroke-dasharray="0" stroke="rgba(255, 255, 255, 0)" fill="none" class="stroke" mask="url(#Clip2070)" />
  </g>
</svg>