<?xml version="1.0" encoding="utf-8"?>
<svg version="1.1" xmlns:xlink="http://www.w3.org/1999/xlink" width="15px" height="22px" xmlns="http://www.w3.org/2000/svg">
  <defs>
    <pattern id="BGPattern" patternUnits="userSpaceOnUse" alignment="0 0" imageRepeat="None" />
    <mask fill="white" id="Clip3076">
      <path d="M 0.5 20.799999999999997  C 0.5 21.387499999999996  1.1812499999999986 21.7125  1.6437500000000007 21.35  L 14.106250000000003 11.549999999999997  C 14.274834906295553 11.417273807684943  14.373237298107782 11.214562608012507  14.373237298107782 10.999999999999993  C 14.373237298107782 10.785437391987479  14.274834906295546 10.582726192315054  14.106250000000003 10.449999999999996  L 1.6437500000000007 0.65625  C 1.1812500000000021 0.2875000000000014  0.5 0.6187499999999986  0.5 1.2062500000000007  L 0.5 20.799999999999997  Z " fill-rule="evenodd" />
    </mask>
  </defs>
  <g transform="matrix(1 0 0 1 -19 -14 )">
    <path d="M 0.5 20.799999999999997  C 0.5 21.387499999999996  1.1812499999999986 21.7125  1.6437500000000007 21.35  L 14.106250000000003 11.549999999999997  C 14.274834906295553 11.417273807684943  14.373237298107782 11.214562608012507  14.373237298107782 10.999999999999993  C 14.373237298107782 10.785437391987479  14.274834906295546 10.582726192315054  14.106250000000003 10.449999999999996  L 1.6437500000000007 0.65625  C 1.1812500000000021 0.2875000000000014  0.5 0.6187499999999986  0.5 1.2062500000000007  L 0.5 20.799999999999997  Z " fill-rule="nonzero" fill="rgba(51, 51, 51, 1)" stroke="none" transform="matrix(1 0 0 1 19 14 )" class="fill" />
    <path d="M 0.5 20.799999999999997  C 0.5 21.387499999999996  1.1812499999999986 21.7125  1.6437500000000007 21.35  L 14.106250000000003 11.549999999999997  C 14.274834906295553 11.417273807684943  14.373237298107782 11.214562608012507  14.373237298107782 10.999999999999993  C 14.373237298107782 10.785437391987479  14.274834906295546 10.582726192315054  14.106250000000003 10.449999999999996  L 1.6437500000000007 0.65625  C 1.1812500000000021 0.2875000000000014  0.5 0.6187499999999986  0.5 1.2062500000000007  L 0.5 20.799999999999997  Z " stroke-width="0" stroke-dasharray="0" stroke="rgba(255, 255, 255, 0)" fill="none" transform="matrix(1 0 0 1 19 14 )" class="stroke" mask="url(#Clip3076)" />
  </g>
</svg>