<?xml version="1.0" encoding="utf-8"?>
<svg version="1.1" xmlns:xlink="http://www.w3.org/1999/xlink" width="14px" height="14px" xmlns="http://www.w3.org/2000/svg">
  <defs>
    <pattern id="BGPattern" patternUnits="userSpaceOnUse" alignment="0 0" imageRepeat="None" />
    <mask fill="white" id="Clip3287">
      <path d="M 13.6 8.2  L 12.5 7.4  C 12.5 7.300000000000001  12.5 7.099999999999998  12.5 6.999999999999999  C 12.5 6.8999999999999995  12.5 6.699999999999999  12.5 6.599999999999999  L 13.5 5.799999999999999  C 13.9 5.499999999999999  13.9 4.899999999999999  13.7 4.5  L 12.5 2.4999999999999996  C 12.3 2.2  12 2  11.6 2  C 11.5 2  11.4 2  11.299999999999999 2.1  L 10.1 2.4999999999999996  C 9.9 2.3999999999999995  9.7 2.2  9.4 2.1  L 9.1 0.7999999999999999  C 9.1 0.3  8.7 0  8.2 0  L 5.8 0  C 5.3 0  4.8999999999999995 0.3  4.8 0.7999999999999999  L 4.6 2.1  C 4.3 2.2  4.1 2.3  3.9000000000000004 2.3999999999999995  L 2.7 2  C 2.6 2  2.5 2  2.4 2  C 2 2  1.7000000000000002 2.2  1.5 2.4999999999999996  L 0.30000000000000004 4.5  C 0.10000000000000009 4.8999999999999995  0.19999999999999996 5.3999999999999995  0.6000000000000001 5.799999999999999  L 1.5 6.699999999999999  C 1.5 6.799999999999999  1.5 6.999999999999999  1.5 7.099999999999998  C 1.5 7.1999999999999975  1.5 7.4  1.5 7.5  L 0.6000000000000001 8.2  C 0.20000000000000018 8.5  0.10000000000000009 9.099999999999998  0.40000000000000013 9.499999999999998  L 1.6 11.499999999999998  C 1.7000000000000002 11.799999999999999  2 11.999999999999998  2.4 11.999999999999998  C 2.5 11.999999999999998  2.6 11.999999999999998  2.6999999999999997 11.899999999999999  L 3.8999999999999995 11.499999999999998  C 4.1 11.599999999999998  4.3 11.799999999999999  4.6 11.899999999999999  L 4.8999999999999995 13.2  C 4.999999999999999 13.7  5.3999999999999995 14  5.8999999999999995 14  L 8.299999999999999 14  C 8.799999999999999 14  9.2 13.7  9.299999999999999 13.2  L 9.6 11.899999999999999  C 9.799999999999999 11.799999999999999  10 11.7  10.299999999999999 11.499999999999998  L 11.499999999999998 11.899999999999999  C 11.599999999999998 11.899999999999999  11.699999999999998 11.999999999999998  11.799999999999999 11.999999999999998  C 12.2 11.999999999999998  12.499999999999998 11.799999999999999  12.7 11.499999999999998  L 13.799999999999999 9.499999999999998  C 13.999999999999998 9.099999999999998  13.999999999999998 8.6  13.6 8.2  Z M 12.799999999999999 9  L 11.6 10.999999999999998  L 9.9 10.399999999999999  C 9.5 10.7  9 10.999999999999998  8.5 11.2  L 8.2 12.999999999999998  L 5.8 12.999999999999998  L 5.3999999999999995 11.199999999999998  C 4.8999999999999995 10.999999999999998  4.499999999999999 10.699999999999998  4 10.399999999999997  L 2.4 10.999999999999998  L 1.2000000000000002 9  L 2.6 7.800000000000001  C 2.5 7.300000000000001  2.5 6.7  2.6 6.2  L 1.2000000000000002 4.999999999999999  L 2.4000000000000004 2.9999999999999996  L 4.1000000000000005 3.5999999999999988  C 4.5 3.1999999999999997  5 2.9999999999999996  5.5 2.7999999999999994  L 5.8 1  L 8.2 1  L 8.6 2.7999999999999994  C 9.1 2.9999999999999996  9.5 3.2999999999999994  10 3.5999999999999988  L 11.6 2.9999999999999996  L 12.799999999999999 4.999999999999999  L 11.399999999999999 6.199999999999999  C 11.499999999999998 6.699999999999999  11.499999999999998 7.300000000000001  11.399999999999999 7.800000000000001  L 12.799999999999999 9  Z " fill-rule="evenodd" />
    </mask>
  </defs>
  <g transform="matrix(1 0 0 1 -1 -1 )">
    <path d="M 13.6 8.2  L 12.5 7.4  C 12.5 7.300000000000001  12.5 7.099999999999998  12.5 6.999999999999999  C 12.5 6.8999999999999995  12.5 6.699999999999999  12.5 6.599999999999999  L 13.5 5.799999999999999  C 13.9 5.499999999999999  13.9 4.899999999999999  13.7 4.5  L 12.5 2.4999999999999996  C 12.3 2.2  12 2  11.6 2  C 11.5 2  11.4 2  11.299999999999999 2.1  L 10.1 2.4999999999999996  C 9.9 2.3999999999999995  9.7 2.2  9.4 2.1  L 9.1 0.7999999999999999  C 9.1 0.3  8.7 0  8.2 0  L 5.8 0  C 5.3 0  4.8999999999999995 0.3  4.8 0.7999999999999999  L 4.6 2.1  C 4.3 2.2  4.1 2.3  3.9000000000000004 2.3999999999999995  L 2.7 2  C 2.6 2  2.5 2  2.4 2  C 2 2  1.7000000000000002 2.2  1.5 2.4999999999999996  L 0.30000000000000004 4.5  C 0.10000000000000009 4.8999999999999995  0.19999999999999996 5.3999999999999995  0.6000000000000001 5.799999999999999  L 1.5 6.699999999999999  C 1.5 6.799999999999999  1.5 6.999999999999999  1.5 7.099999999999998  C 1.5 7.1999999999999975  1.5 7.4  1.5 7.5  L 0.6000000000000001 8.2  C 0.20000000000000018 8.5  0.10000000000000009 9.099999999999998  0.40000000000000013 9.499999999999998  L 1.6 11.499999999999998  C 1.7000000000000002 11.799999999999999  2 11.999999999999998  2.4 11.999999999999998  C 2.5 11.999999999999998  2.6 11.999999999999998  2.6999999999999997 11.899999999999999  L 3.8999999999999995 11.499999999999998  C 4.1 11.599999999999998  4.3 11.799999999999999  4.6 11.899999999999999  L 4.8999999999999995 13.2  C 4.999999999999999 13.7  5.3999999999999995 14  5.8999999999999995 14  L 8.299999999999999 14  C 8.799999999999999 14  9.2 13.7  9.299999999999999 13.2  L 9.6 11.899999999999999  C 9.799999999999999 11.799999999999999  10 11.7  10.299999999999999 11.499999999999998  L 11.499999999999998 11.899999999999999  C 11.599999999999998 11.899999999999999  11.699999999999998 11.999999999999998  11.799999999999999 11.999999999999998  C 12.2 11.999999999999998  12.499999999999998 11.799999999999999  12.7 11.499999999999998  L 13.799999999999999 9.499999999999998  C 13.999999999999998 9.099999999999998  13.999999999999998 8.6  13.6 8.2  Z M 12.799999999999999 9  L 11.6 10.999999999999998  L 9.9 10.399999999999999  C 9.5 10.7  9 10.999999999999998  8.5 11.2  L 8.2 12.999999999999998  L 5.8 12.999999999999998  L 5.3999999999999995 11.199999999999998  C 4.8999999999999995 10.999999999999998  4.499999999999999 10.699999999999998  4 10.399999999999997  L 2.4 10.999999999999998  L 1.2000000000000002 9  L 2.6 7.800000000000001  C 2.5 7.300000000000001  2.5 6.7  2.6 6.2  L 1.2000000000000002 4.999999999999999  L 2.4000000000000004 2.9999999999999996  L 4.1000000000000005 3.5999999999999988  C 4.5 3.1999999999999997  5 2.9999999999999996  5.5 2.7999999999999994  L 5.8 1  L 8.2 1  L 8.6 2.7999999999999994  C 9.1 2.9999999999999996  9.5 3.2999999999999994  10 3.5999999999999988  L 11.6 2.9999999999999996  L 12.799999999999999 4.999999999999999  L 11.399999999999999 6.199999999999999  C 11.499999999999998 6.699999999999999  11.499999999999998 7.300000000000001  11.399999999999999 7.800000000000001  L 12.799999999999999 9  Z " fill-rule="nonzero" fill="rgba(0, 0, 0, 1)" stroke="none" transform="matrix(1 0 0 1 1 1 )" class="fill" />
    <path d="M 13.6 8.2  L 12.5 7.4  C 12.5 7.300000000000001  12.5 7.099999999999998  12.5 6.999999999999999  C 12.5 6.8999999999999995  12.5 6.699999999999999  12.5 6.599999999999999  L 13.5 5.799999999999999  C 13.9 5.499999999999999  13.9 4.899999999999999  13.7 4.5  L 12.5 2.4999999999999996  C 12.3 2.2  12 2  11.6 2  C 11.5 2  11.4 2  11.299999999999999 2.1  L 10.1 2.4999999999999996  C 9.9 2.3999999999999995  9.7 2.2  9.4 2.1  L 9.1 0.7999999999999999  C 9.1 0.3  8.7 0  8.2 0  L 5.8 0  C 5.3 0  4.8999999999999995 0.3  4.8 0.7999999999999999  L 4.6 2.1  C 4.3 2.2  4.1 2.3  3.9000000000000004 2.3999999999999995  L 2.7 2  C 2.6 2  2.5 2  2.4 2  C 2 2  1.7000000000000002 2.2  1.5 2.4999999999999996  L 0.30000000000000004 4.5  C 0.10000000000000009 4.8999999999999995  0.19999999999999996 5.3999999999999995  0.6000000000000001 5.799999999999999  L 1.5 6.699999999999999  C 1.5 6.799999999999999  1.5 6.999999999999999  1.5 7.099999999999998  C 1.5 7.1999999999999975  1.5 7.4  1.5 7.5  L 0.6000000000000001 8.2  C 0.20000000000000018 8.5  0.10000000000000009 9.099999999999998  0.40000000000000013 9.499999999999998  L 1.6 11.499999999999998  C 1.7000000000000002 11.799999999999999  2 11.999999999999998  2.4 11.999999999999998  C 2.5 11.999999999999998  2.6 11.999999999999998  2.6999999999999997 11.899999999999999  L 3.8999999999999995 11.499999999999998  C 4.1 11.599999999999998  4.3 11.799999999999999  4.6 11.899999999999999  L 4.8999999999999995 13.2  C 4.999999999999999 13.7  5.3999999999999995 14  5.8999999999999995 14  L 8.299999999999999 14  C 8.799999999999999 14  9.2 13.7  9.299999999999999 13.2  L 9.6 11.899999999999999  C 9.799999999999999 11.799999999999999  10 11.7  10.299999999999999 11.499999999999998  L 11.499999999999998 11.899999999999999  C 11.599999999999998 11.899999999999999  11.699999999999998 11.999999999999998  11.799999999999999 11.999999999999998  C 12.2 11.999999999999998  12.499999999999998 11.799999999999999  12.7 11.499999999999998  L 13.799999999999999 9.499999999999998  C 13.999999999999998 9.099999999999998  13.999999999999998 8.6  13.6 8.2  Z " stroke-width="0" stroke-dasharray="0" stroke="rgba(255, 255, 255, 0)" fill="none" transform="matrix(1 0 0 1 1 1 )" class="stroke" mask="url(#Clip3287)" />
    <path d="M 12.799999999999999 9  L 11.6 10.999999999999998  L 9.9 10.399999999999999  C 9.5 10.7  9 10.999999999999998  8.5 11.2  L 8.2 12.999999999999998  L 5.8 12.999999999999998  L 5.3999999999999995 11.199999999999998  C 4.8999999999999995 10.999999999999998  4.499999999999999 10.699999999999998  4 10.399999999999997  L 2.4 10.999999999999998  L 1.2000000000000002 9  L 2.6 7.800000000000001  C 2.5 7.300000000000001  2.5 6.7  2.6 6.2  L 1.2000000000000002 4.999999999999999  L 2.4000000000000004 2.9999999999999996  L 4.1000000000000005 3.5999999999999988  C 4.5 3.1999999999999997  5 2.9999999999999996  5.5 2.7999999999999994  L 5.8 1  L 8.2 1  L 8.6 2.7999999999999994  C 9.1 2.9999999999999996  9.5 3.2999999999999994  10 3.5999999999999988  L 11.6 2.9999999999999996  L 12.799999999999999 4.999999999999999  L 11.399999999999999 6.199999999999999  C 11.499999999999998 6.699999999999999  11.499999999999998 7.300000000000001  11.399999999999999 7.800000000000001  L 12.799999999999999 9  Z " stroke-width="0" stroke-dasharray="0" stroke="rgba(255, 255, 255, 0)" fill="none" transform="matrix(1 0 0 1 1 1 )" class="stroke" mask="url(#Clip3287)" />
  </g>
</svg>