<?xml version="1.0" encoding="utf-8"?>
<svg version="1.1" xmlns:xlink="http://www.w3.org/1999/xlink" width="15px" height="21px" xmlns="http://www.w3.org/2000/svg">
  <defs>
    <pattern id="BGPattern" patternUnits="userSpaceOnUse" alignment="0 0" imageRepeat="None" />
    <mask fill="white" id="Clip4853">
      <path d="M 3 0  C 1.928230458069443 2.7227202090490872E-05  0.9378847707923583 0.5718203491865504  0.40199999999999925 1.5  L 12 1.5  C 12.828427124746192 1.5  13.5 2.1715728752538097  13.5 3  L 13.5 20.652  L 13.834500000000002 20.874000000000002  C 13.957590782623434 20.955911053572557  14.10214624836399 20.999612566716735  14.250000100069705 20.999612566716735  C 14.66406236841991 20.999612566716735  14.999786104661197 20.664062213103417  15 20.25  L 15 3  C 15 1.3431457505076194  13.65685424949238 0  12 0  L 3 0  Z " fill-rule="evenodd" />
    </mask>
  </defs>
  <g transform="matrix(1 0 0 1 -3 0 )">
    <path d="M 3 0  C 1.928230458069443 2.7227202090490872E-05  0.9378847707923583 0.5718203491865504  0.40199999999999925 1.5  L 12 1.5  C 12.828427124746192 1.5  13.5 2.1715728752538097  13.5 3  L 13.5 20.652  L 13.834500000000002 20.874000000000002  C 13.957590782623434 20.955911053572557  14.10214624836399 20.999612566716735  14.250000100069705 20.999612566716735  C 14.66406236841991 20.999612566716735  14.999786104661197 20.664062213103417  15 20.25  L 15 3  C 15 1.3431457505076194  13.65685424949238 0  12 0  L 3 0  Z " fill-rule="nonzero" fill="rgba(0, 0, 0, 1)" stroke="none" transform="matrix(1 0 0 1 3 0 )" class="fill" />
    <path d="M 3 0  C 1.928230458069443 2.7227202090490872E-05  0.9378847707923583 0.5718203491865504  0.40199999999999925 1.5  L 12 1.5  C 12.828427124746192 1.5  13.5 2.1715728752538097  13.5 3  L 13.5 20.652  L 13.834500000000002 20.874000000000002  C 13.957590782623434 20.955911053572557  14.10214624836399 20.999612566716735  14.250000100069705 20.999612566716735  C 14.66406236841991 20.999612566716735  14.999786104661197 20.664062213103417  15 20.25  L 15 3  C 15 1.3431457505076194  13.65685424949238 0  12 0  L 3 0  Z " stroke-width="0" stroke-dasharray="0" stroke="rgba(255, 255, 255, 0)" fill="none" transform="matrix(1 0 0 1 3 0 )" class="stroke" mask="url(#Clip4853)" />
  </g>
</svg>