<?xml version="1.0" encoding="utf-8"?>
<svg version="1.1" xmlns:xlink="http://www.w3.org/1999/xlink" width="30px" height="30px" xmlns="http://www.w3.org/2000/svg">
  <defs>
    <pattern id="BGPattern" patternUnits="userSpaceOnUse" alignment="0 0" imageRepeat="None" />
    <mask fill="white" id="Clip514">
      <path d="M 21.896 20.199999999999996  L 29.048 27.352  C 29.319999999999997 27.624  29.4 27.896  29.4 28.2  C 29.4 28.503999999999998  29.304 28.808  29.048 29.048  C 28.808 29.272  28.503999999999998 29.4  28.2 29.4  C 27.912 29.4  27.624 29.32  27.352 29.048  L 20.2 21.895999999999997  C 18.119999999999997 23.575999999999997  15.48 24.599999999999998  12.6 24.599999999999998  C 5.976 24.599999999999998  0.5999999999999996 19.223999999999997  0.5999999999999996 12.599999999999998  C 0.5999999999999996 5.975999999999999  5.976 0.5999999999999979  12.6 0.5999999999999979  C 19.224 0.5999999999999979  24.6 5.975999999999998  24.6 12.599999999999998  C 24.6 15.479999999999997  23.576 18.119999999999997  21.896 20.199999999999996  Z M 3 12.6  C 3 17.896  7.304 22.2  12.6 22.2  C 17.896 22.2  22.2 17.896  22.2 12.6  C 22.2 7.3039999999999985  17.896 3  12.6 3  C 7.3039999999999985 3  3 7.304  3 12.6  Z " fill-rule="evenodd" />
    </mask>
  </defs>
  <g>
    <path d="M 21.896 20.199999999999996  L 29.048 27.352  C 29.319999999999997 27.624  29.4 27.896  29.4 28.2  C 29.4 28.503999999999998  29.304 28.808  29.048 29.048  C 28.808 29.272  28.503999999999998 29.4  28.2 29.4  C 27.912 29.4  27.624 29.32  27.352 29.048  L 20.2 21.895999999999997  C 18.119999999999997 23.575999999999997  15.48 24.599999999999998  12.6 24.599999999999998  C 5.976 24.599999999999998  0.5999999999999996 19.223999999999997  0.5999999999999996 12.599999999999998  C 0.5999999999999996 5.975999999999999  5.976 0.5999999999999979  12.6 0.5999999999999979  C 19.224 0.5999999999999979  24.6 5.975999999999998  24.6 12.599999999999998  C 24.6 15.479999999999997  23.576 18.119999999999997  21.896 20.199999999999996  Z M 3 12.6  C 3 17.896  7.304 22.2  12.6 22.2  C 17.896 22.2  22.2 17.896  22.2 12.6  C 22.2 7.3039999999999985  17.896 3  12.6 3  C 7.3039999999999985 3  3 7.304  3 12.6  Z " fill-rule="nonzero" fill="rgba(0, 0, 0, 1)" stroke="none" class="fill" />
    <path d="M 21.896 20.199999999999996  L 29.048 27.352  C 29.319999999999997 27.624  29.4 27.896  29.4 28.2  C 29.4 28.503999999999998  29.304 28.808  29.048 29.048  C 28.808 29.272  28.503999999999998 29.4  28.2 29.4  C 27.912 29.4  27.624 29.32  27.352 29.048  L 20.2 21.895999999999997  C 18.119999999999997 23.575999999999997  15.48 24.599999999999998  12.6 24.599999999999998  C 5.976 24.599999999999998  0.5999999999999996 19.223999999999997  0.5999999999999996 12.599999999999998  C 0.5999999999999996 5.975999999999999  5.976 0.5999999999999979  12.6 0.5999999999999979  C 19.224 0.5999999999999979  24.6 5.975999999999998  24.6 12.599999999999998  C 24.6 15.479999999999997  23.576 18.119999999999997  21.896 20.199999999999996  Z " stroke-width="0" stroke-dasharray="0" stroke="rgba(255, 255, 255, 0)" fill="none" class="stroke" mask="url(#Clip514)" />
    <path d="M 3 12.6  C 3 17.896  7.304 22.2  12.6 22.2  C 17.896 22.2  22.2 17.896  22.2 12.6  C 22.2 7.3039999999999985  17.896 3  12.6 3  C 7.3039999999999985 3  3 7.304  3 12.6  Z " stroke-width="0" stroke-dasharray="0" stroke="rgba(255, 255, 255, 0)" fill="none" class="stroke" mask="url(#Clip514)" />
  </g>
</svg>