<?xml version="1.0" encoding="utf-8"?>
<svg version="1.1" xmlns:xlink="http://www.w3.org/1999/xlink" width="50px" height="50px" xmlns="http://www.w3.org/2000/svg">
  <defs>
    <pattern id="BGPattern" patternUnits="userSpaceOnUse" alignment="0 0" imageRepeat="None" />
    <mask fill="white" id="Clip1561">
      <path d="M 49.21510721247563 3.993274853801182  C 50.68430799220272 2.5239766081871267  49.64307992202731 0  47.561013645224165 0  L 2.341910331384014 0  C 0.2641325536062311 0  -0.7843079922027414 2.5210526315789537  0.6879142300194871 3.993274853801182  L 19 22.021539961013644  L 19 42.10526315789474  C 18.713450292397653 42.86851851851853  19.085867446393763 43.583820662768034  19.711208576998047 44.02163742690058  L 27.508479532163733 49.47777777777776  C 29.046783625730992 50.55458089668616  31.189083820662773 49.463255360623776  31 47.561403508771946  L 31 22.021539961013644  L 49.21510721247563 3.993274853801182  Z " fill-rule="evenodd" />
    </mask>
  </defs>
  <g>
    <path d="M 49.21510721247563 3.993274853801182  C 50.68430799220272 2.5239766081871267  49.64307992202731 0  47.561013645224165 0  L 2.341910331384014 0  C 0.2641325536062311 0  -0.7843079922027414 2.5210526315789537  0.6879142300194871 3.993274853801182  L 19 22.021539961013644  L 19 42.10526315789474  C 18.713450292397653 42.86851851851853  19.085867446393763 43.583820662768034  19.711208576998047 44.02163742690058  L 27.508479532163733 49.47777777777776  C 29.046783625730992 50.55458089668616  31.189083820662773 49.463255360623776  31 47.561403508771946  L 31 22.021539961013644  L 49.21510721247563 3.993274853801182  Z " fill-rule="nonzero" fill="rgba(0, 0, 0, 1)" stroke="none" class="fill" />
    <path d="M 49.21510721247563 3.993274853801182  C 50.68430799220272 2.5239766081871267  49.64307992202731 0  47.561013645224165 0  L 2.341910331384014 0  C 0.2641325536062311 0  -0.7843079922027414 2.5210526315789537  0.6879142300194871 3.993274853801182  L 19 22.021539961013644  L 19 42.10526315789474  C 18.713450292397653 42.86851851851853  19.085867446393763 43.583820662768034  19.711208576998047 44.02163742690058  L 27.508479532163733 49.47777777777776  C 29.046783625730992 50.55458089668616  31.189083820662773 49.463255360623776  31 47.561403508771946  L 31 22.021539961013644  L 49.21510721247563 3.993274853801182  Z " stroke-width="0" stroke-dasharray="0" stroke="rgba(255, 255, 255, 0)" fill="none" class="stroke" mask="url(#Clip1561)" />
  </g>
</svg>