<?xml version="1.0" encoding="utf-8"?>
<svg version="1.1" xmlns:xlink="http://www.w3.org/1999/xlink" width="48px" height="48px" xmlns="http://www.w3.org/2000/svg">
  <defs>
    <pattern id="BGPattern" patternUnits="userSpaceOnUse" alignment="0 0" imageRepeat="None" />
    <mask fill="white" id="Clip7237">
      <path d="M 1.4719999999999978 27.216  L 3.152 28.896  L 15.798000000000002 16.028  L 19.096000000000004 12.671999999999997  C 21.764055848652657 10.015161178183048  26.077944151347353 10.015161178183048  28.746000000000002 12.671999999999997  L 31.964000000000002 15.887999999999998  L 44.83 28.756  L 46.51 27.076  C 48.327999999999996 25.397999999999996  48.327999999999996 22.602  46.65 20.784  L 27.206000000000003 1.484  C 25.386 -0.3360000000000001  22.59 -0.3360000000000001  20.772 1.484  L 1.4719999999999978 20.784  C -0.3480000000000023 22.602  -0.3480000000000023 25.397999999999996  1.4719999999999978 27.216  Z M 46.648 33.65  L 27.208000000000006 14.350000000000001  C 25.388 12.530000000000001  22.592000000000002 12.530000000000001  20.774 14.350000000000001  L 4.690000000000001 30.434000000000005  L 1.474000000000001 33.65  C -0.345999999999999 35.47  -0.345999999999999 38.266  1.474000000000001 40.083999999999996  L 7.906000000000002 46.517999999999994  C 9.726 48.336  12.522000000000002 48.336  14.34 46.517999999999994  L 23.990000000000002 36.86599999999999  L 33.642 46.517999999999994  C 35.46 48.336  38.256 48.336  40.074000000000005 46.517999999999994  L 46.508 40.083999999999996  C 48.328 38.406  48.328 35.467999999999996  46.648 33.65  Z " fill-rule="evenodd" />
    </mask>
  </defs>
  <g>
    <path d="M 1.4719999999999978 27.216  L 3.152 28.896  L 15.798000000000002 16.028  L 19.096000000000004 12.671999999999997  C 21.764055848652657 10.015161178183048  26.077944151347353 10.015161178183048  28.746000000000002 12.671999999999997  L 31.964000000000002 15.887999999999998  L 44.83 28.756  L 46.51 27.076  C 48.327999999999996 25.397999999999996  48.327999999999996 22.602  46.65 20.784  L 27.206000000000003 1.484  C 25.386 -0.3360000000000001  22.59 -0.3360000000000001  20.772 1.484  L 1.4719999999999978 20.784  C -0.3480000000000023 22.602  -0.3480000000000023 25.397999999999996  1.4719999999999978 27.216  Z M 46.648 33.65  L 27.208000000000006 14.350000000000001  C 25.388 12.530000000000001  22.592000000000002 12.530000000000001  20.774 14.350000000000001  L 4.690000000000001 30.434000000000005  L 1.474000000000001 33.65  C -0.345999999999999 35.47  -0.345999999999999 38.266  1.474000000000001 40.083999999999996  L 7.906000000000002 46.517999999999994  C 9.726 48.336  12.522000000000002 48.336  14.34 46.517999999999994  L 23.990000000000002 36.86599999999999  L 33.642 46.517999999999994  C 35.46 48.336  38.256 48.336  40.074000000000005 46.517999999999994  L 46.508 40.083999999999996  C 48.328 38.406  48.328 35.467999999999996  46.648 33.65  Z " fill-rule="nonzero" fill="rgba(131, 218, 119, 1)" stroke="none" class="fill" />
    <path d="M 1.4719999999999978 27.216  L 3.152 28.896  L 15.798000000000002 16.028  L 19.096000000000004 12.671999999999997  C 21.764055848652657 10.015161178183048  26.077944151347353 10.015161178183048  28.746000000000002 12.671999999999997  L 31.964000000000002 15.887999999999998  L 44.83 28.756  L 46.51 27.076  C 48.327999999999996 25.397999999999996  48.327999999999996 22.602  46.65 20.784  L 27.206000000000003 1.484  C 25.386 -0.3360000000000001  22.59 -0.3360000000000001  20.772 1.484  L 1.4719999999999978 20.784  C -0.3480000000000023 22.602  -0.3480000000000023 25.397999999999996  1.4719999999999978 27.216  Z " stroke-width="0" stroke-dasharray="0" stroke="rgba(255, 255, 255, 0)" fill="none" class="stroke" mask="url(#Clip7237)" />
    <path d="M 46.648 33.65  L 27.208000000000006 14.350000000000001  C 25.388 12.530000000000001  22.592000000000002 12.530000000000001  20.774 14.350000000000001  L 4.690000000000001 30.434000000000005  L 1.474000000000001 33.65  C -0.345999999999999 35.47  -0.345999999999999 38.266  1.474000000000001 40.083999999999996  L 7.906000000000002 46.517999999999994  C 9.726 48.336  12.522000000000002 48.336  14.34 46.517999999999994  L 23.990000000000002 36.86599999999999  L 33.642 46.517999999999994  C 35.46 48.336  38.256 48.336  40.074000000000005 46.517999999999994  L 46.508 40.083999999999996  C 48.328 38.406  48.328 35.467999999999996  46.648 33.65  Z " stroke-width="0" stroke-dasharray="0" stroke="rgba(255, 255, 255, 0)" fill="none" class="stroke" mask="url(#Clip7237)" />
  </g>
</svg>