<?xml version="1.0" encoding="utf-8"?>
<svg version="1.1" xmlns:xlink="http://www.w3.org/1999/xlink" width="50px" height="50px" xmlns="http://www.w3.org/2000/svg">
  <defs>
    <pattern id="BGPattern" patternUnits="userSpaceOnUse" alignment="0 0" imageRepeat="None" />
    <mask fill="white" id="Clip1180">
      <path d="M 50 25  C 50 11.189516129032256  38.810483870967744 0  25 0  C 11.189516129032258 0  0 11.189516129032256  0 25  C 0 38.810483870967744  11.189516129032258 50  25 50  C 38.810483870967744 50  50 38.810483870967744  50 25  Z M 45.16129032258064 25  C 45.16129032258064 36.11895161290323  36.118951612903224 45.16129032258064  25 45.16129032258064  C 13.881048387096772 45.16129032258064  4.838709677419356 36.11895161290323  4.838709677419356 25  C 4.838709677419356 13.88104838709677  13.881048387096772 4.838709677419359  25 4.838709677419359  C 36.118951612903224 4.838709677419359  45.16129032258064 13.88104838709677  45.16129032258064 25  Z M 20.161290322580644 20.16129032258064  C 20.161290322580644 18.377016129032256  18.719758064516128 16.935483870967744  16.93548387096774 16.935483870967744  C 15.151209677419356 16.935483870967744  13.709677419354838 18.377016129032256  13.709677419354838 20.16129032258064  C 13.709677419354838 21.945564516129025  15.151209677419356 23.387096774193537  16.93548387096774 23.387096774193537  C 18.719758064516128 23.387096774193537  20.161290322580644 21.945564516129025  20.161290322580644 20.16129032258064  Z M 36.29032258064516 20.16129032258064  C 36.29032258064516 18.377016129032256  34.84879032258064 16.935483870967744  33.064516129032256 16.935483870967744  C 31.280241935483872 16.935483870967744  29.838709677419356 18.377016129032256  29.838709677419356 20.16129032258064  C 29.838709677419356 21.945564516129025  31.280241935483872 23.387096774193537  33.064516129032256 23.387096774193537  C 34.84879032258064 23.387096774193537  36.29032258064516 21.945564516129025  36.29032258064516 20.16129032258064  Z " fill-rule="evenodd" />
    </mask>
  </defs>
  <g>
    <path d="M 50 25  C 50 11.189516129032256  38.810483870967744 0  25 0  C 11.189516129032258 0  0 11.189516129032256  0 25  C 0 38.810483870967744  11.189516129032258 50  25 50  C 38.810483870967744 50  50 38.810483870967744  50 25  Z M 45.16129032258064 25  C 45.16129032258064 36.11895161290323  36.118951612903224 45.16129032258064  25 45.16129032258064  C 13.881048387096772 45.16129032258064  4.838709677419356 36.11895161290323  4.838709677419356 25  C 4.838709677419356 13.88104838709677  13.881048387096772 4.838709677419359  25 4.838709677419359  C 36.118951612903224 4.838709677419359  45.16129032258064 13.88104838709677  45.16129032258064 25  Z M 20.161290322580644 20.16129032258064  C 20.161290322580644 18.377016129032256  18.719758064516128 16.935483870967744  16.93548387096774 16.935483870967744  C 15.151209677419356 16.935483870967744  13.709677419354838 18.377016129032256  13.709677419354838 20.16129032258064  C 13.709677419354838 21.945564516129025  15.151209677419356 23.387096774193537  16.93548387096774 23.387096774193537  C 18.719758064516128 23.387096774193537  20.161290322580644 21.945564516129025  20.161290322580644 20.16129032258064  Z M 36.29032258064516 20.16129032258064  C 36.29032258064516 18.377016129032256  34.84879032258064 16.935483870967744  33.064516129032256 16.935483870967744  C 31.280241935483872 16.935483870967744  29.838709677419356 18.377016129032256  29.838709677419356 20.16129032258064  C 29.838709677419356 21.945564516129025  31.280241935483872 23.387096774193537  33.064516129032256 23.387096774193537  C 34.84879032258064 23.387096774193537  36.29032258064516 21.945564516129025  36.29032258064516 20.16129032258064  Z " fill-rule="nonzero" fill="rgba(0, 0, 0, 1)" stroke="none" class="fill" />
    <path d="M 50 25  C 50 11.189516129032256  38.810483870967744 0  25 0  C 11.189516129032258 0  0 11.189516129032256  0 25  C 0 38.810483870967744  11.189516129032258 50  25 50  C 38.810483870967744 50  50 38.810483870967744  50 25  Z " stroke-width="0" stroke-dasharray="0" stroke="rgba(255, 255, 255, 0)" fill="none" class="stroke" mask="url(#Clip1180)" />
    <path d="M 45.16129032258064 25  C 45.16129032258064 36.11895161290323  36.118951612903224 45.16129032258064  25 45.16129032258064  C 13.881048387096772 45.16129032258064  4.838709677419356 36.11895161290323  4.838709677419356 25  C 4.838709677419356 13.88104838709677  13.881048387096772 4.838709677419359  25 4.838709677419359  C 36.118951612903224 4.838709677419359  45.16129032258064 13.88104838709677  45.16129032258064 25  Z " stroke-width="0" stroke-dasharray="0" stroke="rgba(255, 255, 255, 0)" fill="none" class="stroke" mask="url(#Clip1180)" />
    <path d="M 20.161290322580644 20.16129032258064  C 20.161290322580644 18.377016129032256  18.719758064516128 16.935483870967744  16.93548387096774 16.935483870967744  C 15.151209677419356 16.935483870967744  13.709677419354838 18.377016129032256  13.709677419354838 20.16129032258064  C 13.709677419354838 21.945564516129025  15.151209677419356 23.387096774193537  16.93548387096774 23.387096774193537  C 18.719758064516128 23.387096774193537  20.161290322580644 21.945564516129025  20.161290322580644 20.16129032258064  Z " stroke-width="0" stroke-dasharray="0" stroke="rgba(255, 255, 255, 0)" fill="none" class="stroke" mask="url(#Clip1180)" />
    <path d="M 36.29032258064516 20.16129032258064  C 36.29032258064516 18.377016129032256  34.84879032258064 16.935483870967744  33.064516129032256 16.935483870967744  C 31.280241935483872 16.935483870967744  29.838709677419356 18.377016129032256  29.838709677419356 20.16129032258064  C 29.838709677419356 21.945564516129025  31.280241935483872 23.387096774193537  33.064516129032256 23.387096774193537  C 34.84879032258064 23.387096774193537  36.29032258064516 21.945564516129025  36.29032258064516 20.16129032258064  Z " stroke-width="0" stroke-dasharray="0" stroke="rgba(255, 255, 255, 0)" fill="none" class="stroke" mask="url(#Clip1180)" />
  </g>
</svg>