<?xml version="1.0" encoding="utf-8"?>
<svg version="1.1" xmlns:xlink="http://www.w3.org/1999/xlink" width="24px" height="10px" xmlns="http://www.w3.org/2000/svg">
  <defs>
    <pattern id="BGPattern" patternUnits="userSpaceOnUse" alignment="0 0" imageRepeat="None" />
    <mask fill="white" id="Clip5322">
      <path d="M 22.5 0.5  L 1.5 0.5  C 0.6715728752538098 0.5  0 1.1715728752538102  0 2  L 0 6.786499999999998  C 0.00030332725370387864 7.354498565594138  0.321405882697706 7.873604685968353  0.8295000000000001 8.127499999999998  L 3.2565000000000004 9.342500000000001  C 3.4647583632427903 9.446295788783836  3.694309079467422 9.500217097964121  3.9270000000000005 9.5  L 22.5 9.5  C 23.32842712474619 9.5  24 8.82842712474619  24 8  L 24 2  C 24 1.1715728752538102  23.32842712474619 0.5  22.5 0.5  Z M 1.5 6.7865  L 1.5 2  L 22.5 2  L 22.5 8  L 3.9269999999999996 8  L 1.5 6.7865  Z " fill-rule="evenodd" />
    </mask>
  </defs>
  <g>
    <path d="M 22.5 0.5  L 1.5 0.5  C 0.6715728752538098 0.5  0 1.1715728752538102  0 2  L 0 6.786499999999998  C 0.00030332725370387864 7.354498565594138  0.321405882697706 7.873604685968353  0.8295000000000001 8.127499999999998  L 3.2565000000000004 9.342500000000001  C 3.4647583632427903 9.446295788783836  3.694309079467422 9.500217097964121  3.9270000000000005 9.5  L 22.5 9.5  C 23.32842712474619 9.5  24 8.82842712474619  24 8  L 24 2  C 24 1.1715728752538102  23.32842712474619 0.5  22.5 0.5  Z M 1.5 6.7865  L 1.5 2  L 22.5 2  L 22.5 8  L 3.9269999999999996 8  L 1.5 6.7865  Z " fill-rule="nonzero" fill="rgba(0, 0, 0, 1)" stroke="none" class="fill" />
    <path d="M 22.5 0.5  L 1.5 0.5  C 0.6715728752538098 0.5  0 1.1715728752538102  0 2  L 0 6.786499999999998  C 0.00030332725370387864 7.354498565594138  0.321405882697706 7.873604685968353  0.8295000000000001 8.127499999999998  L 3.2565000000000004 9.342500000000001  C 3.4647583632427903 9.446295788783836  3.694309079467422 9.500217097964121  3.9270000000000005 9.5  L 22.5 9.5  C 23.32842712474619 9.5  24 8.82842712474619  24 8  L 24 2  C 24 1.1715728752538102  23.32842712474619 0.5  22.5 0.5  Z " stroke-width="0" stroke-dasharray="0" stroke="rgba(255, 255, 255, 0)" fill="none" class="stroke" mask="url(#Clip5322)" />
    <path d="M 1.5 6.7865  L 1.5 2  L 22.5 2  L 22.5 8  L 3.9269999999999996 8  L 1.5 6.7865  Z " stroke-width="0" stroke-dasharray="0" stroke="rgba(255, 255, 255, 0)" fill="none" class="stroke" mask="url(#Clip5322)" />
  </g>
</svg>