<?xml version="1.0" encoding="utf-8"?>
<svg version="1.1" xmlns:xlink="http://www.w3.org/1999/xlink" width="26px" height="26px" xmlns="http://www.w3.org/2000/svg">
  <defs>
    <pattern id="BGPattern" patternUnits="userSpaceOnUse" alignment="0 0" imageRepeat="None" />
    <mask fill="white" id="Clip5900">
      <path d="M 12.989774448468712 2.499999999999999  C 12.094784421214143 2.499999999999999  11.203466779227883 2.6144276970550857  10.337499999999999 2.8405  C 14.255674312491756 4.706650764481201  16.751031876249794 8.660114338594228  16.75 13  C 16.751031876249794 17.33988566140577  14.255674312491756 21.2933492355188  10.337499999999999 23.1595  C 11.203466779227883 23.385572302944915  12.094784421214143 23.5  12.989774448468712 23.5  C 18.788764321692042 23.5  23.489774448468715 18.79898987322333  23.489774448468715 13  C 23.489774448468715 7.201010126776668  18.788764321692042 2.499999999999999  12.989774448468712 2.499999999999999  Z M 7.279000000000001 2.4459999999999997  L 7.280499999999999 2.449  C 9.036797631725396 1.496886698616136  11.002975961256803 0.9982215944931018  13.00075 0.9982215944931018  C 19.629563397772372 0.9982215944931018  25.003278405506897 6.371936602227631  25.003278405506897 13.00075  C 25.003278405506897 17.404100163047783  22.592105196603548 21.453920190880996  18.721 23.552500000000002  C 16.964469226937247 24.504729176101392  14.998034224065039 25.003454536848743  13 25.003454536848743  C 6.3702609004488195 25.003454536848743  0.9957954631512544 19.62898909955118  0.9957954631512544 12.99925  C 0.9957954631512544 8.595265003859254  3.407326994274709 4.5448644508330975  7.279000000000001 2.4459999999999997  Z " fill-rule="evenodd" />
    </mask>
  </defs>
  <g>
    <path d="M 12.989774448468712 2.499999999999999  C 12.094784421214143 2.499999999999999  11.203466779227883 2.6144276970550857  10.337499999999999 2.8405  C 14.255674312491756 4.706650764481201  16.751031876249794 8.660114338594228  16.75 13  C 16.751031876249794 17.33988566140577  14.255674312491756 21.2933492355188  10.337499999999999 23.1595  C 11.203466779227883 23.385572302944915  12.094784421214143 23.5  12.989774448468712 23.5  C 18.788764321692042 23.5  23.489774448468715 18.79898987322333  23.489774448468715 13  C 23.489774448468715 7.201010126776668  18.788764321692042 2.499999999999999  12.989774448468712 2.499999999999999  Z M 7.279000000000001 2.4459999999999997  L 7.280499999999999 2.449  C 9.036797631725396 1.496886698616136  11.002975961256803 0.9982215944931018  13.00075 0.9982215944931018  C 19.629563397772372 0.9982215944931018  25.003278405506897 6.371936602227631  25.003278405506897 13.00075  C 25.003278405506897 17.404100163047783  22.592105196603548 21.453920190880996  18.721 23.552500000000002  C 16.964469226937247 24.504729176101392  14.998034224065039 25.003454536848743  13 25.003454536848743  C 6.3702609004488195 25.003454536848743  0.9957954631512544 19.62898909955118  0.9957954631512544 12.99925  C 0.9957954631512544 8.595265003859254  3.407326994274709 4.5448644508330975  7.279000000000001 2.4459999999999997  Z " fill-rule="nonzero" fill="rgba(0, 0, 0, 1)" stroke="none" class="fill" />
    <path d="M 12.989774448468712 2.499999999999999  C 12.094784421214143 2.499999999999999  11.203466779227883 2.6144276970550857  10.337499999999999 2.8405  C 14.255674312491756 4.706650764481201  16.751031876249794 8.660114338594228  16.75 13  C 16.751031876249794 17.33988566140577  14.255674312491756 21.2933492355188  10.337499999999999 23.1595  C 11.203466779227883 23.385572302944915  12.094784421214143 23.5  12.989774448468712 23.5  C 18.788764321692042 23.5  23.489774448468715 18.79898987322333  23.489774448468715 13  C 23.489774448468715 7.201010126776668  18.788764321692042 2.499999999999999  12.989774448468712 2.499999999999999  Z " stroke-width="0" stroke-dasharray="0" stroke="rgba(255, 255, 255, 0)" fill="none" class="stroke" mask="url(#Clip5900)" />
    <path d="M 7.279000000000001 2.4459999999999997  L 7.280499999999999 2.449  C 9.036797631725396 1.496886698616136  11.002975961256803 0.9982215944931018  13.00075 0.9982215944931018  C 19.629563397772372 0.9982215944931018  25.003278405506897 6.371936602227631  25.003278405506897 13.00075  C 25.003278405506897 17.404100163047783  22.592105196603548 21.453920190880996  18.721 23.552500000000002  C 16.964469226937247 24.504729176101392  14.998034224065039 25.003454536848743  13 25.003454536848743  C 6.3702609004488195 25.003454536848743  0.9957954631512544 19.62898909955118  0.9957954631512544 12.99925  C 0.9957954631512544 8.595265003859254  3.407326994274709 4.5448644508330975  7.279000000000001 2.4459999999999997  Z " stroke-width="0" stroke-dasharray="0" stroke="rgba(255, 255, 255, 0)" fill="none" class="stroke" mask="url(#Clip5900)" />
  </g>
</svg>