<?xml version="1.0" encoding="utf-8"?>
<svg version="1.1" xmlns:xlink="http://www.w3.org/1999/xlink" width="12px" height="9px" xmlns="http://www.w3.org/2000/svg">
  <defs>
    <pattern id="BGPattern" patternUnits="userSpaceOnUse" alignment="0 0" imageRepeat="None" />
    <mask fill="white" id="Clip3333">
      <path d="M 11.600000000000001 1.4000000000000021  L 4.4 8.3  L 0.5 4.4  L 1.7999999999999998 3.200000000000001  L 4.5 5.900000000000002  L 10.3 0.10000000000000142  L 11.600000000000001 1.4000000000000021  Z " fill-rule="evenodd" />
    </mask>
  </defs>
  <g transform="matrix(1 0 0 1 -6 -8 )">
    <path d="M 11.600000000000001 1.4000000000000021  L 4.4 8.3  L 0.5 4.4  L 1.7999999999999998 3.200000000000001  L 4.5 5.900000000000002  L 10.3 0.10000000000000142  L 11.600000000000001 1.4000000000000021  Z " fill-rule="nonzero" fill="rgba(255, 255, 255, 0)" stroke="none" transform="matrix(1 0 0 1 6 8 )" class="fill" />
    <path d="M 11.600000000000001 1.4000000000000021  L 4.4 8.3  L 0.5 4.4  L 1.7999999999999998 3.200000000000001  L 4.5 5.900000000000002  L 10.3 0.10000000000000142  L 11.600000000000001 1.4000000000000021  Z " stroke-width="0" stroke-dasharray="0" stroke="rgba(255, 255, 255, 0)" fill="none" transform="matrix(1 0 0 1 6 8 )" class="stroke" mask="url(#Clip3333)" />
  </g>
</svg>