<?xml version="1.0" encoding="utf-8"?>
<svg version="1.1" xmlns:xlink="http://www.w3.org/1999/xlink" width="49px" height="31px" xmlns="http://www.w3.org/2000/svg">
  <defs>
    <pattern id="BGPattern" patternUnits="userSpaceOnUse" alignment="0 0" imageRepeat="None" />
    <mask fill="white" id="Clip7379">
      <path d="M 48 9.207999999999998  L 42.966 27.616  L 12.112000000000002 19.17  L 17.152 0.7680000000000007  L 48 9.207999999999998  Z M 16.14 16.876  L 16.138 16.875999999999998  L 40.664 23.583999999999996  L 43.972 11.517999999999994  L 19.44 4.800000000000001  L 16.14 16.868000000000002  L 16.14 16.876  Z " fill-rule="evenodd" />
    </mask>
  </defs>
  <g>
    <path d="M 48 9.207999999999998  L 42.966 27.616  L 12.112000000000002 19.17  L 17.152 0.7680000000000007  L 48 9.207999999999998  Z M 16.14 16.876  L 16.138 16.875999999999998  L 40.664 23.583999999999996  L 43.972 11.517999999999994  L 19.44 4.800000000000001  L 16.14 16.868000000000002  L 16.14 16.876  Z M 23.312 24.299999999999997  L 17.052 22.59  L 7.27 25.212000000000003  L 4.02 13.122000000000003  L 12.312000000000001 10.902000000000005  L 13.314 7.232000000000006  L 0 10.803999999999998  L 4.956 29.233999999999995  L 23.312 24.299999999999997  Z " fill-rule="nonzero" fill="rgba(255, 136, 15, 1)" stroke="none" class="fill" />
    <path d="M 48 9.207999999999998  L 42.966 27.616  L 12.112000000000002 19.17  L 17.152 0.7680000000000007  L 48 9.207999999999998  Z " stroke-width="0" stroke-dasharray="0" stroke="rgba(255, 255, 255, 0)" fill="none" class="stroke" mask="url(#Clip7379)" />
    <path d="M 16.14 16.876  L 16.138 16.875999999999998  L 40.664 23.583999999999996  L 43.972 11.517999999999994  L 19.44 4.800000000000001  L 16.14 16.868000000000002  L 16.14 16.876  Z " stroke-width="0" stroke-dasharray="0" stroke="rgba(255, 255, 255, 0)" fill="none" class="stroke" mask="url(#Clip7379)" />
    <path d="M 17.052 22.59  L 7.27 25.212000000000003  L 4.02 13.122000000000003  L 12.312000000000001 10.902000000000005  L 13.314 7.232000000000006  L 0 10.803999999999998  L 4.956 29.233999999999995  L 23.312 24.299999999999997  " stroke-width="0" stroke-dasharray="0" stroke="rgba(255, 255, 255, 0)" fill="none" class="stroke" />
  </g>
</svg>