<?xml version="1.0" encoding="utf-8"?>
<svg version="1.1" xmlns:xlink="http://www.w3.org/1999/xlink" width="56px" height="56px" xmlns="http://www.w3.org/2000/svg">
  <defs>
    <pattern id="BGPattern" patternUnits="userSpaceOnUse" alignment="0 0" imageRepeat="None" />
    <mask fill="white" id="Clip2365">
      <path d="M 56 28  C 56 12.537500000000001  43.4625 0  28 0  C 12.537500000000001 0  0 12.537500000000001  0 28  C 0 43.4625  12.537500000000001 56  28 56  C 43.4625 56  56 43.4625  56 28  Z M 18.59375 29.112500000000008  L 18.59375 32.2625  C 18.59375 34  17.1875 35.4125  15.449999999999998 35.4125  C 14.618749999999999 35.4125  13.818749999999998 35.081250000000004  13.224999999999998 34.487500000000004  C 12.6375 33.893750000000004  12.306249999999999 33.09375000000001  12.306249999999999 32.2625  C 12.306249999999999 30.525000000000006  13.712499999999999 29.112500000000008  15.449999999999998 29.112500000000008  L 18.59375 29.112500000000008  Z M 26.96875 32.2625  L 26.96875 40.6625  C 26.96875 42.4  25.5625 43.8125  23.825 43.8125  C 22.0875 43.8125  20.68125 42.4  20.68125 40.6625  L 20.68125 32.2625  C 20.68125 30.525000000000006  22.0875 29.112500000000008  23.825 29.112500000000008  C 24.65625 29.112500000000008  25.45625 29.443749999999998  26.05 30.0375  C 26.64375 30.63125  26.96875 31.43125  26.96875 32.2625  Z M 26.975 23.862500000000004  C 26.96875 25.606250000000003  25.5625 27.012500000000003  23.83125 27.012500000000003  L 15.45625 27.012500000000003  C 13.71875 27.012500000000003  12.3125 25.6  12.3125 23.862500000000004  C 12.3125 22.125000000000004  13.71875 20.712500000000006  15.45625 20.712500000000006  L 23.83125 20.712500000000006  C 25.56875 20.712500000000006  26.975 22.125000000000007  26.975 23.862500000000004  Z M 26.975 18.612499999999997  L 23.83125 18.612500000000004  C 23 18.612500000000004  22.2 18.281250000000004  21.60625 17.687500000000004  C 21.0125 17.093750000000004  20.6875 16.3  20.6875 15.462499999999999  C 20.6875 13.724999999999998  22.09375 12.3125  23.83125 12.3125  C 25.56875 12.3125  26.975 13.725000000000001  26.975 15.462499999999999  L 26.975 18.612499999999997  Z M 29.0625 23.862500000000004  L 29.0625 15.462500000000006  C 29.0625 13.725000000000005  30.46875 12.312500000000007  32.20625 12.312500000000007  C 33.943749999999994 12.312500000000007  35.349999999999994 13.725000000000009  35.349999999999994 15.462500000000006  L 35.349999999999994 23.862500000000004  C 35.349999999999994 25.600000000000005  33.943749999999994 27.012500000000003  32.20625 27.012500000000003  C 30.46875 27.012500000000003  29.0625 25.6  29.0625 23.862500000000004  Z M 35.349999999999994 40.6625  C 35.349999999999994 42.4  33.943749999999994 43.8125  32.20625 43.8125  C 30.46875 43.8125  29.0625 42.4  29.0625 40.6625  L 29.0625 37.5125  L 32.20625 37.5125  C 33.943749999999994 37.5125  35.349999999999994 38.925000000000004  35.349999999999994 40.6625  Z M 43.724999999999994 32.2625  C 43.724999999999994 34  42.318749999999994 35.4125  40.58125 35.4125  L 32.20625 35.4125  C 31.374999999999996 35.4125  30.574999999999996 35.081250000000004  29.98125 34.487500000000004  C 29.387499999999996 33.893750000000004  29.0625 33.1  29.0625 32.2625  C 29.0625 30.525000000000006  30.46875 29.112500000000008  32.20625 29.112500000000008  L 40.58125 29.112500000000008  C 42.318749999999994 29.112500000000008  43.724999999999994 30.525000000000006  43.724999999999994 32.2625  Z M 43.724999999999994 23.862500000000004  C 43.724999999999994 25.600000000000005  42.318749999999994 27.012500000000003  40.58125 27.012500000000003  L 37.4375 27.012500000000003  L 37.4375 23.862500000000004  C 37.4375 22.125000000000004  38.84375 20.712500000000006  40.58125 20.712500000000006  C 42.318749999999994 20.712500000000006  43.724999999999994 22.125000000000007  43.724999999999994 23.862500000000004  Z " fill-rule="evenodd" />
    </mask>
  </defs>
  <g>
    <path d="M 56 28  C 56 12.537500000000001  43.4625 0  28 0  C 12.537500000000001 0  0 12.537500000000001  0 28  C 0 43.4625  12.537500000000001 56  28 56  C 43.4625 56  56 43.4625  56 28  Z M 18.59375 29.112500000000008  L 18.59375 32.2625  C 18.59375 34  17.1875 35.4125  15.449999999999998 35.4125  C 14.618749999999999 35.4125  13.818749999999998 35.081250000000004  13.224999999999998 34.487500000000004  C 12.6375 33.893750000000004  12.306249999999999 33.09375000000001  12.306249999999999 32.2625  C 12.306249999999999 30.525000000000006  13.712499999999999 29.112500000000008  15.449999999999998 29.112500000000008  L 18.59375 29.112500000000008  Z M 26.96875 32.2625  L 26.96875 40.6625  C 26.96875 42.4  25.5625 43.8125  23.825 43.8125  C 22.0875 43.8125  20.68125 42.4  20.68125 40.6625  L 20.68125 32.2625  C 20.68125 30.525000000000006  22.0875 29.112500000000008  23.825 29.112500000000008  C 24.65625 29.112500000000008  25.45625 29.443749999999998  26.05 30.0375  C 26.64375 30.63125  26.96875 31.43125  26.96875 32.2625  Z M 26.975 23.862500000000004  C 26.96875 25.606250000000003  25.5625 27.012500000000003  23.83125 27.012500000000003  L 15.45625 27.012500000000003  C 13.71875 27.012500000000003  12.3125 25.6  12.3125 23.862500000000004  C 12.3125 22.125000000000004  13.71875 20.712500000000006  15.45625 20.712500000000006  L 23.83125 20.712500000000006  C 25.56875 20.712500000000006  26.975 22.125000000000007  26.975 23.862500000000004  Z M 26.975 18.612499999999997  L 23.83125 18.612500000000004  C 23 18.612500000000004  22.2 18.281250000000004  21.60625 17.687500000000004  C 21.0125 17.093750000000004  20.6875 16.3  20.6875 15.462499999999999  C 20.6875 13.724999999999998  22.09375 12.3125  23.83125 12.3125  C 25.56875 12.3125  26.975 13.725000000000001  26.975 15.462499999999999  L 26.975 18.612499999999997  Z M 29.0625 23.862500000000004  L 29.0625 15.462500000000006  C 29.0625 13.725000000000005  30.46875 12.312500000000007  32.20625 12.312500000000007  C 33.943749999999994 12.312500000000007  35.349999999999994 13.725000000000009  35.349999999999994 15.462500000000006  L 35.349999999999994 23.862500000000004  C 35.349999999999994 25.600000000000005  33.943749999999994 27.012500000000003  32.20625 27.012500000000003  C 30.46875 27.012500000000003  29.0625 25.6  29.0625 23.862500000000004  Z M 35.349999999999994 40.6625  C 35.349999999999994 42.4  33.943749999999994 43.8125  32.20625 43.8125  C 30.46875 43.8125  29.0625 42.4  29.0625 40.6625  L 29.0625 37.5125  L 32.20625 37.5125  C 33.943749999999994 37.5125  35.349999999999994 38.925000000000004  35.349999999999994 40.6625  Z M 43.724999999999994 32.2625  C 43.724999999999994 34  42.318749999999994 35.4125  40.58125 35.4125  L 32.20625 35.4125  C 31.374999999999996 35.4125  30.574999999999996 35.081250000000004  29.98125 34.487500000000004  C 29.387499999999996 33.893750000000004  29.0625 33.1  29.0625 32.2625  C 29.0625 30.525000000000006  30.46875 29.112500000000008  32.20625 29.112500000000008  L 40.58125 29.112500000000008  C 42.318749999999994 29.112500000000008  43.724999999999994 30.525000000000006  43.724999999999994 32.2625  Z M 43.724999999999994 23.862500000000004  C 43.724999999999994 25.600000000000005  42.318749999999994 27.012500000000003  40.58125 27.012500000000003  L 37.4375 27.012500000000003  L 37.4375 23.862500000000004  C 37.4375 22.125000000000004  38.84375 20.712500000000006  40.58125 20.712500000000006  C 42.318749999999994 20.712500000000006  43.724999999999994 22.125000000000007  43.724999999999994 23.862500000000004  Z " fill-rule="nonzero" fill="rgba(51, 51, 51, 1)" stroke="none" class="fill" />
    <path d="M 56 28  C 56 12.537500000000001  43.4625 0  28 0  C 12.537500000000001 0  0 12.537500000000001  0 28  C 0 43.4625  12.537500000000001 56  28 56  C 43.4625 56  56 43.4625  56 28  Z " stroke-width="0" stroke-dasharray="0" stroke="rgba(255, 255, 255, 0)" fill="none" class="stroke" mask="url(#Clip2365)" />
    <path d="M 18.59375 29.112500000000008  L 18.59375 32.2625  C 18.59375 34  17.1875 35.4125  15.449999999999998 35.4125  C 14.618749999999999 35.4125  13.818749999999998 35.081250000000004  13.224999999999998 34.487500000000004  C 12.6375 33.893750000000004  12.306249999999999 33.09375000000001  12.306249999999999 32.2625  C 12.306249999999999 30.525000000000006  13.712499999999999 29.112500000000008  15.449999999999998 29.112500000000008  L 18.59375 29.112500000000008  Z " stroke-width="0" stroke-dasharray="0" stroke="rgba(255, 255, 255, 0)" fill="none" class="stroke" mask="url(#Clip2365)" />
    <path d="M 26.96875 32.2625  L 26.96875 40.6625  C 26.96875 42.4  25.5625 43.8125  23.825 43.8125  C 22.0875 43.8125  20.68125 42.4  20.68125 40.6625  L 20.68125 32.2625  C 20.68125 30.525000000000006  22.0875 29.112500000000008  23.825 29.112500000000008  C 24.65625 29.112500000000008  25.45625 29.443749999999998  26.05 30.0375  C 26.64375 30.63125  26.96875 31.43125  26.96875 32.2625  Z " stroke-width="0" stroke-dasharray="0" stroke="rgba(255, 255, 255, 0)" fill="none" class="stroke" mask="url(#Clip2365)" />
    <path d="M 26.975 23.862500000000004  C 26.96875 25.606250000000003  25.5625 27.012500000000003  23.83125 27.012500000000003  L 15.45625 27.012500000000003  C 13.71875 27.012500000000003  12.3125 25.6  12.3125 23.862500000000004  C 12.3125 22.125000000000004  13.71875 20.712500000000006  15.45625 20.712500000000006  L 23.83125 20.712500000000006  C 25.56875 20.712500000000006  26.975 22.125000000000007  26.975 23.862500000000004  Z " stroke-width="0" stroke-dasharray="0" stroke="rgba(255, 255, 255, 0)" fill="none" class="stroke" mask="url(#Clip2365)" />
    <path d="M 26.975 18.612499999999997  L 23.83125 18.612500000000004  C 23 18.612500000000004  22.2 18.281250000000004  21.60625 17.687500000000004  C 21.0125 17.093750000000004  20.6875 16.3  20.6875 15.462499999999999  C 20.6875 13.724999999999998  22.09375 12.3125  23.83125 12.3125  C 25.56875 12.3125  26.975 13.725000000000001  26.975 15.462499999999999  L 26.975 18.612499999999997  Z " stroke-width="0" stroke-dasharray="0" stroke="rgba(255, 255, 255, 0)" fill="none" class="stroke" mask="url(#Clip2365)" />
    <path d="M 29.0625 23.862500000000004  L 29.0625 15.462500000000006  C 29.0625 13.725000000000005  30.46875 12.312500000000007  32.20625 12.312500000000007  C 33.943749999999994 12.312500000000007  35.349999999999994 13.725000000000009  35.349999999999994 15.462500000000006  L 35.349999999999994 23.862500000000004  C 35.349999999999994 25.600000000000005  33.943749999999994 27.012500000000003  32.20625 27.012500000000003  C 30.46875 27.012500000000003  29.0625 25.6  29.0625 23.862500000000004  Z " stroke-width="0" stroke-dasharray="0" stroke="rgba(255, 255, 255, 0)" fill="none" class="stroke" mask="url(#Clip2365)" />
    <path d="M 35.349999999999994 40.6625  C 35.349999999999994 42.4  33.943749999999994 43.8125  32.20625 43.8125  C 30.46875 43.8125  29.0625 42.4  29.0625 40.6625  L 29.0625 37.5125  L 32.20625 37.5125  C 33.943749999999994 37.5125  35.349999999999994 38.925000000000004  35.349999999999994 40.6625  Z " stroke-width="0" stroke-dasharray="0" stroke="rgba(255, 255, 255, 0)" fill="none" class="stroke" mask="url(#Clip2365)" />
    <path d="M 43.724999999999994 32.2625  C 43.724999999999994 34  42.318749999999994 35.4125  40.58125 35.4125  L 32.20625 35.4125  C 31.374999999999996 35.4125  30.574999999999996 35.081250000000004  29.98125 34.487500000000004  C 29.387499999999996 33.893750000000004  29.0625 33.1  29.0625 32.2625  C 29.0625 30.525000000000006  30.46875 29.112500000000008  32.20625 29.112500000000008  L 40.58125 29.112500000000008  C 42.318749999999994 29.112500000000008  43.724999999999994 30.525000000000006  43.724999999999994 32.2625  Z " stroke-width="0" stroke-dasharray="0" stroke="rgba(255, 255, 255, 0)" fill="none" class="stroke" mask="url(#Clip2365)" />
    <path d="M 43.724999999999994 23.862500000000004  C 43.724999999999994 25.600000000000005  42.318749999999994 27.012500000000003  40.58125 27.012500000000003  L 37.4375 27.012500000000003  L 37.4375 23.862500000000004  C 37.4375 22.125000000000004  38.84375 20.712500000000006  40.58125 20.712500000000006  C 42.318749999999994 20.712500000000006  43.724999999999994 22.125000000000007  43.724999999999994 23.862500000000004  Z " stroke-width="0" stroke-dasharray="0" stroke="rgba(255, 255, 255, 0)" fill="none" class="stroke" mask="url(#Clip2365)" />
  </g>
</svg>