<?xml version="1.0" encoding="utf-8"?>
<svg version="1.1" xmlns:xlink="http://www.w3.org/1999/xlink" width="22px" height="16px" xmlns="http://www.w3.org/2000/svg">
  <defs>
    <pattern id="BGPattern" patternUnits="userSpaceOnUse" alignment="0 0" imageRepeat="None" />
    <mask fill="white" id="Clip3355">
      <path d="M 20.9702 8.2424  C 19.703418484740236 12.732067083101214  15.66330031065744 15.875596876612345  11 16  C 6.336774396686544 15.875510577562753  2.29675950614953 12.731998088612908  1.0299999999999994 8.2424  L 0.9692 8  L 1.0297999999999998 7.7576  C 2.2965815152597635 3.2679329168987863  6.336699689342559 0.1244031233876548  11 0  C 15.663225603313453 0.12448942243724659  19.70324049385047 3.26800191138709  20.97 7.7576  L 21.0308 8  L 20.9702 8.2424  Z M 11 2  C 7.337903085323054 2.0988227105052264  4.140672278717554 4.507343306079882  3.0351999999999997 8  C 4.140672278717554 11.492656693920114  7.337903085323058 13.901177289494775  11 14  C 14.66209691467694 13.901177289494768  17.859327721282444 11.492656693920114  18.964799999999997 8  C 17.859327721282444 4.507343306079884  14.66209691467694 2.098822710505228  11 2  Z " fill-rule="evenodd" />
    </mask>
  </defs>
  <g transform="matrix(1 0 0 1 -5 -10 )">
    <path d="M 20.9702 8.2424  C 19.703418484740236 12.732067083101214  15.66330031065744 15.875596876612345  11 16  C 6.336774396686544 15.875510577562753  2.29675950614953 12.731998088612908  1.0299999999999994 8.2424  L 0.9692 8  L 1.0297999999999998 7.7576  C 2.2965815152597635 3.2679329168987863  6.336699689342559 0.1244031233876548  11 0  C 15.663225603313453 0.12448942243724659  19.70324049385047 3.26800191138709  20.97 7.7576  L 21.0308 8  L 20.9702 8.2424  Z M 11 2  C 7.337903085323054 2.0988227105052264  4.140672278717554 4.507343306079882  3.0351999999999997 8  C 4.140672278717554 11.492656693920114  7.337903085323058 13.901177289494775  11 14  C 14.66209691467694 13.901177289494768  17.859327721282444 11.492656693920114  18.964799999999997 8  C 17.859327721282444 4.507343306079884  14.66209691467694 2.098822710505228  11 2  Z " fill-rule="nonzero" fill="rgba(255, 255, 255, 0)" stroke="none" transform="matrix(1 0 0 1 5 10 )" class="fill" />
    <path d="M 20.9702 8.2424  C 19.703418484740236 12.732067083101214  15.66330031065744 15.875596876612345  11 16  C 6.336774396686544 15.875510577562753  2.29675950614953 12.731998088612908  1.0299999999999994 8.2424  L 0.9692 8  L 1.0297999999999998 7.7576  C 2.2965815152597635 3.2679329168987863  6.336699689342559 0.1244031233876548  11 0  C 15.663225603313453 0.12448942243724659  19.70324049385047 3.26800191138709  20.97 7.7576  L 21.0308 8  L 20.9702 8.2424  Z " stroke-width="0" stroke-dasharray="0" stroke="rgba(255, 255, 255, 0)" fill="none" transform="matrix(1 0 0 1 5 10 )" class="stroke" mask="url(#Clip3355)" />
    <path d="M 11 2  C 7.337903085323054 2.0988227105052264  4.140672278717554 4.507343306079882  3.0351999999999997 8  C 4.140672278717554 11.492656693920114  7.337903085323058 13.901177289494775  11 14  C 14.66209691467694 13.901177289494768  17.859327721282444 11.492656693920114  18.964799999999997 8  C 17.859327721282444 4.507343306079884  14.66209691467694 2.098822710505228  11 2  Z " stroke-width="0" stroke-dasharray="0" stroke="rgba(255, 255, 255, 0)" fill="none" transform="matrix(1 0 0 1 5 10 )" class="stroke" mask="url(#Clip3355)" />
  </g>
</svg>