<?xml version="1.0" encoding="utf-8"?>
<svg version="1.1" xmlns:xlink="http://www.w3.org/1999/xlink" width="28px" height="28px" xmlns="http://www.w3.org/2000/svg">
  <defs>
    <pattern id="BGPattern" patternUnits="userSpaceOnUse" alignment="0 0" imageRepeat="None" />
    <mask fill="white" id="Clip3353">
      <path d="M 28 14  C 28 6.268013502368892  21.73198649763111 0  14 0  C 6.268013502368892 0  0 6.268013502368892  0 14  C 0 21.73198649763111  6.268013502368892 28  14 28  C 21.73198649763111 28  28 21.73198649763111  28 14  Z M 23.9702 14.2422  C 22.70360401290625 18.732021932963477  18.663401704286336 21.875698235325675  14 22.000000000000004  C 9.336673003228242 21.87561193021774  5.296573982589713 18.731952935001136  4.03 14.2422  L 3.9692000000000007 14  L 4.029800000000001 13.757800000000003  C 5.296395987093749 9.267978067036523  9.33659829571366 6.124301764674327  14 6.000000000000001  C 18.66332699677176 6.124388069782264  22.703426017410283 9.268047064998868  23.97 13.7578  L 24.0308 14  L 23.9702 14.2422  Z " fill-rule="evenodd" />
    </mask>
  </defs>
  <g transform="matrix(1 0 0 1 -2 -4 )">
    <path d="M 28 14  C 28 6.268013502368892  21.73198649763111 0  14 0  C 6.268013502368892 0  0 6.268013502368892  0 14  C 0 21.73198649763111  6.268013502368892 28  14 28  C 21.73198649763111 28  28 21.73198649763111  28 14  Z M 23.9702 14.2422  C 22.70360401290625 18.732021932963477  18.663401704286336 21.875698235325675  14 22.000000000000004  C 9.336673003228242 21.87561193021774  5.296573982589713 18.731952935001136  4.03 14.2422  L 3.9692000000000007 14  L 4.029800000000001 13.757800000000003  C 5.296395987093749 9.267978067036523  9.33659829571366 6.124301764674327  14 6.000000000000001  C 18.66332699677176 6.124388069782264  22.703426017410283 9.268047064998868  23.97 13.7578  L 24.0308 14  L 23.9702 14.2422  Z " fill-rule="nonzero" fill="rgba(0, 0, 0, 1)" stroke="none" transform="matrix(1 0 0 1 2 4 )" class="fill" />
    <path d="M 28 14  C 28 6.268013502368892  21.73198649763111 0  14 0  C 6.268013502368892 0  0 6.268013502368892  0 14  C 0 21.73198649763111  6.268013502368892 28  14 28  C 21.73198649763111 28  28 21.73198649763111  28 14  Z " stroke-width="0" stroke-dasharray="0" stroke="rgba(255, 255, 255, 0)" fill="none" transform="matrix(1 0 0 1 2 4 )" class="stroke" mask="url(#Clip3353)" />
    <path d="M 23.9702 14.2422  C 22.70360401290625 18.732021932963477  18.663401704286336 21.875698235325675  14 22.000000000000004  C 9.336673003228242 21.87561193021774  5.296573982589713 18.731952935001136  4.03 14.2422  L 3.9692000000000007 14  L 4.029800000000001 13.757800000000003  C 5.296395987093749 9.267978067036523  9.33659829571366 6.124301764674327  14 6.000000000000001  C 18.66332699677176 6.124388069782264  22.703426017410283 9.268047064998868  23.97 13.7578  L 24.0308 14  L 23.9702 14.2422  Z " stroke-width="0" stroke-dasharray="0" stroke="rgba(255, 255, 255, 0)" fill="none" transform="matrix(1 0 0 1 2 4 )" class="stroke" mask="url(#Clip3353)" />
  </g>
</svg>