<?xml version="1.0" encoding="utf-8"?>
<svg version="1.1" xmlns:xlink="http://www.w3.org/1999/xlink" width="38px" height="48px" xmlns="http://www.w3.org/2000/svg">
  <defs>
    <pattern id="BGPattern" patternUnits="userSpaceOnUse" alignment="0 0" imageRepeat="None" />
    <mask fill="white" id="Clip7187">
      <path d="M 37.544 30.372  L 37.544 29.630000000000003  L 37.348 29.630000000000003  C 35.854 33.728  32.678 36.992  28.622 38.596  L 28.622 29.629999999999995  L 33.51 25.266  L 28.622 20.901999999999994  L 28.622 14.794  C 32.897999999999996 14.806000000000001  36.391999999999996 11.388  36.476 7.114000000000001  C 36.476 1.8560000000000008  31.458 0.002000000000000668  28.622 0.002000000000000668  C 27.888 -0.01199999999999933  27.153999999999996 0.06800000000000067  26.439999999999998 0.24200000000000066  L 26.439999999999998 0.5040000000000007  L 27.552 0.5040000000000007  C 29.153999999999996 0.2220000000000007  30.682000000000002 1.2920000000000007  30.964 2.894000000000001  C 30.979999999999997 2.982  30.991999999999997 3.074  31 3.1659999999999995  C 30.933999999999994 4.744  29.600000000000005 5.968  28.024000000000004 5.9  C 27.984 5.898000000000001  27.942 5.896000000000001  27.902 5.892  C 23.014000000000003 5.892  17.256 1.9220000000000002  10.994 1.9220000000000002  C 6.094 1.6600000000000001  1.896 5.384  1.5679999999999996 10.278  C 1.4160000000000004 13.342000000000002  3.516 16.062  6.52 16.692  L 6.52 16.452  C 5.602 15.862000000000002  5.082000000000001 14.814  5.167999999999999 13.724  C 5.315999999999999 11.694  7.081999999999999 10.166  9.113999999999999 10.314  C 9.136 10.318  9.16 10.32  9.182 10.322  C 14.440000000000003 10.322  22.926000000000002 14.686  28.183999999999997 14.686  L 28.379999999999995 14.686  L 28.379999999999995 20.97  L 23.491999999999997 25.334  L 28.379999999999995 29.698  L 28.379999999999995 38.796  C 26.424 39.44  24.373999999999995 39.758  22.313999999999997 39.734  C 18.967999999999996 39.902  15.677999999999997 38.822  13.085999999999999 36.702  L 22 32.732  L 22 14.902000000000001  L 9.552 20.355999999999998  C 10.736 16.855999999999998  13.341999999999999 14.02  16.73 12.546  L 16.73 12.349999999999998  C 7.698 14.358  0.4540000000000006 20.836  0.4540000000000006 29.759999999999998  C 0.4540000000000006 40.146  8.504000000000001 48  20.09 48  C 32.112 48  37.544 39.274  37.544 30.372  Z M 14 35.936  L 12.716000000000001 36.372  C 9.990000000000002 33.647999999999996  8.534 29.902  8.702000000000002 26.052  C 8.670000000000002 24.292  8.920000000000002 22.54  9.444000000000003 20.86  L 14 18.983999999999998  L 14 35.936  Z " fill-rule="evenodd" />
    </mask>
  </defs>
  <g>
    <path d="M 37.544 30.372  L 37.544 29.630000000000003  L 37.348 29.630000000000003  C 35.854 33.728  32.678 36.992  28.622 38.596  L 28.622 29.629999999999995  L 33.51 25.266  L 28.622 20.901999999999994  L 28.622 14.794  C 32.897999999999996 14.806000000000001  36.391999999999996 11.388  36.476 7.114000000000001  C 36.476 1.8560000000000008  31.458 0.002000000000000668  28.622 0.002000000000000668  C 27.888 -0.01199999999999933  27.153999999999996 0.06800000000000067  26.439999999999998 0.24200000000000066  L 26.439999999999998 0.5040000000000007  L 27.552 0.5040000000000007  C 29.153999999999996 0.2220000000000007  30.682000000000002 1.2920000000000007  30.964 2.894000000000001  C 30.979999999999997 2.982  30.991999999999997 3.074  31 3.1659999999999995  C 30.933999999999994 4.744  29.600000000000005 5.968  28.024000000000004 5.9  C 27.984 5.898000000000001  27.942 5.896000000000001  27.902 5.892  C 23.014000000000003 5.892  17.256 1.9220000000000002  10.994 1.9220000000000002  C 6.094 1.6600000000000001  1.896 5.384  1.5679999999999996 10.278  C 1.4160000000000004 13.342000000000002  3.516 16.062  6.52 16.692  L 6.52 16.452  C 5.602 15.862000000000002  5.082000000000001 14.814  5.167999999999999 13.724  C 5.315999999999999 11.694  7.081999999999999 10.166  9.113999999999999 10.314  C 9.136 10.318  9.16 10.32  9.182 10.322  C 14.440000000000003 10.322  22.926000000000002 14.686  28.183999999999997 14.686  L 28.379999999999995 14.686  L 28.379999999999995 20.97  L 23.491999999999997 25.334  L 28.379999999999995 29.698  L 28.379999999999995 38.796  C 26.424 39.44  24.373999999999995 39.758  22.313999999999997 39.734  C 18.967999999999996 39.902  15.677999999999997 38.822  13.085999999999999 36.702  L 22 32.732  L 22 14.902000000000001  L 9.552 20.355999999999998  C 10.736 16.855999999999998  13.341999999999999 14.02  16.73 12.546  L 16.73 12.349999999999998  C 7.698 14.358  0.4540000000000006 20.836  0.4540000000000006 29.759999999999998  C 0.4540000000000006 40.146  8.504000000000001 48  20.09 48  C 32.112 48  37.544 39.274  37.544 30.372  Z M 14 35.936  L 12.716000000000001 36.372  C 9.990000000000002 33.647999999999996  8.534 29.902  8.702000000000002 26.052  C 8.670000000000002 24.292  8.920000000000002 22.54  9.444000000000003 20.86  L 14 18.983999999999998  L 14 35.936  Z " fill-rule="nonzero" fill="rgba(0, 0, 0, 1)" stroke="none" class="fill" />
    <path d="M 37.544 30.372  L 37.544 29.630000000000003  L 37.348 29.630000000000003  C 35.854 33.728  32.678 36.992  28.622 38.596  L 28.622 29.629999999999995  L 33.51 25.266  L 28.622 20.901999999999994  L 28.622 14.794  C 32.897999999999996 14.806000000000001  36.391999999999996 11.388  36.476 7.114000000000001  C 36.476 1.8560000000000008  31.458 0.002000000000000668  28.622 0.002000000000000668  C 27.888 -0.01199999999999933  27.153999999999996 0.06800000000000067  26.439999999999998 0.24200000000000066  L 26.439999999999998 0.5040000000000007  L 27.552 0.5040000000000007  C 29.153999999999996 0.2220000000000007  30.682000000000002 1.2920000000000007  30.964 2.894000000000001  C 30.979999999999997 2.982  30.991999999999997 3.074  31 3.1659999999999995  C 30.933999999999994 4.744  29.600000000000005 5.968  28.024000000000004 5.9  C 27.984 5.898000000000001  27.942 5.896000000000001  27.902 5.892  C 23.014000000000003 5.892  17.256 1.9220000000000002  10.994 1.9220000000000002  C 6.094 1.6600000000000001  1.896 5.384  1.5679999999999996 10.278  C 1.4160000000000004 13.342000000000002  3.516 16.062  6.52 16.692  L 6.52 16.452  C 5.602 15.862000000000002  5.082000000000001 14.814  5.167999999999999 13.724  C 5.315999999999999 11.694  7.081999999999999 10.166  9.113999999999999 10.314  C 9.136 10.318  9.16 10.32  9.182 10.322  C 14.440000000000003 10.322  22.926000000000002 14.686  28.183999999999997 14.686  L 28.379999999999995 14.686  L 28.379999999999995 20.97  L 23.491999999999997 25.334  L 28.379999999999995 29.698  L 28.379999999999995 38.796  C 26.424 39.44  24.373999999999995 39.758  22.313999999999997 39.734  C 18.967999999999996 39.902  15.677999999999997 38.822  13.085999999999999 36.702  L 22 32.732  L 22 14.902000000000001  L 9.552 20.355999999999998  C 10.736 16.855999999999998  13.341999999999999 14.02  16.73 12.546  L 16.73 12.349999999999998  C 7.698 14.358  0.4540000000000006 20.836  0.4540000000000006 29.759999999999998  C 0.4540000000000006 40.146  8.504000000000001 48  20.09 48  C 32.112 48  37.544 39.274  37.544 30.372  Z " stroke-width="0" stroke-dasharray="0" stroke="rgba(255, 255, 255, 0)" fill="none" class="stroke" mask="url(#Clip7187)" />
    <path d="M 14 35.936  L 12.716000000000001 36.372  C 9.990000000000002 33.647999999999996  8.534 29.902  8.702000000000002 26.052  C 8.670000000000002 24.292  8.920000000000002 22.54  9.444000000000003 20.86  L 14 18.983999999999998  L 14 35.936  Z " stroke-width="0" stroke-dasharray="0" stroke="rgba(255, 255, 255, 0)" fill="none" class="stroke" mask="url(#Clip7187)" />
  </g>
</svg>