<?xml version="1.0" encoding="utf-8"?>
<svg version="1.1" xmlns:xlink="http://www.w3.org/1999/xlink" width="26px" height="26px" xmlns="http://www.w3.org/2000/svg">
  <defs>
    <pattern id="BGPattern" patternUnits="userSpaceOnUse" alignment="0 0" imageRepeat="None" />
    <mask fill="white" id="Clip97">
      <path d="M 25.608 10.776  L 25.624 10.84  C 25.735999999999997 11.544  25.799999999999997 12.248  25.799999999999997 13  C 25.799999999999997 20.072  20.071999999999996 25.8  12.999999999999996 25.8  C 5.927999999999997 25.8  0.19999999999999574 20.072000000000003  0.19999999999999574 13  C 0.19999999999999574 5.927999999999997  5.9279999999999955 0.1999999999999993  12.999999999999996 0.1999999999999993  C 15.271999999999995 0.1999999999999993  17.4 0.7919999999999994  19.255999999999997 1.831999999999999  C 19.623999999999995 2.039999999999999  19.863999999999997 2.4239999999999986  19.863999999999997 2.871999999999999  C 19.863999999999997 3.5279999999999987  19.319999999999997 4.071999999999999  18.663999999999998 4.071999999999999  C 18.456 4.071999999999999  18.247999999999998 4.007999999999999  18.072 3.911999999999999  C 16.567999999999998 3.063999999999999  14.840000000000002 2.5999999999999988  13 2.5999999999999988  C 7.256000000000001 2.5999999999999988  2.5999999999999996 7.2559999999999985  2.5999999999999996 13  C 2.5999999999999996 18.744  7.256000000000001 23.4  13 23.4  C 18.744 23.4  23.4 18.744  23.4 12.999999999999998  C 23.4 12.375999999999998  23.352 11.751999999999999  23.24 11.159999999999998  C 23.224 11.095999999999998  23.224 11.031999999999998  23.224 10.967999999999998  C 23.224 10.311999999999998  23.768 9.767999999999999  24.424 9.767999999999999  C 25.112 9.767999999999999  25.48 10.296  25.608 10.776  Z M 9.287999999999995 10.744000000000003  C 9.655999999999995 10.744000000000003  10.007999999999996 10.920000000000003  10.264 11.272  L 12.936 14.936  L 22.68 3.3200000000000007  C 22.887999999999998 3.064  23.224 2.904  23.56 2.904  C 23.816 2.904  24.119999999999997 3.016  24.343999999999998 3.208  C 24.615999999999996 3.4320000000000004  24.775999999999996 3.768000000000001  24.775999999999996 4.12  C 24.775999999999996 4.36  24.663999999999998 4.664  24.487999999999996 4.872  L 13.751999999999995 17.688000000000002  C 13.543999999999997 17.96  13.191999999999995 18.12  12.839999999999995 18.12  C 12.487999999999992 18.12  12.103999999999994 17.96  11.831999999999994 17.592000000000002  L 8.311999999999994 12.616000000000003  C 8.167999999999994 12.408000000000003  8.087999999999994 12.200000000000003  8.087999999999994 11.944000000000003  C 8.087999999999994 11.576000000000002  8.263999999999994 11.208000000000002  8.615999999999994 10.968000000000004  C 8.823999999999995 10.824000000000003  9.031999999999995 10.744000000000003  9.287999999999995 10.744000000000003  Z " fill-rule="evenodd" />
    </mask>
  </defs>
  <g>
    <path d="M 25.608 10.776  L 25.624 10.84  C 25.735999999999997 11.544  25.799999999999997 12.248  25.799999999999997 13  C 25.799999999999997 20.072  20.071999999999996 25.8  12.999999999999996 25.8  C 5.927999999999997 25.8  0.19999999999999574 20.072000000000003  0.19999999999999574 13  C 0.19999999999999574 5.927999999999997  5.9279999999999955 0.1999999999999993  12.999999999999996 0.1999999999999993  C 15.271999999999995 0.1999999999999993  17.4 0.7919999999999994  19.255999999999997 1.831999999999999  C 19.623999999999995 2.039999999999999  19.863999999999997 2.4239999999999986  19.863999999999997 2.871999999999999  C 19.863999999999997 3.5279999999999987  19.319999999999997 4.071999999999999  18.663999999999998 4.071999999999999  C 18.456 4.071999999999999  18.247999999999998 4.007999999999999  18.072 3.911999999999999  C 16.567999999999998 3.063999999999999  14.840000000000002 2.5999999999999988  13 2.5999999999999988  C 7.256000000000001 2.5999999999999988  2.5999999999999996 7.2559999999999985  2.5999999999999996 13  C 2.5999999999999996 18.744  7.256000000000001 23.4  13 23.4  C 18.744 23.4  23.4 18.744  23.4 12.999999999999998  C 23.4 12.375999999999998  23.352 11.751999999999999  23.24 11.159999999999998  C 23.224 11.095999999999998  23.224 11.031999999999998  23.224 10.967999999999998  C 23.224 10.311999999999998  23.768 9.767999999999999  24.424 9.767999999999999  C 25.112 9.767999999999999  25.48 10.296  25.608 10.776  Z M 9.287999999999995 10.744000000000003  C 9.655999999999995 10.744000000000003  10.007999999999996 10.920000000000003  10.264 11.272  L 12.936 14.936  L 22.68 3.3200000000000007  C 22.887999999999998 3.064  23.224 2.904  23.56 2.904  C 23.816 2.904  24.119999999999997 3.016  24.343999999999998 3.208  C 24.615999999999996 3.4320000000000004  24.775999999999996 3.768000000000001  24.775999999999996 4.12  C 24.775999999999996 4.36  24.663999999999998 4.664  24.487999999999996 4.872  L 13.751999999999995 17.688000000000002  C 13.543999999999997 17.96  13.191999999999995 18.12  12.839999999999995 18.12  C 12.487999999999992 18.12  12.103999999999994 17.96  11.831999999999994 17.592000000000002  L 8.311999999999994 12.616000000000003  C 8.167999999999994 12.408000000000003  8.087999999999994 12.200000000000003  8.087999999999994 11.944000000000003  C 8.087999999999994 11.576000000000002  8.263999999999994 11.208000000000002  8.615999999999994 10.968000000000004  C 8.823999999999995 10.824000000000003  9.031999999999995 10.744000000000003  9.287999999999995 10.744000000000003  Z " fill-rule="nonzero" fill="rgba(0, 0, 0, 1)" stroke="none" class="fill" />
    <path d="M 25.608 10.776  L 25.624 10.84  C 25.735999999999997 11.544  25.799999999999997 12.248  25.799999999999997 13  C 25.799999999999997 20.072  20.071999999999996 25.8  12.999999999999996 25.8  C 5.927999999999997 25.8  0.19999999999999574 20.072000000000003  0.19999999999999574 13  C 0.19999999999999574 5.927999999999997  5.9279999999999955 0.1999999999999993  12.999999999999996 0.1999999999999993  C 15.271999999999995 0.1999999999999993  17.4 0.7919999999999994  19.255999999999997 1.831999999999999  C 19.623999999999995 2.039999999999999  19.863999999999997 2.4239999999999986  19.863999999999997 2.871999999999999  C 19.863999999999997 3.5279999999999987  19.319999999999997 4.071999999999999  18.663999999999998 4.071999999999999  C 18.456 4.071999999999999  18.247999999999998 4.007999999999999  18.072 3.911999999999999  C 16.567999999999998 3.063999999999999  14.840000000000002 2.5999999999999988  13 2.5999999999999988  C 7.256000000000001 2.5999999999999988  2.5999999999999996 7.2559999999999985  2.5999999999999996 13  C 2.5999999999999996 18.744  7.256000000000001 23.4  13 23.4  C 18.744 23.4  23.4 18.744  23.4 12.999999999999998  C 23.4 12.375999999999998  23.352 11.751999999999999  23.24 11.159999999999998  C 23.224 11.095999999999998  23.224 11.031999999999998  23.224 10.967999999999998  C 23.224 10.311999999999998  23.768 9.767999999999999  24.424 9.767999999999999  C 25.112 9.767999999999999  25.48 10.296  25.608 10.776  Z " stroke-width="0" stroke-dasharray="0" stroke="rgba(255, 255, 255, 0)" fill="none" class="stroke" mask="url(#Clip97)" />
    <path d="M 9.287999999999995 10.744000000000003  C 9.655999999999995 10.744000000000003  10.007999999999996 10.920000000000003  10.264 11.272  L 12.936 14.936  L 22.68 3.3200000000000007  C 22.887999999999998 3.064  23.224 2.904  23.56 2.904  C 23.816 2.904  24.119999999999997 3.016  24.343999999999998 3.208  C 24.615999999999996 3.4320000000000004  24.775999999999996 3.768000000000001  24.775999999999996 4.12  C 24.775999999999996 4.36  24.663999999999998 4.664  24.487999999999996 4.872  L 13.751999999999995 17.688000000000002  C 13.543999999999997 17.96  13.191999999999995 18.12  12.839999999999995 18.12  C 12.487999999999992 18.12  12.103999999999994 17.96  11.831999999999994 17.592000000000002  L 8.311999999999994 12.616000000000003  C 8.167999999999994 12.408000000000003  8.087999999999994 12.200000000000003  8.087999999999994 11.944000000000003  C 8.087999999999994 11.576000000000002  8.263999999999994 11.208000000000002  8.615999999999994 10.968000000000004  C 8.823999999999995 10.824000000000003  9.031999999999995 10.744000000000003  9.287999999999995 10.744000000000003  Z " stroke-width="0" stroke-dasharray="0" stroke="rgba(255, 255, 255, 0)" fill="none" class="stroke" mask="url(#Clip97)" />
  </g>
</svg>