<?xml version="1.0" encoding="utf-8"?>
<svg version="1.1" xmlns:xlink="http://www.w3.org/1999/xlink" width="50px" height="50px" xmlns="http://www.w3.org/2000/svg">
  <defs>
    <pattern id="BGPattern" patternUnits="userSpaceOnUse" alignment="0 0" imageRepeat="None" />
    <mask fill="white" id="Clip1908">
      <path d="M 50 40.625  C 50 35.458984375  45.791015625 31.25  40.625 31.25  L 31.25 31.25  C 29.531249999999996 31.25  28.125 29.843750000000004  28.125 28.125  C 28.125 26.406249999999996  29.531249999999996 25  31.25 25  L 40.625 25  C 40.625 25  50 14.55078125  50 9.375  C 50 4.19921875  45.80078125 0  40.625 0  C 35.44921875 0  31.25 4.19921875  31.25 9.375  C 31.25 11.865234375  33.41796875 15.56640625  35.673828125 18.75  L 31.25 18.75  C 26.083984375000004 18.75  21.875 22.958984375  21.875 28.125  C 21.875 33.291015625  26.083984375000004 37.5  31.25 37.5  L 40.625 37.5  C 42.34375 37.5  43.75 38.90625  43.75 40.625  C 43.75 42.34375  42.34375 43.75  40.625 43  L 18.115234375 43  C 16.552734375 46.171875  14.814453124999998 48.408203125  13.496093749999998 50  L 40.625 50  C 45.791015625 50  50 45.791015625  50 40.625  Z M 37.5 9.375  C 37.5 7.646484375  38.896484375 6.25  40.625 6.25  C 42.353515625 6.25  43.75 7.646484375  43.75 9.375  C 43.75 11.103515625  42.353515625 12.5  40.625 12.5  C 38.896484375 12.5  37.5 11.103515625  37.5 9.375  Z M 18.75 34.375  C 18.75 29.19921875  14.55078125 25  9.375 25  C 4.19921875 25  0 29.19921875  0 34.375  C 0 39.55078125  9.375 50  9.375 50  C 9.375 50  18.75 39.55078125  18.75 34.375  Z M 12.5 34.375  C 12.5 36.103515625  11.103515625 37.5  9.375 37.5  C 7.646484375 37.5  6.25 36.103515625  6.25 34.375  C 6.25 32.646484375  7.646484375 31.25  9.375 31.25  C 11.103515625 31.25  12.5 32.646484375  12.5 34.375  Z " fill-rule="evenodd" />
    </mask>
  </defs>
  <g>
    <path d="M 50 40.625  C 50 35.458984375  45.791015625 31.25  40.625 31.25  L 31.25 31.25  C 29.531249999999996 31.25  28.125 29.843750000000004  28.125 28.125  C 28.125 26.406249999999996  29.531249999999996 25  31.25 25  L 40.625 25  C 40.625 25  50 14.55078125  50 9.375  C 50 4.19921875  45.80078125 0  40.625 0  C 35.44921875 0  31.25 4.19921875  31.25 9.375  C 31.25 11.865234375  33.41796875 15.56640625  35.673828125 18.75  L 31.25 18.75  C 26.083984375000004 18.75  21.875 22.958984375  21.875 28.125  C 21.875 33.291015625  26.083984375000004 37.5  31.25 37.5  L 40.625 37.5  C 42.34375 37.5  43.75 38.90625  43.75 40.625  C 43.75 42.34375  42.34375 43.75  40.625 43  L 18.115234375 43  C 16.552734375 46.171875  14.814453124999998 48.408203125  13.496093749999998 50  L 40.625 50  C 45.791015625 50  50 45.791015625  50 40.625  Z M 37.5 9.375  C 37.5 7.646484375  38.896484375 6.25  40.625 6.25  C 42.353515625 6.25  43.75 7.646484375  43.75 9.375  C 43.75 11.103515625  42.353515625 12.5  40.625 12.5  C 38.896484375 12.5  37.5 11.103515625  37.5 9.375  Z M 18.75 34.375  C 18.75 29.19921875  14.55078125 25  9.375 25  C 4.19921875 25  0 29.19921875  0 34.375  C 0 39.55078125  9.375 50  9.375 50  C 9.375 50  18.75 39.55078125  18.75 34.375  Z M 12.5 34.375  C 12.5 36.103515625  11.103515625 37.5  9.375 37.5  C 7.646484375 37.5  6.25 36.103515625  6.25 34.375  C 6.25 32.646484375  7.646484375 31.25  9.375 31.25  C 11.103515625 31.25  12.5 32.646484375  12.5 34.375  Z " fill-rule="nonzero" fill="rgba(0, 0, 0, 1)" stroke="none" class="fill" />
    <path d="M 50 40.625  C 50 35.458984375  45.791015625 31.25  40.625 31.25  L 31.25 31.25  C 29.531249999999996 31.25  28.125 29.843750000000004  28.125 28.125  C 28.125 26.406249999999996  29.531249999999996 25  31.25 25  L 40.625 25  C 40.625 25  50 14.55078125  50 9.375  C 50 4.19921875  45.80078125 0  40.625 0  C 35.44921875 0  31.25 4.19921875  31.25 9.375  C 31.25 11.865234375  33.41796875 15.56640625  35.673828125 18.75  L 31.25 18.75  C 26.083984375000004 18.75  21.875 22.958984375  21.875 28.125  C 21.875 33.291015625  26.083984375000004 37.5  31.25 37.5  L 40.625 37.5  C 42.34375 37.5  43.75 38.90625  43.75 40.625  C 43.75 42.34375  42.34375 43.75  40.625 43  L 18.115234375 43  C 16.552734375 46.171875  14.814453124999998 48.408203125  13.496093749999998 50  L 40.625 50  C 45.791015625 50  50 45.791015625  50 40.625  Z " stroke-width="0" stroke-dasharray="0" stroke="rgba(255, 255, 255, 0)" fill="none" class="stroke" mask="url(#Clip1908)" />
    <path d="M 37.5 9.375  C 37.5 7.646484375  38.896484375 6.25  40.625 6.25  C 42.353515625 6.25  43.75 7.646484375  43.75 9.375  C 43.75 11.103515625  42.353515625 12.5  40.625 12.5  C 38.896484375 12.5  37.5 11.103515625  37.5 9.375  Z " stroke-width="0" stroke-dasharray="0" stroke="rgba(255, 255, 255, 0)" fill="none" class="stroke" mask="url(#Clip1908)" />
    <path d="M 18.75 34.375  C 18.75 29.19921875  14.55078125 25  9.375 25  C 4.19921875 25  0 29.19921875  0 34.375  C 0 39.55078125  9.375 50  9.375 50  C 9.375 50  18.75 39.55078125  18.75 34.375  Z " stroke-width="0" stroke-dasharray="0" stroke="rgba(255, 255, 255, 0)" fill="none" class="stroke" mask="url(#Clip1908)" />
    <path d="M 12.5 34.375  C 12.5 36.103515625  11.103515625 37.5  9.375 37.5  C 7.646484375 37.5  6.25 36.103515625  6.25 34.375  C 6.25 32.646484375  7.646484375 31.25  9.375 31.25  C 11.103515625 31.25  12.5 32.646484375  12.5 34.375  Z " stroke-width="0" stroke-dasharray="0" stroke="rgba(255, 255, 255, 0)" fill="none" class="stroke" mask="url(#Clip1908)" />
  </g>
</svg>