<?xml version="1.0" encoding="utf-8"?>
<svg version="1.1" xmlns:xlink="http://www.w3.org/1999/xlink" width="48px" height="48px" xmlns="http://www.w3.org/2000/svg">
  <defs>
    <pattern id="BGPattern" patternUnits="userSpaceOnUse" alignment="0 0" imageRepeat="None" />
    <mask fill="white" id="Clip7104">
      <path d="M 48 24  C 48 10.745166004060957  37.254833995939045 0  24 0  C 10.745166004060957 0  0 10.745166004060957  0 24  C 0 37.254833995939045  10.745166004060957 48  24 48  C 37.254833995939045 48  48 37.254833995939045  48 24  Z M 23.475000000000005 7.355  L 23.477 7.355  L 28.645000000000003 7.355000000000001  C 29.02405118168269 7.354999604463752  29.330736128048592 7.6616845508296585  29.330736128048592 8.039999604463752  C 29.330736128048592 8.102887167026319  29.322076075198467 8.165475185412285  29.305 8.226  L 25.241999999999997 22.063  L 29.055 20.9  L 28.239 23.668999999999997  L 24.391000000000005 24.789999999999996  L 21.891000000000002 33  L 35.246 33  C 35.62348505683307 33.21716904139537  35.9288786192958 33.52350984809051  35.9288786192958 33.90099671513366  C 35.9288786192958 33.965278585499576  35.91983031609764 34.029240476964276  35.902 34.090999999999994  L 34.738 38.090999999999994  C 34.6239337668624 38.48168933470464  34.265999943350735 38.75044510662466  33.859 38  L 13.465 38  L 16.91 27.105  L 13.099999999999998 28.266  L 13.94 25.543  L 17.759999999999998 24.383  L 22.6 8.023  C 22.708943975256293 7.629361516367162  23.06656610930271 7.356342561460864  23.475000000000005 7.355  Z " fill-rule="evenodd" />
    </mask>
  </defs>
  <g>
    <path d="M 48 24  C 48 10.745166004060957  37.254833995939045 0  24 0  C 10.745166004060957 0  0 10.745166004060957  0 24  C 0 37.254833995939045  10.745166004060957 48  24 48  C 37.254833995939045 48  48 37.254833995939045  48 24  Z M 23.475000000000005 7.355  L 23.477 7.355  L 28.645000000000003 7.355000000000001  C 29.02405118168269 7.354999604463752  29.330736128048592 7.6616845508296585  29.330736128048592 8.039999604463752  C 29.330736128048592 8.102887167026319  29.322076075198467 8.165475185412285  29.305 8.226  L 25.241999999999997 22.063  L 29.055 20.9  L 28.239 23.668999999999997  L 24.391000000000005 24.789999999999996  L 21.891000000000002 33  L 35.246 33  C 35.62348505683307 33.21716904139537  35.9288786192958 33.52350984809051  35.9288786192958 33.90099671513366  C 35.9288786192958 33.965278585499576  35.91983031609764 34.029240476964276  35.902 34.090999999999994  L 34.738 38.090999999999994  C 34.6239337668624 38.48168933470464  34.265999943350735 38.75044510662466  33.859 38  L 13.465 38  L 16.91 27.105  L 13.099999999999998 28.266  L 13.94 25.543  L 17.759999999999998 24.383  L 22.6 8.023  C 22.708943975256293 7.629361516367162  23.06656610930271 7.356342561460864  23.475000000000005 7.355  Z " fill-rule="nonzero" fill="rgba(166, 169, 170, 1)" stroke="none" class="fill" />
    <path d="M 48 24  C 48 10.745166004060957  37.254833995939045 0  24 0  C 10.745166004060957 0  0 10.745166004060957  0 24  C 0 37.254833995939045  10.745166004060957 48  24 48  C 37.254833995939045 48  48 37.254833995939045  48 24  Z " stroke-width="0" stroke-dasharray="0" stroke="rgba(255, 255, 255, 0)" fill="none" class="stroke" mask="url(#Clip7104)" />
    <path d="M 23.475000000000005 7.355  L 23.477 7.355  L 28.645000000000003 7.355000000000001  C 29.02405118168269 7.354999604463752  29.330736128048592 7.6616845508296585  29.330736128048592 8.039999604463752  C 29.330736128048592 8.102887167026319  29.322076075198467 8.165475185412285  29.305 8.226  L 25.241999999999997 22.063  L 29.055 20.9  L 28.239 23.668999999999997  L 24.391000000000005 24.789999999999996  L 21.891000000000002 33  L 35.246 33  C 35.62348505683307 33.21716904139537  35.9288786192958 33.52350984809051  35.9288786192958 33.90099671513366  C 35.9288786192958 33.965278585499576  35.91983031609764 34.029240476964276  35.902 34.090999999999994  L 34.738 38.090999999999994  C 34.6239337668624 38.48168933470464  34.265999943350735 38.75044510662466  33.859 38  L 13.465 38  L 16.91 27.105  L 13.099999999999998 28.266  L 13.94 25.543  L 17.759999999999998 24.383  L 22.6 8.023  C 22.708943975256293 7.629361516367162  23.06656610930271 7.356342561460864  23.475000000000005 7.355  Z " stroke-width="0" stroke-dasharray="0" stroke="rgba(255, 255, 255, 0)" fill="none" class="stroke" mask="url(#Clip7104)" />
  </g>
</svg>