<?xml version="1.0" encoding="utf-8"?>
<svg version="1.1" xmlns:xlink="http://www.w3.org/1999/xlink" width="50px" height="38px" xmlns="http://www.w3.org/2000/svg">
  <defs>
    <pattern id="BGPattern" patternUnits="userSpaceOnUse" alignment="0 0" imageRepeat="None" />
    <mask fill="white" id="Clip1507">
      <path d="M 34.013671875 23.486328125000004  C 43.974609375 16.25  46.865234375 14.08203125  49.052734375 12.3828125  C 49.43359375 12.080078125  50 12.36328125  50 12.841796874999998  L 50 32.8125  C 50 35.400390625  47.900390625 37.5  45.3125 37  L 4.6875 37  C 2.099609375 37.5  0 35.400390625  0 32.8125  L 0 12.8515625  C 0 12.36328125  0.556640625 12.08984375  0.9472656249999999 12.392578125000002  C 3.134765625 14.091796875  6.03515625 16.25  15.996093750000002 23.486328125000004  C 18.056640625 24.990234375  21.533203125 28.154296875  25 28.134765625  C 28.486328125 28.1640625  32.03125 24.931640625  34.013671875 23.486328125000004  Z M 17.83203125 20.95703125  C 19.47265625 22.1484375  22.734375 25.0390625  25 25  C 27.265625 25.0390625  30.527343750000004 22.1484375  32.16796875 20.95703125  C 45.126953125 11.552734375  46.11328125 10.732421875  49.1015625 8.388671875  C 49.66796875 7.94921875  50 7.265625  50 6.54296875  L 50 4.6875  C 50 2.099609375  47.900390625 0  45.3125 0  L 4.6875 0  C 2.099609375 0  0 2.099609375  0 4.6875  L 0 6.54296875  C 0 7.265625  0.33203125 7.939453125  0.8984374999999999 8.388671875  C 3.8867187499999996 10.722656250000002  4.873046875 11.552734375  17.83203125 20.95703125  Z " fill-rule="evenodd" />
    </mask>
  </defs>
  <g>
    <path d="M 34.013671875 23.486328125000004  C 43.974609375 16.25  46.865234375 14.08203125  49.052734375 12.3828125  C 49.43359375 12.080078125  50 12.36328125  50 12.841796874999998  L 50 32.8125  C 50 35.400390625  47.900390625 37.5  45.3125 37  L 4.6875 37  C 2.099609375 37.5  0 35.400390625  0 32.8125  L 0 12.8515625  C 0 12.36328125  0.556640625 12.08984375  0.9472656249999999 12.392578125000002  C 3.134765625 14.091796875  6.03515625 16.25  15.996093750000002 23.486328125000004  C 18.056640625 24.990234375  21.533203125 28.154296875  25 28.134765625  C 28.486328125 28.1640625  32.03125 24.931640625  34.013671875 23.486328125000004  Z M 17.83203125 20.95703125  C 19.47265625 22.1484375  22.734375 25.0390625  25 25  C 27.265625 25.0390625  30.527343750000004 22.1484375  32.16796875 20.95703125  C 45.126953125 11.552734375  46.11328125 10.732421875  49.1015625 8.388671875  C 49.66796875 7.94921875  50 7.265625  50 6.54296875  L 50 4.6875  C 50 2.099609375  47.900390625 0  45.3125 0  L 4.6875 0  C 2.099609375 0  0 2.099609375  0 4.6875  L 0 6.54296875  C 0 7.265625  0.33203125 7.939453125  0.8984374999999999 8.388671875  C 3.8867187499999996 10.722656250000002  4.873046875 11.552734375  17.83203125 20.95703125  Z " fill-rule="nonzero" fill="rgba(0, 0, 0, 1)" stroke="none" class="fill" />
    <path d="M 34.013671875 23.486328125000004  C 43.974609375 16.25  46.865234375 14.08203125  49.052734375 12.3828125  C 49.43359375 12.080078125  50 12.36328125  50 12.841796874999998  L 50 32.8125  C 50 35.400390625  47.900390625 37.5  45.3125 37  L 4.6875 37  C 2.099609375 37.5  0 35.400390625  0 32.8125  L 0 12.8515625  C 0 12.36328125  0.556640625 12.08984375  0.9472656249999999 12.392578125000002  C 3.134765625 14.091796875  6.03515625 16.25  15.996093750000002 23.486328125000004  C 18.056640625 24.990234375  21.533203125 28.154296875  25 28.134765625  C 28.486328125 28.1640625  32.03125 24.931640625  34.013671875 23.486328125000004  Z " stroke-width="0" stroke-dasharray="0" stroke="rgba(255, 255, 255, 0)" fill="none" class="stroke" mask="url(#Clip1507)" />
    <path d="M 17.83203125 20.95703125  C 19.47265625 22.1484375  22.734375 25.0390625  25 25  C 27.265625 25.0390625  30.527343750000004 22.1484375  32.16796875 20.95703125  C 45.126953125 11.552734375  46.11328125 10.732421875  49.1015625 8.388671875  C 49.66796875 7.94921875  50 7.265625  50 6.54296875  L 50 4.6875  C 50 2.099609375  47.900390625 0  45.3125 0  L 4.6875 0  C 2.099609375 0  0 2.099609375  0 4.6875  L 0 6.54296875  C 0 7.265625  0.33203125 7.939453125  0.8984374999999999 8.388671875  C 3.8867187499999996 10.722656250000002  4.873046875 11.552734375  17.83203125 20.95703125  Z " stroke-width="0" stroke-dasharray="0" stroke="rgba(255, 255, 255, 0)" fill="none" class="stroke" mask="url(#Clip1507)" />
  </g>
</svg>