<?xml version="1.0" encoding="utf-8"?>
<svg version="1.1" xmlns:xlink="http://www.w3.org/1999/xlink" width="48px" height="48px" xmlns="http://www.w3.org/2000/svg">
  <defs>
    <pattern id="BGPattern" patternUnits="userSpaceOnUse" alignment="0 0" imageRepeat="None" />
    <mask fill="white" id="Clip7518">
      <path d="M 19.78 32.55  L 11.344 13.548  L 11.344 9.834  L 17.672 6.1899999999999995  L 7.120000000000001 0.01  L 0.794 3.7040000000000006  L 0.794 8.23  L 15.04 42.82  L 24 47.99  L 24 34.998000000000005  L 28.214 32.550000000000004  L 28.166000000000004 32.52  L 36.656 13.548000000000002  L 36.656 9.834  L 47.206 3.7039999999999997  L 40.878 0.01  L 30.333999999999996 6.183999999999999  L 30.328000000000003 6.183999999999999  L 30.328000000000003 10.404  L 24 25.168  L 24 30.102000000000004  L 19.78 32.55  Z M 17.672 10.404  L 17.672 6.228  L 17.628 6.200000000000001  L 11.344 9.834  L 11.344 13.548  L 19.78 32.55  L 24 30.468000000000004  L 24 25.168  L 17.672 10.404  Z M 47.206 3.7040000000000006  L 36.656000000000006 9.834  L 36.656000000000006 13.548  L 28.216000000000008 31.75  L 24 34.664  L 24 47.99  L 33.042 42.776  L 47.206 8.1  L 47.206 3.7040000000000006  Z " fill-rule="evenodd" />
    </mask>
  </defs>
  <g>
    <path d="M 19.78 32.55  L 11.344 13.548  L 11.344 9.834  L 17.672 6.1899999999999995  L 7.120000000000001 0.01  L 0.794 3.7040000000000006  L 0.794 8.23  L 15.04 42.82  L 24 47.99  L 24 34.998000000000005  L 28.214 32.550000000000004  L 28.166000000000004 32.52  L 36.656 13.548000000000002  L 36.656 9.834  L 47.206 3.7039999999999997  L 40.878 0.01  L 30.333999999999996 6.183999999999999  L 30.328000000000003 6.183999999999999  L 30.328000000000003 10.404  L 24 25.168  L 24 30.102000000000004  L 19.78 32.55  Z M 17.672 10.404  L 17.672 6.228  L 17.628 6.200000000000001  L 11.344 9.834  L 11.344 13.548  L 19.78 32.55  L 24 30.468000000000004  L 24 25.168  L 17.672 10.404  Z M 47.206 3.7040000000000006  L 36.656000000000006 9.834  L 36.656000000000006 13.548  L 28.216000000000008 31.75  L 24 34.664  L 24 47.99  L 33.042 42.776  L 47.206 8.1  L 47.206 3.7040000000000006  Z " fill-rule="nonzero" fill="rgba(21, 99, 255, 1)" stroke="none" class="fill" />
    <path d="M 19.78 32.55  L 11.344 13.548  L 11.344 9.834  L 17.672 6.1899999999999995  L 7.120000000000001 0.01  L 0.794 3.7040000000000006  L 0.794 8.23  L 15.04 42.82  L 24 47.99  L 24 34.998000000000005  L 28.214 32.550000000000004  L 28.166000000000004 32.52  L 36.656 13.548000000000002  L 36.656 9.834  L 47.206 3.7039999999999997  L 40.878 0.01  L 30.333999999999996 6.183999999999999  L 30.328000000000003 6.183999999999999  L 30.328000000000003 10.404  L 24 25.168  L 24 30.102000000000004  L 19.78 32.55  Z " stroke-width="0" stroke-dasharray="0" stroke="rgba(255, 255, 255, 0)" fill="none" class="stroke" mask="url(#Clip7518)" />
    <path d="M 17.672 10.404  L 17.672 6.228  L 17.628 6.200000000000001  L 11.344 9.834  L 11.344 13.548  L 19.78 32.55  L 24 30.468000000000004  L 24 25.168  L 17.672 10.404  Z " stroke-width="0" stroke-dasharray="0" stroke="rgba(255, 255, 255, 0)" fill="none" class="stroke" mask="url(#Clip7518)" />
    <path d="M 47.206 3.7040000000000006  L 36.656000000000006 9.834  L 36.656000000000006 13.548  L 28.216000000000008 31.75  L 24 34.664  L 24 47.99  L 33.042 42.776  L 47.206 8.1  L 47.206 3.7040000000000006  Z " stroke-width="0" stroke-dasharray="0" stroke="rgba(255, 255, 255, 0)" fill="none" class="stroke" mask="url(#Clip7518)" />
  </g>
</svg>