<?xml version="1.0" encoding="utf-8"?>
<svg version="1.1" xmlns:xlink="http://www.w3.org/1999/xlink" width="25px" height="20px" xmlns="http://www.w3.org/2000/svg">
  <defs>
    <pattern id="BGPattern" patternUnits="userSpaceOnUse" alignment="0 0" imageRepeat="None" />
    <mask fill="white" id="Clip2467">
      <path d="M 0.28125 8.306249999999995  L 8.068750000000001 19.106249999999996  C 8.441990704657837 19.627194442676902  9.043522648853934 19.936204273311418  9.684375 19.936204273311418  C 10.325227351146061 19.936204273311418  10.926759295342155 19.627194442676902  11.3 19.106250000000003  L 24.4625 0.8562500000000028  C 24.699999999999996 0.5250000000000021  24.4625 0.06250000000000355  24.05625 0.06250000000000355  L 21.125 0.06250000000000355  C 20.487499999999997 0.06250000000000355  19.88125 0.36875000000000213  19.50625 0.8937500000000043  L 9.6875 14.518749999999997  L 5.237500000000001 8.343749999999996  C 4.862500000000001 7.824999999999996  4.262499999999999 7.512499999999996  3.6187500000000017 7.512499999999996  L 0.6875 7.512499999999996  C 0.28125 7.512499999999996  0.04374999999999929 7.974999999999994  0.28125 8.306249999999995  Z " fill-rule="evenodd" />
    </mask>
  </defs>
  <g transform="matrix(1 0 0 1 -12 -15 )">
    <path d="M 0.28125 8.306249999999995  L 8.068750000000001 19.106249999999996  C 8.441990704657837 19.627194442676902  9.043522648853934 19.936204273311418  9.684375 19.936204273311418  C 10.325227351146061 19.936204273311418  10.926759295342155 19.627194442676902  11.3 19.106250000000003  L 24.4625 0.8562500000000028  C 24.699999999999996 0.5250000000000021  24.4625 0.06250000000000355  24.05625 0.06250000000000355  L 21.125 0.06250000000000355  C 20.487499999999997 0.06250000000000355  19.88125 0.36875000000000213  19.50625 0.8937500000000043  L 9.6875 14.518749999999997  L 5.237500000000001 8.343749999999996  C 4.862500000000001 7.824999999999996  4.262499999999999 7.512499999999996  3.6187500000000017 7.512499999999996  L 0.6875 7.512499999999996  C 0.28125 7.512499999999996  0.04374999999999929 7.974999999999994  0.28125 8.306249999999995  Z " fill-rule="nonzero" fill="rgba(0, 0, 0, 1)" stroke="none" transform="matrix(1 0 0 1 12 15 )" class="fill" />
    <path d="M 0.28125 8.306249999999995  L 8.068750000000001 19.106249999999996  C 8.441990704657837 19.627194442676902  9.043522648853934 19.936204273311418  9.684375 19.936204273311418  C 10.325227351146061 19.936204273311418  10.926759295342155 19.627194442676902  11.3 19.106250000000003  L 24.4625 0.8562500000000028  C 24.699999999999996 0.5250000000000021  24.4625 0.06250000000000355  24.05625 0.06250000000000355  L 21.125 0.06250000000000355  C 20.487499999999997 0.06250000000000355  19.88125 0.36875000000000213  19.50625 0.8937500000000043  L 9.6875 14.518749999999997  L 5.237500000000001 8.343749999999996  C 4.862500000000001 7.824999999999996  4.262499999999999 7.512499999999996  3.6187500000000017 7.512499999999996  L 0.6875 7.512499999999996  C 0.28125 7.512499999999996  0.04374999999999929 7.974999999999994  0.28125 8.306249999999995  Z " stroke-width="0" stroke-dasharray="0" stroke="rgba(255, 255, 255, 0)" fill="none" transform="matrix(1 0 0 1 12 15 )" class="stroke" mask="url(#Clip2467)" />
  </g>
</svg>