<?xml version="1.0" encoding="utf-8"?>
<svg version="1.1" xmlns:xlink="http://www.w3.org/1999/xlink" width="18px" height="24px" xmlns="http://www.w3.org/2000/svg">
  <defs>
    <pattern id="BGPattern" patternUnits="userSpaceOnUse" alignment="0 0" imageRepeat="None" />
    <mask fill="white" id="Clip5523">
      <path d="M 0 21  L 0 3  C 0 1.3431457505076196  1.3431457505076194 0  3 0  L 10.939499999999999 0  C 11.33729222021822 8.495610824209971E-05  11.718760902963812 0.15817593778357192  12 0.4395  L 17.5605 6  C 17.84182406221643 6.281239097036188  17.999915043891757 6.662707779781778  18 7.060499999999999  L 18 21  C 18 22.65685424949238  16.65685424949238 24  15 24  L 3 24  C 1.3431457505076194 24  0 22.65685424949238  0 21  Z M 16.5 13.5  L 1.5 13.5  L 1.5 15  L 4.5 15  L 4.5 18  L 1.5 18  L 1.5 19.5  L 4.5 19.5  L 4.5 22.5  L 6 22.5  L 6 19.5  L 10.5 19.5  L 10.5 22.5  L 12 22.5  L 12 19.5  L 16.5 19.5  L 16.5 18  L 12 18  L 12 15  L 16.5 15  L 16.5 13.5  Z M 11.25 2.25  L 10.5 6  C 10.5 6.82842712474619  11.17157287525381 7.5  12 7.5  L 15.75 6.75  L 11.25 2.25  Z M 10.5 18  L 6 18  L 6 15  L 10.5 15  L 10.5 18  Z " fill-rule="evenodd" />
    </mask>
  </defs>
  <g>
    <path d="M 0 21  L 0 3  C 0 1.3431457505076196  1.3431457505076194 0  3 0  L 10.939499999999999 0  C 11.33729222021822 8.495610824209971E-05  11.718760902963812 0.15817593778357192  12 0.4395  L 17.5605 6  C 17.84182406221643 6.281239097036188  17.999915043891757 6.662707779781778  18 7.060499999999999  L 18 21  C 18 22.65685424949238  16.65685424949238 24  15 24  L 3 24  C 1.3431457505076194 24  0 22.65685424949238  0 21  Z M 16.5 13.5  L 1.5 13.5  L 1.5 15  L 4.5 15  L 4.5 18  L 1.5 18  L 1.5 19.5  L 4.5 19.5  L 4.5 22.5  L 6 22.5  L 6 19.5  L 10.5 19.5  L 10.5 22.5  L 12 22.5  L 12 19.5  L 16.5 19.5  L 16.5 18  L 12 18  L 12 15  L 16.5 15  L 16.5 13.5  Z M 11.25 2.25  L 10.5 6  C 10.5 6.82842712474619  11.17157287525381 7.5  12 7.5  L 15.75 6.75  L 11.25 2.25  Z M 10.5 18  L 6 18  L 6 15  L 10.5 15  L 10.5 18  Z " fill-rule="nonzero" fill="rgba(0, 0, 0, 1)" stroke="none" class="fill" />
    <path d="M 0 21  L 0 3  C 0 1.3431457505076196  1.3431457505076194 0  3 0  L 10.939499999999999 0  C 11.33729222021822 8.495610824209971E-05  11.718760902963812 0.15817593778357192  12 0.4395  L 17.5605 6  C 17.84182406221643 6.281239097036188  17.999915043891757 6.662707779781778  18 7.060499999999999  L 18 21  C 18 22.65685424949238  16.65685424949238 24  15 24  L 3 24  C 1.3431457505076194 24  0 22.65685424949238  0 21  Z " stroke-width="0" stroke-dasharray="0" stroke="rgba(255, 255, 255, 0)" fill="none" class="stroke" mask="url(#Clip5523)" />
    <path d="M 16.5 13.5  L 1.5 13.5  L 1.5 15  L 4.5 15  L 4.5 18  L 1.5 18  L 1.5 19.5  L 4.5 19.5  L 4.5 22.5  L 6 22.5  L 6 19.5  L 10.5 19.5  L 10.5 22.5  L 12 22.5  L 12 19.5  L 16.5 19.5  L 16.5 18  L 12 18  L 12 15  L 16.5 15  L 16.5 13.5  Z " stroke-width="0" stroke-dasharray="0" stroke="rgba(255, 255, 255, 0)" fill="none" class="stroke" mask="url(#Clip5523)" />
    <path d="M 11.25 2.25  L 10.5 6  C 10.5 6.82842712474619  11.17157287525381 7.5  12 7.5  L 15.75 6.75  L 11.25 2.25  Z " stroke-width="0" stroke-dasharray="0" stroke="rgba(255, 255, 255, 0)" fill="none" class="stroke" mask="url(#Clip5523)" />
    <path d="M 10.5 18  L 6 18  L 6 15  L 10.5 15  L 10.5 18  Z " stroke-width="0" stroke-dasharray="0" stroke="rgba(255, 255, 255, 0)" fill="none" class="stroke" mask="url(#Clip5523)" />
  </g>
</svg>