<?xml version="1.0" encoding="utf-8"?>
<svg version="1.1" xmlns:xlink="http://www.w3.org/1999/xlink" width="44px" height="50px" xmlns="http://www.w3.org/2000/svg">
  <defs>
    <pattern id="BGPattern" patternUnits="userSpaceOnUse" alignment="0 0" imageRepeat="None" />
    <mask fill="white" id="Clip2116">
      <path d="M 9.375 12.5  C 9.375 19.404296875  14.970703125000002 25  21.875 25  C 28.779296875 25  34.375 19.404296875  34.375 12.5  C 34.375 5.595703125  28.779296875 0  21.875 0  C 14.970703125000002 0  9.375 5.595703125  9.375 12.5  Z M 43.75 41.25  C 43.75 34.00390625  37.87109375 28.125  30.625 28.125  L 28.994140625 28.125  C 26.826171875000004 29.12109375  24.414062499999996 29.6875  21.875 29.6875  C 19.3359375 29.6875  16.93359375 29.12109375  14.755859375000002 28.125  L 13.125 28.125  C 5.87890625 28.125  0 34.00390625  0 41.25  L 0 45.3125  C 0 47.900390625  2.099609375 50  4.6875 50  L 39.0625 50  C 41.650390625 50  43.75 47.900390625  43.75 45.3125  L 43.75 41.25  Z " fill-rule="evenodd" />
    </mask>
  </defs>
  <g>
    <path d="M 9.375 12.5  C 9.375 19.404296875  14.970703125000002 25  21.875 25  C 28.779296875 25  34.375 19.404296875  34.375 12.5  C 34.375 5.595703125  28.779296875 0  21.875 0  C 14.970703125000002 0  9.375 5.595703125  9.375 12.5  Z M 43.75 41.25  C 43.75 34.00390625  37.87109375 28.125  30.625 28.125  L 28.994140625 28.125  C 26.826171875000004 29.12109375  24.414062499999996 29.6875  21.875 29.6875  C 19.3359375 29.6875  16.93359375 29.12109375  14.755859375000002 28.125  L 13.125 28.125  C 5.87890625 28.125  0 34.00390625  0 41.25  L 0 45.3125  C 0 47.900390625  2.099609375 50  4.6875 50  L 39.0625 50  C 41.650390625 50  43.75 47.900390625  43.75 45.3125  L 43.75 41.25  Z " fill-rule="nonzero" fill="rgba(0, 0, 0, 1)" stroke="none" class="fill" />
    <path d="M 9.375 12.5  C 9.375 19.404296875  14.970703125000002 25  21.875 25  C 28.779296875 25  34.375 19.404296875  34.375 12.5  C 34.375 5.595703125  28.779296875 0  21.875 0  C 14.970703125000002 0  9.375 5.595703125  9.375 12.5  Z " stroke-width="0" stroke-dasharray="0" stroke="rgba(255, 255, 255, 0)" fill="none" class="stroke" mask="url(#Clip2116)" />
    <path d="M 43.75 41.25  C 43.75 34.00390625  37.87109375 28.125  30.625 28.125  L 28.994140625 28.125  C 26.826171875000004 29.12109375  24.414062499999996 29.6875  21.875 29.6875  C 19.3359375 29.6875  16.93359375 29.12109375  14.755859375000002 28.125  L 13.125 28.125  C 5.87890625 28.125  0 34.00390625  0 41.25  L 0 45.3125  C 0 47.900390625  2.099609375 50  4.6875 50  L 39.0625 50  C 41.650390625 50  43.75 47.900390625  43.75 45.3125  L 43.75 41.25  Z " stroke-width="0" stroke-dasharray="0" stroke="rgba(255, 255, 255, 0)" fill="none" class="stroke" mask="url(#Clip2116)" />
  </g>
</svg>