<?xml version="1.0" encoding="utf-8"?>
<svg version="1.1" xmlns:xlink="http://www.w3.org/1999/xlink" width="48px" height="35px" xmlns="http://www.w3.org/2000/svg">
  <defs>
    <pattern id="BGPattern" patternUnits="userSpaceOnUse" alignment="0 0" imageRepeat="None" />
    <mask fill="white" id="Clip7192">
      <path d="M 27.625181102809584 3.1857049515638773  C 26.455233279357596 2.149654839351156  25.30981127430092 1.0877531888298635  24.188915087639558 0  C 24.188915087639558 0  22.359421607340703 1.5471151387744677  20.496122269253714 3.082298798329593  C 17.87717283568582 3.0676119406269513  15.272615562991732 3.4703785291878932  12.78043237408028 4.275446720263629  C 10.899235817164286 3.002755603533991  9.248714525155535 1.5908638959120478  9.248714525155535 1.5908638959120478  C 9.248714525155535 1.5908638959120478  7.838811397403484 4.185960626118577  6.953893355302406 5.707224226584474  C 5.578652856536109 6.4514841907483405  4.298627840036309 7.359587488838963  3.141785744723162 8.411692849634955  C 1.7756313741086909 7.835004687366835  0.18874463793642327 7.123093093946196  0.1370415613192817 7.101218715377405  C 1.9486378227891263 11.010766739581262  3.1676372830317328 14.926280503394787  6.480611346268573 17.28075906934462  C 11.75830232095679 8.365955512627485  36.27550353683134 9.187238998892076  41.66057782449362 17.23104457259737  C 45.14059259680123 15.28820203971478  46.492826908326464 11.110195733075766  47.862958438680714 7.25235078548905  C 47.713814948438966 7.304053862106191  45.85051561035198 7.972216698389252  44.64344762932871 8.465384506121987  C 43.62185384384791 7.4251877704089235  42.488063609867226 6.501482197430544  41.262861850515606 5.711201386324256  C 40.528413018569545 4.295332518962532  39.77871840762099 2.888743690993628  39.01377801766995 1.4914349024175455  C 37.86636743274339 -0.6045282804465772  37.43484560097724 2.7482173801880636  35.6033635408085 4.120337490412204  C 32.99044487777823 3.493502527752297  30.31222977937989 3.179753500771436  27.625181102809584 3.1857049515638773  Z M 2.008295218885824 15.415471151387743  L 2.010283798755718 15.411493991647964  L 6.363285133945059 26.688730433794493  C 13.919888639527287 37.35945001562456  33.225022016419985 38.101190307093546  41.64069202579471 26.89554274026306  C 43.629271895684774 22.093122354478563  46.31385472003636 15.345870855941593  46.31385472003636 15.345870855941593  C 44.27790339158723 18.268544982414742  41.59716730522039 20.683929019623445  38.47885003266953 22.405329394051304  C 36.85571448734276 23.113040773089164  35.1447908941148 23.59929622745849  33.392062725490746 23.851026959461375  L 24.07755461492571 18.68668503735689  L 14.711343427743525 23.747620806227093  C 12.971969385623833 23.46170504728342  11.267153563983136 22.995179998359067  9.624556120564755 22.35561489730405  C 6.62270185502555 20.608062616854046  4.026583759623142 18.2424093132106  2.008295218885824 15.415471151387743  Z " fill-rule="evenodd" />
    </mask>
  </defs>
  <g>
    <path d="M 27.625181102809584 3.1857049515638773  C 26.455233279357596 2.149654839351156  25.30981127430092 1.0877531888298635  24.188915087639558 0  C 24.188915087639558 0  22.359421607340703 1.5471151387744677  20.496122269253714 3.082298798329593  C 17.87717283568582 3.0676119406269513  15.272615562991732 3.4703785291878932  12.78043237408028 4.275446720263629  C 10.899235817164286 3.002755603533991  9.248714525155535 1.5908638959120478  9.248714525155535 1.5908638959120478  C 9.248714525155535 1.5908638959120478  7.838811397403484 4.185960626118577  6.953893355302406 5.707224226584474  C 5.578652856536109 6.4514841907483405  4.298627840036309 7.359587488838963  3.141785744723162 8.411692849634955  C 1.7756313741086909 7.835004687366835  0.18874463793642327 7.123093093946196  0.1370415613192817 7.101218715377405  C 1.9486378227891263 11.010766739581262  3.1676372830317328 14.926280503394787  6.480611346268573 17.28075906934462  C 11.75830232095679 8.365955512627485  36.27550353683134 9.187238998892076  41.66057782449362 17.23104457259737  C 45.14059259680123 15.28820203971478  46.492826908326464 11.110195733075766  47.862958438680714 7.25235078548905  C 47.713814948438966 7.304053862106191  45.85051561035198 7.972216698389252  44.64344762932871 8.465384506121987  C 43.62185384384791 7.4251877704089235  42.488063609867226 6.501482197430544  41.262861850515606 5.711201386324256  C 40.528413018569545 4.295332518962532  39.77871840762099 2.888743690993628  39.01377801766995 1.4914349024175455  C 37.86636743274339 -0.6045282804465772  37.43484560097724 2.7482173801880636  35.6033635408085 4.120337490412204  C 32.99044487777823 3.493502527752297  30.31222977937989 3.179753500771436  27.625181102809584 3.1857049515638773  Z M 2.008295218885824 15.415471151387743  L 2.010283798755718 15.411493991647964  L 6.363285133945059 26.688730433794493  C 13.919888639527287 37.35945001562456  33.225022016419985 38.101190307093546  41.64069202579471 26.89554274026306  C 43.629271895684774 22.093122354478563  46.31385472003636 15.345870855941593  46.31385472003636 15.345870855941593  C 44.27790339158723 18.268544982414742  41.59716730522039 20.683929019623445  38.47885003266953 22.405329394051304  C 36.85571448734276 23.113040773089164  35.1447908941148 23.59929622745849  33.392062725490746 23.851026959461375  L 24.07755461492571 18.68668503735689  L 14.711343427743525 23.747620806227093  C 12.971969385623833 23.46170504728342  11.267153563983136 22.995179998359067  9.624556120564755 22.35561489730405  C 6.62270185502555 20.608062616854046  4.026583759623142 18.2424093132106  2.008295218885824 15.415471151387743  Z " fill-rule="nonzero" fill="rgba(255, 233, 83, 1)" stroke="none" class="fill" />
    <path d="M 27.625181102809584 3.1857049515638773  C 26.455233279357596 2.149654839351156  25.30981127430092 1.0877531888298635  24.188915087639558 0  C 24.188915087639558 0  22.359421607340703 1.5471151387744677  20.496122269253714 3.082298798329593  C 17.87717283568582 3.0676119406269513  15.272615562991732 3.4703785291878932  12.78043237408028 4.275446720263629  C 10.899235817164286 3.002755603533991  9.248714525155535 1.5908638959120478  9.248714525155535 1.5908638959120478  C 9.248714525155535 1.5908638959120478  7.838811397403484 4.185960626118577  6.953893355302406 5.707224226584474  C 5.578652856536109 6.4514841907483405  4.298627840036309 7.359587488838963  3.141785744723162 8.411692849634955  C 1.7756313741086909 7.835004687366835  0.18874463793642327 7.123093093946196  0.1370415613192817 7.101218715377405  C 1.9486378227891263 11.010766739581262  3.1676372830317328 14.926280503394787  6.480611346268573 17.28075906934462  C 11.75830232095679 8.365955512627485  36.27550353683134 9.187238998892076  41.66057782449362 17.23104457259737  C 45.14059259680123 15.28820203971478  46.492826908326464 11.110195733075766  47.862958438680714 7.25235078548905  C 47.713814948438966 7.304053862106191  45.85051561035198 7.972216698389252  44.64344762932871 8.465384506121987  C 43.62185384384791 7.4251877704089235  42.488063609867226 6.501482197430544  41.262861850515606 5.711201386324256  C 40.528413018569545 4.295332518962532  39.77871840762099 2.888743690993628  39.01377801766995 1.4914349024175455  C 37.86636743274339 -0.6045282804465772  37.43484560097724 2.7482173801880636  35.6033635408085 4.120337490412204  C 32.99044487777823 3.493502527752297  30.31222977937989 3.179753500771436  27.625181102809584 3.1857049515638773  Z " stroke-width="0" stroke-dasharray="0" stroke="rgba(255, 255, 255, 0)" fill="none" class="stroke" mask="url(#Clip7192)" />
    <path d="M 2.008295218885824 15.415471151387743  L 2.010283798755718 15.411493991647964  L 6.363285133945059 26.688730433794493  C 13.919888639527287 37.35945001562456  33.225022016419985 38.101190307093546  41.64069202579471 26.89554274026306  C 43.629271895684774 22.093122354478563  46.31385472003636 15.345870855941593  46.31385472003636 15.345870855941593  C 44.27790339158723 18.268544982414742  41.59716730522039 20.683929019623445  38.47885003266953 22.405329394051304  C 36.85571448734276 23.113040773089164  35.1447908941148 23.59929622745849  33.392062725490746 23.851026959461375  L 24.07755461492571 18.68668503735689  L 14.711343427743525 23.747620806227093  C 12.971969385623833 23.46170504728342  11.267153563983136 22.995179998359067  9.624556120564755 22.35561489730405  C 6.62270185502555 20.608062616854046  4.026583759623142 18.2424093132106  2.008295218885824 15.415471151387743  Z " stroke-width="0" stroke-dasharray="0" stroke="rgba(255, 255, 255, 0)" fill="none" class="stroke" mask="url(#Clip7192)" />
  </g>
</svg>