<?xml version="1.0" encoding="utf-8"?>
<svg version="1.1" xmlns:xlink="http://www.w3.org/1999/xlink" width="24px" height="23px" xmlns="http://www.w3.org/2000/svg">
  <defs>
    <pattern id="BGPattern" patternUnits="userSpaceOnUse" alignment="0 0" imageRepeat="None" />
    <mask fill="white" id="Clip5077">
      <path d="M 8.479500000000002 21.041  C 7.699500000000001 21.4355  6.021000000000001 22.154  3.2775 22.698500000000003  C 2.922102702445761 22.768952726444766  2.5655529288435868 22.8334617317669  2.208 22.892  C 1.908 22.939999999999998  1.6800000000000002 22.628  1.7984999999999998 22.348999999999997  C 1.9316876667269058 22.034898809699676  2.0537634418324773 21.71620098698554  2.1645 21.393499999999996  L 2.1689999999999996 21.3785  C 2.5409999999999995 20.298499999999997  2.8439999999999994 19.0565  2.9549999999999996 17.9  C 1.1145 16.055  0 13.64  0 11  C 0 5.2010000000000005  5.372999999999999 0.5  12 0.5  C 18.627 0.5  24 5.2010000000000005  24 11  C 24 16.799  18.627 21.5  12 21.500000000000004  C 10.811477639535862 21.50160220727483  9.627880178039874 21.34728570824723  8.479500000000002 21.041  Z M 1.5 11  C 1.5 13.201999999999998  2.4255 15.245000000000001  4.0169999999999995 16.841  C 4.332226462803646 17.157431124763566  4.490040328037855 17.597880274772628  4.4475 18.0425  C 4.342078398780599 19.05886712429438  4.142215105198678 20.063205282997497  3.8504999999999994 21.0425  C 5.943 20.558  7.221 19.997  7.801499999999999 19.703  C 8.130754732945885 19.536237389651212  8.50993350735541 19.496717348374727  8.866499999999998 19.592  C 9.88865227593026 19.864502076243618  10.942148471491862 20.00167343344455  12 20  C 17.994 20  22.5 15.7895  22.5 11  C 22.5 6.212000000000001  17.994 2  12 2  C 6.005999999999999 2  1.5 6.212000000000001  1.5 11  Z " fill-rule="evenodd" />
    </mask>
  </defs>
  <g>
    <path d="M 8.479500000000002 21.041  C 7.699500000000001 21.4355  6.021000000000001 22.154  3.2775 22.698500000000003  C 2.922102702445761 22.768952726444766  2.5655529288435868 22.8334617317669  2.208 22.892  C 1.908 22.939999999999998  1.6800000000000002 22.628  1.7984999999999998 22.348999999999997  C 1.9316876667269058 22.034898809699676  2.0537634418324773 21.71620098698554  2.1645 21.393499999999996  L 2.1689999999999996 21.3785  C 2.5409999999999995 20.298499999999997  2.8439999999999994 19.0565  2.9549999999999996 17.9  C 1.1145 16.055  0 13.64  0 11  C 0 5.2010000000000005  5.372999999999999 0.5  12 0.5  C 18.627 0.5  24 5.2010000000000005  24 11  C 24 16.799  18.627 21.5  12 21.500000000000004  C 10.811477639535862 21.50160220727483  9.627880178039874 21.34728570824723  8.479500000000002 21.041  Z M 1.5 11  C 1.5 13.201999999999998  2.4255 15.245000000000001  4.0169999999999995 16.841  C 4.332226462803646 17.157431124763566  4.490040328037855 17.597880274772628  4.4475 18.0425  C 4.342078398780599 19.05886712429438  4.142215105198678 20.063205282997497  3.8504999999999994 21.0425  C 5.943 20.558  7.221 19.997  7.801499999999999 19.703  C 8.130754732945885 19.536237389651212  8.50993350735541 19.496717348374727  8.866499999999998 19.592  C 9.88865227593026 19.864502076243618  10.942148471491862 20.00167343344455  12 20  C 17.994 20  22.5 15.7895  22.5 11  C 22.5 6.212000000000001  17.994 2  12 2  C 6.005999999999999 2  1.5 6.212000000000001  1.5 11  Z " fill-rule="nonzero" fill="rgba(0, 0, 0, 1)" stroke="none" class="fill" />
    <path d="M 8.479500000000002 21.041  C 7.699500000000001 21.4355  6.021000000000001 22.154  3.2775 22.698500000000003  C 2.922102702445761 22.768952726444766  2.5655529288435868 22.8334617317669  2.208 22.892  C 1.908 22.939999999999998  1.6800000000000002 22.628  1.7984999999999998 22.348999999999997  C 1.9316876667269058 22.034898809699676  2.0537634418324773 21.71620098698554  2.1645 21.393499999999996  L 2.1689999999999996 21.3785  C 2.5409999999999995 20.298499999999997  2.8439999999999994 19.0565  2.9549999999999996 17.9  C 1.1145 16.055  0 13.64  0 11  C 0 5.2010000000000005  5.372999999999999 0.5  12 0.5  C 18.627 0.5  24 5.2010000000000005  24 11  C 24 16.799  18.627 21.5  12 21.500000000000004  C 10.811477639535862 21.50160220727483  9.627880178039874 21.34728570824723  8.479500000000002 21.041  Z " stroke-width="0" stroke-dasharray="0" stroke="rgba(255, 255, 255, 0)" fill="none" class="stroke" mask="url(#Clip5077)" />
    <path d="M 1.5 11  C 1.5 13.201999999999998  2.4255 15.245000000000001  4.0169999999999995 16.841  C 4.332226462803646 17.157431124763566  4.490040328037855 17.597880274772628  4.4475 18.0425  C 4.342078398780599 19.05886712429438  4.142215105198678 20.063205282997497  3.8504999999999994 21.0425  C 5.943 20.558  7.221 19.997  7.801499999999999 19.703  C 8.130754732945885 19.536237389651212  8.50993350735541 19.496717348374727  8.866499999999998 19.592  C 9.88865227593026 19.864502076243618  10.942148471491862 20.00167343344455  12 20  C 17.994 20  22.5 15.7895  22.5 11  C 22.5 6.212000000000001  17.994 2  12 2  C 6.005999999999999 2  1.5 6.212000000000001  1.5 11  Z " stroke-width="0" stroke-dasharray="0" stroke="rgba(255, 255, 255, 0)" fill="none" class="stroke" mask="url(#Clip5077)" />
  </g>
</svg>