<?xml version="1.0" encoding="utf-8"?>
<svg version="1.1" xmlns:xlink="http://www.w3.org/1999/xlink" width="62px" height="64px" xmlns="http://www.w3.org/2000/svg">
  <defs>
    <pattern id="BGPattern" patternUnits="userSpaceOnUse" alignment="0 0" imageRepeat="None" />
    <mask fill="white" id="Clip843">
      <path d="M 61.25 33.7875  C 62.25000000000001 32.800000000000004  62.25000000000001 31.200000000000003  61.25 30.2125  C 52.1375 21.125  40.075 8.975  31.0625 0  C 10.375 20.6125  0.75 30.2125  0.75 30.2125  C -0.23750000000000004 31.2  -0.23750000000000004 32.8  0.75 33.8  C 17.35 50.3375  8.475 41.4875  31.0625 64  C 78.4875 16.75  33.025 61.9125  61.25 33.7875  Z M 40.5625 32  L 31.0625 41.4625  L 21.5625 32  L 31.0625 22.5375  L 40.5625 32  Z " fill-rule="evenodd" />
    </mask>
  </defs>
  <g>
    <path d="M 61.25 33.7875  C 62.25000000000001 32.800000000000004  62.25000000000001 31.200000000000003  61.25 30.2125  C 52.1375 21.125  40.075 8.975  31.0625 0  C 10.375 20.6125  0.75 30.2125  0.75 30.2125  C -0.23750000000000004 31.2  -0.23750000000000004 32.8  0.75 33.8  C 17.35 50.3375  8.475 41.4875  31.0625 64  C 78.4875 16.75  33.025 61.9125  61.25 33.7875  Z M 40.5625 32  L 31.0625 41.4625  L 21.5625 32  L 31.0625 22.5375  L 40.5625 32  Z " fill-rule="nonzero" fill="rgba(0, 0, 0, 1)" stroke="none" class="fill" />
    <path d="M 61.25 33.7875  C 62.25000000000001 32.800000000000004  62.25000000000001 31.200000000000003  61.25 30.2125  C 52.1375 21.125  40.075 8.975  31.0625 0  C 10.375 20.6125  0.75 30.2125  0.75 30.2125  C -0.23750000000000004 31.2  -0.23750000000000004 32.8  0.75 33.8  C 17.35 50.3375  8.475 41.4875  31.0625 64  C 78.4875 16.75  33.025 61.9125  61.25 33.7875  Z " stroke-width="0" stroke-dasharray="0" stroke="rgba(255, 255, 255, 0)" fill="none" class="stroke" mask="url(#Clip843)" />
    <path d="M 40.5625 32  L 31.0625 41.4625  L 21.5625 32  L 31.0625 22.5375  L 40.5625 32  Z " stroke-width="0" stroke-dasharray="0" stroke="rgba(255, 255, 255, 0)" fill="none" class="stroke" mask="url(#Clip843)" />
  </g>
</svg>