<?xml version="1.0" encoding="utf-8"?>
<svg version="1.1" xmlns:xlink="http://www.w3.org/1999/xlink" width="48px" height="48px" xmlns="http://www.w3.org/2000/svg">
  <defs>
    <pattern id="BGPattern" patternUnits="userSpaceOnUse" alignment="0 0" imageRepeat="None" />
    <mask fill="white" id="Clip6634">
      <path d="M 48 24  C 48 10.740000000000002  37.26 0  24 0  C 10.74 0  0 10.74  0 24  C 0 36.18  9.06 46.22  20.8 47.8  L 20.8 43  C 20.820802030548816 41.6191953122297  19.948047591316076 40.38279318998332  18.64 39.94  C 11.660073159208117 37.58597301342061  7.023944765160782 30.964090324720132  7.199999999999999 23.6  C 7.386051547852491 14.39364372326235  14.972737511352602 7.0661025099878  24.18 7.199999999999999  C 33.39217446006452 7.29241393949923  40.81147561140116 14.786516742956437  40.81147561140116 23.999154726665488  C 40.81147561140116 24.206156176463423  40.80764975426669 24.413139947118573  40.8 24.62  L 40.78 24.76  C 40.76556565104046 25.013741994070315  40.74556082855546 25.267136412213574  40.72 25.519999999999996  C 40.72 25.659999999999997  40.7 25.799999999999997  40.68 25.92  C 40.68 26.08  40.66 26.24  40.64 26.38  L 40.6 26.58  C 38.54 40.14  20.9 47.74  20.8 47.8  C 21.84 47.94  22.92 48  24 48  C 37.26 48  48 37.26  48 24  Z " fill-rule="evenodd" />
    </mask>
  </defs>
  <g>
    <path d="M 48 24  C 48 10.740000000000002  37.26 0  24 0  C 10.74 0  0 10.74  0 24  C 0 36.18  9.06 46.22  20.8 47.8  L 20.8 43  C 20.820802030548816 41.6191953122297  19.948047591316076 40.38279318998332  18.64 39.94  C 11.660073159208117 37.58597301342061  7.023944765160782 30.964090324720132  7.199999999999999 23.6  C 7.386051547852491 14.39364372326235  14.972737511352602 7.0661025099878  24.18 7.199999999999999  C 33.39217446006452 7.29241393949923  40.81147561140116 14.786516742956437  40.81147561140116 23.999154726665488  C 40.81147561140116 24.206156176463423  40.80764975426669 24.413139947118573  40.8 24.62  L 40.78 24.76  C 40.76556565104046 25.013741994070315  40.74556082855546 25.267136412213574  40.72 25.519999999999996  C 40.72 25.659999999999997  40.7 25.799999999999997  40.68 25.92  C 40.68 26.08  40.66 26.24  40.64 26.38  L 40.6 26.58  C 38.54 40.14  20.9 47.74  20.8 47.8  C 21.84 47.94  22.92 48  24 48  C 37.26 48  48 37.26  48 24  Z " fill-rule="nonzero" fill="rgba(0, 202, 255, 1)" stroke="none" class="fill" />
    <path d="M 48 24  C 48 10.740000000000002  37.26 0  24 0  C 10.74 0  0 10.74  0 24  C 0 36.18  9.06 46.22  20.8 47.8  L 20.8 43  C 20.820802030548816 41.6191953122297  19.948047591316076 40.38279318998332  18.64 39.94  C 11.660073159208117 37.58597301342061  7.023944765160782 30.964090324720132  7.199999999999999 23.6  C 7.386051547852491 14.39364372326235  14.972737511352602 7.0661025099878  24.18 7.199999999999999  C 33.39217446006452 7.29241393949923  40.81147561140116 14.786516742956437  40.81147561140116 23.999154726665488  C 40.81147561140116 24.206156176463423  40.80764975426669 24.413139947118573  40.8 24.62  L 40.78 24.76  C 40.76556565104046 25.013741994070315  40.74556082855546 25.267136412213574  40.72 25.519999999999996  C 40.72 25.659999999999997  40.7 25.799999999999997  40.68 25.92  C 40.68 26.08  40.66 26.24  40.64 26.38  L 40.6 26.58  C 38.54 40.14  20.9 47.74  20.8 47.8  C 21.84 47.94  22.92 48  24 48  C 37.26 48  48 37.26  48 24  Z " stroke-width="0" stroke-dasharray="0" stroke="rgba(255, 255, 255, 0)" fill="none" class="stroke" mask="url(#Clip6634)" />
  </g>
</svg>