<?xml version="1.0" encoding="utf-8"?>
<svg version="1.1" xmlns:xlink="http://www.w3.org/1999/xlink" width="65px" height="64px" xmlns="http://www.w3.org/2000/svg">
  <defs>
    <pattern id="BGPattern" patternUnits="userSpaceOnUse" alignment="0 0" imageRepeat="None" />
    <mask fill="white" id="Clip1350">
      <path d="M 53.575 37.625  C 62.5375 32.2625  66.65 20.9375  62.1875 11.5  C 58.7 4.1375  51.475 0  44.05 0  C 40.5625 0  37.025 0.9125  33.824999999999996 2.825  L 30.3875 4.875  C 28.4875 6.0125  27.875 8.4625  29.0125 10.3625  L 33.1125 17.225  C 33.8625 18.475  35.1875 19.175  36.55 19.175  C 37.25 19.175  37.949999999999996 18.9875  38.599999999999994 18.6125  L 42.037499999999994 16.5625  C 42.675 16.175  43.387499999999996 16  44.08749999999999 16  C 45.44999999999999 16  46.77499999999999 16.7  47.52499999999999 17.95  C 48.662499999999994 19.8375  48.037499999999994 22.299999999999997  46.14999999999999 23.4375  L 1.95 49.7  C 0.050000000000000044 50.837500000000006  -0.5625000000000002 53.2875  0.575 55.1875  L 4.675 62.05  C 5.425 63.3  6.75 64  8.1125 64  C 8.8125 64  9.512500000000001 63.8125  10.162500000000001 63.4375  L 53.575 37.625  Z M 43.462500000000006 12.075  C 42.237500000000004 12.174999999999999  41.03750000000001 12.487499999999999  39.975 13.125  L 39.6625 13.3125  L 37.1 5.625  C 38.3125 5.0375  39.575 4.6125  40.8875 4.35  L 43.462500000000006 12.075  Z M 22.0875 51.6875  L 18.2375 53.975  L 10.675 49.1625  L 14.525 46.875  L 22.0875 51.6875  Z M 35.525000000000006 43.7  L 31.675 45.987500000000004  L 24.1125 41.175000000000004  L 27.962500000000002 38.8875  L 35.525000000000006 43.7  Z M 49.3875 35.4625  L 45.5375 37.75  L 37.975 32.9375  L 41.825 30.65  L 49.3875 35.4625  Z M 50.95 15.875  C 50.237500000000004 14.7125  49.237500000000004 13.7625  48.0875 13.087499999999999  L 53.8375 7.337499999999999  C 54.887499999999996 8.149999999999999  55.8375 9.099999999999998  56.662499999999994 10.162499999999998  L 50.95 15.875  Z M 59.61249999999999 22.7625  C 59.34999999999999 24.0625  58.92499999999999 25.3375  58.349999999999994 26.5625  L 50.912499999999994 24.0875  C 51.31249999999999 23.424999999999997  51.637499999999996 22.724999999999998  51.83749999999999 21.95  C 51.974999999999994 21.3875  52.04999999999999 20.8125  52.06249999999999 20.25  L 59.61249999999999 22.7625  Z " fill-rule="evenodd" />
    </mask>
  </defs>
  <g>
    <path d="M 53.575 37.625  C 62.5375 32.2625  66.65 20.9375  62.1875 11.5  C 58.7 4.1375  51.475 0  44.05 0  C 40.5625 0  37.025 0.9125  33.824999999999996 2.825  L 30.3875 4.875  C 28.4875 6.0125  27.875 8.4625  29.0125 10.3625  L 33.1125 17.225  C 33.8625 18.475  35.1875 19.175  36.55 19.175  C 37.25 19.175  37.949999999999996 18.9875  38.599999999999994 18.6125  L 42.037499999999994 16.5625  C 42.675 16.175  43.387499999999996 16  44.08749999999999 16  C 45.44999999999999 16  46.77499999999999 16.7  47.52499999999999 17.95  C 48.662499999999994 19.8375  48.037499999999994 22.299999999999997  46.14999999999999 23.4375  L 1.95 49.7  C 0.050000000000000044 50.837500000000006  -0.5625000000000002 53.2875  0.575 55.1875  L 4.675 62.05  C 5.425 63.3  6.75 64  8.1125 64  C 8.8125 64  9.512500000000001 63.8125  10.162500000000001 63.4375  L 53.575 37.625  Z M 43.462500000000006 12.075  C 42.237500000000004 12.174999999999999  41.03750000000001 12.487499999999999  39.975 13.125  L 39.6625 13.3125  L 37.1 5.625  C 38.3125 5.0375  39.575 4.6125  40.8875 4.35  L 43.462500000000006 12.075  Z M 22.0875 51.6875  L 18.2375 53.975  L 10.675 49.1625  L 14.525 46.875  L 22.0875 51.6875  Z M 35.525000000000006 43.7  L 31.675 45.987500000000004  L 24.1125 41.175000000000004  L 27.962500000000002 38.8875  L 35.525000000000006 43.7  Z M 49.3875 35.4625  L 45.5375 37.75  L 37.975 32.9375  L 41.825 30.65  L 49.3875 35.4625  Z M 50.95 15.875  C 50.237500000000004 14.7125  49.237500000000004 13.7625  48.0875 13.087499999999999  L 53.8375 7.337499999999999  C 54.887499999999996 8.149999999999999  55.8375 9.099999999999998  56.662499999999994 10.162499999999998  L 50.95 15.875  Z M 59.61249999999999 22.7625  C 59.34999999999999 24.0625  58.92499999999999 25.3375  58.349999999999994 26.5625  L 50.912499999999994 24.0875  C 51.31249999999999 23.424999999999997  51.637499999999996 22.724999999999998  51.83749999999999 21.95  C 51.974999999999994 21.3875  52.04999999999999 20.8125  52.06249999999999 20.25  L 59.61249999999999 22.7625  Z " fill-rule="nonzero" fill="rgba(0, 0, 0, 1)" stroke="none" class="fill" />
    <path d="M 53.575 37.625  C 62.5375 32.2625  66.65 20.9375  62.1875 11.5  C 58.7 4.1375  51.475 0  44.05 0  C 40.5625 0  37.025 0.9125  33.824999999999996 2.825  L 30.3875 4.875  C 28.4875 6.0125  27.875 8.4625  29.0125 10.3625  L 33.1125 17.225  C 33.8625 18.475  35.1875 19.175  36.55 19.175  C 37.25 19.175  37.949999999999996 18.9875  38.599999999999994 18.6125  L 42.037499999999994 16.5625  C 42.675 16.175  43.387499999999996 16  44.08749999999999 16  C 45.44999999999999 16  46.77499999999999 16.7  47.52499999999999 17.95  C 48.662499999999994 19.8375  48.037499999999994 22.299999999999997  46.14999999999999 23.4375  L 1.95 49.7  C 0.050000000000000044 50.837500000000006  -0.5625000000000002 53.2875  0.575 55.1875  L 4.675 62.05  C 5.425 63.3  6.75 64  8.1125 64  C 8.8125 64  9.512500000000001 63.8125  10.162500000000001 63.4375  L 53.575 37.625  Z " stroke-width="0" stroke-dasharray="0" stroke="rgba(255, 255, 255, 0)" fill="none" class="stroke" mask="url(#Clip1350)" />
    <path d="M 43.462500000000006 12.075  C 42.237500000000004 12.174999999999999  41.03750000000001 12.487499999999999  39.975 13.125  L 39.6625 13.3125  L 37.1 5.625  C 38.3125 5.0375  39.575 4.6125  40.8875 4.35  L 43.462500000000006 12.075  Z " stroke-width="0" stroke-dasharray="0" stroke="rgba(255, 255, 255, 0)" fill="none" class="stroke" mask="url(#Clip1350)" />
    <path d="M 22.0875 51.6875  L 18.2375 53.975  L 10.675 49.1625  L 14.525 46.875  L 22.0875 51.6875  Z " stroke-width="0" stroke-dasharray="0" stroke="rgba(255, 255, 255, 0)" fill="none" class="stroke" mask="url(#Clip1350)" />
    <path d="M 35.525000000000006 43.7  L 31.675 45.987500000000004  L 24.1125 41.175000000000004  L 27.962500000000002 38.8875  L 35.525000000000006 43.7  Z " stroke-width="0" stroke-dasharray="0" stroke="rgba(255, 255, 255, 0)" fill="none" class="stroke" mask="url(#Clip1350)" />
    <path d="M 49.3875 35.4625  L 45.5375 37.75  L 37.975 32.9375  L 41.825 30.65  L 49.3875 35.4625  Z " stroke-width="0" stroke-dasharray="0" stroke="rgba(255, 255, 255, 0)" fill="none" class="stroke" mask="url(#Clip1350)" />
    <path d="M 50.95 15.875  C 50.237500000000004 14.7125  49.237500000000004 13.7625  48.0875 13.087499999999999  L 53.8375 7.337499999999999  C 54.887499999999996 8.149999999999999  55.8375 9.099999999999998  56.662499999999994 10.162499999999998  L 50.95 15.875  Z " stroke-width="0" stroke-dasharray="0" stroke="rgba(255, 255, 255, 0)" fill="none" class="stroke" mask="url(#Clip1350)" />
    <path d="M 59.61249999999999 22.7625  C 59.34999999999999 24.0625  58.92499999999999 25.3375  58.349999999999994 26.5625  L 50.912499999999994 24.0875  C 51.31249999999999 23.424999999999997  51.637499999999996 22.724999999999998  51.83749999999999 21.95  C 51.974999999999994 21.3875  52.04999999999999 20.8125  52.06249999999999 20.25  L 59.61249999999999 22.7625  Z " stroke-width="0" stroke-dasharray="0" stroke="rgba(255, 255, 255, 0)" fill="none" class="stroke" mask="url(#Clip1350)" />
  </g>
</svg>