<?xml version="1.0" encoding="utf-8"?>
<svg version="1.1" xmlns:xlink="http://www.w3.org/1999/xlink" width="56px" height="56px" xmlns="http://www.w3.org/2000/svg">
  <defs>
    <pattern id="BGPattern" patternUnits="userSpaceOnUse" alignment="0 0" imageRepeat="None" />
    <mask fill="white" id="Clip2253">
      <path d="M 56 28  C 56 12.537500000000001  43.4625 0  28 0  C 12.537500000000001 0  0 12.537500000000001  0 28  C 0 43.4625  12.537500000000001 56  28 56  C 43.4625 56  56 43.4625  56 28  Z M 26 31.5  L 26 14.500000000000002  C 26 14.225000000000001  26.225 14  26.5 14  L 29.5 14  C 29.775 14  30 14.225000000000001  30 14.500000000000002  L 30 31.5  C 30 31.774999999999995  29.775 32  29.5 32  L 26.5 32  C 26.225 32  26 31.774999999999995  26 31.5  Z M 30.93938456707374 39  C 30.93938456707374 40.63333212871725  29.632991922066815 41.96666495590918  27.999999999999996 42  C 26.367008077933182 41.96666495590918  25.060615432926255 40.63333212871725  25.060615432926255 39  C 25.060615432926255 37.36666787128276  26.36700807793318 36.03333504409081  27.999999999999996 36  C 29.632991922066815 36.03333504409081  30.93938456707374 37.36666787128275  30.93938456707374 39  Z " fill-rule="evenodd" />
    </mask>
  </defs>
  <g>
    <path d="M 56 28  C 56 12.537500000000001  43.4625 0  28 0  C 12.537500000000001 0  0 12.537500000000001  0 28  C 0 43.4625  12.537500000000001 56  28 56  C 43.4625 56  56 43.4625  56 28  Z M 26 31.5  L 26 14.500000000000002  C 26 14.225000000000001  26.225 14  26.5 14  L 29.5 14  C 29.775 14  30 14.225000000000001  30 14.500000000000002  L 30 31.5  C 30 31.774999999999995  29.775 32  29.5 32  L 26.5 32  C 26.225 32  26 31.774999999999995  26 31.5  Z M 30.93938456707374 39  C 30.93938456707374 40.63333212871725  29.632991922066815 41.96666495590918  27.999999999999996 42  C 26.367008077933182 41.96666495590918  25.060615432926255 40.63333212871725  25.060615432926255 39  C 25.060615432926255 37.36666787128276  26.36700807793318 36.03333504409081  27.999999999999996 36  C 29.632991922066815 36.03333504409081  30.93938456707374 37.36666787128275  30.93938456707374 39  Z " fill-rule="nonzero" fill="rgba(0, 0, 0, 1)" stroke="none" class="fill" />
    <path d="M 56 28  C 56 12.537500000000001  43.4625 0  28 0  C 12.537500000000001 0  0 12.537500000000001  0 28  C 0 43.4625  12.537500000000001 56  28 56  C 43.4625 56  56 43.4625  56 28  Z " stroke-width="0" stroke-dasharray="0" stroke="rgba(255, 255, 255, 0)" fill="none" class="stroke" mask="url(#Clip2253)" />
    <path d="M 26 31.5  L 26 14.500000000000002  C 26 14.225000000000001  26.225 14  26.5 14  L 29.5 14  C 29.775 14  30 14.225000000000001  30 14.500000000000002  L 30 31.5  C 30 31.774999999999995  29.775 32  29.5 32  L 26.5 32  C 26.225 32  26 31.774999999999995  26 31.5  Z " stroke-width="0" stroke-dasharray="0" stroke="rgba(255, 255, 255, 0)" fill="none" class="stroke" mask="url(#Clip2253)" />
    <path d="M 30.93938456707374 39  C 30.93938456707374 40.63333212871725  29.632991922066815 41.96666495590918  27.999999999999996 42  C 26.367008077933182 41.96666495590918  25.060615432926255 40.63333212871725  25.060615432926255 39  C 25.060615432926255 37.36666787128276  26.36700807793318 36.03333504409081  27.999999999999996 36  C 29.632991922066815 36.03333504409081  30.93938456707374 37.36666787128275  30.93938456707374 39  Z " stroke-width="0" stroke-dasharray="0" stroke="rgba(255, 255, 255, 0)" fill="none" class="stroke" mask="url(#Clip2253)" />
  </g>
</svg>