<?xml version="1.0" encoding="utf-8"?>
<svg version="1.1" xmlns:xlink="http://www.w3.org/1999/xlink" width="26px" height="26px" xmlns="http://www.w3.org/2000/svg">
  <defs>
    <pattern id="BGPattern" patternUnits="userSpaceOnUse" alignment="0 0" imageRepeat="None" />
    <mask fill="white" id="Clip4736">
      <path d="M 9.469 4.218999999999999  L 12.469 1.2189999999999999  C 12.60970639451525 1.0779374489685476  12.800759108712638 0.9986593244718727  13 0.9986593244718727  C 13.199240891287362 0.9986593244718727  13.390293605484748 1.077937448968548  13.530999999999999 1.2189999999999999  L 16.531 4.218999999999999  C 16.671829956104794 4.359829956104797  16.750947401620117 4.550836366088188  16.750947401620117 4.75  C 16.750947401620117 5.164736797839851  16.41473679783985 5.500947401620113  16 5.500947401620113  C 15.800836366088186 5.500947401620113  15.609829956104798 5.421829956104798  15.468999999999996 5.281000000000001  L 13.75 3.5605  L 13.75 9.25  C 13.75 9.664213562373096  13.414213562373096 10  13 10  C 12.585786437626904 10  12.25 9.664213562373096  12.25 9.25  L 12.25 3.5605  L 10.531 5.281000000000001  C 10.390170043895202 5.421829956104798  10.199163633911812 5.500947401620113  10 5.500947401620113  C 9.585263202160151 5.500947401620113  9.249052598379887 5.164736797839849  9.249052598379887 4.75  C 9.249052598379887 4.550836366088188  9.328170043895202 4.3598299561047975  9.469 4.218999999999999  Z M 12.25 16.75  C 12.25 16.335786437626904  12.585786437626904 16  13 16  C 13.414213562373096 16  13.75 16.335786437626904  13.75 16.75  L 13.75 22.4395  L 15.469000000000001 20.718999999999998  C 15.609829956104798 20.578170043895202  15.80083636608819 20.499052598379883  16 20.499052598379883  C 16.41473679783985 20.499052598379883  16.750947401620117 20.83526320216015  16.750947401620117 21.25  C 16.750947401620117 21.449163633911812  16.671829956104798 21.6401700438952  16.531000000000002 21.781  L 13.531000000000002 24.781  C 13.390293605484755 24.922062551031452  13.199240891287362 25.00134067552813  13 25.00134067552813  C 12.800759108712633 25.00134067552813  12.609706394515253 24.922062551031452  12.469000000000001 24.781  L 9.469000000000001 21.781  C 9.328170043895204 21.640170043895203  9.249052598379887 21.44916363391181  9.249052598379887 21.25  C 9.249052598379887 20.83526320216015  9.585263202160153 20.499052598379883  10.000000000000002 20.499052598379883  C 10.199163633911814 20.499052598379883  10.390170043895203 20.578170043895202  10.531000000000002 20.718999999999998  L 12.25 22.4395  L 12.25 16.75  Z M 4.218999999999999 16.531000000000002  L 1.2189999999999999 13.530999999999999  C 1.0779374489685478 13.390293605484748  0.9986593244718721 13.199240891287362  0.9986593244718721 12.999999999999998  C 0.9986593244718721 12.800759108712636  1.0779374489685478 12.60970639451525  1.2189999999999999 12.468999999999998  L 4.218999999999999 9.468999999999998  C 4.3598299561047975 9.3281700438952  4.550836366088188 9.249052598379885  4.75 9.249052598379885  C 5.164736797839849 9.249052598379885  5.500947401620113 9.58526320216015  5.500947401620113 9.999999999999998  C 5.500947401620113 10.199163633911812  5.421829956104798 10.3901700438952  5.281000000000001 10.530999999999999  L 3.5605 12.25  L 9.25 12.25  C 9.664213562373096 12.25  10 12.585786437626904  10 13  C 10 13.414213562373096  9.664213562373096 13.75  9.25 13.75  L 3.5605 13.75  L 5.281000000000001 15.469000000000001  C 5.421829956104797 15.609829956104798  5.500947401620113 15.80083636608819  5.500947401620113 16  C 5.500947401620113 16.41473679783985  5.164736797839849 16.750947401620117  4.75 16.750947401620117  C 4.550836366088187 16.750947401620117  4.359829956104798 16.671829956104798  4.218999999999999 16.531000000000002  Z M 16.75 13.75  C 16.335786437626904 13.75  16 13.414213562373096  16 13  C 16 12.585786437626904  16.335786437626904 12.25  16.75 12.25  L 22.4395 12.25  L 20.718999999999998 10.531  C 20.578170043895202 10.390170043895203  20.499052598379883 10.199163633911812  20.499052598379883 10  C 20.499052598379883 9.58526320216015  20.83526320216015 9.249052598379887  21.25 9.249052598379887  C 21.449163633911812 9.249052598379887  21.640170043895203 9.328170043895202  21.781 9.469  L 24.781 12.469  C 24.922062551031452 12.609706394515252  25.001340675528127 12.800759108712638  25.001340675528127 13  C 25.001340675528127 13.199240891287362  24.922062551031452 13.390293605484748  24.781 13.530999999999999  L 21.781 16.531  C 21.640170043895203 16.671829956104794  21.44916363391181 16.750947401620117  21.25 16.750947401620117  C 20.83526320216015 16.750947401620117  20.499052598379883 16.41473679783985  20.499052598379883 16  C 20.499052598379883 15.800836366088186  20.578170043895202 15.609829956104798  20.718999999999998 15.468999999999996  L 22.4395 13.75  L 16.75 13.75  Z " fill-rule="evenodd" />
    </mask>
  </defs>
  <g>
    <path d="M 9.469 4.218999999999999  L 12.469 1.2189999999999999  C 12.60970639451525 1.0779374489685476  12.800759108712638 0.9986593244718727  13 0.9986593244718727  C 13.199240891287362 0.9986593244718727  13.390293605484748 1.077937448968548  13.530999999999999 1.2189999999999999  L 16.531 4.218999999999999  C 16.671829956104794 4.359829956104797  16.750947401620117 4.550836366088188  16.750947401620117 4.75  C 16.750947401620117 5.164736797839851  16.41473679783985 5.500947401620113  16 5.500947401620113  C 15.800836366088186 5.500947401620113  15.609829956104798 5.421829956104798  15.468999999999996 5.281000000000001  L 13.75 3.5605  L 13.75 9.25  C 13.75 9.664213562373096  13.414213562373096 10  13 10  C 12.585786437626904 10  12.25 9.664213562373096  12.25 9.25  L 12.25 3.5605  L 10.531 5.281000000000001  C 10.390170043895202 5.421829956104798  10.199163633911812 5.500947401620113  10 5.500947401620113  C 9.585263202160151 5.500947401620113  9.249052598379887 5.164736797839849  9.249052598379887 4.75  C 9.249052598379887 4.550836366088188  9.328170043895202 4.3598299561047975  9.469 4.218999999999999  Z M 12.25 16.75  C 12.25 16.335786437626904  12.585786437626904 16  13 16  C 13.414213562373096 16  13.75 16.335786437626904  13.75 16.75  L 13.75 22.4395  L 15.469000000000001 20.718999999999998  C 15.609829956104798 20.578170043895202  15.80083636608819 20.499052598379883  16 20.499052598379883  C 16.41473679783985 20.499052598379883  16.750947401620117 20.83526320216015  16.750947401620117 21.25  C 16.750947401620117 21.449163633911812  16.671829956104798 21.6401700438952  16.531000000000002 21.781  L 13.531000000000002 24.781  C 13.390293605484755 24.922062551031452  13.199240891287362 25.00134067552813  13 25.00134067552813  C 12.800759108712633 25.00134067552813  12.609706394515253 24.922062551031452  12.469000000000001 24.781  L 9.469000000000001 21.781  C 9.328170043895204 21.640170043895203  9.249052598379887 21.44916363391181  9.249052598379887 21.25  C 9.249052598379887 20.83526320216015  9.585263202160153 20.499052598379883  10.000000000000002 20.499052598379883  C 10.199163633911814 20.499052598379883  10.390170043895203 20.578170043895202  10.531000000000002 20.718999999999998  L 12.25 22.4395  L 12.25 16.75  Z M 4.218999999999999 16.531000000000002  L 1.2189999999999999 13.530999999999999  C 1.0779374489685478 13.390293605484748  0.9986593244718721 13.199240891287362  0.9986593244718721 12.999999999999998  C 0.9986593244718721 12.800759108712636  1.0779374489685478 12.60970639451525  1.2189999999999999 12.468999999999998  L 4.218999999999999 9.468999999999998  C 4.3598299561047975 9.3281700438952  4.550836366088188 9.249052598379885  4.75 9.249052598379885  C 5.164736797839849 9.249052598379885  5.500947401620113 9.58526320216015  5.500947401620113 9.999999999999998  C 5.500947401620113 10.199163633911812  5.421829956104798 10.3901700438952  5.281000000000001 10.530999999999999  L 3.5605 12.25  L 9.25 12.25  C 9.664213562373096 12.25  10 12.585786437626904  10 13  C 10 13.414213562373096  9.664213562373096 13.75  9.25 13.75  L 3.5605 13.75  L 5.281000000000001 15.469000000000001  C 5.421829956104797 15.609829956104798  5.500947401620113 15.80083636608819  5.500947401620113 16  C 5.500947401620113 16.41473679783985  5.164736797839849 16.750947401620117  4.75 16.750947401620117  C 4.550836366088187 16.750947401620117  4.359829956104798 16.671829956104798  4.218999999999999 16.531000000000002  Z M 16.75 13.75  C 16.335786437626904 13.75  16 13.414213562373096  16 13  C 16 12.585786437626904  16.335786437626904 12.25  16.75 12.25  L 22.4395 12.25  L 20.718999999999998 10.531  C 20.578170043895202 10.390170043895203  20.499052598379883 10.199163633911812  20.499052598379883 10  C 20.499052598379883 9.58526320216015  20.83526320216015 9.249052598379887  21.25 9.249052598379887  C 21.449163633911812 9.249052598379887  21.640170043895203 9.328170043895202  21.781 9.469  L 24.781 12.469  C 24.922062551031452 12.609706394515252  25.001340675528127 12.800759108712638  25.001340675528127 13  C 25.001340675528127 13.199240891287362  24.922062551031452 13.390293605484748  24.781 13.530999999999999  L 21.781 16.531  C 21.640170043895203 16.671829956104794  21.44916363391181 16.750947401620117  21.25 16.750947401620117  C 20.83526320216015 16.750947401620117  20.499052598379883 16.41473679783985  20.499052598379883 16  C 20.499052598379883 15.800836366088186  20.578170043895202 15.609829956104798  20.718999999999998 15.468999999999996  L 22.4395 13.75  L 16.75 13.75  Z " fill-rule="nonzero" fill="rgba(0, 0, 0, 1)" stroke="none" class="fill" />
    <path d="M 9.469 4.218999999999999  L 12.469 1.2189999999999999  C 12.60970639451525 1.0779374489685476  12.800759108712638 0.9986593244718727  13 0.9986593244718727  C 13.199240891287362 0.9986593244718727  13.390293605484748 1.077937448968548  13.530999999999999 1.2189999999999999  L 16.531 4.218999999999999  C 16.671829956104794 4.359829956104797  16.750947401620117 4.550836366088188  16.750947401620117 4.75  C 16.750947401620117 5.164736797839851  16.41473679783985 5.500947401620113  16 5.500947401620113  C 15.800836366088186 5.500947401620113  15.609829956104798 5.421829956104798  15.468999999999996 5.281000000000001  L 13.75 3.5605  L 13.75 9.25  C 13.75 9.664213562373096  13.414213562373096 10  13 10  C 12.585786437626904 10  12.25 9.664213562373096  12.25 9.25  L 12.25 3.5605  L 10.531 5.281000000000001  C 10.390170043895202 5.421829956104798  10.199163633911812 5.500947401620113  10 5.500947401620113  C 9.585263202160151 5.500947401620113  9.249052598379887 5.164736797839849  9.249052598379887 4.75  C 9.249052598379887 4.550836366088188  9.328170043895202 4.3598299561047975  9.469 4.218999999999999  Z " stroke-width="0" stroke-dasharray="0" stroke="rgba(255, 255, 255, 0)" fill="none" class="stroke" mask="url(#Clip4736)" />
    <path d="M 12.25 16.75  C 12.25 16.335786437626904  12.585786437626904 16  13 16  C 13.414213562373096 16  13.75 16.335786437626904  13.75 16.75  L 13.75 22.4395  L 15.469000000000001 20.718999999999998  C 15.609829956104798 20.578170043895202  15.80083636608819 20.499052598379883  16 20.499052598379883  C 16.41473679783985 20.499052598379883  16.750947401620117 20.83526320216015  16.750947401620117 21.25  C 16.750947401620117 21.449163633911812  16.671829956104798 21.6401700438952  16.531000000000002 21.781  L 13.531000000000002 24.781  C 13.390293605484755 24.922062551031452  13.199240891287362 25.00134067552813  13 25.00134067552813  C 12.800759108712633 25.00134067552813  12.609706394515253 24.922062551031452  12.469000000000001 24.781  L 9.469000000000001 21.781  C 9.328170043895204 21.640170043895203  9.249052598379887 21.44916363391181  9.249052598379887 21.25  C 9.249052598379887 20.83526320216015  9.585263202160153 20.499052598379883  10.000000000000002 20.499052598379883  C 10.199163633911814 20.499052598379883  10.390170043895203 20.578170043895202  10.531000000000002 20.718999999999998  L 12.25 22.4395  L 12.25 16.75  Z " stroke-width="0" stroke-dasharray="0" stroke="rgba(255, 255, 255, 0)" fill="none" class="stroke" mask="url(#Clip4736)" />
    <path d="M 4.218999999999999 16.531000000000002  L 1.2189999999999999 13.530999999999999  C 1.0779374489685478 13.390293605484748  0.9986593244718721 13.199240891287362  0.9986593244718721 12.999999999999998  C 0.9986593244718721 12.800759108712636  1.0779374489685478 12.60970639451525  1.2189999999999999 12.468999999999998  L 4.218999999999999 9.468999999999998  C 4.3598299561047975 9.3281700438952  4.550836366088188 9.249052598379885  4.75 9.249052598379885  C 5.164736797839849 9.249052598379885  5.500947401620113 9.58526320216015  5.500947401620113 9.999999999999998  C 5.500947401620113 10.199163633911812  5.421829956104798 10.3901700438952  5.281000000000001 10.530999999999999  L 3.5605 12.25  L 9.25 12.25  C 9.664213562373096 12.25  10 12.585786437626904  10 13  C 10 13.414213562373096  9.664213562373096 13.75  9.25 13.75  L 3.5605 13.75  L 5.281000000000001 15.469000000000001  C 5.421829956104797 15.609829956104798  5.500947401620113 15.80083636608819  5.500947401620113 16  C 5.500947401620113 16.41473679783985  5.164736797839849 16.750947401620117  4.75 16.750947401620117  C 4.550836366088187 16.750947401620117  4.359829956104798 16.671829956104798  4.218999999999999 16.531000000000002  Z " stroke-width="0" stroke-dasharray="0" stroke="rgba(255, 255, 255, 0)" fill="none" class="stroke" mask="url(#Clip4736)" />
    <path d="M 16.75 13.75  C 16.335786437626904 13.75  16 13.414213562373096  16 13  C 16 12.585786437626904  16.335786437626904 12.25  16.75 12.25  L 22.4395 12.25  L 20.718999999999998 10.531  C 20.578170043895202 10.390170043895203  20.499052598379883 10.199163633911812  20.499052598379883 10  C 20.499052598379883 9.58526320216015  20.83526320216015 9.249052598379887  21.25 9.249052598379887  C 21.449163633911812 9.249052598379887  21.640170043895203 9.328170043895202  21.781 9.469  L 24.781 12.469  C 24.922062551031452 12.609706394515252  25.001340675528127 12.800759108712638  25.001340675528127 13  C 25.001340675528127 13.199240891287362  24.922062551031452 13.390293605484748  24.781 13.530999999999999  L 21.781 16.531  C 21.640170043895203 16.671829956104794  21.44916363391181 16.750947401620117  21.25 16.750947401620117  C 20.83526320216015 16.750947401620117  20.499052598379883 16.41473679783985  20.499052598379883 16  C 20.499052598379883 15.800836366088186  20.578170043895202 15.609829956104798  20.718999999999998 15.468999999999996  L 22.4395 13.75  L 16.75 13.75  Z " stroke-width="0" stroke-dasharray="0" stroke="rgba(255, 255, 255, 0)" fill="none" class="stroke" mask="url(#Clip4736)" />
  </g>
</svg>