<?xml version="1.0" encoding="utf-8"?>
<svg version="1.1" xmlns:xlink="http://www.w3.org/1999/xlink" width="28px" height="28px" xmlns="http://www.w3.org/2000/svg">
  <defs>
    <pattern id="BGPattern" patternUnits="userSpaceOnUse" alignment="0 0" imageRepeat="None" />
    <mask fill="white" id="Clip3765">
      <path d="M 28 14  C 28 6.268013502368892  21.73198649763111 0  14 0  C 6.268013502368892 0  0 6.268013502368892  0 14  C 0 21.73198649763111  6.268013502368892 28  14 28  C 21.73198649763111 28  28 21.73198649763111  28 14  Z M 9.5 14  C 8.119288125423019 14  6.999999999999999 12.880711874576981  6.999999999999999 11.5  C 7.000000000000002 10.119288125423015  8.119288125423019 9  9.5 9  C 10.880711874576981 9  12 10.119288125423015  12 11.5  C 12 12.880711874576981  10.880711874576981 14  9.5 14  Z M 20 18  L 20 20  L 8 20  L 8 18  L 20 18  Z M 21 11.5  C 21 12.880711874576981  19.88071187457698 14  18.5 14  C 17.119288125423015 14  16 12.880711874576981  16 11.5  C 16 10.119288125423015  17.119288125423015 9  18.5 9  C 19.88071187457698 9  21 10.119288125423015  21 11.5  Z " fill-rule="evenodd" />
    </mask>
  </defs>
  <g transform="matrix(1 0 0 1 -2 -2 )">
    <path d="M 28 14  C 28 6.268013502368892  21.73198649763111 0  14 0  C 6.268013502368892 0  0 6.268013502368892  0 14  C 0 21.73198649763111  6.268013502368892 28  14 28  C 21.73198649763111 28  28 21.73198649763111  28 14  Z M 9.5 14  C 8.119288125423019 14  6.999999999999999 12.880711874576981  6.999999999999999 11.5  C 7.000000000000002 10.119288125423015  8.119288125423019 9  9.5 9  C 10.880711874576981 9  12 10.119288125423015  12 11.5  C 12 12.880711874576981  10.880711874576981 14  9.5 14  Z M 20 18  L 20 20  L 8 20  L 8 18  L 20 18  Z M 21 11.5  C 21 12.880711874576981  19.88071187457698 14  18.5 14  C 17.119288125423015 14  16 12.880711874576981  16 11.5  C 16 10.119288125423015  17.119288125423015 9  18.5 9  C 19.88071187457698 9  21 10.119288125423015  21 11.5  Z " fill-rule="nonzero" fill="rgba(0, 0, 0, 1)" stroke="none" transform="matrix(1 0 0 1 2 2 )" class="fill" />
    <path d="M 28 14  C 28 6.268013502368892  21.73198649763111 0  14 0  C 6.268013502368892 0  0 6.268013502368892  0 14  C 0 21.73198649763111  6.268013502368892 28  14 28  C 21.73198649763111 28  28 21.73198649763111  28 14  Z " stroke-width="0" stroke-dasharray="0" stroke="rgba(255, 255, 255, 0)" fill="none" transform="matrix(1 0 0 1 2 2 )" class="stroke" mask="url(#Clip3765)" />
    <path d="M 9.5 14  C 8.119288125423019 14  6.999999999999999 12.880711874576981  6.999999999999999 11.5  C 7.000000000000002 10.119288125423015  8.119288125423019 9  9.5 9  C 10.880711874576981 9  12 10.119288125423015  12 11.5  C 12 12.880711874576981  10.880711874576981 14  9.5 14  Z " stroke-width="0" stroke-dasharray="0" stroke="rgba(255, 255, 255, 0)" fill="none" transform="matrix(1 0 0 1 2 2 )" class="stroke" mask="url(#Clip3765)" />
    <path d="M 20 18  L 20 20  L 8 20  L 8 18  L 20 18  Z " stroke-width="0" stroke-dasharray="0" stroke="rgba(255, 255, 255, 0)" fill="none" transform="matrix(1 0 0 1 2 2 )" class="stroke" mask="url(#Clip3765)" />
    <path d="M 21 11.5  C 21 12.880711874576981  19.88071187457698 14  18.5 14  C 17.119288125423015 14  16 12.880711874576981  16 11.5  C 16 10.119288125423015  17.119288125423015 9  18.5 9  C 19.88071187457698 9  21 10.119288125423015  21 11.5  Z " stroke-width="0" stroke-dasharray="0" stroke="rgba(255, 255, 255, 0)" fill="none" transform="matrix(1 0 0 1 2 2 )" class="stroke" mask="url(#Clip3765)" />
  </g>
</svg>