<?xml version="1.0" encoding="utf-8"?>
<svg version="1.1" xmlns:xlink="http://www.w3.org/1999/xlink" width="24px" height="25px" xmlns="http://www.w3.org/2000/svg">
  <defs>
    <pattern id="BGPattern" patternUnits="userSpaceOnUse" alignment="0 0" imageRepeat="None" />
    <mask fill="white" id="Clip536">
      <path d="M 10.799999999999999 5.4  C 10.799999999999999 6.056000000000001  10.255999999999998 6.6000000000000005  9.6 6.6000000000000005  C 8.927999999999999 6.6000000000000005  8.4 6.055999999999999  8.4 5.4  L 8.4 1.4000000000000004  C 8.4 0.7440000000000002  8.928 0.20000000000000018  9.6 0.20000000000000018  C 10.256 0.20000000000000018  10.799999999999999 0.7440000000000002  10.799999999999999 1.4000000000000004  L 10.799999999999999 5.4  Z M 15.599999999999998 5.4  C 15.599999999999998 6.056000000000001  15.055999999999997 6.6000000000000005  14.399999999999999 6.6000000000000005  C 13.727999999999998 6.6000000000000005  13.2 6.055999999999999  13.2 5.4  L 13.2 1.4000000000000004  C 13.2 0.7440000000000002  13.727999999999998 0.20000000000000018  14.399999999999999 0.20000000000000018  C 15.055999999999997 0.20000000000000018  15.599999999999998 0.7440000000000002  15.599999999999998 1.4000000000000004  L 15.599999999999998 5.4  Z M 19.184000000000005 24  L 4.800000000000001 24  C 2.5920000000000005 24.2  0.8000000000000007 22.392  1 20.183999999999997  L 1 6.615999999999998  C 0.8000000000000007 4.391999999999998  2.5920000000000005 2.599999999999998  4.800000000000001 2.599999999999998  C 5.584000000000001 2.599999999999998  6.08 3.0159999999999982  6.08 3.799999999999998  C 6.08 4.583999999999998  5.584 4.999999999999998  4.800000000000001 4.999999999999998  C 3.920000000000001 4.999999999999998  3.200000000000001 5.719999999999999  3.200000000000001 6.615999999999998  L 3.200000000000001 20.183999999999997  C 3.200000000000001 21.08  3.920000000000001 21.799999999999997  4.800000000000001 21.799999999999997  L 19.184 21.799999999999997  C 20.080000000000002 21.799999999999997  20.8 21.08  20.8 20.183999999999997  L 20.8 6.615999999999998  C 20.8 5.719999999999997  20.080000000000002 4.999999999999998  19.184 4.999999999999998  C 18.416 4.999999999999998  17.92 4.583999999999998  17.92 3.799999999999998  C 17.92 3.0159999999999982  18.416 2.599999999999998  19.184 2.599999999999998  C 21.392000000000003 2.599999999999998  23.200000000000003 4.391999999999998  23 6.615999999999998  L 23 20.183999999999997  C 23.200000000000003 22.391999999999996  21.392000000000003 24.199999999999996  19.184000000000005 24  Z M 13.2 10.200000000000001  C 13.2 10.856  12.655999999999999 11.4  12 11.4  C 11.344 11.4  10.8 10.856  10.8 10.200000000000001  C 10.8 9.544000000000002  11.344000000000001 9.000000000000002  12 9.000000000000002  C 12.655999999999999 9.000000000000002  13.2 9.544000000000002  13.2 10.200000000000001  Z M 18 10.200000000000001  C 18 10.856  17.456 11.4  16.8 11.4  C 16.144000000000002 11.4  15.600000000000001 10.856  15.600000000000001 10.200000000000001  C 15.600000000000001 9.544000000000002  16.144000000000002 9.000000000000002  16.8 9.000000000000002  C 17.456 9.000000000000002  18 9.544000000000002  18 10.200000000000001  Z M 8.399999999999999 14.2  C 8.399999999999999 14.855999999999996  7.855999999999998 15.4  7.199999999999999 15.4  C 6.543999999999999 15.4  6 14.855999999999996  6 14.2  C 6 13.544  6.5440000000000005 13  7.199999999999999 13  C 7.855999999999998 13  8.399999999999999 13.544  8.399999999999999 14.2  Z M 13.2 14.2  C 13.2 14.855999999999996  12.655999999999999 15.4  12 15.4  C 11.344 15.4  10.8 14.855999999999996  10.8 14.2  C 10.8 13.544  11.344000000000001 13  12 13  C 12.655999999999999 13  13.2 13.544  13.2 14.2  Z M 18 14.2  C 18 14.855999999999996  17.456 15.4  16.8 15.4  C 16.144000000000002 15.4  15.600000000000001 14.855999999999996  15.600000000000001 14.2  C 15.600000000000001 13.544  16.144000000000002 13  16.8 13  C 17.456 13  18 13.544  18 14.2  Z M 8.399999999999999 18.2  C 8.399999999999999 18.855999999999998  7.855999999999998 19.4  7.199999999999999 19.4  C 6.543999999999999 19.4  6 18.855999999999998  6 18.2  C 6 17.544  6.5440000000000005 17  7.199999999999999 17  C 7.855999999999998 17  8.399999999999999 17.544  8.399999999999999 18.2  Z M 13.2 18.2  C 13.2 18.855999999999998  12.655999999999999 19.4  12 19.4  C 11.344 19.4  10.8 18.855999999999998  10.8 18.2  C 10.8 17.544  11.344000000000001 17  12 17  C 12.655999999999999 17  13.2 17.544  13.2 18.2  Z M 18 18.2  C 18 18.855999999999998  17.456 19.4  16.8 19.4  C 16.144000000000002 19.4  15.600000000000001 18.855999999999998  15.600000000000001 18.2  C 15.600000000000001 17.544  16.144000000000002 17  16.8 17  C 17.456 17  18 17.544  18 18.2  Z " fill-rule="evenodd" />
    </mask>
  </defs>
  <g>
    <path d="M 10.799999999999999 5.4  C 10.799999999999999 6.056000000000001  10.255999999999998 6.6000000000000005  9.6 6.6000000000000005  C 8.927999999999999 6.6000000000000005  8.4 6.055999999999999  8.4 5.4  L 8.4 1.4000000000000004  C 8.4 0.7440000000000002  8.928 0.20000000000000018  9.6 0.20000000000000018  C 10.256 0.20000000000000018  10.799999999999999 0.7440000000000002  10.799999999999999 1.4000000000000004  L 10.799999999999999 5.4  Z M 15.599999999999998 5.4  C 15.599999999999998 6.056000000000001  15.055999999999997 6.6000000000000005  14.399999999999999 6.6000000000000005  C 13.727999999999998 6.6000000000000005  13.2 6.055999999999999  13.2 5.4  L 13.2 1.4000000000000004  C 13.2 0.7440000000000002  13.727999999999998 0.20000000000000018  14.399999999999999 0.20000000000000018  C 15.055999999999997 0.20000000000000018  15.599999999999998 0.7440000000000002  15.599999999999998 1.4000000000000004  L 15.599999999999998 5.4  Z M 19.184000000000005 24  L 4.800000000000001 24  C 2.5920000000000005 24.2  0.8000000000000007 22.392  1 20.183999999999997  L 1 6.615999999999998  C 0.8000000000000007 4.391999999999998  2.5920000000000005 2.599999999999998  4.800000000000001 2.599999999999998  C 5.584000000000001 2.599999999999998  6.08 3.0159999999999982  6.08 3.799999999999998  C 6.08 4.583999999999998  5.584 4.999999999999998  4.800000000000001 4.999999999999998  C 3.920000000000001 4.999999999999998  3.200000000000001 5.719999999999999  3.200000000000001 6.615999999999998  L 3.200000000000001 20.183999999999997  C 3.200000000000001 21.08  3.920000000000001 21.799999999999997  4.800000000000001 21.799999999999997  L 19.184 21.799999999999997  C 20.080000000000002 21.799999999999997  20.8 21.08  20.8 20.183999999999997  L 20.8 6.615999999999998  C 20.8 5.719999999999997  20.080000000000002 4.999999999999998  19.184 4.999999999999998  C 18.416 4.999999999999998  17.92 4.583999999999998  17.92 3.799999999999998  C 17.92 3.0159999999999982  18.416 2.599999999999998  19.184 2.599999999999998  C 21.392000000000003 2.599999999999998  23.200000000000003 4.391999999999998  23 6.615999999999998  L 23 20.183999999999997  C 23.200000000000003 22.391999999999996  21.392000000000003 24.199999999999996  19.184000000000005 24  Z M 13.2 10.200000000000001  C 13.2 10.856  12.655999999999999 11.4  12 11.4  C 11.344 11.4  10.8 10.856  10.8 10.200000000000001  C 10.8 9.544000000000002  11.344000000000001 9.000000000000002  12 9.000000000000002  C 12.655999999999999 9.000000000000002  13.2 9.544000000000002  13.2 10.200000000000001  Z M 18 10.200000000000001  C 18 10.856  17.456 11.4  16.8 11.4  C 16.144000000000002 11.4  15.600000000000001 10.856  15.600000000000001 10.200000000000001  C 15.600000000000001 9.544000000000002  16.144000000000002 9.000000000000002  16.8 9.000000000000002  C 17.456 9.000000000000002  18 9.544000000000002  18 10.200000000000001  Z M 8.399999999999999 14.2  C 8.399999999999999 14.855999999999996  7.855999999999998 15.4  7.199999999999999 15.4  C 6.543999999999999 15.4  6 14.855999999999996  6 14.2  C 6 13.544  6.5440000000000005 13  7.199999999999999 13  C 7.855999999999998 13  8.399999999999999 13.544  8.399999999999999 14.2  Z M 13.2 14.2  C 13.2 14.855999999999996  12.655999999999999 15.4  12 15.4  C 11.344 15.4  10.8 14.855999999999996  10.8 14.2  C 10.8 13.544  11.344000000000001 13  12 13  C 12.655999999999999 13  13.2 13.544  13.2 14.2  Z M 18 14.2  C 18 14.855999999999996  17.456 15.4  16.8 15.4  C 16.144000000000002 15.4  15.600000000000001 14.855999999999996  15.600000000000001 14.2  C 15.600000000000001 13.544  16.144000000000002 13  16.8 13  C 17.456 13  18 13.544  18 14.2  Z M 8.399999999999999 18.2  C 8.399999999999999 18.855999999999998  7.855999999999998 19.4  7.199999999999999 19.4  C 6.543999999999999 19.4  6 18.855999999999998  6 18.2  C 6 17.544  6.5440000000000005 17  7.199999999999999 17  C 7.855999999999998 17  8.399999999999999 17.544  8.399999999999999 18.2  Z M 13.2 18.2  C 13.2 18.855999999999998  12.655999999999999 19.4  12 19.4  C 11.344 19.4  10.8 18.855999999999998  10.8 18.2  C 10.8 17.544  11.344000000000001 17  12 17  C 12.655999999999999 17  13.2 17.544  13.2 18.2  Z M 18 18.2  C 18 18.855999999999998  17.456 19.4  16.8 19.4  C 16.144000000000002 19.4  15.600000000000001 18.855999999999998  15.600000000000001 18.2  C 15.600000000000001 17.544  16.144000000000002 17  16.8 17  C 17.456 17  18 17.544  18 18.2  Z " fill-rule="nonzero" fill="rgba(0, 0, 0, 1)" stroke="none" class="fill" />
    <path d="M 10.799999999999999 5.4  C 10.799999999999999 6.056000000000001  10.255999999999998 6.6000000000000005  9.6 6.6000000000000005  C 8.927999999999999 6.6000000000000005  8.4 6.055999999999999  8.4 5.4  L 8.4 1.4000000000000004  C 8.4 0.7440000000000002  8.928 0.20000000000000018  9.6 0.20000000000000018  C 10.256 0.20000000000000018  10.799999999999999 0.7440000000000002  10.799999999999999 1.4000000000000004  L 10.799999999999999 5.4  Z " stroke-width="0" stroke-dasharray="0" stroke="rgba(255, 255, 255, 0)" fill="none" class="stroke" mask="url(#Clip536)" />
    <path d="M 15.599999999999998 5.4  C 15.599999999999998 6.056000000000001  15.055999999999997 6.6000000000000005  14.399999999999999 6.6000000000000005  C 13.727999999999998 6.6000000000000005  13.2 6.055999999999999  13.2 5.4  L 13.2 1.4000000000000004  C 13.2 0.7440000000000002  13.727999999999998 0.20000000000000018  14.399999999999999 0.20000000000000018  C 15.055999999999997 0.20000000000000018  15.599999999999998 0.7440000000000002  15.599999999999998 1.4000000000000004  L 15.599999999999998 5.4  Z " stroke-width="0" stroke-dasharray="0" stroke="rgba(255, 255, 255, 0)" fill="none" class="stroke" mask="url(#Clip536)" />
    <path d="M 19.184000000000005 24  L 4.800000000000001 24  C 2.5920000000000005 24.2  0.8000000000000007 22.392  1 20.183999999999997  L 1 6.615999999999998  C 0.8000000000000007 4.391999999999998  2.5920000000000005 2.599999999999998  4.800000000000001 2.599999999999998  C 5.584000000000001 2.599999999999998  6.08 3.0159999999999982  6.08 3.799999999999998  C 6.08 4.583999999999998  5.584 4.999999999999998  4.800000000000001 4.999999999999998  C 3.920000000000001 4.999999999999998  3.200000000000001 5.719999999999999  3.200000000000001 6.615999999999998  L 3.200000000000001 20.183999999999997  C 3.200000000000001 21.08  3.920000000000001 21.799999999999997  4.800000000000001 21.799999999999997  L 19.184 21.799999999999997  C 20.080000000000002 21.799999999999997  20.8 21.08  20.8 20.183999999999997  L 20.8 6.615999999999998  C 20.8 5.719999999999997  20.080000000000002 4.999999999999998  19.184 4.999999999999998  C 18.416 4.999999999999998  17.92 4.583999999999998  17.92 3.799999999999998  C 17.92 3.0159999999999982  18.416 2.599999999999998  19.184 2.599999999999998  C 21.392000000000003 2.599999999999998  23.200000000000003 4.391999999999998  23 6.615999999999998  L 23 20.183999999999997  C 23.200000000000003 22.391999999999996  21.392000000000003 24.199999999999996  19.184000000000005 24  Z " stroke-width="0" stroke-dasharray="0" stroke="rgba(255, 255, 255, 0)" fill="none" class="stroke" mask="url(#Clip536)" />
    <path d="M 13.2 10.200000000000001  C 13.2 10.856  12.655999999999999 11.4  12 11.4  C 11.344 11.4  10.8 10.856  10.8 10.200000000000001  C 10.8 9.544000000000002  11.344000000000001 9.000000000000002  12 9.000000000000002  C 12.655999999999999 9.000000000000002  13.2 9.544000000000002  13.2 10.200000000000001  Z " stroke-width="0" stroke-dasharray="0" stroke="rgba(255, 255, 255, 0)" fill="none" class="stroke" mask="url(#Clip536)" />
    <path d="M 18 10.200000000000001  C 18 10.856  17.456 11.4  16.8 11.4  C 16.144000000000002 11.4  15.600000000000001 10.856  15.600000000000001 10.200000000000001  C 15.600000000000001 9.544000000000002  16.144000000000002 9.000000000000002  16.8 9.000000000000002  C 17.456 9.000000000000002  18 9.544000000000002  18 10.200000000000001  Z " stroke-width="0" stroke-dasharray="0" stroke="rgba(255, 255, 255, 0)" fill="none" class="stroke" mask="url(#Clip536)" />
    <path d="M 8.399999999999999 14.2  C 8.399999999999999 14.855999999999996  7.855999999999998 15.4  7.199999999999999 15.4  C 6.543999999999999 15.4  6 14.855999999999996  6 14.2  C 6 13.544  6.5440000000000005 13  7.199999999999999 13  C 7.855999999999998 13  8.399999999999999 13.544  8.399999999999999 14.2  Z " stroke-width="0" stroke-dasharray="0" stroke="rgba(255, 255, 255, 0)" fill="none" class="stroke" mask="url(#Clip536)" />
    <path d="M 13.2 14.2  C 13.2 14.855999999999996  12.655999999999999 15.4  12 15.4  C 11.344 15.4  10.8 14.855999999999996  10.8 14.2  C 10.8 13.544  11.344000000000001 13  12 13  C 12.655999999999999 13  13.2 13.544  13.2 14.2  Z " stroke-width="0" stroke-dasharray="0" stroke="rgba(255, 255, 255, 0)" fill="none" class="stroke" mask="url(#Clip536)" />
    <path d="M 18 14.2  C 18 14.855999999999996  17.456 15.4  16.8 15.4  C 16.144000000000002 15.4  15.600000000000001 14.855999999999996  15.600000000000001 14.2  C 15.600000000000001 13.544  16.144000000000002 13  16.8 13  C 17.456 13  18 13.544  18 14.2  Z " stroke-width="0" stroke-dasharray="0" stroke="rgba(255, 255, 255, 0)" fill="none" class="stroke" mask="url(#Clip536)" />
    <path d="M 8.399999999999999 18.2  C 8.399999999999999 18.855999999999998  7.855999999999998 19.4  7.199999999999999 19.4  C 6.543999999999999 19.4  6 18.855999999999998  6 18.2  C 6 17.544  6.5440000000000005 17  7.199999999999999 17  C 7.855999999999998 17  8.399999999999999 17.544  8.399999999999999 18.2  Z " stroke-width="0" stroke-dasharray="0" stroke="rgba(255, 255, 255, 0)" fill="none" class="stroke" mask="url(#Clip536)" />
    <path d="M 13.2 18.2  C 13.2 18.855999999999998  12.655999999999999 19.4  12 19.4  C 11.344 19.4  10.8 18.855999999999998  10.8 18.2  C 10.8 17.544  11.344000000000001 17  12 17  C 12.655999999999999 17  13.2 17.544  13.2 18.2  Z " stroke-width="0" stroke-dasharray="0" stroke="rgba(255, 255, 255, 0)" fill="none" class="stroke" mask="url(#Clip536)" />
    <path d="M 18 18.2  C 18 18.855999999999998  17.456 19.4  16.8 19.4  C 16.144000000000002 19.4  15.600000000000001 18.855999999999998  15.600000000000001 18.2  C 15.600000000000001 17.544  16.144000000000002 17  16.8 17  C 17.456 17  18 17.544  18 18.2  Z " stroke-width="0" stroke-dasharray="0" stroke="rgba(255, 255, 255, 0)" fill="none" class="stroke" mask="url(#Clip536)" />
  </g>
</svg>