<?xml version="1.0" encoding="utf-8"?>
<svg version="1.1" xmlns:xlink="http://www.w3.org/1999/xlink" width="48px" height="44px" xmlns="http://www.w3.org/2000/svg">
  <defs>
    <pattern id="BGPattern" patternUnits="userSpaceOnUse" alignment="0 0" imageRepeat="None" />
    <mask fill="white" id="Clip6999">
      <path d="M 23.984159162698603 0.9940596860119758  L 23.984159162698596 1.001980104662675  C 23.611386404365035 1.0024480771502988  23.254515141140395 1.1530477502310936  22.994106831361087 1.419782188487106  L 0.5595210032530284 24.17910518127387  C 0.35320531616260303 24.388746137609054  0.23757387244712963 24.671091899350685  0.23757387244712963 24.965227060990244  C 0.23757387244712963 25.581559742559865  0.7352413661618944 26.08223378277218  1.3515628683230394 26.085945971429915  L 6 26.085945971429915  L 6 42.073311017868086  C 5.5097812526139425 42.07397175548236  5.509780548950016 42.07463249440833  5.509780548950016 42.07529323352135  C 5.509780548950016 42.58927658940555  5.926446384523075 43.005942424978606  6.440429740407279 43.005942424978606  C 6.441090479519523 43.005942424978606  6.441751218447045 43.00594172131468  6.442411956060534 43  L 22.178303710338973 43  L 22.178303710338973 35.70727452736788  L 16.15284522181887 29.658054782895668  C 15.559530806174605 29.91025132940861  14.921458657131378 30.04023438979654  14.27676873640642 30.04023438979654  C 11.62811408119037 30.04023438979654  9.480955243407506 27.893075552013677  9.480955243407506 25.244420896797624  C 9.480955243407506 22.59576624158158  11.62811408119037 20.44860740379871  14.27676873640642 20.44860740379871  C 16.925423391622473 20.44860740379871  19.07258222940534 22.59576624158158  19.07258222940534 25.244420896797624  C 19.07258222940534 25.88659556770428  18.943611244486057 26.522230104921245  18.693319504030924 27.11362029135826  L 23 30.61444533496771  L 23 19.971382773089434  C 20.3822646595329 19.238676012846483  19.196266088350384 17.479767118645867  19.196266088350384 15.525344460817198  C 19.196266088350384 12.87668980560115  21.343424926133252 10.729530967818281  23.9920795813493 10.729530967818281  C 26.64073423656535 10.729530967818281  28.78789307434822 12.87668980560115  28.78789307434822 15.525344460817198  C 28.78789307434822 17.479767118645867  27.601894503165703 19.238676012846483  25 19.971382773089434  L 25 30.61444533496771  L 29.286879449342322 27.11362029135826  C 29.033888407448764 26.51866513694419  28.90349313505844 25.878795524028988  28.90349313505844 25.2322848102413  C 28.90349313505844 22.577068665375663  31.05597111116777 20.42459068926633  33.711187256033405 20.42459068926633  C 36.36640340089904 20.42459068926633  38.51888137700837 22.577068665375663  38.51888137700837 25.2322848102413  C 38.51888137700837 27.887500955106933  36.36640340089904 30.039978931216265  33.711187256033405 30.039978931216265  C 33.065935845206184 30.039978931216265  32.42728655983175 29.910091042475024  31.83329404554241 29.658054782895668  L 25.782094196407527 35.70727452736788  L 25.782094196407527 43  L 41.517985950685976 43  C 41.518646688301274 43.001981511989335  41.51930742722516 43.00198221565326  41.51996816633922 43.00198221565326  C 42.033951522223425 43.00198221565326  42.45061735779648 42.5853163800802  42.45061735779648 42.071333024195994  C 42.45061735779648 42.070672285083745  42.45061665413255 42.07001154615624  42 42.069350808542744  L 42 26.080005657441895  L 46.63061618971289 26.080005657441895  C 47.24693769187404 26.07629346878416  47.744605185588796 25.575619428571844  47.744605185588796 24.959286747002217  C 47.744605185588796 24.665151585362672  47.62897374187332 24.38280582362103  47.42265805478289 24.17316486728585  L 42.44071472349253 19.080335674885678  L 42.44071472349253 11.052991372401111  C 42.43977822656037 10.545978368299583  42.034762658001924 10.132177212570667  41.52788647399934 10.120362076281175  L 37.63698081184291 10.120362076281175  C 37.12158373649034 10.121452862513006  36.704349413715185 10.539571154322868  36.704349413715185 11.05496938394399  C 36.704349413715185 11.055630117095607  36.70435011438484 11.056290850060877  36.704351515722976 11.056951581726462  L 36.704351515722976 13.235066710668995  L 24.990052331337516 1.4079015605110567  C 24.724369158627212 1.1398204768871634  24.36157507758098 0.9905607073228676  23.984159162698603 0.9940596860119758  Z M 24 13.597425863938522  L 23.984159162698603 13.597425863938522  C 23.98349946860499 13.597425184192089  23.982839774203946 13.597424844318798  23.982180079760134 13.597424844318798  C 22.92140591974379 13.597424844318798  22.061478556965355 14.457352207097237  22.061478556965355 15.518126367113577  C 22.061478556965355 16.57890052712991  22.92140591974379 17.43882788990835  23.982180079760134 17.43882788990835  C 25.042180645093346 17.43882788990835  25.901787234032973 16.580107492858016  25.902880580830704 15.520107491395976  C 25.904013214414505 14.46548234066675  25.054580368401773 13.607210443186666  24 13.597425863938522  Z M 15.634057800198008 23.882089481872615  C 15.274502061215614 23.52202994711639  14.78653107040077 23.319717886690963  14.277686106265612 23.319739757672906  C 13.21913128350777 23.31978525607624  12.361027177446863 24.177926245636176  12.361027177446863 25.23648106937182  C 12.361027177446863 26.295068066171627  13.21918149411648 27.153222382841243  14.277768490916287 27.153222382841243  C 15.336355487716098 27.153222382841243  16.19450980438571 26.295068066171627  16.19450980438571 25.23648106937182  C 16.19450980438571 24.72859464527527  15.992936223367344 24.241470751786725  15.634057800198008 23.882089481872615  Z M 35.06482485502804 23.882089481872615  C 34.70502264359017 23.52239857925775  34.21721145950131 23.320152774467623  33.708453161095655 23.319739757672906  C 32.649898338337806 23.31978525607624  31.791794232276906 24.177926245636176  31.791794232276906 25.23648106937182  C 31.791794232276906 26.295068066171627  32.64994854894652 27.153222382841243  33.70853554574633 27.153222382841243  C 34.76712254254613 27.153222382841243  35.62527685921575 26.295068066171627  35.62527685921575 25.23648106937182  C 35.62527685921575 24.72859464527526  35.42370327819739 24.24147075178673  35.06482485502804 23.882089481872615  Z " fill-rule="evenodd" />
    </mask>
  </defs>
  <g>
    <path d="M 23.984159162698603 0.9940596860119758  L 23.984159162698596 1.001980104662675  C 23.611386404365035 1.0024480771502988  23.254515141140395 1.1530477502310936  22.994106831361087 1.419782188487106  L 0.5595210032530284 24.17910518127387  C 0.35320531616260303 24.388746137609054  0.23757387244712963 24.671091899350685  0.23757387244712963 24.965227060990244  C 0.23757387244712963 25.581559742559865  0.7352413661618944 26.08223378277218  1.3515628683230394 26.085945971429915  L 6 26.085945971429915  L 6 42.073311017868086  C 5.5097812526139425 42.07397175548236  5.509780548950016 42.07463249440833  5.509780548950016 42.07529323352135  C 5.509780548950016 42.58927658940555  5.926446384523075 43.005942424978606  6.440429740407279 43.005942424978606  C 6.441090479519523 43.005942424978606  6.441751218447045 43.00594172131468  6.442411956060534 43  L 22.178303710338973 43  L 22.178303710338973 35.70727452736788  L 16.15284522181887 29.658054782895668  C 15.559530806174605 29.91025132940861  14.921458657131378 30.04023438979654  14.27676873640642 30.04023438979654  C 11.62811408119037 30.04023438979654  9.480955243407506 27.893075552013677  9.480955243407506 25.244420896797624  C 9.480955243407506 22.59576624158158  11.62811408119037 20.44860740379871  14.27676873640642 20.44860740379871  C 16.925423391622473 20.44860740379871  19.07258222940534 22.59576624158158  19.07258222940534 25.244420896797624  C 19.07258222940534 25.88659556770428  18.943611244486057 26.522230104921245  18.693319504030924 27.11362029135826  L 23 30.61444533496771  L 23 19.971382773089434  C 20.3822646595329 19.238676012846483  19.196266088350384 17.479767118645867  19.196266088350384 15.525344460817198  C 19.196266088350384 12.87668980560115  21.343424926133252 10.729530967818281  23.9920795813493 10.729530967818281  C 26.64073423656535 10.729530967818281  28.78789307434822 12.87668980560115  28.78789307434822 15.525344460817198  C 28.78789307434822 17.479767118645867  27.601894503165703 19.238676012846483  25 19.971382773089434  L 25 30.61444533496771  L 29.286879449342322 27.11362029135826  C 29.033888407448764 26.51866513694419  28.90349313505844 25.878795524028988  28.90349313505844 25.2322848102413  C 28.90349313505844 22.577068665375663  31.05597111116777 20.42459068926633  33.711187256033405 20.42459068926633  C 36.36640340089904 20.42459068926633  38.51888137700837 22.577068665375663  38.51888137700837 25.2322848102413  C 38.51888137700837 27.887500955106933  36.36640340089904 30.039978931216265  33.711187256033405 30.039978931216265  C 33.065935845206184 30.039978931216265  32.42728655983175 29.910091042475024  31.83329404554241 29.658054782895668  L 25.782094196407527 35.70727452736788  L 25.782094196407527 43  L 41.517985950685976 43  C 41.518646688301274 43.001981511989335  41.51930742722516 43.00198221565326  41.51996816633922 43.00198221565326  C 42.033951522223425 43.00198221565326  42.45061735779648 42.5853163800802  42.45061735779648 42.071333024195994  C 42.45061735779648 42.070672285083745  42.45061665413255 42.07001154615624  42 42.069350808542744  L 42 26.080005657441895  L 46.63061618971289 26.080005657441895  C 47.24693769187404 26.07629346878416  47.744605185588796 25.575619428571844  47.744605185588796 24.959286747002217  C 47.744605185588796 24.665151585362672  47.62897374187332 24.38280582362103  47.42265805478289 24.17316486728585  L 42.44071472349253 19.080335674885678  L 42.44071472349253 11.052991372401111  C 42.43977822656037 10.545978368299583  42.034762658001924 10.132177212570667  41.52788647399934 10.120362076281175  L 37.63698081184291 10.120362076281175  C 37.12158373649034 10.121452862513006  36.704349413715185 10.539571154322868  36.704349413715185 11.05496938394399  C 36.704349413715185 11.055630117095607  36.70435011438484 11.056290850060877  36.704351515722976 11.056951581726462  L 36.704351515722976 13.235066710668995  L 24.990052331337516 1.4079015605110567  C 24.724369158627212 1.1398204768871634  24.36157507758098 0.9905607073228676  23.984159162698603 0.9940596860119758  Z M 24 13.597425863938522  L 23.984159162698603 13.597425863938522  C 23.98349946860499 13.597425184192089  23.982839774203946 13.597424844318798  23.982180079760134 13.597424844318798  C 22.92140591974379 13.597424844318798  22.061478556965355 14.457352207097237  22.061478556965355 15.518126367113577  C 22.061478556965355 16.57890052712991  22.92140591974379 17.43882788990835  23.982180079760134 17.43882788990835  C 25.042180645093346 17.43882788990835  25.901787234032973 16.580107492858016  25.902880580830704 15.520107491395976  C 25.904013214414505 14.46548234066675  25.054580368401773 13.607210443186666  24 13.597425863938522  Z M 15.634057800198008 23.882089481872615  C 15.274502061215614 23.52202994711639  14.78653107040077 23.319717886690963  14.277686106265612 23.319739757672906  C 13.21913128350777 23.31978525607624  12.361027177446863 24.177926245636176  12.361027177446863 25.23648106937182  C 12.361027177446863 26.295068066171627  13.21918149411648 27.153222382841243  14.277768490916287 27.153222382841243  C 15.336355487716098 27.153222382841243  16.19450980438571 26.295068066171627  16.19450980438571 25.23648106937182  C 16.19450980438571 24.72859464527527  15.992936223367344 24.241470751786725  15.634057800198008 23.882089481872615  Z M 35.06482485502804 23.882089481872615  C 34.70502264359017 23.52239857925775  34.21721145950131 23.320152774467623  33.708453161095655 23.319739757672906  C 32.649898338337806 23.31978525607624  31.791794232276906 24.177926245636176  31.791794232276906 25.23648106937182  C 31.791794232276906 26.295068066171627  32.64994854894652 27.153222382841243  33.70853554574633 27.153222382841243  C 34.76712254254613 27.153222382841243  35.62527685921575 26.295068066171627  35.62527685921575 25.23648106937182  C 35.62527685921575 24.72859464527526  35.42370327819739 24.24147075178673  35.06482485502804 23.882089481872615  Z " fill-rule="nonzero" fill="rgba(65, 189, 245, 1)" stroke="none" class="fill" />
    <path d="M 23.984159162698603 0.9940596860119758  L 23.984159162698596 1.001980104662675  C 23.611386404365035 1.0024480771502988  23.254515141140395 1.1530477502310936  22.994106831361087 1.419782188487106  L 0.5595210032530284 24.17910518127387  C 0.35320531616260303 24.388746137609054  0.23757387244712963 24.671091899350685  0.23757387244712963 24.965227060990244  C 0.23757387244712963 25.581559742559865  0.7352413661618944 26.08223378277218  1.3515628683230394 26.085945971429915  L 6 26.085945971429915  L 6 42.073311017868086  C 5.5097812526139425 42.07397175548236  5.509780548950016 42.07463249440833  5.509780548950016 42.07529323352135  C 5.509780548950016 42.58927658940555  5.926446384523075 43.005942424978606  6.440429740407279 43.005942424978606  C 6.441090479519523 43.005942424978606  6.441751218447045 43.00594172131468  6.442411956060534 43  L 22.178303710338973 43  L 22.178303710338973 35.70727452736788  L 16.15284522181887 29.658054782895668  C 15.559530806174605 29.91025132940861  14.921458657131378 30.04023438979654  14.27676873640642 30.04023438979654  C 11.62811408119037 30.04023438979654  9.480955243407506 27.893075552013677  9.480955243407506 25.244420896797624  C 9.480955243407506 22.59576624158158  11.62811408119037 20.44860740379871  14.27676873640642 20.44860740379871  C 16.925423391622473 20.44860740379871  19.07258222940534 22.59576624158158  19.07258222940534 25.244420896797624  C 19.07258222940534 25.88659556770428  18.943611244486057 26.522230104921245  18.693319504030924 27.11362029135826  L 23 30.61444533496771  L 23 19.971382773089434  C 20.3822646595329 19.238676012846483  19.196266088350384 17.479767118645867  19.196266088350384 15.525344460817198  C 19.196266088350384 12.87668980560115  21.343424926133252 10.729530967818281  23.9920795813493 10.729530967818281  C 26.64073423656535 10.729530967818281  28.78789307434822 12.87668980560115  28.78789307434822 15.525344460817198  C 28.78789307434822 17.479767118645867  27.601894503165703 19.238676012846483  25 19.971382773089434  L 25 30.61444533496771  L 29.286879449342322 27.11362029135826  C 29.033888407448764 26.51866513694419  28.90349313505844 25.878795524028988  28.90349313505844 25.2322848102413  C 28.90349313505844 22.577068665375663  31.05597111116777 20.42459068926633  33.711187256033405 20.42459068926633  C 36.36640340089904 20.42459068926633  38.51888137700837 22.577068665375663  38.51888137700837 25.2322848102413  C 38.51888137700837 27.887500955106933  36.36640340089904 30.039978931216265  33.711187256033405 30.039978931216265  C 33.065935845206184 30.039978931216265  32.42728655983175 29.910091042475024  31.83329404554241 29.658054782895668  L 25.782094196407527 35.70727452736788  L 25.782094196407527 43  L 41.517985950685976 43  C 41.518646688301274 43.001981511989335  41.51930742722516 43.00198221565326  41.51996816633922 43.00198221565326  C 42.033951522223425 43.00198221565326  42.45061735779648 42.5853163800802  42.45061735779648 42.071333024195994  C 42.45061735779648 42.070672285083745  42.45061665413255 42.07001154615624  42 42.069350808542744  L 42 26.080005657441895  L 46.63061618971289 26.080005657441895  C 47.24693769187404 26.07629346878416  47.744605185588796 25.575619428571844  47.744605185588796 24.959286747002217  C 47.744605185588796 24.665151585362672  47.62897374187332 24.38280582362103  47.42265805478289 24.17316486728585  L 42.44071472349253 19.080335674885678  L 42.44071472349253 11.052991372401111  C 42.43977822656037 10.545978368299583  42.034762658001924 10.132177212570667  41.52788647399934 10.120362076281175  L 37.63698081184291 10.120362076281175  C 37.12158373649034 10.121452862513006  36.704349413715185 10.539571154322868  36.704349413715185 11.05496938394399  C 36.704349413715185 11.055630117095607  36.70435011438484 11.056290850060877  36.704351515722976 11.056951581726462  L 36.704351515722976 13.235066710668995  L 24.990052331337516 1.4079015605110567  C 24.724369158627212 1.1398204768871634  24.36157507758098 0.9905607073228676  23.984159162698603 0.9940596860119758  Z " stroke-width="0" stroke-dasharray="0" stroke="rgba(255, 255, 255, 0)" fill="none" class="stroke" mask="url(#Clip6999)" />
    <path d="M 24 13.597425863938522  L 23.984159162698603 13.597425863938522  C 23.98349946860499 13.597425184192089  23.982839774203946 13.597424844318798  23.982180079760134 13.597424844318798  C 22.92140591974379 13.597424844318798  22.061478556965355 14.457352207097237  22.061478556965355 15.518126367113577  C 22.061478556965355 16.57890052712991  22.92140591974379 17.43882788990835  23.982180079760134 17.43882788990835  C 25.042180645093346 17.43882788990835  25.901787234032973 16.580107492858016  25.902880580830704 15.520107491395976  C 25.904013214414505 14.46548234066675  25.054580368401773 13.607210443186666  24 13.597425863938522  Z " stroke-width="0" stroke-dasharray="0" stroke="rgba(255, 255, 255, 0)" fill="none" class="stroke" mask="url(#Clip6999)" />
    <path d="M 15.634057800198008 23.882089481872615  C 15.274502061215614 23.52202994711639  14.78653107040077 23.319717886690963  14.277686106265612 23.319739757672906  C 13.21913128350777 23.31978525607624  12.361027177446863 24.177926245636176  12.361027177446863 25.23648106937182  C 12.361027177446863 26.295068066171627  13.21918149411648 27.153222382841243  14.277768490916287 27.153222382841243  C 15.336355487716098 27.153222382841243  16.19450980438571 26.295068066171627  16.19450980438571 25.23648106937182  C 16.19450980438571 24.72859464527527  15.992936223367344 24.241470751786725  15.634057800198008 23.882089481872615  Z " stroke-width="0" stroke-dasharray="0" stroke="rgba(255, 255, 255, 0)" fill="none" class="stroke" mask="url(#Clip6999)" />
    <path d="M 35.06482485502804 23.882089481872615  C 34.70502264359017 23.52239857925775  34.21721145950131 23.320152774467623  33.708453161095655 23.319739757672906  C 32.649898338337806 23.31978525607624  31.791794232276906 24.177926245636176  31.791794232276906 25.23648106937182  C 31.791794232276906 26.295068066171627  32.64994854894652 27.153222382841243  33.70853554574633 27.153222382841243  C 34.76712254254613 27.153222382841243  35.62527685921575 26.295068066171627  35.62527685921575 25.23648106937182  C 35.62527685921575 24.72859464527526  35.42370327819739 24.24147075178673  35.06482485502804 23.882089481872615  Z " stroke-width="0" stroke-dasharray="0" stroke="rgba(255, 255, 255, 0)" fill="none" class="stroke" mask="url(#Clip6999)" />
  </g>
</svg>