<?xml version="1.0" encoding="utf-8"?>
<svg version="1.1" xmlns:xlink="http://www.w3.org/1999/xlink" width="38px" height="50px" xmlns="http://www.w3.org/2000/svg">
  <defs>
    <pattern id="BGPattern" patternUnits="userSpaceOnUse" alignment="0 0" imageRepeat="None" />
    <mask fill="white" id="Clip1535">
      <path d="M 24.21875 16  C 22.929687500000004 15.625  21.875 14.570312499999998  21.875 13.28125  L 21.875 0  L 2.34375 0  C 1.044921875 0  0 1.044921875  0 2.34375  L 0 47.65625  C 0 48.955078125  1.044921875 50  2.34375 50  L 35.15625 50  C 36.455078125 50  37.5 48.955078125  37 47.65625  L 37 16  L 24.21875 16  Z M 36.81640625 10.25390625  C 37.255859375 10.693359375  37.5 11.2890625  37.5 11.904296875  L 37.5 13  L 25 13  L 25 0  L 25.595703125 0  C 26.220703125 0  26.81640625 0.244140625  27.255859375 0.68359375  L 36.81640625 10.25390625  Z " fill-rule="evenodd" />
    </mask>
  </defs>
  <g>
    <path d="M 24.21875 16  C 22.929687500000004 15.625  21.875 14.570312499999998  21.875 13.28125  L 21.875 0  L 2.34375 0  C 1.044921875 0  0 1.044921875  0 2.34375  L 0 47.65625  C 0 48.955078125  1.044921875 50  2.34375 50  L 35.15625 50  C 36.455078125 50  37.5 48.955078125  37 47.65625  L 37 16  L 24.21875 16  Z M 36.81640625 10.25390625  C 37.255859375 10.693359375  37.5 11.2890625  37.5 11.904296875  L 37.5 13  L 25 13  L 25 0  L 25.595703125 0  C 26.220703125 0  26.81640625 0.244140625  27.255859375 0.68359375  L 36.81640625 10.25390625  Z " fill-rule="nonzero" fill="rgba(0, 0, 0, 1)" stroke="none" class="fill" />
    <path d="M 24.21875 16  C 22.929687500000004 15.625  21.875 14.570312499999998  21.875 13.28125  L 21.875 0  L 2.34375 0  C 1.044921875 0  0 1.044921875  0 2.34375  L 0 47.65625  C 0 48.955078125  1.044921875 50  2.34375 50  L 35.15625 50  C 36.455078125 50  37.5 48.955078125  37 47.65625  L 37 16  L 24.21875 16  Z " stroke-width="0" stroke-dasharray="0" stroke="rgba(255, 255, 255, 0)" fill="none" class="stroke" mask="url(#Clip1535)" />
    <path d="M 36.81640625 10.25390625  C 37.255859375 10.693359375  37.5 11.2890625  37.5 11.904296875  L 37.5 13  L 25 13  L 25 0  L 25.595703125 0  C 26.220703125 0  26.81640625 0.244140625  27.255859375 0.68359375  L 36.81640625 10.25390625  Z " stroke-width="0" stroke-dasharray="0" stroke="rgba(255, 255, 255, 0)" fill="none" class="stroke" mask="url(#Clip1535)" />
  </g>
</svg>