<?xml version="1.0" encoding="utf-8"?>
<svg version="1.1" xmlns:xlink="http://www.w3.org/1999/xlink" width="48px" height="48px" xmlns="http://www.w3.org/2000/svg">
  <defs>
    <pattern id="BGPattern" patternUnits="userSpaceOnUse" alignment="0 0" imageRepeat="None" />
    <mask fill="white" id="Clip7043">
      <path d="M 27.844 47.68600000000001  C 26.546 47.896  25.246 48  23.958 48  C 18.991999999999997 48  14.161999999999999 46.446  10.049999999999999 43.476  C 4.869999999999999 39.732  1.4499999999999993 34.188  0.4219999999999988 27.862  C -0.6060000000000012 21.537999999999997  0.8779999999999988 15.189999999999998  4.603999999999999 9.988  C 8.331999999999999 4.779999999999999  13.857999999999997 1.346  20.164 0.3179999999999996  C 26.46 -0.7100000000000004  32.778000000000006 0.7839999999999996  37.956 4.526  C 43.136 8.27  46.556000000000004 13.814  47.586000000000006 20.14  C 48.614000000000004 26.464  47.13 32.812  43.404 38.016000000000005  C 39.67400000000001 43.224000000000004  34.148 46.658  27.844 47.68600000000001  Z M 11.01 42.148  C 15.832 45.632000000000005  21.716 47.024  27.578000000000003 46.068000000000005  C 33.45 45.11000000000001  38.596000000000004 41.910000000000004  42.07000000000001 37.06  C 49.236000000000004 27.052000000000007  46.96000000000001 13.052000000000003  36.99400000000001 5.852000000000004  C 32.172000000000004 2.368000000000004  26.28800000000001 0.9760000000000035  20.426000000000005 1.932000000000004  C 14.555999999999997 2.892  9.408 6.09  5.936 10.94  C -1.232 20.948  1.046 34.948  11.01 42.148  Z M 28.939999999999998 35.296000000000014  C 29.68 35.46  31.187999999999995 35.346  32.222 35.044  C 33.684000000000005 34.616  34.714 33.57599999999999  35.138 32.108  L 35 31.675999999999995  L 35 20.101999999999997  C 35.29 11.433999999999997  35.278 8.473999999999997  35.23 8.311999999999998  C 35.18 8.139999999999997  35.098 7.9979999999999976  34.994 7.883999999999998  C 34.839999999999996 7.787999999999998  34.653999999999996 7.737999999999998  34.442 7.737999999999998  C 34.296 7.737999999999998  33.792 7.807999999999998  33.322 7.893999999999998  C 31.240000000000002 8.273999999999997  18.970000000000002 10.715999999999998  18.760000000000005 10.793999999999997  C 18.436 10.916  18.114 11.2  17.962 11.502  L 17.832 11.758  C 17.832 11.758  17.77 29.9  17.676000000000002 30.104  C 17.534000000000002 30.414  17.216 30.71  16.924000000000003 30.803999999999995  C 16.786 30.848  16.238000000000003 30.972  15.706000000000003 31.078000000000003  C 13.244000000000003 31.567999999999998  12.330000000000004 31.919999999999995  11.556000000000003 32.68  C 11.116000000000003 33.112  10.792000000000003 33.7  10.650000000000002 34.318  C 10.516000000000002 34.908  10.560000000000002 35.791999999999994  10.752000000000002 36.33  C 10.952000000000002 36.891999999999996  11.276000000000003 37.372  11.698000000000002 37.75  C 12.082 38.046  12.536000000000001 38.266  13.046000000000003 38.398  C 14.172000000000004 38.686  16.282000000000004 38.36600000000001  17.362000000000002 37.742000000000004  C 17.814000000000004 37.480000000000004  18.394000000000002 36.934000000000005  18.696 36.484  C 18.816000000000003 36.306000000000004  18.996000000000002 35.948  19.096 35.686  C 19.448 34.774  19.458 18.522  19.504 18.318  C 19.580000000000002 17.970000000000002  19.818 17.716  20.144000000000002 17.630000000000003  C 20.438000000000002 17.552000000000003  32.254000000000005 15.216000000000003  32.588 15.170000000000002  C 32.88 15.130000000000003  33.156 15.224000000000002  33.308 15.410000000000004  C 33.398 15.458000000000002  33.474 15.522000000000002  33.526 15.602000000000004  C 33.622 15.744  33.628 16.028000000000002  33.642 21.172000000000004  C 33.658 27.094  33.666000000000004 26.956000000000003  33.344 27.330000000000005  C 33.11 27.602000000000004  32.818 27.708000000000006  31.616 27.952000000000005  C 29.788000000000004 28.326000000000008  29.164 28.50200000000001  28.464 28.844000000000005  C 27.590000000000003 29.270000000000003  27.105999999999995 29.738000000000007  26.729999999999997 30.516000000000005  C 26.464 31.06600000000001  26.366 31.478000000000005  26.366 32.02400000000001  C 26.367999999999995 33.00200000000001  26.703999999999994 33.766000000000005  27.466 34.51400000000001  C 27.536 34.58200000000001  27.604 34.64600000000001  27.674 34.70800000000001  C 28.058 35.00400000000001  28.447999999999993 35.18400000000001  28.939999999999998 35.296000000000014  Z " fill-rule="evenodd" />
    </mask>
  </defs>
  <g>
    <path d="M 27.844 47.68600000000001  C 26.546 47.896  25.246 48  23.958 48  C 18.991999999999997 48  14.161999999999999 46.446  10.049999999999999 43.476  C 4.869999999999999 39.732  1.4499999999999993 34.188  0.4219999999999988 27.862  C -0.6060000000000012 21.537999999999997  0.8779999999999988 15.189999999999998  4.603999999999999 9.988  C 8.331999999999999 4.779999999999999  13.857999999999997 1.346  20.164 0.3179999999999996  C 26.46 -0.7100000000000004  32.778000000000006 0.7839999999999996  37.956 4.526  C 43.136 8.27  46.556000000000004 13.814  47.586000000000006 20.14  C 48.614000000000004 26.464  47.13 32.812  43.404 38.016000000000005  C 39.67400000000001 43.224000000000004  34.148 46.658  27.844 47.68600000000001  Z M 11.01 42.148  C 15.832 45.632000000000005  21.716 47.024  27.578000000000003 46.068000000000005  C 33.45 45.11000000000001  38.596000000000004 41.910000000000004  42.07000000000001 37.06  C 49.236000000000004 27.052000000000007  46.96000000000001 13.052000000000003  36.99400000000001 5.852000000000004  C 32.172000000000004 2.368000000000004  26.28800000000001 0.9760000000000035  20.426000000000005 1.932000000000004  C 14.555999999999997 2.892  9.408 6.09  5.936 10.94  C -1.232 20.948  1.046 34.948  11.01 42.148  Z M 28.939999999999998 35.296000000000014  C 29.68 35.46  31.187999999999995 35.346  32.222 35.044  C 33.684000000000005 34.616  34.714 33.57599999999999  35.138 32.108  L 35 31.675999999999995  L 35 20.101999999999997  C 35.29 11.433999999999997  35.278 8.473999999999997  35.23 8.311999999999998  C 35.18 8.139999999999997  35.098 7.9979999999999976  34.994 7.883999999999998  C 34.839999999999996 7.787999999999998  34.653999999999996 7.737999999999998  34.442 7.737999999999998  C 34.296 7.737999999999998  33.792 7.807999999999998  33.322 7.893999999999998  C 31.240000000000002 8.273999999999997  18.970000000000002 10.715999999999998  18.760000000000005 10.793999999999997  C 18.436 10.916  18.114 11.2  17.962 11.502  L 17.832 11.758  C 17.832 11.758  17.77 29.9  17.676000000000002 30.104  C 17.534000000000002 30.414  17.216 30.71  16.924000000000003 30.803999999999995  C 16.786 30.848  16.238000000000003 30.972  15.706000000000003 31.078000000000003  C 13.244000000000003 31.567999999999998  12.330000000000004 31.919999999999995  11.556000000000003 32.68  C 11.116000000000003 33.112  10.792000000000003 33.7  10.650000000000002 34.318  C 10.516000000000002 34.908  10.560000000000002 35.791999999999994  10.752000000000002 36.33  C 10.952000000000002 36.891999999999996  11.276000000000003 37.372  11.698000000000002 37.75  C 12.082 38.046  12.536000000000001 38.266  13.046000000000003 38.398  C 14.172000000000004 38.686  16.282000000000004 38.36600000000001  17.362000000000002 37.742000000000004  C 17.814000000000004 37.480000000000004  18.394000000000002 36.934000000000005  18.696 36.484  C 18.816000000000003 36.306000000000004  18.996000000000002 35.948  19.096 35.686  C 19.448 34.774  19.458 18.522  19.504 18.318  C 19.580000000000002 17.970000000000002  19.818 17.716  20.144000000000002 17.630000000000003  C 20.438000000000002 17.552000000000003  32.254000000000005 15.216000000000003  32.588 15.170000000000002  C 32.88 15.130000000000003  33.156 15.224000000000002  33.308 15.410000000000004  C 33.398 15.458000000000002  33.474 15.522000000000002  33.526 15.602000000000004  C 33.622 15.744  33.628 16.028000000000002  33.642 21.172000000000004  C 33.658 27.094  33.666000000000004 26.956000000000003  33.344 27.330000000000005  C 33.11 27.602000000000004  32.818 27.708000000000006  31.616 27.952000000000005  C 29.788000000000004 28.326000000000008  29.164 28.50200000000001  28.464 28.844000000000005  C 27.590000000000003 29.270000000000003  27.105999999999995 29.738000000000007  26.729999999999997 30.516000000000005  C 26.464 31.06600000000001  26.366 31.478000000000005  26.366 32.02400000000001  C 26.367999999999995 33.00200000000001  26.703999999999994 33.766000000000005  27.466 34.51400000000001  C 27.536 34.58200000000001  27.604 34.64600000000001  27.674 34.70800000000001  C 28.058 35.00400000000001  28.447999999999993 35.18400000000001  28.939999999999998 35.296000000000014  Z " fill-rule="nonzero" fill="rgba(251, 91, 197, 1)" stroke="none" class="fill" />
    <path d="M 27.844 47.68600000000001  C 26.546 47.896  25.246 48  23.958 48  C 18.991999999999997 48  14.161999999999999 46.446  10.049999999999999 43.476  C 4.869999999999999 39.732  1.4499999999999993 34.188  0.4219999999999988 27.862  C -0.6060000000000012 21.537999999999997  0.8779999999999988 15.189999999999998  4.603999999999999 9.988  C 8.331999999999999 4.779999999999999  13.857999999999997 1.346  20.164 0.3179999999999996  C 26.46 -0.7100000000000004  32.778000000000006 0.7839999999999996  37.956 4.526  C 43.136 8.27  46.556000000000004 13.814  47.586000000000006 20.14  C 48.614000000000004 26.464  47.13 32.812  43.404 38.016000000000005  C 39.67400000000001 43.224000000000004  34.148 46.658  27.844 47.68600000000001  Z " stroke-width="0" stroke-dasharray="0" stroke="rgba(255, 255, 255, 0)" fill="none" class="stroke" mask="url(#Clip7043)" />
    <path d="M 11.01 42.148  C 15.832 45.632000000000005  21.716 47.024  27.578000000000003 46.068000000000005  C 33.45 45.11000000000001  38.596000000000004 41.910000000000004  42.07000000000001 37.06  C 49.236000000000004 27.052000000000007  46.96000000000001 13.052000000000003  36.99400000000001 5.852000000000004  C 32.172000000000004 2.368000000000004  26.28800000000001 0.9760000000000035  20.426000000000005 1.932000000000004  C 14.555999999999997 2.892  9.408 6.09  5.936 10.94  C -1.232 20.948  1.046 34.948  11.01 42.148  Z " stroke-width="0" stroke-dasharray="0" stroke="rgba(255, 255, 255, 0)" fill="none" class="stroke" mask="url(#Clip7043)" />
    <path d="M 28.939999999999998 35.296000000000014  C 29.68 35.46  31.187999999999995 35.346  32.222 35.044  C 33.684000000000005 34.616  34.714 33.57599999999999  35.138 32.108  L 35 31.675999999999995  L 35 20.101999999999997  C 35.29 11.433999999999997  35.278 8.473999999999997  35.23 8.311999999999998  C 35.18 8.139999999999997  35.098 7.9979999999999976  34.994 7.883999999999998  C 34.839999999999996 7.787999999999998  34.653999999999996 7.737999999999998  34.442 7.737999999999998  C 34.296 7.737999999999998  33.792 7.807999999999998  33.322 7.893999999999998  C 31.240000000000002 8.273999999999997  18.970000000000002 10.715999999999998  18.760000000000005 10.793999999999997  C 18.436 10.916  18.114 11.2  17.962 11.502  L 17.832 11.758  C 17.832 11.758  17.77 29.9  17.676000000000002 30.104  C 17.534000000000002 30.414  17.216 30.71  16.924000000000003 30.803999999999995  C 16.786 30.848  16.238000000000003 30.972  15.706000000000003 31.078000000000003  C 13.244000000000003 31.567999999999998  12.330000000000004 31.919999999999995  11.556000000000003 32.68  C 11.116000000000003 33.112  10.792000000000003 33.7  10.650000000000002 34.318  C 10.516000000000002 34.908  10.560000000000002 35.791999999999994  10.752000000000002 36.33  C 10.952000000000002 36.891999999999996  11.276000000000003 37.372  11.698000000000002 37.75  C 12.082 38.046  12.536000000000001 38.266  13.046000000000003 38.398  C 14.172000000000004 38.686  16.282000000000004 38.36600000000001  17.362000000000002 37.742000000000004  C 17.814000000000004 37.480000000000004  18.394000000000002 36.934000000000005  18.696 36.484  C 18.816000000000003 36.306000000000004  18.996000000000002 35.948  19.096 35.686  C 19.448 34.774  19.458 18.522  19.504 18.318  C 19.580000000000002 17.970000000000002  19.818 17.716  20.144000000000002 17.630000000000003  C 20.438000000000002 17.552000000000003  32.254000000000005 15.216000000000003  32.588 15.170000000000002  C 32.88 15.130000000000003  33.156 15.224000000000002  33.308 15.410000000000004  C 33.398 15.458000000000002  33.474 15.522000000000002  33.526 15.602000000000004  C 33.622 15.744  33.628 16.028000000000002  33.642 21.172000000000004  C 33.658 27.094  33.666000000000004 26.956000000000003  33.344 27.330000000000005  C 33.11 27.602000000000004  32.818 27.708000000000006  31.616 27.952000000000005  C 29.788000000000004 28.326000000000008  29.164 28.50200000000001  28.464 28.844000000000005  C 27.590000000000003 29.270000000000003  27.105999999999995 29.738000000000007  26.729999999999997 30.516000000000005  C 26.464 31.06600000000001  26.366 31.478000000000005  26.366 32.02400000000001  C 26.367999999999995 33.00200000000001  26.703999999999994 33.766000000000005  27.466 34.51400000000001  C 27.536 34.58200000000001  27.604 34.64600000000001  27.674 34.70800000000001  C 28.058 35.00400000000001  28.447999999999993 35.18400000000001  28.939999999999998 35.296000000000014  Z " stroke-width="0" stroke-dasharray="0" stroke="rgba(255, 255, 255, 0)" fill="none" class="stroke" mask="url(#Clip7043)" />
  </g>
</svg>