<?xml version="1.0" encoding="utf-8"?>
<svg version="1.1" xmlns:xlink="http://www.w3.org/1999/xlink" width="12px" height="5px" xmlns="http://www.w3.org/2000/svg">
  <defs>
    <pattern id="BGPattern" patternUnits="userSpaceOnUse" alignment="0 0" imageRepeat="None" />
    <mask fill="white" id="Clip5378">
      <path d="M 0.15300000000000047 1.375  C -0.054097002347877954 1.0162897675047144  0.06879888012005075 0.5576127853976409  0.4275000000000002 0.35050000000000026  C 0.786210232495284 0.1434029976521245  1.244887214602361 0.26629888012005054  1.4519999999999982 0.6249999999999964  C 2.3896126603756755 2.2502321469092017  4.1237015683591025 3.2511080007914543  5.999999999999998 3.2499999999999964  C 7.876298431640894 3.2511080007914543  9.610387339624324 2.2502321469092017  10.548000000000002 0.625  C 10.681312547412613 0.3905244538554946  10.930263558797012 0.24569160961166858  11.1999875233189 0.24569160961166858  C 11.614201085691995 0.24569160961166858  11.9499875233189 0.5814780472385728  11.9499875233189 0.9956916096116686  C 11.9499875233189 1.1290347764234703  11.914437575963554 1.2599670765234592  11.847000000000001 1.375  C 10.641444804211176 3.464321815233127  8.41218319795749 4.751094163635081  6 4.75  C 3.5878168020425107 4.751094163635081  1.3585551957888207 3.464321815233127  0.15300000000000047 1.375  Z " fill-rule="evenodd" />
    </mask>
  </defs>
  <g transform="matrix(1 0 0 1 -6 -14 )">
    <path d="M 0.15300000000000047 1.375  C -0.054097002347877954 1.0162897675047144  0.06879888012005075 0.5576127853976409  0.4275000000000002 0.35050000000000026  C 0.786210232495284 0.1434029976521245  1.244887214602361 0.26629888012005054  1.4519999999999982 0.6249999999999964  C 2.3896126603756755 2.2502321469092017  4.1237015683591025 3.2511080007914543  5.999999999999998 3.2499999999999964  C 7.876298431640894 3.2511080007914543  9.610387339624324 2.2502321469092017  10.548000000000002 0.625  C 10.681312547412613 0.3905244538554946  10.930263558797012 0.24569160961166858  11.1999875233189 0.24569160961166858  C 11.614201085691995 0.24569160961166858  11.9499875233189 0.5814780472385728  11.9499875233189 0.9956916096116686  C 11.9499875233189 1.1290347764234703  11.914437575963554 1.2599670765234592  11.847000000000001 1.375  C 10.641444804211176 3.464321815233127  8.41218319795749 4.751094163635081  6 4.75  C 3.5878168020425107 4.751094163635081  1.3585551957888207 3.464321815233127  0.15300000000000047 1.375  Z " fill-rule="nonzero" fill="rgba(0, 0, 0, 1)" stroke="none" transform="matrix(1 0 0 1 6 14 )" class="fill" />
    <path d="M 0.15300000000000047 1.375  C -0.054097002347877954 1.0162897675047144  0.06879888012005075 0.5576127853976409  0.4275000000000002 0.35050000000000026  C 0.786210232495284 0.1434029976521245  1.244887214602361 0.26629888012005054  1.4519999999999982 0.6249999999999964  C 2.3896126603756755 2.2502321469092017  4.1237015683591025 3.2511080007914543  5.999999999999998 3.2499999999999964  C 7.876298431640894 3.2511080007914543  9.610387339624324 2.2502321469092017  10.548000000000002 0.625  C 10.681312547412613 0.3905244538554946  10.930263558797012 0.24569160961166858  11.1999875233189 0.24569160961166858  C 11.614201085691995 0.24569160961166858  11.9499875233189 0.5814780472385728  11.9499875233189 0.9956916096116686  C 11.9499875233189 1.1290347764234703  11.914437575963554 1.2599670765234592  11.847000000000001 1.375  C 10.641444804211176 3.464321815233127  8.41218319795749 4.751094163635081  6 4.75  C 3.5878168020425107 4.751094163635081  1.3585551957888207 3.464321815233127  0.15300000000000047 1.375  Z " stroke-width="0" stroke-dasharray="0" stroke="rgba(255, 255, 255, 0)" fill="none" transform="matrix(1 0 0 1 6 14 )" class="stroke" mask="url(#Clip5378)" />
  </g>
</svg>