<?xml version="1.0" encoding="utf-8"?>
<svg version="1.1" xmlns:xlink="http://www.w3.org/1999/xlink" width="48px" height="48px" xmlns="http://www.w3.org/2000/svg">
  <defs>
    <pattern id="BGPattern" patternUnits="userSpaceOnUse" alignment="0 0" imageRepeat="None" />
    <mask fill="white" id="Clip6681">
      <path d="M 48 24  C 48 10.745166004060957  37.254833995939045 0  24 0  C 10.745166004060957 0  0 10.745166004060957  0 24  C 0 37.254833995939045  10.745166004060957 48  24 48  C 37.254833995939045 48  48 37.254833995939045  48 24  Z M 30.841999999999995 10.676000000000005  L 30.839999999999996 10.676  C 31.387999999999998 10.676  31.942 10.886000000000001  32.378 11.306000000000001  L 38.102000000000004 17.03  C 42.21 21.108  42.27 27.730000000000004  38.312000000000005 31.928000000000004  C 38.289443774957746 31.973076479125965  38.25895767694909 32.013724609804164  38.222 32.048  L 38.162 32.108000000000004  L 38.102 32.168000000000006  C 38.071999999999996 32.19800000000001  38.01199999999999 32.22800000000001  37.982 32.25800000000001  C 33.786 36.21400000000001  27.162 36.15400000000001  23.055999999999997 32.04800000000001  L 17.33 26.32200000000001  C 16.92749069626545 25.927086073064203  16.700713772288815 25.38688895119585  16.700713772288815 24.823000000000008  C 16.700713772288815 24.25911104880418  16.927490696265448 23.718913926935823  17.33 23.32400000000001  C 17.72498680177169 22.920868283552306  18.265615596973213 22.693693845669916  18.83 22.693693845669916  C 19.394384403026788 22.693693845669916  19.935013198228305 22.920868283552302  20.33 23.32400000000001  L 26.052 29.050000000000004  C 28.552277789184124 31.555134648937894  32.6028488726379 31.58188875120642  35.135999999999996 29.11000000000001  C 37.59148070570914 26.57102851356013  37.564812209531524 22.534307142141884  35.07599999999999 20.028000000000006  L 29.349999999999994 14.304000000000006  C 28.946868283552284 13.909013198228315  28.719693845669894 13.368384403026791  28.719693845669894 12.804000000000006  C 28.719693845669894 12.239615596973216  28.946868283552284 11.6989868017717  29.349999999999994 11.304000000000006  C 29.755999999999993 10.886000000000006  30.29399999999999 10.676000000000005  30.841999999999995 10.676000000000005  Z M 17.515999999999995 12.792000000000002  L 17.516 12.793999999999997  C 20.306638993287823 12.823877280129231  22.97427461262686 13.94694110479848  24.945999999999998 15.922  L 30.671999999999997 21.646  C 31.512 22.486  31.512 23.806  30.671999999999997 24.646  C 29.831999999999997 25.484  28.512 25.484  27.671999999999997 24.646  L 21.95 18.92  C 19.429213256236398 16.422681959858533  15.37116889854989 16.409327272415506  12.834 18.89  C 10.378758044225693 21.42829350327005  10.405428185413303 25.46437486966185  12.894 27.97  L 18.62 33.696  C 19.46 34.536  19.46 35.855999999999995  18.62 36.693999999999996  C 18.225086073064187 37.09650930373454  17.684888951195838 37.32328622771118  17.121000000000002 37.32328622771118  C 16.55711104880417 37.32328622771118  16.016913926935814 37.09650930373454  15.622 36.693999999999996  L 9.9 30.968  C 5.792000000000001 26.862000000000002  5.732 20.238  9.69 16.042  C 9.719999999999999 15.982000000000001  9.75 15.952000000000002  9.78 15.922000000000002  L 9.84 15.862000000000002  L 9.9 15.802000000000003  C 9.93 15.772000000000002  9.99 15.742  10.019999999999998 15.712  C 12.044294021513139 13.801575754397522  14.732824748769929 12.754282568219585  17.515999999999995 12.792000000000002  Z " fill-rule="evenodd" />
    </mask>
  </defs>
  <g>
    <path d="M 48 24  C 48 10.745166004060957  37.254833995939045 0  24 0  C 10.745166004060957 0  0 10.745166004060957  0 24  C 0 37.254833995939045  10.745166004060957 48  24 48  C 37.254833995939045 48  48 37.254833995939045  48 24  Z M 30.841999999999995 10.676000000000005  L 30.839999999999996 10.676  C 31.387999999999998 10.676  31.942 10.886000000000001  32.378 11.306000000000001  L 38.102000000000004 17.03  C 42.21 21.108  42.27 27.730000000000004  38.312000000000005 31.928000000000004  C 38.289443774957746 31.973076479125965  38.25895767694909 32.013724609804164  38.222 32.048  L 38.162 32.108000000000004  L 38.102 32.168000000000006  C 38.071999999999996 32.19800000000001  38.01199999999999 32.22800000000001  37.982 32.25800000000001  C 33.786 36.21400000000001  27.162 36.15400000000001  23.055999999999997 32.04800000000001  L 17.33 26.32200000000001  C 16.92749069626545 25.927086073064203  16.700713772288815 25.38688895119585  16.700713772288815 24.823000000000008  C 16.700713772288815 24.25911104880418  16.927490696265448 23.718913926935823  17.33 23.32400000000001  C 17.72498680177169 22.920868283552306  18.265615596973213 22.693693845669916  18.83 22.693693845669916  C 19.394384403026788 22.693693845669916  19.935013198228305 22.920868283552302  20.33 23.32400000000001  L 26.052 29.050000000000004  C 28.552277789184124 31.555134648937894  32.6028488726379 31.58188875120642  35.135999999999996 29.11000000000001  C 37.59148070570914 26.57102851356013  37.564812209531524 22.534307142141884  35.07599999999999 20.028000000000006  L 29.349999999999994 14.304000000000006  C 28.946868283552284 13.909013198228315  28.719693845669894 13.368384403026791  28.719693845669894 12.804000000000006  C 28.719693845669894 12.239615596973216  28.946868283552284 11.6989868017717  29.349999999999994 11.304000000000006  C 29.755999999999993 10.886000000000006  30.29399999999999 10.676000000000005  30.841999999999995 10.676000000000005  Z M 17.515999999999995 12.792000000000002  L 17.516 12.793999999999997  C 20.306638993287823 12.823877280129231  22.97427461262686 13.94694110479848  24.945999999999998 15.922  L 30.671999999999997 21.646  C 31.512 22.486  31.512 23.806  30.671999999999997 24.646  C 29.831999999999997 25.484  28.512 25.484  27.671999999999997 24.646  L 21.95 18.92  C 19.429213256236398 16.422681959858533  15.37116889854989 16.409327272415506  12.834 18.89  C 10.378758044225693 21.42829350327005  10.405428185413303 25.46437486966185  12.894 27.97  L 18.62 33.696  C 19.46 34.536  19.46 35.855999999999995  18.62 36.693999999999996  C 18.225086073064187 37.09650930373454  17.684888951195838 37.32328622771118  17.121000000000002 37.32328622771118  C 16.55711104880417 37.32328622771118  16.016913926935814 37.09650930373454  15.622 36.693999999999996  L 9.9 30.968  C 5.792000000000001 26.862000000000002  5.732 20.238  9.69 16.042  C 9.719999999999999 15.982000000000001  9.75 15.952000000000002  9.78 15.922000000000002  L 9.84 15.862000000000002  L 9.9 15.802000000000003  C 9.93 15.772000000000002  9.99 15.742  10.019999999999998 15.712  C 12.044294021513139 13.801575754397522  14.732824748769929 12.754282568219585  17.515999999999995 12.792000000000002  Z " fill-rule="nonzero" fill="rgba(236, 28, 36, 1)" stroke="none" class="fill" />
    <path d="M 48 24  C 48 10.745166004060957  37.254833995939045 0  24 0  C 10.745166004060957 0  0 10.745166004060957  0 24  C 0 37.254833995939045  10.745166004060957 48  24 48  C 37.254833995939045 48  48 37.254833995939045  48 24  Z " stroke-width="0" stroke-dasharray="0" stroke="rgba(255, 255, 255, 0)" fill="none" class="stroke" mask="url(#Clip6681)" />
    <path d="M 30.841999999999995 10.676000000000005  L 30.839999999999996 10.676  C 31.387999999999998 10.676  31.942 10.886000000000001  32.378 11.306000000000001  L 38.102000000000004 17.03  C 42.21 21.108  42.27 27.730000000000004  38.312000000000005 31.928000000000004  C 38.289443774957746 31.973076479125965  38.25895767694909 32.013724609804164  38.222 32.048  L 38.162 32.108000000000004  L 38.102 32.168000000000006  C 38.071999999999996 32.19800000000001  38.01199999999999 32.22800000000001  37.982 32.25800000000001  C 33.786 36.21400000000001  27.162 36.15400000000001  23.055999999999997 32.04800000000001  L 17.33 26.32200000000001  C 16.92749069626545 25.927086073064203  16.700713772288815 25.38688895119585  16.700713772288815 24.823000000000008  C 16.700713772288815 24.25911104880418  16.927490696265448 23.718913926935823  17.33 23.32400000000001  C 17.72498680177169 22.920868283552306  18.265615596973213 22.693693845669916  18.83 22.693693845669916  C 19.394384403026788 22.693693845669916  19.935013198228305 22.920868283552302  20.33 23.32400000000001  L 26.052 29.050000000000004  C 28.552277789184124 31.555134648937894  32.6028488726379 31.58188875120642  35.135999999999996 29.11000000000001  C 37.59148070570914 26.57102851356013  37.564812209531524 22.534307142141884  35.07599999999999 20.028000000000006  L 29.349999999999994 14.304000000000006  C 28.946868283552284 13.909013198228315  28.719693845669894 13.368384403026791  28.719693845669894 12.804000000000006  C 28.719693845669894 12.239615596973216  28.946868283552284 11.6989868017717  29.349999999999994 11.304000000000006  C 29.755999999999993 10.886000000000006  30.29399999999999 10.676000000000005  30.841999999999995 10.676000000000005  Z " stroke-width="0" stroke-dasharray="0" stroke="rgba(255, 255, 255, 0)" fill="none" class="stroke" mask="url(#Clip6681)" />
    <path d="M 17.515999999999995 12.792000000000002  L 17.516 12.793999999999997  C 20.306638993287823 12.823877280129231  22.97427461262686 13.94694110479848  24.945999999999998 15.922  L 30.671999999999997 21.646  C 31.512 22.486  31.512 23.806  30.671999999999997 24.646  C 29.831999999999997 25.484  28.512 25.484  27.671999999999997 24.646  L 21.95 18.92  C 19.429213256236398 16.422681959858533  15.37116889854989 16.409327272415506  12.834 18.89  C 10.378758044225693 21.42829350327005  10.405428185413303 25.46437486966185  12.894 27.97  L 18.62 33.696  C 19.46 34.536  19.46 35.855999999999995  18.62 36.693999999999996  C 18.225086073064187 37.09650930373454  17.684888951195838 37.32328622771118  17.121000000000002 37.32328622771118  C 16.55711104880417 37.32328622771118  16.016913926935814 37.09650930373454  15.622 36.693999999999996  L 9.9 30.968  C 5.792000000000001 26.862000000000002  5.732 20.238  9.69 16.042  C 9.719999999999999 15.982000000000001  9.75 15.952000000000002  9.78 15.922000000000002  L 9.84 15.862000000000002  L 9.9 15.802000000000003  C 9.93 15.772000000000002  9.99 15.742  10.019999999999998 15.712  C 12.044294021513139 13.801575754397522  14.732824748769929 12.754282568219585  17.515999999999995 12.792000000000002  Z " stroke-width="0" stroke-dasharray="0" stroke="rgba(255, 255, 255, 0)" fill="none" class="stroke" mask="url(#Clip6681)" />
  </g>
</svg>