<?xml version="1.0" encoding="utf-8"?>
<svg version="1.1" xmlns:xlink="http://www.w3.org/1999/xlink" width="50px" height="50px" xmlns="http://www.w3.org/2000/svg">
  <defs>
    <pattern id="BGPattern" patternUnits="userSpaceOnUse" alignment="0 0" imageRepeat="None" />
    <mask fill="white" id="Clip1880">
      <path d="M 0 0  L 0 22  L 22 22  L 22 0  L 0 0  Z M 7.142857142857138 14.285714285714276  L 7.142857142857138 7.142857142857138  L 14.285714285714276 7.142857142857138  L 14.285714285714276 14.285714285714276  L 7.142857142857138 14.285714285714276  Z M 50 0  L 28 0  L 28 22  L 50 22  L 50 0  Z M 42.85714285714286 7.142857142857138  L 42.85714285714286 14.285714285714276  L 35.71428571428572 14.285714285714276  L 35.71428571428572 7.142857142857138  L 42.85714285714286 7.142857142857138  Z M 0 28  L 0 50  L 22 50  L 22 28  L 0 28  Z M 7.142857142857138 42.85714285714283  L 7.142857142857138 35.71428571428572  L 14.285714285714276 35.71428571428572  L 14.285714285714276 42.85714285714283  L 7.142857142857138 42.85714285714283  Z M 46.428571428571445 32.14285714285717  L 46.428571428571445 28.57142857142855  L 50 28.57142857142855  L 50 42  L 39.28571428571428 42  L 39.28571428571428 39.28571428571428  L 35 39.28571428571428  L 35 50  L 28 50  L 28 28  L 39.28571428571428 28  L 39.28571428571428 32.14285714285717  L 46.428571428571445 32.14285714285717  Z M 46.428571428571445 50  L 46.428571428571445 46.428571428571445  L 50 46.428571428571445  L 50 50  L 46.428571428571445 50  Z M 39.28571428571428 50  L 39.28571428571428 46.428571428571445  L 42.85714285714286 46.428571428571445  L 42.85714285714286 50  L 39.28571428571428 50  Z " fill-rule="evenodd" />
    </mask>
  </defs>
  <g>
    <path d="M 0 0  L 0 22  L 22 22  L 22 0  L 0 0  Z M 7.142857142857138 14.285714285714276  L 7.142857142857138 7.142857142857138  L 14.285714285714276 7.142857142857138  L 14.285714285714276 14.285714285714276  L 7.142857142857138 14.285714285714276  Z M 50 0  L 28 0  L 28 22  L 50 22  L 50 0  Z M 42.85714285714286 7.142857142857138  L 42.85714285714286 14.285714285714276  L 35.71428571428572 14.285714285714276  L 35.71428571428572 7.142857142857138  L 42.85714285714286 7.142857142857138  Z M 0 28  L 0 50  L 22 50  L 22 28  L 0 28  Z M 7.142857142857138 42.85714285714283  L 7.142857142857138 35.71428571428572  L 14.285714285714276 35.71428571428572  L 14.285714285714276 42.85714285714283  L 7.142857142857138 42.85714285714283  Z M 46.428571428571445 32.14285714285717  L 46.428571428571445 28.57142857142855  L 50 28.57142857142855  L 50 42  L 39.28571428571428 42  L 39.28571428571428 39.28571428571428  L 35 39.28571428571428  L 35 50  L 28 50  L 28 28  L 39.28571428571428 28  L 39.28571428571428 32.14285714285717  L 46.428571428571445 32.14285714285717  Z M 46.428571428571445 50  L 46.428571428571445 46.428571428571445  L 50 46.428571428571445  L 50 50  L 46.428571428571445 50  Z M 39.28571428571428 50  L 39.28571428571428 46.428571428571445  L 42.85714285714286 46.428571428571445  L 42.85714285714286 50  L 39.28571428571428 50  Z " fill-rule="nonzero" fill="rgba(0, 0, 0, 1)" stroke="none" class="fill" />
    <path d="M 0 0  L 0 22  L 22 22  L 22 0  L 0 0  Z " stroke-width="0" stroke-dasharray="0" stroke="rgba(255, 255, 255, 0)" fill="none" class="stroke" mask="url(#Clip1880)" />
    <path d="M 7.142857142857138 14.285714285714276  L 7.142857142857138 7.142857142857138  L 14.285714285714276 7.142857142857138  L 14.285714285714276 14.285714285714276  L 7.142857142857138 14.285714285714276  Z " stroke-width="0" stroke-dasharray="0" stroke="rgba(255, 255, 255, 0)" fill="none" class="stroke" mask="url(#Clip1880)" />
    <path d="M 50 0  L 28 0  L 28 22  L 50 22  L 50 0  Z " stroke-width="0" stroke-dasharray="0" stroke="rgba(255, 255, 255, 0)" fill="none" class="stroke" mask="url(#Clip1880)" />
    <path d="M 42.85714285714286 7.142857142857138  L 42.85714285714286 14.285714285714276  L 35.71428571428572 14.285714285714276  L 35.71428571428572 7.142857142857138  L 42.85714285714286 7.142857142857138  Z " stroke-width="0" stroke-dasharray="0" stroke="rgba(255, 255, 255, 0)" fill="none" class="stroke" mask="url(#Clip1880)" />
    <path d="M 0 28  L 0 50  L 22 50  L 22 28  L 0 28  Z " stroke-width="0" stroke-dasharray="0" stroke="rgba(255, 255, 255, 0)" fill="none" class="stroke" mask="url(#Clip1880)" />
    <path d="M 7.142857142857138 42.85714285714283  L 7.142857142857138 35.71428571428572  L 14.285714285714276 35.71428571428572  L 14.285714285714276 42.85714285714283  L 7.142857142857138 42.85714285714283  Z " stroke-width="0" stroke-dasharray="0" stroke="rgba(255, 255, 255, 0)" fill="none" class="stroke" mask="url(#Clip1880)" />
    <path d="M 46.428571428571445 32.14285714285717  L 46.428571428571445 28.57142857142855  L 50 28.57142857142855  L 50 42  L 39.28571428571428 42  L 39.28571428571428 39.28571428571428  L 35 39.28571428571428  L 35 50  L 28 50  L 28 28  L 39.28571428571428 28  L 39.28571428571428 32.14285714285717  L 46.428571428571445 32.14285714285717  Z " stroke-width="0" stroke-dasharray="0" stroke="rgba(255, 255, 255, 0)" fill="none" class="stroke" mask="url(#Clip1880)" />
    <path d="M 46.428571428571445 50  L 46.428571428571445 46.428571428571445  L 50 46.428571428571445  L 50 50  L 46.428571428571445 50  Z " stroke-width="0" stroke-dasharray="0" stroke="rgba(255, 255, 255, 0)" fill="none" class="stroke" mask="url(#Clip1880)" />
    <path d="M 39.28571428571428 50  L 39.28571428571428 46.428571428571445  L 42.85714285714286 46.428571428571445  L 42.85714285714286 50  L 39.28571428571428 50  Z " stroke-width="0" stroke-dasharray="0" stroke="rgba(255, 255, 255, 0)" fill="none" class="stroke" mask="url(#Clip1880)" />
  </g>
</svg>