<?xml version="1.0" encoding="utf-8"?>
<svg version="1.1" xmlns:xlink="http://www.w3.org/1999/xlink" width="17px" height="17px" xmlns="http://www.w3.org/2000/svg">
  <defs>
    <pattern id="BGPattern" patternUnits="userSpaceOnUse" alignment="0 0" imageRepeat="None" />
    <mask fill="white" id="Clip4355">
      <path d="M 8.985699999999996 15.457999999999998  C 7.999415455452009 16.44578788306373  6.660077988298163 16.99969740763621  5.264200000000001 16.997099999999996  C 5.263449900409528 16.99710032078687  5.262699800740339 16.997100481180322  5.261949701081274 16.997100481180322  C 2.355882575946622 16.997100481180322  4.970108127455575E-05 14.641267606314972  4.970108127455575E-05 11.735200481180321  C 4.970108127455575E-05 10.33927784467215  0.5547279569251291 9.000560638630748  1.5419999999999998 8.0137  L 7.572000000000001 1.9837000000000007  C 8.560249333790981 0.9878577970019098  9.905168390706157 0.4277567559873354  11.308143244012665 0.4277567559873354  C 14.21514925322203 0.4277567559873354  16.571743244012662 2.784350746777971  16.571743244012662 5.691356755987336  C 16.571743244012662 7.094331609293842  16.011642202998093 8.439250666209023  15.015799999999999 9.427499999999998  L 13.601799999999997 8.013499999999997  C 14.22059064626336 7.400536234862759  14.568717646266585 6.56567399621585  14.568717646266585 5.694682353733416  C 14.568717646266585 3.8920801587606917  13.10741984123931 2.4307823537334166  11.304817646266581 2.4307823537334166  C 10.433826003784148 2.4307823537334166  9.59896376513724 2.7789093537366387  8.985999999999997 3.397699999999997  L 2.955999999999997 9.427699999999998  C 2.349893579013841 10.038998984286035  2.0098196797970127 10.86498795218558  2.0098196797970127 11.725831400060851  C 2.0098196797970127 13.52848882350856  3.471162256349304 14.98983140006085  5.273819679797013 14.98983140006085  C 6.134540664957747 14.98983140006085  6.96042233792592 14.649853986821867  7.571699999999996 14.043899999999997  L 8.985699999999996 15.457999999999998  Z " fill-rule="evenodd" />
    </mask>
  </defs>
  <g transform="matrix(1 0 0 1 -5 -13 )">
    <path d="M 8.985699999999996 15.457999999999998  C 7.999415455452009 16.44578788306373  6.660077988298163 16.99969740763621  5.264200000000001 16.997099999999996  C 5.263449900409528 16.99710032078687  5.262699800740339 16.997100481180322  5.261949701081274 16.997100481180322  C 2.355882575946622 16.997100481180322  4.970108127455575E-05 14.641267606314972  4.970108127455575E-05 11.735200481180321  C 4.970108127455575E-05 10.33927784467215  0.5547279569251291 9.000560638630748  1.5419999999999998 8.0137  L 7.572000000000001 1.9837000000000007  C 8.560249333790981 0.9878577970019098  9.905168390706157 0.4277567559873354  11.308143244012665 0.4277567559873354  C 14.21514925322203 0.4277567559873354  16.571743244012662 2.784350746777971  16.571743244012662 5.691356755987336  C 16.571743244012662 7.094331609293842  16.011642202998093 8.439250666209023  15.015799999999999 9.427499999999998  L 13.601799999999997 8.013499999999997  C 14.22059064626336 7.400536234862759  14.568717646266585 6.56567399621585  14.568717646266585 5.694682353733416  C 14.568717646266585 3.8920801587606917  13.10741984123931 2.4307823537334166  11.304817646266581 2.4307823537334166  C 10.433826003784148 2.4307823537334166  9.59896376513724 2.7789093537366387  8.985999999999997 3.397699999999997  L 2.955999999999997 9.427699999999998  C 2.349893579013841 10.038998984286035  2.0098196797970127 10.86498795218558  2.0098196797970127 11.725831400060851  C 2.0098196797970127 13.52848882350856  3.471162256349304 14.98983140006085  5.273819679797013 14.98983140006085  C 6.134540664957747 14.98983140006085  6.96042233792592 14.649853986821867  7.571699999999996 14.043899999999997  L 8.985699999999996 15.457999999999998  Z " fill-rule="nonzero" fill="rgba(0, 0, 0, 1)" stroke="none" transform="matrix(1 0 0 1 5 13 )" class="fill" />
    <path d="M 8.985699999999996 15.457999999999998  C 7.999415455452009 16.44578788306373  6.660077988298163 16.99969740763621  5.264200000000001 16.997099999999996  C 5.263449900409528 16.99710032078687  5.262699800740339 16.997100481180322  5.261949701081274 16.997100481180322  C 2.355882575946622 16.997100481180322  4.970108127455575E-05 14.641267606314972  4.970108127455575E-05 11.735200481180321  C 4.970108127455575E-05 10.33927784467215  0.5547279569251291 9.000560638630748  1.5419999999999998 8.0137  L 7.572000000000001 1.9837000000000007  C 8.560249333790981 0.9878577970019098  9.905168390706157 0.4277567559873354  11.308143244012665 0.4277567559873354  C 14.21514925322203 0.4277567559873354  16.571743244012662 2.784350746777971  16.571743244012662 5.691356755987336  C 16.571743244012662 7.094331609293842  16.011642202998093 8.439250666209023  15.015799999999999 9.427499999999998  L 13.601799999999997 8.013499999999997  C 14.22059064626336 7.400536234862759  14.568717646266585 6.56567399621585  14.568717646266585 5.694682353733416  C 14.568717646266585 3.8920801587606917  13.10741984123931 2.4307823537334166  11.304817646266581 2.4307823537334166  C 10.433826003784148 2.4307823537334166  9.59896376513724 2.7789093537366387  8.985999999999997 3.397699999999997  L 2.955999999999997 9.427699999999998  C 2.349893579013841 10.038998984286035  2.0098196797970127 10.86498795218558  2.0098196797970127 11.725831400060851  C 2.0098196797970127 13.52848882350856  3.471162256349304 14.98983140006085  5.273819679797013 14.98983140006085  C 6.134540664957747 14.98983140006085  6.96042233792592 14.649853986821867  7.571699999999996 14.043899999999997  L 8.985699999999996 15.457999999999998  Z " stroke-width="0" stroke-dasharray="0" stroke="rgba(255, 255, 255, 0)" fill="none" transform="matrix(1 0 0 1 5 13 )" class="stroke" mask="url(#Clip4355)" />
  </g>
</svg>