<?xml version="1.0" encoding="utf-8"?>
<svg version="1.1" xmlns:xlink="http://www.w3.org/1999/xlink" width="38px" height="50px" xmlns="http://www.w3.org/2000/svg">
  <defs>
    <pattern id="BGPattern" patternUnits="userSpaceOnUse" alignment="0 0" imageRepeat="None" />
    <mask fill="white" id="Clip1409">
      <path d="M 37 10.9375  C 37.5 8.349609375  35.400390625 6.25  32.8125 6.25  L 25 6.25  C 25 2.802734375  22.197265625 0  18.75 0  C 15.302734375 0  12.5 2.802734375  12.5 6.25  L 4.6875 6.25  C 2.099609375 6.25  0 8.349609375  0 10.9375  L 0 45.3125  C 0 47.900390625  2.099609375 50  4.6875 50  L 32.8125 50  C 35.400390625 50  37.5 47.900390625  37 45.3125  L 37 10.9375  Z M 16.40625 6.25  C 16.40625 4.951171875  17.451171875 3.90625  18.75 3.90625  C 20.048828125 3.90625  21.09375 4.951171875  21.09375 6.25  C 21.09375 7.548828125  20.048828125 8.59375  18.75 8.59375  C 17.451171875 8.59375  16.40625 7.548828125  16.40625 6.25  Z M 30.595703125 24.8828125  C 31.0546875 25.351562500000004  31.044921875 26.083984375000004  30.5859375 26.54296875  L 16.62109375 40.390625  C 16.162109375 40.849609375  15.419921875 40.83984375  14.9609375 40.380859375  L 6.89453125 32.24609375  C 6.435546875 31.787109375  6.4453125 31.044921874999996  6.904296875 30.5859375  L 9.677734375 27.83203125  C 10.13671875 27.373046875  10.87890625 27.382812499999996  11.337890625 27.841796875000004  L 15.830078125 32.373046875  L 26.181640625 22.099609375  C 26.640625000000004 21.640625  27.382812500000004 21.650390625  27.841796875 22.109375  L 30.595703125 24.8828125  Z " fill-rule="evenodd" />
    </mask>
  </defs>
  <g>
    <path d="M 37 10.9375  C 37.5 8.349609375  35.400390625 6.25  32.8125 6.25  L 25 6.25  C 25 2.802734375  22.197265625 0  18.75 0  C 15.302734375 0  12.5 2.802734375  12.5 6.25  L 4.6875 6.25  C 2.099609375 6.25  0 8.349609375  0 10.9375  L 0 45.3125  C 0 47.900390625  2.099609375 50  4.6875 50  L 32.8125 50  C 35.400390625 50  37.5 47.900390625  37 45.3125  L 37 10.9375  Z M 16.40625 6.25  C 16.40625 4.951171875  17.451171875 3.90625  18.75 3.90625  C 20.048828125 3.90625  21.09375 4.951171875  21.09375 6.25  C 21.09375 7.548828125  20.048828125 8.59375  18.75 8.59375  C 17.451171875 8.59375  16.40625 7.548828125  16.40625 6.25  Z M 30.595703125 24.8828125  C 31.0546875 25.351562500000004  31.044921875 26.083984375000004  30.5859375 26.54296875  L 16.62109375 40.390625  C 16.162109375 40.849609375  15.419921875 40.83984375  14.9609375 40.380859375  L 6.89453125 32.24609375  C 6.435546875 31.787109375  6.4453125 31.044921874999996  6.904296875 30.5859375  L 9.677734375 27.83203125  C 10.13671875 27.373046875  10.87890625 27.382812499999996  11.337890625 27.841796875000004  L 15.830078125 32.373046875  L 26.181640625 22.099609375  C 26.640625000000004 21.640625  27.382812500000004 21.650390625  27.841796875 22.109375  L 30.595703125 24.8828125  Z " fill-rule="nonzero" fill="rgba(0, 0, 0, 1)" stroke="none" class="fill" />
    <path d="M 37 10.9375  C 37.5 8.349609375  35.400390625 6.25  32.8125 6.25  L 25 6.25  C 25 2.802734375  22.197265625 0  18.75 0  C 15.302734375 0  12.5 2.802734375  12.5 6.25  L 4.6875 6.25  C 2.099609375 6.25  0 8.349609375  0 10.9375  L 0 45.3125  C 0 47.900390625  2.099609375 50  4.6875 50  L 32.8125 50  C 35.400390625 50  37.5 47.900390625  37 45.3125  L 37 10.9375  Z " stroke-width="0" stroke-dasharray="0" stroke="rgba(255, 255, 255, 0)" fill="none" class="stroke" mask="url(#Clip1409)" />
    <path d="M 16.40625 6.25  C 16.40625 4.951171875  17.451171875 3.90625  18.75 3.90625  C 20.048828125 3.90625  21.09375 4.951171875  21.09375 6.25  C 21.09375 7.548828125  20.048828125 8.59375  18.75 8.59375  C 17.451171875 8.59375  16.40625 7.548828125  16.40625 6.25  Z " stroke-width="0" stroke-dasharray="0" stroke="rgba(255, 255, 255, 0)" fill="none" class="stroke" mask="url(#Clip1409)" />
    <path d="M 30.595703125 24.8828125  C 31.0546875 25.351562500000004  31.044921875 26.083984375000004  30.5859375 26.54296875  L 16.62109375 40.390625  C 16.162109375 40.849609375  15.419921875 40.83984375  14.9609375 40.380859375  L 6.89453125 32.24609375  C 6.435546875 31.787109375  6.4453125 31.044921874999996  6.904296875 30.5859375  L 9.677734375 27.83203125  C 10.13671875 27.373046875  10.87890625 27.382812499999996  11.337890625 27.841796875000004  L 15.830078125 32.373046875  L 26.181640625 22.099609375  C 26.640625000000004 21.640625  27.382812500000004 21.650390625  27.841796875 22.109375  L 30.595703125 24.8828125  Z " stroke-width="0" stroke-dasharray="0" stroke="rgba(255, 255, 255, 0)" fill="none" class="stroke" mask="url(#Clip1409)" />
  </g>
</svg>