<?xml version="1.0" encoding="utf-8"?>
<svg version="1.1" xmlns:xlink="http://www.w3.org/1999/xlink" width="54px" height="51px" xmlns="http://www.w3.org/2000/svg">
  <defs>
    <pattern id="BGPattern" patternUnits="userSpaceOnUse" alignment="0 0" imageRepeat="None" />
    <mask fill="white" id="Clip3139">
      <path d="M 53.474999999999994 20.318750000000005  C 53.64375 19.225000000000005  52.881249999999994 18.212500000000006  51.7875 18.05  L 35.91875 15.743750000000004  L 28.825000000000003 1.3624999999999998  C 28.63125 0.9687499999999999  28.3125 0.6499999999999995  27.918750000000006 0.4562499999999998  C 26.931250000000002 -0.03125  25.731250000000003 0.375  25.237500000000004 1.3624999999999998  L 18.14375 15.743749999999999  L 2.2750000000000004 18.049999999999997  C 1.8375000000000001 18.112499999999997  1.4375 18.318749999999998  1.1312500000000005 18.631249999999998  C 0.36030615960993106 19.423644288029895  0.3770897114956142 20.690802455399165  1.1687500000000002 21.4625  L 12.649999999999999 32.65625  L 9.9375 48.4625  C 9.91805103597106 48.5749230636463  9.908272884828 48.688806151723156  9.908272884828 48.80289912890151  C 9.908272884828 49.90574273871987  10.802304275009634 50.79977412890151  11.905147884828 50.79977412890151  C 12.230099905347803 50.79977412890151  12.550142599812151 50.72047191732635  12.837499999999999 50.56875  L 27.03125 43.10625  L 41.225 50.56875  C 41.612500000000004 50.775  42.0625 50.84375  42.49375 50.768750000000004  C 43.58125 50.581250000000004  44.3125 49.550000000000004  44.125 48.462500000000006  L 41.4125 32.65625000000001  L 52.89375 21.462500000000006  C 53.20625 21.156250000000007  53.412499999999994 20.756250000000005  53.474999999999994 20.318750000000005  Z M 46.131249999999994 21.77499999999999  L 36.58125 31.081249999999997  L 38.8375 44.224999999999994  L 27.03125 38.02499999999999  L 15.225000000000003 44.23124999999999  L 17.481250000000003 31.08749999999999  L 7.931250000000002 21.77499999999999  L 21.13125 19.856249999999992  L 27.03125 7.8999999999999915  L 32.93125 19.856249999999992  L 46.131249999999994 21.77499999999999  Z " fill-rule="evenodd" />
    </mask>
  </defs>
  <g>
    <path d="M 53.474999999999994 20.318750000000005  C 53.64375 19.225000000000005  52.881249999999994 18.212500000000006  51.7875 18.05  L 35.91875 15.743750000000004  L 28.825000000000003 1.3624999999999998  C 28.63125 0.9687499999999999  28.3125 0.6499999999999995  27.918750000000006 0.4562499999999998  C 26.931250000000002 -0.03125  25.731250000000003 0.375  25.237500000000004 1.3624999999999998  L 18.14375 15.743749999999999  L 2.2750000000000004 18.049999999999997  C 1.8375000000000001 18.112499999999997  1.4375 18.318749999999998  1.1312500000000005 18.631249999999998  C 0.36030615960993106 19.423644288029895  0.3770897114956142 20.690802455399165  1.1687500000000002 21.4625  L 12.649999999999999 32.65625  L 9.9375 48.4625  C 9.91805103597106 48.5749230636463  9.908272884828 48.688806151723156  9.908272884828 48.80289912890151  C 9.908272884828 49.90574273871987  10.802304275009634 50.79977412890151  11.905147884828 50.79977412890151  C 12.230099905347803 50.79977412890151  12.550142599812151 50.72047191732635  12.837499999999999 50.56875  L 27.03125 43.10625  L 41.225 50.56875  C 41.612500000000004 50.775  42.0625 50.84375  42.49375 50.768750000000004  C 43.58125 50.581250000000004  44.3125 49.550000000000004  44.125 48.462500000000006  L 41.4125 32.65625000000001  L 52.89375 21.462500000000006  C 53.20625 21.156250000000007  53.412499999999994 20.756250000000005  53.474999999999994 20.318750000000005  Z M 46.131249999999994 21.77499999999999  L 36.58125 31.081249999999997  L 38.8375 44.224999999999994  L 27.03125 38.02499999999999  L 15.225000000000003 44.23124999999999  L 17.481250000000003 31.08749999999999  L 7.931250000000002 21.77499999999999  L 21.13125 19.856249999999992  L 27.03125 7.8999999999999915  L 32.93125 19.856249999999992  L 46.131249999999994 21.77499999999999  Z " fill-rule="nonzero" fill="rgba(0, 0, 0, 1)" stroke="none" class="fill" />
    <path d="M 53.474999999999994 20.318750000000005  C 53.64375 19.225000000000005  52.881249999999994 18.212500000000006  51.7875 18.05  L 35.91875 15.743750000000004  L 28.825000000000003 1.3624999999999998  C 28.63125 0.9687499999999999  28.3125 0.6499999999999995  27.918750000000006 0.4562499999999998  C 26.931250000000002 -0.03125  25.731250000000003 0.375  25.237500000000004 1.3624999999999998  L 18.14375 15.743749999999999  L 2.2750000000000004 18.049999999999997  C 1.8375000000000001 18.112499999999997  1.4375 18.318749999999998  1.1312500000000005 18.631249999999998  C 0.36030615960993106 19.423644288029895  0.3770897114956142 20.690802455399165  1.1687500000000002 21.4625  L 12.649999999999999 32.65625  L 9.9375 48.4625  C 9.91805103597106 48.5749230636463  9.908272884828 48.688806151723156  9.908272884828 48.80289912890151  C 9.908272884828 49.90574273871987  10.802304275009634 50.79977412890151  11.905147884828 50.79977412890151  C 12.230099905347803 50.79977412890151  12.550142599812151 50.72047191732635  12.837499999999999 50.56875  L 27.03125 43.10625  L 41.225 50.56875  C 41.612500000000004 50.775  42.0625 50.84375  42.49375 50.768750000000004  C 43.58125 50.581250000000004  44.3125 49.550000000000004  44.125 48.462500000000006  L 41.4125 32.65625000000001  L 52.89375 21.462500000000006  C 53.20625 21.156250000000007  53.412499999999994 20.756250000000005  53.474999999999994 20.318750000000005  Z " stroke-width="0" stroke-dasharray="0" stroke="rgba(255, 255, 255, 0)" fill="none" class="stroke" mask="url(#Clip3139)" />
    <path d="M 46.131249999999994 21.77499999999999  L 36.58125 31.081249999999997  L 38.8375 44.224999999999994  L 27.03125 38.02499999999999  L 15.225000000000003 44.23124999999999  L 17.481250000000003 31.08749999999999  L 7.931250000000002 21.77499999999999  L 21.13125 19.856249999999992  L 27.03125 7.8999999999999915  L 32.93125 19.856249999999992  L 46.131249999999994 21.77499999999999  Z " stroke-width="0" stroke-dasharray="0" stroke="rgba(255, 255, 255, 0)" fill="none" class="stroke" mask="url(#Clip3139)" />
  </g>
</svg>