<?xml version="1.0" encoding="utf-8"?>
<svg version="1.1" xmlns:xlink="http://www.w3.org/1999/xlink" width="40px" height="38px" xmlns="http://www.w3.org/2000/svg">
  <defs>
    <pattern id="BGPattern" patternUnits="userSpaceOnUse" alignment="0 0" imageRepeat="None" />
    <mask fill="white" id="Clip3138">
      <path d="M 25.93124999999999 12.856250000000014  L 20.03125 0.9000000000000002  L 14.131250000000001 12.856250000000005  L 0.9312500000000021 14.775000000000002  L 10.481250000000003 24.087500000000002  L 8.225000000000001 37.23125  L 20.03125 31.025000000000006  L 31.8375 37.22500000000001  L 29.581249999999997 24.08125000000001  L 39.131249999999994 14.775000000000013  L 25.93124999999999 12.856250000000014  Z " fill-rule="evenodd" />
    </mask>
  </defs>
  <g transform="matrix(1 0 0 1 -7 -7 )">
    <path d="M 25.93124999999999 12.856250000000014  L 20.03125 0.9000000000000002  L 14.131250000000001 12.856250000000005  L 0.9312500000000021 14.775000000000002  L 10.481250000000003 24.087500000000002  L 8.225000000000001 37.23125  L 20.03125 31.025000000000006  L 31.8375 37.22500000000001  L 29.581249999999997 24.08125000000001  L 39.131249999999994 14.775000000000013  L 25.93124999999999 12.856250000000014  Z " fill-rule="nonzero" fill="rgba(217, 217, 217, 1)" stroke="none" transform="matrix(1 0 0 1 7 7 )" class="fill" />
    <path d="M 25.93124999999999 12.856250000000014  L 20.03125 0.9000000000000002  L 14.131250000000001 12.856250000000005  L 0.9312500000000021 14.775000000000002  L 10.481250000000003 24.087500000000002  L 8.225000000000001 37.23125  L 20.03125 31.025000000000006  L 31.8375 37.22500000000001  L 29.581249999999997 24.08125000000001  L 39.131249999999994 14.775000000000013  L 25.93124999999999 12.856250000000014  Z " stroke-width="0" stroke-dasharray="0" stroke="rgba(255, 255, 255, 0)" fill="none" transform="matrix(1 0 0 1 7 7 )" class="stroke" mask="url(#Clip3138)" />
  </g>
</svg>