<?xml version="1.0" encoding="utf-8"?>
<svg version="1.1" xmlns:xlink="http://www.w3.org/1999/xlink" width="14px" height="9px" xmlns="http://www.w3.org/2000/svg">
  <defs>
    <pattern id="BGPattern" patternUnits="userSpaceOnUse" alignment="0 0" imageRepeat="None" />
    <mask fill="white" id="Clip4518">
      <path d="M 2 2  L 12 2  L 12 7  L 2 7  L 2 2  Z M 14 2  C 14 0.8954305003384135  13.104569499661586 0  12 0  L 2 0  C 0.8954305003384135 0  0 0.8954305003384135  0 2  L 0 7  C 0 8.104569499661586  0.8954305003384135 9  2 9  L 12 9  C 13.104569499661586 9  14 8.104569499661586  14 7  L 14 2  Z " fill-rule="evenodd" />
    </mask>
  </defs>
  <g transform="matrix(1 0 0 1 -15 -4 )">
    <path d="M 2 2  L 12 2  L 12 7  L 2 7  L 2 2  Z M 14 2  C 14 0.8954305003384135  13.104569499661586 0  12 0  L 2 0  C 0.8954305003384135 0  0 0.8954305003384135  0 2  L 0 7  C 0 8.104569499661586  0.8954305003384135 9  2 9  L 12 9  C 13.104569499661586 9  14 8.104569499661586  14 7  L 14 2  Z " fill-rule="nonzero" fill="rgba(0, 0, 0, 1)" stroke="none" transform="matrix(1 0 0 1 15 4 )" class="fill" />
    <path d="M 2 2  L 12 2  L 12 7  L 2 7  L 2 2  Z " stroke-width="0" stroke-dasharray="0" stroke="rgba(255, 255, 255, 0)" fill="none" transform="matrix(1 0 0 1 15 4 )" class="stroke" mask="url(#Clip4518)" />
    <path d="M 14 2  C 14 0.8954305003384135  13.104569499661586 0  12 0  L 2 0  C 0.8954305003384135 0  0 0.8954305003384135  0 2  L 0 7  C 0 8.104569499661586  0.8954305003384135 9  2 9  L 12 9  C 13.104569499661586 9  14 8.104569499661586  14 7  L 14 2  Z " stroke-width="0" stroke-dasharray="0" stroke="rgba(255, 255, 255, 0)" fill="none" transform="matrix(1 0 0 1 15 4 )" class="stroke" mask="url(#Clip4518)" />
  </g>
</svg>