<?xml version="1.0" encoding="utf-8"?>
<svg version="1.1" xmlns:xlink="http://www.w3.org/1999/xlink" width="30px" height="30px" xmlns="http://www.w3.org/2000/svg">
  <defs>
    <pattern id="BGPattern" patternUnits="userSpaceOnUse" alignment="0 0" imageRepeat="None" />
    <mask fill="white" id="Clip123">
      <path d="M 0.5999999999999979 14.999999999999998  C 0.5999999999999979 7.047999999999998  7.047999999999998 0.5999999999999979  15 0.6000000000000001  C 22.951999999999998 0.6000000000000001  29.4 7.048  29.4 15  C 29.4 22.951999999999998  22.951999999999998 29.4  14.999999999999998 29.4  C 7.047999999999998 29.4  0.5999999999999979 22.951999999999998  0.5999999999999979 14.999999999999998  Z M 27 15  C 27 8.376000000000001  21.624 3  15 3  C 8.376000000000001 3  3 8.376000000000001  3 15  C 3 21.624  8.376000000000001 27  15 27  C 21.624 27  27 21.624  27 15  Z M 11.127999999999998 20.407999999999998  C 11.447999999999999 20.855999999999998  11.911999999999999 21.112  12.456 21.112  C 12.92 21.112  13.368 20.904  13.671999999999999 20.535999999999998  L 21.016 11.847999999999997  C 21.255999999999997 11.575999999999997  21.383999999999997 11.207999999999997  21.383999999999997 10.839999999999996  C 21.383999999999997 10.359999999999996  21.191999999999997 9.895999999999997  20.807999999999996 9.591999999999997  C 20.503999999999998 9.351999999999997  20.167999999999996 9.239999999999997  19.767999999999997 9.239999999999997  C 19.304 9.239999999999997  18.871999999999996 9.431999999999997  18.567999999999998 9.799999999999997  L 12.583999999999998 16.903999999999996  L 11.255999999999998 15.031999999999996  C 10.951999999999998 14.615999999999996  10.487999999999998 14.359999999999996  9.959999999999999 14.359999999999996  C 9.623999999999999 14.359999999999996  9.319999999999999 14.455999999999996  9.047999999999998 14.631999999999996  C 8.599999999999998 14.919999999999996  8.359999999999998 15.367999999999997  8.359999999999998 15.927999999999997  C 8.359999999999998 16.263999999999996  8.455999999999998 16.583999999999996  8.647999999999998 16.871999999999996  L 11.127999999999998 20.407999999999998  Z " fill-rule="evenodd" />
    </mask>
  </defs>
  <g>
    <path d="M 0.5999999999999979 14.999999999999998  C 0.5999999999999979 7.047999999999998  7.047999999999998 0.5999999999999979  15 0.6000000000000001  C 22.951999999999998 0.6000000000000001  29.4 7.048  29.4 15  C 29.4 22.951999999999998  22.951999999999998 29.4  14.999999999999998 29.4  C 7.047999999999998 29.4  0.5999999999999979 22.951999999999998  0.5999999999999979 14.999999999999998  Z M 27 15  C 27 8.376000000000001  21.624 3  15 3  C 8.376000000000001 3  3 8.376000000000001  3 15  C 3 21.624  8.376000000000001 27  15 27  C 21.624 27  27 21.624  27 15  Z M 11.127999999999998 20.407999999999998  C 11.447999999999999 20.855999999999998  11.911999999999999 21.112  12.456 21.112  C 12.92 21.112  13.368 20.904  13.671999999999999 20.535999999999998  L 21.016 11.847999999999997  C 21.255999999999997 11.575999999999997  21.383999999999997 11.207999999999997  21.383999999999997 10.839999999999996  C 21.383999999999997 10.359999999999996  21.191999999999997 9.895999999999997  20.807999999999996 9.591999999999997  C 20.503999999999998 9.351999999999997  20.167999999999996 9.239999999999997  19.767999999999997 9.239999999999997  C 19.304 9.239999999999997  18.871999999999996 9.431999999999997  18.567999999999998 9.799999999999997  L 12.583999999999998 16.903999999999996  L 11.255999999999998 15.031999999999996  C 10.951999999999998 14.615999999999996  10.487999999999998 14.359999999999996  9.959999999999999 14.359999999999996  C 9.623999999999999 14.359999999999996  9.319999999999999 14.455999999999996  9.047999999999998 14.631999999999996  C 8.599999999999998 14.919999999999996  8.359999999999998 15.367999999999997  8.359999999999998 15.927999999999997  C 8.359999999999998 16.263999999999996  8.455999999999998 16.583999999999996  8.647999999999998 16.871999999999996  L 11.127999999999998 20.407999999999998  Z " fill-rule="nonzero" fill="rgba(0, 0, 0, 1)" stroke="none" class="fill" />
    <path d="M 0.5999999999999979 14.999999999999998  C 0.5999999999999979 7.047999999999998  7.047999999999998 0.5999999999999979  15 0.6000000000000001  C 22.951999999999998 0.6000000000000001  29.4 7.048  29.4 15  C 29.4 22.951999999999998  22.951999999999998 29.4  14.999999999999998 29.4  C 7.047999999999998 29.4  0.5999999999999979 22.951999999999998  0.5999999999999979 14.999999999999998  Z " stroke-width="0" stroke-dasharray="0" stroke="rgba(255, 255, 255, 0)" fill="none" class="stroke" mask="url(#Clip123)" />
    <path d="M 27 15  C 27 8.376000000000001  21.624 3  15 3  C 8.376000000000001 3  3 8.376000000000001  3 15  C 3 21.624  8.376000000000001 27  15 27  C 21.624 27  27 21.624  27 15  Z " stroke-width="0" stroke-dasharray="0" stroke="rgba(255, 255, 255, 0)" fill="none" class="stroke" mask="url(#Clip123)" />
    <path d="M 11.127999999999998 20.407999999999998  C 11.447999999999999 20.855999999999998  11.911999999999999 21.112  12.456 21.112  C 12.92 21.112  13.368 20.904  13.671999999999999 20.535999999999998  L 21.016 11.847999999999997  C 21.255999999999997 11.575999999999997  21.383999999999997 11.207999999999997  21.383999999999997 10.839999999999996  C 21.383999999999997 10.359999999999996  21.191999999999997 9.895999999999997  20.807999999999996 9.591999999999997  C 20.503999999999998 9.351999999999997  20.167999999999996 9.239999999999997  19.767999999999997 9.239999999999997  C 19.304 9.239999999999997  18.871999999999996 9.431999999999997  18.567999999999998 9.799999999999997  L 12.583999999999998 16.903999999999996  L 11.255999999999998 15.031999999999996  C 10.951999999999998 14.615999999999996  10.487999999999998 14.359999999999996  9.959999999999999 14.359999999999996  C 9.623999999999999 14.359999999999996  9.319999999999999 14.455999999999996  9.047999999999998 14.631999999999996  C 8.599999999999998 14.919999999999996  8.359999999999998 15.367999999999997  8.359999999999998 15.927999999999997  C 8.359999999999998 16.263999999999996  8.455999999999998 16.583999999999996  8.647999999999998 16.871999999999996  L 11.127999999999998 20.407999999999998  Z " stroke-width="0" stroke-dasharray="0" stroke="rgba(255, 255, 255, 0)" fill="none" class="stroke" mask="url(#Clip123)" />
  </g>
</svg>