<?xml version="1.0" encoding="utf-8"?>
<svg version="1.1" xmlns:xlink="http://www.w3.org/1999/xlink" width="44px" height="50px" xmlns="http://www.w3.org/2000/svg">
  <defs>
    <pattern id="BGPattern" patternUnits="userSpaceOnUse" alignment="0 0" imageRepeat="None" />
    <mask fill="white" id="Clip2080">
      <path d="M 41.3525390625 20.18359375  C 43.49609375 17.2919921875  44.4443359375 13.46484375  43.455078125 9.3994140625  C 42.3798828125 4.9833984375  38.8544921875 1.3857421875  34.4697265625 0.24707031249999997  C 31.326171875 -0.5693359375  28.3173828125 0.7451171875  25.7646484375 2.623046875  C 25.447265625 2.8564453125  25.0849609375 2.9873046875  24.7392578125 3.1582031250000004  L 27.5048828125 4.9365234375  C 28.2294921875 5.40234375  28.4404296875 6.369140625  27.9736328125 7.095703125  C 27.5380859375 7.7744140625  26.580078125 8.05859375  25.814453125 7.564453124999999  L 15.999023437499998 1.25390625  C 13.9775390625 0.1943359375  11.7626953125 -0.34765625  9.474609375 0.24707031249999997  C 5.08984375 1.38671875  1.564453125 4.9833984375  0.4892578125 9.3994140625  C -0.5 13.4638671875  0.4482421875 17.291015625  2.5888671875 20.18359375  C 4.8701171875 23.2666015625  5.7802734375 26.888671874999996  6.1328125 30.666992187499996  C 6.5625 35.2724609375  7.141601562500001 39.8623046875  8.177734375 44.3701171875  L 8.939453125 47.685546875  C 9.2509765625 49.0400390625  10.4521484375 50  11.8369140625 50  C 13.201171875 50  14.390625000000002 49.0673828125  14.7216796875 47.73828125  L 18.087890625 34.220703125  C 18.533203125 32.431640625  20.134765625 31.177734375  21.970703125 31.177734375  C 23.806640625 31.177734375  25.408203125000004 32.4326171875  25.853515624999996 34.220703125  L 29.2197265625 47.73828125  C 29.55078125 49.0673828125  30.740234375 50  32.1044921875 50  C 33.4892578125 50  34.6904296875 49.0400390625  35.001953125 47.685546875  L 35.763671875 44.3701171875  C 36.7998046875 39.86328125  37.3779296875 35.2724609375  37.80859375 30.666992187499996  C 38.1611328125 26.8876953125  39.0712890625 23.2666015625  41.3525390625 20.18359375  Z " fill-rule="evenodd" />
    </mask>
  </defs>
  <g>
    <path d="M 41.3525390625 20.18359375  C 43.49609375 17.2919921875  44.4443359375 13.46484375  43.455078125 9.3994140625  C 42.3798828125 4.9833984375  38.8544921875 1.3857421875  34.4697265625 0.24707031249999997  C 31.326171875 -0.5693359375  28.3173828125 0.7451171875  25.7646484375 2.623046875  C 25.447265625 2.8564453125  25.0849609375 2.9873046875  24.7392578125 3.1582031250000004  L 27.5048828125 4.9365234375  C 28.2294921875 5.40234375  28.4404296875 6.369140625  27.9736328125 7.095703125  C 27.5380859375 7.7744140625  26.580078125 8.05859375  25.814453125 7.564453124999999  L 15.999023437499998 1.25390625  C 13.9775390625 0.1943359375  11.7626953125 -0.34765625  9.474609375 0.24707031249999997  C 5.08984375 1.38671875  1.564453125 4.9833984375  0.4892578125 9.3994140625  C -0.5 13.4638671875  0.4482421875 17.291015625  2.5888671875 20.18359375  C 4.8701171875 23.2666015625  5.7802734375 26.888671874999996  6.1328125 30.666992187499996  C 6.5625 35.2724609375  7.141601562500001 39.8623046875  8.177734375 44.3701171875  L 8.939453125 47.685546875  C 9.2509765625 49.0400390625  10.4521484375 50  11.8369140625 50  C 13.201171875 50  14.390625000000002 49.0673828125  14.7216796875 47.73828125  L 18.087890625 34.220703125  C 18.533203125 32.431640625  20.134765625 31.177734375  21.970703125 31.177734375  C 23.806640625 31.177734375  25.408203125000004 32.4326171875  25.853515624999996 34.220703125  L 29.2197265625 47.73828125  C 29.55078125 49.0673828125  30.740234375 50  32.1044921875 50  C 33.4892578125 50  34.6904296875 49.0400390625  35.001953125 47.685546875  L 35.763671875 44.3701171875  C 36.7998046875 39.86328125  37.3779296875 35.2724609375  37.80859375 30.666992187499996  C 38.1611328125 26.8876953125  39.0712890625 23.2666015625  41.3525390625 20.18359375  Z " fill-rule="nonzero" fill="rgba(0, 0, 0, 1)" stroke="none" class="fill" />
    <path d="M 41.3525390625 20.18359375  C 43.49609375 17.2919921875  44.4443359375 13.46484375  43.455078125 9.3994140625  C 42.3798828125 4.9833984375  38.8544921875 1.3857421875  34.4697265625 0.24707031249999997  C 31.326171875 -0.5693359375  28.3173828125 0.7451171875  25.7646484375 2.623046875  C 25.447265625 2.8564453125  25.0849609375 2.9873046875  24.7392578125 3.1582031250000004  L 27.5048828125 4.9365234375  C 28.2294921875 5.40234375  28.4404296875 6.369140625  27.9736328125 7.095703125  C 27.5380859375 7.7744140625  26.580078125 8.05859375  25.814453125 7.564453124999999  L 15.999023437499998 1.25390625  C 13.9775390625 0.1943359375  11.7626953125 -0.34765625  9.474609375 0.24707031249999997  C 5.08984375 1.38671875  1.564453125 4.9833984375  0.4892578125 9.3994140625  C -0.5 13.4638671875  0.4482421875 17.291015625  2.5888671875 20.18359375  C 4.8701171875 23.2666015625  5.7802734375 26.888671874999996  6.1328125 30.666992187499996  C 6.5625 35.2724609375  7.141601562500001 39.8623046875  8.177734375 44.3701171875  L 8.939453125 47.685546875  C 9.2509765625 49.0400390625  10.4521484375 50  11.8369140625 50  C 13.201171875 50  14.390625000000002 49.0673828125  14.7216796875 47.73828125  L 18.087890625 34.220703125  C 18.533203125 32.431640625  20.134765625 31.177734375  21.970703125 31.177734375  C 23.806640625 31.177734375  25.408203125000004 32.4326171875  25.853515624999996 34.220703125  L 29.2197265625 47.73828125  C 29.55078125 49.0673828125  30.740234375 50  32.1044921875 50  C 33.4892578125 50  34.6904296875 49.0400390625  35.001953125 47.685546875  L 35.763671875 44.3701171875  C 36.7998046875 39.86328125  37.3779296875 35.2724609375  37.80859375 30.666992187499996  C 38.1611328125 26.8876953125  39.0712890625 23.2666015625  41.3525390625 20.18359375  Z " stroke-width="0" stroke-dasharray="0" stroke="rgba(255, 255, 255, 0)" fill="none" class="stroke" mask="url(#Clip2080)" />
  </g>
</svg>