<?xml version="1.0" encoding="utf-8"?>
<svg version="1.1" xmlns:xlink="http://www.w3.org/1999/xlink" width="56px" height="56px" xmlns="http://www.w3.org/2000/svg">
  <defs>
    <pattern id="BGPattern" patternUnits="userSpaceOnUse" alignment="0 0" imageRepeat="None" />
    <mask fill="white" id="Clip2383">
      <path d="M 56 28  C 56 12.537500000000001  43.4625 0  28 0  C 12.537500000000001 0  0 12.537500000000001  0 28  C 0 43.4625  12.537500000000001 56  28 56  C 43.4625 56  56 43.4625  56 28  Z M 38.512499999999996 40.59375  C 38.64375 40.8375  38.537499999999994 41.1375  38.29375 41.2625  C 38.225 41.29375  38.150000000000006 41.3125  38.075 41.3125  L 34.2 41.3125  C 34.00625 41.3125  33.831250000000004 41.2  33.75 41.025  L 29.0875 31.075000000000003  L 23.54375 31.075000000000003  L 23.54375 40.8125  C 23.54375 41.0875  23.318749999999998 41.3125  23.04375 41.3125  L 19.625 41.3125  C 19.35 41.3125  19.125 41.0875  20 40.8125  L 20 15.1875  C 19.125 14.912500000000001  19.35 14.6875  19.625 14.6875  L 29.35 14.6875  C 35.525 14.6875  38.3625 18.43125  38.3625 22.88125  C 38.3625 27.26875  35.637499999999996 29.53125  33.4625 30.331250000000004  L 38.512499999999996 40.59375  Z M 33.8 23.0375  C 33.8 19.89375  31.74375 18.3125  28.743750000000002 18.3125  L 23.53125 18.3125  L 23.53125 27.5625  L 28.625 27.5625  C 31.9375 27.5625  33.8 25.9625  33.8 23.0375  Z " fill-rule="evenodd" />
    </mask>
  </defs>
  <g>
    <path d="M 56 28  C 56 12.537500000000001  43.4625 0  28 0  C 12.537500000000001 0  0 12.537500000000001  0 28  C 0 43.4625  12.537500000000001 56  28 56  C 43.4625 56  56 43.4625  56 28  Z M 38.512499999999996 40.59375  C 38.64375 40.8375  38.537499999999994 41.1375  38.29375 41.2625  C 38.225 41.29375  38.150000000000006 41.3125  38.075 41.3125  L 34.2 41.3125  C 34.00625 41.3125  33.831250000000004 41.2  33.75 41.025  L 29.0875 31.075000000000003  L 23.54375 31.075000000000003  L 23.54375 40.8125  C 23.54375 41.0875  23.318749999999998 41.3125  23.04375 41.3125  L 19.625 41.3125  C 19.35 41.3125  19.125 41.0875  20 40.8125  L 20 15.1875  C 19.125 14.912500000000001  19.35 14.6875  19.625 14.6875  L 29.35 14.6875  C 35.525 14.6875  38.3625 18.43125  38.3625 22.88125  C 38.3625 27.26875  35.637499999999996 29.53125  33.4625 30.331250000000004  L 38.512499999999996 40.59375  Z M 33.8 23.0375  C 33.8 19.89375  31.74375 18.3125  28.743750000000002 18.3125  L 23.53125 18.3125  L 23.53125 27.5625  L 28.625 27.5625  C 31.9375 27.5625  33.8 25.9625  33.8 23.0375  Z " fill-rule="nonzero" fill="rgba(0, 0, 0, 1)" stroke="none" class="fill" />
    <path d="M 56 28  C 56 12.537500000000001  43.4625 0  28 0  C 12.537500000000001 0  0 12.537500000000001  0 28  C 0 43.4625  12.537500000000001 56  28 56  C 43.4625 56  56 43.4625  56 28  Z " stroke-width="0" stroke-dasharray="0" stroke="rgba(255, 255, 255, 0)" fill="none" class="stroke" mask="url(#Clip2383)" />
    <path d="M 38.512499999999996 40.59375  C 38.64375 40.8375  38.537499999999994 41.1375  38.29375 41.2625  C 38.225 41.29375  38.150000000000006 41.3125  38.075 41.3125  L 34.2 41.3125  C 34.00625 41.3125  33.831250000000004 41.2  33.75 41.025  L 29.0875 31.075000000000003  L 23.54375 31.075000000000003  L 23.54375 40.8125  C 23.54375 41.0875  23.318749999999998 41.3125  23.04375 41.3125  L 19.625 41.3125  C 19.35 41.3125  19.125 41.0875  20 40.8125  L 20 15.1875  C 19.125 14.912500000000001  19.35 14.6875  19.625 14.6875  L 29.35 14.6875  C 35.525 14.6875  38.3625 18.43125  38.3625 22.88125  C 38.3625 27.26875  35.637499999999996 29.53125  33.4625 30.331250000000004  L 38.512499999999996 40.59375  Z " stroke-width="0" stroke-dasharray="0" stroke="rgba(255, 255, 255, 0)" fill="none" class="stroke" mask="url(#Clip2383)" />
    <path d="M 33.8 23.0375  C 33.8 19.89375  31.74375 18.3125  28.743750000000002 18.3125  L 23.53125 18.3125  L 23.53125 27.5625  L 28.625 27.5625  C 31.9375 27.5625  33.8 25.9625  33.8 23.0375  Z " stroke-width="0" stroke-dasharray="0" stroke="rgba(255, 255, 255, 0)" fill="none" class="stroke" mask="url(#Clip2383)" />
  </g>
</svg>