<?xml version="1.0" encoding="utf-8"?>
<svg version="1.1" xmlns:xlink="http://www.w3.org/1999/xlink" width="16px" height="18px" xmlns="http://www.w3.org/2000/svg">
  <defs>
    <pattern id="BGPattern" patternUnits="userSpaceOnUse" alignment="0 0" imageRepeat="None" />
    <mask fill="white" id="Clip5301">
      <path d="M 5 3.75  L 5 2.249999999999999  C 5 1.0073593128807143  6.007359312880716 0  7.25 0  L 8.75 0  C 9.992640687119282 0  11 1.0073593128807143  11 2.25  L 11 3.75  C 11 4.992640687119284  9.992640687119282 6  8.75 6  L 8.75 7.5  L 12.5 7.5  C 12.914213562373096 7.5  13.25 7.835786437626904  13.25 8.25  L 13.25 9.75  C 13.25 10.164213562373096  12.914213562373096 10.5  12.5 10.5  C 12.085786437626904 10.5  11.75 10.164213562373096  11.75 9.75  L 11.75 9  L 4.25 9  L 4.25 9.75  C 4.25 10.164213562373096  3.914213562373095 10.5  3.5 10.5  C 3.085786437626905 10.5  2.75 10.164213562373096  2.75 9.75  L 2.75 8.25  C 2.75 7.835786437626904  3.085786437626905 7.5  3.5 7.5  L 7.25 7.5  L 7.25 6  C 6.007359312880716 6  5 4.992640687119284  5 3.75  Z M 0.5 15.75  L 0.5 14.25  C 0.5 13.007359312880713  1.5073593128807152 12  2.75 12  L 4.25 12  C 5.492640687119284 12  6.499999999999998 13.007359312880713  6.5 14.25  L 6.499999999999998 15.749999999999996  C 6.499999999999998 16.992640687119284  5.492640687119284 17.999999999999996  4.25 18  L 2.75 17.999999999999996  C 1.5073593128807152 17.999999999999996  0.5 16.992640687119284  0.5 15.75  Z M 9.5 15.75  L 9.5 14.25  C 9.5 13.007359312880713  10.507359312880716 12  11.75 12  L 13.25 12  C 14.492640687119284 12  15.5 13.007359312880713  15.5 14.25  L 15.5 15.749999999999996  C 15.5 16.992640687119284  14.492640687119284 17.999999999999996  13.25 18  L 11.75 17.999999999999996  C 10.507359312880716 17.999999999999996  9.5 16.992640687119284  9.5 15.75  Z M 7.25 4.5  L 8.75 4.5  C 9.164213562373096 4.5  9.5 4.164213562373096  9.5 3.75  L 9.5 2.25  C 9.5 1.835786437626905  9.164213562373096 1.5  8.75 1.5  L 7.25 1.5  C 6.835786437626904 1.5  6.5 1.835786437626905  6.5 2.25  L 6.5 3.75  C 6.5 4.164213562373096  6.835786437626904 4.5  7.25 4.5  Z M 4.25 13.5  L 2.75 13.5  C 2.335786437626905 13.5  2 13.835786437626904  2 14.25  L 2 15.75  C 2 16.164213562373096  2.335786437626905 16.5  2.75 16.5  L 4.25 16.5  C 4.664213562373096 16.5  5 16.164213562373096  5 15.75  L 5 14.25  C 5 13.835786437626904  4.664213562373096 13.5  4.25 13.5  Z M 13.25 13.5  L 11.75 13.5  C 11.335786437626904 13.5  11 13.835786437626904  11 14.25  L 11 15.75  C 11 16.164213562373096  11.335786437626904 16.5  11.75 16.5  L 13.25 16.5  C 13.664213562373096 16.5  14 16.164213562373096  14 15.75  L 14 14.25  C 14 13.835786437626904  13.664213562373096 13.5  13.25 13.5  Z " fill-rule="evenodd" />
    </mask>
  </defs>
  <g>
    <path d="M 5 3.75  L 5 2.249999999999999  C 5 1.0073593128807143  6.007359312880716 0  7.25 0  L 8.75 0  C 9.992640687119282 0  11 1.0073593128807143  11 2.25  L 11 3.75  C 11 4.992640687119284  9.992640687119282 6  8.75 6  L 8.75 7.5  L 12.5 7.5  C 12.914213562373096 7.5  13.25 7.835786437626904  13.25 8.25  L 13.25 9.75  C 13.25 10.164213562373096  12.914213562373096 10.5  12.5 10.5  C 12.085786437626904 10.5  11.75 10.164213562373096  11.75 9.75  L 11.75 9  L 4.25 9  L 4.25 9.75  C 4.25 10.164213562373096  3.914213562373095 10.5  3.5 10.5  C 3.085786437626905 10.5  2.75 10.164213562373096  2.75 9.75  L 2.75 8.25  C 2.75 7.835786437626904  3.085786437626905 7.5  3.5 7.5  L 7.25 7.5  L 7.25 6  C 6.007359312880716 6  5 4.992640687119284  5 3.75  Z M 0.5 15.75  L 0.5 14.25  C 0.5 13.007359312880713  1.5073593128807152 12  2.75 12  L 4.25 12  C 5.492640687119284 12  6.499999999999998 13.007359312880713  6.5 14.25  L 6.499999999999998 15.749999999999996  C 6.499999999999998 16.992640687119284  5.492640687119284 17.999999999999996  4.25 18  L 2.75 17.999999999999996  C 1.5073593128807152 17.999999999999996  0.5 16.992640687119284  0.5 15.75  Z M 9.5 15.75  L 9.5 14.25  C 9.5 13.007359312880713  10.507359312880716 12  11.75 12  L 13.25 12  C 14.492640687119284 12  15.5 13.007359312880713  15.5 14.25  L 15.5 15.749999999999996  C 15.5 16.992640687119284  14.492640687119284 17.999999999999996  13.25 18  L 11.75 17.999999999999996  C 10.507359312880716 17.999999999999996  9.5 16.992640687119284  9.5 15.75  Z M 7.25 4.5  L 8.75 4.5  C 9.164213562373096 4.5  9.5 4.164213562373096  9.5 3.75  L 9.5 2.25  C 9.5 1.835786437626905  9.164213562373096 1.5  8.75 1.5  L 7.25 1.5  C 6.835786437626904 1.5  6.5 1.835786437626905  6.5 2.25  L 6.5 3.75  C 6.5 4.164213562373096  6.835786437626904 4.5  7.25 4.5  Z M 4.25 13.5  L 2.75 13.5  C 2.335786437626905 13.5  2 13.835786437626904  2 14.25  L 2 15.75  C 2 16.164213562373096  2.335786437626905 16.5  2.75 16.5  L 4.25 16.5  C 4.664213562373096 16.5  5 16.164213562373096  5 15.75  L 5 14.25  C 5 13.835786437626904  4.664213562373096 13.5  4.25 13.5  Z M 13.25 13.5  L 11.75 13.5  C 11.335786437626904 13.5  11 13.835786437626904  11 14.25  L 11 15.75  C 11 16.164213562373096  11.335786437626904 16.5  11.75 16.5  L 13.25 16.5  C 13.664213562373096 16.5  14 16.164213562373096  14 15.75  L 14 14.25  C 14 13.835786437626904  13.664213562373096 13.5  13.25 13.5  Z " fill-rule="nonzero" fill="rgba(0, 0, 0, 1)" stroke="none" class="fill" />
    <path d="M 5 3.75  L 5 2.249999999999999  C 5 1.0073593128807143  6.007359312880716 0  7.25 0  L 8.75 0  C 9.992640687119282 0  11 1.0073593128807143  11 2.25  L 11 3.75  C 11 4.992640687119284  9.992640687119282 6  8.75 6  L 8.75 7.5  L 12.5 7.5  C 12.914213562373096 7.5  13.25 7.835786437626904  13.25 8.25  L 13.25 9.75  C 13.25 10.164213562373096  12.914213562373096 10.5  12.5 10.5  C 12.085786437626904 10.5  11.75 10.164213562373096  11.75 9.75  L 11.75 9  L 4.25 9  L 4.25 9.75  C 4.25 10.164213562373096  3.914213562373095 10.5  3.5 10.5  C 3.085786437626905 10.5  2.75 10.164213562373096  2.75 9.75  L 2.75 8.25  C 2.75 7.835786437626904  3.085786437626905 7.5  3.5 7.5  L 7.25 7.5  L 7.25 6  C 6.007359312880716 6  5 4.992640687119284  5 3.75  Z " stroke-width="0" stroke-dasharray="0" stroke="rgba(255, 255, 255, 0)" fill="none" class="stroke" mask="url(#Clip5301)" />
    <path d="M 0.5 15.75  L 0.5 14.25  C 0.5 13.007359312880713  1.5073593128807152 12  2.75 12  L 4.25 12  C 5.492640687119284 12  6.499999999999998 13.007359312880713  6.5 14.25  L 6.499999999999998 15.749999999999996  C 6.499999999999998 16.992640687119284  5.492640687119284 17.999999999999996  4.25 18  L 2.75 17.999999999999996  C 1.5073593128807152 17.999999999999996  0.5 16.992640687119284  0.5 15.75  Z " stroke-width="0" stroke-dasharray="0" stroke="rgba(255, 255, 255, 0)" fill="none" class="stroke" mask="url(#Clip5301)" />
    <path d="M 9.5 15.75  L 9.5 14.25  C 9.5 13.007359312880713  10.507359312880716 12  11.75 12  L 13.25 12  C 14.492640687119284 12  15.5 13.007359312880713  15.5 14.25  L 15.5 15.749999999999996  C 15.5 16.992640687119284  14.492640687119284 17.999999999999996  13.25 18  L 11.75 17.999999999999996  C 10.507359312880716 17.999999999999996  9.5 16.992640687119284  9.5 15.75  Z " stroke-width="0" stroke-dasharray="0" stroke="rgba(255, 255, 255, 0)" fill="none" class="stroke" mask="url(#Clip5301)" />
    <path d="M 7.25 4.5  L 8.75 4.5  C 9.164213562373096 4.5  9.5 4.164213562373096  9.5 3.75  L 9.5 2.25  C 9.5 1.835786437626905  9.164213562373096 1.5  8.75 1.5  L 7.25 1.5  C 6.835786437626904 1.5  6.5 1.835786437626905  6.5 2.25  L 6.5 3.75  C 6.5 4.164213562373096  6.835786437626904 4.5  7.25 4.5  Z " stroke-width="0" stroke-dasharray="0" stroke="rgba(255, 255, 255, 0)" fill="none" class="stroke" mask="url(#Clip5301)" />
    <path d="M 4.25 13.5  L 2.75 13.5  C 2.335786437626905 13.5  2 13.835786437626904  2 14.25  L 2 15.75  C 2 16.164213562373096  2.335786437626905 16.5  2.75 16.5  L 4.25 16.5  C 4.664213562373096 16.5  5 16.164213562373096  5 15.75  L 5 14.25  C 5 13.835786437626904  4.664213562373096 13.5  4.25 13.5  Z " stroke-width="0" stroke-dasharray="0" stroke="rgba(255, 255, 255, 0)" fill="none" class="stroke" mask="url(#Clip5301)" />
    <path d="M 13.25 13.5  L 11.75 13.5  C 11.335786437626904 13.5  11 13.835786437626904  11 14.25  L 11 15.75  C 11 16.164213562373096  11.335786437626904 16.5  11.75 16.5  L 13.25 16.5  C 13.664213562373096 16.5  14 16.164213562373096  14 15.75  L 14 14.25  C 14 13.835786437626904  13.664213562373096 13.5  13.25 13.5  Z " stroke-width="0" stroke-dasharray="0" stroke="rgba(255, 255, 255, 0)" fill="none" class="stroke" mask="url(#Clip5301)" />
  </g>
</svg>