<?xml version="1.0" encoding="utf-8"?>
<svg version="1.1" xmlns:xlink="http://www.w3.org/1999/xlink" width="14px" height="14px" xmlns="http://www.w3.org/2000/svg">
  <defs>
    <pattern id="BGPattern" patternUnits="userSpaceOnUse" alignment="0 0" imageRepeat="None" />
    <mask fill="white" id="Clip6359">
      <path d="M 7 13.75  C 3.272077938642143 13.75  0.2499999999999991 10.727922061357855  0.2499999999999991 7  C 0.2499999999999991 3.272077938642143  3.272077938642143 0.2499999999999991  7 0.2499999999999991  C 10.727922061357855 0.2499999999999991  13.75 3.272077938642143  13.75 7  C 13.75 10.727922061357855  10.727922061357855 13.75  7 13.75  Z " fill-rule="evenodd" />
    </mask>
  </defs>
  <g transform="matrix(1 0 0 1 -5 -5 )">
    <path d="M 7 13.75  C 3.272077938642143 13.75  0.2499999999999991 10.727922061357855  0.2499999999999991 7  C 0.2499999999999991 3.272077938642143  3.272077938642143 0.2499999999999991  7 0.2499999999999991  C 10.727922061357855 0.2499999999999991  13.75 3.272077938642143  13.75 7  C 13.75 10.727922061357855  10.727922061357855 13.75  7 13.75  Z " fill-rule="nonzero" fill="rgba(0, 0, 0, 1)" stroke="none" transform="matrix(1 0 0 1 5 5 )" class="fill" />
    <path d="M 7 13.75  C 3.272077938642143 13.75  0.2499999999999991 10.727922061357855  0.2499999999999991 7  C 0.2499999999999991 3.272077938642143  3.272077938642143 0.2499999999999991  7 0.2499999999999991  C 10.727922061357855 0.2499999999999991  13.75 3.272077938642143  13.75 7  C 13.75 10.727922061357855  10.727922061357855 13.75  7 13.75  Z " stroke-width="0" stroke-dasharray="0" stroke="rgba(255, 255, 255, 0)" fill="none" transform="matrix(1 0 0 1 5 5 )" class="stroke" mask="url(#Clip6359)" />
  </g>
</svg>