<?xml version="1.0" encoding="utf-8"?>
<svg version="1.1" xmlns:xlink="http://www.w3.org/1999/xlink" width="17px" height="20px" xmlns="http://www.w3.org/2000/svg">
  <defs>
    <pattern id="BGPattern" patternUnits="userSpaceOnUse" alignment="0 0" imageRepeat="None" />
    <mask fill="white" id="Clip6320">
      <path d="M 0.7855000000000008 17.575499999999998  L 0.7855000000000008 19.7175  L 11.491 19.7175  L 11.491 17.575499999999998  L 0.7855000000000008 17.575499999999998  Z M 16.771 8.5905  L 10.381 0  L 8.662 1.278  L 15.052 9.868500000000001  L 16.771 8.5905  Z M 5.0695 5.0655  L 5.071 5.0655  L 13.297 11.916  L 14.6665 10.270499999999998  L 6.4405 3.42  L 5.0695 5.0655  Z M 3.2874999999999996 7.883999999999998  L 2.382999999999999 9.825  L 12.088000000000001 14.344499999999998  L 12.9925 12.403499999999998  L 3.2874999999999996 7.883999999999998  Z M 1.4364999999999988 12.7455  L 0.9954999999999998 14.841000000000001  L 11.472999999999999 17.0445  L 11.914000000000001 14.9475  L 1.4364999999999988 12.7455  Z " fill-rule="evenodd" />
    </mask>
  </defs>
  <g transform="matrix(1 0 0 1 -4 0 )">
    <path d="M 0.7855000000000008 17.575499999999998  L 0.7855000000000008 19.7175  L 11.491 19.7175  L 11.491 17.575499999999998  L 0.7855000000000008 17.575499999999998  Z M 16.771 8.5905  L 10.381 0  L 8.662 1.278  L 15.052 9.868500000000001  L 16.771 8.5905  Z M 5.0695 5.0655  L 5.071 5.0655  L 13.297 11.916  L 14.6665 10.270499999999998  L 6.4405 3.42  L 5.0695 5.0655  Z M 3.2874999999999996 7.883999999999998  L 2.382999999999999 9.825  L 12.088000000000001 14.344499999999998  L 12.9925 12.403499999999998  L 3.2874999999999996 7.883999999999998  Z M 1.4364999999999988 12.7455  L 0.9954999999999998 14.841000000000001  L 11.472999999999999 17.0445  L 11.914000000000001 14.9475  L 1.4364999999999988 12.7455  Z " fill-rule="nonzero" fill="rgba(0, 0, 0, 1)" stroke="none" transform="matrix(1 0 0 1 4 0 )" class="fill" />
    <path d="M 0.7855000000000008 17.575499999999998  L 0.7855000000000008 19.7175  L 11.491 19.7175  L 11.491 17.575499999999998  L 0.7855000000000008 17.575499999999998  Z " stroke-width="0" stroke-dasharray="0" stroke="rgba(255, 255, 255, 0)" fill="none" transform="matrix(1 0 0 1 4 0 )" class="stroke" mask="url(#Clip6320)" />
    <path d="M 16.771 8.5905  L 10.381 0  L 8.662 1.278  L 15.052 9.868500000000001  L 16.771 8.5905  Z " stroke-width="0" stroke-dasharray="0" stroke="rgba(255, 255, 255, 0)" fill="none" transform="matrix(1 0 0 1 4 0 )" class="stroke" mask="url(#Clip6320)" />
    <path d="M 5.0695 5.0655  L 5.071 5.0655  L 13.297 11.916  L 14.6665 10.270499999999998  L 6.4405 3.42  L 5.0695 5.0655  Z " stroke-width="0" stroke-dasharray="0" stroke="rgba(255, 255, 255, 0)" fill="none" transform="matrix(1 0 0 1 4 0 )" class="stroke" mask="url(#Clip6320)" />
    <path d="M 3.2874999999999996 7.883999999999998  L 2.382999999999999 9.825  L 12.088000000000001 14.344499999999998  L 12.9925 12.403499999999998  L 3.2874999999999996 7.883999999999998  Z " stroke-width="0" stroke-dasharray="0" stroke="rgba(255, 255, 255, 0)" fill="none" transform="matrix(1 0 0 1 4 0 )" class="stroke" mask="url(#Clip6320)" />
    <path d="M 1.4364999999999988 12.7455  L 0.9954999999999998 14.841000000000001  L 11.472999999999999 17.0445  L 11.914000000000001 14.9475  L 1.4364999999999988 12.7455  Z " stroke-width="0" stroke-dasharray="0" stroke="rgba(255, 255, 255, 0)" fill="none" transform="matrix(1 0 0 1 4 0 )" class="stroke" mask="url(#Clip6320)" />
  </g>
</svg>