<?xml version="1.0" encoding="utf-8"?>
<svg version="1.1" xmlns:xlink="http://www.w3.org/1999/xlink" width="8px" height="20px" xmlns="http://www.w3.org/2000/svg">
  <defs>
    <pattern id="BGPattern" patternUnits="userSpaceOnUse" alignment="0 0" imageRepeat="None" />
    <mask fill="white" id="Clip3672">
      <path d="M 8 17.999999999999996  C 7.99884252787457 19.10408970360221  7.104089703602212 19.99884252787457  6.000000000000001 20  L 2.000000000000001 20  C 0.8959102963977896 19.998842527874565  0.0011574721254312692 19.10408970360221  0 18  L 0 2.000000000000001  C 0.0011574721254312692 0.8959102963977887  0.8959102963977887 0.0011574721254312692  2.000000000000001 0  L 5.999999999999999 0  C 7.104089703602212 0.0011574721254312692  7.99884252787457 0.8959102963977887  8 2.000000000000001  L 8 17.999999999999996  Z M 6 2.000000000000001  L 2 2.000000000000001  L 2 18  L 6 18  L 6 2.000000000000001  Z " fill-rule="evenodd" />
    </mask>
  </defs>
  <g transform="matrix(1 0 0 1 -6 -6 )">
    <path d="M 8 17.999999999999996  C 7.99884252787457 19.10408970360221  7.104089703602212 19.99884252787457  6.000000000000001 20  L 2.000000000000001 20  C 0.8959102963977896 19.998842527874565  0.0011574721254312692 19.10408970360221  0 18  L 0 2.000000000000001  C 0.0011574721254312692 0.8959102963977887  0.8959102963977887 0.0011574721254312692  2.000000000000001 0  L 5.999999999999999 0  C 7.104089703602212 0.0011574721254312692  7.99884252787457 0.8959102963977887  8 2.000000000000001  L 8 17.999999999999996  Z M 6 2.000000000000001  L 2 2.000000000000001  L 2 18  L 6 18  L 6 2.000000000000001  Z " fill-rule="nonzero" fill="rgba(0, 0, 0, 1)" stroke="none" transform="matrix(1 0 0 1 6 6 )" class="fill" />
    <path d="M 8 17.999999999999996  C 7.99884252787457 19.10408970360221  7.104089703602212 19.99884252787457  6.000000000000001 20  L 2.000000000000001 20  C 0.8959102963977896 19.998842527874565  0.0011574721254312692 19.10408970360221  0 18  L 0 2.000000000000001  C 0.0011574721254312692 0.8959102963977887  0.8959102963977887 0.0011574721254312692  2.000000000000001 0  L 5.999999999999999 0  C 7.104089703602212 0.0011574721254312692  7.99884252787457 0.8959102963977887  8 2.000000000000001  L 8 17.999999999999996  Z " stroke-width="0" stroke-dasharray="0" stroke="rgba(255, 255, 255, 0)" fill="none" transform="matrix(1 0 0 1 6 6 )" class="stroke" mask="url(#Clip3672)" />
    <path d="M 6 2.000000000000001  L 2 2.000000000000001  L 2 18  L 6 18  L 6 2.000000000000001  Z " stroke-width="0" stroke-dasharray="0" stroke="rgba(255, 255, 255, 0)" fill="none" transform="matrix(1 0 0 1 6 6 )" class="stroke" mask="url(#Clip3672)" />
  </g>
</svg>