<?xml version="1.0" encoding="utf-8"?>
<svg version="1.1" xmlns:xlink="http://www.w3.org/1999/xlink" width="30px" height="30px" xmlns="http://www.w3.org/2000/svg">
  <defs>
    <pattern id="BGPattern" patternUnits="userSpaceOnUse" alignment="0 0" imageRepeat="None" />
    <mask fill="white" id="Clip423">
      <path d="M 2.0400000000000045 17.880000000000003  L 12.12 27.96  C 12.952 28.792  13.975999999999999 29.208000000000002  15 29.208000000000002  C 16.024 29.208000000000002  17.048000000000002 28.792  17.88 27.96  L 27.96 17.880000000000003  C 28.792 17.048000000000002  29.208000000000002 16.024  29.208000000000002 15.000000000000004  C 29.208000000000002 13.976000000000006  28.792 12.952000000000004  27.96 12.120000000000005  L 17.880000000000003 2.0400000000000045  C 17.048000000000002 1.2080000000000046  16.024 0.7920000000000045  15.000000000000004 0.7920000000000045  C 13.976000000000006 0.7920000000000045  12.952000000000004 1.2080000000000046  12.120000000000005 2.0400000000000045  L 2.0400000000000045 12.120000000000005  C 1.2080000000000046 12.952000000000005  0.7920000000000045 13.976000000000004  0.7920000000000045 15.000000000000004  C 0.7920000000000045 16.024  1.2080000000000046 17.048000000000002  2.0400000000000045 17.880000000000003  Z M 10.600000000000001 11.864  C 10.600000000000001 9.752  12.360000000000001 7.800000000000001  15 7.800000000000001  C 17.64 7.800000000000001  19.4 9.752  19.4 11.864  C 19.4 14.904  16.2 15.975999999999999  16.2 17  C 16.2 17.672  15.655999999999997 18.2  15 18.2  C 14.328 18.2  13.8 17.672  13.8 17  C 13.8 14.648  17 13.656  17 11.864  C 17 11.192  16.2 10.200000000000001  15 10.200000000000001  C 13.8 10.200000000000001  13 11.192  13 11.864  C 13 12.536000000000001  12.472 13.064  11.8 13.064  C 11.144 13.064  10.600000000000001 12.536  10.600000000000001 11.864  Z M 13.4 20.6  C 13.4 19.72  14.104000000000001 19  15 19  C 15.879999999999999 19  16.6 19.72  16.6 20.6  C 16.6 21.480000000000004  15.880000000000003 22.200000000000003  15 22.200000000000003  C 14.104 22.200000000000003  13.4 21.480000000000004  13.4 20.6  Z " fill-rule="evenodd" />
    </mask>
  </defs>
  <g>
    <path d="M 2.0400000000000045 17.880000000000003  L 12.12 27.96  C 12.952 28.792  13.975999999999999 29.208000000000002  15 29.208000000000002  C 16.024 29.208000000000002  17.048000000000002 28.792  17.88 27.96  L 27.96 17.880000000000003  C 28.792 17.048000000000002  29.208000000000002 16.024  29.208000000000002 15.000000000000004  C 29.208000000000002 13.976000000000006  28.792 12.952000000000004  27.96 12.120000000000005  L 17.880000000000003 2.0400000000000045  C 17.048000000000002 1.2080000000000046  16.024 0.7920000000000045  15.000000000000004 0.7920000000000045  C 13.976000000000006 0.7920000000000045  12.952000000000004 1.2080000000000046  12.120000000000005 2.0400000000000045  L 2.0400000000000045 12.120000000000005  C 1.2080000000000046 12.952000000000005  0.7920000000000045 13.976000000000004  0.7920000000000045 15.000000000000004  C 0.7920000000000045 16.024  1.2080000000000046 17.048000000000002  2.0400000000000045 17.880000000000003  Z M 10.600000000000001 11.864  C 10.600000000000001 9.752  12.360000000000001 7.800000000000001  15 7.800000000000001  C 17.64 7.800000000000001  19.4 9.752  19.4 11.864  C 19.4 14.904  16.2 15.975999999999999  16.2 17  C 16.2 17.672  15.655999999999997 18.2  15 18.2  C 14.328 18.2  13.8 17.672  13.8 17  C 13.8 14.648  17 13.656  17 11.864  C 17 11.192  16.2 10.200000000000001  15 10.200000000000001  C 13.8 10.200000000000001  13 11.192  13 11.864  C 13 12.536000000000001  12.472 13.064  11.8 13.064  C 11.144 13.064  10.600000000000001 12.536  10.600000000000001 11.864  Z M 13.4 20.6  C 13.4 19.72  14.104000000000001 19  15 19  C 15.879999999999999 19  16.6 19.72  16.6 20.6  C 16.6 21.480000000000004  15.880000000000003 22.200000000000003  15 22.200000000000003  C 14.104 22.200000000000003  13.4 21.480000000000004  13.4 20.6  Z " fill-rule="nonzero" fill="rgba(0, 0, 0, 1)" stroke="none" class="fill" />
    <path d="M 2.0400000000000045 17.880000000000003  L 12.12 27.96  C 12.952 28.792  13.975999999999999 29.208000000000002  15 29.208000000000002  C 16.024 29.208000000000002  17.048000000000002 28.792  17.88 27.96  L 27.96 17.880000000000003  C 28.792 17.048000000000002  29.208000000000002 16.024  29.208000000000002 15.000000000000004  C 29.208000000000002 13.976000000000006  28.792 12.952000000000004  27.96 12.120000000000005  L 17.880000000000003 2.0400000000000045  C 17.048000000000002 1.2080000000000046  16.024 0.7920000000000045  15.000000000000004 0.7920000000000045  C 13.976000000000006 0.7920000000000045  12.952000000000004 1.2080000000000046  12.120000000000005 2.0400000000000045  L 2.0400000000000045 12.120000000000005  C 1.2080000000000046 12.952000000000005  0.7920000000000045 13.976000000000004  0.7920000000000045 15.000000000000004  C 0.7920000000000045 16.024  1.2080000000000046 17.048000000000002  2.0400000000000045 17.880000000000003  Z " stroke-width="0" stroke-dasharray="0" stroke="rgba(255, 255, 255, 0)" fill="none" class="stroke" mask="url(#Clip423)" />
    <path d="M 10.600000000000001 11.864  C 10.600000000000001 9.752  12.360000000000001 7.800000000000001  15 7.800000000000001  C 17.64 7.800000000000001  19.4 9.752  19.4 11.864  C 19.4 14.904  16.2 15.975999999999999  16.2 17  C 16.2 17.672  15.655999999999997 18.2  15 18.2  C 14.328 18.2  13.8 17.672  13.8 17  C 13.8 14.648  17 13.656  17 11.864  C 17 11.192  16.2 10.200000000000001  15 10.200000000000001  C 13.8 10.200000000000001  13 11.192  13 11.864  C 13 12.536000000000001  12.472 13.064  11.8 13.064  C 11.144 13.064  10.600000000000001 12.536  10.600000000000001 11.864  Z " stroke-width="0" stroke-dasharray="0" stroke="rgba(255, 255, 255, 0)" fill="none" class="stroke" mask="url(#Clip423)" />
    <path d="M 13.4 20.6  C 13.4 19.72  14.104000000000001 19  15 19  C 15.879999999999999 19  16.6 19.72  16.6 20.6  C 16.6 21.480000000000004  15.880000000000003 22.200000000000003  15 22.200000000000003  C 14.104 22.200000000000003  13.4 21.480000000000004  13.4 20.6  Z " stroke-width="0" stroke-dasharray="0" stroke="rgba(255, 255, 255, 0)" fill="none" class="stroke" mask="url(#Clip423)" />
  </g>
</svg>