<?xml version="1.0" encoding="utf-8"?>
<svg version="1.1" xmlns:xlink="http://www.w3.org/1999/xlink" width="25px" height="29px" xmlns="http://www.w3.org/2000/svg">
  <defs>
    <pattern id="BGPattern" patternUnits="userSpaceOnUse" alignment="0 0" imageRepeat="None" />
    <mask fill="white" id="Clip348">
      <path d="M 0.1999999999999984 26.704  C 0.1999999999999984 27.456  0.5199999999999982 27.936  1 28.08  L 13.079999999999997 14.32  L 0.9039999999999982 0.41600000000000037  C 0.4719999999999982 0.5920000000000005  0.1999999999999984 1.0560000000000005  0.1999999999999984 1.7600000000000007  L 0.1999999999999984 26.704  Z M 2.984 1.0879999999999992  L 17.448 9.328  L 13.8 13.488  L 2.984 1.0879999999999992  Z M 24.104 13.120000000000001  L 18.44 9.888  L 14.504 14.304000000000002  L 18.296 18.656000000000002  L 24.104 15.344000000000001  C 24.648 15.024000000000003  24.904 14.624000000000002  24.904 14.224  C 24.904 13.823999999999998  24.648 13.424  24.104 13.120000000000001  Z M 17.352 19.183999999999997  L 2.6799999999999997 27.552  L 13.783999999999999 15.104  L 17.352 19.183999999999997  Z " fill-rule="evenodd" />
    </mask>
  </defs>
  <g>
    <path d="M 0.1999999999999984 26.704  C 0.1999999999999984 27.456  0.5199999999999982 27.936  1 28.08  L 13.079999999999997 14.32  L 0.9039999999999982 0.41600000000000037  C 0.4719999999999982 0.5920000000000005  0.1999999999999984 1.0560000000000005  0.1999999999999984 1.7600000000000007  L 0.1999999999999984 26.704  Z M 2.984 1.0879999999999992  L 17.448 9.328  L 13.8 13.488  L 2.984 1.0879999999999992  Z M 24.104 13.120000000000001  L 18.44 9.888  L 14.504 14.304000000000002  L 18.296 18.656000000000002  L 24.104 15.344000000000001  C 24.648 15.024000000000003  24.904 14.624000000000002  24.904 14.224  C 24.904 13.823999999999998  24.648 13.424  24.104 13.120000000000001  Z M 17.352 19.183999999999997  L 2.6799999999999997 27.552  L 13.783999999999999 15.104  L 17.352 19.183999999999997  Z " fill-rule="nonzero" fill="rgba(0, 0, 0, 1)" stroke="none" class="fill" />
    <path d="M 0.1999999999999984 26.704  C 0.1999999999999984 27.456  0.5199999999999982 27.936  1 28.08  L 13.079999999999997 14.32  L 0.9039999999999982 0.41600000000000037  C 0.4719999999999982 0.5920000000000005  0.1999999999999984 1.0560000000000005  0.1999999999999984 1.7600000000000007  L 0.1999999999999984 26.704  Z " stroke-width="0" stroke-dasharray="0" stroke="rgba(255, 255, 255, 0)" fill="none" class="stroke" mask="url(#Clip348)" />
    <path d="M 2.984 1.0879999999999992  L 17.448 9.328  L 13.8 13.488  L 2.984 1.0879999999999992  Z " stroke-width="0" stroke-dasharray="0" stroke="rgba(255, 255, 255, 0)" fill="none" class="stroke" mask="url(#Clip348)" />
    <path d="M 24.104 13.120000000000001  L 18.44 9.888  L 14.504 14.304000000000002  L 18.296 18.656000000000002  L 24.104 15.344000000000001  C 24.648 15.024000000000003  24.904 14.624000000000002  24.904 14.224  C 24.904 13.823999999999998  24.648 13.424  24.104 13.120000000000001  Z " stroke-width="0" stroke-dasharray="0" stroke="rgba(255, 255, 255, 0)" fill="none" class="stroke" mask="url(#Clip348)" />
    <path d="M 17.352 19.183999999999997  L 2.6799999999999997 27.552  L 13.783999999999999 15.104  L 17.352 19.183999999999997  Z " stroke-width="0" stroke-dasharray="0" stroke="rgba(255, 255, 255, 0)" fill="none" class="stroke" mask="url(#Clip348)" />
  </g>
</svg>