<?xml version="1.0" encoding="utf-8"?>
<svg version="1.1" xmlns:xlink="http://www.w3.org/1999/xlink" width="56px" height="56px" xmlns="http://www.w3.org/2000/svg">
  <defs>
    <pattern id="BGPattern" patternUnits="userSpaceOnUse" alignment="0 0" imageRepeat="None" />
    <mask fill="white" id="Clip2656">
      <path d="M 14 22.312499999999996  C 14 23.969354249492376  15.34314575050762 25.312499999999996  17 25.312499999999996  C 18.65685424949238 25.312499999999996  20 23.969354249492376  20 22.312499999999996  C 20 20.655645750507617  18.65685424949238 19.312499999999996  17 19.312499999999996  C 15.34314575050762 19.312499999999996  14 20.655645750507617  14 22.312499999999996  Z M 36 22.312499999999996  C 36 23.969354249492376  37.34314575050762 25.312499999999996  39 25.312499999999996  C 40.656854249492376 25.312499999999996  42 23.969354249492376  42 22.312499999999996  C 42 20.655645750507617  40.656854249492376 19.312499999999996  39 19.312499999999996  C 37.34314575050762 19.312499999999996  36 20.655645750507617  36 22.312499999999996  Z M 56 28  C 56 12.537500000000001  43.4625 0  28 0  C 12.537500000000001 0  0 12.537500000000001  0 28  C 0 43.4625  12.537500000000001 56  28 56  C 43.4625 56  56 43.4625  56 28  Z M 49.425 37.05  C 48.258870505555514 39.81348366880998  46.56471541099355 42.32287129007847  44.4375 44.4375  C 42.3 46.575  39.8125 48.25  37.04375 49.425  C 34.1875 50.6375  31.143749999999997 51.25  28 51.25  C 24.85625 51.25  21.8125 50.6375  18.95 49.425  C 16.18544233620925 48.25744997346417  13.674265681097811 46.56352015877362  11.55625 44.4375  C 9.41875 42.3  7.7437499999999995 39.8125  6.568750000000001 37.04375  C 5.362500000000001 34.1875  4.75 31.143749999999997  4.75 28  C 4.75 24.856250000000003  5.362500000000001 21.8125  6.574999999999999 18.95  C 7.742550026535831 16.18544233620925  9.436479841226388 13.674265681097811  11.5625 11.55625  C 13.7 9.41875  16.1875 7.7437499999999995  18.95625 6.568750000000001  C 21.8125 5.362500000000001  24.85625 4.75  28 4.75  C 31.143749999999997 4.75  34.1875 5.362500000000001  37.05 6.574999999999999  C 39.81455766379075 7.742550026535829  42.32573431890219 9.43647984122639  44.44375 11.5625  C 46.581250000000004 13.7  48.25625 16.1875  49.43125 18.95625  C 50.6375 21.8125  51.25 24.85625  51.25 28  C 51.25 31.143749999999997  50.6375 34.1875  49.425 37.05  Z M 38 31.812499999999996  C 38 31.5375  37.775 31.3125  37.5 31  L 18.5 31  C 18.225 31.3125  18 31.5375  18 31.812499999999996  L 18 34.8125  C 18 35.0875  18.225 35.3125  18.5 35  L 37.5 35  C 37.775 35.3125  38 35.0875  38 34.8125  L 38 31.812499999999996  Z " fill-rule="evenodd" />
    </mask>
  </defs>
  <g>
    <path d="M 14 22.312499999999996  C 14 23.969354249492376  15.34314575050762 25.312499999999996  17 25.312499999999996  C 18.65685424949238 25.312499999999996  20 23.969354249492376  20 22.312499999999996  C 20 20.655645750507617  18.65685424949238 19.312499999999996  17 19.312499999999996  C 15.34314575050762 19.312499999999996  14 20.655645750507617  14 22.312499999999996  Z M 36 22.312499999999996  C 36 23.969354249492376  37.34314575050762 25.312499999999996  39 25.312499999999996  C 40.656854249492376 25.312499999999996  42 23.969354249492376  42 22.312499999999996  C 42 20.655645750507617  40.656854249492376 19.312499999999996  39 19.312499999999996  C 37.34314575050762 19.312499999999996  36 20.655645750507617  36 22.312499999999996  Z M 56 28  C 56 12.537500000000001  43.4625 0  28 0  C 12.537500000000001 0  0 12.537500000000001  0 28  C 0 43.4625  12.537500000000001 56  28 56  C 43.4625 56  56 43.4625  56 28  Z M 49.425 37.05  C 48.258870505555514 39.81348366880998  46.56471541099355 42.32287129007847  44.4375 44.4375  C 42.3 46.575  39.8125 48.25  37.04375 49.425  C 34.1875 50.6375  31.143749999999997 51.25  28 51.25  C 24.85625 51.25  21.8125 50.6375  18.95 49.425  C 16.18544233620925 48.25744997346417  13.674265681097811 46.56352015877362  11.55625 44.4375  C 9.41875 42.3  7.7437499999999995 39.8125  6.568750000000001 37.04375  C 5.362500000000001 34.1875  4.75 31.143749999999997  4.75 28  C 4.75 24.856250000000003  5.362500000000001 21.8125  6.574999999999999 18.95  C 7.742550026535831 16.18544233620925  9.436479841226388 13.674265681097811  11.5625 11.55625  C 13.7 9.41875  16.1875 7.7437499999999995  18.95625 6.568750000000001  C 21.8125 5.362500000000001  24.85625 4.75  28 4.75  C 31.143749999999997 4.75  34.1875 5.362500000000001  37.05 6.574999999999999  C 39.81455766379075 7.742550026535829  42.32573431890219 9.43647984122639  44.44375 11.5625  C 46.581250000000004 13.7  48.25625 16.1875  49.43125 18.95625  C 50.6375 21.8125  51.25 24.85625  51.25 28  C 51.25 31.143749999999997  50.6375 34.1875  49.425 37.05  Z M 38 31.812499999999996  C 38 31.5375  37.775 31.3125  37.5 31  L 18.5 31  C 18.225 31.3125  18 31.5375  18 31.812499999999996  L 18 34.8125  C 18 35.0875  18.225 35.3125  18.5 35  L 37.5 35  C 37.775 35.3125  38 35.0875  38 34.8125  L 38 31.812499999999996  Z " fill-rule="nonzero" fill="rgba(0, 0, 0, 1)" stroke="none" class="fill" />
    <path d="M 14 22.312499999999996  C 14 23.969354249492376  15.34314575050762 25.312499999999996  17 25.312499999999996  C 18.65685424949238 25.312499999999996  20 23.969354249492376  20 22.312499999999996  C 20 20.655645750507617  18.65685424949238 19.312499999999996  17 19.312499999999996  C 15.34314575050762 19.312499999999996  14 20.655645750507617  14 22.312499999999996  Z " stroke-width="0" stroke-dasharray="0" stroke="rgba(255, 255, 255, 0)" fill="none" class="stroke" mask="url(#Clip2656)" />
    <path d="M 36 22.312499999999996  C 36 23.969354249492376  37.34314575050762 25.312499999999996  39 25.312499999999996  C 40.656854249492376 25.312499999999996  42 23.969354249492376  42 22.312499999999996  C 42 20.655645750507617  40.656854249492376 19.312499999999996  39 19.312499999999996  C 37.34314575050762 19.312499999999996  36 20.655645750507617  36 22.312499999999996  Z " stroke-width="0" stroke-dasharray="0" stroke="rgba(255, 255, 255, 0)" fill="none" class="stroke" mask="url(#Clip2656)" />
    <path d="M 56 28  C 56 12.537500000000001  43.4625 0  28 0  C 12.537500000000001 0  0 12.537500000000001  0 28  C 0 43.4625  12.537500000000001 56  28 56  C 43.4625 56  56 43.4625  56 28  Z " stroke-width="0" stroke-dasharray="0" stroke="rgba(255, 255, 255, 0)" fill="none" class="stroke" mask="url(#Clip2656)" />
    <path d="M 49.425 37.05  C 48.258870505555514 39.81348366880998  46.56471541099355 42.32287129007847  44.4375 44.4375  C 42.3 46.575  39.8125 48.25  37.04375 49.425  C 34.1875 50.6375  31.143749999999997 51.25  28 51.25  C 24.85625 51.25  21.8125 50.6375  18.95 49.425  C 16.18544233620925 48.25744997346417  13.674265681097811 46.56352015877362  11.55625 44.4375  C 9.41875 42.3  7.7437499999999995 39.8125  6.568750000000001 37.04375  C 5.362500000000001 34.1875  4.75 31.143749999999997  4.75 28  C 4.75 24.856250000000003  5.362500000000001 21.8125  6.574999999999999 18.95  C 7.742550026535831 16.18544233620925  9.436479841226388 13.674265681097811  11.5625 11.55625  C 13.7 9.41875  16.1875 7.7437499999999995  18.95625 6.568750000000001  C 21.8125 5.362500000000001  24.85625 4.75  28 4.75  C 31.143749999999997 4.75  34.1875 5.362500000000001  37.05 6.574999999999999  C 39.81455766379075 7.742550026535829  42.32573431890219 9.43647984122639  44.44375 11.5625  C 46.581250000000004 13.7  48.25625 16.1875  49.43125 18.95625  C 50.6375 21.8125  51.25 24.85625  51.25 28  C 51.25 31.143749999999997  50.6375 34.1875  49.425 37.05  Z " stroke-width="0" stroke-dasharray="0" stroke="rgba(255, 255, 255, 0)" fill="none" class="stroke" mask="url(#Clip2656)" />
    <path d="M 38 31.812499999999996  C 38 31.5375  37.775 31.3125  37.5 31  L 18.5 31  C 18.225 31.3125  18 31.5375  18 31.812499999999996  L 18 34.8125  C 18 35.0875  18.225 35.3125  18.5 35  L 37.5 35  C 37.775 35.3125  38 35.0875  38 34.8125  L 38 31.812499999999996  Z " stroke-width="0" stroke-dasharray="0" stroke="rgba(255, 255, 255, 0)" fill="none" class="stroke" mask="url(#Clip2656)" />
  </g>
</svg>