<?xml version="1.0" encoding="utf-8"?>
<svg version="1.1" xmlns:xlink="http://www.w3.org/1999/xlink" width="28px" height="20px" xmlns="http://www.w3.org/2000/svg">
  <defs>
    <pattern id="BGPattern" patternUnits="userSpaceOnUse" alignment="0 0" imageRepeat="None" />
    <mask fill="white" id="Clip351">
      <path d="M 25.968 3.5999999999999996  L 2.032 3.5999999999999996  C 1.088 3.5999999999999996  0.40000000000000036 2.927999999999999  0.40000000000000036 2  C 0.40000000000000036 1.072000000000001  1.088 0.40000000000000036  2.032 0.40000000000000036  L 25.968 0.40000000000000036  C 26.912 0.40000000000000036  27.6 1.072  27.6 2  C 27.6 2.928000000000001  26.912000000000003 3.5999999999999996  25.968 3.5999999999999996  Z M 25.968 11.600000000000001  L 2.032 11.600000000000001  C 1.088 11.600000000000001  0.40000000000000036 10.928  0.40000000000000036 10  C 0.40000000000000036 9.072  1.088 8.4  2.032 8.4  L 25.968 8.4  C 26.912 8.4  27.6 9.072000000000001  27.6 10  C 27.6 10.927999999999997  26.912000000000003 11.600000000000001  25.968 11.600000000000001  Z M 25.968 19.6  L 2.032 19.6  C 1.088 19.6  0.40000000000000036 18.928  0.40000000000000036 18  C 0.40000000000000036 17.072  1.088 16.4  2.032 16  L 25.968 16  C 26.912 16.4  27.6 17.072  27.6 18  C 27.6 18.928  26.912000000000003 19.6  25.968 19.6  Z " fill-rule="evenodd" />
    </mask>
  </defs>
  <g>
    <path d="M 25.968 3.5999999999999996  L 2.032 3.5999999999999996  C 1.088 3.5999999999999996  0.40000000000000036 2.927999999999999  0.40000000000000036 2  C 0.40000000000000036 1.072000000000001  1.088 0.40000000000000036  2.032 0.40000000000000036  L 25.968 0.40000000000000036  C 26.912 0.40000000000000036  27.6 1.072  27.6 2  C 27.6 2.928000000000001  26.912000000000003 3.5999999999999996  25.968 3.5999999999999996  Z M 25.968 11.600000000000001  L 2.032 11.600000000000001  C 1.088 11.600000000000001  0.40000000000000036 10.928  0.40000000000000036 10  C 0.40000000000000036 9.072  1.088 8.4  2.032 8.4  L 25.968 8.4  C 26.912 8.4  27.6 9.072000000000001  27.6 10  C 27.6 10.927999999999997  26.912000000000003 11.600000000000001  25.968 11.600000000000001  Z M 25.968 19.6  L 2.032 19.6  C 1.088 19.6  0.40000000000000036 18.928  0.40000000000000036 18  C 0.40000000000000036 17.072  1.088 16.4  2.032 16  L 25.968 16  C 26.912 16.4  27.6 17.072  27.6 18  C 27.6 18.928  26.912000000000003 19.6  25.968 19.6  Z " fill-rule="nonzero" fill="rgba(0, 0, 0, 1)" stroke="none" class="fill" />
    <path d="M 25.968 3.5999999999999996  L 2.032 3.5999999999999996  C 1.088 3.5999999999999996  0.40000000000000036 2.927999999999999  0.40000000000000036 2  C 0.40000000000000036 1.072000000000001  1.088 0.40000000000000036  2.032 0.40000000000000036  L 25.968 0.40000000000000036  C 26.912 0.40000000000000036  27.6 1.072  27.6 2  C 27.6 2.928000000000001  26.912000000000003 3.5999999999999996  25.968 3.5999999999999996  Z " stroke-width="0" stroke-dasharray="0" stroke="rgba(255, 255, 255, 0)" fill="none" class="stroke" mask="url(#Clip351)" />
    <path d="M 25.968 11.600000000000001  L 2.032 11.600000000000001  C 1.088 11.600000000000001  0.40000000000000036 10.928  0.40000000000000036 10  C 0.40000000000000036 9.072  1.088 8.4  2.032 8.4  L 25.968 8.4  C 26.912 8.4  27.6 9.072000000000001  27.6 10  C 27.6 10.927999999999997  26.912000000000003 11.600000000000001  25.968 11.600000000000001  Z " stroke-width="0" stroke-dasharray="0" stroke="rgba(255, 255, 255, 0)" fill="none" class="stroke" mask="url(#Clip351)" />
    <path d="M 25.968 19.6  L 2.032 19.6  C 1.088 19.6  0.40000000000000036 18.928  0.40000000000000036 18  C 0.40000000000000036 17.072  1.088 16.4  2.032 16  L 25.968 16  C 26.912 16.4  27.6 17.072  27.6 18  C 27.6 18.928  26.912000000000003 19.6  25.968 19.6  Z " stroke-width="0" stroke-dasharray="0" stroke="rgba(255, 255, 255, 0)" fill="none" class="stroke" mask="url(#Clip351)" />
  </g>
</svg>