<?xml version="1.0" encoding="utf-8"?>
<svg version="1.1" xmlns:xlink="http://www.w3.org/1999/xlink" width="4px" height="5px" xmlns="http://www.w3.org/2000/svg">
  <defs>
    <pattern id="BGPattern" patternUnits="userSpaceOnUse" alignment="0 0" imageRepeat="None" />
    <mask fill="white" id="Clip4568">
      <path d="M 2.189499999999999 4.934099999999997  C 2.4262303729573764 3.5516627246570422  2.9004998399766384 2.220642957072169  3.5913000000000004 1  L 1.8599999999999994 0  C 1.0526953998024249 1.4227921279218165  0.49840634140514695 2.974882696033152  0.2218 4.587199999999999  L 2.189499999999999 4.934099999999997  Z " fill-rule="evenodd" />
    </mask>
  </defs>
  <g transform="matrix(1 0 0 1 -2 -9 )">
    <path d="M 2.189499999999999 4.934099999999997  C 2.4262303729573764 3.5516627246570422  2.9004998399766384 2.220642957072169  3.5913000000000004 1  L 1.8599999999999994 0  C 1.0526953998024249 1.4227921279218165  0.49840634140514695 2.974882696033152  0.2218 4.587199999999999  L 2.189499999999999 4.934099999999997  Z " fill-rule="nonzero" fill="rgba(0, 0, 0, 1)" stroke="none" transform="matrix(1 0 0 1 2 9 )" class="fill" />
    <path d="M 2.189499999999999 4.934099999999997  C 2.4262303729573764 3.5516627246570422  2.9004998399766384 2.220642957072169  3.5913000000000004 1  L 1.8599999999999994 0  C 1.0526953998024249 1.4227921279218165  0.49840634140514695 2.974882696033152  0.2218 4.587199999999999  L 2.189499999999999 4.934099999999997  Z " stroke-width="0" stroke-dasharray="0" stroke="rgba(255, 255, 255, 0)" fill="none" transform="matrix(1 0 0 1 2 9 )" class="stroke" mask="url(#Clip4568)" />
  </g>
</svg>