<?xml version="1.0" encoding="utf-8"?>
<svg version="1.1" xmlns:xlink="http://www.w3.org/1999/xlink" width="28px" height="29px" xmlns="http://www.w3.org/2000/svg">
  <defs>
    <pattern id="BGPattern" patternUnits="userSpaceOnUse" alignment="0 0" imageRepeat="None" />
    <mask fill="white" id="Clip4570">
      <path d="M 19.3931 26.919999999999998  C 24.605528852173176 24.74369980330742  27.999783099606876 19.648512816489465  28 14  C 28 6.268013502368891  21.73198649763111 0  14 0  L 13.999999999999998 1.9999999999999996  C 14.002197248673482 1.9999987923499996  14.004394497630532 1.9999981885249682  14.006591746635886 1.9999981885249682  C 20.63030843678154 1.9999981885249682  25.999891746635885 7.369581498379312  25.999891746635885 13.993298188524966  C 25.999891746635885 19.058353545110645  22.817927085837326 23.577368315324808  18.0493 25.2847  C 17.8811 25.3447  17.7153 25.4141  17.5449 25.4668  C 17.293699999999998 25.5439  17.034899999999997 25.602999999999998  16.7766 25.664099999999998  C 16.650399999999998 25.6941  16.5266 25.733399999999996  16.3994 25.759299999999996  C 16.1086 25.818399999999997  15.811000000000002 25.856899999999996  15.513200000000001 25.894499999999997  C 15.413200000000002 25.906699999999997  15.314900000000002 25.928699999999996  15.214400000000001 25.938499999999998  C 10.371154779697825 26.430693345243128  5.71037645211095 23.948413309216413  3.4160000000000004 19.6548  C 3.3496000000000006 19.527800000000003  3.2830000000000004 19.401400000000002  3.220700000000001 19.270500000000002  C 3.1660000000000004 19.1582  3.114700000000001 19.0435  3.0635000000000012 18.929200000000005  C 2.6592056733627016 17.990166350219944  2.3660501870710595 17.007097030877667  2.1900000000000004 16  L 0.2223000000000006 16.413099999999996  C 0.33733350131194406 17.052208048642466  0.4969568410072763 17.682481323361614  0.7000000000000002 18.2993  L 0.6749 18.307599999999997  C 2.5333755228257013 24.094431751778508  7.922076399290433 28.01406045062856  14 28  C 14.4756 28.000000000000004  14.94726666666667 27.976233333333337  15.415 27.9287  C 15.55 27.915  15.680399999999999 27.886699999999998  15.814499999999999 27.8687  C 16.1431 27.8263  16.471899999999998 27.7848  16.7959 27.7193  C 16.9759 27.6827  17.1492 27.6285  17.3267 27.5855  C 17.5952 27.5196  17.865 27.4605  18.1294 27.379  C 18.375700000000002 27.3028  18.6125 27.2066  18.852800000000002 27.117800000000003  C 19.0328 27.0514  19.2163 26.996700000000004  19.394000000000002 26.922500000000003  L 19.3931 26.919999999999998  Z " fill-rule="evenodd" />
    </mask>
  </defs>
  <g transform="matrix(1 0 0 1 -2 -2 )">
    <path d="M 19.3931 26.919999999999998  C 24.605528852173176 24.74369980330742  27.999783099606876 19.648512816489465  28 14  C 28 6.268013502368891  21.73198649763111 0  14 0  L 13.999999999999998 1.9999999999999996  C 14.002197248673482 1.9999987923499996  14.004394497630532 1.9999981885249682  14.006591746635886 1.9999981885249682  C 20.63030843678154 1.9999981885249682  25.999891746635885 7.369581498379312  25.999891746635885 13.993298188524966  C 25.999891746635885 19.058353545110645  22.817927085837326 23.577368315324808  18.0493 25.2847  C 17.8811 25.3447  17.7153 25.4141  17.5449 25.4668  C 17.293699999999998 25.5439  17.034899999999997 25.602999999999998  16.7766 25.664099999999998  C 16.650399999999998 25.6941  16.5266 25.733399999999996  16.3994 25.759299999999996  C 16.1086 25.818399999999997  15.811000000000002 25.856899999999996  15.513200000000001 25.894499999999997  C 15.413200000000002 25.906699999999997  15.314900000000002 25.928699999999996  15.214400000000001 25.938499999999998  C 10.371154779697825 26.430693345243128  5.71037645211095 23.948413309216413  3.4160000000000004 19.6548  C 3.3496000000000006 19.527800000000003  3.2830000000000004 19.401400000000002  3.220700000000001 19.270500000000002  C 3.1660000000000004 19.1582  3.114700000000001 19.0435  3.0635000000000012 18.929200000000005  C 2.6592056733627016 17.990166350219944  2.3660501870710595 17.007097030877667  2.1900000000000004 16  L 0.2223000000000006 16.413099999999996  C 0.33733350131194406 17.052208048642466  0.4969568410072763 17.682481323361614  0.7000000000000002 18.2993  L 0.6749 18.307599999999997  C 2.5333755228257013 24.094431751778508  7.922076399290433 28.01406045062856  14 28  C 14.4756 28.000000000000004  14.94726666666667 27.976233333333337  15.415 27.9287  C 15.55 27.915  15.680399999999999 27.886699999999998  15.814499999999999 27.8687  C 16.1431 27.8263  16.471899999999998 27.7848  16.7959 27.7193  C 16.9759 27.6827  17.1492 27.6285  17.3267 27.5855  C 17.5952 27.5196  17.865 27.4605  18.1294 27.379  C 18.375700000000002 27.3028  18.6125 27.2066  18.852800000000002 27.117800000000003  C 19.0328 27.0514  19.2163 26.996700000000004  19.394000000000002 26.922500000000003  L 19.3931 26.919999999999998  Z " fill-rule="nonzero" fill="rgba(0, 0, 0, 1)" stroke="none" transform="matrix(1 0 0 1 2 2 )" class="fill" />
    <path d="M 19.3931 26.919999999999998  C 24.605528852173176 24.74369980330742  27.999783099606876 19.648512816489465  28 14  C 28 6.268013502368891  21.73198649763111 0  14 0  L 13.999999999999998 1.9999999999999996  C 14.002197248673482 1.9999987923499996  14.004394497630532 1.9999981885249682  14.006591746635886 1.9999981885249682  C 20.63030843678154 1.9999981885249682  25.999891746635885 7.369581498379312  25.999891746635885 13.993298188524966  C 25.999891746635885 19.058353545110645  22.817927085837326 23.577368315324808  18.0493 25.2847  C 17.8811 25.3447  17.7153 25.4141  17.5449 25.4668  C 17.293699999999998 25.5439  17.034899999999997 25.602999999999998  16.7766 25.664099999999998  C 16.650399999999998 25.6941  16.5266 25.733399999999996  16.3994 25.759299999999996  C 16.1086 25.818399999999997  15.811000000000002 25.856899999999996  15.513200000000001 25.894499999999997  C 15.413200000000002 25.906699999999997  15.314900000000002 25.928699999999996  15.214400000000001 25.938499999999998  C 10.371154779697825 26.430693345243128  5.71037645211095 23.948413309216413  3.4160000000000004 19.6548  C 3.3496000000000006 19.527800000000003  3.2830000000000004 19.401400000000002  3.220700000000001 19.270500000000002  C 3.1660000000000004 19.1582  3.114700000000001 19.0435  3.0635000000000012 18.929200000000005  C 2.6592056733627016 17.990166350219944  2.3660501870710595 17.007097030877667  2.1900000000000004 16  L 0.2223000000000006 16.413099999999996  C 0.33733350131194406 17.052208048642466  0.4969568410072763 17.682481323361614  0.7000000000000002 18.2993  L 0.6749 18.307599999999997  C 2.5333755228257013 24.094431751778508  7.922076399290433 28.01406045062856  14 28  C 14.4756 28.000000000000004  14.94726666666667 27.976233333333337  15.415 27.9287  C 15.55 27.915  15.680399999999999 27.886699999999998  15.814499999999999 27.8687  C 16.1431 27.8263  16.471899999999998 27.7848  16.7959 27.7193  C 16.9759 27.6827  17.1492 27.6285  17.3267 27.5855  C 17.5952 27.5196  17.865 27.4605  18.1294 27.379  C 18.375700000000002 27.3028  18.6125 27.2066  18.852800000000002 27.117800000000003  C 19.0328 27.0514  19.2163 26.996700000000004  19.394000000000002 26.922500000000003  L 19.3931 26.919999999999998  Z " stroke-width="0" stroke-dasharray="0" stroke="rgba(255, 255, 255, 0)" fill="none" transform="matrix(1 0 0 1 2 2 )" class="stroke" mask="url(#Clip4570)" />
  </g>
</svg>