<?xml version="1.0" encoding="utf-8"?>
<svg version="1.1" xmlns:xlink="http://www.w3.org/1999/xlink" width="25px" height="24px" xmlns="http://www.w3.org/2000/svg">
  <defs>
    <pattern id="BGPattern" patternUnits="userSpaceOnUse" alignment="0 0" imageRepeat="None" />
    <mask fill="white" id="Clip5749">
      <path d="M 13 23.5  C 13.437540256037082 23.21098127343329  13.871081327149948 22.915953324233072  14.300500000000001 22.615000000000002  C 34.2625 8.632000000000001  21.485500000000002 -2.229499999999998  14.396500000000001 1.8790000000000004  L 11.5 5.5  L 13.750000000000002 11.5  L 10.75 16  L 13 23.5  Z M 11.9725 22.8055  L 11.971 22.805500000000002  C 11.195512369778376 22.26753203131165  10.43425122936492 21.709340551218737  9.687999999999999 21.131500000000003  C -6.615500000000001 8.455  3.763 -1.2080000000000002  10.681 1.4395  C 11.152 1.6195  11.608 1.858  12.036999999999999 2.1550000000000002  L 9.25 5.5  L 11.5 11.5  L 9.25 16  L 11.9725 22.8055  Z M 23.176 6.218500000000002  C 24.211 9.127  23.092 14.5  13.846 21.1  L 13.846 21.098499999999998  L 12.389500000000002 16.243  L 14.998000000000001 12.331  C 15.265552563584043 11.929457704432396  15.323605898908706 11.42372384093101  15.154 10.972  L 13.203999999999999 5.7700000000000005  L 15.3805 3.0520000000000005  C 18.170499999999997 1.63  22.0465 3.0549999999999997  23.176 6.218500000000002  Z M 2.962 5.872  C 1.8955 8.3125  2.3425000000000002 12.6955  8.521 18.2155  L 8.5195 18.2155  L 7.856500000000001 16.5565  C 7.697624293744249 16.15896228617209  7.716182154397854 15.712481991623545  7.907500000000001 15.3295  L 9.865 11.4145  L 7.846 6.0265  C 7.656781764001019 5.521716381177268  7.752987385793005 4.954217743106683  8.098 4.54  L 9.646 2.6815000000000007  C 7.114 2.0065000000000004  4.096 3.277  2.962 5.872  Z " fill-rule="evenodd" />
    </mask>
  </defs>
  <g>
    <path d="M 13 23.5  C 13.437540256037082 23.21098127343329  13.871081327149948 22.915953324233072  14.300500000000001 22.615000000000002  C 34.2625 8.632000000000001  21.485500000000002 -2.229499999999998  14.396500000000001 1.8790000000000004  L 11.5 5.5  L 13.750000000000002 11.5  L 10.75 16  L 13 23.5  Z M 11.9725 22.8055  L 11.971 22.805500000000002  C 11.195512369778376 22.26753203131165  10.43425122936492 21.709340551218737  9.687999999999999 21.131500000000003  C -6.615500000000001 8.455  3.763 -1.2080000000000002  10.681 1.4395  C 11.152 1.6195  11.608 1.858  12.036999999999999 2.1550000000000002  L 9.25 5.5  L 11.5 11.5  L 9.25 16  L 11.9725 22.8055  Z M 23.176 6.218500000000002  C 24.211 9.127  23.092 14.5  13.846 21.1  L 13.846 21.098499999999998  L 12.389500000000002 16.243  L 14.998000000000001 12.331  C 15.265552563584043 11.929457704432396  15.323605898908706 11.42372384093101  15.154 10.972  L 13.203999999999999 5.7700000000000005  L 15.3805 3.0520000000000005  C 18.170499999999997 1.63  22.0465 3.0549999999999997  23.176 6.218500000000002  Z M 2.962 5.872  C 1.8955 8.3125  2.3425000000000002 12.6955  8.521 18.2155  L 8.5195 18.2155  L 7.856500000000001 16.5565  C 7.697624293744249 16.15896228617209  7.716182154397854 15.712481991623545  7.907500000000001 15.3295  L 9.865 11.4145  L 7.846 6.0265  C 7.656781764001019 5.521716381177268  7.752987385793005 4.954217743106683  8.098 4.54  L 9.646 2.6815000000000007  C 7.114 2.0065000000000004  4.096 3.277  2.962 5.872  Z " fill-rule="nonzero" fill="rgba(0, 0, 0, 1)" stroke="none" class="fill" />
    <path d="M 13 23.5  C 13.437540256037082 23.21098127343329  13.871081327149948 22.915953324233072  14.300500000000001 22.615000000000002  C 34.2625 8.632000000000001  21.485500000000002 -2.229499999999998  14.396500000000001 1.8790000000000004  L 11.5 5.5  L 13.750000000000002 11.5  L 10.75 16  L 13 23.5  Z " stroke-width="0" stroke-dasharray="0" stroke="rgba(255, 255, 255, 0)" fill="none" class="stroke" mask="url(#Clip5749)" />
    <path d="M 11.9725 22.8055  L 11.971 22.805500000000002  C 11.195512369778376 22.26753203131165  10.43425122936492 21.709340551218737  9.687999999999999 21.131500000000003  C -6.615500000000001 8.455  3.763 -1.2080000000000002  10.681 1.4395  C 11.152 1.6195  11.608 1.858  12.036999999999999 2.1550000000000002  L 9.25 5.5  L 11.5 11.5  L 9.25 16  L 11.9725 22.8055  Z " stroke-width="0" stroke-dasharray="0" stroke="rgba(255, 255, 255, 0)" fill="none" class="stroke" mask="url(#Clip5749)" />
    <path d="M 23.176 6.218500000000002  C 24.211 9.127  23.092 14.5  13.846 21.1  L 13.846 21.098499999999998  L 12.389500000000002 16.243  L 14.998000000000001 12.331  C 15.265552563584043 11.929457704432396  15.323605898908706 11.42372384093101  15.154 10.972  L 13.203999999999999 5.7700000000000005  L 15.3805 3.0520000000000005  C 18.170499999999997 1.63  22.0465 3.0549999999999997  23.176 6.218500000000002  Z " stroke-width="0" stroke-dasharray="0" stroke="rgba(255, 255, 255, 0)" fill="none" class="stroke" mask="url(#Clip5749)" />
    <path d="M 2.962 5.872  C 1.8955 8.3125  2.3425000000000002 12.6955  8.521 18.2155  L 8.5195 18.2155  L 7.856500000000001 16.5565  C 7.697624293744249 16.15896228617209  7.716182154397854 15.712481991623545  7.907500000000001 15.3295  L 9.865 11.4145  L 7.846 6.0265  C 7.656781764001019 5.521716381177268  7.752987385793005 4.954217743106683  8.098 4.54  L 9.646 2.6815000000000007  C 7.114 2.0065000000000004  4.096 3.277  2.962 5.872  Z " stroke-width="0" stroke-dasharray="0" stroke="rgba(255, 255, 255, 0)" fill="none" class="stroke" mask="url(#Clip5749)" />
  </g>
</svg>