<?xml version="1.0" encoding="utf-8"?>
<svg version="1.1" xmlns:xlink="http://www.w3.org/1999/xlink" width="24px" height="24px" xmlns="http://www.w3.org/2000/svg">
  <defs>
    <pattern id="BGPattern" patternUnits="userSpaceOnUse" alignment="0 0" imageRepeat="None" />
    <mask fill="white" id="Clip5798">
      <path d="M 0 21  L 0 3  C 0 1.3431457505076196  1.3431457505076196 0  3 0  L 21 0  C 22.65685424949238 0  24 1.3431457505076196  24 3  L 24 21  C 24 22.65685424949238  22.65685424949238 24  21 24  L 3 24  C 1.3431457505076196 24  0 22.65685424949238  0 21  Z M 11.893499999999998 16.939500000000002  L 13.395 9.882  L 9.959999999999999 10.3125  L 9.837 10.8825  L 10.512 11.007  C 10.953 11.112  11.040000000000001 11.271  10.944 11.7105  L 9.837 16.9125  C 9.546 18.258000000000003  9.9945 18.891000000000002  11.049 18.891000000000002  C 11.866499999999998 18.891000000000002  12.816 18.513  13.2465 17.994  L 13.378499999999999 17.37  C 13.078499999999998 17.634  12.6405 17.739  12.349499999999999 17.739  C 11.936999999999998 17.739  11.786999999999999 17.4495  11.893499999999998 16.939500000000002  Z M 10.5 6.75  C 10.5 7.57842712474619  11.17157287525381 8.25  12 8.25  C 12.82842712474619 8.25  13.5 7.57842712474619  13.5 6.75  C 13.5 5.92157287525381  12.82842712474619 5.25  12 5.25  C 11.17157287525381 5.25  10.5 5.92157287525381  10.5 6.75  Z " fill-rule="evenodd" />
    </mask>
  </defs>
  <g>
    <path d="M 0 21  L 0 3  C 0 1.3431457505076196  1.3431457505076196 0  3 0  L 21 0  C 22.65685424949238 0  24 1.3431457505076196  24 3  L 24 21  C 24 22.65685424949238  22.65685424949238 24  21 24  L 3 24  C 1.3431457505076196 24  0 22.65685424949238  0 21  Z M 11.893499999999998 16.939500000000002  L 13.395 9.882  L 9.959999999999999 10.3125  L 9.837 10.8825  L 10.512 11.007  C 10.953 11.112  11.040000000000001 11.271  10.944 11.7105  L 9.837 16.9125  C 9.546 18.258000000000003  9.9945 18.891000000000002  11.049 18.891000000000002  C 11.866499999999998 18.891000000000002  12.816 18.513  13.2465 17.994  L 13.378499999999999 17.37  C 13.078499999999998 17.634  12.6405 17.739  12.349499999999999 17.739  C 11.936999999999998 17.739  11.786999999999999 17.4495  11.893499999999998 16.939500000000002  Z M 10.5 6.75  C 10.5 7.57842712474619  11.17157287525381 8.25  12 8.25  C 12.82842712474619 8.25  13.5 7.57842712474619  13.5 6.75  C 13.5 5.92157287525381  12.82842712474619 5.25  12 5.25  C 11.17157287525381 5.25  10.5 5.92157287525381  10.5 6.75  Z " fill-rule="nonzero" fill="rgba(0, 0, 0, 1)" stroke="none" class="fill" />
    <path d="M 0 21  L 0 3  C 0 1.3431457505076196  1.3431457505076196 0  3 0  L 21 0  C 22.65685424949238 0  24 1.3431457505076196  24 3  L 24 21  C 24 22.65685424949238  22.65685424949238 24  21 24  L 3 24  C 1.3431457505076196 24  0 22.65685424949238  0 21  Z " stroke-width="0" stroke-dasharray="0" stroke="rgba(255, 255, 255, 0)" fill="none" class="stroke" mask="url(#Clip5798)" />
    <path d="M 11.893499999999998 16.939500000000002  L 13.395 9.882  L 9.959999999999999 10.3125  L 9.837 10.8825  L 10.512 11.007  C 10.953 11.112  11.040000000000001 11.271  10.944 11.7105  L 9.837 16.9125  C 9.546 18.258000000000003  9.9945 18.891000000000002  11.049 18.891000000000002  C 11.866499999999998 18.891000000000002  12.816 18.513  13.2465 17.994  L 13.378499999999999 17.37  C 13.078499999999998 17.634  12.6405 17.739  12.349499999999999 17.739  C 11.936999999999998 17.739  11.786999999999999 17.4495  11.893499999999998 16.939500000000002  Z " stroke-width="0" stroke-dasharray="0" stroke="rgba(255, 255, 255, 0)" fill="none" class="stroke" mask="url(#Clip5798)" />
    <path d="M 10.5 6.75  C 10.5 7.57842712474619  11.17157287525381 8.25  12 8.25  C 12.82842712474619 8.25  13.5 7.57842712474619  13.5 6.75  C 13.5 5.92157287525381  12.82842712474619 5.25  12 5.25  C 11.17157287525381 5.25  10.5 5.92157287525381  10.5 6.75  Z " stroke-width="0" stroke-dasharray="0" stroke="rgba(255, 255, 255, 0)" fill="none" class="stroke" mask="url(#Clip5798)" />
  </g>
</svg>