<?xml version="1.0" encoding="utf-8"?>
<svg version="1.1" xmlns:xlink="http://www.w3.org/1999/xlink" width="48px" height="50px" xmlns="http://www.w3.org/2000/svg">
  <defs>
    <pattern id="BGPattern" patternUnits="userSpaceOnUse" alignment="0 0" imageRepeat="None" />
    <mask fill="white" id="Clip1010">
      <path d="M 47 0  L 3.359375 0  L 0 8.582589285714278  L 0 43  L 11.941964285714278 43  L 11.941964285714278 50  L 18.660714285714306 50  L 25 43.66071428571428  L 34.709821428571445 43.66071428571428  L 47 30.602678571428555  L 47 0  Z M 43 5  L 43 28.359374999999996  L 35.82589285714289 35  L 23.883928571428584 35  L 17.54464285714286 42.165178571428584  L 17.54464285714286 35  L 8 35  L 8 5  L 43 5  Z M 31 13.058035714285724  L 35 13.058035714285724  L 35 26.104910714285722  L 31 26.104910714285722  L 31 13.058035714285724  Z M 20 13.058035714285724  L 24 13.058035714285724  L 24 26.104910714285722  L 20 26.104910714285722  L 20 13.058035714285724  Z " fill-rule="evenodd" />
    </mask>
  </defs>
  <g>
    <path d="M 47 0  L 3.359375 0  L 0 8.582589285714278  L 0 43  L 11.941964285714278 43  L 11.941964285714278 50  L 18.660714285714306 50  L 25 43.66071428571428  L 34.709821428571445 43.66071428571428  L 47 30.602678571428555  L 47 0  Z M 43 5  L 43 28.359374999999996  L 35.82589285714289 35  L 23.883928571428584 35  L 17.54464285714286 42.165178571428584  L 17.54464285714286 35  L 8 35  L 8 5  L 43 5  Z M 31 13.058035714285724  L 35 13.058035714285724  L 35 26.104910714285722  L 31 26.104910714285722  L 31 13.058035714285724  Z M 20 13.058035714285724  L 24 13.058035714285724  L 24 26.104910714285722  L 20 26.104910714285722  L 20 13.058035714285724  Z " fill-rule="nonzero" fill="rgba(0, 0, 0, 1)" stroke="none" class="fill" />
    <path d="M 47 0  L 3.359375 0  L 0 8.582589285714278  L 0 43  L 11.941964285714278 43  L 11.941964285714278 50  L 18.660714285714306 50  L 25 43.66071428571428  L 34.709821428571445 43.66071428571428  L 47 30.602678571428555  L 47 0  Z " stroke-width="0" stroke-dasharray="0" stroke="rgba(255, 255, 255, 0)" fill="none" class="stroke" mask="url(#Clip1010)" />
    <path d="M 43 5  L 43 28.359374999999996  L 35.82589285714289 35  L 23.883928571428584 35  L 17.54464285714286 42.165178571428584  L 17.54464285714286 35  L 8 35  L 8 5  L 43 5  Z " stroke-width="0" stroke-dasharray="0" stroke="rgba(255, 255, 255, 0)" fill="none" class="stroke" mask="url(#Clip1010)" />
    <path d="M 31 13.058035714285724  L 35 13.058035714285724  L 35 26.104910714285722  L 31 26.104910714285722  L 31 13.058035714285724  Z " stroke-width="0" stroke-dasharray="0" stroke="rgba(255, 255, 255, 0)" fill="none" class="stroke" mask="url(#Clip1010)" />
    <path d="M 20 13.058035714285724  L 24 13.058035714285724  L 24 26.104910714285722  L 20 26.104910714285722  L 20 13.058035714285724  Z " stroke-width="0" stroke-dasharray="0" stroke="rgba(255, 255, 255, 0)" fill="none" class="stroke" mask="url(#Clip1010)" />
  </g>
</svg>