<?xml version="1.0" encoding="utf-8"?>
<svg version="1.1" xmlns:xlink="http://www.w3.org/1999/xlink" width="27px" height="28px" xmlns="http://www.w3.org/2000/svg">
  <defs>
    <pattern id="BGPattern" patternUnits="userSpaceOnUse" alignment="0 0" imageRepeat="None" />
    <mask fill="white" id="Clip3993">
      <path d="M 26.03272059526044 22.43108258181301  C 26.03272059526044 22.240253289703908  26.02179585696464 22.04958048250291  26 21.86  L 24 21.86  C 24.000000000245663 22.809958839723492  23.229929769954627 23.58002907001453  22.280000000245664 23.58002907001453  C 22.276666645703873 23.58002907001453  22.273333298204196 23.580019379968743  22.27 23.58  C 21.12 23.58  20.45 22.72  19.689999999999998 21.58  C 22.69356389483261 19.52567897908781  24.486803119789933 16.118898823114606  24.479999999999997 12.479999999999999  C 24.569999999999997 5.289999999999998  18.629999999999995 0.5899999999999981  12.309999999999997 0.5899999999999981  C 5.989999999999998 0.5899999999999981  0 5.37  0 12.37  C 0 19.369999999999997  6 24.16  12.17 24.16  C 13.211226044227853 24.15009016878269  14.24544166227702 23.98838870407142  15.239999999999998 23.68  C 16.389999999999997 25.79  17.83 27.42  20.699999999999996 27.419999999999998  C 20.810753103987462 27.427386339679884  20.921721459873154 27.43108258181301  21.03272059526044 27.43108258181301  C 23.794144344414406 27.43108258181301  26.03272059526044 25.192506330966975  26.03272059526044 22.43108258181301  Z M 17.830000000000002 18.410000000000004  L 17.859999999999996 18.41  C 16.717242850103037 16.42593468261195  14.589386825018721 15.216577661161153  12.299999999999999 15.249999999999998  C 10.959853613892394 15.204645687101504  9.643137941302708 15.60951815327213  8.56 16.4  L 9.200000000000001 18  C 9.478909961826176 17.918081373993548  9.769734909523095 17.884264519610184  10.059999999999999 17.9  C 11.879999999999999 17.9  13.059999999999999 19.43  14.18 21.539999999999996  C 13.553956609709852 21.684012309952532  12.912145611066597 21.747857383116  12.27 21.73  C 7.859999999999999 21.76  6 18.6  6 12.47  C 6 6.34  7.91 3.17  12.23 3.17  C 16.55 3.17  18.55 6.33  18.550000000000004 12.470000000000002  C 18.59922673388572 14.474434311792944  18.356688636898383 16.475373611938466  17.830000000000002 18.410000000000004  Z " fill-rule="evenodd" />
    </mask>
  </defs>
  <g transform="matrix(1 0 0 1 -3 -2 )">
    <path d="M 26.03272059526044 22.43108258181301  C 26.03272059526044 22.240253289703908  26.02179585696464 22.04958048250291  26 21.86  L 24 21.86  C 24.000000000245663 22.809958839723492  23.229929769954627 23.58002907001453  22.280000000245664 23.58002907001453  C 22.276666645703873 23.58002907001453  22.273333298204196 23.580019379968743  22.27 23.58  C 21.12 23.58  20.45 22.72  19.689999999999998 21.58  C 22.69356389483261 19.52567897908781  24.486803119789933 16.118898823114606  24.479999999999997 12.479999999999999  C 24.569999999999997 5.289999999999998  18.629999999999995 0.5899999999999981  12.309999999999997 0.5899999999999981  C 5.989999999999998 0.5899999999999981  0 5.37  0 12.37  C 0 19.369999999999997  6 24.16  12.17 24.16  C 13.211226044227853 24.15009016878269  14.24544166227702 23.98838870407142  15.239999999999998 23.68  C 16.389999999999997 25.79  17.83 27.42  20.699999999999996 27.419999999999998  C 20.810753103987462 27.427386339679884  20.921721459873154 27.43108258181301  21.03272059526044 27.43108258181301  C 23.794144344414406 27.43108258181301  26.03272059526044 25.192506330966975  26.03272059526044 22.43108258181301  Z M 17.830000000000002 18.410000000000004  L 17.859999999999996 18.41  C 16.717242850103037 16.42593468261195  14.589386825018721 15.216577661161153  12.299999999999999 15.249999999999998  C 10.959853613892394 15.204645687101504  9.643137941302708 15.60951815327213  8.56 16.4  L 9.200000000000001 18  C 9.478909961826176 17.918081373993548  9.769734909523095 17.884264519610184  10.059999999999999 17.9  C 11.879999999999999 17.9  13.059999999999999 19.43  14.18 21.539999999999996  C 13.553956609709852 21.684012309952532  12.912145611066597 21.747857383116  12.27 21.73  C 7.859999999999999 21.76  6 18.6  6 12.47  C 6 6.34  7.91 3.17  12.23 3.17  C 16.55 3.17  18.55 6.33  18.550000000000004 12.470000000000002  C 18.59922673388572 14.474434311792944  18.356688636898383 16.475373611938466  17.830000000000002 18.410000000000004  Z " fill-rule="nonzero" fill="rgba(0, 0, 0, 1)" stroke="none" transform="matrix(1 0 0 1 3 2 )" class="fill" />
    <path d="M 26.03272059526044 22.43108258181301  C 26.03272059526044 22.240253289703908  26.02179585696464 22.04958048250291  26 21.86  L 24 21.86  C 24.000000000245663 22.809958839723492  23.229929769954627 23.58002907001453  22.280000000245664 23.58002907001453  C 22.276666645703873 23.58002907001453  22.273333298204196 23.580019379968743  22.27 23.58  C 21.12 23.58  20.45 22.72  19.689999999999998 21.58  C 22.69356389483261 19.52567897908781  24.486803119789933 16.118898823114606  24.479999999999997 12.479999999999999  C 24.569999999999997 5.289999999999998  18.629999999999995 0.5899999999999981  12.309999999999997 0.5899999999999981  C 5.989999999999998 0.5899999999999981  0 5.37  0 12.37  C 0 19.369999999999997  6 24.16  12.17 24.16  C 13.211226044227853 24.15009016878269  14.24544166227702 23.98838870407142  15.239999999999998 23.68  C 16.389999999999997 25.79  17.83 27.42  20.699999999999996 27.419999999999998  C 20.810753103987462 27.427386339679884  20.921721459873154 27.43108258181301  21.03272059526044 27.43108258181301  C 23.794144344414406 27.43108258181301  26.03272059526044 25.192506330966975  26.03272059526044 22.43108258181301  Z " stroke-width="0" stroke-dasharray="0" stroke="rgba(255, 255, 255, 0)" fill="none" transform="matrix(1 0 0 1 3 2 )" class="stroke" mask="url(#Clip3993)" />
    <path d="M 17.830000000000002 18.410000000000004  L 17.859999999999996 18.41  C 16.717242850103037 16.42593468261195  14.589386825018721 15.216577661161153  12.299999999999999 15.249999999999998  C 10.959853613892394 15.204645687101504  9.643137941302708 15.60951815327213  8.56 16.4  L 9.200000000000001 18  C 9.478909961826176 17.918081373993548  9.769734909523095 17.884264519610184  10.059999999999999 17.9  C 11.879999999999999 17.9  13.059999999999999 19.43  14.18 21.539999999999996  C 13.553956609709852 21.684012309952532  12.912145611066597 21.747857383116  12.27 21.73  C 7.859999999999999 21.76  6 18.6  6 12.47  C 6 6.34  7.91 3.17  12.23 3.17  C 16.55 3.17  18.55 6.33  18.550000000000004 12.470000000000002  C 18.59922673388572 14.474434311792944  18.356688636898383 16.475373611938466  17.830000000000002 18.410000000000004  Z " stroke-width="0" stroke-dasharray="0" stroke="rgba(255, 255, 255, 0)" fill="none" transform="matrix(1 0 0 1 3 2 )" class="stroke" mask="url(#Clip3993)" />
  </g>
</svg>