<?xml version="1.0" encoding="utf-8"?>
<svg version="1.1" xmlns:xlink="http://www.w3.org/1999/xlink" width="50px" height="50px" xmlns="http://www.w3.org/2000/svg">
  <defs>
    <pattern id="BGPattern" patternUnits="userSpaceOnUse" alignment="0 0" imageRepeat="None" />
    <mask fill="white" id="Clip665">
      <path d="M 17.433035714285715 26.060267857142833  C 19.50892857142857 26.071428571428555  20.814732142857146 26.93080357142856  20.81473214285714 29.129464285714278  C 20.81473214285714 31.283482142857167  19.25223214285714 31.964285714285722  17.332589285714292 31.964285714285722  L 12.299107142857146 31.964285714285722  L 12.299107142857146 26.060267857142833  L 17.433035714285715 26.060267857142833  Z M 17.07589285714286 22.5  C 18.761160714285708 22.5  19.955357142857146 21.763392857142833  19.955357142857146 19.944196428571445  C 19.955357142857146 17.96875  18.426339285714292 17.5  16.729910714285715 17.5  L 12.310267857142861 17.5  L 12.310267857142861 22.5  L 17.07589285714286 22.5  Z M 38.125 25.848214285714278  C 37.93526785714286 23.78348214285711  36.86383928571429 22.53348214285711  34.72098214285714 22.53348214285711  C 32.67857142857143 22.53348214285711  31.316964285714295 23.805803571428555  31.183035714285722 25.848214285714278  L 38.125 25.848214285714278  Z M 44.64285714285714 0  C 47.60044642857143 0  50 2.399553571428555  50 5.357142857142833  L 50 44.64285714285717  C 50 47.600446428571445  47.60044642857143 50  44.64285714285714 50  L 5.357142857142854 50  C 2.3995535714285694 50  0 47.600446428571445  0 44.64285714285717  L 0 5.357142857142833  C 0 2.399553571428555  2.3995535714285694 0  5.357142857142854 0  L 44.64285714285714 0  Z M 30.32366071428571 14.966517857142833  L 30.32366071428571 17.075892857142833  L 39.00669642857143 17.075892857142833  L 39.00669642857143 14.966517857142833  L 30.32366071428571 14.966517857142833  Z M 17.979910714285708 35.625  C 21.875 35.602678571428555  25.52455357142857 33.73883928571428  25.52455357142857 29.386160714285726  C 25.52455357142857 26.696428571428555  24.25223214285714 24.375  21.61830357142857 23.627232142857167  C 23.53794642857143 22.712053571428555  24.542410714285708 21.651785714285722  24.542410714285708 19.497767857142833  C 24.542410714285708 15.234375  21.36160714285714 14.196428571428555  17.68973214285714 15  L 8 15  L 8 35.625  L 17.979910714285708 35.625  Z M 42.37723214285714 28  C 42.38839285714286 28.281250000000004  42.41071428571428 28.00223214285717  42.41071428571428 27.734375  C 42.41071428571428 23.147321428571445  39.72098214285714 19.319196428571445  34.866071428571416 19.319196428571445  C 30.13392857142857 19.319196428571445  26.93080357142857 22.868303571428555  26.93080357142857 27.533482142857167  C 26.93080357142857 32.366071428571445  29.97767857142857 35.680803571428555  34.866071428571416 35.680803571428555  C 38.57142857142857 35.680803571428555  40.97098214285714 34.01785714285717  42.13169642857143 30.457589285714278  L 38.37053571428572 30.457589285714278  C 37.95758928571429 31.785714285714278  36.29464285714286 32.477678571428555  35 32.477678571428555  C 32.5 32.477678571428555  31.19419642857143 31.015625000000004  31.19419642857143 28  L 42.37723214285714 28  Z " fill-rule="evenodd" />
    </mask>
  </defs>
  <g>
    <path d="M 17.433035714285715 26.060267857142833  C 19.50892857142857 26.071428571428555  20.814732142857146 26.93080357142856  20.81473214285714 29.129464285714278  C 20.81473214285714 31.283482142857167  19.25223214285714 31.964285714285722  17.332589285714292 31.964285714285722  L 12.299107142857146 31.964285714285722  L 12.299107142857146 26.060267857142833  L 17.433035714285715 26.060267857142833  Z M 17.07589285714286 22.5  C 18.761160714285708 22.5  19.955357142857146 21.763392857142833  19.955357142857146 19.944196428571445  C 19.955357142857146 17.96875  18.426339285714292 17.5  16.729910714285715 17.5  L 12.310267857142861 17.5  L 12.310267857142861 22.5  L 17.07589285714286 22.5  Z M 38.125 25.848214285714278  C 37.93526785714286 23.78348214285711  36.86383928571429 22.53348214285711  34.72098214285714 22.53348214285711  C 32.67857142857143 22.53348214285711  31.316964285714295 23.805803571428555  31.183035714285722 25.848214285714278  L 38.125 25.848214285714278  Z M 44.64285714285714 0  C 47.60044642857143 0  50 2.399553571428555  50 5.357142857142833  L 50 44.64285714285717  C 50 47.600446428571445  47.60044642857143 50  44.64285714285714 50  L 5.357142857142854 50  C 2.3995535714285694 50  0 47.600446428571445  0 44.64285714285717  L 0 5.357142857142833  C 0 2.399553571428555  2.3995535714285694 0  5.357142857142854 0  L 44.64285714285714 0  Z M 30.32366071428571 14.966517857142833  L 30.32366071428571 17.075892857142833  L 39.00669642857143 17.075892857142833  L 39.00669642857143 14.966517857142833  L 30.32366071428571 14.966517857142833  Z M 17.979910714285708 35.625  C 21.875 35.602678571428555  25.52455357142857 33.73883928571428  25.52455357142857 29.386160714285726  C 25.52455357142857 26.696428571428555  24.25223214285714 24.375  21.61830357142857 23.627232142857167  C 23.53794642857143 22.712053571428555  24.542410714285708 21.651785714285722  24.542410714285708 19.497767857142833  C 24.542410714285708 15.234375  21.36160714285714 14.196428571428555  17.68973214285714 15  L 8 15  L 8 35.625  L 17.979910714285708 35.625  Z M 42.37723214285714 28  C 42.38839285714286 28.281250000000004  42.41071428571428 28.00223214285717  42.41071428571428 27.734375  C 42.41071428571428 23.147321428571445  39.72098214285714 19.319196428571445  34.866071428571416 19.319196428571445  C 30.13392857142857 19.319196428571445  26.93080357142857 22.868303571428555  26.93080357142857 27.533482142857167  C 26.93080357142857 32.366071428571445  29.97767857142857 35.680803571428555  34.866071428571416 35.680803571428555  C 38.57142857142857 35.680803571428555  40.97098214285714 34.01785714285717  42.13169642857143 30.457589285714278  L 38.37053571428572 30.457589285714278  C 37.95758928571429 31.785714285714278  36.29464285714286 32.477678571428555  35 32.477678571428555  C 32.5 32.477678571428555  31.19419642857143 31.015625000000004  31.19419642857143 28  L 42.37723214285714 28  Z " fill-rule="nonzero" fill="rgba(0, 0, 0, 1)" stroke="none" class="fill" />
    <path d="M 17.433035714285715 26.060267857142833  C 19.50892857142857 26.071428571428555  20.814732142857146 26.93080357142856  20.81473214285714 29.129464285714278  C 20.81473214285714 31.283482142857167  19.25223214285714 31.964285714285722  17.332589285714292 31.964285714285722  L 12.299107142857146 31.964285714285722  L 12.299107142857146 26.060267857142833  L 17.433035714285715 26.060267857142833  Z " stroke-width="0" stroke-dasharray="0" stroke="rgba(255, 255, 255, 0)" fill="none" class="stroke" mask="url(#Clip665)" />
    <path d="M 17.07589285714286 22.5  C 18.761160714285708 22.5  19.955357142857146 21.763392857142833  19.955357142857146 19.944196428571445  C 19.955357142857146 17.96875  18.426339285714292 17.5  16.729910714285715 17.5  L 12.310267857142861 17.5  L 12.310267857142861 22.5  L 17.07589285714286 22.5  Z " stroke-width="0" stroke-dasharray="0" stroke="rgba(255, 255, 255, 0)" fill="none" class="stroke" mask="url(#Clip665)" />
    <path d="M 38.125 25.848214285714278  C 37.93526785714286 23.78348214285711  36.86383928571429 22.53348214285711  34.72098214285714 22.53348214285711  C 32.67857142857143 22.53348214285711  31.316964285714295 23.805803571428555  31.183035714285722 25.848214285714278  L 38.125 25.848214285714278  Z " stroke-width="0" stroke-dasharray="0" stroke="rgba(255, 255, 255, 0)" fill="none" class="stroke" mask="url(#Clip665)" />
    <path d="M 44.64285714285714 0  C 47.60044642857143 0  50 2.399553571428555  50 5.357142857142833  L 50 44.64285714285717  C 50 47.600446428571445  47.60044642857143 50  44.64285714285714 50  L 5.357142857142854 50  C 2.3995535714285694 50  0 47.600446428571445  0 44.64285714285717  L 0 5.357142857142833  C 0 2.399553571428555  2.3995535714285694 0  5.357142857142854 0  L 44.64285714285714 0  Z " stroke-width="0" stroke-dasharray="0" stroke="rgba(255, 255, 255, 0)" fill="none" class="stroke" mask="url(#Clip665)" />
    <path d="M 30.32366071428571 14.966517857142833  L 30.32366071428571 17.075892857142833  L 39.00669642857143 17.075892857142833  L 39.00669642857143 14.966517857142833  L 30.32366071428571 14.966517857142833  Z " stroke-width="0" stroke-dasharray="0" stroke="rgba(255, 255, 255, 0)" fill="none" class="stroke" mask="url(#Clip665)" />
    <path d="M 17.979910714285708 35.625  C 21.875 35.602678571428555  25.52455357142857 33.73883928571428  25.52455357142857 29.386160714285726  C 25.52455357142857 26.696428571428555  24.25223214285714 24.375  21.61830357142857 23.627232142857167  C 23.53794642857143 22.712053571428555  24.542410714285708 21.651785714285722  24.542410714285708 19.497767857142833  C 24.542410714285708 15.234375  21.36160714285714 14.196428571428555  17.68973214285714 15  L 8 15  L 8 35.625  L 17.979910714285708 35.625  Z " stroke-width="0" stroke-dasharray="0" stroke="rgba(255, 255, 255, 0)" fill="none" class="stroke" mask="url(#Clip665)" />
    <path d="M 42.37723214285714 28  C 42.38839285714286 28.281250000000004  42.41071428571428 28.00223214285717  42.41071428571428 27.734375  C 42.41071428571428 23.147321428571445  39.72098214285714 19.319196428571445  34.866071428571416 19.319196428571445  C 30.13392857142857 19.319196428571445  26.93080357142857 22.868303571428555  26.93080357142857 27.533482142857167  C 26.93080357142857 32.366071428571445  29.97767857142857 35.680803571428555  34.866071428571416 35.680803571428555  C 38.57142857142857 35.680803571428555  40.97098214285714 34.01785714285717  42.13169642857143 30.457589285714278  L 38.37053571428572 30.457589285714278  C 37.95758928571429 31.785714285714278  36.29464285714286 32.477678571428555  35 32.477678571428555  C 32.5 32.477678571428555  31.19419642857143 31.015625000000004  31.19419642857143 28  L 42.37723214285714 28  Z " stroke-width="0" stroke-dasharray="0" stroke="rgba(255, 255, 255, 0)" fill="none" class="stroke" mask="url(#Clip665)" />
  </g>
</svg>