<?xml version="1.0" encoding="utf-8"?>
<svg version="1.1" xmlns:xlink="http://www.w3.org/1999/xlink" width="50px" height="39px" xmlns="http://www.w3.org/2000/svg">
  <defs>
    <pattern id="BGPattern" patternUnits="userSpaceOnUse" alignment="0 0" imageRepeat="None" />
    <mask fill="white" id="Clip990">
      <path d="M 41.45129224652089 20.07952286282307  L 49.990059642147116 20.07952286282307  L 49.990059642147116 27.00795228628232  C 49.990059642147116 33.18091451292247  44.990059642147116 38.18091451292247  38.817097415506964 38.18091451292247  C 32.67395626242546 38.18091451292247  27.644135188866812 33.23061630218689  27.644135188866812 27.117296222664038  L 27.644135188866812 20.139165009940367  L 31.05367793240555 21.729622266401577  L 36.13320079522862 20.21868787276344  L 36.13320079522862 27.23658051689864  C 36.13320079522862 28.69781312127236  37.32604373757454 29.870775347912513  38.78727634194831 29.870775347912513  C 40.24850894632209 29.870775347912513  41.45129224652089 28.69781312127236  41.45129224652089 27.23658051689864  L 41.45129224652089 20.07952286282307  Z M 27.654075546719696 11.222664015904572  L 27.654075546719696 14.29423459244532  L 31.063618290258432 15.884691848906584  L 36.1431411530815 14.37375745526839  L 36.1431411530815 10.834990059642166  C 36.1431411530815 4.821073558648095  31.063618290258432 0  25 0  C 18.956262425447335 0  13.856858846918499 4.791252485089444  14 10.755467196819097  L 14 26.8986083499006  C 13.856858846918499 28.379721669980142  12.66401590457258 29.55268389662029  11.202783300198803 29.55268389662029  C 9.741550695825026 29.55268389662029  8.548707753479107 28.379721669980142  8.548707753479107 26.8986083499006  L 8.548707753479107 20.07952286282307  L 0 20.07952286282307  L 0 27.00795228628232  C 0 33.17097415506959  5 38.17097415506959  11.172962226640152 38.17097415506959  C 17.296222664015886 38.17097415506959  22.345924453280304 33.250497017892656  23 27.157057654075572  L 23 11.222664015904572  C 22.345924453280304 9.761431411530793  23.538767395626223 8.568588469184874  25 8.568588469184874  C 26.461232604373773 8.568588469184874  27.654075546719696 9.761431411530793  27.654075546719696 11.222664015904572  Z " fill-rule="evenodd" />
    </mask>
  </defs>
  <g>
    <path d="M 41.45129224652089 20.07952286282307  L 49.990059642147116 20.07952286282307  L 49.990059642147116 27.00795228628232  C 49.990059642147116 33.18091451292247  44.990059642147116 38.18091451292247  38.817097415506964 38.18091451292247  C 32.67395626242546 38.18091451292247  27.644135188866812 33.23061630218689  27.644135188866812 27.117296222664038  L 27.644135188866812 20.139165009940367  L 31.05367793240555 21.729622266401577  L 36.13320079522862 20.21868787276344  L 36.13320079522862 27.23658051689864  C 36.13320079522862 28.69781312127236  37.32604373757454 29.870775347912513  38.78727634194831 29.870775347912513  C 40.24850894632209 29.870775347912513  41.45129224652089 28.69781312127236  41.45129224652089 27.23658051689864  L 41.45129224652089 20.07952286282307  Z M 27.654075546719696 11.222664015904572  L 27.654075546719696 14.29423459244532  L 31.063618290258432 15.884691848906584  L 36.1431411530815 14.37375745526839  L 36.1431411530815 10.834990059642166  C 36.1431411530815 4.821073558648095  31.063618290258432 0  25 0  C 18.956262425447335 0  13.856858846918499 4.791252485089444  14 10.755467196819097  L 14 26.8986083499006  C 13.856858846918499 28.379721669980142  12.66401590457258 29.55268389662029  11.202783300198803 29.55268389662029  C 9.741550695825026 29.55268389662029  8.548707753479107 28.379721669980142  8.548707753479107 26.8986083499006  L 8.548707753479107 20.07952286282307  L 0 20.07952286282307  L 0 27.00795228628232  C 0 33.17097415506959  5 38.17097415506959  11.172962226640152 38.17097415506959  C 17.296222664015886 38.17097415506959  22.345924453280304 33.250497017892656  23 27.157057654075572  L 23 11.222664015904572  C 22.345924453280304 9.761431411530793  23.538767395626223 8.568588469184874  25 8.568588469184874  C 26.461232604373773 8.568588469184874  27.654075546719696 9.761431411530793  27.654075546719696 11.222664015904572  Z " fill-rule="nonzero" fill="rgba(0, 0, 0, 1)" stroke="none" class="fill" />
    <path d="M 41.45129224652089 20.07952286282307  L 49.990059642147116 20.07952286282307  L 49.990059642147116 27.00795228628232  C 49.990059642147116 33.18091451292247  44.990059642147116 38.18091451292247  38.817097415506964 38.18091451292247  C 32.67395626242546 38.18091451292247  27.644135188866812 33.23061630218689  27.644135188866812 27.117296222664038  L 27.644135188866812 20.139165009940367  L 31.05367793240555 21.729622266401577  L 36.13320079522862 20.21868787276344  L 36.13320079522862 27.23658051689864  C 36.13320079522862 28.69781312127236  37.32604373757454 29.870775347912513  38.78727634194831 29.870775347912513  C 40.24850894632209 29.870775347912513  41.45129224652089 28.69781312127236  41.45129224652089 27.23658051689864  L 41.45129224652089 20.07952286282307  Z " stroke-width="0" stroke-dasharray="0" stroke="rgba(255, 255, 255, 0)" fill="none" class="stroke" mask="url(#Clip990)" />
    <path d="M 27.654075546719696 11.222664015904572  L 27.654075546719696 14.29423459244532  L 31.063618290258432 15.884691848906584  L 36.1431411530815 14.37375745526839  L 36.1431411530815 10.834990059642166  C 36.1431411530815 4.821073558648095  31.063618290258432 0  25 0  C 18.956262425447335 0  13.856858846918499 4.791252485089444  14 10.755467196819097  L 14 26.8986083499006  C 13.856858846918499 28.379721669980142  12.66401590457258 29.55268389662029  11.202783300198803 29.55268389662029  C 9.741550695825026 29.55268389662029  8.548707753479107 28.379721669980142  8.548707753479107 26.8986083499006  L 8.548707753479107 20.07952286282307  L 0 20.07952286282307  L 0 27.00795228628232  C 0 33.17097415506959  5 38.17097415506959  11.172962226640152 38.17097415506959  C 17.296222664015886 38.17097415506959  22.345924453280304 33.250497017892656  23 27.157057654075572  L 23 11.222664015904572  C 22.345924453280304 9.761431411530793  23.538767395626223 8.568588469184874  25 8.568588469184874  C 26.461232604373773 8.568588469184874  27.654075546719696 9.761431411530793  27.654075546719696 11.222664015904572  Z " stroke-width="0" stroke-dasharray="0" stroke="rgba(255, 255, 255, 0)" fill="none" class="stroke" mask="url(#Clip990)" />
  </g>
</svg>