<?xml version="1.0" encoding="utf-8"?>
<svg version="1.1" xmlns:xlink="http://www.w3.org/1999/xlink" width="56px" height="56px" xmlns="http://www.w3.org/2000/svg">
  <defs>
    <pattern id="BGPattern" patternUnits="userSpaceOnUse" alignment="0 0" imageRepeat="None" />
    <mask fill="white" id="Clip3068">
      <path d="M 25.500000000000004 55.49375  C 22.125000000000004 55.5  18.85 54.8375  15.7625 53.53125  C 12.787499999999998 52.275  10.112499999999999 50.46875  7.81875 48.175  C 5.535682459621837 45.89899076778404  3.716562197717435 43.20108895578813  2.4624999999999995 40.23125  C 1.161343021134507 37.156628894447195  0.4938605233301025 33.85110251200819  0.5 30.512500000000003  L 0.5 30.525000000000006  C 0.4932374414998959 37.148533488131264  3.124606197866653 43.50205206653818  7.8125 48.181250000000006  C 10.10625 50.47500000000001  12.774999999999999 52.275000000000006  15.75 53.53125000000001  C 18.825867119234545 54.836167106967004  22.13378267426507 55.505828674984116  25.475 55.5  C 27.1625 55.5  28.825 55.33125  30.456250000000004 55.00625  C 28.837500000000006 55.331250000000004  27.181250000000006 55.49375  25.500000000000004 55.49375  Z M 55 26  L 31 26  C 30.725 25.5  30.499999999999996 25.275  30 25  L 30 0.9937500000000004  C 30.499999999999996 0.9125000000000004  30.518749999999997 0.8375000000000004  30.55625 0.7687500000000007  C 30.499999999999996 0.8500000000000005  30.462499999999995 0.9500000000000011  30 1.0562500000000004  L 30 25.0375  C 30.462499999999995 25.3125  30.6875 25.5375  30.9625 26  L 54.9375 26  C 55.0375 25.475  55.13125 25.44375  55.2125 25.39375  C 55.15 25.425  55.074999999999996 25.4375  55 26  Z " fill-rule="evenodd" />
    </mask>
  </defs>
  <g>
    <path d="M 25.500000000000004 55.49375  C 22.125000000000004 55.5  18.85 54.8375  15.7625 53.53125  C 12.787499999999998 52.275  10.112499999999999 50.46875  7.81875 48.175  C 5.535682459621837 45.89899076778404  3.716562197717435 43.20108895578813  2.4624999999999995 40.23125  C 1.161343021134507 37.156628894447195  0.4938605233301025 33.85110251200819  0.5 30.512500000000003  L 0.5 30.525000000000006  C 0.4932374414998959 37.148533488131264  3.124606197866653 43.50205206653818  7.8125 48.181250000000006  C 10.10625 50.47500000000001  12.774999999999999 52.275000000000006  15.75 53.53125000000001  C 18.825867119234545 54.836167106967004  22.13378267426507 55.505828674984116  25.475 55.5  C 27.1625 55.5  28.825 55.33125  30.456250000000004 55.00625  C 28.837500000000006 55.331250000000004  27.181250000000006 55.49375  25.500000000000004 55.49375  Z M 55 26  L 31 26  C 30.725 25.5  30.499999999999996 25.275  30 25  L 30 0.9937500000000004  C 30.499999999999996 0.9125000000000004  30.518749999999997 0.8375000000000004  30.55625 0.7687500000000007  C 30.499999999999996 0.8500000000000005  30.462499999999995 0.9500000000000011  30 1.0562500000000004  L 30 25.0375  C 30.462499999999995 25.3125  30.6875 25.5375  30.9625 26  L 54.9375 26  C 55.0375 25.475  55.13125 25.44375  55.2125 25.39375  C 55.15 25.425  55.074999999999996 25.4375  55 26  Z " fill-rule="nonzero" fill="rgba(217, 217, 217, 1)" stroke="none" class="fill" />
    <path d="M 25.500000000000004 55.49375  C 22.125000000000004 55.5  18.85 54.8375  15.7625 53.53125  C 12.787499999999998 52.275  10.112499999999999 50.46875  7.81875 48.175  C 5.535682459621837 45.89899076778404  3.716562197717435 43.20108895578813  2.4624999999999995 40.23125  C 1.161343021134507 37.156628894447195  0.4938605233301025 33.85110251200819  0.5 30.512500000000003  L 0.5 30.525000000000006  C 0.4932374414998959 37.148533488131264  3.124606197866653 43.50205206653818  7.8125 48.181250000000006  C 10.10625 50.47500000000001  12.774999999999999 52.275000000000006  15.75 53.53125000000001  C 18.825867119234545 54.836167106967004  22.13378267426507 55.505828674984116  25.475 55.5  C 27.1625 55.5  28.825 55.33125  30.456250000000004 55.00625  C 28.837500000000006 55.331250000000004  27.181250000000006 55.49375  25.500000000000004 55.49375  Z " stroke-width="0" stroke-dasharray="0" stroke="rgba(255, 255, 255, 0)" fill="none" class="stroke" mask="url(#Clip3068)" />
    <path d="M 55 26  L 31 26  C 30.725 25.5  30.499999999999996 25.275  30 25  L 30 0.9937500000000004  C 30.499999999999996 0.9125000000000004  30.518749999999997 0.8375000000000004  30.55625 0.7687500000000007  C 30.499999999999996 0.8500000000000005  30.462499999999995 0.9500000000000011  30 1.0562500000000004  L 30 25.0375  C 30.462499999999995 25.3125  30.6875 25.5375  30.9625 26  L 54.9375 26  C 55.0375 25.475  55.13125 25.44375  55.2125 25.39375  C 55.15 25.425  55.074999999999996 25.4375  55 26  Z " stroke-width="0" stroke-dasharray="0" stroke="rgba(255, 255, 255, 0)" fill="none" class="stroke" mask="url(#Clip3068)" />
  </g>
</svg>