<?xml version="1.0" encoding="utf-8"?>
<svg version="1.1" xmlns:xlink="http://www.w3.org/1999/xlink" width="50px" height="50px" xmlns="http://www.w3.org/2000/svg">
  <defs>
    <pattern id="BGPattern" patternUnits="userSpaceOnUse" alignment="0 0" imageRepeat="None" />
    <mask fill="white" id="Clip1747">
      <path d="M 20.3125 6.25  L 21.875 9.375  L 23.4375 6.25  L 26.5625 4.6875  L 23.4375 3.125  L 21.875 0  L 20.3125 3.125  L 17.1875 4.6875  L 20.3125 6.25  Z M 5.208984375 10.4169921875  L 7.8125 15.625  L 10.416015625 10.4169921875  L 15.625 7.8125  L 10.416015625 5.2080078125  L 7.8125 0  L 5.208984375 5.2080078125  L 0 7.8125  L 5.208984375 10.4169921875  Z M 44.791015625 33.3330078125  L 42.1875 28.125  L 39.583984375 33.3330078125  L 34.375 35.9375  L 39.583984375 38.5419921875  L 42.1875 43.75  L 44.791015625 38.5419921875  L 50 35.9375  L 44.791015625 33.3330078125  Z M 49.083984375 13.6201171875  C 50.3046875 12.4013671875  50.3046875 10.421875  49.083984375 9.2021484375  L 40.7978515625 0.9160156250000001  C 40.1884765625 0.3046875  39.388671875 0  38.5888671875 0  C 37.7890625 0  36.9892578125 0.3046875  36.37890625 0.9160156250000001  L 0.9160156250000001 36.37890625  C -0.3046875 37.599609375  -0.3046875 39.578125  0.9160156250000001 40.7978515625  L 9.2021484375 49.083984375  C 9.8125 49.6943359375  10.6123046875 49.9990234375  11.4111328125 49.9990234375  C 12.2109375 49.9990234375  13.010742187499998 49.6943359375  13.621093749999998 49.083984375  L 49.083984375 13.6201171875  Z M 43.5595703125 11.412109375  L 35.1025390625 19.869140625  L 30.130859375000004 14.897460937500002  L 38.587890625 6.4404296875  L 43.5595703125 11.412109375  Z " fill-rule="evenodd" />
    </mask>
  </defs>
  <g>
    <path d="M 20.3125 6.25  L 21.875 9.375  L 23.4375 6.25  L 26.5625 4.6875  L 23.4375 3.125  L 21.875 0  L 20.3125 3.125  L 17.1875 4.6875  L 20.3125 6.25  Z M 5.208984375 10.4169921875  L 7.8125 15.625  L 10.416015625 10.4169921875  L 15.625 7.8125  L 10.416015625 5.2080078125  L 7.8125 0  L 5.208984375 5.2080078125  L 0 7.8125  L 5.208984375 10.4169921875  Z M 44.791015625 33.3330078125  L 42.1875 28.125  L 39.583984375 33.3330078125  L 34.375 35.9375  L 39.583984375 38.5419921875  L 42.1875 43.75  L 44.791015625 38.5419921875  L 50 35.9375  L 44.791015625 33.3330078125  Z M 49.083984375 13.6201171875  C 50.3046875 12.4013671875  50.3046875 10.421875  49.083984375 9.2021484375  L 40.7978515625 0.9160156250000001  C 40.1884765625 0.3046875  39.388671875 0  38.5888671875 0  C 37.7890625 0  36.9892578125 0.3046875  36.37890625 0.9160156250000001  L 0.9160156250000001 36.37890625  C -0.3046875 37.599609375  -0.3046875 39.578125  0.9160156250000001 40.7978515625  L 9.2021484375 49.083984375  C 9.8125 49.6943359375  10.6123046875 49.9990234375  11.4111328125 49.9990234375  C 12.2109375 49.9990234375  13.010742187499998 49.6943359375  13.621093749999998 49.083984375  L 49.083984375 13.6201171875  Z M 43.5595703125 11.412109375  L 35.1025390625 19.869140625  L 30.130859375000004 14.897460937500002  L 38.587890625 6.4404296875  L 43.5595703125 11.412109375  Z " fill-rule="nonzero" fill="rgba(0, 0, 0, 1)" stroke="none" class="fill" />
    <path d="M 20.3125 6.25  L 21.875 9.375  L 23.4375 6.25  L 26.5625 4.6875  L 23.4375 3.125  L 21.875 0  L 20.3125 3.125  L 17.1875 4.6875  L 20.3125 6.25  Z " stroke-width="0" stroke-dasharray="0" stroke="rgba(255, 255, 255, 0)" fill="none" class="stroke" mask="url(#Clip1747)" />
    <path d="M 5.208984375 10.4169921875  L 7.8125 15.625  L 10.416015625 10.4169921875  L 15.625 7.8125  L 10.416015625 5.2080078125  L 7.8125 0  L 5.208984375 5.2080078125  L 0 7.8125  L 5.208984375 10.4169921875  Z " stroke-width="0" stroke-dasharray="0" stroke="rgba(255, 255, 255, 0)" fill="none" class="stroke" mask="url(#Clip1747)" />
    <path d="M 44.791015625 33.3330078125  L 42.1875 28.125  L 39.583984375 33.3330078125  L 34.375 35.9375  L 39.583984375 38.5419921875  L 42.1875 43.75  L 44.791015625 38.5419921875  L 50 35.9375  L 44.791015625 33.3330078125  Z " stroke-width="0" stroke-dasharray="0" stroke="rgba(255, 255, 255, 0)" fill="none" class="stroke" mask="url(#Clip1747)" />
    <path d="M 49.083984375 13.6201171875  C 50.3046875 12.4013671875  50.3046875 10.421875  49.083984375 9.2021484375  L 40.7978515625 0.9160156250000001  C 40.1884765625 0.3046875  39.388671875 0  38.5888671875 0  C 37.7890625 0  36.9892578125 0.3046875  36.37890625 0.9160156250000001  L 0.9160156250000001 36.37890625  C -0.3046875 37.599609375  -0.3046875 39.578125  0.9160156250000001 40.7978515625  L 9.2021484375 49.083984375  C 9.8125 49.6943359375  10.6123046875 49.9990234375  11.4111328125 49.9990234375  C 12.2109375 49.9990234375  13.010742187499998 49.6943359375  13.621093749999998 49.083984375  L 49.083984375 13.6201171875  Z " stroke-width="0" stroke-dasharray="0" stroke="rgba(255, 255, 255, 0)" fill="none" class="stroke" mask="url(#Clip1747)" />
    <path d="M 43.5595703125 11.412109375  L 35.1025390625 19.869140625  L 30.130859375000004 14.897460937500002  L 38.587890625 6.4404296875  L 43.5595703125 11.412109375  Z " stroke-width="0" stroke-dasharray="0" stroke="rgba(255, 255, 255, 0)" fill="none" class="stroke" mask="url(#Clip1747)" />
  </g>
</svg>