<?xml version="1.0" encoding="utf-8"?>
<svg version="1.1" xmlns:xlink="http://www.w3.org/1999/xlink" width="48px" height="49px" xmlns="http://www.w3.org/2000/svg">
  <defs>
    <pattern id="BGPattern" patternUnits="userSpaceOnUse" alignment="0 0" imageRepeat="None" />
    <mask fill="white" id="Clip6697">
      <path d="M 21.391000000000016 1.0040000000000004  C 21.23267713651124 0.9903249700908  21.07353032086708 0.9889876018921094  20.915000000000003 0.9999999999999999  C 20.09768091351103 1.0477043114129456  19.3347526160505 1.4251986345651289  18.801000000000002 2.0460000000000003  C 17.11533453347318 4.322771905946315  16.290568289287325 7.123009188611686  16.473000000000003 9.95  C 15.979843935070612 8.892856372803195  15.130143627196807 8.043156064929388  14.073000000000002 7.549999999999998  C 13.960548871858236 7.518898525176169  13.84534022371737 7.498803993523692  13.729000000000003 7.489999999999998  C 11.815000000000001 7.218  10.201 10.28  10.401 15.117999999999999  C 7.464967315834937 15.181408483326694  4.54226477213583 15.533097421085584  1.6750000000000003 16.168  C 1.3841015884137065 16.23806943411482  1.1022435740857048 16.341417372701756  0.8350000000000003 16.476  C 0.7100762633900887 16.533390502963655  0.5897252312913625 16.60025218746295  0.4750000000000005 16.676000000000002  C 0.29968141700135753 16.78491550241364  0.14188847182916778 16.919781267518076  0.007000000000000439 17.076  C 3.4384829760841935 16.29924206232078  6.966591501991979 16.03837503910215  10.475000000000001 16.302  L 10.475000000000001 16.212  L 10.487000000000002 16.212  C 10.824754061730767 19.26620680573288  11.659069612042183 22.244747098302142  12.957000000000003 25.03  L 12.909000000000002 24.942  C 11.039256266151856 27.78969482685628  9.548698526554784 30.86897062629452  8.475000000000001 34.102000000000004  C 7.964026748271888 35.53822898932699  7.973937250569074 37.10833571040982  8.503 38.538  C 8.901030195214336 39.423560551791  9.708294591948292 40.05741259663396  10.663000000000002 40.234  C 13.526635888603634 40.55747761327684  16.411702634509503 39.848267498747376  18.799 38.233999999999995  C 18.087298695783858 39.22483059351793  17.74997952371842 40.43591980582852  17.847000000000005 41.652  C 17.875001929717257 41.76352634971661  17.913853856662264 41.872043800838874  17.963000000000005 41.976  C 18.689000000000004 43.775999999999996  22.145000000000007 43.64  26.22500000000001 41.036  C 27.737818142714623 43.521093947793695  29.490166881639333 45.85220006838162  31.457000000000008 47.995999999999995  C 31.662972657872295 48.21565699387835  31.894639279993783 48.40971975849607  32.147 48.574000000000005  C 32.41870950205182 48.785511309662766  32.74042451574492 48.92329075878186  33.080999999999996 48.974000000000004  C 30.707800490122096 46.4154237123717  28.729988987168248 43.516790630332984  27.213 40.374  L 27.143 40.43  C 27.143 40.43  27.143 40.43  27.143 40.418  C 29.645609072567254 38.58145894333966  31.828225221778567 36.34478418981352  33.602999999999994 33.798  L 33.547 33.874  C 36.9184969522981 34.06284478977201  40.30023424007584 33.812071825887095  43.607 33.128  C 45.1014587408252 32.85297544357552  46.45274485287303 32.064135645181096  47.427 30.898000000000003  C 48.00124993655086 30.10918533028937  48.15081564497413 29.08839937030038  47.827 28.168  C 46.6799602341962 25.529033799967536  44.6290136506184 23.38589390523305  42.043 22.124  C 43.25399859516599 22.244426170832824  44.46850354512273 21.93194269187663  45.471 21.241999999999997  C 45.55234779027462 21.16839559125951  45.62666832007455 21.08737951823435  45.693 21  C 46.867 19.472  45.022999999999996 16.546  40.735 14.32  C 42.130830912789 11.770111054951288  43.27618751561614 9.090914323191907  44.154999999999994 6.319999999999999  C 44.237353670258265 6.033259022007763  44.28634435616212 5.737972696011984  44.301 5.44  C 44.36040398361066 5.090596467956982  44.325893040951016 4.731682664296703  44.201 4.4  C 43.169352857548034 7.734114405438534  41.64590706776973 10.895601464757231  39.681000000000004 13.780000000000001  L 39.763000000000005 13.82  C 36.920328379303406 12.573340964305533  33.891854235095536 11.803046335926021  30.799000000000014 11.540000000000001  L 30.899000000000008 11.540000000000001  C 29.379626669434018 8.527017714218212  27.474264843990547 5.724777739465775  25.231000000000012 3.2040000000000006  C 24.24555227035463 2.0467072836917097  22.88776643888982 1.2688091510816621  21.391000000000016 1.0040000000000004  Z M 22.332999999999995 6.602000000000001  C 22.60386578862425 6.407878118506877  22.92597062698469 6.297958972802885  23.259000000000004 6.286  C 24.28946915783969 6.452924143202639  25.229074362573975 6.97508426450829  25.915000000000006 7.7620000000000005  C 26.966846585416988 8.892591058767906  27.912183178006906 10.117779418852576  28.738999999999997 11.422  C 28.573 11.422  28.417 11.394  28.247 11.39  C 25.317583350271732 11.193639882166071  22.3962253667044 11.876102533869524  19.857 13.350000000000001  C 19.977 10.264000000000001  20.695 7.750000000000002  22.332999999999995 6.602000000000001  Z M 12.817000000000004 15.074  C 12.899000000000001 12.32  13.673000000000002 10.454  15.029 10.42  C 15.08955478490978 10.423070418086851  15.149756189736806 10.431097272063788  15.209000000000003 10.443999999999999  C 15.782578930365855 10.696269221140417  16.240730778859586 11.154421069634148  16.493000000000002 11.728  C 16.539 12.854  16.643 14.016  16.793000000000003 15.193999999999999  C 15.469000000000003 15.116666666666667  14.143666666666672 15.076666666666666  12.817000000000004 15.074  Z M 25.985 12.842  L 25.985 12.839999999999998  C 26.473 12.825999999999999  26.973000000000006 12.839999999999998  27.489000000000004 12.866000000000003  C 31.279761778981346 13.083199078205158  34.98742992757199 14.064880754978791  38.389 15.751999999999999  C 37.729000000000006 16.723999999999997  36.989000000000004 17.738  36.20900000000001 18.78  C 35.36694530301339 17.166596072286552  34.0672852647671 15.837714555664279  32.473 14.959999999999997  C 32.211265685751044 14.815589568399247  31.925150612378232 14.72066987581111  31.629000000000005 14.68  C 32.041715975476066 14.907099178199323  32.42464403768752 15.184554072398145  32.769000000000005 15.505999999999998  C 33.948327953043226 16.480948394804354  34.889565045096255 17.712217846617914  35.52100000000001 19.105999999999998  C 32.00656956056023 17.81501307294773  28.390744383322534 16.81890508240065  24.711000000000013 16.128  C 23.485666666666678 15.901333333333332  22.254333333333346 15.712666666666665  21.01700000000001 15.561999999999998  C 21.01700000000001 15.583999999999998  21.01700000000001 15.627999999999998  21.01700000000001 15.651999999999997  L 20.96700000000001 15.651999999999997  C 20.93500000000001 15.873999999999997  20.89500000000001 16.205999999999996  20.867000000000008 16.571999999999996  C 20.83900000000001 16.971999999999998  20.82700000000001 17.287999999999997  20.82100000000001 17.476  C 21.13500000000001 17.535999999999998  21.45300000000001 17.592  21.771000000000008 17.656  C 26.90843289381815 18.656618691618295  31.870390121029725 20.408769824410644  36.49700000000001 22.855999999999998  C 36.48449561605607 25.524953248604277  35.65381906004017 28.12587833071792  34.11700000000001 30.308000000000003  C 32.03404470640432 33.484525424572304  29.32893267874283 36.20596609626394  26.165000000000006 38.308  C 25.62366666666668 37.18533333333333  25.11233333333334 36.05200000000001  24.631000000000007 34.908  C 26.479364862545623 35.00341126546214  28.31401267048049 34.5437045254329  29.899000000000008 33.588  C 30.499000000000013 33.14  30.55900000000001 33  30.55900000000001 32.988  C 30.158957587169517 33.23389375666603  29.728698678660187 33.42683798595068  29.279000000000014 33.562  C 27.814928372526637 34.10386963472645  26.24517503180919 34.29897635173669  24.693000000000012 34.132  C 27.56251165748433 31.73329052166805  30.22768604697426 29.100226666991244  32.660999999999994 26.259999999999998  C 33.477 25.304000000000002  34.260999999999996 24.326  34.99699999999999 23.340000000000003  L 34.92699999999999 23.290000000000003  L 34.95899999999998 23.252  C 34.47880169877263 22.87505056974932  33.975118677627464 22.52901899819335  33.450999999999986 22.216  L 32.820999999999984 22.948  C 29.397458691387172 26.88496496421726  25.415093146340517 30.298613670005132  21.001 33.08  C 18.71934354382994 31.73108402863575  16.899522740682542 29.723005901024823  15.781 27.32  C 14.076376358744884 23.927173490592658  13.073710507198873 20.22533660856186  12.833000000000002 16.436  C 13.979000000000003 16.52  15.199000000000002 16.648  16.465000000000003 16.805999999999997  C 15.487743851253569 18.344074763052312  14.985485342857878 20.136066338713395  15.021 21.958  C 15.025214806899111 22.255264551477243  15.087729564757048 22.548812110114497  15.205000000000002 22.822  C 15.195993153421817 22.351218177406327  15.244349060050224 21.88109130740794  15.349000000000004 21.421999999999997  C 15.604534284123332 19.913110626476236  16.201759007860637 18.48264453560028  17.095000000000002 17.24  C 17.735075814926212 20.92688867251584  18.681009871751996 24.55408418603027  19.923000000000002 28.083999999999996  C 20.343 29.26933333333333  20.795 30.429333333333332  21.279000000000003 31.563999999999993  L 21.357000000000003 31.533999999999995  L 21.379 31.57999999999999  C 21.579 31.495999999999995  21.895 31.366  22.223000000000003 31.205999999999996  C 22.585 31.029999999999998  22.863000000000003 30.881999999999994  23.023000000000003 30.789999999999992  C 22.915000000000003 30.489999999999995  22.807000000000002 30.18999999999999  22.703000000000003 29.87599999999999  C 21.002227904849466 24.930062725013187  20.039226629889136 19.760585621989616  19.845 14.533999999999999  C 21.70912363106646 13.444276968003248  23.825811977494155 12.86098109143067  25.985 12.842  Z M 39.579 16.416000000000004  L 39.571 16.416  C 41.915 17.864  43.147 19.468  42.50099999999999 20.657999999999998  C 41.95405925948697 21.176797064684244  41.19307810668065 21.4047202002077  40.451 21.272000000000002  C 39.46833333333334 20.764000000000003  38.46833333333334 20.297333333333338  37.451 19.872000000000003  C 38.217 18.708000000000002  38.927 17.548000000000002  39.579 16.416000000000004  Z M 37.491 23.46  L 37.504999999999995 23.451999999999998  C 40.11899999999999 25.098  41.934999999999995 26.971999999999998  42.105 28.965999999999998  C 42.136083934026225 29.302017077823603  42.06646206785583 29.63968312875002  41.90499999999999 29.935999999999996  C 41.84170152670815 30.0454764999367  41.76802961671033 30.148617173933648  41.684999999999995 30.243999999999996  C 41.01313670851993 30.85787429170903  40.192819892612405 31.285955588077588  39.30499999999999 31.485999999999994  C 37.79917881543777 31.83243368303679  36.26474668173716 32.03997031543085  34.721 32.105999999999995  C 34.811 31.965999999999994  34.900999999999996 31.841999999999995  34.991 31.705999999999996  C 36.627734774446544 29.26801652014298  37.4983351733247 26.39642816448327  37.491 23.46  Z M 13.863000000000001 26.871999999999993  L 13.861 26.872000000000003  C 13.953000000000003 27.048  14.029 27.218  14.127000000000002 27.394000000000005  C 15.412034615673878 30.014291110434517  17.445016291604013 32.194822295196275  19.969 33.66  C 17.221 35.114  14.675 35.76199999999999  12.853000000000002 34.913999999999994  C 12.426261489362634 34.71953806052193  12.09852866914672 34.357802055868596  11.947000000000001 33.913999999999994  C 11.754852337296176 33.02553030325633  11.794802477383936 32.102544308125346  12.062999999999999 31.233999999999995  C 12.526986523561495 29.727525700826614  13.129562209518824 28.26728395519002  13.863000000000001 26.871999999999993  Z M 23.059 35.418000000000006  L 23.061 35.418  C 23.687 36.668  24.335 37.864  24.988999999999997 38.996  C 22.565 40.300000000000004  20.565 40.566  19.857000000000003 39.410000000000004  C 19.826582071314164 39.35392085792609  19.80179436824461 39.294966320895796  19.783000000000005 39.23400000000001  C 19.71861797734918 38.548197055187146  19.921368913092923 37.86400220135225  20.349 37.324000000000005  C 21.255 36.74400000000001  22.163 36.102000000000004  23.059 35.418000000000006  Z " fill-rule="evenodd" />
    </mask>
  </defs>
  <g>
    <path d="M 21.391000000000016 1.0040000000000004  C 21.23267713651124 0.9903249700908  21.07353032086708 0.9889876018921094  20.915000000000003 0.9999999999999999  C 20.09768091351103 1.0477043114129456  19.3347526160505 1.4251986345651289  18.801000000000002 2.0460000000000003  C 17.11533453347318 4.322771905946315  16.290568289287325 7.123009188611686  16.473000000000003 9.95  C 15.979843935070612 8.892856372803195  15.130143627196807 8.043156064929388  14.073000000000002 7.549999999999998  C 13.960548871858236 7.518898525176169  13.84534022371737 7.498803993523692  13.729000000000003 7.489999999999998  C 11.815000000000001 7.218  10.201 10.28  10.401 15.117999999999999  C 7.464967315834937 15.181408483326694  4.54226477213583 15.533097421085584  1.6750000000000003 16.168  C 1.3841015884137065 16.23806943411482  1.1022435740857048 16.341417372701756  0.8350000000000003 16.476  C 0.7100762633900887 16.533390502963655  0.5897252312913625 16.60025218746295  0.4750000000000005 16.676000000000002  C 0.29968141700135753 16.78491550241364  0.14188847182916778 16.919781267518076  0.007000000000000439 17.076  C 3.4384829760841935 16.29924206232078  6.966591501991979 16.03837503910215  10.475000000000001 16.302  L 10.475000000000001 16.212  L 10.487000000000002 16.212  C 10.824754061730767 19.26620680573288  11.659069612042183 22.244747098302142  12.957000000000003 25.03  L 12.909000000000002 24.942  C 11.039256266151856 27.78969482685628  9.548698526554784 30.86897062629452  8.475000000000001 34.102000000000004  C 7.964026748271888 35.53822898932699  7.973937250569074 37.10833571040982  8.503 38.538  C 8.901030195214336 39.423560551791  9.708294591948292 40.05741259663396  10.663000000000002 40.234  C 13.526635888603634 40.55747761327684  16.411702634509503 39.848267498747376  18.799 38.233999999999995  C 18.087298695783858 39.22483059351793  17.74997952371842 40.43591980582852  17.847000000000005 41.652  C 17.875001929717257 41.76352634971661  17.913853856662264 41.872043800838874  17.963000000000005 41.976  C 18.689000000000004 43.775999999999996  22.145000000000007 43.64  26.22500000000001 41.036  C 27.737818142714623 43.521093947793695  29.490166881639333 45.85220006838162  31.457000000000008 47.995999999999995  C 31.662972657872295 48.21565699387835  31.894639279993783 48.40971975849607  32.147 48.574000000000005  C 32.41870950205182 48.785511309662766  32.74042451574492 48.92329075878186  33.080999999999996 48.974000000000004  C 30.707800490122096 46.4154237123717  28.729988987168248 43.516790630332984  27.213 40.374  L 27.143 40.43  C 27.143 40.43  27.143 40.43  27.143 40.418  C 29.645609072567254 38.58145894333966  31.828225221778567 36.34478418981352  33.602999999999994 33.798  L 33.547 33.874  C 36.9184969522981 34.06284478977201  40.30023424007584 33.812071825887095  43.607 33.128  C 45.1014587408252 32.85297544357552  46.45274485287303 32.064135645181096  47.427 30.898000000000003  C 48.00124993655086 30.10918533028937  48.15081564497413 29.08839937030038  47.827 28.168  C 46.6799602341962 25.529033799967536  44.6290136506184 23.38589390523305  42.043 22.124  C 43.25399859516599 22.244426170832824  44.46850354512273 21.93194269187663  45.471 21.241999999999997  C 45.55234779027462 21.16839559125951  45.62666832007455 21.08737951823435  45.693 21  C 46.867 19.472  45.022999999999996 16.546  40.735 14.32  C 42.130830912789 11.770111054951288  43.27618751561614 9.090914323191907  44.154999999999994 6.319999999999999  C 44.237353670258265 6.033259022007763  44.28634435616212 5.737972696011984  44.301 5.44  C 44.36040398361066 5.090596467956982  44.325893040951016 4.731682664296703  44.201 4.4  C 43.169352857548034 7.734114405438534  41.64590706776973 10.895601464757231  39.681000000000004 13.780000000000001  L 39.763000000000005 13.82  C 36.920328379303406 12.573340964305533  33.891854235095536 11.803046335926021  30.799000000000014 11.540000000000001  L 30.899000000000008 11.540000000000001  C 29.379626669434018 8.527017714218212  27.474264843990547 5.724777739465775  25.231000000000012 3.2040000000000006  C 24.24555227035463 2.0467072836917097  22.88776643888982 1.2688091510816621  21.391000000000016 1.0040000000000004  Z M 22.332999999999995 6.602000000000001  C 22.60386578862425 6.407878118506877  22.92597062698469 6.297958972802885  23.259000000000004 6.286  C 24.28946915783969 6.452924143202639  25.229074362573975 6.97508426450829  25.915000000000006 7.7620000000000005  C 26.966846585416988 8.892591058767906  27.912183178006906 10.117779418852576  28.738999999999997 11.422  C 28.573 11.422  28.417 11.394  28.247 11.39  C 25.317583350271732 11.193639882166071  22.3962253667044 11.876102533869524  19.857 13.350000000000001  C 19.977 10.264000000000001  20.695 7.750000000000002  22.332999999999995 6.602000000000001  Z M 12.817000000000004 15.074  C 12.899000000000001 12.32  13.673000000000002 10.454  15.029 10.42  C 15.08955478490978 10.423070418086851  15.149756189736806 10.431097272063788  15.209000000000003 10.443999999999999  C 15.782578930365855 10.696269221140417  16.240730778859586 11.154421069634148  16.493000000000002 11.728  C 16.539 12.854  16.643 14.016  16.793000000000003 15.193999999999999  C 15.469000000000003 15.116666666666667  14.143666666666672 15.076666666666666  12.817000000000004 15.074  Z M 25.985 12.842  L 25.985 12.839999999999998  C 26.473 12.825999999999999  26.973000000000006 12.839999999999998  27.489000000000004 12.866000000000003  C 31.279761778981346 13.083199078205158  34.98742992757199 14.064880754978791  38.389 15.751999999999999  C 37.729000000000006 16.723999999999997  36.989000000000004 17.738  36.20900000000001 18.78  C 35.36694530301339 17.166596072286552  34.0672852647671 15.837714555664279  32.473 14.959999999999997  C 32.211265685751044 14.815589568399247  31.925150612378232 14.72066987581111  31.629000000000005 14.68  C 32.041715975476066 14.907099178199323  32.42464403768752 15.184554072398145  32.769000000000005 15.505999999999998  C 33.948327953043226 16.480948394804354  34.889565045096255 17.712217846617914  35.52100000000001 19.105999999999998  C 32.00656956056023 17.81501307294773  28.390744383322534 16.81890508240065  24.711000000000013 16.128  C 23.485666666666678 15.901333333333332  22.254333333333346 15.712666666666665  21.01700000000001 15.561999999999998  C 21.01700000000001 15.583999999999998  21.01700000000001 15.627999999999998  21.01700000000001 15.651999999999997  L 20.96700000000001 15.651999999999997  C 20.93500000000001 15.873999999999997  20.89500000000001 16.205999999999996  20.867000000000008 16.571999999999996  C 20.83900000000001 16.971999999999998  20.82700000000001 17.287999999999997  20.82100000000001 17.476  C 21.13500000000001 17.535999999999998  21.45300000000001 17.592  21.771000000000008 17.656  C 26.90843289381815 18.656618691618295  31.870390121029725 20.408769824410644  36.49700000000001 22.855999999999998  C 36.48449561605607 25.524953248604277  35.65381906004017 28.12587833071792  34.11700000000001 30.308000000000003  C 32.03404470640432 33.484525424572304  29.32893267874283 36.20596609626394  26.165000000000006 38.308  C 25.62366666666668 37.18533333333333  25.11233333333334 36.05200000000001  24.631000000000007 34.908  C 26.479364862545623 35.00341126546214  28.31401267048049 34.5437045254329  29.899000000000008 33.588  C 30.499000000000013 33.14  30.55900000000001 33  30.55900000000001 32.988  C 30.158957587169517 33.23389375666603  29.728698678660187 33.42683798595068  29.279000000000014 33.562  C 27.814928372526637 34.10386963472645  26.24517503180919 34.29897635173669  24.693000000000012 34.132  C 27.56251165748433 31.73329052166805  30.22768604697426 29.100226666991244  32.660999999999994 26.259999999999998  C 33.477 25.304000000000002  34.260999999999996 24.326  34.99699999999999 23.340000000000003  L 34.92699999999999 23.290000000000003  L 34.95899999999998 23.252  C 34.47880169877263 22.87505056974932  33.975118677627464 22.52901899819335  33.450999999999986 22.216  L 32.820999999999984 22.948  C 29.397458691387172 26.88496496421726  25.415093146340517 30.298613670005132  21.001 33.08  C 18.71934354382994 31.73108402863575  16.899522740682542 29.723005901024823  15.781 27.32  C 14.076376358744884 23.927173490592658  13.073710507198873 20.22533660856186  12.833000000000002 16.436  C 13.979000000000003 16.52  15.199000000000002 16.648  16.465000000000003 16.805999999999997  C 15.487743851253569 18.344074763052312  14.985485342857878 20.136066338713395  15.021 21.958  C 15.025214806899111 22.255264551477243  15.087729564757048 22.548812110114497  15.205000000000002 22.822  C 15.195993153421817 22.351218177406327  15.244349060050224 21.88109130740794  15.349000000000004 21.421999999999997  C 15.604534284123332 19.913110626476236  16.201759007860637 18.48264453560028  17.095000000000002 17.24  C 17.735075814926212 20.92688867251584  18.681009871751996 24.55408418603027  19.923000000000002 28.083999999999996  C 20.343 29.26933333333333  20.795 30.429333333333332  21.279000000000003 31.563999999999993  L 21.357000000000003 31.533999999999995  L 21.379 31.57999999999999  C 21.579 31.495999999999995  21.895 31.366  22.223000000000003 31.205999999999996  C 22.585 31.029999999999998  22.863000000000003 30.881999999999994  23.023000000000003 30.789999999999992  C 22.915000000000003 30.489999999999995  22.807000000000002 30.18999999999999  22.703000000000003 29.87599999999999  C 21.002227904849466 24.930062725013187  20.039226629889136 19.760585621989616  19.845 14.533999999999999  C 21.70912363106646 13.444276968003248  23.825811977494155 12.86098109143067  25.985 12.842  Z M 39.579 16.416000000000004  L 39.571 16.416  C 41.915 17.864  43.147 19.468  42.50099999999999 20.657999999999998  C 41.95405925948697 21.176797064684244  41.19307810668065 21.4047202002077  40.451 21.272000000000002  C 39.46833333333334 20.764000000000003  38.46833333333334 20.297333333333338  37.451 19.872000000000003  C 38.217 18.708000000000002  38.927 17.548000000000002  39.579 16.416000000000004  Z M 37.491 23.46  L 37.504999999999995 23.451999999999998  C 40.11899999999999 25.098  41.934999999999995 26.971999999999998  42.105 28.965999999999998  C 42.136083934026225 29.302017077823603  42.06646206785583 29.63968312875002  41.90499999999999 29.935999999999996  C 41.84170152670815 30.0454764999367  41.76802961671033 30.148617173933648  41.684999999999995 30.243999999999996  C 41.01313670851993 30.85787429170903  40.192819892612405 31.285955588077588  39.30499999999999 31.485999999999994  C 37.79917881543777 31.83243368303679  36.26474668173716 32.03997031543085  34.721 32.105999999999995  C 34.811 31.965999999999994  34.900999999999996 31.841999999999995  34.991 31.705999999999996  C 36.627734774446544 29.26801652014298  37.4983351733247 26.39642816448327  37.491 23.46  Z M 13.863000000000001 26.871999999999993  L 13.861 26.872000000000003  C 13.953000000000003 27.048  14.029 27.218  14.127000000000002 27.394000000000005  C 15.412034615673878 30.014291110434517  17.445016291604013 32.194822295196275  19.969 33.66  C 17.221 35.114  14.675 35.76199999999999  12.853000000000002 34.913999999999994  C 12.426261489362634 34.71953806052193  12.09852866914672 34.357802055868596  11.947000000000001 33.913999999999994  C 11.754852337296176 33.02553030325633  11.794802477383936 32.102544308125346  12.062999999999999 31.233999999999995  C 12.526986523561495 29.727525700826614  13.129562209518824 28.26728395519002  13.863000000000001 26.871999999999993  Z M 23.059 35.418000000000006  L 23.061 35.418  C 23.687 36.668  24.335 37.864  24.988999999999997 38.996  C 22.565 40.300000000000004  20.565 40.566  19.857000000000003 39.410000000000004  C 19.826582071314164 39.35392085792609  19.80179436824461 39.294966320895796  19.783000000000005 39.23400000000001  C 19.71861797734918 38.548197055187146  19.921368913092923 37.86400220135225  20.349 37.324000000000005  C 21.255 36.74400000000001  22.163 36.102000000000004  23.059 35.418000000000006  Z " fill-rule="nonzero" fill="rgba(0, 174, 255, 1)" stroke="none" class="fill" />
    <path d="M 21.391000000000016 1.0040000000000004  C 21.23267713651124 0.9903249700908  21.07353032086708 0.9889876018921094  20.915000000000003 0.9999999999999999  C 20.09768091351103 1.0477043114129456  19.3347526160505 1.4251986345651289  18.801000000000002 2.0460000000000003  C 17.11533453347318 4.322771905946315  16.290568289287325 7.123009188611686  16.473000000000003 9.95  C 15.979843935070612 8.892856372803195  15.130143627196807 8.043156064929388  14.073000000000002 7.549999999999998  C 13.960548871858236 7.518898525176169  13.84534022371737 7.498803993523692  13.729000000000003 7.489999999999998  C 11.815000000000001 7.218  10.201 10.28  10.401 15.117999999999999  C 7.464967315834937 15.181408483326694  4.54226477213583 15.533097421085584  1.6750000000000003 16.168  C 1.3841015884137065 16.23806943411482  1.1022435740857048 16.341417372701756  0.8350000000000003 16.476  C 0.7100762633900887 16.533390502963655  0.5897252312913625 16.60025218746295  0.4750000000000005 16.676000000000002  C 0.29968141700135753 16.78491550241364  0.14188847182916778 16.919781267518076  0.007000000000000439 17.076  C 3.4384829760841935 16.29924206232078  6.966591501991979 16.03837503910215  10.475000000000001 16.302  L 10.475000000000001 16.212  L 10.487000000000002 16.212  C 10.824754061730767 19.26620680573288  11.659069612042183 22.244747098302142  12.957000000000003 25.03  L 12.909000000000002 24.942  C 11.039256266151856 27.78969482685628  9.548698526554784 30.86897062629452  8.475000000000001 34.102000000000004  C 7.964026748271888 35.53822898932699  7.973937250569074 37.10833571040982  8.503 38.538  C 8.901030195214336 39.423560551791  9.708294591948292 40.05741259663396  10.663000000000002 40.234  C 13.526635888603634 40.55747761327684  16.411702634509503 39.848267498747376  18.799 38.233999999999995  C 18.087298695783858 39.22483059351793  17.74997952371842 40.43591980582852  17.847000000000005 41.652  C 17.875001929717257 41.76352634971661  17.913853856662264 41.872043800838874  17.963000000000005 41.976  C 18.689000000000004 43.775999999999996  22.145000000000007 43.64  26.22500000000001 41.036  C 27.737818142714623 43.521093947793695  29.490166881639333 45.85220006838162  31.457000000000008 47.995999999999995  C 31.662972657872295 48.21565699387835  31.894639279993783 48.40971975849607  32.147 48.574000000000005  C 32.41870950205182 48.785511309662766  32.74042451574492 48.92329075878186  33.080999999999996 48.974000000000004  C 30.707800490122096 46.4154237123717  28.729988987168248 43.516790630332984  27.213 40.374  L 27.143 40.43  C 27.143 40.43  27.143 40.43  27.143 40.418  C 29.645609072567254 38.58145894333966  31.828225221778567 36.34478418981352  33.602999999999994 33.798  L 33.547 33.874  C 36.9184969522981 34.06284478977201  40.30023424007584 33.812071825887095  43.607 33.128  C 45.1014587408252 32.85297544357552  46.45274485287303 32.064135645181096  47.427 30.898000000000003  C 48.00124993655086 30.10918533028937  48.15081564497413 29.08839937030038  47.827 28.168  C 46.6799602341962 25.529033799967536  44.6290136506184 23.38589390523305  42.043 22.124  C 43.25399859516599 22.244426170832824  44.46850354512273 21.93194269187663  45.471 21.241999999999997  C 45.55234779027462 21.16839559125951  45.62666832007455 21.08737951823435  45.693 21  C 46.867 19.472  45.022999999999996 16.546  40.735 14.32  C 42.130830912789 11.770111054951288  43.27618751561614 9.090914323191907  44.154999999999994 6.319999999999999  C 44.237353670258265 6.033259022007763  44.28634435616212 5.737972696011984  44.301 5.44  C 44.36040398361066 5.090596467956982  44.325893040951016 4.731682664296703  44.201 4.4  C 43.169352857548034 7.734114405438534  41.64590706776973 10.895601464757231  39.681000000000004 13.780000000000001  L 39.763000000000005 13.82  C 36.920328379303406 12.573340964305533  33.891854235095536 11.803046335926021  30.799000000000014 11.540000000000001  L 30.899000000000008 11.540000000000001  C 29.379626669434018 8.527017714218212  27.474264843990547 5.724777739465775  25.231000000000012 3.2040000000000006  C 24.24555227035463 2.0467072836917097  22.88776643888982 1.2688091510816621  21.391000000000016 1.0040000000000004  Z " stroke-width="0" stroke-dasharray="0" stroke="rgba(255, 255, 255, 0)" fill="none" class="stroke" mask="url(#Clip6697)" />
    <path d="M 22.332999999999995 6.602000000000001  C 22.60386578862425 6.407878118506877  22.92597062698469 6.297958972802885  23.259000000000004 6.286  C 24.28946915783969 6.452924143202639  25.229074362573975 6.97508426450829  25.915000000000006 7.7620000000000005  C 26.966846585416988 8.892591058767906  27.912183178006906 10.117779418852576  28.738999999999997 11.422  C 28.573 11.422  28.417 11.394  28.247 11.39  C 25.317583350271732 11.193639882166071  22.3962253667044 11.876102533869524  19.857 13.350000000000001  C 19.977 10.264000000000001  20.695 7.750000000000002  22.332999999999995 6.602000000000001  Z " stroke-width="0" stroke-dasharray="0" stroke="rgba(255, 255, 255, 0)" fill="none" class="stroke" mask="url(#Clip6697)" />
    <path d="M 12.817000000000004 15.074  C 12.899000000000001 12.32  13.673000000000002 10.454  15.029 10.42  C 15.08955478490978 10.423070418086851  15.149756189736806 10.431097272063788  15.209000000000003 10.443999999999999  C 15.782578930365855 10.696269221140417  16.240730778859586 11.154421069634148  16.493000000000002 11.728  C 16.539 12.854  16.643 14.016  16.793000000000003 15.193999999999999  C 15.469000000000003 15.116666666666667  14.143666666666672 15.076666666666666  12.817000000000004 15.074  Z " stroke-width="0" stroke-dasharray="0" stroke="rgba(255, 255, 255, 0)" fill="none" class="stroke" mask="url(#Clip6697)" />
    <path d="M 25.985 12.842  L 25.985 12.839999999999998  C 26.473 12.825999999999999  26.973000000000006 12.839999999999998  27.489000000000004 12.866000000000003  C 31.279761778981346 13.083199078205158  34.98742992757199 14.064880754978791  38.389 15.751999999999999  C 37.729000000000006 16.723999999999997  36.989000000000004 17.738  36.20900000000001 18.78  C 35.36694530301339 17.166596072286552  34.0672852647671 15.837714555664279  32.473 14.959999999999997  C 32.211265685751044 14.815589568399247  31.925150612378232 14.72066987581111  31.629000000000005 14.68  C 32.041715975476066 14.907099178199323  32.42464403768752 15.184554072398145  32.769000000000005 15.505999999999998  C 33.948327953043226 16.480948394804354  34.889565045096255 17.712217846617914  35.52100000000001 19.105999999999998  C 32.00656956056023 17.81501307294773  28.390744383322534 16.81890508240065  24.711000000000013 16.128  C 23.485666666666678 15.901333333333332  22.254333333333346 15.712666666666665  21.01700000000001 15.561999999999998  C 21.01700000000001 15.583999999999998  21.01700000000001 15.627999999999998  21.01700000000001 15.651999999999997  L 20.96700000000001 15.651999999999997  C 20.93500000000001 15.873999999999997  20.89500000000001 16.205999999999996  20.867000000000008 16.571999999999996  C 20.83900000000001 16.971999999999998  20.82700000000001 17.287999999999997  20.82100000000001 17.476  C 21.13500000000001 17.535999999999998  21.45300000000001 17.592  21.771000000000008 17.656  C 26.90843289381815 18.656618691618295  31.870390121029725 20.408769824410644  36.49700000000001 22.855999999999998  C 36.48449561605607 25.524953248604277  35.65381906004017 28.12587833071792  34.11700000000001 30.308000000000003  C 32.03404470640432 33.484525424572304  29.32893267874283 36.20596609626394  26.165000000000006 38.308  C 25.62366666666668 37.18533333333333  25.11233333333334 36.05200000000001  24.631000000000007 34.908  C 26.479364862545623 35.00341126546214  28.31401267048049 34.5437045254329  29.899000000000008 33.588  C 30.499000000000013 33.14  30.55900000000001 33  30.55900000000001 32.988  C 30.158957587169517 33.23389375666603  29.728698678660187 33.42683798595068  29.279000000000014 33.562  C 27.814928372526637 34.10386963472645  26.24517503180919 34.29897635173669  24.693000000000012 34.132  C 27.56251165748433 31.73329052166805  30.22768604697426 29.100226666991244  32.660999999999994 26.259999999999998  C 33.477 25.304000000000002  34.260999999999996 24.326  34.99699999999999 23.340000000000003  L 34.92699999999999 23.290000000000003  L 34.95899999999998 23.252  C 34.47880169877263 22.87505056974932  33.975118677627464 22.52901899819335  33.450999999999986 22.216  L 32.820999999999984 22.948  C 29.397458691387172 26.88496496421726  25.415093146340517 30.298613670005132  21.001 33.08  C 18.71934354382994 31.73108402863575  16.899522740682542 29.723005901024823  15.781 27.32  C 14.076376358744884 23.927173490592658  13.073710507198873 20.22533660856186  12.833000000000002 16.436  C 13.979000000000003 16.52  15.199000000000002 16.648  16.465000000000003 16.805999999999997  C 15.487743851253569 18.344074763052312  14.985485342857878 20.136066338713395  15.021 21.958  C 15.025214806899111 22.255264551477243  15.087729564757048 22.548812110114497  15.205000000000002 22.822  C 15.195993153421817 22.351218177406327  15.244349060050224 21.88109130740794  15.349000000000004 21.421999999999997  C 15.604534284123332 19.913110626476236  16.201759007860637 18.48264453560028  17.095000000000002 17.24  C 17.735075814926212 20.92688867251584  18.681009871751996 24.55408418603027  19.923000000000002 28.083999999999996  C 20.343 29.26933333333333  20.795 30.429333333333332  21.279000000000003 31.563999999999993  L 21.357000000000003 31.533999999999995  L 21.379 31.57999999999999  C 21.579 31.495999999999995  21.895 31.366  22.223000000000003 31.205999999999996  C 22.585 31.029999999999998  22.863000000000003 30.881999999999994  23.023000000000003 30.789999999999992  C 22.915000000000003 30.489999999999995  22.807000000000002 30.18999999999999  22.703000000000003 29.87599999999999  C 21.002227904849466 24.930062725013187  20.039226629889136 19.760585621989616  19.845 14.533999999999999  C 21.70912363106646 13.444276968003248  23.825811977494155 12.86098109143067  25.985 12.842  Z " stroke-width="0" stroke-dasharray="0" stroke="rgba(255, 255, 255, 0)" fill="none" class="stroke" mask="url(#Clip6697)" />
    <path d="M 39.579 16.416000000000004  L 39.571 16.416  C 41.915 17.864  43.147 19.468  42.50099999999999 20.657999999999998  C 41.95405925948697 21.176797064684244  41.19307810668065 21.4047202002077  40.451 21.272000000000002  C 39.46833333333334 20.764000000000003  38.46833333333334 20.297333333333338  37.451 19.872000000000003  C 38.217 18.708000000000002  38.927 17.548000000000002  39.579 16.416000000000004  Z " stroke-width="0" stroke-dasharray="0" stroke="rgba(255, 255, 255, 0)" fill="none" class="stroke" mask="url(#Clip6697)" />
    <path d="M 37.491 23.46  L 37.504999999999995 23.451999999999998  C 40.11899999999999 25.098  41.934999999999995 26.971999999999998  42.105 28.965999999999998  C 42.136083934026225 29.302017077823603  42.06646206785583 29.63968312875002  41.90499999999999 29.935999999999996  C 41.84170152670815 30.0454764999367  41.76802961671033 30.148617173933648  41.684999999999995 30.243999999999996  C 41.01313670851993 30.85787429170903  40.192819892612405 31.285955588077588  39.30499999999999 31.485999999999994  C 37.79917881543777 31.83243368303679  36.26474668173716 32.03997031543085  34.721 32.105999999999995  C 34.811 31.965999999999994  34.900999999999996 31.841999999999995  34.991 31.705999999999996  C 36.627734774446544 29.26801652014298  37.4983351733247 26.39642816448327  37.491 23.46  Z " stroke-width="0" stroke-dasharray="0" stroke="rgba(255, 255, 255, 0)" fill="none" class="stroke" mask="url(#Clip6697)" />
    <path d="M 13.863000000000001 26.871999999999993  L 13.861 26.872000000000003  C 13.953000000000003 27.048  14.029 27.218  14.127000000000002 27.394000000000005  C 15.412034615673878 30.014291110434517  17.445016291604013 32.194822295196275  19.969 33.66  C 17.221 35.114  14.675 35.76199999999999  12.853000000000002 34.913999999999994  C 12.426261489362634 34.71953806052193  12.09852866914672 34.357802055868596  11.947000000000001 33.913999999999994  C 11.754852337296176 33.02553030325633  11.794802477383936 32.102544308125346  12.062999999999999 31.233999999999995  C 12.526986523561495 29.727525700826614  13.129562209518824 28.26728395519002  13.863000000000001 26.871999999999993  Z " stroke-width="0" stroke-dasharray="0" stroke="rgba(255, 255, 255, 0)" fill="none" class="stroke" mask="url(#Clip6697)" />
    <path d="M 23.059 35.418000000000006  L 23.061 35.418  C 23.687 36.668  24.335 37.864  24.988999999999997 38.996  C 22.565 40.300000000000004  20.565 40.566  19.857000000000003 39.410000000000004  C 19.826582071314164 39.35392085792609  19.80179436824461 39.294966320895796  19.783000000000005 39.23400000000001  C 19.71861797734918 38.548197055187146  19.921368913092923 37.86400220135225  20.349 37.324000000000005  C 21.255 36.74400000000001  22.163 36.102000000000004  23.059 35.418000000000006  Z " stroke-width="0" stroke-dasharray="0" stroke="rgba(255, 255, 255, 0)" fill="none" class="stroke" mask="url(#Clip6697)" />
  </g>
</svg>