<?xml version="1.0" encoding="utf-8"?>
<svg version="1.1" xmlns:xlink="http://www.w3.org/1999/xlink" width="24px" height="24px" xmlns="http://www.w3.org/2000/svg">
  <defs>
    <pattern id="BGPattern" patternUnits="userSpaceOnUse" alignment="0 0" imageRepeat="None" />
    <mask fill="white" id="Clip5851">
      <path d="M 3 0  L 21 0  C 22.65685424949238 0  24 1.3431457505076196  24 3  L 24 21  C 24 22.65685424949238  22.65685424949238 24  21 24  L 3 24  C 1.3431457505076196 24  0 22.65685424949238  0 21  L 0 3  C 0 1.3431457505076196  1.3431457505076196 0  3 0  Z M 21 1.5  L 3 1.5  C 2.1715728752538097 1.5  1.5 2.1715728752538097  1.5 3  L 1.5 21  C 1.5 21.82842712474619  2.1715728752538097 22.5  3 22.5  L 21 22.5  C 21.82842712474619 22.5  22.5 21.82842712474619  22.5 21  L 22.5 3  C 22.5 2.1715728752538097  21.82842712474619 1.5  21 1.5  Z " fill-rule="evenodd" />
    </mask>
  </defs>
  <g>
    <path d="M 3 0  L 21 0  C 22.65685424949238 0  24 1.3431457505076196  24 3  L 24 21  C 24 22.65685424949238  22.65685424949238 24  21 24  L 3 24  C 1.3431457505076196 24  0 22.65685424949238  0 21  L 0 3  C 0 1.3431457505076196  1.3431457505076196 0  3 0  Z M 21 1.5  L 3 1.5  C 2.1715728752538097 1.5  1.5 2.1715728752538097  1.5 3  L 1.5 21  C 1.5 21.82842712474619  2.1715728752538097 22.5  3 22.5  L 21 22.5  C 21.82842712474619 22.5  22.5 21.82842712474619  22.5 21  L 22.5 3  C 22.5 2.1715728752538097  21.82842712474619 1.5  21 1.5  Z " fill-rule="nonzero" fill="rgba(0, 0, 0, 1)" stroke="none" class="fill" />
    <path d="M 3 0  L 21 0  C 22.65685424949238 0  24 1.3431457505076196  24 3  L 24 21  C 24 22.65685424949238  22.65685424949238 24  21 24  L 3 24  C 1.3431457505076196 24  0 22.65685424949238  0 21  L 0 3  C 0 1.3431457505076196  1.3431457505076196 0  3 0  Z " stroke-width="0" stroke-dasharray="0" stroke="rgba(255, 255, 255, 0)" fill="none" class="stroke" mask="url(#Clip5851)" />
    <path d="M 21 1.5  L 3 1.5  C 2.1715728752538097 1.5  1.5 2.1715728752538097  1.5 3  L 1.5 21  C 1.5 21.82842712474619  2.1715728752538097 22.5  3 22.5  L 21 22.5  C 21.82842712474619 22.5  22.5 21.82842712474619  22.5 21  L 22.5 3  C 22.5 2.1715728752538097  21.82842712474619 1.5  21 1.5  Z " stroke-width="0" stroke-dasharray="0" stroke="rgba(255, 255, 255, 0)" fill="none" class="stroke" mask="url(#Clip5851)" />
  </g>
</svg>