<?xml version="1.0" encoding="utf-8"?>
<svg version="1.1" xmlns:xlink="http://www.w3.org/1999/xlink" width="42px" height="48px" xmlns="http://www.w3.org/2000/svg">
  <defs>
    <pattern id="BGPattern" patternUnits="userSpaceOnUse" alignment="0 0" imageRepeat="None" />
    <mask fill="white" id="Clip7508">
      <path d="M 41 12.004  L 32.394 6.584  L 24.176 11.562  L 33 16.954  L 33 31.108  L 20.922 38.184  L 9 31.107999999999997  L 9 20.137999999999998  L 1 15.912  L 1 36  L 20.63 48  L 41 36  L 41 12.004  Z M 20.394 9.572  L 28.586 4.606  L 20.626 0  L 12.330000000000002 5.136  L 20.394 9.572  Z " fill-rule="evenodd" />
    </mask>
  </defs>
  <g>
    <path d="M 41 12.004  L 32.394 6.584  L 24.176 11.562  L 33 16.954  L 33 31.108  L 20.922 38.184  L 9 31.107999999999997  L 9 20.137999999999998  L 1 15.912  L 1 36  L 20.63 48  L 41 36  L 41 12.004  Z M 20.394 9.572  L 28.586 4.606  L 20.626 0  L 12.330000000000002 5.136  L 20.394 9.572  Z " fill-rule="nonzero" fill="rgba(35, 150, 243, 1)" stroke="none" class="fill" />
    <path d="M 41 12.004  L 32.394 6.584  L 24.176 11.562  L 33 16.954  L 33 31.108  L 20.922 38.184  L 9 31.107999999999997  L 9 20.137999999999998  L 1 15.912  L 1 36  L 20.63 48  L 41 36  L 41 12.004  Z " stroke-width="0" stroke-dasharray="0" stroke="rgba(255, 255, 255, 0)" fill="none" class="stroke" mask="url(#Clip7508)" />
    <path d="M 20.394 9.572  L 28.586 4.606  L 20.626 0  L 12.330000000000002 5.136  L 20.394 9.572  Z " stroke-width="0" stroke-dasharray="0" stroke="rgba(255, 255, 255, 0)" fill="none" class="stroke" mask="url(#Clip7508)" />
  </g>
</svg>