<?xml version="1.0" encoding="utf-8"?>
<svg version="1.1" xmlns:xlink="http://www.w3.org/1999/xlink" width="24px" height="22px" xmlns="http://www.w3.org/2000/svg">
  <defs>
    <pattern id="BGPattern" patternUnits="userSpaceOnUse" alignment="0 0" imageRepeat="None" />
    <mask fill="white" id="Clip5025">
      <path d="M 15.533999999999999 16.277  L 16.4415 17.547500000000003  C 16.869324228425146 17.09160690152881  17.14320491513503 16.5128896650518  17.2245 15.892999999999999  L 21.889499999999998 17.966  C 22.081643499352836 18.051614204738453  22.28964587343105 18.09585782410828  22.5000001374633 18.09585782410828  C 23.32817648803315 18.09585782410828  23.99964544340905 17.42467627467395  24 16.5965  L 24 5.4035  C 23.9992773062503 4.575584481772109  23.3279164051257 3.9048093609042045  22.500000571475436 3.9048093609042045  C 22.290199440461585 3.9048093609042045  22.08273156954805 3.9488206608775815  21.891 4.034  L 17.2245 6.106999999999999  C 17.027334255191512 4.61488814105495  15.755082090513907 3.499822955876093  14.25 3.5  L 6.408 3.5  L 7.479000000000001 5  L 14.25 5  C 15.07842712474619 5  15.75 5.671572875253811  15.75 6.5  L 15.75 15.5  C 15.750280246082216 15.773861785835134  15.675580233256182 16.042574331973224  15.533999999999999 16.277  Z M 2.1405000000000003 5.27  L 2.142 5.270000000000001  C 1.7396466769027157 5.55026699005455  1.4998683032253157 6.009655462987886  1.5 6.5  L 1.5 15.5  C 1.5 16.32842712474619  2.1715728752538097 17  3 17  L 10.521 17  L 11.591999999999999 18.5  L 3 18.5  C 1.3431457505076196 18.5  0 17.15685424949238  0 15.5  L 0 6.5  C 0 5.487500000000001  0.501 4.592  1.2705 4.049  L 2.1405000000000003 5.27  Z M 17.110500000000002 21.065  L 15.8895 21.935000000000002  L 0.8895 0.9350000000000014  L 2.1105 0.0650000000000015  L 17.110500000000002 21.065  Z M 22.5 5.4035  L 22.5 16.595  L 17.25 14.262500000000001  L 17.25 7.737500000000001  L 22.5 5.4035  Z " fill-rule="evenodd" />
    </mask>
  </defs>
  <g>
    <path d="M 15.533999999999999 16.277  L 16.4415 17.547500000000003  C 16.869324228425146 17.09160690152881  17.14320491513503 16.5128896650518  17.2245 15.892999999999999  L 21.889499999999998 17.966  C 22.081643499352836 18.051614204738453  22.28964587343105 18.09585782410828  22.5000001374633 18.09585782410828  C 23.32817648803315 18.09585782410828  23.99964544340905 17.42467627467395  24 16.5965  L 24 5.4035  C 23.9992773062503 4.575584481772109  23.3279164051257 3.9048093609042045  22.500000571475436 3.9048093609042045  C 22.290199440461585 3.9048093609042045  22.08273156954805 3.9488206608775815  21.891 4.034  L 17.2245 6.106999999999999  C 17.027334255191512 4.61488814105495  15.755082090513907 3.499822955876093  14.25 3.5  L 6.408 3.5  L 7.479000000000001 5  L 14.25 5  C 15.07842712474619 5  15.75 5.671572875253811  15.75 6.5  L 15.75 15.5  C 15.750280246082216 15.773861785835134  15.675580233256182 16.042574331973224  15.533999999999999 16.277  Z M 2.1405000000000003 5.27  L 2.142 5.270000000000001  C 1.7396466769027157 5.55026699005455  1.4998683032253157 6.009655462987886  1.5 6.5  L 1.5 15.5  C 1.5 16.32842712474619  2.1715728752538097 17  3 17  L 10.521 17  L 11.591999999999999 18.5  L 3 18.5  C 1.3431457505076196 18.5  0 17.15685424949238  0 15.5  L 0 6.5  C 0 5.487500000000001  0.501 4.592  1.2705 4.049  L 2.1405000000000003 5.27  Z M 17.110500000000002 21.065  L 15.8895 21.935000000000002  L 0.8895 0.9350000000000014  L 2.1105 0.0650000000000015  L 17.110500000000002 21.065  Z M 22.5 5.4035  L 22.5 16.595  L 17.25 14.262500000000001  L 17.25 7.737500000000001  L 22.5 5.4035  Z " fill-rule="nonzero" fill="rgba(0, 0, 0, 1)" stroke="none" class="fill" />
    <path d="M 15.533999999999999 16.277  L 16.4415 17.547500000000003  C 16.869324228425146 17.09160690152881  17.14320491513503 16.5128896650518  17.2245 15.892999999999999  L 21.889499999999998 17.966  C 22.081643499352836 18.051614204738453  22.28964587343105 18.09585782410828  22.5000001374633 18.09585782410828  C 23.32817648803315 18.09585782410828  23.99964544340905 17.42467627467395  24 16.5965  L 24 5.4035  C 23.9992773062503 4.575584481772109  23.3279164051257 3.9048093609042045  22.500000571475436 3.9048093609042045  C 22.290199440461585 3.9048093609042045  22.08273156954805 3.9488206608775815  21.891 4.034  L 17.2245 6.106999999999999  C 17.027334255191512 4.61488814105495  15.755082090513907 3.499822955876093  14.25 3.5  L 6.408 3.5  L 7.479000000000001 5  L 14.25 5  C 15.07842712474619 5  15.75 5.671572875253811  15.75 6.5  L 15.75 15.5  C 15.750280246082216 15.773861785835134  15.675580233256182 16.042574331973224  15.533999999999999 16.277  Z " stroke-width="0" stroke-dasharray="0" stroke="rgba(255, 255, 255, 0)" fill="none" class="stroke" mask="url(#Clip5025)" />
    <path d="M 2.1405000000000003 5.27  L 2.142 5.270000000000001  C 1.7396466769027157 5.55026699005455  1.4998683032253157 6.009655462987886  1.5 6.5  L 1.5 15.5  C 1.5 16.32842712474619  2.1715728752538097 17  3 17  L 10.521 17  L 11.591999999999999 18.5  L 3 18.5  C 1.3431457505076196 18.5  0 17.15685424949238  0 15.5  L 0 6.5  C 0 5.487500000000001  0.501 4.592  1.2705 4.049  L 2.1405000000000003 5.27  Z " stroke-width="0" stroke-dasharray="0" stroke="rgba(255, 255, 255, 0)" fill="none" class="stroke" mask="url(#Clip5025)" />
    <path d="M 17.110500000000002 21.065  L 15.8895 21.935000000000002  L 0.8895 0.9350000000000014  L 2.1105 0.0650000000000015  L 17.110500000000002 21.065  Z " stroke-width="0" stroke-dasharray="0" stroke="rgba(255, 255, 255, 0)" fill="none" class="stroke" mask="url(#Clip5025)" />
    <path d="M 22.5 5.4035  L 22.5 16.595  L 17.25 14.262500000000001  L 17.25 7.737500000000001  L 22.5 5.4035  Z " stroke-width="0" stroke-dasharray="0" stroke="rgba(255, 255, 255, 0)" fill="none" class="stroke" mask="url(#Clip5025)" />
  </g>
</svg>