<?xml version="1.0" encoding="utf-8"?>
<svg version="1.1" xmlns:xlink="http://www.w3.org/1999/xlink" width="28px" height="28px" xmlns="http://www.w3.org/2000/svg">
  <defs>
    <pattern id="BGPattern" patternUnits="userSpaceOnUse" alignment="0 0" imageRepeat="None" />
    <mask fill="white" id="Clip3385">
      <path d="M 28 14  C 28 6.268013502368892  21.73198649763111 0  14 0  C 6.268013502368892 0  0 6.268013502368892  0 14  C 0 21.73198649763111  6.268013502368892 28  14 28  C 21.73198649763111 28  28 21.73198649763111  28 14  Z M 20 3.6200000000000006  C 23.13191111484864 5.433980297334425  25.277797697719762 8.564623051797088  25.84 12.14  L 20 15.52  L 20 3.6200000000000006  Z M 14 19  L 10 16.68  L 10 11.32  L 14 9  L 18 11.310000000000002  L 18 16.67  L 14 19  Z M 18 2.700000000000001  L 18 2.6800000000000006  L 18 9  L 8.34 3.42  C 11.312204997443072 1.820994365839196  14.823591559965951 1.5592761127319008  18 2.700000000000001  Z M 6.480000000000001 4.66  L 6.480000000000001 4.680000000000001  L 12 7.85  L 2.000000000000001 13.619999999999997  C 2.1156729716508984 10.123034478841664  3.7518313660638722 6.850717690015718  6.480000000000001 4.66  Z M 8 24.38  C 4.865618859286978 22.563893919824228  2.7193795240018197 19.429061466060116  2.160000000000001 15.850000000000003  L 8 12.470000000000002  L 8 24.38  Z M 14 26  C 12.636668078987004 25.99462768066868  11.284133601162342 25.75793414704936  10 25.3  L 10 19  L 19.67 24.580000000000002  C 17.92714166675556 25.516570874783774  15.978559889974807 26.004575482019874  14 26  Z M 21.52 23.339999999999996  L 21.52 23.3  L 16 20.14  L 25.999999999999996 14.370000000000001  C 25.88721052537342 17.870500148412667  24.25077125990282 21.147031445571447  21.52 23.339999999999996  Z " fill-rule="evenodd" />
    </mask>
  </defs>
  <g transform="matrix(1 0 0 1 -2 -2 )">
    <path d="M 28 14  C 28 6.268013502368892  21.73198649763111 0  14 0  C 6.268013502368892 0  0 6.268013502368892  0 14  C 0 21.73198649763111  6.268013502368892 28  14 28  C 21.73198649763111 28  28 21.73198649763111  28 14  Z M 20 3.6200000000000006  C 23.13191111484864 5.433980297334425  25.277797697719762 8.564623051797088  25.84 12.14  L 20 15.52  L 20 3.6200000000000006  Z M 14 19  L 10 16.68  L 10 11.32  L 14 9  L 18 11.310000000000002  L 18 16.67  L 14 19  Z M 18 2.700000000000001  L 18 2.6800000000000006  L 18 9  L 8.34 3.42  C 11.312204997443072 1.820994365839196  14.823591559965951 1.5592761127319008  18 2.700000000000001  Z M 6.480000000000001 4.66  L 6.480000000000001 4.680000000000001  L 12 7.85  L 2.000000000000001 13.619999999999997  C 2.1156729716508984 10.123034478841664  3.7518313660638722 6.850717690015718  6.480000000000001 4.66  Z M 8 24.38  C 4.865618859286978 22.563893919824228  2.7193795240018197 19.429061466060116  2.160000000000001 15.850000000000003  L 8 12.470000000000002  L 8 24.38  Z M 14 26  C 12.636668078987004 25.99462768066868  11.284133601162342 25.75793414704936  10 25.3  L 10 19  L 19.67 24.580000000000002  C 17.92714166675556 25.516570874783774  15.978559889974807 26.004575482019874  14 26  Z M 21.52 23.339999999999996  L 21.52 23.3  L 16 20.14  L 25.999999999999996 14.370000000000001  C 25.88721052537342 17.870500148412667  24.25077125990282 21.147031445571447  21.52 23.339999999999996  Z " fill-rule="nonzero" fill="rgba(0, 0, 0, 1)" stroke="none" transform="matrix(1 0 0 1 2 2 )" class="fill" />
    <path d="M 28 14  C 28 6.268013502368892  21.73198649763111 0  14 0  C 6.268013502368892 0  0 6.268013502368892  0 14  C 0 21.73198649763111  6.268013502368892 28  14 28  C 21.73198649763111 28  28 21.73198649763111  28 14  Z " stroke-width="0" stroke-dasharray="0" stroke="rgba(255, 255, 255, 0)" fill="none" transform="matrix(1 0 0 1 2 2 )" class="stroke" mask="url(#Clip3385)" />
    <path d="M 20 3.6200000000000006  C 23.13191111484864 5.433980297334425  25.277797697719762 8.564623051797088  25.84 12.14  L 20 15.52  L 20 3.6200000000000006  Z " stroke-width="0" stroke-dasharray="0" stroke="rgba(255, 255, 255, 0)" fill="none" transform="matrix(1 0 0 1 2 2 )" class="stroke" mask="url(#Clip3385)" />
    <path d="M 14 19  L 10 16.68  L 10 11.32  L 14 9  L 18 11.310000000000002  L 18 16.67  L 14 19  Z " stroke-width="0" stroke-dasharray="0" stroke="rgba(255, 255, 255, 0)" fill="none" transform="matrix(1 0 0 1 2 2 )" class="stroke" mask="url(#Clip3385)" />
    <path d="M 18 2.700000000000001  L 18 2.6800000000000006  L 18 9  L 8.34 3.42  C 11.312204997443072 1.820994365839196  14.823591559965951 1.5592761127319008  18 2.700000000000001  Z " stroke-width="0" stroke-dasharray="0" stroke="rgba(255, 255, 255, 0)" fill="none" transform="matrix(1 0 0 1 2 2 )" class="stroke" mask="url(#Clip3385)" />
    <path d="M 6.480000000000001 4.66  L 6.480000000000001 4.680000000000001  L 12 7.85  L 2.000000000000001 13.619999999999997  C 2.1156729716508984 10.123034478841664  3.7518313660638722 6.850717690015718  6.480000000000001 4.66  Z " stroke-width="0" stroke-dasharray="0" stroke="rgba(255, 255, 255, 0)" fill="none" transform="matrix(1 0 0 1 2 2 )" class="stroke" mask="url(#Clip3385)" />
    <path d="M 8 24.38  C 4.865618859286978 22.563893919824228  2.7193795240018197 19.429061466060116  2.160000000000001 15.850000000000003  L 8 12.470000000000002  L 8 24.38  Z " stroke-width="0" stroke-dasharray="0" stroke="rgba(255, 255, 255, 0)" fill="none" transform="matrix(1 0 0 1 2 2 )" class="stroke" mask="url(#Clip3385)" />
    <path d="M 14 26  C 12.636668078987004 25.99462768066868  11.284133601162342 25.75793414704936  10 25.3  L 10 19  L 19.67 24.580000000000002  C 17.92714166675556 25.516570874783774  15.978559889974807 26.004575482019874  14 26  Z " stroke-width="0" stroke-dasharray="0" stroke="rgba(255, 255, 255, 0)" fill="none" transform="matrix(1 0 0 1 2 2 )" class="stroke" mask="url(#Clip3385)" />
    <path d="M 21.52 23.339999999999996  L 21.52 23.3  L 16 20.14  L 25.999999999999996 14.370000000000001  C 25.88721052537342 17.870500148412667  24.25077125990282 21.147031445571447  21.52 23.339999999999996  Z " stroke-width="0" stroke-dasharray="0" stroke="rgba(255, 255, 255, 0)" fill="none" transform="matrix(1 0 0 1 2 2 )" class="stroke" mask="url(#Clip3385)" />
  </g>
</svg>