<?xml version="1.0" encoding="utf-8"?>
<svg version="1.1" xmlns:xlink="http://www.w3.org/1999/xlink" width="43px" height="50px" xmlns="http://www.w3.org/2000/svg">
  <defs>
    <pattern id="BGPattern" patternUnits="userSpaceOnUse" alignment="0 0" imageRepeat="None" />
    <mask fill="white" id="Clip927">
      <path d="M 40.58557504873295 31.261306042884996  C 42.707212475633526 38.089766081871346  42.01988304093567 40.91559454191031  41.49649122807017 40.97904483430801  C 40.373099415204706 41.11481481481479  37.124171539961026 35.83859649122809  37.124171539961026 35.83859649122809  C 37.124171539961026 38.89366471734894  35.551461988304084 42.88021442495125  32.14844054580897 45.75925925925924  C 33.78996101364521 46.26530214424952  37.493762183235845 47.62738791423004  36.61267056530215 49.114132553606225  C 35.899610136452225 50.31715399610135  24.379727095516554 49.882261208577006  21.053996101364532 49.50760233918129  C 17.72826510721245 49.882261208577006  6.2083820662767835 50.31715399610135  5.495321637426912 49.114132553606225  C 4.613742690058473 47.627777777777794  8.3138401559454 46.26676413255359  9.957602339181278 45.75984405458087  C 6.554093567251471 42.880799220272934  4.981091617933714 38.89385964912282  4.981091617933714 35.83859649122809  C 4.981091617933714 35.83859649122809  1.732163742690062 41.11481481481479  0.6088693957115083 40.979044834307956  C 0.08547758284601059 40.91569200779725  -0.602046783625724 38.089766081871346  1.5198830409356674 31.261306042884996  C 2.5199805068226055 28.042592592592598  3.663645224171546 25.36676413255361  5.432553606237832 20.95146198830409  C 5.1347953216374265 9.557797270955177  9.842300194931795 0.000584795321628917  21.0526315789474 0  C 32.13810916179335 0.000584795321628917  36.954775828460015 9.369688109161785  36.672904483430784 20.951559454191027  C 38.43879142300193 25.35925925925926  39.588304093567274 28.05194931773877  40.58557504873295 31.261306042884996  Z " fill-rule="evenodd" />
    </mask>
  </defs>
  <g>
    <path d="M 40.58557504873295 31.261306042884996  C 42.707212475633526 38.089766081871346  42.01988304093567 40.91559454191031  41.49649122807017 40.97904483430801  C 40.373099415204706 41.11481481481479  37.124171539961026 35.83859649122809  37.124171539961026 35.83859649122809  C 37.124171539961026 38.89366471734894  35.551461988304084 42.88021442495125  32.14844054580897 45.75925925925924  C 33.78996101364521 46.26530214424952  37.493762183235845 47.62738791423004  36.61267056530215 49.114132553606225  C 35.899610136452225 50.31715399610135  24.379727095516554 49.882261208577006  21.053996101364532 49.50760233918129  C 17.72826510721245 49.882261208577006  6.2083820662767835 50.31715399610135  5.495321637426912 49.114132553606225  C 4.613742690058473 47.627777777777794  8.3138401559454 46.26676413255359  9.957602339181278 45.75984405458087  C 6.554093567251471 42.880799220272934  4.981091617933714 38.89385964912282  4.981091617933714 35.83859649122809  C 4.981091617933714 35.83859649122809  1.732163742690062 41.11481481481479  0.6088693957115083 40.979044834307956  C 0.08547758284601059 40.91569200779725  -0.602046783625724 38.089766081871346  1.5198830409356674 31.261306042884996  C 2.5199805068226055 28.042592592592598  3.663645224171546 25.36676413255361  5.432553606237832 20.95146198830409  C 5.1347953216374265 9.557797270955177  9.842300194931795 0.000584795321628917  21.0526315789474 0  C 32.13810916179335 0.000584795321628917  36.954775828460015 9.369688109161785  36.672904483430784 20.951559454191027  C 38.43879142300193 25.35925925925926  39.588304093567274 28.05194931773877  40.58557504873295 31.261306042884996  Z " fill-rule="nonzero" fill="rgba(0, 0, 0, 1)" stroke="none" class="fill" />
    <path d="M 40.58557504873295 31.261306042884996  C 42.707212475633526 38.089766081871346  42.01988304093567 40.91559454191031  41.49649122807017 40.97904483430801  C 40.373099415204706 41.11481481481479  37.124171539961026 35.83859649122809  37.124171539961026 35.83859649122809  C 37.124171539961026 38.89366471734894  35.551461988304084 42.88021442495125  32.14844054580897 45.75925925925924  C 33.78996101364521 46.26530214424952  37.493762183235845 47.62738791423004  36.61267056530215 49.114132553606225  C 35.899610136452225 50.31715399610135  24.379727095516554 49.882261208577006  21.053996101364532 49.50760233918129  C 17.72826510721245 49.882261208577006  6.2083820662767835 50.31715399610135  5.495321637426912 49.114132553606225  C 4.613742690058473 47.627777777777794  8.3138401559454 46.26676413255359  9.957602339181278 45.75984405458087  C 6.554093567251471 42.880799220272934  4.981091617933714 38.89385964912282  4.981091617933714 35.83859649122809  C 4.981091617933714 35.83859649122809  1.732163742690062 41.11481481481479  0.6088693957115083 40.979044834307956  C 0.08547758284601059 40.91569200779725  -0.602046783625724 38.089766081871346  1.5198830409356674 31.261306042884996  C 2.5199805068226055 28.042592592592598  3.663645224171546 25.36676413255361  5.432553606237832 20.95146198830409  C 5.1347953216374265 9.557797270955177  9.842300194931795 0.000584795321628917  21.0526315789474 0  C 32.13810916179335 0.000584795321628917  36.954775828460015 9.369688109161785  36.672904483430784 20.951559454191027  C 38.43879142300193 25.35925925925926  39.588304093567274 28.05194931773877  40.58557504873295 31.261306042884996  Z " stroke-width="0" stroke-dasharray="0" stroke="rgba(255, 255, 255, 0)" fill="none" class="stroke" mask="url(#Clip927)" />
  </g>
</svg>