<?xml version="1.0" encoding="utf-8"?>
<svg version="1.1" xmlns:xlink="http://www.w3.org/1999/xlink" width="50px" height="35px" xmlns="http://www.w3.org/2000/svg">
  <defs>
    <pattern id="BGPattern" patternUnits="userSpaceOnUse" alignment="0 0" imageRepeat="None" />
    <mask fill="white" id="Clip2133">
      <path d="M 2.5 10  C 2.5 12.7578125  4.7421875 15  7.5 15  C 10.2578125 15  12.5 12.7578125  12.5 10  C 12.5 7.242187499999999  10.2578125 5  7.5 5  C 4.7421875 5  2.5 7.242187499999999  2.5 10  Z M 37.5 10  C 37.5 12.7578125  39.7421875 15  42.5 15  C 45.2578125 15  47.5 12.7578125  47.5 10  C 47.5 7.242187499999999  45.2578125 5  42.5 5  C 39.7421875 5  37.5 7.242187499999999  37.5 10  Z M 50 22.5  C 50 19.7421875  47.7578125 17.5  45 17.5  L 40 17.5  C 38.625 17.5  37.3828125 18.0546875  36.4765625 18.953125  C 39.625 20.6796875  41.859375 23.796875  42.34375 27.5  L 47.5 27.5  C 48.8828125 27.5  50 26.3828125  50 25  L 50 22.5  Z M 16.25 8.75  C 16.25 13.5859375  20.1640625 17.5  25 17.5  C 29.8359375 17.5  33.75 13.5859375  33.75 8.75  C 33.75 3.9140625  29.8359375 0  25 0  C 20.1640625 0  16.25 3.9140625  16.25 8.75  Z M 40 29.000000000000004  C 40 24.03125  35.96875 20  31 20  L 30.3515625 20  C 28.726562500000004 20.78125  26.921875 21.25  25 21.25  C 23.078125 21.25  21.28125 20.78125  19.6484375 20  L 19 20  C 14.03125 20  10 24.03125  10 29.000000000000004  L 10 31.25  C 10 33.3203125  11.6796875 35  13.750000000000002 35  L 36.25 35  C 38.3203125 35  40 33.3203125  40 31.25  L 40 29.000000000000004  Z M 7.648437499999999 27.5  C 8.140625 23.796875  10.375 20.6796875  13.523437499999998 18.953125  C 12.617187499999998 18.0546875  11.375 17.5  10 17.5  L 5 17.5  C 2.2421875 17.5  0 19.7421875  0 22.5  L 0 25  C 0 26.3828125  1.1171875 27.5  2.5 27.5  L 7.648437499999999 27.5  Z " fill-rule="evenodd" />
    </mask>
  </defs>
  <g>
    <path d="M 2.5 10  C 2.5 12.7578125  4.7421875 15  7.5 15  C 10.2578125 15  12.5 12.7578125  12.5 10  C 12.5 7.242187499999999  10.2578125 5  7.5 5  C 4.7421875 5  2.5 7.242187499999999  2.5 10  Z M 37.5 10  C 37.5 12.7578125  39.7421875 15  42.5 15  C 45.2578125 15  47.5 12.7578125  47.5 10  C 47.5 7.242187499999999  45.2578125 5  42.5 5  C 39.7421875 5  37.5 7.242187499999999  37.5 10  Z M 50 22.5  C 50 19.7421875  47.7578125 17.5  45 17.5  L 40 17.5  C 38.625 17.5  37.3828125 18.0546875  36.4765625 18.953125  C 39.625 20.6796875  41.859375 23.796875  42.34375 27.5  L 47.5 27.5  C 48.8828125 27.5  50 26.3828125  50 25  L 50 22.5  Z M 16.25 8.75  C 16.25 13.5859375  20.1640625 17.5  25 17.5  C 29.8359375 17.5  33.75 13.5859375  33.75 8.75  C 33.75 3.9140625  29.8359375 0  25 0  C 20.1640625 0  16.25 3.9140625  16.25 8.75  Z M 40 29.000000000000004  C 40 24.03125  35.96875 20  31 20  L 30.3515625 20  C 28.726562500000004 20.78125  26.921875 21.25  25 21.25  C 23.078125 21.25  21.28125 20.78125  19.6484375 20  L 19 20  C 14.03125 20  10 24.03125  10 29.000000000000004  L 10 31.25  C 10 33.3203125  11.6796875 35  13.750000000000002 35  L 36.25 35  C 38.3203125 35  40 33.3203125  40 31.25  L 40 29.000000000000004  Z M 7.648437499999999 27.5  C 8.140625 23.796875  10.375 20.6796875  13.523437499999998 18.953125  C 12.617187499999998 18.0546875  11.375 17.5  10 17.5  L 5 17.5  C 2.2421875 17.5  0 19.7421875  0 22.5  L 0 25  C 0 26.3828125  1.1171875 27.5  2.5 27.5  L 7.648437499999999 27.5  Z " fill-rule="nonzero" fill="rgba(0, 0, 0, 1)" stroke="none" class="fill" />
    <path d="M 2.5 10  C 2.5 12.7578125  4.7421875 15  7.5 15  C 10.2578125 15  12.5 12.7578125  12.5 10  C 12.5 7.242187499999999  10.2578125 5  7.5 5  C 4.7421875 5  2.5 7.242187499999999  2.5 10  Z " stroke-width="0" stroke-dasharray="0" stroke="rgba(255, 255, 255, 0)" fill="none" class="stroke" mask="url(#Clip2133)" />
    <path d="M 37.5 10  C 37.5 12.7578125  39.7421875 15  42.5 15  C 45.2578125 15  47.5 12.7578125  47.5 10  C 47.5 7.242187499999999  45.2578125 5  42.5 5  C 39.7421875 5  37.5 7.242187499999999  37.5 10  Z " stroke-width="0" stroke-dasharray="0" stroke="rgba(255, 255, 255, 0)" fill="none" class="stroke" mask="url(#Clip2133)" />
    <path d="M 50 22.5  C 50 19.7421875  47.7578125 17.5  45 17.5  L 40 17.5  C 38.625 17.5  37.3828125 18.0546875  36.4765625 18.953125  C 39.625 20.6796875  41.859375 23.796875  42.34375 27.5  L 47.5 27.5  C 48.8828125 27.5  50 26.3828125  50 25  L 50 22.5  Z " stroke-width="0" stroke-dasharray="0" stroke="rgba(255, 255, 255, 0)" fill="none" class="stroke" mask="url(#Clip2133)" />
    <path d="M 16.25 8.75  C 16.25 13.5859375  20.1640625 17.5  25 17.5  C 29.8359375 17.5  33.75 13.5859375  33.75 8.75  C 33.75 3.9140625  29.8359375 0  25 0  C 20.1640625 0  16.25 3.9140625  16.25 8.75  Z " stroke-width="0" stroke-dasharray="0" stroke="rgba(255, 255, 255, 0)" fill="none" class="stroke" mask="url(#Clip2133)" />
    <path d="M 40 29.000000000000004  C 40 24.03125  35.96875 20  31 20  L 30.3515625 20  C 28.726562500000004 20.78125  26.921875 21.25  25 21.25  C 23.078125 21.25  21.28125 20.78125  19.6484375 20  L 19 20  C 14.03125 20  10 24.03125  10 29.000000000000004  L 10 31.25  C 10 33.3203125  11.6796875 35  13.750000000000002 35  L 36.25 35  C 38.3203125 35  40 33.3203125  40 31.25  L 40 29.000000000000004  Z " stroke-width="0" stroke-dasharray="0" stroke="rgba(255, 255, 255, 0)" fill="none" class="stroke" mask="url(#Clip2133)" />
    <path d="M 7.648437499999999 27.5  C 8.140625 23.796875  10.375 20.6796875  13.523437499999998 18.953125  C 12.617187499999998 18.0546875  11.375 17.5  10 17.5  L 5 17.5  C 2.2421875 17.5  0 19.7421875  0 22.5  L 0 25  C 0 26.3828125  1.1171875 27.5  2.5 27.5  L 7.648437499999999 27.5  Z " stroke-width="0" stroke-dasharray="0" stroke="rgba(255, 255, 255, 0)" fill="none" class="stroke" mask="url(#Clip2133)" />
  </g>
</svg>