<?xml version="1.0" encoding="utf-8"?>
<svg version="1.1" xmlns:xlink="http://www.w3.org/1999/xlink" width="50px" height="50px" xmlns="http://www.w3.org/2000/svg">
  <defs>
    <pattern id="BGPattern" patternUnits="userSpaceOnUse" alignment="0 0" imageRepeat="None" />
    <mask fill="white" id="Clip812">
      <path d="M 50 5.357142857142861  C 50 2.3995535714285836  47.600446428571445 0  44.64285714285717 0  L 5.357142857142833 0  C 2.399553571428555 0  0 2.3995535714285836  0 5.357142857142861  L 0 44.64285714285717  C 0 47.600446428571445  2.399553571428555 50  5.357142857142833 50  L 44.64285714285717 50  C 47.600446428571445 50  50 47.600446428571445  50 44.64285714285717  L 50 5.357142857142861  Z M 29.017857142857167 25.267857142857135  C 29.017857142857167 31.640625  24.743303571428555 36.16071428571428  18.303571428571445 36.16071428571428  C 12.131696428571445 36.16071428571428  7.142857142857167 31.171875  7.142857142857167 25  C 7.142857142857167 18.828125  12.131696428571445 13.839285714285724  18.303571428571445 13.839285714285724  C 21.316964285714278 13.839285714285724  23.828125 14.933035714285722  25.78125 16.76339285714286  L 22.756696428571445 19.676339285714278  C 21.930803571428555 18.883928571428555  20.491071428571445 17.957589285714278  18.314732142857167 17.957589285714278  C 14.508928571428555 17.957589285714278  11.40625 21.104910714285722  11.40625 25.011160714285722  C 11.40625 28.90625  14.508928571428555 32.06473214285714  18.314732142857167 32.06473214285714  C 22.734375 32.06473214285714  24.386160714285722 28.88392857142856  24.65401785714289 27.254464285714274  L 18.303571428571445 27.254464285714274  L 18.303571428571445 24  L 28.839285714285722 24  C 28.950892857142836 23.973214285714278  29.017857142857167 24.542410714285694  29.017857142857167 25.267857142857135  Z M 42.85714285714283 23.772321428571416  L 42.85714285714283 27.03125  L 39.62053571428572 27.03125  L 39.62053571428572 30.267857142857142  L 36.36160714285717 30.267857142857142  L 36.36160714285717 27.03125  L 33.125 27.03125  L 33.125 23.772321428571416  L 36.36160714285717 23.772321428571416  L 36.36160714285717 20.535714285714278  L 39.62053571428572 20.535714285714278  L 39.62053571428572 23.772321428571416  L 42.85714285714283 23.772321428571416  Z " fill-rule="evenodd" />
    </mask>
  </defs>
  <g>
    <path d="M 50 5.357142857142861  C 50 2.3995535714285836  47.600446428571445 0  44.64285714285717 0  L 5.357142857142833 0  C 2.399553571428555 0  0 2.3995535714285836  0 5.357142857142861  L 0 44.64285714285717  C 0 47.600446428571445  2.399553571428555 50  5.357142857142833 50  L 44.64285714285717 50  C 47.600446428571445 50  50 47.600446428571445  50 44.64285714285717  L 50 5.357142857142861  Z M 29.017857142857167 25.267857142857135  C 29.017857142857167 31.640625  24.743303571428555 36.16071428571428  18.303571428571445 36.16071428571428  C 12.131696428571445 36.16071428571428  7.142857142857167 31.171875  7.142857142857167 25  C 7.142857142857167 18.828125  12.131696428571445 13.839285714285724  18.303571428571445 13.839285714285724  C 21.316964285714278 13.839285714285724  23.828125 14.933035714285722  25.78125 16.76339285714286  L 22.756696428571445 19.676339285714278  C 21.930803571428555 18.883928571428555  20.491071428571445 17.957589285714278  18.314732142857167 17.957589285714278  C 14.508928571428555 17.957589285714278  11.40625 21.104910714285722  11.40625 25.011160714285722  C 11.40625 28.90625  14.508928571428555 32.06473214285714  18.314732142857167 32.06473214285714  C 22.734375 32.06473214285714  24.386160714285722 28.88392857142856  24.65401785714289 27.254464285714274  L 18.303571428571445 27.254464285714274  L 18.303571428571445 24  L 28.839285714285722 24  C 28.950892857142836 23.973214285714278  29.017857142857167 24.542410714285694  29.017857142857167 25.267857142857135  Z M 42.85714285714283 23.772321428571416  L 42.85714285714283 27.03125  L 39.62053571428572 27.03125  L 39.62053571428572 30.267857142857142  L 36.36160714285717 30.267857142857142  L 36.36160714285717 27.03125  L 33.125 27.03125  L 33.125 23.772321428571416  L 36.36160714285717 23.772321428571416  L 36.36160714285717 20.535714285714278  L 39.62053571428572 20.535714285714278  L 39.62053571428572 23.772321428571416  L 42.85714285714283 23.772321428571416  Z " fill-rule="nonzero" fill="rgba(0, 0, 0, 1)" stroke="none" class="fill" />
    <path d="M 50 5.357142857142861  C 50 2.3995535714285836  47.600446428571445 0  44.64285714285717 0  L 5.357142857142833 0  C 2.399553571428555 0  0 2.3995535714285836  0 5.357142857142861  L 0 44.64285714285717  C 0 47.600446428571445  2.399553571428555 50  5.357142857142833 50  L 44.64285714285717 50  C 47.600446428571445 50  50 47.600446428571445  50 44.64285714285717  L 50 5.357142857142861  Z " stroke-width="0" stroke-dasharray="0" stroke="rgba(255, 255, 255, 0)" fill="none" class="stroke" mask="url(#Clip812)" />
    <path d="M 29.017857142857167 25.267857142857135  C 29.017857142857167 31.640625  24.743303571428555 36.16071428571428  18.303571428571445 36.16071428571428  C 12.131696428571445 36.16071428571428  7.142857142857167 31.171875  7.142857142857167 25  C 7.142857142857167 18.828125  12.131696428571445 13.839285714285724  18.303571428571445 13.839285714285724  C 21.316964285714278 13.839285714285724  23.828125 14.933035714285722  25.78125 16.76339285714286  L 22.756696428571445 19.676339285714278  C 21.930803571428555 18.883928571428555  20.491071428571445 17.957589285714278  18.314732142857167 17.957589285714278  C 14.508928571428555 17.957589285714278  11.40625 21.104910714285722  11.40625 25.011160714285722  C 11.40625 28.90625  14.508928571428555 32.06473214285714  18.314732142857167 32.06473214285714  C 22.734375 32.06473214285714  24.386160714285722 28.88392857142856  24.65401785714289 27.254464285714274  L 18.303571428571445 27.254464285714274  L 18.303571428571445 24  L 28.839285714285722 24  C 28.950892857142836 23.973214285714278  29.017857142857167 24.542410714285694  29.017857142857167 25.267857142857135  Z " stroke-width="0" stroke-dasharray="0" stroke="rgba(255, 255, 255, 0)" fill="none" class="stroke" mask="url(#Clip812)" />
    <path d="M 42.85714285714283 23.772321428571416  L 42.85714285714283 27.03125  L 39.62053571428572 27.03125  L 39.62053571428572 30.267857142857142  L 36.36160714285717 30.267857142857142  L 36.36160714285717 27.03125  L 33.125 27.03125  L 33.125 23.772321428571416  L 36.36160714285717 23.772321428571416  L 36.36160714285717 20.535714285714278  L 39.62053571428572 20.535714285714278  L 39.62053571428572 23.772321428571416  L 42.85714285714283 23.772321428571416  Z " stroke-width="0" stroke-dasharray="0" stroke="rgba(255, 255, 255, 0)" fill="none" class="stroke" mask="url(#Clip812)" />
  </g>
</svg>