<?xml version="1.0" encoding="utf-8"?>
<svg version="1.1" xmlns:xlink="http://www.w3.org/1999/xlink" width="56px" height="56px" xmlns="http://www.w3.org/2000/svg">
  <defs>
    <pattern id="BGPattern" patternUnits="userSpaceOnUse" alignment="0 0" imageRepeat="None" />
    <mask fill="white" id="Clip2243">
      <path d="M 56 28  C 56 12.537500000000001  43.4625 0  28 0  C 12.537500000000001 0  0 12.537500000000001  0 28  C 0 43.4625  12.537500000000001 56  28 56  C 43.4625 56  56 43.4625  56 28  Z M 37.787499999999994 33.81875  C 37.787499999999994 38.525  34.287499999999994 41.15  29.393749999999997 41.575  L 29.406249999999996 43.556250000000006  C 29.406249999999996 43.831250000000004  29.181250000000002 44.06250000000001  28.90625 44.06250000000001  L 27.13125 44.06250000000001  C 26.856250000000003 44.06250000000001  26.63125 43.837500000000006  26.63125 43.56250000000001  L 26.63125 41.60000000000001  C 21.08125 41.1875  18.46875 38.025  18.1875 34.5875  C 18.1625 34.293749999999996  18.39375 34.043749999999996  18.6875 34.043749999999996  L 21.575 34.043749999999996  C 21.818749999999998 34.043749999999996  22.03125 34.21874999999999  22.068749999999998 34.45625  C 22.3875 36.4375  23.93125 37.918749999999996  26.699999999999996 38.287499999999994  L 26.699999999999996 29.368749999999995  L 25.156249999999996 28.975  C 21.887499999999996 28.19375  18.775 26.15625  18.775 21.931250000000002  C 18.775 17.375  22.237499999999997 14.925000000000002  26.662499999999998 14.493750000000002  L 26.662499999999998 12.431250000000002  C 26.662499999999998 12.156250000000004  26.8875 11.931250000000002  27.162499999999998 11.931250000000002  L 28.918749999999996 11.931250000000002  C 29.193749999999994 11.931250000000002  29.418749999999996 12.156250000000004  29.418749999999996 12.431250000000002  L 29.418749999999996 14.475000000000001  C 33.699999999999996 14.90625  36.912499999999994 17.40625  37.287499999999994 21.3  C 37.318749999999994 21.59375  37.08749999999999 21.85  36.787499999999994 21.85  L 33.981249999999996 21.85  C 33.731249999999996 21.85  33.51875 21.6625  33.4875 21.418750000000003  C 33.2375 19.593750000000004  31.774999999999995 18.106250000000003  29.393749999999997 17.781250000000004  L 29.393749999999997 26.175000000000004  L 30.981249999999996 26.543750000000003  C 35.03124999999999 27.543750000000003  37.787499999999994 29.48125  37.787499999999994 33.81875  Z M 26.69375 17.7875  C 24.387500000000003 18.08125  22.6625 19.375  22.6625 21.64375  C 22.6625 23.23125  23.64375 24.462500000000002  25.75625 25.225  C 26.05 25.34375  26.34375 25.4375  26.69375 25.5375  L 26.69375 17.7875  Z M 33.893750000000004 34.1625  C 33.893750000000004 32.24375  32.900000000000006 30.99375  29.94375 30.093750000000004  C 29.768750000000008 30.056250000000002  29.59375 30.012500000000003  29.393750000000004 29.956249999999997  L 29.393750000000004 38.3125  C 32.056250000000006 38.075  33.893750000000004 36.6125  33.893750000000004 34.1625  Z " fill-rule="evenodd" />
    </mask>
  </defs>
  <g>
    <path d="M 56 28  C 56 12.537500000000001  43.4625 0  28 0  C 12.537500000000001 0  0 12.537500000000001  0 28  C 0 43.4625  12.537500000000001 56  28 56  C 43.4625 56  56 43.4625  56 28  Z M 37.787499999999994 33.81875  C 37.787499999999994 38.525  34.287499999999994 41.15  29.393749999999997 41.575  L 29.406249999999996 43.556250000000006  C 29.406249999999996 43.831250000000004  29.181250000000002 44.06250000000001  28.90625 44.06250000000001  L 27.13125 44.06250000000001  C 26.856250000000003 44.06250000000001  26.63125 43.837500000000006  26.63125 43.56250000000001  L 26.63125 41.60000000000001  C 21.08125 41.1875  18.46875 38.025  18.1875 34.5875  C 18.1625 34.293749999999996  18.39375 34.043749999999996  18.6875 34.043749999999996  L 21.575 34.043749999999996  C 21.818749999999998 34.043749999999996  22.03125 34.21874999999999  22.068749999999998 34.45625  C 22.3875 36.4375  23.93125 37.918749999999996  26.699999999999996 38.287499999999994  L 26.699999999999996 29.368749999999995  L 25.156249999999996 28.975  C 21.887499999999996 28.19375  18.775 26.15625  18.775 21.931250000000002  C 18.775 17.375  22.237499999999997 14.925000000000002  26.662499999999998 14.493750000000002  L 26.662499999999998 12.431250000000002  C 26.662499999999998 12.156250000000004  26.8875 11.931250000000002  27.162499999999998 11.931250000000002  L 28.918749999999996 11.931250000000002  C 29.193749999999994 11.931250000000002  29.418749999999996 12.156250000000004  29.418749999999996 12.431250000000002  L 29.418749999999996 14.475000000000001  C 33.699999999999996 14.90625  36.912499999999994 17.40625  37.287499999999994 21.3  C 37.318749999999994 21.59375  37.08749999999999 21.85  36.787499999999994 21.85  L 33.981249999999996 21.85  C 33.731249999999996 21.85  33.51875 21.6625  33.4875 21.418750000000003  C 33.2375 19.593750000000004  31.774999999999995 18.106250000000003  29.393749999999997 17.781250000000004  L 29.393749999999997 26.175000000000004  L 30.981249999999996 26.543750000000003  C 35.03124999999999 27.543750000000003  37.787499999999994 29.48125  37.787499999999994 33.81875  Z M 26.69375 17.7875  C 24.387500000000003 18.08125  22.6625 19.375  22.6625 21.64375  C 22.6625 23.23125  23.64375 24.462500000000002  25.75625 25.225  C 26.05 25.34375  26.34375 25.4375  26.69375 25.5375  L 26.69375 17.7875  Z M 33.893750000000004 34.1625  C 33.893750000000004 32.24375  32.900000000000006 30.99375  29.94375 30.093750000000004  C 29.768750000000008 30.056250000000002  29.59375 30.012500000000003  29.393750000000004 29.956249999999997  L 29.393750000000004 38.3125  C 32.056250000000006 38.075  33.893750000000004 36.6125  33.893750000000004 34.1625  Z " fill-rule="nonzero" fill="rgba(0, 0, 0, 1)" stroke="none" class="fill" />
    <path d="M 56 28  C 56 12.537500000000001  43.4625 0  28 0  C 12.537500000000001 0  0 12.537500000000001  0 28  C 0 43.4625  12.537500000000001 56  28 56  C 43.4625 56  56 43.4625  56 28  Z " stroke-width="0" stroke-dasharray="0" stroke="rgba(255, 255, 255, 0)" fill="none" class="stroke" mask="url(#Clip2243)" />
    <path d="M 37.787499999999994 33.81875  C 37.787499999999994 38.525  34.287499999999994 41.15  29.393749999999997 41.575  L 29.406249999999996 43.556250000000006  C 29.406249999999996 43.831250000000004  29.181250000000002 44.06250000000001  28.90625 44.06250000000001  L 27.13125 44.06250000000001  C 26.856250000000003 44.06250000000001  26.63125 43.837500000000006  26.63125 43.56250000000001  L 26.63125 41.60000000000001  C 21.08125 41.1875  18.46875 38.025  18.1875 34.5875  C 18.1625 34.293749999999996  18.39375 34.043749999999996  18.6875 34.043749999999996  L 21.575 34.043749999999996  C 21.818749999999998 34.043749999999996  22.03125 34.21874999999999  22.068749999999998 34.45625  C 22.3875 36.4375  23.93125 37.918749999999996  26.699999999999996 38.287499999999994  L 26.699999999999996 29.368749999999995  L 25.156249999999996 28.975  C 21.887499999999996 28.19375  18.775 26.15625  18.775 21.931250000000002  C 18.775 17.375  22.237499999999997 14.925000000000002  26.662499999999998 14.493750000000002  L 26.662499999999998 12.431250000000002  C 26.662499999999998 12.156250000000004  26.8875 11.931250000000002  27.162499999999998 11.931250000000002  L 28.918749999999996 11.931250000000002  C 29.193749999999994 11.931250000000002  29.418749999999996 12.156250000000004  29.418749999999996 12.431250000000002  L 29.418749999999996 14.475000000000001  C 33.699999999999996 14.90625  36.912499999999994 17.40625  37.287499999999994 21.3  C 37.318749999999994 21.59375  37.08749999999999 21.85  36.787499999999994 21.85  L 33.981249999999996 21.85  C 33.731249999999996 21.85  33.51875 21.6625  33.4875 21.418750000000003  C 33.2375 19.593750000000004  31.774999999999995 18.106250000000003  29.393749999999997 17.781250000000004  L 29.393749999999997 26.175000000000004  L 30.981249999999996 26.543750000000003  C 35.03124999999999 27.543750000000003  37.787499999999994 29.48125  37.787499999999994 33.81875  Z " stroke-width="0" stroke-dasharray="0" stroke="rgba(255, 255, 255, 0)" fill="none" class="stroke" mask="url(#Clip2243)" />
    <path d="M 26.69375 17.7875  C 24.387500000000003 18.08125  22.6625 19.375  22.6625 21.64375  C 22.6625 23.23125  23.64375 24.462500000000002  25.75625 25.225  C 26.05 25.34375  26.34375 25.4375  26.69375 25.5375  L 26.69375 17.7875  Z " stroke-width="0" stroke-dasharray="0" stroke="rgba(255, 255, 255, 0)" fill="none" class="stroke" mask="url(#Clip2243)" />
    <path d="M 33.893750000000004 34.1625  C 33.893750000000004 32.24375  32.900000000000006 30.99375  29.94375 30.093750000000004  C 29.768750000000008 30.056250000000002  29.59375 30.012500000000003  29.393750000000004 29.956249999999997  L 29.393750000000004 38.3125  C 32.056250000000006 38.075  33.893750000000004 36.6125  33.893750000000004 34.1625  Z " stroke-width="0" stroke-dasharray="0" stroke="rgba(255, 255, 255, 0)" fill="none" class="stroke" mask="url(#Clip2243)" />
  </g>
</svg>