<?xml version="1.0" encoding="utf-8"?>
<svg version="1.1" xmlns:xlink="http://www.w3.org/1999/xlink" width="24px" height="24px" xmlns="http://www.w3.org/2000/svg">
  <defs>
    <pattern id="BGPattern" patternUnits="userSpaceOnUse" alignment="0 0" imageRepeat="None" />
    <mask fill="white" id="Clip6160">
      <path d="M 24 12  C 24 18.627416997969522  18.627416997969522 24  12 24  C 5.372583002030479 24  0 18.627416997969522  0 12  C 0 5.372583002030479  5.372583002030479 0  12 0  C 18.627416997969522 0  24 5.372583002030479  24 12  Z M 20.0055 11.999999999999998  C 20.0055 11.024999999999999  19.218000000000004 10.252499999999998  18.258000000000003 10.2525  C 17.785500000000003 10.2525  17.355 10.4385  17.040000000000003 10.74  C 15.838500000000002 9.8805  14.190000000000001 9.3225  12.358500000000001 9.250499999999999  L 13.159500000000001 5.499  L 15.766499999999999 6.057  C 15.797740335761144 6.721115421241716  16.345275011170614 7.243499240499698  17.01012480722197 7.243499240499698  C 17.69771932076131 7.243499240499698  18.25512480722197 6.686093754039035  18.25512480722197 5.998499240499698  C 18.25512480722197 5.311441711847337  17.69855710951951 4.754258904860637  17.011499999999998 4.7535  C 16.535959796434838 4.755161558423348  16.10290264481215 5.027568476379558  15.895500000000002 5.455500000000001  L 12.988500000000004 4.840500000000001  C 12.90945784546712 4.823474787310025  12.826889750092125 4.838585288424403  12.758999999999997 4.8825  C 12.68804669278238 4.926778198761273  12.640699629253383 5.000551530306456  12.629999999999999 5.083500000000001  L 11.742 9.2655  C 9.882 9.3225  8.205000000000002 9.8805  6.987 10.753499999999999  C 6.672000000000001 10.453499999999998  6.243000000000001 10.2675  5.772 10.2675  C 5.77114140283062 10.267498732260696  5.770282804844037 10.267498098390789  5.769424206738734 10.267498098390789  C 4.805963460658915 10.267498098390789  4.024924206738733 11.04853735231097  4.024924206738733 12.01199809839079  C 4.024924206738733 12.699056083882724  4.428199145642758 13.322129489097968  5.055 13.603499999999999  C 5.025 13.776  5.0115 13.9485  5.0115 14.133  C 5.0115 16.825499999999998  8.148 19.017  12.015 19.017  C 15.8805 19.017  19.017000000000003 16.8405  19.017000000000003 14.133  C 19.017000000000003 13.961999999999996  19.002000000000002 13.776  18.9735 13.603499999999999  C 19.575000000000003 13.332  20.0055 12.715499999999999  20.0055 11.999999999999998  Z " fill-rule="evenodd" />
    </mask>
  </defs>
  <g>
    <path d="M 24 12  C 24 18.627416997969522  18.627416997969522 24  12 24  C 5.372583002030479 24  0 18.627416997969522  0 12  C 0 5.372583002030479  5.372583002030479 0  12 0  C 18.627416997969522 0  24 5.372583002030479  24 12  Z M 20.0055 11.999999999999998  C 20.0055 11.024999999999999  19.218000000000004 10.252499999999998  18.258000000000003 10.2525  C 17.785500000000003 10.2525  17.355 10.4385  17.040000000000003 10.74  C 15.838500000000002 9.8805  14.190000000000001 9.3225  12.358500000000001 9.250499999999999  L 13.159500000000001 5.499  L 15.766499999999999 6.057  C 15.797740335761144 6.721115421241716  16.345275011170614 7.243499240499698  17.01012480722197 7.243499240499698  C 17.69771932076131 7.243499240499698  18.25512480722197 6.686093754039035  18.25512480722197 5.998499240499698  C 18.25512480722197 5.311441711847337  17.69855710951951 4.754258904860637  17.011499999999998 4.7535  C 16.535959796434838 4.755161558423348  16.10290264481215 5.027568476379558  15.895500000000002 5.455500000000001  L 12.988500000000004 4.840500000000001  C 12.90945784546712 4.823474787310025  12.826889750092125 4.838585288424403  12.758999999999997 4.8825  C 12.68804669278238 4.926778198761273  12.640699629253383 5.000551530306456  12.629999999999999 5.083500000000001  L 11.742 9.2655  C 9.882 9.3225  8.205000000000002 9.8805  6.987 10.753499999999999  C 6.672000000000001 10.453499999999998  6.243000000000001 10.2675  5.772 10.2675  C 5.77114140283062 10.267498732260696  5.770282804844037 10.267498098390789  5.769424206738734 10.267498098390789  C 4.805963460658915 10.267498098390789  4.024924206738733 11.04853735231097  4.024924206738733 12.01199809839079  C 4.024924206738733 12.699056083882724  4.428199145642758 13.322129489097968  5.055 13.603499999999999  C 5.025 13.776  5.0115 13.9485  5.0115 14.133  C 5.0115 16.825499999999998  8.148 19.017  12.015 19.017  C 15.8805 19.017  19.017000000000003 16.8405  19.017000000000003 14.133  C 19.017000000000003 13.961999999999996  19.002000000000002 13.776  18.9735 13.603499999999999  C 19.575000000000003 13.332  20.0055 12.715499999999999  20.0055 11.999999999999998  Z " fill-rule="nonzero" fill="rgba(0, 0, 0, 1)" stroke="none" class="fill" />
    <path d="M 24 12  C 24 18.627416997969522  18.627416997969522 24  12 24  C 5.372583002030479 24  0 18.627416997969522  0 12  C 0 5.372583002030479  5.372583002030479 0  12 0  C 18.627416997969522 0  24 5.372583002030479  24 12  Z " stroke-width="0" stroke-dasharray="0" stroke="rgba(255, 255, 255, 0)" fill="none" class="stroke" mask="url(#Clip6160)" />
    <path d="M 20.0055 11.999999999999998  C 20.0055 11.024999999999999  19.218000000000004 10.252499999999998  18.258000000000003 10.2525  C 17.785500000000003 10.2525  17.355 10.4385  17.040000000000003 10.74  C 15.838500000000002 9.8805  14.190000000000001 9.3225  12.358500000000001 9.250499999999999  L 13.159500000000001 5.499  L 15.766499999999999 6.057  C 15.797740335761144 6.721115421241716  16.345275011170614 7.243499240499698  17.01012480722197 7.243499240499698  C 17.69771932076131 7.243499240499698  18.25512480722197 6.686093754039035  18.25512480722197 5.998499240499698  C 18.25512480722197 5.311441711847337  17.69855710951951 4.754258904860637  17.011499999999998 4.7535  C 16.535959796434838 4.755161558423348  16.10290264481215 5.027568476379558  15.895500000000002 5.455500000000001  L 12.988500000000004 4.840500000000001  C 12.90945784546712 4.823474787310025  12.826889750092125 4.838585288424403  12.758999999999997 4.8825  C 12.68804669278238 4.926778198761273  12.640699629253383 5.000551530306456  12.629999999999999 5.083500000000001  L 11.742 9.2655  C 9.882 9.3225  8.205000000000002 9.8805  6.987 10.753499999999999  C 6.672000000000001 10.453499999999998  6.243000000000001 10.2675  5.772 10.2675  C 5.77114140283062 10.267498732260696  5.770282804844037 10.267498098390789  5.769424206738734 10.267498098390789  C 4.805963460658915 10.267498098390789  4.024924206738733 11.04853735231097  4.024924206738733 12.01199809839079  C 4.024924206738733 12.699056083882724  4.428199145642758 13.322129489097968  5.055 13.603499999999999  C 5.025 13.776  5.0115 13.9485  5.0115 14.133  C 5.0115 16.825499999999998  8.148 19.017  12.015 19.017  C 15.8805 19.017  19.017000000000003 16.8405  19.017000000000003 14.133  C 19.017000000000003 13.961999999999996  19.002000000000002 13.776  18.9735 13.603499999999999  C 19.575000000000003 13.332  20.0055 12.715499999999999  20.0055 11.999999999999998  Z " stroke-width="0" stroke-dasharray="0" stroke="rgba(255, 255, 255, 0)" fill="none" class="stroke" mask="url(#Clip6160)" />
  </g>
</svg>