<?xml version="1.0" encoding="utf-8"?>
<svg version="1.1" xmlns:xlink="http://www.w3.org/1999/xlink" width="50px" height="41px" xmlns="http://www.w3.org/2000/svg">
  <defs>
    <pattern id="BGPattern" patternUnits="userSpaceOnUse" alignment="0 0" imageRepeat="None" />
    <mask fill="white" id="Clip1235">
      <path d="M 25.02500000000001 18  C 26.212500000000006 19.17500000000001  26.212500000000006 21.07499999999999  25.037499999999994 22.25  L 8.037499999999994 39.25  C 6.862500000000011 40.42500000000001  4.962500000000006 40.42500000000001  3.800000000000012 39.25  L 0.9749999999999943 36.42500000000001  C -0.19999999999998863 35.25  -0.19999999999998863 33.349999999999994  0.9749999999999943 32.1875  L 13.025000000000006 20.13749999999999  L 0.9749999999999943 8.087500000000006  C -0.19999999999998863 6.912499999999994  -0.19999999999998863 5.012499999999989  0.9749999999999943 3.8499999999999943  L 3.7874999999999943 1  C 4.962500000000006 -0.17500000000001137  6.862500000000011 -0.17500000000001137  8.025000000000006 1  L 25.02500000000001 18  Z M 49.03750000000002 22.22499999999999  C 50.212499999999984 21.07499999999999  50.212499999999984 19.17500000000001  49.03750000000002 18  L 32.037499999999994 1  C 30.862500000000008 -0.17500000000001137  28.96250000000001 -0.17500000000001137  27.800000000000015 1  L 24.974999999999994 3.8249999999999886  C 23.80000000000001 5  23.80000000000001 6.900000000000006  24.974999999999994 8.0625  L 37.025000000000006 20.11250000000001  L 24.974999999999994 32.162499999999994  C 23.80000000000001 33.337500000000006  23.80000000000001 35.23750000000001  24.974999999999994 36.400000000000006  L 27.800000000000015 39.224999999999994  C 28.974999999999994 40.400000000000006  30.875000000000004 40.400000000000006  32.037499999999994 39.224999999999994  L 49.03750000000002 22.22499999999999  Z " fill-rule="evenodd" />
    </mask>
  </defs>
  <g>
    <path d="M 25.02500000000001 18  C 26.212500000000006 19.17500000000001  26.212500000000006 21.07499999999999  25.037499999999994 22.25  L 8.037499999999994 39.25  C 6.862500000000011 40.42500000000001  4.962500000000006 40.42500000000001  3.800000000000012 39.25  L 0.9749999999999943 36.42500000000001  C -0.19999999999998863 35.25  -0.19999999999998863 33.349999999999994  0.9749999999999943 32.1875  L 13.025000000000006 20.13749999999999  L 0.9749999999999943 8.087500000000006  C -0.19999999999998863 6.912499999999994  -0.19999999999998863 5.012499999999989  0.9749999999999943 3.8499999999999943  L 3.7874999999999943 1  C 4.962500000000006 -0.17500000000001137  6.862500000000011 -0.17500000000001137  8.025000000000006 1  L 25.02500000000001 18  Z M 49.03750000000002 22.22499999999999  C 50.212499999999984 21.07499999999999  50.212499999999984 19.17500000000001  49.03750000000002 18  L 32.037499999999994 1  C 30.862500000000008 -0.17500000000001137  28.96250000000001 -0.17500000000001137  27.800000000000015 1  L 24.974999999999994 3.8249999999999886  C 23.80000000000001 5  23.80000000000001 6.900000000000006  24.974999999999994 8.0625  L 37.025000000000006 20.11250000000001  L 24.974999999999994 32.162499999999994  C 23.80000000000001 33.337500000000006  23.80000000000001 35.23750000000001  24.974999999999994 36.400000000000006  L 27.800000000000015 39.224999999999994  C 28.974999999999994 40.400000000000006  30.875000000000004 40.400000000000006  32.037499999999994 39.224999999999994  L 49.03750000000002 22.22499999999999  Z " fill-rule="nonzero" fill="rgba(0, 0, 0, 1)" stroke="none" class="fill" />
    <path d="M 25.02500000000001 18  C 26.212500000000006 19.17500000000001  26.212500000000006 21.07499999999999  25.037499999999994 22.25  L 8.037499999999994 39.25  C 6.862500000000011 40.42500000000001  4.962500000000006 40.42500000000001  3.800000000000012 39.25  L 0.9749999999999943 36.42500000000001  C -0.19999999999998863 35.25  -0.19999999999998863 33.349999999999994  0.9749999999999943 32.1875  L 13.025000000000006 20.13749999999999  L 0.9749999999999943 8.087500000000006  C -0.19999999999998863 6.912499999999994  -0.19999999999998863 5.012499999999989  0.9749999999999943 3.8499999999999943  L 3.7874999999999943 1  C 4.962500000000006 -0.17500000000001137  6.862500000000011 -0.17500000000001137  8.025000000000006 1  L 25.02500000000001 18  Z " stroke-width="0" stroke-dasharray="0" stroke="rgba(255, 255, 255, 0)" fill="none" class="stroke" mask="url(#Clip1235)" />
    <path d="M 49.03750000000002 22.22499999999999  C 50.212499999999984 21.07499999999999  50.212499999999984 19.17500000000001  49.03750000000002 18  L 32.037499999999994 1  C 30.862500000000008 -0.17500000000001137  28.96250000000001 -0.17500000000001137  27.800000000000015 1  L 24.974999999999994 3.8249999999999886  C 23.80000000000001 5  23.80000000000001 6.900000000000006  24.974999999999994 8.0625  L 37.025000000000006 20.11250000000001  L 24.974999999999994 32.162499999999994  C 23.80000000000001 33.337500000000006  23.80000000000001 35.23750000000001  24.974999999999994 36.400000000000006  L 27.800000000000015 39.224999999999994  C 28.974999999999994 40.400000000000006  30.875000000000004 40.400000000000006  32.037499999999994 39.224999999999994  L 49.03750000000002 22.22499999999999  Z " stroke-width="0" stroke-dasharray="0" stroke="rgba(255, 255, 255, 0)" fill="none" class="stroke" mask="url(#Clip1235)" />
  </g>
</svg>