<?xml version="1.0" encoding="utf-8"?>
<svg version="1.1" xmlns:xlink="http://www.w3.org/1999/xlink" width="48px" height="48px" xmlns="http://www.w3.org/2000/svg">
  <defs>
    <pattern id="BGPattern" patternUnits="userSpaceOnUse" alignment="0 0" imageRepeat="None" />
    <mask fill="white" id="Clip7485">
      <path d="M 48 24  C 48 37.230000000000004  37.230000000000004 48  24 48  C 10.77 48  0 37.23  0 24  C 0 10.770000000000003  10.77 0  24 0  C 37.230000000000004 0  48 10.77  48 24  Z M 45.58 24  C 45.58 12.100000000000001  35.9 2.422  24 2.421999999999997  C 12.1 2.422  2.422 12.1  2.422 24  C 2.422 35.9  12.1 45.58  24 45.58  C 35.9 45.58  45.58 35.9  45.58 24  Z M 18.660000000000004 28.175999999999995  L 9.78 37.062  C 13.291999999999998 40.902  18.368 43.288  24 43.288  C 26.878 43.288  29.601999999999997 42.662  32.054 41.535999999999994  L 18.660000000000004 28.175999999999995  Z M 38.338 36.928  L 38.356 36.928  C 41.438 33.507999999999996  43.324 28.948  43.324 23.995999999999995  C 43.324 16.225999999999996  38.75 9.565999999999995  32.188 6.4759999999999955  L 20.01 18.627999999999993  L 38.338 36.928  Z M 18.614 20.084  L 18.602 20.069999999999997  L 8.454 30.18  L 7.096 28.82  L 17.77 18.148  L 30.229999999999997 5.698  C 28.274 5.042000000000001  26.19 4.680000000000001  24 4.680000000000001  C 13.326 4.674  4.674 13.326  4.674 24  C 4.674 28.344  6.100000000000001 32.356  8.552 35.602000000000004  L 18.664 25.492000000000004  L 19.382 26.150000000000006  L 33.872 40.64000000000001  C 34.172 40.476000000000006  34.442 40.312000000000005  34.712 40.108000000000004  L 18.66 24.1  L 8.952 33.81  L 7.593999999999999 32.452000000000005  L 18.664 21.382000000000005  L 19.382 22.044000000000004  L 36.30200000000001 38.918000000000006  C 36.57200000000001 38.718  36.812000000000005 38.48800000000001  37.05200000000001 38.28600000000001  L 18.78 20.054  L 18.614 20.084  Z M 24.69599999999999 22.141999999999996  L 24.696000000000005 22.125999999999998  L 23.34 20.773999999999997  L 32.916 11.193999999999997  L 34.273999999999994 12.572  L 24.69599999999999 22.141999999999996  Z M 33.78 8.979999999999999  L 33.78 8.969999999999997  L 22.740000000000002 20.009999999999998  L 21.380000000000003 18.651999999999997  L 32.422000000000004 7.611999999999998  L 33.78 8.979999999999999  Z " fill-rule="evenodd" />
    </mask>
  </defs>
  <g>
    <path d="M 48 24  C 48 37.230000000000004  37.230000000000004 48  24 48  C 10.77 48  0 37.23  0 24  C 0 10.770000000000003  10.77 0  24 0  C 37.230000000000004 0  48 10.77  48 24  Z M 45.58 24  C 45.58 12.100000000000001  35.9 2.422  24 2.421999999999997  C 12.1 2.422  2.422 12.1  2.422 24  C 2.422 35.9  12.1 45.58  24 45.58  C 35.9 45.58  45.58 35.9  45.58 24  Z M 18.660000000000004 28.175999999999995  L 9.78 37.062  C 13.291999999999998 40.902  18.368 43.288  24 43.288  C 26.878 43.288  29.601999999999997 42.662  32.054 41.535999999999994  L 18.660000000000004 28.175999999999995  Z M 38.338 36.928  L 38.356 36.928  C 41.438 33.507999999999996  43.324 28.948  43.324 23.995999999999995  C 43.324 16.225999999999996  38.75 9.565999999999995  32.188 6.4759999999999955  L 20.01 18.627999999999993  L 38.338 36.928  Z M 18.614 20.084  L 18.602 20.069999999999997  L 8.454 30.18  L 7.096 28.82  L 17.77 18.148  L 30.229999999999997 5.698  C 28.274 5.042000000000001  26.19 4.680000000000001  24 4.680000000000001  C 13.326 4.674  4.674 13.326  4.674 24  C 4.674 28.344  6.100000000000001 32.356  8.552 35.602000000000004  L 18.664 25.492000000000004  L 19.382 26.150000000000006  L 33.872 40.64000000000001  C 34.172 40.476000000000006  34.442 40.312000000000005  34.712 40.108000000000004  L 18.66 24.1  L 8.952 33.81  L 7.593999999999999 32.452000000000005  L 18.664 21.382000000000005  L 19.382 22.044000000000004  L 36.30200000000001 38.918000000000006  C 36.57200000000001 38.718  36.812000000000005 38.48800000000001  37.05200000000001 38.28600000000001  L 18.78 20.054  L 18.614 20.084  Z M 24.69599999999999 22.141999999999996  L 24.696000000000005 22.125999999999998  L 23.34 20.773999999999997  L 32.916 11.193999999999997  L 34.273999999999994 12.572  L 24.69599999999999 22.141999999999996  Z M 33.78 8.979999999999999  L 33.78 8.969999999999997  L 22.740000000000002 20.009999999999998  L 21.380000000000003 18.651999999999997  L 32.422000000000004 7.611999999999998  L 33.78 8.979999999999999  Z " fill-rule="nonzero" fill="rgba(237, 28, 36, 1)" stroke="none" class="fill" />
    <path d="M 48 24  C 48 37.230000000000004  37.230000000000004 48  24 48  C 10.77 48  0 37.23  0 24  C 0 10.770000000000003  10.77 0  24 0  C 37.230000000000004 0  48 10.77  48 24  Z " stroke-width="0" stroke-dasharray="0" stroke="rgba(255, 255, 255, 0)" fill="none" class="stroke" mask="url(#Clip7485)" />
    <path d="M 45.58 24  C 45.58 12.100000000000001  35.9 2.422  24 2.421999999999997  C 12.1 2.422  2.422 12.1  2.422 24  C 2.422 35.9  12.1 45.58  24 45.58  C 35.9 45.58  45.58 35.9  45.58 24  Z " stroke-width="0" stroke-dasharray="0" stroke="rgba(255, 255, 255, 0)" fill="none" class="stroke" mask="url(#Clip7485)" />
    <path d="M 18.660000000000004 28.175999999999995  L 9.78 37.062  C 13.291999999999998 40.902  18.368 43.288  24 43.288  C 26.878 43.288  29.601999999999997 42.662  32.054 41.535999999999994  L 18.660000000000004 28.175999999999995  Z " stroke-width="0" stroke-dasharray="0" stroke="rgba(255, 255, 255, 0)" fill="none" class="stroke" mask="url(#Clip7485)" />
    <path d="M 38.338 36.928  L 38.356 36.928  C 41.438 33.507999999999996  43.324 28.948  43.324 23.995999999999995  C 43.324 16.225999999999996  38.75 9.565999999999995  32.188 6.4759999999999955  L 20.01 18.627999999999993  L 38.338 36.928  Z " stroke-width="0" stroke-dasharray="0" stroke="rgba(255, 255, 255, 0)" fill="none" class="stroke" mask="url(#Clip7485)" />
    <path d="M 18.614 20.084  L 18.602 20.069999999999997  L 8.454 30.18  L 7.096 28.82  L 17.77 18.148  L 30.229999999999997 5.698  C 28.274 5.042000000000001  26.19 4.680000000000001  24 4.680000000000001  C 13.326 4.674  4.674 13.326  4.674 24  C 4.674 28.344  6.100000000000001 32.356  8.552 35.602000000000004  L 18.664 25.492000000000004  L 19.382 26.150000000000006  L 33.872 40.64000000000001  C 34.172 40.476000000000006  34.442 40.312000000000005  34.712 40.108000000000004  L 18.66 24.1  L 8.952 33.81  L 7.593999999999999 32.452000000000005  L 18.664 21.382000000000005  L 19.382 22.044000000000004  L 36.30200000000001 38.918000000000006  C 36.57200000000001 38.718  36.812000000000005 38.48800000000001  37.05200000000001 38.28600000000001  L 18.78 20.054  L 18.614 20.084  Z " stroke-width="0" stroke-dasharray="0" stroke="rgba(255, 255, 255, 0)" fill="none" class="stroke" mask="url(#Clip7485)" />
    <path d="M 24.69599999999999 22.141999999999996  L 24.696000000000005 22.125999999999998  L 23.34 20.773999999999997  L 32.916 11.193999999999997  L 34.273999999999994 12.572  L 24.69599999999999 22.141999999999996  Z " stroke-width="0" stroke-dasharray="0" stroke="rgba(255, 255, 255, 0)" fill="none" class="stroke" mask="url(#Clip7485)" />
    <path d="M 33.78 8.979999999999999  L 33.78 8.969999999999997  L 22.740000000000002 20.009999999999998  L 21.380000000000003 18.651999999999997  L 32.422000000000004 7.611999999999998  L 33.78 8.979999999999999  Z " stroke-width="0" stroke-dasharray="0" stroke="rgba(255, 255, 255, 0)" fill="none" class="stroke" mask="url(#Clip7485)" />
  </g>
</svg>