<?xml version="1.0" encoding="utf-8"?>
<svg version="1.1" xmlns:xlink="http://www.w3.org/1999/xlink" width="30px" height="27px" xmlns="http://www.w3.org/2000/svg">
  <defs>
    <pattern id="BGPattern" patternUnits="userSpaceOnUse" alignment="0 0" imageRepeat="None" />
    <mask fill="white" id="Clip3865">
      <path d="M 30 12.43  L 15.61 1.21  C 15.246555247661675 0.9228024131164274  14.733444752338325 0.9228024131164283  14.37 1.21  L 0 12.42  L 1.2400000000000002 14  L 3 12.62  L 3 25  C 3 26.104569499661586  3.895430500338413 27  5 27  L 25 27  C 26.104569499661586 27  27 26.104569499661586  27 25  L 27 12.63  L 28.76 14  L 30 12.43  Z M 17 17  L 17 25  L 13 25  L 13 17  L 17 17  Z M 25 25  L 19 25  L 19 17  C 19 15.895430500338414  18.104569499661586 15  17 15  L 13 15  C 11.895430500338414 15  11 15.895430500338414  11 17  L 11 25  L 5 25  L 5 11.06  L 15 3.2699999999999996  L 25 11.07  L 25 25  Z " fill-rule="evenodd" />
    </mask>
  </defs>
  <g transform="matrix(1 0 0 1 -1 -1 )">
    <path d="M 30 12.43  L 15.61 1.21  C 15.246555247661675 0.9228024131164274  14.733444752338325 0.9228024131164283  14.37 1.21  L 0 12.42  L 1.2400000000000002 14  L 3 12.62  L 3 25  C 3 26.104569499661586  3.895430500338413 27  5 27  L 25 27  C 26.104569499661586 27  27 26.104569499661586  27 25  L 27 12.63  L 28.76 14  L 30 12.43  Z M 17 17  L 17 25  L 13 25  L 13 17  L 17 17  Z M 25 25  L 19 25  L 19 17  C 19 15.895430500338414  18.104569499661586 15  17 15  L 13 15  C 11.895430500338414 15  11 15.895430500338414  11 17  L 11 25  L 5 25  L 5 11.06  L 15 3.2699999999999996  L 25 11.07  L 25 25  Z " fill-rule="nonzero" fill="rgba(0, 0, 0, 1)" stroke="none" transform="matrix(1 0 0 1 1 1 )" class="fill" />
    <path d="M 30 12.43  L 15.61 1.21  C 15.246555247661675 0.9228024131164274  14.733444752338325 0.9228024131164283  14.37 1.21  L 0 12.42  L 1.2400000000000002 14  L 3 12.62  L 3 25  C 3 26.104569499661586  3.895430500338413 27  5 27  L 25 27  C 26.104569499661586 27  27 26.104569499661586  27 25  L 27 12.63  L 28.76 14  L 30 12.43  Z " stroke-width="0" stroke-dasharray="0" stroke="rgba(255, 255, 255, 0)" fill="none" transform="matrix(1 0 0 1 1 1 )" class="stroke" mask="url(#Clip3865)" />
    <path d="M 17 17  L 17 25  L 13 25  L 13 17  L 17 17  Z " stroke-width="0" stroke-dasharray="0" stroke="rgba(255, 255, 255, 0)" fill="none" transform="matrix(1 0 0 1 1 1 )" class="stroke" mask="url(#Clip3865)" />
    <path d="M 25 25  L 19 25  L 19 17  C 19 15.895430500338414  18.104569499661586 15  17 15  L 13 15  C 11.895430500338414 15  11 15.895430500338414  11 17  L 11 25  L 5 25  L 5 11.06  L 15 3.2699999999999996  L 25 11.07  L 25 25  Z " stroke-width="0" stroke-dasharray="0" stroke="rgba(255, 255, 255, 0)" fill="none" transform="matrix(1 0 0 1 1 1 )" class="stroke" mask="url(#Clip3865)" />
  </g>
</svg>