<?xml version="1.0" encoding="utf-8"?>
<svg version="1.1" xmlns:xlink="http://www.w3.org/1999/xlink" width="50px" height="48px" xmlns="http://www.w3.org/2000/svg">
  <defs>
    <pattern id="BGPattern" patternUnits="userSpaceOnUse" alignment="0 0" imageRepeat="None" />
    <mask fill="white" id="Clip886">
      <path d="M 19.919354838709694 34  L 30.07056451612902 34  C 28.639112903225822 35.90725806451616  26.915322580645153 36.965725806451616  24.98991935483872 37.610887096774206  C 23.074596774193537 36.965725806451616  21.340725806451616 35.90725806451616  19.919354838709694 34  Z M 15.46370967741936 14.425403225806463  C 21.189516129032256 10.393145161290334  28.82056451612903 10.403225806451616  34.50604838709677 14.415322580645153  C 36.52217741935482 12.711693548387103  38.90120967741939 11.471774193548384  41 10.766129032258078  L 41 27.01612903225808  C 41.52217741935482 49.133064516129025  8.45766129032259 48.95161290322582  9 27.04637096774195  L 9 10.756048387096769  C 11.068548387096769 11.451612903225794  13.457661290322589 12.731854838709666  15.46370967741936 14.425403225806463  Z M 15.514112903225794 9.667338709677438  C 14.879032258064512 9.264112903225822  14.112903225806434 8.840725806451616  13.457661290322589 8.518145161290334  C 19.949596774193537 2.469758064516128  30.02016129032259 2.459677419354847  36.5322580645161 8.497983870967744  C 35.81653225806451 8.850806451612897  35.13104838709677 9.23387096774195  34.455645161290306 9.657258064516128  C 28.5383064516129 6.582661290322591  21.43145161290323 6.592741935483872  15.514112903225794 9.667338709677438  Z M 9.51612903225805 7.026209677419359  C 7.872983870967744 6.582661290322591  6.179435483870975 6.320564516129025  4.415322580645153 6.270161290322591  L 4.415322580645153 13.256048387096769  C -1.4717741935483843 16.935483870967744  -1.4717741935483843 25.46370967741936  4.425403225806463 29.21370967741936  C 7.086693548387103 53.92137096774195  42.90322580645159 53.4375  45.514112903225794 29.36491935483872  L 45.544354838709694 29.19354838709677  C 51.461693548387075 25.534274193548384  51.481854838709694 16.925403225806463  45.564516129032256 13.245967741935488  L 45.564516129032256 6.270161290322591  C 43.820564516129025 6.320564516129025  42.13709677419354 6.572580645161281  40.514112903225794 7.016129032258078  C 32.247983870967744 -2.2076612903225907  17.782258064516128 -2.2076612903225907  9.51612903225805 7.026209677419359  Z M 37.52016129032256 26.774193548387103  C 29.50604838709677 26.71370967741936  27.449596774193534 26.38104838709677  26.129032258064512 32.35887096774195  C 26.129032258064512 32.35887096774195  29.758064516129025 32.32862903225805  32.30846774193549 32.20766129032259  C 33.336693548387075 32.15725806451613  34.435483870967744 31.804435483870975  34.87903225806451 31.55241935483872  C 37.5302419354839 30.030241935483872  37.439516129032256 27.600806451612925  37.52016129032256 26.774193548387103  Z M 23.860887096774206 32.36895161290323  C 22.530241935483872 26.38104838709677  20.46370967741936 26.71370967741936  12.469758064516128 26.784274193548384  C 12.55040322580646 27.610887096774206  12.459677419354847 30.04032258064518  15.110887096774206 31.5625  C 15.554435483870977 31.814516129032256  16.643145161290306 32.16733870967741  17.68145161290323 32.21774193548387  C 20.231854838709666 32.32862903225805  23.860887096774206 32.36895161290323  23.860887096774206 32.36895161290323  Z M 29.848790322580644 40.12096774193549  C 29.838709677419363 40.110887096774206  29.818548387096765 39.71774193548387  29.51612903225805 39.22379032258064  C 29.19354838709677 38.689516129032256  28.82056451612903 38.48790322580646  28.82056451612903 38.48790322580646  C 26.320564516129025 39.22379032258064  23.558467741935488 39.18346774193549  21.169354838709666 38.48790322580646  C 21.169354838709666 38.48790322580646  20.877016129032256 38.63911290322582  20.524193548387103 39.153225806451616  C 20.241935483870975 39.56653225806451  20.15120967741936 40.12096774193549  20.15120967741936 40.12096774193549  C 23.084677419354847 41.89516129032259  26.915322580645153 41.89516129032259  29.848790322580644 40.12096774193549  Z " fill-rule="evenodd" />
    </mask>
  </defs>
  <g>
    <path d="M 19.919354838709694 34  L 30.07056451612902 34  C 28.639112903225822 35.90725806451616  26.915322580645153 36.965725806451616  24.98991935483872 37.610887096774206  C 23.074596774193537 36.965725806451616  21.340725806451616 35.90725806451616  19.919354838709694 34  Z M 15.46370967741936 14.425403225806463  C 21.189516129032256 10.393145161290334  28.82056451612903 10.403225806451616  34.50604838709677 14.415322580645153  C 36.52217741935482 12.711693548387103  38.90120967741939 11.471774193548384  41 10.766129032258078  L 41 27.01612903225808  C 41.52217741935482 49.133064516129025  8.45766129032259 48.95161290322582  9 27.04637096774195  L 9 10.756048387096769  C 11.068548387096769 11.451612903225794  13.457661290322589 12.731854838709666  15.46370967741936 14.425403225806463  Z M 15.514112903225794 9.667338709677438  C 14.879032258064512 9.264112903225822  14.112903225806434 8.840725806451616  13.457661290322589 8.518145161290334  C 19.949596774193537 2.469758064516128  30.02016129032259 2.459677419354847  36.5322580645161 8.497983870967744  C 35.81653225806451 8.850806451612897  35.13104838709677 9.23387096774195  34.455645161290306 9.657258064516128  C 28.5383064516129 6.582661290322591  21.43145161290323 6.592741935483872  15.514112903225794 9.667338709677438  Z M 9.51612903225805 7.026209677419359  C 7.872983870967744 6.582661290322591  6.179435483870975 6.320564516129025  4.415322580645153 6.270161290322591  L 4.415322580645153 13.256048387096769  C -1.4717741935483843 16.935483870967744  -1.4717741935483843 25.46370967741936  4.425403225806463 29.21370967741936  C 7.086693548387103 53.92137096774195  42.90322580645159 53.4375  45.514112903225794 29.36491935483872  L 45.544354838709694 29.19354838709677  C 51.461693548387075 25.534274193548384  51.481854838709694 16.925403225806463  45.564516129032256 13.245967741935488  L 45.564516129032256 6.270161290322591  C 43.820564516129025 6.320564516129025  42.13709677419354 6.572580645161281  40.514112903225794 7.016129032258078  C 32.247983870967744 -2.2076612903225907  17.782258064516128 -2.2076612903225907  9.51612903225805 7.026209677419359  Z M 37.52016129032256 26.774193548387103  C 29.50604838709677 26.71370967741936  27.449596774193534 26.38104838709677  26.129032258064512 32.35887096774195  C 26.129032258064512 32.35887096774195  29.758064516129025 32.32862903225805  32.30846774193549 32.20766129032259  C 33.336693548387075 32.15725806451613  34.435483870967744 31.804435483870975  34.87903225806451 31.55241935483872  C 37.5302419354839 30.030241935483872  37.439516129032256 27.600806451612925  37.52016129032256 26.774193548387103  Z M 23.860887096774206 32.36895161290323  C 22.530241935483872 26.38104838709677  20.46370967741936 26.71370967741936  12.469758064516128 26.784274193548384  C 12.55040322580646 27.610887096774206  12.459677419354847 30.04032258064518  15.110887096774206 31.5625  C 15.554435483870977 31.814516129032256  16.643145161290306 32.16733870967741  17.68145161290323 32.21774193548387  C 20.231854838709666 32.32862903225805  23.860887096774206 32.36895161290323  23.860887096774206 32.36895161290323  Z M 29.848790322580644 40.12096774193549  C 29.838709677419363 40.110887096774206  29.818548387096765 39.71774193548387  29.51612903225805 39.22379032258064  C 29.19354838709677 38.689516129032256  28.82056451612903 38.48790322580646  28.82056451612903 38.48790322580646  C 26.320564516129025 39.22379032258064  23.558467741935488 39.18346774193549  21.169354838709666 38.48790322580646  C 21.169354838709666 38.48790322580646  20.877016129032256 38.63911290322582  20.524193548387103 39.153225806451616  C 20.241935483870975 39.56653225806451  20.15120967741936 40.12096774193549  20.15120967741936 40.12096774193549  C 23.084677419354847 41.89516129032259  26.915322580645153 41.89516129032259  29.848790322580644 40.12096774193549  Z " fill-rule="nonzero" fill="rgba(0, 0, 0, 1)" stroke="none" class="fill" />
    <path d="M 19.919354838709694 34  L 30.07056451612902 34  C 28.639112903225822 35.90725806451616  26.915322580645153 36.965725806451616  24.98991935483872 37.610887096774206  C 23.074596774193537 36.965725806451616  21.340725806451616 35.90725806451616  19.919354838709694 34  Z " stroke-width="0" stroke-dasharray="0" stroke="rgba(255, 255, 255, 0)" fill="none" class="stroke" mask="url(#Clip886)" />
    <path d="M 15.46370967741936 14.425403225806463  C 21.189516129032256 10.393145161290334  28.82056451612903 10.403225806451616  34.50604838709677 14.415322580645153  C 36.52217741935482 12.711693548387103  38.90120967741939 11.471774193548384  41 10.766129032258078  L 41 27.01612903225808  C 41.52217741935482 49.133064516129025  8.45766129032259 48.95161290322582  9 27.04637096774195  L 9 10.756048387096769  C 11.068548387096769 11.451612903225794  13.457661290322589 12.731854838709666  15.46370967741936 14.425403225806463  Z " stroke-width="0" stroke-dasharray="0" stroke="rgba(255, 255, 255, 0)" fill="none" class="stroke" mask="url(#Clip886)" />
    <path d="M 15.514112903225794 9.667338709677438  C 14.879032258064512 9.264112903225822  14.112903225806434 8.840725806451616  13.457661290322589 8.518145161290334  C 19.949596774193537 2.469758064516128  30.02016129032259 2.459677419354847  36.5322580645161 8.497983870967744  C 35.81653225806451 8.850806451612897  35.13104838709677 9.23387096774195  34.455645161290306 9.657258064516128  C 28.5383064516129 6.582661290322591  21.43145161290323 6.592741935483872  15.514112903225794 9.667338709677438  Z " stroke-width="0" stroke-dasharray="0" stroke="rgba(255, 255, 255, 0)" fill="none" class="stroke" mask="url(#Clip886)" />
    <path d="M 9.51612903225805 7.026209677419359  C 7.872983870967744 6.582661290322591  6.179435483870975 6.320564516129025  4.415322580645153 6.270161290322591  L 4.415322580645153 13.256048387096769  C -1.4717741935483843 16.935483870967744  -1.4717741935483843 25.46370967741936  4.425403225806463 29.21370967741936  C 7.086693548387103 53.92137096774195  42.90322580645159 53.4375  45.514112903225794 29.36491935483872  L 45.544354838709694 29.19354838709677  C 51.461693548387075 25.534274193548384  51.481854838709694 16.925403225806463  45.564516129032256 13.245967741935488  L 45.564516129032256 6.270161290322591  C 43.820564516129025 6.320564516129025  42.13709677419354 6.572580645161281  40.514112903225794 7.016129032258078  C 32.247983870967744 -2.2076612903225907  17.782258064516128 -2.2076612903225907  9.51612903225805 7.026209677419359  Z " stroke-width="0" stroke-dasharray="0" stroke="rgba(255, 255, 255, 0)" fill="none" class="stroke" mask="url(#Clip886)" />
    <path d="M 37.52016129032256 26.774193548387103  C 29.50604838709677 26.71370967741936  27.449596774193534 26.38104838709677  26.129032258064512 32.35887096774195  C 26.129032258064512 32.35887096774195  29.758064516129025 32.32862903225805  32.30846774193549 32.20766129032259  C 33.336693548387075 32.15725806451613  34.435483870967744 31.804435483870975  34.87903225806451 31.55241935483872  C 37.5302419354839 30.030241935483872  37.439516129032256 27.600806451612925  37.52016129032256 26.774193548387103  Z " stroke-width="0" stroke-dasharray="0" stroke="rgba(255, 255, 255, 0)" fill="none" class="stroke" mask="url(#Clip886)" />
    <path d="M 23.860887096774206 32.36895161290323  C 22.530241935483872 26.38104838709677  20.46370967741936 26.71370967741936  12.469758064516128 26.784274193548384  C 12.55040322580646 27.610887096774206  12.459677419354847 30.04032258064518  15.110887096774206 31.5625  C 15.554435483870977 31.814516129032256  16.643145161290306 32.16733870967741  17.68145161290323 32.21774193548387  C 20.231854838709666 32.32862903225805  23.860887096774206 32.36895161290323  23.860887096774206 32.36895161290323  Z " stroke-width="0" stroke-dasharray="0" stroke="rgba(255, 255, 255, 0)" fill="none" class="stroke" mask="url(#Clip886)" />
    <path d="M 29.848790322580644 40.12096774193549  C 29.838709677419363 40.110887096774206  29.818548387096765 39.71774193548387  29.51612903225805 39.22379032258064  C 29.19354838709677 38.689516129032256  28.82056451612903 38.48790322580646  28.82056451612903 38.48790322580646  C 26.320564516129025 39.22379032258064  23.558467741935488 39.18346774193549  21.169354838709666 38.48790322580646  C 21.169354838709666 38.48790322580646  20.877016129032256 38.63911290322582  20.524193548387103 39.153225806451616  C 20.241935483870975 39.56653225806451  20.15120967741936 40.12096774193549  20.15120967741936 40.12096774193549  C 23.084677419354847 41.89516129032259  26.915322580645153 41.89516129032259  29.848790322580644 40.12096774193549  Z " stroke-width="0" stroke-dasharray="0" stroke="rgba(255, 255, 255, 0)" fill="none" class="stroke" mask="url(#Clip886)" />
  </g>
</svg>