<?xml version="1.0" encoding="utf-8"?>
<svg version="1.1" xmlns:xlink="http://www.w3.org/1999/xlink" width="6px" height="6px" xmlns="http://www.w3.org/2000/svg">
  <defs>
    <pattern id="BGPattern" patternUnits="userSpaceOnUse" alignment="0 0" imageRepeat="None" />
    <mask fill="white" id="Clip3889">
      <path d="M 0 3.000000000000001  C 0 4.656854249492378  1.3431457505076203 5.999999999999998  3 5.999999999999998  C 4.65685424949238 5.999999999999998  6 4.656854249492378  6 2.999999999999999  C 6 1.3431457505076199  4.65685424949238 0  3 0  C 1.3431457505076203 0  0 1.3431457505076199  0 2.999999999999999  Z M 2 3.000000000000001  C 2 2.4477152501692077  2.4477152501692068 2.0000000000000013  3 2.0000000000000013  C 3.5522847498307932 2.0000000000000013  4 2.4477152501692077  4 3.000000000000001  C 4 3.5522847498307937  3.5522847498307932 4  3 4  C 2.4477152501692068 4  2 3.5522847498307937  2 3.000000000000001  Z " fill-rule="evenodd" />
    </mask>
  </defs>
  <g transform="matrix(1 0 0 1 -16 -8 )">
    <path d="M 0 3.000000000000001  C 0 4.656854249492378  1.3431457505076203 5.999999999999998  3 5.999999999999998  C 4.65685424949238 5.999999999999998  6 4.656854249492378  6 2.999999999999999  C 6 1.3431457505076199  4.65685424949238 0  3 0  C 1.3431457505076203 0  0 1.3431457505076199  0 2.999999999999999  Z M 2 3.000000000000001  C 2 2.4477152501692077  2.4477152501692068 2.0000000000000013  3 2.0000000000000013  C 3.5522847498307932 2.0000000000000013  4 2.4477152501692077  4 3.000000000000001  C 4 3.5522847498307937  3.5522847498307932 4  3 4  C 2.4477152501692068 4  2 3.5522847498307937  2 3.000000000000001  Z " fill-rule="nonzero" fill="rgba(0, 0, 0, 1)" stroke="none" transform="matrix(1 0 0 1 16 8 )" class="fill" />
    <path d="M 0 3.000000000000001  C 0 4.656854249492378  1.3431457505076203 5.999999999999998  3 5.999999999999998  C 4.65685424949238 5.999999999999998  6 4.656854249492378  6 2.999999999999999  C 6 1.3431457505076199  4.65685424949238 0  3 0  C 1.3431457505076203 0  0 1.3431457505076199  0 2.999999999999999  Z " stroke-width="0" stroke-dasharray="0" stroke="rgba(255, 255, 255, 0)" fill="none" transform="matrix(1 0 0 1 16 8 )" class="stroke" mask="url(#Clip3889)" />
    <path d="M 2 3.000000000000001  C 2 2.4477152501692077  2.4477152501692068 2.0000000000000013  3 2.0000000000000013  C 3.5522847498307932 2.0000000000000013  4 2.4477152501692077  4 3.000000000000001  C 4 3.5522847498307937  3.5522847498307932 4  3 4  C 2.4477152501692068 4  2 3.5522847498307937  2 3.000000000000001  Z " stroke-width="0" stroke-dasharray="0" stroke="rgba(255, 255, 255, 0)" fill="none" transform="matrix(1 0 0 1 16 8 )" class="stroke" mask="url(#Clip3889)" />
  </g>
</svg>