<?xml version="1.0" encoding="utf-8"?>
<svg version="1.1" xmlns:xlink="http://www.w3.org/1999/xlink" width="4px" height="10px" xmlns="http://www.w3.org/2000/svg">
  <defs>
    <pattern id="BGPattern" patternUnits="userSpaceOnUse" alignment="0 0" imageRepeat="None" />
    <mask fill="white" id="Clip3275">
      <path d="M 1 1  L 3 1  L 3 9  L 1 9  L 1 1  Z M 4 1  C 4 0.3999999999999999  3.5999999999999996 0  3 0  L 1 0  C 0.3999999999999999 0  0 0.3999999999999999  0 1  L 0 9  C 0 9.6  0.3999999999999999 10  1 10  L 3 10  C 3.5999999999999996 10  4 9.6  4 9  L 4 1  Z " fill-rule="evenodd" />
    </mask>
  </defs>
  <g transform="matrix(1 0 0 1 -3 -3 )">
    <path d="M 1 1  L 3 1  L 3 9  L 1 9  L 1 1  Z M 4 1  C 4 0.3999999999999999  3.5999999999999996 0  3 0  L 1 0  C 0.3999999999999999 0  0 0.3999999999999999  0 1  L 0 9  C 0 9.6  0.3999999999999999 10  1 10  L 3 10  C 3.5999999999999996 10  4 9.6  4 9  L 4 1  Z " fill-rule="nonzero" fill="rgba(0, 0, 0, 1)" stroke="none" transform="matrix(1 0 0 1 3 3 )" class="fill" />
    <path d="M 1 1  L 3 1  L 3 9  L 1 9  L 1 1  Z " stroke-width="0" stroke-dasharray="0" stroke="rgba(255, 255, 255, 0)" fill="none" transform="matrix(1 0 0 1 3 3 )" class="stroke" mask="url(#Clip3275)" />
    <path d="M 4 1  C 4 0.3999999999999999  3.5999999999999996 0  3 0  L 1 0  C 0.3999999999999999 0  0 0.3999999999999999  0 1  L 0 9  C 0 9.6  0.3999999999999999 10  1 10  L 3 10  C 3.5999999999999996 10  4 9.6  4 9  L 4 1  Z " stroke-width="0" stroke-dasharray="0" stroke="rgba(255, 255, 255, 0)" fill="none" transform="matrix(1 0 0 1 3 3 )" class="stroke" mask="url(#Clip3275)" />
  </g>
</svg>