<?xml version="1.0" encoding="utf-8"?>
<svg version="1.1" xmlns:xlink="http://www.w3.org/1999/xlink" width="48px" height="48px" xmlns="http://www.w3.org/2000/svg">
  <defs>
    <pattern id="BGPattern" patternUnits="userSpaceOnUse" alignment="0 0" imageRepeat="None" />
    <mask fill="white" id="Clip6664">
      <path d="M 11.806000000000004 23.959999999999997  L 10.786000000000003 20.04  L 9.826000000000004 23.958  L 11.806000000000004 23.959999999999997  Z M 18.570000000000004 20.202  L 18.570000000000004 20.204  L 18.570000000000004 22.578  C 19.668000000000003 22.573999999999998  20.486000000000004 22.637999999999998  21.028000000000002 22.512  C 21.568 22.388  21.836000000000002 22.078  21.836000000000002 21.328  C 21.836000000000002 20.66  21.596000000000004 20.39  21.066000000000003 20.282  C 20.538000000000004 20.172  19.722 20.226  18.570000000000004 20.202  Z M 30.242000000000004 23.966  L 29.222 20.046  L 28.262 23.966  L 30.242000000000004 23.966  Z M 48 24.008  L 23.992000000000004 0  L 0 23.996  L 24.008000000000003 48  L 48 24.008  Z M 9.180000000000001 18.422000000000008  C 9.524000000000001 18.04800000000001  10.020000000000001 17.79200000000001  10.786000000000003 17.792  C 11.518000000000002 17.792  11.998000000000003 18.026000000000003  12.336000000000002 18.382  C 12.674000000000003 18.742  12.870000000000005 19.224  13.036000000000003 19.722  L 15.176000000000005 26.144000000000005  C 15.176000000000005 26.144000000000005  15.444000000000004 26.696  15.464000000000006 27.278000000000006  C 15.484000000000002 27.857999999999997  15.256000000000004 28.476000000000003  14.264000000000003 28.61  C 13.554000000000006 28.502000000000002  13.192000000000004 28.298000000000002  12.950000000000005 27.910000000000004  C 12.706000000000005 27.522000000000006  12.582000000000004 26.946000000000005  12.340000000000005 26.090000000000003  L 9.290000000000003 26.090000000000003  C 8.996000000000002 27.026000000000003  8.900000000000002 27.604000000000003  8.700000000000003 27.972000000000005  C 8.500000000000004 28.340000000000003  8.192000000000004 28.498000000000005  7.468000000000002 28.60600000000001  C 6.452000000000002 28.498000000000005  6.196000000000002 27.868000000000006  6.196000000000002 27.266000000000005  C 6.196000000000002 26.664000000000005  6.454000000000002 26.090000000000007  6.454000000000002 26.090000000000007  L 8.484000000000002 19.78600000000001  C 8.644000000000002 19.294000000000008  8.836000000000002 18.79600000000001  9.180000000000001 18.422000000000008  Z M 27.554000000000002 18.442000000000007  C 27.902 18.06200000000001  28.402 17.796000000000006  29.168 17.796000000000003  C 29.9 17.796000000000003  30.382000000000005 18.030000000000005  30.718000000000004 18.386000000000003  C 31.058000000000003 18.746000000000002  31.252000000000002 19.228  31.418 19.726000000000003  L 33.562 26.148000000000003  C 33.562 26.148000000000003  33.83200000000001 26.700000000000003  33.852000000000004 27.282000000000004  C 33.872 27.862000000000002  33.644000000000005 28.480000000000004  32.652 28.614000000000004  C 31.939999999999998 28.506  31.58 28.302000000000003  31.336 27.914  C 31.092 27.526000000000003  30.964 26.95000000000001  30.721999999999998 26.09400000000001  L 27.671999999999997 26.09400000000001  C 27.378 27.030000000000005  27.285999999999998 27.608000000000004  27.086 27.976000000000006  C 26.886 28.34400000000001  26.573999999999998 28.50200000000001  25.851999999999997 28.610000000000007  C 24.834000000000003 28.50200000000001  24.582 27.876000000000005  24.582 27.274000000000008  C 24.582 26.67200000000001  24.836000000000006 26.09400000000001  24.836000000000006 26.09400000000001  L 26.868000000000002 19.790000000000006  C 27.018 19.324000000000005  27.208000000000006 18.822000000000006  27.554000000000002 18.442000000000007  Z M 34.72200000000001 18.37800000000001  C 34.93600000000001 18.02400000000001  35.298 17.80000000000001  35.86 17.800000000000004  C 36.476 17.800000000000004  36.82600000000001 18.028000000000006  37.019999999999996 18.382000000000005  C 37.214 18.738000000000007  37.254000000000005 19.218000000000004  37.254000000000005 19.726000000000006  L 37.254000000000005 26.140000000000008  C 37.684 26.150000000000013  39.714 26.140000000000008  39.714 26.140000000000008  C 40.294 26.140000000000008  40.774 26.180000000000007  41.102000000000004 26.352000000000007  C 41.43000000000001 26.524000000000008  41.605999999999995 26.830000000000013  41.59 27.360000000000007  C 41.56999999999999 28.082000000000008  41.230000000000004 28.394000000000005  40.778000000000006 28.524000000000008  C 40.32600000000001 28.654000000000007  39.760000000000005 28.602000000000007  39.290000000000006 28.602000000000007  L 35.757999999999996 28.602000000000007  C 35.007999999999996 28.602000000000007  34.68599999999999 28.27200000000001  34.55 27.730000000000008  C 34.416 27.19000000000001  34.47 26.44000000000001  34.47 25.60600000000001  L 34.47 19.72600000000001  C 34.44200000000001 19.21800000000001  34.510000000000005 18.73400000000001  34.72200000000001 18.37800000000001  Z M 16.340000000000003 18.362000000000002  C 16.668000000000003 18.102  17.312000000000005 18.008000000000003  18.570000000000004 18.008000000000003  L 20.766000000000005 18.008000000000003  C 21.274000000000004 18.008000000000003  21.786000000000005 18.004  22.300000000000004 18.176000000000002  C 22.818000000000005 18.348000000000003  23.340000000000003 18.696  23.872000000000003 19.402  C 24.432000000000002 20.158  24.572000000000003 21.268  24.316000000000003 22.23  C 24.060000000000002 23.192  23.404000000000003 24.008  22.372000000000003 24.168  C 22.746000000000002 24.864  23.980000000000004 26.734  23.980000000000004 26.734  C 23.980000000000004 26.734  24.112000000000002 26.953999999999997  24.136000000000003 27.266  C 24.160000000000004 27.575999999999993  24.076 27.979999999999997  23.636000000000003 28.343999999999994  C 22.860000000000003 28.637999999999998  22.37 28.555999999999997  22.076000000000004 28.403999999999996  C 21.778000000000006 28.247999999999998  21.676000000000005 28.019999999999996  21.676000000000005 28.019999999999996  C 21.676000000000005 28.019999999999996  20.552000000000007 26.09199999999999  19.856000000000005 24.753999999999998  L 18.570000000000004 24.753999999999998  L 18.570000000000004 27.43  C 18.570000000000004 27.43  18.590000000000003 27.738  18.442000000000004 28.04  C 18.292000000000005 28.340000000000003  17.970000000000002 28.636000000000003  17.286000000000005 28.61  C 16.632000000000005 28.61  16.310000000000006 28.3  16.152000000000005 27.992000000000004  C 15.994000000000003 27.683999999999997  16.000000000000004 27.380000000000003  16.000000000000004 27.380000000000003  L 16.000000000000004 19.722  C 16.000000000000004 19.054000000000002  16.012000000000004 18.624000000000002  16.340000000000003 18.362000000000002  Z " fill-rule="evenodd" />
    </mask>
  </defs>
  <g>
    <path d="M 11.806000000000004 23.959999999999997  L 10.786000000000003 20.04  L 9.826000000000004 23.958  L 11.806000000000004 23.959999999999997  Z M 18.570000000000004 20.202  L 18.570000000000004 20.204  L 18.570000000000004 22.578  C 19.668000000000003 22.573999999999998  20.486000000000004 22.637999999999998  21.028000000000002 22.512  C 21.568 22.388  21.836000000000002 22.078  21.836000000000002 21.328  C 21.836000000000002 20.66  21.596000000000004 20.39  21.066000000000003 20.282  C 20.538000000000004 20.172  19.722 20.226  18.570000000000004 20.202  Z M 30.242000000000004 23.966  L 29.222 20.046  L 28.262 23.966  L 30.242000000000004 23.966  Z M 48 24.008  L 23.992000000000004 0  L 0 23.996  L 24.008000000000003 48  L 48 24.008  Z M 9.180000000000001 18.422000000000008  C 9.524000000000001 18.04800000000001  10.020000000000001 17.79200000000001  10.786000000000003 17.792  C 11.518000000000002 17.792  11.998000000000003 18.026000000000003  12.336000000000002 18.382  C 12.674000000000003 18.742  12.870000000000005 19.224  13.036000000000003 19.722  L 15.176000000000005 26.144000000000005  C 15.176000000000005 26.144000000000005  15.444000000000004 26.696  15.464000000000006 27.278000000000006  C 15.484000000000002 27.857999999999997  15.256000000000004 28.476000000000003  14.264000000000003 28.61  C 13.554000000000006 28.502000000000002  13.192000000000004 28.298000000000002  12.950000000000005 27.910000000000004  C 12.706000000000005 27.522000000000006  12.582000000000004 26.946000000000005  12.340000000000005 26.090000000000003  L 9.290000000000003 26.090000000000003  C 8.996000000000002 27.026000000000003  8.900000000000002 27.604000000000003  8.700000000000003 27.972000000000005  C 8.500000000000004 28.340000000000003  8.192000000000004 28.498000000000005  7.468000000000002 28.60600000000001  C 6.452000000000002 28.498000000000005  6.196000000000002 27.868000000000006  6.196000000000002 27.266000000000005  C 6.196000000000002 26.664000000000005  6.454000000000002 26.090000000000007  6.454000000000002 26.090000000000007  L 8.484000000000002 19.78600000000001  C 8.644000000000002 19.294000000000008  8.836000000000002 18.79600000000001  9.180000000000001 18.422000000000008  Z M 27.554000000000002 18.442000000000007  C 27.902 18.06200000000001  28.402 17.796000000000006  29.168 17.796000000000003  C 29.9 17.796000000000003  30.382000000000005 18.030000000000005  30.718000000000004 18.386000000000003  C 31.058000000000003 18.746000000000002  31.252000000000002 19.228  31.418 19.726000000000003  L 33.562 26.148000000000003  C 33.562 26.148000000000003  33.83200000000001 26.700000000000003  33.852000000000004 27.282000000000004  C 33.872 27.862000000000002  33.644000000000005 28.480000000000004  32.652 28.614000000000004  C 31.939999999999998 28.506  31.58 28.302000000000003  31.336 27.914  C 31.092 27.526000000000003  30.964 26.95000000000001  30.721999999999998 26.09400000000001  L 27.671999999999997 26.09400000000001  C 27.378 27.030000000000005  27.285999999999998 27.608000000000004  27.086 27.976000000000006  C 26.886 28.34400000000001  26.573999999999998 28.50200000000001  25.851999999999997 28.610000000000007  C 24.834000000000003 28.50200000000001  24.582 27.876000000000005  24.582 27.274000000000008  C 24.582 26.67200000000001  24.836000000000006 26.09400000000001  24.836000000000006 26.09400000000001  L 26.868000000000002 19.790000000000006  C 27.018 19.324000000000005  27.208000000000006 18.822000000000006  27.554000000000002 18.442000000000007  Z M 34.72200000000001 18.37800000000001  C 34.93600000000001 18.02400000000001  35.298 17.80000000000001  35.86 17.800000000000004  C 36.476 17.800000000000004  36.82600000000001 18.028000000000006  37.019999999999996 18.382000000000005  C 37.214 18.738000000000007  37.254000000000005 19.218000000000004  37.254000000000005 19.726000000000006  L 37.254000000000005 26.140000000000008  C 37.684 26.150000000000013  39.714 26.140000000000008  39.714 26.140000000000008  C 40.294 26.140000000000008  40.774 26.180000000000007  41.102000000000004 26.352000000000007  C 41.43000000000001 26.524000000000008  41.605999999999995 26.830000000000013  41.59 27.360000000000007  C 41.56999999999999 28.082000000000008  41.230000000000004 28.394000000000005  40.778000000000006 28.524000000000008  C 40.32600000000001 28.654000000000007  39.760000000000005 28.602000000000007  39.290000000000006 28.602000000000007  L 35.757999999999996 28.602000000000007  C 35.007999999999996 28.602000000000007  34.68599999999999 28.27200000000001  34.55 27.730000000000008  C 34.416 27.19000000000001  34.47 26.44000000000001  34.47 25.60600000000001  L 34.47 19.72600000000001  C 34.44200000000001 19.21800000000001  34.510000000000005 18.73400000000001  34.72200000000001 18.37800000000001  Z M 16.340000000000003 18.362000000000002  C 16.668000000000003 18.102  17.312000000000005 18.008000000000003  18.570000000000004 18.008000000000003  L 20.766000000000005 18.008000000000003  C 21.274000000000004 18.008000000000003  21.786000000000005 18.004  22.300000000000004 18.176000000000002  C 22.818000000000005 18.348000000000003  23.340000000000003 18.696  23.872000000000003 19.402  C 24.432000000000002 20.158  24.572000000000003 21.268  24.316000000000003 22.23  C 24.060000000000002 23.192  23.404000000000003 24.008  22.372000000000003 24.168  C 22.746000000000002 24.864  23.980000000000004 26.734  23.980000000000004 26.734  C 23.980000000000004 26.734  24.112000000000002 26.953999999999997  24.136000000000003 27.266  C 24.160000000000004 27.575999999999993  24.076 27.979999999999997  23.636000000000003 28.343999999999994  C 22.860000000000003 28.637999999999998  22.37 28.555999999999997  22.076000000000004 28.403999999999996  C 21.778000000000006 28.247999999999998  21.676000000000005 28.019999999999996  21.676000000000005 28.019999999999996  C 21.676000000000005 28.019999999999996  20.552000000000007 26.09199999999999  19.856000000000005 24.753999999999998  L 18.570000000000004 24.753999999999998  L 18.570000000000004 27.43  C 18.570000000000004 27.43  18.590000000000003 27.738  18.442000000000004 28.04  C 18.292000000000005 28.340000000000003  17.970000000000002 28.636000000000003  17.286000000000005 28.61  C 16.632000000000005 28.61  16.310000000000006 28.3  16.152000000000005 27.992000000000004  C 15.994000000000003 27.683999999999997  16.000000000000004 27.380000000000003  16.000000000000004 27.380000000000003  L 16.000000000000004 19.722  C 16.000000000000004 19.054000000000002  16.012000000000004 18.624000000000002  16.340000000000003 18.362000000000002  Z " fill-rule="nonzero" fill="rgba(0, 99, 203, 1)" stroke="none" class="fill" />
    <path d="M 11.806000000000004 23.959999999999997  L 10.786000000000003 20.04  L 9.826000000000004 23.958  L 11.806000000000004 23.959999999999997  Z " stroke-width="0" stroke-dasharray="0" stroke="rgba(255, 255, 255, 0)" fill="none" class="stroke" mask="url(#Clip6664)" />
    <path d="M 18.570000000000004 20.202  L 18.570000000000004 20.204  L 18.570000000000004 22.578  C 19.668000000000003 22.573999999999998  20.486000000000004 22.637999999999998  21.028000000000002 22.512  C 21.568 22.388  21.836000000000002 22.078  21.836000000000002 21.328  C 21.836000000000002 20.66  21.596000000000004 20.39  21.066000000000003 20.282  C 20.538000000000004 20.172  19.722 20.226  18.570000000000004 20.202  Z " stroke-width="0" stroke-dasharray="0" stroke="rgba(255, 255, 255, 0)" fill="none" class="stroke" mask="url(#Clip6664)" />
    <path d="M 30.242000000000004 23.966  L 29.222 20.046  L 28.262 23.966  L 30.242000000000004 23.966  Z " stroke-width="0" stroke-dasharray="0" stroke="rgba(255, 255, 255, 0)" fill="none" class="stroke" mask="url(#Clip6664)" />
    <path d="M 48 24.008  L 23.992000000000004 0  L 0 23.996  L 24.008000000000003 48  L 48 24.008  Z " stroke-width="0" stroke-dasharray="0" stroke="rgba(255, 255, 255, 0)" fill="none" class="stroke" mask="url(#Clip6664)" />
    <path d="M 9.180000000000001 18.422000000000008  C 9.524000000000001 18.04800000000001  10.020000000000001 17.79200000000001  10.786000000000003 17.792  C 11.518000000000002 17.792  11.998000000000003 18.026000000000003  12.336000000000002 18.382  C 12.674000000000003 18.742  12.870000000000005 19.224  13.036000000000003 19.722  L 15.176000000000005 26.144000000000005  C 15.176000000000005 26.144000000000005  15.444000000000004 26.696  15.464000000000006 27.278000000000006  C 15.484000000000002 27.857999999999997  15.256000000000004 28.476000000000003  14.264000000000003 28.61  C 13.554000000000006 28.502000000000002  13.192000000000004 28.298000000000002  12.950000000000005 27.910000000000004  C 12.706000000000005 27.522000000000006  12.582000000000004 26.946000000000005  12.340000000000005 26.090000000000003  L 9.290000000000003 26.090000000000003  C 8.996000000000002 27.026000000000003  8.900000000000002 27.604000000000003  8.700000000000003 27.972000000000005  C 8.500000000000004 28.340000000000003  8.192000000000004 28.498000000000005  7.468000000000002 28.60600000000001  C 6.452000000000002 28.498000000000005  6.196000000000002 27.868000000000006  6.196000000000002 27.266000000000005  C 6.196000000000002 26.664000000000005  6.454000000000002 26.090000000000007  6.454000000000002 26.090000000000007  L 8.484000000000002 19.78600000000001  C 8.644000000000002 19.294000000000008  8.836000000000002 18.79600000000001  9.180000000000001 18.422000000000008  Z " stroke-width="0" stroke-dasharray="0" stroke="rgba(255, 255, 255, 0)" fill="none" class="stroke" mask="url(#Clip6664)" />
    <path d="M 27.554000000000002 18.442000000000007  C 27.902 18.06200000000001  28.402 17.796000000000006  29.168 17.796000000000003  C 29.9 17.796000000000003  30.382000000000005 18.030000000000005  30.718000000000004 18.386000000000003  C 31.058000000000003 18.746000000000002  31.252000000000002 19.228  31.418 19.726000000000003  L 33.562 26.148000000000003  C 33.562 26.148000000000003  33.83200000000001 26.700000000000003  33.852000000000004 27.282000000000004  C 33.872 27.862000000000002  33.644000000000005 28.480000000000004  32.652 28.614000000000004  C 31.939999999999998 28.506  31.58 28.302000000000003  31.336 27.914  C 31.092 27.526000000000003  30.964 26.95000000000001  30.721999999999998 26.09400000000001  L 27.671999999999997 26.09400000000001  C 27.378 27.030000000000005  27.285999999999998 27.608000000000004  27.086 27.976000000000006  C 26.886 28.34400000000001  26.573999999999998 28.50200000000001  25.851999999999997 28.610000000000007  C 24.834000000000003 28.50200000000001  24.582 27.876000000000005  24.582 27.274000000000008  C 24.582 26.67200000000001  24.836000000000006 26.09400000000001  24.836000000000006 26.09400000000001  L 26.868000000000002 19.790000000000006  C 27.018 19.324000000000005  27.208000000000006 18.822000000000006  27.554000000000002 18.442000000000007  Z " stroke-width="0" stroke-dasharray="0" stroke="rgba(255, 255, 255, 0)" fill="none" class="stroke" mask="url(#Clip6664)" />
    <path d="M 34.72200000000001 18.37800000000001  C 34.93600000000001 18.02400000000001  35.298 17.80000000000001  35.86 17.800000000000004  C 36.476 17.800000000000004  36.82600000000001 18.028000000000006  37.019999999999996 18.382000000000005  C 37.214 18.738000000000007  37.254000000000005 19.218000000000004  37.254000000000005 19.726000000000006  L 37.254000000000005 26.140000000000008  C 37.684 26.150000000000013  39.714 26.140000000000008  39.714 26.140000000000008  C 40.294 26.140000000000008  40.774 26.180000000000007  41.102000000000004 26.352000000000007  C 41.43000000000001 26.524000000000008  41.605999999999995 26.830000000000013  41.59 27.360000000000007  C 41.56999999999999 28.082000000000008  41.230000000000004 28.394000000000005  40.778000000000006 28.524000000000008  C 40.32600000000001 28.654000000000007  39.760000000000005 28.602000000000007  39.290000000000006 28.602000000000007  L 35.757999999999996 28.602000000000007  C 35.007999999999996 28.602000000000007  34.68599999999999 28.27200000000001  34.55 27.730000000000008  C 34.416 27.19000000000001  34.47 26.44000000000001  34.47 25.60600000000001  L 34.47 19.72600000000001  C 34.44200000000001 19.21800000000001  34.510000000000005 18.73400000000001  34.72200000000001 18.37800000000001  Z " stroke-width="0" stroke-dasharray="0" stroke="rgba(255, 255, 255, 0)" fill="none" class="stroke" mask="url(#Clip6664)" />
    <path d="M 16.340000000000003 18.362000000000002  C 16.668000000000003 18.102  17.312000000000005 18.008000000000003  18.570000000000004 18.008000000000003  L 20.766000000000005 18.008000000000003  C 21.274000000000004 18.008000000000003  21.786000000000005 18.004  22.300000000000004 18.176000000000002  C 22.818000000000005 18.348000000000003  23.340000000000003 18.696  23.872000000000003 19.402  C 24.432000000000002 20.158  24.572000000000003 21.268  24.316000000000003 22.23  C 24.060000000000002 23.192  23.404000000000003 24.008  22.372000000000003 24.168  C 22.746000000000002 24.864  23.980000000000004 26.734  23.980000000000004 26.734  C 23.980000000000004 26.734  24.112000000000002 26.953999999999997  24.136000000000003 27.266  C 24.160000000000004 27.575999999999993  24.076 27.979999999999997  23.636000000000003 28.343999999999994  C 22.860000000000003 28.637999999999998  22.37 28.555999999999997  22.076000000000004 28.403999999999996  C 21.778000000000006 28.247999999999998  21.676000000000005 28.019999999999996  21.676000000000005 28.019999999999996  C 21.676000000000005 28.019999999999996  20.552000000000007 26.09199999999999  19.856000000000005 24.753999999999998  L 18.570000000000004 24.753999999999998  L 18.570000000000004 27.43  C 18.570000000000004 27.43  18.590000000000003 27.738  18.442000000000004 28.04  C 18.292000000000005 28.340000000000003  17.970000000000002 28.636000000000003  17.286000000000005 28.61  C 16.632000000000005 28.61  16.310000000000006 28.3  16.152000000000005 27.992000000000004  C 15.994000000000003 27.683999999999997  16.000000000000004 27.380000000000003  16.000000000000004 27.380000000000003  L 16.000000000000004 19.722  C 16.000000000000004 19.054000000000002  16.012000000000004 18.624000000000002  16.340000000000003 18.362000000000002  Z " stroke-width="0" stroke-dasharray="0" stroke="rgba(255, 255, 255, 0)" fill="none" class="stroke" mask="url(#Clip6664)" />
  </g>
</svg>