<?xml version="1.0" encoding="utf-8"?>
<svg version="1.1" xmlns:xlink="http://www.w3.org/1999/xlink" width="44px" height="50px" xmlns="http://www.w3.org/2000/svg">
  <defs>
    <pattern id="BGPattern" patternUnits="userSpaceOnUse" alignment="0 0" imageRepeat="None" />
    <mask fill="white" id="Clip1243">
      <path d="M 43.39863547758284 32.72417153996102  C 44.795321637426895 24.818713450292393  42.245614035087726 14.07894736842104  34.32553606237815 12.68518518518519  C 30.8625730994152 12.076023391812868  24.768031189083818 14.084795321637413  21.929824561403507 15.688109161793362  C 19.0916179337232 14.084795321637413  12.996101364522417 12.075048732943458  9.533138401559455 12.68518518518519  C 1.6150097465886972 14.07894736842104  -0.936647173489277 24.818713450292393  0.4600389863547747 32.72417153996102  C 1.8567251461988263 40.62962962962962  6.4346978557504855 50  15.731968810916172 50  C 16.907407407407405 50  18.082846003898624 49.55068226120858  19.088693957114998 48.992202729044834  C 20.850877192982452 48.01461988304095  23.009746588693957 48.01461988304095  24.7719298245614 48.992202729044834  C 25.77777777777777 49.55068226120858  26.953216374269005 50  28.127680311890828 50  C 37.424951267056514 50  42.00292397660817 40.62962962962962  43.39863547758284 32.72417153996102  Z M 20.434697855750485 10.949317738791422  C 20.434697855750485 10.949317738791422  25.9317738791423 11.616959064327489  28.911306042884988 8.637426900584785  C 31.88986354775828 5.6588693957115055  31.22319688109161 0.16081871345029697  31.22319688109161 0.16081871345029697  C 31.22319688109161 0.16081871345029697  25.7251461988304 -0.5068226120857702  22.746588693957108 2.4727095516569193  C 19.767056530214433 5.452241715399609  20.434697855750485 10.949317738791422  20.434697855750485 10.949317738791422  Z " fill-rule="evenodd" />
    </mask>
  </defs>
  <g>
    <path d="M 43.39863547758284 32.72417153996102  C 44.795321637426895 24.818713450292393  42.245614035087726 14.07894736842104  34.32553606237815 12.68518518518519  C 30.8625730994152 12.076023391812868  24.768031189083818 14.084795321637413  21.929824561403507 15.688109161793362  C 19.0916179337232 14.084795321637413  12.996101364522417 12.075048732943458  9.533138401559455 12.68518518518519  C 1.6150097465886972 14.07894736842104  -0.936647173489277 24.818713450292393  0.4600389863547747 32.72417153996102  C 1.8567251461988263 40.62962962962962  6.4346978557504855 50  15.731968810916172 50  C 16.907407407407405 50  18.082846003898624 49.55068226120858  19.088693957114998 48.992202729044834  C 20.850877192982452 48.01461988304095  23.009746588693957 48.01461988304095  24.7719298245614 48.992202729044834  C 25.77777777777777 49.55068226120858  26.953216374269005 50  28.127680311890828 50  C 37.424951267056514 50  42.00292397660817 40.62962962962962  43.39863547758284 32.72417153996102  Z M 20.434697855750485 10.949317738791422  C 20.434697855750485 10.949317738791422  25.9317738791423 11.616959064327489  28.911306042884988 8.637426900584785  C 31.88986354775828 5.6588693957115055  31.22319688109161 0.16081871345029697  31.22319688109161 0.16081871345029697  C 31.22319688109161 0.16081871345029697  25.7251461988304 -0.5068226120857702  22.746588693957108 2.4727095516569193  C 19.767056530214433 5.452241715399609  20.434697855750485 10.949317738791422  20.434697855750485 10.949317738791422  Z " fill-rule="nonzero" fill="rgba(0, 0, 0, 1)" stroke="none" class="fill" />
    <path d="M 43.39863547758284 32.72417153996102  C 44.795321637426895 24.818713450292393  42.245614035087726 14.07894736842104  34.32553606237815 12.68518518518519  C 30.8625730994152 12.076023391812868  24.768031189083818 14.084795321637413  21.929824561403507 15.688109161793362  C 19.0916179337232 14.084795321637413  12.996101364522417 12.075048732943458  9.533138401559455 12.68518518518519  C 1.6150097465886972 14.07894736842104  -0.936647173489277 24.818713450292393  0.4600389863547747 32.72417153996102  C 1.8567251461988263 40.62962962962962  6.4346978557504855 50  15.731968810916172 50  C 16.907407407407405 50  18.082846003898624 49.55068226120858  19.088693957114998 48.992202729044834  C 20.850877192982452 48.01461988304095  23.009746588693957 48.01461988304095  24.7719298245614 48.992202729044834  C 25.77777777777777 49.55068226120858  26.953216374269005 50  28.127680311890828 50  C 37.424951267056514 50  42.00292397660817 40.62962962962962  43.39863547758284 32.72417153996102  Z " stroke-width="0" stroke-dasharray="0" stroke="rgba(255, 255, 255, 0)" fill="none" class="stroke" mask="url(#Clip1243)" />
    <path d="M 20.434697855750485 10.949317738791422  C 20.434697855750485 10.949317738791422  25.9317738791423 11.616959064327489  28.911306042884988 8.637426900584785  C 31.88986354775828 5.6588693957115055  31.22319688109161 0.16081871345029697  31.22319688109161 0.16081871345029697  C 31.22319688109161 0.16081871345029697  25.7251461988304 -0.5068226120857702  22.746588693957108 2.4727095516569193  C 19.767056530214433 5.452241715399609  20.434697855750485 10.949317738791422  20.434697855750485 10.949317738791422  Z " stroke-width="0" stroke-dasharray="0" stroke="rgba(255, 255, 255, 0)" fill="none" class="stroke" mask="url(#Clip1243)" />
  </g>
</svg>