<?xml version="1.0" encoding="utf-8"?>
<svg version="1.1" xmlns:xlink="http://www.w3.org/1999/xlink" width="22px" height="23px" xmlns="http://www.w3.org/2000/svg">
  <defs>
    <pattern id="BGPattern" patternUnits="userSpaceOnUse" alignment="0 0" imageRepeat="None" />
    <mask fill="white" id="Clip4831">
      <path d="M 7.25 0.5  L 5.75 0.5  C 4.507359312880715 0.5  3.5 1.5073593128807148  3.5 2.75  L 3.5 3.5  L 9.5 3.5  L 9.499999999999998 2.75  C 9.499999999999998 1.5073593128807148  8.492640687119284 0.5000000000000004  7.25 0.5  Z M 3.5 5  L 9.5 5  L 9.5 6.499999999999999  L 12.500000000000002 6.499999999999999  L 12.500000000000002 5  L 18.5 5  L 18.5 6.3229999999999995  C 18.500009524478383 6.606832396040032  18.660244313318962 6.866343086662277  18.914 6.993499999999999  L 20.2565 7.664  C 21.01883303024927 8.045294048021718  21.500255142166438 8.824628757542644  21.5 9.677  L 21.5 18.5  L 12.500000000000002 18.5  L 12.500000000000002 16.25  C 12.499644505448412 16.050951704516624  12.57842907659385 15.859926100506456  12.719000000000001 15.719000000000001  L 14 14.439500000000002  L 14 13.25  C 14 12.835786437626906  13.664213562373096 12.5  13.25 12.5  L 8.75 12.5  C 8.335786437626904 12.5  8 12.835786437626906  8 13.25  L 8 14.4395  L 9.281 15.718999999999996  C 9.421570923406154 15.859926100506456  9.50035549455159 16.050951704516624  9.5 16.25  L 9.5 18.5  L 0.5 18.5  L 0.5 9.677  C 0.5000288044491175 8.824294680255386  0.9820841690507713 8.04487504255006  1.7450000000000003 7.664  L 3.0860000000000007 6.993499999999999  C 3.3397556866810367 6.866343086662277  3.499990475521618 6.606832396040032  3.5 6.3229999999999995  L 3.5 5  Z M 9.5 20  L 0.5 20  L 0.5 20.75  C 0.5 21.992640687119284  1.5073593128807146 23  2.75 23  L 7.25 23  C 8.492640687119284 23  9.499999999999998 21.992640687119284  9.5 20.75  L 9.5 20  Z M 21.5 20  L 12.500000000000002 20  L 12.500000000000002 20.75  C 12.500000000000002 21.992640687119284  13.507359312880716 23  14.75 23  L 19.25 23  C 20.492640687119284 23  21.5 21.992640687119284  21.5 20.75  L 21.5 20  Z M 18.5 2.75  L 18.5 3.5  L 12.500000000000002 3.5  L 12.500000000000002 2.75  C 12.500000000000002 1.5073593128807137  13.507359312880716 0.5  14.75 0.5  L 16.25 0.5  C 17.492640687119284 0.5  18.5 1.5073593128807148  18.5 2.75  Z " fill-rule="evenodd" />
    </mask>
  </defs>
  <g>
    <path d="M 7.25 0.5  L 5.75 0.5  C 4.507359312880715 0.5  3.5 1.5073593128807148  3.5 2.75  L 3.5 3.5  L 9.5 3.5  L 9.499999999999998 2.75  C 9.499999999999998 1.5073593128807148  8.492640687119284 0.5000000000000004  7.25 0.5  Z M 3.5 5  L 9.5 5  L 9.5 6.499999999999999  L 12.500000000000002 6.499999999999999  L 12.500000000000002 5  L 18.5 5  L 18.5 6.3229999999999995  C 18.500009524478383 6.606832396040032  18.660244313318962 6.866343086662277  18.914 6.993499999999999  L 20.2565 7.664  C 21.01883303024927 8.045294048021718  21.500255142166438 8.824628757542644  21.5 9.677  L 21.5 18.5  L 12.500000000000002 18.5  L 12.500000000000002 16.25  C 12.499644505448412 16.050951704516624  12.57842907659385 15.859926100506456  12.719000000000001 15.719000000000001  L 14 14.439500000000002  L 14 13.25  C 14 12.835786437626906  13.664213562373096 12.5  13.25 12.5  L 8.75 12.5  C 8.335786437626904 12.5  8 12.835786437626906  8 13.25  L 8 14.4395  L 9.281 15.718999999999996  C 9.421570923406154 15.859926100506456  9.50035549455159 16.050951704516624  9.5 16.25  L 9.5 18.5  L 0.5 18.5  L 0.5 9.677  C 0.5000288044491175 8.824294680255386  0.9820841690507713 8.04487504255006  1.7450000000000003 7.664  L 3.0860000000000007 6.993499999999999  C 3.3397556866810367 6.866343086662277  3.499990475521618 6.606832396040032  3.5 6.3229999999999995  L 3.5 5  Z M 9.5 20  L 0.5 20  L 0.5 20.75  C 0.5 21.992640687119284  1.5073593128807146 23  2.75 23  L 7.25 23  C 8.492640687119284 23  9.499999999999998 21.992640687119284  9.5 20.75  L 9.5 20  Z M 21.5 20  L 12.500000000000002 20  L 12.500000000000002 20.75  C 12.500000000000002 21.992640687119284  13.507359312880716 23  14.75 23  L 19.25 23  C 20.492640687119284 23  21.5 21.992640687119284  21.5 20.75  L 21.5 20  Z M 18.5 2.75  L 18.5 3.5  L 12.500000000000002 3.5  L 12.500000000000002 2.75  C 12.500000000000002 1.5073593128807137  13.507359312880716 0.5  14.75 0.5  L 16.25 0.5  C 17.492640687119284 0.5  18.5 1.5073593128807148  18.5 2.75  Z " fill-rule="nonzero" fill="rgba(0, 0, 0, 1)" stroke="none" class="fill" />
    <path d="M 7.25 0.5  L 5.75 0.5  C 4.507359312880715 0.5  3.5 1.5073593128807148  3.5 2.75  L 3.5 3.5  L 9.5 3.5  L 9.499999999999998 2.75  C 9.499999999999998 1.5073593128807148  8.492640687119284 0.5000000000000004  7.25 0.5  Z " stroke-width="0" stroke-dasharray="0" stroke="rgba(255, 255, 255, 0)" fill="none" class="stroke" mask="url(#Clip4831)" />
    <path d="M 3.5 5  L 9.5 5  L 9.5 6.499999999999999  L 12.500000000000002 6.499999999999999  L 12.500000000000002 5  L 18.5 5  L 18.5 6.3229999999999995  C 18.500009524478383 6.606832396040032  18.660244313318962 6.866343086662277  18.914 6.993499999999999  L 20.2565 7.664  C 21.01883303024927 8.045294048021718  21.500255142166438 8.824628757542644  21.5 9.677  L 21.5 18.5  L 12.500000000000002 18.5  L 12.500000000000002 16.25  C 12.499644505448412 16.050951704516624  12.57842907659385 15.859926100506456  12.719000000000001 15.719000000000001  L 14 14.439500000000002  L 14 13.25  C 14 12.835786437626906  13.664213562373096 12.5  13.25 12.5  L 8.75 12.5  C 8.335786437626904 12.5  8 12.835786437626906  8 13.25  L 8 14.4395  L 9.281 15.718999999999996  C 9.421570923406154 15.859926100506456  9.50035549455159 16.050951704516624  9.5 16.25  L 9.5 18.5  L 0.5 18.5  L 0.5 9.677  C 0.5000288044491175 8.824294680255386  0.9820841690507713 8.04487504255006  1.7450000000000003 7.664  L 3.0860000000000007 6.993499999999999  C 3.3397556866810367 6.866343086662277  3.499990475521618 6.606832396040032  3.5 6.3229999999999995  L 3.5 5  Z " stroke-width="0" stroke-dasharray="0" stroke="rgba(255, 255, 255, 0)" fill="none" class="stroke" mask="url(#Clip4831)" />
    <path d="M 9.5 20  L 0.5 20  L 0.5 20.75  C 0.5 21.992640687119284  1.5073593128807146 23  2.75 23  L 7.25 23  C 8.492640687119284 23  9.499999999999998 21.992640687119284  9.5 20.75  L 9.5 20  Z " stroke-width="0" stroke-dasharray="0" stroke="rgba(255, 255, 255, 0)" fill="none" class="stroke" mask="url(#Clip4831)" />
    <path d="M 21.5 20  L 12.500000000000002 20  L 12.500000000000002 20.75  C 12.500000000000002 21.992640687119284  13.507359312880716 23  14.75 23  L 19.25 23  C 20.492640687119284 23  21.5 21.992640687119284  21.5 20.75  L 21.5 20  Z " stroke-width="0" stroke-dasharray="0" stroke="rgba(255, 255, 255, 0)" fill="none" class="stroke" mask="url(#Clip4831)" />
    <path d="M 18.5 2.75  L 18.5 3.5  L 12.500000000000002 3.5  L 12.500000000000002 2.75  C 12.500000000000002 1.5073593128807137  13.507359312880716 0.5  14.75 0.5  L 16.25 0.5  C 17.492640687119284 0.5  18.5 1.5073593128807148  18.5 2.75  Z " stroke-width="0" stroke-dasharray="0" stroke="rgba(255, 255, 255, 0)" fill="none" class="stroke" mask="url(#Clip4831)" />
  </g>
</svg>