<?xml version="1.0" encoding="utf-8"?>
<svg version="1.1" xmlns:xlink="http://www.w3.org/1999/xlink" width="24px" height="24px" xmlns="http://www.w3.org/2000/svg">
  <defs>
    <pattern id="BGPattern" patternUnits="userSpaceOnUse" alignment="0 0" imageRepeat="None" />
    <mask fill="white" id="Clip6655">
      <path d="M 23.99570827340792 11.998998433866898  C 23.99570827340792 5.374590548341857  18.62740672491229 0.003473444369095099  12.002999750020834 0  C 5.376134990781247 0  0.003999666694442564 5.372135324086805  0.003999666694442564 11.99900008332639  C 0.005429078997251383 12.825198896361925  0.08916902714317293 13.649199986117795  0.2539788350970757 14.4587951004083  C 1.3328371994801318 14.163721590441686  2.445267577103026 14.009124015303762  3.563703024747938 13.998833430547453  C 5.339018189180703 13.994090410683302  7.094814444292245 14.36911485352266  8.713273893842182 15.098741771519041  L 9.473210565786186 14.598783434713773  C 12.905146637621453 12.518771597899448  17.120937792840273 12.192196226720522  20.832263978001833 13.718856761936504  C 20.898581087618098 13.749634873577168  20.94135300883539 13.81573693364026  20.942254812098994 13.888842596450296  C 20.943840850778525 13.939202085531203  20.921611145540897 13.987366446879403  20.882259811682356 14.018831764019666  C 20.84027797610551 14.03411620936446  20.794252479689842 14.03411620936446  20.752270644112993 14.018831764019666  L 20.50229147571036 14.018831764019666  C 20.20584380681952 14.003648761751556  19.908813305087826 14.003648761751556  19.612365636196987 14.018831764019666  C 16.25703149661787 13.904188703689835  12.989206506978164 15.102271630736666  10.503124739605031 17.35855345387884  C 10.076642202440988 17.77193589877464  9.685322688300861 18.220113803858204  9.333222231480711 18.698441796516956  L 9.223231397383552 18.848429297558535  C 9.184749378469437 18.863996040674056  9.141723415464405 18.863996040674056  9.10324139655029 18.848429297558535  C 9.064574500458349 18.863015099133914  9.021918291808966 18.863015099133914  8.983251395717026 18.848429297558535  C 6.675836422248338 16.88474162555701  3.7109568422779375 15.866680564964767  0.6839430047496047 15.99866677776852  C 2.3789342148846933 20.79282366847583  6.9117366567146385 23.997998517193288  11.996708190081524 23.997998517193288  C 18.62357294932111 23.997998517193288  23.99570827340792 18.625863193106483  23.99570827340792 11.998998433866898  Z M 21.47221064911258 7.159403383051414  C 21.44914814165673 7.176189990828753  21.420466166638825 7.183360484583233  21.392217315223736 7.179401716523623  L 20.832263978001837 7.179401716523624  C 18.531680390512367 6.838831159691219  16.21055820482383 7.6499157237724  14.62278143488043 9.349220898258478  C 14.562786434463796 9.40921589867511  14.502791434047165 9.419215065411215  14.44279643363053 9.349220898258478  C 13.192222956759721 8.023585804023968  11.473928541647306 7.237977292730401  9.65319556703608 7.159403383051412  C 8.985574425981705 7.099165335310461  8.312874491412092 7.129436832366094  7.653362219815019 7.249395883676362  C 7.581571184923254 7.249395883676362  7.523373052245649 7.1911977509987555  7.523373052245647 7.119406716106991  C 7.511063369127534 7.087212717263673  7.511063369127534 7.051609047589258  7.523373052245649 7.019415048745939  C 9.70748910721078 5.881296670151596  12.319331136766483 5.926458203803857  14.462794767102743 7.139405049579203  C 16.549276556162933 5.942181149030664  19.0904192983609 5.845019808887801  21.262228147654366 6.879426714440465  L 21.40221648195984 6.9594200483293065  C 21.44710405803497 6.976815635475795  21.47546350238817 7.02138047660225  21.472210649112583 7.069410882426466  C 21.48082123112696 7.098790480125311  21.48082123112696 7.13002378535257  21.47221064911258 7.159403383051414  Z " fill-rule="evenodd" />
    </mask>
  </defs>
  <g>
    <path d="M 23.99570827340792 11.998998433866898  C 23.99570827340792 5.374590548341857  18.62740672491229 0.003473444369095099  12.002999750020834 0  C 5.376134990781247 0  0.003999666694442564 5.372135324086805  0.003999666694442564 11.99900008332639  C 0.005429078997251383 12.825198896361925  0.08916902714317293 13.649199986117795  0.2539788350970757 14.4587951004083  C 1.3328371994801318 14.163721590441686  2.445267577103026 14.009124015303762  3.563703024747938 13.998833430547453  C 5.339018189180703 13.994090410683302  7.094814444292245 14.36911485352266  8.713273893842182 15.098741771519041  L 9.473210565786186 14.598783434713773  C 12.905146637621453 12.518771597899448  17.120937792840273 12.192196226720522  20.832263978001833 13.718856761936504  C 20.898581087618098 13.749634873577168  20.94135300883539 13.81573693364026  20.942254812098994 13.888842596450296  C 20.943840850778525 13.939202085531203  20.921611145540897 13.987366446879403  20.882259811682356 14.018831764019666  C 20.84027797610551 14.03411620936446  20.794252479689842 14.03411620936446  20.752270644112993 14.018831764019666  L 20.50229147571036 14.018831764019666  C 20.20584380681952 14.003648761751556  19.908813305087826 14.003648761751556  19.612365636196987 14.018831764019666  C 16.25703149661787 13.904188703689835  12.989206506978164 15.102271630736666  10.503124739605031 17.35855345387884  C 10.076642202440988 17.77193589877464  9.685322688300861 18.220113803858204  9.333222231480711 18.698441796516956  L 9.223231397383552 18.848429297558535  C 9.184749378469437 18.863996040674056  9.141723415464405 18.863996040674056  9.10324139655029 18.848429297558535  C 9.064574500458349 18.863015099133914  9.021918291808966 18.863015099133914  8.983251395717026 18.848429297558535  C 6.675836422248338 16.88474162555701  3.7109568422779375 15.866680564964767  0.6839430047496047 15.99866677776852  C 2.3789342148846933 20.79282366847583  6.9117366567146385 23.997998517193288  11.996708190081524 23.997998517193288  C 18.62357294932111 23.997998517193288  23.99570827340792 18.625863193106483  23.99570827340792 11.998998433866898  Z M 21.47221064911258 7.159403383051414  C 21.44914814165673 7.176189990828753  21.420466166638825 7.183360484583233  21.392217315223736 7.179401716523623  L 20.832263978001837 7.179401716523624  C 18.531680390512367 6.838831159691219  16.21055820482383 7.6499157237724  14.62278143488043 9.349220898258478  C 14.562786434463796 9.40921589867511  14.502791434047165 9.419215065411215  14.44279643363053 9.349220898258478  C 13.192222956759721 8.023585804023968  11.473928541647306 7.237977292730401  9.65319556703608 7.159403383051412  C 8.985574425981705 7.099165335310461  8.312874491412092 7.129436832366094  7.653362219815019 7.249395883676362  C 7.581571184923254 7.249395883676362  7.523373052245649 7.1911977509987555  7.523373052245647 7.119406716106991  C 7.511063369127534 7.087212717263673  7.511063369127534 7.051609047589258  7.523373052245649 7.019415048745939  C 9.70748910721078 5.881296670151596  12.319331136766483 5.926458203803857  14.462794767102743 7.139405049579203  C 16.549276556162933 5.942181149030664  19.0904192983609 5.845019808887801  21.262228147654366 6.879426714440465  L 21.40221648195984 6.9594200483293065  C 21.44710405803497 6.976815635475795  21.47546350238817 7.02138047660225  21.472210649112583 7.069410882426466  C 21.48082123112696 7.098790480125311  21.48082123112696 7.13002378535257  21.47221064911258 7.159403383051414  Z " fill-rule="nonzero" fill="rgba(14, 133, 205, 1)" stroke="none" class="fill" />
    <path d="M 23.99570827340792 11.998998433866898  C 23.99570827340792 5.374590548341857  18.62740672491229 0.003473444369095099  12.002999750020834 0  C 5.376134990781247 0  0.003999666694442564 5.372135324086805  0.003999666694442564 11.99900008332639  C 0.005429078997251383 12.825198896361925  0.08916902714317293 13.649199986117795  0.2539788350970757 14.4587951004083  C 1.3328371994801318 14.163721590441686  2.445267577103026 14.009124015303762  3.563703024747938 13.998833430547453  C 5.339018189180703 13.994090410683302  7.094814444292245 14.36911485352266  8.713273893842182 15.098741771519041  L 9.473210565786186 14.598783434713773  C 12.905146637621453 12.518771597899448  17.120937792840273 12.192196226720522  20.832263978001833 13.718856761936504  C 20.898581087618098 13.749634873577168  20.94135300883539 13.81573693364026  20.942254812098994 13.888842596450296  C 20.943840850778525 13.939202085531203  20.921611145540897 13.987366446879403  20.882259811682356 14.018831764019666  C 20.84027797610551 14.03411620936446  20.794252479689842 14.03411620936446  20.752270644112993 14.018831764019666  L 20.50229147571036 14.018831764019666  C 20.20584380681952 14.003648761751556  19.908813305087826 14.003648761751556  19.612365636196987 14.018831764019666  C 16.25703149661787 13.904188703689835  12.989206506978164 15.102271630736666  10.503124739605031 17.35855345387884  C 10.076642202440988 17.77193589877464  9.685322688300861 18.220113803858204  9.333222231480711 18.698441796516956  L 9.223231397383552 18.848429297558535  C 9.184749378469437 18.863996040674056  9.141723415464405 18.863996040674056  9.10324139655029 18.848429297558535  C 9.064574500458349 18.863015099133914  9.021918291808966 18.863015099133914  8.983251395717026 18.848429297558535  C 6.675836422248338 16.88474162555701  3.7109568422779375 15.866680564964767  0.6839430047496047 15.99866677776852  C 2.3789342148846933 20.79282366847583  6.9117366567146385 23.997998517193288  11.996708190081524 23.997998517193288  C 18.62357294932111 23.997998517193288  23.99570827340792 18.625863193106483  23.99570827340792 11.998998433866898  Z " stroke-width="0" stroke-dasharray="0" stroke="rgba(255, 255, 255, 0)" fill="none" class="stroke" mask="url(#Clip6655)" />
    <path d="M 21.47221064911258 7.159403383051414  C 21.44914814165673 7.176189990828753  21.420466166638825 7.183360484583233  21.392217315223736 7.179401716523623  L 20.832263978001837 7.179401716523624  C 18.531680390512367 6.838831159691219  16.21055820482383 7.6499157237724  14.62278143488043 9.349220898258478  C 14.562786434463796 9.40921589867511  14.502791434047165 9.419215065411215  14.44279643363053 9.349220898258478  C 13.192222956759721 8.023585804023968  11.473928541647306 7.237977292730401  9.65319556703608 7.159403383051412  C 8.985574425981705 7.099165335310461  8.312874491412092 7.129436832366094  7.653362219815019 7.249395883676362  C 7.581571184923254 7.249395883676362  7.523373052245649 7.1911977509987555  7.523373052245647 7.119406716106991  C 7.511063369127534 7.087212717263673  7.511063369127534 7.051609047589258  7.523373052245649 7.019415048745939  C 9.70748910721078 5.881296670151596  12.319331136766483 5.926458203803857  14.462794767102743 7.139405049579203  C 16.549276556162933 5.942181149030664  19.0904192983609 5.845019808887801  21.262228147654366 6.879426714440465  L 21.40221648195984 6.9594200483293065  C 21.44710405803497 6.976815635475795  21.47546350238817 7.02138047660225  21.472210649112583 7.069410882426466  C 21.48082123112696 7.098790480125311  21.48082123112696 7.13002378535257  21.47221064911258 7.159403383051414  Z " stroke-width="0" stroke-dasharray="0" stroke="rgba(255, 255, 255, 0)" fill="none" class="stroke" mask="url(#Clip6655)" />
  </g>
</svg>