<?xml version="1.0" encoding="utf-8"?>
<svg version="1.1" xmlns:xlink="http://www.w3.org/1999/xlink" width="43px" height="50px" xmlns="http://www.w3.org/2000/svg">
  <defs>
    <pattern id="BGPattern" patternUnits="userSpaceOnUse" alignment="0 0" imageRepeat="None" />
    <mask fill="white" id="Clip770">
      <path d="M 0.8886718749999999 22.3828125  L 0.869140625 22.3828125  C 0.8789062500000001 22.373046875  0.8886718749999999 22.353515625  0.8984375 22.34375  C 0.8984375 22.353515625  0.8984375 22.373046875  0.8886718749999999 22.3828125  Z M 23.603515625 9.599609375  C 22.91015625 9.482421875  22.20703125 9.43359375  21.484375 9.43359375  C 20.791015625 9.43359375  20.05859375 9.4921875  19.39453125 9.599609375  L 19.755859375 16.181640625  L 17.607421875 9.931640625  C 16.2109375 10.29296875  14.902343750000002 10.849609375  13.701171875 11.552734375  L 16.572265625 17.548828125  L 12.16796875 12.578125000000002  C 11.0546875 13.447265624999998  10.048828125 14.443359375  9.1796875 15.595703124999998  L 14.12109375 20.029296875  L 8.154296875 17.12890625  C 7.460937499999999 18.330078125  6.894531249999999 19.638671875  6.533203125 21.03515625  L 12.812499999999998 23.2421875  L 6.171875 22.8515625  C 6.083984375 23.544921875  6.03515625 24.27734375  6.03515625 25  C 6.03515625 25.722656249999996  6.09375 26.425781250000004  6.171875 27.119140625  L 12.783203125 26.728515625  L 6.533203125 28.935546875  C 6.894531249999999 30.332031250000004  7.451171875000001 31.640625  8.154296875 32.87109375  L 14.12109375 29.970703124999996  L 9.150390625 34.375  C 10.01953125 35.517578125  11.015625 36.552734375  12.16796875 37.392578125  L 16.552734375 32.421875  L 13.671875 38.41796875  C 14.873046875 39.140625  16.181640625 39.697265625  17.578125 40.068359375  L 19.755859375 33.759765625  L 19.365234375 40.400390625  C 20.05859375 40.5078125  20.791015625 40.56640625  21.484375 40.56640625  C 22.20703125 40.56640625  22.91015625 40.5078125  23.603515625 40.400390625  L 23.212890625000004 33.701171875  L 25.419921875 40.05859375  C 26.81640625 39.66796875  28.125000000000004 39.140625  29.326171875 38.408203125  L 26.455078125 32.421875  L 30.83984375 37.392578125  C 31.982421875 36.5234375  32.98828125 35.52734375  33.828125 34.375  L 28.88671875 29.970703124999996  L 34.853515625 32.841796875  C 35.546875 31.640625  36.11328125 30.332031250000004  36.474609375 28.90625  L 30.224609375000004 26.728515625  L 36.806640625 27.119140625  C 36.9140625 26.425781250000004  36.943359375 25.722656249999996  36.943359375 25  C 36.943359375 24.27734375  36.9140625 23.544921875  36.806640625 22.8515625  L 30.1953125 23.2421875  L 36.4453125 21.064453125  C 36.083984375 19.66796875  35.556640625 18.330078125  34.82421875 17.12890625  L 28.876953125 20.029296875  L 33.818359375 15.595703124999998  C 32.94921875 14.453125  31.953125 13.447265624999998  30.830078125 12.578125000000002  L 26.425781250000004 17.548828125  L 29.296875 11.58203125  C 28.095703125 10.859375  26.787109375 10.302734375  25.390625 9.931640625  L 23.212890625000004 16.2109375  L 23.603515625 9.599609375  Z M 21.484375 0  L 43 12.5  L 43 37.5  L 21.484375 50  L 0 37.5  L 0 12.5  L 21.484375 0  Z M 41 36.46484375  L 41 13.505859375000002  L 21.484375 2.041015625  L 2 13.505859375000002  L 2 36.46484375  L 21.484375 47.958984375  L 41 36.46484375  Z M 4 14.31640625  L 21.484375 3.623046875  L 39 14.306640625  L 39 35.68359375  L 21.484375 46.376953125  L 4 35.68359375  L 4 14.31640625  Z M 37.783203125 25  C 37.783203125 15.927734375  30.46875 8.59375  21.484375 8.59375  C 12.470703125 8.59375  5.185546875 15.927734375  5.185546875 25  C 5.185546875 34.04296875  12.470703125 41.376953125  21.484375 41.376953125  C 30.46875 41.376953125  37.783203125 34.04296875  37.783203125 25  Z " fill-rule="evenodd" />
    </mask>
  </defs>
  <g>
    <path d="M 0.8886718749999999 22.3828125  L 0.869140625 22.3828125  C 0.8789062500000001 22.373046875  0.8886718749999999 22.353515625  0.8984375 22.34375  C 0.8984375 22.353515625  0.8984375 22.373046875  0.8886718749999999 22.3828125  Z M 23.603515625 9.599609375  C 22.91015625 9.482421875  22.20703125 9.43359375  21.484375 9.43359375  C 20.791015625 9.43359375  20.05859375 9.4921875  19.39453125 9.599609375  L 19.755859375 16.181640625  L 17.607421875 9.931640625  C 16.2109375 10.29296875  14.902343750000002 10.849609375  13.701171875 11.552734375  L 16.572265625 17.548828125  L 12.16796875 12.578125000000002  C 11.0546875 13.447265624999998  10.048828125 14.443359375  9.1796875 15.595703124999998  L 14.12109375 20.029296875  L 8.154296875 17.12890625  C 7.460937499999999 18.330078125  6.894531249999999 19.638671875  6.533203125 21.03515625  L 12.812499999999998 23.2421875  L 6.171875 22.8515625  C 6.083984375 23.544921875  6.03515625 24.27734375  6.03515625 25  C 6.03515625 25.722656249999996  6.09375 26.425781250000004  6.171875 27.119140625  L 12.783203125 26.728515625  L 6.533203125 28.935546875  C 6.894531249999999 30.332031250000004  7.451171875000001 31.640625  8.154296875 32.87109375  L 14.12109375 29.970703124999996  L 9.150390625 34.375  C 10.01953125 35.517578125  11.015625 36.552734375  12.16796875 37.392578125  L 16.552734375 32.421875  L 13.671875 38.41796875  C 14.873046875 39.140625  16.181640625 39.697265625  17.578125 40.068359375  L 19.755859375 33.759765625  L 19.365234375 40.400390625  C 20.05859375 40.5078125  20.791015625 40.56640625  21.484375 40.56640625  C 22.20703125 40.56640625  22.91015625 40.5078125  23.603515625 40.400390625  L 23.212890625000004 33.701171875  L 25.419921875 40.05859375  C 26.81640625 39.66796875  28.125000000000004 39.140625  29.326171875 38.408203125  L 26.455078125 32.421875  L 30.83984375 37.392578125  C 31.982421875 36.5234375  32.98828125 35.52734375  33.828125 34.375  L 28.88671875 29.970703124999996  L 34.853515625 32.841796875  C 35.546875 31.640625  36.11328125 30.332031250000004  36.474609375 28.90625  L 30.224609375000004 26.728515625  L 36.806640625 27.119140625  C 36.9140625 26.425781250000004  36.943359375 25.722656249999996  36.943359375 25  C 36.943359375 24.27734375  36.9140625 23.544921875  36.806640625 22.8515625  L 30.1953125 23.2421875  L 36.4453125 21.064453125  C 36.083984375 19.66796875  35.556640625 18.330078125  34.82421875 17.12890625  L 28.876953125 20.029296875  L 33.818359375 15.595703124999998  C 32.94921875 14.453125  31.953125 13.447265624999998  30.830078125 12.578125000000002  L 26.425781250000004 17.548828125  L 29.296875 11.58203125  C 28.095703125 10.859375  26.787109375 10.302734375  25.390625 9.931640625  L 23.212890625000004 16.2109375  L 23.603515625 9.599609375  Z M 21.484375 0  L 43 12.5  L 43 37.5  L 21.484375 50  L 0 37.5  L 0 12.5  L 21.484375 0  Z M 41 36.46484375  L 41 13.505859375000002  L 21.484375 2.041015625  L 2 13.505859375000002  L 2 36.46484375  L 21.484375 47.958984375  L 41 36.46484375  Z M 4 14.31640625  L 21.484375 3.623046875  L 39 14.306640625  L 39 35.68359375  L 21.484375 46.376953125  L 4 35.68359375  L 4 14.31640625  Z M 37.783203125 25  C 37.783203125 15.927734375  30.46875 8.59375  21.484375 8.59375  C 12.470703125 8.59375  5.185546875 15.927734375  5.185546875 25  C 5.185546875 34.04296875  12.470703125 41.376953125  21.484375 41.376953125  C 30.46875 41.376953125  37.783203125 34.04296875  37.783203125 25  Z " fill-rule="nonzero" fill="rgba(0, 0, 0, 1)" stroke="none" class="fill" />
    <path d="M 0.8886718749999999 22.3828125  L 0.869140625 22.3828125  C 0.8789062500000001 22.373046875  0.8886718749999999 22.353515625  0.8984375 22.34375  C 0.8984375 22.353515625  0.8984375 22.373046875  0.8886718749999999 22.3828125  Z " stroke-width="0" stroke-dasharray="0" stroke="rgba(255, 255, 255, 0)" fill="none" class="stroke" mask="url(#Clip770)" />
    <path d="M 23.603515625 9.599609375  C 22.91015625 9.482421875  22.20703125 9.43359375  21.484375 9.43359375  C 20.791015625 9.43359375  20.05859375 9.4921875  19.39453125 9.599609375  L 19.755859375 16.181640625  L 17.607421875 9.931640625  C 16.2109375 10.29296875  14.902343750000002 10.849609375  13.701171875 11.552734375  L 16.572265625 17.548828125  L 12.16796875 12.578125000000002  C 11.0546875 13.447265624999998  10.048828125 14.443359375  9.1796875 15.595703124999998  L 14.12109375 20.029296875  L 8.154296875 17.12890625  C 7.460937499999999 18.330078125  6.894531249999999 19.638671875  6.533203125 21.03515625  L 12.812499999999998 23.2421875  L 6.171875 22.8515625  C 6.083984375 23.544921875  6.03515625 24.27734375  6.03515625 25  C 6.03515625 25.722656249999996  6.09375 26.425781250000004  6.171875 27.119140625  L 12.783203125 26.728515625  L 6.533203125 28.935546875  C 6.894531249999999 30.332031250000004  7.451171875000001 31.640625  8.154296875 32.87109375  L 14.12109375 29.970703124999996  L 9.150390625 34.375  C 10.01953125 35.517578125  11.015625 36.552734375  12.16796875 37.392578125  L 16.552734375 32.421875  L 13.671875 38.41796875  C 14.873046875 39.140625  16.181640625 39.697265625  17.578125 40.068359375  L 19.755859375 33.759765625  L 19.365234375 40.400390625  C 20.05859375 40.5078125  20.791015625 40.56640625  21.484375 40.56640625  C 22.20703125 40.56640625  22.91015625 40.5078125  23.603515625 40.400390625  L 23.212890625000004 33.701171875  L 25.419921875 40.05859375  C 26.81640625 39.66796875  28.125000000000004 39.140625  29.326171875 38.408203125  L 26.455078125 32.421875  L 30.83984375 37.392578125  C 31.982421875 36.5234375  32.98828125 35.52734375  33.828125 34.375  L 28.88671875 29.970703124999996  L 34.853515625 32.841796875  C 35.546875 31.640625  36.11328125 30.332031250000004  36.474609375 28.90625  L 30.224609375000004 26.728515625  L 36.806640625 27.119140625  C 36.9140625 26.425781250000004  36.943359375 25.722656249999996  36.943359375 25  C 36.943359375 24.27734375  36.9140625 23.544921875  36.806640625 22.8515625  L 30.1953125 23.2421875  L 36.4453125 21.064453125  C 36.083984375 19.66796875  35.556640625 18.330078125  34.82421875 17.12890625  L 28.876953125 20.029296875  L 33.818359375 15.595703124999998  C 32.94921875 14.453125  31.953125 13.447265624999998  30.830078125 12.578125000000002  L 26.425781250000004 17.548828125  L 29.296875 11.58203125  C 28.095703125 10.859375  26.787109375 10.302734375  25.390625 9.931640625  L 23.212890625000004 16.2109375  L 23.603515625 9.599609375  Z " stroke-width="0" stroke-dasharray="0" stroke="rgba(255, 255, 255, 0)" fill="none" class="stroke" mask="url(#Clip770)" />
    <path d="M 21.484375 0  L 43 12.5  L 43 37.5  L 21.484375 50  L 0 37.5  L 0 12.5  L 21.484375 0  Z " stroke-width="0" stroke-dasharray="0" stroke="rgba(255, 255, 255, 0)" fill="none" class="stroke" mask="url(#Clip770)" />
    <path d="M 41 36.46484375  L 41 13.505859375000002  L 21.484375 2.041015625  L 2 13.505859375000002  L 2 36.46484375  L 21.484375 47.958984375  L 41 36.46484375  Z " stroke-width="0" stroke-dasharray="0" stroke="rgba(255, 255, 255, 0)" fill="none" class="stroke" mask="url(#Clip770)" />
    <path d="M 4 14.31640625  L 21.484375 3.623046875  L 39 14.306640625  L 39 35.68359375  L 21.484375 46.376953125  L 4 35.68359375  L 4 14.31640625  Z " stroke-width="0" stroke-dasharray="0" stroke="rgba(255, 255, 255, 0)" fill="none" class="stroke" mask="url(#Clip770)" />
    <path d="M 37.783203125 25  C 37.783203125 15.927734375  30.46875 8.59375  21.484375 8.59375  C 12.470703125 8.59375  5.185546875 15.927734375  5.185546875 25  C 5.185546875 34.04296875  12.470703125 41.376953125  21.484375 41.376953125  C 30.46875 41.376953125  37.783203125 34.04296875  37.783203125 25  Z " stroke-width="0" stroke-dasharray="0" stroke="rgba(255, 255, 255, 0)" fill="none" class="stroke" mask="url(#Clip770)" />
  </g>
</svg>