<?xml version="1.0" encoding="utf-8"?>
<svg version="1.1" xmlns:xlink="http://www.w3.org/1999/xlink" width="50px" height="35px" xmlns="http://www.w3.org/2000/svg">
  <defs>
    <pattern id="BGPattern" patternUnits="userSpaceOnUse" alignment="0 0" imageRepeat="None" />
    <mask fill="white" id="Clip854">
      <path d="M 49.43837753510141 16.786271450858038  C 50.05460218408735 16.630265210608428  50.14040561622466 16.333853354134163  49.804992199688 15.959438377535093  C 49.4773790951638 15.585023400936024  44.90639625585024 9.867394695787823  44.10296411856473 8.900156006240252  C 43.299531981279245 7.932917316692651  42.90171606864274 8.104524180967246  42.41029641185648 8.174726989079545  C 41.91107644305771 8.244929797191872  36.13104524180966 9.21996879875195  35.46021840873635 9.329173166926665  C 34.78939157566302 9.446177847113887  34.36817472698908 9.711388455538215  34.78159126365054 10.288611544461787  C 35.14820592823713 10.803432137285483  38.94695787831512 16.19344773790951  39.78939157566302 17.37909516380654  L 24.680187207488302 20.99843993759751  L 12.652106084243373 0.9126365054602275  C 12.176287051482063 0.20280811232450446  12.074882995319811 -0.04680187207489439  10.98283931357254 0.0078003120124776615  C 9.89079563182527 0.05460218408737205  1.552262090483623 0.7488299531981397  0.9594383775350934 0.8034321372854833  C 0.366614664586578 0.8502340093603777  -0.28861154446177295 1.1154446177847033  0.3042121684867425 2.519500780031194  C 0.8970358814352579 3.923556942277685  10.366614664586578 24.329173166926665  10.631825273010918 24.921996879875195  C 10.897035881435258 25.514820592823693  11.583463338533534 26.482059282371296  13.19032761310453 26.09204368174727  C 14.83619344773791 25.694227769110768  20.546021840873635 24.204368174726994  23.666146645865837 23.385335413416527  C 25.31201248049922 26.372854914196555  28.673946957878314 32.425897035881434  29.297971918876755 33.29173166926677  C 30.1248049921997 34.453978159126365  30.702028081123245 34.25897035881434  31.973478939157555 33.86895475819031  C 32.97191887675507 33.56474258970357  47.54290171606863 28.322932917316678  48.19812792511701 28.05772230889235  C 48.85335413416536 27.78471138845552  49.25897035881434 27.597503900156  48.81435257410297 26.934477379095142  C 48.486739469578765 26.450858034321357  44.641185647425914 21.302652106084253  42.62870514820594 18.603744149765987  C 44.009360374414996 18.237129485179395  48.91575663026521 16.93447737909517  49.43837753510141 16.786271450858038  Z M 22.425897035881434 21.099843993759748  C 22.62870514820594 21.4352574102964  22.511700468018716 21.536661466458664  22.332293291731673 21.575663026521056  C 22.15288611544463 21.614664586583444  13.68954758190327 23.64274570982838  13.237129485179395 23.74414976599064  C 12.784711388455532 23.84555382215288  12.784711388455532 23.798751950077985  12.730109204368176 23.64274570982838  C 12.675507020280818 23.486739469578765  2.6677067082683266 2.839313572542892  2.527301092043686 2.581903276131044  C 2.3868954758190313 2.3244929797191958  2.394695787831509 2.1216848673946913  2.527301092043686 2.1216848673946913  C 2.659906396255849 2.1216848673946913  10.522620904836188 1.419656786271446  10.795631825273006 1.4040561622464907  C 11.076443057722315 1.3884555382215353  11.04524180967239 1.450858034321385  11.146645865834628 1.6224648985959504  C 11.146645865834628 1.6224648985959504  22.238689547581913 20.764430577223095  22.425897035881434 21.099843993759748  Z M 41.201248049922015 19.17316692667706  C 41.427457098283924 19.547581903276125  46.06864274570984 25.84243369734787  46.201248049921986 26.053042121684854  C 46.33385335413416 26.263650546021836  46.47425897035882 26.40405616224649  46.045241809672376 26.552262090483623  C 45.62402496099844 26.708268330733233  31.71606864274571 31.396255850234013  31.450858034321357 31.513260530421206  C 31.177847113884553 31.630265210608428  30.96723868954757 31.669266770670816  30.62402496099844 31.162246489859598  C 30.280811232449278 30.65522620904835  25.75663026521059 22.831513260530414  25.75663026521059 22.831513260530414  L 40.483619344773786 19.00156006240249  C 40.85023400936038 18.884555382215297  40.96723868954757 18.806552262090488  41.201248049922015 19.17316692667706  Z M 47.581903276131044 15.226209048361937  C 47.7223088923557 15.40561622464898  47.47269890795633 15.514820592823696  47.14508580343215 15.592823712948501  C 46.81747269890795 15.663026521060829  41.40405616224649 17.004680187207498  41.40405616224649 17.004680187207498  L 36.98127925117004 10.93603744149766  C 36.856474258970366 10.756630265210617  36.7550702028081 10.585023400936024  37.06708268330732 10.546021840873635  C 37.37909516380654 10.507020280811219  42.402496099844 9.59438377535102  42.62870514820594 9.547581903276125  C 42.85491419656785 9.492979719188753  43.049921996879874 9.430577223088932  43.330733229329155 9.81279251170048  C 43.611544461778465 10.195007800311998  47.43369734789391 15.039001560062388  47.581903276131044 15.226209048361937  Z " fill-rule="evenodd" />
    </mask>
  </defs>
  <g>
    <path d="M 49.43837753510141 16.786271450858038  C 50.05460218408735 16.630265210608428  50.14040561622466 16.333853354134163  49.804992199688 15.959438377535093  C 49.4773790951638 15.585023400936024  44.90639625585024 9.867394695787823  44.10296411856473 8.900156006240252  C 43.299531981279245 7.932917316692651  42.90171606864274 8.104524180967246  42.41029641185648 8.174726989079545  C 41.91107644305771 8.244929797191872  36.13104524180966 9.21996879875195  35.46021840873635 9.329173166926665  C 34.78939157566302 9.446177847113887  34.36817472698908 9.711388455538215  34.78159126365054 10.288611544461787  C 35.14820592823713 10.803432137285483  38.94695787831512 16.19344773790951  39.78939157566302 17.37909516380654  L 24.680187207488302 20.99843993759751  L 12.652106084243373 0.9126365054602275  C 12.176287051482063 0.20280811232450446  12.074882995319811 -0.04680187207489439  10.98283931357254 0.0078003120124776615  C 9.89079563182527 0.05460218408737205  1.552262090483623 0.7488299531981397  0.9594383775350934 0.8034321372854833  C 0.366614664586578 0.8502340093603777  -0.28861154446177295 1.1154446177847033  0.3042121684867425 2.519500780031194  C 0.8970358814352579 3.923556942277685  10.366614664586578 24.329173166926665  10.631825273010918 24.921996879875195  C 10.897035881435258 25.514820592823693  11.583463338533534 26.482059282371296  13.19032761310453 26.09204368174727  C 14.83619344773791 25.694227769110768  20.546021840873635 24.204368174726994  23.666146645865837 23.385335413416527  C 25.31201248049922 26.372854914196555  28.673946957878314 32.425897035881434  29.297971918876755 33.29173166926677  C 30.1248049921997 34.453978159126365  30.702028081123245 34.25897035881434  31.973478939157555 33.86895475819031  C 32.97191887675507 33.56474258970357  47.54290171606863 28.322932917316678  48.19812792511701 28.05772230889235  C 48.85335413416536 27.78471138845552  49.25897035881434 27.597503900156  48.81435257410297 26.934477379095142  C 48.486739469578765 26.450858034321357  44.641185647425914 21.302652106084253  42.62870514820594 18.603744149765987  C 44.009360374414996 18.237129485179395  48.91575663026521 16.93447737909517  49.43837753510141 16.786271450858038  Z M 22.425897035881434 21.099843993759748  C 22.62870514820594 21.4352574102964  22.511700468018716 21.536661466458664  22.332293291731673 21.575663026521056  C 22.15288611544463 21.614664586583444  13.68954758190327 23.64274570982838  13.237129485179395 23.74414976599064  C 12.784711388455532 23.84555382215288  12.784711388455532 23.798751950077985  12.730109204368176 23.64274570982838  C 12.675507020280818 23.486739469578765  2.6677067082683266 2.839313572542892  2.527301092043686 2.581903276131044  C 2.3868954758190313 2.3244929797191958  2.394695787831509 2.1216848673946913  2.527301092043686 2.1216848673946913  C 2.659906396255849 2.1216848673946913  10.522620904836188 1.419656786271446  10.795631825273006 1.4040561622464907  C 11.076443057722315 1.3884555382215353  11.04524180967239 1.450858034321385  11.146645865834628 1.6224648985959504  C 11.146645865834628 1.6224648985959504  22.238689547581913 20.764430577223095  22.425897035881434 21.099843993759748  Z M 41.201248049922015 19.17316692667706  C 41.427457098283924 19.547581903276125  46.06864274570984 25.84243369734787  46.201248049921986 26.053042121684854  C 46.33385335413416 26.263650546021836  46.47425897035882 26.40405616224649  46.045241809672376 26.552262090483623  C 45.62402496099844 26.708268330733233  31.71606864274571 31.396255850234013  31.450858034321357 31.513260530421206  C 31.177847113884553 31.630265210608428  30.96723868954757 31.669266770670816  30.62402496099844 31.162246489859598  C 30.280811232449278 30.65522620904835  25.75663026521059 22.831513260530414  25.75663026521059 22.831513260530414  L 40.483619344773786 19.00156006240249  C 40.85023400936038 18.884555382215297  40.96723868954757 18.806552262090488  41.201248049922015 19.17316692667706  Z M 47.581903276131044 15.226209048361937  C 47.7223088923557 15.40561622464898  47.47269890795633 15.514820592823696  47.14508580343215 15.592823712948501  C 46.81747269890795 15.663026521060829  41.40405616224649 17.004680187207498  41.40405616224649 17.004680187207498  L 36.98127925117004 10.93603744149766  C 36.856474258970366 10.756630265210617  36.7550702028081 10.585023400936024  37.06708268330732 10.546021840873635  C 37.37909516380654 10.507020280811219  42.402496099844 9.59438377535102  42.62870514820594 9.547581903276125  C 42.85491419656785 9.492979719188753  43.049921996879874 9.430577223088932  43.330733229329155 9.81279251170048  C 43.611544461778465 10.195007800311998  47.43369734789391 15.039001560062388  47.581903276131044 15.226209048361937  Z " fill-rule="nonzero" fill="rgba(0, 0, 0, 1)" stroke="none" class="fill" />
    <path d="M 49.43837753510141 16.786271450858038  C 50.05460218408735 16.630265210608428  50.14040561622466 16.333853354134163  49.804992199688 15.959438377535093  C 49.4773790951638 15.585023400936024  44.90639625585024 9.867394695787823  44.10296411856473 8.900156006240252  C 43.299531981279245 7.932917316692651  42.90171606864274 8.104524180967246  42.41029641185648 8.174726989079545  C 41.91107644305771 8.244929797191872  36.13104524180966 9.21996879875195  35.46021840873635 9.329173166926665  C 34.78939157566302 9.446177847113887  34.36817472698908 9.711388455538215  34.78159126365054 10.288611544461787  C 35.14820592823713 10.803432137285483  38.94695787831512 16.19344773790951  39.78939157566302 17.37909516380654  L 24.680187207488302 20.99843993759751  L 12.652106084243373 0.9126365054602275  C 12.176287051482063 0.20280811232450446  12.074882995319811 -0.04680187207489439  10.98283931357254 0.0078003120124776615  C 9.89079563182527 0.05460218408737205  1.552262090483623 0.7488299531981397  0.9594383775350934 0.8034321372854833  C 0.366614664586578 0.8502340093603777  -0.28861154446177295 1.1154446177847033  0.3042121684867425 2.519500780031194  C 0.8970358814352579 3.923556942277685  10.366614664586578 24.329173166926665  10.631825273010918 24.921996879875195  C 10.897035881435258 25.514820592823693  11.583463338533534 26.482059282371296  13.19032761310453 26.09204368174727  C 14.83619344773791 25.694227769110768  20.546021840873635 24.204368174726994  23.666146645865837 23.385335413416527  C 25.31201248049922 26.372854914196555  28.673946957878314 32.425897035881434  29.297971918876755 33.29173166926677  C 30.1248049921997 34.453978159126365  30.702028081123245 34.25897035881434  31.973478939157555 33.86895475819031  C 32.97191887675507 33.56474258970357  47.54290171606863 28.322932917316678  48.19812792511701 28.05772230889235  C 48.85335413416536 27.78471138845552  49.25897035881434 27.597503900156  48.81435257410297 26.934477379095142  C 48.486739469578765 26.450858034321357  44.641185647425914 21.302652106084253  42.62870514820594 18.603744149765987  C 44.009360374414996 18.237129485179395  48.91575663026521 16.93447737909517  49.43837753510141 16.786271450858038  Z " stroke-width="0" stroke-dasharray="0" stroke="rgba(255, 255, 255, 0)" fill="none" class="stroke" mask="url(#Clip854)" />
    <path d="M 22.425897035881434 21.099843993759748  C 22.62870514820594 21.4352574102964  22.511700468018716 21.536661466458664  22.332293291731673 21.575663026521056  C 22.15288611544463 21.614664586583444  13.68954758190327 23.64274570982838  13.237129485179395 23.74414976599064  C 12.784711388455532 23.84555382215288  12.784711388455532 23.798751950077985  12.730109204368176 23.64274570982838  C 12.675507020280818 23.486739469578765  2.6677067082683266 2.839313572542892  2.527301092043686 2.581903276131044  C 2.3868954758190313 2.3244929797191958  2.394695787831509 2.1216848673946913  2.527301092043686 2.1216848673946913  C 2.659906396255849 2.1216848673946913  10.522620904836188 1.419656786271446  10.795631825273006 1.4040561622464907  C 11.076443057722315 1.3884555382215353  11.04524180967239 1.450858034321385  11.146645865834628 1.6224648985959504  C 11.146645865834628 1.6224648985959504  22.238689547581913 20.764430577223095  22.425897035881434 21.099843993759748  Z " stroke-width="0" stroke-dasharray="0" stroke="rgba(255, 255, 255, 0)" fill="none" class="stroke" mask="url(#Clip854)" />
    <path d="M 41.201248049922015 19.17316692667706  C 41.427457098283924 19.547581903276125  46.06864274570984 25.84243369734787  46.201248049921986 26.053042121684854  C 46.33385335413416 26.263650546021836  46.47425897035882 26.40405616224649  46.045241809672376 26.552262090483623  C 45.62402496099844 26.708268330733233  31.71606864274571 31.396255850234013  31.450858034321357 31.513260530421206  C 31.177847113884553 31.630265210608428  30.96723868954757 31.669266770670816  30.62402496099844 31.162246489859598  C 30.280811232449278 30.65522620904835  25.75663026521059 22.831513260530414  25.75663026521059 22.831513260530414  L 40.483619344773786 19.00156006240249  C 40.85023400936038 18.884555382215297  40.96723868954757 18.806552262090488  41.201248049922015 19.17316692667706  Z " stroke-width="0" stroke-dasharray="0" stroke="rgba(255, 255, 255, 0)" fill="none" class="stroke" mask="url(#Clip854)" />
    <path d="M 47.581903276131044 15.226209048361937  C 47.7223088923557 15.40561622464898  47.47269890795633 15.514820592823696  47.14508580343215 15.592823712948501  C 46.81747269890795 15.663026521060829  41.40405616224649 17.004680187207498  41.40405616224649 17.004680187207498  L 36.98127925117004 10.93603744149766  C 36.856474258970366 10.756630265210617  36.7550702028081 10.585023400936024  37.06708268330732 10.546021840873635  C 37.37909516380654 10.507020280811219  42.402496099844 9.59438377535102  42.62870514820594 9.547581903276125  C 42.85491419656785 9.492979719188753  43.049921996879874 9.430577223088932  43.330733229329155 9.81279251170048  C 43.611544461778465 10.195007800311998  47.43369734789391 15.039001560062388  47.581903276131044 15.226209048361937  Z " stroke-width="0" stroke-dasharray="0" stroke="rgba(255, 255, 255, 0)" fill="none" class="stroke" mask="url(#Clip854)" />
  </g>
</svg>