<?xml version="1.0" encoding="utf-8"?>
<svg version="1.1" xmlns:xlink="http://www.w3.org/1999/xlink" width="47px" height="50px" xmlns="http://www.w3.org/2000/svg">
  <defs>
    <pattern id="BGPattern" patternUnits="userSpaceOnUse" alignment="0 0" imageRepeat="None" />
    <mask fill="white" id="Clip989">
      <path d="M 44.12109375 15.996093750000002  L 45.146484375 18.330078125  L 45.556640625 21.064453125  L 45.556640625 23.798828125  L 43.10546875 28.10546875  L 39.21875 35.76171875  L 33.740234375 42.353515625  L 26.015625 46.044921875  L 24.287109375 48.4375  L 23.535156250000004 49.609375  L 22.59765625 50  C 22.59765625 50  24.287109375 43.7890625  24.4921875 43.7890625  C 24.697265625000004 43.7890625  26.474609375 43.857421875  26.474609375 43.857421875  L 32.98828125 40.087890625  L 23.955078124999996 42.63671875  L 18.49609375 46.23046875  L 16.26953125 48.96484375  L 15.625 49.1015625  L 17.65625 41.9140625  L 18.330078125 41.376953125  L 20.3515625 42.63671875  L 28.974609375 38.22265625  L 34.521484375 33.193359375  L 35.966796875 26.513671875  L 23.720703125 28.7890625  L 25.205078125 27.011718750000004  L 8.271484375 21.806640625  L 16.26953125 20.78125  L 0.05859375 8.779296875  L 11.279296875 10.546875  L 1.38671875 0  L 26.083984375 12.36328125  L 23.0078125 8.65234375  L 35.15625 15.91796875  L 21.162109375 6.25  L 22.98828125 10  L 18.14453125 8.232421875  L 13.701171875 0  L 32.705078125 11.9140625  L 28.515625 6.46484375  L 39.0625 15.87890625  L 40.234375 15.009765624999998  L 38.18359375 13.408203125000002  L 38.59375 9.716796875  L 42.28515625 8.701171875  L 45.13671875 11.11328125  L 46.259765625 11.5234375  L 45.576171875 12.12890625  L 46.40625 13.300781249999998  L 45.126953125 14.0234375  L 44.12109375 15.996093750000002  Z " fill-rule="evenodd" />
    </mask>
  </defs>
  <g>
    <path d="M 44.12109375 15.996093750000002  L 45.146484375 18.330078125  L 45.556640625 21.064453125  L 45.556640625 23.798828125  L 43.10546875 28.10546875  L 39.21875 35.76171875  L 33.740234375 42.353515625  L 26.015625 46.044921875  L 24.287109375 48.4375  L 23.535156250000004 49.609375  L 22.59765625 50  C 22.59765625 50  24.287109375 43.7890625  24.4921875 43.7890625  C 24.697265625000004 43.7890625  26.474609375 43.857421875  26.474609375 43.857421875  L 32.98828125 40.087890625  L 23.955078124999996 42.63671875  L 18.49609375 46.23046875  L 16.26953125 48.96484375  L 15.625 49.1015625  L 17.65625 41.9140625  L 18.330078125 41.376953125  L 20.3515625 42.63671875  L 28.974609375 38.22265625  L 34.521484375 33.193359375  L 35.966796875 26.513671875  L 23.720703125 28.7890625  L 25.205078125 27.011718750000004  L 8.271484375 21.806640625  L 16.26953125 20.78125  L 0.05859375 8.779296875  L 11.279296875 10.546875  L 1.38671875 0  L 26.083984375 12.36328125  L 23.0078125 8.65234375  L 35.15625 15.91796875  L 21.162109375 6.25  L 22.98828125 10  L 18.14453125 8.232421875  L 13.701171875 0  L 32.705078125 11.9140625  L 28.515625 6.46484375  L 39.0625 15.87890625  L 40.234375 15.009765624999998  L 38.18359375 13.408203125000002  L 38.59375 9.716796875  L 42.28515625 8.701171875  L 45.13671875 11.11328125  L 46.259765625 11.5234375  L 45.576171875 12.12890625  L 46.40625 13.300781249999998  L 45.126953125 14.0234375  L 44.12109375 15.996093750000002  Z " fill-rule="nonzero" fill="rgba(0, 0, 0, 1)" stroke="none" class="fill" />
    <path d="M 44.12109375 15.996093750000002  L 45.146484375 18.330078125  L 45.556640625 21.064453125  L 45.556640625 23.798828125  L 43.10546875 28.10546875  L 39.21875 35.76171875  L 33.740234375 42.353515625  L 26.015625 46.044921875  L 24.287109375 48.4375  L 23.535156250000004 49.609375  L 22.59765625 50  C 22.59765625 50  24.287109375 43.7890625  24.4921875 43.7890625  C 24.697265625000004 43.7890625  26.474609375 43.857421875  26.474609375 43.857421875  L 32.98828125 40.087890625  L 23.955078124999996 42.63671875  L 18.49609375 46.23046875  L 16.26953125 48.96484375  L 15.625 49.1015625  L 17.65625 41.9140625  L 18.330078125 41.376953125  L 20.3515625 42.63671875  L 28.974609375 38.22265625  L 34.521484375 33.193359375  L 35.966796875 26.513671875  L 23.720703125 28.7890625  L 25.205078125 27.011718750000004  L 8.271484375 21.806640625  L 16.26953125 20.78125  L 0.05859375 8.779296875  L 11.279296875 10.546875  L 1.38671875 0  L 26.083984375 12.36328125  L 23.0078125 8.65234375  L 35.15625 15.91796875  L 21.162109375 6.25  L 22.98828125 10  L 18.14453125 8.232421875  L 13.701171875 0  L 32.705078125 11.9140625  L 28.515625 6.46484375  L 39.0625 15.87890625  L 40.234375 15.009765624999998  L 38.18359375 13.408203125000002  L 38.59375 9.716796875  L 42.28515625 8.701171875  L 45.13671875 11.11328125  L 46.259765625 11.5234375  L 45.576171875 12.12890625  L 46.40625 13.300781249999998  L 45.126953125 14.0234375  L 44.12109375 15.996093750000002  Z " stroke-width="0" stroke-dasharray="0" stroke="rgba(255, 255, 255, 0)" fill="none" class="stroke" mask="url(#Clip989)" />
  </g>
</svg>