<?xml version="1.0" encoding="utf-8"?>
<svg version="1.1" xmlns:xlink="http://www.w3.org/1999/xlink" width="26px" height="26px" xmlns="http://www.w3.org/2000/svg">
  <defs>
    <pattern id="BGPattern" patternUnits="userSpaceOnUse" alignment="0 0" imageRepeat="None" />
    <mask fill="white" id="Clip333">
      <path d="M 14.263999999999998 3.399999999999998  L 21.72 3.4000000000000004  C 23.976 3.4000000000000004  25.799999999999997 5.224  25.799999999999997 7.48  L 25.799999999999997 21.72  C 25.799999999999997 23.976  23.975999999999996 25.799999999999997  21.72 25.799999999999997  L 4.279999999999998 25.799999999999997  C 2.0239999999999974 25.799999999999997  0.1999999999999975 23.975999999999996  0.1999999999999975 21.72  L 0.1999999999999975 4.279999999999998  C 0.1999999999999975 2.0239999999999974  2.0239999999999974 0.1999999999999975  4.279999999999998 0.1999999999999975  L 8.679999999999998 0.1999999999999975  C 11.015999999999998 0.1999999999999975  12.535999999999998 3.399999999999998  14.263999999999998 3.399999999999998  Z M 21.72 9  C 22.311999999999998 9  22.887999999999998 9.128  23.4 9.352  L 23.4 7.48  C 23.4 6.552  22.648 5.800000000000001  21.72 5.800000000000001  L 14.104 5.800000000000001  C 11.687999999999999 5.800000000000001  10.52 2.6000000000000005  8.52 2.6000000000000005  L 4.279999999999999 2.6000000000000005  C 3.351999999999999 2.6000000000000005  2.5999999999999996 3.3520000000000008  2.5999999999999996 4.28  L 2.5999999999999996 9.368  C 3.112 9.128  3.6879999999999997 9  4.279999999999999 9  L 21.72 9  Z M 21.72 23  C 22.648 23.4  23.4 22.648  23.4 21.72  L 23.4 13.079999999999998  C 23.4 12.151999999999997  22.648 11.399999999999999  21.72 11.399999999999999  L 4.279999999999998 11.399999999999999  C 3.3519999999999976 11.399999999999999  2.599999999999998 12.152  2.599999999999998 13.079999999999998  L 2.599999999999998 21.72  C 2.599999999999998 22.648  3.3519999999999976 23.4  4.279999999999998 23  L 21.72 23  Z " fill-rule="evenodd" />
    </mask>
  </defs>
  <g>
    <path d="M 14.263999999999998 3.399999999999998  L 21.72 3.4000000000000004  C 23.976 3.4000000000000004  25.799999999999997 5.224  25.799999999999997 7.48  L 25.799999999999997 21.72  C 25.799999999999997 23.976  23.975999999999996 25.799999999999997  21.72 25.799999999999997  L 4.279999999999998 25.799999999999997  C 2.0239999999999974 25.799999999999997  0.1999999999999975 23.975999999999996  0.1999999999999975 21.72  L 0.1999999999999975 4.279999999999998  C 0.1999999999999975 2.0239999999999974  2.0239999999999974 0.1999999999999975  4.279999999999998 0.1999999999999975  L 8.679999999999998 0.1999999999999975  C 11.015999999999998 0.1999999999999975  12.535999999999998 3.399999999999998  14.263999999999998 3.399999999999998  Z M 21.72 9  C 22.311999999999998 9  22.887999999999998 9.128  23.4 9.352  L 23.4 7.48  C 23.4 6.552  22.648 5.800000000000001  21.72 5.800000000000001  L 14.104 5.800000000000001  C 11.687999999999999 5.800000000000001  10.52 2.6000000000000005  8.52 2.6000000000000005  L 4.279999999999999 2.6000000000000005  C 3.351999999999999 2.6000000000000005  2.5999999999999996 3.3520000000000008  2.5999999999999996 4.28  L 2.5999999999999996 9.368  C 3.112 9.128  3.6879999999999997 9  4.279999999999999 9  L 21.72 9  Z M 21.72 23  C 22.648 23.4  23.4 22.648  23.4 21.72  L 23.4 13.079999999999998  C 23.4 12.151999999999997  22.648 11.399999999999999  21.72 11.399999999999999  L 4.279999999999998 11.399999999999999  C 3.3519999999999976 11.399999999999999  2.599999999999998 12.152  2.599999999999998 13.079999999999998  L 2.599999999999998 21.72  C 2.599999999999998 22.648  3.3519999999999976 23.4  4.279999999999998 23  L 21.72 23  Z " fill-rule="nonzero" fill="rgba(0, 0, 0, 1)" stroke="none" class="fill" />
    <path d="M 14.263999999999998 3.399999999999998  L 21.72 3.4000000000000004  C 23.976 3.4000000000000004  25.799999999999997 5.224  25.799999999999997 7.48  L 25.799999999999997 21.72  C 25.799999999999997 23.976  23.975999999999996 25.799999999999997  21.72 25.799999999999997  L 4.279999999999998 25.799999999999997  C 2.0239999999999974 25.799999999999997  0.1999999999999975 23.975999999999996  0.1999999999999975 21.72  L 0.1999999999999975 4.279999999999998  C 0.1999999999999975 2.0239999999999974  2.0239999999999974 0.1999999999999975  4.279999999999998 0.1999999999999975  L 8.679999999999998 0.1999999999999975  C 11.015999999999998 0.1999999999999975  12.535999999999998 3.399999999999998  14.263999999999998 3.399999999999998  Z " stroke-width="0" stroke-dasharray="0" stroke="rgba(255, 255, 255, 0)" fill="none" class="stroke" mask="url(#Clip333)" />
    <path d="M 21.72 9  C 22.311999999999998 9  22.887999999999998 9.128  23.4 9.352  L 23.4 7.48  C 23.4 6.552  22.648 5.800000000000001  21.72 5.800000000000001  L 14.104 5.800000000000001  C 11.687999999999999 5.800000000000001  10.52 2.6000000000000005  8.52 2.6000000000000005  L 4.279999999999999 2.6000000000000005  C 3.351999999999999 2.6000000000000005  2.5999999999999996 3.3520000000000008  2.5999999999999996 4.28  L 2.5999999999999996 9.368  C 3.112 9.128  3.6879999999999997 9  4.279999999999999 9  L 21.72 9  Z " stroke-width="0" stroke-dasharray="0" stroke="rgba(255, 255, 255, 0)" fill="none" class="stroke" mask="url(#Clip333)" />
    <path d="M 21.72 23  C 22.648 23.4  23.4 22.648  23.4 21.72  L 23.4 13.079999999999998  C 23.4 12.151999999999997  22.648 11.399999999999999  21.72 11.399999999999999  L 4.279999999999998 11.399999999999999  C 3.3519999999999976 11.399999999999999  2.599999999999998 12.152  2.599999999999998 13.079999999999998  L 2.599999999999998 21.72  C 2.599999999999998 22.648  3.3519999999999976 23.4  4.279999999999998 23  L 21.72 23  Z " stroke-width="0" stroke-dasharray="0" stroke="rgba(255, 255, 255, 0)" fill="none" class="stroke" mask="url(#Clip333)" />
  </g>
</svg>