<?xml version="1.0" encoding="utf-8"?>
<svg version="1.1" xmlns:xlink="http://www.w3.org/1999/xlink" width="64px" height="45px" xmlns="http://www.w3.org/2000/svg">
  <defs>
    <pattern id="BGPattern" patternUnits="userSpaceOnUse" alignment="0 0" imageRepeat="None" />
    <mask fill="white" id="Clip1666">
      <path d="M 63.875 13.333945312500003  C 63.875 9.93826171875  61.405683593750005 6.601347656250001  58.01 6.582421875  C 55.25380859375 6.567480468750001  52.7805078125 8.3335546875  50.379921875 9.234023437500001  C 48.9316015625 5.792519531249999  45.529941406249996 3.375  41.5625 3.375  C 40.43890625 3.375  39.37607421875 3.6041015624999995  38.375 3.9607031249999993  L 38.375 2.578125  C 38.375 1.2573046875000005  37.30419921875 0.1875  35.984375 0.1875  L 34.390625 0.1875  C 33.07080078125 0.1875  32 1.2573046875000005  32 2.578125  L 32 7.456992187499999  C 28.614277343750004 4.9269140625  24.154765625000003 3.375  19.25 3.375  C 8.687421875000002 3.375  0.12500000000000178 10.511015624999999  1 19.3125  L 1 43.21875  C 0.12500000000000178 44.099296875  0.8382031250000018 44.8125  1.7187500000000018 44.8125  L 8.093750000000002 44.8125  C 8.974296875000002 44.8125  9.687500000000002 44.099296875  9.687500000000002 43.21875  L 9.687500000000002 36.16740234375  C 12.90986328125 37.59779296875  16.731875000000002 38.4375  20.84375 38.4375  C 24.955625000000005 38.4375  28.777636718750003 37.59779296875  32 36.16740234375  L 32 43.21875  C 32 44.099296875  32.713203125 44.8125  33.59375 44.8125  L 39.96875 44.8125  C 40.849296875 44.8125  41.5625 44.099296875  41 43.21875  L 41 25  L 54.3125 25  L 54.3125 28.875000000000004  C 54.3125 29.755546875  55.025703125 30.46875  55.90625 30.46875  L 59.09375 30.46875  C 59.974296875 30.46875  60.6875 29.755546875  60.6875 28.875000000000004  L 60.6875 25.6875  C 62.44759765625 25.6875  63.875 24.26009765625  63.875 22.5  L 63.875 13.333945312500003  Z M 46.34375 12.937499999999998  C 46.34375 13.818046875  45.630546875 14.53125  44.75 14.53125  C 43.869453125 14.53125  43.15625 13.818046875  43.15625 12.937499999999998  C 43.15625 12.056953125  43.869453125 11.34375  44.75 11.34375  C 45.630546875 11.34375  46.34375 12.056953125  46.34375 12.937499999999998  Z " fill-rule="evenodd" />
    </mask>
  </defs>
  <g>
    <path d="M 63.875 13.333945312500003  C 63.875 9.93826171875  61.405683593750005 6.601347656250001  58.01 6.582421875  C 55.25380859375 6.567480468750001  52.7805078125 8.3335546875  50.379921875 9.234023437500001  C 48.9316015625 5.792519531249999  45.529941406249996 3.375  41.5625 3.375  C 40.43890625 3.375  39.37607421875 3.6041015624999995  38.375 3.9607031249999993  L 38.375 2.578125  C 38.375 1.2573046875000005  37.30419921875 0.1875  35.984375 0.1875  L 34.390625 0.1875  C 33.07080078125 0.1875  32 1.2573046875000005  32 2.578125  L 32 7.456992187499999  C 28.614277343750004 4.9269140625  24.154765625000003 3.375  19.25 3.375  C 8.687421875000002 3.375  0.12500000000000178 10.511015624999999  1 19.3125  L 1 43.21875  C 0.12500000000000178 44.099296875  0.8382031250000018 44.8125  1.7187500000000018 44.8125  L 8.093750000000002 44.8125  C 8.974296875000002 44.8125  9.687500000000002 44.099296875  9.687500000000002 43.21875  L 9.687500000000002 36.16740234375  C 12.90986328125 37.59779296875  16.731875000000002 38.4375  20.84375 38.4375  C 24.955625000000005 38.4375  28.777636718750003 37.59779296875  32 36.16740234375  L 32 43.21875  C 32 44.099296875  32.713203125 44.8125  33.59375 44.8125  L 39.96875 44.8125  C 40.849296875 44.8125  41.5625 44.099296875  41 43.21875  L 41 25  L 54.3125 25  L 54.3125 28.875000000000004  C 54.3125 29.755546875  55.025703125 30.46875  55.90625 30.46875  L 59.09375 30.46875  C 59.974296875 30.46875  60.6875 29.755546875  60.6875 28.875000000000004  L 60.6875 25.6875  C 62.44759765625 25.6875  63.875 24.26009765625  63.875 22.5  L 63.875 13.333945312500003  Z M 46.34375 12.937499999999998  C 46.34375 13.818046875  45.630546875 14.53125  44.75 14.53125  C 43.869453125 14.53125  43.15625 13.818046875  43.15625 12.937499999999998  C 43.15625 12.056953125  43.869453125 11.34375  44.75 11.34375  C 45.630546875 11.34375  46.34375 12.056953125  46.34375 12.937499999999998  Z " fill-rule="nonzero" fill="rgba(0, 0, 0, 1)" stroke="none" class="fill" />
    <path d="M 63.875 13.333945312500003  C 63.875 9.93826171875  61.405683593750005 6.601347656250001  58.01 6.582421875  C 55.25380859375 6.567480468750001  52.7805078125 8.3335546875  50.379921875 9.234023437500001  C 48.9316015625 5.792519531249999  45.529941406249996 3.375  41.5625 3.375  C 40.43890625 3.375  39.37607421875 3.6041015624999995  38.375 3.9607031249999993  L 38.375 2.578125  C 38.375 1.2573046875000005  37.30419921875 0.1875  35.984375 0.1875  L 34.390625 0.1875  C 33.07080078125 0.1875  32 1.2573046875000005  32 2.578125  L 32 7.456992187499999  C 28.614277343750004 4.9269140625  24.154765625000003 3.375  19.25 3.375  C 8.687421875000002 3.375  0.12500000000000178 10.511015624999999  1 19.3125  L 1 43.21875  C 0.12500000000000178 44.099296875  0.8382031250000018 44.8125  1.7187500000000018 44.8125  L 8.093750000000002 44.8125  C 8.974296875000002 44.8125  9.687500000000002 44.099296875  9.687500000000002 43.21875  L 9.687500000000002 36.16740234375  C 12.90986328125 37.59779296875  16.731875000000002 38.4375  20.84375 38.4375  C 24.955625000000005 38.4375  28.777636718750003 37.59779296875  32 36.16740234375  L 32 43.21875  C 32 44.099296875  32.713203125 44.8125  33.59375 44.8125  L 39.96875 44.8125  C 40.849296875 44.8125  41.5625 44.099296875  41 43.21875  L 41 25  L 54.3125 25  L 54.3125 28.875000000000004  C 54.3125 29.755546875  55.025703125 30.46875  55.90625 30.46875  L 59.09375 30.46875  C 59.974296875 30.46875  60.6875 29.755546875  60.6875 28.875000000000004  L 60.6875 25.6875  C 62.44759765625 25.6875  63.875 24.26009765625  63.875 22.5  L 63.875 13.333945312500003  Z " stroke-width="0" stroke-dasharray="0" stroke="rgba(255, 255, 255, 0)" fill="none" class="stroke" mask="url(#Clip1666)" />
    <path d="M 46.34375 12.937499999999998  C 46.34375 13.818046875  45.630546875 14.53125  44.75 14.53125  C 43.869453125 14.53125  43.15625 13.818046875  43.15625 12.937499999999998  C 43.15625 12.056953125  43.869453125 11.34375  44.75 11.34375  C 45.630546875 11.34375  46.34375 12.056953125  46.34375 12.937499999999998  Z " stroke-width="0" stroke-dasharray="0" stroke="rgba(255, 255, 255, 0)" fill="none" class="stroke" mask="url(#Clip1666)" />
  </g>
</svg>