<?xml version="1.0" encoding="utf-8"?>
<svg version="1.1" xmlns:xlink="http://www.w3.org/1999/xlink" width="30px" height="30px" xmlns="http://www.w3.org/2000/svg">
  <defs>
    <pattern id="BGPattern" patternUnits="userSpaceOnUse" alignment="0 0" imageRepeat="None" />
    <mask fill="white" id="Clip559">
      <path d="M 8.759999999999998 1  L 21.24 1  C 25.976 0.6000000000000001  29.4 4.024  29 8.76  L 29 21.240000000000002  C 29.4 25.976000000000003  25.976 29.400000000000002  21.24 29  L 8.759999999999998 29  C 4.023999999999998 29.400000000000002  0.5999999999999979 25.976000000000003  1 21.240000000000002  L 1 8.760000000000002  C 0.5999999999999979 4.024000000000002  4.023999999999997 0.6000000000000014  8.759999999999998 1  Z M 27 8.760000000000002  C 27 5.352000000000002  24.648 3.0000000000000018  21.24 3  L 8.759999999999998 3  C 5.3519999999999985 3  2.9999999999999982 5.352  3 8.76  L 3 21.240000000000002  C 2.9999999999999982 24.648000000000003  5.3519999999999985 27  8.759999999999998 27  L 21.24 27  C 24.648 27  27 24.648  27 21.240000000000002  L 27 8.760000000000002  Z M 15.847999999999999 21.032  C 15.608 21.256  15.304 21.4  15 21.4  C 14.616 21.4  14.312 21.192  14.152 21.032  L 8.951999999999998 15.832  C 8.727999999999998 15.608  8.599999999999998 15.304000000000004  8.599999999999998 15  C 8.599999999999998 14.695999999999998  8.727999999999998 14.392  8.951999999999998 14.152  C 9.191999999999998 13.895999999999999  9.511999999999999 13.783999999999999  9.815999999999999 13.783999999999999  C 10.12 13.783999999999999  10.424 13.911999999999999  10.648 14.136  L 13.8 17.288  L 13.8 9.8  C 13.8 9.464  13.928 9.16  14.136000000000001 8.952  C 14.360000000000001 8.728  14.664000000000001 8.6  15 8.6  C 15.336 8.6  15.639999999999999 8.728  15.847999999999999 8.952  C 16.055999999999997 9.176  16.2 9.464  16.2 9.8  L 16.2 17.288  L 19.368 14.152000000000001  C 19.592 13.928  19.895999999999997 13.8  20.2 13.8  C 20.52 13.8  20.84 13.944  21.08 14.200000000000001  C 21.287999999999997 14.424000000000001  21.4 14.712000000000002  21.4 15  C 21.4 15.304  21.288 15.623999999999999  21.048 15.847999999999999  L 15.847999999999999 21.032  Z " fill-rule="evenodd" />
    </mask>
  </defs>
  <g>
    <path d="M 8.759999999999998 1  L 21.24 1  C 25.976 0.6000000000000001  29.4 4.024  29 8.76  L 29 21.240000000000002  C 29.4 25.976000000000003  25.976 29.400000000000002  21.24 29  L 8.759999999999998 29  C 4.023999999999998 29.400000000000002  0.5999999999999979 25.976000000000003  1 21.240000000000002  L 1 8.760000000000002  C 0.5999999999999979 4.024000000000002  4.023999999999997 0.6000000000000014  8.759999999999998 1  Z M 27 8.760000000000002  C 27 5.352000000000002  24.648 3.0000000000000018  21.24 3  L 8.759999999999998 3  C 5.3519999999999985 3  2.9999999999999982 5.352  3 8.76  L 3 21.240000000000002  C 2.9999999999999982 24.648000000000003  5.3519999999999985 27  8.759999999999998 27  L 21.24 27  C 24.648 27  27 24.648  27 21.240000000000002  L 27 8.760000000000002  Z M 15.847999999999999 21.032  C 15.608 21.256  15.304 21.4  15 21.4  C 14.616 21.4  14.312 21.192  14.152 21.032  L 8.951999999999998 15.832  C 8.727999999999998 15.608  8.599999999999998 15.304000000000004  8.599999999999998 15  C 8.599999999999998 14.695999999999998  8.727999999999998 14.392  8.951999999999998 14.152  C 9.191999999999998 13.895999999999999  9.511999999999999 13.783999999999999  9.815999999999999 13.783999999999999  C 10.12 13.783999999999999  10.424 13.911999999999999  10.648 14.136  L 13.8 17.288  L 13.8 9.8  C 13.8 9.464  13.928 9.16  14.136000000000001 8.952  C 14.360000000000001 8.728  14.664000000000001 8.6  15 8.6  C 15.336 8.6  15.639999999999999 8.728  15.847999999999999 8.952  C 16.055999999999997 9.176  16.2 9.464  16.2 9.8  L 16.2 17.288  L 19.368 14.152000000000001  C 19.592 13.928  19.895999999999997 13.8  20.2 13.8  C 20.52 13.8  20.84 13.944  21.08 14.200000000000001  C 21.287999999999997 14.424000000000001  21.4 14.712000000000002  21.4 15  C 21.4 15.304  21.288 15.623999999999999  21.048 15.847999999999999  L 15.847999999999999 21.032  Z " fill-rule="nonzero" fill="rgba(0, 0, 0, 1)" stroke="none" class="fill" />
    <path d="M 8.759999999999998 1  L 21.24 1  C 25.976 0.6000000000000001  29.4 4.024  29 8.76  L 29 21.240000000000002  C 29.4 25.976000000000003  25.976 29.400000000000002  21.24 29  L 8.759999999999998 29  C 4.023999999999998 29.400000000000002  0.5999999999999979 25.976000000000003  1 21.240000000000002  L 1 8.760000000000002  C 0.5999999999999979 4.024000000000002  4.023999999999997 0.6000000000000014  8.759999999999998 1  Z " stroke-width="0" stroke-dasharray="0" stroke="rgba(255, 255, 255, 0)" fill="none" class="stroke" mask="url(#Clip559)" />
    <path d="M 27 8.760000000000002  C 27 5.352000000000002  24.648 3.0000000000000018  21.24 3  L 8.759999999999998 3  C 5.3519999999999985 3  2.9999999999999982 5.352  3 8.76  L 3 21.240000000000002  C 2.9999999999999982 24.648000000000003  5.3519999999999985 27  8.759999999999998 27  L 21.24 27  C 24.648 27  27 24.648  27 21.240000000000002  L 27 8.760000000000002  Z " stroke-width="0" stroke-dasharray="0" stroke="rgba(255, 255, 255, 0)" fill="none" class="stroke" mask="url(#Clip559)" />
    <path d="M 15.847999999999999 21.032  C 15.608 21.256  15.304 21.4  15 21.4  C 14.616 21.4  14.312 21.192  14.152 21.032  L 8.951999999999998 15.832  C 8.727999999999998 15.608  8.599999999999998 15.304000000000004  8.599999999999998 15  C 8.599999999999998 14.695999999999998  8.727999999999998 14.392  8.951999999999998 14.152  C 9.191999999999998 13.895999999999999  9.511999999999999 13.783999999999999  9.815999999999999 13.783999999999999  C 10.12 13.783999999999999  10.424 13.911999999999999  10.648 14.136  L 13.8 17.288  L 13.8 9.8  C 13.8 9.464  13.928 9.16  14.136000000000001 8.952  C 14.360000000000001 8.728  14.664000000000001 8.6  15 8.6  C 15.336 8.6  15.639999999999999 8.728  15.847999999999999 8.952  C 16.055999999999997 9.176  16.2 9.464  16.2 9.8  L 16.2 17.288  L 19.368 14.152000000000001  C 19.592 13.928  19.895999999999997 13.8  20.2 13.8  C 20.52 13.8  20.84 13.944  21.08 14.200000000000001  C 21.287999999999997 14.424000000000001  21.4 14.712000000000002  21.4 15  C 21.4 15.304  21.288 15.623999999999999  21.048 15.847999999999999  L 15.847999999999999 21.032  Z " stroke-width="0" stroke-dasharray="0" stroke="rgba(255, 255, 255, 0)" fill="none" class="stroke" mask="url(#Clip559)" />
  </g>
</svg>