<?xml version="1.0" encoding="utf-8"?>
<svg version="1.1" xmlns:xlink="http://www.w3.org/1999/xlink" width="50px" height="31px" xmlns="http://www.w3.org/2000/svg">
  <defs>
    <pattern id="BGPattern" patternUnits="userSpaceOnUse" alignment="0 0" imageRepeat="None" />
    <mask fill="white" id="Clip1902">
      <path d="M 49.42097791798108 19.68903785488959  C 50.16009463722395 20.428154574132463  50.16009463722395 21.62665615141958  49.42089905362775 22.365772870662454  L 41.48036277602523 30.306309148264972  C 40.74116719242903 31.045425867507902  39.54282334384857 31.045425867507902  38.80362776025237 30.306309148264972  L 30.86301261829652 22.365772870662454  C 30.123817034700323 21.626577287066254  30.123817034700323 20.428154574132463  30.86301261829652 19.68903785488959  L 31.71656151419559 18.83548895899054  C 32.47066246056782 18.081388012618277  33.69865930599369 18.098895899053616  34.43099369085172 18.87429022082017  L 37 22.249053627760247  L 37 8  L 22.82736593059937 8  C 22.325380498193255 7.886410312855561  21.843956061819085 7.687015323563571  21.488958990536275 7.332097791798105  L 20.227129337539438 6.070268138801282  C 19.034779179810727 4.877839116719258  19.87925867507886 2.839116719242895  21.56553627760252 3  L 40.772870662460576 3  C 41.81821766561515 2.839116719242895  42.66561514195584 3.686514195583584  42 4.731861198738159  L 42 22.249053627760247  L 45.85299684542588 18.87429022082017  C 46.585252365930586 18.098974763406943  47.813249211356464 18.081388012618277  48.567429022082024 18.83548895899054  L 49.42097791798108 19.68903785488959  Z M 29.77287066246056 24.84455835962143  L 28.510962145110412 23.582728706624607  C 28.155994512753296 23.227767112035508  27.674550974877942 23.02836421133867  27.172555205047317 23  L 13 23  L 13 8.665694006309138  L 15.569085173501577 12.040457413249214  C 16.301419558359612 12.815772870662443  17.529337539432177 12.833359621451109  18.283517350157723 12.079179810725577  L 19.136987381703477 11.225709779179795  C 19.876182965299677 10.486514195583595  19.876182965299677 9.288091482649861  19.136987381703477 8.548974763406932  L 11.196451104100944 0.6085173501577401  C 10.45725552050473 -0.1306782334384593  9.258832807570982 -0.1306782334384593  8.519716088328082 0.6085173501577401  L 0.5791009463722361 8.549053627760259  C -0.16009463722397754 9.288249211356458  -0.16009463722397754 10.486671924290192  0.5791009463722361 11.225788643533122  L 1.432570977917976 12.079258675078847  C 2.1866719242902235 12.833359621451109  3.414668769716087 12.81585173501577  4.147003154574136 12.040536277602541  L 8 8.665694006309138  L 8 26.182965299684554  C 7.33438485804416 27.22831230283913  8.181782334384863 28.075709779179817  9.227129337539438 28  L 28.434463722397478 28  C 30.12074132492114 28.075709779179817  30.96522082018927 26.036987381703455  29.77287066246056 24.84455835962143  Z " fill-rule="evenodd" />
    </mask>
  </defs>
  <g>
    <path d="M 49.42097791798108 19.68903785488959  C 50.16009463722395 20.428154574132463  50.16009463722395 21.62665615141958  49.42089905362775 22.365772870662454  L 41.48036277602523 30.306309148264972  C 40.74116719242903 31.045425867507902  39.54282334384857 31.045425867507902  38.80362776025237 30.306309148264972  L 30.86301261829652 22.365772870662454  C 30.123817034700323 21.626577287066254  30.123817034700323 20.428154574132463  30.86301261829652 19.68903785488959  L 31.71656151419559 18.83548895899054  C 32.47066246056782 18.081388012618277  33.69865930599369 18.098895899053616  34.43099369085172 18.87429022082017  L 37 22.249053627760247  L 37 8  L 22.82736593059937 8  C 22.325380498193255 7.886410312855561  21.843956061819085 7.687015323563571  21.488958990536275 7.332097791798105  L 20.227129337539438 6.070268138801282  C 19.034779179810727 4.877839116719258  19.87925867507886 2.839116719242895  21.56553627760252 3  L 40.772870662460576 3  C 41.81821766561515 2.839116719242895  42.66561514195584 3.686514195583584  42 4.731861198738159  L 42 22.249053627760247  L 45.85299684542588 18.87429022082017  C 46.585252365930586 18.098974763406943  47.813249211356464 18.081388012618277  48.567429022082024 18.83548895899054  L 49.42097791798108 19.68903785488959  Z M 29.77287066246056 24.84455835962143  L 28.510962145110412 23.582728706624607  C 28.155994512753296 23.227767112035508  27.674550974877942 23.02836421133867  27.172555205047317 23  L 13 23  L 13 8.665694006309138  L 15.569085173501577 12.040457413249214  C 16.301419558359612 12.815772870662443  17.529337539432177 12.833359621451109  18.283517350157723 12.079179810725577  L 19.136987381703477 11.225709779179795  C 19.876182965299677 10.486514195583595  19.876182965299677 9.288091482649861  19.136987381703477 8.548974763406932  L 11.196451104100944 0.6085173501577401  C 10.45725552050473 -0.1306782334384593  9.258832807570982 -0.1306782334384593  8.519716088328082 0.6085173501577401  L 0.5791009463722361 8.549053627760259  C -0.16009463722397754 9.288249211356458  -0.16009463722397754 10.486671924290192  0.5791009463722361 11.225788643533122  L 1.432570977917976 12.079258675078847  C 2.1866719242902235 12.833359621451109  3.414668769716087 12.81585173501577  4.147003154574136 12.040536277602541  L 8 8.665694006309138  L 8 26.182965299684554  C 7.33438485804416 27.22831230283913  8.181782334384863 28.075709779179817  9.227129337539438 28  L 28.434463722397478 28  C 30.12074132492114 28.075709779179817  30.96522082018927 26.036987381703455  29.77287066246056 24.84455835962143  Z " fill-rule="nonzero" fill="rgba(0, 0, 0, 1)" stroke="none" class="fill" />
    <path d="M 49.42097791798108 19.68903785488959  C 50.16009463722395 20.428154574132463  50.16009463722395 21.62665615141958  49.42089905362775 22.365772870662454  L 41.48036277602523 30.306309148264972  C 40.74116719242903 31.045425867507902  39.54282334384857 31.045425867507902  38.80362776025237 30.306309148264972  L 30.86301261829652 22.365772870662454  C 30.123817034700323 21.626577287066254  30.123817034700323 20.428154574132463  30.86301261829652 19.68903785488959  L 31.71656151419559 18.83548895899054  C 32.47066246056782 18.081388012618277  33.69865930599369 18.098895899053616  34.43099369085172 18.87429022082017  L 37 22.249053627760247  L 37 8  L 22.82736593059937 8  C 22.325380498193255 7.886410312855561  21.843956061819085 7.687015323563571  21.488958990536275 7.332097791798105  L 20.227129337539438 6.070268138801282  C 19.034779179810727 4.877839116719258  19.87925867507886 2.839116719242895  21.56553627760252 3  L 40.772870662460576 3  C 41.81821766561515 2.839116719242895  42.66561514195584 3.686514195583584  42 4.731861198738159  L 42 22.249053627760247  L 45.85299684542588 18.87429022082017  C 46.585252365930586 18.098974763406943  47.813249211356464 18.081388012618277  48.567429022082024 18.83548895899054  L 49.42097791798108 19.68903785488959  Z " stroke-width="0" stroke-dasharray="0" stroke="rgba(255, 255, 255, 0)" fill="none" class="stroke" mask="url(#Clip1902)" />
    <path d="M 29.77287066246056 24.84455835962143  L 28.510962145110412 23.582728706624607  C 28.155994512753296 23.227767112035508  27.674550974877942 23.02836421133867  27.172555205047317 23  L 13 23  L 13 8.665694006309138  L 15.569085173501577 12.040457413249214  C 16.301419558359612 12.815772870662443  17.529337539432177 12.833359621451109  18.283517350157723 12.079179810725577  L 19.136987381703477 11.225709779179795  C 19.876182965299677 10.486514195583595  19.876182965299677 9.288091482649861  19.136987381703477 8.548974763406932  L 11.196451104100944 0.6085173501577401  C 10.45725552050473 -0.1306782334384593  9.258832807570982 -0.1306782334384593  8.519716088328082 0.6085173501577401  L 0.5791009463722361 8.549053627760259  C -0.16009463722397754 9.288249211356458  -0.16009463722397754 10.486671924290192  0.5791009463722361 11.225788643533122  L 1.432570977917976 12.079258675078847  C 2.1866719242902235 12.833359621451109  3.414668769716087 12.81585173501577  4.147003154574136 12.040536277602541  L 8 8.665694006309138  L 8 26.182965299684554  C 7.33438485804416 27.22831230283913  8.181782334384863 28.075709779179817  9.227129337539438 28  L 28.434463722397478 28  C 30.12074132492114 28.075709779179817  30.96522082018927 26.036987381703455  29.77287066246056 24.84455835962143  Z " stroke-width="0" stroke-dasharray="0" stroke="rgba(255, 255, 255, 0)" fill="none" class="stroke" mask="url(#Clip1902)" />
  </g>
</svg>