<?xml version="1.0" encoding="utf-8"?>
<svg version="1.1" xmlns:xlink="http://www.w3.org/1999/xlink" width="19px" height="15px" xmlns="http://www.w3.org/2000/svg">
  <defs>
    <pattern id="BGPattern" patternUnits="userSpaceOnUse" alignment="0 0" imageRepeat="None" />
    <mask fill="white" id="Clip3649">
      <path d="M 12 0  C 13.104021260403822 0.0013224465338312896  13.998677553466166 0.8959787395961767  14 2  L 14 11.1719  L 17.5859 7.5859  L 19 9  L 13 15  L 7 9  L 8.414100000000001 7.5859  L 12 11.1719  L 12 2  L 0 2  L 0 0  L 12 0  Z " fill-rule="evenodd" />
    </mask>
  </defs>
  <g transform="matrix(1 0 0 1 -13 -4 )">
    <path d="M 12 0  C 13.104021260403822 0.0013224465338312896  13.998677553466166 0.8959787395961767  14 2  L 14 11.1719  L 17.5859 7.5859  L 19 9  L 13 15  L 7 9  L 8.414100000000001 7.5859  L 12 11.1719  L 12 2  L 0 2  L 0 0  L 12 0  Z " fill-rule="nonzero" fill="rgba(0, 0, 0, 1)" stroke="none" transform="matrix(1 0 0 1 13 4 )" class="fill" />
    <path d="M 12 0  C 13.104021260403822 0.0013224465338312896  13.998677553466166 0.8959787395961767  14 2  L 14 11.1719  L 17.5859 7.5859  L 19 9  L 13 15  L 7 9  L 8.414100000000001 7.5859  L 12 11.1719  L 12 2  L 0 2  L 0 0  L 12 0  Z " stroke-width="0" stroke-dasharray="0" stroke="rgba(255, 255, 255, 0)" fill="none" transform="matrix(1 0 0 1 13 4 )" class="stroke" mask="url(#Clip3649)" />
  </g>
</svg>