<?xml version="1.0" encoding="utf-8"?>
<svg version="1.1" xmlns:xlink="http://www.w3.org/1999/xlink" width="8px" height="5px" xmlns="http://www.w3.org/2000/svg">
  <defs>
    <pattern id="BGPattern" patternUnits="userSpaceOnUse" alignment="0 0" imageRepeat="None" />
    <mask fill="white" id="Clip4307">
      <path d="M 8 3  L 8 5  L 4 5  C 1.7918890421776261 4.997520057725873  0.0024799422741246246 3.2081109578223757  0 1  L 0 0  L 2 0  L 2 0.9999999999999996  C 2.001157472125435 2.1040897036022113  2.8959102963977905 2.9988425278745696  4 3  L 8 3  Z " fill-rule="evenodd" />
    </mask>
  </defs>
  <g transform="matrix(1 0 0 1 -18 -2 )">
    <path d="M 8 3  L 8 5  L 4 5  C 1.7918890421776261 4.997520057725873  0.0024799422741246246 3.2081109578223757  0 1  L 0 0  L 2 0  L 2 0.9999999999999996  C 2.001157472125435 2.1040897036022113  2.8959102963977905 2.9988425278745696  4 3  L 8 3  Z " fill-rule="nonzero" fill="rgba(0, 0, 0, 1)" stroke="none" transform="matrix(1 0 0 1 18 2 )" class="fill" />
    <path d="M 8 3  L 8 5  L 4 5  C 1.7918890421776261 4.997520057725873  0.0024799422741246246 3.2081109578223757  0 1  L 0 0  L 2 0  L 2 0.9999999999999996  C 2.001157472125435 2.1040897036022113  2.8959102963977905 2.9988425278745696  4 3  L 8 3  Z " stroke-width="0" stroke-dasharray="0" stroke="rgba(255, 255, 255, 0)" fill="none" transform="matrix(1 0 0 1 18 2 )" class="stroke" mask="url(#Clip4307)" />
  </g>
</svg>