<?xml version="1.0" encoding="utf-8"?>
<svg version="1.1" xmlns:xlink="http://www.w3.org/1999/xlink" width="24px" height="23px" xmlns="http://www.w3.org/2000/svg">
  <defs>
    <pattern id="BGPattern" patternUnits="userSpaceOnUse" alignment="0 0" imageRepeat="None" />
    <mask fill="white" id="Clip5113">
      <path d="M 12 0.5  C 18.627 0.5  24 5.2010000000000005  24 11  C 24 16.799  18.627 21.5  12 21.500000000000004  C 10.811477639535862 21.50160220727483  9.627880178039874 21.34728570824723  8.479500000000002 21.041  C 7.603500000000001 21.485  5.5920000000000005 22.337000000000003  2.2080000000000006 22.892000000000003  C 1.9080000000000008 22.94  1.6800000000000008 22.628  1.7985000000000004 22.349  C 2.3295000000000003 21.095  2.8095000000000003 19.424000000000003  2.9535000000000005 17.900000000000002  C 1.116 16.055  0 13.64  0 11  C 0 5.2010000000000005  5.372999999999999 0.5  12 0.5  Z M 17.25 6.499999999999999  L 6.75 6.499999999999999  C 6.335786437626905 6.499999999999999  6 6.835786437626906  6 7.25  C 6 7.664213562373096  6.335786437626905 8  6.75 8  L 17.25 8  C 17.664213562373096 8  18 7.664213562373096  18 7.25  C 18 6.835786437626906  17.664213562373096 6.499999999999999  17.25 6.499999999999999  Z M 17.25 10.25  L 6.75 10.25  C 6.335786437626905 10.25  6 10.585786437626904  6 11  C 6 11.414213562373096  6.335786437626905 11.750000000000002  6.75 11.750000000000002  L 17.25 11.750000000000002  C 17.664213562373096 11.750000000000002  18 11.414213562373096  18 11  C 18 10.585786437626904  17.664213562373096 10.25  17.25 10.25  Z M 12.75 14  L 6.75 14  C 6.335786437626905 14  6 14.335786437626904  6 14.75  C 6 15.164213562373096  6.335786437626905 15.5  6.75 15.5  L 12.75 15.5  C 13.164213562373096 15.5  13.5 15.164213562373096  13.5 14.75  C 13.5 14.335786437626904  13.164213562373096 14  12.75 14  Z " fill-rule="evenodd" />
    </mask>
  </defs>
  <g>
    <path d="M 12 0.5  C 18.627 0.5  24 5.2010000000000005  24 11  C 24 16.799  18.627 21.5  12 21.500000000000004  C 10.811477639535862 21.50160220727483  9.627880178039874 21.34728570824723  8.479500000000002 21.041  C 7.603500000000001 21.485  5.5920000000000005 22.337000000000003  2.2080000000000006 22.892000000000003  C 1.9080000000000008 22.94  1.6800000000000008 22.628  1.7985000000000004 22.349  C 2.3295000000000003 21.095  2.8095000000000003 19.424000000000003  2.9535000000000005 17.900000000000002  C 1.116 16.055  0 13.64  0 11  C 0 5.2010000000000005  5.372999999999999 0.5  12 0.5  Z M 17.25 6.499999999999999  L 6.75 6.499999999999999  C 6.335786437626905 6.499999999999999  6 6.835786437626906  6 7.25  C 6 7.664213562373096  6.335786437626905 8  6.75 8  L 17.25 8  C 17.664213562373096 8  18 7.664213562373096  18 7.25  C 18 6.835786437626906  17.664213562373096 6.499999999999999  17.25 6.499999999999999  Z M 17.25 10.25  L 6.75 10.25  C 6.335786437626905 10.25  6 10.585786437626904  6 11  C 6 11.414213562373096  6.335786437626905 11.750000000000002  6.75 11.750000000000002  L 17.25 11.750000000000002  C 17.664213562373096 11.750000000000002  18 11.414213562373096  18 11  C 18 10.585786437626904  17.664213562373096 10.25  17.25 10.25  Z M 12.75 14  L 6.75 14  C 6.335786437626905 14  6 14.335786437626904  6 14.75  C 6 15.164213562373096  6.335786437626905 15.5  6.75 15.5  L 12.75 15.5  C 13.164213562373096 15.5  13.5 15.164213562373096  13.5 14.75  C 13.5 14.335786437626904  13.164213562373096 14  12.75 14  Z " fill-rule="nonzero" fill="rgba(0, 0, 0, 1)" stroke="none" class="fill" />
    <path d="M 12 0.5  C 18.627 0.5  24 5.2010000000000005  24 11  C 24 16.799  18.627 21.5  12 21.500000000000004  C 10.811477639535862 21.50160220727483  9.627880178039874 21.34728570824723  8.479500000000002 21.041  C 7.603500000000001 21.485  5.5920000000000005 22.337000000000003  2.2080000000000006 22.892000000000003  C 1.9080000000000008 22.94  1.6800000000000008 22.628  1.7985000000000004 22.349  C 2.3295000000000003 21.095  2.8095000000000003 19.424000000000003  2.9535000000000005 17.900000000000002  C 1.116 16.055  0 13.64  0 11  C 0 5.2010000000000005  5.372999999999999 0.5  12 0.5  Z " stroke-width="0" stroke-dasharray="0" stroke="rgba(255, 255, 255, 0)" fill="none" class="stroke" mask="url(#Clip5113)" />
    <path d="M 17.25 6.499999999999999  L 6.75 6.499999999999999  C 6.335786437626905 6.499999999999999  6 6.835786437626906  6 7.25  C 6 7.664213562373096  6.335786437626905 8  6.75 8  L 17.25 8  C 17.664213562373096 8  18 7.664213562373096  18 7.25  C 18 6.835786437626906  17.664213562373096 6.499999999999999  17.25 6.499999999999999  Z " stroke-width="0" stroke-dasharray="0" stroke="rgba(255, 255, 255, 0)" fill="none" class="stroke" mask="url(#Clip5113)" />
    <path d="M 17.25 10.25  L 6.75 10.25  C 6.335786437626905 10.25  6 10.585786437626904  6 11  C 6 11.414213562373096  6.335786437626905 11.750000000000002  6.75 11.750000000000002  L 17.25 11.750000000000002  C 17.664213562373096 11.750000000000002  18 11.414213562373096  18 11  C 18 10.585786437626904  17.664213562373096 10.25  17.25 10.25  Z " stroke-width="0" stroke-dasharray="0" stroke="rgba(255, 255, 255, 0)" fill="none" class="stroke" mask="url(#Clip5113)" />
    <path d="M 12.75 14  L 6.75 14  C 6.335786437626905 14  6 14.335786437626904  6 14.75  C 6 15.164213562373096  6.335786437626905 15.5  6.75 15.5  L 12.75 15.5  C 13.164213562373096 15.5  13.5 15.164213562373096  13.5 14.75  C 13.5 14.335786437626904  13.164213562373096 14  12.75 14  Z " stroke-width="0" stroke-dasharray="0" stroke="rgba(255, 255, 255, 0)" fill="none" class="stroke" mask="url(#Clip5113)" />
  </g>
</svg>