<?xml version="1.0" encoding="utf-8"?>
<svg version="1.1" xmlns:xlink="http://www.w3.org/1999/xlink" width="20px" height="26px" xmlns="http://www.w3.org/2000/svg">
  <defs>
    <pattern id="BGPattern" patternUnits="userSpaceOnUse" alignment="0 0" imageRepeat="None" />
    <mask fill="white" id="Clip226">
      <path d="M 14.431999999999999 1.4480000000000022  L 18.432 5.5440000000000005  C 19.2 6.344000000000001  19.599999999999998 7.320000000000001  19.599999999999998 8.424  L 19.599999999999998 22.536  C 19.599999999999998 24.424  18.223999999999997 25.8  16.336 25.8  L 3.663999999999998 25.8  C 1.775999999999998 25.8  0.3999999999999986 24.424  0.3999999999999986 22.536  L 0.3999999999999986 3.464000000000002  C 0.3999999999999986 1.5760000000000023  1.775999999999998 0.2000000000000024  3.663999999999998 0.2000000000000024  L 11.471999999999998 0.2000000000000024  C 12.607999999999997 0.2000000000000024  13.631999999999998 0.6160000000000023  14.431999999999999 1.4480000000000022  Z M 16.336000000000002 24  C 17.344 24.200000000000003  18.000000000000004 23.544000000000004  18 22.536  L 18 8.424000000000001  C 18 7.720000000000001  17.776 7.160000000000002  17.28 6.648000000000002  L 13.280000000000001 2.5520000000000014  C 12.784000000000002 2.040000000000001  12.208000000000002 1.8000000000000016  11.472000000000001 1.8000000000000016  L 3.6640000000000015 1.8000000000000016  C 2.6560000000000024 1.8000000000000016  2.0000000000000018 2.4560000000000013  2 3.4640000000000017  L 2 22.536  C 2.0000000000000018 23.544  2.6560000000000024 24.200000000000003  3.6640000000000015 24  L 16.336000000000002 24  Z M 5.199999999999999 11.8  C 5.199999999999999 10.072000000000001  7.4719999999999995 9  10 9  C 12.527999999999999 9  14.8 10.072  14.8 11.8  L 14.8 18.6  C 14.8 20.152  12.496000000000002 21  10 21  C 7.503999999999998 21  5.199999999999999 20.152  5.199999999999999 18.6  L 5.199999999999999 11.8  Z M 6.800000000000001 11.8  C 6.800000000000001 12.264  8.144 13  10 13  C 11.856000000000002 13  13.2 12.264  13.2 11.8  C 13.2 11.336000000000002  11.855999999999998 10.600000000000001  10 10.600000000000001  C 8.144000000000002 10.600000000000001  6.800000000000001 11.336000000000002  6.800000000000001 11.8  Z M 6.800000000000001 15.399999999999997  C 6.800000000000001 15.559999999999999  8.16 16.2  10 16.2  C 11.84 16.2  13.2 15.576  13.2 15.399999999999997  L 13.2 13.927999999999997  C 12.335999999999999 14.359999999999996  11.2 14.599999999999998  10 14.599999999999998  C 8.8 14.599999999999998  7.664 14.36  6.800000000000001 13.927999999999997  L 6.800000000000001 15.399999999999997  Z M 6.800000000000001 18.599999999999998  C 6.800000000000001 18.759999999999998  8.16 19.4  10 19.4  C 11.84 19.4  13.2 18.776  13.2 18.599999999999998  L 13.2 17.24  C 12.32 17.607999999999997  11.183999999999997 17.799999999999997  10 17.799999999999997  C 8.816000000000003 17.799999999999997  7.68 17.607999999999997  6.800000000000001 17.24  L 6.800000000000001 18.599999999999998  Z " fill-rule="evenodd" />
    </mask>
  </defs>
  <g>
    <path d="M 14.431999999999999 1.4480000000000022  L 18.432 5.5440000000000005  C 19.2 6.344000000000001  19.599999999999998 7.320000000000001  19.599999999999998 8.424  L 19.599999999999998 22.536  C 19.599999999999998 24.424  18.223999999999997 25.8  16.336 25.8  L 3.663999999999998 25.8  C 1.775999999999998 25.8  0.3999999999999986 24.424  0.3999999999999986 22.536  L 0.3999999999999986 3.464000000000002  C 0.3999999999999986 1.5760000000000023  1.775999999999998 0.2000000000000024  3.663999999999998 0.2000000000000024  L 11.471999999999998 0.2000000000000024  C 12.607999999999997 0.2000000000000024  13.631999999999998 0.6160000000000023  14.431999999999999 1.4480000000000022  Z M 16.336000000000002 24  C 17.344 24.200000000000003  18.000000000000004 23.544000000000004  18 22.536  L 18 8.424000000000001  C 18 7.720000000000001  17.776 7.160000000000002  17.28 6.648000000000002  L 13.280000000000001 2.5520000000000014  C 12.784000000000002 2.040000000000001  12.208000000000002 1.8000000000000016  11.472000000000001 1.8000000000000016  L 3.6640000000000015 1.8000000000000016  C 2.6560000000000024 1.8000000000000016  2.0000000000000018 2.4560000000000013  2 3.4640000000000017  L 2 22.536  C 2.0000000000000018 23.544  2.6560000000000024 24.200000000000003  3.6640000000000015 24  L 16.336000000000002 24  Z M 5.199999999999999 11.8  C 5.199999999999999 10.072000000000001  7.4719999999999995 9  10 9  C 12.527999999999999 9  14.8 10.072  14.8 11.8  L 14.8 18.6  C 14.8 20.152  12.496000000000002 21  10 21  C 7.503999999999998 21  5.199999999999999 20.152  5.199999999999999 18.6  L 5.199999999999999 11.8  Z M 6.800000000000001 11.8  C 6.800000000000001 12.264  8.144 13  10 13  C 11.856000000000002 13  13.2 12.264  13.2 11.8  C 13.2 11.336000000000002  11.855999999999998 10.600000000000001  10 10.600000000000001  C 8.144000000000002 10.600000000000001  6.800000000000001 11.336000000000002  6.800000000000001 11.8  Z M 6.800000000000001 15.399999999999997  C 6.800000000000001 15.559999999999999  8.16 16.2  10 16.2  C 11.84 16.2  13.2 15.576  13.2 15.399999999999997  L 13.2 13.927999999999997  C 12.335999999999999 14.359999999999996  11.2 14.599999999999998  10 14.599999999999998  C 8.8 14.599999999999998  7.664 14.36  6.800000000000001 13.927999999999997  L 6.800000000000001 15.399999999999997  Z M 6.800000000000001 18.599999999999998  C 6.800000000000001 18.759999999999998  8.16 19.4  10 19.4  C 11.84 19.4  13.2 18.776  13.2 18.599999999999998  L 13.2 17.24  C 12.32 17.607999999999997  11.183999999999997 17.799999999999997  10 17.799999999999997  C 8.816000000000003 17.799999999999997  7.68 17.607999999999997  6.800000000000001 17.24  L 6.800000000000001 18.599999999999998  Z " fill-rule="nonzero" fill="rgba(0, 0, 0, 1)" stroke="none" class="fill" />
    <path d="M 14.431999999999999 1.4480000000000022  L 18.432 5.5440000000000005  C 19.2 6.344000000000001  19.599999999999998 7.320000000000001  19.599999999999998 8.424  L 19.599999999999998 22.536  C 19.599999999999998 24.424  18.223999999999997 25.8  16.336 25.8  L 3.663999999999998 25.8  C 1.775999999999998 25.8  0.3999999999999986 24.424  0.3999999999999986 22.536  L 0.3999999999999986 3.464000000000002  C 0.3999999999999986 1.5760000000000023  1.775999999999998 0.2000000000000024  3.663999999999998 0.2000000000000024  L 11.471999999999998 0.2000000000000024  C 12.607999999999997 0.2000000000000024  13.631999999999998 0.6160000000000023  14.431999999999999 1.4480000000000022  Z " stroke-width="0" stroke-dasharray="0" stroke="rgba(255, 255, 255, 0)" fill="none" class="stroke" mask="url(#Clip226)" />
    <path d="M 16.336000000000002 24  C 17.344 24.200000000000003  18.000000000000004 23.544000000000004  18 22.536  L 18 8.424000000000001  C 18 7.720000000000001  17.776 7.160000000000002  17.28 6.648000000000002  L 13.280000000000001 2.5520000000000014  C 12.784000000000002 2.040000000000001  12.208000000000002 1.8000000000000016  11.472000000000001 1.8000000000000016  L 3.6640000000000015 1.8000000000000016  C 2.6560000000000024 1.8000000000000016  2.0000000000000018 2.4560000000000013  2 3.4640000000000017  L 2 22.536  C 2.0000000000000018 23.544  2.6560000000000024 24.200000000000003  3.6640000000000015 24  L 16.336000000000002 24  Z " stroke-width="0" stroke-dasharray="0" stroke="rgba(255, 255, 255, 0)" fill="none" class="stroke" mask="url(#Clip226)" />
    <path d="M 5.199999999999999 11.8  C 5.199999999999999 10.072000000000001  7.4719999999999995 9  10 9  C 12.527999999999999 9  14.8 10.072  14.8 11.8  L 14.8 18.6  C 14.8 20.152  12.496000000000002 21  10 21  C 7.503999999999998 21  5.199999999999999 20.152  5.199999999999999 18.6  L 5.199999999999999 11.8  Z " stroke-width="0" stroke-dasharray="0" stroke="rgba(255, 255, 255, 0)" fill="none" class="stroke" mask="url(#Clip226)" />
    <path d="M 6.800000000000001 11.8  C 6.800000000000001 12.264  8.144 13  10 13  C 11.856000000000002 13  13.2 12.264  13.2 11.8  C 13.2 11.336000000000002  11.855999999999998 10.600000000000001  10 10.600000000000001  C 8.144000000000002 10.600000000000001  6.800000000000001 11.336000000000002  6.800000000000001 11.8  Z " stroke-width="0" stroke-dasharray="0" stroke="rgba(255, 255, 255, 0)" fill="none" class="stroke" mask="url(#Clip226)" />
    <path d="M 6.800000000000001 15.399999999999997  C 6.800000000000001 15.559999999999999  8.16 16.2  10 16.2  C 11.84 16.2  13.2 15.576  13.2 15.399999999999997  L 13.2 13.927999999999997  C 12.335999999999999 14.359999999999996  11.2 14.599999999999998  10 14.599999999999998  C 8.8 14.599999999999998  7.664 14.36  6.800000000000001 13.927999999999997  L 6.800000000000001 15.399999999999997  Z " stroke-width="0" stroke-dasharray="0" stroke="rgba(255, 255, 255, 0)" fill="none" class="stroke" mask="url(#Clip226)" />
    <path d="M 6.800000000000001 18.599999999999998  C 6.800000000000001 18.759999999999998  8.16 19.4  10 19.4  C 11.84 19.4  13.2 18.776  13.2 18.599999999999998  L 13.2 17.24  C 12.32 17.607999999999997  11.183999999999997 17.799999999999997  10 17.799999999999997  C 8.816000000000003 17.799999999999997  7.68 17.607999999999997  6.800000000000001 17.24  L 6.800000000000001 18.599999999999998  Z " stroke-width="0" stroke-dasharray="0" stroke="rgba(255, 255, 255, 0)" fill="none" class="stroke" mask="url(#Clip226)" />
  </g>
</svg>