<?xml version="1.0" encoding="utf-8"?>
<svg version="1.1" xmlns:xlink="http://www.w3.org/1999/xlink" width="25px" height="25px" xmlns="http://www.w3.org/2000/svg">
  <defs>
    <pattern id="BGPattern" patternUnits="userSpaceOnUse" alignment="0 0" imageRepeat="None" />
    <mask fill="white" id="Clip6022">
      <path d="M 3.219000000000001 16.218999999999998  L 18.219 1.2189999999999999  C 18.35970639451525 1.0779374489685492  18.55075910871264 0.998659324471872  18.75 0.998659324471872  C 18.94924089128736 0.998659324471872  19.14029360548475 1.0779374489685478  19.281000000000002 1.2189999999999999  L 23.781000000000002 5.718999999999999  C 23.922062551031452 5.85970639451525  24.00134067552813 6.050759108712638  24.00134067552813 6.25  C 24.00134067552813 6.449240891287361  23.922062551031452 6.64029360548475  23.781000000000002 6.781000000000001  L 8.781000000000002 21.781  C 8.70902242247164 21.85247554161731  8.623293782319294 21.908607389336108  8.529000000000002 21.945999999999998  L 1.0290000000000012 24.945999999999998  C 0.9403624578771462 24.981479505582016  0.8457658156867991 24.99970883639387  0.7502911636061267 24.99970883639387  C 0.3360776012330316 24.99970883639387  0.00029116360612668757 24.663922398766967  0.00029116360612668757 24.24970883639387  C 0.00029116360612668757 24.1542341843132  0.018520494417981596 24.059637542122854  0.054000000000001214 23.970999999999997  L 3.054000000000001 16.470999999999997  C 3.091392610663891 16.376706217680706  3.147524458382688 16.29097757752836  3.219000000000001 16.218999999999998  Z M 18.75 2.8105  L 16.8105 4.75  L 20.25 8.1895  L 22.1895 6.25  L 18.75 2.8105  Z M 9.4395 19  L 19.189500000000002 9.25  L 15.75 5.810499999999999  L 6 15.560500000000003  L 6 16  L 6.75 16  C 7.164213562373095 16  7.5 16.335786437626904  7.5 16.75  L 7.5 17.5  L 8.25 17.5  C 8.664213562373096 17.5  9 17.835786437626904  9 18.25  L 9 19  L 9.4395 19  Z M 5.25 17.5  C 4.9372431503595395 17.499765493350388  4.657464840228036 17.305475000203508  4.548000000000003 17.012500000000003  L 4.389000000000003 17.1715  L 2.097000000000003 22.903  L 7.828500000000004 20.611  L 7.9875000000000025 20.451999999999998  C 7.694524999796496 20.342535159771966  7.500234506649615 20.06275684964046  7.5 19.75  L 7.5 19  L 6.75 19  C 6.335786437626906 19  6 18.664213562373096  6 18.25  L 6 17.5  L 5.25 17.5  Z " fill-rule="evenodd" />
    </mask>
  </defs>
  <g>
    <path d="M 3.219000000000001 16.218999999999998  L 18.219 1.2189999999999999  C 18.35970639451525 1.0779374489685492  18.55075910871264 0.998659324471872  18.75 0.998659324471872  C 18.94924089128736 0.998659324471872  19.14029360548475 1.0779374489685478  19.281000000000002 1.2189999999999999  L 23.781000000000002 5.718999999999999  C 23.922062551031452 5.85970639451525  24.00134067552813 6.050759108712638  24.00134067552813 6.25  C 24.00134067552813 6.449240891287361  23.922062551031452 6.64029360548475  23.781000000000002 6.781000000000001  L 8.781000000000002 21.781  C 8.70902242247164 21.85247554161731  8.623293782319294 21.908607389336108  8.529000000000002 21.945999999999998  L 1.0290000000000012 24.945999999999998  C 0.9403624578771462 24.981479505582016  0.8457658156867991 24.99970883639387  0.7502911636061267 24.99970883639387  C 0.3360776012330316 24.99970883639387  0.00029116360612668757 24.663922398766967  0.00029116360612668757 24.24970883639387  C 0.00029116360612668757 24.1542341843132  0.018520494417981596 24.059637542122854  0.054000000000001214 23.970999999999997  L 3.054000000000001 16.470999999999997  C 3.091392610663891 16.376706217680706  3.147524458382688 16.29097757752836  3.219000000000001 16.218999999999998  Z M 18.75 2.8105  L 16.8105 4.75  L 20.25 8.1895  L 22.1895 6.25  L 18.75 2.8105  Z M 9.4395 19  L 19.189500000000002 9.25  L 15.75 5.810499999999999  L 6 15.560500000000003  L 6 16  L 6.75 16  C 7.164213562373095 16  7.5 16.335786437626904  7.5 16.75  L 7.5 17.5  L 8.25 17.5  C 8.664213562373096 17.5  9 17.835786437626904  9 18.25  L 9 19  L 9.4395 19  Z M 5.25 17.5  C 4.9372431503595395 17.499765493350388  4.657464840228036 17.305475000203508  4.548000000000003 17.012500000000003  L 4.389000000000003 17.1715  L 2.097000000000003 22.903  L 7.828500000000004 20.611  L 7.9875000000000025 20.451999999999998  C 7.694524999796496 20.342535159771966  7.500234506649615 20.06275684964046  7.5 19.75  L 7.5 19  L 6.75 19  C 6.335786437626906 19  6 18.664213562373096  6 18.25  L 6 17.5  L 5.25 17.5  Z " fill-rule="nonzero" fill="rgba(0, 0, 0, 1)" stroke="none" class="fill" />
    <path d="M 3.219000000000001 16.218999999999998  L 18.219 1.2189999999999999  C 18.35970639451525 1.0779374489685492  18.55075910871264 0.998659324471872  18.75 0.998659324471872  C 18.94924089128736 0.998659324471872  19.14029360548475 1.0779374489685478  19.281000000000002 1.2189999999999999  L 23.781000000000002 5.718999999999999  C 23.922062551031452 5.85970639451525  24.00134067552813 6.050759108712638  24.00134067552813 6.25  C 24.00134067552813 6.449240891287361  23.922062551031452 6.64029360548475  23.781000000000002 6.781000000000001  L 8.781000000000002 21.781  C 8.70902242247164 21.85247554161731  8.623293782319294 21.908607389336108  8.529000000000002 21.945999999999998  L 1.0290000000000012 24.945999999999998  C 0.9403624578771462 24.981479505582016  0.8457658156867991 24.99970883639387  0.7502911636061267 24.99970883639387  C 0.3360776012330316 24.99970883639387  0.00029116360612668757 24.663922398766967  0.00029116360612668757 24.24970883639387  C 0.00029116360612668757 24.1542341843132  0.018520494417981596 24.059637542122854  0.054000000000001214 23.970999999999997  L 3.054000000000001 16.470999999999997  C 3.091392610663891 16.376706217680706  3.147524458382688 16.29097757752836  3.219000000000001 16.218999999999998  Z " stroke-width="0" stroke-dasharray="0" stroke="rgba(255, 255, 255, 0)" fill="none" class="stroke" mask="url(#Clip6022)" />
    <path d="M 18.75 2.8105  L 16.8105 4.75  L 20.25 8.1895  L 22.1895 6.25  L 18.75 2.8105  Z " stroke-width="0" stroke-dasharray="0" stroke="rgba(255, 255, 255, 0)" fill="none" class="stroke" mask="url(#Clip6022)" />
    <path d="M 9.4395 19  L 19.189500000000002 9.25  L 15.75 5.810499999999999  L 6 15.560500000000003  L 6 16  L 6.75 16  C 7.164213562373095 16  7.5 16.335786437626904  7.5 16.75  L 7.5 17.5  L 8.25 17.5  C 8.664213562373096 17.5  9 17.835786437626904  9 18.25  L 9 19  L 9.4395 19  Z " stroke-width="0" stroke-dasharray="0" stroke="rgba(255, 255, 255, 0)" fill="none" class="stroke" mask="url(#Clip6022)" />
    <path d="M 5.25 17.5  C 4.9372431503595395 17.499765493350388  4.657464840228036 17.305475000203508  4.548000000000003 17.012500000000003  L 4.389000000000003 17.1715  L 2.097000000000003 22.903  L 7.828500000000004 20.611  L 7.9875000000000025 20.451999999999998  C 7.694524999796496 20.342535159771966  7.500234506649615 20.06275684964046  7.5 19.75  L 7.5 19  L 6.75 19  C 6.335786437626906 19  6 18.664213562373096  6 18.25  L 6 17.5  L 5.25 17.5  Z " stroke-width="0" stroke-dasharray="0" stroke="rgba(255, 255, 255, 0)" fill="none" class="stroke" mask="url(#Clip6022)" />
  </g>
</svg>