<?xml version="1.0" encoding="utf-8"?>
<svg version="1.1" xmlns:xlink="http://www.w3.org/1999/xlink" width="22px" height="24px" xmlns="http://www.w3.org/2000/svg">
  <defs>
    <pattern id="BGPattern" patternUnits="userSpaceOnUse" alignment="0 0" imageRepeat="None" />
    <mask fill="white" id="Clip6457">
      <path d="M 13.25 0  C 14.492640687119284 0  15.5 1.0073593101839542  15.5 2.2499999939766164  L 15.5 3.749999989961027  L 20.75 3.749999989961027  C 21.164213562373096 3.749999989961027  21.5 4.085786426689012  21.5 4.499999987953233  C 21.5 4.914213549217453  21.164213562373096 5.249999985945438  20.75 5.249999985945438  L 19.942999999999998 5.249999985945438  L 18.6635 21.23999994313926  C 18.538378108776477 22.799011082745395  17.236524018727685 24.00032077145007  15.6725 23.999999935750573  L 6.3275 23.999999935750573  C 4.763475981272314 24.00032077145007  3.46162189122352 22.799011082745395  3.3365 21.23999994313926  L 2.0569999999999995 5.249999985945438  L 1.25 5.249999985945438  C 0.8357864376269052 5.249999985945438  0.5 4.914213549217453  0.5 4.499999987953233  C 0.5 4.085786426689012  0.8357864376269052 3.749999989961027  1.25 3.749999989961027  L 6.5 3.749999989961027  L 6.5 2.2499999939766164  C 6.5 1.0073593101839542  7.507359312880716 0  8.75 0  L 13.25 0  Z M 8.75 1.4999999959844108  C 8.335786437626904 1.4999999959844108  8 1.8357864327123956  8 2.2499999939766164  L 8 3.749999989961027  L 14 3.749999989961027  L 14 2.2499999939766164  C 14 1.8357864327123956  13.664213562373096 1.4999999959844108  13.25 1.4999999959844108  L 8.75 1.4999999959844108  Z M 5.747604333947166 7.483602067953806  C 5.747604333947166 7.503591986344899  5.748403527498501 7.523573913639691  5.75 7.543499979805602  L 6.5 20.293499945673098  C 6.51615491158353 20.69567871475508  6.8468925675124765 21.013397855758022  7.249395666052834 21.013397855758022  C 7.66360922842593 21.013397855758022  7.999395666052835 20.67761141903004  7.999395666052835 20.263397857765817  C 7.999395666052835 20.243407939374713  7.998596472501502 20.22342601207995  7.997 20.20349994591403  L 7.247000000000001 7.453499980046536  C 7.230845088416473 7.051321210964552  6.900107432487526 6.733602069961601  6.497604333947167 6.733602069961601  C 6.083390771574072 6.733602069961601  5.747604333947166 7.069388506689585  5.747604333947166 7.483602067953806  Z M 16.25 7.543499979805602  C 16.27389062912287 7.130161368556308  15.958323430929532 6.77565183621581  15.545000000000002 6.751499981925832  C 15.131661387644176 6.727609352866917  14.777151854354635 7.043176550215464  14.753 7.456499980038505  L 14.002999999999998 20.206499945905996  C 14.002729297508782 20.21472284603943  14.0025939187758 20.222949643862993  14.0025939187758 20.231176998628815  C 14.0025939187758 20.645390559893034  14.338380356402705 20.981176996621024  14.7525939187758 20.981176996621024  C 15.142645429147308 20.981176996621024  15.467587787079331 20.682202439088982  15.5 20.293499945673098  L 16.25 7.543499979805602  Z M 11.75 7.499999979922054  C 11.75 7.085786418657833  11.414213562373096 6.749999981929849  11 6.749999981929849  C 10.585786437626904 6.749999981929849  10.25 7.085786418657833  10.25 7.499999979922054  L 10.25 20.249999945789547  C 10.25 20.664213507053766  10.585786437626904 20.999999943781752  11 20.999999943781752  C 11.414213562373096 20.999999943781752  11.75 20.664213507053766  11.75 20.249999945789547  L 11.75 7.499999979922054  Z " fill-rule="evenodd" />
    </mask>
  </defs>
  <g>
    <path d="M 13.25 0  C 14.492640687119284 0  15.5 1.0073593101839542  15.5 2.2499999939766164  L 15.5 3.749999989961027  L 20.75 3.749999989961027  C 21.164213562373096 3.749999989961027  21.5 4.085786426689012  21.5 4.499999987953233  C 21.5 4.914213549217453  21.164213562373096 5.249999985945438  20.75 5.249999985945438  L 19.942999999999998 5.249999985945438  L 18.6635 21.23999994313926  C 18.538378108776477 22.799011082745395  17.236524018727685 24.00032077145007  15.6725 23.999999935750573  L 6.3275 23.999999935750573  C 4.763475981272314 24.00032077145007  3.46162189122352 22.799011082745395  3.3365 21.23999994313926  L 2.0569999999999995 5.249999985945438  L 1.25 5.249999985945438  C 0.8357864376269052 5.249999985945438  0.5 4.914213549217453  0.5 4.499999987953233  C 0.5 4.085786426689012  0.8357864376269052 3.749999989961027  1.25 3.749999989961027  L 6.5 3.749999989961027  L 6.5 2.2499999939766164  C 6.5 1.0073593101839542  7.507359312880716 0  8.75 0  L 13.25 0  Z M 8.75 1.4999999959844108  C 8.335786437626904 1.4999999959844108  8 1.8357864327123956  8 2.2499999939766164  L 8 3.749999989961027  L 14 3.749999989961027  L 14 2.2499999939766164  C 14 1.8357864327123956  13.664213562373096 1.4999999959844108  13.25 1.4999999959844108  L 8.75 1.4999999959844108  Z M 5.747604333947166 7.483602067953806  C 5.747604333947166 7.503591986344899  5.748403527498501 7.523573913639691  5.75 7.543499979805602  L 6.5 20.293499945673098  C 6.51615491158353 20.69567871475508  6.8468925675124765 21.013397855758022  7.249395666052834 21.013397855758022  C 7.66360922842593 21.013397855758022  7.999395666052835 20.67761141903004  7.999395666052835 20.263397857765817  C 7.999395666052835 20.243407939374713  7.998596472501502 20.22342601207995  7.997 20.20349994591403  L 7.247000000000001 7.453499980046536  C 7.230845088416473 7.051321210964552  6.900107432487526 6.733602069961601  6.497604333947167 6.733602069961601  C 6.083390771574072 6.733602069961601  5.747604333947166 7.069388506689585  5.747604333947166 7.483602067953806  Z M 16.25 7.543499979805602  C 16.27389062912287 7.130161368556308  15.958323430929532 6.77565183621581  15.545000000000002 6.751499981925832  C 15.131661387644176 6.727609352866917  14.777151854354635 7.043176550215464  14.753 7.456499980038505  L 14.002999999999998 20.206499945905996  C 14.002729297508782 20.21472284603943  14.0025939187758 20.222949643862993  14.0025939187758 20.231176998628815  C 14.0025939187758 20.645390559893034  14.338380356402705 20.981176996621024  14.7525939187758 20.981176996621024  C 15.142645429147308 20.981176996621024  15.467587787079331 20.682202439088982  15.5 20.293499945673098  L 16.25 7.543499979805602  Z M 11.75 7.499999979922054  C 11.75 7.085786418657833  11.414213562373096 6.749999981929849  11 6.749999981929849  C 10.585786437626904 6.749999981929849  10.25 7.085786418657833  10.25 7.499999979922054  L 10.25 20.249999945789547  C 10.25 20.664213507053766  10.585786437626904 20.999999943781752  11 20.999999943781752  C 11.414213562373096 20.999999943781752  11.75 20.664213507053766  11.75 20.249999945789547  L 11.75 7.499999979922054  Z " fill-rule="nonzero" fill="rgba(0, 0, 0, 1)" stroke="none" class="fill" />
    <path d="M 13.25 0  C 14.492640687119284 0  15.5 1.0073593101839542  15.5 2.2499999939766164  L 15.5 3.749999989961027  L 20.75 3.749999989961027  C 21.164213562373096 3.749999989961027  21.5 4.085786426689012  21.5 4.499999987953233  C 21.5 4.914213549217453  21.164213562373096 5.249999985945438  20.75 5.249999985945438  L 19.942999999999998 5.249999985945438  L 18.6635 21.23999994313926  C 18.538378108776477 22.799011082745395  17.236524018727685 24.00032077145007  15.6725 23.999999935750573  L 6.3275 23.999999935750573  C 4.763475981272314 24.00032077145007  3.46162189122352 22.799011082745395  3.3365 21.23999994313926  L 2.0569999999999995 5.249999985945438  L 1.25 5.249999985945438  C 0.8357864376269052 5.249999985945438  0.5 4.914213549217453  0.5 4.499999987953233  C 0.5 4.085786426689012  0.8357864376269052 3.749999989961027  1.25 3.749999989961027  L 6.5 3.749999989961027  L 6.5 2.2499999939766164  C 6.5 1.0073593101839542  7.507359312880716 0  8.75 0  L 13.25 0  Z " stroke-width="0" stroke-dasharray="0" stroke="rgba(255, 255, 255, 0)" fill="none" class="stroke" mask="url(#Clip6457)" />
    <path d="M 8.75 1.4999999959844108  C 8.335786437626904 1.4999999959844108  8 1.8357864327123956  8 2.2499999939766164  L 8 3.749999989961027  L 14 3.749999989961027  L 14 2.2499999939766164  C 14 1.8357864327123956  13.664213562373096 1.4999999959844108  13.25 1.4999999959844108  L 8.75 1.4999999959844108  Z " stroke-width="0" stroke-dasharray="0" stroke="rgba(255, 255, 255, 0)" fill="none" class="stroke" mask="url(#Clip6457)" />
    <path d="M 5.747604333947166 7.483602067953806  C 5.747604333947166 7.503591986344899  5.748403527498501 7.523573913639691  5.75 7.543499979805602  L 6.5 20.293499945673098  C 6.51615491158353 20.69567871475508  6.8468925675124765 21.013397855758022  7.249395666052834 21.013397855758022  C 7.66360922842593 21.013397855758022  7.999395666052835 20.67761141903004  7.999395666052835 20.263397857765817  C 7.999395666052835 20.243407939374713  7.998596472501502 20.22342601207995  7.997 20.20349994591403  L 7.247000000000001 7.453499980046536  C 7.230845088416473 7.051321210964552  6.900107432487526 6.733602069961601  6.497604333947167 6.733602069961601  C 6.083390771574072 6.733602069961601  5.747604333947166 7.069388506689585  5.747604333947166 7.483602067953806  Z " stroke-width="0" stroke-dasharray="0" stroke="rgba(255, 255, 255, 0)" fill="none" class="stroke" mask="url(#Clip6457)" />
    <path d="M 16.25 7.543499979805602  C 16.27389062912287 7.130161368556308  15.958323430929532 6.77565183621581  15.545000000000002 6.751499981925832  C 15.131661387644176 6.727609352866917  14.777151854354635 7.043176550215464  14.753 7.456499980038505  L 14.002999999999998 20.206499945905996  C 14.002729297508782 20.21472284603943  14.0025939187758 20.222949643862993  14.0025939187758 20.231176998628815  C 14.0025939187758 20.645390559893034  14.338380356402705 20.981176996621024  14.7525939187758 20.981176996621024  C 15.142645429147308 20.981176996621024  15.467587787079331 20.682202439088982  15.5 20.293499945673098  L 16.25 7.543499979805602  Z " stroke-width="0" stroke-dasharray="0" stroke="rgba(255, 255, 255, 0)" fill="none" class="stroke" mask="url(#Clip6457)" />
    <path d="M 11.75 7.499999979922054  C 11.75 7.085786418657833  11.414213562373096 6.749999981929849  11 6.749999981929849  C 10.585786437626904 6.749999981929849  10.25 7.085786418657833  10.25 7.499999979922054  L 10.25 20.249999945789547  C 10.25 20.664213507053766  10.585786437626904 20.999999943781752  11 20.999999943781752  C 11.414213562373096 20.999999943781752  11.75 20.664213507053766  11.75 20.249999945789547  L 11.75 7.499999979922054  Z " stroke-width="0" stroke-dasharray="0" stroke="rgba(255, 255, 255, 0)" fill="none" class="stroke" mask="url(#Clip6457)" />
  </g>
</svg>