<?xml version="1.0" encoding="utf-8"?>
<svg version="1.1" xmlns:xlink="http://www.w3.org/1999/xlink" width="16px" height="16px" xmlns="http://www.w3.org/2000/svg">
  <defs>
    <pattern id="BGPattern" patternUnits="userSpaceOnUse" alignment="0 0" imageRepeat="None" />
    <mask fill="white" id="Clip3572">
      <path d="M 16 1.4000000000000004  L 14.600000000000001 0  L 8 6.6  L 1.4000000000000004 0  L 0 1.4000000000000004  L 6.6 8  L 0 14.600000000000001  L 1.4000000000000004 16  L 8 9.399999999999999  L 14.600000000000001 16  L 16 14.600000000000001  L 9.399999999999999 8  L 16 1.4000000000000004  Z " fill-rule="evenodd" />
    </mask>
  </defs>
  <g transform="matrix(1 0 0 1 -8 -8 )">
    <path d="M 16 1.4000000000000004  L 14.600000000000001 0  L 8 6.6  L 1.4000000000000004 0  L 0 1.4000000000000004  L 6.6 8  L 0 14.600000000000001  L 1.4000000000000004 16  L 8 9.399999999999999  L 14.600000000000001 16  L 16 14.600000000000001  L 9.399999999999999 8  L 16 1.4000000000000004  Z " fill-rule="nonzero" fill="rgba(35, 31, 32, 1)" stroke="none" transform="matrix(1 0 0 1 8 8 )" class="fill" />
    <path d="M 16 1.4000000000000004  L 14.600000000000001 0  L 8 6.6  L 1.4000000000000004 0  L 0 1.4000000000000004  L 6.6 8  L 0 14.600000000000001  L 1.4000000000000004 16  L 8 9.399999999999999  L 14.600000000000001 16  L 16 14.600000000000001  L 9.399999999999999 8  L 16 1.4000000000000004  Z " stroke-width="0" stroke-dasharray="0" stroke="rgba(255, 255, 255, 0)" fill="none" transform="matrix(1 0 0 1 8 8 )" class="stroke" mask="url(#Clip3572)" />
  </g>
</svg>