<?xml version="1.0" encoding="utf-8"?>
<svg version="1.1" xmlns:xlink="http://www.w3.org/1999/xlink" width="50px" height="50px" xmlns="http://www.w3.org/2000/svg">
  <defs>
    <pattern id="BGPattern" patternUnits="userSpaceOnUse" alignment="0 0" imageRepeat="None" />
    <mask fill="white" id="Clip666">
      <path d="M 50 3.5714285714285836  C 50 1.6071428571428612  48.39285714285714 0  46.428571428571445 0  L 3.571428571428569 0  C 1.6071428571428612 0  0 1.6071428571428612  0 3.5714285714285836  L 0 46.428571428571445  C 0 48.39285714285717  1.6071428571428612 50  3.571428571428569 50  L 46.428571428571445 50  C 48.39285714285714 50  50 48.39285714285717  50 46.428571428571445  L 50 3.5714285714285836  Z M 39.274553571428584 28.727678571428555  L 39.28571428571428 28.727678571428555  C 39.28571428571428 34.241071428571445  38.01339285714286 37.946428571428555  27.70089285714286 37.946428571428555  L 25.81473214285714 37.946428571428555  C 20.89285714285714 37.946428571428555  18.85044642857143 36.28348214285717  17.957589285714278 33.616071428571445  L 17.85714285714286 33.616071428571445  L 17.85714285714286 37.5  L 11 37.5  L 11 11.607142857142861  L 17.85714285714286 11.607142857142861  L 17.85714285714286 19.944196428571416  L 17.979910714285708 19.944196428571416  C 18.49330357142857 16.540178571428555  22.410714285714292 15.61383928571428  25.75892857142857 15.61383928571428  L 27.68973214285714 15.61383928571428  C 38.00223214285714 15.61383928571428  39.274553571428584 19.308035714285722  39.274553571428584 24.821428571428555  L 39.274553571428584 28.727678571428555  Z M 27.857142857142865 21.741071428571445  C 31.763392857142865 21.71875  32.14285714285714 23.08035714285714  32.14285714285714 25.50223214285714  L 32.14285714285714 28.058035714285722  C 32.14285714285714 30.479910714285722  31.763392857142865 31.830357142857167  27.857142857142865 31.830357142857167  L 22.801339285714292 31.830357142857167  C 19.57589285714286 31.830357142857167  17.879464285714292 31.104910714285722  17.879464285714292 27.845982142857167  L 17.879464285714292 25.72544642857145  C 17.879464285714292 22.45535714285714  19.57589285714286 21.741071428571445  22.801339285714292 21.741071428571445  L 27.857142857142865 21.741071428571445  Z " fill-rule="evenodd" />
    </mask>
  </defs>
  <g>
    <path d="M 50 3.5714285714285836  C 50 1.6071428571428612  48.39285714285714 0  46.428571428571445 0  L 3.571428571428569 0  C 1.6071428571428612 0  0 1.6071428571428612  0 3.5714285714285836  L 0 46.428571428571445  C 0 48.39285714285717  1.6071428571428612 50  3.571428571428569 50  L 46.428571428571445 50  C 48.39285714285714 50  50 48.39285714285717  50 46.428571428571445  L 50 3.5714285714285836  Z M 39.274553571428584 28.727678571428555  L 39.28571428571428 28.727678571428555  C 39.28571428571428 34.241071428571445  38.01339285714286 37.946428571428555  27.70089285714286 37.946428571428555  L 25.81473214285714 37.946428571428555  C 20.89285714285714 37.946428571428555  18.85044642857143 36.28348214285717  17.957589285714278 33.616071428571445  L 17.85714285714286 33.616071428571445  L 17.85714285714286 37.5  L 11 37.5  L 11 11.607142857142861  L 17.85714285714286 11.607142857142861  L 17.85714285714286 19.944196428571416  L 17.979910714285708 19.944196428571416  C 18.49330357142857 16.540178571428555  22.410714285714292 15.61383928571428  25.75892857142857 15.61383928571428  L 27.68973214285714 15.61383928571428  C 38.00223214285714 15.61383928571428  39.274553571428584 19.308035714285722  39.274553571428584 24.821428571428555  L 39.274553571428584 28.727678571428555  Z M 27.857142857142865 21.741071428571445  C 31.763392857142865 21.71875  32.14285714285714 23.08035714285714  32.14285714285714 25.50223214285714  L 32.14285714285714 28.058035714285722  C 32.14285714285714 30.479910714285722  31.763392857142865 31.830357142857167  27.857142857142865 31.830357142857167  L 22.801339285714292 31.830357142857167  C 19.57589285714286 31.830357142857167  17.879464285714292 31.104910714285722  17.879464285714292 27.845982142857167  L 17.879464285714292 25.72544642857145  C 17.879464285714292 22.45535714285714  19.57589285714286 21.741071428571445  22.801339285714292 21.741071428571445  L 27.857142857142865 21.741071428571445  Z " fill-rule="nonzero" fill="rgba(0, 0, 0, 1)" stroke="none" class="fill" />
    <path d="M 50 3.5714285714285836  C 50 1.6071428571428612  48.39285714285714 0  46.428571428571445 0  L 3.571428571428569 0  C 1.6071428571428612 0  0 1.6071428571428612  0 3.5714285714285836  L 0 46.428571428571445  C 0 48.39285714285717  1.6071428571428612 50  3.571428571428569 50  L 46.428571428571445 50  C 48.39285714285714 50  50 48.39285714285717  50 46.428571428571445  L 50 3.5714285714285836  Z " stroke-width="0" stroke-dasharray="0" stroke="rgba(255, 255, 255, 0)" fill="none" class="stroke" mask="url(#Clip666)" />
    <path d="M 39.274553571428584 28.727678571428555  L 39.28571428571428 28.727678571428555  C 39.28571428571428 34.241071428571445  38.01339285714286 37.946428571428555  27.70089285714286 37.946428571428555  L 25.81473214285714 37.946428571428555  C 20.89285714285714 37.946428571428555  18.85044642857143 36.28348214285717  17.957589285714278 33.616071428571445  L 17.85714285714286 33.616071428571445  L 17.85714285714286 37.5  L 11 37.5  L 11 11.607142857142861  L 17.85714285714286 11.607142857142861  L 17.85714285714286 19.944196428571416  L 17.979910714285708 19.944196428571416  C 18.49330357142857 16.540178571428555  22.410714285714292 15.61383928571428  25.75892857142857 15.61383928571428  L 27.68973214285714 15.61383928571428  C 38.00223214285714 15.61383928571428  39.274553571428584 19.308035714285722  39.274553571428584 24.821428571428555  L 39.274553571428584 28.727678571428555  Z " stroke-width="0" stroke-dasharray="0" stroke="rgba(255, 255, 255, 0)" fill="none" class="stroke" mask="url(#Clip666)" />
    <path d="M 27.857142857142865 21.741071428571445  C 31.763392857142865 21.71875  32.14285714285714 23.08035714285714  32.14285714285714 25.50223214285714  L 32.14285714285714 28.058035714285722  C 32.14285714285714 30.479910714285722  31.763392857142865 31.830357142857167  27.857142857142865 31.830357142857167  L 22.801339285714292 31.830357142857167  C 19.57589285714286 31.830357142857167  17.879464285714292 31.104910714285722  17.879464285714292 27.845982142857167  L 17.879464285714292 25.72544642857145  C 17.879464285714292 22.45535714285714  19.57589285714286 21.741071428571445  22.801339285714292 21.741071428571445  L 27.857142857142865 21.741071428571445  Z " stroke-width="0" stroke-dasharray="0" stroke="rgba(255, 255, 255, 0)" fill="none" class="stroke" mask="url(#Clip666)" />
  </g>
</svg>