<?xml version="1.0" encoding="utf-8"?>
<svg version="1.1" xmlns:xlink="http://www.w3.org/1999/xlink" width="46px" height="6px" xmlns="http://www.w3.org/2000/svg">
  <defs>
    <pattern id="BGPattern" patternUnits="userSpaceOnUse" alignment="0 0" imageRepeat="None" />
    <mask fill="white" id="Clip2662">
      <path d="M 46 1.125  C 46 0.8500000000000014  45.775 0.625  45.5 0.625  L 0.5 0.625  C 0.22499999999999964 0.625  0 0.8500000000000014  0 1.125  L 0 4.875  C 0 5.149999999999999  0.22499999999999964 5.375  0.5 5.375  L 45.5 5.375  C 45.775 5.375  46 5.149999999999999  46 4.875  L 46 1.125  Z " fill-rule="evenodd" />
    </mask>
  </defs>
  <g>
    <path d="M 46 1.125  C 46 0.8500000000000014  45.775 0.625  45.5 0.625  L 0.5 0.625  C 0.22499999999999964 0.625  0 0.8500000000000014  0 1.125  L 0 4.875  C 0 5.149999999999999  0.22499999999999964 5.375  0.5 5.375  L 45.5 5.375  C 45.775 5.375  46 5.149999999999999  46 4.875  L 46 1.125  Z " fill-rule="nonzero" fill="rgba(0, 0, 0, 1)" stroke="none" class="fill" />
    <path d="M 46 1.125  C 46 0.8500000000000014  45.775 0.625  45.5 0.625  L 0.5 0.625  C 0.22499999999999964 0.625  0 0.8500000000000014  0 1.125  L 0 4.875  C 0 5.149999999999999  0.22499999999999964 5.375  0.5 5.375  L 45.5 5.375  C 45.775 5.375  46 5.149999999999999  46 4.875  L 46 1.125  Z " stroke-width="0" stroke-dasharray="0" stroke="rgba(255, 255, 255, 0)" fill="none" class="stroke" mask="url(#Clip2662)" />
  </g>
</svg>