<?xml version="1.0" encoding="utf-8"?>
<svg version="1.1" xmlns:xlink="http://www.w3.org/1999/xlink" width="48px" height="45px" xmlns="http://www.w3.org/2000/svg">
  <defs>
    <pattern id="BGPattern" patternUnits="userSpaceOnUse" alignment="0 0" imageRepeat="None" />
    <mask fill="white" id="Clip7052">
      <path d="M 47.27339716718882 0  L 47.267440321228435 0  L 47.10859109561841 0.07743899748488714  C 47.10859109561841 0.07743899748488714  38.048228389886596 4.400123549397696  30.740171204165378 5.3432908264572205  C 27.058840400653047 5.819838503287295  21.695693420994573 6.298371795437497  16.91135330715263 6.574372324934917  C 14.760270043683537 6.706746679609937  12.606539293120946 6.7841856770948255  10.450161055464855 6.806689317389578  C 9.155514468924778 6.855786672463081  7.859122851197678 6.7826568888989875  6.578211181220491 6.588271632175793  C 4.961120031863887 6.203054361289702  3.36955496178936 5.717627014916971  1.812734412919737 5.134801217844062  L 1.3163305828884087 4.936239685831531  L 1.9993822530115164 7.2633808410183995  L 0.17261615849622736 8.867758019679654  L 0.669019988527556 9.735471914574417  L 1.5426907293826941 9.800997220138553  L 3.6275868155142743 10.06111282707497  L 3.9452852667343246 11.083704716939506  L 5.2061509950139 11.19688479018665  L 5.841547897454 13.335392489961611  L 6.024224506905529 13.347306181882361  C 6.024224506905529 13.347306181882361  8.6809778052332 13.575651943696775  9.522878700966332 13.575651943696775  C 10.247628292812072 13.575651943696775  11.369500948682873 13.494241715571636  11.65145832414067 13.476371177690512  L 11.699113091823676 14.262674844460134  L 12.268984688699643 14.369898071746903  L 12.268984688699643 14.995366897586376  L 10.68049243259939 16.405153774875345  L 10.990248422538938 16.460751003838855  C 10.712262277721395 16.480607157040108  10.539513744870492 16.49649207960111  9.997440762476284 16.52031946344262  C 9.201387504549349 16.565956381421206  8.403077042909189 16.554011586483945  7.608745532365528 16.484578387680358  C 7.143321447067555 16.403975772521573  6.674115994751359 16.3469818898956  6.202929885716806 16.31381547014958  L 6.089749812469664 16.31381547014958  L 5.847504743414376 16.571945461765875  L 5.756166438688612 17.457529894541764  L 6.054008736707409 17.457529894541764  L 6.163217579314303 19.66354851520099  L 11.987027313241848 19.43917398402683  L 11.579976172616158 26.75020959272824  L 11.540263866213653 27.439218108811723  L 7.092485549132948 27.188037770815868  L 7.052773242730441 25.676984512200505  L 8.121034284957862 25.676984512200505  L 8.234214358205005 24.843026077747872  L 9.155539866743151 24.632550853814593  L 9.598332083131096 24.01303887393549  L 5.406698142346557 23.000375060671583  L 2.021224021532896 24.005096412654993  L 2.9445351453911672 24.775515156863612  L 3.274147288531969 24.775515156863612  L 3.323787671535102 25.43871067378547  L 4.304681639677008 25.49430790274898  L 4.304681639677008 27.009332392004595  L 3.09147067908044 27.32107399726427  L 3.46873758990425 28.123262586594894  L 3.677227198517408 28.258284428363414  L 3.677227198517408 29.896417067466793  L 4.358293253320391 29.896417067466793  L 4.358293253320391 36.441005162599836  L 3.2344349821294633 36.61176808013062  L 3.4329965141419954 39.08783038432688  L 4.09619203106385 39.1990248422539  L 3.986983188456958 43.84933592198738  L 7.5670476106429 43.91486122755152  L 6.9237082469222955 39.340996337642856  L 10.859197811410668 39.24171557163658  L 10.58319728191325 41.400079424612805  L 10.08679345188192 43.449234434982124  L 15.265278206768738 43.51475974054627  L 15.318889820412124 38.98755681066054  L 17.94387327361779 38.75126858756564  L 17.80090897056877 41.31866919648767  L 17.675815205400873 43.28442836341173  L 20.92229625380576 43.28442836341173  L 20.817058641839118 38.7175131271235  L 21.16652693818117 38.771124740766886  L 21.299563164629568 36.007148215152455  L 20.817058641839118 36.007148215152455  L 20.70189295327185 35.33203900630985  L 20.441777346335435 32.77059524334819  L 20.5410581123417 30.062215946697258  L 21.12681463177867 30.062215946697258  L 21.12681463177867 27.72018267660945  L 20.40405065525305 27.773794290252834  L 20.483475268058065 26.173388342231828  L 21.339275471032074 26.08800688346644  L 21.382959008074828 25.39304152142258  L 21.724484843136388 25.343401138419445  L 22.737148656400294 24.570996778890706  L 19.109429466531346 23.82639103384371  L 15.716012884437184 24.578939240171202  L 16.2819132506729 25.510192825309975  L 16.75647531218285 25.47048051890747  L 16.863698539469617 25.46253805762697  L 16.931209460353877 26.340180029122358  L 17.745311741605256 26.300467722719848  L 17.753254202885756 27.638772448484314  L 14.723205224374528 27.569275912279927  L 14.828442836341171 25.82789127653002  L 14.945594140228565 23.98921149009398  L 14.945594140228565 21.575696068481662  L 15.044874906234831 19.29223845033755  L 21.96474429687155 18.938798923355243  L 30.21696156731236 18.462251246525167  L 30.282486872876497 19.80055597228963  L 29.984644574857697 23.67250584653399  L 29.8595508096898 27.034152583506145  L 27.23853858712438 26.988483431143266  L 27.226624895203635 24.967127035255693  L 28.36636808895556 24.92542911353306  L 28.421965317919074 24.184794599126317  L 28.958081454352907 24.103384371001184  L 28.9342540705114 23.990204297754037  L 29.2320963685302 23.970348144552784  L 29.80792481136654 23.199929400344164  L 25.816838017914655 22.264704584565138  L 21.87142037682566 23.110576710938524  L 22.383709129417987 24.004103604994913  L 22.661695274235534 23.98424745179366  L 22.661695274235534 24.156995984644574  L 23.15015664298636 24.156995984644574  L 23.15015664298636 24.951242112694704  L 24.190619070732026 24.9671270352557  L 24.178705378811273 26.666813749282973  L 23.1253364514848 26.666813749282973  L 23.097537837003046 27.669549485946256  L 23.468847901866475 27.713233022989012  L 23.427149980143845 29.655164806071568  L 24.209482416273218 29.694877112474074  L 24.122115342187705 36.87287649472709  L 23.08165291444204 37.08732294930063  L 23.113422759564045 37.92723822971363  L 23.4628910559061 37.92723822971363  L 23.4628910559061 39.883069320037066  L 24.036733883422315 39.883069320037066  L 23.89774081101354 42.27573578078807  L 23.67535189515951 44.88483431143273  L 27.98413713983144 44.99801438467988  L 27.84712968274279 42.670873229493004  L 27.573114768565496 40.983100207386485  L 27.529431231522736 39.805630322552176  L 30.160371530688778 39.75797555486916  L 30.07896130256364 41.74359087499448  L 30.06307638000264 44.38445925076115  L 32.11421700569209 44.54727970701143  L 34.596236155848736 44.44799894100516  L 35.654569121475525 44.13625733574548  L 35.1581652914442 42.627189692450244  L 35.052927679477556 40.64157437232493  L 34.894078453867536 39.483960640691876  L 37.34234214358205 39.39460795128623  L 37.22916207033491 40.86793451881922  L 37.217248378414155 43.87614172880907  L 38.682632484666634 44.01314918589772  L 39.93555575166571 43.98137934077571  L 40.76157172483784 43.723249349159424  L 40.390261659974406 40.89573313330098  L 40.29098089396814 39.18413272735296  L 40.787384723999466 39.13052111370958  L 40.79929841592022 37.35339540219742  L 40.95814764153024 37.31963994175529  L 40.904536027886856 36.465825354101405  L 40.302894585888886 36.465825354101405  L 40.20361381988262 35.41940608039536  L 40.157944667519736 30.074129638618007  L 40.598751268587556 30.062215946697258  L 40.598751268587556 28.275162158584475  L 40.78937033931959 28.302960773066232  L 40.78937033931959 27.387592110488463  L 40.126174822397736 27.33398049684508  L 40.13808851431849 25.674006089220313  L 41.269889246789916 25.574725323214047  L 41.20436394122578 24.85593257732868  L 41.720623924458366 24.814234655606047  L 41.67296915677535 24.58191766315138  L 42.82462604244803 24.006089220315044  L 38.74220094427039 23.18603009310329  L 35.007258527114665 23.94056391475091  L 35.46792128138374 24.798349733045047  L 35.91071349777168 24.75863742664254  L 35.938512112253434 24.91152980629219  L 36.34159202223887 24.91152980629219  L 36.36343379076025 25.757401932665573  L 37.4495653708688 25.745488240744823  L 37.51906190707319 27.28036888320169  L 34.201098707143785 27.256541499360186  L 33.78213387459735 24.3634999779376  L 33.43167277059524 22.72834576181441  L 33.14375854917707 19.811476856550325  L 33.29267969818647 18.33020782773684  L 40.931341834708554 17.748422538940122  L 40.95516921855006 15.13535277765521  L 41.35229228257512 15.036072011648947  L 41.30662313021224 14.281538190001328  L 40.83206106870229 14.007523275824033  L 40.75859330185765 14.007523275824033  L 40.049728632572915 14.106804041830298  L 38.475135683713546 14.337135418964834  C 37.401579667299124 14.493999029254734  36.32603803556458 14.63696333230376  35.24851078850991 14.766028328111904  L 34.869258262365975 14.80574063451441  L 34.84145964788422 14.4523011075321  L 33.28275162158585 13.638198826280723  L 33.294665313506606 13.09215461324626  L 33.83276706526057 13.076269690685258  L 33.87247937166307 11.741936195561049  C 34.05118475047435 11.730022503640296  34.567444733706935 11.69428142787804  35.40338878347969 11.618828045713279  C 36.310186584098716 11.55046945667381  37.21241993944485 11.43114395780364  38.10581123417025 11.261417288090724  C 39.291223580285056 10.983431143273178  40.98495344835195 10.70345938313551  40.98495344835195 10.70345938313551  L 41.13586021268147 10.679631999294006  L 41.945991263292605 8.47957022459516  L 43.54441159599348 8.014936239685834  L 43.675462207121754 7.649583020782775  L 47.20985747694481 6.672660283281122  L 47.81745576490316 6.176256453249794  L 46.403697656973925 3.0677756695936105  L 46.497021577019815 2.5991704540440366  L 47.18007324714292 2.24175969642148  L 47.769800997220145 0.4427922163879452  L 47.27339716718882 0  Z M 29.608370471693952 12.039778493579849  L 29.610356087014075 12.035807262939594  L 29.590499933812822 13.080240921325508  L 30.398645369103825 13.11399638176764  L 30.366875523981818 13.749393284207743  L 28.80022503640295 14.777942020032654  L 28.62946211887217 15.290230772624986  L 24.936217623439084 15.468936151436266  L 24.956073776640338 15.103582932533206  L 25.178462692494378 14.744186559590524  L 25.19831884569563 14.440387415611351  L 25.19831884569563 13.987667122622781  L 25.33135507214402 13.677911132683233  L 25.39290914706791 13.360212681463182  L 25.39290914706791 13.177536072011653  L 25.551758372677938 12.536182323611175  L 29.608370471693952 12.039778493579849  Z M 19.324868728764947 12.951175925517362  L 19.322883113444824 12.951175925517363  L 19.237501654679434 13.475378370030448  L 19.6346247187045 13.940012354939771  L 19.606826104222748 14.70844548382827  L 19.9562944005648 15.244561620262102  L 19.86297048051891 15.895843445263202  L 19.91261086352204 15.965339981467586  L 16.245179367250586 16.11227551515686  L 16.284891673653092 15.814433217138063  L 14.988284869611263 15.111525393813704  L 14.944601332568507 14.42648810837047  L 15.522415390724973 14.398689493888716  L 15.57801261968848 13.207320301813528  L 19.324868728764947 12.951175925517362  Z M 27.29711423906808 29.828906146582533  L 27.295128623747964 29.828906146582533  L 29.79303269646561 29.99172660283281  L 29.693751930459335 33.83984909323567  L 30.057119534042272 36.899682301548786  L 27.396395005074346 36.80635838150289  L 27.29711423906808 29.828906146582533  Z M 6.991219167806559 29.999669064113313  L 6.991219167806559 29.995697833473056  L 11.280148259277238 30.218086749327096  L 10.894938887172925 32.765631205047875  L 10.894938887172925 35.18609628028064  L 11.166968186030095 36.22457309270617  L 7.017032166968187 36.42313462471871  L 6.991219167806559 29.999669064113313  Z M 37.52501875303358 30.015553986674313  L 37.523033137713455 30.015553986674313  L 37.523033137713455 36.480717469002336  L 34.95960375943167 36.667365309094116  L 34.860322993425406 33.24615011251821  L 34.546595772845606 30.085050522878703  L 37.52501875303358 30.015553986674313  Z M 14.784759299298418 32.257313683095795  L 14.699377840533028 30.166460751003843  L 17.753254202885763 30.178374442924586  L 17.787009663327893 36.12727794202004  L 14.947579755548693 36.1789039403433  L 14.79667299121917 34.336252923267004  L 14.784759299298418 32.257313683095795  Z " fill-rule="evenodd" />
    </mask>
  </defs>
  <g>
    <path d="M 47.27339716718882 0  L 47.267440321228435 0  L 47.10859109561841 0.07743899748488714  C 47.10859109561841 0.07743899748488714  38.048228389886596 4.400123549397696  30.740171204165378 5.3432908264572205  C 27.058840400653047 5.819838503287295  21.695693420994573 6.298371795437497  16.91135330715263 6.574372324934917  C 14.760270043683537 6.706746679609937  12.606539293120946 6.7841856770948255  10.450161055464855 6.806689317389578  C 9.155514468924778 6.855786672463081  7.859122851197678 6.7826568888989875  6.578211181220491 6.588271632175793  C 4.961120031863887 6.203054361289702  3.36955496178936 5.717627014916971  1.812734412919737 5.134801217844062  L 1.3163305828884087 4.936239685831531  L 1.9993822530115164 7.2633808410183995  L 0.17261615849622736 8.867758019679654  L 0.669019988527556 9.735471914574417  L 1.5426907293826941 9.800997220138553  L 3.6275868155142743 10.06111282707497  L 3.9452852667343246 11.083704716939506  L 5.2061509950139 11.19688479018665  L 5.841547897454 13.335392489961611  L 6.024224506905529 13.347306181882361  C 6.024224506905529 13.347306181882361  8.6809778052332 13.575651943696775  9.522878700966332 13.575651943696775  C 10.247628292812072 13.575651943696775  11.369500948682873 13.494241715571636  11.65145832414067 13.476371177690512  L 11.699113091823676 14.262674844460134  L 12.268984688699643 14.369898071746903  L 12.268984688699643 14.995366897586376  L 10.68049243259939 16.405153774875345  L 10.990248422538938 16.460751003838855  C 10.712262277721395 16.480607157040108  10.539513744870492 16.49649207960111  9.997440762476284 16.52031946344262  C 9.201387504549349 16.565956381421206  8.403077042909189 16.554011586483945  7.608745532365528 16.484578387680358  C 7.143321447067555 16.403975772521573  6.674115994751359 16.3469818898956  6.202929885716806 16.31381547014958  L 6.089749812469664 16.31381547014958  L 5.847504743414376 16.571945461765875  L 5.756166438688612 17.457529894541764  L 6.054008736707409 17.457529894541764  L 6.163217579314303 19.66354851520099  L 11.987027313241848 19.43917398402683  L 11.579976172616158 26.75020959272824  L 11.540263866213653 27.439218108811723  L 7.092485549132948 27.188037770815868  L 7.052773242730441 25.676984512200505  L 8.121034284957862 25.676984512200505  L 8.234214358205005 24.843026077747872  L 9.155539866743151 24.632550853814593  L 9.598332083131096 24.01303887393549  L 5.406698142346557 23.000375060671583  L 2.021224021532896 24.005096412654993  L 2.9445351453911672 24.775515156863612  L 3.274147288531969 24.775515156863612  L 3.323787671535102 25.43871067378547  L 4.304681639677008 25.49430790274898  L 4.304681639677008 27.009332392004595  L 3.09147067908044 27.32107399726427  L 3.46873758990425 28.123262586594894  L 3.677227198517408 28.258284428363414  L 3.677227198517408 29.896417067466793  L 4.358293253320391 29.896417067466793  L 4.358293253320391 36.441005162599836  L 3.2344349821294633 36.61176808013062  L 3.4329965141419954 39.08783038432688  L 4.09619203106385 39.1990248422539  L 3.986983188456958 43.84933592198738  L 7.5670476106429 43.91486122755152  L 6.9237082469222955 39.340996337642856  L 10.859197811410668 39.24171557163658  L 10.58319728191325 41.400079424612805  L 10.08679345188192 43.449234434982124  L 15.265278206768738 43.51475974054627  L 15.318889820412124 38.98755681066054  L 17.94387327361779 38.75126858756564  L 17.80090897056877 41.31866919648767  L 17.675815205400873 43.28442836341173  L 20.92229625380576 43.28442836341173  L 20.817058641839118 38.7175131271235  L 21.16652693818117 38.771124740766886  L 21.299563164629568 36.007148215152455  L 20.817058641839118 36.007148215152455  L 20.70189295327185 35.33203900630985  L 20.441777346335435 32.77059524334819  L 20.5410581123417 30.062215946697258  L 21.12681463177867 30.062215946697258  L 21.12681463177867 27.72018267660945  L 20.40405065525305 27.773794290252834  L 20.483475268058065 26.173388342231828  L 21.339275471032074 26.08800688346644  L 21.382959008074828 25.39304152142258  L 21.724484843136388 25.343401138419445  L 22.737148656400294 24.570996778890706  L 19.109429466531346 23.82639103384371  L 15.716012884437184 24.578939240171202  L 16.2819132506729 25.510192825309975  L 16.75647531218285 25.47048051890747  L 16.863698539469617 25.46253805762697  L 16.931209460353877 26.340180029122358  L 17.745311741605256 26.300467722719848  L 17.753254202885756 27.638772448484314  L 14.723205224374528 27.569275912279927  L 14.828442836341171 25.82789127653002  L 14.945594140228565 23.98921149009398  L 14.945594140228565 21.575696068481662  L 15.044874906234831 19.29223845033755  L 21.96474429687155 18.938798923355243  L 30.21696156731236 18.462251246525167  L 30.282486872876497 19.80055597228963  L 29.984644574857697 23.67250584653399  L 29.8595508096898 27.034152583506145  L 27.23853858712438 26.988483431143266  L 27.226624895203635 24.967127035255693  L 28.36636808895556 24.92542911353306  L 28.421965317919074 24.184794599126317  L 28.958081454352907 24.103384371001184  L 28.9342540705114 23.990204297754037  L 29.2320963685302 23.970348144552784  L 29.80792481136654 23.199929400344164  L 25.816838017914655 22.264704584565138  L 21.87142037682566 23.110576710938524  L 22.383709129417987 24.004103604994913  L 22.661695274235534 23.98424745179366  L 22.661695274235534 24.156995984644574  L 23.15015664298636 24.156995984644574  L 23.15015664298636 24.951242112694704  L 24.190619070732026 24.9671270352557  L 24.178705378811273 26.666813749282973  L 23.1253364514848 26.666813749282973  L 23.097537837003046 27.669549485946256  L 23.468847901866475 27.713233022989012  L 23.427149980143845 29.655164806071568  L 24.209482416273218 29.694877112474074  L 24.122115342187705 36.87287649472709  L 23.08165291444204 37.08732294930063  L 23.113422759564045 37.92723822971363  L 23.4628910559061 37.92723822971363  L 23.4628910559061 39.883069320037066  L 24.036733883422315 39.883069320037066  L 23.89774081101354 42.27573578078807  L 23.67535189515951 44.88483431143273  L 27.98413713983144 44.99801438467988  L 27.84712968274279 42.670873229493004  L 27.573114768565496 40.983100207386485  L 27.529431231522736 39.805630322552176  L 30.160371530688778 39.75797555486916  L 30.07896130256364 41.74359087499448  L 30.06307638000264 44.38445925076115  L 32.11421700569209 44.54727970701143  L 34.596236155848736 44.44799894100516  L 35.654569121475525 44.13625733574548  L 35.1581652914442 42.627189692450244  L 35.052927679477556 40.64157437232493  L 34.894078453867536 39.483960640691876  L 37.34234214358205 39.39460795128623  L 37.22916207033491 40.86793451881922  L 37.217248378414155 43.87614172880907  L 38.682632484666634 44.01314918589772  L 39.93555575166571 43.98137934077571  L 40.76157172483784 43.723249349159424  L 40.390261659974406 40.89573313330098  L 40.29098089396814 39.18413272735296  L 40.787384723999466 39.13052111370958  L 40.79929841592022 37.35339540219742  L 40.95814764153024 37.31963994175529  L 40.904536027886856 36.465825354101405  L 40.302894585888886 36.465825354101405  L 40.20361381988262 35.41940608039536  L 40.157944667519736 30.074129638618007  L 40.598751268587556 30.062215946697258  L 40.598751268587556 28.275162158584475  L 40.78937033931959 28.302960773066232  L 40.78937033931959 27.387592110488463  L 40.126174822397736 27.33398049684508  L 40.13808851431849 25.674006089220313  L 41.269889246789916 25.574725323214047  L 41.20436394122578 24.85593257732868  L 41.720623924458366 24.814234655606047  L 41.67296915677535 24.58191766315138  L 42.82462604244803 24.006089220315044  L 38.74220094427039 23.18603009310329  L 35.007258527114665 23.94056391475091  L 35.46792128138374 24.798349733045047  L 35.91071349777168 24.75863742664254  L 35.938512112253434 24.91152980629219  L 36.34159202223887 24.91152980629219  L 36.36343379076025 25.757401932665573  L 37.4495653708688 25.745488240744823  L 37.51906190707319 27.28036888320169  L 34.201098707143785 27.256541499360186  L 33.78213387459735 24.3634999779376  L 33.43167277059524 22.72834576181441  L 33.14375854917707 19.811476856550325  L 33.29267969818647 18.33020782773684  L 40.931341834708554 17.748422538940122  L 40.95516921855006 15.13535277765521  L 41.35229228257512 15.036072011648947  L 41.30662313021224 14.281538190001328  L 40.83206106870229 14.007523275824033  L 40.75859330185765 14.007523275824033  L 40.049728632572915 14.106804041830298  L 38.475135683713546 14.337135418964834  C 37.401579667299124 14.493999029254734  36.32603803556458 14.63696333230376  35.24851078850991 14.766028328111904  L 34.869258262365975 14.80574063451441  L 34.84145964788422 14.4523011075321  L 33.28275162158585 13.638198826280723  L 33.294665313506606 13.09215461324626  L 33.83276706526057 13.076269690685258  L 33.87247937166307 11.741936195561049  C 34.05118475047435 11.730022503640296  34.567444733706935 11.69428142787804  35.40338878347969 11.618828045713279  C 36.310186584098716 11.55046945667381  37.21241993944485 11.43114395780364  38.10581123417025 11.261417288090724  C 39.291223580285056 10.983431143273178  40.98495344835195 10.70345938313551  40.98495344835195 10.70345938313551  L 41.13586021268147 10.679631999294006  L 41.945991263292605 8.47957022459516  L 43.54441159599348 8.014936239685834  L 43.675462207121754 7.649583020782775  L 47.20985747694481 6.672660283281122  L 47.81745576490316 6.176256453249794  L 46.403697656973925 3.0677756695936105  L 46.497021577019815 2.5991704540440366  L 47.18007324714292 2.24175969642148  L 47.769800997220145 0.4427922163879452  L 47.27339716718882 0  Z M 29.608370471693952 12.039778493579849  L 29.610356087014075 12.035807262939594  L 29.590499933812822 13.080240921325508  L 30.398645369103825 13.11399638176764  L 30.366875523981818 13.749393284207743  L 28.80022503640295 14.777942020032654  L 28.62946211887217 15.290230772624986  L 24.936217623439084 15.468936151436266  L 24.956073776640338 15.103582932533206  L 25.178462692494378 14.744186559590524  L 25.19831884569563 14.440387415611351  L 25.19831884569563 13.987667122622781  L 25.33135507214402 13.677911132683233  L 25.39290914706791 13.360212681463182  L 25.39290914706791 13.177536072011653  L 25.551758372677938 12.536182323611175  L 29.608370471693952 12.039778493579849  Z M 19.324868728764947 12.951175925517362  L 19.322883113444824 12.951175925517363  L 19.237501654679434 13.475378370030448  L 19.6346247187045 13.940012354939771  L 19.606826104222748 14.70844548382827  L 19.9562944005648 15.244561620262102  L 19.86297048051891 15.895843445263202  L 19.91261086352204 15.965339981467586  L 16.245179367250586 16.11227551515686  L 16.284891673653092 15.814433217138063  L 14.988284869611263 15.111525393813704  L 14.944601332568507 14.42648810837047  L 15.522415390724973 14.398689493888716  L 15.57801261968848 13.207320301813528  L 19.324868728764947 12.951175925517362  Z M 27.29711423906808 29.828906146582533  L 27.295128623747964 29.828906146582533  L 29.79303269646561 29.99172660283281  L 29.693751930459335 33.83984909323567  L 30.057119534042272 36.899682301548786  L 27.396395005074346 36.80635838150289  L 27.29711423906808 29.828906146582533  Z M 6.991219167806559 29.999669064113313  L 6.991219167806559 29.995697833473056  L 11.280148259277238 30.218086749327096  L 10.894938887172925 32.765631205047875  L 10.894938887172925 35.18609628028064  L 11.166968186030095 36.22457309270617  L 7.017032166968187 36.42313462471871  L 6.991219167806559 29.999669064113313  Z M 37.52501875303358 30.015553986674313  L 37.523033137713455 30.015553986674313  L 37.523033137713455 36.480717469002336  L 34.95960375943167 36.667365309094116  L 34.860322993425406 33.24615011251821  L 34.546595772845606 30.085050522878703  L 37.52501875303358 30.015553986674313  Z M 14.784759299298418 32.257313683095795  L 14.699377840533028 30.166460751003843  L 17.753254202885763 30.178374442924586  L 17.787009663327893 36.12727794202004  L 14.947579755548693 36.1789039403433  L 14.79667299121917 34.336252923267004  L 14.784759299298418 32.257313683095795  Z " fill-rule="nonzero" fill="rgba(180, 23, 23, 1)" stroke="none" class="fill" />
    <path d="M 47.27339716718882 0  L 47.267440321228435 0  L 47.10859109561841 0.07743899748488714  C 47.10859109561841 0.07743899748488714  38.048228389886596 4.400123549397696  30.740171204165378 5.3432908264572205  C 27.058840400653047 5.819838503287295  21.695693420994573 6.298371795437497  16.91135330715263 6.574372324934917  C 14.760270043683537 6.706746679609937  12.606539293120946 6.7841856770948255  10.450161055464855 6.806689317389578  C 9.155514468924778 6.855786672463081  7.859122851197678 6.7826568888989875  6.578211181220491 6.588271632175793  C 4.961120031863887 6.203054361289702  3.36955496178936 5.717627014916971  1.812734412919737 5.134801217844062  L 1.3163305828884087 4.936239685831531  L 1.9993822530115164 7.2633808410183995  L 0.17261615849622736 8.867758019679654  L 0.669019988527556 9.735471914574417  L 1.5426907293826941 9.800997220138553  L 3.6275868155142743 10.06111282707497  L 3.9452852667343246 11.083704716939506  L 5.2061509950139 11.19688479018665  L 5.841547897454 13.335392489961611  L 6.024224506905529 13.347306181882361  C 6.024224506905529 13.347306181882361  8.6809778052332 13.575651943696775  9.522878700966332 13.575651943696775  C 10.247628292812072 13.575651943696775  11.369500948682873 13.494241715571636  11.65145832414067 13.476371177690512  L 11.699113091823676 14.262674844460134  L 12.268984688699643 14.369898071746903  L 12.268984688699643 14.995366897586376  L 10.68049243259939 16.405153774875345  L 10.990248422538938 16.460751003838855  C 10.712262277721395 16.480607157040108  10.539513744870492 16.49649207960111  9.997440762476284 16.52031946344262  C 9.201387504549349 16.565956381421206  8.403077042909189 16.554011586483945  7.608745532365528 16.484578387680358  C 7.143321447067555 16.403975772521573  6.674115994751359 16.3469818898956  6.202929885716806 16.31381547014958  L 6.089749812469664 16.31381547014958  L 5.847504743414376 16.571945461765875  L 5.756166438688612 17.457529894541764  L 6.054008736707409 17.457529894541764  L 6.163217579314303 19.66354851520099  L 11.987027313241848 19.43917398402683  L 11.579976172616158 26.75020959272824  L 11.540263866213653 27.439218108811723  L 7.092485549132948 27.188037770815868  L 7.052773242730441 25.676984512200505  L 8.121034284957862 25.676984512200505  L 8.234214358205005 24.843026077747872  L 9.155539866743151 24.632550853814593  L 9.598332083131096 24.01303887393549  L 5.406698142346557 23.000375060671583  L 2.021224021532896 24.005096412654993  L 2.9445351453911672 24.775515156863612  L 3.274147288531969 24.775515156863612  L 3.323787671535102 25.43871067378547  L 4.304681639677008 25.49430790274898  L 4.304681639677008 27.009332392004595  L 3.09147067908044 27.32107399726427  L 3.46873758990425 28.123262586594894  L 3.677227198517408 28.258284428363414  L 3.677227198517408 29.896417067466793  L 4.358293253320391 29.896417067466793  L 4.358293253320391 36.441005162599836  L 3.2344349821294633 36.61176808013062  L 3.4329965141419954 39.08783038432688  L 4.09619203106385 39.1990248422539  L 3.986983188456958 43.84933592198738  L 7.5670476106429 43.91486122755152  L 6.9237082469222955 39.340996337642856  L 10.859197811410668 39.24171557163658  L 10.58319728191325 41.400079424612805  L 10.08679345188192 43.449234434982124  L 15.265278206768738 43.51475974054627  L 15.318889820412124 38.98755681066054  L 17.94387327361779 38.75126858756564  L 17.80090897056877 41.31866919648767  L 17.675815205400873 43.28442836341173  L 20.92229625380576 43.28442836341173  L 20.817058641839118 38.7175131271235  L 21.16652693818117 38.771124740766886  L 21.299563164629568 36.007148215152455  L 20.817058641839118 36.007148215152455  L 20.70189295327185 35.33203900630985  L 20.441777346335435 32.77059524334819  L 20.5410581123417 30.062215946697258  L 21.12681463177867 30.062215946697258  L 21.12681463177867 27.72018267660945  L 20.40405065525305 27.773794290252834  L 20.483475268058065 26.173388342231828  L 21.339275471032074 26.08800688346644  L 21.382959008074828 25.39304152142258  L 21.724484843136388 25.343401138419445  L 22.737148656400294 24.570996778890706  L 19.109429466531346 23.82639103384371  L 15.716012884437184 24.578939240171202  L 16.2819132506729 25.510192825309975  L 16.75647531218285 25.47048051890747  L 16.863698539469617 25.46253805762697  L 16.931209460353877 26.340180029122358  L 17.745311741605256 26.300467722719848  L 17.753254202885756 27.638772448484314  L 14.723205224374528 27.569275912279927  L 14.828442836341171 25.82789127653002  L 14.945594140228565 23.98921149009398  L 14.945594140228565 21.575696068481662  L 15.044874906234831 19.29223845033755  L 21.96474429687155 18.938798923355243  L 30.21696156731236 18.462251246525167  L 30.282486872876497 19.80055597228963  L 29.984644574857697 23.67250584653399  L 29.8595508096898 27.034152583506145  L 27.23853858712438 26.988483431143266  L 27.226624895203635 24.967127035255693  L 28.36636808895556 24.92542911353306  L 28.421965317919074 24.184794599126317  L 28.958081454352907 24.103384371001184  L 28.9342540705114 23.990204297754037  L 29.2320963685302 23.970348144552784  L 29.80792481136654 23.199929400344164  L 25.816838017914655 22.264704584565138  L 21.87142037682566 23.110576710938524  L 22.383709129417987 24.004103604994913  L 22.661695274235534 23.98424745179366  L 22.661695274235534 24.156995984644574  L 23.15015664298636 24.156995984644574  L 23.15015664298636 24.951242112694704  L 24.190619070732026 24.9671270352557  L 24.178705378811273 26.666813749282973  L 23.1253364514848 26.666813749282973  L 23.097537837003046 27.669549485946256  L 23.468847901866475 27.713233022989012  L 23.427149980143845 29.655164806071568  L 24.209482416273218 29.694877112474074  L 24.122115342187705 36.87287649472709  L 23.08165291444204 37.08732294930063  L 23.113422759564045 37.92723822971363  L 23.4628910559061 37.92723822971363  L 23.4628910559061 39.883069320037066  L 24.036733883422315 39.883069320037066  L 23.89774081101354 42.27573578078807  L 23.67535189515951 44.88483431143273  L 27.98413713983144 44.99801438467988  L 27.84712968274279 42.670873229493004  L 27.573114768565496 40.983100207386485  L 27.529431231522736 39.805630322552176  L 30.160371530688778 39.75797555486916  L 30.07896130256364 41.74359087499448  L 30.06307638000264 44.38445925076115  L 32.11421700569209 44.54727970701143  L 34.596236155848736 44.44799894100516  L 35.654569121475525 44.13625733574548  L 35.1581652914442 42.627189692450244  L 35.052927679477556 40.64157437232493  L 34.894078453867536 39.483960640691876  L 37.34234214358205 39.39460795128623  L 37.22916207033491 40.86793451881922  L 37.217248378414155 43.87614172880907  L 38.682632484666634 44.01314918589772  L 39.93555575166571 43.98137934077571  L 40.76157172483784 43.723249349159424  L 40.390261659974406 40.89573313330098  L 40.29098089396814 39.18413272735296  L 40.787384723999466 39.13052111370958  L 40.79929841592022 37.35339540219742  L 40.95814764153024 37.31963994175529  L 40.904536027886856 36.465825354101405  L 40.302894585888886 36.465825354101405  L 40.20361381988262 35.41940608039536  L 40.157944667519736 30.074129638618007  L 40.598751268587556 30.062215946697258  L 40.598751268587556 28.275162158584475  L 40.78937033931959 28.302960773066232  L 40.78937033931959 27.387592110488463  L 40.126174822397736 27.33398049684508  L 40.13808851431849 25.674006089220313  L 41.269889246789916 25.574725323214047  L 41.20436394122578 24.85593257732868  L 41.720623924458366 24.814234655606047  L 41.67296915677535 24.58191766315138  L 42.82462604244803 24.006089220315044  L 38.74220094427039 23.18603009310329  L 35.007258527114665 23.94056391475091  L 35.46792128138374 24.798349733045047  L 35.91071349777168 24.75863742664254  L 35.938512112253434 24.91152980629219  L 36.34159202223887 24.91152980629219  L 36.36343379076025 25.757401932665573  L 37.4495653708688 25.745488240744823  L 37.51906190707319 27.28036888320169  L 34.201098707143785 27.256541499360186  L 33.78213387459735 24.3634999779376  L 33.43167277059524 22.72834576181441  L 33.14375854917707 19.811476856550325  L 33.29267969818647 18.33020782773684  L 40.931341834708554 17.748422538940122  L 40.95516921855006 15.13535277765521  L 41.35229228257512 15.036072011648947  L 41.30662313021224 14.281538190001328  L 40.83206106870229 14.007523275824033  L 40.75859330185765 14.007523275824033  L 40.049728632572915 14.106804041830298  L 38.475135683713546 14.337135418964834  C 37.401579667299124 14.493999029254734  36.32603803556458 14.63696333230376  35.24851078850991 14.766028328111904  L 34.869258262365975 14.80574063451441  L 34.84145964788422 14.4523011075321  L 33.28275162158585 13.638198826280723  L 33.294665313506606 13.09215461324626  L 33.83276706526057 13.076269690685258  L 33.87247937166307 11.741936195561049  C 34.05118475047435 11.730022503640296  34.567444733706935 11.69428142787804  35.40338878347969 11.618828045713279  C 36.310186584098716 11.55046945667381  37.21241993944485 11.43114395780364  38.10581123417025 11.261417288090724  C 39.291223580285056 10.983431143273178  40.98495344835195 10.70345938313551  40.98495344835195 10.70345938313551  L 41.13586021268147 10.679631999294006  L 41.945991263292605 8.47957022459516  L 43.54441159599348 8.014936239685834  L 43.675462207121754 7.649583020782775  L 47.20985747694481 6.672660283281122  L 47.81745576490316 6.176256453249794  L 46.403697656973925 3.0677756695936105  L 46.497021577019815 2.5991704540440366  L 47.18007324714292 2.24175969642148  L 47.769800997220145 0.4427922163879452  L 47.27339716718882 0  Z " stroke-width="0" stroke-dasharray="0" stroke="rgba(255, 255, 255, 0)" fill="none" class="stroke" mask="url(#Clip7052)" />
    <path d="M 29.608370471693952 12.039778493579849  L 29.610356087014075 12.035807262939594  L 29.590499933812822 13.080240921325508  L 30.398645369103825 13.11399638176764  L 30.366875523981818 13.749393284207743  L 28.80022503640295 14.777942020032654  L 28.62946211887217 15.290230772624986  L 24.936217623439084 15.468936151436266  L 24.956073776640338 15.103582932533206  L 25.178462692494378 14.744186559590524  L 25.19831884569563 14.440387415611351  L 25.19831884569563 13.987667122622781  L 25.33135507214402 13.677911132683233  L 25.39290914706791 13.360212681463182  L 25.39290914706791 13.177536072011653  L 25.551758372677938 12.536182323611175  L 29.608370471693952 12.039778493579849  Z " stroke-width="0" stroke-dasharray="0" stroke="rgba(255, 255, 255, 0)" fill="none" class="stroke" mask="url(#Clip7052)" />
    <path d="M 19.324868728764947 12.951175925517362  L 19.322883113444824 12.951175925517363  L 19.237501654679434 13.475378370030448  L 19.6346247187045 13.940012354939771  L 19.606826104222748 14.70844548382827  L 19.9562944005648 15.244561620262102  L 19.86297048051891 15.895843445263202  L 19.91261086352204 15.965339981467586  L 16.245179367250586 16.11227551515686  L 16.284891673653092 15.814433217138063  L 14.988284869611263 15.111525393813704  L 14.944601332568507 14.42648810837047  L 15.522415390724973 14.398689493888716  L 15.57801261968848 13.207320301813528  L 19.324868728764947 12.951175925517362  Z " stroke-width="0" stroke-dasharray="0" stroke="rgba(255, 255, 255, 0)" fill="none" class="stroke" mask="url(#Clip7052)" />
    <path d="M 27.29711423906808 29.828906146582533  L 27.295128623747964 29.828906146582533  L 29.79303269646561 29.99172660283281  L 29.693751930459335 33.83984909323567  L 30.057119534042272 36.899682301548786  L 27.396395005074346 36.80635838150289  L 27.29711423906808 29.828906146582533  Z " stroke-width="0" stroke-dasharray="0" stroke="rgba(255, 255, 255, 0)" fill="none" class="stroke" mask="url(#Clip7052)" />
    <path d="M 6.991219167806559 29.999669064113313  L 6.991219167806559 29.995697833473056  L 11.280148259277238 30.218086749327096  L 10.894938887172925 32.765631205047875  L 10.894938887172925 35.18609628028064  L 11.166968186030095 36.22457309270617  L 7.017032166968187 36.42313462471871  L 6.991219167806559 29.999669064113313  Z " stroke-width="0" stroke-dasharray="0" stroke="rgba(255, 255, 255, 0)" fill="none" class="stroke" mask="url(#Clip7052)" />
    <path d="M 37.52501875303358 30.015553986674313  L 37.523033137713455 30.015553986674313  L 37.523033137713455 36.480717469002336  L 34.95960375943167 36.667365309094116  L 34.860322993425406 33.24615011251821  L 34.546595772845606 30.085050522878703  L 37.52501875303358 30.015553986674313  Z " stroke-width="0" stroke-dasharray="0" stroke="rgba(255, 255, 255, 0)" fill="none" class="stroke" mask="url(#Clip7052)" />
    <path d="M 14.784759299298418 32.257313683095795  L 14.699377840533028 30.166460751003843  L 17.753254202885763 30.178374442924586  L 17.787009663327893 36.12727794202004  L 14.947579755548693 36.1789039403433  L 14.79667299121917 34.336252923267004  L 14.784759299298418 32.257313683095795  Z " stroke-width="0" stroke-dasharray="0" stroke="rgba(255, 255, 255, 0)" fill="none" class="stroke" mask="url(#Clip7052)" />
  </g>
</svg>