<?xml version="1.0" encoding="utf-8"?>
<svg version="1.1" xmlns:xlink="http://www.w3.org/1999/xlink" width="50px" height="50px" xmlns="http://www.w3.org/2000/svg">
  <defs>
    <pattern id="BGPattern" patternUnits="userSpaceOnUse" alignment="0 0" imageRepeat="None" />
    <mask fill="white" id="Clip716">
      <path d="M 0 25  C 0 11.602822580645181  10.554435483870975 0  24.95967741935482 0  C 39.25403225806451 0  50 11.098790322580669  50 25  C 50 39.82862903225805  38.054435483870975 50  24.95967741935482 50  C 11.451612903225794 50  0 38.961693548387075  0 25  Z M 45.48387096774195 25  C 45.49395161290323 13.528225806451587  36.39112903225805 4.506048387096769  25.04032258064518 4.506048387096769  C 13.125 4.506048387096769  4.506048387096769 14.374999999999998  4.506048387096769 25  C 4.506048387096769 36.06854838709677  13.699596774193537 45.44354838709677  25.04032258064518 45.44354838709677  C 35.44354838709677 45.44354838709677  45.48387096774195 37.268145161290306  45.48387096774195 25  Z M 11.925403225806463 21.471774193548356  L 13.88104838709677 21.471774193548413  C 15.191532258064514 13.014112903225794  21.995967741935488 11.824596774193537  24.85887096774195 11.824596774193537  C 34.919354838709694 11.824596774193537  37.711693548387075 20.14112903225805  37.711693548387075 25.352822580645178  C 37.711693548387075 31.764112903225794  33.57862903225805 38.75  24.7177419354839 38.75  C 20.79637096774195 38.75  14.727822580645181 36.73387096774195  13.689516129032256 28.97177419354841  L 19.98991935483872 28.97177419354841  C 20.14112903225805 32.00604838709677  21.965725806451587 33.52822580645159  25.48387096774195 33.52822580645159  C 27.832661290322562 33.52822580645159  31.330645161290306 31.69354838709677  31.330645161290306 25.18145161290323  C 31.330645161290306 16.86491935483872  26.38104838709677 17.05645161290323  25.614919354838715 17.05645161290323  C 22.278225806451644 17.05645161290323  20.403225806451644 18.528225806451587  19.98991935483872 21.471774193548356  L 21.824596774193537 21.471774193548356  L 16.86491935483872 26.431451612903235  L 11.925403225806463 21.471774193548356  Z " fill-rule="evenodd" />
    </mask>
  </defs>
  <g>
    <path d="M 0 25  C 0 11.602822580645181  10.554435483870975 0  24.95967741935482 0  C 39.25403225806451 0  50 11.098790322580669  50 25  C 50 39.82862903225805  38.054435483870975 50  24.95967741935482 50  C 11.451612903225794 50  0 38.961693548387075  0 25  Z M 45.48387096774195 25  C 45.49395161290323 13.528225806451587  36.39112903225805 4.506048387096769  25.04032258064518 4.506048387096769  C 13.125 4.506048387096769  4.506048387096769 14.374999999999998  4.506048387096769 25  C 4.506048387096769 36.06854838709677  13.699596774193537 45.44354838709677  25.04032258064518 45.44354838709677  C 35.44354838709677 45.44354838709677  45.48387096774195 37.268145161290306  45.48387096774195 25  Z M 11.925403225806463 21.471774193548356  L 13.88104838709677 21.471774193548413  C 15.191532258064514 13.014112903225794  21.995967741935488 11.824596774193537  24.85887096774195 11.824596774193537  C 34.919354838709694 11.824596774193537  37.711693548387075 20.14112903225805  37.711693548387075 25.352822580645178  C 37.711693548387075 31.764112903225794  33.57862903225805 38.75  24.7177419354839 38.75  C 20.79637096774195 38.75  14.727822580645181 36.73387096774195  13.689516129032256 28.97177419354841  L 19.98991935483872 28.97177419354841  C 20.14112903225805 32.00604838709677  21.965725806451587 33.52822580645159  25.48387096774195 33.52822580645159  C 27.832661290322562 33.52822580645159  31.330645161290306 31.69354838709677  31.330645161290306 25.18145161290323  C 31.330645161290306 16.86491935483872  26.38104838709677 17.05645161290323  25.614919354838715 17.05645161290323  C 22.278225806451644 17.05645161290323  20.403225806451644 18.528225806451587  19.98991935483872 21.471774193548356  L 21.824596774193537 21.471774193548356  L 16.86491935483872 26.431451612903235  L 11.925403225806463 21.471774193548356  Z " fill-rule="nonzero" fill="rgba(0, 0, 0, 1)" stroke="none" class="fill" />
    <path d="M 0 25  C 0 11.602822580645181  10.554435483870975 0  24.95967741935482 0  C 39.25403225806451 0  50 11.098790322580669  50 25  C 50 39.82862903225805  38.054435483870975 50  24.95967741935482 50  C 11.451612903225794 50  0 38.961693548387075  0 25  Z " stroke-width="0" stroke-dasharray="0" stroke="rgba(255, 255, 255, 0)" fill="none" class="stroke" mask="url(#Clip716)" />
    <path d="M 45.48387096774195 25  C 45.49395161290323 13.528225806451587  36.39112903225805 4.506048387096769  25.04032258064518 4.506048387096769  C 13.125 4.506048387096769  4.506048387096769 14.374999999999998  4.506048387096769 25  C 4.506048387096769 36.06854838709677  13.699596774193537 45.44354838709677  25.04032258064518 45.44354838709677  C 35.44354838709677 45.44354838709677  45.48387096774195 37.268145161290306  45.48387096774195 25  Z " stroke-width="0" stroke-dasharray="0" stroke="rgba(255, 255, 255, 0)" fill="none" class="stroke" mask="url(#Clip716)" />
    <path d="M 11.925403225806463 21.471774193548356  L 13.88104838709677 21.471774193548413  C 15.191532258064514 13.014112903225794  21.995967741935488 11.824596774193537  24.85887096774195 11.824596774193537  C 34.919354838709694 11.824596774193537  37.711693548387075 20.14112903225805  37.711693548387075 25.352822580645178  C 37.711693548387075 31.764112903225794  33.57862903225805 38.75  24.7177419354839 38.75  C 20.79637096774195 38.75  14.727822580645181 36.73387096774195  13.689516129032256 28.97177419354841  L 19.98991935483872 28.97177419354841  C 20.14112903225805 32.00604838709677  21.965725806451587 33.52822580645159  25.48387096774195 33.52822580645159  C 27.832661290322562 33.52822580645159  31.330645161290306 31.69354838709677  31.330645161290306 25.18145161290323  C 31.330645161290306 16.86491935483872  26.38104838709677 17.05645161290323  25.614919354838715 17.05645161290323  C 22.278225806451644 17.05645161290323  20.403225806451644 18.528225806451587  19.98991935483872 21.471774193548356  L 21.824596774193537 21.471774193548356  L 16.86491935483872 26.431451612903235  L 11.925403225806463 21.471774193548356  Z " stroke-width="0" stroke-dasharray="0" stroke="rgba(255, 255, 255, 0)" fill="none" class="stroke" mask="url(#Clip716)" />
  </g>
</svg>