<?xml version="1.0" encoding="utf-8"?>
<svg version="1.1" xmlns:xlink="http://www.w3.org/1999/xlink" width="24px" height="24px" xmlns="http://www.w3.org/2000/svg">
  <defs>
    <pattern id="BGPattern" patternUnits="userSpaceOnUse" alignment="0 0" imageRepeat="None" />
    <mask fill="white" id="Clip4696">
      <path d="M 21 0  L 3 0  C 1.3431457505076196 0  0 1.3431457505076196  0 3  L 0 21  C 0 22.65685424949238  1.3431457505076196 24  3 24  L 21 24  C 22.65685424949238 24  24 22.65685424949238  24 21  L 24 3  C 24 1.3431457505076196  22.65685424949238 0  21 0  Z M 9.037500000000001 13.902000000000001  L 15.1815 7.757999999999999  C 15.322827278951108 7.611673068839252  15.517533190991571 7.529033845704429  15.72096615429557 7.529033845704429  C 16.135179716668667 7.529033845704429  16.47096615429557 7.864820283331334  16.47096615429557 8.27903384570443  C 16.47096615429557 8.482466809008429  16.388326931160748 8.67717272104889  16.242 8.8185  L 10.098 14.962499999999999  L 14.25 14.962499999999999  C 14.664213562373096 14.962499999999999  15 15.298286437626905  15 15.712499999999999  C 15 16.126713562373094  14.664213562373096 16.4625  14.25 16.4625  L 8.287500000000001 16.4625  C 7.873286437626906 16.4625  7.5375000000000005 16.126713562373094  7.5375000000000005 15.712499999999999  L 7.5375000000000005 9.75  C 7.5375000000000005 9.335786437626904  7.873286437626906 9  8.287500000000001 9  C 8.701713562373095 9  9.037500000000001 9.335786437626904  9.037500000000001 9.75  L 9.037500000000001 13.902000000000001  Z " fill-rule="evenodd" />
    </mask>
  </defs>
  <g>
    <path d="M 21 0  L 3 0  C 1.3431457505076196 0  0 1.3431457505076196  0 3  L 0 21  C 0 22.65685424949238  1.3431457505076196 24  3 24  L 21 24  C 22.65685424949238 24  24 22.65685424949238  24 21  L 24 3  C 24 1.3431457505076196  22.65685424949238 0  21 0  Z M 9.037500000000001 13.902000000000001  L 15.1815 7.757999999999999  C 15.322827278951108 7.611673068839252  15.517533190991571 7.529033845704429  15.72096615429557 7.529033845704429  C 16.135179716668667 7.529033845704429  16.47096615429557 7.864820283331334  16.47096615429557 8.27903384570443  C 16.47096615429557 8.482466809008429  16.388326931160748 8.67717272104889  16.242 8.8185  L 10.098 14.962499999999999  L 14.25 14.962499999999999  C 14.664213562373096 14.962499999999999  15 15.298286437626905  15 15.712499999999999  C 15 16.126713562373094  14.664213562373096 16.4625  14.25 16.4625  L 8.287500000000001 16.4625  C 7.873286437626906 16.4625  7.5375000000000005 16.126713562373094  7.5375000000000005 15.712499999999999  L 7.5375000000000005 9.75  C 7.5375000000000005 9.335786437626904  7.873286437626906 9  8.287500000000001 9  C 8.701713562373095 9  9.037500000000001 9.335786437626904  9.037500000000001 9.75  L 9.037500000000001 13.902000000000001  Z " fill-rule="nonzero" fill="rgba(0, 0, 0, 1)" stroke="none" class="fill" />
    <path d="M 21 0  L 3 0  C 1.3431457505076196 0  0 1.3431457505076196  0 3  L 0 21  C 0 22.65685424949238  1.3431457505076196 24  3 24  L 21 24  C 22.65685424949238 24  24 22.65685424949238  24 21  L 24 3  C 24 1.3431457505076196  22.65685424949238 0  21 0  Z " stroke-width="0" stroke-dasharray="0" stroke="rgba(255, 255, 255, 0)" fill="none" class="stroke" mask="url(#Clip4696)" />
    <path d="M 9.037500000000001 13.902000000000001  L 15.1815 7.757999999999999  C 15.322827278951108 7.611673068839252  15.517533190991571 7.529033845704429  15.72096615429557 7.529033845704429  C 16.135179716668667 7.529033845704429  16.47096615429557 7.864820283331334  16.47096615429557 8.27903384570443  C 16.47096615429557 8.482466809008429  16.388326931160748 8.67717272104889  16.242 8.8185  L 10.098 14.962499999999999  L 14.25 14.962499999999999  C 14.664213562373096 14.962499999999999  15 15.298286437626905  15 15.712499999999999  C 15 16.126713562373094  14.664213562373096 16.4625  14.25 16.4625  L 8.287500000000001 16.4625  C 7.873286437626906 16.4625  7.5375000000000005 16.126713562373094  7.5375000000000005 15.712499999999999  L 7.5375000000000005 9.75  C 7.5375000000000005 9.335786437626904  7.873286437626906 9  8.287500000000001 9  C 8.701713562373095 9  9.037500000000001 9.335786437626904  9.037500000000001 9.75  L 9.037500000000001 13.902000000000001  Z " stroke-width="0" stroke-dasharray="0" stroke="rgba(255, 255, 255, 0)" fill="none" class="stroke" mask="url(#Clip4696)" />
  </g>
</svg>