<?xml version="1.0" encoding="utf-8"?>
<svg version="1.1" xmlns:xlink="http://www.w3.org/1999/xlink" width="49px" height="50px" xmlns="http://www.w3.org/2000/svg">
  <defs>
    <pattern id="BGPattern" patternUnits="userSpaceOnUse" alignment="0 0" imageRepeat="None" />
    <mask fill="white" id="Clip6673">
      <path d="M 9.296000000000005 43.814  C 9.246000000000004 43.788  9.228000000000005 43.826  9.266 43.858  C 13.466815443834008 47.12087672304244  18.63486351838975 48.89141171154766  23.954 48.89  C 30.006 48.89  35.524 46.644  39.734 42.954  C 39.786 42.910000000000004  39.762 42.88  39.712 42.910000000000004  C 37.822 44.17  32.43600000000001 46.926  23.954000000000004 46.926  C 16.584000000000003 46.926  11.926000000000004 45.282000000000004  9.296000000000005 43.814  Z M 47.828000000000024 23.639999999999993  C 46.956000000000024 28.319999999999993  32.03400000000002 34.54599999999999  19.14000000000001 34.54599999999999  C 6.880000000000011 34.54599999999999  1.100000000000012 28.83599999999999  0.05000000000001137 24.93799999999999  C 0.03800000000001137 24.88199999999999  0 24.89399999999999  0 24.94599999999999  C 0 26.255999999999993  0.13200000000001139 27.949999999999992  0.35800000000001136 29.07399999999999  C 0.46400000000001135 29.61999999999999  0.9100000000000115 30.477999999999987  1.5620000000000114 31.16399999999999  C 4.532000000000012 34.25799999999999  11.934000000000012 38.593999999999994  24.752000000000013 38.593999999999994  C 42.21600000000001 38.593999999999994  46.21000000000001 32.775999999999996  47.024000000000015 30.861999999999995  C 47.60800000000002 29.493999999999996  47.91000000000002 27.021999999999995  47.91000000000002 24.94599999999999  C 47.91000000000002 24.441999999999993  47.89800000000002 24.041999999999994  47.87800000000002 23.645999999999994  C 47.87800000000002 23.581999999999994  47.84200000000002 23.577999999999992  47.828000000000024 23.639999999999993  Z M 2.354000000000004 14.686000000000002  C 2.366000000000004 14.642000000000003  2.3280000000000043 14.634000000000004  2.31 14.672  C 1.6059999999999999 16.066000000000003  0.8300000000000001 18.42  0.596 19.636  C 0.496 20.156  0.5379999999999999 20.407999999999998  0.722 20.796  C 2.19 23.916  9.622 28.904  26.962000000000003 28.904  C 37.54 28.904  45.756 26.303999999999995  47.088 21.564  C 47.332 20.69  47.346000000000004 19.768  47.03 18.526  C 46.678000000000004 17.137999999999998  46.02 15.519999999999998  45.462 14.384  C 45.442 14.346000000000002  45.412000000000006 14.351999999999999  45.418000000000006 14.396000000000003  C 45.62400000000001 20.616  28.28 24.624000000000002  19.528000000000006 24.624000000000002  C 10.048000000000005 24.624000000000002  2.140000000000004 20.848000000000003  2.140000000000004 16.078000000000003  C 2.140000000000004 15.620000000000003  2.236000000000004 15.162000000000003  2.354000000000004 14.686000000000002  Z M 39.812000000000005 7.0040000000000076  C 39.77400000000001 6.974000000000007  39.748000000000005 6.998000000000006  39.774 7.036000000000005  C 39.874 7.194000000000004  39.926 7.362000000000004  39.926 7.5880000000000045  C 39.926 10.248000000000005  31.782000000000004 14.956000000000007  18.82 14.956000000000007  C 9.296000000000001 14.956000000000007  7.514000000000001 11.422000000000004  7.514000000000001 9.176000000000005  C 7.514000000000001 8.372000000000005  7.822000000000001 7.550000000000006  8.500000000000002 6.716000000000005  C 8.536000000000001 6.666000000000006  8.506000000000002 6.648000000000007  8.462000000000003 6.684000000000006  C 7.223069835413357 7.734302375131396  6.093949484970988 8.907649398054001  5.092000000000001 10.186000000000005  C 4.614000000000002 10.788000000000006  4.318000000000001 11.322000000000005  4.318000000000001 11.642000000000005  C 4.318000000000001 16.298000000000005  15.994000000000003 19.674000000000007  26.912000000000006 19.674000000000007  C 38.544000000000004 19.674000000000007  43.736000000000004 15.876000000000007  43.736000000000004 12.540000000000006  C 43.736000000000004 11.348000000000006  43.272000000000006 10.650000000000006  42.084 9.300000000000006  C 41.312000000000005 8.422000000000006  40.584 7.7080000000000055  39.812000000000005 7.0040000000000076  Z M 37.652 5.882000000000001  C 37.652 5.336  37.174 4.954000000000001  36.208000000000006 4.3760000000000066  C 32.507121554566694 2.1554325571586936  28.26993314713733 0.9880791979713603  23.954 0.9999999999999999  C 19.43 0.9999999999999999  15.134 2.266  11.532 4.476  C 10.452 5.14  9.842 5.6739999999999995  9.842 6.36  C 9.842 8.379999999999999  14.562000000000001 10.55  22.938000000000002 10.55  C 31.224000000000004 10.55  37.652 8.170000000000002  37.652 5.882000000000001  Z " fill-rule="evenodd" />
    </mask>
  </defs>
  <g>
    <path d="M 9.296000000000005 43.814  C 9.246000000000004 43.788  9.228000000000005 43.826  9.266 43.858  C 13.466815443834008 47.12087672304244  18.63486351838975 48.89141171154766  23.954 48.89  C 30.006 48.89  35.524 46.644  39.734 42.954  C 39.786 42.910000000000004  39.762 42.88  39.712 42.910000000000004  C 37.822 44.17  32.43600000000001 46.926  23.954000000000004 46.926  C 16.584000000000003 46.926  11.926000000000004 45.282000000000004  9.296000000000005 43.814  Z M 25.580000000000013 45.07999999999999  L 25.580000000000005 45.081999999999994  C 31.476000000000006 45.081999999999994  37.95400000000001 43.474  41.828 40.294  C 42.888000000000005 39.425999999999995  43.898 38.273999999999994  44.80200000000001 36.724  C 45.32200000000001 35.831999999999994  45.83200000000001 34.772  46.24600000000001 33.73  C 46.26600000000001 33.68  46.23400000000001 33.653999999999996  46.19600000000001 33.709999999999994  C 42.59200000000001 39.013999999999996  32.16000000000001 42.31999999999999  21.388000000000012 42.31999999999999  C 13.774000000000012 42.31999999999999  5.5800000000000125 39.885999999999996  2.372000000000014 35.23599999999999  C 2.340000000000014 35.19399999999999  2.3100000000000143 35.21199999999999  2.328000000000014 35.25999999999999  C 5.316000000000014 41.611999999999995  14.382000000000016 45.07999999999999  25.580000000000013 45.07999999999999  Z M 47.828000000000024 23.639999999999993  C 46.956000000000024 28.319999999999993  32.03400000000002 34.54599999999999  19.14000000000001 34.54599999999999  C 6.880000000000011 34.54599999999999  1.100000000000012 28.83599999999999  0.05000000000001137 24.93799999999999  C 0.03800000000001137 24.88199999999999  0 24.89399999999999  0 24.94599999999999  C 0 26.255999999999993  0.13200000000001139 27.949999999999992  0.35800000000001136 29.07399999999999  C 0.46400000000001135 29.61999999999999  0.9100000000000115 30.477999999999987  1.5620000000000114 31.16399999999999  C 4.532000000000012 34.25799999999999  11.934000000000012 38.593999999999994  24.752000000000013 38.593999999999994  C 42.21600000000001 38.593999999999994  46.21000000000001 32.775999999999996  47.024000000000015 30.861999999999995  C 47.60800000000002 29.493999999999996  47.91000000000002 27.021999999999995  47.91000000000002 24.94599999999999  C 47.91000000000002 24.441999999999993  47.89800000000002 24.041999999999994  47.87800000000002 23.645999999999994  C 47.87800000000002 23.581999999999994  47.84200000000002 23.577999999999992  47.828000000000024 23.639999999999993  Z M 2.354000000000004 14.686000000000002  C 2.366000000000004 14.642000000000003  2.3280000000000043 14.634000000000004  2.31 14.672  C 1.6059999999999999 16.066000000000003  0.8300000000000001 18.42  0.596 19.636  C 0.496 20.156  0.5379999999999999 20.407999999999998  0.722 20.796  C 2.19 23.916  9.622 28.904  26.962000000000003 28.904  C 37.54 28.904  45.756 26.303999999999995  47.088 21.564  C 47.332 20.69  47.346000000000004 19.768  47.03 18.526  C 46.678000000000004 17.137999999999998  46.02 15.519999999999998  45.462 14.384  C 45.442 14.346000000000002  45.412000000000006 14.351999999999999  45.418000000000006 14.396000000000003  C 45.62400000000001 20.616  28.28 24.624000000000002  19.528000000000006 24.624000000000002  C 10.048000000000005 24.624000000000002  2.140000000000004 20.848000000000003  2.140000000000004 16.078000000000003  C 2.140000000000004 15.620000000000003  2.236000000000004 15.162000000000003  2.354000000000004 14.686000000000002  Z M 39.812000000000005 7.0040000000000076  C 39.77400000000001 6.974000000000007  39.748000000000005 6.998000000000006  39.774 7.036000000000005  C 39.874 7.194000000000004  39.926 7.362000000000004  39.926 7.5880000000000045  C 39.926 10.248000000000005  31.782000000000004 14.956000000000007  18.82 14.956000000000007  C 9.296000000000001 14.956000000000007  7.514000000000001 11.422000000000004  7.514000000000001 9.176000000000005  C 7.514000000000001 8.372000000000005  7.822000000000001 7.550000000000006  8.500000000000002 6.716000000000005  C 8.536000000000001 6.666000000000006  8.506000000000002 6.648000000000007  8.462000000000003 6.684000000000006  C 7.223069835413357 7.734302375131396  6.093949484970988 8.907649398054001  5.092000000000001 10.186000000000005  C 4.614000000000002 10.788000000000006  4.318000000000001 11.322000000000005  4.318000000000001 11.642000000000005  C 4.318000000000001 16.298000000000005  15.994000000000003 19.674000000000007  26.912000000000006 19.674000000000007  C 38.544000000000004 19.674000000000007  43.736000000000004 15.876000000000007  43.736000000000004 12.540000000000006  C 43.736000000000004 11.348000000000006  43.272000000000006 10.650000000000006  42.084 9.300000000000006  C 41.312000000000005 8.422000000000006  40.584 7.7080000000000055  39.812000000000005 7.0040000000000076  Z M 37.652 5.882000000000001  C 37.652 5.336  37.174 4.954000000000001  36.208000000000006 4.3760000000000066  C 32.507121554566694 2.1554325571586936  28.26993314713733 0.9880791979713603  23.954 0.9999999999999999  C 19.43 0.9999999999999999  15.134 2.266  11.532 4.476  C 10.452 5.14  9.842 5.6739999999999995  9.842 6.36  C 9.842 8.379999999999999  14.562000000000001 10.55  22.938000000000002 10.55  C 31.224000000000004 10.55  37.652 8.170000000000002  37.652 5.882000000000001  Z " fill-rule="nonzero" fill="rgba(0, 168, 224, 1)" stroke="none" class="fill" />
    <path d="M 9.296000000000005 43.814  C 9.246000000000004 43.788  9.228000000000005 43.826  9.266 43.858  C 13.466815443834008 47.12087672304244  18.63486351838975 48.89141171154766  23.954 48.89  C 30.006 48.89  35.524 46.644  39.734 42.954  C 39.786 42.910000000000004  39.762 42.88  39.712 42.910000000000004  C 37.822 44.17  32.43600000000001 46.926  23.954000000000004 46.926  C 16.584000000000003 46.926  11.926000000000004 45.282000000000004  9.296000000000005 43.814  Z " stroke-width="0" stroke-dasharray="0" stroke="rgba(255, 255, 255, 0)" fill="none" class="stroke" mask="url(#Clip6673)" />
    <path d="M 47.828000000000024 23.639999999999993  C 46.956000000000024 28.319999999999993  32.03400000000002 34.54599999999999  19.14000000000001 34.54599999999999  C 6.880000000000011 34.54599999999999  1.100000000000012 28.83599999999999  0.05000000000001137 24.93799999999999  C 0.03800000000001137 24.88199999999999  0 24.89399999999999  0 24.94599999999999  C 0 26.255999999999993  0.13200000000001139 27.949999999999992  0.35800000000001136 29.07399999999999  C 0.46400000000001135 29.61999999999999  0.9100000000000115 30.477999999999987  1.5620000000000114 31.16399999999999  C 4.532000000000012 34.25799999999999  11.934000000000012 38.593999999999994  24.752000000000013 38.593999999999994  C 42.21600000000001 38.593999999999994  46.21000000000001 32.775999999999996  47.024000000000015 30.861999999999995  C 47.60800000000002 29.493999999999996  47.91000000000002 27.021999999999995  47.91000000000002 24.94599999999999  C 47.91000000000002 24.441999999999993  47.89800000000002 24.041999999999994  47.87800000000002 23.645999999999994  C 47.87800000000002 23.581999999999994  47.84200000000002 23.577999999999992  47.828000000000024 23.639999999999993  Z " stroke-width="0" stroke-dasharray="0" stroke="rgba(255, 255, 255, 0)" fill="none" class="stroke" mask="url(#Clip6673)" />
    <path d="M 2.354000000000004 14.686000000000002  C 2.366000000000004 14.642000000000003  2.3280000000000043 14.634000000000004  2.31 14.672  C 1.6059999999999999 16.066000000000003  0.8300000000000001 18.42  0.596 19.636  C 0.496 20.156  0.5379999999999999 20.407999999999998  0.722 20.796  C 2.19 23.916  9.622 28.904  26.962000000000003 28.904  C 37.54 28.904  45.756 26.303999999999995  47.088 21.564  C 47.332 20.69  47.346000000000004 19.768  47.03 18.526  C 46.678000000000004 17.137999999999998  46.02 15.519999999999998  45.462 14.384  C 45.442 14.346000000000002  45.412000000000006 14.351999999999999  45.418000000000006 14.396000000000003  C 45.62400000000001 20.616  28.28 24.624000000000002  19.528000000000006 24.624000000000002  C 10.048000000000005 24.624000000000002  2.140000000000004 20.848000000000003  2.140000000000004 16.078000000000003  C 2.140000000000004 15.620000000000003  2.236000000000004 15.162000000000003  2.354000000000004 14.686000000000002  Z " stroke-width="0" stroke-dasharray="0" stroke="rgba(255, 255, 255, 0)" fill="none" class="stroke" mask="url(#Clip6673)" />
    <path d="M 39.812000000000005 7.0040000000000076  C 39.77400000000001 6.974000000000007  39.748000000000005 6.998000000000006  39.774 7.036000000000005  C 39.874 7.194000000000004  39.926 7.362000000000004  39.926 7.5880000000000045  C 39.926 10.248000000000005  31.782000000000004 14.956000000000007  18.82 14.956000000000007  C 9.296000000000001 14.956000000000007  7.514000000000001 11.422000000000004  7.514000000000001 9.176000000000005  C 7.514000000000001 8.372000000000005  7.822000000000001 7.550000000000006  8.500000000000002 6.716000000000005  C 8.536000000000001 6.666000000000006  8.506000000000002 6.648000000000007  8.462000000000003 6.684000000000006  C 7.223069835413357 7.734302375131396  6.093949484970988 8.907649398054001  5.092000000000001 10.186000000000005  C 4.614000000000002 10.788000000000006  4.318000000000001 11.322000000000005  4.318000000000001 11.642000000000005  C 4.318000000000001 16.298000000000005  15.994000000000003 19.674000000000007  26.912000000000006 19.674000000000007  C 38.544000000000004 19.674000000000007  43.736000000000004 15.876000000000007  43.736000000000004 12.540000000000006  C 43.736000000000004 11.348000000000006  43.272000000000006 10.650000000000006  42.084 9.300000000000006  C 41.312000000000005 8.422000000000006  40.584 7.7080000000000055  39.812000000000005 7.0040000000000076  Z " stroke-width="0" stroke-dasharray="0" stroke="rgba(255, 255, 255, 0)" fill="none" class="stroke" mask="url(#Clip6673)" />
    <path d="M 37.652 5.882000000000001  C 37.652 5.336  37.174 4.954000000000001  36.208000000000006 4.3760000000000066  C 32.507121554566694 2.1554325571586936  28.26993314713733 0.9880791979713603  23.954 0.9999999999999999  C 19.43 0.9999999999999999  15.134 2.266  11.532 4.476  C 10.452 5.14  9.842 5.6739999999999995  9.842 6.36  C 9.842 8.379999999999999  14.562000000000001 10.55  22.938000000000002 10.55  C 31.224000000000004 10.55  37.652 8.170000000000002  37.652 5.882000000000001  Z " stroke-width="0" stroke-dasharray="0" stroke="rgba(255, 255, 255, 0)" fill="none" class="stroke" mask="url(#Clip6673)" />
    <path d="M 25.580000000000005 45.081999999999994  C 31.476000000000006 45.081999999999994  37.95400000000001 43.474  41.828 40.294  C 42.888000000000005 39.425999999999995  43.898 38.273999999999994  44.80200000000001 36.724  C 45.32200000000001 35.831999999999994  45.83200000000001 34.772  46.24600000000001 33.73  C 46.26600000000001 33.68  46.23400000000001 33.653999999999996  46.19600000000001 33.709999999999994  C 42.59200000000001 39.013999999999996  32.16000000000001 42.31999999999999  21.388000000000012 42.31999999999999  C 13.774000000000012 42.31999999999999  5.5800000000000125 39.885999999999996  2.372000000000014 35.23599999999999  C 2.340000000000014 35.19399999999999  2.3100000000000143 35.21199999999999  2.328000000000014 35.25999999999999  C 5.316000000000014 41.611999999999995  14.382000000000016 45.07999999999999  25.580000000000013 45.07999999999999  " stroke-width="0" stroke-dasharray="0" stroke="rgba(255, 255, 255, 0)" fill="none" class="stroke" />
  </g>
</svg>