<?xml version="1.0" encoding="utf-8"?>
<svg version="1.1" xmlns:xlink="http://www.w3.org/1999/xlink" width="48px" height="32px" xmlns="http://www.w3.org/2000/svg">
  <defs>
    <pattern id="BGPattern" patternUnits="userSpaceOnUse" alignment="0 0" imageRepeat="None" />
    <mask fill="white" id="Clip6826">
      <path d="M 37.646 5.312000000000001  L 37.648 5.3100000000000005  C 37.77066666666667 5.480666666666668  37.77066666666667 5.65066666666667  37.648 5.82  C 37.524 5.862666666666669  37.42133333333334 5.862666666666669  37.34 5.82  L 37.032000000000004 5.3740000000000006  L 36.294000000000004 5.184000000000001  C 36.171333333333344 5.056000000000001  36.171333333333344 4.886000000000003  36.294000000000004 4.674000000000001  C 36.41666666666667 4.503333333333334  36.58066666666667 4.439333333333334  36.786 4.482000000000001  C 37.15533333333334 4.695333333333334  37.44200000000001 4.972000000000001  37.646 5.312000000000001  Z M 46.382 14.046000000000003  C 46.46466666666667 14.003333333333337  46.54666666666667 13.982000000000006  46.628 13.982  C 46.669333333333334 14.108666666666668  46.69 14.21466666666667  46.69 14.3  L 46.382 14.746000000000002  L 46.382 14.046000000000003  Z M 34.816 4.228  L 35.864000000000004 4.481999999999999  L 36.17 4.991999999999999  C 36.006 5.289333333333333  35.842 5.480666666666668  35.678000000000004 5.565999999999999  L 35.49400000000001 5.8199999999999985  C 35.412666666666674 5.607999999999999  35.35133333333334 5.395999999999999  35.31000000000001 5.183999999999999  C 35.268666666666675 5.183999999999999  35.22733333333335 5.1626666666666665  35.18600000000001 5.119999999999999  L 34.940000000000005 5.373999999999999  L 33.834 5.119999999999999  C 33.67 4.906666666666666  33.71066666666667 4.673333333333332  33.956 4.42  C 34.20266666666667 4.1640000000000015  34.489333333333335 4.100000000000001  34.816 4.228  Z M 33.58600000000001 5.821999999999999  L 33.58800000000001 5.821999999999999  L 33.28000000000001 5.629999999999999  L 33.52600000000001 5.501999999999999  L 33.58600000000001 5.821999999999999  Z M 28.604000000000006 2.314  L 28.666000000000004 2.5700000000000003  L 28.29800000000001 3.016  L 27.92800000000001 2.5700000000000003  L 27.620000000000005 2.5060000000000002  L 28.604000000000006 2.314  Z M 47.859999999999985 12.132000000000005  L 47.85800000000001 12.132000000000005  C 48.02200000000002 12.260000000000005  48.042666666666676 12.578666666666674  47.92000000000001 13.088000000000005  L 47.55200000000001 14.172000000000004  L 47.24400000000001 14.554000000000006  L 47.18200000000001 13.790000000000006  C 47.18200000000001 13.61933333333334  47.162000000000006 13.470666666666673  47.12200000000001 13.344000000000005  C 47.122000000000014 13.216000000000008  47.100666666666676 13.088666666666672  47.05800000000001 12.962000000000003  L 46.25800000000001 13.342000000000002  C 46.299333333333344 13.428666666666672  46.32000000000001 13.535333333333337  46.32000000000001 13.662000000000003  C 46.36133333333334 13.790000000000003  46.402666666666676 13.875333333333337  46.44400000000001 13.918000000000003  L 45.58400000000001 13.982000000000003  L 45.64400000000001 14.236000000000004  L 45.82800000000001 14.428000000000004  L 45.52200000000001 15.128000000000004  C 45.48066666666668 15.510666666666673  45.378000000000014 15.724000000000007  45.21400000000001 15.768000000000004  L 44.96800000000001 15.384000000000004  L 44.22800000000001 15.574000000000005  C 44.06533333333334 15.404666666666671  43.98400000000001 15.256000000000004  43.98400000000001 15.128000000000004  L 43.79800000000001 14.874000000000002  L 44.10600000000001 14.492  C 44.024666666666675 14.321333333333335  43.94266666666668 14.236  43.86000000000001 14.236  L 43.55200000000001 14.364  L 43.24600000000001 15.128  C 42.95800000000001 15.128  42.77333333333334 15.17066666666667  42.69200000000001 15.256  L 43.06000000000001 15.766000000000002  L 44.35200000000001 16.466  L 44.41400000000001 16.914  C 44.57800000000002 16.95666666666667  44.701333333333345 17.020000000000003  44.784000000000006 17.104000000000003  C 44.90666666666667 17.189333333333337  44.988666666666674 17.253333333333337  45.03000000000001 17.296000000000003  C 44.988666666666674 17.381333333333338  44.94733333333335 17.488000000000007  44.906000000000006 17.616000000000003  C 44.86600000000001 17.700000000000006  44.784000000000006 17.784666666666674  44.660000000000004 17.870000000000005  L 44.106 18.252000000000006  L 44.168 18.762000000000008  C 43.84 18.89000000000001  43.55333333333334 19.10266666666668  43.308 19.40000000000001  L 43.122 20.10000000000001  C 42.67133333333334 20.10000000000001  42.38466666666667 20.142666666666678  42.262 20.22800000000001  L 42.322 21.186000000000007  L 42.138000000000005 21.122000000000007  C 41.974000000000004 20.866000000000007  41.81 20.802000000000007  41.64600000000001 20.930000000000007  L 41.89200000000001 21.758000000000006  C 41.76933333333335 21.758000000000006  41.66666666666668 21.77933333333334  41.58400000000001 21.822000000000006  L 41.46200000000001 21.950000000000006  L 41.70800000000001 22.396000000000008  C 41.74800000000002 22.566666666666677  41.768000000000015 22.694666666666677  41.768000000000015 22.78000000000001  C 41.52266666666668 22.99200000000001  41.276666666666685 23.118666666666677  41.030000000000015 23.160000000000007  C 40.82600000000002 23.204000000000008  40.66200000000002 23.353333333333342  40.53800000000002 23.608000000000008  L 40.600000000000016 24.372000000000007  C 40.477333333333355 24.670666666666676  40.374666666666684 24.86200000000001  40.292000000000016 24.946000000000005  C 39.88266666666669 24.946000000000005  39.575333333333354 24.988666666666674  39.37000000000002 25.074000000000005  L 39.00000000000002 25.774000000000008  L 38.694000000000024 25.64800000000001  C 38.528666666666695 25.60533333333335  38.40533333333336 25.60533333333335  38.32400000000003 25.64800000000001  L 38.078000000000024 26.15800000000001  C 37.70866666666669 26.158000000000015  37.44200000000002 26.24266666666668  37.27800000000003 26.412000000000006  L 36.78600000000003 26.860000000000007  L 36.91000000000003 26.28600000000001  C 37.0326666666667 25.946000000000012  36.9706666666667 25.75466666666668  36.72400000000003 25.71200000000001  L 36.47800000000003 25.902000000000008  L 36.41800000000003 26.22200000000001  L 35.80200000000003 26.604000000000006  L 35.742000000000026 27.30400000000001  L 34.572000000000024 27.30400000000001  L 34.32600000000002 27.75200000000001  C 34.243333333333354 28.006666666666675  34.038000000000025 28.198000000000008  33.71000000000002 28.326000000000008  C 33.382000000000026 28.452666666666673  32.80800000000002 28.516000000000005  31.98800000000002 28.516000000000005  C 31.16800000000002 28.516000000000005  30.655333333333353 28.558666666666674  30.450000000000024 28.644000000000005  C 30.24466666666669 28.644000000000005  30.060000000000024 28.750666666666675  29.896000000000022 28.964000000000006  C 29.773333333333355 29.176000000000002  29.630000000000024 29.324666666666673  29.466000000000022 29.410000000000004  L 28.48200000000002 29.728  L 28.17400000000002 30.302  L 27.74400000000002 30.622  C 27.538666666666693 30.748666666666665  27.21066666666669 30.811999999999998  26.76000000000002 30.811999999999998  L 26.14400000000002 31.131999999999998  L 25.222000000000016 31.512  L 24.54400000000002 31.450000000000003  C 24.29866666666669 31.322000000000003  24.01200000000002 31.258000000000003  23.68400000000002 31.258000000000003  L 22.57600000000002 31.258000000000003  L 22.206000000000017 31.002000000000002  L 21.468000000000018 31.130000000000003  L 21.10000000000002 31.64  L 20.54600000000002 31.258000000000003  L 20.11600000000002 30.812000000000005  L 19.13200000000002 30.748000000000005  L 18.762000000000018 30.428000000000004  L 19.316000000000017 29.728  L 20.054000000000016 28.708  L 20.054000000000016 28.007999999999996  L 20.914000000000016 27.049999999999997  L 20.914000000000016 25.965999999999994  C 20.914000000000016 25.625999999999998  20.976000000000017 25.328666666666663  21.100000000000016 25.07399999999999  L 21.776000000000014 25.26599999999999  C 21.940000000000015 25.09533333333333  22.022000000000013 24.96733333333333  22.022000000000013 24.88199999999999  C 21.77666666666668 24.669999999999995  21.551333333333346 24.39399999999999  21.346000000000014 24.053999999999988  L 20.730000000000015 23.16199999999999  L 19.992000000000015 22.20599999999999  L 19.500000000000014 21.31199999999999  L 18.946000000000016 20.41999999999999  L 18.516000000000016 19.33599999999999  L 17.594000000000015 18.315999999999992  L 14.210000000000015 13.34399999999999  L 13.594000000000015 12.259999999999991  L 12.980000000000015 11.047999999999991  L 12.488000000000014 10.72999999999999  C 12.11866666666668 10.263333333333325  11.81066666666668 9.753333333333323  11.564000000000014 9.199999999999989  L 11.380000000000015 8.43399999999999  L 10.826000000000015 8.179999999999989  L 8.920000000000014 8.56199999999999  C 8.468000000000014 8.56199999999999  7.976000000000014 8.647333333333325  7.444000000000014 8.81799999999999  L 6.1520000000000135 9.327999999999992  L 4.612000000000014 9.517999999999994  L 3.7520000000000144 9.837999999999994  C 3.3826666666666814 9.923333333333328  3.0960000000000147 9.880666666666663  2.8920000000000146 9.709999999999994  L 2.46 9.2  L 1.7839999999999998 9.456  L 1.2299999999999998 9.264  C 1.23 8.838666666666665  1.1893333333333331 8.583333333333332  1.1079999999999997 8.497999999999998  L 0.5539999999999996 7.733999999999998  C 0.30733333333333324 7.563333333333333  0.12266666666666667 7.456666666666667  0 7.414  L 0.06 7.096  L 0.6759999999999999 7.096  C 0.6359999999999999 6.969333333333335  0.6159999999999999 6.820666666666668  0.6159999999999999 6.65  L 0.6159999999999999 6.33  L 1.23 6.586  C 1.4353333333333333 6.459333333333335  1.5586666666666669 6.352666666666668  1.6 6.266  L 1.846 5.757999999999999  L 2.338 5.821999999999999  L 2.706 4.7379999999999995  L 2.646 4.164  L 2.9539999999999997 4.353999999999999  L 3.26 4.6739999999999995  C 3.4653333333333327 4.588666666666667  3.5886666666666667 4.503333333333334  3.63 4.417999999999999  L 4.184 3.718  L 4.736000000000001 3.782  L 4.5520000000000005 3.3360000000000003  L 4.184 2.888  L 3.63 2.6980000000000004  C 3.875333333333333 2.315333333333335  4.408666666666667 2.0386666666666677  5.23 1.8680000000000003  L 7.198 1.6780000000000008  L 7.8740000000000006 1.232000000000001  L 9.474 0.9120000000000008  L 11.934000000000001 0.7840000000000007  L 12.794 0.5940000000000012  C 13.123333333333335 0.4660000000000011  13.452000000000002 0.4446666666666683  13.780000000000001 0.5300000000000011  L 14.764000000000003 0.4660000000000011  C 15.420000000000002 0.29666666666666863  15.891333333333336 0.25400000000000134  16.178 0.33800000000000097  L 16.978 0.402000000000001  L 18.086000000000002 0.4660000000000011  L 19.746000000000002 0.7860000000000014  L 21.222 0.9120000000000008  L 22.268 0.4660000000000011  C 22.51466666666667 0.4660000000000011  22.781333333333336 0.636000000000001  23.068 0.9760000000000009  L 23.684 1.4220000000000006  L 24.976000000000006 1.4220000000000006  L 25.406000000000002 1.9320000000000004  L 25.346000000000004 2.2520000000000007  L 25.714 3.2720000000000002  L 25.96 3.144  L 26.513999999999996 2.5060000000000002  L 27.128 3.4619999999999997  L 26.39 3.208  C 26.10333333333334 3.208000000000002  25.939333333333334 3.4200000000000017  25.898000000000003 3.8439999999999994  L 26.513999999999996 3.9719999999999995  L 26.759999999999998 4.292  L 27.127999999999997 4.164  C 27.333333333333332 4.078666666666667  27.538666666666664 4.121333333333334  27.744 4.292  C 27.989333333333327 4.418666666666667  28.153333333333332 4.567333333333334  28.235999999999997 4.7379999999999995  L 28.603999999999992 5.247999999999999  L 29.403999999999996 5.247999999999999  C 29.404000000000003 5.120000000000001  29.424 5.034666666666666  29.463999999999995 4.991999999999999  C 29.506666666666664 4.906666666666666  29.547999999999995 4.843333333333334  29.587999999999994 4.802  L 29.711999999999996 5.437999999999999  L 29.95799999999999 5.437999999999999  L 30.141999999999992 5.247999999999999  L 30.32799999999999 5.568  L 30.511999999999993 5.055999999999999  C 31.045333333333332 5.056000000000001  31.352666666666664 5.013333333333334  31.433999999999994 4.927999999999999  C 31.433999999999997 4.801333333333334  31.39333333333333 4.695333333333334  31.311999999999994 4.609999999999999  L 31.065999999999995 4.289999999999999  C 31.065999999999995 4.077999999999999  31.229999999999997 3.9933333333333323  31.557999999999996 4.036  L 32.418 4.292  L 33.034 4.228  L 33.402 4.548  L 33.526 4.802  C 33.156666666666666 4.716666666666667  32.910000000000004 4.7379999999999995  32.786 4.866  C 32.706 4.949999999999999  32.68600000000001 5.0986666666666665  32.726 5.311999999999999  L 33.156 5.692  C 33.156000000000006 5.990666666666668  33.300000000000004 6.3100000000000005  33.588 6.65  L 33.834 6.396000000000001  L 33.894000000000005 5.886000000000001  L 34.142 6.204000000000001  L 35.186 6.204000000000001  C 35.391333333333336 6.204000000000001  35.55533333333334 6.437333333333335  35.678 6.904  L 35.864 7.5440000000000005  L 36.11 7.734  L 36.418 7.414  L 37.402 7.734  L 37.586 7.414  L 37.894 7.288  C 38.058 7.160000000000002  38.16066666666667 7.053333333333335  38.202 6.968  L 38.202 6.65  L 38.077999999999996 6.33  L 38.937999999999995 6.586  C 39.10333333333333 6.416666666666668  39.205999999999996 6.289333333333335  39.245999999999995 6.204000000000001  C 39.16466666666666 5.9906666666666695  39.08266666666666 5.884000000000002  38.99999999999999 5.884  L 38.385999999999996 5.758000000000001  L 38.385999999999996 5.438000000000001  L 38.56999999999999 4.992000000000001  L 38.75399999999999 4.610000000000001  C 38.959333333333326 4.736666666666668  39.08266666666666 4.8433333333333355  39.12399999999999 4.9300000000000015  L 39.43199999999999 5.374000000000002  L 39.86199999999999 5.312000000000003  L 40.29199999999999 5.248000000000003  L 41.83199999999999 6.586000000000002  L 42.261999999999986 6.522000000000002  L 42.691999999999986 7.096000000000002  L 43.06199999999998 7.288000000000002  C 42.93799999999999 7.457333333333336  42.93799999999999 7.648000000000003  43.06199999999998 7.860000000000001  L 43.49199999999998 7.670000000000002  L 43.92199999999998 7.670000000000002  L 44.29199999999998 8.308000000000003  L 44.65999999999998 8.944000000000003  C 44.987999999999985 8.944000000000003  45.23466666666665 8.986666666666672  45.399999999999984 9.072000000000003  L 45.643999999999984 10.220000000000002  L 46.32199999999998 10.602000000000004  L 46.87399999999998 10.794000000000004  C 46.87399999999998 11.007333333333339  46.833333333333314 11.177333333333337  46.75199999999998 11.304000000000006  L 46.87399999999998 11.942000000000007  L 47.05999999999998 12.322000000000006  L 46.99799999999998 12.770000000000007  L 47.243999999999986 12.642000000000007  C 47.40799999999999 12.428666666666672  47.53133333333332 12.30133333333334  47.61399999999998 12.260000000000005  L 47.859999999999985 12.132000000000005  Z M 31.989999999999995 2.889999999999999  C 32.03 2.804666666666666  32.153333333333336 2.7413333333333334  32.36 2.6999999999999993  C 32.48266666666667 2.826666666666666  32.48266666666667 3.017333333333333  32.36 3.2719999999999985  C 32.31866666666667 3.357333333333333  32.19533333333334 3.421333333333333  31.989999999999995 3.4639999999999986  C 31.867333333333335 3.3359999999999985  31.867333333333335 3.144666666666666  31.989999999999995 2.889999999999999  Z M 44.97 14.557999999999996  L 44.97 14.555999999999997  C 45.092666666666666 14.683999999999997  45.092666666666666 14.854  44.97 15.065999999999999  L 44.662 15.193999999999999  L 44.602 14.747999999999998  C 44.602000000000004 14.621333333333332  44.622 14.536666666666665  44.662 14.493999999999996  C 44.74466666666667 14.45133333333333  44.84733333333334 14.472666666666665  44.97 14.557999999999996  Z M 41.894 11.559999999999995  C 41.97533333333334 11.346666666666664  42.13933333333333 11.304666666666662  42.385999999999996 11.433999999999997  C 42.46733333333333 11.518  42.507999999999996 11.73  42.507999999999996 12.069999999999997  C 42.343999999999994 12.155333333333331  42.18 12.176666666666666  42.016 12.133999999999997  C 41.812000000000005 12.007333333333328  41.77133333333334 11.815999999999995  41.894 11.559999999999995  Z M 24.791999999999994 3.1459999999999972  L 24.977999999999994 2.953999999999997  L 24.60799999999999 3.6539999999999964  L 24.791999999999994 3.1459999999999972  Z M 33.711999999999996 27.433999999999997  L 33.465999999999994 27.561999999999998  L 33.21999999999999 27.18  L 33.465999999999994 26.988  C 33.67133333333333 27.03066666666667  33.75333333333333 27.179333333333332  33.711999999999996 27.433999999999997  Z M 43.74 18.064  L 43.739999999999995 18.061999999999998  C 43.49333333333333 17.892666666666663  43.32933333333333 17.72333333333333  43.248 17.554  L 43.616 17.808  L 43.74 18.064  Z M 19.746000000000002 28.9  L 19.132 29.409999999999997  L 19.438000000000002 29.092  L 19.746000000000002 28.9  Z M 45.274 13.025999999999996  L 45.58 12.899999999999999  L 45.396 13.279999999999998  L 45.336 13.473999999999997  L 45.274 13.025999999999996  Z M 45.766 16.595999999999997  L 45.888 16.023999999999997  L 45.766 16.595999999999997  Z M 41.21399999999999 9.137999999999998  L 41.519999999999996 9.009999999999998  L 41.705999999999996 9.265999999999998  L 41.459999999999994 9.329999999999998  L 41.21399999999999 9.137999999999998  Z M 30.263999999999996 24.183999999999997  L 30.509999999999998 23.991999999999997  L 30.263999999999996 24.183999999999997  Z M 29.160000000000004 2.8260000000000005  L 29.22 2.5060000000000002  L 29.160000000000004 2.8260000000000005  Z M 42.2 9.902000000000001  L 42.322 9.582  L 42.2 9.902000000000001  Z M 42.076 19.972  L 42.076 19.974  L 42.2 20.164  L 42.014 20.292  L 42.076 19.972  Z M 30.141999999999996 3.080000000000002  L 30.266 2.8880000000000017  L 30.141999999999996 3.080000000000002  Z M 33.466 26.412  L 33.586 26.158  L 33.466 26.412  Z M 19.5 12.770000000000003  L 19.746 12.514000000000003  L 19.5 12.770000000000003  Z M 19.375999999999998 30.811999999999998  L 19.378 30.811999999999998  L 19.316 31.131999999999998  L 19.375999999999998 30.811999999999998  Z M 38.016 5.883999999999997  L 38.018 5.883999999999997  L 38.138 6.075999999999997  L 37.832 5.947999999999997  L 38.016 5.883999999999997  Z M 27.988 23.225999999999996  L 27.990000000000002 23.223999999999997  L 27.927999999999997 23.479999999999997  L 27.988 23.225999999999996  Z M 42.19800000000001 10.283999999999999  L 42.2 10.283999999999999  L 42.138000000000005 10.538  L 42.19800000000001 10.283999999999999  Z M 41.646 13.471999999999998  L 41.768 13.279999999999998  L 41.646 13.471999999999998  Z M 42.384 21.311999999999998  L 42.568 21.183999999999997  L 42.384 21.311999999999998  Z M 3.3819999999999997 5.245999999999999  L 3.3839999999999995 5.247999999999999  L 3.322 5.565999999999999  L 3.3819999999999997 5.245999999999999  Z M 44.352 16.022  L 44.598 15.893999999999998  L 44.352 16.022  Z M 43.43 15.511999999999997  L 43.798 15.447999999999997  L 43.43 15.511999999999997  Z M 30.758000000000003 29.281999999999996  L 30.818000000000005 29.089999999999996  L 30.758000000000003 29.281999999999996  Z M 43.246 16.465999999999994  L 43.246 16.785999999999994  L 43.246 16.465999999999994  Z M 46.25800000000001 12.513999999999996  L 46.260000000000005 12.513999999999996  C 46.21866666666668 12.59933333333333  46.19800000000001 12.684666666666665  46.19800000000001 12.769999999999996  C 46.19800000000001 12.641999999999996  46.21800000000001 12.556666666666665  46.25800000000001 12.513999999999996  Z M 2.952 4.289999999999999  L 3.012 4.036  L 2.952 4.289999999999999  Z M 37.768 9.645999999999997  L 38.014 9.581999999999997  L 37.768 9.645999999999997  Z M 36.908 5.947999999999997  L 37.03 5.757999999999997  L 36.908 5.947999999999997  Z M 21.656 2.1880000000000006  L 21.84 2.1240000000000006  L 21.656 2.1880000000000006  Z M 27.990000000000002 4.6739999999999995  L 27.992000000000004 4.6739999999999995  L 27.93 4.927999999999999  L 27.990000000000002 4.6739999999999995  Z M 27.130000000000003 4.609999999999999  L 27.132 4.609999999999999  L 27.008000000000003 4.7379999999999995  L 27.130000000000003 4.609999999999999  Z M 19.130000000000003 30.619999999999997  L 19.19 30.366  L 19.130000000000003 30.619999999999997  Z M 41.276 14.3  L 41.396 14.428  L 41.276 14.3  Z M 26.142000000000003 4.100000000000001  L 26.266000000000005 4.2280000000000015  L 26.142000000000003 4.100000000000001  Z M 45.766000000000005 12.260000000000012  L 46.01200000000001 12.324000000000009  C 46.01200000000001 11.984000000000009  45.95000000000001 11.707333333333342  45.82600000000001 11.49400000000001  C 45.744666666666674 11.28200000000001  45.60133333333334 11.091333333333345  45.39600000000001 10.922000000000011  L 45.336000000000006 11.75000000000001  L 45.766000000000005 11.94200000000001  C 45.80600000000001 12.06866666666668  45.80600000000001 12.174666666666681  45.766000000000005 12.260000000000012  Z M 41.09200000000001 10.666000000000007  L 41.21200000000001 10.794000000000008  L 41.09200000000001 10.666000000000007  Z M 43.674000000000014 13.662000000000003  L 43.67200000000001 13.662000000000006  L 43.366000000000014 13.598000000000006  L 42.99800000000001 13.024000000000004  L 43.12000000000001 12.514000000000003  L 42.56600000000001 12.898000000000003  L 42.87400000000001 13.278000000000002  L 42.93400000000001 13.472000000000001  L 42.198000000000015 13.790000000000003  L 42.69000000000001 13.854000000000003  C 42.771333333333345 13.939333333333337  42.85333333333335 14.00266666666667  42.936000000000014 14.044000000000004  C 43.05866666666668 14.086666666666673  43.14066666666668 14.108000000000004  43.182000000000016 14.108000000000004  L 43.674000000000014 13.662000000000003  Z M 42.19800000000001 12.960000000000008  L 42.44400000000001 12.514000000000006  L 42.19800000000001 12.324000000000005  L 41.766000000000005 12.196000000000005  L 41.58200000000001 11.876000000000005  L 41.336000000000006 12.132000000000005  L 41.15200000000001 12.578000000000007  L 41.644000000000005 12.770000000000007  C 41.88933333333334 12.77000000000001  42.07400000000001 12.833333333333343  42.19800000000001 12.960000000000008  Z M 31.311999999999998 6.0120000000000005  L 31.68 5.566000000000001  L 31.433999999999997 5.438000000000001  L 31.066000000000003 5.248000000000001  C 30.902000000000005 5.248000000000003  30.820000000000007 5.290000000000003  30.820000000000007 5.3740000000000006  L 30.880000000000003 5.758000000000001  L 31.311999999999998 6.0120000000000005  Z M 39.06199999999999 19.144000000000005  L 39.062 19.146  L 39.186 18.380000000000003  C 39.186 17.700000000000003  38.93933333333334 16.977333333333338  38.446 16.212000000000003  C 38.03666666666667 15.446666666666673  37.50333333333334 14.830666666666673  36.846 14.364000000000004  C 36.312666666666665 13.853333333333339  35.57533333333333 13.406666666666673  34.63399999999999 13.024000000000004  L 32.17399999999999 11.942000000000004  L 31.249999999999993 11.368000000000002  L 29.895999999999994 10.858  L 28.481999999999992 10.411999999999999  L 26.205999999999996 9.901999999999997  L 25.465999999999994 9.773999999999997  C 25.097999999999992 9.773999999999997  24.81133333333333 9.816666666666663  24.605999999999995 9.901999999999997  C 24.441999999999997 9.943333333333335  24.380666666666663 10.091999999999999  24.421999999999993 10.347999999999999  L 25.159999999999997 11.814  C 25.529333333333327 12.494  25.877999999999993 12.961333333333336  26.205999999999996 13.216000000000001  L 26.75999999999999 13.598000000000003  L 26.75999999999999 13.982000000000003  L 27.373999999999995 14.746000000000002  L 27.43399999999999 15.256000000000004  C 27.599333333333327 15.384000000000007  27.72266666666666 15.448000000000008  27.80399999999999 15.448000000000004  C 28.009333333333327 15.574666666666673  28.275999999999993 15.893333333333338  28.603999999999992 16.404000000000003  L 29.28199999999999 17.232000000000003  L 30.325999999999993 18.762000000000004  L 31.249999999999993 20.420000000000005  L 31.679999999999993 21.694000000000006  L 31.557999999999993 22.524000000000004  L 31.803999999999995 22.906000000000006  L 31.557999999999993 23.288000000000007  C 31.433999999999997 23.41600000000001  31.433999999999997 23.54400000000001  31.557999999999993 23.672000000000008  L 31.987999999999992 23.544000000000008  L 32.72599999999999 23.224000000000007  C 32.93133333333333 23.224000000000007  33.279999999999994 23.097333333333342  33.77199999999999 22.84400000000001  L 35.12599999999999 22.204000000000008  L 37.03199999999999 21.44000000000001  C 37.810666666666656 21.10000000000001  38.36399999999999 20.76000000000001  38.691999999999986 20.42000000000001  L 38.93799999999999 19.782000000000007  C 38.93799999999999 19.484666666666676  38.97933333333333 19.27200000000001  39.06199999999999 19.144000000000005  Z " fill-rule="evenodd" />
    </mask>
  </defs>
  <g>
    <path d="M 37.646 5.312000000000001  L 37.648 5.3100000000000005  C 37.77066666666667 5.480666666666668  37.77066666666667 5.65066666666667  37.648 5.82  C 37.524 5.862666666666669  37.42133333333334 5.862666666666669  37.34 5.82  L 37.032000000000004 5.3740000000000006  L 36.294000000000004 5.184000000000001  C 36.171333333333344 5.056000000000001  36.171333333333344 4.886000000000003  36.294000000000004 4.674000000000001  C 36.41666666666667 4.503333333333334  36.58066666666667 4.439333333333334  36.786 4.482000000000001  C 37.15533333333334 4.695333333333334  37.44200000000001 4.972000000000001  37.646 5.312000000000001  Z M 46.382 14.046000000000003  C 46.46466666666667 14.003333333333337  46.54666666666667 13.982000000000006  46.628 13.982  C 46.669333333333334 14.108666666666668  46.69 14.21466666666667  46.69 14.3  L 46.382 14.746000000000002  L 46.382 14.046000000000003  Z M 34.816 4.228  L 35.864000000000004 4.481999999999999  L 36.17 4.991999999999999  C 36.006 5.289333333333333  35.842 5.480666666666668  35.678000000000004 5.565999999999999  L 35.49400000000001 5.8199999999999985  C 35.412666666666674 5.607999999999999  35.35133333333334 5.395999999999999  35.31000000000001 5.183999999999999  C 35.268666666666675 5.183999999999999  35.22733333333335 5.1626666666666665  35.18600000000001 5.119999999999999  L 34.940000000000005 5.373999999999999  L 33.834 5.119999999999999  C 33.67 4.906666666666666  33.71066666666667 4.673333333333332  33.956 4.42  C 34.20266666666667 4.1640000000000015  34.489333333333335 4.100000000000001  34.816 4.228  Z M 33.58600000000001 5.821999999999999  L 33.58800000000001 5.821999999999999  L 33.28000000000001 5.629999999999999  L 33.52600000000001 5.501999999999999  L 33.58600000000001 5.821999999999999  Z M 28.604000000000006 2.314  L 28.666000000000004 2.5700000000000003  L 28.29800000000001 3.016  L 27.92800000000001 2.5700000000000003  L 27.620000000000005 2.5060000000000002  L 28.604000000000006 2.314  Z M 47.859999999999985 12.132000000000005  L 47.85800000000001 12.132000000000005  C 48.02200000000002 12.260000000000005  48.042666666666676 12.578666666666674  47.92000000000001 13.088000000000005  L 47.55200000000001 14.172000000000004  L 47.24400000000001 14.554000000000006  L 47.18200000000001 13.790000000000006  C 47.18200000000001 13.61933333333334  47.162000000000006 13.470666666666673  47.12200000000001 13.344000000000005  C 47.122000000000014 13.216000000000008  47.100666666666676 13.088666666666672  47.05800000000001 12.962000000000003  L 46.25800000000001 13.342000000000002  C 46.299333333333344 13.428666666666672  46.32000000000001 13.535333333333337  46.32000000000001 13.662000000000003  C 46.36133333333334 13.790000000000003  46.402666666666676 13.875333333333337  46.44400000000001 13.918000000000003  L 45.58400000000001 13.982000000000003  L 45.64400000000001 14.236000000000004  L 45.82800000000001 14.428000000000004  L 45.52200000000001 15.128000000000004  C 45.48066666666668 15.510666666666673  45.378000000000014 15.724000000000007  45.21400000000001 15.768000000000004  L 44.96800000000001 15.384000000000004  L 44.22800000000001 15.574000000000005  C 44.06533333333334 15.404666666666671  43.98400000000001 15.256000000000004  43.98400000000001 15.128000000000004  L 43.79800000000001 14.874000000000002  L 44.10600000000001 14.492  C 44.024666666666675 14.321333333333335  43.94266666666668 14.236  43.86000000000001 14.236  L 43.55200000000001 14.364  L 43.24600000000001 15.128  C 42.95800000000001 15.128  42.77333333333334 15.17066666666667  42.69200000000001 15.256  L 43.06000000000001 15.766000000000002  L 44.35200000000001 16.466  L 44.41400000000001 16.914  C 44.57800000000002 16.95666666666667  44.701333333333345 17.020000000000003  44.784000000000006 17.104000000000003  C 44.90666666666667 17.189333333333337  44.988666666666674 17.253333333333337  45.03000000000001 17.296000000000003  C 44.988666666666674 17.381333333333338  44.94733333333335 17.488000000000007  44.906000000000006 17.616000000000003  C 44.86600000000001 17.700000000000006  44.784000000000006 17.784666666666674  44.660000000000004 17.870000000000005  L 44.106 18.252000000000006  L 44.168 18.762000000000008  C 43.84 18.89000000000001  43.55333333333334 19.10266666666668  43.308 19.40000000000001  L 43.122 20.10000000000001  C 42.67133333333334 20.10000000000001  42.38466666666667 20.142666666666678  42.262 20.22800000000001  L 42.322 21.186000000000007  L 42.138000000000005 21.122000000000007  C 41.974000000000004 20.866000000000007  41.81 20.802000000000007  41.64600000000001 20.930000000000007  L 41.89200000000001 21.758000000000006  C 41.76933333333335 21.758000000000006  41.66666666666668 21.77933333333334  41.58400000000001 21.822000000000006  L 41.46200000000001 21.950000000000006  L 41.70800000000001 22.396000000000008  C 41.74800000000002 22.566666666666677  41.768000000000015 22.694666666666677  41.768000000000015 22.78000000000001  C 41.52266666666668 22.99200000000001  41.276666666666685 23.118666666666677  41.030000000000015 23.160000000000007  C 40.82600000000002 23.204000000000008  40.66200000000002 23.353333333333342  40.53800000000002 23.608000000000008  L 40.600000000000016 24.372000000000007  C 40.477333333333355 24.670666666666676  40.374666666666684 24.86200000000001  40.292000000000016 24.946000000000005  C 39.88266666666669 24.946000000000005  39.575333333333354 24.988666666666674  39.37000000000002 25.074000000000005  L 39.00000000000002 25.774000000000008  L 38.694000000000024 25.64800000000001  C 38.528666666666695 25.60533333333335  38.40533333333336 25.60533333333335  38.32400000000003 25.64800000000001  L 38.078000000000024 26.15800000000001  C 37.70866666666669 26.158000000000015  37.44200000000002 26.24266666666668  37.27800000000003 26.412000000000006  L 36.78600000000003 26.860000000000007  L 36.91000000000003 26.28600000000001  C 37.0326666666667 25.946000000000012  36.9706666666667 25.75466666666668  36.72400000000003 25.71200000000001  L 36.47800000000003 25.902000000000008  L 36.41800000000003 26.22200000000001  L 35.80200000000003 26.604000000000006  L 35.742000000000026 27.30400000000001  L 34.572000000000024 27.30400000000001  L 34.32600000000002 27.75200000000001  C 34.243333333333354 28.006666666666675  34.038000000000025 28.198000000000008  33.71000000000002 28.326000000000008  C 33.382000000000026 28.452666666666673  32.80800000000002 28.516000000000005  31.98800000000002 28.516000000000005  C 31.16800000000002 28.516000000000005  30.655333333333353 28.558666666666674  30.450000000000024 28.644000000000005  C 30.24466666666669 28.644000000000005  30.060000000000024 28.750666666666675  29.896000000000022 28.964000000000006  C 29.773333333333355 29.176000000000002  29.630000000000024 29.324666666666673  29.466000000000022 29.410000000000004  L 28.48200000000002 29.728  L 28.17400000000002 30.302  L 27.74400000000002 30.622  C 27.538666666666693 30.748666666666665  27.21066666666669 30.811999999999998  26.76000000000002 30.811999999999998  L 26.14400000000002 31.131999999999998  L 25.222000000000016 31.512  L 24.54400000000002 31.450000000000003  C 24.29866666666669 31.322000000000003  24.01200000000002 31.258000000000003  23.68400000000002 31.258000000000003  L 22.57600000000002 31.258000000000003  L 22.206000000000017 31.002000000000002  L 21.468000000000018 31.130000000000003  L 21.10000000000002 31.64  L 20.54600000000002 31.258000000000003  L 20.11600000000002 30.812000000000005  L 19.13200000000002 30.748000000000005  L 18.762000000000018 30.428000000000004  L 19.316000000000017 29.728  L 20.054000000000016 28.708  L 20.054000000000016 28.007999999999996  L 20.914000000000016 27.049999999999997  L 20.914000000000016 25.965999999999994  C 20.914000000000016 25.625999999999998  20.976000000000017 25.328666666666663  21.100000000000016 25.07399999999999  L 21.776000000000014 25.26599999999999  C 21.940000000000015 25.09533333333333  22.022000000000013 24.96733333333333  22.022000000000013 24.88199999999999  C 21.77666666666668 24.669999999999995  21.551333333333346 24.39399999999999  21.346000000000014 24.053999999999988  L 20.730000000000015 23.16199999999999  L 19.992000000000015 22.20599999999999  L 19.500000000000014 21.31199999999999  L 18.946000000000016 20.41999999999999  L 18.516000000000016 19.33599999999999  L 17.594000000000015 18.315999999999992  L 14.210000000000015 13.34399999999999  L 13.594000000000015 12.259999999999991  L 12.980000000000015 11.047999999999991  L 12.488000000000014 10.72999999999999  C 12.11866666666668 10.263333333333325  11.81066666666668 9.753333333333323  11.564000000000014 9.199999999999989  L 11.380000000000015 8.43399999999999  L 10.826000000000015 8.179999999999989  L 8.920000000000014 8.56199999999999  C 8.468000000000014 8.56199999999999  7.976000000000014 8.647333333333325  7.444000000000014 8.81799999999999  L 6.1520000000000135 9.327999999999992  L 4.612000000000014 9.517999999999994  L 3.7520000000000144 9.837999999999994  C 3.3826666666666814 9.923333333333328  3.0960000000000147 9.880666666666663  2.8920000000000146 9.709999999999994  L 2.46 9.2  L 1.7839999999999998 9.456  L 1.2299999999999998 9.264  C 1.23 8.838666666666665  1.1893333333333331 8.583333333333332  1.1079999999999997 8.497999999999998  L 0.5539999999999996 7.733999999999998  C 0.30733333333333324 7.563333333333333  0.12266666666666667 7.456666666666667  0 7.414  L 0.06 7.096  L 0.6759999999999999 7.096  C 0.6359999999999999 6.969333333333335  0.6159999999999999 6.820666666666668  0.6159999999999999 6.65  L 0.6159999999999999 6.33  L 1.23 6.586  C 1.4353333333333333 6.459333333333335  1.5586666666666669 6.352666666666668  1.6 6.266  L 1.846 5.757999999999999  L 2.338 5.821999999999999  L 2.706 4.7379999999999995  L 2.646 4.164  L 2.9539999999999997 4.353999999999999  L 3.26 4.6739999999999995  C 3.4653333333333327 4.588666666666667  3.5886666666666667 4.503333333333334  3.63 4.417999999999999  L 4.184 3.718  L 4.736000000000001 3.782  L 4.5520000000000005 3.3360000000000003  L 4.184 2.888  L 3.63 2.6980000000000004  C 3.875333333333333 2.315333333333335  4.408666666666667 2.0386666666666677  5.23 1.8680000000000003  L 7.198 1.6780000000000008  L 7.8740000000000006 1.232000000000001  L 9.474 0.9120000000000008  L 11.934000000000001 0.7840000000000007  L 12.794 0.5940000000000012  C 13.123333333333335 0.4660000000000011  13.452000000000002 0.4446666666666683  13.780000000000001 0.5300000000000011  L 14.764000000000003 0.4660000000000011  C 15.420000000000002 0.29666666666666863  15.891333333333336 0.25400000000000134  16.178 0.33800000000000097  L 16.978 0.402000000000001  L 18.086000000000002 0.4660000000000011  L 19.746000000000002 0.7860000000000014  L 21.222 0.9120000000000008  L 22.268 0.4660000000000011  C 22.51466666666667 0.4660000000000011  22.781333333333336 0.636000000000001  23.068 0.9760000000000009  L 23.684 1.4220000000000006  L 24.976000000000006 1.4220000000000006  L 25.406000000000002 1.9320000000000004  L 25.346000000000004 2.2520000000000007  L 25.714 3.2720000000000002  L 25.96 3.144  L 26.513999999999996 2.5060000000000002  L 27.128 3.4619999999999997  L 26.39 3.208  C 26.10333333333334 3.208000000000002  25.939333333333334 3.4200000000000017  25.898000000000003 3.8439999999999994  L 26.513999999999996 3.9719999999999995  L 26.759999999999998 4.292  L 27.127999999999997 4.164  C 27.333333333333332 4.078666666666667  27.538666666666664 4.121333333333334  27.744 4.292  C 27.989333333333327 4.418666666666667  28.153333333333332 4.567333333333334  28.235999999999997 4.7379999999999995  L 28.603999999999992 5.247999999999999  L 29.403999999999996 5.247999999999999  C 29.404000000000003 5.120000000000001  29.424 5.034666666666666  29.463999999999995 4.991999999999999  C 29.506666666666664 4.906666666666666  29.547999999999995 4.843333333333334  29.587999999999994 4.802  L 29.711999999999996 5.437999999999999  L 29.95799999999999 5.437999999999999  L 30.141999999999992 5.247999999999999  L 30.32799999999999 5.568  L 30.511999999999993 5.055999999999999  C 31.045333333333332 5.056000000000001  31.352666666666664 5.013333333333334  31.433999999999994 4.927999999999999  C 31.433999999999997 4.801333333333334  31.39333333333333 4.695333333333334  31.311999999999994 4.609999999999999  L 31.065999999999995 4.289999999999999  C 31.065999999999995 4.077999999999999  31.229999999999997 3.9933333333333323  31.557999999999996 4.036  L 32.418 4.292  L 33.034 4.228  L 33.402 4.548  L 33.526 4.802  C 33.156666666666666 4.716666666666667  32.910000000000004 4.7379999999999995  32.786 4.866  C 32.706 4.949999999999999  32.68600000000001 5.0986666666666665  32.726 5.311999999999999  L 33.156 5.692  C 33.156000000000006 5.990666666666668  33.300000000000004 6.3100000000000005  33.588 6.65  L 33.834 6.396000000000001  L 33.894000000000005 5.886000000000001  L 34.142 6.204000000000001  L 35.186 6.204000000000001  C 35.391333333333336 6.204000000000001  35.55533333333334 6.437333333333335  35.678 6.904  L 35.864 7.5440000000000005  L 36.11 7.734  L 36.418 7.414  L 37.402 7.734  L 37.586 7.414  L 37.894 7.288  C 38.058 7.160000000000002  38.16066666666667 7.053333333333335  38.202 6.968  L 38.202 6.65  L 38.077999999999996 6.33  L 38.937999999999995 6.586  C 39.10333333333333 6.416666666666668  39.205999999999996 6.289333333333335  39.245999999999995 6.204000000000001  C 39.16466666666666 5.9906666666666695  39.08266666666666 5.884000000000002  38.99999999999999 5.884  L 38.385999999999996 5.758000000000001  L 38.385999999999996 5.438000000000001  L 38.56999999999999 4.992000000000001  L 38.75399999999999 4.610000000000001  C 38.959333333333326 4.736666666666668  39.08266666666666 4.8433333333333355  39.12399999999999 4.9300000000000015  L 39.43199999999999 5.374000000000002  L 39.86199999999999 5.312000000000003  L 40.29199999999999 5.248000000000003  L 41.83199999999999 6.586000000000002  L 42.261999999999986 6.522000000000002  L 42.691999999999986 7.096000000000002  L 43.06199999999998 7.288000000000002  C 42.93799999999999 7.457333333333336  42.93799999999999 7.648000000000003  43.06199999999998 7.860000000000001  L 43.49199999999998 7.670000000000002  L 43.92199999999998 7.670000000000002  L 44.29199999999998 8.308000000000003  L 44.65999999999998 8.944000000000003  C 44.987999999999985 8.944000000000003  45.23466666666665 8.986666666666672  45.399999999999984 9.072000000000003  L 45.643999999999984 10.220000000000002  L 46.32199999999998 10.602000000000004  L 46.87399999999998 10.794000000000004  C 46.87399999999998 11.007333333333339  46.833333333333314 11.177333333333337  46.75199999999998 11.304000000000006  L 46.87399999999998 11.942000000000007  L 47.05999999999998 12.322000000000006  L 46.99799999999998 12.770000000000007  L 47.243999999999986 12.642000000000007  C 47.40799999999999 12.428666666666672  47.53133333333332 12.30133333333334  47.61399999999998 12.260000000000005  L 47.859999999999985 12.132000000000005  Z M 31.989999999999995 2.889999999999999  C 32.03 2.804666666666666  32.153333333333336 2.7413333333333334  32.36 2.6999999999999993  C 32.48266666666667 2.826666666666666  32.48266666666667 3.017333333333333  32.36 3.2719999999999985  C 32.31866666666667 3.357333333333333  32.19533333333334 3.421333333333333  31.989999999999995 3.4639999999999986  C 31.867333333333335 3.3359999999999985  31.867333333333335 3.144666666666666  31.989999999999995 2.889999999999999  Z M 44.97 14.557999999999996  L 44.97 14.555999999999997  C 45.092666666666666 14.683999999999997  45.092666666666666 14.854  44.97 15.065999999999999  L 44.662 15.193999999999999  L 44.602 14.747999999999998  C 44.602000000000004 14.621333333333332  44.622 14.536666666666665  44.662 14.493999999999996  C 44.74466666666667 14.45133333333333  44.84733333333334 14.472666666666665  44.97 14.557999999999996  Z M 41.894 11.559999999999995  C 41.97533333333334 11.346666666666664  42.13933333333333 11.304666666666662  42.385999999999996 11.433999999999997  C 42.46733333333333 11.518  42.507999999999996 11.73  42.507999999999996 12.069999999999997  C 42.343999999999994 12.155333333333331  42.18 12.176666666666666  42.016 12.133999999999997  C 41.812000000000005 12.007333333333328  41.77133333333334 11.815999999999995  41.894 11.559999999999995  Z M 24.791999999999994 3.1459999999999972  L 24.977999999999994 2.953999999999997  L 24.60799999999999 3.6539999999999964  L 24.791999999999994 3.1459999999999972  Z M 33.711999999999996 27.433999999999997  L 33.465999999999994 27.561999999999998  L 33.21999999999999 27.18  L 33.465999999999994 26.988  C 33.67133333333333 27.03066666666667  33.75333333333333 27.179333333333332  33.711999999999996 27.433999999999997  Z M 43.74 18.064  L 43.739999999999995 18.061999999999998  C 43.49333333333333 17.892666666666663  43.32933333333333 17.72333333333333  43.248 17.554  L 43.616 17.808  L 43.74 18.064  Z M 19.746000000000002 28.9  L 19.132 29.409999999999997  L 19.438000000000002 29.092  L 19.746000000000002 28.9  Z M 45.274 13.025999999999996  L 45.58 12.899999999999999  L 45.396 13.279999999999998  L 45.336 13.473999999999997  L 45.274 13.025999999999996  Z M 45.766 16.595999999999997  L 45.888 16.023999999999997  L 45.766 16.595999999999997  Z M 41.21399999999999 9.137999999999998  L 41.519999999999996 9.009999999999998  L 41.705999999999996 9.265999999999998  L 41.459999999999994 9.329999999999998  L 41.21399999999999 9.137999999999998  Z M 30.263999999999996 24.183999999999997  L 30.509999999999998 23.991999999999997  L 30.263999999999996 24.183999999999997  Z M 29.160000000000004 2.8260000000000005  L 29.22 2.5060000000000002  L 29.160000000000004 2.8260000000000005  Z M 42.2 9.902000000000001  L 42.322 9.582  L 42.2 9.902000000000001  Z M 42.076 19.972  L 42.076 19.974  L 42.2 20.164  L 42.014 20.292  L 42.076 19.972  Z M 30.141999999999996 3.080000000000002  L 30.266 2.8880000000000017  L 30.141999999999996 3.080000000000002  Z M 33.466 26.412  L 33.586 26.158  L 33.466 26.412  Z M 19.5 12.770000000000003  L 19.746 12.514000000000003  L 19.5 12.770000000000003  Z M 19.375999999999998 30.811999999999998  L 19.378 30.811999999999998  L 19.316 31.131999999999998  L 19.375999999999998 30.811999999999998  Z M 38.016 5.883999999999997  L 38.018 5.883999999999997  L 38.138 6.075999999999997  L 37.832 5.947999999999997  L 38.016 5.883999999999997  Z M 27.988 23.225999999999996  L 27.990000000000002 23.223999999999997  L 27.927999999999997 23.479999999999997  L 27.988 23.225999999999996  Z M 42.19800000000001 10.283999999999999  L 42.2 10.283999999999999  L 42.138000000000005 10.538  L 42.19800000000001 10.283999999999999  Z M 41.646 13.471999999999998  L 41.768 13.279999999999998  L 41.646 13.471999999999998  Z M 42.384 21.311999999999998  L 42.568 21.183999999999997  L 42.384 21.311999999999998  Z M 3.3819999999999997 5.245999999999999  L 3.3839999999999995 5.247999999999999  L 3.322 5.565999999999999  L 3.3819999999999997 5.245999999999999  Z M 44.352 16.022  L 44.598 15.893999999999998  L 44.352 16.022  Z M 43.43 15.511999999999997  L 43.798 15.447999999999997  L 43.43 15.511999999999997  Z M 30.758000000000003 29.281999999999996  L 30.818000000000005 29.089999999999996  L 30.758000000000003 29.281999999999996  Z M 43.246 16.465999999999994  L 43.246 16.785999999999994  L 43.246 16.465999999999994  Z M 46.25800000000001 12.513999999999996  L 46.260000000000005 12.513999999999996  C 46.21866666666668 12.59933333333333  46.19800000000001 12.684666666666665  46.19800000000001 12.769999999999996  C 46.19800000000001 12.641999999999996  46.21800000000001 12.556666666666665  46.25800000000001 12.513999999999996  Z M 2.952 4.289999999999999  L 3.012 4.036  L 2.952 4.289999999999999  Z M 37.768 9.645999999999997  L 38.014 9.581999999999997  L 37.768 9.645999999999997  Z M 36.908 5.947999999999997  L 37.03 5.757999999999997  L 36.908 5.947999999999997  Z M 21.656 2.1880000000000006  L 21.84 2.1240000000000006  L 21.656 2.1880000000000006  Z M 27.990000000000002 4.6739999999999995  L 27.992000000000004 4.6739999999999995  L 27.93 4.927999999999999  L 27.990000000000002 4.6739999999999995  Z M 27.130000000000003 4.609999999999999  L 27.132 4.609999999999999  L 27.008000000000003 4.7379999999999995  L 27.130000000000003 4.609999999999999  Z M 19.130000000000003 30.619999999999997  L 19.19 30.366  L 19.130000000000003 30.619999999999997  Z M 41.276 14.3  L 41.396 14.428  L 41.276 14.3  Z M 26.142000000000003 4.100000000000001  L 26.266000000000005 4.2280000000000015  L 26.142000000000003 4.100000000000001  Z M 45.766000000000005 12.260000000000012  L 46.01200000000001 12.324000000000009  C 46.01200000000001 11.984000000000009  45.95000000000001 11.707333333333342  45.82600000000001 11.49400000000001  C 45.744666666666674 11.28200000000001  45.60133333333334 11.091333333333345  45.39600000000001 10.922000000000011  L 45.336000000000006 11.75000000000001  L 45.766000000000005 11.94200000000001  C 45.80600000000001 12.06866666666668  45.80600000000001 12.174666666666681  45.766000000000005 12.260000000000012  Z M 41.09200000000001 10.666000000000007  L 41.21200000000001 10.794000000000008  L 41.09200000000001 10.666000000000007  Z M 43.674000000000014 13.662000000000003  L 43.67200000000001 13.662000000000006  L 43.366000000000014 13.598000000000006  L 42.99800000000001 13.024000000000004  L 43.12000000000001 12.514000000000003  L 42.56600000000001 12.898000000000003  L 42.87400000000001 13.278000000000002  L 42.93400000000001 13.472000000000001  L 42.198000000000015 13.790000000000003  L 42.69000000000001 13.854000000000003  C 42.771333333333345 13.939333333333337  42.85333333333335 14.00266666666667  42.936000000000014 14.044000000000004  C 43.05866666666668 14.086666666666673  43.14066666666668 14.108000000000004  43.182000000000016 14.108000000000004  L 43.674000000000014 13.662000000000003  Z M 42.19800000000001 12.960000000000008  L 42.44400000000001 12.514000000000006  L 42.19800000000001 12.324000000000005  L 41.766000000000005 12.196000000000005  L 41.58200000000001 11.876000000000005  L 41.336000000000006 12.132000000000005  L 41.15200000000001 12.578000000000007  L 41.644000000000005 12.770000000000007  C 41.88933333333334 12.77000000000001  42.07400000000001 12.833333333333343  42.19800000000001 12.960000000000008  Z M 31.311999999999998 6.0120000000000005  L 31.68 5.566000000000001  L 31.433999999999997 5.438000000000001  L 31.066000000000003 5.248000000000001  C 30.902000000000005 5.248000000000003  30.820000000000007 5.290000000000003  30.820000000000007 5.3740000000000006  L 30.880000000000003 5.758000000000001  L 31.311999999999998 6.0120000000000005  Z M 39.06199999999999 19.144000000000005  L 39.062 19.146  L 39.186 18.380000000000003  C 39.186 17.700000000000003  38.93933333333334 16.977333333333338  38.446 16.212000000000003  C 38.03666666666667 15.446666666666673  37.50333333333334 14.830666666666673  36.846 14.364000000000004  C 36.312666666666665 13.853333333333339  35.57533333333333 13.406666666666673  34.63399999999999 13.024000000000004  L 32.17399999999999 11.942000000000004  L 31.249999999999993 11.368000000000002  L 29.895999999999994 10.858  L 28.481999999999992 10.411999999999999  L 26.205999999999996 9.901999999999997  L 25.465999999999994 9.773999999999997  C 25.097999999999992 9.773999999999997  24.81133333333333 9.816666666666663  24.605999999999995 9.901999999999997  C 24.441999999999997 9.943333333333335  24.380666666666663 10.091999999999999  24.421999999999993 10.347999999999999  L 25.159999999999997 11.814  C 25.529333333333327 12.494  25.877999999999993 12.961333333333336  26.205999999999996 13.216000000000001  L 26.75999999999999 13.598000000000003  L 26.75999999999999 13.982000000000003  L 27.373999999999995 14.746000000000002  L 27.43399999999999 15.256000000000004  C 27.599333333333327 15.384000000000007  27.72266666666666 15.448000000000008  27.80399999999999 15.448000000000004  C 28.009333333333327 15.574666666666673  28.275999999999993 15.893333333333338  28.603999999999992 16.404000000000003  L 29.28199999999999 17.232000000000003  L 30.325999999999993 18.762000000000004  L 31.249999999999993 20.420000000000005  L 31.679999999999993 21.694000000000006  L 31.557999999999993 22.524000000000004  L 31.803999999999995 22.906000000000006  L 31.557999999999993 23.288000000000007  C 31.433999999999997 23.41600000000001  31.433999999999997 23.54400000000001  31.557999999999993 23.672000000000008  L 31.987999999999992 23.544000000000008  L 32.72599999999999 23.224000000000007  C 32.93133333333333 23.224000000000007  33.279999999999994 23.097333333333342  33.77199999999999 22.84400000000001  L 35.12599999999999 22.204000000000008  L 37.03199999999999 21.44000000000001  C 37.810666666666656 21.10000000000001  38.36399999999999 20.76000000000001  38.691999999999986 20.42000000000001  L 38.93799999999999 19.782000000000007  C 38.93799999999999 19.484666666666676  38.97933333333333 19.27200000000001  39.06199999999999 19.144000000000005  Z " fill-rule="nonzero" fill="rgba(80, 22, 45, 1)" stroke="none" class="fill" />
    <path d="M 37.646 5.312000000000001  L 37.648 5.3100000000000005  C 37.77066666666667 5.480666666666668  37.77066666666667 5.65066666666667  37.648 5.82  C 37.524 5.862666666666669  37.42133333333334 5.862666666666669  37.34 5.82  L 37.032000000000004 5.3740000000000006  L 36.294000000000004 5.184000000000001  C 36.171333333333344 5.056000000000001  36.171333333333344 4.886000000000003  36.294000000000004 4.674000000000001  C 36.41666666666667 4.503333333333334  36.58066666666667 4.439333333333334  36.786 4.482000000000001  C 37.15533333333334 4.695333333333334  37.44200000000001 4.972000000000001  37.646 5.312000000000001  Z " stroke-width="0" stroke-dasharray="0" stroke="rgba(255, 255, 255, 0)" fill="none" class="stroke" mask="url(#Clip6826)" />
    <path d="M 46.382 14.046000000000003  C 46.46466666666667 14.003333333333337  46.54666666666667 13.982000000000006  46.628 13.982  C 46.669333333333334 14.108666666666668  46.69 14.21466666666667  46.69 14.3  L 46.382 14.746000000000002  L 46.382 14.046000000000003  Z " stroke-width="0" stroke-dasharray="0" stroke="rgba(255, 255, 255, 0)" fill="none" class="stroke" mask="url(#Clip6826)" />
    <path d="M 34.816 4.228  L 35.864000000000004 4.481999999999999  L 36.17 4.991999999999999  C 36.006 5.289333333333333  35.842 5.480666666666668  35.678000000000004 5.565999999999999  L 35.49400000000001 5.8199999999999985  C 35.412666666666674 5.607999999999999  35.35133333333334 5.395999999999999  35.31000000000001 5.183999999999999  C 35.268666666666675 5.183999999999999  35.22733333333335 5.1626666666666665  35.18600000000001 5.119999999999999  L 34.940000000000005 5.373999999999999  L 33.834 5.119999999999999  C 33.67 4.906666666666666  33.71066666666667 4.673333333333332  33.956 4.42  C 34.20266666666667 4.1640000000000015  34.489333333333335 4.100000000000001  34.816 4.228  Z " stroke-width="0" stroke-dasharray="0" stroke="rgba(255, 255, 255, 0)" fill="none" class="stroke" mask="url(#Clip6826)" />
    <path d="M 33.58600000000001 5.821999999999999  L 33.58800000000001 5.821999999999999  L 33.28000000000001 5.629999999999999  L 33.52600000000001 5.501999999999999  L 33.58600000000001 5.821999999999999  Z " stroke-width="0" stroke-dasharray="0" stroke="rgba(255, 255, 255, 0)" fill="none" class="stroke" mask="url(#Clip6826)" />
    <path d="M 28.604000000000006 2.314  L 28.666000000000004 2.5700000000000003  L 28.29800000000001 3.016  L 27.92800000000001 2.5700000000000003  L 27.620000000000005 2.5060000000000002  L 28.604000000000006 2.314  Z " stroke-width="0" stroke-dasharray="0" stroke="rgba(255, 255, 255, 0)" fill="none" class="stroke" mask="url(#Clip6826)" />
    <path d="M 47.859999999999985 12.132000000000005  L 47.85800000000001 12.132000000000005  C 48.02200000000002 12.260000000000005  48.042666666666676 12.578666666666674  47.92000000000001 13.088000000000005  L 47.55200000000001 14.172000000000004  L 47.24400000000001 14.554000000000006  L 47.18200000000001 13.790000000000006  C 47.18200000000001 13.61933333333334  47.162000000000006 13.470666666666673  47.12200000000001 13.344000000000005  C 47.122000000000014 13.216000000000008  47.100666666666676 13.088666666666672  47.05800000000001 12.962000000000003  L 46.25800000000001 13.342000000000002  C 46.299333333333344 13.428666666666672  46.32000000000001 13.535333333333337  46.32000000000001 13.662000000000003  C 46.36133333333334 13.790000000000003  46.402666666666676 13.875333333333337  46.44400000000001 13.918000000000003  L 45.58400000000001 13.982000000000003  L 45.64400000000001 14.236000000000004  L 45.82800000000001 14.428000000000004  L 45.52200000000001 15.128000000000004  C 45.48066666666668 15.510666666666673  45.378000000000014 15.724000000000007  45.21400000000001 15.768000000000004  L 44.96800000000001 15.384000000000004  L 44.22800000000001 15.574000000000005  C 44.06533333333334 15.404666666666671  43.98400000000001 15.256000000000004  43.98400000000001 15.128000000000004  L 43.79800000000001 14.874000000000002  L 44.10600000000001 14.492  C 44.024666666666675 14.321333333333335  43.94266666666668 14.236  43.86000000000001 14.236  L 43.55200000000001 14.364  L 43.24600000000001 15.128  C 42.95800000000001 15.128  42.77333333333334 15.17066666666667  42.69200000000001 15.256  L 43.06000000000001 15.766000000000002  L 44.35200000000001 16.466  L 44.41400000000001 16.914  C 44.57800000000002 16.95666666666667  44.701333333333345 17.020000000000003  44.784000000000006 17.104000000000003  C 44.90666666666667 17.189333333333337  44.988666666666674 17.253333333333337  45.03000000000001 17.296000000000003  C 44.988666666666674 17.381333333333338  44.94733333333335 17.488000000000007  44.906000000000006 17.616000000000003  C 44.86600000000001 17.700000000000006  44.784000000000006 17.784666666666674  44.660000000000004 17.870000000000005  L 44.106 18.252000000000006  L 44.168 18.762000000000008  C 43.84 18.89000000000001  43.55333333333334 19.10266666666668  43.308 19.40000000000001  L 43.122 20.10000000000001  C 42.67133333333334 20.10000000000001  42.38466666666667 20.142666666666678  42.262 20.22800000000001  L 42.322 21.186000000000007  L 42.138000000000005 21.122000000000007  C 41.974000000000004 20.866000000000007  41.81 20.802000000000007  41.64600000000001 20.930000000000007  L 41.89200000000001 21.758000000000006  C 41.76933333333335 21.758000000000006  41.66666666666668 21.77933333333334  41.58400000000001 21.822000000000006  L 41.46200000000001 21.950000000000006  L 41.70800000000001 22.396000000000008  C 41.74800000000002 22.566666666666677  41.768000000000015 22.694666666666677  41.768000000000015 22.78000000000001  C 41.52266666666668 22.99200000000001  41.276666666666685 23.118666666666677  41.030000000000015 23.160000000000007  C 40.82600000000002 23.204000000000008  40.66200000000002 23.353333333333342  40.53800000000002 23.608000000000008  L 40.600000000000016 24.372000000000007  C 40.477333333333355 24.670666666666676  40.374666666666684 24.86200000000001  40.292000000000016 24.946000000000005  C 39.88266666666669 24.946000000000005  39.575333333333354 24.988666666666674  39.37000000000002 25.074000000000005  L 39.00000000000002 25.774000000000008  L 38.694000000000024 25.64800000000001  C 38.528666666666695 25.60533333333335  38.40533333333336 25.60533333333335  38.32400000000003 25.64800000000001  L 38.078000000000024 26.15800000000001  C 37.70866666666669 26.158000000000015  37.44200000000002 26.24266666666668  37.27800000000003 26.412000000000006  L 36.78600000000003 26.860000000000007  L 36.91000000000003 26.28600000000001  C 37.0326666666667 25.946000000000012  36.9706666666667 25.75466666666668  36.72400000000003 25.71200000000001  L 36.47800000000003 25.902000000000008  L 36.41800000000003 26.22200000000001  L 35.80200000000003 26.604000000000006  L 35.742000000000026 27.30400000000001  L 34.572000000000024 27.30400000000001  L 34.32600000000002 27.75200000000001  C 34.243333333333354 28.006666666666675  34.038000000000025 28.198000000000008  33.71000000000002 28.326000000000008  C 33.382000000000026 28.452666666666673  32.80800000000002 28.516000000000005  31.98800000000002 28.516000000000005  C 31.16800000000002 28.516000000000005  30.655333333333353 28.558666666666674  30.450000000000024 28.644000000000005  C 30.24466666666669 28.644000000000005  30.060000000000024 28.750666666666675  29.896000000000022 28.964000000000006  C 29.773333333333355 29.176000000000002  29.630000000000024 29.324666666666673  29.466000000000022 29.410000000000004  L 28.48200000000002 29.728  L 28.17400000000002 30.302  L 27.74400000000002 30.622  C 27.538666666666693 30.748666666666665  27.21066666666669 30.811999999999998  26.76000000000002 30.811999999999998  L 26.14400000000002 31.131999999999998  L 25.222000000000016 31.512  L 24.54400000000002 31.450000000000003  C 24.29866666666669 31.322000000000003  24.01200000000002 31.258000000000003  23.68400000000002 31.258000000000003  L 22.57600000000002 31.258000000000003  L 22.206000000000017 31.002000000000002  L 21.468000000000018 31.130000000000003  L 21.10000000000002 31.64  L 20.54600000000002 31.258000000000003  L 20.11600000000002 30.812000000000005  L 19.13200000000002 30.748000000000005  L 18.762000000000018 30.428000000000004  L 19.316000000000017 29.728  L 20.054000000000016 28.708  L 20.054000000000016 28.007999999999996  L 20.914000000000016 27.049999999999997  L 20.914000000000016 25.965999999999994  C 20.914000000000016 25.625999999999998  20.976000000000017 25.328666666666663  21.100000000000016 25.07399999999999  L 21.776000000000014 25.26599999999999  C 21.940000000000015 25.09533333333333  22.022000000000013 24.96733333333333  22.022000000000013 24.88199999999999  C 21.77666666666668 24.669999999999995  21.551333333333346 24.39399999999999  21.346000000000014 24.053999999999988  L 20.730000000000015 23.16199999999999  L 19.992000000000015 22.20599999999999  L 19.500000000000014 21.31199999999999  L 18.946000000000016 20.41999999999999  L 18.516000000000016 19.33599999999999  L 17.594000000000015 18.315999999999992  L 14.210000000000015 13.34399999999999  L 13.594000000000015 12.259999999999991  L 12.980000000000015 11.047999999999991  L 12.488000000000014 10.72999999999999  C 12.11866666666668 10.263333333333325  11.81066666666668 9.753333333333323  11.564000000000014 9.199999999999989  L 11.380000000000015 8.43399999999999  L 10.826000000000015 8.179999999999989  L 8.920000000000014 8.56199999999999  C 8.468000000000014 8.56199999999999  7.976000000000014 8.647333333333325  7.444000000000014 8.81799999999999  L 6.1520000000000135 9.327999999999992  L 4.612000000000014 9.517999999999994  L 3.7520000000000144 9.837999999999994  C 3.3826666666666814 9.923333333333328  3.0960000000000147 9.880666666666663  2.8920000000000146 9.709999999999994  L 2.46 9.2  L 1.7839999999999998 9.456  L 1.2299999999999998 9.264  C 1.23 8.838666666666665  1.1893333333333331 8.583333333333332  1.1079999999999997 8.497999999999998  L 0.5539999999999996 7.733999999999998  C 0.30733333333333324 7.563333333333333  0.12266666666666667 7.456666666666667  0 7.414  L 0.06 7.096  L 0.6759999999999999 7.096  C 0.6359999999999999 6.969333333333335  0.6159999999999999 6.820666666666668  0.6159999999999999 6.65  L 0.6159999999999999 6.33  L 1.23 6.586  C 1.4353333333333333 6.459333333333335  1.5586666666666669 6.352666666666668  1.6 6.266  L 1.846 5.757999999999999  L 2.338 5.821999999999999  L 2.706 4.7379999999999995  L 2.646 4.164  L 2.9539999999999997 4.353999999999999  L 3.26 4.6739999999999995  C 3.4653333333333327 4.588666666666667  3.5886666666666667 4.503333333333334  3.63 4.417999999999999  L 4.184 3.718  L 4.736000000000001 3.782  L 4.5520000000000005 3.3360000000000003  L 4.184 2.888  L 3.63 2.6980000000000004  C 3.875333333333333 2.315333333333335  4.408666666666667 2.0386666666666677  5.23 1.8680000000000003  L 7.198 1.6780000000000008  L 7.8740000000000006 1.232000000000001  L 9.474 0.9120000000000008  L 11.934000000000001 0.7840000000000007  L 12.794 0.5940000000000012  C 13.123333333333335 0.4660000000000011  13.452000000000002 0.4446666666666683  13.780000000000001 0.5300000000000011  L 14.764000000000003 0.4660000000000011  C 15.420000000000002 0.29666666666666863  15.891333333333336 0.25400000000000134  16.178 0.33800000000000097  L 16.978 0.402000000000001  L 18.086000000000002 0.4660000000000011  L 19.746000000000002 0.7860000000000014  L 21.222 0.9120000000000008  L 22.268 0.4660000000000011  C 22.51466666666667 0.4660000000000011  22.781333333333336 0.636000000000001  23.068 0.9760000000000009  L 23.684 1.4220000000000006  L 24.976000000000006 1.4220000000000006  L 25.406000000000002 1.9320000000000004  L 25.346000000000004 2.2520000000000007  L 25.714 3.2720000000000002  L 25.96 3.144  L 26.513999999999996 2.5060000000000002  L 27.128 3.4619999999999997  L 26.39 3.208  C 26.10333333333334 3.208000000000002  25.939333333333334 3.4200000000000017  25.898000000000003 3.8439999999999994  L 26.513999999999996 3.9719999999999995  L 26.759999999999998 4.292  L 27.127999999999997 4.164  C 27.333333333333332 4.078666666666667  27.538666666666664 4.121333333333334  27.744 4.292  C 27.989333333333327 4.418666666666667  28.153333333333332 4.567333333333334  28.235999999999997 4.7379999999999995  L 28.603999999999992 5.247999999999999  L 29.403999999999996 5.247999999999999  C 29.404000000000003 5.120000000000001  29.424 5.034666666666666  29.463999999999995 4.991999999999999  C 29.506666666666664 4.906666666666666  29.547999999999995 4.843333333333334  29.587999999999994 4.802  L 29.711999999999996 5.437999999999999  L 29.95799999999999 5.437999999999999  L 30.141999999999992 5.247999999999999  L 30.32799999999999 5.568  L 30.511999999999993 5.055999999999999  C 31.045333333333332 5.056000000000001  31.352666666666664 5.013333333333334  31.433999999999994 4.927999999999999  C 31.433999999999997 4.801333333333334  31.39333333333333 4.695333333333334  31.311999999999994 4.609999999999999  L 31.065999999999995 4.289999999999999  C 31.065999999999995 4.077999999999999  31.229999999999997 3.9933333333333323  31.557999999999996 4.036  L 32.418 4.292  L 33.034 4.228  L 33.402 4.548  L 33.526 4.802  C 33.156666666666666 4.716666666666667  32.910000000000004 4.7379999999999995  32.786 4.866  C 32.706 4.949999999999999  32.68600000000001 5.0986666666666665  32.726 5.311999999999999  L 33.156 5.692  C 33.156000000000006 5.990666666666668  33.300000000000004 6.3100000000000005  33.588 6.65  L 33.834 6.396000000000001  L 33.894000000000005 5.886000000000001  L 34.142 6.204000000000001  L 35.186 6.204000000000001  C 35.391333333333336 6.204000000000001  35.55533333333334 6.437333333333335  35.678 6.904  L 35.864 7.5440000000000005  L 36.11 7.734  L 36.418 7.414  L 37.402 7.734  L 37.586 7.414  L 37.894 7.288  C 38.058 7.160000000000002  38.16066666666667 7.053333333333335  38.202 6.968  L 38.202 6.65  L 38.077999999999996 6.33  L 38.937999999999995 6.586  C 39.10333333333333 6.416666666666668  39.205999999999996 6.289333333333335  39.245999999999995 6.204000000000001  C 39.16466666666666 5.9906666666666695  39.08266666666666 5.884000000000002  38.99999999999999 5.884  L 38.385999999999996 5.758000000000001  L 38.385999999999996 5.438000000000001  L 38.56999999999999 4.992000000000001  L 38.75399999999999 4.610000000000001  C 38.959333333333326 4.736666666666668  39.08266666666666 4.8433333333333355  39.12399999999999 4.9300000000000015  L 39.43199999999999 5.374000000000002  L 39.86199999999999 5.312000000000003  L 40.29199999999999 5.248000000000003  L 41.83199999999999 6.586000000000002  L 42.261999999999986 6.522000000000002  L 42.691999999999986 7.096000000000002  L 43.06199999999998 7.288000000000002  C 42.93799999999999 7.457333333333336  42.93799999999999 7.648000000000003  43.06199999999998 7.860000000000001  L 43.49199999999998 7.670000000000002  L 43.92199999999998 7.670000000000002  L 44.29199999999998 8.308000000000003  L 44.65999999999998 8.944000000000003  C 44.987999999999985 8.944000000000003  45.23466666666665 8.986666666666672  45.399999999999984 9.072000000000003  L 45.643999999999984 10.220000000000002  L 46.32199999999998 10.602000000000004  L 46.87399999999998 10.794000000000004  C 46.87399999999998 11.007333333333339  46.833333333333314 11.177333333333337  46.75199999999998 11.304000000000006  L 46.87399999999998 11.942000000000007  L 47.05999999999998 12.322000000000006  L 46.99799999999998 12.770000000000007  L 47.243999999999986 12.642000000000007  C 47.40799999999999 12.428666666666672  47.53133333333332 12.30133333333334  47.61399999999998 12.260000000000005  L 47.859999999999985 12.132000000000005  Z " stroke-width="0" stroke-dasharray="0" stroke="rgba(255, 255, 255, 0)" fill="none" class="stroke" mask="url(#Clip6826)" />
    <path d="M 31.989999999999995 2.889999999999999  C 32.03 2.804666666666666  32.153333333333336 2.7413333333333334  32.36 2.6999999999999993  C 32.48266666666667 2.826666666666666  32.48266666666667 3.017333333333333  32.36 3.2719999999999985  C 32.31866666666667 3.357333333333333  32.19533333333334 3.421333333333333  31.989999999999995 3.4639999999999986  C 31.867333333333335 3.3359999999999985  31.867333333333335 3.144666666666666  31.989999999999995 2.889999999999999  Z " stroke-width="0" stroke-dasharray="0" stroke="rgba(255, 255, 255, 0)" fill="none" class="stroke" mask="url(#Clip6826)" />
    <path d="M 44.97 14.557999999999996  L 44.97 14.555999999999997  C 45.092666666666666 14.683999999999997  45.092666666666666 14.854  44.97 15.065999999999999  L 44.662 15.193999999999999  L 44.602 14.747999999999998  C 44.602000000000004 14.621333333333332  44.622 14.536666666666665  44.662 14.493999999999996  C 44.74466666666667 14.45133333333333  44.84733333333334 14.472666666666665  44.97 14.557999999999996  Z " stroke-width="0" stroke-dasharray="0" stroke="rgba(255, 255, 255, 0)" fill="none" class="stroke" mask="url(#Clip6826)" />
    <path d="M 41.894 11.559999999999995  C 41.97533333333334 11.346666666666664  42.13933333333333 11.304666666666662  42.385999999999996 11.433999999999997  C 42.46733333333333 11.518  42.507999999999996 11.73  42.507999999999996 12.069999999999997  C 42.343999999999994 12.155333333333331  42.18 12.176666666666666  42.016 12.133999999999997  C 41.812000000000005 12.007333333333328  41.77133333333334 11.815999999999995  41.894 11.559999999999995  Z " stroke-width="0" stroke-dasharray="0" stroke="rgba(255, 255, 255, 0)" fill="none" class="stroke" mask="url(#Clip6826)" />
    <path d="M 24.791999999999994 3.1459999999999972  L 24.977999999999994 2.953999999999997  L 24.60799999999999 3.6539999999999964  L 24.791999999999994 3.1459999999999972  Z " stroke-width="0" stroke-dasharray="0" stroke="rgba(255, 255, 255, 0)" fill="none" class="stroke" mask="url(#Clip6826)" />
    <path d="M 33.711999999999996 27.433999999999997  L 33.465999999999994 27.561999999999998  L 33.21999999999999 27.18  L 33.465999999999994 26.988  C 33.67133333333333 27.03066666666667  33.75333333333333 27.179333333333332  33.711999999999996 27.433999999999997  Z " stroke-width="0" stroke-dasharray="0" stroke="rgba(255, 255, 255, 0)" fill="none" class="stroke" mask="url(#Clip6826)" />
    <path d="M 43.74 18.064  L 43.739999999999995 18.061999999999998  C 43.49333333333333 17.892666666666663  43.32933333333333 17.72333333333333  43.248 17.554  L 43.616 17.808  L 43.74 18.064  Z " stroke-width="0" stroke-dasharray="0" stroke="rgba(255, 255, 255, 0)" fill="none" class="stroke" mask="url(#Clip6826)" />
    <path d="M 19.746000000000002 28.9  L 19.132 29.409999999999997  L 19.438000000000002 29.092  L 19.746000000000002 28.9  Z " stroke-width="0" stroke-dasharray="0" stroke="rgba(255, 255, 255, 0)" fill="none" class="stroke" mask="url(#Clip6826)" />
    <path d="M 45.274 13.025999999999996  L 45.58 12.899999999999999  L 45.396 13.279999999999998  L 45.336 13.473999999999997  L 45.274 13.025999999999996  Z " stroke-width="0" stroke-dasharray="0" stroke="rgba(255, 255, 255, 0)" fill="none" class="stroke" mask="url(#Clip6826)" />
    <path d="M 45.766 16.595999999999997  L 45.888 16.023999999999997  L 45.766 16.595999999999997  Z " stroke-width="0" stroke-dasharray="0" stroke="rgba(255, 255, 255, 0)" fill="none" class="stroke" mask="url(#Clip6826)" />
    <path d="M 41.21399999999999 9.137999999999998  L 41.519999999999996 9.009999999999998  L 41.705999999999996 9.265999999999998  L 41.459999999999994 9.329999999999998  L 41.21399999999999 9.137999999999998  Z " stroke-width="0" stroke-dasharray="0" stroke="rgba(255, 255, 255, 0)" fill="none" class="stroke" mask="url(#Clip6826)" />
    <path d="M 30.263999999999996 24.183999999999997  L 30.509999999999998 23.991999999999997  L 30.263999999999996 24.183999999999997  Z " stroke-width="0" stroke-dasharray="0" stroke="rgba(255, 255, 255, 0)" fill="none" class="stroke" mask="url(#Clip6826)" />
    <path d="M 29.160000000000004 2.8260000000000005  L 29.22 2.5060000000000002  L 29.160000000000004 2.8260000000000005  Z " stroke-width="0" stroke-dasharray="0" stroke="rgba(255, 255, 255, 0)" fill="none" class="stroke" mask="url(#Clip6826)" />
    <path d="M 42.2 9.902000000000001  L 42.322 9.582  L 42.2 9.902000000000001  Z " stroke-width="0" stroke-dasharray="0" stroke="rgba(255, 255, 255, 0)" fill="none" class="stroke" mask="url(#Clip6826)" />
    <path d="M 42.076 19.972  L 42.076 19.974  L 42.2 20.164  L 42.014 20.292  L 42.076 19.972  Z " stroke-width="0" stroke-dasharray="0" stroke="rgba(255, 255, 255, 0)" fill="none" class="stroke" mask="url(#Clip6826)" />
    <path d="M 30.141999999999996 3.080000000000002  L 30.266 2.8880000000000017  L 30.141999999999996 3.080000000000002  Z " stroke-width="0" stroke-dasharray="0" stroke="rgba(255, 255, 255, 0)" fill="none" class="stroke" mask="url(#Clip6826)" />
    <path d="M 33.466 26.412  L 33.586 26.158  L 33.466 26.412  Z " stroke-width="0" stroke-dasharray="0" stroke="rgba(255, 255, 255, 0)" fill="none" class="stroke" mask="url(#Clip6826)" />
    <path d="M 19.5 12.770000000000003  L 19.746 12.514000000000003  L 19.5 12.770000000000003  Z " stroke-width="0" stroke-dasharray="0" stroke="rgba(255, 255, 255, 0)" fill="none" class="stroke" mask="url(#Clip6826)" />
    <path d="M 19.375999999999998 30.811999999999998  L 19.378 30.811999999999998  L 19.316 31.131999999999998  L 19.375999999999998 30.811999999999998  Z " stroke-width="0" stroke-dasharray="0" stroke="rgba(255, 255, 255, 0)" fill="none" class="stroke" mask="url(#Clip6826)" />
    <path d="M 38.016 5.883999999999997  L 38.018 5.883999999999997  L 38.138 6.075999999999997  L 37.832 5.947999999999997  L 38.016 5.883999999999997  Z " stroke-width="0" stroke-dasharray="0" stroke="rgba(255, 255, 255, 0)" fill="none" class="stroke" mask="url(#Clip6826)" />
    <path d="M 27.988 23.225999999999996  L 27.990000000000002 23.223999999999997  L 27.927999999999997 23.479999999999997  L 27.988 23.225999999999996  Z " stroke-width="0" stroke-dasharray="0" stroke="rgba(255, 255, 255, 0)" fill="none" class="stroke" mask="url(#Clip6826)" />
    <path d="M 42.19800000000001 10.283999999999999  L 42.2 10.283999999999999  L 42.138000000000005 10.538  L 42.19800000000001 10.283999999999999  Z " stroke-width="0" stroke-dasharray="0" stroke="rgba(255, 255, 255, 0)" fill="none" class="stroke" mask="url(#Clip6826)" />
    <path d="M 41.646 13.471999999999998  L 41.768 13.279999999999998  L 41.646 13.471999999999998  Z " stroke-width="0" stroke-dasharray="0" stroke="rgba(255, 255, 255, 0)" fill="none" class="stroke" mask="url(#Clip6826)" />
    <path d="M 42.384 21.311999999999998  L 42.568 21.183999999999997  L 42.384 21.311999999999998  Z " stroke-width="0" stroke-dasharray="0" stroke="rgba(255, 255, 255, 0)" fill="none" class="stroke" mask="url(#Clip6826)" />
    <path d="M 3.3819999999999997 5.245999999999999  L 3.3839999999999995 5.247999999999999  L 3.322 5.565999999999999  L 3.3819999999999997 5.245999999999999  Z " stroke-width="0" stroke-dasharray="0" stroke="rgba(255, 255, 255, 0)" fill="none" class="stroke" mask="url(#Clip6826)" />
    <path d="M 44.352 16.022  L 44.598 15.893999999999998  L 44.352 16.022  Z " stroke-width="0" stroke-dasharray="0" stroke="rgba(255, 255, 255, 0)" fill="none" class="stroke" mask="url(#Clip6826)" />
    <path d="M 43.43 15.511999999999997  L 43.798 15.447999999999997  L 43.43 15.511999999999997  Z " stroke-width="0" stroke-dasharray="0" stroke="rgba(255, 255, 255, 0)" fill="none" class="stroke" mask="url(#Clip6826)" />
    <path d="M 30.758000000000003 29.281999999999996  L 30.818000000000005 29.089999999999996  L 30.758000000000003 29.281999999999996  Z " stroke-width="0" stroke-dasharray="0" stroke="rgba(255, 255, 255, 0)" fill="none" class="stroke" mask="url(#Clip6826)" />
    <path d="M 43.246 16.465999999999994  L 43.246 16.785999999999994  L 43.246 16.465999999999994  Z " stroke-width="0" stroke-dasharray="0" stroke="rgba(255, 255, 255, 0)" fill="none" class="stroke" mask="url(#Clip6826)" />
    <path d="M 46.25800000000001 12.513999999999996  L 46.260000000000005 12.513999999999996  C 46.21866666666668 12.59933333333333  46.19800000000001 12.684666666666665  46.19800000000001 12.769999999999996  C 46.19800000000001 12.641999999999996  46.21800000000001 12.556666666666665  46.25800000000001 12.513999999999996  Z " stroke-width="0" stroke-dasharray="0" stroke="rgba(255, 255, 255, 0)" fill="none" class="stroke" mask="url(#Clip6826)" />
    <path d="M 2.952 4.289999999999999  L 3.012 4.036  L 2.952 4.289999999999999  Z " stroke-width="0" stroke-dasharray="0" stroke="rgba(255, 255, 255, 0)" fill="none" class="stroke" mask="url(#Clip6826)" />
    <path d="M 37.768 9.645999999999997  L 38.014 9.581999999999997  L 37.768 9.645999999999997  Z " stroke-width="0" stroke-dasharray="0" stroke="rgba(255, 255, 255, 0)" fill="none" class="stroke" mask="url(#Clip6826)" />
    <path d="M 36.908 5.947999999999997  L 37.03 5.757999999999997  L 36.908 5.947999999999997  Z " stroke-width="0" stroke-dasharray="0" stroke="rgba(255, 255, 255, 0)" fill="none" class="stroke" mask="url(#Clip6826)" />
    <path d="M 21.656 2.1880000000000006  L 21.84 2.1240000000000006  L 21.656 2.1880000000000006  Z " stroke-width="0" stroke-dasharray="0" stroke="rgba(255, 255, 255, 0)" fill="none" class="stroke" mask="url(#Clip6826)" />
    <path d="M 27.990000000000002 4.6739999999999995  L 27.992000000000004 4.6739999999999995  L 27.93 4.927999999999999  L 27.990000000000002 4.6739999999999995  Z " stroke-width="0" stroke-dasharray="0" stroke="rgba(255, 255, 255, 0)" fill="none" class="stroke" mask="url(#Clip6826)" />
    <path d="M 27.130000000000003 4.609999999999999  L 27.132 4.609999999999999  L 27.008000000000003 4.7379999999999995  L 27.130000000000003 4.609999999999999  Z " stroke-width="0" stroke-dasharray="0" stroke="rgba(255, 255, 255, 0)" fill="none" class="stroke" mask="url(#Clip6826)" />
    <path d="M 19.130000000000003 30.619999999999997  L 19.19 30.366  L 19.130000000000003 30.619999999999997  Z " stroke-width="0" stroke-dasharray="0" stroke="rgba(255, 255, 255, 0)" fill="none" class="stroke" mask="url(#Clip6826)" />
    <path d="M 41.276 14.3  L 41.396 14.428  L 41.276 14.3  Z " stroke-width="0" stroke-dasharray="0" stroke="rgba(255, 255, 255, 0)" fill="none" class="stroke" mask="url(#Clip6826)" />
    <path d="M 26.142000000000003 4.100000000000001  L 26.266000000000005 4.2280000000000015  L 26.142000000000003 4.100000000000001  Z " stroke-width="0" stroke-dasharray="0" stroke="rgba(255, 255, 255, 0)" fill="none" class="stroke" mask="url(#Clip6826)" />
    <path d="M 45.766000000000005 12.260000000000012  L 46.01200000000001 12.324000000000009  C 46.01200000000001 11.984000000000009  45.95000000000001 11.707333333333342  45.82600000000001 11.49400000000001  C 45.744666666666674 11.28200000000001  45.60133333333334 11.091333333333345  45.39600000000001 10.922000000000011  L 45.336000000000006 11.75000000000001  L 45.766000000000005 11.94200000000001  C 45.80600000000001 12.06866666666668  45.80600000000001 12.174666666666681  45.766000000000005 12.260000000000012  Z " stroke-width="0" stroke-dasharray="0" stroke="rgba(255, 255, 255, 0)" fill="none" class="stroke" mask="url(#Clip6826)" />
    <path d="M 41.09200000000001 10.666000000000007  L 41.21200000000001 10.794000000000008  L 41.09200000000001 10.666000000000007  Z " stroke-width="0" stroke-dasharray="0" stroke="rgba(255, 255, 255, 0)" fill="none" class="stroke" mask="url(#Clip6826)" />
    <path d="M 43.674000000000014 13.662000000000003  L 43.67200000000001 13.662000000000006  L 43.366000000000014 13.598000000000006  L 42.99800000000001 13.024000000000004  L 43.12000000000001 12.514000000000003  L 42.56600000000001 12.898000000000003  L 42.87400000000001 13.278000000000002  L 42.93400000000001 13.472000000000001  L 42.198000000000015 13.790000000000003  L 42.69000000000001 13.854000000000003  C 42.771333333333345 13.939333333333337  42.85333333333335 14.00266666666667  42.936000000000014 14.044000000000004  C 43.05866666666668 14.086666666666673  43.14066666666668 14.108000000000004  43.182000000000016 14.108000000000004  L 43.674000000000014 13.662000000000003  Z " stroke-width="0" stroke-dasharray="0" stroke="rgba(255, 255, 255, 0)" fill="none" class="stroke" mask="url(#Clip6826)" />
    <path d="M 42.19800000000001 12.960000000000008  L 42.44400000000001 12.514000000000006  L 42.19800000000001 12.324000000000005  L 41.766000000000005 12.196000000000005  L 41.58200000000001 11.876000000000005  L 41.336000000000006 12.132000000000005  L 41.15200000000001 12.578000000000007  L 41.644000000000005 12.770000000000007  C 41.88933333333334 12.77000000000001  42.07400000000001 12.833333333333343  42.19800000000001 12.960000000000008  Z " stroke-width="0" stroke-dasharray="0" stroke="rgba(255, 255, 255, 0)" fill="none" class="stroke" mask="url(#Clip6826)" />
    <path d="M 31.311999999999998 6.0120000000000005  L 31.68 5.566000000000001  L 31.433999999999997 5.438000000000001  L 31.066000000000003 5.248000000000001  C 30.902000000000005 5.248000000000003  30.820000000000007 5.290000000000003  30.820000000000007 5.3740000000000006  L 30.880000000000003 5.758000000000001  L 31.311999999999998 6.0120000000000005  Z " stroke-width="0" stroke-dasharray="0" stroke="rgba(255, 255, 255, 0)" fill="none" class="stroke" mask="url(#Clip6826)" />
    <path d="M 39.06199999999999 19.144000000000005  L 39.062 19.146  L 39.186 18.380000000000003  C 39.186 17.700000000000003  38.93933333333334 16.977333333333338  38.446 16.212000000000003  C 38.03666666666667 15.446666666666673  37.50333333333334 14.830666666666673  36.846 14.364000000000004  C 36.312666666666665 13.853333333333339  35.57533333333333 13.406666666666673  34.63399999999999 13.024000000000004  L 32.17399999999999 11.942000000000004  L 31.249999999999993 11.368000000000002  L 29.895999999999994 10.858  L 28.481999999999992 10.411999999999999  L 26.205999999999996 9.901999999999997  L 25.465999999999994 9.773999999999997  C 25.097999999999992 9.773999999999997  24.81133333333333 9.816666666666663  24.605999999999995 9.901999999999997  C 24.441999999999997 9.943333333333335  24.380666666666663 10.091999999999999  24.421999999999993 10.347999999999999  L 25.159999999999997 11.814  C 25.529333333333327 12.494  25.877999999999993 12.961333333333336  26.205999999999996 13.216000000000001  L 26.75999999999999 13.598000000000003  L 26.75999999999999 13.982000000000003  L 27.373999999999995 14.746000000000002  L 27.43399999999999 15.256000000000004  C 27.599333333333327 15.384000000000007  27.72266666666666 15.448000000000008  27.80399999999999 15.448000000000004  C 28.009333333333327 15.574666666666673  28.275999999999993 15.893333333333338  28.603999999999992 16.404000000000003  L 29.28199999999999 17.232000000000003  L 30.325999999999993 18.762000000000004  L 31.249999999999993 20.420000000000005  L 31.679999999999993 21.694000000000006  L 31.557999999999993 22.524000000000004  L 31.803999999999995 22.906000000000006  L 31.557999999999993 23.288000000000007  C 31.433999999999997 23.41600000000001  31.433999999999997 23.54400000000001  31.557999999999993 23.672000000000008  L 31.987999999999992 23.544000000000008  L 32.72599999999999 23.224000000000007  C 32.93133333333333 23.224000000000007  33.279999999999994 23.097333333333342  33.77199999999999 22.84400000000001  L 35.12599999999999 22.204000000000008  L 37.03199999999999 21.44000000000001  C 37.810666666666656 21.10000000000001  38.36399999999999 20.76000000000001  38.691999999999986 20.42000000000001  L 38.93799999999999 19.782000000000007  C 38.93799999999999 19.484666666666676  38.97933333333333 19.27200000000001  39.06199999999999 19.144000000000005  Z " stroke-width="0" stroke-dasharray="0" stroke="rgba(255, 255, 255, 0)" fill="none" class="stroke" mask="url(#Clip6826)" />
  </g>
</svg>