<?xml version="1.0" encoding="utf-8"?>
<svg version="1.1" xmlns:xlink="http://www.w3.org/1999/xlink" width="48px" height="48px" xmlns="http://www.w3.org/2000/svg">
  <defs>
    <pattern id="BGPattern" patternUnits="userSpaceOnUse" alignment="0 0" imageRepeat="None" />
    <mask fill="white" id="Clip7389">
      <path d="M 16.848 2.37  C 15.92 1.016  15.192 0.082  14.905999999999999 0  C 14.546000000000003 1.174  14.168000000000001 2.334  13.776000000000002 3.5  C 5.402507774334998 7.243606234061559  0.008297193935507409 15.55576522075729  0 24.728000000000005  C 0.004769207709915172 27.035276806543138  0.35257193800340864 29.32902233210275  1.032 31.534000000000006  L 0.354 32.730000000000004  L 0 33.46  L 0.558 33.746  C 1.0337821278872728 33.949120049886965  1.5309097472868796 34.098057069464176  2.04 34.190000000000005  C 2.5890210024151576 35.426723717223396  3.2448382554213158 36.61321758414167  4 37.736  C 12.068000000000001 38.422  21.1 38.76  28.892 37.623999999999995  C 35.275999999999996 36.69799999999999  40.772 34.77799999999999  44.362 31.389999999999993  C 44.866 30.923999999999992  45.31 30.441999999999993  45.71 29.94599999999999  C 45.748 29.869999999999997  45.784 29.83999999999999  45.83 29.793999999999993  C 45.852 29.793999999999993  45.882 29.71999999999999  45.906 29.689999999999994  C 45.936 29.689999999999994  45.966 29.61399999999999  45.988 29.575999999999993  C 46.004 29.575999999999993  46.018 29.499999999999993  46.034 29.499999999999993  C 46.693999999999996 28.611999999999995  47.208 27.715999999999994  47.635999999999996 26.879999999999992  L 47.998 26.14999999999999  L 47.268 25.419999999999995  C 47.037328123353426 25.17657390156503  46.79644541324403 24.94303110783015  46.546 24.71999999999999  C 46.546 11.865020162938448  36.124979837061545 1.4439999999999984  23.27 1.444  C 21.09659917200013 1.4513234018971557  18.934934914957392 1.7630177497672235  16.848 2.37  Z M 15.644000000000002 3.276  L 15.636000000000003 3.274  C 18.12 7.639999999999999  20.26 10.12  22.908 14.913999999999998  C 23.172 17.962  24.247999999999998 33.814  24.362000000000002 35.275999999999996  C 23.578000000000003 35.202  19.392000000000003 34.796  14.154000000000003 34.245999999999995  C 11.294000000000002 33.952  8.356000000000002 33.614  5.970000000000002 33.266  L 2.1700000000000026 32.372  C 6.4680000000000035 24.798000000000002  13.272000000000002 12.918  15.644000000000002 3.276  Z M 24.723999999999997 15.634  L 24.722 15.634  C 24.722 15.634  34.704 23.488  38.906 33.094  C 33.786 35.614000000000004  29.073999999999998 35.29  26.183999999999997 35.274  C 28.229999999999997 30.006  28.229999999999997 22.854  24.723999999999997 15.634  Z M 31.631999999999998 19.994000000000007  L 31.634 20.002000000000002  C 33.593867674647285 20.540976445091882  35.53497401051691 21.145987938780454  37.454 21.816000000000003  C 40.99 23.074  44.288 24.796000000000003  46.184 26.544000000000004  C 44.87541990291362 29.026609075461074  42.846609075461075 31.055419902913627  40.364 32.364000000000004  C 40.666 29.374000000000002  39.583999999999996 26.498000000000005  37.452 24.360000000000007  C 35.878 22.786000000000005  33.808 21.454000000000008  31.631999999999998 19.994000000000007  Z M 45.054000000000016 32.934000000000005  L 45.048 32.958  C 40.344 36.292  34.796 38.318  29.118000000000002 39.182  C 26.652925357593226 39.52121027371445  24.173696281044407 39.74811145434072  21.688000000000002 39.862  L 21.042 39.862  C 18.558087987390305 39.948604013297825  16.071912012609697 39.948604013297825  13.587999999999997 39.862  C 10.79934010114561 39.77664697968335  8.013177742980869 39.62326800831478  5.232000000000001 39.402  L 5.226000000000001 39.402  C 10.336000000000002 45.912  19.212000000000003 49.188  27.410000000000004 47.606  C 30.64081050754701 47.034933650711366  33.70973794542339 45.771337915952124  36.406000000000006 43.902  C 36.41066666656516 43.90200140344851  36.41533333343485 43.90200140344851  36.42000000000001 43.902  C 37.04400000000001 43.474000000000004  37.64800000000001 43.014  38.226000000000006 42.532000000000004  C 38.251389507079104 42.50739109108015  38.27672290618075 42.48272436037591  38.302000000000014 42.45800000000001  C 41.330671360438444 39.91351125733604  43.65552069957421 36.63420659117356  45.054000000000016 32.934000000000005  Z M 5.0680000000000005 39.244  C 5.0520000000000005 39.244  5.038 39.168  5.022 39.168  C 5.037284974778479 39.193362571471646  5.05261833603136 39.218695950932926  5.0680000000000005 39.244  Z " fill-rule="evenodd" />
    </mask>
  </defs>
  <g>
    <path d="M 16.848 2.37  C 15.92 1.016  15.192 0.082  14.905999999999999 0  C 14.546000000000003 1.174  14.168000000000001 2.334  13.776000000000002 3.5  C 5.402507774334998 7.243606234061559  0.008297193935507409 15.55576522075729  0 24.728000000000005  C 0.004769207709915172 27.035276806543138  0.35257193800340864 29.32902233210275  1.032 31.534000000000006  L 0.354 32.730000000000004  L 0 33.46  L 0.558 33.746  C 1.0337821278872728 33.949120049886965  1.5309097472868796 34.098057069464176  2.04 34.190000000000005  C 2.5890210024151576 35.426723717223396  3.2448382554213158 36.61321758414167  4 37.736  C 12.068000000000001 38.422  21.1 38.76  28.892 37.623999999999995  C 35.275999999999996 36.69799999999999  40.772 34.77799999999999  44.362 31.389999999999993  C 44.866 30.923999999999992  45.31 30.441999999999993  45.71 29.94599999999999  C 45.748 29.869999999999997  45.784 29.83999999999999  45.83 29.793999999999993  C 45.852 29.793999999999993  45.882 29.71999999999999  45.906 29.689999999999994  C 45.936 29.689999999999994  45.966 29.61399999999999  45.988 29.575999999999993  C 46.004 29.575999999999993  46.018 29.499999999999993  46.034 29.499999999999993  C 46.693999999999996 28.611999999999995  47.208 27.715999999999994  47.635999999999996 26.879999999999992  L 47.998 26.14999999999999  L 47.268 25.419999999999995  C 47.037328123353426 25.17657390156503  46.79644541324403 24.94303110783015  46.546 24.71999999999999  C 46.546 11.865020162938448  36.124979837061545 1.4439999999999984  23.27 1.444  C 21.09659917200013 1.4513234018971557  18.934934914957392 1.7630177497672235  16.848 2.37  Z M 15.644000000000002 3.276  L 15.636000000000003 3.274  C 18.12 7.639999999999999  20.26 10.12  22.908 14.913999999999998  C 23.172 17.962  24.247999999999998 33.814  24.362000000000002 35.275999999999996  C 23.578000000000003 35.202  19.392000000000003 34.796  14.154000000000003 34.245999999999995  C 11.294000000000002 33.952  8.356000000000002 33.614  5.970000000000002 33.266  L 2.1700000000000026 32.372  C 6.4680000000000035 24.798000000000002  13.272000000000002 12.918  15.644000000000002 3.276  Z M 24.723999999999997 15.634  L 24.722 15.634  C 24.722 15.634  34.704 23.488  38.906 33.094  C 33.786 35.614000000000004  29.073999999999998 35.29  26.183999999999997 35.274  C 28.229999999999997 30.006  28.229999999999997 22.854  24.723999999999997 15.634  Z M 31.631999999999998 19.994000000000007  L 31.634 20.002000000000002  C 33.593867674647285 20.540976445091882  35.53497401051691 21.145987938780454  37.454 21.816000000000003  C 40.99 23.074  44.288 24.796000000000003  46.184 26.544000000000004  C 44.87541990291362 29.026609075461074  42.846609075461075 31.055419902913627  40.364 32.364000000000004  C 40.666 29.374000000000002  39.583999999999996 26.498000000000005  37.452 24.360000000000007  C 35.878 22.786000000000005  33.808 21.454000000000008  31.631999999999998 19.994000000000007  Z M 45.054000000000016 32.934000000000005  L 45.048 32.958  C 40.344 36.292  34.796 38.318  29.118000000000002 39.182  C 26.652925357593226 39.52121027371445  24.173696281044407 39.74811145434072  21.688000000000002 39.862  L 21.042 39.862  C 18.558087987390305 39.948604013297825  16.071912012609697 39.948604013297825  13.587999999999997 39.862  C 10.79934010114561 39.77664697968335  8.013177742980869 39.62326800831478  5.232000000000001 39.402  L 5.226000000000001 39.402  C 10.336000000000002 45.912  19.212000000000003 49.188  27.410000000000004 47.606  C 30.64081050754701 47.034933650711366  33.70973794542339 45.771337915952124  36.406000000000006 43.902  C 36.41066666656516 43.90200140344851  36.41533333343485 43.90200140344851  36.42000000000001 43.902  C 37.04400000000001 43.474000000000004  37.64800000000001 43.014  38.226000000000006 42.532000000000004  C 38.251389507079104 42.50739109108015  38.27672290618075 42.48272436037591  38.302000000000014 42.45800000000001  C 41.330671360438444 39.91351125733604  43.65552069957421 36.63420659117356  45.054000000000016 32.934000000000005  Z M 5.0680000000000005 39.244  C 5.0520000000000005 39.244  5.038 39.168  5.022 39.168  C 5.037284974778479 39.193362571471646  5.05261833603136 39.218695950932926  5.0680000000000005 39.244  Z " fill-rule="nonzero" fill="rgba(82, 148, 226, 1)" stroke="none" class="fill" />
    <path d="M 16.848 2.37  C 15.92 1.016  15.192 0.082  14.905999999999999 0  C 14.546000000000003 1.174  14.168000000000001 2.334  13.776000000000002 3.5  C 5.402507774334998 7.243606234061559  0.008297193935507409 15.55576522075729  0 24.728000000000005  C 0.004769207709915172 27.035276806543138  0.35257193800340864 29.32902233210275  1.032 31.534000000000006  L 0.354 32.730000000000004  L 0 33.46  L 0.558 33.746  C 1.0337821278872728 33.949120049886965  1.5309097472868796 34.098057069464176  2.04 34.190000000000005  C 2.5890210024151576 35.426723717223396  3.2448382554213158 36.61321758414167  4 37.736  C 12.068000000000001 38.422  21.1 38.76  28.892 37.623999999999995  C 35.275999999999996 36.69799999999999  40.772 34.77799999999999  44.362 31.389999999999993  C 44.866 30.923999999999992  45.31 30.441999999999993  45.71 29.94599999999999  C 45.748 29.869999999999997  45.784 29.83999999999999  45.83 29.793999999999993  C 45.852 29.793999999999993  45.882 29.71999999999999  45.906 29.689999999999994  C 45.936 29.689999999999994  45.966 29.61399999999999  45.988 29.575999999999993  C 46.004 29.575999999999993  46.018 29.499999999999993  46.034 29.499999999999993  C 46.693999999999996 28.611999999999995  47.208 27.715999999999994  47.635999999999996 26.879999999999992  L 47.998 26.14999999999999  L 47.268 25.419999999999995  C 47.037328123353426 25.17657390156503  46.79644541324403 24.94303110783015  46.546 24.71999999999999  C 46.546 11.865020162938448  36.124979837061545 1.4439999999999984  23.27 1.444  C 21.09659917200013 1.4513234018971557  18.934934914957392 1.7630177497672235  16.848 2.37  Z " stroke-width="0" stroke-dasharray="0" stroke="rgba(255, 255, 255, 0)" fill="none" class="stroke" mask="url(#Clip7389)" />
    <path d="M 15.644000000000002 3.276  L 15.636000000000003 3.274  C 18.12 7.639999999999999  20.26 10.12  22.908 14.913999999999998  C 23.172 17.962  24.247999999999998 33.814  24.362000000000002 35.275999999999996  C 23.578000000000003 35.202  19.392000000000003 34.796  14.154000000000003 34.245999999999995  C 11.294000000000002 33.952  8.356000000000002 33.614  5.970000000000002 33.266  L 2.1700000000000026 32.372  C 6.4680000000000035 24.798000000000002  13.272000000000002 12.918  15.644000000000002 3.276  Z " stroke-width="0" stroke-dasharray="0" stroke="rgba(255, 255, 255, 0)" fill="none" class="stroke" mask="url(#Clip7389)" />
    <path d="M 24.723999999999997 15.634  L 24.722 15.634  C 24.722 15.634  34.704 23.488  38.906 33.094  C 33.786 35.614000000000004  29.073999999999998 35.29  26.183999999999997 35.274  C 28.229999999999997 30.006  28.229999999999997 22.854  24.723999999999997 15.634  Z " stroke-width="0" stroke-dasharray="0" stroke="rgba(255, 255, 255, 0)" fill="none" class="stroke" mask="url(#Clip7389)" />
    <path d="M 31.631999999999998 19.994000000000007  L 31.634 20.002000000000002  C 33.593867674647285 20.540976445091882  35.53497401051691 21.145987938780454  37.454 21.816000000000003  C 40.99 23.074  44.288 24.796000000000003  46.184 26.544000000000004  C 44.87541990291362 29.026609075461074  42.846609075461075 31.055419902913627  40.364 32.364000000000004  C 40.666 29.374000000000002  39.583999999999996 26.498000000000005  37.452 24.360000000000007  C 35.878 22.786000000000005  33.808 21.454000000000008  31.631999999999998 19.994000000000007  Z " stroke-width="0" stroke-dasharray="0" stroke="rgba(255, 255, 255, 0)" fill="none" class="stroke" mask="url(#Clip7389)" />
    <path d="M 45.054000000000016 32.934000000000005  L 45.048 32.958  C 40.344 36.292  34.796 38.318  29.118000000000002 39.182  C 26.652925357593226 39.52121027371445  24.173696281044407 39.74811145434072  21.688000000000002 39.862  L 21.042 39.862  C 18.558087987390305 39.948604013297825  16.071912012609697 39.948604013297825  13.587999999999997 39.862  C 10.79934010114561 39.77664697968335  8.013177742980869 39.62326800831478  5.232000000000001 39.402  L 5.226000000000001 39.402  C 10.336000000000002 45.912  19.212000000000003 49.188  27.410000000000004 47.606  C 30.64081050754701 47.034933650711366  33.70973794542339 45.771337915952124  36.406000000000006 43.902  C 36.41066666656516 43.90200140344851  36.41533333343485 43.90200140344851  36.42000000000001 43.902  C 37.04400000000001 43.474000000000004  37.64800000000001 43.014  38.226000000000006 42.532000000000004  C 38.251389507079104 42.50739109108015  38.27672290618075 42.48272436037591  38.302000000000014 42.45800000000001  C 41.330671360438444 39.91351125733604  43.65552069957421 36.63420659117356  45.054000000000016 32.934000000000005  Z " stroke-width="0" stroke-dasharray="0" stroke="rgba(255, 255, 255, 0)" fill="none" class="stroke" mask="url(#Clip7389)" />
    <path d="M 5.0680000000000005 39.244  C 5.0520000000000005 39.244  5.038 39.168  5.022 39.168  C 5.037284974778479 39.193362571471646  5.05261833603136 39.218695950932926  5.0680000000000005 39.244  Z " stroke-width="0" stroke-dasharray="0" stroke="rgba(255, 255, 255, 0)" fill="none" class="stroke" mask="url(#Clip7389)" />
  </g>
</svg>