<?xml version="1.0" encoding="utf-8"?>
<svg version="1.1" xmlns:xlink="http://www.w3.org/1999/xlink" width="22px" height="24px" xmlns="http://www.w3.org/2000/svg">
  <defs>
    <pattern id="BGPattern" patternUnits="userSpaceOnUse" alignment="0 0" imageRepeat="None" />
    <mask fill="white" id="Clip5761">
      <path d="M 20.75 5.5665  L 11.75 0.201  C 11.285898384862247 -0.06694919243112256  10.714101615137753 -0.06694919243112256  10.25 0.201  L 1.25 5.5665  C 0.7859101745932748 5.834442385396179  0.5000136136010451 6.3296152290347205  0.5 6.8655  L 0.5 17.1345  C 0.5000136136010451 17.670384770965278  0.7859101745932751 18.16555761460382  1.25 18.4335  L 10.25 23.799  C 10.714101615137753 24.066949192431125  11.285898384862247 24.066949192431125  11.75 23.799  L 20.75 18.4335  C 21.214089825406724 18.16555761460382  21.49998638639895 17.670384770965278  21.5 17.1345  L 21.5 6.8655  C 21.49998638639895 6.3296152290347205  21.214089825406724 5.834442385396179  20.75 5.5665  Z M 11 1.5  L 20 6.8655  L 20 17.1345  L 11 22.5  L 11 1.5  Z " fill-rule="evenodd" />
    </mask>
  </defs>
  <g>
    <path d="M 20.75 5.5665  L 11.75 0.201  C 11.285898384862247 -0.06694919243112256  10.714101615137753 -0.06694919243112256  10.25 0.201  L 1.25 5.5665  C 0.7859101745932748 5.834442385396179  0.5000136136010451 6.3296152290347205  0.5 6.8655  L 0.5 17.1345  C 0.5000136136010451 17.670384770965278  0.7859101745932751 18.16555761460382  1.25 18.4335  L 10.25 23.799  C 10.714101615137753 24.066949192431125  11.285898384862247 24.066949192431125  11.75 23.799  L 20.75 18.4335  C 21.214089825406724 18.16555761460382  21.49998638639895 17.670384770965278  21.5 17.1345  L 21.5 6.8655  C 21.49998638639895 6.3296152290347205  21.214089825406724 5.834442385396179  20.75 5.5665  Z M 11 1.5  L 20 6.8655  L 20 17.1345  L 11 22.5  L 11 1.5  Z " fill-rule="nonzero" fill="rgba(0, 0, 0, 1)" stroke="none" class="fill" />
    <path d="M 20.75 5.5665  L 11.75 0.201  C 11.285898384862247 -0.06694919243112256  10.714101615137753 -0.06694919243112256  10.25 0.201  L 1.25 5.5665  C 0.7859101745932748 5.834442385396179  0.5000136136010451 6.3296152290347205  0.5 6.8655  L 0.5 17.1345  C 0.5000136136010451 17.670384770965278  0.7859101745932751 18.16555761460382  1.25 18.4335  L 10.25 23.799  C 10.714101615137753 24.066949192431125  11.285898384862247 24.066949192431125  11.75 23.799  L 20.75 18.4335  C 21.214089825406724 18.16555761460382  21.49998638639895 17.670384770965278  21.5 17.1345  L 21.5 6.8655  C 21.49998638639895 6.3296152290347205  21.214089825406724 5.834442385396179  20.75 5.5665  Z " stroke-width="0" stroke-dasharray="0" stroke="rgba(255, 255, 255, 0)" fill="none" class="stroke" mask="url(#Clip5761)" />
    <path d="M 11 1.5  L 20 6.8655  L 20 17.1345  L 11 22.5  L 11 1.5  Z " stroke-width="0" stroke-dasharray="0" stroke="rgba(255, 255, 255, 0)" fill="none" class="stroke" mask="url(#Clip5761)" />
  </g>
</svg>