<?xml version="1.0" encoding="utf-8"?>
<svg version="1.1" xmlns:xlink="http://www.w3.org/1999/xlink" width="18px" height="24px" xmlns="http://www.w3.org/2000/svg">
  <defs>
    <pattern id="BGPattern" patternUnits="userSpaceOnUse" alignment="0 0" imageRepeat="None" />
    <mask fill="white" id="Clip5541">
      <path d="M 18 3  C 18 1.3431457505076196  16.65685424949238 0  15 0  L 3 0  C 1.3431457505076194 0  0 1.3431457505076196  0 3  L 0 21  C 0 22.65685424949238  1.3431457505076194 24  3 24  L 15 24  C 16.65685424949238 24  18 22.65685424949238  18 21  L 18 3  Z M 4.5 9  L 4.585500000000001 6  L 13.414500000000004 6  L 13.5 9  L 12.75 9  C 12.48 7.356  12.216000000000001 7.212  10.209000000000001 7.147499999999999  L 9.762 7.1325  L 9.762 16.2675  C 9.762 16.9725  9.912 17.1405  11.116500000000002 17.249999999999996  L 11.116500000000002 17.999999999999996  L 6.885 17.999999999999996  L 6.885 17.249999999999996  C 8.0835 17.140499999999996  8.232 16.973999999999997  8.232 16.269  L 8.232 7.1325  L 7.792499999999999 7.147499999999999  C 5.783999999999999 7.212  5.52 7.3575  5.25 9  L 4.5 9  Z " fill-rule="evenodd" />
    </mask>
  </defs>
  <g>
    <path d="M 18 3  C 18 1.3431457505076196  16.65685424949238 0  15 0  L 3 0  C 1.3431457505076194 0  0 1.3431457505076196  0 3  L 0 21  C 0 22.65685424949238  1.3431457505076194 24  3 24  L 15 24  C 16.65685424949238 24  18 22.65685424949238  18 21  L 18 3  Z M 4.5 9  L 4.585500000000001 6  L 13.414500000000004 6  L 13.5 9  L 12.75 9  C 12.48 7.356  12.216000000000001 7.212  10.209000000000001 7.147499999999999  L 9.762 7.1325  L 9.762 16.2675  C 9.762 16.9725  9.912 17.1405  11.116500000000002 17.249999999999996  L 11.116500000000002 17.999999999999996  L 6.885 17.999999999999996  L 6.885 17.249999999999996  C 8.0835 17.140499999999996  8.232 16.973999999999997  8.232 16.269  L 8.232 7.1325  L 7.792499999999999 7.147499999999999  C 5.783999999999999 7.212  5.52 7.3575  5.25 9  L 4.5 9  Z " fill-rule="nonzero" fill="rgba(0, 0, 0, 1)" stroke="none" class="fill" />
    <path d="M 18 3  C 18 1.3431457505076196  16.65685424949238 0  15 0  L 3 0  C 1.3431457505076194 0  0 1.3431457505076196  0 3  L 0 21  C 0 22.65685424949238  1.3431457505076194 24  3 24  L 15 24  C 16.65685424949238 24  18 22.65685424949238  18 21  L 18 3  Z " stroke-width="0" stroke-dasharray="0" stroke="rgba(255, 255, 255, 0)" fill="none" class="stroke" mask="url(#Clip5541)" />
    <path d="M 4.5 9  L 4.585500000000001 6  L 13.414500000000004 6  L 13.5 9  L 12.75 9  C 12.48 7.356  12.216000000000001 7.212  10.209000000000001 7.147499999999999  L 9.762 7.1325  L 9.762 16.2675  C 9.762 16.9725  9.912 17.1405  11.116500000000002 17.249999999999996  L 11.116500000000002 17.999999999999996  L 6.885 17.999999999999996  L 6.885 17.249999999999996  C 8.0835 17.140499999999996  8.232 16.973999999999997  8.232 16.269  L 8.232 7.1325  L 7.792499999999999 7.147499999999999  C 5.783999999999999 7.212  5.52 7.3575  5.25 9  L 4.5 9  Z " stroke-width="0" stroke-dasharray="0" stroke="rgba(255, 255, 255, 0)" fill="none" class="stroke" mask="url(#Clip5541)" />
  </g>
</svg>