<?xml version="1.0" encoding="utf-8"?>
<svg version="1.1" xmlns:xlink="http://www.w3.org/1999/xlink" width="44px" height="49px" xmlns="http://www.w3.org/2000/svg">
  <defs>
    <pattern id="BGPattern" patternUnits="userSpaceOnUse" alignment="0 0" imageRepeat="None" />
    <mask fill="white" id="Clip7197">
      <path d="M 23.845999999999997 48.506  C 23.286 48.832  22.648 49  21.996 49  C 21.354 49  20.714 48.832  20.151999999999997 48.506  L 14.279999999999998 45.032  C 13.403999999999998 44.541999999999994  13.831999999999997 44.367999999999995  14.119999999999997 44.266  C 15.29 43.86  15.525999999999996 43.766  16.775999999999996 43.058  C 16.905999999999995 42.984  17.077999999999996 43.012  17.211999999999996 43.092  L 21.723999999999997 45.769999999999996  C 21.887999999999998 45.86  22.118 45.86  22.267999999999997 45.769999999999996  L 39.858 35.617999999999995  C 40.022 35.523999999999994  40.126 35.336  40 35.141999999999996  L 40 14.841999999999999  C 40.126 14.644  40.019999999999996 14.458  39.852 14.358  L 22.269999999999992 4.214  C 22.107999999999997 4.120000000000001  21.891999999999996 4.120000000000001  21.727999999999994 4.214  L 4.15 14.359999999999998  C 3.9800000000000004 14.458  3.872 14.650000000000002  4 14.841999999999999  L 4 35.142  C 3.872 35.336000000000006  3.9799999999999995 35.52  4.15 35.612  L 8.968 38.396  C 11.582 39.704  13.184000000000001 38.164  14 36.616  L 14 16.573999999999998  C 13.184000000000001 16.29  13.412 16.067999999999998  13.696000000000002 16.067999999999998  L 15.926 16.067999999999998  C 16.204 16.067999999999998  16.436000000000003 16.292  17 16.573999999999998  L 17 36.616  C 16.436000000000003 40.106  14.536000000000005 42.106  11.228000000000002 42.106  C 10.212000000000003 42.106  9.410000000000004 42.106  7.176000000000004 41.004000000000005  L 2.5599999999999996 38.35  C 1.42 37.692  0.7159999999999993 36.46  1 35.142  L 1 14.841999999999999  C 0.7159999999999993 13.524000000000001  1.4219999999999993 12.292000000000002  2.5599999999999996 11.636000000000001  L 20.15 1.4720000000000013  C 21.264 0.8420000000000013  22.741999999999997 0.8420000000000013  23.846 1.4720000000000013  L 41.434 11.636000000000001  C 42.574 12.294  43.282 13.524000000000001  43 14.841999999999999  L 43 35.142  C 43.282 36.46  42.574 37.688  41.434 38.35  L 23.845999999999997 48.506  Z M 27.42600000000001 35.012  C 33.002 35.014  36.198 32.82  36.198 28.986000000000004  C 36.198 25.186  33.63 24.174  28.224000000000004 23.46  C 22.762 22.738  22.205999999999996 22.364  22.205999999999996 21.086000000000002  C 22.205999999999996 20.03  22.676 18.62  26.722 18.62  C 30.336 18.62  31.667999999999996 19.398  32.216 21.834  C 32.264 22.064  32.474000000000004 22.232  32.71 22.232  L 34.992000000000004 22.232  C 35.13400000000001 22.232  35.26800000000001 22.169999999999998  35.364000000000004 22.07  C 35.46 21.962  35.51200000000001 21.824  35.498000000000005 21.678  C 35.144000000000005 17.482  32.356 15.526  26.72200000000001 15.526  C 21.706000000000003 15.526  18.714000000000006 17.642  18.714000000000006 21.192  C 18.714000000000006 25.042  21.690000000000005 26.106  26.504000000000005 26.581999999999997  C 32.264 27.146  32.71000000000001 27.987999999999996  32.71000000000001 29.12  C 32.71000000000001 31.086000000000002  31.132000000000005 31.924  27.42600000000001 31.924  C 22.77200000000001 31.924  21.748000000000008 30.756000000000004  21.40400000000001 28.439999999999998  C 21.36400000000001 28.191999999999997  21.15200000000001 28.009999999999998  20.89800000000001 28.009999999999998  L 18.62400000000001 28.009999999999998  C 18.34200000000001 28.009999999999998  18.11600000000001 28.233999999999998  18.11600000000001 28.516  C 18.11600000000001 31.479999999999997  19.72800000000001 35.012  27.42600000000001 35.012  Z " fill-rule="evenodd" />
    </mask>
  </defs>
  <g>
    <path d="M 23.845999999999997 48.506  C 23.286 48.832  22.648 49  21.996 49  C 21.354 49  20.714 48.832  20.151999999999997 48.506  L 14.279999999999998 45.032  C 13.403999999999998 44.541999999999994  13.831999999999997 44.367999999999995  14.119999999999997 44.266  C 15.29 43.86  15.525999999999996 43.766  16.775999999999996 43.058  C 16.905999999999995 42.984  17.077999999999996 43.012  17.211999999999996 43.092  L 21.723999999999997 45.769999999999996  C 21.887999999999998 45.86  22.118 45.86  22.267999999999997 45.769999999999996  L 39.858 35.617999999999995  C 40.022 35.523999999999994  40.126 35.336  40 35.141999999999996  L 40 14.841999999999999  C 40.126 14.644  40.019999999999996 14.458  39.852 14.358  L 22.269999999999992 4.214  C 22.107999999999997 4.120000000000001  21.891999999999996 4.120000000000001  21.727999999999994 4.214  L 4.15 14.359999999999998  C 3.9800000000000004 14.458  3.872 14.650000000000002  4 14.841999999999999  L 4 35.142  C 3.872 35.336000000000006  3.9799999999999995 35.52  4.15 35.612  L 8.968 38.396  C 11.582 39.704  13.184000000000001 38.164  14 36.616  L 14 16.573999999999998  C 13.184000000000001 16.29  13.412 16.067999999999998  13.696000000000002 16.067999999999998  L 15.926 16.067999999999998  C 16.204 16.067999999999998  16.436000000000003 16.292  17 16.573999999999998  L 17 36.616  C 16.436000000000003 40.106  14.536000000000005 42.106  11.228000000000002 42.106  C 10.212000000000003 42.106  9.410000000000004 42.106  7.176000000000004 41.004000000000005  L 2.5599999999999996 38.35  C 1.42 37.692  0.7159999999999993 36.46  1 35.142  L 1 14.841999999999999  C 0.7159999999999993 13.524000000000001  1.4219999999999993 12.292000000000002  2.5599999999999996 11.636000000000001  L 20.15 1.4720000000000013  C 21.264 0.8420000000000013  22.741999999999997 0.8420000000000013  23.846 1.4720000000000013  L 41.434 11.636000000000001  C 42.574 12.294  43.282 13.524000000000001  43 14.841999999999999  L 43 35.142  C 43.282 36.46  42.574 37.688  41.434 38.35  L 23.845999999999997 48.506  Z M 27.42600000000001 35.012  C 33.002 35.014  36.198 32.82  36.198 28.986000000000004  C 36.198 25.186  33.63 24.174  28.224000000000004 23.46  C 22.762 22.738  22.205999999999996 22.364  22.205999999999996 21.086000000000002  C 22.205999999999996 20.03  22.676 18.62  26.722 18.62  C 30.336 18.62  31.667999999999996 19.398  32.216 21.834  C 32.264 22.064  32.474000000000004 22.232  32.71 22.232  L 34.992000000000004 22.232  C 35.13400000000001 22.232  35.26800000000001 22.169999999999998  35.364000000000004 22.07  C 35.46 21.962  35.51200000000001 21.824  35.498000000000005 21.678  C 35.144000000000005 17.482  32.356 15.526  26.72200000000001 15.526  C 21.706000000000003 15.526  18.714000000000006 17.642  18.714000000000006 21.192  C 18.714000000000006 25.042  21.690000000000005 26.106  26.504000000000005 26.581999999999997  C 32.264 27.146  32.71000000000001 27.987999999999996  32.71000000000001 29.12  C 32.71000000000001 31.086000000000002  31.132000000000005 31.924  27.42600000000001 31.924  C 22.77200000000001 31.924  21.748000000000008 30.756000000000004  21.40400000000001 28.439999999999998  C 21.36400000000001 28.191999999999997  21.15200000000001 28.009999999999998  20.89800000000001 28.009999999999998  L 18.62400000000001 28.009999999999998  C 18.34200000000001 28.009999999999998  18.11600000000001 28.233999999999998  18.11600000000001 28.516  C 18.11600000000001 31.479999999999997  19.72800000000001 35.012  27.42600000000001 35.012  Z " fill-rule="nonzero" fill="rgba(51, 153, 51, 1)" stroke="none" class="fill" />
    <path d="M 23.845999999999997 48.506  C 23.286 48.832  22.648 49  21.996 49  C 21.354 49  20.714 48.832  20.151999999999997 48.506  L 14.279999999999998 45.032  C 13.403999999999998 44.541999999999994  13.831999999999997 44.367999999999995  14.119999999999997 44.266  C 15.29 43.86  15.525999999999996 43.766  16.775999999999996 43.058  C 16.905999999999995 42.984  17.077999999999996 43.012  17.211999999999996 43.092  L 21.723999999999997 45.769999999999996  C 21.887999999999998 45.86  22.118 45.86  22.267999999999997 45.769999999999996  L 39.858 35.617999999999995  C 40.022 35.523999999999994  40.126 35.336  40 35.141999999999996  L 40 14.841999999999999  C 40.126 14.644  40.019999999999996 14.458  39.852 14.358  L 22.269999999999992 4.214  C 22.107999999999997 4.120000000000001  21.891999999999996 4.120000000000001  21.727999999999994 4.214  L 4.15 14.359999999999998  C 3.9800000000000004 14.458  3.872 14.650000000000002  4 14.841999999999999  L 4 35.142  C 3.872 35.336000000000006  3.9799999999999995 35.52  4.15 35.612  L 8.968 38.396  C 11.582 39.704  13.184000000000001 38.164  14 36.616  L 14 16.573999999999998  C 13.184000000000001 16.29  13.412 16.067999999999998  13.696000000000002 16.067999999999998  L 15.926 16.067999999999998  C 16.204 16.067999999999998  16.436000000000003 16.292  17 16.573999999999998  L 17 36.616  C 16.436000000000003 40.106  14.536000000000005 42.106  11.228000000000002 42.106  C 10.212000000000003 42.106  9.410000000000004 42.106  7.176000000000004 41.004000000000005  L 2.5599999999999996 38.35  C 1.42 37.692  0.7159999999999993 36.46  1 35.142  L 1 14.841999999999999  C 0.7159999999999993 13.524000000000001  1.4219999999999993 12.292000000000002  2.5599999999999996 11.636000000000001  L 20.15 1.4720000000000013  C 21.264 0.8420000000000013  22.741999999999997 0.8420000000000013  23.846 1.4720000000000013  L 41.434 11.636000000000001  C 42.574 12.294  43.282 13.524000000000001  43 14.841999999999999  L 43 35.142  C 43.282 36.46  42.574 37.688  41.434 38.35  L 23.845999999999997 48.506  Z " stroke-width="0" stroke-dasharray="0" stroke="rgba(255, 255, 255, 0)" fill="none" class="stroke" mask="url(#Clip7197)" />
    <path d="M 27.42600000000001 35.012  C 33.002 35.014  36.198 32.82  36.198 28.986000000000004  C 36.198 25.186  33.63 24.174  28.224000000000004 23.46  C 22.762 22.738  22.205999999999996 22.364  22.205999999999996 21.086000000000002  C 22.205999999999996 20.03  22.676 18.62  26.722 18.62  C 30.336 18.62  31.667999999999996 19.398  32.216 21.834  C 32.264 22.064  32.474000000000004 22.232  32.71 22.232  L 34.992000000000004 22.232  C 35.13400000000001 22.232  35.26800000000001 22.169999999999998  35.364000000000004 22.07  C 35.46 21.962  35.51200000000001 21.824  35.498000000000005 21.678  C 35.144000000000005 17.482  32.356 15.526  26.72200000000001 15.526  C 21.706000000000003 15.526  18.714000000000006 17.642  18.714000000000006 21.192  C 18.714000000000006 25.042  21.690000000000005 26.106  26.504000000000005 26.581999999999997  C 32.264 27.146  32.71000000000001 27.987999999999996  32.71000000000001 29.12  C 32.71000000000001 31.086000000000002  31.132000000000005 31.924  27.42600000000001 31.924  C 22.77200000000001 31.924  21.748000000000008 30.756000000000004  21.40400000000001 28.439999999999998  C 21.36400000000001 28.191999999999997  21.15200000000001 28.009999999999998  20.89800000000001 28.009999999999998  L 18.62400000000001 28.009999999999998  C 18.34200000000001 28.009999999999998  18.11600000000001 28.233999999999998  18.11600000000001 28.516  C 18.11600000000001 31.479999999999997  19.72800000000001 35.012  27.42600000000001 35.012  Z " stroke-width="0" stroke-dasharray="0" stroke="rgba(255, 255, 255, 0)" fill="none" class="stroke" mask="url(#Clip7197)" />
  </g>
</svg>