<?xml version="1.0" encoding="utf-8"?>
<svg version="1.1" xmlns:xlink="http://www.w3.org/1999/xlink" width="26px" height="26px" xmlns="http://www.w3.org/2000/svg">
  <defs>
    <pattern id="BGPattern" patternUnits="userSpaceOnUse" alignment="0 0" imageRepeat="None" />
    <mask fill="white" id="Clip82">
      <path d="M 25.8 13  C 25.8 20.072000000000003  20.072000000000003 25.8  13 25.8  C 5.928000000000001 25.8  0.1999999999999993 20.072000000000003  0.1999999999999993 13  C 0.1999999999999993 5.927999999999997  5.927999999999999 0.1999999999999993  13 0.1999999999999993  C 20.072000000000003 0.1999999999999993  25.8 5.927999999999999  25.8 13  Z M 1.8000000000000007 13  C 1.8000000000000007 19.192  6.808 24.2  13 24.2  C 19.192 24.2  24.2 19.192  24.2 13  C 24.2 6.808  19.192 1.8000000000000007  13 1.8000000000000007  C 6.808 1.8000000000000007  1.8000000000000007 6.808  1.8000000000000007 13  Z M 19.607999999999997 16.488  C 19.607999999999997 17.592  17.495999999999995 19.592  15.975999999999999 19.592  C 12.472 19.592  6.359999999999999 13.287999999999997  6.359999999999999 9.943999999999999  C 6.359999999999999 8.568  8.2 6.343999999999999  9.463999999999999 6.343999999999999  C 10.535999999999998 6.343999999999999  12.983999999999998 9.128  12.983999999999998 10.088  C 12.983999999999998 10.792  12.503999999999998 11.335999999999999  12.055999999999997 11.799999999999999  C 12.551999999999998 12.472  13.335999999999997 13.239999999999998  14.119999999999997 13.88  C 14.647999999999996 13.416  15.143999999999998 12.951999999999998  15.847999999999999 12.951999999999998  C 16.887999999999998 12.951999999999998  19.607999999999997 15.479999999999997  19.607999999999997 16.488  Z M 7.959999999999997 9.943999999999999  C 7.959999999999997 12.488  13.447999999999999 18.008  15.975999999999999 18.008  C 16.631999999999998 18.008  18.008 16.84  18.008 16.488  C 18.008 16.184  16.215999999999998 14.567999999999996  15.879999999999999 14.567999999999996  C 15.512 14.567999999999996  14.776 15.656  14.087999999999997 15.656  C 13.351999999999997 15.656  10.263999999999998 12.567999999999998  10.263999999999998 11.847999999999999  C 10.263999999999998 11.159999999999998  11.383999999999997 10.408  11.383999999999997 10.072  C 11.367999999999997 9.751999999999999  9.767999999999997 7.911999999999999  9.463999999999997 7.911999999999999  C 9.063999999999997 7.911999999999999  7.959999999999997 9.335999999999999  7.959999999999997 9.943999999999999  Z " fill-rule="evenodd" />
    </mask>
  </defs>
  <g>
    <path d="M 25.8 13  C 25.8 20.072000000000003  20.072000000000003 25.8  13 25.8  C 5.928000000000001 25.8  0.1999999999999993 20.072000000000003  0.1999999999999993 13  C 0.1999999999999993 5.927999999999997  5.927999999999999 0.1999999999999993  13 0.1999999999999993  C 20.072000000000003 0.1999999999999993  25.8 5.927999999999999  25.8 13  Z M 1.8000000000000007 13  C 1.8000000000000007 19.192  6.808 24.2  13 24.2  C 19.192 24.2  24.2 19.192  24.2 13  C 24.2 6.808  19.192 1.8000000000000007  13 1.8000000000000007  C 6.808 1.8000000000000007  1.8000000000000007 6.808  1.8000000000000007 13  Z M 19.607999999999997 16.488  C 19.607999999999997 17.592  17.495999999999995 19.592  15.975999999999999 19.592  C 12.472 19.592  6.359999999999999 13.287999999999997  6.359999999999999 9.943999999999999  C 6.359999999999999 8.568  8.2 6.343999999999999  9.463999999999999 6.343999999999999  C 10.535999999999998 6.343999999999999  12.983999999999998 9.128  12.983999999999998 10.088  C 12.983999999999998 10.792  12.503999999999998 11.335999999999999  12.055999999999997 11.799999999999999  C 12.551999999999998 12.472  13.335999999999997 13.239999999999998  14.119999999999997 13.88  C 14.647999999999996 13.416  15.143999999999998 12.951999999999998  15.847999999999999 12.951999999999998  C 16.887999999999998 12.951999999999998  19.607999999999997 15.479999999999997  19.607999999999997 16.488  Z M 7.959999999999997 9.943999999999999  C 7.959999999999997 12.488  13.447999999999999 18.008  15.975999999999999 18.008  C 16.631999999999998 18.008  18.008 16.84  18.008 16.488  C 18.008 16.184  16.215999999999998 14.567999999999996  15.879999999999999 14.567999999999996  C 15.512 14.567999999999996  14.776 15.656  14.087999999999997 15.656  C 13.351999999999997 15.656  10.263999999999998 12.567999999999998  10.263999999999998 11.847999999999999  C 10.263999999999998 11.159999999999998  11.383999999999997 10.408  11.383999999999997 10.072  C 11.367999999999997 9.751999999999999  9.767999999999997 7.911999999999999  9.463999999999997 7.911999999999999  C 9.063999999999997 7.911999999999999  7.959999999999997 9.335999999999999  7.959999999999997 9.943999999999999  Z " fill-rule="nonzero" fill="rgba(0, 0, 0, 1)" stroke="none" class="fill" />
    <path d="M 25.8 13  C 25.8 20.072000000000003  20.072000000000003 25.8  13 25.8  C 5.928000000000001 25.8  0.1999999999999993 20.072000000000003  0.1999999999999993 13  C 0.1999999999999993 5.927999999999997  5.927999999999999 0.1999999999999993  13 0.1999999999999993  C 20.072000000000003 0.1999999999999993  25.8 5.927999999999999  25.8 13  Z " stroke-width="0" stroke-dasharray="0" stroke="rgba(255, 255, 255, 0)" fill="none" class="stroke" mask="url(#Clip82)" />
    <path d="M 1.8000000000000007 13  C 1.8000000000000007 19.192  6.808 24.2  13 24.2  C 19.192 24.2  24.2 19.192  24.2 13  C 24.2 6.808  19.192 1.8000000000000007  13 1.8000000000000007  C 6.808 1.8000000000000007  1.8000000000000007 6.808  1.8000000000000007 13  Z " stroke-width="0" stroke-dasharray="0" stroke="rgba(255, 255, 255, 0)" fill="none" class="stroke" mask="url(#Clip82)" />
    <path d="M 19.607999999999997 16.488  C 19.607999999999997 17.592  17.495999999999995 19.592  15.975999999999999 19.592  C 12.472 19.592  6.359999999999999 13.287999999999997  6.359999999999999 9.943999999999999  C 6.359999999999999 8.568  8.2 6.343999999999999  9.463999999999999 6.343999999999999  C 10.535999999999998 6.343999999999999  12.983999999999998 9.128  12.983999999999998 10.088  C 12.983999999999998 10.792  12.503999999999998 11.335999999999999  12.055999999999997 11.799999999999999  C 12.551999999999998 12.472  13.335999999999997 13.239999999999998  14.119999999999997 13.88  C 14.647999999999996 13.416  15.143999999999998 12.951999999999998  15.847999999999999 12.951999999999998  C 16.887999999999998 12.951999999999998  19.607999999999997 15.479999999999997  19.607999999999997 16.488  Z " stroke-width="0" stroke-dasharray="0" stroke="rgba(255, 255, 255, 0)" fill="none" class="stroke" mask="url(#Clip82)" />
    <path d="M 7.959999999999997 9.943999999999999  C 7.959999999999997 12.488  13.447999999999999 18.008  15.975999999999999 18.008  C 16.631999999999998 18.008  18.008 16.84  18.008 16.488  C 18.008 16.184  16.215999999999998 14.567999999999996  15.879999999999999 14.567999999999996  C 15.512 14.567999999999996  14.776 15.656  14.087999999999997 15.656  C 13.351999999999997 15.656  10.263999999999998 12.567999999999998  10.263999999999998 11.847999999999999  C 10.263999999999998 11.159999999999998  11.383999999999997 10.408  11.383999999999997 10.072  C 11.367999999999997 9.751999999999999  9.767999999999997 7.911999999999999  9.463999999999997 7.911999999999999  C 9.063999999999997 7.911999999999999  7.959999999999997 9.335999999999999  7.959999999999997 9.943999999999999  Z " stroke-width="0" stroke-dasharray="0" stroke="rgba(255, 255, 255, 0)" fill="none" class="stroke" mask="url(#Clip82)" />
  </g>
</svg>