<?xml version="1.0" encoding="utf-8"?>
<svg version="1.1" xmlns:xlink="http://www.w3.org/1999/xlink" width="22px" height="23px" xmlns="http://www.w3.org/2000/svg">
  <defs>
    <pattern id="BGPattern" patternUnits="userSpaceOnUse" alignment="0 0" imageRepeat="None" />
    <mask fill="white" id="Clip5331">
      <path d="M 1.25 23  C 0.8357864376269052 23  0.5 22.664213562373096  0.5 22.25  C 0.5 21.835786437626904  0.8357864376269052 21.5  1.25 21.5  L 20.75 21.5  C 21.164213562373096 21.5  21.5 21.835786437626904  21.5 22.25  C 21.5 22.664213562373096  21.164213562373096 23  20.75 23  L 1.25 23  Z M 17 2.75  C 17 2.335786437626905  16.664213562373096 2  16.25 2  L 15.5 2  L 15.5 0.5  L 16.25 0.5  C 17.492640687119284 0.5  18.5 1.5073593128807148  18.5 2.75  L 18.5 21.5  L 17 21.5  L 17 2.75  Z " fill-rule="evenodd" />
    </mask>
  </defs>
  <g transform="matrix(1 0 0 1 0 -2 )">
    <path d="M 1.25 23  C 0.8357864376269052 23  0.5 22.664213562373096  0.5 22.25  C 0.5 21.835786437626904  0.8357864376269052 21.5  1.25 21.5  L 20.75 21.5  C 21.164213562373096 21.5  21.5 21.835786437626904  21.5 22.25  C 21.5 22.664213562373096  21.164213562373096 23  20.75 23  L 1.25 23  Z M 17 2.75  C 17 2.335786437626905  16.664213562373096 2  16.25 2  L 15.5 2  L 15.5 0.5  L 16.25 0.5  C 17.492640687119284 0.5  18.5 1.5073593128807148  18.5 2.75  L 18.5 21.5  L 17 21.5  L 17 2.75  Z " fill-rule="nonzero" fill="rgba(0, 0, 0, 1)" stroke="none" transform="matrix(1 0 0 1 0 2 )" class="fill" />
    <path d="M 1.25 23  C 0.8357864376269052 23  0.5 22.664213562373096  0.5 22.25  C 0.5 21.835786437626904  0.8357864376269052 21.5  1.25 21.5  L 20.75 21.5  C 21.164213562373096 21.5  21.5 21.835786437626904  21.5 22.25  C 21.5 22.664213562373096  21.164213562373096 23  20.75 23  L 1.25 23  Z " stroke-width="0" stroke-dasharray="0" stroke="rgba(255, 255, 255, 0)" fill="none" transform="matrix(1 0 0 1 0 2 )" class="stroke" mask="url(#Clip5331)" />
    <path d="M 17 2.75  C 17 2.335786437626905  16.664213562373096 2  16.25 2  L 15.5 2  L 15.5 0.5  L 16.25 0.5  C 17.492640687119284 0.5  18.5 1.5073593128807148  18.5 2.75  L 18.5 21.5  L 17 21.5  L 17 2.75  Z " stroke-width="0" stroke-dasharray="0" stroke="rgba(255, 255, 255, 0)" fill="none" transform="matrix(1 0 0 1 0 2 )" class="stroke" mask="url(#Clip5331)" />
  </g>
</svg>