<?xml version="1.0" encoding="utf-8"?>
<svg version="1.1" xmlns:xlink="http://www.w3.org/1999/xlink" width="12px" height="12px" xmlns="http://www.w3.org/2000/svg">
  <defs>
    <pattern id="BGPattern" patternUnits="userSpaceOnUse" alignment="0 0" imageRepeat="None" />
    <mask fill="white" id="Clip3626">
      <path d="M 11.999999999999996 5.9999999999999964  C 11.996197603322106 9.31213221616527  9.31213221616527 11.996197603322106  5.999999999999998 12  C 2.6862915010152397 12  0 9.31370849898476  0 6  C 0 2.6862915010152406  2.6862915010152397 0  5.999999999999998 0  C 9.313708498984756 0  11.999999999999996 2.6862915010152406  11.999999999999996 6  Z M 10 6  C 9.997520057725875 3.7918890421776226  8.208110957822383 2.002479942274128  6.000000000000002 2  C 3.7908610006768293 2  2.0000000000000027 3.790861000676827  2.0000000000000027 6  C 2.0000000000000027 8.209138999323173  3.7908610006768293 10  6.000000000000002 10  C 8.209138999323175 10  10 8.209138999323173  10 6  Z " fill-rule="evenodd" />
    </mask>
  </defs>
  <g transform="matrix(1 0 0 1 -19 -18 )">
    <path d="M 11.999999999999996 5.9999999999999964  C 11.996197603322106 9.31213221616527  9.31213221616527 11.996197603322106  5.999999999999998 12  C 2.6862915010152397 12  0 9.31370849898476  0 6  C 0 2.6862915010152406  2.6862915010152397 0  5.999999999999998 0  C 9.313708498984756 0  11.999999999999996 2.6862915010152406  11.999999999999996 6  Z M 10 6  C 9.997520057725875 3.7918890421776226  8.208110957822383 2.002479942274128  6.000000000000002 2  C 3.7908610006768293 2  2.0000000000000027 3.790861000676827  2.0000000000000027 6  C 2.0000000000000027 8.209138999323173  3.7908610006768293 10  6.000000000000002 10  C 8.209138999323175 10  10 8.209138999323173  10 6  Z " fill-rule="nonzero" fill="rgba(0, 0, 0, 1)" stroke="none" transform="matrix(1 0 0 1 19 18 )" class="fill" />
    <path d="M 11.999999999999996 5.9999999999999964  C 11.996197603322106 9.31213221616527  9.31213221616527 11.996197603322106  5.999999999999998 12  C 2.6862915010152397 12  0 9.31370849898476  0 6  C 0 2.6862915010152406  2.6862915010152397 0  5.999999999999998 0  C 9.313708498984756 0  11.999999999999996 2.6862915010152406  11.999999999999996 6  Z " stroke-width="0" stroke-dasharray="0" stroke="rgba(255, 255, 255, 0)" fill="none" transform="matrix(1 0 0 1 19 18 )" class="stroke" mask="url(#Clip3626)" />
    <path d="M 10 6  C 9.997520057725875 3.7918890421776226  8.208110957822383 2.002479942274128  6.000000000000002 2  C 3.7908610006768293 2  2.0000000000000027 3.790861000676827  2.0000000000000027 6  C 2.0000000000000027 8.209138999323173  3.7908610006768293 10  6.000000000000002 10  C 8.209138999323175 10  10 8.209138999323173  10 6  Z " stroke-width="0" stroke-dasharray="0" stroke="rgba(255, 255, 255, 0)" fill="none" transform="matrix(1 0 0 1 19 18 )" class="stroke" mask="url(#Clip3626)" />
  </g>
</svg>