<?xml version="1.0" encoding="utf-8"?>
<svg version="1.1" xmlns:xlink="http://www.w3.org/1999/xlink" width="5px" height="6px" xmlns="http://www.w3.org/2000/svg">
  <defs>
    <pattern id="BGPattern" patternUnits="userSpaceOnUse" alignment="0 0" imageRepeat="None" />
    <mask fill="white" id="Clip3096">
      <path d="M 0.125 3.0625  C 0.125 4.236105093390435  1.0763949066095648 5.1875  2.25 5.1875  C 3.423605093390435 5.1875  4.375 4.236105093390435  4.375 3.0625  C 4.375 1.8888949066095648  3.423605093390435 0.9375  2.25 0.9375  C 1.0763949066095648 0.9375  0.125 1.8888949066095648  0.125 3.0625  Z " fill-rule="evenodd" />
    </mask>
  </defs>
  <g transform="matrix(1 0 0 1 -33 -31 )">
    <path d="M 0.125 3.0625  C 0.125 4.236105093390435  1.0763949066095648 5.1875  2.25 5.1875  C 3.423605093390435 5.1875  4.375 4.236105093390435  4.375 3.0625  C 4.375 1.8888949066095648  3.423605093390435 0.9375  2.25 0.9375  C 1.0763949066095648 0.9375  0.125 1.8888949066095648  0.125 3.0625  Z " fill-rule="nonzero" fill="rgba(217, 217, 217, 1)" stroke="none" transform="matrix(1 0 0 1 33 31 )" class="fill" />
    <path d="M 0.125 3.0625  C 0.125 4.236105093390435  1.0763949066095648 5.1875  2.25 5.1875  C 3.423605093390435 5.1875  4.375 4.236105093390435  4.375 3.0625  C 4.375 1.8888949066095648  3.423605093390435 0.9375  2.25 0.9375  C 1.0763949066095648 0.9375  0.125 1.8888949066095648  0.125 3.0625  Z " stroke-width="0" stroke-dasharray="0" stroke="rgba(255, 255, 255, 0)" fill="none" transform="matrix(1 0 0 1 33 31 )" class="stroke" mask="url(#Clip3096)" />
  </g>
</svg>