<?xml version="1.0" encoding="utf-8"?>
<svg version="1.1" xmlns:xlink="http://www.w3.org/1999/xlink" width="34px" height="35px" xmlns="http://www.w3.org/2000/svg">
  <defs>
    <pattern id="BGPattern" patternUnits="userSpaceOnUse" alignment="0 0" imageRepeat="None" />
    <mask fill="white" id="Clip3095">
      <path d="M 27.25 0  L 27.25 7  L 6.25 7  L 6.25 0  L 0 0  L 0 10  L 11 10  C 12.10625 10  13 10.89375  13 12  L 13 34  L 33 34  L 33 0  L 27.25 0  Z M 17.5 16.5  L 17.5 13  C 17.5 12.725000000000001  17.725 12.5  18 12.5  L 21 12.5  C 21.275 12.5  21.5 12.725000000000001  21.5 13  L 21.5 16.5  C 21.5 16.775  21.275 17  21 17  L 18 17  C 17.725 17  17.5 16.775  17.5 16.5  Z M 29 26.0625  C 29 29.237499999999997  26.424999999999997 31.8125  23.25 31.8125  C 20.075000000000003 31.8125  17.5 29.237499999999997  17.5 26.0625  C 17.5 22.887500000000003  20.075000000000003 20.3125  23.25 20.3125  C 26.424999999999997 20.3125  29 22.887500000000003  29 26.0625  Z M 28.5 10  C 28.775 10  29 10.225000000000001  29 10.5  L 29 16.5  C 29 16.775  28.775 17  28.5 17  L 25.5 17  C 25.225 17  25 16.775  25 16.5  L 25 10.5  C 25 10.225000000000001  25.225 10  25.5 10  L 28.5 10  Z " fill-rule="evenodd" />
    </mask>
  </defs>
  <g transform="matrix(1 0 0 1 -12 -8 )">
    <path d="M 27.25 0  L 27.25 7  L 6.25 7  L 6.25 0  L 0 0  L 0 10  L 11 10  C 12.10625 10  13 10.89375  13 12  L 13 34  L 33 34  L 33 0  L 27.25 0  Z M 17.5 16.5  L 17.5 13  C 17.5 12.725000000000001  17.725 12.5  18 12.5  L 21 12.5  C 21.275 12.5  21.5 12.725000000000001  21.5 13  L 21.5 16.5  C 21.5 16.775  21.275 17  21 17  L 18 17  C 17.725 17  17.5 16.775  17.5 16.5  Z M 29 26.0625  C 29 29.237499999999997  26.424999999999997 31.8125  23.25 31.8125  C 20.075000000000003 31.8125  17.5 29.237499999999997  17.5 26.0625  C 17.5 22.887500000000003  20.075000000000003 20.3125  23.25 20.3125  C 26.424999999999997 20.3125  29 22.887500000000003  29 26.0625  Z M 28.5 10  C 28.775 10  29 10.225000000000001  29 10.5  L 29 16.5  C 29 16.775  28.775 17  28.5 17  L 25.5 17  C 25.225 17  25 16.775  25 16.5  L 25 10.5  C 25 10.225000000000001  25.225 10  25.5 10  L 28.5 10  Z " fill-rule="nonzero" fill="rgba(217, 217, 217, 1)" stroke="none" transform="matrix(1 0 0 1 12 8 )" class="fill" />
    <path d="M 27.25 0  L 27.25 7  L 6.25 7  L 6.25 0  L 0 0  L 0 10  L 11 10  C 12.10625 10  13 10.89375  13 12  L 13 34  L 33 34  L 33 0  L 27.25 0  Z " stroke-width="0" stroke-dasharray="0" stroke="rgba(255, 255, 255, 0)" fill="none" transform="matrix(1 0 0 1 12 8 )" class="stroke" mask="url(#Clip3095)" />
    <path d="M 17.5 16.5  L 17.5 13  C 17.5 12.725000000000001  17.725 12.5  18 12.5  L 21 12.5  C 21.275 12.5  21.5 12.725000000000001  21.5 13  L 21.5 16.5  C 21.5 16.775  21.275 17  21 17  L 18 17  C 17.725 17  17.5 16.775  17.5 16.5  Z " stroke-width="0" stroke-dasharray="0" stroke="rgba(255, 255, 255, 0)" fill="none" transform="matrix(1 0 0 1 12 8 )" class="stroke" mask="url(#Clip3095)" />
    <path d="M 29 26.0625  C 29 29.237499999999997  26.424999999999997 31.8125  23.25 31.8125  C 20.075000000000003 31.8125  17.5 29.237499999999997  17.5 26.0625  C 17.5 22.887500000000003  20.075000000000003 20.3125  23.25 20.3125  C 26.424999999999997 20.3125  29 22.887500000000003  29 26.0625  Z " stroke-width="0" stroke-dasharray="0" stroke="rgba(255, 255, 255, 0)" fill="none" transform="matrix(1 0 0 1 12 8 )" class="stroke" mask="url(#Clip3095)" />
    <path d="M 28.5 10  C 28.775 10  29 10.225000000000001  29 10.5  L 29 16.5  C 29 16.775  28.775 17  28.5 17  L 25.5 17  C 25.225 17  25 16.775  25 16.5  L 25 10.5  C 25 10.225000000000001  25.225 10  25.5 10  L 28.5 10  Z " stroke-width="0" stroke-dasharray="0" stroke="rgba(255, 255, 255, 0)" fill="none" transform="matrix(1 0 0 1 12 8 )" class="stroke" mask="url(#Clip3095)" />
  </g>
</svg>