<?xml version="1.0" encoding="utf-8"?>
<svg version="1.1" xmlns:xlink="http://www.w3.org/1999/xlink" width="50px" height="50px" xmlns="http://www.w3.org/2000/svg">
  <defs>
    <pattern id="BGPattern" patternUnits="userSpaceOnUse" alignment="0 0" imageRepeat="None" />
    <mask fill="white" id="Clip1612">
      <path d="M 50 25  C 50 11.189516129032256  38.810483870967744 0  25 0  C 11.189516129032256 0  0 11.189516129032256  0 25  C 0 38.810483870967744  11.189516129032256 50  25 50  C 38.810483870967744 50  50 38.810483870967744  50 25  Z M 27.439516129032253 21.71370967741936  C 27.75201612903226 17.469758064516128  30.66532258064518 14.51612903225808  33.064516129032256 14.51612903225808  C 35.46370967741936 14.51612903225808  38.377016129032256 17.469758064516128  38.70967741935485 21.71370967741936  C 38.78024193548387 22.580645161290306  37.62096774193549 22.913306451612897  37.20766129032259 22.16733870967741  L 36.25 20.45362903225805  C 35.47379032258064 19.07258064516128  34.314516129032256 18.27620967741936  33.07459677419354 18.27620967741936  C 31.834677419354847 18.27620967741936  30.675403225806463 19.07258064516128  29.899193548387103 20.45362903225805  L 28.941532258064512 22.16733870967741  C 28.52822580645162 22.903225806451616  27.36895161290323 22.570564516129025  27.439516129032253 21.71370967741936  Z M 11.310483870967744 21.71370967741936  C 11.622983870967744 17.469758064516128  14.536290322580642 14.51612903225808  16.935483870967744 14.51612903225808  C 19.334677419354847 14.51612903225808  22.247983870967744 17.469758064516128  22.580645161290306 21.71370967741936  C 22.65120967741936 22.580645161290306  21.491935483870975 22.913306451612897  21.07862903225805 22.16733870967741  L 20.120967741935488 20.45362903225805  C 19.344758064516128 19.07258064516128  18.185483870967744 18.27620967741936  16.945564516129025 18.27620967741936  C 15.705645161290334 18.27620967741936  14.546370967741924 19.07258064516128  13.77016129032259 20.45362903225805  L 12.812499999999998 22.16733870967741  C 12.389112903225794 22.913306451612897  11.239919354838719 22.570564516129025  11.310483870967744 21.71370967741936  Z M 39.49596774193549 33.3366935483871  C 38.55846774193549 38.88104838709677  31.108870967741954 42.741935483870975  25 42.741935483870975  C 18.89112903225805 42.741935483870975  11.441532258064512 38.88104838709677  10.504032258064512 33.3366935483871  C 10.302419354838719 32.13709677419354  11.451612903225794 31.159274193548388  12.590725806451616 31.532258064516128  C 15.635080645161281 32.51008064516128  20.16129032258064 33.064516129032256  25 33.064516129032256  C 29.838709677419363 33.064516129032256  34.36491935483872 32.51008064516128  37.409274193548384 31.532258064516128  C 38.55846774193549 31.159274193548388  39.6875 32.14717741935485  39.49596774193549 33.3366935483871  Z " fill-rule="evenodd" />
    </mask>
  </defs>
  <g>
    <path d="M 50 25  C 50 11.189516129032256  38.810483870967744 0  25 0  C 11.189516129032256 0  0 11.189516129032256  0 25  C 0 38.810483870967744  11.189516129032256 50  25 50  C 38.810483870967744 50  50 38.810483870967744  50 25  Z M 27.439516129032253 21.71370967741936  C 27.75201612903226 17.469758064516128  30.66532258064518 14.51612903225808  33.064516129032256 14.51612903225808  C 35.46370967741936 14.51612903225808  38.377016129032256 17.469758064516128  38.70967741935485 21.71370967741936  C 38.78024193548387 22.580645161290306  37.62096774193549 22.913306451612897  37.20766129032259 22.16733870967741  L 36.25 20.45362903225805  C 35.47379032258064 19.07258064516128  34.314516129032256 18.27620967741936  33.07459677419354 18.27620967741936  C 31.834677419354847 18.27620967741936  30.675403225806463 19.07258064516128  29.899193548387103 20.45362903225805  L 28.941532258064512 22.16733870967741  C 28.52822580645162 22.903225806451616  27.36895161290323 22.570564516129025  27.439516129032253 21.71370967741936  Z M 11.310483870967744 21.71370967741936  C 11.622983870967744 17.469758064516128  14.536290322580642 14.51612903225808  16.935483870967744 14.51612903225808  C 19.334677419354847 14.51612903225808  22.247983870967744 17.469758064516128  22.580645161290306 21.71370967741936  C 22.65120967741936 22.580645161290306  21.491935483870975 22.913306451612897  21.07862903225805 22.16733870967741  L 20.120967741935488 20.45362903225805  C 19.344758064516128 19.07258064516128  18.185483870967744 18.27620967741936  16.945564516129025 18.27620967741936  C 15.705645161290334 18.27620967741936  14.546370967741924 19.07258064516128  13.77016129032259 20.45362903225805  L 12.812499999999998 22.16733870967741  C 12.389112903225794 22.913306451612897  11.239919354838719 22.570564516129025  11.310483870967744 21.71370967741936  Z M 39.49596774193549 33.3366935483871  C 38.55846774193549 38.88104838709677  31.108870967741954 42.741935483870975  25 42.741935483870975  C 18.89112903225805 42.741935483870975  11.441532258064512 38.88104838709677  10.504032258064512 33.3366935483871  C 10.302419354838719 32.13709677419354  11.451612903225794 31.159274193548388  12.590725806451616 31.532258064516128  C 15.635080645161281 32.51008064516128  20.16129032258064 33.064516129032256  25 33.064516129032256  C 29.838709677419363 33.064516129032256  34.36491935483872 32.51008064516128  37.409274193548384 31.532258064516128  C 38.55846774193549 31.159274193548388  39.6875 32.14717741935485  39.49596774193549 33.3366935483871  Z " fill-rule="nonzero" fill="rgba(0, 0, 0, 1)" stroke="none" class="fill" />
    <path d="M 50 25  C 50 11.189516129032256  38.810483870967744 0  25 0  C 11.189516129032256 0  0 11.189516129032256  0 25  C 0 38.810483870967744  11.189516129032256 50  25 50  C 38.810483870967744 50  50 38.810483870967744  50 25  Z " stroke-width="0" stroke-dasharray="0" stroke="rgba(255, 255, 255, 0)" fill="none" class="stroke" mask="url(#Clip1612)" />
    <path d="M 27.439516129032253 21.71370967741936  C 27.75201612903226 17.469758064516128  30.66532258064518 14.51612903225808  33.064516129032256 14.51612903225808  C 35.46370967741936 14.51612903225808  38.377016129032256 17.469758064516128  38.70967741935485 21.71370967741936  C 38.78024193548387 22.580645161290306  37.62096774193549 22.913306451612897  37.20766129032259 22.16733870967741  L 36.25 20.45362903225805  C 35.47379032258064 19.07258064516128  34.314516129032256 18.27620967741936  33.07459677419354 18.27620967741936  C 31.834677419354847 18.27620967741936  30.675403225806463 19.07258064516128  29.899193548387103 20.45362903225805  L 28.941532258064512 22.16733870967741  C 28.52822580645162 22.903225806451616  27.36895161290323 22.570564516129025  27.439516129032253 21.71370967741936  Z " stroke-width="0" stroke-dasharray="0" stroke="rgba(255, 255, 255, 0)" fill="none" class="stroke" mask="url(#Clip1612)" />
    <path d="M 11.310483870967744 21.71370967741936  C 11.622983870967744 17.469758064516128  14.536290322580642 14.51612903225808  16.935483870967744 14.51612903225808  C 19.334677419354847 14.51612903225808  22.247983870967744 17.469758064516128  22.580645161290306 21.71370967741936  C 22.65120967741936 22.580645161290306  21.491935483870975 22.913306451612897  21.07862903225805 22.16733870967741  L 20.120967741935488 20.45362903225805  C 19.344758064516128 19.07258064516128  18.185483870967744 18.27620967741936  16.945564516129025 18.27620967741936  C 15.705645161290334 18.27620967741936  14.546370967741924 19.07258064516128  13.77016129032259 20.45362903225805  L 12.812499999999998 22.16733870967741  C 12.389112903225794 22.913306451612897  11.239919354838719 22.570564516129025  11.310483870967744 21.71370967741936  Z " stroke-width="0" stroke-dasharray="0" stroke="rgba(255, 255, 255, 0)" fill="none" class="stroke" mask="url(#Clip1612)" />
    <path d="M 39.49596774193549 33.3366935483871  C 38.55846774193549 38.88104838709677  31.108870967741954 42.741935483870975  25 42.741935483870975  C 18.89112903225805 42.741935483870975  11.441532258064512 38.88104838709677  10.504032258064512 33.3366935483871  C 10.302419354838719 32.13709677419354  11.451612903225794 31.159274193548388  12.590725806451616 31.532258064516128  C 15.635080645161281 32.51008064516128  20.16129032258064 33.064516129032256  25 33.064516129032256  C 29.838709677419363 33.064516129032256  34.36491935483872 32.51008064516128  37.409274193548384 31.532258064516128  C 38.55846774193549 31.159274193548388  39.6875 32.14717741935485  39.49596774193549 33.3366935483871  Z " stroke-width="0" stroke-dasharray="0" stroke="rgba(255, 255, 255, 0)" fill="none" class="stroke" mask="url(#Clip1612)" />
  </g>
</svg>