<?xml version="1.0" encoding="utf-8"?>
<svg version="1.1" xmlns:xlink="http://www.w3.org/1999/xlink" width="54px" height="54px" xmlns="http://www.w3.org/2000/svg">
  <defs>
    <pattern id="BGPattern" patternUnits="userSpaceOnUse" alignment="0 0" imageRepeat="None" />
    <mask fill="white" id="Clip2538">
      <path d="M 17.375 1.5  C 17.375 0.9500000000000003  16.925 0.5  16.375 1  L 2.5 1  C 1.3937499999999998 0.5  0.5 1.3937499999999998  1 2.5  L 1 16.5  C 0.5 17.05  0.9500000000000003 17.5  1.5 17.5  L 4.5 17.5  C 5.050000000000001 17.5  5.5 17.05  6 16.5  L 6 6  L 16.375 6  C 16.925 5.5  17.375 5.050000000000001  17.375 4.5  L 17.375 1.5  Z M 53 37.5  C 53.5 36.95  53.05 36.5  52.5 36.5  L 49.5 36.5  C 48.95 36.5  48.5 36.95  48 37.5  L 48 48  L 37.625 48  C 37.075 48.5  36.625 48.95  36.625 49.5  L 36.625 52.5  C 36.625 53.05  37.075 53.5  37.625 53  L 51.5 53  C 52.60625 53.5  53.5 52.60625  53 51.5  L 53 37.5  Z M 17.375 49.5  C 17.375 48.95  16.925 48.5  16.375 48  L 6 48  L 6 37.5  C 5.5 36.95  5.050000000000001 36.5  4.5 36.5  L 1.5 36.5  C 0.9500000000000003 36.5  0.5 36.95  1 37.5  L 1 51.5  C 0.5 52.60625  1.3937499999999998 53.5  2.5 53  L 16.375 53  C 16.925 53.5  17.375 53.05  17.375 52.5  L 17.375 49.5  Z M 53 2.5  C 53.5 1.3937499999999998  52.60625 0.5  51.5 1  L 37.625 1  C 37.075 0.5  36.625 0.9500000000000003  36.625 1.5  L 36.625 4.5  C 36.625 5.050000000000001  37.075 5.5  37.625 6  L 48 6  L 48 16.5  C 48.5 17.05  48.95 17.5  49.5 17.5  L 52.5 17.5  C 53.05 17.5  53.5 17.05  53 16.5  L 53 2.5  Z " fill-rule="evenodd" />
    </mask>
  </defs>
  <g>
    <path d="M 17.375 1.5  C 17.375 0.9500000000000003  16.925 0.5  16.375 1  L 2.5 1  C 1.3937499999999998 0.5  0.5 1.3937499999999998  1 2.5  L 1 16.5  C 0.5 17.05  0.9500000000000003 17.5  1.5 17.5  L 4.5 17.5  C 5.050000000000001 17.5  5.5 17.05  6 16.5  L 6 6  L 16.375 6  C 16.925 5.5  17.375 5.050000000000001  17.375 4.5  L 17.375 1.5  Z M 53 37.5  C 53.5 36.95  53.05 36.5  52.5 36.5  L 49.5 36.5  C 48.95 36.5  48.5 36.95  48 37.5  L 48 48  L 37.625 48  C 37.075 48.5  36.625 48.95  36.625 49.5  L 36.625 52.5  C 36.625 53.05  37.075 53.5  37.625 53  L 51.5 53  C 52.60625 53.5  53.5 52.60625  53 51.5  L 53 37.5  Z M 17.375 49.5  C 17.375 48.95  16.925 48.5  16.375 48  L 6 48  L 6 37.5  C 5.5 36.95  5.050000000000001 36.5  4.5 36.5  L 1.5 36.5  C 0.9500000000000003 36.5  0.5 36.95  1 37.5  L 1 51.5  C 0.5 52.60625  1.3937499999999998 53.5  2.5 53  L 16.375 53  C 16.925 53.5  17.375 53.05  17.375 52.5  L 17.375 49.5  Z M 53 2.5  C 53.5 1.3937499999999998  52.60625 0.5  51.5 1  L 37.625 1  C 37.075 0.5  36.625 0.9500000000000003  36.625 1.5  L 36.625 4.5  C 36.625 5.050000000000001  37.075 5.5  37.625 6  L 48 6  L 48 16.5  C 48.5 17.05  48.95 17.5  49.5 17.5  L 52.5 17.5  C 53.05 17.5  53.5 17.05  53 16.5  L 53 2.5  Z " fill-rule="nonzero" fill="rgba(0, 0, 0, 1)" stroke="none" class="fill" />
    <path d="M 17.375 1.5  C 17.375 0.9500000000000003  16.925 0.5  16.375 1  L 2.5 1  C 1.3937499999999998 0.5  0.5 1.3937499999999998  1 2.5  L 1 16.5  C 0.5 17.05  0.9500000000000003 17.5  1.5 17.5  L 4.5 17.5  C 5.050000000000001 17.5  5.5 17.05  6 16.5  L 6 6  L 16.375 6  C 16.925 5.5  17.375 5.050000000000001  17.375 4.5  L 17.375 1.5  Z " stroke-width="0" stroke-dasharray="0" stroke="rgba(255, 255, 255, 0)" fill="none" class="stroke" mask="url(#Clip2538)" />
    <path d="M 53 37.5  C 53.5 36.95  53.05 36.5  52.5 36.5  L 49.5 36.5  C 48.95 36.5  48.5 36.95  48 37.5  L 48 48  L 37.625 48  C 37.075 48.5  36.625 48.95  36.625 49.5  L 36.625 52.5  C 36.625 53.05  37.075 53.5  37.625 53  L 51.5 53  C 52.60625 53.5  53.5 52.60625  53 51.5  L 53 37.5  Z " stroke-width="0" stroke-dasharray="0" stroke="rgba(255, 255, 255, 0)" fill="none" class="stroke" mask="url(#Clip2538)" />
    <path d="M 17.375 49.5  C 17.375 48.95  16.925 48.5  16.375 48  L 6 48  L 6 37.5  C 5.5 36.95  5.050000000000001 36.5  4.5 36.5  L 1.5 36.5  C 0.9500000000000003 36.5  0.5 36.95  1 37.5  L 1 51.5  C 0.5 52.60625  1.3937499999999998 53.5  2.5 53  L 16.375 53  C 16.925 53.5  17.375 53.05  17.375 52.5  L 17.375 49.5  Z " stroke-width="0" stroke-dasharray="0" stroke="rgba(255, 255, 255, 0)" fill="none" class="stroke" mask="url(#Clip2538)" />
    <path d="M 53 2.5  C 53.5 1.3937499999999998  52.60625 0.5  51.5 1  L 37.625 1  C 37.075 0.5  36.625 0.9500000000000003  36.625 1.5  L 36.625 4.5  C 36.625 5.050000000000001  37.075 5.5  37.625 6  L 48 6  L 48 16.5  C 48.5 17.05  48.95 17.5  49.5 17.5  L 52.5 17.5  C 53.05 17.5  53.5 17.05  53 16.5  L 53 2.5  Z " stroke-width="0" stroke-dasharray="0" stroke="rgba(255, 255, 255, 0)" fill="none" class="stroke" mask="url(#Clip2538)" />
  </g>
</svg>