<?xml version="1.0" encoding="utf-8"?>
<svg version="1.1" xmlns:xlink="http://www.w3.org/1999/xlink" width="44px" height="49px" xmlns="http://www.w3.org/2000/svg">
  <defs>
    <pattern id="BGPattern" patternUnits="userSpaceOnUse" alignment="0 0" imageRepeat="None" />
    <mask fill="white" id="Clip7547">
      <path d="M 16.602 0  L 16.6 0  C 13.5 0.012  11.28 2.314  11.596 6.012  C 11.8 8.466  12.014 10.957999999999998  12.222000000000001 13.469999999999999  C 10.062 14.379999999999999  7.786 15.337999999999997  5.366 16.362  C 2.856 17.433999999999997  1.1199999999999992 19.58  0.45199999999999996 22.131999999999998  C -0.2280000000000002 24.732  0.18199999999999994 27.748  1.898 30.418  C 3.423999999999999 32.808  5.6099999999999985 34.43  8.408 35.308  C 8.248 37.492  8.468 39.468  9.088 41.218  C 9.363999999999999 41.996  9.719999999999999 42.728  10.154 43.414  C 11.75 45.952  14.11 47.472  16.52 47.884  C 18.90904268615302 48.31401949828387  21.35934334213422 47.57163939668422  23.108 45.888  C 25.068 43.998  26.922 42.211999999999996  28.688000000000002 40.519999999999996  C 30.782000000000004 41.779999999999994  32.800000000000004 42.989999999999995  34.764 44.17399999999999  C 37.972 46.087999999999994  41.25 44.00599999999999  42.024 39.94399999999999  C 42.348 38.249999999999986  42.204 36.359999999999985  41.604 34.219999999999985  C 42.744 33.51799999999999  43.454 32.417999999999985  43.736 30.87799999999999  C 44.34599999999999 27.60999999999998  42.73 23.313999999999986  40.081999999999994 21.117999999999988  C 38.678 19.953999999999986  37.227999999999994 18.76399999999999  35.75399999999999 17.55199999999999  L 35.74399999999999 17.50599999999999  C 35.37199999999999 15.40599999999999  35.00999999999999 13.34599999999999  34.647999999999996 11.32599999999999  C 34.035999999999994 7.87799999999999  31.049999999999997 4.24999999999999  27.89999999999999 3.24599999999999  C 26.455999999999996 2.78599999999999  25.113999999999994 2.92999999999999  23.83 3.69599999999999  C 22.271999999999995 2.0479999999999903  20.643999999999995 0.9359999999999902  18.869999999999994 0.3679999999999901  C 18.13791137470476 0.12742164788900448  17.372597934409068 0.0032438057246273366  16.602 0  Z M 17.133999999999993 5.9640000000000075  C 17.333999999999993 5.338000000000007  17.913999999999994 4.978000000000008  18.638 4.958  C 18.878 4.952  19.138 4.982  19.400000000000002 5.054  C 20.334000000000003 5.304  21.224000000000004 6.034000000000001  21.71 6.918  C 22.106 7.654  22.29 8.258000000000001  22.450000000000003 9.514  L 23.258000000000003 15.799999999999999  C 23.284 15.998000000000001  23.311999999999998 16.189999999999998  23.334 16.386  C 23.564 18.163999999999998  24.622000000000003 19.442  25.994 19.624  C 27.312000000000005 19.798  28.013999999999996 18.764  27.774000000000004 17.104  C 27.75079008831717 16.918382605756356  27.725455093531576 16.733037117588058  27.698000000000004 16.548  L 26.814 10.537999999999998  C 26.688 9.687999999999999  26.646 9.037999999999998  26.714 8.617999999999999  C 26.817999999999998 7.687999999999999  27.558 7.203999999999999  28.506000000000004 7.46  C 29.464 7.7219999999999995  30.36 8.604  30.774000000000004 9.654  C 30.986000000000004 10.186  31.081999999999997 10.6  31.246000000000002 11.582  C 31.560000000000002 13.464  31.870000000000008 15.362  32.190000000000005 17.318  C 32.21600000000001 17.492  32.246 17.666  32.26800000000001 17.852  C 32.306000000000004 18.032  32.35800000000001 18.19  32.40400000000001 18.352  L 32.40800000000001 18.38  L 32.41000000000001 18.384  L 32.45600000000001 18.552  L 32.45600000000001 18.548  C 32.45600000000001 18.54  32.45600000000001 18.534  32.45200000000001 18.528  L 32.45800000000001 18.541999999999998  L 32.45800000000001 18.548  C 32.65600000000001 19.296  33.146000000000015 20.04  33.87000000000001 20.607999999999997  C 34.000000000000014 20.711999999999996  34.14800000000001 20.813999999999997  34.28000000000001 20.927999999999997  C 35.74000000000001 22.073999999999998  37.16400000000001 23.208  38.56200000000001 24.299999999999997  C 39.40400000000001 24.959999999999994  39.70800000000001 25.267999999999997  40.04200000000001 25.734  C 40.580000000000005 26.494  40.80600000000001 27.601999999999993  40.61600000000001 28.451999999999998  C 40.44200000000001 29.238  39.934000000000005 29.706  39.300000000000004 29.631999999999998  C 38.78 29.569999999999997  38.34 29.357999999999997  37.452000000000005 28.701999999999998  C 35.98400000000001 27.601999999999993  34.48400000000001 26.477999999999994  32.932 25.334  C 32.796 25.237999999999996  32.644000000000005 25.134  32.506 25.03  C 31.214 24.078000000000003  30.090000000000003 24.26  29.658 25.560000000000002  C 29.214 26.892000000000003  29.838 28.458000000000002  31.166000000000007 29.388  C 31.310000000000002 29.488000000000003  31.472 29.602000000000004  31.612000000000002 29.704  C 33.232 30.837999999999997  34.822 31.944000000000003  36.372 33.024  C 37.03 33.482  37.518 33.912  37.842 34.300000000000004  C 38.556 35.118  38.896 36.46000000000001  38.65 37.584  C 38.385999999999996 38.77  37.622 39.388000000000005  36.693999999999996 39.176  C 36.224 39.076  35.87199999999999 38.888000000000005  35.029999999999994 38.342  C 33.395999999999994 37.282  31.715999999999994 36.184  29.983999999999995 35.068  C 29.82399999999999 34.967999999999996  29.663999999999998 34.86  29.509999999999994 34.748  C 28.96399999999999 34.416  28.435999999999993 34.263999999999996  27.973999999999997 34.282  L 27.96999999999999 34.282  C 27.449999999999992 34.248  26.907999999999987 34.437999999999995  26.385999999999992 34.854  C 26.241999999999994 34.974  26.09399999999999 35.088  25.959999999999994 35.214  C 24.34199999999999 36.546  22.665999999999993 37.964  20.889999999999993 39.458  C 19.929999999999993 40.257999999999996  19.497999999999994 40.571999999999996  18.855999999999995 40.798  C 17.565999999999995 41.29  16.139999999999993 40.738  15.247999999999996 39.32  C 14.405999999999995 37.936  14.439999999999996 36.142  15.311999999999994 35.012  C 15.681999999999995 34.508  16.307999999999993 33.932  17.171999999999993 33.32  C 19.051999999999992 31.976  20.831999999999994 30.709999999999997  22.523999999999994 29.496000000000002  C 22.677999999999997 29.392000000000007  22.827999999999992 29.288  22.979999999999993 29.178  C 24.261999999999993 28.268  24.507999999999992 26.658  23.603999999999992 25.156  C 22.723999999999993 23.656  21.263999999999992 23.204  19.883999999999993 24.038  C 19.724822468542776 24.131232488320283  19.56810256284501 24.228598897817623  19.413999999999994 24.330000000000002  C 17.623999999999995 25.428  15.745999999999995 26.586000000000002  13.765999999999995 27.808000000000007  C 12.489999999999995 28.576000000000004  11.813999999999997 28.826000000000008  10.861999999999995 28.870000000000005  C 9.681999999999995 28.930000000000003  8.451999999999995 28.206000000000003  7.7339999999999955 27.062000000000005  C 6.919999999999995 25.790000000000006  6.891999999999993 24.208000000000006  7.673999999999993 23.226000000000006  C 8.113999999999994 22.650000000000006  8.583999999999994 22.300000000000008  9.933999999999994 21.608000000000008  C 12.019999999999992 20.528000000000006  14.023999999999994 19.512000000000008  15.923999999999992 18.558000000000007  C 16.087999999999994 18.458000000000006  16.249999999999993 18.390000000000008  16.417999999999992 18.308000000000007  C 16.533999999999992 18.250000000000007  16.641999999999992 18.182000000000006  16.735999999999994 18.114000000000008  C 17.585999999999995 17.738000000000007  17.999999999999993 16.800000000000008  17.867999999999995 15.528000000000008  C 17.843999999999994 15.314000000000007  17.827999999999996 15.10800000000001  17.793999999999997 14.904000000000007  C 17.569823169659877 12.692304578733046  17.335820860042087 10.481616092429398  17.09199999999999 8.272000000000007  C 16.95199999999999 6.952000000000007  16.96599999999999 6.4880000000000075  17.133999999999993 5.9640000000000075  Z M 12.220000000000002 13.474  L 12.220000000000002 13.472  L 12.223999999999998 13.524  C 12.221565163502655 13.520947648861775  12.2195474455938 13.517584785680354  12.218 13.513999999999998  L 12.218 13.478  L 12.220000000000002 13.474  Z M 12.227999999999998 13.556  L 12.227999999999998 13.558000000000002  L 12.24 13.732  C 12.234 13.680000000000001  12.23 13.63  12.220000000000002 13.571999999999997  C 12.220000000000002 13.566  12.226 13.562000000000001  12.227999999999998 13.556  Z M 12.249999999999998 13.832  L 12.248000000000001 13.83  L 12.253999999999998 13.88  L 12.249999999999998 13.88  L 12.249999999999998 13.85  C 12.249999999999998 13.844000000000003  12.253999999999998 13.840000000000003  12.249999999999998 13.834000000000001  L 12.249999999999998 13.832  Z M 12.252 13.918  C 12.255999999999997 13.918  12.255999999999997 13.914  12.258 13.91  L 12.258 13.934000000000001  C 12.255999999999997 13.928  12.252 13.924000000000001  12.252 13.918  Z M 32.455999999999996 18.556  L 32.458 18.554000000000002  L 32.461999999999996 18.578000000000003  C 32.461999999999996 18.582000000000004  32.461999999999996 18.586000000000002  32.467999999999996 18.592000000000002  L 32.455999999999996 18.556  Z M 32.467999999999996 18.590000000000003  L 32.467999999999996 18.592000000000002  C 32.477999999999994 18.622000000000003  32.483999999999995 18.660000000000004  32.494 18.692000000000004  L 32.474 18.604000000000003  C 32.470396799795765 18.600196631765225  32.4682691975464 18.59523222651671  32.467999999999996 18.590000000000003  Z " fill-rule="evenodd" />
    </mask>
  </defs>
  <g>
    <path d="M 16.602 0  L 16.6 0  C 13.5 0.012  11.28 2.314  11.596 6.012  C 11.8 8.466  12.014 10.957999999999998  12.222000000000001 13.469999999999999  C 10.062 14.379999999999999  7.786 15.337999999999997  5.366 16.362  C 2.856 17.433999999999997  1.1199999999999992 19.58  0.45199999999999996 22.131999999999998  C -0.2280000000000002 24.732  0.18199999999999994 27.748  1.898 30.418  C 3.423999999999999 32.808  5.6099999999999985 34.43  8.408 35.308  C 8.248 37.492  8.468 39.468  9.088 41.218  C 9.363999999999999 41.996  9.719999999999999 42.728  10.154 43.414  C 11.75 45.952  14.11 47.472  16.52 47.884  C 18.90904268615302 48.31401949828387  21.35934334213422 47.57163939668422  23.108 45.888  C 25.068 43.998  26.922 42.211999999999996  28.688000000000002 40.519999999999996  C 30.782000000000004 41.779999999999994  32.800000000000004 42.989999999999995  34.764 44.17399999999999  C 37.972 46.087999999999994  41.25 44.00599999999999  42.024 39.94399999999999  C 42.348 38.249999999999986  42.204 36.359999999999985  41.604 34.219999999999985  C 42.744 33.51799999999999  43.454 32.417999999999985  43.736 30.87799999999999  C 44.34599999999999 27.60999999999998  42.73 23.313999999999986  40.081999999999994 21.117999999999988  C 38.678 19.953999999999986  37.227999999999994 18.76399999999999  35.75399999999999 17.55199999999999  L 35.74399999999999 17.50599999999999  C 35.37199999999999 15.40599999999999  35.00999999999999 13.34599999999999  34.647999999999996 11.32599999999999  C 34.035999999999994 7.87799999999999  31.049999999999997 4.24999999999999  27.89999999999999 3.24599999999999  C 26.455999999999996 2.78599999999999  25.113999999999994 2.92999999999999  23.83 3.69599999999999  C 22.271999999999995 2.0479999999999903  20.643999999999995 0.9359999999999902  18.869999999999994 0.3679999999999901  C 18.13791137470476 0.12742164788900448  17.372597934409068 0.0032438057246273366  16.602 0  Z M 17.133999999999993 5.9640000000000075  C 17.333999999999993 5.338000000000007  17.913999999999994 4.978000000000008  18.638 4.958  C 18.878 4.952  19.138 4.982  19.400000000000002 5.054  C 20.334000000000003 5.304  21.224000000000004 6.034000000000001  21.71 6.918  C 22.106 7.654  22.29 8.258000000000001  22.450000000000003 9.514  L 23.258000000000003 15.799999999999999  C 23.284 15.998000000000001  23.311999999999998 16.189999999999998  23.334 16.386  C 23.564 18.163999999999998  24.622000000000003 19.442  25.994 19.624  C 27.312000000000005 19.798  28.013999999999996 18.764  27.774000000000004 17.104  C 27.75079008831717 16.918382605756356  27.725455093531576 16.733037117588058  27.698000000000004 16.548  L 26.814 10.537999999999998  C 26.688 9.687999999999999  26.646 9.037999999999998  26.714 8.617999999999999  C 26.817999999999998 7.687999999999999  27.558 7.203999999999999  28.506000000000004 7.46  C 29.464 7.7219999999999995  30.36 8.604  30.774000000000004 9.654  C 30.986000000000004 10.186  31.081999999999997 10.6  31.246000000000002 11.582  C 31.560000000000002 13.464  31.870000000000008 15.362  32.190000000000005 17.318  C 32.21600000000001 17.492  32.246 17.666  32.26800000000001 17.852  C 32.306000000000004 18.032  32.35800000000001 18.19  32.40400000000001 18.352  L 32.40800000000001 18.38  L 32.41000000000001 18.384  L 32.45600000000001 18.552  L 32.45600000000001 18.548  C 32.45600000000001 18.54  32.45600000000001 18.534  32.45200000000001 18.528  L 32.45800000000001 18.541999999999998  L 32.45800000000001 18.548  C 32.65600000000001 19.296  33.146000000000015 20.04  33.87000000000001 20.607999999999997  C 34.000000000000014 20.711999999999996  34.14800000000001 20.813999999999997  34.28000000000001 20.927999999999997  C 35.74000000000001 22.073999999999998  37.16400000000001 23.208  38.56200000000001 24.299999999999997  C 39.40400000000001 24.959999999999994  39.70800000000001 25.267999999999997  40.04200000000001 25.734  C 40.580000000000005 26.494  40.80600000000001 27.601999999999993  40.61600000000001 28.451999999999998  C 40.44200000000001 29.238  39.934000000000005 29.706  39.300000000000004 29.631999999999998  C 38.78 29.569999999999997  38.34 29.357999999999997  37.452000000000005 28.701999999999998  C 35.98400000000001 27.601999999999993  34.48400000000001 26.477999999999994  32.932 25.334  C 32.796 25.237999999999996  32.644000000000005 25.134  32.506 25.03  C 31.214 24.078000000000003  30.090000000000003 24.26  29.658 25.560000000000002  C 29.214 26.892000000000003  29.838 28.458000000000002  31.166000000000007 29.388  C 31.310000000000002 29.488000000000003  31.472 29.602000000000004  31.612000000000002 29.704  C 33.232 30.837999999999997  34.822 31.944000000000003  36.372 33.024  C 37.03 33.482  37.518 33.912  37.842 34.300000000000004  C 38.556 35.118  38.896 36.46000000000001  38.65 37.584  C 38.385999999999996 38.77  37.622 39.388000000000005  36.693999999999996 39.176  C 36.224 39.076  35.87199999999999 38.888000000000005  35.029999999999994 38.342  C 33.395999999999994 37.282  31.715999999999994 36.184  29.983999999999995 35.068  C 29.82399999999999 34.967999999999996  29.663999999999998 34.86  29.509999999999994 34.748  C 28.96399999999999 34.416  28.435999999999993 34.263999999999996  27.973999999999997 34.282  L 27.96999999999999 34.282  C 27.449999999999992 34.248  26.907999999999987 34.437999999999995  26.385999999999992 34.854  C 26.241999999999994 34.974  26.09399999999999 35.088  25.959999999999994 35.214  C 24.34199999999999 36.546  22.665999999999993 37.964  20.889999999999993 39.458  C 19.929999999999993 40.257999999999996  19.497999999999994 40.571999999999996  18.855999999999995 40.798  C 17.565999999999995 41.29  16.139999999999993 40.738  15.247999999999996 39.32  C 14.405999999999995 37.936  14.439999999999996 36.142  15.311999999999994 35.012  C 15.681999999999995 34.508  16.307999999999993 33.932  17.171999999999993 33.32  C 19.051999999999992 31.976  20.831999999999994 30.709999999999997  22.523999999999994 29.496000000000002  C 22.677999999999997 29.392000000000007  22.827999999999992 29.288  22.979999999999993 29.178  C 24.261999999999993 28.268  24.507999999999992 26.658  23.603999999999992 25.156  C 22.723999999999993 23.656  21.263999999999992 23.204  19.883999999999993 24.038  C 19.724822468542776 24.131232488320283  19.56810256284501 24.228598897817623  19.413999999999994 24.330000000000002  C 17.623999999999995 25.428  15.745999999999995 26.586000000000002  13.765999999999995 27.808000000000007  C 12.489999999999995 28.576000000000004  11.813999999999997 28.826000000000008  10.861999999999995 28.870000000000005  C 9.681999999999995 28.930000000000003  8.451999999999995 28.206000000000003  7.7339999999999955 27.062000000000005  C 6.919999999999995 25.790000000000006  6.891999999999993 24.208000000000006  7.673999999999993 23.226000000000006  C 8.113999999999994 22.650000000000006  8.583999999999994 22.300000000000008  9.933999999999994 21.608000000000008  C 12.019999999999992 20.528000000000006  14.023999999999994 19.512000000000008  15.923999999999992 18.558000000000007  C 16.087999999999994 18.458000000000006  16.249999999999993 18.390000000000008  16.417999999999992 18.308000000000007  C 16.533999999999992 18.250000000000007  16.641999999999992 18.182000000000006  16.735999999999994 18.114000000000008  C 17.585999999999995 17.738000000000007  17.999999999999993 16.800000000000008  17.867999999999995 15.528000000000008  C 17.843999999999994 15.314000000000007  17.827999999999996 15.10800000000001  17.793999999999997 14.904000000000007  C 17.569823169659877 12.692304578733046  17.335820860042087 10.481616092429398  17.09199999999999 8.272000000000007  C 16.95199999999999 6.952000000000007  16.96599999999999 6.4880000000000075  17.133999999999993 5.9640000000000075  Z M 12.220000000000002 13.474  L 12.220000000000002 13.472  L 12.223999999999998 13.524  C 12.221565163502655 13.520947648861775  12.2195474455938 13.517584785680354  12.218 13.513999999999998  L 12.218 13.478  L 12.220000000000002 13.474  Z M 12.227999999999998 13.556  L 12.227999999999998 13.558000000000002  L 12.24 13.732  C 12.234 13.680000000000001  12.23 13.63  12.220000000000002 13.571999999999997  C 12.220000000000002 13.566  12.226 13.562000000000001  12.227999999999998 13.556  Z M 12.249999999999998 13.832  L 12.248000000000001 13.83  L 12.253999999999998 13.88  L 12.249999999999998 13.88  L 12.249999999999998 13.85  C 12.249999999999998 13.844000000000003  12.253999999999998 13.840000000000003  12.249999999999998 13.834000000000001  L 12.249999999999998 13.832  Z M 12.252 13.918  C 12.255999999999997 13.918  12.255999999999997 13.914  12.258 13.91  L 12.258 13.934000000000001  C 12.255999999999997 13.928  12.252 13.924000000000001  12.252 13.918  Z M 32.455999999999996 18.556  L 32.458 18.554000000000002  L 32.461999999999996 18.578000000000003  C 32.461999999999996 18.582000000000004  32.461999999999996 18.586000000000002  32.467999999999996 18.592000000000002  L 32.455999999999996 18.556  Z M 32.467999999999996 18.590000000000003  L 32.467999999999996 18.592000000000002  C 32.477999999999994 18.622000000000003  32.483999999999995 18.660000000000004  32.494 18.692000000000004  L 32.474 18.604000000000003  C 32.470396799795765 18.600196631765225  32.4682691975464 18.59523222651671  32.467999999999996 18.590000000000003  Z " fill-rule="nonzero" fill="rgba(125, 160, 208, 1)" stroke="none" class="fill" />
    <path d="M 16.602 0  L 16.6 0  C 13.5 0.012  11.28 2.314  11.596 6.012  C 11.8 8.466  12.014 10.957999999999998  12.222000000000001 13.469999999999999  C 10.062 14.379999999999999  7.786 15.337999999999997  5.366 16.362  C 2.856 17.433999999999997  1.1199999999999992 19.58  0.45199999999999996 22.131999999999998  C -0.2280000000000002 24.732  0.18199999999999994 27.748  1.898 30.418  C 3.423999999999999 32.808  5.6099999999999985 34.43  8.408 35.308  C 8.248 37.492  8.468 39.468  9.088 41.218  C 9.363999999999999 41.996  9.719999999999999 42.728  10.154 43.414  C 11.75 45.952  14.11 47.472  16.52 47.884  C 18.90904268615302 48.31401949828387  21.35934334213422 47.57163939668422  23.108 45.888  C 25.068 43.998  26.922 42.211999999999996  28.688000000000002 40.519999999999996  C 30.782000000000004 41.779999999999994  32.800000000000004 42.989999999999995  34.764 44.17399999999999  C 37.972 46.087999999999994  41.25 44.00599999999999  42.024 39.94399999999999  C 42.348 38.249999999999986  42.204 36.359999999999985  41.604 34.219999999999985  C 42.744 33.51799999999999  43.454 32.417999999999985  43.736 30.87799999999999  C 44.34599999999999 27.60999999999998  42.73 23.313999999999986  40.081999999999994 21.117999999999988  C 38.678 19.953999999999986  37.227999999999994 18.76399999999999  35.75399999999999 17.55199999999999  L 35.74399999999999 17.50599999999999  C 35.37199999999999 15.40599999999999  35.00999999999999 13.34599999999999  34.647999999999996 11.32599999999999  C 34.035999999999994 7.87799999999999  31.049999999999997 4.24999999999999  27.89999999999999 3.24599999999999  C 26.455999999999996 2.78599999999999  25.113999999999994 2.92999999999999  23.83 3.69599999999999  C 22.271999999999995 2.0479999999999903  20.643999999999995 0.9359999999999902  18.869999999999994 0.3679999999999901  C 18.13791137470476 0.12742164788900448  17.372597934409068 0.0032438057246273366  16.602 0  Z " stroke-width="0" stroke-dasharray="0" stroke="rgba(255, 255, 255, 0)" fill="none" class="stroke" mask="url(#Clip7547)" />
    <path d="M 17.133999999999993 5.9640000000000075  C 17.333999999999993 5.338000000000007  17.913999999999994 4.978000000000008  18.638 4.958  C 18.878 4.952  19.138 4.982  19.400000000000002 5.054  C 20.334000000000003 5.304  21.224000000000004 6.034000000000001  21.71 6.918  C 22.106 7.654  22.29 8.258000000000001  22.450000000000003 9.514  L 23.258000000000003 15.799999999999999  C 23.284 15.998000000000001  23.311999999999998 16.189999999999998  23.334 16.386  C 23.564 18.163999999999998  24.622000000000003 19.442  25.994 19.624  C 27.312000000000005 19.798  28.013999999999996 18.764  27.774000000000004 17.104  C 27.75079008831717 16.918382605756356  27.725455093531576 16.733037117588058  27.698000000000004 16.548  L 26.814 10.537999999999998  C 26.688 9.687999999999999  26.646 9.037999999999998  26.714 8.617999999999999  C 26.817999999999998 7.687999999999999  27.558 7.203999999999999  28.506000000000004 7.46  C 29.464 7.7219999999999995  30.36 8.604  30.774000000000004 9.654  C 30.986000000000004 10.186  31.081999999999997 10.6  31.246000000000002 11.582  C 31.560000000000002 13.464  31.870000000000008 15.362  32.190000000000005 17.318  C 32.21600000000001 17.492  32.246 17.666  32.26800000000001 17.852  C 32.306000000000004 18.032  32.35800000000001 18.19  32.40400000000001 18.352  L 32.40800000000001 18.38  L 32.41000000000001 18.384  L 32.45600000000001 18.552  L 32.45600000000001 18.548  C 32.45600000000001 18.54  32.45600000000001 18.534  32.45200000000001 18.528  L 32.45800000000001 18.541999999999998  L 32.45800000000001 18.548  C 32.65600000000001 19.296  33.146000000000015 20.04  33.87000000000001 20.607999999999997  C 34.000000000000014 20.711999999999996  34.14800000000001 20.813999999999997  34.28000000000001 20.927999999999997  C 35.74000000000001 22.073999999999998  37.16400000000001 23.208  38.56200000000001 24.299999999999997  C 39.40400000000001 24.959999999999994  39.70800000000001 25.267999999999997  40.04200000000001 25.734  C 40.580000000000005 26.494  40.80600000000001 27.601999999999993  40.61600000000001 28.451999999999998  C 40.44200000000001 29.238  39.934000000000005 29.706  39.300000000000004 29.631999999999998  C 38.78 29.569999999999997  38.34 29.357999999999997  37.452000000000005 28.701999999999998  C 35.98400000000001 27.601999999999993  34.48400000000001 26.477999999999994  32.932 25.334  C 32.796 25.237999999999996  32.644000000000005 25.134  32.506 25.03  C 31.214 24.078000000000003  30.090000000000003 24.26  29.658 25.560000000000002  C 29.214 26.892000000000003  29.838 28.458000000000002  31.166000000000007 29.388  C 31.310000000000002 29.488000000000003  31.472 29.602000000000004  31.612000000000002 29.704  C 33.232 30.837999999999997  34.822 31.944000000000003  36.372 33.024  C 37.03 33.482  37.518 33.912  37.842 34.300000000000004  C 38.556 35.118  38.896 36.46000000000001  38.65 37.584  C 38.385999999999996 38.77  37.622 39.388000000000005  36.693999999999996 39.176  C 36.224 39.076  35.87199999999999 38.888000000000005  35.029999999999994 38.342  C 33.395999999999994 37.282  31.715999999999994 36.184  29.983999999999995 35.068  C 29.82399999999999 34.967999999999996  29.663999999999998 34.86  29.509999999999994 34.748  C 28.96399999999999 34.416  28.435999999999993 34.263999999999996  27.973999999999997 34.282  L 27.96999999999999 34.282  C 27.449999999999992 34.248  26.907999999999987 34.437999999999995  26.385999999999992 34.854  C 26.241999999999994 34.974  26.09399999999999 35.088  25.959999999999994 35.214  C 24.34199999999999 36.546  22.665999999999993 37.964  20.889999999999993 39.458  C 19.929999999999993 40.257999999999996  19.497999999999994 40.571999999999996  18.855999999999995 40.798  C 17.565999999999995 41.29  16.139999999999993 40.738  15.247999999999996 39.32  C 14.405999999999995 37.936  14.439999999999996 36.142  15.311999999999994 35.012  C 15.681999999999995 34.508  16.307999999999993 33.932  17.171999999999993 33.32  C 19.051999999999992 31.976  20.831999999999994 30.709999999999997  22.523999999999994 29.496000000000002  C 22.677999999999997 29.392000000000007  22.827999999999992 29.288  22.979999999999993 29.178  C 24.261999999999993 28.268  24.507999999999992 26.658  23.603999999999992 25.156  C 22.723999999999993 23.656  21.263999999999992 23.204  19.883999999999993 24.038  C 19.724822468542776 24.131232488320283  19.56810256284501 24.228598897817623  19.413999999999994 24.330000000000002  C 17.623999999999995 25.428  15.745999999999995 26.586000000000002  13.765999999999995 27.808000000000007  C 12.489999999999995 28.576000000000004  11.813999999999997 28.826000000000008  10.861999999999995 28.870000000000005  C 9.681999999999995 28.930000000000003  8.451999999999995 28.206000000000003  7.7339999999999955 27.062000000000005  C 6.919999999999995 25.790000000000006  6.891999999999993 24.208000000000006  7.673999999999993 23.226000000000006  C 8.113999999999994 22.650000000000006  8.583999999999994 22.300000000000008  9.933999999999994 21.608000000000008  C 12.019999999999992 20.528000000000006  14.023999999999994 19.512000000000008  15.923999999999992 18.558000000000007  C 16.087999999999994 18.458000000000006  16.249999999999993 18.390000000000008  16.417999999999992 18.308000000000007  C 16.533999999999992 18.250000000000007  16.641999999999992 18.182000000000006  16.735999999999994 18.114000000000008  C 17.585999999999995 17.738000000000007  17.999999999999993 16.800000000000008  17.867999999999995 15.528000000000008  C 17.843999999999994 15.314000000000007  17.827999999999996 15.10800000000001  17.793999999999997 14.904000000000007  C 17.569823169659877 12.692304578733046  17.335820860042087 10.481616092429398  17.09199999999999 8.272000000000007  C 16.95199999999999 6.952000000000007  16.96599999999999 6.4880000000000075  17.133999999999993 5.9640000000000075  Z " stroke-width="0" stroke-dasharray="0" stroke="rgba(255, 255, 255, 0)" fill="none" class="stroke" mask="url(#Clip7547)" />
    <path d="M 12.220000000000002 13.474  L 12.220000000000002 13.472  L 12.223999999999998 13.524  C 12.221565163502655 13.520947648861775  12.2195474455938 13.517584785680354  12.218 13.513999999999998  L 12.218 13.478  L 12.220000000000002 13.474  Z " stroke-width="0" stroke-dasharray="0" stroke="rgba(255, 255, 255, 0)" fill="none" class="stroke" mask="url(#Clip7547)" />
    <path d="M 12.227999999999998 13.556  L 12.227999999999998 13.558000000000002  L 12.24 13.732  C 12.234 13.680000000000001  12.23 13.63  12.220000000000002 13.571999999999997  C 12.220000000000002 13.566  12.226 13.562000000000001  12.227999999999998 13.556  Z " stroke-width="0" stroke-dasharray="0" stroke="rgba(255, 255, 255, 0)" fill="none" class="stroke" mask="url(#Clip7547)" />
    <path d="M 12.249999999999998 13.832  L 12.248000000000001 13.83  L 12.253999999999998 13.88  L 12.249999999999998 13.88  L 12.249999999999998 13.85  C 12.249999999999998 13.844000000000003  12.253999999999998 13.840000000000003  12.249999999999998 13.834000000000001  L 12.249999999999998 13.832  Z " stroke-width="0" stroke-dasharray="0" stroke="rgba(255, 255, 255, 0)" fill="none" class="stroke" mask="url(#Clip7547)" />
    <path d="M 12.252 13.918  C 12.255999999999997 13.918  12.255999999999997 13.914  12.258 13.91  L 12.258 13.934000000000001  C 12.255999999999997 13.928  12.252 13.924000000000001  12.252 13.918  Z " stroke-width="0" stroke-dasharray="0" stroke="rgba(255, 255, 255, 0)" fill="none" class="stroke" mask="url(#Clip7547)" />
    <path d="M 32.455999999999996 18.556  L 32.458 18.554000000000002  L 32.461999999999996 18.578000000000003  C 32.461999999999996 18.582000000000004  32.461999999999996 18.586000000000002  32.467999999999996 18.592000000000002  L 32.455999999999996 18.556  Z " stroke-width="0" stroke-dasharray="0" stroke="rgba(255, 255, 255, 0)" fill="none" class="stroke" mask="url(#Clip7547)" />
    <path d="M 32.467999999999996 18.590000000000003  L 32.467999999999996 18.592000000000002  C 32.477999999999994 18.622000000000003  32.483999999999995 18.660000000000004  32.494 18.692000000000004  L 32.474 18.604000000000003  C 32.470396799795765 18.600196631765225  32.4682691975464 18.59523222651671  32.467999999999996 18.590000000000003  Z " stroke-width="0" stroke-dasharray="0" stroke="rgba(255, 255, 255, 0)" fill="none" class="stroke" mask="url(#Clip7547)" />
  </g>
</svg>