<?xml version="1.0" encoding="utf-8"?>
<svg version="1.1" xmlns:xlink="http://www.w3.org/1999/xlink" width="47px" height="50px" xmlns="http://www.w3.org/2000/svg">
  <defs>
    <pattern id="BGPattern" patternUnits="userSpaceOnUse" alignment="0 0" imageRepeat="None" />
    <mask fill="white" id="Clip2552">
      <path d="M 46.8125 35.95  C 47.00625 35.56875  46.725 35.118750000000006  46.3 35.11875  L 42.6875 35.11875  C 42.3375 35.11875  42.00625 35.3  41.81875 35.6  C 41.025 36.85625  40.1 38.018750000000004  39.0375 39.081250000000004  C 37.206250000000004 40.9125  35.075 42.35  32.706250000000004 43.35  C 30.250000000000007 44.3875  27.643750000000004 44.9125  24.95625 44.9125  C 22.262500000000003 44.9125  19.656250000000004 44.3875  17.206250000000004 43.35  C 14.837500000000007 42.35  12.706250000000004 40.9125  10.875000000000004 39.081250000000004  C 9.043750000000003 37.25000000000001  7.606250000000004 35.118750000000006  6.606250000000003 32.75000000000001  C 5.568750000000003 30.300000000000004  5.043750000000003 27.693750000000005  5.043750000000003 25.000000000000007  C 5.043750000000003 22.306250000000006  5.568750000000003 19.706250000000008  6.606250000000003 17.250000000000007  C 7.606250000000004 14.88125000000001  9.043750000000003 12.750000000000005  10.875000000000004 10.918750000000006  C 12.706250000000004 9.087500000000006  14.837500000000002 7.650000000000006  17.206250000000004 6.650000000000006  C 19.656250000000004 5.612500000000006  22.268750000000004 5.087500000000006  24.95625 5.087500000000006  C 27.650000000000006 5.087500000000006  30.25625 5.612500000000006  32.706250000000004 6.650000000000006  C 35.075 7.650000000000006  37.206250000000004 9.087500000000006  39.0375 10.918750000000006  C 40.1 11.981250000000006  41.025 13.143750000000006  41.81875 14.400000000000004  C 42.00625 14.700000000000008  42.3375 14.881250000000005  42.6875 14.881250000000005  L 46.3 14.881250000000005  C 46.731249999999996 14.881250000000005  47.006249999999994 14.431250000000006  46.8125 14.050000000000004  C 42.7375 5.943750000000005  34.475 0.6750000000000043  25.25 0.568750000000005  C 11.74375 0.4000000000000048  0.5249999999999986 11.456250000000004  0.5 24.950000000000006  C 0.47499999999999964 38.46875  11.43125 49.4375  24.95 49.4375  C 34.29375 49.4375  42.693749999999994 44.15  46.8125 35.95  Z " fill-rule="evenodd" />
    </mask>
  </defs>
  <g>
    <path d="M 46.8125 35.95  C 47.00625 35.56875  46.725 35.118750000000006  46.3 35.11875  L 42.6875 35.11875  C 42.3375 35.11875  42.00625 35.3  41.81875 35.6  C 41.025 36.85625  40.1 38.018750000000004  39.0375 39.081250000000004  C 37.206250000000004 40.9125  35.075 42.35  32.706250000000004 43.35  C 30.250000000000007 44.3875  27.643750000000004 44.9125  24.95625 44.9125  C 22.262500000000003 44.9125  19.656250000000004 44.3875  17.206250000000004 43.35  C 14.837500000000007 42.35  12.706250000000004 40.9125  10.875000000000004 39.081250000000004  C 9.043750000000003 37.25000000000001  7.606250000000004 35.118750000000006  6.606250000000003 32.75000000000001  C 5.568750000000003 30.300000000000004  5.043750000000003 27.693750000000005  5.043750000000003 25.000000000000007  C 5.043750000000003 22.306250000000006  5.568750000000003 19.706250000000008  6.606250000000003 17.250000000000007  C 7.606250000000004 14.88125000000001  9.043750000000003 12.750000000000005  10.875000000000004 10.918750000000006  C 12.706250000000004 9.087500000000006  14.837500000000002 7.650000000000006  17.206250000000004 6.650000000000006  C 19.656250000000004 5.612500000000006  22.268750000000004 5.087500000000006  24.95625 5.087500000000006  C 27.650000000000006 5.087500000000006  30.25625 5.612500000000006  32.706250000000004 6.650000000000006  C 35.075 7.650000000000006  37.206250000000004 9.087500000000006  39.0375 10.918750000000006  C 40.1 11.981250000000006  41.025 13.143750000000006  41.81875 14.400000000000004  C 42.00625 14.700000000000008  42.3375 14.881250000000005  42.6875 14.881250000000005  L 46.3 14.881250000000005  C 46.731249999999996 14.881250000000005  47.006249999999994 14.431250000000006  46.8125 14.050000000000004  C 42.7375 5.943750000000005  34.475 0.6750000000000043  25.25 0.568750000000005  C 11.74375 0.4000000000000048  0.5249999999999986 11.456250000000004  0.5 24.950000000000006  C 0.47499999999999964 38.46875  11.43125 49.4375  24.95 49.4375  C 34.29375 49.4375  42.693749999999994 44.15  46.8125 35.95  Z " fill-rule="nonzero" fill="rgba(0, 0, 0, 1)" stroke="none" class="fill" />
    <path d="M 46.8125 35.95  C 47.00625 35.56875  46.725 35.118750000000006  46.3 35.11875  L 42.6875 35.11875  C 42.3375 35.11875  42.00625 35.3  41.81875 35.6  C 41.025 36.85625  40.1 38.018750000000004  39.0375 39.081250000000004  C 37.206250000000004 40.9125  35.075 42.35  32.706250000000004 43.35  C 30.250000000000007 44.3875  27.643750000000004 44.9125  24.95625 44.9125  C 22.262500000000003 44.9125  19.656250000000004 44.3875  17.206250000000004 43.35  C 14.837500000000007 42.35  12.706250000000004 40.9125  10.875000000000004 39.081250000000004  C 9.043750000000003 37.25000000000001  7.606250000000004 35.118750000000006  6.606250000000003 32.75000000000001  C 5.568750000000003 30.300000000000004  5.043750000000003 27.693750000000005  5.043750000000003 25.000000000000007  C 5.043750000000003 22.306250000000006  5.568750000000003 19.706250000000008  6.606250000000003 17.250000000000007  C 7.606250000000004 14.88125000000001  9.043750000000003 12.750000000000005  10.875000000000004 10.918750000000006  C 12.706250000000004 9.087500000000006  14.837500000000002 7.650000000000006  17.206250000000004 6.650000000000006  C 19.656250000000004 5.612500000000006  22.268750000000004 5.087500000000006  24.95625 5.087500000000006  C 27.650000000000006 5.087500000000006  30.25625 5.612500000000006  32.706250000000004 6.650000000000006  C 35.075 7.650000000000006  37.206250000000004 9.087500000000006  39.0375 10.918750000000006  C 40.1 11.981250000000006  41.025 13.143750000000006  41.81875 14.400000000000004  C 42.00625 14.700000000000008  42.3375 14.881250000000005  42.6875 14.881250000000005  L 46.3 14.881250000000005  C 46.731249999999996 14.881250000000005  47.006249999999994 14.431250000000006  46.8125 14.050000000000004  C 42.7375 5.943750000000005  34.475 0.6750000000000043  25.25 0.568750000000005  C 11.74375 0.4000000000000048  0.5249999999999986 11.456250000000004  0.5 24.950000000000006  C 0.47499999999999964 38.46875  11.43125 49.4375  24.95 49.4375  C 34.29375 49.4375  42.693749999999994 44.15  46.8125 35.95  Z " stroke-width="0" stroke-dasharray="0" stroke="rgba(255, 255, 255, 0)" fill="none" class="stroke" mask="url(#Clip2552)" />
  </g>
</svg>