<?xml version="1.0" encoding="utf-8"?>
<svg version="1.1" xmlns:xlink="http://www.w3.org/1999/xlink" width="24px" height="25px" xmlns="http://www.w3.org/2000/svg">
  <defs>
    <pattern id="BGPattern" patternUnits="userSpaceOnUse" alignment="0 0" imageRepeat="None" />
    <mask fill="white" id="Clip5197">
      <path d="M 19.749000000000002 6.868499999999999  C 19.3845 2.9985  16.035 0  11.999999999999998 0  C 10.020365742140017 0.00620777278397108  8.108221556955623 0.7202026243469799  6.609000000000001 2.013  C 5.460000000000001 3.003  4.627500000000001 4.293  4.413000000000001 5.5875  C 1.899 6.1425  0 8.3325  0 10.977  C 0 14.049  2.562 16.5  5.6715 16.5  L 11.25 16.5  L 11.25 8.25  C 11.25 7.835786437626906  11.585786437626904 7.5  12 7.5  C 12.414213562373096 7.5  12.75 7.835786437626906  12.75 8.25  L 12.75 16.5  L 19.031999999999996 16.5  C 21.753 16.5  24 14.355  24 11.6595  C 24 9.205499999999999  22.137 7.2059999999999995  19.749000000000002 6.868499999999999  Z M 6.968999999999999 19.281  L 11.469 23.781  C 11.609706394515252 23.922062551031452  11.800759108712638 24.001340675528127  12 24.001340675528127  C 12.19924089128736 24.001340675528127  12.390293605484748 23.922062551031452  12.530999999999999 23.781  L 17.031 19.281  C 17.171829956104794 19.140170043895203  17.250947401620117 18.94916363391181  17.250947401620117 18.75  C 17.250947401620117 18.33526320216015  16.91473679783985 17.999052598379883  16.5 17.999052598379883  C 16.300836366088188 17.999052598379883  16.109829956104797 18.078170043895202  15.968999999999998 18.218999999999998  L 12.75 21.4395  L 12.75 16.5  L 11.25 16.5  L 11.25 21.4395  L 8.031 18.218999999999998  C 7.890170043895203 18.078170043895202  7.699163633911812 17.999052598379883  7.5 17.999052598379883  C 7.085263202160149 17.999052598379883  6.749052598379887 18.33526320216015  6.749052598379887 18.75  C 6.749052598379887 18.949163633911812  6.828170043895201 19.140170043895203  6.968999999999999 19.281  Z " fill-rule="evenodd" />
    </mask>
  </defs>
  <g>
    <path d="M 19.749000000000002 6.868499999999999  C 19.3845 2.9985  16.035 0  11.999999999999998 0  C 10.020365742140017 0.00620777278397108  8.108221556955623 0.7202026243469799  6.609000000000001 2.013  C 5.460000000000001 3.003  4.627500000000001 4.293  4.413000000000001 5.5875  C 1.899 6.1425  0 8.3325  0 10.977  C 0 14.049  2.562 16.5  5.6715 16.5  L 11.25 16.5  L 11.25 8.25  C 11.25 7.835786437626906  11.585786437626904 7.5  12 7.5  C 12.414213562373096 7.5  12.75 7.835786437626906  12.75 8.25  L 12.75 16.5  L 19.031999999999996 16.5  C 21.753 16.5  24 14.355  24 11.6595  C 24 9.205499999999999  22.137 7.2059999999999995  19.749000000000002 6.868499999999999  Z M 6.968999999999999 19.281  L 11.469 23.781  C 11.609706394515252 23.922062551031452  11.800759108712638 24.001340675528127  12 24.001340675528127  C 12.19924089128736 24.001340675528127  12.390293605484748 23.922062551031452  12.530999999999999 23.781  L 17.031 19.281  C 17.171829956104794 19.140170043895203  17.250947401620117 18.94916363391181  17.250947401620117 18.75  C 17.250947401620117 18.33526320216015  16.91473679783985 17.999052598379883  16.5 17.999052598379883  C 16.300836366088188 17.999052598379883  16.109829956104797 18.078170043895202  15.968999999999998 18.218999999999998  L 12.75 21.4395  L 12.75 16.5  L 11.25 16.5  L 11.25 21.4395  L 8.031 18.218999999999998  C 7.890170043895203 18.078170043895202  7.699163633911812 17.999052598379883  7.5 17.999052598379883  C 7.085263202160149 17.999052598379883  6.749052598379887 18.33526320216015  6.749052598379887 18.75  C 6.749052598379887 18.949163633911812  6.828170043895201 19.140170043895203  6.968999999999999 19.281  Z " fill-rule="nonzero" fill="rgba(0, 0, 0, 1)" stroke="none" class="fill" />
    <path d="M 19.749000000000002 6.868499999999999  C 19.3845 2.9985  16.035 0  11.999999999999998 0  C 10.020365742140017 0.00620777278397108  8.108221556955623 0.7202026243469799  6.609000000000001 2.013  C 5.460000000000001 3.003  4.627500000000001 4.293  4.413000000000001 5.5875  C 1.899 6.1425  0 8.3325  0 10.977  C 0 14.049  2.562 16.5  5.6715 16.5  L 11.25 16.5  L 11.25 8.25  C 11.25 7.835786437626906  11.585786437626904 7.5  12 7.5  C 12.414213562373096 7.5  12.75 7.835786437626906  12.75 8.25  L 12.75 16.5  L 19.031999999999996 16.5  C 21.753 16.5  24 14.355  24 11.6595  C 24 9.205499999999999  22.137 7.2059999999999995  19.749000000000002 6.868499999999999  Z " stroke-width="0" stroke-dasharray="0" stroke="rgba(255, 255, 255, 0)" fill="none" class="stroke" mask="url(#Clip5197)" />
    <path d="M 6.968999999999999 19.281  L 11.469 23.781  C 11.609706394515252 23.922062551031452  11.800759108712638 24.001340675528127  12 24.001340675528127  C 12.19924089128736 24.001340675528127  12.390293605484748 23.922062551031452  12.530999999999999 23.781  L 17.031 19.281  C 17.171829956104794 19.140170043895203  17.250947401620117 18.94916363391181  17.250947401620117 18.75  C 17.250947401620117 18.33526320216015  16.91473679783985 17.999052598379883  16.5 17.999052598379883  C 16.300836366088188 17.999052598379883  16.109829956104797 18.078170043895202  15.968999999999998 18.218999999999998  L 12.75 21.4395  L 12.75 16.5  L 11.25 16.5  L 11.25 21.4395  L 8.031 18.218999999999998  C 7.890170043895203 18.078170043895202  7.699163633911812 17.999052598379883  7.5 17.999052598379883  C 7.085263202160149 17.999052598379883  6.749052598379887 18.33526320216015  6.749052598379887 18.75  C 6.749052598379887 18.949163633911812  6.828170043895201 19.140170043895203  6.968999999999999 19.281  Z " stroke-width="0" stroke-dasharray="0" stroke="rgba(255, 255, 255, 0)" fill="none" class="stroke" mask="url(#Clip5197)" />
  </g>
</svg>