<?xml version="1.0" encoding="utf-8"?>
<svg version="1.1" xmlns:xlink="http://www.w3.org/1999/xlink" width="44px" height="50px" xmlns="http://www.w3.org/2000/svg">
  <defs>
    <pattern id="BGPattern" patternUnits="userSpaceOnUse" alignment="0 0" imageRepeat="None" />
    <mask fill="white" id="Clip2792">
      <path d="M 44 24  C 44 22.89375  43.10625 22  42 22  L 11 22  L 11 8  C 10.75 6.06875  12.318750000000001 4.5  14.25 5  L 29.75 5  C 31.68125 4.5  33.25 6.06875  33.25 8  L 33.25 12.25  C 33.25 12.524999999999997  33.475 12.75  33.75 12.75  L 37.25 12.75  C 37.525 12.75  37.75 12.524999999999997  37.75 12.25  L 37.75 8  C 37.75 3.5812500000000003  34.16875 0  29.75 0  L 14.25 0  C 9.83125 0  6.250000000000001 3.5812500000000003  7 8  L 7 22  L 2 22  C 0.8937500000000006 22  0 22.89375  0 24  L 0 48  C 0 49.10625  0.8937500000000006 50  2 50  L 42 50  C 43.10625 50  44 49.10625  44 48  L 44 24  Z M 39 26  L 39 45  L 5 45  L 5 26  L 39 26  Z M 18.999374999999997 34.37503197136352  C 18.999374999999997 35.34151703505098  19.46490474721337 36.24883447649971  20.25 36.8125  L 20.25 40.125  C 20.25 40.4  20.475 40.625  20.75 40.625  L 23.25 40.625  C 23.525 40.625  23.75 40.4  23.75 40.125  L 23.75 36.8125  C 24.53509525278662 36.24883447649971  25.000625000000003 35.34151703505098  25.000625000000003 34.37503197136352  C 25.000625000000003 32.717832543902496  23.65719942746102 31.374406971363523  21.999999999999996 31.374406971363523  C 20.342800572538973 31.374406971363523  18.999374999999997 32.717832543902496  18.999374999999997 34.37503197136352  Z " fill-rule="evenodd" />
    </mask>
  </defs>
  <g>
    <path d="M 44 24  C 44 22.89375  43.10625 22  42 22  L 11 22  L 11 8  C 10.75 6.06875  12.318750000000001 4.5  14.25 5  L 29.75 5  C 31.68125 4.5  33.25 6.06875  33.25 8  L 33.25 12.25  C 33.25 12.524999999999997  33.475 12.75  33.75 12.75  L 37.25 12.75  C 37.525 12.75  37.75 12.524999999999997  37.75 12.25  L 37.75 8  C 37.75 3.5812500000000003  34.16875 0  29.75 0  L 14.25 0  C 9.83125 0  6.250000000000001 3.5812500000000003  7 8  L 7 22  L 2 22  C 0.8937500000000006 22  0 22.89375  0 24  L 0 48  C 0 49.10625  0.8937500000000006 50  2 50  L 42 50  C 43.10625 50  44 49.10625  44 48  L 44 24  Z M 39 26  L 39 45  L 5 45  L 5 26  L 39 26  Z M 18.999374999999997 34.37503197136352  C 18.999374999999997 35.34151703505098  19.46490474721337 36.24883447649971  20.25 36.8125  L 20.25 40.125  C 20.25 40.4  20.475 40.625  20.75 40.625  L 23.25 40.625  C 23.525 40.625  23.75 40.4  23.75 40.125  L 23.75 36.8125  C 24.53509525278662 36.24883447649971  25.000625000000003 35.34151703505098  25.000625000000003 34.37503197136352  C 25.000625000000003 32.717832543902496  23.65719942746102 31.374406971363523  21.999999999999996 31.374406971363523  C 20.342800572538973 31.374406971363523  18.999374999999997 32.717832543902496  18.999374999999997 34.37503197136352  Z " fill-rule="nonzero" fill="rgba(0, 0, 0, 1)" stroke="none" class="fill" />
    <path d="M 44 24  C 44 22.89375  43.10625 22  42 22  L 11 22  L 11 8  C 10.75 6.06875  12.318750000000001 4.5  14.25 5  L 29.75 5  C 31.68125 4.5  33.25 6.06875  33.25 8  L 33.25 12.25  C 33.25 12.524999999999997  33.475 12.75  33.75 12.75  L 37.25 12.75  C 37.525 12.75  37.75 12.524999999999997  37.75 12.25  L 37.75 8  C 37.75 3.5812500000000003  34.16875 0  29.75 0  L 14.25 0  C 9.83125 0  6.250000000000001 3.5812500000000003  7 8  L 7 22  L 2 22  C 0.8937500000000006 22  0 22.89375  0 24  L 0 48  C 0 49.10625  0.8937500000000006 50  2 50  L 42 50  C 43.10625 50  44 49.10625  44 48  L 44 24  Z " stroke-width="0" stroke-dasharray="0" stroke="rgba(255, 255, 255, 0)" fill="none" class="stroke" mask="url(#Clip2792)" />
    <path d="M 39 26  L 39 45  L 5 45  L 5 26  L 39 26  Z " stroke-width="0" stroke-dasharray="0" stroke="rgba(255, 255, 255, 0)" fill="none" class="stroke" mask="url(#Clip2792)" />
    <path d="M 18.999374999999997 34.37503197136352  C 18.999374999999997 35.34151703505098  19.46490474721337 36.24883447649971  20.25 36.8125  L 20.25 40.125  C 20.25 40.4  20.475 40.625  20.75 40.625  L 23.25 40.625  C 23.525 40.625  23.75 40.4  23.75 40.125  L 23.75 36.8125  C 24.53509525278662 36.24883447649971  25.000625000000003 35.34151703505098  25.000625000000003 34.37503197136352  C 25.000625000000003 32.717832543902496  23.65719942746102 31.374406971363523  21.999999999999996 31.374406971363523  C 20.342800572538973 31.374406971363523  18.999374999999997 32.717832543902496  18.999374999999997 34.37503197136352  Z " stroke-width="0" stroke-dasharray="0" stroke="rgba(255, 255, 255, 0)" fill="none" class="stroke" mask="url(#Clip2792)" />
  </g>
</svg>