<?xml version="1.0" encoding="utf-8"?>
<svg version="1.1" xmlns:xlink="http://www.w3.org/1999/xlink" width="28px" height="14px" xmlns="http://www.w3.org/2000/svg">
  <defs>
    <pattern id="BGPattern" patternUnits="userSpaceOnUse" alignment="0 0" imageRepeat="None" />
    <mask fill="white" id="Clip3717">
      <path d="M 26.125 11.6875  C 24.92658373952271 12.878097619843636  23.314055568888023 13.55894284744495  21.625 13.587499999999999  C 19.926517347120043 13.605120419901631  18.29689615103121 12.917058137108565  17.125 11.6875  L 14.025 8.4875  L 10.924999999999999 11.6875  C 8.406769064089488 14.187481817679926  4.343230935910511 14.187481817679926  1.8249999999999997 11.687500000000004  C 0.6653778370954226 10.396752389944357  0.024232996106996918 8.722651971807913  0.024999999999999467 6.9875000000000025  C 0.013414924247649118 5.2315122991911505  0.6963606016984603 3.5421203602338807  1.9249999999999994 2.2874999999999996  C 3.115 1.0875000000000004  4.734999999999998 0.4125000000000014  6.424999999999999 0.4125000000000014  C 8.115 0.4125000000000014  9.734999999999996 1.0875000000000004  10.924999999999999 2.2875000000000014  L 14.025 5.487500000000001  L 17.124999999999996 2.2874999999999996  C 18.314999999999998 1.0875000000000004  19.935 0.4125000000000014  21.624999999999996 0.4125000000000014  C 23.314999999999998 0.4125000000000014  24.934999999999995 1.0875000000000004  26.124999999999996 2.2875000000000014  C 28.6249831758808 4.922169832294472  28.6249831758808 9.052830167705526  26.125 11.6875  Z M 18.525000000000002 3.6874999999999987  L 15.425 6.987499999999999  L 18.525000000000002 10.287499999999998  C 20.242063762465524 11.987514904266853  23.00793623753448 11.987514904266853  24.725 10.287499999999998  C 26.425181686453257 8.415979291698982  26.425181686453257 5.559020708301016  24.725 3.6874999999999987  C 23.00793623753448 1.9874850957331383  20.242063762465524 1.9874850957331383  18.525000000000002 3.6874999999999987  Z M 9.525000000000002 3.6875  C 8.683621059815977 2.892397931612283  7.581835741368362 2.4303589271019916  6.425000000000001 2.3874999999999993  C 5.254757329502595 2.365224948165684  4.129317259518131 2.837183687191427  3.325000000000001 3.6874999999999987  C 1.5916855070039713 5.5460932804965815  1.5916855070039726 8.428906719503416  3.325000000000001 10.287500000000001  C 5.0420637624655225 11.987514904266863  7.8079362375344825 11.987514904266863  9.525000000000002 10.287500000000001  L 12.625000000000002 6.987500000000001  L 9.525000000000002 3.6875  Z " fill-rule="evenodd" />
    </mask>
  </defs>
  <g transform="matrix(1 0 0 1 -2 -9 )">
    <path d="M 26.125 11.6875  C 24.92658373952271 12.878097619843636  23.314055568888023 13.55894284744495  21.625 13.587499999999999  C 19.926517347120043 13.605120419901631  18.29689615103121 12.917058137108565  17.125 11.6875  L 14.025 8.4875  L 10.924999999999999 11.6875  C 8.406769064089488 14.187481817679926  4.343230935910511 14.187481817679926  1.8249999999999997 11.687500000000004  C 0.6653778370954226 10.396752389944357  0.024232996106996918 8.722651971807913  0.024999999999999467 6.9875000000000025  C 0.013414924247649118 5.2315122991911505  0.6963606016984603 3.5421203602338807  1.9249999999999994 2.2874999999999996  C 3.115 1.0875000000000004  4.734999999999998 0.4125000000000014  6.424999999999999 0.4125000000000014  C 8.115 0.4125000000000014  9.734999999999996 1.0875000000000004  10.924999999999999 2.2875000000000014  L 14.025 5.487500000000001  L 17.124999999999996 2.2874999999999996  C 18.314999999999998 1.0875000000000004  19.935 0.4125000000000014  21.624999999999996 0.4125000000000014  C 23.314999999999998 0.4125000000000014  24.934999999999995 1.0875000000000004  26.124999999999996 2.2875000000000014  C 28.6249831758808 4.922169832294472  28.6249831758808 9.052830167705526  26.125 11.6875  Z M 18.525000000000002 3.6874999999999987  L 15.425 6.987499999999999  L 18.525000000000002 10.287499999999998  C 20.242063762465524 11.987514904266853  23.00793623753448 11.987514904266853  24.725 10.287499999999998  C 26.425181686453257 8.415979291698982  26.425181686453257 5.559020708301016  24.725 3.6874999999999987  C 23.00793623753448 1.9874850957331383  20.242063762465524 1.9874850957331383  18.525000000000002 3.6874999999999987  Z M 9.525000000000002 3.6875  C 8.683621059815977 2.892397931612283  7.581835741368362 2.4303589271019916  6.425000000000001 2.3874999999999993  C 5.254757329502595 2.365224948165684  4.129317259518131 2.837183687191427  3.325000000000001 3.6874999999999987  C 1.5916855070039713 5.5460932804965815  1.5916855070039726 8.428906719503416  3.325000000000001 10.287500000000001  C 5.0420637624655225 11.987514904266863  7.8079362375344825 11.987514904266863  9.525000000000002 10.287500000000001  L 12.625000000000002 6.987500000000001  L 9.525000000000002 3.6875  Z " fill-rule="nonzero" fill="rgba(0, 0, 0, 1)" stroke="none" transform="matrix(1 0 0 1 2 9 )" class="fill" />
    <path d="M 26.125 11.6875  C 24.92658373952271 12.878097619843636  23.314055568888023 13.55894284744495  21.625 13.587499999999999  C 19.926517347120043 13.605120419901631  18.29689615103121 12.917058137108565  17.125 11.6875  L 14.025 8.4875  L 10.924999999999999 11.6875  C 8.406769064089488 14.187481817679926  4.343230935910511 14.187481817679926  1.8249999999999997 11.687500000000004  C 0.6653778370954226 10.396752389944357  0.024232996106996918 8.722651971807913  0.024999999999999467 6.9875000000000025  C 0.013414924247649118 5.2315122991911505  0.6963606016984603 3.5421203602338807  1.9249999999999994 2.2874999999999996  C 3.115 1.0875000000000004  4.734999999999998 0.4125000000000014  6.424999999999999 0.4125000000000014  C 8.115 0.4125000000000014  9.734999999999996 1.0875000000000004  10.924999999999999 2.2875000000000014  L 14.025 5.487500000000001  L 17.124999999999996 2.2874999999999996  C 18.314999999999998 1.0875000000000004  19.935 0.4125000000000014  21.624999999999996 0.4125000000000014  C 23.314999999999998 0.4125000000000014  24.934999999999995 1.0875000000000004  26.124999999999996 2.2875000000000014  C 28.6249831758808 4.922169832294472  28.6249831758808 9.052830167705526  26.125 11.6875  Z " stroke-width="0" stroke-dasharray="0" stroke="rgba(255, 255, 255, 0)" fill="none" transform="matrix(1 0 0 1 2 9 )" class="stroke" mask="url(#Clip3717)" />
    <path d="M 18.525000000000002 3.6874999999999987  L 15.425 6.987499999999999  L 18.525000000000002 10.287499999999998  C 20.242063762465524 11.987514904266853  23.00793623753448 11.987514904266853  24.725 10.287499999999998  C 26.425181686453257 8.415979291698982  26.425181686453257 5.559020708301016  24.725 3.6874999999999987  C 23.00793623753448 1.9874850957331383  20.242063762465524 1.9874850957331383  18.525000000000002 3.6874999999999987  Z " stroke-width="0" stroke-dasharray="0" stroke="rgba(255, 255, 255, 0)" fill="none" transform="matrix(1 0 0 1 2 9 )" class="stroke" mask="url(#Clip3717)" />
    <path d="M 9.525000000000002 3.6875  C 8.683621059815977 2.892397931612283  7.581835741368362 2.4303589271019916  6.425000000000001 2.3874999999999993  C 5.254757329502595 2.365224948165684  4.129317259518131 2.837183687191427  3.325000000000001 3.6874999999999987  C 1.5916855070039713 5.5460932804965815  1.5916855070039726 8.428906719503416  3.325000000000001 10.287500000000001  C 5.0420637624655225 11.987514904266863  7.8079362375344825 11.987514904266863  9.525000000000002 10.287500000000001  L 12.625000000000002 6.987500000000001  L 9.525000000000002 3.6875  Z " stroke-width="0" stroke-dasharray="0" stroke="rgba(255, 255, 255, 0)" fill="none" transform="matrix(1 0 0 1 2 9 )" class="stroke" mask="url(#Clip3717)" />
  </g>
</svg>