<?xml version="1.0" encoding="utf-8"?>
<svg version="1.1" xmlns:xlink="http://www.w3.org/1999/xlink" width="65px" height="51px" xmlns="http://www.w3.org/2000/svg">
  <defs>
    <pattern id="BGPattern" patternUnits="userSpaceOnUse" alignment="0 0" imageRepeat="None" />
  </defs>
  <g>
    <path d="M 42.69 28.676250000000003  L 42.69 28.694999999999997  C 46.896249999999995 28.694999999999997  52.9825 27.8275  52.9825 22.82  C 53.010000000000005 21.9775  53.09 22.5925  50.3725 10.79  C 49.795 8.396249999999998  49.2875 7.309999999999999  45.08375 5.208749999999998  C 41.822500000000005 3.541249999999998  34.71875 0.7874999999999988  32.6175 0.7874999999999988  C 30.66 0.7874999999999988  30.0925 3.30875  27.75875 3.30875  C 25.50875 3.30875  23.845 1.4262499999999996  21.74375 1.4262499999999996  C 19.72625 1.4262499999999996  18.41125 2.8012499999999996  17.39625 5.62875  C 13.958749999999998 15.322499999999998  14.111249999999998 14.912500000000001  14.131249999999998 15.412500000000001  C 14.131249999999998 18.512500000000003  26.33625 28.676250000000003  42.69 28.676250000000003  Z M 53.63375 24.85125  L 53.625 24.855  C 54.20625 27.605  54.20625 27.89875  54.20625 28.261250000000004  C 54.20625 32.96875  48.915 35.581250000000004  41.95625 35.581250000000004  C 26.238749999999996 35.59125  12.467499999999998 26.375  12.467499999999998 20.290000000000006  C 12.466191473487578 19.442260880526973  12.638923352930776 18.603277466088585  12.974999999999998 17.825000000000006  C 7.32 18.1075  0 19.11625  0 25.57875  C 0 36.1625  25.07875 49.20375  44.93625 49.20375  C 60.160000000000004 49.20375  64 42.31875  64 36.88125  C 64 32.605000000000004  60.30125 27.750000000000004  53.63375 24.85125  Z " fill-rule="nonzero" fill="rgba(0, 0, 0, 1)" stroke="none" class="fill" />
    <path d="M 42.69 28.694999999999997  C 46.896249999999995 28.694999999999997  52.9825 27.8275  52.9825 22.82  C 53.010000000000005 21.9775  53.09 22.5925  50.3725 10.79  C 49.795 8.396249999999998  49.2875 7.309999999999999  45.08375 5.208749999999998  C 41.822500000000005 3.541249999999998  34.71875 0.7874999999999988  32.6175 0.7874999999999988  C 30.66 0.7874999999999988  30.0925 3.30875  27.75875 3.30875  C 25.50875 3.30875  23.845 1.4262499999999996  21.74375 1.4262499999999996  C 19.72625 1.4262499999999996  18.41125 2.8012499999999996  17.39625 5.62875  C 13.958749999999998 15.322499999999998  14.111249999999998 14.912500000000001  14.131249999999998 15.412500000000001  C 14.131249999999998 18.512500000000003  26.33625 28.676250000000003  42.69 28.676250000000003  M 53.625 24.855  C 54.20625 27.605  54.20625 27.89875  54.20625 28.261250000000004  C 54.20625 32.96875  48.915 35.581250000000004  41.95625 35.581250000000004  C 26.238749999999996 35.59125  12.467499999999998 26.375  12.467499999999998 20.290000000000006  C 12.466191473487578 19.442260880526973  12.638923352930776 18.603277466088585  12.974999999999998 17.825000000000006  C 7.32 18.1075  0 19.11625  0 25.57875  C 0 36.1625  25.07875 49.20375  44.93625 49.20375  C 60.160000000000004 49.20375  64 42.31875  64 36.88125  C 64 32.605000000000004  60.30125 27.750000000000004  53.63375 24.85125  " stroke-width="0" stroke-dasharray="0" stroke="rgba(255, 255, 255, 0)" fill="none" class="stroke" />
  </g>
</svg>