<?xml version="1.0" encoding="utf-8"?>
<svg version="1.1" xmlns:xlink="http://www.w3.org/1999/xlink" width="3px" height="3px" xmlns="http://www.w3.org/2000/svg">
  <defs>
    <pattern id="BGPattern" patternUnits="userSpaceOnUse" alignment="0 0" imageRepeat="None" />
    <mask fill="white" id="Clip3393">
      <path d="M 3 1  C 2.9988425278745687 2.1040897036022104  2.1040897036022095 2.9988425278745687  1 3  L 0 3  L 0 1.9999999999999991  C 0.0011574721254312692 0.8959102963977879  0.8959102963977905 0.001157472125430381  2 0  L 3 0  L 3 1  Z " fill-rule="evenodd" />
    </mask>
  </defs>
  <g transform="matrix(1 0 0 1 -17 -4 )">
    <path d="M 3 1  C 2.9988425278745687 2.1040897036022104  2.1040897036022095 2.9988425278745687  1 3  L 0 3  L 0 1.9999999999999991  C 0.0011574721254312692 0.8959102963977879  0.8959102963977905 0.001157472125430381  2 0  L 3 0  L 3 1  Z " fill-rule="nonzero" fill="rgba(0, 0, 0, 1)" stroke="none" transform="matrix(1 0 0 1 17 4 )" class="fill" />
    <path d="M 3 1  C 2.9988425278745687 2.1040897036022104  2.1040897036022095 2.9988425278745687  1 3  L 0 3  L 0 1.9999999999999991  C 0.0011574721254312692 0.8959102963977879  0.8959102963977905 0.001157472125430381  2 0  L 3 0  L 3 1  Z " stroke-width="0" stroke-dasharray="0" stroke="rgba(255, 255, 255, 0)" fill="none" transform="matrix(1 0 0 1 17 4 )" class="stroke" mask="url(#Clip3393)" />
  </g>
</svg>