<?xml version="1.0" encoding="utf-8"?>
<svg version="1.1" xmlns:xlink="http://www.w3.org/1999/xlink" width="7px" height="10px" xmlns="http://www.w3.org/2000/svg">
  <defs>
    <pattern id="BGPattern" patternUnits="userSpaceOnUse" alignment="0 0" imageRepeat="None" />
    <mask fill="white" id="Clip3851">
      <path d="M 5 0  L 5 4  L 2 4  L 2 0  L 0 0  L 0 10  L 2 10  L 2 6  L 5 6  L 5 10  L 7 10  L 7 0  L 5 0  Z " fill-rule="evenodd" />
    </mask>
  </defs>
  <g transform="matrix(1 0 0 1 -8 -11 )">
    <path d="M 5 0  L 5 4  L 2 4  L 2 0  L 0 0  L 0 10  L 2 10  L 2 6  L 5 6  L 5 10  L 7 10  L 7 0  L 5 0  Z " fill-rule="nonzero" fill="rgba(0, 0, 0, 1)" stroke="none" transform="matrix(1 0 0 1 8 11 )" class="fill" />
    <path d="M 5 0  L 5 4  L 2 4  L 2 0  L 0 0  L 0 10  L 2 10  L 2 6  L 5 6  L 5 10  L 7 10  L 7 0  L 5 0  Z " stroke-width="0" stroke-dasharray="0" stroke="rgba(255, 255, 255, 0)" fill="none" transform="matrix(1 0 0 1 8 11 )" class="stroke" mask="url(#Clip3851)" />
  </g>
</svg>