<?xml version="1.0" encoding="utf-8"?>
<svg version="1.1" xmlns:xlink="http://www.w3.org/1999/xlink" width="24px" height="11px" xmlns="http://www.w3.org/2000/svg">
  <defs>
    <pattern id="BGPattern" patternUnits="userSpaceOnUse" alignment="0 0" imageRepeat="None" />
    <mask fill="white" id="Clip6116">
      <path d="M 0 8  L 0 3.5  C 0 1.8431457505076203  1.3431457505076196 0.5  3 0.5  L 21 0.5  C 22.65685424949238 0.5  24 1.8431457505076203  24 3.5  L 24 8  C 24 9.65685424949238  22.65685424949238 11  21 11  L 19.5 11  L 19.5 8  C 19.5 6.343145750507619  18.15685424949238 5  16.5 5  L 7.5 5  C 5.843145750507619 5  4.5 6.343145750507619  4.5 8  L 4.5 11  L 3 11  C 1.3431457505076196 11  0 9.65685424949238  0 8  Z M 3 4.25  C 3 4.664213562373096  3.335786437626905 5  3.75 5  C 4.164213562373095 5  4.5 4.664213562373096  4.5 4.25  C 4.5 3.8357864376269046  4.164213562373095 3.5  3.75 3.5  C 3.335786437626905 3.5  3 3.8357864376269046  3 4.25  Z " fill-rule="evenodd" />
    </mask>
  </defs>
  <g transform="matrix(1 0 0 1 0 -6 )">
    <path d="M 0 8  L 0 3.5  C 0 1.8431457505076203  1.3431457505076196 0.5  3 0.5  L 21 0.5  C 22.65685424949238 0.5  24 1.8431457505076203  24 3.5  L 24 8  C 24 9.65685424949238  22.65685424949238 11  21 11  L 19.5 11  L 19.5 8  C 19.5 6.343145750507619  18.15685424949238 5  16.5 5  L 7.5 5  C 5.843145750507619 5  4.5 6.343145750507619  4.5 8  L 4.5 11  L 3 11  C 1.3431457505076196 11  0 9.65685424949238  0 8  Z M 3 4.25  C 3 4.664213562373096  3.335786437626905 5  3.75 5  C 4.164213562373095 5  4.5 4.664213562373096  4.5 4.25  C 4.5 3.8357864376269046  4.164213562373095 3.5  3.75 3.5  C 3.335786437626905 3.5  3 3.8357864376269046  3 4.25  Z " fill-rule="nonzero" fill="rgba(0, 0, 0, 1)" stroke="none" transform="matrix(1 0 0 1 0 6 )" class="fill" />
    <path d="M 0 8  L 0 3.5  C 0 1.8431457505076203  1.3431457505076196 0.5  3 0.5  L 21 0.5  C 22.65685424949238 0.5  24 1.8431457505076203  24 3.5  L 24 8  C 24 9.65685424949238  22.65685424949238 11  21 11  L 19.5 11  L 19.5 8  C 19.5 6.343145750507619  18.15685424949238 5  16.5 5  L 7.5 5  C 5.843145750507619 5  4.5 6.343145750507619  4.5 8  L 4.5 11  L 3 11  C 1.3431457505076196 11  0 9.65685424949238  0 8  Z " stroke-width="0" stroke-dasharray="0" stroke="rgba(255, 255, 255, 0)" fill="none" transform="matrix(1 0 0 1 0 6 )" class="stroke" mask="url(#Clip6116)" />
    <path d="M 3 4.25  C 3 4.664213562373096  3.335786437626905 5  3.75 5  C 4.164213562373095 5  4.5 4.664213562373096  4.5 4.25  C 4.5 3.8357864376269046  4.164213562373095 3.5  3.75 3.5  C 3.335786437626905 3.5  3 3.8357864376269046  3 4.25  Z " stroke-width="0" stroke-dasharray="0" stroke="rgba(255, 255, 255, 0)" fill="none" transform="matrix(1 0 0 1 0 6 )" class="stroke" mask="url(#Clip6116)" />
  </g>
</svg>