<?xml version="1.0" encoding="utf-8"?>
<svg version="1.1" xmlns:xlink="http://www.w3.org/1999/xlink" width="44px" height="50px" xmlns="http://www.w3.org/2000/svg">
  <defs>
    <pattern id="BGPattern" patternUnits="userSpaceOnUse" alignment="0 0" imageRepeat="None" />
    <mask fill="white" id="Clip2037">
      <path d="M 43 4.6875  C 43.75 2.099609375  41.650390625 0  39.0625 0  L 4.6875 0  C 2.099609375 0  0 2.099609375  0 4.6875  L 0 45.3125  C 0 47.900390625  2.099609375 50  4.6875 50  L 39.0625 50  C 41.650390625 50  43.75 47.900390625  43 45.3125  L 43 4.6875  Z M 25.000000000000004 43.75  C 25.000000000000004 45.478515625  23.603515625000004 46.875  21.875 46.875  C 20.146484375 46.875  18.75 45.478515625  18.75 43.75  C 18.75 42.021484375  20.146484375 40.625  21.875 40.625  C 23.603515625000004 40.625  25.000000000000004 42.021484375  25.000000000000004 43.75  Z " fill-rule="evenodd" />
    </mask>
  </defs>
  <g>
    <path d="M 43 4.6875  C 43.75 2.099609375  41.650390625 0  39.0625 0  L 4.6875 0  C 2.099609375 0  0 2.099609375  0 4.6875  L 0 45.3125  C 0 47.900390625  2.099609375 50  4.6875 50  L 39.0625 50  C 41.650390625 50  43.75 47.900390625  43 45.3125  L 43 4.6875  Z M 25.000000000000004 43.75  C 25.000000000000004 45.478515625  23.603515625000004 46.875  21.875 46.875  C 20.146484375 46.875  18.75 45.478515625  18.75 43.75  C 18.75 42.021484375  20.146484375 40.625  21.875 40.625  C 23.603515625000004 40.625  25.000000000000004 42.021484375  25.000000000000004 43.75  Z " fill-rule="nonzero" fill="rgba(0, 0, 0, 1)" stroke="none" class="fill" />
    <path d="M 43 4.6875  C 43.75 2.099609375  41.650390625 0  39.0625 0  L 4.6875 0  C 2.099609375 0  0 2.099609375  0 4.6875  L 0 45.3125  C 0 47.900390625  2.099609375 50  4.6875 50  L 39.0625 50  C 41.650390625 50  43.75 47.900390625  43 45.3125  L 43 4.6875  Z " stroke-width="0" stroke-dasharray="0" stroke="rgba(255, 255, 255, 0)" fill="none" class="stroke" mask="url(#Clip2037)" />
    <path d="M 25.000000000000004 43.75  C 25.000000000000004 45.478515625  23.603515625000004 46.875  21.875 46.875  C 20.146484375 46.875  18.75 45.478515625  18.75 43.75  C 18.75 42.021484375  20.146484375 40.625  21.875 40.625  C 23.603515625000004 40.625  25.000000000000004 42.021484375  25.000000000000004 43.75  Z " stroke-width="0" stroke-dasharray="0" stroke="rgba(255, 255, 255, 0)" fill="none" class="stroke" mask="url(#Clip2037)" />
  </g>
</svg>