<?xml version="1.0" encoding="utf-8"?>
<svg version="1.1" xmlns:xlink="http://www.w3.org/1999/xlink" width="9px" height="14px" xmlns="http://www.w3.org/2000/svg">
  <defs>
    <pattern id="BGPattern" patternUnits="userSpaceOnUse" alignment="0 0" imageRepeat="None" />
    <mask fill="white" id="Clip3588">
      <path d="M 9 7  L 2 14  L 0.5899999999999999 12.59  L 6.170000000000002 7  L 0.5899999999999999 1.4100000000000001  L 2 0  L 9 7  Z " fill-rule="evenodd" />
    </mask>
  </defs>
  <g transform="matrix(1 0 0 1 -22 -9 )">
    <path d="M 9 7  L 2 14  L 0.5899999999999999 12.59  L 6.170000000000002 7  L 0.5899999999999999 1.4100000000000001  L 2 0  L 9 7  Z " fill-rule="nonzero" fill="rgba(0, 0, 0, 1)" stroke="none" transform="matrix(1 0 0 1 22 9 )" class="fill" />
    <path d="M 9 7  L 2 14  L 0.5899999999999999 12.59  L 6.170000000000002 7  L 0.5899999999999999 1.4100000000000001  L 2 0  L 9 7  Z " stroke-width="0" stroke-dasharray="0" stroke="rgba(255, 255, 255, 0)" fill="none" transform="matrix(1 0 0 1 22 9 )" class="stroke" mask="url(#Clip3588)" />
  </g>
</svg>