<?xml version="1.0" encoding="utf-8"?>
<svg version="1.1" xmlns:xlink="http://www.w3.org/1999/xlink" width="50px" height="50px" xmlns="http://www.w3.org/2000/svg">
  <defs>
    <pattern id="BGPattern" patternUnits="userSpaceOnUse" alignment="0 0" imageRepeat="None" />
    <mask fill="white" id="Clip880">
      <path d="M 0 24  L 0 0  L 24 0  L 24 24  L 0 24  Z M 26 24  L 26 0  L 50 0  L 50 24  L 26 24  Z M 0 50  L 0 26  L 24 26  L 24 50  L 0 50  Z M 26 50  L 26 26  L 50 26  L 50 50  L 26 50  Z " fill-rule="evenodd" />
    </mask>
  </defs>
  <g>
    <path d="M 0 24  L 0 0  L 24 0  L 24 24  L 0 24  Z M 26 24  L 26 0  L 50 0  L 50 24  L 26 24  Z M 0 50  L 0 26  L 24 26  L 24 50  L 0 50  Z M 26 50  L 26 26  L 50 26  L 50 50  L 26 50  Z " fill-rule="nonzero" fill="rgba(0, 0, 0, 1)" stroke="none" class="fill" />
    <path d="M 0 24  L 0 0  L 24 0  L 24 24  L 0 24  Z " stroke-width="0" stroke-dasharray="0" stroke="rgba(255, 255, 255, 0)" fill="none" class="stroke" mask="url(#Clip880)" />
    <path d="M 26 24  L 26 0  L 50 0  L 50 24  L 26 24  Z " stroke-width="0" stroke-dasharray="0" stroke="rgba(255, 255, 255, 0)" fill="none" class="stroke" mask="url(#Clip880)" />
    <path d="M 0 50  L 0 26  L 24 26  L 24 50  L 0 50  Z " stroke-width="0" stroke-dasharray="0" stroke="rgba(255, 255, 255, 0)" fill="none" class="stroke" mask="url(#Clip880)" />
    <path d="M 26 50  L 26 26  L 50 26  L 50 50  L 26 50  Z " stroke-width="0" stroke-dasharray="0" stroke="rgba(255, 255, 255, 0)" fill="none" class="stroke" mask="url(#Clip880)" />
  </g>
</svg>