<?xml version="1.0" encoding="utf-8"?>
<svg version="1.1" xmlns:xlink="http://www.w3.org/1999/xlink" width="24px" height="22px" xmlns="http://www.w3.org/2000/svg">
  <defs>
    <pattern id="BGPattern" patternUnits="userSpaceOnUse" alignment="0 0" imageRepeat="None" />
    <mask fill="white" id="Clip5249">
      <path d="M 22.5 0.5  L 1.5 0.5  C 0.6715728752538098 0.5  0 1.1715728752538097  0 2  L 0 20  C 0 20.82842712474619  0.6715728752538098 21.5  1.5 21.5  L 22.5 21.5  C 23.32842712474619 21.5  24 20.82842712474619  24 20  L 24 2  C 24 1.1715728752538097  23.32842712474619 0.5  22.5 0.5  Z M 1.5 2  L 22.5 2  L 22.5 20  L 1.5 20  L 1.5 2  Z " fill-rule="evenodd" />
    </mask>
  </defs>
  <g>
    <path d="M 22.5 0.5  L 1.5 0.5  C 0.6715728752538098 0.5  0 1.1715728752538097  0 2  L 0 20  C 0 20.82842712474619  0.6715728752538098 21.5  1.5 21.5  L 22.5 21.5  C 23.32842712474619 21.5  24 20.82842712474619  24 20  L 24 2  C 24 1.1715728752538097  23.32842712474619 0.5  22.5 0.5  Z M 1.5 2  L 22.5 2  L 22.5 20  L 1.5 20  L 1.5 2  Z " fill-rule="nonzero" fill="rgba(0, 0, 0, 1)" stroke="none" class="fill" />
    <path d="M 22.5 0.5  L 1.5 0.5  C 0.6715728752538098 0.5  0 1.1715728752538097  0 2  L 0 20  C 0 20.82842712474619  0.6715728752538098 21.5  1.5 21.5  L 22.5 21.5  C 23.32842712474619 21.5  24 20.82842712474619  24 20  L 24 2  C 24 1.1715728752538097  23.32842712474619 0.5  22.5 0.5  Z " stroke-width="0" stroke-dasharray="0" stroke="rgba(255, 255, 255, 0)" fill="none" class="stroke" mask="url(#Clip5249)" />
    <path d="M 1.5 2  L 22.5 2  L 22.5 20  L 1.5 20  L 1.5 2  Z " stroke-width="0" stroke-dasharray="0" stroke="rgba(255, 255, 255, 0)" fill="none" class="stroke" mask="url(#Clip5249)" />
  </g>
</svg>