<?xml version="1.0" encoding="utf-8"?>
<svg version="1.1" xmlns:xlink="http://www.w3.org/1999/xlink" width="50px" height="50px" xmlns="http://www.w3.org/2000/svg">
  <defs>
    <pattern id="BGPattern" patternUnits="userSpaceOnUse" alignment="0 0" imageRepeat="None" />
    <mask fill="white" id="Clip1768">
      <path d="M 50 25  C 50 11.189516129032256  38.810483870967744 0  25 0  C 11.189516129032256 0  0 11.189516129032256  0 25  C 0 38.810483870967744  11.189516129032256 50  25 50  C 38.810483870967744 50  50 38.810483870967744  50 25  Z M 20.16129032258064 20.16129032258067  C 20.16129032258064 21.945564516129025  18.719758064516128 23.387096774193537  16.935483870967744 23.387096774193537  C 15.151209677419358 23.387096774193537  13.709677419354845 21.945564516129025  13.709677419354845 20.16129032258067  C 13.709677419354845 18.377016129032256  15.151209677419358 16.935483870967744  16.935483870967744 16.935483870967744  C 18.719758064516128 16.935483870967744  20.16129032258064 18.377016129032256  20.16129032258064 20.16129032258067  Z M 36.29032258064515 20.16129032258067  C 36.29032258064515 21.945564516129025  34.84879032258064 23.387096774193537  33.064516129032256 23.387096774193537  C 31.280241935483872 23.387096774193537  29.838709677419363 21.945564516129025  29.838709677419363 20.16129032258067  C 29.838709677419363 18.377016129032256  31.280241935483872 16.935483870967744  33.064516129032256 16.935483870967744  C 34.84879032258064 16.935483870967744  36.29032258064515 18.377016129032256  36.29032258064515 20.16129032258067  Z " fill-rule="evenodd" />
    </mask>
  </defs>
  <g>
    <path d="M 50 25  C 50 11.189516129032256  38.810483870967744 0  25 0  C 11.189516129032256 0  0 11.189516129032256  0 25  C 0 38.810483870967744  11.189516129032256 50  25 50  C 38.810483870967744 50  50 38.810483870967744  50 25  Z M 20.16129032258064 20.16129032258067  C 20.16129032258064 21.945564516129025  18.719758064516128 23.387096774193537  16.935483870967744 23.387096774193537  C 15.151209677419358 23.387096774193537  13.709677419354845 21.945564516129025  13.709677419354845 20.16129032258067  C 13.709677419354845 18.377016129032256  15.151209677419358 16.935483870967744  16.935483870967744 16.935483870967744  C 18.719758064516128 16.935483870967744  20.16129032258064 18.377016129032256  20.16129032258064 20.16129032258067  Z M 36.29032258064515 20.16129032258067  C 36.29032258064515 21.945564516129025  34.84879032258064 23.387096774193537  33.064516129032256 23.387096774193537  C 31.280241935483872 23.387096774193537  29.838709677419363 21.945564516129025  29.838709677419363 20.16129032258067  C 29.838709677419363 18.377016129032256  31.280241935483872 16.935483870967744  33.064516129032256 16.935483870967744  C 34.84879032258064 16.935483870967744  36.29032258064515 18.377016129032256  36.29032258064515 20.16129032258067  Z " fill-rule="nonzero" fill="rgba(0, 0, 0, 1)" stroke="none" class="fill" />
    <path d="M 50 25  C 50 11.189516129032256  38.810483870967744 0  25 0  C 11.189516129032256 0  0 11.189516129032256  0 25  C 0 38.810483870967744  11.189516129032256 50  25 50  C 38.810483870967744 50  50 38.810483870967744  50 25  Z " stroke-width="0" stroke-dasharray="0" stroke="rgba(255, 255, 255, 0)" fill="none" class="stroke" mask="url(#Clip1768)" />
    <path d="M 20.16129032258064 20.16129032258067  C 20.16129032258064 21.945564516129025  18.719758064516128 23.387096774193537  16.935483870967744 23.387096774193537  C 15.151209677419358 23.387096774193537  13.709677419354845 21.945564516129025  13.709677419354845 20.16129032258067  C 13.709677419354845 18.377016129032256  15.151209677419358 16.935483870967744  16.935483870967744 16.935483870967744  C 18.719758064516128 16.935483870967744  20.16129032258064 18.377016129032256  20.16129032258064 20.16129032258067  Z " stroke-width="0" stroke-dasharray="0" stroke="rgba(255, 255, 255, 0)" fill="none" class="stroke" mask="url(#Clip1768)" />
    <path d="M 36.29032258064515 20.16129032258067  C 36.29032258064515 21.945564516129025  34.84879032258064 23.387096774193537  33.064516129032256 23.387096774193537  C 31.280241935483872 23.387096774193537  29.838709677419363 21.945564516129025  29.838709677419363 20.16129032258067  C 29.838709677419363 18.377016129032256  31.280241935483872 16.935483870967744  33.064516129032256 16.935483870967744  C 34.84879032258064 16.935483870967744  36.29032258064515 18.377016129032256  36.29032258064515 20.16129032258067  Z " stroke-width="0" stroke-dasharray="0" stroke="rgba(255, 255, 255, 0)" fill="none" class="stroke" mask="url(#Clip1768)" />
  </g>
</svg>