<?xml version="1.0" encoding="utf-8"?>
<svg version="1.1" xmlns:xlink="http://www.w3.org/1999/xlink" width="48px" height="54px" xmlns="http://www.w3.org/2000/svg">
  <defs>
    <pattern id="BGPattern" patternUnits="userSpaceOnUse" alignment="0 0" imageRepeat="None" />
    <mask fill="white" id="Clip2803">
      <path d="M 23.9375 31.4375  C 32.5 31.4375  39.4375 24.5  39.4375 15.9375  C 39.4375 7.375  32.5 0.4375  23.9375 0.4375  C 15.375 0.4375  8.4375 7.375  8.4375 15.9375  C 8.4375 21.1125  10.975000000000001 25.7  14.875 28.512500000000003  C 14.850000000000001 28.52500000000001  14.83125 28.53125  14.818750000000001 28.5375  C 12.025000000000002 29.71875  9.51875 31.412500000000005  7.362500000000001 33.575  C 5.206250000000001 35.73125  3.5187500000000007 38.243750000000006  2.3375000000000004 41.04375  C 1.1812500000000004 43.78125  0.5625 46.6875  0.5 49.675  C 0.49375000000000036 49.95625  0.71875 50.1875  1 50.1875  L 4.74375 50.1875  C 5.012500000000001 50.1875  5.237500000000001 49.96875  5.24375 49.7  C 5.36875 44.875  7.300000000000001 40.35625  10.71875 36.931250000000006  C 14.25 33.3875  18.9375 31.4375  23.9375 31.4375  Z M 34.6875 15.9375  C 34.6875 21.875  29.875 26.6875  23.9375 26.6875  C 18 26.6875  13.1875 21.875  13.1875 15.9375  C 13.1875 10  18 5.1875  23.9375 5.1875  C 29.875 5.1875  34.6875 10  34.6875 15.9375  Z M 28.493750000000006 38.5  C 28.500000000000007 39.60625  29.393750000000004 40.5  30.5 40  L 47 40  C 47.275 40.5  47.5 40.275  47.5 40  L 47.5 36.5  C 47.5 36.225  47.275 36  47 36  L 35.96875 36  L 38.91875 32.24375  C 38.987500000000004 32.15625  39.025000000000006 32.043749999999996  39.025000000000006 31.937500000000004  C 39.025000000000006 31.662499999999998  38.800000000000004 31.4375  38.525000000000006 31.4375  L 33.987500000000004 31.4375  C 33.681250000000006 31.4375  33.393750000000004 31.581249999999994  33.2 31.818750000000005  L 28.918750000000003 37.2625  C 28.643750000000004 37.612500000000004  28.493750000000006 38.050000000000004  28.493750000000006 38.5  Z M 47.506249999999994 46.5  C 47.49999999999999 45.39375  46.606249999999996 44.5  45.5 44  L 29 44  C 28.725 44.5  28.5 44.725  28.5 45  L 28.5 48.5  C 28.5 48.775  28.725 49  29 49  L 40.03125 49  L 37.08125 52.75625  C 37.012499999999996 52.84375  36.974999999999994 52.956250000000004  36.974999999999994 53.0625  C 36.974999999999994 53.3375  37.199999999999996 53.5625  37.474999999999994 53.5625  L 42.012499999999996 53.5625  C 42.318749999999994 53.5625  42.606249999999996 53.41875  42.8 53.18125  L 47.08125 47.7375  C 47.356249999999996 47.387499999999996  47.506249999999994 46.949999999999996  47.506249999999994 46.5  Z " fill-rule="evenodd" />
    </mask>
  </defs>
  <g>
    <path d="M 23.9375 31.4375  C 32.5 31.4375  39.4375 24.5  39.4375 15.9375  C 39.4375 7.375  32.5 0.4375  23.9375 0.4375  C 15.375 0.4375  8.4375 7.375  8.4375 15.9375  C 8.4375 21.1125  10.975000000000001 25.7  14.875 28.512500000000003  C 14.850000000000001 28.52500000000001  14.83125 28.53125  14.818750000000001 28.5375  C 12.025000000000002 29.71875  9.51875 31.412500000000005  7.362500000000001 33.575  C 5.206250000000001 35.73125  3.5187500000000007 38.243750000000006  2.3375000000000004 41.04375  C 1.1812500000000004 43.78125  0.5625 46.6875  0.5 49.675  C 0.49375000000000036 49.95625  0.71875 50.1875  1 50.1875  L 4.74375 50.1875  C 5.012500000000001 50.1875  5.237500000000001 49.96875  5.24375 49.7  C 5.36875 44.875  7.300000000000001 40.35625  10.71875 36.931250000000006  C 14.25 33.3875  18.9375 31.4375  23.9375 31.4375  Z M 34.6875 15.9375  C 34.6875 21.875  29.875 26.6875  23.9375 26.6875  C 18 26.6875  13.1875 21.875  13.1875 15.9375  C 13.1875 10  18 5.1875  23.9375 5.1875  C 29.875 5.1875  34.6875 10  34.6875 15.9375  Z M 28.493750000000006 38.5  C 28.500000000000007 39.60625  29.393750000000004 40.5  30.5 40  L 47 40  C 47.275 40.5  47.5 40.275  47.5 40  L 47.5 36.5  C 47.5 36.225  47.275 36  47 36  L 35.96875 36  L 38.91875 32.24375  C 38.987500000000004 32.15625  39.025000000000006 32.043749999999996  39.025000000000006 31.937500000000004  C 39.025000000000006 31.662499999999998  38.800000000000004 31.4375  38.525000000000006 31.4375  L 33.987500000000004 31.4375  C 33.681250000000006 31.4375  33.393750000000004 31.581249999999994  33.2 31.818750000000005  L 28.918750000000003 37.2625  C 28.643750000000004 37.612500000000004  28.493750000000006 38.050000000000004  28.493750000000006 38.5  Z M 47.506249999999994 46.5  C 47.49999999999999 45.39375  46.606249999999996 44.5  45.5 44  L 29 44  C 28.725 44.5  28.5 44.725  28.5 45  L 28.5 48.5  C 28.5 48.775  28.725 49  29 49  L 40.03125 49  L 37.08125 52.75625  C 37.012499999999996 52.84375  36.974999999999994 52.956250000000004  36.974999999999994 53.0625  C 36.974999999999994 53.3375  37.199999999999996 53.5625  37.474999999999994 53.5625  L 42.012499999999996 53.5625  C 42.318749999999994 53.5625  42.606249999999996 53.41875  42.8 53.18125  L 47.08125 47.7375  C 47.356249999999996 47.387499999999996  47.506249999999994 46.949999999999996  47.506249999999994 46.5  Z " fill-rule="nonzero" fill="rgba(0, 0, 0, 1)" stroke="none" class="fill" />
    <path d="M 23.9375 31.4375  C 32.5 31.4375  39.4375 24.5  39.4375 15.9375  C 39.4375 7.375  32.5 0.4375  23.9375 0.4375  C 15.375 0.4375  8.4375 7.375  8.4375 15.9375  C 8.4375 21.1125  10.975000000000001 25.7  14.875 28.512500000000003  C 14.850000000000001 28.52500000000001  14.83125 28.53125  14.818750000000001 28.5375  C 12.025000000000002 29.71875  9.51875 31.412500000000005  7.362500000000001 33.575  C 5.206250000000001 35.73125  3.5187500000000007 38.243750000000006  2.3375000000000004 41.04375  C 1.1812500000000004 43.78125  0.5625 46.6875  0.5 49.675  C 0.49375000000000036 49.95625  0.71875 50.1875  1 50.1875  L 4.74375 50.1875  C 5.012500000000001 50.1875  5.237500000000001 49.96875  5.24375 49.7  C 5.36875 44.875  7.300000000000001 40.35625  10.71875 36.931250000000006  C 14.25 33.3875  18.9375 31.4375  23.9375 31.4375  Z " stroke-width="0" stroke-dasharray="0" stroke="rgba(255, 255, 255, 0)" fill="none" class="stroke" mask="url(#Clip2803)" />
    <path d="M 34.6875 15.9375  C 34.6875 21.875  29.875 26.6875  23.9375 26.6875  C 18 26.6875  13.1875 21.875  13.1875 15.9375  C 13.1875 10  18 5.1875  23.9375 5.1875  C 29.875 5.1875  34.6875 10  34.6875 15.9375  Z " stroke-width="0" stroke-dasharray="0" stroke="rgba(255, 255, 255, 0)" fill="none" class="stroke" mask="url(#Clip2803)" />
    <path d="M 28.493750000000006 38.5  C 28.500000000000007 39.60625  29.393750000000004 40.5  30.5 40  L 47 40  C 47.275 40.5  47.5 40.275  47.5 40  L 47.5 36.5  C 47.5 36.225  47.275 36  47 36  L 35.96875 36  L 38.91875 32.24375  C 38.987500000000004 32.15625  39.025000000000006 32.043749999999996  39.025000000000006 31.937500000000004  C 39.025000000000006 31.662499999999998  38.800000000000004 31.4375  38.525000000000006 31.4375  L 33.987500000000004 31.4375  C 33.681250000000006 31.4375  33.393750000000004 31.581249999999994  33.2 31.818750000000005  L 28.918750000000003 37.2625  C 28.643750000000004 37.612500000000004  28.493750000000006 38.050000000000004  28.493750000000006 38.5  Z " stroke-width="0" stroke-dasharray="0" stroke="rgba(255, 255, 255, 0)" fill="none" class="stroke" mask="url(#Clip2803)" />
    <path d="M 47.506249999999994 46.5  C 47.49999999999999 45.39375  46.606249999999996 44.5  45.5 44  L 29 44  C 28.725 44.5  28.5 44.725  28.5 45  L 28.5 48.5  C 28.5 48.775  28.725 49  29 49  L 40.03125 49  L 37.08125 52.75625  C 37.012499999999996 52.84375  36.974999999999994 52.956250000000004  36.974999999999994 53.0625  C 36.974999999999994 53.3375  37.199999999999996 53.5625  37.474999999999994 53.5625  L 42.012499999999996 53.5625  C 42.318749999999994 53.5625  42.606249999999996 53.41875  42.8 53.18125  L 47.08125 47.7375  C 47.356249999999996 47.387499999999996  47.506249999999994 46.949999999999996  47.506249999999994 46.5  Z " stroke-width="0" stroke-dasharray="0" stroke="rgba(255, 255, 255, 0)" fill="none" class="stroke" mask="url(#Clip2803)" />
  </g>
</svg>