<?xml version="1.0" encoding="utf-8"?>
<svg version="1.1" xmlns:xlink="http://www.w3.org/1999/xlink" width="28px" height="29px" xmlns="http://www.w3.org/2000/svg">
  <defs>
    <pattern id="BGPattern" patternUnits="userSpaceOnUse" alignment="0 0" imageRepeat="None" />
    <mask fill="white" id="Clip4096">
      <path d="M 26.999999999999996 19.999999999999996  C 27.007141753195377 19.734029681613436  26.89752454310432 19.478256191400973  26.7 19.3  L 24 16.6  L 24 12  C 23.993365253272803 6.857643487382824  20.113249238029145 2.5464034704454286  15 2  L 15 0  L 13 0  L 13 2  C 7.904441845948073 2.5808900847988947  4.042787902413341 6.871616688726375  4 12  L 4 16.6  L 1.2999999999999998 19.3  C 1.1024754568956774 19.478256191400973  0.9928582468046221 19.734029681613436  1 20  L 1 23  C 0.9986335520555358 23.020655193526327  0.9979497688091641 23.04134988820829  0.9979497688091641 23.062050231190835  C 0.9979497688091641 23.58119789603178  1.4188021039682184 24.002050231190836  1.937949768809164 24.002050231190836  C 1.9586501117916915 24.002050231190836  1.9793448064736894 24.001366447944463  2 24  L 8.999999999999998 23.999999999999996  C 8.999999999999998 26.761423749153963  11.238576250846032 28.999999999999993  13.999999999999998 28.999999999999993  C 16.761423749153963 28.999999999999993  18.999999999999996 26.761423749153963  18.999999999999996 23.999999999999996  L 26 24  C 26.02065519352634 24.001366447944466  26.041349888208277 24.002050231190836  26.062050231190835 24.002050231190836  C 26.58119789603178 24.002050231190836  27.002050231190836 23.58119789603178  27.002050231190836 23.062050231190835  C 27.002050231190836 23.041349888208305  27.001366447944463 23.020655193526313  27 23  L 26.999999999999996 19.999999999999996  Z M 17 23.999999999999996  C 17 25.656854249492376  15.65685424949238 26.999999999999996  14 26.999999999999996  C 12.34314575050762 26.999999999999996  11 25.656854249492376  11 24  L 17 23.999999999999996  Z " fill-rule="evenodd" />
    </mask>
  </defs>
  <g transform="matrix(1 0 0 1 -2 -1 )">
    <path d="M 26.999999999999996 19.999999999999996  C 27.007141753195377 19.734029681613436  26.89752454310432 19.478256191400973  26.7 19.3  L 24 16.6  L 24 12  C 23.993365253272803 6.857643487382824  20.113249238029145 2.5464034704454286  15 2  L 15 0  L 13 0  L 13 2  C 7.904441845948073 2.5808900847988947  4.042787902413341 6.871616688726375  4 12  L 4 16.6  L 1.2999999999999998 19.3  C 1.1024754568956774 19.478256191400973  0.9928582468046221 19.734029681613436  1 20  L 1 23  C 0.9986335520555358 23.020655193526327  0.9979497688091641 23.04134988820829  0.9979497688091641 23.062050231190835  C 0.9979497688091641 23.58119789603178  1.4188021039682184 24.002050231190836  1.937949768809164 24.002050231190836  C 1.9586501117916915 24.002050231190836  1.9793448064736894 24.001366447944463  2 24  L 8.999999999999998 23.999999999999996  C 8.999999999999998 26.761423749153963  11.238576250846032 28.999999999999993  13.999999999999998 28.999999999999993  C 16.761423749153963 28.999999999999993  18.999999999999996 26.761423749153963  18.999999999999996 23.999999999999996  L 26 24  C 26.02065519352634 24.001366447944466  26.041349888208277 24.002050231190836  26.062050231190835 24.002050231190836  C 26.58119789603178 24.002050231190836  27.002050231190836 23.58119789603178  27.002050231190836 23.062050231190835  C 27.002050231190836 23.041349888208305  27.001366447944463 23.020655193526313  27 23  L 26.999999999999996 19.999999999999996  Z M 17 23.999999999999996  C 17 25.656854249492376  15.65685424949238 26.999999999999996  14 26.999999999999996  C 12.34314575050762 26.999999999999996  11 25.656854249492376  11 24  L 17 23.999999999999996  Z " fill-rule="nonzero" fill="rgba(0, 0, 0, 1)" stroke="none" transform="matrix(1 0 0 1 2 1 )" class="fill" />
    <path d="M 26.999999999999996 19.999999999999996  C 27.007141753195377 19.734029681613436  26.89752454310432 19.478256191400973  26.7 19.3  L 24 16.6  L 24 12  C 23.993365253272803 6.857643487382824  20.113249238029145 2.5464034704454286  15 2  L 15 0  L 13 0  L 13 2  C 7.904441845948073 2.5808900847988947  4.042787902413341 6.871616688726375  4 12  L 4 16.6  L 1.2999999999999998 19.3  C 1.1024754568956774 19.478256191400973  0.9928582468046221 19.734029681613436  1 20  L 1 23  C 0.9986335520555358 23.020655193526327  0.9979497688091641 23.04134988820829  0.9979497688091641 23.062050231190835  C 0.9979497688091641 23.58119789603178  1.4188021039682184 24.002050231190836  1.937949768809164 24.002050231190836  C 1.9586501117916915 24.002050231190836  1.9793448064736894 24.001366447944463  2 24  L 8.999999999999998 23.999999999999996  C 8.999999999999998 26.761423749153963  11.238576250846032 28.999999999999993  13.999999999999998 28.999999999999993  C 16.761423749153963 28.999999999999993  18.999999999999996 26.761423749153963  18.999999999999996 23.999999999999996  L 26 24  C 26.02065519352634 24.001366447944466  26.041349888208277 24.002050231190836  26.062050231190835 24.002050231190836  C 26.58119789603178 24.002050231190836  27.002050231190836 23.58119789603178  27.002050231190836 23.062050231190835  C 27.002050231190836 23.041349888208305  27.001366447944463 23.020655193526313  27 23  L 26.999999999999996 19.999999999999996  Z " stroke-width="0" stroke-dasharray="0" stroke="rgba(255, 255, 255, 0)" fill="none" transform="matrix(1 0 0 1 2 1 )" class="stroke" mask="url(#Clip4096)" />
    <path d="M 17 23.999999999999996  C 17 25.656854249492376  15.65685424949238 26.999999999999996  14 26.999999999999996  C 12.34314575050762 26.999999999999996  11 25.656854249492376  11 24  L 17 23.999999999999996  Z " stroke-width="0" stroke-dasharray="0" stroke="rgba(255, 255, 255, 0)" fill="none" transform="matrix(1 0 0 1 2 1 )" class="stroke" mask="url(#Clip4096)" />
  </g>
</svg>