<?xml version="1.0" encoding="utf-8"?>
<svg version="1.1" xmlns:xlink="http://www.w3.org/1999/xlink" width="64px" height="64px" xmlns="http://www.w3.org/2000/svg">
  <defs>
    <pattern id="BGPattern" patternUnits="userSpaceOnUse" alignment="0 0" imageRepeat="None" />
    <mask fill="white" id="Clip1003">
      <path d="M 61.02499999999999 30.212499999999988  L 61.02875 30.21249999999999  L 63.61625 31.09999999999999  C 62.41625 28.11249999999999  60.628750000000004 26.47499999999999  59.65375 25.499999999999993  L 60.541250000000005 23.224999999999998  C 60.566250000000004 23.224999999999998  62.07875000000001 19.749999999999996  60.228750000000005 19.3875  C 60.15375 17.974999999999998  59.40375 16.0125  57.92875000000001 16.0125  C 56.978750000000005 14.6875  55.71625000000001 14.475  54.09125000000002 15.275  C 52.955845855459664 15.829070602080762  51.89356641296552 16.521861542837815  50.92875000000001 17.3375  C 50.26625000000001 16.537499999999998  50.55375000000001 17.3875  50.55375000000001 13.612499999999999  C 45.916250000000005 10.575000000000001  44.87875000000001 12.149999999999999  41.20375000000001 13.987499999999999  L 41.26625 14.049999999999997  C 38.51260237899133 13.081741720642803  35.63208699345266 12.521641506788063  32.71625 12.3875  C 32.02875 11.3  30.391250000000003 10.000000000000002  29.578750000000003 9.250000000000002  L 32.67875 10.137500000000001  C 31.99125 9.450000000000001  29.32875 8.525  28.403750000000002 8.2375  C 30.67875 7.7250000000000005  32.128750000000004 5.637500000000002  33.71625 4.112500000000002  C 29.35375 2.850000000000002  25.22875 3.3750000000000018  21.47875 5.587500000000001  L 22.97875 0.06250000000000176  L 22.75 0  C 18.8 3.024999999999999  18.625 5.237499999999999  18.5375 5.687499999999999  C 18.425 5.387499999999999  17.75 3.237499999999999  16.637500000000003 2.3124999999999996  C 16.224418227104053 3.3222773750220687  16.202137342690314 4.449690126357265  16.575000000000003 5.474999999999999  C 16.950000000000003 6.524999999999998  17.312500000000004 7.3249999999999975  17.625000000000004 7.837499999999998  C 15.625000000000004 7.424999999999998  14.087500000000004 7.224999999999998  11.475000000000003 7.837499999999998  L 11.012500000000003 7.837499999999998  L 15.137500000000005 9.624999999999998  C 12.614376016594589 11.985994377419512  10.624213265454106 14.858306356581581  9.300000000000002 18.049999999999997  L 9.087500000000002 19.099999999999998  L 9.300000000000002 19.312499999999996  L 10.250000000000002 18.724999999999998  C 9.837500000000002 20.174999999999997  9.587500000000002 21.15  9.425000000000002 21.950000000000003  C 8.064917603515365 23.480660193896533  6.897858111522882 25.172476651712973  5.950000000000003 26.987499999999997  C 4.075000000000003 27.112499999999997  1.9750000000000028 28.3375  0.9125000000000032 28.775  L 1.2875000000000032 29.2  L 4.887500000000003 29.325  C 4.825000000000003 29.45  4.8000000000000025 29.599999999999998  4.7375000000000025 29.724999999999998  C 3.8250000000000024 30.525  -0.23749999999999716 34.4375  0.6125000000000025 39.8125  L 3.1375000000000024 37.0125  C 3.2000000000000024 37.225  3.2250000000000023 37.4375  3.2875000000000023 37.6625  C 3.2875000000000023 40.85  3.337500000000002 48.8625  11.400000000000002 56.474999999999994  C 16.85 61.474999999999994  23.400000000000002 64  31.087500000000002 64  C 46.300000000000004 64  58.962500000000006 53.0875  58.962500000000006 37.56250000000001  C 59.81250000000001 36.35000000000001  58.81250000000001 37.93750000000001  61.050000000000004 34.425000000000004  L 62.675000000000004 36.212500000000006  L 62.987500000000004 36.150000000000006  C 62.75634297513259 34.69226011417648  62.38375059315991 33.26050062389945  61.87499999999999 31.87499999999999  C 61.68683331656212 31.27711590251467  61.39949602636125 30.715117967268842  61.02499999999999 30.212499999999988  Z M 46.2125 12.837499999999993  C 46.9125 12.412499999999993  48.1125 12.787499999999993  49.75 13.899999999999997  L 49.6875 16.637499999999996  C 50.375 18.899999999999995  51.8 18.787499999999994  52.4875 18.787499999999994  L 52.0625 18.199999999999996  L 54.86249999999999 17.524999999999995  C 53.73837342498066 17.58769300130852  52.61162657501933 17.58769300130852  51.4875 17.524999999999995  C 53.0875 17.262499999999996  55.65 13.899999999999995  56.8625 16.112499999999994  C 57.287499999999994 17.062499999999993  57.662499999999994 18.262499999999992  58.025 19.587499999999995  L 58.2375 18.849999999999994  C 58.08069134141349 18.229259266508713  58.00920034048782 17.590045611173363  58.025 16.949999999999996  C 58.699999999999996 17.012499999999996  59.125 17.374999999999996  59.1875 18.212499999999995  C 59.25 19.012499999999996  59.4 20.062499999999996  59.6125 21.374999999999996  L 60.199999999999996 19.962499999999995  C 60.775 19.962499999999995  60.762499999999996 19.512499999999996  59.887499999999996 22.549999999999994  C 57.275 21.462499999999995  55.49999999999999 21.499999999999993  54.074999999999996 21.499999999999993  L 56.349999999999994 19.499999999999993  C 53.18749999999999 20.52499999999999  52.224999999999994 20.849999999999994  49.49999999999999 22.112499999999994  C 49.36249999999999 21.437499999999993  48.87499999999999 20.424999999999994  47.49999999999999 19.624999999999993  C 47.099999999999994 20.099999999999994  47.14999999999999 19.737499999999994  47.412499999999994 21.474999999999994  L 47.09999999999999 21.47499999999999  C 46.94516465721792 20.452337683867043  46.588223159325416 19.470748564662635  46.05 18.587499999999995  L 46.574999999999996 18.162499999999994  C 47.62499999999999 17.274999999999995  48.05 16.374999999999993  47.9 15.424999999999994  C 47.8375 14.624999999999993  47.225 13.737499999999994  46.2125 12.837499999999993  Z M 42.26249999999999 14.112499999999995  L 44.8 12.637499999999998  C 45.137499999999996 12.874999999999998  46.224999999999994 13.312499999999998  47.162499999999994 14.787499999999998  C 47.68749999999999 15.837499999999999  47.662499999999994 16.0125  47.58749999999999 16.174999999999997  C 47.52499999999999 16.474999999999998  47.52499999999999 16.7125  47.21249999999999 17.062499999999996  C 46.99999999999999 17.374999999999996  46.537499999999994 17.649999999999995  45.73749999999999 18.012499999999996  C 44.78749999999999 16.387499999999996  43.67499999999999 15.062499999999996  42.26249999999999 14.112499999999995  Z M 9.725 27.212499999999995  C 9.9125 24.062499999999996  10.4 20.9  11.375 17.887499999999996  L 11.525 17.674999999999997  C 11.675 17.312499999999996  12.05 16.724999999999998  12.6875 15.774999999999997  L 13 15.349999999999996  L 11.375 16.887499999999996  L 12.05 16.299999999999997  L 10.787500000000001 17.4625  L 10.262500000000001 17.612499999999997  C 11.8 14.599999999999998  13.150000000000002 12.449999999999998  14.325000000000001 11.337499999999999  C 15.4875 10.174999999999999  16.325000000000003 9.337499999999999  16.85 8.9125  L 16.05 9.0625  C 14.637500000000001 8.5375  13.625 8.175  12.950000000000001 8.0125  C 13.262500000000001 7.949999999999999  13.412500000000001 7.949999999999999  13.350000000000001 7.949999999999999  C 14.637500000000001 7.949999999999999  15.537500000000001 8.0125  15.962500000000002 8.099999999999998  C 16.60892184673383 8.307274813524621  17.283659804370856 8.412702619405406  17.962500000000002 8.4125  L 18.025000000000002 8.2  L 16.975 3.7250000000000005  L 18.662500000000005 7.3500000000000005  C 19.01464046800555 6.803790746419671  19.264537589477797 6.198107892681848  19.400000000000002 5.562500000000001  C 19.6125 4.762500000000001  20.075000000000003 3.937500000000001  20.6625 3.137500000000001  C 21.25 2.3375000000000017  21.6125 1.8125000000000016  21.825000000000003 1.7250000000000012  C 21.49988154946793 2.763512231876851  21.23280204669807 3.8193108912639544  21.025000000000002 4.887500000000001  L 20.812500000000004 5.775000000000001  L 20.750000000000004 6.362500000000001  L 21.062500000000004 6.675000000000001  C 23.8 4.987499999999999  26.75 4.249999999999999  29.975 4.312499999999999  L 32.612500000000004 4.374999999999999  C 31.137500000000003 6.062499999999998  29.137500000000003 7.112499999999998  26.550000000000004 7.474999999999998  C 25.58292216914979 7.652892610426553  24.606246465798492 7.773933616397441  23.625000000000004 7.837499999999998  L 23.600000000000005 7.774999999999998  L 23.287500000000005 7.624999999999997  C 22.692888965473326 7.50084473817368  22.07356311983425 7.5893198589792625  21.537500000000005 7.874999999999997  C 21.225000000000005 7.849999999999997  20.925000000000004 7.812499999999997  20.650000000000006 7.787499999999997  L 20.337500000000006 7.999999999999997  L 20.400000000000006 8.149999999999997  C 20.650000000000006 8.174999999999997  20.887500000000006 8.212499999999997  21.175000000000004 8.237499999999997  L 20.925000000000004 8.662499999999998  L 21.350000000000005 8.599999999999998  L 20.025000000000006 10.012499999999998  C 19.500000000000007 10.387499999999998  19.350000000000005 10.812499999999998  19.500000000000007 11.174999999999997  L 20.175000000000008 10.749999999999996  L 20.32500000000001 10.749999999999998  C 21.093169959523912 9.730831925110756  22.226973475024327 9.049653528446477  23.487500000000008 8.849999999999996  L 23.487500000000008 8.474999999999996  C 24.28750000000001 8.537499999999996  25.112500000000008 8.599999999999996  25.91250000000001 8.624999999999996  C 26.71250000000001 8.624999999999996  26.96250000000001 8.687499999999996  26.587500000000013 8.774999999999997  C 27.485780369745285 9.280630933044561  28.35011594667997 9.844328048436749  29.175000000000008 10.462499999999997  C 30.862500000000008 11.724999999999996  32.12500000000001 13.199999999999996  32.92500000000001 14.887499999999996  C 34.02500000000001 17.162499999999994  34.61250000000001 19.524999999999995  34.61250000000001 21.962499999999995  C 34.60701121368614 23.151289828287563  34.48137262202169 24.336480542988877  34.23750000000001 25.499999999999996  C 33.79619667065281 27.4877759263972  33.12501347852906 29.41742760375299  32.23750000000001 31.249999999999993  L 32.55000000000001 31.312499999999993  C 34.82500000000001 28.849999999999994  37.78750000000001 29.312499999999993  38.70000000000001 29.312499999999993  L 37.90000000000001 30.049999999999994  L 40.70000000000001 32.262499999999996  L 40.48750000000001 36.099999999999994  C 39.812500000000014 34.56249999999999  38.42500000000001 33.46249999999999  36.36250000000001 32.62499999999999  C 38.42500000000001 34.474999999999994  39.312500000000014 35.262499999999996  39.10000000000001 35.14999999999999  C 38.50000000000001 34.79999999999999  38.66250000000001 34.912499999999994  37.75000000000001 34.68749999999999  C 38.26250000000001 35.199999999999996  39.93750000000001 37.037499999999994  40.025000000000006 37.27499999999999  L 40.050000000000004 37.29999999999999  L 40.025000000000006 37.32499999999999  C 40.025000000000006 37.54999999999999  40.22500000000001 37.17499999999999  38.275000000000006 40.187499999999986  C 28.875000000000007 38.274999999999984  24.991250000000008 34.84999999999999  20.625000000000007 32.28749999999999  L 22.10000000000001 32.437499999999986  C 20.625000000000007 30.124999999999986  20.15000000000001 30.224999999999987  17.300000000000008 29.174999999999986  L 18.625 28.124999999999993  C 17.525 27.749999999999993  16.35 27.749999999999993  15.0875 28.187499999999993  L 16.0375 26.862499999999994  L 15.887500000000001 26.649999999999995  C 14.025 27.187499999999996  13.412500000000001 27.799999999999994  13.0625 28.062499999999996  C 12.925 27.374999999999996  12.7125 26.512499999999996  11.525 24.462499999999995  L 11.375 27.837499999999995  L 9.725 27.212499999999995  Z M 45.849999999999994 47.95000000000001  C 46.387499999999996 52.237500000000004  46.974999999999994 54.1  45.9375 59.13749999999999  C 39.7 62.26249999999999  38.925 61.937499999999986  38.5625 62.124999999999986  C 34.8375 60.649999999999984  32.2 58.16249999999999  30.625 54.774999999999984  L 34.375 56.837499999999984  C 33.15 55.67499999999998  32.0875 54.774999999999984  29.575 51.29999999999998  L 31.05 54.187499999999986  L 28.837500000000002 53.23749999999998  C 30.6125 55.874999999999986  31.775000000000002 59.69999999999998  37.1625 62.42499999999998  C 22.0625 65.44999999999999  12.287500000000001 53.41249999999998  12.049999999999999 53.137499999999974  C 13.437298366966075 54.29068639812657  14.917311508824014 55.32753176304399  16.475 56.23749999999998  C 16.900000000000002 56.44999999999998  17.3625 56.54999999999998  17.7375 56.38749999999998  L 15.7375 53.79999999999998  C 16.8875 54.32499999999998  16.925 54.36249999999998  24.375 57.42499999999998  C 19.0625 54.837499999999984  15.15 52.32499999999998  12.725 49.899999999999984  C 12.6625 50.69999999999998  12.575 51.16249999999999  12.574999999999998 51.16249999999999  C 13.663151792106138 52.075167517520384  14.545101596434048 53.20849431921712  15.1625 54.48749999999999  C 10.2875 52.12499999999999  7.9624999999999995 48.53749999999999  6.25 44.1625  C 12.4875 51.05  21.1125 48.849999999999994  21.3125 48.8  C 25.6625 50.849999999999994  30.05 51.75  35.55 50.125  C 35.9625 50.125  38.0875 52.25  38.7125 55.0125  L 39.2375 54.6375  L 38.925 51.6875  C 40.05 52.8125  42.037499999999994 54.5125  43.224999999999994 53.3125  C 41.27499999999999 52.65  40.287499999999994 52.125  39.537499999999994 49.35  C 40.1125 49.875  40.4875 50.475  43.012499999999996 51.225  L 43.162499999999994 51.075  L 41.849999999999994 49.300000000000004  C 43.31249999999999 48.7  41.412499999999994 49.425000000000004  45.849999999999994 47.95000000000001  Z M 61.46625000000002 33.93749999999999  L 60.35 32.3375  L 60.0375 32.4  L 60.4125 33.5625  C 59.975 34.3  57.45 39.1  51.462500000000006 43.525  C 46.525000000000006 47.25  41.8875 48.412499999999994  41.35000000000001 48.56249999999999  L 40.400000000000006 47.675  L 40.25000000000001 48.04999999999999  L 42.03750000000001 50.04999999999999  L 41.150000000000006 49.46249999999999  L 41.575 49.98749999999999  L 41.425000000000004 49.98749999999999  L 38.68750000000001 48.29999999999999  L 39.85000000000001 51.62499999999999  L 37.47500000000001 48.137499999999996  L 37.32500000000001 48.449999999999996  L 38.27500000000001 52.074999999999996  C 37.51250000000001 51.05  35.65000000000001 48  31.17500000000001 47.125  L 35.237500000000004 49.774999999999984  C 31.342499459880823 50.36616446282112  27.365130249325627 50.093040396860246  23.587500000000013 48.974999999999994  C 23.062500000000014 48.824999999999996  22.475000000000012 48.662499999999994  21.900000000000013 48.449999999999996  L 22.05000000000001 48.074999999999996  L 16.45000000000001 45.275000000000006  L 19.71250000000001 48.074999999999996  C 12.500000000000009 49.2125  5.587500000000009 44.900000000000006  3.9125000000000085 37.65  L 3.6000000000000085 35.6  L 0.8162500000000086 38.3875  C 3.2537500000000086 31.200000000000003  4.016250000000008 31.150000000000002  7.241250000000008 29.625000000000004  C 6.103750000000008 28.962500000000002  7.041250000000008 29.212500000000002  2.441250000000008 28.462500000000002  C 4.416250000000009 27.7375  6.566250000000008 26.5375  11.566250000000007 29.112499999999997  C 11.712128076012185 29.024864697987514  11.867233997572471 28.953599815108465  12.028750000000008 28.900000000000002  C 12.103750000000007 28.500000000000004  12.078750000000008 28.8  12.153750000000008 27.425  C 12.641250000000008 28.675  12.603750000000007 28.5125  12.528750000000008 28.587500000000002  L 12.741250000000008 28.650000000000002  C 14.328750000000008 27.837500000000002  13.853750000000009 28.087500000000002  14.866250000000008 27.5375  L 14.191250000000007 29.225  L 16.97875000000001 28.5  L 15.928750000000008 29.55  L 16.241250000000008 29.8625  C 16.803750000000008 29.6375  20.02875000000001 30.2875  21.34125000000001 31.8625  L 18.39125000000001 31.55  C 23.31625000000001 34.425000000000004  24.82875000000001 38.300000000000004  25.366250000000008 40.25  L 25.578750000000007 40.1  C 25.228750000000005 37.3125  24.028750000000006 35.862500000000004  23.578750000000007 35.0875  C 24.103750000000005 35.7125  28.478750000000005 39.4125  37.37875000000001 40.8375  C 35.96625000000001 40.775  34.49125000000001 41.512499999999996  33.016250000000014 43.199999999999996  L 38.85375000000001 40.675  L 37.69125000000001 43.412499999999994  C 38.641250000000014 42.14999999999999  39.54125000000001 40.46249999999999  40.34125000000001 38.46249999999999  L 40.34125000000001 38.39999999999999  L 40.49125000000001 38.02499999999999  L 40.34125000000001 40.02499999999999  C 42.02875000000001 34.79999999999999  43.50375000000001 30.21249999999999  44.76625000000001 26.312499999999993  L 46.45375000000001 22.837499999999995  L 46.45375000000001 22.587499999999995  L 45.77875000000001 22.062499999999996  L 47.04125000000001 22.062499999999996  L 47.77875000000001 22.587499999999995  L 48.09125000000001 22.437499999999996  L 47.66625000000001 20.437499999999996  L 49.203750000000014 22.799999999999997  L 54.428750000000015 20.275  L 52.578750000000014 21.9  L 52.641250000000014 22.2625  L 54.85375000000001 22.2  C 56.241781427644355 22.250089791419196  57.62242252177545 22.42580774885406  58.97875000000001 22.724999999999998  L 56.02875000000001 23.037499999999998  L 55.87875000000001 23.412499999999998  L 59.203750000000014 26.299999999999994  C 60.43682414844451 27.53826271373746  61.565651827982194 28.876132556152506  62.578750000000014 30.299999999999994  C 61.178750000000015 29.887499999999992  61.29125000000001 29.874999999999993  59.928750000000015 29.874999999999993  L 61.46625000000002 33.93749999999999  Z M 57.3125 23.575  L 59.5875 23.425  L 59.1 25.049999999999997  L 57.3125 23.575  Z M 30.037499999999998 26.662499999999994  C 28.45 25.862499999999994  28.075 24.949999999999996  27.737499999999997 24.312499999999996  C 27.949999999999996 25.637499999999996  28.324999999999996 26.524999999999995  28.8375 27.049999999999997  C 27.674999999999997 27.874999999999996  25.4 28.787499999999998  23.025 29.049999999999997  L 23.0875 29.199999999999996  C 24.130675312942298 29.358000332891905  25.19684723319618 29.2505233248018  26.1875 28.887499999999996  L 25.3 30.512499999999996  C 25.825 30.299999999999997  26.5625 29.624999999999996  27.5125 28.662499999999994  C 29 27.974999999999994  29.099999999999998 28.024999999999995  30.037499999999998 26.662499999999994  Z M 28.20374999999999 11.524999999999999  L 28.199999999999996 11.525000000000002  C 27.399999999999995 11.100000000000001  26.874999999999996 11.900000000000002  26.662499999999994 13.8875  C 26.449999999999992 15.874999999999998  26.974999999999994 17.575  28.137499999999996 18.8375  C 29.299999999999997 20.099999999999998  30.412499999999994 20.162499999999998  31.399999999999995 19.2125  C 32.387499999999996 18.2625  31.824999999999996 16.2625  29.987499999999986 13.249999999999996  C 29.54915024742337 12.53277434212206  28.93524882739286 11.939092520368662  28.20374999999999 11.524999999999999  Z M 30.975 16.7  C 31.7875 20.2  28.5 19.974999999999998  27.612499999999997 17.3125  C 28.287499999999998 17.5875  28.924999999999997 17.55  29.15 15.9875  L 29.15 15.4  L 29 15.4625  C 28.4625 15.075000000000001  28.6875 14.9  28.7875 14.6875  L 28.85 14.625  C 28.7375 14.475  28.225 13.6125  27.2875 15.2125  C 27.225 13.525  27.35 12.475000000000001  27.6625 12.1125  C 27.8125 11.800000000000002  28.25 11.962500000000002  29.075000000000003 12.637500000000001  C 29.875000000000004 13.312500000000002  30.487500000000004 14.637500000000001  30.975 16.7  Z M 21.991249999999997 16.624999999999996  L 21.987499999999997 16.625  C 22.187499999999996 16.6625  23.15 16.4875  23.15 14.775  L 23.0875 14.775  C 22.412499999999998 14.637500000000001  22.8125 14.0875  23 14.0375  C 22.7875 13.6625  22.575 13.5125  22.325 13.45  C 21.3125 13.45  20.875 15.0375  21.3125 16.099999999999994  C 21.44084967249423 16.37421645259296  21.693576161511274 16.569695504871337  21.991249999999997 16.624999999999996  Z M 26.537499999999998 10.0625  L 27 10.362499999999999  L 26.6875 10.424999999999999  L 26.75 10.799999999999999  C 27.88489521689479 10.737985268064907  29.014627075976335 10.993365266861117  30.0125 11.5375  C 29.7 10.85  28.7625 9.75  26.474999999999998 9.75  L 26.537499999999998 10.0625  Z M 18.637499999999996 17.362499999999997  C 18.099999999999994 16.574999999999996  18.224999999999994 16.737499999999997  18.025 16.537499999999998  C 20.737499999999997 18.6375  20.0875 19.2125  23.8375 19.487499999999997  L 23.475 18.900000000000002  C 24.52632760822492 18.004760942517365  25.18949179372468 16.73668347970363  25.325 15.362499999999999  C 25.537499999999998 13.362499999999999  25.175 11.675  24.224999999999998 10.200000000000001  L 25.849999999999998 9.250000000000002  C 25.858962345069926 9.173612031172858  25.836391763691317 9.0968720544856  25.787499999999998 9.037500000000003  C 25.225443376529437 8.816917867137402  24.58982259958565 8.896959002011807  24.099999999999998 9.250000000000002  C 22.5125 10.087500000000002  20.599999999999998 11.862500000000002  20.474999999999998 12.05  C 20.2625 12.262500000000001  20.049999999999997 12.787500000000001  19.799999999999994 13.737499999999999  C 19.561815299844678 14.702832681010516  19.44011513717834 15.693220211674515  19.437499999999996 16.6875  C 18.849999999999998 15.6875  18.124999999999996 15.8875  16.949999999999996 15.95  L 17.837499999999995 16.9  C 15.774999999999995 16.9  14.924999999999995 18.825  14.887499999999996 18.9  C 15.737499999999995 18.9  15.462499999999995 17.95  18.637499999999996 17.362499999999997  Z M 19.974999999999994 17.449999999999996  C 20.074999999999996 16.199999999999996  20.137499999999996 15.099999999999996  20.362499999999997 14.199999999999998  C 20.512499999999996 13.249999999999998  20.787499999999998 12.574999999999998  21.162499999999998 12.049999999999997  C 21.8375 11.249999999999998  22.487499999999997 10.7875  23.162499999999998 10.575  C 23.687499999999996 10.362499999999999  24.049999999999997 10.725  24.42499999999999 11.737499999999997  C 24.73663104994914 12.761070911375205  24.86361086284744 13.83193400015088  24.799999999999997 14.899999999999997  C 24.737499999999997 16.062499999999996  24.374999999999996 17.049999999999997  23.749999999999996 17.787499999999998  C 23.387499999999996 18.2125  23.074999999999996 18.525  22.949999999999996 18.737499999999997  C 22.478620584239113 18.78504463301099  22.002837958351897 18.76399230443191  21.537499999999994 18.674999999999997  L 20.649999999999995 18.249999999999996  L 19.974999999999994 17.449999999999996  Z M 25.224999999999994 22.025000000000006  L 25.612499999999997 21.2125  C 21.262499999999996 23.0125  21.275 22.9625  21.099999999999998 23  C 18.499999999999996 23.5875  18.724999999999998 19.95  18.737499999999997 19.9  L 19.474999999999998 19.75  L 19.412499999999998 19.4375  C 16.8875 19.1125  15.537499999999998 19.9625  15.349999999999998 20.05  C 15.412499999999998 20.1125  15.724999999999998 20.475  16.0875 21.212500000000002  C 16.612499999999997 20.4125  17.1875 19.950000000000003  17.987499999999997 19.887500000000003  C 17.77081703528851 21.29149080501613  17.84312764244592 22.724942252783617  18.199999999999996 24.1  C 18.212499999999995 24.1625  18.524999999999995 26.275000000000002  21.637499999999996 27.1125  C 23.049999999999997 27.4875  25.012499999999996 27.2625  27.749999999999996 26.4375  L 26.599999999999998 26.5  C 26.075 24.65  25.799999999999997 23.400000000000002  25.862499999999997 22.812500000000004  C 27.275 21.712500000000002  28.599999999999998 21.400000000000002  29.699999999999996 21.862500000000004  L 30.012499999999996 21.862500000000004  L 28.537499999999994 20.912500000000005  L 27.649999999999995 20.975000000000005  C 26.912499999999994 21.125000000000004  26.112499999999994 21.500000000000004  25.224999999999994 22.025000000000006  Z " fill-rule="evenodd" />
    </mask>
  </defs>
  <g>
    <path d="M 61.02499999999999 30.212499999999988  L 61.02875 30.21249999999999  L 63.61625 31.09999999999999  C 62.41625 28.11249999999999  60.628750000000004 26.47499999999999  59.65375 25.499999999999993  L 60.541250000000005 23.224999999999998  C 60.566250000000004 23.224999999999998  62.07875000000001 19.749999999999996  60.228750000000005 19.3875  C 60.15375 17.974999999999998  59.40375 16.0125  57.92875000000001 16.0125  C 56.978750000000005 14.6875  55.71625000000001 14.475  54.09125000000002 15.275  C 52.955845855459664 15.829070602080762  51.89356641296552 16.521861542837815  50.92875000000001 17.3375  C 50.26625000000001 16.537499999999998  50.55375000000001 17.3875  50.55375000000001 13.612499999999999  C 45.916250000000005 10.575000000000001  44.87875000000001 12.149999999999999  41.20375000000001 13.987499999999999  L 41.26625 14.049999999999997  C 38.51260237899133 13.081741720642803  35.63208699345266 12.521641506788063  32.71625 12.3875  C 32.02875 11.3  30.391250000000003 10.000000000000002  29.578750000000003 9.250000000000002  L 32.67875 10.137500000000001  C 31.99125 9.450000000000001  29.32875 8.525  28.403750000000002 8.2375  C 30.67875 7.7250000000000005  32.128750000000004 5.637500000000002  33.71625 4.112500000000002  C 29.35375 2.850000000000002  25.22875 3.3750000000000018  21.47875 5.587500000000001  L 22.97875 0.06250000000000176  L 22.75 0  C 18.8 3.024999999999999  18.625 5.237499999999999  18.5375 5.687499999999999  C 18.425 5.387499999999999  17.75 3.237499999999999  16.637500000000003 2.3124999999999996  C 16.224418227104053 3.3222773750220687  16.202137342690314 4.449690126357265  16.575000000000003 5.474999999999999  C 16.950000000000003 6.524999999999998  17.312500000000004 7.3249999999999975  17.625000000000004 7.837499999999998  C 15.625000000000004 7.424999999999998  14.087500000000004 7.224999999999998  11.475000000000003 7.837499999999998  L 11.012500000000003 7.837499999999998  L 15.137500000000005 9.624999999999998  C 12.614376016594589 11.985994377419512  10.624213265454106 14.858306356581581  9.300000000000002 18.049999999999997  L 9.087500000000002 19.099999999999998  L 9.300000000000002 19.312499999999996  L 10.250000000000002 18.724999999999998  C 9.837500000000002 20.174999999999997  9.587500000000002 21.15  9.425000000000002 21.950000000000003  C 8.064917603515365 23.480660193896533  6.897858111522882 25.172476651712973  5.950000000000003 26.987499999999997  C 4.075000000000003 27.112499999999997  1.9750000000000028 28.3375  0.9125000000000032 28.775  L 1.2875000000000032 29.2  L 4.887500000000003 29.325  C 4.825000000000003 29.45  4.8000000000000025 29.599999999999998  4.7375000000000025 29.724999999999998  C 3.8250000000000024 30.525  -0.23749999999999716 34.4375  0.6125000000000025 39.8125  L 3.1375000000000024 37.0125  C 3.2000000000000024 37.225  3.2250000000000023 37.4375  3.2875000000000023 37.6625  C 3.2875000000000023 40.85  3.337500000000002 48.8625  11.400000000000002 56.474999999999994  C 16.85 61.474999999999994  23.400000000000002 64  31.087500000000002 64  C 46.300000000000004 64  58.962500000000006 53.0875  58.962500000000006 37.56250000000001  C 59.81250000000001 36.35000000000001  58.81250000000001 37.93750000000001  61.050000000000004 34.425000000000004  L 62.675000000000004 36.212500000000006  L 62.987500000000004 36.150000000000006  C 62.75634297513259 34.69226011417648  62.38375059315991 33.26050062389945  61.87499999999999 31.87499999999999  C 61.68683331656212 31.27711590251467  61.39949602636125 30.715117967268842  61.02499999999999 30.212499999999988  Z M 46.2125 12.837499999999993  C 46.9125 12.412499999999993  48.1125 12.787499999999993  49.75 13.899999999999997  L 49.6875 16.637499999999996  C 50.375 18.899999999999995  51.8 18.787499999999994  52.4875 18.787499999999994  L 52.0625 18.199999999999996  L 54.86249999999999 17.524999999999995  C 53.73837342498066 17.58769300130852  52.61162657501933 17.58769300130852  51.4875 17.524999999999995  C 53.0875 17.262499999999996  55.65 13.899999999999995  56.8625 16.112499999999994  C 57.287499999999994 17.062499999999993  57.662499999999994 18.262499999999992  58.025 19.587499999999995  L 58.2375 18.849999999999994  C 58.08069134141349 18.229259266508713  58.00920034048782 17.590045611173363  58.025 16.949999999999996  C 58.699999999999996 17.012499999999996  59.125 17.374999999999996  59.1875 18.212499999999995  C 59.25 19.012499999999996  59.4 20.062499999999996  59.6125 21.374999999999996  L 60.199999999999996 19.962499999999995  C 60.775 19.962499999999995  60.762499999999996 19.512499999999996  59.887499999999996 22.549999999999994  C 57.275 21.462499999999995  55.49999999999999 21.499999999999993  54.074999999999996 21.499999999999993  L 56.349999999999994 19.499999999999993  C 53.18749999999999 20.52499999999999  52.224999999999994 20.849999999999994  49.49999999999999 22.112499999999994  C 49.36249999999999 21.437499999999993  48.87499999999999 20.424999999999994  47.49999999999999 19.624999999999993  C 47.099999999999994 20.099999999999994  47.14999999999999 19.737499999999994  47.412499999999994 21.474999999999994  L 47.09999999999999 21.47499999999999  C 46.94516465721792 20.452337683867043  46.588223159325416 19.470748564662635  46.05 18.587499999999995  L 46.574999999999996 18.162499999999994  C 47.62499999999999 17.274999999999995  48.05 16.374999999999993  47.9 15.424999999999994  C 47.8375 14.624999999999993  47.225 13.737499999999994  46.2125 12.837499999999993  Z M 42.26249999999999 14.112499999999995  L 44.8 12.637499999999998  C 45.137499999999996 12.874999999999998  46.224999999999994 13.312499999999998  47.162499999999994 14.787499999999998  C 47.68749999999999 15.837499999999999  47.662499999999994 16.0125  47.58749999999999 16.174999999999997  C 47.52499999999999 16.474999999999998  47.52499999999999 16.7125  47.21249999999999 17.062499999999996  C 46.99999999999999 17.374999999999996  46.537499999999994 17.649999999999995  45.73749999999999 18.012499999999996  C 44.78749999999999 16.387499999999996  43.67499999999999 15.062499999999996  42.26249999999999 14.112499999999995  Z M 9.725 27.212499999999995  C 9.9125 24.062499999999996  10.4 20.9  11.375 17.887499999999996  L 11.525 17.674999999999997  C 11.675 17.312499999999996  12.05 16.724999999999998  12.6875 15.774999999999997  L 13 15.349999999999996  L 11.375 16.887499999999996  L 12.05 16.299999999999997  L 10.787500000000001 17.4625  L 10.262500000000001 17.612499999999997  C 11.8 14.599999999999998  13.150000000000002 12.449999999999998  14.325000000000001 11.337499999999999  C 15.4875 10.174999999999999  16.325000000000003 9.337499999999999  16.85 8.9125  L 16.05 9.0625  C 14.637500000000001 8.5375  13.625 8.175  12.950000000000001 8.0125  C 13.262500000000001 7.949999999999999  13.412500000000001 7.949999999999999  13.350000000000001 7.949999999999999  C 14.637500000000001 7.949999999999999  15.537500000000001 8.0125  15.962500000000002 8.099999999999998  C 16.60892184673383 8.307274813524621  17.283659804370856 8.412702619405406  17.962500000000002 8.4125  L 18.025000000000002 8.2  L 16.975 3.7250000000000005  L 18.662500000000005 7.3500000000000005  C 19.01464046800555 6.803790746419671  19.264537589477797 6.198107892681848  19.400000000000002 5.562500000000001  C 19.6125 4.762500000000001  20.075000000000003 3.937500000000001  20.6625 3.137500000000001  C 21.25 2.3375000000000017  21.6125 1.8125000000000016  21.825000000000003 1.7250000000000012  C 21.49988154946793 2.763512231876851  21.23280204669807 3.8193108912639544  21.025000000000002 4.887500000000001  L 20.812500000000004 5.775000000000001  L 20.750000000000004 6.362500000000001  L 21.062500000000004 6.675000000000001  C 23.8 4.987499999999999  26.75 4.249999999999999  29.975 4.312499999999999  L 32.612500000000004 4.374999999999999  C 31.137500000000003 6.062499999999998  29.137500000000003 7.112499999999998  26.550000000000004 7.474999999999998  C 25.58292216914979 7.652892610426553  24.606246465798492 7.773933616397441  23.625000000000004 7.837499999999998  L 23.600000000000005 7.774999999999998  L 23.287500000000005 7.624999999999997  C 22.692888965473326 7.50084473817368  22.07356311983425 7.5893198589792625  21.537500000000005 7.874999999999997  C 21.225000000000005 7.849999999999997  20.925000000000004 7.812499999999997  20.650000000000006 7.787499999999997  L 20.337500000000006 7.999999999999997  L 20.400000000000006 8.149999999999997  C 20.650000000000006 8.174999999999997  20.887500000000006 8.212499999999997  21.175000000000004 8.237499999999997  L 20.925000000000004 8.662499999999998  L 21.350000000000005 8.599999999999998  L 20.025000000000006 10.012499999999998  C 19.500000000000007 10.387499999999998  19.350000000000005 10.812499999999998  19.500000000000007 11.174999999999997  L 20.175000000000008 10.749999999999996  L 20.32500000000001 10.749999999999998  C 21.093169959523912 9.730831925110756  22.226973475024327 9.049653528446477  23.487500000000008 8.849999999999996  L 23.487500000000008 8.474999999999996  C 24.28750000000001 8.537499999999996  25.112500000000008 8.599999999999996  25.91250000000001 8.624999999999996  C 26.71250000000001 8.624999999999996  26.96250000000001 8.687499999999996  26.587500000000013 8.774999999999997  C 27.485780369745285 9.280630933044561  28.35011594667997 9.844328048436749  29.175000000000008 10.462499999999997  C 30.862500000000008 11.724999999999996  32.12500000000001 13.199999999999996  32.92500000000001 14.887499999999996  C 34.02500000000001 17.162499999999994  34.61250000000001 19.524999999999995  34.61250000000001 21.962499999999995  C 34.60701121368614 23.151289828287563  34.48137262202169 24.336480542988877  34.23750000000001 25.499999999999996  C 33.79619667065281 27.4877759263972  33.12501347852906 29.41742760375299  32.23750000000001 31.249999999999993  L 32.55000000000001 31.312499999999993  C 34.82500000000001 28.849999999999994  37.78750000000001 29.312499999999993  38.70000000000001 29.312499999999993  L 37.90000000000001 30.049999999999994  L 40.70000000000001 32.262499999999996  L 40.48750000000001 36.099999999999994  C 39.812500000000014 34.56249999999999  38.42500000000001 33.46249999999999  36.36250000000001 32.62499999999999  C 38.42500000000001 34.474999999999994  39.312500000000014 35.262499999999996  39.10000000000001 35.14999999999999  C 38.50000000000001 34.79999999999999  38.66250000000001 34.912499999999994  37.75000000000001 34.68749999999999  C 38.26250000000001 35.199999999999996  39.93750000000001 37.037499999999994  40.025000000000006 37.27499999999999  L 40.050000000000004 37.29999999999999  L 40.025000000000006 37.32499999999999  C 40.025000000000006 37.54999999999999  40.22500000000001 37.17499999999999  38.275000000000006 40.187499999999986  C 28.875000000000007 38.274999999999984  24.991250000000008 34.84999999999999  20.625000000000007 32.28749999999999  L 22.10000000000001 32.437499999999986  C 20.625000000000007 30.124999999999986  20.15000000000001 30.224999999999987  17.300000000000008 29.174999999999986  L 18.625 28.124999999999993  C 17.525 27.749999999999993  16.35 27.749999999999993  15.0875 28.187499999999993  L 16.0375 26.862499999999994  L 15.887500000000001 26.649999999999995  C 14.025 27.187499999999996  13.412500000000001 27.799999999999994  13.0625 28.062499999999996  C 12.925 27.374999999999996  12.7125 26.512499999999996  11.525 24.462499999999995  L 11.375 27.837499999999995  L 9.725 27.212499999999995  Z M 45.849999999999994 47.95000000000001  C 46.387499999999996 52.237500000000004  46.974999999999994 54.1  45.9375 59.13749999999999  C 39.7 62.26249999999999  38.925 61.937499999999986  38.5625 62.124999999999986  C 34.8375 60.649999999999984  32.2 58.16249999999999  30.625 54.774999999999984  L 34.375 56.837499999999984  C 33.15 55.67499999999998  32.0875 54.774999999999984  29.575 51.29999999999998  L 31.05 54.187499999999986  L 28.837500000000002 53.23749999999998  C 30.6125 55.874999999999986  31.775000000000002 59.69999999999998  37.1625 62.42499999999998  C 22.0625 65.44999999999999  12.287500000000001 53.41249999999998  12.049999999999999 53.137499999999974  C 13.437298366966075 54.29068639812657  14.917311508824014 55.32753176304399  16.475 56.23749999999998  C 16.900000000000002 56.44999999999998  17.3625 56.54999999999998  17.7375 56.38749999999998  L 15.7375 53.79999999999998  C 16.8875 54.32499999999998  16.925 54.36249999999998  24.375 57.42499999999998  C 19.0625 54.837499999999984  15.15 52.32499999999998  12.725 49.899999999999984  C 12.6625 50.69999999999998  12.575 51.16249999999999  12.574999999999998 51.16249999999999  C 13.663151792106138 52.075167517520384  14.545101596434048 53.20849431921712  15.1625 54.48749999999999  C 10.2875 52.12499999999999  7.9624999999999995 48.53749999999999  6.25 44.1625  C 12.4875 51.05  21.1125 48.849999999999994  21.3125 48.8  C 25.6625 50.849999999999994  30.05 51.75  35.55 50.125  C 35.9625 50.125  38.0875 52.25  38.7125 55.0125  L 39.2375 54.6375  L 38.925 51.6875  C 40.05 52.8125  42.037499999999994 54.5125  43.224999999999994 53.3125  C 41.27499999999999 52.65  40.287499999999994 52.125  39.537499999999994 49.35  C 40.1125 49.875  40.4875 50.475  43.012499999999996 51.225  L 43.162499999999994 51.075  L 41.849999999999994 49.300000000000004  C 43.31249999999999 48.7  41.412499999999994 49.425000000000004  45.849999999999994 47.95000000000001  Z M 61.46625000000002 33.93749999999999  L 60.35 32.3375  L 60.0375 32.4  L 60.4125 33.5625  C 59.975 34.3  57.45 39.1  51.462500000000006 43.525  C 46.525000000000006 47.25  41.8875 48.412499999999994  41.35000000000001 48.56249999999999  L 40.400000000000006 47.675  L 40.25000000000001 48.04999999999999  L 42.03750000000001 50.04999999999999  L 41.150000000000006 49.46249999999999  L 41.575 49.98749999999999  L 41.425000000000004 49.98749999999999  L 38.68750000000001 48.29999999999999  L 39.85000000000001 51.62499999999999  L 37.47500000000001 48.137499999999996  L 37.32500000000001 48.449999999999996  L 38.27500000000001 52.074999999999996  C 37.51250000000001 51.05  35.65000000000001 48  31.17500000000001 47.125  L 35.237500000000004 49.774999999999984  C 31.342499459880823 50.36616446282112  27.365130249325627 50.093040396860246  23.587500000000013 48.974999999999994  C 23.062500000000014 48.824999999999996  22.475000000000012 48.662499999999994  21.900000000000013 48.449999999999996  L 22.05000000000001 48.074999999999996  L 16.45000000000001 45.275000000000006  L 19.71250000000001 48.074999999999996  C 12.500000000000009 49.2125  5.587500000000009 44.900000000000006  3.9125000000000085 37.65  L 3.6000000000000085 35.6  L 0.8162500000000086 38.3875  C 3.2537500000000086 31.200000000000003  4.016250000000008 31.150000000000002  7.241250000000008 29.625000000000004  C 6.103750000000008 28.962500000000002  7.041250000000008 29.212500000000002  2.441250000000008 28.462500000000002  C 4.416250000000009 27.7375  6.566250000000008 26.5375  11.566250000000007 29.112499999999997  C 11.712128076012185 29.024864697987514  11.867233997572471 28.953599815108465  12.028750000000008 28.900000000000002  C 12.103750000000007 28.500000000000004  12.078750000000008 28.8  12.153750000000008 27.425  C 12.641250000000008 28.675  12.603750000000007 28.5125  12.528750000000008 28.587500000000002  L 12.741250000000008 28.650000000000002  C 14.328750000000008 27.837500000000002  13.853750000000009 28.087500000000002  14.866250000000008 27.5375  L 14.191250000000007 29.225  L 16.97875000000001 28.5  L 15.928750000000008 29.55  L 16.241250000000008 29.8625  C 16.803750000000008 29.6375  20.02875000000001 30.2875  21.34125000000001 31.8625  L 18.39125000000001 31.55  C 23.31625000000001 34.425000000000004  24.82875000000001 38.300000000000004  25.366250000000008 40.25  L 25.578750000000007 40.1  C 25.228750000000005 37.3125  24.028750000000006 35.862500000000004  23.578750000000007 35.0875  C 24.103750000000005 35.7125  28.478750000000005 39.4125  37.37875000000001 40.8375  C 35.96625000000001 40.775  34.49125000000001 41.512499999999996  33.016250000000014 43.199999999999996  L 38.85375000000001 40.675  L 37.69125000000001 43.412499999999994  C 38.641250000000014 42.14999999999999  39.54125000000001 40.46249999999999  40.34125000000001 38.46249999999999  L 40.34125000000001 38.39999999999999  L 40.49125000000001 38.02499999999999  L 40.34125000000001 40.02499999999999  C 42.02875000000001 34.79999999999999  43.50375000000001 30.21249999999999  44.76625000000001 26.312499999999993  L 46.45375000000001 22.837499999999995  L 46.45375000000001 22.587499999999995  L 45.77875000000001 22.062499999999996  L 47.04125000000001 22.062499999999996  L 47.77875000000001 22.587499999999995  L 48.09125000000001 22.437499999999996  L 47.66625000000001 20.437499999999996  L 49.203750000000014 22.799999999999997  L 54.428750000000015 20.275  L 52.578750000000014 21.9  L 52.641250000000014 22.2625  L 54.85375000000001 22.2  C 56.241781427644355 22.250089791419196  57.62242252177545 22.42580774885406  58.97875000000001 22.724999999999998  L 56.02875000000001 23.037499999999998  L 55.87875000000001 23.412499999999998  L 59.203750000000014 26.299999999999994  C 60.43682414844451 27.53826271373746  61.565651827982194 28.876132556152506  62.578750000000014 30.299999999999994  C 61.178750000000015 29.887499999999992  61.29125000000001 29.874999999999993  59.928750000000015 29.874999999999993  L 61.46625000000002 33.93749999999999  Z M 57.3125 23.575  L 59.5875 23.425  L 59.1 25.049999999999997  L 57.3125 23.575  Z M 30.037499999999998 26.662499999999994  C 28.45 25.862499999999994  28.075 24.949999999999996  27.737499999999997 24.312499999999996  C 27.949999999999996 25.637499999999996  28.324999999999996 26.524999999999995  28.8375 27.049999999999997  C 27.674999999999997 27.874999999999996  25.4 28.787499999999998  23.025 29.049999999999997  L 23.0875 29.199999999999996  C 24.130675312942298 29.358000332891905  25.19684723319618 29.2505233248018  26.1875 28.887499999999996  L 25.3 30.512499999999996  C 25.825 30.299999999999997  26.5625 29.624999999999996  27.5125 28.662499999999994  C 29 27.974999999999994  29.099999999999998 28.024999999999995  30.037499999999998 26.662499999999994  Z M 28.20374999999999 11.524999999999999  L 28.199999999999996 11.525000000000002  C 27.399999999999995 11.100000000000001  26.874999999999996 11.900000000000002  26.662499999999994 13.8875  C 26.449999999999992 15.874999999999998  26.974999999999994 17.575  28.137499999999996 18.8375  C 29.299999999999997 20.099999999999998  30.412499999999994 20.162499999999998  31.399999999999995 19.2125  C 32.387499999999996 18.2625  31.824999999999996 16.2625  29.987499999999986 13.249999999999996  C 29.54915024742337 12.53277434212206  28.93524882739286 11.939092520368662  28.20374999999999 11.524999999999999  Z M 30.975 16.7  C 31.7875 20.2  28.5 19.974999999999998  27.612499999999997 17.3125  C 28.287499999999998 17.5875  28.924999999999997 17.55  29.15 15.9875  L 29.15 15.4  L 29 15.4625  C 28.4625 15.075000000000001  28.6875 14.9  28.7875 14.6875  L 28.85 14.625  C 28.7375 14.475  28.225 13.6125  27.2875 15.2125  C 27.225 13.525  27.35 12.475000000000001  27.6625 12.1125  C 27.8125 11.800000000000002  28.25 11.962500000000002  29.075000000000003 12.637500000000001  C 29.875000000000004 13.312500000000002  30.487500000000004 14.637500000000001  30.975 16.7  Z M 21.991249999999997 16.624999999999996  L 21.987499999999997 16.625  C 22.187499999999996 16.6625  23.15 16.4875  23.15 14.775  L 23.0875 14.775  C 22.412499999999998 14.637500000000001  22.8125 14.0875  23 14.0375  C 22.7875 13.6625  22.575 13.5125  22.325 13.45  C 21.3125 13.45  20.875 15.0375  21.3125 16.099999999999994  C 21.44084967249423 16.37421645259296  21.693576161511274 16.569695504871337  21.991249999999997 16.624999999999996  Z M 26.537499999999998 10.0625  L 27 10.362499999999999  L 26.6875 10.424999999999999  L 26.75 10.799999999999999  C 27.88489521689479 10.737985268064907  29.014627075976335 10.993365266861117  30.0125 11.5375  C 29.7 10.85  28.7625 9.75  26.474999999999998 9.75  L 26.537499999999998 10.0625  Z M 18.637499999999996 17.362499999999997  C 18.099999999999994 16.574999999999996  18.224999999999994 16.737499999999997  18.025 16.537499999999998  C 20.737499999999997 18.6375  20.0875 19.2125  23.8375 19.487499999999997  L 23.475 18.900000000000002  C 24.52632760822492 18.004760942517365  25.18949179372468 16.73668347970363  25.325 15.362499999999999  C 25.537499999999998 13.362499999999999  25.175 11.675  24.224999999999998 10.200000000000001  L 25.849999999999998 9.250000000000002  C 25.858962345069926 9.173612031172858  25.836391763691317 9.0968720544856  25.787499999999998 9.037500000000003  C 25.225443376529437 8.816917867137402  24.58982259958565 8.896959002011807  24.099999999999998 9.250000000000002  C 22.5125 10.087500000000002  20.599999999999998 11.862500000000002  20.474999999999998 12.05  C 20.2625 12.262500000000001  20.049999999999997 12.787500000000001  19.799999999999994 13.737499999999999  C 19.561815299844678 14.702832681010516  19.44011513717834 15.693220211674515  19.437499999999996 16.6875  C 18.849999999999998 15.6875  18.124999999999996 15.8875  16.949999999999996 15.95  L 17.837499999999995 16.9  C 15.774999999999995 16.9  14.924999999999995 18.825  14.887499999999996 18.9  C 15.737499999999995 18.9  15.462499999999995 17.95  18.637499999999996 17.362499999999997  Z M 19.974999999999994 17.449999999999996  C 20.074999999999996 16.199999999999996  20.137499999999996 15.099999999999996  20.362499999999997 14.199999999999998  C 20.512499999999996 13.249999999999998  20.787499999999998 12.574999999999998  21.162499999999998 12.049999999999997  C 21.8375 11.249999999999998  22.487499999999997 10.7875  23.162499999999998 10.575  C 23.687499999999996 10.362499999999999  24.049999999999997 10.725  24.42499999999999 11.737499999999997  C 24.73663104994914 12.761070911375205  24.86361086284744 13.83193400015088  24.799999999999997 14.899999999999997  C 24.737499999999997 16.062499999999996  24.374999999999996 17.049999999999997  23.749999999999996 17.787499999999998  C 23.387499999999996 18.2125  23.074999999999996 18.525  22.949999999999996 18.737499999999997  C 22.478620584239113 18.78504463301099  22.002837958351897 18.76399230443191  21.537499999999994 18.674999999999997  L 20.649999999999995 18.249999999999996  L 19.974999999999994 17.449999999999996  Z M 25.224999999999994 22.025000000000006  L 25.612499999999997 21.2125  C 21.262499999999996 23.0125  21.275 22.9625  21.099999999999998 23  C 18.499999999999996 23.5875  18.724999999999998 19.95  18.737499999999997 19.9  L 19.474999999999998 19.75  L 19.412499999999998 19.4375  C 16.8875 19.1125  15.537499999999998 19.9625  15.349999999999998 20.05  C 15.412499999999998 20.1125  15.724999999999998 20.475  16.0875 21.212500000000002  C 16.612499999999997 20.4125  17.1875 19.950000000000003  17.987499999999997 19.887500000000003  C 17.77081703528851 21.29149080501613  17.84312764244592 22.724942252783617  18.199999999999996 24.1  C 18.212499999999995 24.1625  18.524999999999995 26.275000000000002  21.637499999999996 27.1125  C 23.049999999999997 27.4875  25.012499999999996 27.2625  27.749999999999996 26.4375  L 26.599999999999998 26.5  C 26.075 24.65  25.799999999999997 23.400000000000002  25.862499999999997 22.812500000000004  C 27.275 21.712500000000002  28.599999999999998 21.400000000000002  29.699999999999996 21.862500000000004  L 30.012499999999996 21.862500000000004  L 28.537499999999994 20.912500000000005  L 27.649999999999995 20.975000000000005  C 26.912499999999994 21.125000000000004  26.112499999999994 21.500000000000004  25.224999999999994 22.025000000000006  Z " fill-rule="nonzero" fill="rgba(0, 0, 0, 1)" stroke="none" class="fill" />
    <path d="M 61.02499999999999 30.212499999999988  L 61.02875 30.21249999999999  L 63.61625 31.09999999999999  C 62.41625 28.11249999999999  60.628750000000004 26.47499999999999  59.65375 25.499999999999993  L 60.541250000000005 23.224999999999998  C 60.566250000000004 23.224999999999998  62.07875000000001 19.749999999999996  60.228750000000005 19.3875  C 60.15375 17.974999999999998  59.40375 16.0125  57.92875000000001 16.0125  C 56.978750000000005 14.6875  55.71625000000001 14.475  54.09125000000002 15.275  C 52.955845855459664 15.829070602080762  51.89356641296552 16.521861542837815  50.92875000000001 17.3375  C 50.26625000000001 16.537499999999998  50.55375000000001 17.3875  50.55375000000001 13.612499999999999  C 45.916250000000005 10.575000000000001  44.87875000000001 12.149999999999999  41.20375000000001 13.987499999999999  L 41.26625 14.049999999999997  C 38.51260237899133 13.081741720642803  35.63208699345266 12.521641506788063  32.71625 12.3875  C 32.02875 11.3  30.391250000000003 10.000000000000002  29.578750000000003 9.250000000000002  L 32.67875 10.137500000000001  C 31.99125 9.450000000000001  29.32875 8.525  28.403750000000002 8.2375  C 30.67875 7.7250000000000005  32.128750000000004 5.637500000000002  33.71625 4.112500000000002  C 29.35375 2.850000000000002  25.22875 3.3750000000000018  21.47875 5.587500000000001  L 22.97875 0.06250000000000176  L 22.75 0  C 18.8 3.024999999999999  18.625 5.237499999999999  18.5375 5.687499999999999  C 18.425 5.387499999999999  17.75 3.237499999999999  16.637500000000003 2.3124999999999996  C 16.224418227104053 3.3222773750220687  16.202137342690314 4.449690126357265  16.575000000000003 5.474999999999999  C 16.950000000000003 6.524999999999998  17.312500000000004 7.3249999999999975  17.625000000000004 7.837499999999998  C 15.625000000000004 7.424999999999998  14.087500000000004 7.224999999999998  11.475000000000003 7.837499999999998  L 11.012500000000003 7.837499999999998  L 15.137500000000005 9.624999999999998  C 12.614376016594589 11.985994377419512  10.624213265454106 14.858306356581581  9.300000000000002 18.049999999999997  L 9.087500000000002 19.099999999999998  L 9.300000000000002 19.312499999999996  L 10.250000000000002 18.724999999999998  C 9.837500000000002 20.174999999999997  9.587500000000002 21.15  9.425000000000002 21.950000000000003  C 8.064917603515365 23.480660193896533  6.897858111522882 25.172476651712973  5.950000000000003 26.987499999999997  C 4.075000000000003 27.112499999999997  1.9750000000000028 28.3375  0.9125000000000032 28.775  L 1.2875000000000032 29.2  L 4.887500000000003 29.325  C 4.825000000000003 29.45  4.8000000000000025 29.599999999999998  4.7375000000000025 29.724999999999998  C 3.8250000000000024 30.525  -0.23749999999999716 34.4375  0.6125000000000025 39.8125  L 3.1375000000000024 37.0125  C 3.2000000000000024 37.225  3.2250000000000023 37.4375  3.2875000000000023 37.6625  C 3.2875000000000023 40.85  3.337500000000002 48.8625  11.400000000000002 56.474999999999994  C 16.85 61.474999999999994  23.400000000000002 64  31.087500000000002 64  C 46.300000000000004 64  58.962500000000006 53.0875  58.962500000000006 37.56250000000001  C 59.81250000000001 36.35000000000001  58.81250000000001 37.93750000000001  61.050000000000004 34.425000000000004  L 62.675000000000004 36.212500000000006  L 62.987500000000004 36.150000000000006  C 62.75634297513259 34.69226011417648  62.38375059315991 33.26050062389945  61.87499999999999 31.87499999999999  C 61.68683331656212 31.27711590251467  61.39949602636125 30.715117967268842  61.02499999999999 30.212499999999988  Z " stroke-width="0" stroke-dasharray="0" stroke="rgba(255, 255, 255, 0)" fill="none" class="stroke" mask="url(#Clip1003)" />
    <path d="M 46.2125 12.837499999999993  C 46.9125 12.412499999999993  48.1125 12.787499999999993  49.75 13.899999999999997  L 49.6875 16.637499999999996  C 50.375 18.899999999999995  51.8 18.787499999999994  52.4875 18.787499999999994  L 52.0625 18.199999999999996  L 54.86249999999999 17.524999999999995  C 53.73837342498066 17.58769300130852  52.61162657501933 17.58769300130852  51.4875 17.524999999999995  C 53.0875 17.262499999999996  55.65 13.899999999999995  56.8625 16.112499999999994  C 57.287499999999994 17.062499999999993  57.662499999999994 18.262499999999992  58.025 19.587499999999995  L 58.2375 18.849999999999994  C 58.08069134141349 18.229259266508713  58.00920034048782 17.590045611173363  58.025 16.949999999999996  C 58.699999999999996 17.012499999999996  59.125 17.374999999999996  59.1875 18.212499999999995  C 59.25 19.012499999999996  59.4 20.062499999999996  59.6125 21.374999999999996  L 60.199999999999996 19.962499999999995  C 60.775 19.962499999999995  60.762499999999996 19.512499999999996  59.887499999999996 22.549999999999994  C 57.275 21.462499999999995  55.49999999999999 21.499999999999993  54.074999999999996 21.499999999999993  L 56.349999999999994 19.499999999999993  C 53.18749999999999 20.52499999999999  52.224999999999994 20.849999999999994  49.49999999999999 22.112499999999994  C 49.36249999999999 21.437499999999993  48.87499999999999 20.424999999999994  47.49999999999999 19.624999999999993  C 47.099999999999994 20.099999999999994  47.14999999999999 19.737499999999994  47.412499999999994 21.474999999999994  L 47.09999999999999 21.47499999999999  C 46.94516465721792 20.452337683867043  46.588223159325416 19.470748564662635  46.05 18.587499999999995  L 46.574999999999996 18.162499999999994  C 47.62499999999999 17.274999999999995  48.05 16.374999999999993  47.9 15.424999999999994  C 47.8375 14.624999999999993  47.225 13.737499999999994  46.2125 12.837499999999993  Z " stroke-width="0" stroke-dasharray="0" stroke="rgba(255, 255, 255, 0)" fill="none" class="stroke" mask="url(#Clip1003)" />
    <path d="M 42.26249999999999 14.112499999999995  L 44.8 12.637499999999998  C 45.137499999999996 12.874999999999998  46.224999999999994 13.312499999999998  47.162499999999994 14.787499999999998  C 47.68749999999999 15.837499999999999  47.662499999999994 16.0125  47.58749999999999 16.174999999999997  C 47.52499999999999 16.474999999999998  47.52499999999999 16.7125  47.21249999999999 17.062499999999996  C 46.99999999999999 17.374999999999996  46.537499999999994 17.649999999999995  45.73749999999999 18.012499999999996  C 44.78749999999999 16.387499999999996  43.67499999999999 15.062499999999996  42.26249999999999 14.112499999999995  Z " stroke-width="0" stroke-dasharray="0" stroke="rgba(255, 255, 255, 0)" fill="none" class="stroke" mask="url(#Clip1003)" />
    <path d="M 9.725 27.212499999999995  C 9.9125 24.062499999999996  10.4 20.9  11.375 17.887499999999996  L 11.525 17.674999999999997  C 11.675 17.312499999999996  12.05 16.724999999999998  12.6875 15.774999999999997  L 13 15.349999999999996  L 11.375 16.887499999999996  L 12.05 16.299999999999997  L 10.787500000000001 17.4625  L 10.262500000000001 17.612499999999997  C 11.8 14.599999999999998  13.150000000000002 12.449999999999998  14.325000000000001 11.337499999999999  C 15.4875 10.174999999999999  16.325000000000003 9.337499999999999  16.85 8.9125  L 16.05 9.0625  C 14.637500000000001 8.5375  13.625 8.175  12.950000000000001 8.0125  C 13.262500000000001 7.949999999999999  13.412500000000001 7.949999999999999  13.350000000000001 7.949999999999999  C 14.637500000000001 7.949999999999999  15.537500000000001 8.0125  15.962500000000002 8.099999999999998  C 16.60892184673383 8.307274813524621  17.283659804370856 8.412702619405406  17.962500000000002 8.4125  L 18.025000000000002 8.2  L 16.975 3.7250000000000005  L 18.662500000000005 7.3500000000000005  C 19.01464046800555 6.803790746419671  19.264537589477797 6.198107892681848  19.400000000000002 5.562500000000001  C 19.6125 4.762500000000001  20.075000000000003 3.937500000000001  20.6625 3.137500000000001  C 21.25 2.3375000000000017  21.6125 1.8125000000000016  21.825000000000003 1.7250000000000012  C 21.49988154946793 2.763512231876851  21.23280204669807 3.8193108912639544  21.025000000000002 4.887500000000001  L 20.812500000000004 5.775000000000001  L 20.750000000000004 6.362500000000001  L 21.062500000000004 6.675000000000001  C 23.8 4.987499999999999  26.75 4.249999999999999  29.975 4.312499999999999  L 32.612500000000004 4.374999999999999  C 31.137500000000003 6.062499999999998  29.137500000000003 7.112499999999998  26.550000000000004 7.474999999999998  C 25.58292216914979 7.652892610426553  24.606246465798492 7.773933616397441  23.625000000000004 7.837499999999998  L 23.600000000000005 7.774999999999998  L 23.287500000000005 7.624999999999997  C 22.692888965473326 7.50084473817368  22.07356311983425 7.5893198589792625  21.537500000000005 7.874999999999997  C 21.225000000000005 7.849999999999997  20.925000000000004 7.812499999999997  20.650000000000006 7.787499999999997  L 20.337500000000006 7.999999999999997  L 20.400000000000006 8.149999999999997  C 20.650000000000006 8.174999999999997  20.887500000000006 8.212499999999997  21.175000000000004 8.237499999999997  L 20.925000000000004 8.662499999999998  L 21.350000000000005 8.599999999999998  L 20.025000000000006 10.012499999999998  C 19.500000000000007 10.387499999999998  19.350000000000005 10.812499999999998  19.500000000000007 11.174999999999997  L 20.175000000000008 10.749999999999996  L 20.32500000000001 10.749999999999998  C 21.093169959523912 9.730831925110756  22.226973475024327 9.049653528446477  23.487500000000008 8.849999999999996  L 23.487500000000008 8.474999999999996  C 24.28750000000001 8.537499999999996  25.112500000000008 8.599999999999996  25.91250000000001 8.624999999999996  C 26.71250000000001 8.624999999999996  26.96250000000001 8.687499999999996  26.587500000000013 8.774999999999997  C 27.485780369745285 9.280630933044561  28.35011594667997 9.844328048436749  29.175000000000008 10.462499999999997  C 30.862500000000008 11.724999999999996  32.12500000000001 13.199999999999996  32.92500000000001 14.887499999999996  C 34.02500000000001 17.162499999999994  34.61250000000001 19.524999999999995  34.61250000000001 21.962499999999995  C 34.60701121368614 23.151289828287563  34.48137262202169 24.336480542988877  34.23750000000001 25.499999999999996  C 33.79619667065281 27.4877759263972  33.12501347852906 29.41742760375299  32.23750000000001 31.249999999999993  L 32.55000000000001 31.312499999999993  C 34.82500000000001 28.849999999999994  37.78750000000001 29.312499999999993  38.70000000000001 29.312499999999993  L 37.90000000000001 30.049999999999994  L 40.70000000000001 32.262499999999996  L 40.48750000000001 36.099999999999994  C 39.812500000000014 34.56249999999999  38.42500000000001 33.46249999999999  36.36250000000001 32.62499999999999  C 38.42500000000001 34.474999999999994  39.312500000000014 35.262499999999996  39.10000000000001 35.14999999999999  C 38.50000000000001 34.79999999999999  38.66250000000001 34.912499999999994  37.75000000000001 34.68749999999999  C 38.26250000000001 35.199999999999996  39.93750000000001 37.037499999999994  40.025000000000006 37.27499999999999  L 40.050000000000004 37.29999999999999  L 40.025000000000006 37.32499999999999  C 40.025000000000006 37.54999999999999  40.22500000000001 37.17499999999999  38.275000000000006 40.187499999999986  C 28.875000000000007 38.274999999999984  24.991250000000008 34.84999999999999  20.625000000000007 32.28749999999999  L 22.10000000000001 32.437499999999986  C 20.625000000000007 30.124999999999986  20.15000000000001 30.224999999999987  17.300000000000008 29.174999999999986  L 18.625 28.124999999999993  C 17.525 27.749999999999993  16.35 27.749999999999993  15.0875 28.187499999999993  L 16.0375 26.862499999999994  L 15.887500000000001 26.649999999999995  C 14.025 27.187499999999996  13.412500000000001 27.799999999999994  13.0625 28.062499999999996  C 12.925 27.374999999999996  12.7125 26.512499999999996  11.525 24.462499999999995  L 11.375 27.837499999999995  L 9.725 27.212499999999995  Z " stroke-width="0" stroke-dasharray="0" stroke="rgba(255, 255, 255, 0)" fill="none" class="stroke" mask="url(#Clip1003)" />
    <path d="M 45.849999999999994 47.95000000000001  C 46.387499999999996 52.237500000000004  46.974999999999994 54.1  45.9375 59.13749999999999  C 39.7 62.26249999999999  38.925 61.937499999999986  38.5625 62.124999999999986  C 34.8375 60.649999999999984  32.2 58.16249999999999  30.625 54.774999999999984  L 34.375 56.837499999999984  C 33.15 55.67499999999998  32.0875 54.774999999999984  29.575 51.29999999999998  L 31.05 54.187499999999986  L 28.837500000000002 53.23749999999998  C 30.6125 55.874999999999986  31.775000000000002 59.69999999999998  37.1625 62.42499999999998  C 22.0625 65.44999999999999  12.287500000000001 53.41249999999998  12.049999999999999 53.137499999999974  C 13.437298366966075 54.29068639812657  14.917311508824014 55.32753176304399  16.475 56.23749999999998  C 16.900000000000002 56.44999999999998  17.3625 56.54999999999998  17.7375 56.38749999999998  L 15.7375 53.79999999999998  C 16.8875 54.32499999999998  16.925 54.36249999999998  24.375 57.42499999999998  C 19.0625 54.837499999999984  15.15 52.32499999999998  12.725 49.899999999999984  C 12.6625 50.69999999999998  12.575 51.16249999999999  12.574999999999998 51.16249999999999  C 13.663151792106138 52.075167517520384  14.545101596434048 53.20849431921712  15.1625 54.48749999999999  C 10.2875 52.12499999999999  7.9624999999999995 48.53749999999999  6.25 44.1625  C 12.4875 51.05  21.1125 48.849999999999994  21.3125 48.8  C 25.6625 50.849999999999994  30.05 51.75  35.55 50.125  C 35.9625 50.125  38.0875 52.25  38.7125 55.0125  L 39.2375 54.6375  L 38.925 51.6875  C 40.05 52.8125  42.037499999999994 54.5125  43.224999999999994 53.3125  C 41.27499999999999 52.65  40.287499999999994 52.125  39.537499999999994 49.35  C 40.1125 49.875  40.4875 50.475  43.012499999999996 51.225  L 43.162499999999994 51.075  L 41.849999999999994 49.300000000000004  C 43.31249999999999 48.7  41.412499999999994 49.425000000000004  45.849999999999994 47.95000000000001  Z " stroke-width="0" stroke-dasharray="0" stroke="rgba(255, 255, 255, 0)" fill="none" class="stroke" mask="url(#Clip1003)" />
    <path d="M 61.46625000000002 33.93749999999999  L 60.35 32.3375  L 60.0375 32.4  L 60.4125 33.5625  C 59.975 34.3  57.45 39.1  51.462500000000006 43.525  C 46.525000000000006 47.25  41.8875 48.412499999999994  41.35000000000001 48.56249999999999  L 40.400000000000006 47.675  L 40.25000000000001 48.04999999999999  L 42.03750000000001 50.04999999999999  L 41.150000000000006 49.46249999999999  L 41.575 49.98749999999999  L 41.425000000000004 49.98749999999999  L 38.68750000000001 48.29999999999999  L 39.85000000000001 51.62499999999999  L 37.47500000000001 48.137499999999996  L 37.32500000000001 48.449999999999996  L 38.27500000000001 52.074999999999996  C 37.51250000000001 51.05  35.65000000000001 48  31.17500000000001 47.125  L 35.237500000000004 49.774999999999984  C 31.342499459880823 50.36616446282112  27.365130249325627 50.093040396860246  23.587500000000013 48.974999999999994  C 23.062500000000014 48.824999999999996  22.475000000000012 48.662499999999994  21.900000000000013 48.449999999999996  L 22.05000000000001 48.074999999999996  L 16.45000000000001 45.275000000000006  L 19.71250000000001 48.074999999999996  C 12.500000000000009 49.2125  5.587500000000009 44.900000000000006  3.9125000000000085 37.65  L 3.6000000000000085 35.6  L 0.8162500000000086 38.3875  C 3.2537500000000086 31.200000000000003  4.016250000000008 31.150000000000002  7.241250000000008 29.625000000000004  C 6.103750000000008 28.962500000000002  7.041250000000008 29.212500000000002  2.441250000000008 28.462500000000002  C 4.416250000000009 27.7375  6.566250000000008 26.5375  11.566250000000007 29.112499999999997  C 11.712128076012185 29.024864697987514  11.867233997572471 28.953599815108465  12.028750000000008 28.900000000000002  C 12.103750000000007 28.500000000000004  12.078750000000008 28.8  12.153750000000008 27.425  C 12.641250000000008 28.675  12.603750000000007 28.5125  12.528750000000008 28.587500000000002  L 12.741250000000008 28.650000000000002  C 14.328750000000008 27.837500000000002  13.853750000000009 28.087500000000002  14.866250000000008 27.5375  L 14.191250000000007 29.225  L 16.97875000000001 28.5  L 15.928750000000008 29.55  L 16.241250000000008 29.8625  C 16.803750000000008 29.6375  20.02875000000001 30.2875  21.34125000000001 31.8625  L 18.39125000000001 31.55  C 23.31625000000001 34.425000000000004  24.82875000000001 38.300000000000004  25.366250000000008 40.25  L 25.578750000000007 40.1  C 25.228750000000005 37.3125  24.028750000000006 35.862500000000004  23.578750000000007 35.0875  C 24.103750000000005 35.7125  28.478750000000005 39.4125  37.37875000000001 40.8375  C 35.96625000000001 40.775  34.49125000000001 41.512499999999996  33.016250000000014 43.199999999999996  L 38.85375000000001 40.675  L 37.69125000000001 43.412499999999994  C 38.641250000000014 42.14999999999999  39.54125000000001 40.46249999999999  40.34125000000001 38.46249999999999  L 40.34125000000001 38.39999999999999  L 40.49125000000001 38.02499999999999  L 40.34125000000001 40.02499999999999  C 42.02875000000001 34.79999999999999  43.50375000000001 30.21249999999999  44.76625000000001 26.312499999999993  L 46.45375000000001 22.837499999999995  L 46.45375000000001 22.587499999999995  L 45.77875000000001 22.062499999999996  L 47.04125000000001 22.062499999999996  L 47.77875000000001 22.587499999999995  L 48.09125000000001 22.437499999999996  L 47.66625000000001 20.437499999999996  L 49.203750000000014 22.799999999999997  L 54.428750000000015 20.275  L 52.578750000000014 21.9  L 52.641250000000014 22.2625  L 54.85375000000001 22.2  C 56.241781427644355 22.250089791419196  57.62242252177545 22.42580774885406  58.97875000000001 22.724999999999998  L 56.02875000000001 23.037499999999998  L 55.87875000000001 23.412499999999998  L 59.203750000000014 26.299999999999994  C 60.43682414844451 27.53826271373746  61.565651827982194 28.876132556152506  62.578750000000014 30.299999999999994  C 61.178750000000015 29.887499999999992  61.29125000000001 29.874999999999993  59.928750000000015 29.874999999999993  L 61.46625000000002 33.93749999999999  Z " stroke-width="0" stroke-dasharray="0" stroke="rgba(255, 255, 255, 0)" fill="none" class="stroke" mask="url(#Clip1003)" />
    <path d="M 57.3125 23.575  L 59.5875 23.425  L 59.1 25.049999999999997  L 57.3125 23.575  Z " stroke-width="0" stroke-dasharray="0" stroke="rgba(255, 255, 255, 0)" fill="none" class="stroke" mask="url(#Clip1003)" />
    <path d="M 30.037499999999998 26.662499999999994  C 28.45 25.862499999999994  28.075 24.949999999999996  27.737499999999997 24.312499999999996  C 27.949999999999996 25.637499999999996  28.324999999999996 26.524999999999995  28.8375 27.049999999999997  C 27.674999999999997 27.874999999999996  25.4 28.787499999999998  23.025 29.049999999999997  L 23.0875 29.199999999999996  C 24.130675312942298 29.358000332891905  25.19684723319618 29.2505233248018  26.1875 28.887499999999996  L 25.3 30.512499999999996  C 25.825 30.299999999999997  26.5625 29.624999999999996  27.5125 28.662499999999994  C 29 27.974999999999994  29.099999999999998 28.024999999999995  30.037499999999998 26.662499999999994  Z " stroke-width="0" stroke-dasharray="0" stroke="rgba(255, 255, 255, 0)" fill="none" class="stroke" mask="url(#Clip1003)" />
    <path d="M 28.20374999999999 11.524999999999999  L 28.199999999999996 11.525000000000002  C 27.399999999999995 11.100000000000001  26.874999999999996 11.900000000000002  26.662499999999994 13.8875  C 26.449999999999992 15.874999999999998  26.974999999999994 17.575  28.137499999999996 18.8375  C 29.299999999999997 20.099999999999998  30.412499999999994 20.162499999999998  31.399999999999995 19.2125  C 32.387499999999996 18.2625  31.824999999999996 16.2625  29.987499999999986 13.249999999999996  C 29.54915024742337 12.53277434212206  28.93524882739286 11.939092520368662  28.20374999999999 11.524999999999999  Z " stroke-width="0" stroke-dasharray="0" stroke="rgba(255, 255, 255, 0)" fill="none" class="stroke" mask="url(#Clip1003)" />
    <path d="M 30.975 16.7  C 31.7875 20.2  28.5 19.974999999999998  27.612499999999997 17.3125  C 28.287499999999998 17.5875  28.924999999999997 17.55  29.15 15.9875  L 29.15 15.4  L 29 15.4625  C 28.4625 15.075000000000001  28.6875 14.9  28.7875 14.6875  L 28.85 14.625  C 28.7375 14.475  28.225 13.6125  27.2875 15.2125  C 27.225 13.525  27.35 12.475000000000001  27.6625 12.1125  C 27.8125 11.800000000000002  28.25 11.962500000000002  29.075000000000003 12.637500000000001  C 29.875000000000004 13.312500000000002  30.487500000000004 14.637500000000001  30.975 16.7  Z " stroke-width="0" stroke-dasharray="0" stroke="rgba(255, 255, 255, 0)" fill="none" class="stroke" mask="url(#Clip1003)" />
    <path d="M 21.991249999999997 16.624999999999996  L 21.987499999999997 16.625  C 22.187499999999996 16.6625  23.15 16.4875  23.15 14.775  L 23.0875 14.775  C 22.412499999999998 14.637500000000001  22.8125 14.0875  23 14.0375  C 22.7875 13.6625  22.575 13.5125  22.325 13.45  C 21.3125 13.45  20.875 15.0375  21.3125 16.099999999999994  C 21.44084967249423 16.37421645259296  21.693576161511274 16.569695504871337  21.991249999999997 16.624999999999996  Z " stroke-width="0" stroke-dasharray="0" stroke="rgba(255, 255, 255, 0)" fill="none" class="stroke" mask="url(#Clip1003)" />
    <path d="M 26.537499999999998 10.0625  L 27 10.362499999999999  L 26.6875 10.424999999999999  L 26.75 10.799999999999999  C 27.88489521689479 10.737985268064907  29.014627075976335 10.993365266861117  30.0125 11.5375  C 29.7 10.85  28.7625 9.75  26.474999999999998 9.75  L 26.537499999999998 10.0625  Z " stroke-width="0" stroke-dasharray="0" stroke="rgba(255, 255, 255, 0)" fill="none" class="stroke" mask="url(#Clip1003)" />
    <path d="M 18.637499999999996 17.362499999999997  C 18.099999999999994 16.574999999999996  18.224999999999994 16.737499999999997  18.025 16.537499999999998  C 20.737499999999997 18.6375  20.0875 19.2125  23.8375 19.487499999999997  L 23.475 18.900000000000002  C 24.52632760822492 18.004760942517365  25.18949179372468 16.73668347970363  25.325 15.362499999999999  C 25.537499999999998 13.362499999999999  25.175 11.675  24.224999999999998 10.200000000000001  L 25.849999999999998 9.250000000000002  C 25.858962345069926 9.173612031172858  25.836391763691317 9.0968720544856  25.787499999999998 9.037500000000003  C 25.225443376529437 8.816917867137402  24.58982259958565 8.896959002011807  24.099999999999998 9.250000000000002  C 22.5125 10.087500000000002  20.599999999999998 11.862500000000002  20.474999999999998 12.05  C 20.2625 12.262500000000001  20.049999999999997 12.787500000000001  19.799999999999994 13.737499999999999  C 19.561815299844678 14.702832681010516  19.44011513717834 15.693220211674515  19.437499999999996 16.6875  C 18.849999999999998 15.6875  18.124999999999996 15.8875  16.949999999999996 15.95  L 17.837499999999995 16.9  C 15.774999999999995 16.9  14.924999999999995 18.825  14.887499999999996 18.9  C 15.737499999999995 18.9  15.462499999999995 17.95  18.637499999999996 17.362499999999997  Z " stroke-width="0" stroke-dasharray="0" stroke="rgba(255, 255, 255, 0)" fill="none" class="stroke" mask="url(#Clip1003)" />
    <path d="M 19.974999999999994 17.449999999999996  C 20.074999999999996 16.199999999999996  20.137499999999996 15.099999999999996  20.362499999999997 14.199999999999998  C 20.512499999999996 13.249999999999998  20.787499999999998 12.574999999999998  21.162499999999998 12.049999999999997  C 21.8375 11.249999999999998  22.487499999999997 10.7875  23.162499999999998 10.575  C 23.687499999999996 10.362499999999999  24.049999999999997 10.725  24.42499999999999 11.737499999999997  C 24.73663104994914 12.761070911375205  24.86361086284744 13.83193400015088  24.799999999999997 14.899999999999997  C 24.737499999999997 16.062499999999996  24.374999999999996 17.049999999999997  23.749999999999996 17.787499999999998  C 23.387499999999996 18.2125  23.074999999999996 18.525  22.949999999999996 18.737499999999997  C 22.478620584239113 18.78504463301099  22.002837958351897 18.76399230443191  21.537499999999994 18.674999999999997  L 20.649999999999995 18.249999999999996  L 19.974999999999994 17.449999999999996  Z " stroke-width="0" stroke-dasharray="0" stroke="rgba(255, 255, 255, 0)" fill="none" class="stroke" mask="url(#Clip1003)" />
    <path d="M 25.224999999999994 22.025000000000006  L 25.612499999999997 21.2125  C 21.262499999999996 23.0125  21.275 22.9625  21.099999999999998 23  C 18.499999999999996 23.5875  18.724999999999998 19.95  18.737499999999997 19.9  L 19.474999999999998 19.75  L 19.412499999999998 19.4375  C 16.8875 19.1125  15.537499999999998 19.9625  15.349999999999998 20.05  C 15.412499999999998 20.1125  15.724999999999998 20.475  16.0875 21.212500000000002  C 16.612499999999997 20.4125  17.1875 19.950000000000003  17.987499999999997 19.887500000000003  C 17.77081703528851 21.29149080501613  17.84312764244592 22.724942252783617  18.199999999999996 24.1  C 18.212499999999995 24.1625  18.524999999999995 26.275000000000002  21.637499999999996 27.1125  C 23.049999999999997 27.4875  25.012499999999996 27.2625  27.749999999999996 26.4375  L 26.599999999999998 26.5  C 26.075 24.65  25.799999999999997 23.400000000000002  25.862499999999997 22.812500000000004  C 27.275 21.712500000000002  28.599999999999998 21.400000000000002  29.699999999999996 21.862500000000004  L 30.012499999999996 21.862500000000004  L 28.537499999999994 20.912500000000005  L 27.649999999999995 20.975000000000005  C 26.912499999999994 21.125000000000004  26.112499999999994 21.500000000000004  25.224999999999994 22.025000000000006  Z " stroke-width="0" stroke-dasharray="0" stroke="rgba(255, 255, 255, 0)" fill="none" class="stroke" mask="url(#Clip1003)" />
  </g>
</svg>