<?xml version="1.0" encoding="utf-8"?>
<svg version="1.1" xmlns:xlink="http://www.w3.org/1999/xlink" width="28px" height="26px" xmlns="http://www.w3.org/2000/svg">
  <defs>
    <pattern id="BGPattern" patternUnits="userSpaceOnUse" alignment="0 0" imageRepeat="None" />
    <mask fill="white" id="Clip3453">
      <path d="M 28 2  C 28 0.8954305003384135  27.104569499661586 0  26 0  L 2 0  C 0.895430500338413 0  0 0.8954305003384135  0 2  L 0 6  C 0 7.1045694996615865  0.895430500338413 8  2 8  L 2 24  C 2 25.104569499661586  2.8954305003384135 26  4 26  L 24 26  C 25.104569499661586 26  26 25.104569499661586  26 24  L 26 8  C 27.104569499661586 8  28 7.1045694996615865  28 6  L 28 2  Z M 24 8  L 24 24  L 4 24  L 4 8  L 24 8  Z M 26 2  L 26 6  L 2 6  L 2 2  L 26 2  Z " fill-rule="evenodd" />
    </mask>
  </defs>
  <g transform="matrix(1 0 0 1 -2 -4 )">
    <path d="M 28 2  C 28 0.8954305003384135  27.104569499661586 0  26 0  L 2 0  C 0.895430500338413 0  0 0.8954305003384135  0 2  L 0 6  C 0 7.1045694996615865  0.895430500338413 8  2 8  L 2 24  C 2 25.104569499661586  2.8954305003384135 26  4 26  L 24 26  C 25.104569499661586 26  26 25.104569499661586  26 24  L 26 8  C 27.104569499661586 8  28 7.1045694996615865  28 6  L 28 2  Z M 24 8  L 24 24  L 4 24  L 4 8  L 24 8  Z M 26 2  L 26 6  L 2 6  L 2 2  L 26 2  Z " fill-rule="nonzero" fill="rgba(0, 0, 0, 1)" stroke="none" transform="matrix(1 0 0 1 2 4 )" class="fill" />
    <path d="M 28 2  C 28 0.8954305003384135  27.104569499661586 0  26 0  L 2 0  C 0.895430500338413 0  0 0.8954305003384135  0 2  L 0 6  C 0 7.1045694996615865  0.895430500338413 8  2 8  L 2 24  C 2 25.104569499661586  2.8954305003384135 26  4 26  L 24 26  C 25.104569499661586 26  26 25.104569499661586  26 24  L 26 8  C 27.104569499661586 8  28 7.1045694996615865  28 6  L 28 2  Z " stroke-width="0" stroke-dasharray="0" stroke="rgba(255, 255, 255, 0)" fill="none" transform="matrix(1 0 0 1 2 4 )" class="stroke" mask="url(#Clip3453)" />
    <path d="M 24 8  L 24 24  L 4 24  L 4 8  L 24 8  Z " stroke-width="0" stroke-dasharray="0" stroke="rgba(255, 255, 255, 0)" fill="none" transform="matrix(1 0 0 1 2 4 )" class="stroke" mask="url(#Clip3453)" />
    <path d="M 26 2  L 26 6  L 2 6  L 2 2  L 26 2  Z " stroke-width="0" stroke-dasharray="0" stroke="rgba(255, 255, 255, 0)" fill="none" transform="matrix(1 0 0 1 2 4 )" class="stroke" mask="url(#Clip3453)" />
  </g>
</svg>