<?xml version="1.0" encoding="utf-8"?>
<svg version="1.1" xmlns:xlink="http://www.w3.org/1999/xlink" width="43px" height="50px" xmlns="http://www.w3.org/2000/svg">
  <defs>
    <pattern id="BGPattern" patternUnits="userSpaceOnUse" alignment="0 0" imageRepeat="None" />
    <mask fill="white" id="Clip650">
      <path d="M 42.03683035714283 36.67410714285714  C 34.76004464285711 33.24776785714286  35.15066964285711 26.629464285714278  35.15066964285711 26.417410714285722  C 35.128348214285694 22.321428571428584  36.98102678571425 19.229910714285722  40.73102678571428 16.953125  C 38.63281249999997 13.950892857142861  35.46316964285711 12.299107142857139  31.277901785714278 11.975446428571416  C 27.315848214285694 11.662946428571416  22.985491071428555 14.285714285714276  21.40066964285714 14.285714285714276  C 19.7265625 14.285714285714276  15.887276785714278 12.087053571428555  12.873883928571416 12.087053571428555  C 6.646205357142862 12.1875  0.027901785714277594 17.053571428571445  0.027901785714277594 26.953125  C 0.027901785714277594 29.877232142857142  0.5636160714285836 32.90178571428572  1.6350446428571388 36.015625  C 3.0636160714285836 40.11160714285714  8.219866071428555 50.15625  13.599330357142861 49.98883928571428  C 16.41183035714286 49.921875  18.3984375 47.991071428571445  22.059151785714278 47.991071428571445  C 25.608258928571416 47.991071428571445  27.449776785714278 49.98883928571428  30.5859375 49.98883928571428  C 36.01004464285711 49.91071428571428  40.675223214285694 40.78125  42.03683035714283 36.67410714285714  Z M 21.077008928571416 11.919642857142861  C 23.98995535714283 12.142857142857139  26.646205357142833 10.647321428571416  28.833705357142833 8.091517857142861  C 31.880580357142833 4.475446428571416  31.60156249999997 1.1830357142857224  31.512276785714278 0  C 28.82254464285711 0.15625  25.708705357142833 1.8303571428571388  23.934151785714278 3.8950892857142776  C 21.981026785714278 6.104910714285722  20.831473214285694 8.839285714285722  21.077008928571416 11.919642857142861  Z " fill-rule="evenodd" />
    </mask>
  </defs>
  <g>
    <path d="M 42.03683035714283 36.67410714285714  C 34.76004464285711 33.24776785714286  35.15066964285711 26.629464285714278  35.15066964285711 26.417410714285722  C 35.128348214285694 22.321428571428584  36.98102678571425 19.229910714285722  40.73102678571428 16.953125  C 38.63281249999997 13.950892857142861  35.46316964285711 12.299107142857139  31.277901785714278 11.975446428571416  C 27.315848214285694 11.662946428571416  22.985491071428555 14.285714285714276  21.40066964285714 14.285714285714276  C 19.7265625 14.285714285714276  15.887276785714278 12.087053571428555  12.873883928571416 12.087053571428555  C 6.646205357142862 12.1875  0.027901785714277594 17.053571428571445  0.027901785714277594 26.953125  C 0.027901785714277594 29.877232142857142  0.5636160714285836 32.90178571428572  1.6350446428571388 36.015625  C 3.0636160714285836 40.11160714285714  8.219866071428555 50.15625  13.599330357142861 49.98883928571428  C 16.41183035714286 49.921875  18.3984375 47.991071428571445  22.059151785714278 47.991071428571445  C 25.608258928571416 47.991071428571445  27.449776785714278 49.98883928571428  30.5859375 49.98883928571428  C 36.01004464285711 49.91071428571428  40.675223214285694 40.78125  42.03683035714283 36.67410714285714  Z M 21.077008928571416 11.919642857142861  C 23.98995535714283 12.142857142857139  26.646205357142833 10.647321428571416  28.833705357142833 8.091517857142861  C 31.880580357142833 4.475446428571416  31.60156249999997 1.1830357142857224  31.512276785714278 0  C 28.82254464285711 0.15625  25.708705357142833 1.8303571428571388  23.934151785714278 3.8950892857142776  C 21.981026785714278 6.104910714285722  20.831473214285694 8.839285714285722  21.077008928571416 11.919642857142861  Z " fill-rule="nonzero" fill="rgba(0, 0, 0, 1)" stroke="none" class="fill" />
    <path d="M 42.03683035714283 36.67410714285714  C 34.76004464285711 33.24776785714286  35.15066964285711 26.629464285714278  35.15066964285711 26.417410714285722  C 35.128348214285694 22.321428571428584  36.98102678571425 19.229910714285722  40.73102678571428 16.953125  C 38.63281249999997 13.950892857142861  35.46316964285711 12.299107142857139  31.277901785714278 11.975446428571416  C 27.315848214285694 11.662946428571416  22.985491071428555 14.285714285714276  21.40066964285714 14.285714285714276  C 19.7265625 14.285714285714276  15.887276785714278 12.087053571428555  12.873883928571416 12.087053571428555  C 6.646205357142862 12.1875  0.027901785714277594 17.053571428571445  0.027901785714277594 26.953125  C 0.027901785714277594 29.877232142857142  0.5636160714285836 32.90178571428572  1.6350446428571388 36.015625  C 3.0636160714285836 40.11160714285714  8.219866071428555 50.15625  13.599330357142861 49.98883928571428  C 16.41183035714286 49.921875  18.3984375 47.991071428571445  22.059151785714278 47.991071428571445  C 25.608258928571416 47.991071428571445  27.449776785714278 49.98883928571428  30.5859375 49.98883928571428  C 36.01004464285711 49.91071428571428  40.675223214285694 40.78125  42.03683035714283 36.67410714285714  Z " stroke-width="0" stroke-dasharray="0" stroke="rgba(255, 255, 255, 0)" fill="none" class="stroke" mask="url(#Clip650)" />
    <path d="M 21.077008928571416 11.919642857142861  C 23.98995535714283 12.142857142857139  26.646205357142833 10.647321428571416  28.833705357142833 8.091517857142861  C 31.880580357142833 4.475446428571416  31.60156249999997 1.1830357142857224  31.512276785714278 0  C 28.82254464285711 0.15625  25.708705357142833 1.8303571428571388  23.934151785714278 3.8950892857142776  C 21.981026785714278 6.104910714285722  20.831473214285694 8.839285714285722  21.077008928571416 11.919642857142861  Z " stroke-width="0" stroke-dasharray="0" stroke="rgba(255, 255, 255, 0)" fill="none" class="stroke" mask="url(#Clip650)" />
  </g>
</svg>