<?xml version="1.0" encoding="utf-8"?>
<svg version="1.1" xmlns:xlink="http://www.w3.org/1999/xlink" width="22px" height="28px" xmlns="http://www.w3.org/2000/svg">
  <defs>
    <pattern id="BGPattern" patternUnits="userSpaceOnUse" alignment="0 0" imageRepeat="None" />
    <mask fill="white" id="Clip4315">
      <path d="M 22 26  C 21.998512673471637 27.10395284193222  21.10395284193222 27.998512673471637  20 28  L 2 28  C 0.89595592794491 27.998732534440702  0.0012674655592963546 27.10404407205509  0 26  L 0 2  C 0.001102459659342081 0.8958874765007722  0.8958874765007723 0.001102459659342081  2 0  L 20 0  C 21.104044072055093 0.0012674655592963546  21.998732534440702 0.8959559279449092  22 2  L 22 26  Z M 20 2  L 2 2  L 2 26  L 20 26  L 20 2  Z " fill-rule="evenodd" />
    </mask>
  </defs>
  <g transform="matrix(1 0 0 1 -5 -2 )">
    <path d="M 22 26  C 21.998512673471637 27.10395284193222  21.10395284193222 27.998512673471637  20 28  L 2 28  C 0.89595592794491 27.998732534440702  0.0012674655592963546 27.10404407205509  0 26  L 0 2  C 0.001102459659342081 0.8958874765007722  0.8958874765007723 0.001102459659342081  2 0  L 20 0  C 21.104044072055093 0.0012674655592963546  21.998732534440702 0.8959559279449092  22 2  L 22 26  Z M 20 2  L 2 2  L 2 26  L 20 26  L 20 2  Z " fill-rule="nonzero" fill="rgba(0, 0, 0, 1)" stroke="none" transform="matrix(1 0 0 1 5 2 )" class="fill" />
    <path d="M 22 26  C 21.998512673471637 27.10395284193222  21.10395284193222 27.998512673471637  20 28  L 2 28  C 0.89595592794491 27.998732534440702  0.0012674655592963546 27.10404407205509  0 26  L 0 2  C 0.001102459659342081 0.8958874765007722  0.8958874765007723 0.001102459659342081  2 0  L 20 0  C 21.104044072055093 0.0012674655592963546  21.998732534440702 0.8959559279449092  22 2  L 22 26  Z " stroke-width="0" stroke-dasharray="0" stroke="rgba(255, 255, 255, 0)" fill="none" transform="matrix(1 0 0 1 5 2 )" class="stroke" mask="url(#Clip4315)" />
    <path d="M 20 2  L 2 2  L 2 26  L 20 26  L 20 2  Z " stroke-width="0" stroke-dasharray="0" stroke="rgba(255, 255, 255, 0)" fill="none" transform="matrix(1 0 0 1 5 2 )" class="stroke" mask="url(#Clip4315)" />
  </g>
</svg>