<?xml version="1.0" encoding="utf-8"?>
<svg version="1.1" xmlns:xlink="http://www.w3.org/1999/xlink" width="50px" height="44px" xmlns="http://www.w3.org/2000/svg">
  <defs>
    <pattern id="BGPattern" patternUnits="userSpaceOnUse" alignment="0 0" imageRepeat="None" />
    <mask fill="white" id="Clip1932">
      <path d="M 28 28.125  C 28.125 16.044921875  18.330078125 6.250000000000001  6.25 6.250000000000001  L 0 6.250000000000001  C 0 18.330078125  9.794921875 28.125  22 28.125  L 22 42.1875  C 21.875 43.046875  22.578125 43.75  23.4375 43.75  L 26.5625 43.75  C 27.421875 43.75  28.125 43.046875  28 42.1875  L 28 28.125  Z M 50 0  L 43.75 0  C 35.52734375 0  28.378906250000004 4.541015625  24.638671875 11.25  C 27.34375 14.19921875  29.345703125 17.783203125  30.400390625 21.7578125  C 41.40625 20.615234375  50 11.318359375000002  50 0  Z " fill-rule="evenodd" />
    </mask>
  </defs>
  <g>
    <path d="M 28 28.125  C 28.125 16.044921875  18.330078125 6.250000000000001  6.25 6.250000000000001  L 0 6.250000000000001  C 0 18.330078125  9.794921875 28.125  22 28.125  L 22 42.1875  C 21.875 43.046875  22.578125 43.75  23.4375 43.75  L 26.5625 43.75  C 27.421875 43.75  28.125 43.046875  28 42.1875  L 28 28.125  Z M 50 0  L 43.75 0  C 35.52734375 0  28.378906250000004 4.541015625  24.638671875 11.25  C 27.34375 14.19921875  29.345703125 17.783203125  30.400390625 21.7578125  C 41.40625 20.615234375  50 11.318359375000002  50 0  Z " fill-rule="nonzero" fill="rgba(0, 0, 0, 1)" stroke="none" class="fill" />
    <path d="M 28 28.125  C 28.125 16.044921875  18.330078125 6.250000000000001  6.25 6.250000000000001  L 0 6.250000000000001  C 0 18.330078125  9.794921875 28.125  22 28.125  L 22 42.1875  C 21.875 43.046875  22.578125 43.75  23.4375 43.75  L 26.5625 43.75  C 27.421875 43.75  28.125 43.046875  28 42.1875  L 28 28.125  Z " stroke-width="0" stroke-dasharray="0" stroke="rgba(255, 255, 255, 0)" fill="none" class="stroke" mask="url(#Clip1932)" />
    <path d="M 50 0  L 43.75 0  C 35.52734375 0  28.378906250000004 4.541015625  24.638671875 11.25  C 27.34375 14.19921875  29.345703125 17.783203125  30.400390625 21.7578125  C 41.40625 20.615234375  50 11.318359375000002  50 0  Z " stroke-width="0" stroke-dasharray="0" stroke="rgba(255, 255, 255, 0)" fill="none" class="stroke" mask="url(#Clip1932)" />
  </g>
</svg>