<?xml version="1.0" encoding="utf-8"?>
<svg version="1.1" xmlns:xlink="http://www.w3.org/1999/xlink" width="38px" height="50px" xmlns="http://www.w3.org/2000/svg">
  <defs>
    <pattern id="BGPattern" patternUnits="userSpaceOnUse" alignment="0 0" imageRepeat="None" />
    <mask fill="white" id="Clip1115">
      <path d="M 37 12.879101562500011  C 37.499993499253776 11.635901754111103  37.00612904651922 10.443622545756028  36.127050781250006 9.564550781250006  L 27.935449218749994 1.3729492187499943  C 27.05637745424397 0.4938709534807799  25.864098245888897 0  24.62089843749999 0  L 4.6875 0  C 2.0986328125 0  0 2.0986328125  0 4.6875  L 0 45.3125  C 0 47.9013671875  2.0986328125 50  4.6875 50  L 32.8125 50  C 35.4013671875 50  37.5 47.9013671875  37 45.3125  L 37 12.879101562500011  Z M 25 12.5  L 25 5.066601562500011  L 32.43339843749999 12.5  L 25 12.5  Z M 32.8125 18  L 32.8125 45  L 5 45  L 5 4.6875  L 12.472070312499994 4.6875  L 12.472070312499994 6.25  L 15.597070312499994 6.25  L 15.597070312499994 4.6875  L 20 4.6875  L 20 14.84375  C 20.3125 16.13818359375  21.361816406250004 17.1875  22.65625 18  L 32.8125 18  Z M 18.7763671875 6.25  L 18.7763671875 9.375  L 15.6513671875 9.375  L 15.6513671875 6.25  L 18.7763671875 6.25  Z M 12.526367187499998 9.375  L 15.6513671875 9.375  L 15.6513671875 12.5  L 12.526367187499998 12.5  L 12.526367187499998 9.375  Z M 12.526367187499998 15.625  L 15.6513671875 15.625  L 15.6513671875 18.75  L 12.526367187499998 18.75  L 12.526367187499998 15.625  Z M 18.7763671875 12.5  L 18.7763671875 15.625  L 15.6513671875 15.625  L 15.6513671875 12.5  L 18.7763671875 12.5  Z M 20.651953125000006 34.509765625  L 18.962792968749994 25.94511718749999  C 18.854475840553107 25.395918405252644  18.372864378128853 25.00000948370825  17.813085937500006 25  L 15.6513671875 25  L 15.6513671875 21.875  L 12.526367187499998 21.875  L 12.526367187499998 25  L 10.603515625 34.483007812500006  C 9.959863281249994 37.657324218750006  12.386132812499994 40.625  15.624999999999998 40.625  C 18.852734374999997 40.625  21.276464843750002 37.67656249999999  20.651953125000006 34.509765625  Z M 18.819726562499994 35.45283203125001  C 18.819726562499994 36.91093749999999  17.401171875000003 38.09306640624999  15.6513671875 38.09306640624999  C 13.901562499999997 38.09306640624999  12.483007812500006 36.91093749999999  12.483007812500006 35.45283203125001  C 12.483007812500006 33.99462890625  13.901464843750006 32.812597656250006  15.6513671875 32.812597656250006  C 17.401269531249994 32.812597656250006  18.819726562499994 33.994726562500006  18.819726562499994 35.45283203125001  Z M 18.7763671875 18.75  L 18.7763671875 21.875  L 15.6513671875 21.875  L 15.6513671875 18.75  L 18.7763671875 18.75  Z " fill-rule="evenodd" />
    </mask>
  </defs>
  <g>
    <path d="M 37 12.879101562500011  C 37.499993499253776 11.635901754111103  37.00612904651922 10.443622545756028  36.127050781250006 9.564550781250006  L 27.935449218749994 1.3729492187499943  C 27.05637745424397 0.4938709534807799  25.864098245888897 0  24.62089843749999 0  L 4.6875 0  C 2.0986328125 0  0 2.0986328125  0 4.6875  L 0 45.3125  C 0 47.9013671875  2.0986328125 50  4.6875 50  L 32.8125 50  C 35.4013671875 50  37.5 47.9013671875  37 45.3125  L 37 12.879101562500011  Z M 25 12.5  L 25 5.066601562500011  L 32.43339843749999 12.5  L 25 12.5  Z M 32.8125 18  L 32.8125 45  L 5 45  L 5 4.6875  L 12.472070312499994 4.6875  L 12.472070312499994 6.25  L 15.597070312499994 6.25  L 15.597070312499994 4.6875  L 20 4.6875  L 20 14.84375  C 20.3125 16.13818359375  21.361816406250004 17.1875  22.65625 18  L 32.8125 18  Z M 18.7763671875 6.25  L 18.7763671875 9.375  L 15.6513671875 9.375  L 15.6513671875 6.25  L 18.7763671875 6.25  Z M 12.526367187499998 9.375  L 15.6513671875 9.375  L 15.6513671875 12.5  L 12.526367187499998 12.5  L 12.526367187499998 9.375  Z M 12.526367187499998 15.625  L 15.6513671875 15.625  L 15.6513671875 18.75  L 12.526367187499998 18.75  L 12.526367187499998 15.625  Z M 18.7763671875 12.5  L 18.7763671875 15.625  L 15.6513671875 15.625  L 15.6513671875 12.5  L 18.7763671875 12.5  Z M 20.651953125000006 34.509765625  L 18.962792968749994 25.94511718749999  C 18.854475840553107 25.395918405252644  18.372864378128853 25.00000948370825  17.813085937500006 25  L 15.6513671875 25  L 15.6513671875 21.875  L 12.526367187499998 21.875  L 12.526367187499998 25  L 10.603515625 34.483007812500006  C 9.959863281249994 37.657324218750006  12.386132812499994 40.625  15.624999999999998 40.625  C 18.852734374999997 40.625  21.276464843750002 37.67656249999999  20.651953125000006 34.509765625  Z M 18.819726562499994 35.45283203125001  C 18.819726562499994 36.91093749999999  17.401171875000003 38.09306640624999  15.6513671875 38.09306640624999  C 13.901562499999997 38.09306640624999  12.483007812500006 36.91093749999999  12.483007812500006 35.45283203125001  C 12.483007812500006 33.99462890625  13.901464843750006 32.812597656250006  15.6513671875 32.812597656250006  C 17.401269531249994 32.812597656250006  18.819726562499994 33.994726562500006  18.819726562499994 35.45283203125001  Z M 18.7763671875 18.75  L 18.7763671875 21.875  L 15.6513671875 21.875  L 15.6513671875 18.75  L 18.7763671875 18.75  Z " fill-rule="nonzero" fill="rgba(0, 0, 0, 1)" stroke="none" class="fill" />
    <path d="M 37 12.879101562500011  C 37.499993499253776 11.635901754111103  37.00612904651922 10.443622545756028  36.127050781250006 9.564550781250006  L 27.935449218749994 1.3729492187499943  C 27.05637745424397 0.4938709534807799  25.864098245888897 0  24.62089843749999 0  L 4.6875 0  C 2.0986328125 0  0 2.0986328125  0 4.6875  L 0 45.3125  C 0 47.9013671875  2.0986328125 50  4.6875 50  L 32.8125 50  C 35.4013671875 50  37.5 47.9013671875  37 45.3125  L 37 12.879101562500011  Z " stroke-width="0" stroke-dasharray="0" stroke="rgba(255, 255, 255, 0)" fill="none" class="stroke" mask="url(#Clip1115)" />
    <path d="M 25 12.5  L 25 5.066601562500011  L 32.43339843749999 12.5  L 25 12.5  Z " stroke-width="0" stroke-dasharray="0" stroke="rgba(255, 255, 255, 0)" fill="none" class="stroke" mask="url(#Clip1115)" />
    <path d="M 32.8125 18  L 32.8125 45  L 5 45  L 5 4.6875  L 12.472070312499994 4.6875  L 12.472070312499994 6.25  L 15.597070312499994 6.25  L 15.597070312499994 4.6875  L 20 4.6875  L 20 14.84375  C 20.3125 16.13818359375  21.361816406250004 17.1875  22.65625 18  L 32.8125 18  Z " stroke-width="0" stroke-dasharray="0" stroke="rgba(255, 255, 255, 0)" fill="none" class="stroke" mask="url(#Clip1115)" />
    <path d="M 18.7763671875 6.25  L 18.7763671875 9.375  L 15.6513671875 9.375  L 15.6513671875 6.25  L 18.7763671875 6.25  Z " stroke-width="0" stroke-dasharray="0" stroke="rgba(255, 255, 255, 0)" fill="none" class="stroke" mask="url(#Clip1115)" />
    <path d="M 12.526367187499998 9.375  L 15.6513671875 9.375  L 15.6513671875 12.5  L 12.526367187499998 12.5  L 12.526367187499998 9.375  Z " stroke-width="0" stroke-dasharray="0" stroke="rgba(255, 255, 255, 0)" fill="none" class="stroke" mask="url(#Clip1115)" />
    <path d="M 12.526367187499998 15.625  L 15.6513671875 15.625  L 15.6513671875 18.75  L 12.526367187499998 18.75  L 12.526367187499998 15.625  Z " stroke-width="0" stroke-dasharray="0" stroke="rgba(255, 255, 255, 0)" fill="none" class="stroke" mask="url(#Clip1115)" />
    <path d="M 18.7763671875 12.5  L 18.7763671875 15.625  L 15.6513671875 15.625  L 15.6513671875 12.5  L 18.7763671875 12.5  Z " stroke-width="0" stroke-dasharray="0" stroke="rgba(255, 255, 255, 0)" fill="none" class="stroke" mask="url(#Clip1115)" />
    <path d="M 20.651953125000006 34.509765625  L 18.962792968749994 25.94511718749999  C 18.854475840553107 25.395918405252644  18.372864378128853 25.00000948370825  17.813085937500006 25  L 15.6513671875 25  L 15.6513671875 21.875  L 12.526367187499998 21.875  L 12.526367187499998 25  L 10.603515625 34.483007812500006  C 9.959863281249994 37.657324218750006  12.386132812499994 40.625  15.624999999999998 40.625  C 18.852734374999997 40.625  21.276464843750002 37.67656249999999  20.651953125000006 34.509765625  Z " stroke-width="0" stroke-dasharray="0" stroke="rgba(255, 255, 255, 0)" fill="none" class="stroke" mask="url(#Clip1115)" />
    <path d="M 18.819726562499994 35.45283203125001  C 18.819726562499994 36.91093749999999  17.401171875000003 38.09306640624999  15.6513671875 38.09306640624999  C 13.901562499999997 38.09306640624999  12.483007812500006 36.91093749999999  12.483007812500006 35.45283203125001  C 12.483007812500006 33.99462890625  13.901464843750006 32.812597656250006  15.6513671875 32.812597656250006  C 17.401269531249994 32.812597656250006  18.819726562499994 33.994726562500006  18.819726562499994 35.45283203125001  Z " stroke-width="0" stroke-dasharray="0" stroke="rgba(255, 255, 255, 0)" fill="none" class="stroke" mask="url(#Clip1115)" />
    <path d="M 18.7763671875 18.75  L 18.7763671875 21.875  L 15.6513671875 21.875  L 15.6513671875 18.75  L 18.7763671875 18.75  Z " stroke-width="0" stroke-dasharray="0" stroke="rgba(255, 255, 255, 0)" fill="none" class="stroke" mask="url(#Clip1115)" />
  </g>
</svg>