<?xml version="1.0" encoding="utf-8"?>
<svg version="1.1" xmlns:xlink="http://www.w3.org/1999/xlink" width="28px" height="18px" xmlns="http://www.w3.org/2000/svg">
  <defs>
    <pattern id="BGPattern" patternUnits="userSpaceOnUse" alignment="0 0" imageRepeat="None" />
    <mask fill="white" id="Clip3919">
      <path d="M 28 16  C 28 17.104569499661586  27.104569499661586 18  26 18  L 2 18  C 0.895430500338413 18  0 17.104569499661586  0 16  L 0 2  C 0 0.8954305003384135  0.895430500338413 0  2 0  L 26 0  C 27.104569499661586 0  28 0.8954305003384135  28 2  L 28 16  Z M 26 2  L 2 2  L 2 16  L 26 16  L 26 2  Z " fill-rule="evenodd" />
    </mask>
  </defs>
  <g transform="matrix(1 0 0 1 -2 -8 )">
    <path d="M 28 16  C 28 17.104569499661586  27.104569499661586 18  26 18  L 2 18  C 0.895430500338413 18  0 17.104569499661586  0 16  L 0 2  C 0 0.8954305003384135  0.895430500338413 0  2 0  L 26 0  C 27.104569499661586 0  28 0.8954305003384135  28 2  L 28 16  Z M 26 2  L 2 2  L 2 16  L 26 16  L 26 2  Z " fill-rule="nonzero" fill="rgba(0, 0, 0, 1)" stroke="none" transform="matrix(1 0 0 1 2 8 )" class="fill" />
    <path d="M 28 16  C 28 17.104569499661586  27.104569499661586 18  26 18  L 2 18  C 0.895430500338413 18  0 17.104569499661586  0 16  L 0 2  C 0 0.8954305003384135  0.895430500338413 0  2 0  L 26 0  C 27.104569499661586 0  28 0.8954305003384135  28 2  L 28 16  Z " stroke-width="0" stroke-dasharray="0" stroke="rgba(255, 255, 255, 0)" fill="none" transform="matrix(1 0 0 1 2 8 )" class="stroke" mask="url(#Clip3919)" />
    <path d="M 26 2  L 2 2  L 2 16  L 26 16  L 26 2  Z " stroke-width="0" stroke-dasharray="0" stroke="rgba(255, 255, 255, 0)" fill="none" transform="matrix(1 0 0 1 2 8 )" class="stroke" mask="url(#Clip3919)" />
  </g>
</svg>