<?xml version="1.0" encoding="utf-8"?>
<svg version="1.1" xmlns:xlink="http://www.w3.org/1999/xlink" width="50px" height="45px" xmlns="http://www.w3.org/2000/svg">
  <defs>
    <pattern id="BGPattern" patternUnits="userSpaceOnUse" alignment="0 0" imageRepeat="None" />
    <mask fill="white" id="Clip1108">
      <path d="M 34.72222222222223 30.512152777777768  C 34.72222222222223 30.32986111111111  34.79166666666666 30.156249999999996  34.921875 30.026041666666657  L 37.69965277777777 27.248263888888886  C 38.13368055555556 26.81423611111111  38.888888888888886 27.118055555555557  38 27.743055555555557  L 38 40.36458333333334  C 38.888888888888886 42.66493055555554  37.02256944444444 44.53125  34.72222222222223 44  L 4.166666666666671 44  C 1.866319444444443 44.53125  0 42.66493055555554  0 40.36458333333334  L 0 9.809027777777771  C 0 7.508680555555557  1.866319444444443 5.642361111111113  4.166666666666671 6  L 27.907986111111114 6  C 28.524305555555557 5.642361111111113  28.836805555555557 6.388888888888886  28.40277777777777 6.8315972222222285  L 25.624999999999996 9.609375  C 25.49479166666667 9.739583333333329  25.321180555555557 9.809027777777771  25.130208333333325 10  L 5 10  L 5 40  L 34.72222222222223 40  L 34.72222222222223 30.512152777777768  Z M 48.50694444444446 5.321180555555557  C 50.494791666666686 7.3090277777777715  50.494791666666686 10.529513888888886  48.515625 12.508680555555557  L 25.720486111111114 35.30381944444446  L 17.873263888888886 36.171875  C 15.598958333333343 36.423611111111114  13.663194444444443 34.50520833333334  13.914930555555557 32.21354166666666  L 14.782986111111116 24.36631944444444  L 37.578125 1.5711805555555571  C 39.565972222222214 -0.4166666666666714  42.77777777777777 -0.4166666666666714  44.75694444444446 1.5711805555555571  L 48.50694444444446 5.321180555555557  Z M 23.80208333333333 31.319444444444457  L 39.939236111111114 15.190972222222229  L 34.89583333333333 10.147569444444443  L 18.767361111111114 26.284722222222225  L 18.133680555555557 31.953125  L 23.80208333333333 31.319444444444457  Z M 45.572916666666686 9.565972222222229  C 45.920138888888886 9.201388888888886  45.920138888888886 8.628472222222229  45.564236111111114 8.272569444444443  L 41.814236111111114 4.522569444444443  C 41.458333333333314 4.166666666666671  40.876736111111114 4.166666666666671  40.529513888888886 4.522569444444443  L 37.84722222222223 7.204861111111114  L 42.890625 12.248263888888886  L 45.572916666666686 9.565972222222229  Z " fill-rule="evenodd" />
    </mask>
  </defs>
  <g>
    <path d="M 34.72222222222223 30.512152777777768  C 34.72222222222223 30.32986111111111  34.79166666666666 30.156249999999996  34.921875 30.026041666666657  L 37.69965277777777 27.248263888888886  C 38.13368055555556 26.81423611111111  38.888888888888886 27.118055555555557  38 27.743055555555557  L 38 40.36458333333334  C 38.888888888888886 42.66493055555554  37.02256944444444 44.53125  34.72222222222223 44  L 4.166666666666671 44  C 1.866319444444443 44.53125  0 42.66493055555554  0 40.36458333333334  L 0 9.809027777777771  C 0 7.508680555555557  1.866319444444443 5.642361111111113  4.166666666666671 6  L 27.907986111111114 6  C 28.524305555555557 5.642361111111113  28.836805555555557 6.388888888888886  28.40277777777777 6.8315972222222285  L 25.624999999999996 9.609375  C 25.49479166666667 9.739583333333329  25.321180555555557 9.809027777777771  25.130208333333325 10  L 5 10  L 5 40  L 34.72222222222223 40  L 34.72222222222223 30.512152777777768  Z M 48.50694444444446 5.321180555555557  C 50.494791666666686 7.3090277777777715  50.494791666666686 10.529513888888886  48.515625 12.508680555555557  L 25.720486111111114 35.30381944444446  L 17.873263888888886 36.171875  C 15.598958333333343 36.423611111111114  13.663194444444443 34.50520833333334  13.914930555555557 32.21354166666666  L 14.782986111111116 24.36631944444444  L 37.578125 1.5711805555555571  C 39.565972222222214 -0.4166666666666714  42.77777777777777 -0.4166666666666714  44.75694444444446 1.5711805555555571  L 48.50694444444446 5.321180555555557  Z M 23.80208333333333 31.319444444444457  L 39.939236111111114 15.190972222222229  L 34.89583333333333 10.147569444444443  L 18.767361111111114 26.284722222222225  L 18.133680555555557 31.953125  L 23.80208333333333 31.319444444444457  Z M 45.572916666666686 9.565972222222229  C 45.920138888888886 9.201388888888886  45.920138888888886 8.628472222222229  45.564236111111114 8.272569444444443  L 41.814236111111114 4.522569444444443  C 41.458333333333314 4.166666666666671  40.876736111111114 4.166666666666671  40.529513888888886 4.522569444444443  L 37.84722222222223 7.204861111111114  L 42.890625 12.248263888888886  L 45.572916666666686 9.565972222222229  Z " fill-rule="nonzero" fill="rgba(0, 0, 0, 1)" stroke="none" class="fill" />
    <path d="M 34.72222222222223 30.512152777777768  C 34.72222222222223 30.32986111111111  34.79166666666666 30.156249999999996  34.921875 30.026041666666657  L 37.69965277777777 27.248263888888886  C 38.13368055555556 26.81423611111111  38.888888888888886 27.118055555555557  38 27.743055555555557  L 38 40.36458333333334  C 38.888888888888886 42.66493055555554  37.02256944444444 44.53125  34.72222222222223 44  L 4.166666666666671 44  C 1.866319444444443 44.53125  0 42.66493055555554  0 40.36458333333334  L 0 9.809027777777771  C 0 7.508680555555557  1.866319444444443 5.642361111111113  4.166666666666671 6  L 27.907986111111114 6  C 28.524305555555557 5.642361111111113  28.836805555555557 6.388888888888886  28.40277777777777 6.8315972222222285  L 25.624999999999996 9.609375  C 25.49479166666667 9.739583333333329  25.321180555555557 9.809027777777771  25.130208333333325 10  L 5 10  L 5 40  L 34.72222222222223 40  L 34.72222222222223 30.512152777777768  Z " stroke-width="0" stroke-dasharray="0" stroke="rgba(255, 255, 255, 0)" fill="none" class="stroke" mask="url(#Clip1108)" />
    <path d="M 48.50694444444446 5.321180555555557  C 50.494791666666686 7.3090277777777715  50.494791666666686 10.529513888888886  48.515625 12.508680555555557  L 25.720486111111114 35.30381944444446  L 17.873263888888886 36.171875  C 15.598958333333343 36.423611111111114  13.663194444444443 34.50520833333334  13.914930555555557 32.21354166666666  L 14.782986111111116 24.36631944444444  L 37.578125 1.5711805555555571  C 39.565972222222214 -0.4166666666666714  42.77777777777777 -0.4166666666666714  44.75694444444446 1.5711805555555571  L 48.50694444444446 5.321180555555557  Z " stroke-width="0" stroke-dasharray="0" stroke="rgba(255, 255, 255, 0)" fill="none" class="stroke" mask="url(#Clip1108)" />
    <path d="M 23.80208333333333 31.319444444444457  L 39.939236111111114 15.190972222222229  L 34.89583333333333 10.147569444444443  L 18.767361111111114 26.284722222222225  L 18.133680555555557 31.953125  L 23.80208333333333 31.319444444444457  Z " stroke-width="0" stroke-dasharray="0" stroke="rgba(255, 255, 255, 0)" fill="none" class="stroke" mask="url(#Clip1108)" />
    <path d="M 45.572916666666686 9.565972222222229  C 45.920138888888886 9.201388888888886  45.920138888888886 8.628472222222229  45.564236111111114 8.272569444444443  L 41.814236111111114 4.522569444444443  C 41.458333333333314 4.166666666666671  40.876736111111114 4.166666666666671  40.529513888888886 4.522569444444443  L 37.84722222222223 7.204861111111114  L 42.890625 12.248263888888886  L 45.572916666666686 9.565972222222229  Z " stroke-width="0" stroke-dasharray="0" stroke="rgba(255, 255, 255, 0)" fill="none" class="stroke" mask="url(#Clip1108)" />
  </g>
</svg>