<?xml version="1.0" encoding="utf-8"?>
<svg version="1.1" xmlns:xlink="http://www.w3.org/1999/xlink" width="14px" height="18px" xmlns="http://www.w3.org/2000/svg">
  <defs>
    <pattern id="BGPattern" patternUnits="userSpaceOnUse" alignment="0 0" imageRepeat="None" />
    <mask fill="white" id="Clip499">
      <path d="M 11.400000000000006 10.999999999999998  C 11.400000000000006 10.343999999999998  11.944000000000006 9.799999999999999  12.600000000000001 9.8  C 13.256 9.8  13.8 10.344000000000001  13.8 11  C 13.8 14.759999999999998  10.760000000000002 17.8  7 17.8  C 3.2560000000000002 17.8  0.1999999999999993 14.760000000000002  0.1999999999999993 11  C 0.1999999999999993 7.239999999999998  3.2560000000000002 4.199999999999999  7 4.199999999999999  L 8.088000000000001 4.199999999999999  L 6.952000000000002 3.064  C 6.488000000000001 2.5999999999999996  6.472000000000001 1.8479999999999999  6.952000000000002 1.3680000000000003  C 7.448 0.8719999999999999  8.152000000000001 0.8719999999999999  8.648000000000003 1.3680000000000003  L 11.848000000000003 4.552  C 12.088000000000001 4.792  12.200000000000003 5.096  12.200000000000003 5.4  C 12.200000000000003 5.704000000000001  12.120000000000005 5.976000000000001  11.848000000000003 6.248000000000001  L 8.648000000000003 9.448  C 8.136000000000003 9.96  7.384000000000004 9.880000000000003  6.9520000000000035 9.448  C 6.488000000000003 8.984  6.472000000000003 8.232000000000001  6.9520000000000035 7.752000000000001  L 8.104000000000003 6.600000000000001  L 7.0000000000000036 6.600000000000001  C 4.584000000000003 6.600000000000001  2.600000000000003 8.568000000000001  2.600000000000003 11  C 2.600000000000003 13.431999999999999  4.584000000000003 15.399999999999999  7.0000000000000036 15.399999999999999  C 9.432000000000002 15.399999999999999  11.400000000000006 13.431999999999999  11.400000000000006 10.999999999999998  Z " fill-rule="evenodd" />
    </mask>
  </defs>
  <g>
    <path d="M 11.400000000000006 10.999999999999998  C 11.400000000000006 10.343999999999998  11.944000000000006 9.799999999999999  12.600000000000001 9.8  C 13.256 9.8  13.8 10.344000000000001  13.8 11  C 13.8 14.759999999999998  10.760000000000002 17.8  7 17.8  C 3.2560000000000002 17.8  0.1999999999999993 14.760000000000002  0.1999999999999993 11  C 0.1999999999999993 7.239999999999998  3.2560000000000002 4.199999999999999  7 4.199999999999999  L 8.088000000000001 4.199999999999999  L 6.952000000000002 3.064  C 6.488000000000001 2.5999999999999996  6.472000000000001 1.8479999999999999  6.952000000000002 1.3680000000000003  C 7.448 0.8719999999999999  8.152000000000001 0.8719999999999999  8.648000000000003 1.3680000000000003  L 11.848000000000003 4.552  C 12.088000000000001 4.792  12.200000000000003 5.096  12.200000000000003 5.4  C 12.200000000000003 5.704000000000001  12.120000000000005 5.976000000000001  11.848000000000003 6.248000000000001  L 8.648000000000003 9.448  C 8.136000000000003 9.96  7.384000000000004 9.880000000000003  6.9520000000000035 9.448  C 6.488000000000003 8.984  6.472000000000003 8.232000000000001  6.9520000000000035 7.752000000000001  L 8.104000000000003 6.600000000000001  L 7.0000000000000036 6.600000000000001  C 4.584000000000003 6.600000000000001  2.600000000000003 8.568000000000001  2.600000000000003 11  C 2.600000000000003 13.431999999999999  4.584000000000003 15.399999999999999  7.0000000000000036 15.399999999999999  C 9.432000000000002 15.399999999999999  11.400000000000006 13.431999999999999  11.400000000000006 10.999999999999998  Z " fill-rule="nonzero" fill="rgba(0, 0, 0, 1)" stroke="none" class="fill" />
    <path d="M 11.400000000000006 10.999999999999998  C 11.400000000000006 10.343999999999998  11.944000000000006 9.799999999999999  12.600000000000001 9.8  C 13.256 9.8  13.8 10.344000000000001  13.8 11  C 13.8 14.759999999999998  10.760000000000002 17.8  7 17.8  C 3.2560000000000002 17.8  0.1999999999999993 14.760000000000002  0.1999999999999993 11  C 0.1999999999999993 7.239999999999998  3.2560000000000002 4.199999999999999  7 4.199999999999999  L 8.088000000000001 4.199999999999999  L 6.952000000000002 3.064  C 6.488000000000001 2.5999999999999996  6.472000000000001 1.8479999999999999  6.952000000000002 1.3680000000000003  C 7.448 0.8719999999999999  8.152000000000001 0.8719999999999999  8.648000000000003 1.3680000000000003  L 11.848000000000003 4.552  C 12.088000000000001 4.792  12.200000000000003 5.096  12.200000000000003 5.4  C 12.200000000000003 5.704000000000001  12.120000000000005 5.976000000000001  11.848000000000003 6.248000000000001  L 8.648000000000003 9.448  C 8.136000000000003 9.96  7.384000000000004 9.880000000000003  6.9520000000000035 9.448  C 6.488000000000003 8.984  6.472000000000003 8.232000000000001  6.9520000000000035 7.752000000000001  L 8.104000000000003 6.600000000000001  L 7.0000000000000036 6.600000000000001  C 4.584000000000003 6.600000000000001  2.600000000000003 8.568000000000001  2.600000000000003 11  C 2.600000000000003 13.431999999999999  4.584000000000003 15.399999999999999  7.0000000000000036 15.399999999999999  C 9.432000000000002 15.399999999999999  11.400000000000006 13.431999999999999  11.400000000000006 10.999999999999998  Z " stroke-width="0" stroke-dasharray="0" stroke="rgba(255, 255, 255, 0)" fill="none" class="stroke" mask="url(#Clip499)" />
  </g>
</svg>