<?xml version="1.0" encoding="utf-8"?>
<svg version="1.1" xmlns:xlink="http://www.w3.org/1999/xlink" width="48px" height="48px" xmlns="http://www.w3.org/2000/svg">
  <defs>
    <pattern id="BGPattern" patternUnits="userSpaceOnUse" alignment="0 0" imageRepeat="None" />
    <mask fill="white" id="Clip7105">
      <path d="M 36.186 29.391999999999996  L 36.18 29.391999999999996  C 33.156 30.72  30.728 33.162  29.418 36.19  L 37.958 37.955999999999996  L 36.186 29.391999999999996  Z M 4.944000000000006 16.628000000000004  L 4.95 16.634  L 0 11.7  C 2.25 6.474  6.432 2.28  11.646 0  L 11.658000000000001 0  L 16.596 4.926  C 19.332 3.7439999999999998  22.348 3.084  25.522 3.084  C 37.934 3.084  48 13.138  48 25.542  C 48 37.946  37.934 48  25.522 48  C 13.102 48  3.04 37.952  3.04 25.542  C 3.04 22.360000000000003  3.75 19.380000000000003  4.944 16.64  L 23.23 34.868  C 25.480000000000004 29.642000000000003  29.666000000000004 25.448  34.876000000000005 23.168000000000003  L 16.606000000000005 4.928000000000004  L 16.590000000000007 4.928000000000004  C 11.378000000000007 7.208000000000004  7.200000000000006 11.408000000000005  4.944000000000006 16.628000000000004  Z " fill-rule="evenodd" />
    </mask>
  </defs>
  <g>
    <path d="M 36.186 29.391999999999996  L 36.18 29.391999999999996  C 33.156 30.72  30.728 33.162  29.418 36.19  L 37.958 37.955999999999996  L 36.186 29.391999999999996  Z M 4.944000000000006 16.628000000000004  L 4.95 16.634  L 0 11.7  C 2.25 6.474  6.432 2.28  11.646 0  L 11.658000000000001 0  L 16.596 4.926  C 19.332 3.7439999999999998  22.348 3.084  25.522 3.084  C 37.934 3.084  48 13.138  48 25.542  C 48 37.946  37.934 48  25.522 48  C 13.102 48  3.04 37.952  3.04 25.542  C 3.04 22.360000000000003  3.75 19.380000000000003  4.944 16.64  L 23.23 34.868  C 25.480000000000004 29.642000000000003  29.666000000000004 25.448  34.876000000000005 23.168000000000003  L 16.606000000000005 4.928000000000004  L 16.590000000000007 4.928000000000004  C 11.378000000000007 7.208000000000004  7.200000000000006 11.408000000000005  4.944000000000006 16.628000000000004  Z " fill-rule="nonzero" fill="rgba(0, 176, 234, 1)" stroke="none" class="fill" />
    <path d="M 36.186 29.391999999999996  L 36.18 29.391999999999996  C 33.156 30.72  30.728 33.162  29.418 36.19  L 37.958 37.955999999999996  L 36.186 29.391999999999996  Z " stroke-width="0" stroke-dasharray="0" stroke="rgba(255, 255, 255, 0)" fill="none" class="stroke" mask="url(#Clip7105)" />
    <path d="M 4.944000000000006 16.628000000000004  L 4.95 16.634  L 0 11.7  C 2.25 6.474  6.432 2.28  11.646 0  L 11.658000000000001 0  L 16.596 4.926  C 19.332 3.7439999999999998  22.348 3.084  25.522 3.084  C 37.934 3.084  48 13.138  48 25.542  C 48 37.946  37.934 48  25.522 48  C 13.102 48  3.04 37.952  3.04 25.542  C 3.04 22.360000000000003  3.75 19.380000000000003  4.944 16.64  L 23.23 34.868  C 25.480000000000004 29.642000000000003  29.666000000000004 25.448  34.876000000000005 23.168000000000003  L 16.606000000000005 4.928000000000004  L 16.590000000000007 4.928000000000004  C 11.378000000000007 7.208000000000004  7.200000000000006 11.408000000000005  4.944000000000006 16.628000000000004  Z " stroke-width="0" stroke-dasharray="0" stroke="rgba(255, 255, 255, 0)" fill="none" class="stroke" mask="url(#Clip7105)" />
  </g>
</svg>