<?xml version="1.0" encoding="utf-8"?>
<svg version="1.1" xmlns:xlink="http://www.w3.org/1999/xlink" width="16px" height="4px" xmlns="http://www.w3.org/2000/svg">
  <defs>
    <pattern id="BGPattern" patternUnits="userSpaceOnUse" alignment="0 0" imageRepeat="None" />
    <mask fill="white" id="Clip157">
      <path d="M 2.4319999999999986 3.6000000000000014  C 1.4879999999999995 3.6000000000000014  0.7999999999999989 2.928000000000001  0.8000000000000007 2  C 0.8000000000000007 1.0719999999999992  1.4880000000000013 0.40000000000000036  2.4320000000000004 0.40000000000000036  L 13.567999999999998 0.40000000000000036  C 14.511999999999997 0.40000000000000036  15.2 1.072000000000001  15.2 2  C 15.2 2.9279999999999973  14.512 3.6000000000000014  13.567999999999998 3.6000000000000014  L 2.4319999999999986 3.6000000000000014  Z " fill-rule="evenodd" />
    </mask>
  </defs>
  <g>
    <path d="M 2.4319999999999986 3.6000000000000014  C 1.4879999999999995 3.6000000000000014  0.7999999999999989 2.928000000000001  0.8000000000000007 2  C 0.8000000000000007 1.0719999999999992  1.4880000000000013 0.40000000000000036  2.4320000000000004 0.40000000000000036  L 13.567999999999998 0.40000000000000036  C 14.511999999999997 0.40000000000000036  15.2 1.072000000000001  15.2 2  C 15.2 2.9279999999999973  14.512 3.6000000000000014  13.567999999999998 3.6000000000000014  L 2.4319999999999986 3.6000000000000014  Z " fill-rule="nonzero" fill="rgba(0, 0, 0, 1)" stroke="none" class="fill" />
    <path d="M 2.4319999999999986 3.6000000000000014  C 1.4879999999999995 3.6000000000000014  0.7999999999999989 2.928000000000001  0.8000000000000007 2  C 0.8000000000000007 1.0719999999999992  1.4880000000000013 0.40000000000000036  2.4320000000000004 0.40000000000000036  L 13.567999999999998 0.40000000000000036  C 14.511999999999997 0.40000000000000036  15.2 1.072000000000001  15.2 2  C 15.2 2.9279999999999973  14.512 3.6000000000000014  13.567999999999998 3.6000000000000014  L 2.4319999999999986 3.6000000000000014  Z " stroke-width="0" stroke-dasharray="0" stroke="rgba(255, 255, 255, 0)" fill="none" class="stroke" mask="url(#Clip157)" />
  </g>
</svg>