<?xml version="1.0" encoding="utf-8"?>
<svg version="1.1" xmlns:xlink="http://www.w3.org/1999/xlink" width="5px" height="7px" xmlns="http://www.w3.org/2000/svg">
  <defs>
    <pattern id="BGPattern" patternUnits="userSpaceOnUse" alignment="0 0" imageRepeat="None" />
    <mask fill="white" id="Clip6547">
      <path d="M 3.25 1.5  C 3.25 1.085786437626905  3.585786437626904 0.75  4 0.75  C 4.414213562373096 0.75  4.75 1.085786437626905  4.75 1.5  L 4.75 6  C 4.75 6.414213562373096  4.414213562373096 6.75  4 6.75  L 1 6.75  C 0.5857864376269042 6.75  0.25 6.414213562373096  0.25 6  C 0.25 5.585786437626904  0.5857864376269042 5.25  1 5.25  L 3.25 5.25  L 3.25 1.5  Z " fill-rule="evenodd" />
    </mask>
  </defs>
  <g transform="matrix(1 0 0 1 -5 -6 )">
    <path d="M 3.25 1.5  C 3.25 1.085786437626905  3.585786437626904 0.75  4 0.75  C 4.414213562373096 0.75  4.75 1.085786437626905  4.75 1.5  L 4.75 6  C 4.75 6.414213562373096  4.414213562373096 6.75  4 6.75  L 1 6.75  C 0.5857864376269042 6.75  0.25 6.414213562373096  0.25 6  C 0.25 5.585786437626904  0.5857864376269042 5.25  1 5.25  L 3.25 5.25  L 3.25 1.5  Z " fill-rule="nonzero" fill="rgba(0, 0, 0, 1)" stroke="none" transform="matrix(1 0 0 1 5 6 )" class="fill" />
    <path d="M 3.25 1.5  C 3.25 1.085786437626905  3.585786437626904 0.75  4 0.75  C 4.414213562373096 0.75  4.75 1.085786437626905  4.75 1.5  L 4.75 6  C 4.75 6.414213562373096  4.414213562373096 6.75  4 6.75  L 1 6.75  C 0.5857864376269042 6.75  0.25 6.414213562373096  0.25 6  C 0.25 5.585786437626904  0.5857864376269042 5.25  1 5.25  L 3.25 5.25  L 3.25 1.5  Z " stroke-width="0" stroke-dasharray="0" stroke="rgba(255, 255, 255, 0)" fill="none" transform="matrix(1 0 0 1 5 6 )" class="stroke" mask="url(#Clip6547)" />
  </g>
</svg>