<?xml version="1.0" encoding="utf-8"?>
<svg version="1.1" xmlns:xlink="http://www.w3.org/1999/xlink" width="38px" height="50px" xmlns="http://www.w3.org/2000/svg">
  <defs>
    <pattern id="BGPattern" patternUnits="userSpaceOnUse" alignment="0 0" imageRepeat="None" />
    <mask fill="white" id="Clip1553">
      <path d="M 24.21875 16  C 22.929687500000004 15.625  21.875 14.570312499999998  21.875 13.28125  L 21.875 0  L 2.34375 0  C 1.044921875 0  0 1.044921875  0 2.34375  L 0 47.65625  C 0 48.955078125  1.044921875 50  2.34375 50  L 35.15625 50  C 36.455078125 50  37.5 48.955078125  37 47.65625  L 37 16  L 24.21875 16  Z M 26.357421875 30.80859375  C 26.9677734375 30.1982421875  27.95703125 30.1982421875  28.5673828125 30.80859375  L 29.671875 31.913085937500004  C 30.2822265625 32.5234375  30.2822265625 33.5126953125  29.671875 34.123046875  L 26.751953125000004 37.04296875  L 29.6875 39.978515625  C 30.2978515625 40.5888671875  30.2978515625 41.578125  29.6875 42.1884765625  L 28.5830078125 43.29296875  C 27.97265625 43.9033203125  26.9833984375 43.9033203125  26.373046875 43.29296875  L 23.4375 40.3564453125  L 20.501953125 43.2919921875  C 19.8916015625 43.90234375  18.90234375 43.90234375  18.2919921875 43.2919921875  L 17.1875 42.1875  C 16.5771484375 41.5771484375  16.5771484375 40.587890625  17.1875 39.9775390625  L 20.123046875 37.0419921875  L 14.330078125 31.25  L 12.5 31.25  L 12.5 35.9375  C 12.5 36.80078125  11.80078125 37.5  10.9375 37.5  L 9.375 37.5  C 8.51171875 37.5  7.812499999999999 36.80078125  8 35.9375  L 8 20.3125  C 7.812499999999999 19.44921875  8.51171875 18.75  9.375 18.75  L 17.1875 18.75  C 20.6396484375 18.75  23.4375 21.5478515625  23.4375 25  C 23.4375 27.365234375000004  22.107421875 29.3994140625  20.169921875 30.4609375  L 23.4375 33.728515625  L 26.357421875 30.80859375  Z M 18.75 25  C 18.75 25.861328125  18.048828125 26.5625  17.1875 26.5625  L 12.5 26.5625  L 12.5 23.4375  L 17.1875 23.4375  C 18.048828125 23.4375  18.75 24.138671875  18.75 25  Z M 36.81640625 10.25390625  C 37.255859375 10.693359375  37.5 11.2890625  37.5 11.904296875  L 37.5 13  L 25 13  L 25 0  L 25.595703125 0  C 26.220703125 0  26.81640625 0.244140625  27.255859375 0.68359375  L 36.81640625 10.25390625  Z " fill-rule="evenodd" />
    </mask>
  </defs>
  <g>
    <path d="M 24.21875 16  C 22.929687500000004 15.625  21.875 14.570312499999998  21.875 13.28125  L 21.875 0  L 2.34375 0  C 1.044921875 0  0 1.044921875  0 2.34375  L 0 47.65625  C 0 48.955078125  1.044921875 50  2.34375 50  L 35.15625 50  C 36.455078125 50  37.5 48.955078125  37 47.65625  L 37 16  L 24.21875 16  Z M 26.357421875 30.80859375  C 26.9677734375 30.1982421875  27.95703125 30.1982421875  28.5673828125 30.80859375  L 29.671875 31.913085937500004  C 30.2822265625 32.5234375  30.2822265625 33.5126953125  29.671875 34.123046875  L 26.751953125000004 37.04296875  L 29.6875 39.978515625  C 30.2978515625 40.5888671875  30.2978515625 41.578125  29.6875 42.1884765625  L 28.5830078125 43.29296875  C 27.97265625 43.9033203125  26.9833984375 43.9033203125  26.373046875 43.29296875  L 23.4375 40.3564453125  L 20.501953125 43.2919921875  C 19.8916015625 43.90234375  18.90234375 43.90234375  18.2919921875 43.2919921875  L 17.1875 42.1875  C 16.5771484375 41.5771484375  16.5771484375 40.587890625  17.1875 39.9775390625  L 20.123046875 37.0419921875  L 14.330078125 31.25  L 12.5 31.25  L 12.5 35.9375  C 12.5 36.80078125  11.80078125 37.5  10.9375 37.5  L 9.375 37.5  C 8.51171875 37.5  7.812499999999999 36.80078125  8 35.9375  L 8 20.3125  C 7.812499999999999 19.44921875  8.51171875 18.75  9.375 18.75  L 17.1875 18.75  C 20.6396484375 18.75  23.4375 21.5478515625  23.4375 25  C 23.4375 27.365234375000004  22.107421875 29.3994140625  20.169921875 30.4609375  L 23.4375 33.728515625  L 26.357421875 30.80859375  Z M 18.75 25  C 18.75 25.861328125  18.048828125 26.5625  17.1875 26.5625  L 12.5 26.5625  L 12.5 23.4375  L 17.1875 23.4375  C 18.048828125 23.4375  18.75 24.138671875  18.75 25  Z M 36.81640625 10.25390625  C 37.255859375 10.693359375  37.5 11.2890625  37.5 11.904296875  L 37.5 13  L 25 13  L 25 0  L 25.595703125 0  C 26.220703125 0  26.81640625 0.244140625  27.255859375 0.68359375  L 36.81640625 10.25390625  Z " fill-rule="nonzero" fill="rgba(0, 0, 0, 1)" stroke="none" class="fill" />
    <path d="M 24.21875 16  C 22.929687500000004 15.625  21.875 14.570312499999998  21.875 13.28125  L 21.875 0  L 2.34375 0  C 1.044921875 0  0 1.044921875  0 2.34375  L 0 47.65625  C 0 48.955078125  1.044921875 50  2.34375 50  L 35.15625 50  C 36.455078125 50  37.5 48.955078125  37 47.65625  L 37 16  L 24.21875 16  Z " stroke-width="0" stroke-dasharray="0" stroke="rgba(255, 255, 255, 0)" fill="none" class="stroke" mask="url(#Clip1553)" />
    <path d="M 26.357421875 30.80859375  C 26.9677734375 30.1982421875  27.95703125 30.1982421875  28.5673828125 30.80859375  L 29.671875 31.913085937500004  C 30.2822265625 32.5234375  30.2822265625 33.5126953125  29.671875 34.123046875  L 26.751953125000004 37.04296875  L 29.6875 39.978515625  C 30.2978515625 40.5888671875  30.2978515625 41.578125  29.6875 42.1884765625  L 28.5830078125 43.29296875  C 27.97265625 43.9033203125  26.9833984375 43.9033203125  26.373046875 43.29296875  L 23.4375 40.3564453125  L 20.501953125 43.2919921875  C 19.8916015625 43.90234375  18.90234375 43.90234375  18.2919921875 43.2919921875  L 17.1875 42.1875  C 16.5771484375 41.5771484375  16.5771484375 40.587890625  17.1875 39.9775390625  L 20.123046875 37.0419921875  L 14.330078125 31.25  L 12.5 31.25  L 12.5 35.9375  C 12.5 36.80078125  11.80078125 37.5  10.9375 37.5  L 9.375 37.5  C 8.51171875 37.5  7.812499999999999 36.80078125  8 35.9375  L 8 20.3125  C 7.812499999999999 19.44921875  8.51171875 18.75  9.375 18.75  L 17.1875 18.75  C 20.6396484375 18.75  23.4375 21.5478515625  23.4375 25  C 23.4375 27.365234375000004  22.107421875 29.3994140625  20.169921875 30.4609375  L 23.4375 33.728515625  L 26.357421875 30.80859375  Z " stroke-width="0" stroke-dasharray="0" stroke="rgba(255, 255, 255, 0)" fill="none" class="stroke" mask="url(#Clip1553)" />
    <path d="M 18.75 25  C 18.75 25.861328125  18.048828125 26.5625  17.1875 26.5625  L 12.5 26.5625  L 12.5 23.4375  L 17.1875 23.4375  C 18.048828125 23.4375  18.75 24.138671875  18.75 25  Z " stroke-width="0" stroke-dasharray="0" stroke="rgba(255, 255, 255, 0)" fill="none" class="stroke" mask="url(#Clip1553)" />
    <path d="M 36.81640625 10.25390625  C 37.255859375 10.693359375  37.5 11.2890625  37.5 11.904296875  L 37.5 13  L 25 13  L 25 0  L 25.595703125 0  C 26.220703125 0  26.81640625 0.244140625  27.255859375 0.68359375  L 36.81640625 10.25390625  Z " stroke-width="0" stroke-dasharray="0" stroke="rgba(255, 255, 255, 0)" fill="none" class="stroke" mask="url(#Clip1553)" />
  </g>
</svg>