<?xml version="1.0" encoding="utf-8"?>
<svg version="1.1" xmlns:xlink="http://www.w3.org/1999/xlink" width="48px" height="48px" xmlns="http://www.w3.org/2000/svg">
  <defs>
    <pattern id="BGPattern" patternUnits="userSpaceOnUse" alignment="0 0" imageRepeat="None" />
    <mask fill="white" id="Clip7334">
      <path d="M 23.8 1.4  C 32.8 1.4  39.8 8.4  39.8 17.2  C 39.8 19.599999999999998  39.199999999999996 21.799999999999997  38.4 23.799999999999997  L 39.8 22.999999999999996  L 46.599999999999994 18.999999999999996  L 41.2 16  C 40.6 7  33.2 0  24.000000000000007 0  C 14.800000000000004 0  7.4 7  6.8 16  L 1.4 19.2  L 7.6 22.8  L 9.4 23.8  C 8.4 21.8  8 19.6  8 17.200000000000003  C 8 8.4  15.2 1.4  23.8 1.4  Z M 1 19.8  L 1 34.6  L 24 48  L 24 33.2  L 1 19.8  Z M 47 19.8  L 24 33.2  L 24 48  L 47 34.6  L 47 19.8  Z " fill-rule="evenodd" />
    </mask>
  </defs>
  <g>
    <path d="M 23.8 1.4  C 32.8 1.4  39.8 8.4  39.8 17.2  C 39.8 19.599999999999998  39.199999999999996 21.799999999999997  38.4 23.799999999999997  L 39.8 22.999999999999996  L 46.599999999999994 18.999999999999996  L 41.2 16  C 40.6 7  33.2 0  24.000000000000007 0  C 14.800000000000004 0  7.4 7  6.8 16  L 1.4 19.2  L 7.6 22.8  L 9.4 23.8  C 8.4 21.8  8 19.6  8 17.200000000000003  C 8 8.4  15.2 1.4  23.8 1.4  Z M 1 19.8  L 1 34.6  L 24 48  L 24 33.2  L 1 19.8  Z M 47 19.8  L 24 33.2  L 24 48  L 47 34.6  L 47 19.8  Z " fill-rule="nonzero" fill="rgba(55, 190, 255, 1)" stroke="none" class="fill" />
    <path d="M 23.8 1.4  C 32.8 1.4  39.8 8.4  39.8 17.2  C 39.8 19.599999999999998  39.199999999999996 21.799999999999997  38.4 23.799999999999997  L 39.8 22.999999999999996  L 46.599999999999994 18.999999999999996  L 41.2 16  C 40.6 7  33.2 0  24.000000000000007 0  C 14.800000000000004 0  7.4 7  6.8 16  L 1.4 19.2  L 7.6 22.8  L 9.4 23.8  C 8.4 21.8  8 19.6  8 17.200000000000003  C 8 8.4  15.2 1.4  23.8 1.4  Z " stroke-width="0" stroke-dasharray="0" stroke="rgba(255, 255, 255, 0)" fill="none" class="stroke" mask="url(#Clip7334)" />
    <path d="M 1 19.8  L 1 34.6  L 24 48  L 24 33.2  L 1 19.8  Z " stroke-width="0" stroke-dasharray="0" stroke="rgba(255, 255, 255, 0)" fill="none" class="stroke" mask="url(#Clip7334)" />
    <path d="M 47 19.8  L 24 33.2  L 24 48  L 47 34.6  L 47 19.8  Z " stroke-width="0" stroke-dasharray="0" stroke="rgba(255, 255, 255, 0)" fill="none" class="stroke" mask="url(#Clip7334)" />
  </g>
</svg>