<?xml version="1.0" encoding="utf-8"?>
<svg version="1.1" xmlns:xlink="http://www.w3.org/1999/xlink" width="10px" height="9px" xmlns="http://www.w3.org/2000/svg">
  <defs>
    <pattern id="BGPattern" patternUnits="userSpaceOnUse" alignment="0 0" imageRepeat="None" />
    <mask fill="white" id="Clip4890">
      <path d="M 5 8.5  C -3.7375000000000003 2.854000000000001  2.5040000000000013 -1.5350000000000001  5 0.9730000000000008  C 7.495999999999999 -1.5365000000000002  13.737499999999997 2.854000000000001  5 8.5  Z " fill-rule="evenodd" />
    </mask>
  </defs>
  <g transform="matrix(1 0 0 1 -7 -11 )">
    <path d="M 5 8.5  C -3.7375000000000003 2.854000000000001  2.5040000000000013 -1.5350000000000001  5 0.9730000000000008  C 7.495999999999999 -1.5365000000000002  13.737499999999997 2.854000000000001  5 8.5  Z " fill-rule="nonzero" fill="rgba(0, 0, 0, 1)" stroke="none" transform="matrix(1 0 0 1 7 11 )" class="fill" />
    <path d="M 5 8.5  C -3.7375000000000003 2.854000000000001  2.5040000000000013 -1.5350000000000001  5 0.9730000000000008  C 7.495999999999999 -1.5365000000000002  13.737499999999997 2.854000000000001  5 8.5  Z " stroke-width="0" stroke-dasharray="0" stroke="rgba(255, 255, 255, 0)" fill="none" transform="matrix(1 0 0 1 7 11 )" class="stroke" mask="url(#Clip4890)" />
  </g>
</svg>