<?xml version="1.0" encoding="utf-8"?>
<svg version="1.1" xmlns:xlink="http://www.w3.org/1999/xlink" width="50px" height="7px" xmlns="http://www.w3.org/2000/svg">
  <defs>
    <pattern id="BGPattern" patternUnits="userSpaceOnUse" alignment="0 0" imageRepeat="None" />
    <mask fill="white" id="Clip778">
      <path d="M 6.414078156312626 0.718937875751493  C 6.412825651302597 0.32439879759519386  6.0884268537074036 0  5.693887775551104 0  L 0.718937875751493 0  C 0.32439879759519386 0  0 0.32439879759519386  0 0.718937875751493  L 0 5.695140280561134  C 0 6.088426853707432  0.32439879759519386 6.412825651302626  0.718937875751493 6.412825651302626  L 5.695140280561134 6.412825651302626  C 6.0884268537074036 6.412825651302626  6.414078156312626 6.088426853707432  6.414078156312626 5.693887775551133  L 6.414078156312626 0.718937875751493  Z M 4.957414829659314 4.069388777555133  L 4.956162324649313 4.069388777555133  C 4.956162324649313 4.129509018036089  4.904809619238478 4.155811623246507  4.844689378757522 4.180861723446895  C 4.604208416833671 4.282314629258536  4.347444889779553 4.377505010020059  4.074398797595194 4.377505010020059  C 3.5671342685370746 4.377505010020059  3.213927855711432 3.8163827655310745  2.030310621242478 4.408817635270566  L 2.030310621242478 5.057615230460925  C 2.030310621242478 5.437124248497014  1.457915831663314 5.4358717434869845  1.457915831663314 5.057615230460925  L 1.457915831663314 1.9263527054108351  C 1.3451903807615224 1.8386773547094322  1.270040080160328 1.7021543086172528  1.270040080160328 1.5468436873747464  C 1.270040080160328 1.2838176352705375  1.4842184368737605 1.068386773547104  1.7484969939879704 1.068386773547104  C 2.0115230460921794 1.068386773547104  2.2269539078156413 1.2825651302605365  2.2269539078156413 1.5468436873747464  C 2.2269539078156413 1.699649298597194  2.154308617234477 1.8374248496994026  2.040330661322656 1.9251002004008058  L 2.040330661322656 2.1881262525050147  C 2.505010020040089 2.0378256513025974  2.8607214428857617 1.7572645290581193  3.870240480961911 2.1455410821643284  C 4.203406813627254 2.288326653306626  4.730711422845701 1.9488977955911935  4.828406813627254 1.9488977955911935  C 4.897294589178358 1.9488977955911935  4.957414829659314 2.000250501002  4.957414829659314 2.060370741482984  L 4.957414829659314 4.069388777555133  Z M 10.37700400801603 1.1084669338677315  C 10.87299599198397 1.1084669338677315  10.88426853707415 1.8875250501002083  10.37825651302606 1.8875250501002083  L 8.662324649298597 1.8875250501002083  L 8.662324649298597 2.7655310621242677  L 10.333166332665343 2.7655310621242677  C 10.831663326653313 2.7655310621242677  10.839178356713433 3.5445891783567163  10.333166332665343 3.5445891783567163  L 8.662324649298597 3.5445891783567163  L 8.662324649298597 4.86723446893788  C 8.662324649298597 5.437124248497014  7.7768036072144175 5.448396793587193  7.7768036072144175 4.86723446893788  L 7.7768036072144175 1.6069639278557304  C 7.7768036072144175 1.331412825651313  8.00225450901803 1.1084669338677315  8.275300601202389 1.1084669338677315  L 10.37700400801603 1.1084669338677315  Z M 12.771793587174358 5.3419338677354915  C 14.899799599198388 5.3419338677354915  14.899799599198388 2.1806112224448952  12.771793587174358 2.1806112224448952  C 10.651302605210418 2.1806112224448952  10.653807615230448 5.3419338677354915  12.771793587174358 5.3419338677354915  Z M 12.771793587174358 2.885771543086179  C 13.805110220440895 2.885771543086179  13.803857715430864 4.636773547094208  12.771793587174358 4.636773547094208  C 11.749749498998 4.636773547094208  11.743486973947881 2.885771543086179  12.771793587174358 2.885771543086179  Z M 17.833166332665314 4.9123246492986254  C 17.836923847695402 5.293086172344715  17.438627254509015 5.305611222444895  17.436122244488985 5.305611222444895  C 17.216933867735463 5.305611222444895  17.042835671342687 5.131513026052119  17.042835671342687 4.9123246492986254  L 17.042835671342687 3.4468937875751635  C 17.042835671342687 2.665330661322656  16.13351703406812 2.789328657314627  15.801603206412834 3.24148296593188  L 15.801603206412834 4.9123246492986254  C 15.801603206412834 5.432114228456925  15.00876753507015 5.4358717434869845  15.00876753507015 4.9123246492986254  L 15.00876753507015 2.6052104208417006  C 15.00876753507015 2.1042084168336714  15.799098196392777 2.0841683366733434  15.799098196392777 2.6052104208417006  L 15.799098196392777 2.647795591182387  C 16.341432865731463 2.0015030060120296  17.833166332665314 1.8912825651302683  17.833166332665314 3.140030060120239  L 17.833166332665314 4.9123246492986254  Z M 19.973697394789582 4.636773547094208  C 20.36698396793588 4.636773547094208  20.63251503006012 5.3419338677354915  19.686873747494985 5.3419338677354915  C 19.13201402805612 5.3419338677354915  18.831412825651313 5.055110220440895  18.831412825651313 4.517785571142298  L 18.831412825651313 2.9458917835671343  L 18.63727454909821 2.9458917835671343  C 18.191382765531074 2.9458917835671343  18.177605210420836 2.2532565130260593  18.63727454909821 2.2532565130260593  L 18.831412825651313 2.2532565130260593  L 18.831412825651313 1.786072144288596  C 18.831412825651313 1.2687875751502986  19.63051102204409 1.2587675350701488  19.63051102204409 1.786072144288596  L 19.63051102204409 2.2557615230460897  L 19.942384769539075 2.2557615230460897  C 20.38577154308618 2.2557615230460897  20.38952905811624 2.948396793587193  19.942384769539075 2.948396793587193  L 19.63051102204409 2.948396793587193  L 19.63051102204409 4.307364729458925  C 19.63051102204409 4.678106212424865  19.957414829659314 4.636773547094208  19.973697394789582 4.636773547094208  Z M 26.191132264529042 4.832164328657342  C 26.191132264529042 4.705661322645312  26.25751503006012 4.917334669338686  24.949899799599194 1.5405811623246564  C 24.705661322645284 0.9118236472945966  23.75375751503006 0.914328657314627  23.515781563126268 1.5405811623246564  C 22.171843687374746 4.99373747494991  22.2695390781563 4.705661322645312  22.2695390781563 4.832164328657342  C 22.2695390781563 5.3682364729459096  22.999749498998 5.473446893787582  23.172595190380775 5.0125250501002085  L 23.341683366733463 4.5628757515030145  L 25.125250501002 4.5628757515030145  L 25.288076152304594 5.0125250501002085  C 25.465931863727466 5.484719438877761  26.191132264529042 5.353206412825671  26.191132264529042 4.832164328657342  Z M 24.88226452905812 3.783817635270566  L 23.585921843687373 3.783817635270566  L 24.23346693386773 1.9939879759519101  L 24.88226452905812 3.783817635270566  Z M 30.236723446893794 2.5  C 30.36573146292585 2.020290581162328  31.14604208416833 2.201903807615224  30.991983967935884 2.711673346693402  L 30.319388777555105 4.919839679358745  C 30.16407815631263 5.4358717434869845  29.417585170340686 5.433366733466954  29.26728456913827 4.919839679358745  L 28.737474949899795 3.217685370741492  L 28.207665330661314 4.919839679358745  C 28.052354709418836 5.432114228456925  27.305861723446895 5.4358717434869845  27.149298597194388 4.919839679358745  L 26.470440881763523 2.711673346693402  C 26.313877755511015 2.2181863727454925  27.094188376753493 2.009018036072149  27.224448897795583 2.5  L 27.717935871743492 4.283567134268537  L 28.285320641282567 2.5363226452905963  C 28.421843687374746 2.1267535070140298  29.03181362725451 2.101703406813641  29.177104208416836 2.5363226452905963  L 29.744488977955914 4.283567134268537  L 30.236723446893794 2.5  Z M 34.074398797595194 4.014278557114238  C 34.27855711422845 4.014278557114238  34.441382765531046 3.846442885771552  34.441382765531046 3.6523046092184472  C 34.441382765531046 3.1212424849699403  34.01678356713427 2.1806112224448952  32.944639278557105 2.1806112224448952  C 32.02780561122245 2.1806112224448952  31.38652304609218 2.885771543086179  31.38652304609218 3.758767535070149  C 31.38652304609218 4.725701402805612  32.079158316633254 5.3419338677354915  32.99599198396794 5.3419338677354915  C 33.3930360721443 5.3419338677354915  34.16082164328657 5.197895791583193  34.16082164328657 4.843436873747521  C 34.16082164328657 4.61422845691385  33.89654308617236 4.4488977955911935  33.66858717434869 4.5628757515030145  C 33.049849699398806 4.891032064128268  32.30335671342684 4.668086172344715  32.21693386773546 4.014278557114238  L 34.074398797595194 4.014278557114238  Z M 33.687374749498986 3.4782064128256707  L 32.201903807615224 3.4782064128256707  C 32.320891783567134 2.5588677354709546  33.62850701402806 2.61898797595191  33.687374749498986 3.4782064128256707  Z M 37.47244488977955 4.376252505010029  C 37.47119238476955 4.923597194388805  37.00400801603206 5.3419338677354915  36.16858717434869 5.3419338677354915  C 35.77530060120239 5.3419338677354915  35.14654308617236 5.210420841683373  34.95866733466934 4.942384769539103  C 34.803356713426865 4.7294589178357  34.98997995991982 4.443887775551104  35.2317134268537 4.443887775551104  C 35.435871743486985 4.443887775551104  35.692635270541075 4.730711422845701  36.20490981963928 4.730711422845701  C 36.548096192384776 4.730711422845701  36.71092184368737 4.592935871743492  36.71092184368737 4.4075651302605365  C 36.71092184368737 3.909068136272566  34.92109218436872 4.3148797595190445  34.92109218436872 3.130010020040089  C 34.92109218436872 2.6239979959919992  35.36322645290582 2.1818637274549246  36.15606212424848 2.1818637274549246  C 36.549348697394805 2.1818637274549246  37.08416833667334 2.3058617234468954  37.25325651302606 2.5501002004008058  C 37.38852705410821 2.73547094188379  37.23572144288576 3.0035070140280595  36.99148296593185 3.0035070140280595  C 36.802354709418836 3.0035070140280595  36.65706412825651 2.7868236472945966  36.1623246492986 2.7868236472945966  C 35.875501002004 2.7868236472945966  35.688877755511015 2.9183366733467153  35.688877755511015 3.0849198396793724  C 35.688877755511015 3.534569138276567  37.47244488977955 3.160070140280567  37.47244488977955 4.376252505010029  Z M 39.51027054108215 5.3419338677354915  C 41.64078156312627 5.3419338677354915  41.63451903807615 2.1806112224448952  39.51027054108215 2.1806112224448952  C 37.38977955911824 2.1806112224448952  37.39228456913827 5.3419338677354915  39.51027054108215 5.3419338677354915  Z M 39.51027054108215 2.885771543086179  C 40.543587174348716 2.885771543086179  40.542334669338686 4.636773547094208  39.51027054108215 4.636773547094208  C 38.48572144288576 4.636773547094208  38.48321643286573 2.885771543086179  39.51027054108215 2.885771543086179  Z M 45.875501002004 5.304358717434894  C 45.91933867735469 5.305611222444895  45.48346693386773 5.318136272545104  45.48346693386773 4.9123246492986254  L 45.48346693386773 3.3654809619238506  C 45.48346693386773 2.691633266533074  44.71442885771543 2.7918336673346857  44.41007014028057 3.2339679358717603  L 44.41007014028057 4.9123246492986254  C 44.41007014028057 5.4296092184368945  43.61097194388776 5.439629258517044  43.61097194388776 4.9123246492986254  L 43.61097194388776 3.3654809619238506  C 43.61097194388776 2.712925851703403  42.86573146292585 2.7717935871743578  42.5375751503006 3.238977955911821  L 42.5375751503006 4.9123246492986254  C 42.5375751503006 5.432114228456925  41.74473947895791 5.4358717434869845  41.74473947895791 4.9123246492986254  L 41.74473947895791 2.6052104208417006  C 41.74473947895791 2.1042084168336714  42.53507014028057 2.0841683366733434  42.53507014028057 2.6052104208417006  L 42.53507014028057 2.647795591182387  C 42.65906813627254 2.467434869739492  43.058617234468954 2.1806112224448952  43.5195390781563 2.1806112224448952  C 43.961673346693374 2.1806112224448952  44.24223446893788 2.386022044088179  44.35495991983967 2.7292084168336714  C 44.52905811623248 2.4561623246493127  44.928607214428865 2.1806112224448952  45.38952905811624 2.1806112224448952  C 45.944388777555105 2.1806112224448952  46.27505010020039 2.473697394789582  46.27505010020039 3.0911823647294625  L 46.27505010020039 4.911072144288596  C 46.28131262525051 5.127755511022059  46.1059619238477 5.304358717434894  45.875501002004 5.304358717434894  Z M 49.63301603206412 4.014278557114238  C 49.8371743486974 4.014278557114238  49.99749498997994 3.846442885771552  50 3.6523046092184472  C 50 3.1212424849699403  49.59418837675349 2.1806112224448952  48.52329659318639 2.1806112224448952  C 47.6064629258517 2.1806112224448952  46.92635270541081 2.885771543086179  46.92635270541081 3.758767535070149  C 46.92635270541081 4.725701402805612  47.65656312625251 5.3419338677354915  48.574649298597194 5.3419338677354915  C 48.97169338677355 5.3419338677354915  49.72069138276552 5.197895791583193  49.72069138276552 4.843436873747521  C 49.72069138276552 4.61422845691385  49.45641282565131 4.4488977955911935  49.22845691382764 4.5628757515030145  C 48.60971943887776 4.891032064128268  47.84443887775552 4.668086172344715  47.75676352705409 4.014278557114238  L 49.63301603206412 4.014278557114238  Z M 49.24348697394788 3.4782064128256707  L 47.73922845691382 3.4782064128256707  C 47.86072144288576 2.546342685370746  49.190881763527045 2.62274549098197  49.24348697394788 3.4782064128256707  Z " fill-rule="evenodd" />
    </mask>
  </defs>
  <g>
    <path d="M 6.414078156312626 0.718937875751493  C 6.412825651302597 0.32439879759519386  6.0884268537074036 0  5.693887775551104 0  L 0.718937875751493 0  C 0.32439879759519386 0  0 0.32439879759519386  0 0.718937875751493  L 0 5.695140280561134  C 0 6.088426853707432  0.32439879759519386 6.412825651302626  0.718937875751493 6.412825651302626  L 5.695140280561134 6.412825651302626  C 6.0884268537074036 6.412825651302626  6.414078156312626 6.088426853707432  6.414078156312626 5.693887775551133  L 6.414078156312626 0.718937875751493  Z M 4.957414829659314 4.069388777555133  L 4.956162324649313 4.069388777555133  C 4.956162324649313 4.129509018036089  4.904809619238478 4.155811623246507  4.844689378757522 4.180861723446895  C 4.604208416833671 4.282314629258536  4.347444889779553 4.377505010020059  4.074398797595194 4.377505010020059  C 3.5671342685370746 4.377505010020059  3.213927855711432 3.8163827655310745  2.030310621242478 4.408817635270566  L 2.030310621242478 5.057615230460925  C 2.030310621242478 5.437124248497014  1.457915831663314 5.4358717434869845  1.457915831663314 5.057615230460925  L 1.457915831663314 1.9263527054108351  C 1.3451903807615224 1.8386773547094322  1.270040080160328 1.7021543086172528  1.270040080160328 1.5468436873747464  C 1.270040080160328 1.2838176352705375  1.4842184368737605 1.068386773547104  1.7484969939879704 1.068386773547104  C 2.0115230460921794 1.068386773547104  2.2269539078156413 1.2825651302605365  2.2269539078156413 1.5468436873747464  C 2.2269539078156413 1.699649298597194  2.154308617234477 1.8374248496994026  2.040330661322656 1.9251002004008058  L 2.040330661322656 2.1881262525050147  C 2.505010020040089 2.0378256513025974  2.8607214428857617 1.7572645290581193  3.870240480961911 2.1455410821643284  C 4.203406813627254 2.288326653306626  4.730711422845701 1.9488977955911935  4.828406813627254 1.9488977955911935  C 4.897294589178358 1.9488977955911935  4.957414829659314 2.000250501002  4.957414829659314 2.060370741482984  L 4.957414829659314 4.069388777555133  Z M 10.37700400801603 1.1084669338677315  C 10.87299599198397 1.1084669338677315  10.88426853707415 1.8875250501002083  10.37825651302606 1.8875250501002083  L 8.662324649298597 1.8875250501002083  L 8.662324649298597 2.7655310621242677  L 10.333166332665343 2.7655310621242677  C 10.831663326653313 2.7655310621242677  10.839178356713433 3.5445891783567163  10.333166332665343 3.5445891783567163  L 8.662324649298597 3.5445891783567163  L 8.662324649298597 4.86723446893788  C 8.662324649298597 5.437124248497014  7.7768036072144175 5.448396793587193  7.7768036072144175 4.86723446893788  L 7.7768036072144175 1.6069639278557304  C 7.7768036072144175 1.331412825651313  8.00225450901803 1.1084669338677315  8.275300601202389 1.1084669338677315  L 10.37700400801603 1.1084669338677315  Z M 12.771793587174358 5.3419338677354915  C 14.899799599198388 5.3419338677354915  14.899799599198388 2.1806112224448952  12.771793587174358 2.1806112224448952  C 10.651302605210418 2.1806112224448952  10.653807615230448 5.3419338677354915  12.771793587174358 5.3419338677354915  Z M 12.771793587174358 2.885771543086179  C 13.805110220440895 2.885771543086179  13.803857715430864 4.636773547094208  12.771793587174358 4.636773547094208  C 11.749749498998 4.636773547094208  11.743486973947881 2.885771543086179  12.771793587174358 2.885771543086179  Z M 17.833166332665314 4.9123246492986254  C 17.836923847695402 5.293086172344715  17.438627254509015 5.305611222444895  17.436122244488985 5.305611222444895  C 17.216933867735463 5.305611222444895  17.042835671342687 5.131513026052119  17.042835671342687 4.9123246492986254  L 17.042835671342687 3.4468937875751635  C 17.042835671342687 2.665330661322656  16.13351703406812 2.789328657314627  15.801603206412834 3.24148296593188  L 15.801603206412834 4.9123246492986254  C 15.801603206412834 5.432114228456925  15.00876753507015 5.4358717434869845  15.00876753507015 4.9123246492986254  L 15.00876753507015 2.6052104208417006  C 15.00876753507015 2.1042084168336714  15.799098196392777 2.0841683366733434  15.799098196392777 2.6052104208417006  L 15.799098196392777 2.647795591182387  C 16.341432865731463 2.0015030060120296  17.833166332665314 1.8912825651302683  17.833166332665314 3.140030060120239  L 17.833166332665314 4.9123246492986254  Z M 19.973697394789582 4.636773547094208  C 20.36698396793588 4.636773547094208  20.63251503006012 5.3419338677354915  19.686873747494985 5.3419338677354915  C 19.13201402805612 5.3419338677354915  18.831412825651313 5.055110220440895  18.831412825651313 4.517785571142298  L 18.831412825651313 2.9458917835671343  L 18.63727454909821 2.9458917835671343  C 18.191382765531074 2.9458917835671343  18.177605210420836 2.2532565130260593  18.63727454909821 2.2532565130260593  L 18.831412825651313 2.2532565130260593  L 18.831412825651313 1.786072144288596  C 18.831412825651313 1.2687875751502986  19.63051102204409 1.2587675350701488  19.63051102204409 1.786072144288596  L 19.63051102204409 2.2557615230460897  L 19.942384769539075 2.2557615230460897  C 20.38577154308618 2.2557615230460897  20.38952905811624 2.948396793587193  19.942384769539075 2.948396793587193  L 19.63051102204409 2.948396793587193  L 19.63051102204409 4.307364729458925  C 19.63051102204409 4.678106212424865  19.957414829659314 4.636773547094208  19.973697394789582 4.636773547094208  Z M 26.191132264529042 4.832164328657342  C 26.191132264529042 4.705661322645312  26.25751503006012 4.917334669338686  24.949899799599194 1.5405811623246564  C 24.705661322645284 0.9118236472945966  23.75375751503006 0.914328657314627  23.515781563126268 1.5405811623246564  C 22.171843687374746 4.99373747494991  22.2695390781563 4.705661322645312  22.2695390781563 4.832164328657342  C 22.2695390781563 5.3682364729459096  22.999749498998 5.473446893787582  23.172595190380775 5.0125250501002085  L 23.341683366733463 4.5628757515030145  L 25.125250501002 4.5628757515030145  L 25.288076152304594 5.0125250501002085  C 25.465931863727466 5.484719438877761  26.191132264529042 5.353206412825671  26.191132264529042 4.832164328657342  Z M 24.88226452905812 3.783817635270566  L 23.585921843687373 3.783817635270566  L 24.23346693386773 1.9939879759519101  L 24.88226452905812 3.783817635270566  Z M 30.236723446893794 2.5  C 30.36573146292585 2.020290581162328  31.14604208416833 2.201903807615224  30.991983967935884 2.711673346693402  L 30.319388777555105 4.919839679358745  C 30.16407815631263 5.4358717434869845  29.417585170340686 5.433366733466954  29.26728456913827 4.919839679358745  L 28.737474949899795 3.217685370741492  L 28.207665330661314 4.919839679358745  C 28.052354709418836 5.432114228456925  27.305861723446895 5.4358717434869845  27.149298597194388 4.919839679358745  L 26.470440881763523 2.711673346693402  C 26.313877755511015 2.2181863727454925  27.094188376753493 2.009018036072149  27.224448897795583 2.5  L 27.717935871743492 4.283567134268537  L 28.285320641282567 2.5363226452905963  C 28.421843687374746 2.1267535070140298  29.03181362725451 2.101703406813641  29.177104208416836 2.5363226452905963  L 29.744488977955914 4.283567134268537  L 30.236723446893794 2.5  Z M 34.074398797595194 4.014278557114238  C 34.27855711422845 4.014278557114238  34.441382765531046 3.846442885771552  34.441382765531046 3.6523046092184472  C 34.441382765531046 3.1212424849699403  34.01678356713427 2.1806112224448952  32.944639278557105 2.1806112224448952  C 32.02780561122245 2.1806112224448952  31.38652304609218 2.885771543086179  31.38652304609218 3.758767535070149  C 31.38652304609218 4.725701402805612  32.079158316633254 5.3419338677354915  32.99599198396794 5.3419338677354915  C 33.3930360721443 5.3419338677354915  34.16082164328657 5.197895791583193  34.16082164328657 4.843436873747521  C 34.16082164328657 4.61422845691385  33.89654308617236 4.4488977955911935  33.66858717434869 4.5628757515030145  C 33.049849699398806 4.891032064128268  32.30335671342684 4.668086172344715  32.21693386773546 4.014278557114238  L 34.074398797595194 4.014278557114238  Z M 33.687374749498986 3.4782064128256707  L 32.201903807615224 3.4782064128256707  C 32.320891783567134 2.5588677354709546  33.62850701402806 2.61898797595191  33.687374749498986 3.4782064128256707  Z M 37.47244488977955 4.376252505010029  C 37.47119238476955 4.923597194388805  37.00400801603206 5.3419338677354915  36.16858717434869 5.3419338677354915  C 35.77530060120239 5.3419338677354915  35.14654308617236 5.210420841683373  34.95866733466934 4.942384769539103  C 34.803356713426865 4.7294589178357  34.98997995991982 4.443887775551104  35.2317134268537 4.443887775551104  C 35.435871743486985 4.443887775551104  35.692635270541075 4.730711422845701  36.20490981963928 4.730711422845701  C 36.548096192384776 4.730711422845701  36.71092184368737 4.592935871743492  36.71092184368737 4.4075651302605365  C 36.71092184368737 3.909068136272566  34.92109218436872 4.3148797595190445  34.92109218436872 3.130010020040089  C 34.92109218436872 2.6239979959919992  35.36322645290582 2.1818637274549246  36.15606212424848 2.1818637274549246  C 36.549348697394805 2.1818637274549246  37.08416833667334 2.3058617234468954  37.25325651302606 2.5501002004008058  C 37.38852705410821 2.73547094188379  37.23572144288576 3.0035070140280595  36.99148296593185 3.0035070140280595  C 36.802354709418836 3.0035070140280595  36.65706412825651 2.7868236472945966  36.1623246492986 2.7868236472945966  C 35.875501002004 2.7868236472945966  35.688877755511015 2.9183366733467153  35.688877755511015 3.0849198396793724  C 35.688877755511015 3.534569138276567  37.47244488977955 3.160070140280567  37.47244488977955 4.376252505010029  Z M 39.51027054108215 5.3419338677354915  C 41.64078156312627 5.3419338677354915  41.63451903807615 2.1806112224448952  39.51027054108215 2.1806112224448952  C 37.38977955911824 2.1806112224448952  37.39228456913827 5.3419338677354915  39.51027054108215 5.3419338677354915  Z M 39.51027054108215 2.885771543086179  C 40.543587174348716 2.885771543086179  40.542334669338686 4.636773547094208  39.51027054108215 4.636773547094208  C 38.48572144288576 4.636773547094208  38.48321643286573 2.885771543086179  39.51027054108215 2.885771543086179  Z M 45.875501002004 5.304358717434894  C 45.91933867735469 5.305611222444895  45.48346693386773 5.318136272545104  45.48346693386773 4.9123246492986254  L 45.48346693386773 3.3654809619238506  C 45.48346693386773 2.691633266533074  44.71442885771543 2.7918336673346857  44.41007014028057 3.2339679358717603  L 44.41007014028057 4.9123246492986254  C 44.41007014028057 5.4296092184368945  43.61097194388776 5.439629258517044  43.61097194388776 4.9123246492986254  L 43.61097194388776 3.3654809619238506  C 43.61097194388776 2.712925851703403  42.86573146292585 2.7717935871743578  42.5375751503006 3.238977955911821  L 42.5375751503006 4.9123246492986254  C 42.5375751503006 5.432114228456925  41.74473947895791 5.4358717434869845  41.74473947895791 4.9123246492986254  L 41.74473947895791 2.6052104208417006  C 41.74473947895791 2.1042084168336714  42.53507014028057 2.0841683366733434  42.53507014028057 2.6052104208417006  L 42.53507014028057 2.647795591182387  C 42.65906813627254 2.467434869739492  43.058617234468954 2.1806112224448952  43.5195390781563 2.1806112224448952  C 43.961673346693374 2.1806112224448952  44.24223446893788 2.386022044088179  44.35495991983967 2.7292084168336714  C 44.52905811623248 2.4561623246493127  44.928607214428865 2.1806112224448952  45.38952905811624 2.1806112224448952  C 45.944388777555105 2.1806112224448952  46.27505010020039 2.473697394789582  46.27505010020039 3.0911823647294625  L 46.27505010020039 4.911072144288596  C 46.28131262525051 5.127755511022059  46.1059619238477 5.304358717434894  45.875501002004 5.304358717434894  Z M 49.63301603206412 4.014278557114238  C 49.8371743486974 4.014278557114238  49.99749498997994 3.846442885771552  50 3.6523046092184472  C 50 3.1212424849699403  49.59418837675349 2.1806112224448952  48.52329659318639 2.1806112224448952  C 47.6064629258517 2.1806112224448952  46.92635270541081 2.885771543086179  46.92635270541081 3.758767535070149  C 46.92635270541081 4.725701402805612  47.65656312625251 5.3419338677354915  48.574649298597194 5.3419338677354915  C 48.97169338677355 5.3419338677354915  49.72069138276552 5.197895791583193  49.72069138276552 4.843436873747521  C 49.72069138276552 4.61422845691385  49.45641282565131 4.4488977955911935  49.22845691382764 4.5628757515030145  C 48.60971943887776 4.891032064128268  47.84443887775552 4.668086172344715  47.75676352705409 4.014278557114238  L 49.63301603206412 4.014278557114238  Z M 49.24348697394788 3.4782064128256707  L 47.73922845691382 3.4782064128256707  C 47.86072144288576 2.546342685370746  49.190881763527045 2.62274549098197  49.24348697394788 3.4782064128256707  Z " fill-rule="nonzero" fill="rgba(0, 0, 0, 1)" stroke="none" class="fill" />
    <path d="M 6.414078156312626 0.718937875751493  C 6.412825651302597 0.32439879759519386  6.0884268537074036 0  5.693887775551104 0  L 0.718937875751493 0  C 0.32439879759519386 0  0 0.32439879759519386  0 0.718937875751493  L 0 5.695140280561134  C 0 6.088426853707432  0.32439879759519386 6.412825651302626  0.718937875751493 6.412825651302626  L 5.695140280561134 6.412825651302626  C 6.0884268537074036 6.412825651302626  6.414078156312626 6.088426853707432  6.414078156312626 5.693887775551133  L 6.414078156312626 0.718937875751493  Z " stroke-width="0" stroke-dasharray="0" stroke="rgba(255, 255, 255, 0)" fill="none" class="stroke" mask="url(#Clip778)" />
    <path d="M 4.957414829659314 4.069388777555133  L 4.956162324649313 4.069388777555133  C 4.956162324649313 4.129509018036089  4.904809619238478 4.155811623246507  4.844689378757522 4.180861723446895  C 4.604208416833671 4.282314629258536  4.347444889779553 4.377505010020059  4.074398797595194 4.377505010020059  C 3.5671342685370746 4.377505010020059  3.213927855711432 3.8163827655310745  2.030310621242478 4.408817635270566  L 2.030310621242478 5.057615230460925  C 2.030310621242478 5.437124248497014  1.457915831663314 5.4358717434869845  1.457915831663314 5.057615230460925  L 1.457915831663314 1.9263527054108351  C 1.3451903807615224 1.8386773547094322  1.270040080160328 1.7021543086172528  1.270040080160328 1.5468436873747464  C 1.270040080160328 1.2838176352705375  1.4842184368737605 1.068386773547104  1.7484969939879704 1.068386773547104  C 2.0115230460921794 1.068386773547104  2.2269539078156413 1.2825651302605365  2.2269539078156413 1.5468436873747464  C 2.2269539078156413 1.699649298597194  2.154308617234477 1.8374248496994026  2.040330661322656 1.9251002004008058  L 2.040330661322656 2.1881262525050147  C 2.505010020040089 2.0378256513025974  2.8607214428857617 1.7572645290581193  3.870240480961911 2.1455410821643284  C 4.203406813627254 2.288326653306626  4.730711422845701 1.9488977955911935  4.828406813627254 1.9488977955911935  C 4.897294589178358 1.9488977955911935  4.957414829659314 2.000250501002  4.957414829659314 2.060370741482984  L 4.957414829659314 4.069388777555133  Z " stroke-width="0" stroke-dasharray="0" stroke="rgba(255, 255, 255, 0)" fill="none" class="stroke" mask="url(#Clip778)" />
    <path d="M 10.37700400801603 1.1084669338677315  C 10.87299599198397 1.1084669338677315  10.88426853707415 1.8875250501002083  10.37825651302606 1.8875250501002083  L 8.662324649298597 1.8875250501002083  L 8.662324649298597 2.7655310621242677  L 10.333166332665343 2.7655310621242677  C 10.831663326653313 2.7655310621242677  10.839178356713433 3.5445891783567163  10.333166332665343 3.5445891783567163  L 8.662324649298597 3.5445891783567163  L 8.662324649298597 4.86723446893788  C 8.662324649298597 5.437124248497014  7.7768036072144175 5.448396793587193  7.7768036072144175 4.86723446893788  L 7.7768036072144175 1.6069639278557304  C 7.7768036072144175 1.331412825651313  8.00225450901803 1.1084669338677315  8.275300601202389 1.1084669338677315  L 10.37700400801603 1.1084669338677315  Z " stroke-width="0" stroke-dasharray="0" stroke="rgba(255, 255, 255, 0)" fill="none" class="stroke" mask="url(#Clip778)" />
    <path d="M 12.771793587174358 5.3419338677354915  C 14.899799599198388 5.3419338677354915  14.899799599198388 2.1806112224448952  12.771793587174358 2.1806112224448952  C 10.651302605210418 2.1806112224448952  10.653807615230448 5.3419338677354915  12.771793587174358 5.3419338677354915  Z " stroke-width="0" stroke-dasharray="0" stroke="rgba(255, 255, 255, 0)" fill="none" class="stroke" mask="url(#Clip778)" />
    <path d="M 12.771793587174358 2.885771543086179  C 13.805110220440895 2.885771543086179  13.803857715430864 4.636773547094208  12.771793587174358 4.636773547094208  C 11.749749498998 4.636773547094208  11.743486973947881 2.885771543086179  12.771793587174358 2.885771543086179  Z " stroke-width="0" stroke-dasharray="0" stroke="rgba(255, 255, 255, 0)" fill="none" class="stroke" mask="url(#Clip778)" />
    <path d="M 17.833166332665314 4.9123246492986254  C 17.836923847695402 5.293086172344715  17.438627254509015 5.305611222444895  17.436122244488985 5.305611222444895  C 17.216933867735463 5.305611222444895  17.042835671342687 5.131513026052119  17.042835671342687 4.9123246492986254  L 17.042835671342687 3.4468937875751635  C 17.042835671342687 2.665330661322656  16.13351703406812 2.789328657314627  15.801603206412834 3.24148296593188  L 15.801603206412834 4.9123246492986254  C 15.801603206412834 5.432114228456925  15.00876753507015 5.4358717434869845  15.00876753507015 4.9123246492986254  L 15.00876753507015 2.6052104208417006  C 15.00876753507015 2.1042084168336714  15.799098196392777 2.0841683366733434  15.799098196392777 2.6052104208417006  L 15.799098196392777 2.647795591182387  C 16.341432865731463 2.0015030060120296  17.833166332665314 1.8912825651302683  17.833166332665314 3.140030060120239  L 17.833166332665314 4.9123246492986254  Z " stroke-width="0" stroke-dasharray="0" stroke="rgba(255, 255, 255, 0)" fill="none" class="stroke" mask="url(#Clip778)" />
    <path d="M 19.973697394789582 4.636773547094208  C 20.36698396793588 4.636773547094208  20.63251503006012 5.3419338677354915  19.686873747494985 5.3419338677354915  C 19.13201402805612 5.3419338677354915  18.831412825651313 5.055110220440895  18.831412825651313 4.517785571142298  L 18.831412825651313 2.9458917835671343  L 18.63727454909821 2.9458917835671343  C 18.191382765531074 2.9458917835671343  18.177605210420836 2.2532565130260593  18.63727454909821 2.2532565130260593  L 18.831412825651313 2.2532565130260593  L 18.831412825651313 1.786072144288596  C 18.831412825651313 1.2687875751502986  19.63051102204409 1.2587675350701488  19.63051102204409 1.786072144288596  L 19.63051102204409 2.2557615230460897  L 19.942384769539075 2.2557615230460897  C 20.38577154308618 2.2557615230460897  20.38952905811624 2.948396793587193  19.942384769539075 2.948396793587193  L 19.63051102204409 2.948396793587193  L 19.63051102204409 4.307364729458925  C 19.63051102204409 4.678106212424865  19.957414829659314 4.636773547094208  19.973697394789582 4.636773547094208  Z " stroke-width="0" stroke-dasharray="0" stroke="rgba(255, 255, 255, 0)" fill="none" class="stroke" mask="url(#Clip778)" />
    <path d="M 26.191132264529042 4.832164328657342  C 26.191132264529042 4.705661322645312  26.25751503006012 4.917334669338686  24.949899799599194 1.5405811623246564  C 24.705661322645284 0.9118236472945966  23.75375751503006 0.914328657314627  23.515781563126268 1.5405811623246564  C 22.171843687374746 4.99373747494991  22.2695390781563 4.705661322645312  22.2695390781563 4.832164328657342  C 22.2695390781563 5.3682364729459096  22.999749498998 5.473446893787582  23.172595190380775 5.0125250501002085  L 23.341683366733463 4.5628757515030145  L 25.125250501002 4.5628757515030145  L 25.288076152304594 5.0125250501002085  C 25.465931863727466 5.484719438877761  26.191132264529042 5.353206412825671  26.191132264529042 4.832164328657342  Z " stroke-width="0" stroke-dasharray="0" stroke="rgba(255, 255, 255, 0)" fill="none" class="stroke" mask="url(#Clip778)" />
    <path d="M 24.88226452905812 3.783817635270566  L 23.585921843687373 3.783817635270566  L 24.23346693386773 1.9939879759519101  L 24.88226452905812 3.783817635270566  Z " stroke-width="0" stroke-dasharray="0" stroke="rgba(255, 255, 255, 0)" fill="none" class="stroke" mask="url(#Clip778)" />
    <path d="M 30.236723446893794 2.5  C 30.36573146292585 2.020290581162328  31.14604208416833 2.201903807615224  30.991983967935884 2.711673346693402  L 30.319388777555105 4.919839679358745  C 30.16407815631263 5.4358717434869845  29.417585170340686 5.433366733466954  29.26728456913827 4.919839679358745  L 28.737474949899795 3.217685370741492  L 28.207665330661314 4.919839679358745  C 28.052354709418836 5.432114228456925  27.305861723446895 5.4358717434869845  27.149298597194388 4.919839679358745  L 26.470440881763523 2.711673346693402  C 26.313877755511015 2.2181863727454925  27.094188376753493 2.009018036072149  27.224448897795583 2.5  L 27.717935871743492 4.283567134268537  L 28.285320641282567 2.5363226452905963  C 28.421843687374746 2.1267535070140298  29.03181362725451 2.101703406813641  29.177104208416836 2.5363226452905963  L 29.744488977955914 4.283567134268537  L 30.236723446893794 2.5  Z " stroke-width="0" stroke-dasharray="0" stroke="rgba(255, 255, 255, 0)" fill="none" class="stroke" mask="url(#Clip778)" />
    <path d="M 34.074398797595194 4.014278557114238  C 34.27855711422845 4.014278557114238  34.441382765531046 3.846442885771552  34.441382765531046 3.6523046092184472  C 34.441382765531046 3.1212424849699403  34.01678356713427 2.1806112224448952  32.944639278557105 2.1806112224448952  C 32.02780561122245 2.1806112224448952  31.38652304609218 2.885771543086179  31.38652304609218 3.758767535070149  C 31.38652304609218 4.725701402805612  32.079158316633254 5.3419338677354915  32.99599198396794 5.3419338677354915  C 33.3930360721443 5.3419338677354915  34.16082164328657 5.197895791583193  34.16082164328657 4.843436873747521  C 34.16082164328657 4.61422845691385  33.89654308617236 4.4488977955911935  33.66858717434869 4.5628757515030145  C 33.049849699398806 4.891032064128268  32.30335671342684 4.668086172344715  32.21693386773546 4.014278557114238  L 34.074398797595194 4.014278557114238  Z " stroke-width="0" stroke-dasharray="0" stroke="rgba(255, 255, 255, 0)" fill="none" class="stroke" mask="url(#Clip778)" />
    <path d="M 33.687374749498986 3.4782064128256707  L 32.201903807615224 3.4782064128256707  C 32.320891783567134 2.5588677354709546  33.62850701402806 2.61898797595191  33.687374749498986 3.4782064128256707  Z " stroke-width="0" stroke-dasharray="0" stroke="rgba(255, 255, 255, 0)" fill="none" class="stroke" mask="url(#Clip778)" />
    <path d="M 37.47244488977955 4.376252505010029  C 37.47119238476955 4.923597194388805  37.00400801603206 5.3419338677354915  36.16858717434869 5.3419338677354915  C 35.77530060120239 5.3419338677354915  35.14654308617236 5.210420841683373  34.95866733466934 4.942384769539103  C 34.803356713426865 4.7294589178357  34.98997995991982 4.443887775551104  35.2317134268537 4.443887775551104  C 35.435871743486985 4.443887775551104  35.692635270541075 4.730711422845701  36.20490981963928 4.730711422845701  C 36.548096192384776 4.730711422845701  36.71092184368737 4.592935871743492  36.71092184368737 4.4075651302605365  C 36.71092184368737 3.909068136272566  34.92109218436872 4.3148797595190445  34.92109218436872 3.130010020040089  C 34.92109218436872 2.6239979959919992  35.36322645290582 2.1818637274549246  36.15606212424848 2.1818637274549246  C 36.549348697394805 2.1818637274549246  37.08416833667334 2.3058617234468954  37.25325651302606 2.5501002004008058  C 37.38852705410821 2.73547094188379  37.23572144288576 3.0035070140280595  36.99148296593185 3.0035070140280595  C 36.802354709418836 3.0035070140280595  36.65706412825651 2.7868236472945966  36.1623246492986 2.7868236472945966  C 35.875501002004 2.7868236472945966  35.688877755511015 2.9183366733467153  35.688877755511015 3.0849198396793724  C 35.688877755511015 3.534569138276567  37.47244488977955 3.160070140280567  37.47244488977955 4.376252505010029  Z " stroke-width="0" stroke-dasharray="0" stroke="rgba(255, 255, 255, 0)" fill="none" class="stroke" mask="url(#Clip778)" />
    <path d="M 39.51027054108215 5.3419338677354915  C 41.64078156312627 5.3419338677354915  41.63451903807615 2.1806112224448952  39.51027054108215 2.1806112224448952  C 37.38977955911824 2.1806112224448952  37.39228456913827 5.3419338677354915  39.51027054108215 5.3419338677354915  Z " stroke-width="0" stroke-dasharray="0" stroke="rgba(255, 255, 255, 0)" fill="none" class="stroke" mask="url(#Clip778)" />
    <path d="M 39.51027054108215 2.885771543086179  C 40.543587174348716 2.885771543086179  40.542334669338686 4.636773547094208  39.51027054108215 4.636773547094208  C 38.48572144288576 4.636773547094208  38.48321643286573 2.885771543086179  39.51027054108215 2.885771543086179  Z " stroke-width="0" stroke-dasharray="0" stroke="rgba(255, 255, 255, 0)" fill="none" class="stroke" mask="url(#Clip778)" />
    <path d="M 45.875501002004 5.304358717434894  C 45.91933867735469 5.305611222444895  45.48346693386773 5.318136272545104  45.48346693386773 4.9123246492986254  L 45.48346693386773 3.3654809619238506  C 45.48346693386773 2.691633266533074  44.71442885771543 2.7918336673346857  44.41007014028057 3.2339679358717603  L 44.41007014028057 4.9123246492986254  C 44.41007014028057 5.4296092184368945  43.61097194388776 5.439629258517044  43.61097194388776 4.9123246492986254  L 43.61097194388776 3.3654809619238506  C 43.61097194388776 2.712925851703403  42.86573146292585 2.7717935871743578  42.5375751503006 3.238977955911821  L 42.5375751503006 4.9123246492986254  C 42.5375751503006 5.432114228456925  41.74473947895791 5.4358717434869845  41.74473947895791 4.9123246492986254  L 41.74473947895791 2.6052104208417006  C 41.74473947895791 2.1042084168336714  42.53507014028057 2.0841683366733434  42.53507014028057 2.6052104208417006  L 42.53507014028057 2.647795591182387  C 42.65906813627254 2.467434869739492  43.058617234468954 2.1806112224448952  43.5195390781563 2.1806112224448952  C 43.961673346693374 2.1806112224448952  44.24223446893788 2.386022044088179  44.35495991983967 2.7292084168336714  C 44.52905811623248 2.4561623246493127  44.928607214428865 2.1806112224448952  45.38952905811624 2.1806112224448952  C 45.944388777555105 2.1806112224448952  46.27505010020039 2.473697394789582  46.27505010020039 3.0911823647294625  L 46.27505010020039 4.911072144288596  C 46.28131262525051 5.127755511022059  46.1059619238477 5.304358717434894  45.875501002004 5.304358717434894  Z " stroke-width="0" stroke-dasharray="0" stroke="rgba(255, 255, 255, 0)" fill="none" class="stroke" mask="url(#Clip778)" />
    <path d="M 49.63301603206412 4.014278557114238  C 49.8371743486974 4.014278557114238  49.99749498997994 3.846442885771552  50 3.6523046092184472  C 50 3.1212424849699403  49.59418837675349 2.1806112224448952  48.52329659318639 2.1806112224448952  C 47.6064629258517 2.1806112224448952  46.92635270541081 2.885771543086179  46.92635270541081 3.758767535070149  C 46.92635270541081 4.725701402805612  47.65656312625251 5.3419338677354915  48.574649298597194 5.3419338677354915  C 48.97169338677355 5.3419338677354915  49.72069138276552 5.197895791583193  49.72069138276552 4.843436873747521  C 49.72069138276552 4.61422845691385  49.45641282565131 4.4488977955911935  49.22845691382764 4.5628757515030145  C 48.60971943887776 4.891032064128268  47.84443887775552 4.668086172344715  47.75676352705409 4.014278557114238  L 49.63301603206412 4.014278557114238  Z " stroke-width="0" stroke-dasharray="0" stroke="rgba(255, 255, 255, 0)" fill="none" class="stroke" mask="url(#Clip778)" />
    <path d="M 49.24348697394788 3.4782064128256707  L 47.73922845691382 3.4782064128256707  C 47.86072144288576 2.546342685370746  49.190881763527045 2.62274549098197  49.24348697394788 3.4782064128256707  Z " stroke-width="0" stroke-dasharray="0" stroke="rgba(255, 255, 255, 0)" fill="none" class="stroke" mask="url(#Clip778)" />
  </g>
</svg>