<?xml version="1.0" encoding="utf-8"?>
<svg version="1.1" xmlns:xlink="http://www.w3.org/1999/xlink" width="19px" height="8px" xmlns="http://www.w3.org/2000/svg">
  <defs>
    <pattern id="BGPattern" patternUnits="userSpaceOnUse" alignment="0 0" imageRepeat="None" />
    <mask fill="white" id="Clip3376">
      <path d="M 1.9999999999999996 8  C 0.8959559279449099 7.998732534440702  0.0012674655592963544 7.104044072055089  0 6  L 0 2  C 0.0012674655592963544 0.8959559279449074  0.895955927944909 0.001267465559298131  1.9999999999999996 0  L 16.999999999999996 0  C 18.10404407205509 0.001267465559298131  18.998732534440702 0.895955927944911  18.999999999999996 2  L 19 6  C 18.998732534440702 7.104044072055089  18.10404407205509 7.998732534440702  16.999999999999996 8  L 1.9999999999999996 8  Z M 1.9999999999999996 2  L 1.9999999999999996 6  L 16.999999999999996 6  L 16.999999999999996 2  L 1.9999999999999996 2  Z " fill-rule="evenodd" />
    </mask>
  </defs>
  <g transform="matrix(1 0 0 1 -4 -18 )">
    <path d="M 1.9999999999999996 8  C 0.8959559279449099 7.998732534440702  0.0012674655592963544 7.104044072055089  0 6  L 0 2  C 0.0012674655592963544 0.8959559279449074  0.895955927944909 0.001267465559298131  1.9999999999999996 0  L 16.999999999999996 0  C 18.10404407205509 0.001267465559298131  18.998732534440702 0.895955927944911  18.999999999999996 2  L 19 6  C 18.998732534440702 7.104044072055089  18.10404407205509 7.998732534440702  16.999999999999996 8  L 1.9999999999999996 8  Z M 1.9999999999999996 2  L 1.9999999999999996 6  L 16.999999999999996 6  L 16.999999999999996 2  L 1.9999999999999996 2  Z " fill-rule="nonzero" fill="rgba(0, 0, 0, 1)" stroke="none" transform="matrix(1 0 0 1 4 18 )" class="fill" />
    <path d="M 1.9999999999999996 8  C 0.8959559279449099 7.998732534440702  0.0012674655592963544 7.104044072055089  0 6  L 0 2  C 0.0012674655592963544 0.8959559279449074  0.895955927944909 0.001267465559298131  1.9999999999999996 0  L 16.999999999999996 0  C 18.10404407205509 0.001267465559298131  18.998732534440702 0.895955927944911  18.999999999999996 2  L 19 6  C 18.998732534440702 7.104044072055089  18.10404407205509 7.998732534440702  16.999999999999996 8  L 1.9999999999999996 8  Z " stroke-width="0" stroke-dasharray="0" stroke="rgba(255, 255, 255, 0)" fill="none" transform="matrix(1 0 0 1 4 18 )" class="stroke" mask="url(#Clip3376)" />
    <path d="M 1.9999999999999996 2  L 1.9999999999999996 6  L 16.999999999999996 6  L 16.999999999999996 2  L 1.9999999999999996 2  Z " stroke-width="0" stroke-dasharray="0" stroke="rgba(255, 255, 255, 0)" fill="none" transform="matrix(1 0 0 1 4 18 )" class="stroke" mask="url(#Clip3376)" />
  </g>
</svg>