<?xml version="1.0" encoding="utf-8"?>
<svg version="1.1" xmlns:xlink="http://www.w3.org/1999/xlink" width="11px" height="8px" xmlns="http://www.w3.org/2000/svg">
  <defs>
    <pattern id="BGPattern" patternUnits="userSpaceOnUse" alignment="0 0" imageRepeat="None" />
    <mask fill="white" id="Clip3377">
      <path d="M 1.9999999999999996 8  C 0.895955927944909 7.998732534440704  0.0012674655592963542 7.104044072055091  0 6  L 0 2  C 0.0012674655592963542 0.8959559279449101  0.895955927944909 0.0012674655592954664  1.9999999999999996 0  L 8.999999999999996 0  C 10.104044072055093 0.0012674655592954664  10.998732534440702 0.8959559279449083  10.999999999999996 2  L 11 6  C 10.998732534440702 7.104044072055091  10.104044072055089 7.998732534440704  8.999999999999996 8  L 1.9999999999999996 8  Z M 1.9999999999999996 1.9988000000000001  L 1.9999999999999996 6  L 8.999999999999996 6  L 8.999999999999996 2  L 1.9999999999999996 1.9988000000000001  Z " fill-rule="evenodd" />
    </mask>
  </defs>
  <g transform="matrix(1 0 0 1 -12 -6 )">
    <path d="M 1.9999999999999996 8  C 0.895955927944909 7.998732534440704  0.0012674655592963542 7.104044072055091  0 6  L 0 2  C 0.0012674655592963542 0.8959559279449101  0.895955927944909 0.0012674655592954664  1.9999999999999996 0  L 8.999999999999996 0  C 10.104044072055093 0.0012674655592954664  10.998732534440702 0.8959559279449083  10.999999999999996 2  L 11 6  C 10.998732534440702 7.104044072055091  10.104044072055089 7.998732534440704  8.999999999999996 8  L 1.9999999999999996 8  Z M 1.9999999999999996 1.9988000000000001  L 1.9999999999999996 6  L 8.999999999999996 6  L 8.999999999999996 2  L 1.9999999999999996 1.9988000000000001  Z " fill-rule="nonzero" fill="rgba(0, 0, 0, 1)" stroke="none" transform="matrix(1 0 0 1 12 6 )" class="fill" />
    <path d="M 1.9999999999999996 8  C 0.895955927944909 7.998732534440704  0.0012674655592963542 7.104044072055091  0 6  L 0 2  C 0.0012674655592963542 0.8959559279449101  0.895955927944909 0.0012674655592954664  1.9999999999999996 0  L 8.999999999999996 0  C 10.104044072055093 0.0012674655592954664  10.998732534440702 0.8959559279449083  10.999999999999996 2  L 11 6  C 10.998732534440702 7.104044072055091  10.104044072055089 7.998732534440704  8.999999999999996 8  L 1.9999999999999996 8  Z " stroke-width="0" stroke-dasharray="0" stroke="rgba(255, 255, 255, 0)" fill="none" transform="matrix(1 0 0 1 12 6 )" class="stroke" mask="url(#Clip3377)" />
    <path d="M 1.9999999999999996 1.9988000000000001  L 1.9999999999999996 6  L 8.999999999999996 6  L 8.999999999999996 2  L 1.9999999999999996 1.9988000000000001  Z " stroke-width="0" stroke-dasharray="0" stroke="rgba(255, 255, 255, 0)" fill="none" transform="matrix(1 0 0 1 12 6 )" class="stroke" mask="url(#Clip3377)" />
  </g>
</svg>