<?xml version="1.0" encoding="utf-8"?>
<svg version="1.1" xmlns:xlink="http://www.w3.org/1999/xlink" width="16px" height="48px" xmlns="http://www.w3.org/2000/svg">
  <defs>
    <pattern id="BGPattern" patternUnits="userSpaceOnUse" alignment="0 0" imageRepeat="None" />
    <mask fill="white" id="Clip6775">
      <path d="M 11.218000000000004 21.5  L 8.126000000000001 18.41  L 0.9960000000000022 25.546  L 8.032000000000004 32.57  L 11.122000000000003 29.479999999999997  L 7.172000000000004 25.546  L 11.218000000000004 21.5  Z M 8.105999999999998 47.99199999999999  L 11.212 44.846  L 7.199999999999999 40.75  L 14.771999999999998 33.12  L 11.654 29.973999999999997  L 0.9939999999999998 40.779999999999994  L 1.2240000000000002 41.007999999999996  L 1.193999999999999 41.023999999999994  L 8.105999999999998 47.99199999999999  Z M 11.916000000000004 20.805999999999997  L 15.003999999999998 17.715999999999998  L 7.633999999999997 10.633999999999997  L 15.003999999999998 3.189999999999997  L 11.872 0  L 1.1960000000000015 10.704  L 1.4120000000000026 10.906  L 1.4120000000000026 10.92  L 11.916000000000004 20.805999999999997  Z " fill-rule="evenodd" />
    </mask>
  </defs>
  <g>
    <path d="M 11.218000000000004 21.5  L 8.126000000000001 18.41  L 0.9960000000000022 25.546  L 8.032000000000004 32.57  L 11.122000000000003 29.479999999999997  L 7.172000000000004 25.546  L 11.218000000000004 21.5  Z M 8.105999999999998 47.99199999999999  L 11.212 44.846  L 7.199999999999999 40.75  L 14.771999999999998 33.12  L 11.654 29.973999999999997  L 0.9939999999999998 40.779999999999994  L 1.2240000000000002 41.007999999999996  L 1.193999999999999 41.023999999999994  L 8.105999999999998 47.99199999999999  Z M 11.916000000000004 20.805999999999997  L 15.003999999999998 17.715999999999998  L 7.633999999999997 10.633999999999997  L 15.003999999999998 3.189999999999997  L 11.872 0  L 1.1960000000000015 10.704  L 1.4120000000000026 10.906  L 1.4120000000000026 10.92  L 11.916000000000004 20.805999999999997  Z " fill-rule="nonzero" fill="rgba(181, 49, 76, 1)" stroke="none" class="fill" />
    <path d="M 11.218000000000004 21.5  L 8.126000000000001 18.41  L 0.9960000000000022 25.546  L 8.032000000000004 32.57  L 11.122000000000003 29.479999999999997  L 7.172000000000004 25.546  L 11.218000000000004 21.5  Z " stroke-width="0" stroke-dasharray="0" stroke="rgba(255, 255, 255, 0)" fill="none" class="stroke" mask="url(#Clip6775)" />
    <path d="M 8.105999999999998 47.99199999999999  L 11.212 44.846  L 7.199999999999999 40.75  L 14.771999999999998 33.12  L 11.654 29.973999999999997  L 0.9939999999999998 40.779999999999994  L 1.2240000000000002 41.007999999999996  L 1.193999999999999 41.023999999999994  L 8.105999999999998 47.99199999999999  Z " stroke-width="0" stroke-dasharray="0" stroke="rgba(255, 255, 255, 0)" fill="none" class="stroke" mask="url(#Clip6775)" />
    <path d="M 11.916000000000004 20.805999999999997  L 15.003999999999998 17.715999999999998  L 7.633999999999997 10.633999999999997  L 15.003999999999998 3.189999999999997  L 11.872 0  L 1.1960000000000015 10.704  L 1.4120000000000026 10.906  L 1.4120000000000026 10.92  L 11.916000000000004 20.805999999999997  Z " stroke-width="0" stroke-dasharray="0" stroke="rgba(255, 255, 255, 0)" fill="none" class="stroke" mask="url(#Clip6775)" />
  </g>
</svg>