<?xml version="1.0" encoding="utf-8"?>
<svg version="1.1" xmlns:xlink="http://www.w3.org/1999/xlink" width="28px" height="28px" xmlns="http://www.w3.org/2000/svg">
  <defs>
    <pattern id="BGPattern" patternUnits="userSpaceOnUse" alignment="0 0" imageRepeat="None" />
    <mask fill="white" id="Clip575">
      <path d="M 2.2479999999999976 27.648000000000003  C 2.0239999999999974 27.872000000000003  1.735999999999997 28.000000000000007  1.4000000000000004 28  C 0.7440000000000002 28  0.20000000000000018 27.456  0.20000000000000018 26.8  C 0.20000000000000018 26.464000000000002  0.3280000000000003 26.176000000000002  0.552 25.952  L 25.352 1.152000000000001  C 25.592 0.9120000000000009  25.88 0.800000000000001  26.2 0.800000000000001  C 26.855999999999998 0.800000000000001  27.4 1.3440000000000012  27.4 2.000000000000001  C 27.4 2.3200000000000007  27.272 2.624000000000001  27.048 2.8480000000000008  L 2.2479999999999976 27.648000000000003  Z " fill-rule="evenodd" />
    </mask>
  </defs>
  <g>
    <path d="M 2.2479999999999976 27.648000000000003  C 2.0239999999999974 27.872000000000003  1.735999999999997 28.000000000000007  1.4000000000000004 28  C 0.7440000000000002 28  0.20000000000000018 27.456  0.20000000000000018 26.8  C 0.20000000000000018 26.464000000000002  0.3280000000000003 26.176000000000002  0.552 25.952  L 25.352 1.152000000000001  C 25.592 0.9120000000000009  25.88 0.800000000000001  26.2 0.800000000000001  C 26.855999999999998 0.800000000000001  27.4 1.3440000000000012  27.4 2.000000000000001  C 27.4 2.3200000000000007  27.272 2.624000000000001  27.048 2.8480000000000008  L 2.2479999999999976 27.648000000000003  Z " fill-rule="nonzero" fill="rgba(0, 0, 0, 1)" stroke="none" class="fill" />
    <path d="M 2.2479999999999976 27.648000000000003  C 2.0239999999999974 27.872000000000003  1.735999999999997 28.000000000000007  1.4000000000000004 28  C 0.7440000000000002 28  0.20000000000000018 27.456  0.20000000000000018 26.8  C 0.20000000000000018 26.464000000000002  0.3280000000000003 26.176000000000002  0.552 25.952  L 25.352 1.152000000000001  C 25.592 0.9120000000000009  25.88 0.800000000000001  26.2 0.800000000000001  C 26.855999999999998 0.800000000000001  27.4 1.3440000000000012  27.4 2.000000000000001  C 27.4 2.3200000000000007  27.272 2.624000000000001  27.048 2.8480000000000008  L 2.2479999999999976 27.648000000000003  Z " stroke-width="0" stroke-dasharray="0" stroke="rgba(255, 255, 255, 0)" fill="none" class="stroke" mask="url(#Clip575)" />
  </g>
</svg>