<?xml version="1.0" encoding="utf-8"?>
<svg version="1.1" xmlns:xlink="http://www.w3.org/1999/xlink" width="56px" height="44px" xmlns="http://www.w3.org/2000/svg">
  <defs>
    <pattern id="BGPattern" patternUnits="userSpaceOnUse" alignment="0 0" imageRepeat="None" />
    <mask fill="white" id="Clip2504">
      <path d="M 56 2  C 56 0.8937500000000006  55.10625 0  54 0  L 2 0  C 0.8937499999999997 0  0 0.8937500000000006  0 2  L 0 42  C 0 43.10625  0.8937499999999997 44  2 44  L 54 44  C 55.10625 44  56 43.10625  56 42  L 56 2  Z M 4.5 12  L 4.5 5  L 51.5 5  L 51.5 12  L 4.5 12  Z M 51 18  L 51 39  L 5 39  L 5 18  L 51 18  Z M 36.1875 35  C 36.1875 35.275  36.4125 35.5  36.6875 35  L 47 35  C 47.275 35.5  47.5 35.275  47.5 35  L 47.5 30.500000000000004  C 47.5 30.225  47.275 29.999999999999996  47 30  L 36.6875 30  C 36.4125 29.999999999999996  36.1875 30.225  36.1875 30.500000000000004  L 36.1875 35  Z " fill-rule="evenodd" />
    </mask>
  </defs>
  <g>
    <path d="M 56 2  C 56 0.8937500000000006  55.10625 0  54 0  L 2 0  C 0.8937499999999997 0  0 0.8937500000000006  0 2  L 0 42  C 0 43.10625  0.8937499999999997 44  2 44  L 54 44  C 55.10625 44  56 43.10625  56 42  L 56 2  Z M 4.5 12  L 4.5 5  L 51.5 5  L 51.5 12  L 4.5 12  Z M 51 18  L 51 39  L 5 39  L 5 18  L 51 18  Z M 36.1875 35  C 36.1875 35.275  36.4125 35.5  36.6875 35  L 47 35  C 47.275 35.5  47.5 35.275  47.5 35  L 47.5 30.500000000000004  C 47.5 30.225  47.275 29.999999999999996  47 30  L 36.6875 30  C 36.4125 29.999999999999996  36.1875 30.225  36.1875 30.500000000000004  L 36.1875 35  Z " fill-rule="nonzero" fill="rgba(0, 0, 0, 1)" stroke="none" class="fill" />
    <path d="M 56 2  C 56 0.8937500000000006  55.10625 0  54 0  L 2 0  C 0.8937499999999997 0  0 0.8937500000000006  0 2  L 0 42  C 0 43.10625  0.8937499999999997 44  2 44  L 54 44  C 55.10625 44  56 43.10625  56 42  L 56 2  Z " stroke-width="0" stroke-dasharray="0" stroke="rgba(255, 255, 255, 0)" fill="none" class="stroke" mask="url(#Clip2504)" />
    <path d="M 4.5 12  L 4.5 5  L 51.5 5  L 51.5 12  L 4.5 12  Z " stroke-width="0" stroke-dasharray="0" stroke="rgba(255, 255, 255, 0)" fill="none" class="stroke" mask="url(#Clip2504)" />
    <path d="M 51 18  L 51 39  L 5 39  L 5 18  L 51 18  Z " stroke-width="0" stroke-dasharray="0" stroke="rgba(255, 255, 255, 0)" fill="none" class="stroke" mask="url(#Clip2504)" />
    <path d="M 36.1875 35  C 36.1875 35.275  36.4125 35.5  36.6875 35  L 47 35  C 47.275 35.5  47.5 35.275  47.5 35  L 47.5 30.500000000000004  C 47.5 30.225  47.275 29.999999999999996  47 30  L 36.6875 30  C 36.4125 29.999999999999996  36.1875 30.225  36.1875 30.500000000000004  L 36.1875 35  Z " stroke-width="0" stroke-dasharray="0" stroke="rgba(255, 255, 255, 0)" fill="none" class="stroke" mask="url(#Clip2504)" />
  </g>
</svg>