<?xml version="1.0" encoding="utf-8"?>
<svg version="1.1" xmlns:xlink="http://www.w3.org/1999/xlink" width="50px" height="50px" xmlns="http://www.w3.org/2000/svg">
  <defs>
    <pattern id="BGPattern" patternUnits="userSpaceOnUse" alignment="0 0" imageRepeat="None" />
    <mask fill="white" id="Clip1394">
      <path d="M 25 0  C 38.810483870967744 0  50 11.189516129032256  50 25  C 50 38.810483870967744  38.810483870967744 50  25 50  C 11.189516129032256 50  0 38.810483870967744  0 25  C 0 11.189516129032256  11.189516129032256 0  25 0  Z M 23.28629032258064 36.481854838709694  C 24.23387096774195 37.429435483870975  25.76612903225808 37.429435483870975  26.713709677419363 36.481854838709694  L 40.372983870967744 22.82258064516128  C 41.320564516129025 21.875  41.320564516129025 20.342741935483843  40.372983870967744 19.405241935483843  L 38.659274193548384 17.691532258064512  C 37.7116935483871 16.74395161290323  36.179435483870975 16.74395161290323  35.241935483870975 17.691532258064512  L 25 27.933467741935488  L 14.758064516129025 17.691532258064512  C 13.810483870967744 16.74395161290323  12.278225806451616 16.74395161290323  11.340725806451616 17.691532258064512  L 9.627016129032256 19.4052419354839  C 8.679435483870975 20.35282258064518  8.679435483870975 21.88508064516128  9.627016129032256 22.82258064516128  L 23.28629032258064 36.481854838709694  Z " fill-rule="evenodd" />
    </mask>
  </defs>
  <g>
    <path d="M 25 0  C 38.810483870967744 0  50 11.189516129032256  50 25  C 50 38.810483870967744  38.810483870967744 50  25 50  C 11.189516129032256 50  0 38.810483870967744  0 25  C 0 11.189516129032256  11.189516129032256 0  25 0  Z M 23.28629032258064 36.481854838709694  C 24.23387096774195 37.429435483870975  25.76612903225808 37.429435483870975  26.713709677419363 36.481854838709694  L 40.372983870967744 22.82258064516128  C 41.320564516129025 21.875  41.320564516129025 20.342741935483843  40.372983870967744 19.405241935483843  L 38.659274193548384 17.691532258064512  C 37.7116935483871 16.74395161290323  36.179435483870975 16.74395161290323  35.241935483870975 17.691532258064512  L 25 27.933467741935488  L 14.758064516129025 17.691532258064512  C 13.810483870967744 16.74395161290323  12.278225806451616 16.74395161290323  11.340725806451616 17.691532258064512  L 9.627016129032256 19.4052419354839  C 8.679435483870975 20.35282258064518  8.679435483870975 21.88508064516128  9.627016129032256 22.82258064516128  L 23.28629032258064 36.481854838709694  Z " fill-rule="nonzero" fill="rgba(0, 0, 0, 1)" stroke="none" class="fill" />
    <path d="M 25 0  C 38.810483870967744 0  50 11.189516129032256  50 25  C 50 38.810483870967744  38.810483870967744 50  25 50  C 11.189516129032256 50  0 38.810483870967744  0 25  C 0 11.189516129032256  11.189516129032256 0  25 0  Z " stroke-width="0" stroke-dasharray="0" stroke="rgba(255, 255, 255, 0)" fill="none" class="stroke" mask="url(#Clip1394)" />
    <path d="M 23.28629032258064 36.481854838709694  C 24.23387096774195 37.429435483870975  25.76612903225808 37.429435483870975  26.713709677419363 36.481854838709694  L 40.372983870967744 22.82258064516128  C 41.320564516129025 21.875  41.320564516129025 20.342741935483843  40.372983870967744 19.405241935483843  L 38.659274193548384 17.691532258064512  C 37.7116935483871 16.74395161290323  36.179435483870975 16.74395161290323  35.241935483870975 17.691532258064512  L 25 27.933467741935488  L 14.758064516129025 17.691532258064512  C 13.810483870967744 16.74395161290323  12.278225806451616 16.74395161290323  11.340725806451616 17.691532258064512  L 9.627016129032256 19.4052419354839  C 8.679435483870975 20.35282258064518  8.679435483870975 21.88508064516128  9.627016129032256 22.82258064516128  L 23.28629032258064 36.481854838709694  Z " stroke-width="0" stroke-dasharray="0" stroke="rgba(255, 255, 255, 0)" fill="none" class="stroke" mask="url(#Clip1394)" />
  </g>
</svg>