<?xml version="1.0" encoding="utf-8"?>
<svg version="1.1" xmlns:xlink="http://www.w3.org/1999/xlink" width="4px" height="24px" xmlns="http://www.w3.org/2000/svg">
  <defs>
    <pattern id="BGPattern" patternUnits="userSpaceOnUse" alignment="0 0" imageRepeat="None" />
    <mask fill="white" id="Clip6237">
      <path d="M 0.5 16.5  L 0.5 24  L 3.5 24  L 3.5 9  L 2 9  L 2 3  L 3.5 3  L 3.5 2.1210000000000004  C 3.5 1.2925728752538101  2.82842712474619 0.6210000000000002  2 0.6210000000000002  C 1.1715728752538102 0.6210000000000002  0.5 1.2925728752538101  0.5 2.1210000000000004  L 0.5 10.5  L 2 10.5  L 2 16.5  L 0.5 16.5  Z " fill-rule="evenodd" />
    </mask>
  </defs>
  <g transform="matrix(1 0 0 1 -10 0 )">
    <path d="M 0.5 16.5  L 0.5 24  L 3.5 24  L 3.5 9  L 2 9  L 2 3  L 3.5 3  L 3.5 2.1210000000000004  C 3.5 1.2925728752538101  2.82842712474619 0.6210000000000002  2 0.6210000000000002  C 1.1715728752538102 0.6210000000000002  0.5 1.2925728752538101  0.5 2.1210000000000004  L 0.5 10.5  L 2 10.5  L 2 16.5  L 0.5 16.5  Z " fill-rule="nonzero" fill="rgba(0, 0, 0, 1)" stroke="none" transform="matrix(1 0 0 1 10 0 )" class="fill" />
    <path d="M 0.5 16.5  L 0.5 24  L 3.5 24  L 3.5 9  L 2 9  L 2 3  L 3.5 3  L 3.5 2.1210000000000004  C 3.5 1.2925728752538101  2.82842712474619 0.6210000000000002  2 0.6210000000000002  C 1.1715728752538102 0.6210000000000002  0.5 1.2925728752538101  0.5 2.1210000000000004  L 0.5 10.5  L 2 10.5  L 2 16.5  L 0.5 16.5  Z " stroke-width="0" stroke-dasharray="0" stroke="rgba(255, 255, 255, 0)" fill="none" transform="matrix(1 0 0 1 10 0 )" class="stroke" mask="url(#Clip6237)" />
  </g>
</svg>