<?xml version="1.0" encoding="utf-8"?>
<svg version="1.1" xmlns:xlink="http://www.w3.org/1999/xlink" width="14px" height="9px" xmlns="http://www.w3.org/2000/svg">
  <defs>
    <pattern id="BGPattern" patternUnits="userSpaceOnUse" alignment="0 0" imageRepeat="None" />
    <mask fill="white" id="Clip5051">
      <path d="M 0.43900000000000006 7.251999999999999  C 0.24300072650265567 7.472872361713158  0.19485030064147502 7.788198931072349  0.31599999999999984 8.057500000000001  C 0.4370395131508076 8.32676436281838  0.704781673688271 8.499974751762572  1 8.5  L 13 8.5  C 13.414414156808252 8.500000026825418  13.750200594435157 8.164213589198514  13.750200594435157 7.750000026825418  C 13.750200594435157 7.5664401694936245  13.682883751833739 7.389253678502984  13.561 7.251999999999999  L 7.561 0.5019999999999989  C 7.418662532570213 0.34158320042967283  7.214460961992416 0.24977404512489265  7 0.24977404512489265  C 6.785539038007585 0.24977404512489265  6.581337467429789 0.34158320042967283  6.439 0.5019999999999989  L 0.43900000000000006 7.251999999999999  Z " fill-rule="evenodd" />
    </mask>
  </defs>
  <g transform="matrix(1 0 0 1 -5 -8 )">
    <path d="M 0.43900000000000006 7.251999999999999  C 0.24300072650265567 7.472872361713158  0.19485030064147502 7.788198931072349  0.31599999999999984 8.057500000000001  C 0.4370395131508076 8.32676436281838  0.704781673688271 8.499974751762572  1 8.5  L 13 8.5  C 13.414414156808252 8.500000026825418  13.750200594435157 8.164213589198514  13.750200594435157 7.750000026825418  C 13.750200594435157 7.5664401694936245  13.682883751833739 7.389253678502984  13.561 7.251999999999999  L 7.561 0.5019999999999989  C 7.418662532570213 0.34158320042967283  7.214460961992416 0.24977404512489265  7 0.24977404512489265  C 6.785539038007585 0.24977404512489265  6.581337467429789 0.34158320042967283  6.439 0.5019999999999989  L 0.43900000000000006 7.251999999999999  Z " fill-rule="nonzero" fill="rgba(0, 0, 0, 1)" stroke="none" transform="matrix(1 0 0 1 5 8 )" class="fill" />
    <path d="M 0.43900000000000006 7.251999999999999  C 0.24300072650265567 7.472872361713158  0.19485030064147502 7.788198931072349  0.31599999999999984 8.057500000000001  C 0.4370395131508076 8.32676436281838  0.704781673688271 8.499974751762572  1 8.5  L 13 8.5  C 13.414414156808252 8.500000026825418  13.750200594435157 8.164213589198514  13.750200594435157 7.750000026825418  C 13.750200594435157 7.5664401694936245  13.682883751833739 7.389253678502984  13.561 7.251999999999999  L 7.561 0.5019999999999989  C 7.418662532570213 0.34158320042967283  7.214460961992416 0.24977404512489265  7 0.24977404512489265  C 6.785539038007585 0.24977404512489265  6.581337467429789 0.34158320042967283  6.439 0.5019999999999989  L 0.43900000000000006 7.251999999999999  Z " stroke-width="0" stroke-dasharray="0" stroke="rgba(255, 255, 255, 0)" fill="none" transform="matrix(1 0 0 1 5 8 )" class="stroke" mask="url(#Clip5051)" />
  </g>
</svg>