<?xml version="1.0" encoding="utf-8"?>
<svg version="1.1" xmlns:xlink="http://www.w3.org/1999/xlink" width="26px" height="26px" xmlns="http://www.w3.org/2000/svg">
  <defs>
    <pattern id="BGPattern" patternUnits="userSpaceOnUse" alignment="0 0" imageRepeat="None" />
    <mask fill="white" id="Clip184">
      <path d="M 16.648 11.048000000000002  C 16.408 11.288000000000002  16.104 11.400000000000002  15.8 11.4  C 15.128000000000002 11.4  14.6 10.872  14.6 10.184000000000001  C 14.6 9.896  14.712000000000002 9.592  14.952000000000002 9.352  L 21.704 2.6000000000000005  L 17.384 2.6000000000000005  C 16.712 2.6000000000000005  16.2 2.072000000000001  16.2 1.3840000000000003  C 16.2 0.6959999999999997  16.712 0.20000000000000018  17.384 0.20000000000000018  L 24.6 0.20000000000000018  C 25.256 0.20000000000000018  25.8 0.6960000000000002  25.8 1.4000000000000004  L 25.8 8.632000000000001  C 25.8 9.272000000000002  25.256 9.8  24.648 9.8  C 23.944 9.8  23.4 9.304  23.4 8.632000000000001  L 23.4 4.296000000000001  L 16.648 11.048000000000002  Z M 8.616 25.800000000000004  L 1.4000000000000004 25.8  C 0.7440000000000002 25.8  0.20000000000000018 25.304000000000002  0.20000000000000018 24.6  L 0.20000000000000018 17.384  C 0.20000000000000018 16.744  0.7440000000000002 16.2  1.3520000000000003 16.2  C 2.056 16.2  2.6000000000000005 16.695999999999998  2.6000000000000005 17.368  L 2.6000000000000005 21.704  L 9.352 14.952000000000002  C 9.592 14.712000000000003  9.896 14.6  10.200000000000001 14.6  C 10.872000000000002 14.6  11.4 15.128000000000002  11.4 15.816000000000003  C 11.4 16.104000000000003  11.288 16.408  11.048 16.648000000000003  L 4.296 23.400000000000002  L 8.616 23.400000000000002  C 9.288 23.400000000000002  9.799999999999999 23.928  9.799999999999999 24.616000000000003  C 9.799999999999999 25.304000000000006  9.287999999999998 25.800000000000004  8.616 25.800000000000004  Z " fill-rule="evenodd" />
    </mask>
  </defs>
  <g>
    <path d="M 16.648 11.048000000000002  C 16.408 11.288000000000002  16.104 11.400000000000002  15.8 11.4  C 15.128000000000002 11.4  14.6 10.872  14.6 10.184000000000001  C 14.6 9.896  14.712000000000002 9.592  14.952000000000002 9.352  L 21.704 2.6000000000000005  L 17.384 2.6000000000000005  C 16.712 2.6000000000000005  16.2 2.072000000000001  16.2 1.3840000000000003  C 16.2 0.6959999999999997  16.712 0.20000000000000018  17.384 0.20000000000000018  L 24.6 0.20000000000000018  C 25.256 0.20000000000000018  25.8 0.6960000000000002  25.8 1.4000000000000004  L 25.8 8.632000000000001  C 25.8 9.272000000000002  25.256 9.8  24.648 9.8  C 23.944 9.8  23.4 9.304  23.4 8.632000000000001  L 23.4 4.296000000000001  L 16.648 11.048000000000002  Z M 8.616 25.800000000000004  L 1.4000000000000004 25.8  C 0.7440000000000002 25.8  0.20000000000000018 25.304000000000002  0.20000000000000018 24.6  L 0.20000000000000018 17.384  C 0.20000000000000018 16.744  0.7440000000000002 16.2  1.3520000000000003 16.2  C 2.056 16.2  2.6000000000000005 16.695999999999998  2.6000000000000005 17.368  L 2.6000000000000005 21.704  L 9.352 14.952000000000002  C 9.592 14.712000000000003  9.896 14.6  10.200000000000001 14.6  C 10.872000000000002 14.6  11.4 15.128000000000002  11.4 15.816000000000003  C 11.4 16.104000000000003  11.288 16.408  11.048 16.648000000000003  L 4.296 23.400000000000002  L 8.616 23.400000000000002  C 9.288 23.400000000000002  9.799999999999999 23.928  9.799999999999999 24.616000000000003  C 9.799999999999999 25.304000000000006  9.287999999999998 25.800000000000004  8.616 25.800000000000004  Z " fill-rule="nonzero" fill="rgba(0, 0, 0, 1)" stroke="none" class="fill" />
    <path d="M 16.648 11.048000000000002  C 16.408 11.288000000000002  16.104 11.400000000000002  15.8 11.4  C 15.128000000000002 11.4  14.6 10.872  14.6 10.184000000000001  C 14.6 9.896  14.712000000000002 9.592  14.952000000000002 9.352  L 21.704 2.6000000000000005  L 17.384 2.6000000000000005  C 16.712 2.6000000000000005  16.2 2.072000000000001  16.2 1.3840000000000003  C 16.2 0.6959999999999997  16.712 0.20000000000000018  17.384 0.20000000000000018  L 24.6 0.20000000000000018  C 25.256 0.20000000000000018  25.8 0.6960000000000002  25.8 1.4000000000000004  L 25.8 8.632000000000001  C 25.8 9.272000000000002  25.256 9.8  24.648 9.8  C 23.944 9.8  23.4 9.304  23.4 8.632000000000001  L 23.4 4.296000000000001  L 16.648 11.048000000000002  Z " stroke-width="0" stroke-dasharray="0" stroke="rgba(255, 255, 255, 0)" fill="none" class="stroke" mask="url(#Clip184)" />
    <path d="M 8.616 25.800000000000004  L 1.4000000000000004 25.8  C 0.7440000000000002 25.8  0.20000000000000018 25.304000000000002  0.20000000000000018 24.6  L 0.20000000000000018 17.384  C 0.20000000000000018 16.744  0.7440000000000002 16.2  1.3520000000000003 16.2  C 2.056 16.2  2.6000000000000005 16.695999999999998  2.6000000000000005 17.368  L 2.6000000000000005 21.704  L 9.352 14.952000000000002  C 9.592 14.712000000000003  9.896 14.6  10.200000000000001 14.6  C 10.872000000000002 14.6  11.4 15.128000000000002  11.4 15.816000000000003  C 11.4 16.104000000000003  11.288 16.408  11.048 16.648000000000003  L 4.296 23.400000000000002  L 8.616 23.400000000000002  C 9.288 23.400000000000002  9.799999999999999 23.928  9.799999999999999 24.616000000000003  C 9.799999999999999 25.304000000000006  9.287999999999998 25.800000000000004  8.616 25.800000000000004  Z " stroke-width="0" stroke-dasharray="0" stroke="rgba(255, 255, 255, 0)" fill="none" class="stroke" mask="url(#Clip184)" />
  </g>
</svg>