<?xml version="1.0" encoding="utf-8"?>
<svg version="1.1" xmlns:xlink="http://www.w3.org/1999/xlink" width="50px" height="50px" xmlns="http://www.w3.org/2000/svg">
  <defs>
    <pattern id="BGPattern" patternUnits="userSpaceOnUse" alignment="0 0" imageRepeat="None" />
    <mask fill="white" id="Clip2073">
      <path d="M 50 25  C 50 11.189516129032256  38.810483870967744 0  25 0  C 11.189516129032256 0  0 11.189516129032256  0 25  C 0 38.810483870967744  11.189516129032256 50  25 50  C 38.810483870967744 50  50 38.810483870967744  50 25  Z M 28.407258064516128 21.199596774193537  C 27.631048387096797 20.725806451612897  27.631048387096797 19.596774193548384  28.407258064516128 19.122983870967744  L 36.471774193548384 14.284274193548384  C 37.64112903225808 13.588709677419358  38.89112903225805 15.060483870967744  38.0241935483871 16.09879032258064  L 34.63709677419354 20.16129032258064  L 38.0241935483871 24.22379032258064  C 38.90120967741936 25.272177419354847  37.63104838709677 26.723790322580644  36.47177419354841 26.038306451612897  L 28.407258064516128 21.199596774193537  Z M 15.362903225806463 20.16129032258064  L 11.975806451612897 16.09879032258064  C 11.10887096774195 15.060483870967744  12.35887096774195 13.588709677419358  13.528225806451616 14.284274193548384  L 21.592741935483872 19.122983870967744  C 22.379032258064512 19.596774193548384  22.379032258064512 20.725806451612897  21.592741935483872 21.199596774193537  L 13.528225806451616 26.038306451612897  C 12.368951612903231 26.723790322580644  11.10887096774195 25.27217741935482  11.975806451612897 24.22379032258064  L 15.362903225806463 20.16129032258064  Z M 12.580645161290334 38.981854838709694  C 13.377016129032256 32.64112903225805  19.768145161290306 28.22580645161292  25 28.22580645161292  C 30.231854838709666 28.22580645161292  36.622983870967744 32.64112903225805  37.419354838709694 38.981854838709694  C 37.590725806451616 40.35282258064518  36.61290322580646 41.461693548387075  35.63508064516128 41.038306451612925  C 33.0241935483871 39.919354838709694  29.143145161290334 39.28427419354841  25 39.28427419354841  C 20.856854838709666 39.28427419354841  16.975806451612897 39.919354838709694  14.364919354838717 41.038306451612925  C 13.377016129032256 41.461693548387075  12.409274193548384 40.33266129032256  12.580645161290334 38.981854838709694  Z " fill-rule="evenodd" />
    </mask>
  </defs>
  <g>
    <path d="M 50 25  C 50 11.189516129032256  38.810483870967744 0  25 0  C 11.189516129032256 0  0 11.189516129032256  0 25  C 0 38.810483870967744  11.189516129032256 50  25 50  C 38.810483870967744 50  50 38.810483870967744  50 25  Z M 28.407258064516128 21.199596774193537  C 27.631048387096797 20.725806451612897  27.631048387096797 19.596774193548384  28.407258064516128 19.122983870967744  L 36.471774193548384 14.284274193548384  C 37.64112903225808 13.588709677419358  38.89112903225805 15.060483870967744  38.0241935483871 16.09879032258064  L 34.63709677419354 20.16129032258064  L 38.0241935483871 24.22379032258064  C 38.90120967741936 25.272177419354847  37.63104838709677 26.723790322580644  36.47177419354841 26.038306451612897  L 28.407258064516128 21.199596774193537  Z M 15.362903225806463 20.16129032258064  L 11.975806451612897 16.09879032258064  C 11.10887096774195 15.060483870967744  12.35887096774195 13.588709677419358  13.528225806451616 14.284274193548384  L 21.592741935483872 19.122983870967744  C 22.379032258064512 19.596774193548384  22.379032258064512 20.725806451612897  21.592741935483872 21.199596774193537  L 13.528225806451616 26.038306451612897  C 12.368951612903231 26.723790322580644  11.10887096774195 25.27217741935482  11.975806451612897 24.22379032258064  L 15.362903225806463 20.16129032258064  Z M 12.580645161290334 38.981854838709694  C 13.377016129032256 32.64112903225805  19.768145161290306 28.22580645161292  25 28.22580645161292  C 30.231854838709666 28.22580645161292  36.622983870967744 32.64112903225805  37.419354838709694 38.981854838709694  C 37.590725806451616 40.35282258064518  36.61290322580646 41.461693548387075  35.63508064516128 41.038306451612925  C 33.0241935483871 39.919354838709694  29.143145161290334 39.28427419354841  25 39.28427419354841  C 20.856854838709666 39.28427419354841  16.975806451612897 39.919354838709694  14.364919354838717 41.038306451612925  C 13.377016129032256 41.461693548387075  12.409274193548384 40.33266129032256  12.580645161290334 38.981854838709694  Z " fill-rule="nonzero" fill="rgba(0, 0, 0, 1)" stroke="none" class="fill" />
    <path d="M 50 25  C 50 11.189516129032256  38.810483870967744 0  25 0  C 11.189516129032256 0  0 11.189516129032256  0 25  C 0 38.810483870967744  11.189516129032256 50  25 50  C 38.810483870967744 50  50 38.810483870967744  50 25  Z " stroke-width="0" stroke-dasharray="0" stroke="rgba(255, 255, 255, 0)" fill="none" class="stroke" mask="url(#Clip2073)" />
    <path d="M 28.407258064516128 21.199596774193537  C 27.631048387096797 20.725806451612897  27.631048387096797 19.596774193548384  28.407258064516128 19.122983870967744  L 36.471774193548384 14.284274193548384  C 37.64112903225808 13.588709677419358  38.89112903225805 15.060483870967744  38.0241935483871 16.09879032258064  L 34.63709677419354 20.16129032258064  L 38.0241935483871 24.22379032258064  C 38.90120967741936 25.272177419354847  37.63104838709677 26.723790322580644  36.47177419354841 26.038306451612897  L 28.407258064516128 21.199596774193537  Z " stroke-width="0" stroke-dasharray="0" stroke="rgba(255, 255, 255, 0)" fill="none" class="stroke" mask="url(#Clip2073)" />
    <path d="M 15.362903225806463 20.16129032258064  L 11.975806451612897 16.09879032258064  C 11.10887096774195 15.060483870967744  12.35887096774195 13.588709677419358  13.528225806451616 14.284274193548384  L 21.592741935483872 19.122983870967744  C 22.379032258064512 19.596774193548384  22.379032258064512 20.725806451612897  21.592741935483872 21.199596774193537  L 13.528225806451616 26.038306451612897  C 12.368951612903231 26.723790322580644  11.10887096774195 25.27217741935482  11.975806451612897 24.22379032258064  L 15.362903225806463 20.16129032258064  Z " stroke-width="0" stroke-dasharray="0" stroke="rgba(255, 255, 255, 0)" fill="none" class="stroke" mask="url(#Clip2073)" />
    <path d="M 12.580645161290334 38.981854838709694  C 13.377016129032256 32.64112903225805  19.768145161290306 28.22580645161292  25 28.22580645161292  C 30.231854838709666 28.22580645161292  36.622983870967744 32.64112903225805  37.419354838709694 38.981854838709694  C 37.590725806451616 40.35282258064518  36.61290322580646 41.461693548387075  35.63508064516128 41.038306451612925  C 33.0241935483871 39.919354838709694  29.143145161290334 39.28427419354841  25 39.28427419354841  C 20.856854838709666 39.28427419354841  16.975806451612897 39.919354838709694  14.364919354838717 41.038306451612925  C 13.377016129032256 41.461693548387075  12.409274193548384 40.33266129032256  12.580645161290334 38.981854838709694  Z " stroke-width="0" stroke-dasharray="0" stroke="rgba(255, 255, 255, 0)" fill="none" class="stroke" mask="url(#Clip2073)" />
  </g>
</svg>