<?xml version="1.0" encoding="utf-8"?>
<svg version="1.1" xmlns:xlink="http://www.w3.org/1999/xlink" width="24px" height="22px" xmlns="http://www.w3.org/2000/svg">
  <defs>
    <pattern id="BGPattern" patternUnits="userSpaceOnUse" alignment="0 0" imageRepeat="None" />
    <mask fill="white" id="Clip4675">
      <path d="M 0 5  L 0 2  C 0 1.1715728752538097  0.6715728752538098 0.5  1.5 0.5  L 22.5 0.5  C 23.32842712474619 0.5  24 1.1715728752538097  24 2  L 24 5  C 24 5.82842712474619  23.32842712474619 6.5  22.5 6.5  L 22.499999999999993 17.749999999999996  C 22.499999999999993 19.821067811865472  20.821067811865472 21.499999999999993  18.75 21.5  L 5.249999999999999 21.499999999999993  C 3.1789321881345245 21.499999999999993  1.4999999999999998 19.821067811865472  1.5 17.75  L 1.5 6.5  C 0.6715728752538098 6.5  0 5.82842712474619  0 5  Z M 21 6.5  L 3 6.5  L 3 17.749999999999996  C 3 18.992640687119284  4.007359312880714 19.999999999999996  5.25 20  L 18.749999999999996 20  C 19.992640687119284 19.999999999999996  20.999999999999996 18.992640687119284  21 17.75  L 21 6.5  Z M 22.5 5  L 22.5 2  L 1.5 2  L 1.5 5  L 22.5 5  Z M 8.25 11  C 7.835786437626905 11  7.5 10.664213562373096  7.5 10.25  C 7.5 9.835786437626904  7.835786437626905 9.5  8.25 9.5  L 15.75 9.5  C 16.164213562373096 9.5  16.5 9.835786437626904  16.5 10.25  C 16.5 10.664213562373096  16.164213562373096 11  15.75 11  L 8.25 11  Z " fill-rule="evenodd" />
    </mask>
  </defs>
  <g>
    <path d="M 0 5  L 0 2  C 0 1.1715728752538097  0.6715728752538098 0.5  1.5 0.5  L 22.5 0.5  C 23.32842712474619 0.5  24 1.1715728752538097  24 2  L 24 5  C 24 5.82842712474619  23.32842712474619 6.5  22.5 6.5  L 22.499999999999993 17.749999999999996  C 22.499999999999993 19.821067811865472  20.821067811865472 21.499999999999993  18.75 21.5  L 5.249999999999999 21.499999999999993  C 3.1789321881345245 21.499999999999993  1.4999999999999998 19.821067811865472  1.5 17.75  L 1.5 6.5  C 0.6715728752538098 6.5  0 5.82842712474619  0 5  Z M 21 6.5  L 3 6.5  L 3 17.749999999999996  C 3 18.992640687119284  4.007359312880714 19.999999999999996  5.25 20  L 18.749999999999996 20  C 19.992640687119284 19.999999999999996  20.999999999999996 18.992640687119284  21 17.75  L 21 6.5  Z M 22.5 5  L 22.5 2  L 1.5 2  L 1.5 5  L 22.5 5  Z M 8.25 11  C 7.835786437626905 11  7.5 10.664213562373096  7.5 10.25  C 7.5 9.835786437626904  7.835786437626905 9.5  8.25 9.5  L 15.75 9.5  C 16.164213562373096 9.5  16.5 9.835786437626904  16.5 10.25  C 16.5 10.664213562373096  16.164213562373096 11  15.75 11  L 8.25 11  Z " fill-rule="nonzero" fill="rgba(0, 0, 0, 1)" stroke="none" class="fill" />
    <path d="M 0 5  L 0 2  C 0 1.1715728752538097  0.6715728752538098 0.5  1.5 0.5  L 22.5 0.5  C 23.32842712474619 0.5  24 1.1715728752538097  24 2  L 24 5  C 24 5.82842712474619  23.32842712474619 6.5  22.5 6.5  L 22.499999999999993 17.749999999999996  C 22.499999999999993 19.821067811865472  20.821067811865472 21.499999999999993  18.75 21.5  L 5.249999999999999 21.499999999999993  C 3.1789321881345245 21.499999999999993  1.4999999999999998 19.821067811865472  1.5 17.75  L 1.5 6.5  C 0.6715728752538098 6.5  0 5.82842712474619  0 5  Z " stroke-width="0" stroke-dasharray="0" stroke="rgba(255, 255, 255, 0)" fill="none" class="stroke" mask="url(#Clip4675)" />
    <path d="M 21 6.5  L 3 6.5  L 3 17.749999999999996  C 3 18.992640687119284  4.007359312880714 19.999999999999996  5.25 20  L 18.749999999999996 20  C 19.992640687119284 19.999999999999996  20.999999999999996 18.992640687119284  21 17.75  L 21 6.5  Z " stroke-width="0" stroke-dasharray="0" stroke="rgba(255, 255, 255, 0)" fill="none" class="stroke" mask="url(#Clip4675)" />
    <path d="M 22.5 5  L 22.5 2  L 1.5 2  L 1.5 5  L 22.5 5  Z " stroke-width="0" stroke-dasharray="0" stroke="rgba(255, 255, 255, 0)" fill="none" class="stroke" mask="url(#Clip4675)" />
    <path d="M 8.25 11  C 7.835786437626905 11  7.5 10.664213562373096  7.5 10.25  C 7.5 9.835786437626904  7.835786437626905 9.5  8.25 9.5  L 15.75 9.5  C 16.164213562373096 9.5  16.5 9.835786437626904  16.5 10.25  C 16.5 10.664213562373096  16.164213562373096 11  15.75 11  L 8.25 11  Z " stroke-width="0" stroke-dasharray="0" stroke="rgba(255, 255, 255, 0)" fill="none" class="stroke" mask="url(#Clip4675)" />
  </g>
</svg>