<?xml version="1.0" encoding="utf-8"?>
<svg version="1.1" xmlns:xlink="http://www.w3.org/1999/xlink" width="48px" height="48px" xmlns="http://www.w3.org/2000/svg">
  <defs>
    <pattern id="BGPattern" patternUnits="userSpaceOnUse" alignment="0 0" imageRepeat="None" />
    <mask fill="white" id="Clip7285">
      <path d="M 48 0  L 0 0  L 0 48  L 48 48  L 48 0  Z M 20.681999999999995 10.202  L 20.68 10.2  C 20.846 10.228  20.908 10.392  20.992 10.516  C 21.1 11.224  21.192 11.936  21.3 12.646  C 21.602326860632285 12.311935727770884  21.929964818928696 12.001682640731012  22.279999999999998 11.718  C 24.041147786724586 10.34610608805952  26.343787721247597 9.879654911612736  28.500000000000007 10.458000000000002  C 29.925237305590315 10.931030011787204  31.157923927801043 11.854842992897291  32.012 13.089999999999996  C 32.39543602907698 13.612029341552475  32.69878016008492 14.188383190467572  32.912 14.800000000000004  C 33.269470113907104 15.974687484338247  33.40511461218117 17.205661306175443  33.312 18.43  C 33.2381599906484 20.699849045833343  32.41620261569534 22.881657201931997  30.973999999999997 24.636  C 29.653051571247893 26.20834431277057  27.78162331845692 27.21702697195837  25.74199999999999 27.455999999999996  C 24.253174941858855 27.618951508336508  22.747361052867753 27.400787430269695  21.365999999999996 26.822000000000003  C 21.403999999999996 28.842000000000002  21.429333333333332 30.860666666666674  21.441999999999997 32.878  C 21.41277314136201 33.81205691961603  21.471027147696983 34.74679936609448  21.615999999999993 35.669999999999995  C 21.653007700060314 35.97337651209823  21.877512801084414 36.22033212322473  22.175999999999995 36.286  C 22.775999999999996 36.358000000000004  23.391999999999996 36.312000000000005  23.999999999999996 36.326  C 24.113999999999997 36.326  24.259999999999998 36.4  24.251999999999995 36.526  C 24.25999999999999 36.898  24.269999999999996 37.272000000000006  24.243999999999993 37.646  C 24.152 37.83  23.903999999999996 37.786  23.733999999999995 37.79  C 20.777851774867578 37.64197905475371  17.816148225132412 37.64197905475371  14.859999999999994 37.79  L 14.719999999999994 37.678  C 14.640904490503022 37.231279342940084  14.664154300930711 36.77243749597011  14.787999999999993 36.336  C 15.387999999999991 36.266  15.999999999999993 36.376  16.595999999999993 36.272  C 16.977999999999994 36.172  17.131999999999994 35.751999999999995  17.185999999999993 35.403999999999996  C 17.26599999999999 34.763999999999996  17.23999999999999 34.12  18 33.477999999999994  L 18 16.7  C 17.269999999999992 16.387999999999998  17.281999999999993 16.08  17.25399999999999 15.769999999999998  C 17.228678223271025 15.254652043495376  16.98048856590701 14.77579199869892  16.573999999999995 14.457999999999998  C 16.154006080832218 14.16453421065594  15.711268144255794 13.905044302209335  15.249999999999993 13.681999999999999  C 15.06766154790384 13.598873593909264  14.90989568254285 13.470042952762952  14.791999999999994 13.307999999999996  C 14.758564452770718 13.084083034299915  14.763977030727741 12.856078187860284  14.807999999999995 12.634  C 14.935190626474068 12.52273322465434  15.08444799491998 12.43958528424155  15.245999999999995 12.39  C 16.705999999999996 11.76  18.157999999999994 11.118  19.615999999999996 10.49  C 19.949834398392845 10.327214225914863  20.311608602361623 10.229474103266636  20.681999999999995 10.202  Z M 24.660000000000004 12.5  L 24.660000000000004 12.492  C 24.555323086558992 12.487641002092708  24.450511604636482 12.496375292252917  24.348 12.517999999999999  C 23.15405949555158 12.642778899932445  22.0689682924053 13.267814690090376  21.362 14.238  C 21.372 17.118  21.362 19.997999999999998  21.368 22.878000000000004  C 21.335733380352682 23.546585858534975  21.549141637783187 24.203883291420915  21.967999999999996 24.726  C 23.06106014462592 25.71507722611397  24.545493470954582 26.151718576566793  26 25.912  C 27.144784643947524 25.66463253677349  28.09841929346106 24.877268823023453  28.558 23.800000000000004  C 29.182625671345868 22.302486809601668  29.41328827476132 20.66994641348813  29.228 19.058  C 29.14552093742875 17.739804827963862  28.841251486588092 16.444969276053065  28.328000000000003 15.227999999999996  C 27.983641648297592 14.394040672781367  27.423877877202194 13.666554834637664  26.70600000000001 13.12  C 26.107343264057533 12.700896492556584  25.39059699475169 12.483700653372996  24.660000000000004 12.5  Z " fill-rule="evenodd" />
    </mask>
  </defs>
  <g>
    <path d="M 48 0  L 0 0  L 0 48  L 48 48  L 48 0  Z M 20.681999999999995 10.202  L 20.68 10.2  C 20.846 10.228  20.908 10.392  20.992 10.516  C 21.1 11.224  21.192 11.936  21.3 12.646  C 21.602326860632285 12.311935727770884  21.929964818928696 12.001682640731012  22.279999999999998 11.718  C 24.041147786724586 10.34610608805952  26.343787721247597 9.879654911612736  28.500000000000007 10.458000000000002  C 29.925237305590315 10.931030011787204  31.157923927801043 11.854842992897291  32.012 13.089999999999996  C 32.39543602907698 13.612029341552475  32.69878016008492 14.188383190467572  32.912 14.800000000000004  C 33.269470113907104 15.974687484338247  33.40511461218117 17.205661306175443  33.312 18.43  C 33.2381599906484 20.699849045833343  32.41620261569534 22.881657201931997  30.973999999999997 24.636  C 29.653051571247893 26.20834431277057  27.78162331845692 27.21702697195837  25.74199999999999 27.455999999999996  C 24.253174941858855 27.618951508336508  22.747361052867753 27.400787430269695  21.365999999999996 26.822000000000003  C 21.403999999999996 28.842000000000002  21.429333333333332 30.860666666666674  21.441999999999997 32.878  C 21.41277314136201 33.81205691961603  21.471027147696983 34.74679936609448  21.615999999999993 35.669999999999995  C 21.653007700060314 35.97337651209823  21.877512801084414 36.22033212322473  22.175999999999995 36.286  C 22.775999999999996 36.358000000000004  23.391999999999996 36.312000000000005  23.999999999999996 36.326  C 24.113999999999997 36.326  24.259999999999998 36.4  24.251999999999995 36.526  C 24.25999999999999 36.898  24.269999999999996 37.272000000000006  24.243999999999993 37.646  C 24.152 37.83  23.903999999999996 37.786  23.733999999999995 37.79  C 20.777851774867578 37.64197905475371  17.816148225132412 37.64197905475371  14.859999999999994 37.79  L 14.719999999999994 37.678  C 14.640904490503022 37.231279342940084  14.664154300930711 36.77243749597011  14.787999999999993 36.336  C 15.387999999999991 36.266  15.999999999999993 36.376  16.595999999999993 36.272  C 16.977999999999994 36.172  17.131999999999994 35.751999999999995  17.185999999999993 35.403999999999996  C 17.26599999999999 34.763999999999996  17.23999999999999 34.12  18 33.477999999999994  L 18 16.7  C 17.269999999999992 16.387999999999998  17.281999999999993 16.08  17.25399999999999 15.769999999999998  C 17.228678223271025 15.254652043495376  16.98048856590701 14.77579199869892  16.573999999999995 14.457999999999998  C 16.154006080832218 14.16453421065594  15.711268144255794 13.905044302209335  15.249999999999993 13.681999999999999  C 15.06766154790384 13.598873593909264  14.90989568254285 13.470042952762952  14.791999999999994 13.307999999999996  C 14.758564452770718 13.084083034299915  14.763977030727741 12.856078187860284  14.807999999999995 12.634  C 14.935190626474068 12.52273322465434  15.08444799491998 12.43958528424155  15.245999999999995 12.39  C 16.705999999999996 11.76  18.157999999999994 11.118  19.615999999999996 10.49  C 19.949834398392845 10.327214225914863  20.311608602361623 10.229474103266636  20.681999999999995 10.202  Z M 24.660000000000004 12.5  L 24.660000000000004 12.492  C 24.555323086558992 12.487641002092708  24.450511604636482 12.496375292252917  24.348 12.517999999999999  C 23.15405949555158 12.642778899932445  22.0689682924053 13.267814690090376  21.362 14.238  C 21.372 17.118  21.362 19.997999999999998  21.368 22.878000000000004  C 21.335733380352682 23.546585858534975  21.549141637783187 24.203883291420915  21.967999999999996 24.726  C 23.06106014462592 25.71507722611397  24.545493470954582 26.151718576566793  26 25.912  C 27.144784643947524 25.66463253677349  28.09841929346106 24.877268823023453  28.558 23.800000000000004  C 29.182625671345868 22.302486809601668  29.41328827476132 20.66994641348813  29.228 19.058  C 29.14552093742875 17.739804827963862  28.841251486588092 16.444969276053065  28.328000000000003 15.227999999999996  C 27.983641648297592 14.394040672781367  27.423877877202194 13.666554834637664  26.70600000000001 13.12  C 26.107343264057533 12.700896492556584  25.39059699475169 12.483700653372996  24.660000000000004 12.5  Z " fill-rule="nonzero" fill="rgba(51, 102, 153, 1)" stroke="none" class="fill" />
    <path d="M 48 0  L 0 0  L 0 48  L 48 48  L 48 0  Z " stroke-width="0" stroke-dasharray="0" stroke="rgba(255, 255, 255, 0)" fill="none" class="stroke" mask="url(#Clip7285)" />
    <path d="M 20.681999999999995 10.202  L 20.68 10.2  C 20.846 10.228  20.908 10.392  20.992 10.516  C 21.1 11.224  21.192 11.936  21.3 12.646  C 21.602326860632285 12.311935727770884  21.929964818928696 12.001682640731012  22.279999999999998 11.718  C 24.041147786724586 10.34610608805952  26.343787721247597 9.879654911612736  28.500000000000007 10.458000000000002  C 29.925237305590315 10.931030011787204  31.157923927801043 11.854842992897291  32.012 13.089999999999996  C 32.39543602907698 13.612029341552475  32.69878016008492 14.188383190467572  32.912 14.800000000000004  C 33.269470113907104 15.974687484338247  33.40511461218117 17.205661306175443  33.312 18.43  C 33.2381599906484 20.699849045833343  32.41620261569534 22.881657201931997  30.973999999999997 24.636  C 29.653051571247893 26.20834431277057  27.78162331845692 27.21702697195837  25.74199999999999 27.455999999999996  C 24.253174941858855 27.618951508336508  22.747361052867753 27.400787430269695  21.365999999999996 26.822000000000003  C 21.403999999999996 28.842000000000002  21.429333333333332 30.860666666666674  21.441999999999997 32.878  C 21.41277314136201 33.81205691961603  21.471027147696983 34.74679936609448  21.615999999999993 35.669999999999995  C 21.653007700060314 35.97337651209823  21.877512801084414 36.22033212322473  22.175999999999995 36.286  C 22.775999999999996 36.358000000000004  23.391999999999996 36.312000000000005  23.999999999999996 36.326  C 24.113999999999997 36.326  24.259999999999998 36.4  24.251999999999995 36.526  C 24.25999999999999 36.898  24.269999999999996 37.272000000000006  24.243999999999993 37.646  C 24.152 37.83  23.903999999999996 37.786  23.733999999999995 37.79  C 20.777851774867578 37.64197905475371  17.816148225132412 37.64197905475371  14.859999999999994 37.79  L 14.719999999999994 37.678  C 14.640904490503022 37.231279342940084  14.664154300930711 36.77243749597011  14.787999999999993 36.336  C 15.387999999999991 36.266  15.999999999999993 36.376  16.595999999999993 36.272  C 16.977999999999994 36.172  17.131999999999994 35.751999999999995  17.185999999999993 35.403999999999996  C 17.26599999999999 34.763999999999996  17.23999999999999 34.12  18 33.477999999999994  L 18 16.7  C 17.269999999999992 16.387999999999998  17.281999999999993 16.08  17.25399999999999 15.769999999999998  C 17.228678223271025 15.254652043495376  16.98048856590701 14.77579199869892  16.573999999999995 14.457999999999998  C 16.154006080832218 14.16453421065594  15.711268144255794 13.905044302209335  15.249999999999993 13.681999999999999  C 15.06766154790384 13.598873593909264  14.90989568254285 13.470042952762952  14.791999999999994 13.307999999999996  C 14.758564452770718 13.084083034299915  14.763977030727741 12.856078187860284  14.807999999999995 12.634  C 14.935190626474068 12.52273322465434  15.08444799491998 12.43958528424155  15.245999999999995 12.39  C 16.705999999999996 11.76  18.157999999999994 11.118  19.615999999999996 10.49  C 19.949834398392845 10.327214225914863  20.311608602361623 10.229474103266636  20.681999999999995 10.202  Z " stroke-width="0" stroke-dasharray="0" stroke="rgba(255, 255, 255, 0)" fill="none" class="stroke" mask="url(#Clip7285)" />
    <path d="M 24.660000000000004 12.5  L 24.660000000000004 12.492  C 24.555323086558992 12.487641002092708  24.450511604636482 12.496375292252917  24.348 12.517999999999999  C 23.15405949555158 12.642778899932445  22.0689682924053 13.267814690090376  21.362 14.238  C 21.372 17.118  21.362 19.997999999999998  21.368 22.878000000000004  C 21.335733380352682 23.546585858534975  21.549141637783187 24.203883291420915  21.967999999999996 24.726  C 23.06106014462592 25.71507722611397  24.545493470954582 26.151718576566793  26 25.912  C 27.144784643947524 25.66463253677349  28.09841929346106 24.877268823023453  28.558 23.800000000000004  C 29.182625671345868 22.302486809601668  29.41328827476132 20.66994641348813  29.228 19.058  C 29.14552093742875 17.739804827963862  28.841251486588092 16.444969276053065  28.328000000000003 15.227999999999996  C 27.983641648297592 14.394040672781367  27.423877877202194 13.666554834637664  26.70600000000001 13.12  C 26.107343264057533 12.700896492556584  25.39059699475169 12.483700653372996  24.660000000000004 12.5  Z " stroke-width="0" stroke-dasharray="0" stroke="rgba(255, 255, 255, 0)" fill="none" class="stroke" mask="url(#Clip7285)" />
  </g>
</svg>