<?xml version="1.0" encoding="utf-8"?>
<svg version="1.1" xmlns:xlink="http://www.w3.org/1999/xlink" width="24px" height="24px" xmlns="http://www.w3.org/2000/svg">
  <defs>
    <pattern id="BGPattern" patternUnits="userSpaceOnUse" alignment="0 0" imageRepeat="None" />
    <mask fill="white" id="Clip6383">
      <path d="M 3.4005000000000005 1.4685  L 3.4005 1.47  C 3.860722482032487 1.009723939016275  4.484950277310881 0.7511390359320105  5.135841040252588 0.7511390359320105  C 5.89288668786729 0.7511390359320105  6.6075558078636725 1.100551248414508  7.0725 1.698  L 9.594 4.940999999999999  C 10.057500000000001 5.534999999999999  10.221 6.310499999999999  10.038 7.040999999999999  L 9.268500000000001 10.1205  C 9.187098656765388 10.445535350258218  9.28218701877567 10.789447749385232  9.519 11.026499999999999  L 12.975000000000003 14.481000000000002  C 13.212052250614772 14.717812981224334  13.555964649741782 14.812901343234618  13.881 14.7315  L 16.959 13.962  C 17.6905120217304 13.779302506777004  18.465405182131576 13.943020119538422  19.060499999999998 14.405999999999999  L 22.3035 16.927500000000002  C 23.468999999999998 17.8335  23.576999999999998 19.557000000000002  22.533 20.5995  L 21.078 22.0545  C 20.0385 23.094  18.482999999999997 23.5515  17.0325 23.0415  C 13.322112408584811 21.735518741974925  9.953331025491465 19.6109973523023  7.176000000000001 16.8255  C 4.389960580674758 14.048320287365009  2.2649191162528486 10.679527172113772  0.9585 6.968999999999999  C 0.4485 5.5184999999999995  0.9059999999999999 3.963  1.9455000000000002 2.9219999999999997  L 3.4005000000000005 1.4685  Z " fill-rule="evenodd" />
    </mask>
  </defs>
  <g>
    <path d="M 3.4005000000000005 1.4685  L 3.4005 1.47  C 3.860722482032487 1.009723939016275  4.484950277310881 0.7511390359320105  5.135841040252588 0.7511390359320105  C 5.89288668786729 0.7511390359320105  6.6075558078636725 1.100551248414508  7.0725 1.698  L 9.594 4.940999999999999  C 10.057500000000001 5.534999999999999  10.221 6.310499999999999  10.038 7.040999999999999  L 9.268500000000001 10.1205  C 9.187098656765388 10.445535350258218  9.28218701877567 10.789447749385232  9.519 11.026499999999999  L 12.975000000000003 14.481000000000002  C 13.212052250614772 14.717812981224334  13.555964649741782 14.812901343234618  13.881 14.7315  L 16.959 13.962  C 17.6905120217304 13.779302506777004  18.465405182131576 13.943020119538422  19.060499999999998 14.405999999999999  L 22.3035 16.927500000000002  C 23.468999999999998 17.8335  23.576999999999998 19.557000000000002  22.533 20.5995  L 21.078 22.0545  C 20.0385 23.094  18.482999999999997 23.5515  17.0325 23.0415  C 13.322112408584811 21.735518741974925  9.953331025491465 19.6109973523023  7.176000000000001 16.8255  C 4.389960580674758 14.048320287365009  2.2649191162528486 10.679527172113772  0.9585 6.968999999999999  C 0.4485 5.5184999999999995  0.9059999999999999 3.963  1.9455000000000002 2.9219999999999997  L 3.4005000000000005 1.4685  Z " fill-rule="nonzero" fill="rgba(0, 0, 0, 1)" stroke="none" class="fill" />
    <path d="M 3.4005000000000005 1.4685  L 3.4005 1.47  C 3.860722482032487 1.009723939016275  4.484950277310881 0.7511390359320105  5.135841040252588 0.7511390359320105  C 5.89288668786729 0.7511390359320105  6.6075558078636725 1.100551248414508  7.0725 1.698  L 9.594 4.940999999999999  C 10.057500000000001 5.534999999999999  10.221 6.310499999999999  10.038 7.040999999999999  L 9.268500000000001 10.1205  C 9.187098656765388 10.445535350258218  9.28218701877567 10.789447749385232  9.519 11.026499999999999  L 12.975000000000003 14.481000000000002  C 13.212052250614772 14.717812981224334  13.555964649741782 14.812901343234618  13.881 14.7315  L 16.959 13.962  C 17.6905120217304 13.779302506777004  18.465405182131576 13.943020119538422  19.060499999999998 14.405999999999999  L 22.3035 16.927500000000002  C 23.468999999999998 17.8335  23.576999999999998 19.557000000000002  22.533 20.5995  L 21.078 22.0545  C 20.0385 23.094  18.482999999999997 23.5515  17.0325 23.0415  C 13.322112408584811 21.735518741974925  9.953331025491465 19.6109973523023  7.176000000000001 16.8255  C 4.389960580674758 14.048320287365009  2.2649191162528486 10.679527172113772  0.9585 6.968999999999999  C 0.4485 5.5184999999999995  0.9059999999999999 3.963  1.9455000000000002 2.9219999999999997  L 3.4005000000000005 1.4685  Z " stroke-width="0" stroke-dasharray="0" stroke="rgba(255, 255, 255, 0)" fill="none" class="stroke" mask="url(#Clip6383)" />
  </g>
</svg>