<?xml version="1.0" encoding="utf-8"?>
<svg version="1.1" xmlns:xlink="http://www.w3.org/1999/xlink" width="50px" height="49px" xmlns="http://www.w3.org/2000/svg">
  <defs>
    <pattern id="BGPattern" patternUnits="userSpaceOnUse" alignment="0 0" imageRepeat="None" />
    <mask fill="white" id="Clip1256">
      <path d="M 21.258351893095778 7.149220489977721  C 20.16703786191536 6.113585746102444  20.14476614699332 4.387527839643639  21.213808463251667 3.329621380846334  L 23.68596881959911 0.8574610244988891  C 24.732739420935417 -0.18930957683741667  26.425389755011143 -0.18930957683741667  27.461024498886417 0.8574610244988891  L 49.109131403118056 22.494432071269472  C 50.15590200445433 23.541202672605777  50.15590200445433 25.233853006681503  49.109131403118056 26.26948775055678  L 27.461024498886417 47.91759465478839  C 26.41425389755011 48.964365256124694  24.72160356347439 48.964365256124694  23.68596881959911 47.91759465478839  L 21.213808463251667 45.445434298440944  C 20.155902004454347 44.38752783964364  20.17817371937639 42.66146993318483  21.258351893095778 41.625835189309555  L 34.67706013363028 28  L 2.672605790645875 28  C 1.191536748329625 28.841870824053444  0 27.650334075723805  0 26.169265033407555  L 0 22.605790645879722  C 0 21.124721603563472  1.191536748329625 19.933184855233833  2.672605790645875 20  L 34.67706013363028 20  L 21.258351893095778 7.149220489977721  Z " fill-rule="evenodd" />
    </mask>
  </defs>
  <g>
    <path d="M 21.258351893095778 7.149220489977721  C 20.16703786191536 6.113585746102444  20.14476614699332 4.387527839643639  21.213808463251667 3.329621380846334  L 23.68596881959911 0.8574610244988891  C 24.732739420935417 -0.18930957683741667  26.425389755011143 -0.18930957683741667  27.461024498886417 0.8574610244988891  L 49.109131403118056 22.494432071269472  C 50.15590200445433 23.541202672605777  50.15590200445433 25.233853006681503  49.109131403118056 26.26948775055678  L 27.461024498886417 47.91759465478839  C 26.41425389755011 48.964365256124694  24.72160356347439 48.964365256124694  23.68596881959911 47.91759465478839  L 21.213808463251667 45.445434298440944  C 20.155902004454347 44.38752783964364  20.17817371937639 42.66146993318483  21.258351893095778 41.625835189309555  L 34.67706013363028 28  L 2.672605790645875 28  C 1.191536748329625 28.841870824053444  0 27.650334075723805  0 26.169265033407555  L 0 22.605790645879722  C 0 21.124721603563472  1.191536748329625 19.933184855233833  2.672605790645875 20  L 34.67706013363028 20  L 21.258351893095778 7.149220489977721  Z " fill-rule="nonzero" fill="rgba(0, 0, 0, 1)" stroke="none" class="fill" />
    <path d="M 21.258351893095778 7.149220489977721  C 20.16703786191536 6.113585746102444  20.14476614699332 4.387527839643639  21.213808463251667 3.329621380846334  L 23.68596881959911 0.8574610244988891  C 24.732739420935417 -0.18930957683741667  26.425389755011143 -0.18930957683741667  27.461024498886417 0.8574610244988891  L 49.109131403118056 22.494432071269472  C 50.15590200445433 23.541202672605777  50.15590200445433 25.233853006681503  49.109131403118056 26.26948775055678  L 27.461024498886417 47.91759465478839  C 26.41425389755011 48.964365256124694  24.72160356347439 48.964365256124694  23.68596881959911 47.91759465478839  L 21.213808463251667 45.445434298440944  C 20.155902004454347 44.38752783964364  20.17817371937639 42.66146993318483  21.258351893095778 41.625835189309555  L 34.67706013363028 28  L 2.672605790645875 28  C 1.191536748329625 28.841870824053444  0 27.650334075723805  0 26.169265033407555  L 0 22.605790645879722  C 0 21.124721603563472  1.191536748329625 19.933184855233833  2.672605790645875 20  L 34.67706013363028 20  L 21.258351893095778 7.149220489977721  Z " stroke-width="0" stroke-dasharray="0" stroke="rgba(255, 255, 255, 0)" fill="none" class="stroke" mask="url(#Clip1256)" />
  </g>
</svg>