<?xml version="1.0" encoding="utf-8"?>
<svg version="1.1" xmlns:xlink="http://www.w3.org/1999/xlink" width="22px" height="18px" xmlns="http://www.w3.org/2000/svg">
  <defs>
    <pattern id="BGPattern" patternUnits="userSpaceOnUse" alignment="0 0" imageRepeat="None" />
    <mask fill="white" id="Clip5663">
      <path d="M 0.5 15.75  L 0.5 2.249999999999999  C 0.5 1.0073593128807143  1.5073593128807146 0  2.75 0  L 6.895999999999999 0  C 8.332999999999998 0  9.535999999999998 0.8399999999999999  10.362499999999999 1.7759999999999998  C 10.977500000000001 2.4720000000000004  11.719999999999999 3  12.500000000000002 3  L 19.25 3  C 20.492640687119284 3  21.5 4.007359312880714  21.5 5.25  L 21.5 15.749999999999996  C 21.5 16.992640687119284  20.492640687119284 17.999999999999996  19.25 18  L 2.75 17.999999999999996  C 1.5073593128807141 17.999999999999996  0.5 16.992640687119284  0.5 15.75  Z M 6.896000000000001 1.5  L 2.75 1.5  C 2.335786437626905 1.5  2 1.835786437626905  2 2.25  L 2 6  L 20 6  L 20 5.25  C 20 4.835786437626905  19.664213562373096 4.5  19.25 4.5  L 12.500000000000002 4.5  C 11.053999999999998 4.5  9.935 3.5565000000000007  9.239 2.769  C 8.561 2.0010000000000003  7.73 1.5  6.896000000000001 1.5  Z M 20 15.75  L 20 7.5  L 2 7.5  L 2 15.75  C 2 16.164213562373096  2.335786437626905 16.5  2.75 16.5  L 19.25 16.5  C 19.664213562373096 16.5  20 16.164213562373096  20 15.75  Z " fill-rule="evenodd" />
    </mask>
  </defs>
  <g>
    <path d="M 0.5 15.75  L 0.5 2.249999999999999  C 0.5 1.0073593128807143  1.5073593128807146 0  2.75 0  L 6.895999999999999 0  C 8.332999999999998 0  9.535999999999998 0.8399999999999999  10.362499999999999 1.7759999999999998  C 10.977500000000001 2.4720000000000004  11.719999999999999 3  12.500000000000002 3  L 19.25 3  C 20.492640687119284 3  21.5 4.007359312880714  21.5 5.25  L 21.5 15.749999999999996  C 21.5 16.992640687119284  20.492640687119284 17.999999999999996  19.25 18  L 2.75 17.999999999999996  C 1.5073593128807141 17.999999999999996  0.5 16.992640687119284  0.5 15.75  Z M 6.896000000000001 1.5  L 2.75 1.5  C 2.335786437626905 1.5  2 1.835786437626905  2 2.25  L 2 6  L 20 6  L 20 5.25  C 20 4.835786437626905  19.664213562373096 4.5  19.25 4.5  L 12.500000000000002 4.5  C 11.053999999999998 4.5  9.935 3.5565000000000007  9.239 2.769  C 8.561 2.0010000000000003  7.73 1.5  6.896000000000001 1.5  Z M 20 15.75  L 20 7.5  L 2 7.5  L 2 15.75  C 2 16.164213562373096  2.335786437626905 16.5  2.75 16.5  L 19.25 16.5  C 19.664213562373096 16.5  20 16.164213562373096  20 15.75  Z " fill-rule="nonzero" fill="rgba(0, 0, 0, 1)" stroke="none" class="fill" />
    <path d="M 0.5 15.75  L 0.5 2.249999999999999  C 0.5 1.0073593128807143  1.5073593128807146 0  2.75 0  L 6.895999999999999 0  C 8.332999999999998 0  9.535999999999998 0.8399999999999999  10.362499999999999 1.7759999999999998  C 10.977500000000001 2.4720000000000004  11.719999999999999 3  12.500000000000002 3  L 19.25 3  C 20.492640687119284 3  21.5 4.007359312880714  21.5 5.25  L 21.5 15.749999999999996  C 21.5 16.992640687119284  20.492640687119284 17.999999999999996  19.25 18  L 2.75 17.999999999999996  C 1.5073593128807141 17.999999999999996  0.5 16.992640687119284  0.5 15.75  Z " stroke-width="0" stroke-dasharray="0" stroke="rgba(255, 255, 255, 0)" fill="none" class="stroke" mask="url(#Clip5663)" />
    <path d="M 6.896000000000001 1.5  L 2.75 1.5  C 2.335786437626905 1.5  2 1.835786437626905  2 2.25  L 2 6  L 20 6  L 20 5.25  C 20 4.835786437626905  19.664213562373096 4.5  19.25 4.5  L 12.500000000000002 4.5  C 11.053999999999998 4.5  9.935 3.5565000000000007  9.239 2.769  C 8.561 2.0010000000000003  7.73 1.5  6.896000000000001 1.5  Z " stroke-width="0" stroke-dasharray="0" stroke="rgba(255, 255, 255, 0)" fill="none" class="stroke" mask="url(#Clip5663)" />
    <path d="M 20 15.75  L 20 7.5  L 2 7.5  L 2 15.75  C 2 16.164213562373096  2.335786437626905 16.5  2.75 16.5  L 19.25 16.5  C 19.664213562373096 16.5  20 16.164213562373096  20 15.75  Z " stroke-width="0" stroke-dasharray="0" stroke="rgba(255, 255, 255, 0)" fill="none" class="stroke" mask="url(#Clip5663)" />
  </g>
</svg>