<?xml version="1.0" encoding="utf-8"?>
<svg version="1.1" xmlns:xlink="http://www.w3.org/1999/xlink" width="24px" height="24px" xmlns="http://www.w3.org/2000/svg">
  <defs>
    <pattern id="BGPattern" patternUnits="userSpaceOnUse" alignment="0 0" imageRepeat="None" />
    <mask fill="white" id="Clip6250">
      <path d="M 24 12  C 24 18.627416997969522  18.627416997969522 24  12 24  C 5.372583002030479 24  0 18.627416997969522  0 12  C 0 5.372583002030479  5.372583002030479 0  12 0  C 18.627416997969522 0  24 5.372583002030479  24 12  Z M 17.25000014245265 7.50046225420739  C 17.09407231608688 7.50046225420739  16.942021355053456 7.549061831091411  16.815 7.6395  L 12.75 10.542  L 12.75 8.25  C 12.749744815306048 7.835967026255986  12.414033194836804 7.50046225420739  12.000000142452649 7.50046225420739  C 11.84407231608688 7.50046225420739  11.692021355053452 7.549061831091411  11.565 7.6395  L 7.5 10.542  L 7.5 8.25  C 7.5 7.835786437626905  7.164213562373095 7.5  6.75 7.5  C 6.335786437626905 7.5  6 7.835786437626905  6 8.25  L 6 15.75  C 6 16.164213562373096  6.335786437626905 16.5  6.75 16.5  C 7.164213562373095 16.5  7.5 16.164213562373096  7.5 15.75  L 7.5 13.457999999999998  L 11.565 16.360500000000002  C 11.692021355053452 16.45093816890859  11.844072316086878 16.499537745792612  12.000000142452649 16.499537745792612  C 12.414033194836808 16.499537745792612  12.749744815306052 16.164032973744014  12.75 15.75  L 12.75 13.457999999999998  L 16.815 16.360500000000002  C 16.942021355053456 16.45093816890859  17.094072316086876 16.49953774579261  17.25000014245265 16.49953774579261  C 17.664033194836804 16.49953774579261  17.999744815306048 16.164032973744014  18 15.75  L 18 8.25  C 17.999744815306048 7.835967026255986  17.664033194836804 7.50046225420739  17.25000014245265 7.50046225420739  Z " fill-rule="evenodd" />
    </mask>
  </defs>
  <g>
    <path d="M 24 12  C 24 18.627416997969522  18.627416997969522 24  12 24  C 5.372583002030479 24  0 18.627416997969522  0 12  C 0 5.372583002030479  5.372583002030479 0  12 0  C 18.627416997969522 0  24 5.372583002030479  24 12  Z M 17.25000014245265 7.50046225420739  C 17.09407231608688 7.50046225420739  16.942021355053456 7.549061831091411  16.815 7.6395  L 12.75 10.542  L 12.75 8.25  C 12.749744815306048 7.835967026255986  12.414033194836804 7.50046225420739  12.000000142452649 7.50046225420739  C 11.84407231608688 7.50046225420739  11.692021355053452 7.549061831091411  11.565 7.6395  L 7.5 10.542  L 7.5 8.25  C 7.5 7.835786437626905  7.164213562373095 7.5  6.75 7.5  C 6.335786437626905 7.5  6 7.835786437626905  6 8.25  L 6 15.75  C 6 16.164213562373096  6.335786437626905 16.5  6.75 16.5  C 7.164213562373095 16.5  7.5 16.164213562373096  7.5 15.75  L 7.5 13.457999999999998  L 11.565 16.360500000000002  C 11.692021355053452 16.45093816890859  11.844072316086878 16.499537745792612  12.000000142452649 16.499537745792612  C 12.414033194836808 16.499537745792612  12.749744815306052 16.164032973744014  12.75 15.75  L 12.75 13.457999999999998  L 16.815 16.360500000000002  C 16.942021355053456 16.45093816890859  17.094072316086876 16.49953774579261  17.25000014245265 16.49953774579261  C 17.664033194836804 16.49953774579261  17.999744815306048 16.164032973744014  18 15.75  L 18 8.25  C 17.999744815306048 7.835967026255986  17.664033194836804 7.50046225420739  17.25000014245265 7.50046225420739  Z " fill-rule="nonzero" fill="rgba(0, 0, 0, 1)" stroke="none" class="fill" />
    <path d="M 24 12  C 24 18.627416997969522  18.627416997969522 24  12 24  C 5.372583002030479 24  0 18.627416997969522  0 12  C 0 5.372583002030479  5.372583002030479 0  12 0  C 18.627416997969522 0  24 5.372583002030479  24 12  Z " stroke-width="0" stroke-dasharray="0" stroke="rgba(255, 255, 255, 0)" fill="none" class="stroke" mask="url(#Clip6250)" />
    <path d="M 17.25000014245265 7.50046225420739  C 17.09407231608688 7.50046225420739  16.942021355053456 7.549061831091411  16.815 7.6395  L 12.75 10.542  L 12.75 8.25  C 12.749744815306048 7.835967026255986  12.414033194836804 7.50046225420739  12.000000142452649 7.50046225420739  C 11.84407231608688 7.50046225420739  11.692021355053452 7.549061831091411  11.565 7.6395  L 7.5 10.542  L 7.5 8.25  C 7.5 7.835786437626905  7.164213562373095 7.5  6.75 7.5  C 6.335786437626905 7.5  6 7.835786437626905  6 8.25  L 6 15.75  C 6 16.164213562373096  6.335786437626905 16.5  6.75 16.5  C 7.164213562373095 16.5  7.5 16.164213562373096  7.5 15.75  L 7.5 13.457999999999998  L 11.565 16.360500000000002  C 11.692021355053452 16.45093816890859  11.844072316086878 16.499537745792612  12.000000142452649 16.499537745792612  C 12.414033194836808 16.499537745792612  12.749744815306052 16.164032973744014  12.75 15.75  L 12.75 13.457999999999998  L 16.815 16.360500000000002  C 16.942021355053456 16.45093816890859  17.094072316086876 16.49953774579261  17.25000014245265 16.49953774579261  C 17.664033194836804 16.49953774579261  17.999744815306048 16.164032973744014  18 15.75  L 18 8.25  C 17.999744815306048 7.835967026255986  17.664033194836804 7.50046225420739  17.25000014245265 7.50046225420739  Z " stroke-width="0" stroke-dasharray="0" stroke="rgba(255, 255, 255, 0)" fill="none" class="stroke" mask="url(#Clip6250)" />
  </g>
</svg>