<?xml version="1.0" encoding="utf-8"?>
<svg version="1.1" xmlns:xlink="http://www.w3.org/1999/xlink" width="50px" height="50px" xmlns="http://www.w3.org/2000/svg">
  <defs>
    <pattern id="BGPattern" patternUnits="userSpaceOnUse" alignment="0 0" imageRepeat="None" />
    <mask fill="white" id="Clip751">
      <path d="M 50 25  C 50 11.19254032258064  38.80745967741939 0  25 0  C 11.192540322580669 0  0 11.19254032258064  0 25  C 0 38.80745967741939  11.192540322580669 50  25 50  C 38.80745967741939 50  50 38.80745967741939  50 25  Z M 38.5 27  C 39.25 27.16633064516128  39.75 28.000000000000004  39.5 28.749999999999996  C 37.83366935483872 35.33366935483872  31.83366935483872 40  25 40  C 18.16633064516128 40  12.166330645161281 35.33366935483872  10.5 28.749999999999996  C 10.333669354838719 28.000000000000004  10.75 27.16633064516128  11.5 27  C 12.25 26.83366935483872  13.08366935483872 27.250000000000004  13.25 28.000000000000004  C 14.666330645161283 33.33366935483872  19.5 37.08366935483872  25 37.08366935483872  C 30.5 37.08366935483872  35.33366935483872 33.33366935483872  36.75 28.000000000000004  C 36.91633064516128 27.250000000000004  37.75 26.75  38.5 27  Z " fill-rule="evenodd" />
    </mask>
  </defs>
  <g>
    <path d="M 50 25  C 50 11.19254032258064  38.80745967741939 0  25 0  C 11.192540322580669 0  0 11.19254032258064  0 25  C 0 38.80745967741939  11.192540322580669 50  25 50  C 38.80745967741939 50  50 38.80745967741939  50 25  Z M 38.5 27  C 39.25 27.16633064516128  39.75 28.000000000000004  39.5 28.749999999999996  C 37.83366935483872 35.33366935483872  31.83366935483872 40  25 40  C 18.16633064516128 40  12.166330645161281 35.33366935483872  10.5 28.749999999999996  C 10.333669354838719 28.000000000000004  10.75 27.16633064516128  11.5 27  C 12.25 26.83366935483872  13.08366935483872 27.250000000000004  13.25 28.000000000000004  C 14.666330645161283 33.33366935483872  19.5 37.08366935483872  25 37.08366935483872  C 30.5 37.08366935483872  35.33366935483872 33.33366935483872  36.75 28.000000000000004  C 36.91633064516128 27.250000000000004  37.75 26.75  38.5 27  Z " fill-rule="nonzero" fill="rgba(0, 0, 0, 1)" stroke="none" class="fill" />
    <path d="M 50 25  C 50 11.19254032258064  38.80745967741939 0  25 0  C 11.192540322580669 0  0 11.19254032258064  0 25  C 0 38.80745967741939  11.192540322580669 50  25 50  C 38.80745967741939 50  50 38.80745967741939  50 25  Z " stroke-width="0" stroke-dasharray="0" stroke="rgba(255, 255, 255, 0)" fill="none" class="stroke" mask="url(#Clip751)" />
    <path d="M 38.5 27  C 39.25 27.16633064516128  39.75 28.000000000000004  39.5 28.749999999999996  C 37.83366935483872 35.33366935483872  31.83366935483872 40  25 40  C 18.16633064516128 40  12.166330645161281 35.33366935483872  10.5 28.749999999999996  C 10.333669354838719 28.000000000000004  10.75 27.16633064516128  11.5 27  C 12.25 26.83366935483872  13.08366935483872 27.250000000000004  13.25 28.000000000000004  C 14.666330645161283 33.33366935483872  19.5 37.08366935483872  25 37.08366935483872  C 30.5 37.08366935483872  35.33366935483872 33.33366935483872  36.75 28.000000000000004  C 36.91633064516128 27.250000000000004  37.75 26.75  38.5 27  Z " stroke-width="0" stroke-dasharray="0" stroke="rgba(255, 255, 255, 0)" fill="none" class="stroke" mask="url(#Clip751)" />
  </g>
</svg>