<?xml version="1.0" encoding="utf-8"?>
<svg version="1.1" xmlns:xlink="http://www.w3.org/1999/xlink" width="48px" height="36px" xmlns="http://www.w3.org/2000/svg">
  <defs>
    <pattern id="BGPattern" patternUnits="userSpaceOnUse" alignment="0 0" imageRepeat="None" />
    <mask fill="white" id="Clip7207">
      <path d="M 39.45 34.54599999999999  L 39.448 34.544  L 39.494 34.45399999999999  C 39.53604871862212 34.379219693650214  39.571515620030226 34.300924835824766  39.6 34.21999999999999  L 39.604 34.209999999999994  C 39.7475505234065 33.822190315467495  39.78483724043229 33.40305999630727  39.711999999999996 32.995999999999995  L 39.714 33.01  C 39.636411647543035 32.56898961405124  39.47700292367572 32.14638691205404  39.244 31.763999999999996  L 39.254 31.779999999999994  L 28.619999999999997 13.073999999999995  L 26.996000000000002 10.233999999999995  L 25.381999999999998 13.073999999999995  L 14.754000000000001 31.779999999999994  C 14.549121355903521 32.15602311866858  14.411072020430858 32.56475742565627  14.345999999999997 32.98799999999999  L 14.343999999999998 33.00999999999999  C 14.257663884360415 33.49078322918394  14.313262398441257 33.986304985929465  14.503999999999998 34.43599999999999  L 14.497999999999998 34.419999999999995  C 14.526512146761952 34.49025913998033  14.559927834795957 34.558427143569695  14.597999999999995 34.623999999999995  L 14.593999999999998 34.61599999999999  C 14.913999999999998 35.16599999999999  15.593999999999998 35.81999999999999  17.093999999999998 35.81999999999999  L 36.89 35.81999999999999  C 37.204 35.81999999999999  38.74 35.75599999999999  39.45 34.54599999999999  Z M 17.28 33  L 26.994 15.911999999999995  L 36.712 33  L 17.28 33  Z M 47.492000000000004 31.782000000000004  L 47.492000000000004 31.779999999999994  L 33.46 7.0600000000000005  C 33.316 6.800000000000001  32.506 5.486000000000001  31.096000000000004 5.486000000000001  C 30.462 5.486000000000001  29.552 5.756  28.812000000000005 7.056000000000001  L 26.998000000000005 10.236  L 28.612000000000002 13.076  L 31.112000000000002 8.652000000000001  L 44.994 33.012  L 39.714 33.012  C 39.78206066799777 33.42051276062201  39.74207017883036 33.83972340568725  39.598 34.228  L 39.604 34.21200000000001  C 39.573615392505914 34.299241291530926  39.535462351514894 34.38357959266897  39.49 34.464000000000006  L 39.494 34.456  L 39.448 34.54600000000001  C 38.738 35.75600000000001  37.204 35.82000000000001  36.904 35.82000000000001  L 45.162000000000006 35.82000000000001  C 45.46600000000001 35.82000000000001  46.99600000000001 35.75600000000001  47.706 34.54600000000001  C 48.02 33.99600000000001  48.246 33.07200000000001  47.492000000000004 31.782000000000004  Z M 14.611999999999998 34.612  L 14.607999999999997 34.614  C 14.574842318190797 34.55426219540479  14.544802050612915 34.49284653724556  14.518 34.43  L 14.514 34.418  C 14.31760069664414 33.97061157646151  14.259107312673201 33.47481051232689  14.346000000000004 32.994  L 14.344000000000001 33  L 3.002 33  L 19.86 3.3439999999999994  L 25.394 13.072  L 26.997999999999998 10.232  L 22.174 1.734  C 22.04 1.4900000000000002  21.224 0.17999999999999972  19.82 0.17999999999999972  C 19.186 0.17999999999999972  18.276 0.45399999999999974  17.536 1.7539999999999996  L 0.4600000000000001 31.778  C 0.31600000000000006 32.038  -0.3899999999999999 33.402  0.31000000000000005 34.612  C 0.6300000000000001 35.162  1.31 35.816  2.81 35.816  L 17.112 35.816  C 15.621999999999998 35.816  14.931999999999999 35.172000000000004  14.611999999999998 34.612  Z " fill-rule="evenodd" />
    </mask>
  </defs>
  <g>
    <path d="M 39.45 34.54599999999999  L 39.448 34.544  L 39.494 34.45399999999999  C 39.53604871862212 34.379219693650214  39.571515620030226 34.300924835824766  39.6 34.21999999999999  L 39.604 34.209999999999994  C 39.7475505234065 33.822190315467495  39.78483724043229 33.40305999630727  39.711999999999996 32.995999999999995  L 39.714 33.01  C 39.636411647543035 32.56898961405124  39.47700292367572 32.14638691205404  39.244 31.763999999999996  L 39.254 31.779999999999994  L 28.619999999999997 13.073999999999995  L 26.996000000000002 10.233999999999995  L 25.381999999999998 13.073999999999995  L 14.754000000000001 31.779999999999994  C 14.549121355903521 32.15602311866858  14.411072020430858 32.56475742565627  14.345999999999997 32.98799999999999  L 14.343999999999998 33.00999999999999  C 14.257663884360415 33.49078322918394  14.313262398441257 33.986304985929465  14.503999999999998 34.43599999999999  L 14.497999999999998 34.419999999999995  C 14.526512146761952 34.49025913998033  14.559927834795957 34.558427143569695  14.597999999999995 34.623999999999995  L 14.593999999999998 34.61599999999999  C 14.913999999999998 35.16599999999999  15.593999999999998 35.81999999999999  17.093999999999998 35.81999999999999  L 36.89 35.81999999999999  C 37.204 35.81999999999999  38.74 35.75599999999999  39.45 34.54599999999999  Z M 17.28 33  L 26.994 15.911999999999995  L 36.712 33  L 17.28 33  Z M 47.492000000000004 31.782000000000004  L 47.492000000000004 31.779999999999994  L 33.46 7.0600000000000005  C 33.316 6.800000000000001  32.506 5.486000000000001  31.096000000000004 5.486000000000001  C 30.462 5.486000000000001  29.552 5.756  28.812000000000005 7.056000000000001  L 26.998000000000005 10.236  L 28.612000000000002 13.076  L 31.112000000000002 8.652000000000001  L 44.994 33.012  L 39.714 33.012  C 39.78206066799777 33.42051276062201  39.74207017883036 33.83972340568725  39.598 34.228  L 39.604 34.21200000000001  C 39.573615392505914 34.299241291530926  39.535462351514894 34.38357959266897  39.49 34.464000000000006  L 39.494 34.456  L 39.448 34.54600000000001  C 38.738 35.75600000000001  37.204 35.82000000000001  36.904 35.82000000000001  L 45.162000000000006 35.82000000000001  C 45.46600000000001 35.82000000000001  46.99600000000001 35.75600000000001  47.706 34.54600000000001  C 48.02 33.99600000000001  48.246 33.07200000000001  47.492000000000004 31.782000000000004  Z M 14.611999999999998 34.612  L 14.607999999999997 34.614  C 14.574842318190797 34.55426219540479  14.544802050612915 34.49284653724556  14.518 34.43  L 14.514 34.418  C 14.31760069664414 33.97061157646151  14.259107312673201 33.47481051232689  14.346000000000004 32.994  L 14.344000000000001 33  L 3.002 33  L 19.86 3.3439999999999994  L 25.394 13.072  L 26.997999999999998 10.232  L 22.174 1.734  C 22.04 1.4900000000000002  21.224 0.17999999999999972  19.82 0.17999999999999972  C 19.186 0.17999999999999972  18.276 0.45399999999999974  17.536 1.7539999999999996  L 0.4600000000000001 31.778  C 0.31600000000000006 32.038  -0.3899999999999999 33.402  0.31000000000000005 34.612  C 0.6300000000000001 35.162  1.31 35.816  2.81 35.816  L 17.112 35.816  C 15.621999999999998 35.816  14.931999999999999 35.172000000000004  14.611999999999998 34.612  Z " fill-rule="nonzero" fill="rgba(0, 197, 142, 1)" stroke="none" class="fill" />
    <path d="M 39.45 34.54599999999999  L 39.448 34.544  L 39.494 34.45399999999999  C 39.53604871862212 34.379219693650214  39.571515620030226 34.300924835824766  39.6 34.21999999999999  L 39.604 34.209999999999994  C 39.7475505234065 33.822190315467495  39.78483724043229 33.40305999630727  39.711999999999996 32.995999999999995  L 39.714 33.01  C 39.636411647543035 32.56898961405124  39.47700292367572 32.14638691205404  39.244 31.763999999999996  L 39.254 31.779999999999994  L 28.619999999999997 13.073999999999995  L 26.996000000000002 10.233999999999995  L 25.381999999999998 13.073999999999995  L 14.754000000000001 31.779999999999994  C 14.549121355903521 32.15602311866858  14.411072020430858 32.56475742565627  14.345999999999997 32.98799999999999  L 14.343999999999998 33.00999999999999  C 14.257663884360415 33.49078322918394  14.313262398441257 33.986304985929465  14.503999999999998 34.43599999999999  L 14.497999999999998 34.419999999999995  C 14.526512146761952 34.49025913998033  14.559927834795957 34.558427143569695  14.597999999999995 34.623999999999995  L 14.593999999999998 34.61599999999999  C 14.913999999999998 35.16599999999999  15.593999999999998 35.81999999999999  17.093999999999998 35.81999999999999  L 36.89 35.81999999999999  C 37.204 35.81999999999999  38.74 35.75599999999999  39.45 34.54599999999999  Z " stroke-width="0" stroke-dasharray="0" stroke="rgba(255, 255, 255, 0)" fill="none" class="stroke" mask="url(#Clip7207)" />
    <path d="M 17.28 33  L 26.994 15.911999999999995  L 36.712 33  L 17.28 33  Z " stroke-width="0" stroke-dasharray="0" stroke="rgba(255, 255, 255, 0)" fill="none" class="stroke" mask="url(#Clip7207)" />
    <path d="M 47.492000000000004 31.782000000000004  L 47.492000000000004 31.779999999999994  L 33.46 7.0600000000000005  C 33.316 6.800000000000001  32.506 5.486000000000001  31.096000000000004 5.486000000000001  C 30.462 5.486000000000001  29.552 5.756  28.812000000000005 7.056000000000001  L 26.998000000000005 10.236  L 28.612000000000002 13.076  L 31.112000000000002 8.652000000000001  L 44.994 33.012  L 39.714 33.012  C 39.78206066799777 33.42051276062201  39.74207017883036 33.83972340568725  39.598 34.228  L 39.604 34.21200000000001  C 39.573615392505914 34.299241291530926  39.535462351514894 34.38357959266897  39.49 34.464000000000006  L 39.494 34.456  L 39.448 34.54600000000001  C 38.738 35.75600000000001  37.204 35.82000000000001  36.904 35.82000000000001  L 45.162000000000006 35.82000000000001  C 45.46600000000001 35.82000000000001  46.99600000000001 35.75600000000001  47.706 34.54600000000001  C 48.02 33.99600000000001  48.246 33.07200000000001  47.492000000000004 31.782000000000004  Z " stroke-width="0" stroke-dasharray="0" stroke="rgba(255, 255, 255, 0)" fill="none" class="stroke" mask="url(#Clip7207)" />
    <path d="M 14.611999999999998 34.612  L 14.607999999999997 34.614  C 14.574842318190797 34.55426219540479  14.544802050612915 34.49284653724556  14.518 34.43  L 14.514 34.418  C 14.31760069664414 33.97061157646151  14.259107312673201 33.47481051232689  14.346000000000004 32.994  L 14.344000000000001 33  L 3.002 33  L 19.86 3.3439999999999994  L 25.394 13.072  L 26.997999999999998 10.232  L 22.174 1.734  C 22.04 1.4900000000000002  21.224 0.17999999999999972  19.82 0.17999999999999972  C 19.186 0.17999999999999972  18.276 0.45399999999999974  17.536 1.7539999999999996  L 0.4600000000000001 31.778  C 0.31600000000000006 32.038  -0.3899999999999999 33.402  0.31000000000000005 34.612  C 0.6300000000000001 35.162  1.31 35.816  2.81 35.816  L 17.112 35.816  C 15.621999999999998 35.816  14.931999999999999 35.172000000000004  14.611999999999998 34.612  Z " stroke-width="0" stroke-dasharray="0" stroke="rgba(255, 255, 255, 0)" fill="none" class="stroke" mask="url(#Clip7207)" />
  </g>
</svg>