<?xml version="1.0" encoding="utf-8"?>
<svg version="1.1" xmlns:xlink="http://www.w3.org/1999/xlink" width="48px" height="48px" xmlns="http://www.w3.org/2000/svg">
  <defs>
    <pattern id="BGPattern" patternUnits="userSpaceOnUse" alignment="0 0" imageRepeat="None" />
    <mask fill="white" id="Clip6878">
      <path d="M 27 47.7048  C 39.2206 45.9044  47.9962 35.9764  47.9962 23.9982  C 47.9962 10.74432  37.252 0  23.9982 0  C 10.74432 0  0 10.74432  0 23.9982  C 0 35.9764  8.77578 45.9044  21 47.7048  L 21 30.9352  L 14.155159999999999 30.9352  L 14.155159999999999 23.9982  L 20.2484 23.9982  L 20.2484 18.71106  C 20.2484 12.69652  23.8312 9.37428  29.312800000000003 9.37428  C 31.9384 9.37428  34.6848 9.84298  34.6848 9.84298  L 34.6848 15.74878  L 31.6588 15.74878  C 28.6776 15.74878  27.7478 17.59866  27.7478 19.49648  L 27.7478 23.9982  L 34.4036 23.9982  L 33.3396 30.9352  L 27 30.9352  L 27 47.7048  Z " fill-rule="evenodd" />
    </mask>
  </defs>
  <g>
    <path d="M 27 47.7048  C 39.2206 45.9044  47.9962 35.9764  47.9962 23.9982  C 47.9962 10.74432  37.252 0  23.9982 0  C 10.74432 0  0 10.74432  0 23.9982  C 0 35.9764  8.77578 45.9044  21 47.7048  L 21 30.9352  L 14.155159999999999 30.9352  L 14.155159999999999 23.9982  L 20.2484 23.9982  L 20.2484 18.71106  C 20.2484 12.69652  23.8312 9.37428  29.312800000000003 9.37428  C 31.9384 9.37428  34.6848 9.84298  34.6848 9.84298  L 34.6848 15.74878  L 31.6588 15.74878  C 28.6776 15.74878  27.7478 17.59866  27.7478 19.49648  L 27.7478 23.9982  L 34.4036 23.9982  L 33.3396 30.9352  L 27 30.9352  L 27 47.7048  Z " fill-rule="nonzero" fill="rgba(24, 119, 242, 1)" stroke="none" class="fill" />
    <path d="M 27 47.7048  C 39.2206 45.9044  47.9962 35.9764  47.9962 23.9982  C 47.9962 10.74432  37.252 0  23.9982 0  C 10.74432 0  0 10.74432  0 23.9982  C 0 35.9764  8.77578 45.9044  21 47.7048  L 21 30.9352  L 14.155159999999999 30.9352  L 14.155159999999999 23.9982  L 20.2484 23.9982  L 20.2484 18.71106  C 20.2484 12.69652  23.8312 9.37428  29.312800000000003 9.37428  C 31.9384 9.37428  34.6848 9.84298  34.6848 9.84298  L 34.6848 15.74878  L 31.6588 15.74878  C 28.6776 15.74878  27.7478 17.59866  27.7478 19.49648  L 27.7478 23.9982  L 34.4036 23.9982  L 33.3396 30.9352  L 27 30.9352  L 27 47.7048  Z " stroke-width="0" stroke-dasharray="0" stroke="rgba(255, 255, 255, 0)" fill="none" class="stroke" mask="url(#Clip6878)" />
  </g>
</svg>