<?xml version="1.0" encoding="utf-8"?>
<svg version="1.1" xmlns:xlink="http://www.w3.org/1999/xlink" width="50px" height="40px" xmlns="http://www.w3.org/2000/svg">
  <defs>
    <pattern id="BGPattern" patternUnits="userSpaceOnUse" alignment="0 0" imageRepeat="None" />
    <mask fill="white" id="Clip1468">
      <path d="M 50 18.75  C 50 16.67890625000001  48.32109374999999 15  46.25 15  L 36.97343749999999 15  C 37.96484375 17.31171875000001  37.529687499999994 20.09375  35.64531249999999 21.978124999999977  L 25 32.62343750000002  L 25 36.25  C 25 38.32109374999999  26.678906249999994 40  28.749999999999996 40  L 46.25 40  C 48.32109374999999 40  50 38.32109374999999  50 36.25  L 50 18.75  Z M 39.375 27.5  C 39.375 28.53515625  38.53515625 29.375  37.5 29.375  C 36.46484375 29.375  35.625 28.53515625  35.625 27.5  C 35.625 26.46406250000001  36.46484375 25.625  37.5 25.625  C 38.53515625 25.625  39.375 26.46406250000001  39.375 27.5  Z M 33.877343749999994 20.2109375  C 35.37421875000001 18.713281249999994  35.37421875000001 16.28593749999999  33.877343749999994 14.7890625  L 20.2109375 1.1226562500000057  C 18.714062499999997 -0.37421875000001137  16.286718750000006 -0.37421875000001137  14.789843750000003 1.1226562500000057  L 1.1226562500000057 14.7890625  C -0.37421874999999716 16.28593749999999  -0.37421874999999716 18.713281249999994  1.1226562500000057 20.21015625000001  L 14.7890625 33.87734375000002  C 16.285937500000003 35.37421875000001  18.713281249999994 35.37421875000001  20.210156249999997 33.87734375000002  L 33.877343749999994 20.2109375  Z M 9.375 17.5  C 9.375 18.53515625  8.53515625 19.375  7.5 19.375  C 6.46484375 19.375  5.625 18.53515625  5.625 17.5  C 5.625 16.46406250000001  6.46484375 15.625  7.5 15.625  C 8.53515625 15.625  9.375 16.46406250000001  9.375 17.5  Z M 19.375 27.5  C 19.375 28.53515625  18.53515625 29.375  17.5 29.375  C 16.46484375 29.375  15.625 28.53515625  15.625 27.5  C 15.625 26.46406250000001  16.46484375 25.625  17.5 25.625  C 18.53515625 25.625  19.375 26.46406250000001  19.375 27.5  Z M 19.375 17.5  C 19.375 18.53515625  18.53515625 19.375  17.5 19.375  C 16.46484375 19.375  15.625 18.53515625  15.625 17.5  C 15.625 16.46406250000001  16.46484375 15.625  17.5 15.625  C 18.53515625 15.625  19.375 16.46406250000001  19.375 17.5  Z M 19.375 7.5  C 19.375 8.53515625  18.53515625 9.375  17.5 9.375  C 16.46484375 9.375  15.625 8.53515625  15.625 7.5  C 15.625 6.464062500000011  16.46484375 5.625  17.5 5.625  C 18.53515625 5.625  19.375 6.464062500000011  19.375 7.5  Z M 29.375 17.5  C 29.375 18.53515625  28.53515625 19.375  27.500000000000004 19.375  C 26.46484375 19.375  25.624999999999996 18.53515625  25.624999999999996 17.5  C 25.624999999999996 16.46406250000001  26.46484375 15.625  27.500000000000004 15.625  C 28.53515625 15.625  29.375 16.46406250000001  29.375 17.5  Z " fill-rule="evenodd" />
    </mask>
  </defs>
  <g>
    <path d="M 50 18.75  C 50 16.67890625000001  48.32109374999999 15  46.25 15  L 36.97343749999999 15  C 37.96484375 17.31171875000001  37.529687499999994 20.09375  35.64531249999999 21.978124999999977  L 25 32.62343750000002  L 25 36.25  C 25 38.32109374999999  26.678906249999994 40  28.749999999999996 40  L 46.25 40  C 48.32109374999999 40  50 38.32109374999999  50 36.25  L 50 18.75  Z M 39.375 27.5  C 39.375 28.53515625  38.53515625 29.375  37.5 29.375  C 36.46484375 29.375  35.625 28.53515625  35.625 27.5  C 35.625 26.46406250000001  36.46484375 25.625  37.5 25.625  C 38.53515625 25.625  39.375 26.46406250000001  39.375 27.5  Z M 33.877343749999994 20.2109375  C 35.37421875000001 18.713281249999994  35.37421875000001 16.28593749999999  33.877343749999994 14.7890625  L 20.2109375 1.1226562500000057  C 18.714062499999997 -0.37421875000001137  16.286718750000006 -0.37421875000001137  14.789843750000003 1.1226562500000057  L 1.1226562500000057 14.7890625  C -0.37421874999999716 16.28593749999999  -0.37421874999999716 18.713281249999994  1.1226562500000057 20.21015625000001  L 14.7890625 33.87734375000002  C 16.285937500000003 35.37421875000001  18.713281249999994 35.37421875000001  20.210156249999997 33.87734375000002  L 33.877343749999994 20.2109375  Z M 9.375 17.5  C 9.375 18.53515625  8.53515625 19.375  7.5 19.375  C 6.46484375 19.375  5.625 18.53515625  5.625 17.5  C 5.625 16.46406250000001  6.46484375 15.625  7.5 15.625  C 8.53515625 15.625  9.375 16.46406250000001  9.375 17.5  Z M 19.375 27.5  C 19.375 28.53515625  18.53515625 29.375  17.5 29.375  C 16.46484375 29.375  15.625 28.53515625  15.625 27.5  C 15.625 26.46406250000001  16.46484375 25.625  17.5 25.625  C 18.53515625 25.625  19.375 26.46406250000001  19.375 27.5  Z M 19.375 17.5  C 19.375 18.53515625  18.53515625 19.375  17.5 19.375  C 16.46484375 19.375  15.625 18.53515625  15.625 17.5  C 15.625 16.46406250000001  16.46484375 15.625  17.5 15.625  C 18.53515625 15.625  19.375 16.46406250000001  19.375 17.5  Z M 19.375 7.5  C 19.375 8.53515625  18.53515625 9.375  17.5 9.375  C 16.46484375 9.375  15.625 8.53515625  15.625 7.5  C 15.625 6.464062500000011  16.46484375 5.625  17.5 5.625  C 18.53515625 5.625  19.375 6.464062500000011  19.375 7.5  Z M 29.375 17.5  C 29.375 18.53515625  28.53515625 19.375  27.500000000000004 19.375  C 26.46484375 19.375  25.624999999999996 18.53515625  25.624999999999996 17.5  C 25.624999999999996 16.46406250000001  26.46484375 15.625  27.500000000000004 15.625  C 28.53515625 15.625  29.375 16.46406250000001  29.375 17.5  Z " fill-rule="nonzero" fill="rgba(0, 0, 0, 1)" stroke="none" class="fill" />
    <path d="M 50 18.75  C 50 16.67890625000001  48.32109374999999 15  46.25 15  L 36.97343749999999 15  C 37.96484375 17.31171875000001  37.529687499999994 20.09375  35.64531249999999 21.978124999999977  L 25 32.62343750000002  L 25 36.25  C 25 38.32109374999999  26.678906249999994 40  28.749999999999996 40  L 46.25 40  C 48.32109374999999 40  50 38.32109374999999  50 36.25  L 50 18.75  Z " stroke-width="0" stroke-dasharray="0" stroke="rgba(255, 255, 255, 0)" fill="none" class="stroke" mask="url(#Clip1468)" />
    <path d="M 39.375 27.5  C 39.375 28.53515625  38.53515625 29.375  37.5 29.375  C 36.46484375 29.375  35.625 28.53515625  35.625 27.5  C 35.625 26.46406250000001  36.46484375 25.625  37.5 25.625  C 38.53515625 25.625  39.375 26.46406250000001  39.375 27.5  Z " stroke-width="0" stroke-dasharray="0" stroke="rgba(255, 255, 255, 0)" fill="none" class="stroke" mask="url(#Clip1468)" />
    <path d="M 33.877343749999994 20.2109375  C 35.37421875000001 18.713281249999994  35.37421875000001 16.28593749999999  33.877343749999994 14.7890625  L 20.2109375 1.1226562500000057  C 18.714062499999997 -0.37421875000001137  16.286718750000006 -0.37421875000001137  14.789843750000003 1.1226562500000057  L 1.1226562500000057 14.7890625  C -0.37421874999999716 16.28593749999999  -0.37421874999999716 18.713281249999994  1.1226562500000057 20.21015625000001  L 14.7890625 33.87734375000002  C 16.285937500000003 35.37421875000001  18.713281249999994 35.37421875000001  20.210156249999997 33.87734375000002  L 33.877343749999994 20.2109375  Z " stroke-width="0" stroke-dasharray="0" stroke="rgba(255, 255, 255, 0)" fill="none" class="stroke" mask="url(#Clip1468)" />
    <path d="M 9.375 17.5  C 9.375 18.53515625  8.53515625 19.375  7.5 19.375  C 6.46484375 19.375  5.625 18.53515625  5.625 17.5  C 5.625 16.46406250000001  6.46484375 15.625  7.5 15.625  C 8.53515625 15.625  9.375 16.46406250000001  9.375 17.5  Z " stroke-width="0" stroke-dasharray="0" stroke="rgba(255, 255, 255, 0)" fill="none" class="stroke" mask="url(#Clip1468)" />
    <path d="M 19.375 27.5  C 19.375 28.53515625  18.53515625 29.375  17.5 29.375  C 16.46484375 29.375  15.625 28.53515625  15.625 27.5  C 15.625 26.46406250000001  16.46484375 25.625  17.5 25.625  C 18.53515625 25.625  19.375 26.46406250000001  19.375 27.5  Z " stroke-width="0" stroke-dasharray="0" stroke="rgba(255, 255, 255, 0)" fill="none" class="stroke" mask="url(#Clip1468)" />
    <path d="M 19.375 17.5  C 19.375 18.53515625  18.53515625 19.375  17.5 19.375  C 16.46484375 19.375  15.625 18.53515625  15.625 17.5  C 15.625 16.46406250000001  16.46484375 15.625  17.5 15.625  C 18.53515625 15.625  19.375 16.46406250000001  19.375 17.5  Z " stroke-width="0" stroke-dasharray="0" stroke="rgba(255, 255, 255, 0)" fill="none" class="stroke" mask="url(#Clip1468)" />
    <path d="M 19.375 7.5  C 19.375 8.53515625  18.53515625 9.375  17.5 9.375  C 16.46484375 9.375  15.625 8.53515625  15.625 7.5  C 15.625 6.464062500000011  16.46484375 5.625  17.5 5.625  C 18.53515625 5.625  19.375 6.464062500000011  19.375 7.5  Z " stroke-width="0" stroke-dasharray="0" stroke="rgba(255, 255, 255, 0)" fill="none" class="stroke" mask="url(#Clip1468)" />
    <path d="M 29.375 17.5  C 29.375 18.53515625  28.53515625 19.375  27.500000000000004 19.375  C 26.46484375 19.375  25.624999999999996 18.53515625  25.624999999999996 17.5  C 25.624999999999996 16.46406250000001  26.46484375 15.625  27.500000000000004 15.625  C 28.53515625 15.625  29.375 16.46406250000001  29.375 17.5  Z " stroke-width="0" stroke-dasharray="0" stroke="rgba(255, 255, 255, 0)" fill="none" class="stroke" mask="url(#Clip1468)" />
  </g>
</svg>