<?xml version="1.0" encoding="utf-8"?>
<svg version="1.1" xmlns:xlink="http://www.w3.org/1999/xlink" width="39px" height="50px" xmlns="http://www.w3.org/2000/svg">
  <defs>
    <pattern id="BGPattern" patternUnits="userSpaceOnUse" alignment="0 0" imageRepeat="None" />
    <mask fill="white" id="Clip921">
      <path d="M 38.39999999999998 16.45999999999998  C 38.39999999999998 6.530000000000001  29.819999999999993 0.05000000000001136  20.399999999999974 0.05000000000001136  C 10.139999999999988 0.05000000000001136  0 6.889999999999986  0 17.960000000000008  C 0 25  3.9599999999999795 28.999999999999996  6.360000000000014 28.999999999999996  C 7.350000000000023 28.999999999999996  7.920000000000016 26.24000000000001  7.920000000000016 25.46000000000001  C 7.920000000000016 24.53  5.550000000000011 22.55000000000001  5.550000000000011 18.680000000000007  C 5.550000000000011 10.639999999999986  11.670000000000016 4.939999999999998  19.589999999999975 4.939999999999998  C 26.399999999999977 4.939999999999998  31.439999999999998 8.810000000000002  31.439999999999998 15.919999999999987  C 31.439999999999998 21.22999999999999  29.310000000000002 31.189999999999994  22.409999999999965 31.189999999999994  C 19.91999999999996 31.189999999999994  17.789999999999964 29.38999999999999  17.789999999999964 26.810000000000002  C 17.789999999999964 23.03  20.43000000000001 19.370000000000005  20.43000000000001 15.469999999999997  C 20.43000000000001 8.849999999999994  11.039999999999965 10.049999999999983  11.039999999999965 18.05000000000001  C 11.039999999999965 19.72999999999999  11.249999999999998 21.590000000000003  12 23.120000000000005  C 10.620000000000005 29.060000000000002  7.800000000000011 37.91  7.800000000000011 44.03  C 7.800000000000011 45.91999999999999  8.069999999999993 47.78  8.25 49.66999999999999  C 8.589999999999975 50.05000000000002  8.420000000000016 50.00999999999999  8.939999999999998 49.81999999999999  C 13.980000000000018 42.91999999999999  13.800000000000011 41.56999999999999  16.079999999999984 32.53999999999999  C 17.310000000000002 34.879999999999995  20.490000000000013 36.139999999999986  23.00999999999999 36.139999999999986  C 33.629999999999995 36.139999999999986  38.39999999999998 25.789999999999992  38.39999999999998 16.45999999999998  Z " fill-rule="evenodd" />
    </mask>
  </defs>
  <g>
    <path d="M 38.39999999999998 16.45999999999998  C 38.39999999999998 6.530000000000001  29.819999999999993 0.05000000000001136  20.399999999999974 0.05000000000001136  C 10.139999999999988 0.05000000000001136  0 6.889999999999986  0 17.960000000000008  C 0 25  3.9599999999999795 28.999999999999996  6.360000000000014 28.999999999999996  C 7.350000000000023 28.999999999999996  7.920000000000016 26.24000000000001  7.920000000000016 25.46000000000001  C 7.920000000000016 24.53  5.550000000000011 22.55000000000001  5.550000000000011 18.680000000000007  C 5.550000000000011 10.639999999999986  11.670000000000016 4.939999999999998  19.589999999999975 4.939999999999998  C 26.399999999999977 4.939999999999998  31.439999999999998 8.810000000000002  31.439999999999998 15.919999999999987  C 31.439999999999998 21.22999999999999  29.310000000000002 31.189999999999994  22.409999999999965 31.189999999999994  C 19.91999999999996 31.189999999999994  17.789999999999964 29.38999999999999  17.789999999999964 26.810000000000002  C 17.789999999999964 23.03  20.43000000000001 19.370000000000005  20.43000000000001 15.469999999999997  C 20.43000000000001 8.849999999999994  11.039999999999965 10.049999999999983  11.039999999999965 18.05000000000001  C 11.039999999999965 19.72999999999999  11.249999999999998 21.590000000000003  12 23.120000000000005  C 10.620000000000005 29.060000000000002  7.800000000000011 37.91  7.800000000000011 44.03  C 7.800000000000011 45.91999999999999  8.069999999999993 47.78  8.25 49.66999999999999  C 8.589999999999975 50.05000000000002  8.420000000000016 50.00999999999999  8.939999999999998 49.81999999999999  C 13.980000000000018 42.91999999999999  13.800000000000011 41.56999999999999  16.079999999999984 32.53999999999999  C 17.310000000000002 34.879999999999995  20.490000000000013 36.139999999999986  23.00999999999999 36.139999999999986  C 33.629999999999995 36.139999999999986  38.39999999999998 25.789999999999992  38.39999999999998 16.45999999999998  Z " fill-rule="nonzero" fill="rgba(0, 0, 0, 1)" stroke="none" class="fill" />
    <path d="M 38.39999999999998 16.45999999999998  C 38.39999999999998 6.530000000000001  29.819999999999993 0.05000000000001136  20.399999999999974 0.05000000000001136  C 10.139999999999988 0.05000000000001136  0 6.889999999999986  0 17.960000000000008  C 0 25  3.9599999999999795 28.999999999999996  6.360000000000014 28.999999999999996  C 7.350000000000023 28.999999999999996  7.920000000000016 26.24000000000001  7.920000000000016 25.46000000000001  C 7.920000000000016 24.53  5.550000000000011 22.55000000000001  5.550000000000011 18.680000000000007  C 5.550000000000011 10.639999999999986  11.670000000000016 4.939999999999998  19.589999999999975 4.939999999999998  C 26.399999999999977 4.939999999999998  31.439999999999998 8.810000000000002  31.439999999999998 15.919999999999987  C 31.439999999999998 21.22999999999999  29.310000000000002 31.189999999999994  22.409999999999965 31.189999999999994  C 19.91999999999996 31.189999999999994  17.789999999999964 29.38999999999999  17.789999999999964 26.810000000000002  C 17.789999999999964 23.03  20.43000000000001 19.370000000000005  20.43000000000001 15.469999999999997  C 20.43000000000001 8.849999999999994  11.039999999999965 10.049999999999983  11.039999999999965 18.05000000000001  C 11.039999999999965 19.72999999999999  11.249999999999998 21.590000000000003  12 23.120000000000005  C 10.620000000000005 29.060000000000002  7.800000000000011 37.91  7.800000000000011 44.03  C 7.800000000000011 45.91999999999999  8.069999999999993 47.78  8.25 49.66999999999999  C 8.589999999999975 50.05000000000002  8.420000000000016 50.00999999999999  8.939999999999998 49.81999999999999  C 13.980000000000018 42.91999999999999  13.800000000000011 41.56999999999999  16.079999999999984 32.53999999999999  C 17.310000000000002 34.879999999999995  20.490000000000013 36.139999999999986  23.00999999999999 36.139999999999986  C 33.629999999999995 36.139999999999986  38.39999999999998 25.789999999999992  38.39999999999998 16.45999999999998  Z " stroke-width="0" stroke-dasharray="0" stroke="rgba(255, 255, 255, 0)" fill="none" class="stroke" mask="url(#Clip921)" />
  </g>
</svg>