<?xml version="1.0" encoding="utf-8"?>
<svg version="1.1" xmlns:xlink="http://www.w3.org/1999/xlink" width="24px" height="24px" xmlns="http://www.w3.org/2000/svg">
  <defs>
    <pattern id="BGPattern" patternUnits="userSpaceOnUse" alignment="0 0" imageRepeat="None" />
    <mask fill="white" id="Clip5706">
      <path d="M 0 21.75  L 0 2.25  C 0 1.0073593128807148  1.0073593128807148 0  2.25 0  L 21.75 0  C 22.992640687119284 0  24 1.0073593128807148  24 2.25  L 24 21.75  C 24 22.992640687119284  22.992640687119284 24  21.75 24  L 2.25 24  C 1.0073593128807148 24  0 22.992640687119284  0 21.75  Z M 7.5 1.5  L 2.25 1.5  C 1.835786437626905 1.5  1.5 1.835786437626905  1.5 2.25  L 1.5 7.5  L 7.5 7.5  L 7.5 1.5  Z M 7.5 15  L 7.5 9  L 1.5 9  L 1.5 15  L 7.5 15  Z M 9 9  L 9 15  L 15 15  L 15 9  L 9 9  Z M 7.5 22.5  L 7.5 16.5  L 1.5 16.5  L 1.5 21.75  C 1.5 22.164213562373096  1.835786437626905 22.5  2.25 22.5  L 7.5 22.5  Z M 15 16.5  L 9 16.5  L 9 22.5  L 15 22.5  L 15 16.5  Z M 22.5 16.5  L 16.5 16.5  L 16.5 22.5  L 21.75 22.5  C 22.164213562373096 22.5  22.5 22.164213562373096  22.5 21.75  L 22.5 16.5  Z M 16.5 9  L 16.5 15  L 22.5 15  L 22.5 9  L 16.5 9  Z M 16.5 1.5  L 16.5 7.5  L 22.5 7.5  L 22.5 2.25  C 22.5 1.835786437626905  22.164213562373096 1.5  21.75 1.5  L 16.5 1.5  Z M 9 7.5  L 15 7.5  L 15 1.5  L 9 1.5  L 9 7.5  Z " fill-rule="evenodd" />
    </mask>
  </defs>
  <g>
    <path d="M 0 21.75  L 0 2.25  C 0 1.0073593128807148  1.0073593128807148 0  2.25 0  L 21.75 0  C 22.992640687119284 0  24 1.0073593128807148  24 2.25  L 24 21.75  C 24 22.992640687119284  22.992640687119284 24  21.75 24  L 2.25 24  C 1.0073593128807148 24  0 22.992640687119284  0 21.75  Z M 7.5 1.5  L 2.25 1.5  C 1.835786437626905 1.5  1.5 1.835786437626905  1.5 2.25  L 1.5 7.5  L 7.5 7.5  L 7.5 1.5  Z M 7.5 15  L 7.5 9  L 1.5 9  L 1.5 15  L 7.5 15  Z M 9 9  L 9 15  L 15 15  L 15 9  L 9 9  Z M 7.5 22.5  L 7.5 16.5  L 1.5 16.5  L 1.5 21.75  C 1.5 22.164213562373096  1.835786437626905 22.5  2.25 22.5  L 7.5 22.5  Z M 15 16.5  L 9 16.5  L 9 22.5  L 15 22.5  L 15 16.5  Z M 22.5 16.5  L 16.5 16.5  L 16.5 22.5  L 21.75 22.5  C 22.164213562373096 22.5  22.5 22.164213562373096  22.5 21.75  L 22.5 16.5  Z M 16.5 9  L 16.5 15  L 22.5 15  L 22.5 9  L 16.5 9  Z M 16.5 1.5  L 16.5 7.5  L 22.5 7.5  L 22.5 2.25  C 22.5 1.835786437626905  22.164213562373096 1.5  21.75 1.5  L 16.5 1.5  Z M 9 7.5  L 15 7.5  L 15 1.5  L 9 1.5  L 9 7.5  Z " fill-rule="nonzero" fill="rgba(0, 0, 0, 1)" stroke="none" class="fill" />
    <path d="M 0 21.75  L 0 2.25  C 0 1.0073593128807148  1.0073593128807148 0  2.25 0  L 21.75 0  C 22.992640687119284 0  24 1.0073593128807148  24 2.25  L 24 21.75  C 24 22.992640687119284  22.992640687119284 24  21.75 24  L 2.25 24  C 1.0073593128807148 24  0 22.992640687119284  0 21.75  Z " stroke-width="0" stroke-dasharray="0" stroke="rgba(255, 255, 255, 0)" fill="none" class="stroke" mask="url(#Clip5706)" />
    <path d="M 7.5 1.5  L 2.25 1.5  C 1.835786437626905 1.5  1.5 1.835786437626905  1.5 2.25  L 1.5 7.5  L 7.5 7.5  L 7.5 1.5  Z " stroke-width="0" stroke-dasharray="0" stroke="rgba(255, 255, 255, 0)" fill="none" class="stroke" mask="url(#Clip5706)" />
    <path d="M 7.5 15  L 7.5 9  L 1.5 9  L 1.5 15  L 7.5 15  Z " stroke-width="0" stroke-dasharray="0" stroke="rgba(255, 255, 255, 0)" fill="none" class="stroke" mask="url(#Clip5706)" />
    <path d="M 9 9  L 9 15  L 15 15  L 15 9  L 9 9  Z " stroke-width="0" stroke-dasharray="0" stroke="rgba(255, 255, 255, 0)" fill="none" class="stroke" mask="url(#Clip5706)" />
    <path d="M 7.5 22.5  L 7.5 16.5  L 1.5 16.5  L 1.5 21.75  C 1.5 22.164213562373096  1.835786437626905 22.5  2.25 22.5  L 7.5 22.5  Z " stroke-width="0" stroke-dasharray="0" stroke="rgba(255, 255, 255, 0)" fill="none" class="stroke" mask="url(#Clip5706)" />
    <path d="M 15 16.5  L 9 16.5  L 9 22.5  L 15 22.5  L 15 16.5  Z " stroke-width="0" stroke-dasharray="0" stroke="rgba(255, 255, 255, 0)" fill="none" class="stroke" mask="url(#Clip5706)" />
    <path d="M 22.5 16.5  L 16.5 16.5  L 16.5 22.5  L 21.75 22.5  C 22.164213562373096 22.5  22.5 22.164213562373096  22.5 21.75  L 22.5 16.5  Z " stroke-width="0" stroke-dasharray="0" stroke="rgba(255, 255, 255, 0)" fill="none" class="stroke" mask="url(#Clip5706)" />
    <path d="M 16.5 9  L 16.5 15  L 22.5 15  L 22.5 9  L 16.5 9  Z " stroke-width="0" stroke-dasharray="0" stroke="rgba(255, 255, 255, 0)" fill="none" class="stroke" mask="url(#Clip5706)" />
    <path d="M 16.5 1.5  L 16.5 7.5  L 22.5 7.5  L 22.5 2.25  C 22.5 1.835786437626905  22.164213562373096 1.5  21.75 1.5  L 16.5 1.5  Z " stroke-width="0" stroke-dasharray="0" stroke="rgba(255, 255, 255, 0)" fill="none" class="stroke" mask="url(#Clip5706)" />
    <path d="M 9 7.5  L 15 7.5  L 15 1.5  L 9 1.5  L 9 7.5  Z " stroke-width="0" stroke-dasharray="0" stroke="rgba(255, 255, 255, 0)" fill="none" class="stroke" mask="url(#Clip5706)" />
  </g>
</svg>