<?xml version="1.0" encoding="utf-8"?>
<svg version="1.1" xmlns:xlink="http://www.w3.org/1999/xlink" width="50px" height="44px" xmlns="http://www.w3.org/2000/svg">
  <defs>
    <pattern id="BGPattern" patternUnits="userSpaceOnUse" alignment="0 0" imageRepeat="None" />
    <mask fill="white" id="Clip1217">
      <path d="M 50 4.6875  C 50 2.099609375  47.900390625 0  45.3125 0  L 4.6875 0  C 2.099609375 0  0 2.099609375  0 4.6875  L 0 39.0625  C 0 41.650390625  2.099609375 43.75  4.6875 43  L 45.3125 43  C 47.900390625 43.75  50 41.650390625  50 39.0625  L 50 4.6875  Z M 45 16  L 45 38.4765625  C 45.3125 38.798828125  45.048828125 39.0625  44.7265625 39  L 5.2734375 39  C 4.951171875 39.0625  4.6875 38.798828125  5 38.4765625  L 5 16  L 45 16  Z " fill-rule="evenodd" />
    </mask>
  </defs>
  <g>
    <path d="M 50 4.6875  C 50 2.099609375  47.900390625 0  45.3125 0  L 4.6875 0  C 2.099609375 0  0 2.099609375  0 4.6875  L 0 39.0625  C 0 41.650390625  2.099609375 43.75  4.6875 43  L 45.3125 43  C 47.900390625 43.75  50 41.650390625  50 39.0625  L 50 4.6875  Z M 45 16  L 45 38.4765625  C 45.3125 38.798828125  45.048828125 39.0625  44.7265625 39  L 5.2734375 39  C 4.951171875 39.0625  4.6875 38.798828125  5 38.4765625  L 5 16  L 45 16  Z " fill-rule="nonzero" fill="rgba(0, 0, 0, 1)" stroke="none" class="fill" />
    <path d="M 50 4.6875  C 50 2.099609375  47.900390625 0  45.3125 0  L 4.6875 0  C 2.099609375 0  0 2.099609375  0 4.6875  L 0 39.0625  C 0 41.650390625  2.099609375 43.75  4.6875 43  L 45.3125 43  C 47.900390625 43.75  50 41.650390625  50 39.0625  L 50 4.6875  Z " stroke-width="0" stroke-dasharray="0" stroke="rgba(255, 255, 255, 0)" fill="none" class="stroke" mask="url(#Clip1217)" />
    <path d="M 45 16  L 45 38.4765625  C 45.3125 38.798828125  45.048828125 39.0625  44.7265625 39  L 5.2734375 39  C 4.951171875 39.0625  4.6875 38.798828125  5 38.4765625  L 5 16  L 45 16  Z " stroke-width="0" stroke-dasharray="0" stroke="rgba(255, 255, 255, 0)" fill="none" class="stroke" mask="url(#Clip1217)" />
  </g>
</svg>