<?xml version="1.0" encoding="utf-8"?>
<svg version="1.1" xmlns:xlink="http://www.w3.org/1999/xlink" width="36px" height="48px" xmlns="http://www.w3.org/2000/svg">
  <defs>
    <pattern id="BGPattern" patternUnits="userSpaceOnUse" alignment="0 0" imageRepeat="None" />
    <mask fill="white" id="Clip2966">
      <path d="M 22.000000000000007 17  C 20.55025253169417 16.625  19.375000000000007 15.449747468305834  19 14  L 19 1  L 1 1  L 1 47  L 35 47  L 35 17  L 22.000000000000007 17  Z M 22.481249999999996 32.031250000000014  C 22.593749999999993 32.000000000000014  22.699999999999996 31.98750000000001  22.8125 31.975  C 23.81875 31.856250000000003  24.725 31.800000000000004  25.581249999999997 31.831250000000004  C 26.381249999999994 31.856250000000003  27.05625 31.956250000000004  27.581249999999997 32.150000000000006  C 27.59375 32.15625000000001  27.599999999999994 32.15625000000001  27.612499999999997 32.16250000000001  C 27.637499999999996 32.17500000000001  27.662499999999994 32.181250000000006  27.6875 32.19375000000001  C 27.71875 32.20625000000001  27.75625 32.21875000000001  27.7875 32.23750000000001  C 27.793750000000003 32.24375000000001  27.80625 32.24375000000001  27.8125 32.250000000000014  C 28.06875 32.36250000000001  28.28125 32.500000000000014  28.44375 32.662500000000016  C 29.012500000000003 33.23125000000002  29.18125 34.29375000000002  28.831250000000004 35.13750000000002  C 28.63125 35.61875000000002  28.1 36.41875000000002  26.750000000000007 36.41875000000002  C 25.38750000000001 36.41875000000002  23.38125000000001 35.812500000000014  21.618750000000006 34.86875000000002  C 20.025000000000006 35.13750000000002  18.262500000000003 35.73750000000002  16.562500000000007 36.31250000000002  C 16.200000000000006 36.43750000000002  15.825000000000006 36.56250000000002  15.462500000000006 36.68125000000002  C 13.087500000000006 40.75625000000002  11.306250000000006 41.64375000000002  10.206250000000004 41.64375000000002  C 9.943750000000005 41.64375000000002  9.718750000000004 41.58750000000002  9.531250000000004 41.51875000000002  C 9.100000000000005 41.35625000000002  8.731250000000003 41.01875000000002  8.500000000000004 40.58125000000002  C 8.443750000000005 40.475000000000016  8.400000000000002 40.36875000000002  8.362500000000004 40.256250000000016  C 8.262500000000003 39.95625000000002  8.231250000000003 39.656250000000014  8.281250000000004 39.406250000000014  L 8.318750000000005 39.23750000000001  C 8.325000000000006 39.22500000000001  8.325000000000006 39.21250000000001  8.331250000000004 39.20000000000001  C 8.343750000000004 39.15625000000001  8.356250000000003 39.11250000000001  8.375000000000004 39.06875000000001  C 8.375000000000004 39.06250000000001  8.381250000000005 39.056250000000006  8.381250000000005 39.05000000000001  C 8.637500000000006 38.30625000000001  9.231250000000006 37.58750000000001  10.112500000000004 36.88750000000001  C 10.881250000000005 36.27500000000001  11.806250000000006 35.71875000000001  12.981250000000003 35.11250000000001  C 13.975000000000001 33.36250000000001  15.331250000000004 30.41875000000001  16.181250000000002 28.400000000000013  C 15.506250000000001 25.787500000000016  15.137500000000003 23.73750000000001  15.55 22.23750000000001  C 15.60625 22.03125000000001  15.70625 21.837500000000013  15.837500000000002 21.66875000000001  C 15.850000000000001 21.65625000000001  15.856250000000003 21.64375000000001  15.868750000000002 21.63125000000001  C 15.875000000000004 21.625000000000007  15.875000000000004 21.61875000000001  15.881250000000001 21.61875000000001  C 16.275000000000002 21.15000000000001  16.9375 20.87500000000001  17.637500000000003 20.90000000000001  C 18.675000000000004 20.94375000000001  19.493750000000006 21.61875000000001  19.700000000000003 22.78125000000001  C 19.806250000000006 23.28125000000001  19.837500000000006 23.81250000000001  19.81875 24.38750000000001  L 19.81875 24.431250000000013  C 19.81875 24.462500000000013  19.81875 24.493750000000013  19.8125 24.525000000000013  C 19.768749999999997 25.35625000000001  19.625 26.187500000000014  19.356250000000003 27.318750000000016  C 19.331250000000004 27.418750000000017  19.306250000000006 27.51875000000002  19.28125 27.64375000000002  L 19.21875 27.90000000000002  L 19.2125 27.918750000000017  C 19.21875 27.93125000000002  19.21875 27.937500000000014  19.225 27.950000000000017  L 19.3375 28.231250000000017  C 19.34375 28.250000000000014  19.356249999999996 28.27500000000002  19.362499999999997 28.293750000000017  C 19.40625 28.39375000000002  19.449999999999996 28.500000000000014  19.49375 28.593750000000014  L 19.49375 28.600000000000016  C 20.0375 29.775000000000013  20.725 30.687500000000014  21.612499999999997 31.418750000000017  C 21.881249999999994 31.637500000000017  22.168749999999996 31.83750000000002  22.481249999999996 32.031250000000014  Z " fill-rule="evenodd" />
    </mask>
  </defs>
  <g transform="matrix(1 0 0 1 -4 -4 )">
    <path d="M 22.000000000000007 17  C 20.55025253169417 16.625  19.375000000000007 15.449747468305834  19 14  L 19 1  L 1 1  L 1 47  L 35 47  L 35 17  L 22.000000000000007 17  Z M 22.481249999999996 32.031250000000014  C 22.593749999999993 32.000000000000014  22.699999999999996 31.98750000000001  22.8125 31.975  C 23.81875 31.856250000000003  24.725 31.800000000000004  25.581249999999997 31.831250000000004  C 26.381249999999994 31.856250000000003  27.05625 31.956250000000004  27.581249999999997 32.150000000000006  C 27.59375 32.15625000000001  27.599999999999994 32.15625000000001  27.612499999999997 32.16250000000001  C 27.637499999999996 32.17500000000001  27.662499999999994 32.181250000000006  27.6875 32.19375000000001  C 27.71875 32.20625000000001  27.75625 32.21875000000001  27.7875 32.23750000000001  C 27.793750000000003 32.24375000000001  27.80625 32.24375000000001  27.8125 32.250000000000014  C 28.06875 32.36250000000001  28.28125 32.500000000000014  28.44375 32.662500000000016  C 29.012500000000003 33.23125000000002  29.18125 34.29375000000002  28.831250000000004 35.13750000000002  C 28.63125 35.61875000000002  28.1 36.41875000000002  26.750000000000007 36.41875000000002  C 25.38750000000001 36.41875000000002  23.38125000000001 35.812500000000014  21.618750000000006 34.86875000000002  C 20.025000000000006 35.13750000000002  18.262500000000003 35.73750000000002  16.562500000000007 36.31250000000002  C 16.200000000000006 36.43750000000002  15.825000000000006 36.56250000000002  15.462500000000006 36.68125000000002  C 13.087500000000006 40.75625000000002  11.306250000000006 41.64375000000002  10.206250000000004 41.64375000000002  C 9.943750000000005 41.64375000000002  9.718750000000004 41.58750000000002  9.531250000000004 41.51875000000002  C 9.100000000000005 41.35625000000002  8.731250000000003 41.01875000000002  8.500000000000004 40.58125000000002  C 8.443750000000005 40.475000000000016  8.400000000000002 40.36875000000002  8.362500000000004 40.256250000000016  C 8.262500000000003 39.95625000000002  8.231250000000003 39.656250000000014  8.281250000000004 39.406250000000014  L 8.318750000000005 39.23750000000001  C 8.325000000000006 39.22500000000001  8.325000000000006 39.21250000000001  8.331250000000004 39.20000000000001  C 8.343750000000004 39.15625000000001  8.356250000000003 39.11250000000001  8.375000000000004 39.06875000000001  C 8.375000000000004 39.06250000000001  8.381250000000005 39.056250000000006  8.381250000000005 39.05000000000001  C 8.637500000000006 38.30625000000001  9.231250000000006 37.58750000000001  10.112500000000004 36.88750000000001  C 10.881250000000005 36.27500000000001  11.806250000000006 35.71875000000001  12.981250000000003 35.11250000000001  C 13.975000000000001 33.36250000000001  15.331250000000004 30.41875000000001  16.181250000000002 28.400000000000013  C 15.506250000000001 25.787500000000016  15.137500000000003 23.73750000000001  15.55 22.23750000000001  C 15.60625 22.03125000000001  15.70625 21.837500000000013  15.837500000000002 21.66875000000001  C 15.850000000000001 21.65625000000001  15.856250000000003 21.64375000000001  15.868750000000002 21.63125000000001  C 15.875000000000004 21.625000000000007  15.875000000000004 21.61875000000001  15.881250000000001 21.61875000000001  C 16.275000000000002 21.15000000000001  16.9375 20.87500000000001  17.637500000000003 20.90000000000001  C 18.675000000000004 20.94375000000001  19.493750000000006 21.61875000000001  19.700000000000003 22.78125000000001  C 19.806250000000006 23.28125000000001  19.837500000000006 23.81250000000001  19.81875 24.38750000000001  L 19.81875 24.431250000000013  C 19.81875 24.462500000000013  19.81875 24.493750000000013  19.8125 24.525000000000013  C 19.768749999999997 25.35625000000001  19.625 26.187500000000014  19.356250000000003 27.318750000000016  C 19.331250000000004 27.418750000000017  19.306250000000006 27.51875000000002  19.28125 27.64375000000002  L 19.21875 27.90000000000002  L 19.2125 27.918750000000017  C 19.21875 27.93125000000002  19.21875 27.937500000000014  19.225 27.950000000000017  L 19.3375 28.231250000000017  C 19.34375 28.250000000000014  19.356249999999996 28.27500000000002  19.362499999999997 28.293750000000017  C 19.40625 28.39375000000002  19.449999999999996 28.500000000000014  19.49375 28.593750000000014  L 19.49375 28.600000000000016  C 20.0375 29.775000000000013  20.725 30.687500000000014  21.612499999999997 31.418750000000017  C 21.881249999999994 31.637500000000017  22.168749999999996 31.83750000000002  22.481249999999996 32.031250000000014  Z " fill-rule="nonzero" fill="rgba(217, 217, 217, 1)" stroke="none" transform="matrix(1 0 0 1 4 4 )" class="fill" />
    <path d="M 22.000000000000007 17  C 20.55025253169417 16.625  19.375000000000007 15.449747468305834  19 14  L 19 1  L 1 1  L 1 47  L 35 47  L 35 17  L 22.000000000000007 17  Z " stroke-width="0" stroke-dasharray="0" stroke="rgba(255, 255, 255, 0)" fill="none" transform="matrix(1 0 0 1 4 4 )" class="stroke" mask="url(#Clip2966)" />
    <path d="M 22.481249999999996 32.031250000000014  C 22.593749999999993 32.000000000000014  22.699999999999996 31.98750000000001  22.8125 31.975  C 23.81875 31.856250000000003  24.725 31.800000000000004  25.581249999999997 31.831250000000004  C 26.381249999999994 31.856250000000003  27.05625 31.956250000000004  27.581249999999997 32.150000000000006  C 27.59375 32.15625000000001  27.599999999999994 32.15625000000001  27.612499999999997 32.16250000000001  C 27.637499999999996 32.17500000000001  27.662499999999994 32.181250000000006  27.6875 32.19375000000001  C 27.71875 32.20625000000001  27.75625 32.21875000000001  27.7875 32.23750000000001  C 27.793750000000003 32.24375000000001  27.80625 32.24375000000001  27.8125 32.250000000000014  C 28.06875 32.36250000000001  28.28125 32.500000000000014  28.44375 32.662500000000016  C 29.012500000000003 33.23125000000002  29.18125 34.29375000000002  28.831250000000004 35.13750000000002  C 28.63125 35.61875000000002  28.1 36.41875000000002  26.750000000000007 36.41875000000002  C 25.38750000000001 36.41875000000002  23.38125000000001 35.812500000000014  21.618750000000006 34.86875000000002  C 20.025000000000006 35.13750000000002  18.262500000000003 35.73750000000002  16.562500000000007 36.31250000000002  C 16.200000000000006 36.43750000000002  15.825000000000006 36.56250000000002  15.462500000000006 36.68125000000002  C 13.087500000000006 40.75625000000002  11.306250000000006 41.64375000000002  10.206250000000004 41.64375000000002  C 9.943750000000005 41.64375000000002  9.718750000000004 41.58750000000002  9.531250000000004 41.51875000000002  C 9.100000000000005 41.35625000000002  8.731250000000003 41.01875000000002  8.500000000000004 40.58125000000002  C 8.443750000000005 40.475000000000016  8.400000000000002 40.36875000000002  8.362500000000004 40.256250000000016  C 8.262500000000003 39.95625000000002  8.231250000000003 39.656250000000014  8.281250000000004 39.406250000000014  L 8.318750000000005 39.23750000000001  C 8.325000000000006 39.22500000000001  8.325000000000006 39.21250000000001  8.331250000000004 39.20000000000001  C 8.343750000000004 39.15625000000001  8.356250000000003 39.11250000000001  8.375000000000004 39.06875000000001  C 8.375000000000004 39.06250000000001  8.381250000000005 39.056250000000006  8.381250000000005 39.05000000000001  C 8.637500000000006 38.30625000000001  9.231250000000006 37.58750000000001  10.112500000000004 36.88750000000001  C 10.881250000000005 36.27500000000001  11.806250000000006 35.71875000000001  12.981250000000003 35.11250000000001  C 13.975000000000001 33.36250000000001  15.331250000000004 30.41875000000001  16.181250000000002 28.400000000000013  C 15.506250000000001 25.787500000000016  15.137500000000003 23.73750000000001  15.55 22.23750000000001  C 15.60625 22.03125000000001  15.70625 21.837500000000013  15.837500000000002 21.66875000000001  C 15.850000000000001 21.65625000000001  15.856250000000003 21.64375000000001  15.868750000000002 21.63125000000001  C 15.875000000000004 21.625000000000007  15.875000000000004 21.61875000000001  15.881250000000001 21.61875000000001  C 16.275000000000002 21.15000000000001  16.9375 20.87500000000001  17.637500000000003 20.90000000000001  C 18.675000000000004 20.94375000000001  19.493750000000006 21.61875000000001  19.700000000000003 22.78125000000001  C 19.806250000000006 23.28125000000001  19.837500000000006 23.81250000000001  19.81875 24.38750000000001  L 19.81875 24.431250000000013  C 19.81875 24.462500000000013  19.81875 24.493750000000013  19.8125 24.525000000000013  C 19.768749999999997 25.35625000000001  19.625 26.187500000000014  19.356250000000003 27.318750000000016  C 19.331250000000004 27.418750000000017  19.306250000000006 27.51875000000002  19.28125 27.64375000000002  L 19.21875 27.90000000000002  L 19.2125 27.918750000000017  C 19.21875 27.93125000000002  19.21875 27.937500000000014  19.225 27.950000000000017  L 19.3375 28.231250000000017  C 19.34375 28.250000000000014  19.356249999999996 28.27500000000002  19.362499999999997 28.293750000000017  C 19.40625 28.39375000000002  19.449999999999996 28.500000000000014  19.49375 28.593750000000014  L 19.49375 28.600000000000016  C 20.0375 29.775000000000013  20.725 30.687500000000014  21.612499999999997 31.418750000000017  C 21.881249999999994 31.637500000000017  22.168749999999996 31.83750000000002  22.481249999999996 32.031250000000014  Z " stroke-width="0" stroke-dasharray="0" stroke="rgba(255, 255, 255, 0)" fill="none" transform="matrix(1 0 0 1 4 4 )" class="stroke" mask="url(#Clip2966)" />
  </g>
</svg>