<?xml version="1.0" encoding="utf-8"?>
<svg version="1.1" xmlns:xlink="http://www.w3.org/1999/xlink" width="56px" height="44px" xmlns="http://www.w3.org/2000/svg">
  <defs>
    <pattern id="BGPattern" patternUnits="userSpaceOnUse" alignment="0 0" imageRepeat="None" />
    <mask fill="white" id="Clip2328">
      <path d="M 56 2  C 56 0.8937500000000006  55.10625 0  54 0  L 2 0  C 0.8937499999999997 0  0 0.8937500000000006  0 2  L 0 42  C 0 43.10625  0.8937499999999997 44  2 44  L 54 44  C 55.10625 44  56 43.10625  56 42  L 56 2  Z M 13.125 13  C 13.125 10.79375  14.918750000000001 9  17.125 9  C 19.33125 9  21.125 10.79375  21.125 13  C 21.125 15.206250000000002  19.33125 17  17.125 17  C 14.918750000000001 17  13.125 15.206250000000002  13.125 13  Z M 49.31875 35.61875  C 49.48125 35.824999999999996  49.456250000000004 36.14375  49.24375 36.31875000000001  C 49.152699174266154 36.39522919637894  49.03765863841409 36.437263238324896  48.918749999999996 36  L 7.074999999999999 36  C 6.799999999999999 36.4375  6.574999999999999 36.2125  6.574999999999999 35.9375  C 6.574999999999999 35.81875  6.618749999999999 35.70625  6.69375 35.6125  L 17.3375 22.987499999999997  C 17.5125 22.775  17.831249999999997 22.75  18.04375 22.924999999999997  C 18.0625 22.943749999999998  18.0875 22.9625  18.10625 22.987499999999997  L 24.31875 30.362499999999997  L 34.2 18.643749999999997  C 34.375 18.43125  34.69375 18.406249999999996  34.90625 18.581249999999997  C 34.925 18.599999999999998  34.95 18.61875  34.96875 18.643749999999997  L 49.31875 35.61875  Z " fill-rule="evenodd" />
    </mask>
  </defs>
  <g>
    <path d="M 56 2  C 56 0.8937500000000006  55.10625 0  54 0  L 2 0  C 0.8937499999999997 0  0 0.8937500000000006  0 2  L 0 42  C 0 43.10625  0.8937499999999997 44  2 44  L 54 44  C 55.10625 44  56 43.10625  56 42  L 56 2  Z M 13.125 13  C 13.125 10.79375  14.918750000000001 9  17.125 9  C 19.33125 9  21.125 10.79375  21.125 13  C 21.125 15.206250000000002  19.33125 17  17.125 17  C 14.918750000000001 17  13.125 15.206250000000002  13.125 13  Z M 49.31875 35.61875  C 49.48125 35.824999999999996  49.456250000000004 36.14375  49.24375 36.31875000000001  C 49.152699174266154 36.39522919637894  49.03765863841409 36.437263238324896  48.918749999999996 36  L 7.074999999999999 36  C 6.799999999999999 36.4375  6.574999999999999 36.2125  6.574999999999999 35.9375  C 6.574999999999999 35.81875  6.618749999999999 35.70625  6.69375 35.6125  L 17.3375 22.987499999999997  C 17.5125 22.775  17.831249999999997 22.75  18.04375 22.924999999999997  C 18.0625 22.943749999999998  18.0875 22.9625  18.10625 22.987499999999997  L 24.31875 30.362499999999997  L 34.2 18.643749999999997  C 34.375 18.43125  34.69375 18.406249999999996  34.90625 18.581249999999997  C 34.925 18.599999999999998  34.95 18.61875  34.96875 18.643749999999997  L 49.31875 35.61875  Z " fill-rule="nonzero" fill="rgba(0, 0, 0, 1)" stroke="none" class="fill" />
    <path d="M 56 2  C 56 0.8937500000000006  55.10625 0  54 0  L 2 0  C 0.8937499999999997 0  0 0.8937500000000006  0 2  L 0 42  C 0 43.10625  0.8937499999999997 44  2 44  L 54 44  C 55.10625 44  56 43.10625  56 42  L 56 2  Z " stroke-width="0" stroke-dasharray="0" stroke="rgba(255, 255, 255, 0)" fill="none" class="stroke" mask="url(#Clip2328)" />
    <path d="M 13.125 13  C 13.125 10.79375  14.918750000000001 9  17.125 9  C 19.33125 9  21.125 10.79375  21.125 13  C 21.125 15.206250000000002  19.33125 17  17.125 17  C 14.918750000000001 17  13.125 15.206250000000002  13.125 13  Z " stroke-width="0" stroke-dasharray="0" stroke="rgba(255, 255, 255, 0)" fill="none" class="stroke" mask="url(#Clip2328)" />
    <path d="M 49.31875 35.61875  C 49.48125 35.824999999999996  49.456250000000004 36.14375  49.24375 36.31875000000001  C 49.152699174266154 36.39522919637894  49.03765863841409 36.437263238324896  48.918749999999996 36  L 7.074999999999999 36  C 6.799999999999999 36.4375  6.574999999999999 36.2125  6.574999999999999 35.9375  C 6.574999999999999 35.81875  6.618749999999999 35.70625  6.69375 35.6125  L 17.3375 22.987499999999997  C 17.5125 22.775  17.831249999999997 22.75  18.04375 22.924999999999997  C 18.0625 22.943749999999998  18.0875 22.9625  18.10625 22.987499999999997  L 24.31875 30.362499999999997  L 34.2 18.643749999999997  C 34.375 18.43125  34.69375 18.406249999999996  34.90625 18.581249999999997  C 34.925 18.599999999999998  34.95 18.61875  34.96875 18.643749999999997  L 49.31875 35.61875  Z " stroke-width="0" stroke-dasharray="0" stroke="rgba(255, 255, 255, 0)" fill="none" class="stroke" mask="url(#Clip2328)" />
  </g>
</svg>