<?xml version="1.0" encoding="utf-8"?>
<svg version="1.1" xmlns:xlink="http://www.w3.org/1999/xlink" width="27px" height="24px" xmlns="http://www.w3.org/2000/svg">
  <defs>
    <pattern id="BGPattern" patternUnits="userSpaceOnUse" alignment="0 0" imageRepeat="None" />
    <mask fill="white" id="Clip4325">
      <path d="M 17.00415938204334 0.9999990384252877  C 17.002772921307233 0.9999990384252877  17.001386460587913 0.9999993589502005  17 1  C 16.993735864455594 0.9999868927758988  16.987471716915874 0.9999803391584741  16.98120756765855 0.9999803391584741  C 12.021027772478229 0.9999803391584741  8.000007567658551 5.021000543978152  8.000007567658551 9.981180339158474  C 8.000007567658551 11.284503457240568  8.28366983085382 12.572211390108045  8.8313 13.7549  L 0 22.5859  L 1.4141 24  L 9.901399999999997 15.512700000000002  C 10.362159571360102 16.105108898983424  10.894891101016576 16.637840428639898  11.4873 17.0986  L 8 20.5859  L 9.4141 22  L 13.2454 18.1689  C 14.424306997093979 18.71107878557912  15.706554070968675 18.99179903842529  17.00415938204334 18.99179903842529  C 21.972457763046176 18.99179903842529  26.000059382043343 14.964197419428125  26.000059382043343 9.99589903842529  C 26.000059382043343 5.027600657422454  21.972457763046176 0.9999990384252877  17.00415938204334 0.9999990384252877  Z M 18.0942 3.0942  C 21.083709016105903 3.572023968443146  23.427976031556856 5.916290983894099  23.905800000000003 8.9058  C 20.9162909838941 8.427976031556852  18.572023968443148 6.083709016105901  18.0942 3.0942  Z M 15.9058 16.9058  C 12.9162909838941 16.427976031556856  10.572023968443148 14.083709016105903  10.094200000000003 11.094200000000003  C 13.083709016105901 11.57202396844315  15.427976031556852 13.9162909838941  15.9058 16.9058  Z M 23.930000000000003 10.930700000000002  C 23.506950389225693 14.052460395500766  21.051760395500764 16.507650389225695  17.930000000000003 16.9307  C 17.431370506948785 12.813241094755806  14.186339873612159 9.56808662261927  10.0689 9.069300000000002  C 10.491949610774306 5.947539604499239  12.947139604499236 3.4923496107743075  16.0689 3.069300000000002  C 16.567529493051218 7.186758905244192  19.812560126387844 10.431913377380729  23.930000000000003 10.930700000000002  Z " fill-rule="evenodd" />
    </mask>
  </defs>
  <g transform="matrix(1 0 0 1 -2 -3 )">
    <path d="M 17.00415938204334 0.9999990384252877  C 17.002772921307233 0.9999990384252877  17.001386460587913 0.9999993589502005  17 1  C 16.993735864455594 0.9999868927758988  16.987471716915874 0.9999803391584741  16.98120756765855 0.9999803391584741  C 12.021027772478229 0.9999803391584741  8.000007567658551 5.021000543978152  8.000007567658551 9.981180339158474  C 8.000007567658551 11.284503457240568  8.28366983085382 12.572211390108045  8.8313 13.7549  L 0 22.5859  L 1.4141 24  L 9.901399999999997 15.512700000000002  C 10.362159571360102 16.105108898983424  10.894891101016576 16.637840428639898  11.4873 17.0986  L 8 20.5859  L 9.4141 22  L 13.2454 18.1689  C 14.424306997093979 18.71107878557912  15.706554070968675 18.99179903842529  17.00415938204334 18.99179903842529  C 21.972457763046176 18.99179903842529  26.000059382043343 14.964197419428125  26.000059382043343 9.99589903842529  C 26.000059382043343 5.027600657422454  21.972457763046176 0.9999990384252877  17.00415938204334 0.9999990384252877  Z M 18.0942 3.0942  C 21.083709016105903 3.572023968443146  23.427976031556856 5.916290983894099  23.905800000000003 8.9058  C 20.9162909838941 8.427976031556852  18.572023968443148 6.083709016105901  18.0942 3.0942  Z M 15.9058 16.9058  C 12.9162909838941 16.427976031556856  10.572023968443148 14.083709016105903  10.094200000000003 11.094200000000003  C 13.083709016105901 11.57202396844315  15.427976031556852 13.9162909838941  15.9058 16.9058  Z M 23.930000000000003 10.930700000000002  C 23.506950389225693 14.052460395500766  21.051760395500764 16.507650389225695  17.930000000000003 16.9307  C 17.431370506948785 12.813241094755806  14.186339873612159 9.56808662261927  10.0689 9.069300000000002  C 10.491949610774306 5.947539604499239  12.947139604499236 3.4923496107743075  16.0689 3.069300000000002  C 16.567529493051218 7.186758905244192  19.812560126387844 10.431913377380729  23.930000000000003 10.930700000000002  Z " fill-rule="nonzero" fill="rgba(0, 0, 0, 1)" stroke="none" transform="matrix(1 0 0 1 2 3 )" class="fill" />
    <path d="M 17.00415938204334 0.9999990384252877  C 17.002772921307233 0.9999990384252877  17.001386460587913 0.9999993589502005  17 1  C 16.993735864455594 0.9999868927758988  16.987471716915874 0.9999803391584741  16.98120756765855 0.9999803391584741  C 12.021027772478229 0.9999803391584741  8.000007567658551 5.021000543978152  8.000007567658551 9.981180339158474  C 8.000007567658551 11.284503457240568  8.28366983085382 12.572211390108045  8.8313 13.7549  L 0 22.5859  L 1.4141 24  L 9.901399999999997 15.512700000000002  C 10.362159571360102 16.105108898983424  10.894891101016576 16.637840428639898  11.4873 17.0986  L 8 20.5859  L 9.4141 22  L 13.2454 18.1689  C 14.424306997093979 18.71107878557912  15.706554070968675 18.99179903842529  17.00415938204334 18.99179903842529  C 21.972457763046176 18.99179903842529  26.000059382043343 14.964197419428125  26.000059382043343 9.99589903842529  C 26.000059382043343 5.027600657422454  21.972457763046176 0.9999990384252877  17.00415938204334 0.9999990384252877  Z " stroke-width="0" stroke-dasharray="0" stroke="rgba(255, 255, 255, 0)" fill="none" transform="matrix(1 0 0 1 2 3 )" class="stroke" mask="url(#Clip4325)" />
    <path d="M 18.0942 3.0942  C 21.083709016105903 3.572023968443146  23.427976031556856 5.916290983894099  23.905800000000003 8.9058  C 20.9162909838941 8.427976031556852  18.572023968443148 6.083709016105901  18.0942 3.0942  Z " stroke-width="0" stroke-dasharray="0" stroke="rgba(255, 255, 255, 0)" fill="none" transform="matrix(1 0 0 1 2 3 )" class="stroke" mask="url(#Clip4325)" />
    <path d="M 15.9058 16.9058  C 12.9162909838941 16.427976031556856  10.572023968443148 14.083709016105903  10.094200000000003 11.094200000000003  C 13.083709016105901 11.57202396844315  15.427976031556852 13.9162909838941  15.9058 16.9058  Z " stroke-width="0" stroke-dasharray="0" stroke="rgba(255, 255, 255, 0)" fill="none" transform="matrix(1 0 0 1 2 3 )" class="stroke" mask="url(#Clip4325)" />
    <path d="M 23.930000000000003 10.930700000000002  C 23.506950389225693 14.052460395500766  21.051760395500764 16.507650389225695  17.930000000000003 16.9307  C 17.431370506948785 12.813241094755806  14.186339873612159 9.56808662261927  10.0689 9.069300000000002  C 10.491949610774306 5.947539604499239  12.947139604499236 3.4923496107743075  16.0689 3.069300000000002  C 16.567529493051218 7.186758905244192  19.812560126387844 10.431913377380729  23.930000000000003 10.930700000000002  Z " stroke-width="0" stroke-dasharray="0" stroke="rgba(255, 255, 255, 0)" fill="none" transform="matrix(1 0 0 1 2 3 )" class="stroke" mask="url(#Clip4325)" />
  </g>
</svg>