<?xml version="1.0" encoding="utf-8"?>
<svg version="1.1" xmlns:xlink="http://www.w3.org/1999/xlink" width="8px" height="8px" xmlns="http://www.w3.org/2000/svg">
  <defs>
    <pattern id="BGPattern" patternUnits="userSpaceOnUse" alignment="0 0" imageRepeat="None" />
    <mask fill="white" id="Clip3220">
      <path d="M 7.5 6.699999999999999  L 6.699999999999999 7.5  L 4 4.800000000000001  L 1.2999999999999998 7.5  L 0.5 6.699999999999999  L 3.2 4  L 0.5 1.2999999999999998  L 1.2999999999999998 0.5  L 4 3.2  L 6.699999999999999 0.5  L 7.5 1.2999999999999998  L 4.800000000000001 4  L 7.5 6.699999999999999  Z " fill-rule="evenodd" />
    </mask>
  </defs>
  <g transform="matrix(1 0 0 1 -4 -4 )">
    <path d="M 7.5 6.699999999999999  L 6.699999999999999 7.5  L 4 4.800000000000001  L 1.2999999999999998 7.5  L 0.5 6.699999999999999  L 3.2 4  L 0.5 1.2999999999999998  L 1.2999999999999998 0.5  L 4 3.2  L 6.699999999999999 0.5  L 7.5 1.2999999999999998  L 4.800000000000001 4  L 7.5 6.699999999999999  Z " fill-rule="nonzero" fill="rgba(0, 0, 0, 1)" stroke="none" transform="matrix(1 0 0 1 4 4 )" class="fill" />
    <path d="M 7.5 6.699999999999999  L 6.699999999999999 7.5  L 4 4.800000000000001  L 1.2999999999999998 7.5  L 0.5 6.699999999999999  L 3.2 4  L 0.5 1.2999999999999998  L 1.2999999999999998 0.5  L 4 3.2  L 6.699999999999999 0.5  L 7.5 1.2999999999999998  L 4.800000000000001 4  L 7.5 6.699999999999999  Z " stroke-width="0" stroke-dasharray="0" stroke="rgba(255, 255, 255, 0)" fill="none" transform="matrix(1 0 0 1 4 4 )" class="stroke" mask="url(#Clip3220)" />
  </g>
</svg>