<?xml version="1.0" encoding="utf-8"?>
<svg version="1.1" xmlns:xlink="http://www.w3.org/1999/xlink" width="48px" height="48px" xmlns="http://www.w3.org/2000/svg">
  <defs>
    <pattern id="BGPattern" patternUnits="userSpaceOnUse" alignment="0 0" imageRepeat="None" />
    <mask fill="white" id="Clip7111">
      <path d="M 24 48  C 37.296 48  48 37.248  48 24  C 48 10.704  37.296 0  24 0  C 10.752 0  0 10.704  0 24  C 0 37.248  10.752 48  24 48  Z M 24 1.7279999999999998  C 36.288 1.7279999999999998  46.272 11.712  46.272 24  C 46.272 36.24  36.288 46.272  24 46.272  C 11.76 46.272  1.7279999999999998 36.242  1.7279999999999998 24  C 1.7279999999999998 11.712  11.76 1.7279999999999998  24 1.7279999999999998  Z M 39.84 23.08799999999999  C 37.824 22.754  35.04 22.56  32.496 22.56  C 31.968000000000004 22.56  31.296 22.56  30.432000000000002 22.607999999999997  L 31.056 21.551999999999996  L 32.064 21.551999999999996  C 35.664 21.551999999999996  38.352000000000004 21.743999999999996  40.8 22.175999999999995  L 41.903999999999996 21.119999999999994  C 39.168 20.639999999999993  35.855999999999995 20.351999999999993  32.495999999999995 20.351999999999993  L 31.68 20.351999999999993  L 32.208 19.343999999999994  L 33.12 19.343999999999994  C 36.623999999999995 19.343999999999994  39.791999999999994 19.631999999999994  42.864 20.207999999999995  L 44.016 19.103999999999996  C 40.559999999999995 18.431999999999995  36.864 18.097999999999995  32.879999999999995 18.097999999999995  C 31.181999999999995 18.103999999999996  29.483999999999995 18.183999999999994  27.791999999999994 18.337999999999994  C 25.871999999999993 22.463999999999995  22.799999999999994 24.865999999999993  19.343999999999994 24.81799999999999  C 18 24.768  16.318 24.193999999999996  14.16 23.04  L 12.144 21.887999999999998  L 12.768 21.311999999999998  L 17.424 23.327999999999996  L 18.432 22.559999999999995  L 9.024 18.288  L 7.584 19.392  L 4.224 18  L 4.272 19.392  C 8.783999999999999 21.456  10.656 22.608  15.408000000000001 26.016  C 21.6 30.432000000000002  27.119999999999997 32.832  34.8 34.367999999999995  L 36.815999999999995 32.44799999999999  L 36.336 32.44799999999999  C 31.247999999999998 32.44799999999999  26.687999999999995 30.767999999999994  24.048000000000002 27.935999999999993  C 26.256 26.59199999999999  28.989999999999995 25.96999999999999  32.784 25.96999999999999  C 33.792 25.96999999999999  35.232 26.063999999999993  36.576 26.20799999999999  L 37.728 25.103999999999992  C 35.928000000000004 24.883999999999993  34.118 24.77199999999999  32.304 24.767999999999994  C 31.086 24.76599999999999  29.87 24.813999999999993  28.656000000000006 24.911999999999992  L 29.520000000000003 23.85599999999999  C 30.542 23.795999999999992  31.568000000000005 23.763999999999992  32.592000000000006 23.75999999999999  C 35.136 23.75999999999999  36.816 23.85599999999999  38.736000000000004 24.14399999999999  L 39.84 23.08799999999999  Z " fill-rule="evenodd" />
    </mask>
  </defs>
  <g>
    <path d="M 24 48  C 37.296 48  48 37.248  48 24  C 48 10.704  37.296 0  24 0  C 10.752 0  0 10.704  0 24  C 0 37.248  10.752 48  24 48  Z M 24 1.7279999999999998  C 36.288 1.7279999999999998  46.272 11.712  46.272 24  C 46.272 36.24  36.288 46.272  24 46.272  C 11.76 46.272  1.7279999999999998 36.242  1.7279999999999998 24  C 1.7279999999999998 11.712  11.76 1.7279999999999998  24 1.7279999999999998  Z M 39.84 23.08799999999999  C 37.824 22.754  35.04 22.56  32.496 22.56  C 31.968000000000004 22.56  31.296 22.56  30.432000000000002 22.607999999999997  L 31.056 21.551999999999996  L 32.064 21.551999999999996  C 35.664 21.551999999999996  38.352000000000004 21.743999999999996  40.8 22.175999999999995  L 41.903999999999996 21.119999999999994  C 39.168 20.639999999999993  35.855999999999995 20.351999999999993  32.495999999999995 20.351999999999993  L 31.68 20.351999999999993  L 32.208 19.343999999999994  L 33.12 19.343999999999994  C 36.623999999999995 19.343999999999994  39.791999999999994 19.631999999999994  42.864 20.207999999999995  L 44.016 19.103999999999996  C 40.559999999999995 18.431999999999995  36.864 18.097999999999995  32.879999999999995 18.097999999999995  C 31.181999999999995 18.103999999999996  29.483999999999995 18.183999999999994  27.791999999999994 18.337999999999994  C 25.871999999999993 22.463999999999995  22.799999999999994 24.865999999999993  19.343999999999994 24.81799999999999  C 18 24.768  16.318 24.193999999999996  14.16 23.04  L 12.144 21.887999999999998  L 12.768 21.311999999999998  L 17.424 23.327999999999996  L 18.432 22.559999999999995  L 9.024 18.288  L 7.584 19.392  L 4.224 18  L 4.272 19.392  C 8.783999999999999 21.456  10.656 22.608  15.408000000000001 26.016  C 21.6 30.432000000000002  27.119999999999997 32.832  34.8 34.367999999999995  L 36.815999999999995 32.44799999999999  L 36.336 32.44799999999999  C 31.247999999999998 32.44799999999999  26.687999999999995 30.767999999999994  24.048000000000002 27.935999999999993  C 26.256 26.59199999999999  28.989999999999995 25.96999999999999  32.784 25.96999999999999  C 33.792 25.96999999999999  35.232 26.063999999999993  36.576 26.20799999999999  L 37.728 25.103999999999992  C 35.928000000000004 24.883999999999993  34.118 24.77199999999999  32.304 24.767999999999994  C 31.086 24.76599999999999  29.87 24.813999999999993  28.656000000000006 24.911999999999992  L 29.520000000000003 23.85599999999999  C 30.542 23.795999999999992  31.568000000000005 23.763999999999992  32.592000000000006 23.75999999999999  C 35.136 23.75999999999999  36.816 23.85599999999999  38.736000000000004 24.14399999999999  L 39.84 23.08799999999999  Z " fill-rule="nonzero" fill="rgba(5, 22, 77, 1)" stroke="none" class="fill" />
    <path d="M 24 48  C 37.296 48  48 37.248  48 24  C 48 10.704  37.296 0  24 0  C 10.752 0  0 10.704  0 24  C 0 37.248  10.752 48  24 48  Z " stroke-width="0" stroke-dasharray="0" stroke="rgba(255, 255, 255, 0)" fill="none" class="stroke" mask="url(#Clip7111)" />
    <path d="M 24 1.7279999999999998  C 36.288 1.7279999999999998  46.272 11.712  46.272 24  C 46.272 36.24  36.288 46.272  24 46.272  C 11.76 46.272  1.7279999999999998 36.242  1.7279999999999998 24  C 1.7279999999999998 11.712  11.76 1.7279999999999998  24 1.7279999999999998  Z " stroke-width="0" stroke-dasharray="0" stroke="rgba(255, 255, 255, 0)" fill="none" class="stroke" mask="url(#Clip7111)" />
    <path d="M 39.84 23.08799999999999  C 37.824 22.754  35.04 22.56  32.496 22.56  C 31.968000000000004 22.56  31.296 22.56  30.432000000000002 22.607999999999997  L 31.056 21.551999999999996  L 32.064 21.551999999999996  C 35.664 21.551999999999996  38.352000000000004 21.743999999999996  40.8 22.175999999999995  L 41.903999999999996 21.119999999999994  C 39.168 20.639999999999993  35.855999999999995 20.351999999999993  32.495999999999995 20.351999999999993  L 31.68 20.351999999999993  L 32.208 19.343999999999994  L 33.12 19.343999999999994  C 36.623999999999995 19.343999999999994  39.791999999999994 19.631999999999994  42.864 20.207999999999995  L 44.016 19.103999999999996  C 40.559999999999995 18.431999999999995  36.864 18.097999999999995  32.879999999999995 18.097999999999995  C 31.181999999999995 18.103999999999996  29.483999999999995 18.183999999999994  27.791999999999994 18.337999999999994  C 25.871999999999993 22.463999999999995  22.799999999999994 24.865999999999993  19.343999999999994 24.81799999999999  C 18 24.768  16.318 24.193999999999996  14.16 23.04  L 12.144 21.887999999999998  L 12.768 21.311999999999998  L 17.424 23.327999999999996  L 18.432 22.559999999999995  L 9.024 18.288  L 7.584 19.392  L 4.224 18  L 4.272 19.392  C 8.783999999999999 21.456  10.656 22.608  15.408000000000001 26.016  C 21.6 30.432000000000002  27.119999999999997 32.832  34.8 34.367999999999995  L 36.815999999999995 32.44799999999999  L 36.336 32.44799999999999  C 31.247999999999998 32.44799999999999  26.687999999999995 30.767999999999994  24.048000000000002 27.935999999999993  C 26.256 26.59199999999999  28.989999999999995 25.96999999999999  32.784 25.96999999999999  C 33.792 25.96999999999999  35.232 26.063999999999993  36.576 26.20799999999999  L 37.728 25.103999999999992  C 35.928000000000004 24.883999999999993  34.118 24.77199999999999  32.304 24.767999999999994  C 31.086 24.76599999999999  29.87 24.813999999999993  28.656000000000006 24.911999999999992  L 29.520000000000003 23.85599999999999  C 30.542 23.795999999999992  31.568000000000005 23.763999999999992  32.592000000000006 23.75999999999999  C 35.136 23.75999999999999  36.816 23.85599999999999  38.736000000000004 24.14399999999999  L 39.84 23.08799999999999  Z " stroke-width="0" stroke-dasharray="0" stroke="rgba(255, 255, 255, 0)" fill="none" class="stroke" mask="url(#Clip7111)" />
  </g>
</svg>