<?xml version="1.0" encoding="utf-8"?>
<svg version="1.1" xmlns:xlink="http://www.w3.org/1999/xlink" width="25px" height="29px" xmlns="http://www.w3.org/2000/svg">
  <defs>
    <pattern id="BGPattern" patternUnits="userSpaceOnUse" alignment="0 0" imageRepeat="None" />
    <mask fill="white" id="Clip3563">
      <path d="M 24 9  C 24.007250229094357 8.734008940793  23.897614373283936 8.478191943902019  23.7 8.3  L 16.7 1.3000000000000003  C 16.521848287975704 1.1023293945141122  16.266004032954807 0.9926818566480152  16 1  L 6 1  C 4.896752704817494 1.003185579870466  4.0031855798704665 1.896752704817495  4 2.9999999999999996  L 4 12.999999999999998  L 2 12.999999999999998  C 0.8959559279449102 13.001267465559295  0.0012674655592963546 13.895955927944907  0 14.999999999999998  L 0 21  C 0.001267465559298131 22.10404407205509  0.8959559279449102 22.9987325344407  2 22.999999999999996  L 4 22.999999999999996  L 4 26.999999999999996  C 4.003185579870465 28.103247295182502  4.896752704817494 28.99681442012953  6 29  L 22 29  C 23.103247295182506 28.99681442012953  23.996814420129535 28.1032472951825  24 26.999999999999996  L 24 9  Z M 16 8.999999999999998  L 16 3.4  L 21.6 8.999999999999998  L 16 8.999999999999998  Z M 2 20.999999999999996  L 2 14.999999999999998  L 11.5972 14.999999999999998  L 15 17.999999999999996  L 11.6074 20.999999999999996  L 2 20.999999999999996  Z M 22 11  L 22 27  L 6 27  L 6 22.999999999999996  L 11.608900000000002 22.999999999999996  C 12.091736127847827 22.99906162337203  12.558060489735329 22.82414117182885  12.9224 22.507299999999997  L 16.3057 19.515599999999992  C 16.746630119940065 19.135390389139484  17.000149197371513 18.582028418336744  17.000149197371513 17.99980962882454  C 17.000149197371513 17.422213341363626  16.75062427000033 16.872776769420746  16.315700000000003 16.492699999999996  L 12.912399999999998 13.484399999999996  C 12.550007098923349 13.17191185366383  12.087415889301962 13.000006075420181  11.6089 12.999999999999998  L 6 12.999999999999998  L 6 2.9999999999999996  L 14.000000000000002 2.9999999999999996  L 14.000000000000002 8.999999999999998  C 14.00318557987047 10.103247295182502  14.896752704817498 10.996814420129532  16 11  L 22 11  Z " fill-rule="evenodd" />
    </mask>
  </defs>
  <g transform="matrix(1 0 0 1 -4 -1 )">
    <path d="M 24 9  C 24.007250229094357 8.734008940793  23.897614373283936 8.478191943902019  23.7 8.3  L 16.7 1.3000000000000003  C 16.521848287975704 1.1023293945141122  16.266004032954807 0.9926818566480152  16 1  L 6 1  C 4.896752704817494 1.003185579870466  4.0031855798704665 1.896752704817495  4 2.9999999999999996  L 4 12.999999999999998  L 2 12.999999999999998  C 0.8959559279449102 13.001267465559295  0.0012674655592963546 13.895955927944907  0 14.999999999999998  L 0 21  C 0.001267465559298131 22.10404407205509  0.8959559279449102 22.9987325344407  2 22.999999999999996  L 4 22.999999999999996  L 4 26.999999999999996  C 4.003185579870465 28.103247295182502  4.896752704817494 28.99681442012953  6 29  L 22 29  C 23.103247295182506 28.99681442012953  23.996814420129535 28.1032472951825  24 26.999999999999996  L 24 9  Z M 16 8.999999999999998  L 16 3.4  L 21.6 8.999999999999998  L 16 8.999999999999998  Z M 2 20.999999999999996  L 2 14.999999999999998  L 11.5972 14.999999999999998  L 15 17.999999999999996  L 11.6074 20.999999999999996  L 2 20.999999999999996  Z M 22 11  L 22 27  L 6 27  L 6 22.999999999999996  L 11.608900000000002 22.999999999999996  C 12.091736127847827 22.99906162337203  12.558060489735329 22.82414117182885  12.9224 22.507299999999997  L 16.3057 19.515599999999992  C 16.746630119940065 19.135390389139484  17.000149197371513 18.582028418336744  17.000149197371513 17.99980962882454  C 17.000149197371513 17.422213341363626  16.75062427000033 16.872776769420746  16.315700000000003 16.492699999999996  L 12.912399999999998 13.484399999999996  C 12.550007098923349 13.17191185366383  12.087415889301962 13.000006075420181  11.6089 12.999999999999998  L 6 12.999999999999998  L 6 2.9999999999999996  L 14.000000000000002 2.9999999999999996  L 14.000000000000002 8.999999999999998  C 14.00318557987047 10.103247295182502  14.896752704817498 10.996814420129532  16 11  L 22 11  Z " fill-rule="nonzero" fill="rgba(0, 0, 0, 1)" stroke="none" transform="matrix(1 0 0 1 4 1 )" class="fill" />
    <path d="M 24 9  C 24.007250229094357 8.734008940793  23.897614373283936 8.478191943902019  23.7 8.3  L 16.7 1.3000000000000003  C 16.521848287975704 1.1023293945141122  16.266004032954807 0.9926818566480152  16 1  L 6 1  C 4.896752704817494 1.003185579870466  4.0031855798704665 1.896752704817495  4 2.9999999999999996  L 4 12.999999999999998  L 2 12.999999999999998  C 0.8959559279449102 13.001267465559295  0.0012674655592963546 13.895955927944907  0 14.999999999999998  L 0 21  C 0.001267465559298131 22.10404407205509  0.8959559279449102 22.9987325344407  2 22.999999999999996  L 4 22.999999999999996  L 4 26.999999999999996  C 4.003185579870465 28.103247295182502  4.896752704817494 28.99681442012953  6 29  L 22 29  C 23.103247295182506 28.99681442012953  23.996814420129535 28.1032472951825  24 26.999999999999996  L 24 9  Z " stroke-width="0" stroke-dasharray="0" stroke="rgba(255, 255, 255, 0)" fill="none" transform="matrix(1 0 0 1 4 1 )" class="stroke" mask="url(#Clip3563)" />
    <path d="M 16 8.999999999999998  L 16 3.4  L 21.6 8.999999999999998  L 16 8.999999999999998  Z " stroke-width="0" stroke-dasharray="0" stroke="rgba(255, 255, 255, 0)" fill="none" transform="matrix(1 0 0 1 4 1 )" class="stroke" mask="url(#Clip3563)" />
    <path d="M 2 20.999999999999996  L 2 14.999999999999998  L 11.5972 14.999999999999998  L 15 17.999999999999996  L 11.6074 20.999999999999996  L 2 20.999999999999996  Z " stroke-width="0" stroke-dasharray="0" stroke="rgba(255, 255, 255, 0)" fill="none" transform="matrix(1 0 0 1 4 1 )" class="stroke" mask="url(#Clip3563)" />
    <path d="M 22 11  L 22 27  L 6 27  L 6 22.999999999999996  L 11.608900000000002 22.999999999999996  C 12.091736127847827 22.99906162337203  12.558060489735329 22.82414117182885  12.9224 22.507299999999997  L 16.3057 19.515599999999992  C 16.746630119940065 19.135390389139484  17.000149197371513 18.582028418336744  17.000149197371513 17.99980962882454  C 17.000149197371513 17.422213341363626  16.75062427000033 16.872776769420746  16.315700000000003 16.492699999999996  L 12.912399999999998 13.484399999999996  C 12.550007098923349 13.17191185366383  12.087415889301962 13.000006075420181  11.6089 12.999999999999998  L 6 12.999999999999998  L 6 2.9999999999999996  L 14.000000000000002 2.9999999999999996  L 14.000000000000002 8.999999999999998  C 14.00318557987047 10.103247295182502  14.896752704817498 10.996814420129532  16 11  L 22 11  Z " stroke-width="0" stroke-dasharray="0" stroke="rgba(255, 255, 255, 0)" fill="none" transform="matrix(1 0 0 1 4 1 )" class="stroke" mask="url(#Clip3563)" />
  </g>
</svg>