<?xml version="1.0" encoding="utf-8"?>
<svg version="1.1" xmlns:xlink="http://www.w3.org/1999/xlink" width="12px" height="12px" xmlns="http://www.w3.org/2000/svg">
  <defs>
    <pattern id="BGPattern" patternUnits="userSpaceOnUse" alignment="0 0" imageRepeat="None" />
    <mask fill="white" id="Clip4291">
      <path d="M 8.77 9  L 10 12  L 12 12  L 7 0  L 5 0  L 0 12  L 2 12  L 3.24 9  L 8.77 9  Z M 8 7  L 4.07 7  L 5.890000000000001 2.58  L 6.140000000000001 2.58  L 8 7  Z " fill-rule="evenodd" />
    </mask>
  </defs>
  <g transform="matrix(1 0 0 1 -10 -10 )">
    <path d="M 8.77 9  L 10 12  L 12 12  L 7 0  L 5 0  L 0 12  L 2 12  L 3.24 9  L 8.77 9  Z M 8 7  L 4.07 7  L 5.890000000000001 2.58  L 6.140000000000001 2.58  L 8 7  Z " fill-rule="nonzero" fill="rgba(0, 0, 0, 1)" stroke="none" transform="matrix(1 0 0 1 10 10 )" class="fill" />
    <path d="M 8.77 9  L 10 12  L 12 12  L 7 0  L 5 0  L 0 12  L 2 12  L 3.24 9  L 8.77 9  Z " stroke-width="0" stroke-dasharray="0" stroke="rgba(255, 255, 255, 0)" fill="none" transform="matrix(1 0 0 1 10 10 )" class="stroke" mask="url(#Clip4291)" />
    <path d="M 8 7  L 4.07 7  L 5.890000000000001 2.58  L 6.140000000000001 2.58  L 8 7  Z " stroke-width="0" stroke-dasharray="0" stroke="rgba(255, 255, 255, 0)" fill="none" transform="matrix(1 0 0 1 10 10 )" class="stroke" mask="url(#Clip4291)" />
  </g>
</svg>