<?xml version="1.0" encoding="utf-8"?>
<svg version="1.1" xmlns:xlink="http://www.w3.org/1999/xlink" width="24px" height="24px" xmlns="http://www.w3.org/2000/svg">
  <defs>
    <pattern id="BGPattern" patternUnits="userSpaceOnUse" alignment="0 0" imageRepeat="None" />
    <mask fill="white" id="Clip4292">
      <path d="M 8 22  L 8 24  L 2 24  C 0.8954305003384135 24  0 23.104569499661586  0 22  L 0 2  C 0 0.8954305003384135  0.8954305003384135 0  2 0  L 22 0  C 23.104569499661586 0  24 0.8954305003384135  24 2  L 24 13  L 22 13  L 22 2  L 2 2  L 2 22  L 8 22  Z " fill-rule="evenodd" />
    </mask>
  </defs>
  <g transform="matrix(1 0 0 1 -4 -4 )">
    <path d="M 8 22  L 8 24  L 2 24  C 0.8954305003384135 24  0 23.104569499661586  0 22  L 0 2  C 0 0.8954305003384135  0.8954305003384135 0  2 0  L 22 0  C 23.104569499661586 0  24 0.8954305003384135  24 2  L 24 13  L 22 13  L 22 2  L 2 2  L 2 22  L 8 22  Z " fill-rule="nonzero" fill="rgba(0, 0, 0, 1)" stroke="none" transform="matrix(1 0 0 1 4 4 )" class="fill" />
    <path d="M 8 22  L 8 24  L 2 24  C 0.8954305003384135 24  0 23.104569499661586  0 22  L 0 2  C 0 0.8954305003384135  0.8954305003384135 0  2 0  L 22 0  C 23.104569499661586 0  24 0.8954305003384135  24 2  L 24 13  L 22 13  L 22 2  L 2 2  L 2 22  L 8 22  Z " stroke-width="0" stroke-dasharray="0" stroke="rgba(255, 255, 255, 0)" fill="none" transform="matrix(1 0 0 1 4 4 )" class="stroke" mask="url(#Clip4292)" />
  </g>
</svg>