<?xml version="1.0" encoding="utf-8"?>
<svg version="1.1" xmlns:xlink="http://www.w3.org/1999/xlink" width="18px" height="24px" xmlns="http://www.w3.org/2000/svg">
  <defs>
    <pattern id="BGPattern" patternUnits="userSpaceOnUse" alignment="0 0" imageRepeat="None" />
    <mask fill="white" id="Clip5514">
      <path d="M 0 3  C 0 1.3431457505076196  1.3431457505076194 0  3 0  L 10.939499999999999 0  C 11.33729222021822 8.495610824209971E-05  11.718760902963812 0.15817593778357192  12 0.4395  L 17.5605 6  C 17.84182406221643 6.281239097036188  17.999915043891757 6.662707779781778  18 7.060499999999999  L 18 21  C 18 22.65685424949238  16.65685424949238 24  15 24  L 3 24  C 1.3431457505076194 24  0 22.65685424949238  0 21  L 0 3  Z M 15.75 6.75  L 11.25 2.25  L 11.25 5.25  C 11.25 6.07842712474619  11.92157287525381 6.75  12.75 6.75  L 15.75 6.75  Z M 9.282 8.25  L 7.5 8.25  C 6.67157287525381 8.25  6 8.92157287525381  6 9.75  L 6 19.5  C 6 19.914213562373096  6.335786437626904 20.25  6.75 20.25  C 7.164213562373096 20.25  7.5 19.914213562373096  7.5 19.5  L 7.5 16.5  L 9.282 16.5  C 11.560174593052025 16.5  13.407 14.653174593052023  13.407 12.375  C 13.407 10.096825406947978  11.560174593052025 8.25  9.282 8.25  Z " fill-rule="evenodd" />
    </mask>
  </defs>
  <g>
    <path d="M 0 3  C 0 1.3431457505076196  1.3431457505076194 0  3 0  L 10.939499999999999 0  C 11.33729222021822 8.495610824209971E-05  11.718760902963812 0.15817593778357192  12 0.4395  L 17.5605 6  C 17.84182406221643 6.281239097036188  17.999915043891757 6.662707779781778  18 7.060499999999999  L 18 21  C 18 22.65685424949238  16.65685424949238 24  15 24  L 3 24  C 1.3431457505076194 24  0 22.65685424949238  0 21  L 0 3  Z M 15.75 6.75  L 11.25 2.25  L 11.25 5.25  C 11.25 6.07842712474619  11.92157287525381 6.75  12.75 6.75  L 15.75 6.75  Z M 9.282 8.25  L 7.5 8.25  C 6.67157287525381 8.25  6 8.92157287525381  6 9.75  L 6 19.5  C 6 19.914213562373096  6.335786437626904 20.25  6.75 20.25  C 7.164213562373096 20.25  7.5 19.914213562373096  7.5 19.5  L 7.5 16.5  L 9.282 16.5  C 11.560174593052025 16.5  13.407 14.653174593052023  13.407 12.375  C 13.407 10.096825406947978  11.560174593052025 8.25  9.282 8.25  Z " fill-rule="nonzero" fill="rgba(0, 0, 0, 1)" stroke="none" class="fill" />
    <path d="M 0 3  C 0 1.3431457505076196  1.3431457505076194 0  3 0  L 10.939499999999999 0  C 11.33729222021822 8.495610824209971E-05  11.718760902963812 0.15817593778357192  12 0.4395  L 17.5605 6  C 17.84182406221643 6.281239097036188  17.999915043891757 6.662707779781778  18 7.060499999999999  L 18 21  C 18 22.65685424949238  16.65685424949238 24  15 24  L 3 24  C 1.3431457505076194 24  0 22.65685424949238  0 21  L 0 3  Z " stroke-width="0" stroke-dasharray="0" stroke="rgba(255, 255, 255, 0)" fill="none" class="stroke" mask="url(#Clip5514)" />
    <path d="M 15.75 6.75  L 11.25 2.25  L 11.25 5.25  C 11.25 6.07842712474619  11.92157287525381 6.75  12.75 6.75  L 15.75 6.75  Z " stroke-width="0" stroke-dasharray="0" stroke="rgba(255, 255, 255, 0)" fill="none" class="stroke" mask="url(#Clip5514)" />
    <path d="M 9.282 8.25  L 7.5 8.25  C 6.67157287525381 8.25  6 8.92157287525381  6 9.75  L 6 19.5  C 6 19.914213562373096  6.335786437626904 20.25  6.75 20.25  C 7.164213562373096 20.25  7.5 19.914213562373096  7.5 19.5  L 7.5 16.5  L 9.282 16.5  C 11.560174593052025 16.5  13.407 14.653174593052023  13.407 12.375  C 13.407 10.096825406947978  11.560174593052025 8.25  9.282 8.25  Z " stroke-width="0" stroke-dasharray="0" stroke="rgba(255, 255, 255, 0)" fill="none" class="stroke" mask="url(#Clip5514)" />
  </g>
</svg>