<?xml version="1.0" encoding="utf-8"?>
<svg version="1.1" xmlns:xlink="http://www.w3.org/1999/xlink" width="50px" height="38px" xmlns="http://www.w3.org/2000/svg">
  <defs>
    <pattern id="BGPattern" patternUnits="userSpaceOnUse" alignment="0 0" imageRepeat="None" />
    <mask fill="white" id="Clip1381">
      <path d="M 20.51777343750001 36.56298828125  C 19.54140625000001 37.53925781250001  17.958496093750014 37.53925781250001  16.982226562500003 36.56289062500002  L 0.7322265625000028 20.312890625000023  C -0.24404296874999432 19.33662109375001  -0.24404296874999432 17.75371093749999  0.7322265625000028 16.77734375  L 4.267675781250006 13.241796874999977  C 5.243945312500003 12.265429687499989  6.826953125000003 12.265429687499989  7.80322265625 13.241796874999977  L 18.75 24.1884765625  L 42.19677734375 0.7417968749999773  C 43.17304687500001 -0.23447265624997726  44.75605468750001 -0.23447265624997726  45.732324218749994 0.7417968749999773  L 49.26777343750001 4.27734375  C 50.244042968749994 5.253613281250011  50.244042968749994 6.836523437499977  49.26777343750001 7.812890625000023  L 20.51777343750001 36.56298828125  Z " fill-rule="evenodd" />
    </mask>
  </defs>
  <g>
    <path d="M 20.51777343750001 36.56298828125  C 19.54140625000001 37.53925781250001  17.958496093750014 37.53925781250001  16.982226562500003 36.56289062500002  L 0.7322265625000028 20.312890625000023  C -0.24404296874999432 19.33662109375001  -0.24404296874999432 17.75371093749999  0.7322265625000028 16.77734375  L 4.267675781250006 13.241796874999977  C 5.243945312500003 12.265429687499989  6.826953125000003 12.265429687499989  7.80322265625 13.241796874999977  L 18.75 24.1884765625  L 42.19677734375 0.7417968749999773  C 43.17304687500001 -0.23447265624997726  44.75605468750001 -0.23447265624997726  45.732324218749994 0.7417968749999773  L 49.26777343750001 4.27734375  C 50.244042968749994 5.253613281250011  50.244042968749994 6.836523437499977  49.26777343750001 7.812890625000023  L 20.51777343750001 36.56298828125  Z " fill-rule="nonzero" fill="rgba(0, 0, 0, 1)" stroke="none" class="fill" />
    <path d="M 20.51777343750001 36.56298828125  C 19.54140625000001 37.53925781250001  17.958496093750014 37.53925781250001  16.982226562500003 36.56289062500002  L 0.7322265625000028 20.312890625000023  C -0.24404296874999432 19.33662109375001  -0.24404296874999432 17.75371093749999  0.7322265625000028 16.77734375  L 4.267675781250006 13.241796874999977  C 5.243945312500003 12.265429687499989  6.826953125000003 12.265429687499989  7.80322265625 13.241796874999977  L 18.75 24.1884765625  L 42.19677734375 0.7417968749999773  C 43.17304687500001 -0.23447265624997726  44.75605468750001 -0.23447265624997726  45.732324218749994 0.7417968749999773  L 49.26777343750001 4.27734375  C 50.244042968749994 5.253613281250011  50.244042968749994 6.836523437499977  49.26777343750001 7.812890625000023  L 20.51777343750001 36.56298828125  Z " stroke-width="0" stroke-dasharray="0" stroke="rgba(255, 255, 255, 0)" fill="none" class="stroke" mask="url(#Clip1381)" />
  </g>
</svg>