<?xml version="1.0" encoding="utf-8"?>
<svg version="1.1" xmlns:xlink="http://www.w3.org/1999/xlink" width="22px" height="22px" xmlns="http://www.w3.org/2000/svg">
  <defs>
    <pattern id="BGPattern" patternUnits="userSpaceOnUse" alignment="0 0" imageRepeat="None" />
    <mask fill="white" id="Clip4288">
      <path d="M 21.999999999999996 10.999999999999996  C 21.9931114209017 17.072276616402853  17.072276616402856 21.9931114209017  11 22  C 4.924867751861273 22  0 17.07513224813873  0 11  C 0 4.924867751861271  4.924867751861273 0  11 0  C 17.07513224813873 0  22 4.924867751861271  22 11  Z M 20 11  C 19.994488871040655 6.031721826423452  15.968278173576545 2.0055111289593466  11 2  C 6.029437251522857 2  1.9999999999999991 6.029437251522858  1.9999999999999991 11  C 1.9999999999999991 15.970562748477143  6.029437251522857 20  11 20  C 15.97056274847714 20  20 15.970562748477143  20 11  Z " fill-rule="evenodd" />
    </mask>
  </defs>
  <g transform="matrix(1 0 0 1 -5 -6 )">
    <path d="M 21.999999999999996 10.999999999999996  C 21.9931114209017 17.072276616402853  17.072276616402856 21.9931114209017  11 22  C 4.924867751861273 22  0 17.07513224813873  0 11  C 0 4.924867751861271  4.924867751861273 0  11 0  C 17.07513224813873 0  22 4.924867751861271  22 11  Z M 20 11  C 19.994488871040655 6.031721826423452  15.968278173576545 2.0055111289593466  11 2  C 6.029437251522857 2  1.9999999999999991 6.029437251522858  1.9999999999999991 11  C 1.9999999999999991 15.970562748477143  6.029437251522857 20  11 20  C 15.97056274847714 20  20 15.970562748477143  20 11  Z " fill-rule="nonzero" fill="rgba(0, 0, 0, 1)" stroke="none" transform="matrix(1 0 0 1 5 6 )" class="fill" />
    <path d="M 21.999999999999996 10.999999999999996  C 21.9931114209017 17.072276616402853  17.072276616402856 21.9931114209017  11 22  C 4.924867751861273 22  0 17.07513224813873  0 11  C 0 4.924867751861271  4.924867751861273 0  11 0  C 17.07513224813873 0  22 4.924867751861271  22 11  Z " stroke-width="0" stroke-dasharray="0" stroke="rgba(255, 255, 255, 0)" fill="none" transform="matrix(1 0 0 1 5 6 )" class="stroke" mask="url(#Clip4288)" />
    <path d="M 20 11  C 19.994488871040655 6.031721826423452  15.968278173576545 2.0055111289593466  11 2  C 6.029437251522857 2  1.9999999999999991 6.029437251522858  1.9999999999999991 11  C 1.9999999999999991 15.970562748477143  6.029437251522857 20  11 20  C 15.97056274847714 20  20 15.970562748477143  20 11  Z " stroke-width="0" stroke-dasharray="0" stroke="rgba(255, 255, 255, 0)" fill="none" transform="matrix(1 0 0 1 5 6 )" class="stroke" mask="url(#Clip4288)" />
  </g>
</svg>