<?xml version="1.0" encoding="utf-8"?>
<svg version="1.1" xmlns:xlink="http://www.w3.org/1999/xlink" width="28px" height="30px" xmlns="http://www.w3.org/2000/svg">
  <defs>
    <pattern id="BGPattern" patternUnits="userSpaceOnUse" alignment="0 0" imageRepeat="None" />
    <mask fill="white" id="Clip611">
      <path d="M 22.839999999999996 29.400000000000006  L 13.8 29.4  C 13.144 29.4  12.600000000000001 28.855999999999998  12.600000000000001 28.2  C 12.600000000000001 27.544  13.144000000000002 27  13.8 27  L 22.84 27  C 24.248 27  25.4 25.848  25 24.44  L 25 12.392000000000001  C 25.4 11.848  25.096 11.112000000000002  24.727999999999998 10.744000000000002  L 17.752 3.6880000000000015  C 17.384 3.304000000000001  16.648 3.0000000000000018  16.119999999999997 3.0000000000000018  L 10.359999999999998 3.0000000000000018  C 8.951999999999998 3.0000000000000018  7.799999999999997 4.152000000000002  7.799999999999997 5.560000000000002  L 7.799999999999997 13.800000000000002  C 7.799999999999997 14.456000000000003  7.255999999999997 15.000000000000004  6.599999999999997 15.000000000000004  C 5.943999999999997 15.000000000000004  5.399999999999997 14.456000000000003  5.399999999999997 13.800000000000004  L 5.399999999999997 5.560000000000004  C 5.399999999999997 2.824000000000004  7.623999999999997 0.6000000000000041  10.359999999999996 0.6000000000000041  L 16.119999999999997 0.6000000000000041  C 17.287999999999997 0.6000000000000041  18.631999999999998 1.1600000000000041  19.464 1.9920000000000042  L 26.439999999999998 9.048000000000004  C 27.255999999999997 9.880000000000004  27.799999999999997 11.224000000000004  27.799999999999997 12.392000000000003  L 27.799999999999997 24.440000000000005  C 27.799999999999997 27.176000000000005  25.575999999999997 29.400000000000006  22.839999999999996 29.400000000000006  Z M 21.816 14.199999999999996  L 15.399999999999999 14.2  C 15.047999999999998 14.2  14.759999999999996 14.072  14.552 13.847999999999999  C 14.328 13.639999999999999  14.199999999999996 13.351999999999999  14.199999999999996 12.999999999999998  L 14.199999999999996 6.599999999999998  C 14.199999999999996 5.911999999999998  14.727999999999998 5.399999999999998  15.399999999999999 5.399999999999998  C 16.055999999999997 5.399999999999998  16.599999999999998 5.911999999999997  16.599999999999998 6.599999999999998  L 16.599999999999998 11.799999999999997  L 21.816 11.799999999999997  C 22.488 11.799999999999997  23.016 12.343999999999998  23 12.999999999999996  C 23.016 13.671999999999997  22.488 14.199999999999996  21.816 14.199999999999996  Z M 7.800000000000001 28.2  C 7.800000000000001 28.872  7.272 29.4  6.6 29.4  C 5.912 29.4  5.3999999999999995 28.887999999999998  5.3999999999999995 28.2  L 5.3999999999999995 21.512  L 2.6479999999999997 24.248  C 2.1679999999999997 24.728  1.4159999999999995 24.728  0.9519999999999997 24.232000000000003  C 0.4559999999999997 23.704000000000004  0.5039999999999998 23.000000000000004  0.9519999999999997 22.552000000000003  L 5.752 17.768000000000004  C 5.912 17.608000000000004  6.216 17.400000000000006  6.6 17.400000000000006  C 6.904 17.400000000000006  7.208 17.544000000000004  7.448 17.768000000000004  L 12.248000000000001 22.552000000000003  C 12.696000000000002 22.984  12.696000000000002 23.752000000000002  12.280000000000001 24.200000000000003  C 11.768 24.744000000000003  11.016000000000002 24.696  10.568000000000001 24.248  L 7.800000000000001 21.512  L 7.800000000000001 28.2  Z " fill-rule="evenodd" />
    </mask>
  </defs>
  <g>
    <path d="M 22.839999999999996 29.400000000000006  L 13.8 29.4  C 13.144 29.4  12.600000000000001 28.855999999999998  12.600000000000001 28.2  C 12.600000000000001 27.544  13.144000000000002 27  13.8 27  L 22.84 27  C 24.248 27  25.4 25.848  25 24.44  L 25 12.392000000000001  C 25.4 11.848  25.096 11.112000000000002  24.727999999999998 10.744000000000002  L 17.752 3.6880000000000015  C 17.384 3.304000000000001  16.648 3.0000000000000018  16.119999999999997 3.0000000000000018  L 10.359999999999998 3.0000000000000018  C 8.951999999999998 3.0000000000000018  7.799999999999997 4.152000000000002  7.799999999999997 5.560000000000002  L 7.799999999999997 13.800000000000002  C 7.799999999999997 14.456000000000003  7.255999999999997 15.000000000000004  6.599999999999997 15.000000000000004  C 5.943999999999997 15.000000000000004  5.399999999999997 14.456000000000003  5.399999999999997 13.800000000000004  L 5.399999999999997 5.560000000000004  C 5.399999999999997 2.824000000000004  7.623999999999997 0.6000000000000041  10.359999999999996 0.6000000000000041  L 16.119999999999997 0.6000000000000041  C 17.287999999999997 0.6000000000000041  18.631999999999998 1.1600000000000041  19.464 1.9920000000000042  L 26.439999999999998 9.048000000000004  C 27.255999999999997 9.880000000000004  27.799999999999997 11.224000000000004  27.799999999999997 12.392000000000003  L 27.799999999999997 24.440000000000005  C 27.799999999999997 27.176000000000005  25.575999999999997 29.400000000000006  22.839999999999996 29.400000000000006  Z M 21.816 14.199999999999996  L 15.399999999999999 14.2  C 15.047999999999998 14.2  14.759999999999996 14.072  14.552 13.847999999999999  C 14.328 13.639999999999999  14.199999999999996 13.351999999999999  14.199999999999996 12.999999999999998  L 14.199999999999996 6.599999999999998  C 14.199999999999996 5.911999999999998  14.727999999999998 5.399999999999998  15.399999999999999 5.399999999999998  C 16.055999999999997 5.399999999999998  16.599999999999998 5.911999999999997  16.599999999999998 6.599999999999998  L 16.599999999999998 11.799999999999997  L 21.816 11.799999999999997  C 22.488 11.799999999999997  23.016 12.343999999999998  23 12.999999999999996  C 23.016 13.671999999999997  22.488 14.199999999999996  21.816 14.199999999999996  Z M 7.800000000000001 28.2  C 7.800000000000001 28.872  7.272 29.4  6.6 29.4  C 5.912 29.4  5.3999999999999995 28.887999999999998  5.3999999999999995 28.2  L 5.3999999999999995 21.512  L 2.6479999999999997 24.248  C 2.1679999999999997 24.728  1.4159999999999995 24.728  0.9519999999999997 24.232000000000003  C 0.4559999999999997 23.704000000000004  0.5039999999999998 23.000000000000004  0.9519999999999997 22.552000000000003  L 5.752 17.768000000000004  C 5.912 17.608000000000004  6.216 17.400000000000006  6.6 17.400000000000006  C 6.904 17.400000000000006  7.208 17.544000000000004  7.448 17.768000000000004  L 12.248000000000001 22.552000000000003  C 12.696000000000002 22.984  12.696000000000002 23.752000000000002  12.280000000000001 24.200000000000003  C 11.768 24.744000000000003  11.016000000000002 24.696  10.568000000000001 24.248  L 7.800000000000001 21.512  L 7.800000000000001 28.2  Z " fill-rule="nonzero" fill="rgba(0, 0, 0, 1)" stroke="none" class="fill" />
    <path d="M 22.839999999999996 29.400000000000006  L 13.8 29.4  C 13.144 29.4  12.600000000000001 28.855999999999998  12.600000000000001 28.2  C 12.600000000000001 27.544  13.144000000000002 27  13.8 27  L 22.84 27  C 24.248 27  25.4 25.848  25 24.44  L 25 12.392000000000001  C 25.4 11.848  25.096 11.112000000000002  24.727999999999998 10.744000000000002  L 17.752 3.6880000000000015  C 17.384 3.304000000000001  16.648 3.0000000000000018  16.119999999999997 3.0000000000000018  L 10.359999999999998 3.0000000000000018  C 8.951999999999998 3.0000000000000018  7.799999999999997 4.152000000000002  7.799999999999997 5.560000000000002  L 7.799999999999997 13.800000000000002  C 7.799999999999997 14.456000000000003  7.255999999999997 15.000000000000004  6.599999999999997 15.000000000000004  C 5.943999999999997 15.000000000000004  5.399999999999997 14.456000000000003  5.399999999999997 13.800000000000004  L 5.399999999999997 5.560000000000004  C 5.399999999999997 2.824000000000004  7.623999999999997 0.6000000000000041  10.359999999999996 0.6000000000000041  L 16.119999999999997 0.6000000000000041  C 17.287999999999997 0.6000000000000041  18.631999999999998 1.1600000000000041  19.464 1.9920000000000042  L 26.439999999999998 9.048000000000004  C 27.255999999999997 9.880000000000004  27.799999999999997 11.224000000000004  27.799999999999997 12.392000000000003  L 27.799999999999997 24.440000000000005  C 27.799999999999997 27.176000000000005  25.575999999999997 29.400000000000006  22.839999999999996 29.400000000000006  Z " stroke-width="0" stroke-dasharray="0" stroke="rgba(255, 255, 255, 0)" fill="none" class="stroke" mask="url(#Clip611)" />
    <path d="M 21.816 14.199999999999996  L 15.399999999999999 14.2  C 15.047999999999998 14.2  14.759999999999996 14.072  14.552 13.847999999999999  C 14.328 13.639999999999999  14.199999999999996 13.351999999999999  14.199999999999996 12.999999999999998  L 14.199999999999996 6.599999999999998  C 14.199999999999996 5.911999999999998  14.727999999999998 5.399999999999998  15.399999999999999 5.399999999999998  C 16.055999999999997 5.399999999999998  16.599999999999998 5.911999999999997  16.599999999999998 6.599999999999998  L 16.599999999999998 11.799999999999997  L 21.816 11.799999999999997  C 22.488 11.799999999999997  23.016 12.343999999999998  23 12.999999999999996  C 23.016 13.671999999999997  22.488 14.199999999999996  21.816 14.199999999999996  Z " stroke-width="0" stroke-dasharray="0" stroke="rgba(255, 255, 255, 0)" fill="none" class="stroke" mask="url(#Clip611)" />
    <path d="M 7.800000000000001 28.2  C 7.800000000000001 28.872  7.272 29.4  6.6 29.4  C 5.912 29.4  5.3999999999999995 28.887999999999998  5.3999999999999995 28.2  L 5.3999999999999995 21.512  L 2.6479999999999997 24.248  C 2.1679999999999997 24.728  1.4159999999999995 24.728  0.9519999999999997 24.232000000000003  C 0.4559999999999997 23.704000000000004  0.5039999999999998 23.000000000000004  0.9519999999999997 22.552000000000003  L 5.752 17.768000000000004  C 5.912 17.608000000000004  6.216 17.400000000000006  6.6 17.400000000000006  C 6.904 17.400000000000006  7.208 17.544000000000004  7.448 17.768000000000004  L 12.248000000000001 22.552000000000003  C 12.696000000000002 22.984  12.696000000000002 23.752000000000002  12.280000000000001 24.200000000000003  C 11.768 24.744000000000003  11.016000000000002 24.696  10.568000000000001 24.248  L 7.800000000000001 21.512  L 7.800000000000001 28.2  Z " stroke-width="0" stroke-dasharray="0" stroke="rgba(255, 255, 255, 0)" fill="none" class="stroke" mask="url(#Clip611)" />
  </g>
</svg>