<?xml version="1.0" encoding="utf-8"?>
<svg version="1.1" xmlns:xlink="http://www.w3.org/1999/xlink" width="24px" height="20px" xmlns="http://www.w3.org/2000/svg">
  <defs>
    <pattern id="BGPattern" patternUnits="userSpaceOnUse" alignment="0 0" imageRepeat="None" />
    <mask fill="white" id="Clip33">
      <path d="M 14.047999999999998 0.35200000000000564  L 22.848 9.152  C 23.087999999999997 9.392  23.2 9.696  23.2 10  C 23.2 10.304000000000002  23.072 10.608  22.848 10.847999999999999  L 14.047999999999998 19.648  C 13.823999999999998 19.887999999999998  13.503999999999998 20  13.2 20  C 12.896 20  12.591999999999999 19.888  12.352 19.648  C 12.128 19.424  12 19.104  12 18.8  C 12 18.496000000000002  12.111999999999998 18.192  12.352 17.952  L 19.104 11  L 2 11  C 1.3440000000000003 11.200000000000003  0.7999999999999998 10.672000000000004  0.7999999999999998 10.000000000000004  C 0.7999999999999998 9.344000000000003  1.3439999999999994 8.800000000000004  2 9  L 19.104 9  L 12.352 2.0480000000000054  C 12.128 1.8240000000000052  12 1.5040000000000049  12 1.2000000000000055  C 12 0.8960000000000061  12.111999999999998 0.5760000000000058  12.352 0.35200000000000564  C 12.592000000000002 0.12800000000000544  12.896 0  13.2 0  C 13.503999999999998 0  13.823999999999998 0.12800000000000544  14.047999999999998 0.35200000000000564  Z " fill-rule="evenodd" />
    </mask>
  </defs>
  <g>
    <path d="M 14.047999999999998 0.35200000000000564  L 22.848 9.152  C 23.087999999999997 9.392  23.2 9.696  23.2 10  C 23.2 10.304000000000002  23.072 10.608  22.848 10.847999999999999  L 14.047999999999998 19.648  C 13.823999999999998 19.887999999999998  13.503999999999998 20  13.2 20  C 12.896 20  12.591999999999999 19.888  12.352 19.648  C 12.128 19.424  12 19.104  12 18.8  C 12 18.496000000000002  12.111999999999998 18.192  12.352 17.952  L 19.104 11  L 2 11  C 1.3440000000000003 11.200000000000003  0.7999999999999998 10.672000000000004  0.7999999999999998 10.000000000000004  C 0.7999999999999998 9.344000000000003  1.3439999999999994 8.800000000000004  2 9  L 19.104 9  L 12.352 2.0480000000000054  C 12.128 1.8240000000000052  12 1.5040000000000049  12 1.2000000000000055  C 12 0.8960000000000061  12.111999999999998 0.5760000000000058  12.352 0.35200000000000564  C 12.592000000000002 0.12800000000000544  12.896 0  13.2 0  C 13.503999999999998 0  13.823999999999998 0.12800000000000544  14.047999999999998 0.35200000000000564  Z " fill-rule="nonzero" fill="rgba(0, 0, 0, 1)" stroke="none" class="fill" />
    <path d="M 14.047999999999998 0.35200000000000564  L 22.848 9.152  C 23.087999999999997 9.392  23.2 9.696  23.2 10  C 23.2 10.304000000000002  23.072 10.608  22.848 10.847999999999999  L 14.047999999999998 19.648  C 13.823999999999998 19.887999999999998  13.503999999999998 20  13.2 20  C 12.896 20  12.591999999999999 19.888  12.352 19.648  C 12.128 19.424  12 19.104  12 18.8  C 12 18.496000000000002  12.111999999999998 18.192  12.352 17.952  L 19.104 11  L 2 11  C 1.3440000000000003 11.200000000000003  0.7999999999999998 10.672000000000004  0.7999999999999998 10.000000000000004  C 0.7999999999999998 9.344000000000003  1.3439999999999994 8.800000000000004  2 9  L 19.104 9  L 12.352 2.0480000000000054  C 12.128 1.8240000000000052  12 1.5040000000000049  12 1.2000000000000055  C 12 0.8960000000000061  12.111999999999998 0.5760000000000058  12.352 0.35200000000000564  C 12.592000000000002 0.12800000000000544  12.896 0  13.2 0  C 13.503999999999998 0  13.823999999999998 0.12800000000000544  14.047999999999998 0.35200000000000564  Z " stroke-width="0" stroke-dasharray="0" stroke="rgba(255, 255, 255, 0)" fill="none" class="stroke" mask="url(#Clip33)" />
  </g>
</svg>