<?xml version="1.0" encoding="utf-8"?>
<svg version="1.1" xmlns:xlink="http://www.w3.org/1999/xlink" width="6px" height="6px" xmlns="http://www.w3.org/2000/svg">
  <defs>
    <pattern id="BGPattern" patternUnits="userSpaceOnUse" alignment="0 0" imageRepeat="None" />
    <mask fill="white" id="Clip3111">
      <path d="M 0 2.9999999999999982  C 0 4.656854249492377  1.3431457505076168 5.9999999999999964  3 5.9999999999999964  C 4.656854249492376 5.9999999999999964  6 4.656854249492377  6 2.9999999999999982  C 6 1.3431457505076194  4.656854249492376 0  3 0  C 1.3431457505076168 0  0 1.3431457505076194  0 2.9999999999999982  Z " fill-rule="evenodd" />
    </mask>
  </defs>
  <g transform="matrix(1 0 0 1 -19 -17 )">
    <path d="M 0 2.9999999999999982  C 0 4.656854249492377  1.3431457505076168 5.9999999999999964  3 5.9999999999999964  C 4.656854249492376 5.9999999999999964  6 4.656854249492377  6 2.9999999999999982  C 6 1.3431457505076194  4.656854249492376 0  3 0  C 1.3431457505076168 0  0 1.3431457505076194  0 2.9999999999999982  Z " fill-rule="nonzero" fill="rgba(0, 0, 0, 1)" stroke="none" transform="matrix(1 0 0 1 19 17 )" class="fill" />
    <path d="M 0 2.9999999999999982  C 0 4.656854249492377  1.3431457505076168 5.9999999999999964  3 5.9999999999999964  C 4.656854249492376 5.9999999999999964  6 4.656854249492377  6 2.9999999999999982  C 6 1.3431457505076194  4.656854249492376 0  3 0  C 1.3431457505076168 0  0 1.3431457505076194  0 2.9999999999999982  Z " stroke-width="0" stroke-dasharray="0" stroke="rgba(255, 255, 255, 0)" fill="none" transform="matrix(1 0 0 1 19 17 )" class="stroke" mask="url(#Clip3111)" />
  </g>
</svg>