<?xml version="1.0" encoding="utf-8"?>
<svg version="1.1" xmlns:xlink="http://www.w3.org/1999/xlink" width="18px" height="24px" xmlns="http://www.w3.org/2000/svg">
  <defs>
    <pattern id="BGPattern" patternUnits="userSpaceOnUse" alignment="0 0" imageRepeat="None" />
    <mask fill="white" id="Clip5458">
      <path d="M 18 3  C 18 1.3431457505076196  16.65685424949238 0  15 0  L 3 0  C 1.3431457505076194 0  0 1.3431457505076196  0 3  L 0 21  C 0 22.65685424949238  1.3431457505076194 24  3 24  L 15 24  C 16.65685424949238 24  18 22.65685424949238  18 21  L 18 3  Z M 9 6  C 9.414213562373096 6  9.75 6.335786437626905  9.75 6.75  L 9.75 9  L 12 9  C 12.414213562373096 9  12.75 9.335786437626904  12.75 9.75  C 12.75 10.164213562373096  12.414213562373096 10.5  12 10.5  L 9.75 10.5  L 9.75 12.75  C 9.75 13.164213562373096  9.414213562373096 13.5  9 13.5  C 8.585786437626904 13.5  8.25 13.164213562373096  8.25 12.75  L 8.25 10.5  L 6 10.5  C 5.585786437626904 10.5  5.25 10.164213562373096  5.25 9.75  C 5.25 9.335786437626904  5.585786437626904 9  6 9  L 8.25 9  L 8.25 6.75  C 8.25 6.335786437626905  8.585786437626904 6  9 6  Z M 5.25 15.75  C 5.25 15.335786437626904  5.585786437626904 15  6 15  L 12 15  C 12.414213562373096 15  12.75 15.335786437626904  12.75 15.75  C 12.75 16.164213562373096  12.414213562373096 16.5  12 16.5  L 6 16.5  C 5.585786437626904 16.5  5.25 16.164213562373096  5.25 15.75  Z " fill-rule="evenodd" />
    </mask>
  </defs>
  <g>
    <path d="M 18 3  C 18 1.3431457505076196  16.65685424949238 0  15 0  L 3 0  C 1.3431457505076194 0  0 1.3431457505076196  0 3  L 0 21  C 0 22.65685424949238  1.3431457505076194 24  3 24  L 15 24  C 16.65685424949238 24  18 22.65685424949238  18 21  L 18 3  Z M 9 6  C 9.414213562373096 6  9.75 6.335786437626905  9.75 6.75  L 9.75 9  L 12 9  C 12.414213562373096 9  12.75 9.335786437626904  12.75 9.75  C 12.75 10.164213562373096  12.414213562373096 10.5  12 10.5  L 9.75 10.5  L 9.75 12.75  C 9.75 13.164213562373096  9.414213562373096 13.5  9 13.5  C 8.585786437626904 13.5  8.25 13.164213562373096  8.25 12.75  L 8.25 10.5  L 6 10.5  C 5.585786437626904 10.5  5.25 10.164213562373096  5.25 9.75  C 5.25 9.335786437626904  5.585786437626904 9  6 9  L 8.25 9  L 8.25 6.75  C 8.25 6.335786437626905  8.585786437626904 6  9 6  Z M 5.25 15.75  C 5.25 15.335786437626904  5.585786437626904 15  6 15  L 12 15  C 12.414213562373096 15  12.75 15.335786437626904  12.75 15.75  C 12.75 16.164213562373096  12.414213562373096 16.5  12 16.5  L 6 16.5  C 5.585786437626904 16.5  5.25 16.164213562373096  5.25 15.75  Z " fill-rule="nonzero" fill="rgba(0, 0, 0, 1)" stroke="none" class="fill" />
    <path d="M 18 3  C 18 1.3431457505076196  16.65685424949238 0  15 0  L 3 0  C 1.3431457505076194 0  0 1.3431457505076196  0 3  L 0 21  C 0 22.65685424949238  1.3431457505076194 24  3 24  L 15 24  C 16.65685424949238 24  18 22.65685424949238  18 21  L 18 3  Z " stroke-width="0" stroke-dasharray="0" stroke="rgba(255, 255, 255, 0)" fill="none" class="stroke" mask="url(#Clip5458)" />
    <path d="M 9 6  C 9.414213562373096 6  9.75 6.335786437626905  9.75 6.75  L 9.75 9  L 12 9  C 12.414213562373096 9  12.75 9.335786437626904  12.75 9.75  C 12.75 10.164213562373096  12.414213562373096 10.5  12 10.5  L 9.75 10.5  L 9.75 12.75  C 9.75 13.164213562373096  9.414213562373096 13.5  9 13.5  C 8.585786437626904 13.5  8.25 13.164213562373096  8.25 12.75  L 8.25 10.5  L 6 10.5  C 5.585786437626904 10.5  5.25 10.164213562373096  5.25 9.75  C 5.25 9.335786437626904  5.585786437626904 9  6 9  L 8.25 9  L 8.25 6.75  C 8.25 6.335786437626905  8.585786437626904 6  9 6  Z " stroke-width="0" stroke-dasharray="0" stroke="rgba(255, 255, 255, 0)" fill="none" class="stroke" mask="url(#Clip5458)" />
    <path d="M 5.25 15.75  C 5.25 15.335786437626904  5.585786437626904 15  6 15  L 12 15  C 12.414213562373096 15  12.75 15.335786437626904  12.75 15.75  C 12.75 16.164213562373096  12.414213562373096 16.5  12 16.5  L 6 16.5  C 5.585786437626904 16.5  5.25 16.164213562373096  5.25 15.75  Z " stroke-width="0" stroke-dasharray="0" stroke="rgba(255, 255, 255, 0)" fill="none" class="stroke" mask="url(#Clip5458)" />
  </g>
</svg>