<?xml version="1.0" encoding="utf-8"?>
<svg version="1.1" xmlns:xlink="http://www.w3.org/1999/xlink" width="48px" height="48px" xmlns="http://www.w3.org/2000/svg">
  <defs>
    <pattern id="BGPattern" patternUnits="userSpaceOnUse" alignment="0 0" imageRepeat="None" />
    <mask fill="white" id="Clip7551">
      <path d="M 48 24  C 48 37.164  37.316 48  24 48  C 10.684 48  0 37.164  0 24  C 0 10.684  10.684 0  24 0  C 37.316 0  48 10.684  48 24  Z M 43.974000000000004 24  C 43.974000000000004 13.006  34.996 4.027999999999999  24 4.027999999999999  C 13.006 4.027999999999999  4.026 13.005999999999998  4.026 24  C 4.026 34.996  13.006 43.976  24 43.976  C 34.996 43.976  43.974000000000004 34.995999999999995  43.974000000000004 24  Z M 37.315999999999995 24.929999999999996  C 37.16199999999999 25.704  36.541999999999994 26.323999999999995  35.769999999999996 26  L 18.426 26  C 17.657999999999998 26.323999999999998  17.035999999999998 25.706000000000003  17.029999999999998 24.941999999999993  L 17.029999999999998 22.917999999999996  C 17.029999999999998 22.143999999999995  17.651999999999997 21.523999999999997  18.426 22  L 35.922 22  C 36.696 21.523999999999997  37.315999999999995 22.145999999999997  37.315999999999995 22.917999999999996  L 37.315999999999995 24.929999999999996  Z M 32.516 17.188  C 32.518 17.959999999999997  31.896 18.581999999999997  31.277999999999995 19  L 13.782 19  C 13.016 18.586  12.388 17.967999999999996  12.386 17.199999999999996  L 12.386 15.18  C 12.386 14.558  13.005999999999998 13.937999999999999  13.779999999999998 14  L 31.275999999999996 14  C 31.896 13.937999999999999  32.516 14.559999999999999  32.516 15.175999999999998  L 32.516 17.188  Z M 12.388 30.660000000000004  C 12.386 30.04  13.006 29.418  13.781999999999996 29  L 31.277999999999995 29  C 32.053999999999995 29.418  32.669999999999995 30.04  32.669999999999995 30.811999999999998  L 32.669999999999995 32.824  C 32.67399999999999 33.589999999999996  32.05199999999999 34.214  31.28799999999999 34  L 13.782 34  C 13.006 34.065999999999995  12.388 33.443999999999996  12.388 32.672  L 12.388 30.660000000000004  Z " fill-rule="evenodd" />
    </mask>
  </defs>
  <g>
    <path d="M 48 24  C 48 37.164  37.316 48  24 48  C 10.684 48  0 37.164  0 24  C 0 10.684  10.684 0  24 0  C 37.316 0  48 10.684  48 24  Z M 43.974000000000004 24  C 43.974000000000004 13.006  34.996 4.027999999999999  24 4.027999999999999  C 13.006 4.027999999999999  4.026 13.005999999999998  4.026 24  C 4.026 34.996  13.006 43.976  24 43.976  C 34.996 43.976  43.974000000000004 34.995999999999995  43.974000000000004 24  Z M 37.315999999999995 24.929999999999996  C 37.16199999999999 25.704  36.541999999999994 26.323999999999995  35.769999999999996 26  L 18.426 26  C 17.657999999999998 26.323999999999998  17.035999999999998 25.706000000000003  17.029999999999998 24.941999999999993  L 17.029999999999998 22.917999999999996  C 17.029999999999998 22.143999999999995  17.651999999999997 21.523999999999997  18.426 22  L 35.922 22  C 36.696 21.523999999999997  37.315999999999995 22.145999999999997  37.315999999999995 22.917999999999996  L 37.315999999999995 24.929999999999996  Z M 32.516 17.188  C 32.518 17.959999999999997  31.896 18.581999999999997  31.277999999999995 19  L 13.782 19  C 13.016 18.586  12.388 17.967999999999996  12.386 17.199999999999996  L 12.386 15.18  C 12.386 14.558  13.005999999999998 13.937999999999999  13.779999999999998 14  L 31.275999999999996 14  C 31.896 13.937999999999999  32.516 14.559999999999999  32.516 15.175999999999998  L 32.516 17.188  Z M 12.388 30.660000000000004  C 12.386 30.04  13.006 29.418  13.781999999999996 29  L 31.277999999999995 29  C 32.053999999999995 29.418  32.669999999999995 30.04  32.669999999999995 30.811999999999998  L 32.669999999999995 32.824  C 32.67399999999999 33.589999999999996  32.05199999999999 34.214  31.28799999999999 34  L 13.782 34  C 13.006 34.065999999999995  12.388 33.443999999999996  12.388 32.672  L 12.388 30.660000000000004  Z " fill-rule="nonzero" fill="rgba(81, 163, 61, 1)" stroke="none" class="fill" />
    <path d="M 48 24  C 48 37.164  37.316 48  24 48  C 10.684 48  0 37.164  0 24  C 0 10.684  10.684 0  24 0  C 37.316 0  48 10.684  48 24  Z " stroke-width="0" stroke-dasharray="0" stroke="rgba(255, 255, 255, 0)" fill="none" class="stroke" mask="url(#Clip7551)" />
    <path d="M 43.974000000000004 24  C 43.974000000000004 13.006  34.996 4.027999999999999  24 4.027999999999999  C 13.006 4.027999999999999  4.026 13.005999999999998  4.026 24  C 4.026 34.996  13.006 43.976  24 43.976  C 34.996 43.976  43.974000000000004 34.995999999999995  43.974000000000004 24  Z " stroke-width="0" stroke-dasharray="0" stroke="rgba(255, 255, 255, 0)" fill="none" class="stroke" mask="url(#Clip7551)" />
    <path d="M 37.315999999999995 24.929999999999996  C 37.16199999999999 25.704  36.541999999999994 26.323999999999995  35.769999999999996 26  L 18.426 26  C 17.657999999999998 26.323999999999998  17.035999999999998 25.706000000000003  17.029999999999998 24.941999999999993  L 17.029999999999998 22.917999999999996  C 17.029999999999998 22.143999999999995  17.651999999999997 21.523999999999997  18.426 22  L 35.922 22  C 36.696 21.523999999999997  37.315999999999995 22.145999999999997  37.315999999999995 22.917999999999996  L 37.315999999999995 24.929999999999996  Z " stroke-width="0" stroke-dasharray="0" stroke="rgba(255, 255, 255, 0)" fill="none" class="stroke" mask="url(#Clip7551)" />
    <path d="M 32.516 17.188  C 32.518 17.959999999999997  31.896 18.581999999999997  31.277999999999995 19  L 13.782 19  C 13.016 18.586  12.388 17.967999999999996  12.386 17.199999999999996  L 12.386 15.18  C 12.386 14.558  13.005999999999998 13.937999999999999  13.779999999999998 14  L 31.275999999999996 14  C 31.896 13.937999999999999  32.516 14.559999999999999  32.516 15.175999999999998  L 32.516 17.188  Z " stroke-width="0" stroke-dasharray="0" stroke="rgba(255, 255, 255, 0)" fill="none" class="stroke" mask="url(#Clip7551)" />
    <path d="M 12.388 30.660000000000004  C 12.386 30.04  13.006 29.418  13.781999999999996 29  L 31.277999999999995 29  C 32.053999999999995 29.418  32.669999999999995 30.04  32.669999999999995 30.811999999999998  L 32.669999999999995 32.824  C 32.67399999999999 33.589999999999996  32.05199999999999 34.214  31.28799999999999 34  L 13.782 34  C 13.006 34.065999999999995  12.388 33.443999999999996  12.388 32.672  L 12.388 30.660000000000004  Z " stroke-width="0" stroke-dasharray="0" stroke="rgba(255, 255, 255, 0)" fill="none" class="stroke" mask="url(#Clip7551)" />
  </g>
</svg>