<?xml version="1.0" encoding="utf-8"?>
<svg version="1.1" xmlns:xlink="http://www.w3.org/1999/xlink" width="20px" height="24px" xmlns="http://www.w3.org/2000/svg">
  <defs>
    <pattern id="BGPattern" patternUnits="userSpaceOnUse" alignment="0 0" imageRepeat="None" />
    <mask fill="white" id="Clip6352">
      <path d="M 1.4319999999999995 10.623  L 8.272 0.9195000000000002  C 8.659669632695401 0.3453332879030028  9.307212040091295 0.001222332005349158  9.999999999999998 0.001222332005349158  C 10.692787959908703 0.001222332005349158  11.340330367304599 0.3453332879030015  11.727999999999998 0.9195  L 18.567999999999998 10.6215  C 19.144109684574644 11.450210998732128  19.144109684574644 12.549789001267872  18.567999999999998 13.3785  L 11.728000000000002 23.080500000000004  C 11.340330367304599 23.654666712096997  10.692787959908706 23.998777667994652  10.000000000000004 23.998777667994652  C 9.307212040091299 23.998777667994652  8.659669632695401 23.654666712097004  8.272000000000002 23.0805  L 1.4319999999999995 13.379999999999999  C 0.8558903154253592 12.551289001267872  0.8558903154253574 11.451710998732128  1.4319999999999995 10.623  Z M 17.415999999999997 11.540999999999997  L 10.576000000000004 1.8390000000000004  C 10.446927317477982 1.6473934683234113  10.231025583766307 1.5325132085380604  10.000000000000004 1.5325132085380604  C 9.768974416233696 1.5325132085380604  9.553072682522021 1.64739346832341  9.424000000000001 1.839  L 2.5840000000000023 11.541000000000002  C 2.3925712435832036 11.81706130001366  2.3925712435832045 12.182938699986343  2.5840000000000014 12.459  L 9.424000000000003 22.1625  C 9.553072682522021 22.354106531676592  9.768974416233696 22.46898679146194  10.000000000000004 22.46898679146194  C 10.231025583766314 22.46898679146194  10.446927317477982 22.354106531676592  10.576 22.162499999999998  L 17.416 12.459  C 17.6074287564168 12.182938699986341  17.6074287564168 11.817061300013657  17.415999999999997 11.540999999999997  Z " fill-rule="evenodd" />
    </mask>
  </defs>
  <g>
    <path d="M 1.4319999999999995 10.623  L 8.272 0.9195000000000002  C 8.659669632695401 0.3453332879030028  9.307212040091295 0.001222332005349158  9.999999999999998 0.001222332005349158  C 10.692787959908703 0.001222332005349158  11.340330367304599 0.3453332879030015  11.727999999999998 0.9195  L 18.567999999999998 10.6215  C 19.144109684574644 11.450210998732128  19.144109684574644 12.549789001267872  18.567999999999998 13.3785  L 11.728000000000002 23.080500000000004  C 11.340330367304599 23.654666712096997  10.692787959908706 23.998777667994652  10.000000000000004 23.998777667994652  C 9.307212040091299 23.998777667994652  8.659669632695401 23.654666712097004  8.272000000000002 23.0805  L 1.4319999999999995 13.379999999999999  C 0.8558903154253592 12.551289001267872  0.8558903154253574 11.451710998732128  1.4319999999999995 10.623  Z M 17.415999999999997 11.540999999999997  L 10.576000000000004 1.8390000000000004  C 10.446927317477982 1.6473934683234113  10.231025583766307 1.5325132085380604  10.000000000000004 1.5325132085380604  C 9.768974416233696 1.5325132085380604  9.553072682522021 1.64739346832341  9.424000000000001 1.839  L 2.5840000000000023 11.541000000000002  C 2.3925712435832036 11.81706130001366  2.3925712435832045 12.182938699986343  2.5840000000000014 12.459  L 9.424000000000003 22.1625  C 9.553072682522021 22.354106531676592  9.768974416233696 22.46898679146194  10.000000000000004 22.46898679146194  C 10.231025583766314 22.46898679146194  10.446927317477982 22.354106531676592  10.576 22.162499999999998  L 17.416 12.459  C 17.6074287564168 12.182938699986341  17.6074287564168 11.817061300013657  17.415999999999997 11.540999999999997  Z " fill-rule="nonzero" fill="rgba(0, 0, 0, 1)" stroke="none" class="fill" />
    <path d="M 1.4319999999999995 10.623  L 8.272 0.9195000000000002  C 8.659669632695401 0.3453332879030028  9.307212040091295 0.001222332005349158  9.999999999999998 0.001222332005349158  C 10.692787959908703 0.001222332005349158  11.340330367304599 0.3453332879030015  11.727999999999998 0.9195  L 18.567999999999998 10.6215  C 19.144109684574644 11.450210998732128  19.144109684574644 12.549789001267872  18.567999999999998 13.3785  L 11.728000000000002 23.080500000000004  C 11.340330367304599 23.654666712096997  10.692787959908706 23.998777667994652  10.000000000000004 23.998777667994652  C 9.307212040091299 23.998777667994652  8.659669632695401 23.654666712097004  8.272000000000002 23.0805  L 1.4319999999999995 13.379999999999999  C 0.8558903154253592 12.551289001267872  0.8558903154253574 11.451710998732128  1.4319999999999995 10.623  Z " stroke-width="0" stroke-dasharray="0" stroke="rgba(255, 255, 255, 0)" fill="none" class="stroke" mask="url(#Clip6352)" />
    <path d="M 17.415999999999997 11.540999999999997  L 10.576000000000004 1.8390000000000004  C 10.446927317477982 1.6473934683234113  10.231025583766307 1.5325132085380604  10.000000000000004 1.5325132085380604  C 9.768974416233696 1.5325132085380604  9.553072682522021 1.64739346832341  9.424000000000001 1.839  L 2.5840000000000023 11.541000000000002  C 2.3925712435832036 11.81706130001366  2.3925712435832045 12.182938699986343  2.5840000000000014 12.459  L 9.424000000000003 22.1625  C 9.553072682522021 22.354106531676592  9.768974416233696 22.46898679146194  10.000000000000004 22.46898679146194  C 10.231025583766314 22.46898679146194  10.446927317477982 22.354106531676592  10.576 22.162499999999998  L 17.416 12.459  C 17.6074287564168 12.182938699986341  17.6074287564168 11.817061300013657  17.415999999999997 11.540999999999997  Z " stroke-width="0" stroke-dasharray="0" stroke="rgba(255, 255, 255, 0)" fill="none" class="stroke" mask="url(#Clip6352)" />
  </g>
</svg>