<?xml version="1.0" encoding="utf-8"?>
<svg version="1.1" xmlns:xlink="http://www.w3.org/1999/xlink" width="18px" height="11px" xmlns="http://www.w3.org/2000/svg">
  <defs>
    <pattern id="BGPattern" patternUnits="userSpaceOnUse" alignment="0 0" imageRepeat="None" />
    <mask fill="white" id="Clip4860">
      <path d="M 0.75 1.5  C 1.164213562373095 1.5  1.5 1.164213562373095  1.5 0.75  C 1.5 0.3357864376269051  1.164213562373095 0  0.75 0  C 0.3357864376269051 0  0 0.3357864376269051  0 0.75  C 0 1.164213562373095  0.3357864376269051 1.5  0.75 1.5  Z M 3.75 1.5  C 4.164213562373095 1.5  4.5 1.164213562373095  4.5 0.75  C 4.5 0.3357864376269051  4.164213562373095 0  3.75 0  C 3.335786437626905 0  3 0.3357864376269051  3 0.75  C 3 1.164213562373095  3.335786437626905 1.5  3.75 1.5  Z M 15 0.75  C 15 1.164213562373095  14.664213562373096 1.5  14.25 1.5  C 13.835786437626904 1.5  13.5 1.164213562373095  13.5 0.75  C 13.5 0.3357864376269051  13.835786437626904 0  14.25 0  C 14.664213562373096 0  15 0.3357864376269051  15 0.75  Z M 17.25 1.5  C 17.664213562373096 1.5  18 1.164213562373095  18 0.75  C 18 0.3357864376269051  17.664213562373096 0  17.25 0  C 16.835786437626904 0  16.5 0.3357864376269051  16.5 0.75  C 16.5 1.164213562373095  16.835786437626904 1.5  17.25 1.5  Z M 11.25 0  L 6.75 0  C 6.335786437626904 0  6 0.3357864376269051  6 0.75  C 6 1.164213562373095  6.335786437626904 1.5  6.75 1.5  L 11.25 1.5  C 11.664213562373096 1.5  12 1.164213562373095  12 0.75  C 12 0.3357864376269051  11.664213562373096 0  11.25 0  Z M 15 9.75  C 15 10.164213562373096  14.664213562373096 10.5  14.25 10.5  C 13.835786437626904 10.5  13.5 10.164213562373096  13.5 9.75  C 13.5 9.335786437626904  13.835786437626904 9  14.25 9  C 14.664213562373096 9  15 9.335786437626904  15 9.75  Z " fill-rule="evenodd" />
    </mask>
  </defs>
  <g transform="matrix(1 0 0 1 -3 -6 )">
    <path d="M 0.75 1.5  C 1.164213562373095 1.5  1.5 1.164213562373095  1.5 0.75  C 1.5 0.3357864376269051  1.164213562373095 0  0.75 0  C 0.3357864376269051 0  0 0.3357864376269051  0 0.75  C 0 1.164213562373095  0.3357864376269051 1.5  0.75 1.5  Z M 3.75 1.5  C 4.164213562373095 1.5  4.5 1.164213562373095  4.5 0.75  C 4.5 0.3357864376269051  4.164213562373095 0  3.75 0  C 3.335786437626905 0  3 0.3357864376269051  3 0.75  C 3 1.164213562373095  3.335786437626905 1.5  3.75 1.5  Z M 15 0.75  C 15 1.164213562373095  14.664213562373096 1.5  14.25 1.5  C 13.835786437626904 1.5  13.5 1.164213562373095  13.5 0.75  C 13.5 0.3357864376269051  13.835786437626904 0  14.25 0  C 14.664213562373096 0  15 0.3357864376269051  15 0.75  Z M 17.25 1.5  C 17.664213562373096 1.5  18 1.164213562373095  18 0.75  C 18 0.3357864376269051  17.664213562373096 0  17.25 0  C 16.835786437626904 0  16.5 0.3357864376269051  16.5 0.75  C 16.5 1.164213562373095  16.835786437626904 1.5  17.25 1.5  Z M 11.25 0  L 6.75 0  C 6.335786437626904 0  6 0.3357864376269051  6 0.75  C 6 1.164213562373095  6.335786437626904 1.5  6.75 1.5  L 11.25 1.5  C 11.664213562373096 1.5  12 1.164213562373095  12 0.75  C 12 0.3357864376269051  11.664213562373096 0  11.25 0  Z M 15 9.75  C 15 10.164213562373096  14.664213562373096 10.5  14.25 10.5  C 13.835786437626904 10.5  13.5 10.164213562373096  13.5 9.75  C 13.5 9.335786437626904  13.835786437626904 9  14.25 9  C 14.664213562373096 9  15 9.335786437626904  15 9.75  Z " fill-rule="nonzero" fill="rgba(0, 0, 0, 1)" stroke="none" transform="matrix(1 0 0 1 3 6 )" class="fill" />
    <path d="M 0.75 1.5  C 1.164213562373095 1.5  1.5 1.164213562373095  1.5 0.75  C 1.5 0.3357864376269051  1.164213562373095 0  0.75 0  C 0.3357864376269051 0  0 0.3357864376269051  0 0.75  C 0 1.164213562373095  0.3357864376269051 1.5  0.75 1.5  Z " stroke-width="0" stroke-dasharray="0" stroke="rgba(255, 255, 255, 0)" fill="none" transform="matrix(1 0 0 1 3 6 )" class="stroke" mask="url(#Clip4860)" />
    <path d="M 3.75 1.5  C 4.164213562373095 1.5  4.5 1.164213562373095  4.5 0.75  C 4.5 0.3357864376269051  4.164213562373095 0  3.75 0  C 3.335786437626905 0  3 0.3357864376269051  3 0.75  C 3 1.164213562373095  3.335786437626905 1.5  3.75 1.5  Z " stroke-width="0" stroke-dasharray="0" stroke="rgba(255, 255, 255, 0)" fill="none" transform="matrix(1 0 0 1 3 6 )" class="stroke" mask="url(#Clip4860)" />
    <path d="M 15 0.75  C 15 1.164213562373095  14.664213562373096 1.5  14.25 1.5  C 13.835786437626904 1.5  13.5 1.164213562373095  13.5 0.75  C 13.5 0.3357864376269051  13.835786437626904 0  14.25 0  C 14.664213562373096 0  15 0.3357864376269051  15 0.75  Z " stroke-width="0" stroke-dasharray="0" stroke="rgba(255, 255, 255, 0)" fill="none" transform="matrix(1 0 0 1 3 6 )" class="stroke" mask="url(#Clip4860)" />
    <path d="M 17.25 1.5  C 17.664213562373096 1.5  18 1.164213562373095  18 0.75  C 18 0.3357864376269051  17.664213562373096 0  17.25 0  C 16.835786437626904 0  16.5 0.3357864376269051  16.5 0.75  C 16.5 1.164213562373095  16.835786437626904 1.5  17.25 1.5  Z " stroke-width="0" stroke-dasharray="0" stroke="rgba(255, 255, 255, 0)" fill="none" transform="matrix(1 0 0 1 3 6 )" class="stroke" mask="url(#Clip4860)" />
    <path d="M 11.25 0  L 6.75 0  C 6.335786437626904 0  6 0.3357864376269051  6 0.75  C 6 1.164213562373095  6.335786437626904 1.5  6.75 1.5  L 11.25 1.5  C 11.664213562373096 1.5  12 1.164213562373095  12 0.75  C 12 0.3357864376269051  11.664213562373096 0  11.25 0  Z " stroke-width="0" stroke-dasharray="0" stroke="rgba(255, 255, 255, 0)" fill="none" transform="matrix(1 0 0 1 3 6 )" class="stroke" mask="url(#Clip4860)" />
    <path d="M 15 9.75  C 15 10.164213562373096  14.664213562373096 10.5  14.25 10.5  C 13.835786437626904 10.5  13.5 10.164213562373096  13.5 9.75  C 13.5 9.335786437626904  13.835786437626904 9  14.25 9  C 14.664213562373096 9  15 9.335786437626904  15 9.75  Z " stroke-width="0" stroke-dasharray="0" stroke="rgba(255, 255, 255, 0)" fill="none" transform="matrix(1 0 0 1 3 6 )" class="stroke" mask="url(#Clip4860)" />
  </g>
</svg>