<?xml version="1.0" encoding="utf-8"?>
<svg version="1.1" xmlns:xlink="http://www.w3.org/1999/xlink" width="12px" height="24px" xmlns="http://www.w3.org/2000/svg">
  <defs>
    <pattern id="BGPattern" patternUnits="userSpaceOnUse" alignment="0 0" imageRepeat="None" />
    <mask fill="white" id="Clip6282">
      <path d="M 0.75 3  C 0.49349999999999916 2.9999999999999996  0.24300000000000033 3.0255  0 3.0749999999999997  L 0 2.5004999999999997  C 0 1.1205  1.1190000000000007 0  2.500499999999999 0  L 9.499500000000001 0  C 10.8795 0  12 1.119  12 2.5005  L 11.999999999999996 3.0749999999999993  C 11.753135132021548 3.024995321617398  11.501878371262556 2.9998696455414997  11.25 3  L 0.75 3  Z M 0 21.4995  L 0 20.924999999999997  C 0.24300000000000033 20.9745  0.49349999999999916 21  0.75 21  L 11.25 21  C 11.506499999999999 21  11.756999999999998 20.9745  12 20.924999999999997  L 12 21.499499999999998  C 12 22.879499999999997  10.881 23.999999999999996  9.499500000000001 23.999999999999996  L 2.500499999999999 23.999999999999996  C 1.1204999999999998 24  0 22.881  0 21.4995  Z " fill-rule="evenodd" />
    </mask>
  </defs>
  <g transform="matrix(1 0 0 1 -3 0 )">
    <path d="M 0.75 3  C 0.49349999999999916 2.9999999999999996  0.24300000000000033 3.0255  0 3.0749999999999997  L 0 2.5004999999999997  C 0 1.1205  1.1190000000000007 0  2.500499999999999 0  L 9.499500000000001 0  C 10.8795 0  12 1.119  12 2.5005  L 11.999999999999996 3.0749999999999993  C 11.753135132021548 3.024995321617398  11.501878371262556 2.9998696455414997  11.25 3  L 0.75 3  Z M 0 21.4995  L 0 20.924999999999997  C 0.24300000000000033 20.9745  0.49349999999999916 21  0.75 21  L 11.25 21  C 11.506499999999999 21  11.756999999999998 20.9745  12 20.924999999999997  L 12 21.499499999999998  C 12 22.879499999999997  10.881 23.999999999999996  9.499500000000001 23.999999999999996  L 2.500499999999999 23.999999999999996  C 1.1204999999999998 24  0 22.881  0 21.4995  Z " fill-rule="nonzero" fill="rgba(0, 0, 0, 1)" stroke="none" transform="matrix(1 0 0 1 3 0 )" class="fill" />
    <path d="M 0.75 3  C 0.49349999999999916 2.9999999999999996  0.24300000000000033 3.0255  0 3.0749999999999997  L 0 2.5004999999999997  C 0 1.1205  1.1190000000000007 0  2.500499999999999 0  L 9.499500000000001 0  C 10.8795 0  12 1.119  12 2.5005  L 11.999999999999996 3.0749999999999993  C 11.753135132021548 3.024995321617398  11.501878371262556 2.9998696455414997  11.25 3  L 0.75 3  Z " stroke-width="0" stroke-dasharray="0" stroke="rgba(255, 255, 255, 0)" fill="none" transform="matrix(1 0 0 1 3 0 )" class="stroke" mask="url(#Clip6282)" />
    <path d="M 0 21.4995  L 0 20.924999999999997  C 0.24300000000000033 20.9745  0.49349999999999916 21  0.75 21  L 11.25 21  C 11.506499999999999 21  11.756999999999998 20.9745  12 20.924999999999997  L 12 21.499499999999998  C 12 22.879499999999997  10.881 23.999999999999996  9.499500000000001 23.999999999999996  L 2.500499999999999 23.999999999999996  C 1.1204999999999998 24  0 22.881  0 21.4995  Z " stroke-width="0" stroke-dasharray="0" stroke="rgba(255, 255, 255, 0)" fill="none" transform="matrix(1 0 0 1 3 0 )" class="stroke" mask="url(#Clip6282)" />
  </g>
</svg>