<?xml version="1.0" encoding="utf-8"?>
<svg version="1.1" xmlns:xlink="http://www.w3.org/1999/xlink" width="18px" height="18px" xmlns="http://www.w3.org/2000/svg">
  <defs>
    <pattern id="BGPattern" patternUnits="userSpaceOnUse" alignment="0 0" imageRepeat="None" />
    <mask fill="white" id="Clip6281">
      <path d="M 0 3.7499999999999987  C 0 1.678932188134525  1.678932188134525 0  3.750000000000001 0  L 14.25 0  C 16.321067811865472 0  17.999999999999996 1.678932188134525  18 3.750000000000001  L 17.999999999999996 14.25  C 17.999999999999996 16.321067811865472  16.321067811865472 17.999999999999996  14.25 18  L 3.7499999999999987 17.999999999999996  C 1.678932188134525 17.999999999999996  0 16.321067811865472  0 14.25  L 0 3.7499999999999987  Z M 14.25 1.5000000000000004  L 3.750000000000001 1.5000000000000004  C 2.507359312880716 1.5000000000000004  1.5000000000000004 2.507359312880716  1.5000000000000004 3.750000000000001  L 1.5000000000000004 14.25  C 1.5000000000000004 15.492640687119284  2.507359312880716 16.5  3.750000000000001 16.5  L 14.25 16.5  C 15.492640687119284 16.5  16.5 15.492640687119284  16.5 14.25  L 16.5 3.750000000000001  C 16.5 2.507359312880716  15.492640687119284 1.5000000000000004  14.25 1.5000000000000004  Z " fill-rule="evenodd" />
    </mask>
  </defs>
  <g transform="matrix(1 0 0 1 0 -3 )">
    <path d="M 0 3.7499999999999987  C 0 1.678932188134525  1.678932188134525 0  3.750000000000001 0  L 14.25 0  C 16.321067811865472 0  17.999999999999996 1.678932188134525  18 3.750000000000001  L 17.999999999999996 14.25  C 17.999999999999996 16.321067811865472  16.321067811865472 17.999999999999996  14.25 18  L 3.7499999999999987 17.999999999999996  C 1.678932188134525 17.999999999999996  0 16.321067811865472  0 14.25  L 0 3.7499999999999987  Z M 14.25 1.5000000000000004  L 3.750000000000001 1.5000000000000004  C 2.507359312880716 1.5000000000000004  1.5000000000000004 2.507359312880716  1.5000000000000004 3.750000000000001  L 1.5000000000000004 14.25  C 1.5000000000000004 15.492640687119284  2.507359312880716 16.5  3.750000000000001 16.5  L 14.25 16.5  C 15.492640687119284 16.5  16.5 15.492640687119284  16.5 14.25  L 16.5 3.750000000000001  C 16.5 2.507359312880716  15.492640687119284 1.5000000000000004  14.25 1.5000000000000004  Z " fill-rule="nonzero" fill="rgba(0, 0, 0, 1)" stroke="none" transform="matrix(1 0 0 1 0 3 )" class="fill" />
    <path d="M 0 3.7499999999999987  C 0 1.678932188134525  1.678932188134525 0  3.750000000000001 0  L 14.25 0  C 16.321067811865472 0  17.999999999999996 1.678932188134525  18 3.750000000000001  L 17.999999999999996 14.25  C 17.999999999999996 16.321067811865472  16.321067811865472 17.999999999999996  14.25 18  L 3.7499999999999987 17.999999999999996  C 1.678932188134525 17.999999999999996  0 16.321067811865472  0 14.25  L 0 3.7499999999999987  Z " stroke-width="0" stroke-dasharray="0" stroke="rgba(255, 255, 255, 0)" fill="none" transform="matrix(1 0 0 1 0 3 )" class="stroke" mask="url(#Clip6281)" />
    <path d="M 14.25 1.5000000000000004  L 3.750000000000001 1.5000000000000004  C 2.507359312880716 1.5000000000000004  1.5000000000000004 2.507359312880716  1.5000000000000004 3.750000000000001  L 1.5000000000000004 14.25  C 1.5000000000000004 15.492640687119284  2.507359312880716 16.5  3.750000000000001 16.5  L 14.25 16.5  C 15.492640687119284 16.5  16.5 15.492640687119284  16.5 14.25  L 16.5 3.750000000000001  C 16.5 2.507359312880716  15.492640687119284 1.5000000000000004  14.25 1.5000000000000004  Z " stroke-width="0" stroke-dasharray="0" stroke="rgba(255, 255, 255, 0)" fill="none" transform="matrix(1 0 0 1 0 3 )" class="stroke" mask="url(#Clip6281)" />
  </g>
</svg>