<?xml version="1.0" encoding="utf-8"?>
<svg version="1.1" xmlns:xlink="http://www.w3.org/1999/xlink" width="24px" height="12px" xmlns="http://www.w3.org/2000/svg">
  <defs>
    <pattern id="BGPattern" patternUnits="userSpaceOnUse" alignment="0 0" imageRepeat="None" />
    <mask fill="white" id="Clip3696">
      <path d="M 0 2  L 11 2  L 11 8.170000000000002  L 8.41 5.59  L 7 7  L 12 12  L 17 7  L 15.59 5.59  L 13 8.170000000000002  L 13 2  L 24 2  L 24 0  L 0 0  L 0 2  Z " fill-rule="evenodd" />
    </mask>
  </defs>
  <g transform="matrix(1 0 0 1 -4 -18 )">
    <path d="M 0 2  L 11 2  L 11 8.170000000000002  L 8.41 5.59  L 7 7  L 12 12  L 17 7  L 15.59 5.59  L 13 8.170000000000002  L 13 2  L 24 2  L 24 0  L 0 0  L 0 2  Z " fill-rule="nonzero" fill="rgba(0, 0, 0, 1)" stroke="none" transform="matrix(1 0 0 1 4 18 )" class="fill" />
    <path d="M 0 2  L 11 2  L 11 8.170000000000002  L 8.41 5.59  L 7 7  L 12 12  L 17 7  L 15.59 5.59  L 13 8.170000000000002  L 13 2  L 24 2  L 24 0  L 0 0  L 0 2  Z " stroke-width="0" stroke-dasharray="0" stroke="rgba(255, 255, 255, 0)" fill="none" transform="matrix(1 0 0 1 4 18 )" class="stroke" mask="url(#Clip3696)" />
  </g>
</svg>