<?xml version="1.0" encoding="utf-8"?>
<svg version="1.1" xmlns:xlink="http://www.w3.org/1999/xlink" width="38px" height="50px" xmlns="http://www.w3.org/2000/svg">
  <defs>
    <pattern id="BGPattern" patternUnits="userSpaceOnUse" alignment="0 0" imageRepeat="None" />
    <mask fill="white" id="Clip2067">
      <path d="M 37.42699805068224 31.968810916179336  C 37.426900584795305 26.98021442495127  33.7249512670565 23.058479532163744  29.0475633528265 20.88372319688108  L 27.855068226120835 9.356725146198812  L 31.968810916179333 9.356725146198812  C 33.26072124756334 9.356725146198812  34.307992202729025 8.309454191033126  34.307992202729025 7.017543859649095  L 34.307992202729025 2.3391812865497172  C 34.307992202729025 1.0472709551656862  33.26072124756334 0  31.968810916179333 0  L 5.458089668615983 0  C 4.166179337231966 0  3.11890838206628 1.0472709551656862  3.11890838206628 2.3391812865497172  L 3.11890838206628 7.017543859649095  C 3.11890838206628 8.309454191033126  4.166179337231966 9.356725146198812  5.458089668615983 9.356725146198812  L 9.571832358674456 9.356725146198812  L 8.379337231968805 20.88372319688108  C 3.65155945419103 23.081871345029242  0 27.02348927875244  0 31.968810916179336  C 0 33.26072124756337  1.0472709551656862 34.307992202729054  2.339181286549703 34  L 16 34  L 16 44.445126705653024  C 15.594541910331372 44.56617933723197  15.622709551656923 44.68557504873297  15.676900584795305 44.793859649122794  L 18.016081871345023 49.47222222222223  C 18.302729044834308 50.0455165692008  19.123684210526307 50.04658869395712  19.41091617933722 49.47222222222223  L 21.750097465886938 44.793859649122794  C 21.804223490216316 44.685575345275026  21.83241936063385 44.5661850205957  21.83245614035087 44.445126705653024  L 21.83245614035087 34  L 35.087816764132526 34  C 36.37972709551656 34.307992202729054  37.42699805068224 33.26072124756337  37.42699805068224 31.968810916179336  Z " fill-rule="evenodd" />
    </mask>
  </defs>
  <g>
    <path d="M 37.42699805068224 31.968810916179336  C 37.426900584795305 26.98021442495127  33.7249512670565 23.058479532163744  29.0475633528265 20.88372319688108  L 27.855068226120835 9.356725146198812  L 31.968810916179333 9.356725146198812  C 33.26072124756334 9.356725146198812  34.307992202729025 8.309454191033126  34.307992202729025 7.017543859649095  L 34.307992202729025 2.3391812865497172  C 34.307992202729025 1.0472709551656862  33.26072124756334 0  31.968810916179333 0  L 5.458089668615983 0  C 4.166179337231966 0  3.11890838206628 1.0472709551656862  3.11890838206628 2.3391812865497172  L 3.11890838206628 7.017543859649095  C 3.11890838206628 8.309454191033126  4.166179337231966 9.356725146198812  5.458089668615983 9.356725146198812  L 9.571832358674456 9.356725146198812  L 8.379337231968805 20.88372319688108  C 3.65155945419103 23.081871345029242  0 27.02348927875244  0 31.968810916179336  C 0 33.26072124756337  1.0472709551656862 34.307992202729054  2.339181286549703 34  L 16 34  L 16 44.445126705653024  C 15.594541910331372 44.56617933723197  15.622709551656923 44.68557504873297  15.676900584795305 44.793859649122794  L 18.016081871345023 49.47222222222223  C 18.302729044834308 50.0455165692008  19.123684210526307 50.04658869395712  19.41091617933722 49.47222222222223  L 21.750097465886938 44.793859649122794  C 21.804223490216316 44.685575345275026  21.83241936063385 44.5661850205957  21.83245614035087 44.445126705653024  L 21.83245614035087 34  L 35.087816764132526 34  C 36.37972709551656 34.307992202729054  37.42699805068224 33.26072124756337  37.42699805068224 31.968810916179336  Z " fill-rule="nonzero" fill="rgba(0, 0, 0, 1)" stroke="none" class="fill" />
    <path d="M 37.42699805068224 31.968810916179336  C 37.426900584795305 26.98021442495127  33.7249512670565 23.058479532163744  29.0475633528265 20.88372319688108  L 27.855068226120835 9.356725146198812  L 31.968810916179333 9.356725146198812  C 33.26072124756334 9.356725146198812  34.307992202729025 8.309454191033126  34.307992202729025 7.017543859649095  L 34.307992202729025 2.3391812865497172  C 34.307992202729025 1.0472709551656862  33.26072124756334 0  31.968810916179333 0  L 5.458089668615983 0  C 4.166179337231966 0  3.11890838206628 1.0472709551656862  3.11890838206628 2.3391812865497172  L 3.11890838206628 7.017543859649095  C 3.11890838206628 8.309454191033126  4.166179337231966 9.356725146198812  5.458089668615983 9.356725146198812  L 9.571832358674456 9.356725146198812  L 8.379337231968805 20.88372319688108  C 3.65155945419103 23.081871345029242  0 27.02348927875244  0 31.968810916179336  C 0 33.26072124756337  1.0472709551656862 34.307992202729054  2.339181286549703 34  L 16 34  L 16 44.445126705653024  C 15.594541910331372 44.56617933723197  15.622709551656923 44.68557504873297  15.676900584795305 44.793859649122794  L 18.016081871345023 49.47222222222223  C 18.302729044834308 50.0455165692008  19.123684210526307 50.04658869395712  19.41091617933722 49.47222222222223  L 21.750097465886938 44.793859649122794  C 21.804223490216316 44.685575345275026  21.83241936063385 44.5661850205957  21.83245614035087 44.445126705653024  L 21.83245614035087 34  L 35.087816764132526 34  C 36.37972709551656 34.307992202729054  37.42699805068224 33.26072124756337  37.42699805068224 31.968810916179336  Z " stroke-width="0" stroke-dasharray="0" stroke="rgba(255, 255, 255, 0)" fill="none" class="stroke" mask="url(#Clip2067)" />
  </g>
</svg>