<?xml version="1.0" encoding="utf-8"?>
<svg version="1.1" xmlns:xlink="http://www.w3.org/1999/xlink" width="4px" height="3px" xmlns="http://www.w3.org/2000/svg">
  <defs>
    <pattern id="BGPattern" patternUnits="userSpaceOnUse" alignment="0 0" imageRepeat="None" />
    <mask fill="white" id="Clip4486">
      <path d="M 3.5 1.5  C 3.5 0.6715728752538084  2.828427124746188 0  2 0  C 1.1715728752538084 0  0.5 0.6715728752538084  0.5 1.5  C 0.5 2.328427124746188  1.1715728752538084 3  2 3  C 2.828427124746188 3  3.5 2.328427124746188  3.5 1.5  Z " fill-rule="evenodd" />
    </mask>
  </defs>
  <g transform="matrix(1 0 0 1 -14 -17 )">
    <path d="M 3.5 1.5  C 3.5 0.6715728752538084  2.828427124746188 0  2 0  C 1.1715728752538084 0  0.5 0.6715728752538084  0.5 1.5  C 0.5 2.328427124746188  1.1715728752538084 3  2 3  C 2.828427124746188 3  3.5 2.328427124746188  3.5 1.5  Z " fill-rule="nonzero" fill="rgba(0, 0, 0, 1)" stroke="none" transform="matrix(1 0 0 1 14 17 )" class="fill" />
    <path d="M 3.5 1.5  C 3.5 0.6715728752538084  2.828427124746188 0  2 0  C 1.1715728752538084 0  0.5 0.6715728752538084  0.5 1.5  C 0.5 2.328427124746188  1.1715728752538084 3  2 3  C 2.828427124746188 3  3.5 2.328427124746188  3.5 1.5  Z " stroke-width="0" stroke-dasharray="0" stroke="rgba(255, 255, 255, 0)" fill="none" transform="matrix(1 0 0 1 14 17 )" class="stroke" mask="url(#Clip4486)" />
  </g>
</svg>