<?xml version="1.0" encoding="utf-8"?>
<svg version="1.1" xmlns:xlink="http://www.w3.org/1999/xlink" width="8px" height="14px" xmlns="http://www.w3.org/2000/svg">
  <defs>
    <pattern id="BGPattern" patternUnits="userSpaceOnUse" alignment="0 0" imageRepeat="None" />
    <mask fill="white" id="Clip3840">
      <path d="M 0 0  L 0 2  L 3 2  L 3 12  L 0 12  L 0 14  L 8 14  L 8 12  L 5 12  L 5 2  L 8 2  L 8 0  L 0 0  Z " fill-rule="evenodd" />
    </mask>
  </defs>
  <g transform="matrix(1 0 0 1 -12 -9 )">
    <path d="M 0 0  L 0 2  L 3 2  L 3 12  L 0 12  L 0 14  L 8 14  L 8 12  L 5 12  L 5 2  L 8 2  L 8 0  L 0 0  Z " fill-rule="nonzero" fill="rgba(0, 0, 0, 1)" stroke="none" transform="matrix(1 0 0 1 12 9 )" class="fill" />
    <path d="M 0 0  L 0 2  L 3 2  L 3 12  L 0 12  L 0 14  L 8 14  L 8 12  L 5 12  L 5 2  L 8 2  L 8 0  L 0 0  Z " stroke-width="0" stroke-dasharray="0" stroke="rgba(255, 255, 255, 0)" fill="none" transform="matrix(1 0 0 1 12 9 )" class="stroke" mask="url(#Clip3840)" />
  </g>
</svg>