<?xml version="1.0" encoding="utf-8"?>
<svg version="1.1" xmlns:xlink="http://www.w3.org/1999/xlink" width="10px" height="16px" xmlns="http://www.w3.org/2000/svg">
  <defs>
    <pattern id="BGPattern" patternUnits="userSpaceOnUse" alignment="0 0" imageRepeat="None" />
    <mask fill="white" id="Clip4341">
      <path d="M 1.85 15.5  L 0.43999999999999995 14.120000000000001  L 6.73 8  L 0.43999999999999995 1.8800000000000008  L 1.85 0.5  L 9.56 8  L 1.85 15.5  Z " fill-rule="evenodd" />
    </mask>
  </defs>
  <g transform="matrix(1 0 0 1 -2 -7 )">
    <path d="M 1.85 15.5  L 0.43999999999999995 14.120000000000001  L 6.73 8  L 0.43999999999999995 1.8800000000000008  L 1.85 0.5  L 9.56 8  L 1.85 15.5  Z " fill-rule="nonzero" fill="rgba(0, 0, 0, 1)" stroke="none" transform="matrix(1 0 0 1 2 7 )" class="fill" />
    <path d="M 1.85 15.5  L 0.43999999999999995 14.120000000000001  L 6.73 8  L 0.43999999999999995 1.8800000000000008  L 1.85 0.5  L 9.56 8  L 1.85 15.5  Z " stroke-width="0" stroke-dasharray="0" stroke="rgba(255, 255, 255, 0)" fill="none" transform="matrix(1 0 0 1 2 7 )" class="stroke" mask="url(#Clip4341)" />
  </g>
</svg>