<?xml version="1.0" encoding="utf-8"?>
<svg version="1.1" xmlns:xlink="http://www.w3.org/1999/xlink" width="44px" height="50px" xmlns="http://www.w3.org/2000/svg">
  <defs>
    <pattern id="BGPattern" patternUnits="userSpaceOnUse" alignment="0 0" imageRepeat="None" />
    <mask fill="white" id="Clip1825">
      <path d="M 13 40  L 13 17.96875  C 12.500000000000002 14.953222656249975  14.953320312500011 12.5  17.96875 13  L 31.25 13  L 31.25 5.46875  C 31.25 4.17431640625  30.20068359375 3.125  28.90625 3.125  L 21.0341796875 3.125  C 19.951757812500006 1.2587890625  17.93330078125001 0  15.625 0  C 13.316699218749989 0  11.298242187499994 1.2587890625  10.2158203125 3.125  L 2.34375 3.125  C 1.04931640625 3.125  0 4.17431640625  0 5.46875  L 0 38.28125  C 0 39.57568359375  1.04931640625 40.625  2.34375 40  L 13 40  Z M 13.281249999999998 6.25  C 13.281249999999998 4.95556640625  14.33056640625 3.90625  15.625 3.90625  C 16.91943359375 3.90625  17.96875 4.95556640625  17.96875 6.25  C 17.96875 7.54443359375  16.91943359375 8.59375  15.625 8.59375  C 14.33056640625 8.59375  13.281249999999998 7.54443359375  13.281249999999998 6.25  Z M 31.25 25.78125  C 31.25 27.0703125  32.3046875 28.125  33.59375 28  L 43 28  L 43 47.65625  C 43.75 48.95068359375  42.70068359375 50  41.40625 50  L 17.96875 50  C 16.67431640625 50  15.625 48.95068359375  16 47.65625  L 16 17.96875  C 15.625 16.67431640625  16.67431640625 15.625  17.96875 16  L 31.25 16  L 31.25 25.78125  Z M 43.0634765625 22.7509765625  C 43.50302737615988 23.190528568483273  43.74997529415734 23.786681216610532  43.75 24.408300781249977  L 43.75 25  L 34.375 25  L 34.375 15.625  L 34.966699218749994 15.625  C 35.58827519456844 15.62500324996222  36.18439386935188 15.871916518380146  36.623925781249994 16.311425781250023  L 43.0634765625 22.7509765625  Z " fill-rule="evenodd" />
    </mask>
  </defs>
  <g>
    <path d="M 13 40  L 13 17.96875  C 12.500000000000002 14.953222656249975  14.953320312500011 12.5  17.96875 13  L 31.25 13  L 31.25 5.46875  C 31.25 4.17431640625  30.20068359375 3.125  28.90625 3.125  L 21.0341796875 3.125  C 19.951757812500006 1.2587890625  17.93330078125001 0  15.625 0  C 13.316699218749989 0  11.298242187499994 1.2587890625  10.2158203125 3.125  L 2.34375 3.125  C 1.04931640625 3.125  0 4.17431640625  0 5.46875  L 0 38.28125  C 0 39.57568359375  1.04931640625 40.625  2.34375 40  L 13 40  Z M 13.281249999999998 6.25  C 13.281249999999998 4.95556640625  14.33056640625 3.90625  15.625 3.90625  C 16.91943359375 3.90625  17.96875 4.95556640625  17.96875 6.25  C 17.96875 7.54443359375  16.91943359375 8.59375  15.625 8.59375  C 14.33056640625 8.59375  13.281249999999998 7.54443359375  13.281249999999998 6.25  Z M 31.25 25.78125  C 31.25 27.0703125  32.3046875 28.125  33.59375 28  L 43 28  L 43 47.65625  C 43.75 48.95068359375  42.70068359375 50  41.40625 50  L 17.96875 50  C 16.67431640625 50  15.625 48.95068359375  16 47.65625  L 16 17.96875  C 15.625 16.67431640625  16.67431640625 15.625  17.96875 16  L 31.25 16  L 31.25 25.78125  Z M 43.0634765625 22.7509765625  C 43.50302737615988 23.190528568483273  43.74997529415734 23.786681216610532  43.75 24.408300781249977  L 43.75 25  L 34.375 25  L 34.375 15.625  L 34.966699218749994 15.625  C 35.58827519456844 15.62500324996222  36.18439386935188 15.871916518380146  36.623925781249994 16.311425781250023  L 43.0634765625 22.7509765625  Z " fill-rule="nonzero" fill="rgba(0, 0, 0, 1)" stroke="none" class="fill" />
    <path d="M 13 40  L 13 17.96875  C 12.500000000000002 14.953222656249975  14.953320312500011 12.5  17.96875 13  L 31.25 13  L 31.25 5.46875  C 31.25 4.17431640625  30.20068359375 3.125  28.90625 3.125  L 21.0341796875 3.125  C 19.951757812500006 1.2587890625  17.93330078125001 0  15.625 0  C 13.316699218749989 0  11.298242187499994 1.2587890625  10.2158203125 3.125  L 2.34375 3.125  C 1.04931640625 3.125  0 4.17431640625  0 5.46875  L 0 38.28125  C 0 39.57568359375  1.04931640625 40.625  2.34375 40  L 13 40  Z " stroke-width="0" stroke-dasharray="0" stroke="rgba(255, 255, 255, 0)" fill="none" class="stroke" mask="url(#Clip1825)" />
    <path d="M 13.281249999999998 6.25  C 13.281249999999998 4.95556640625  14.33056640625 3.90625  15.625 3.90625  C 16.91943359375 3.90625  17.96875 4.95556640625  17.96875 6.25  C 17.96875 7.54443359375  16.91943359375 8.59375  15.625 8.59375  C 14.33056640625 8.59375  13.281249999999998 7.54443359375  13.281249999999998 6.25  Z " stroke-width="0" stroke-dasharray="0" stroke="rgba(255, 255, 255, 0)" fill="none" class="stroke" mask="url(#Clip1825)" />
    <path d="M 31.25 25.78125  C 31.25 27.0703125  32.3046875 28.125  33.59375 28  L 43 28  L 43 47.65625  C 43.75 48.95068359375  42.70068359375 50  41.40625 50  L 17.96875 50  C 16.67431640625 50  15.625 48.95068359375  16 47.65625  L 16 17.96875  C 15.625 16.67431640625  16.67431640625 15.625  17.96875 16  L 31.25 16  L 31.25 25.78125  Z " stroke-width="0" stroke-dasharray="0" stroke="rgba(255, 255, 255, 0)" fill="none" class="stroke" mask="url(#Clip1825)" />
    <path d="M 43.0634765625 22.7509765625  C 43.50302737615988 23.190528568483273  43.74997529415734 23.786681216610532  43.75 24.408300781249977  L 43.75 25  L 34.375 25  L 34.375 15.625  L 34.966699218749994 15.625  C 35.58827519456844 15.62500324996222  36.18439386935188 15.871916518380146  36.623925781249994 16.311425781250023  L 43.0634765625 22.7509765625  Z " stroke-width="0" stroke-dasharray="0" stroke="rgba(255, 255, 255, 0)" fill="none" class="stroke" mask="url(#Clip1825)" />
  </g>
</svg>