<?xml version="1.0" encoding="utf-8"?>
<svg version="1.1" xmlns:xlink="http://www.w3.org/1999/xlink" width="24px" height="30px" xmlns="http://www.w3.org/2000/svg">
  <defs>
    <pattern id="BGPattern" patternUnits="userSpaceOnUse" alignment="0 0" imageRepeat="None" />
    <mask fill="white" id="Clip322">
      <path d="M 18.223999999999997 29  L 5.744 29  C 3.007999999999999 29.4  0.7839999999999998 27.176  1 24.439999999999998  L 1 5.559999999999999  C 0.7839999999999998 2.8239999999999985  3.008 0.5999999999999988  5.744 0.5999999999999988  L 13.264 0.5999999999999988  C 14.768 0.5999999999999988  16.128 1.1439999999999988  17.183999999999997 2.2319999999999984  L 21.631999999999998 6.775999999999998  C 22.656 7.831999999999997  23.183999999999997 9.127999999999998  23 10.583999999999998  L 23 24.439999999999998  C 23.183999999999997 27.176  20.959999999999997 29.4  18.223999999999997 29  Z M 3.1839999999999993 24.44  C 3.1839999999999993 25.848000000000003  4.3359999999999985 27  5.744 27  L 18.224 27  C 19.632 27  20.784 25.848  20.784 24.44  L 20.784 10.584000000000001  C 20.784 9.736  20.512 9.064000000000002  19.904 8.440000000000001  L 15.456 3.8960000000000012  C 14.864 3.288000000000002  14.16 3.0000000000000018  13.264 3.0000000000000018  L 5.744 3.0000000000000018  C 4.336 3.0000000000000018  3.1839999999999993 4.152000000000002  3.1839999999999993 5.560000000000002  L 3.1839999999999993 24.44  Z M 9.535999999999998 23  L 7.776 23  L 4.5440000000000005 12.6  L 6.496 12.6  C 6.880000000000001 12.6  7.056000000000001 12.808  7.136000000000001 13.064  L 8.592 18.792  C 8.64 18.968  8.816 19.752000000000002  8.816 19.864  C 8.832 19.608  9.040000000000001 18.936  9.088000000000001 18.792  L 10.96 13.064000000000002  C 11.088000000000001 12.696000000000002  11.376000000000001 12.600000000000001  11.600000000000001 12.600000000000001  L 12.496000000000002 12.600000000000001  C 12.896 12.600000000000001  13.072000000000003 12.856000000000002  13.136000000000003 13.064000000000002  L 15.024000000000001 18.792  C 15.120000000000001 19.080000000000002  15.2 19.432000000000002  15.296 19.816000000000003  C 15.375999999999998 19.432000000000002  15.424 19.080000000000002  15.503999999999998 18.792  L 16.976 13.064000000000002  C 17.055999999999997 12.776000000000002  17.264 12.600000000000001  17.584 12.600000000000001  L 19.44 12.600000000000001  L 16.192 23  L 14.431999999999999 23  L 12.175999999999998 16.2  C 12.128 16.04  12.047999999999998 15.832  12.015999999999998 15.591999999999999  C 11.967999999999998 15.752  11.903999999999998 15.975999999999999  11.823999999999998 16.2  L 9.535999999999998 23  Z " fill-rule="evenodd" />
    </mask>
  </defs>
  <g>
    <path d="M 18.223999999999997 29  L 5.744 29  C 3.007999999999999 29.4  0.7839999999999998 27.176  1 24.439999999999998  L 1 5.559999999999999  C 0.7839999999999998 2.8239999999999985  3.008 0.5999999999999988  5.744 0.5999999999999988  L 13.264 0.5999999999999988  C 14.768 0.5999999999999988  16.128 1.1439999999999988  17.183999999999997 2.2319999999999984  L 21.631999999999998 6.775999999999998  C 22.656 7.831999999999997  23.183999999999997 9.127999999999998  23 10.583999999999998  L 23 24.439999999999998  C 23.183999999999997 27.176  20.959999999999997 29.4  18.223999999999997 29  Z M 3.1839999999999993 24.44  C 3.1839999999999993 25.848000000000003  4.3359999999999985 27  5.744 27  L 18.224 27  C 19.632 27  20.784 25.848  20.784 24.44  L 20.784 10.584000000000001  C 20.784 9.736  20.512 9.064000000000002  19.904 8.440000000000001  L 15.456 3.8960000000000012  C 14.864 3.288000000000002  14.16 3.0000000000000018  13.264 3.0000000000000018  L 5.744 3.0000000000000018  C 4.336 3.0000000000000018  3.1839999999999993 4.152000000000002  3.1839999999999993 5.560000000000002  L 3.1839999999999993 24.44  Z M 9.535999999999998 23  L 7.776 23  L 4.5440000000000005 12.6  L 6.496 12.6  C 6.880000000000001 12.6  7.056000000000001 12.808  7.136000000000001 13.064  L 8.592 18.792  C 8.64 18.968  8.816 19.752000000000002  8.816 19.864  C 8.832 19.608  9.040000000000001 18.936  9.088000000000001 18.792  L 10.96 13.064000000000002  C 11.088000000000001 12.696000000000002  11.376000000000001 12.600000000000001  11.600000000000001 12.600000000000001  L 12.496000000000002 12.600000000000001  C 12.896 12.600000000000001  13.072000000000003 12.856000000000002  13.136000000000003 13.064000000000002  L 15.024000000000001 18.792  C 15.120000000000001 19.080000000000002  15.2 19.432000000000002  15.296 19.816000000000003  C 15.375999999999998 19.432000000000002  15.424 19.080000000000002  15.503999999999998 18.792  L 16.976 13.064000000000002  C 17.055999999999997 12.776000000000002  17.264 12.600000000000001  17.584 12.600000000000001  L 19.44 12.600000000000001  L 16.192 23  L 14.431999999999999 23  L 12.175999999999998 16.2  C 12.128 16.04  12.047999999999998 15.832  12.015999999999998 15.591999999999999  C 11.967999999999998 15.752  11.903999999999998 15.975999999999999  11.823999999999998 16.2  L 9.535999999999998 23  Z " fill-rule="nonzero" fill="rgba(0, 0, 0, 1)" stroke="none" class="fill" />
    <path d="M 18.223999999999997 29  L 5.744 29  C 3.007999999999999 29.4  0.7839999999999998 27.176  1 24.439999999999998  L 1 5.559999999999999  C 0.7839999999999998 2.8239999999999985  3.008 0.5999999999999988  5.744 0.5999999999999988  L 13.264 0.5999999999999988  C 14.768 0.5999999999999988  16.128 1.1439999999999988  17.183999999999997 2.2319999999999984  L 21.631999999999998 6.775999999999998  C 22.656 7.831999999999997  23.183999999999997 9.127999999999998  23 10.583999999999998  L 23 24.439999999999998  C 23.183999999999997 27.176  20.959999999999997 29.4  18.223999999999997 29  Z " stroke-width="0" stroke-dasharray="0" stroke="rgba(255, 255, 255, 0)" fill="none" class="stroke" mask="url(#Clip322)" />
    <path d="M 3.1839999999999993 24.44  C 3.1839999999999993 25.848000000000003  4.3359999999999985 27  5.744 27  L 18.224 27  C 19.632 27  20.784 25.848  20.784 24.44  L 20.784 10.584000000000001  C 20.784 9.736  20.512 9.064000000000002  19.904 8.440000000000001  L 15.456 3.8960000000000012  C 14.864 3.288000000000002  14.16 3.0000000000000018  13.264 3.0000000000000018  L 5.744 3.0000000000000018  C 4.336 3.0000000000000018  3.1839999999999993 4.152000000000002  3.1839999999999993 5.560000000000002  L 3.1839999999999993 24.44  Z " stroke-width="0" stroke-dasharray="0" stroke="rgba(255, 255, 255, 0)" fill="none" class="stroke" mask="url(#Clip322)" />
    <path d="M 9.535999999999998 23  L 7.776 23  L 4.5440000000000005 12.6  L 6.496 12.6  C 6.880000000000001 12.6  7.056000000000001 12.808  7.136000000000001 13.064  L 8.592 18.792  C 8.64 18.968  8.816 19.752000000000002  8.816 19.864  C 8.832 19.608  9.040000000000001 18.936  9.088000000000001 18.792  L 10.96 13.064000000000002  C 11.088000000000001 12.696000000000002  11.376000000000001 12.600000000000001  11.600000000000001 12.600000000000001  L 12.496000000000002 12.600000000000001  C 12.896 12.600000000000001  13.072000000000003 12.856000000000002  13.136000000000003 13.064000000000002  L 15.024000000000001 18.792  C 15.120000000000001 19.080000000000002  15.2 19.432000000000002  15.296 19.816000000000003  C 15.375999999999998 19.432000000000002  15.424 19.080000000000002  15.503999999999998 18.792  L 16.976 13.064000000000002  C 17.055999999999997 12.776000000000002  17.264 12.600000000000001  17.584 12.600000000000001  L 19.44 12.600000000000001  L 16.192 23  L 14.431999999999999 23  L 12.175999999999998 16.2  C 12.128 16.04  12.047999999999998 15.832  12.015999999999998 15.591999999999999  C 11.967999999999998 15.752  11.903999999999998 15.975999999999999  11.823999999999998 16.2  L 9.535999999999998 23  Z " stroke-width="0" stroke-dasharray="0" stroke="rgba(255, 255, 255, 0)" fill="none" class="stroke" mask="url(#Clip322)" />
  </g>
</svg>