<?xml version="1.0" encoding="utf-8"?>
<svg version="1.1" xmlns:xlink="http://www.w3.org/1999/xlink" width="64px" height="64px" xmlns="http://www.w3.org/2000/svg">
  <defs>
    <pattern id="BGPattern" patternUnits="userSpaceOnUse" alignment="0 0" imageRepeat="None" />
    <mask fill="white" id="Clip1366">
      <path d="M 44.425 40.349999999999994  C 48.1875 32.637499999999996  44.9875 23.337499999999995  37.275 19.575  C 30.6875 16.3625  22.9625 18.2625  18.5 23.674999999999997  L 25.4 30.574999999999996  C 26.1875 31.362499999999997  26.1875 32.62499999999999  25.4 33.4  C 25.0125 33.7875  24.5 33.9875  23.987499999999997 33.9875  C 23.474999999999994 33.9875  22.9625 33.787499999999994  22.574999999999996 33.4  L 16.3 27.125  L 0.2875 59.9625  C -0.07500000000000001 60.7125  -0.10000000000000003 61.625  0.2875 62.425  C 0.9625 63.8125  2.65 64.3875  4.0375 63.7125  L 20.737499999999997 55.5625  L 14.587499999999997 49.4125  C 13.799999999999997 48.6375  13.799999999999997 47.362500000000004  14.587499999999997 46.5875  C 15.374999999999996 45.8125  16.637499999999996 45.8125  17.412499999999998 46.5875  L 24.537499999999998 53.7125  L 37.287499999999994 47.4875  C 40.287499999999994 46.025  42.849999999999994 43.574999999999996  44.425 40.349999999999994  Z M 64 19  C 59.8875 14.0375  53.875 12.775  48.787499999999994 15.212499999999999  C 51.225 10.125  49.9625 4.1125  45 0  C 38.7125 5.2125  38.4375 13.4375  44.0125 18.9875  L 45.0125 19.9875  C 50.5625 25.5625  58.800000000000004 25.2875  64 19  Z " fill-rule="evenodd" />
    </mask>
  </defs>
  <g>
    <path d="M 44.425 40.349999999999994  C 48.1875 32.637499999999996  44.9875 23.337499999999995  37.275 19.575  C 30.6875 16.3625  22.9625 18.2625  18.5 23.674999999999997  L 25.4 30.574999999999996  C 26.1875 31.362499999999997  26.1875 32.62499999999999  25.4 33.4  C 25.0125 33.7875  24.5 33.9875  23.987499999999997 33.9875  C 23.474999999999994 33.9875  22.9625 33.787499999999994  22.574999999999996 33.4  L 16.3 27.125  L 0.2875 59.9625  C -0.07500000000000001 60.7125  -0.10000000000000003 61.625  0.2875 62.425  C 0.9625 63.8125  2.65 64.3875  4.0375 63.7125  L 20.737499999999997 55.5625  L 14.587499999999997 49.4125  C 13.799999999999997 48.6375  13.799999999999997 47.362500000000004  14.587499999999997 46.5875  C 15.374999999999996 45.8125  16.637499999999996 45.8125  17.412499999999998 46.5875  L 24.537499999999998 53.7125  L 37.287499999999994 47.4875  C 40.287499999999994 46.025  42.849999999999994 43.574999999999996  44.425 40.349999999999994  Z M 64 19  C 59.8875 14.0375  53.875 12.775  48.787499999999994 15.212499999999999  C 51.225 10.125  49.9625 4.1125  45 0  C 38.7125 5.2125  38.4375 13.4375  44.0125 18.9875  L 45.0125 19.9875  C 50.5625 25.5625  58.800000000000004 25.2875  64 19  Z " fill-rule="nonzero" fill="rgba(0, 0, 0, 1)" stroke="none" class="fill" />
    <path d="M 44.425 40.349999999999994  C 48.1875 32.637499999999996  44.9875 23.337499999999995  37.275 19.575  C 30.6875 16.3625  22.9625 18.2625  18.5 23.674999999999997  L 25.4 30.574999999999996  C 26.1875 31.362499999999997  26.1875 32.62499999999999  25.4 33.4  C 25.0125 33.7875  24.5 33.9875  23.987499999999997 33.9875  C 23.474999999999994 33.9875  22.9625 33.787499999999994  22.574999999999996 33.4  L 16.3 27.125  L 0.2875 59.9625  C -0.07500000000000001 60.7125  -0.10000000000000003 61.625  0.2875 62.425  C 0.9625 63.8125  2.65 64.3875  4.0375 63.7125  L 20.737499999999997 55.5625  L 14.587499999999997 49.4125  C 13.799999999999997 48.6375  13.799999999999997 47.362500000000004  14.587499999999997 46.5875  C 15.374999999999996 45.8125  16.637499999999996 45.8125  17.412499999999998 46.5875  L 24.537499999999998 53.7125  L 37.287499999999994 47.4875  C 40.287499999999994 46.025  42.849999999999994 43.574999999999996  44.425 40.349999999999994  Z " stroke-width="0" stroke-dasharray="0" stroke="rgba(255, 255, 255, 0)" fill="none" class="stroke" mask="url(#Clip1366)" />
    <path d="M 64 19  C 59.8875 14.0375  53.875 12.775  48.787499999999994 15.212499999999999  C 51.225 10.125  49.9625 4.1125  45 0  C 38.7125 5.2125  38.4375 13.4375  44.0125 18.9875  L 45.0125 19.9875  C 50.5625 25.5625  58.800000000000004 25.2875  64 19  Z " stroke-width="0" stroke-dasharray="0" stroke="rgba(255, 255, 255, 0)" fill="none" class="stroke" mask="url(#Clip1366)" />
  </g>
</svg>