<?xml version="1.0" encoding="utf-8"?>
<svg version="1.1" xmlns:xlink="http://www.w3.org/1999/xlink" width="24px" height="24px" xmlns="http://www.w3.org/2000/svg">
  <defs>
    <pattern id="BGPattern" patternUnits="userSpaceOnUse" alignment="0 0" imageRepeat="None" />
    <mask fill="white" id="Clip5009">
      <path d="M 21 24  C 22.65685424949238 24  24 22.65685424949238  24 21  L 24 7.5  L 0 7.5  L 0 21  C 0 22.65685424949238  1.3431457505076196 24  3 24  L 21 24  Z M 6 1.5  L 6 0.75  C 6 0.3357864376269049  5.664213562373095 0  5.25 0  C 4.835786437626905 0  4.5 0.3357864376269049  4.5 0.75  L 4.5 1.5  L 3 1.5  C 1.3431457505076196 1.5  0 2.8431457505076194  0 4.5  L 0 6  L 24 6  L 24 4.5  C 24 2.8431457505076194  22.65685424949238 1.5  21 1.5  L 19.5 1.5  L 19.5 0.75  C 19.5 0.3357864376269049  19.164213562373096 0  18.75 0  C 18.335786437626904 0  18 0.3357864376269049  18 0.75  L 18 1.5  L 6 1.5  Z M 13.5 11.25  C 13.5 10.835786437626904  13.835786437626904 10.5  14.25 10.5  L 15.75 10.5  C 16.164213562373096 10.5  16.5 10.835786437626904  16.5 11.25  L 16.5 12.75  C 16.5 13.164213562373096  16.164213562373096 13.5  15.75 13.5  L 14.25 13.5  C 13.835786437626904 13.5  13.5 13.164213562373096  13.5 12.75  L 13.5 11.25  Z M 18 11.25  C 18 10.835786437626904  18.335786437626904 10.5  18.75 10.5  L 20.25 10.5  C 20.664213562373096 10.5  21 10.835786437626904  21 11.25  L 21 12.75  C 21 13.164213562373096  20.664213562373096 13.5  20.25 13.5  L 18.75 13.5  C 18.335786437626904 13.5  18 13.164213562373096  18 12.75  L 18 11.25  Z M 3 17.25  L 3 15.75  C 3 15.335786437626904  3.335786437626905 15  3.75 15  L 5.25 15  C 5.664213562373095 15  6 15.335786437626904  6 15.75  L 6 17.25  C 6 17.664213562373096  5.664213562373095 18  5.25 18  L 3.75 18  C 3.335786437626905 18  3 17.664213562373096  3 17.25  Z M 7.5 15.75  C 7.5 15.335786437626904  7.835786437626905 15  8.25 15  L 9.75 15  C 10.164213562373096 15  10.5 15.335786437626904  10.5 15.75  L 10.5 17.25  C 10.5 17.664213562373096  10.164213562373096 18  9.75 18  L 8.25 18  C 7.835786437626905 18  7.5 17.664213562373096  7.5 17.25  L 7.5 15.75  Z " fill-rule="evenodd" />
    </mask>
  </defs>
  <g>
    <path d="M 21 24  C 22.65685424949238 24  24 22.65685424949238  24 21  L 24 7.5  L 0 7.5  L 0 21  C 0 22.65685424949238  1.3431457505076196 24  3 24  L 21 24  Z M 6 1.5  L 6 0.75  C 6 0.3357864376269049  5.664213562373095 0  5.25 0  C 4.835786437626905 0  4.5 0.3357864376269049  4.5 0.75  L 4.5 1.5  L 3 1.5  C 1.3431457505076196 1.5  0 2.8431457505076194  0 4.5  L 0 6  L 24 6  L 24 4.5  C 24 2.8431457505076194  22.65685424949238 1.5  21 1.5  L 19.5 1.5  L 19.5 0.75  C 19.5 0.3357864376269049  19.164213562373096 0  18.75 0  C 18.335786437626904 0  18 0.3357864376269049  18 0.75  L 18 1.5  L 6 1.5  Z M 13.5 11.25  C 13.5 10.835786437626904  13.835786437626904 10.5  14.25 10.5  L 15.75 10.5  C 16.164213562373096 10.5  16.5 10.835786437626904  16.5 11.25  L 16.5 12.75  C 16.5 13.164213562373096  16.164213562373096 13.5  15.75 13.5  L 14.25 13.5  C 13.835786437626904 13.5  13.5 13.164213562373096  13.5 12.75  L 13.5 11.25  Z M 18 11.25  C 18 10.835786437626904  18.335786437626904 10.5  18.75 10.5  L 20.25 10.5  C 20.664213562373096 10.5  21 10.835786437626904  21 11.25  L 21 12.75  C 21 13.164213562373096  20.664213562373096 13.5  20.25 13.5  L 18.75 13.5  C 18.335786437626904 13.5  18 13.164213562373096  18 12.75  L 18 11.25  Z M 3 17.25  L 3 15.75  C 3 15.335786437626904  3.335786437626905 15  3.75 15  L 5.25 15  C 5.664213562373095 15  6 15.335786437626904  6 15.75  L 6 17.25  C 6 17.664213562373096  5.664213562373095 18  5.25 18  L 3.75 18  C 3.335786437626905 18  3 17.664213562373096  3 17.25  Z M 7.5 15.75  C 7.5 15.335786437626904  7.835786437626905 15  8.25 15  L 9.75 15  C 10.164213562373096 15  10.5 15.335786437626904  10.5 15.75  L 10.5 17.25  C 10.5 17.664213562373096  10.164213562373096 18  9.75 18  L 8.25 18  C 7.835786437626905 18  7.5 17.664213562373096  7.5 17.25  L 7.5 15.75  Z " fill-rule="nonzero" fill="rgba(0, 0, 0, 1)" stroke="none" class="fill" />
    <path d="M 21 24  C 22.65685424949238 24  24 22.65685424949238  24 21  L 24 7.5  L 0 7.5  L 0 21  C 0 22.65685424949238  1.3431457505076196 24  3 24  L 21 24  Z " stroke-width="0" stroke-dasharray="0" stroke="rgba(255, 255, 255, 0)" fill="none" class="stroke" mask="url(#Clip5009)" />
    <path d="M 6 1.5  L 6 0.75  C 6 0.3357864376269049  5.664213562373095 0  5.25 0  C 4.835786437626905 0  4.5 0.3357864376269049  4.5 0.75  L 4.5 1.5  L 3 1.5  C 1.3431457505076196 1.5  0 2.8431457505076194  0 4.5  L 0 6  L 24 6  L 24 4.5  C 24 2.8431457505076194  22.65685424949238 1.5  21 1.5  L 19.5 1.5  L 19.5 0.75  C 19.5 0.3357864376269049  19.164213562373096 0  18.75 0  C 18.335786437626904 0  18 0.3357864376269049  18 0.75  L 18 1.5  L 6 1.5  Z " stroke-width="0" stroke-dasharray="0" stroke="rgba(255, 255, 255, 0)" fill="none" class="stroke" mask="url(#Clip5009)" />
    <path d="M 13.5 11.25  C 13.5 10.835786437626904  13.835786437626904 10.5  14.25 10.5  L 15.75 10.5  C 16.164213562373096 10.5  16.5 10.835786437626904  16.5 11.25  L 16.5 12.75  C 16.5 13.164213562373096  16.164213562373096 13.5  15.75 13.5  L 14.25 13.5  C 13.835786437626904 13.5  13.5 13.164213562373096  13.5 12.75  L 13.5 11.25  Z " stroke-width="0" stroke-dasharray="0" stroke="rgba(255, 255, 255, 0)" fill="none" class="stroke" mask="url(#Clip5009)" />
    <path d="M 18 11.25  C 18 10.835786437626904  18.335786437626904 10.5  18.75 10.5  L 20.25 10.5  C 20.664213562373096 10.5  21 10.835786437626904  21 11.25  L 21 12.75  C 21 13.164213562373096  20.664213562373096 13.5  20.25 13.5  L 18.75 13.5  C 18.335786437626904 13.5  18 13.164213562373096  18 12.75  L 18 11.25  Z " stroke-width="0" stroke-dasharray="0" stroke="rgba(255, 255, 255, 0)" fill="none" class="stroke" mask="url(#Clip5009)" />
    <path d="M 3 17.25  L 3 15.75  C 3 15.335786437626904  3.335786437626905 15  3.75 15  L 5.25 15  C 5.664213562373095 15  6 15.335786437626904  6 15.75  L 6 17.25  C 6 17.664213562373096  5.664213562373095 18  5.25 18  L 3.75 18  C 3.335786437626905 18  3 17.664213562373096  3 17.25  Z " stroke-width="0" stroke-dasharray="0" stroke="rgba(255, 255, 255, 0)" fill="none" class="stroke" mask="url(#Clip5009)" />
    <path d="M 7.5 15.75  C 7.5 15.335786437626904  7.835786437626905 15  8.25 15  L 9.75 15  C 10.164213562373096 15  10.5 15.335786437626904  10.5 15.75  L 10.5 17.25  C 10.5 17.664213562373096  10.164213562373096 18  9.75 18  L 8.25 18  C 7.835786437626905 18  7.5 17.664213562373096  7.5 17.25  L 7.5 15.75  Z " stroke-width="0" stroke-dasharray="0" stroke="rgba(255, 255, 255, 0)" fill="none" class="stroke" mask="url(#Clip5009)" />
  </g>
</svg>