<?xml version="1.0" encoding="utf-8"?>
<svg version="1.1" xmlns:xlink="http://www.w3.org/1999/xlink" width="64px" height="64px" xmlns="http://www.w3.org/2000/svg">
  <defs>
    <pattern id="BGPattern" patternUnits="userSpaceOnUse" alignment="0 0" imageRepeat="None" />
    <mask fill="white" id="Clip2005">
      <path d="M 44.449999999999996 60.1775  C 44.449999999999996 59.166250000000005  43.65125 58.295  42.55875 58.295  C 42.377500000000005 58.295  41.697500000000005 58.3525  41.41125 58.3525  C 26.880000000000003 58.3525  15.058750000000003 46.53125  15.058750000000003 32  C 15.058750000000003 17.46875  26.88 5.647500000000001  41.41125 5.647500000000001  C 41.70125 5.647500000000001  42.37375 5.705  42.55875 5.705  C 43.45 5.705  44.225 5.07625  44.4025 4.196250000000001  C 44.585 3.2900000000000005  44.08375 2.3850000000000002  43.21875 2.0600000000000005  C 39.5725 0.6925000000000004  35.79875 0  32 0  C 14.355 0  0 14.355  0 32  C 0 49.644999999999996  14.355 64  32 64  C 35.77875 64  39.535 63.31375  43.165 61.96  C 43.91 61.7075  44.449999999999996 61.005  44.449999999999996 60.1775  Z M 63.622499999999995 28.856249999999996  C 64.36125 28.134999999999994  63.95374999999999 26.879999999999995  62.932500000000005 26.7325  L 53.385000000000005 25.345000000000002  L 49.11500000000001 16.69375  C 48.88625000000001 16.231250000000003  48.44250000000001 16  47.99875000000001 16  C 47.55500000000001 16  47.111250000000005 16.23125  46.88250000000001 16.69375  L 42.61250000000001 25.345  L 33.06500000000001 26.732499999999998  C 32.04375000000001 26.88  31.63625000000001 28.134999999999998  32.375000000000014 28.85625  L 39.28375000000001 35.589999999999996  L 37.65250000000001 45.098749999999995  C 37.51375000000001 45.903749999999995  38.15375000000001 46.55625  38.87875000000001 46.55625  C 39.07000000000001 46.55625  39.26750000000001 46.51125  39.45875000000001 46.41  L 48 41.92125  L 56.53875 46.41  C 56.73 46.51  56.9275 46.55625  57.11875 46.55625  C 57.84375 46.55625  58.48375 45.902499999999996  58.345 45.098749999999995  L 56.71375 35.589999999999996  L 63.622499999999995 28.856249999999996  Z " fill-rule="evenodd" />
    </mask>
  </defs>
  <g>
    <path d="M 44.449999999999996 60.1775  C 44.449999999999996 59.166250000000005  43.65125 58.295  42.55875 58.295  C 42.377500000000005 58.295  41.697500000000005 58.3525  41.41125 58.3525  C 26.880000000000003 58.3525  15.058750000000003 46.53125  15.058750000000003 32  C 15.058750000000003 17.46875  26.88 5.647500000000001  41.41125 5.647500000000001  C 41.70125 5.647500000000001  42.37375 5.705  42.55875 5.705  C 43.45 5.705  44.225 5.07625  44.4025 4.196250000000001  C 44.585 3.2900000000000005  44.08375 2.3850000000000002  43.21875 2.0600000000000005  C 39.5725 0.6925000000000004  35.79875 0  32 0  C 14.355 0  0 14.355  0 32  C 0 49.644999999999996  14.355 64  32 64  C 35.77875 64  39.535 63.31375  43.165 61.96  C 43.91 61.7075  44.449999999999996 61.005  44.449999999999996 60.1775  Z M 63.622499999999995 28.856249999999996  C 64.36125 28.134999999999994  63.95374999999999 26.879999999999995  62.932500000000005 26.7325  L 53.385000000000005 25.345000000000002  L 49.11500000000001 16.69375  C 48.88625000000001 16.231250000000003  48.44250000000001 16  47.99875000000001 16  C 47.55500000000001 16  47.111250000000005 16.23125  46.88250000000001 16.69375  L 42.61250000000001 25.345  L 33.06500000000001 26.732499999999998  C 32.04375000000001 26.88  31.63625000000001 28.134999999999998  32.375000000000014 28.85625  L 39.28375000000001 35.589999999999996  L 37.65250000000001 45.098749999999995  C 37.51375000000001 45.903749999999995  38.15375000000001 46.55625  38.87875000000001 46.55625  C 39.07000000000001 46.55625  39.26750000000001 46.51125  39.45875000000001 46.41  L 48 41.92125  L 56.53875 46.41  C 56.73 46.51  56.9275 46.55625  57.11875 46.55625  C 57.84375 46.55625  58.48375 45.902499999999996  58.345 45.098749999999995  L 56.71375 35.589999999999996  L 63.622499999999995 28.856249999999996  Z " fill-rule="nonzero" fill="rgba(0, 0, 0, 1)" stroke="none" class="fill" />
    <path d="M 44.449999999999996 60.1775  C 44.449999999999996 59.166250000000005  43.65125 58.295  42.55875 58.295  C 42.377500000000005 58.295  41.697500000000005 58.3525  41.41125 58.3525  C 26.880000000000003 58.3525  15.058750000000003 46.53125  15.058750000000003 32  C 15.058750000000003 17.46875  26.88 5.647500000000001  41.41125 5.647500000000001  C 41.70125 5.647500000000001  42.37375 5.705  42.55875 5.705  C 43.45 5.705  44.225 5.07625  44.4025 4.196250000000001  C 44.585 3.2900000000000005  44.08375 2.3850000000000002  43.21875 2.0600000000000005  C 39.5725 0.6925000000000004  35.79875 0  32 0  C 14.355 0  0 14.355  0 32  C 0 49.644999999999996  14.355 64  32 64  C 35.77875 64  39.535 63.31375  43.165 61.96  C 43.91 61.7075  44.449999999999996 61.005  44.449999999999996 60.1775  Z " stroke-width="0" stroke-dasharray="0" stroke="rgba(255, 255, 255, 0)" fill="none" class="stroke" mask="url(#Clip2005)" />
    <path d="M 63.622499999999995 28.856249999999996  C 64.36125 28.134999999999994  63.95374999999999 26.879999999999995  62.932500000000005 26.7325  L 53.385000000000005 25.345000000000002  L 49.11500000000001 16.69375  C 48.88625000000001 16.231250000000003  48.44250000000001 16  47.99875000000001 16  C 47.55500000000001 16  47.111250000000005 16.23125  46.88250000000001 16.69375  L 42.61250000000001 25.345  L 33.06500000000001 26.732499999999998  C 32.04375000000001 26.88  31.63625000000001 28.134999999999998  32.375000000000014 28.85625  L 39.28375000000001 35.589999999999996  L 37.65250000000001 45.098749999999995  C 37.51375000000001 45.903749999999995  38.15375000000001 46.55625  38.87875000000001 46.55625  C 39.07000000000001 46.55625  39.26750000000001 46.51125  39.45875000000001 46.41  L 48 41.92125  L 56.53875 46.41  C 56.73 46.51  56.9275 46.55625  57.11875 46.55625  C 57.84375 46.55625  58.48375 45.902499999999996  58.345 45.098749999999995  L 56.71375 35.589999999999996  L 63.622499999999995 28.856249999999996  Z " stroke-width="0" stroke-dasharray="0" stroke="rgba(255, 255, 255, 0)" fill="none" class="stroke" mask="url(#Clip2005)" />
  </g>
</svg>