<?xml version="1.0" encoding="utf-8"?>
<svg version="1.1" xmlns:xlink="http://www.w3.org/1999/xlink" width="50px" height="50px" xmlns="http://www.w3.org/2000/svg">
  <defs>
    <pattern id="BGPattern" patternUnits="userSpaceOnUse" alignment="0 0" imageRepeat="None" />
    <mask fill="white" id="Clip2449">
      <path d="M 50 2  C 50 0.8937499999999997  49.10625 0  48 0  L 2 0  C 0.8937499999999997 0  0 0.8937499999999997  0 2  L 0 48  C 0 49.10625  0.8937499999999997 50  2 50  L 48 50  C 49.10625 50  50 49.10625  50 48  L 50 2  Z M 45 5  L 45 45  L 5 45  L 5 5  L 45 5  Z M 22.75 15.375  C 22.75 15.649999999999997  22.975 15.875  23.25 15.875  L 26.75 15.875  C 27.025 15.875  27.250000000000004 15.649999999999997  27.250000000000004 15.375  L 27.250000000000004 11.875  C 27.250000000000004 11.600000000000001  27.025 11.375  26.75 11.375  L 23.25 11.375  C 22.975 11.375  22.75 11.600000000000001  22.75 11.875  L 22.75 15.375  Z M 11.375 26.75  C 11.375 27.025  11.600000000000001 27.250000000000004  11.875 27.250000000000004  L 15.375 27.250000000000004  C 15.649999999999997 27.250000000000004  15.875 27.025  15.875 26.75  L 15.875 23.25  C 15.875 22.975  15.649999999999997 22.75  15.375 22.75  L 11.875 22.75  C 11.600000000000001 22.75  11.375 22.975  11.375 23.25  L 11.375 26.75  Z M 34.125 26.75  C 34.125 27.025  34.35 27.250000000000004  34.625 27.250000000000004  L 38.125 27.250000000000004  C 38.4 27.250000000000004  38.625 27.025  38.625 26.75  L 38.625 23.25  C 38.625 22.975  38.4 22.75  38.125 22.75  L 34.625 22.75  C 34.35 22.75  34.125 22.975  34.125 23.25  L 34.125 26.75  Z M 22.75 26.75  C 22.75 27.025  22.975 27.250000000000004  23.25 27.250000000000004  L 26.75 27.250000000000004  C 27.025 27.250000000000004  27.250000000000004 27.025  27.250000000000004 26.75  L 27.250000000000004 23.25  C 27.250000000000004 22.975  27.025 22.75  26.75 22.75  L 23.25 22.75  C 22.975 22.75  22.75 22.975  22.75 23.25  L 22.75 26.75  Z M 22.75 38.125  C 22.75 38.4  22.975 38.625  23.25 38.625  L 26.75 38.625  C 27.025 38.625  27.250000000000004 38.4  27.250000000000004 38.125  L 27.250000000000004 34.625  C 27.250000000000004 34.35  27.025 34.125  26.75 34.125  L 23.25 34.125  C 22.975 34.125  22.75 34.35  22.75 34.625  L 22.75 38.125  Z " fill-rule="evenodd" />
    </mask>
  </defs>
  <g>
    <path d="M 50 2  C 50 0.8937499999999997  49.10625 0  48 0  L 2 0  C 0.8937499999999997 0  0 0.8937499999999997  0 2  L 0 48  C 0 49.10625  0.8937499999999997 50  2 50  L 48 50  C 49.10625 50  50 49.10625  50 48  L 50 2  Z M 45 5  L 45 45  L 5 45  L 5 5  L 45 5  Z M 22.75 15.375  C 22.75 15.649999999999997  22.975 15.875  23.25 15.875  L 26.75 15.875  C 27.025 15.875  27.250000000000004 15.649999999999997  27.250000000000004 15.375  L 27.250000000000004 11.875  C 27.250000000000004 11.600000000000001  27.025 11.375  26.75 11.375  L 23.25 11.375  C 22.975 11.375  22.75 11.600000000000001  22.75 11.875  L 22.75 15.375  Z M 11.375 26.75  C 11.375 27.025  11.600000000000001 27.250000000000004  11.875 27.250000000000004  L 15.375 27.250000000000004  C 15.649999999999997 27.250000000000004  15.875 27.025  15.875 26.75  L 15.875 23.25  C 15.875 22.975  15.649999999999997 22.75  15.375 22.75  L 11.875 22.75  C 11.600000000000001 22.75  11.375 22.975  11.375 23.25  L 11.375 26.75  Z M 34.125 26.75  C 34.125 27.025  34.35 27.250000000000004  34.625 27.250000000000004  L 38.125 27.250000000000004  C 38.4 27.250000000000004  38.625 27.025  38.625 26.75  L 38.625 23.25  C 38.625 22.975  38.4 22.75  38.125 22.75  L 34.625 22.75  C 34.35 22.75  34.125 22.975  34.125 23.25  L 34.125 26.75  Z M 22.75 26.75  C 22.75 27.025  22.975 27.250000000000004  23.25 27.250000000000004  L 26.75 27.250000000000004  C 27.025 27.250000000000004  27.250000000000004 27.025  27.250000000000004 26.75  L 27.250000000000004 23.25  C 27.250000000000004 22.975  27.025 22.75  26.75 22.75  L 23.25 22.75  C 22.975 22.75  22.75 22.975  22.75 23.25  L 22.75 26.75  Z M 22.75 38.125  C 22.75 38.4  22.975 38.625  23.25 38.625  L 26.75 38.625  C 27.025 38.625  27.250000000000004 38.4  27.250000000000004 38.125  L 27.250000000000004 34.625  C 27.250000000000004 34.35  27.025 34.125  26.75 34.125  L 23.25 34.125  C 22.975 34.125  22.75 34.35  22.75 34.625  L 22.75 38.125  Z " fill-rule="nonzero" fill="rgba(0, 0, 0, 1)" stroke="none" class="fill" />
    <path d="M 50 2  C 50 0.8937499999999997  49.10625 0  48 0  L 2 0  C 0.8937499999999997 0  0 0.8937499999999997  0 2  L 0 48  C 0 49.10625  0.8937499999999997 50  2 50  L 48 50  C 49.10625 50  50 49.10625  50 48  L 50 2  Z " stroke-width="0" stroke-dasharray="0" stroke="rgba(255, 255, 255, 0)" fill="none" class="stroke" mask="url(#Clip2449)" />
    <path d="M 45 5  L 45 45  L 5 45  L 5 5  L 45 5  Z " stroke-width="0" stroke-dasharray="0" stroke="rgba(255, 255, 255, 0)" fill="none" class="stroke" mask="url(#Clip2449)" />
    <path d="M 22.75 15.375  C 22.75 15.649999999999997  22.975 15.875  23.25 15.875  L 26.75 15.875  C 27.025 15.875  27.250000000000004 15.649999999999997  27.250000000000004 15.375  L 27.250000000000004 11.875  C 27.250000000000004 11.600000000000001  27.025 11.375  26.75 11.375  L 23.25 11.375  C 22.975 11.375  22.75 11.600000000000001  22.75 11.875  L 22.75 15.375  Z " stroke-width="0" stroke-dasharray="0" stroke="rgba(255, 255, 255, 0)" fill="none" class="stroke" mask="url(#Clip2449)" />
    <path d="M 11.375 26.75  C 11.375 27.025  11.600000000000001 27.250000000000004  11.875 27.250000000000004  L 15.375 27.250000000000004  C 15.649999999999997 27.250000000000004  15.875 27.025  15.875 26.75  L 15.875 23.25  C 15.875 22.975  15.649999999999997 22.75  15.375 22.75  L 11.875 22.75  C 11.600000000000001 22.75  11.375 22.975  11.375 23.25  L 11.375 26.75  Z " stroke-width="0" stroke-dasharray="0" stroke="rgba(255, 255, 255, 0)" fill="none" class="stroke" mask="url(#Clip2449)" />
    <path d="M 34.125 26.75  C 34.125 27.025  34.35 27.250000000000004  34.625 27.250000000000004  L 38.125 27.250000000000004  C 38.4 27.250000000000004  38.625 27.025  38.625 26.75  L 38.625 23.25  C 38.625 22.975  38.4 22.75  38.125 22.75  L 34.625 22.75  C 34.35 22.75  34.125 22.975  34.125 23.25  L 34.125 26.75  Z " stroke-width="0" stroke-dasharray="0" stroke="rgba(255, 255, 255, 0)" fill="none" class="stroke" mask="url(#Clip2449)" />
    <path d="M 22.75 26.75  C 22.75 27.025  22.975 27.250000000000004  23.25 27.250000000000004  L 26.75 27.250000000000004  C 27.025 27.250000000000004  27.250000000000004 27.025  27.250000000000004 26.75  L 27.250000000000004 23.25  C 27.250000000000004 22.975  27.025 22.75  26.75 22.75  L 23.25 22.75  C 22.975 22.75  22.75 22.975  22.75 23.25  L 22.75 26.75  Z " stroke-width="0" stroke-dasharray="0" stroke="rgba(255, 255, 255, 0)" fill="none" class="stroke" mask="url(#Clip2449)" />
    <path d="M 22.75 38.125  C 22.75 38.4  22.975 38.625  23.25 38.625  L 26.75 38.625  C 27.025 38.625  27.250000000000004 38.4  27.250000000000004 38.125  L 27.250000000000004 34.625  C 27.250000000000004 34.35  27.025 34.125  26.75 34.125  L 23.25 34.125  C 22.975 34.125  22.75 34.35  22.75 34.625  L 22.75 38.125  Z " stroke-width="0" stroke-dasharray="0" stroke="rgba(255, 255, 255, 0)" fill="none" class="stroke" mask="url(#Clip2449)" />
  </g>
</svg>