<?xml version="1.0" encoding="utf-8"?>
<svg version="1.1" xmlns:xlink="http://www.w3.org/1999/xlink" width="12px" height="12px" xmlns="http://www.w3.org/2000/svg">
  <defs>
    <pattern id="BGPattern" patternUnits="userSpaceOnUse" alignment="0 0" imageRepeat="None" />
    <mask fill="white" id="Clip6091">
      <path d="M 5.25 0.75  C 5.25 0.3357864376269051  5.585786437626904 0  6 0  C 6.414213562373096 0  6.75 0.3357864376269051  6.75 0.75  L 6.75 5.25  L 11.25 5.25  C 11.664213562373096 5.25  12 5.585786437626904  12 6  C 12 6.414213562373096  11.664213562373096 6.75  11.25 6.75  L 6.75 6.75  L 6.75 11.25  C 6.75 11.664213562373096  6.414213562373096 12  6 12  C 5.585786437626904 12  5.25 11.664213562373096  5.25 11.25  L 5.25 6.75  L 0.75 6.75  C 0.3357864376269051 6.75  0 6.414213562373096  0 6  C 0 5.585786437626904  0.3357864376269051 5.25  0.75 5.25  L 5.25 5.25  L 5.25 0.75  Z " fill-rule="evenodd" />
    </mask>
  </defs>
  <g transform="matrix(1 0 0 1 -6 -6 )">
    <path d="M 5.25 0.75  C 5.25 0.3357864376269051  5.585786437626904 0  6 0  C 6.414213562373096 0  6.75 0.3357864376269051  6.75 0.75  L 6.75 5.25  L 11.25 5.25  C 11.664213562373096 5.25  12 5.585786437626904  12 6  C 12 6.414213562373096  11.664213562373096 6.75  11.25 6.75  L 6.75 6.75  L 6.75 11.25  C 6.75 11.664213562373096  6.414213562373096 12  6 12  C 5.585786437626904 12  5.25 11.664213562373096  5.25 11.25  L 5.25 6.75  L 0.75 6.75  C 0.3357864376269051 6.75  0 6.414213562373096  0 6  C 0 5.585786437626904  0.3357864376269051 5.25  0.75 5.25  L 5.25 5.25  L 5.25 0.75  Z " fill-rule="nonzero" fill="rgba(0, 0, 0, 1)" stroke="none" transform="matrix(1 0 0 1 6 6 )" class="fill" />
    <path d="M 5.25 0.75  C 5.25 0.3357864376269051  5.585786437626904 0  6 0  C 6.414213562373096 0  6.75 0.3357864376269051  6.75 0.75  L 6.75 5.25  L 11.25 5.25  C 11.664213562373096 5.25  12 5.585786437626904  12 6  C 12 6.414213562373096  11.664213562373096 6.75  11.25 6.75  L 6.75 6.75  L 6.75 11.25  C 6.75 11.664213562373096  6.414213562373096 12  6 12  C 5.585786437626904 12  5.25 11.664213562373096  5.25 11.25  L 5.25 6.75  L 0.75 6.75  C 0.3357864376269051 6.75  0 6.414213562373096  0 6  C 0 5.585786437626904  0.3357864376269051 5.25  0.75 5.25  L 5.25 5.25  L 5.25 0.75  Z " stroke-width="0" stroke-dasharray="0" stroke="rgba(255, 255, 255, 0)" fill="none" transform="matrix(1 0 0 1 6 6 )" class="stroke" mask="url(#Clip6091)" />
  </g>
</svg>