<?xml version="1.0" encoding="utf-8"?>
<svg version="1.1" xmlns:xlink="http://www.w3.org/1999/xlink" width="24px" height="24px" xmlns="http://www.w3.org/2000/svg">
  <defs>
    <pattern id="BGPattern" patternUnits="userSpaceOnUse" alignment="0 0" imageRepeat="None" />
    <mask fill="white" id="Clip4722">
      <path d="M 21 0  L 3 0  C 1.3431457505076196 0  0 1.3431457505076196  0 3  L 0 21  C 0 22.65685424949238  1.3431457505076196 24  3 24  L 21 24  C 22.65685424949238 24  24 22.65685424949238  24 21  L 24 3  C 24 1.3431457505076196  22.65685424949238 0  21 0  Z M 15.720966154295553 16.47096615429555  C 15.51753319099156 16.47096615429555  15.322827278951108 16.388326931160734  15.1815 16.241999999999997  L 9.037500000000001 10.098  L 9.037500000000001 14.25  C 9.037500000000001 14.664213562373096  8.701713562373095 15  8.287500000000001 15  C 7.873286437626906 15  7.5375000000000005 14.664213562373096  7.5375000000000005 14.25  L 7.5375000000000005 8.287500000000001  C 7.5375000000000005 7.873286437626906  7.873286437626906 7.5375000000000005  8.287500000000001 7.5375000000000005  L 14.25 7.5375000000000005  C 14.664213562373096 7.5375000000000005  15 7.873286437626906  15 8.287500000000001  C 15 8.701713562373095  14.664213562373096 9.037500000000001  14.25 9.037500000000001  L 10.098 9.037500000000001  L 16.242 15.181499999999998  C 16.388326931160737 15.322827278951106  16.470966154295553 15.517533190991559  16.470966154295553 15.72096615429555  C 16.470966154295553 16.135179716668645  16.135179716668645 16.47096615429555  15.720966154295553 16.47096615429555  Z " fill-rule="evenodd" />
    </mask>
  </defs>
  <g>
    <path d="M 21 0  L 3 0  C 1.3431457505076196 0  0 1.3431457505076196  0 3  L 0 21  C 0 22.65685424949238  1.3431457505076196 24  3 24  L 21 24  C 22.65685424949238 24  24 22.65685424949238  24 21  L 24 3  C 24 1.3431457505076196  22.65685424949238 0  21 0  Z M 15.720966154295553 16.47096615429555  C 15.51753319099156 16.47096615429555  15.322827278951108 16.388326931160734  15.1815 16.241999999999997  L 9.037500000000001 10.098  L 9.037500000000001 14.25  C 9.037500000000001 14.664213562373096  8.701713562373095 15  8.287500000000001 15  C 7.873286437626906 15  7.5375000000000005 14.664213562373096  7.5375000000000005 14.25  L 7.5375000000000005 8.287500000000001  C 7.5375000000000005 7.873286437626906  7.873286437626906 7.5375000000000005  8.287500000000001 7.5375000000000005  L 14.25 7.5375000000000005  C 14.664213562373096 7.5375000000000005  15 7.873286437626906  15 8.287500000000001  C 15 8.701713562373095  14.664213562373096 9.037500000000001  14.25 9.037500000000001  L 10.098 9.037500000000001  L 16.242 15.181499999999998  C 16.388326931160737 15.322827278951106  16.470966154295553 15.517533190991559  16.470966154295553 15.72096615429555  C 16.470966154295553 16.135179716668645  16.135179716668645 16.47096615429555  15.720966154295553 16.47096615429555  Z " fill-rule="nonzero" fill="rgba(0, 0, 0, 1)" stroke="none" class="fill" />
    <path d="M 21 0  L 3 0  C 1.3431457505076196 0  0 1.3431457505076196  0 3  L 0 21  C 0 22.65685424949238  1.3431457505076196 24  3 24  L 21 24  C 22.65685424949238 24  24 22.65685424949238  24 21  L 24 3  C 24 1.3431457505076196  22.65685424949238 0  21 0  Z " stroke-width="0" stroke-dasharray="0" stroke="rgba(255, 255, 255, 0)" fill="none" class="stroke" mask="url(#Clip4722)" />
    <path d="M 15.720966154295553 16.47096615429555  C 15.51753319099156 16.47096615429555  15.322827278951108 16.388326931160734  15.1815 16.241999999999997  L 9.037500000000001 10.098  L 9.037500000000001 14.25  C 9.037500000000001 14.664213562373096  8.701713562373095 15  8.287500000000001 15  C 7.873286437626906 15  7.5375000000000005 14.664213562373096  7.5375000000000005 14.25  L 7.5375000000000005 8.287500000000001  C 7.5375000000000005 7.873286437626906  7.873286437626906 7.5375000000000005  8.287500000000001 7.5375000000000005  L 14.25 7.5375000000000005  C 14.664213562373096 7.5375000000000005  15 7.873286437626906  15 8.287500000000001  C 15 8.701713562373095  14.664213562373096 9.037500000000001  14.25 9.037500000000001  L 10.098 9.037500000000001  L 16.242 15.181499999999998  C 16.388326931160737 15.322827278951106  16.470966154295553 15.517533190991559  16.470966154295553 15.72096615429555  C 16.470966154295553 16.135179716668645  16.135179716668645 16.47096615429555  15.720966154295553 16.47096615429555  Z " stroke-width="0" stroke-dasharray="0" stroke="rgba(255, 255, 255, 0)" fill="none" class="stroke" mask="url(#Clip4722)" />
  </g>
</svg>