<?xml version="1.0" encoding="utf-8"?>
<svg version="1.1" xmlns:xlink="http://www.w3.org/1999/xlink" width="24px" height="20px" xmlns="http://www.w3.org/2000/svg">
  <defs>
    <pattern id="BGPattern" patternUnits="userSpaceOnUse" alignment="0 0" imageRepeat="None" />
    <mask fill="white" id="Clip6051">
      <path d="M 21 0.5  L 3 0.5  C 1.3431457505076196 0.5  0 1.8431457505076194  0 3.5  L 0 17  C 0 18.65685424949238  1.3431457505076196 20  3 20  L 21 20  C 22.65685424949238 20  24 18.65685424949238  24 17  L 24 3.5  C 24 1.8431457505076194  22.65685424949238 0.5  21 0.5  Z M 1.5 5  L 1.5 3.5  C 1.5 2.67157287525381  2.1715728752538097 2  3 2  L 6 2  L 6 5  L 1.5 5  Z M 7.803 18.5  L 7.5 18.5  L 7.5 2  L 21 2  C 21.82842712474619 2  22.5 2.67157287525381  22.5 3.5  L 22.5 17  C 22.5 17.427500000000002  22.32 17.8145  22.035 18.0875  C 21.225 16.241  19.232999999999997 14  15 14  C 10.4445 14  8.4825 16.595  7.803 18.5  Z M 1.5 17  L 1.5 15.5  L 6 15.5  L 6 18.5  L 3 18.5  C 2.1715728752538097 18.5  1.5 17.82842712474619  1.5 17  Z M 6 11  L 6 14  L 1.5 14  L 1.5 11  L 6 11  Z M 6 6.5  L 6 9.5  L 1.5 9.5  L 1.5 6.5  L 6 6.5  Z " fill-rule="evenodd" />
    </mask>
  </defs>
  <g>
    <path d="M 21 0.5  L 3 0.5  C 1.3431457505076196 0.5  0 1.8431457505076194  0 3.5  L 0 17  C 0 18.65685424949238  1.3431457505076196 20  3 20  L 21 20  C 22.65685424949238 20  24 18.65685424949238  24 17  L 24 3.5  C 24 1.8431457505076194  22.65685424949238 0.5  21 0.5  Z M 1.5 5  L 1.5 3.5  C 1.5 2.67157287525381  2.1715728752538097 2  3 2  L 6 2  L 6 5  L 1.5 5  Z M 7.803 18.5  L 7.5 18.5  L 7.5 2  L 21 2  C 21.82842712474619 2  22.5 2.67157287525381  22.5 3.5  L 22.5 17  C 22.5 17.427500000000002  22.32 17.8145  22.035 18.0875  C 21.225 16.241  19.232999999999997 14  15 14  C 10.4445 14  8.4825 16.595  7.803 18.5  Z M 1.5 17  L 1.5 15.5  L 6 15.5  L 6 18.5  L 3 18.5  C 2.1715728752538097 18.5  1.5 17.82842712474619  1.5 17  Z M 6 11  L 6 14  L 1.5 14  L 1.5 11  L 6 11  Z M 6 6.5  L 6 9.5  L 1.5 9.5  L 1.5 6.5  L 6 6.5  Z " fill-rule="nonzero" fill="rgba(0, 0, 0, 1)" stroke="none" class="fill" />
    <path d="M 21 0.5  L 3 0.5  C 1.3431457505076196 0.5  0 1.8431457505076194  0 3.5  L 0 17  C 0 18.65685424949238  1.3431457505076196 20  3 20  L 21 20  C 22.65685424949238 20  24 18.65685424949238  24 17  L 24 3.5  C 24 1.8431457505076194  22.65685424949238 0.5  21 0.5  Z " stroke-width="0" stroke-dasharray="0" stroke="rgba(255, 255, 255, 0)" fill="none" class="stroke" mask="url(#Clip6051)" />
    <path d="M 1.5 5  L 1.5 3.5  C 1.5 2.67157287525381  2.1715728752538097 2  3 2  L 6 2  L 6 5  L 1.5 5  Z " stroke-width="0" stroke-dasharray="0" stroke="rgba(255, 255, 255, 0)" fill="none" class="stroke" mask="url(#Clip6051)" />
    <path d="M 7.803 18.5  L 7.5 18.5  L 7.5 2  L 21 2  C 21.82842712474619 2  22.5 2.67157287525381  22.5 3.5  L 22.5 17  C 22.5 17.427500000000002  22.32 17.8145  22.035 18.0875  C 21.225 16.241  19.232999999999997 14  15 14  C 10.4445 14  8.4825 16.595  7.803 18.5  Z " stroke-width="0" stroke-dasharray="0" stroke="rgba(255, 255, 255, 0)" fill="none" class="stroke" mask="url(#Clip6051)" />
    <path d="M 1.5 17  L 1.5 15.5  L 6 15.5  L 6 18.5  L 3 18.5  C 2.1715728752538097 18.5  1.5 17.82842712474619  1.5 17  Z " stroke-width="0" stroke-dasharray="0" stroke="rgba(255, 255, 255, 0)" fill="none" class="stroke" mask="url(#Clip6051)" />
    <path d="M 6 11  L 6 14  L 1.5 14  L 1.5 11  L 6 11  Z " stroke-width="0" stroke-dasharray="0" stroke="rgba(255, 255, 255, 0)" fill="none" class="stroke" mask="url(#Clip6051)" />
    <path d="M 6 6.5  L 6 9.5  L 1.5 9.5  L 1.5 6.5  L 6 6.5  Z " stroke-width="0" stroke-dasharray="0" stroke="rgba(255, 255, 255, 0)" fill="none" class="stroke" mask="url(#Clip6051)" />
  </g>
</svg>