<?xml version="1.0" encoding="utf-8"?>
<svg version="1.1" xmlns:xlink="http://www.w3.org/1999/xlink" width="48px" height="48px" xmlns="http://www.w3.org/2000/svg">
  <defs>
    <pattern id="BGPattern" patternUnits="userSpaceOnUse" alignment="0 0" imageRepeat="None" />
    <mask fill="white" id="Clip7460">
      <path d="M 47.794000000000004 1.9139999999999993  L 47.72 1.9039999999999995  C 47.778 1.9039999999999995  47.832 1.9119999999999993  47.86 1.9259999999999993  C 47.89 1.9439999999999995  47.906 1.9799999999999995  47.906 2.0479999999999996  L 45.38 14.351999999999997  L 45.38 14.409999999999997  L 45.262 14.409999999999997  C 45.244 14.409999999999997  45.172 14.409999999999997  45.054 14.377999999999997  L 44.966 14.377999999999997  C 44.802 14.349999999999994  44.666000000000004 14.321999999999997  44.536 14.289999999999996  C 44.410000000000004 14.259999999999996  44.268 14.259999999999996  44.118 14.259999999999996  C 43.024 14.079999999999998  41.948 13.931999999999999  40.892 13.809999999999999  C 39.826 13.689999999999998  38.766000000000005 13.601999999999997  37.704 13.54  L 36.956 29.261999999999993  L 36.818000000000005 29.02199999999999  C 36.818000000000005 28.98999999999999  36.78600000000001 28.98999999999999  36.78600000000001 28.961999999999996  L 36.75600000000001 28.929999999999993  C 36.72400000000001 28.929999999999993  36.69800000000001 28.929999999999993  36.668000000000006 28.901999999999994  C 36.63600000000001 28.869999999999994  36.63600000000001 28.842  36.63600000000001 28.811999999999998  C 36.57600000000001 28.779999999999994  36.51600000000001 28.749999999999996  36.48800000000001 28.689999999999998  C 36.45600000000001 28.659999999999993  36.39600000000001 28.599999999999994  36.33800000000001 28.567999999999998  C 36.15800000000001 28.419999999999998  35.97800000000001 28.272  35.77000000000001 28.121999999999996  C 35.53200000000001 27.971999999999994  35.32200000000001 27.821999999999992  35.11200000000001 27.701999999999995  L 34.75400000000001 27.52399999999999  L 34.42600000000001 27.343999999999994  C 34.39400000000001 27.343999999999994  34.36600000000001 27.343999999999994  34.336000000000006 27.31199999999999  L 34.306000000000004 27.25399999999999  L 34.99400000000001 10.847999999999999  L 35.230000000000004 10.847999999999999  C 35.470000000000006 10.847999999999999  35.74 10.847999999999999  36.010000000000005 10.876  C 36.278000000000006 10.908000000000001  36.57600000000001 10.908000000000001  36.846000000000004 10.908000000000001  L 38.49 10.998  C 39.028 11.030000000000001  39.564 11.088  40.102000000000004 11.148  L 40.940000000000005 11.235999999999999  L 41.748000000000005 11.325999999999999  L 41.93000000000001 11.325999999999999  C 42.00000000000001 11.325999999999999  42.11000000000001 11.357999999999999  42.226000000000006 11.383999999999999  C 42.37800000000001 11.415999999999999  42.556000000000004 11.443999999999999  42.73400000000001 11.443999999999999  C 42.91600000000001 11.475999999999999  43.06400000000001 11.475999999999999  43.15400000000001 11.536  L 44.64800000000001 4.154000000000002  C 44.61800000000001 4.154000000000002  44.57600000000001 4.154000000000002  44.51600000000001 4.124000000000002  L 44.27600000000001 4.032000000000002  C 43.23200000000001 3.8240000000000025  42.15400000000001 3.646000000000002  41.07600000000001 3.466000000000003  C 40.00200000000001 3.318000000000003  38.918000000000006 3.1960000000000033  37.82000000000001 3.1080000000000028  C 36.98400000000001 3.0160000000000027  36.12400000000001 2.958000000000003  35.25000000000001 2.9280000000000026  C 34.39800000000001 2.898000000000003  33.51800000000001 2.8680000000000025  32.650000000000006 2.8680000000000025  L 31.06600000000001 2.8680000000000025  C 31.06600000000001 2.9280000000000026  31.06600000000001 2.9900000000000024  31.036 3.0480000000000027  L 30.946000000000005 3.344000000000003  L 30.860000000000007 3.624000000000002  C 30.828000000000003 3.8020000000000023  30.77000000000001 4.012000000000002  30.688000000000002 4.192000000000001  C 30.606000000000005 4.400000000000002  30.540000000000006 4.578000000000001  30.480000000000004 4.758000000000002  C 30.28600000000001 5.118000000000001  30.092000000000006 5.4460000000000015  29.888000000000005 5.744000000000001  C 29.684000000000008 6.074000000000002  29.47600000000001 6.370000000000001  29.260000000000005 6.700000000000001  C 28.76000000000001 7.300000000000001  28.198000000000008 7.808000000000001  27.57200000000001 8.254000000000001  C 26.960000000000008 8.703999999999999  26.28600000000001 9.062  25.57000000000001 9.330000000000002  C 25.080000000000013 9.510000000000002  24.57200000000001 9.66  24.046000000000006 9.75  C 23.53800000000001 9.84  23.02000000000001 9.898  22.49400000000001 9.898  C 22.21200000000001 9.898  21.92600000000001 9.898  21.626000000000012 9.866  C 21.32600000000001 9.838  21.040000000000013 9.808  20.758000000000013 9.748000000000001  C 19.950000000000014 9.600000000000001  19.172000000000015 9.330000000000002  18.442000000000014 8.942  C 17.710000000000015 8.554000000000002  17.046000000000014 8.074000000000002  16.458000000000013 7.508000000000002  C 16.128000000000014 7.238000000000001  15.860000000000012 6.940000000000001  15.620000000000015 6.6400000000000015  C 15.400000000000013 6.3420000000000005  15.172000000000013 6.012000000000001  14.954000000000013 5.654000000000002  L 13.526000000000014 6.162000000000003  L 12.090000000000014 6.700000000000001  C 11.120000000000013 7.028000000000001  10.166000000000015 7.418000000000001  9.230000000000015 7.836000000000002  C 8.304000000000014 8.254000000000001  7.378000000000014 8.704000000000002  6.476000000000015 9.18  L 5.100000000000016 9.927999999999999  C 4.646000000000016 10.196  4.188000000000016 10.436  3.7200000000000157 10.675999999999998  L 3.7200000000000157 10.703999999999999  C 3.7200000000000157 10.735999999999999  3.7000000000000153 10.735999999999999  3.6680000000000157 10.735999999999999  L 3.492000000000016 10.823999999999998  L 3.418000000000016 10.881999999999998  L 6.526 17.699999999999992  L 6.922 17.48999999999999  C 7.042 17.429999999999993  7.1899999999999995 17.339999999999996  7.343999999999999 17.27999999999999  C 8.315999999999999 16.771999999999995  9.302 16.32399999999999  10.303999999999998 15.875999999999994  C 11.296 15.457999999999995  12.303999999999998 15.039999999999992  13.291999999999998 14.651999999999994  L 13.379999999999997 14.651999999999994  L 17.483999999999998 31.113999999999987  C 18.142 30.82999999999999  18.755999999999997 30.587999999999987  19.331999999999997 30.38799999999999  C 19.919999999999998 30.18399999999999  20.465999999999998 30.005999999999986  21.005999999999997 29.849999999999987  C 22.033999999999995 29.56799999999999  23.097999999999995 29.35599999999999  24.187999999999995 29.21599999999999  C 25.279999999999994 29.087999999999987  26.371999999999993 29.007999999999992  27.465999999999994 29.007999999999992  C 28.031999999999993 29.007999999999992  28.599999999999994 29.03999999999999  29.169999999999995 29.087999999999987  C 29.709999999999994 29.14599999999999  30.215999999999994 29.20599999999999  30.693999999999996 29.295999999999985  C 31.261999999999997 29.417999999999985  31.799999999999997 29.595999999999986  32.30799999999999 29.77599999999999  C 32.785999999999994 29.983999999999988  33.233999999999995 30.19199999999999  33.62199999999999 30.489999999999988  C 34.071999999999996 30.789999999999985  34.459999999999994 31.117999999999988  34.78799999999999 31.50799999999999  C 35.08599999999999 31.895999999999987  35.35599999999999 32.31399999999998  35.53599999999999 32.76399999999999  C 35.713999999999984 33.23999999999998  35.80599999999999 33.71999999999999  35.83399999999999 34.25799999999999  C 35.83399999999999 34.795999999999985  35.77399999999999 35.301999999999985  35.65399999999999 35.78199999999998  C 35.59399999999999 36.04999999999998  35.505999999999986 36.289999999999985  35.41399999999999 36.49799999999998  C 35.29399999999999 36.73799999999999  35.17599999999999 36.97399999999999  35.027999999999984 37.18599999999999  C 35.027999999999984 37.21599999999999  35.027999999999984 37.245999999999995  34.99799999999998 37.245999999999995  C 34.96599999999999 37.245999999999995  34.96599999999999 37.275999999999996  34.96599999999999 37.30399999999999  L 34.87599999999998 37.39399999999999  C 34.84599999999998 37.424  34.84599999999998 37.45399999999999  34.84599999999998 37.483999999999995  C 34.84599999999998 37.514  34.84599999999998 37.542  34.87599999999998 37.571999999999996  L 34.935999999999986 37.696  L 34.935999999999986 37.754000000000005  L 34.96599999999999 37.812000000000005  L 35.14599999999999 38.202  C 35.17599999999999 38.32000000000001  35.203999999999986 38.47  35.203999999999986 38.586  C 35.325999999999986 39.094  35.353999999999985 39.60600000000001  35.29399999999999 40.14  C 35.23399999999999 40.71  35.11399999999999 41.248  34.93599999999999 41.756  C 34.605999999999995 42.62400000000001  34.09799999999999 43.370000000000005  33.40999999999999 44.054  C 32.69599999999999 44.744  31.79599999999999 45.342  30.721999999999994 45.878  C 29.88199999999999 46.328  28.95599999999999 46.686  27.971999999999987 46.984  C 26.95599999999999 47.282000000000004  25.84999999999999 47.550000000000004  24.623999999999988 47.762  C 24.32399999999999 47.822  24.05599999999999 47.882  23.787999999999993 47.914  L 23.009999999999994 47.944  L 22.503999999999994 48  L 22.293999999999993 45.164  L 22.293999999999993 45.132000000000005  L 22.383999999999993 45.132000000000005  L 22.443999999999992 45.102000000000004  L 22.74199999999999 45.102000000000004  L 22.86199999999999 45.010000000000005  L 23.22199999999999 45.010000000000005  C 23.34199999999999 45.010000000000005  23.42999999999999 44.980000000000004  23.51999999999999 44.980000000000004  C 24.085999999999988 44.89  24.62599999999999 44.800000000000004  25.13399999999999 44.68400000000001  C 25.67399999999999 44.56  26.17999999999999 44.444  26.71799999999999 44.294000000000004  C 27.255999999999986 44.146  27.761999999999986 43.996  28.24199999999999 43.816  C 28.71999999999999 43.67  29.169999999999995 43.458000000000006  29.61799999999999 43.25  C 30.12599999999999 42.98  30.545999999999992 42.712  30.90399999999999 42.414  C 31.263999999999996 42.116  31.561999999999998 41.814  31.799999999999994 41.516  C 31.94999999999999 41.336  32.09799999999999 41.129999999999995  32.18999999999999 40.92  C 32.27799999999999 40.712  32.337999999999994 40.5  32.36599999999999 40.262  L 32.36599999999999 39.812  L 32.12799999999999 39.992  C 32.09799999999999 40.022000000000006  32.03799999999999 40.05  31.979999999999997 40.08  L 31.772 40.174  C 31.351999999999997 40.44200000000001  30.903999999999996 40.647999999999996  30.425999999999995 40.86  C 29.949999999999996 41.068  29.43999999999999 41.278000000000006  28.901999999999994 41.458  C 28.39399999999999 41.638  27.885999999999996 41.816  27.347999999999992 41.936  C 26.807999999999993 42.08200000000001  26.271999999999995 42.206  25.763999999999996 42.294  C 25.195999999999998 42.384  24.656 42.474  24.121999999999993 42.532  C 23.581999999999997 42.593999999999994  23.045999999999996 42.653999999999996  22.507999999999996 42.684  L 22.207999999999995 42.684  C 21.699999999999996 42.684  21.221999999999994 42.684  20.805999999999994 42.623999999999995  C 20.355999999999995 42.593999999999994  19.965999999999994 42.501999999999995  19.579999999999995 42.416  C 19.013999999999996 42.266  18.533999999999995 42.053999999999995  18.115999999999996 41.788  C 17.697999999999997 41.518  17.399999999999995 41.19200000000001  17.219999999999995 40.772000000000006  C 17.011999999999997 40.412  16.891999999999996 39.994  16.921999999999997 39.516000000000005  C 16.921999999999997 39.065999999999995  17.041999999999998 38.62  17.251999999999995 38.204  C 17.459999999999994 37.81400000000001  17.759999999999994 37.456  18.117999999999995 37.126000000000005  C 18.477999999999994 36.798  18.923999999999996 36.5  19.431999999999995 36.23  C 19.851999999999997 36.022  20.299999999999994 35.812  20.807999999999996 35.662000000000006  C 21.283999999999995 35.513999999999996  21.823999999999998 35.334  22.389999999999997 35.184  C 22.839999999999996 35.066  23.347999999999995 34.946  23.883999999999997 34.855999999999995  C 24.423999999999996 34.768  24.991999999999997 34.70799999999999  25.617999999999995 34.675999999999995  C 25.825999999999993 34.646  26.065999999999995 34.618  26.303999999999995 34.618  C 26.545999999999992 34.587999999999994  26.784 34.587999999999994  27.053999999999995 34.587999999999994  L 27.947999999999993 34.587999999999994  L 28.84599999999999 34.675999999999995  C 29.113999999999994 34.70799999999999  29.381999999999998 34.736000000000004  29.64999999999999 34.797999999999995  C 29.919999999999995 34.855999999999995  30.15799999999999 34.888  30.39799999999999 34.946  C 30.547999999999995 34.976  30.69599999999999 35.036  30.81599999999999 35.068  L 31.145999999999987 35.186  L 31.173999999999992 35.186  C 31.20599999999999 35.186  31.23599999999999 35.217999999999996  31.23599999999999 35.217999999999996  L 31.26599999999999 35.24999999999999  L 31.353999999999992 35.30799999999999  L 31.295999999999992 35.366  C 31.02599999999999 35.994  30.549999999999997 36.502  29.801999999999992 36.86  C 29.053999999999988 37.25  28.545999999999992 37.488  28.21799999999999 37.57599999999999  L 28.189999999999994 37.57599999999999  C 28.159999999999997 37.546  28.13199999999999 37.517999999999994  28.119999999999994 37.517999999999994  L 27.251999999999995 37.517999999999994  C 26.976 37.517999999999994  26.705999999999996 37.517999999999994  26.43999999999999 37.548  C 26.169999999999995 37.578  25.912 37.578  25.661999999999995 37.605999999999995  C 25.103999999999996 37.666  24.55599999999999 37.758  24.025999999999996 37.846000000000004  C 23.489999999999995 37.937999999999995  22.993999999999996 38.084  22.533999999999995 38.236  C 22.243999999999996 38.324  21.975999999999996 38.414  21.725999999999996 38.532  C 21.477999999999994 38.622  21.249999999999996 38.714  21.025999999999996 38.83  C 20.899999999999995 38.89  20.787999999999997 38.952  20.675999999999995 39.010000000000005  C 20.567999999999994 39.068  20.467999999999996 39.129999999999995  20.377999999999997 39.192  C 20.319999999999997 39.25  20.229999999999997 39.31  20.139999999999997 39.37  C 20.049999999999997 39.42999999999999  19.967999999999996 39.518  19.901999999999997 39.61  C 19.929999999999996 39.61  19.979999999999997 39.61  20.022 39.638000000000005  L 20.29 39.699999999999996  L 20.29 39.757999999999996  C 20.412 39.788  20.529999999999998 39.815999999999995  20.65 39.815999999999995  C 20.778 39.815999999999995  20.919999999999998 39.846000000000004  21.067999999999998 39.846000000000004  C 21.195999999999998 39.878  21.322 39.888  21.447999999999997 39.888  L 22.653999999999996 39.888  C 23.161999999999995 39.888  23.681999999999995 39.858  24.223999999999997 39.768  C 24.763999999999996 39.686  25.323999999999998 39.620000000000005  25.885999999999996 39.508  C 26.454 39.386  26.973999999999997 39.256  27.46999999999999 39.09  C 27.961999999999996 38.938  28.442 38.76000000000001  28.913999999999994 38.58200000000001  C 29.181999999999995 38.492000000000004  29.42199999999999 38.37200000000001  29.629999999999995 38.28200000000001  C 29.867999999999995 38.162000000000006  30.08 38.04400000000001  30.317999999999994 37.92200000000001  L 30.883999999999993 37.596000000000004  C 31.093999999999994 37.472  31.333999999999996 37.32600000000001  31.543999999999997 37.178000000000004  C 31.871999999999993 36.898  32.169999999999995 36.550000000000004  32.46999999999999 36.16000000000001  C 32.797999999999995 35.772000000000006  32.94799999999999 35.32400000000001  32.94799999999999 34.83400000000001  C 32.94799999999999 34.580000000000005  32.916 34.35600000000001  32.827999999999996 34.146  C 32.767999999999994 33.93600000000001  32.647999999999996 33.758  32.467999999999996 33.60600000000001  C 32.31999999999999 33.458  32.13999999999999 33.30800000000001  31.959999999999997 33.188  C 31.78 33.06800000000001  31.571999999999996 32.95000000000001  31.302 32.86000000000001  C 30.793999999999997 32.68000000000001  30.256 32.532000000000004  29.685999999999993 32.47200000000001  C 29.149999999999995 32.394000000000005  28.669999999999995 32.352000000000004  28.223999999999997 32.352000000000004  C 28.073999999999998 32.32000000000001  27.925999999999995 32.32000000000001  27.745999999999995 32.32000000000001  L 27.295999999999992 32.32000000000001  C 26.355999999999995 32.32000000000001  25.419999999999995 32.390000000000015  24.485999999999997 32.530000000000015  C 23.549999999999997 32.67800000000002  22.631999999999998 32.85800000000002  21.726 33.128000000000014  C 21.218 33.24800000000001  20.726 33.39600000000001  20.226 33.57600000000001  C 19.718 33.784000000000006  19.194 33.96400000000001  18.634 34.20200000000001  C 18.198 34.38200000000001  17.746 34.562000000000005  17.276 34.80000000000001  L 15.782 35.578  L 15.692 35.63800000000001  L 11.562000000000001 18.516000000000016  L 11.382000000000001 18.604000000000017  L 11.194 18.694000000000013  C 10.190000000000001 19.140000000000015  9.208 19.590000000000014  8.242 20.098000000000013  C 7.266 20.606000000000016  6.316000000000001 21.11400000000001  5.3820000000000014 21.652000000000015  L 5.284000000000002 21.71000000000001  L 0.092 9.655999999999999  C 0.092 9.623999999999999  0.10600000000000001 9.611999999999998  0.14 9.597999999999999  L 0.37 9.431999999999999  C 0.43199999999999994 9.401999999999997  0.496 9.36  0.562 9.312  C 0.6200000000000001 9.267999999999999  0.668 9.229999999999997  0.7020000000000001 9.19  C 0.7300000000000001 9.19  0.754 9.19  0.768 9.173999999999998  L 0.792 9.173999999999998  C 1.01 9.051999999999998  1.242 8.933999999999997  1.472 8.785999999999998  L 2.2 8.337999999999997  C 2.632 8.1  3.08 7.829999999999998  3.5280000000000005 7.589999999999998  C 4.008000000000001 7.351999999999998  4.426 7.081999999999998  4.876 6.843999999999999  C 5.800000000000001 6.367999999999999  6.726000000000001 5.917999999999999  7.652000000000001 5.499999999999999  C 8.61 5.049999999999999  9.566 4.632  10.492 4.273999999999999  C 11.508000000000001 3.8859999999999997  12.494 3.5279999999999996  13.48 3.2  C 14.466000000000001 2.8400000000000003  15.482 2.5120000000000005  16.526 2.242  L 16.618 2.1800000000000006  L 16.618 2.2720000000000007  C 16.767999999999997 2.898  16.977999999999998 3.468  17.305999999999997 4.0360000000000005  C 17.633999999999997 4.571999999999999  18.023999999999997 5.05  18.47 5.5  C 19.038 5.976  19.666 6.368  20.381999999999998 6.664  C 21.099999999999998 6.933999999999998  21.845999999999997 7.081999999999999  22.592 7.081999999999999  C 22.683999999999997 7.081999999999999  22.772 7.054  22.862 7.054  C 22.936 7.021999999999999  23.022 7.021999999999999  23.113999999999997 7.021999999999999  C 23.862 6.962000000000001  24.592 6.752  25.295999999999996 6.394  C 25.995999999999995 6.034000000000001  26.611999999999995 5.59  27.139999999999993 5.018000000000001  C 27.737999999999996 4.362000000000001  28.185999999999993 3.6160000000000014  28.426000000000002 2.7780000000000014  C 28.695999999999998 1.942000000000002  28.785999999999998 1.0460000000000018  28.634 0.1480000000000023  L 28.723999999999997 0.11800000000000233  L 30.755999999999997 0.030000000000002348  C 31.446000000000005 0  32.102 0  32.79 0  L 34.076 0  C 35.182 0.031999999999999994  36.258 0.08999999999999997  37.334 0.14799999999999996  C 38.408 0.20999999999999994  39.488 0.32799999999999985  40.56 0.4479999999999998  C 41.604 0.5679999999999998  42.620000000000005 0.7179999999999997  43.636 0.8959999999999996  C 44.656000000000006 1.0759999999999996  45.642 1.2839999999999994  46.658 1.5539999999999994  L 46.748000000000005 1.5839999999999994  L 46.926 1.6439999999999995  L 47.286 1.7339999999999995  C 47.406 1.7639999999999996  47.526 1.7919999999999994  47.614000000000004 1.8519999999999992  L 47.646 1.8519999999999992  C 47.676 1.8519999999999992  47.706 1.8839999999999995  47.736000000000004 1.8839999999999995  L 47.794000000000004 1.9139999999999993  Z " fill-rule="evenodd" />
    </mask>
  </defs>
  <g>
    <path d="M 47.794000000000004 1.9139999999999993  L 47.72 1.9039999999999995  C 47.778 1.9039999999999995  47.832 1.9119999999999993  47.86 1.9259999999999993  C 47.89 1.9439999999999995  47.906 1.9799999999999995  47.906 2.0479999999999996  L 45.38 14.351999999999997  L 45.38 14.409999999999997  L 45.262 14.409999999999997  C 45.244 14.409999999999997  45.172 14.409999999999997  45.054 14.377999999999997  L 44.966 14.377999999999997  C 44.802 14.349999999999994  44.666000000000004 14.321999999999997  44.536 14.289999999999996  C 44.410000000000004 14.259999999999996  44.268 14.259999999999996  44.118 14.259999999999996  C 43.024 14.079999999999998  41.948 13.931999999999999  40.892 13.809999999999999  C 39.826 13.689999999999998  38.766000000000005 13.601999999999997  37.704 13.54  L 36.956 29.261999999999993  L 36.818000000000005 29.02199999999999  C 36.818000000000005 28.98999999999999  36.78600000000001 28.98999999999999  36.78600000000001 28.961999999999996  L 36.75600000000001 28.929999999999993  C 36.72400000000001 28.929999999999993  36.69800000000001 28.929999999999993  36.668000000000006 28.901999999999994  C 36.63600000000001 28.869999999999994  36.63600000000001 28.842  36.63600000000001 28.811999999999998  C 36.57600000000001 28.779999999999994  36.51600000000001 28.749999999999996  36.48800000000001 28.689999999999998  C 36.45600000000001 28.659999999999993  36.39600000000001 28.599999999999994  36.33800000000001 28.567999999999998  C 36.15800000000001 28.419999999999998  35.97800000000001 28.272  35.77000000000001 28.121999999999996  C 35.53200000000001 27.971999999999994  35.32200000000001 27.821999999999992  35.11200000000001 27.701999999999995  L 34.75400000000001 27.52399999999999  L 34.42600000000001 27.343999999999994  C 34.39400000000001 27.343999999999994  34.36600000000001 27.343999999999994  34.336000000000006 27.31199999999999  L 34.306000000000004 27.25399999999999  L 34.99400000000001 10.847999999999999  L 35.230000000000004 10.847999999999999  C 35.470000000000006 10.847999999999999  35.74 10.847999999999999  36.010000000000005 10.876  C 36.278000000000006 10.908000000000001  36.57600000000001 10.908000000000001  36.846000000000004 10.908000000000001  L 38.49 10.998  C 39.028 11.030000000000001  39.564 11.088  40.102000000000004 11.148  L 40.940000000000005 11.235999999999999  L 41.748000000000005 11.325999999999999  L 41.93000000000001 11.325999999999999  C 42.00000000000001 11.325999999999999  42.11000000000001 11.357999999999999  42.226000000000006 11.383999999999999  C 42.37800000000001 11.415999999999999  42.556000000000004 11.443999999999999  42.73400000000001 11.443999999999999  C 42.91600000000001 11.475999999999999  43.06400000000001 11.475999999999999  43.15400000000001 11.536  L 44.64800000000001 4.154000000000002  C 44.61800000000001 4.154000000000002  44.57600000000001 4.154000000000002  44.51600000000001 4.124000000000002  L 44.27600000000001 4.032000000000002  C 43.23200000000001 3.8240000000000025  42.15400000000001 3.646000000000002  41.07600000000001 3.466000000000003  C 40.00200000000001 3.318000000000003  38.918000000000006 3.1960000000000033  37.82000000000001 3.1080000000000028  C 36.98400000000001 3.0160000000000027  36.12400000000001 2.958000000000003  35.25000000000001 2.9280000000000026  C 34.39800000000001 2.898000000000003  33.51800000000001 2.8680000000000025  32.650000000000006 2.8680000000000025  L 31.06600000000001 2.8680000000000025  C 31.06600000000001 2.9280000000000026  31.06600000000001 2.9900000000000024  31.036 3.0480000000000027  L 30.946000000000005 3.344000000000003  L 30.860000000000007 3.624000000000002  C 30.828000000000003 3.8020000000000023  30.77000000000001 4.012000000000002  30.688000000000002 4.192000000000001  C 30.606000000000005 4.400000000000002  30.540000000000006 4.578000000000001  30.480000000000004 4.758000000000002  C 30.28600000000001 5.118000000000001  30.092000000000006 5.4460000000000015  29.888000000000005 5.744000000000001  C 29.684000000000008 6.074000000000002  29.47600000000001 6.370000000000001  29.260000000000005 6.700000000000001  C 28.76000000000001 7.300000000000001  28.198000000000008 7.808000000000001  27.57200000000001 8.254000000000001  C 26.960000000000008 8.703999999999999  26.28600000000001 9.062  25.57000000000001 9.330000000000002  C 25.080000000000013 9.510000000000002  24.57200000000001 9.66  24.046000000000006 9.75  C 23.53800000000001 9.84  23.02000000000001 9.898  22.49400000000001 9.898  C 22.21200000000001 9.898  21.92600000000001 9.898  21.626000000000012 9.866  C 21.32600000000001 9.838  21.040000000000013 9.808  20.758000000000013 9.748000000000001  C 19.950000000000014 9.600000000000001  19.172000000000015 9.330000000000002  18.442000000000014 8.942  C 17.710000000000015 8.554000000000002  17.046000000000014 8.074000000000002  16.458000000000013 7.508000000000002  C 16.128000000000014 7.238000000000001  15.860000000000012 6.940000000000001  15.620000000000015 6.6400000000000015  C 15.400000000000013 6.3420000000000005  15.172000000000013 6.012000000000001  14.954000000000013 5.654000000000002  L 13.526000000000014 6.162000000000003  L 12.090000000000014 6.700000000000001  C 11.120000000000013 7.028000000000001  10.166000000000015 7.418000000000001  9.230000000000015 7.836000000000002  C 8.304000000000014 8.254000000000001  7.378000000000014 8.704000000000002  6.476000000000015 9.18  L 5.100000000000016 9.927999999999999  C 4.646000000000016 10.196  4.188000000000016 10.436  3.7200000000000157 10.675999999999998  L 3.7200000000000157 10.703999999999999  C 3.7200000000000157 10.735999999999999  3.7000000000000153 10.735999999999999  3.6680000000000157 10.735999999999999  L 3.492000000000016 10.823999999999998  L 3.418000000000016 10.881999999999998  L 6.526 17.699999999999992  L 6.922 17.48999999999999  C 7.042 17.429999999999993  7.1899999999999995 17.339999999999996  7.343999999999999 17.27999999999999  C 8.315999999999999 16.771999999999995  9.302 16.32399999999999  10.303999999999998 15.875999999999994  C 11.296 15.457999999999995  12.303999999999998 15.039999999999992  13.291999999999998 14.651999999999994  L 13.379999999999997 14.651999999999994  L 17.483999999999998 31.113999999999987  C 18.142 30.82999999999999  18.755999999999997 30.587999999999987  19.331999999999997 30.38799999999999  C 19.919999999999998 30.18399999999999  20.465999999999998 30.005999999999986  21.005999999999997 29.849999999999987  C 22.033999999999995 29.56799999999999  23.097999999999995 29.35599999999999  24.187999999999995 29.21599999999999  C 25.279999999999994 29.087999999999987  26.371999999999993 29.007999999999992  27.465999999999994 29.007999999999992  C 28.031999999999993 29.007999999999992  28.599999999999994 29.03999999999999  29.169999999999995 29.087999999999987  C 29.709999999999994 29.14599999999999  30.215999999999994 29.20599999999999  30.693999999999996 29.295999999999985  C 31.261999999999997 29.417999999999985  31.799999999999997 29.595999999999986  32.30799999999999 29.77599999999999  C 32.785999999999994 29.983999999999988  33.233999999999995 30.19199999999999  33.62199999999999 30.489999999999988  C 34.071999999999996 30.789999999999985  34.459999999999994 31.117999999999988  34.78799999999999 31.50799999999999  C 35.08599999999999 31.895999999999987  35.35599999999999 32.31399999999998  35.53599999999999 32.76399999999999  C 35.713999999999984 33.23999999999998  35.80599999999999 33.71999999999999  35.83399999999999 34.25799999999999  C 35.83399999999999 34.795999999999985  35.77399999999999 35.301999999999985  35.65399999999999 35.78199999999998  C 35.59399999999999 36.04999999999998  35.505999999999986 36.289999999999985  35.41399999999999 36.49799999999998  C 35.29399999999999 36.73799999999999  35.17599999999999 36.97399999999999  35.027999999999984 37.18599999999999  C 35.027999999999984 37.21599999999999  35.027999999999984 37.245999999999995  34.99799999999998 37.245999999999995  C 34.96599999999999 37.245999999999995  34.96599999999999 37.275999999999996  34.96599999999999 37.30399999999999  L 34.87599999999998 37.39399999999999  C 34.84599999999998 37.424  34.84599999999998 37.45399999999999  34.84599999999998 37.483999999999995  C 34.84599999999998 37.514  34.84599999999998 37.542  34.87599999999998 37.571999999999996  L 34.935999999999986 37.696  L 34.935999999999986 37.754000000000005  L 34.96599999999999 37.812000000000005  L 35.14599999999999 38.202  C 35.17599999999999 38.32000000000001  35.203999999999986 38.47  35.203999999999986 38.586  C 35.325999999999986 39.094  35.353999999999985 39.60600000000001  35.29399999999999 40.14  C 35.23399999999999 40.71  35.11399999999999 41.248  34.93599999999999 41.756  C 34.605999999999995 42.62400000000001  34.09799999999999 43.370000000000005  33.40999999999999 44.054  C 32.69599999999999 44.744  31.79599999999999 45.342  30.721999999999994 45.878  C 29.88199999999999 46.328  28.95599999999999 46.686  27.971999999999987 46.984  C 26.95599999999999 47.282000000000004  25.84999999999999 47.550000000000004  24.623999999999988 47.762  C 24.32399999999999 47.822  24.05599999999999 47.882  23.787999999999993 47.914  L 23.009999999999994 47.944  L 22.503999999999994 48  L 22.293999999999993 45.164  L 22.293999999999993 45.132000000000005  L 22.383999999999993 45.132000000000005  L 22.443999999999992 45.102000000000004  L 22.74199999999999 45.102000000000004  L 22.86199999999999 45.010000000000005  L 23.22199999999999 45.010000000000005  C 23.34199999999999 45.010000000000005  23.42999999999999 44.980000000000004  23.51999999999999 44.980000000000004  C 24.085999999999988 44.89  24.62599999999999 44.800000000000004  25.13399999999999 44.68400000000001  C 25.67399999999999 44.56  26.17999999999999 44.444  26.71799999999999 44.294000000000004  C 27.255999999999986 44.146  27.761999999999986 43.996  28.24199999999999 43.816  C 28.71999999999999 43.67  29.169999999999995 43.458000000000006  29.61799999999999 43.25  C 30.12599999999999 42.98  30.545999999999992 42.712  30.90399999999999 42.414  C 31.263999999999996 42.116  31.561999999999998 41.814  31.799999999999994 41.516  C 31.94999999999999 41.336  32.09799999999999 41.129999999999995  32.18999999999999 40.92  C 32.27799999999999 40.712  32.337999999999994 40.5  32.36599999999999 40.262  L 32.36599999999999 39.812  L 32.12799999999999 39.992  C 32.09799999999999 40.022000000000006  32.03799999999999 40.05  31.979999999999997 40.08  L 31.772 40.174  C 31.351999999999997 40.44200000000001  30.903999999999996 40.647999999999996  30.425999999999995 40.86  C 29.949999999999996 41.068  29.43999999999999 41.278000000000006  28.901999999999994 41.458  C 28.39399999999999 41.638  27.885999999999996 41.816  27.347999999999992 41.936  C 26.807999999999993 42.08200000000001  26.271999999999995 42.206  25.763999999999996 42.294  C 25.195999999999998 42.384  24.656 42.474  24.121999999999993 42.532  C 23.581999999999997 42.593999999999994  23.045999999999996 42.653999999999996  22.507999999999996 42.684  L 22.207999999999995 42.684  C 21.699999999999996 42.684  21.221999999999994 42.684  20.805999999999994 42.623999999999995  C 20.355999999999995 42.593999999999994  19.965999999999994 42.501999999999995  19.579999999999995 42.416  C 19.013999999999996 42.266  18.533999999999995 42.053999999999995  18.115999999999996 41.788  C 17.697999999999997 41.518  17.399999999999995 41.19200000000001  17.219999999999995 40.772000000000006  C 17.011999999999997 40.412  16.891999999999996 39.994  16.921999999999997 39.516000000000005  C 16.921999999999997 39.065999999999995  17.041999999999998 38.62  17.251999999999995 38.204  C 17.459999999999994 37.81400000000001  17.759999999999994 37.456  18.117999999999995 37.126000000000005  C 18.477999999999994 36.798  18.923999999999996 36.5  19.431999999999995 36.23  C 19.851999999999997 36.022  20.299999999999994 35.812  20.807999999999996 35.662000000000006  C 21.283999999999995 35.513999999999996  21.823999999999998 35.334  22.389999999999997 35.184  C 22.839999999999996 35.066  23.347999999999995 34.946  23.883999999999997 34.855999999999995  C 24.423999999999996 34.768  24.991999999999997 34.70799999999999  25.617999999999995 34.675999999999995  C 25.825999999999993 34.646  26.065999999999995 34.618  26.303999999999995 34.618  C 26.545999999999992 34.587999999999994  26.784 34.587999999999994  27.053999999999995 34.587999999999994  L 27.947999999999993 34.587999999999994  L 28.84599999999999 34.675999999999995  C 29.113999999999994 34.70799999999999  29.381999999999998 34.736000000000004  29.64999999999999 34.797999999999995  C 29.919999999999995 34.855999999999995  30.15799999999999 34.888  30.39799999999999 34.946  C 30.547999999999995 34.976  30.69599999999999 35.036  30.81599999999999 35.068  L 31.145999999999987 35.186  L 31.173999999999992 35.186  C 31.20599999999999 35.186  31.23599999999999 35.217999999999996  31.23599999999999 35.217999999999996  L 31.26599999999999 35.24999999999999  L 31.353999999999992 35.30799999999999  L 31.295999999999992 35.366  C 31.02599999999999 35.994  30.549999999999997 36.502  29.801999999999992 36.86  C 29.053999999999988 37.25  28.545999999999992 37.488  28.21799999999999 37.57599999999999  L 28.189999999999994 37.57599999999999  C 28.159999999999997 37.546  28.13199999999999 37.517999999999994  28.119999999999994 37.517999999999994  L 27.251999999999995 37.517999999999994  C 26.976 37.517999999999994  26.705999999999996 37.517999999999994  26.43999999999999 37.548  C 26.169999999999995 37.578  25.912 37.578  25.661999999999995 37.605999999999995  C 25.103999999999996 37.666  24.55599999999999 37.758  24.025999999999996 37.846000000000004  C 23.489999999999995 37.937999999999995  22.993999999999996 38.084  22.533999999999995 38.236  C 22.243999999999996 38.324  21.975999999999996 38.414  21.725999999999996 38.532  C 21.477999999999994 38.622  21.249999999999996 38.714  21.025999999999996 38.83  C 20.899999999999995 38.89  20.787999999999997 38.952  20.675999999999995 39.010000000000005  C 20.567999999999994 39.068  20.467999999999996 39.129999999999995  20.377999999999997 39.192  C 20.319999999999997 39.25  20.229999999999997 39.31  20.139999999999997 39.37  C 20.049999999999997 39.42999999999999  19.967999999999996 39.518  19.901999999999997 39.61  C 19.929999999999996 39.61  19.979999999999997 39.61  20.022 39.638000000000005  L 20.29 39.699999999999996  L 20.29 39.757999999999996  C 20.412 39.788  20.529999999999998 39.815999999999995  20.65 39.815999999999995  C 20.778 39.815999999999995  20.919999999999998 39.846000000000004  21.067999999999998 39.846000000000004  C 21.195999999999998 39.878  21.322 39.888  21.447999999999997 39.888  L 22.653999999999996 39.888  C 23.161999999999995 39.888  23.681999999999995 39.858  24.223999999999997 39.768  C 24.763999999999996 39.686  25.323999999999998 39.620000000000005  25.885999999999996 39.508  C 26.454 39.386  26.973999999999997 39.256  27.46999999999999 39.09  C 27.961999999999996 38.938  28.442 38.76000000000001  28.913999999999994 38.58200000000001  C 29.181999999999995 38.492000000000004  29.42199999999999 38.37200000000001  29.629999999999995 38.28200000000001  C 29.867999999999995 38.162000000000006  30.08 38.04400000000001  30.317999999999994 37.92200000000001  L 30.883999999999993 37.596000000000004  C 31.093999999999994 37.472  31.333999999999996 37.32600000000001  31.543999999999997 37.178000000000004  C 31.871999999999993 36.898  32.169999999999995 36.550000000000004  32.46999999999999 36.16000000000001  C 32.797999999999995 35.772000000000006  32.94799999999999 35.32400000000001  32.94799999999999 34.83400000000001  C 32.94799999999999 34.580000000000005  32.916 34.35600000000001  32.827999999999996 34.146  C 32.767999999999994 33.93600000000001  32.647999999999996 33.758  32.467999999999996 33.60600000000001  C 32.31999999999999 33.458  32.13999999999999 33.30800000000001  31.959999999999997 33.188  C 31.78 33.06800000000001  31.571999999999996 32.95000000000001  31.302 32.86000000000001  C 30.793999999999997 32.68000000000001  30.256 32.532000000000004  29.685999999999993 32.47200000000001  C 29.149999999999995 32.394000000000005  28.669999999999995 32.352000000000004  28.223999999999997 32.352000000000004  C 28.073999999999998 32.32000000000001  27.925999999999995 32.32000000000001  27.745999999999995 32.32000000000001  L 27.295999999999992 32.32000000000001  C 26.355999999999995 32.32000000000001  25.419999999999995 32.390000000000015  24.485999999999997 32.530000000000015  C 23.549999999999997 32.67800000000002  22.631999999999998 32.85800000000002  21.726 33.128000000000014  C 21.218 33.24800000000001  20.726 33.39600000000001  20.226 33.57600000000001  C 19.718 33.784000000000006  19.194 33.96400000000001  18.634 34.20200000000001  C 18.198 34.38200000000001  17.746 34.562000000000005  17.276 34.80000000000001  L 15.782 35.578  L 15.692 35.63800000000001  L 11.562000000000001 18.516000000000016  L 11.382000000000001 18.604000000000017  L 11.194 18.694000000000013  C 10.190000000000001 19.140000000000015  9.208 19.590000000000014  8.242 20.098000000000013  C 7.266 20.606000000000016  6.316000000000001 21.11400000000001  5.3820000000000014 21.652000000000015  L 5.284000000000002 21.71000000000001  L 0.092 9.655999999999999  C 0.092 9.623999999999999  0.10600000000000001 9.611999999999998  0.14 9.597999999999999  L 0.37 9.431999999999999  C 0.43199999999999994 9.401999999999997  0.496 9.36  0.562 9.312  C 0.6200000000000001 9.267999999999999  0.668 9.229999999999997  0.7020000000000001 9.19  C 0.7300000000000001 9.19  0.754 9.19  0.768 9.173999999999998  L 0.792 9.173999999999998  C 1.01 9.051999999999998  1.242 8.933999999999997  1.472 8.785999999999998  L 2.2 8.337999999999997  C 2.632 8.1  3.08 7.829999999999998  3.5280000000000005 7.589999999999998  C 4.008000000000001 7.351999999999998  4.426 7.081999999999998  4.876 6.843999999999999  C 5.800000000000001 6.367999999999999  6.726000000000001 5.917999999999999  7.652000000000001 5.499999999999999  C 8.61 5.049999999999999  9.566 4.632  10.492 4.273999999999999  C 11.508000000000001 3.8859999999999997  12.494 3.5279999999999996  13.48 3.2  C 14.466000000000001 2.8400000000000003  15.482 2.5120000000000005  16.526 2.242  L 16.618 2.1800000000000006  L 16.618 2.2720000000000007  C 16.767999999999997 2.898  16.977999999999998 3.468  17.305999999999997 4.0360000000000005  C 17.633999999999997 4.571999999999999  18.023999999999997 5.05  18.47 5.5  C 19.038 5.976  19.666 6.368  20.381999999999998 6.664  C 21.099999999999998 6.933999999999998  21.845999999999997 7.081999999999999  22.592 7.081999999999999  C 22.683999999999997 7.081999999999999  22.772 7.054  22.862 7.054  C 22.936 7.021999999999999  23.022 7.021999999999999  23.113999999999997 7.021999999999999  C 23.862 6.962000000000001  24.592 6.752  25.295999999999996 6.394  C 25.995999999999995 6.034000000000001  26.611999999999995 5.59  27.139999999999993 5.018000000000001  C 27.737999999999996 4.362000000000001  28.185999999999993 3.6160000000000014  28.426000000000002 2.7780000000000014  C 28.695999999999998 1.942000000000002  28.785999999999998 1.0460000000000018  28.634 0.1480000000000023  L 28.723999999999997 0.11800000000000233  L 30.755999999999997 0.030000000000002348  C 31.446000000000005 0  32.102 0  32.79 0  L 34.076 0  C 35.182 0.031999999999999994  36.258 0.08999999999999997  37.334 0.14799999999999996  C 38.408 0.20999999999999994  39.488 0.32799999999999985  40.56 0.4479999999999998  C 41.604 0.5679999999999998  42.620000000000005 0.7179999999999997  43.636 0.8959999999999996  C 44.656000000000006 1.0759999999999996  45.642 1.2839999999999994  46.658 1.5539999999999994  L 46.748000000000005 1.5839999999999994  L 46.926 1.6439999999999995  L 47.286 1.7339999999999995  C 47.406 1.7639999999999996  47.526 1.7919999999999994  47.614000000000004 1.8519999999999992  L 47.646 1.8519999999999992  C 47.676 1.8519999999999992  47.706 1.8839999999999995  47.736000000000004 1.8839999999999995  L 47.794000000000004 1.9139999999999993  Z " fill-rule="nonzero" fill="rgba(57, 172, 230, 1)" stroke="none" class="fill" />
    <path d="M 47.794000000000004 1.9139999999999993  L 47.72 1.9039999999999995  C 47.778 1.9039999999999995  47.832 1.9119999999999993  47.86 1.9259999999999993  C 47.89 1.9439999999999995  47.906 1.9799999999999995  47.906 2.0479999999999996  L 45.38 14.351999999999997  L 45.38 14.409999999999997  L 45.262 14.409999999999997  C 45.244 14.409999999999997  45.172 14.409999999999997  45.054 14.377999999999997  L 44.966 14.377999999999997  C 44.802 14.349999999999994  44.666000000000004 14.321999999999997  44.536 14.289999999999996  C 44.410000000000004 14.259999999999996  44.268 14.259999999999996  44.118 14.259999999999996  C 43.024 14.079999999999998  41.948 13.931999999999999  40.892 13.809999999999999  C 39.826 13.689999999999998  38.766000000000005 13.601999999999997  37.704 13.54  L 36.956 29.261999999999993  L 36.818000000000005 29.02199999999999  C 36.818000000000005 28.98999999999999  36.78600000000001 28.98999999999999  36.78600000000001 28.961999999999996  L 36.75600000000001 28.929999999999993  C 36.72400000000001 28.929999999999993  36.69800000000001 28.929999999999993  36.668000000000006 28.901999999999994  C 36.63600000000001 28.869999999999994  36.63600000000001 28.842  36.63600000000001 28.811999999999998  C 36.57600000000001 28.779999999999994  36.51600000000001 28.749999999999996  36.48800000000001 28.689999999999998  C 36.45600000000001 28.659999999999993  36.39600000000001 28.599999999999994  36.33800000000001 28.567999999999998  C 36.15800000000001 28.419999999999998  35.97800000000001 28.272  35.77000000000001 28.121999999999996  C 35.53200000000001 27.971999999999994  35.32200000000001 27.821999999999992  35.11200000000001 27.701999999999995  L 34.75400000000001 27.52399999999999  L 34.42600000000001 27.343999999999994  C 34.39400000000001 27.343999999999994  34.36600000000001 27.343999999999994  34.336000000000006 27.31199999999999  L 34.306000000000004 27.25399999999999  L 34.99400000000001 10.847999999999999  L 35.230000000000004 10.847999999999999  C 35.470000000000006 10.847999999999999  35.74 10.847999999999999  36.010000000000005 10.876  C 36.278000000000006 10.908000000000001  36.57600000000001 10.908000000000001  36.846000000000004 10.908000000000001  L 38.49 10.998  C 39.028 11.030000000000001  39.564 11.088  40.102000000000004 11.148  L 40.940000000000005 11.235999999999999  L 41.748000000000005 11.325999999999999  L 41.93000000000001 11.325999999999999  C 42.00000000000001 11.325999999999999  42.11000000000001 11.357999999999999  42.226000000000006 11.383999999999999  C 42.37800000000001 11.415999999999999  42.556000000000004 11.443999999999999  42.73400000000001 11.443999999999999  C 42.91600000000001 11.475999999999999  43.06400000000001 11.475999999999999  43.15400000000001 11.536  L 44.64800000000001 4.154000000000002  C 44.61800000000001 4.154000000000002  44.57600000000001 4.154000000000002  44.51600000000001 4.124000000000002  L 44.27600000000001 4.032000000000002  C 43.23200000000001 3.8240000000000025  42.15400000000001 3.646000000000002  41.07600000000001 3.466000000000003  C 40.00200000000001 3.318000000000003  38.918000000000006 3.1960000000000033  37.82000000000001 3.1080000000000028  C 36.98400000000001 3.0160000000000027  36.12400000000001 2.958000000000003  35.25000000000001 2.9280000000000026  C 34.39800000000001 2.898000000000003  33.51800000000001 2.8680000000000025  32.650000000000006 2.8680000000000025  L 31.06600000000001 2.8680000000000025  C 31.06600000000001 2.9280000000000026  31.06600000000001 2.9900000000000024  31.036 3.0480000000000027  L 30.946000000000005 3.344000000000003  L 30.860000000000007 3.624000000000002  C 30.828000000000003 3.8020000000000023  30.77000000000001 4.012000000000002  30.688000000000002 4.192000000000001  C 30.606000000000005 4.400000000000002  30.540000000000006 4.578000000000001  30.480000000000004 4.758000000000002  C 30.28600000000001 5.118000000000001  30.092000000000006 5.4460000000000015  29.888000000000005 5.744000000000001  C 29.684000000000008 6.074000000000002  29.47600000000001 6.370000000000001  29.260000000000005 6.700000000000001  C 28.76000000000001 7.300000000000001  28.198000000000008 7.808000000000001  27.57200000000001 8.254000000000001  C 26.960000000000008 8.703999999999999  26.28600000000001 9.062  25.57000000000001 9.330000000000002  C 25.080000000000013 9.510000000000002  24.57200000000001 9.66  24.046000000000006 9.75  C 23.53800000000001 9.84  23.02000000000001 9.898  22.49400000000001 9.898  C 22.21200000000001 9.898  21.92600000000001 9.898  21.626000000000012 9.866  C 21.32600000000001 9.838  21.040000000000013 9.808  20.758000000000013 9.748000000000001  C 19.950000000000014 9.600000000000001  19.172000000000015 9.330000000000002  18.442000000000014 8.942  C 17.710000000000015 8.554000000000002  17.046000000000014 8.074000000000002  16.458000000000013 7.508000000000002  C 16.128000000000014 7.238000000000001  15.860000000000012 6.940000000000001  15.620000000000015 6.6400000000000015  C 15.400000000000013 6.3420000000000005  15.172000000000013 6.012000000000001  14.954000000000013 5.654000000000002  L 13.526000000000014 6.162000000000003  L 12.090000000000014 6.700000000000001  C 11.120000000000013 7.028000000000001  10.166000000000015 7.418000000000001  9.230000000000015 7.836000000000002  C 8.304000000000014 8.254000000000001  7.378000000000014 8.704000000000002  6.476000000000015 9.18  L 5.100000000000016 9.927999999999999  C 4.646000000000016 10.196  4.188000000000016 10.436  3.7200000000000157 10.675999999999998  L 3.7200000000000157 10.703999999999999  C 3.7200000000000157 10.735999999999999  3.7000000000000153 10.735999999999999  3.6680000000000157 10.735999999999999  L 3.492000000000016 10.823999999999998  L 3.418000000000016 10.881999999999998  L 6.526 17.699999999999992  L 6.922 17.48999999999999  C 7.042 17.429999999999993  7.1899999999999995 17.339999999999996  7.343999999999999 17.27999999999999  C 8.315999999999999 16.771999999999995  9.302 16.32399999999999  10.303999999999998 15.875999999999994  C 11.296 15.457999999999995  12.303999999999998 15.039999999999992  13.291999999999998 14.651999999999994  L 13.379999999999997 14.651999999999994  L 17.483999999999998 31.113999999999987  C 18.142 30.82999999999999  18.755999999999997 30.587999999999987  19.331999999999997 30.38799999999999  C 19.919999999999998 30.18399999999999  20.465999999999998 30.005999999999986  21.005999999999997 29.849999999999987  C 22.033999999999995 29.56799999999999  23.097999999999995 29.35599999999999  24.187999999999995 29.21599999999999  C 25.279999999999994 29.087999999999987  26.371999999999993 29.007999999999992  27.465999999999994 29.007999999999992  C 28.031999999999993 29.007999999999992  28.599999999999994 29.03999999999999  29.169999999999995 29.087999999999987  C 29.709999999999994 29.14599999999999  30.215999999999994 29.20599999999999  30.693999999999996 29.295999999999985  C 31.261999999999997 29.417999999999985  31.799999999999997 29.595999999999986  32.30799999999999 29.77599999999999  C 32.785999999999994 29.983999999999988  33.233999999999995 30.19199999999999  33.62199999999999 30.489999999999988  C 34.071999999999996 30.789999999999985  34.459999999999994 31.117999999999988  34.78799999999999 31.50799999999999  C 35.08599999999999 31.895999999999987  35.35599999999999 32.31399999999998  35.53599999999999 32.76399999999999  C 35.713999999999984 33.23999999999998  35.80599999999999 33.71999999999999  35.83399999999999 34.25799999999999  C 35.83399999999999 34.795999999999985  35.77399999999999 35.301999999999985  35.65399999999999 35.78199999999998  C 35.59399999999999 36.04999999999998  35.505999999999986 36.289999999999985  35.41399999999999 36.49799999999998  C 35.29399999999999 36.73799999999999  35.17599999999999 36.97399999999999  35.027999999999984 37.18599999999999  C 35.027999999999984 37.21599999999999  35.027999999999984 37.245999999999995  34.99799999999998 37.245999999999995  C 34.96599999999999 37.245999999999995  34.96599999999999 37.275999999999996  34.96599999999999 37.30399999999999  L 34.87599999999998 37.39399999999999  C 34.84599999999998 37.424  34.84599999999998 37.45399999999999  34.84599999999998 37.483999999999995  C 34.84599999999998 37.514  34.84599999999998 37.542  34.87599999999998 37.571999999999996  L 34.935999999999986 37.696  L 34.935999999999986 37.754000000000005  L 34.96599999999999 37.812000000000005  L 35.14599999999999 38.202  C 35.17599999999999 38.32000000000001  35.203999999999986 38.47  35.203999999999986 38.586  C 35.325999999999986 39.094  35.353999999999985 39.60600000000001  35.29399999999999 40.14  C 35.23399999999999 40.71  35.11399999999999 41.248  34.93599999999999 41.756  C 34.605999999999995 42.62400000000001  34.09799999999999 43.370000000000005  33.40999999999999 44.054  C 32.69599999999999 44.744  31.79599999999999 45.342  30.721999999999994 45.878  C 29.88199999999999 46.328  28.95599999999999 46.686  27.971999999999987 46.984  C 26.95599999999999 47.282000000000004  25.84999999999999 47.550000000000004  24.623999999999988 47.762  C 24.32399999999999 47.822  24.05599999999999 47.882  23.787999999999993 47.914  L 23.009999999999994 47.944  L 22.503999999999994 48  L 22.293999999999993 45.164  L 22.293999999999993 45.132000000000005  L 22.383999999999993 45.132000000000005  L 22.443999999999992 45.102000000000004  L 22.74199999999999 45.102000000000004  L 22.86199999999999 45.010000000000005  L 23.22199999999999 45.010000000000005  C 23.34199999999999 45.010000000000005  23.42999999999999 44.980000000000004  23.51999999999999 44.980000000000004  C 24.085999999999988 44.89  24.62599999999999 44.800000000000004  25.13399999999999 44.68400000000001  C 25.67399999999999 44.56  26.17999999999999 44.444  26.71799999999999 44.294000000000004  C 27.255999999999986 44.146  27.761999999999986 43.996  28.24199999999999 43.816  C 28.71999999999999 43.67  29.169999999999995 43.458000000000006  29.61799999999999 43.25  C 30.12599999999999 42.98  30.545999999999992 42.712  30.90399999999999 42.414  C 31.263999999999996 42.116  31.561999999999998 41.814  31.799999999999994 41.516  C 31.94999999999999 41.336  32.09799999999999 41.129999999999995  32.18999999999999 40.92  C 32.27799999999999 40.712  32.337999999999994 40.5  32.36599999999999 40.262  L 32.36599999999999 39.812  L 32.12799999999999 39.992  C 32.09799999999999 40.022000000000006  32.03799999999999 40.05  31.979999999999997 40.08  L 31.772 40.174  C 31.351999999999997 40.44200000000001  30.903999999999996 40.647999999999996  30.425999999999995 40.86  C 29.949999999999996 41.068  29.43999999999999 41.278000000000006  28.901999999999994 41.458  C 28.39399999999999 41.638  27.885999999999996 41.816  27.347999999999992 41.936  C 26.807999999999993 42.08200000000001  26.271999999999995 42.206  25.763999999999996 42.294  C 25.195999999999998 42.384  24.656 42.474  24.121999999999993 42.532  C 23.581999999999997 42.593999999999994  23.045999999999996 42.653999999999996  22.507999999999996 42.684  L 22.207999999999995 42.684  C 21.699999999999996 42.684  21.221999999999994 42.684  20.805999999999994 42.623999999999995  C 20.355999999999995 42.593999999999994  19.965999999999994 42.501999999999995  19.579999999999995 42.416  C 19.013999999999996 42.266  18.533999999999995 42.053999999999995  18.115999999999996 41.788  C 17.697999999999997 41.518  17.399999999999995 41.19200000000001  17.219999999999995 40.772000000000006  C 17.011999999999997 40.412  16.891999999999996 39.994  16.921999999999997 39.516000000000005  C 16.921999999999997 39.065999999999995  17.041999999999998 38.62  17.251999999999995 38.204  C 17.459999999999994 37.81400000000001  17.759999999999994 37.456  18.117999999999995 37.126000000000005  C 18.477999999999994 36.798  18.923999999999996 36.5  19.431999999999995 36.23  C 19.851999999999997 36.022  20.299999999999994 35.812  20.807999999999996 35.662000000000006  C 21.283999999999995 35.513999999999996  21.823999999999998 35.334  22.389999999999997 35.184  C 22.839999999999996 35.066  23.347999999999995 34.946  23.883999999999997 34.855999999999995  C 24.423999999999996 34.768  24.991999999999997 34.70799999999999  25.617999999999995 34.675999999999995  C 25.825999999999993 34.646  26.065999999999995 34.618  26.303999999999995 34.618  C 26.545999999999992 34.587999999999994  26.784 34.587999999999994  27.053999999999995 34.587999999999994  L 27.947999999999993 34.587999999999994  L 28.84599999999999 34.675999999999995  C 29.113999999999994 34.70799999999999  29.381999999999998 34.736000000000004  29.64999999999999 34.797999999999995  C 29.919999999999995 34.855999999999995  30.15799999999999 34.888  30.39799999999999 34.946  C 30.547999999999995 34.976  30.69599999999999 35.036  30.81599999999999 35.068  L 31.145999999999987 35.186  L 31.173999999999992 35.186  C 31.20599999999999 35.186  31.23599999999999 35.217999999999996  31.23599999999999 35.217999999999996  L 31.26599999999999 35.24999999999999  L 31.353999999999992 35.30799999999999  L 31.295999999999992 35.366  C 31.02599999999999 35.994  30.549999999999997 36.502  29.801999999999992 36.86  C 29.053999999999988 37.25  28.545999999999992 37.488  28.21799999999999 37.57599999999999  L 28.189999999999994 37.57599999999999  C 28.159999999999997 37.546  28.13199999999999 37.517999999999994  28.119999999999994 37.517999999999994  L 27.251999999999995 37.517999999999994  C 26.976 37.517999999999994  26.705999999999996 37.517999999999994  26.43999999999999 37.548  C 26.169999999999995 37.578  25.912 37.578  25.661999999999995 37.605999999999995  C 25.103999999999996 37.666  24.55599999999999 37.758  24.025999999999996 37.846000000000004  C 23.489999999999995 37.937999999999995  22.993999999999996 38.084  22.533999999999995 38.236  C 22.243999999999996 38.324  21.975999999999996 38.414  21.725999999999996 38.532  C 21.477999999999994 38.622  21.249999999999996 38.714  21.025999999999996 38.83  C 20.899999999999995 38.89  20.787999999999997 38.952  20.675999999999995 39.010000000000005  C 20.567999999999994 39.068  20.467999999999996 39.129999999999995  20.377999999999997 39.192  C 20.319999999999997 39.25  20.229999999999997 39.31  20.139999999999997 39.37  C 20.049999999999997 39.42999999999999  19.967999999999996 39.518  19.901999999999997 39.61  C 19.929999999999996 39.61  19.979999999999997 39.61  20.022 39.638000000000005  L 20.29 39.699999999999996  L 20.29 39.757999999999996  C 20.412 39.788  20.529999999999998 39.815999999999995  20.65 39.815999999999995  C 20.778 39.815999999999995  20.919999999999998 39.846000000000004  21.067999999999998 39.846000000000004  C 21.195999999999998 39.878  21.322 39.888  21.447999999999997 39.888  L 22.653999999999996 39.888  C 23.161999999999995 39.888  23.681999999999995 39.858  24.223999999999997 39.768  C 24.763999999999996 39.686  25.323999999999998 39.620000000000005  25.885999999999996 39.508  C 26.454 39.386  26.973999999999997 39.256  27.46999999999999 39.09  C 27.961999999999996 38.938  28.442 38.76000000000001  28.913999999999994 38.58200000000001  C 29.181999999999995 38.492000000000004  29.42199999999999 38.37200000000001  29.629999999999995 38.28200000000001  C 29.867999999999995 38.162000000000006  30.08 38.04400000000001  30.317999999999994 37.92200000000001  L 30.883999999999993 37.596000000000004  C 31.093999999999994 37.472  31.333999999999996 37.32600000000001  31.543999999999997 37.178000000000004  C 31.871999999999993 36.898  32.169999999999995 36.550000000000004  32.46999999999999 36.16000000000001  C 32.797999999999995 35.772000000000006  32.94799999999999 35.32400000000001  32.94799999999999 34.83400000000001  C 32.94799999999999 34.580000000000005  32.916 34.35600000000001  32.827999999999996 34.146  C 32.767999999999994 33.93600000000001  32.647999999999996 33.758  32.467999999999996 33.60600000000001  C 32.31999999999999 33.458  32.13999999999999 33.30800000000001  31.959999999999997 33.188  C 31.78 33.06800000000001  31.571999999999996 32.95000000000001  31.302 32.86000000000001  C 30.793999999999997 32.68000000000001  30.256 32.532000000000004  29.685999999999993 32.47200000000001  C 29.149999999999995 32.394000000000005  28.669999999999995 32.352000000000004  28.223999999999997 32.352000000000004  C 28.073999999999998 32.32000000000001  27.925999999999995 32.32000000000001  27.745999999999995 32.32000000000001  L 27.295999999999992 32.32000000000001  C 26.355999999999995 32.32000000000001  25.419999999999995 32.390000000000015  24.485999999999997 32.530000000000015  C 23.549999999999997 32.67800000000002  22.631999999999998 32.85800000000002  21.726 33.128000000000014  C 21.218 33.24800000000001  20.726 33.39600000000001  20.226 33.57600000000001  C 19.718 33.784000000000006  19.194 33.96400000000001  18.634 34.20200000000001  C 18.198 34.38200000000001  17.746 34.562000000000005  17.276 34.80000000000001  L 15.782 35.578  L 15.692 35.63800000000001  L 11.562000000000001 18.516000000000016  L 11.382000000000001 18.604000000000017  L 11.194 18.694000000000013  C 10.190000000000001 19.140000000000015  9.208 19.590000000000014  8.242 20.098000000000013  C 7.266 20.606000000000016  6.316000000000001 21.11400000000001  5.3820000000000014 21.652000000000015  L 5.284000000000002 21.71000000000001  L 0.092 9.655999999999999  C 0.092 9.623999999999999  0.10600000000000001 9.611999999999998  0.14 9.597999999999999  L 0.37 9.431999999999999  C 0.43199999999999994 9.401999999999997  0.496 9.36  0.562 9.312  C 0.6200000000000001 9.267999999999999  0.668 9.229999999999997  0.7020000000000001 9.19  C 0.7300000000000001 9.19  0.754 9.19  0.768 9.173999999999998  L 0.792 9.173999999999998  C 1.01 9.051999999999998  1.242 8.933999999999997  1.472 8.785999999999998  L 2.2 8.337999999999997  C 2.632 8.1  3.08 7.829999999999998  3.5280000000000005 7.589999999999998  C 4.008000000000001 7.351999999999998  4.426 7.081999999999998  4.876 6.843999999999999  C 5.800000000000001 6.367999999999999  6.726000000000001 5.917999999999999  7.652000000000001 5.499999999999999  C 8.61 5.049999999999999  9.566 4.632  10.492 4.273999999999999  C 11.508000000000001 3.8859999999999997  12.494 3.5279999999999996  13.48 3.2  C 14.466000000000001 2.8400000000000003  15.482 2.5120000000000005  16.526 2.242  L 16.618 2.1800000000000006  L 16.618 2.2720000000000007  C 16.767999999999997 2.898  16.977999999999998 3.468  17.305999999999997 4.0360000000000005  C 17.633999999999997 4.571999999999999  18.023999999999997 5.05  18.47 5.5  C 19.038 5.976  19.666 6.368  20.381999999999998 6.664  C 21.099999999999998 6.933999999999998  21.845999999999997 7.081999999999999  22.592 7.081999999999999  C 22.683999999999997 7.081999999999999  22.772 7.054  22.862 7.054  C 22.936 7.021999999999999  23.022 7.021999999999999  23.113999999999997 7.021999999999999  C 23.862 6.962000000000001  24.592 6.752  25.295999999999996 6.394  C 25.995999999999995 6.034000000000001  26.611999999999995 5.59  27.139999999999993 5.018000000000001  C 27.737999999999996 4.362000000000001  28.185999999999993 3.6160000000000014  28.426000000000002 2.7780000000000014  C 28.695999999999998 1.942000000000002  28.785999999999998 1.0460000000000018  28.634 0.1480000000000023  L 28.723999999999997 0.11800000000000233  L 30.755999999999997 0.030000000000002348  C 31.446000000000005 0  32.102 0  32.79 0  L 34.076 0  C 35.182 0.031999999999999994  36.258 0.08999999999999997  37.334 0.14799999999999996  C 38.408 0.20999999999999994  39.488 0.32799999999999985  40.56 0.4479999999999998  C 41.604 0.5679999999999998  42.620000000000005 0.7179999999999997  43.636 0.8959999999999996  C 44.656000000000006 1.0759999999999996  45.642 1.2839999999999994  46.658 1.5539999999999994  L 46.748000000000005 1.5839999999999994  L 46.926 1.6439999999999995  L 47.286 1.7339999999999995  C 47.406 1.7639999999999996  47.526 1.7919999999999994  47.614000000000004 1.8519999999999992  L 47.646 1.8519999999999992  C 47.676 1.8519999999999992  47.706 1.8839999999999995  47.736000000000004 1.8839999999999995  L 47.794000000000004 1.9139999999999993  Z " stroke-width="0" stroke-dasharray="0" stroke="rgba(255, 255, 255, 0)" fill="none" class="stroke" mask="url(#Clip7460)" />
  </g>
</svg>