<?xml version="1.0" encoding="utf-8"?>
<svg version="1.1" xmlns:xlink="http://www.w3.org/1999/xlink" width="48px" height="48px" xmlns="http://www.w3.org/2000/svg">
  <defs>
    <pattern id="BGPattern" patternUnits="userSpaceOnUse" alignment="0 0" imageRepeat="None" />
    <mask fill="white" id="Clip2941">
      <path d="M 47.25 24  C 47.25 11.162500000000001  36.8375 0.75  24 0.75  C 11.162500000000001 0.75  0.75 11.162500000000001  0.75 24  C 0.75 36.8375  11.162500000000001 47.25  24 47.25  C 36.8375 47.25  47.25 36.8375  47.25 24  Z M 22 27.5  L 22 10.5  C 22 10.225000000000001  22.225 10  22.5 10  L 25.5 10  C 25.775 10  26 10.225000000000001  26 10.5  L 26 27.5  C 26 27.775  25.775 28  25.5 28  L 22.5 28  C 22.225 28  22 27.775  22 27.5  Z M 26.939384567073738 35  C 26.939384567073738 36.63333212871725  25.632991922066815 37.96666495590918  23.999999999999996 38  C 22.367008077933182 37.96666495590918  21.060615432926255 36.63333212871725  21.060615432926255 35  C 21.060615432926255 33.36666787128276  22.36700807793318 32.03333504409081  23.999999999999996 32  C 25.632991922066815 32.03333504409081  26.939384567073738 33.36666787128275  26.939384567073738 35  Z " fill-rule="evenodd" />
    </mask>
  </defs>
  <g transform="matrix(1 0 0 1 -4 -4 )">
    <path d="M 47.25 24  C 47.25 11.162500000000001  36.8375 0.75  24 0.75  C 11.162500000000001 0.75  0.75 11.162500000000001  0.75 24  C 0.75 36.8375  11.162500000000001 47.25  24 47.25  C 36.8375 47.25  47.25 36.8375  47.25 24  Z M 22 27.5  L 22 10.5  C 22 10.225000000000001  22.225 10  22.5 10  L 25.5 10  C 25.775 10  26 10.225000000000001  26 10.5  L 26 27.5  C 26 27.775  25.775 28  25.5 28  L 22.5 28  C 22.225 28  22 27.775  22 27.5  Z M 26.939384567073738 35  C 26.939384567073738 36.63333212871725  25.632991922066815 37.96666495590918  23.999999999999996 38  C 22.367008077933182 37.96666495590918  21.060615432926255 36.63333212871725  21.060615432926255 35  C 21.060615432926255 33.36666787128276  22.36700807793318 32.03333504409081  23.999999999999996 32  C 25.632991922066815 32.03333504409081  26.939384567073738 33.36666787128275  26.939384567073738 35  Z " fill-rule="nonzero" fill="rgba(230, 230, 230, 1)" stroke="none" transform="matrix(1 0 0 1 4 4 )" class="fill" />
    <path d="M 47.25 24  C 47.25 11.162500000000001  36.8375 0.75  24 0.75  C 11.162500000000001 0.75  0.75 11.162500000000001  0.75 24  C 0.75 36.8375  11.162500000000001 47.25  24 47.25  C 36.8375 47.25  47.25 36.8375  47.25 24  Z " stroke-width="0" stroke-dasharray="0" stroke="rgba(255, 255, 255, 0)" fill="none" transform="matrix(1 0 0 1 4 4 )" class="stroke" mask="url(#Clip2941)" />
    <path d="M 22 27.5  L 22 10.5  C 22 10.225000000000001  22.225 10  22.5 10  L 25.5 10  C 25.775 10  26 10.225000000000001  26 10.5  L 26 27.5  C 26 27.775  25.775 28  25.5 28  L 22.5 28  C 22.225 28  22 27.775  22 27.5  Z " stroke-width="0" stroke-dasharray="0" stroke="rgba(255, 255, 255, 0)" fill="none" transform="matrix(1 0 0 1 4 4 )" class="stroke" mask="url(#Clip2941)" />
    <path d="M 26.939384567073738 35  C 26.939384567073738 36.63333212871725  25.632991922066815 37.96666495590918  23.999999999999996 38  C 22.367008077933182 37.96666495590918  21.060615432926255 36.63333212871725  21.060615432926255 35  C 21.060615432926255 33.36666787128276  22.36700807793318 32.03333504409081  23.999999999999996 32  C 25.632991922066815 32.03333504409081  26.939384567073738 33.36666787128275  26.939384567073738 35  Z " stroke-width="0" stroke-dasharray="0" stroke="rgba(255, 255, 255, 0)" fill="none" transform="matrix(1 0 0 1 4 4 )" class="stroke" mask="url(#Clip2941)" />
  </g>
</svg>