<?xml version="1.0" encoding="utf-8"?>
<svg version="1.1" xmlns:xlink="http://www.w3.org/1999/xlink" width="5px" height="14px" xmlns="http://www.w3.org/2000/svg">
  <defs>
    <pattern id="BGPattern" patternUnits="userSpaceOnUse" alignment="0 0" imageRepeat="None" />
    <mask fill="white" id="Clip3802">
      <path d="M 4.369999999999999 12.25  L 3.049999999999999 13.75  C 1.1127460668062268 12.04150262212918  0.0029404498953278235 9.583005244258363  0.0029404498953278235 7  C 0.0029404498953278235 4.416994755741637  1.1127460668062268 1.958497377870819  3.05 0.25  L 4.369999999999999 1.75  C 2.8632469408492867 3.078831293899526  2.0000647943630323 4.9909959211323836  2.0000647943630323 7  C 2.0000647943630323 9.009004078867616  2.8632469408492867 10.921168706100472  4.369999999999999 12.25  Z " fill-rule="evenodd" />
    </mask>
  </defs>
  <g transform="matrix(1 0 0 1 -4 -2 )">
    <path d="M 4.369999999999999 12.25  L 3.049999999999999 13.75  C 1.1127460668062268 12.04150262212918  0.0029404498953278235 9.583005244258363  0.0029404498953278235 7  C 0.0029404498953278235 4.416994755741637  1.1127460668062268 1.958497377870819  3.05 0.25  L 4.369999999999999 1.75  C 2.8632469408492867 3.078831293899526  2.0000647943630323 4.9909959211323836  2.0000647943630323 7  C 2.0000647943630323 9.009004078867616  2.8632469408492867 10.921168706100472  4.369999999999999 12.25  Z " fill-rule="nonzero" fill="rgba(0, 0, 0, 1)" stroke="none" transform="matrix(1 0 0 1 4 2 )" class="fill" />
    <path d="M 4.369999999999999 12.25  L 3.049999999999999 13.75  C 1.1127460668062268 12.04150262212918  0.0029404498953278235 9.583005244258363  0.0029404498953278235 7  C 0.0029404498953278235 4.416994755741637  1.1127460668062268 1.958497377870819  3.05 0.25  L 4.369999999999999 1.75  C 2.8632469408492867 3.078831293899526  2.0000647943630323 4.9909959211323836  2.0000647943630323 7  C 2.0000647943630323 9.009004078867616  2.8632469408492867 10.921168706100472  4.369999999999999 12.25  Z " stroke-width="0" stroke-dasharray="0" stroke="rgba(255, 255, 255, 0)" fill="none" transform="matrix(1 0 0 1 4 2 )" class="stroke" mask="url(#Clip3802)" />
  </g>
</svg>