<?xml version="1.0" encoding="utf-8"?>
<svg version="1.1" xmlns:xlink="http://www.w3.org/1999/xlink" width="56px" height="56px" xmlns="http://www.w3.org/2000/svg">
  <defs>
    <pattern id="BGPattern" patternUnits="userSpaceOnUse" alignment="0 0" imageRepeat="None" />
    <mask fill="white" id="Clip1316">
      <path d="M 32 26  C 32 24.895430500338414  31.104569499661586 24  30 24  L 26 24  C 24.895430500338414 24  24 24.895430500338414  24 26  L 24 30  C 24 31.104569499661586  24.895430500338414 32  26 32  L 30 32  C 31.104569499661586 32  32 31.104569499661586  32 30  L 32 26  Z M 44 26  C 44 24.895430500338414  43.10456949966159 24  42 24  L 38 24  C 36.89543050033841 24  36 24.895430500338414  36 26  L 36 30  C 36 31.104569499661586  36.89543050033841 32  38 32  L 42 32  C 43.10456949966159 32  44 31.104569499661586  44 30  L 44 26  Z M 56 26  C 56 24.895430500338414  55.10456949966159 24  54 24  L 50 24  C 48.89543050033841 24  48 24.895430500338414  48 26  L 48 30  C 48 31.104569499661586  48.89543050033841 32  50 32  L 54 32  C 55.10456949966159 32  56 31.104569499661586  56 30  L 56 26  Z M 20 26  C 20 24.895430500338414  19.104569499661586 24  18 24  L 14 24  C 12.895430500338414 24  12 24.895430500338414  12 26  L 12 30  C 12 31.104569499661586  12.895430500338414 32  14 32  L 18 32  C 19.104569499661586 32  20 31.104569499661586  20 30  L 20 26  Z M 32 50  C 32 48.89543050033841  31.104569499661586 48  30 48  L 26 48  C 24.895430500338414 48  24 48.89543050033841  24 50  L 24 54  C 24 55.10456949966159  24.895430500338414 56  26 56  L 30 56  C 31.104569499661586 56  32 55.10456949966159  32 54  L 32 50  Z M 44 50  C 44 48.89543050033841  43.10456949966159 48  42 48  L 38 48  C 36.89543050033841 48  36 48.89543050033841  36 50  L 36 54  C 36 55.10456949966159  36.89543050033841 56  38 56  L 42 56  C 43.10456949966159 56  44 55.10456949966159  44 54  L 44 50  Z M 56 50  C 56 48.89543050033841  55.10456949966159 48  54 48  L 50 48  C 48.89543050033841 48  48 48.89543050033841  48 50  L 48 54  C 48 55.10456949966159  48.89543050033841 56  50 56  L 54 56  C 55.10456949966159 56  56 55.10456949966159  56 54  L 56 50  Z M 56 38  C 56 36.89543050033841  55.10456949966159 36  54 36  L 50 36  C 48.89543050033841 36  48 36.89543050033841  48 38  L 48 42  C 48 43.10456949966159  48.89543050033841 44  50 44  L 54 44  C 55.10456949966159 44  56 43.10456949966159  56 42  L 56 38  Z M 56 14  C 56 12.895430500338414  55.10456949966159 12  54 12  L 50 12  C 48.89543050033841 12  48 12.895430500338414  48 14  L 48 18  C 48 19.104569499661586  48.89543050033841 20  50 20  L 54 20  C 55.10456949966159 20  56 19.104569499661586  56 18  L 56 14  Z M 32 38  C 32 36.89543050033841  31.104569499661586 36  30 36  L 26 36  C 24.895430500338414 36  24 36.89543050033841  24 38  L 24 42  C 24 43.10456949966159  24.895430500338414 44  26 44  L 30 44  C 31.104569499661586 44  32 43.10456949966159  32 42  L 32 38  Z M 32 14  C 32 12.895430500338414  31.104569499661586 12  30 12  L 26 12  C 24.895430500338414 12  24 12.895430500338414  24 14  L 24 18  C 24 19.104569499661586  24.895430500338414 20  26 20  L 30 20  C 31.104569499661586 20  32 19.104569499661586  32 18  L 32 14  Z M 20 50  C 20 48.89543050033841  19.104569499661586 48  18 48  L 14 48  C 12.895430500338414 48  12 48.89543050033841  12 50  L 12 54  C 12 55.10456949966159  12.895430500338414 56  14 56  L 18 56  C 19.104569499661586 56  20 55.10456949966159  20 54  L 20 50  Z M 32 2  C 32 0.8954305003384135  31.104569499661586 0  30 0  L 26 0  C 24.895430500338414 0  24 0.8954305003384135  24 2  L 24 6  C 24 7.104569499661587  24.895430500338414 8  26 8  L 30 8  C 31.104569499661586 8  32 7.104569499661587  32 6  L 32 2  Z M 44 2  C 44 0.8954305003384135  43.10456949966159 0  42 0  L 38 0  C 36.89543050033841 0  36 0.8954305003384135  36 2  L 36 6  C 36 7.104569499661587  36.89543050033841 8  38 8  L 42 8  C 43.10456949966159 8  44 7.104569499661587  44 6  L 44 2  Z M 56 2  C 56 0.8954305003384135  55.10456949966159 0  54 0  L 50 0  C 48.89543050033841 0  48 0.8954305003384135  48 2  L 48 6  C 48 7.104569499661587  48.89543050033841 8  50 8  L 54 8  C 55.10456949966159 8  56 7.104569499661587  56 6  L 56 2  Z M 8 26  C 8 24.895430500338414  7.104569499661587 24  6 24  L 2 24  C 0.895430500338413 24  0 24.895430500338414  0 26  L 0 30  C 0 31.104569499661586  0.895430500338413 32  2 32  L 6 32  C 7.104569499661587 32  8 31.104569499661586  8 30  L 8 26  Z M 8 50  C 8 48.89543050033841  7.104569499661587 48  6 48  L 2 48  C 0.895430500338413 48  0 48.89543050033841  0 50  L 0 54  C 0 55.10456949966159  0.895430500338413 56  2 56  L 6 56  C 7.104569499661587 56  8 55.10456949966159  8 54  L 8 50  Z M 8 38  C 8 36.89543050033841  7.104569499661587 36  6 36  L 2 36  C 0.895430500338413 36  0 36.89543050033841  0 38  L 0 42  C 0 43.10456949966159  0.895430500338413 44  2 44  L 6 44  C 7.104569499661587 44  8 43.10456949966159  8 42  L 8 38  Z M 8 14  C 8 12.895430500338414  7.104569499661587 12  6 12  L 2 12  C 0.895430500338413 12  0 12.895430500338414  0 14  L 0 18  C 0 19.104569499661586  0.895430500338413 20  2 20  L 6 20  C 7.104569499661587 20  8 19.104569499661586  8 18  L 8 14  Z M 8 2  C 8 0.8954305003384135  7.104569499661587 0  6 0  L 2 0  C 0.895430500338413 0  0 0.8954305003384135  0 2  L 0 6  C 0 7.104569499661587  0.895430500338413 8  2 8  L 6 8  C 7.104569499661587 8  8 7.104569499661587  8 6  L 8 2  Z M 20 2  C 20 0.8954305003384135  19.104569499661586 0  18 0  L 14 0  C 12.895430500338414 0  12 0.8954305003384135  12 2  L 12 6  C 12 7.104569499661587  12.895430500338414 8  14 8  L 18 8  C 19.104569499661586 8  20 7.104569499661587  20 6  L 20 2  Z " fill-rule="evenodd" />
    </mask>
  </defs>
  <g>
    <path d="M 32 26  C 32 24.895430500338414  31.104569499661586 24  30 24  L 26 24  C 24.895430500338414 24  24 24.895430500338414  24 26  L 24 30  C 24 31.104569499661586  24.895430500338414 32  26 32  L 30 32  C 31.104569499661586 32  32 31.104569499661586  32 30  L 32 26  Z M 44 26  C 44 24.895430500338414  43.10456949966159 24  42 24  L 38 24  C 36.89543050033841 24  36 24.895430500338414  36 26  L 36 30  C 36 31.104569499661586  36.89543050033841 32  38 32  L 42 32  C 43.10456949966159 32  44 31.104569499661586  44 30  L 44 26  Z M 56 26  C 56 24.895430500338414  55.10456949966159 24  54 24  L 50 24  C 48.89543050033841 24  48 24.895430500338414  48 26  L 48 30  C 48 31.104569499661586  48.89543050033841 32  50 32  L 54 32  C 55.10456949966159 32  56 31.104569499661586  56 30  L 56 26  Z M 20 26  C 20 24.895430500338414  19.104569499661586 24  18 24  L 14 24  C 12.895430500338414 24  12 24.895430500338414  12 26  L 12 30  C 12 31.104569499661586  12.895430500338414 32  14 32  L 18 32  C 19.104569499661586 32  20 31.104569499661586  20 30  L 20 26  Z M 32 50  C 32 48.89543050033841  31.104569499661586 48  30 48  L 26 48  C 24.895430500338414 48  24 48.89543050033841  24 50  L 24 54  C 24 55.10456949966159  24.895430500338414 56  26 56  L 30 56  C 31.104569499661586 56  32 55.10456949966159  32 54  L 32 50  Z M 44 50  C 44 48.89543050033841  43.10456949966159 48  42 48  L 38 48  C 36.89543050033841 48  36 48.89543050033841  36 50  L 36 54  C 36 55.10456949966159  36.89543050033841 56  38 56  L 42 56  C 43.10456949966159 56  44 55.10456949966159  44 54  L 44 50  Z M 56 50  C 56 48.89543050033841  55.10456949966159 48  54 48  L 50 48  C 48.89543050033841 48  48 48.89543050033841  48 50  L 48 54  C 48 55.10456949966159  48.89543050033841 56  50 56  L 54 56  C 55.10456949966159 56  56 55.10456949966159  56 54  L 56 50  Z M 56 38  C 56 36.89543050033841  55.10456949966159 36  54 36  L 50 36  C 48.89543050033841 36  48 36.89543050033841  48 38  L 48 42  C 48 43.10456949966159  48.89543050033841 44  50 44  L 54 44  C 55.10456949966159 44  56 43.10456949966159  56 42  L 56 38  Z M 56 14  C 56 12.895430500338414  55.10456949966159 12  54 12  L 50 12  C 48.89543050033841 12  48 12.895430500338414  48 14  L 48 18  C 48 19.104569499661586  48.89543050033841 20  50 20  L 54 20  C 55.10456949966159 20  56 19.104569499661586  56 18  L 56 14  Z M 32 38  C 32 36.89543050033841  31.104569499661586 36  30 36  L 26 36  C 24.895430500338414 36  24 36.89543050033841  24 38  L 24 42  C 24 43.10456949966159  24.895430500338414 44  26 44  L 30 44  C 31.104569499661586 44  32 43.10456949966159  32 42  L 32 38  Z M 32 14  C 32 12.895430500338414  31.104569499661586 12  30 12  L 26 12  C 24.895430500338414 12  24 12.895430500338414  24 14  L 24 18  C 24 19.104569499661586  24.895430500338414 20  26 20  L 30 20  C 31.104569499661586 20  32 19.104569499661586  32 18  L 32 14  Z M 20 50  C 20 48.89543050033841  19.104569499661586 48  18 48  L 14 48  C 12.895430500338414 48  12 48.89543050033841  12 50  L 12 54  C 12 55.10456949966159  12.895430500338414 56  14 56  L 18 56  C 19.104569499661586 56  20 55.10456949966159  20 54  L 20 50  Z M 32 2  C 32 0.8954305003384135  31.104569499661586 0  30 0  L 26 0  C 24.895430500338414 0  24 0.8954305003384135  24 2  L 24 6  C 24 7.104569499661587  24.895430500338414 8  26 8  L 30 8  C 31.104569499661586 8  32 7.104569499661587  32 6  L 32 2  Z M 44 2  C 44 0.8954305003384135  43.10456949966159 0  42 0  L 38 0  C 36.89543050033841 0  36 0.8954305003384135  36 2  L 36 6  C 36 7.104569499661587  36.89543050033841 8  38 8  L 42 8  C 43.10456949966159 8  44 7.104569499661587  44 6  L 44 2  Z M 56 2  C 56 0.8954305003384135  55.10456949966159 0  54 0  L 50 0  C 48.89543050033841 0  48 0.8954305003384135  48 2  L 48 6  C 48 7.104569499661587  48.89543050033841 8  50 8  L 54 8  C 55.10456949966159 8  56 7.104569499661587  56 6  L 56 2  Z M 8 26  C 8 24.895430500338414  7.104569499661587 24  6 24  L 2 24  C 0.895430500338413 24  0 24.895430500338414  0 26  L 0 30  C 0 31.104569499661586  0.895430500338413 32  2 32  L 6 32  C 7.104569499661587 32  8 31.104569499661586  8 30  L 8 26  Z M 8 50  C 8 48.89543050033841  7.104569499661587 48  6 48  L 2 48  C 0.895430500338413 48  0 48.89543050033841  0 50  L 0 54  C 0 55.10456949966159  0.895430500338413 56  2 56  L 6 56  C 7.104569499661587 56  8 55.10456949966159  8 54  L 8 50  Z M 8 38  C 8 36.89543050033841  7.104569499661587 36  6 36  L 2 36  C 0.895430500338413 36  0 36.89543050033841  0 38  L 0 42  C 0 43.10456949966159  0.895430500338413 44  2 44  L 6 44  C 7.104569499661587 44  8 43.10456949966159  8 42  L 8 38  Z M 8 14  C 8 12.895430500338414  7.104569499661587 12  6 12  L 2 12  C 0.895430500338413 12  0 12.895430500338414  0 14  L 0 18  C 0 19.104569499661586  0.895430500338413 20  2 20  L 6 20  C 7.104569499661587 20  8 19.104569499661586  8 18  L 8 14  Z M 8 2  C 8 0.8954305003384135  7.104569499661587 0  6 0  L 2 0  C 0.895430500338413 0  0 0.8954305003384135  0 2  L 0 6  C 0 7.104569499661587  0.895430500338413 8  2 8  L 6 8  C 7.104569499661587 8  8 7.104569499661587  8 6  L 8 2  Z M 20 2  C 20 0.8954305003384135  19.104569499661586 0  18 0  L 14 0  C 12.895430500338414 0  12 0.8954305003384135  12 2  L 12 6  C 12 7.104569499661587  12.895430500338414 8  14 8  L 18 8  C 19.104569499661586 8  20 7.104569499661587  20 6  L 20 2  Z " fill-rule="nonzero" fill="rgba(0, 0, 0, 1)" stroke="none" class="fill" />
    <path d="M 32 26  C 32 24.895430500338414  31.104569499661586 24  30 24  L 26 24  C 24.895430500338414 24  24 24.895430500338414  24 26  L 24 30  C 24 31.104569499661586  24.895430500338414 32  26 32  L 30 32  C 31.104569499661586 32  32 31.104569499661586  32 30  L 32 26  Z " stroke-width="0" stroke-dasharray="0" stroke="rgba(255, 255, 255, 0)" fill="none" class="stroke" mask="url(#Clip1316)" />
    <path d="M 44 26  C 44 24.895430500338414  43.10456949966159 24  42 24  L 38 24  C 36.89543050033841 24  36 24.895430500338414  36 26  L 36 30  C 36 31.104569499661586  36.89543050033841 32  38 32  L 42 32  C 43.10456949966159 32  44 31.104569499661586  44 30  L 44 26  Z " stroke-width="0" stroke-dasharray="0" stroke="rgba(255, 255, 255, 0)" fill="none" class="stroke" mask="url(#Clip1316)" />
    <path d="M 56 26  C 56 24.895430500338414  55.10456949966159 24  54 24  L 50 24  C 48.89543050033841 24  48 24.895430500338414  48 26  L 48 30  C 48 31.104569499661586  48.89543050033841 32  50 32  L 54 32  C 55.10456949966159 32  56 31.104569499661586  56 30  L 56 26  Z " stroke-width="0" stroke-dasharray="0" stroke="rgba(255, 255, 255, 0)" fill="none" class="stroke" mask="url(#Clip1316)" />
    <path d="M 20 26  C 20 24.895430500338414  19.104569499661586 24  18 24  L 14 24  C 12.895430500338414 24  12 24.895430500338414  12 26  L 12 30  C 12 31.104569499661586  12.895430500338414 32  14 32  L 18 32  C 19.104569499661586 32  20 31.104569499661586  20 30  L 20 26  Z " stroke-width="0" stroke-dasharray="0" stroke="rgba(255, 255, 255, 0)" fill="none" class="stroke" mask="url(#Clip1316)" />
    <path d="M 32 50  C 32 48.89543050033841  31.104569499661586 48  30 48  L 26 48  C 24.895430500338414 48  24 48.89543050033841  24 50  L 24 54  C 24 55.10456949966159  24.895430500338414 56  26 56  L 30 56  C 31.104569499661586 56  32 55.10456949966159  32 54  L 32 50  Z " stroke-width="0" stroke-dasharray="0" stroke="rgba(255, 255, 255, 0)" fill="none" class="stroke" mask="url(#Clip1316)" />
    <path d="M 44 50  C 44 48.89543050033841  43.10456949966159 48  42 48  L 38 48  C 36.89543050033841 48  36 48.89543050033841  36 50  L 36 54  C 36 55.10456949966159  36.89543050033841 56  38 56  L 42 56  C 43.10456949966159 56  44 55.10456949966159  44 54  L 44 50  Z " stroke-width="0" stroke-dasharray="0" stroke="rgba(255, 255, 255, 0)" fill="none" class="stroke" mask="url(#Clip1316)" />
    <path d="M 56 50  C 56 48.89543050033841  55.10456949966159 48  54 48  L 50 48  C 48.89543050033841 48  48 48.89543050033841  48 50  L 48 54  C 48 55.10456949966159  48.89543050033841 56  50 56  L 54 56  C 55.10456949966159 56  56 55.10456949966159  56 54  L 56 50  Z " stroke-width="0" stroke-dasharray="0" stroke="rgba(255, 255, 255, 0)" fill="none" class="stroke" mask="url(#Clip1316)" />
    <path d="M 56 38  C 56 36.89543050033841  55.10456949966159 36  54 36  L 50 36  C 48.89543050033841 36  48 36.89543050033841  48 38  L 48 42  C 48 43.10456949966159  48.89543050033841 44  50 44  L 54 44  C 55.10456949966159 44  56 43.10456949966159  56 42  L 56 38  Z " stroke-width="0" stroke-dasharray="0" stroke="rgba(255, 255, 255, 0)" fill="none" class="stroke" mask="url(#Clip1316)" />
    <path d="M 56 14  C 56 12.895430500338414  55.10456949966159 12  54 12  L 50 12  C 48.89543050033841 12  48 12.895430500338414  48 14  L 48 18  C 48 19.104569499661586  48.89543050033841 20  50 20  L 54 20  C 55.10456949966159 20  56 19.104569499661586  56 18  L 56 14  Z " stroke-width="0" stroke-dasharray="0" stroke="rgba(255, 255, 255, 0)" fill="none" class="stroke" mask="url(#Clip1316)" />
    <path d="M 32 38  C 32 36.89543050033841  31.104569499661586 36  30 36  L 26 36  C 24.895430500338414 36  24 36.89543050033841  24 38  L 24 42  C 24 43.10456949966159  24.895430500338414 44  26 44  L 30 44  C 31.104569499661586 44  32 43.10456949966159  32 42  L 32 38  Z " stroke-width="0" stroke-dasharray="0" stroke="rgba(255, 255, 255, 0)" fill="none" class="stroke" mask="url(#Clip1316)" />
    <path d="M 32 14  C 32 12.895430500338414  31.104569499661586 12  30 12  L 26 12  C 24.895430500338414 12  24 12.895430500338414  24 14  L 24 18  C 24 19.104569499661586  24.895430500338414 20  26 20  L 30 20  C 31.104569499661586 20  32 19.104569499661586  32 18  L 32 14  Z " stroke-width="0" stroke-dasharray="0" stroke="rgba(255, 255, 255, 0)" fill="none" class="stroke" mask="url(#Clip1316)" />
    <path d="M 20 50  C 20 48.89543050033841  19.104569499661586 48  18 48  L 14 48  C 12.895430500338414 48  12 48.89543050033841  12 50  L 12 54  C 12 55.10456949966159  12.895430500338414 56  14 56  L 18 56  C 19.104569499661586 56  20 55.10456949966159  20 54  L 20 50  Z " stroke-width="0" stroke-dasharray="0" stroke="rgba(255, 255, 255, 0)" fill="none" class="stroke" mask="url(#Clip1316)" />
    <path d="M 32 2  C 32 0.8954305003384135  31.104569499661586 0  30 0  L 26 0  C 24.895430500338414 0  24 0.8954305003384135  24 2  L 24 6  C 24 7.104569499661587  24.895430500338414 8  26 8  L 30 8  C 31.104569499661586 8  32 7.104569499661587  32 6  L 32 2  Z " stroke-width="0" stroke-dasharray="0" stroke="rgba(255, 255, 255, 0)" fill="none" class="stroke" mask="url(#Clip1316)" />
    <path d="M 44 2  C 44 0.8954305003384135  43.10456949966159 0  42 0  L 38 0  C 36.89543050033841 0  36 0.8954305003384135  36 2  L 36 6  C 36 7.104569499661587  36.89543050033841 8  38 8  L 42 8  C 43.10456949966159 8  44 7.104569499661587  44 6  L 44 2  Z " stroke-width="0" stroke-dasharray="0" stroke="rgba(255, 255, 255, 0)" fill="none" class="stroke" mask="url(#Clip1316)" />
    <path d="M 56 2  C 56 0.8954305003384135  55.10456949966159 0  54 0  L 50 0  C 48.89543050033841 0  48 0.8954305003384135  48 2  L 48 6  C 48 7.104569499661587  48.89543050033841 8  50 8  L 54 8  C 55.10456949966159 8  56 7.104569499661587  56 6  L 56 2  Z " stroke-width="0" stroke-dasharray="0" stroke="rgba(255, 255, 255, 0)" fill="none" class="stroke" mask="url(#Clip1316)" />
    <path d="M 8 26  C 8 24.895430500338414  7.104569499661587 24  6 24  L 2 24  C 0.895430500338413 24  0 24.895430500338414  0 26  L 0 30  C 0 31.104569499661586  0.895430500338413 32  2 32  L 6 32  C 7.104569499661587 32  8 31.104569499661586  8 30  L 8 26  Z " stroke-width="0" stroke-dasharray="0" stroke="rgba(255, 255, 255, 0)" fill="none" class="stroke" mask="url(#Clip1316)" />
    <path d="M 8 50  C 8 48.89543050033841  7.104569499661587 48  6 48  L 2 48  C 0.895430500338413 48  0 48.89543050033841  0 50  L 0 54  C 0 55.10456949966159  0.895430500338413 56  2 56  L 6 56  C 7.104569499661587 56  8 55.10456949966159  8 54  L 8 50  Z " stroke-width="0" stroke-dasharray="0" stroke="rgba(255, 255, 255, 0)" fill="none" class="stroke" mask="url(#Clip1316)" />
    <path d="M 8 38  C 8 36.89543050033841  7.104569499661587 36  6 36  L 2 36  C 0.895430500338413 36  0 36.89543050033841  0 38  L 0 42  C 0 43.10456949966159  0.895430500338413 44  2 44  L 6 44  C 7.104569499661587 44  8 43.10456949966159  8 42  L 8 38  Z " stroke-width="0" stroke-dasharray="0" stroke="rgba(255, 255, 255, 0)" fill="none" class="stroke" mask="url(#Clip1316)" />
    <path d="M 8 14  C 8 12.895430500338414  7.104569499661587 12  6 12  L 2 12  C 0.895430500338413 12  0 12.895430500338414  0 14  L 0 18  C 0 19.104569499661586  0.895430500338413 20  2 20  L 6 20  C 7.104569499661587 20  8 19.104569499661586  8 18  L 8 14  Z " stroke-width="0" stroke-dasharray="0" stroke="rgba(255, 255, 255, 0)" fill="none" class="stroke" mask="url(#Clip1316)" />
    <path d="M 8 2  C 8 0.8954305003384135  7.104569499661587 0  6 0  L 2 0  C 0.895430500338413 0  0 0.8954305003384135  0 2  L 0 6  C 0 7.104569499661587  0.895430500338413 8  2 8  L 6 8  C 7.104569499661587 8  8 7.104569499661587  8 6  L 8 2  Z " stroke-width="0" stroke-dasharray="0" stroke="rgba(255, 255, 255, 0)" fill="none" class="stroke" mask="url(#Clip1316)" />
    <path d="M 20 2  C 20 0.8954305003384135  19.104569499661586 0  18 0  L 14 0  C 12.895430500338414 0  12 0.8954305003384135  12 2  L 12 6  C 12 7.104569499661587  12.895430500338414 8  14 8  L 18 8  C 19.104569499661586 8  20 7.104569499661587  20 6  L 20 2  Z " stroke-width="0" stroke-dasharray="0" stroke="rgba(255, 255, 255, 0)" fill="none" class="stroke" mask="url(#Clip1316)" />
  </g>
</svg>