<?xml version="1.0" encoding="utf-8"?>
<svg version="1.1" xmlns:xlink="http://www.w3.org/1999/xlink" width="30px" height="30px" xmlns="http://www.w3.org/2000/svg">
  <defs>
    <pattern id="BGPattern" patternUnits="userSpaceOnUse" alignment="0 0" imageRepeat="None" />
    <mask fill="white" id="Clip492">
      <path d="M 0.5999999999999979 14.999999999999998  C 0.5999999999999979 7.047999999999998  7.047999999999998 0.5999999999999979  15 0.6000000000000001  C 22.951999999999998 0.6000000000000001  29.4 7.048  29.4 15  C 29.4 22.951999999999998  22.951999999999998 29.4  14.999999999999998 29.4  C 7.047999999999998 29.4  0.5999999999999979 22.951999999999998  0.5999999999999979 14.999999999999998  Z M 27 15  C 27 8.376000000000001  21.624 3  15 3  C 8.376000000000001 3  3 8.376000000000001  3 15  C 3 21.624  8.376000000000001 27  15 27  C 21.624 27  27 21.624  27 15  Z M 21.4 14.999999999999998  C 21.4 11.463999999999999  18.535999999999998 8.599999999999998  15 8.6  C 11.464 8.6  8.6 11.463999999999999  8.6 15  C 8.6 18.536  11.463999999999999 21.4  15 21.4  C 18.536 21.4  21.4 18.535999999999998  21.4 14.999999999999998  Z " fill-rule="evenodd" />
    </mask>
  </defs>
  <g>
    <path d="M 0.5999999999999979 14.999999999999998  C 0.5999999999999979 7.047999999999998  7.047999999999998 0.5999999999999979  15 0.6000000000000001  C 22.951999999999998 0.6000000000000001  29.4 7.048  29.4 15  C 29.4 22.951999999999998  22.951999999999998 29.4  14.999999999999998 29.4  C 7.047999999999998 29.4  0.5999999999999979 22.951999999999998  0.5999999999999979 14.999999999999998  Z M 27 15  C 27 8.376000000000001  21.624 3  15 3  C 8.376000000000001 3  3 8.376000000000001  3 15  C 3 21.624  8.376000000000001 27  15 27  C 21.624 27  27 21.624  27 15  Z M 21.4 14.999999999999998  C 21.4 11.463999999999999  18.535999999999998 8.599999999999998  15 8.6  C 11.464 8.6  8.6 11.463999999999999  8.6 15  C 8.6 18.536  11.463999999999999 21.4  15 21.4  C 18.536 21.4  21.4 18.535999999999998  21.4 14.999999999999998  Z " fill-rule="nonzero" fill="rgba(0, 0, 0, 1)" stroke="none" class="fill" />
    <path d="M 0.5999999999999979 14.999999999999998  C 0.5999999999999979 7.047999999999998  7.047999999999998 0.5999999999999979  15 0.6000000000000001  C 22.951999999999998 0.6000000000000001  29.4 7.048  29.4 15  C 29.4 22.951999999999998  22.951999999999998 29.4  14.999999999999998 29.4  C 7.047999999999998 29.4  0.5999999999999979 22.951999999999998  0.5999999999999979 14.999999999999998  Z " stroke-width="0" stroke-dasharray="0" stroke="rgba(255, 255, 255, 0)" fill="none" class="stroke" mask="url(#Clip492)" />
    <path d="M 27 15  C 27 8.376000000000001  21.624 3  15 3  C 8.376000000000001 3  3 8.376000000000001  3 15  C 3 21.624  8.376000000000001 27  15 27  C 21.624 27  27 21.624  27 15  Z " stroke-width="0" stroke-dasharray="0" stroke="rgba(255, 255, 255, 0)" fill="none" class="stroke" mask="url(#Clip492)" />
    <path d="M 21.4 14.999999999999998  C 21.4 11.463999999999999  18.535999999999998 8.599999999999998  15 8.6  C 11.464 8.6  8.6 11.463999999999999  8.6 15  C 8.6 18.536  11.463999999999999 21.4  15 21.4  C 18.536 21.4  21.4 18.535999999999998  21.4 14.999999999999998  Z " stroke-width="0" stroke-dasharray="0" stroke="rgba(255, 255, 255, 0)" fill="none" class="stroke" mask="url(#Clip492)" />
  </g>
</svg>