<?xml version="1.0" encoding="utf-8"?>
<svg version="1.1" xmlns:xlink="http://www.w3.org/1999/xlink" width="16px" height="4px" xmlns="http://www.w3.org/2000/svg">
  <defs>
    <pattern id="BGPattern" patternUnits="userSpaceOnUse" alignment="0 0" imageRepeat="None" />
    <mask fill="white" id="Clip6424">
      <path d="M 14.75 0.5  L 1.25 0.5  C 0.8357864376269051 0.5  0.5 0.8357864376269042  0.5 1.25  L 0.5 2.75  C 0.5 3.164213562373096  0.8357864376269051 3.5  1.25 3.5  L 14.75 3.5  C 15.164213562373096 3.5  15.5 3.164213562373096  15.5 2.75  L 15.5 1.25  C 15.5 0.8357864376269042  15.164213562373096 0.5  14.75 0.5  Z " fill-rule="evenodd" />
    </mask>
  </defs>
  <g transform="matrix(1 0 0 1 -4 -6 )">
    <path d="M 14.75 0.5  L 1.25 0.5  C 0.8357864376269051 0.5  0.5 0.8357864376269042  0.5 1.25  L 0.5 2.75  C 0.5 3.164213562373096  0.8357864376269051 3.5  1.25 3.5  L 14.75 3.5  C 15.164213562373096 3.5  15.5 3.164213562373096  15.5 2.75  L 15.5 1.25  C 15.5 0.8357864376269042  15.164213562373096 0.5  14.75 0.5  Z " fill-rule="nonzero" fill="rgba(0, 0, 0, 1)" stroke="none" transform="matrix(1 0 0 1 4 6 )" class="fill" />
    <path d="M 14.75 0.5  L 1.25 0.5  C 0.8357864376269051 0.5  0.5 0.8357864376269042  0.5 1.25  L 0.5 2.75  C 0.5 3.164213562373096  0.8357864376269051 3.5  1.25 3.5  L 14.75 3.5  C 15.164213562373096 3.5  15.5 3.164213562373096  15.5 2.75  L 15.5 1.25  C 15.5 0.8357864376269042  15.164213562373096 0.5  14.75 0.5  Z " stroke-width="0" stroke-dasharray="0" stroke="rgba(255, 255, 255, 0)" fill="none" transform="matrix(1 0 0 1 4 6 )" class="stroke" mask="url(#Clip6424)" />
  </g>
</svg>