<?xml version="1.0" encoding="utf-8"?>
<svg version="1.1" xmlns:xlink="http://www.w3.org/1999/xlink" width="14px" height="14px" xmlns="http://www.w3.org/2000/svg">
  <defs>
    <pattern id="BGPattern" patternUnits="userSpaceOnUse" alignment="0 0" imageRepeat="None" />
    <mask fill="white" id="Clip3314">
      <path d="M 13.5 12.8  L 9.7 9  C 10.5 8  11 6.8  11 5.5  C 11 2.5  8.5 0  5.5 0  C 2.5 0  0 2.5  0 5.5  C 0 8.5  2.5 11  5.5 11  C 6.8 11  8 10.5  9 9.7  L 12.8 13.5  L 13.5 12.8  Z M 5.5 10  C 3 10  1 8  1 5.5  C 1 3  3 1  5.5 1  C 8 1  10 3  10 5.5  C 10 8  8 10  5.5 10  Z " fill-rule="evenodd" />
    </mask>
  </defs>
  <g transform="matrix(1 0 0 1 -1 -1 )">
    <path d="M 13.5 12.8  L 9.7 9  C 10.5 8  11 6.8  11 5.5  C 11 2.5  8.5 0  5.5 0  C 2.5 0  0 2.5  0 5.5  C 0 8.5  2.5 11  5.5 11  C 6.8 11  8 10.5  9 9.7  L 12.8 13.5  L 13.5 12.8  Z M 5.5 10  C 3 10  1 8  1 5.5  C 1 3  3 1  5.5 1  C 8 1  10 3  10 5.5  C 10 8  8 10  5.5 10  Z " fill-rule="nonzero" fill="rgba(0, 0, 0, 1)" stroke="none" transform="matrix(1 0 0 1 1 1 )" class="fill" />
    <path d="M 13.5 12.8  L 9.7 9  C 10.5 8  11 6.8  11 5.5  C 11 2.5  8.5 0  5.5 0  C 2.5 0  0 2.5  0 5.5  C 0 8.5  2.5 11  5.5 11  C 6.8 11  8 10.5  9 9.7  L 12.8 13.5  L 13.5 12.8  Z " stroke-width="0" stroke-dasharray="0" stroke="rgba(255, 255, 255, 0)" fill="none" transform="matrix(1 0 0 1 1 1 )" class="stroke" mask="url(#Clip3314)" />
    <path d="M 5.5 10  C 3 10  1 8  1 5.5  C 1 3  3 1  5.5 1  C 8 1  10 3  10 5.5  C 10 8  8 10  5.5 10  Z " stroke-width="0" stroke-dasharray="0" stroke="rgba(255, 255, 255, 0)" fill="none" transform="matrix(1 0 0 1 1 1 )" class="stroke" mask="url(#Clip3314)" />
  </g>
</svg>