<?xml version="1.0" encoding="utf-8"?>
<svg version="1.1" xmlns:xlink="http://www.w3.org/1999/xlink" width="28px" height="28px" xmlns="http://www.w3.org/2000/svg">
  <defs>
    <pattern id="BGPattern" patternUnits="userSpaceOnUse" alignment="0 0" imageRepeat="None" />
    <mask fill="white" id="Clip4302">
      <path d="M 28 14  C 28 6.268013502368892  21.73198649763111 0  14 0  C 6.268013502368892 0  0 6.268013502368892  0 14  C 0 21.73198649763111  6.268013502368892 28  14 28  C 21.73198649763111 28  28 21.73198649763111  28 14  Z M 20 10  L 20 18  C 20 19.104569499661586  19.104569499661586 20  18 20  L 10 20  C 8.895430500338414 20  8 19.104569499661586  8 18  L 8 10  C 8 8.895430500338414  8.895430500338414 8  10 8  L 18 8  C 19.104569499661586 8  20 8.895430500338414  20 10  Z " fill-rule="evenodd" />
    </mask>
  </defs>
  <g transform="matrix(1 0 0 1 -2 -2 )">
    <path d="M 28 14  C 28 6.268013502368892  21.73198649763111 0  14 0  C 6.268013502368892 0  0 6.268013502368892  0 14  C 0 21.73198649763111  6.268013502368892 28  14 28  C 21.73198649763111 28  28 21.73198649763111  28 14  Z M 20 10  L 20 18  C 20 19.104569499661586  19.104569499661586 20  18 20  L 10 20  C 8.895430500338414 20  8 19.104569499661586  8 18  L 8 10  C 8 8.895430500338414  8.895430500338414 8  10 8  L 18 8  C 19.104569499661586 8  20 8.895430500338414  20 10  Z " fill-rule="nonzero" fill="rgba(0, 0, 0, 1)" stroke="none" transform="matrix(1 0 0 1 2 2 )" class="fill" />
    <path d="M 28 14  C 28 6.268013502368892  21.73198649763111 0  14 0  C 6.268013502368892 0  0 6.268013502368892  0 14  C 0 21.73198649763111  6.268013502368892 28  14 28  C 21.73198649763111 28  28 21.73198649763111  28 14  Z " stroke-width="0" stroke-dasharray="0" stroke="rgba(255, 255, 255, 0)" fill="none" transform="matrix(1 0 0 1 2 2 )" class="stroke" mask="url(#Clip4302)" />
    <path d="M 20 10  L 20 18  C 20 19.104569499661586  19.104569499661586 20  18 20  L 10 20  C 8.895430500338414 20  8 19.104569499661586  8 18  L 8 10  C 8 8.895430500338414  8.895430500338414 8  10 8  L 18 8  C 19.104569499661586 8  20 8.895430500338414  20 10  Z " stroke-width="0" stroke-dasharray="0" stroke="rgba(255, 255, 255, 0)" fill="none" transform="matrix(1 0 0 1 2 2 )" class="stroke" mask="url(#Clip4302)" />
  </g>
</svg>