<?xml version="1.0" encoding="utf-8"?>
<svg version="1.1" xmlns:xlink="http://www.w3.org/1999/xlink" width="47px" height="50px" xmlns="http://www.w3.org/2000/svg">
  <defs>
    <pattern id="BGPattern" patternUnits="userSpaceOnUse" alignment="0 0" imageRepeat="None" />
    <mask fill="white" id="Clip869">
      <path d="M 45.43333333333334 29.95555555555558  C 46.52222222222224 24.422222222222217  46.43333333333334 16.455555555555577  46.43333333333334 16.455555555555577  C 46.43333333333334 5.655555555555566  39.355555555555554 2.48888888888888  39.355555555555554 2.48888888888888  C 32.4111111111111 -0.6999999999999886  13.966666666666669 -0.6666666666666856  7.088888888888903 2.48888888888888  C 7.088888888888903 2.48888888888888  0.011111111111119953 5.655555555555566  0.011111111111119953 16.455555555555577  C 0.011111111111119953 29.31111111111113  -0.7222222222222285 45.27777777777777  11.74444444444444 48.57777777777778  C 16.24444444444444 49.76666666666665  20.111111111111086 50.02222222222223  23.22222222222223 49.844444444444434  C 28.86666666666667 49.5333333333333  32.03333333333336 47.833333333333314  32.03333333333336 47.833333333333314  L 31.844444444444434 43.73333333333335  C 31.844444444444434 43.73333333333335  27.81111111111113 45  23.27777777777777 44.855555555555554  C 18.78888888888889 44.69999999999999  14.055555555555571 44.366666666666674  13.322222222222223 38.855555555555554  C 13.255555555555558 38.366666666666674  13.222222222222229 37.855555555555554  13.222222222222229 37.31111111111113  C 22.73333333333335 39.633333333333326  30.844444444444438 38.32222222222225  33.07777777777778 38.05555555555554  C 39.31111111111113 37.31111111111113  44.74444444444447 33.4666666666667  45.43333333333334 29.95555555555558  Z M 36.04444444444448 10.922222222222217  C 38.677777777777806 13.955555555555577  38.0888888888889 16.81111111111113  38.0888888888889 30.366666666666674  L 33 30.366666666666674  L 33 17.677777777777806  C 32.9111111111111 12.155555555555566  25.80000000000001 11.944444444444457  25.80000000000001 18.444444444444457  L 25.80000000000001 25.388888888888918  L 20.655555555555566 25.388888888888918  L 20.655555555555566 18.444444444444457  C 20.655555555555566 11.944444444444457  13.544444444444451 12.155555555555566  14 17.677777777777806  L 14 30.366666666666674  L 8.355555555555554 30.366666666666674  C 8.355555555555554 16.80000000000001  7.777777777777772 13.933333333333337  10.400000000000006 10.922222222222217  C 13.277777777777771 7.711111111111109  19.26666666666668 7.5  21.933333333333337 11.600000000000023  L 23.22222222222223 13.766666666666652  L 24.51111111111112 11.600000000000023  C 27.18888888888887 7.477777777777759  33.18888888888887 7.733333333333349  36.04444444444448 10.922222222222217  Z " fill-rule="evenodd" />
    </mask>
  </defs>
  <g>
    <path d="M 45.43333333333334 29.95555555555558  C 46.52222222222224 24.422222222222217  46.43333333333334 16.455555555555577  46.43333333333334 16.455555555555577  C 46.43333333333334 5.655555555555566  39.355555555555554 2.48888888888888  39.355555555555554 2.48888888888888  C 32.4111111111111 -0.6999999999999886  13.966666666666669 -0.6666666666666856  7.088888888888903 2.48888888888888  C 7.088888888888903 2.48888888888888  0.011111111111119953 5.655555555555566  0.011111111111119953 16.455555555555577  C 0.011111111111119953 29.31111111111113  -0.7222222222222285 45.27777777777777  11.74444444444444 48.57777777777778  C 16.24444444444444 49.76666666666665  20.111111111111086 50.02222222222223  23.22222222222223 49.844444444444434  C 28.86666666666667 49.5333333333333  32.03333333333336 47.833333333333314  32.03333333333336 47.833333333333314  L 31.844444444444434 43.73333333333335  C 31.844444444444434 43.73333333333335  27.81111111111113 45  23.27777777777777 44.855555555555554  C 18.78888888888889 44.69999999999999  14.055555555555571 44.366666666666674  13.322222222222223 38.855555555555554  C 13.255555555555558 38.366666666666674  13.222222222222229 37.855555555555554  13.222222222222229 37.31111111111113  C 22.73333333333335 39.633333333333326  30.844444444444438 38.32222222222225  33.07777777777778 38.05555555555554  C 39.31111111111113 37.31111111111113  44.74444444444447 33.4666666666667  45.43333333333334 29.95555555555558  Z M 36.04444444444448 10.922222222222217  C 38.677777777777806 13.955555555555577  38.0888888888889 16.81111111111113  38.0888888888889 30.366666666666674  L 33 30.366666666666674  L 33 17.677777777777806  C 32.9111111111111 12.155555555555566  25.80000000000001 11.944444444444457  25.80000000000001 18.444444444444457  L 25.80000000000001 25.388888888888918  L 20.655555555555566 25.388888888888918  L 20.655555555555566 18.444444444444457  C 20.655555555555566 11.944444444444457  13.544444444444451 12.155555555555566  14 17.677777777777806  L 14 30.366666666666674  L 8.355555555555554 30.366666666666674  C 8.355555555555554 16.80000000000001  7.777777777777772 13.933333333333337  10.400000000000006 10.922222222222217  C 13.277777777777771 7.711111111111109  19.26666666666668 7.5  21.933333333333337 11.600000000000023  L 23.22222222222223 13.766666666666652  L 24.51111111111112 11.600000000000023  C 27.18888888888887 7.477777777777759  33.18888888888887 7.733333333333349  36.04444444444448 10.922222222222217  Z " fill-rule="nonzero" fill="rgba(0, 0, 0, 1)" stroke="none" class="fill" />
    <path d="M 45.43333333333334 29.95555555555558  C 46.52222222222224 24.422222222222217  46.43333333333334 16.455555555555577  46.43333333333334 16.455555555555577  C 46.43333333333334 5.655555555555566  39.355555555555554 2.48888888888888  39.355555555555554 2.48888888888888  C 32.4111111111111 -0.6999999999999886  13.966666666666669 -0.6666666666666856  7.088888888888903 2.48888888888888  C 7.088888888888903 2.48888888888888  0.011111111111119953 5.655555555555566  0.011111111111119953 16.455555555555577  C 0.011111111111119953 29.31111111111113  -0.7222222222222285 45.27777777777777  11.74444444444444 48.57777777777778  C 16.24444444444444 49.76666666666665  20.111111111111086 50.02222222222223  23.22222222222223 49.844444444444434  C 28.86666666666667 49.5333333333333  32.03333333333336 47.833333333333314  32.03333333333336 47.833333333333314  L 31.844444444444434 43.73333333333335  C 31.844444444444434 43.73333333333335  27.81111111111113 45  23.27777777777777 44.855555555555554  C 18.78888888888889 44.69999999999999  14.055555555555571 44.366666666666674  13.322222222222223 38.855555555555554  C 13.255555555555558 38.366666666666674  13.222222222222229 37.855555555555554  13.222222222222229 37.31111111111113  C 22.73333333333335 39.633333333333326  30.844444444444438 38.32222222222225  33.07777777777778 38.05555555555554  C 39.31111111111113 37.31111111111113  44.74444444444447 33.4666666666667  45.43333333333334 29.95555555555558  Z " stroke-width="0" stroke-dasharray="0" stroke="rgba(255, 255, 255, 0)" fill="none" class="stroke" mask="url(#Clip869)" />
    <path d="M 36.04444444444448 10.922222222222217  C 38.677777777777806 13.955555555555577  38.0888888888889 16.81111111111113  38.0888888888889 30.366666666666674  L 33 30.366666666666674  L 33 17.677777777777806  C 32.9111111111111 12.155555555555566  25.80000000000001 11.944444444444457  25.80000000000001 18.444444444444457  L 25.80000000000001 25.388888888888918  L 20.655555555555566 25.388888888888918  L 20.655555555555566 18.444444444444457  C 20.655555555555566 11.944444444444457  13.544444444444451 12.155555555555566  14 17.677777777777806  L 14 30.366666666666674  L 8.355555555555554 30.366666666666674  C 8.355555555555554 16.80000000000001  7.777777777777772 13.933333333333337  10.400000000000006 10.922222222222217  C 13.277777777777771 7.711111111111109  19.26666666666668 7.5  21.933333333333337 11.600000000000023  L 23.22222222222223 13.766666666666652  L 24.51111111111112 11.600000000000023  C 27.18888888888887 7.477777777777759  33.18888888888887 7.733333333333349  36.04444444444448 10.922222222222217  Z " stroke-width="0" stroke-dasharray="0" stroke="rgba(255, 255, 255, 0)" fill="none" class="stroke" mask="url(#Clip869)" />
  </g>
</svg>