<?xml version="1.0" encoding="utf-8"?>
<svg version="1.1" xmlns:xlink="http://www.w3.org/1999/xlink" width="24px" height="22px" xmlns="http://www.w3.org/2000/svg">
  <defs>
    <pattern id="BGPattern" patternUnits="userSpaceOnUse" alignment="0 0" imageRepeat="None" />
    <mask fill="white" id="Clip5904">
      <path d="M 19.5 19.25  L 19.5 2.75  C 19.5 1.5073593128807143  20.507359312880713 0.49999999999999956  21.75 0.49999999999999956  C 22.992640687119284 0.49999999999999956  24 1.5073593128807143  24 2.75  L 24 19.25  C 24 20.492640687119284  22.992640687119284 21.5  21.75 21.5  C 20.507359312880713 21.5  19.5 20.492640687119284  19.5 19.25  Z M 18 18.143000000000004  L 18 3.8360000000000003  C 14.8995 5.261000000000001  11.191500000000001 6.0575  7.5 6.32  L 7.5 15.6755  C 8.044855892724156 15.706224647206794  8.588983228951133 15.74873459534953  9.132 15.803000000000003  C 12.211500000000001 16.109  15.189000000000002 16.805  18 18.143000000000004  Z M 3.7350000000000003 15.525500000000001  C 4.49025698187074 15.54058771424431  5.245309573881706 15.564589386043334  6 15.597500000000002  L 6 6.401  C 4.9799999999999995 6.4415000000000004  3.9015 6.4655000000000005  2.988 6.4805  C 1.335082478428626 6.5034045443179345  0.005569794933992845 7.846933174777117  0 9.5  L 0 12.500000000000002  C 0 14.158999999999997  1.344 15.494  2.991 15.5135  C 3.2390137387035596 15.51659725409315  3.4870153817047256 15.520597280593165  3.7350000000000003 15.525500000000001  Z M 6.635999999999999 17.128999999999998  C 7.126499999999999 17.1545  7.611 17.1845  8.084999999999999 17.219  C 8.5125 17.250500000000002  8.9385 17.289500000000004  9.36 17.336  L 9.7395 19.871  C 9.757101056083284 19.96346284654729  9.765960187985005 20.05737711588023  9.765960187985005 20.151500307320354  C 9.765960187985005 20.979927432066546  9.094387312731193 21.651500307320354  8.265960187985005 21.651500307320354  L 7.443 21.6515  C 6.847203392706135 21.651453495228832  6.3079144384376775 21.29879619871485  6.068999999999999 20.753  L 4.097999999999999 17.032999999999998  C 4.944376672735474 17.05411495840127  5.790446681783713 17.086117606497663  6.635999999999999 17.128999999999998  Z " fill-rule="evenodd" />
    </mask>
  </defs>
  <g>
    <path d="M 19.5 19.25  L 19.5 2.75  C 19.5 1.5073593128807143  20.507359312880713 0.49999999999999956  21.75 0.49999999999999956  C 22.992640687119284 0.49999999999999956  24 1.5073593128807143  24 2.75  L 24 19.25  C 24 20.492640687119284  22.992640687119284 21.5  21.75 21.5  C 20.507359312880713 21.5  19.5 20.492640687119284  19.5 19.25  Z M 18 18.143000000000004  L 18 3.8360000000000003  C 14.8995 5.261000000000001  11.191500000000001 6.0575  7.5 6.32  L 7.5 15.6755  C 8.044855892724156 15.706224647206794  8.588983228951133 15.74873459534953  9.132 15.803000000000003  C 12.211500000000001 16.109  15.189000000000002 16.805  18 18.143000000000004  Z M 3.7350000000000003 15.525500000000001  C 4.49025698187074 15.54058771424431  5.245309573881706 15.564589386043334  6 15.597500000000002  L 6 6.401  C 4.9799999999999995 6.4415000000000004  3.9015 6.4655000000000005  2.988 6.4805  C 1.335082478428626 6.5034045443179345  0.005569794933992845 7.846933174777117  0 9.5  L 0 12.500000000000002  C 0 14.158999999999997  1.344 15.494  2.991 15.5135  C 3.2390137387035596 15.51659725409315  3.4870153817047256 15.520597280593165  3.7350000000000003 15.525500000000001  Z M 6.635999999999999 17.128999999999998  C 7.126499999999999 17.1545  7.611 17.1845  8.084999999999999 17.219  C 8.5125 17.250500000000002  8.9385 17.289500000000004  9.36 17.336  L 9.7395 19.871  C 9.757101056083284 19.96346284654729  9.765960187985005 20.05737711588023  9.765960187985005 20.151500307320354  C 9.765960187985005 20.979927432066546  9.094387312731193 21.651500307320354  8.265960187985005 21.651500307320354  L 7.443 21.6515  C 6.847203392706135 21.651453495228832  6.3079144384376775 21.29879619871485  6.068999999999999 20.753  L 4.097999999999999 17.032999999999998  C 4.944376672735474 17.05411495840127  5.790446681783713 17.086117606497663  6.635999999999999 17.128999999999998  Z " fill-rule="nonzero" fill="rgba(0, 0, 0, 1)" stroke="none" class="fill" />
    <path d="M 19.5 19.25  L 19.5 2.75  C 19.5 1.5073593128807143  20.507359312880713 0.49999999999999956  21.75 0.49999999999999956  C 22.992640687119284 0.49999999999999956  24 1.5073593128807143  24 2.75  L 24 19.25  C 24 20.492640687119284  22.992640687119284 21.5  21.75 21.5  C 20.507359312880713 21.5  19.5 20.492640687119284  19.5 19.25  Z " stroke-width="0" stroke-dasharray="0" stroke="rgba(255, 255, 255, 0)" fill="none" class="stroke" mask="url(#Clip5904)" />
    <path d="M 18 18.143000000000004  L 18 3.8360000000000003  C 14.8995 5.261000000000001  11.191500000000001 6.0575  7.5 6.32  L 7.5 15.6755  C 8.044855892724156 15.706224647206794  8.588983228951133 15.74873459534953  9.132 15.803000000000003  C 12.211500000000001 16.109  15.189000000000002 16.805  18 18.143000000000004  Z " stroke-width="0" stroke-dasharray="0" stroke="rgba(255, 255, 255, 0)" fill="none" class="stroke" mask="url(#Clip5904)" />
    <path d="M 3.7350000000000003 15.525500000000001  C 4.49025698187074 15.54058771424431  5.245309573881706 15.564589386043334  6 15.597500000000002  L 6 6.401  C 4.9799999999999995 6.4415000000000004  3.9015 6.4655000000000005  2.988 6.4805  C 1.335082478428626 6.5034045443179345  0.005569794933992845 7.846933174777117  0 9.5  L 0 12.500000000000002  C 0 14.158999999999997  1.344 15.494  2.991 15.5135  C 3.2390137387035596 15.51659725409315  3.4870153817047256 15.520597280593165  3.7350000000000003 15.525500000000001  Z " stroke-width="0" stroke-dasharray="0" stroke="rgba(255, 255, 255, 0)" fill="none" class="stroke" mask="url(#Clip5904)" />
    <path d="M 6.635999999999999 17.128999999999998  C 7.126499999999999 17.1545  7.611 17.1845  8.084999999999999 17.219  C 8.5125 17.250500000000002  8.9385 17.289500000000004  9.36 17.336  L 9.7395 19.871  C 9.757101056083284 19.96346284654729  9.765960187985005 20.05737711588023  9.765960187985005 20.151500307320354  C 9.765960187985005 20.979927432066546  9.094387312731193 21.651500307320354  8.265960187985005 21.651500307320354  L 7.443 21.6515  C 6.847203392706135 21.651453495228832  6.3079144384376775 21.29879619871485  6.068999999999999 20.753  L 4.097999999999999 17.032999999999998  C 4.944376672735474 17.05411495840127  5.790446681783713 17.086117606497663  6.635999999999999 17.128999999999998  Z " stroke-width="0" stroke-dasharray="0" stroke="rgba(255, 255, 255, 0)" fill="none" class="stroke" mask="url(#Clip5904)" />
  </g>
</svg>