<?xml version="1.0" encoding="utf-8"?>
<svg version="1.1" xmlns:xlink="http://www.w3.org/1999/xlink" width="50px" height="39px" xmlns="http://www.w3.org/2000/svg">
  <defs>
    <pattern id="BGPattern" patternUnits="userSpaceOnUse" alignment="0 0" imageRepeat="None" />
    <mask fill="white" id="Clip1993">
      <path d="M 49.913494809688586 14.603806228373685  C 49.91695501730101 14.221453287197221  49.62456747404843 13.92560553633217  49.2430795847751 13.92733564013838  C 46.73096885813152 13.938581314878888  37.564013840830455 14.460207612456713  30.744809688581316 21.107266435986162  C 27.87975778546712 23.670415224913487  26.128892733563987 26.583044982698937  25 29.31314878892732  C 23.871107266435956 26.583044982698937  22.12024221453288 23.670415224913487  19.255190311418687 21.107266435986162  C 12.435986159169545 14.460207612456713  3.2690311418685383 13.938581314878888  0.7569204152248972 13.92733564013838  C 0.37543252595156673 13.92560553633217  0.08304498269893656 14.221453287197221  0.08650519031141357 14.603806228373685  C 0.10640138408302846 17.01903114186848  0.7041522491349497 25.51557093425606  7.765570934256061 31.844290657439444  C 15.033737024221466 38.922145328719694  22.231833910034595 38.84083044982697  25 38.84083044982697  C 27.76816608996541 38.84083044982697  34.964532871972324 38.92301038062283  42.23442906574394 31.844290657439444  C 49.296712802768184 25.514705882352928  49.89359861591697 17.01903114186848  49.913494809688586 14.603806228373685  Z M 21.102076124567475 19.043252595155707  C 22.576118208817206 20.364014928523602  23.884414888882475 21.858796170889494  24.99826989619379 23.494809688581313  C 26.10726643598616 21.86418685121106  27.38581314878894 20.399653979238735  28.812283737024245 19.124567474048433  C 30.46366782006919 17.514705882352928  32.236159169550206 16.24394463667818  34.0250865051903 15.216262975778534  C 32.60294117647061 9.117647058823536  29.551038062283734 3.706747404844293  25.657439446366766 0.31833910034600876  C 25.301903114186867 0.008650519031164094  24.70415224913495 0.008650519031164094  24.34775086505192 0.31833910034600876  C 20.45588235294116 3.7041522491349497  17.403979238754346 9.109861591695505  15.97923875432525 15.203287197231816  C 17.741349480968836 16.2153979238754  19.48269896193773 17.464532871972324  21.102076124567475 19.043252595155707  Z " fill-rule="evenodd" />
    </mask>
  </defs>
  <g>
    <path d="M 49.913494809688586 14.603806228373685  C 49.91695501730101 14.221453287197221  49.62456747404843 13.92560553633217  49.2430795847751 13.92733564013838  C 46.73096885813152 13.938581314878888  37.564013840830455 14.460207612456713  30.744809688581316 21.107266435986162  C 27.87975778546712 23.670415224913487  26.128892733563987 26.583044982698937  25 29.31314878892732  C 23.871107266435956 26.583044982698937  22.12024221453288 23.670415224913487  19.255190311418687 21.107266435986162  C 12.435986159169545 14.460207612456713  3.2690311418685383 13.938581314878888  0.7569204152248972 13.92733564013838  C 0.37543252595156673 13.92560553633217  0.08304498269893656 14.221453287197221  0.08650519031141357 14.603806228373685  C 0.10640138408302846 17.01903114186848  0.7041522491349497 25.51557093425606  7.765570934256061 31.844290657439444  C 15.033737024221466 38.922145328719694  22.231833910034595 38.84083044982697  25 38.84083044982697  C 27.76816608996541 38.84083044982697  34.964532871972324 38.92301038062283  42.23442906574394 31.844290657439444  C 49.296712802768184 25.514705882352928  49.89359861591697 17.01903114186848  49.913494809688586 14.603806228373685  Z M 21.102076124567475 19.043252595155707  C 22.576118208817206 20.364014928523602  23.884414888882475 21.858796170889494  24.99826989619379 23.494809688581313  C 26.10726643598616 21.86418685121106  27.38581314878894 20.399653979238735  28.812283737024245 19.124567474048433  C 30.46366782006919 17.514705882352928  32.236159169550206 16.24394463667818  34.0250865051903 15.216262975778534  C 32.60294117647061 9.117647058823536  29.551038062283734 3.706747404844293  25.657439446366766 0.31833910034600876  C 25.301903114186867 0.008650519031164094  24.70415224913495 0.008650519031164094  24.34775086505192 0.31833910034600876  C 20.45588235294116 3.7041522491349497  17.403979238754346 9.109861591695505  15.97923875432525 15.203287197231816  C 17.741349480968836 16.2153979238754  19.48269896193773 17.464532871972324  21.102076124567475 19.043252595155707  Z " fill-rule="nonzero" fill="rgba(0, 0, 0, 1)" stroke="none" class="fill" />
    <path d="M 49.913494809688586 14.603806228373685  C 49.91695501730101 14.221453287197221  49.62456747404843 13.92560553633217  49.2430795847751 13.92733564013838  C 46.73096885813152 13.938581314878888  37.564013840830455 14.460207612456713  30.744809688581316 21.107266435986162  C 27.87975778546712 23.670415224913487  26.128892733563987 26.583044982698937  25 29.31314878892732  C 23.871107266435956 26.583044982698937  22.12024221453288 23.670415224913487  19.255190311418687 21.107266435986162  C 12.435986159169545 14.460207612456713  3.2690311418685383 13.938581314878888  0.7569204152248972 13.92733564013838  C 0.37543252595156673 13.92560553633217  0.08304498269893656 14.221453287197221  0.08650519031141357 14.603806228373685  C 0.10640138408302846 17.01903114186848  0.7041522491349497 25.51557093425606  7.765570934256061 31.844290657439444  C 15.033737024221466 38.922145328719694  22.231833910034595 38.84083044982697  25 38.84083044982697  C 27.76816608996541 38.84083044982697  34.964532871972324 38.92301038062283  42.23442906574394 31.844290657439444  C 49.296712802768184 25.514705882352928  49.89359861591697 17.01903114186848  49.913494809688586 14.603806228373685  Z " stroke-width="0" stroke-dasharray="0" stroke="rgba(255, 255, 255, 0)" fill="none" class="stroke" mask="url(#Clip1993)" />
    <path d="M 21.102076124567475 19.043252595155707  C 22.576118208817206 20.364014928523602  23.884414888882475 21.858796170889494  24.99826989619379 23.494809688581313  C 26.10726643598616 21.86418685121106  27.38581314878894 20.399653979238735  28.812283737024245 19.124567474048433  C 30.46366782006919 17.514705882352928  32.236159169550206 16.24394463667818  34.0250865051903 15.216262975778534  C 32.60294117647061 9.117647058823536  29.551038062283734 3.706747404844293  25.657439446366766 0.31833910034600876  C 25.301903114186867 0.008650519031164094  24.70415224913495 0.008650519031164094  24.34775086505192 0.31833910034600876  C 20.45588235294116 3.7041522491349497  17.403979238754346 9.109861591695505  15.97923875432525 15.203287197231816  C 17.741349480968836 16.2153979238754  19.48269896193773 17.464532871972324  21.102076124567475 19.043252595155707  Z " stroke-width="0" stroke-dasharray="0" stroke="rgba(255, 255, 255, 0)" fill="none" class="stroke" mask="url(#Clip1993)" />
  </g>
</svg>