<?xml version="1.0" encoding="utf-8"?>
<svg version="1.1" xmlns:xlink="http://www.w3.org/1999/xlink" width="50px" height="50px" xmlns="http://www.w3.org/2000/svg">
  <defs>
    <pattern id="BGPattern" patternUnits="userSpaceOnUse" alignment="0 0" imageRepeat="None" />
    <mask fill="white" id="Clip1486">
      <path d="M 4.6875 20.3125  C 4.6875 31.533203124999996  13.779296875 40.625  25 40.625  C 36.220703125 40.625  45.3125 31.533203124999996  45.3125 20.3125  C 45.3125 9.091796875  36.220703125 0  25 0  C 13.779296875 0  4.6875 9.091796875  4.6875 20.3125  Z M 17.060546875 15.605468750000002  C 17.0703125 12.28515625  19.638671875 9.599609375  22.83203125 9.51171875  L 22.83203125 7.871093749999999  C 22.83203125 6.972656250000001  23.5546875 6.25  24.453125 6.25  L 25.537109375 6.25  C 26.435546875 6.25  27.158203125000004 6.972656250000001  27.158203125000004 7.871093749999999  L 27.158203125000004 9.53125  C 28.671875000000004 9.609375  30.136718750000004 10.126953125  31.357421875000004 11.03515625  C 31.904296875 11.435546875  31.962890625 12.236328125  31.474609375 12.705078125  L 29.8828125 14.21875  C 29.51171875 14.580078125000002  28.955078125 14.58984375  28.515625 14.31640625  C 27.988281250000004 13.984374999999998  27.402343750000004 13.818359375  26.77734375 13.818359375  L 22.978515625 13.818359375  C 22.099609375 13.818359375  21.38671875 14.619140624999998  21.38671875 15.605468750000002  C 21.38671875 16.40625  21.875 17.119140625  22.568359375 17.32421875  L 28.652343749999996 19.150390625  C 31.162109375000004 19.90234375  32.919921875 22.314453125  32.919921875 25.01953125  C 32.919921875 28.33984375  30.341796875 31.025390625  27.1484375 31.113281250000004  L 27.1484375 32.75390625  C 27.1484375 33.65234375  26.425781250000004 34.375  25.527343749999996 34.375  L 24.443359375 34.375  C 23.544921875 34.375  22.822265625 33.65234375  22.822265625 32.75390625  L 22.822265625 31.093749999999996  C 21.30859375 31.015625000000004  19.84375 30.498046875  18.623046875 29.58984375  C 18.076171875 29.189453124999996  18.017578125 28.388671875  18.505859375 27.919921874999996  L 20.09765625 26.406249999999996  C 20.46875 26.044921875  21.025390625 26.035156250000004  21.46484375 26.308593749999996  C 21.9921875 26.640625  22.578125 26.806640625  23.203125 26.806640625  L 27.001953125 26.806640625  C 27.880859375 26.806640625  28.59375 26.005859375  28.59375 25.01953125  C 28.59375 24.21875  28.10546875 23.505859375  27.412109375 23.30078125  L 21.328125 21.474609375  C 18.818359375 20.72265625  17.060546875 18.310546875  17.060546875 15.605468750000002  Z M 50 37.5  C 50 35.771484375  48.603515625 34.375  46.875 34.375  L 43.701171875 34.375  C 41.787109375 36.9140625  39.345703125 39.033203125  36.572265625 40.625  L 42.802734375 40.625  C 43.3203125 40.625  43.740234375 40.9765625  43.740234375 41.40625  L 43.740234375 42.96875  C 43.740234375 43.3984375  43.3203125 43.75  42.802734375 43  L 7.187499999999999 43  C 6.669921875 43.75  6.25 43.3984375  6.25 42.96875  L 6.25 41.40625  C 6.25 40.9765625  6.669921875 40.625  7.187499999999999 40.625  L 13.41796875 40.625  C 10.64453125 39.033203125  8.212890625 36.9140625  6.289062500000001 34.375  L 3.125 34.375  C 1.396484375 34.375  0 35.771484375  0 37.5  L 0 46.875  C 0 48.603515625  1.396484375 50  3.125 50  L 46.875 50  C 48.603515625 50  50 48.603515625  50 46.875  L 50 37.5  Z " fill-rule="evenodd" />
    </mask>
  </defs>
  <g>
    <path d="M 4.6875 20.3125  C 4.6875 31.533203124999996  13.779296875 40.625  25 40.625  C 36.220703125 40.625  45.3125 31.533203124999996  45.3125 20.3125  C 45.3125 9.091796875  36.220703125 0  25 0  C 13.779296875 0  4.6875 9.091796875  4.6875 20.3125  Z M 17.060546875 15.605468750000002  C 17.0703125 12.28515625  19.638671875 9.599609375  22.83203125 9.51171875  L 22.83203125 7.871093749999999  C 22.83203125 6.972656250000001  23.5546875 6.25  24.453125 6.25  L 25.537109375 6.25  C 26.435546875 6.25  27.158203125000004 6.972656250000001  27.158203125000004 7.871093749999999  L 27.158203125000004 9.53125  C 28.671875000000004 9.609375  30.136718750000004 10.126953125  31.357421875000004 11.03515625  C 31.904296875 11.435546875  31.962890625 12.236328125  31.474609375 12.705078125  L 29.8828125 14.21875  C 29.51171875 14.580078125000002  28.955078125 14.58984375  28.515625 14.31640625  C 27.988281250000004 13.984374999999998  27.402343750000004 13.818359375  26.77734375 13.818359375  L 22.978515625 13.818359375  C 22.099609375 13.818359375  21.38671875 14.619140624999998  21.38671875 15.605468750000002  C 21.38671875 16.40625  21.875 17.119140625  22.568359375 17.32421875  L 28.652343749999996 19.150390625  C 31.162109375000004 19.90234375  32.919921875 22.314453125  32.919921875 25.01953125  C 32.919921875 28.33984375  30.341796875 31.025390625  27.1484375 31.113281250000004  L 27.1484375 32.75390625  C 27.1484375 33.65234375  26.425781250000004 34.375  25.527343749999996 34.375  L 24.443359375 34.375  C 23.544921875 34.375  22.822265625 33.65234375  22.822265625 32.75390625  L 22.822265625 31.093749999999996  C 21.30859375 31.015625000000004  19.84375 30.498046875  18.623046875 29.58984375  C 18.076171875 29.189453124999996  18.017578125 28.388671875  18.505859375 27.919921874999996  L 20.09765625 26.406249999999996  C 20.46875 26.044921875  21.025390625 26.035156250000004  21.46484375 26.308593749999996  C 21.9921875 26.640625  22.578125 26.806640625  23.203125 26.806640625  L 27.001953125 26.806640625  C 27.880859375 26.806640625  28.59375 26.005859375  28.59375 25.01953125  C 28.59375 24.21875  28.10546875 23.505859375  27.412109375 23.30078125  L 21.328125 21.474609375  C 18.818359375 20.72265625  17.060546875 18.310546875  17.060546875 15.605468750000002  Z M 50 37.5  C 50 35.771484375  48.603515625 34.375  46.875 34.375  L 43.701171875 34.375  C 41.787109375 36.9140625  39.345703125 39.033203125  36.572265625 40.625  L 42.802734375 40.625  C 43.3203125 40.625  43.740234375 40.9765625  43.740234375 41.40625  L 43.740234375 42.96875  C 43.740234375 43.3984375  43.3203125 43.75  42.802734375 43  L 7.187499999999999 43  C 6.669921875 43.75  6.25 43.3984375  6.25 42.96875  L 6.25 41.40625  C 6.25 40.9765625  6.669921875 40.625  7.187499999999999 40.625  L 13.41796875 40.625  C 10.64453125 39.033203125  8.212890625 36.9140625  6.289062500000001 34.375  L 3.125 34.375  C 1.396484375 34.375  0 35.771484375  0 37.5  L 0 46.875  C 0 48.603515625  1.396484375 50  3.125 50  L 46.875 50  C 48.603515625 50  50 48.603515625  50 46.875  L 50 37.5  Z " fill-rule="nonzero" fill="rgba(0, 0, 0, 1)" stroke="none" class="fill" />
    <path d="M 4.6875 20.3125  C 4.6875 31.533203124999996  13.779296875 40.625  25 40.625  C 36.220703125 40.625  45.3125 31.533203124999996  45.3125 20.3125  C 45.3125 9.091796875  36.220703125 0  25 0  C 13.779296875 0  4.6875 9.091796875  4.6875 20.3125  Z " stroke-width="0" stroke-dasharray="0" stroke="rgba(255, 255, 255, 0)" fill="none" class="stroke" mask="url(#Clip1486)" />
    <path d="M 17.060546875 15.605468750000002  C 17.0703125 12.28515625  19.638671875 9.599609375  22.83203125 9.51171875  L 22.83203125 7.871093749999999  C 22.83203125 6.972656250000001  23.5546875 6.25  24.453125 6.25  L 25.537109375 6.25  C 26.435546875 6.25  27.158203125000004 6.972656250000001  27.158203125000004 7.871093749999999  L 27.158203125000004 9.53125  C 28.671875000000004 9.609375  30.136718750000004 10.126953125  31.357421875000004 11.03515625  C 31.904296875 11.435546875  31.962890625 12.236328125  31.474609375 12.705078125  L 29.8828125 14.21875  C 29.51171875 14.580078125000002  28.955078125 14.58984375  28.515625 14.31640625  C 27.988281250000004 13.984374999999998  27.402343750000004 13.818359375  26.77734375 13.818359375  L 22.978515625 13.818359375  C 22.099609375 13.818359375  21.38671875 14.619140624999998  21.38671875 15.605468750000002  C 21.38671875 16.40625  21.875 17.119140625  22.568359375 17.32421875  L 28.652343749999996 19.150390625  C 31.162109375000004 19.90234375  32.919921875 22.314453125  32.919921875 25.01953125  C 32.919921875 28.33984375  30.341796875 31.025390625  27.1484375 31.113281250000004  L 27.1484375 32.75390625  C 27.1484375 33.65234375  26.425781250000004 34.375  25.527343749999996 34.375  L 24.443359375 34.375  C 23.544921875 34.375  22.822265625 33.65234375  22.822265625 32.75390625  L 22.822265625 31.093749999999996  C 21.30859375 31.015625000000004  19.84375 30.498046875  18.623046875 29.58984375  C 18.076171875 29.189453124999996  18.017578125 28.388671875  18.505859375 27.919921874999996  L 20.09765625 26.406249999999996  C 20.46875 26.044921875  21.025390625 26.035156250000004  21.46484375 26.308593749999996  C 21.9921875 26.640625  22.578125 26.806640625  23.203125 26.806640625  L 27.001953125 26.806640625  C 27.880859375 26.806640625  28.59375 26.005859375  28.59375 25.01953125  C 28.59375 24.21875  28.10546875 23.505859375  27.412109375 23.30078125  L 21.328125 21.474609375  C 18.818359375 20.72265625  17.060546875 18.310546875  17.060546875 15.605468750000002  Z " stroke-width="0" stroke-dasharray="0" stroke="rgba(255, 255, 255, 0)" fill="none" class="stroke" mask="url(#Clip1486)" />
    <path d="M 50 37.5  C 50 35.771484375  48.603515625 34.375  46.875 34.375  L 43.701171875 34.375  C 41.787109375 36.9140625  39.345703125 39.033203125  36.572265625 40.625  L 42.802734375 40.625  C 43.3203125 40.625  43.740234375 40.9765625  43.740234375 41.40625  L 43.740234375 42.96875  C 43.740234375 43.3984375  43.3203125 43.75  42.802734375 43  L 7.187499999999999 43  C 6.669921875 43.75  6.25 43.3984375  6.25 42.96875  L 6.25 41.40625  C 6.25 40.9765625  6.669921875 40.625  7.187499999999999 40.625  L 13.41796875 40.625  C 10.64453125 39.033203125  8.212890625 36.9140625  6.289062500000001 34.375  L 3.125 34.375  C 1.396484375 34.375  0 35.771484375  0 37.5  L 0 46.875  C 0 48.603515625  1.396484375 50  3.125 50  L 46.875 50  C 48.603515625 50  50 48.603515625  50 46.875  L 50 37.5  Z " stroke-width="0" stroke-dasharray="0" stroke="rgba(255, 255, 255, 0)" fill="none" class="stroke" mask="url(#Clip1486)" />
  </g>
</svg>