<?xml version="1.0" encoding="utf-8"?>
<svg version="1.1" xmlns:xlink="http://www.w3.org/1999/xlink" width="6px" height="18px" xmlns="http://www.w3.org/2000/svg">
  <defs>
    <pattern id="BGPattern" patternUnits="userSpaceOnUse" alignment="0 0" imageRepeat="None" />
    <mask fill="white" id="Clip5325">
      <path d="M 0 1.5  L 0 16.5  C 0 17.32842712474619  0.6715728752538102 18  1.5 18  L 4.5 18  C 5.32842712474619 18  6 17.32842712474619  6 16.5  L 6 1.5  C 6 0.6715728752538102  5.32842712474619 0  4.5 0  L 1.5 0  C 0.6715728752538102 0  0 0.6715728752538102  0 1.5  Z " fill-rule="evenodd" />
    </mask>
  </defs>
  <g transform="matrix(1 0 0 1 -8 -2 )">
    <path d="M 0 1.5  L 0 16.5  C 0 17.32842712474619  0.6715728752538102 18  1.5 18  L 4.5 18  C 5.32842712474619 18  6 17.32842712474619  6 16.5  L 6 1.5  C 6 0.6715728752538102  5.32842712474619 0  4.5 0  L 1.5 0  C 0.6715728752538102 0  0 0.6715728752538102  0 1.5  Z " fill-rule="nonzero" fill="rgba(0, 0, 0, 1)" stroke="none" transform="matrix(1 0 0 1 8 2 )" class="fill" />
    <path d="M 0 1.5  L 0 16.5  C 0 17.32842712474619  0.6715728752538102 18  1.5 18  L 4.5 18  C 5.32842712474619 18  6 17.32842712474619  6 16.5  L 6 1.5  C 6 0.6715728752538102  5.32842712474619 0  4.5 0  L 1.5 0  C 0.6715728752538102 0  0 0.6715728752538102  0 1.5  Z " stroke-width="0" stroke-dasharray="0" stroke="rgba(255, 255, 255, 0)" fill="none" transform="matrix(1 0 0 1 8 2 )" class="stroke" mask="url(#Clip5325)" />
  </g>
</svg>