<?xml version="1.0" encoding="utf-8"?>
<svg version="1.1" xmlns:xlink="http://www.w3.org/1999/xlink" width="25px" height="18px" xmlns="http://www.w3.org/2000/svg">
  <defs>
    <pattern id="BGPattern" patternUnits="userSpaceOnUse" alignment="0 0" imageRepeat="None" />
    <mask fill="white" id="Clip6056">
      <path d="M 4.5 4.500000000000001  C 4.5 6.985281374238572  6.514718625761429 9  9 9  C 11.48528137423857 9  13.5 6.985281374238572  13.5 4.500000000000001  C 13.5 2.0147186257614296  11.48528137423857 0  9 0  C 6.514718625761429 0  4.5 2.0147186257614296  4.5 4.500000000000001  Z M 9 10.5  C 16.5 10.5  18 15  18 16.5  C 18 18  16.5 18  16.5 18  L 1.5 18  C 1.5 18  0 18  0 16.5  C 0 15  1.5 10.5  9 10.5  Z M 17.99865932447187 5.250000000000002  C 17.99865932447187 5.050759108712639  18.077937448968548 4.859706394515251  18.219 4.719000000000002  C 18.35970639451525 4.577937448968551  18.55075910871264 4.498659324471874  18.75 4.498659324471874  C 18.94924089128736 4.498659324471874  19.14029360548475 4.57793744896855  19.281000000000002 4.719000000000002  L 21 6.439500000000002  L 22.719 4.718999999999999  C 22.859829956104797 4.578170043895203  23.05083636608819 4.499052598379888  23.25 4.499052598379888  C 23.66473679783985 4.499052598379888  24.000947401620117 4.835263202160152  24.000947401620117 5.250000000000002  C 24.000947401620117 5.449163633911813  23.921829956104798 5.640170043895203  23.781000000000002 5.7810000000000015  L 22.0605 7.500000000000002  L 23.781000000000002 9.219000000000001  C 23.921829956104798 9.3598299561048  24.000947401620117 9.550836366088191  24.000947401620117 9.75  C 24.000947401620117 10.16473679783985  23.66473679783985 10.500947401620117  23.25 10.500947401620117  C 23.050836366088188 10.500947401620117  22.8598299561048 10.421829956104798  22.719 10.281000000000002  L 21 8.560500000000001  L 19.281 10.280999999999999  C 19.140170043895203 10.421829956104794  18.94916363391181 10.500947401620117  18.75 10.500947401620117  C 18.33526320216015 10.500947401620117  17.999052598379883 10.16473679783985  17.999052598379883 9.75  C 17.999052598379883 9.550836366088188  18.078170043895202 9.359829956104797  18.218999999999998 9.218999999999998  L 19.9395 7.500000000000002  L 18.218999999999998 5.7810000000000015  C 18.077937448968548 5.640293605484751  17.99865932447187 5.449240891287363  17.99865932447187 5.250000000000002  Z M 9 1.5000000000000009  C 10.65685424949238 1.5000000000000009  12 2.8431457505076203  12 4.500000000000001  C 12 6.1568542494923815  10.65685424949238 7.500000000000002  9 7.500000000000002  C 7.343145750507621 7.500000000000002  6 6.1568542494923815  6 4.500000000000001  C 6 2.8431457505076203  7.343145750507621 1.5000000000000009  9 1.5000000000000009  Z M 1.4999999999999998 16.494  L 16.5 16.494  C 16.4985 16.125  16.269 15.015  15.251999999999999 13.998000000000001  C 14.274000000000001 13.02  12.433499999999999 12  9 12  C 5.5649999999999995 12  3.726 13.02  2.7479999999999998 13.998000000000001  C 1.7309999999999999 15.015  1.5029999999999997 16.125  1.4999999999999998 16.494  Z " fill-rule="evenodd" />
    </mask>
  </defs>
  <g>
    <path d="M 4.5 4.500000000000001  C 4.5 6.985281374238572  6.514718625761429 9  9 9  C 11.48528137423857 9  13.5 6.985281374238572  13.5 4.500000000000001  C 13.5 2.0147186257614296  11.48528137423857 0  9 0  C 6.514718625761429 0  4.5 2.0147186257614296  4.5 4.500000000000001  Z M 9 10.5  C 16.5 10.5  18 15  18 16.5  C 18 18  16.5 18  16.5 18  L 1.5 18  C 1.5 18  0 18  0 16.5  C 0 15  1.5 10.5  9 10.5  Z M 17.99865932447187 5.250000000000002  C 17.99865932447187 5.050759108712639  18.077937448968548 4.859706394515251  18.219 4.719000000000002  C 18.35970639451525 4.577937448968551  18.55075910871264 4.498659324471874  18.75 4.498659324471874  C 18.94924089128736 4.498659324471874  19.14029360548475 4.57793744896855  19.281000000000002 4.719000000000002  L 21 6.439500000000002  L 22.719 4.718999999999999  C 22.859829956104797 4.578170043895203  23.05083636608819 4.499052598379888  23.25 4.499052598379888  C 23.66473679783985 4.499052598379888  24.000947401620117 4.835263202160152  24.000947401620117 5.250000000000002  C 24.000947401620117 5.449163633911813  23.921829956104798 5.640170043895203  23.781000000000002 5.7810000000000015  L 22.0605 7.500000000000002  L 23.781000000000002 9.219000000000001  C 23.921829956104798 9.3598299561048  24.000947401620117 9.550836366088191  24.000947401620117 9.75  C 24.000947401620117 10.16473679783985  23.66473679783985 10.500947401620117  23.25 10.500947401620117  C 23.050836366088188 10.500947401620117  22.8598299561048 10.421829956104798  22.719 10.281000000000002  L 21 8.560500000000001  L 19.281 10.280999999999999  C 19.140170043895203 10.421829956104794  18.94916363391181 10.500947401620117  18.75 10.500947401620117  C 18.33526320216015 10.500947401620117  17.999052598379883 10.16473679783985  17.999052598379883 9.75  C 17.999052598379883 9.550836366088188  18.078170043895202 9.359829956104797  18.218999999999998 9.218999999999998  L 19.9395 7.500000000000002  L 18.218999999999998 5.7810000000000015  C 18.077937448968548 5.640293605484751  17.99865932447187 5.449240891287363  17.99865932447187 5.250000000000002  Z M 9 1.5000000000000009  C 10.65685424949238 1.5000000000000009  12 2.8431457505076203  12 4.500000000000001  C 12 6.1568542494923815  10.65685424949238 7.500000000000002  9 7.500000000000002  C 7.343145750507621 7.500000000000002  6 6.1568542494923815  6 4.500000000000001  C 6 2.8431457505076203  7.343145750507621 1.5000000000000009  9 1.5000000000000009  Z M 1.4999999999999998 16.494  L 16.5 16.494  C 16.4985 16.125  16.269 15.015  15.251999999999999 13.998000000000001  C 14.274000000000001 13.02  12.433499999999999 12  9 12  C 5.5649999999999995 12  3.726 13.02  2.7479999999999998 13.998000000000001  C 1.7309999999999999 15.015  1.5029999999999997 16.125  1.4999999999999998 16.494  Z " fill-rule="nonzero" fill="rgba(0, 0, 0, 1)" stroke="none" class="fill" />
    <path d="M 4.5 4.500000000000001  C 4.5 6.985281374238572  6.514718625761429 9  9 9  C 11.48528137423857 9  13.5 6.985281374238572  13.5 4.500000000000001  C 13.5 2.0147186257614296  11.48528137423857 0  9 0  C 6.514718625761429 0  4.5 2.0147186257614296  4.5 4.500000000000001  Z " stroke-width="0" stroke-dasharray="0" stroke="rgba(255, 255, 255, 0)" fill="none" class="stroke" mask="url(#Clip6056)" />
    <path d="M 9 10.5  C 16.5 10.5  18 15  18 16.5  C 18 18  16.5 18  16.5 18  L 1.5 18  C 1.5 18  0 18  0 16.5  C 0 15  1.5 10.5  9 10.5  Z " stroke-width="0" stroke-dasharray="0" stroke="rgba(255, 255, 255, 0)" fill="none" class="stroke" mask="url(#Clip6056)" />
    <path d="M 17.99865932447187 5.250000000000002  C 17.99865932447187 5.050759108712639  18.077937448968548 4.859706394515251  18.219 4.719000000000002  C 18.35970639451525 4.577937448968551  18.55075910871264 4.498659324471874  18.75 4.498659324471874  C 18.94924089128736 4.498659324471874  19.14029360548475 4.57793744896855  19.281000000000002 4.719000000000002  L 21 6.439500000000002  L 22.719 4.718999999999999  C 22.859829956104797 4.578170043895203  23.05083636608819 4.499052598379888  23.25 4.499052598379888  C 23.66473679783985 4.499052598379888  24.000947401620117 4.835263202160152  24.000947401620117 5.250000000000002  C 24.000947401620117 5.449163633911813  23.921829956104798 5.640170043895203  23.781000000000002 5.7810000000000015  L 22.0605 7.500000000000002  L 23.781000000000002 9.219000000000001  C 23.921829956104798 9.3598299561048  24.000947401620117 9.550836366088191  24.000947401620117 9.75  C 24.000947401620117 10.16473679783985  23.66473679783985 10.500947401620117  23.25 10.500947401620117  C 23.050836366088188 10.500947401620117  22.8598299561048 10.421829956104798  22.719 10.281000000000002  L 21 8.560500000000001  L 19.281 10.280999999999999  C 19.140170043895203 10.421829956104794  18.94916363391181 10.500947401620117  18.75 10.500947401620117  C 18.33526320216015 10.500947401620117  17.999052598379883 10.16473679783985  17.999052598379883 9.75  C 17.999052598379883 9.550836366088188  18.078170043895202 9.359829956104797  18.218999999999998 9.218999999999998  L 19.9395 7.500000000000002  L 18.218999999999998 5.7810000000000015  C 18.077937448968548 5.640293605484751  17.99865932447187 5.449240891287363  17.99865932447187 5.250000000000002  Z " stroke-width="0" stroke-dasharray="0" stroke="rgba(255, 255, 255, 0)" fill="none" class="stroke" mask="url(#Clip6056)" />
    <path d="M 9 1.5000000000000009  C 10.65685424949238 1.5000000000000009  12 2.8431457505076203  12 4.500000000000001  C 12 6.1568542494923815  10.65685424949238 7.500000000000002  9 7.500000000000002  C 7.343145750507621 7.500000000000002  6 6.1568542494923815  6 4.500000000000001  C 6 2.8431457505076203  7.343145750507621 1.5000000000000009  9 1.5000000000000009  Z " stroke-width="0" stroke-dasharray="0" stroke="rgba(255, 255, 255, 0)" fill="none" class="stroke" mask="url(#Clip6056)" />
    <path d="M 1.4999999999999998 16.494  L 16.5 16.494  C 16.4985 16.125  16.269 15.015  15.251999999999999 13.998000000000001  C 14.274000000000001 13.02  12.433499999999999 12  9 12  C 5.5649999999999995 12  3.726 13.02  2.7479999999999998 13.998000000000001  C 1.7309999999999999 15.015  1.5029999999999997 16.125  1.4999999999999998 16.494  Z " stroke-width="0" stroke-dasharray="0" stroke="rgba(255, 255, 255, 0)" fill="none" class="stroke" mask="url(#Clip6056)" />
  </g>
</svg>