<?xml version="1.0" encoding="utf-8"?>
<svg version="1.1" xmlns:xlink="http://www.w3.org/1999/xlink" width="4px" height="4px" xmlns="http://www.w3.org/2000/svg">
  <defs>
    <pattern id="BGPattern" patternUnits="userSpaceOnUse" alignment="0 0" imageRepeat="None" />
    <mask fill="white" id="Clip3066">
      <path d="M 0.24999999999999645 2  C 0.24999999999999645 2.966498312203889  1.033501687796111 3.75  1.9999999999999964 3.75  C 2.9664983122038855 3.75  3.7499999999999964 2.966498312203889  3.7499999999999964 2  C 3.7499999999999964 1.033501687796111  2.9664983122038855 0.25  1.9999999999999964 0.25  C 1.033501687796111 0.25  0.24999999999999645 1.033501687796111  0.24999999999999645 2  Z " fill-rule="evenodd" />
    </mask>
  </defs>
  <g transform="matrix(1 0 0 1 -13 -11 )">
    <path d="M 0.24999999999999645 2  C 0.24999999999999645 2.966498312203889  1.033501687796111 3.75  1.9999999999999964 3.75  C 2.9664983122038855 3.75  3.7499999999999964 2.966498312203889  3.7499999999999964 2  C 3.7499999999999964 1.033501687796111  2.9664983122038855 0.25  1.9999999999999964 0.25  C 1.033501687796111 0.25  0.24999999999999645 1.033501687796111  0.24999999999999645 2  Z " fill-rule="nonzero" fill="rgba(230, 230, 230, 1)" stroke="none" transform="matrix(1 0 0 1 13 11 )" class="fill" />
    <path d="M 0.24999999999999645 2  C 0.24999999999999645 2.966498312203889  1.033501687796111 3.75  1.9999999999999964 3.75  C 2.9664983122038855 3.75  3.7499999999999964 2.966498312203889  3.7499999999999964 2  C 3.7499999999999964 1.033501687796111  2.9664983122038855 0.25  1.9999999999999964 0.25  C 1.033501687796111 0.25  0.24999999999999645 1.033501687796111  0.24999999999999645 2  Z " stroke-width="0" stroke-dasharray="0" stroke="rgba(255, 255, 255, 0)" fill="none" transform="matrix(1 0 0 1 13 11 )" class="stroke" mask="url(#Clip3066)" />
  </g>
</svg>