<?xml version="1.0" encoding="utf-8"?>
<svg version="1.1" xmlns:xlink="http://www.w3.org/1999/xlink" width="19px" height="50px" xmlns="http://www.w3.org/2000/svg">
  <defs>
    <pattern id="BGPattern" patternUnits="userSpaceOnUse" alignment="0 0" imageRepeat="None" />
    <mask fill="white" id="Clip1700">
      <path d="M 0 43.38173828125002  C 0 42.30302734374999  0.8744140624999943 41.42861328125002  1.9531249999999998 41.42861328125002  L 4 41.42861328125002  L 4 27.32138671874998  L 1.9531249999999998 27.32138671874998  C 0.8744140624999943 27.32138671874998  0 26.44697265625001  0 25.36826171874998  L 0 20.703125  C 0 19.624414062500023  0.8744140624999943 18.75  1.9531249999999998 19  L 12.890625 19  C 13.969335937500007 18.75  14.84375 19.624414062500023  14.84375 20.703125  L 14.84375 41.42861328125002  L 16.796875 41.42861328125002  C 17.875585937500006 41.42861328125002  18.75 42.30302734374999  18.75 43.38173828125002  L 18.75 48.046875  C 18.75 49.12558593749998  17.875585937500006 50  16.796875 50  L 1.9531249999999998 50  C 0.8744140624999943 50  0 49.12558593749998  0 48.046875  L 0 43.38173828125002  Z M 16.40625 7.03125  C 16.40625 3.14794921875  13.258203124999994 0  9.375 0  C 5.49169921875 0  2.34375 3.14794921875  2.34375 7.03125  C 2.34375 10.91455078125  5.49169921875 14.0625  9.375 14.0625  C 13.25830078125 14.0625  16.40625 10.91455078125  16.40625 7.03125  Z " fill-rule="evenodd" />
    </mask>
  </defs>
  <g>
    <path d="M 0 43.38173828125002  C 0 42.30302734374999  0.8744140624999943 41.42861328125002  1.9531249999999998 41.42861328125002  L 4 41.42861328125002  L 4 27.32138671874998  L 1.9531249999999998 27.32138671874998  C 0.8744140624999943 27.32138671874998  0 26.44697265625001  0 25.36826171874998  L 0 20.703125  C 0 19.624414062500023  0.8744140624999943 18.75  1.9531249999999998 19  L 12.890625 19  C 13.969335937500007 18.75  14.84375 19.624414062500023  14.84375 20.703125  L 14.84375 41.42861328125002  L 16.796875 41.42861328125002  C 17.875585937500006 41.42861328125002  18.75 42.30302734374999  18.75 43.38173828125002  L 18.75 48.046875  C 18.75 49.12558593749998  17.875585937500006 50  16.796875 50  L 1.9531249999999998 50  C 0.8744140624999943 50  0 49.12558593749998  0 48.046875  L 0 43.38173828125002  Z M 16.40625 7.03125  C 16.40625 3.14794921875  13.258203124999994 0  9.375 0  C 5.49169921875 0  2.34375 3.14794921875  2.34375 7.03125  C 2.34375 10.91455078125  5.49169921875 14.0625  9.375 14.0625  C 13.25830078125 14.0625  16.40625 10.91455078125  16.40625 7.03125  Z " fill-rule="nonzero" fill="rgba(0, 0, 0, 1)" stroke="none" class="fill" />
    <path d="M 0 43.38173828125002  C 0 42.30302734374999  0.8744140624999943 41.42861328125002  1.9531249999999998 41.42861328125002  L 4 41.42861328125002  L 4 27.32138671874998  L 1.9531249999999998 27.32138671874998  C 0.8744140624999943 27.32138671874998  0 26.44697265625001  0 25.36826171874998  L 0 20.703125  C 0 19.624414062500023  0.8744140624999943 18.75  1.9531249999999998 19  L 12.890625 19  C 13.969335937500007 18.75  14.84375 19.624414062500023  14.84375 20.703125  L 14.84375 41.42861328125002  L 16.796875 41.42861328125002  C 17.875585937500006 41.42861328125002  18.75 42.30302734374999  18.75 43.38173828125002  L 18.75 48.046875  C 18.75 49.12558593749998  17.875585937500006 50  16.796875 50  L 1.9531249999999998 50  C 0.8744140624999943 50  0 49.12558593749998  0 48.046875  L 0 43.38173828125002  Z " stroke-width="0" stroke-dasharray="0" stroke="rgba(255, 255, 255, 0)" fill="none" class="stroke" mask="url(#Clip1700)" />
    <path d="M 16.40625 7.03125  C 16.40625 3.14794921875  13.258203124999994 0  9.375 0  C 5.49169921875 0  2.34375 3.14794921875  2.34375 7.03125  C 2.34375 10.91455078125  5.49169921875 14.0625  9.375 14.0625  C 13.25830078125 14.0625  16.40625 10.91455078125  16.40625 7.03125  Z " stroke-width="0" stroke-dasharray="0" stroke="rgba(255, 255, 255, 0)" fill="none" class="stroke" mask="url(#Clip1700)" />
  </g>
</svg>