<?xml version="1.0" encoding="utf-8"?>
<svg version="1.1" xmlns:xlink="http://www.w3.org/1999/xlink" width="48px" height="18px" xmlns="http://www.w3.org/2000/svg">
  <defs>
    <pattern id="BGPattern" patternUnits="userSpaceOnUse" alignment="0 0" imageRepeat="None" />
    <mask fill="white" id="Clip7311">
      <path d="M 45.7818182 15.608571419999997  L 41.769697 15.621428600000002  L 41.769697 17.9485714  L 45.7333334 17.9485714  C 46.5454546 17.9485714  47.939394 17.318571399999996  47.9878788 15.557142859999999  L 47.9878788 14.65714286  C 47.9878788 13.152857140000002  46.824242399999996 12.26571426  45.7333334 12.26571426  L 43.7575758 12.26571426  L 43.7575758 11.185714259999997  L 47.6727272 11.185714259999997  L 47.6727272 8.845714259999998  L 43.915151599999994 8.845714259999998  C 42.94545459999999 8.845714259999998  41.64848479999999 9.694285719999996  41.64848479999999 11.275714259999997  L 41.64848479999999 12.085714259999996  C 41.64848479999999 13.667142859999995  42.93333339999999 14.477142859999997  43.915151599999994 14.477142859999997  C 46.642424199999994 14.489999999999998  43.260605999999996 14.477142859999997  45.7818182 14.477142859999997  L 45.7818182 15.608571419999997  Z M 23.2363636 17.948571180000002  L 20.5333334 15.05571428  C 20.5333334 15.05571428  22.6545454 14.86285714  22.6545454 11.95714288  C 22.6545454 9.05142858  20.0848484 8.78142858  20.0848484 8.78142858  L 15.45454546 8.78142858  L 15.45454546 17.948571380000004  L 17.7818182 17.948571380000004  L 17.7818182 15.737142780000003  L 19.7939394 17.948571180000002  L 23.2363636 17.948571180000002  Z M 20.169697000000003 12.12428582  C 20.169697000000003 12.960000220000001  19.636363640000003 13.17857162  19.63636364 13.17857142  L 17.7818182 13.17857142  L 17.7818182 11.082857220000001  L 19.648484840000002 11.082857220000001  C 19.648484840000002 11.082857220000001  20.169697000000003 11.288571620000003  20.169697000000003 12.12428582  Z M 30.654545399999996 11.237143  C 30.654545399999996 9.282857279999998  28.981818199999992 8.845714399999999  28.4 8.845714399999999  L 26.036363599999994 8.845714399999999  C 24.351515199999998 8.845714399999999  23.781818199999996 10.4657144  23.781818199999996 11.237143  L 23.781818199999996 17.948571540000003  L 26.145454599999994 17.948571540000003  L 26.145454599999994 16.341428740000005  L 28.363636399999997 16.341428740000005  L 28.363636399999997 17.948571540000003  L 30.654545399999996 17.948571540000003  L 30.654545399999996 11.237143  Z M 28.3515152 13.74428572  L 28.363636399999997 13.74428584  L 26.133333399999998 13.74428584  L 26.133333399999998 11.52  C 26.133333399999998 11.52  26.133333399999998 11.018571399999999  26.872727199999996 11.018571399999999  L 27.684848399999996 11.018571399999999  C 28.339394 11.018571399999999  28.3515152 11.52  28.3515152 11.52  L 28.3515152 13.74428572  Z M 31.7333334 17.948571380000004  L 31.733333399999992 8.84571438  L 34.1939394 8.84571438  L 34.1939394 17.948571380000004  L 31.7333334 17.948571380000004  Z M 40.9575758 15.595714380000004  L 37.6484848 15.59571438  L 37.6484848 8.84571438  L 35.2 8.84571438  L 35.2 17.948571380000004  L 40.9575758 17.948571380000004  L 40.9575758 15.595714380000004  Z M 3.757575720000002 9.64285718  C 1.2121212000000021 14.14285718  0.8484848000000018 17.948571380000004  0.84848484 17.9485714  L 10.424242439999999 17.9485714  C 10.424242439999999 17.9485714  8.5939394 9.09  14.6545454 5.502857160000001  C 15.97575754 4.821428600000001  20.18181816 2.2757143000000006  27.06666656 7.675714300000003  C 27.284848359999998 7.482857160000002  27.49090896 7.328571440000001  27.49090896 7.328571440000001  C 27.49090896 7.328571440000001  21.187878760000004 0.6557143200000013  14.169696920000003 1.401428639999999  C 10.6424242 1.7357143199999996  6.303030260000002 5.14285718  3.757575720000002 9.64285718  Z M 3.757575720000002 9.64285718  C 1.2121212000000021 14.14285718  0.8484848000000018 17.948571380000004  0.84848484 17.9485714  L 10.424242439999999 17.9485714  C 10.424242439999999 17.9485714  8.5939394 9.09  14.6545454 5.502857160000001  C 15.97575754 4.821428600000001  20.18181816 2.2757143000000006  27.06666656 7.675714300000003  C 27.284848359999998 7.482857160000002  27.49090896 7.328571440000001  27.49090896 7.328571440000001  C 27.49090896 7.328571440000001  21.187878760000004 0.6557143200000013  14.169696920000003 1.401428639999999  C 10.6424242 1.7357143199999996  6.303030260000002 5.14285718  3.757575720000002 9.64285718  Z M 3.745454520000001 9.64285718  C 1.2 14.142857  0.8484848 17.9485714  0.84848484 17.9485714  L 10.424242439999999 17.9485714  C 10.424242439999999 17.9485714  8.5939394 9.09  14.6545454 5.502857160000001  C 15.97575754 4.821428600000001  20.18181816 2.2757143000000006  27.06666656 7.675714300000003  C 27.284848359999998 7.482857160000002  27.49090896 7.328571440000001  27.49090896 7.328571440000001  C 27.49090896 7.328571440000001  21.187878760000004 0.6557143200000013  14.169696920000003 1.401428639999999  C 10.630303000000001 1.7357143199999996  6.2909090600000015 5.14285718  3.745454520000001 9.64285718  Z M 19.62424242 1.6585714000000031  C 20.02424242 1.8000000000000043  20.412121220000003 1.9542857200000014  20.8 2.1214286000000016  L 20.8484848 1.2600000000000016  C 20.739394 1.1957142800000007  20.4363636 1.0414286000000033  19.67272728 0.8100000000000023  L 19.62424242 1.6585714000000031  Z M 20.848484799999998 5.014285580000003  C 20.436363599999996 4.924285580000003  20.036363599999998 4.872856980000002  19.64848484 4.847142860000002  L 19.599999999999998 5.65714286  C 19.999999999999996 5.670000000000002  20.4 5.721428580000001  20.799999999999997 5.811428580000001  L 20.848484799999998 5.014285580000003  Z M 14.109090879999997 0.8871427800000049  C 14.460606079999996 0.8485713800000063  14.812121219999998 0.8357141800000036  15.163636359999998 0.8357142600000032  L 15.284848479999997 0.8357142600000032  L 15.042424239999997 0.051428580000003166  C 14.666666639999995 0.051428580000003166  14.27878788 0.07714278000000263  13.878787879999997 0.1285713800000039  L 14.109090879999997 0.8871427800000049  Z M 16.81212142 5.155714280000005  C 16.40000022 5.284285720000007  16.04848502 5.425714280000005  15.745454559999999 5.567142860000004  L 16.02424242 6.454285720000005  C 16.37575762 6.274285720000005  16.72727282 6.1200000000000045  17.07878802 6.004285720000006  L 16.81212142 5.155714280000005  Z M 9.309090860000001 2.7514286199999987  C 9.624242380000002 2.5457144199999995  9.927272660000002 2.352857219999997  10.2424242 2.185714260000001  L 9.69696966 1.2985714200000018  C 9.393939360000001 1.4657144200000012  9.07878786 1.645714420000001  8.75151512 1.85142862  L 9.309090860000001 2.7514286199999987  Z M 13.4787878 7.109999999999999  C 13.19999992 7.379999999999999  12.945454459999999 7.675714280000001  12.727272679999999 7.971428580000001  L 13.309090880000001 8.897142780000003  C 13.515151480000002 8.575714180000002  13.757575720000002 8.279999780000004  14.02424238 7.984285580000002  L 13.4787878 7.109999999999999  Z M 11.333333340000001 10.69714286  C 11.17575758 11.172857139999998  11.066666660000001 11.64857142  10.96969692 12.111428580000002  L 11.95151512 12.934285580000001  C 12 12.432856999999998  12.08484848 11.9314286  12.2060606 11.43  L 11.333333340000001 10.69714286  Z M 4.83636364 7.02  C 5.0909091 6.672857139999998  5.36969696 6.32571428  5.660606 6.004285599999999  L 4.8 5.2071428399999995  C 4.48484848 5.52857144  4.1818181999999995 5.849999999999998  3.9030302999999993 6.171428580000001  L 4.83636364 7.02  Z M 1.3939394 13.294285720000001  C 1.5515151600000001 12.85714286  1.8060606 12.22714286  2 11.7514286  L 0.6060606 11.211428600000001  C 0.3757575999999999 11.76428572  0.12121211999999992 12.40714286  0 12.754285720000002  L 1.3939394 13.294285720000001  Z M 12.096969699999999 15.878571399999998  L 10.7878788 15.37714286  C 10.8121212 16.05857142  10.87272728 16.611428580000002  10.933333339999999 16.997142859999997  L 12.3878788 17.549999999999997  C 12.27878788 17.0485714  12.16969696 16.48285714  12.096969699999999 15.878571399999998  Z " fill-rule="evenodd" />
    </mask>
  </defs>
  <g>
    <path d="M 45.7818182 15.608571419999997  L 41.769697 15.621428600000002  L 41.769697 17.9485714  L 45.7333334 17.9485714  C 46.5454546 17.9485714  47.939394 17.318571399999996  47.9878788 15.557142859999999  L 47.9878788 14.65714286  C 47.9878788 13.152857140000002  46.824242399999996 12.26571426  45.7333334 12.26571426  L 43.7575758 12.26571426  L 43.7575758 11.185714259999997  L 47.6727272 11.185714259999997  L 47.6727272 8.845714259999998  L 43.915151599999994 8.845714259999998  C 42.94545459999999 8.845714259999998  41.64848479999999 9.694285719999996  41.64848479999999 11.275714259999997  L 41.64848479999999 12.085714259999996  C 41.64848479999999 13.667142859999995  42.93333339999999 14.477142859999997  43.915151599999994 14.477142859999997  C 46.642424199999994 14.489999999999998  43.260605999999996 14.477142859999997  45.7818182 14.477142859999997  L 45.7818182 15.608571419999997  Z M 23.2363636 17.948571180000002  L 20.5333334 15.05571428  C 20.5333334 15.05571428  22.6545454 14.86285714  22.6545454 11.95714288  C 22.6545454 9.05142858  20.0848484 8.78142858  20.0848484 8.78142858  L 15.45454546 8.78142858  L 15.45454546 17.948571380000004  L 17.7818182 17.948571380000004  L 17.7818182 15.737142780000003  L 19.7939394 17.948571180000002  L 23.2363636 17.948571180000002  Z M 20.169697000000003 12.12428582  C 20.169697000000003 12.960000220000001  19.636363640000003 13.17857162  19.63636364 13.17857142  L 17.7818182 13.17857142  L 17.7818182 11.082857220000001  L 19.648484840000002 11.082857220000001  C 19.648484840000002 11.082857220000001  20.169697000000003 11.288571620000003  20.169697000000003 12.12428582  Z M 30.654545399999996 11.237143  C 30.654545399999996 9.282857279999998  28.981818199999992 8.845714399999999  28.4 8.845714399999999  L 26.036363599999994 8.845714399999999  C 24.351515199999998 8.845714399999999  23.781818199999996 10.4657144  23.781818199999996 11.237143  L 23.781818199999996 17.948571540000003  L 26.145454599999994 17.948571540000003  L 26.145454599999994 16.341428740000005  L 28.363636399999997 16.341428740000005  L 28.363636399999997 17.948571540000003  L 30.654545399999996 17.948571540000003  L 30.654545399999996 11.237143  Z M 28.3515152 13.74428572  L 28.363636399999997 13.74428584  L 26.133333399999998 13.74428584  L 26.133333399999998 11.52  C 26.133333399999998 11.52  26.133333399999998 11.018571399999999  26.872727199999996 11.018571399999999  L 27.684848399999996 11.018571399999999  C 28.339394 11.018571399999999  28.3515152 11.52  28.3515152 11.52  L 28.3515152 13.74428572  Z M 31.7333334 17.948571380000004  L 31.733333399999992 8.84571438  L 34.1939394 8.84571438  L 34.1939394 17.948571380000004  L 31.7333334 17.948571380000004  Z M 40.9575758 15.595714380000004  L 37.6484848 15.59571438  L 37.6484848 8.84571438  L 35.2 8.84571438  L 35.2 17.948571380000004  L 40.9575758 17.948571380000004  L 40.9575758 15.595714380000004  Z M 3.757575720000002 9.64285718  C 1.2121212000000021 14.14285718  0.8484848000000018 17.948571380000004  0.84848484 17.9485714  L 10.424242439999999 17.9485714  C 10.424242439999999 17.9485714  8.5939394 9.09  14.6545454 5.502857160000001  C 15.97575754 4.821428600000001  20.18181816 2.2757143000000006  27.06666656 7.675714300000003  C 27.284848359999998 7.482857160000002  27.49090896 7.328571440000001  27.49090896 7.328571440000001  C 27.49090896 7.328571440000001  21.187878760000004 0.6557143200000013  14.169696920000003 1.401428639999999  C 10.6424242 1.7357143199999996  6.303030260000002 5.14285718  3.757575720000002 9.64285718  Z M 3.757575720000002 9.64285718  C 1.2121212000000021 14.14285718  0.8484848000000018 17.948571380000004  0.84848484 17.9485714  L 10.424242439999999 17.9485714  C 10.424242439999999 17.9485714  8.5939394 9.09  14.6545454 5.502857160000001  C 15.97575754 4.821428600000001  20.18181816 2.2757143000000006  27.06666656 7.675714300000003  C 27.284848359999998 7.482857160000002  27.49090896 7.328571440000001  27.49090896 7.328571440000001  C 27.49090896 7.328571440000001  21.187878760000004 0.6557143200000013  14.169696920000003 1.401428639999999  C 10.6424242 1.7357143199999996  6.303030260000002 5.14285718  3.757575720000002 9.64285718  Z M 3.745454520000001 9.64285718  C 1.2 14.142857  0.8484848 17.9485714  0.84848484 17.9485714  L 10.424242439999999 17.9485714  C 10.424242439999999 17.9485714  8.5939394 9.09  14.6545454 5.502857160000001  C 15.97575754 4.821428600000001  20.18181816 2.2757143000000006  27.06666656 7.675714300000003  C 27.284848359999998 7.482857160000002  27.49090896 7.328571440000001  27.49090896 7.328571440000001  C 27.49090896 7.328571440000001  21.187878760000004 0.6557143200000013  14.169696920000003 1.401428639999999  C 10.630303000000001 1.7357143199999996  6.2909090600000015 5.14285718  3.745454520000001 9.64285718  Z M 19.62424242 1.6585714000000031  C 20.02424242 1.8000000000000043  20.412121220000003 1.9542857200000014  20.8 2.1214286000000016  L 20.8484848 1.2600000000000016  C 20.739394 1.1957142800000007  20.4363636 1.0414286000000033  19.67272728 0.8100000000000023  L 19.62424242 1.6585714000000031  Z M 20.848484799999998 5.014285580000003  C 20.436363599999996 4.924285580000003  20.036363599999998 4.872856980000002  19.64848484 4.847142860000002  L 19.599999999999998 5.65714286  C 19.999999999999996 5.670000000000002  20.4 5.721428580000001  20.799999999999997 5.811428580000001  L 20.848484799999998 5.014285580000003  Z M 14.109090879999997 0.8871427800000049  C 14.460606079999996 0.8485713800000063  14.812121219999998 0.8357141800000036  15.163636359999998 0.8357142600000032  L 15.284848479999997 0.8357142600000032  L 15.042424239999997 0.051428580000003166  C 14.666666639999995 0.051428580000003166  14.27878788 0.07714278000000263  13.878787879999997 0.1285713800000039  L 14.109090879999997 0.8871427800000049  Z M 16.81212142 5.155714280000005  C 16.40000022 5.284285720000007  16.04848502 5.425714280000005  15.745454559999999 5.567142860000004  L 16.02424242 6.454285720000005  C 16.37575762 6.274285720000005  16.72727282 6.1200000000000045  17.07878802 6.004285720000006  L 16.81212142 5.155714280000005  Z M 9.309090860000001 2.7514286199999987  C 9.624242380000002 2.5457144199999995  9.927272660000002 2.352857219999997  10.2424242 2.185714260000001  L 9.69696966 1.2985714200000018  C 9.393939360000001 1.4657144200000012  9.07878786 1.645714420000001  8.75151512 1.85142862  L 9.309090860000001 2.7514286199999987  Z M 13.4787878 7.109999999999999  C 13.19999992 7.379999999999999  12.945454459999999 7.675714280000001  12.727272679999999 7.971428580000001  L 13.309090880000001 8.897142780000003  C 13.515151480000002 8.575714180000002  13.757575720000002 8.279999780000004  14.02424238 7.984285580000002  L 13.4787878 7.109999999999999  Z M 11.333333340000001 10.69714286  C 11.17575758 11.172857139999998  11.066666660000001 11.64857142  10.96969692 12.111428580000002  L 11.95151512 12.934285580000001  C 12 12.432856999999998  12.08484848 11.9314286  12.2060606 11.43  L 11.333333340000001 10.69714286  Z M 4.83636364 7.02  C 5.0909091 6.672857139999998  5.36969696 6.32571428  5.660606 6.004285599999999  L 4.8 5.2071428399999995  C 4.48484848 5.52857144  4.1818181999999995 5.849999999999998  3.9030302999999993 6.171428580000001  L 4.83636364 7.02  Z M 1.3939394 13.294285720000001  C 1.5515151600000001 12.85714286  1.8060606 12.22714286  2 11.7514286  L 0.6060606 11.211428600000001  C 0.3757575999999999 11.76428572  0.12121211999999992 12.40714286  0 12.754285720000002  L 1.3939394 13.294285720000001  Z M 12.096969699999999 15.878571399999998  L 10.7878788 15.37714286  C 10.8121212 16.05857142  10.87272728 16.611428580000002  10.933333339999999 16.997142859999997  L 12.3878788 17.549999999999997  C 12.27878788 17.0485714  12.16969696 16.48285714  12.096969699999999 15.878571399999998  Z " fill-rule="nonzero" fill="rgba(204, 0, 0, 1)" stroke="none" class="fill" />
    <path d="M 45.7818182 15.608571419999997  L 41.769697 15.621428600000002  L 41.769697 17.9485714  L 45.7333334 17.9485714  C 46.5454546 17.9485714  47.939394 17.318571399999996  47.9878788 15.557142859999999  L 47.9878788 14.65714286  C 47.9878788 13.152857140000002  46.824242399999996 12.26571426  45.7333334 12.26571426  L 43.7575758 12.26571426  L 43.7575758 11.185714259999997  L 47.6727272 11.185714259999997  L 47.6727272 8.845714259999998  L 43.915151599999994 8.845714259999998  C 42.94545459999999 8.845714259999998  41.64848479999999 9.694285719999996  41.64848479999999 11.275714259999997  L 41.64848479999999 12.085714259999996  C 41.64848479999999 13.667142859999995  42.93333339999999 14.477142859999997  43.915151599999994 14.477142859999997  C 46.642424199999994 14.489999999999998  43.260605999999996 14.477142859999997  45.7818182 14.477142859999997  L 45.7818182 15.608571419999997  Z " stroke-width="0" stroke-dasharray="0" stroke="rgba(255, 255, 255, 0)" fill="none" class="stroke" mask="url(#Clip7311)" />
    <path d="M 23.2363636 17.948571180000002  L 20.5333334 15.05571428  C 20.5333334 15.05571428  22.6545454 14.86285714  22.6545454 11.95714288  C 22.6545454 9.05142858  20.0848484 8.78142858  20.0848484 8.78142858  L 15.45454546 8.78142858  L 15.45454546 17.948571380000004  L 17.7818182 17.948571380000004  L 17.7818182 15.737142780000003  L 19.7939394 17.948571180000002  L 23.2363636 17.948571180000002  Z " stroke-width="0" stroke-dasharray="0" stroke="rgba(255, 255, 255, 0)" fill="none" class="stroke" mask="url(#Clip7311)" />
    <path d="M 20.169697000000003 12.12428582  C 20.169697000000003 12.960000220000001  19.636363640000003 13.17857162  19.63636364 13.17857142  L 17.7818182 13.17857142  L 17.7818182 11.082857220000001  L 19.648484840000002 11.082857220000001  C 19.648484840000002 11.082857220000001  20.169697000000003 11.288571620000003  20.169697000000003 12.12428582  Z " stroke-width="0" stroke-dasharray="0" stroke="rgba(255, 255, 255, 0)" fill="none" class="stroke" mask="url(#Clip7311)" />
    <path d="M 30.654545399999996 11.237143  C 30.654545399999996 9.282857279999998  28.981818199999992 8.845714399999999  28.4 8.845714399999999  L 26.036363599999994 8.845714399999999  C 24.351515199999998 8.845714399999999  23.781818199999996 10.4657144  23.781818199999996 11.237143  L 23.781818199999996 17.948571540000003  L 26.145454599999994 17.948571540000003  L 26.145454599999994 16.341428740000005  L 28.363636399999997 16.341428740000005  L 28.363636399999997 17.948571540000003  L 30.654545399999996 17.948571540000003  L 30.654545399999996 11.237143  Z " stroke-width="0" stroke-dasharray="0" stroke="rgba(255, 255, 255, 0)" fill="none" class="stroke" mask="url(#Clip7311)" />
    <path d="M 28.3515152 13.74428572  L 28.363636399999997 13.74428584  L 26.133333399999998 13.74428584  L 26.133333399999998 11.52  C 26.133333399999998 11.52  26.133333399999998 11.018571399999999  26.872727199999996 11.018571399999999  L 27.684848399999996 11.018571399999999  C 28.339394 11.018571399999999  28.3515152 11.52  28.3515152 11.52  L 28.3515152 13.74428572  Z " stroke-width="0" stroke-dasharray="0" stroke="rgba(255, 255, 255, 0)" fill="none" class="stroke" mask="url(#Clip7311)" />
    <path d="M 31.7333334 17.948571380000004  L 31.733333399999992 8.84571438  L 34.1939394 8.84571438  L 34.1939394 17.948571380000004  L 31.7333334 17.948571380000004  Z " stroke-width="0" stroke-dasharray="0" stroke="rgba(255, 255, 255, 0)" fill="none" class="stroke" mask="url(#Clip7311)" />
    <path d="M 40.9575758 15.595714380000004  L 37.6484848 15.59571438  L 37.6484848 8.84571438  L 35.2 8.84571438  L 35.2 17.948571380000004  L 40.9575758 17.948571380000004  L 40.9575758 15.595714380000004  Z " stroke-width="0" stroke-dasharray="0" stroke="rgba(255, 255, 255, 0)" fill="none" class="stroke" mask="url(#Clip7311)" />
    <path d="M 3.757575720000002 9.64285718  C 1.2121212000000021 14.14285718  0.8484848000000018 17.948571380000004  0.84848484 17.9485714  L 10.424242439999999 17.9485714  C 10.424242439999999 17.9485714  8.5939394 9.09  14.6545454 5.502857160000001  C 15.97575754 4.821428600000001  20.18181816 2.2757143000000006  27.06666656 7.675714300000003  C 27.284848359999998 7.482857160000002  27.49090896 7.328571440000001  27.49090896 7.328571440000001  C 27.49090896 7.328571440000001  21.187878760000004 0.6557143200000013  14.169696920000003 1.401428639999999  C 10.6424242 1.7357143199999996  6.303030260000002 5.14285718  3.757575720000002 9.64285718  Z " stroke-width="0" stroke-dasharray="0" stroke="rgba(255, 255, 255, 0)" fill="none" class="stroke" mask="url(#Clip7311)" />
    <path d="M 3.757575720000002 9.64285718  C 1.2121212000000021 14.14285718  0.8484848000000018 17.948571380000004  0.84848484 17.9485714  L 10.424242439999999 17.9485714  C 10.424242439999999 17.9485714  8.5939394 9.09  14.6545454 5.502857160000001  C 15.97575754 4.821428600000001  20.18181816 2.2757143000000006  27.06666656 7.675714300000003  C 27.284848359999998 7.482857160000002  27.49090896 7.328571440000001  27.49090896 7.328571440000001  C 27.49090896 7.328571440000001  21.187878760000004 0.6557143200000013  14.169696920000003 1.401428639999999  C 10.6424242 1.7357143199999996  6.303030260000002 5.14285718  3.757575720000002 9.64285718  Z " stroke-width="0" stroke-dasharray="0" stroke="rgba(255, 255, 255, 0)" fill="none" class="stroke" mask="url(#Clip7311)" />
    <path d="M 3.745454520000001 9.64285718  C 1.2 14.142857  0.8484848 17.9485714  0.84848484 17.9485714  L 10.424242439999999 17.9485714  C 10.424242439999999 17.9485714  8.5939394 9.09  14.6545454 5.502857160000001  C 15.97575754 4.821428600000001  20.18181816 2.2757143000000006  27.06666656 7.675714300000003  C 27.284848359999998 7.482857160000002  27.49090896 7.328571440000001  27.49090896 7.328571440000001  C 27.49090896 7.328571440000001  21.187878760000004 0.6557143200000013  14.169696920000003 1.401428639999999  C 10.630303000000001 1.7357143199999996  6.2909090600000015 5.14285718  3.745454520000001 9.64285718  Z " stroke-width="0" stroke-dasharray="0" stroke="rgba(255, 255, 255, 0)" fill="none" class="stroke" mask="url(#Clip7311)" />
    <path d="M 19.62424242 1.6585714000000031  C 20.02424242 1.8000000000000043  20.412121220000003 1.9542857200000014  20.8 2.1214286000000016  L 20.8484848 1.2600000000000016  C 20.739394 1.1957142800000007  20.4363636 1.0414286000000033  19.67272728 0.8100000000000023  L 19.62424242 1.6585714000000031  Z " stroke-width="0" stroke-dasharray="0" stroke="rgba(255, 255, 255, 0)" fill="none" class="stroke" mask="url(#Clip7311)" />
    <path d="M 20.848484799999998 5.014285580000003  C 20.436363599999996 4.924285580000003  20.036363599999998 4.872856980000002  19.64848484 4.847142860000002  L 19.599999999999998 5.65714286  C 19.999999999999996 5.670000000000002  20.4 5.721428580000001  20.799999999999997 5.811428580000001  L 20.848484799999998 5.014285580000003  Z " stroke-width="0" stroke-dasharray="0" stroke="rgba(255, 255, 255, 0)" fill="none" class="stroke" mask="url(#Clip7311)" />
    <path d="M 14.109090879999997 0.8871427800000049  C 14.460606079999996 0.8485713800000063  14.812121219999998 0.8357141800000036  15.163636359999998 0.8357142600000032  L 15.284848479999997 0.8357142600000032  L 15.042424239999997 0.051428580000003166  C 14.666666639999995 0.051428580000003166  14.27878788 0.07714278000000263  13.878787879999997 0.1285713800000039  L 14.109090879999997 0.8871427800000049  Z " stroke-width="0" stroke-dasharray="0" stroke="rgba(255, 255, 255, 0)" fill="none" class="stroke" mask="url(#Clip7311)" />
    <path d="M 16.81212142 5.155714280000005  C 16.40000022 5.284285720000007  16.04848502 5.425714280000005  15.745454559999999 5.567142860000004  L 16.02424242 6.454285720000005  C 16.37575762 6.274285720000005  16.72727282 6.1200000000000045  17.07878802 6.004285720000006  L 16.81212142 5.155714280000005  Z " stroke-width="0" stroke-dasharray="0" stroke="rgba(255, 255, 255, 0)" fill="none" class="stroke" mask="url(#Clip7311)" />
    <path d="M 9.309090860000001 2.7514286199999987  C 9.624242380000002 2.5457144199999995  9.927272660000002 2.352857219999997  10.2424242 2.185714260000001  L 9.69696966 1.2985714200000018  C 9.393939360000001 1.4657144200000012  9.07878786 1.645714420000001  8.75151512 1.85142862  L 9.309090860000001 2.7514286199999987  Z " stroke-width="0" stroke-dasharray="0" stroke="rgba(255, 255, 255, 0)" fill="none" class="stroke" mask="url(#Clip7311)" />
    <path d="M 13.4787878 7.109999999999999  C 13.19999992 7.379999999999999  12.945454459999999 7.675714280000001  12.727272679999999 7.971428580000001  L 13.309090880000001 8.897142780000003  C 13.515151480000002 8.575714180000002  13.757575720000002 8.279999780000004  14.02424238 7.984285580000002  L 13.4787878 7.109999999999999  Z " stroke-width="0" stroke-dasharray="0" stroke="rgba(255, 255, 255, 0)" fill="none" class="stroke" mask="url(#Clip7311)" />
    <path d="M 11.333333340000001 10.69714286  C 11.17575758 11.172857139999998  11.066666660000001 11.64857142  10.96969692 12.111428580000002  L 11.95151512 12.934285580000001  C 12 12.432856999999998  12.08484848 11.9314286  12.2060606 11.43  L 11.333333340000001 10.69714286  Z " stroke-width="0" stroke-dasharray="0" stroke="rgba(255, 255, 255, 0)" fill="none" class="stroke" mask="url(#Clip7311)" />
    <path d="M 4.83636364 7.02  C 5.0909091 6.672857139999998  5.36969696 6.32571428  5.660606 6.004285599999999  L 4.8 5.2071428399999995  C 4.48484848 5.52857144  4.1818181999999995 5.849999999999998  3.9030302999999993 6.171428580000001  L 4.83636364 7.02  Z " stroke-width="0" stroke-dasharray="0" stroke="rgba(255, 255, 255, 0)" fill="none" class="stroke" mask="url(#Clip7311)" />
    <path d="M 1.3939394 13.294285720000001  C 1.5515151600000001 12.85714286  1.8060606 12.22714286  2 11.7514286  L 0.6060606 11.211428600000001  C 0.3757575999999999 11.76428572  0.12121211999999992 12.40714286  0 12.754285720000002  L 1.3939394 13.294285720000001  Z " stroke-width="0" stroke-dasharray="0" stroke="rgba(255, 255, 255, 0)" fill="none" class="stroke" mask="url(#Clip7311)" />
    <path d="M 12.096969699999999 15.878571399999998  L 10.7878788 15.37714286  C 10.8121212 16.05857142  10.87272728 16.611428580000002  10.933333339999999 16.997142859999997  L 12.3878788 17.549999999999997  C 12.27878788 17.0485714  12.16969696 16.48285714  12.096969699999999 15.878571399999998  Z " stroke-width="0" stroke-dasharray="0" stroke="rgba(255, 255, 255, 0)" fill="none" class="stroke" mask="url(#Clip7311)" />
  </g>
</svg>