<?xml version="1.0" encoding="utf-8"?>
<svg version="1.1" xmlns:xlink="http://www.w3.org/1999/xlink" width="50px" height="50px" xmlns="http://www.w3.org/2000/svg">
  <defs>
    <pattern id="BGPattern" patternUnits="userSpaceOnUse" alignment="0 0" imageRepeat="None" />
    <mask fill="white" id="Clip1801">
      <path d="M 50 37.52436647173488  L 50 3.217348927875264  C 49.901559454191045 1.1013645224171569  47.84502923976606 -0.3898635477582957  45.84697855750488 0.2436647173489064  L 14.658869395711518 9.454191033138386  C 13.362573099415215 9.863547758284597  12.47563352826512 11.062378167641327  13 12.426900584795305  L 13 37.90643274853801  C 11.496101364522417 37.67446393762185  10.456140350877206 37.52436647173488  9.356725146198812 37.52436647173488  C 4.189083820662745 37.52436647173488  0 40.3167641325536  0 43.76218323586744  C 0 47.20760233918128  4.189083820662745 50  9.356725146198812 50  C 14.52436647173488 50  18.71345029239768 47.20760233918128  19 43.76218323586744  L 19 20.98538011695905  L 43 13.673489278752413  L 43 31.668615984405445  C 42.68518518518516 31.43664717348929  41.64522417153995 31.28654970760232  40.545808966861614 31.28654970760232  C 35.37816764132555 31.28654970760232  31.189083820662745 34.07894736842104  31.189083820662745 37.52436647173488  C 31.189083820662745 40.96978557504872  35.37816764132555 43.76218323586744  40.545808966861614 43.76218323586744  C 45.71345029239768 43.76218323586744  49.902534113060426 40.96978557504872  50 37.52436647173488  Z " fill-rule="evenodd" />
    </mask>
  </defs>
  <g>
    <path d="M 50 37.52436647173488  L 50 3.217348927875264  C 49.901559454191045 1.1013645224171569  47.84502923976606 -0.3898635477582957  45.84697855750488 0.2436647173489064  L 14.658869395711518 9.454191033138386  C 13.362573099415215 9.863547758284597  12.47563352826512 11.062378167641327  13 12.426900584795305  L 13 37.90643274853801  C 11.496101364522417 37.67446393762185  10.456140350877206 37.52436647173488  9.356725146198812 37.52436647173488  C 4.189083820662745 37.52436647173488  0 40.3167641325536  0 43.76218323586744  C 0 47.20760233918128  4.189083820662745 50  9.356725146198812 50  C 14.52436647173488 50  18.71345029239768 47.20760233918128  19 43.76218323586744  L 19 20.98538011695905  L 43 13.673489278752413  L 43 31.668615984405445  C 42.68518518518516 31.43664717348929  41.64522417153995 31.28654970760232  40.545808966861614 31.28654970760232  C 35.37816764132555 31.28654970760232  31.189083820662745 34.07894736842104  31.189083820662745 37.52436647173488  C 31.189083820662745 40.96978557504872  35.37816764132555 43.76218323586744  40.545808966861614 43.76218323586744  C 45.71345029239768 43.76218323586744  49.902534113060426 40.96978557504872  50 37.52436647173488  Z " fill-rule="nonzero" fill="rgba(0, 0, 0, 1)" stroke="none" class="fill" />
    <path d="M 50 37.52436647173488  L 50 3.217348927875264  C 49.901559454191045 1.1013645224171569  47.84502923976606 -0.3898635477582957  45.84697855750488 0.2436647173489064  L 14.658869395711518 9.454191033138386  C 13.362573099415215 9.863547758284597  12.47563352826512 11.062378167641327  13 12.426900584795305  L 13 37.90643274853801  C 11.496101364522417 37.67446393762185  10.456140350877206 37.52436647173488  9.356725146198812 37.52436647173488  C 4.189083820662745 37.52436647173488  0 40.3167641325536  0 43.76218323586744  C 0 47.20760233918128  4.189083820662745 50  9.356725146198812 50  C 14.52436647173488 50  18.71345029239768 47.20760233918128  19 43.76218323586744  L 19 20.98538011695905  L 43 13.673489278752413  L 43 31.668615984405445  C 42.68518518518516 31.43664717348929  41.64522417153995 31.28654970760232  40.545808966861614 31.28654970760232  C 35.37816764132555 31.28654970760232  31.189083820662745 34.07894736842104  31.189083820662745 37.52436647173488  C 31.189083820662745 40.96978557504872  35.37816764132555 43.76218323586744  40.545808966861614 43.76218323586744  C 45.71345029239768 43.76218323586744  49.902534113060426 40.96978557504872  50 37.52436647173488  Z " stroke-width="0" stroke-dasharray="0" stroke="rgba(255, 255, 255, 0)" fill="none" class="stroke" mask="url(#Clip1801)" />
  </g>
</svg>