<?xml version="1.0" encoding="utf-8"?>
<svg version="1.1" xmlns:xlink="http://www.w3.org/1999/xlink" width="23px" height="22px" xmlns="http://www.w3.org/2000/svg">
  <defs>
    <pattern id="BGPattern" patternUnits="userSpaceOnUse" alignment="0 0" imageRepeat="None" />
    <mask fill="white" id="Clip4372">
      <path d="M 20.509999999999998 5.489999999999998  L 23 3  L 21.58 1.5899999999999999  L 19.33 3.84  C 17.252004725306165 1.4402600367112726  14.234127322167295 0.061437530804527185  11.05972718150215 0.061437530804527185  C 5.017732018353271 0.061437530804527185  0.11972718150215211 4.959442367655646  0.11972718150215211 11.001437530804527  C 0.11972718150215211 17.043432693953406  5.017732018353271 21.941437530804524  11.05972718150215 21.941437530804524  C 17.10172234465103 21.941437530804524  21.999727181502152 17.043432693953406  21.999727181502152 11.001437530804527  C 21.999727181502152 9.064817741525804  21.485645245843646 7.162905425446592  20.509999999999998 5.489999999999998  Z M 20 11  C 20 15.970562748477143  15.970562748477139 20  11 20  C 6.029437251522857 20  1.999999999999999 15.970562748477143  1.999999999999999 11  C 1.999999999999999 6.029437251522858  6.029437251522857 2  11 2  C 15.970562748477139 2  20 6.029437251522858  20 11  Z " fill-rule="evenodd" />
    </mask>
  </defs>
  <g transform="matrix(1 0 0 1 -5 -6 )">
    <path d="M 20.509999999999998 5.489999999999998  L 23 3  L 21.58 1.5899999999999999  L 19.33 3.84  C 17.252004725306165 1.4402600367112726  14.234127322167295 0.061437530804527185  11.05972718150215 0.061437530804527185  C 5.017732018353271 0.061437530804527185  0.11972718150215211 4.959442367655646  0.11972718150215211 11.001437530804527  C 0.11972718150215211 17.043432693953406  5.017732018353271 21.941437530804524  11.05972718150215 21.941437530804524  C 17.10172234465103 21.941437530804524  21.999727181502152 17.043432693953406  21.999727181502152 11.001437530804527  C 21.999727181502152 9.064817741525804  21.485645245843646 7.162905425446592  20.509999999999998 5.489999999999998  Z M 20 11  C 20 15.970562748477143  15.970562748477139 20  11 20  C 6.029437251522857 20  1.999999999999999 15.970562748477143  1.999999999999999 11  C 1.999999999999999 6.029437251522858  6.029437251522857 2  11 2  C 15.970562748477139 2  20 6.029437251522858  20 11  Z " fill-rule="nonzero" fill="rgba(0, 0, 0, 1)" stroke="none" transform="matrix(1 0 0 1 5 6 )" class="fill" />
    <path d="M 20.509999999999998 5.489999999999998  L 23 3  L 21.58 1.5899999999999999  L 19.33 3.84  C 17.252004725306165 1.4402600367112726  14.234127322167295 0.061437530804527185  11.05972718150215 0.061437530804527185  C 5.017732018353271 0.061437530804527185  0.11972718150215211 4.959442367655646  0.11972718150215211 11.001437530804527  C 0.11972718150215211 17.043432693953406  5.017732018353271 21.941437530804524  11.05972718150215 21.941437530804524  C 17.10172234465103 21.941437530804524  21.999727181502152 17.043432693953406  21.999727181502152 11.001437530804527  C 21.999727181502152 9.064817741525804  21.485645245843646 7.162905425446592  20.509999999999998 5.489999999999998  Z " stroke-width="0" stroke-dasharray="0" stroke="rgba(255, 255, 255, 0)" fill="none" transform="matrix(1 0 0 1 5 6 )" class="stroke" mask="url(#Clip4372)" />
    <path d="M 20 11  C 20 15.970562748477143  15.970562748477139 20  11 20  C 6.029437251522857 20  1.999999999999999 15.970562748477143  1.999999999999999 11  C 1.999999999999999 6.029437251522858  6.029437251522857 2  11 2  C 15.970562748477139 2  20 6.029437251522858  20 11  Z " stroke-width="0" stroke-dasharray="0" stroke="rgba(255, 255, 255, 0)" fill="none" transform="matrix(1 0 0 1 5 6 )" class="stroke" mask="url(#Clip4372)" />
  </g>
</svg>