<?xml version="1.0" encoding="utf-8"?>
<svg version="1.1" xmlns:xlink="http://www.w3.org/1999/xlink" width="16px" height="11px" xmlns="http://www.w3.org/2000/svg">
  <defs>
    <pattern id="BGPattern" patternUnits="userSpaceOnUse" alignment="0 0" imageRepeat="None" />
    <mask fill="white" id="Clip5638">
      <path d="M 7.25 11  C 6.835786437626904 11  6.5 10.664213562373096  6.5 10.25  C 6.5 9.835786437626904  6.835786437626904 9.5  7.25 9.5  L 8.75 9.5  C 9.164213562373096 9.5  9.5 9.835786437626904  9.5 10.25  C 9.5 10.664213562373096  9.164213562373096 11  8.75 11  L 7.25 11  Z M 4.25 6.5  C 3.835786437626905 6.5  3.5 6.164213562373096  3.5 5.75  C 3.5 5.335786437626904  3.835786437626905 5  4.25 5  L 11.75 5  C 12.164213562373096 5  12.5 5.335786437626904  12.5 5.75  C 12.5 6.164213562373096  12.164213562373096 6.5  11.75 6.5  L 4.25 6.5  Z M 1.25 2  C 0.8357864376269051 2  0.5 1.6642135623730958  0.5 1.25  C 0.5 0.8357864376269052  0.8357864376269051 0.5  1.25 0.5  L 14.75 0.5  C 15.164213562373096 0.5  15.5 0.8357864376269052  15.5 1.25  C 15.5 1.6642135623730958  15.164213562373096 2  14.75 2  L 1.25 2  Z " fill-rule="evenodd" />
    </mask>
  </defs>
  <g transform="matrix(1 0 0 1 -4 -7 )">
    <path d="M 7.25 11  C 6.835786437626904 11  6.5 10.664213562373096  6.5 10.25  C 6.5 9.835786437626904  6.835786437626904 9.5  7.25 9.5  L 8.75 9.5  C 9.164213562373096 9.5  9.5 9.835786437626904  9.5 10.25  C 9.5 10.664213562373096  9.164213562373096 11  8.75 11  L 7.25 11  Z M 4.25 6.5  C 3.835786437626905 6.5  3.5 6.164213562373096  3.5 5.75  C 3.5 5.335786437626904  3.835786437626905 5  4.25 5  L 11.75 5  C 12.164213562373096 5  12.5 5.335786437626904  12.5 5.75  C 12.5 6.164213562373096  12.164213562373096 6.5  11.75 6.5  L 4.25 6.5  Z M 1.25 2  C 0.8357864376269051 2  0.5 1.6642135623730958  0.5 1.25  C 0.5 0.8357864376269052  0.8357864376269051 0.5  1.25 0.5  L 14.75 0.5  C 15.164213562373096 0.5  15.5 0.8357864376269052  15.5 1.25  C 15.5 1.6642135623730958  15.164213562373096 2  14.75 2  L 1.25 2  Z " fill-rule="nonzero" fill="rgba(0, 0, 0, 1)" stroke="none" transform="matrix(1 0 0 1 4 7 )" class="fill" />
    <path d="M 7.25 11  C 6.835786437626904 11  6.5 10.664213562373096  6.5 10.25  C 6.5 9.835786437626904  6.835786437626904 9.5  7.25 9.5  L 8.75 9.5  C 9.164213562373096 9.5  9.5 9.835786437626904  9.5 10.25  C 9.5 10.664213562373096  9.164213562373096 11  8.75 11  L 7.25 11  Z " stroke-width="0" stroke-dasharray="0" stroke="rgba(255, 255, 255, 0)" fill="none" transform="matrix(1 0 0 1 4 7 )" class="stroke" mask="url(#Clip5638)" />
    <path d="M 4.25 6.5  C 3.835786437626905 6.5  3.5 6.164213562373096  3.5 5.75  C 3.5 5.335786437626904  3.835786437626905 5  4.25 5  L 11.75 5  C 12.164213562373096 5  12.5 5.335786437626904  12.5 5.75  C 12.5 6.164213562373096  12.164213562373096 6.5  11.75 6.5  L 4.25 6.5  Z " stroke-width="0" stroke-dasharray="0" stroke="rgba(255, 255, 255, 0)" fill="none" transform="matrix(1 0 0 1 4 7 )" class="stroke" mask="url(#Clip5638)" />
    <path d="M 1.25 2  C 0.8357864376269051 2  0.5 1.6642135623730958  0.5 1.25  C 0.5 0.8357864376269052  0.8357864376269051 0.5  1.25 0.5  L 14.75 0.5  C 15.164213562373096 0.5  15.5 0.8357864376269052  15.5 1.25  C 15.5 1.6642135623730958  15.164213562373096 2  14.75 2  L 1.25 2  Z " stroke-width="0" stroke-dasharray="0" stroke="rgba(255, 255, 255, 0)" fill="none" transform="matrix(1 0 0 1 4 7 )" class="stroke" mask="url(#Clip5638)" />
  </g>
</svg>