<?xml version="1.0" encoding="utf-8"?>
<svg version="1.1" xmlns:xlink="http://www.w3.org/1999/xlink" width="42px" height="48px" xmlns="http://www.w3.org/2000/svg">
  <defs>
    <pattern id="BGPattern" patternUnits="userSpaceOnUse" alignment="0 0" imageRepeat="None" />
    <mask fill="white" id="Clip7576">
      <path d="M 40.372 0  L 33.376 0  C 32.342 0  31.894 0.65  31.522 1.32  C 31.522 1.32  16.612 27.768  16.118 28.634  C 16.148 28.682  25.955999999999996 46.68  25.955999999999996 46.68  C 26.296 47.296  26.827999999999996 48  27.889999999999997 48  L 34.797999999999995 48  C 35.21999999999999 48  35.547999999999995 47.844  35.724 47.56  C 35.901999999999994 47.258  35.901999999999994 46.868  35.705999999999996 46.488  L 25.947999999999997 28.656  C 25.939999999999994 28.644  25.939999999999994 28.623999999999995  25.947999999999997 28.612  L 41.278 1.512  C 41.467999999999996 1.13  41.472 0.738  41.29 0.44199999999999995  C 41.112 0.156  40.788 0  40.372 0  Z M 4.296 9.447999999999997  L 4.296 9.48  C 3.874000000000001 9.48  3.526 9.628  3.3500000000000005 9.912  C 3.1700000000000013 10.21  3.194000000000001 10.590000000000002  3.3900000000000006 10.974  L 8.07 19.073999999999998  C 8.078 19.093999999999998  8.078 19.105999999999998  8.07 19.116  L 0.7200000000000002 32.102  C 0.5220000000000002 32.477999999999994  0.5340000000000003 32.864  0.7200000000000002 33.16  C 0.8900000000000001 33.443999999999996  1.1980000000000004 33.628  1.62 33.628  L 8.542 33.628  C 9.578 33.628  10.074 32.932  10.432 32.294  L 17.9 19.075999999999997  L 13.143999999999998 10.765999999999996  C 12.799999999999999 10.135999999999996  12.276 9.447999999999997  11.219999999999999 9.447999999999997  L 4.296 9.447999999999997  Z " fill-rule="evenodd" />
    </mask>
  </defs>
  <g>
    <path d="M 40.372 0  L 33.376 0  C 32.342 0  31.894 0.65  31.522 1.32  C 31.522 1.32  16.612 27.768  16.118 28.634  C 16.148 28.682  25.955999999999996 46.68  25.955999999999996 46.68  C 26.296 47.296  26.827999999999996 48  27.889999999999997 48  L 34.797999999999995 48  C 35.21999999999999 48  35.547999999999995 47.844  35.724 47.56  C 35.901999999999994 47.258  35.901999999999994 46.868  35.705999999999996 46.488  L 25.947999999999997 28.656  C 25.939999999999994 28.644  25.939999999999994 28.623999999999995  25.947999999999997 28.612  L 41.278 1.512  C 41.467999999999996 1.13  41.472 0.738  41.29 0.44199999999999995  C 41.112 0.156  40.788 0  40.372 0  Z M 4.296 9.447999999999997  L 4.296 9.48  C 3.874000000000001 9.48  3.526 9.628  3.3500000000000005 9.912  C 3.1700000000000013 10.21  3.194000000000001 10.590000000000002  3.3900000000000006 10.974  L 8.07 19.073999999999998  C 8.078 19.093999999999998  8.078 19.105999999999998  8.07 19.116  L 0.7200000000000002 32.102  C 0.5220000000000002 32.477999999999994  0.5340000000000003 32.864  0.7200000000000002 33.16  C 0.8900000000000001 33.443999999999996  1.1980000000000004 33.628  1.62 33.628  L 8.542 33.628  C 9.578 33.628  10.074 32.932  10.432 32.294  L 17.9 19.075999999999997  L 13.143999999999998 10.765999999999996  C 12.799999999999999 10.135999999999996  12.276 9.447999999999997  11.219999999999999 9.447999999999997  L 4.296 9.447999999999997  Z " fill-rule="nonzero" fill="rgba(0, 101, 103, 1)" stroke="none" class="fill" />
    <path d="M 40.372 0  L 33.376 0  C 32.342 0  31.894 0.65  31.522 1.32  C 31.522 1.32  16.612 27.768  16.118 28.634  C 16.148 28.682  25.955999999999996 46.68  25.955999999999996 46.68  C 26.296 47.296  26.827999999999996 48  27.889999999999997 48  L 34.797999999999995 48  C 35.21999999999999 48  35.547999999999995 47.844  35.724 47.56  C 35.901999999999994 47.258  35.901999999999994 46.868  35.705999999999996 46.488  L 25.947999999999997 28.656  C 25.939999999999994 28.644  25.939999999999994 28.623999999999995  25.947999999999997 28.612  L 41.278 1.512  C 41.467999999999996 1.13  41.472 0.738  41.29 0.44199999999999995  C 41.112 0.156  40.788 0  40.372 0  Z " stroke-width="0" stroke-dasharray="0" stroke="rgba(255, 255, 255, 0)" fill="none" class="stroke" mask="url(#Clip7576)" />
    <path d="M 4.296 9.447999999999997  L 4.296 9.48  C 3.874000000000001 9.48  3.526 9.628  3.3500000000000005 9.912  C 3.1700000000000013 10.21  3.194000000000001 10.590000000000002  3.3900000000000006 10.974  L 8.07 19.073999999999998  C 8.078 19.093999999999998  8.078 19.105999999999998  8.07 19.116  L 0.7200000000000002 32.102  C 0.5220000000000002 32.477999999999994  0.5340000000000003 32.864  0.7200000000000002 33.16  C 0.8900000000000001 33.443999999999996  1.1980000000000004 33.628  1.62 33.628  L 8.542 33.628  C 9.578 33.628  10.074 32.932  10.432 32.294  L 17.9 19.075999999999997  L 13.143999999999998 10.765999999999996  C 12.799999999999999 10.135999999999996  12.276 9.447999999999997  11.219999999999999 9.447999999999997  L 4.296 9.447999999999997  Z " stroke-width="0" stroke-dasharray="0" stroke="rgba(255, 255, 255, 0)" fill="none" class="stroke" mask="url(#Clip7576)" />
  </g>
</svg>