<?xml version="1.0" encoding="utf-8"?>
<svg version="1.1" xmlns:xlink="http://www.w3.org/1999/xlink" width="24px" height="26px" xmlns="http://www.w3.org/2000/svg">
  <defs>
    <pattern id="BGPattern" patternUnits="userSpaceOnUse" alignment="0 0" imageRepeat="None" />
    <mask fill="white" id="Clip5357">
      <path d="M 13.500000003608726 0.9997673394782809  C 17.642135627339677 0.9997673394782809  21.00000000360873 4.357631715747329  21 8.5  C 21 8.5855  21 8.669500000000001  20.9955 8.754999999999999  C 22.79564409987537 9.389983196437504  23.99956891773651 11.091284981068734  23.99956891773651 13.000138678991679  C 23.99956891773651 14.403994311811982  23.34461787728096 15.7274769399393  22.228499999999997 16.579  C 22.409616482386078 17.117961620614643  22.501979031115773 17.682765731434564  22.501979031115773 18.251345372898687  C 22.501979031115773 21.150840309510354  20.151473967727437 23.501345372898687  17.251979031115773 23.501345372898687  C 16.250938468065588 23.501345372898687  15.270763672285259 23.215151161888212  14.426999999999996 22.676499999999997  C 13.011548715390113 24.161586287564198  11.04952460813106 25.002009756075317  8.997943846714392 25.002009756075317  C 4.855808222983441 25.002009756075317  1.497943846714393 21.644145379806268  1.497943846714393 17.502009756075317  C 1.497943846714393 16.654280042231214  1.6416656628969435 15.812685349685104  1.9229999999999974 15.013000000000003  C 0.6851406384597254 13.63616852571684  0.0003016124397153818 11.850125198762548  0.0003016124397153818 9.998649920091607  C 0.0003016124397153818 5.856514296360658  3.358165988708764 2.498649920091609  7.500301612439714 2.498649920091609  C 7.950937158761729 2.498649920091609  8.400655741618749 2.5392642324039683  8.843999999999998 2.6199999999999997  C 10.169089812275596 1.5707036903802885  11.8097675474128 0.9997673394782809  13.500000003608726 0.9997673394782809  Z M 22.499544561680157 12.999710429776009  C 22.499544561680157 11.727319173055823  21.697278445952115 10.59318760992824  20.4975 10.169500000000001  C 19.879837524035715 9.951791557080512  19.47481779865523 9.358531779424236  19.497 8.704  L 19.50000000022032 8.500051418549635  C 19.50000000022032 5.186342919564874  16.813708499205084 2.500051418549634  13.500000000220322 2.500051418549634  C 12.147945232962071 2.500051418549634  10.835522524312996 2.956712003174792  9.775500000000001 3.796  C 9.437269801746105 4.06394636527301  9.000030817411327 4.173256111356704  8.575500000000002 4.096  C 8.219572695016014 4.030941935491928  7.85849007418765 3.9982128723369845  7.496665809950576 3.9982128723369845  C 4.182957310965815 3.9982128723369845  1.496665809950576 6.684504373352224  1.496665809950576 9.998212872336985  C 1.496665809950576 11.4799991525975  2.044984514770492 12.90937443366468  3.0360000000000005 14.011000000000001  C 3.4025931258111743 14.418611481654816  3.5176200078046156 14.993745891622023  3.336000000000001 15.510999999999997  C 3.1103492026456605 16.151494550145046  2.995067215178718 16.825648332045287  2.995067215178718 17.504729734464874  C 2.995067215178718 20.818438233449633  5.681358716193957 23.504729734464874  8.995067215178718 23.504729734464874  C 10.637685601228885 23.504729734464874  12.20847751716106 22.831284849480937  13.341000000000001 21.6415  C 13.836314925843219 21.122649868312408  14.629653032509001 21.027097259585627  15.233999999999998 21.4135  C 15.83688886496782 21.798625462385484  16.53736089457368 22.00326171533146  17.252760506874264 22.00326171533146  C 19.32382831873974 22.00326171533146  21.002760506874264 20.324329527196934  21.002760506874264 18.25326171533146  C 21.002760506874264 17.846167164003347  20.936472992220047 17.44178879586427  20.8065 17.056  C 20.602153740387873 16.447381379993292  20.80779157545957 15.776193959363383  21.317999999999998 15.386500000000003  C 22.0625770095926 14.818751173391544  22.499544561680157 13.936050994596915  22.499544561680157 12.999710429776009  Z " fill-rule="evenodd" />
    </mask>
  </defs>
  <g>
    <path d="M 13.500000003608726 0.9997673394782809  C 17.642135627339677 0.9997673394782809  21.00000000360873 4.357631715747329  21 8.5  C 21 8.5855  21 8.669500000000001  20.9955 8.754999999999999  C 22.79564409987537 9.389983196437504  23.99956891773651 11.091284981068734  23.99956891773651 13.000138678991679  C 23.99956891773651 14.403994311811982  23.34461787728096 15.7274769399393  22.228499999999997 16.579  C 22.409616482386078 17.117961620614643  22.501979031115773 17.682765731434564  22.501979031115773 18.251345372898687  C 22.501979031115773 21.150840309510354  20.151473967727437 23.501345372898687  17.251979031115773 23.501345372898687  C 16.250938468065588 23.501345372898687  15.270763672285259 23.215151161888212  14.426999999999996 22.676499999999997  C 13.011548715390113 24.161586287564198  11.04952460813106 25.002009756075317  8.997943846714392 25.002009756075317  C 4.855808222983441 25.002009756075317  1.497943846714393 21.644145379806268  1.497943846714393 17.502009756075317  C 1.497943846714393 16.654280042231214  1.6416656628969435 15.812685349685104  1.9229999999999974 15.013000000000003  C 0.6851406384597254 13.63616852571684  0.0003016124397153818 11.850125198762548  0.0003016124397153818 9.998649920091607  C 0.0003016124397153818 5.856514296360658  3.358165988708764 2.498649920091609  7.500301612439714 2.498649920091609  C 7.950937158761729 2.498649920091609  8.400655741618749 2.5392642324039683  8.843999999999998 2.6199999999999997  C 10.169089812275596 1.5707036903802885  11.8097675474128 0.9997673394782809  13.500000003608726 0.9997673394782809  Z M 22.499544561680157 12.999710429776009  C 22.499544561680157 11.727319173055823  21.697278445952115 10.59318760992824  20.4975 10.169500000000001  C 19.879837524035715 9.951791557080512  19.47481779865523 9.358531779424236  19.497 8.704  L 19.50000000022032 8.500051418549635  C 19.50000000022032 5.186342919564874  16.813708499205084 2.500051418549634  13.500000000220322 2.500051418549634  C 12.147945232962071 2.500051418549634  10.835522524312996 2.956712003174792  9.775500000000001 3.796  C 9.437269801746105 4.06394636527301  9.000030817411327 4.173256111356704  8.575500000000002 4.096  C 8.219572695016014 4.030941935491928  7.85849007418765 3.9982128723369845  7.496665809950576 3.9982128723369845  C 4.182957310965815 3.9982128723369845  1.496665809950576 6.684504373352224  1.496665809950576 9.998212872336985  C 1.496665809950576 11.4799991525975  2.044984514770492 12.90937443366468  3.0360000000000005 14.011000000000001  C 3.4025931258111743 14.418611481654816  3.5176200078046156 14.993745891622023  3.336000000000001 15.510999999999997  C 3.1103492026456605 16.151494550145046  2.995067215178718 16.825648332045287  2.995067215178718 17.504729734464874  C 2.995067215178718 20.818438233449633  5.681358716193957 23.504729734464874  8.995067215178718 23.504729734464874  C 10.637685601228885 23.504729734464874  12.20847751716106 22.831284849480937  13.341000000000001 21.6415  C 13.836314925843219 21.122649868312408  14.629653032509001 21.027097259585627  15.233999999999998 21.4135  C 15.83688886496782 21.798625462385484  16.53736089457368 22.00326171533146  17.252760506874264 22.00326171533146  C 19.32382831873974 22.00326171533146  21.002760506874264 20.324329527196934  21.002760506874264 18.25326171533146  C 21.002760506874264 17.846167164003347  20.936472992220047 17.44178879586427  20.8065 17.056  C 20.602153740387873 16.447381379993292  20.80779157545957 15.776193959363383  21.317999999999998 15.386500000000003  C 22.0625770095926 14.818751173391544  22.499544561680157 13.936050994596915  22.499544561680157 12.999710429776009  Z " fill-rule="nonzero" fill="rgba(0, 0, 0, 1)" stroke="none" class="fill" />
    <path d="M 13.500000003608726 0.9997673394782809  C 17.642135627339677 0.9997673394782809  21.00000000360873 4.357631715747329  21 8.5  C 21 8.5855  21 8.669500000000001  20.9955 8.754999999999999  C 22.79564409987537 9.389983196437504  23.99956891773651 11.091284981068734  23.99956891773651 13.000138678991679  C 23.99956891773651 14.403994311811982  23.34461787728096 15.7274769399393  22.228499999999997 16.579  C 22.409616482386078 17.117961620614643  22.501979031115773 17.682765731434564  22.501979031115773 18.251345372898687  C 22.501979031115773 21.150840309510354  20.151473967727437 23.501345372898687  17.251979031115773 23.501345372898687  C 16.250938468065588 23.501345372898687  15.270763672285259 23.215151161888212  14.426999999999996 22.676499999999997  C 13.011548715390113 24.161586287564198  11.04952460813106 25.002009756075317  8.997943846714392 25.002009756075317  C 4.855808222983441 25.002009756075317  1.497943846714393 21.644145379806268  1.497943846714393 17.502009756075317  C 1.497943846714393 16.654280042231214  1.6416656628969435 15.812685349685104  1.9229999999999974 15.013000000000003  C 0.6851406384597254 13.63616852571684  0.0003016124397153818 11.850125198762548  0.0003016124397153818 9.998649920091607  C 0.0003016124397153818 5.856514296360658  3.358165988708764 2.498649920091609  7.500301612439714 2.498649920091609  C 7.950937158761729 2.498649920091609  8.400655741618749 2.5392642324039683  8.843999999999998 2.6199999999999997  C 10.169089812275596 1.5707036903802885  11.8097675474128 0.9997673394782809  13.500000003608726 0.9997673394782809  Z " stroke-width="0" stroke-dasharray="0" stroke="rgba(255, 255, 255, 0)" fill="none" class="stroke" mask="url(#Clip5357)" />
    <path d="M 22.499544561680157 12.999710429776009  C 22.499544561680157 11.727319173055823  21.697278445952115 10.59318760992824  20.4975 10.169500000000001  C 19.879837524035715 9.951791557080512  19.47481779865523 9.358531779424236  19.497 8.704  L 19.50000000022032 8.500051418549635  C 19.50000000022032 5.186342919564874  16.813708499205084 2.500051418549634  13.500000000220322 2.500051418549634  C 12.147945232962071 2.500051418549634  10.835522524312996 2.956712003174792  9.775500000000001 3.796  C 9.437269801746105 4.06394636527301  9.000030817411327 4.173256111356704  8.575500000000002 4.096  C 8.219572695016014 4.030941935491928  7.85849007418765 3.9982128723369845  7.496665809950576 3.9982128723369845  C 4.182957310965815 3.9982128723369845  1.496665809950576 6.684504373352224  1.496665809950576 9.998212872336985  C 1.496665809950576 11.4799991525975  2.044984514770492 12.90937443366468  3.0360000000000005 14.011000000000001  C 3.4025931258111743 14.418611481654816  3.5176200078046156 14.993745891622023  3.336000000000001 15.510999999999997  C 3.1103492026456605 16.151494550145046  2.995067215178718 16.825648332045287  2.995067215178718 17.504729734464874  C 2.995067215178718 20.818438233449633  5.681358716193957 23.504729734464874  8.995067215178718 23.504729734464874  C 10.637685601228885 23.504729734464874  12.20847751716106 22.831284849480937  13.341000000000001 21.6415  C 13.836314925843219 21.122649868312408  14.629653032509001 21.027097259585627  15.233999999999998 21.4135  C 15.83688886496782 21.798625462385484  16.53736089457368 22.00326171533146  17.252760506874264 22.00326171533146  C 19.32382831873974 22.00326171533146  21.002760506874264 20.324329527196934  21.002760506874264 18.25326171533146  C 21.002760506874264 17.846167164003347  20.936472992220047 17.44178879586427  20.8065 17.056  C 20.602153740387873 16.447381379993292  20.80779157545957 15.776193959363383  21.317999999999998 15.386500000000003  C 22.0625770095926 14.818751173391544  22.499544561680157 13.936050994596915  22.499544561680157 12.999710429776009  Z " stroke-width="0" stroke-dasharray="0" stroke="rgba(255, 255, 255, 0)" fill="none" class="stroke" mask="url(#Clip5357)" />
  </g>
</svg>