<?xml version="1.0" encoding="utf-8"?>
<svg version="1.1" xmlns:xlink="http://www.w3.org/1999/xlink" width="24px" height="18px" xmlns="http://www.w3.org/2000/svg">
  <defs>
    <pattern id="BGPattern" patternUnits="userSpaceOnUse" alignment="0 0" imageRepeat="None" />
    <mask fill="white" id="Clip6044">
      <path d="M 16.5 18  L 1.5 18  C 1.5 18  0 18  0 16.5  C 0 15  1.5 10.5  9 10.5  C 16.5 10.5  18 15  18 16.5  C 18 18  16.5 18  16.5 18  Z M 4.5 4.500000000000001  C 4.5 6.985281374238572  6.514718625761429 9  9 9  C 11.48528137423857 9  13.5 6.985281374238572  13.5 4.500000000000001  C 13.5 2.0147186257614296  11.48528137423857 0  9 0  C 6.514718625761429 0  4.5 2.0147186257614296  4.5 4.500000000000001  Z M 20.25 12  C 19.835786437626904 12  19.5 11.664213562373096  19.5 11.25  C 19.5 10.835786437626904  19.835786437626904 10.5  20.25 10.5  L 23.25 10.5  C 23.664213562373096 10.5  24 10.835786437626904  24 11.25  C 24 11.664213562373096  23.664213562373096 12  23.25 12  L 20.25 12  Z M 17.25 7.500000000000002  C 16.835786437626904 7.500000000000002  16.5 7.164213562373096  16.5 6.750000000000001  C 16.5 6.335786437626905  16.835786437626904 6.000000000000001  17.25 6.000000000000001  L 23.25 6.000000000000001  C 23.664213562373096 6.000000000000001  24 6.335786437626905  24 6.750000000000001  C 24 7.164213562373096  23.664213562373096 7.500000000000002  23.25 7.500000000000002  L 17.25 7.500000000000002  Z M 17.25 3.000000000000001  C 16.835786437626904 3.000000000000001  16.5 2.664213562373096  16.5 2.250000000000001  C 16.5 1.835786437626906  16.835786437626904 1.5000000000000009  17.25 1.5000000000000009  L 23.25 1.5000000000000009  C 23.664213562373096 1.5000000000000009  24 1.835786437626906  24 2.250000000000001  C 24 2.664213562373096  23.664213562373096 3.000000000000001  23.25 3.000000000000001  L 17.25 3.000000000000001  Z M 20.25 16.5  C 19.835786437626904 16.5  19.5 16.164213562373096  19.5 15.75  C 19.5 15.335786437626904  19.835786437626904 15  20.25 15  L 23.25 15  C 23.664213562373096 15  24 15.335786437626904  24 15.75  C 24 16.164213562373096  23.664213562373096 16.5  23.25 16.5  L 20.25 16.5  Z " fill-rule="evenodd" />
    </mask>
  </defs>
  <g>
    <path d="M 16.5 18  L 1.5 18  C 1.5 18  0 18  0 16.5  C 0 15  1.5 10.5  9 10.5  C 16.5 10.5  18 15  18 16.5  C 18 18  16.5 18  16.5 18  Z M 4.5 4.500000000000001  C 4.5 6.985281374238572  6.514718625761429 9  9 9  C 11.48528137423857 9  13.5 6.985281374238572  13.5 4.500000000000001  C 13.5 2.0147186257614296  11.48528137423857 0  9 0  C 6.514718625761429 0  4.5 2.0147186257614296  4.5 4.500000000000001  Z M 20.25 12  C 19.835786437626904 12  19.5 11.664213562373096  19.5 11.25  C 19.5 10.835786437626904  19.835786437626904 10.5  20.25 10.5  L 23.25 10.5  C 23.664213562373096 10.5  24 10.835786437626904  24 11.25  C 24 11.664213562373096  23.664213562373096 12  23.25 12  L 20.25 12  Z M 17.25 7.500000000000002  C 16.835786437626904 7.500000000000002  16.5 7.164213562373096  16.5 6.750000000000001  C 16.5 6.335786437626905  16.835786437626904 6.000000000000001  17.25 6.000000000000001  L 23.25 6.000000000000001  C 23.664213562373096 6.000000000000001  24 6.335786437626905  24 6.750000000000001  C 24 7.164213562373096  23.664213562373096 7.500000000000002  23.25 7.500000000000002  L 17.25 7.500000000000002  Z M 17.25 3.000000000000001  C 16.835786437626904 3.000000000000001  16.5 2.664213562373096  16.5 2.250000000000001  C 16.5 1.835786437626906  16.835786437626904 1.5000000000000009  17.25 1.5000000000000009  L 23.25 1.5000000000000009  C 23.664213562373096 1.5000000000000009  24 1.835786437626906  24 2.250000000000001  C 24 2.664213562373096  23.664213562373096 3.000000000000001  23.25 3.000000000000001  L 17.25 3.000000000000001  Z M 20.25 16.5  C 19.835786437626904 16.5  19.5 16.164213562373096  19.5 15.75  C 19.5 15.335786437626904  19.835786437626904 15  20.25 15  L 23.25 15  C 23.664213562373096 15  24 15.335786437626904  24 15.75  C 24 16.164213562373096  23.664213562373096 16.5  23.25 16.5  L 20.25 16.5  Z " fill-rule="nonzero" fill="rgba(0, 0, 0, 1)" stroke="none" class="fill" />
    <path d="M 16.5 18  L 1.5 18  C 1.5 18  0 18  0 16.5  C 0 15  1.5 10.5  9 10.5  C 16.5 10.5  18 15  18 16.5  C 18 18  16.5 18  16.5 18  Z " stroke-width="0" stroke-dasharray="0" stroke="rgba(255, 255, 255, 0)" fill="none" class="stroke" mask="url(#Clip6044)" />
    <path d="M 4.5 4.500000000000001  C 4.5 6.985281374238572  6.514718625761429 9  9 9  C 11.48528137423857 9  13.5 6.985281374238572  13.5 4.500000000000001  C 13.5 2.0147186257614296  11.48528137423857 0  9 0  C 6.514718625761429 0  4.5 2.0147186257614296  4.5 4.500000000000001  Z " stroke-width="0" stroke-dasharray="0" stroke="rgba(255, 255, 255, 0)" fill="none" class="stroke" mask="url(#Clip6044)" />
    <path d="M 20.25 12  C 19.835786437626904 12  19.5 11.664213562373096  19.5 11.25  C 19.5 10.835786437626904  19.835786437626904 10.5  20.25 10.5  L 23.25 10.5  C 23.664213562373096 10.5  24 10.835786437626904  24 11.25  C 24 11.664213562373096  23.664213562373096 12  23.25 12  L 20.25 12  Z " stroke-width="0" stroke-dasharray="0" stroke="rgba(255, 255, 255, 0)" fill="none" class="stroke" mask="url(#Clip6044)" />
    <path d="M 17.25 7.500000000000002  C 16.835786437626904 7.500000000000002  16.5 7.164213562373096  16.5 6.750000000000001  C 16.5 6.335786437626905  16.835786437626904 6.000000000000001  17.25 6.000000000000001  L 23.25 6.000000000000001  C 23.664213562373096 6.000000000000001  24 6.335786437626905  24 6.750000000000001  C 24 7.164213562373096  23.664213562373096 7.500000000000002  23.25 7.500000000000002  L 17.25 7.500000000000002  Z " stroke-width="0" stroke-dasharray="0" stroke="rgba(255, 255, 255, 0)" fill="none" class="stroke" mask="url(#Clip6044)" />
    <path d="M 17.25 3.000000000000001  C 16.835786437626904 3.000000000000001  16.5 2.664213562373096  16.5 2.250000000000001  C 16.5 1.835786437626906  16.835786437626904 1.5000000000000009  17.25 1.5000000000000009  L 23.25 1.5000000000000009  C 23.664213562373096 1.5000000000000009  24 1.835786437626906  24 2.250000000000001  C 24 2.664213562373096  23.664213562373096 3.000000000000001  23.25 3.000000000000001  L 17.25 3.000000000000001  Z " stroke-width="0" stroke-dasharray="0" stroke="rgba(255, 255, 255, 0)" fill="none" class="stroke" mask="url(#Clip6044)" />
    <path d="M 20.25 16.5  C 19.835786437626904 16.5  19.5 16.164213562373096  19.5 15.75  C 19.5 15.335786437626904  19.835786437626904 15  20.25 15  L 23.25 15  C 23.664213562373096 15  24 15.335786437626904  24 15.75  C 24 16.164213562373096  23.664213562373096 16.5  23.25 16.5  L 20.25 16.5  Z " stroke-width="0" stroke-dasharray="0" stroke="rgba(255, 255, 255, 0)" fill="none" class="stroke" mask="url(#Clip6044)" />
  </g>
</svg>