<?xml version="1.0" encoding="utf-8"?>
<svg version="1.1" xmlns:xlink="http://www.w3.org/1999/xlink" width="50px" height="45px" xmlns="http://www.w3.org/2000/svg">
  <defs>
    <pattern id="BGPattern" patternUnits="userSpaceOnUse" alignment="0 0" imageRepeat="None" />
    <mask fill="white" id="Clip1724">
      <path d="M 50 13.480902777777771  C 50 9.123263888888886  49.0625 4.609375  47.41319444444446 0.928819444444457  C 46.92708333333334 -0.15625  45.53819444444446 -0.19965277777777143  44.95659722222223 0.8246527777777715  C 42.265625 5.5034722222222285  37.44791666666666 8.420138888888886  31.944444444444457 8.420138888888886  L 25 8.420138888888886  C 15.798611111111112 8.420138888888886  8.333333333333343 15.885416666666655  8.333333333333343 25.08680555555554  C 8.333333333333343 25.69444444444443  8.402777777777771 26.27604166666666  8.463541666666657 26.86631944444443  C 14.001736111111116 22.899305555555543  21.99652777777777 19.53125  33.333333333333314 19.53125  C 34.09722222222223 19.53125  34.72222222222223 20.15625  34.72222222222223 20.920138888888886  C 34.72222222222223 21.68402777777777  34.09722222222223 22.30902777777777  33.333333333333314 22.30902777777777  C 11.510416666666657 22.30902777777777  2.256944444444443 35.685763888888886  0.2083333333333286 40.71180555555554  C -0.3645833333333286 42.126736111111086  0.3125 43.74131944444443  1.7274305555555571 44.32291666666666  C 3.1510416666666714 44.91319444444443  4.765625 44.22743055555554  5.3559027777777715 42.82118055555554  C 5.486111111111114 42.50868055555554  7.170138888888886 38.66319444444443  11.597222222222229 34.95659722222223  C 14.409722222222229 38.767361111111086  19.756944444444457 42.404513888888886  26.779513888888886 41.657986111111086  C 40.407986111111114 40.66840277777777  50 28.446180555555543  50 13.480902777777771  Z " fill-rule="evenodd" />
    </mask>
  </defs>
  <g>
    <path d="M 50 13.480902777777771  C 50 9.123263888888886  49.0625 4.609375  47.41319444444446 0.928819444444457  C 46.92708333333334 -0.15625  45.53819444444446 -0.19965277777777143  44.95659722222223 0.8246527777777715  C 42.265625 5.5034722222222285  37.44791666666666 8.420138888888886  31.944444444444457 8.420138888888886  L 25 8.420138888888886  C 15.798611111111112 8.420138888888886  8.333333333333343 15.885416666666655  8.333333333333343 25.08680555555554  C 8.333333333333343 25.69444444444443  8.402777777777771 26.27604166666666  8.463541666666657 26.86631944444443  C 14.001736111111116 22.899305555555543  21.99652777777777 19.53125  33.333333333333314 19.53125  C 34.09722222222223 19.53125  34.72222222222223 20.15625  34.72222222222223 20.920138888888886  C 34.72222222222223 21.68402777777777  34.09722222222223 22.30902777777777  33.333333333333314 22.30902777777777  C 11.510416666666657 22.30902777777777  2.256944444444443 35.685763888888886  0.2083333333333286 40.71180555555554  C -0.3645833333333286 42.126736111111086  0.3125 43.74131944444443  1.7274305555555571 44.32291666666666  C 3.1510416666666714 44.91319444444443  4.765625 44.22743055555554  5.3559027777777715 42.82118055555554  C 5.486111111111114 42.50868055555554  7.170138888888886 38.66319444444443  11.597222222222229 34.95659722222223  C 14.409722222222229 38.767361111111086  19.756944444444457 42.404513888888886  26.779513888888886 41.657986111111086  C 40.407986111111114 40.66840277777777  50 28.446180555555543  50 13.480902777777771  Z " fill-rule="nonzero" fill="rgba(0, 0, 0, 1)" stroke="none" class="fill" />
    <path d="M 50 13.480902777777771  C 50 9.123263888888886  49.0625 4.609375  47.41319444444446 0.928819444444457  C 46.92708333333334 -0.15625  45.53819444444446 -0.19965277777777143  44.95659722222223 0.8246527777777715  C 42.265625 5.5034722222222285  37.44791666666666 8.420138888888886  31.944444444444457 8.420138888888886  L 25 8.420138888888886  C 15.798611111111112 8.420138888888886  8.333333333333343 15.885416666666655  8.333333333333343 25.08680555555554  C 8.333333333333343 25.69444444444443  8.402777777777771 26.27604166666666  8.463541666666657 26.86631944444443  C 14.001736111111116 22.899305555555543  21.99652777777777 19.53125  33.333333333333314 19.53125  C 34.09722222222223 19.53125  34.72222222222223 20.15625  34.72222222222223 20.920138888888886  C 34.72222222222223 21.68402777777777  34.09722222222223 22.30902777777777  33.333333333333314 22.30902777777777  C 11.510416666666657 22.30902777777777  2.256944444444443 35.685763888888886  0.2083333333333286 40.71180555555554  C -0.3645833333333286 42.126736111111086  0.3125 43.74131944444443  1.7274305555555571 44.32291666666666  C 3.1510416666666714 44.91319444444443  4.765625 44.22743055555554  5.3559027777777715 42.82118055555554  C 5.486111111111114 42.50868055555554  7.170138888888886 38.66319444444443  11.597222222222229 34.95659722222223  C 14.409722222222229 38.767361111111086  19.756944444444457 42.404513888888886  26.779513888888886 41.657986111111086  C 40.407986111111114 40.66840277777777  50 28.446180555555543  50 13.480902777777771  Z " stroke-width="0" stroke-dasharray="0" stroke="rgba(255, 255, 255, 0)" fill="none" class="stroke" mask="url(#Clip1724)" />
  </g>
</svg>