<?xml version="1.0" encoding="utf-8"?>
<svg version="1.1" xmlns:xlink="http://www.w3.org/1999/xlink" width="49px" height="40px" xmlns="http://www.w3.org/2000/svg">
  <defs>
    <pattern id="BGPattern" patternUnits="userSpaceOnUse" alignment="0 0" imageRepeat="None" />
    <mask fill="white" id="Clip7507">
      <path d="M 49 24.920000000000005  C 48.96 23.940000000000005  48.66 23.160000000000004  48.160000000000004 22.76  C 47.99848970638023 22.623107037127724  47.80642054646968 22.52707245717246  47.599999999999994 22.480000000000004  C 46.39999999999999 23.700000000000003  44.89999999999999 24.980000000000004  43.599999999999994 25.84  C 42.98 26.239999999999995  42.199999999999996 26.44  41.699999999999996 26.44  C 40.519999999999996 26.44  40.019999999999996 25.339999999999996  39.879999999999995 23.560000000000002  C 39.62466156888627 20.346566906700815  39.511217939226555 17.123433193427726  39.53999999999999 13.900000000000002  C 39.53999999999999 9.380000000000003  38.49999999999999 6.3000000000000025  35.779999999999994 6.060000000000002  L 35.419999999999995 6.040000000000003  C 33.76 6.040000000000003  32.94 6.900000000000002  31.879999999999995 9.080000000000002  C 30.959999999999997 10.96  29.539999999999996 13.68  26.919999999999995 18.88  C 24.94560262613711 22.813426186202964  22.601724417590848 26.550237730113867  19.919999999999995 30.040000000000006  C 19.299999999999994 30.800000000000004  18.819999999999993 31.320000000000007  18.359999999999996 31.640000000000008  C 18.10056235088147 31.81779620686138  17.794477690581353 31.91518678059324  17.479999999999997 31.92000000000001  C 16.619999999999997 31.92000000000001  15.979999999999995 31.20000000000001  15.78 29.500000000000014  C 15.724216143527002 29.042151118384936  15.697495956392538 28.581227890315397  15.699999999999998 28.120000000000005  C 15.699999999999998 24.620000000000005  17.019999999999996 18.920000000000005  19.299999999999997 10.560000000000006  C 20.959999999999997 4.460000000000006  20.259999999999998 0.30000000000000604  16.619999999999997 0.30000000000000604  L 16.559999999999995 0.30000000000000604  C 15.739999999999995 0.30000000000000604  15.059999999999995 0.6200000000000063  14.399999999999995 1.140000000000006  C 13.739999999999997 1.640000000000006  13.099999999999996 2.760000000000006  12.479999999999997 4.260000000000005  C 11.799999999999997 5.940000000000005  7.639999999999996 14.320000000000007  0.9999999999999999 18.660000000000004  C 0.9199999999999964 20.280000000000005  1.8399999999999963 21.92  3.7399999999999967 22.120000000000005  C 5.439999999999997 22.28000000000001  6.659999999999997 21.560000000000006  8.219999999999997 20.500000000000004  L 7.899999999999999 21.960000000000008  C 7.494074763942926 23.678582018131884  7.160447925878934 25.41344157606464  6.899999999999997 27.160000000000004  C 5.979999999999997 35.56  9.839999999999996 39.7  14.379999999999999 39.7  C 15.139999999999997 39.7  15.899999999999997 39.6  16.639999999999997 39.400000000000006  C 21.639999999999997 38.14000000000001  26.439999999999998 32.38000000000001  32.14 19.140000000000004  C 32.06093746667631 20.485335130040035  32.05426116518391 21.833948031503834  32.12 23.180000000000007  C 32.5 30.78  35.48 33.040000000000006  39.72 33.040000000000006  C 42.92 33.040000000000006  45.9 31.38000000000001  47.42 29.300000000000004  C 48.40424677623459 28.04804745880726  48.95835418756053 26.511977546397382  49 24.920000000000005  Z " fill-rule="evenodd" />
    </mask>
  </defs>
  <g>
    <path d="M 49 24.920000000000005  C 48.96 23.940000000000005  48.66 23.160000000000004  48.160000000000004 22.76  C 47.99848970638023 22.623107037127724  47.80642054646968 22.52707245717246  47.599999999999994 22.480000000000004  C 46.39999999999999 23.700000000000003  44.89999999999999 24.980000000000004  43.599999999999994 25.84  C 42.98 26.239999999999995  42.199999999999996 26.44  41.699999999999996 26.44  C 40.519999999999996 26.44  40.019999999999996 25.339999999999996  39.879999999999995 23.560000000000002  C 39.62466156888627 20.346566906700815  39.511217939226555 17.123433193427726  39.53999999999999 13.900000000000002  C 39.53999999999999 9.380000000000003  38.49999999999999 6.3000000000000025  35.779999999999994 6.060000000000002  L 35.419999999999995 6.040000000000003  C 33.76 6.040000000000003  32.94 6.900000000000002  31.879999999999995 9.080000000000002  C 30.959999999999997 10.96  29.539999999999996 13.68  26.919999999999995 18.88  C 24.94560262613711 22.813426186202964  22.601724417590848 26.550237730113867  19.919999999999995 30.040000000000006  C 19.299999999999994 30.800000000000004  18.819999999999993 31.320000000000007  18.359999999999996 31.640000000000008  C 18.10056235088147 31.81779620686138  17.794477690581353 31.91518678059324  17.479999999999997 31.92000000000001  C 16.619999999999997 31.92000000000001  15.979999999999995 31.20000000000001  15.78 29.500000000000014  C 15.724216143527002 29.042151118384936  15.697495956392538 28.581227890315397  15.699999999999998 28.120000000000005  C 15.699999999999998 24.620000000000005  17.019999999999996 18.920000000000005  19.299999999999997 10.560000000000006  C 20.959999999999997 4.460000000000006  20.259999999999998 0.30000000000000604  16.619999999999997 0.30000000000000604  L 16.559999999999995 0.30000000000000604  C 15.739999999999995 0.30000000000000604  15.059999999999995 0.6200000000000063  14.399999999999995 1.140000000000006  C 13.739999999999997 1.640000000000006  13.099999999999996 2.760000000000006  12.479999999999997 4.260000000000005  C 11.799999999999997 5.940000000000005  7.639999999999996 14.320000000000007  0.9999999999999999 18.660000000000004  C 0.9199999999999964 20.280000000000005  1.8399999999999963 21.92  3.7399999999999967 22.120000000000005  C 5.439999999999997 22.28000000000001  6.659999999999997 21.560000000000006  8.219999999999997 20.500000000000004  L 7.899999999999999 21.960000000000008  C 7.494074763942926 23.678582018131884  7.160447925878934 25.41344157606464  6.899999999999997 27.160000000000004  C 5.979999999999997 35.56  9.839999999999996 39.7  14.379999999999999 39.7  C 15.139999999999997 39.7  15.899999999999997 39.6  16.639999999999997 39.400000000000006  C 21.639999999999997 38.14000000000001  26.439999999999998 32.38000000000001  32.14 19.140000000000004  C 32.06093746667631 20.485335130040035  32.05426116518391 21.833948031503834  32.12 23.180000000000007  C 32.5 30.78  35.48 33.040000000000006  39.72 33.040000000000006  C 42.92 33.040000000000006  45.9 31.38000000000001  47.42 29.300000000000004  C 48.40424677623459 28.04804745880726  48.95835418756053 26.511977546397382  49 24.920000000000005  Z " fill-rule="nonzero" fill="rgba(236, 82, 82, 1)" stroke="none" class="fill" />
    <path d="M 49 24.920000000000005  C 48.96 23.940000000000005  48.66 23.160000000000004  48.160000000000004 22.76  C 47.99848970638023 22.623107037127724  47.80642054646968 22.52707245717246  47.599999999999994 22.480000000000004  C 46.39999999999999 23.700000000000003  44.89999999999999 24.980000000000004  43.599999999999994 25.84  C 42.98 26.239999999999995  42.199999999999996 26.44  41.699999999999996 26.44  C 40.519999999999996 26.44  40.019999999999996 25.339999999999996  39.879999999999995 23.560000000000002  C 39.62466156888627 20.346566906700815  39.511217939226555 17.123433193427726  39.53999999999999 13.900000000000002  C 39.53999999999999 9.380000000000003  38.49999999999999 6.3000000000000025  35.779999999999994 6.060000000000002  L 35.419999999999995 6.040000000000003  C 33.76 6.040000000000003  32.94 6.900000000000002  31.879999999999995 9.080000000000002  C 30.959999999999997 10.96  29.539999999999996 13.68  26.919999999999995 18.88  C 24.94560262613711 22.813426186202964  22.601724417590848 26.550237730113867  19.919999999999995 30.040000000000006  C 19.299999999999994 30.800000000000004  18.819999999999993 31.320000000000007  18.359999999999996 31.640000000000008  C 18.10056235088147 31.81779620686138  17.794477690581353 31.91518678059324  17.479999999999997 31.92000000000001  C 16.619999999999997 31.92000000000001  15.979999999999995 31.20000000000001  15.78 29.500000000000014  C 15.724216143527002 29.042151118384936  15.697495956392538 28.581227890315397  15.699999999999998 28.120000000000005  C 15.699999999999998 24.620000000000005  17.019999999999996 18.920000000000005  19.299999999999997 10.560000000000006  C 20.959999999999997 4.460000000000006  20.259999999999998 0.30000000000000604  16.619999999999997 0.30000000000000604  L 16.559999999999995 0.30000000000000604  C 15.739999999999995 0.30000000000000604  15.059999999999995 0.6200000000000063  14.399999999999995 1.140000000000006  C 13.739999999999997 1.640000000000006  13.099999999999996 2.760000000000006  12.479999999999997 4.260000000000005  C 11.799999999999997 5.940000000000005  7.639999999999996 14.320000000000007  0.9999999999999999 18.660000000000004  C 0.9199999999999964 20.280000000000005  1.8399999999999963 21.92  3.7399999999999967 22.120000000000005  C 5.439999999999997 22.28000000000001  6.659999999999997 21.560000000000006  8.219999999999997 20.500000000000004  L 7.899999999999999 21.960000000000008  C 7.494074763942926 23.678582018131884  7.160447925878934 25.41344157606464  6.899999999999997 27.160000000000004  C 5.979999999999997 35.56  9.839999999999996 39.7  14.379999999999999 39.7  C 15.139999999999997 39.7  15.899999999999997 39.6  16.639999999999997 39.400000000000006  C 21.639999999999997 38.14000000000001  26.439999999999998 32.38000000000001  32.14 19.140000000000004  C 32.06093746667631 20.485335130040035  32.05426116518391 21.833948031503834  32.12 23.180000000000007  C 32.5 30.78  35.48 33.040000000000006  39.72 33.040000000000006  C 42.92 33.040000000000006  45.9 31.38000000000001  47.42 29.300000000000004  C 48.40424677623459 28.04804745880726  48.95835418756053 26.511977546397382  49 24.920000000000005  Z " stroke-width="0" stroke-dasharray="0" stroke="rgba(255, 255, 255, 0)" fill="none" class="stroke" mask="url(#Clip7507)" />
  </g>
</svg>