<?xml version="1.0" encoding="utf-8"?>
<svg version="1.1" xmlns:xlink="http://www.w3.org/1999/xlink" width="50px" height="35px" xmlns="http://www.w3.org/2000/svg">
  <defs>
    <pattern id="BGPattern" patternUnits="userSpaceOnUse" alignment="0 0" imageRepeat="None" />
    <mask fill="white" id="Clip1789">
      <path d="M 50 4.050702111024975  C 49.921996879875195 3.0647426752944966  49.358034321372855 2.1318253611064506  48.452418096723875 1.7519501671185367  C 45.42667706708269 0.48283940609513826  42.39859594383776 0  39.37207488299532 0  C 29.764430577223095 -0.000779937380229967  20.1575663026521 4.862714589344193  10.549921996879874 4.862714589344193  C 8.140405616224655 4.862714589344193  5.732449297971925 4.556942359275865  3.322932917316706 3.792511784105045  C 3.052262090483623 3.7067083521981203  2.7808112324493095 3.6661467298421258  2.5156006240249553 3.6661467298421258  C 1.1731669266770552 3.6661467298421258  0 4.705148287115094  0 6.147425974350598  L 0 30.89469579870655  C 0 31.87987520323793  0.5639625585023396 32.81357254862513  1.46957878315132 33.19266771141389  C 4.495319812792502 34.46255850363639  7.523400936037433 34.945397815912656  10.549921996879874 34.945397815912656  C 20.1575663026521 34.945397815912656  29.765210608424354 30.081903289188233  39.37285491419658 30.081903289188233  C 41.7823712948518 30.081903289188233  44.19032761310453 30.38767551925656  46.59984399375975 31.152106094427324  C 46.87051482059283 31.23790952633425  47.141965678627145 31.2784711486903  47.40717628705147 31.2784711486903  C 48.74960998439937 31.2784711486903  49.922776911076454 30.239469591417333  50 28.797191904181773  L 50 4.050702111024975  Z M 31.201248049921986 17.47269895486579  C 31.201248049921986 21.609204403978765  28.40639625585024 24.960998466743035  24.96099843993761 24.960998466743035  C 21.514040561622465 24.960998466743035  18.72074882995321 21.60764434158051  18.72074882995321 17.47269895486579  C 18.72074882995321 13.336973536951916  21.514820592823725 9.984399442988547  24.96099843993761 9.984399442988547  C 28.40717628705147 9.984399442988547  31.201248049921986 13.336973536951916  31.201248049921986 17.47269895486579  Z " fill-rule="evenodd" />
    </mask>
  </defs>
  <g>
    <path d="M 50 4.050702111024975  C 49.921996879875195 3.0647426752944966  49.358034321372855 2.1318253611064506  48.452418096723875 1.7519501671185367  C 45.42667706708269 0.48283940609513826  42.39859594383776 0  39.37207488299532 0  C 29.764430577223095 -0.000779937380229967  20.1575663026521 4.862714589344193  10.549921996879874 4.862714589344193  C 8.140405616224655 4.862714589344193  5.732449297971925 4.556942359275865  3.322932917316706 3.792511784105045  C 3.052262090483623 3.7067083521981203  2.7808112324493095 3.6661467298421258  2.5156006240249553 3.6661467298421258  C 1.1731669266770552 3.6661467298421258  0 4.705148287115094  0 6.147425974350598  L 0 30.89469579870655  C 0 31.87987520323793  0.5639625585023396 32.81357254862513  1.46957878315132 33.19266771141389  C 4.495319812792502 34.46255850363639  7.523400936037433 34.945397815912656  10.549921996879874 34.945397815912656  C 20.1575663026521 34.945397815912656  29.765210608424354 30.081903289188233  39.37285491419658 30.081903289188233  C 41.7823712948518 30.081903289188233  44.19032761310453 30.38767551925656  46.59984399375975 31.152106094427324  C 46.87051482059283 31.23790952633425  47.141965678627145 31.2784711486903  47.40717628705147 31.2784711486903  C 48.74960998439937 31.2784711486903  49.922776911076454 30.239469591417333  50 28.797191904181773  L 50 4.050702111024975  Z M 31.201248049921986 17.47269895486579  C 31.201248049921986 21.609204403978765  28.40639625585024 24.960998466743035  24.96099843993761 24.960998466743035  C 21.514040561622465 24.960998466743035  18.72074882995321 21.60764434158051  18.72074882995321 17.47269895486579  C 18.72074882995321 13.336973536951916  21.514820592823725 9.984399442988547  24.96099843993761 9.984399442988547  C 28.40717628705147 9.984399442988547  31.201248049921986 13.336973536951916  31.201248049921986 17.47269895486579  Z " fill-rule="nonzero" fill="rgba(0, 0, 0, 1)" stroke="none" class="fill" />
    <path d="M 50 4.050702111024975  C 49.921996879875195 3.0647426752944966  49.358034321372855 2.1318253611064506  48.452418096723875 1.7519501671185367  C 45.42667706708269 0.48283940609513826  42.39859594383776 0  39.37207488299532 0  C 29.764430577223095 -0.000779937380229967  20.1575663026521 4.862714589344193  10.549921996879874 4.862714589344193  C 8.140405616224655 4.862714589344193  5.732449297971925 4.556942359275865  3.322932917316706 3.792511784105045  C 3.052262090483623 3.7067083521981203  2.7808112324493095 3.6661467298421258  2.5156006240249553 3.6661467298421258  C 1.1731669266770552 3.6661467298421258  0 4.705148287115094  0 6.147425974350598  L 0 30.89469579870655  C 0 31.87987520323793  0.5639625585023396 32.81357254862513  1.46957878315132 33.19266771141389  C 4.495319812792502 34.46255850363639  7.523400936037433 34.945397815912656  10.549921996879874 34.945397815912656  C 20.1575663026521 34.945397815912656  29.765210608424354 30.081903289188233  39.37285491419658 30.081903289188233  C 41.7823712948518 30.081903289188233  44.19032761310453 30.38767551925656  46.59984399375975 31.152106094427324  C 46.87051482059283 31.23790952633425  47.141965678627145 31.2784711486903  47.40717628705147 31.2784711486903  C 48.74960998439937 31.2784711486903  49.922776911076454 30.239469591417333  50 28.797191904181773  L 50 4.050702111024975  Z " stroke-width="0" stroke-dasharray="0" stroke="rgba(255, 255, 255, 0)" fill="none" class="stroke" mask="url(#Clip1789)" />
    <path d="M 31.201248049921986 17.47269895486579  C 31.201248049921986 21.609204403978765  28.40639625585024 24.960998466743035  24.96099843993761 24.960998466743035  C 21.514040561622465 24.960998466743035  18.72074882995321 21.60764434158051  18.72074882995321 17.47269895486579  C 18.72074882995321 13.336973536951916  21.514820592823725 9.984399442988547  24.96099843993761 9.984399442988547  C 28.40717628705147 9.984399442988547  31.201248049921986 13.336973536951916  31.201248049921986 17.47269895486579  Z " stroke-width="0" stroke-dasharray="0" stroke="rgba(255, 255, 255, 0)" fill="none" class="stroke" mask="url(#Clip1789)" />
  </g>
</svg>