<?xml version="1.0" encoding="utf-8"?>
<svg version="1.1" xmlns:xlink="http://www.w3.org/1999/xlink" width="26px" height="24px" xmlns="http://www.w3.org/2000/svg">
  <defs>
    <pattern id="BGPattern" patternUnits="userSpaceOnUse" alignment="0 0" imageRepeat="None" />
    <mask fill="white" id="Clip519">
      <path d="M 6.0080000000000044 15.200000000000003  L 7.800000000000001 15.2  C 8.456000000000001 15.2  9 15.744  9 16.4  C 9 17.055999999999997  8.456 17.599999999999998  7.800000000000001 17.599999999999998  L 5.5440000000000005 17.599999999999998  L 4.648000000000001 22.176  C 4.5360000000000005 22.767999999999997  4.056000000000001 23.2  3.464 23.2  C 2.6800000000000006 23.2  2.152 22.448  2.2800000000000002 21.823999999999998  L 3.112 17.599999999999998  L 1.4000000000000004 17.599999999999998  C 0.7440000000000002 17.599999999999998  0.20000000000000018 17.055999999999997  0.20000000000000018 16.4  C 0.20000000000000018 15.744  0.7440000000000002 15.2  1.4000000000000004 15.2  L 3.5760000000000005 15.2  L 4.840000000000001 8.799999999999999  L 2.200000000000001 8.799999999999999  C 1.5440000000000014 8.799999999999999  1.0000000000000009 8.255999999999998  1.0000000000000009 7.6  C 1.0000000000000009 6.944000000000001  1.5440000000000005 6.4  2.200000000000001 6.4  L 5.304000000000002 6.4  L 6.200000000000003 1.8240000000000007  C 6.312000000000003 1.232000000000001  6.792000000000003 0.8000000000000007  7.384000000000002 0.8000000000000007  C 8.168000000000003 0.8000000000000007  8.696000000000002 1.5520000000000005  8.568000000000001 2.176  L 7.7360000000000015 6.4  L 11.72 6.4  L 12.616000000000001 1.8240000000000007  C 12.728000000000002 1.232000000000001  13.208000000000004 0.8000000000000007  13.8 0.8000000000000007  C 14.583999999999998 0.8000000000000007  15.112000000000002 1.5520000000000005  14.984000000000002 2.176  L 14.168000000000003 6.4  L 15.800000000000004 6.4  C 16.456000000000003 6.4  17.000000000000004 6.944000000000001  17.000000000000004 7.6  C 17.000000000000004 8.255999999999998  16.456000000000003 8.799999999999999  15.800000000000004 8.799999999999999  L 13.688000000000002 8.799999999999999  L 13.112000000000002 11.776  C 13.000000000000004 12.367999999999999  12.520000000000001 12.8  11.928000000000003 12.8  C 11.144000000000002 12.8  10.616000000000003 12.048000000000002  10.744000000000003 11.424000000000001  L 11.256000000000004 8.8  L 7.272000000000004 8.8  L 6.0080000000000044 15.200000000000003  Z M 20.648 9.967999999999998  L 25.448 14.719999999999999  C 25.688 14.959999999999997  25.8 15.264  25.8 15.567999999999998  C 25.8 15.871999999999996  25.688000000000002 16.176  25.448 16.415999999999997  L 20.648 21.247999999999998  C 20.184 21.711999999999996  19.416 21.711999999999996  18.951999999999998 21.247999999999998  C 18.439999999999998 20.735999999999997  18.52 19.983999999999998  18.951999999999998 19.551999999999996  L 21.671999999999997 16.799999999999997  L 17.351999999999997 16.799999999999997  C 14.263999999999998 16.799999999999997  12.199999999999996 18.879999999999995  12.199999999999996 21.999999999999996  C 12.199999999999996 22.655999999999995  11.671999999999995 23.199999999999996  10.999999999999996 23.199999999999996  C 10.343999999999996 23.199999999999996  9.799999999999997 22.655999999999995  9.799999999999997 21.999999999999996  C 9.799999999999997 17.439999999999998  12.823999999999998 14.399999999999999  17.351999999999997 14.399999999999999  L 21.735999999999997 14.399999999999999  L 18.951999999999998 11.663999999999998  C 18.488 11.199999999999998  18.471999999999998 10.447999999999999  18.951999999999998 9.967999999999998  C 19.447999999999997 9.471999999999998  20.151999999999997 9.471999999999998  20.648 9.967999999999998  Z " fill-rule="evenodd" />
    </mask>
  </defs>
  <g>
    <path d="M 6.0080000000000044 15.200000000000003  L 7.800000000000001 15.2  C 8.456000000000001 15.2  9 15.744  9 16.4  C 9 17.055999999999997  8.456 17.599999999999998  7.800000000000001 17.599999999999998  L 5.5440000000000005 17.599999999999998  L 4.648000000000001 22.176  C 4.5360000000000005 22.767999999999997  4.056000000000001 23.2  3.464 23.2  C 2.6800000000000006 23.2  2.152 22.448  2.2800000000000002 21.823999999999998  L 3.112 17.599999999999998  L 1.4000000000000004 17.599999999999998  C 0.7440000000000002 17.599999999999998  0.20000000000000018 17.055999999999997  0.20000000000000018 16.4  C 0.20000000000000018 15.744  0.7440000000000002 15.2  1.4000000000000004 15.2  L 3.5760000000000005 15.2  L 4.840000000000001 8.799999999999999  L 2.200000000000001 8.799999999999999  C 1.5440000000000014 8.799999999999999  1.0000000000000009 8.255999999999998  1.0000000000000009 7.6  C 1.0000000000000009 6.944000000000001  1.5440000000000005 6.4  2.200000000000001 6.4  L 5.304000000000002 6.4  L 6.200000000000003 1.8240000000000007  C 6.312000000000003 1.232000000000001  6.792000000000003 0.8000000000000007  7.384000000000002 0.8000000000000007  C 8.168000000000003 0.8000000000000007  8.696000000000002 1.5520000000000005  8.568000000000001 2.176  L 7.7360000000000015 6.4  L 11.72 6.4  L 12.616000000000001 1.8240000000000007  C 12.728000000000002 1.232000000000001  13.208000000000004 0.8000000000000007  13.8 0.8000000000000007  C 14.583999999999998 0.8000000000000007  15.112000000000002 1.5520000000000005  14.984000000000002 2.176  L 14.168000000000003 6.4  L 15.800000000000004 6.4  C 16.456000000000003 6.4  17.000000000000004 6.944000000000001  17.000000000000004 7.6  C 17.000000000000004 8.255999999999998  16.456000000000003 8.799999999999999  15.800000000000004 8.799999999999999  L 13.688000000000002 8.799999999999999  L 13.112000000000002 11.776  C 13.000000000000004 12.367999999999999  12.520000000000001 12.8  11.928000000000003 12.8  C 11.144000000000002 12.8  10.616000000000003 12.048000000000002  10.744000000000003 11.424000000000001  L 11.256000000000004 8.8  L 7.272000000000004 8.8  L 6.0080000000000044 15.200000000000003  Z M 20.648 9.967999999999998  L 25.448 14.719999999999999  C 25.688 14.959999999999997  25.8 15.264  25.8 15.567999999999998  C 25.8 15.871999999999996  25.688000000000002 16.176  25.448 16.415999999999997  L 20.648 21.247999999999998  C 20.184 21.711999999999996  19.416 21.711999999999996  18.951999999999998 21.247999999999998  C 18.439999999999998 20.735999999999997  18.52 19.983999999999998  18.951999999999998 19.551999999999996  L 21.671999999999997 16.799999999999997  L 17.351999999999997 16.799999999999997  C 14.263999999999998 16.799999999999997  12.199999999999996 18.879999999999995  12.199999999999996 21.999999999999996  C 12.199999999999996 22.655999999999995  11.671999999999995 23.199999999999996  10.999999999999996 23.199999999999996  C 10.343999999999996 23.199999999999996  9.799999999999997 22.655999999999995  9.799999999999997 21.999999999999996  C 9.799999999999997 17.439999999999998  12.823999999999998 14.399999999999999  17.351999999999997 14.399999999999999  L 21.735999999999997 14.399999999999999  L 18.951999999999998 11.663999999999998  C 18.488 11.199999999999998  18.471999999999998 10.447999999999999  18.951999999999998 9.967999999999998  C 19.447999999999997 9.471999999999998  20.151999999999997 9.471999999999998  20.648 9.967999999999998  Z " fill-rule="nonzero" fill="rgba(0, 0, 0, 1)" stroke="none" class="fill" />
    <path d="M 6.0080000000000044 15.200000000000003  L 7.800000000000001 15.2  C 8.456000000000001 15.2  9 15.744  9 16.4  C 9 17.055999999999997  8.456 17.599999999999998  7.800000000000001 17.599999999999998  L 5.5440000000000005 17.599999999999998  L 4.648000000000001 22.176  C 4.5360000000000005 22.767999999999997  4.056000000000001 23.2  3.464 23.2  C 2.6800000000000006 23.2  2.152 22.448  2.2800000000000002 21.823999999999998  L 3.112 17.599999999999998  L 1.4000000000000004 17.599999999999998  C 0.7440000000000002 17.599999999999998  0.20000000000000018 17.055999999999997  0.20000000000000018 16.4  C 0.20000000000000018 15.744  0.7440000000000002 15.2  1.4000000000000004 15.2  L 3.5760000000000005 15.2  L 4.840000000000001 8.799999999999999  L 2.200000000000001 8.799999999999999  C 1.5440000000000014 8.799999999999999  1.0000000000000009 8.255999999999998  1.0000000000000009 7.6  C 1.0000000000000009 6.944000000000001  1.5440000000000005 6.4  2.200000000000001 6.4  L 5.304000000000002 6.4  L 6.200000000000003 1.8240000000000007  C 6.312000000000003 1.232000000000001  6.792000000000003 0.8000000000000007  7.384000000000002 0.8000000000000007  C 8.168000000000003 0.8000000000000007  8.696000000000002 1.5520000000000005  8.568000000000001 2.176  L 7.7360000000000015 6.4  L 11.72 6.4  L 12.616000000000001 1.8240000000000007  C 12.728000000000002 1.232000000000001  13.208000000000004 0.8000000000000007  13.8 0.8000000000000007  C 14.583999999999998 0.8000000000000007  15.112000000000002 1.5520000000000005  14.984000000000002 2.176  L 14.168000000000003 6.4  L 15.800000000000004 6.4  C 16.456000000000003 6.4  17.000000000000004 6.944000000000001  17.000000000000004 7.6  C 17.000000000000004 8.255999999999998  16.456000000000003 8.799999999999999  15.800000000000004 8.799999999999999  L 13.688000000000002 8.799999999999999  L 13.112000000000002 11.776  C 13.000000000000004 12.367999999999999  12.520000000000001 12.8  11.928000000000003 12.8  C 11.144000000000002 12.8  10.616000000000003 12.048000000000002  10.744000000000003 11.424000000000001  L 11.256000000000004 8.8  L 7.272000000000004 8.8  L 6.0080000000000044 15.200000000000003  Z " stroke-width="0" stroke-dasharray="0" stroke="rgba(255, 255, 255, 0)" fill="none" class="stroke" mask="url(#Clip519)" />
    <path d="M 20.648 9.967999999999998  L 25.448 14.719999999999999  C 25.688 14.959999999999997  25.8 15.264  25.8 15.567999999999998  C 25.8 15.871999999999996  25.688000000000002 16.176  25.448 16.415999999999997  L 20.648 21.247999999999998  C 20.184 21.711999999999996  19.416 21.711999999999996  18.951999999999998 21.247999999999998  C 18.439999999999998 20.735999999999997  18.52 19.983999999999998  18.951999999999998 19.551999999999996  L 21.671999999999997 16.799999999999997  L 17.351999999999997 16.799999999999997  C 14.263999999999998 16.799999999999997  12.199999999999996 18.879999999999995  12.199999999999996 21.999999999999996  C 12.199999999999996 22.655999999999995  11.671999999999995 23.199999999999996  10.999999999999996 23.199999999999996  C 10.343999999999996 23.199999999999996  9.799999999999997 22.655999999999995  9.799999999999997 21.999999999999996  C 9.799999999999997 17.439999999999998  12.823999999999998 14.399999999999999  17.351999999999997 14.399999999999999  L 21.735999999999997 14.399999999999999  L 18.951999999999998 11.663999999999998  C 18.488 11.199999999999998  18.471999999999998 10.447999999999999  18.951999999999998 9.967999999999998  C 19.447999999999997 9.471999999999998  20.151999999999997 9.471999999999998  20.648 9.967999999999998  Z " stroke-width="0" stroke-dasharray="0" stroke="rgba(255, 255, 255, 0)" fill="none" class="stroke" mask="url(#Clip519)" />
  </g>
</svg>