<?xml version="1.0" encoding="utf-8"?>
<svg version="1.1" xmlns:xlink="http://www.w3.org/1999/xlink" width="50px" height="41px" xmlns="http://www.w3.org/2000/svg">
  <defs>
    <pattern id="BGPattern" patternUnits="userSpaceOnUse" alignment="0 0" imageRepeat="None" />
    <mask fill="white" id="Clip796">
      <path d="M 15.562500000000002 21.83333333333337  C 18.25 21.83333333333337  19.385416666666686 25.395833333333375  19.385416666666686 27.572916666666686  C 19.385416666666686 29.75  18.25 33.3125  15.562500000000002 33.3125  C 12.875 33.3125  11.739583333333314 29.75  11.739583333333314 27.572916666666686  C 11.739583333333314 25.395833333333375  12.875 21.83333333333337  15.562500000000002 21.83333333333337  Z M 45.9375 10.416666666666686  C 48.80208333333337 13.791666666666686  50 17.947916666666686  50 22.3125  C 50 25.635416666666686  49.666666666666686 29.156250000000004  48.177083333333314 32.20833333333337  C 44.229166666666686 40.1875  33.375 40  25.604166666666682 40  C 17.708333333333314 40  6.208333333333314 40.28125  2.1041666666666856 32.20833333333337  C 0.5833333333333144 29.1875  0 25.635416666666686  0 22.3125  C 0 17.947916666666686  1.4479166666666856 13.822916666666686  4.322916666666686 10.479166666666686  C 3.78125 8.833333333333314  3.520833333333315 7.104166666666685  3.520833333333315 5.395833333333314  C 3.520833333333315 3.15625  4.03125 2.03125  5.041666666666686 0  C 9.760416666666686 0  12.78125 0.9375  16.375 3.75  C 19.395833333333314 3.03125  22.5 2.7083333333333144  25.614583333333314 2.7083333333333144  C 28.427083333333314 2.7083333333333144  31.260416666666686 3.0104166666666856  33.98958333333337 3.6666666666666856  C 37.53125 0.8854166666666856  40.552083333333314 0  45.21875 0  C 46.23958333333337 2.03125  46.73958333333337 3.15625  46.73958333333337 5.395833333333314  C 46.73958333333337 7.104166666666685  46.46875 8.802083333333314  45.9375 10.416666666666686  Z M 27.614583333333314 38.125  C 34.9375 38.125  43.302083333333314 36.729166666666686  43.302083333333314 27.572916666666686  C 43.302083333333314 23.000000000000004  40.520833333333314 18.96875  35.645833333333314 18.96875  C 33.677083333333314 18.96875  31.791666666666686 19.322916666666686  29.812499999999996 19.59375  C 28.26041666666669 19.83333333333337  26.70833333333331 19.927083333333314  25.11458333333331 19.927083333333314  C 23.53125 19.927083333333314  21.979166666666686 19.83333333333337  20.416666666666686 19.59375  C 18.46875 19.322916666666686  16.5625 18.96875  14.583333333333314 18.96875  C 9.708333333333314 18.96875  6.927083333333314 23.000000000000004  6.927083333333314 27.572916666666686  C 6.927083333333314 36.71875  15.302083333333313 38.125  22.59375 38.125  L 27.614583333333314 38.125  Z M 38.520833333333314 27.572916666666686  C 38.520833333333314 25.395833333333375  37.385416666666686 21.83333333333337  34.697916666666686 21.83333333333337  C 32.010416666666686 21.83333333333337  30.875000000000004 25.395833333333375  30.875000000000004 27.572916666666686  C 30.875000000000004 29.75  32.010416666666686 33.3125  34.697916666666686 33.3125  C 37.385416666666686 33.3125  38.520833333333314 29.75  38.520833333333314 27.572916666666686  Z " fill-rule="evenodd" />
    </mask>
  </defs>
  <g>
    <path d="M 15.562500000000002 21.83333333333337  C 18.25 21.83333333333337  19.385416666666686 25.395833333333375  19.385416666666686 27.572916666666686  C 19.385416666666686 29.75  18.25 33.3125  15.562500000000002 33.3125  C 12.875 33.3125  11.739583333333314 29.75  11.739583333333314 27.572916666666686  C 11.739583333333314 25.395833333333375  12.875 21.83333333333337  15.562500000000002 21.83333333333337  Z M 45.9375 10.416666666666686  C 48.80208333333337 13.791666666666686  50 17.947916666666686  50 22.3125  C 50 25.635416666666686  49.666666666666686 29.156250000000004  48.177083333333314 32.20833333333337  C 44.229166666666686 40.1875  33.375 40  25.604166666666682 40  C 17.708333333333314 40  6.208333333333314 40.28125  2.1041666666666856 32.20833333333337  C 0.5833333333333144 29.1875  0 25.635416666666686  0 22.3125  C 0 17.947916666666686  1.4479166666666856 13.822916666666686  4.322916666666686 10.479166666666686  C 3.78125 8.833333333333314  3.520833333333315 7.104166666666685  3.520833333333315 5.395833333333314  C 3.520833333333315 3.15625  4.03125 2.03125  5.041666666666686 0  C 9.760416666666686 0  12.78125 0.9375  16.375 3.75  C 19.395833333333314 3.03125  22.5 2.7083333333333144  25.614583333333314 2.7083333333333144  C 28.427083333333314 2.7083333333333144  31.260416666666686 3.0104166666666856  33.98958333333337 3.6666666666666856  C 37.53125 0.8854166666666856  40.552083333333314 0  45.21875 0  C 46.23958333333337 2.03125  46.73958333333337 3.15625  46.73958333333337 5.395833333333314  C 46.73958333333337 7.104166666666685  46.46875 8.802083333333314  45.9375 10.416666666666686  Z M 27.614583333333314 38.125  C 34.9375 38.125  43.302083333333314 36.729166666666686  43.302083333333314 27.572916666666686  C 43.302083333333314 23.000000000000004  40.520833333333314 18.96875  35.645833333333314 18.96875  C 33.677083333333314 18.96875  31.791666666666686 19.322916666666686  29.812499999999996 19.59375  C 28.26041666666669 19.83333333333337  26.70833333333331 19.927083333333314  25.11458333333331 19.927083333333314  C 23.53125 19.927083333333314  21.979166666666686 19.83333333333337  20.416666666666686 19.59375  C 18.46875 19.322916666666686  16.5625 18.96875  14.583333333333314 18.96875  C 9.708333333333314 18.96875  6.927083333333314 23.000000000000004  6.927083333333314 27.572916666666686  C 6.927083333333314 36.71875  15.302083333333313 38.125  22.59375 38.125  L 27.614583333333314 38.125  Z M 38.520833333333314 27.572916666666686  C 38.520833333333314 25.395833333333375  37.385416666666686 21.83333333333337  34.697916666666686 21.83333333333337  C 32.010416666666686 21.83333333333337  30.875000000000004 25.395833333333375  30.875000000000004 27.572916666666686  C 30.875000000000004 29.75  32.010416666666686 33.3125  34.697916666666686 33.3125  C 37.385416666666686 33.3125  38.520833333333314 29.75  38.520833333333314 27.572916666666686  Z " fill-rule="nonzero" fill="rgba(0, 0, 0, 1)" stroke="none" class="fill" />
    <path d="M 15.562500000000002 21.83333333333337  C 18.25 21.83333333333337  19.385416666666686 25.395833333333375  19.385416666666686 27.572916666666686  C 19.385416666666686 29.75  18.25 33.3125  15.562500000000002 33.3125  C 12.875 33.3125  11.739583333333314 29.75  11.739583333333314 27.572916666666686  C 11.739583333333314 25.395833333333375  12.875 21.83333333333337  15.562500000000002 21.83333333333337  Z " stroke-width="0" stroke-dasharray="0" stroke="rgba(255, 255, 255, 0)" fill="none" class="stroke" mask="url(#Clip796)" />
    <path d="M 45.9375 10.416666666666686  C 48.80208333333337 13.791666666666686  50 17.947916666666686  50 22.3125  C 50 25.635416666666686  49.666666666666686 29.156250000000004  48.177083333333314 32.20833333333337  C 44.229166666666686 40.1875  33.375 40  25.604166666666682 40  C 17.708333333333314 40  6.208333333333314 40.28125  2.1041666666666856 32.20833333333337  C 0.5833333333333144 29.1875  0 25.635416666666686  0 22.3125  C 0 17.947916666666686  1.4479166666666856 13.822916666666686  4.322916666666686 10.479166666666686  C 3.78125 8.833333333333314  3.520833333333315 7.104166666666685  3.520833333333315 5.395833333333314  C 3.520833333333315 3.15625  4.03125 2.03125  5.041666666666686 0  C 9.760416666666686 0  12.78125 0.9375  16.375 3.75  C 19.395833333333314 3.03125  22.5 2.7083333333333144  25.614583333333314 2.7083333333333144  C 28.427083333333314 2.7083333333333144  31.260416666666686 3.0104166666666856  33.98958333333337 3.6666666666666856  C 37.53125 0.8854166666666856  40.552083333333314 0  45.21875 0  C 46.23958333333337 2.03125  46.73958333333337 3.15625  46.73958333333337 5.395833333333314  C 46.73958333333337 7.104166666666685  46.46875 8.802083333333314  45.9375 10.416666666666686  Z " stroke-width="0" stroke-dasharray="0" stroke="rgba(255, 255, 255, 0)" fill="none" class="stroke" mask="url(#Clip796)" />
    <path d="M 27.614583333333314 38.125  C 34.9375 38.125  43.302083333333314 36.729166666666686  43.302083333333314 27.572916666666686  C 43.302083333333314 23.000000000000004  40.520833333333314 18.96875  35.645833333333314 18.96875  C 33.677083333333314 18.96875  31.791666666666686 19.322916666666686  29.812499999999996 19.59375  C 28.26041666666669 19.83333333333337  26.70833333333331 19.927083333333314  25.11458333333331 19.927083333333314  C 23.53125 19.927083333333314  21.979166666666686 19.83333333333337  20.416666666666686 19.59375  C 18.46875 19.322916666666686  16.5625 18.96875  14.583333333333314 18.96875  C 9.708333333333314 18.96875  6.927083333333314 23.000000000000004  6.927083333333314 27.572916666666686  C 6.927083333333314 36.71875  15.302083333333313 38.125  22.59375 38.125  L 27.614583333333314 38.125  Z " stroke-width="0" stroke-dasharray="0" stroke="rgba(255, 255, 255, 0)" fill="none" class="stroke" mask="url(#Clip796)" />
    <path d="M 38.520833333333314 27.572916666666686  C 38.520833333333314 25.395833333333375  37.385416666666686 21.83333333333337  34.697916666666686 21.83333333333337  C 32.010416666666686 21.83333333333337  30.875000000000004 25.395833333333375  30.875000000000004 27.572916666666686  C 30.875000000000004 29.75  32.010416666666686 33.3125  34.697916666666686 33.3125  C 37.385416666666686 33.3125  38.520833333333314 29.75  38.520833333333314 27.572916666666686  Z " stroke-width="0" stroke-dasharray="0" stroke="rgba(255, 255, 255, 0)" fill="none" class="stroke" mask="url(#Clip796)" />
  </g>
</svg>