<?xml version="1.0" encoding="utf-8"?>
<svg version="1.1" xmlns:xlink="http://www.w3.org/1999/xlink" width="50px" height="37px" xmlns="http://www.w3.org/2000/svg">
  <defs>
    <pattern id="BGPattern" patternUnits="userSpaceOnUse" alignment="0 0" imageRepeat="None" />
    <mask fill="white" id="Clip898">
      <path d="M 29.507812500000004 28.8984375  C 31.4921875 28.8984375  33.0703125 30.5  33.0703125 32.4765625  C 33.0703125 34.453125  31.484374999999996 36.0390625  29.507812500000004 36.0390625  C 27.53125 36.0390625  25.9296875 34.453125  25.9296875 32.4765625  C 25.9296875 30.5  27.5390625 28.8984375  29.507812500000004 28.8984375  Z M 16.8125 32.4765625  C 16.8125 30.5  15.2109375 28.8984375  13.234375000000002 28.8984375  C 11.2578125 28.8984375  9.671875 30.507812500000004  9.671875 32.4765625  C 9.671875 34.4453125  11.2578125 36.0390625  13.234375000000002 36.0390625  C 15.2109375 36.0390625  16.8125 34.453125  16.8125 32.4765625  Z M 34.6796875 26.078125  C 49.265625 13.0546875  59.6328125 7.8046875  36.0234375 7.8046875  C 12.4140625 7.8046875  6.3984375 6.8046875  0 0.0546875  C 2.6875 4.09375  4.1640625 11.6875  29.1484375 11.3203125  C 55.1875 10.929687500000002  39.3046875 18.046875  34.6796875 26.078125  Z " fill-rule="evenodd" />
    </mask>
  </defs>
  <g>
    <path d="M 29.507812500000004 28.8984375  C 31.4921875 28.8984375  33.0703125 30.5  33.0703125 32.4765625  C 33.0703125 34.453125  31.484374999999996 36.0390625  29.507812500000004 36.0390625  C 27.53125 36.0390625  25.9296875 34.453125  25.9296875 32.4765625  C 25.9296875 30.5  27.5390625 28.8984375  29.507812500000004 28.8984375  Z M 16.8125 32.4765625  C 16.8125 30.5  15.2109375 28.8984375  13.234375000000002 28.8984375  C 11.2578125 28.8984375  9.671875 30.507812500000004  9.671875 32.4765625  C 9.671875 34.4453125  11.2578125 36.0390625  13.234375000000002 36.0390625  C 15.2109375 36.0390625  16.8125 34.453125  16.8125 32.4765625  Z M 34.6796875 26.078125  C 49.265625 13.0546875  59.6328125 7.8046875  36.0234375 7.8046875  C 12.4140625 7.8046875  6.3984375 6.8046875  0 0.0546875  C 2.6875 4.09375  4.1640625 11.6875  29.1484375 11.3203125  C 55.1875 10.929687500000002  39.3046875 18.046875  34.6796875 26.078125  Z " fill-rule="nonzero" fill="rgba(0, 0, 0, 1)" stroke="none" class="fill" />
    <path d="M 29.507812500000004 28.8984375  C 31.4921875 28.8984375  33.0703125 30.5  33.0703125 32.4765625  C 33.0703125 34.453125  31.484374999999996 36.0390625  29.507812500000004 36.0390625  C 27.53125 36.0390625  25.9296875 34.453125  25.9296875 32.4765625  C 25.9296875 30.5  27.5390625 28.8984375  29.507812500000004 28.8984375  Z " stroke-width="0" stroke-dasharray="0" stroke="rgba(255, 255, 255, 0)" fill="none" class="stroke" mask="url(#Clip898)" />
    <path d="M 16.8125 32.4765625  C 16.8125 30.5  15.2109375 28.8984375  13.234375000000002 28.8984375  C 11.2578125 28.8984375  9.671875 30.507812500000004  9.671875 32.4765625  C 9.671875 34.4453125  11.2578125 36.0390625  13.234375000000002 36.0390625  C 15.2109375 36.0390625  16.8125 34.453125  16.8125 32.4765625  Z " stroke-width="0" stroke-dasharray="0" stroke="rgba(255, 255, 255, 0)" fill="none" class="stroke" mask="url(#Clip898)" />
    <path d="M 34.6796875 26.078125  C 49.265625 13.0546875  59.6328125 7.8046875  36.0234375 7.8046875  C 12.4140625 7.8046875  6.3984375 6.8046875  0 0.0546875  C 2.6875 4.09375  4.1640625 11.6875  29.1484375 11.3203125  C 55.1875 10.929687500000002  39.3046875 18.046875  34.6796875 26.078125  Z " stroke-width="0" stroke-dasharray="0" stroke="rgba(255, 255, 255, 0)" fill="none" class="stroke" mask="url(#Clip898)" />
  </g>
</svg>