<?xml version="1.0" encoding="utf-8"?>
<svg version="1.1" xmlns:xlink="http://www.w3.org/1999/xlink" width="48px" height="49px" xmlns="http://www.w3.org/2000/svg">
  <defs>
    <pattern id="BGPattern" patternUnits="userSpaceOnUse" alignment="0 0" imageRepeat="None" />
    <mask fill="white" id="Clip6819">
      <path d="M 1.67 39.730000000000004  L 1.6720000000000002 39.73  L 1.664 39.73  L 1.664 33.76  L 7.634 33.76  L 7.634 39.73  L 14.76 39.73  L 14.76 30.46  L 24.03 30.46  L 24.03 39.7  C 33.884 39.688  41.49 29.934  37.734 19.568  C 36.338 15.728000000000003  33.274 12.668000000000001  29.434 11.276000000000002  C 19.054 7.510000000000001  9.294 15.136  9.294 25  L 0 25  C 0 9.288  15.18 -2.952  31.648 2.19  C 38.848 4.4399999999999995  44.56 10.154  46.808 17.35  C 51.94799999999999 33.82  39.716 49  24 49  L 24 39.730000000000004  L 14.754000000000001 39.730000000000004  L 14.754000000000001 46.85  L 7.634 46.85  L 7.634 39.730000000000004  L 1.666 39.730000000000004  L 1.67 39.730000000000004  Z " fill-rule="evenodd" />
    </mask>
  </defs>
  <g>
    <path d="M 1.67 39.730000000000004  L 1.6720000000000002 39.73  L 1.664 39.73  L 1.664 33.76  L 7.634 33.76  L 7.634 39.73  L 14.76 39.73  L 14.76 30.46  L 24.03 30.46  L 24.03 39.7  C 33.884 39.688  41.49 29.934  37.734 19.568  C 36.338 15.728000000000003  33.274 12.668000000000001  29.434 11.276000000000002  C 19.054 7.510000000000001  9.294 15.136  9.294 25  L 0 25  C 0 9.288  15.18 -2.952  31.648 2.19  C 38.848 4.4399999999999995  44.56 10.154  46.808 17.35  C 51.94799999999999 33.82  39.716 49  24 49  L 24 39.730000000000004  L 14.754000000000001 39.730000000000004  L 14.754000000000001 46.85  L 7.634 46.85  L 7.634 39.730000000000004  L 1.666 39.730000000000004  L 1.67 39.730000000000004  Z " fill-rule="nonzero" fill="rgba(0, 128, 255, 1)" stroke="none" class="fill" />
    <path d="M 1.67 39.730000000000004  L 1.6720000000000002 39.73  L 1.664 39.73  L 1.664 33.76  L 7.634 33.76  L 7.634 39.73  L 14.76 39.73  L 14.76 30.46  L 24.03 30.46  L 24.03 39.7  C 33.884 39.688  41.49 29.934  37.734 19.568  C 36.338 15.728000000000003  33.274 12.668000000000001  29.434 11.276000000000002  C 19.054 7.510000000000001  9.294 15.136  9.294 25  L 0 25  C 0 9.288  15.18 -2.952  31.648 2.19  C 38.848 4.4399999999999995  44.56 10.154  46.808 17.35  C 51.94799999999999 33.82  39.716 49  24 49  L 24 39.730000000000004  L 14.754000000000001 39.730000000000004  L 14.754000000000001 46.85  L 7.634 46.85  L 7.634 39.730000000000004  L 1.666 39.730000000000004  L 1.67 39.730000000000004  Z " stroke-width="0" stroke-dasharray="0" stroke="rgba(255, 255, 255, 0)" fill="none" class="stroke" mask="url(#Clip6819)" />
  </g>
</svg>