<?xml version="1.0" encoding="utf-8"?>
<svg version="1.1" xmlns:xlink="http://www.w3.org/1999/xlink" width="12px" height="10px" xmlns="http://www.w3.org/2000/svg">
  <defs>
    <pattern id="BGPattern" patternUnits="userSpaceOnUse" alignment="0 0" imageRepeat="None" />
    <mask fill="white" id="Clip3506">
      <path d="M 4 6.59  L 1.4100000000000001 4  L 0 5.41  L 4 9.41  L 12 1.4100000000000001  L 10.59 0  L 4 6.59  Z " fill-rule="evenodd" />
    </mask>
  </defs>
  <g transform="matrix(1 0 0 1 -18 -19 )">
    <path d="M 4 6.59  L 1.4100000000000001 4  L 0 5.41  L 4 9.41  L 12 1.4100000000000001  L 10.59 0  L 4 6.59  Z " fill-rule="nonzero" fill="rgba(0, 0, 0, 1)" stroke="none" transform="matrix(1 0 0 1 18 19 )" class="fill" />
    <path d="M 4 6.59  L 1.4100000000000001 4  L 0 5.41  L 4 9.41  L 12 1.4100000000000001  L 10.59 0  L 4 6.59  Z " stroke-width="0" stroke-dasharray="0" stroke="rgba(255, 255, 255, 0)" fill="none" transform="matrix(1 0 0 1 18 19 )" class="stroke" mask="url(#Clip3506)" />
  </g>
</svg>