<?xml version="1.0" encoding="utf-8"?>
<svg version="1.1" xmlns:xlink="http://www.w3.org/1999/xlink" width="64px" height="64px" xmlns="http://www.w3.org/2000/svg">
  <defs>
    <pattern id="BGPattern" patternUnits="userSpaceOnUse" alignment="0 0" imageRepeat="None" />
    <mask fill="white" id="Clip1605">
      <path d="M 64 46  C 64 44.9  63.1 44  62 44  L 60 44  L 60 30  C 60 28.9  59.1 28  58 28  L 56 28  L 56 18  C 56 16.9  55.1 16  54 16  L 52 16  L 52 2  C 52 0.8999999999999999  51.1 0  50 0  C 48.9 0  48 0.9  48 2  L 48 4  L 40 4  L 40 2  C 40 0.8999999999999999  39.1 0  38 0  C 36.9 0  36 0.9  36 2  L 36 4  L 28 4  L 28 2  C 28 0.8999999999999999  27.1 0  26 0  C 24.9 0  24 0.9  24 2  L 24 4  L 16 4  L 16 2  C 16 0.8999999999999999  15.1 0  14 0  C 12.9 0  12 0.9  12 2  L 12 16  L 10 16  C 8.9 16  8 16.9  8 18  L 8 28  L 6 28  C 4.9 28  4 28.9  4 30  L 4 44  L 2 44  C 0.8999999999999999 44  0 44.9  0 46  L 0 62  C 0 63.1  0.9 64  2 64  L 12 64  L 12 44  L 16 44  L 16 28  L 20 28  L 20 16  L 24 16  L 24 28  L 20 28  L 20 44  L 16 44  L 16 64  L 26 64  L 26 54  C 26 52.9  26.9 52  28 52  L 36 52  C 37.1 52  38 52.9  38 54  L 38 64  L 48 64  L 48 44  L 44 44  L 44 28  L 40 28  L 40 16  L 44 16  L 44 28  L 48 28  L 48 44  L 52 44  L 52 64  L 62 64  C 63.1 64  64 63.1  64 62  L 64 46  Z M 29 28  L 29 22  C 29 20.9  29.9 20  31 20  L 33 20  C 34.1 20  35 20.9  35 22  L 35 28  L 29 28  Z M 36 36  L 36 44  L 28 44  L 28 36  C 28 34.9  28.9 34  30 34  L 34 34  C 35.1 34  36 34.9  36 36  Z " fill-rule="evenodd" />
    </mask>
  </defs>
  <g>
    <path d="M 64 46  C 64 44.9  63.1 44  62 44  L 60 44  L 60 30  C 60 28.9  59.1 28  58 28  L 56 28  L 56 18  C 56 16.9  55.1 16  54 16  L 52 16  L 52 2  C 52 0.8999999999999999  51.1 0  50 0  C 48.9 0  48 0.9  48 2  L 48 4  L 40 4  L 40 2  C 40 0.8999999999999999  39.1 0  38 0  C 36.9 0  36 0.9  36 2  L 36 4  L 28 4  L 28 2  C 28 0.8999999999999999  27.1 0  26 0  C 24.9 0  24 0.9  24 2  L 24 4  L 16 4  L 16 2  C 16 0.8999999999999999  15.1 0  14 0  C 12.9 0  12 0.9  12 2  L 12 16  L 10 16  C 8.9 16  8 16.9  8 18  L 8 28  L 6 28  C 4.9 28  4 28.9  4 30  L 4 44  L 2 44  C 0.8999999999999999 44  0 44.9  0 46  L 0 62  C 0 63.1  0.9 64  2 64  L 12 64  L 12 44  L 16 44  L 16 28  L 20 28  L 20 16  L 24 16  L 24 28  L 20 28  L 20 44  L 16 44  L 16 64  L 26 64  L 26 54  C 26 52.9  26.9 52  28 52  L 36 52  C 37.1 52  38 52.9  38 54  L 38 64  L 48 64  L 48 44  L 44 44  L 44 28  L 40 28  L 40 16  L 44 16  L 44 28  L 48 28  L 48 44  L 52 44  L 52 64  L 62 64  C 63.1 64  64 63.1  64 62  L 64 46  Z M 29 28  L 29 22  C 29 20.9  29.9 20  31 20  L 33 20  C 34.1 20  35 20.9  35 22  L 35 28  L 29 28  Z M 36 36  L 36 44  L 28 44  L 28 36  C 28 34.9  28.9 34  30 34  L 34 34  C 35.1 34  36 34.9  36 36  Z " fill-rule="nonzero" fill="rgba(0, 0, 0, 1)" stroke="none" class="fill" />
    <path d="M 64 46  C 64 44.9  63.1 44  62 44  L 60 44  L 60 30  C 60 28.9  59.1 28  58 28  L 56 28  L 56 18  C 56 16.9  55.1 16  54 16  L 52 16  L 52 2  C 52 0.8999999999999999  51.1 0  50 0  C 48.9 0  48 0.9  48 2  L 48 4  L 40 4  L 40 2  C 40 0.8999999999999999  39.1 0  38 0  C 36.9 0  36 0.9  36 2  L 36 4  L 28 4  L 28 2  C 28 0.8999999999999999  27.1 0  26 0  C 24.9 0  24 0.9  24 2  L 24 4  L 16 4  L 16 2  C 16 0.8999999999999999  15.1 0  14 0  C 12.9 0  12 0.9  12 2  L 12 16  L 10 16  C 8.9 16  8 16.9  8 18  L 8 28  L 6 28  C 4.9 28  4 28.9  4 30  L 4 44  L 2 44  C 0.8999999999999999 44  0 44.9  0 46  L 0 62  C 0 63.1  0.9 64  2 64  L 12 64  L 12 44  L 16 44  L 16 28  L 20 28  L 20 16  L 24 16  L 24 28  L 20 28  L 20 44  L 16 44  L 16 64  L 26 64  L 26 54  C 26 52.9  26.9 52  28 52  L 36 52  C 37.1 52  38 52.9  38 54  L 38 64  L 48 64  L 48 44  L 44 44  L 44 28  L 40 28  L 40 16  L 44 16  L 44 28  L 48 28  L 48 44  L 52 44  L 52 64  L 62 64  C 63.1 64  64 63.1  64 62  L 64 46  Z " stroke-width="0" stroke-dasharray="0" stroke="rgba(255, 255, 255, 0)" fill="none" class="stroke" mask="url(#Clip1605)" />
    <path d="M 29 28  L 29 22  C 29 20.9  29.9 20  31 20  L 33 20  C 34.1 20  35 20.9  35 22  L 35 28  L 29 28  Z " stroke-width="0" stroke-dasharray="0" stroke="rgba(255, 255, 255, 0)" fill="none" class="stroke" mask="url(#Clip1605)" />
    <path d="M 36 36  L 36 44  L 28 44  L 28 36  C 28 34.9  28.9 34  30 34  L 34 34  C 35.1 34  36 34.9  36 36  Z " stroke-width="0" stroke-dasharray="0" stroke="rgba(255, 255, 255, 0)" fill="none" class="stroke" mask="url(#Clip1605)" />
  </g>
</svg>