<?xml version="1.0" encoding="utf-8"?>
<svg version="1.1" xmlns:xlink="http://www.w3.org/1999/xlink" width="24px" height="24px" xmlns="http://www.w3.org/2000/svg">
  <defs>
    <pattern id="BGPattern" patternUnits="userSpaceOnUse" alignment="0 0" imageRepeat="None" />
    <mask fill="white" id="Clip6496">
      <path d="M 17.25 13.5  C 17.25 10.5  14.500499999999999 10.5  14.500499999999999 10.5  L 3.4995000000000003 10.5  C 0.75 10.5  0.75 13.5  0.75 13.5  L 0.75 21  C 0.75 24  3.4995000000000003 24  3.4995000000000003 24  L 14.500499999999999 24  C 17.25 24  17.25 21  17.25 21  L 17.25 13.5  Z M 12.75 10.5  L 12.749999999999996 5.999999889364522  C 12.749999999999996 3.100504952752856  15.100505063388333 0.7499998893645219  17.999999999999996 0.7499998893645219  C 20.89949493661166 0.7499998893645219  23.249999999999996 3.100504952752856  23.25 6  L 23.25 10.5  L 21.75 10.5  L 21.75 5.999999999999999  C 21.75 3.9289321881345245  20.071067811865476 2.249999999999999  18 2.249999999999999  C 15.928932188134524 2.249999999999999  14.25 3.9289321881345245  14.25 6  L 14.25 10.5  L 12.75 10.5  Z M 3.4995000000000003 12  L 14.482499999999998 12  C 14.718491870801603 12.01585768027471  14.94849126572176 12.081279730385337  15.157499999999999 12.192  C 15.314603771972093 12.274010991260507  15.446728224844113 12.396809012165088  15.54 12.5475  C 15.636 12.703499999999998  15.75 12.986999999999998  15.75 13.5  L 15.750000000000004 20.989500000000003  C 15.737024988878503 21.29485926007407  15.666807543227907 21.59506428133387  15.542999999999997 21.874499999999998  C 15.471128402870262 22.048979222284142  15.355386467371968 22.20192392276403  15.207 22.3185  C 15.0975 22.398  14.8965 22.5  14.500499999999999 22.5  L 3.5175 22.5  L 3.4979999999999998 22.4985  C 3.269294018427748 22.48024181970801  3.0467362221575276 22.41541420473939  2.8440000000000003 22.308  C 2.6865 22.2225  2.556 22.1115  2.46 21.9525  C 2.364 21.7965  2.25 21.513  2.25 21  L 2.25 13.5105  C 2.262939560199591 13.205135885497208  2.333158530482323 12.90492434588263  2.457 12.625499999999997  C 2.5288715971297373 12.45102077771585  2.64461353262803 12.298076077235965  2.793 12.1815  C 2.9025 12.102  3.1035 12  3.4995000000000003 12  Z " fill-rule="evenodd" />
    </mask>
  </defs>
  <g>
    <path d="M 17.25 13.5  C 17.25 10.5  14.500499999999999 10.5  14.500499999999999 10.5  L 3.4995000000000003 10.5  C 0.75 10.5  0.75 13.5  0.75 13.5  L 0.75 21  C 0.75 24  3.4995000000000003 24  3.4995000000000003 24  L 14.500499999999999 24  C 17.25 24  17.25 21  17.25 21  L 17.25 13.5  Z M 12.75 10.5  L 12.749999999999996 5.999999889364522  C 12.749999999999996 3.100504952752856  15.100505063388333 0.7499998893645219  17.999999999999996 0.7499998893645219  C 20.89949493661166 0.7499998893645219  23.249999999999996 3.100504952752856  23.25 6  L 23.25 10.5  L 21.75 10.5  L 21.75 5.999999999999999  C 21.75 3.9289321881345245  20.071067811865476 2.249999999999999  18 2.249999999999999  C 15.928932188134524 2.249999999999999  14.25 3.9289321881345245  14.25 6  L 14.25 10.5  L 12.75 10.5  Z M 3.4995000000000003 12  L 14.482499999999998 12  C 14.718491870801603 12.01585768027471  14.94849126572176 12.081279730385337  15.157499999999999 12.192  C 15.314603771972093 12.274010991260507  15.446728224844113 12.396809012165088  15.54 12.5475  C 15.636 12.703499999999998  15.75 12.986999999999998  15.75 13.5  L 15.750000000000004 20.989500000000003  C 15.737024988878503 21.29485926007407  15.666807543227907 21.59506428133387  15.542999999999997 21.874499999999998  C 15.471128402870262 22.048979222284142  15.355386467371968 22.20192392276403  15.207 22.3185  C 15.0975 22.398  14.8965 22.5  14.500499999999999 22.5  L 3.5175 22.5  L 3.4979999999999998 22.4985  C 3.269294018427748 22.48024181970801  3.0467362221575276 22.41541420473939  2.8440000000000003 22.308  C 2.6865 22.2225  2.556 22.1115  2.46 21.9525  C 2.364 21.7965  2.25 21.513  2.25 21  L 2.25 13.5105  C 2.262939560199591 13.205135885497208  2.333158530482323 12.90492434588263  2.457 12.625499999999997  C 2.5288715971297373 12.45102077771585  2.64461353262803 12.298076077235965  2.793 12.1815  C 2.9025 12.102  3.1035 12  3.4995000000000003 12  Z " fill-rule="nonzero" fill="rgba(0, 0, 0, 1)" stroke="none" class="fill" />
    <path d="M 17.25 13.5  C 17.25 10.5  14.500499999999999 10.5  14.500499999999999 10.5  L 3.4995000000000003 10.5  C 0.75 10.5  0.75 13.5  0.75 13.5  L 0.75 21  C 0.75 24  3.4995000000000003 24  3.4995000000000003 24  L 14.500499999999999 24  C 17.25 24  17.25 21  17.25 21  L 17.25 13.5  Z " stroke-width="0" stroke-dasharray="0" stroke="rgba(255, 255, 255, 0)" fill="none" class="stroke" mask="url(#Clip6496)" />
    <path d="M 12.75 10.5  L 12.749999999999996 5.999999889364522  C 12.749999999999996 3.100504952752856  15.100505063388333 0.7499998893645219  17.999999999999996 0.7499998893645219  C 20.89949493661166 0.7499998893645219  23.249999999999996 3.100504952752856  23.25 6  L 23.25 10.5  L 21.75 10.5  L 21.75 5.999999999999999  C 21.75 3.9289321881345245  20.071067811865476 2.249999999999999  18 2.249999999999999  C 15.928932188134524 2.249999999999999  14.25 3.9289321881345245  14.25 6  L 14.25 10.5  L 12.75 10.5  Z " stroke-width="0" stroke-dasharray="0" stroke="rgba(255, 255, 255, 0)" fill="none" class="stroke" mask="url(#Clip6496)" />
    <path d="M 3.4995000000000003 12  L 14.482499999999998 12  C 14.718491870801603 12.01585768027471  14.94849126572176 12.081279730385337  15.157499999999999 12.192  C 15.314603771972093 12.274010991260507  15.446728224844113 12.396809012165088  15.54 12.5475  C 15.636 12.703499999999998  15.75 12.986999999999998  15.75 13.5  L 15.750000000000004 20.989500000000003  C 15.737024988878503 21.29485926007407  15.666807543227907 21.59506428133387  15.542999999999997 21.874499999999998  C 15.471128402870262 22.048979222284142  15.355386467371968 22.20192392276403  15.207 22.3185  C 15.0975 22.398  14.8965 22.5  14.500499999999999 22.5  L 3.5175 22.5  L 3.4979999999999998 22.4985  C 3.269294018427748 22.48024181970801  3.0467362221575276 22.41541420473939  2.8440000000000003 22.308  C 2.6865 22.2225  2.556 22.1115  2.46 21.9525  C 2.364 21.7965  2.25 21.513  2.25 21  L 2.25 13.5105  C 2.262939560199591 13.205135885497208  2.333158530482323 12.90492434588263  2.457 12.625499999999997  C 2.5288715971297373 12.45102077771585  2.64461353262803 12.298076077235965  2.793 12.1815  C 2.9025 12.102  3.1035 12  3.4995000000000003 12  Z " stroke-width="0" stroke-dasharray="0" stroke="rgba(255, 255, 255, 0)" fill="none" class="stroke" mask="url(#Clip6496)" />
  </g>
</svg>