<?xml version="1.0" encoding="utf-8"?>
<svg version="1.1" xmlns:xlink="http://www.w3.org/1999/xlink" width="24px" height="20px" xmlns="http://www.w3.org/2000/svg">
  <defs>
    <pattern id="BGPattern" patternUnits="userSpaceOnUse" alignment="0 0" imageRepeat="None" />
    <mask fill="white" id="Clip6048">
      <path d="M 7.939500000000001 0.5  L 1.5 0.5  C 0.6715728752538098 0.5  0 1.1715728752538097  0 2  L 0 18.5  C 0 19.32842712474619  0.6715728752538098 20  1.5 20  L 2.25 20  C 2.664213562373095 20  3 19.664213562373096  3 19.25  C 3 18.835786437626904  3.335786437626905 18.5  3.75 18.5  C 4.164213562373095 18.5  4.5 18.835786437626904  4.5 19.25  C 4.5 19.664213562373096  4.835786437626905 20  5.25 20  L 18.75 20  C 19.164213562373096 20  19.5 19.664213562373096  19.5 19.25  C 19.5 18.835786437626904  19.835786437626904 18.5  20.25 18.5  C 20.664213562373096 18.5  21 18.835786437626904  21 19.25  C 21 19.664213562373096  21.335786437626904 20  21.75 20  L 22.5 20  C 23.32842712474619 20  24 19.32842712474619  24 18.5  L 24 3.5  C 24 2.67157287525381  23.32842712474619 2  22.5 2  L 10.0605 2  L 9 0.9394999999999998  C 8.718760902963812 0.6581759377835719  8.337292220218224 0.5000849561082426  7.939500000000001 0.5  Z M 1.5 18.500000000000004  L 1.5 2  L 7.939500000000001 2  L 9 3.0604999999999993  C 9.281239097036186 3.3418240622164275  9.662707779781778 3.4999150438917574  10.0605 3.5  L 22.5 3.5  L 22.5 18.5  L 22.372499999999995 18.5  C 22.054465256538077 17.601367847649474  21.20466750327332 17.000671977163666  20.251417355994533 17.000671977163666  C 19.70765791602139 17.000671977163666  19.182294508746963 17.197588767439044  18.772499999999997 17.555  C 17.8275 15.834500000000002  15.831 14  12 14  C 8.1675 14  6.170999999999999 15.835999999999999  5.228999999999999 17.555  C 4.819205491253035 17.197588767439036  4.29384208397861 17.000671977163663  3.7500826440054618 17.000671977163663  C 2.7968324967266716 17.000671977163663  1.9470347434619188 17.601367847649474  1.6289999999999998 18.500000000000004  L 1.5 18.500000000000004  Z " fill-rule="evenodd" />
    </mask>
  </defs>
  <g>
    <path d="M 7.939500000000001 0.5  L 1.5 0.5  C 0.6715728752538098 0.5  0 1.1715728752538097  0 2  L 0 18.5  C 0 19.32842712474619  0.6715728752538098 20  1.5 20  L 2.25 20  C 2.664213562373095 20  3 19.664213562373096  3 19.25  C 3 18.835786437626904  3.335786437626905 18.5  3.75 18.5  C 4.164213562373095 18.5  4.5 18.835786437626904  4.5 19.25  C 4.5 19.664213562373096  4.835786437626905 20  5.25 20  L 18.75 20  C 19.164213562373096 20  19.5 19.664213562373096  19.5 19.25  C 19.5 18.835786437626904  19.835786437626904 18.5  20.25 18.5  C 20.664213562373096 18.5  21 18.835786437626904  21 19.25  C 21 19.664213562373096  21.335786437626904 20  21.75 20  L 22.5 20  C 23.32842712474619 20  24 19.32842712474619  24 18.5  L 24 3.5  C 24 2.67157287525381  23.32842712474619 2  22.5 2  L 10.0605 2  L 9 0.9394999999999998  C 8.718760902963812 0.6581759377835719  8.337292220218224 0.5000849561082426  7.939500000000001 0.5  Z M 1.5 18.500000000000004  L 1.5 2  L 7.939500000000001 2  L 9 3.0604999999999993  C 9.281239097036186 3.3418240622164275  9.662707779781778 3.4999150438917574  10.0605 3.5  L 22.5 3.5  L 22.5 18.5  L 22.372499999999995 18.5  C 22.054465256538077 17.601367847649474  21.20466750327332 17.000671977163666  20.251417355994533 17.000671977163666  C 19.70765791602139 17.000671977163666  19.182294508746963 17.197588767439044  18.772499999999997 17.555  C 17.8275 15.834500000000002  15.831 14  12 14  C 8.1675 14  6.170999999999999 15.835999999999999  5.228999999999999 17.555  C 4.819205491253035 17.197588767439036  4.29384208397861 17.000671977163663  3.7500826440054618 17.000671977163663  C 2.7968324967266716 17.000671977163663  1.9470347434619188 17.601367847649474  1.6289999999999998 18.500000000000004  L 1.5 18.500000000000004  Z " fill-rule="nonzero" fill="rgba(0, 0, 0, 1)" stroke="none" class="fill" />
    <path d="M 7.939500000000001 0.5  L 1.5 0.5  C 0.6715728752538098 0.5  0 1.1715728752538097  0 2  L 0 18.5  C 0 19.32842712474619  0.6715728752538098 20  1.5 20  L 2.25 20  C 2.664213562373095 20  3 19.664213562373096  3 19.25  C 3 18.835786437626904  3.335786437626905 18.5  3.75 18.5  C 4.164213562373095 18.5  4.5 18.835786437626904  4.5 19.25  C 4.5 19.664213562373096  4.835786437626905 20  5.25 20  L 18.75 20  C 19.164213562373096 20  19.5 19.664213562373096  19.5 19.25  C 19.5 18.835786437626904  19.835786437626904 18.5  20.25 18.5  C 20.664213562373096 18.5  21 18.835786437626904  21 19.25  C 21 19.664213562373096  21.335786437626904 20  21.75 20  L 22.5 20  C 23.32842712474619 20  24 19.32842712474619  24 18.5  L 24 3.5  C 24 2.67157287525381  23.32842712474619 2  22.5 2  L 10.0605 2  L 9 0.9394999999999998  C 8.718760902963812 0.6581759377835719  8.337292220218224 0.5000849561082426  7.939500000000001 0.5  Z " stroke-width="0" stroke-dasharray="0" stroke="rgba(255, 255, 255, 0)" fill="none" class="stroke" mask="url(#Clip6048)" />
    <path d="M 1.5 18.500000000000004  L 1.5 2  L 7.939500000000001 2  L 9 3.0604999999999993  C 9.281239097036186 3.3418240622164275  9.662707779781778 3.4999150438917574  10.0605 3.5  L 22.5 3.5  L 22.5 18.5  L 22.372499999999995 18.5  C 22.054465256538077 17.601367847649474  21.20466750327332 17.000671977163666  20.251417355994533 17.000671977163666  C 19.70765791602139 17.000671977163666  19.182294508746963 17.197588767439044  18.772499999999997 17.555  C 17.8275 15.834500000000002  15.831 14  12 14  C 8.1675 14  6.170999999999999 15.835999999999999  5.228999999999999 17.555  C 4.819205491253035 17.197588767439036  4.29384208397861 17.000671977163663  3.7500826440054618 17.000671977163663  C 2.7968324967266716 17.000671977163663  1.9470347434619188 17.601367847649474  1.6289999999999998 18.500000000000004  L 1.5 18.500000000000004  Z " stroke-width="0" stroke-dasharray="0" stroke="rgba(255, 255, 255, 0)" fill="none" class="stroke" mask="url(#Clip6048)" />
  </g>
</svg>