<?xml version="1.0" encoding="utf-8"?>
<svg version="1.1" xmlns:xlink="http://www.w3.org/1999/xlink" width="42px" height="48px" xmlns="http://www.w3.org/2000/svg">
  <defs>
    <pattern id="BGPattern" patternUnits="userSpaceOnUse" alignment="0 0" imageRepeat="None" />
    <mask fill="white" id="Clip6690">
      <path d="M 40.43591949994873 27.28598654352507  C 40.43394632565183 27.28598654352507  40.43197315390367 27.285991029028303  40.43 27.286  L 30.452 27.286  C 29.798662409446287 27.27485537444315  29.23826368420852 27.749697042392704  29.141999999999996 28.396  C 28.563009209346667 32.4405703568451  25.10378894498477 35.44758826759396  21.01799999999999 35.458  L 23.717999999999986 47.80199999999999  C 33.4961468461989 46.52788214306313  41.02667089246076 38.54754995459089  41.73199999999999 28.711999999999996  C 41.73594408801216 28.67077983157347  41.73791949994873 28.62939497401161  41.73791949994873 28.587986543525076  C 41.73791949994873 27.868911799245375  41.154994244228426 27.28598654352507  40.43591949994873 27.28598654352507  Z M 23.162 26.971999999999998  L 23.164 26.97  L 37.564 14.628  C 37.853127182680986 14.382896355254443  38.01982735599877 14.023038684612278  38.01982735599877 13.644000000000002  C 38.01982735599877 13.264961315387726  37.853127182680986 12.905103644745559  37.564 12.660000000000002  L 23.162 0.32  C 22.92619959194265 0.11510408830007127  22.624326536756236 0.0022725647122080837  22.311941890732523 0.0022725647122080837  C 21.600968974841493 0.0022725647122080837  21.02273260888804 0.5750589622843861  21 1.286  L 21 25.972  C 21.01598094428646 25.97487574071137  21.01597141635127 25.977751536664435  21.01597141635127 25.980627340510182  C 21.01597141635127 26.699702084789873  21.59889667207157 27.28262734051018  22.317971416351266 27.28262734051018  C 22.627279815741993 27.28262734051018  22.926485491162428 27.172510852725352  23.162 26.971999999999998  Z M 12.824 27.286  L 0.4540000000000002 29.980000000000004  C 1.831188622640427 40.28998234421875  10.62244671507555 47.99141505329414  21 48  L 21 35.46  C 21.019330411626793 35.46000799112173  21.014660817264335 35.46001198668479  21.009991222053497 35.46001198668479  C 16.493669162375735 35.46001198668479  12.83061394197254 31.802317216771158  12.824 27.286  Z M 18.322 6.7719999999999985  C 8.08541156882561 8.105167438699231  0.387587511158638 16.763727677206816  0.262 27.086  L 0.262 27  L 12.822 27  C 12.82862290190391 22.76577709867515  16.497775625535855 19.106473247654222  21.018 19.112  L 18.322 6.7719999999999985  Z " fill-rule="evenodd" />
    </mask>
  </defs>
  <g>
    <path d="M 40.43591949994873 27.28598654352507  C 40.43394632565183 27.28598654352507  40.43197315390367 27.285991029028303  40.43 27.286  L 30.452 27.286  C 29.798662409446287 27.27485537444315  29.23826368420852 27.749697042392704  29.141999999999996 28.396  C 28.563009209346667 32.4405703568451  25.10378894498477 35.44758826759396  21.01799999999999 35.458  L 23.717999999999986 47.80199999999999  C 33.4961468461989 46.52788214306313  41.02667089246076 38.54754995459089  41.73199999999999 28.711999999999996  C 41.73594408801216 28.67077983157347  41.73791949994873 28.62939497401161  41.73791949994873 28.587986543525076  C 41.73791949994873 27.868911799245375  41.154994244228426 27.28598654352507  40.43591949994873 27.28598654352507  Z M 23.162 26.971999999999998  L 23.164 26.97  L 37.564 14.628  C 37.853127182680986 14.382896355254443  38.01982735599877 14.023038684612278  38.01982735599877 13.644000000000002  C 38.01982735599877 13.264961315387726  37.853127182680986 12.905103644745559  37.564 12.660000000000002  L 23.162 0.32  C 22.92619959194265 0.11510408830007127  22.624326536756236 0.0022725647122080837  22.311941890732523 0.0022725647122080837  C 21.600968974841493 0.0022725647122080837  21.02273260888804 0.5750589622843861  21 1.286  L 21 25.972  C 21.01598094428646 25.97487574071137  21.01597141635127 25.977751536664435  21.01597141635127 25.980627340510182  C 21.01597141635127 26.699702084789873  21.59889667207157 27.28262734051018  22.317971416351266 27.28262734051018  C 22.627279815741993 27.28262734051018  22.926485491162428 27.172510852725352  23.162 26.971999999999998  Z M 12.824 27.286  L 0.4540000000000002 29.980000000000004  C 1.831188622640427 40.28998234421875  10.62244671507555 47.99141505329414  21 48  L 21 35.46  C 21.019330411626793 35.46000799112173  21.014660817264335 35.46001198668479  21.009991222053497 35.46001198668479  C 16.493669162375735 35.46001198668479  12.83061394197254 31.802317216771158  12.824 27.286  Z M 18.322 6.7719999999999985  C 8.08541156882561 8.105167438699231  0.387587511158638 16.763727677206816  0.262 27.086  L 0.262 27  L 12.822 27  C 12.82862290190391 22.76577709867515  16.497775625535855 19.106473247654222  21.018 19.112  L 18.322 6.7719999999999985  Z " fill-rule="nonzero" fill="rgba(0, 82, 204, 1)" stroke="none" class="fill" />
    <path d="M 40.43591949994873 27.28598654352507  C 40.43394632565183 27.28598654352507  40.43197315390367 27.285991029028303  40.43 27.286  L 30.452 27.286  C 29.798662409446287 27.27485537444315  29.23826368420852 27.749697042392704  29.141999999999996 28.396  C 28.563009209346667 32.4405703568451  25.10378894498477 35.44758826759396  21.01799999999999 35.458  L 23.717999999999986 47.80199999999999  C 33.4961468461989 46.52788214306313  41.02667089246076 38.54754995459089  41.73199999999999 28.711999999999996  C 41.73594408801216 28.67077983157347  41.73791949994873 28.62939497401161  41.73791949994873 28.587986543525076  C 41.73791949994873 27.868911799245375  41.154994244228426 27.28598654352507  40.43591949994873 27.28598654352507  Z " stroke-width="0" stroke-dasharray="0" stroke="rgba(255, 255, 255, 0)" fill="none" class="stroke" mask="url(#Clip6690)" />
    <path d="M 23.162 26.971999999999998  L 23.164 26.97  L 37.564 14.628  C 37.853127182680986 14.382896355254443  38.01982735599877 14.023038684612278  38.01982735599877 13.644000000000002  C 38.01982735599877 13.264961315387726  37.853127182680986 12.905103644745559  37.564 12.660000000000002  L 23.162 0.32  C 22.92619959194265 0.11510408830007127  22.624326536756236 0.0022725647122080837  22.311941890732523 0.0022725647122080837  C 21.600968974841493 0.0022725647122080837  21.02273260888804 0.5750589622843861  21 1.286  L 21 25.972  C 21.01598094428646 25.97487574071137  21.01597141635127 25.977751536664435  21.01597141635127 25.980627340510182  C 21.01597141635127 26.699702084789873  21.59889667207157 27.28262734051018  22.317971416351266 27.28262734051018  C 22.627279815741993 27.28262734051018  22.926485491162428 27.172510852725352  23.162 26.971999999999998  Z " stroke-width="0" stroke-dasharray="0" stroke="rgba(255, 255, 255, 0)" fill="none" class="stroke" mask="url(#Clip6690)" />
    <path d="M 12.824 27.286  L 0.4540000000000002 29.980000000000004  C 1.831188622640427 40.28998234421875  10.62244671507555 47.99141505329414  21 48  L 21 35.46  C 21.019330411626793 35.46000799112173  21.014660817264335 35.46001198668479  21.009991222053497 35.46001198668479  C 16.493669162375735 35.46001198668479  12.83061394197254 31.802317216771158  12.824 27.286  Z " stroke-width="0" stroke-dasharray="0" stroke="rgba(255, 255, 255, 0)" fill="none" class="stroke" mask="url(#Clip6690)" />
    <path d="M 18.322 6.7719999999999985  C 8.08541156882561 8.105167438699231  0.387587511158638 16.763727677206816  0.262 27.086  L 0.262 27  L 12.822 27  C 12.82862290190391 22.76577709867515  16.497775625535855 19.106473247654222  21.018 19.112  L 18.322 6.7719999999999985  Z " stroke-width="0" stroke-dasharray="0" stroke="rgba(255, 255, 255, 0)" fill="none" class="stroke" mask="url(#Clip6690)" />
  </g>
</svg>