<?xml version="1.0" encoding="utf-8"?>
<svg version="1.1" xmlns:xlink="http://www.w3.org/1999/xlink" width="24px" height="24px" xmlns="http://www.w3.org/2000/svg">
  <defs>
    <pattern id="BGPattern" patternUnits="userSpaceOnUse" alignment="0 0" imageRepeat="None" />
    <mask fill="white" id="Clip3552">
      <path d="M 17 0  L 17 2  L 20.586 2  L 12 10.586  L 3.4139999999999997 2  L 7 2  L 7 0  L 0 0  L 0 7  L 2 7  L 2 3.4139999999999997  L 11 12.414000000000001  L 11 24  L 13 24  L 13 12.414000000000001  L 22 3.4139999999999997  L 22 7  L 24 7  L 24 0  L 17 0  Z " fill-rule="evenodd" />
    </mask>
  </defs>
  <g transform="matrix(1 0 0 1 -4 -4 )">
    <path d="M 17 0  L 17 2  L 20.586 2  L 12 10.586  L 3.4139999999999997 2  L 7 2  L 7 0  L 0 0  L 0 7  L 2 7  L 2 3.4139999999999997  L 11 12.414000000000001  L 11 24  L 13 24  L 13 12.414000000000001  L 22 3.4139999999999997  L 22 7  L 24 7  L 24 0  L 17 0  Z " fill-rule="nonzero" fill="rgba(0, 0, 0, 1)" stroke="none" transform="matrix(1 0 0 1 4 4 )" class="fill" />
    <path d="M 17 0  L 17 2  L 20.586 2  L 12 10.586  L 3.4139999999999997 2  L 7 2  L 7 0  L 0 0  L 0 7  L 2 7  L 2 3.4139999999999997  L 11 12.414000000000001  L 11 24  L 13 24  L 13 12.414000000000001  L 22 3.4139999999999997  L 22 7  L 24 7  L 24 0  L 17 0  Z " stroke-width="0" stroke-dasharray="0" stroke="rgba(255, 255, 255, 0)" fill="none" transform="matrix(1 0 0 1 4 4 )" class="stroke" mask="url(#Clip3552)" />
  </g>
</svg>