<?xml version="1.0" encoding="utf-8"?>
<svg version="1.1" xmlns:xlink="http://www.w3.org/1999/xlink" width="20px" height="23px" xmlns="http://www.w3.org/2000/svg">
  <defs>
    <pattern id="BGPattern" patternUnits="userSpaceOnUse" alignment="0 0" imageRepeat="None" />
    <mask fill="white" id="Clip4099">
      <path d="M 1 22.34  L 19.630000000000003 3.7200000000000006  C 18.259244347135862 2.7599787667483384  16.665073129565773 2.1677596535257577  15 2  L 15 0  L 13 0  L 13 2  C 7.904441845948073 2.5808900847988947  4.042787902413341 6.871616688726375  4 12  L 4 16.6  L 1.2999999999999998 19.3  C 1.1024754568956774 19.478256191400973  0.9928582468046221 19.734029681613436  1 20  L 1 22.34  Z " fill-rule="evenodd" />
    </mask>
  </defs>
  <g transform="matrix(1 0 0 1 -2 -1 )">
    <path d="M 1 22.34  L 19.630000000000003 3.7200000000000006  C 18.259244347135862 2.7599787667483384  16.665073129565773 2.1677596535257577  15 2  L 15 0  L 13 0  L 13 2  C 7.904441845948073 2.5808900847988947  4.042787902413341 6.871616688726375  4 12  L 4 16.6  L 1.2999999999999998 19.3  C 1.1024754568956774 19.478256191400973  0.9928582468046221 19.734029681613436  1 20  L 1 22.34  Z " fill-rule="nonzero" fill="rgba(0, 0, 0, 1)" stroke="none" transform="matrix(1 0 0 1 2 1 )" class="fill" />
    <path d="M 1 22.34  L 19.630000000000003 3.7200000000000006  C 18.259244347135862 2.7599787667483384  16.665073129565773 2.1677596535257577  15 2  L 15 0  L 13 0  L 13 2  C 7.904441845948073 2.5808900847988947  4.042787902413341 6.871616688726375  4 12  L 4 16.6  L 1.2999999999999998 19.3  C 1.1024754568956774 19.478256191400973  0.9928582468046221 19.734029681613436  1 20  L 1 22.34  Z " stroke-width="0" stroke-dasharray="0" stroke="rgba(255, 255, 255, 0)" fill="none" transform="matrix(1 0 0 1 2 1 )" class="stroke" mask="url(#Clip4099)" />
  </g>
</svg>