<?xml version="1.0" encoding="utf-8"?>
<svg version="1.1" xmlns:xlink="http://www.w3.org/1999/xlink" width="19px" height="13px" xmlns="http://www.w3.org/2000/svg">
  <defs>
    <pattern id="BGPattern" patternUnits="userSpaceOnUse" alignment="0 0" imageRepeat="None" />
    <mask fill="white" id="Clip5115">
      <path d="M 17.25 0.2486593244718707  C 17.44924089128736 0.2486593244718707  17.64029360548475 0.32793744896854626  17.781 0.4689999999999994  C 17.922062551031452 0.6097063945152499  18.001340675528127 0.8007591087126382  18.001340675528127 1  C 18.001340675528127 1.1992408912873618  17.922062551031452 1.3902936054847501  17.781 1.5310000000000006  L 7.280999999999999 12.030999999999999  C 7.140293605484749 12.172062551031452  6.94924089128736 12.251340675528127  6.749999999999998 12.251340675528127  C 6.5507591087126364 12.251340675528127  6.35970639451525 12.172062551031452  6.218999999999997 12.030999999999999  L 0.9689999999999985 6.780999999999998  C 0.8281700438952004 6.6401700438952  0.749052598379885 6.449163633911812  0.749052598379885 6.249999999999998  C 0.749052598379885 5.835263202160149  1.0852632021601494 5.499052598379885  1.4999999999999982 5.499052598379885  C 1.6991636339118115 5.499052598379885  1.8901700438952007 5.5781700438952  2.030999999999999 5.718999999999998  L 6.75 10.439499999999999  L 16.719 0.46899999999999853  C 16.85970639451525 0.32793744896854804  17.05075910871264 0.2486593244718707  17.25 0.2486593244718707  Z " fill-rule="evenodd" />
    </mask>
  </defs>
  <g>
    <path d="M 17.25 0.2486593244718707  C 17.44924089128736 0.2486593244718707  17.64029360548475 0.32793744896854626  17.781 0.4689999999999994  C 17.922062551031452 0.6097063945152499  18.001340675528127 0.8007591087126382  18.001340675528127 1  C 18.001340675528127 1.1992408912873618  17.922062551031452 1.3902936054847501  17.781 1.5310000000000006  L 7.280999999999999 12.030999999999999  C 7.140293605484749 12.172062551031452  6.94924089128736 12.251340675528127  6.749999999999998 12.251340675528127  C 6.5507591087126364 12.251340675528127  6.35970639451525 12.172062551031452  6.218999999999997 12.030999999999999  L 0.9689999999999985 6.780999999999998  C 0.8281700438952004 6.6401700438952  0.749052598379885 6.449163633911812  0.749052598379885 6.249999999999998  C 0.749052598379885 5.835263202160149  1.0852632021601494 5.499052598379885  1.4999999999999982 5.499052598379885  C 1.6991636339118115 5.499052598379885  1.8901700438952007 5.5781700438952  2.030999999999999 5.718999999999998  L 6.75 10.439499999999999  L 16.719 0.46899999999999853  C 16.85970639451525 0.32793744896854804  17.05075910871264 0.2486593244718707  17.25 0.2486593244718707  Z " fill-rule="nonzero" fill="rgba(0, 0, 0, 1)" stroke="none" class="fill" />
    <path d="M 17.25 0.2486593244718707  C 17.44924089128736 0.2486593244718707  17.64029360548475 0.32793744896854626  17.781 0.4689999999999994  C 17.922062551031452 0.6097063945152499  18.001340675528127 0.8007591087126382  18.001340675528127 1  C 18.001340675528127 1.1992408912873618  17.922062551031452 1.3902936054847501  17.781 1.5310000000000006  L 7.280999999999999 12.030999999999999  C 7.140293605484749 12.172062551031452  6.94924089128736 12.251340675528127  6.749999999999998 12.251340675528127  C 6.5507591087126364 12.251340675528127  6.35970639451525 12.172062551031452  6.218999999999997 12.030999999999999  L 0.9689999999999985 6.780999999999998  C 0.8281700438952004 6.6401700438952  0.749052598379885 6.449163633911812  0.749052598379885 6.249999999999998  C 0.749052598379885 5.835263202160149  1.0852632021601494 5.499052598379885  1.4999999999999982 5.499052598379885  C 1.6991636339118115 5.499052598379885  1.8901700438952007 5.5781700438952  2.030999999999999 5.718999999999998  L 6.75 10.439499999999999  L 16.719 0.46899999999999853  C 16.85970639451525 0.32793744896854804  17.05075910871264 0.2486593244718707  17.25 0.2486593244718707  Z " stroke-width="0" stroke-dasharray="0" stroke="rgba(255, 255, 255, 0)" fill="none" class="stroke" mask="url(#Clip5115)" />
  </g>
</svg>