<?xml version="1.0" encoding="utf-8"?>
<svg version="1.1" xmlns:xlink="http://www.w3.org/1999/xlink" width="25px" height="24px" xmlns="http://www.w3.org/2000/svg">
  <defs>
    <pattern id="BGPattern" patternUnits="userSpaceOnUse" alignment="0 0" imageRepeat="None" />
    <mask fill="white" id="Clip4869">
      <path d="M 3.492000000000001 6.265500000000001  C 2.347663983536288 7.958778829698133  1.737381484387205 9.956304509704076  1.7415 12  C 1.741500242230152 17.66644136198135  6.335058638018638 22.259999561403504  12.001499999999991 22.259999561403504  C 17.667941533263935 22.259999561403504  22.261499999999995 17.66644109466744  22.261499999999995 11.999999561403499  C 22.261499999999995 6.334729565560885  17.669769753662536 1.7416565116946958  12.0045 1.7400000000000002  C 11.524012267647208 1.7400000000000002  11.1345 1.3504877323527904  11.1345 0.8700000000000001  C 11.1345 0.38951226764721  11.524012267647208 0  12.0045 0  C 18.630537064688575 0.001950767523835423  24.000967087484877 5.3739621280879994  24.000967087484877 11.999999479938705  C 24.000967087484877 18.627416477908227  18.6283840854544 23.999999479938705  12.000967087484877 23.999999479938705  C 5.373550089515356 23.999999479938705  0.0009670874848772826 18.627416477908227  0.0009670874848772826 11.999999479938705  C 0.0009670874848772826 9.537746234078746  0.7583978702095311 7.135091624539928  2.1705 5.118  L 1.176 4.2524999999999995  C 0.9859550764728608 4.087265375693986  0.8768325350365307 3.84778824574207  0.8768325350365307 3.5959558530123292  C 0.8768325350365307 3.2041753747850708  1.1386993962014618 2.860723897388401  1.5165000000000002 2.757  L 5.2965 1.7220000000000002  C 5.3711314829987185 1.7016370778338756  5.448145513577779 1.6913191648570922  5.5255051080294795 1.6913191648570922  C 6.0059928403822695 1.6913191648570922  6.395505108029479 2.080831432504302  6.395505108029479 2.561319164857092  C 6.395505108029479 2.5981573781869476  6.393165362195235 2.6349584023758785  6.388500000000001 2.6715  L 5.890500000000001 6.5595  C 5.834956413103299 6.993778188795622  5.465345384557677 7.319127268890072  5.0275296295773915 7.319127268890072  C 4.817649634301937 7.319127268890072  4.614844259430219 7.243255972365343  4.456500000000001 7.1055  L 3.492000000000001 6.265500000000001  Z M 8.25 17.5065  L 9.961500000000001 17.5065  L 9.961500000000001 13.2645  L 12.316500000000001 13.2645  L 14.5635 17.5065  L 16.5345 17.5065  L 14.0655 12.997499999999999  C 15.411000000000003 12.547499999999998  16.206 11.3385  16.206 9.8475  C 16.206 7.792499999999999  14.791500000000003 6.478499999999999  12.522000000000002 6.478499999999999  L 8.25 6.478499999999999  L 8.25 17.5065  Z M 12.361500000000003 11.8815  L 9.961500000000001 11.8815  L 9.961500000000001 7.9155  L 12.316500000000001 7.9155  C 13.638000000000003 7.9155  14.4405 8.664  14.4405 9.8955  C 14.4405 11.1555  13.684500000000002 11.8815  12.361500000000003 11.8815  Z " fill-rule="evenodd" />
    </mask>
  </defs>
  <g>
    <path d="M 3.492000000000001 6.265500000000001  C 2.347663983536288 7.958778829698133  1.737381484387205 9.956304509704076  1.7415 12  C 1.741500242230152 17.66644136198135  6.335058638018638 22.259999561403504  12.001499999999991 22.259999561403504  C 17.667941533263935 22.259999561403504  22.261499999999995 17.66644109466744  22.261499999999995 11.999999561403499  C 22.261499999999995 6.334729565560885  17.669769753662536 1.7416565116946958  12.0045 1.7400000000000002  C 11.524012267647208 1.7400000000000002  11.1345 1.3504877323527904  11.1345 0.8700000000000001  C 11.1345 0.38951226764721  11.524012267647208 0  12.0045 0  C 18.630537064688575 0.001950767523835423  24.000967087484877 5.3739621280879994  24.000967087484877 11.999999479938705  C 24.000967087484877 18.627416477908227  18.6283840854544 23.999999479938705  12.000967087484877 23.999999479938705  C 5.373550089515356 23.999999479938705  0.0009670874848772826 18.627416477908227  0.0009670874848772826 11.999999479938705  C 0.0009670874848772826 9.537746234078746  0.7583978702095311 7.135091624539928  2.1705 5.118  L 1.176 4.2524999999999995  C 0.9859550764728608 4.087265375693986  0.8768325350365307 3.84778824574207  0.8768325350365307 3.5959558530123292  C 0.8768325350365307 3.2041753747850708  1.1386993962014618 2.860723897388401  1.5165000000000002 2.757  L 5.2965 1.7220000000000002  C 5.3711314829987185 1.7016370778338756  5.448145513577779 1.6913191648570922  5.5255051080294795 1.6913191648570922  C 6.0059928403822695 1.6913191648570922  6.395505108029479 2.080831432504302  6.395505108029479 2.561319164857092  C 6.395505108029479 2.5981573781869476  6.393165362195235 2.6349584023758785  6.388500000000001 2.6715  L 5.890500000000001 6.5595  C 5.834956413103299 6.993778188795622  5.465345384557677 7.319127268890072  5.0275296295773915 7.319127268890072  C 4.817649634301937 7.319127268890072  4.614844259430219 7.243255972365343  4.456500000000001 7.1055  L 3.492000000000001 6.265500000000001  Z M 8.25 17.5065  L 9.961500000000001 17.5065  L 9.961500000000001 13.2645  L 12.316500000000001 13.2645  L 14.5635 17.5065  L 16.5345 17.5065  L 14.0655 12.997499999999999  C 15.411000000000003 12.547499999999998  16.206 11.3385  16.206 9.8475  C 16.206 7.792499999999999  14.791500000000003 6.478499999999999  12.522000000000002 6.478499999999999  L 8.25 6.478499999999999  L 8.25 17.5065  Z M 12.361500000000003 11.8815  L 9.961500000000001 11.8815  L 9.961500000000001 7.9155  L 12.316500000000001 7.9155  C 13.638000000000003 7.9155  14.4405 8.664  14.4405 9.8955  C 14.4405 11.1555  13.684500000000002 11.8815  12.361500000000003 11.8815  Z " fill-rule="nonzero" fill="rgba(0, 0, 0, 1)" stroke="none" class="fill" />
    <path d="M 3.492000000000001 6.265500000000001  C 2.347663983536288 7.958778829698133  1.737381484387205 9.956304509704076  1.7415 12  C 1.741500242230152 17.66644136198135  6.335058638018638 22.259999561403504  12.001499999999991 22.259999561403504  C 17.667941533263935 22.259999561403504  22.261499999999995 17.66644109466744  22.261499999999995 11.999999561403499  C 22.261499999999995 6.334729565560885  17.669769753662536 1.7416565116946958  12.0045 1.7400000000000002  C 11.524012267647208 1.7400000000000002  11.1345 1.3504877323527904  11.1345 0.8700000000000001  C 11.1345 0.38951226764721  11.524012267647208 0  12.0045 0  C 18.630537064688575 0.001950767523835423  24.000967087484877 5.3739621280879994  24.000967087484877 11.999999479938705  C 24.000967087484877 18.627416477908227  18.6283840854544 23.999999479938705  12.000967087484877 23.999999479938705  C 5.373550089515356 23.999999479938705  0.0009670874848772826 18.627416477908227  0.0009670874848772826 11.999999479938705  C 0.0009670874848772826 9.537746234078746  0.7583978702095311 7.135091624539928  2.1705 5.118  L 1.176 4.2524999999999995  C 0.9859550764728608 4.087265375693986  0.8768325350365307 3.84778824574207  0.8768325350365307 3.5959558530123292  C 0.8768325350365307 3.2041753747850708  1.1386993962014618 2.860723897388401  1.5165000000000002 2.757  L 5.2965 1.7220000000000002  C 5.3711314829987185 1.7016370778338756  5.448145513577779 1.6913191648570922  5.5255051080294795 1.6913191648570922  C 6.0059928403822695 1.6913191648570922  6.395505108029479 2.080831432504302  6.395505108029479 2.561319164857092  C 6.395505108029479 2.5981573781869476  6.393165362195235 2.6349584023758785  6.388500000000001 2.6715  L 5.890500000000001 6.5595  C 5.834956413103299 6.993778188795622  5.465345384557677 7.319127268890072  5.0275296295773915 7.319127268890072  C 4.817649634301937 7.319127268890072  4.614844259430219 7.243255972365343  4.456500000000001 7.1055  L 3.492000000000001 6.265500000000001  Z " stroke-width="0" stroke-dasharray="0" stroke="rgba(255, 255, 255, 0)" fill="none" class="stroke" mask="url(#Clip4869)" />
    <path d="M 8.25 17.5065  L 9.961500000000001 17.5065  L 9.961500000000001 13.2645  L 12.316500000000001 13.2645  L 14.5635 17.5065  L 16.5345 17.5065  L 14.0655 12.997499999999999  C 15.411000000000003 12.547499999999998  16.206 11.3385  16.206 9.8475  C 16.206 7.792499999999999  14.791500000000003 6.478499999999999  12.522000000000002 6.478499999999999  L 8.25 6.478499999999999  L 8.25 17.5065  Z " stroke-width="0" stroke-dasharray="0" stroke="rgba(255, 255, 255, 0)" fill="none" class="stroke" mask="url(#Clip4869)" />
    <path d="M 12.361500000000003 11.8815  L 9.961500000000001 11.8815  L 9.961500000000001 7.9155  L 12.316500000000001 7.9155  C 13.638000000000003 7.9155  14.4405 8.664  14.4405 9.8955  C 14.4405 11.1555  13.684500000000002 11.8815  12.361500000000003 11.8815  Z " stroke-width="0" stroke-dasharray="0" stroke="rgba(255, 255, 255, 0)" fill="none" class="stroke" mask="url(#Clip4869)" />
  </g>
</svg>