<?xml version="1.0" encoding="utf-8"?>
<svg version="1.1" xmlns:xlink="http://www.w3.org/1999/xlink" width="50px" height="52px" xmlns="http://www.w3.org/2000/svg">
  <defs>
    <pattern id="BGPattern" patternUnits="userSpaceOnUse" alignment="0 0" imageRepeat="None" />
    <mask fill="white" id="Clip2242">
      <path d="M 49.99999999999999 29.500000000000004  C 49.99999999999999 27.731250000000014  49.418749999999996 26.031250000000007  48.36875 24.64375  C 48.59375 23.89375  48.70625 23.118750000000002  48.70625 22.33125  C 48.70625 20.5625  48.125 18.8625  47.074999999999996 17.475  C 47.3 16.725  47.412499999999994 15.950000000000005  47.412499999999994 15.162500000000001  C 47.412499999999994 13.39375  46.83125 11.693750000000001  45.78124999999999 10.306250000000002  C 46.006249999999994 9.556250000000002  46.11874999999999 8.781250000000002  46.11874999999999 7.993750000000002  C 46.11874999999999 4.7687500000000025  44.19999999999999 1.8625000000000025  41.224999999999994 0.5937500000000027  C 40.70207746031487 0.36830376129907094  40.13819346639076 0.2533990983862324  39.568749999999994 1  L 10 1  L 10 27.006250000000005  L 10.08125 27.006250000000005  L 15.443750000000001 46.431250000000006  C 16.30625 49.5625  19.18125 51.75  22.43125 51.75  C 24.287499999999998 51.75  26.018749999999997 51.0125  27.299999999999997 49.6625  C 28.581249999999997 48.31875  29.2375 46.55625  29.143749999999997 44.7  L 28.768749999999997 37  L 43.762499999999996 37  C 44.51875 37.018750000000004  45.256249999999994 36.81875  45.90624999999999 36.43750000000001  C 48.43124999999999 34.96875000000001  49.99999999999999 32.306250000000006  49.99999999999999 29.500000000000004  Z M 2 0.25  C 0.8937499999999997 0.25  0 1.1437499999999998  0 2.25  L 0 25  C 0 26.106250000000003  0.8937499999999997 27.000000000000004  2 27.000000000000004  L 6 27.000000000000004  L 6 0.25  L 2 0.25  Z " fill-rule="evenodd" />
    </mask>
  </defs>
  <g>
    <path d="M 49.99999999999999 29.500000000000004  C 49.99999999999999 27.731250000000014  49.418749999999996 26.031250000000007  48.36875 24.64375  C 48.59375 23.89375  48.70625 23.118750000000002  48.70625 22.33125  C 48.70625 20.5625  48.125 18.8625  47.074999999999996 17.475  C 47.3 16.725  47.412499999999994 15.950000000000005  47.412499999999994 15.162500000000001  C 47.412499999999994 13.39375  46.83125 11.693750000000001  45.78124999999999 10.306250000000002  C 46.006249999999994 9.556250000000002  46.11874999999999 8.781250000000002  46.11874999999999 7.993750000000002  C 46.11874999999999 4.7687500000000025  44.19999999999999 1.8625000000000025  41.224999999999994 0.5937500000000027  C 40.70207746031487 0.36830376129907094  40.13819346639076 0.2533990983862324  39.568749999999994 1  L 10 1  L 10 27.006250000000005  L 10.08125 27.006250000000005  L 15.443750000000001 46.431250000000006  C 16.30625 49.5625  19.18125 51.75  22.43125 51.75  C 24.287499999999998 51.75  26.018749999999997 51.0125  27.299999999999997 49.6625  C 28.581249999999997 48.31875  29.2375 46.55625  29.143749999999997 44.7  L 28.768749999999997 37  L 43.762499999999996 37  C 44.51875 37.018750000000004  45.256249999999994 36.81875  45.90624999999999 36.43750000000001  C 48.43124999999999 34.96875000000001  49.99999999999999 32.306250000000006  49.99999999999999 29.500000000000004  Z M 2 0.25  C 0.8937499999999997 0.25  0 1.1437499999999998  0 2.25  L 0 25  C 0 26.106250000000003  0.8937499999999997 27.000000000000004  2 27.000000000000004  L 6 27.000000000000004  L 6 0.25  L 2 0.25  Z " fill-rule="nonzero" fill="rgba(0, 0, 0, 1)" stroke="none" class="fill" />
    <path d="M 49.99999999999999 29.500000000000004  C 49.99999999999999 27.731250000000014  49.418749999999996 26.031250000000007  48.36875 24.64375  C 48.59375 23.89375  48.70625 23.118750000000002  48.70625 22.33125  C 48.70625 20.5625  48.125 18.8625  47.074999999999996 17.475  C 47.3 16.725  47.412499999999994 15.950000000000005  47.412499999999994 15.162500000000001  C 47.412499999999994 13.39375  46.83125 11.693750000000001  45.78124999999999 10.306250000000002  C 46.006249999999994 9.556250000000002  46.11874999999999 8.781250000000002  46.11874999999999 7.993750000000002  C 46.11874999999999 4.7687500000000025  44.19999999999999 1.8625000000000025  41.224999999999994 0.5937500000000027  C 40.70207746031487 0.36830376129907094  40.13819346639076 0.2533990983862324  39.568749999999994 1  L 10 1  L 10 27.006250000000005  L 10.08125 27.006250000000005  L 15.443750000000001 46.431250000000006  C 16.30625 49.5625  19.18125 51.75  22.43125 51.75  C 24.287499999999998 51.75  26.018749999999997 51.0125  27.299999999999997 49.6625  C 28.581249999999997 48.31875  29.2375 46.55625  29.143749999999997 44.7  L 28.768749999999997 37  L 43.762499999999996 37  C 44.51875 37.018750000000004  45.256249999999994 36.81875  45.90624999999999 36.43750000000001  C 48.43124999999999 34.96875000000001  49.99999999999999 32.306250000000006  49.99999999999999 29.500000000000004  Z " stroke-width="0" stroke-dasharray="0" stroke="rgba(255, 255, 255, 0)" fill="none" class="stroke" mask="url(#Clip2242)" />
    <path d="M 2 0.25  C 0.8937499999999997 0.25  0 1.1437499999999998  0 2.25  L 0 25  C 0 26.106250000000003  0.8937499999999997 27.000000000000004  2 27.000000000000004  L 6 27.000000000000004  L 6 0.25  L 2 0.25  Z " stroke-width="0" stroke-dasharray="0" stroke="rgba(255, 255, 255, 0)" fill="none" class="stroke" mask="url(#Clip2242)" />
  </g>
</svg>