<?xml version="1.0" encoding="utf-8"?>
<svg version="1.1" xmlns:xlink="http://www.w3.org/1999/xlink" width="50px" height="50px" xmlns="http://www.w3.org/2000/svg">
  <defs>
    <pattern id="BGPattern" patternUnits="userSpaceOnUse" alignment="0 0" imageRepeat="None" />
    <mask fill="white" id="Clip1200">
      <path d="M 50 25  C 50 11.189516129032256  38.810483870967744 0  25 0  C 11.189516129032256 0  0 11.189516129032256  0 25  C 0 38.810483870967744  11.189516129032256 50  25 50  C 38.810483870967744 50  50 38.810483870967744  50 25  Z M 45.16129032258064 25  C 45.16129032258064 36.11895161290323  36.11895161290323 45.16129032258064  25 45.16129032258064  C 13.88104838709677 45.16129032258064  4.838709677419359 36.11895161290323  4.838709677419359 25  C 4.838709677419359 13.88104838709677  13.88104838709677 4.838709677419359  25 4.838709677419359  C 36.11895161290323 4.838709677419359  45.16129032258064 13.88104838709677  45.16129032258064 25  Z M 37.1875 33.810483870967744  C 38.044354838709694 32.78225806451613  37.903225806451616 31.26008064516128  36.875 30.403225806451616  C 35.846774193548384 29.546370967741954  34.32459677419354 29.6875  33.46774193548387 30.715725806451616  C 31.370967741935484 33.235887096774206  28.276209677419363 34.6875  25 34.6875  C 21.72379032258064 34.6875  18.629032258064512 33.24596774193549  16.532258064516128 30.715725806451616  C 15.675403225806447 29.6875  14.143145161290322 29.556451612903235  13.125 30.403225806451616  C 12.096774193548384 31.26008064516128  11.965725806451616 32.78225806451613  12.812499999999998 33.810483870967744  C 15.836693548387103 37.439516129032256  20.282258064516128 39.51612903225808  25 39.51612903225808  C 29.717741935483872 39.51612903225808  34.1633064516129 37.439516129032256  37.1875 33.810483870967744  Z M 13.709677419354833 20.16129032258064  C 13.709677419354833 21.945564516129025  15.151209677419358 23.387096774193537  16.935483870967744 23.387096774193537  C 18.719758064516128 23.387096774193537  20.16129032258064 21.945564516129025  20.16129032258064 20.16129032258064  C 20.16129032258064 18.377016129032256  18.719758064516128 16.935483870967744  16.935483870967744 16.935483870967744  C 15.151209677419358 16.935483870967744  13.709677419354833 18.377016129032256  13.709677419354833 20.16129032258064  Z M 39.08266129032259 21.58266129032259  C 38.69959677419354 19.04233870967741  35.65524193548387 17.33870967741936  33.064516129032256 17.33870967741936  C 30.47379032258064 17.33870967741936  27.42943548387097 19.04233870967741  27.02620967741936 21.58266129032259  C 26.854838709677438 22.711693548387103  28.185483870967744 23.41733870967741  29.022177419354843 22.67137096774195  L 29.979838709677438 21.814516129032256  C 31.471774193548384 20.48387096774195  34.63709677419354 20.48387096774195  36.12903225806451 21.814516129032256  L 37.0866935483871 22.67137096774195  C 37.94354838709677 23.41733870967741  39.26411290322582 22.701612903225794  39.08266129032259 21.58266129032259  Z " fill-rule="evenodd" />
    </mask>
  </defs>
  <g>
    <path d="M 50 25  C 50 11.189516129032256  38.810483870967744 0  25 0  C 11.189516129032256 0  0 11.189516129032256  0 25  C 0 38.810483870967744  11.189516129032256 50  25 50  C 38.810483870967744 50  50 38.810483870967744  50 25  Z M 45.16129032258064 25  C 45.16129032258064 36.11895161290323  36.11895161290323 45.16129032258064  25 45.16129032258064  C 13.88104838709677 45.16129032258064  4.838709677419359 36.11895161290323  4.838709677419359 25  C 4.838709677419359 13.88104838709677  13.88104838709677 4.838709677419359  25 4.838709677419359  C 36.11895161290323 4.838709677419359  45.16129032258064 13.88104838709677  45.16129032258064 25  Z M 37.1875 33.810483870967744  C 38.044354838709694 32.78225806451613  37.903225806451616 31.26008064516128  36.875 30.403225806451616  C 35.846774193548384 29.546370967741954  34.32459677419354 29.6875  33.46774193548387 30.715725806451616  C 31.370967741935484 33.235887096774206  28.276209677419363 34.6875  25 34.6875  C 21.72379032258064 34.6875  18.629032258064512 33.24596774193549  16.532258064516128 30.715725806451616  C 15.675403225806447 29.6875  14.143145161290322 29.556451612903235  13.125 30.403225806451616  C 12.096774193548384 31.26008064516128  11.965725806451616 32.78225806451613  12.812499999999998 33.810483870967744  C 15.836693548387103 37.439516129032256  20.282258064516128 39.51612903225808  25 39.51612903225808  C 29.717741935483872 39.51612903225808  34.1633064516129 37.439516129032256  37.1875 33.810483870967744  Z M 13.709677419354833 20.16129032258064  C 13.709677419354833 21.945564516129025  15.151209677419358 23.387096774193537  16.935483870967744 23.387096774193537  C 18.719758064516128 23.387096774193537  20.16129032258064 21.945564516129025  20.16129032258064 20.16129032258064  C 20.16129032258064 18.377016129032256  18.719758064516128 16.935483870967744  16.935483870967744 16.935483870967744  C 15.151209677419358 16.935483870967744  13.709677419354833 18.377016129032256  13.709677419354833 20.16129032258064  Z M 39.08266129032259 21.58266129032259  C 38.69959677419354 19.04233870967741  35.65524193548387 17.33870967741936  33.064516129032256 17.33870967741936  C 30.47379032258064 17.33870967741936  27.42943548387097 19.04233870967741  27.02620967741936 21.58266129032259  C 26.854838709677438 22.711693548387103  28.185483870967744 23.41733870967741  29.022177419354843 22.67137096774195  L 29.979838709677438 21.814516129032256  C 31.471774193548384 20.48387096774195  34.63709677419354 20.48387096774195  36.12903225806451 21.814516129032256  L 37.0866935483871 22.67137096774195  C 37.94354838709677 23.41733870967741  39.26411290322582 22.701612903225794  39.08266129032259 21.58266129032259  Z " fill-rule="nonzero" fill="rgba(0, 0, 0, 1)" stroke="none" class="fill" />
    <path d="M 50 25  C 50 11.189516129032256  38.810483870967744 0  25 0  C 11.189516129032256 0  0 11.189516129032256  0 25  C 0 38.810483870967744  11.189516129032256 50  25 50  C 38.810483870967744 50  50 38.810483870967744  50 25  Z " stroke-width="0" stroke-dasharray="0" stroke="rgba(255, 255, 255, 0)" fill="none" class="stroke" mask="url(#Clip1200)" />
    <path d="M 45.16129032258064 25  C 45.16129032258064 36.11895161290323  36.11895161290323 45.16129032258064  25 45.16129032258064  C 13.88104838709677 45.16129032258064  4.838709677419359 36.11895161290323  4.838709677419359 25  C 4.838709677419359 13.88104838709677  13.88104838709677 4.838709677419359  25 4.838709677419359  C 36.11895161290323 4.838709677419359  45.16129032258064 13.88104838709677  45.16129032258064 25  Z " stroke-width="0" stroke-dasharray="0" stroke="rgba(255, 255, 255, 0)" fill="none" class="stroke" mask="url(#Clip1200)" />
    <path d="M 37.1875 33.810483870967744  C 38.044354838709694 32.78225806451613  37.903225806451616 31.26008064516128  36.875 30.403225806451616  C 35.846774193548384 29.546370967741954  34.32459677419354 29.6875  33.46774193548387 30.715725806451616  C 31.370967741935484 33.235887096774206  28.276209677419363 34.6875  25 34.6875  C 21.72379032258064 34.6875  18.629032258064512 33.24596774193549  16.532258064516128 30.715725806451616  C 15.675403225806447 29.6875  14.143145161290322 29.556451612903235  13.125 30.403225806451616  C 12.096774193548384 31.26008064516128  11.965725806451616 32.78225806451613  12.812499999999998 33.810483870967744  C 15.836693548387103 37.439516129032256  20.282258064516128 39.51612903225808  25 39.51612903225808  C 29.717741935483872 39.51612903225808  34.1633064516129 37.439516129032256  37.1875 33.810483870967744  Z " stroke-width="0" stroke-dasharray="0" stroke="rgba(255, 255, 255, 0)" fill="none" class="stroke" mask="url(#Clip1200)" />
    <path d="M 13.709677419354833 20.16129032258064  C 13.709677419354833 21.945564516129025  15.151209677419358 23.387096774193537  16.935483870967744 23.387096774193537  C 18.719758064516128 23.387096774193537  20.16129032258064 21.945564516129025  20.16129032258064 20.16129032258064  C 20.16129032258064 18.377016129032256  18.719758064516128 16.935483870967744  16.935483870967744 16.935483870967744  C 15.151209677419358 16.935483870967744  13.709677419354833 18.377016129032256  13.709677419354833 20.16129032258064  Z " stroke-width="0" stroke-dasharray="0" stroke="rgba(255, 255, 255, 0)" fill="none" class="stroke" mask="url(#Clip1200)" />
    <path d="M 39.08266129032259 21.58266129032259  C 38.69959677419354 19.04233870967741  35.65524193548387 17.33870967741936  33.064516129032256 17.33870967741936  C 30.47379032258064 17.33870967741936  27.42943548387097 19.04233870967741  27.02620967741936 21.58266129032259  C 26.854838709677438 22.711693548387103  28.185483870967744 23.41733870967741  29.022177419354843 22.67137096774195  L 29.979838709677438 21.814516129032256  C 31.471774193548384 20.48387096774195  34.63709677419354 20.48387096774195  36.12903225806451 21.814516129032256  L 37.0866935483871 22.67137096774195  C 37.94354838709677 23.41733870967741  39.26411290322582 22.701612903225794  39.08266129032259 21.58266129032259  Z " stroke-width="0" stroke-dasharray="0" stroke="rgba(255, 255, 255, 0)" fill="none" class="stroke" mask="url(#Clip1200)" />
  </g>
</svg>