<?xml version="1.0" encoding="utf-8"?>
<svg version="1.1" xmlns:xlink="http://www.w3.org/1999/xlink" width="48px" height="48px" xmlns="http://www.w3.org/2000/svg">
  <defs>
    <pattern id="BGPattern" patternUnits="userSpaceOnUse" alignment="0 0" imageRepeat="None" />
    <mask fill="white" id="Clip6899">
      <path d="M 38.251999999999995 42.178  L 35.896 40.324  C 32.276 43.378  27.740000000000002 45.056  22.964 45.056  C 17.599999999999998 45.056  12.583999999999996 42.961999999999996  8.787999999999998 39.19  C 4.993999999999998 35.396  2.921999999999999 30.357999999999997  2.921999999999999 25.013999999999996  C 2.921999999999999 20.215999999999994  4.6019999999999985 15.679999999999996  7.653999999999999 12.081999999999997  L 5.822 9.748  C 2.202 13.804000000000002  0 19.17  0 25.036  C 0 37.728  10.272 48  22.964 48  C 28.83 48  34.196 45.798  38.251999999999995 42.178  Z M 14.394000000000005 3.7079999999999975  L 16.662 5.976  C 18.668 5.322  20.784 4.9719999999999995  22.964 4.9719999999999995  C 28.327999999999996 4.9719999999999995  33.344 7.065999999999999  37.14 10.838  C 40.934 14.632000000000001  43.006 19.67  43.006 25.013999999999996  C 43.006 27.193999999999996  42.658 29.31  42.002 31.316  L 44.27 33.583999999999996  C 45.338 30.945999999999998  45.928000000000004 28.043999999999997  45.928000000000004 25.013999999999996  C 45.928000000000004 12.321999999999996  35.656000000000006 2.049999999999997  22.964000000000006 2.049999999999997  C 19.932000000000006 2.049999999999997  17.032000000000004 2.6379999999999972  14.394000000000005 3.7079999999999975  Z M 15.832 17.84  L 19.366 12.888000000000002  L 6.892 0  L 4.952 3.032  C 4.776 3.314  4.798 3.686  5.016 3.9480000000000004  L 15.832 17.84  Z M 13.674000000000003 32.822  L 15.31 29.92  L 10.294 26.148000000000003  L 9.378 27.696000000000005  C 9.268 27.870000000000005  9.290000000000001 28.088  9.444 28.242000000000004  L 13.674000000000003 32.822  Z M 20.172 23.376  L 24.315999999999995 18.014  L 23.16 16.814  L 23.466 15.592000000000002  C 23.596 15.046  23.64 14.61  23.596 14.347999999999999  C 23.422 13.562000000000001  23.05 12.974  23.05 12.974  L 12.102 24.706  C 12.102 24.706  12.844000000000001 25.426000000000002  13.911999999999999 24.595999999999997  C 14.392 24.226  16.29 22.676000000000002  18.318 20.998  L 20.172 23.376  Z M 48 41.086  L 35.002 28.526  L 35.308 27.304  C 35.418 26.89  35.482 26.54  35.438 26.299999999999997  C 35.308 25.513999999999996  35.002 24.925999999999995  35.002 24.925999999999995  L 23.270000000000003 35.873999999999995  C 23.270000000000003 35.873999999999995  23.990000000000002 36.61599999999999  25.102000000000004 35.873999999999995  C 25.648000000000003 35.504  27.958000000000006 33.88999999999999  30.270000000000003 32.23199999999999  L 44.05200000000001 42.96199999999999  C 44.31400000000001 43.17999999999999  44.684000000000005 43.20199999999999  44.968 43.02799999999999  L 48 41.086  Z M 21.786 37.73000000000001  L 18.122 32.778  C 19.887999999999998 31.426000000000002  22.352 29.528  24.556000000000004 27.828  L 27.042 29.768  L 31.119999999999997 24.818000000000005  L 29.768 23.51  L 30.204 21.962000000000003  C 30.421999999999997 21.176000000000002  30.509999999999998 20.566000000000003  30.444 20.196000000000005  C 30.226 19.062000000000005  29.723999999999997 18.234000000000005  29.723999999999997 18.234000000000005  L 13.585999999999999 34.37200000000001  C 13.585999999999999 34.37200000000001  14.088 34.78600000000001  15.133999999999999 34.37200000000001  L 19.692 38.580000000000005  C 19.844 38.71000000000001  20.062 38.732000000000006  20.238 38.64600000000001  L 21.786 37.73000000000001  Z " fill-rule="evenodd" />
    </mask>
  </defs>
  <g>
    <path d="M 38.251999999999995 42.178  L 35.896 40.324  C 32.276 43.378  27.740000000000002 45.056  22.964 45.056  C 17.599999999999998 45.056  12.583999999999996 42.961999999999996  8.787999999999998 39.19  C 4.993999999999998 35.396  2.921999999999999 30.357999999999997  2.921999999999999 25.013999999999996  C 2.921999999999999 20.215999999999994  4.6019999999999985 15.679999999999996  7.653999999999999 12.081999999999997  L 5.822 9.748  C 2.202 13.804000000000002  0 19.17  0 25.036  C 0 37.728  10.272 48  22.964 48  C 28.83 48  34.196 45.798  38.251999999999995 42.178  Z M 14.394000000000005 3.7079999999999975  L 16.662 5.976  C 18.668 5.322  20.784 4.9719999999999995  22.964 4.9719999999999995  C 28.327999999999996 4.9719999999999995  33.344 7.065999999999999  37.14 10.838  C 40.934 14.632000000000001  43.006 19.67  43.006 25.013999999999996  C 43.006 27.193999999999996  42.658 29.31  42.002 31.316  L 44.27 33.583999999999996  C 45.338 30.945999999999998  45.928000000000004 28.043999999999997  45.928000000000004 25.013999999999996  C 45.928000000000004 12.321999999999996  35.656000000000006 2.049999999999997  22.964000000000006 2.049999999999997  C 19.932000000000006 2.049999999999997  17.032000000000004 2.6379999999999972  14.394000000000005 3.7079999999999975  Z M 15.832 17.84  L 19.366 12.888000000000002  L 6.892 0  L 4.952 3.032  C 4.776 3.314  4.798 3.686  5.016 3.9480000000000004  L 15.832 17.84  Z M 13.674000000000003 32.822  L 15.31 29.92  L 10.294 26.148000000000003  L 9.378 27.696000000000005  C 9.268 27.870000000000005  9.290000000000001 28.088  9.444 28.242000000000004  L 13.674000000000003 32.822  Z M 20.172 23.376  L 24.315999999999995 18.014  L 23.16 16.814  L 23.466 15.592000000000002  C 23.596 15.046  23.64 14.61  23.596 14.347999999999999  C 23.422 13.562000000000001  23.05 12.974  23.05 12.974  L 12.102 24.706  C 12.102 24.706  12.844000000000001 25.426000000000002  13.911999999999999 24.595999999999997  C 14.392 24.226  16.29 22.676000000000002  18.318 20.998  L 20.172 23.376  Z M 48 41.086  L 35.002 28.526  L 35.308 27.304  C 35.418 26.89  35.482 26.54  35.438 26.299999999999997  C 35.308 25.513999999999996  35.002 24.925999999999995  35.002 24.925999999999995  L 23.270000000000003 35.873999999999995  C 23.270000000000003 35.873999999999995  23.990000000000002 36.61599999999999  25.102000000000004 35.873999999999995  C 25.648000000000003 35.504  27.958000000000006 33.88999999999999  30.270000000000003 32.23199999999999  L 44.05200000000001 42.96199999999999  C 44.31400000000001 43.17999999999999  44.684000000000005 43.20199999999999  44.968 43.02799999999999  L 48 41.086  Z M 21.786 37.73000000000001  L 18.122 32.778  C 19.887999999999998 31.426000000000002  22.352 29.528  24.556000000000004 27.828  L 27.042 29.768  L 31.119999999999997 24.818000000000005  L 29.768 23.51  L 30.204 21.962000000000003  C 30.421999999999997 21.176000000000002  30.509999999999998 20.566000000000003  30.444 20.196000000000005  C 30.226 19.062000000000005  29.723999999999997 18.234000000000005  29.723999999999997 18.234000000000005  L 13.585999999999999 34.37200000000001  C 13.585999999999999 34.37200000000001  14.088 34.78600000000001  15.133999999999999 34.37200000000001  L 19.692 38.580000000000005  C 19.844 38.71000000000001  20.062 38.732000000000006  20.238 38.64600000000001  L 21.786 37.73000000000001  Z " fill-rule="nonzero" fill="rgba(0, 174, 239, 1)" stroke="none" class="fill" />
    <path d="M 38.251999999999995 42.178  L 35.896 40.324  C 32.276 43.378  27.740000000000002 45.056  22.964 45.056  C 17.599999999999998 45.056  12.583999999999996 42.961999999999996  8.787999999999998 39.19  C 4.993999999999998 35.396  2.921999999999999 30.357999999999997  2.921999999999999 25.013999999999996  C 2.921999999999999 20.215999999999994  4.6019999999999985 15.679999999999996  7.653999999999999 12.081999999999997  L 5.822 9.748  C 2.202 13.804000000000002  0 19.17  0 25.036  C 0 37.728  10.272 48  22.964 48  C 28.83 48  34.196 45.798  38.251999999999995 42.178  Z " stroke-width="0" stroke-dasharray="0" stroke="rgba(255, 255, 255, 0)" fill="none" class="stroke" mask="url(#Clip6899)" />
    <path d="M 14.394000000000005 3.7079999999999975  L 16.662 5.976  C 18.668 5.322  20.784 4.9719999999999995  22.964 4.9719999999999995  C 28.327999999999996 4.9719999999999995  33.344 7.065999999999999  37.14 10.838  C 40.934 14.632000000000001  43.006 19.67  43.006 25.013999999999996  C 43.006 27.193999999999996  42.658 29.31  42.002 31.316  L 44.27 33.583999999999996  C 45.338 30.945999999999998  45.928000000000004 28.043999999999997  45.928000000000004 25.013999999999996  C 45.928000000000004 12.321999999999996  35.656000000000006 2.049999999999997  22.964000000000006 2.049999999999997  C 19.932000000000006 2.049999999999997  17.032000000000004 2.6379999999999972  14.394000000000005 3.7079999999999975  Z " stroke-width="0" stroke-dasharray="0" stroke="rgba(255, 255, 255, 0)" fill="none" class="stroke" mask="url(#Clip6899)" />
    <path d="M 15.832 17.84  L 19.366 12.888000000000002  L 6.892 0  L 4.952 3.032  C 4.776 3.314  4.798 3.686  5.016 3.9480000000000004  L 15.832 17.84  Z " stroke-width="0" stroke-dasharray="0" stroke="rgba(255, 255, 255, 0)" fill="none" class="stroke" mask="url(#Clip6899)" />
    <path d="M 13.674000000000003 32.822  L 15.31 29.92  L 10.294 26.148000000000003  L 9.378 27.696000000000005  C 9.268 27.870000000000005  9.290000000000001 28.088  9.444 28.242000000000004  L 13.674000000000003 32.822  Z " stroke-width="0" stroke-dasharray="0" stroke="rgba(255, 255, 255, 0)" fill="none" class="stroke" mask="url(#Clip6899)" />
    <path d="M 20.172 23.376  L 24.315999999999995 18.014  L 23.16 16.814  L 23.466 15.592000000000002  C 23.596 15.046  23.64 14.61  23.596 14.347999999999999  C 23.422 13.562000000000001  23.05 12.974  23.05 12.974  L 12.102 24.706  C 12.102 24.706  12.844000000000001 25.426000000000002  13.911999999999999 24.595999999999997  C 14.392 24.226  16.29 22.676000000000002  18.318 20.998  L 20.172 23.376  Z " stroke-width="0" stroke-dasharray="0" stroke="rgba(255, 255, 255, 0)" fill="none" class="stroke" mask="url(#Clip6899)" />
    <path d="M 48 41.086  L 35.002 28.526  L 35.308 27.304  C 35.418 26.89  35.482 26.54  35.438 26.299999999999997  C 35.308 25.513999999999996  35.002 24.925999999999995  35.002 24.925999999999995  L 23.270000000000003 35.873999999999995  C 23.270000000000003 35.873999999999995  23.990000000000002 36.61599999999999  25.102000000000004 35.873999999999995  C 25.648000000000003 35.504  27.958000000000006 33.88999999999999  30.270000000000003 32.23199999999999  L 44.05200000000001 42.96199999999999  C 44.31400000000001 43.17999999999999  44.684000000000005 43.20199999999999  44.968 43.02799999999999  L 48 41.086  Z " stroke-width="0" stroke-dasharray="0" stroke="rgba(255, 255, 255, 0)" fill="none" class="stroke" mask="url(#Clip6899)" />
    <path d="M 21.786 37.73000000000001  L 18.122 32.778  C 19.887999999999998 31.426000000000002  22.352 29.528  24.556000000000004 27.828  L 27.042 29.768  L 31.119999999999997 24.818000000000005  L 29.768 23.51  L 30.204 21.962000000000003  C 30.421999999999997 21.176000000000002  30.509999999999998 20.566000000000003  30.444 20.196000000000005  C 30.226 19.062000000000005  29.723999999999997 18.234000000000005  29.723999999999997 18.234000000000005  L 13.585999999999999 34.37200000000001  C 13.585999999999999 34.37200000000001  14.088 34.78600000000001  15.133999999999999 34.37200000000001  L 19.692 38.580000000000005  C 19.844 38.71000000000001  20.062 38.732000000000006  20.238 38.64600000000001  L 21.786 37.73000000000001  Z " stroke-width="0" stroke-dasharray="0" stroke="rgba(255, 255, 255, 0)" fill="none" class="stroke" mask="url(#Clip6899)" />
  </g>
</svg>