<?xml version="1.0" encoding="utf-8"?>
<svg version="1.1" xmlns:xlink="http://www.w3.org/1999/xlink" width="22px" height="22px" xmlns="http://www.w3.org/2000/svg">
  <defs>
    <pattern id="BGPattern" patternUnits="userSpaceOnUse" alignment="0 0" imageRepeat="None" />
    <mask fill="white" id="Clip3618">
      <path d="M 22 5  L 22 3  L 8 3  L 8 0  L 0 0  L 0 8  L 3 8  L 3 22  L 5 22  L 5 8  L 8 8  L 8 5  L 22 5  Z M 6 2  L 6 6  L 2 6  L 2 2  L 6 2  Z " fill-rule="evenodd" />
    </mask>
  </defs>
  <g transform="matrix(1 0 0 1 -6 -6 )">
    <path d="M 22 5  L 22 3  L 8 3  L 8 0  L 0 0  L 0 8  L 3 8  L 3 22  L 5 22  L 5 8  L 8 8  L 8 5  L 22 5  Z M 6 2  L 6 6  L 2 6  L 2 2  L 6 2  Z " fill-rule="nonzero" fill="rgba(0, 0, 0, 1)" stroke="none" transform="matrix(1 0 0 1 6 6 )" class="fill" />
    <path d="M 22 5  L 22 3  L 8 3  L 8 0  L 0 0  L 0 8  L 3 8  L 3 22  L 5 22  L 5 8  L 8 8  L 8 5  L 22 5  Z " stroke-width="0" stroke-dasharray="0" stroke="rgba(255, 255, 255, 0)" fill="none" transform="matrix(1 0 0 1 6 6 )" class="stroke" mask="url(#Clip3618)" />
    <path d="M 6 2  L 6 6  L 2 6  L 2 2  L 6 2  Z " stroke-width="0" stroke-dasharray="0" stroke="rgba(255, 255, 255, 0)" fill="none" transform="matrix(1 0 0 1 6 6 )" class="stroke" mask="url(#Clip3618)" />
  </g>
</svg>