<?xml version="1.0" encoding="utf-8"?>
<svg version="1.1" xmlns:xlink="http://www.w3.org/1999/xlink" width="50px" height="50px" xmlns="http://www.w3.org/2000/svg">
  <defs>
    <pattern id="BGPattern" patternUnits="userSpaceOnUse" alignment="0 0" imageRepeat="None" />
    <mask fill="white" id="Clip2317">
      <path d="M 50 2  C 50 0.8937499999999997  49.10625 0  48 0  L 2 0  C 0.8937499999999997 0  0 0.8937499999999997  0 2  L 0 48  C 0 49.10625  0.8937499999999997 50  2 50  L 48 50  C 49.10625 50  50 49.10625  50 48  L 50 2  Z M 41 12.325  L 41 12.85625  L 38.45 15.299999999999999  C 38.225 15.46875  38.118750000000006 15.74375  38 16.0125  L 38 33.99375  C 38.11875 34.26875  38.225 34.543749999999996  38.45 34.70625  L 40.95 37.15  L 40.95 37  L 28.4 37  L 28.4 37.175000000000004  L 30.981249999999992 34.66875  C 31.237499999999997 34.4125  31.237499999999997 34.337500000000006  31 33.956250000000004  L 31 19.40625  L 24.049999999999997 37.63125  L 23.081249999999997 37.63125  L 15 19.40625  L 15 31.624999999999996  C 14.64375 32.1375  14.825 32.65625  15.187500000000002 33.025  L 18.55 37.09375  L 18.55 37.6375  L 9 37.6375  L 9 37.09375  L 12.362500000000004 33.025  C 12.721746605502874 32.65391075641688  12.884027355508412 32.13461235639915  13 31.624999999999996  L 13 17.5  C 12.843750000000002 17.10625  12.693750000000001 16.725  12.39375 16.45625  L 9.40625 12.85625  L 9.40625 12.3125  L 18.6875 12.3125  L 25.85 28.031250000000004  L 32.15625 12.325  L 41 12.325  Z " fill-rule="evenodd" />
    </mask>
  </defs>
  <g>
    <path d="M 50 2  C 50 0.8937499999999997  49.10625 0  48 0  L 2 0  C 0.8937499999999997 0  0 0.8937499999999997  0 2  L 0 48  C 0 49.10625  0.8937499999999997 50  2 50  L 48 50  C 49.10625 50  50 49.10625  50 48  L 50 2  Z M 41 12.325  L 41 12.85625  L 38.45 15.299999999999999  C 38.225 15.46875  38.118750000000006 15.74375  38 16.0125  L 38 33.99375  C 38.11875 34.26875  38.225 34.543749999999996  38.45 34.70625  L 40.95 37.15  L 40.95 37  L 28.4 37  L 28.4 37.175000000000004  L 30.981249999999992 34.66875  C 31.237499999999997 34.4125  31.237499999999997 34.337500000000006  31 33.956250000000004  L 31 19.40625  L 24.049999999999997 37.63125  L 23.081249999999997 37.63125  L 15 19.40625  L 15 31.624999999999996  C 14.64375 32.1375  14.825 32.65625  15.187500000000002 33.025  L 18.55 37.09375  L 18.55 37.6375  L 9 37.6375  L 9 37.09375  L 12.362500000000004 33.025  C 12.721746605502874 32.65391075641688  12.884027355508412 32.13461235639915  13 31.624999999999996  L 13 17.5  C 12.843750000000002 17.10625  12.693750000000001 16.725  12.39375 16.45625  L 9.40625 12.85625  L 9.40625 12.3125  L 18.6875 12.3125  L 25.85 28.031250000000004  L 32.15625 12.325  L 41 12.325  Z " fill-rule="nonzero" fill="rgba(0, 0, 0, 1)" stroke="none" class="fill" />
    <path d="M 50 2  C 50 0.8937499999999997  49.10625 0  48 0  L 2 0  C 0.8937499999999997 0  0 0.8937499999999997  0 2  L 0 48  C 0 49.10625  0.8937499999999997 50  2 50  L 48 50  C 49.10625 50  50 49.10625  50 48  L 50 2  Z " stroke-width="0" stroke-dasharray="0" stroke="rgba(255, 255, 255, 0)" fill="none" class="stroke" mask="url(#Clip2317)" />
    <path d="M 41 12.325  L 41 12.85625  L 38.45 15.299999999999999  C 38.225 15.46875  38.118750000000006 15.74375  38 16.0125  L 38 33.99375  C 38.11875 34.26875  38.225 34.543749999999996  38.45 34.70625  L 40.95 37.15  L 40.95 37  L 28.4 37  L 28.4 37.175000000000004  L 30.981249999999992 34.66875  C 31.237499999999997 34.4125  31.237499999999997 34.337500000000006  31 33.956250000000004  L 31 19.40625  L 24.049999999999997 37.63125  L 23.081249999999997 37.63125  L 15 19.40625  L 15 31.624999999999996  C 14.64375 32.1375  14.825 32.65625  15.187500000000002 33.025  L 18.55 37.09375  L 18.55 37.6375  L 9 37.6375  L 9 37.09375  L 12.362500000000004 33.025  C 12.721746605502874 32.65391075641688  12.884027355508412 32.13461235639915  13 31.624999999999996  L 13 17.5  C 12.843750000000002 17.10625  12.693750000000001 16.725  12.39375 16.45625  L 9.40625 12.85625  L 9.40625 12.3125  L 18.6875 12.3125  L 25.85 28.031250000000004  L 32.15625 12.325  L 41 12.325  Z " stroke-width="0" stroke-dasharray="0" stroke="rgba(255, 255, 255, 0)" fill="none" class="stroke" mask="url(#Clip2317)" />
  </g>
</svg>