<?xml version="1.0" encoding="utf-8"?>
<svg version="1.1" xmlns:xlink="http://www.w3.org/1999/xlink" width="65px" height="14px" xmlns="http://www.w3.org/2000/svg">
  <defs>
    <pattern id="BGPattern" patternUnits="userSpaceOnUse" alignment="0 0" imageRepeat="None" />
    <mask fill="white" id="Clip2655">
      <path d="M 32 0.8237499999999933  L 32 11.909374999999997  C 32.325 12.131249999999994  32.325 12.181874999999998  32.475 12.318749999999994  L 33.314375 13.146874999999994  L 33.314375 13.182499999999997  L 29.59125 13.182499999999997  L 29.59125 11.590624999999996  C 29.222636507755034 12.63538802051277  28.230326248162957 13.33000520222722  27.1225 13.318749999999994  C 25.209374999999998 13.318749999999994  23.82 11.803124999999994  23.82 9.014374999999994  C 23.82 6.401874999999993  25.319375 4.658749999999994  27.423125 4.658749999999994  C 28.35935688431678 4.602153201894861  29.228259415620375 5.146190123401617  29.58625 6.013124999999995  L 29.58625 2.5012499999999953  C 29.614162929069018 2.339188095343392  29.548704976192024 2.175180899758601  29.416875 2.076874999999994  L 28.616875 1.2987499999999947  L 28.616875 1.2637499999999946  L 32 0.8237499999999933  Z M 28.396874999999998 12.045624999999994  C 28.87474253342105 12.034994016129104  29.31869044937163 11.796409761978786  29.591250000000002 11.403749999999995  L 29.591250000000002 6.164374999999993  C 29.32330347820914 5.826621407100387  28.913576682863134 5.632613228920771  28.4825 5.639374999999998  C 27.5775 5.639374999999998  26.703125 6.467499999999998  26.703125 8.928124999999994  C 26.703125 11.231874999999995  27.4575 12.045624999999994  28.396874999999998 12.045624999999994  Z M 38.511250000000004 13.1875  L 34.793125 13.182499999999997  L 34.793125 6.108749999999997  C 34.816999444809944 5.951130885475688  34.760746151614185 5.791980943476009  34.643125000000005 5.684374999999999  L 33.81875 4.825624999999999  L 33.81875 4.789999999999999  L 37.541250000000005 4.789999999999999  L 37.541250000000005 11.964999999999996  C 37.541250000000005 12.186874999999993  37.541250000000005 12.237499999999997  37.69125000000001 12.373749999999994  L 38.511250000000004 13.151874999999997  L 38.511250000000004 13.1875  Z M 36.157500000000006 3.71875  C 35.329375000000006 3.71875  34.658125000000005 3.0406249999999986  34.658125000000005 2.203125  C 34.658125000000005 1.3656250000000014  35.329375000000006 0.6875  36.157500000000006 0.6875  C 36.985625000000006 0.6875  37.65625000000001 1.3662500000000009  37.65625000000001 2.203125  C 37.65625000000001 3.0406249999999986  36.985625000000006 3.71875  36.157500000000006 3.71875  Z M 47.58562500000001 11.893749999999997  L 47.58500000000001 11.894374999999997  C 47.58500000000001 12.116249999999994  47.58500000000001 12.181874999999998  47.73500000000001 12.318749999999994  L 48.574375 13.146874999999994  L 48.574375 13.182499999999997  L 44.831875000000004 13.182499999999997  L 44.831875000000004 11.368749999999999  C 44.497576962370076 12.51050231125356  43.45830639934462 13.30116901611565  42.268750000000004 13.318750000000001  C 40.60937500000001 13.318750000000001  39.720000000000006 12.096250000000005  39.720000000000006 9.781875  C 39.720000000000006 8.665624999999999  39.720000000000006 7.442500000000003  39.755 6.068750000000001  C 39.78260385698929 5.915215787547712  39.72526492468995 5.758728284814097  39.605000000000004 5.659375000000001  L 38.78125 4.824999999999999  L 38.78125 4.789375  L 42.474375 4.789375  L 42.474375 9.402500000000003  C 42.474375 10.918125000000003  42.69375 11.92875  43.633125 11.92875  C 44.13938521765733 11.895850515999363  44.594562095170694 11.608865611313938  44.8425 11.166249999999998  L 44.842499999999994 6.113124999999993  C 44.86637444480994 5.955505885475688  44.810121151614176 5.796355943476009  44.6925 5.688749999999995  L 43.863125000000004 4.824999999999996  L 43.863125000000004 4.789374999999996  L 47.58562500000001 4.789374999999996  L 47.58562500000001 11.893749999999997  Z M 60.258125 13.182499999999997  L 60.25750000000001 13.181874999999998  C 60.25750000000001 12.909374999999997  60.307500000000005 9.433749999999996  60.307500000000005 8.634999999999998  C 60.307500000000005 7.119374999999998  60.072500000000005 6.073749999999997  59.01812500000001 6.07375  C 58.485875215543174 6.0910418469957435  57.99384037637002 6.361324316461317  57.69375 6.80125  C 57.79954328700804 7.273789312242357  57.849883117739374 7.757051687263115  57.84375 8.241249999999994  C 57.84375 9.29187499999999  57.80875 10.630624999999995  57.79375 11.969999999999992  C 57.76614614301071 12.123534212452284  57.82348507531005 12.280021715185882  57.94375 12.379374999999989  L 58.783125 13.157499999999992  L 58.783125 13.192499999999988  L 55.025625 13.192499999999988  C 55.025625 12.93999999999999  55.075624999999995 9.443749999999987  55.075624999999995 8.644999999999989  C 55.075624999999995 7.104374999999991  54.840624999999996 6.083749999999988  53.801249999999996 6.083749999999988  C 53.28874999999999 6.1024999999999885  52.82125 6.3837499999999885  52.56187499999999 6.8312499999999865  L 52.56187499999999 11.984999999999985  C 52.56187499999999 12.207499999999982  52.56187499999999 12.258124999999986  52.71187499999999 12.394374999999982  L 53.53124999999999 13.172499999999985  L 53.53124999999999 13.207499999999982  L 49.81374999999999 13.207499999999982  L 49.813749999999985 6.134374999999999  C 49.837843098984145 5.9765497798610525  49.781571227542564 5.817112810776564  49.66374999999999 5.709374999999998  L 48.83937499999999 4.825624999999999  L 48.83937499999999 4.789999999999999  L 52.5625 4.789999999999999  L 52.5625 6.588749999999997  C 52.908125 5.401249999999997  54.008125 4.603749999999998  55.23125 4.653749999999999  C 56.470000000000006 4.653749999999999  57.31 5.35125  57.664375 6.674999999999994  C 58.051071931680816 5.4592043583398855  59.18677643918217 4.638818301324164  60.4625 4.653749999999995  C 62.121874999999996 4.653749999999995  63.06125 5.891249999999996  63.06125 8.230624999999996  C 63.06125 9.347499999999997  63.026250000000005 10.620624999999997  63.01125000000001 11.959374999999994  C 62.98191933296883 12.117450429240094  63.048570413153165 12.277952111301616  63.181250000000006 12.368749999999991  L 64.000625 13.146874999999994  L 64.000625 13.182499999999997  L 60.258125 13.182499999999997  Z M 13.321875 11.671875  C 13.292544332968816 11.829950429240093  13.359195413153149 11.990452111301629  13.491875 12.081249999999997  L 14.595625 13.146874999999994  L 14.595625 13.182499999999997  L 8.994375 13.182499999999997  L 8.994375 13.146874999999994  L 10.11875 12.081249999999997  C 10.23901492468995 11.981896715185904  10.29635385698929 11.825409212452293  10.26875 11.671875  L 10.26875 4.855625  C 10.26875 4.568124999999998  10.26875 4.178750000000001  10.318750000000001 3.8456249999999983  L 6.54125 13.318750000000001  L 6.49625 13.318750000000001  L 2.5837499999999998 4.603125000000002  C 2.498125 4.38625  2.4731249999999996 4.370625  2.418125 4.224375000000002  L 2.418125 9.938749999999999  C 2.3712247587790025 10.321083264936746  2.435452043499898 10.708833798032153  2.603125 11.055625  L 4.1775 13.146875000000001  L 4.1775 13.182500000000005  L 0 13.182500000000005  L 0 13.146875000000001  L 1.5737500000000002 11.050000000000011  C 1.740081765999554 10.70479051472153  1.8042698397487902 10.319228369025119  1.75875 9.938750000000006  L 1.75875 3.6231250000000017  C 1.7847564074087525 3.3128547099830072  1.69230772742529 3.0042458313908753  1.5 2.7593749999999986  L 0.385 1.2987499999999983  L 0.385 1.2637499999999982  L 4.3825 1.2637499999999982  L 7.73 8.644999999999996  L 10.678125000000001 1.2637499999999946  L 14.590625000000001 1.2637499999999946  L 14.590625000000001 1.2987499999999947  L 13.491875000000002 2.5362499999999955  C 13.35958762296862 2.634516064077605  13.293850391858385 2.7988591418531925  13.321875 2.961249999999996  L 13.321875 11.671875  Z M 22.910624999999996 8.665624999999999  L 17.87375 8.665624999999999  L 17.87375 8.700624999999995  C 17.87375 10.863124999999997  18.978125000000002 11.731874999999995  20.2725 11.731874999999995  C 21.35723359081708 11.766889418718137  22.35887773419077 11.153422304172118  22.820625 10.171249999999993  L 22.855625 10.171249999999993  C 22.405625 12.308749999999996  21.096875 13.318749999999994  19.138125 13.318749999999994  C 17.024375 13.318749999999994  15.030624999999999 12.030624999999993  15.030624999999999 9.044374999999995  C 15.030624999999999 5.906874999999996  17.029374999999998 4.653749999999995  19.238124999999997 4.653749999999995  C 21.016874999999995 4.653749999999995  22.910624999999996 5.502499999999994  22.910624999999996 8.231249999999996  L 22.910624999999996 8.665624999999999  Z M 17.86375 8.231250000000003  L 17.87375 8.231249999999996  L 20.337500000000002 8.231249999999996  L 20.337500000000002 7.791249999999997  C 20.337500000000002 5.568124999999998  19.882500000000004 4.976875  19.198125 4.976875  C 18.368750000000002 4.976875  17.86375 5.861249999999998  17.86375 8.231250000000003  Z " fill-rule="evenodd" />
    </mask>
  </defs>
  <g>
    <path d="M 32 0.8237499999999933  L 32 11.909374999999997  C 32.325 12.131249999999994  32.325 12.181874999999998  32.475 12.318749999999994  L 33.314375 13.146874999999994  L 33.314375 13.182499999999997  L 29.59125 13.182499999999997  L 29.59125 11.590624999999996  C 29.222636507755034 12.63538802051277  28.230326248162957 13.33000520222722  27.1225 13.318749999999994  C 25.209374999999998 13.318749999999994  23.82 11.803124999999994  23.82 9.014374999999994  C 23.82 6.401874999999993  25.319375 4.658749999999994  27.423125 4.658749999999994  C 28.35935688431678 4.602153201894861  29.228259415620375 5.146190123401617  29.58625 6.013124999999995  L 29.58625 2.5012499999999953  C 29.614162929069018 2.339188095343392  29.548704976192024 2.175180899758601  29.416875 2.076874999999994  L 28.616875 1.2987499999999947  L 28.616875 1.2637499999999946  L 32 0.8237499999999933  Z M 28.396874999999998 12.045624999999994  C 28.87474253342105 12.034994016129104  29.31869044937163 11.796409761978786  29.591250000000002 11.403749999999995  L 29.591250000000002 6.164374999999993  C 29.32330347820914 5.826621407100387  28.913576682863134 5.632613228920771  28.4825 5.639374999999998  C 27.5775 5.639374999999998  26.703125 6.467499999999998  26.703125 8.928124999999994  C 26.703125 11.231874999999995  27.4575 12.045624999999994  28.396874999999998 12.045624999999994  Z M 38.511250000000004 13.1875  L 34.793125 13.182499999999997  L 34.793125 6.108749999999997  C 34.816999444809944 5.951130885475688  34.760746151614185 5.791980943476009  34.643125000000005 5.684374999999999  L 33.81875 4.825624999999999  L 33.81875 4.789999999999999  L 37.541250000000005 4.789999999999999  L 37.541250000000005 11.964999999999996  C 37.541250000000005 12.186874999999993  37.541250000000005 12.237499999999997  37.69125000000001 12.373749999999994  L 38.511250000000004 13.151874999999997  L 38.511250000000004 13.1875  Z M 36.157500000000006 3.71875  C 35.329375000000006 3.71875  34.658125000000005 3.0406249999999986  34.658125000000005 2.203125  C 34.658125000000005 1.3656250000000014  35.329375000000006 0.6875  36.157500000000006 0.6875  C 36.985625000000006 0.6875  37.65625000000001 1.3662500000000009  37.65625000000001 2.203125  C 37.65625000000001 3.0406249999999986  36.985625000000006 3.71875  36.157500000000006 3.71875  Z M 47.58562500000001 11.893749999999997  L 47.58500000000001 11.894374999999997  C 47.58500000000001 12.116249999999994  47.58500000000001 12.181874999999998  47.73500000000001 12.318749999999994  L 48.574375 13.146874999999994  L 48.574375 13.182499999999997  L 44.831875000000004 13.182499999999997  L 44.831875000000004 11.368749999999999  C 44.497576962370076 12.51050231125356  43.45830639934462 13.30116901611565  42.268750000000004 13.318750000000001  C 40.60937500000001 13.318750000000001  39.720000000000006 12.096250000000005  39.720000000000006 9.781875  C 39.720000000000006 8.665624999999999  39.720000000000006 7.442500000000003  39.755 6.068750000000001  C 39.78260385698929 5.915215787547712  39.72526492468995 5.758728284814097  39.605000000000004 5.659375000000001  L 38.78125 4.824999999999999  L 38.78125 4.789375  L 42.474375 4.789375  L 42.474375 9.402500000000003  C 42.474375 10.918125000000003  42.69375 11.92875  43.633125 11.92875  C 44.13938521765733 11.895850515999363  44.594562095170694 11.608865611313938  44.8425 11.166249999999998  L 44.842499999999994 6.113124999999993  C 44.86637444480994 5.955505885475688  44.810121151614176 5.796355943476009  44.6925 5.688749999999995  L 43.863125000000004 4.824999999999996  L 43.863125000000004 4.789374999999996  L 47.58562500000001 4.789374999999996  L 47.58562500000001 11.893749999999997  Z M 60.258125 13.182499999999997  L 60.25750000000001 13.181874999999998  C 60.25750000000001 12.909374999999997  60.307500000000005 9.433749999999996  60.307500000000005 8.634999999999998  C 60.307500000000005 7.119374999999998  60.072500000000005 6.073749999999997  59.01812500000001 6.07375  C 58.485875215543174 6.0910418469957435  57.99384037637002 6.361324316461317  57.69375 6.80125  C 57.79954328700804 7.273789312242357  57.849883117739374 7.757051687263115  57.84375 8.241249999999994  C 57.84375 9.29187499999999  57.80875 10.630624999999995  57.79375 11.969999999999992  C 57.76614614301071 12.123534212452284  57.82348507531005 12.280021715185882  57.94375 12.379374999999989  L 58.783125 13.157499999999992  L 58.783125 13.192499999999988  L 55.025625 13.192499999999988  C 55.025625 12.93999999999999  55.075624999999995 9.443749999999987  55.075624999999995 8.644999999999989  C 55.075624999999995 7.104374999999991  54.840624999999996 6.083749999999988  53.801249999999996 6.083749999999988  C 53.28874999999999 6.1024999999999885  52.82125 6.3837499999999885  52.56187499999999 6.8312499999999865  L 52.56187499999999 11.984999999999985  C 52.56187499999999 12.207499999999982  52.56187499999999 12.258124999999986  52.71187499999999 12.394374999999982  L 53.53124999999999 13.172499999999985  L 53.53124999999999 13.207499999999982  L 49.81374999999999 13.207499999999982  L 49.813749999999985 6.134374999999999  C 49.837843098984145 5.9765497798610525  49.781571227542564 5.817112810776564  49.66374999999999 5.709374999999998  L 48.83937499999999 4.825624999999999  L 48.83937499999999 4.789999999999999  L 52.5625 4.789999999999999  L 52.5625 6.588749999999997  C 52.908125 5.401249999999997  54.008125 4.603749999999998  55.23125 4.653749999999999  C 56.470000000000006 4.653749999999999  57.31 5.35125  57.664375 6.674999999999994  C 58.051071931680816 5.4592043583398855  59.18677643918217 4.638818301324164  60.4625 4.653749999999995  C 62.121874999999996 4.653749999999995  63.06125 5.891249999999996  63.06125 8.230624999999996  C 63.06125 9.347499999999997  63.026250000000005 10.620624999999997  63.01125000000001 11.959374999999994  C 62.98191933296883 12.117450429240094  63.048570413153165 12.277952111301616  63.181250000000006 12.368749999999991  L 64.000625 13.146874999999994  L 64.000625 13.182499999999997  L 60.258125 13.182499999999997  Z M 13.321875 11.671875  C 13.292544332968816 11.829950429240093  13.359195413153149 11.990452111301629  13.491875 12.081249999999997  L 14.595625 13.146874999999994  L 14.595625 13.182499999999997  L 8.994375 13.182499999999997  L 8.994375 13.146874999999994  L 10.11875 12.081249999999997  C 10.23901492468995 11.981896715185904  10.29635385698929 11.825409212452293  10.26875 11.671875  L 10.26875 4.855625  C 10.26875 4.568124999999998  10.26875 4.178750000000001  10.318750000000001 3.8456249999999983  L 6.54125 13.318750000000001  L 6.49625 13.318750000000001  L 2.5837499999999998 4.603125000000002  C 2.498125 4.38625  2.4731249999999996 4.370625  2.418125 4.224375000000002  L 2.418125 9.938749999999999  C 2.3712247587790025 10.321083264936746  2.435452043499898 10.708833798032153  2.603125 11.055625  L 4.1775 13.146875000000001  L 4.1775 13.182500000000005  L 0 13.182500000000005  L 0 13.146875000000001  L 1.5737500000000002 11.050000000000011  C 1.740081765999554 10.70479051472153  1.8042698397487902 10.319228369025119  1.75875 9.938750000000006  L 1.75875 3.6231250000000017  C 1.7847564074087525 3.3128547099830072  1.69230772742529 3.0042458313908753  1.5 2.7593749999999986  L 0.385 1.2987499999999983  L 0.385 1.2637499999999982  L 4.3825 1.2637499999999982  L 7.73 8.644999999999996  L 10.678125000000001 1.2637499999999946  L 14.590625000000001 1.2637499999999946  L 14.590625000000001 1.2987499999999947  L 13.491875000000002 2.5362499999999955  C 13.35958762296862 2.634516064077605  13.293850391858385 2.7988591418531925  13.321875 2.961249999999996  L 13.321875 11.671875  Z M 22.910624999999996 8.665624999999999  L 17.87375 8.665624999999999  L 17.87375 8.700624999999995  C 17.87375 10.863124999999997  18.978125000000002 11.731874999999995  20.2725 11.731874999999995  C 21.35723359081708 11.766889418718137  22.35887773419077 11.153422304172118  22.820625 10.171249999999993  L 22.855625 10.171249999999993  C 22.405625 12.308749999999996  21.096875 13.318749999999994  19.138125 13.318749999999994  C 17.024375 13.318749999999994  15.030624999999999 12.030624999999993  15.030624999999999 9.044374999999995  C 15.030624999999999 5.906874999999996  17.029374999999998 4.653749999999995  19.238124999999997 4.653749999999995  C 21.016874999999995 4.653749999999995  22.910624999999996 5.502499999999994  22.910624999999996 8.231249999999996  L 22.910624999999996 8.665624999999999  Z M 17.86375 8.231250000000003  L 17.87375 8.231249999999996  L 20.337500000000002 8.231249999999996  L 20.337500000000002 7.791249999999997  C 20.337500000000002 5.568124999999998  19.882500000000004 4.976875  19.198125 4.976875  C 18.368750000000002 4.976875  17.86375 5.861249999999998  17.86375 8.231250000000003  Z " fill-rule="nonzero" fill="rgba(0, 0, 0, 1)" stroke="none" class="fill" />
    <path d="M 32 0.8237499999999933  L 32 11.909374999999997  C 32.325 12.131249999999994  32.325 12.181874999999998  32.475 12.318749999999994  L 33.314375 13.146874999999994  L 33.314375 13.182499999999997  L 29.59125 13.182499999999997  L 29.59125 11.590624999999996  C 29.222636507755034 12.63538802051277  28.230326248162957 13.33000520222722  27.1225 13.318749999999994  C 25.209374999999998 13.318749999999994  23.82 11.803124999999994  23.82 9.014374999999994  C 23.82 6.401874999999993  25.319375 4.658749999999994  27.423125 4.658749999999994  C 28.35935688431678 4.602153201894861  29.228259415620375 5.146190123401617  29.58625 6.013124999999995  L 29.58625 2.5012499999999953  C 29.614162929069018 2.339188095343392  29.548704976192024 2.175180899758601  29.416875 2.076874999999994  L 28.616875 1.2987499999999947  L 28.616875 1.2637499999999946  L 32 0.8237499999999933  Z " stroke-width="0" stroke-dasharray="0" stroke="rgba(255, 255, 255, 0)" fill="none" class="stroke" mask="url(#Clip2655)" />
    <path d="M 28.396874999999998 12.045624999999994  C 28.87474253342105 12.034994016129104  29.31869044937163 11.796409761978786  29.591250000000002 11.403749999999995  L 29.591250000000002 6.164374999999993  C 29.32330347820914 5.826621407100387  28.913576682863134 5.632613228920771  28.4825 5.639374999999998  C 27.5775 5.639374999999998  26.703125 6.467499999999998  26.703125 8.928124999999994  C 26.703125 11.231874999999995  27.4575 12.045624999999994  28.396874999999998 12.045624999999994  Z " stroke-width="0" stroke-dasharray="0" stroke="rgba(255, 255, 255, 0)" fill="none" class="stroke" mask="url(#Clip2655)" />
    <path d="M 38.511250000000004 13.1875  L 34.793125 13.182499999999997  L 34.793125 6.108749999999997  C 34.816999444809944 5.951130885475688  34.760746151614185 5.791980943476009  34.643125000000005 5.684374999999999  L 33.81875 4.825624999999999  L 33.81875 4.789999999999999  L 37.541250000000005 4.789999999999999  L 37.541250000000005 11.964999999999996  C 37.541250000000005 12.186874999999993  37.541250000000005 12.237499999999997  37.69125000000001 12.373749999999994  L 38.511250000000004 13.151874999999997  L 38.511250000000004 13.1875  Z " stroke-width="0" stroke-dasharray="0" stroke="rgba(255, 255, 255, 0)" fill="none" class="stroke" mask="url(#Clip2655)" />
    <path d="M 36.157500000000006 3.71875  C 35.329375000000006 3.71875  34.658125000000005 3.0406249999999986  34.658125000000005 2.203125  C 34.658125000000005 1.3656250000000014  35.329375000000006 0.6875  36.157500000000006 0.6875  C 36.985625000000006 0.6875  37.65625000000001 1.3662500000000009  37.65625000000001 2.203125  C 37.65625000000001 3.0406249999999986  36.985625000000006 3.71875  36.157500000000006 3.71875  Z " stroke-width="0" stroke-dasharray="0" stroke="rgba(255, 255, 255, 0)" fill="none" class="stroke" mask="url(#Clip2655)" />
    <path d="M 47.58562500000001 11.893749999999997  L 47.58500000000001 11.894374999999997  C 47.58500000000001 12.116249999999994  47.58500000000001 12.181874999999998  47.73500000000001 12.318749999999994  L 48.574375 13.146874999999994  L 48.574375 13.182499999999997  L 44.831875000000004 13.182499999999997  L 44.831875000000004 11.368749999999999  C 44.497576962370076 12.51050231125356  43.45830639934462 13.30116901611565  42.268750000000004 13.318750000000001  C 40.60937500000001 13.318750000000001  39.720000000000006 12.096250000000005  39.720000000000006 9.781875  C 39.720000000000006 8.665624999999999  39.720000000000006 7.442500000000003  39.755 6.068750000000001  C 39.78260385698929 5.915215787547712  39.72526492468995 5.758728284814097  39.605000000000004 5.659375000000001  L 38.78125 4.824999999999999  L 38.78125 4.789375  L 42.474375 4.789375  L 42.474375 9.402500000000003  C 42.474375 10.918125000000003  42.69375 11.92875  43.633125 11.92875  C 44.13938521765733 11.895850515999363  44.594562095170694 11.608865611313938  44.8425 11.166249999999998  L 44.842499999999994 6.113124999999993  C 44.86637444480994 5.955505885475688  44.810121151614176 5.796355943476009  44.6925 5.688749999999995  L 43.863125000000004 4.824999999999996  L 43.863125000000004 4.789374999999996  L 47.58562500000001 4.789374999999996  L 47.58562500000001 11.893749999999997  Z " stroke-width="0" stroke-dasharray="0" stroke="rgba(255, 255, 255, 0)" fill="none" class="stroke" mask="url(#Clip2655)" />
    <path d="M 60.258125 13.182499999999997  L 60.25750000000001 13.181874999999998  C 60.25750000000001 12.909374999999997  60.307500000000005 9.433749999999996  60.307500000000005 8.634999999999998  C 60.307500000000005 7.119374999999998  60.072500000000005 6.073749999999997  59.01812500000001 6.07375  C 58.485875215543174 6.0910418469957435  57.99384037637002 6.361324316461317  57.69375 6.80125  C 57.79954328700804 7.273789312242357  57.849883117739374 7.757051687263115  57.84375 8.241249999999994  C 57.84375 9.29187499999999  57.80875 10.630624999999995  57.79375 11.969999999999992  C 57.76614614301071 12.123534212452284  57.82348507531005 12.280021715185882  57.94375 12.379374999999989  L 58.783125 13.157499999999992  L 58.783125 13.192499999999988  L 55.025625 13.192499999999988  C 55.025625 12.93999999999999  55.075624999999995 9.443749999999987  55.075624999999995 8.644999999999989  C 55.075624999999995 7.104374999999991  54.840624999999996 6.083749999999988  53.801249999999996 6.083749999999988  C 53.28874999999999 6.1024999999999885  52.82125 6.3837499999999885  52.56187499999999 6.8312499999999865  L 52.56187499999999 11.984999999999985  C 52.56187499999999 12.207499999999982  52.56187499999999 12.258124999999986  52.71187499999999 12.394374999999982  L 53.53124999999999 13.172499999999985  L 53.53124999999999 13.207499999999982  L 49.81374999999999 13.207499999999982  L 49.813749999999985 6.134374999999999  C 49.837843098984145 5.9765497798610525  49.781571227542564 5.817112810776564  49.66374999999999 5.709374999999998  L 48.83937499999999 4.825624999999999  L 48.83937499999999 4.789999999999999  L 52.5625 4.789999999999999  L 52.5625 6.588749999999997  C 52.908125 5.401249999999997  54.008125 4.603749999999998  55.23125 4.653749999999999  C 56.470000000000006 4.653749999999999  57.31 5.35125  57.664375 6.674999999999994  C 58.051071931680816 5.4592043583398855  59.18677643918217 4.638818301324164  60.4625 4.653749999999995  C 62.121874999999996 4.653749999999995  63.06125 5.891249999999996  63.06125 8.230624999999996  C 63.06125 9.347499999999997  63.026250000000005 10.620624999999997  63.01125000000001 11.959374999999994  C 62.98191933296883 12.117450429240094  63.048570413153165 12.277952111301616  63.181250000000006 12.368749999999991  L 64.000625 13.146874999999994  L 64.000625 13.182499999999997  L 60.258125 13.182499999999997  Z " stroke-width="0" stroke-dasharray="0" stroke="rgba(255, 255, 255, 0)" fill="none" class="stroke" mask="url(#Clip2655)" />
    <path d="M 13.321875 11.671875  C 13.292544332968816 11.829950429240093  13.359195413153149 11.990452111301629  13.491875 12.081249999999997  L 14.595625 13.146874999999994  L 14.595625 13.182499999999997  L 8.994375 13.182499999999997  L 8.994375 13.146874999999994  L 10.11875 12.081249999999997  C 10.23901492468995 11.981896715185904  10.29635385698929 11.825409212452293  10.26875 11.671875  L 10.26875 4.855625  C 10.26875 4.568124999999998  10.26875 4.178750000000001  10.318750000000001 3.8456249999999983  L 6.54125 13.318750000000001  L 6.49625 13.318750000000001  L 2.5837499999999998 4.603125000000002  C 2.498125 4.38625  2.4731249999999996 4.370625  2.418125 4.224375000000002  L 2.418125 9.938749999999999  C 2.3712247587790025 10.321083264936746  2.435452043499898 10.708833798032153  2.603125 11.055625  L 4.1775 13.146875000000001  L 4.1775 13.182500000000005  L 0 13.182500000000005  L 0 13.146875000000001  L 1.5737500000000002 11.050000000000011  C 1.740081765999554 10.70479051472153  1.8042698397487902 10.319228369025119  1.75875 9.938750000000006  L 1.75875 3.6231250000000017  C 1.7847564074087525 3.3128547099830072  1.69230772742529 3.0042458313908753  1.5 2.7593749999999986  L 0.385 1.2987499999999983  L 0.385 1.2637499999999982  L 4.3825 1.2637499999999982  L 7.73 8.644999999999996  L 10.678125000000001 1.2637499999999946  L 14.590625000000001 1.2637499999999946  L 14.590625000000001 1.2987499999999947  L 13.491875000000002 2.5362499999999955  C 13.35958762296862 2.634516064077605  13.293850391858385 2.7988591418531925  13.321875 2.961249999999996  L 13.321875 11.671875  Z " stroke-width="0" stroke-dasharray="0" stroke="rgba(255, 255, 255, 0)" fill="none" class="stroke" mask="url(#Clip2655)" />
    <path d="M 22.910624999999996 8.665624999999999  L 17.87375 8.665624999999999  L 17.87375 8.700624999999995  C 17.87375 10.863124999999997  18.978125000000002 11.731874999999995  20.2725 11.731874999999995  C 21.35723359081708 11.766889418718137  22.35887773419077 11.153422304172118  22.820625 10.171249999999993  L 22.855625 10.171249999999993  C 22.405625 12.308749999999996  21.096875 13.318749999999994  19.138125 13.318749999999994  C 17.024375 13.318749999999994  15.030624999999999 12.030624999999993  15.030624999999999 9.044374999999995  C 15.030624999999999 5.906874999999996  17.029374999999998 4.653749999999995  19.238124999999997 4.653749999999995  C 21.016874999999995 4.653749999999995  22.910624999999996 5.502499999999994  22.910624999999996 8.231249999999996  L 22.910624999999996 8.665624999999999  Z " stroke-width="0" stroke-dasharray="0" stroke="rgba(255, 255, 255, 0)" fill="none" class="stroke" mask="url(#Clip2655)" />
    <path d="M 17.86375 8.231250000000003  L 17.87375 8.231249999999996  L 20.337500000000002 8.231249999999996  L 20.337500000000002 7.791249999999997  C 20.337500000000002 5.568124999999998  19.882500000000004 4.976875  19.198125 4.976875  C 18.368750000000002 4.976875  17.86375 5.861249999999998  17.86375 8.231250000000003  Z " stroke-width="0" stroke-dasharray="0" stroke="rgba(255, 255, 255, 0)" fill="none" class="stroke" mask="url(#Clip2655)" />
  </g>
</svg>