<?xml version="1.0" encoding="utf-8"?>
<svg version="1.1" xmlns:xlink="http://www.w3.org/1999/xlink" width="50px" height="39px" xmlns="http://www.w3.org/2000/svg">
  <defs>
    <pattern id="BGPattern" patternUnits="userSpaceOnUse" alignment="0 0" imageRepeat="None" />
    <mask fill="white" id="Clip1105">
      <path d="M 50 4.166666666666657  C 50 1.8663194444444573  48.13368055555554 0  45.82465277777777 0  L 4.1753472222222285 0  C 1.866319444444443 0  0 1.8663194444444573  0 4.166666666666657  L 0 34.72222222222226  C 0 37.02256944444446  1.866319444444443 38.888888888888914  4.1753472222222285 38.888888888888914  L 45.82465277777777 38.888888888888914  C 48.13368055555554 38.888888888888914  50 37.02256944444446  50 34.72222222222226  L 50 4.166666666666657  Z M 4.1753472222222285 4.6875  C 4.1753472222222285 4.401041666666657  4.4097222222222285 4.166666666666657  4.696180555555557 4.166666666666657  L 45.30381944444444 4.166666666666657  C 45.59027777777777 4.166666666666657  45.82465277777777 4.401041666666657  45.82465277777777 4.6875  L 45.82465277777777 9  L 4.1753472222222285 9  L 4.1753472222222285 4.6875  Z M 45 34.201388888888914  C 45.82465277777777 34.48784722222223  45.59027777777777 34.72222222222226  45.30381944444444 34  L 4.696180555555557 34  C 4.4097222222222285 34.72222222222226  4.1753472222222285 34.48784722222223  5 34.201388888888914  L 5 19  L 45 19  L 45 34.201388888888914  Z M 15.625 25.00000000000003  C 16.19791666666667 25.00000000000003  16.666666666666657 25.46875  16.666666666666657 26.041666666666686  L 16.666666666666657 29.513888888888914  C 16.666666666666657 30.08680555555557  16.19791666666667 30.55555555555557  15.625 30.55555555555557  L 9.375 30.55555555555557  C 8.802083333333329 30.55555555555557  8.333333333333329 30.08680555555557  8.333333333333329 29.513888888888914  L 8.333333333333329 26.041666666666686  C 8.333333333333329 25.46875  8.802083333333329 25.00000000000003  9.375 25.00000000000003  L 15.625 25.00000000000003  Z M 32.29166666666667 25  C 32.86458333333334 25.00000000000003  33.33333333333333 25.46875  33.33333333333333 26.041666666666686  L 33.33333333333333 29.513888888888914  C 33.33333333333333 30.08680555555557  32.86458333333334 30.55555555555557  32.29166666666667 30  L 20.486111111111114 30  C 19.913194444444443 30.55555555555557  19.444444444444443 30.08680555555557  19.444444444444443 29.513888888888914  L 19.444444444444443 26.041666666666686  C 19.444444444444443 25.46875  19.913194444444443 25.00000000000003  20.486111111111114 25  L 32.29166666666667 25  Z " fill-rule="evenodd" />
    </mask>
  </defs>
  <g>
    <path d="M 50 4.166666666666657  C 50 1.8663194444444573  48.13368055555554 0  45.82465277777777 0  L 4.1753472222222285 0  C 1.866319444444443 0  0 1.8663194444444573  0 4.166666666666657  L 0 34.72222222222226  C 0 37.02256944444446  1.866319444444443 38.888888888888914  4.1753472222222285 38.888888888888914  L 45.82465277777777 38.888888888888914  C 48.13368055555554 38.888888888888914  50 37.02256944444446  50 34.72222222222226  L 50 4.166666666666657  Z M 4.1753472222222285 4.6875  C 4.1753472222222285 4.401041666666657  4.4097222222222285 4.166666666666657  4.696180555555557 4.166666666666657  L 45.30381944444444 4.166666666666657  C 45.59027777777777 4.166666666666657  45.82465277777777 4.401041666666657  45.82465277777777 4.6875  L 45.82465277777777 9  L 4.1753472222222285 9  L 4.1753472222222285 4.6875  Z M 45 34.201388888888914  C 45.82465277777777 34.48784722222223  45.59027777777777 34.72222222222226  45.30381944444444 34  L 4.696180555555557 34  C 4.4097222222222285 34.72222222222226  4.1753472222222285 34.48784722222223  5 34.201388888888914  L 5 19  L 45 19  L 45 34.201388888888914  Z M 15.625 25.00000000000003  C 16.19791666666667 25.00000000000003  16.666666666666657 25.46875  16.666666666666657 26.041666666666686  L 16.666666666666657 29.513888888888914  C 16.666666666666657 30.08680555555557  16.19791666666667 30.55555555555557  15.625 30.55555555555557  L 9.375 30.55555555555557  C 8.802083333333329 30.55555555555557  8.333333333333329 30.08680555555557  8.333333333333329 29.513888888888914  L 8.333333333333329 26.041666666666686  C 8.333333333333329 25.46875  8.802083333333329 25.00000000000003  9.375 25.00000000000003  L 15.625 25.00000000000003  Z M 32.29166666666667 25  C 32.86458333333334 25.00000000000003  33.33333333333333 25.46875  33.33333333333333 26.041666666666686  L 33.33333333333333 29.513888888888914  C 33.33333333333333 30.08680555555557  32.86458333333334 30.55555555555557  32.29166666666667 30  L 20.486111111111114 30  C 19.913194444444443 30.55555555555557  19.444444444444443 30.08680555555557  19.444444444444443 29.513888888888914  L 19.444444444444443 26.041666666666686  C 19.444444444444443 25.46875  19.913194444444443 25.00000000000003  20.486111111111114 25  L 32.29166666666667 25  Z " fill-rule="nonzero" fill="rgba(0, 0, 0, 1)" stroke="none" class="fill" />
    <path d="M 50 4.166666666666657  C 50 1.8663194444444573  48.13368055555554 0  45.82465277777777 0  L 4.1753472222222285 0  C 1.866319444444443 0  0 1.8663194444444573  0 4.166666666666657  L 0 34.72222222222226  C 0 37.02256944444446  1.866319444444443 38.888888888888914  4.1753472222222285 38.888888888888914  L 45.82465277777777 38.888888888888914  C 48.13368055555554 38.888888888888914  50 37.02256944444446  50 34.72222222222226  L 50 4.166666666666657  Z " stroke-width="0" stroke-dasharray="0" stroke="rgba(255, 255, 255, 0)" fill="none" class="stroke" mask="url(#Clip1105)" />
    <path d="M 4.1753472222222285 4.6875  C 4.1753472222222285 4.401041666666657  4.4097222222222285 4.166666666666657  4.696180555555557 4.166666666666657  L 45.30381944444444 4.166666666666657  C 45.59027777777777 4.166666666666657  45.82465277777777 4.401041666666657  45.82465277777777 4.6875  L 45.82465277777777 9  L 4.1753472222222285 9  L 4.1753472222222285 4.6875  Z " stroke-width="0" stroke-dasharray="0" stroke="rgba(255, 255, 255, 0)" fill="none" class="stroke" mask="url(#Clip1105)" />
    <path d="M 45 34.201388888888914  C 45.82465277777777 34.48784722222223  45.59027777777777 34.72222222222226  45.30381944444444 34  L 4.696180555555557 34  C 4.4097222222222285 34.72222222222226  4.1753472222222285 34.48784722222223  5 34.201388888888914  L 5 19  L 45 19  L 45 34.201388888888914  Z " stroke-width="0" stroke-dasharray="0" stroke="rgba(255, 255, 255, 0)" fill="none" class="stroke" mask="url(#Clip1105)" />
    <path d="M 15.625 25.00000000000003  C 16.19791666666667 25.00000000000003  16.666666666666657 25.46875  16.666666666666657 26.041666666666686  L 16.666666666666657 29.513888888888914  C 16.666666666666657 30.08680555555557  16.19791666666667 30.55555555555557  15.625 30.55555555555557  L 9.375 30.55555555555557  C 8.802083333333329 30.55555555555557  8.333333333333329 30.08680555555557  8.333333333333329 29.513888888888914  L 8.333333333333329 26.041666666666686  C 8.333333333333329 25.46875  8.802083333333329 25.00000000000003  9.375 25.00000000000003  L 15.625 25.00000000000003  Z " stroke-width="0" stroke-dasharray="0" stroke="rgba(255, 255, 255, 0)" fill="none" class="stroke" mask="url(#Clip1105)" />
    <path d="M 32.29166666666667 25  C 32.86458333333334 25.00000000000003  33.33333333333333 25.46875  33.33333333333333 26.041666666666686  L 33.33333333333333 29.513888888888914  C 33.33333333333333 30.08680555555557  32.86458333333334 30.55555555555557  32.29166666666667 30  L 20.486111111111114 30  C 19.913194444444443 30.55555555555557  19.444444444444443 30.08680555555557  19.444444444444443 29.513888888888914  L 19.444444444444443 26.041666666666686  C 19.444444444444443 25.46875  19.913194444444443 25.00000000000003  20.486111111111114 25  L 32.29166666666667 25  Z " stroke-width="0" stroke-dasharray="0" stroke="rgba(255, 255, 255, 0)" fill="none" class="stroke" mask="url(#Clip1105)" />
  </g>
</svg>