<?xml version="1.0" encoding="utf-8"?>
<svg version="1.1" xmlns:xlink="http://www.w3.org/1999/xlink" width="18px" height="18px" xmlns="http://www.w3.org/2000/svg">
  <defs>
    <pattern id="BGPattern" patternUnits="userSpaceOnUse" alignment="0 0" imageRepeat="None" />
    <mask fill="white" id="Clip5779">
      <path d="M 1.5 3  C 1.5 2.17157287525381  2.17157287525381 1.5  3 1.5  L 15 1.5  C 15.828427124746192 1.5  16.5 2.17157287525381  16.5 3  L 16.5 6.75  L 18 6.75  L 18 3  C 18 1.3431457505076194  16.65685424949238 0  15 0  L 3 0  C 1.3431457505076194 0  0 1.3431457505076194  0 3  L 0 6.75  L 1.5 6.75  L 1.5 3  Z M 1.5 15  L 1.5 11.25  L 0 11.25  L 0 15  C 0 16.65685424949238  1.3431457505076194 18  3 18  L 15 18  C 16.65685424949238 18  18 16.65685424949238  18 15  L 18 11.25  L 16.5 11.25  L 16.5 15  C 16.5 15.828427124746192  15.828427124746192 16.5  15 16.5  L 3 16.5  C 2.17157287525381 16.5  1.5 15.828427124746192  1.5 15  Z " fill-rule="evenodd" />
    </mask>
  </defs>
  <g transform="matrix(1 0 0 1 -3 0 )">
    <path d="M 1.5 3  C 1.5 2.17157287525381  2.17157287525381 1.5  3 1.5  L 15 1.5  C 15.828427124746192 1.5  16.5 2.17157287525381  16.5 3  L 16.5 6.75  L 18 6.75  L 18 3  C 18 1.3431457505076194  16.65685424949238 0  15 0  L 3 0  C 1.3431457505076194 0  0 1.3431457505076194  0 3  L 0 6.75  L 1.5 6.75  L 1.5 3  Z M 1.5 15  L 1.5 11.25  L 0 11.25  L 0 15  C 0 16.65685424949238  1.3431457505076194 18  3 18  L 15 18  C 16.65685424949238 18  18 16.65685424949238  18 15  L 18 11.25  L 16.5 11.25  L 16.5 15  C 16.5 15.828427124746192  15.828427124746192 16.5  15 16.5  L 3 16.5  C 2.17157287525381 16.5  1.5 15.828427124746192  1.5 15  Z " fill-rule="nonzero" fill="rgba(0, 0, 0, 1)" stroke="none" transform="matrix(1 0 0 1 3 0 )" class="fill" />
    <path d="M 1.5 3  C 1.5 2.17157287525381  2.17157287525381 1.5  3 1.5  L 15 1.5  C 15.828427124746192 1.5  16.5 2.17157287525381  16.5 3  L 16.5 6.75  L 18 6.75  L 18 3  C 18 1.3431457505076194  16.65685424949238 0  15 0  L 3 0  C 1.3431457505076194 0  0 1.3431457505076194  0 3  L 0 6.75  L 1.5 6.75  L 1.5 3  Z " stroke-width="0" stroke-dasharray="0" stroke="rgba(255, 255, 255, 0)" fill="none" transform="matrix(1 0 0 1 3 0 )" class="stroke" mask="url(#Clip5779)" />
    <path d="M 1.5 15  L 1.5 11.25  L 0 11.25  L 0 15  C 0 16.65685424949238  1.3431457505076194 18  3 18  L 15 18  C 16.65685424949238 18  18 16.65685424949238  18 15  L 18 11.25  L 16.5 11.25  L 16.5 15  C 16.5 15.828427124746192  15.828427124746192 16.5  15 16.5  L 3 16.5  C 2.17157287525381 16.5  1.5 15.828427124746192  1.5 15  Z " stroke-width="0" stroke-dasharray="0" stroke="rgba(255, 255, 255, 0)" fill="none" transform="matrix(1 0 0 1 3 0 )" class="stroke" mask="url(#Clip5779)" />
  </g>
</svg>