<?xml version="1.0" encoding="utf-8"?>
<svg version="1.1" xmlns:xlink="http://www.w3.org/1999/xlink" width="23px" height="21px" xmlns="http://www.w3.org/2000/svg">
  <defs>
    <pattern id="BGPattern" patternUnits="userSpaceOnUse" alignment="0 0" imageRepeat="None" />
    <mask fill="white" id="Clip5056">
      <path d="M 0.75 1.5  C 0.3357864376269049 1.5  0 1.164213562373095  0 0.75  C 0 0.3357864376269051  0.3357864376269049 0  0.75 0  L 3 0  C 3.3442278510810937 9.509599057722085E-05  3.6441968699951244 0.23450387571927364  3.7275000000000005 0.5685000000000002  L 4.335 3  L 21.75 3  C 22.16413264011927 3.0001143999248043  22.499792820145004 3.335867315464163  22.499792820145004 3.749999971384338  C 22.499792820145004 3.8111828007755317  22.49230624704705 3.872135754357581  22.4775 3.9315000000000007  L 20.2275 12.9315  C 20.144196869995127 13.26549612428073  19.844227851081094 13.499904904009423  19.5 13.500000000000002  L 6 13.500000000000002  C 5.655772148918906 13.499904904009423  5.355803130004874 13.265496124280727  5.2725 12.9315  L 2.415 1.5  L 0.75 1.5  Z M 7.5 21  C 5.84314575050762 21  4.5 19.65685424949238  4.5 18  C 4.5 16.34314575050762  5.84314575050762 15  7.5 15  C 9.15685424949238 15  10.5 16.34314575050762  10.5 18  C 10.5 19.65685424949238  9.15685424949238 21  7.5 21  Z M 18 21  C 16.34314575050762 21  15 19.65685424949238  15 18  C 15 16.34314575050762  16.34314575050762 15  18 15  C 19.65685424949238 15  21 16.34314575050762  21 18  C 21 19.65685424949238  19.65685424949238 21  18 21  Z M 7.5 4.5  L 4.71 4.5  L 5.46 7.5  L 7.5 7.5  L 7.5 4.5  Z M 12 4.5  L 9 4.5  L 9 7.5  L 12 7.5  L 12 4.5  Z M 16.5 4.5  L 13.500000000000002 4.5  L 13.500000000000002 7.5  L 16.5 7.5  L 16.5 4.5  Z M 20.79 4.5  L 18 4.5  L 18 7.5  L 20.04 7.5  L 20.79 4.5  Z M 18.915 12  L 19.665 9  L 18 9  L 18 12  L 18.915 12  Z M 16.5 12  L 16.5 9  L 13.500000000000002 9  L 13.500000000000002 12  L 16.5 12  Z M 12 12  L 12 9  L 9 9  L 9 12  L 12 12  Z M 7.5 12  L 7.5 9  L 5.835 9  L 6.585000000000001 12  L 7.5 12  Z M 9 18  C 9 17.17157287525381  8.32842712474619 16.5  7.5 16.5  C 6.671572875253811 16.5  6 17.17157287525381  6 18  C 6 18.82842712474619  6.671572875253811 19.5  7.5 19.5  C 8.32842712474619 19.5  9 18.82842712474619  9 18  Z M 19.5 18  C 19.5 17.17157287525381  18.82842712474619 16.5  18 16.5  C 17.17157287525381 16.5  16.5 17.17157287525381  16.5 18  C 16.5 18.82842712474619  17.17157287525381 19.5  18 19.5  C 18.82842712474619 19.5  19.5 18.82842712474619  19.5 18  Z " fill-rule="evenodd" />
    </mask>
  </defs>
  <g>
    <path d="M 0.75 1.5  C 0.3357864376269049 1.5  0 1.164213562373095  0 0.75  C 0 0.3357864376269051  0.3357864376269049 0  0.75 0  L 3 0  C 3.3442278510810937 9.509599057722085E-05  3.6441968699951244 0.23450387571927364  3.7275000000000005 0.5685000000000002  L 4.335 3  L 21.75 3  C 22.16413264011927 3.0001143999248043  22.499792820145004 3.335867315464163  22.499792820145004 3.749999971384338  C 22.499792820145004 3.8111828007755317  22.49230624704705 3.872135754357581  22.4775 3.9315000000000007  L 20.2275 12.9315  C 20.144196869995127 13.26549612428073  19.844227851081094 13.499904904009423  19.5 13.500000000000002  L 6 13.500000000000002  C 5.655772148918906 13.499904904009423  5.355803130004874 13.265496124280727  5.2725 12.9315  L 2.415 1.5  L 0.75 1.5  Z M 7.5 21  C 5.84314575050762 21  4.5 19.65685424949238  4.5 18  C 4.5 16.34314575050762  5.84314575050762 15  7.5 15  C 9.15685424949238 15  10.5 16.34314575050762  10.5 18  C 10.5 19.65685424949238  9.15685424949238 21  7.5 21  Z M 18 21  C 16.34314575050762 21  15 19.65685424949238  15 18  C 15 16.34314575050762  16.34314575050762 15  18 15  C 19.65685424949238 15  21 16.34314575050762  21 18  C 21 19.65685424949238  19.65685424949238 21  18 21  Z M 7.5 4.5  L 4.71 4.5  L 5.46 7.5  L 7.5 7.5  L 7.5 4.5  Z M 12 4.5  L 9 4.5  L 9 7.5  L 12 7.5  L 12 4.5  Z M 16.5 4.5  L 13.500000000000002 4.5  L 13.500000000000002 7.5  L 16.5 7.5  L 16.5 4.5  Z M 20.79 4.5  L 18 4.5  L 18 7.5  L 20.04 7.5  L 20.79 4.5  Z M 18.915 12  L 19.665 9  L 18 9  L 18 12  L 18.915 12  Z M 16.5 12  L 16.5 9  L 13.500000000000002 9  L 13.500000000000002 12  L 16.5 12  Z M 12 12  L 12 9  L 9 9  L 9 12  L 12 12  Z M 7.5 12  L 7.5 9  L 5.835 9  L 6.585000000000001 12  L 7.5 12  Z M 9 18  C 9 17.17157287525381  8.32842712474619 16.5  7.5 16.5  C 6.671572875253811 16.5  6 17.17157287525381  6 18  C 6 18.82842712474619  6.671572875253811 19.5  7.5 19.5  C 8.32842712474619 19.5  9 18.82842712474619  9 18  Z M 19.5 18  C 19.5 17.17157287525381  18.82842712474619 16.5  18 16.5  C 17.17157287525381 16.5  16.5 17.17157287525381  16.5 18  C 16.5 18.82842712474619  17.17157287525381 19.5  18 19.5  C 18.82842712474619 19.5  19.5 18.82842712474619  19.5 18  Z " fill-rule="nonzero" fill="rgba(0, 0, 0, 1)" stroke="none" class="fill" />
    <path d="M 0.75 1.5  C 0.3357864376269049 1.5  0 1.164213562373095  0 0.75  C 0 0.3357864376269051  0.3357864376269049 0  0.75 0  L 3 0  C 3.3442278510810937 9.509599057722085E-05  3.6441968699951244 0.23450387571927364  3.7275000000000005 0.5685000000000002  L 4.335 3  L 21.75 3  C 22.16413264011927 3.0001143999248043  22.499792820145004 3.335867315464163  22.499792820145004 3.749999971384338  C 22.499792820145004 3.8111828007755317  22.49230624704705 3.872135754357581  22.4775 3.9315000000000007  L 20.2275 12.9315  C 20.144196869995127 13.26549612428073  19.844227851081094 13.499904904009423  19.5 13.500000000000002  L 6 13.500000000000002  C 5.655772148918906 13.499904904009423  5.355803130004874 13.265496124280727  5.2725 12.9315  L 2.415 1.5  L 0.75 1.5  Z " stroke-width="0" stroke-dasharray="0" stroke="rgba(255, 255, 255, 0)" fill="none" class="stroke" mask="url(#Clip5056)" />
    <path d="M 7.5 21  C 5.84314575050762 21  4.5 19.65685424949238  4.5 18  C 4.5 16.34314575050762  5.84314575050762 15  7.5 15  C 9.15685424949238 15  10.5 16.34314575050762  10.5 18  C 10.5 19.65685424949238  9.15685424949238 21  7.5 21  Z " stroke-width="0" stroke-dasharray="0" stroke="rgba(255, 255, 255, 0)" fill="none" class="stroke" mask="url(#Clip5056)" />
    <path d="M 18 21  C 16.34314575050762 21  15 19.65685424949238  15 18  C 15 16.34314575050762  16.34314575050762 15  18 15  C 19.65685424949238 15  21 16.34314575050762  21 18  C 21 19.65685424949238  19.65685424949238 21  18 21  Z " stroke-width="0" stroke-dasharray="0" stroke="rgba(255, 255, 255, 0)" fill="none" class="stroke" mask="url(#Clip5056)" />
    <path d="M 7.5 4.5  L 4.71 4.5  L 5.46 7.5  L 7.5 7.5  L 7.5 4.5  Z " stroke-width="0" stroke-dasharray="0" stroke="rgba(255, 255, 255, 0)" fill="none" class="stroke" mask="url(#Clip5056)" />
    <path d="M 12 4.5  L 9 4.5  L 9 7.5  L 12 7.5  L 12 4.5  Z " stroke-width="0" stroke-dasharray="0" stroke="rgba(255, 255, 255, 0)" fill="none" class="stroke" mask="url(#Clip5056)" />
    <path d="M 16.5 4.5  L 13.500000000000002 4.5  L 13.500000000000002 7.5  L 16.5 7.5  L 16.5 4.5  Z " stroke-width="0" stroke-dasharray="0" stroke="rgba(255, 255, 255, 0)" fill="none" class="stroke" mask="url(#Clip5056)" />
    <path d="M 20.79 4.5  L 18 4.5  L 18 7.5  L 20.04 7.5  L 20.79 4.5  Z " stroke-width="0" stroke-dasharray="0" stroke="rgba(255, 255, 255, 0)" fill="none" class="stroke" mask="url(#Clip5056)" />
    <path d="M 18.915 12  L 19.665 9  L 18 9  L 18 12  L 18.915 12  Z " stroke-width="0" stroke-dasharray="0" stroke="rgba(255, 255, 255, 0)" fill="none" class="stroke" mask="url(#Clip5056)" />
    <path d="M 16.5 12  L 16.5 9  L 13.500000000000002 9  L 13.500000000000002 12  L 16.5 12  Z " stroke-width="0" stroke-dasharray="0" stroke="rgba(255, 255, 255, 0)" fill="none" class="stroke" mask="url(#Clip5056)" />
    <path d="M 12 12  L 12 9  L 9 9  L 9 12  L 12 12  Z " stroke-width="0" stroke-dasharray="0" stroke="rgba(255, 255, 255, 0)" fill="none" class="stroke" mask="url(#Clip5056)" />
    <path d="M 7.5 12  L 7.5 9  L 5.835 9  L 6.585000000000001 12  L 7.5 12  Z " stroke-width="0" stroke-dasharray="0" stroke="rgba(255, 255, 255, 0)" fill="none" class="stroke" mask="url(#Clip5056)" />
    <path d="M 9 18  C 9 17.17157287525381  8.32842712474619 16.5  7.5 16.5  C 6.671572875253811 16.5  6 17.17157287525381  6 18  C 6 18.82842712474619  6.671572875253811 19.5  7.5 19.5  C 8.32842712474619 19.5  9 18.82842712474619  9 18  Z " stroke-width="0" stroke-dasharray="0" stroke="rgba(255, 255, 255, 0)" fill="none" class="stroke" mask="url(#Clip5056)" />
    <path d="M 19.5 18  C 19.5 17.17157287525381  18.82842712474619 16.5  18 16.5  C 17.17157287525381 16.5  16.5 17.17157287525381  16.5 18  C 16.5 18.82842712474619  17.17157287525381 19.5  18 19.5  C 18.82842712474619 19.5  19.5 18.82842712474619  19.5 18  Z " stroke-width="0" stroke-dasharray="0" stroke="rgba(255, 255, 255, 0)" fill="none" class="stroke" mask="url(#Clip5056)" />
  </g>
</svg>