<?xml version="1.0" encoding="utf-8"?>
<svg version="1.1" xmlns:xlink="http://www.w3.org/1999/xlink" width="14px" height="5px" xmlns="http://www.w3.org/2000/svg">
  <defs>
    <pattern id="BGPattern" patternUnits="userSpaceOnUse" alignment="0 0" imageRepeat="None" />
    <mask fill="white" id="Clip3285">
      <path d="M 14 3  L 14 2  L 11.9 2  C 11.700000000000001 0.8999999999999999  10.700000000000001 0  9.5 0  C 8.299999999999999 0  7.300000000000001 0.8999999999999999  7.1 2  L 0 2  L 0 3  L 7.1 3  C 7.299999999999999 4.1  8.299999999999999 5  9.5 5  C 10.700000000000001 5  11.7 4.1  11.9 3  L 14 3  Z M 11 2.5  C 11 3.3  10.3 4  9.5 4  C 8.7 4  8 3.3  8 2.5  C 8 1.7000000000000002  8.7 1  9.5 1  C 10.3 1  11 1.7000000000000002  11 2.5  Z " fill-rule="evenodd" />
    </mask>
  </defs>
  <g>
    <path d="M 14 3  L 14 2  L 11.9 2  C 11.700000000000001 0.8999999999999999  10.700000000000001 0  9.5 0  C 8.299999999999999 0  7.300000000000001 0.8999999999999999  7.1 2  L 0 2  L 0 3  L 7.1 3  C 7.299999999999999 4.1  8.299999999999999 5  9.5 5  C 10.700000000000001 5  11.7 4.1  11.9 3  L 14 3  Z M 11 2.5  C 11 3.3  10.3 4  9.5 4  C 8.7 4  8 3.3  8 2.5  C 8 1.7000000000000002  8.7 1  9.5 1  C 10.3 1  11 1.7000000000000002  11 2.5  Z " fill-rule="nonzero" fill="rgba(0, 0, 0, 1)" stroke="none" class="fill" />
    <path d="M 14 3  L 14 2  L 11.9 2  C 11.700000000000001 0.8999999999999999  10.700000000000001 0  9.5 0  C 8.299999999999999 0  7.300000000000001 0.8999999999999999  7.1 2  L 0 2  L 0 3  L 7.1 3  C 7.299999999999999 4.1  8.299999999999999 5  9.5 5  C 10.700000000000001 5  11.7 4.1  11.9 3  L 14 3  Z " stroke-width="0" stroke-dasharray="0" stroke="rgba(255, 255, 255, 0)" fill="none" class="stroke" mask="url(#Clip3285)" />
    <path d="M 11 2.5  C 11 3.3  10.3 4  9.5 4  C 8.7 4  8 3.3  8 2.5  C 8 1.7000000000000002  8.7 1  9.5 1  C 10.3 1  11 1.7000000000000002  11 2.5  Z " stroke-width="0" stroke-dasharray="0" stroke="rgba(255, 255, 255, 0)" fill="none" class="stroke" mask="url(#Clip3285)" />
  </g>
</svg>