<?xml version="1.0" encoding="utf-8"?>
<svg version="1.1" xmlns:xlink="http://www.w3.org/1999/xlink" width="48px" height="48px" xmlns="http://www.w3.org/2000/svg">
  <defs>
    <pattern id="BGPattern" patternUnits="userSpaceOnUse" alignment="0 0" imageRepeat="None" />
    <mask fill="white" id="Clip7451">
      <path d="M 24 0  C 37.256 0  48 10.744  48 24  C 48 37.256  37.256 48  24 48  C 10.744 48  0 37.256  0 24  C 0 10.744  10.744 0  24 0  Z M 38.833999999999996 11.65  C 38.769999999999996 9.902000000000001  36.92999999999999 8.802  34.494 8.878  C 32.054 8.962  29.928000000000004 10.308  28.344 12.166  C 26.588 14.206  25.422 16.624000000000002  24.582 19.088  C 23.076 17.86  21.918 16.26  19.504 15.566000000000003  C 17.572000000000003 14.972000000000001  15.474 15.356000000000002  13.878 16.594  C 13.058 17.232000000000003  12.458 18.108  12.156000000000002 19.102  C 11.436 21.454  12.918 23.552  13.594000000000001 24.302  L 15.068000000000001 25.881999999999998  C 15.368000000000002 26.189999999999998  16.106 27.001999999999995  15.746000000000002 28.157999999999998  C 15.360000000000003 29.42  13.844000000000001 30.232  12.282 29.755999999999993  C 11.586000000000002 29.543999999999997  10.586000000000002 29.023999999999994  10.814000000000002 28.295999999999996  C 10.904000000000002 27.995999999999995  11.118000000000002 27.769999999999996  11.234000000000002 27.513999999999996  C 11.338000000000001 27.293999999999997  11.388000000000002 27.125999999999994  11.424000000000001 27.029999999999994  C 11.706000000000001 26.099999999999994  11.318000000000001 24.889999999999993  10.322000000000001 24.583999999999996  C 9.392000000000001 24.29799999999999  8.444 24.523999999999994  8.072000000000001 25.715999999999994  C 7.654 27.075999999999993  8.306000000000001 29.541999999999994  11.792000000000002 30.613999999999994  C 15.872000000000003 31.869999999999994  19.322000000000003 29.645999999999994  19.810000000000002 26.749999999999993  C 20.116000000000003 24.935999999999993  19.3 23.58599999999999  17.798000000000002 21.855999999999995  L 16.574 20.501999999999995  C 15.832 19.761999999999997  15.580000000000002 18.497999999999994  16.346 17.531999999999996  C 16.994 16.713999999999995  17.916 16.363999999999997  19.424 16.773999999999997  C 21.63 17.374  22.612 18.9  24.247999999999998 20.133999999999997  C 23.572 22.353999999999996  23.127999999999997 24.58  22.729999999999997 26.577999999999996  L 22.483999999999998 28.069999999999997  C 21.314 34.209999999999994  20.418 37.583999999999996  18.095999999999997 39.522  C 17.627999999999997 39.854  16.955999999999996 40.354  15.949999999999996 40.39  C 15.417999999999996 40.4  15.245999999999995 40.038000000000004  15.239999999999995 39.876  C 15.227999999999994 39.507999999999996  15.539999999999996 39.333999999999996  15.749999999999995 39.169999999999995  C 16.057999999999996 39.004  16.529999999999994 38.721999999999994  16.493999999999996 37.821999999999996  C 16.461999999999996 36.757999999999996  15.581999999999994 35.833999999999996  14.305999999999997 35.876  C 13.351999999999995 35.91  11.899999999999995 36.806  11.953999999999995 38.448  C 12.009999999999994 40.148  13.591999999999995 41.418  15.977999999999994 41.336  C 17.253999999999994 41.294  20.101999999999993 40.774  22.905999999999995 37.437999999999995  C 26.171999999999997 33.61599999999999  27.08599999999999 29.235999999999997  27.773999999999994 26.025999999999996  L 28.539999999999992 21.793999999999997  C 28.965999999999987 21.841999999999995  29.42199999999999 21.877999999999997  29.919999999999995 21.889999999999997  C 33.983999999999995 21.977999999999998  36.017999999999994 19.869999999999997  36.04799999999999 18.337999999999997  C 36.06799999999999 17.409999999999997  35.43999999999999 16.496  34.55999999999999 16.517999999999997  C 33.78799999999999 16.535999999999998  33.12399999999999 17.073999999999998  32.947999999999986 17.825999999999997  C 32.759999999999984 18.682  34.23999999999999 19.451999999999998  33.08399999999999 20.203999999999997  C 32.26399999999999 20.735999999999997  30.791999999999987 21.107999999999997  28.715999999999987 20.804  L 29.091999999999988 18.72  C 29.86399999999999 14.767999999999999  30.809999999999988 9.905999999999999  34.41399999999999 9.786  C 34.67799999999999 9.772  35.637999999999984 9.798  35.65999999999999 10.432  C 35.66599999999999 10.642000000000001  35.61599999999999 10.700000000000001  35.36599999999999 11.182  C 35.135999999999996 11.492  35.017999999999994 11.872  35.029999999999994 12.256  C 35.06399999999999 13.264  35.82999999999999 13.928  36.943999999999996 13.888  C 38.42999999999999 13.841999999999999  38.85399999999999 12.392  38.833999999999996 11.65  Z " fill-rule="evenodd" />
    </mask>
  </defs>
  <g>
    <path d="M 24 0  C 37.256 0  48 10.744  48 24  C 48 37.256  37.256 48  24 48  C 10.744 48  0 37.256  0 24  C 0 10.744  10.744 0  24 0  Z M 38.833999999999996 11.65  C 38.769999999999996 9.902000000000001  36.92999999999999 8.802  34.494 8.878  C 32.054 8.962  29.928000000000004 10.308  28.344 12.166  C 26.588 14.206  25.422 16.624000000000002  24.582 19.088  C 23.076 17.86  21.918 16.26  19.504 15.566000000000003  C 17.572000000000003 14.972000000000001  15.474 15.356000000000002  13.878 16.594  C 13.058 17.232000000000003  12.458 18.108  12.156000000000002 19.102  C 11.436 21.454  12.918 23.552  13.594000000000001 24.302  L 15.068000000000001 25.881999999999998  C 15.368000000000002 26.189999999999998  16.106 27.001999999999995  15.746000000000002 28.157999999999998  C 15.360000000000003 29.42  13.844000000000001 30.232  12.282 29.755999999999993  C 11.586000000000002 29.543999999999997  10.586000000000002 29.023999999999994  10.814000000000002 28.295999999999996  C 10.904000000000002 27.995999999999995  11.118000000000002 27.769999999999996  11.234000000000002 27.513999999999996  C 11.338000000000001 27.293999999999997  11.388000000000002 27.125999999999994  11.424000000000001 27.029999999999994  C 11.706000000000001 26.099999999999994  11.318000000000001 24.889999999999993  10.322000000000001 24.583999999999996  C 9.392000000000001 24.29799999999999  8.444 24.523999999999994  8.072000000000001 25.715999999999994  C 7.654 27.075999999999993  8.306000000000001 29.541999999999994  11.792000000000002 30.613999999999994  C 15.872000000000003 31.869999999999994  19.322000000000003 29.645999999999994  19.810000000000002 26.749999999999993  C 20.116000000000003 24.935999999999993  19.3 23.58599999999999  17.798000000000002 21.855999999999995  L 16.574 20.501999999999995  C 15.832 19.761999999999997  15.580000000000002 18.497999999999994  16.346 17.531999999999996  C 16.994 16.713999999999995  17.916 16.363999999999997  19.424 16.773999999999997  C 21.63 17.374  22.612 18.9  24.247999999999998 20.133999999999997  C 23.572 22.353999999999996  23.127999999999997 24.58  22.729999999999997 26.577999999999996  L 22.483999999999998 28.069999999999997  C 21.314 34.209999999999994  20.418 37.583999999999996  18.095999999999997 39.522  C 17.627999999999997 39.854  16.955999999999996 40.354  15.949999999999996 40.39  C 15.417999999999996 40.4  15.245999999999995 40.038000000000004  15.239999999999995 39.876  C 15.227999999999994 39.507999999999996  15.539999999999996 39.333999999999996  15.749999999999995 39.169999999999995  C 16.057999999999996 39.004  16.529999999999994 38.721999999999994  16.493999999999996 37.821999999999996  C 16.461999999999996 36.757999999999996  15.581999999999994 35.833999999999996  14.305999999999997 35.876  C 13.351999999999995 35.91  11.899999999999995 36.806  11.953999999999995 38.448  C 12.009999999999994 40.148  13.591999999999995 41.418  15.977999999999994 41.336  C 17.253999999999994 41.294  20.101999999999993 40.774  22.905999999999995 37.437999999999995  C 26.171999999999997 33.61599999999999  27.08599999999999 29.235999999999997  27.773999999999994 26.025999999999996  L 28.539999999999992 21.793999999999997  C 28.965999999999987 21.841999999999995  29.42199999999999 21.877999999999997  29.919999999999995 21.889999999999997  C 33.983999999999995 21.977999999999998  36.017999999999994 19.869999999999997  36.04799999999999 18.337999999999997  C 36.06799999999999 17.409999999999997  35.43999999999999 16.496  34.55999999999999 16.517999999999997  C 33.78799999999999 16.535999999999998  33.12399999999999 17.073999999999998  32.947999999999986 17.825999999999997  C 32.759999999999984 18.682  34.23999999999999 19.451999999999998  33.08399999999999 20.203999999999997  C 32.26399999999999 20.735999999999997  30.791999999999987 21.107999999999997  28.715999999999987 20.804  L 29.091999999999988 18.72  C 29.86399999999999 14.767999999999999  30.809999999999988 9.905999999999999  34.41399999999999 9.786  C 34.67799999999999 9.772  35.637999999999984 9.798  35.65999999999999 10.432  C 35.66599999999999 10.642000000000001  35.61599999999999 10.700000000000001  35.36599999999999 11.182  C 35.135999999999996 11.492  35.017999999999994 11.872  35.029999999999994 12.256  C 35.06399999999999 13.264  35.82999999999999 13.928  36.943999999999996 13.888  C 38.42999999999999 13.841999999999999  38.85399999999999 12.392  38.833999999999996 11.65  Z " fill-rule="nonzero" fill="rgba(0, 0, 0, 1)" stroke="none" class="fill" />
    <path d="M 24 0  C 37.256 0  48 10.744  48 24  C 48 37.256  37.256 48  24 48  C 10.744 48  0 37.256  0 24  C 0 10.744  10.744 0  24 0  Z " stroke-width="0" stroke-dasharray="0" stroke="rgba(255, 255, 255, 0)" fill="none" class="stroke" mask="url(#Clip7451)" />
    <path d="M 38.833999999999996 11.65  C 38.769999999999996 9.902000000000001  36.92999999999999 8.802  34.494 8.878  C 32.054 8.962  29.928000000000004 10.308  28.344 12.166  C 26.588 14.206  25.422 16.624000000000002  24.582 19.088  C 23.076 17.86  21.918 16.26  19.504 15.566000000000003  C 17.572000000000003 14.972000000000001  15.474 15.356000000000002  13.878 16.594  C 13.058 17.232000000000003  12.458 18.108  12.156000000000002 19.102  C 11.436 21.454  12.918 23.552  13.594000000000001 24.302  L 15.068000000000001 25.881999999999998  C 15.368000000000002 26.189999999999998  16.106 27.001999999999995  15.746000000000002 28.157999999999998  C 15.360000000000003 29.42  13.844000000000001 30.232  12.282 29.755999999999993  C 11.586000000000002 29.543999999999997  10.586000000000002 29.023999999999994  10.814000000000002 28.295999999999996  C 10.904000000000002 27.995999999999995  11.118000000000002 27.769999999999996  11.234000000000002 27.513999999999996  C 11.338000000000001 27.293999999999997  11.388000000000002 27.125999999999994  11.424000000000001 27.029999999999994  C 11.706000000000001 26.099999999999994  11.318000000000001 24.889999999999993  10.322000000000001 24.583999999999996  C 9.392000000000001 24.29799999999999  8.444 24.523999999999994  8.072000000000001 25.715999999999994  C 7.654 27.075999999999993  8.306000000000001 29.541999999999994  11.792000000000002 30.613999999999994  C 15.872000000000003 31.869999999999994  19.322000000000003 29.645999999999994  19.810000000000002 26.749999999999993  C 20.116000000000003 24.935999999999993  19.3 23.58599999999999  17.798000000000002 21.855999999999995  L 16.574 20.501999999999995  C 15.832 19.761999999999997  15.580000000000002 18.497999999999994  16.346 17.531999999999996  C 16.994 16.713999999999995  17.916 16.363999999999997  19.424 16.773999999999997  C 21.63 17.374  22.612 18.9  24.247999999999998 20.133999999999997  C 23.572 22.353999999999996  23.127999999999997 24.58  22.729999999999997 26.577999999999996  L 22.483999999999998 28.069999999999997  C 21.314 34.209999999999994  20.418 37.583999999999996  18.095999999999997 39.522  C 17.627999999999997 39.854  16.955999999999996 40.354  15.949999999999996 40.39  C 15.417999999999996 40.4  15.245999999999995 40.038000000000004  15.239999999999995 39.876  C 15.227999999999994 39.507999999999996  15.539999999999996 39.333999999999996  15.749999999999995 39.169999999999995  C 16.057999999999996 39.004  16.529999999999994 38.721999999999994  16.493999999999996 37.821999999999996  C 16.461999999999996 36.757999999999996  15.581999999999994 35.833999999999996  14.305999999999997 35.876  C 13.351999999999995 35.91  11.899999999999995 36.806  11.953999999999995 38.448  C 12.009999999999994 40.148  13.591999999999995 41.418  15.977999999999994 41.336  C 17.253999999999994 41.294  20.101999999999993 40.774  22.905999999999995 37.437999999999995  C 26.171999999999997 33.61599999999999  27.08599999999999 29.235999999999997  27.773999999999994 26.025999999999996  L 28.539999999999992 21.793999999999997  C 28.965999999999987 21.841999999999995  29.42199999999999 21.877999999999997  29.919999999999995 21.889999999999997  C 33.983999999999995 21.977999999999998  36.017999999999994 19.869999999999997  36.04799999999999 18.337999999999997  C 36.06799999999999 17.409999999999997  35.43999999999999 16.496  34.55999999999999 16.517999999999997  C 33.78799999999999 16.535999999999998  33.12399999999999 17.073999999999998  32.947999999999986 17.825999999999997  C 32.759999999999984 18.682  34.23999999999999 19.451999999999998  33.08399999999999 20.203999999999997  C 32.26399999999999 20.735999999999997  30.791999999999987 21.107999999999997  28.715999999999987 20.804  L 29.091999999999988 18.72  C 29.86399999999999 14.767999999999999  30.809999999999988 9.905999999999999  34.41399999999999 9.786  C 34.67799999999999 9.772  35.637999999999984 9.798  35.65999999999999 10.432  C 35.66599999999999 10.642000000000001  35.61599999999999 10.700000000000001  35.36599999999999 11.182  C 35.135999999999996 11.492  35.017999999999994 11.872  35.029999999999994 12.256  C 35.06399999999999 13.264  35.82999999999999 13.928  36.943999999999996 13.888  C 38.42999999999999 13.841999999999999  38.85399999999999 12.392  38.833999999999996 11.65  Z " stroke-width="0" stroke-dasharray="0" stroke="rgba(255, 255, 255, 0)" fill="none" class="stroke" mask="url(#Clip7451)" />
  </g>
</svg>