<?xml version="1.0" encoding="utf-8"?>
<svg version="1.1" xmlns:xlink="http://www.w3.org/1999/xlink" width="24px" height="18px" xmlns="http://www.w3.org/2000/svg">
  <defs>
    <pattern id="BGPattern" patternUnits="userSpaceOnUse" alignment="0 0" imageRepeat="None" />
    <mask fill="white" id="Clip4319">
      <path d="M 24 0  L 0 0  L 0 2  L 4 2  L 4 10  C 4 14.418277998646346  7.581722001353652 18  12 18  C 16.418277998646346 18  20 14.418277998646346  20 10  L 20 2  L 24 2  L 24 0  Z M 18 2  L 18 9.999999999999998  C 18 13.31370849898476  15.31370849898476 16  12 16  C 8.686291501015237 16  6 13.31370849898476  6 10  L 6 2  L 11 2  L 11 10  L 13 10  L 13 2  L 18 2  Z " fill-rule="evenodd" />
    </mask>
  </defs>
  <g transform="matrix(1 0 0 1 -4 -4 )">
    <path d="M 24 0  L 0 0  L 0 2  L 4 2  L 4 10  C 4 14.418277998646346  7.581722001353652 18  12 18  C 16.418277998646346 18  20 14.418277998646346  20 10  L 20 2  L 24 2  L 24 0  Z M 18 2  L 18 9.999999999999998  C 18 13.31370849898476  15.31370849898476 16  12 16  C 8.686291501015237 16  6 13.31370849898476  6 10  L 6 2  L 11 2  L 11 10  L 13 10  L 13 2  L 18 2  Z " fill-rule="nonzero" fill="rgba(0, 0, 0, 1)" stroke="none" transform="matrix(1 0 0 1 4 4 )" class="fill" />
    <path d="M 24 0  L 0 0  L 0 2  L 4 2  L 4 10  C 4 14.418277998646346  7.581722001353652 18  12 18  C 16.418277998646346 18  20 14.418277998646346  20 10  L 20 2  L 24 2  L 24 0  Z " stroke-width="0" stroke-dasharray="0" stroke="rgba(255, 255, 255, 0)" fill="none" transform="matrix(1 0 0 1 4 4 )" class="stroke" mask="url(#Clip4319)" />
    <path d="M 18 2  L 18 9.999999999999998  C 18 13.31370849898476  15.31370849898476 16  12 16  C 8.686291501015237 16  6 13.31370849898476  6 10  L 6 2  L 11 2  L 11 10  L 13 10  L 13 2  L 18 2  Z " stroke-width="0" stroke-dasharray="0" stroke="rgba(255, 255, 255, 0)" fill="none" transform="matrix(1 0 0 1 4 4 )" class="stroke" mask="url(#Clip4319)" />
  </g>
</svg>