<?xml version="1.0" encoding="utf-8"?>
<svg version="1.1" xmlns:xlink="http://www.w3.org/1999/xlink" width="50px" height="50px" xmlns="http://www.w3.org/2000/svg">
  <defs>
    <pattern id="BGPattern" patternUnits="userSpaceOnUse" alignment="0 0" imageRepeat="None" />
    <mask fill="white" id="Clip954">
      <path d="M 17 33.43478260869563  L 23.97826086956519 10.684782608695627  L 17 13.750000000000002  L 17 1.2173913043478137  L 10.72826086956519 21.902173913043498  L 17 19.27173913043481  L 17 33.43478260869563  Z M 0 17.347826086956502  C 0 8.597826086956502  6.5 1.347826086956502  14.934782608695626 0.17391304347825098  L 14.793478260869563 0.6847826086956275  L 13.141304347826066 6.4347826086956275  C 8.760869565217376 8.119565217391312  5.652173913043498 12.369565217391312  5.652173913043498 17.336956521739125  C 5.652173913043498 23.02173913043481  9.380434782608688 27.760869565217376  14.717391304347812 28.80434782608694  L 14.717391304347812 34.63043478260869  C 6.25 33.48913043478262  0 26.130434782608685  0 17.347826086956502  Z M 49.92391304347825 45.68478260869563  C 50.11956521739131 46.27173913043481  50 47.56521739130437  48.782608695652186 48.782608695652186  C 47.56521739130437 50  46.27173913043475 50.11956521739131  45.67391304347825 49.92391304347825  C 45.086956521739125 49.72826086956525  42.72826086956519 47.76086956521738  39.10869565217388 45.0978260869565  C 35.48913043478262 42.42391304347825  35.45652173913044 41.217391304347814  34.43478260869563 38.93478260869563  C 33.413043478260875 36.663043478260875  31.130434782608692 34.30434782608694  28.18478260869563 33.23913043478262  L 27.13043478260869 31.64130434782612  C 24.44565217391306 33.47826086956525  21.36956521739131 34.56521739130437  18.293478260869563 34.76086956521738  L 18.521739130434753 34.04347826086956  L 20.25 28.663043478260875  C 25.304347826086936 27.36956521739131  29.043478260869566 22.793478260869563  29.043478260869566 17.336956521739125  C 29.043478260869566 11.413043478260875  24.86956521739131 6.2391304347826235  18.60869565217388 5.695652173913061  L 18.60869565217388 0.03260869565218627  C 27.652173913043498 0.5869565217391255  34.782608695652186 8.130434782608688  34.782608695652186 17.347826086956502  C 34.782608695652186 21  33.56521739130437 24.38043478260869  31.630434782608692 27.173913043478247  L 33.217391304347814 28.217391304347817  C 34.282608695652186 31.163043478260878  36.641304347826065 33.43478260869563  38.913043478260875 34.45652173913044  C 41.18478260869563 35.47826086956519  42.413043478260875 35.51086956521738  45.086956521739125 39.13043478260869  C 47.76086956521738 42.73913043478262  49.72826086956525 45.0978260869565  49.92391304347825 45.68478260869563  Z M 46.836956521739125 47.70652173913044  C 47.31521739130437 47.70652173913044  47.70652173913044 47.31521739130437  47.70652173913044 46.836956521739125  C 47.70652173913044 46.358695652173935  47.31521739130437 45.967391304347814  46.836956521739125 45.967391304347814  C 46.358695652173935 45.967391304347814  45.967391304347814 46.358695652173935  45.967391304347814 46.836956521739125  C 45.967391304347814 47.31521739130437  46.358695652173935 47.70652173913044  46.836956521739125 47.70652173913044  Z " fill-rule="evenodd" />
    </mask>
  </defs>
  <g>
    <path d="M 17 33.43478260869563  L 23.97826086956519 10.684782608695627  L 17 13.750000000000002  L 17 1.2173913043478137  L 10.72826086956519 21.902173913043498  L 17 19.27173913043481  L 17 33.43478260869563  Z M 0 17.347826086956502  C 0 8.597826086956502  6.5 1.347826086956502  14.934782608695626 0.17391304347825098  L 14.793478260869563 0.6847826086956275  L 13.141304347826066 6.4347826086956275  C 8.760869565217376 8.119565217391312  5.652173913043498 12.369565217391312  5.652173913043498 17.336956521739125  C 5.652173913043498 23.02173913043481  9.380434782608688 27.760869565217376  14.717391304347812 28.80434782608694  L 14.717391304347812 34.63043478260869  C 6.25 33.48913043478262  0 26.130434782608685  0 17.347826086956502  Z M 49.92391304347825 45.68478260869563  C 50.11956521739131 46.27173913043481  50 47.56521739130437  48.782608695652186 48.782608695652186  C 47.56521739130437 50  46.27173913043475 50.11956521739131  45.67391304347825 49.92391304347825  C 45.086956521739125 49.72826086956525  42.72826086956519 47.76086956521738  39.10869565217388 45.0978260869565  C 35.48913043478262 42.42391304347825  35.45652173913044 41.217391304347814  34.43478260869563 38.93478260869563  C 33.413043478260875 36.663043478260875  31.130434782608692 34.30434782608694  28.18478260869563 33.23913043478262  L 27.13043478260869 31.64130434782612  C 24.44565217391306 33.47826086956525  21.36956521739131 34.56521739130437  18.293478260869563 34.76086956521738  L 18.521739130434753 34.04347826086956  L 20.25 28.663043478260875  C 25.304347826086936 27.36956521739131  29.043478260869566 22.793478260869563  29.043478260869566 17.336956521739125  C 29.043478260869566 11.413043478260875  24.86956521739131 6.2391304347826235  18.60869565217388 5.695652173913061  L 18.60869565217388 0.03260869565218627  C 27.652173913043498 0.5869565217391255  34.782608695652186 8.130434782608688  34.782608695652186 17.347826086956502  C 34.782608695652186 21  33.56521739130437 24.38043478260869  31.630434782608692 27.173913043478247  L 33.217391304347814 28.217391304347817  C 34.282608695652186 31.163043478260878  36.641304347826065 33.43478260869563  38.913043478260875 34.45652173913044  C 41.18478260869563 35.47826086956519  42.413043478260875 35.51086956521738  45.086956521739125 39.13043478260869  C 47.76086956521738 42.73913043478262  49.72826086956525 45.0978260869565  49.92391304347825 45.68478260869563  Z M 46.836956521739125 47.70652173913044  C 47.31521739130437 47.70652173913044  47.70652173913044 47.31521739130437  47.70652173913044 46.836956521739125  C 47.70652173913044 46.358695652173935  47.31521739130437 45.967391304347814  46.836956521739125 45.967391304347814  C 46.358695652173935 45.967391304347814  45.967391304347814 46.358695652173935  45.967391304347814 46.836956521739125  C 45.967391304347814 47.31521739130437  46.358695652173935 47.70652173913044  46.836956521739125 47.70652173913044  Z " fill-rule="nonzero" fill="rgba(0, 0, 0, 1)" stroke="none" class="fill" />
    <path d="M 17 33.43478260869563  L 23.97826086956519 10.684782608695627  L 17 13.750000000000002  L 17 1.2173913043478137  L 10.72826086956519 21.902173913043498  L 17 19.27173913043481  L 17 33.43478260869563  Z " stroke-width="0" stroke-dasharray="0" stroke="rgba(255, 255, 255, 0)" fill="none" class="stroke" mask="url(#Clip954)" />
    <path d="M 0 17.347826086956502  C 0 8.597826086956502  6.5 1.347826086956502  14.934782608695626 0.17391304347825098  L 14.793478260869563 0.6847826086956275  L 13.141304347826066 6.4347826086956275  C 8.760869565217376 8.119565217391312  5.652173913043498 12.369565217391312  5.652173913043498 17.336956521739125  C 5.652173913043498 23.02173913043481  9.380434782608688 27.760869565217376  14.717391304347812 28.80434782608694  L 14.717391304347812 34.63043478260869  C 6.25 33.48913043478262  0 26.130434782608685  0 17.347826086956502  Z " stroke-width="0" stroke-dasharray="0" stroke="rgba(255, 255, 255, 0)" fill="none" class="stroke" mask="url(#Clip954)" />
    <path d="M 49.92391304347825 45.68478260869563  C 50.11956521739131 46.27173913043481  50 47.56521739130437  48.782608695652186 48.782608695652186  C 47.56521739130437 50  46.27173913043475 50.11956521739131  45.67391304347825 49.92391304347825  C 45.086956521739125 49.72826086956525  42.72826086956519 47.76086956521738  39.10869565217388 45.0978260869565  C 35.48913043478262 42.42391304347825  35.45652173913044 41.217391304347814  34.43478260869563 38.93478260869563  C 33.413043478260875 36.663043478260875  31.130434782608692 34.30434782608694  28.18478260869563 33.23913043478262  L 27.13043478260869 31.64130434782612  C 24.44565217391306 33.47826086956525  21.36956521739131 34.56521739130437  18.293478260869563 34.76086956521738  L 18.521739130434753 34.04347826086956  L 20.25 28.663043478260875  C 25.304347826086936 27.36956521739131  29.043478260869566 22.793478260869563  29.043478260869566 17.336956521739125  C 29.043478260869566 11.413043478260875  24.86956521739131 6.2391304347826235  18.60869565217388 5.695652173913061  L 18.60869565217388 0.03260869565218627  C 27.652173913043498 0.5869565217391255  34.782608695652186 8.130434782608688  34.782608695652186 17.347826086956502  C 34.782608695652186 21  33.56521739130437 24.38043478260869  31.630434782608692 27.173913043478247  L 33.217391304347814 28.217391304347817  C 34.282608695652186 31.163043478260878  36.641304347826065 33.43478260869563  38.913043478260875 34.45652173913044  C 41.18478260869563 35.47826086956519  42.413043478260875 35.51086956521738  45.086956521739125 39.13043478260869  C 47.76086956521738 42.73913043478262  49.72826086956525 45.0978260869565  49.92391304347825 45.68478260869563  Z " stroke-width="0" stroke-dasharray="0" stroke="rgba(255, 255, 255, 0)" fill="none" class="stroke" mask="url(#Clip954)" />
    <path d="M 46.836956521739125 47.70652173913044  C 47.31521739130437 47.70652173913044  47.70652173913044 47.31521739130437  47.70652173913044 46.836956521739125  C 47.70652173913044 46.358695652173935  47.31521739130437 45.967391304347814  46.836956521739125 45.967391304347814  C 46.358695652173935 45.967391304347814  45.967391304347814 46.358695652173935  45.967391304347814 46.836956521739125  C 45.967391304347814 47.31521739130437  46.358695652173935 47.70652173913044  46.836956521739125 47.70652173913044  Z " stroke-width="0" stroke-dasharray="0" stroke="rgba(255, 255, 255, 0)" fill="none" class="stroke" mask="url(#Clip954)" />
  </g>
</svg>