<?xml version="1.0" encoding="utf-8"?>
<svg version="1.1" xmlns:xlink="http://www.w3.org/1999/xlink" width="38px" height="57px" xmlns="http://www.w3.org/2000/svg">
  <defs>
    <pattern id="BGPattern" patternUnits="userSpaceOnUse" alignment="0 0" imageRepeat="None" />
    <mask fill="white" id="Clip2322">
      <path d="M 37 4.875  C 37.5 2.66875  35.70625 0.875  33.5 1  L 4.5 1  C 2.2937499999999993 0.875  0.5 2.66875  1 4.875  L 1 52.875  C 0.5 55.08125  2.2937499999999993 56.875  4.5 56  L 33.5 56  C 35.70625 56.875  37.5 55.08125  37 52.875  L 37 4.875  Z M 21.5 46  C 21.5 47.38125  20.38125 48.5  19 48.5  C 17.61875 48.5  16.5 47.38125  16.5 46  C 16.5 44.61875  17.61875 43.5  19 43.5  C 20.38125 43.5  21.5 44.61875  21.5 46  Z " fill-rule="evenodd" />
    </mask>
  </defs>
  <g>
    <path d="M 37 4.875  C 37.5 2.66875  35.70625 0.875  33.5 1  L 4.5 1  C 2.2937499999999993 0.875  0.5 2.66875  1 4.875  L 1 52.875  C 0.5 55.08125  2.2937499999999993 56.875  4.5 56  L 33.5 56  C 35.70625 56.875  37.5 55.08125  37 52.875  L 37 4.875  Z M 21.5 46  C 21.5 47.38125  20.38125 48.5  19 48.5  C 17.61875 48.5  16.5 47.38125  16.5 46  C 16.5 44.61875  17.61875 43.5  19 43.5  C 20.38125 43.5  21.5 44.61875  21.5 46  Z " fill-rule="nonzero" fill="rgba(0, 0, 0, 1)" stroke="none" class="fill" />
    <path d="M 37 4.875  C 37.5 2.66875  35.70625 0.875  33.5 1  L 4.5 1  C 2.2937499999999993 0.875  0.5 2.66875  1 4.875  L 1 52.875  C 0.5 55.08125  2.2937499999999993 56.875  4.5 56  L 33.5 56  C 35.70625 56.875  37.5 55.08125  37 52.875  L 37 4.875  Z " stroke-width="0" stroke-dasharray="0" stroke="rgba(255, 255, 255, 0)" fill="none" class="stroke" mask="url(#Clip2322)" />
    <path d="M 21.5 46  C 21.5 47.38125  20.38125 48.5  19 48.5  C 17.61875 48.5  16.5 47.38125  16.5 46  C 16.5 44.61875  17.61875 43.5  19 43.5  C 20.38125 43.5  21.5 44.61875  21.5 46  Z " stroke-width="0" stroke-dasharray="0" stroke="rgba(255, 255, 255, 0)" fill="none" class="stroke" mask="url(#Clip2322)" />
  </g>
</svg>