<?xml version="1.0" encoding="utf-8"?>
<svg version="1.1" xmlns:xlink="http://www.w3.org/1999/xlink" width="14px" height="20px" xmlns="http://www.w3.org/2000/svg">
  <defs>
    <pattern id="BGPattern" patternUnits="userSpaceOnUse" alignment="0 0" imageRepeat="None" />
    <mask fill="white" id="Clip5139">
      <path d="M 0.2486593244718733 12.25  C 0.2486593244718733 12.05075910871264  0.32793744896854893 11.85970639451525  0.4689999999999994 11.719000000000001  C 0.6097063945152499 11.577937448968548  0.8007591087126382 11.498659324471873  1 11.498659324471873  C 1.1992408912873618 11.498659324471873  1.3902936054847501 11.577937448968548  1.5310000000000006 11.719000000000001  L 7 17.1895  L 12.469000000000001 11.718999999999998  C 12.609829956104797 11.578170043895202  12.800836366088191 11.499052598379883  13 11.499052598379883  C 13.41473679783985 11.499052598379883  13.750947401620117 11.835263202160151  13.750947401620117 12.25  C 13.750947401620117 12.449163633911812  13.671829956104798 12.6401700438952  13.531000000000002 12.780999999999999  L 7.531000000000003 18.781  C 7.39029360548475 18.922062551031452  7.1992408912873636 19.001340675528127  7 19.001340675528127  C 6.8007591087126364 19.001340675528127  6.609706394515252 18.922062551031452  6.469000000000001 18.781  L 0.4690000000000012 12.780999999999999  C 0.3279374489685498 12.64029360548475  0.2486593244718733 12.44924089128736  0.2486593244718733 12.25  Z M 0.2486593244718733 7.749999999999998  C 0.2486593244718733 7.94924089128736  0.32793744896854893 8.140293605484748  0.4689999999999994 8.281000000000002  C 0.6097063945152499 8.422062551031454  0.8007591087126382 8.501340675528128  1 8.501340675528128  C 1.1992408912873618 8.501340675528128  1.3902936054847501 8.422062551031454  1.5310000000000006 8.281000000000002  L 7 2.8104999999999993  L 12.469000000000001 8.280999999999999  C 12.609829956104797 8.421829956104796  12.800836366088191 8.500947401620113  13 8.500947401620113  C 13.41473679783985 8.500947401620113  13.750947401620117 8.164736797839847  13.750947401620117 7.749999999999998  C 13.750947401620117 7.550836366088186  13.671829956104798 7.359829956104797  13.531000000000002 7.218999999999998  L 7.531000000000003 1.2189999999999985  C 7.39029360548475 1.077937448968545  7.1992408912873636 0.9986593244718707  7 0.9986593244718707  C 6.800759108712638 0.9986593244718707  6.609706394515252 1.0779374489685463  6.469000000000001 1.2189999999999985  L 0.4690000000000012 7.218999999999998  C 0.32793744896854893 7.35970639451525  0.2486593244718733 7.5507591087126364  0.2486593244718733 7.749999999999998  Z " fill-rule="evenodd" />
    </mask>
  </defs>
  <g>
    <path d="M 0.2486593244718733 12.25  C 0.2486593244718733 12.05075910871264  0.32793744896854893 11.85970639451525  0.4689999999999994 11.719000000000001  C 0.6097063945152499 11.577937448968548  0.8007591087126382 11.498659324471873  1 11.498659324471873  C 1.1992408912873618 11.498659324471873  1.3902936054847501 11.577937448968548  1.5310000000000006 11.719000000000001  L 7 17.1895  L 12.469000000000001 11.718999999999998  C 12.609829956104797 11.578170043895202  12.800836366088191 11.499052598379883  13 11.499052598379883  C 13.41473679783985 11.499052598379883  13.750947401620117 11.835263202160151  13.750947401620117 12.25  C 13.750947401620117 12.449163633911812  13.671829956104798 12.6401700438952  13.531000000000002 12.780999999999999  L 7.531000000000003 18.781  C 7.39029360548475 18.922062551031452  7.1992408912873636 19.001340675528127  7 19.001340675528127  C 6.8007591087126364 19.001340675528127  6.609706394515252 18.922062551031452  6.469000000000001 18.781  L 0.4690000000000012 12.780999999999999  C 0.3279374489685498 12.64029360548475  0.2486593244718733 12.44924089128736  0.2486593244718733 12.25  Z M 0.2486593244718733 7.749999999999998  C 0.2486593244718733 7.94924089128736  0.32793744896854893 8.140293605484748  0.4689999999999994 8.281000000000002  C 0.6097063945152499 8.422062551031454  0.8007591087126382 8.501340675528128  1 8.501340675528128  C 1.1992408912873618 8.501340675528128  1.3902936054847501 8.422062551031454  1.5310000000000006 8.281000000000002  L 7 2.8104999999999993  L 12.469000000000001 8.280999999999999  C 12.609829956104797 8.421829956104796  12.800836366088191 8.500947401620113  13 8.500947401620113  C 13.41473679783985 8.500947401620113  13.750947401620117 8.164736797839847  13.750947401620117 7.749999999999998  C 13.750947401620117 7.550836366088186  13.671829956104798 7.359829956104797  13.531000000000002 7.218999999999998  L 7.531000000000003 1.2189999999999985  C 7.39029360548475 1.077937448968545  7.1992408912873636 0.9986593244718707  7 0.9986593244718707  C 6.800759108712638 0.9986593244718707  6.609706394515252 1.0779374489685463  6.469000000000001 1.2189999999999985  L 0.4690000000000012 7.218999999999998  C 0.32793744896854893 7.35970639451525  0.2486593244718733 7.5507591087126364  0.2486593244718733 7.749999999999998  Z " fill-rule="nonzero" fill="rgba(0, 0, 0, 1)" stroke="none" class="fill" />
    <path d="M 0.2486593244718733 12.25  C 0.2486593244718733 12.05075910871264  0.32793744896854893 11.85970639451525  0.4689999999999994 11.719000000000001  C 0.6097063945152499 11.577937448968548  0.8007591087126382 11.498659324471873  1 11.498659324471873  C 1.1992408912873618 11.498659324471873  1.3902936054847501 11.577937448968548  1.5310000000000006 11.719000000000001  L 7 17.1895  L 12.469000000000001 11.718999999999998  C 12.609829956104797 11.578170043895202  12.800836366088191 11.499052598379883  13 11.499052598379883  C 13.41473679783985 11.499052598379883  13.750947401620117 11.835263202160151  13.750947401620117 12.25  C 13.750947401620117 12.449163633911812  13.671829956104798 12.6401700438952  13.531000000000002 12.780999999999999  L 7.531000000000003 18.781  C 7.39029360548475 18.922062551031452  7.1992408912873636 19.001340675528127  7 19.001340675528127  C 6.8007591087126364 19.001340675528127  6.609706394515252 18.922062551031452  6.469000000000001 18.781  L 0.4690000000000012 12.780999999999999  C 0.3279374489685498 12.64029360548475  0.2486593244718733 12.44924089128736  0.2486593244718733 12.25  Z " stroke-width="0" stroke-dasharray="0" stroke="rgba(255, 255, 255, 0)" fill="none" class="stroke" mask="url(#Clip5139)" />
    <path d="M 0.2486593244718733 7.749999999999998  C 0.2486593244718733 7.94924089128736  0.32793744896854893 8.140293605484748  0.4689999999999994 8.281000000000002  C 0.6097063945152499 8.422062551031454  0.8007591087126382 8.501340675528128  1 8.501340675528128  C 1.1992408912873618 8.501340675528128  1.3902936054847501 8.422062551031454  1.5310000000000006 8.281000000000002  L 7 2.8104999999999993  L 12.469000000000001 8.280999999999999  C 12.609829956104797 8.421829956104796  12.800836366088191 8.500947401620113  13 8.500947401620113  C 13.41473679783985 8.500947401620113  13.750947401620117 8.164736797839847  13.750947401620117 7.749999999999998  C 13.750947401620117 7.550836366088186  13.671829956104798 7.359829956104797  13.531000000000002 7.218999999999998  L 7.531000000000003 1.2189999999999985  C 7.39029360548475 1.077937448968545  7.1992408912873636 0.9986593244718707  7 0.9986593244718707  C 6.800759108712638 0.9986593244718707  6.609706394515252 1.0779374489685463  6.469000000000001 1.2189999999999985  L 0.4690000000000012 7.218999999999998  C 0.32793744896854893 7.35970639451525  0.2486593244718733 7.5507591087126364  0.2486593244718733 7.749999999999998  Z " stroke-width="0" stroke-dasharray="0" stroke="rgba(255, 255, 255, 0)" fill="none" class="stroke" mask="url(#Clip5139)" />
  </g>
</svg>