<?xml version="1.0" encoding="utf-8"?>
<svg version="1.1" xmlns:xlink="http://www.w3.org/1999/xlink" width="14px" height="11px" xmlns="http://www.w3.org/2000/svg">
  <defs>
    <pattern id="BGPattern" patternUnits="userSpaceOnUse" alignment="0 0" imageRepeat="None" />
    <mask fill="white" id="Clip3533">
      <path d="M 5 10.5  L 0 5.539999999999999  L 1.5899999999999999 4  L 5 7.350000000000001  L 12.41 0  L 14 1.58  L 5 10.5  Z " fill-rule="evenodd" />
    </mask>
  </defs>
  <g transform="matrix(1 0 0 1 -9 -11 )">
    <path d="M 5 10.5  L 0 5.539999999999999  L 1.5899999999999999 4  L 5 7.350000000000001  L 12.41 0  L 14 1.58  L 5 10.5  Z " fill-rule="nonzero" fill="rgba(0, 0, 0, 1)" stroke="none" transform="matrix(1 0 0 1 9 11 )" class="fill" />
    <path d="M 5 10.5  L 0 5.539999999999999  L 1.5899999999999999 4  L 5 7.350000000000001  L 12.41 0  L 14 1.58  L 5 10.5  Z " stroke-width="0" stroke-dasharray="0" stroke="rgba(255, 255, 255, 0)" fill="none" transform="matrix(1 0 0 1 9 11 )" class="stroke" mask="url(#Clip3533)" />
  </g>
</svg>