<?xml version="1.0" encoding="utf-8"?>
<svg version="1.1" xmlns:xlink="http://www.w3.org/1999/xlink" width="22px" height="24px" xmlns="http://www.w3.org/2000/svg">
  <defs>
    <pattern id="BGPattern" patternUnits="userSpaceOnUse" alignment="0 0" imageRepeat="None" />
    <mask fill="white" id="Clip358">
      <path d="M 21.336000000000002 7.920000000000005  C 21.336000000000002 8.928000000000004  20.504 9.760000000000005  19.496 9.76  L 16.744 9.76  L 15.864 14.240000000000002  L 17.896 14.240000000000002  C 18.904 14.240000000000002  19.736 15.072000000000003  19.736 16.080000000000002  C 19.736 17.088  18.904 17.92  17.896 17.92  L 15.144 17.92  L 14.408000000000001 21.648000000000003  C 14.232000000000001 22.560000000000002  13.496000000000002 23.200000000000003  12.600000000000001 23.200000000000003  C 11.464000000000002 23.200000000000003  10.584000000000001 22.144000000000002  10.792000000000002 21.056000000000004  L 11.400000000000002 17.920000000000005  L 8.280000000000001 17.920000000000005  L 7.5440000000000005 21.648000000000007  C 7.368 22.560000000000006  6.632 23.200000000000006  5.736000000000001 23.200000000000006  C 4.600000000000001 23.200000000000006  3.7200000000000006 22.144000000000005  3.928000000000001 21.056000000000004  L 4.536000000000001 17.920000000000005  L 2.5040000000000013 17.920000000000005  C 1.4960000000000013 17.920000000000005  0.6640000000000015 17.088000000000005  0.6640000000000015 16.080000000000005  C 0.6640000000000015 15.072000000000006  1.4960000000000013 14.240000000000006  2.5040000000000013 14.240000000000006  L 5.256 14.240000000000006  L 6.136000000000001 9.760000000000005  L 4.104000000000001 9.760000000000005  C 3.096 9.760000000000005  2.264000000000001 8.928000000000004  2.264000000000001 7.920000000000005  C 2.264000000000001 6.912000000000006  3.096000000000002 6.080000000000005  4.104000000000001 6.080000000000005  L 6.856000000000002 6.080000000000005  L 7.592000000000001 2.3520000000000056  C 7.768000000000002 1.4400000000000057  8.504000000000003 0.800000000000006  9.400000000000002 0.800000000000006  C 10.536000000000001 0.800000000000006  11.416000000000004 1.856000000000006  11.208 2.944000000000006  L 10.600000000000001 6.080000000000005  L 13.720000000000002 6.080000000000005  L 14.456000000000005 2.3520000000000056  C 14.632000000000001 1.4400000000000057  15.368000000000004 0.800000000000006  16.264000000000003 0.800000000000006  C 17.400000000000002 0.800000000000006  18.28 1.856000000000006  18.072000000000003 2.944000000000006  L 17.464000000000002 6.080000000000005  L 19.496000000000002 6.080000000000005  C 20.504 6.080000000000005  21.336000000000002 6.912000000000006  21.336000000000002 7.920000000000005  Z M 8.999999999999998 14.239999999999998  L 12.12 14.239999999999998  L 13 9.759999999999998  L 9.879999999999999 9.759999999999998  L 8.999999999999998 14.239999999999998  Z " fill-rule="evenodd" />
    </mask>
  </defs>
  <g>
    <path d="M 21.336000000000002 7.920000000000005  C 21.336000000000002 8.928000000000004  20.504 9.760000000000005  19.496 9.76  L 16.744 9.76  L 15.864 14.240000000000002  L 17.896 14.240000000000002  C 18.904 14.240000000000002  19.736 15.072000000000003  19.736 16.080000000000002  C 19.736 17.088  18.904 17.92  17.896 17.92  L 15.144 17.92  L 14.408000000000001 21.648000000000003  C 14.232000000000001 22.560000000000002  13.496000000000002 23.200000000000003  12.600000000000001 23.200000000000003  C 11.464000000000002 23.200000000000003  10.584000000000001 22.144000000000002  10.792000000000002 21.056000000000004  L 11.400000000000002 17.920000000000005  L 8.280000000000001 17.920000000000005  L 7.5440000000000005 21.648000000000007  C 7.368 22.560000000000006  6.632 23.200000000000006  5.736000000000001 23.200000000000006  C 4.600000000000001 23.200000000000006  3.7200000000000006 22.144000000000005  3.928000000000001 21.056000000000004  L 4.536000000000001 17.920000000000005  L 2.5040000000000013 17.920000000000005  C 1.4960000000000013 17.920000000000005  0.6640000000000015 17.088000000000005  0.6640000000000015 16.080000000000005  C 0.6640000000000015 15.072000000000006  1.4960000000000013 14.240000000000006  2.5040000000000013 14.240000000000006  L 5.256 14.240000000000006  L 6.136000000000001 9.760000000000005  L 4.104000000000001 9.760000000000005  C 3.096 9.760000000000005  2.264000000000001 8.928000000000004  2.264000000000001 7.920000000000005  C 2.264000000000001 6.912000000000006  3.096000000000002 6.080000000000005  4.104000000000001 6.080000000000005  L 6.856000000000002 6.080000000000005  L 7.592000000000001 2.3520000000000056  C 7.768000000000002 1.4400000000000057  8.504000000000003 0.800000000000006  9.400000000000002 0.800000000000006  C 10.536000000000001 0.800000000000006  11.416000000000004 1.856000000000006  11.208 2.944000000000006  L 10.600000000000001 6.080000000000005  L 13.720000000000002 6.080000000000005  L 14.456000000000005 2.3520000000000056  C 14.632000000000001 1.4400000000000057  15.368000000000004 0.800000000000006  16.264000000000003 0.800000000000006  C 17.400000000000002 0.800000000000006  18.28 1.856000000000006  18.072000000000003 2.944000000000006  L 17.464000000000002 6.080000000000005  L 19.496000000000002 6.080000000000005  C 20.504 6.080000000000005  21.336000000000002 6.912000000000006  21.336000000000002 7.920000000000005  Z M 8.999999999999998 14.239999999999998  L 12.12 14.239999999999998  L 13 9.759999999999998  L 9.879999999999999 9.759999999999998  L 8.999999999999998 14.239999999999998  Z " fill-rule="nonzero" fill="rgba(0, 0, 0, 1)" stroke="none" class="fill" />
    <path d="M 21.336000000000002 7.920000000000005  C 21.336000000000002 8.928000000000004  20.504 9.760000000000005  19.496 9.76  L 16.744 9.76  L 15.864 14.240000000000002  L 17.896 14.240000000000002  C 18.904 14.240000000000002  19.736 15.072000000000003  19.736 16.080000000000002  C 19.736 17.088  18.904 17.92  17.896 17.92  L 15.144 17.92  L 14.408000000000001 21.648000000000003  C 14.232000000000001 22.560000000000002  13.496000000000002 23.200000000000003  12.600000000000001 23.200000000000003  C 11.464000000000002 23.200000000000003  10.584000000000001 22.144000000000002  10.792000000000002 21.056000000000004  L 11.400000000000002 17.920000000000005  L 8.280000000000001 17.920000000000005  L 7.5440000000000005 21.648000000000007  C 7.368 22.560000000000006  6.632 23.200000000000006  5.736000000000001 23.200000000000006  C 4.600000000000001 23.200000000000006  3.7200000000000006 22.144000000000005  3.928000000000001 21.056000000000004  L 4.536000000000001 17.920000000000005  L 2.5040000000000013 17.920000000000005  C 1.4960000000000013 17.920000000000005  0.6640000000000015 17.088000000000005  0.6640000000000015 16.080000000000005  C 0.6640000000000015 15.072000000000006  1.4960000000000013 14.240000000000006  2.5040000000000013 14.240000000000006  L 5.256 14.240000000000006  L 6.136000000000001 9.760000000000005  L 4.104000000000001 9.760000000000005  C 3.096 9.760000000000005  2.264000000000001 8.928000000000004  2.264000000000001 7.920000000000005  C 2.264000000000001 6.912000000000006  3.096000000000002 6.080000000000005  4.104000000000001 6.080000000000005  L 6.856000000000002 6.080000000000005  L 7.592000000000001 2.3520000000000056  C 7.768000000000002 1.4400000000000057  8.504000000000003 0.800000000000006  9.400000000000002 0.800000000000006  C 10.536000000000001 0.800000000000006  11.416000000000004 1.856000000000006  11.208 2.944000000000006  L 10.600000000000001 6.080000000000005  L 13.720000000000002 6.080000000000005  L 14.456000000000005 2.3520000000000056  C 14.632000000000001 1.4400000000000057  15.368000000000004 0.800000000000006  16.264000000000003 0.800000000000006  C 17.400000000000002 0.800000000000006  18.28 1.856000000000006  18.072000000000003 2.944000000000006  L 17.464000000000002 6.080000000000005  L 19.496000000000002 6.080000000000005  C 20.504 6.080000000000005  21.336000000000002 6.912000000000006  21.336000000000002 7.920000000000005  Z " stroke-width="0" stroke-dasharray="0" stroke="rgba(255, 255, 255, 0)" fill="none" class="stroke" mask="url(#Clip358)" />
    <path d="M 8.999999999999998 14.239999999999998  L 12.12 14.239999999999998  L 13 9.759999999999998  L 9.879999999999999 9.759999999999998  L 8.999999999999998 14.239999999999998  Z " stroke-width="0" stroke-dasharray="0" stroke="rgba(255, 255, 255, 0)" fill="none" class="stroke" mask="url(#Clip358)" />
  </g>
</svg>