<?xml version="1.0" encoding="utf-8"?>
<svg version="1.1" xmlns:xlink="http://www.w3.org/1999/xlink" width="50px" height="50px" xmlns="http://www.w3.org/2000/svg">
  <defs>
    <pattern id="BGPattern" patternUnits="userSpaceOnUse" alignment="0 0" imageRepeat="None" />
    <mask fill="white" id="Clip1088">
      <path d="M 21.93080357142857 36.975446428571416  C 21.09375 37.834821428571416  19.64285714285714 37.23214285714286  20 36.037946428571416  L 20 13.962053571428571  C 19.64285714285714 12.767857142857139  21.09375 12.16517857142857  21.93080357142857 13.013392857142861  L 32.90178571428572 24.051339285714278  C 33.42633928571428 24.57589285714286  33.42633928571428 25.41294642857143  32.90178571428572 25.937500000000004  L 21.93080357142857 36.975446428571416  Z M 44.64285714285714 0  C 47.60044642857143 0  50 2.3995535714285694  50 5.357142857142861  L 50 44.64285714285714  C 50 47.60044642857143  47.60044642857143 50  44.64285714285714 50  L 5.357142857142854 50  C 2.3995535714285694 50  0 47.60044642857143  0 44.64285714285714  L 0 5.357142857142861  C 0 2.3995535714285694  2.3995535714285694 0  5.357142857142854 0  L 44.64285714285714 0  Z M 43.97321428571428 44  C 44.34151785714286 44.64285714285714  44.64285714285714 44.34151785714286  44 43.97321428571428  L 44 6.026785714285708  C 44.64285714285714 5.658482142857139  44.34151785714286 5.357142857142861  43.97321428571428 6  L 6.026785714285715 6  C 5.658482142857146 5.357142857142861  5.357142857142854 5.658482142857139  6 6.026785714285708  L 6 43.97321428571428  C 5.357142857142854 44.34151785714286  5.658482142857146 44.64285714285714  6.026785714285715 44  L 43.97321428571428 44  Z " fill-rule="evenodd" />
    </mask>
  </defs>
  <g>
    <path d="M 21.93080357142857 36.975446428571416  C 21.09375 37.834821428571416  19.64285714285714 37.23214285714286  20 36.037946428571416  L 20 13.962053571428571  C 19.64285714285714 12.767857142857139  21.09375 12.16517857142857  21.93080357142857 13.013392857142861  L 32.90178571428572 24.051339285714278  C 33.42633928571428 24.57589285714286  33.42633928571428 25.41294642857143  32.90178571428572 25.937500000000004  L 21.93080357142857 36.975446428571416  Z M 44.64285714285714 0  C 47.60044642857143 0  50 2.3995535714285694  50 5.357142857142861  L 50 44.64285714285714  C 50 47.60044642857143  47.60044642857143 50  44.64285714285714 50  L 5.357142857142854 50  C 2.3995535714285694 50  0 47.60044642857143  0 44.64285714285714  L 0 5.357142857142861  C 0 2.3995535714285694  2.3995535714285694 0  5.357142857142854 0  L 44.64285714285714 0  Z M 43.97321428571428 44  C 44.34151785714286 44.64285714285714  44.64285714285714 44.34151785714286  44 43.97321428571428  L 44 6.026785714285708  C 44.64285714285714 5.658482142857139  44.34151785714286 5.357142857142861  43.97321428571428 6  L 6.026785714285715 6  C 5.658482142857146 5.357142857142861  5.357142857142854 5.658482142857139  6 6.026785714285708  L 6 43.97321428571428  C 5.357142857142854 44.34151785714286  5.658482142857146 44.64285714285714  6.026785714285715 44  L 43.97321428571428 44  Z " fill-rule="nonzero" fill="rgba(0, 0, 0, 1)" stroke="none" class="fill" />
    <path d="M 21.93080357142857 36.975446428571416  C 21.09375 37.834821428571416  19.64285714285714 37.23214285714286  20 36.037946428571416  L 20 13.962053571428571  C 19.64285714285714 12.767857142857139  21.09375 12.16517857142857  21.93080357142857 13.013392857142861  L 32.90178571428572 24.051339285714278  C 33.42633928571428 24.57589285714286  33.42633928571428 25.41294642857143  32.90178571428572 25.937500000000004  L 21.93080357142857 36.975446428571416  Z " stroke-width="0" stroke-dasharray="0" stroke="rgba(255, 255, 255, 0)" fill="none" class="stroke" mask="url(#Clip1088)" />
    <path d="M 44.64285714285714 0  C 47.60044642857143 0  50 2.3995535714285694  50 5.357142857142861  L 50 44.64285714285714  C 50 47.60044642857143  47.60044642857143 50  44.64285714285714 50  L 5.357142857142854 50  C 2.3995535714285694 50  0 47.60044642857143  0 44.64285714285714  L 0 5.357142857142861  C 0 2.3995535714285694  2.3995535714285694 0  5.357142857142854 0  L 44.64285714285714 0  Z " stroke-width="0" stroke-dasharray="0" stroke="rgba(255, 255, 255, 0)" fill="none" class="stroke" mask="url(#Clip1088)" />
    <path d="M 43.97321428571428 44  C 44.34151785714286 44.64285714285714  44.64285714285714 44.34151785714286  44 43.97321428571428  L 44 6.026785714285708  C 44.64285714285714 5.658482142857139  44.34151785714286 5.357142857142861  43.97321428571428 6  L 6.026785714285715 6  C 5.658482142857146 5.357142857142861  5.357142857142854 5.658482142857139  6 6.026785714285708  L 6 43.97321428571428  C 5.357142857142854 44.34151785714286  5.658482142857146 44.64285714285714  6.026785714285715 44  L 43.97321428571428 44  Z " stroke-width="0" stroke-dasharray="0" stroke="rgba(255, 255, 255, 0)" fill="none" class="stroke" mask="url(#Clip1088)" />
  </g>
</svg>