<?xml version="1.0" encoding="utf-8"?>
<svg version="1.1" xmlns:xlink="http://www.w3.org/1999/xlink" width="38px" height="48px" xmlns="http://www.w3.org/2000/svg">
  <defs>
    <pattern id="BGPattern" patternUnits="userSpaceOnUse" alignment="0 0" imageRepeat="None" />
    <mask fill="white" id="Clip7004">
      <path d="M 19.198 0.02  L 19 0  L 0 1.988  L 0 36.724  L 19 48  L 38 36.724000000000004  L 38 1.988  L 19.198 0.02  Z M 35 35.312000000000005  L 35.472 35.314  L 19 45.114  L 3 35.31399999999999  L 3 21.075999999999993  L 18.927999999999997 30.837999999999994  L 18.955999999999996 32.608  L 7.703999999999994 25.909999999999997  L 7.687999999999995 27.629999999999995  L 18.983999999999995 34.41799999999999  L 19.013999999999996 36.233999999999995  L 7.719999999999995 29.513999999999996  L 7.703999999999994 31.233999999999995  L 19 38.02  L 30.406 31.196000000000005  L 30.406 29.472000000000005  L 30.39 29.480000000000004  L 30.39 23.870000000000005  L 35 20.836000000000006  L 35 35.312000000000005  Z M 18.90800000000001 9.343999999999998  L 35.46 18.99  L 30.951999999999998 21.645999999999997  L 28.872 22.871999999999996  L 18.951999999999998 16.969999999999995  L 18.933999999999997 18.685999999999996  L 27.414 23.727999999999994  L 27.340000000000003 23.773999999999994  L 27.156000000000006 23.881999999999994  L 25.952000000000005 24.59199999999999  L 18.952000000000005 20.425999999999995  L 18.934000000000005 22.143999999999995  L 24.46 25.429999999999993  L 23.156000000000006 26.301999999999992  L 23.126000000000005 26.321999999999996  L 18.950000000000003 23.861999999999995  L 18.934000000000005 25.577999999999996  L 21.674000000000007 27.191999999999993  L 18.884000000000007 28.865999999999993  L 2.564000000000007 19.165999999999997  L 18.90800000000001 9.341999999999997  L 18.90800000000001 9.343999999999998  Z M 35 17.259999999999998  L 35.472 17.261999999999997  L 18.912000000000003 7.4979999999999976  L 18.908 7.4979999999999976  L 3 17.251999999999995  L 3 4.22  L 19 2.492  L 35 4.22  L 35 17.259999999999998  Z " fill-rule="evenodd" />
    </mask>
  </defs>
  <g>
    <path d="M 19.198 0.02  L 19 0  L 0 1.988  L 0 36.724  L 19 48  L 38 36.724000000000004  L 38 1.988  L 19.198 0.02  Z M 35 35.312000000000005  L 35.472 35.314  L 19 45.114  L 3 35.31399999999999  L 3 21.075999999999993  L 18.927999999999997 30.837999999999994  L 18.955999999999996 32.608  L 7.703999999999994 25.909999999999997  L 7.687999999999995 27.629999999999995  L 18.983999999999995 34.41799999999999  L 19.013999999999996 36.233999999999995  L 7.719999999999995 29.513999999999996  L 7.703999999999994 31.233999999999995  L 19 38.02  L 30.406 31.196000000000005  L 30.406 29.472000000000005  L 30.39 29.480000000000004  L 30.39 23.870000000000005  L 35 20.836000000000006  L 35 35.312000000000005  Z M 18.90800000000001 9.343999999999998  L 35.46 18.99  L 30.951999999999998 21.645999999999997  L 28.872 22.871999999999996  L 18.951999999999998 16.969999999999995  L 18.933999999999997 18.685999999999996  L 27.414 23.727999999999994  L 27.340000000000003 23.773999999999994  L 27.156000000000006 23.881999999999994  L 25.952000000000005 24.59199999999999  L 18.952000000000005 20.425999999999995  L 18.934000000000005 22.143999999999995  L 24.46 25.429999999999993  L 23.156000000000006 26.301999999999992  L 23.126000000000005 26.321999999999996  L 18.950000000000003 23.861999999999995  L 18.934000000000005 25.577999999999996  L 21.674000000000007 27.191999999999993  L 18.884000000000007 28.865999999999993  L 2.564000000000007 19.165999999999997  L 18.90800000000001 9.341999999999997  L 18.90800000000001 9.343999999999998  Z M 35 17.259999999999998  L 35.472 17.261999999999997  L 18.912000000000003 7.4979999999999976  L 18.908 7.4979999999999976  L 3 17.251999999999995  L 3 4.22  L 19 2.492  L 35 4.22  L 35 17.259999999999998  Z " fill-rule="nonzero" fill="rgba(48, 38, 131, 1)" stroke="none" class="fill" />
    <path d="M 19.198 0.02  L 19 0  L 0 1.988  L 0 36.724  L 19 48  L 38 36.724000000000004  L 38 1.988  L 19.198 0.02  Z " stroke-width="0" stroke-dasharray="0" stroke="rgba(255, 255, 255, 0)" fill="none" class="stroke" mask="url(#Clip7004)" />
    <path d="M 35 35.312000000000005  L 35.472 35.314  L 19 45.114  L 3 35.31399999999999  L 3 21.075999999999993  L 18.927999999999997 30.837999999999994  L 18.955999999999996 32.608  L 7.703999999999994 25.909999999999997  L 7.687999999999995 27.629999999999995  L 18.983999999999995 34.41799999999999  L 19.013999999999996 36.233999999999995  L 7.719999999999995 29.513999999999996  L 7.703999999999994 31.233999999999995  L 19 38.02  L 30.406 31.196000000000005  L 30.406 29.472000000000005  L 30.39 29.480000000000004  L 30.39 23.870000000000005  L 35 20.836000000000006  L 35 35.312000000000005  Z " stroke-width="0" stroke-dasharray="0" stroke="rgba(255, 255, 255, 0)" fill="none" class="stroke" mask="url(#Clip7004)" />
    <path d="M 18.90800000000001 9.343999999999998  L 35.46 18.99  L 30.951999999999998 21.645999999999997  L 28.872 22.871999999999996  L 18.951999999999998 16.969999999999995  L 18.933999999999997 18.685999999999996  L 27.414 23.727999999999994  L 27.340000000000003 23.773999999999994  L 27.156000000000006 23.881999999999994  L 25.952000000000005 24.59199999999999  L 18.952000000000005 20.425999999999995  L 18.934000000000005 22.143999999999995  L 24.46 25.429999999999993  L 23.156000000000006 26.301999999999992  L 23.126000000000005 26.321999999999996  L 18.950000000000003 23.861999999999995  L 18.934000000000005 25.577999999999996  L 21.674000000000007 27.191999999999993  L 18.884000000000007 28.865999999999993  L 2.564000000000007 19.165999999999997  L 18.90800000000001 9.341999999999997  L 18.90800000000001 9.343999999999998  Z " stroke-width="0" stroke-dasharray="0" stroke="rgba(255, 255, 255, 0)" fill="none" class="stroke" mask="url(#Clip7004)" />
    <path d="M 35 17.259999999999998  L 35.472 17.261999999999997  L 18.912000000000003 7.4979999999999976  L 18.908 7.4979999999999976  L 3 17.251999999999995  L 3 4.22  L 19 2.492  L 35 4.22  L 35 17.259999999999998  Z " stroke-width="0" stroke-dasharray="0" stroke="rgba(255, 255, 255, 0)" fill="none" class="stroke" mask="url(#Clip7004)" />
  </g>
</svg>