<?xml version="1.0" encoding="utf-8"?>
<svg version="1.1" xmlns:xlink="http://www.w3.org/1999/xlink" width="50px" height="40px" xmlns="http://www.w3.org/2000/svg">
  <defs>
    <pattern id="BGPattern" patternUnits="userSpaceOnUse" alignment="0 0" imageRepeat="None" />
    <mask fill="white" id="Clip1456">
      <path d="M 50 7.5  C 50 4.73828125  46.642187500000006 2.5  42.5 2.5  L 41.22187500000001 2.5  C 40.08125000000001 0.9906250000000227  38.28828125000001 0  36.25 0  C 32.798437500000006 0  30 2.7984374999999773  30 6.25  L 30 7.889062500000023  L 0.9445312500000114 30.747656249999977  C 0.35006767716473064 31.193365602155893  0.0001352412065784847 31.892941034505668  0 32.63593750000001  C 0 34.390625  1.8468750000000114 35.53203124999999  3.4164062499999948 34.74765624999998  L 12.911718750000006 30  L 20.44999999999999 30  L 23.919531250000006 39.3828125  C 24.09687500000001 39.86953125000002  24.634375000000006 40.12031250000001  25.12109375 39.94296874999998  L 26.882812499999996 39.30156249999999  C 27.369531249999994 39.12421875000001  27.62031250000001 38.58671874999999  27.442968750000006 38.10000000000002  L 24.44843750000001 30  L 27.500000000000004 30  C 27.64921874999999 30  27.79374999999999 29.982031249999977  27.94218749999999 29.97734374999999  L 31.419531250000006 39.38203125000001  C 31.59687500000001 39.86874999999998  32.134375000000006 40.11953125000002  32.62109375 39.94218749999999  L 34.3828125 39.30078125  C 34.869531249999994 39.12343750000002  35.12031250000001 38.5859375  34.942968750000006 38.09921874999998  L 31.721093749999994 29.38593750000001  C 37.94843750000001 27.5625  42.5 21.81718749999999  42.5 15  L 42.5 8.75  L 50 7.5  Z M 38.125 6.25  C 38.125 7.28515625  37.28515625 8.125  36.25 8.125  C 35.21484375 8.125  34.375 7.28515625  34.375 6.25  C 34.375 5.214062500000011  35.21484375 4.375  36.25 4.375  C 37.28515625 4.375  38.125 5.214062500000011  38.125 6.25  Z " fill-rule="evenodd" />
    </mask>
  </defs>
  <g>
    <path d="M 50 7.5  C 50 4.73828125  46.642187500000006 2.5  42.5 2.5  L 41.22187500000001 2.5  C 40.08125000000001 0.9906250000000227  38.28828125000001 0  36.25 0  C 32.798437500000006 0  30 2.7984374999999773  30 6.25  L 30 7.889062500000023  L 0.9445312500000114 30.747656249999977  C 0.35006767716473064 31.193365602155893  0.0001352412065784847 31.892941034505668  0 32.63593750000001  C 0 34.390625  1.8468750000000114 35.53203124999999  3.4164062499999948 34.74765624999998  L 12.911718750000006 30  L 20.44999999999999 30  L 23.919531250000006 39.3828125  C 24.09687500000001 39.86953125000002  24.634375000000006 40.12031250000001  25.12109375 39.94296874999998  L 26.882812499999996 39.30156249999999  C 27.369531249999994 39.12421875000001  27.62031250000001 38.58671874999999  27.442968750000006 38.10000000000002  L 24.44843750000001 30  L 27.500000000000004 30  C 27.64921874999999 30  27.79374999999999 29.982031249999977  27.94218749999999 29.97734374999999  L 31.419531250000006 39.38203125000001  C 31.59687500000001 39.86874999999998  32.134375000000006 40.11953125000002  32.62109375 39.94218749999999  L 34.3828125 39.30078125  C 34.869531249999994 39.12343750000002  35.12031250000001 38.5859375  34.942968750000006 38.09921874999998  L 31.721093749999994 29.38593750000001  C 37.94843750000001 27.5625  42.5 21.81718749999999  42.5 15  L 42.5 8.75  L 50 7.5  Z M 38.125 6.25  C 38.125 7.28515625  37.28515625 8.125  36.25 8.125  C 35.21484375 8.125  34.375 7.28515625  34.375 6.25  C 34.375 5.214062500000011  35.21484375 4.375  36.25 4.375  C 37.28515625 4.375  38.125 5.214062500000011  38.125 6.25  Z " fill-rule="nonzero" fill="rgba(0, 0, 0, 1)" stroke="none" class="fill" />
    <path d="M 50 7.5  C 50 4.73828125  46.642187500000006 2.5  42.5 2.5  L 41.22187500000001 2.5  C 40.08125000000001 0.9906250000000227  38.28828125000001 0  36.25 0  C 32.798437500000006 0  30 2.7984374999999773  30 6.25  L 30 7.889062500000023  L 0.9445312500000114 30.747656249999977  C 0.35006767716473064 31.193365602155893  0.0001352412065784847 31.892941034505668  0 32.63593750000001  C 0 34.390625  1.8468750000000114 35.53203124999999  3.4164062499999948 34.74765624999998  L 12.911718750000006 30  L 20.44999999999999 30  L 23.919531250000006 39.3828125  C 24.09687500000001 39.86953125000002  24.634375000000006 40.12031250000001  25.12109375 39.94296874999998  L 26.882812499999996 39.30156249999999  C 27.369531249999994 39.12421875000001  27.62031250000001 38.58671874999999  27.442968750000006 38.10000000000002  L 24.44843750000001 30  L 27.500000000000004 30  C 27.64921874999999 30  27.79374999999999 29.982031249999977  27.94218749999999 29.97734374999999  L 31.419531250000006 39.38203125000001  C 31.59687500000001 39.86874999999998  32.134375000000006 40.11953125000002  32.62109375 39.94218749999999  L 34.3828125 39.30078125  C 34.869531249999994 39.12343750000002  35.12031250000001 38.5859375  34.942968750000006 38.09921874999998  L 31.721093749999994 29.38593750000001  C 37.94843750000001 27.5625  42.5 21.81718749999999  42.5 15  L 42.5 8.75  L 50 7.5  Z " stroke-width="0" stroke-dasharray="0" stroke="rgba(255, 255, 255, 0)" fill="none" class="stroke" mask="url(#Clip1456)" />
    <path d="M 38.125 6.25  C 38.125 7.28515625  37.28515625 8.125  36.25 8.125  C 35.21484375 8.125  34.375 7.28515625  34.375 6.25  C 34.375 5.214062500000011  35.21484375 4.375  36.25 4.375  C 37.28515625 4.375  38.125 5.214062500000011  38.125 6.25  Z " stroke-width="0" stroke-dasharray="0" stroke="rgba(255, 255, 255, 0)" fill="none" class="stroke" mask="url(#Clip1456)" />
  </g>
</svg>