<?xml version="1.0" encoding="utf-8"?>
<svg version="1.1" xmlns:xlink="http://www.w3.org/1999/xlink" width="20px" height="16px" xmlns="http://www.w3.org/2000/svg">
  <defs>
    <pattern id="BGPattern" patternUnits="userSpaceOnUse" alignment="0 0" imageRepeat="None" />
    <mask fill="white" id="Clip3489">
      <path d="M 18 0  C 19.104569499661586 0  20 0.8954305003384135  20 2  L 20 14  C 20 15.104569499661586  19.104569499661586 16  18 16  L 2 16  C 0.8954305003384135 16  0 15.104569499661586  0 14  L 0 2  C 0 0.8954305003384135  0.8954305003384135 0  2 0  L 18 0  Z M 2 2  L 2 14  L 18 14  L 18 2  L 2 2  Z " fill-rule="evenodd" />
    </mask>
  </defs>
  <g transform="matrix(1 0 0 1 -6 -8 )">
    <path d="M 18 0  C 19.104569499661586 0  20 0.8954305003384135  20 2  L 20 14  C 20 15.104569499661586  19.104569499661586 16  18 16  L 2 16  C 0.8954305003384135 16  0 15.104569499661586  0 14  L 0 2  C 0 0.8954305003384135  0.8954305003384135 0  2 0  L 18 0  Z M 2 2  L 2 14  L 18 14  L 18 2  L 2 2  Z " fill-rule="nonzero" fill="rgba(0, 0, 0, 1)" stroke="none" transform="matrix(1 0 0 1 6 8 )" class="fill" />
    <path d="M 18 0  C 19.104569499661586 0  20 0.8954305003384135  20 2  L 20 14  C 20 15.104569499661586  19.104569499661586 16  18 16  L 2 16  C 0.8954305003384135 16  0 15.104569499661586  0 14  L 0 2  C 0 0.8954305003384135  0.8954305003384135 0  2 0  L 18 0  Z " stroke-width="0" stroke-dasharray="0" stroke="rgba(255, 255, 255, 0)" fill="none" transform="matrix(1 0 0 1 6 8 )" class="stroke" mask="url(#Clip3489)" />
    <path d="M 2 2  L 2 14  L 18 14  L 18 2  L 2 2  Z " stroke-width="0" stroke-dasharray="0" stroke="rgba(255, 255, 255, 0)" fill="none" transform="matrix(1 0 0 1 6 8 )" class="stroke" mask="url(#Clip3489)" />
  </g>
</svg>