<?xml version="1.0" encoding="utf-8"?>
<svg version="1.1" xmlns:xlink="http://www.w3.org/1999/xlink" width="16px" height="6px" xmlns="http://www.w3.org/2000/svg">
  <defs>
    <pattern id="BGPattern" patternUnits="userSpaceOnUse" alignment="0 0" imageRepeat="None" />
    <mask fill="white" id="Clip3490">
      <path d="M 14 0  C 15.104569499661586 0  16 0.8954305003384135  16 2  L 16 6  L 14 6  L 14 2  L 2 2  L 2 6  L 0 6  L 0 2  C 0 0.8954305003384135  0.8954305003384135 0  2 0  L 14 0  Z " fill-rule="evenodd" />
    </mask>
  </defs>
  <g transform="matrix(1 0 0 1 -8 -26 )">
    <path d="M 14 0  C 15.104569499661586 0  16 0.8954305003384135  16 2  L 16 6  L 14 6  L 14 2  L 2 2  L 2 6  L 0 6  L 0 2  C 0 0.8954305003384135  0.8954305003384135 0  2 0  L 14 0  Z " fill-rule="nonzero" fill="rgba(0, 0, 0, 1)" stroke="none" transform="matrix(1 0 0 1 8 26 )" class="fill" />
    <path d="M 14 0  C 15.104569499661586 0  16 0.8954305003384135  16 2  L 16 6  L 14 6  L 14 2  L 2 2  L 2 6  L 0 6  L 0 2  C 0 0.8954305003384135  0.8954305003384135 0  2 0  L 14 0  Z " stroke-width="0" stroke-dasharray="0" stroke="rgba(255, 255, 255, 0)" fill="none" transform="matrix(1 0 0 1 8 26 )" class="stroke" mask="url(#Clip3490)" />
  </g>
</svg>