<?xml version="1.0" encoding="utf-8"?>
<svg version="1.1" xmlns:xlink="http://www.w3.org/1999/xlink" width="50px" height="51px" xmlns="http://www.w3.org/2000/svg">
  <defs>
    <pattern id="BGPattern" patternUnits="userSpaceOnUse" alignment="0 0" imageRepeat="None" />
    <mask fill="white" id="Clip2781">
      <path d="M 45.30625 27.424999999999997  C 50.58125 22.143749999999997  51.41250000000001 14.106249999999996  47.7875 7.96875  C 47.75625 7.9125000000000005  47.7125 7.856249999999999  47.6625 7.812500000000001  C 47.35 7.5  46.84375 7.5  46.53125 7.812500000000001  L 35.7625 18.58125  L 31.518750000000008 14.337499999999997  L 42.29375 3.5625  C 42.34375 3.5124999999999997  42.38125 3.4625000000000004  42.41875 3.40625  C 42.643750000000004 3.0250000000000004  42.518750000000004 2.5374999999999996  42.1375 2.3125  C 36 -1.3125  27.962500000000006 -0.4812500000000001  22.681250000000002 4.793749999999999  C 18.493750000000002 8.98125  17.106250000000003 14.918749999999998  18.525000000000002 20.25625  L 0.21250000000000213 38.56875  C 0.02500000000000213 38.75625  0.03750000000000231 39.0625  0.23125000000000195 39.25625  L 10.837500000000002 49.8625  C 11.031250000000004 50.05625  11.343750000000004 50.068749999999994  11.525000000000002 49.881249999999994  L 29.831249999999997 31.574999999999996  C 35.175 32.99999999999999  41.1125 31.618750000000002  45.30625 27.424999999999997  Z M 45.474999999999994 15.24375  C 45.70625 18.48125  44.574999999999996 21.79375  42.125 24.2375  C 38.49375 27.86875  33.04375 28.56875  28.712499999999995 26.3375  L 28.1625 26.887499999999996  L 28.15625 26.881249999999994  L 11.03125 44.012499999999996  L 6.081250000000001 39.06249999999999  L 20.4625 24.68124999999999  C 20.4625 24.68124999999999  20.4625 24.687499999999993  20.46875 24.687499999999993  L 23.76875 21.387499999999992  C 21.5375 17.05624999999999  22.2375 11.606249999999992  25.868749999999995 7.9749999999999925  C 28.238659394709487 5.602954963971802  31.524958068021537 4.382003720762118  34.86875 4.6312499999999925  L 26.5625 12.931249999999999  C 25.781294789987342 13.713336005258034  25.781294789987342 14.98041399474196  26.5625 15.762500000000001  L 34.34375 23.54375  C 35.12583600525804 24.32495521001265  36.39291399474196 24.32495521001265  37.175 23.54375  L 45.474999999999994 15.24375  Z " fill-rule="evenodd" />
    </mask>
  </defs>
  <g>
    <path d="M 45.30625 27.424999999999997  C 50.58125 22.143749999999997  51.41250000000001 14.106249999999996  47.7875 7.96875  C 47.75625 7.9125000000000005  47.7125 7.856249999999999  47.6625 7.812500000000001  C 47.35 7.5  46.84375 7.5  46.53125 7.812500000000001  L 35.7625 18.58125  L 31.518750000000008 14.337499999999997  L 42.29375 3.5625  C 42.34375 3.5124999999999997  42.38125 3.4625000000000004  42.41875 3.40625  C 42.643750000000004 3.0250000000000004  42.518750000000004 2.5374999999999996  42.1375 2.3125  C 36 -1.3125  27.962500000000006 -0.4812500000000001  22.681250000000002 4.793749999999999  C 18.493750000000002 8.98125  17.106250000000003 14.918749999999998  18.525000000000002 20.25625  L 0.21250000000000213 38.56875  C 0.02500000000000213 38.75625  0.03750000000000231 39.0625  0.23125000000000195 39.25625  L 10.837500000000002 49.8625  C 11.031250000000004 50.05625  11.343750000000004 50.068749999999994  11.525000000000002 49.881249999999994  L 29.831249999999997 31.574999999999996  C 35.175 32.99999999999999  41.1125 31.618750000000002  45.30625 27.424999999999997  Z M 45.474999999999994 15.24375  C 45.70625 18.48125  44.574999999999996 21.79375  42.125 24.2375  C 38.49375 27.86875  33.04375 28.56875  28.712499999999995 26.3375  L 28.1625 26.887499999999996  L 28.15625 26.881249999999994  L 11.03125 44.012499999999996  L 6.081250000000001 39.06249999999999  L 20.4625 24.68124999999999  C 20.4625 24.68124999999999  20.4625 24.687499999999993  20.46875 24.687499999999993  L 23.76875 21.387499999999992  C 21.5375 17.05624999999999  22.2375 11.606249999999992  25.868749999999995 7.9749999999999925  C 28.238659394709487 5.602954963971802  31.524958068021537 4.382003720762118  34.86875 4.6312499999999925  L 26.5625 12.931249999999999  C 25.781294789987342 13.713336005258034  25.781294789987342 14.98041399474196  26.5625 15.762500000000001  L 34.34375 23.54375  C 35.12583600525804 24.32495521001265  36.39291399474196 24.32495521001265  37.175 23.54375  L 45.474999999999994 15.24375  Z " fill-rule="nonzero" fill="rgba(0, 0, 0, 1)" stroke="none" class="fill" />
    <path d="M 45.30625 27.424999999999997  C 50.58125 22.143749999999997  51.41250000000001 14.106249999999996  47.7875 7.96875  C 47.75625 7.9125000000000005  47.7125 7.856249999999999  47.6625 7.812500000000001  C 47.35 7.5  46.84375 7.5  46.53125 7.812500000000001  L 35.7625 18.58125  L 31.518750000000008 14.337499999999997  L 42.29375 3.5625  C 42.34375 3.5124999999999997  42.38125 3.4625000000000004  42.41875 3.40625  C 42.643750000000004 3.0250000000000004  42.518750000000004 2.5374999999999996  42.1375 2.3125  C 36 -1.3125  27.962500000000006 -0.4812500000000001  22.681250000000002 4.793749999999999  C 18.493750000000002 8.98125  17.106250000000003 14.918749999999998  18.525000000000002 20.25625  L 0.21250000000000213 38.56875  C 0.02500000000000213 38.75625  0.03750000000000231 39.0625  0.23125000000000195 39.25625  L 10.837500000000002 49.8625  C 11.031250000000004 50.05625  11.343750000000004 50.068749999999994  11.525000000000002 49.881249999999994  L 29.831249999999997 31.574999999999996  C 35.175 32.99999999999999  41.1125 31.618750000000002  45.30625 27.424999999999997  Z " stroke-width="0" stroke-dasharray="0" stroke="rgba(255, 255, 255, 0)" fill="none" class="stroke" mask="url(#Clip2781)" />
    <path d="M 45.474999999999994 15.24375  C 45.70625 18.48125  44.574999999999996 21.79375  42.125 24.2375  C 38.49375 27.86875  33.04375 28.56875  28.712499999999995 26.3375  L 28.1625 26.887499999999996  L 28.15625 26.881249999999994  L 11.03125 44.012499999999996  L 6.081250000000001 39.06249999999999  L 20.4625 24.68124999999999  C 20.4625 24.68124999999999  20.4625 24.687499999999993  20.46875 24.687499999999993  L 23.76875 21.387499999999992  C 21.5375 17.05624999999999  22.2375 11.606249999999992  25.868749999999995 7.9749999999999925  C 28.238659394709487 5.602954963971802  31.524958068021537 4.382003720762118  34.86875 4.6312499999999925  L 26.5625 12.931249999999999  C 25.781294789987342 13.713336005258034  25.781294789987342 14.98041399474196  26.5625 15.762500000000001  L 34.34375 23.54375  C 35.12583600525804 24.32495521001265  36.39291399474196 24.32495521001265  37.175 23.54375  L 45.474999999999994 15.24375  Z " stroke-width="0" stroke-dasharray="0" stroke="rgba(255, 255, 255, 0)" fill="none" class="stroke" mask="url(#Clip2781)" />
  </g>
</svg>