<?xml version="1.0" encoding="utf-8"?>
<svg version="1.1" xmlns:xlink="http://www.w3.org/1999/xlink" width="50px" height="40px" xmlns="http://www.w3.org/2000/svg">
  <defs>
    <pattern id="BGPattern" patternUnits="userSpaceOnUse" alignment="0 0" imageRepeat="None" />
    <mask fill="white" id="Clip1515">
      <path d="M 2.34375 14  C 1.04931640625 13.37890625  0 12.32958984375  0 11.03515625  L 0 9.47265625  C 0 8.17822265625  1.04931640625 7.12890625  2.34375 7.12890625  L 37.5 7.12890625  L 37.5 2.44140625  C 37.5 0.35478515624998863  40.029199218749994 -0.6876953125000114  41.501074218750006 0.7840820312500227  L 49.313574218750006 8.596582031250023  C 50.22880859374999 9.511914062500011  50.22880859374999 10.995898437499989  49.313574218750006 11.9111328125  L 41.501074218750006 19.7236328125  C 40.034765625000006 21.18964843750001  37.5 20.161718749999977  37.5 18.06640625  L 37.5 14  L 2.34375 14  Z M 50 28.22265625  C 50 26.92822265625  48.95068359375 25.87890625  47.65625 25.87890625  L 12.5 25.87890625  L 12.5 21.19140625  C 12.5 19.109960937499977  9.974414062499989 18.05859375  8.498925781249994 19.534082031250023  L 0.6864257812499943 27.346582031250023  C -0.22880859374998863 28.26191406250001  -0.22880859374998863 29.74589843749999  0.6864257812499943 30.6611328125  L 8.498925781249994 38.4736328125  C 9.966503906250011 39.94111328125001  12.5 38.90986328125001  12.5 36.81640625  L 12.5 32  L 47.65625 32  C 48.95068359375 32.12890625  50 31.07958984375  50 29.78515625  L 50 28.22265625  Z " fill-rule="evenodd" />
    </mask>
  </defs>
  <g>
    <path d="M 2.34375 14  C 1.04931640625 13.37890625  0 12.32958984375  0 11.03515625  L 0 9.47265625  C 0 8.17822265625  1.04931640625 7.12890625  2.34375 7.12890625  L 37.5 7.12890625  L 37.5 2.44140625  C 37.5 0.35478515624998863  40.029199218749994 -0.6876953125000114  41.501074218750006 0.7840820312500227  L 49.313574218750006 8.596582031250023  C 50.22880859374999 9.511914062500011  50.22880859374999 10.995898437499989  49.313574218750006 11.9111328125  L 41.501074218750006 19.7236328125  C 40.034765625000006 21.18964843750001  37.5 20.161718749999977  37.5 18.06640625  L 37.5 14  L 2.34375 14  Z M 50 28.22265625  C 50 26.92822265625  48.95068359375 25.87890625  47.65625 25.87890625  L 12.5 25.87890625  L 12.5 21.19140625  C 12.5 19.109960937499977  9.974414062499989 18.05859375  8.498925781249994 19.534082031250023  L 0.6864257812499943 27.346582031250023  C -0.22880859374998863 28.26191406250001  -0.22880859374998863 29.74589843749999  0.6864257812499943 30.6611328125  L 8.498925781249994 38.4736328125  C 9.966503906250011 39.94111328125001  12.5 38.90986328125001  12.5 36.81640625  L 12.5 32  L 47.65625 32  C 48.95068359375 32.12890625  50 31.07958984375  50 29.78515625  L 50 28.22265625  Z " fill-rule="nonzero" fill="rgba(0, 0, 0, 1)" stroke="none" class="fill" />
    <path d="M 2.34375 14  C 1.04931640625 13.37890625  0 12.32958984375  0 11.03515625  L 0 9.47265625  C 0 8.17822265625  1.04931640625 7.12890625  2.34375 7.12890625  L 37.5 7.12890625  L 37.5 2.44140625  C 37.5 0.35478515624998863  40.029199218749994 -0.6876953125000114  41.501074218750006 0.7840820312500227  L 49.313574218750006 8.596582031250023  C 50.22880859374999 9.511914062500011  50.22880859374999 10.995898437499989  49.313574218750006 11.9111328125  L 41.501074218750006 19.7236328125  C 40.034765625000006 21.18964843750001  37.5 20.161718749999977  37.5 18.06640625  L 37.5 14  L 2.34375 14  Z " stroke-width="0" stroke-dasharray="0" stroke="rgba(255, 255, 255, 0)" fill="none" class="stroke" mask="url(#Clip1515)" />
    <path d="M 50 28.22265625  C 50 26.92822265625  48.95068359375 25.87890625  47.65625 25.87890625  L 12.5 25.87890625  L 12.5 21.19140625  C 12.5 19.109960937499977  9.974414062499989 18.05859375  8.498925781249994 19.534082031250023  L 0.6864257812499943 27.346582031250023  C -0.22880859374998863 28.26191406250001  -0.22880859374998863 29.74589843749999  0.6864257812499943 30.6611328125  L 8.498925781249994 38.4736328125  C 9.966503906250011 39.94111328125001  12.5 38.90986328125001  12.5 36.81640625  L 12.5 32  L 47.65625 32  C 48.95068359375 32.12890625  50 31.07958984375  50 29.78515625  L 50 28.22265625  Z " stroke-width="0" stroke-dasharray="0" stroke="rgba(255, 255, 255, 0)" fill="none" class="stroke" mask="url(#Clip1515)" />
  </g>
</svg>