<?xml version="1.0" encoding="utf-8"?>
<svg version="1.1" xmlns:xlink="http://www.w3.org/1999/xlink" width="50px" height="50px" xmlns="http://www.w3.org/2000/svg">
  <defs>
    <pattern id="BGPattern" patternUnits="userSpaceOnUse" alignment="0 0" imageRepeat="None" />
    <mask fill="white" id="Clip1252">
      <path d="M 0 25  C 0 11.189516129032256  11.189516129032256 0  25 0  C 38.810483870967744 0  50 11.189516129032256  50 25  C 50 38.810483870967744  38.810483870967744 50  25 50  C 11.189516129032256 50  0 38.810483870967744  0 25  Z M 22.046370967741936 11.008064516129025  C 21.08870967741936 11.975806451612897  21.108870967741936 13.538306451612897  22.086693548387103 14.475806451612897  L 29.6975806451613 22  L 11.290322580645153 22  C 9.949596774193552 21.774193548387103  8.870967741935488 22.852822580645153  8.870967741935488 24.19354838709677  L 8.870967741935488 25.80645161290323  C 8.870967741935488 27.147177419354847  9.949596774193552 28.225806451612893  11.290322580645153 28  L 29.6975806451613 28  L 22.086693548387103 35.5241935483871  C 21.108870967741936 36.4616935483871  21.08870967741936 38.0241935483871  22.046370967741936 38.981854838709694  L 23.155241935483872 40.080645161290306  C 24.102822580645167 41.028225806451616  25.635080645161278 41.028225806451616  26.5725806451613 40.080645161290306  L 39.94959677419355 26.713709677419363  C 40.89717741935482 25.76612903225808  40.89717741935482 24.23387096774195  39.94959677419355 23.29637096774195  L 26.5725806451613 9.909274193548384  C 25.624999999999996 8.961693548387103  24.092741935483872 8.961693548387103  23.155241935483872 9.909274193548384  L 22.046370967741936 11.008064516129025  Z " fill-rule="evenodd" />
    </mask>
  </defs>
  <g>
    <path d="M 0 25  C 0 11.189516129032256  11.189516129032256 0  25 0  C 38.810483870967744 0  50 11.189516129032256  50 25  C 50 38.810483870967744  38.810483870967744 50  25 50  C 11.189516129032256 50  0 38.810483870967744  0 25  Z M 22.046370967741936 11.008064516129025  C 21.08870967741936 11.975806451612897  21.108870967741936 13.538306451612897  22.086693548387103 14.475806451612897  L 29.6975806451613 22  L 11.290322580645153 22  C 9.949596774193552 21.774193548387103  8.870967741935488 22.852822580645153  8.870967741935488 24.19354838709677  L 8.870967741935488 25.80645161290323  C 8.870967741935488 27.147177419354847  9.949596774193552 28.225806451612893  11.290322580645153 28  L 29.6975806451613 28  L 22.086693548387103 35.5241935483871  C 21.108870967741936 36.4616935483871  21.08870967741936 38.0241935483871  22.046370967741936 38.981854838709694  L 23.155241935483872 40.080645161290306  C 24.102822580645167 41.028225806451616  25.635080645161278 41.028225806451616  26.5725806451613 40.080645161290306  L 39.94959677419355 26.713709677419363  C 40.89717741935482 25.76612903225808  40.89717741935482 24.23387096774195  39.94959677419355 23.29637096774195  L 26.5725806451613 9.909274193548384  C 25.624999999999996 8.961693548387103  24.092741935483872 8.961693548387103  23.155241935483872 9.909274193548384  L 22.046370967741936 11.008064516129025  Z " fill-rule="nonzero" fill="rgba(0, 0, 0, 1)" stroke="none" class="fill" />
    <path d="M 0 25  C 0 11.189516129032256  11.189516129032256 0  25 0  C 38.810483870967744 0  50 11.189516129032256  50 25  C 50 38.810483870967744  38.810483870967744 50  25 50  C 11.189516129032256 50  0 38.810483870967744  0 25  Z " stroke-width="0" stroke-dasharray="0" stroke="rgba(255, 255, 255, 0)" fill="none" class="stroke" mask="url(#Clip1252)" />
    <path d="M 22.046370967741936 11.008064516129025  C 21.08870967741936 11.975806451612897  21.108870967741936 13.538306451612897  22.086693548387103 14.475806451612897  L 29.6975806451613 22  L 11.290322580645153 22  C 9.949596774193552 21.774193548387103  8.870967741935488 22.852822580645153  8.870967741935488 24.19354838709677  L 8.870967741935488 25.80645161290323  C 8.870967741935488 27.147177419354847  9.949596774193552 28.225806451612893  11.290322580645153 28  L 29.6975806451613 28  L 22.086693548387103 35.5241935483871  C 21.108870967741936 36.4616935483871  21.08870967741936 38.0241935483871  22.046370967741936 38.981854838709694  L 23.155241935483872 40.080645161290306  C 24.102822580645167 41.028225806451616  25.635080645161278 41.028225806451616  26.5725806451613 40.080645161290306  L 39.94959677419355 26.713709677419363  C 40.89717741935482 25.76612903225808  40.89717741935482 24.23387096774195  39.94959677419355 23.29637096774195  L 26.5725806451613 9.909274193548384  C 25.624999999999996 8.961693548387103  24.092741935483872 8.961693548387103  23.155241935483872 9.909274193548384  L 22.046370967741936 11.008064516129025  Z " stroke-width="0" stroke-dasharray="0" stroke="rgba(255, 255, 255, 0)" fill="none" class="stroke" mask="url(#Clip1252)" />
  </g>
</svg>