<?xml version="1.0" encoding="utf-8"?>
<svg version="1.1" xmlns:xlink="http://www.w3.org/1999/xlink" width="20px" height="25px" xmlns="http://www.w3.org/2000/svg">
  <defs>
    <pattern id="BGPattern" patternUnits="userSpaceOnUse" alignment="0 0" imageRepeat="None" />
    <mask fill="white" id="Clip4944">
      <path d="M 10 0.9871641608217272  C 5.729316678282952 0.9871641608217272  2.1645993559986536 4.246399411569821  1.7829999999999995 8.5  L 1 8.5  C 0.5860757798001028 8.500408662596472  0.2507404659670045 8.83607521253957  0.2507404659670045 9.249999634473346  C 0.2507404659670045 9.287153262744678  0.25350124490832115 9.32425553393821  0.2589999999999999 9.361  L 2.317 23.084499999999995  C 2.482421497986355 24.184838603941287  3.4272968319089685 24.999012559014957  4.540000000000001 25  L 15.457 25  C 16.570272126871437 24.99975429773363  17.51599356688781 24.185400771839557  17.6815 23.084500000000002  L 19.741 9.361000000000002  C 19.74649875509168 9.324255533938208  19.749259534032994 9.287153262744681  19.749259534032994 9.249999634473346  C 19.749259534032994 8.83607521253957  19.413924220199895 8.500408662596472  19 8.5  L 18.217 8.5  C 17.835400644001346 4.246399411569821  14.270683321717048 0.9871641608217272  10 0.9871641608217272  Z M 16.708 8.5  L 3.290499999999999 8.5  C 3.67017821439514 5.081442042472448  6.559672401593293 2.4950996158232837  9.999249999999998 2.4950996158232837  C 13.438827598406704 2.4950996158232837  16.328321785604853 5.081442042472448  16.708 8.5  Z M 1.8715000000000002 10  L 18.1285 10  L 18.13 10  L 16.198 22.861  C 16.143082633198865 23.227978139005206  15.828064330586923 23.49963359834263  15.457 23.5  L 4.540000000000001 23.5  C 4.1695049086305715 23.49889294500516  3.8553318643488677 23.22741684588953  3.8004999999999995 22.861  L 1.8715000000000002 10  Z " fill-rule="evenodd" />
    </mask>
  </defs>
  <g>
    <path d="M 10 0.9871641608217272  C 5.729316678282952 0.9871641608217272  2.1645993559986536 4.246399411569821  1.7829999999999995 8.5  L 1 8.5  C 0.5860757798001028 8.500408662596472  0.2507404659670045 8.83607521253957  0.2507404659670045 9.249999634473346  C 0.2507404659670045 9.287153262744678  0.25350124490832115 9.32425553393821  0.2589999999999999 9.361  L 2.317 23.084499999999995  C 2.482421497986355 24.184838603941287  3.4272968319089685 24.999012559014957  4.540000000000001 25  L 15.457 25  C 16.570272126871437 24.99975429773363  17.51599356688781 24.185400771839557  17.6815 23.084500000000002  L 19.741 9.361000000000002  C 19.74649875509168 9.324255533938208  19.749259534032994 9.287153262744681  19.749259534032994 9.249999634473346  C 19.749259534032994 8.83607521253957  19.413924220199895 8.500408662596472  19 8.5  L 18.217 8.5  C 17.835400644001346 4.246399411569821  14.270683321717048 0.9871641608217272  10 0.9871641608217272  Z M 16.708 8.5  L 3.290499999999999 8.5  C 3.67017821439514 5.081442042472448  6.559672401593293 2.4950996158232837  9.999249999999998 2.4950996158232837  C 13.438827598406704 2.4950996158232837  16.328321785604853 5.081442042472448  16.708 8.5  Z M 1.8715000000000002 10  L 18.1285 10  L 18.13 10  L 16.198 22.861  C 16.143082633198865 23.227978139005206  15.828064330586923 23.49963359834263  15.457 23.5  L 4.540000000000001 23.5  C 4.1695049086305715 23.49889294500516  3.8553318643488677 23.22741684588953  3.8004999999999995 22.861  L 1.8715000000000002 10  Z " fill-rule="nonzero" fill="rgba(0, 0, 0, 1)" stroke="none" class="fill" />
    <path d="M 10 0.9871641608217272  C 5.729316678282952 0.9871641608217272  2.1645993559986536 4.246399411569821  1.7829999999999995 8.5  L 1 8.5  C 0.5860757798001028 8.500408662596472  0.2507404659670045 8.83607521253957  0.2507404659670045 9.249999634473346  C 0.2507404659670045 9.287153262744678  0.25350124490832115 9.32425553393821  0.2589999999999999 9.361  L 2.317 23.084499999999995  C 2.482421497986355 24.184838603941287  3.4272968319089685 24.999012559014957  4.540000000000001 25  L 15.457 25  C 16.570272126871437 24.99975429773363  17.51599356688781 24.185400771839557  17.6815 23.084500000000002  L 19.741 9.361000000000002  C 19.74649875509168 9.324255533938208  19.749259534032994 9.287153262744681  19.749259534032994 9.249999634473346  C 19.749259534032994 8.83607521253957  19.413924220199895 8.500408662596472  19 8.5  L 18.217 8.5  C 17.835400644001346 4.246399411569821  14.270683321717048 0.9871641608217272  10 0.9871641608217272  Z " stroke-width="0" stroke-dasharray="0" stroke="rgba(255, 255, 255, 0)" fill="none" class="stroke" mask="url(#Clip4944)" />
    <path d="M 16.708 8.5  L 3.290499999999999 8.5  C 3.67017821439514 5.081442042472448  6.559672401593293 2.4950996158232837  9.999249999999998 2.4950996158232837  C 13.438827598406704 2.4950996158232837  16.328321785604853 5.081442042472448  16.708 8.5  Z " stroke-width="0" stroke-dasharray="0" stroke="rgba(255, 255, 255, 0)" fill="none" class="stroke" mask="url(#Clip4944)" />
    <path d="M 1.8715000000000002 10  L 18.1285 10  L 18.13 10  L 16.198 22.861  C 16.143082633198865 23.227978139005206  15.828064330586923 23.49963359834263  15.457 23.5  L 4.540000000000001 23.5  C 4.1695049086305715 23.49889294500516  3.8553318643488677 23.22741684588953  3.8004999999999995 22.861  L 1.8715000000000002 10  Z " stroke-width="0" stroke-dasharray="0" stroke="rgba(255, 255, 255, 0)" fill="none" class="stroke" mask="url(#Clip4944)" />
  </g>
</svg>