<?xml version="1.0" encoding="utf-8"?>
<svg version="1.1" xmlns:xlink="http://www.w3.org/1999/xlink" width="50px" height="39px" xmlns="http://www.w3.org/2000/svg">
  <defs>
    <pattern id="BGPattern" patternUnits="userSpaceOnUse" alignment="0 0" imageRepeat="None" />
    <mask fill="white" id="Clip1437">
      <path d="M 18.055555555555543 27.7777777777778  C 28.029513888888886 27.7777777777778  36.111111111111114 21.5625  36.111111111111114 13.888888888888886  C 36.111111111111114 6.2152777777777715  28.029513888888886 0  18.055555555555543 0  C 8.081597222222229 0  0 6.2152777777777715  0 13.888888888888886  C 0 16.866319444444457  1.2239583333333428 19.609375  3.298611111111114 21.875  C 2.135416666666657 24.496527777777803  0.21701388888888573 26.57986111111114  0.19097222222222854 26.6059027777778  C 0 26.80555555555557  -0.05208333333334281 27.100694444444454  0.06076388888888574 27.361111111111118  C 0.17361111111111427 27.6215277777778  0.4166666666666572 27.7777777777778  0.6944444444444571 27.7777777777778  C 3.8715277777777715 27.7777777777778  6.501736111111114 26.710069444444457  8.394097222222229 25.607638888888918  C 11.189236111111114 26.970486111111143  14.496527777777771 27.7777777777778  18.055555555555543 27.7777777777778  Z M 49.80902777777777 37.717013888888914  C 49.782986111111114 37.69097222222223  47.86458333333334 35.61631944444446  46.701388888888886 32.98611111111114  C 48.77604166666666 30.729166666666686  50 27.97743055555557  50 25.00000000000003  C 50 19.192708333333343  45.35590277777777 14.21875  38.77604166666666 12.144097222222229  C 38.85416666666666 12.717013888888886  38.888888888888886 13.298611111111114  38.888888888888886 13.888888888888886  C 38.888888888888886 23.081597222222232  29.539930555555543 30.55555555555557  18.055555555555543 30.55555555555557  C 17.118055555555543 30.55555555555557  16.20659722222223 30.486111111111143  15.303819444444459 30.39062500000003  C 18.038194444444457 35.38194444444446  24.461805555555543 38.888888888888914  31.944444444444457 38.888888888888914  C 35.50347222222223 38.888888888888914  38.810763888888886 38.0902777777778  41.60590277777777 36.71875000000003  C 43.498263888888886 37.82118055555557  46.12847222222223 38.888888888888914  49.30555555555554 38.888888888888914  C 49.58333333333334 38.888888888888914  49.83506944444446 38.72395833333337  49.939236111111114 38.47222222222223  C 50.05208333333332 38.22048611111114  50 37.92534722222223  49.80902777777777 37.717013888888914  Z " fill-rule="evenodd" />
    </mask>
  </defs>
  <g>
    <path d="M 18.055555555555543 27.7777777777778  C 28.029513888888886 27.7777777777778  36.111111111111114 21.5625  36.111111111111114 13.888888888888886  C 36.111111111111114 6.2152777777777715  28.029513888888886 0  18.055555555555543 0  C 8.081597222222229 0  0 6.2152777777777715  0 13.888888888888886  C 0 16.866319444444457  1.2239583333333428 19.609375  3.298611111111114 21.875  C 2.135416666666657 24.496527777777803  0.21701388888888573 26.57986111111114  0.19097222222222854 26.6059027777778  C 0 26.80555555555557  -0.05208333333334281 27.100694444444454  0.06076388888888574 27.361111111111118  C 0.17361111111111427 27.6215277777778  0.4166666666666572 27.7777777777778  0.6944444444444571 27.7777777777778  C 3.8715277777777715 27.7777777777778  6.501736111111114 26.710069444444457  8.394097222222229 25.607638888888918  C 11.189236111111114 26.970486111111143  14.496527777777771 27.7777777777778  18.055555555555543 27.7777777777778  Z M 49.80902777777777 37.717013888888914  C 49.782986111111114 37.69097222222223  47.86458333333334 35.61631944444446  46.701388888888886 32.98611111111114  C 48.77604166666666 30.729166666666686  50 27.97743055555557  50 25.00000000000003  C 50 19.192708333333343  45.35590277777777 14.21875  38.77604166666666 12.144097222222229  C 38.85416666666666 12.717013888888886  38.888888888888886 13.298611111111114  38.888888888888886 13.888888888888886  C 38.888888888888886 23.081597222222232  29.539930555555543 30.55555555555557  18.055555555555543 30.55555555555557  C 17.118055555555543 30.55555555555557  16.20659722222223 30.486111111111143  15.303819444444459 30.39062500000003  C 18.038194444444457 35.38194444444446  24.461805555555543 38.888888888888914  31.944444444444457 38.888888888888914  C 35.50347222222223 38.888888888888914  38.810763888888886 38.0902777777778  41.60590277777777 36.71875000000003  C 43.498263888888886 37.82118055555557  46.12847222222223 38.888888888888914  49.30555555555554 38.888888888888914  C 49.58333333333334 38.888888888888914  49.83506944444446 38.72395833333337  49.939236111111114 38.47222222222223  C 50.05208333333332 38.22048611111114  50 37.92534722222223  49.80902777777777 37.717013888888914  Z " fill-rule="nonzero" fill="rgba(0, 0, 0, 1)" stroke="none" class="fill" />
    <path d="M 18.055555555555543 27.7777777777778  C 28.029513888888886 27.7777777777778  36.111111111111114 21.5625  36.111111111111114 13.888888888888886  C 36.111111111111114 6.2152777777777715  28.029513888888886 0  18.055555555555543 0  C 8.081597222222229 0  0 6.2152777777777715  0 13.888888888888886  C 0 16.866319444444457  1.2239583333333428 19.609375  3.298611111111114 21.875  C 2.135416666666657 24.496527777777803  0.21701388888888573 26.57986111111114  0.19097222222222854 26.6059027777778  C 0 26.80555555555557  -0.05208333333334281 27.100694444444454  0.06076388888888574 27.361111111111118  C 0.17361111111111427 27.6215277777778  0.4166666666666572 27.7777777777778  0.6944444444444571 27.7777777777778  C 3.8715277777777715 27.7777777777778  6.501736111111114 26.710069444444457  8.394097222222229 25.607638888888918  C 11.189236111111114 26.970486111111143  14.496527777777771 27.7777777777778  18.055555555555543 27.7777777777778  Z " stroke-width="0" stroke-dasharray="0" stroke="rgba(255, 255, 255, 0)" fill="none" class="stroke" mask="url(#Clip1437)" />
    <path d="M 49.80902777777777 37.717013888888914  C 49.782986111111114 37.69097222222223  47.86458333333334 35.61631944444446  46.701388888888886 32.98611111111114  C 48.77604166666666 30.729166666666686  50 27.97743055555557  50 25.00000000000003  C 50 19.192708333333343  45.35590277777777 14.21875  38.77604166666666 12.144097222222229  C 38.85416666666666 12.717013888888886  38.888888888888886 13.298611111111114  38.888888888888886 13.888888888888886  C 38.888888888888886 23.081597222222232  29.539930555555543 30.55555555555557  18.055555555555543 30.55555555555557  C 17.118055555555543 30.55555555555557  16.20659722222223 30.486111111111143  15.303819444444459 30.39062500000003  C 18.038194444444457 35.38194444444446  24.461805555555543 38.888888888888914  31.944444444444457 38.888888888888914  C 35.50347222222223 38.888888888888914  38.810763888888886 38.0902777777778  41.60590277777777 36.71875000000003  C 43.498263888888886 37.82118055555557  46.12847222222223 38.888888888888914  49.30555555555554 38.888888888888914  C 49.58333333333334 38.888888888888914  49.83506944444446 38.72395833333337  49.939236111111114 38.47222222222223  C 50.05208333333332 38.22048611111114  50 37.92534722222223  49.80902777777777 37.717013888888914  Z " stroke-width="0" stroke-dasharray="0" stroke="rgba(255, 255, 255, 0)" fill="none" class="stroke" mask="url(#Clip1437)" />
  </g>
</svg>