<?xml version="1.0" encoding="utf-8"?>
<svg version="1.1" xmlns:xlink="http://www.w3.org/1999/xlink" width="10px" height="14px" xmlns="http://www.w3.org/2000/svg">
  <defs>
    <pattern id="BGPattern" patternUnits="userSpaceOnUse" alignment="0 0" imageRepeat="None" />
    <mask fill="white" id="Clip4045">
      <path d="M 0 13.34  L 9.759999999999998 3.579999999999999  C 9.096346424823388 1.5106505203280745  7.172020846536906 0.10692908852519079  4.998856486240344 0.10692908852519079  C 2.279102436794158 0.10692908852519079  0.05816416430399407 2.280867965789497  0 5  L 0 13.34  Z " fill-rule="evenodd" />
    </mask>
  </defs>
  <g transform="matrix(1 0 0 1 -11 -2 )">
    <path d="M 0 13.34  L 9.759999999999998 3.579999999999999  C 9.096346424823388 1.5106505203280745  7.172020846536906 0.10692908852519079  4.998856486240344 0.10692908852519079  C 2.279102436794158 0.10692908852519079  0.05816416430399407 2.280867965789497  0 5  L 0 13.34  Z " fill-rule="nonzero" fill="rgba(0, 0, 0, 1)" stroke="none" transform="matrix(1 0 0 1 11 2 )" class="fill" />
    <path d="M 0 13.34  L 9.759999999999998 3.579999999999999  C 9.096346424823388 1.5106505203280745  7.172020846536906 0.10692908852519079  4.998856486240344 0.10692908852519079  C 2.279102436794158 0.10692908852519079  0.05816416430399407 2.280867965789497  0 5  L 0 13.34  Z " stroke-width="0" stroke-dasharray="0" stroke="rgba(255, 255, 255, 0)" fill="none" transform="matrix(1 0 0 1 11 2 )" class="stroke" mask="url(#Clip4045)" />
  </g>
</svg>