<?xml version="1.0" encoding="utf-8"?>
<svg version="1.1" xmlns:xlink="http://www.w3.org/1999/xlink" width="50px" height="42px" xmlns="http://www.w3.org/2000/svg">
  <defs>
    <pattern id="BGPattern" patternUnits="userSpaceOnUse" alignment="0 0" imageRepeat="None" />
    <mask fill="white" id="Clip2016">
      <path d="M 44.074675324675354 20.698051948051955  C 49.172077922077904 20.016233766233768  51.59090909090912 13.977272727272748  48.863636363636374 9.6266233766234  L 43.59577922077921 1.2175324675324646  C 43.125 0.4626623376623229  42.28896103896102 0  41.39610389610391 0  L 8.60389610389609 0  C 7.711038961038979 0  6.875000000000001 0.4626623376623229  6.404220779220793 1.2175324675324646  L 1.136363636363626 9.6266233766234  C -1.5827922077921812 13.969155844155864  0.8279220779220964 20.008116883116884  5.909090909090935 20.698051948051955  C 6.274350649350652 20.746753246753258  6.647727272727252 20.77110389610391  7.02110389610391 20.77110389610391  C 9.423701298701303 20.77110389610391  11.550324675324703 19.715909090909122  13.011363636363626 18.08441558441558  C 14.472402597402606 19.715909090909122  16.607142857142833 20.77110389610391  19.0016233766234 20.77110389610391  C 21.404220779220793 20.77110389610391  23.530844155844136 19.715909090909122  24.991883116883116 18.08441558441558  C 26.452922077922096 19.715909090909122  28.587662337662323 20.77110389610391  30.98214285714283 20.77110389610391  C 33.38474025974028 20.77110389610391  35.511363636363626 19.715909090909122  36.972402597402606 18.08441558441558  C 38.44155844155847 19.715909090909122  40.56818181818181 20.77110389610391  42.96266233766232 20.77110389610391  C 43.344155844155864 20.77110389610391  43.70941558441558 20.746753246753258  44.074675324675354 20.698051948051955  Z M 44.45616883116884 23.279220779220793  C 43.96103896103898 23.344155844155864  43.47402597402595 23.376623376623403  42.97889610389609 23.376623376623403  C 42.16720779220782 23.376623376623403  41.363636363636374 23.25487012987014  40.58441558441558 23.068181818181813  L 40.58441558441558 31  L 9.41558441558442 31  L 9.41558441558442 23.068181818181813  C 8.636363636363626 23.246753246753254  7.832792207792181 23.376623376623403  7.02110389610391 23.376623376623403  C 6.534090909090935 23.376623376623403  6.03896103896102 23.344155844155864  5.560064935064929 23.279220779220793  C 5.10551948051949 23.214285714285722  4.659090909090935 23.108766233766232  5 22.987012987013035  L 5 38.96103896103898  C 4.228896103896091 40.39772727272731  5.389610389610368 41.55844155844159  6.826298701298697 41  L 43.18993506493507 41  C 44.6266233766234 41.55844155844159  45.78733766233768 40.39772727272731  45 38.96103896103898  L 45 22.987012987013035  C 45.34902597402595 23.116883116883113  44.91071428571428 23.222402597402606  44.45616883116884 23.279220779220793  Z " fill-rule="evenodd" />
    </mask>
  </defs>
  <g>
    <path d="M 44.074675324675354 20.698051948051955  C 49.172077922077904 20.016233766233768  51.59090909090912 13.977272727272748  48.863636363636374 9.6266233766234  L 43.59577922077921 1.2175324675324646  C 43.125 0.4626623376623229  42.28896103896102 0  41.39610389610391 0  L 8.60389610389609 0  C 7.711038961038979 0  6.875000000000001 0.4626623376623229  6.404220779220793 1.2175324675324646  L 1.136363636363626 9.6266233766234  C -1.5827922077921812 13.969155844155864  0.8279220779220964 20.008116883116884  5.909090909090935 20.698051948051955  C 6.274350649350652 20.746753246753258  6.647727272727252 20.77110389610391  7.02110389610391 20.77110389610391  C 9.423701298701303 20.77110389610391  11.550324675324703 19.715909090909122  13.011363636363626 18.08441558441558  C 14.472402597402606 19.715909090909122  16.607142857142833 20.77110389610391  19.0016233766234 20.77110389610391  C 21.404220779220793 20.77110389610391  23.530844155844136 19.715909090909122  24.991883116883116 18.08441558441558  C 26.452922077922096 19.715909090909122  28.587662337662323 20.77110389610391  30.98214285714283 20.77110389610391  C 33.38474025974028 20.77110389610391  35.511363636363626 19.715909090909122  36.972402597402606 18.08441558441558  C 38.44155844155847 19.715909090909122  40.56818181818181 20.77110389610391  42.96266233766232 20.77110389610391  C 43.344155844155864 20.77110389610391  43.70941558441558 20.746753246753258  44.074675324675354 20.698051948051955  Z M 44.45616883116884 23.279220779220793  C 43.96103896103898 23.344155844155864  43.47402597402595 23.376623376623403  42.97889610389609 23.376623376623403  C 42.16720779220782 23.376623376623403  41.363636363636374 23.25487012987014  40.58441558441558 23.068181818181813  L 40.58441558441558 31  L 9.41558441558442 31  L 9.41558441558442 23.068181818181813  C 8.636363636363626 23.246753246753254  7.832792207792181 23.376623376623403  7.02110389610391 23.376623376623403  C 6.534090909090935 23.376623376623403  6.03896103896102 23.344155844155864  5.560064935064929 23.279220779220793  C 5.10551948051949 23.214285714285722  4.659090909090935 23.108766233766232  5 22.987012987013035  L 5 38.96103896103898  C 4.228896103896091 40.39772727272731  5.389610389610368 41.55844155844159  6.826298701298697 41  L 43.18993506493507 41  C 44.6266233766234 41.55844155844159  45.78733766233768 40.39772727272731  45 38.96103896103898  L 45 22.987012987013035  C 45.34902597402595 23.116883116883113  44.91071428571428 23.222402597402606  44.45616883116884 23.279220779220793  Z " fill-rule="nonzero" fill="rgba(0, 0, 0, 1)" stroke="none" class="fill" />
    <path d="M 44.074675324675354 20.698051948051955  C 49.172077922077904 20.016233766233768  51.59090909090912 13.977272727272748  48.863636363636374 9.6266233766234  L 43.59577922077921 1.2175324675324646  C 43.125 0.4626623376623229  42.28896103896102 0  41.39610389610391 0  L 8.60389610389609 0  C 7.711038961038979 0  6.875000000000001 0.4626623376623229  6.404220779220793 1.2175324675324646  L 1.136363636363626 9.6266233766234  C -1.5827922077921812 13.969155844155864  0.8279220779220964 20.008116883116884  5.909090909090935 20.698051948051955  C 6.274350649350652 20.746753246753258  6.647727272727252 20.77110389610391  7.02110389610391 20.77110389610391  C 9.423701298701303 20.77110389610391  11.550324675324703 19.715909090909122  13.011363636363626 18.08441558441558  C 14.472402597402606 19.715909090909122  16.607142857142833 20.77110389610391  19.0016233766234 20.77110389610391  C 21.404220779220793 20.77110389610391  23.530844155844136 19.715909090909122  24.991883116883116 18.08441558441558  C 26.452922077922096 19.715909090909122  28.587662337662323 20.77110389610391  30.98214285714283 20.77110389610391  C 33.38474025974028 20.77110389610391  35.511363636363626 19.715909090909122  36.972402597402606 18.08441558441558  C 38.44155844155847 19.715909090909122  40.56818181818181 20.77110389610391  42.96266233766232 20.77110389610391  C 43.344155844155864 20.77110389610391  43.70941558441558 20.746753246753258  44.074675324675354 20.698051948051955  Z " stroke-width="0" stroke-dasharray="0" stroke="rgba(255, 255, 255, 0)" fill="none" class="stroke" mask="url(#Clip2016)" />
    <path d="M 44.45616883116884 23.279220779220793  C 43.96103896103898 23.344155844155864  43.47402597402595 23.376623376623403  42.97889610389609 23.376623376623403  C 42.16720779220782 23.376623376623403  41.363636363636374 23.25487012987014  40.58441558441558 23.068181818181813  L 40.58441558441558 31  L 9.41558441558442 31  L 9.41558441558442 23.068181818181813  C 8.636363636363626 23.246753246753254  7.832792207792181 23.376623376623403  7.02110389610391 23.376623376623403  C 6.534090909090935 23.376623376623403  6.03896103896102 23.344155844155864  5.560064935064929 23.279220779220793  C 5.10551948051949 23.214285714285722  4.659090909090935 23.108766233766232  5 22.987012987013035  L 5 38.96103896103898  C 4.228896103896091 40.39772727272731  5.389610389610368 41.55844155844159  6.826298701298697 41  L 43.18993506493507 41  C 44.6266233766234 41.55844155844159  45.78733766233768 40.39772727272731  45 38.96103896103898  L 45 22.987012987013035  C 45.34902597402595 23.116883116883113  44.91071428571428 23.222402597402606  44.45616883116884 23.279220779220793  Z " stroke-width="0" stroke-dasharray="0" stroke="rgba(255, 255, 255, 0)" fill="none" class="stroke" mask="url(#Clip2016)" />
  </g>
</svg>