<?xml version="1.0" encoding="utf-8"?>
<svg version="1.1" xmlns:xlink="http://www.w3.org/1999/xlink" width="10px" height="14px" xmlns="http://www.w3.org/2000/svg">
  <defs>
    <pattern id="BGPattern" patternUnits="userSpaceOnUse" alignment="0 0" imageRepeat="None" />
    <mask fill="white" id="Clip6488">
      <path d="M 1.25 2  C 0.8357864376269042 2  0.5 1.6642135623730958  0.5 1.25  C 0.5 0.8357864376269051  0.8357864376269042 0.5  1.25 0.5  L 8.75 0.5  C 9.164213562373096 0.5  9.5 0.8357864376269051  9.5 1.25  C 9.5 1.6642135623730958  9.164213562373096 2  8.75 2  L 1.25 2  Z M 1.25 14  C 0.8357864376269042 14  0.5 13.664213562373096  0.5 13.25  C 0.5 12.835786437626904  0.8357864376269042 12.5  1.25 12.5  L 8.75 12.5  C 9.164213562373096 12.5  9.5 12.835786437626904  9.5 13.25  C 9.5 13.664213562373096  9.164213562373096 14  8.75 14  L 1.25 14  Z " fill-rule="evenodd" />
    </mask>
  </defs>
  <g transform="matrix(1 0 0 1 -10 -6 )">
    <path d="M 1.25 2  C 0.8357864376269042 2  0.5 1.6642135623730958  0.5 1.25  C 0.5 0.8357864376269051  0.8357864376269042 0.5  1.25 0.5  L 8.75 0.5  C 9.164213562373096 0.5  9.5 0.8357864376269051  9.5 1.25  C 9.5 1.6642135623730958  9.164213562373096 2  8.75 2  L 1.25 2  Z M 1.25 14  C 0.8357864376269042 14  0.5 13.664213562373096  0.5 13.25  C 0.5 12.835786437626904  0.8357864376269042 12.5  1.25 12.5  L 8.75 12.5  C 9.164213562373096 12.5  9.5 12.835786437626904  9.5 13.25  C 9.5 13.664213562373096  9.164213562373096 14  8.75 14  L 1.25 14  Z " fill-rule="nonzero" fill="rgba(0, 0, 0, 1)" stroke="none" transform="matrix(1 0 0 1 10 6 )" class="fill" />
    <path d="M 1.25 2  C 0.8357864376269042 2  0.5 1.6642135623730958  0.5 1.25  C 0.5 0.8357864376269051  0.8357864376269042 0.5  1.25 0.5  L 8.75 0.5  C 9.164213562373096 0.5  9.5 0.8357864376269051  9.5 1.25  C 9.5 1.6642135623730958  9.164213562373096 2  8.75 2  L 1.25 2  Z " stroke-width="0" stroke-dasharray="0" stroke="rgba(255, 255, 255, 0)" fill="none" transform="matrix(1 0 0 1 10 6 )" class="stroke" mask="url(#Clip6488)" />
    <path d="M 1.25 14  C 0.8357864376269042 14  0.5 13.664213562373096  0.5 13.25  C 0.5 12.835786437626904  0.8357864376269042 12.5  1.25 12.5  L 8.75 12.5  C 9.164213562373096 12.5  9.5 12.835786437626904  9.5 13.25  C 9.5 13.664213562373096  9.164213562373096 14  8.75 14  L 1.25 14  Z " stroke-width="0" stroke-dasharray="0" stroke="rgba(255, 255, 255, 0)" fill="none" transform="matrix(1 0 0 1 10 6 )" class="stroke" mask="url(#Clip6488)" />
  </g>
</svg>