<?xml version="1.0" encoding="utf-8"?>
<svg version="1.1" xmlns:xlink="http://www.w3.org/1999/xlink" width="50px" height="50px" xmlns="http://www.w3.org/2000/svg">
  <defs>
    <pattern id="BGPattern" patternUnits="userSpaceOnUse" alignment="0 0" imageRepeat="None" />
    <mask fill="white" id="Clip1836">
      <path d="M 50 44.64285714285717  C 50 47.600446428571445  47.600446428571445 50  44.64285714285714 50  L 5.357142857142861 50  C 2.3995535714285836 50  0 47.600446428571445  0 44.64285714285717  L 0 5.357142857142833  C 0 2.399553571428555  2.3995535714285836 0  5.357142857142861 0  L 44.64285714285714 0  C 47.600446428571445 0  50 2.399553571428555  50 5.357142857142833  L 50 44.64285714285717  Z M 27.533482142857142 16.294642857142833  C 27.254464285714274 16.026785714285722  26.830357142857135 16.026785714285722  26.573660714285722 16.283482142857167  L 11.428571428571416 31.428571428571445  L 10.725446428571416 37.80133928571428  C 10.636160714285722 38.649553571428555  11.350446428571416 39.375  12.209821428571416 39.28571428571428  L 18.582589285714278 38.58258928571428  L 33.727678571428555 23.4375  C 33.984375 23.180803571428555  33.984375 22.756696428571445  33.727678571428555 22.488839285714278  L 27.533482142857142 16.294642857142833  Z M 38.50446428571428 18.638392857142833  C 39.54241071428572 17.600446428571445  39.54241071428572 15.904017857142833  38.50446428571428 14.85491071428572  L 35.14508928571428 11.495535714285722  C 34.09598214285714 10.446428571428555  32.399553571428555 10.446428571428555  31.36160714285714 11.495535714285722  L 28.783482142857135 14.07366071428572  C 28.526785714285722 14.330357142857167  28.526785714285722 14.754464285714278  28.783482142857135 15.022321428571445  L 34.977678571428555 21.216517857142833  C 35.234375 21.473214285714278  35.65848214285714 21.473214285714278  35.92633928571428 21.216517857142833  L 38.50446428571428 18.638392857142833  Z " fill-rule="evenodd" />
    </mask>
  </defs>
  <g>
    <path d="M 50 44.64285714285717  C 50 47.600446428571445  47.600446428571445 50  44.64285714285714 50  L 5.357142857142861 50  C 2.3995535714285836 50  0 47.600446428571445  0 44.64285714285717  L 0 5.357142857142833  C 0 2.399553571428555  2.3995535714285836 0  5.357142857142861 0  L 44.64285714285714 0  C 47.600446428571445 0  50 2.399553571428555  50 5.357142857142833  L 50 44.64285714285717  Z M 27.533482142857142 16.294642857142833  C 27.254464285714274 16.026785714285722  26.830357142857135 16.026785714285722  26.573660714285722 16.283482142857167  L 11.428571428571416 31.428571428571445  L 10.725446428571416 37.80133928571428  C 10.636160714285722 38.649553571428555  11.350446428571416 39.375  12.209821428571416 39.28571428571428  L 18.582589285714278 38.58258928571428  L 33.727678571428555 23.4375  C 33.984375 23.180803571428555  33.984375 22.756696428571445  33.727678571428555 22.488839285714278  L 27.533482142857142 16.294642857142833  Z M 38.50446428571428 18.638392857142833  C 39.54241071428572 17.600446428571445  39.54241071428572 15.904017857142833  38.50446428571428 14.85491071428572  L 35.14508928571428 11.495535714285722  C 34.09598214285714 10.446428571428555  32.399553571428555 10.446428571428555  31.36160714285714 11.495535714285722  L 28.783482142857135 14.07366071428572  C 28.526785714285722 14.330357142857167  28.526785714285722 14.754464285714278  28.783482142857135 15.022321428571445  L 34.977678571428555 21.216517857142833  C 35.234375 21.473214285714278  35.65848214285714 21.473214285714278  35.92633928571428 21.216517857142833  L 38.50446428571428 18.638392857142833  Z " fill-rule="nonzero" fill="rgba(0, 0, 0, 1)" stroke="none" class="fill" />
    <path d="M 50 44.64285714285717  C 50 47.600446428571445  47.600446428571445 50  44.64285714285714 50  L 5.357142857142861 50  C 2.3995535714285836 50  0 47.600446428571445  0 44.64285714285717  L 0 5.357142857142833  C 0 2.399553571428555  2.3995535714285836 0  5.357142857142861 0  L 44.64285714285714 0  C 47.600446428571445 0  50 2.399553571428555  50 5.357142857142833  L 50 44.64285714285717  Z " stroke-width="0" stroke-dasharray="0" stroke="rgba(255, 255, 255, 0)" fill="none" class="stroke" mask="url(#Clip1836)" />
    <path d="M 27.533482142857142 16.294642857142833  C 27.254464285714274 16.026785714285722  26.830357142857135 16.026785714285722  26.573660714285722 16.283482142857167  L 11.428571428571416 31.428571428571445  L 10.725446428571416 37.80133928571428  C 10.636160714285722 38.649553571428555  11.350446428571416 39.375  12.209821428571416 39.28571428571428  L 18.582589285714278 38.58258928571428  L 33.727678571428555 23.4375  C 33.984375 23.180803571428555  33.984375 22.756696428571445  33.727678571428555 22.488839285714278  L 27.533482142857142 16.294642857142833  Z " stroke-width="0" stroke-dasharray="0" stroke="rgba(255, 255, 255, 0)" fill="none" class="stroke" mask="url(#Clip1836)" />
    <path d="M 38.50446428571428 18.638392857142833  C 39.54241071428572 17.600446428571445  39.54241071428572 15.904017857142833  38.50446428571428 14.85491071428572  L 35.14508928571428 11.495535714285722  C 34.09598214285714 10.446428571428555  32.399553571428555 10.446428571428555  31.36160714285714 11.495535714285722  L 28.783482142857135 14.07366071428572  C 28.526785714285722 14.330357142857167  28.526785714285722 14.754464285714278  28.783482142857135 15.022321428571445  L 34.977678571428555 21.216517857142833  C 35.234375 21.473214285714278  35.65848214285714 21.473214285714278  35.92633928571428 21.216517857142833  L 38.50446428571428 18.638392857142833  Z " stroke-width="0" stroke-dasharray="0" stroke="rgba(255, 255, 255, 0)" fill="none" class="stroke" mask="url(#Clip1836)" />
  </g>
</svg>