<?xml version="1.0" encoding="utf-8"?>
<svg version="1.1" xmlns:xlink="http://www.w3.org/1999/xlink" width="13px" height="16px" xmlns="http://www.w3.org/2000/svg">
  <defs>
    <pattern id="BGPattern" patternUnits="userSpaceOnUse" alignment="0 0" imageRepeat="None" />
    <mask fill="white" id="Clip2496">
      <path d="M 9.081249999999997 11.474999999999998  C 9.087499999999999 12.393749999999997  8.174999999999997 13.04375  6.831250000000001 13.04375  C 5.34375 13.04375  4.318750000000001 12.3875  4.231249999999999 11.3625  L 0.8125 11.3625  C 0.8687500000000004 14.075000000000003  3.1187500000000004 15.756250000000001  6.681249999999998 15.756250000000001  C 10.375 15.756250000000001  12.618749999999999 13.981250000000003  12.618749999999999 11.037500000000001  C 12.618749999999999 8.8  11.368749999999999 7.543750000000003  8.587499999999999 7.006250000000001  L 6.768749999999997 6.65625  C 5.2812499999999964 6.362500000000001  4.6562499999999964 5.912500000000001  4.6562499999999964 5.143750000000001  C 4.6562499999999964 4.206250000000001  5.487499999999997 3.6125000000000007  6.743749999999995 3.6125000000000007  C 7.9999999999999964 3.6125000000000007  8.949999999999996 4.306250000000002  9.031249999999996 5.300000000000001  L 12.343749999999996 5.300000000000001  C 12.287499999999998 2.6937500000000014  9.999999999999996 0.90625  6.699999999999997 0.90625  C 3.2999999999999954 0.90625  1.0937499999999964 2.7124999999999986  1.0937499999999964 5.46875  C 1.0937499999999964 7.6875  2.4187499999999957 9.09375  4.9999999999999964 9.58125  L 6.856249999999996 9.95  C 8.468749999999996 10.274999999999999  9.081249999999997 10.693749999999998  9.081249999999997 11.474999999999998  Z " fill-rule="evenodd" />
    </mask>
  </defs>
  <g transform="matrix(1 0 0 1 -8 -10 )">
    <path d="M 9.081249999999997 11.474999999999998  C 9.087499999999999 12.393749999999997  8.174999999999997 13.04375  6.831250000000001 13.04375  C 5.34375 13.04375  4.318750000000001 12.3875  4.231249999999999 11.3625  L 0.8125 11.3625  C 0.8687500000000004 14.075000000000003  3.1187500000000004 15.756250000000001  6.681249999999998 15.756250000000001  C 10.375 15.756250000000001  12.618749999999999 13.981250000000003  12.618749999999999 11.037500000000001  C 12.618749999999999 8.8  11.368749999999999 7.543750000000003  8.587499999999999 7.006250000000001  L 6.768749999999997 6.65625  C 5.2812499999999964 6.362500000000001  4.6562499999999964 5.912500000000001  4.6562499999999964 5.143750000000001  C 4.6562499999999964 4.206250000000001  5.487499999999997 3.6125000000000007  6.743749999999995 3.6125000000000007  C 7.9999999999999964 3.6125000000000007  8.949999999999996 4.306250000000002  9.031249999999996 5.300000000000001  L 12.343749999999996 5.300000000000001  C 12.287499999999998 2.6937500000000014  9.999999999999996 0.90625  6.699999999999997 0.90625  C 3.2999999999999954 0.90625  1.0937499999999964 2.7124999999999986  1.0937499999999964 5.46875  C 1.0937499999999964 7.6875  2.4187499999999957 9.09375  4.9999999999999964 9.58125  L 6.856249999999996 9.95  C 8.468749999999996 10.274999999999999  9.081249999999997 10.693749999999998  9.081249999999997 11.474999999999998  Z " fill-rule="nonzero" fill="rgba(0, 0, 0, 1)" stroke="none" transform="matrix(1 0 0 1 8 10 )" class="fill" />
    <path d="M 9.081249999999997 11.474999999999998  C 9.087499999999999 12.393749999999997  8.174999999999997 13.04375  6.831250000000001 13.04375  C 5.34375 13.04375  4.318750000000001 12.3875  4.231249999999999 11.3625  L 0.8125 11.3625  C 0.8687500000000004 14.075000000000003  3.1187500000000004 15.756250000000001  6.681249999999998 15.756250000000001  C 10.375 15.756250000000001  12.618749999999999 13.981250000000003  12.618749999999999 11.037500000000001  C 12.618749999999999 8.8  11.368749999999999 7.543750000000003  8.587499999999999 7.006250000000001  L 6.768749999999997 6.65625  C 5.2812499999999964 6.362500000000001  4.6562499999999964 5.912500000000001  4.6562499999999964 5.143750000000001  C 4.6562499999999964 4.206250000000001  5.487499999999997 3.6125000000000007  6.743749999999995 3.6125000000000007  C 7.9999999999999964 3.6125000000000007  8.949999999999996 4.306250000000002  9.031249999999996 5.300000000000001  L 12.343749999999996 5.300000000000001  C 12.287499999999998 2.6937500000000014  9.999999999999996 0.90625  6.699999999999997 0.90625  C 3.2999999999999954 0.90625  1.0937499999999964 2.7124999999999986  1.0937499999999964 5.46875  C 1.0937499999999964 7.6875  2.4187499999999957 9.09375  4.9999999999999964 9.58125  L 6.856249999999996 9.95  C 8.468749999999996 10.274999999999999  9.081249999999997 10.693749999999998  9.081249999999997 11.474999999999998  Z " stroke-width="0" stroke-dasharray="0" stroke="rgba(255, 255, 255, 0)" fill="none" transform="matrix(1 0 0 1 8 10 )" class="stroke" mask="url(#Clip2496)" />
  </g>
</svg>