<?xml version="1.0" encoding="utf-8"?>
<svg version="1.1" xmlns:xlink="http://www.w3.org/1999/xlink" width="56px" height="48px" xmlns="http://www.w3.org/2000/svg">
  <defs>
    <pattern id="BGPattern" patternUnits="userSpaceOnUse" alignment="0 0" imageRepeat="None" />
    <mask fill="white" id="Clip2497">
      <path d="M 56 2.75  C 56 1.6437500000000007  55.10625 0.75  54 1  L 2 1  C 0.8937499999999997 0.75  0 1.6437500000000007  0 2.75  L 0 33.75  C 0 34.85625  0.8937499999999997 35.75  2 35  L 25.75 35  L 25.75 42  L 15 42  C 14.45 42.75  14 43.2  14 43.75  L 14 46.75  C 14 47.025  14.225000000000001 47.25  14.500000000000002 47  L 41.5 47  C 41.775 47.25  42 47.025  42 46.75  L 42 43.75  C 42 43.2  41.55 42.75  41 42  L 30.25 42  L 30.25 35  L 54 35  C 55.10625 35.75  56 34.85625  56 33.75  L 56 2.75  Z M 51 6  L 51 31  L 5 31  L 5 6  L 51 6  Z " fill-rule="evenodd" />
    </mask>
  </defs>
  <g>
    <path d="M 56 2.75  C 56 1.6437500000000007  55.10625 0.75  54 1  L 2 1  C 0.8937499999999997 0.75  0 1.6437500000000007  0 2.75  L 0 33.75  C 0 34.85625  0.8937499999999997 35.75  2 35  L 25.75 35  L 25.75 42  L 15 42  C 14.45 42.75  14 43.2  14 43.75  L 14 46.75  C 14 47.025  14.225000000000001 47.25  14.500000000000002 47  L 41.5 47  C 41.775 47.25  42 47.025  42 46.75  L 42 43.75  C 42 43.2  41.55 42.75  41 42  L 30.25 42  L 30.25 35  L 54 35  C 55.10625 35.75  56 34.85625  56 33.75  L 56 2.75  Z M 51 6  L 51 31  L 5 31  L 5 6  L 51 6  Z " fill-rule="nonzero" fill="rgba(0, 0, 0, 1)" stroke="none" class="fill" />
    <path d="M 56 2.75  C 56 1.6437500000000007  55.10625 0.75  54 1  L 2 1  C 0.8937499999999997 0.75  0 1.6437500000000007  0 2.75  L 0 33.75  C 0 34.85625  0.8937499999999997 35.75  2 35  L 25.75 35  L 25.75 42  L 15 42  C 14.45 42.75  14 43.2  14 43.75  L 14 46.75  C 14 47.025  14.225000000000001 47.25  14.500000000000002 47  L 41.5 47  C 41.775 47.25  42 47.025  42 46.75  L 42 43.75  C 42 43.2  41.55 42.75  41 42  L 30.25 42  L 30.25 35  L 54 35  C 55.10625 35.75  56 34.85625  56 33.75  L 56 2.75  Z " stroke-width="0" stroke-dasharray="0" stroke="rgba(255, 255, 255, 0)" fill="none" class="stroke" mask="url(#Clip2497)" />
    <path d="M 51 6  L 51 31  L 5 31  L 5 6  L 51 6  Z " stroke-width="0" stroke-dasharray="0" stroke="rgba(255, 255, 255, 0)" fill="none" class="stroke" mask="url(#Clip2497)" />
  </g>
</svg>