<?xml version="1.0" encoding="utf-8"?>
<svg version="1.1" xmlns:xlink="http://www.w3.org/1999/xlink" width="26px" height="17px" xmlns="http://www.w3.org/2000/svg">
  <defs>
    <pattern id="BGPattern" patternUnits="userSpaceOnUse" alignment="0 0" imageRepeat="None" />
    <mask fill="white" id="Clip2498">
      <path d="M 25.78125 15.375  L 25.78125 12.41875  L 19.793750000000003 12.41875  L 19.793750000000003 1.28125  L 16 1.28125  L 16 15.375  L 25.78125 15.375  Z M 0.1750000000000007 8.325  C 0.1687499999999993 12.931249999999999  2.8625000000000007 15.756250000000001  7.1187499999999995 15.756250000000001  C 8 15.756250000000001  8.818750000000001 15.631250000000001  9.5625 15.393750000000004  L 10.393749999999997 16.6625  L 13.724999999999994 16.6625  L 11.993749999999999 13.9375  C 13.312499999999998 12.6875  14.056249999999999 10.743749999999999  14.056249999999999 8.325  C 14.056249999999999 3.7437499999999986  11.350000000000001 0.8999999999999986  7.125000000000001 0.8999999999999986  C 2.8999999999999986 0.8999999999999986  0.1750000000000007 3.7312499999999993  0.1750000000000007 8.325  Z M 3.8124999999999964 8.325  C 3.818749999999998 5.599999999999998  5.137499999999996 3.8812500000000014  7.1187499999999995 3.8812500000000014  C 9.09375 3.8812500000000014  10.412500000000001 5.612500000000001  10.412500000000001 8.325000000000003  C 10.412500000000001 9.368750000000002  10.1875 10.237500000000004  9.787500000000001 10.856250000000003  L 9.462499999999999 10.425000000000004  L 6.412500000000001 10.425000000000004  L 7.874999999999999 12.6875  C 7.631250000000001 12.743749999999999  7.375 12.774999999999999  7.112499999999998 12.774999999999999  C 5.131249999999998 12.774999999999999  3.8124999999999964 11.056249999999999  3.8124999999999964 8.325  Z " fill-rule="evenodd" />
    </mask>
  </defs>
  <g transform="matrix(1 0 0 1 -22 -10 )">
    <path d="M 25.78125 15.375  L 25.78125 12.41875  L 19.793750000000003 12.41875  L 19.793750000000003 1.28125  L 16 1.28125  L 16 15.375  L 25.78125 15.375  Z M 0.1750000000000007 8.325  C 0.1687499999999993 12.931249999999999  2.8625000000000007 15.756250000000001  7.1187499999999995 15.756250000000001  C 8 15.756250000000001  8.818750000000001 15.631250000000001  9.5625 15.393750000000004  L 10.393749999999997 16.6625  L 13.724999999999994 16.6625  L 11.993749999999999 13.9375  C 13.312499999999998 12.6875  14.056249999999999 10.743749999999999  14.056249999999999 8.325  C 14.056249999999999 3.7437499999999986  11.350000000000001 0.8999999999999986  7.125000000000001 0.8999999999999986  C 2.8999999999999986 0.8999999999999986  0.1750000000000007 3.7312499999999993  0.1750000000000007 8.325  Z M 3.8124999999999964 8.325  C 3.818749999999998 5.599999999999998  5.137499999999996 3.8812500000000014  7.1187499999999995 3.8812500000000014  C 9.09375 3.8812500000000014  10.412500000000001 5.612500000000001  10.412500000000001 8.325000000000003  C 10.412500000000001 9.368750000000002  10.1875 10.237500000000004  9.787500000000001 10.856250000000003  L 9.462499999999999 10.425000000000004  L 6.412500000000001 10.425000000000004  L 7.874999999999999 12.6875  C 7.631250000000001 12.743749999999999  7.375 12.774999999999999  7.112499999999998 12.774999999999999  C 5.131249999999998 12.774999999999999  3.8124999999999964 11.056249999999999  3.8124999999999964 8.325  Z " fill-rule="nonzero" fill="rgba(0, 0, 0, 1)" stroke="none" transform="matrix(1 0 0 1 22 10 )" class="fill" />
    <path d="M 25.78125 15.375  L 25.78125 12.41875  L 19.793750000000003 12.41875  L 19.793750000000003 1.28125  L 16 1.28125  L 16 15.375  L 25.78125 15.375  Z " stroke-width="0" stroke-dasharray="0" stroke="rgba(255, 255, 255, 0)" fill="none" transform="matrix(1 0 0 1 22 10 )" class="stroke" mask="url(#Clip2498)" />
    <path d="M 0.1750000000000007 8.325  C 0.1687499999999993 12.931249999999999  2.8625000000000007 15.756250000000001  7.1187499999999995 15.756250000000001  C 8 15.756250000000001  8.818750000000001 15.631250000000001  9.5625 15.393750000000004  L 10.393749999999997 16.6625  L 13.724999999999994 16.6625  L 11.993749999999999 13.9375  C 13.312499999999998 12.6875  14.056249999999999 10.743749999999999  14.056249999999999 8.325  C 14.056249999999999 3.7437499999999986  11.350000000000001 0.8999999999999986  7.125000000000001 0.8999999999999986  C 2.8999999999999986 0.8999999999999986  0.1750000000000007 3.7312499999999993  0.1750000000000007 8.325  Z " stroke-width="0" stroke-dasharray="0" stroke="rgba(255, 255, 255, 0)" fill="none" transform="matrix(1 0 0 1 22 10 )" class="stroke" mask="url(#Clip2498)" />
    <path d="M 3.8124999999999964 8.325  C 3.818749999999998 5.599999999999998  5.137499999999996 3.8812500000000014  7.1187499999999995 3.8812500000000014  C 9.09375 3.8812500000000014  10.412500000000001 5.612500000000001  10.412500000000001 8.325000000000003  C 10.412500000000001 9.368750000000002  10.1875 10.237500000000004  9.787500000000001 10.856250000000003  L 9.462499999999999 10.425000000000004  L 6.412500000000001 10.425000000000004  L 7.874999999999999 12.6875  C 7.631250000000001 12.743749999999999  7.375 12.774999999999999  7.112499999999998 12.774999999999999  C 5.131249999999998 12.774999999999999  3.8124999999999964 11.056249999999999  3.8124999999999964 8.325  Z " stroke-width="0" stroke-dasharray="0" stroke="rgba(255, 255, 255, 0)" fill="none" transform="matrix(1 0 0 1 22 10 )" class="stroke" mask="url(#Clip2498)" />
  </g>
</svg>