<?xml version="1.0" encoding="utf-8"?>
<svg version="1.1" xmlns:xlink="http://www.w3.org/1999/xlink" width="8px" height="8px" xmlns="http://www.w3.org/2000/svg">
  <defs>
    <pattern id="BGPattern" patternUnits="userSpaceOnUse" alignment="0 0" imageRepeat="None" />
    <mask fill="white" id="Clip3233">
      <path d="M 7.699999999999999 2.1  L 5.899999999999999 0.30000000000000004  C 5.499999999999998 -0.09999999999999998  4.899999999999999 -0.09999999999999998  4.499999999999998 0.30000000000000004  L 0.4999999999999982 4.3  L 1.1999999999999993 5  L 3 3.2  L 4.800000000000001 5  L 3 6.8  L 3.6999999999999993 7.5  L 7.699999999999999 3.5  C 8.1 3.0999999999999996  8.1 2.5  7.699999999999999 2.1  Z M 7 2.8  L 5.5 4.3  L 3.6999999999999993 2.5  L 5.199999999999999 1  L 7 2.8  Z " fill-rule="evenodd" />
    </mask>
  </defs>
  <g transform="matrix(1 0 0 1 -7 -1 )">
    <path d="M 7.699999999999999 2.1  L 5.899999999999999 0.30000000000000004  C 5.499999999999998 -0.09999999999999998  4.899999999999999 -0.09999999999999998  4.499999999999998 0.30000000000000004  L 0.4999999999999982 4.3  L 1.1999999999999993 5  L 3 3.2  L 4.800000000000001 5  L 3 6.8  L 3.6999999999999993 7.5  L 7.699999999999999 3.5  C 8.1 3.0999999999999996  8.1 2.5  7.699999999999999 2.1  Z M 7 2.8  L 5.5 4.3  L 3.6999999999999993 2.5  L 5.199999999999999 1  L 7 2.8  Z " fill-rule="nonzero" fill="rgba(0, 0, 0, 1)" stroke="none" transform="matrix(1 0 0 1 7 1 )" class="fill" />
    <path d="M 7.699999999999999 2.1  L 5.899999999999999 0.30000000000000004  C 5.499999999999998 -0.09999999999999998  4.899999999999999 -0.09999999999999998  4.499999999999998 0.30000000000000004  L 0.4999999999999982 4.3  L 1.1999999999999993 5  L 3 3.2  L 4.800000000000001 5  L 3 6.8  L 3.6999999999999993 7.5  L 7.699999999999999 3.5  C 8.1 3.0999999999999996  8.1 2.5  7.699999999999999 2.1  Z " stroke-width="0" stroke-dasharray="0" stroke="rgba(255, 255, 255, 0)" fill="none" transform="matrix(1 0 0 1 7 1 )" class="stroke" mask="url(#Clip3233)" />
    <path d="M 7 2.8  L 5.5 4.3  L 3.6999999999999993 2.5  L 5.199999999999999 1  L 7 2.8  Z " stroke-width="0" stroke-dasharray="0" stroke="rgba(255, 255, 255, 0)" fill="none" transform="matrix(1 0 0 1 7 1 )" class="stroke" mask="url(#Clip3233)" />
  </g>
</svg>