<?xml version="1.0" encoding="utf-8"?>
<svg version="1.1" xmlns:xlink="http://www.w3.org/1999/xlink" width="22px" height="15px" xmlns="http://www.w3.org/2000/svg">
  <defs>
    <pattern id="BGPattern" patternUnits="userSpaceOnUse" alignment="0 0" imageRepeat="None" />
    <mask fill="white" id="Clip5833">
      <path d="M 19.25 0  L 2.75 0  C 1.5073593128807146 0  0.5 1.0073593128807143  0.5 2.25  L 0.5 15  L 21.5 15  L 21.5 2.249999999999999  C 21.5 1.0073593128807143  20.492640687119284 0  19.25 0  Z " fill-rule="evenodd" />
    </mask>
  </defs>
  <g transform="matrix(1 0 0 1 -1 0 )">
    <path d="M 19.25 0  L 2.75 0  C 1.5073593128807146 0  0.5 1.0073593128807143  0.5 2.25  L 0.5 15  L 21.5 15  L 21.5 2.249999999999999  C 21.5 1.0073593128807143  20.492640687119284 0  19.25 0  Z " fill-rule="nonzero" fill="rgba(0, 0, 0, 1)" stroke="none" transform="matrix(1 0 0 1 1 0 )" class="fill" />
    <path d="M 19.25 0  L 2.75 0  C 1.5073593128807146 0  0.5 1.0073593128807143  0.5 2.25  L 0.5 15  L 21.5 15  L 21.5 2.249999999999999  C 21.5 1.0073593128807143  20.492640687119284 0  19.25 0  Z " stroke-width="0" stroke-dasharray="0" stroke="rgba(255, 255, 255, 0)" fill="none" transform="matrix(1 0 0 1 1 0 )" class="stroke" mask="url(#Clip5833)" />
  </g>
</svg>