<?xml version="1.0" encoding="utf-8"?>
<svg version="1.1" xmlns:xlink="http://www.w3.org/1999/xlink" width="24px" height="23px" xmlns="http://www.w3.org/2000/svg">
  <defs>
    <pattern id="BGPattern" patternUnits="userSpaceOnUse" alignment="0 0" imageRepeat="None" />
    <mask fill="white" id="Clip540">
      <path d="M 21.872 10.199999999999998  L 22 10.2  C 22.656 10.2  23.2 10.744  23.2 11.399999999999999  L 23.2 11.799999999999999  C 23.2 17.991999999999997  18.192 22.999999999999996  12 22.999999999999996  C 5.808 22.999999999999996  0.8000000000000007 17.991999999999997  0.8000000000000007 11.799999999999999  C 0.8000000000000007 5.607999999999997  5.808 0.5999999999999979  12 0.5999999999999979  C 12.303999999999998 0.5999999999999979  12.512 0.5999999999999979  12.879999999999999 0.6319999999999979  C 13.599999999999998 0.695999999999998  13.983999999999998 1.2079999999999975  13.983999999999998 1.831999999999998  C 13.983999999999998 1.895999999999998  13.983999999999998 1.9599999999999982  13.968 2.0399999999999983  L 13.968 2.1999999999999984  C 13.968 4.295999999999999  15.568000000000001 6.007999999999999  17.616 6.1839999999999975  L 17.616 6.519999999999998  C 17.616 8.727999999999998  19.408 10.199999999999998  21.616 10.199999999999998  C 21.695999999999998 10.199999999999998  21.791999999999998 10.215999999999998  21.872 10.199999999999998  Z " fill-rule="evenodd" />
    </mask>
  </defs>
  <g>
    <path d="M 21.872 10.199999999999998  L 22 10.2  C 22.656 10.2  23.2 10.744  23.2 11.399999999999999  L 23.2 11.799999999999999  C 23.2 17.991999999999997  18.192 22.999999999999996  12 22.999999999999996  C 5.808 22.999999999999996  0.8000000000000007 17.991999999999997  0.8000000000000007 11.799999999999999  C 0.8000000000000007 5.607999999999997  5.808 0.5999999999999979  12 0.5999999999999979  C 12.303999999999998 0.5999999999999979  12.512 0.5999999999999979  12.879999999999999 0.6319999999999979  C 13.599999999999998 0.695999999999998  13.983999999999998 1.2079999999999975  13.983999999999998 1.831999999999998  C 13.983999999999998 1.895999999999998  13.983999999999998 1.9599999999999982  13.968 2.0399999999999983  L 13.968 2.1999999999999984  C 13.968 4.295999999999999  15.568000000000001 6.007999999999999  17.616 6.1839999999999975  L 17.616 6.519999999999998  C 17.616 8.727999999999998  19.408 10.199999999999998  21.616 10.199999999999998  C 21.695999999999998 10.199999999999998  21.791999999999998 10.215999999999998  21.872 10.199999999999998  Z " fill-rule="nonzero" fill="rgba(0, 0, 0, 1)" stroke="none" class="fill" />
    <path d="M 21.872 10.199999999999998  L 22 10.2  C 22.656 10.2  23.2 10.744  23.2 11.399999999999999  L 23.2 11.799999999999999  C 23.2 17.991999999999997  18.192 22.999999999999996  12 22.999999999999996  C 5.808 22.999999999999996  0.8000000000000007 17.991999999999997  0.8000000000000007 11.799999999999999  C 0.8000000000000007 5.607999999999997  5.808 0.5999999999999979  12 0.5999999999999979  C 12.303999999999998 0.5999999999999979  12.512 0.5999999999999979  12.879999999999999 0.6319999999999979  C 13.599999999999998 0.695999999999998  13.983999999999998 1.2079999999999975  13.983999999999998 1.831999999999998  C 13.983999999999998 1.895999999999998  13.983999999999998 1.9599999999999982  13.968 2.0399999999999983  L 13.968 2.1999999999999984  C 13.968 4.295999999999999  15.568000000000001 6.007999999999999  17.616 6.1839999999999975  L 17.616 6.519999999999998  C 17.616 8.727999999999998  19.408 10.199999999999998  21.616 10.199999999999998  C 21.695999999999998 10.199999999999998  21.791999999999998 10.215999999999998  21.872 10.199999999999998  Z " stroke-width="0" stroke-dasharray="0" stroke="rgba(255, 255, 255, 0)" fill="none" class="stroke" mask="url(#Clip540)" />
  </g>
</svg>