<?xml version="1.0" encoding="utf-8"?>
<svg version="1.1" xmlns:xlink="http://www.w3.org/1999/xlink" width="50px" height="50px" xmlns="http://www.w3.org/2000/svg">
  <defs>
    <pattern id="BGPattern" patternUnits="userSpaceOnUse" alignment="0 0" imageRepeat="None" />
    <mask fill="white" id="Clip810">
      <path d="M 50 25  C 50 11.199596774193537  38.80040322580646 0  25 0  C 11.199596774193537 0  0 11.199596774193537  0 25  C 0 38.80040322580646  11.199596774193537 50  25 50  C 38.80040322580646 50  50 38.80040322580646  50 25  Z M 29.848790322580644 25.282258064516128  C 29.848790322580644 32.419354838709694  25.060483870967744 37.5  17.872983870967744 37.5  C 10.9375 37.5  5.372983870967744 31.905241935483875  5.372983870967744 25  C 5.372983870967744 18.094758064516128  10.9375 12.5  17.872983870967744 12.5  C 21.028225806451616 12.5  23.93145161290323 13.60887096774192  26.23991935483872 15.756048387096769  L 22.852822580645153 19.04233870967741  C 21.522177419354847 17.741935483870975  19.69758064516128 17.116935483870975  17.872983870967744 17.116935483870975  C 13.548387096774206 17.116935483870975  10.090725806451616 20.695564516129025  10.090725806451616 24.98991935483872  C 10.090725806451616 29.28427419354838  13.538306451612897 32.86290322580646  17.872983870967744 32.86290322580646  C 21.159274193548384 32.86290322580646  24.415322580645153 30.9375  24.939516129032256 27.489919354838722  L 17.872983870967744 27.489919354838722  L 17.872983870967744 24  L 29.657258064516128 24  C 29.78830645161292 23.88104838709677  29.848790322580644 24.566532258064512  29.848790322580644 25.282258064516128  Z M 44.627016129032256 26.794354838709666  L 41.07862903225805 26.794354838709666  L 41.07862903225805 30.372983870967747  L 37.5 30.372983870967747  L 37.5 26.794354838709666  L 33.92137096774195 26.794354838709666  L 33.92137096774195 23.215725806451616  L 37.5 23.215725806451616  L 37.5 19.637096774193537  L 41.07862903225805 19.637096774193537  L 41.07862903225805 23.215725806451616  L 44.627016129032256 23.215725806451616  L 44.627016129032256 26.794354838709666  Z " fill-rule="evenodd" />
    </mask>
  </defs>
  <g>
    <path d="M 50 25  C 50 11.199596774193537  38.80040322580646 0  25 0  C 11.199596774193537 0  0 11.199596774193537  0 25  C 0 38.80040322580646  11.199596774193537 50  25 50  C 38.80040322580646 50  50 38.80040322580646  50 25  Z M 29.848790322580644 25.282258064516128  C 29.848790322580644 32.419354838709694  25.060483870967744 37.5  17.872983870967744 37.5  C 10.9375 37.5  5.372983870967744 31.905241935483875  5.372983870967744 25  C 5.372983870967744 18.094758064516128  10.9375 12.5  17.872983870967744 12.5  C 21.028225806451616 12.5  23.93145161290323 13.60887096774192  26.23991935483872 15.756048387096769  L 22.852822580645153 19.04233870967741  C 21.522177419354847 17.741935483870975  19.69758064516128 17.116935483870975  17.872983870967744 17.116935483870975  C 13.548387096774206 17.116935483870975  10.090725806451616 20.695564516129025  10.090725806451616 24.98991935483872  C 10.090725806451616 29.28427419354838  13.538306451612897 32.86290322580646  17.872983870967744 32.86290322580646  C 21.159274193548384 32.86290322580646  24.415322580645153 30.9375  24.939516129032256 27.489919354838722  L 17.872983870967744 27.489919354838722  L 17.872983870967744 24  L 29.657258064516128 24  C 29.78830645161292 23.88104838709677  29.848790322580644 24.566532258064512  29.848790322580644 25.282258064516128  Z M 44.627016129032256 26.794354838709666  L 41.07862903225805 26.794354838709666  L 41.07862903225805 30.372983870967747  L 37.5 30.372983870967747  L 37.5 26.794354838709666  L 33.92137096774195 26.794354838709666  L 33.92137096774195 23.215725806451616  L 37.5 23.215725806451616  L 37.5 19.637096774193537  L 41.07862903225805 19.637096774193537  L 41.07862903225805 23.215725806451616  L 44.627016129032256 23.215725806451616  L 44.627016129032256 26.794354838709666  Z " fill-rule="nonzero" fill="rgba(0, 0, 0, 1)" stroke="none" class="fill" />
    <path d="M 50 25  C 50 11.199596774193537  38.80040322580646 0  25 0  C 11.199596774193537 0  0 11.199596774193537  0 25  C 0 38.80040322580646  11.199596774193537 50  25 50  C 38.80040322580646 50  50 38.80040322580646  50 25  Z " stroke-width="0" stroke-dasharray="0" stroke="rgba(255, 255, 255, 0)" fill="none" class="stroke" mask="url(#Clip810)" />
    <path d="M 29.848790322580644 25.282258064516128  C 29.848790322580644 32.419354838709694  25.060483870967744 37.5  17.872983870967744 37.5  C 10.9375 37.5  5.372983870967744 31.905241935483875  5.372983870967744 25  C 5.372983870967744 18.094758064516128  10.9375 12.5  17.872983870967744 12.5  C 21.028225806451616 12.5  23.93145161290323 13.60887096774192  26.23991935483872 15.756048387096769  L 22.852822580645153 19.04233870967741  C 21.522177419354847 17.741935483870975  19.69758064516128 17.116935483870975  17.872983870967744 17.116935483870975  C 13.548387096774206 17.116935483870975  10.090725806451616 20.695564516129025  10.090725806451616 24.98991935483872  C 10.090725806451616 29.28427419354838  13.538306451612897 32.86290322580646  17.872983870967744 32.86290322580646  C 21.159274193548384 32.86290322580646  24.415322580645153 30.9375  24.939516129032256 27.489919354838722  L 17.872983870967744 27.489919354838722  L 17.872983870967744 24  L 29.657258064516128 24  C 29.78830645161292 23.88104838709677  29.848790322580644 24.566532258064512  29.848790322580644 25.282258064516128  Z " stroke-width="0" stroke-dasharray="0" stroke="rgba(255, 255, 255, 0)" fill="none" class="stroke" mask="url(#Clip810)" />
    <path d="M 44.627016129032256 26.794354838709666  L 41.07862903225805 26.794354838709666  L 41.07862903225805 30.372983870967747  L 37.5 30.372983870967747  L 37.5 26.794354838709666  L 33.92137096774195 26.794354838709666  L 33.92137096774195 23.215725806451616  L 37.5 23.215725806451616  L 37.5 19.637096774193537  L 41.07862903225805 19.637096774193537  L 41.07862903225805 23.215725806451616  L 44.627016129032256 23.215725806451616  L 44.627016129032256 26.794354838709666  Z " stroke-width="0" stroke-dasharray="0" stroke="rgba(255, 255, 255, 0)" fill="none" class="stroke" mask="url(#Clip810)" />
  </g>
</svg>