<?xml version="1.0" encoding="utf-8"?>
<svg version="1.1" xmlns:xlink="http://www.w3.org/1999/xlink" width="14px" height="16px" xmlns="http://www.w3.org/2000/svg">
  <defs>
    <pattern id="BGPattern" patternUnits="userSpaceOnUse" alignment="0 0" imageRepeat="None" />
    <mask fill="white" id="Clip51">
      <path d="M 13.047999999999998 5.552  C 13.287999999999997 5.792  13.399999999999999 6.096  13.399999999999999 6.4  C 13.399999999999999 6.704000000000001  13.288 7.008000000000001  13.047999999999998 7.248000000000001  C 12.807999999999996 7.488000000000001  12.503999999999998 7.600000000000001  12.2 7.600000000000001  C 11.896 7.600000000000001  11.591999999999999 7.488000000000001  11.352 7.248000000000001  L 8 4.096  L 8 14.8  C 8.2 15.456  7.672000000000001 16  7 16  C 6.343999999999999 16  5.800000000000001 15.456  6 14.8  L 6 4.096  L 2.6479999999999997 7.248000000000001  C 2.4079999999999995 7.488000000000001  2.103999999999999 7.600000000000001  1.799999999999999 7.600000000000001  C 1.4959999999999987 7.600000000000001  1.1919999999999984 7.488000000000001  0.9519999999999982 7.248000000000001  C 0.711999999999998 7.008000000000001  0.5999999999999979 6.704000000000001  0.5999999999999979 6.4  C 0.5999999999999979 6.096  0.711999999999998 5.792  0.9519999999999982 5.552  L 6.1519999999999975 0.3520000000000003  C 6.391999999999998 0.1120000000000001  6.695999999999998 0  6.999999999999998 0  C 7.3039999999999985 0  7.607999999999998 0.1120000000000001  7.847999999999999 0.3520000000000003  L 13.047999999999998 5.552  Z " fill-rule="evenodd" />
    </mask>
  </defs>
  <g>
    <path d="M 13.047999999999998 5.552  C 13.287999999999997 5.792  13.399999999999999 6.096  13.399999999999999 6.4  C 13.399999999999999 6.704000000000001  13.288 7.008000000000001  13.047999999999998 7.248000000000001  C 12.807999999999996 7.488000000000001  12.503999999999998 7.600000000000001  12.2 7.600000000000001  C 11.896 7.600000000000001  11.591999999999999 7.488000000000001  11.352 7.248000000000001  L 8 4.096  L 8 14.8  C 8.2 15.456  7.672000000000001 16  7 16  C 6.343999999999999 16  5.800000000000001 15.456  6 14.8  L 6 4.096  L 2.6479999999999997 7.248000000000001  C 2.4079999999999995 7.488000000000001  2.103999999999999 7.600000000000001  1.799999999999999 7.600000000000001  C 1.4959999999999987 7.600000000000001  1.1919999999999984 7.488000000000001  0.9519999999999982 7.248000000000001  C 0.711999999999998 7.008000000000001  0.5999999999999979 6.704000000000001  0.5999999999999979 6.4  C 0.5999999999999979 6.096  0.711999999999998 5.792  0.9519999999999982 5.552  L 6.1519999999999975 0.3520000000000003  C 6.391999999999998 0.1120000000000001  6.695999999999998 0  6.999999999999998 0  C 7.3039999999999985 0  7.607999999999998 0.1120000000000001  7.847999999999999 0.3520000000000003  L 13.047999999999998 5.552  Z " fill-rule="nonzero" fill="rgba(0, 0, 0, 1)" stroke="none" class="fill" />
    <path d="M 13.047999999999998 5.552  C 13.287999999999997 5.792  13.399999999999999 6.096  13.399999999999999 6.4  C 13.399999999999999 6.704000000000001  13.288 7.008000000000001  13.047999999999998 7.248000000000001  C 12.807999999999996 7.488000000000001  12.503999999999998 7.600000000000001  12.2 7.600000000000001  C 11.896 7.600000000000001  11.591999999999999 7.488000000000001  11.352 7.248000000000001  L 8 4.096  L 8 14.8  C 8.2 15.456  7.672000000000001 16  7 16  C 6.343999999999999 16  5.800000000000001 15.456  6 14.8  L 6 4.096  L 2.6479999999999997 7.248000000000001  C 2.4079999999999995 7.488000000000001  2.103999999999999 7.600000000000001  1.799999999999999 7.600000000000001  C 1.4959999999999987 7.600000000000001  1.1919999999999984 7.488000000000001  0.9519999999999982 7.248000000000001  C 0.711999999999998 7.008000000000001  0.5999999999999979 6.704000000000001  0.5999999999999979 6.4  C 0.5999999999999979 6.096  0.711999999999998 5.792  0.9519999999999982 5.552  L 6.1519999999999975 0.3520000000000003  C 6.391999999999998 0.1120000000000001  6.695999999999998 0  6.999999999999998 0  C 7.3039999999999985 0  7.607999999999998 0.1120000000000001  7.847999999999999 0.3520000000000003  L 13.047999999999998 5.552  Z " stroke-width="0" stroke-dasharray="0" stroke="rgba(255, 255, 255, 0)" fill="none" class="stroke" mask="url(#Clip51)" />
  </g>
</svg>