<?xml version="1.0" encoding="utf-8"?>
<svg version="1.1" xmlns:xlink="http://www.w3.org/1999/xlink" width="25px" height="20px" xmlns="http://www.w3.org/2000/svg">
  <defs>
    <pattern id="BGPattern" patternUnits="userSpaceOnUse" alignment="0 0" imageRepeat="None" />
    <mask fill="white" id="Clip3403">
      <path d="M 25 10  L 15 0  L 13.600000000000001 1.4000000000000004  L 21.1 9  L 0 9  L 0 11  L 21.1 11  L 13.600000000000001 18.6  L 15 20  L 25 10  Z " fill-rule="evenodd" />
    </mask>
  </defs>
  <g transform="matrix(1 0 0 1 -3 -6 )">
    <path d="M 25 10  L 15 0  L 13.600000000000001 1.4000000000000004  L 21.1 9  L 0 9  L 0 11  L 21.1 11  L 13.600000000000001 18.6  L 15 20  L 25 10  Z " fill-rule="nonzero" fill="rgba(0, 0, 0, 1)" stroke="none" transform="matrix(1 0 0 1 3 6 )" class="fill" />
    <path d="M 25 10  L 15 0  L 13.600000000000001 1.4000000000000004  L 21.1 9  L 0 9  L 0 11  L 21.1 11  L 13.600000000000001 18.6  L 15 20  L 25 10  Z " stroke-width="0" stroke-dasharray="0" stroke="rgba(255, 255, 255, 0)" fill="none" transform="matrix(1 0 0 1 3 6 )" class="stroke" mask="url(#Clip3403)" />
  </g>
</svg>