<?xml version="1.0" encoding="utf-8"?>
<svg version="1.1" xmlns:xlink="http://www.w3.org/1999/xlink" width="24px" height="20px" xmlns="http://www.w3.org/2000/svg">
  <defs>
    <pattern id="BGPattern" patternUnits="userSpaceOnUse" alignment="0 0" imageRepeat="None" />
    <mask fill="white" id="Clip4982">
      <path d="M 0 17  L 0 0.5  L 24 0.5  L 24 17  C 24 18.65685424949238  22.65685424949238 20  21 20  L 3 20  C 1.3431457505076196 20  0 18.65685424949238  0 17  Z " fill-rule="evenodd" />
    </mask>
  </defs>
  <g transform="matrix(1 0 0 1 0 -4 )">
    <path d="M 0 17  L 0 0.5  L 24 0.5  L 24 17  C 24 18.65685424949238  22.65685424949238 20  21 20  L 3 20  C 1.3431457505076196 20  0 18.65685424949238  0 17  Z " fill-rule="nonzero" fill="rgba(0, 0, 0, 1)" stroke="none" transform="matrix(1 0 0 1 0 4 )" class="fill" />
    <path d="M 0 17  L 0 0.5  L 24 0.5  L 24 17  C 24 18.65685424949238  22.65685424949238 20  21 20  L 3 20  C 1.3431457505076196 20  0 18.65685424949238  0 17  Z " stroke-width="0" stroke-dasharray="0" stroke="rgba(255, 255, 255, 0)" fill="none" transform="matrix(1 0 0 1 0 4 )" class="stroke" mask="url(#Clip4982)" />
  </g>
</svg>