<?xml version="1.0" encoding="utf-8"?>
<svg version="1.1" xmlns:xlink="http://www.w3.org/1999/xlink" width="24px" height="24px" xmlns="http://www.w3.org/2000/svg">
  <defs>
    <pattern id="BGPattern" patternUnits="userSpaceOnUse" alignment="0 0" imageRepeat="None" />
    <mask fill="white" id="Clip5819">
      <path d="M 20.25 0  L 3.75 0  C 2.0931457505076194 0  0.75 1.3431457505076196  1 3  L 1 21  C 0.75 22.65685424949238  2.0931457505076194 24  3.75 24  L 20.25 24  C 21.90685424949238 24  23.25 22.65685424949238  23 21  L 23 3  C 23.25 1.3431457505076196  21.90685424949238 0  20.25 0  Z M 3.75 1.5  L 20.25 1.5  C 21.07842712474619 1.5  21.75 2.1715728752538097  21.75 3  L 21.75 21  C 21.75 21.82842712474619  21.07842712474619 22.5  20.25 22.5  L 3.75 22.5  C 2.9215728752538097 22.5  2.25 21.82842712474619  2.25 21  L 2.25 3  C 2.25 2.1715728752538097  2.9215728752538097 1.5  3.75 1.5  Z " fill-rule="evenodd" />
    </mask>
  </defs>
  <g>
    <path d="M 20.25 0  L 3.75 0  C 2.0931457505076194 0  0.75 1.3431457505076196  1 3  L 1 21  C 0.75 22.65685424949238  2.0931457505076194 24  3.75 24  L 20.25 24  C 21.90685424949238 24  23.25 22.65685424949238  23 21  L 23 3  C 23.25 1.3431457505076196  21.90685424949238 0  20.25 0  Z M 3.75 1.5  L 20.25 1.5  C 21.07842712474619 1.5  21.75 2.1715728752538097  21.75 3  L 21.75 21  C 21.75 21.82842712474619  21.07842712474619 22.5  20.25 22.5  L 3.75 22.5  C 2.9215728752538097 22.5  2.25 21.82842712474619  2.25 21  L 2.25 3  C 2.25 2.1715728752538097  2.9215728752538097 1.5  3.75 1.5  Z " fill-rule="nonzero" fill="rgba(0, 0, 0, 1)" stroke="none" class="fill" />
    <path d="M 20.25 0  L 3.75 0  C 2.0931457505076194 0  0.75 1.3431457505076196  1 3  L 1 21  C 0.75 22.65685424949238  2.0931457505076194 24  3.75 24  L 20.25 24  C 21.90685424949238 24  23.25 22.65685424949238  23 21  L 23 3  C 23.25 1.3431457505076196  21.90685424949238 0  20.25 0  Z " stroke-width="0" stroke-dasharray="0" stroke="rgba(255, 255, 255, 0)" fill="none" class="stroke" mask="url(#Clip5819)" />
    <path d="M 3.75 1.5  L 20.25 1.5  C 21.07842712474619 1.5  21.75 2.1715728752538097  21.75 3  L 21.75 21  C 21.75 21.82842712474619  21.07842712474619 22.5  20.25 22.5  L 3.75 22.5  C 2.9215728752538097 22.5  2.25 21.82842712474619  2.25 21  L 2.25 3  C 2.25 2.1715728752538097  2.9215728752538097 1.5  3.75 1.5  Z " stroke-width="0" stroke-dasharray="0" stroke="rgba(255, 255, 255, 0)" fill="none" class="stroke" mask="url(#Clip5819)" />
  </g>
</svg>