<?xml version="1.0" encoding="utf-8"?>
<svg version="1.1" xmlns:xlink="http://www.w3.org/1999/xlink" width="13px" height="14px" xmlns="http://www.w3.org/2000/svg">
  <defs>
    <pattern id="BGPattern" patternUnits="userSpaceOnUse" alignment="0 0" imageRepeat="None" />
    <mask fill="white" id="Clip6245">
      <path d="M 0.749411298937236 7.00075  C 0.749411298937236 7.432637513620378  0.980925619405745 7.831383131344057  1.356 8.045499999999999  L 10.900500000000001 13.5835  C 11.7105 14.053  12.75 13.484499999999997  12.75 12.538  L 12.75 1.4619999999999997  C 12.75 0.5169999999999995  11.712 -0.052999999999999936  10.9005 0.41800000000000015  L 1.3560000000000003 5.956000000000001  C 0.980925619405745 6.170116868655947  0.749411298937236 6.568862486379626  0.749411298937236 7.00075  Z " fill-rule="evenodd" />
    </mask>
  </defs>
  <g>
    <path d="M 0.749411298937236 7.00075  C 0.749411298937236 7.432637513620378  0.980925619405745 7.831383131344057  1.356 8.045499999999999  L 10.900500000000001 13.5835  C 11.7105 14.053  12.75 13.484499999999997  12.75 12.538  L 12.75 1.4619999999999997  C 12.75 0.5169999999999995  11.712 -0.052999999999999936  10.9005 0.41800000000000015  L 1.3560000000000003 5.956000000000001  C 0.980925619405745 6.170116868655947  0.749411298937236 6.568862486379626  0.749411298937236 7.00075  Z " fill-rule="nonzero" fill="rgba(0, 0, 0, 1)" stroke="none" class="fill" />
    <path d="M 0.749411298937236 7.00075  C 0.749411298937236 7.432637513620378  0.980925619405745 7.831383131344057  1.356 8.045499999999999  L 10.900500000000001 13.5835  C 11.7105 14.053  12.75 13.484499999999997  12.75 12.538  L 12.75 1.4619999999999997  C 12.75 0.5169999999999995  11.712 -0.052999999999999936  10.9005 0.41800000000000015  L 1.3560000000000003 5.956000000000001  C 0.980925619405745 6.170116868655947  0.749411298937236 6.568862486379626  0.749411298937236 7.00075  Z " stroke-width="0" stroke-dasharray="0" stroke="rgba(255, 255, 255, 0)" fill="none" class="stroke" mask="url(#Clip6245)" />
  </g>
</svg>