<?xml version="1.0" encoding="utf-8"?>
<svg version="1.1" xmlns:xlink="http://www.w3.org/1999/xlink" width="22px" height="22px" xmlns="http://www.w3.org/2000/svg">
  <defs>
    <pattern id="BGPattern" patternUnits="userSpaceOnUse" alignment="0 0" imageRepeat="None" />
    <mask fill="white" id="Clip5326">
      <path d="M 1.25 0.5  C 0.8357864376269052 0.5  0.5 0.8357864376269052  0.5 1.25  C 0.5 1.664213562373095  0.8357864376269052 2  1.25 2  L 20.75 2  C 21.164213562373096 2  21.5 1.664213562373095  21.5 1.25  C 21.5 0.8357864376269052  21.164213562373096 0.5  20.75 0.5  L 1.25 0.5  Z M 1.25 20  C 0.8357864376269052 20  0.5 20.335786437626904  0.5 20.75  C 0.5 21.164213562373096  0.8357864376269052 21.5  1.25 21.5  L 20.75 21.5  C 21.164213562373096 21.5  21.5 21.164213562373096  21.5 20.75  C 21.5 20.335786437626904  21.164213562373096 20  20.75 20  L 1.25 20  Z " fill-rule="evenodd" />
    </mask>
  </defs>
  <g>
    <path d="M 1.25 0.5  C 0.8357864376269052 0.5  0.5 0.8357864376269052  0.5 1.25  C 0.5 1.664213562373095  0.8357864376269052 2  1.25 2  L 20.75 2  C 21.164213562373096 2  21.5 1.664213562373095  21.5 1.25  C 21.5 0.8357864376269052  21.164213562373096 0.5  20.75 0.5  L 1.25 0.5  Z M 1.25 20  C 0.8357864376269052 20  0.5 20.335786437626904  0.5 20.75  C 0.5 21.164213562373096  0.8357864376269052 21.5  1.25 21.5  L 20.75 21.5  C 21.164213562373096 21.5  21.5 21.164213562373096  21.5 20.75  C 21.5 20.335786437626904  21.164213562373096 20  20.75 20  L 1.25 20  Z " fill-rule="nonzero" fill="rgba(0, 0, 0, 1)" stroke="none" class="fill" />
    <path d="M 1.25 0.5  C 0.8357864376269052 0.5  0.5 0.8357864376269052  0.5 1.25  C 0.5 1.664213562373095  0.8357864376269052 2  1.25 2  L 20.75 2  C 21.164213562373096 2  21.5 1.664213562373095  21.5 1.25  C 21.5 0.8357864376269052  21.164213562373096 0.5  20.75 0.5  L 1.25 0.5  Z " stroke-width="0" stroke-dasharray="0" stroke="rgba(255, 255, 255, 0)" fill="none" class="stroke" mask="url(#Clip5326)" />
    <path d="M 1.25 20  C 0.8357864376269052 20  0.5 20.335786437626904  0.5 20.75  C 0.5 21.164213562373096  0.8357864376269052 21.5  1.25 21.5  L 20.75 21.5  C 21.164213562373096 21.5  21.5 21.164213562373096  21.5 20.75  C 21.5 20.335786437626904  21.164213562373096 20  20.75 20  L 1.25 20  Z " stroke-width="0" stroke-dasharray="0" stroke="rgba(255, 255, 255, 0)" fill="none" class="stroke" mask="url(#Clip5326)" />
  </g>
</svg>