<?xml version="1.0" encoding="utf-8"?>
<svg version="1.1" xmlns:xlink="http://www.w3.org/1999/xlink" width="50px" height="21px" xmlns="http://www.w3.org/2000/svg">
  <defs>
    <pattern id="BGPattern" patternUnits="userSpaceOnUse" alignment="0 0" imageRepeat="None" />
    <mask fill="white" id="Clip748">
      <path d="M 34.734375 10.640625  C 33.8125 10.640625  32.6796875 10.648437499999998  31.656250000000004 10.6875  C 29.3828125 10.7578125  27.968749999999996 11.171875000000002  27.968749999999996 12.6640625  C 27.968749999999996 13.632812500000002  28.7421875 14.6796875  30.703124999999996 14.6796875  C 33.3359375 14.6796875  34.734375 13.242187499999998  34.734375 10.8984375  L 34.734375 10.640625  Z M 37.2421875 8.6640625  L 37.2421875 13.7890625  C 37.2421875 14.515625  37.265625 15.242187499999998  37.3203125 15.8828125  L 34.9921875 15.8828125  C 34.9296875 15.34375  34.90625 14.8203125  34.90625 14.3046875  C 33.6484375 15.8515625  32.1484375 16.296875  30.0703125 16.296875  C 26.984375 16.296875  25.3359375 14.6640625  25.3359375 12.781249999999998  C 25.3359375 10.046875  27.5859375 9.0859375  31.4765625 9  C 32.546875 8.9765625  33.7421875 8.96875  34.734375 8.96875  L 34.734375 8.703125  C 34.734375 6.875  33.5625 6.125  31.53125 6.125  C 30.0234375 6.125  28.90625 6.750000000000001  28.796875 7.828125  L 26.1640625 7.828125  C 26.4453125 5.140625  29.265625 4.4609375  31.75 4.4609375  C 34.7265625 4.4609375  37.2421875 5.515625  37.2421875 8.6640625  Z M 2.6015625 9.3515625  L 9.9765625 9.3515625  C 9.796875 5.078125  3.1406249999999996 4.9296875  2.6015625 9.3515625  Z M 12.617187499999998 11  L 2.5546875 11  C 2.828125 15.578125  8.7421875 15.5078125  9.6796875 12.7109375  L 12.265625 12.7109375  C 11.765625 15.3984375  8.90625 16.3125  6.453125 16.3125  C 1.984375 16.3125  0.0078125 13.8515625  0.0078125 10.53125  C 0.0078125 6.875  2.0546875 4.46875  6.4921875 4.46875  C 10.03125 4.46875  12.617187499999998 6.3203125  12.617187499999998 10.359375  L 12.617187499999998 11  Z M 15.117187500000002 10.390625  C 15.117187500000002 12.914062499999998  16.7265625 14.59375  19.0390625 14.59375  C 21.3671875 14.59375  22.9609375 12.914062499999998  22.9609375 10.390625  C 22.9609375 7.859375  21.3671875 6.1875  19.0390625 6.1875  C 16.7265625 6.1875  15.117187500000002 7.859375  15.117187500000002 10.390625  Z M 13 13.304687500000002  L 13 0.0625  L 15.125 0.0625  L 15.125 6.359375  C 16.3515625 4.8984375  18.046875 4.46875  19.7109375 4.46875  C 22.5 4.46875  25.601562500000004 6.3515625  25.601562500000004 10.421875  C 25.601562500000004 13.828125000000002  23.140625 16.3125  19.6640625 16.3125  C 17.84375 16.3125  16.140625 15.6640625  15.078125 14.3671875  C 15.078125 14.882812499999998  15.046875000000002 15.3984375  14.992187500000002 15.890625  L 12.53125 15.890625  C 12.5703125 15.09375  12.617187499999998 14.109375  13 13.304687500000002  Z M 47.34375 4.8828125  L 50 4.8828125  L 42.25 20.1015625  L 39.4453125 20.1015625  L 41.671875 15.875  L 35.84375 4.8828125  L 38.7734375 4.8828125  L 43.0625 13.468750000000002  L 47.34375 4.8828125  Z " fill-rule="evenodd" />
    </mask>
  </defs>
  <g>
    <path d="M 34.734375 10.640625  C 33.8125 10.640625  32.6796875 10.648437499999998  31.656250000000004 10.6875  C 29.3828125 10.7578125  27.968749999999996 11.171875000000002  27.968749999999996 12.6640625  C 27.968749999999996 13.632812500000002  28.7421875 14.6796875  30.703124999999996 14.6796875  C 33.3359375 14.6796875  34.734375 13.242187499999998  34.734375 10.8984375  L 34.734375 10.640625  Z M 37.2421875 8.6640625  L 37.2421875 13.7890625  C 37.2421875 14.515625  37.265625 15.242187499999998  37.3203125 15.8828125  L 34.9921875 15.8828125  C 34.9296875 15.34375  34.90625 14.8203125  34.90625 14.3046875  C 33.6484375 15.8515625  32.1484375 16.296875  30.0703125 16.296875  C 26.984375 16.296875  25.3359375 14.6640625  25.3359375 12.781249999999998  C 25.3359375 10.046875  27.5859375 9.0859375  31.4765625 9  C 32.546875 8.9765625  33.7421875 8.96875  34.734375 8.96875  L 34.734375 8.703125  C 34.734375 6.875  33.5625 6.125  31.53125 6.125  C 30.0234375 6.125  28.90625 6.750000000000001  28.796875 7.828125  L 26.1640625 7.828125  C 26.4453125 5.140625  29.265625 4.4609375  31.75 4.4609375  C 34.7265625 4.4609375  37.2421875 5.515625  37.2421875 8.6640625  Z M 2.6015625 9.3515625  L 9.9765625 9.3515625  C 9.796875 5.078125  3.1406249999999996 4.9296875  2.6015625 9.3515625  Z M 12.617187499999998 11  L 2.5546875 11  C 2.828125 15.578125  8.7421875 15.5078125  9.6796875 12.7109375  L 12.265625 12.7109375  C 11.765625 15.3984375  8.90625 16.3125  6.453125 16.3125  C 1.984375 16.3125  0.0078125 13.8515625  0.0078125 10.53125  C 0.0078125 6.875  2.0546875 4.46875  6.4921875 4.46875  C 10.03125 4.46875  12.617187499999998 6.3203125  12.617187499999998 10.359375  L 12.617187499999998 11  Z M 15.117187500000002 10.390625  C 15.117187500000002 12.914062499999998  16.7265625 14.59375  19.0390625 14.59375  C 21.3671875 14.59375  22.9609375 12.914062499999998  22.9609375 10.390625  C 22.9609375 7.859375  21.3671875 6.1875  19.0390625 6.1875  C 16.7265625 6.1875  15.117187500000002 7.859375  15.117187500000002 10.390625  Z M 13 13.304687500000002  L 13 0.0625  L 15.125 0.0625  L 15.125 6.359375  C 16.3515625 4.8984375  18.046875 4.46875  19.7109375 4.46875  C 22.5 4.46875  25.601562500000004 6.3515625  25.601562500000004 10.421875  C 25.601562500000004 13.828125000000002  23.140625 16.3125  19.6640625 16.3125  C 17.84375 16.3125  16.140625 15.6640625  15.078125 14.3671875  C 15.078125 14.882812499999998  15.046875000000002 15.3984375  14.992187500000002 15.890625  L 12.53125 15.890625  C 12.5703125 15.09375  12.617187499999998 14.109375  13 13.304687500000002  Z M 47.34375 4.8828125  L 50 4.8828125  L 42.25 20.1015625  L 39.4453125 20.1015625  L 41.671875 15.875  L 35.84375 4.8828125  L 38.7734375 4.8828125  L 43.0625 13.468750000000002  L 47.34375 4.8828125  Z " fill-rule="nonzero" fill="rgba(0, 0, 0, 1)" stroke="none" class="fill" />
    <path d="M 34.734375 10.640625  C 33.8125 10.640625  32.6796875 10.648437499999998  31.656250000000004 10.6875  C 29.3828125 10.7578125  27.968749999999996 11.171875000000002  27.968749999999996 12.6640625  C 27.968749999999996 13.632812500000002  28.7421875 14.6796875  30.703124999999996 14.6796875  C 33.3359375 14.6796875  34.734375 13.242187499999998  34.734375 10.8984375  L 34.734375 10.640625  Z " stroke-width="0" stroke-dasharray="0" stroke="rgba(255, 255, 255, 0)" fill="none" class="stroke" mask="url(#Clip748)" />
    <path d="M 37.2421875 8.6640625  L 37.2421875 13.7890625  C 37.2421875 14.515625  37.265625 15.242187499999998  37.3203125 15.8828125  L 34.9921875 15.8828125  C 34.9296875 15.34375  34.90625 14.8203125  34.90625 14.3046875  C 33.6484375 15.8515625  32.1484375 16.296875  30.0703125 16.296875  C 26.984375 16.296875  25.3359375 14.6640625  25.3359375 12.781249999999998  C 25.3359375 10.046875  27.5859375 9.0859375  31.4765625 9  C 32.546875 8.9765625  33.7421875 8.96875  34.734375 8.96875  L 34.734375 8.703125  C 34.734375 6.875  33.5625 6.125  31.53125 6.125  C 30.0234375 6.125  28.90625 6.750000000000001  28.796875 7.828125  L 26.1640625 7.828125  C 26.4453125 5.140625  29.265625 4.4609375  31.75 4.4609375  C 34.7265625 4.4609375  37.2421875 5.515625  37.2421875 8.6640625  Z " stroke-width="0" stroke-dasharray="0" stroke="rgba(255, 255, 255, 0)" fill="none" class="stroke" mask="url(#Clip748)" />
    <path d="M 2.6015625 9.3515625  L 9.9765625 9.3515625  C 9.796875 5.078125  3.1406249999999996 4.9296875  2.6015625 9.3515625  Z " stroke-width="0" stroke-dasharray="0" stroke="rgba(255, 255, 255, 0)" fill="none" class="stroke" mask="url(#Clip748)" />
    <path d="M 12.617187499999998 11  L 2.5546875 11  C 2.828125 15.578125  8.7421875 15.5078125  9.6796875 12.7109375  L 12.265625 12.7109375  C 11.765625 15.3984375  8.90625 16.3125  6.453125 16.3125  C 1.984375 16.3125  0.0078125 13.8515625  0.0078125 10.53125  C 0.0078125 6.875  2.0546875 4.46875  6.4921875 4.46875  C 10.03125 4.46875  12.617187499999998 6.3203125  12.617187499999998 10.359375  L 12.617187499999998 11  Z " stroke-width="0" stroke-dasharray="0" stroke="rgba(255, 255, 255, 0)" fill="none" class="stroke" mask="url(#Clip748)" />
    <path d="M 15.117187500000002 10.390625  C 15.117187500000002 12.914062499999998  16.7265625 14.59375  19.0390625 14.59375  C 21.3671875 14.59375  22.9609375 12.914062499999998  22.9609375 10.390625  C 22.9609375 7.859375  21.3671875 6.1875  19.0390625 6.1875  C 16.7265625 6.1875  15.117187500000002 7.859375  15.117187500000002 10.390625  Z " stroke-width="0" stroke-dasharray="0" stroke="rgba(255, 255, 255, 0)" fill="none" class="stroke" mask="url(#Clip748)" />
    <path d="M 13 13.304687500000002  L 13 0.0625  L 15.125 0.0625  L 15.125 6.359375  C 16.3515625 4.8984375  18.046875 4.46875  19.7109375 4.46875  C 22.5 4.46875  25.601562500000004 6.3515625  25.601562500000004 10.421875  C 25.601562500000004 13.828125000000002  23.140625 16.3125  19.6640625 16.3125  C 17.84375 16.3125  16.140625 15.6640625  15.078125 14.3671875  C 15.078125 14.882812499999998  15.046875000000002 15.3984375  14.992187500000002 15.890625  L 12.53125 15.890625  C 12.5703125 15.09375  12.617187499999998 14.109375  13 13.304687500000002  Z " stroke-width="0" stroke-dasharray="0" stroke="rgba(255, 255, 255, 0)" fill="none" class="stroke" mask="url(#Clip748)" />
    <path d="M 47.34375 4.8828125  L 50 4.8828125  L 42.25 20.1015625  L 39.4453125 20.1015625  L 41.671875 15.875  L 35.84375 4.8828125  L 38.7734375 4.8828125  L 43.0625 13.468750000000002  L 47.34375 4.8828125  Z " stroke-width="0" stroke-dasharray="0" stroke="rgba(255, 255, 255, 0)" fill="none" class="stroke" mask="url(#Clip748)" />
  </g>
</svg>