<?xml version="1.0" encoding="utf-8"?>
<svg version="1.1" xmlns:xlink="http://www.w3.org/1999/xlink" width="50px" height="50px" xmlns="http://www.w3.org/2000/svg">
  <defs>
    <pattern id="BGPattern" patternUnits="userSpaceOnUse" alignment="0 0" imageRepeat="None" />
    <mask fill="white" id="Clip2108">
      <path d="M 22.21118811881189 21.023069306930665  C 22.21118811881189 21.679207920792066  21.679207920792066 22.21118811881189  21.023069306930665 23  L 1.1881188118811963 23  C 0.5319801980197951 22.21118811881189  0 21.679207920792066  0 21.023069306930665  L 0 1.1881188118811963  C 0 0.5319801980197951  0.5319801980197951 0  1.1881188118811963 0  L 5.940594059405953 0  C 6.596732673267327 0  7.128712871287121 0.5319801980197951  7.128712871287121 1.1881188118811963  L 7.128712871287121 8.92198019801981  C 11.660693069306944 3.88900990099009  18.243564356435655 0.7396039603960389  25.561881188118836 0.7927722772277263  C 39.11693069306932 0.8911881188118684  49.96267326732675 11.844554455445518  49.93386138613863 25.399900990099013  C 49.90504950495051 38.93643564356438  38.92277227722775 49.9009900990099  25.379504950495065 49.9009900990099  C 19.03405940594061 49.9009900990099  13.251188118811882 47.49376237623761  8.893366336633676 43.543069306930704  C 8.388514851485155 43.08544554455443  8.365247524752476 42.300099009900975  8.847128712871296 41.81831683168315  L 12.210198019801993 38.45524752475245  C 12.653168316831682 38.01227722772279  13.364851485148508 37.9882178217822  13.834059405940593 38.4032673267327  C 16.906930693069313 41.12237623762377  20.948514851485157 42.77227722772278  25.379504950495065 42.77227722772278  C 35.00999999999999 42.77227722772278  42.805247524752474 34.97861386138612  42.805247524752474 25.34653465346537  C 42.805247524752474 15.716138613861402  35.01158415841587 7.920792079207928  25.379504950495065 7.920792079207928  C 19.587821782178224 7.920792079207928  14.460693069306926 10.740198019801994  11.292970297029711 15.082475247524767  L 21.023069306930665 15.082475247524767  C 21.679207920792066 15.082475247524767  22.21118811881189 15.614455445544536  22.21118811881189 16.270594059405937  L 22.21118811881189 21.023069306930665  Z " fill-rule="evenodd" />
    </mask>
  </defs>
  <g>
    <path d="M 22.21118811881189 21.023069306930665  C 22.21118811881189 21.679207920792066  21.679207920792066 22.21118811881189  21.023069306930665 23  L 1.1881188118811963 23  C 0.5319801980197951 22.21118811881189  0 21.679207920792066  0 21.023069306930665  L 0 1.1881188118811963  C 0 0.5319801980197951  0.5319801980197951 0  1.1881188118811963 0  L 5.940594059405953 0  C 6.596732673267327 0  7.128712871287121 0.5319801980197951  7.128712871287121 1.1881188118811963  L 7.128712871287121 8.92198019801981  C 11.660693069306944 3.88900990099009  18.243564356435655 0.7396039603960389  25.561881188118836 0.7927722772277263  C 39.11693069306932 0.8911881188118684  49.96267326732675 11.844554455445518  49.93386138613863 25.399900990099013  C 49.90504950495051 38.93643564356438  38.92277227722775 49.9009900990099  25.379504950495065 49.9009900990099  C 19.03405940594061 49.9009900990099  13.251188118811882 47.49376237623761  8.893366336633676 43.543069306930704  C 8.388514851485155 43.08544554455443  8.365247524752476 42.300099009900975  8.847128712871296 41.81831683168315  L 12.210198019801993 38.45524752475245  C 12.653168316831682 38.01227722772279  13.364851485148508 37.9882178217822  13.834059405940593 38.4032673267327  C 16.906930693069313 41.12237623762377  20.948514851485157 42.77227722772278  25.379504950495065 42.77227722772278  C 35.00999999999999 42.77227722772278  42.805247524752474 34.97861386138612  42.805247524752474 25.34653465346537  C 42.805247524752474 15.716138613861402  35.01158415841587 7.920792079207928  25.379504950495065 7.920792079207928  C 19.587821782178224 7.920792079207928  14.460693069306926 10.740198019801994  11.292970297029711 15.082475247524767  L 21.023069306930665 15.082475247524767  C 21.679207920792066 15.082475247524767  22.21118811881189 15.614455445544536  22.21118811881189 16.270594059405937  L 22.21118811881189 21.023069306930665  Z " fill-rule="nonzero" fill="rgba(0, 0, 0, 1)" stroke="none" class="fill" />
    <path d="M 22.21118811881189 21.023069306930665  C 22.21118811881189 21.679207920792066  21.679207920792066 22.21118811881189  21.023069306930665 23  L 1.1881188118811963 23  C 0.5319801980197951 22.21118811881189  0 21.679207920792066  0 21.023069306930665  L 0 1.1881188118811963  C 0 0.5319801980197951  0.5319801980197951 0  1.1881188118811963 0  L 5.940594059405953 0  C 6.596732673267327 0  7.128712871287121 0.5319801980197951  7.128712871287121 1.1881188118811963  L 7.128712871287121 8.92198019801981  C 11.660693069306944 3.88900990099009  18.243564356435655 0.7396039603960389  25.561881188118836 0.7927722772277263  C 39.11693069306932 0.8911881188118684  49.96267326732675 11.844554455445518  49.93386138613863 25.399900990099013  C 49.90504950495051 38.93643564356438  38.92277227722775 49.9009900990099  25.379504950495065 49.9009900990099  C 19.03405940594061 49.9009900990099  13.251188118811882 47.49376237623761  8.893366336633676 43.543069306930704  C 8.388514851485155 43.08544554455443  8.365247524752476 42.300099009900975  8.847128712871296 41.81831683168315  L 12.210198019801993 38.45524752475245  C 12.653168316831682 38.01227722772279  13.364851485148508 37.9882178217822  13.834059405940593 38.4032673267327  C 16.906930693069313 41.12237623762377  20.948514851485157 42.77227722772278  25.379504950495065 42.77227722772278  C 35.00999999999999 42.77227722772278  42.805247524752474 34.97861386138612  42.805247524752474 25.34653465346537  C 42.805247524752474 15.716138613861402  35.01158415841587 7.920792079207928  25.379504950495065 7.920792079207928  C 19.587821782178224 7.920792079207928  14.460693069306926 10.740198019801994  11.292970297029711 15.082475247524767  L 21.023069306930665 15.082475247524767  C 21.679207920792066 15.082475247524767  22.21118811881189 15.614455445544536  22.21118811881189 16.270594059405937  L 22.21118811881189 21.023069306930665  Z " stroke-width="0" stroke-dasharray="0" stroke="rgba(255, 255, 255, 0)" fill="none" class="stroke" mask="url(#Clip2108)" />
  </g>
</svg>