<?xml version="1.0" encoding="utf-8"?>
<svg version="1.1" xmlns:xlink="http://www.w3.org/1999/xlink" width="28px" height="28px" xmlns="http://www.w3.org/2000/svg">
  <defs>
    <pattern id="BGPattern" patternUnits="userSpaceOnUse" alignment="0 0" imageRepeat="None" />
    <mask fill="white" id="Clip3863">
      <path d="M 28 14  C 28 6.268013502368892  21.73198649763111 0  14 0  C 6.268013502368892 0  0 6.268013502368892  0 14  C 0 21.73198649763111  6.268013502368892 28  14 28  C 21.73198649763111 28  28 21.73198649763111  28 14  Z M 15.5 21.5  C 15.499999999999998 22.328427124746185  14.828427124746188 22.999999999999996  14 22.999999999999996  C 13.171572875253808 22.999999999999996  12.5 22.328427124746185  12.5 21.499999999999996  C 12.5 20.67157287525381  13.171572875253808 19.999999999999996  14 19.999999999999996  C 14.828427124746188 19.999999999999996  15.5 20.67157287525381  15.5 21.499999999999996  Z M 15.120000000000001 15.249999999999998  L 15.14 15.249999999999998  L 15.14 17.75  L 12.89 17.75  L 12.89 13  L 15 13  C 16.251940971629033 12.918720597674408  17.225808560548906 11.87957663683246  17.225808560548906 10.625  C 17.225808560548906 9.37042336316754  16.251940971629033 8.331279402325592  15 8.25  L 13.5 8.25  C 12.18945765561573 8.249988431712943  11.125506480387749 9.309469223851732  11.120000000000001 10.620000000000001  L 11.120000000000001 11.260000000000002  L 8.89 11.260000000000002  L 8.89 10.620000000000001  C 8.895514423824757 8.066827721030958  10.966821765929641 5.999994044891742  13.52 6.000000000000001  L 15 6.000000000000001  C 17.498765866030944 6.079137688509671  19.48343809864788 8.127660996636813  19.48343809864788 10.627679721963489  C 19.48343809864788 13.081212131227321  17.56946276634125 15.1087433554984  15.120000000000001 15.249999999999998  Z " fill-rule="evenodd" />
    </mask>
  </defs>
  <g transform="matrix(1 0 0 1 -2 -2 )">
    <path d="M 28 14  C 28 6.268013502368892  21.73198649763111 0  14 0  C 6.268013502368892 0  0 6.268013502368892  0 14  C 0 21.73198649763111  6.268013502368892 28  14 28  C 21.73198649763111 28  28 21.73198649763111  28 14  Z M 15.5 21.5  C 15.499999999999998 22.328427124746185  14.828427124746188 22.999999999999996  14 22.999999999999996  C 13.171572875253808 22.999999999999996  12.5 22.328427124746185  12.5 21.499999999999996  C 12.5 20.67157287525381  13.171572875253808 19.999999999999996  14 19.999999999999996  C 14.828427124746188 19.999999999999996  15.5 20.67157287525381  15.5 21.499999999999996  Z M 15.120000000000001 15.249999999999998  L 15.14 15.249999999999998  L 15.14 17.75  L 12.89 17.75  L 12.89 13  L 15 13  C 16.251940971629033 12.918720597674408  17.225808560548906 11.87957663683246  17.225808560548906 10.625  C 17.225808560548906 9.37042336316754  16.251940971629033 8.331279402325592  15 8.25  L 13.5 8.25  C 12.18945765561573 8.249988431712943  11.125506480387749 9.309469223851732  11.120000000000001 10.620000000000001  L 11.120000000000001 11.260000000000002  L 8.89 11.260000000000002  L 8.89 10.620000000000001  C 8.895514423824757 8.066827721030958  10.966821765929641 5.999994044891742  13.52 6.000000000000001  L 15 6.000000000000001  C 17.498765866030944 6.079137688509671  19.48343809864788 8.127660996636813  19.48343809864788 10.627679721963489  C 19.48343809864788 13.081212131227321  17.56946276634125 15.1087433554984  15.120000000000001 15.249999999999998  Z " fill-rule="nonzero" fill="rgba(0, 0, 0, 1)" stroke="none" transform="matrix(1 0 0 1 2 2 )" class="fill" />
    <path d="M 28 14  C 28 6.268013502368892  21.73198649763111 0  14 0  C 6.268013502368892 0  0 6.268013502368892  0 14  C 0 21.73198649763111  6.268013502368892 28  14 28  C 21.73198649763111 28  28 21.73198649763111  28 14  Z " stroke-width="0" stroke-dasharray="0" stroke="rgba(255, 255, 255, 0)" fill="none" transform="matrix(1 0 0 1 2 2 )" class="stroke" mask="url(#Clip3863)" />
    <path d="M 15.5 21.5  C 15.499999999999998 22.328427124746185  14.828427124746188 22.999999999999996  14 22.999999999999996  C 13.171572875253808 22.999999999999996  12.5 22.328427124746185  12.5 21.499999999999996  C 12.5 20.67157287525381  13.171572875253808 19.999999999999996  14 19.999999999999996  C 14.828427124746188 19.999999999999996  15.5 20.67157287525381  15.5 21.499999999999996  Z " stroke-width="0" stroke-dasharray="0" stroke="rgba(255, 255, 255, 0)" fill="none" transform="matrix(1 0 0 1 2 2 )" class="stroke" mask="url(#Clip3863)" />
    <path d="M 15.120000000000001 15.249999999999998  L 15.14 15.249999999999998  L 15.14 17.75  L 12.89 17.75  L 12.89 13  L 15 13  C 16.251940971629033 12.918720597674408  17.225808560548906 11.87957663683246  17.225808560548906 10.625  C 17.225808560548906 9.37042336316754  16.251940971629033 8.331279402325592  15 8.25  L 13.5 8.25  C 12.18945765561573 8.249988431712943  11.125506480387749 9.309469223851732  11.120000000000001 10.620000000000001  L 11.120000000000001 11.260000000000002  L 8.89 11.260000000000002  L 8.89 10.620000000000001  C 8.895514423824757 8.066827721030958  10.966821765929641 5.999994044891742  13.52 6.000000000000001  L 15 6.000000000000001  C 17.498765866030944 6.079137688509671  19.48343809864788 8.127660996636813  19.48343809864788 10.627679721963489  C 19.48343809864788 13.081212131227321  17.56946276634125 15.1087433554984  15.120000000000001 15.249999999999998  Z " stroke-width="0" stroke-dasharray="0" stroke="rgba(255, 255, 255, 0)" fill="none" transform="matrix(1 0 0 1 2 2 )" class="stroke" mask="url(#Clip3863)" />
  </g>
</svg>