<?xml version="1.0" encoding="utf-8"?>
<svg version="1.1" xmlns:xlink="http://www.w3.org/1999/xlink" width="48px" height="42px" xmlns="http://www.w3.org/2000/svg">
  <defs>
    <pattern id="BGPattern" patternUnits="userSpaceOnUse" alignment="0 0" imageRepeat="None" />
    <mask fill="white" id="Clip2912">
      <path d="M 40.4375 7.5625  C 36.05 3.1687499999999993  30.2125 0.75  24 0.75  C 17.79375 0.75  11.95625 3.1687499999999993  7.5625 7.5625  C 3.1687499999999993 11.95  0.75 17.7875  0.75 24  C 0.75 30.6  3.53125 36.84375  8.412500000000001 41  L 39.587500000000006 41  C 44.47153891014301 36.84622729537735  47.256682978215146 30.576245543436812  47.25 24  C 47.25 17.79375  44.83125 11.956250000000002  40.4375 7.5625  Z M 22.125 8.5  L 22.125 3.5  C 22.125 3.2249999999999996  22.35 3  22.625 3  L 25.375 3  C 25.65 3  25.875 3.2249999999999996  25.875 3.5  L 25.875 8.5  C 25.875 8.774999999999999  25.65 9  25.375 9  L 22.625 9  C 22.35 9  22.125 8.774999999999999  22.125 8.5  Z M 8.875 22.625  L 8.875 25.375  C 8.875 25.65  8.649999999999999 25.875  8.375 25.875  L 3.375 25.875  C 3.0999999999999996 25.875  2.875 25.65  2.875 25.375  L 2.875 22.625  C 2.875 22.35  3.0999999999999996 22.125  3.375 22.125  L 8.375 22.125  C 8.649999999999999 22.125  8.875 22.35  8.875 22.625  Z M 14.54375 11.893749999999999  C 14.7375 12.087500000000002  14.7375 12.40625  14.54375 12.600000000000001  L 12.599999999999998 14.543750000000003  C 12.404413647953351 14.737416929547916  12.089336352046644 14.73741692954792  11.893749999999997 14.543750000000003  L 8.356249999999996 11.006250000000001  C 8.16258307045208 10.810663647953351  8.16258307045208 10.49558635204665  8.356249999999996 10.3  L 10.299999999999997 8.35625  C 10.493749999999999 8.162499999999998  10.812499999999996 8.162499999999998  11.006249999999998 8.35625  L 14.54375 11.893749999999999  Z M 32.73749999999999 17.1125  C 32.93124999999999 17.306250000000002  32.93124999999999 17.625  32.7375 17.81875  L 27.456249999999997 23.1  C 27.768749999999997 24.268750000000004  27.46875 25.562499999999996  26.549999999999997 26.481250000000003  C 25.894019729673794 27.138471465062537  25.003574266925476 27.507799158005675  24.075000000000003 27.507799158005675  C 23.146425733074533 27.507799158005675  22.255980270326205 27.138471465062537  21.6 26.481250000000003  C 20.94277853493747 25.8252697296738  20.573450841994333 24.93482426692548  20.573450841994333 24.00625000000001  C 20.573450841994333 23.07767573307454  20.94277853493747 22.187230270326207  21.599999999999994 21.53125  C 22.483342071226023 20.645236396660422  23.773202184756023 20.29952527565885  24.981249999999996 20.625  L 30.262499999999996 15.34375  C 30.456249999999997 15.149999999999997  30.775 15.149999999999997  30.968749999999993 15.34375  L 32.73749999999999 17.1125  Z M 36.131249999999994 14.543750000000003  C 35.935663647953355 14.737416929547912  35.620586352046644 14.737416929547916  35.425 14.543750000000003  L 33.481249999999996 12.600000000000005  C 33.28758307045208 12.404413647953357  33.28758307045208 12.08933635204665  33.481249999999996 11.893749999999999  L 37.01875 8.35625  C 37.2125 8.162499999999998  37.53125 8.162499999999998  37.724999999999994 8.35625  L 39.668749999999996 10.3  C 39.8625 10.493750000000002  39.8625 10.812499999999998  39.668749999999996 11.006250000000001  L 36.131249999999994 14.543750000000003  Z M 44.375 22.125  C 44.65 22.125  44.875 22.35  44.875 22.625  L 44.875 25.375  C 44.875 25.65  44.65 25.875  44.375 25.875  L 39.375 25.875  C 39.1 25.875  38.875 25.65  38.875 25.375  L 38.875 22.625  C 38.875 22.35  39.1 22.125  39.375 22.125  L 44.375 22.125  Z " fill-rule="evenodd" />
    </mask>
  </defs>
  <g transform="matrix(1 0 0 1 -4 -4 )">
    <path d="M 40.4375 7.5625  C 36.05 3.1687499999999993  30.2125 0.75  24 0.75  C 17.79375 0.75  11.95625 3.1687499999999993  7.5625 7.5625  C 3.1687499999999993 11.95  0.75 17.7875  0.75 24  C 0.75 30.6  3.53125 36.84375  8.412500000000001 41  L 39.587500000000006 41  C 44.47153891014301 36.84622729537735  47.256682978215146 30.576245543436812  47.25 24  C 47.25 17.79375  44.83125 11.956250000000002  40.4375 7.5625  Z M 22.125 8.5  L 22.125 3.5  C 22.125 3.2249999999999996  22.35 3  22.625 3  L 25.375 3  C 25.65 3  25.875 3.2249999999999996  25.875 3.5  L 25.875 8.5  C 25.875 8.774999999999999  25.65 9  25.375 9  L 22.625 9  C 22.35 9  22.125 8.774999999999999  22.125 8.5  Z M 8.875 22.625  L 8.875 25.375  C 8.875 25.65  8.649999999999999 25.875  8.375 25.875  L 3.375 25.875  C 3.0999999999999996 25.875  2.875 25.65  2.875 25.375  L 2.875 22.625  C 2.875 22.35  3.0999999999999996 22.125  3.375 22.125  L 8.375 22.125  C 8.649999999999999 22.125  8.875 22.35  8.875 22.625  Z M 14.54375 11.893749999999999  C 14.7375 12.087500000000002  14.7375 12.40625  14.54375 12.600000000000001  L 12.599999999999998 14.543750000000003  C 12.404413647953351 14.737416929547916  12.089336352046644 14.73741692954792  11.893749999999997 14.543750000000003  L 8.356249999999996 11.006250000000001  C 8.16258307045208 10.810663647953351  8.16258307045208 10.49558635204665  8.356249999999996 10.3  L 10.299999999999997 8.35625  C 10.493749999999999 8.162499999999998  10.812499999999996 8.162499999999998  11.006249999999998 8.35625  L 14.54375 11.893749999999999  Z M 32.73749999999999 17.1125  C 32.93124999999999 17.306250000000002  32.93124999999999 17.625  32.7375 17.81875  L 27.456249999999997 23.1  C 27.768749999999997 24.268750000000004  27.46875 25.562499999999996  26.549999999999997 26.481250000000003  C 25.894019729673794 27.138471465062537  25.003574266925476 27.507799158005675  24.075000000000003 27.507799158005675  C 23.146425733074533 27.507799158005675  22.255980270326205 27.138471465062537  21.6 26.481250000000003  C 20.94277853493747 25.8252697296738  20.573450841994333 24.93482426692548  20.573450841994333 24.00625000000001  C 20.573450841994333 23.07767573307454  20.94277853493747 22.187230270326207  21.599999999999994 21.53125  C 22.483342071226023 20.645236396660422  23.773202184756023 20.29952527565885  24.981249999999996 20.625  L 30.262499999999996 15.34375  C 30.456249999999997 15.149999999999997  30.775 15.149999999999997  30.968749999999993 15.34375  L 32.73749999999999 17.1125  Z M 36.131249999999994 14.543750000000003  C 35.935663647953355 14.737416929547912  35.620586352046644 14.737416929547916  35.425 14.543750000000003  L 33.481249999999996 12.600000000000005  C 33.28758307045208 12.404413647953357  33.28758307045208 12.08933635204665  33.481249999999996 11.893749999999999  L 37.01875 8.35625  C 37.2125 8.162499999999998  37.53125 8.162499999999998  37.724999999999994 8.35625  L 39.668749999999996 10.3  C 39.8625 10.493750000000002  39.8625 10.812499999999998  39.668749999999996 11.006250000000001  L 36.131249999999994 14.543750000000003  Z M 44.375 22.125  C 44.65 22.125  44.875 22.35  44.875 22.625  L 44.875 25.375  C 44.875 25.65  44.65 25.875  44.375 25.875  L 39.375 25.875  C 39.1 25.875  38.875 25.65  38.875 25.375  L 38.875 22.625  C 38.875 22.35  39.1 22.125  39.375 22.125  L 44.375 22.125  Z " fill-rule="nonzero" fill="rgba(217, 217, 217, 1)" stroke="none" transform="matrix(1 0 0 1 4 4 )" class="fill" />
    <path d="M 40.4375 7.5625  C 36.05 3.1687499999999993  30.2125 0.75  24 0.75  C 17.79375 0.75  11.95625 3.1687499999999993  7.5625 7.5625  C 3.1687499999999993 11.95  0.75 17.7875  0.75 24  C 0.75 30.6  3.53125 36.84375  8.412500000000001 41  L 39.587500000000006 41  C 44.47153891014301 36.84622729537735  47.256682978215146 30.576245543436812  47.25 24  C 47.25 17.79375  44.83125 11.956250000000002  40.4375 7.5625  Z " stroke-width="0" stroke-dasharray="0" stroke="rgba(255, 255, 255, 0)" fill="none" transform="matrix(1 0 0 1 4 4 )" class="stroke" mask="url(#Clip2912)" />
    <path d="M 22.125 8.5  L 22.125 3.5  C 22.125 3.2249999999999996  22.35 3  22.625 3  L 25.375 3  C 25.65 3  25.875 3.2249999999999996  25.875 3.5  L 25.875 8.5  C 25.875 8.774999999999999  25.65 9  25.375 9  L 22.625 9  C 22.35 9  22.125 8.774999999999999  22.125 8.5  Z " stroke-width="0" stroke-dasharray="0" stroke="rgba(255, 255, 255, 0)" fill="none" transform="matrix(1 0 0 1 4 4 )" class="stroke" mask="url(#Clip2912)" />
    <path d="M 8.875 22.625  L 8.875 25.375  C 8.875 25.65  8.649999999999999 25.875  8.375 25.875  L 3.375 25.875  C 3.0999999999999996 25.875  2.875 25.65  2.875 25.375  L 2.875 22.625  C 2.875 22.35  3.0999999999999996 22.125  3.375 22.125  L 8.375 22.125  C 8.649999999999999 22.125  8.875 22.35  8.875 22.625  Z " stroke-width="0" stroke-dasharray="0" stroke="rgba(255, 255, 255, 0)" fill="none" transform="matrix(1 0 0 1 4 4 )" class="stroke" mask="url(#Clip2912)" />
    <path d="M 14.54375 11.893749999999999  C 14.7375 12.087500000000002  14.7375 12.40625  14.54375 12.600000000000001  L 12.599999999999998 14.543750000000003  C 12.404413647953351 14.737416929547916  12.089336352046644 14.73741692954792  11.893749999999997 14.543750000000003  L 8.356249999999996 11.006250000000001  C 8.16258307045208 10.810663647953351  8.16258307045208 10.49558635204665  8.356249999999996 10.3  L 10.299999999999997 8.35625  C 10.493749999999999 8.162499999999998  10.812499999999996 8.162499999999998  11.006249999999998 8.35625  L 14.54375 11.893749999999999  Z " stroke-width="0" stroke-dasharray="0" stroke="rgba(255, 255, 255, 0)" fill="none" transform="matrix(1 0 0 1 4 4 )" class="stroke" mask="url(#Clip2912)" />
    <path d="M 32.73749999999999 17.1125  C 32.93124999999999 17.306250000000002  32.93124999999999 17.625  32.7375 17.81875  L 27.456249999999997 23.1  C 27.768749999999997 24.268750000000004  27.46875 25.562499999999996  26.549999999999997 26.481250000000003  C 25.894019729673794 27.138471465062537  25.003574266925476 27.507799158005675  24.075000000000003 27.507799158005675  C 23.146425733074533 27.507799158005675  22.255980270326205 27.138471465062537  21.6 26.481250000000003  C 20.94277853493747 25.8252697296738  20.573450841994333 24.93482426692548  20.573450841994333 24.00625000000001  C 20.573450841994333 23.07767573307454  20.94277853493747 22.187230270326207  21.599999999999994 21.53125  C 22.483342071226023 20.645236396660422  23.773202184756023 20.29952527565885  24.981249999999996 20.625  L 30.262499999999996 15.34375  C 30.456249999999997 15.149999999999997  30.775 15.149999999999997  30.968749999999993 15.34375  L 32.73749999999999 17.1125  Z " stroke-width="0" stroke-dasharray="0" stroke="rgba(255, 255, 255, 0)" fill="none" transform="matrix(1 0 0 1 4 4 )" class="stroke" mask="url(#Clip2912)" />
    <path d="M 36.131249999999994 14.543750000000003  C 35.935663647953355 14.737416929547912  35.620586352046644 14.737416929547916  35.425 14.543750000000003  L 33.481249999999996 12.600000000000005  C 33.28758307045208 12.404413647953357  33.28758307045208 12.08933635204665  33.481249999999996 11.893749999999999  L 37.01875 8.35625  C 37.2125 8.162499999999998  37.53125 8.162499999999998  37.724999999999994 8.35625  L 39.668749999999996 10.3  C 39.8625 10.493750000000002  39.8625 10.812499999999998  39.668749999999996 11.006250000000001  L 36.131249999999994 14.543750000000003  Z " stroke-width="0" stroke-dasharray="0" stroke="rgba(255, 255, 255, 0)" fill="none" transform="matrix(1 0 0 1 4 4 )" class="stroke" mask="url(#Clip2912)" />
    <path d="M 44.375 22.125  C 44.65 22.125  44.875 22.35  44.875 22.625  L 44.875 25.375  C 44.875 25.65  44.65 25.875  44.375 25.875  L 39.375 25.875  C 39.1 25.875  38.875 25.65  38.875 25.375  L 38.875 22.625  C 38.875 22.35  39.1 22.125  39.375 22.125  L 44.375 22.125  Z " stroke-width="0" stroke-dasharray="0" stroke="rgba(255, 255, 255, 0)" fill="none" transform="matrix(1 0 0 1 4 4 )" class="stroke" mask="url(#Clip2912)" />
  </g>
</svg>