<?xml version="1.0" encoding="utf-8"?>
<svg version="1.1" xmlns:xlink="http://www.w3.org/1999/xlink" width="48px" height="48px" xmlns="http://www.w3.org/2000/svg">
  <defs>
    <pattern id="BGPattern" patternUnits="userSpaceOnUse" alignment="0 0" imageRepeat="None" />
    <mask fill="white" id="Clip2711">
      <path d="M 32.5 4  C 32.5 4.275  32.725 4.5  33 4.5  L 36.5 4.5  C 36.775 4.5  37 4.275  37 4  L 37 0.5  C 37 0.22499999999999964  36.775 0  36.5 0  L 33 0  C 32.725 0  32.5 0.22499999999999964  32.5 0.5  L 32.5 4  Z M 37.125 44  C 37.125 43.725  36.9 43.5  36.625 43.5  L 33.125 43.5  C 32.85 43.5  32.625 43.725  32.625 44  L 32.625 47.5  C 32.625 47.775  32.85 48  33.125 48  L 36.625 48  C 36.9 48  37.125 47.775  37.125 47.5  L 37.125 44  Z M 4.5 33.125  C 4.5 32.85  4.275 32.625  4 32.625  L 0.5 32.625  C 0.22499999999999964 32.625  0 32.85  0 33.125  L 0 36.625  C 0 36.9  0.22499999999999964 37.125  0.5 37.125  L 4 37.125  C 4.275 37.125  4.5 36.9  4.5 36.625  L 4.5 33.125  Z M 4.5 44  C 4.5 43.725  4.275 43.5  4 43.5  L 0.5 43.5  C 0.22499999999999964 43.5  0 43.725  0 44  L 0 47.5  C 0 47.775  0.22499999999999964 48  0.5 48  L 4 48  C 4.275 48  4.5 47.775  4.5 47.5  L 4.5 44  Z M 48 0.5  C 48 0.22499999999999964  47.775 0  47.5 0  L 44 0  C 43.725 0  43.5 0.22499999999999964  43.5 0.5  L 43.5 4  C 43.5 4.275  43.725 4.5  44 4.5  L 47.5 4.5  C 47.775 4.5  48 4.275  48 4  L 48 0.5  Z M 48 11.375  C 48 11.100000000000001  47.775 10.875  47.5 10.875  L 44 10.875  C 43.725 10.875  43.5 11.100000000000001  43.5 11.375  L 43.5 14.875  C 43.5 15.149999999999999  43.725 15.375  44 15.375  L 47.5 15.375  C 47.775 15.375  48 15.149999999999999  48 14.875  L 48 11.375  Z M 48 22.25  C 48 21.975  47.775 21.75  47.5 21.75  L 44 21.75  C 43.725 21.75  43.5 21.975  43.5 22.25  L 43.5 25.75  C 43.5 26.025  43.725 26.25  44 26.25  L 47.5 26.25  C 47.775 26.25  48 26.025  48 25.75  L 48 22.25  Z M 48 33.125  C 48 32.85  47.775 32.625  47.5 32.625  L 44 32.625  C 43.725 32.625  43.5 32.85  43.5 33.125  L 43.5 36.625  C 43.5 36.9  43.725 37.125  44 37.125  L 47.5 37.125  C 47.775 37.125  48 36.9  48 36.625  L 48 33.125  Z M 48 44  C 48 43.725  47.775 43.5  47.5 43.5  L 44 43.5  C 43.725 43.5  43.5 43.725  43.5 44  L 43.5 47.5  C 43.5 47.775  43.725 48  44 48  L 47.5 48  C 47.775 48  48 47.775  48 47.5  L 48 44  Z M 26.25 44  C 26.25 43.725  26.025 43.5  25.75 43.5  L 22.25 43.5  C 21.975 43.5  21.75 43.725  21.75 44  L 21.75 47.5  C 21.75 47.775  21.975 48  22.25 48  L 25.75 48  C 26.025 48  26.25 47.775  26.25 47.5  L 26.25 44  Z M 15.375 44  C 15.375 43.725  15.149999999999999 43.5  14.875 43.5  L 11.375 43.5  C 11.100000000000001 43.5  10.875 43.725  10.875 44  L 10.875 47.5  C 10.875 47.775  11.100000000000001 48  11.375 48  L 14.875 48  C 15.149999999999999 48  15.375 47.775  15.375 47.5  L 15.375 44  Z M 26.25 0.5  C 26.25 0.22499999999999964  26.025 0  25.75 0  L 14.375 0  C 6.4375 0  0 6.4375  0 14.375  L 0 25.75  C 0 26.025  0.22499999999999964 26.25  0.5 26.25  L 4 26.25  C 4.275 26.25  4.5 26.025  5 25.75  L 5 14.375  C 4.5 8.91875  8.91875 4.5  14.375 5  L 25.75 5  C 26.025 4.5  26.25 4.275  26.25 4  L 26.25 0.5  Z " fill-rule="evenodd" />
    </mask>
  </defs>
  <g>
    <path d="M 32.5 4  C 32.5 4.275  32.725 4.5  33 4.5  L 36.5 4.5  C 36.775 4.5  37 4.275  37 4  L 37 0.5  C 37 0.22499999999999964  36.775 0  36.5 0  L 33 0  C 32.725 0  32.5 0.22499999999999964  32.5 0.5  L 32.5 4  Z M 37.125 44  C 37.125 43.725  36.9 43.5  36.625 43.5  L 33.125 43.5  C 32.85 43.5  32.625 43.725  32.625 44  L 32.625 47.5  C 32.625 47.775  32.85 48  33.125 48  L 36.625 48  C 36.9 48  37.125 47.775  37.125 47.5  L 37.125 44  Z M 4.5 33.125  C 4.5 32.85  4.275 32.625  4 32.625  L 0.5 32.625  C 0.22499999999999964 32.625  0 32.85  0 33.125  L 0 36.625  C 0 36.9  0.22499999999999964 37.125  0.5 37.125  L 4 37.125  C 4.275 37.125  4.5 36.9  4.5 36.625  L 4.5 33.125  Z M 4.5 44  C 4.5 43.725  4.275 43.5  4 43.5  L 0.5 43.5  C 0.22499999999999964 43.5  0 43.725  0 44  L 0 47.5  C 0 47.775  0.22499999999999964 48  0.5 48  L 4 48  C 4.275 48  4.5 47.775  4.5 47.5  L 4.5 44  Z M 48 0.5  C 48 0.22499999999999964  47.775 0  47.5 0  L 44 0  C 43.725 0  43.5 0.22499999999999964  43.5 0.5  L 43.5 4  C 43.5 4.275  43.725 4.5  44 4.5  L 47.5 4.5  C 47.775 4.5  48 4.275  48 4  L 48 0.5  Z M 48 11.375  C 48 11.100000000000001  47.775 10.875  47.5 10.875  L 44 10.875  C 43.725 10.875  43.5 11.100000000000001  43.5 11.375  L 43.5 14.875  C 43.5 15.149999999999999  43.725 15.375  44 15.375  L 47.5 15.375  C 47.775 15.375  48 15.149999999999999  48 14.875  L 48 11.375  Z M 48 22.25  C 48 21.975  47.775 21.75  47.5 21.75  L 44 21.75  C 43.725 21.75  43.5 21.975  43.5 22.25  L 43.5 25.75  C 43.5 26.025  43.725 26.25  44 26.25  L 47.5 26.25  C 47.775 26.25  48 26.025  48 25.75  L 48 22.25  Z M 48 33.125  C 48 32.85  47.775 32.625  47.5 32.625  L 44 32.625  C 43.725 32.625  43.5 32.85  43.5 33.125  L 43.5 36.625  C 43.5 36.9  43.725 37.125  44 37.125  L 47.5 37.125  C 47.775 37.125  48 36.9  48 36.625  L 48 33.125  Z M 48 44  C 48 43.725  47.775 43.5  47.5 43.5  L 44 43.5  C 43.725 43.5  43.5 43.725  43.5 44  L 43.5 47.5  C 43.5 47.775  43.725 48  44 48  L 47.5 48  C 47.775 48  48 47.775  48 47.5  L 48 44  Z M 26.25 44  C 26.25 43.725  26.025 43.5  25.75 43.5  L 22.25 43.5  C 21.975 43.5  21.75 43.725  21.75 44  L 21.75 47.5  C 21.75 47.775  21.975 48  22.25 48  L 25.75 48  C 26.025 48  26.25 47.775  26.25 47.5  L 26.25 44  Z M 15.375 44  C 15.375 43.725  15.149999999999999 43.5  14.875 43.5  L 11.375 43.5  C 11.100000000000001 43.5  10.875 43.725  10.875 44  L 10.875 47.5  C 10.875 47.775  11.100000000000001 48  11.375 48  L 14.875 48  C 15.149999999999999 48  15.375 47.775  15.375 47.5  L 15.375 44  Z M 26.25 0.5  C 26.25 0.22499999999999964  26.025 0  25.75 0  L 14.375 0  C 6.4375 0  0 6.4375  0 14.375  L 0 25.75  C 0 26.025  0.22499999999999964 26.25  0.5 26.25  L 4 26.25  C 4.275 26.25  4.5 26.025  5 25.75  L 5 14.375  C 4.5 8.91875  8.91875 4.5  14.375 5  L 25.75 5  C 26.025 4.5  26.25 4.275  26.25 4  L 26.25 0.5  Z " fill-rule="nonzero" fill="rgba(0, 0, 0, 1)" stroke="none" class="fill" />
    <path d="M 32.5 4  C 32.5 4.275  32.725 4.5  33 4.5  L 36.5 4.5  C 36.775 4.5  37 4.275  37 4  L 37 0.5  C 37 0.22499999999999964  36.775 0  36.5 0  L 33 0  C 32.725 0  32.5 0.22499999999999964  32.5 0.5  L 32.5 4  Z " stroke-width="0" stroke-dasharray="0" stroke="rgba(255, 255, 255, 0)" fill="none" class="stroke" mask="url(#Clip2711)" />
    <path d="M 37.125 44  C 37.125 43.725  36.9 43.5  36.625 43.5  L 33.125 43.5  C 32.85 43.5  32.625 43.725  32.625 44  L 32.625 47.5  C 32.625 47.775  32.85 48  33.125 48  L 36.625 48  C 36.9 48  37.125 47.775  37.125 47.5  L 37.125 44  Z " stroke-width="0" stroke-dasharray="0" stroke="rgba(255, 255, 255, 0)" fill="none" class="stroke" mask="url(#Clip2711)" />
    <path d="M 4.5 33.125  C 4.5 32.85  4.275 32.625  4 32.625  L 0.5 32.625  C 0.22499999999999964 32.625  0 32.85  0 33.125  L 0 36.625  C 0 36.9  0.22499999999999964 37.125  0.5 37.125  L 4 37.125  C 4.275 37.125  4.5 36.9  4.5 36.625  L 4.5 33.125  Z " stroke-width="0" stroke-dasharray="0" stroke="rgba(255, 255, 255, 0)" fill="none" class="stroke" mask="url(#Clip2711)" />
    <path d="M 4.5 44  C 4.5 43.725  4.275 43.5  4 43.5  L 0.5 43.5  C 0.22499999999999964 43.5  0 43.725  0 44  L 0 47.5  C 0 47.775  0.22499999999999964 48  0.5 48  L 4 48  C 4.275 48  4.5 47.775  4.5 47.5  L 4.5 44  Z " stroke-width="0" stroke-dasharray="0" stroke="rgba(255, 255, 255, 0)" fill="none" class="stroke" mask="url(#Clip2711)" />
    <path d="M 48 0.5  C 48 0.22499999999999964  47.775 0  47.5 0  L 44 0  C 43.725 0  43.5 0.22499999999999964  43.5 0.5  L 43.5 4  C 43.5 4.275  43.725 4.5  44 4.5  L 47.5 4.5  C 47.775 4.5  48 4.275  48 4  L 48 0.5  Z " stroke-width="0" stroke-dasharray="0" stroke="rgba(255, 255, 255, 0)" fill="none" class="stroke" mask="url(#Clip2711)" />
    <path d="M 48 11.375  C 48 11.100000000000001  47.775 10.875  47.5 10.875  L 44 10.875  C 43.725 10.875  43.5 11.100000000000001  43.5 11.375  L 43.5 14.875  C 43.5 15.149999999999999  43.725 15.375  44 15.375  L 47.5 15.375  C 47.775 15.375  48 15.149999999999999  48 14.875  L 48 11.375  Z " stroke-width="0" stroke-dasharray="0" stroke="rgba(255, 255, 255, 0)" fill="none" class="stroke" mask="url(#Clip2711)" />
    <path d="M 48 22.25  C 48 21.975  47.775 21.75  47.5 21.75  L 44 21.75  C 43.725 21.75  43.5 21.975  43.5 22.25  L 43.5 25.75  C 43.5 26.025  43.725 26.25  44 26.25  L 47.5 26.25  C 47.775 26.25  48 26.025  48 25.75  L 48 22.25  Z " stroke-width="0" stroke-dasharray="0" stroke="rgba(255, 255, 255, 0)" fill="none" class="stroke" mask="url(#Clip2711)" />
    <path d="M 48 33.125  C 48 32.85  47.775 32.625  47.5 32.625  L 44 32.625  C 43.725 32.625  43.5 32.85  43.5 33.125  L 43.5 36.625  C 43.5 36.9  43.725 37.125  44 37.125  L 47.5 37.125  C 47.775 37.125  48 36.9  48 36.625  L 48 33.125  Z " stroke-width="0" stroke-dasharray="0" stroke="rgba(255, 255, 255, 0)" fill="none" class="stroke" mask="url(#Clip2711)" />
    <path d="M 48 44  C 48 43.725  47.775 43.5  47.5 43.5  L 44 43.5  C 43.725 43.5  43.5 43.725  43.5 44  L 43.5 47.5  C 43.5 47.775  43.725 48  44 48  L 47.5 48  C 47.775 48  48 47.775  48 47.5  L 48 44  Z " stroke-width="0" stroke-dasharray="0" stroke="rgba(255, 255, 255, 0)" fill="none" class="stroke" mask="url(#Clip2711)" />
    <path d="M 26.25 44  C 26.25 43.725  26.025 43.5  25.75 43.5  L 22.25 43.5  C 21.975 43.5  21.75 43.725  21.75 44  L 21.75 47.5  C 21.75 47.775  21.975 48  22.25 48  L 25.75 48  C 26.025 48  26.25 47.775  26.25 47.5  L 26.25 44  Z " stroke-width="0" stroke-dasharray="0" stroke="rgba(255, 255, 255, 0)" fill="none" class="stroke" mask="url(#Clip2711)" />
    <path d="M 15.375 44  C 15.375 43.725  15.149999999999999 43.5  14.875 43.5  L 11.375 43.5  C 11.100000000000001 43.5  10.875 43.725  10.875 44  L 10.875 47.5  C 10.875 47.775  11.100000000000001 48  11.375 48  L 14.875 48  C 15.149999999999999 48  15.375 47.775  15.375 47.5  L 15.375 44  Z " stroke-width="0" stroke-dasharray="0" stroke="rgba(255, 255, 255, 0)" fill="none" class="stroke" mask="url(#Clip2711)" />
    <path d="M 26.25 0.5  C 26.25 0.22499999999999964  26.025 0  25.75 0  L 14.375 0  C 6.4375 0  0 6.4375  0 14.375  L 0 25.75  C 0 26.025  0.22499999999999964 26.25  0.5 26.25  L 4 26.25  C 4.275 26.25  4.5 26.025  5 25.75  L 5 14.375  C 4.5 8.91875  8.91875 4.5  14.375 5  L 25.75 5  C 26.025 4.5  26.25 4.275  26.25 4  L 26.25 0.5  Z " stroke-width="0" stroke-dasharray="0" stroke="rgba(255, 255, 255, 0)" fill="none" class="stroke" mask="url(#Clip2711)" />
  </g>
</svg>