<?xml version="1.0" encoding="utf-8"?>
<svg version="1.1" xmlns:xlink="http://www.w3.org/1999/xlink" width="28px" height="28px" xmlns="http://www.w3.org/2000/svg">
  <defs>
    <pattern id="BGPattern" patternUnits="userSpaceOnUse" alignment="0 0" imageRepeat="None" />
    <mask fill="white" id="Clip3601">
      <path d="M 28 6  C 28 4.8954305003384135  27.104569499661586 4  26 4  L 16 4  L 16 2  C 16 0.895430500338413  15.104569499661585 0  14 0  L 2 0  C 0.895430500338413 0  0 0.895430500338413  0 2  L 0 22  C 0 23.104569499661586  0.895430500338413 24  2 24  L 12 24  L 12 26  C 12 27.104569499661586  12.895430500338414 28  14 28  L 26 28  C 27.104569499661586 28  28 27.104569499661586  28 26  L 28 6  Z M 2 22  L 2 13  L 8.17 13  L 5.59 15.590000000000002  L 7 17  L 12 12  L 7 7  L 5.59 8.41  L 8.17 11  L 2 11  L 2 2  L 14 2  L 14 22  L 2 22  Z M 26 26  L 14 26  L 14 24  C 15.104569499661585 24  16 23.104569499661586  16 22  L 16 6  L 26 6  L 26 15  L 19.83 15  L 22.409999999999997 12.41  L 21 11  L 16 16  L 21 21  L 22.41 19.59  L 19.83 17  L 26 17  L 26 26  Z " fill-rule="evenodd" />
    </mask>
  </defs>
  <g transform="matrix(1 0 0 1 -2 -2 )">
    <path d="M 28 6  C 28 4.8954305003384135  27.104569499661586 4  26 4  L 16 4  L 16 2  C 16 0.895430500338413  15.104569499661585 0  14 0  L 2 0  C 0.895430500338413 0  0 0.895430500338413  0 2  L 0 22  C 0 23.104569499661586  0.895430500338413 24  2 24  L 12 24  L 12 26  C 12 27.104569499661586  12.895430500338414 28  14 28  L 26 28  C 27.104569499661586 28  28 27.104569499661586  28 26  L 28 6  Z M 2 22  L 2 13  L 8.17 13  L 5.59 15.590000000000002  L 7 17  L 12 12  L 7 7  L 5.59 8.41  L 8.17 11  L 2 11  L 2 2  L 14 2  L 14 22  L 2 22  Z M 26 26  L 14 26  L 14 24  C 15.104569499661585 24  16 23.104569499661586  16 22  L 16 6  L 26 6  L 26 15  L 19.83 15  L 22.409999999999997 12.41  L 21 11  L 16 16  L 21 21  L 22.41 19.59  L 19.83 17  L 26 17  L 26 26  Z " fill-rule="nonzero" fill="rgba(0, 0, 0, 1)" stroke="none" transform="matrix(1 0 0 1 2 2 )" class="fill" />
    <path d="M 28 6  C 28 4.8954305003384135  27.104569499661586 4  26 4  L 16 4  L 16 2  C 16 0.895430500338413  15.104569499661585 0  14 0  L 2 0  C 0.895430500338413 0  0 0.895430500338413  0 2  L 0 22  C 0 23.104569499661586  0.895430500338413 24  2 24  L 12 24  L 12 26  C 12 27.104569499661586  12.895430500338414 28  14 28  L 26 28  C 27.104569499661586 28  28 27.104569499661586  28 26  L 28 6  Z " stroke-width="0" stroke-dasharray="0" stroke="rgba(255, 255, 255, 0)" fill="none" transform="matrix(1 0 0 1 2 2 )" class="stroke" mask="url(#Clip3601)" />
    <path d="M 2 22  L 2 13  L 8.17 13  L 5.59 15.590000000000002  L 7 17  L 12 12  L 7 7  L 5.59 8.41  L 8.17 11  L 2 11  L 2 2  L 14 2  L 14 22  L 2 22  Z " stroke-width="0" stroke-dasharray="0" stroke="rgba(255, 255, 255, 0)" fill="none" transform="matrix(1 0 0 1 2 2 )" class="stroke" mask="url(#Clip3601)" />
    <path d="M 26 26  L 14 26  L 14 24  C 15.104569499661585 24  16 23.104569499661586  16 22  L 16 6  L 26 6  L 26 15  L 19.83 15  L 22.409999999999997 12.41  L 21 11  L 16 16  L 21 21  L 22.41 19.59  L 19.83 17  L 26 17  L 26 26  Z " stroke-width="0" stroke-dasharray="0" stroke="rgba(255, 255, 255, 0)" fill="none" transform="matrix(1 0 0 1 2 2 )" class="stroke" mask="url(#Clip3601)" />
  </g>
</svg>