<?xml version="1.0" encoding="utf-8"?>
<svg version="1.1" xmlns:xlink="http://www.w3.org/1999/xlink" width="64px" height="64px" xmlns="http://www.w3.org/2000/svg">
  <defs>
    <pattern id="BGPattern" patternUnits="userSpaceOnUse" alignment="0 0" imageRepeat="None" />
    <mask fill="white" id="Clip1843">
      <path d="M 63.9250000000897 48.67499952537995  C 64.24439654222823 47.25380291371231  63.50949531820775 45.80603177813433  62.17375000218429 45.22499955902021  L 48.173750018929056 39.224999617524986  C 46.945157173044315 38.701401240365996  45.51838280905583 39.052999205626755  44.67375002311525 40.08749960911493  L 38.47375003053078 47.66249953525265  C 28.743426935551785 43.074746435814184  20.912753195707413 35.24407276295921  16.325000057021906 25.513749751220605  L 23.90000004796179 19.313749811675546  C 24.93674391404521 18.47053712440986  25.28874483763548 17.042127591625544  24.762500046930196 15.813749845803336  L 18.76250005410652 1.8137499823144945  C 18.182601382138582 0.4842325627771686  16.73940637780625 -0.2452369058994789  15.32500005821796 0.07624999925650174  L 2.3250000737666694 3.0762499700041106  C 0.9637642096696616 3.3905880168544047  -0.000313652441595427 4.602941834159497  0 5.9999999414952185  C 0 38.06249962886029  25.98750004546503 63.999999375948995  58.000000007176325 63.999999375948995  C 59.39752554647577 64.00089545417917  60.61055697997578 63.03669098964564  60.925000003677866 61.6749993986196  L 63.9250000000897 48.67499952537995  Z " fill-rule="evenodd" />
    </mask>
  </defs>
  <g>
    <path d="M 63.9250000000897 48.67499952537995  C 64.24439654222823 47.25380291371231  63.50949531820775 45.80603177813433  62.17375000218429 45.22499955902021  L 48.173750018929056 39.224999617524986  C 46.945157173044315 38.701401240365996  45.51838280905583 39.052999205626755  44.67375002311525 40.08749960911493  L 38.47375003053078 47.66249953525265  C 28.743426935551785 43.074746435814184  20.912753195707413 35.24407276295921  16.325000057021906 25.513749751220605  L 23.90000004796179 19.313749811675546  C 24.93674391404521 18.47053712440986  25.28874483763548 17.042127591625544  24.762500046930196 15.813749845803336  L 18.76250005410652 1.8137499823144945  C 18.182601382138582 0.4842325627771686  16.73940637780625 -0.2452369058994789  15.32500005821796 0.07624999925650174  L 2.3250000737666694 3.0762499700041106  C 0.9637642096696616 3.3905880168544047  -0.000313652441595427 4.602941834159497  0 5.9999999414952185  C 0 38.06249962886029  25.98750004546503 63.999999375948995  58.000000007176325 63.999999375948995  C 59.39752554647577 64.00089545417917  60.61055697997578 63.03669098964564  60.925000003677866 61.6749993986196  L 63.9250000000897 48.67499952537995  Z " fill-rule="nonzero" fill="rgba(0, 0, 0, 1)" stroke="none" class="fill" />
    <path d="M 63.9250000000897 48.67499952537995  C 64.24439654222823 47.25380291371231  63.50949531820775 45.80603177813433  62.17375000218429 45.22499955902021  L 48.173750018929056 39.224999617524986  C 46.945157173044315 38.701401240365996  45.51838280905583 39.052999205626755  44.67375002311525 40.08749960911493  L 38.47375003053078 47.66249953525265  C 28.743426935551785 43.074746435814184  20.912753195707413 35.24407276295921  16.325000057021906 25.513749751220605  L 23.90000004796179 19.313749811675546  C 24.93674391404521 18.47053712440986  25.28874483763548 17.042127591625544  24.762500046930196 15.813749845803336  L 18.76250005410652 1.8137499823144945  C 18.182601382138582 0.4842325627771686  16.73940637780625 -0.2452369058994789  15.32500005821796 0.07624999925650174  L 2.3250000737666694 3.0762499700041106  C 0.9637642096696616 3.3905880168544047  -0.000313652441595427 4.602941834159497  0 5.9999999414952185  C 0 38.06249962886029  25.98750004546503 63.999999375948995  58.000000007176325 63.999999375948995  C 59.39752554647577 64.00089545417917  60.61055697997578 63.03669098964564  60.925000003677866 61.6749993986196  L 63.9250000000897 48.67499952537995  Z " stroke-width="0" stroke-dasharray="0" stroke="rgba(255, 255, 255, 0)" fill="none" class="stroke" mask="url(#Clip1843)" />
  </g>
</svg>