<?xml version="1.0" encoding="utf-8"?>
<svg version="1.1" xmlns:xlink="http://www.w3.org/1999/xlink" width="30px" height="30px" xmlns="http://www.w3.org/2000/svg">
  <defs>
    <pattern id="BGPattern" patternUnits="userSpaceOnUse" alignment="0 0" imageRepeat="None" />
    <mask fill="white" id="Clip406">
      <path d="M 11.928 7.4  C 11.768 8.056000000000001  11.512 8.6  11 8.6  C 10.488 8.6  10.216 8.056  10.072 7.4  C 9.751999999999999 5.928000000000001  9.959999999999999 6.008000000000001  8.2 5.48  C 7.559999999999999 5.288  6.999999999999999 5.096  6.999999999999999 4.6000000000000005  C 6.999999999999999 4.104000000000001  7.559999999999999 3.9120000000000004  8.2 3.7200000000000006  C 9.959999999999999 3.192  9.719999999999999 3.2720000000000002  10.072 1.8000000000000007  C 10.232 1.1440000000000006  10.488 0.6000000000000008  11 0.6000000000000008  C 11.512 0.6000000000000008  11.784 1.144000000000001  11.928 1.8000000000000007  C 12.248000000000001 3.2720000000000002  12.040000000000001 3.192  13.8 3.7200000000000006  C 14.440000000000001 3.9120000000000004  15 4.104000000000001  15 4.6000000000000005  C 15 5.096  14.44 5.288  13.8 5.48  C 12.040000000000001 6.008000000000001  12.280000000000001 5.928000000000001  11.928 7.4  Z M 26.328 10.600000000000001  C 26.168 11.256000000000002  25.912 11.8  25.4 11.8  C 24.887999999999998 11.8  24.616 11.256  24.471999999999998 10.600000000000001  C 24.151999999999997 9.128000000000002  24.36 9.208000000000002  22.599999999999998 8.680000000000001  C 21.959999999999997 8.488000000000001  21.4 8.296000000000001  21.4 7.800000000000001  C 21.4 7.304  21.959999999999997 7.112  22.599999999999998 6.920000000000001  C 24.36 6.392000000000001  24.119999999999997 6.472  24.471999999999998 5.000000000000001  C 24.631999999999998 4.344000000000001  24.887999999999998 3.8000000000000003  25.4 3.8000000000000003  C 25.912 3.8000000000000003  26.183999999999997 4.344000000000001  26.328 5.000000000000001  C 26.648 6.472000000000001  26.439999999999998 6.392000000000001  28.2 6.920000000000001  C 28.84 7.112  29.4 7.304  29.4 7.800000000000001  C 29.4 8.296000000000001  28.84 8.488000000000001  28.2 8.680000000000001  C 26.439999999999998 9.208000000000002  26.68 9.128000000000002  26.328 10.600000000000001  Z M 7.192000000000002 28.472  C 6.568000000000002 29.096  5.7520000000000024 29.400000000000002  4.936 29.4  C 4.12 29.4  3.3040000000000003 29.096  2.664 28.456  L 1.544 27.336  C 0.9199999999999999 26.712  0.6000000000000001 25.88  0.6000000000000001 25.064  C 0.6000000000000001 24.248  0.9200000000000002 23.432  1.528 22.823999999999998  L 13.192 11.159999999999998  C 13.832 10.519999999999998  14.632 10.2  15.448 10.2  C 16.264000000000003 10.2  17.080000000000002 10.536  17.72 11.175999999999998  L 18.84 12.296  C 19.464 12.92  19.8 13.751999999999999  19.8 14.568  C 19.8 15.384  19.464000000000002 16.2  18.856 16.808  L 7.192000000000002 28.472  Z M 13.4 14.343999999999996  L 15.655999999999997 16.616  L 17.16 15.111999999999998  C 17.304 14.967999999999998  17.384 14.759999999999998  17.384 14.567999999999998  C 17.384 14.359999999999998  17.304000000000002 14.151999999999997  17.144000000000002 13.991999999999997  L 16.024 12.871999999999996  C 15.864 12.695999999999996  15.656 12.615999999999996  15.448 12.615999999999996  C 15.256000000000002 12.615999999999996  15.048000000000002 12.695999999999996  14.888 12.855999999999996  L 13.4 14.343999999999996  Z M 26.328 21.800000000000004  C 26.168 22.456000000000003  25.912 23.000000000000004  25.4 23  C 24.887999999999998 23  24.616 22.456  24.471999999999998 21.8  C 24.151999999999997 20.328  24.36 20.408  22.599999999999998 19.880000000000003  C 21.959999999999997 19.688000000000002  21.4 19.496000000000002  21.4 19.000000000000004  C 21.4 18.504000000000005  21.959999999999997 18.312000000000005  22.599999999999998 18.120000000000005  C 24.36 17.592000000000006  24.119999999999997 17.672000000000004  24.471999999999998 16.200000000000003  C 24.631999999999998 15.544000000000004  24.887999999999998 15.000000000000004  25.4 15.000000000000004  C 25.912 15.000000000000004  26.183999999999997 15.544000000000004  26.328 16.200000000000003  C 26.648 17.672000000000004  26.439999999999998 17.592000000000002  28.2 18.120000000000005  C 28.84 18.312000000000005  29.4 18.504000000000005  29.4 19.000000000000004  C 29.4 19.496000000000002  28.84 19.688000000000002  28.2 19.880000000000003  C 26.439999999999998 20.408  26.68 20.328000000000003  26.328 21.800000000000004  Z M 4.36 26.76  C 4.5200000000000005 26.92  4.728000000000001 27  4.936 27  C 5.144 27  5.352 26.92  5.496 26.776  L 13.96 18.311999999999998  L 11.704 16.04  L 3.224 24.52  C 3.08 24.663999999999998  3 24.872  3 25.064  C 3 25.272  3.08 25.48  3.24 25.64  L 4.36 26.76  Z " fill-rule="evenodd" />
    </mask>
  </defs>
  <g>
    <path d="M 11.928 7.4  C 11.768 8.056000000000001  11.512 8.6  11 8.6  C 10.488 8.6  10.216 8.056  10.072 7.4  C 9.751999999999999 5.928000000000001  9.959999999999999 6.008000000000001  8.2 5.48  C 7.559999999999999 5.288  6.999999999999999 5.096  6.999999999999999 4.6000000000000005  C 6.999999999999999 4.104000000000001  7.559999999999999 3.9120000000000004  8.2 3.7200000000000006  C 9.959999999999999 3.192  9.719999999999999 3.2720000000000002  10.072 1.8000000000000007  C 10.232 1.1440000000000006  10.488 0.6000000000000008  11 0.6000000000000008  C 11.512 0.6000000000000008  11.784 1.144000000000001  11.928 1.8000000000000007  C 12.248000000000001 3.2720000000000002  12.040000000000001 3.192  13.8 3.7200000000000006  C 14.440000000000001 3.9120000000000004  15 4.104000000000001  15 4.6000000000000005  C 15 5.096  14.44 5.288  13.8 5.48  C 12.040000000000001 6.008000000000001  12.280000000000001 5.928000000000001  11.928 7.4  Z M 26.328 10.600000000000001  C 26.168 11.256000000000002  25.912 11.8  25.4 11.8  C 24.887999999999998 11.8  24.616 11.256  24.471999999999998 10.600000000000001  C 24.151999999999997 9.128000000000002  24.36 9.208000000000002  22.599999999999998 8.680000000000001  C 21.959999999999997 8.488000000000001  21.4 8.296000000000001  21.4 7.800000000000001  C 21.4 7.304  21.959999999999997 7.112  22.599999999999998 6.920000000000001  C 24.36 6.392000000000001  24.119999999999997 6.472  24.471999999999998 5.000000000000001  C 24.631999999999998 4.344000000000001  24.887999999999998 3.8000000000000003  25.4 3.8000000000000003  C 25.912 3.8000000000000003  26.183999999999997 4.344000000000001  26.328 5.000000000000001  C 26.648 6.472000000000001  26.439999999999998 6.392000000000001  28.2 6.920000000000001  C 28.84 7.112  29.4 7.304  29.4 7.800000000000001  C 29.4 8.296000000000001  28.84 8.488000000000001  28.2 8.680000000000001  C 26.439999999999998 9.208000000000002  26.68 9.128000000000002  26.328 10.600000000000001  Z M 7.192000000000002 28.472  C 6.568000000000002 29.096  5.7520000000000024 29.400000000000002  4.936 29.4  C 4.12 29.4  3.3040000000000003 29.096  2.664 28.456  L 1.544 27.336  C 0.9199999999999999 26.712  0.6000000000000001 25.88  0.6000000000000001 25.064  C 0.6000000000000001 24.248  0.9200000000000002 23.432  1.528 22.823999999999998  L 13.192 11.159999999999998  C 13.832 10.519999999999998  14.632 10.2  15.448 10.2  C 16.264000000000003 10.2  17.080000000000002 10.536  17.72 11.175999999999998  L 18.84 12.296  C 19.464 12.92  19.8 13.751999999999999  19.8 14.568  C 19.8 15.384  19.464000000000002 16.2  18.856 16.808  L 7.192000000000002 28.472  Z M 13.4 14.343999999999996  L 15.655999999999997 16.616  L 17.16 15.111999999999998  C 17.304 14.967999999999998  17.384 14.759999999999998  17.384 14.567999999999998  C 17.384 14.359999999999998  17.304000000000002 14.151999999999997  17.144000000000002 13.991999999999997  L 16.024 12.871999999999996  C 15.864 12.695999999999996  15.656 12.615999999999996  15.448 12.615999999999996  C 15.256000000000002 12.615999999999996  15.048000000000002 12.695999999999996  14.888 12.855999999999996  L 13.4 14.343999999999996  Z M 26.328 21.800000000000004  C 26.168 22.456000000000003  25.912 23.000000000000004  25.4 23  C 24.887999999999998 23  24.616 22.456  24.471999999999998 21.8  C 24.151999999999997 20.328  24.36 20.408  22.599999999999998 19.880000000000003  C 21.959999999999997 19.688000000000002  21.4 19.496000000000002  21.4 19.000000000000004  C 21.4 18.504000000000005  21.959999999999997 18.312000000000005  22.599999999999998 18.120000000000005  C 24.36 17.592000000000006  24.119999999999997 17.672000000000004  24.471999999999998 16.200000000000003  C 24.631999999999998 15.544000000000004  24.887999999999998 15.000000000000004  25.4 15.000000000000004  C 25.912 15.000000000000004  26.183999999999997 15.544000000000004  26.328 16.200000000000003  C 26.648 17.672000000000004  26.439999999999998 17.592000000000002  28.2 18.120000000000005  C 28.84 18.312000000000005  29.4 18.504000000000005  29.4 19.000000000000004  C 29.4 19.496000000000002  28.84 19.688000000000002  28.2 19.880000000000003  C 26.439999999999998 20.408  26.68 20.328000000000003  26.328 21.800000000000004  Z M 4.36 26.76  C 4.5200000000000005 26.92  4.728000000000001 27  4.936 27  C 5.144 27  5.352 26.92  5.496 26.776  L 13.96 18.311999999999998  L 11.704 16.04  L 3.224 24.52  C 3.08 24.663999999999998  3 24.872  3 25.064  C 3 25.272  3.08 25.48  3.24 25.64  L 4.36 26.76  Z " fill-rule="nonzero" fill="rgba(0, 0, 0, 1)" stroke="none" class="fill" />
    <path d="M 11.928 7.4  C 11.768 8.056000000000001  11.512 8.6  11 8.6  C 10.488 8.6  10.216 8.056  10.072 7.4  C 9.751999999999999 5.928000000000001  9.959999999999999 6.008000000000001  8.2 5.48  C 7.559999999999999 5.288  6.999999999999999 5.096  6.999999999999999 4.6000000000000005  C 6.999999999999999 4.104000000000001  7.559999999999999 3.9120000000000004  8.2 3.7200000000000006  C 9.959999999999999 3.192  9.719999999999999 3.2720000000000002  10.072 1.8000000000000007  C 10.232 1.1440000000000006  10.488 0.6000000000000008  11 0.6000000000000008  C 11.512 0.6000000000000008  11.784 1.144000000000001  11.928 1.8000000000000007  C 12.248000000000001 3.2720000000000002  12.040000000000001 3.192  13.8 3.7200000000000006  C 14.440000000000001 3.9120000000000004  15 4.104000000000001  15 4.6000000000000005  C 15 5.096  14.44 5.288  13.8 5.48  C 12.040000000000001 6.008000000000001  12.280000000000001 5.928000000000001  11.928 7.4  Z " stroke-width="0" stroke-dasharray="0" stroke="rgba(255, 255, 255, 0)" fill="none" class="stroke" mask="url(#Clip406)" />
    <path d="M 26.328 10.600000000000001  C 26.168 11.256000000000002  25.912 11.8  25.4 11.8  C 24.887999999999998 11.8  24.616 11.256  24.471999999999998 10.600000000000001  C 24.151999999999997 9.128000000000002  24.36 9.208000000000002  22.599999999999998 8.680000000000001  C 21.959999999999997 8.488000000000001  21.4 8.296000000000001  21.4 7.800000000000001  C 21.4 7.304  21.959999999999997 7.112  22.599999999999998 6.920000000000001  C 24.36 6.392000000000001  24.119999999999997 6.472  24.471999999999998 5.000000000000001  C 24.631999999999998 4.344000000000001  24.887999999999998 3.8000000000000003  25.4 3.8000000000000003  C 25.912 3.8000000000000003  26.183999999999997 4.344000000000001  26.328 5.000000000000001  C 26.648 6.472000000000001  26.439999999999998 6.392000000000001  28.2 6.920000000000001  C 28.84 7.112  29.4 7.304  29.4 7.800000000000001  C 29.4 8.296000000000001  28.84 8.488000000000001  28.2 8.680000000000001  C 26.439999999999998 9.208000000000002  26.68 9.128000000000002  26.328 10.600000000000001  Z " stroke-width="0" stroke-dasharray="0" stroke="rgba(255, 255, 255, 0)" fill="none" class="stroke" mask="url(#Clip406)" />
    <path d="M 7.192000000000002 28.472  C 6.568000000000002 29.096  5.7520000000000024 29.400000000000002  4.936 29.4  C 4.12 29.4  3.3040000000000003 29.096  2.664 28.456  L 1.544 27.336  C 0.9199999999999999 26.712  0.6000000000000001 25.88  0.6000000000000001 25.064  C 0.6000000000000001 24.248  0.9200000000000002 23.432  1.528 22.823999999999998  L 13.192 11.159999999999998  C 13.832 10.519999999999998  14.632 10.2  15.448 10.2  C 16.264000000000003 10.2  17.080000000000002 10.536  17.72 11.175999999999998  L 18.84 12.296  C 19.464 12.92  19.8 13.751999999999999  19.8 14.568  C 19.8 15.384  19.464000000000002 16.2  18.856 16.808  L 7.192000000000002 28.472  Z " stroke-width="0" stroke-dasharray="0" stroke="rgba(255, 255, 255, 0)" fill="none" class="stroke" mask="url(#Clip406)" />
    <path d="M 13.4 14.343999999999996  L 15.655999999999997 16.616  L 17.16 15.111999999999998  C 17.304 14.967999999999998  17.384 14.759999999999998  17.384 14.567999999999998  C 17.384 14.359999999999998  17.304000000000002 14.151999999999997  17.144000000000002 13.991999999999997  L 16.024 12.871999999999996  C 15.864 12.695999999999996  15.656 12.615999999999996  15.448 12.615999999999996  C 15.256000000000002 12.615999999999996  15.048000000000002 12.695999999999996  14.888 12.855999999999996  L 13.4 14.343999999999996  Z " stroke-width="0" stroke-dasharray="0" stroke="rgba(255, 255, 255, 0)" fill="none" class="stroke" mask="url(#Clip406)" />
    <path d="M 26.328 21.800000000000004  C 26.168 22.456000000000003  25.912 23.000000000000004  25.4 23  C 24.887999999999998 23  24.616 22.456  24.471999999999998 21.8  C 24.151999999999997 20.328  24.36 20.408  22.599999999999998 19.880000000000003  C 21.959999999999997 19.688000000000002  21.4 19.496000000000002  21.4 19.000000000000004  C 21.4 18.504000000000005  21.959999999999997 18.312000000000005  22.599999999999998 18.120000000000005  C 24.36 17.592000000000006  24.119999999999997 17.672000000000004  24.471999999999998 16.200000000000003  C 24.631999999999998 15.544000000000004  24.887999999999998 15.000000000000004  25.4 15.000000000000004  C 25.912 15.000000000000004  26.183999999999997 15.544000000000004  26.328 16.200000000000003  C 26.648 17.672000000000004  26.439999999999998 17.592000000000002  28.2 18.120000000000005  C 28.84 18.312000000000005  29.4 18.504000000000005  29.4 19.000000000000004  C 29.4 19.496000000000002  28.84 19.688000000000002  28.2 19.880000000000003  C 26.439999999999998 20.408  26.68 20.328000000000003  26.328 21.800000000000004  Z " stroke-width="0" stroke-dasharray="0" stroke="rgba(255, 255, 255, 0)" fill="none" class="stroke" mask="url(#Clip406)" />
    <path d="M 4.36 26.76  C 4.5200000000000005 26.92  4.728000000000001 27  4.936 27  C 5.144 27  5.352 26.92  5.496 26.776  L 13.96 18.311999999999998  L 11.704 16.04  L 3.224 24.52  C 3.08 24.663999999999998  3 24.872  3 25.064  C 3 25.272  3.08 25.48  3.24 25.64  L 4.36 26.76  Z " stroke-width="0" stroke-dasharray="0" stroke="rgba(255, 255, 255, 0)" fill="none" class="stroke" mask="url(#Clip406)" />
  </g>
</svg>