<?xml version="1.0" encoding="utf-8"?>
<svg version="1.1" xmlns:xlink="http://www.w3.org/1999/xlink" width="44px" height="52px" xmlns="http://www.w3.org/2000/svg">
  <defs>
    <pattern id="BGPattern" patternUnits="userSpaceOnUse" alignment="0 0" imageRepeat="None" />
    <mask fill="white" id="Clip3157">
      <path d="M 43.35 17.3125  C 43.675000000000004 17.00625  43.456250000000004 16.45625  43.00625 17  L 29.237499999999997 17  L 41.61875 0.8125  C 41.875 0.4812500000000002  41.64375 0  41.225 0  L 17.25625 0  C 17.08125 0  16.9125 0.09375  16.825000000000003 0.25  L 0.6312499999999996 28.218750000000004  C 0.4375 28.549999999999997  0.6749999999999989 28.96875  1.0625 29  L 11.962499999999999 29  L 6.375 51.31875  C 6.256250000000001 51.80625  6.84375 52.15  7.206250000000001 51.800000000000004  L 43.35 17.3125  Z M 33.63125 21  L 13.64375 39.78125  L 17.4125 24.71875  L 7.574999999999999 24.71875  L 19.424999999999997 5  L 33.4625 5  L 20.44375 21  L 33.63125 21  Z " fill-rule="evenodd" />
    </mask>
  </defs>
  <g>
    <path d="M 43.35 17.3125  C 43.675000000000004 17.00625  43.456250000000004 16.45625  43.00625 17  L 29.237499999999997 17  L 41.61875 0.8125  C 41.875 0.4812500000000002  41.64375 0  41.225 0  L 17.25625 0  C 17.08125 0  16.9125 0.09375  16.825000000000003 0.25  L 0.6312499999999996 28.218750000000004  C 0.4375 28.549999999999997  0.6749999999999989 28.96875  1.0625 29  L 11.962499999999999 29  L 6.375 51.31875  C 6.256250000000001 51.80625  6.84375 52.15  7.206250000000001 51.800000000000004  L 43.35 17.3125  Z M 33.63125 21  L 13.64375 39.78125  L 17.4125 24.71875  L 7.574999999999999 24.71875  L 19.424999999999997 5  L 33.4625 5  L 20.44375 21  L 33.63125 21  Z " fill-rule="nonzero" fill="rgba(0, 0, 0, 1)" stroke="none" class="fill" />
    <path d="M 43.35 17.3125  C 43.675000000000004 17.00625  43.456250000000004 16.45625  43.00625 17  L 29.237499999999997 17  L 41.61875 0.8125  C 41.875 0.4812500000000002  41.64375 0  41.225 0  L 17.25625 0  C 17.08125 0  16.9125 0.09375  16.825000000000003 0.25  L 0.6312499999999996 28.218750000000004  C 0.4375 28.549999999999997  0.6749999999999989 28.96875  1.0625 29  L 11.962499999999999 29  L 6.375 51.31875  C 6.256250000000001 51.80625  6.84375 52.15  7.206250000000001 51.800000000000004  L 43.35 17.3125  Z " stroke-width="0" stroke-dasharray="0" stroke="rgba(255, 255, 255, 0)" fill="none" class="stroke" mask="url(#Clip3157)" />
    <path d="M 33.63125 21  L 13.64375 39.78125  L 17.4125 24.71875  L 7.574999999999999 24.71875  L 19.424999999999997 5  L 33.4625 5  L 20.44375 21  L 33.63125 21  Z " stroke-width="0" stroke-dasharray="0" stroke="rgba(255, 255, 255, 0)" fill="none" class="stroke" mask="url(#Clip3157)" />
  </g>
</svg>