<?xml version="1.0" encoding="utf-8"?>
<svg version="1.1" xmlns:xlink="http://www.w3.org/1999/xlink" width="8px" height="12px" xmlns="http://www.w3.org/2000/svg">
  <defs>
    <pattern id="BGPattern" patternUnits="userSpaceOnUse" alignment="0 0" imageRepeat="None" />
    <mask fill="white" id="Clip5424">
      <path d="M 2.238999999999999 10.3215  L 2.238999999999999 10.32  L 7.75 10.32  L 7.75 12  L 0.25 12  L 0.25 0.0030000000000001137  L 7.75 0.0030000000000001137  L 7.75 1.6829999999999998  L 2.238999999999999 1.6829999999999998  L 2.238999999999999 5.100000000000001  L 7.424499999999998 5.100000000000001  L 7.424499999999998 6.709500000000002  L 2.238999999999999 6.709500000000002  L 2.238999999999999 10.3215  Z " fill-rule="evenodd" />
    </mask>
  </defs>
  <g transform="matrix(1 0 0 1 -8 -6 )">
    <path d="M 2.238999999999999 10.3215  L 2.238999999999999 10.32  L 7.75 10.32  L 7.75 12  L 0.25 12  L 0.25 0.0030000000000001137  L 7.75 0.0030000000000001137  L 7.75 1.6829999999999998  L 2.238999999999999 1.6829999999999998  L 2.238999999999999 5.100000000000001  L 7.424499999999998 5.100000000000001  L 7.424499999999998 6.709500000000002  L 2.238999999999999 6.709500000000002  L 2.238999999999999 10.3215  Z " fill-rule="nonzero" fill="rgba(0, 0, 0, 1)" stroke="none" transform="matrix(1 0 0 1 8 6 )" class="fill" />
    <path d="M 2.238999999999999 10.3215  L 2.238999999999999 10.32  L 7.75 10.32  L 7.75 12  L 0.25 12  L 0.25 0.0030000000000001137  L 7.75 0.0030000000000001137  L 7.75 1.6829999999999998  L 2.238999999999999 1.6829999999999998  L 2.238999999999999 5.100000000000001  L 7.424499999999998 5.100000000000001  L 7.424499999999998 6.709500000000002  L 2.238999999999999 6.709500000000002  L 2.238999999999999 10.3215  Z " stroke-width="0" stroke-dasharray="0" stroke="rgba(255, 255, 255, 0)" fill="none" transform="matrix(1 0 0 1 8 6 )" class="stroke" mask="url(#Clip5424)" />
  </g>
</svg>