<?xml version="1.0" encoding="utf-8"?>
<svg version="1.1" xmlns:xlink="http://www.w3.org/1999/xlink" width="24px" height="24px" xmlns="http://www.w3.org/2000/svg">
  <defs>
    <pattern id="BGPattern" patternUnits="userSpaceOnUse" alignment="0 0" imageRepeat="None" />
    <mask fill="white" id="Clip5425">
      <path d="M 20.25 0  L 3.749999999999999 0  C 1.6789321881345245 0  0 1.6789321881345245  0 3.75  L 0 20.249999999999996  C 0 22.321067811865472  1.6789321881345245 23.999999999999996  3.75 24  L 20.249999999999996 23.999999999999996  C 22.321067811865472 23.999999999999996  23.999999999999996 22.321067811865472  24 20.25  L 23.999999999999996 3.749999999999999  C 23.999999999999996 1.6789321881345245  22.321067811865472 0  20.25 0  Z M 1.5 20.25  L 1.5 3.75  C 1.5 2.507359312880715  2.507359312880715 1.5  3.75 1.5  L 20.25 1.5  C 21.492640687119284 1.5  22.5 2.507359312880715  22.5 3.75  L 22.5 20.25  C 22.5 21.492640687119284  21.492640687119284 22.5  20.25 22.5  L 3.75 22.5  C 2.507359312880714 22.5  1.5 21.492640687119284  1.5 20.25  Z " fill-rule="evenodd" />
    </mask>
  </defs>
  <g>
    <path d="M 20.25 0  L 3.749999999999999 0  C 1.6789321881345245 0  0 1.6789321881345245  0 3.75  L 0 20.249999999999996  C 0 22.321067811865472  1.6789321881345245 23.999999999999996  3.75 24  L 20.249999999999996 23.999999999999996  C 22.321067811865472 23.999999999999996  23.999999999999996 22.321067811865472  24 20.25  L 23.999999999999996 3.749999999999999  C 23.999999999999996 1.6789321881345245  22.321067811865472 0  20.25 0  Z M 1.5 20.25  L 1.5 3.75  C 1.5 2.507359312880715  2.507359312880715 1.5  3.75 1.5  L 20.25 1.5  C 21.492640687119284 1.5  22.5 2.507359312880715  22.5 3.75  L 22.5 20.25  C 22.5 21.492640687119284  21.492640687119284 22.5  20.25 22.5  L 3.75 22.5  C 2.507359312880714 22.5  1.5 21.492640687119284  1.5 20.25  Z " fill-rule="nonzero" fill="rgba(0, 0, 0, 1)" stroke="none" class="fill" />
    <path d="M 20.25 0  L 3.749999999999999 0  C 1.6789321881345245 0  0 1.6789321881345245  0 3.75  L 0 20.249999999999996  C 0 22.321067811865472  1.6789321881345245 23.999999999999996  3.75 24  L 20.249999999999996 23.999999999999996  C 22.321067811865472 23.999999999999996  23.999999999999996 22.321067811865472  24 20.25  L 23.999999999999996 3.749999999999999  C 23.999999999999996 1.6789321881345245  22.321067811865472 0  20.25 0  Z " stroke-width="0" stroke-dasharray="0" stroke="rgba(255, 255, 255, 0)" fill="none" class="stroke" mask="url(#Clip5425)" />
    <path d="M 1.5 20.25  L 1.5 3.75  C 1.5 2.507359312880715  2.507359312880715 1.5  3.75 1.5  L 20.25 1.5  C 21.492640687119284 1.5  22.5 2.507359312880715  22.5 3.75  L 22.5 20.25  C 22.5 21.492640687119284  21.492640687119284 22.5  20.25 22.5  L 3.75 22.5  C 2.507359312880714 22.5  1.5 21.492640687119284  1.5 20.25  Z " stroke-width="0" stroke-dasharray="0" stroke="rgba(255, 255, 255, 0)" fill="none" class="stroke" mask="url(#Clip5425)" />
  </g>
</svg>