<?xml version="1.0" encoding="utf-8"?>
<svg version="1.1" xmlns:xlink="http://www.w3.org/1999/xlink" width="64px" height="23px" xmlns="http://www.w3.org/2000/svg">
  <defs>
    <pattern id="BGPattern" patternUnits="userSpaceOnUse" alignment="0 0" imageRepeat="None" />
    <mask fill="white" id="Clip871">
      <path d="M 7.0744444444444445 0.8788888888888877  L 1.93 0.8788888888888877  L 0.7777777777777777 22.166666666666664  L 5.656666666666666 22.166666666666664  L 6.277777777777778 13.296666666666667  L 9.381111111111112 22.166666666666664  L 14.34888888888889 22.166666666666664  L 17.186666666666667 13.56333333333333  L 17.718888888888888 22.166666666666664  L 22.777777777777775 22.166666666666664  L 21.356666666666666 0.8788888888888877  L 16.299999999999997 0.8788888888888877  L 11.777777777777777 13.915555555555555  L 7.0744444444444445 0.8788888888888877  Z M 33.154444444444444 0.8811111111111103  L 33.15222222222222 0.8788888888888877  L 28 0.8788888888888877  L 28 22.166666666666664  L 33.15222222222222 22.166666666666664  C 33.15222222222222 22.166666666666664  43.70777777777778 22.255555555555553  43.61888888888888 11.523333333333332  C 43.532222222222224 1.0555555555555571  33.154444444444444 0.8811111111111103  33.154444444444444 0.8811111111111103  Z M 33.02111111111112 17.154444444444444  L 33 17.15222222222222  L 33 5.808888888888891  C 33.01888888888889 5.808888888888891  38.13 6.283333333333335  38.21888888888889 11.427777777777777  C 38.30777777777778 16.572222222222223  33.02111111111112 17.154444444444444  33.02111111111112 17.154444444444444  Z M 59.49777777777778 8.905555555555559  L 59.49555555555554 8.903333333333332  C 60.292652300905736 7.636921721989945  60.60811740054203 6.12623822610669  60.38444444444445 4.646666666666665  C 59.79111111111111 0.6733333333333356  54.26444444444445 0.8333333333333357  54.26444444444445 0.8333333333333357  L 48 0.8333333333333357  L 48 22.120000000000005  L 53.55555555555555 22.120000000000005  C 53.55555555555555 22.120000000000005  63.22222222222222 22.65222222222223  63.22222222222222 15.025555555555558  C 63.22222222222222 10.232222222222227  59.49777777777778 8.905555555555559  59.49777777777778 8.905555555555559  Z M 53.72888888888889 5.356666666666669  L 53.72888888888889 5.354444444444443  C 53.72888888888889 5.354444444444443  55.23666666666667 5.177777777777777  55.50666666666667 6.420000000000003  C 55.66555555555556 7.16  55.062222222222225 7.753333333333334  55.062222222222225 7.753333333333334  L 53.72888888888889 7.753333333333334  L 53.72888888888889 5.356666666666669  Z M 53.72 17.51888888888889  L 53.717777777777776 17.516666666666666  L 53.72888888888889 14.747777777777774  L 53.72888888888889 12.722222222222223  L 53.73777777777778 12.722222222222223  C 53.73777777777778 12.722222222222223  58.35777777777778 12.196666666666665  58.31444444444445 15.214444444444446  C 58.27777777777777 18.06444444444444  53.72 17.51888888888889  53.72 17.51888888888889  Z " fill-rule="evenodd" />
    </mask>
  </defs>
  <g>
    <path d="M 7.0744444444444445 0.8788888888888877  L 1.93 0.8788888888888877  L 0.7777777777777777 22.166666666666664  L 5.656666666666666 22.166666666666664  L 6.277777777777778 13.296666666666667  L 9.381111111111112 22.166666666666664  L 14.34888888888889 22.166666666666664  L 17.186666666666667 13.56333333333333  L 17.718888888888888 22.166666666666664  L 22.777777777777775 22.166666666666664  L 21.356666666666666 0.8788888888888877  L 16.299999999999997 0.8788888888888877  L 11.777777777777777 13.915555555555555  L 7.0744444444444445 0.8788888888888877  Z M 33.154444444444444 0.8811111111111103  L 33.15222222222222 0.8788888888888877  L 28 0.8788888888888877  L 28 22.166666666666664  L 33.15222222222222 22.166666666666664  C 33.15222222222222 22.166666666666664  43.70777777777778 22.255555555555553  43.61888888888888 11.523333333333332  C 43.532222222222224 1.0555555555555571  33.154444444444444 0.8811111111111103  33.154444444444444 0.8811111111111103  Z M 33.02111111111112 17.154444444444444  L 33 17.15222222222222  L 33 5.808888888888891  C 33.01888888888889 5.808888888888891  38.13 6.283333333333335  38.21888888888889 11.427777777777777  C 38.30777777777778 16.572222222222223  33.02111111111112 17.154444444444444  33.02111111111112 17.154444444444444  Z M 59.49777777777778 8.905555555555559  L 59.49555555555554 8.903333333333332  C 60.292652300905736 7.636921721989945  60.60811740054203 6.12623822610669  60.38444444444445 4.646666666666665  C 59.79111111111111 0.6733333333333356  54.26444444444445 0.8333333333333357  54.26444444444445 0.8333333333333357  L 48 0.8333333333333357  L 48 22.120000000000005  L 53.55555555555555 22.120000000000005  C 53.55555555555555 22.120000000000005  63.22222222222222 22.65222222222223  63.22222222222222 15.025555555555558  C 63.22222222222222 10.232222222222227  59.49777777777778 8.905555555555559  59.49777777777778 8.905555555555559  Z M 53.72888888888889 5.356666666666669  L 53.72888888888889 5.354444444444443  C 53.72888888888889 5.354444444444443  55.23666666666667 5.177777777777777  55.50666666666667 6.420000000000003  C 55.66555555555556 7.16  55.062222222222225 7.753333333333334  55.062222222222225 7.753333333333334  L 53.72888888888889 7.753333333333334  L 53.72888888888889 5.356666666666669  Z M 53.72 17.51888888888889  L 53.717777777777776 17.516666666666666  L 53.72888888888889 14.747777777777774  L 53.72888888888889 12.722222222222223  L 53.73777777777778 12.722222222222223  C 53.73777777777778 12.722222222222223  58.35777777777778 12.196666666666665  58.31444444444445 15.214444444444446  C 58.27777777777777 18.06444444444444  53.72 17.51888888888889  53.72 17.51888888888889  Z " fill-rule="nonzero" fill="rgba(0, 0, 0, 1)" stroke="none" class="fill" />
    <path d="M 7.0744444444444445 0.8788888888888877  L 1.93 0.8788888888888877  L 0.7777777777777777 22.166666666666664  L 5.656666666666666 22.166666666666664  L 6.277777777777778 13.296666666666667  L 9.381111111111112 22.166666666666664  L 14.34888888888889 22.166666666666664  L 17.186666666666667 13.56333333333333  L 17.718888888888888 22.166666666666664  L 22.777777777777775 22.166666666666664  L 21.356666666666666 0.8788888888888877  L 16.299999999999997 0.8788888888888877  L 11.777777777777777 13.915555555555555  L 7.0744444444444445 0.8788888888888877  Z " stroke-width="0" stroke-dasharray="0" stroke="rgba(255, 255, 255, 0)" fill="none" class="stroke" mask="url(#Clip871)" />
    <path d="M 33.154444444444444 0.8811111111111103  L 33.15222222222222 0.8788888888888877  L 28 0.8788888888888877  L 28 22.166666666666664  L 33.15222222222222 22.166666666666664  C 33.15222222222222 22.166666666666664  43.70777777777778 22.255555555555553  43.61888888888888 11.523333333333332  C 43.532222222222224 1.0555555555555571  33.154444444444444 0.8811111111111103  33.154444444444444 0.8811111111111103  Z " stroke-width="0" stroke-dasharray="0" stroke="rgba(255, 255, 255, 0)" fill="none" class="stroke" mask="url(#Clip871)" />
    <path d="M 33.02111111111112 17.154444444444444  L 33 17.15222222222222  L 33 5.808888888888891  C 33.01888888888889 5.808888888888891  38.13 6.283333333333335  38.21888888888889 11.427777777777777  C 38.30777777777778 16.572222222222223  33.02111111111112 17.154444444444444  33.02111111111112 17.154444444444444  Z " stroke-width="0" stroke-dasharray="0" stroke="rgba(255, 255, 255, 0)" fill="none" class="stroke" mask="url(#Clip871)" />
    <path d="M 59.49777777777778 8.905555555555559  L 59.49555555555554 8.903333333333332  C 60.292652300905736 7.636921721989945  60.60811740054203 6.12623822610669  60.38444444444445 4.646666666666665  C 59.79111111111111 0.6733333333333356  54.26444444444445 0.8333333333333357  54.26444444444445 0.8333333333333357  L 48 0.8333333333333357  L 48 22.120000000000005  L 53.55555555555555 22.120000000000005  C 53.55555555555555 22.120000000000005  63.22222222222222 22.65222222222223  63.22222222222222 15.025555555555558  C 63.22222222222222 10.232222222222227  59.49777777777778 8.905555555555559  59.49777777777778 8.905555555555559  Z " stroke-width="0" stroke-dasharray="0" stroke="rgba(255, 255, 255, 0)" fill="none" class="stroke" mask="url(#Clip871)" />
    <path d="M 53.72888888888889 5.356666666666669  L 53.72888888888889 5.354444444444443  C 53.72888888888889 5.354444444444443  55.23666666666667 5.177777777777777  55.50666666666667 6.420000000000003  C 55.66555555555556 7.16  55.062222222222225 7.753333333333334  55.062222222222225 7.753333333333334  L 53.72888888888889 7.753333333333334  L 53.72888888888889 5.356666666666669  Z " stroke-width="0" stroke-dasharray="0" stroke="rgba(255, 255, 255, 0)" fill="none" class="stroke" mask="url(#Clip871)" />
    <path d="M 53.72 17.51888888888889  L 53.717777777777776 17.516666666666666  L 53.72888888888889 14.747777777777774  L 53.72888888888889 12.722222222222223  L 53.73777777777778 12.722222222222223  C 53.73777777777778 12.722222222222223  58.35777777777778 12.196666666666665  58.31444444444445 15.214444444444446  C 58.27777777777777 18.06444444444444  53.72 17.51888888888889  53.72 17.51888888888889  Z " stroke-width="0" stroke-dasharray="0" stroke="rgba(255, 255, 255, 0)" fill="none" class="stroke" mask="url(#Clip871)" />
  </g>
</svg>