<?xml version="1.0" encoding="utf-8"?>
<svg version="1.1" xmlns:xlink="http://www.w3.org/1999/xlink" width="50px" height="34px" xmlns="http://www.w3.org/2000/svg">
  <defs>
    <pattern id="BGPattern" patternUnits="userSpaceOnUse" alignment="0 0" imageRepeat="None" />
    <mask fill="white" id="Clip1696">
      <path d="M 50 17.92821180555552  C 50.00001004620578 17.10561740131999  49.75650344040463 16.30142943561225  49.30017361080894 15.617013888888891  L 40.12586805536745 1.8553819444444457  C 39.35304392339174 0.6962543100996754  38.05207916017878 2.20346481114575E-05  36.65894097207723 0  L 13.34105902792274 0  C 11.947939910065031 0  10.64699353418655 0.6962443297454683  9.874218750188078 1.8553819444444457  L 0.6998263891910597 15.617013888888891  C 0.24349655959537128 16.301429435612192  -1.0046205773051042E-05 17.10561740131999  0 17.92821180555552  L 0 29.16666666666663  C 0 31.4678819444444  1.8654513891765419 33.333333333333314  4.166666666925721 33  L 45.83333333307428 33  C 48.13454861082343 33.333333333333314  49.99999999968912 31.4678819444444  50 29.16666666666663  L 50 17.92821180555552  Z M 6.676909722450063 17  L 14.084375000135738 6  L 35.91571180541982 6  L 43.32309027754991 17  L 32.6388888887939 17  L 29.861111111050658 22.22222222222223  L 20.13888888894934 22.22222222222223  L 17.3611111112061 17  L 6.676909722450063 17  Z " fill-rule="evenodd" />
    </mask>
  </defs>
  <g>
    <path d="M 50 17.92821180555552  C 50.00001004620578 17.10561740131999  49.75650344040463 16.30142943561225  49.30017361080894 15.617013888888891  L 40.12586805536745 1.8553819444444457  C 39.35304392339174 0.6962543100996754  38.05207916017878 2.20346481114575E-05  36.65894097207723 0  L 13.34105902792274 0  C 11.947939910065031 0  10.64699353418655 0.6962443297454683  9.874218750188078 1.8553819444444457  L 0.6998263891910597 15.617013888888891  C 0.24349655959537128 16.301429435612192  -1.0046205773051042E-05 17.10561740131999  0 17.92821180555552  L 0 29.16666666666663  C 0 31.4678819444444  1.8654513891765419 33.333333333333314  4.166666666925721 33  L 45.83333333307428 33  C 48.13454861082343 33.333333333333314  49.99999999968912 31.4678819444444  50 29.16666666666663  L 50 17.92821180555552  Z M 6.676909722450063 17  L 14.084375000135738 6  L 35.91571180541982 6  L 43.32309027754991 17  L 32.6388888887939 17  L 29.861111111050658 22.22222222222223  L 20.13888888894934 22.22222222222223  L 17.3611111112061 17  L 6.676909722450063 17  Z " fill-rule="nonzero" fill="rgba(0, 0, 0, 1)" stroke="none" class="fill" />
    <path d="M 50 17.92821180555552  C 50.00001004620578 17.10561740131999  49.75650344040463 16.30142943561225  49.30017361080894 15.617013888888891  L 40.12586805536745 1.8553819444444457  C 39.35304392339174 0.6962543100996754  38.05207916017878 2.20346481114575E-05  36.65894097207723 0  L 13.34105902792274 0  C 11.947939910065031 0  10.64699353418655 0.6962443297454683  9.874218750188078 1.8553819444444457  L 0.6998263891910597 15.617013888888891  C 0.24349655959537128 16.301429435612192  -1.0046205773051042E-05 17.10561740131999  0 17.92821180555552  L 0 29.16666666666663  C 0 31.4678819444444  1.8654513891765419 33.333333333333314  4.166666666925721 33  L 45.83333333307428 33  C 48.13454861082343 33.333333333333314  49.99999999968912 31.4678819444444  50 29.16666666666663  L 50 17.92821180555552  Z " stroke-width="0" stroke-dasharray="0" stroke="rgba(255, 255, 255, 0)" fill="none" class="stroke" mask="url(#Clip1696)" />
    <path d="M 6.676909722450063 17  L 14.084375000135738 6  L 35.91571180541982 6  L 43.32309027754991 17  L 32.6388888887939 17  L 29.861111111050658 22.22222222222223  L 20.13888888894934 22.22222222222223  L 17.3611111112061 17  L 6.676909722450063 17  Z " stroke-width="0" stroke-dasharray="0" stroke="rgba(255, 255, 255, 0)" fill="none" class="stroke" mask="url(#Clip1696)" />
  </g>
</svg>