<?xml version="1.0" encoding="utf-8"?>
<svg version="1.1" xmlns:xlink="http://www.w3.org/1999/xlink" width="22px" height="8px" xmlns="http://www.w3.org/2000/svg">
  <defs>
    <pattern id="BGPattern" patternUnits="userSpaceOnUse" alignment="0 0" imageRepeat="None" />
    <mask fill="white" id="Clip5907">
      <path d="M 21.5 3  L 21.5 4.5  L 0.5 4.5  L 0.5 3  L 21.5 3  Z M 2.75 7.5  C 2.335786437626905 7.5  2 7.164213562373096  2 6.75  C 2 6.335786437626904  2.335786437626905 6  2.75 6  L 11.75 6  C 12.164213562373096 6  12.500000000000002 6.335786437626904  12.500000000000002 6.75  C 12.500000000000002 7.164213562373096  12.164213562373096 7.5  11.75 7.5  L 2.75 7.5  Z M 2.75 1.5  C 2.335786437626905 1.5  2 1.1642135623730958  2 0.75  C 2 0.3357864376269042  2.335786437626905 0  2.75 0  L 16.25 0  C 16.664213562373096 0  17 0.3357864376269042  17 0.75  C 17 1.1642135623730958  16.664213562373096 1.5  16.25 1.5  L 2.75 1.5  Z " fill-rule="evenodd" />
    </mask>
  </defs>
  <g transform="matrix(1 0 0 1 -1 -12 )">
    <path d="M 21.5 3  L 21.5 4.5  L 0.5 4.5  L 0.5 3  L 21.5 3  Z M 2.75 7.5  C 2.335786437626905 7.5  2 7.164213562373096  2 6.75  C 2 6.335786437626904  2.335786437626905 6  2.75 6  L 11.75 6  C 12.164213562373096 6  12.500000000000002 6.335786437626904  12.500000000000002 6.75  C 12.500000000000002 7.164213562373096  12.164213562373096 7.5  11.75 7.5  L 2.75 7.5  Z M 2.75 1.5  C 2.335786437626905 1.5  2 1.1642135623730958  2 0.75  C 2 0.3357864376269042  2.335786437626905 0  2.75 0  L 16.25 0  C 16.664213562373096 0  17 0.3357864376269042  17 0.75  C 17 1.1642135623730958  16.664213562373096 1.5  16.25 1.5  L 2.75 1.5  Z " fill-rule="nonzero" fill="rgba(0, 0, 0, 1)" stroke="none" transform="matrix(1 0 0 1 1 12 )" class="fill" />
    <path d="M 21.5 3  L 21.5 4.5  L 0.5 4.5  L 0.5 3  L 21.5 3  Z " stroke-width="0" stroke-dasharray="0" stroke="rgba(255, 255, 255, 0)" fill="none" transform="matrix(1 0 0 1 1 12 )" class="stroke" mask="url(#Clip5907)" />
    <path d="M 2.75 7.5  C 2.335786437626905 7.5  2 7.164213562373096  2 6.75  C 2 6.335786437626904  2.335786437626905 6  2.75 6  L 11.75 6  C 12.164213562373096 6  12.500000000000002 6.335786437626904  12.500000000000002 6.75  C 12.500000000000002 7.164213562373096  12.164213562373096 7.5  11.75 7.5  L 2.75 7.5  Z " stroke-width="0" stroke-dasharray="0" stroke="rgba(255, 255, 255, 0)" fill="none" transform="matrix(1 0 0 1 1 12 )" class="stroke" mask="url(#Clip5907)" />
    <path d="M 2.75 1.5  C 2.335786437626905 1.5  2 1.1642135623730958  2 0.75  C 2 0.3357864376269042  2.335786437626905 0  2.75 0  L 16.25 0  C 16.664213562373096 0  17 0.3357864376269042  17 0.75  C 17 1.1642135623730958  16.664213562373096 1.5  16.25 1.5  L 2.75 1.5  Z " stroke-width="0" stroke-dasharray="0" stroke="rgba(255, 255, 255, 0)" fill="none" transform="matrix(1 0 0 1 1 12 )" class="stroke" mask="url(#Clip5907)" />
  </g>
</svg>