<?xml version="1.0" encoding="utf-8"?>
<svg version="1.1" xmlns:xlink="http://www.w3.org/1999/xlink" width="50px" height="50px" xmlns="http://www.w3.org/2000/svg">
  <defs>
    <pattern id="BGPattern" patternUnits="userSpaceOnUse" alignment="0 0" imageRepeat="None" />
    <mask fill="white" id="Clip1759">
      <path d="M 50 1.5625  C 50 0.703125  49.296875 0  48.4375 0  L 38.151041666666686 0  C 36.7578125 0  36.067708333333314 1.6796875  37.044270833333314 2.6692708333333144  L 39.24479166666666 4.869791666666686  L 28.73697916666666 15.377604166666686  C 25.846354166666657 13.554687500000002  22.421875 12.5  18.75 12.5  C 8.3984375 12.5  0 20.8984375  0 31.25  C 0 41.6015625  8.3984375 50  18.75 50  C 29.1015625 50  37.5 41.6015625  37.5 31.25  C 37.5 27.578124999999996  36.4453125 24.153645833333314  34.622395833333314 21.263020833333314  L 45.130208333333314 10.755208333333314  L 47.33072916666663 12.955729166666686  C 48.3203125 13.945312500000002  50 13.2421875  50 11.848958333333314  L 50 1.5625  Z M 29.166666666666657 31.25  C 29.166666666666657 36.9921875  24.4921875 41.666666666666686  18.75 41.666666666666686  C 13.007812499999998 41.666666666666686  8.333333333333343 36.9921875  8.333333333333343 31.25  C 8.333333333333343 25.5078125  13.007812499999998 20.833333333333314  18.75 20.833333333333314  C 24.4921875 20.833333333333314  29.166666666666657 25.5078125  29.166666666666657 31.25  Z " fill-rule="evenodd" />
    </mask>
  </defs>
  <g>
    <path d="M 50 1.5625  C 50 0.703125  49.296875 0  48.4375 0  L 38.151041666666686 0  C 36.7578125 0  36.067708333333314 1.6796875  37.044270833333314 2.6692708333333144  L 39.24479166666666 4.869791666666686  L 28.73697916666666 15.377604166666686  C 25.846354166666657 13.554687500000002  22.421875 12.5  18.75 12.5  C 8.3984375 12.5  0 20.8984375  0 31.25  C 0 41.6015625  8.3984375 50  18.75 50  C 29.1015625 50  37.5 41.6015625  37.5 31.25  C 37.5 27.578124999999996  36.4453125 24.153645833333314  34.622395833333314 21.263020833333314  L 45.130208333333314 10.755208333333314  L 47.33072916666663 12.955729166666686  C 48.3203125 13.945312500000002  50 13.2421875  50 11.848958333333314  L 50 1.5625  Z M 29.166666666666657 31.25  C 29.166666666666657 36.9921875  24.4921875 41.666666666666686  18.75 41.666666666666686  C 13.007812499999998 41.666666666666686  8.333333333333343 36.9921875  8.333333333333343 31.25  C 8.333333333333343 25.5078125  13.007812499999998 20.833333333333314  18.75 20.833333333333314  C 24.4921875 20.833333333333314  29.166666666666657 25.5078125  29.166666666666657 31.25  Z " fill-rule="nonzero" fill="rgba(0, 0, 0, 1)" stroke="none" class="fill" />
    <path d="M 50 1.5625  C 50 0.703125  49.296875 0  48.4375 0  L 38.151041666666686 0  C 36.7578125 0  36.067708333333314 1.6796875  37.044270833333314 2.6692708333333144  L 39.24479166666666 4.869791666666686  L 28.73697916666666 15.377604166666686  C 25.846354166666657 13.554687500000002  22.421875 12.5  18.75 12.5  C 8.3984375 12.5  0 20.8984375  0 31.25  C 0 41.6015625  8.3984375 50  18.75 50  C 29.1015625 50  37.5 41.6015625  37.5 31.25  C 37.5 27.578124999999996  36.4453125 24.153645833333314  34.622395833333314 21.263020833333314  L 45.130208333333314 10.755208333333314  L 47.33072916666663 12.955729166666686  C 48.3203125 13.945312500000002  50 13.2421875  50 11.848958333333314  L 50 1.5625  Z " stroke-width="0" stroke-dasharray="0" stroke="rgba(255, 255, 255, 0)" fill="none" class="stroke" mask="url(#Clip1759)" />
    <path d="M 29.166666666666657 31.25  C 29.166666666666657 36.9921875  24.4921875 41.666666666666686  18.75 41.666666666666686  C 13.007812499999998 41.666666666666686  8.333333333333343 36.9921875  8.333333333333343 31.25  C 8.333333333333343 25.5078125  13.007812499999998 20.833333333333314  18.75 20.833333333333314  C 24.4921875 20.833333333333314  29.166666666666657 25.5078125  29.166666666666657 31.25  Z " stroke-width="0" stroke-dasharray="0" stroke="rgba(255, 255, 255, 0)" fill="none" class="stroke" mask="url(#Clip1759)" />
  </g>
</svg>