<?xml version="1.0" encoding="utf-8"?>
<svg version="1.1" xmlns:xlink="http://www.w3.org/1999/xlink" width="26px" height="26px" xmlns="http://www.w3.org/2000/svg">
  <defs>
    <pattern id="BGPattern" patternUnits="userSpaceOnUse" alignment="0 0" imageRepeat="None" />
    <mask fill="white" id="Clip80">
      <path d="M 25.8 13  C 25.8 20.072000000000003  20.072000000000003 25.8  13 25.8  C 5.928000000000001 25.8  0.1999999999999993 20.072000000000003  0.1999999999999993 13  C 0.1999999999999993 5.927999999999997  5.927999999999999 0.1999999999999993  13 0.1999999999999993  C 20.072000000000003 0.1999999999999993  25.8 5.927999999999999  25.8 13  Z M 1.8000000000000007 13  C 1.8000000000000007 19.192  6.808 24.2  13 24.2  C 19.192 24.2  24.2 19.192  24.2 13  C 24.2 6.808  19.192 1.8000000000000007  13 1.8000000000000007  C 6.808 1.8000000000000007  1.8000000000000007 6.808  1.8000000000000007 13  Z M 10.68 15.736  C 10.28 16.136  8.984 16.36  7.768000000000001 16.36  C 6.775999999999999 16.36  5.848000000000001 16.216  5.5280000000000005 15.896  C 5.176 15.544000000000002  5 14.792000000000002  5 13.975999999999999  C 5 12.919999999999998  5.288 11.431999999999999  5.896000000000001 10.823999999999998  C 7.112000000000001 9.591999999999999  9.864 8.999999999999998  13 8.999999999999998  C 16.04 8.999999999999998  18.887999999999998 9.623999999999999  20.088 10.823999999999998  C 20.664 11.383999999999999  21 12.919999999999998  21 14.008000000000001  C 21 14.791999999999998  20.824 15.512  20.456 15.879999999999999  C 20.12 16.215999999999998  19.24 16.36  18.28 16.36  C 17.048000000000002 16.36  15.703999999999999 16.12  15.32 15.736  C 14.824000000000002 15.240000000000002  14.760000000000002 14.52  14.744 13.864  C 14.344000000000001 13.8  13.864 13.784  13 13.784  C 12.28 13.784  11.752 13.8  11.256 13.864  C 11.208 14.568000000000001  11.192 15.240000000000002  10.68 15.736  Z M 16.456000000000003 14.616000000000001  C 16.616000000000003 14.760000000000002  17.768000000000004 14.888  18.568 14.888  C 18.952 14.888  19.272000000000002 14.856000000000003  19.336000000000002 14.776000000000003  C 19.416 14.696000000000005  19.464000000000002 14.472000000000007  19.464000000000002 14.184000000000005  C 19.464000000000002 13.528000000000008  19.256000000000004 12.248000000000005  18.968000000000004 11.960000000000004  C 18.056000000000004 11.064000000000004  15.640000000000004 10.600000000000005  13.000000000000004 10.600000000000005  C 10.280000000000003 10.600000000000005  7.912000000000003 11.048000000000005  7.016000000000003 11.944000000000004  C 6.712000000000003 12.248000000000005  6.536000000000002 13.480000000000004  6.536000000000002 14.120000000000005  C 6.536000000000002 14.424000000000003  6.584000000000003 14.680000000000003  6.664000000000004 14.760000000000007  C 6.744000000000002 14.840000000000007  7.112000000000004 14.872000000000005  7.560000000000005 14.872000000000005  C 8.344000000000005 14.872000000000005  9.368000000000004 14.776000000000003  9.528000000000004 14.616000000000001  C 9.784000000000004 14.360000000000003  9.528000000000004 13.064000000000004  10.024000000000004 12.584000000000003  C 10.280000000000005 12.312000000000003  11.512000000000004 12.184000000000003  13.000000000000004 12.184000000000003  C 14.536000000000005 12.184000000000003  15.736000000000002 12.312000000000003  15.992000000000006 12.568000000000003  C 16.472000000000005 13.048000000000002  16.216000000000005 14.376000000000005  16.456000000000003 14.616000000000001  Z " fill-rule="evenodd" />
    </mask>
  </defs>
  <g transform="matrix(1 0 0 1 0 -1 )">
    <path d="M 25.8 13  C 25.8 20.072000000000003  20.072000000000003 25.8  13 25.8  C 5.928000000000001 25.8  0.1999999999999993 20.072000000000003  0.1999999999999993 13  C 0.1999999999999993 5.927999999999997  5.927999999999999 0.1999999999999993  13 0.1999999999999993  C 20.072000000000003 0.1999999999999993  25.8 5.927999999999999  25.8 13  Z M 1.8000000000000007 13  C 1.8000000000000007 19.192  6.808 24.2  13 24.2  C 19.192 24.2  24.2 19.192  24.2 13  C 24.2 6.808  19.192 1.8000000000000007  13 1.8000000000000007  C 6.808 1.8000000000000007  1.8000000000000007 6.808  1.8000000000000007 13  Z M 10.68 15.736  C 10.28 16.136  8.984 16.36  7.768000000000001 16.36  C 6.775999999999999 16.36  5.848000000000001 16.216  5.5280000000000005 15.896  C 5.176 15.544000000000002  5 14.792000000000002  5 13.975999999999999  C 5 12.919999999999998  5.288 11.431999999999999  5.896000000000001 10.823999999999998  C 7.112000000000001 9.591999999999999  9.864 8.999999999999998  13 8.999999999999998  C 16.04 8.999999999999998  18.887999999999998 9.623999999999999  20.088 10.823999999999998  C 20.664 11.383999999999999  21 12.919999999999998  21 14.008000000000001  C 21 14.791999999999998  20.824 15.512  20.456 15.879999999999999  C 20.12 16.215999999999998  19.24 16.36  18.28 16.36  C 17.048000000000002 16.36  15.703999999999999 16.12  15.32 15.736  C 14.824000000000002 15.240000000000002  14.760000000000002 14.52  14.744 13.864  C 14.344000000000001 13.8  13.864 13.784  13 13.784  C 12.28 13.784  11.752 13.8  11.256 13.864  C 11.208 14.568000000000001  11.192 15.240000000000002  10.68 15.736  Z M 16.456000000000003 14.616000000000001  C 16.616000000000003 14.760000000000002  17.768000000000004 14.888  18.568 14.888  C 18.952 14.888  19.272000000000002 14.856000000000003  19.336000000000002 14.776000000000003  C 19.416 14.696000000000005  19.464000000000002 14.472000000000007  19.464000000000002 14.184000000000005  C 19.464000000000002 13.528000000000008  19.256000000000004 12.248000000000005  18.968000000000004 11.960000000000004  C 18.056000000000004 11.064000000000004  15.640000000000004 10.600000000000005  13.000000000000004 10.600000000000005  C 10.280000000000003 10.600000000000005  7.912000000000003 11.048000000000005  7.016000000000003 11.944000000000004  C 6.712000000000003 12.248000000000005  6.536000000000002 13.480000000000004  6.536000000000002 14.120000000000005  C 6.536000000000002 14.424000000000003  6.584000000000003 14.680000000000003  6.664000000000004 14.760000000000007  C 6.744000000000002 14.840000000000007  7.112000000000004 14.872000000000005  7.560000000000005 14.872000000000005  C 8.344000000000005 14.872000000000005  9.368000000000004 14.776000000000003  9.528000000000004 14.616000000000001  C 9.784000000000004 14.360000000000003  9.528000000000004 13.064000000000004  10.024000000000004 12.584000000000003  C 10.280000000000005 12.312000000000003  11.512000000000004 12.184000000000003  13.000000000000004 12.184000000000003  C 14.536000000000005 12.184000000000003  15.736000000000002 12.312000000000003  15.992000000000006 12.568000000000003  C 16.472000000000005 13.048000000000002  16.216000000000005 14.376000000000005  16.456000000000003 14.616000000000001  Z " fill-rule="nonzero" fill="rgba(0, 0, 0, 1)" stroke="none" transform="matrix(1 0 0 1 0 1 )" class="fill" />
    <path d="M 25.8 13  C 25.8 20.072000000000003  20.072000000000003 25.8  13 25.8  C 5.928000000000001 25.8  0.1999999999999993 20.072000000000003  0.1999999999999993 13  C 0.1999999999999993 5.927999999999997  5.927999999999999 0.1999999999999993  13 0.1999999999999993  C 20.072000000000003 0.1999999999999993  25.8 5.927999999999999  25.8 13  Z " stroke-width="0" stroke-dasharray="0" stroke="rgba(255, 255, 255, 0)" fill="none" transform="matrix(1 0 0 1 0 1 )" class="stroke" mask="url(#Clip80)" />
    <path d="M 1.8000000000000007 13  C 1.8000000000000007 19.192  6.808 24.2  13 24.2  C 19.192 24.2  24.2 19.192  24.2 13  C 24.2 6.808  19.192 1.8000000000000007  13 1.8000000000000007  C 6.808 1.8000000000000007  1.8000000000000007 6.808  1.8000000000000007 13  Z " stroke-width="0" stroke-dasharray="0" stroke="rgba(255, 255, 255, 0)" fill="none" transform="matrix(1 0 0 1 0 1 )" class="stroke" mask="url(#Clip80)" />
    <path d="M 10.68 15.736  C 10.28 16.136  8.984 16.36  7.768000000000001 16.36  C 6.775999999999999 16.36  5.848000000000001 16.216  5.5280000000000005 15.896  C 5.176 15.544000000000002  5 14.792000000000002  5 13.975999999999999  C 5 12.919999999999998  5.288 11.431999999999999  5.896000000000001 10.823999999999998  C 7.112000000000001 9.591999999999999  9.864 8.999999999999998  13 8.999999999999998  C 16.04 8.999999999999998  18.887999999999998 9.623999999999999  20.088 10.823999999999998  C 20.664 11.383999999999999  21 12.919999999999998  21 14.008000000000001  C 21 14.791999999999998  20.824 15.512  20.456 15.879999999999999  C 20.12 16.215999999999998  19.24 16.36  18.28 16.36  C 17.048000000000002 16.36  15.703999999999999 16.12  15.32 15.736  C 14.824000000000002 15.240000000000002  14.760000000000002 14.52  14.744 13.864  C 14.344000000000001 13.8  13.864 13.784  13 13.784  C 12.28 13.784  11.752 13.8  11.256 13.864  C 11.208 14.568000000000001  11.192 15.240000000000002  10.68 15.736  Z " stroke-width="0" stroke-dasharray="0" stroke="rgba(255, 255, 255, 0)" fill="none" transform="matrix(1 0 0 1 0 1 )" class="stroke" mask="url(#Clip80)" />
    <path d="M 16.456000000000003 14.616000000000001  C 16.616000000000003 14.760000000000002  17.768000000000004 14.888  18.568 14.888  C 18.952 14.888  19.272000000000002 14.856000000000003  19.336000000000002 14.776000000000003  C 19.416 14.696000000000005  19.464000000000002 14.472000000000007  19.464000000000002 14.184000000000005  C 19.464000000000002 13.528000000000008  19.256000000000004 12.248000000000005  18.968000000000004 11.960000000000004  C 18.056000000000004 11.064000000000004  15.640000000000004 10.600000000000005  13.000000000000004 10.600000000000005  C 10.280000000000003 10.600000000000005  7.912000000000003 11.048000000000005  7.016000000000003 11.944000000000004  C 6.712000000000003 12.248000000000005  6.536000000000002 13.480000000000004  6.536000000000002 14.120000000000005  C 6.536000000000002 14.424000000000003  6.584000000000003 14.680000000000003  6.664000000000004 14.760000000000007  C 6.744000000000002 14.840000000000007  7.112000000000004 14.872000000000005  7.560000000000005 14.872000000000005  C 8.344000000000005 14.872000000000005  9.368000000000004 14.776000000000003  9.528000000000004 14.616000000000001  C 9.784000000000004 14.360000000000003  9.528000000000004 13.064000000000004  10.024000000000004 12.584000000000003  C 10.280000000000005 12.312000000000003  11.512000000000004 12.184000000000003  13.000000000000004 12.184000000000003  C 14.536000000000005 12.184000000000003  15.736000000000002 12.312000000000003  15.992000000000006 12.568000000000003  C 16.472000000000005 13.048000000000002  16.216000000000005 14.376000000000005  16.456000000000003 14.616000000000001  Z " stroke-width="0" stroke-dasharray="0" stroke="rgba(255, 255, 255, 0)" fill="none" transform="matrix(1 0 0 1 0 1 )" class="stroke" mask="url(#Clip80)" />
  </g>
</svg>