<?xml version="1.0" encoding="utf-8"?>
<svg version="1.1" xmlns:xlink="http://www.w3.org/1999/xlink" width="24px" height="24px" xmlns="http://www.w3.org/2000/svg">
  <defs>
    <pattern id="BGPattern" patternUnits="userSpaceOnUse" alignment="0 0" imageRepeat="None" />
    <mask fill="white" id="Clip3778">
      <path d="M 16 22  C 16 23.104569499661586  15.104569499661586 24  14 24  L 10 24  C 8.895430500338414 24  8 23.104569499661586  8 22  L 8 14.41  L 0.5899999999999999 7  C 0.21441221322894233 6.626649709623102  0.00223278949770922 6.119576849519648  0 5.59  L 0 2  C 0 0.8954305003384135  0.8954305003384135 0  2 0  L 22 0  C 23.104569499661586 0  24 0.8954305003384135  24 2  L 24 5.59  C 23.997767210502293 6.11957684951965  23.78558778677106 6.6266497096230985  23.41 7  L 16 14.41  L 16 22  Z M 22 2  L 2 2  L 2 5.59  L 10 13.59  L 10 22  L 14 22  L 14 13.59  L 22 5.59  L 22 2  Z " fill-rule="evenodd" />
    </mask>
  </defs>
  <g transform="matrix(1 0 0 1 -4 -4 )">
    <path d="M 16 22  C 16 23.104569499661586  15.104569499661586 24  14 24  L 10 24  C 8.895430500338414 24  8 23.104569499661586  8 22  L 8 14.41  L 0.5899999999999999 7  C 0.21441221322894233 6.626649709623102  0.00223278949770922 6.119576849519648  0 5.59  L 0 2  C 0 0.8954305003384135  0.8954305003384135 0  2 0  L 22 0  C 23.104569499661586 0  24 0.8954305003384135  24 2  L 24 5.59  C 23.997767210502293 6.11957684951965  23.78558778677106 6.6266497096230985  23.41 7  L 16 14.41  L 16 22  Z M 22 2  L 2 2  L 2 5.59  L 10 13.59  L 10 22  L 14 22  L 14 13.59  L 22 5.59  L 22 2  Z " fill-rule="nonzero" fill="rgba(0, 0, 0, 1)" stroke="none" transform="matrix(1 0 0 1 4 4 )" class="fill" />
    <path d="M 16 22  C 16 23.104569499661586  15.104569499661586 24  14 24  L 10 24  C 8.895430500338414 24  8 23.104569499661586  8 22  L 8 14.41  L 0.5899999999999999 7  C 0.21441221322894233 6.626649709623102  0.00223278949770922 6.119576849519648  0 5.59  L 0 2  C 0 0.8954305003384135  0.8954305003384135 0  2 0  L 22 0  C 23.104569499661586 0  24 0.8954305003384135  24 2  L 24 5.59  C 23.997767210502293 6.11957684951965  23.78558778677106 6.6266497096230985  23.41 7  L 16 14.41  L 16 22  Z " stroke-width="0" stroke-dasharray="0" stroke="rgba(255, 255, 255, 0)" fill="none" transform="matrix(1 0 0 1 4 4 )" class="stroke" mask="url(#Clip3778)" />
    <path d="M 22 2  L 2 2  L 2 5.59  L 10 13.59  L 10 22  L 14 22  L 14 13.59  L 22 5.59  L 22 2  Z " stroke-width="0" stroke-dasharray="0" stroke="rgba(255, 255, 255, 0)" fill="none" transform="matrix(1 0 0 1 4 4 )" class="stroke" mask="url(#Clip3778)" />
  </g>
</svg>