<?xml version="1.0" encoding="utf-8"?>
<svg version="1.1" xmlns:xlink="http://www.w3.org/1999/xlink" width="56px" height="56px" xmlns="http://www.w3.org/2000/svg">
  <defs>
    <pattern id="BGPattern" patternUnits="userSpaceOnUse" alignment="0 0" imageRepeat="None" />
    <mask fill="white" id="Clip2330">
      <path d="M 56 28  C 56 12.537500000000001  43.4625 0  28 0  C 12.537500000000001 0  0 12.537500000000001  0 28  C 0 43.4625  12.537500000000001 56  28 56  C 43.4625 56  56 43.4625  56 28  Z M 37.21490475823859 28.028125000000003  C 37.21490475823859 28.1884010838236  37.137108321602824 28.338705293435424  37.00625 28.43125  L 23.35625 38.3625  C 23.271016036357 38.42374701180215  23.16870660456556 38.45669357515174  23.06374935130029 38.45669357515174  C 22.787231496634902 38.45669357515174  22.562944869564067 38.23276749680593  23 37.95625  L 23 18.10625  C 22.562498207214787 18.105703378628036  22.562497310820373 18.105156754684018  22.562497310820373 18.104610130372112  C 22.562497310820373 17.828467755456714  22.786354935904974 17.604610130372112  23.062497310820373 17.604610130372112  C 23.168027842368843 17.604610130372112  23.27085255574387 17.63800024513416  23.35625 17.7  L 37.00625000000001 27.625000000000004  C 37.13710832160282 27.71754470656459  37.21490475823859 27.867848916176403  37.21490475823859 28.028125000000003  Z " fill-rule="evenodd" />
    </mask>
  </defs>
  <g>
    <path d="M 56 28  C 56 12.537500000000001  43.4625 0  28 0  C 12.537500000000001 0  0 12.537500000000001  0 28  C 0 43.4625  12.537500000000001 56  28 56  C 43.4625 56  56 43.4625  56 28  Z M 37.21490475823859 28.028125000000003  C 37.21490475823859 28.1884010838236  37.137108321602824 28.338705293435424  37.00625 28.43125  L 23.35625 38.3625  C 23.271016036357 38.42374701180215  23.16870660456556 38.45669357515174  23.06374935130029 38.45669357515174  C 22.787231496634902 38.45669357515174  22.562944869564067 38.23276749680593  23 37.95625  L 23 18.10625  C 22.562498207214787 18.105703378628036  22.562497310820373 18.105156754684018  22.562497310820373 18.104610130372112  C 22.562497310820373 17.828467755456714  22.786354935904974 17.604610130372112  23.062497310820373 17.604610130372112  C 23.168027842368843 17.604610130372112  23.27085255574387 17.63800024513416  23.35625 17.7  L 37.00625000000001 27.625000000000004  C 37.13710832160282 27.71754470656459  37.21490475823859 27.867848916176403  37.21490475823859 28.028125000000003  Z " fill-rule="nonzero" fill="rgba(0, 0, 0, 1)" stroke="none" class="fill" />
    <path d="M 56 28  C 56 12.537500000000001  43.4625 0  28 0  C 12.537500000000001 0  0 12.537500000000001  0 28  C 0 43.4625  12.537500000000001 56  28 56  C 43.4625 56  56 43.4625  56 28  Z " stroke-width="0" stroke-dasharray="0" stroke="rgba(255, 255, 255, 0)" fill="none" class="stroke" mask="url(#Clip2330)" />
    <path d="M 37.21490475823859 28.028125000000003  C 37.21490475823859 28.1884010838236  37.137108321602824 28.338705293435424  37.00625 28.43125  L 23.35625 38.3625  C 23.271016036357 38.42374701180215  23.16870660456556 38.45669357515174  23.06374935130029 38.45669357515174  C 22.787231496634902 38.45669357515174  22.562944869564067 38.23276749680593  23 37.95625  L 23 18.10625  C 22.562498207214787 18.105703378628036  22.562497310820373 18.105156754684018  22.562497310820373 18.104610130372112  C 22.562497310820373 17.828467755456714  22.786354935904974 17.604610130372112  23.062497310820373 17.604610130372112  C 23.168027842368843 17.604610130372112  23.27085255574387 17.63800024513416  23.35625 17.7  L 37.00625000000001 27.625000000000004  C 37.13710832160282 27.71754470656459  37.21490475823859 27.867848916176403  37.21490475823859 28.028125000000003  Z " stroke-width="0" stroke-dasharray="0" stroke="rgba(255, 255, 255, 0)" fill="none" class="stroke" mask="url(#Clip2330)" />
  </g>
</svg>