<?xml version="1.0" encoding="utf-8"?>
<svg version="1.1" xmlns:xlink="http://www.w3.org/1999/xlink" width="16px" height="18px" xmlns="http://www.w3.org/2000/svg">
  <defs>
    <pattern id="BGPattern" patternUnits="userSpaceOnUse" alignment="0 0" imageRepeat="None" />
    <mask fill="white" id="Clip431">
      <path d="M 12.735999999999997 17.6  L 3.2639999999999993 17.6  C 1.3759999999999994 17.6  0 16.224  0 14.336000000000002  L 0 3.264000000000003  C 0 1.376000000000003  1.3759999999999994 0  3.2639999999999993 0  L 12.735999999999997 0  C 14.623999999999995 0  15.999999999999996 1.376000000000003  16 3.264000000000003  L 16 14.336000000000002  C 15.999999999999996 16.224000000000004  14.623999999999995 17.6  12.735999999999997 17.6  Z M 8.783999999999995 11.631999999999994  L 8.783999999999999 14.399999999999999  L 10.704 14.399999999999999  L 10.704 11.631999999999998  L 11.616 11.631999999999998  C 11.887999999999998 11.631999999999998  12.047999999999998 11.488  12.047999999999998 11.215999999999998  L 12.047999999999998 9.967999999999996  L 10.703999999999997 9.967999999999996  L 10.703999999999997 2.9119999999999955  L 8.607999999999997 2.9119999999999955  L 3.1679999999999957 10.063999999999997  L 3.407999999999996 11.167999999999996  C 3.471999999999996 11.455999999999996  3.711999999999996 11.631999999999994  3.9999999999999964 11.631999999999994  L 8.783999999999995 11.631999999999994  Z M 8.784000000000002 9.968  L 5.504 9.968  L 8.864 5.408000000000001  C 8.816000000000003 5.760000000000002  8.784000000000002 6.352  8.784000000000002 6.640000000000001  L 8.784000000000002 9.968  Z " fill-rule="evenodd" />
    </mask>
  </defs>
  <g>
    <path d="M 12.735999999999997 17.6  L 3.2639999999999993 17.6  C 1.3759999999999994 17.6  0 16.224  0 14.336000000000002  L 0 3.264000000000003  C 0 1.376000000000003  1.3759999999999994 0  3.2639999999999993 0  L 12.735999999999997 0  C 14.623999999999995 0  15.999999999999996 1.376000000000003  16 3.264000000000003  L 16 14.336000000000002  C 15.999999999999996 16.224000000000004  14.623999999999995 17.6  12.735999999999997 17.6  Z M 8.783999999999995 11.631999999999994  L 8.783999999999999 14.399999999999999  L 10.704 14.399999999999999  L 10.704 11.631999999999998  L 11.616 11.631999999999998  C 11.887999999999998 11.631999999999998  12.047999999999998 11.488  12.047999999999998 11.215999999999998  L 12.047999999999998 9.967999999999996  L 10.703999999999997 9.967999999999996  L 10.703999999999997 2.9119999999999955  L 8.607999999999997 2.9119999999999955  L 3.1679999999999957 10.063999999999997  L 3.407999999999996 11.167999999999996  C 3.471999999999996 11.455999999999996  3.711999999999996 11.631999999999994  3.9999999999999964 11.631999999999994  L 8.783999999999995 11.631999999999994  Z M 8.784000000000002 9.968  L 5.504 9.968  L 8.864 5.408000000000001  C 8.816000000000003 5.760000000000002  8.784000000000002 6.352  8.784000000000002 6.640000000000001  L 8.784000000000002 9.968  Z " fill-rule="nonzero" fill="rgba(0, 0, 0, 1)" stroke="none" class="fill" />
    <path d="M 12.735999999999997 17.6  L 3.2639999999999993 17.6  C 1.3759999999999994 17.6  0 16.224  0 14.336000000000002  L 0 3.264000000000003  C 0 1.376000000000003  1.3759999999999994 0  3.2639999999999993 0  L 12.735999999999997 0  C 14.623999999999995 0  15.999999999999996 1.376000000000003  16 3.264000000000003  L 16 14.336000000000002  C 15.999999999999996 16.224000000000004  14.623999999999995 17.6  12.735999999999997 17.6  Z " stroke-width="0" stroke-dasharray="0" stroke="rgba(255, 255, 255, 0)" fill="none" class="stroke" mask="url(#Clip431)" />
    <path d="M 8.783999999999995 11.631999999999994  L 8.783999999999999 14.399999999999999  L 10.704 14.399999999999999  L 10.704 11.631999999999998  L 11.616 11.631999999999998  C 11.887999999999998 11.631999999999998  12.047999999999998 11.488  12.047999999999998 11.215999999999998  L 12.047999999999998 9.967999999999996  L 10.703999999999997 9.967999999999996  L 10.703999999999997 2.9119999999999955  L 8.607999999999997 2.9119999999999955  L 3.1679999999999957 10.063999999999997  L 3.407999999999996 11.167999999999996  C 3.471999999999996 11.455999999999996  3.711999999999996 11.631999999999994  3.9999999999999964 11.631999999999994  L 8.783999999999995 11.631999999999994  Z " stroke-width="0" stroke-dasharray="0" stroke="rgba(255, 255, 255, 0)" fill="none" class="stroke" mask="url(#Clip431)" />
    <path d="M 8.784000000000002 9.968  L 5.504 9.968  L 8.864 5.408000000000001  C 8.816000000000003 5.760000000000002  8.784000000000002 6.352  8.784000000000002 6.640000000000001  L 8.784000000000002 9.968  Z " stroke-width="0" stroke-dasharray="0" stroke="rgba(255, 255, 255, 0)" fill="none" class="stroke" mask="url(#Clip431)" />
  </g>
</svg>