<?xml version="1.0" encoding="utf-8"?>
<svg version="1.1" xmlns:xlink="http://www.w3.org/1999/xlink" width="4px" height="15px" xmlns="http://www.w3.org/2000/svg">
  <defs>
    <pattern id="BGPattern" patternUnits="userSpaceOnUse" alignment="0 0" imageRepeat="None" />
    <mask fill="white" id="Clip6233">
      <path d="M 0.5 1.5  L 0.5 0  L 3.5 0  L 3.5 1.5  L 0.5 1.5  Z M 0.5 15  L 0.5 7.5  L 3.5 7.5  L 3.5 15  L 0.5 15  Z " fill-rule="evenodd" />
    </mask>
  </defs>
  <g transform="matrix(1 0 0 1 -10 -9 )">
    <path d="M 0.5 1.5  L 0.5 0  L 3.5 0  L 3.5 1.5  L 0.5 1.5  Z M 0.5 15  L 0.5 7.5  L 3.5 7.5  L 3.5 15  L 0.5 15  Z " fill-rule="nonzero" fill="rgba(0, 0, 0, 1)" stroke="none" transform="matrix(1 0 0 1 10 9 )" class="fill" />
    <path d="M 0.5 1.5  L 0.5 0  L 3.5 0  L 3.5 1.5  L 0.5 1.5  Z " stroke-width="0" stroke-dasharray="0" stroke="rgba(255, 255, 255, 0)" fill="none" transform="matrix(1 0 0 1 10 9 )" class="stroke" mask="url(#Clip6233)" />
    <path d="M 0.5 15  L 0.5 7.5  L 3.5 7.5  L 3.5 15  L 0.5 15  Z " stroke-width="0" stroke-dasharray="0" stroke="rgba(255, 255, 255, 0)" fill="none" transform="matrix(1 0 0 1 10 9 )" class="stroke" mask="url(#Clip6233)" />
  </g>
</svg>