<?xml version="1.0" encoding="utf-8"?>
<svg version="1.1" xmlns:xlink="http://www.w3.org/1999/xlink" width="8px" height="9px" xmlns="http://www.w3.org/2000/svg">
  <defs>
    <pattern id="BGPattern" patternUnits="userSpaceOnUse" alignment="0 0" imageRepeat="None" />
    <mask fill="white" id="Clip4549">
      <path d="M 3 9  L 5 9  L 5 2  L 8 2  L 8 0  L 0 0  L 0 2  L 3 2  L 3 9  Z " fill-rule="evenodd" />
    </mask>
  </defs>
  <g transform="matrix(1 0 0 1 -16 -16 )">
    <path d="M 3 9  L 5 9  L 5 2  L 8 2  L 8 0  L 0 0  L 0 2  L 3 2  L 3 9  Z " fill-rule="nonzero" fill="rgba(0, 0, 0, 1)" stroke="none" transform="matrix(1 0 0 1 16 16 )" class="fill" />
    <path d="M 3 9  L 5 9  L 5 2  L 8 2  L 8 0  L 0 0  L 0 2  L 3 2  L 3 9  Z " stroke-width="0" stroke-dasharray="0" stroke="rgba(255, 255, 255, 0)" fill="none" transform="matrix(1 0 0 1 16 16 )" class="stroke" mask="url(#Clip4549)" />
  </g>
</svg>