<?xml version="1.0" encoding="utf-8"?>
<svg version="1.1" xmlns:xlink="http://www.w3.org/1999/xlink" width="48px" height="48px" xmlns="http://www.w3.org/2000/svg">
  <defs>
    <pattern id="BGPattern" patternUnits="userSpaceOnUse" alignment="0 0" imageRepeat="None" />
    <mask fill="white" id="Clip7348">
      <path d="M 0 24  C 0 10.746000000000002  10.746 0  24 0  C 37.254 0  48 10.746  48 24  C 48 37.254  37.254 48  24 48  C 10.746000000000002 48  0 37.254  0 24  Z M 19.014000000000003 32.11799999999999  L 19.23 31.996  C 19.580000000000002 33.286  19.542 34.492  19.182000000000002 35.58  L 19.052000000000003 35.94  C 19.004000000000005 36.062  18.948000000000004 36.18  18.896000000000004 36.291999999999994  C 18.616000000000003 36.87199999999999  18.244000000000003 37.41199999999999  17.786000000000005 37.91199999999999  C 16.390000000000004 39.42999999999999  14.442000000000005 40.00599999999999  13.606000000000005 39.52199999999999  C 12.706000000000005 38.99799999999999  13.154000000000007 36.85199999999999  14.774000000000004 35.14199999999999  C 16.516000000000005 33.30599999999999  19.014000000000003 32.12399999999999  19.014000000000003 32.12399999999999  L 19.014000000000003 32.11799999999999  Z M 38.906 10.140000000000002  L 39.052 10.273999999999997  C 37.967999999999996 6.007999999999997  30.898 4.605999999999997  24.208 6.983999999999996  C 20.229999999999997 8.397999999999998  15.919999999999998 10.619999999999997  12.822 13.517999999999997  C 9.136 16.96  8.55 19.96  8.792 21.214  C 9.645999999999999 25.636000000000003  15.706 28.528  18.198 30.674  L 18.198 30.686  C 17.464 31.046  12.086000000000002 33.744  10.826 36.536  C 9.476 39.476  11.036000000000001 41.578  12.056000000000001 41.846000000000004  C 15.206000000000001 42.718  18.446 41.126000000000005  20.186 38.548  C 21.866 36.026  21.718 32.786  20.994 31.196  C 21.986 30.926000000000002  23.154 30.805999999999997  24.654 30.988000000000003  C 28.856 31.468000000000004  29.695999999999998 34.108000000000004  29.513999999999996 35.188  C 29.334000000000003 36.266000000000005  28.467999999999996 36.896  28.166000000000004 37.076  C 27.866 37.258  27.776 37.316  27.804000000000002 37.438  C 27.834000000000003 37.618  27.986 37.618  28.224000000000004 37.588  C 28.554000000000002 37.528  30.416000000000004 36.688  30.506000000000007 34.646  C 30.596000000000004 32.066  28.134000000000007 29.188000000000002  23.756000000000004 29.246000000000002  C 21.956000000000003 29.278000000000002  20.814000000000004 29.427999999999997  20.006000000000004 29.758000000000003  C 19.946000000000005 29.668000000000006  19.884000000000004 29.608000000000004  19.796000000000003 29.548000000000002  C 17.096000000000004 26.637999999999998  12.086000000000002 24.598  12.296000000000003 20.728  C 12.356000000000003 19.318  12.866000000000003 15.600000000000001  21.896 11.100000000000001  C 29.305999999999997 7.408000000000001  35.218 8.430000000000001  36.238 10.680000000000001  C 37.704 13.888000000000002  33.086 19.86  25.375999999999998 20.728  C 22.435999999999996 21.058  20.906 19.92  20.513999999999996 19.498  C 20.095999999999997 19.048000000000002  20.035999999999994 19.018  19.885999999999996 19.11  C 19.645999999999997 19.23  19.795999999999996 19.62  19.885999999999996 19.86  C 20.125999999999994 20.46  21.055999999999997 21.509999999999998  22.677999999999997 22.05  C 24.086 22.5  27.537999999999997 22.768  31.677999999999997 21.150000000000002  C 36.32599999999999 19.352000000000004  39.955999999999996 14.340000000000003  38.906 10.140000000000002  Z " fill-rule="evenodd" />
    </mask>
  </defs>
  <g>
    <path d="M 0 24  C 0 10.746000000000002  10.746 0  24 0  C 37.254 0  48 10.746  48 24  C 48 37.254  37.254 48  24 48  C 10.746000000000002 48  0 37.254  0 24  Z M 19.014000000000003 32.11799999999999  L 19.23 31.996  C 19.580000000000002 33.286  19.542 34.492  19.182000000000002 35.58  L 19.052000000000003 35.94  C 19.004000000000005 36.062  18.948000000000004 36.18  18.896000000000004 36.291999999999994  C 18.616000000000003 36.87199999999999  18.244000000000003 37.41199999999999  17.786000000000005 37.91199999999999  C 16.390000000000004 39.42999999999999  14.442000000000005 40.00599999999999  13.606000000000005 39.52199999999999  C 12.706000000000005 38.99799999999999  13.154000000000007 36.85199999999999  14.774000000000004 35.14199999999999  C 16.516000000000005 33.30599999999999  19.014000000000003 32.12399999999999  19.014000000000003 32.12399999999999  L 19.014000000000003 32.11799999999999  Z M 38.906 10.140000000000002  L 39.052 10.273999999999997  C 37.967999999999996 6.007999999999997  30.898 4.605999999999997  24.208 6.983999999999996  C 20.229999999999997 8.397999999999998  15.919999999999998 10.619999999999997  12.822 13.517999999999997  C 9.136 16.96  8.55 19.96  8.792 21.214  C 9.645999999999999 25.636000000000003  15.706 28.528  18.198 30.674  L 18.198 30.686  C 17.464 31.046  12.086000000000002 33.744  10.826 36.536  C 9.476 39.476  11.036000000000001 41.578  12.056000000000001 41.846000000000004  C 15.206000000000001 42.718  18.446 41.126000000000005  20.186 38.548  C 21.866 36.026  21.718 32.786  20.994 31.196  C 21.986 30.926000000000002  23.154 30.805999999999997  24.654 30.988000000000003  C 28.856 31.468000000000004  29.695999999999998 34.108000000000004  29.513999999999996 35.188  C 29.334000000000003 36.266000000000005  28.467999999999996 36.896  28.166000000000004 37.076  C 27.866 37.258  27.776 37.316  27.804000000000002 37.438  C 27.834000000000003 37.618  27.986 37.618  28.224000000000004 37.588  C 28.554000000000002 37.528  30.416000000000004 36.688  30.506000000000007 34.646  C 30.596000000000004 32.066  28.134000000000007 29.188000000000002  23.756000000000004 29.246000000000002  C 21.956000000000003 29.278000000000002  20.814000000000004 29.427999999999997  20.006000000000004 29.758000000000003  C 19.946000000000005 29.668000000000006  19.884000000000004 29.608000000000004  19.796000000000003 29.548000000000002  C 17.096000000000004 26.637999999999998  12.086000000000002 24.598  12.296000000000003 20.728  C 12.356000000000003 19.318  12.866000000000003 15.600000000000001  21.896 11.100000000000001  C 29.305999999999997 7.408000000000001  35.218 8.430000000000001  36.238 10.680000000000001  C 37.704 13.888000000000002  33.086 19.86  25.375999999999998 20.728  C 22.435999999999996 21.058  20.906 19.92  20.513999999999996 19.498  C 20.095999999999997 19.048000000000002  20.035999999999994 19.018  19.885999999999996 19.11  C 19.645999999999997 19.23  19.795999999999996 19.62  19.885999999999996 19.86  C 20.125999999999994 20.46  21.055999999999997 21.509999999999998  22.677999999999997 22.05  C 24.086 22.5  27.537999999999997 22.768  31.677999999999997 21.150000000000002  C 36.32599999999999 19.352000000000004  39.955999999999996 14.340000000000003  38.906 10.140000000000002  Z " fill-rule="nonzero" fill="rgba(204, 102, 153, 1)" stroke="none" class="fill" />
    <path d="M 0 24  C 0 10.746000000000002  10.746 0  24 0  C 37.254 0  48 10.746  48 24  C 48 37.254  37.254 48  24 48  C 10.746000000000002 48  0 37.254  0 24  Z " stroke-width="0" stroke-dasharray="0" stroke="rgba(255, 255, 255, 0)" fill="none" class="stroke" mask="url(#Clip7348)" />
    <path d="M 19.014000000000003 32.11799999999999  L 19.23 31.996  C 19.580000000000002 33.286  19.542 34.492  19.182000000000002 35.58  L 19.052000000000003 35.94  C 19.004000000000005 36.062  18.948000000000004 36.18  18.896000000000004 36.291999999999994  C 18.616000000000003 36.87199999999999  18.244000000000003 37.41199999999999  17.786000000000005 37.91199999999999  C 16.390000000000004 39.42999999999999  14.442000000000005 40.00599999999999  13.606000000000005 39.52199999999999  C 12.706000000000005 38.99799999999999  13.154000000000007 36.85199999999999  14.774000000000004 35.14199999999999  C 16.516000000000005 33.30599999999999  19.014000000000003 32.12399999999999  19.014000000000003 32.12399999999999  L 19.014000000000003 32.11799999999999  Z " stroke-width="0" stroke-dasharray="0" stroke="rgba(255, 255, 255, 0)" fill="none" class="stroke" mask="url(#Clip7348)" />
    <path d="M 38.906 10.140000000000002  L 39.052 10.273999999999997  C 37.967999999999996 6.007999999999997  30.898 4.605999999999997  24.208 6.983999999999996  C 20.229999999999997 8.397999999999998  15.919999999999998 10.619999999999997  12.822 13.517999999999997  C 9.136 16.96  8.55 19.96  8.792 21.214  C 9.645999999999999 25.636000000000003  15.706 28.528  18.198 30.674  L 18.198 30.686  C 17.464 31.046  12.086000000000002 33.744  10.826 36.536  C 9.476 39.476  11.036000000000001 41.578  12.056000000000001 41.846000000000004  C 15.206000000000001 42.718  18.446 41.126000000000005  20.186 38.548  C 21.866 36.026  21.718 32.786  20.994 31.196  C 21.986 30.926000000000002  23.154 30.805999999999997  24.654 30.988000000000003  C 28.856 31.468000000000004  29.695999999999998 34.108000000000004  29.513999999999996 35.188  C 29.334000000000003 36.266000000000005  28.467999999999996 36.896  28.166000000000004 37.076  C 27.866 37.258  27.776 37.316  27.804000000000002 37.438  C 27.834000000000003 37.618  27.986 37.618  28.224000000000004 37.588  C 28.554000000000002 37.528  30.416000000000004 36.688  30.506000000000007 34.646  C 30.596000000000004 32.066  28.134000000000007 29.188000000000002  23.756000000000004 29.246000000000002  C 21.956000000000003 29.278000000000002  20.814000000000004 29.427999999999997  20.006000000000004 29.758000000000003  C 19.946000000000005 29.668000000000006  19.884000000000004 29.608000000000004  19.796000000000003 29.548000000000002  C 17.096000000000004 26.637999999999998  12.086000000000002 24.598  12.296000000000003 20.728  C 12.356000000000003 19.318  12.866000000000003 15.600000000000001  21.896 11.100000000000001  C 29.305999999999997 7.408000000000001  35.218 8.430000000000001  36.238 10.680000000000001  C 37.704 13.888000000000002  33.086 19.86  25.375999999999998 20.728  C 22.435999999999996 21.058  20.906 19.92  20.513999999999996 19.498  C 20.095999999999997 19.048000000000002  20.035999999999994 19.018  19.885999999999996 19.11  C 19.645999999999997 19.23  19.795999999999996 19.62  19.885999999999996 19.86  C 20.125999999999994 20.46  21.055999999999997 21.509999999999998  22.677999999999997 22.05  C 24.086 22.5  27.537999999999997 22.768  31.677999999999997 21.150000000000002  C 36.32599999999999 19.352000000000004  39.955999999999996 14.340000000000003  38.906 10.140000000000002  Z " stroke-width="0" stroke-dasharray="0" stroke="rgba(255, 255, 255, 0)" fill="none" class="stroke" mask="url(#Clip7348)" />
  </g>
</svg>