<?xml version="1.0" encoding="utf-8"?>
<svg version="1.1" xmlns:xlink="http://www.w3.org/1999/xlink" width="16px" height="16px" xmlns="http://www.w3.org/2000/svg">
  <defs>
    <pattern id="BGPattern" patternUnits="userSpaceOnUse" alignment="0 0" imageRepeat="None" />
    <mask fill="white" id="Clip4232">
      <path d="M 16 5  L 11 0  L 9.59 1.4100000000000001  L 12.170000000000002 4  L 7 4  C 3.135788712790558 4.004298654535164  0.004298654535164204 7.135788712790557  0 11  L 0 16  L 2 16  L 2 10.999999999999998  C 2.0031411702631026 8.239878413212281  4.239878413212285 6.003141170263103  7 6  L 12.170000000000002 6  L 9.590000000000002 8.59  L 11 10  L 16 5  Z " fill-rule="evenodd" />
    </mask>
  </defs>
  <g transform="matrix(1 0 0 1 -4 -2 )">
    <path d="M 16 5  L 11 0  L 9.59 1.4100000000000001  L 12.170000000000002 4  L 7 4  C 3.135788712790558 4.004298654535164  0.004298654535164204 7.135788712790557  0 11  L 0 16  L 2 16  L 2 10.999999999999998  C 2.0031411702631026 8.239878413212281  4.239878413212285 6.003141170263103  7 6  L 12.170000000000002 6  L 9.590000000000002 8.59  L 11 10  L 16 5  Z " fill-rule="nonzero" fill="rgba(0, 0, 0, 1)" stroke="none" transform="matrix(1 0 0 1 4 2 )" class="fill" />
    <path d="M 16 5  L 11 0  L 9.59 1.4100000000000001  L 12.170000000000002 4  L 7 4  C 3.135788712790558 4.004298654535164  0.004298654535164204 7.135788712790557  0 11  L 0 16  L 2 16  L 2 10.999999999999998  C 2.0031411702631026 8.239878413212281  4.239878413212285 6.003141170263103  7 6  L 12.170000000000002 6  L 9.590000000000002 8.59  L 11 10  L 16 5  Z " stroke-width="0" stroke-dasharray="0" stroke="rgba(255, 255, 255, 0)" fill="none" transform="matrix(1 0 0 1 4 2 )" class="stroke" mask="url(#Clip4232)" />
  </g>
</svg>