<?xml version="1.0" encoding="utf-8"?>
<svg version="1.1" xmlns:xlink="http://www.w3.org/1999/xlink" width="44px" height="52px" xmlns="http://www.w3.org/2000/svg">
  <defs>
    <pattern id="BGPattern" patternUnits="userSpaceOnUse" alignment="0 0" imageRepeat="None" />
    <mask fill="white" id="Clip2454">
      <path d="M 43.25 11.0625  C 43.25 7.199999999999999  40.1125 4.0625  36.25 4.0625  C 32.3875 4.0625  29.25 7.199999999999999  29.25 11.0625  C 29.25 14.19375  31.31875 16.85  34.15625 17.74375  L 34.15625 23.737499999999997  L 10 31.65  L 10 13.881250000000001  C 12.7625 12.943750000000001  14.75 10.325000000000003  14.75 7.250000000000002  C 14.75 3.3875000000000033  11.6125 0.2500000000000018  7.75 0.2500000000000018  C 3.8874999999999993 0.2500000000000018  0.75 3.3875000000000033  0.75 7.250000000000002  C 0.75 10.325000000000003  2.7375000000000007 12.9375  6 13.881250000000001  L 6 38.125  C 2.7375000000000007 39.0625  0.75 41.68125  0.75 44.75625  C 0.75 48.61875  3.8874999999999993 51.75625  7.75 51.75625  C 11.6125 51.75625  14.75 48.61875  14.75 44.75625  C 14.75 41.68125  12.7625 39.06875  10 38.125  L 10 36.3875  L 36.46875 27.71875  C 37.772852229953195 27.294774735008208  38.6542153152371 26.077534026965683  38.65 24.70625  L 38.65 17.6375  C 41.33125 16.65  43.25 14.075  43.25 11.0625  Z M 7.7499999999999964 10.189384567073741  C 6.1166678712827505 10.189384567073741  4.783335044090816 8.882991922066816  4.749999999999998 7.249999999999999  C 4.783335044090816 5.617008077933182  6.1166678712827505 4.310615432926255  7.7499999999999964 4.310615432926255  C 9.383332128717246 4.310615432926255  10.716664955909181 5.617008077933182  10.75 7.249999999999999  C 10.716664955909181 8.882991922066816  9.383332128717246 10.189384567073741  7.7499999999999964 10.189384567073741  Z M 7.7499999999999964 41.810615432926255  C 9.383332128717246 41.810615432926255  10.716664955909184 43.117008077933185  10.75 44.75  C 10.716664955909184 46.382991922066815  9.383332128717246 47.68938456707375  7.7499999999999964 47.68938456707375  C 6.1166678712827505 47.68938456707375  4.783335044090812 46.382991922066815  4.749999999999998 44.75  C 4.783335044090812 43.117008077933185  6.1166678712827505 41.810615432926255  7.7499999999999964 41.810615432926255  Z M 39.18938456707374 11.0625  C 39.18938456707374 12.69583212871725  37.882991922066815 14.029164955909183  36.24999999999999 14.0625  C 34.61700807793317 14.029164955909183  33.31061543292625 12.69583212871725  33.31061543292625 11.0625  C 33.31061543292625 9.429167871282749  34.61700807793317 8.095835044090816  36.24999999999999 8.062499999999998  C 37.882991922066815 8.095835044090816  39.18938456707374 9.429167871282749  39.18938456707374 11.0625  Z " fill-rule="evenodd" />
    </mask>
  </defs>
  <g>
    <path d="M 43.25 11.0625  C 43.25 7.199999999999999  40.1125 4.0625  36.25 4.0625  C 32.3875 4.0625  29.25 7.199999999999999  29.25 11.0625  C 29.25 14.19375  31.31875 16.85  34.15625 17.74375  L 34.15625 23.737499999999997  L 10 31.65  L 10 13.881250000000001  C 12.7625 12.943750000000001  14.75 10.325000000000003  14.75 7.250000000000002  C 14.75 3.3875000000000033  11.6125 0.2500000000000018  7.75 0.2500000000000018  C 3.8874999999999993 0.2500000000000018  0.75 3.3875000000000033  0.75 7.250000000000002  C 0.75 10.325000000000003  2.7375000000000007 12.9375  6 13.881250000000001  L 6 38.125  C 2.7375000000000007 39.0625  0.75 41.68125  0.75 44.75625  C 0.75 48.61875  3.8874999999999993 51.75625  7.75 51.75625  C 11.6125 51.75625  14.75 48.61875  14.75 44.75625  C 14.75 41.68125  12.7625 39.06875  10 38.125  L 10 36.3875  L 36.46875 27.71875  C 37.772852229953195 27.294774735008208  38.6542153152371 26.077534026965683  38.65 24.70625  L 38.65 17.6375  C 41.33125 16.65  43.25 14.075  43.25 11.0625  Z M 7.7499999999999964 10.189384567073741  C 6.1166678712827505 10.189384567073741  4.783335044090816 8.882991922066816  4.749999999999998 7.249999999999999  C 4.783335044090816 5.617008077933182  6.1166678712827505 4.310615432926255  7.7499999999999964 4.310615432926255  C 9.383332128717246 4.310615432926255  10.716664955909181 5.617008077933182  10.75 7.249999999999999  C 10.716664955909181 8.882991922066816  9.383332128717246 10.189384567073741  7.7499999999999964 10.189384567073741  Z M 7.7499999999999964 41.810615432926255  C 9.383332128717246 41.810615432926255  10.716664955909184 43.117008077933185  10.75 44.75  C 10.716664955909184 46.382991922066815  9.383332128717246 47.68938456707375  7.7499999999999964 47.68938456707375  C 6.1166678712827505 47.68938456707375  4.783335044090812 46.382991922066815  4.749999999999998 44.75  C 4.783335044090812 43.117008077933185  6.1166678712827505 41.810615432926255  7.7499999999999964 41.810615432926255  Z M 39.18938456707374 11.0625  C 39.18938456707374 12.69583212871725  37.882991922066815 14.029164955909183  36.24999999999999 14.0625  C 34.61700807793317 14.029164955909183  33.31061543292625 12.69583212871725  33.31061543292625 11.0625  C 33.31061543292625 9.429167871282749  34.61700807793317 8.095835044090816  36.24999999999999 8.062499999999998  C 37.882991922066815 8.095835044090816  39.18938456707374 9.429167871282749  39.18938456707374 11.0625  Z " fill-rule="nonzero" fill="rgba(0, 0, 0, 1)" stroke="none" class="fill" />
    <path d="M 43.25 11.0625  C 43.25 7.199999999999999  40.1125 4.0625  36.25 4.0625  C 32.3875 4.0625  29.25 7.199999999999999  29.25 11.0625  C 29.25 14.19375  31.31875 16.85  34.15625 17.74375  L 34.15625 23.737499999999997  L 10 31.65  L 10 13.881250000000001  C 12.7625 12.943750000000001  14.75 10.325000000000003  14.75 7.250000000000002  C 14.75 3.3875000000000033  11.6125 0.2500000000000018  7.75 0.2500000000000018  C 3.8874999999999993 0.2500000000000018  0.75 3.3875000000000033  0.75 7.250000000000002  C 0.75 10.325000000000003  2.7375000000000007 12.9375  6 13.881250000000001  L 6 38.125  C 2.7375000000000007 39.0625  0.75 41.68125  0.75 44.75625  C 0.75 48.61875  3.8874999999999993 51.75625  7.75 51.75625  C 11.6125 51.75625  14.75 48.61875  14.75 44.75625  C 14.75 41.68125  12.7625 39.06875  10 38.125  L 10 36.3875  L 36.46875 27.71875  C 37.772852229953195 27.294774735008208  38.6542153152371 26.077534026965683  38.65 24.70625  L 38.65 17.6375  C 41.33125 16.65  43.25 14.075  43.25 11.0625  Z " stroke-width="0" stroke-dasharray="0" stroke="rgba(255, 255, 255, 0)" fill="none" class="stroke" mask="url(#Clip2454)" />
    <path d="M 7.7499999999999964 10.189384567073741  C 6.1166678712827505 10.189384567073741  4.783335044090816 8.882991922066816  4.749999999999998 7.249999999999999  C 4.783335044090816 5.617008077933182  6.1166678712827505 4.310615432926255  7.7499999999999964 4.310615432926255  C 9.383332128717246 4.310615432926255  10.716664955909181 5.617008077933182  10.75 7.249999999999999  C 10.716664955909181 8.882991922066816  9.383332128717246 10.189384567073741  7.7499999999999964 10.189384567073741  Z " stroke-width="0" stroke-dasharray="0" stroke="rgba(255, 255, 255, 0)" fill="none" class="stroke" mask="url(#Clip2454)" />
    <path d="M 7.7499999999999964 41.810615432926255  C 9.383332128717246 41.810615432926255  10.716664955909184 43.117008077933185  10.75 44.75  C 10.716664955909184 46.382991922066815  9.383332128717246 47.68938456707375  7.7499999999999964 47.68938456707375  C 6.1166678712827505 47.68938456707375  4.783335044090812 46.382991922066815  4.749999999999998 44.75  C 4.783335044090812 43.117008077933185  6.1166678712827505 41.810615432926255  7.7499999999999964 41.810615432926255  Z " stroke-width="0" stroke-dasharray="0" stroke="rgba(255, 255, 255, 0)" fill="none" class="stroke" mask="url(#Clip2454)" />
    <path d="M 39.18938456707374 11.0625  C 39.18938456707374 12.69583212871725  37.882991922066815 14.029164955909183  36.24999999999999 14.0625  C 34.61700807793317 14.029164955909183  33.31061543292625 12.69583212871725  33.31061543292625 11.0625  C 33.31061543292625 9.429167871282749  34.61700807793317 8.095835044090816  36.24999999999999 8.062499999999998  C 37.882991922066815 8.095835044090816  39.18938456707374 9.429167871282749  39.18938456707374 11.0625  Z " stroke-width="0" stroke-dasharray="0" stroke="rgba(255, 255, 255, 0)" fill="none" class="stroke" mask="url(#Clip2454)" />
  </g>
</svg>