<?xml version="1.0" encoding="utf-8"?>
<svg version="1.1" xmlns:xlink="http://www.w3.org/1999/xlink" width="50px" height="50px" xmlns="http://www.w3.org/2000/svg">
  <defs>
    <pattern id="BGPattern" patternUnits="userSpaceOnUse" alignment="0 0" imageRepeat="None" />
    <mask fill="white" id="Clip1192">
      <path d="M 50 25  C 50 11.197883064516134  38.80614919354838 0  25 0  C 11.193850806451621 0  0 11.197883064516134  0 25  C 0 38.81018145161289  11.193850806451621 50  25 50  C 38.80614919354838 50  50 38.81018145161289  50 25  Z M 45.16129032258064 25  C 45.16129032258064 36.142137096774206  36.14606854838709 45.16129032258064  25 45.16129032258064  C 13.857661290322582 45.16129032258064  4.838709677419359 36.14606854838709  4.838709677419359 25  C 4.838709677419359 13.861391129032254  13.858064516129035 4.838709677419359  25 4.838709677419359  C 36.13820564516129 4.838709677419359  45.16129032258064 13.85796370967742  45.16129032258064 25  Z M 25.584072580645167 10.48387096774195  C 30.530745967741936 10.48387096774195  35.810887096774195 14.345161290322581  35.810887096774195 19.435483870967744  C 35.810887096774195 26.194758064516122  28.51038306451613 26.298790322580658  28.51038306451613 28.79667338709677  L 28.51038306451613 29.435483870967744  C 28.51038306451613 30.103528225806457  27.968749999999996 30.64516129032259  27.300705645161287 30.64516129032259  L 22.6991935483871 30.64516129032259  C 22.031149193548387 30.64516129032259  21.489516129032268 30.103528225806457  21.489516129032268 29.435483870967744  L 21.489516129032268 28.562600806451627  C 21.489516129032268 24.959274193548396  24.221370967741933 23.51885080645161  26.285786290322587 22.361391129032256  C 28.056048387096784 21.36895161290323  29.141028225806455 20.69395161290322  29.141028225806455 19.37963709677419  C 29.141028225806455 17.64112903225805  26.923387096774203 16.48719758064516  25.13054435483872 16.48719758064516  C 22.7929435483871 16.48719758064516  21.713810483870972 17.59375  20.196875000000006 19.50826612903225  C 19.78790322580646 20.02439516129033  19.041633064516134 20.120262096774184  18.516834677419354 19.72237903225806  L 15.711995967741943 17.59556451612903  C 15.197177419354842 17.205241935483855  15.081854838709688 16.480040322580635  15.445463709677426 15.946068548387105  C 17.827217741935485 12.448689516129036  20.860887096774192 10.48387096774195  25.584072580645167 10.48387096774195  Z M 25 32.05645161290323  C 27.334576612903223 32.05645161290323  29.233870967741936 33.95574596774193  29.233870967741936 36.29032258064515  C 29.233870967741936 38.6248991935484  27.334576612903223 40.5241935483871  25 40.5241935483871  C 22.66542338709678 40.5241935483871  20.766129032258064 38.6248991935484  20.766129032258064 36.29032258064515  C 20.766129032258064 33.95574596774193  22.66542338709678 32.05645161290323  25 32.05645161290323  Z " fill-rule="evenodd" />
    </mask>
  </defs>
  <g>
    <path d="M 50 25  C 50 11.197883064516134  38.80614919354838 0  25 0  C 11.193850806451621 0  0 11.197883064516134  0 25  C 0 38.81018145161289  11.193850806451621 50  25 50  C 38.80614919354838 50  50 38.81018145161289  50 25  Z M 45.16129032258064 25  C 45.16129032258064 36.142137096774206  36.14606854838709 45.16129032258064  25 45.16129032258064  C 13.857661290322582 45.16129032258064  4.838709677419359 36.14606854838709  4.838709677419359 25  C 4.838709677419359 13.861391129032254  13.858064516129035 4.838709677419359  25 4.838709677419359  C 36.13820564516129 4.838709677419359  45.16129032258064 13.85796370967742  45.16129032258064 25  Z M 25.584072580645167 10.48387096774195  C 30.530745967741936 10.48387096774195  35.810887096774195 14.345161290322581  35.810887096774195 19.435483870967744  C 35.810887096774195 26.194758064516122  28.51038306451613 26.298790322580658  28.51038306451613 28.79667338709677  L 28.51038306451613 29.435483870967744  C 28.51038306451613 30.103528225806457  27.968749999999996 30.64516129032259  27.300705645161287 30.64516129032259  L 22.6991935483871 30.64516129032259  C 22.031149193548387 30.64516129032259  21.489516129032268 30.103528225806457  21.489516129032268 29.435483870967744  L 21.489516129032268 28.562600806451627  C 21.489516129032268 24.959274193548396  24.221370967741933 23.51885080645161  26.285786290322587 22.361391129032256  C 28.056048387096784 21.36895161290323  29.141028225806455 20.69395161290322  29.141028225806455 19.37963709677419  C 29.141028225806455 17.64112903225805  26.923387096774203 16.48719758064516  25.13054435483872 16.48719758064516  C 22.7929435483871 16.48719758064516  21.713810483870972 17.59375  20.196875000000006 19.50826612903225  C 19.78790322580646 20.02439516129033  19.041633064516134 20.120262096774184  18.516834677419354 19.72237903225806  L 15.711995967741943 17.59556451612903  C 15.197177419354842 17.205241935483855  15.081854838709688 16.480040322580635  15.445463709677426 15.946068548387105  C 17.827217741935485 12.448689516129036  20.860887096774192 10.48387096774195  25.584072580645167 10.48387096774195  Z M 25 32.05645161290323  C 27.334576612903223 32.05645161290323  29.233870967741936 33.95574596774193  29.233870967741936 36.29032258064515  C 29.233870967741936 38.6248991935484  27.334576612903223 40.5241935483871  25 40.5241935483871  C 22.66542338709678 40.5241935483871  20.766129032258064 38.6248991935484  20.766129032258064 36.29032258064515  C 20.766129032258064 33.95574596774193  22.66542338709678 32.05645161290323  25 32.05645161290323  Z " fill-rule="nonzero" fill="rgba(0, 0, 0, 1)" stroke="none" class="fill" />
    <path d="M 50 25  C 50 11.197883064516134  38.80614919354838 0  25 0  C 11.193850806451621 0  0 11.197883064516134  0 25  C 0 38.81018145161289  11.193850806451621 50  25 50  C 38.80614919354838 50  50 38.81018145161289  50 25  Z " stroke-width="0" stroke-dasharray="0" stroke="rgba(255, 255, 255, 0)" fill="none" class="stroke" mask="url(#Clip1192)" />
    <path d="M 45.16129032258064 25  C 45.16129032258064 36.142137096774206  36.14606854838709 45.16129032258064  25 45.16129032258064  C 13.857661290322582 45.16129032258064  4.838709677419359 36.14606854838709  4.838709677419359 25  C 4.838709677419359 13.861391129032254  13.858064516129035 4.838709677419359  25 4.838709677419359  C 36.13820564516129 4.838709677419359  45.16129032258064 13.85796370967742  45.16129032258064 25  Z " stroke-width="0" stroke-dasharray="0" stroke="rgba(255, 255, 255, 0)" fill="none" class="stroke" mask="url(#Clip1192)" />
    <path d="M 25.584072580645167 10.48387096774195  C 30.530745967741936 10.48387096774195  35.810887096774195 14.345161290322581  35.810887096774195 19.435483870967744  C 35.810887096774195 26.194758064516122  28.51038306451613 26.298790322580658  28.51038306451613 28.79667338709677  L 28.51038306451613 29.435483870967744  C 28.51038306451613 30.103528225806457  27.968749999999996 30.64516129032259  27.300705645161287 30.64516129032259  L 22.6991935483871 30.64516129032259  C 22.031149193548387 30.64516129032259  21.489516129032268 30.103528225806457  21.489516129032268 29.435483870967744  L 21.489516129032268 28.562600806451627  C 21.489516129032268 24.959274193548396  24.221370967741933 23.51885080645161  26.285786290322587 22.361391129032256  C 28.056048387096784 21.36895161290323  29.141028225806455 20.69395161290322  29.141028225806455 19.37963709677419  C 29.141028225806455 17.64112903225805  26.923387096774203 16.48719758064516  25.13054435483872 16.48719758064516  C 22.7929435483871 16.48719758064516  21.713810483870972 17.59375  20.196875000000006 19.50826612903225  C 19.78790322580646 20.02439516129033  19.041633064516134 20.120262096774184  18.516834677419354 19.72237903225806  L 15.711995967741943 17.59556451612903  C 15.197177419354842 17.205241935483855  15.081854838709688 16.480040322580635  15.445463709677426 15.946068548387105  C 17.827217741935485 12.448689516129036  20.860887096774192 10.48387096774195  25.584072580645167 10.48387096774195  Z " stroke-width="0" stroke-dasharray="0" stroke="rgba(255, 255, 255, 0)" fill="none" class="stroke" mask="url(#Clip1192)" />
    <path d="M 25 32.05645161290323  C 27.334576612903223 32.05645161290323  29.233870967741936 33.95574596774193  29.233870967741936 36.29032258064515  C 29.233870967741936 38.6248991935484  27.334576612903223 40.5241935483871  25 40.5241935483871  C 22.66542338709678 40.5241935483871  20.766129032258064 38.6248991935484  20.766129032258064 36.29032258064515  C 20.766129032258064 33.95574596774193  22.66542338709678 32.05645161290323  25 32.05645161290323  Z " stroke-width="0" stroke-dasharray="0" stroke="rgba(255, 255, 255, 0)" fill="none" class="stroke" mask="url(#Clip1192)" />
  </g>
</svg>