<?xml version="1.0" encoding="utf-8"?>
<svg version="1.1" xmlns:xlink="http://www.w3.org/1999/xlink" width="12px" height="11px" xmlns="http://www.w3.org/2000/svg">
  <defs>
    <pattern id="BGPattern" patternUnits="userSpaceOnUse" alignment="0 0" imageRepeat="None" />
    <mask fill="white" id="Clip5886">
      <path d="M 0.75 10.5  L 0.75 6  C 0.75 3.100505063388334  3.1005050633883346 0.7499999999999997  6 0.7499999999999997  C 8.899494936611664 0.7499999999999997  11.25 3.100505063388334  11.25 6  L 11.25 10.5  L 9.75 10.5  L 9.749999999999996 6  C 9.749999999999996 3.9289321881345245  8.071067811865472 2.25  5.999999999999998 2.25  C 3.9289321881345245 2.25  2.2499999999999982 3.9289321881345245  2.2499999999999982 6  L 2.25 10.5  L 0.75 10.5  Z " fill-rule="evenodd" />
    </mask>
  </defs>
  <g transform="matrix(1 0 0 1 -3 0 )">
    <path d="M 0.75 10.5  L 0.75 6  C 0.75 3.100505063388334  3.1005050633883346 0.7499999999999997  6 0.7499999999999997  C 8.899494936611664 0.7499999999999997  11.25 3.100505063388334  11.25 6  L 11.25 10.5  L 9.75 10.5  L 9.749999999999996 6  C 9.749999999999996 3.9289321881345245  8.071067811865472 2.25  5.999999999999998 2.25  C 3.9289321881345245 2.25  2.2499999999999982 3.9289321881345245  2.2499999999999982 6  L 2.25 10.5  L 0.75 10.5  Z " fill-rule="nonzero" fill="rgba(0, 0, 0, 1)" stroke="none" transform="matrix(1 0 0 1 3 0 )" class="fill" />
    <path d="M 0.75 10.5  L 0.75 6  C 0.75 3.100505063388334  3.1005050633883346 0.7499999999999997  6 0.7499999999999997  C 8.899494936611664 0.7499999999999997  11.25 3.100505063388334  11.25 6  L 11.25 10.5  L 9.75 10.5  L 9.749999999999996 6  C 9.749999999999996 3.9289321881345245  8.071067811865472 2.25  5.999999999999998 2.25  C 3.9289321881345245 2.25  2.2499999999999982 3.9289321881345245  2.2499999999999982 6  L 2.25 10.5  L 0.75 10.5  Z " stroke-width="0" stroke-dasharray="0" stroke="rgba(255, 255, 255, 0)" fill="none" transform="matrix(1 0 0 1 3 0 )" class="stroke" mask="url(#Clip5886)" />
  </g>
</svg>