<?xml version="1.0" encoding="utf-8"?>
<svg version="1.1" xmlns:xlink="http://www.w3.org/1999/xlink" width="18px" height="14px" xmlns="http://www.w3.org/2000/svg">
  <defs>
    <pattern id="BGPattern" patternUnits="userSpaceOnUse" alignment="0 0" imageRepeat="None" />
    <mask fill="white" id="Clip5885">
      <path d="M 0.75 11  L 0.75 3.5  C 0.75 1.8431457505076203  2.0931457505076194 0.5  3.75 0.5  L 14.25 0.5  C 15.90685424949238 0.5  17.25 1.8431457505076203  17.25 3.5  L 17.25 11  C 17.25 12.65685424949238  15.90685424949238 14  14.25 14  L 3.75 14  C 2.0931457505076194 14  0.75 12.65685424949238  0.75 11  Z " fill-rule="evenodd" />
    </mask>
  </defs>
  <g transform="matrix(1 0 0 1 0 -10 )">
    <path d="M 0.75 11  L 0.75 3.5  C 0.75 1.8431457505076203  2.0931457505076194 0.5  3.75 0.5  L 14.25 0.5  C 15.90685424949238 0.5  17.25 1.8431457505076203  17.25 3.5  L 17.25 11  C 17.25 12.65685424949238  15.90685424949238 14  14.25 14  L 3.75 14  C 2.0931457505076194 14  0.75 12.65685424949238  0.75 11  Z " fill-rule="nonzero" fill="rgba(0, 0, 0, 1)" stroke="none" transform="matrix(1 0 0 1 0 10 )" class="fill" />
    <path d="M 0.75 11  L 0.75 3.5  C 0.75 1.8431457505076203  2.0931457505076194 0.5  3.75 0.5  L 14.25 0.5  C 15.90685424949238 0.5  17.25 1.8431457505076203  17.25 3.5  L 17.25 11  C 17.25 12.65685424949238  15.90685424949238 14  14.25 14  L 3.75 14  C 2.0931457505076194 14  0.75 12.65685424949238  0.75 11  Z " stroke-width="0" stroke-dasharray="0" stroke="rgba(255, 255, 255, 0)" fill="none" transform="matrix(1 0 0 1 0 10 )" class="stroke" mask="url(#Clip5885)" />
  </g>
</svg>