<?xml version="1.0" encoding="utf-8"?>
<svg version="1.1" xmlns:xlink="http://www.w3.org/1999/xlink" width="50px" height="50px" xmlns="http://www.w3.org/2000/svg">
  <defs>
    <pattern id="BGPattern" patternUnits="userSpaceOnUse" alignment="0 0" imageRepeat="None" />
    <mask fill="white" id="Clip944">
      <path d="M 8.380281690140833 32.937625754527176  L 28.2897384305835 27.18309859154928  C 32.917505030181076 25.845070422535198  33.279678068410476 24.8189134808853  32.71629778672033 22.81690140845069  L 31.58953722334005 18.86317907444669  C 30.97585513078471 16.760563380281695  29.738430583501014 16.036217303822923  24.436619718309856 17.575452716297775  L 5.503018108651901 23.01810865191146  L 8.380281690140833 32.937625754527176  Z M 49.899396378269614 24.919517102615686  C 50 11.207243460764573  38.78269617706238 0  25 0  C 13.219315895372233 0  3.3400402414486905 8.118712273641847  0.7243460764587439 19.064386317907434  L 23.048289738430583 12.635814889336016  C 26.549295774647874 11.609657947686117  28.50100603621729 11.458752515090538  31.0261569416499 11.810865191146888  C 34.67806841046277 12.424547283702225  36.32796780684106 14.32595573440642  37.20321931589535 17.364185110663982  L 38.27967806841045 21.16700201207243  C 39.104627766599606 23.99396378269617  38.38028169014083 26.257545271629766  35.915492957746466 28.57142857142858  C 33.96378269617705 30.321931589537225  32.77665995975855 31.036217303822923  29.738430583501014 31.911468812877274  L 20.422535211267615 34.587525150905435  L 42.595573440643875 37.31388329979879  L 43.571428571428555 40.754527162977865  L 38.732394366197184 42.092555331991946  L 9.879275653923543 38.34004024144869  L 12.193158953722332 46.408450704225345  C 15.895372233400396 48.62173038229375  20.271629778672036 49.899396378269614  24.899396378269614 49.899396378269614  C 38.68209255533199 49.899396378269614  49.899396378269614 38.69215291750504  49.899396378269614 24.919517102615686  Z M 0 25.03018108651912  C 0 29.909456740442664  1.4386317907444663 34.426559356136835  3.8531187122736412 38.2897384305835  L 0 25.03018108651912  Z " fill-rule="evenodd" />
    </mask>
  </defs>
  <g>
    <path d="M 8.380281690140833 32.937625754527176  L 28.2897384305835 27.18309859154928  C 32.917505030181076 25.845070422535198  33.279678068410476 24.8189134808853  32.71629778672033 22.81690140845069  L 31.58953722334005 18.86317907444669  C 30.97585513078471 16.760563380281695  29.738430583501014 16.036217303822923  24.436619718309856 17.575452716297775  L 5.503018108651901 23.01810865191146  L 8.380281690140833 32.937625754527176  Z M 49.899396378269614 24.919517102615686  C 50 11.207243460764573  38.78269617706238 0  25 0  C 13.219315895372233 0  3.3400402414486905 8.118712273641847  0.7243460764587439 19.064386317907434  L 23.048289738430583 12.635814889336016  C 26.549295774647874 11.609657947686117  28.50100603621729 11.458752515090538  31.0261569416499 11.810865191146888  C 34.67806841046277 12.424547283702225  36.32796780684106 14.32595573440642  37.20321931589535 17.364185110663982  L 38.27967806841045 21.16700201207243  C 39.104627766599606 23.99396378269617  38.38028169014083 26.257545271629766  35.915492957746466 28.57142857142858  C 33.96378269617705 30.321931589537225  32.77665995975855 31.036217303822923  29.738430583501014 31.911468812877274  L 20.422535211267615 34.587525150905435  L 42.595573440643875 37.31388329979879  L 43.571428571428555 40.754527162977865  L 38.732394366197184 42.092555331991946  L 9.879275653923543 38.34004024144869  L 12.193158953722332 46.408450704225345  C 15.895372233400396 48.62173038229375  20.271629778672036 49.899396378269614  24.899396378269614 49.899396378269614  C 38.68209255533199 49.899396378269614  49.899396378269614 38.69215291750504  49.899396378269614 24.919517102615686  Z M 0 25.03018108651912  C 0 29.909456740442664  1.4386317907444663 34.426559356136835  3.8531187122736412 38.2897384305835  L 0 25.03018108651912  Z " fill-rule="nonzero" fill="rgba(0, 0, 0, 1)" stroke="none" class="fill" />
    <path d="M 8.380281690140833 32.937625754527176  L 28.2897384305835 27.18309859154928  C 32.917505030181076 25.845070422535198  33.279678068410476 24.8189134808853  32.71629778672033 22.81690140845069  L 31.58953722334005 18.86317907444669  C 30.97585513078471 16.760563380281695  29.738430583501014 16.036217303822923  24.436619718309856 17.575452716297775  L 5.503018108651901 23.01810865191146  L 8.380281690140833 32.937625754527176  Z " stroke-width="0" stroke-dasharray="0" stroke="rgba(255, 255, 255, 0)" fill="none" class="stroke" mask="url(#Clip944)" />
    <path d="M 49.899396378269614 24.919517102615686  C 50 11.207243460764573  38.78269617706238 0  25 0  C 13.219315895372233 0  3.3400402414486905 8.118712273641847  0.7243460764587439 19.064386317907434  L 23.048289738430583 12.635814889336016  C 26.549295774647874 11.609657947686117  28.50100603621729 11.458752515090538  31.0261569416499 11.810865191146888  C 34.67806841046277 12.424547283702225  36.32796780684106 14.32595573440642  37.20321931589535 17.364185110663982  L 38.27967806841045 21.16700201207243  C 39.104627766599606 23.99396378269617  38.38028169014083 26.257545271629766  35.915492957746466 28.57142857142858  C 33.96378269617705 30.321931589537225  32.77665995975855 31.036217303822923  29.738430583501014 31.911468812877274  L 20.422535211267615 34.587525150905435  L 42.595573440643875 37.31388329979879  L 43.571428571428555 40.754527162977865  L 38.732394366197184 42.092555331991946  L 9.879275653923543 38.34004024144869  L 12.193158953722332 46.408450704225345  C 15.895372233400396 48.62173038229375  20.271629778672036 49.899396378269614  24.899396378269614 49.899396378269614  C 38.68209255533199 49.899396378269614  49.899396378269614 38.69215291750504  49.899396378269614 24.919517102615686  Z " stroke-width="0" stroke-dasharray="0" stroke="rgba(255, 255, 255, 0)" fill="none" class="stroke" mask="url(#Clip944)" />
    <path d="M 0 25.03018108651912  C 0 29.909456740442664  1.4386317907444663 34.426559356136835  3.8531187122736412 38.2897384305835  L 0 25.03018108651912  Z " stroke-width="0" stroke-dasharray="0" stroke="rgba(255, 255, 255, 0)" fill="none" class="stroke" mask="url(#Clip944)" />
  </g>
</svg>