<?xml version="1.0" encoding="utf-8"?>
<svg version="1.1" xmlns:xlink="http://www.w3.org/1999/xlink" width="51px" height="51px" xmlns="http://www.w3.org/2000/svg">
  <defs>
    <pattern id="BGPattern" patternUnits="userSpaceOnUse" alignment="0 0" imageRepeat="None" />
    <mask fill="white" id="Clip2527">
      <path d="M 50.99935923958712 25.997499861750768  C 50.99935923958712 25.860305430798523  50.937622626810594 25.730393961992323  50.83125 25.64375  L 42.85625 19.349999999999998  C 42.77660314437986 19.287348426400655  42.67820898107207 19.25328678404826  42.57687368966454 19.25328678404826  C 42.32731001833475 19.25328678404826  42.12499868966454 19.45559811271847  42.12499868966454 19.705161784048258  C 42.12499868966454 19.705524523092794  42.12499912644334 19.70588726200733  42.125 19.70625  L 42.125 24  L 28 24  L 28 9.875  L 32.3 9.875  C 32.675 9.875  32.887499999999996 9.4375  32.65625 9.14375  L 26.356250000000003 1.1687500000000002  C 26.2717468493608 1.0593813269370065  26.141336031092003 0.9953402405712916  26.003125000000008 0.9953402405712916  C 25.864913968908006 0.9953402405712916  25.734503150639217 1.0593813269370065  25.65 1.1687500000000002  L 19.349999999999998 9.143749999999999  C 19.28734842640065 9.223396855620132  19.25328678404826 9.321791018927936  19.25328678404826 9.423126310335464  C 19.25328678404826 9.672689981665254  19.45559811271847 9.875001310335463  19.705161784048258 9.875001310335463  C 19.705524523093683 9.875001310335463  19.70588726200644 9.87500087355666  19.70625 9.875  L 24 9.875  L 24 24  L 9.875 24  L 9.875 19.7  C 9.875 19.325  9.4375 19.1125  9.14375 19.34375  L 1.1687500000000002 25.643750000000004  C 1.0593813269370065 25.72825315063921  0.9953402405712916 25.858663968908004  0.9953402405712916 25.996875000000003  C 0.9953402405712916 26.135086031092  1.0593813269370065 26.265496849360794  1.1687500000000002 26.35  L 9.1375 32.65  C 9.431249999999999 32.88125  9.868749999999999 32.675  9.868749999999999 32.293749999999996  L 9.868749999999999 28  L 24 28  L 24 42.125  L 19.693749999999998 42.125  C 19.318749999999998 42.125  19.10625 42.5625  19.3375 42.85625  L 25.6375 50.825  C 25.818749999999998 51.056250000000006  26.168750000000003 51.056250000000006  26.343750000000004 50.825  L 32.64375 42.85625  C 32.875 42.5625  32.668749999999996 42.125  32.287499999999994 42.125  L 28 42.125  L 28 28  L 42.125 28  L 42.125 32.3  C 42.125 32.675  42.5625 32.887499999999996  42.85625 32.65625  L 50.825 26.356250000000003  C 50.93508301021562 26.269751403484726  50.99935923958712 26.137500848666022  50.99935923958712 25.997499861750768  Z " fill-rule="evenodd" />
    </mask>
  </defs>
  <g>
    <path d="M 50.99935923958712 25.997499861750768  C 50.99935923958712 25.860305430798523  50.937622626810594 25.730393961992323  50.83125 25.64375  L 42.85625 19.349999999999998  C 42.77660314437986 19.287348426400655  42.67820898107207 19.25328678404826  42.57687368966454 19.25328678404826  C 42.32731001833475 19.25328678404826  42.12499868966454 19.45559811271847  42.12499868966454 19.705161784048258  C 42.12499868966454 19.705524523092794  42.12499912644334 19.70588726200733  42.125 19.70625  L 42.125 24  L 28 24  L 28 9.875  L 32.3 9.875  C 32.675 9.875  32.887499999999996 9.4375  32.65625 9.14375  L 26.356250000000003 1.1687500000000002  C 26.2717468493608 1.0593813269370065  26.141336031092003 0.9953402405712916  26.003125000000008 0.9953402405712916  C 25.864913968908006 0.9953402405712916  25.734503150639217 1.0593813269370065  25.65 1.1687500000000002  L 19.349999999999998 9.143749999999999  C 19.28734842640065 9.223396855620132  19.25328678404826 9.321791018927936  19.25328678404826 9.423126310335464  C 19.25328678404826 9.672689981665254  19.45559811271847 9.875001310335463  19.705161784048258 9.875001310335463  C 19.705524523093683 9.875001310335463  19.70588726200644 9.87500087355666  19.70625 9.875  L 24 9.875  L 24 24  L 9.875 24  L 9.875 19.7  C 9.875 19.325  9.4375 19.1125  9.14375 19.34375  L 1.1687500000000002 25.643750000000004  C 1.0593813269370065 25.72825315063921  0.9953402405712916 25.858663968908004  0.9953402405712916 25.996875000000003  C 0.9953402405712916 26.135086031092  1.0593813269370065 26.265496849360794  1.1687500000000002 26.35  L 9.1375 32.65  C 9.431249999999999 32.88125  9.868749999999999 32.675  9.868749999999999 32.293749999999996  L 9.868749999999999 28  L 24 28  L 24 42.125  L 19.693749999999998 42.125  C 19.318749999999998 42.125  19.10625 42.5625  19.3375 42.85625  L 25.6375 50.825  C 25.818749999999998 51.056250000000006  26.168750000000003 51.056250000000006  26.343750000000004 50.825  L 32.64375 42.85625  C 32.875 42.5625  32.668749999999996 42.125  32.287499999999994 42.125  L 28 42.125  L 28 28  L 42.125 28  L 42.125 32.3  C 42.125 32.675  42.5625 32.887499999999996  42.85625 32.65625  L 50.825 26.356250000000003  C 50.93508301021562 26.269751403484726  50.99935923958712 26.137500848666022  50.99935923958712 25.997499861750768  Z " fill-rule="nonzero" fill="rgba(0, 0, 0, 1)" stroke="none" class="fill" />
    <path d="M 50.99935923958712 25.997499861750768  C 50.99935923958712 25.860305430798523  50.937622626810594 25.730393961992323  50.83125 25.64375  L 42.85625 19.349999999999998  C 42.77660314437986 19.287348426400655  42.67820898107207 19.25328678404826  42.57687368966454 19.25328678404826  C 42.32731001833475 19.25328678404826  42.12499868966454 19.45559811271847  42.12499868966454 19.705161784048258  C 42.12499868966454 19.705524523092794  42.12499912644334 19.70588726200733  42.125 19.70625  L 42.125 24  L 28 24  L 28 9.875  L 32.3 9.875  C 32.675 9.875  32.887499999999996 9.4375  32.65625 9.14375  L 26.356250000000003 1.1687500000000002  C 26.2717468493608 1.0593813269370065  26.141336031092003 0.9953402405712916  26.003125000000008 0.9953402405712916  C 25.864913968908006 0.9953402405712916  25.734503150639217 1.0593813269370065  25.65 1.1687500000000002  L 19.349999999999998 9.143749999999999  C 19.28734842640065 9.223396855620132  19.25328678404826 9.321791018927936  19.25328678404826 9.423126310335464  C 19.25328678404826 9.672689981665254  19.45559811271847 9.875001310335463  19.705161784048258 9.875001310335463  C 19.705524523093683 9.875001310335463  19.70588726200644 9.87500087355666  19.70625 9.875  L 24 9.875  L 24 24  L 9.875 24  L 9.875 19.7  C 9.875 19.325  9.4375 19.1125  9.14375 19.34375  L 1.1687500000000002 25.643750000000004  C 1.0593813269370065 25.72825315063921  0.9953402405712916 25.858663968908004  0.9953402405712916 25.996875000000003  C 0.9953402405712916 26.135086031092  1.0593813269370065 26.265496849360794  1.1687500000000002 26.35  L 9.1375 32.65  C 9.431249999999999 32.88125  9.868749999999999 32.675  9.868749999999999 32.293749999999996  L 9.868749999999999 28  L 24 28  L 24 42.125  L 19.693749999999998 42.125  C 19.318749999999998 42.125  19.10625 42.5625  19.3375 42.85625  L 25.6375 50.825  C 25.818749999999998 51.056250000000006  26.168750000000003 51.056250000000006  26.343750000000004 50.825  L 32.64375 42.85625  C 32.875 42.5625  32.668749999999996 42.125  32.287499999999994 42.125  L 28 42.125  L 28 28  L 42.125 28  L 42.125 32.3  C 42.125 32.675  42.5625 32.887499999999996  42.85625 32.65625  L 50.825 26.356250000000003  C 50.93508301021562 26.269751403484726  50.99935923958712 26.137500848666022  50.99935923958712 25.997499861750768  Z " stroke-width="0" stroke-dasharray="0" stroke="rgba(255, 255, 255, 0)" fill="none" class="stroke" mask="url(#Clip2527)" />
  </g>
</svg>