<?xml version="1.0" encoding="utf-8"?>
<svg version="1.1" xmlns:xlink="http://www.w3.org/1999/xlink" width="28px" height="28px" xmlns="http://www.w3.org/2000/svg">
  <defs>
    <pattern id="BGPattern" patternUnits="userSpaceOnUse" alignment="0 0" imageRepeat="None" />
    <mask fill="white" id="Clip4270">
      <path d="M 26.89 16.490000000000002  L 25 14.760000000000003  C 25 14.510000000000002  25 14.260000000000002  25 14  C 25 13.739999999999998  25 13.49  25 13.23  L 26.92 11.55  C 27.65072072439799 10.905941302743123  27.81118712219396 9.829127317533324  27.3 9  L 24.94 5  C 24.58310099348582 4.381831920400527  23.923798388513685 4.000732148740332  23.21 4  C 22.992650071925645 3.9983348691797973  22.776482112758643 4.032111112799641  22.57 4.1  L 20.14 4.92  C 19.720460039906857 4.641207380734123  19.282825767936853 4.390653408232209  18.830000000000002 4.17  L 18.32 1.65  C 18.131263034365862 0.6997684530129775  17.288616061120543 0.021437639550495824  16.32 0.040000000000000036  L 11.64 0.040000000000000036  C 10.671383938879458 0.021437639550496712  9.828736965634139 0.6997684530129771  9.64 1.6500000000000004  L 9.13 4.17  C 8.673933085224398 4.390600033549572  8.232969074220957 4.641147767074254  7.810000000000001 4.92  L 5.43 4.06  C 5.221297131841503 4.005623569868816  5.005172977508288 3.985361930400078  4.79 4  C 4.076201611486315 4.000732148740332  3.41689900651418 4.381831920400526  3.0599999999999996 5  L 0.7000000000000002 9  C 0.21860047649545944 9.827013556076786  0.3904642436462873 10.879155154975757  1.1100000000000003 11.51  L 3 13.24  C 3 13.49  3 13.74  3 14  C 3 14.259999999999998  3 14.510000000000002  3 14.77  L 1.1099999999999999 16.45  C 0.3692506767469075 17.085991052800356  0.19594560881946954 18.163864036251493  0.7000000000000002 19  L 3.0599999999999996 23  C 3.41689900651418 23.618168079599474  4.076201611486314 23.999267851259667  4.789999999999999 24  C 5.007349928074352 24.001665130820204  5.223517887241359 23.967888887200356  5.429999999999999 23.9  L 7.859999999999999 23.080000000000002  C 8.279539960093166 23.358792619265895  8.71717423206313 23.609346591767782  9.17 23.83  L 9.68 26.349999999999998  C 9.868736965634138 27.30023154698702  10.711383938879456 27.9785623604495  11.68 27.959999999999997  L 16.4 27.959999999999997  C 17.36861606112054 27.9785623604495  18.21126303436586 27.30023154698702  18.4 26.349999999999998  L 18.909999999999997 23.829999999999995  C 19.366066914775576 23.609399966450432  19.807030925779063 23.358852232925727  20.23 23.08  L 22.65 23.9  C 22.856482112758638 23.967888887200356  23.072650071925647 24.001665130820204  23.29 24  C 24.003798388513683 23.999267851259667  24.66310099348582 23.618168079599474  25.02 23  L 27.3 19  C 27.78139952350454 18.172986443923214  27.60953575635371 17.120844845024244  26.89 16.490000000000002  Z M 25.57 18  L 23.21 22  L 19.780000000000005 20.84  C 18.977064627697768 21.520108094167064  18.059396889085765 22.051745861554828  17.07 22.41  L 16.36 26  L 11.64 26  L 10.93 22.45  C 9.948421633060077 22.081577790312824  9.035717872253912 21.550857455325538  8.23 20.88  L 4.79 22  L 2.4299999999999997 18  L 5.15 15.600000000000001  C 4.96509689882292 14.564858956640688  4.96509689882292 13.505141043359318  5.15 12.470000000000002  L 2.4299999999999997 10  L 4.79 6  L 8.22 7.16  C 9.022935372302236 6.479891905832938  9.940603110914235 5.948254138445176  10.93 5.59  L 11.64 2  L 16.36 2  L 17.07 5.55  C 18.051578366939925 5.918422209687174  18.96428212774609 6.449142544674464  19.77 7.12  L 23.21 6  L 25.57 10  L 22.850000000000005 12.4  C 23.034903101177083 13.435141043359316  23.034903101177083 14.494858956640687  22.85 15.530000000000001  L 25.57 18  Z " fill-rule="evenodd" />
    </mask>
  </defs>
  <g transform="matrix(1 0 0 1 -2 -2 )">
    <path d="M 26.89 16.490000000000002  L 25 14.760000000000003  C 25 14.510000000000002  25 14.260000000000002  25 14  C 25 13.739999999999998  25 13.49  25 13.23  L 26.92 11.55  C 27.65072072439799 10.905941302743123  27.81118712219396 9.829127317533324  27.3 9  L 24.94 5  C 24.58310099348582 4.381831920400527  23.923798388513685 4.000732148740332  23.21 4  C 22.992650071925645 3.9983348691797973  22.776482112758643 4.032111112799641  22.57 4.1  L 20.14 4.92  C 19.720460039906857 4.641207380734123  19.282825767936853 4.390653408232209  18.830000000000002 4.17  L 18.32 1.65  C 18.131263034365862 0.6997684530129775  17.288616061120543 0.021437639550495824  16.32 0.040000000000000036  L 11.64 0.040000000000000036  C 10.671383938879458 0.021437639550496712  9.828736965634139 0.6997684530129771  9.64 1.6500000000000004  L 9.13 4.17  C 8.673933085224398 4.390600033549572  8.232969074220957 4.641147767074254  7.810000000000001 4.92  L 5.43 4.06  C 5.221297131841503 4.005623569868816  5.005172977508288 3.985361930400078  4.79 4  C 4.076201611486315 4.000732148740332  3.41689900651418 4.381831920400526  3.0599999999999996 5  L 0.7000000000000002 9  C 0.21860047649545944 9.827013556076786  0.3904642436462873 10.879155154975757  1.1100000000000003 11.51  L 3 13.24  C 3 13.49  3 13.74  3 14  C 3 14.259999999999998  3 14.510000000000002  3 14.77  L 1.1099999999999999 16.45  C 0.3692506767469075 17.085991052800356  0.19594560881946954 18.163864036251493  0.7000000000000002 19  L 3.0599999999999996 23  C 3.41689900651418 23.618168079599474  4.076201611486314 23.999267851259667  4.789999999999999 24  C 5.007349928074352 24.001665130820204  5.223517887241359 23.967888887200356  5.429999999999999 23.9  L 7.859999999999999 23.080000000000002  C 8.279539960093166 23.358792619265895  8.71717423206313 23.609346591767782  9.17 23.83  L 9.68 26.349999999999998  C 9.868736965634138 27.30023154698702  10.711383938879456 27.9785623604495  11.68 27.959999999999997  L 16.4 27.959999999999997  C 17.36861606112054 27.9785623604495  18.21126303436586 27.30023154698702  18.4 26.349999999999998  L 18.909999999999997 23.829999999999995  C 19.366066914775576 23.609399966450432  19.807030925779063 23.358852232925727  20.23 23.08  L 22.65 23.9  C 22.856482112758638 23.967888887200356  23.072650071925647 24.001665130820204  23.29 24  C 24.003798388513683 23.999267851259667  24.66310099348582 23.618168079599474  25.02 23  L 27.3 19  C 27.78139952350454 18.172986443923214  27.60953575635371 17.120844845024244  26.89 16.490000000000002  Z M 25.57 18  L 23.21 22  L 19.780000000000005 20.84  C 18.977064627697768 21.520108094167064  18.059396889085765 22.051745861554828  17.07 22.41  L 16.36 26  L 11.64 26  L 10.93 22.45  C 9.948421633060077 22.081577790312824  9.035717872253912 21.550857455325538  8.23 20.88  L 4.79 22  L 2.4299999999999997 18  L 5.15 15.600000000000001  C 4.96509689882292 14.564858956640688  4.96509689882292 13.505141043359318  5.15 12.470000000000002  L 2.4299999999999997 10  L 4.79 6  L 8.22 7.16  C 9.022935372302236 6.479891905832938  9.940603110914235 5.948254138445176  10.93 5.59  L 11.64 2  L 16.36 2  L 17.07 5.55  C 18.051578366939925 5.918422209687174  18.96428212774609 6.449142544674464  19.77 7.12  L 23.21 6  L 25.57 10  L 22.850000000000005 12.4  C 23.034903101177083 13.435141043359316  23.034903101177083 14.494858956640687  22.85 15.530000000000001  L 25.57 18  Z " fill-rule="nonzero" fill="rgba(0, 0, 0, 1)" stroke="none" transform="matrix(1 0 0 1 2 2 )" class="fill" />
    <path d="M 26.89 16.490000000000002  L 25 14.760000000000003  C 25 14.510000000000002  25 14.260000000000002  25 14  C 25 13.739999999999998  25 13.49  25 13.23  L 26.92 11.55  C 27.65072072439799 10.905941302743123  27.81118712219396 9.829127317533324  27.3 9  L 24.94 5  C 24.58310099348582 4.381831920400527  23.923798388513685 4.000732148740332  23.21 4  C 22.992650071925645 3.9983348691797973  22.776482112758643 4.032111112799641  22.57 4.1  L 20.14 4.92  C 19.720460039906857 4.641207380734123  19.282825767936853 4.390653408232209  18.830000000000002 4.17  L 18.32 1.65  C 18.131263034365862 0.6997684530129775  17.288616061120543 0.021437639550495824  16.32 0.040000000000000036  L 11.64 0.040000000000000036  C 10.671383938879458 0.021437639550496712  9.828736965634139 0.6997684530129771  9.64 1.6500000000000004  L 9.13 4.17  C 8.673933085224398 4.390600033549572  8.232969074220957 4.641147767074254  7.810000000000001 4.92  L 5.43 4.06  C 5.221297131841503 4.005623569868816  5.005172977508288 3.985361930400078  4.79 4  C 4.076201611486315 4.000732148740332  3.41689900651418 4.381831920400526  3.0599999999999996 5  L 0.7000000000000002 9  C 0.21860047649545944 9.827013556076786  0.3904642436462873 10.879155154975757  1.1100000000000003 11.51  L 3 13.24  C 3 13.49  3 13.74  3 14  C 3 14.259999999999998  3 14.510000000000002  3 14.77  L 1.1099999999999999 16.45  C 0.3692506767469075 17.085991052800356  0.19594560881946954 18.163864036251493  0.7000000000000002 19  L 3.0599999999999996 23  C 3.41689900651418 23.618168079599474  4.076201611486314 23.999267851259667  4.789999999999999 24  C 5.007349928074352 24.001665130820204  5.223517887241359 23.967888887200356  5.429999999999999 23.9  L 7.859999999999999 23.080000000000002  C 8.279539960093166 23.358792619265895  8.71717423206313 23.609346591767782  9.17 23.83  L 9.68 26.349999999999998  C 9.868736965634138 27.30023154698702  10.711383938879456 27.9785623604495  11.68 27.959999999999997  L 16.4 27.959999999999997  C 17.36861606112054 27.9785623604495  18.21126303436586 27.30023154698702  18.4 26.349999999999998  L 18.909999999999997 23.829999999999995  C 19.366066914775576 23.609399966450432  19.807030925779063 23.358852232925727  20.23 23.08  L 22.65 23.9  C 22.856482112758638 23.967888887200356  23.072650071925647 24.001665130820204  23.29 24  C 24.003798388513683 23.999267851259667  24.66310099348582 23.618168079599474  25.02 23  L 27.3 19  C 27.78139952350454 18.172986443923214  27.60953575635371 17.120844845024244  26.89 16.490000000000002  Z " stroke-width="0" stroke-dasharray="0" stroke="rgba(255, 255, 255, 0)" fill="none" transform="matrix(1 0 0 1 2 2 )" class="stroke" mask="url(#Clip4270)" />
    <path d="M 25.57 18  L 23.21 22  L 19.780000000000005 20.84  C 18.977064627697768 21.520108094167064  18.059396889085765 22.051745861554828  17.07 22.41  L 16.36 26  L 11.64 26  L 10.93 22.45  C 9.948421633060077 22.081577790312824  9.035717872253912 21.550857455325538  8.23 20.88  L 4.79 22  L 2.4299999999999997 18  L 5.15 15.600000000000001  C 4.96509689882292 14.564858956640688  4.96509689882292 13.505141043359318  5.15 12.470000000000002  L 2.4299999999999997 10  L 4.79 6  L 8.22 7.16  C 9.022935372302236 6.479891905832938  9.940603110914235 5.948254138445176  10.93 5.59  L 11.64 2  L 16.36 2  L 17.07 5.55  C 18.051578366939925 5.918422209687174  18.96428212774609 6.449142544674464  19.77 7.12  L 23.21 6  L 25.57 10  L 22.850000000000005 12.4  C 23.034903101177083 13.435141043359316  23.034903101177083 14.494858956640687  22.85 15.530000000000001  L 25.57 18  Z " stroke-width="0" stroke-dasharray="0" stroke="rgba(255, 255, 255, 0)" fill="none" transform="matrix(1 0 0 1 2 2 )" class="stroke" mask="url(#Clip4270)" />
  </g>
</svg>