<?xml version="1.0" encoding="utf-8"?>
<svg version="1.1" xmlns:xlink="http://www.w3.org/1999/xlink" width="48px" height="48px" xmlns="http://www.w3.org/2000/svg">
  <defs>
    <pattern id="BGPattern" patternUnits="userSpaceOnUse" alignment="0 0" imageRepeat="None" />
    <mask fill="white" id="Clip6808">
      <path d="M 24 48  L 24 24  L 0 24  L 0 48  L 24 48  Z M 48 24  L 48 0  L 24 0  L 24 24  L 48 24  Z " fill-rule="evenodd" />
    </mask>
  </defs>
  <g>
    <path d="M 24 48  L 24 24  L 0 24  L 0 48  L 24 48  Z M 48 24  L 48 0  L 24 0  L 24 24  L 48 24  Z " fill-rule="nonzero" fill="rgba(51, 153, 255, 1)" stroke="none" class="fill" />
    <path d="M 24 48  L 24 24  L 0 24  L 0 48  L 24 48  Z " stroke-width="0" stroke-dasharray="0" stroke="rgba(255, 255, 255, 0)" fill="none" class="stroke" mask="url(#Clip6808)" />
    <path d="M 48 24  L 48 0  L 24 0  L 24 24  L 48 24  Z " stroke-width="0" stroke-dasharray="0" stroke="rgba(255, 255, 255, 0)" fill="none" class="stroke" mask="url(#Clip6808)" />
  </g>
</svg>