<?xml version="1.0" encoding="utf-8"?>
<svg version="1.1" xmlns:xlink="http://www.w3.org/1999/xlink" width="64px" height="51px" xmlns="http://www.w3.org/2000/svg">
  <defs>
    <pattern id="BGPattern" patternUnits="userSpaceOnUse" alignment="0 0" imageRepeat="None" />
    <mask fill="white" id="Clip1718">
      <path d="M 22.4375 21.515625  C 22.4375 21.955726910021415  22.79427308997859 22.3125  23.234375 22.3125  L 28.8125 22.3125  L 28.8125 27.890625  C 28.8125 28.330726910021415  29.16927308997859 28.6875  29.609375 28.6875  L 34.390625 28.6875  C 34.83072691002142 28.6875  35.1875 28.330726910021415  35.1875 27.890625  L 35.1875 22.3125  L 40.765625 22.3125  C 41.20572691002142 22.3125  41.5625 21.955726910021415  41.5625 21.515625  L 41.5625 16.734375  C 41.5625 16.294273089978585  41.20572691002142 15.9375  40.765625 15.9375  L 35.1875 15.9375  L 35.1875 10.359375  C 35.1875 9.919273089978587  34.83072691002142 9.5625  34.390625 9.5625  L 29.609375 9.5625  C 29.16927308997859 9.5625  28.8125 9.919273089978587  28.8125 10.359375  L 28.8125 15.9375  L 23.234375 15.9375  C 22.79427308997859 15.9375  22.4375 16.294273089978585  22.4375 16.734375  L 22.4375 21.515625  Z M 57 38  L 57 4.78125  C 57.49234094839475 2.1438175373606883  55.35618246263931 0.007659051605247221  52.71875 0  L 11.281250000000002 0  C 8.643817537360684 0.007659051605254251  6.507659051605256 2.1438175373606834  7 4.78125  L 7 38  L 57 38  Z M 51 7  L 51 31  L 13 31  L 13 7  L 51 7  Z M 63.875 43.03125  C 63.875 42.15104617995717  63.16145382004283 41.4375  62.28125 41  L 38.1299609375 41  C 38.05625 43.41076171875  36.66470703125 44.625  34.86875 44.625  L 28.8125 44.625  C 26.950800781250003 44.625  25.525390625 42.88482421875  25.54830078125 41  L 1.7187500000000018 41  C 0.8385461799571747 41.4375  0.12500000000000178 42.15104617995717  0.12500000000000178 43.03125  L 0.12500000000000178 44.62500000000001  C 0.1353933981555178 48.14150119638524  2.9834988036147676 50.98960660184448  6.500000000000002 51  L 57.5 51  C 61.016501196385235 50.989606601844486  63.864606601844486 48.14150119638524  63.875 44.625  L 63.875 43.03125  Z " fill-rule="evenodd" />
    </mask>
  </defs>
  <g>
    <path d="M 22.4375 21.515625  C 22.4375 21.955726910021415  22.79427308997859 22.3125  23.234375 22.3125  L 28.8125 22.3125  L 28.8125 27.890625  C 28.8125 28.330726910021415  29.16927308997859 28.6875  29.609375 28.6875  L 34.390625 28.6875  C 34.83072691002142 28.6875  35.1875 28.330726910021415  35.1875 27.890625  L 35.1875 22.3125  L 40.765625 22.3125  C 41.20572691002142 22.3125  41.5625 21.955726910021415  41.5625 21.515625  L 41.5625 16.734375  C 41.5625 16.294273089978585  41.20572691002142 15.9375  40.765625 15.9375  L 35.1875 15.9375  L 35.1875 10.359375  C 35.1875 9.919273089978587  34.83072691002142 9.5625  34.390625 9.5625  L 29.609375 9.5625  C 29.16927308997859 9.5625  28.8125 9.919273089978587  28.8125 10.359375  L 28.8125 15.9375  L 23.234375 15.9375  C 22.79427308997859 15.9375  22.4375 16.294273089978585  22.4375 16.734375  L 22.4375 21.515625  Z M 57 38  L 57 4.78125  C 57.49234094839475 2.1438175373606883  55.35618246263931 0.007659051605247221  52.71875 0  L 11.281250000000002 0  C 8.643817537360684 0.007659051605254251  6.507659051605256 2.1438175373606834  7 4.78125  L 7 38  L 57 38  Z M 51 7  L 51 31  L 13 31  L 13 7  L 51 7  Z M 63.875 43.03125  C 63.875 42.15104617995717  63.16145382004283 41.4375  62.28125 41  L 38.1299609375 41  C 38.05625 43.41076171875  36.66470703125 44.625  34.86875 44.625  L 28.8125 44.625  C 26.950800781250003 44.625  25.525390625 42.88482421875  25.54830078125 41  L 1.7187500000000018 41  C 0.8385461799571747 41.4375  0.12500000000000178 42.15104617995717  0.12500000000000178 43.03125  L 0.12500000000000178 44.62500000000001  C 0.1353933981555178 48.14150119638524  2.9834988036147676 50.98960660184448  6.500000000000002 51  L 57.5 51  C 61.016501196385235 50.989606601844486  63.864606601844486 48.14150119638524  63.875 44.625  L 63.875 43.03125  Z " fill-rule="nonzero" fill="rgba(0, 0, 0, 1)" stroke="none" class="fill" />
    <path d="M 22.4375 21.515625  C 22.4375 21.955726910021415  22.79427308997859 22.3125  23.234375 22.3125  L 28.8125 22.3125  L 28.8125 27.890625  C 28.8125 28.330726910021415  29.16927308997859 28.6875  29.609375 28.6875  L 34.390625 28.6875  C 34.83072691002142 28.6875  35.1875 28.330726910021415  35.1875 27.890625  L 35.1875 22.3125  L 40.765625 22.3125  C 41.20572691002142 22.3125  41.5625 21.955726910021415  41.5625 21.515625  L 41.5625 16.734375  C 41.5625 16.294273089978585  41.20572691002142 15.9375  40.765625 15.9375  L 35.1875 15.9375  L 35.1875 10.359375  C 35.1875 9.919273089978587  34.83072691002142 9.5625  34.390625 9.5625  L 29.609375 9.5625  C 29.16927308997859 9.5625  28.8125 9.919273089978587  28.8125 10.359375  L 28.8125 15.9375  L 23.234375 15.9375  C 22.79427308997859 15.9375  22.4375 16.294273089978585  22.4375 16.734375  L 22.4375 21.515625  Z " stroke-width="0" stroke-dasharray="0" stroke="rgba(255, 255, 255, 0)" fill="none" class="stroke" mask="url(#Clip1718)" />
    <path d="M 57 38  L 57 4.78125  C 57.49234094839475 2.1438175373606883  55.35618246263931 0.007659051605247221  52.71875 0  L 11.281250000000002 0  C 8.643817537360684 0.007659051605254251  6.507659051605256 2.1438175373606834  7 4.78125  L 7 38  L 57 38  Z " stroke-width="0" stroke-dasharray="0" stroke="rgba(255, 255, 255, 0)" fill="none" class="stroke" mask="url(#Clip1718)" />
    <path d="M 51 7  L 51 31  L 13 31  L 13 7  L 51 7  Z " stroke-width="0" stroke-dasharray="0" stroke="rgba(255, 255, 255, 0)" fill="none" class="stroke" mask="url(#Clip1718)" />
    <path d="M 63.875 43.03125  C 63.875 42.15104617995717  63.16145382004283 41.4375  62.28125 41  L 38.1299609375 41  C 38.05625 43.41076171875  36.66470703125 44.625  34.86875 44.625  L 28.8125 44.625  C 26.950800781250003 44.625  25.525390625 42.88482421875  25.54830078125 41  L 1.7187500000000018 41  C 0.8385461799571747 41.4375  0.12500000000000178 42.15104617995717  0.12500000000000178 43.03125  L 0.12500000000000178 44.62500000000001  C 0.1353933981555178 48.14150119638524  2.9834988036147676 50.98960660184448  6.500000000000002 51  L 57.5 51  C 61.016501196385235 50.989606601844486  63.864606601844486 48.14150119638524  63.875 44.625  L 63.875 43.03125  Z " stroke-width="0" stroke-dasharray="0" stroke="rgba(255, 255, 255, 0)" fill="none" class="stroke" mask="url(#Clip1718)" />
  </g>
</svg>