<?xml version="1.0" encoding="utf-8"?>
<svg version="1.1" xmlns:xlink="http://www.w3.org/1999/xlink" width="50px" height="24px" xmlns="http://www.w3.org/2000/svg">
  <defs>
    <pattern id="BGPattern" patternUnits="userSpaceOnUse" alignment="0 0" imageRepeat="None" />
    <mask fill="white" id="Clip7223">
      <path d="M 44.02200000000002 4.214000000000002  L 44.02000000000001 4.213999999999999  C 43.49625232202278 4.192738723282993  42.985961542633156 4.383016641021495  42.604000000000006 4.741999999999997  C 42.20680912698909 5.117170259777421  41.981721839547205 5.639401755161689  41.981721839547205 6.18576547414807  C 41.981721839547205 7.250038874557909  42.82067269585145 8.125134477913665  43.88400000000001 8.169999999999998  C 44.975842701519596 8.207117359533296  45.891842108746495 7.353735099284794  45.932000000000016 6.2620000000000005  C 45.96798909012776 5.169821862580029  45.11403251173367 4.254165803652757  44.02200000000002 4.214000000000002  Z M 45.224000000000004 5.7940000000000005  C 45.224000000000004 6.114000000000001  44.830000000000005 6.378  44.344 6.378  C 43.86 6.378  43.468 6.116  43.468 5.7940000000000005  C 43.468 5.468  43.86000000000001 5.208000000000002  44.344 5.208000000000002  C 44.83 5.208000000000002  45.224000000000004 5.4680000000000035  45.224000000000004 5.7940000000000005  Z M 48.95600000000002 8.735999999999994  L 48.956 8.738  C 48.970000000000006 8.725999999999999  49.004000000000005 8.698  49 8.669999999999998  C 48.89 7.983999999999998  47.87 4.661999999999999  47.096000000000004 3.8619999999999983  C 46.884 3.6439999999999984  46.714000000000006 3.429999999999998  46.368 3.227999999999998  C 43.572 1.5999999999999979  36.942 0.6159999999999979  36.63 0.5719999999999974  C 36.63 0.5719999999999974  36.6 0.5639999999999983  36.578 0.5859999999999967  C 36.56 0.6019999999999968  36.558 0.6339999999999968  36.558 0.6339999999999968  L 36.528 2.1619999999999973  C 35.85 1.9339999999999975  30.928 0.341999999999997  26.311999999999998 0.18199999999999683  C 22.4 0.04800000000000004  16.7 -0.46000000000000085  9.144 4.186  L 8.922 4.3260000000000005  C 5.368 6.539999999999999  2.9139999999999997 9.274000000000001  1.6320000000000001 12.448  C 1.23 13.448  0.6880000000000001 15.704  1.224 17.824  C 1.456 18.752000000000002  1.8860000000000001 19.684  2.466 20.518  C 3.778 22.404000000000003  5.9799999999999995 23.654000000000003  8.352 23.866  C 11.7 24.165999999999997  14.234 22.662  15.136 19.846  C 15.755999999999998 17.904  15.136 15.052  12.76 13.597999999999999  C 10.826 12.416  8.748000000000001 12.683999999999997  7.542 13.482  C 6.495999999999999 14.175999999999998  5.904 15.253999999999998  5.914 16.436  C 5.938 18.536  7.747999999999999 19.652  9.048 19.656  C 9.426 19.656  9.804 19.59  10.232 19.450000000000006  C 10.39165960920756 19.404110676199394  10.544377688385504 19.336833989336867  10.686 19.25  L 10.736 19.22  L 10.766 19.2  L 10.755999999999998 19.205999999999992  C 11.138334426930726 18.9489167795063  11.313175929603938 18.4759584289571  11.19 18.032  C 11.038349773691985 17.501976384175315  10.50758844147545 17.1750204654733  9.966 17.278  L 9.894 17.293999999999997  L 9.794 17.323999999999998  L 9.65 17.374  C 9.35 17.448  9.126000000000001 17.453999999999997  9.078000000000001 17.456  C 8.926000000000002 17.445999999999998  8.178 17.221999999999998  8.178 16.402  L 8.178 16.392  C 8.178 16.09  8.298000000000002 15.878  8.364 15.764  C 8.598 15.398  9.234 15.04  10.096 15.114  C 11.225999999999999 15.214000000000002  12.042 15.794  12.582 16.886  C 13.082000000000003 17.902  12.952 19.154  12.242 20.07  C 11.542000000000002 20.978  10.290000000000001 21.363999999999997  8.624000000000002 21.183999999999997  C 6.962526510530741 21.0111534161352  5.499653327850825 20.013603203691083  4.732000000000001 18.529999999999998  C 3.9540000000000006 17.06  3.912000000000001 15.315999999999999  4.622000000000001 13.977999999999998  C 6.322000000000001 10.769999999999996  9.532 10.803999999999998  11.290000000000001 11.107999999999997  C 13.894 11.559999999999999  16.858 13.961999999999996  17.908 16.735999999999997  C 18.078000000000003 17.176  18.164 17.528  18.240000000000002 17.848  L 18.354000000000003 18.328  L 21.294000000000004 19.764  C 21.358000000000004 19.794  21.380000000000003 19.804  21.404000000000003 19.785999999999998  C 21.436000000000003 19.764  21.418000000000003 19.701999999999998  21.418000000000003 19.701999999999998  C 21.398000000000003 19.636  21.358000000000004 19.575999999999997  21.288000000000004 18.752  C 21.234000000000005 18.022  21.120000000000005 16.022  22.128000000000004 15.032  C 22.518000000000004 14.642  23.112000000000002 14.298000000000002  23.584000000000003 14.186  C 25.512 13.716000000000001  27.772000000000002 14.04  29.910000000000004 16.514  C 31.016000000000005 17.794  31.556000000000004 18.374  31.828 18.636  C 31.828 18.636  31.887999999999998 18.695999999999998  31.922000000000004 18.721999999999998  C 31.958000000000002 18.752  31.982000000000006 18.775999999999996  32.032000000000004 18.804  C 32.122 18.854  35.708000000000006 20.503999999999998  35.708000000000006 20.503999999999998  C 35.708000000000006 20.503999999999998  35.752 20.525999999999996  35.782000000000004 20.488  C 35.814 20.448  35.784000000000006 20.412  35.784000000000006 20.412  C 35.760000000000005 20.384  33.510000000000005 17.476  33.910000000000004 15.082  C 34.226000000000006 13.174  35.74400000000001 13.347999999999999  37.844 13.584  C 38.53 13.663999999999998  39.31 13.754000000000001  40.118 13.771999999999998  C 42.372 13.785999999999998  44.802 13.369999999999997  46.298 12.713999999999999  C 47.268 12.293999999999997  47.886 12.014  48.274 11.661999999999999  C 48.414 11.546  48.486000000000004 11.358  48.56 11.155999999999999  L 48.614000000000004 11.023999999999997  C 48.676 10.859999999999996  48.76800000000001 10.515999999999998  48.80800000000001 10.327999999999996  C 48.82600000000001 10.243999999999996  48.84400000000001 10.161999999999995  48.77600000000001 10.107999999999997  C 48.71200000000001 10.059999999999999  48.56800000000001 10.147999999999996  48.56800000000001 10.147999999999996  C 47.91000000000001 10.543999999999997  46.268000000000015 11.293999999999997  44.73000000000001 11.325999999999997  C 42.82200000000001 11.363999999999997  38.95600000000001 9.393999999999998  38.55600000000001 9.185999999999996  C 38.28800000000001 8.545999999999996  38.02000000000001 7.907999999999998  37.74800000000001 7.271999999999995  C 40.51400000000001 9.093999999999994  42.808000000000014 10.101999999999997  44.564000000000014 10.255999999999993  C 46.518000000000015 10.431999999999992  48.04400000000001 9.363999999999994  48.704000000000015 8.919999999999995  C 48.79000000000001 8.863999999999994  48.87600000000001 8.799999999999994  48.95600000000002 8.735999999999994  Z M 43.846000000000004 9.052000000000003  C 42.282248700966576 8.991241912298005  41.06046548010273 7.68014705248212  41.11 6.116  C 41.138 5.3580000000000005  41.455999999999996 4.655999999999999  42.01 4.140000000000001  C 42.559859150319554 3.626104240685443  43.29188140068489 3.352585602397511  44.04399999999999 3.3799999999999972  C 45.60982595689795 3.437541492712331  46.83460697609121 4.749934584811392  46.784 6.3160000000000025  C 46.754 7.074000000000002  46.436 7.776000000000003  45.884 8.290000000000003  C 45.33 8.810000000000002  44.608 9.078000000000003  43.846000000000004 9.052000000000003  Z " fill-rule="evenodd" />
    </mask>
  </defs>
  <g>
    <path d="M 44.02200000000002 4.214000000000002  L 44.02000000000001 4.213999999999999  C 43.49625232202278 4.192738723282993  42.985961542633156 4.383016641021495  42.604000000000006 4.741999999999997  C 42.20680912698909 5.117170259777421  41.981721839547205 5.639401755161689  41.981721839547205 6.18576547414807  C 41.981721839547205 7.250038874557909  42.82067269585145 8.125134477913665  43.88400000000001 8.169999999999998  C 44.975842701519596 8.207117359533296  45.891842108746495 7.353735099284794  45.932000000000016 6.2620000000000005  C 45.96798909012776 5.169821862580029  45.11403251173367 4.254165803652757  44.02200000000002 4.214000000000002  Z M 45.224000000000004 5.7940000000000005  C 45.224000000000004 6.114000000000001  44.830000000000005 6.378  44.344 6.378  C 43.86 6.378  43.468 6.116  43.468 5.7940000000000005  C 43.468 5.468  43.86000000000001 5.208000000000002  44.344 5.208000000000002  C 44.83 5.208000000000002  45.224000000000004 5.4680000000000035  45.224000000000004 5.7940000000000005  Z M 48.95600000000002 8.735999999999994  L 48.956 8.738  C 48.970000000000006 8.725999999999999  49.004000000000005 8.698  49 8.669999999999998  C 48.89 7.983999999999998  47.87 4.661999999999999  47.096000000000004 3.8619999999999983  C 46.884 3.6439999999999984  46.714000000000006 3.429999999999998  46.368 3.227999999999998  C 43.572 1.5999999999999979  36.942 0.6159999999999979  36.63 0.5719999999999974  C 36.63 0.5719999999999974  36.6 0.5639999999999983  36.578 0.5859999999999967  C 36.56 0.6019999999999968  36.558 0.6339999999999968  36.558 0.6339999999999968  L 36.528 2.1619999999999973  C 35.85 1.9339999999999975  30.928 0.341999999999997  26.311999999999998 0.18199999999999683  C 22.4 0.04800000000000004  16.7 -0.46000000000000085  9.144 4.186  L 8.922 4.3260000000000005  C 5.368 6.539999999999999  2.9139999999999997 9.274000000000001  1.6320000000000001 12.448  C 1.23 13.448  0.6880000000000001 15.704  1.224 17.824  C 1.456 18.752000000000002  1.8860000000000001 19.684  2.466 20.518  C 3.778 22.404000000000003  5.9799999999999995 23.654000000000003  8.352 23.866  C 11.7 24.165999999999997  14.234 22.662  15.136 19.846  C 15.755999999999998 17.904  15.136 15.052  12.76 13.597999999999999  C 10.826 12.416  8.748000000000001 12.683999999999997  7.542 13.482  C 6.495999999999999 14.175999999999998  5.904 15.253999999999998  5.914 16.436  C 5.938 18.536  7.747999999999999 19.652  9.048 19.656  C 9.426 19.656  9.804 19.59  10.232 19.450000000000006  C 10.39165960920756 19.404110676199394  10.544377688385504 19.336833989336867  10.686 19.25  L 10.736 19.22  L 10.766 19.2  L 10.755999999999998 19.205999999999992  C 11.138334426930726 18.9489167795063  11.313175929603938 18.4759584289571  11.19 18.032  C 11.038349773691985 17.501976384175315  10.50758844147545 17.1750204654733  9.966 17.278  L 9.894 17.293999999999997  L 9.794 17.323999999999998  L 9.65 17.374  C 9.35 17.448  9.126000000000001 17.453999999999997  9.078000000000001 17.456  C 8.926000000000002 17.445999999999998  8.178 17.221999999999998  8.178 16.402  L 8.178 16.392  C 8.178 16.09  8.298000000000002 15.878  8.364 15.764  C 8.598 15.398  9.234 15.04  10.096 15.114  C 11.225999999999999 15.214000000000002  12.042 15.794  12.582 16.886  C 13.082000000000003 17.902  12.952 19.154  12.242 20.07  C 11.542000000000002 20.978  10.290000000000001 21.363999999999997  8.624000000000002 21.183999999999997  C 6.962526510530741 21.0111534161352  5.499653327850825 20.013603203691083  4.732000000000001 18.529999999999998  C 3.9540000000000006 17.06  3.912000000000001 15.315999999999999  4.622000000000001 13.977999999999998  C 6.322000000000001 10.769999999999996  9.532 10.803999999999998  11.290000000000001 11.107999999999997  C 13.894 11.559999999999999  16.858 13.961999999999996  17.908 16.735999999999997  C 18.078000000000003 17.176  18.164 17.528  18.240000000000002 17.848  L 18.354000000000003 18.328  L 21.294000000000004 19.764  C 21.358000000000004 19.794  21.380000000000003 19.804  21.404000000000003 19.785999999999998  C 21.436000000000003 19.764  21.418000000000003 19.701999999999998  21.418000000000003 19.701999999999998  C 21.398000000000003 19.636  21.358000000000004 19.575999999999997  21.288000000000004 18.752  C 21.234000000000005 18.022  21.120000000000005 16.022  22.128000000000004 15.032  C 22.518000000000004 14.642  23.112000000000002 14.298000000000002  23.584000000000003 14.186  C 25.512 13.716000000000001  27.772000000000002 14.04  29.910000000000004 16.514  C 31.016000000000005 17.794  31.556000000000004 18.374  31.828 18.636  C 31.828 18.636  31.887999999999998 18.695999999999998  31.922000000000004 18.721999999999998  C 31.958000000000002 18.752  31.982000000000006 18.775999999999996  32.032000000000004 18.804  C 32.122 18.854  35.708000000000006 20.503999999999998  35.708000000000006 20.503999999999998  C 35.708000000000006 20.503999999999998  35.752 20.525999999999996  35.782000000000004 20.488  C 35.814 20.448  35.784000000000006 20.412  35.784000000000006 20.412  C 35.760000000000005 20.384  33.510000000000005 17.476  33.910000000000004 15.082  C 34.226000000000006 13.174  35.74400000000001 13.347999999999999  37.844 13.584  C 38.53 13.663999999999998  39.31 13.754000000000001  40.118 13.771999999999998  C 42.372 13.785999999999998  44.802 13.369999999999997  46.298 12.713999999999999  C 47.268 12.293999999999997  47.886 12.014  48.274 11.661999999999999  C 48.414 11.546  48.486000000000004 11.358  48.56 11.155999999999999  L 48.614000000000004 11.023999999999997  C 48.676 10.859999999999996  48.76800000000001 10.515999999999998  48.80800000000001 10.327999999999996  C 48.82600000000001 10.243999999999996  48.84400000000001 10.161999999999995  48.77600000000001 10.107999999999997  C 48.71200000000001 10.059999999999999  48.56800000000001 10.147999999999996  48.56800000000001 10.147999999999996  C 47.91000000000001 10.543999999999997  46.268000000000015 11.293999999999997  44.73000000000001 11.325999999999997  C 42.82200000000001 11.363999999999997  38.95600000000001 9.393999999999998  38.55600000000001 9.185999999999996  C 38.28800000000001 8.545999999999996  38.02000000000001 7.907999999999998  37.74800000000001 7.271999999999995  C 40.51400000000001 9.093999999999994  42.808000000000014 10.101999999999997  44.564000000000014 10.255999999999993  C 46.518000000000015 10.431999999999992  48.04400000000001 9.363999999999994  48.704000000000015 8.919999999999995  C 48.79000000000001 8.863999999999994  48.87600000000001 8.799999999999994  48.95600000000002 8.735999999999994  Z M 43.846000000000004 9.052000000000003  C 42.282248700966576 8.991241912298005  41.06046548010273 7.68014705248212  41.11 6.116  C 41.138 5.3580000000000005  41.455999999999996 4.655999999999999  42.01 4.140000000000001  C 42.559859150319554 3.626104240685443  43.29188140068489 3.352585602397511  44.04399999999999 3.3799999999999972  C 45.60982595689795 3.437541492712331  46.83460697609121 4.749934584811392  46.784 6.3160000000000025  C 46.754 7.074000000000002  46.436 7.776000000000003  45.884 8.290000000000003  C 45.33 8.810000000000002  44.608 9.078000000000003  43.846000000000004 9.052000000000003  Z " fill-rule="nonzero" fill="rgba(115, 186, 37, 1)" stroke="none" class="fill" />
    <path d="M 44.02200000000002 4.214000000000002  L 44.02000000000001 4.213999999999999  C 43.49625232202278 4.192738723282993  42.985961542633156 4.383016641021495  42.604000000000006 4.741999999999997  C 42.20680912698909 5.117170259777421  41.981721839547205 5.639401755161689  41.981721839547205 6.18576547414807  C 41.981721839547205 7.250038874557909  42.82067269585145 8.125134477913665  43.88400000000001 8.169999999999998  C 44.975842701519596 8.207117359533296  45.891842108746495 7.353735099284794  45.932000000000016 6.2620000000000005  C 45.96798909012776 5.169821862580029  45.11403251173367 4.254165803652757  44.02200000000002 4.214000000000002  Z " stroke-width="0" stroke-dasharray="0" stroke="rgba(255, 255, 255, 0)" fill="none" class="stroke" mask="url(#Clip7223)" />
    <path d="M 45.224000000000004 5.7940000000000005  C 45.224000000000004 6.114000000000001  44.830000000000005 6.378  44.344 6.378  C 43.86 6.378  43.468 6.116  43.468 5.7940000000000005  C 43.468 5.468  43.86000000000001 5.208000000000002  44.344 5.208000000000002  C 44.83 5.208000000000002  45.224000000000004 5.4680000000000035  45.224000000000004 5.7940000000000005  Z " stroke-width="0" stroke-dasharray="0" stroke="rgba(255, 255, 255, 0)" fill="none" class="stroke" mask="url(#Clip7223)" />
    <path d="M 48.95600000000002 8.735999999999994  L 48.956 8.738  C 48.970000000000006 8.725999999999999  49.004000000000005 8.698  49 8.669999999999998  C 48.89 7.983999999999998  47.87 4.661999999999999  47.096000000000004 3.8619999999999983  C 46.884 3.6439999999999984  46.714000000000006 3.429999999999998  46.368 3.227999999999998  C 43.572 1.5999999999999979  36.942 0.6159999999999979  36.63 0.5719999999999974  C 36.63 0.5719999999999974  36.6 0.5639999999999983  36.578 0.5859999999999967  C 36.56 0.6019999999999968  36.558 0.6339999999999968  36.558 0.6339999999999968  L 36.528 2.1619999999999973  C 35.85 1.9339999999999975  30.928 0.341999999999997  26.311999999999998 0.18199999999999683  C 22.4 0.04800000000000004  16.7 -0.46000000000000085  9.144 4.186  L 8.922 4.3260000000000005  C 5.368 6.539999999999999  2.9139999999999997 9.274000000000001  1.6320000000000001 12.448  C 1.23 13.448  0.6880000000000001 15.704  1.224 17.824  C 1.456 18.752000000000002  1.8860000000000001 19.684  2.466 20.518  C 3.778 22.404000000000003  5.9799999999999995 23.654000000000003  8.352 23.866  C 11.7 24.165999999999997  14.234 22.662  15.136 19.846  C 15.755999999999998 17.904  15.136 15.052  12.76 13.597999999999999  C 10.826 12.416  8.748000000000001 12.683999999999997  7.542 13.482  C 6.495999999999999 14.175999999999998  5.904 15.253999999999998  5.914 16.436  C 5.938 18.536  7.747999999999999 19.652  9.048 19.656  C 9.426 19.656  9.804 19.59  10.232 19.450000000000006  C 10.39165960920756 19.404110676199394  10.544377688385504 19.336833989336867  10.686 19.25  L 10.736 19.22  L 10.766 19.2  L 10.755999999999998 19.205999999999992  C 11.138334426930726 18.9489167795063  11.313175929603938 18.4759584289571  11.19 18.032  C 11.038349773691985 17.501976384175315  10.50758844147545 17.1750204654733  9.966 17.278  L 9.894 17.293999999999997  L 9.794 17.323999999999998  L 9.65 17.374  C 9.35 17.448  9.126000000000001 17.453999999999997  9.078000000000001 17.456  C 8.926000000000002 17.445999999999998  8.178 17.221999999999998  8.178 16.402  L 8.178 16.392  C 8.178 16.09  8.298000000000002 15.878  8.364 15.764  C 8.598 15.398  9.234 15.04  10.096 15.114  C 11.225999999999999 15.214000000000002  12.042 15.794  12.582 16.886  C 13.082000000000003 17.902  12.952 19.154  12.242 20.07  C 11.542000000000002 20.978  10.290000000000001 21.363999999999997  8.624000000000002 21.183999999999997  C 6.962526510530741 21.0111534161352  5.499653327850825 20.013603203691083  4.732000000000001 18.529999999999998  C 3.9540000000000006 17.06  3.912000000000001 15.315999999999999  4.622000000000001 13.977999999999998  C 6.322000000000001 10.769999999999996  9.532 10.803999999999998  11.290000000000001 11.107999999999997  C 13.894 11.559999999999999  16.858 13.961999999999996  17.908 16.735999999999997  C 18.078000000000003 17.176  18.164 17.528  18.240000000000002 17.848  L 18.354000000000003 18.328  L 21.294000000000004 19.764  C 21.358000000000004 19.794  21.380000000000003 19.804  21.404000000000003 19.785999999999998  C 21.436000000000003 19.764  21.418000000000003 19.701999999999998  21.418000000000003 19.701999999999998  C 21.398000000000003 19.636  21.358000000000004 19.575999999999997  21.288000000000004 18.752  C 21.234000000000005 18.022  21.120000000000005 16.022  22.128000000000004 15.032  C 22.518000000000004 14.642  23.112000000000002 14.298000000000002  23.584000000000003 14.186  C 25.512 13.716000000000001  27.772000000000002 14.04  29.910000000000004 16.514  C 31.016000000000005 17.794  31.556000000000004 18.374  31.828 18.636  C 31.828 18.636  31.887999999999998 18.695999999999998  31.922000000000004 18.721999999999998  C 31.958000000000002 18.752  31.982000000000006 18.775999999999996  32.032000000000004 18.804  C 32.122 18.854  35.708000000000006 20.503999999999998  35.708000000000006 20.503999999999998  C 35.708000000000006 20.503999999999998  35.752 20.525999999999996  35.782000000000004 20.488  C 35.814 20.448  35.784000000000006 20.412  35.784000000000006 20.412  C 35.760000000000005 20.384  33.510000000000005 17.476  33.910000000000004 15.082  C 34.226000000000006 13.174  35.74400000000001 13.347999999999999  37.844 13.584  C 38.53 13.663999999999998  39.31 13.754000000000001  40.118 13.771999999999998  C 42.372 13.785999999999998  44.802 13.369999999999997  46.298 12.713999999999999  C 47.268 12.293999999999997  47.886 12.014  48.274 11.661999999999999  C 48.414 11.546  48.486000000000004 11.358  48.56 11.155999999999999  L 48.614000000000004 11.023999999999997  C 48.676 10.859999999999996  48.76800000000001 10.515999999999998  48.80800000000001 10.327999999999996  C 48.82600000000001 10.243999999999996  48.84400000000001 10.161999999999995  48.77600000000001 10.107999999999997  C 48.71200000000001 10.059999999999999  48.56800000000001 10.147999999999996  48.56800000000001 10.147999999999996  C 47.91000000000001 10.543999999999997  46.268000000000015 11.293999999999997  44.73000000000001 11.325999999999997  C 42.82200000000001 11.363999999999997  38.95600000000001 9.393999999999998  38.55600000000001 9.185999999999996  C 38.28800000000001 8.545999999999996  38.02000000000001 7.907999999999998  37.74800000000001 7.271999999999995  C 40.51400000000001 9.093999999999994  42.808000000000014 10.101999999999997  44.564000000000014 10.255999999999993  C 46.518000000000015 10.431999999999992  48.04400000000001 9.363999999999994  48.704000000000015 8.919999999999995  C 48.79000000000001 8.863999999999994  48.87600000000001 8.799999999999994  48.95600000000002 8.735999999999994  Z " stroke-width="0" stroke-dasharray="0" stroke="rgba(255, 255, 255, 0)" fill="none" class="stroke" mask="url(#Clip7223)" />
    <path d="M 43.846000000000004 9.052000000000003  C 42.282248700966576 8.991241912298005  41.06046548010273 7.68014705248212  41.11 6.116  C 41.138 5.3580000000000005  41.455999999999996 4.655999999999999  42.01 4.140000000000001  C 42.559859150319554 3.626104240685443  43.29188140068489 3.352585602397511  44.04399999999999 3.3799999999999972  C 45.60982595689795 3.437541492712331  46.83460697609121 4.749934584811392  46.784 6.3160000000000025  C 46.754 7.074000000000002  46.436 7.776000000000003  45.884 8.290000000000003  C 45.33 8.810000000000002  44.608 9.078000000000003  43.846000000000004 9.052000000000003  Z " stroke-width="0" stroke-dasharray="0" stroke="rgba(255, 255, 255, 0)" fill="none" class="stroke" mask="url(#Clip7223)" />
  </g>
</svg>