<?xml version="1.0" encoding="utf-8"?>
<svg version="1.1" xmlns:xlink="http://www.w3.org/1999/xlink" width="4px" height="12px" xmlns="http://www.w3.org/2000/svg">
  <defs>
    <pattern id="BGPattern" patternUnits="userSpaceOnUse" alignment="0 0" imageRepeat="None" />
    <mask fill="white" id="Clip4474">
      <path d="M 2.099999999999998 0.7100000000000009  L 2.1000000000000014 0.6600000000000001  L 0.5799999999999983 2  C 2.5308862415849944 4.313355224870595  2.453715798727412 7.717429204254877  0.3999999999999986 9.940000000000001  L 1.8699999999999974 11.3  C 4.607309986282338 8.33351707512417  4.705933863816508 3.7925307138770314  2.099999999999998 0.7100000000000009  Z " fill-rule="evenodd" />
    </mask>
  </defs>
  <g transform="matrix(1 0 0 1 -23 -10 )">
    <path d="M 2.099999999999998 0.7100000000000009  L 2.1000000000000014 0.6600000000000001  L 0.5799999999999983 2  C 2.5308862415849944 4.313355224870595  2.453715798727412 7.717429204254877  0.3999999999999986 9.940000000000001  L 1.8699999999999974 11.3  C 4.607309986282338 8.33351707512417  4.705933863816508 3.7925307138770314  2.099999999999998 0.7100000000000009  Z " fill-rule="nonzero" fill="rgba(0, 0, 0, 1)" stroke="none" transform="matrix(1 0 0 1 23 10 )" class="fill" />
    <path d="M 2.099999999999998 0.7100000000000009  L 2.1000000000000014 0.6600000000000001  L 0.5799999999999983 2  C 2.5308862415849944 4.313355224870595  2.453715798727412 7.717429204254877  0.3999999999999986 9.940000000000001  L 1.8699999999999974 11.3  C 4.607309986282338 8.33351707512417  4.705933863816508 3.7925307138770314  2.099999999999998 0.7100000000000009  Z " stroke-width="0" stroke-dasharray="0" stroke="rgba(255, 255, 255, 0)" fill="none" transform="matrix(1 0 0 1 23 10 )" class="stroke" mask="url(#Clip4474)" />
  </g>
</svg>