<?xml version="1.0" encoding="utf-8"?>
<svg version="1.1" xmlns:xlink="http://www.w3.org/1999/xlink" width="44px" height="50px" xmlns="http://www.w3.org/2000/svg">
  <defs>
    <pattern id="BGPattern" patternUnits="userSpaceOnUse" alignment="0 0" imageRepeat="None" />
    <mask fill="white" id="Clip1081">
      <path d="M 15.625 26.953125  C 15.625 27.597656250000004  15.09765625 28.125  14.453125 28.125  L 10.546875 28.125  C 9.90234375 28.125  9.375 27.597656250000004  9.375 26.953125  L 9.375 23.046875  C 9.375 22.40234375  9.90234375 21.875  10.546875 21.875  L 14.453125 21.875  C 15.09765625 21.875  15.625 22.40234375  15.625 23.046875  L 15.625 26.953125  Z M 23.828125 28.125  C 24.47265625 28.125  25.000000000000004 27.597656250000004  25.000000000000004 26.953125  L 25.000000000000004 23.046875  C 25.000000000000004 22.40234375  24.47265625 21.875  23.828125 21.875  L 19.921875 21.875  C 19.27734375 21.875  18.75 22.40234375  18.75 23.046875  L 18.75 26.953125  C 18.75 27.597656250000004  19.27734375 28.125  19.921875 28.125  L 23.828125 28.125  Z M 33.203125 28.125  C 33.84765625 28.125  34.375 27.597656250000004  34.375 26.953125  L 34.375 23.046875  C 34.375 22.40234375  33.84765625 21.875  33.203125 21.875  L 29.296875000000004 21.875  C 28.652343750000004 21.875  28.125 22.40234375  28.125 23.046875  L 28.125 26.953125  C 28.125 27.597656250000004  28.652343750000004 28.125  29.296875000000004 28.125  L 33.203125 28.125  Z M 23.828125 37.5  C 24.47265625 37.5  25.000000000000004 36.97265625  25.000000000000004 36.328125  L 25.000000000000004 32.421875  C 25.000000000000004 31.777343749999996  24.47265625 31.25  23.828125 31.25  L 19.921875 31.25  C 19.27734375 31.25  18.75 31.777343749999996  18.75 32.421875  L 18.75 36.328125  C 18.75 36.97265625  19.27734375 37.5  19.921875 37.5  L 23.828125 37.5  Z M 14.453125 37.5  C 15.09765625 37.5  15.625 36.97265625  15.625 36.328125  L 15.625 32.421875  C 15.625 31.777343749999996  15.09765625 31.25  14.453125 31.25  L 10.546875 31.25  C 9.90234375 31.25  9.375 31.777343749999996  9.375 32.421875  L 9.375 36.328125  C 9.375 36.97265625  9.90234375 37.5  10.546875 37.5  L 14.453125 37.5  Z M 33.203125 37.5  C 33.84765625 37.5  34.375 36.97265625  34.375 36.328125  L 34.375 32.421875  C 34.375 31.777343749999996  33.84765625 31.25  33.203125 31.25  L 29.296875000000004 31.25  C 28.652343750000004 31.25  28.125 31.777343749999996  28.125 32.421875  L 28.125 36.328125  C 28.125 36.97265625  28.652343750000004 37.5  29.296875000000004 37.5  L 33.203125 37.5  Z M 39.0625 6.25  C 41.650390625 6.25  43.75 8.349609375  43 10.9375  L 43 45.3125  C 43.75 47.900390625  41.650390625 50  39.0625 50  L 4.6875 50  C 2.099609375 50  0 47.900390625  0 45.3125  L 0 10.9375  C 0 8.349609375  2.099609375 6.25  4.6875 6.25  L 9.375 6.25  L 9.375 1.171875  C 9.375 0.52734375  9.90234375 0  10.546875 0  L 14.453125 0  C 15.09765625 0  15.625 0.52734375  15.625 1.171875  L 15.625 7  L 28.125 7  L 28.125 1.171875  C 28.125 0.52734375  28.652343750000004 0  29.296875000000004 0  L 33.203125 0  C 33.84765625 0  34.375 0.52734375  34.375 1.171875  L 34.375 6.25  L 39.0625 6.25  Z M 38.4765625 45  C 38.798828125 45.3125  39.0625 45.048828125  39 44.7265625  L 39 16  L 5 16  L 5 44.7265625  C 4.6875 45.048828125  4.951171875 45.3125  5.2734375 45  L 38.4765625 45  Z " fill-rule="evenodd" />
    </mask>
  </defs>
  <g>
    <path d="M 15.625 26.953125  C 15.625 27.597656250000004  15.09765625 28.125  14.453125 28.125  L 10.546875 28.125  C 9.90234375 28.125  9.375 27.597656250000004  9.375 26.953125  L 9.375 23.046875  C 9.375 22.40234375  9.90234375 21.875  10.546875 21.875  L 14.453125 21.875  C 15.09765625 21.875  15.625 22.40234375  15.625 23.046875  L 15.625 26.953125  Z M 23.828125 28.125  C 24.47265625 28.125  25.000000000000004 27.597656250000004  25.000000000000004 26.953125  L 25.000000000000004 23.046875  C 25.000000000000004 22.40234375  24.47265625 21.875  23.828125 21.875  L 19.921875 21.875  C 19.27734375 21.875  18.75 22.40234375  18.75 23.046875  L 18.75 26.953125  C 18.75 27.597656250000004  19.27734375 28.125  19.921875 28.125  L 23.828125 28.125  Z M 33.203125 28.125  C 33.84765625 28.125  34.375 27.597656250000004  34.375 26.953125  L 34.375 23.046875  C 34.375 22.40234375  33.84765625 21.875  33.203125 21.875  L 29.296875000000004 21.875  C 28.652343750000004 21.875  28.125 22.40234375  28.125 23.046875  L 28.125 26.953125  C 28.125 27.597656250000004  28.652343750000004 28.125  29.296875000000004 28.125  L 33.203125 28.125  Z M 23.828125 37.5  C 24.47265625 37.5  25.000000000000004 36.97265625  25.000000000000004 36.328125  L 25.000000000000004 32.421875  C 25.000000000000004 31.777343749999996  24.47265625 31.25  23.828125 31.25  L 19.921875 31.25  C 19.27734375 31.25  18.75 31.777343749999996  18.75 32.421875  L 18.75 36.328125  C 18.75 36.97265625  19.27734375 37.5  19.921875 37.5  L 23.828125 37.5  Z M 14.453125 37.5  C 15.09765625 37.5  15.625 36.97265625  15.625 36.328125  L 15.625 32.421875  C 15.625 31.777343749999996  15.09765625 31.25  14.453125 31.25  L 10.546875 31.25  C 9.90234375 31.25  9.375 31.777343749999996  9.375 32.421875  L 9.375 36.328125  C 9.375 36.97265625  9.90234375 37.5  10.546875 37.5  L 14.453125 37.5  Z M 33.203125 37.5  C 33.84765625 37.5  34.375 36.97265625  34.375 36.328125  L 34.375 32.421875  C 34.375 31.777343749999996  33.84765625 31.25  33.203125 31.25  L 29.296875000000004 31.25  C 28.652343750000004 31.25  28.125 31.777343749999996  28.125 32.421875  L 28.125 36.328125  C 28.125 36.97265625  28.652343750000004 37.5  29.296875000000004 37.5  L 33.203125 37.5  Z M 39.0625 6.25  C 41.650390625 6.25  43.75 8.349609375  43 10.9375  L 43 45.3125  C 43.75 47.900390625  41.650390625 50  39.0625 50  L 4.6875 50  C 2.099609375 50  0 47.900390625  0 45.3125  L 0 10.9375  C 0 8.349609375  2.099609375 6.25  4.6875 6.25  L 9.375 6.25  L 9.375 1.171875  C 9.375 0.52734375  9.90234375 0  10.546875 0  L 14.453125 0  C 15.09765625 0  15.625 0.52734375  15.625 1.171875  L 15.625 7  L 28.125 7  L 28.125 1.171875  C 28.125 0.52734375  28.652343750000004 0  29.296875000000004 0  L 33.203125 0  C 33.84765625 0  34.375 0.52734375  34.375 1.171875  L 34.375 6.25  L 39.0625 6.25  Z M 38.4765625 45  C 38.798828125 45.3125  39.0625 45.048828125  39 44.7265625  L 39 16  L 5 16  L 5 44.7265625  C 4.6875 45.048828125  4.951171875 45.3125  5.2734375 45  L 38.4765625 45  Z " fill-rule="nonzero" fill="rgba(0, 0, 0, 1)" stroke="none" class="fill" />
    <path d="M 15.625 26.953125  C 15.625 27.597656250000004  15.09765625 28.125  14.453125 28.125  L 10.546875 28.125  C 9.90234375 28.125  9.375 27.597656250000004  9.375 26.953125  L 9.375 23.046875  C 9.375 22.40234375  9.90234375 21.875  10.546875 21.875  L 14.453125 21.875  C 15.09765625 21.875  15.625 22.40234375  15.625 23.046875  L 15.625 26.953125  Z " stroke-width="0" stroke-dasharray="0" stroke="rgba(255, 255, 255, 0)" fill="none" class="stroke" mask="url(#Clip1081)" />
    <path d="M 23.828125 28.125  C 24.47265625 28.125  25.000000000000004 27.597656250000004  25.000000000000004 26.953125  L 25.000000000000004 23.046875  C 25.000000000000004 22.40234375  24.47265625 21.875  23.828125 21.875  L 19.921875 21.875  C 19.27734375 21.875  18.75 22.40234375  18.75 23.046875  L 18.75 26.953125  C 18.75 27.597656250000004  19.27734375 28.125  19.921875 28.125  L 23.828125 28.125  Z " stroke-width="0" stroke-dasharray="0" stroke="rgba(255, 255, 255, 0)" fill="none" class="stroke" mask="url(#Clip1081)" />
    <path d="M 33.203125 28.125  C 33.84765625 28.125  34.375 27.597656250000004  34.375 26.953125  L 34.375 23.046875  C 34.375 22.40234375  33.84765625 21.875  33.203125 21.875  L 29.296875000000004 21.875  C 28.652343750000004 21.875  28.125 22.40234375  28.125 23.046875  L 28.125 26.953125  C 28.125 27.597656250000004  28.652343750000004 28.125  29.296875000000004 28.125  L 33.203125 28.125  Z " stroke-width="0" stroke-dasharray="0" stroke="rgba(255, 255, 255, 0)" fill="none" class="stroke" mask="url(#Clip1081)" />
    <path d="M 23.828125 37.5  C 24.47265625 37.5  25.000000000000004 36.97265625  25.000000000000004 36.328125  L 25.000000000000004 32.421875  C 25.000000000000004 31.777343749999996  24.47265625 31.25  23.828125 31.25  L 19.921875 31.25  C 19.27734375 31.25  18.75 31.777343749999996  18.75 32.421875  L 18.75 36.328125  C 18.75 36.97265625  19.27734375 37.5  19.921875 37.5  L 23.828125 37.5  Z " stroke-width="0" stroke-dasharray="0" stroke="rgba(255, 255, 255, 0)" fill="none" class="stroke" mask="url(#Clip1081)" />
    <path d="M 14.453125 37.5  C 15.09765625 37.5  15.625 36.97265625  15.625 36.328125  L 15.625 32.421875  C 15.625 31.777343749999996  15.09765625 31.25  14.453125 31.25  L 10.546875 31.25  C 9.90234375 31.25  9.375 31.777343749999996  9.375 32.421875  L 9.375 36.328125  C 9.375 36.97265625  9.90234375 37.5  10.546875 37.5  L 14.453125 37.5  Z " stroke-width="0" stroke-dasharray="0" stroke="rgba(255, 255, 255, 0)" fill="none" class="stroke" mask="url(#Clip1081)" />
    <path d="M 33.203125 37.5  C 33.84765625 37.5  34.375 36.97265625  34.375 36.328125  L 34.375 32.421875  C 34.375 31.777343749999996  33.84765625 31.25  33.203125 31.25  L 29.296875000000004 31.25  C 28.652343750000004 31.25  28.125 31.777343749999996  28.125 32.421875  L 28.125 36.328125  C 28.125 36.97265625  28.652343750000004 37.5  29.296875000000004 37.5  L 33.203125 37.5  Z " stroke-width="0" stroke-dasharray="0" stroke="rgba(255, 255, 255, 0)" fill="none" class="stroke" mask="url(#Clip1081)" />
    <path d="M 39.0625 6.25  C 41.650390625 6.25  43.75 8.349609375  43 10.9375  L 43 45.3125  C 43.75 47.900390625  41.650390625 50  39.0625 50  L 4.6875 50  C 2.099609375 50  0 47.900390625  0 45.3125  L 0 10.9375  C 0 8.349609375  2.099609375 6.25  4.6875 6.25  L 9.375 6.25  L 9.375 1.171875  C 9.375 0.52734375  9.90234375 0  10.546875 0  L 14.453125 0  C 15.09765625 0  15.625 0.52734375  15.625 1.171875  L 15.625 7  L 28.125 7  L 28.125 1.171875  C 28.125 0.52734375  28.652343750000004 0  29.296875000000004 0  L 33.203125 0  C 33.84765625 0  34.375 0.52734375  34.375 1.171875  L 34.375 6.25  L 39.0625 6.25  Z " stroke-width="0" stroke-dasharray="0" stroke="rgba(255, 255, 255, 0)" fill="none" class="stroke" mask="url(#Clip1081)" />
    <path d="M 38.4765625 45  C 38.798828125 45.3125  39.0625 45.048828125  39 44.7265625  L 39 16  L 5 16  L 5 44.7265625  C 4.6875 45.048828125  4.951171875 45.3125  5.2734375 45  L 38.4765625 45  Z " stroke-width="0" stroke-dasharray="0" stroke="rgba(255, 255, 255, 0)" fill="none" class="stroke" mask="url(#Clip1081)" />
  </g>
</svg>