<?xml version="1.0" encoding="utf-8"?>
<svg version="1.1" xmlns:xlink="http://www.w3.org/1999/xlink" width="24px" height="24px" xmlns="http://www.w3.org/2000/svg">
  <defs>
    <pattern id="BGPattern" patternUnits="userSpaceOnUse" alignment="0 0" imageRepeat="None" />
    <mask fill="white" id="Clip6013">
      <path d="M 12 22.5  L 12 1.5  C 12 0.6715728752538098  12.67157287525381 0  13.5 0  L 22.5 0  C 23.32842712474619 0  24 0.6715728752538098  24 1.5  L 24 22.5  C 24 23.32842712474619  23.32842712474619 24  22.5 24  L 13.5 24  C 12.67157287525381 24  12 23.32842712474619  12 22.5  Z M 13.5 21.75  C 13.5 22.164213562373096  13.835786437626904 22.5  14.25 22.5  C 14.664213562373096 22.5  15 22.164213562373096  15 21.75  C 15 21.335786437626904  14.664213562373096 21  14.25 21  C 13.835786437626904 21  13.5 21.335786437626904  13.5 21.75  Z M 16.5 21.75  C 16.5 22.164213562373096  16.835786437626904 22.5  17.25 22.5  C 17.664213562373096 22.5  18 22.164213562373096  18 21.75  C 18 21.335786437626904  17.664213562373096 21  17.25 21  C 16.835786437626904 21  16.5 21.335786437626904  16.5 21.75  Z M 21.75 1.5  L 14.25 1.5  C 13.835786437626904 1.5  13.5 1.835786437626905  13.5 2.25  C 13.5 2.664213562373095  13.835786437626904 3  14.25 3  L 21.75 3  C 22.164213562373096 3  22.5 2.664213562373095  22.5 2.25  C 22.5 1.835786437626905  22.164213562373096 1.5  21.75 1.5  Z M 14.25 4.5  C 13.835786437626904 4.5  13.5 4.835786437626905  13.5 5.25  C 13.5 5.664213562373095  13.835786437626904 6  14.25 6  L 21.75 6  C 22.164213562373096 6  22.5 5.664213562373095  22.5 5.25  C 22.5 4.835786437626905  22.164213562373096 4.5  21.75 4.5  L 14.25 4.5  Z M 10.5 3  L 2.25 3  C 1.0073593128807152 3  0 4.007359312880714  0 5.25  L 0 15.75  C 0 16.992640687119284  1.0073593128807148 18  2.25 18  L 9 18  L 9 21  L 8.25 21  C 7.835786437626905 21  7.5 21.335786437626904  7.5 21.75  C 7.5 22.164213562373096  7.835786437626905 22.5  8.25 22.5  L 10.5 22.5  L 10.5 16.5  L 2.25 16.5  C 1.835786437626905 16.5  1.5 16.164213562373096  1.5 15.75  L 1.5 5.25  C 1.5 4.835786437626905  1.835786437626905 4.5  2.25 4.5  L 10.5 4.5  L 10.5 3  Z " fill-rule="evenodd" />
    </mask>
  </defs>
  <g>
    <path d="M 12 22.5  L 12 1.5  C 12 0.6715728752538098  12.67157287525381 0  13.5 0  L 22.5 0  C 23.32842712474619 0  24 0.6715728752538098  24 1.5  L 24 22.5  C 24 23.32842712474619  23.32842712474619 24  22.5 24  L 13.5 24  C 12.67157287525381 24  12 23.32842712474619  12 22.5  Z M 13.5 21.75  C 13.5 22.164213562373096  13.835786437626904 22.5  14.25 22.5  C 14.664213562373096 22.5  15 22.164213562373096  15 21.75  C 15 21.335786437626904  14.664213562373096 21  14.25 21  C 13.835786437626904 21  13.5 21.335786437626904  13.5 21.75  Z M 16.5 21.75  C 16.5 22.164213562373096  16.835786437626904 22.5  17.25 22.5  C 17.664213562373096 22.5  18 22.164213562373096  18 21.75  C 18 21.335786437626904  17.664213562373096 21  17.25 21  C 16.835786437626904 21  16.5 21.335786437626904  16.5 21.75  Z M 21.75 1.5  L 14.25 1.5  C 13.835786437626904 1.5  13.5 1.835786437626905  13.5 2.25  C 13.5 2.664213562373095  13.835786437626904 3  14.25 3  L 21.75 3  C 22.164213562373096 3  22.5 2.664213562373095  22.5 2.25  C 22.5 1.835786437626905  22.164213562373096 1.5  21.75 1.5  Z M 14.25 4.5  C 13.835786437626904 4.5  13.5 4.835786437626905  13.5 5.25  C 13.5 5.664213562373095  13.835786437626904 6  14.25 6  L 21.75 6  C 22.164213562373096 6  22.5 5.664213562373095  22.5 5.25  C 22.5 4.835786437626905  22.164213562373096 4.5  21.75 4.5  L 14.25 4.5  Z M 10.5 3  L 2.25 3  C 1.0073593128807152 3  0 4.007359312880714  0 5.25  L 0 15.75  C 0 16.992640687119284  1.0073593128807148 18  2.25 18  L 9 18  L 9 21  L 8.25 21  C 7.835786437626905 21  7.5 21.335786437626904  7.5 21.75  C 7.5 22.164213562373096  7.835786437626905 22.5  8.25 22.5  L 10.5 22.5  L 10.5 16.5  L 2.25 16.5  C 1.835786437626905 16.5  1.5 16.164213562373096  1.5 15.75  L 1.5 5.25  C 1.5 4.835786437626905  1.835786437626905 4.5  2.25 4.5  L 10.5 4.5  L 10.5 3  Z " fill-rule="nonzero" fill="rgba(0, 0, 0, 1)" stroke="none" class="fill" />
    <path d="M 12 22.5  L 12 1.5  C 12 0.6715728752538098  12.67157287525381 0  13.5 0  L 22.5 0  C 23.32842712474619 0  24 0.6715728752538098  24 1.5  L 24 22.5  C 24 23.32842712474619  23.32842712474619 24  22.5 24  L 13.5 24  C 12.67157287525381 24  12 23.32842712474619  12 22.5  Z " stroke-width="0" stroke-dasharray="0" stroke="rgba(255, 255, 255, 0)" fill="none" class="stroke" mask="url(#Clip6013)" />
    <path d="M 13.5 21.75  C 13.5 22.164213562373096  13.835786437626904 22.5  14.25 22.5  C 14.664213562373096 22.5  15 22.164213562373096  15 21.75  C 15 21.335786437626904  14.664213562373096 21  14.25 21  C 13.835786437626904 21  13.5 21.335786437626904  13.5 21.75  Z " stroke-width="0" stroke-dasharray="0" stroke="rgba(255, 255, 255, 0)" fill="none" class="stroke" mask="url(#Clip6013)" />
    <path d="M 16.5 21.75  C 16.5 22.164213562373096  16.835786437626904 22.5  17.25 22.5  C 17.664213562373096 22.5  18 22.164213562373096  18 21.75  C 18 21.335786437626904  17.664213562373096 21  17.25 21  C 16.835786437626904 21  16.5 21.335786437626904  16.5 21.75  Z " stroke-width="0" stroke-dasharray="0" stroke="rgba(255, 255, 255, 0)" fill="none" class="stroke" mask="url(#Clip6013)" />
    <path d="M 21.75 1.5  L 14.25 1.5  C 13.835786437626904 1.5  13.5 1.835786437626905  13.5 2.25  C 13.5 2.664213562373095  13.835786437626904 3  14.25 3  L 21.75 3  C 22.164213562373096 3  22.5 2.664213562373095  22.5 2.25  C 22.5 1.835786437626905  22.164213562373096 1.5  21.75 1.5  Z " stroke-width="0" stroke-dasharray="0" stroke="rgba(255, 255, 255, 0)" fill="none" class="stroke" mask="url(#Clip6013)" />
    <path d="M 14.25 4.5  C 13.835786437626904 4.5  13.5 4.835786437626905  13.5 5.25  C 13.5 5.664213562373095  13.835786437626904 6  14.25 6  L 21.75 6  C 22.164213562373096 6  22.5 5.664213562373095  22.5 5.25  C 22.5 4.835786437626905  22.164213562373096 4.5  21.75 4.5  L 14.25 4.5  Z " stroke-width="0" stroke-dasharray="0" stroke="rgba(255, 255, 255, 0)" fill="none" class="stroke" mask="url(#Clip6013)" />
    <path d="M 10.5 3  L 2.25 3  C 1.0073593128807152 3  0 4.007359312880714  0 5.25  L 0 15.75  C 0 16.992640687119284  1.0073593128807148 18  2.25 18  L 9 18  L 9 21  L 8.25 21  C 7.835786437626905 21  7.5 21.335786437626904  7.5 21.75  C 7.5 22.164213562373096  7.835786437626905 22.5  8.25 22.5  L 10.5 22.5  L 10.5 16.5  L 2.25 16.5  C 1.835786437626905 16.5  1.5 16.164213562373096  1.5 15.75  L 1.5 5.25  C 1.5 4.835786437626905  1.835786437626905 4.5  2.25 4.5  L 10.5 4.5  L 10.5 3  Z " stroke-width="0" stroke-dasharray="0" stroke="rgba(255, 255, 255, 0)" fill="none" class="stroke" mask="url(#Clip6013)" />
  </g>
</svg>