<?xml version="1.0" encoding="utf-8"?>
<svg version="1.1" xmlns:xlink="http://www.w3.org/1999/xlink" width="29px" height="29px" xmlns="http://www.w3.org/2000/svg">
  <defs>
    <pattern id="BGPattern" patternUnits="userSpaceOnUse" alignment="0 0" imageRepeat="None" />
    <mask fill="white" id="Clip3980">
      <path d="M 14.048365873248812 0.999916454833039  C 14.032243879421145 0.999916454833039  14.016121897619477 0.9999443032635725  14 1  C 6.268749347048921 1.0010404579933416  0.0018840951391618788 7.26874915025834  0.0018840951391618788 14.99999987322091  C 0.0018840951391618788 21.024203814027672  3.855612207310226 26.372959026347417  9.57 28.28  C 10.27 28.41  10.57 27.98  10.57 27.61  C 10.57 27.24  10.57 26.4  10.57 25.23  C 6.68 26.07  5.86 23.35  5.86 23.350000000000005  C 5.586451611750947 22.49283110998613  5.010720100774336 21.764281975725602  4.24 21.3  C 2.9700000000000006 20.44  4.34 20.45  4.34 20.45  C 5.238952016043167 20.576989809985413  6.028810583542594 21.112174353384557  6.48 21.9  C 7.286583031635235 23.346673675263123  9.112967986270839 23.865939985894812  10.56 23.06  C 10.616460741414757 22.350470772593656  10.929268320010753 21.685754668077166  11.440000000000001 21.189999999999998  C 8.340000000000002 20.83  5.070000000000001 19.63  5.070000000000001 14.269999999999998  C 5.0473278960280705 12.877894317091297  5.56322553041113 11.53082827175775  6.51 10.509999999999996  C 6.08146107748167 9.30419470969878  6.131566729361422 7.9799739100195985  6.650000000000002 6.809999999999998  C 6.650000000000002 6.809999999999998  7.820000000000002 6.429999999999998  10.500000000000002 8.239999999999998  C 12.791473859106848 7.614949261168469  15.208526140893154 7.614949261168469  17.5 8.239999999999998  C 20.17 6.429999999999998  21.34 6.809999999999999  21.339999999999996 6.809999999999998  C 21.858433270638574 7.9799739100195985  21.90853892251833 9.304194709698782  21.48 10.509999999999998  C 22.426774469588867 11.53082827175775  22.942672103971933 12.877894317091299  22.92 14.269999999999998  C 22.92 19.65  19.650000000000002 20.83  16.53 21.18  C 17.20620551854023 21.86539635247762  17.55265436468804 22.809925311975334  17.48 23.77  C 17.48 25.64  17.48 27.15  17.48 27.61  C 17.48 28.07  17.73 28.419999999999998  18.48 28.279999999999998  C 24.194515689069554 26.373035886453277  28.048365873248812 21.024217384482647  28.048365873248812 14.999916454833038  C 28.048365873248812 7.267929957201931  21.78035237087992 0.999916454833039  14.048365873248812 0.999916454833039  Z " fill-rule="evenodd" />
    </mask>
  </defs>
  <g transform="matrix(1 0 0 1 -2 -1 )">
    <path d="M 14.048365873248812 0.999916454833039  C 14.032243879421145 0.999916454833039  14.016121897619477 0.9999443032635725  14 1  C 6.268749347048921 1.0010404579933416  0.0018840951391618788 7.26874915025834  0.0018840951391618788 14.99999987322091  C 0.0018840951391618788 21.024203814027672  3.855612207310226 26.372959026347417  9.57 28.28  C 10.27 28.41  10.57 27.98  10.57 27.61  C 10.57 27.24  10.57 26.4  10.57 25.23  C 6.68 26.07  5.86 23.35  5.86 23.350000000000005  C 5.586451611750947 22.49283110998613  5.010720100774336 21.764281975725602  4.24 21.3  C 2.9700000000000006 20.44  4.34 20.45  4.34 20.45  C 5.238952016043167 20.576989809985413  6.028810583542594 21.112174353384557  6.48 21.9  C 7.286583031635235 23.346673675263123  9.112967986270839 23.865939985894812  10.56 23.06  C 10.616460741414757 22.350470772593656  10.929268320010753 21.685754668077166  11.440000000000001 21.189999999999998  C 8.340000000000002 20.83  5.070000000000001 19.63  5.070000000000001 14.269999999999998  C 5.0473278960280705 12.877894317091297  5.56322553041113 11.53082827175775  6.51 10.509999999999996  C 6.08146107748167 9.30419470969878  6.131566729361422 7.9799739100195985  6.650000000000002 6.809999999999998  C 6.650000000000002 6.809999999999998  7.820000000000002 6.429999999999998  10.500000000000002 8.239999999999998  C 12.791473859106848 7.614949261168469  15.208526140893154 7.614949261168469  17.5 8.239999999999998  C 20.17 6.429999999999998  21.34 6.809999999999999  21.339999999999996 6.809999999999998  C 21.858433270638574 7.9799739100195985  21.90853892251833 9.304194709698782  21.48 10.509999999999998  C 22.426774469588867 11.53082827175775  22.942672103971933 12.877894317091299  22.92 14.269999999999998  C 22.92 19.65  19.650000000000002 20.83  16.53 21.18  C 17.20620551854023 21.86539635247762  17.55265436468804 22.809925311975334  17.48 23.77  C 17.48 25.64  17.48 27.15  17.48 27.61  C 17.48 28.07  17.73 28.419999999999998  18.48 28.279999999999998  C 24.194515689069554 26.373035886453277  28.048365873248812 21.024217384482647  28.048365873248812 14.999916454833038  C 28.048365873248812 7.267929957201931  21.78035237087992 0.999916454833039  14.048365873248812 0.999916454833039  Z " fill-rule="nonzero" fill="rgba(0, 0, 0, 1)" stroke="none" transform="matrix(1 0 0 1 2 1 )" class="fill" />
    <path d="M 14.048365873248812 0.999916454833039  C 14.032243879421145 0.999916454833039  14.016121897619477 0.9999443032635725  14 1  C 6.268749347048921 1.0010404579933416  0.0018840951391618788 7.26874915025834  0.0018840951391618788 14.99999987322091  C 0.0018840951391618788 21.024203814027672  3.855612207310226 26.372959026347417  9.57 28.28  C 10.27 28.41  10.57 27.98  10.57 27.61  C 10.57 27.24  10.57 26.4  10.57 25.23  C 6.68 26.07  5.86 23.35  5.86 23.350000000000005  C 5.586451611750947 22.49283110998613  5.010720100774336 21.764281975725602  4.24 21.3  C 2.9700000000000006 20.44  4.34 20.45  4.34 20.45  C 5.238952016043167 20.576989809985413  6.028810583542594 21.112174353384557  6.48 21.9  C 7.286583031635235 23.346673675263123  9.112967986270839 23.865939985894812  10.56 23.06  C 10.616460741414757 22.350470772593656  10.929268320010753 21.685754668077166  11.440000000000001 21.189999999999998  C 8.340000000000002 20.83  5.070000000000001 19.63  5.070000000000001 14.269999999999998  C 5.0473278960280705 12.877894317091297  5.56322553041113 11.53082827175775  6.51 10.509999999999996  C 6.08146107748167 9.30419470969878  6.131566729361422 7.9799739100195985  6.650000000000002 6.809999999999998  C 6.650000000000002 6.809999999999998  7.820000000000002 6.429999999999998  10.500000000000002 8.239999999999998  C 12.791473859106848 7.614949261168469  15.208526140893154 7.614949261168469  17.5 8.239999999999998  C 20.17 6.429999999999998  21.34 6.809999999999999  21.339999999999996 6.809999999999998  C 21.858433270638574 7.9799739100195985  21.90853892251833 9.304194709698782  21.48 10.509999999999998  C 22.426774469588867 11.53082827175775  22.942672103971933 12.877894317091299  22.92 14.269999999999998  C 22.92 19.65  19.650000000000002 20.83  16.53 21.18  C 17.20620551854023 21.86539635247762  17.55265436468804 22.809925311975334  17.48 23.77  C 17.48 25.64  17.48 27.15  17.48 27.61  C 17.48 28.07  17.73 28.419999999999998  18.48 28.279999999999998  C 24.194515689069554 26.373035886453277  28.048365873248812 21.024217384482647  28.048365873248812 14.999916454833038  C 28.048365873248812 7.267929957201931  21.78035237087992 0.999916454833039  14.048365873248812 0.999916454833039  Z " stroke-width="0" stroke-dasharray="0" stroke="rgba(255, 255, 255, 0)" fill="none" transform="matrix(1 0 0 1 2 1 )" class="stroke" mask="url(#Clip3980)" />
  </g>
</svg>