<?xml version="1.0" encoding="utf-8"?>
<svg version="1.1" xmlns:xlink="http://www.w3.org/1999/xlink" width="50px" height="45px" xmlns="http://www.w3.org/2000/svg">
  <defs>
    <pattern id="BGPattern" patternUnits="userSpaceOnUse" alignment="0 0" imageRepeat="None" />
    <mask fill="white" id="Clip1554">
      <path d="M 22.183708838821474 38  C 20.786828422876937 38.78509532062395  19.53379549393415 38.00779896013867  18.905545927209715 36.75389948006935  C 18.649913344887352 36.24090121317158  18.204506065857885 36.188908145580626  18.024263431542465 36.188908145580626  C 17.844020797227046 36.188908145580626  17.39861351819758 36.240034662045076  17.155979202772954 36.725303292894296  L 16.49133448873482 38.05459272097056  C 15.939341421143837 39.162045060658585  14.322357019064128 39.03986135181978  13.936741767764305 37.87348353552861  L 12.478336221837083 33.5  L 11.558925476603122 36.2625649913345  C 11.048526863084916 37.792894280762596  9.61958405545927 38.82149046793762  8.006065857885616 38.82149046793762  L 6.932409012131714 38.82149046793762  C 6.16637781629116 38.82149046793762  5.5459272097053685 38.20103986135183  5.5459272097053685 37.435008665511276  C 5.5459272097053685 36.66897746967072  6.16637781629116 36.04852686308493  6.932409012131714 36.04852686308493  L 8.006065857885616 36.04852686308493  C 8.42461005199307 36.04852686308493  8.795493934142115 35.78162911611787  8.92807625649914 35.38474870017333  L 10.50433275563259 30.649913344887356  C 10.79029462738302 29.799826689774704  11.582322357019066 29.227902946273847  12.478336221837083 29.227902946273847  C 13.374350086655113 29.227902946273847  14.166377816291172 29.798960138648198  14.45147313691507 30.649913344887356  L 15.654246100519941 34.25823223570194  C 17.365684575389935 32.85528596187177  20.33882149046792 33.41767764298095  21.373483535528607 35.48526863084925  C 21.537261698440204 35.81282495667244  21.84922010398614 36.000866551126535  22.18457538994801 36.02772963604855  L 22.18457538994801 28.911611785095346  L 33.276429809358746 17.89861351819758  L 33.276429809358746 14  L 21.490467937608315 14  C 20.346620450606594 13.864818024263428  19.41074523396881 12.928942807625647  20 11.785095320623924  L 20 0  L 2.0797227036395185 0  C 0.9272097053726185 0  0 0.9272097053726043  0 2.0797227036395043  L 0 42.2876949740035  C 0 43.4402079722704  0.9272097053726185 44.367417677643004  2.0797227036395185 44  L 31.195840554592706 44  C 32.348353552859635 44.367417677643004  33.27556325823224 43.4402079722704  33.27556325823224 42.2876949740035  L 33.27556325823224 38  L 22.183708838821474 38  Z M 33.27556325823224 11  L 33.27556325823224 10.563258232235711  C 33.27556325823224 10.017331022530328  33.05892547660312 9.488734835355302  32.66897746967072 9.098786828422874  L 24.185441941074515 0.6065857885615173  C 23.795493934142115 0.2166377816291174  23.26689774696706 0  22.71230502599653 0  L 23 0  L 23 11  L 33.27556325823224 11  Z M 39.06325823223571 16.060658578856163  L 24.956672443674165 30.065857885615262  L 24.956672443674165 36.04852686308493  L 30.935008665511276 36.04852686308493  L 44.94540727902947 21.94280762564992  L 39.06325823223571 16.060658578856163  Z M 49.26689774696706 17.62045060658579  C 50.12911611785097 16.759098786828446  50.12911611785097 15.361351819757374  49.26689774696706 14.500000000000002  L 46.505199306759096 11.738301559792035  C 45.64384748700172 10.87694974003466  44.24610051993068 10.87694974003466  43.384748700173304 11.738301559792035  L 41.02339688041593 14.099653379549409  L 46.90554592720969 19.981802426343165  L 49.26689774696706 17.62045060658579  Z " fill-rule="evenodd" />
    </mask>
  </defs>
  <g>
    <path d="M 22.183708838821474 38  C 20.786828422876937 38.78509532062395  19.53379549393415 38.00779896013867  18.905545927209715 36.75389948006935  C 18.649913344887352 36.24090121317158  18.204506065857885 36.188908145580626  18.024263431542465 36.188908145580626  C 17.844020797227046 36.188908145580626  17.39861351819758 36.240034662045076  17.155979202772954 36.725303292894296  L 16.49133448873482 38.05459272097056  C 15.939341421143837 39.162045060658585  14.322357019064128 39.03986135181978  13.936741767764305 37.87348353552861  L 12.478336221837083 33.5  L 11.558925476603122 36.2625649913345  C 11.048526863084916 37.792894280762596  9.61958405545927 38.82149046793762  8.006065857885616 38.82149046793762  L 6.932409012131714 38.82149046793762  C 6.16637781629116 38.82149046793762  5.5459272097053685 38.20103986135183  5.5459272097053685 37.435008665511276  C 5.5459272097053685 36.66897746967072  6.16637781629116 36.04852686308493  6.932409012131714 36.04852686308493  L 8.006065857885616 36.04852686308493  C 8.42461005199307 36.04852686308493  8.795493934142115 35.78162911611787  8.92807625649914 35.38474870017333  L 10.50433275563259 30.649913344887356  C 10.79029462738302 29.799826689774704  11.582322357019066 29.227902946273847  12.478336221837083 29.227902946273847  C 13.374350086655113 29.227902946273847  14.166377816291172 29.798960138648198  14.45147313691507 30.649913344887356  L 15.654246100519941 34.25823223570194  C 17.365684575389935 32.85528596187177  20.33882149046792 33.41767764298095  21.373483535528607 35.48526863084925  C 21.537261698440204 35.81282495667244  21.84922010398614 36.000866551126535  22.18457538994801 36.02772963604855  L 22.18457538994801 28.911611785095346  L 33.276429809358746 17.89861351819758  L 33.276429809358746 14  L 21.490467937608315 14  C 20.346620450606594 13.864818024263428  19.41074523396881 12.928942807625647  20 11.785095320623924  L 20 0  L 2.0797227036395185 0  C 0.9272097053726185 0  0 0.9272097053726043  0 2.0797227036395043  L 0 42.2876949740035  C 0 43.4402079722704  0.9272097053726185 44.367417677643004  2.0797227036395185 44  L 31.195840554592706 44  C 32.348353552859635 44.367417677643004  33.27556325823224 43.4402079722704  33.27556325823224 42.2876949740035  L 33.27556325823224 38  L 22.183708838821474 38  Z M 33.27556325823224 11  L 33.27556325823224 10.563258232235711  C 33.27556325823224 10.017331022530328  33.05892547660312 9.488734835355302  32.66897746967072 9.098786828422874  L 24.185441941074515 0.6065857885615173  C 23.795493934142115 0.2166377816291174  23.26689774696706 0  22.71230502599653 0  L 23 0  L 23 11  L 33.27556325823224 11  Z M 39.06325823223571 16.060658578856163  L 24.956672443674165 30.065857885615262  L 24.956672443674165 36.04852686308493  L 30.935008665511276 36.04852686308493  L 44.94540727902947 21.94280762564992  L 39.06325823223571 16.060658578856163  Z M 49.26689774696706 17.62045060658579  C 50.12911611785097 16.759098786828446  50.12911611785097 15.361351819757374  49.26689774696706 14.500000000000002  L 46.505199306759096 11.738301559792035  C 45.64384748700172 10.87694974003466  44.24610051993068 10.87694974003466  43.384748700173304 11.738301559792035  L 41.02339688041593 14.099653379549409  L 46.90554592720969 19.981802426343165  L 49.26689774696706 17.62045060658579  Z " fill-rule="nonzero" fill="rgba(0, 0, 0, 1)" stroke="none" class="fill" />
    <path d="M 22.183708838821474 38  C 20.786828422876937 38.78509532062395  19.53379549393415 38.00779896013867  18.905545927209715 36.75389948006935  C 18.649913344887352 36.24090121317158  18.204506065857885 36.188908145580626  18.024263431542465 36.188908145580626  C 17.844020797227046 36.188908145580626  17.39861351819758 36.240034662045076  17.155979202772954 36.725303292894296  L 16.49133448873482 38.05459272097056  C 15.939341421143837 39.162045060658585  14.322357019064128 39.03986135181978  13.936741767764305 37.87348353552861  L 12.478336221837083 33.5  L 11.558925476603122 36.2625649913345  C 11.048526863084916 37.792894280762596  9.61958405545927 38.82149046793762  8.006065857885616 38.82149046793762  L 6.932409012131714 38.82149046793762  C 6.16637781629116 38.82149046793762  5.5459272097053685 38.20103986135183  5.5459272097053685 37.435008665511276  C 5.5459272097053685 36.66897746967072  6.16637781629116 36.04852686308493  6.932409012131714 36.04852686308493  L 8.006065857885616 36.04852686308493  C 8.42461005199307 36.04852686308493  8.795493934142115 35.78162911611787  8.92807625649914 35.38474870017333  L 10.50433275563259 30.649913344887356  C 10.79029462738302 29.799826689774704  11.582322357019066 29.227902946273847  12.478336221837083 29.227902946273847  C 13.374350086655113 29.227902946273847  14.166377816291172 29.798960138648198  14.45147313691507 30.649913344887356  L 15.654246100519941 34.25823223570194  C 17.365684575389935 32.85528596187177  20.33882149046792 33.41767764298095  21.373483535528607 35.48526863084925  C 21.537261698440204 35.81282495667244  21.84922010398614 36.000866551126535  22.18457538994801 36.02772963604855  L 22.18457538994801 28.911611785095346  L 33.276429809358746 17.89861351819758  L 33.276429809358746 14  L 21.490467937608315 14  C 20.346620450606594 13.864818024263428  19.41074523396881 12.928942807625647  20 11.785095320623924  L 20 0  L 2.0797227036395185 0  C 0.9272097053726185 0  0 0.9272097053726043  0 2.0797227036395043  L 0 42.2876949740035  C 0 43.4402079722704  0.9272097053726185 44.367417677643004  2.0797227036395185 44  L 31.195840554592706 44  C 32.348353552859635 44.367417677643004  33.27556325823224 43.4402079722704  33.27556325823224 42.2876949740035  L 33.27556325823224 38  L 22.183708838821474 38  Z " stroke-width="0" stroke-dasharray="0" stroke="rgba(255, 255, 255, 0)" fill="none" class="stroke" mask="url(#Clip1554)" />
    <path d="M 33.27556325823224 11  L 33.27556325823224 10.563258232235711  C 33.27556325823224 10.017331022530328  33.05892547660312 9.488734835355302  32.66897746967072 9.098786828422874  L 24.185441941074515 0.6065857885615173  C 23.795493934142115 0.2166377816291174  23.26689774696706 0  22.71230502599653 0  L 23 0  L 23 11  L 33.27556325823224 11  Z " stroke-width="0" stroke-dasharray="0" stroke="rgba(255, 255, 255, 0)" fill="none" class="stroke" mask="url(#Clip1554)" />
    <path d="M 39.06325823223571 16.060658578856163  L 24.956672443674165 30.065857885615262  L 24.956672443674165 36.04852686308493  L 30.935008665511276 36.04852686308493  L 44.94540727902947 21.94280762564992  L 39.06325823223571 16.060658578856163  Z " stroke-width="0" stroke-dasharray="0" stroke="rgba(255, 255, 255, 0)" fill="none" class="stroke" mask="url(#Clip1554)" />
    <path d="M 49.26689774696706 17.62045060658579  C 50.12911611785097 16.759098786828446  50.12911611785097 15.361351819757374  49.26689774696706 14.500000000000002  L 46.505199306759096 11.738301559792035  C 45.64384748700172 10.87694974003466  44.24610051993068 10.87694974003466  43.384748700173304 11.738301559792035  L 41.02339688041593 14.099653379549409  L 46.90554592720969 19.981802426343165  L 49.26689774696706 17.62045060658579  Z " stroke-width="0" stroke-dasharray="0" stroke="rgba(255, 255, 255, 0)" fill="none" class="stroke" mask="url(#Clip1554)" />
  </g>
</svg>