<?xml version="1.0" encoding="utf-8"?>
<svg version="1.1" xmlns:xlink="http://www.w3.org/1999/xlink" width="16px" height="26px" xmlns="http://www.w3.org/2000/svg">
  <defs>
    <pattern id="BGPattern" patternUnits="userSpaceOnUse" alignment="0 0" imageRepeat="None" />
    <mask fill="white" id="Clip2483">
      <path d="M 15.393749999999997 9.550000000000004  L 8.393749999999997 0.6875  C 8.298981406833164 0.5664088221362071  8.153766575065127 0.49565732589052663  7.9999999999999964 0.49565732589052663  C 7.846233424934866 0.49565732589052663  7.701018593166825 0.5664088221362107  7.606249999999996 0.6875  L 0.6062499999999922 9.543749999999996  C 0.537521250240605 9.631515993971888  0.5001762045286355 9.739776895484653  0.5001762045286355 9.85125115592787  C 0.5001762045286355 10.126703174905977  0.7234741855505256 10.35000115592787  0.9989262045286367 10.35000115592787  C 0.9992841366625349 10.35000115592787  0.9996420686956533 10.350000770618351  0.9999999999999964 10.350000000000001  L 5.618749999999999 10.350000000000001  L 5.618749999999999 25.5  C 5.618749999999999 25.775  5.84375 26  6.118749999999999 26  L 9.868749999999999 26  C 10.143749999999997 26  10.368749999999999 25.775  10.368749999999999 25.5  L 10.368749999999999 10.356250000000003  L 15 10.356250000000003  C 15.418750000000003 10.356250000000003  15.649999999999999 9.875  15.393749999999997 9.550000000000004  Z " fill-rule="evenodd" />
    </mask>
  </defs>
  <g transform="matrix(1 0 0 1 -20 -18 )">
    <path d="M 15.393749999999997 9.550000000000004  L 8.393749999999997 0.6875  C 8.298981406833164 0.5664088221362071  8.153766575065127 0.49565732589052663  7.9999999999999964 0.49565732589052663  C 7.846233424934866 0.49565732589052663  7.701018593166825 0.5664088221362107  7.606249999999996 0.6875  L 0.6062499999999922 9.543749999999996  C 0.537521250240605 9.631515993971888  0.5001762045286355 9.739776895484653  0.5001762045286355 9.85125115592787  C 0.5001762045286355 10.126703174905977  0.7234741855505256 10.35000115592787  0.9989262045286367 10.35000115592787  C 0.9992841366625349 10.35000115592787  0.9996420686956533 10.350000770618351  0.9999999999999964 10.350000000000001  L 5.618749999999999 10.350000000000001  L 5.618749999999999 25.5  C 5.618749999999999 25.775  5.84375 26  6.118749999999999 26  L 9.868749999999999 26  C 10.143749999999997 26  10.368749999999999 25.775  10.368749999999999 25.5  L 10.368749999999999 10.356250000000003  L 15 10.356250000000003  C 15.418750000000003 10.356250000000003  15.649999999999999 9.875  15.393749999999997 9.550000000000004  Z " fill-rule="nonzero" fill="rgba(0, 0, 0, 1)" stroke="none" transform="matrix(1 0 0 1 20 18 )" class="fill" />
    <path d="M 15.393749999999997 9.550000000000004  L 8.393749999999997 0.6875  C 8.298981406833164 0.5664088221362071  8.153766575065127 0.49565732589052663  7.9999999999999964 0.49565732589052663  C 7.846233424934866 0.49565732589052663  7.701018593166825 0.5664088221362107  7.606249999999996 0.6875  L 0.6062499999999922 9.543749999999996  C 0.537521250240605 9.631515993971888  0.5001762045286355 9.739776895484653  0.5001762045286355 9.85125115592787  C 0.5001762045286355 10.126703174905977  0.7234741855505256 10.35000115592787  0.9989262045286367 10.35000115592787  C 0.9992841366625349 10.35000115592787  0.9996420686956533 10.350000770618351  0.9999999999999964 10.350000000000001  L 5.618749999999999 10.350000000000001  L 5.618749999999999 25.5  C 5.618749999999999 25.775  5.84375 26  6.118749999999999 26  L 9.868749999999999 26  C 10.143749999999997 26  10.368749999999999 25.775  10.368749999999999 25.5  L 10.368749999999999 10.356250000000003  L 15 10.356250000000003  C 15.418750000000003 10.356250000000003  15.649999999999999 9.875  15.393749999999997 9.550000000000004  Z " stroke-width="0" stroke-dasharray="0" stroke="rgba(255, 255, 255, 0)" fill="none" transform="matrix(1 0 0 1 20 18 )" class="stroke" mask="url(#Clip2483)" />
  </g>
</svg>