<?xml version="1.0" encoding="utf-8"?>
<svg version="1.1" xmlns:xlink="http://www.w3.org/1999/xlink" width="10px" height="10px" xmlns="http://www.w3.org/2000/svg">
  <defs>
    <pattern id="BGPattern" patternUnits="userSpaceOnUse" alignment="0 0" imageRepeat="None" />
    <mask fill="white" id="Clip42">
      <path d="M 9.800000000000004 8.584  C 9.800000000000004 9.271999999999998  9.272000000000006 9.8  8.600000000000001 9.8  C 8.296000000000003 9.8  7.992000000000001 9.688000000000002  7.7520000000000024 9.448  L 2.6000000000000014 4.295999999999999  L 2.6000000000000014 7.832000000000001  C 2.6000000000000014 8.504000000000001  1.9920000000000009 9  1.352000000000002 9  C 0.7120000000000033 9  0.20000000000000284 8.440000000000001  0.20000000000000284 7.815999999999999  L 0.20000000000000284 1.3999999999999986  C 0.20000000000000284 0.6319999999999979  0.6480000000000032 0.1999999999999993  1.4000000000000021 0.1999999999999993  L 7.8160000000000025 0.1999999999999993  C 8.488000000000003 0.1999999999999993  9.000000000000004 0.6959999999999997  9.000000000000004 1.3839999999999986  C 9.000000000000004 2.0719999999999974  8.488000000000003 2.599999999999998  7.8160000000000025 2.599999999999998  L 4.296000000000003 2.599999999999998  L 9.448000000000004 7.751999999999999  C 9.688000000000002 7.991999999999997  9.800000000000004 8.296  9.800000000000004 8.584  Z " fill-rule="evenodd" />
    </mask>
  </defs>
  <g>
    <path d="M 9.800000000000004 8.584  C 9.800000000000004 9.271999999999998  9.272000000000006 9.8  8.600000000000001 9.8  C 8.296000000000003 9.8  7.992000000000001 9.688000000000002  7.7520000000000024 9.448  L 2.6000000000000014 4.295999999999999  L 2.6000000000000014 7.832000000000001  C 2.6000000000000014 8.504000000000001  1.9920000000000009 9  1.352000000000002 9  C 0.7120000000000033 9  0.20000000000000284 8.440000000000001  0.20000000000000284 7.815999999999999  L 0.20000000000000284 1.3999999999999986  C 0.20000000000000284 0.6319999999999979  0.6480000000000032 0.1999999999999993  1.4000000000000021 0.1999999999999993  L 7.8160000000000025 0.1999999999999993  C 8.488000000000003 0.1999999999999993  9.000000000000004 0.6959999999999997  9.000000000000004 1.3839999999999986  C 9.000000000000004 2.0719999999999974  8.488000000000003 2.599999999999998  7.8160000000000025 2.599999999999998  L 4.296000000000003 2.599999999999998  L 9.448000000000004 7.751999999999999  C 9.688000000000002 7.991999999999997  9.800000000000004 8.296  9.800000000000004 8.584  Z " fill-rule="nonzero" fill="rgba(0, 0, 0, 1)" stroke="none" class="fill" />
    <path d="M 9.800000000000004 8.584  C 9.800000000000004 9.271999999999998  9.272000000000006 9.8  8.600000000000001 9.8  C 8.296000000000003 9.8  7.992000000000001 9.688000000000002  7.7520000000000024 9.448  L 2.6000000000000014 4.295999999999999  L 2.6000000000000014 7.832000000000001  C 2.6000000000000014 8.504000000000001  1.9920000000000009 9  1.352000000000002 9  C 0.7120000000000033 9  0.20000000000000284 8.440000000000001  0.20000000000000284 7.815999999999999  L 0.20000000000000284 1.3999999999999986  C 0.20000000000000284 0.6319999999999979  0.6480000000000032 0.1999999999999993  1.4000000000000021 0.1999999999999993  L 7.8160000000000025 0.1999999999999993  C 8.488000000000003 0.1999999999999993  9.000000000000004 0.6959999999999997  9.000000000000004 1.3839999999999986  C 9.000000000000004 2.0719999999999974  8.488000000000003 2.599999999999998  7.8160000000000025 2.599999999999998  L 4.296000000000003 2.599999999999998  L 9.448000000000004 7.751999999999999  C 9.688000000000002 7.991999999999997  9.800000000000004 8.296  9.800000000000004 8.584  Z " stroke-width="0" stroke-dasharray="0" stroke="rgba(255, 255, 255, 0)" fill="none" class="stroke" mask="url(#Clip42)" />
  </g>
</svg>