<?xml version="1.0" encoding="utf-8"?>
<svg version="1.1" xmlns:xlink="http://www.w3.org/1999/xlink" width="8px" height="2px" xmlns="http://www.w3.org/2000/svg">
  <defs>
    <pattern id="BGPattern" patternUnits="userSpaceOnUse" alignment="0 0" imageRepeat="None" />
    <mask fill="white" id="Clip5000">
      <path d="M 1 2  C 0.5857864376269042 2  0.25 1.6642135623730958  0.25 1.25  C 0.25 0.8357864376269042  0.5857864376269042 0.5  1 0.5  L 7 0.5  C 7.414213562373096 0.5  7.75 0.8357864376269042  7.75 1.25  C 7.75 1.6642135623730958  7.414213562373096 2  7 2  L 1 2  Z " fill-rule="evenodd" />
    </mask>
  </defs>
  <g transform="matrix(1 0 0 1 -8 -13 )">
    <path d="M 1 2  C 0.5857864376269042 2  0.25 1.6642135623730958  0.25 1.25  C 0.25 0.8357864376269042  0.5857864376269042 0.5  1 0.5  L 7 0.5  C 7.414213562373096 0.5  7.75 0.8357864376269042  7.75 1.25  C 7.75 1.6642135623730958  7.414213562373096 2  7 2  L 1 2  Z " fill-rule="nonzero" fill="rgba(0, 0, 0, 1)" stroke="none" transform="matrix(1 0 0 1 8 13 )" class="fill" />
    <path d="M 1 2  C 0.5857864376269042 2  0.25 1.6642135623730958  0.25 1.25  C 0.25 0.8357864376269042  0.5857864376269042 0.5  1 0.5  L 7 0.5  C 7.414213562373096 0.5  7.75 0.8357864376269042  7.75 1.25  C 7.75 1.6642135623730958  7.414213562373096 2  7 2  L 1 2  Z " stroke-width="0" stroke-dasharray="0" stroke="rgba(255, 255, 255, 0)" fill="none" transform="matrix(1 0 0 1 8 13 )" class="stroke" mask="url(#Clip5000)" />
  </g>
</svg>