<?xml version="1.0" encoding="utf-8"?>
<svg version="1.1" xmlns:xlink="http://www.w3.org/1999/xlink" width="64px" height="51px" xmlns="http://www.w3.org/2000/svg">
  <defs>
    <pattern id="BGPattern" patternUnits="userSpaceOnUse" alignment="0 0" imageRepeat="None" />
    <mask fill="white" id="Clip1968">
      <path d="M 63.875 38.25  C 63.875 37.3734375  63.1578125 36.65625  62.28125 36  L 8.093750000000002 36  C 7.217187500000002 36.65625  6.500000000000002 37.3734375  6.500000000000002 38.25  L 6.500000000000002 39.84375  C 6.500000000000002 40.7203125  7.217187500000002 41.4375  8.093750000000002 41  L 62.28125 41  C 63.1578125 41.4375  63.875 40.7203125  63.875 39.84375  L 63.875 38.25  Z M 16.0625 47.8125  C 16.0625 46.9359375  15.345312500000002 46.21875  14.468750000000002 46  L 1.7187500000000018 46  C 0.8421875000000018 46.21875  0.12500000000000178 46.9359375  0.12500000000000178 47.8125  L 0.12500000000000178 49.40625  C 0.12500000000000178 50.2828125  0.8421875000000018 51  1.7187500000000018 51  L 14.468750000000002 51  C 15.345312500000002 51  16.0625 50.2828125  16.0625 49.40625  L 16.0625 47.8125  Z M 57.5 47.8125  C 57.5 46.9359375  56.7828125 46.21875  55.90625 46  L 22.4375 46  C 21.5609375 46.21875  20.84375 46.9359375  20.84375 47.8125  L 20.84375 49.40625  C 20.84375 50.2828125  21.5609375 51  22.4375 51  L 55.90625 51  C 56.7828125 51  57.5 50.2828125  57.5 49.40625  L 57.5 47.8125  Z M 0.12500000000000178 14.34375  C 0.12500000000000178 22.2626953125  6.549804687500002 28.6875  14.468750000000002 28  L 30.017773437500004 28  C 32.258984375000004 30.649804687499998  35.1576171875 31.875  38.375 31.875  C 41.5923828125 31.875  44.4810546875 30.649804687499998  46.732226562499996 28.6875  L 52.71875 28.6875  C 58.884570312499996 28.6875  63.875 23.6970703125  63.875 17.53125  C 63.875 11.365429687499999  58.884570312499996 6.375  52.71875 6.375  C 50.92578125 6.375  49.2623046875 6.833203125  47.7681640625 7.5802734375  C 45.34765625 3.087890625  40.64609375 0  35.1875 0  C 31.103515625 0  27.437890625 1.7232421875000001  24.828125 4.4624999999999995  C 22.218359375000006 1.7232421875000001  18.552734375 0  14.468750000000002 0  C 6.549804687500002 0  0.12500000000000178 6.4248046875  0.12500000000000178 14.34375  Z " fill-rule="evenodd" />
    </mask>
  </defs>
  <g>
    <path d="M 63.875 38.25  C 63.875 37.3734375  63.1578125 36.65625  62.28125 36  L 8.093750000000002 36  C 7.217187500000002 36.65625  6.500000000000002 37.3734375  6.500000000000002 38.25  L 6.500000000000002 39.84375  C 6.500000000000002 40.7203125  7.217187500000002 41.4375  8.093750000000002 41  L 62.28125 41  C 63.1578125 41.4375  63.875 40.7203125  63.875 39.84375  L 63.875 38.25  Z M 16.0625 47.8125  C 16.0625 46.9359375  15.345312500000002 46.21875  14.468750000000002 46  L 1.7187500000000018 46  C 0.8421875000000018 46.21875  0.12500000000000178 46.9359375  0.12500000000000178 47.8125  L 0.12500000000000178 49.40625  C 0.12500000000000178 50.2828125  0.8421875000000018 51  1.7187500000000018 51  L 14.468750000000002 51  C 15.345312500000002 51  16.0625 50.2828125  16.0625 49.40625  L 16.0625 47.8125  Z M 57.5 47.8125  C 57.5 46.9359375  56.7828125 46.21875  55.90625 46  L 22.4375 46  C 21.5609375 46.21875  20.84375 46.9359375  20.84375 47.8125  L 20.84375 49.40625  C 20.84375 50.2828125  21.5609375 51  22.4375 51  L 55.90625 51  C 56.7828125 51  57.5 50.2828125  57.5 49.40625  L 57.5 47.8125  Z M 0.12500000000000178 14.34375  C 0.12500000000000178 22.2626953125  6.549804687500002 28.6875  14.468750000000002 28  L 30.017773437500004 28  C 32.258984375000004 30.649804687499998  35.1576171875 31.875  38.375 31.875  C 41.5923828125 31.875  44.4810546875 30.649804687499998  46.732226562499996 28.6875  L 52.71875 28.6875  C 58.884570312499996 28.6875  63.875 23.6970703125  63.875 17.53125  C 63.875 11.365429687499999  58.884570312499996 6.375  52.71875 6.375  C 50.92578125 6.375  49.2623046875 6.833203125  47.7681640625 7.5802734375  C 45.34765625 3.087890625  40.64609375 0  35.1875 0  C 31.103515625 0  27.437890625 1.7232421875000001  24.828125 4.4624999999999995  C 22.218359375000006 1.7232421875000001  18.552734375 0  14.468750000000002 0  C 6.549804687500002 0  0.12500000000000178 6.4248046875  0.12500000000000178 14.34375  Z " fill-rule="nonzero" fill="rgba(0, 0, 0, 1)" stroke="none" class="fill" />
    <path d="M 63.875 38.25  C 63.875 37.3734375  63.1578125 36.65625  62.28125 36  L 8.093750000000002 36  C 7.217187500000002 36.65625  6.500000000000002 37.3734375  6.500000000000002 38.25  L 6.500000000000002 39.84375  C 6.500000000000002 40.7203125  7.217187500000002 41.4375  8.093750000000002 41  L 62.28125 41  C 63.1578125 41.4375  63.875 40.7203125  63.875 39.84375  L 63.875 38.25  Z " stroke-width="0" stroke-dasharray="0" stroke="rgba(255, 255, 255, 0)" fill="none" class="stroke" mask="url(#Clip1968)" />
    <path d="M 16.0625 47.8125  C 16.0625 46.9359375  15.345312500000002 46.21875  14.468750000000002 46  L 1.7187500000000018 46  C 0.8421875000000018 46.21875  0.12500000000000178 46.9359375  0.12500000000000178 47.8125  L 0.12500000000000178 49.40625  C 0.12500000000000178 50.2828125  0.8421875000000018 51  1.7187500000000018 51  L 14.468750000000002 51  C 15.345312500000002 51  16.0625 50.2828125  16.0625 49.40625  L 16.0625 47.8125  Z " stroke-width="0" stroke-dasharray="0" stroke="rgba(255, 255, 255, 0)" fill="none" class="stroke" mask="url(#Clip1968)" />
    <path d="M 57.5 47.8125  C 57.5 46.9359375  56.7828125 46.21875  55.90625 46  L 22.4375 46  C 21.5609375 46.21875  20.84375 46.9359375  20.84375 47.8125  L 20.84375 49.40625  C 20.84375 50.2828125  21.5609375 51  22.4375 51  L 55.90625 51  C 56.7828125 51  57.5 50.2828125  57.5 49.40625  L 57.5 47.8125  Z " stroke-width="0" stroke-dasharray="0" stroke="rgba(255, 255, 255, 0)" fill="none" class="stroke" mask="url(#Clip1968)" />
    <path d="M 0.12500000000000178 14.34375  C 0.12500000000000178 22.2626953125  6.549804687500002 28.6875  14.468750000000002 28  L 30.017773437500004 28  C 32.258984375000004 30.649804687499998  35.1576171875 31.875  38.375 31.875  C 41.5923828125 31.875  44.4810546875 30.649804687499998  46.732226562499996 28.6875  L 52.71875 28.6875  C 58.884570312499996 28.6875  63.875 23.6970703125  63.875 17.53125  C 63.875 11.365429687499999  58.884570312499996 6.375  52.71875 6.375  C 50.92578125 6.375  49.2623046875 6.833203125  47.7681640625 7.5802734375  C 45.34765625 3.087890625  40.64609375 0  35.1875 0  C 31.103515625 0  27.437890625 1.7232421875000001  24.828125 4.4624999999999995  C 22.218359375000006 1.7232421875000001  18.552734375 0  14.468750000000002 0  C 6.549804687500002 0  0.12500000000000178 6.4248046875  0.12500000000000178 14.34375  Z " stroke-width="0" stroke-dasharray="0" stroke="rgba(255, 255, 255, 0)" fill="none" class="stroke" mask="url(#Clip1968)" />
  </g>
</svg>