<?xml version="1.0" encoding="utf-8"?>
<svg version="1.1" xmlns:xlink="http://www.w3.org/1999/xlink" width="49px" height="40px" xmlns="http://www.w3.org/2000/svg">
  <defs>
    <pattern id="BGPattern" patternUnits="userSpaceOnUse" alignment="0 0" imageRepeat="None" />
    <mask fill="white" id="Clip7546">
      <path d="M 24.46 1  L 24.46 0.4500000000000002  L 24.44 1  L 12.234 1  L 0.9979999999999993 19.958  L 12.234 39  L 37.832 39  L 37.912 39.55  L 42.18 32.08  L 43.216 30.293999999999997  L 43.2 30.293999999999997  L 43.216 30.266  L 41.964 28.766  L 43.754 28.766  L 43.766 28.745999999999995  L 43.782 28.766  L 48.995999999999995 19.988  L 43.782 11.208  L 43.775999999999996 11.218  L 43.754 11.18  L 41.864 11.18  L 43.126 9.652  L 37.912 0.5139999999999993  L 37.9 0.5339999999999989  L 37.852 1  L 24.46 1  Z M 19.21 9.644  L 19.212 10  L 31.589999999999996 10  L 30.532000000000004 11.175999999999998  L 30.484 11.175999999999998  L 35.28 19.206  L 37.03 19.206  L 36.476 19.862  L 37.19 20.732  L 35.278 20.732  L 30.481999999999996 28.762  L 30.535999999999998 28.762  L 31.582 30  L 19.146 30  L 13.166 19.954  L 19.21 9.644  Z " fill-rule="evenodd" />
    </mask>
  </defs>
  <g>
    <path d="M 24.46 1  L 24.46 0.4500000000000002  L 24.44 1  L 12.234 1  L 0.9979999999999993 19.958  L 12.234 39  L 37.832 39  L 37.912 39.55  L 42.18 32.08  L 43.216 30.293999999999997  L 43.2 30.293999999999997  L 43.216 30.266  L 41.964 28.766  L 43.754 28.766  L 43.766 28.745999999999995  L 43.782 28.766  L 48.995999999999995 19.988  L 43.782 11.208  L 43.775999999999996 11.218  L 43.754 11.18  L 41.864 11.18  L 43.126 9.652  L 37.912 0.5139999999999993  L 37.9 0.5339999999999989  L 37.852 1  L 24.46 1  Z M 19.21 9.644  L 19.212 10  L 31.589999999999996 10  L 30.532000000000004 11.175999999999998  L 30.484 11.175999999999998  L 35.28 19.206  L 37.03 19.206  L 36.476 19.862  L 37.19 20.732  L 35.278 20.732  L 30.481999999999996 28.762  L 30.535999999999998 28.762  L 31.582 30  L 19.146 30  L 13.166 19.954  L 19.21 9.644  Z " fill-rule="nonzero" fill="rgba(41, 171, 50, 1)" stroke="none" class="fill" />
    <path d="M 24.46 1  L 24.46 0.4500000000000002  L 24.44 1  L 12.234 1  L 0.9979999999999993 19.958  L 12.234 39  L 37.832 39  L 37.912 39.55  L 42.18 32.08  L 43.216 30.293999999999997  L 43.2 30.293999999999997  L 43.216 30.266  L 41.964 28.766  L 43.754 28.766  L 43.766 28.745999999999995  L 43.782 28.766  L 48.995999999999995 19.988  L 43.782 11.208  L 43.775999999999996 11.218  L 43.754 11.18  L 41.864 11.18  L 43.126 9.652  L 37.912 0.5139999999999993  L 37.9 0.5339999999999989  L 37.852 1  L 24.46 1  Z " stroke-width="0" stroke-dasharray="0" stroke="rgba(255, 255, 255, 0)" fill="none" class="stroke" mask="url(#Clip7546)" />
    <path d="M 19.21 9.644  L 19.212 10  L 31.589999999999996 10  L 30.532000000000004 11.175999999999998  L 30.484 11.175999999999998  L 35.28 19.206  L 37.03 19.206  L 36.476 19.862  L 37.19 20.732  L 35.278 20.732  L 30.481999999999996 28.762  L 30.535999999999998 28.762  L 31.582 30  L 19.146 30  L 13.166 19.954  L 19.21 9.644  Z " stroke-width="0" stroke-dasharray="0" stroke="rgba(255, 255, 255, 0)" fill="none" class="stroke" mask="url(#Clip7546)" />
  </g>
</svg>