<?xml version="1.0" encoding="utf-8"?>
<svg version="1.1" xmlns:xlink="http://www.w3.org/1999/xlink" width="12px" height="5px" xmlns="http://www.w3.org/2000/svg">
  <defs>
    <pattern id="BGPattern" patternUnits="userSpaceOnUse" alignment="0 0" imageRepeat="None" />
    <mask fill="white" id="Clip3528">
      <path d="M 11.833000000000002 1.871299075555788  C 10.536855990474539 3.8269205067935816  8.34615523322018 5.00196629339441  6 4.999997529941181  C 3.6538447667798177 5.00196629339441  1.4631440095254664 3.826920506793585  0.16699999999999982 1.8712990755557861  L 1.8330000000000002 0.763899622624415  C 2.7595400280022915 2.1604363924123895  4.324054505713624 2.9999807342645104  6 2.9999807342645104  C 7.675945494286378 2.9999807342645104  9.240459971997709 2.1604363924123895  10.167000000000002 0.7638996226244132  L 11.833000000000002 1.871299075555788  Z " fill-rule="evenodd" />
    </mask>
  </defs>
  <g transform="matrix(1 0 0 1 -10 -14 )">
    <path d="M 11.833000000000002 1.871299075555788  C 10.536855990474539 3.8269205067935816  8.34615523322018 5.00196629339441  6 4.999997529941181  C 3.6538447667798177 5.00196629339441  1.4631440095254664 3.826920506793585  0.16699999999999982 1.8712990755557861  L 1.8330000000000002 0.763899622624415  C 2.7595400280022915 2.1604363924123895  4.324054505713624 2.9999807342645104  6 2.9999807342645104  C 7.675945494286378 2.9999807342645104  9.240459971997709 2.1604363924123895  10.167000000000002 0.7638996226244132  L 11.833000000000002 1.871299075555788  Z " fill-rule="nonzero" fill="rgba(0, 0, 0, 1)" stroke="none" transform="matrix(1 0 0 1 10 14 )" class="fill" />
    <path d="M 11.833000000000002 1.871299075555788  C 10.536855990474539 3.8269205067935816  8.34615523322018 5.00196629339441  6 4.999997529941181  C 3.6538447667798177 5.00196629339441  1.4631440095254664 3.826920506793585  0.16699999999999982 1.8712990755557861  L 1.8330000000000002 0.763899622624415  C 2.7595400280022915 2.1604363924123895  4.324054505713624 2.9999807342645104  6 2.9999807342645104  C 7.675945494286378 2.9999807342645104  9.240459971997709 2.1604363924123895  10.167000000000002 0.7638996226244132  L 11.833000000000002 1.871299075555788  Z " stroke-width="0" stroke-dasharray="0" stroke="rgba(255, 255, 255, 0)" fill="none" transform="matrix(1 0 0 1 10 14 )" class="stroke" mask="url(#Clip3528)" />
  </g>
</svg>