<?xml version="1.0" encoding="utf-8"?>
<svg version="1.1" xmlns:xlink="http://www.w3.org/1999/xlink" width="20px" height="26px" xmlns="http://www.w3.org/2000/svg">
  <defs>
    <pattern id="BGPattern" patternUnits="userSpaceOnUse" alignment="0 0" imageRepeat="None" />
    <mask fill="white" id="Clip289">
      <path d="M 16.336000000000002 25.8  L 3.6639999999999997 25.8  C 1.7759999999999998 25.8  0.40000000000000036 24.424  0.40000000000000036 22.536  L 0.40000000000000036 3.464000000000002  C 0.40000000000000036 1.5760000000000023  1.7759999999999998 0.2000000000000024  3.6639999999999997 0.2000000000000024  L 11.472000000000001 0.2000000000000024  C 12.608 0.2000000000000024  13.632000000000001 0.6160000000000023  14.432000000000002 1.4480000000000022  L 18.432000000000002 5.544000000000002  C 19.200000000000003 6.344000000000003  19.6 7.320000000000002  19.6 8.424000000000003  L 19.6 22.536  C 19.6 24.424  18.224 25.8  16.336000000000002 25.8  Z M 2 22.535999999999998  C 2.0000000000000018 23.543999999999997  2.6560000000000024 24.2  3.6639999999999997 24  L 16.336 24  C 17.343999999999998 24.2  18 23.544  18 22.535999999999998  L 18 8.423999999999998  C 18 7.719999999999996  17.776 7.159999999999998  17.28 6.647999999999998  L 13.280000000000001 2.551999999999998  C 12.784000000000002 2.0399999999999974  12.208000000000002 1.799999999999998  11.472000000000001 1.799999999999998  L 3.6640000000000015 1.799999999999998  C 2.6560000000000024 1.799999999999998  2.0000000000000018 2.4559999999999977  2 3.4639999999999977  L 2 22.535999999999998  Z M 8.768 19.400000000000002  L 7.4879999999999995 19.4  L 7.4879999999999995 12.36  L 9.776 12.36  C 11.440000000000001 12.36  12.512 13.096  12.512 14.6  C 12.512 16.168000000000003  11.392 16.92  9.776 16.92  L 8.768 16.92  L 8.768 19.400000000000002  Z M 8.768 13.368  L 8.768 15.896  L 9.776 15.896  C 10.608 15.896  11.2 15.496000000000002  11.2 14.6  C 11.2 13.736  10.64 13.368  9.776 13.368  L 8.768 13.368  Z " fill-rule="evenodd" />
    </mask>
  </defs>
  <g>
    <path d="M 16.336000000000002 25.8  L 3.6639999999999997 25.8  C 1.7759999999999998 25.8  0.40000000000000036 24.424  0.40000000000000036 22.536  L 0.40000000000000036 3.464000000000002  C 0.40000000000000036 1.5760000000000023  1.7759999999999998 0.2000000000000024  3.6639999999999997 0.2000000000000024  L 11.472000000000001 0.2000000000000024  C 12.608 0.2000000000000024  13.632000000000001 0.6160000000000023  14.432000000000002 1.4480000000000022  L 18.432000000000002 5.544000000000002  C 19.200000000000003 6.344000000000003  19.6 7.320000000000002  19.6 8.424000000000003  L 19.6 22.536  C 19.6 24.424  18.224 25.8  16.336000000000002 25.8  Z M 2 22.535999999999998  C 2.0000000000000018 23.543999999999997  2.6560000000000024 24.2  3.6639999999999997 24  L 16.336 24  C 17.343999999999998 24.2  18 23.544  18 22.535999999999998  L 18 8.423999999999998  C 18 7.719999999999996  17.776 7.159999999999998  17.28 6.647999999999998  L 13.280000000000001 2.551999999999998  C 12.784000000000002 2.0399999999999974  12.208000000000002 1.799999999999998  11.472000000000001 1.799999999999998  L 3.6640000000000015 1.799999999999998  C 2.6560000000000024 1.799999999999998  2.0000000000000018 2.4559999999999977  2 3.4639999999999977  L 2 22.535999999999998  Z M 8.768 19.400000000000002  L 7.4879999999999995 19.4  L 7.4879999999999995 12.36  L 9.776 12.36  C 11.440000000000001 12.36  12.512 13.096  12.512 14.6  C 12.512 16.168000000000003  11.392 16.92  9.776 16.92  L 8.768 16.92  L 8.768 19.400000000000002  Z M 8.768 13.368  L 8.768 15.896  L 9.776 15.896  C 10.608 15.896  11.2 15.496000000000002  11.2 14.6  C 11.2 13.736  10.64 13.368  9.776 13.368  L 8.768 13.368  Z " fill-rule="nonzero" fill="rgba(0, 0, 0, 1)" stroke="none" class="fill" />
    <path d="M 16.336000000000002 25.8  L 3.6639999999999997 25.8  C 1.7759999999999998 25.8  0.40000000000000036 24.424  0.40000000000000036 22.536  L 0.40000000000000036 3.464000000000002  C 0.40000000000000036 1.5760000000000023  1.7759999999999998 0.2000000000000024  3.6639999999999997 0.2000000000000024  L 11.472000000000001 0.2000000000000024  C 12.608 0.2000000000000024  13.632000000000001 0.6160000000000023  14.432000000000002 1.4480000000000022  L 18.432000000000002 5.544000000000002  C 19.200000000000003 6.344000000000003  19.6 7.320000000000002  19.6 8.424000000000003  L 19.6 22.536  C 19.6 24.424  18.224 25.8  16.336000000000002 25.8  Z " stroke-width="0" stroke-dasharray="0" stroke="rgba(255, 255, 255, 0)" fill="none" class="stroke" mask="url(#Clip289)" />
    <path d="M 2 22.535999999999998  C 2.0000000000000018 23.543999999999997  2.6560000000000024 24.2  3.6639999999999997 24  L 16.336 24  C 17.343999999999998 24.2  18 23.544  18 22.535999999999998  L 18 8.423999999999998  C 18 7.719999999999996  17.776 7.159999999999998  17.28 6.647999999999998  L 13.280000000000001 2.551999999999998  C 12.784000000000002 2.0399999999999974  12.208000000000002 1.799999999999998  11.472000000000001 1.799999999999998  L 3.6640000000000015 1.799999999999998  C 2.6560000000000024 1.799999999999998  2.0000000000000018 2.4559999999999977  2 3.4639999999999977  L 2 22.535999999999998  Z " stroke-width="0" stroke-dasharray="0" stroke="rgba(255, 255, 255, 0)" fill="none" class="stroke" mask="url(#Clip289)" />
    <path d="M 8.768 19.400000000000002  L 7.4879999999999995 19.4  L 7.4879999999999995 12.36  L 9.776 12.36  C 11.440000000000001 12.36  12.512 13.096  12.512 14.6  C 12.512 16.168000000000003  11.392 16.92  9.776 16.92  L 8.768 16.92  L 8.768 19.400000000000002  Z " stroke-width="0" stroke-dasharray="0" stroke="rgba(255, 255, 255, 0)" fill="none" class="stroke" mask="url(#Clip289)" />
    <path d="M 8.768 13.368  L 8.768 15.896  L 9.776 15.896  C 10.608 15.896  11.2 15.496000000000002  11.2 14.6  C 11.2 13.736  10.64 13.368  9.776 13.368  L 8.768 13.368  Z " stroke-width="0" stroke-dasharray="0" stroke="rgba(255, 255, 255, 0)" fill="none" class="stroke" mask="url(#Clip289)" />
  </g>
</svg>