<?xml version="1.0" encoding="utf-8"?>
<svg version="1.1" xmlns:xlink="http://www.w3.org/1999/xlink" width="50px" height="50px" xmlns="http://www.w3.org/2000/svg">
  <defs>
    <pattern id="BGPattern" patternUnits="userSpaceOnUse" alignment="0 0" imageRepeat="None" />
    <mask fill="white" id="Clip1859">
      <path d="M 50 23.214285714285722  C 50 21.2421875  48.40066964285714 19.642857142857167  46.428571428571445 20  L 30 20  L 30 3.571428571428555  C 30.35714285714286 1.5993303571428328  28.7578125 0  26.785714285714278 0  L 23.214285714285722 0  C 21.2421875 0  19.64285714285714 1.5993303571428328  20 3.571428571428555  L 20 20  L 3.5714285714285836 20  C 1.5993303571428612 19.642857142857167  0 21.2421875  0 23.214285714285722  L 0 26.785714285714278  C 0 28.7578125  1.5993303571428612 30.357142857142833  3.5714285714285836 30  L 20 30  L 20 46.428571428571445  C 19.64285714285714 48.40066964285717  21.2421875 50  23.214285714285722 50  L 26.785714285714278 50  C 28.7578125 50  30.35714285714286 48.40066964285717  30 46.428571428571445  L 30 30  L 46.428571428571445 30  C 48.40066964285714 30.357142857142833  50 28.7578125  50 26.785714285714278  L 50 23.214285714285722  Z " fill-rule="evenodd" />
    </mask>
  </defs>
  <g>
    <path d="M 50 23.214285714285722  C 50 21.2421875  48.40066964285714 19.642857142857167  46.428571428571445 20  L 30 20  L 30 3.571428571428555  C 30.35714285714286 1.5993303571428328  28.7578125 0  26.785714285714278 0  L 23.214285714285722 0  C 21.2421875 0  19.64285714285714 1.5993303571428328  20 3.571428571428555  L 20 20  L 3.5714285714285836 20  C 1.5993303571428612 19.642857142857167  0 21.2421875  0 23.214285714285722  L 0 26.785714285714278  C 0 28.7578125  1.5993303571428612 30.357142857142833  3.5714285714285836 30  L 20 30  L 20 46.428571428571445  C 19.64285714285714 48.40066964285717  21.2421875 50  23.214285714285722 50  L 26.785714285714278 50  C 28.7578125 50  30.35714285714286 48.40066964285717  30 46.428571428571445  L 30 30  L 46.428571428571445 30  C 48.40066964285714 30.357142857142833  50 28.7578125  50 26.785714285714278  L 50 23.214285714285722  Z " fill-rule="nonzero" fill="rgba(0, 0, 0, 1)" stroke="none" class="fill" />
    <path d="M 50 23.214285714285722  C 50 21.2421875  48.40066964285714 19.642857142857167  46.428571428571445 20  L 30 20  L 30 3.571428571428555  C 30.35714285714286 1.5993303571428328  28.7578125 0  26.785714285714278 0  L 23.214285714285722 0  C 21.2421875 0  19.64285714285714 1.5993303571428328  20 3.571428571428555  L 20 20  L 3.5714285714285836 20  C 1.5993303571428612 19.642857142857167  0 21.2421875  0 23.214285714285722  L 0 26.785714285714278  C 0 28.7578125  1.5993303571428612 30.357142857142833  3.5714285714285836 30  L 20 30  L 20 46.428571428571445  C 19.64285714285714 48.40066964285717  21.2421875 50  23.214285714285722 50  L 26.785714285714278 50  C 28.7578125 50  30.35714285714286 48.40066964285717  30 46.428571428571445  L 30 30  L 46.428571428571445 30  C 48.40066964285714 30.357142857142833  50 28.7578125  50 26.785714285714278  L 50 23.214285714285722  Z " stroke-width="0" stroke-dasharray="0" stroke="rgba(255, 255, 255, 0)" fill="none" class="stroke" mask="url(#Clip1859)" />
  </g>
</svg>