<?xml version="1.0" encoding="utf-8"?>
<svg version="1.1" xmlns:xlink="http://www.w3.org/1999/xlink" width="50px" height="44px" xmlns="http://www.w3.org/2000/svg">
  <defs>
    <pattern id="BGPattern" patternUnits="userSpaceOnUse" alignment="0 0" imageRepeat="None" />
    <mask fill="white" id="Clip1947">
      <path d="M 38.052734375 6.802734375  C 38.9677734375 7.7177734375  38.9677734375 9.2021484375  38.052734375 10.1171875  L 22.6171875 25.552734374999996  C 21.7021484375 26.4677734375  20.2177734375 26.4677734375  19.302734375 25.552734374999996  L 18.197265625 24.447265625  C 17.2822265625 23.5322265625  17.2822265625 22.0478515625  18.197265625 21.1328125  L 18.2080078125 21.1220703125  C 14.884765624999998 17.1953125  14.7744140625 11.4599609375  17.876953125 7.4130859375  C 16.7080078125 6.67578125  15.324218749999998 6.250000000000001  13.84375 6.250000000000001  C 9.65625 6.250000000000001  6.25 9.65625  7 13.84375  L 7 43.75  L 0 43.75  L 0 13.84375  C 0 6.2099609375  6.2099609375 0  13.84375 0  C 17.4501953125 0  20.7392578125 1.38671875  23.205078125 3.654296875  C 26.7109375 2.5302734375  30.67578125 3.21484375  33.6220703125 5.7080078125  L 33.6328125 5.697265625  C 34.5478515625 4.7822265625  36.0322265625 4.7822265625  36.947265625 5.697265625  L 38.052734375 6.802734375  Z M 35.9375 15.625  C 36.80048828125001 15.625  37.5 16.32451171874999  37.5 17.1875  C 37.5 18.05048828125001  36.80048828125001 18.75  35.9375 18.75  C 35.07451171874999 18.75  34.375 18.05048828125001  34.375 17.1875  C 34.375 16.32451171874999  35.07451171874999 15.625  35.9375 15.625  Z M 42.1875 18.75  C 41.32451171874999 18.75  40.625 18.05048828125001  40.625 17.1875  C 40.625 16.32451171874999  41.32451171874999 15.625  42.1875 15.625  C 43.05048828125001 15.625  43.75 16.32451171874999  43.75 17.1875  C 43.75 18.05048828125001  43.05048828125001 18.75  42.1875 18.75  Z M 48.4375 15.625  C 49.30048828125001 15.625  50 16.32451171874999  50 17.1875  C 50 18.05048828125001  49.30048828125001 18.75  48.4375 18.75  C 47.57451171874999 18.75  46.875 18.05048828125001  46.875 17.1875  C 46.875 16.32451171874999  47.57451171874999 15.625  48.4375 15.625  Z M 32.8125 18.75  C 33.67548828125001 18.75  34.375 19.44951171874999  34.375 20.3125  C 34.375 21.17548828125001  33.67548828125001 21.875  32.8125 21.875  C 31.94951171874999 21.875  31.25 21.17548828125001  31.25 20.3125  C 31.25 19.44951171874999  31.94951171874999 18.75  32.8125 18.75  Z M 37.5 20.3125  C 37.5 19.44951171874999  38.19951171874999 18.75  39.0625 18.75  C 39.92548828125001 18.75  40.625 19.44951171874999  40.625 20.3125  C 40.625 21.17548828125001  39.92548828125001 21.875  39.0625 21.875  C 38.19951171874999 21.875  37.5 21.17548828125001  37.5 20.3125  Z M 45.3125 18.75  C 46.17548828125001 18.75  46.875 19.44951171874999  46.875 20.3125  C 46.875 21.17548828125001  46.17548828125001 21.875  45.3125 21.875  C 44.44951171874999 21.875  43.75 21.17548828125001  43.75 20.3125  C 43.75 19.44951171874999  44.44951171874999 18.75  45.3125 18.75  Z M 29.6875 21.875  C 30.55048828125001 21.875  31.25 22.57451171874999  31.25 23.4375  C 31.25 24.30048828125001  30.55048828125001 25.000000000000004  29.6875 25.000000000000004  C 28.82451171874999 25.000000000000004  28.125 24.30048828125001  28.125 23.4375  C 28.125 22.57451171874999  28.82451171874999 21.875  29.6875 21.875  Z M 35.9375 25.000000000000004  C 35.07451171874999 25.000000000000004  34.375 24.30048828125001  34.375 23.4375  C 34.375 22.57451171874999  35.07451171874999 21.875  35.9375 21.875  C 36.80048828125001 21.875  37.5 22.57451171874999  37.5 23.4375  C 37.5 24.30048828125001  36.80048828125001 25.000000000000004  35.9375 25.000000000000004  Z M 42.1875 21.875  C 43.05048828125001 21.875  43.75 22.57451171874999  43.75 23.4375  C 43.75 24.30048828125001  43.05048828125001 25.000000000000004  42.1875 25.000000000000004  C 41.32451171874999 25.000000000000004  40.625 24.30048828125001  40.625 23.4375  C 40.625 22.57451171874999  41.32451171874999 21.875  42.1875 21.875  Z M 32.8125 28.125  C 31.94951171874999 28.125  31.25 27.425488281250008  31.25 26.562499999999996  C 31.25 25.699511718749985  31.94951171874999 25.000000000000004  32.8125 25.000000000000004  C 33.67548828125001 25.000000000000004  34.375 25.699511718749985  34.375 26.562499999999996  C 34.375 27.425488281250008  33.67548828125001 28.125  32.8125 28.125  Z M 39.0625 25.000000000000004  C 39.92548828125001 25.000000000000004  40.625 25.699511718749985  40.625 26.562499999999996  C 40.625 27.425488281250008  39.92548828125001 28.125  39.0625 28.125  C 38.19951171874999 28.125  37.5 27.425488281250008  37.5 26.562499999999996  C 37.5 25.699511718749985  38.19951171874999 25.000000000000004  39.0625 25.000000000000004  Z M 29.6875 28.125  C 30.55048828125001 28.125  31.25 28.82451171874999  31.25 29.6875  C 31.25 30.55048828125001  30.55048828125001 31.25  29.6875 31.25  C 28.82451171874999 31.25  28.125 30.55048828125001  28.125 29.6875  C 28.125 28.82451171874999  28.82451171874999 28.125  29.6875 28.125  Z M 35.9375 28.125  C 36.80048828125001 28.125  37.5 28.82451171874999  37.5 29.6875  C 37.5 30.55048828125001  36.80048828125001 31.25  35.9375 31.25  C 35.07451171874999 31.25  34.375 30.55048828125001  34.375 29.6875  C 34.375 28.82451171874999  35.07451171874999 28.125  35.9375 28.125  Z M 32.8125 31.25  C 33.67548828125001 31.25  34.375 31.94951171874999  34.375 32.8125  C 34.375 33.67548828125001  33.67548828125001 34.375  32.8125 34.375  C 31.94951171874999 34.375  31.25 33.67548828125001  31.25 32.8125  C 31.25 31.94951171874999  31.94951171874999 31.25  32.8125 31.25  Z M 29.6875 34.375  C 30.55048828125001 34.375  31.25 35.07451171874999  31.25 35.9375  C 31.25 36.80048828125001  30.55048828125001 37.5  29.6875 37.5  C 28.82451171874999 37.5  28.125 36.80048828125001  28.125 35.9375  C 28.125 35.07451171874999  28.82451171874999 34.375  29.6875 34.375  Z " fill-rule="evenodd" />
    </mask>
  </defs>
  <g>
    <path d="M 38.052734375 6.802734375  C 38.9677734375 7.7177734375  38.9677734375 9.2021484375  38.052734375 10.1171875  L 22.6171875 25.552734374999996  C 21.7021484375 26.4677734375  20.2177734375 26.4677734375  19.302734375 25.552734374999996  L 18.197265625 24.447265625  C 17.2822265625 23.5322265625  17.2822265625 22.0478515625  18.197265625 21.1328125  L 18.2080078125 21.1220703125  C 14.884765624999998 17.1953125  14.7744140625 11.4599609375  17.876953125 7.4130859375  C 16.7080078125 6.67578125  15.324218749999998 6.250000000000001  13.84375 6.250000000000001  C 9.65625 6.250000000000001  6.25 9.65625  7 13.84375  L 7 43.75  L 0 43.75  L 0 13.84375  C 0 6.2099609375  6.2099609375 0  13.84375 0  C 17.4501953125 0  20.7392578125 1.38671875  23.205078125 3.654296875  C 26.7109375 2.5302734375  30.67578125 3.21484375  33.6220703125 5.7080078125  L 33.6328125 5.697265625  C 34.5478515625 4.7822265625  36.0322265625 4.7822265625  36.947265625 5.697265625  L 38.052734375 6.802734375  Z M 35.9375 15.625  C 36.80048828125001 15.625  37.5 16.32451171874999  37.5 17.1875  C 37.5 18.05048828125001  36.80048828125001 18.75  35.9375 18.75  C 35.07451171874999 18.75  34.375 18.05048828125001  34.375 17.1875  C 34.375 16.32451171874999  35.07451171874999 15.625  35.9375 15.625  Z M 42.1875 18.75  C 41.32451171874999 18.75  40.625 18.05048828125001  40.625 17.1875  C 40.625 16.32451171874999  41.32451171874999 15.625  42.1875 15.625  C 43.05048828125001 15.625  43.75 16.32451171874999  43.75 17.1875  C 43.75 18.05048828125001  43.05048828125001 18.75  42.1875 18.75  Z M 48.4375 15.625  C 49.30048828125001 15.625  50 16.32451171874999  50 17.1875  C 50 18.05048828125001  49.30048828125001 18.75  48.4375 18.75  C 47.57451171874999 18.75  46.875 18.05048828125001  46.875 17.1875  C 46.875 16.32451171874999  47.57451171874999 15.625  48.4375 15.625  Z M 32.8125 18.75  C 33.67548828125001 18.75  34.375 19.44951171874999  34.375 20.3125  C 34.375 21.17548828125001  33.67548828125001 21.875  32.8125 21.875  C 31.94951171874999 21.875  31.25 21.17548828125001  31.25 20.3125  C 31.25 19.44951171874999  31.94951171874999 18.75  32.8125 18.75  Z M 37.5 20.3125  C 37.5 19.44951171874999  38.19951171874999 18.75  39.0625 18.75  C 39.92548828125001 18.75  40.625 19.44951171874999  40.625 20.3125  C 40.625 21.17548828125001  39.92548828125001 21.875  39.0625 21.875  C 38.19951171874999 21.875  37.5 21.17548828125001  37.5 20.3125  Z M 45.3125 18.75  C 46.17548828125001 18.75  46.875 19.44951171874999  46.875 20.3125  C 46.875 21.17548828125001  46.17548828125001 21.875  45.3125 21.875  C 44.44951171874999 21.875  43.75 21.17548828125001  43.75 20.3125  C 43.75 19.44951171874999  44.44951171874999 18.75  45.3125 18.75  Z M 29.6875 21.875  C 30.55048828125001 21.875  31.25 22.57451171874999  31.25 23.4375  C 31.25 24.30048828125001  30.55048828125001 25.000000000000004  29.6875 25.000000000000004  C 28.82451171874999 25.000000000000004  28.125 24.30048828125001  28.125 23.4375  C 28.125 22.57451171874999  28.82451171874999 21.875  29.6875 21.875  Z M 35.9375 25.000000000000004  C 35.07451171874999 25.000000000000004  34.375 24.30048828125001  34.375 23.4375  C 34.375 22.57451171874999  35.07451171874999 21.875  35.9375 21.875  C 36.80048828125001 21.875  37.5 22.57451171874999  37.5 23.4375  C 37.5 24.30048828125001  36.80048828125001 25.000000000000004  35.9375 25.000000000000004  Z M 42.1875 21.875  C 43.05048828125001 21.875  43.75 22.57451171874999  43.75 23.4375  C 43.75 24.30048828125001  43.05048828125001 25.000000000000004  42.1875 25.000000000000004  C 41.32451171874999 25.000000000000004  40.625 24.30048828125001  40.625 23.4375  C 40.625 22.57451171874999  41.32451171874999 21.875  42.1875 21.875  Z M 32.8125 28.125  C 31.94951171874999 28.125  31.25 27.425488281250008  31.25 26.562499999999996  C 31.25 25.699511718749985  31.94951171874999 25.000000000000004  32.8125 25.000000000000004  C 33.67548828125001 25.000000000000004  34.375 25.699511718749985  34.375 26.562499999999996  C 34.375 27.425488281250008  33.67548828125001 28.125  32.8125 28.125  Z M 39.0625 25.000000000000004  C 39.92548828125001 25.000000000000004  40.625 25.699511718749985  40.625 26.562499999999996  C 40.625 27.425488281250008  39.92548828125001 28.125  39.0625 28.125  C 38.19951171874999 28.125  37.5 27.425488281250008  37.5 26.562499999999996  C 37.5 25.699511718749985  38.19951171874999 25.000000000000004  39.0625 25.000000000000004  Z M 29.6875 28.125  C 30.55048828125001 28.125  31.25 28.82451171874999  31.25 29.6875  C 31.25 30.55048828125001  30.55048828125001 31.25  29.6875 31.25  C 28.82451171874999 31.25  28.125 30.55048828125001  28.125 29.6875  C 28.125 28.82451171874999  28.82451171874999 28.125  29.6875 28.125  Z M 35.9375 28.125  C 36.80048828125001 28.125  37.5 28.82451171874999  37.5 29.6875  C 37.5 30.55048828125001  36.80048828125001 31.25  35.9375 31.25  C 35.07451171874999 31.25  34.375 30.55048828125001  34.375 29.6875  C 34.375 28.82451171874999  35.07451171874999 28.125  35.9375 28.125  Z M 32.8125 31.25  C 33.67548828125001 31.25  34.375 31.94951171874999  34.375 32.8125  C 34.375 33.67548828125001  33.67548828125001 34.375  32.8125 34.375  C 31.94951171874999 34.375  31.25 33.67548828125001  31.25 32.8125  C 31.25 31.94951171874999  31.94951171874999 31.25  32.8125 31.25  Z M 29.6875 34.375  C 30.55048828125001 34.375  31.25 35.07451171874999  31.25 35.9375  C 31.25 36.80048828125001  30.55048828125001 37.5  29.6875 37.5  C 28.82451171874999 37.5  28.125 36.80048828125001  28.125 35.9375  C 28.125 35.07451171874999  28.82451171874999 34.375  29.6875 34.375  Z " fill-rule="nonzero" fill="rgba(0, 0, 0, 1)" stroke="none" class="fill" />
    <path d="M 38.052734375 6.802734375  C 38.9677734375 7.7177734375  38.9677734375 9.2021484375  38.052734375 10.1171875  L 22.6171875 25.552734374999996  C 21.7021484375 26.4677734375  20.2177734375 26.4677734375  19.302734375 25.552734374999996  L 18.197265625 24.447265625  C 17.2822265625 23.5322265625  17.2822265625 22.0478515625  18.197265625 21.1328125  L 18.2080078125 21.1220703125  C 14.884765624999998 17.1953125  14.7744140625 11.4599609375  17.876953125 7.4130859375  C 16.7080078125 6.67578125  15.324218749999998 6.250000000000001  13.84375 6.250000000000001  C 9.65625 6.250000000000001  6.25 9.65625  7 13.84375  L 7 43.75  L 0 43.75  L 0 13.84375  C 0 6.2099609375  6.2099609375 0  13.84375 0  C 17.4501953125 0  20.7392578125 1.38671875  23.205078125 3.654296875  C 26.7109375 2.5302734375  30.67578125 3.21484375  33.6220703125 5.7080078125  L 33.6328125 5.697265625  C 34.5478515625 4.7822265625  36.0322265625 4.7822265625  36.947265625 5.697265625  L 38.052734375 6.802734375  Z " stroke-width="0" stroke-dasharray="0" stroke="rgba(255, 255, 255, 0)" fill="none" class="stroke" mask="url(#Clip1947)" />
    <path d="M 35.9375 15.625  C 36.80048828125001 15.625  37.5 16.32451171874999  37.5 17.1875  C 37.5 18.05048828125001  36.80048828125001 18.75  35.9375 18.75  C 35.07451171874999 18.75  34.375 18.05048828125001  34.375 17.1875  C 34.375 16.32451171874999  35.07451171874999 15.625  35.9375 15.625  Z " stroke-width="0" stroke-dasharray="0" stroke="rgba(255, 255, 255, 0)" fill="none" class="stroke" mask="url(#Clip1947)" />
    <path d="M 42.1875 18.75  C 41.32451171874999 18.75  40.625 18.05048828125001  40.625 17.1875  C 40.625 16.32451171874999  41.32451171874999 15.625  42.1875 15.625  C 43.05048828125001 15.625  43.75 16.32451171874999  43.75 17.1875  C 43.75 18.05048828125001  43.05048828125001 18.75  42.1875 18.75  Z " stroke-width="0" stroke-dasharray="0" stroke="rgba(255, 255, 255, 0)" fill="none" class="stroke" mask="url(#Clip1947)" />
    <path d="M 48.4375 15.625  C 49.30048828125001 15.625  50 16.32451171874999  50 17.1875  C 50 18.05048828125001  49.30048828125001 18.75  48.4375 18.75  C 47.57451171874999 18.75  46.875 18.05048828125001  46.875 17.1875  C 46.875 16.32451171874999  47.57451171874999 15.625  48.4375 15.625  Z " stroke-width="0" stroke-dasharray="0" stroke="rgba(255, 255, 255, 0)" fill="none" class="stroke" mask="url(#Clip1947)" />
    <path d="M 32.8125 18.75  C 33.67548828125001 18.75  34.375 19.44951171874999  34.375 20.3125  C 34.375 21.17548828125001  33.67548828125001 21.875  32.8125 21.875  C 31.94951171874999 21.875  31.25 21.17548828125001  31.25 20.3125  C 31.25 19.44951171874999  31.94951171874999 18.75  32.8125 18.75  Z " stroke-width="0" stroke-dasharray="0" stroke="rgba(255, 255, 255, 0)" fill="none" class="stroke" mask="url(#Clip1947)" />
    <path d="M 37.5 20.3125  C 37.5 19.44951171874999  38.19951171874999 18.75  39.0625 18.75  C 39.92548828125001 18.75  40.625 19.44951171874999  40.625 20.3125  C 40.625 21.17548828125001  39.92548828125001 21.875  39.0625 21.875  C 38.19951171874999 21.875  37.5 21.17548828125001  37.5 20.3125  Z " stroke-width="0" stroke-dasharray="0" stroke="rgba(255, 255, 255, 0)" fill="none" class="stroke" mask="url(#Clip1947)" />
    <path d="M 45.3125 18.75  C 46.17548828125001 18.75  46.875 19.44951171874999  46.875 20.3125  C 46.875 21.17548828125001  46.17548828125001 21.875  45.3125 21.875  C 44.44951171874999 21.875  43.75 21.17548828125001  43.75 20.3125  C 43.75 19.44951171874999  44.44951171874999 18.75  45.3125 18.75  Z " stroke-width="0" stroke-dasharray="0" stroke="rgba(255, 255, 255, 0)" fill="none" class="stroke" mask="url(#Clip1947)" />
    <path d="M 29.6875 21.875  C 30.55048828125001 21.875  31.25 22.57451171874999  31.25 23.4375  C 31.25 24.30048828125001  30.55048828125001 25.000000000000004  29.6875 25.000000000000004  C 28.82451171874999 25.000000000000004  28.125 24.30048828125001  28.125 23.4375  C 28.125 22.57451171874999  28.82451171874999 21.875  29.6875 21.875  Z " stroke-width="0" stroke-dasharray="0" stroke="rgba(255, 255, 255, 0)" fill="none" class="stroke" mask="url(#Clip1947)" />
    <path d="M 35.9375 25.000000000000004  C 35.07451171874999 25.000000000000004  34.375 24.30048828125001  34.375 23.4375  C 34.375 22.57451171874999  35.07451171874999 21.875  35.9375 21.875  C 36.80048828125001 21.875  37.5 22.57451171874999  37.5 23.4375  C 37.5 24.30048828125001  36.80048828125001 25.000000000000004  35.9375 25.000000000000004  Z " stroke-width="0" stroke-dasharray="0" stroke="rgba(255, 255, 255, 0)" fill="none" class="stroke" mask="url(#Clip1947)" />
    <path d="M 42.1875 21.875  C 43.05048828125001 21.875  43.75 22.57451171874999  43.75 23.4375  C 43.75 24.30048828125001  43.05048828125001 25.000000000000004  42.1875 25.000000000000004  C 41.32451171874999 25.000000000000004  40.625 24.30048828125001  40.625 23.4375  C 40.625 22.57451171874999  41.32451171874999 21.875  42.1875 21.875  Z " stroke-width="0" stroke-dasharray="0" stroke="rgba(255, 255, 255, 0)" fill="none" class="stroke" mask="url(#Clip1947)" />
    <path d="M 32.8125 28.125  C 31.94951171874999 28.125  31.25 27.425488281250008  31.25 26.562499999999996  C 31.25 25.699511718749985  31.94951171874999 25.000000000000004  32.8125 25.000000000000004  C 33.67548828125001 25.000000000000004  34.375 25.699511718749985  34.375 26.562499999999996  C 34.375 27.425488281250008  33.67548828125001 28.125  32.8125 28.125  Z " stroke-width="0" stroke-dasharray="0" stroke="rgba(255, 255, 255, 0)" fill="none" class="stroke" mask="url(#Clip1947)" />
    <path d="M 39.0625 25.000000000000004  C 39.92548828125001 25.000000000000004  40.625 25.699511718749985  40.625 26.562499999999996  C 40.625 27.425488281250008  39.92548828125001 28.125  39.0625 28.125  C 38.19951171874999 28.125  37.5 27.425488281250008  37.5 26.562499999999996  C 37.5 25.699511718749985  38.19951171874999 25.000000000000004  39.0625 25.000000000000004  Z " stroke-width="0" stroke-dasharray="0" stroke="rgba(255, 255, 255, 0)" fill="none" class="stroke" mask="url(#Clip1947)" />
    <path d="M 29.6875 28.125  C 30.55048828125001 28.125  31.25 28.82451171874999  31.25 29.6875  C 31.25 30.55048828125001  30.55048828125001 31.25  29.6875 31.25  C 28.82451171874999 31.25  28.125 30.55048828125001  28.125 29.6875  C 28.125 28.82451171874999  28.82451171874999 28.125  29.6875 28.125  Z " stroke-width="0" stroke-dasharray="0" stroke="rgba(255, 255, 255, 0)" fill="none" class="stroke" mask="url(#Clip1947)" />
    <path d="M 35.9375 28.125  C 36.80048828125001 28.125  37.5 28.82451171874999  37.5 29.6875  C 37.5 30.55048828125001  36.80048828125001 31.25  35.9375 31.25  C 35.07451171874999 31.25  34.375 30.55048828125001  34.375 29.6875  C 34.375 28.82451171874999  35.07451171874999 28.125  35.9375 28.125  Z " stroke-width="0" stroke-dasharray="0" stroke="rgba(255, 255, 255, 0)" fill="none" class="stroke" mask="url(#Clip1947)" />
    <path d="M 32.8125 31.25  C 33.67548828125001 31.25  34.375 31.94951171874999  34.375 32.8125  C 34.375 33.67548828125001  33.67548828125001 34.375  32.8125 34.375  C 31.94951171874999 34.375  31.25 33.67548828125001  31.25 32.8125  C 31.25 31.94951171874999  31.94951171874999 31.25  32.8125 31.25  Z " stroke-width="0" stroke-dasharray="0" stroke="rgba(255, 255, 255, 0)" fill="none" class="stroke" mask="url(#Clip1947)" />
    <path d="M 29.6875 34.375  C 30.55048828125001 34.375  31.25 35.07451171874999  31.25 35.9375  C 31.25 36.80048828125001  30.55048828125001 37.5  29.6875 37.5  C 28.82451171874999 37.5  28.125 36.80048828125001  28.125 35.9375  C 28.125 35.07451171874999  28.82451171874999 34.375  29.6875 34.375  Z " stroke-width="0" stroke-dasharray="0" stroke="rgba(255, 255, 255, 0)" fill="none" class="stroke" mask="url(#Clip1947)" />
  </g>
</svg>