<?xml version="1.0" encoding="utf-8"?>
<svg version="1.1" xmlns:xlink="http://www.w3.org/1999/xlink" width="14px" height="14px" xmlns="http://www.w3.org/2000/svg">
  <defs>
    <pattern id="BGPattern" patternUnits="userSpaceOnUse" alignment="0 0" imageRepeat="None" />
    <mask fill="white" id="Clip4428">
      <path d="M 7 0  C 3.1340067511844474 0  0 3.1340067511844465  0 7.000000000000002  C 0 10.865993248815553  3.1340067511844456 14  7 14  C 10.865993248815553 14  14 10.865993248815553  14 7.000000000000002  C 14 3.1340067511844456  10.865993248815553 0  7 0  Z " fill-rule="evenodd" />
    </mask>
  </defs>
  <g transform="matrix(1 0 0 1 -9 -2 )">
    <path d="M 7 0  C 3.1340067511844474 0  0 3.1340067511844465  0 7.000000000000002  C 0 10.865993248815553  3.1340067511844456 14  7 14  C 10.865993248815553 14  14 10.865993248815553  14 7.000000000000002  C 14 3.1340067511844456  10.865993248815553 0  7 0  Z " fill-rule="nonzero" fill="rgba(0, 0, 0, 1)" stroke="none" transform="matrix(1 0 0 1 9 2 )" class="fill" />
    <path d="M 7 0  C 3.1340067511844474 0  0 3.1340067511844465  0 7.000000000000002  C 0 10.865993248815553  3.1340067511844456 14  7 14  C 10.865993248815553 14  14 10.865993248815553  14 7.000000000000002  C 14 3.1340067511844456  10.865993248815553 0  7 0  Z " stroke-width="0" stroke-dasharray="0" stroke="rgba(255, 255, 255, 0)" fill="none" transform="matrix(1 0 0 1 9 2 )" class="stroke" mask="url(#Clip4428)" />
  </g>
</svg>