<?xml version="1.0" encoding="utf-8"?>
<svg version="1.1" xmlns:xlink="http://www.w3.org/1999/xlink" width="33px" height="50px" xmlns="http://www.w3.org/2000/svg">
  <defs>
    <pattern id="BGPattern" patternUnits="userSpaceOnUse" alignment="0 0" imageRepeat="None" />
    <mask fill="white" id="Clip1238">
      <path d="M 1.2111801242236027 27.639751552795015  C -0.2639751552794962 26.18012422360249  -0.2639751552794962 23.81987577639751  1.1956521739130324 22.36024844720498  L 22.3136645962733 1.2422360248447148  C 23.773291925465827 -0.21739130434781373  26.133540372670808 -0.21739130434781373  27.577639751552795 1.2422360248447148  L 31.086956521739125 4.751552795031046  C 32.546583850931654 6.211180124223603  32.546583850931654 8.571428571428555  31.086956521739125 10.01552795031057  L 16.133540372670808 25  L 31.102484472049696 39.96894409937889  C 32.562111801242224 41.428571428571416  32.562111801242224 43.7888198757764  31.102484472049696 45.232919254658384  L 27.593167701863337 48.757763975155285  C 26.133540372670808 50.217391304347814  23.773291925465827 50.217391304347814  22.32919254658384 48.757763975155285  L 1.2111801242236027 27.639751552795015  Z " fill-rule="evenodd" />
    </mask>
  </defs>
  <g>
    <path d="M 1.2111801242236027 27.639751552795015  C -0.2639751552794962 26.18012422360249  -0.2639751552794962 23.81987577639751  1.1956521739130324 22.36024844720498  L 22.3136645962733 1.2422360248447148  C 23.773291925465827 -0.21739130434781373  26.133540372670808 -0.21739130434781373  27.577639751552795 1.2422360248447148  L 31.086956521739125 4.751552795031046  C 32.546583850931654 6.211180124223603  32.546583850931654 8.571428571428555  31.086956521739125 10.01552795031057  L 16.133540372670808 25  L 31.102484472049696 39.96894409937889  C 32.562111801242224 41.428571428571416  32.562111801242224 43.7888198757764  31.102484472049696 45.232919254658384  L 27.593167701863337 48.757763975155285  C 26.133540372670808 50.217391304347814  23.773291925465827 50.217391304347814  22.32919254658384 48.757763975155285  L 1.2111801242236027 27.639751552795015  Z " fill-rule="nonzero" fill="rgba(0, 0, 0, 1)" stroke="none" class="fill" />
    <path d="M 1.2111801242236027 27.639751552795015  C -0.2639751552794962 26.18012422360249  -0.2639751552794962 23.81987577639751  1.1956521739130324 22.36024844720498  L 22.3136645962733 1.2422360248447148  C 23.773291925465827 -0.21739130434781373  26.133540372670808 -0.21739130434781373  27.577639751552795 1.2422360248447148  L 31.086956521739125 4.751552795031046  C 32.546583850931654 6.211180124223603  32.546583850931654 8.571428571428555  31.086956521739125 10.01552795031057  L 16.133540372670808 25  L 31.102484472049696 39.96894409937889  C 32.562111801242224 41.428571428571416  32.562111801242224 43.7888198757764  31.102484472049696 45.232919254658384  L 27.593167701863337 48.757763975155285  C 26.133540372670808 50.217391304347814  23.773291925465827 50.217391304347814  22.32919254658384 48.757763975155285  L 1.2111801242236027 27.639751552795015  Z " stroke-width="0" stroke-dasharray="0" stroke="rgba(255, 255, 255, 0)" fill="none" class="stroke" mask="url(#Clip1238)" />
  </g>
</svg>