<?xml version="1.0" encoding="utf-8"?>
<svg version="1.1" xmlns:xlink="http://www.w3.org/1999/xlink" width="24px" height="24px" xmlns="http://www.w3.org/2000/svg">
  <defs>
    <pattern id="BGPattern" patternUnits="userSpaceOnUse" alignment="0 0" imageRepeat="None" />
    <mask fill="white" id="Clip6014">
      <path d="M 21.75 0  L 2.25 0  C 1.0073593128807148 0  0 1.0073593128807148  0 2.25  L 0 12.75  C 0 13.992640687119282  1.0073593128807148 15  2.25 15  L 9 15  L 9 16.5  L 1.5 16.5  C 0.6715728752538098 16.5  0 17.17157287525381  0 18  L 0 22.5  C 0 23.32842712474619  0.6715728752538098 24  1.5 24  L 22.5 24  C 23.32842712474619 24  24 23.32842712474619  24 22.5  L 24 18  C 24 17.17157287525381  23.32842712474619 16.5  22.5 16.5  L 15 16.5  L 15 15  L 21.75 15  C 22.992640687119284 15  24 13.992640687119282  24 12.75  L 24 2.25  C 24 1.0073593128807148  22.992640687119284 0  21.75 0  Z M 1.5 2.25  C 1.5 1.835786437626905  1.835786437626905 1.5  2.25 1.5  L 21.75 1.5  C 22.164213562373096 1.5  22.5 1.835786437626905  22.5 2.25  L 22.5 12.75  C 22.5 13.164213562373096  22.164213562373096 13.5  21.75 13.5  L 2.25 13.5  C 1.835786437626905 13.5  1.5 13.164213562373096  1.5 12.75  L 1.5 2.25  Z M 18.75 19.5  C 18.335786437626904 19.5  18 19.164213562373096  18 18.75  C 18 18.335786437626904  18.335786437626904 18  18.75 18  C 19.164213562373096 18  19.5 18.335786437626904  19.5 18.75  C 19.5 19.164213562373096  19.164213562373096 19.5  18.75 19.5  Z M 21.75 19.5  C 21.335786437626904 19.5  21 19.164213562373096  21 18.75  C 21 18.335786437626904  21.335786437626904 18  21.75 18  C 22.164213562373096 18  22.5 18.335786437626904  22.5 18.75  C 22.5 19.164213562373096  22.164213562373096 19.5  21.75 19.5  Z M 2.25 18  L 9.75 18  C 10.164213562373096 18  10.5 18.335786437626904  10.5 18.75  C 10.5 19.164213562373096  10.164213562373096 19.5  9.75 19.5  L 2.25 19.5  C 1.835786437626905 19.5  1.5 19.164213562373096  1.5 18.75  C 1.5 18.335786437626904  1.835786437626905 18  2.25 18  Z M 1.875 21.75  C 1.6678932188134525 21.75  1.5 21.58210678118655  1.5 21.375  C 1.5 21.16789321881345  1.6678932188134525 21  1.875 21  L 10.125 21  C 10.332106781186548 21  10.5 21.16789321881345  10.5 21.375  C 10.5 21.58210678118655  10.332106781186548 21.75  10.125 21.75  L 1.875 21.75  Z " fill-rule="evenodd" />
    </mask>
  </defs>
  <g>
    <path d="M 21.75 0  L 2.25 0  C 1.0073593128807148 0  0 1.0073593128807148  0 2.25  L 0 12.75  C 0 13.992640687119282  1.0073593128807148 15  2.25 15  L 9 15  L 9 16.5  L 1.5 16.5  C 0.6715728752538098 16.5  0 17.17157287525381  0 18  L 0 22.5  C 0 23.32842712474619  0.6715728752538098 24  1.5 24  L 22.5 24  C 23.32842712474619 24  24 23.32842712474619  24 22.5  L 24 18  C 24 17.17157287525381  23.32842712474619 16.5  22.5 16.5  L 15 16.5  L 15 15  L 21.75 15  C 22.992640687119284 15  24 13.992640687119282  24 12.75  L 24 2.25  C 24 1.0073593128807148  22.992640687119284 0  21.75 0  Z M 1.5 2.25  C 1.5 1.835786437626905  1.835786437626905 1.5  2.25 1.5  L 21.75 1.5  C 22.164213562373096 1.5  22.5 1.835786437626905  22.5 2.25  L 22.5 12.75  C 22.5 13.164213562373096  22.164213562373096 13.5  21.75 13.5  L 2.25 13.5  C 1.835786437626905 13.5  1.5 13.164213562373096  1.5 12.75  L 1.5 2.25  Z M 18.75 19.5  C 18.335786437626904 19.5  18 19.164213562373096  18 18.75  C 18 18.335786437626904  18.335786437626904 18  18.75 18  C 19.164213562373096 18  19.5 18.335786437626904  19.5 18.75  C 19.5 19.164213562373096  19.164213562373096 19.5  18.75 19.5  Z M 21.75 19.5  C 21.335786437626904 19.5  21 19.164213562373096  21 18.75  C 21 18.335786437626904  21.335786437626904 18  21.75 18  C 22.164213562373096 18  22.5 18.335786437626904  22.5 18.75  C 22.5 19.164213562373096  22.164213562373096 19.5  21.75 19.5  Z M 2.25 18  L 9.75 18  C 10.164213562373096 18  10.5 18.335786437626904  10.5 18.75  C 10.5 19.164213562373096  10.164213562373096 19.5  9.75 19.5  L 2.25 19.5  C 1.835786437626905 19.5  1.5 19.164213562373096  1.5 18.75  C 1.5 18.335786437626904  1.835786437626905 18  2.25 18  Z M 1.875 21.75  C 1.6678932188134525 21.75  1.5 21.58210678118655  1.5 21.375  C 1.5 21.16789321881345  1.6678932188134525 21  1.875 21  L 10.125 21  C 10.332106781186548 21  10.5 21.16789321881345  10.5 21.375  C 10.5 21.58210678118655  10.332106781186548 21.75  10.125 21.75  L 1.875 21.75  Z " fill-rule="nonzero" fill="rgba(0, 0, 0, 1)" stroke="none" class="fill" />
    <path d="M 21.75 0  L 2.25 0  C 1.0073593128807148 0  0 1.0073593128807148  0 2.25  L 0 12.75  C 0 13.992640687119282  1.0073593128807148 15  2.25 15  L 9 15  L 9 16.5  L 1.5 16.5  C 0.6715728752538098 16.5  0 17.17157287525381  0 18  L 0 22.5  C 0 23.32842712474619  0.6715728752538098 24  1.5 24  L 22.5 24  C 23.32842712474619 24  24 23.32842712474619  24 22.5  L 24 18  C 24 17.17157287525381  23.32842712474619 16.5  22.5 16.5  L 15 16.5  L 15 15  L 21.75 15  C 22.992640687119284 15  24 13.992640687119282  24 12.75  L 24 2.25  C 24 1.0073593128807148  22.992640687119284 0  21.75 0  Z " stroke-width="0" stroke-dasharray="0" stroke="rgba(255, 255, 255, 0)" fill="none" class="stroke" mask="url(#Clip6014)" />
    <path d="M 1.5 2.25  C 1.5 1.835786437626905  1.835786437626905 1.5  2.25 1.5  L 21.75 1.5  C 22.164213562373096 1.5  22.5 1.835786437626905  22.5 2.25  L 22.5 12.75  C 22.5 13.164213562373096  22.164213562373096 13.5  21.75 13.5  L 2.25 13.5  C 1.835786437626905 13.5  1.5 13.164213562373096  1.5 12.75  L 1.5 2.25  Z " stroke-width="0" stroke-dasharray="0" stroke="rgba(255, 255, 255, 0)" fill="none" class="stroke" mask="url(#Clip6014)" />
    <path d="M 18.75 19.5  C 18.335786437626904 19.5  18 19.164213562373096  18 18.75  C 18 18.335786437626904  18.335786437626904 18  18.75 18  C 19.164213562373096 18  19.5 18.335786437626904  19.5 18.75  C 19.5 19.164213562373096  19.164213562373096 19.5  18.75 19.5  Z " stroke-width="0" stroke-dasharray="0" stroke="rgba(255, 255, 255, 0)" fill="none" class="stroke" mask="url(#Clip6014)" />
    <path d="M 21.75 19.5  C 21.335786437626904 19.5  21 19.164213562373096  21 18.75  C 21 18.335786437626904  21.335786437626904 18  21.75 18  C 22.164213562373096 18  22.5 18.335786437626904  22.5 18.75  C 22.5 19.164213562373096  22.164213562373096 19.5  21.75 19.5  Z " stroke-width="0" stroke-dasharray="0" stroke="rgba(255, 255, 255, 0)" fill="none" class="stroke" mask="url(#Clip6014)" />
    <path d="M 2.25 18  L 9.75 18  C 10.164213562373096 18  10.5 18.335786437626904  10.5 18.75  C 10.5 19.164213562373096  10.164213562373096 19.5  9.75 19.5  L 2.25 19.5  C 1.835786437626905 19.5  1.5 19.164213562373096  1.5 18.75  C 1.5 18.335786437626904  1.835786437626905 18  2.25 18  Z " stroke-width="0" stroke-dasharray="0" stroke="rgba(255, 255, 255, 0)" fill="none" class="stroke" mask="url(#Clip6014)" />
    <path d="M 1.875 21.75  C 1.6678932188134525 21.75  1.5 21.58210678118655  1.5 21.375  C 1.5 21.16789321881345  1.6678932188134525 21  1.875 21  L 10.125 21  C 10.332106781186548 21  10.5 21.16789321881345  10.5 21.375  C 10.5 21.58210678118655  10.332106781186548 21.75  10.125 21.75  L 1.875 21.75  Z " stroke-width="0" stroke-dasharray="0" stroke="rgba(255, 255, 255, 0)" fill="none" class="stroke" mask="url(#Clip6014)" />
  </g>
</svg>