<?xml version="1.0" encoding="utf-8"?>
<svg version="1.1" xmlns:xlink="http://www.w3.org/1999/xlink" width="8px" height="14px" xmlns="http://www.w3.org/2000/svg">
  <defs>
    <pattern id="BGPattern" patternUnits="userSpaceOnUse" alignment="0 0" imageRepeat="None" />
    <mask fill="white" id="Clip3704">
      <path d="M 6 8  C 7.1045694996615865 8  8 7.104569499661587  8 6  L 8 2  C 8 0.8954305003384135  7.1045694996615865 0  6 0  L 0 0  L 0 14  L 2 14  L 2 8  L 3.4800000000000004 8  L 5.82 14  L 8 14  L 5.670000000000002 8  L 6 8  Z M 2 6  L 2 2  L 6 2  L 6 6  L 2 6  Z " fill-rule="evenodd" />
    </mask>
  </defs>
  <g transform="matrix(1 0 0 1 -22 -9 )">
    <path d="M 6 8  C 7.1045694996615865 8  8 7.104569499661587  8 6  L 8 2  C 8 0.8954305003384135  7.1045694996615865 0  6 0  L 0 0  L 0 14  L 2 14  L 2 8  L 3.4800000000000004 8  L 5.82 14  L 8 14  L 5.670000000000002 8  L 6 8  Z M 2 6  L 2 2  L 6 2  L 6 6  L 2 6  Z " fill-rule="nonzero" fill="rgba(0, 0, 0, 1)" stroke="none" transform="matrix(1 0 0 1 22 9 )" class="fill" />
    <path d="M 6 8  C 7.1045694996615865 8  8 7.104569499661587  8 6  L 8 2  C 8 0.8954305003384135  7.1045694996615865 0  6 0  L 0 0  L 0 14  L 2 14  L 2 8  L 3.4800000000000004 8  L 5.82 14  L 8 14  L 5.670000000000002 8  L 6 8  Z " stroke-width="0" stroke-dasharray="0" stroke="rgba(255, 255, 255, 0)" fill="none" transform="matrix(1 0 0 1 22 9 )" class="stroke" mask="url(#Clip3704)" />
    <path d="M 2 6  L 2 2  L 6 2  L 6 6  L 2 6  Z " stroke-width="0" stroke-dasharray="0" stroke="rgba(255, 255, 255, 0)" fill="none" transform="matrix(1 0 0 1 22 9 )" class="stroke" mask="url(#Clip3704)" />
  </g>
</svg>