<?xml version="1.0" encoding="utf-8"?>
<svg version="1.1" xmlns:xlink="http://www.w3.org/1999/xlink" width="20px" height="20px" xmlns="http://www.w3.org/2000/svg">
  <defs>
    <pattern id="BGPattern" patternUnits="userSpaceOnUse" alignment="0 0" imageRepeat="None" />
    <mask fill="white" id="Clip2862">
      <path d="M 20 10  C 20 4.475000000000001  15.524999999999999 0  10 0  C 4.475000000000001 0  0 4.475000000000001  0 10  C 0 15.524999999999999  4.475000000000001 20  10 20  C 15.524999999999999 20  20 15.524999999999999  20 10  Z M 16 10  C 16 13.3125  13.3125 16  10 16  C 6.6875 16  4 13.3125  4 10  C 4 6.6875  6.6875 4  10 4  C 13.3125 4  16 6.6875  16 10  Z " fill-rule="evenodd" />
    </mask>
  </defs>
  <g transform="matrix(1 0 0 1 -17 -16 )">
    <path d="M 20 10  C 20 4.475000000000001  15.524999999999999 0  10 0  C 4.475000000000001 0  0 4.475000000000001  0 10  C 0 15.524999999999999  4.475000000000001 20  10 20  C 15.524999999999999 20  20 15.524999999999999  20 10  Z M 16 10  C 16 13.3125  13.3125 16  10 16  C 6.6875 16  4 13.3125  4 10  C 4 6.6875  6.6875 4  10 4  C 13.3125 4  16 6.6875  16 10  Z " fill-rule="nonzero" fill="rgba(0, 0, 0, 1)" stroke="none" transform="matrix(1 0 0 1 17 16 )" class="fill" />
    <path d="M 20 10  C 20 4.475000000000001  15.524999999999999 0  10 0  C 4.475000000000001 0  0 4.475000000000001  0 10  C 0 15.524999999999999  4.475000000000001 20  10 20  C 15.524999999999999 20  20 15.524999999999999  20 10  Z " stroke-width="0" stroke-dasharray="0" stroke="rgba(255, 255, 255, 0)" fill="none" transform="matrix(1 0 0 1 17 16 )" class="stroke" mask="url(#Clip2862)" />
    <path d="M 16 10  C 16 13.3125  13.3125 16  10 16  C 6.6875 16  4 13.3125  4 10  C 4 6.6875  6.6875 4  10 4  C 13.3125 4  16 6.6875  16 10  Z " stroke-width="0" stroke-dasharray="0" stroke="rgba(255, 255, 255, 0)" fill="none" transform="matrix(1 0 0 1 17 16 )" class="stroke" mask="url(#Clip2862)" />
  </g>
</svg>