<?xml version="1.0" encoding="utf-8"?>
<svg version="1.1" xmlns:xlink="http://www.w3.org/1999/xlink" width="50px" height="50px" xmlns="http://www.w3.org/2000/svg">
  <defs>
    <pattern id="BGPattern" patternUnits="userSpaceOnUse" alignment="0 0" imageRepeat="None" />
    <mask fill="white" id="Clip1997">
      <path d="M 25 0  C 27.5888671875 0  29.6875 2.0986328125  29.6875 4.6875  C 29.6875 7.276367187500001  27.5888671875 9.375  25 9.375  C 22.4111328125 9.375  20.3125 7.276367187500001  20.3125 4.6875  C 20.3125 2.0986328125  22.4111328125 0  25 0  Z M 29.6875 45.3125  C 29.6875 42.7236328125  27.5888671875 40.625  25 40.625  C 22.4111328125 40.625  20.3125 42.7236328125  20.3125 45.3125  C 20.3125 47.9013671875  22.4111328125 50  25 50  C 27.5888671875 50  29.6875 47.9013671875  29.6875 45.3125  Z M 50 25  C 50 22.4111328125  47.9013671875 20.3125  45.3125 20.3125  C 42.7236328125 20.3125  40.625 22.4111328125  40.625 25  C 40.625 27.5888671875  42.7236328125 29.6875  45.3125 29.6875  C 47.9013671875 29.6875  50 27.5888671875  50 25  Z M 4.6875 29.6875  C 7.276367187500001 29.6875  9.375 27.5888671875  9.375 25  C 9.375 22.4111328125  7.276367187500001 20.3125  4.6875 20.3125  C 2.0986328125 20.3125  0 22.4111328125  0 25  C 0 27.5888671875  2.0986328125 29.6875  4.6875 29.6875  Z M 15.324414062500011 39.36308593749999  C 15.324414062500011 36.77431640625002  13.225683593749975 34.67558593749999  10.636914062500011 34.67558593749999  C 8.048046875000011 34.67558593749999  5.949414062500011 36.77421874999999  5.949414062500011 39.36308593749999  C 5.949414062500011 41.95195312499999  8.048046875000011 44.05058593749999  10.636914062500011 44.05058593749999  C 13.225781250000013 44.05058593749999  15.324414062500011 41.95195312499999  15.324414062500011 39.36308593749999  Z M 44.05058593749999 39.36308593749999  C 44.05058593749999 36.77431640625002  41.95195312499999 34.67558593749999  39.36308593749999 34.67558593749999  C 36.77421874999999 34.67558593749999  34.67558593749999 36.77421874999999  34.67558593749999 39.36308593749999  C 34.67558593749999 41.95195312499999  36.77421874999999 44.05058593749999  39.36308593749999 44.05058593749999  C 41.95195312499999 44.05058593749999  44.05058593749999 41.95195312499999  44.05058593749999 39.36308593749999  Z M 15.324414062500011 10.636914062500011  C 15.324414062500011 8.048046875000011  13.225683593749975 5.949414062500011  10.636914062500011 5.949414062500011  C 8.048046875000011 5.949414062500011  5.949414062500011 8.048046875000011  5.949414062500011 10.636914062500011  C 5.949414062500011 13.225781250000013  8.048046875000011 15.324414062500011  10.636914062500011 15.324414062500011  C 13.225781250000013 15.324414062500011  15.324414062500011 13.225781250000013  15.324414062500011 10.636914062500011  Z " fill-rule="evenodd" />
    </mask>
  </defs>
  <g>
    <path d="M 25 0  C 27.5888671875 0  29.6875 2.0986328125  29.6875 4.6875  C 29.6875 7.276367187500001  27.5888671875 9.375  25 9.375  C 22.4111328125 9.375  20.3125 7.276367187500001  20.3125 4.6875  C 20.3125 2.0986328125  22.4111328125 0  25 0  Z M 29.6875 45.3125  C 29.6875 42.7236328125  27.5888671875 40.625  25 40.625  C 22.4111328125 40.625  20.3125 42.7236328125  20.3125 45.3125  C 20.3125 47.9013671875  22.4111328125 50  25 50  C 27.5888671875 50  29.6875 47.9013671875  29.6875 45.3125  Z M 50 25  C 50 22.4111328125  47.9013671875 20.3125  45.3125 20.3125  C 42.7236328125 20.3125  40.625 22.4111328125  40.625 25  C 40.625 27.5888671875  42.7236328125 29.6875  45.3125 29.6875  C 47.9013671875 29.6875  50 27.5888671875  50 25  Z M 4.6875 29.6875  C 7.276367187500001 29.6875  9.375 27.5888671875  9.375 25  C 9.375 22.4111328125  7.276367187500001 20.3125  4.6875 20.3125  C 2.0986328125 20.3125  0 22.4111328125  0 25  C 0 27.5888671875  2.0986328125 29.6875  4.6875 29.6875  Z M 15.324414062500011 39.36308593749999  C 15.324414062500011 36.77431640625002  13.225683593749975 34.67558593749999  10.636914062500011 34.67558593749999  C 8.048046875000011 34.67558593749999  5.949414062500011 36.77421874999999  5.949414062500011 39.36308593749999  C 5.949414062500011 41.95195312499999  8.048046875000011 44.05058593749999  10.636914062500011 44.05058593749999  C 13.225781250000013 44.05058593749999  15.324414062500011 41.95195312499999  15.324414062500011 39.36308593749999  Z M 44.05058593749999 39.36308593749999  C 44.05058593749999 36.77431640625002  41.95195312499999 34.67558593749999  39.36308593749999 34.67558593749999  C 36.77421874999999 34.67558593749999  34.67558593749999 36.77421874999999  34.67558593749999 39.36308593749999  C 34.67558593749999 41.95195312499999  36.77421874999999 44.05058593749999  39.36308593749999 44.05058593749999  C 41.95195312499999 44.05058593749999  44.05058593749999 41.95195312499999  44.05058593749999 39.36308593749999  Z M 15.324414062500011 10.636914062500011  C 15.324414062500011 8.048046875000011  13.225683593749975 5.949414062500011  10.636914062500011 5.949414062500011  C 8.048046875000011 5.949414062500011  5.949414062500011 8.048046875000011  5.949414062500011 10.636914062500011  C 5.949414062500011 13.225781250000013  8.048046875000011 15.324414062500011  10.636914062500011 15.324414062500011  C 13.225781250000013 15.324414062500011  15.324414062500011 13.225781250000013  15.324414062500011 10.636914062500011  Z " fill-rule="nonzero" fill="rgba(0, 0, 0, 1)" stroke="none" class="fill" />
    <path d="M 25 0  C 27.5888671875 0  29.6875 2.0986328125  29.6875 4.6875  C 29.6875 7.276367187500001  27.5888671875 9.375  25 9.375  C 22.4111328125 9.375  20.3125 7.276367187500001  20.3125 4.6875  C 20.3125 2.0986328125  22.4111328125 0  25 0  Z " stroke-width="0" stroke-dasharray="0" stroke="rgba(255, 255, 255, 0)" fill="none" class="stroke" mask="url(#Clip1997)" />
    <path d="M 29.6875 45.3125  C 29.6875 42.7236328125  27.5888671875 40.625  25 40.625  C 22.4111328125 40.625  20.3125 42.7236328125  20.3125 45.3125  C 20.3125 47.9013671875  22.4111328125 50  25 50  C 27.5888671875 50  29.6875 47.9013671875  29.6875 45.3125  Z " stroke-width="0" stroke-dasharray="0" stroke="rgba(255, 255, 255, 0)" fill="none" class="stroke" mask="url(#Clip1997)" />
    <path d="M 50 25  C 50 22.4111328125  47.9013671875 20.3125  45.3125 20.3125  C 42.7236328125 20.3125  40.625 22.4111328125  40.625 25  C 40.625 27.5888671875  42.7236328125 29.6875  45.3125 29.6875  C 47.9013671875 29.6875  50 27.5888671875  50 25  Z " stroke-width="0" stroke-dasharray="0" stroke="rgba(255, 255, 255, 0)" fill="none" class="stroke" mask="url(#Clip1997)" />
    <path d="M 4.6875 29.6875  C 7.276367187500001 29.6875  9.375 27.5888671875  9.375 25  C 9.375 22.4111328125  7.276367187500001 20.3125  4.6875 20.3125  C 2.0986328125 20.3125  0 22.4111328125  0 25  C 0 27.5888671875  2.0986328125 29.6875  4.6875 29.6875  Z " stroke-width="0" stroke-dasharray="0" stroke="rgba(255, 255, 255, 0)" fill="none" class="stroke" mask="url(#Clip1997)" />
    <path d="M 15.324414062500011 39.36308593749999  C 15.324414062500011 36.77431640625002  13.225683593749975 34.67558593749999  10.636914062500011 34.67558593749999  C 8.048046875000011 34.67558593749999  5.949414062500011 36.77421874999999  5.949414062500011 39.36308593749999  C 5.949414062500011 41.95195312499999  8.048046875000011 44.05058593749999  10.636914062500011 44.05058593749999  C 13.225781250000013 44.05058593749999  15.324414062500011 41.95195312499999  15.324414062500011 39.36308593749999  Z " stroke-width="0" stroke-dasharray="0" stroke="rgba(255, 255, 255, 0)" fill="none" class="stroke" mask="url(#Clip1997)" />
    <path d="M 44.05058593749999 39.36308593749999  C 44.05058593749999 36.77431640625002  41.95195312499999 34.67558593749999  39.36308593749999 34.67558593749999  C 36.77421874999999 34.67558593749999  34.67558593749999 36.77421874999999  34.67558593749999 39.36308593749999  C 34.67558593749999 41.95195312499999  36.77421874999999 44.05058593749999  39.36308593749999 44.05058593749999  C 41.95195312499999 44.05058593749999  44.05058593749999 41.95195312499999  44.05058593749999 39.36308593749999  Z " stroke-width="0" stroke-dasharray="0" stroke="rgba(255, 255, 255, 0)" fill="none" class="stroke" mask="url(#Clip1997)" />
    <path d="M 15.324414062500011 10.636914062500011  C 15.324414062500011 8.048046875000011  13.225683593749975 5.949414062500011  10.636914062500011 5.949414062500011  C 8.048046875000011 5.949414062500011  5.949414062500011 8.048046875000011  5.949414062500011 10.636914062500011  C 5.949414062500011 13.225781250000013  8.048046875000011 15.324414062500011  10.636914062500011 15.324414062500011  C 13.225781250000013 15.324414062500011  15.324414062500011 13.225781250000013  15.324414062500011 10.636914062500011  Z " stroke-width="0" stroke-dasharray="0" stroke="rgba(255, 255, 255, 0)" fill="none" class="stroke" mask="url(#Clip1997)" />
  </g>
</svg>