<?xml version="1.0" encoding="utf-8"?>
<svg version="1.1" xmlns:xlink="http://www.w3.org/1999/xlink" width="50px" height="45px" xmlns="http://www.w3.org/2000/svg">
  <defs>
    <pattern id="BGPattern" patternUnits="userSpaceOnUse" alignment="0 0" imageRepeat="None" />
    <mask fill="white" id="Clip1369">
      <path d="M 45.84375 26.156163194444442  C 45.628211805555566 27.10468750000001  44.78498263888889 27.77777777777777  43.81223958333334 27  L 18.365624999999994 27  L 18.93376736111111 30  L 42.23394097222223 30  C 43.570833333333326 30.555555555555543  44.56171875000001 31.796961805555554  44.26545138888889 33.1006076388889  L 43.7865451388889 35.20789930555554  C 45.409027777777794 35.99548611111112  46.52777777777777 37.65868055555555  46.52777777777777 39.583333333333314  C 46.52777777777777 42.291840277777794  44.312586805555554 44.4829861111111  41.5951388888889 44.4439236111111  C 39.00633680555555 44.40668402777777  36.87725694444444 42.305815972222234  36.80737847222221 39.717621527777794  C 36.76918402777778 38.30381944444446  37.33559027777778 37.02239583333335  38.26597222222222 36  L 20.067361111111097 36  C 20.96814236111112 36.99348958333334  21.52777777777777 38.222743055555554  21.52777777777777 39.583333333333314  C 21.52777777777777 42.344878472222206  19.224999999999994 44.56866319444444  16.434895833333343 44.439062500000006  C 13.957465277777773 44.32404513888889  11.942621527777789 42.32230902777778  11.812413194444446 39.84557291666667  C 11.711892361111097 37.932899305555566  12.718315972222227 36.2470486111111  14.247395833333343 35.36762152777777  L 8.149565972222234 5.555555555555543  L 2.083333333333343 5.555555555555543  C 0.9327256944444571 5.555555555555543  0 4.622829861111114  0 3.472222222222228  L 0 2.083333333333343  C 0 0.9327256944444572  0.9327256944444571 0  2.083333333333343 0  L 10.983420138888903 0  C 11.973090277777771 0  12.826128472222223 0.6962673611110972  13.024479166666653 1.6657986111111145  L 13.820138888888891 6  L 47.915798611111114 6  C 49.25269097222221 5.555555555555543  50.2435763888889 6.796961805555554  49.94730902777778 8.100607638888903  L 45.84375 26.156163194444442  Z M 36.80555555555554 15.972222222222229  C 36.80555555555554 15.205121527777777  36.18376736111111 14.583333333333343  35.416666666666686 14.583333333333343  L 31.25 14.583333333333343  L 31.25 11.111111111111114  C 31.25 10.344010416666663  30.628211805555566 9.722222222222229  29.861111111111114 9.722222222222229  L 28.472222222222225 9.722222222222229  C 27.705121527777777 9.722222222222229  27.083333333333343 10.344010416666663  27.083333333333343 11.111111111111114  L 27.083333333333343 14.583333333333343  L 22.916666666666657 14.583333333333343  C 22.149565972222234 14.583333333333343  21.52777777777777 15.205121527777777  21.52777777777777 15.972222222222229  L 21.52777777777777 17.361111111111114  C 21.52777777777777 18.128211805555566  22.149565972222234 18.75  22.916666666666657 18.75  L 27.083333333333343 18.75  L 27.083333333333343 22.22222222222223  C 27.083333333333343 22.98932291666665  27.705121527777777 23.611111111111114  28.472222222222225 23.611111111111114  L 29.861111111111114 23.611111111111114  C 30.628211805555566 23.611111111111114  31.25 22.98932291666665  31.25 22.22222222222223  L 31.25 18.75  L 35.416666666666686 18.75  C 36.18376736111111 18.75  36.80555555555554 18.128211805555566  36.80555555555554 17.361111111111114  L 36.80555555555554 15.972222222222229  Z " fill-rule="evenodd" />
    </mask>
  </defs>
  <g>
    <path d="M 45.84375 26.156163194444442  C 45.628211805555566 27.10468750000001  44.78498263888889 27.77777777777777  43.81223958333334 27  L 18.365624999999994 27  L 18.93376736111111 30  L 42.23394097222223 30  C 43.570833333333326 30.555555555555543  44.56171875000001 31.796961805555554  44.26545138888889 33.1006076388889  L 43.7865451388889 35.20789930555554  C 45.409027777777794 35.99548611111112  46.52777777777777 37.65868055555555  46.52777777777777 39.583333333333314  C 46.52777777777777 42.291840277777794  44.312586805555554 44.4829861111111  41.5951388888889 44.4439236111111  C 39.00633680555555 44.40668402777777  36.87725694444444 42.305815972222234  36.80737847222221 39.717621527777794  C 36.76918402777778 38.30381944444446  37.33559027777778 37.02239583333335  38.26597222222222 36  L 20.067361111111097 36  C 20.96814236111112 36.99348958333334  21.52777777777777 38.222743055555554  21.52777777777777 39.583333333333314  C 21.52777777777777 42.344878472222206  19.224999999999994 44.56866319444444  16.434895833333343 44.439062500000006  C 13.957465277777773 44.32404513888889  11.942621527777789 42.32230902777778  11.812413194444446 39.84557291666667  C 11.711892361111097 37.932899305555566  12.718315972222227 36.2470486111111  14.247395833333343 35.36762152777777  L 8.149565972222234 5.555555555555543  L 2.083333333333343 5.555555555555543  C 0.9327256944444571 5.555555555555543  0 4.622829861111114  0 3.472222222222228  L 0 2.083333333333343  C 0 0.9327256944444572  0.9327256944444571 0  2.083333333333343 0  L 10.983420138888903 0  C 11.973090277777771 0  12.826128472222223 0.6962673611110972  13.024479166666653 1.6657986111111145  L 13.820138888888891 6  L 47.915798611111114 6  C 49.25269097222221 5.555555555555543  50.2435763888889 6.796961805555554  49.94730902777778 8.100607638888903  L 45.84375 26.156163194444442  Z M 36.80555555555554 15.972222222222229  C 36.80555555555554 15.205121527777777  36.18376736111111 14.583333333333343  35.416666666666686 14.583333333333343  L 31.25 14.583333333333343  L 31.25 11.111111111111114  C 31.25 10.344010416666663  30.628211805555566 9.722222222222229  29.861111111111114 9.722222222222229  L 28.472222222222225 9.722222222222229  C 27.705121527777777 9.722222222222229  27.083333333333343 10.344010416666663  27.083333333333343 11.111111111111114  L 27.083333333333343 14.583333333333343  L 22.916666666666657 14.583333333333343  C 22.149565972222234 14.583333333333343  21.52777777777777 15.205121527777777  21.52777777777777 15.972222222222229  L 21.52777777777777 17.361111111111114  C 21.52777777777777 18.128211805555566  22.149565972222234 18.75  22.916666666666657 18.75  L 27.083333333333343 18.75  L 27.083333333333343 22.22222222222223  C 27.083333333333343 22.98932291666665  27.705121527777777 23.611111111111114  28.472222222222225 23.611111111111114  L 29.861111111111114 23.611111111111114  C 30.628211805555566 23.611111111111114  31.25 22.98932291666665  31.25 22.22222222222223  L 31.25 18.75  L 35.416666666666686 18.75  C 36.18376736111111 18.75  36.80555555555554 18.128211805555566  36.80555555555554 17.361111111111114  L 36.80555555555554 15.972222222222229  Z " fill-rule="nonzero" fill="rgba(0, 0, 0, 1)" stroke="none" class="fill" />
    <path d="M 45.84375 26.156163194444442  C 45.628211805555566 27.10468750000001  44.78498263888889 27.77777777777777  43.81223958333334 27  L 18.365624999999994 27  L 18.93376736111111 30  L 42.23394097222223 30  C 43.570833333333326 30.555555555555543  44.56171875000001 31.796961805555554  44.26545138888889 33.1006076388889  L 43.7865451388889 35.20789930555554  C 45.409027777777794 35.99548611111112  46.52777777777777 37.65868055555555  46.52777777777777 39.583333333333314  C 46.52777777777777 42.291840277777794  44.312586805555554 44.4829861111111  41.5951388888889 44.4439236111111  C 39.00633680555555 44.40668402777777  36.87725694444444 42.305815972222234  36.80737847222221 39.717621527777794  C 36.76918402777778 38.30381944444446  37.33559027777778 37.02239583333335  38.26597222222222 36  L 20.067361111111097 36  C 20.96814236111112 36.99348958333334  21.52777777777777 38.222743055555554  21.52777777777777 39.583333333333314  C 21.52777777777777 42.344878472222206  19.224999999999994 44.56866319444444  16.434895833333343 44.439062500000006  C 13.957465277777773 44.32404513888889  11.942621527777789 42.32230902777778  11.812413194444446 39.84557291666667  C 11.711892361111097 37.932899305555566  12.718315972222227 36.2470486111111  14.247395833333343 35.36762152777777  L 8.149565972222234 5.555555555555543  L 2.083333333333343 5.555555555555543  C 0.9327256944444571 5.555555555555543  0 4.622829861111114  0 3.472222222222228  L 0 2.083333333333343  C 0 0.9327256944444572  0.9327256944444571 0  2.083333333333343 0  L 10.983420138888903 0  C 11.973090277777771 0  12.826128472222223 0.6962673611110972  13.024479166666653 1.6657986111111145  L 13.820138888888891 6  L 47.915798611111114 6  C 49.25269097222221 5.555555555555543  50.2435763888889 6.796961805555554  49.94730902777778 8.100607638888903  L 45.84375 26.156163194444442  Z " stroke-width="0" stroke-dasharray="0" stroke="rgba(255, 255, 255, 0)" fill="none" class="stroke" mask="url(#Clip1369)" />
    <path d="M 36.80555555555554 15.972222222222229  C 36.80555555555554 15.205121527777777  36.18376736111111 14.583333333333343  35.416666666666686 14.583333333333343  L 31.25 14.583333333333343  L 31.25 11.111111111111114  C 31.25 10.344010416666663  30.628211805555566 9.722222222222229  29.861111111111114 9.722222222222229  L 28.472222222222225 9.722222222222229  C 27.705121527777777 9.722222222222229  27.083333333333343 10.344010416666663  27.083333333333343 11.111111111111114  L 27.083333333333343 14.583333333333343  L 22.916666666666657 14.583333333333343  C 22.149565972222234 14.583333333333343  21.52777777777777 15.205121527777777  21.52777777777777 15.972222222222229  L 21.52777777777777 17.361111111111114  C 21.52777777777777 18.128211805555566  22.149565972222234 18.75  22.916666666666657 18.75  L 27.083333333333343 18.75  L 27.083333333333343 22.22222222222223  C 27.083333333333343 22.98932291666665  27.705121527777777 23.611111111111114  28.472222222222225 23.611111111111114  L 29.861111111111114 23.611111111111114  C 30.628211805555566 23.611111111111114  31.25 22.98932291666665  31.25 22.22222222222223  L 31.25 18.75  L 35.416666666666686 18.75  C 36.18376736111111 18.75  36.80555555555554 18.128211805555566  36.80555555555554 17.361111111111114  L 36.80555555555554 15.972222222222229  Z " stroke-width="0" stroke-dasharray="0" stroke="rgba(255, 255, 255, 0)" fill="none" class="stroke" mask="url(#Clip1369)" />
  </g>
</svg>