<?xml version="1.0" encoding="utf-8"?>
<svg version="1.1" xmlns:xlink="http://www.w3.org/1999/xlink" width="5px" height="8px" xmlns="http://www.w3.org/2000/svg">
  <defs>
    <pattern id="BGPattern" patternUnits="userSpaceOnUse" alignment="0 0" imageRepeat="None" />
    <mask fill="white" id="Clip4688">
      <path d="M 4.625000026346095 7.07385943125989  C 4.832051914154317 7.07385943125989  4.999922386605316 6.906051873261533  5 6.699  L 5 0.801  C 4.999922386605316 0.5939481267384661  4.832051914154318 0.42614056874010914  4.625000026346095 0.42614056874010914  C 4.537304749725596 0.42614056874010914  4.452382845016672 0.4568750168017387  4.385 0.513  L 0.8450000000000006 3.4619999999999997  C 0.759562223834374 3.533248190414384  0.7101686907155065 3.638752895617675  0.7101686907155065 3.75  C 0.7101686907155065 3.8612471043823247  0.7595622238343758 3.966751809585615  0.8450000000000006 4.037999999999999  L 4.385 6.986999999999999  C 4.452382845016672 7.043124983198259  4.537304749725596 7.07385943125989  4.625000026346095 7.07385943125989  Z " fill-rule="evenodd" />
    </mask>
  </defs>
  <g transform="matrix(1 0 0 1 -5 0 )">
    <path d="M 4.625000026346095 7.07385943125989  C 4.832051914154317 7.07385943125989  4.999922386605316 6.906051873261533  5 6.699  L 5 0.801  C 4.999922386605316 0.5939481267384661  4.832051914154318 0.42614056874010914  4.625000026346095 0.42614056874010914  C 4.537304749725596 0.42614056874010914  4.452382845016672 0.4568750168017387  4.385 0.513  L 0.8450000000000006 3.4619999999999997  C 0.759562223834374 3.533248190414384  0.7101686907155065 3.638752895617675  0.7101686907155065 3.75  C 0.7101686907155065 3.8612471043823247  0.7595622238343758 3.966751809585615  0.8450000000000006 4.037999999999999  L 4.385 6.986999999999999  C 4.452382845016672 7.043124983198259  4.537304749725596 7.07385943125989  4.625000026346095 7.07385943125989  Z " fill-rule="nonzero" fill="rgba(0, 0, 0, 1)" stroke="none" transform="matrix(1 0 0 1 5 0 )" class="fill" />
    <path d="M 4.625000026346095 7.07385943125989  C 4.832051914154317 7.07385943125989  4.999922386605316 6.906051873261533  5 6.699  L 5 0.801  C 4.999922386605316 0.5939481267384661  4.832051914154318 0.42614056874010914  4.625000026346095 0.42614056874010914  C 4.537304749725596 0.42614056874010914  4.452382845016672 0.4568750168017387  4.385 0.513  L 0.8450000000000006 3.4619999999999997  C 0.759562223834374 3.533248190414384  0.7101686907155065 3.638752895617675  0.7101686907155065 3.75  C 0.7101686907155065 3.8612471043823247  0.7595622238343758 3.966751809585615  0.8450000000000006 4.037999999999999  L 4.385 6.986999999999999  C 4.452382845016672 7.043124983198259  4.537304749725596 7.07385943125989  4.625000026346095 7.07385943125989  Z " stroke-width="0" stroke-dasharray="0" stroke="rgba(255, 255, 255, 0)" fill="none" transform="matrix(1 0 0 1 5 0 )" class="stroke" mask="url(#Clip4688)" />
  </g>
</svg>