<?xml version="1.0" encoding="utf-8"?>
<svg version="1.1" xmlns:xlink="http://www.w3.org/1999/xlink" width="50px" height="40px" xmlns="http://www.w3.org/2000/svg">
  <defs>
    <pattern id="BGPattern" patternUnits="userSpaceOnUse" alignment="0 0" imageRepeat="None" />
    <mask fill="white" id="Clip1942">
      <path d="M 50 28.75  C 50 28.0625  49.4375 27.5  48.75 27.5  L 47.5 27.5  L 47.5 19.0546875  C 47.5 18.0625  47.1015625 17.109375  46.3984375 16.40625  L 38.59375 8.6015625  C 37.890625 7.8984375  36.9375 7.5  35.9453125 7.5  L 32.5 7.5  L 32.5 3.75  C 32.5 1.6796875  30.820312500000004 0  28.749999999999996 0  L 8.75 0  C 6.679687500000001 0  5 1.6796875  5 3.75  L 5 7.5  L 0.625 7.5  C 0.28125 7.5  0 7.78125  0 8.125  L 0 9.375  C 0 9.71875  0.28125 10  0.625 10  L 21.875 10  C 22.21875 10  22.5 10.28125  22.5 10.625  L 22.5 11.875  C 22.5 12.21875  22.21875 12.5  21.875 13  L 3.125 13  C 2.78125 12.5  2.5 12.78125  2.5 13.125  L 2.5 14.375  C 2.5 14.71875  2.78125 15  3.125 15  L 19.375 15  C 19.71875 15  20 15.28125  20 15.625  L 20 16.875  C 20 17.21875  19.71875 17.5  19.375 18  L 0.625 18  C 0.28125 17.5  0 17.78125  0 18.125  L 0 19.375  C 0 19.71875  0.28125 20  0.625 20  L 16.875 20  C 17.21875 20  17.5 20.28125  17.5 20.625  L 17.5 21.875  C 17.5 22.21875  17.21875 22.5  16.875 22  L 5 22  L 5 32.5  C 5 36.640625  8.359375 40  12.5 40  C 16.640625 40  20 36.640625  20 32  L 30 32  C 30 36.640625  33.359375 40  37.5 40  C 41.640625 40  45 36.640625  45 32.5  L 48.75 32.5  C 49.4375 32.5  50 31.9375  50 31.25  L 50 28.75  Z M 16.25 32.5  C 16.25 34.5703125  14.570312499999998 36.25  12.5 36.25  C 10.4296875 36.25  8.75 34.5703125  8.75 32.5  C 8.75 30.4296875  10.4296875 28.75  12.5 28.75  C 14.570312499999998 28.75  16.25 30.4296875  16.25 32.5  Z M 41.25 32.5  C 41.25 34.5703125  39.5703125 36.25  37.5 36.25  C 35.4296875 36.25  33.75 34.5703125  33.75 32.5  C 33.75 30.4296875  35.4296875 28.75  37.5 28.75  C 39.5703125 28.75  41.25 30.4296875  41.25 32.5  Z M 43.75 19.0546875  L 43.75 20  L 32.5 20  L 32.5 11.25  L 35.9453125 11.25  L 43.75 19.0546875  Z " fill-rule="evenodd" />
    </mask>
  </defs>
  <g>
    <path d="M 50 28.75  C 50 28.0625  49.4375 27.5  48.75 27.5  L 47.5 27.5  L 47.5 19.0546875  C 47.5 18.0625  47.1015625 17.109375  46.3984375 16.40625  L 38.59375 8.6015625  C 37.890625 7.8984375  36.9375 7.5  35.9453125 7.5  L 32.5 7.5  L 32.5 3.75  C 32.5 1.6796875  30.820312500000004 0  28.749999999999996 0  L 8.75 0  C 6.679687500000001 0  5 1.6796875  5 3.75  L 5 7.5  L 0.625 7.5  C 0.28125 7.5  0 7.78125  0 8.125  L 0 9.375  C 0 9.71875  0.28125 10  0.625 10  L 21.875 10  C 22.21875 10  22.5 10.28125  22.5 10.625  L 22.5 11.875  C 22.5 12.21875  22.21875 12.5  21.875 13  L 3.125 13  C 2.78125 12.5  2.5 12.78125  2.5 13.125  L 2.5 14.375  C 2.5 14.71875  2.78125 15  3.125 15  L 19.375 15  C 19.71875 15  20 15.28125  20 15.625  L 20 16.875  C 20 17.21875  19.71875 17.5  19.375 18  L 0.625 18  C 0.28125 17.5  0 17.78125  0 18.125  L 0 19.375  C 0 19.71875  0.28125 20  0.625 20  L 16.875 20  C 17.21875 20  17.5 20.28125  17.5 20.625  L 17.5 21.875  C 17.5 22.21875  17.21875 22.5  16.875 22  L 5 22  L 5 32.5  C 5 36.640625  8.359375 40  12.5 40  C 16.640625 40  20 36.640625  20 32  L 30 32  C 30 36.640625  33.359375 40  37.5 40  C 41.640625 40  45 36.640625  45 32.5  L 48.75 32.5  C 49.4375 32.5  50 31.9375  50 31.25  L 50 28.75  Z M 16.25 32.5  C 16.25 34.5703125  14.570312499999998 36.25  12.5 36.25  C 10.4296875 36.25  8.75 34.5703125  8.75 32.5  C 8.75 30.4296875  10.4296875 28.75  12.5 28.75  C 14.570312499999998 28.75  16.25 30.4296875  16.25 32.5  Z M 41.25 32.5  C 41.25 34.5703125  39.5703125 36.25  37.5 36.25  C 35.4296875 36.25  33.75 34.5703125  33.75 32.5  C 33.75 30.4296875  35.4296875 28.75  37.5 28.75  C 39.5703125 28.75  41.25 30.4296875  41.25 32.5  Z M 43.75 19.0546875  L 43.75 20  L 32.5 20  L 32.5 11.25  L 35.9453125 11.25  L 43.75 19.0546875  Z " fill-rule="nonzero" fill="rgba(0, 0, 0, 1)" stroke="none" class="fill" />
    <path d="M 50 28.75  C 50 28.0625  49.4375 27.5  48.75 27.5  L 47.5 27.5  L 47.5 19.0546875  C 47.5 18.0625  47.1015625 17.109375  46.3984375 16.40625  L 38.59375 8.6015625  C 37.890625 7.8984375  36.9375 7.5  35.9453125 7.5  L 32.5 7.5  L 32.5 3.75  C 32.5 1.6796875  30.820312500000004 0  28.749999999999996 0  L 8.75 0  C 6.679687500000001 0  5 1.6796875  5 3.75  L 5 7.5  L 0.625 7.5  C 0.28125 7.5  0 7.78125  0 8.125  L 0 9.375  C 0 9.71875  0.28125 10  0.625 10  L 21.875 10  C 22.21875 10  22.5 10.28125  22.5 10.625  L 22.5 11.875  C 22.5 12.21875  22.21875 12.5  21.875 13  L 3.125 13  C 2.78125 12.5  2.5 12.78125  2.5 13.125  L 2.5 14.375  C 2.5 14.71875  2.78125 15  3.125 15  L 19.375 15  C 19.71875 15  20 15.28125  20 15.625  L 20 16.875  C 20 17.21875  19.71875 17.5  19.375 18  L 0.625 18  C 0.28125 17.5  0 17.78125  0 18.125  L 0 19.375  C 0 19.71875  0.28125 20  0.625 20  L 16.875 20  C 17.21875 20  17.5 20.28125  17.5 20.625  L 17.5 21.875  C 17.5 22.21875  17.21875 22.5  16.875 22  L 5 22  L 5 32.5  C 5 36.640625  8.359375 40  12.5 40  C 16.640625 40  20 36.640625  20 32  L 30 32  C 30 36.640625  33.359375 40  37.5 40  C 41.640625 40  45 36.640625  45 32.5  L 48.75 32.5  C 49.4375 32.5  50 31.9375  50 31.25  L 50 28.75  Z " stroke-width="0" stroke-dasharray="0" stroke="rgba(255, 255, 255, 0)" fill="none" class="stroke" mask="url(#Clip1942)" />
    <path d="M 16.25 32.5  C 16.25 34.5703125  14.570312499999998 36.25  12.5 36.25  C 10.4296875 36.25  8.75 34.5703125  8.75 32.5  C 8.75 30.4296875  10.4296875 28.75  12.5 28.75  C 14.570312499999998 28.75  16.25 30.4296875  16.25 32.5  Z " stroke-width="0" stroke-dasharray="0" stroke="rgba(255, 255, 255, 0)" fill="none" class="stroke" mask="url(#Clip1942)" />
    <path d="M 41.25 32.5  C 41.25 34.5703125  39.5703125 36.25  37.5 36.25  C 35.4296875 36.25  33.75 34.5703125  33.75 32.5  C 33.75 30.4296875  35.4296875 28.75  37.5 28.75  C 39.5703125 28.75  41.25 30.4296875  41.25 32.5  Z " stroke-width="0" stroke-dasharray="0" stroke="rgba(255, 255, 255, 0)" fill="none" class="stroke" mask="url(#Clip1942)" />
    <path d="M 43.75 19.0546875  L 43.75 20  L 32.5 20  L 32.5 11.25  L 35.9453125 11.25  L 43.75 19.0546875  Z " stroke-width="0" stroke-dasharray="0" stroke="rgba(255, 255, 255, 0)" fill="none" class="stroke" mask="url(#Clip1942)" />
  </g>
</svg>