<?xml version="1.0" encoding="utf-8"?>
<svg version="1.1" xmlns:xlink="http://www.w3.org/1999/xlink" width="18px" height="24px" xmlns="http://www.w3.org/2000/svg">
  <defs>
    <pattern id="BGPattern" patternUnits="userSpaceOnUse" alignment="0 0" imageRepeat="None" />
    <mask fill="white" id="Clip5500">
      <path d="M 0 3  C 0 1.3431457505076196  1.3431457505076194 0  3 0  L 10.939499999999999 0  C 11.33729222021822 8.495610824209971E-05  11.718760902963812 0.15817593778357192  12 0.4395  L 17.5605 6  C 17.84182406221643 6.281239097036188  17.999915043891757 6.662707779781778  18 7.060499999999999  L 18 21  C 18 22.65685424949238  16.65685424949238 24  15 24  L 3 24  C 1.3431457505076194 24  0 22.65685424949238  0 21  L 0 3  Z M 15.75 6.75  L 11.25 2.25  L 11.25 5.25  C 11.25 6.07842712474619  11.92157287525381 6.75  12.75 6.75  L 15.75 6.75  Z M 3.3674999999999935 18.847499999999993  C 3.052499999999993 19.336499999999994  2.954999999999994 19.918499999999995  3.2475000000000005 20.502  C 3.3825000000000003 20.772  3.592500000000001 21.0165  3.9044999999999996 21.130499999999998  C 4.215 21.243  4.522499999999999 21.1905  4.7745 21.0855  C 5.2515 20.8905  5.727 20.4315  6.163499999999999 19.9065  C 6.663 19.305  7.187999999999999 18.516000000000002  7.695 17.641500000000004  C 8.67379624493469 17.35139921453402  9.67612928156022 17.14761993918601  10.6905 17.0325  C 11.140500000000003 17.607  11.6055 18.102  12.055500000000002 18.4575  C 12.4755 18.7875  12.96 19.062  13.456499999999998 19.083  C 13.726947663217373 19.09639041264803  13.994705953127454 19.023938169495892  14.221499999999999 18.875999999999998  C 14.454 18.7245  14.6265 18.505499999999998  14.752499999999998 18.252  C 14.8875 17.9805  14.969999999999999 17.697  14.959499999999998 17.4075  C 14.949999239716707 17.122076695898386  14.844274642969513 16.848249990323147  14.659500000000001 16.630499999999998  C 14.3205 16.225499999999997  13.7655 16.030499999999996  13.219499999999996 15.932999999999996  C 12.557168377856438 15.83041485671637  11.885149582063232 15.805245613428237  11.216999999999997 15.857999999999997  C 10.652786137050228 15.06038033304486  10.160837135417616 14.214027254725899  9.746999999999996 13.328999999999997  C 10.121999999999996 12.338999999999995  10.402499999999996 11.402999999999997  10.526999999999996 10.637999999999995  C 10.580999999999996 10.310999999999996  10.609499999999995 9.998999999999995  10.598999999999997 9.716999999999995  C 10.597135625450832 9.437080170829372  10.532012361909981 9.16120366858544  10.408499999999995 8.909999999999995  C 10.264392328807496 8.629252551156483  10.001656311464142 8.428207171009053  9.692999999999994 8.362499999999995  C 9.389999999999993 8.297999999999995  9.077999999999994 8.362499999999995  8.791499999999994 8.477999999999994  C 8.225999999999996 8.702999999999996  7.927499999999995 9.182999999999995  7.814999999999994 9.712499999999995  C 7.705499999999994 10.222499999999993  7.7549999999999955 10.816499999999994  7.883999999999995 11.416499999999994  C 8.015999999999995 12.025499999999994  8.240999999999994 12.688499999999994  8.528999999999995 13.358999999999993  C 8.068329167816179 14.504695305821311  7.536285680181553 15.620383485635159  6.935999999999995 16.699499999999993  C 6.162962044254977 16.942723586981383  5.417817269321278 17.267027487003134  4.712999999999994 17.666999999999994  C 4.157999999999994 17.996999999999993  3.664499999999994 18.386999999999993  3.3674999999999935 18.847499999999993  Z " fill-rule="evenodd" />
    </mask>
  </defs>
  <g>
    <path d="M 0 3  C 0 1.3431457505076196  1.3431457505076194 0  3 0  L 10.939499999999999 0  C 11.33729222021822 8.495610824209971E-05  11.718760902963812 0.15817593778357192  12 0.4395  L 17.5605 6  C 17.84182406221643 6.281239097036188  17.999915043891757 6.662707779781778  18 7.060499999999999  L 18 21  C 18 22.65685424949238  16.65685424949238 24  15 24  L 3 24  C 1.3431457505076194 24  0 22.65685424949238  0 21  L 0 3  Z M 15.75 6.75  L 11.25 2.25  L 11.25 5.25  C 11.25 6.07842712474619  11.92157287525381 6.75  12.75 6.75  L 15.75 6.75  Z M 3.3674999999999935 18.847499999999993  C 3.052499999999993 19.336499999999994  2.954999999999994 19.918499999999995  3.2475000000000005 20.502  C 3.3825000000000003 20.772  3.592500000000001 21.0165  3.9044999999999996 21.130499999999998  C 4.215 21.243  4.522499999999999 21.1905  4.7745 21.0855  C 5.2515 20.8905  5.727 20.4315  6.163499999999999 19.9065  C 6.663 19.305  7.187999999999999 18.516000000000002  7.695 17.641500000000004  C 8.67379624493469 17.35139921453402  9.67612928156022 17.14761993918601  10.6905 17.0325  C 11.140500000000003 17.607  11.6055 18.102  12.055500000000002 18.4575  C 12.4755 18.7875  12.96 19.062  13.456499999999998 19.083  C 13.726947663217373 19.09639041264803  13.994705953127454 19.023938169495892  14.221499999999999 18.875999999999998  C 14.454 18.7245  14.6265 18.505499999999998  14.752499999999998 18.252  C 14.8875 17.9805  14.969999999999999 17.697  14.959499999999998 17.4075  C 14.949999239716707 17.122076695898386  14.844274642969513 16.848249990323147  14.659500000000001 16.630499999999998  C 14.3205 16.225499999999997  13.7655 16.030499999999996  13.219499999999996 15.932999999999996  C 12.557168377856438 15.83041485671637  11.885149582063232 15.805245613428237  11.216999999999997 15.857999999999997  C 10.652786137050228 15.06038033304486  10.160837135417616 14.214027254725899  9.746999999999996 13.328999999999997  C 10.121999999999996 12.338999999999995  10.402499999999996 11.402999999999997  10.526999999999996 10.637999999999995  C 10.580999999999996 10.310999999999996  10.609499999999995 9.998999999999995  10.598999999999997 9.716999999999995  C 10.597135625450832 9.437080170829372  10.532012361909981 9.16120366858544  10.408499999999995 8.909999999999995  C 10.264392328807496 8.629252551156483  10.001656311464142 8.428207171009053  9.692999999999994 8.362499999999995  C 9.389999999999993 8.297999999999995  9.077999999999994 8.362499999999995  8.791499999999994 8.477999999999994  C 8.225999999999996 8.702999999999996  7.927499999999995 9.182999999999995  7.814999999999994 9.712499999999995  C 7.705499999999994 10.222499999999993  7.7549999999999955 10.816499999999994  7.883999999999995 11.416499999999994  C 8.015999999999995 12.025499999999994  8.240999999999994 12.688499999999994  8.528999999999995 13.358999999999993  C 8.068329167816179 14.504695305821311  7.536285680181553 15.620383485635159  6.935999999999995 16.699499999999993  C 6.162962044254977 16.942723586981383  5.417817269321278 17.267027487003134  4.712999999999994 17.666999999999994  C 4.157999999999994 17.996999999999993  3.664499999999994 18.386999999999993  3.3674999999999935 18.847499999999993  Z " fill-rule="nonzero" fill="rgba(0, 0, 0, 1)" stroke="none" class="fill" />
    <path d="M 0 3  C 0 1.3431457505076196  1.3431457505076194 0  3 0  L 10.939499999999999 0  C 11.33729222021822 8.495610824209971E-05  11.718760902963812 0.15817593778357192  12 0.4395  L 17.5605 6  C 17.84182406221643 6.281239097036188  17.999915043891757 6.662707779781778  18 7.060499999999999  L 18 21  C 18 22.65685424949238  16.65685424949238 24  15 24  L 3 24  C 1.3431457505076194 24  0 22.65685424949238  0 21  L 0 3  Z " stroke-width="0" stroke-dasharray="0" stroke="rgba(255, 255, 255, 0)" fill="none" class="stroke" mask="url(#Clip5500)" />
    <path d="M 15.75 6.75  L 11.25 2.25  L 11.25 5.25  C 11.25 6.07842712474619  11.92157287525381 6.75  12.75 6.75  L 15.75 6.75  Z " stroke-width="0" stroke-dasharray="0" stroke="rgba(255, 255, 255, 0)" fill="none" class="stroke" mask="url(#Clip5500)" />
    <path d="M 3.3674999999999935 18.847499999999993  C 3.052499999999993 19.336499999999994  2.954999999999994 19.918499999999995  3.2475000000000005 20.502  C 3.3825000000000003 20.772  3.592500000000001 21.0165  3.9044999999999996 21.130499999999998  C 4.215 21.243  4.522499999999999 21.1905  4.7745 21.0855  C 5.2515 20.8905  5.727 20.4315  6.163499999999999 19.9065  C 6.663 19.305  7.187999999999999 18.516000000000002  7.695 17.641500000000004  C 8.67379624493469 17.35139921453402  9.67612928156022 17.14761993918601  10.6905 17.0325  C 11.140500000000003 17.607  11.6055 18.102  12.055500000000002 18.4575  C 12.4755 18.7875  12.96 19.062  13.456499999999998 19.083  C 13.726947663217373 19.09639041264803  13.994705953127454 19.023938169495892  14.221499999999999 18.875999999999998  C 14.454 18.7245  14.6265 18.505499999999998  14.752499999999998 18.252  C 14.8875 17.9805  14.969999999999999 17.697  14.959499999999998 17.4075  C 14.949999239716707 17.122076695898386  14.844274642969513 16.848249990323147  14.659500000000001 16.630499999999998  C 14.3205 16.225499999999997  13.7655 16.030499999999996  13.219499999999996 15.932999999999996  C 12.557168377856438 15.83041485671637  11.885149582063232 15.805245613428237  11.216999999999997 15.857999999999997  C 10.652786137050228 15.06038033304486  10.160837135417616 14.214027254725899  9.746999999999996 13.328999999999997  C 10.121999999999996 12.338999999999995  10.402499999999996 11.402999999999997  10.526999999999996 10.637999999999995  C 10.580999999999996 10.310999999999996  10.609499999999995 9.998999999999995  10.598999999999997 9.716999999999995  C 10.597135625450832 9.437080170829372  10.532012361909981 9.16120366858544  10.408499999999995 8.909999999999995  C 10.264392328807496 8.629252551156483  10.001656311464142 8.428207171009053  9.692999999999994 8.362499999999995  C 9.389999999999993 8.297999999999995  9.077999999999994 8.362499999999995  8.791499999999994 8.477999999999994  C 8.225999999999996 8.702999999999996  7.927499999999995 9.182999999999995  7.814999999999994 9.712499999999995  C 7.705499999999994 10.222499999999993  7.7549999999999955 10.816499999999994  7.883999999999995 11.416499999999994  C 8.015999999999995 12.025499999999994  8.240999999999994 12.688499999999994  8.528999999999995 13.358999999999993  C 8.068329167816179 14.504695305821311  7.536285680181553 15.620383485635159  6.935999999999995 16.699499999999993  C 6.162962044254977 16.942723586981383  5.417817269321278 17.267027487003134  4.712999999999994 17.666999999999994  C 4.157999999999994 17.996999999999993  3.664499999999994 18.386999999999993  3.3674999999999935 18.847499999999993  Z " stroke-width="0" stroke-dasharray="0" stroke="rgba(255, 255, 255, 0)" fill="none" class="stroke" mask="url(#Clip5500)" />
  </g>
</svg>