<?xml version="1.0" encoding="utf-8"?>
<svg version="1.1" xmlns:xlink="http://www.w3.org/1999/xlink" width="10px" height="12px" xmlns="http://www.w3.org/2000/svg">
  <defs>
    <pattern id="BGPattern" patternUnits="userSpaceOnUse" alignment="0 0" imageRepeat="None" />
    <mask fill="white" id="Clip5499">
      <path d="M 0.31399999999999917 10.457999999999998  C 0.472999999999999 10.2105  0.7924999999999986 9.927  1.2844999999999995 9.636  C 1.4944999999999986 9.512999999999998  1.7240000000000002 9.392999999999997  1.9729999999999972 9.279  C 1.7626531293684025 9.592611019384663  1.5373946457517622 9.89595911065507  1.2979999999999983 10.187999999999999  C 0.8779999999999983 10.6935  0.5509999999999984 10.962  0.34550000000000036 11.046  C 0.3284390124846208 11.053211307462533  0.31089658566300393 11.059225853801376  0.2929999999999975 11.064  C 0.278029123778885 11.04322579214032  0.26497552968772453 11.021135094447587  0.25399999999999956 10.997999999999998  C 0.16999999999999904 10.832999999999998  0.17299999999999827 10.674  0.31399999999999917 10.457999999999998  Z M 5.948 6.994499999999999  C 5.622499999999999 7.042499999999997  5.2940000000000005 7.099499999999999  4.966999999999999 7.165499999999998  C 4.788499999999999 7.202999999999999  4.6114999999999995 7.240500000000001  4.433 7.282499999999999  C 4.697390853749333 6.76447456326909  4.947485393163664 6.239276030498999  5.183 5.707499999999994  C 5.420107907196721 6.146885774659207  5.675326977769892 6.576254328682307  5.948 6.994499999999999  Z M 9.5015 8.957999999999998  C 9.366499999999998 8.953499999999998  9.1145 8.858999999999998  8.7545 8.573999999999998  C 8.521512523700789 8.386079866567343  8.303365625221431 8.180470146161511  8.102 7.959  C 8.443999999999999 7.9665  8.752999999999998 7.991999999999997  9.02 8.04  C 9.4955 8.125499999999999  9.718999999999998 8.2605  9.797 8.353499999999997  C 9.821586088588269 8.379472265144656  9.835507276733125 8.413739805193522  9.835999999999999 8.4495  C 9.830741958952977 8.555313618525748  9.799856287855647 8.658265855516838  9.745999999999999 8.749499999999998  C 9.71575285235338 8.822579771855342  9.66719309829353 8.886637319764084  9.605 8.935499999999998  C 9.574039926149048 8.954495533685314  9.537552075755421 8.962427675075233  9.5015 8.957999999999998  Z M 5.417000000000002 1.4564999999999984  L 5.417000000000002 1.455  C 5.357000000000003 1.8209999999999997  5.254999999999999 2.2409999999999997  5.117000000000001 2.6984999999999992  C 5.066154193578983 2.52719464011912  5.021624114289006 2.3540777026547186  4.983500000000001 2.179499999999999  C 4.869500000000002 1.6499999999999986  4.8530000000000015 1.2344999999999988  4.9145 0.9464999999999986  C 4.971500000000001 0.6809999999999992  5.079500000000001 0.5744999999999987  5.208500000000001 0.5219999999999985  C 5.277687375073167 0.4915039658350988  5.350962706868106 0.471290081202012  5.426000000000002 0.46199999999999797  C 5.445500000000001 0.5069999999999979  5.468000000000002 0.5999999999999979  5.474 0.7589999999999986  C 5.481500000000002 0.9419999999999984  5.463500000000002 1.1744999999999983  5.417000000000002 1.4564999999999984  Z " fill-rule="evenodd" />
    </mask>
  </defs>
  <g transform="matrix(1 0 0 1 -4 -9 )">
    <path d="M 0.31399999999999917 10.457999999999998  C 0.472999999999999 10.2105  0.7924999999999986 9.927  1.2844999999999995 9.636  C 1.4944999999999986 9.512999999999998  1.7240000000000002 9.392999999999997  1.9729999999999972 9.279  C 1.7626531293684025 9.592611019384663  1.5373946457517622 9.89595911065507  1.2979999999999983 10.187999999999999  C 0.8779999999999983 10.6935  0.5509999999999984 10.962  0.34550000000000036 11.046  C 0.3284390124846208 11.053211307462533  0.31089658566300393 11.059225853801376  0.2929999999999975 11.064  C 0.278029123778885 11.04322579214032  0.26497552968772453 11.021135094447587  0.25399999999999956 10.997999999999998  C 0.16999999999999904 10.832999999999998  0.17299999999999827 10.674  0.31399999999999917 10.457999999999998  Z M 5.948 6.994499999999999  C 5.622499999999999 7.042499999999997  5.2940000000000005 7.099499999999999  4.966999999999999 7.165499999999998  C 4.788499999999999 7.202999999999999  4.6114999999999995 7.240500000000001  4.433 7.282499999999999  C 4.697390853749333 6.76447456326909  4.947485393163664 6.239276030498999  5.183 5.707499999999994  C 5.420107907196721 6.146885774659207  5.675326977769892 6.576254328682307  5.948 6.994499999999999  Z M 9.5015 8.957999999999998  C 9.366499999999998 8.953499999999998  9.1145 8.858999999999998  8.7545 8.573999999999998  C 8.521512523700789 8.386079866567343  8.303365625221431 8.180470146161511  8.102 7.959  C 8.443999999999999 7.9665  8.752999999999998 7.991999999999997  9.02 8.04  C 9.4955 8.125499999999999  9.718999999999998 8.2605  9.797 8.353499999999997  C 9.821586088588269 8.379472265144656  9.835507276733125 8.413739805193522  9.835999999999999 8.4495  C 9.830741958952977 8.555313618525748  9.799856287855647 8.658265855516838  9.745999999999999 8.749499999999998  C 9.71575285235338 8.822579771855342  9.66719309829353 8.886637319764084  9.605 8.935499999999998  C 9.574039926149048 8.954495533685314  9.537552075755421 8.962427675075233  9.5015 8.957999999999998  Z M 5.417000000000002 1.4564999999999984  L 5.417000000000002 1.455  C 5.357000000000003 1.8209999999999997  5.254999999999999 2.2409999999999997  5.117000000000001 2.6984999999999992  C 5.066154193578983 2.52719464011912  5.021624114289006 2.3540777026547186  4.983500000000001 2.179499999999999  C 4.869500000000002 1.6499999999999986  4.8530000000000015 1.2344999999999988  4.9145 0.9464999999999986  C 4.971500000000001 0.6809999999999992  5.079500000000001 0.5744999999999987  5.208500000000001 0.5219999999999985  C 5.277687375073167 0.4915039658350988  5.350962706868106 0.471290081202012  5.426000000000002 0.46199999999999797  C 5.445500000000001 0.5069999999999979  5.468000000000002 0.5999999999999979  5.474 0.7589999999999986  C 5.481500000000002 0.9419999999999984  5.463500000000002 1.1744999999999983  5.417000000000002 1.4564999999999984  Z " fill-rule="nonzero" fill="rgba(0, 0, 0, 1)" stroke="none" transform="matrix(1 0 0 1 4 9 )" class="fill" />
    <path d="M 0.31399999999999917 10.457999999999998  C 0.472999999999999 10.2105  0.7924999999999986 9.927  1.2844999999999995 9.636  C 1.4944999999999986 9.512999999999998  1.7240000000000002 9.392999999999997  1.9729999999999972 9.279  C 1.7626531293684025 9.592611019384663  1.5373946457517622 9.89595911065507  1.2979999999999983 10.187999999999999  C 0.8779999999999983 10.6935  0.5509999999999984 10.962  0.34550000000000036 11.046  C 0.3284390124846208 11.053211307462533  0.31089658566300393 11.059225853801376  0.2929999999999975 11.064  C 0.278029123778885 11.04322579214032  0.26497552968772453 11.021135094447587  0.25399999999999956 10.997999999999998  C 0.16999999999999904 10.832999999999998  0.17299999999999827 10.674  0.31399999999999917 10.457999999999998  Z " stroke-width="0" stroke-dasharray="0" stroke="rgba(255, 255, 255, 0)" fill="none" transform="matrix(1 0 0 1 4 9 )" class="stroke" mask="url(#Clip5499)" />
    <path d="M 5.948 6.994499999999999  C 5.622499999999999 7.042499999999997  5.2940000000000005 7.099499999999999  4.966999999999999 7.165499999999998  C 4.788499999999999 7.202999999999999  4.6114999999999995 7.240500000000001  4.433 7.282499999999999  C 4.697390853749333 6.76447456326909  4.947485393163664 6.239276030498999  5.183 5.707499999999994  C 5.420107907196721 6.146885774659207  5.675326977769892 6.576254328682307  5.948 6.994499999999999  Z " stroke-width="0" stroke-dasharray="0" stroke="rgba(255, 255, 255, 0)" fill="none" transform="matrix(1 0 0 1 4 9 )" class="stroke" mask="url(#Clip5499)" />
    <path d="M 9.5015 8.957999999999998  C 9.366499999999998 8.953499999999998  9.1145 8.858999999999998  8.7545 8.573999999999998  C 8.521512523700789 8.386079866567343  8.303365625221431 8.180470146161511  8.102 7.959  C 8.443999999999999 7.9665  8.752999999999998 7.991999999999997  9.02 8.04  C 9.4955 8.125499999999999  9.718999999999998 8.2605  9.797 8.353499999999997  C 9.821586088588269 8.379472265144656  9.835507276733125 8.413739805193522  9.835999999999999 8.4495  C 9.830741958952977 8.555313618525748  9.799856287855647 8.658265855516838  9.745999999999999 8.749499999999998  C 9.71575285235338 8.822579771855342  9.66719309829353 8.886637319764084  9.605 8.935499999999998  C 9.574039926149048 8.954495533685314  9.537552075755421 8.962427675075233  9.5015 8.957999999999998  Z " stroke-width="0" stroke-dasharray="0" stroke="rgba(255, 255, 255, 0)" fill="none" transform="matrix(1 0 0 1 4 9 )" class="stroke" mask="url(#Clip5499)" />
    <path d="M 5.417000000000002 1.4564999999999984  L 5.417000000000002 1.455  C 5.357000000000003 1.8209999999999997  5.254999999999999 2.2409999999999997  5.117000000000001 2.6984999999999992  C 5.066154193578983 2.52719464011912  5.021624114289006 2.3540777026547186  4.983500000000001 2.179499999999999  C 4.869500000000002 1.6499999999999986  4.8530000000000015 1.2344999999999988  4.9145 0.9464999999999986  C 4.971500000000001 0.6809999999999992  5.079500000000001 0.5744999999999987  5.208500000000001 0.5219999999999985  C 5.277687375073167 0.4915039658350988  5.350962706868106 0.471290081202012  5.426000000000002 0.46199999999999797  C 5.445500000000001 0.5069999999999979  5.468000000000002 0.5999999999999979  5.474 0.7589999999999986  C 5.481500000000002 0.9419999999999984  5.463500000000002 1.1744999999999983  5.417000000000002 1.4564999999999984  Z " stroke-width="0" stroke-dasharray="0" stroke="rgba(255, 255, 255, 0)" fill="none" transform="matrix(1 0 0 1 4 9 )" class="stroke" mask="url(#Clip5499)" />
  </g>
</svg>