<?xml version="1.0" encoding="utf-8"?>
<svg version="1.1" xmlns:xlink="http://www.w3.org/1999/xlink" width="26px" height="20px" xmlns="http://www.w3.org/2000/svg">
  <defs>
    <pattern id="BGPattern" patternUnits="userSpaceOnUse" alignment="0 0" imageRepeat="None" />
    <mask fill="white" id="Clip3402">
      <path d="M 10 20  L 11.41 18.59  L 3.83 11  L 26 11  L 26 9  L 3.83 9  L 11.41 1.4100000000000001  L 10 0  L 0 10  L 10 20  Z " fill-rule="evenodd" />
    </mask>
  </defs>
  <g transform="matrix(1 0 0 1 -3 -6 )">
    <path d="M 10 20  L 11.41 18.59  L 3.83 11  L 26 11  L 26 9  L 3.83 9  L 11.41 1.4100000000000001  L 10 0  L 0 10  L 10 20  Z " fill-rule="nonzero" fill="rgba(0, 0, 0, 1)" stroke="none" transform="matrix(1 0 0 1 3 6 )" class="fill" />
    <path d="M 10 20  L 11.41 18.59  L 3.83 11  L 26 11  L 26 9  L 3.83 9  L 11.41 1.4100000000000001  L 10 0  L 0 10  L 10 20  Z " stroke-width="0" stroke-dasharray="0" stroke="rgba(255, 255, 255, 0)" fill="none" transform="matrix(1 0 0 1 3 6 )" class="stroke" mask="url(#Clip3402)" />
  </g>
</svg>