<?xml version="1.0" encoding="utf-8"?>
<svg version="1.1" xmlns:xlink="http://www.w3.org/1999/xlink" width="50px" height="39px" xmlns="http://www.w3.org/2000/svg">
  <defs>
    <pattern id="BGPattern" patternUnits="userSpaceOnUse" alignment="0 0" imageRepeat="None" />
    <mask fill="white" id="Clip948">
      <path d="M 42.392426850258175 28.769363166953553  C 47.08261617900172 25.722891566265073  50 21.462994836488832  50 16.746987951807228  C 50 7.495697074010337  38.80378657487091 0  25 0  C 11.196213425129088 0  0 7.495697074010337  0 16.746987951807228  C 0 24.991394148020674  8.889845094664366 31.841652323580064  20.602409638554207 33.22719449225474  L 20.602409638554207 38.554216867469904  L 29.130808950086053 38.554216867469904  L 29.130808950086053 33.261617900172155  C 31.22203098106712 33.0292598967298  33.22719449225474 32.62478485370053  35.10327022375213 32.06540447504307  L 38.554216867469876 38.554216867469904  L 48.19277108433735 38.554216867469904  L 42.392426850258175 28.769363166953553  Z M 21 28.31325301204822  C 14.225473321858855 26.462994836488832  9.827882960413092 22.53872633390708  9.827882960413092 17.99483648881241  C 9.827882960413092 11.66953528399313  18.339070567986226 6.549053356282286  28.829604130808946 6.549053356282286  C 39.320137693631665 6.549053356282286  47.06540447504301 10.051635111876095  47.06540447504301 17.99483648881241  C 47.06540447504301 22.30636833046472  44.78485370051635 25.309810671256486  41.015490533562826 27.151462994836493  C 40.80895008605853 27.013769363166972  40.61101549053356 26.901893287435485  40.464716006884686 26.83304647160071  C 39.58691910499141 26.385542168674707  38.07228915662651 25.92943201376937  38.07228915662651 25.92943201376937  C 38.07228915662651 25.92943201376937  45.52495697074011 25.378657487091232  45.52495697074011 17.95180722891567  C 45.52495697074011 10.524956970740106  37.728055077452666 10.387263339070586  37.728055077452666 11  L 21 11  L 21 28.31325301204822  Z M 36.75559380378658 18.855421686747007  C 36.75559380378658 21.996557659208293  33.46815834767642 21.290877796901896  29.199655765920824 21.290877796901896  L 29.199655765920824 16.506024096385545  C 34.17383820998279 16.506024096385545  36.75559380378658 15.920826161790018  36.75559380378658 18.855421686747007  Z M 29.1222030981067 29.43201376936318  L 29.1222030981067 27.53012048192772  L 31.411359724612737 27.53012048192772  C 32.34079173838211 27.53012048192772  33.03786574870912 28.537005163511196  33.476764199655776 29.182444061962148  C 32.09122203098107 29.345955249569727  30.636833046471594 29.423407917383827  29.1222030981067 29.43201376936318  Z " fill-rule="evenodd" />
    </mask>
  </defs>
  <g>
    <path d="M 42.392426850258175 28.769363166953553  C 47.08261617900172 25.722891566265073  50 21.462994836488832  50 16.746987951807228  C 50 7.495697074010337  38.80378657487091 0  25 0  C 11.196213425129088 0  0 7.495697074010337  0 16.746987951807228  C 0 24.991394148020674  8.889845094664366 31.841652323580064  20.602409638554207 33.22719449225474  L 20.602409638554207 38.554216867469904  L 29.130808950086053 38.554216867469904  L 29.130808950086053 33.261617900172155  C 31.22203098106712 33.0292598967298  33.22719449225474 32.62478485370053  35.10327022375213 32.06540447504307  L 38.554216867469876 38.554216867469904  L 48.19277108433735 38.554216867469904  L 42.392426850258175 28.769363166953553  Z M 21 28.31325301204822  C 14.225473321858855 26.462994836488832  9.827882960413092 22.53872633390708  9.827882960413092 17.99483648881241  C 9.827882960413092 11.66953528399313  18.339070567986226 6.549053356282286  28.829604130808946 6.549053356282286  C 39.320137693631665 6.549053356282286  47.06540447504301 10.051635111876095  47.06540447504301 17.99483648881241  C 47.06540447504301 22.30636833046472  44.78485370051635 25.309810671256486  41.015490533562826 27.151462994836493  C 40.80895008605853 27.013769363166972  40.61101549053356 26.901893287435485  40.464716006884686 26.83304647160071  C 39.58691910499141 26.385542168674707  38.07228915662651 25.92943201376937  38.07228915662651 25.92943201376937  C 38.07228915662651 25.92943201376937  45.52495697074011 25.378657487091232  45.52495697074011 17.95180722891567  C 45.52495697074011 10.524956970740106  37.728055077452666 10.387263339070586  37.728055077452666 11  L 21 11  L 21 28.31325301204822  Z M 36.75559380378658 18.855421686747007  C 36.75559380378658 21.996557659208293  33.46815834767642 21.290877796901896  29.199655765920824 21.290877796901896  L 29.199655765920824 16.506024096385545  C 34.17383820998279 16.506024096385545  36.75559380378658 15.920826161790018  36.75559380378658 18.855421686747007  Z M 29.1222030981067 29.43201376936318  L 29.1222030981067 27.53012048192772  L 31.411359724612737 27.53012048192772  C 32.34079173838211 27.53012048192772  33.03786574870912 28.537005163511196  33.476764199655776 29.182444061962148  C 32.09122203098107 29.345955249569727  30.636833046471594 29.423407917383827  29.1222030981067 29.43201376936318  Z " fill-rule="nonzero" fill="rgba(0, 0, 0, 1)" stroke="none" class="fill" />
    <path d="M 42.392426850258175 28.769363166953553  C 47.08261617900172 25.722891566265073  50 21.462994836488832  50 16.746987951807228  C 50 7.495697074010337  38.80378657487091 0  25 0  C 11.196213425129088 0  0 7.495697074010337  0 16.746987951807228  C 0 24.991394148020674  8.889845094664366 31.841652323580064  20.602409638554207 33.22719449225474  L 20.602409638554207 38.554216867469904  L 29.130808950086053 38.554216867469904  L 29.130808950086053 33.261617900172155  C 31.22203098106712 33.0292598967298  33.22719449225474 32.62478485370053  35.10327022375213 32.06540447504307  L 38.554216867469876 38.554216867469904  L 48.19277108433735 38.554216867469904  L 42.392426850258175 28.769363166953553  Z " stroke-width="0" stroke-dasharray="0" stroke="rgba(255, 255, 255, 0)" fill="none" class="stroke" mask="url(#Clip948)" />
    <path d="M 21 28.31325301204822  C 14.225473321858855 26.462994836488832  9.827882960413092 22.53872633390708  9.827882960413092 17.99483648881241  C 9.827882960413092 11.66953528399313  18.339070567986226 6.549053356282286  28.829604130808946 6.549053356282286  C 39.320137693631665 6.549053356282286  47.06540447504301 10.051635111876095  47.06540447504301 17.99483648881241  C 47.06540447504301 22.30636833046472  44.78485370051635 25.309810671256486  41.015490533562826 27.151462994836493  C 40.80895008605853 27.013769363166972  40.61101549053356 26.901893287435485  40.464716006884686 26.83304647160071  C 39.58691910499141 26.385542168674707  38.07228915662651 25.92943201376937  38.07228915662651 25.92943201376937  C 38.07228915662651 25.92943201376937  45.52495697074011 25.378657487091232  45.52495697074011 17.95180722891567  C 45.52495697074011 10.524956970740106  37.728055077452666 10.387263339070586  37.728055077452666 11  L 21 11  L 21 28.31325301204822  Z " stroke-width="0" stroke-dasharray="0" stroke="rgba(255, 255, 255, 0)" fill="none" class="stroke" mask="url(#Clip948)" />
    <path d="M 36.75559380378658 18.855421686747007  C 36.75559380378658 21.996557659208293  33.46815834767642 21.290877796901896  29.199655765920824 21.290877796901896  L 29.199655765920824 16.506024096385545  C 34.17383820998279 16.506024096385545  36.75559380378658 15.920826161790018  36.75559380378658 18.855421686747007  Z " stroke-width="0" stroke-dasharray="0" stroke="rgba(255, 255, 255, 0)" fill="none" class="stroke" mask="url(#Clip948)" />
    <path d="M 29.1222030981067 29.43201376936318  L 29.1222030981067 27.53012048192772  L 31.411359724612737 27.53012048192772  C 32.34079173838211 27.53012048192772  33.03786574870912 28.537005163511196  33.476764199655776 29.182444061962148  C 32.09122203098107 29.345955249569727  30.636833046471594 29.423407917383827  29.1222030981067 29.43201376936318  Z " stroke-width="0" stroke-dasharray="0" stroke="rgba(255, 255, 255, 0)" fill="none" class="stroke" mask="url(#Clip948)" />
  </g>
</svg>