<?xml version="1.0" encoding="utf-8"?>
<svg version="1.1" xmlns:xlink="http://www.w3.org/1999/xlink" width="62px" height="62px" xmlns="http://www.w3.org/2000/svg">
  <defs>
    <pattern id="BGPattern" patternUnits="userSpaceOnUse" alignment="0 0" imageRepeat="None" />
    <mask fill="white" id="Clip1054">
      <path d="M 62 31  C 62 13.878749999999997  48.12125 0  31 0  C 13.87875 0  0 13.87875  0 31  C 0 48.12125  13.87875 62  31 62  C 48.12125 62  62 48.12125  62 31  Z M 51.713750000000005 18.79125000000001  C 52.47375 18.79000000000001  52.7175 19.140000000000008  52.416250000000005 19.825  C 50.518750000000004 24.138749999999998  48.620000000000005 28.4525  46.712500000000006 32.7625  C 46.407500000000006 33.45125  45.85125000000001 33.792500000000004  45.09125 33.792500000000004  C 42.213750000000005 33.791250000000005  39.337500000000006 33.800000000000004  36.46 33.78625  C 35.82 33.782500000000006  35.42875 34.0225  35.167500000000004 34.626250000000006  C 33.893750000000004 37.571250000000006  32.588750000000005 40.501250000000006  31.298750000000005 43.438750000000006  C 31.106250000000006 43.877500000000005  30.791250000000005 44.10000000000001  30.308750000000007 44.10000000000001  C 24.566250000000007 44.09875000000001  18.825000000000006 44.09750000000001  13.082500000000007 44.10000000000001  C 12.691250000000007 44.10000000000001  12.378750000000007 43.95625000000001  12.117500000000007 43.66875000000001  C 10.716250000000006 42.12750000000001  9.310000000000006 40.59000000000001  7.907500000000007 39.05125000000001  C 7.571250000000007 38.68250000000001  7.558750000000007 38.27875000000001  7.756250000000007 37.83500000000001  C 8.838750000000006 35.392500000000005  9.915000000000006 32.947500000000005  10.992500000000007 30.50250000000001  C 12.608750000000008 26.83375000000001  14.228750000000007 23.16625000000001  15.836250000000007 19.492500000000007  C 16.048750000000005 19.007500000000007  16.371250000000007 18.782500000000006  16.903750000000006 18.786250000000006  C 18.683750000000007 18.798750000000005  20.463750000000005 18.788750000000007  22.243750000000006 18.792500000000008  C 23.023750000000007 18.793750000000006  23.393750000000004 19.397500000000008  23.076250000000005 20.116250000000008  C 21.376250000000006 23.96250000000001  19.680000000000007 27.81000000000001  17.983750000000004 31.657500000000006  C 17.268750000000004 33.28125000000001  16.556250000000006 34.90625000000001  15.847500000000004 36.532500000000006  C 15.358750000000004 37.651250000000005  16.732500000000005 38.02875000000001  17.216250000000002 37.23250000000001  C 17.245 37.18625000000001  17.038750000000004 37.75500000000001  20.9675 28.77125000000001  C 21.137500000000003 28.38375000000001  21.39375 28.22125000000001  21.813750000000002 28.22250000000001  C 23.715000000000003 28.232500000000012  25.617500000000003 28.225000000000012  27.518750000000004 28.22750000000001  C 28.213750000000005 28.22875000000001  28.507500000000004 28.682500000000008  28.226250000000004 29.32125000000001  C 27.185000000000002 31.69125000000001  26.137500000000003 34.05875000000001  25.103750000000005 36.43250000000001  C 24.481250000000006 37.86125000000001  26.113750000000007 37.99375000000001  26.513750000000005 37.09875000000001  C 26.518750000000004 37.08875000000001  30.000000000000007 29.18250000000001  30.537500000000005 27.95375000000001  C 30.790000000000006 27.37750000000001  31.2175 27.14000000000001  31.83125 27.14125000000001  C 35.135000000000005 27.14750000000001  38.438750000000006 27.14125000000001  41.74250000000001 27.14750000000001  C 43.29750000000001 27.150000000000013  43.48375000000001 25.44125000000001  42.230000000000004 25.44250000000001  C 39.072500000000005 25.44625000000001  35.915000000000006 25.44500000000001  32.75750000000001 25.44500000000001  C 31.97375000000001 25.44500000000001  31.77750000000001 25.13625000000001  32.09875000000001 24.41125000000001  C 32.821250000000006 22.77875000000001  33.54750000000001 21.147500000000008  34.26125000000001 19.51000000000001  C 34.47750000000001 19.015000000000008  34.82625000000001 18.78625000000001  35.36625000000001 18.78750000000001  C 38.252500000000005 18.79500000000001  38.61375000000001 18.79000000000001  51.713750000000005 18.79125000000001  Z " fill-rule="evenodd" />
    </mask>
  </defs>
  <g>
    <path d="M 62 31  C 62 13.878749999999997  48.12125 0  31 0  C 13.87875 0  0 13.87875  0 31  C 0 48.12125  13.87875 62  31 62  C 48.12125 62  62 48.12125  62 31  Z M 51.713750000000005 18.79125000000001  C 52.47375 18.79000000000001  52.7175 19.140000000000008  52.416250000000005 19.825  C 50.518750000000004 24.138749999999998  48.620000000000005 28.4525  46.712500000000006 32.7625  C 46.407500000000006 33.45125  45.85125000000001 33.792500000000004  45.09125 33.792500000000004  C 42.213750000000005 33.791250000000005  39.337500000000006 33.800000000000004  36.46 33.78625  C 35.82 33.782500000000006  35.42875 34.0225  35.167500000000004 34.626250000000006  C 33.893750000000004 37.571250000000006  32.588750000000005 40.501250000000006  31.298750000000005 43.438750000000006  C 31.106250000000006 43.877500000000005  30.791250000000005 44.10000000000001  30.308750000000007 44.10000000000001  C 24.566250000000007 44.09875000000001  18.825000000000006 44.09750000000001  13.082500000000007 44.10000000000001  C 12.691250000000007 44.10000000000001  12.378750000000007 43.95625000000001  12.117500000000007 43.66875000000001  C 10.716250000000006 42.12750000000001  9.310000000000006 40.59000000000001  7.907500000000007 39.05125000000001  C 7.571250000000007 38.68250000000001  7.558750000000007 38.27875000000001  7.756250000000007 37.83500000000001  C 8.838750000000006 35.392500000000005  9.915000000000006 32.947500000000005  10.992500000000007 30.50250000000001  C 12.608750000000008 26.83375000000001  14.228750000000007 23.16625000000001  15.836250000000007 19.492500000000007  C 16.048750000000005 19.007500000000007  16.371250000000007 18.782500000000006  16.903750000000006 18.786250000000006  C 18.683750000000007 18.798750000000005  20.463750000000005 18.788750000000007  22.243750000000006 18.792500000000008  C 23.023750000000007 18.793750000000006  23.393750000000004 19.397500000000008  23.076250000000005 20.116250000000008  C 21.376250000000006 23.96250000000001  19.680000000000007 27.81000000000001  17.983750000000004 31.657500000000006  C 17.268750000000004 33.28125000000001  16.556250000000006 34.90625000000001  15.847500000000004 36.532500000000006  C 15.358750000000004 37.651250000000005  16.732500000000005 38.02875000000001  17.216250000000002 37.23250000000001  C 17.245 37.18625000000001  17.038750000000004 37.75500000000001  20.9675 28.77125000000001  C 21.137500000000003 28.38375000000001  21.39375 28.22125000000001  21.813750000000002 28.22250000000001  C 23.715000000000003 28.232500000000012  25.617500000000003 28.225000000000012  27.518750000000004 28.22750000000001  C 28.213750000000005 28.22875000000001  28.507500000000004 28.682500000000008  28.226250000000004 29.32125000000001  C 27.185000000000002 31.69125000000001  26.137500000000003 34.05875000000001  25.103750000000005 36.43250000000001  C 24.481250000000006 37.86125000000001  26.113750000000007 37.99375000000001  26.513750000000005 37.09875000000001  C 26.518750000000004 37.08875000000001  30.000000000000007 29.18250000000001  30.537500000000005 27.95375000000001  C 30.790000000000006 27.37750000000001  31.2175 27.14000000000001  31.83125 27.14125000000001  C 35.135000000000005 27.14750000000001  38.438750000000006 27.14125000000001  41.74250000000001 27.14750000000001  C 43.29750000000001 27.150000000000013  43.48375000000001 25.44125000000001  42.230000000000004 25.44250000000001  C 39.072500000000005 25.44625000000001  35.915000000000006 25.44500000000001  32.75750000000001 25.44500000000001  C 31.97375000000001 25.44500000000001  31.77750000000001 25.13625000000001  32.09875000000001 24.41125000000001  C 32.821250000000006 22.77875000000001  33.54750000000001 21.147500000000008  34.26125000000001 19.51000000000001  C 34.47750000000001 19.015000000000008  34.82625000000001 18.78625000000001  35.36625000000001 18.78750000000001  C 38.252500000000005 18.79500000000001  38.61375000000001 18.79000000000001  51.713750000000005 18.79125000000001  Z " fill-rule="nonzero" fill="rgba(0, 0, 0, 1)" stroke="none" class="fill" />
    <path d="M 62 31  C 62 13.878749999999997  48.12125 0  31 0  C 13.87875 0  0 13.87875  0 31  C 0 48.12125  13.87875 62  31 62  C 48.12125 62  62 48.12125  62 31  Z " stroke-width="0" stroke-dasharray="0" stroke="rgba(255, 255, 255, 0)" fill="none" class="stroke" mask="url(#Clip1054)" />
    <path d="M 51.713750000000005 18.79125000000001  C 52.47375 18.79000000000001  52.7175 19.140000000000008  52.416250000000005 19.825  C 50.518750000000004 24.138749999999998  48.620000000000005 28.4525  46.712500000000006 32.7625  C 46.407500000000006 33.45125  45.85125000000001 33.792500000000004  45.09125 33.792500000000004  C 42.213750000000005 33.791250000000005  39.337500000000006 33.800000000000004  36.46 33.78625  C 35.82 33.782500000000006  35.42875 34.0225  35.167500000000004 34.626250000000006  C 33.893750000000004 37.571250000000006  32.588750000000005 40.501250000000006  31.298750000000005 43.438750000000006  C 31.106250000000006 43.877500000000005  30.791250000000005 44.10000000000001  30.308750000000007 44.10000000000001  C 24.566250000000007 44.09875000000001  18.825000000000006 44.09750000000001  13.082500000000007 44.10000000000001  C 12.691250000000007 44.10000000000001  12.378750000000007 43.95625000000001  12.117500000000007 43.66875000000001  C 10.716250000000006 42.12750000000001  9.310000000000006 40.59000000000001  7.907500000000007 39.05125000000001  C 7.571250000000007 38.68250000000001  7.558750000000007 38.27875000000001  7.756250000000007 37.83500000000001  C 8.838750000000006 35.392500000000005  9.915000000000006 32.947500000000005  10.992500000000007 30.50250000000001  C 12.608750000000008 26.83375000000001  14.228750000000007 23.16625000000001  15.836250000000007 19.492500000000007  C 16.048750000000005 19.007500000000007  16.371250000000007 18.782500000000006  16.903750000000006 18.786250000000006  C 18.683750000000007 18.798750000000005  20.463750000000005 18.788750000000007  22.243750000000006 18.792500000000008  C 23.023750000000007 18.793750000000006  23.393750000000004 19.397500000000008  23.076250000000005 20.116250000000008  C 21.376250000000006 23.96250000000001  19.680000000000007 27.81000000000001  17.983750000000004 31.657500000000006  C 17.268750000000004 33.28125000000001  16.556250000000006 34.90625000000001  15.847500000000004 36.532500000000006  C 15.358750000000004 37.651250000000005  16.732500000000005 38.02875000000001  17.216250000000002 37.23250000000001  C 17.245 37.18625000000001  17.038750000000004 37.75500000000001  20.9675 28.77125000000001  C 21.137500000000003 28.38375000000001  21.39375 28.22125000000001  21.813750000000002 28.22250000000001  C 23.715000000000003 28.232500000000012  25.617500000000003 28.225000000000012  27.518750000000004 28.22750000000001  C 28.213750000000005 28.22875000000001  28.507500000000004 28.682500000000008  28.226250000000004 29.32125000000001  C 27.185000000000002 31.69125000000001  26.137500000000003 34.05875000000001  25.103750000000005 36.43250000000001  C 24.481250000000006 37.86125000000001  26.113750000000007 37.99375000000001  26.513750000000005 37.09875000000001  C 26.518750000000004 37.08875000000001  30.000000000000007 29.18250000000001  30.537500000000005 27.95375000000001  C 30.790000000000006 27.37750000000001  31.2175 27.14000000000001  31.83125 27.14125000000001  C 35.135000000000005 27.14750000000001  38.438750000000006 27.14125000000001  41.74250000000001 27.14750000000001  C 43.29750000000001 27.150000000000013  43.48375000000001 25.44125000000001  42.230000000000004 25.44250000000001  C 39.072500000000005 25.44625000000001  35.915000000000006 25.44500000000001  32.75750000000001 25.44500000000001  C 31.97375000000001 25.44500000000001  31.77750000000001 25.13625000000001  32.09875000000001 24.41125000000001  C 32.821250000000006 22.77875000000001  33.54750000000001 21.147500000000008  34.26125000000001 19.51000000000001  C 34.47750000000001 19.015000000000008  34.82625000000001 18.78625000000001  35.36625000000001 18.78750000000001  C 38.252500000000005 18.79500000000001  38.61375000000001 18.79000000000001  51.713750000000005 18.79125000000001  Z " stroke-width="0" stroke-dasharray="0" stroke="rgba(255, 255, 255, 0)" fill="none" class="stroke" mask="url(#Clip1054)" />
  </g>
</svg>