<?xml version="1.0" encoding="utf-8"?>
<svg version="1.1" xmlns:xlink="http://www.w3.org/1999/xlink" width="24px" height="18px" xmlns="http://www.w3.org/2000/svg">
  <defs>
    <pattern id="BGPattern" patternUnits="userSpaceOnUse" alignment="0 0" imageRepeat="None" />
    <mask fill="white" id="Clip6266">
      <path d="M 3 18  C 1.3431457505076196 18  0 16.65685424949238  0 15  L 0 3  C 0 1.3431457505076194  1.3431457505076196 0  3 0  L 21 0  C 22.65685424949238 0  24 1.3431457505076194  24 3  L 24 15  C 24 16.65685424949238  22.65685424949238 18  21 18  L 3 18  Z M 15.000000142452649 4.50046225420739  C 14.84407231608688 4.50046225420739  14.692021355053456 4.549061831091411  14.565000000000001 4.6395  L 10.5 7.542  L 10.5 5.25  C 10.5 4.835786437626905  10.164213562373096 4.5  9.75 4.5  C 9.335786437626904 4.5  9 4.835786437626905  9 5.25  L 9 12.75  C 9 13.164213562373096  9.335786437626904 13.5  9.75 13.5  C 10.164213562373096 13.5  10.5 13.164213562373096  10.5 12.75  L 10.5 10.457999999999998  L 14.565000000000001 13.360500000000002  C 14.692021355053456 13.45093816890859  14.844072316086876 13.499537745792608  15.000000142452649 13.499537745792608  C 15.414033194836804 13.499537745792608  15.749744815306048 13.164032973744014  15.75 12.75  L 15.75 5.25  C 15.749744815306048 4.835967026255986  15.414033194836804 4.50046225420739  15.000000142452649 4.50046225420739  Z " fill-rule="evenodd" />
    </mask>
  </defs>
  <g>
    <path d="M 3 18  C 1.3431457505076196 18  0 16.65685424949238  0 15  L 0 3  C 0 1.3431457505076194  1.3431457505076196 0  3 0  L 21 0  C 22.65685424949238 0  24 1.3431457505076194  24 3  L 24 15  C 24 16.65685424949238  22.65685424949238 18  21 18  L 3 18  Z M 15.000000142452649 4.50046225420739  C 14.84407231608688 4.50046225420739  14.692021355053456 4.549061831091411  14.565000000000001 4.6395  L 10.5 7.542  L 10.5 5.25  C 10.5 4.835786437626905  10.164213562373096 4.5  9.75 4.5  C 9.335786437626904 4.5  9 4.835786437626905  9 5.25  L 9 12.75  C 9 13.164213562373096  9.335786437626904 13.5  9.75 13.5  C 10.164213562373096 13.5  10.5 13.164213562373096  10.5 12.75  L 10.5 10.457999999999998  L 14.565000000000001 13.360500000000002  C 14.692021355053456 13.45093816890859  14.844072316086876 13.499537745792608  15.000000142452649 13.499537745792608  C 15.414033194836804 13.499537745792608  15.749744815306048 13.164032973744014  15.75 12.75  L 15.75 5.25  C 15.749744815306048 4.835967026255986  15.414033194836804 4.50046225420739  15.000000142452649 4.50046225420739  Z " fill-rule="nonzero" fill="rgba(0, 0, 0, 1)" stroke="none" class="fill" />
    <path d="M 3 18  C 1.3431457505076196 18  0 16.65685424949238  0 15  L 0 3  C 0 1.3431457505076194  1.3431457505076196 0  3 0  L 21 0  C 22.65685424949238 0  24 1.3431457505076194  24 3  L 24 15  C 24 16.65685424949238  22.65685424949238 18  21 18  L 3 18  Z " stroke-width="0" stroke-dasharray="0" stroke="rgba(255, 255, 255, 0)" fill="none" class="stroke" mask="url(#Clip6266)" />
    <path d="M 15.000000142452649 4.50046225420739  C 14.84407231608688 4.50046225420739  14.692021355053456 4.549061831091411  14.565000000000001 4.6395  L 10.5 7.542  L 10.5 5.25  C 10.5 4.835786437626905  10.164213562373096 4.5  9.75 4.5  C 9.335786437626904 4.5  9 4.835786437626905  9 5.25  L 9 12.75  C 9 13.164213562373096  9.335786437626904 13.5  9.75 13.5  C 10.164213562373096 13.5  10.5 13.164213562373096  10.5 12.75  L 10.5 10.457999999999998  L 14.565000000000001 13.360500000000002  C 14.692021355053456 13.45093816890859  14.844072316086876 13.499537745792608  15.000000142452649 13.499537745792608  C 15.414033194836804 13.499537745792608  15.749744815306048 13.164032973744014  15.75 12.75  L 15.75 5.25  C 15.749744815306048 4.835967026255986  15.414033194836804 4.50046225420739  15.000000142452649 4.50046225420739  Z " stroke-width="0" stroke-dasharray="0" stroke="rgba(255, 255, 255, 0)" fill="none" class="stroke" mask="url(#Clip6266)" />
  </g>
</svg>