<?xml version="1.0" encoding="utf-8"?>
<svg version="1.1" xmlns:xlink="http://www.w3.org/1999/xlink" width="16px" height="16px" xmlns="http://www.w3.org/2000/svg">
  <defs>
    <pattern id="BGPattern" patternUnits="userSpaceOnUse" alignment="0 0" imageRepeat="None" />
    <mask fill="white" id="Clip513">
      <path d="M 13.184000000000001 11.488  L 15.216000000000001 13.52  C 15.472000000000001 13.776  15.600000000000001 14.079999999999998  15.600000000000001 14.384  C 15.600000000000001 14.688000000000002  15.488000000000003 14.975999999999999  15.232000000000003 15.232  C 14.992000000000004 15.471999999999998  14.688000000000002 15.599999999999998  14.384000000000004 15.599999999999998  C 14.080000000000005 15.599999999999998  13.776000000000003 15.471999999999998  13.520000000000003 15.215999999999998  L 11.472000000000001 13.183999999999997  C 10.384 13.951999999999998  9.040000000000003 14.399999999999999  7.600000000000001 14.399999999999999  C 3.8560000000000016 14.399999999999999  0.8000000000000007 11.36  0.8000000000000007 7.599999999999998  C 0.8000000000000007 3.8399999999999963  3.8560000000000016 0.7999999999999972  7.600000000000001 0.7999999999999972  C 11.36 0.7999999999999972  14.400000000000002 3.8399999999999963  14.400000000000002 7.599999999999998  C 14.400000000000002 9.055999999999997  13.952000000000002 10.383999999999997  13.184000000000001 11.488  Z M 7.6 3.1999999999999993  C 5.183999999999999 3.1999999999999993  3.1999999999999993 5.167999999999999  3.1999999999999993 7.6  C 3.1999999999999993 10.032  5.183999999999999 12  7.6 12  C 10.032 12  12 10.032  12 7.6  C 12 5.167999999999999  10.032 3.1999999999999993  7.6 3.1999999999999993  Z " fill-rule="evenodd" />
    </mask>
  </defs>
  <g>
    <path d="M 13.184000000000001 11.488  L 15.216000000000001 13.52  C 15.472000000000001 13.776  15.600000000000001 14.079999999999998  15.600000000000001 14.384  C 15.600000000000001 14.688000000000002  15.488000000000003 14.975999999999999  15.232000000000003 15.232  C 14.992000000000004 15.471999999999998  14.688000000000002 15.599999999999998  14.384000000000004 15.599999999999998  C 14.080000000000005 15.599999999999998  13.776000000000003 15.471999999999998  13.520000000000003 15.215999999999998  L 11.472000000000001 13.183999999999997  C 10.384 13.951999999999998  9.040000000000003 14.399999999999999  7.600000000000001 14.399999999999999  C 3.8560000000000016 14.399999999999999  0.8000000000000007 11.36  0.8000000000000007 7.599999999999998  C 0.8000000000000007 3.8399999999999963  3.8560000000000016 0.7999999999999972  7.600000000000001 0.7999999999999972  C 11.36 0.7999999999999972  14.400000000000002 3.8399999999999963  14.400000000000002 7.599999999999998  C 14.400000000000002 9.055999999999997  13.952000000000002 10.383999999999997  13.184000000000001 11.488  Z M 7.6 3.1999999999999993  C 5.183999999999999 3.1999999999999993  3.1999999999999993 5.167999999999999  3.1999999999999993 7.6  C 3.1999999999999993 10.032  5.183999999999999 12  7.6 12  C 10.032 12  12 10.032  12 7.6  C 12 5.167999999999999  10.032 3.1999999999999993  7.6 3.1999999999999993  Z " fill-rule="nonzero" fill="rgba(0, 0, 0, 1)" stroke="none" class="fill" />
    <path d="M 13.184000000000001 11.488  L 15.216000000000001 13.52  C 15.472000000000001 13.776  15.600000000000001 14.079999999999998  15.600000000000001 14.384  C 15.600000000000001 14.688000000000002  15.488000000000003 14.975999999999999  15.232000000000003 15.232  C 14.992000000000004 15.471999999999998  14.688000000000002 15.599999999999998  14.384000000000004 15.599999999999998  C 14.080000000000005 15.599999999999998  13.776000000000003 15.471999999999998  13.520000000000003 15.215999999999998  L 11.472000000000001 13.183999999999997  C 10.384 13.951999999999998  9.040000000000003 14.399999999999999  7.600000000000001 14.399999999999999  C 3.8560000000000016 14.399999999999999  0.8000000000000007 11.36  0.8000000000000007 7.599999999999998  C 0.8000000000000007 3.8399999999999963  3.8560000000000016 0.7999999999999972  7.600000000000001 0.7999999999999972  C 11.36 0.7999999999999972  14.400000000000002 3.8399999999999963  14.400000000000002 7.599999999999998  C 14.400000000000002 9.055999999999997  13.952000000000002 10.383999999999997  13.184000000000001 11.488  Z " stroke-width="0" stroke-dasharray="0" stroke="rgba(255, 255, 255, 0)" fill="none" class="stroke" mask="url(#Clip513)" />
    <path d="M 7.6 3.1999999999999993  C 5.183999999999999 3.1999999999999993  3.1999999999999993 5.167999999999999  3.1999999999999993 7.6  C 3.1999999999999993 10.032  5.183999999999999 12  7.6 12  C 10.032 12  12 10.032  12 7.6  C 12 5.167999999999999  10.032 3.1999999999999993  7.6 3.1999999999999993  Z " stroke-width="0" stroke-dasharray="0" stroke="rgba(255, 255, 255, 0)" fill="none" class="stroke" mask="url(#Clip513)" />
  </g>
</svg>