<?xml version="1.0" encoding="utf-8"?>
<svg version="1.1" xmlns:xlink="http://www.w3.org/1999/xlink" width="20px" height="16px" xmlns="http://www.w3.org/2000/svg">
  <defs>
    <pattern id="BGPattern" patternUnits="userSpaceOnUse" alignment="0 0" imageRepeat="None" />
    <mask fill="white" id="Clip3331">
      <path d="M 20 8  L 12 0  L 10.9 1.0999999999999996  L 16.9 7.199999999999999  L 0 7.199999999999999  L 0 8.8  L 16.9 8.8  L 10.9 14.899999999999999  L 12 16  L 20 8  Z " fill-rule="evenodd" />
    </mask>
  </defs>
  <g transform="matrix(1 0 0 1 -2 -4 )">
    <path d="M 20 8  L 12 0  L 10.9 1.0999999999999996  L 16.9 7.199999999999999  L 0 7.199999999999999  L 0 8.8  L 16.9 8.8  L 10.9 14.899999999999999  L 12 16  L 20 8  Z " fill-rule="nonzero" fill="rgba(0, 0, 0, 1)" stroke="none" transform="matrix(1 0 0 1 2 4 )" class="fill" />
    <path d="M 20 8  L 12 0  L 10.9 1.0999999999999996  L 16.9 7.199999999999999  L 0 7.199999999999999  L 0 8.8  L 16.9 8.8  L 10.9 14.899999999999999  L 12 16  L 20 8  Z " stroke-width="0" stroke-dasharray="0" stroke="rgba(255, 255, 255, 0)" fill="none" transform="matrix(1 0 0 1 2 4 )" class="stroke" mask="url(#Clip3331)" />
  </g>
</svg>