<?xml version="1.0" encoding="utf-8"?>
<svg version="1.1" xmlns:xlink="http://www.w3.org/1999/xlink" width="43px" height="50px" xmlns="http://www.w3.org/2000/svg">
  <defs>
    <pattern id="BGPattern" patternUnits="userSpaceOnUse" alignment="0 0" imageRepeat="None" />
    <mask fill="white" id="Clip1018">
      <path d="M 31.372767857142833 20  L 31.372767857142833 21  L 42.85714285714283 21  L 42.85714285714283 20  L 31.372767857142833 20  Z M 31.372767857142833 16  L 31.372767857142833 17  L 42.85714285714283 17  L 42.85714285714283 16  L 31.372767857142833 16  Z M 31.372767857142833 24  L 31.372767857142833 25  L 42.85714285714283 25  L 42.85714285714283 24  L 31.372767857142833 24  Z M 17.45535714285711 37  C 16.015625 36.94196428571428  14.765625000000002 35.993303571428555  13.772321428571445 34  L 0.9486607142857224 34  C 1.2388392857142776 35.758928571428555  1.5959821428571672 36.68526785714283  2.0200892857142776 37  L 17.45535714285711 37  Z M 31.060267857142833 31  C 30.825892857142833 31.819196428571445  30.47991071428572 32.65625  30.03348214285711 33  L 42.276785714285666 33  C 42.477678571428555 32.61160714285711  42.62276785714283 31.785714285714278  42.712053571428555 31  L 31.060267857142833 31  Z M 29.07366071428572 34  C 28.091517857142833 35.993303571428555  26.83035714285711 36.94196428571428  25.401785714285726 37  L 40.95982142857139 37  C 41.37276785714283 36.67410714285717  41.60714285714283 35.758928571428555  41.90848214285711 34  L 29.07366071428572 34  Z M 42.85714285714283 1  L 42.85714285714283 0  L 31.372767857142833 0  L 31.372767857142833 1  L 42.85714285714283 1  Z M 9.520089285714278 46  C 12.924107142857109 48.68303571428572  17.020089285714278 50  21.428571428571445 50  C 25.837053571428555 50  29.933035714285662 48.68303571428572  33.34821428571428 46  L 9.520089285714278 46  Z M 31.372767857142833 12  L 31.372767857142833 13  L 42.85714285714283 13  L 42.85714285714283 12  L 31.372767857142833 12  Z M 31.372767857142833 8  L 31.372767857142833 9  L 42.85714285714283 9  L 42.85714285714283 8  L 31.372767857142833 8  Z M 31.372767857142833 4  L 31.372767857142833 5  L 42.85714285714283 5  L 42.85714285714283 4  L 31.372767857142833 4  Z M 11.484375 17  L 11.484375 16  L 0 16  L 0 17  L 11.484375 17  Z M 2.5669642857142776 38  C 3.1473214285714444 39.743303571428555  3.59375 40.758928571428555  4.330357142857167 41  L 38.40401785714283 41  C 39.151785714285666 40.758928571428555  39.81026785714283 39.743303571428555  40.390625 38  L 2.5669642857142776 38  Z M 11.517857142857112 29  C 11.49553571428572 29.006696428571445  11.484375 28.727678571428555  11.484375 28.448660714285722  L 11.484375 27  L 0 27  L 0 28.448660714285722  C 0 28.727678571428555  0 29.006696428571445  0.011160714285722406 29  L 11.517857142857112 29  Z M 31.372767857142833 27  L 31.372767857142833 28.448660714285722  C 31.372767857142833 28.727678571428555  31.36160714285711 29.006696428571445  31.328125 29  L 42.83482142857139 29  C 42.84598214285711 28.995535714285726  42.85714285714283 28.727678571428555  42.85714285714283 28.448660714285722  L 42.85714285714283 27  L 31.372767857142833 27  Z M 5.011160714285722 42  C 6.082589285714278 43.772321428571445  7.399553571428555 44.88839285714283  8.716517857142833 45  L 34.12946428571428 45  C 35.446428571428555 44.88839285714283  36.66294642857139 43.78348214285711  37.72321428571428 42  L 5.011160714285722 42  Z M 11.484375 5  L 11.484375 4  L 0 4  L 0 5  L 11.484375 5  Z M 11.484375 1  L 11.484375 0  L 0 0  L 0 1  L 11.484375 1  Z M 11.484375 21  L 11.484375 20  L 0 20  L 0 21  L 11.484375 21  Z M 11.484375 25  L 11.484375 24  L 0 24  L 0 25  L 11.484375 25  Z M 11.484375 13  L 11.484375 12  L 0 12  L 0 13  L 11.484375 13  Z M 11.484375 9  L 11.484375 8  L 0 8  L 0 9  L 11.484375 9  Z M 12.823660714285722 33  C 12.377232142857109 32.65625  12.02008928571428 31.819196428571445  11.796875 31  L 0.1450892857142776 31  C 0.24553571428572243 31.785714285714278  0.390625 32.61160714285711  0.5803571428571672 33  L 12.823660714285722 33  Z " fill-rule="evenodd" />
    </mask>
  </defs>
  <g>
    <path d="M 31.372767857142833 20  L 31.372767857142833 21  L 42.85714285714283 21  L 42.85714285714283 20  L 31.372767857142833 20  Z M 31.372767857142833 16  L 31.372767857142833 17  L 42.85714285714283 17  L 42.85714285714283 16  L 31.372767857142833 16  Z M 31.372767857142833 24  L 31.372767857142833 25  L 42.85714285714283 25  L 42.85714285714283 24  L 31.372767857142833 24  Z M 17.45535714285711 37  C 16.015625 36.94196428571428  14.765625000000002 35.993303571428555  13.772321428571445 34  L 0.9486607142857224 34  C 1.2388392857142776 35.758928571428555  1.5959821428571672 36.68526785714283  2.0200892857142776 37  L 17.45535714285711 37  Z M 31.060267857142833 31  C 30.825892857142833 31.819196428571445  30.47991071428572 32.65625  30.03348214285711 33  L 42.276785714285666 33  C 42.477678571428555 32.61160714285711  42.62276785714283 31.785714285714278  42.712053571428555 31  L 31.060267857142833 31  Z M 29.07366071428572 34  C 28.091517857142833 35.993303571428555  26.83035714285711 36.94196428571428  25.401785714285726 37  L 40.95982142857139 37  C 41.37276785714283 36.67410714285717  41.60714285714283 35.758928571428555  41.90848214285711 34  L 29.07366071428572 34  Z M 42.85714285714283 1  L 42.85714285714283 0  L 31.372767857142833 0  L 31.372767857142833 1  L 42.85714285714283 1  Z M 9.520089285714278 46  C 12.924107142857109 48.68303571428572  17.020089285714278 50  21.428571428571445 50  C 25.837053571428555 50  29.933035714285662 48.68303571428572  33.34821428571428 46  L 9.520089285714278 46  Z M 31.372767857142833 12  L 31.372767857142833 13  L 42.85714285714283 13  L 42.85714285714283 12  L 31.372767857142833 12  Z M 31.372767857142833 8  L 31.372767857142833 9  L 42.85714285714283 9  L 42.85714285714283 8  L 31.372767857142833 8  Z M 31.372767857142833 4  L 31.372767857142833 5  L 42.85714285714283 5  L 42.85714285714283 4  L 31.372767857142833 4  Z M 11.484375 17  L 11.484375 16  L 0 16  L 0 17  L 11.484375 17  Z M 2.5669642857142776 38  C 3.1473214285714444 39.743303571428555  3.59375 40.758928571428555  4.330357142857167 41  L 38.40401785714283 41  C 39.151785714285666 40.758928571428555  39.81026785714283 39.743303571428555  40.390625 38  L 2.5669642857142776 38  Z M 11.517857142857112 29  C 11.49553571428572 29.006696428571445  11.484375 28.727678571428555  11.484375 28.448660714285722  L 11.484375 27  L 0 27  L 0 28.448660714285722  C 0 28.727678571428555  0 29.006696428571445  0.011160714285722406 29  L 11.517857142857112 29  Z M 31.372767857142833 27  L 31.372767857142833 28.448660714285722  C 31.372767857142833 28.727678571428555  31.36160714285711 29.006696428571445  31.328125 29  L 42.83482142857139 29  C 42.84598214285711 28.995535714285726  42.85714285714283 28.727678571428555  42.85714285714283 28.448660714285722  L 42.85714285714283 27  L 31.372767857142833 27  Z M 5.011160714285722 42  C 6.082589285714278 43.772321428571445  7.399553571428555 44.88839285714283  8.716517857142833 45  L 34.12946428571428 45  C 35.446428571428555 44.88839285714283  36.66294642857139 43.78348214285711  37.72321428571428 42  L 5.011160714285722 42  Z M 11.484375 5  L 11.484375 4  L 0 4  L 0 5  L 11.484375 5  Z M 11.484375 1  L 11.484375 0  L 0 0  L 0 1  L 11.484375 1  Z M 11.484375 21  L 11.484375 20  L 0 20  L 0 21  L 11.484375 21  Z M 11.484375 25  L 11.484375 24  L 0 24  L 0 25  L 11.484375 25  Z M 11.484375 13  L 11.484375 12  L 0 12  L 0 13  L 11.484375 13  Z M 11.484375 9  L 11.484375 8  L 0 8  L 0 9  L 11.484375 9  Z M 12.823660714285722 33  C 12.377232142857109 32.65625  12.02008928571428 31.819196428571445  11.796875 31  L 0.1450892857142776 31  C 0.24553571428572243 31.785714285714278  0.390625 32.61160714285711  0.5803571428571672 33  L 12.823660714285722 33  Z " fill-rule="nonzero" fill="rgba(0, 0, 0, 1)" stroke="none" class="fill" />
    <path d="M 31.372767857142833 20  L 31.372767857142833 21  L 42.85714285714283 21  L 42.85714285714283 20  L 31.372767857142833 20  Z " stroke-width="0" stroke-dasharray="0" stroke="rgba(255, 255, 255, 0)" fill="none" class="stroke" mask="url(#Clip1018)" />
    <path d="M 31.372767857142833 16  L 31.372767857142833 17  L 42.85714285714283 17  L 42.85714285714283 16  L 31.372767857142833 16  Z " stroke-width="0" stroke-dasharray="0" stroke="rgba(255, 255, 255, 0)" fill="none" class="stroke" mask="url(#Clip1018)" />
    <path d="M 31.372767857142833 24  L 31.372767857142833 25  L 42.85714285714283 25  L 42.85714285714283 24  L 31.372767857142833 24  Z " stroke-width="0" stroke-dasharray="0" stroke="rgba(255, 255, 255, 0)" fill="none" class="stroke" mask="url(#Clip1018)" />
    <path d="M 17.45535714285711 37  C 16.015625 36.94196428571428  14.765625000000002 35.993303571428555  13.772321428571445 34  L 0.9486607142857224 34  C 1.2388392857142776 35.758928571428555  1.5959821428571672 36.68526785714283  2.0200892857142776 37  L 17.45535714285711 37  Z " stroke-width="0" stroke-dasharray="0" stroke="rgba(255, 255, 255, 0)" fill="none" class="stroke" mask="url(#Clip1018)" />
    <path d="M 31.060267857142833 31  C 30.825892857142833 31.819196428571445  30.47991071428572 32.65625  30.03348214285711 33  L 42.276785714285666 33  C 42.477678571428555 32.61160714285711  42.62276785714283 31.785714285714278  42.712053571428555 31  L 31.060267857142833 31  Z " stroke-width="0" stroke-dasharray="0" stroke="rgba(255, 255, 255, 0)" fill="none" class="stroke" mask="url(#Clip1018)" />
    <path d="M 29.07366071428572 34  C 28.091517857142833 35.993303571428555  26.83035714285711 36.94196428571428  25.401785714285726 37  L 40.95982142857139 37  C 41.37276785714283 36.67410714285717  41.60714285714283 35.758928571428555  41.90848214285711 34  L 29.07366071428572 34  Z " stroke-width="0" stroke-dasharray="0" stroke="rgba(255, 255, 255, 0)" fill="none" class="stroke" mask="url(#Clip1018)" />
    <path d="M 42.85714285714283 1  L 42.85714285714283 0  L 31.372767857142833 0  L 31.372767857142833 1  L 42.85714285714283 1  Z " stroke-width="0" stroke-dasharray="0" stroke="rgba(255, 255, 255, 0)" fill="none" class="stroke" mask="url(#Clip1018)" />
    <path d="M 9.520089285714278 46  C 12.924107142857109 48.68303571428572  17.020089285714278 50  21.428571428571445 50  C 25.837053571428555 50  29.933035714285662 48.68303571428572  33.34821428571428 46  L 9.520089285714278 46  Z " stroke-width="0" stroke-dasharray="0" stroke="rgba(255, 255, 255, 0)" fill="none" class="stroke" mask="url(#Clip1018)" />
    <path d="M 31.372767857142833 12  L 31.372767857142833 13  L 42.85714285714283 13  L 42.85714285714283 12  L 31.372767857142833 12  Z " stroke-width="0" stroke-dasharray="0" stroke="rgba(255, 255, 255, 0)" fill="none" class="stroke" mask="url(#Clip1018)" />
    <path d="M 31.372767857142833 8  L 31.372767857142833 9  L 42.85714285714283 9  L 42.85714285714283 8  L 31.372767857142833 8  Z " stroke-width="0" stroke-dasharray="0" stroke="rgba(255, 255, 255, 0)" fill="none" class="stroke" mask="url(#Clip1018)" />
    <path d="M 31.372767857142833 4  L 31.372767857142833 5  L 42.85714285714283 5  L 42.85714285714283 4  L 31.372767857142833 4  Z " stroke-width="0" stroke-dasharray="0" stroke="rgba(255, 255, 255, 0)" fill="none" class="stroke" mask="url(#Clip1018)" />
    <path d="M 11.484375 17  L 11.484375 16  L 0 16  L 0 17  L 11.484375 17  Z " stroke-width="0" stroke-dasharray="0" stroke="rgba(255, 255, 255, 0)" fill="none" class="stroke" mask="url(#Clip1018)" />
    <path d="M 2.5669642857142776 38  C 3.1473214285714444 39.743303571428555  3.59375 40.758928571428555  4.330357142857167 41  L 38.40401785714283 41  C 39.151785714285666 40.758928571428555  39.81026785714283 39.743303571428555  40.390625 38  L 2.5669642857142776 38  Z " stroke-width="0" stroke-dasharray="0" stroke="rgba(255, 255, 255, 0)" fill="none" class="stroke" mask="url(#Clip1018)" />
    <path d="M 11.517857142857112 29  C 11.49553571428572 29.006696428571445  11.484375 28.727678571428555  11.484375 28.448660714285722  L 11.484375 27  L 0 27  L 0 28.448660714285722  C 0 28.727678571428555  0 29.006696428571445  0.011160714285722406 29  L 11.517857142857112 29  Z " stroke-width="0" stroke-dasharray="0" stroke="rgba(255, 255, 255, 0)" fill="none" class="stroke" mask="url(#Clip1018)" />
    <path d="M 31.372767857142833 27  L 31.372767857142833 28.448660714285722  C 31.372767857142833 28.727678571428555  31.36160714285711 29.006696428571445  31.328125 29  L 42.83482142857139 29  C 42.84598214285711 28.995535714285726  42.85714285714283 28.727678571428555  42.85714285714283 28.448660714285722  L 42.85714285714283 27  L 31.372767857142833 27  Z " stroke-width="0" stroke-dasharray="0" stroke="rgba(255, 255, 255, 0)" fill="none" class="stroke" mask="url(#Clip1018)" />
    <path d="M 5.011160714285722 42  C 6.082589285714278 43.772321428571445  7.399553571428555 44.88839285714283  8.716517857142833 45  L 34.12946428571428 45  C 35.446428571428555 44.88839285714283  36.66294642857139 43.78348214285711  37.72321428571428 42  L 5.011160714285722 42  Z " stroke-width="0" stroke-dasharray="0" stroke="rgba(255, 255, 255, 0)" fill="none" class="stroke" mask="url(#Clip1018)" />
    <path d="M 11.484375 5  L 11.484375 4  L 0 4  L 0 5  L 11.484375 5  Z " stroke-width="0" stroke-dasharray="0" stroke="rgba(255, 255, 255, 0)" fill="none" class="stroke" mask="url(#Clip1018)" />
    <path d="M 11.484375 1  L 11.484375 0  L 0 0  L 0 1  L 11.484375 1  Z " stroke-width="0" stroke-dasharray="0" stroke="rgba(255, 255, 255, 0)" fill="none" class="stroke" mask="url(#Clip1018)" />
    <path d="M 11.484375 21  L 11.484375 20  L 0 20  L 0 21  L 11.484375 21  Z " stroke-width="0" stroke-dasharray="0" stroke="rgba(255, 255, 255, 0)" fill="none" class="stroke" mask="url(#Clip1018)" />
    <path d="M 11.484375 25  L 11.484375 24  L 0 24  L 0 25  L 11.484375 25  Z " stroke-width="0" stroke-dasharray="0" stroke="rgba(255, 255, 255, 0)" fill="none" class="stroke" mask="url(#Clip1018)" />
    <path d="M 11.484375 13  L 11.484375 12  L 0 12  L 0 13  L 11.484375 13  Z " stroke-width="0" stroke-dasharray="0" stroke="rgba(255, 255, 255, 0)" fill="none" class="stroke" mask="url(#Clip1018)" />
    <path d="M 11.484375 9  L 11.484375 8  L 0 8  L 0 9  L 11.484375 9  Z " stroke-width="0" stroke-dasharray="0" stroke="rgba(255, 255, 255, 0)" fill="none" class="stroke" mask="url(#Clip1018)" />
    <path d="M 12.823660714285722 33  C 12.377232142857109 32.65625  12.02008928571428 31.819196428571445  11.796875 31  L 0.1450892857142776 31  C 0.24553571428572243 31.785714285714278  0.390625 32.61160714285711  0.5803571428571672 33  L 12.823660714285722 33  Z " stroke-width="0" stroke-dasharray="0" stroke="rgba(255, 255, 255, 0)" fill="none" class="stroke" mask="url(#Clip1018)" />
  </g>
</svg>