<?xml version="1.0" encoding="utf-8"?>
<svg version="1.1" xmlns:xlink="http://www.w3.org/1999/xlink" width="28px" height="14px" xmlns="http://www.w3.org/2000/svg">
  <defs>
    <pattern id="BGPattern" patternUnits="userSpaceOnUse" alignment="0 0" imageRepeat="None" />
    <mask fill="white" id="Clip2455">
      <path d="M 0.5 13  C 0.5 13.274999999999999  0.7250000000000014 13.5  1 13.5  L 4.5 13.5  C 4.774999999999999 13.5  5 13.274999999999999  5 13  C 5 11.23125  5.368749999999999 9.675  6.068750000000001 8.40625  C 6.731250000000003 7.19375  7.693750000000001 6.231249999999999  8.90625 5.56875  C 10.181249999999999 4.875  11.73125 4.5  13.5 4.5  L 14.500000000000002 4.5  C 16.268749999999997 4.5  17.825000000000003 4.86875  19.09375 5.56875  C 20.30625 6.231249999999999  21.268749999999997 7.19375  21.93125 8.40625  C 22.625 9.68125  23 11.23125  23 13  C 23 13.274999999999999  23.225 13.5  23.5 13.5  L 27 13.5  C 27.275 13.5  27.5 13.274999999999999  27.5 13  C 27.5 10.5  26.950000000000003 8.20625  25.88125 6.24375  C 24.80625 4.275  23.225 2.6937500000000005  21.25625 1.6187500000000004  C 19.293750000000003 0.5499999999999998  17 0  14.500000000000002 0  L 13.5 0  C 11 0  8.70625 0.5499999999999998  6.743749999999999 1.6187500000000004  C 4.774999999999999 2.6937500000000005  3.193749999999998 4.275  2.1187499999999986 6.24375  C 1.0500000000000007 8.20625  0.5 10.5  0.5 13  Z " fill-rule="evenodd" />
    </mask>
  </defs>
  <g transform="matrix(1 0 0 1 -14 0 )">
    <path d="M 0.5 13  C 0.5 13.274999999999999  0.7250000000000014 13.5  1 13.5  L 4.5 13.5  C 4.774999999999999 13.5  5 13.274999999999999  5 13  C 5 11.23125  5.368749999999999 9.675  6.068750000000001 8.40625  C 6.731250000000003 7.19375  7.693750000000001 6.231249999999999  8.90625 5.56875  C 10.181249999999999 4.875  11.73125 4.5  13.5 4.5  L 14.500000000000002 4.5  C 16.268749999999997 4.5  17.825000000000003 4.86875  19.09375 5.56875  C 20.30625 6.231249999999999  21.268749999999997 7.19375  21.93125 8.40625  C 22.625 9.68125  23 11.23125  23 13  C 23 13.274999999999999  23.225 13.5  23.5 13.5  L 27 13.5  C 27.275 13.5  27.5 13.274999999999999  27.5 13  C 27.5 10.5  26.950000000000003 8.20625  25.88125 6.24375  C 24.80625 4.275  23.225 2.6937500000000005  21.25625 1.6187500000000004  C 19.293750000000003 0.5499999999999998  17 0  14.500000000000002 0  L 13.5 0  C 11 0  8.70625 0.5499999999999998  6.743749999999999 1.6187500000000004  C 4.774999999999999 2.6937500000000005  3.193749999999998 4.275  2.1187499999999986 6.24375  C 1.0500000000000007 8.20625  0.5 10.5  0.5 13  Z " fill-rule="nonzero" fill="rgba(0, 0, 0, 1)" stroke="none" transform="matrix(1 0 0 1 14 0 )" class="fill" />
    <path d="M 0.5 13  C 0.5 13.274999999999999  0.7250000000000014 13.5  1 13.5  L 4.5 13.5  C 4.774999999999999 13.5  5 13.274999999999999  5 13  C 5 11.23125  5.368749999999999 9.675  6.068750000000001 8.40625  C 6.731250000000003 7.19375  7.693750000000001 6.231249999999999  8.90625 5.56875  C 10.181249999999999 4.875  11.73125 4.5  13.5 4.5  L 14.500000000000002 4.5  C 16.268749999999997 4.5  17.825000000000003 4.86875  19.09375 5.56875  C 20.30625 6.231249999999999  21.268749999999997 7.19375  21.93125 8.40625  C 22.625 9.68125  23 11.23125  23 13  C 23 13.274999999999999  23.225 13.5  23.5 13.5  L 27 13.5  C 27.275 13.5  27.5 13.274999999999999  27.5 13  C 27.5 10.5  26.950000000000003 8.20625  25.88125 6.24375  C 24.80625 4.275  23.225 2.6937500000000005  21.25625 1.6187500000000004  C 19.293750000000003 0.5499999999999998  17 0  14.500000000000002 0  L 13.5 0  C 11 0  8.70625 0.5499999999999998  6.743749999999999 1.6187500000000004  C 4.774999999999999 2.6937500000000005  3.193749999999998 4.275  2.1187499999999986 6.24375  C 1.0500000000000007 8.20625  0.5 10.5  0.5 13  Z " stroke-width="0" stroke-dasharray="0" stroke="rgba(255, 255, 255, 0)" fill="none" transform="matrix(1 0 0 1 14 0 )" class="stroke" mask="url(#Clip2455)" />
  </g>
</svg>