<?xml version="1.0" encoding="utf-8"?>
<svg version="1.1" xmlns:xlink="http://www.w3.org/1999/xlink" width="24px" height="24px" xmlns="http://www.w3.org/2000/svg">
  <defs>
    <pattern id="BGPattern" patternUnits="userSpaceOnUse" alignment="0 0" imageRepeat="None" />
    <mask fill="white" id="Clip548">
      <path d="M 16.919999999999995 0.7999999999999972  L 23.16 0.7999999999999998  L 23.32 0.96  L 23.32 1.6479999999999997  C 23.32 1.7599999999999998  23.304000000000002 1.8719999999999999  23.272000000000002 1.984  C 23.224000000000004 2.08  23.176000000000002 2.192  23.112000000000002 2.2880000000000003  L 19.144000000000002 7.199999999999999  L 23 7.199999999999999  L 23.16 7.359999999999999  L 23.16 8.639999999999999  L 23 8.799999999999999  L 17.752 8.799999999999999  C 18.535999999999998 10.159999999999998  19 12  19 14.559999999999999  L 21.032 16.4  C 22.312 17.552  22.104 20  19 20  L 14.552 20  C 14.695999999999998 21.92  12.887999999999998 23.2  11 23.2  C 9.112000000000002 23.2  7.304 21.919999999999998  7.448 20  L 3 20  C -0.10400000000000009 20  -0.3119999999999994 17.552  0.968 16.4  L 3 14.559999999999999  C 3 9.215999999999998  5.048 6.975999999999999  7.800000000000001 5.759999999999998  C 7.800000000000001 4.143999999999998  8.472000000000001 2.0799999999999983  11 2.0799999999999983  C 13.527999999999999 2.0799999999999983  14.2 4.143999999999998  14.2 5.759999999999998  C 15.143999999999998 6.175999999999998  16.008 6.703999999999997  16.727999999999998 7.455999999999998  C 16.743999999999996 7.407999999999998  16.775999999999996 7.359999999999998  16.791999999999998 7.327999999999998  L 20.775999999999996 2.3999999999999977  L 16.919999999999995 2.3999999999999977  L 16.759999999999994 2.2399999999999975  L 16.759999999999994 0.9599999999999973  L 16.919999999999995 0.7999999999999972  Z M 15.752000000000002 9.872000000000002  C 15.784000000000002 9.776000000000002  15.8 9.680000000000001  15.8 9.568  L 15.8 9.04  L 15.560000000000002 8.799999999999999  L 10.440000000000001 8.799999999999999  L 10.200000000000001 9.04  L 10.200000000000001 10.16  L 10.440000000000001 10.4  L 13.192 10.4  L 10.376000000000001 13.856000000000002  C 10.328000000000001 13.936  10.280000000000001 14.016000000000002  10.248000000000001 14.112000000000002  C 10.216000000000001 14.192  10.200000000000001 14.288  10.200000000000001 14.384  L 10.200000000000001 14.96  L 10.440000000000001 15.2  L 15.560000000000002 15.2  L 15.8 14.96  L 15.8 13.84  L 15.560000000000002 13.600000000000001  L 12.840000000000003 13.600000000000001  L 15.608000000000004 10.144000000000002  C 15.672000000000004 10.064000000000002  15.720000000000002 9.968000000000002  15.752000000000002 9.872000000000002  Z " fill-rule="evenodd" />
    </mask>
  </defs>
  <g>
    <path d="M 16.919999999999995 0.7999999999999972  L 23.16 0.7999999999999998  L 23.32 0.96  L 23.32 1.6479999999999997  C 23.32 1.7599999999999998  23.304000000000002 1.8719999999999999  23.272000000000002 1.984  C 23.224000000000004 2.08  23.176000000000002 2.192  23.112000000000002 2.2880000000000003  L 19.144000000000002 7.199999999999999  L 23 7.199999999999999  L 23.16 7.359999999999999  L 23.16 8.639999999999999  L 23 8.799999999999999  L 17.752 8.799999999999999  C 18.535999999999998 10.159999999999998  19 12  19 14.559999999999999  L 21.032 16.4  C 22.312 17.552  22.104 20  19 20  L 14.552 20  C 14.695999999999998 21.92  12.887999999999998 23.2  11 23.2  C 9.112000000000002 23.2  7.304 21.919999999999998  7.448 20  L 3 20  C -0.10400000000000009 20  -0.3119999999999994 17.552  0.968 16.4  L 3 14.559999999999999  C 3 9.215999999999998  5.048 6.975999999999999  7.800000000000001 5.759999999999998  C 7.800000000000001 4.143999999999998  8.472000000000001 2.0799999999999983  11 2.0799999999999983  C 13.527999999999999 2.0799999999999983  14.2 4.143999999999998  14.2 5.759999999999998  C 15.143999999999998 6.175999999999998  16.008 6.703999999999997  16.727999999999998 7.455999999999998  C 16.743999999999996 7.407999999999998  16.775999999999996 7.359999999999998  16.791999999999998 7.327999999999998  L 20.775999999999996 2.3999999999999977  L 16.919999999999995 2.3999999999999977  L 16.759999999999994 2.2399999999999975  L 16.759999999999994 0.9599999999999973  L 16.919999999999995 0.7999999999999972  Z M 15.752000000000002 9.872000000000002  C 15.784000000000002 9.776000000000002  15.8 9.680000000000001  15.8 9.568  L 15.8 9.04  L 15.560000000000002 8.799999999999999  L 10.440000000000001 8.799999999999999  L 10.200000000000001 9.04  L 10.200000000000001 10.16  L 10.440000000000001 10.4  L 13.192 10.4  L 10.376000000000001 13.856000000000002  C 10.328000000000001 13.936  10.280000000000001 14.016000000000002  10.248000000000001 14.112000000000002  C 10.216000000000001 14.192  10.200000000000001 14.288  10.200000000000001 14.384  L 10.200000000000001 14.96  L 10.440000000000001 15.2  L 15.560000000000002 15.2  L 15.8 14.96  L 15.8 13.84  L 15.560000000000002 13.600000000000001  L 12.840000000000003 13.600000000000001  L 15.608000000000004 10.144000000000002  C 15.672000000000004 10.064000000000002  15.720000000000002 9.968000000000002  15.752000000000002 9.872000000000002  Z " fill-rule="nonzero" fill="rgba(0, 0, 0, 1)" stroke="none" class="fill" />
    <path d="M 16.919999999999995 0.7999999999999972  L 23.16 0.7999999999999998  L 23.32 0.96  L 23.32 1.6479999999999997  C 23.32 1.7599999999999998  23.304000000000002 1.8719999999999999  23.272000000000002 1.984  C 23.224000000000004 2.08  23.176000000000002 2.192  23.112000000000002 2.2880000000000003  L 19.144000000000002 7.199999999999999  L 23 7.199999999999999  L 23.16 7.359999999999999  L 23.16 8.639999999999999  L 23 8.799999999999999  L 17.752 8.799999999999999  C 18.535999999999998 10.159999999999998  19 12  19 14.559999999999999  L 21.032 16.4  C 22.312 17.552  22.104 20  19 20  L 14.552 20  C 14.695999999999998 21.92  12.887999999999998 23.2  11 23.2  C 9.112000000000002 23.2  7.304 21.919999999999998  7.448 20  L 3 20  C -0.10400000000000009 20  -0.3119999999999994 17.552  0.968 16.4  L 3 14.559999999999999  C 3 9.215999999999998  5.048 6.975999999999999  7.800000000000001 5.759999999999998  C 7.800000000000001 4.143999999999998  8.472000000000001 2.0799999999999983  11 2.0799999999999983  C 13.527999999999999 2.0799999999999983  14.2 4.143999999999998  14.2 5.759999999999998  C 15.143999999999998 6.175999999999998  16.008 6.703999999999997  16.727999999999998 7.455999999999998  C 16.743999999999996 7.407999999999998  16.775999999999996 7.359999999999998  16.791999999999998 7.327999999999998  L 20.775999999999996 2.3999999999999977  L 16.919999999999995 2.3999999999999977  L 16.759999999999994 2.2399999999999975  L 16.759999999999994 0.9599999999999973  L 16.919999999999995 0.7999999999999972  Z " stroke-width="0" stroke-dasharray="0" stroke="rgba(255, 255, 255, 0)" fill="none" class="stroke" mask="url(#Clip548)" />
    <path d="M 15.752000000000002 9.872000000000002  C 15.784000000000002 9.776000000000002  15.8 9.680000000000001  15.8 9.568  L 15.8 9.04  L 15.560000000000002 8.799999999999999  L 10.440000000000001 8.799999999999999  L 10.200000000000001 9.04  L 10.200000000000001 10.16  L 10.440000000000001 10.4  L 13.192 10.4  L 10.376000000000001 13.856000000000002  C 10.328000000000001 13.936  10.280000000000001 14.016000000000002  10.248000000000001 14.112000000000002  C 10.216000000000001 14.192  10.200000000000001 14.288  10.200000000000001 14.384  L 10.200000000000001 14.96  L 10.440000000000001 15.2  L 15.560000000000002 15.2  L 15.8 14.96  L 15.8 13.84  L 15.560000000000002 13.600000000000001  L 12.840000000000003 13.600000000000001  L 15.608000000000004 10.144000000000002  C 15.672000000000004 10.064000000000002  15.720000000000002 9.968000000000002  15.752000000000002 9.872000000000002  Z " stroke-width="0" stroke-dasharray="0" stroke="rgba(255, 255, 255, 0)" fill="none" class="stroke" mask="url(#Clip548)" />
  </g>
</svg>