<?xml version="1.0" encoding="utf-8"?>
<svg version="1.1" xmlns:xlink="http://www.w3.org/1999/xlink" width="12px" height="12px" xmlns="http://www.w3.org/2000/svg">
  <defs>
    <pattern id="BGPattern" patternUnits="userSpaceOnUse" alignment="0 0" imageRepeat="None" />
    <mask fill="white" id="Clip4244">
      <path d="M 12 6  C 12 2.6999999999999993  9.3 0  6 0  C 2.7 0  0 2.6999999999999993  0 6  C 0 9.3  2.7 12  6 12  C 9.3 12  12 9.3  12 6  Z M 10 6  C 10 8.2  8.2 10  6 10  C 3.8 10  2 8.2  2 6  C 2 3.8000000000000007  3.8 2  6 2  C 8.2 2  10 3.8000000000000007  10 6  Z " fill-rule="evenodd" />
    </mask>
  </defs>
  <g transform="matrix(1 0 0 1 -2 -18 )">
    <path d="M 12 6  C 12 2.6999999999999993  9.3 0  6 0  C 2.7 0  0 2.6999999999999993  0 6  C 0 9.3  2.7 12  6 12  C 9.3 12  12 9.3  12 6  Z M 10 6  C 10 8.2  8.2 10  6 10  C 3.8 10  2 8.2  2 6  C 2 3.8000000000000007  3.8 2  6 2  C 8.2 2  10 3.8000000000000007  10 6  Z " fill-rule="nonzero" fill="rgba(0, 0, 0, 1)" stroke="none" transform="matrix(1 0 0 1 2 18 )" class="fill" />
    <path d="M 12 6  C 12 2.6999999999999993  9.3 0  6 0  C 2.7 0  0 2.6999999999999993  0 6  C 0 9.3  2.7 12  6 12  C 9.3 12  12 9.3  12 6  Z " stroke-width="0" stroke-dasharray="0" stroke="rgba(255, 255, 255, 0)" fill="none" transform="matrix(1 0 0 1 2 18 )" class="stroke" mask="url(#Clip4244)" />
    <path d="M 10 6  C 10 8.2  8.2 10  6 10  C 3.8 10  2 8.2  2 6  C 2 3.8000000000000007  3.8 2  6 2  C 8.2 2  10 3.8000000000000007  10 6  Z " stroke-width="0" stroke-dasharray="0" stroke="rgba(255, 255, 255, 0)" fill="none" transform="matrix(1 0 0 1 2 18 )" class="stroke" mask="url(#Clip4244)" />
  </g>
</svg>