<?xml version="1.0" encoding="utf-8"?>
<svg version="1.1" xmlns:xlink="http://www.w3.org/1999/xlink" width="6px" height="26px" xmlns="http://www.w3.org/2000/svg">
  <defs>
    <pattern id="BGPattern" patternUnits="userSpaceOnUse" alignment="0 0" imageRepeat="None" />
    <mask fill="white" id="Clip2311">
      <path d="M 0 20  L 0 23  C 0 24.65625  1.34375 26  3 26  C 4.65625 26  6 24.65625  6 23  C 6 21.34375  4.65625 20  3 20  L 0 20  Z M 3 6  C 4.65625 6  6 4.65625  6 3  C 6 1.34375  4.65625 0  3 0  C 1.34375 0  0 1.34375  0 3  L 0 6  L 3 6  Z " fill-rule="evenodd" />
    </mask>
  </defs>
  <g transform="matrix(1 0 0 1 -35 -15 )">
    <path d="M 0 20  L 0 23  C 0 24.65625  1.34375 26  3 26  C 4.65625 26  6 24.65625  6 23  C 6 21.34375  4.65625 20  3 20  L 0 20  Z M 3 6  C 4.65625 6  6 4.65625  6 3  C 6 1.34375  4.65625 0  3 0  C 1.34375 0  0 1.34375  0 3  L 0 6  L 3 6  Z " fill-rule="nonzero" fill="rgba(0, 0, 0, 1)" stroke="none" transform="matrix(1 0 0 1 35 15 )" class="fill" />
    <path d="M 0 20  L 0 23  C 0 24.65625  1.34375 26  3 26  C 4.65625 26  6 24.65625  6 23  C 6 21.34375  4.65625 20  3 20  L 0 20  Z " stroke-width="0" stroke-dasharray="0" stroke="rgba(255, 255, 255, 0)" fill="none" transform="matrix(1 0 0 1 35 15 )" class="stroke" mask="url(#Clip2311)" />
    <path d="M 3 6  C 4.65625 6  6 4.65625  6 3  C 6 1.34375  4.65625 0  3 0  C 1.34375 0  0 1.34375  0 3  L 0 6  L 3 6  Z " stroke-width="0" stroke-dasharray="0" stroke="rgba(255, 255, 255, 0)" fill="none" transform="matrix(1 0 0 1 35 15 )" class="stroke" mask="url(#Clip2311)" />
  </g>
</svg>