<?xml version="1.0" encoding="utf-8"?>
<svg version="1.1" xmlns:xlink="http://www.w3.org/1999/xlink" width="48px" height="48px" xmlns="http://www.w3.org/2000/svg">
  <defs>
    <pattern id="BGPattern" patternUnits="userSpaceOnUse" alignment="0 0" imageRepeat="None" />
    <mask fill="white" id="Clip7335">
      <path d="M 48 48  L 38.398 48  C 38.398 26.933999999999997  21.066 9.6  0 9.6  L 0 0  C 26.33 0  48 21.67  48 48  Z M 0 41.42  C 0 37.788000000000004  2.95 34.832  6.582 34.83  C 10.21 34.83  13.168 37.788  13.168 41.42  C 13.168 45.046  10.197999999999999 48  6.565999999999999 48  C 2.94 48  0 45.052  0 41.42  Z M 0 16.18  C 17.454 16.18  31.817999999999998 30.548000000000002  31.817999999999998 48  L 22.488 48  C 22.488 35.662  12.338000000000001 25.51  0 25.51  L 0 16.18  Z " fill-rule="evenodd" />
    </mask>
  </defs>
  <g>
    <path d="M 48 48  L 38.398 48  C 38.398 26.933999999999997  21.066 9.6  0 9.6  L 0 0  C 26.33 0  48 21.67  48 48  Z M 0 41.42  C 0 37.788000000000004  2.95 34.832  6.582 34.83  C 10.21 34.83  13.168 37.788  13.168 41.42  C 13.168 45.046  10.197999999999999 48  6.565999999999999 48  C 2.94 48  0 45.052  0 41.42  Z M 0 16.18  C 17.454 16.18  31.817999999999998 30.548000000000002  31.817999999999998 48  L 22.488 48  C 22.488 35.662  12.338000000000001 25.51  0 25.51  L 0 16.18  Z " fill-rule="nonzero" fill="rgba(255, 165, 0, 1)" stroke="none" class="fill" />
    <path d="M 48 48  L 38.398 48  C 38.398 26.933999999999997  21.066 9.6  0 9.6  L 0 0  C 26.33 0  48 21.67  48 48  Z " stroke-width="0" stroke-dasharray="0" stroke="rgba(255, 255, 255, 0)" fill="none" class="stroke" mask="url(#Clip7335)" />
    <path d="M 0 41.42  C 0 37.788000000000004  2.95 34.832  6.582 34.83  C 10.21 34.83  13.168 37.788  13.168 41.42  C 13.168 45.046  10.197999999999999 48  6.565999999999999 48  C 2.94 48  0 45.052  0 41.42  Z " stroke-width="0" stroke-dasharray="0" stroke="rgba(255, 255, 255, 0)" fill="none" class="stroke" mask="url(#Clip7335)" />
    <path d="M 0 16.18  C 17.454 16.18  31.817999999999998 30.548000000000002  31.817999999999998 48  L 22.488 48  C 22.488 35.662  12.338000000000001 25.51  0 25.51  L 0 16.18  Z " stroke-width="0" stroke-dasharray="0" stroke="rgba(255, 255, 255, 0)" fill="none" class="stroke" mask="url(#Clip7335)" />
  </g>
</svg>