<?xml version="1.0" encoding="utf-8"?>
<svg version="1.1" xmlns:xlink="http://www.w3.org/1999/xlink" width="24px" height="25px" xmlns="http://www.w3.org/2000/svg">
  <defs>
    <pattern id="BGPattern" patternUnits="userSpaceOnUse" alignment="0 0" imageRepeat="None" />
    <mask fill="white" id="Clip6553">
      <path d="M 20.4 4.489  L 20.401500000000002 4.489  C 18.178902924966337 2.245811593455242  15.14880093292562 0.9888083415403661  11.991 1  C 5.4405 1  0.10200000000000001 6.337  0.096 12.889000000000001  C 0.096 14.987499999999997  0.645 17.029  1.6815 18.8365  L 0 25  L 6.305999999999998 23.346999999999998  C 8.05050675960312 24.29637097347452  10.004896069676331 24.793992526039336  11.991 24.7945  L 11.997 24.7945  C 18.549 24.7945  23.886 19.4575  23.891999999999996 12.8995  C 23.895028241001647 9.74272520803335  22.638051070540055 6.715289213712845  20.4 4.489  Z M 21.878999999999998 12.893500000000003  C 21.872999999999998 18.352000000000004  17.437499999999996 22.7815  11.991 22.7815  C 10.219495504283264 22.782094946158914  8.480553145044116 22.30538845912077  6.957 21.401500000000002  L 6.5969999999999995 21.1855  L 2.855999999999999 22.1665  L 3.854999999999999 18.517000000000003  L 3.6209999999999987 18.140500000000003  C 2.6307104468931883 16.56598784155612  2.1069705630022706 14.743040182134404  2.110499999999999 12.883000000000003  C 2.110499999999999 7.444000000000002  6.5459999999999985 3.007000000000003  11.996999999999998 3.0070000000000023  C 14.619917911901663 3.0022945616567958  17.1361648073157 4.044971118533299  18.986999999999995 5.903500000000002  C 20.844301657434812 7.754792561860375  21.88539669945825 10.271132238120352  21.878999999999998 12.893500000000003  Z M 17.9835 15.7285  C 17.910000000000004 15.602500000000003  17.7105 15.529000000000002  17.4135 15.3805  C 17.118000000000002 15.231999999999998  15.6585 14.5135  15.384 14.4115  C 15.111 14.313999999999998  14.9115 14.262999999999998  14.7165 14.559999999999999  C 14.517000000000001 14.855499999999996  13.947 15.529000000000002  13.776 15.7225  C 13.604999999999997 15.922  13.428 15.944499999999998  13.131 15.797500000000001  C 12.8355 15.6475  11.876999999999999 15.3355  10.742999999999999 14.32  C 9.857999999999999 13.5325  9.265499999999998 12.557500000000003  9.0885 12.262  C 8.917499999999999 11.965  9.072 11.806000000000001  9.2205 11.6575  C 9.350999999999999 11.525500000000001  9.515999999999998 11.3095  9.6645 11.1385  C 9.814499999999999 10.967500000000001  9.863999999999999 10.8415  9.961500000000001 10.6435  C 10.059000000000001 10.442499999999999  10.0125 10.2715  9.939 10.123000000000001  C 9.864 9.9745  9.2715 8.509  9.021 7.918000000000001  C 8.781 7.334500000000001  8.5365 7.4155000000000015  8.3535 7.408  C 8.182500000000001 7.397500000000003  7.9830000000000005 7.397500000000003  7.7835 7.397500000000003  C 7.478936670728855 7.405070124077286  7.191339218763925 7.539354756658264  6.99 7.7680000000000025  C 6.717 8.065000000000003  5.9535 8.783500000000004  5.9535 10.249000000000002  C 5.9535 11.714500000000003  7.0185 13.123000000000001  7.1685 13.322500000000002  C 7.3155 13.522000000000004  9.2595 16.520500000000002  12.242999999999999 17.8105  C 12.948 18.118000000000002  13.502999999999998 18.299500000000002  13.936499999999999 18.4375  C 14.648999999999997 18.665499999999998  15.292499999999997 18.631  15.805499999999999 18.5575  C 16.3755 18.4705  17.561999999999998 17.8375  17.8125 17.143  C 18.0585 16.447  18.0585 15.853  17.9835 15.7285  Z " fill-rule="evenodd" />
    </mask>
  </defs>
  <g>
    <path d="M 20.4 4.489  L 20.401500000000002 4.489  C 18.178902924966337 2.245811593455242  15.14880093292562 0.9888083415403661  11.991 1  C 5.4405 1  0.10200000000000001 6.337  0.096 12.889000000000001  C 0.096 14.987499999999997  0.645 17.029  1.6815 18.8365  L 0 25  L 6.305999999999998 23.346999999999998  C 8.05050675960312 24.29637097347452  10.004896069676331 24.793992526039336  11.991 24.7945  L 11.997 24.7945  C 18.549 24.7945  23.886 19.4575  23.891999999999996 12.8995  C 23.895028241001647 9.74272520803335  22.638051070540055 6.715289213712845  20.4 4.489  Z M 21.878999999999998 12.893500000000003  C 21.872999999999998 18.352000000000004  17.437499999999996 22.7815  11.991 22.7815  C 10.219495504283264 22.782094946158914  8.480553145044116 22.30538845912077  6.957 21.401500000000002  L 6.5969999999999995 21.1855  L 2.855999999999999 22.1665  L 3.854999999999999 18.517000000000003  L 3.6209999999999987 18.140500000000003  C 2.6307104468931883 16.56598784155612  2.1069705630022706 14.743040182134404  2.110499999999999 12.883000000000003  C 2.110499999999999 7.444000000000002  6.5459999999999985 3.007000000000003  11.996999999999998 3.0070000000000023  C 14.619917911901663 3.0022945616567958  17.1361648073157 4.044971118533299  18.986999999999995 5.903500000000002  C 20.844301657434812 7.754792561860375  21.88539669945825 10.271132238120352  21.878999999999998 12.893500000000003  Z M 17.9835 15.7285  C 17.910000000000004 15.602500000000003  17.7105 15.529000000000002  17.4135 15.3805  C 17.118000000000002 15.231999999999998  15.6585 14.5135  15.384 14.4115  C 15.111 14.313999999999998  14.9115 14.262999999999998  14.7165 14.559999999999999  C 14.517000000000001 14.855499999999996  13.947 15.529000000000002  13.776 15.7225  C 13.604999999999997 15.922  13.428 15.944499999999998  13.131 15.797500000000001  C 12.8355 15.6475  11.876999999999999 15.3355  10.742999999999999 14.32  C 9.857999999999999 13.5325  9.265499999999998 12.557500000000003  9.0885 12.262  C 8.917499999999999 11.965  9.072 11.806000000000001  9.2205 11.6575  C 9.350999999999999 11.525500000000001  9.515999999999998 11.3095  9.6645 11.1385  C 9.814499999999999 10.967500000000001  9.863999999999999 10.8415  9.961500000000001 10.6435  C 10.059000000000001 10.442499999999999  10.0125 10.2715  9.939 10.123000000000001  C 9.864 9.9745  9.2715 8.509  9.021 7.918000000000001  C 8.781 7.334500000000001  8.5365 7.4155000000000015  8.3535 7.408  C 8.182500000000001 7.397500000000003  7.9830000000000005 7.397500000000003  7.7835 7.397500000000003  C 7.478936670728855 7.405070124077286  7.191339218763925 7.539354756658264  6.99 7.7680000000000025  C 6.717 8.065000000000003  5.9535 8.783500000000004  5.9535 10.249000000000002  C 5.9535 11.714500000000003  7.0185 13.123000000000001  7.1685 13.322500000000002  C 7.3155 13.522000000000004  9.2595 16.520500000000002  12.242999999999999 17.8105  C 12.948 18.118000000000002  13.502999999999998 18.299500000000002  13.936499999999999 18.4375  C 14.648999999999997 18.665499999999998  15.292499999999997 18.631  15.805499999999999 18.5575  C 16.3755 18.4705  17.561999999999998 17.8375  17.8125 17.143  C 18.0585 16.447  18.0585 15.853  17.9835 15.7285  Z " fill-rule="nonzero" fill="rgba(0, 0, 0, 1)" stroke="none" class="fill" />
    <path d="M 20.4 4.489  L 20.401500000000002 4.489  C 18.178902924966337 2.245811593455242  15.14880093292562 0.9888083415403661  11.991 1  C 5.4405 1  0.10200000000000001 6.337  0.096 12.889000000000001  C 0.096 14.987499999999997  0.645 17.029  1.6815 18.8365  L 0 25  L 6.305999999999998 23.346999999999998  C 8.05050675960312 24.29637097347452  10.004896069676331 24.793992526039336  11.991 24.7945  L 11.997 24.7945  C 18.549 24.7945  23.886 19.4575  23.891999999999996 12.8995  C 23.895028241001647 9.74272520803335  22.638051070540055 6.715289213712845  20.4 4.489  Z " stroke-width="0" stroke-dasharray="0" stroke="rgba(255, 255, 255, 0)" fill="none" class="stroke" mask="url(#Clip6553)" />
    <path d="M 21.878999999999998 12.893500000000003  C 21.872999999999998 18.352000000000004  17.437499999999996 22.7815  11.991 22.7815  C 10.219495504283264 22.782094946158914  8.480553145044116 22.30538845912077  6.957 21.401500000000002  L 6.5969999999999995 21.1855  L 2.855999999999999 22.1665  L 3.854999999999999 18.517000000000003  L 3.6209999999999987 18.140500000000003  C 2.6307104468931883 16.56598784155612  2.1069705630022706 14.743040182134404  2.110499999999999 12.883000000000003  C 2.110499999999999 7.444000000000002  6.5459999999999985 3.007000000000003  11.996999999999998 3.0070000000000023  C 14.619917911901663 3.0022945616567958  17.1361648073157 4.044971118533299  18.986999999999995 5.903500000000002  C 20.844301657434812 7.754792561860375  21.88539669945825 10.271132238120352  21.878999999999998 12.893500000000003  Z " stroke-width="0" stroke-dasharray="0" stroke="rgba(255, 255, 255, 0)" fill="none" class="stroke" mask="url(#Clip6553)" />
    <path d="M 17.9835 15.7285  C 17.910000000000004 15.602500000000003  17.7105 15.529000000000002  17.4135 15.3805  C 17.118000000000002 15.231999999999998  15.6585 14.5135  15.384 14.4115  C 15.111 14.313999999999998  14.9115 14.262999999999998  14.7165 14.559999999999999  C 14.517000000000001 14.855499999999996  13.947 15.529000000000002  13.776 15.7225  C 13.604999999999997 15.922  13.428 15.944499999999998  13.131 15.797500000000001  C 12.8355 15.6475  11.876999999999999 15.3355  10.742999999999999 14.32  C 9.857999999999999 13.5325  9.265499999999998 12.557500000000003  9.0885 12.262  C 8.917499999999999 11.965  9.072 11.806000000000001  9.2205 11.6575  C 9.350999999999999 11.525500000000001  9.515999999999998 11.3095  9.6645 11.1385  C 9.814499999999999 10.967500000000001  9.863999999999999 10.8415  9.961500000000001 10.6435  C 10.059000000000001 10.442499999999999  10.0125 10.2715  9.939 10.123000000000001  C 9.864 9.9745  9.2715 8.509  9.021 7.918000000000001  C 8.781 7.334500000000001  8.5365 7.4155000000000015  8.3535 7.408  C 8.182500000000001 7.397500000000003  7.9830000000000005 7.397500000000003  7.7835 7.397500000000003  C 7.478936670728855 7.405070124077286  7.191339218763925 7.539354756658264  6.99 7.7680000000000025  C 6.717 8.065000000000003  5.9535 8.783500000000004  5.9535 10.249000000000002  C 5.9535 11.714500000000003  7.0185 13.123000000000001  7.1685 13.322500000000002  C 7.3155 13.522000000000004  9.2595 16.520500000000002  12.242999999999999 17.8105  C 12.948 18.118000000000002  13.502999999999998 18.299500000000002  13.936499999999999 18.4375  C 14.648999999999997 18.665499999999998  15.292499999999997 18.631  15.805499999999999 18.5575  C 16.3755 18.4705  17.561999999999998 17.8375  17.8125 17.143  C 18.0585 16.447  18.0585 15.853  17.9835 15.7285  Z " stroke-width="0" stroke-dasharray="0" stroke="rgba(255, 255, 255, 0)" fill="none" class="stroke" mask="url(#Clip6553)" />
  </g>
</svg>