<?xml version="1.0" encoding="utf-8"?>
<svg version="1.1" xmlns:xlink="http://www.w3.org/1999/xlink" width="50px" height="44px" xmlns="http://www.w3.org/2000/svg">
  <defs>
    <pattern id="BGPattern" patternUnits="userSpaceOnUse" alignment="0 0" imageRepeat="None" />
    <mask fill="white" id="Clip2659">
      <path d="M 18 17.125  C 18 17.4  18.225 17.625  18.5 18  L 48.5 18  C 48.775 17.625  49 17.4  49 17.125  L 49 13.624999999999998  C 49 13.350000000000001  48.775 13.125  48.5 14  L 18.5 14  C 18.225 13.125  18 13.350000000000001  18 13.624999999999998  L 18 17.125  Z M 18 26.875  L 18 30.375  C 18 30.65  18.225 30.875  18.5 30  L 48.5 30  C 48.775 30.875  49 30.65  49 30.375  L 49 26.875  C 49 26.6  48.775 26.375000000000004  48.5 26  L 18.5 26  C 18.225 26.375000000000004  18 26.6  18 26.875  Z M 50 0.5  C 50 0.22499999999999964  49.775 0  49.5 0  L 0.5 0  C 0.22499999999999964 0  0 0.22499999999999964  0 0.5  L 0 4  C 0 4.275  0.22499999999999964 4.5  0.5 5  L 49.5 5  C 49.775 4.5  50 4.275  50 4  L 50 0.5  Z M 50 40  C 50 39.725  49.775 39.5  49.5 39  L 0.5 39  C 0.22499999999999964 39.5  0 39.725  0 40  L 0 43.5  C 0 43.775  0.22499999999999964 44  0.5 44  L 49.5 44  C 49.775 44  50 43.775  50 43.5  L 50 40  Z M 1.5562499713179037 30.25017863043174  C 1.6809233549426654 30.25017863043174  1.8019823193249618 30.2082953558596  1.9000000000000004 30.13125  L 11.66875 22.437499999999996  C 11.802013301385514 22.332751519792566  11.879819759138122 22.17262824953208  11.879819759138122 22.003124999999997  C 11.879819759138122 21.83362175046792  11.802013301385518 21.673498480207442  11.66875 21.56875  L 1.9000000000000004 13.868749999999999  C 1.5374999999999996 13.581249999999997  1 13.837499999999999  1 14.299999999999997  L 1 29.69375  C 0.9999999713179043 30.001137022525114  1.2490415792245244 30.25017863043174  1.5562499713179037 30.25017863043174  Z " fill-rule="evenodd" />
    </mask>
  </defs>
  <g>
    <path d="M 18 17.125  C 18 17.4  18.225 17.625  18.5 18  L 48.5 18  C 48.775 17.625  49 17.4  49 17.125  L 49 13.624999999999998  C 49 13.350000000000001  48.775 13.125  48.5 14  L 18.5 14  C 18.225 13.125  18 13.350000000000001  18 13.624999999999998  L 18 17.125  Z M 18 26.875  L 18 30.375  C 18 30.65  18.225 30.875  18.5 30  L 48.5 30  C 48.775 30.875  49 30.65  49 30.375  L 49 26.875  C 49 26.6  48.775 26.375000000000004  48.5 26  L 18.5 26  C 18.225 26.375000000000004  18 26.6  18 26.875  Z M 50 0.5  C 50 0.22499999999999964  49.775 0  49.5 0  L 0.5 0  C 0.22499999999999964 0  0 0.22499999999999964  0 0.5  L 0 4  C 0 4.275  0.22499999999999964 4.5  0.5 5  L 49.5 5  C 49.775 4.5  50 4.275  50 4  L 50 0.5  Z M 50 40  C 50 39.725  49.775 39.5  49.5 39  L 0.5 39  C 0.22499999999999964 39.5  0 39.725  0 40  L 0 43.5  C 0 43.775  0.22499999999999964 44  0.5 44  L 49.5 44  C 49.775 44  50 43.775  50 43.5  L 50 40  Z M 1.5562499713179037 30.25017863043174  C 1.6809233549426654 30.25017863043174  1.8019823193249618 30.2082953558596  1.9000000000000004 30.13125  L 11.66875 22.437499999999996  C 11.802013301385514 22.332751519792566  11.879819759138122 22.17262824953208  11.879819759138122 22.003124999999997  C 11.879819759138122 21.83362175046792  11.802013301385518 21.673498480207442  11.66875 21.56875  L 1.9000000000000004 13.868749999999999  C 1.5374999999999996 13.581249999999997  1 13.837499999999999  1 14.299999999999997  L 1 29.69375  C 0.9999999713179043 30.001137022525114  1.2490415792245244 30.25017863043174  1.5562499713179037 30.25017863043174  Z " fill-rule="nonzero" fill="rgba(0, 0, 0, 1)" stroke="none" class="fill" />
    <path d="M 18 17.125  C 18 17.4  18.225 17.625  18.5 18  L 48.5 18  C 48.775 17.625  49 17.4  49 17.125  L 49 13.624999999999998  C 49 13.350000000000001  48.775 13.125  48.5 14  L 18.5 14  C 18.225 13.125  18 13.350000000000001  18 13.624999999999998  L 18 17.125  Z " stroke-width="0" stroke-dasharray="0" stroke="rgba(255, 255, 255, 0)" fill="none" class="stroke" mask="url(#Clip2659)" />
    <path d="M 18 26.875  L 18 30.375  C 18 30.65  18.225 30.875  18.5 30  L 48.5 30  C 48.775 30.875  49 30.65  49 30.375  L 49 26.875  C 49 26.6  48.775 26.375000000000004  48.5 26  L 18.5 26  C 18.225 26.375000000000004  18 26.6  18 26.875  Z " stroke-width="0" stroke-dasharray="0" stroke="rgba(255, 255, 255, 0)" fill="none" class="stroke" mask="url(#Clip2659)" />
    <path d="M 50 0.5  C 50 0.22499999999999964  49.775 0  49.5 0  L 0.5 0  C 0.22499999999999964 0  0 0.22499999999999964  0 0.5  L 0 4  C 0 4.275  0.22499999999999964 4.5  0.5 5  L 49.5 5  C 49.775 4.5  50 4.275  50 4  L 50 0.5  Z " stroke-width="0" stroke-dasharray="0" stroke="rgba(255, 255, 255, 0)" fill="none" class="stroke" mask="url(#Clip2659)" />
    <path d="M 50 40  C 50 39.725  49.775 39.5  49.5 39  L 0.5 39  C 0.22499999999999964 39.5  0 39.725  0 40  L 0 43.5  C 0 43.775  0.22499999999999964 44  0.5 44  L 49.5 44  C 49.775 44  50 43.775  50 43.5  L 50 40  Z " stroke-width="0" stroke-dasharray="0" stroke="rgba(255, 255, 255, 0)" fill="none" class="stroke" mask="url(#Clip2659)" />
    <path d="M 1.5562499713179037 30.25017863043174  C 1.6809233549426654 30.25017863043174  1.8019823193249618 30.2082953558596  1.9000000000000004 30.13125  L 11.66875 22.437499999999996  C 11.802013301385514 22.332751519792566  11.879819759138122 22.17262824953208  11.879819759138122 22.003124999999997  C 11.879819759138122 21.83362175046792  11.802013301385518 21.673498480207442  11.66875 21.56875  L 1.9000000000000004 13.868749999999999  C 1.5374999999999996 13.581249999999997  1 13.837499999999999  1 14.299999999999997  L 1 29.69375  C 0.9999999713179043 30.001137022525114  1.2490415792245244 30.25017863043174  1.5562499713179037 30.25017863043174  Z " stroke-width="0" stroke-dasharray="0" stroke="rgba(255, 255, 255, 0)" fill="none" class="stroke" mask="url(#Clip2659)" />
  </g>
</svg>