<?xml version="1.0" encoding="utf-8"?>
<svg version="1.1" xmlns:xlink="http://www.w3.org/1999/xlink" width="9px" height="6px" xmlns="http://www.w3.org/2000/svg">
  <defs>
    <pattern id="BGPattern" patternUnits="userSpaceOnUse" alignment="0 0" imageRepeat="None" />
    <mask fill="white" id="Clip6079">
      <path d="M 0 5.25  L 0 0.75  C 0 0.3357864376269042  0.3357864376269042 0  0.75 0  L 8.25 0  C 8.664213562373096 0  9 0.3357864376269042  9 0.75  L 9 5.25  C 9 5.664213562373096  8.664213562373096 6  8.25 6  L 0.75 6  C 0.3357864376269042 6  0 5.664213562373096  0 5.25  Z " fill-rule="evenodd" />
    </mask>
  </defs>
  <g transform="matrix(1 0 0 1 -12 -9 )">
    <path d="M 0 5.25  L 0 0.75  C 0 0.3357864376269042  0.3357864376269042 0  0.75 0  L 8.25 0  C 8.664213562373096 0  9 0.3357864376269042  9 0.75  L 9 5.25  C 9 5.664213562373096  8.664213562373096 6  8.25 6  L 0.75 6  C 0.3357864376269042 6  0 5.664213562373096  0 5.25  Z " fill-rule="nonzero" fill="rgba(0, 0, 0, 1)" stroke="none" transform="matrix(1 0 0 1 12 9 )" class="fill" />
    <path d="M 0 5.25  L 0 0.75  C 0 0.3357864376269042  0.3357864376269042 0  0.75 0  L 8.25 0  C 8.664213562373096 0  9 0.3357864376269042  9 0.75  L 9 5.25  C 9 5.664213562373096  8.664213562373096 6  8.25 6  L 0.75 6  C 0.3357864376269042 6  0 5.664213562373096  0 5.25  Z " stroke-width="0" stroke-dasharray="0" stroke="rgba(255, 255, 255, 0)" fill="none" transform="matrix(1 0 0 1 12 9 )" class="stroke" mask="url(#Clip6079)" />
  </g>
</svg>