<?xml version="1.0" encoding="utf-8"?>
<svg version="1.1" xmlns:xlink="http://www.w3.org/1999/xlink" width="56px" height="56px" xmlns="http://www.w3.org/2000/svg">
  <defs>
    <pattern id="BGPattern" patternUnits="userSpaceOnUse" alignment="0 0" imageRepeat="None" />
    <mask fill="white" id="Clip2680">
      <path d="M 56 28  C 56 12.537500000000001  43.4625 0  28 0  C 12.537500000000001 0  0 12.537500000000001  0 28  C 0 43.4625  12.537500000000001 56  28 56  C 43.4625 56  56 43.4625  56 28  Z M 51.25 28  C 51.25 40.8375  40.8375 51.25  28 51.25  C 15.162500000000001 51.25  4.75 40.8375  4.75 28  C 4.75 15.162500000000001  15.162500000000001 4.75  28 4.75  C 40.8375 4.75  51.25 15.162500000000001  51.25 28  Z M 23 18.5  C 23 18.225  22.775 18  22.5 18  L 19.5 18  C 19.225 18  19 18.225  19 18.5  L 19 37.5  C 19 37.775  19.225 38  19.5 38  L 22.5 38  C 22.775 38  23 37.775  23 37.5  L 23 18.5  Z M 37 18.5  C 37 18.225  36.775 18  36.5 18  L 33.5 18  C 33.225 18  33 18.225  33 18.5  L 33 37.5  C 33 37.775  33.225 38  33.5 38  L 36.5 38  C 36.775 38  37 37.775  37 37.5  L 37 18.5  Z " fill-rule="evenodd" />
    </mask>
  </defs>
  <g>
    <path d="M 56 28  C 56 12.537500000000001  43.4625 0  28 0  C 12.537500000000001 0  0 12.537500000000001  0 28  C 0 43.4625  12.537500000000001 56  28 56  C 43.4625 56  56 43.4625  56 28  Z M 51.25 28  C 51.25 40.8375  40.8375 51.25  28 51.25  C 15.162500000000001 51.25  4.75 40.8375  4.75 28  C 4.75 15.162500000000001  15.162500000000001 4.75  28 4.75  C 40.8375 4.75  51.25 15.162500000000001  51.25 28  Z M 23 18.5  C 23 18.225  22.775 18  22.5 18  L 19.5 18  C 19.225 18  19 18.225  19 18.5  L 19 37.5  C 19 37.775  19.225 38  19.5 38  L 22.5 38  C 22.775 38  23 37.775  23 37.5  L 23 18.5  Z M 37 18.5  C 37 18.225  36.775 18  36.5 18  L 33.5 18  C 33.225 18  33 18.225  33 18.5  L 33 37.5  C 33 37.775  33.225 38  33.5 38  L 36.5 38  C 36.775 38  37 37.775  37 37.5  L 37 18.5  Z " fill-rule="nonzero" fill="rgba(0, 0, 0, 1)" stroke="none" class="fill" />
    <path d="M 56 28  C 56 12.537500000000001  43.4625 0  28 0  C 12.537500000000001 0  0 12.537500000000001  0 28  C 0 43.4625  12.537500000000001 56  28 56  C 43.4625 56  56 43.4625  56 28  Z " stroke-width="0" stroke-dasharray="0" stroke="rgba(255, 255, 255, 0)" fill="none" class="stroke" mask="url(#Clip2680)" />
    <path d="M 51.25 28  C 51.25 40.8375  40.8375 51.25  28 51.25  C 15.162500000000001 51.25  4.75 40.8375  4.75 28  C 4.75 15.162500000000001  15.162500000000001 4.75  28 4.75  C 40.8375 4.75  51.25 15.162500000000001  51.25 28  Z " stroke-width="0" stroke-dasharray="0" stroke="rgba(255, 255, 255, 0)" fill="none" class="stroke" mask="url(#Clip2680)" />
    <path d="M 23 18.5  C 23 18.225  22.775 18  22.5 18  L 19.5 18  C 19.225 18  19 18.225  19 18.5  L 19 37.5  C 19 37.775  19.225 38  19.5 38  L 22.5 38  C 22.775 38  23 37.775  23 37.5  L 23 18.5  Z " stroke-width="0" stroke-dasharray="0" stroke="rgba(255, 255, 255, 0)" fill="none" class="stroke" mask="url(#Clip2680)" />
    <path d="M 37 18.5  C 37 18.225  36.775 18  36.5 18  L 33.5 18  C 33.225 18  33 18.225  33 18.5  L 33 37.5  C 33 37.775  33.225 38  33.5 38  L 36.5 38  C 36.775 38  37 37.775  37 37.5  L 37 18.5  Z " stroke-width="0" stroke-dasharray="0" stroke="rgba(255, 255, 255, 0)" fill="none" class="stroke" mask="url(#Clip2680)" />
  </g>
</svg>