<?xml version="1.0" encoding="utf-8"?>
<svg version="1.1" xmlns:xlink="http://www.w3.org/1999/xlink" width="11px" height="12px" xmlns="http://www.w3.org/2000/svg">
  <defs>
    <pattern id="BGPattern" patternUnits="userSpaceOnUse" alignment="0 0" imageRepeat="None" />
    <mask fill="white" id="Clip3224">
      <path d="M 11 5  C 10.98902289120342 4.75644523085742  10.889448418508678 4.525290204958908  10.72 4.35  L 7.720000000000001 1.2899999999999991  C 7.5288369350570274 1.1003319354139247  7.269257266184029 0.9957790132289688  7 1  L 1 1  C 0.44771525016920677 1  0 1.4477152501692068  0 2  L 0 11  C 0 11.552284749830793  0.44771525016920677 12  1 12  L 10 12  C 10.552284749830793 12  11 11.552284749830793  11 11  L 11 5  Z M 7 5  L 7 2  L 10 5  L 7 5  Z M 10 11  L 1 11  L 1 2  L 6 2  L 6 5  C 6 5.552284749830793  6.447715250169207 6  7 6  L 10 6  L 10 11  Z " fill-rule="evenodd" />
    </mask>
  </defs>
  <g transform="matrix(1 0 0 1 -4 -3 )">
    <path d="M 11 5  C 10.98902289120342 4.75644523085742  10.889448418508678 4.525290204958908  10.72 4.35  L 7.720000000000001 1.2899999999999991  C 7.5288369350570274 1.1003319354139247  7.269257266184029 0.9957790132289688  7 1  L 1 1  C 0.44771525016920677 1  0 1.4477152501692068  0 2  L 0 11  C 0 11.552284749830793  0.44771525016920677 12  1 12  L 10 12  C 10.552284749830793 12  11 11.552284749830793  11 11  L 11 5  Z M 7 5  L 7 2  L 10 5  L 7 5  Z M 10 11  L 1 11  L 1 2  L 6 2  L 6 5  C 6 5.552284749830793  6.447715250169207 6  7 6  L 10 6  L 10 11  Z " fill-rule="nonzero" fill="rgba(0, 0, 0, 1)" stroke="none" transform="matrix(1 0 0 1 4 3 )" class="fill" />
    <path d="M 11 5  C 10.98902289120342 4.75644523085742  10.889448418508678 4.525290204958908  10.72 4.35  L 7.720000000000001 1.2899999999999991  C 7.5288369350570274 1.1003319354139247  7.269257266184029 0.9957790132289688  7 1  L 1 1  C 0.44771525016920677 1  0 1.4477152501692068  0 2  L 0 11  C 0 11.552284749830793  0.44771525016920677 12  1 12  L 10 12  C 10.552284749830793 12  11 11.552284749830793  11 11  L 11 5  Z " stroke-width="0" stroke-dasharray="0" stroke="rgba(255, 255, 255, 0)" fill="none" transform="matrix(1 0 0 1 4 3 )" class="stroke" mask="url(#Clip3224)" />
    <path d="M 7 5  L 7 2  L 10 5  L 7 5  Z " stroke-width="0" stroke-dasharray="0" stroke="rgba(255, 255, 255, 0)" fill="none" transform="matrix(1 0 0 1 4 3 )" class="stroke" mask="url(#Clip3224)" />
    <path d="M 10 11  L 1 11  L 1 2  L 6 2  L 6 5  C 6 5.552284749830793  6.447715250169207 6  7 6  L 10 6  L 10 11  Z " stroke-width="0" stroke-dasharray="0" stroke="rgba(255, 255, 255, 0)" fill="none" transform="matrix(1 0 0 1 4 3 )" class="stroke" mask="url(#Clip3224)" />
  </g>
</svg>