<?xml version="1.0" encoding="utf-8"?>
<svg version="1.1" xmlns:xlink="http://www.w3.org/1999/xlink" width="8px" height="8px" xmlns="http://www.w3.org/2000/svg">
  <defs>
    <pattern id="BGPattern" patternUnits="userSpaceOnUse" alignment="0 0" imageRepeat="None" />
    <mask fill="white" id="Clip3225">
      <path d="M 1 1  L 1 8  L 0 8  L 0 1  C 0 0.44771525016920655  0.44771525016920655 0  1 0  L 8 0  L 8 1  L 1 1  Z " fill-rule="evenodd" />
    </mask>
  </defs>
  <g transform="matrix(1 0 0 1 -1 -1 )">
    <path d="M 1 1  L 1 8  L 0 8  L 0 1  C 0 0.44771525016920655  0.44771525016920655 0  1 0  L 8 0  L 8 1  L 1 1  Z " fill-rule="nonzero" fill="rgba(0, 0, 0, 1)" stroke="none" transform="matrix(1 0 0 1 1 1 )" class="fill" />
    <path d="M 1 1  L 1 8  L 0 8  L 0 1  C 0 0.44771525016920655  0.44771525016920655 0  1 0  L 8 0  L 8 1  L 1 1  Z " stroke-width="0" stroke-dasharray="0" stroke="rgba(255, 255, 255, 0)" fill="none" transform="matrix(1 0 0 1 1 1 )" class="stroke" mask="url(#Clip3225)" />
  </g>
</svg>