<?xml version="1.0" encoding="utf-8"?>
<svg version="1.1" xmlns:xlink="http://www.w3.org/1999/xlink" width="30px" height="27px" xmlns="http://www.w3.org/2000/svg">
  <defs>
    <pattern id="BGPattern" patternUnits="userSpaceOnUse" alignment="0 0" imageRepeat="None" />
    <mask fill="white" id="Clip554">
      <path d="M 21.528000000000002 23.08  C 21.432000000000002 23.816  21.064000000000004 24.2  20.6 24.2  C 20.136000000000003 24.2  19.768 23.816  19.672 23.08  C 19.064 18.727999999999998  18.344 13.911999999999999  12.472000000000001 13.128  C 11.752 13.032  11.384 12.712  11.384 12.2  C 11.384 11.687999999999999  11.752 11.367999999999999  12.472000000000001 11.271999999999998  C 18.344 10.487999999999998  19.064 5.671999999999999  19.672 1.3199999999999985  C 19.768 0.5839999999999987  20.136 0.1999999999999984  20.6 0.1999999999999984  C 21.064000000000004 0.1999999999999984  21.432000000000002 0.5839999999999983  21.528000000000002 1.3199999999999985  C 22.136000000000003 5.671999999999999  22.856 10.503999999999998  28.568 11.271999999999998  C 29.288 11.367999999999999  29.656000000000002 11.687999999999999  29.656000000000002 12.2  C 29.656000000000002 12.712  29.288000000000004 13.032  28.568 13.128  C 22.856 13.896  22.136000000000003 18.728  21.528000000000002 23.08  Z M 5.479999999999999 9.400000000000002  C 5.3679999999999986 10.056000000000003  5.111999999999998 10.600000000000001  4.6 10.6  C 4.087999999999999 10.6  3.8320000000000003 10.056  3.7199999999999998 9.4  C 3.3359999999999994 7.128  3.5599999999999996 7.208  1.7999999999999998 6.68  C 1.1599999999999997 6.4879999999999995  0.5999999999999999 6.295999999999999  0.5999999999999999 5.799999999999999  C 0.5999999999999999 5.3039999999999985  1.1600000000000001 5.111999999999998  1.7999999999999998 4.919999999999999  C 3.5599999999999996 4.3919999999999995  3.3360000000000003 4.471999999999999  3.7199999999999998 2.1999999999999993  C 3.8320000000000003 1.5439999999999996  4.088 0.9999999999999992  4.6 0.9999999999999992  C 5.111999999999999 0.9999999999999992  5.367999999999999 1.5439999999999987  5.4799999999999995 2.1999999999999993  C 5.864 4.4719999999999995  5.64 4.3919999999999995  7.399999999999999 4.92  C 8.04 5.112  8.599999999999998 5.304  8.599999999999998 5.800000000000001  C 8.599999999999998 6.296000000000001  8.039999999999997 6.488000000000001  7.399999999999999 6.6800000000000015  C 5.639999999999999 7.208000000000001  5.863999999999999 7.128000000000002  5.479999999999999 9.400000000000002  Z M 8.680000000000001 25.400000000000002  C 8.568000000000001 26.056  8.312000000000001 26.6  7.800000000000001 26.6  C 7.288 26.6  7.032 26.056  6.920000000000001 25.400000000000002  C 6.5360000000000005 23.128000000000004  6.760000000000001 23.208000000000002  5.000000000000001 22.680000000000003  C 4.360000000000001 22.488000000000003  3.8000000000000003 22.296000000000003  3.8000000000000003 21.800000000000004  C 3.8000000000000003 21.304000000000006  4.360000000000001 21.112000000000005  5.000000000000001 20.920000000000005  C 6.760000000000001 20.392000000000007  6.584000000000001 20.472000000000005  6.920000000000001 18.200000000000006  C 7.016 17.544000000000008  7.288 17.000000000000007  7.800000000000001 17.000000000000007  C 8.312000000000001 17.000000000000007  8.568000000000001 17.544000000000008  8.680000000000001 18.200000000000006  C 9.064000000000002 20.472000000000005  8.840000000000002 20.392000000000007  10.600000000000001 20.920000000000005  C 11.240000000000002 21.112000000000005  11.8 21.304000000000006  11.8 21.800000000000004  C 11.8 22.296000000000003  11.24 22.488000000000003  10.600000000000001 22.680000000000003  C 8.840000000000002 23.208000000000002  9.064000000000002 23.128000000000004  8.680000000000001 25.400000000000002  Z " fill-rule="evenodd" />
    </mask>
  </defs>
  <g>
    <path d="M 21.528000000000002 23.08  C 21.432000000000002 23.816  21.064000000000004 24.2  20.6 24.2  C 20.136000000000003 24.2  19.768 23.816  19.672 23.08  C 19.064 18.727999999999998  18.344 13.911999999999999  12.472000000000001 13.128  C 11.752 13.032  11.384 12.712  11.384 12.2  C 11.384 11.687999999999999  11.752 11.367999999999999  12.472000000000001 11.271999999999998  C 18.344 10.487999999999998  19.064 5.671999999999999  19.672 1.3199999999999985  C 19.768 0.5839999999999987  20.136 0.1999999999999984  20.6 0.1999999999999984  C 21.064000000000004 0.1999999999999984  21.432000000000002 0.5839999999999983  21.528000000000002 1.3199999999999985  C 22.136000000000003 5.671999999999999  22.856 10.503999999999998  28.568 11.271999999999998  C 29.288 11.367999999999999  29.656000000000002 11.687999999999999  29.656000000000002 12.2  C 29.656000000000002 12.712  29.288000000000004 13.032  28.568 13.128  C 22.856 13.896  22.136000000000003 18.728  21.528000000000002 23.08  Z M 5.479999999999999 9.400000000000002  C 5.3679999999999986 10.056000000000003  5.111999999999998 10.600000000000001  4.6 10.6  C 4.087999999999999 10.6  3.8320000000000003 10.056  3.7199999999999998 9.4  C 3.3359999999999994 7.128  3.5599999999999996 7.208  1.7999999999999998 6.68  C 1.1599999999999997 6.4879999999999995  0.5999999999999999 6.295999999999999  0.5999999999999999 5.799999999999999  C 0.5999999999999999 5.3039999999999985  1.1600000000000001 5.111999999999998  1.7999999999999998 4.919999999999999  C 3.5599999999999996 4.3919999999999995  3.3360000000000003 4.471999999999999  3.7199999999999998 2.1999999999999993  C 3.8320000000000003 1.5439999999999996  4.088 0.9999999999999992  4.6 0.9999999999999992  C 5.111999999999999 0.9999999999999992  5.367999999999999 1.5439999999999987  5.4799999999999995 2.1999999999999993  C 5.864 4.4719999999999995  5.64 4.3919999999999995  7.399999999999999 4.92  C 8.04 5.112  8.599999999999998 5.304  8.599999999999998 5.800000000000001  C 8.599999999999998 6.296000000000001  8.039999999999997 6.488000000000001  7.399999999999999 6.6800000000000015  C 5.639999999999999 7.208000000000001  5.863999999999999 7.128000000000002  5.479999999999999 9.400000000000002  Z M 8.680000000000001 25.400000000000002  C 8.568000000000001 26.056  8.312000000000001 26.6  7.800000000000001 26.6  C 7.288 26.6  7.032 26.056  6.920000000000001 25.400000000000002  C 6.5360000000000005 23.128000000000004  6.760000000000001 23.208000000000002  5.000000000000001 22.680000000000003  C 4.360000000000001 22.488000000000003  3.8000000000000003 22.296000000000003  3.8000000000000003 21.800000000000004  C 3.8000000000000003 21.304000000000006  4.360000000000001 21.112000000000005  5.000000000000001 20.920000000000005  C 6.760000000000001 20.392000000000007  6.584000000000001 20.472000000000005  6.920000000000001 18.200000000000006  C 7.016 17.544000000000008  7.288 17.000000000000007  7.800000000000001 17.000000000000007  C 8.312000000000001 17.000000000000007  8.568000000000001 17.544000000000008  8.680000000000001 18.200000000000006  C 9.064000000000002 20.472000000000005  8.840000000000002 20.392000000000007  10.600000000000001 20.920000000000005  C 11.240000000000002 21.112000000000005  11.8 21.304000000000006  11.8 21.800000000000004  C 11.8 22.296000000000003  11.24 22.488000000000003  10.600000000000001 22.680000000000003  C 8.840000000000002 23.208000000000002  9.064000000000002 23.128000000000004  8.680000000000001 25.400000000000002  Z " fill-rule="nonzero" fill="rgba(0, 0, 0, 1)" stroke="none" class="fill" />
    <path d="M 21.528000000000002 23.08  C 21.432000000000002 23.816  21.064000000000004 24.2  20.6 24.2  C 20.136000000000003 24.2  19.768 23.816  19.672 23.08  C 19.064 18.727999999999998  18.344 13.911999999999999  12.472000000000001 13.128  C 11.752 13.032  11.384 12.712  11.384 12.2  C 11.384 11.687999999999999  11.752 11.367999999999999  12.472000000000001 11.271999999999998  C 18.344 10.487999999999998  19.064 5.671999999999999  19.672 1.3199999999999985  C 19.768 0.5839999999999987  20.136 0.1999999999999984  20.6 0.1999999999999984  C 21.064000000000004 0.1999999999999984  21.432000000000002 0.5839999999999983  21.528000000000002 1.3199999999999985  C 22.136000000000003 5.671999999999999  22.856 10.503999999999998  28.568 11.271999999999998  C 29.288 11.367999999999999  29.656000000000002 11.687999999999999  29.656000000000002 12.2  C 29.656000000000002 12.712  29.288000000000004 13.032  28.568 13.128  C 22.856 13.896  22.136000000000003 18.728  21.528000000000002 23.08  Z " stroke-width="0" stroke-dasharray="0" stroke="rgba(255, 255, 255, 0)" fill="none" class="stroke" mask="url(#Clip554)" />
    <path d="M 5.479999999999999 9.400000000000002  C 5.3679999999999986 10.056000000000003  5.111999999999998 10.600000000000001  4.6 10.6  C 4.087999999999999 10.6  3.8320000000000003 10.056  3.7199999999999998 9.4  C 3.3359999999999994 7.128  3.5599999999999996 7.208  1.7999999999999998 6.68  C 1.1599999999999997 6.4879999999999995  0.5999999999999999 6.295999999999999  0.5999999999999999 5.799999999999999  C 0.5999999999999999 5.3039999999999985  1.1600000000000001 5.111999999999998  1.7999999999999998 4.919999999999999  C 3.5599999999999996 4.3919999999999995  3.3360000000000003 4.471999999999999  3.7199999999999998 2.1999999999999993  C 3.8320000000000003 1.5439999999999996  4.088 0.9999999999999992  4.6 0.9999999999999992  C 5.111999999999999 0.9999999999999992  5.367999999999999 1.5439999999999987  5.4799999999999995 2.1999999999999993  C 5.864 4.4719999999999995  5.64 4.3919999999999995  7.399999999999999 4.92  C 8.04 5.112  8.599999999999998 5.304  8.599999999999998 5.800000000000001  C 8.599999999999998 6.296000000000001  8.039999999999997 6.488000000000001  7.399999999999999 6.6800000000000015  C 5.639999999999999 7.208000000000001  5.863999999999999 7.128000000000002  5.479999999999999 9.400000000000002  Z " stroke-width="0" stroke-dasharray="0" stroke="rgba(255, 255, 255, 0)" fill="none" class="stroke" mask="url(#Clip554)" />
    <path d="M 8.680000000000001 25.400000000000002  C 8.568000000000001 26.056  8.312000000000001 26.6  7.800000000000001 26.6  C 7.288 26.6  7.032 26.056  6.920000000000001 25.400000000000002  C 6.5360000000000005 23.128000000000004  6.760000000000001 23.208000000000002  5.000000000000001 22.680000000000003  C 4.360000000000001 22.488000000000003  3.8000000000000003 22.296000000000003  3.8000000000000003 21.800000000000004  C 3.8000000000000003 21.304000000000006  4.360000000000001 21.112000000000005  5.000000000000001 20.920000000000005  C 6.760000000000001 20.392000000000007  6.584000000000001 20.472000000000005  6.920000000000001 18.200000000000006  C 7.016 17.544000000000008  7.288 17.000000000000007  7.800000000000001 17.000000000000007  C 8.312000000000001 17.000000000000007  8.568000000000001 17.544000000000008  8.680000000000001 18.200000000000006  C 9.064000000000002 20.472000000000005  8.840000000000002 20.392000000000007  10.600000000000001 20.920000000000005  C 11.240000000000002 21.112000000000005  11.8 21.304000000000006  11.8 21.800000000000004  C 11.8 22.296000000000003  11.24 22.488000000000003  10.600000000000001 22.680000000000003  C 8.840000000000002 23.208000000000002  9.064000000000002 23.128000000000004  8.680000000000001 25.400000000000002  Z " stroke-width="0" stroke-dasharray="0" stroke="rgba(255, 255, 255, 0)" fill="none" class="stroke" mask="url(#Clip554)" />
  </g>
</svg>