<?xml version="1.0" encoding="utf-8"?>
<svg version="1.1" xmlns:xlink="http://www.w3.org/1999/xlink" width="16px" height="18px" xmlns="http://www.w3.org/2000/svg">
  <defs>
    <pattern id="BGPattern" patternUnits="userSpaceOnUse" alignment="0 0" imageRepeat="None" />
    <mask fill="white" id="Clip434">
      <path d="M 0 14.335999999999999  L 0 3.2639999999999993  C 0 1.3759999999999994  1.3760000000000012 0  3.264000000000001 0  L 12.735999999999999 0  C 14.623999999999997 0  15.999999999999998 1.3759999999999994  16 3.2639999999999993  L 16 14.335999999999999  C 15.999999999999998 16.223999999999997  14.623999999999997 17.599999999999998  12.735999999999999 17.599999999999998  L 3.2639999999999993 17.599999999999998  C 1.3759999999999994 17.599999999999998  0 16.223999999999997  0 14.335999999999999  Z M 12.144 3.856  L 12.144 2.912000000000001  L 4.064 2.912000000000001  L 4.064 4.384  C 4.064 4.5280000000000005  4.112 4.640000000000001  4.208 4.736000000000001  C 4.32 4.848000000000001  4.432 4.880000000000001  4.5600000000000005 4.880000000000001  L 9.92 4.880000000000001  C 9.776000000000002 5.040000000000001  9.648000000000001 5.200000000000001  9.536 5.360000000000001  C 9.423999999999998 5.520000000000001  9.312 5.7120000000000015  9.216 5.904000000000002  L 4.879999999999999 14.400000000000002  L 6.479999999999999 14.400000000000002  C 6.783999999999999 14.400000000000002  7.023999999999999 14.320000000000004  7.215999999999999 14.176000000000002  C 7.3919999999999995 14.032000000000004  7.536 13.872000000000003  7.648 13.664000000000001  L 11.872000000000002 4.960000000000001  C 11.92 4.848000000000001  11.984 4.704000000000001  12.048 4.5280000000000005  C 12.112 4.368  12.144 4.144  12.144 3.856  Z " fill-rule="evenodd" />
    </mask>
  </defs>
  <g>
    <path d="M 0 14.335999999999999  L 0 3.2639999999999993  C 0 1.3759999999999994  1.3760000000000012 0  3.264000000000001 0  L 12.735999999999999 0  C 14.623999999999997 0  15.999999999999998 1.3759999999999994  16 3.2639999999999993  L 16 14.335999999999999  C 15.999999999999998 16.223999999999997  14.623999999999997 17.599999999999998  12.735999999999999 17.599999999999998  L 3.2639999999999993 17.599999999999998  C 1.3759999999999994 17.599999999999998  0 16.223999999999997  0 14.335999999999999  Z M 12.144 3.856  L 12.144 2.912000000000001  L 4.064 2.912000000000001  L 4.064 4.384  C 4.064 4.5280000000000005  4.112 4.640000000000001  4.208 4.736000000000001  C 4.32 4.848000000000001  4.432 4.880000000000001  4.5600000000000005 4.880000000000001  L 9.92 4.880000000000001  C 9.776000000000002 5.040000000000001  9.648000000000001 5.200000000000001  9.536 5.360000000000001  C 9.423999999999998 5.520000000000001  9.312 5.7120000000000015  9.216 5.904000000000002  L 4.879999999999999 14.400000000000002  L 6.479999999999999 14.400000000000002  C 6.783999999999999 14.400000000000002  7.023999999999999 14.320000000000004  7.215999999999999 14.176000000000002  C 7.3919999999999995 14.032000000000004  7.536 13.872000000000003  7.648 13.664000000000001  L 11.872000000000002 4.960000000000001  C 11.92 4.848000000000001  11.984 4.704000000000001  12.048 4.5280000000000005  C 12.112 4.368  12.144 4.144  12.144 3.856  Z " fill-rule="nonzero" fill="rgba(0, 0, 0, 1)" stroke="none" class="fill" />
    <path d="M 0 14.335999999999999  L 0 3.2639999999999993  C 0 1.3759999999999994  1.3760000000000012 0  3.264000000000001 0  L 12.735999999999999 0  C 14.623999999999997 0  15.999999999999998 1.3759999999999994  16 3.2639999999999993  L 16 14.335999999999999  C 15.999999999999998 16.223999999999997  14.623999999999997 17.599999999999998  12.735999999999999 17.599999999999998  L 3.2639999999999993 17.599999999999998  C 1.3759999999999994 17.599999999999998  0 16.223999999999997  0 14.335999999999999  Z " stroke-width="0" stroke-dasharray="0" stroke="rgba(255, 255, 255, 0)" fill="none" class="stroke" mask="url(#Clip434)" />
    <path d="M 12.144 3.856  L 12.144 2.912000000000001  L 4.064 2.912000000000001  L 4.064 4.384  C 4.064 4.5280000000000005  4.112 4.640000000000001  4.208 4.736000000000001  C 4.32 4.848000000000001  4.432 4.880000000000001  4.5600000000000005 4.880000000000001  L 9.92 4.880000000000001  C 9.776000000000002 5.040000000000001  9.648000000000001 5.200000000000001  9.536 5.360000000000001  C 9.423999999999998 5.520000000000001  9.312 5.7120000000000015  9.216 5.904000000000002  L 4.879999999999999 14.400000000000002  L 6.479999999999999 14.400000000000002  C 6.783999999999999 14.400000000000002  7.023999999999999 14.320000000000004  7.215999999999999 14.176000000000002  C 7.3919999999999995 14.032000000000004  7.536 13.872000000000003  7.648 13.664000000000001  L 11.872000000000002 4.960000000000001  C 11.92 4.848000000000001  11.984 4.704000000000001  12.048 4.5280000000000005  C 12.112 4.368  12.144 4.144  12.144 3.856  Z " stroke-width="0" stroke-dasharray="0" stroke="rgba(255, 255, 255, 0)" fill="none" class="stroke" mask="url(#Clip434)" />
  </g>
</svg>