<?xml version="1.0" encoding="utf-8"?>
<svg version="1.1" xmlns:xlink="http://www.w3.org/1999/xlink" width="50px" height="29px" xmlns="http://www.w3.org/2000/svg">
  <defs>
    <pattern id="BGPattern" patternUnits="userSpaceOnUse" alignment="0 0" imageRepeat="None" />
    <mask fill="white" id="Clip1358">
      <path d="M 1.040268456375827 5.7214765100670775  C -1.0738255033556925 3.607382550335558  0.4194630872483174 0  3.406040268456365 0  L 46.5771812080537 0  C 49.56375838926175 0  51.05704697986578 3.607382550335558  48.94295302013424 5.7214765100670775  L 27.365771812080535 27.315436241610712  C 26.05704697986576 28.624161073825462  23.926174496644308 28.624161073825462  22.61744966442953 27.315436241610712  L 1.040268456375827 5.7214765100670775  Z " fill-rule="evenodd" />
    </mask>
  </defs>
  <g>
    <path d="M 1.040268456375827 5.7214765100670775  C -1.0738255033556925 3.607382550335558  0.4194630872483174 0  3.406040268456365 0  L 46.5771812080537 0  C 49.56375838926175 0  51.05704697986578 3.607382550335558  48.94295302013424 5.7214765100670775  L 27.365771812080535 27.315436241610712  C 26.05704697986576 28.624161073825462  23.926174496644308 28.624161073825462  22.61744966442953 27.315436241610712  L 1.040268456375827 5.7214765100670775  Z " fill-rule="nonzero" fill="rgba(0, 0, 0, 1)" stroke="none" class="fill" />
    <path d="M 1.040268456375827 5.7214765100670775  C -1.0738255033556925 3.607382550335558  0.4194630872483174 0  3.406040268456365 0  L 46.5771812080537 0  C 49.56375838926175 0  51.05704697986578 3.607382550335558  48.94295302013424 5.7214765100670775  L 27.365771812080535 27.315436241610712  C 26.05704697986576 28.624161073825462  23.926174496644308 28.624161073825462  22.61744966442953 27.315436241610712  L 1.040268456375827 5.7214765100670775  Z " stroke-width="0" stroke-dasharray="0" stroke="rgba(255, 255, 255, 0)" fill="none" class="stroke" mask="url(#Clip1358)" />
  </g>
</svg>