<?xml version="1.0" encoding="utf-8"?>
<svg version="1.1" xmlns:xlink="http://www.w3.org/1999/xlink" width="50px" height="50px" xmlns="http://www.w3.org/2000/svg">
  <defs>
    <pattern id="BGPattern" patternUnits="userSpaceOnUse" alignment="0 0" imageRepeat="None" />
    <mask fill="white" id="Clip1442">
      <path d="M 50 16.517857142857167  C 50 17.254464285714278  49.397321428571445 17.857142857142833  48.66071428571428 18  L 34.821428571428555 18  C 33.337053571428555 17.857142857142833  32.14285714285714 16.662946428571445  32 15.178571428571445  L 32 1.3392857142857224  C 32.14285714285714 0.6026785714285552  32.74553571428572 0  33.48214285714286 0  L 37.946428571428555 0  C 38.68303571428572 0  39.28571428571428 0.6026785714285552  39.28571428571428 1.3392857142857224  L 39.28571428571428 10.714285714285722  L 48.66071428571428 10.714285714285722  C 49.397321428571445 10.714285714285722  50 11.316964285714278  50 12.053571428571445  L 50 16.517857142857167  Z M 15.178571428571416 18  C 16.662946428571445 17.857142857142833  17.85714285714286 16.662946428571445  18 15.178571428571445  L 18 1.3392857142857224  C 17.85714285714286 0.6026785714285552  17.254464285714278 0  16.51785714285714 0  L 12.053571428571416 0  C 11.316964285714278 0  10.714285714285722 0.6026785714285552  10.714285714285722 1.3392857142857224  L 10.714285714285722 10.714285714285722  L 1.3392857142857082 10.714285714285722  C 0.6026785714285694 10.714285714285722  0 11.316964285714278  0 12.053571428571445  L 0 16.517857142857167  C 0 17.254464285714278  0.6026785714285694 17.857142857142833  1.3392857142857082 18  L 15.178571428571416 18  Z M 16.51785714285714 50  C 17.254464285714278 50  17.85714285714286 49.397321428571445  18 48.66071428571428  L 18 34.821428571428555  C 17.85714285714286 33.337053571428555  16.662946428571445 32.14285714285717  15.178571428571416 32  L 1.3392857142857082 32  C 0.6026785714285694 32.14285714285717  0 32.74553571428572  0 33.48214285714283  L 0 37.946428571428555  C 0 38.68303571428572  0.6026785714285694 39.28571428571428  1.3392857142857082 39.28571428571428  L 10.714285714285722 39.28571428571428  L 10.714285714285722 48.66071428571428  C 10.714285714285722 49.397321428571445  11.316964285714278 50  12.053571428571416 50  L 16.51785714285714 50  Z M 37.946428571428555 50  C 38.68303571428572 50  39.28571428571428 49.397321428571445  39.28571428571428 48.66071428571428  L 39.28571428571428 39.28571428571428  L 48.66071428571428 39.28571428571428  C 49.397321428571445 39.28571428571428  50 38.68303571428572  50 37.946428571428555  L 50 33.48214285714283  C 50 32.74553571428572  49.397321428571445 32.14285714285717  48.66071428571428 32  L 34.821428571428555 32  C 33.337053571428555 32.14285714285717  32.14285714285714 33.337053571428555  32 34.821428571428555  L 32 48.66071428571428  C 32.14285714285714 49.397321428571445  32.74553571428572 50  33.48214285714286 50  L 37.946428571428555 50  Z " fill-rule="evenodd" />
    </mask>
  </defs>
  <g>
    <path d="M 50 16.517857142857167  C 50 17.254464285714278  49.397321428571445 17.857142857142833  48.66071428571428 18  L 34.821428571428555 18  C 33.337053571428555 17.857142857142833  32.14285714285714 16.662946428571445  32 15.178571428571445  L 32 1.3392857142857224  C 32.14285714285714 0.6026785714285552  32.74553571428572 0  33.48214285714286 0  L 37.946428571428555 0  C 38.68303571428572 0  39.28571428571428 0.6026785714285552  39.28571428571428 1.3392857142857224  L 39.28571428571428 10.714285714285722  L 48.66071428571428 10.714285714285722  C 49.397321428571445 10.714285714285722  50 11.316964285714278  50 12.053571428571445  L 50 16.517857142857167  Z M 15.178571428571416 18  C 16.662946428571445 17.857142857142833  17.85714285714286 16.662946428571445  18 15.178571428571445  L 18 1.3392857142857224  C 17.85714285714286 0.6026785714285552  17.254464285714278 0  16.51785714285714 0  L 12.053571428571416 0  C 11.316964285714278 0  10.714285714285722 0.6026785714285552  10.714285714285722 1.3392857142857224  L 10.714285714285722 10.714285714285722  L 1.3392857142857082 10.714285714285722  C 0.6026785714285694 10.714285714285722  0 11.316964285714278  0 12.053571428571445  L 0 16.517857142857167  C 0 17.254464285714278  0.6026785714285694 17.857142857142833  1.3392857142857082 18  L 15.178571428571416 18  Z M 16.51785714285714 50  C 17.254464285714278 50  17.85714285714286 49.397321428571445  18 48.66071428571428  L 18 34.821428571428555  C 17.85714285714286 33.337053571428555  16.662946428571445 32.14285714285717  15.178571428571416 32  L 1.3392857142857082 32  C 0.6026785714285694 32.14285714285717  0 32.74553571428572  0 33.48214285714283  L 0 37.946428571428555  C 0 38.68303571428572  0.6026785714285694 39.28571428571428  1.3392857142857082 39.28571428571428  L 10.714285714285722 39.28571428571428  L 10.714285714285722 48.66071428571428  C 10.714285714285722 49.397321428571445  11.316964285714278 50  12.053571428571416 50  L 16.51785714285714 50  Z M 37.946428571428555 50  C 38.68303571428572 50  39.28571428571428 49.397321428571445  39.28571428571428 48.66071428571428  L 39.28571428571428 39.28571428571428  L 48.66071428571428 39.28571428571428  C 49.397321428571445 39.28571428571428  50 38.68303571428572  50 37.946428571428555  L 50 33.48214285714283  C 50 32.74553571428572  49.397321428571445 32.14285714285717  48.66071428571428 32  L 34.821428571428555 32  C 33.337053571428555 32.14285714285717  32.14285714285714 33.337053571428555  32 34.821428571428555  L 32 48.66071428571428  C 32.14285714285714 49.397321428571445  32.74553571428572 50  33.48214285714286 50  L 37.946428571428555 50  Z " fill-rule="nonzero" fill="rgba(0, 0, 0, 1)" stroke="none" class="fill" />
    <path d="M 50 16.517857142857167  C 50 17.254464285714278  49.397321428571445 17.857142857142833  48.66071428571428 18  L 34.821428571428555 18  C 33.337053571428555 17.857142857142833  32.14285714285714 16.662946428571445  32 15.178571428571445  L 32 1.3392857142857224  C 32.14285714285714 0.6026785714285552  32.74553571428572 0  33.48214285714286 0  L 37.946428571428555 0  C 38.68303571428572 0  39.28571428571428 0.6026785714285552  39.28571428571428 1.3392857142857224  L 39.28571428571428 10.714285714285722  L 48.66071428571428 10.714285714285722  C 49.397321428571445 10.714285714285722  50 11.316964285714278  50 12.053571428571445  L 50 16.517857142857167  Z " stroke-width="0" stroke-dasharray="0" stroke="rgba(255, 255, 255, 0)" fill="none" class="stroke" mask="url(#Clip1442)" />
    <path d="M 15.178571428571416 18  C 16.662946428571445 17.857142857142833  17.85714285714286 16.662946428571445  18 15.178571428571445  L 18 1.3392857142857224  C 17.85714285714286 0.6026785714285552  17.254464285714278 0  16.51785714285714 0  L 12.053571428571416 0  C 11.316964285714278 0  10.714285714285722 0.6026785714285552  10.714285714285722 1.3392857142857224  L 10.714285714285722 10.714285714285722  L 1.3392857142857082 10.714285714285722  C 0.6026785714285694 10.714285714285722  0 11.316964285714278  0 12.053571428571445  L 0 16.517857142857167  C 0 17.254464285714278  0.6026785714285694 17.857142857142833  1.3392857142857082 18  L 15.178571428571416 18  Z " stroke-width="0" stroke-dasharray="0" stroke="rgba(255, 255, 255, 0)" fill="none" class="stroke" mask="url(#Clip1442)" />
    <path d="M 16.51785714285714 50  C 17.254464285714278 50  17.85714285714286 49.397321428571445  18 48.66071428571428  L 18 34.821428571428555  C 17.85714285714286 33.337053571428555  16.662946428571445 32.14285714285717  15.178571428571416 32  L 1.3392857142857082 32  C 0.6026785714285694 32.14285714285717  0 32.74553571428572  0 33.48214285714283  L 0 37.946428571428555  C 0 38.68303571428572  0.6026785714285694 39.28571428571428  1.3392857142857082 39.28571428571428  L 10.714285714285722 39.28571428571428  L 10.714285714285722 48.66071428571428  C 10.714285714285722 49.397321428571445  11.316964285714278 50  12.053571428571416 50  L 16.51785714285714 50  Z " stroke-width="0" stroke-dasharray="0" stroke="rgba(255, 255, 255, 0)" fill="none" class="stroke" mask="url(#Clip1442)" />
    <path d="M 37.946428571428555 50  C 38.68303571428572 50  39.28571428571428 49.397321428571445  39.28571428571428 48.66071428571428  L 39.28571428571428 39.28571428571428  L 48.66071428571428 39.28571428571428  C 49.397321428571445 39.28571428571428  50 38.68303571428572  50 37.946428571428555  L 50 33.48214285714283  C 50 32.74553571428572  49.397321428571445 32.14285714285717  48.66071428571428 32  L 34.821428571428555 32  C 33.337053571428555 32.14285714285717  32.14285714285714 33.337053571428555  32 34.821428571428555  L 32 48.66071428571428  C 32.14285714285714 49.397321428571445  32.74553571428572 50  33.48214285714286 50  L 37.946428571428555 50  Z " stroke-width="0" stroke-dasharray="0" stroke="rgba(255, 255, 255, 0)" fill="none" class="stroke" mask="url(#Clip1442)" />
  </g>
</svg>