<?xml version="1.0" encoding="utf-8"?>
<svg version="1.1" xmlns:xlink="http://www.w3.org/1999/xlink" width="56px" height="56px" xmlns="http://www.w3.org/2000/svg">
  <defs>
    <pattern id="BGPattern" patternUnits="userSpaceOnUse" alignment="0 0" imageRepeat="None" />
    <mask fill="white" id="Clip2744">
      <path d="M 16.25 37.625  C 16.25 39.28185424949238  17.59314575050762 40.625  19.25 40.625  C 20.90685424949238 40.625  22.25 39.28185424949238  22.25 37.625  C 22.25 35.96814575050762  20.90685424949238 34.625  19.25 34.625  C 17.59314575050762 34.625  16.25 35.96814575050762  16.25 37.625  Z M 54.8 24.093749999999996  C 56.4 22.487499999999997  56.4 19.874999999999996  54.79375 18.275  L 37.725 1.2000000000000002  C 36.95 0.43125000000000036  35.91875 0  34.81875 0  C 33.71875 0  32.6875 0.4249999999999998  31.9125 1.2000000000000002  L 1.2062499999999998 31.90625  C -0.39992004465966247 33.513315754940805  -0.39992004465966247 36.117934245059196  1.2062499999999998 37.725  L 18.28125 54.8  C 19.05 55.568749999999994  20.0875 56  21.1875 56  C 22.2875 56  23.31875 55.575  24.09375 54.8  L 54.8 24.093749999999996  Z M 51.00625 21.1875  L 21.1875 51.00625  L 4.99375 34.8125  L 34.81875 4.987500000000001  L 51.00625 21.1875  Z M 3.14375 16.943749999999998  L 5.5500000000000025 19.356250000000003  C 5.642665591815362 19.449377024810214  5.76862437571417 19.50173420710613  5.900000000000002 19.50173420710613  C 6.0313756242858325 19.50173420710613  6.157334408184642 19.449377024810214  6.25 19.35625  L 19.356250000000003 6.250000000000002  C 19.449377024810214 6.157334408184644  19.50173420710613 6.0313756242858325  19.50173420710613 5.900000000000002  C 19.50173420710613 5.768624375714172  19.449377024810214 5.64266559181536  19.35625 5.550000000000001  L 16.956250000000004 3.1500000000000012  C 16.86358440818465 3.056872975189793  16.737625624285833 3.0045157928938773  16.606250000000006 3.0045157928938773  C 16.474874375714172 3.0045157928938773  16.348915591815363 3.0568729751897914  16.25625 3.1500000000000004  L 3.1437500000000007 16.243750000000002  C 3.0506229751897918 16.33641559181536  2.9982657928938776 16.462374375714173  2.9982657928938776 16.59375  C 2.9982657928938776 16.72512562428583  3.0506229751897918 16.85108440818464  3.14375 16.943749999999998  Z M 52.85625 39.05  L 50.46250000000001 36.64375  C 50.36983440818465 36.55062297518979  50.24387562428585 36.498265792893875  50.11250000000001 36.498265792893875  C 49.98112437571418 36.498265792893875  49.855165591815364 36.550622975189796  49.7625 36.64375  L 36.64375 49.75625000000001  C 36.55062297518979 49.84891559181537  36.498265792893875 49.97487437571418  36.498265792893875 50.10625000000001  C 36.498265792893875 50.23762562428584  36.550622975189796 50.36358440818466  36.64375 50.456250000000004  L 39.04375 52.85625000000001  C 39.136415591815364 52.949377024810225  39.26237437571417 53.00173420710614  39.393750000000004 53.00173420710614  C 39.525125624285835 53.00173420710614  39.65108440818465 52.94937702481022  39.74375 52.85625  L 52.85625000000001 39.75000000000001  C 52.949377024810225 39.657334408184646  53.00173420710614 39.531375624285836  53.00173420710614 39.400000000000006  C 53.00173420710614 39.268624375714175  52.94937702481022 39.14266559181536  52.85625 39.05  Z " fill-rule="evenodd" />
    </mask>
  </defs>
  <g>
    <path d="M 16.25 37.625  C 16.25 39.28185424949238  17.59314575050762 40.625  19.25 40.625  C 20.90685424949238 40.625  22.25 39.28185424949238  22.25 37.625  C 22.25 35.96814575050762  20.90685424949238 34.625  19.25 34.625  C 17.59314575050762 34.625  16.25 35.96814575050762  16.25 37.625  Z M 54.8 24.093749999999996  C 56.4 22.487499999999997  56.4 19.874999999999996  54.79375 18.275  L 37.725 1.2000000000000002  C 36.95 0.43125000000000036  35.91875 0  34.81875 0  C 33.71875 0  32.6875 0.4249999999999998  31.9125 1.2000000000000002  L 1.2062499999999998 31.90625  C -0.39992004465966247 33.513315754940805  -0.39992004465966247 36.117934245059196  1.2062499999999998 37.725  L 18.28125 54.8  C 19.05 55.568749999999994  20.0875 56  21.1875 56  C 22.2875 56  23.31875 55.575  24.09375 54.8  L 54.8 24.093749999999996  Z M 51.00625 21.1875  L 21.1875 51.00625  L 4.99375 34.8125  L 34.81875 4.987500000000001  L 51.00625 21.1875  Z M 3.14375 16.943749999999998  L 5.5500000000000025 19.356250000000003  C 5.642665591815362 19.449377024810214  5.76862437571417 19.50173420710613  5.900000000000002 19.50173420710613  C 6.0313756242858325 19.50173420710613  6.157334408184642 19.449377024810214  6.25 19.35625  L 19.356250000000003 6.250000000000002  C 19.449377024810214 6.157334408184644  19.50173420710613 6.0313756242858325  19.50173420710613 5.900000000000002  C 19.50173420710613 5.768624375714172  19.449377024810214 5.64266559181536  19.35625 5.550000000000001  L 16.956250000000004 3.1500000000000012  C 16.86358440818465 3.056872975189793  16.737625624285833 3.0045157928938773  16.606250000000006 3.0045157928938773  C 16.474874375714172 3.0045157928938773  16.348915591815363 3.0568729751897914  16.25625 3.1500000000000004  L 3.1437500000000007 16.243750000000002  C 3.0506229751897918 16.33641559181536  2.9982657928938776 16.462374375714173  2.9982657928938776 16.59375  C 2.9982657928938776 16.72512562428583  3.0506229751897918 16.85108440818464  3.14375 16.943749999999998  Z M 52.85625 39.05  L 50.46250000000001 36.64375  C 50.36983440818465 36.55062297518979  50.24387562428585 36.498265792893875  50.11250000000001 36.498265792893875  C 49.98112437571418 36.498265792893875  49.855165591815364 36.550622975189796  49.7625 36.64375  L 36.64375 49.75625000000001  C 36.55062297518979 49.84891559181537  36.498265792893875 49.97487437571418  36.498265792893875 50.10625000000001  C 36.498265792893875 50.23762562428584  36.550622975189796 50.36358440818466  36.64375 50.456250000000004  L 39.04375 52.85625000000001  C 39.136415591815364 52.949377024810225  39.26237437571417 53.00173420710614  39.393750000000004 53.00173420710614  C 39.525125624285835 53.00173420710614  39.65108440818465 52.94937702481022  39.74375 52.85625  L 52.85625000000001 39.75000000000001  C 52.949377024810225 39.657334408184646  53.00173420710614 39.531375624285836  53.00173420710614 39.400000000000006  C 53.00173420710614 39.268624375714175  52.94937702481022 39.14266559181536  52.85625 39.05  Z " fill-rule="nonzero" fill="rgba(0, 0, 0, 1)" stroke="none" class="fill" />
    <path d="M 16.25 37.625  C 16.25 39.28185424949238  17.59314575050762 40.625  19.25 40.625  C 20.90685424949238 40.625  22.25 39.28185424949238  22.25 37.625  C 22.25 35.96814575050762  20.90685424949238 34.625  19.25 34.625  C 17.59314575050762 34.625  16.25 35.96814575050762  16.25 37.625  Z " stroke-width="0" stroke-dasharray="0" stroke="rgba(255, 255, 255, 0)" fill="none" class="stroke" mask="url(#Clip2744)" />
    <path d="M 54.8 24.093749999999996  C 56.4 22.487499999999997  56.4 19.874999999999996  54.79375 18.275  L 37.725 1.2000000000000002  C 36.95 0.43125000000000036  35.91875 0  34.81875 0  C 33.71875 0  32.6875 0.4249999999999998  31.9125 1.2000000000000002  L 1.2062499999999998 31.90625  C -0.39992004465966247 33.513315754940805  -0.39992004465966247 36.117934245059196  1.2062499999999998 37.725  L 18.28125 54.8  C 19.05 55.568749999999994  20.0875 56  21.1875 56  C 22.2875 56  23.31875 55.575  24.09375 54.8  L 54.8 24.093749999999996  Z " stroke-width="0" stroke-dasharray="0" stroke="rgba(255, 255, 255, 0)" fill="none" class="stroke" mask="url(#Clip2744)" />
    <path d="M 51.00625 21.1875  L 21.1875 51.00625  L 4.99375 34.8125  L 34.81875 4.987500000000001  L 51.00625 21.1875  Z " stroke-width="0" stroke-dasharray="0" stroke="rgba(255, 255, 255, 0)" fill="none" class="stroke" mask="url(#Clip2744)" />
    <path d="M 3.14375 16.943749999999998  L 5.5500000000000025 19.356250000000003  C 5.642665591815362 19.449377024810214  5.76862437571417 19.50173420710613  5.900000000000002 19.50173420710613  C 6.0313756242858325 19.50173420710613  6.157334408184642 19.449377024810214  6.25 19.35625  L 19.356250000000003 6.250000000000002  C 19.449377024810214 6.157334408184644  19.50173420710613 6.0313756242858325  19.50173420710613 5.900000000000002  C 19.50173420710613 5.768624375714172  19.449377024810214 5.64266559181536  19.35625 5.550000000000001  L 16.956250000000004 3.1500000000000012  C 16.86358440818465 3.056872975189793  16.737625624285833 3.0045157928938773  16.606250000000006 3.0045157928938773  C 16.474874375714172 3.0045157928938773  16.348915591815363 3.0568729751897914  16.25625 3.1500000000000004  L 3.1437500000000007 16.243750000000002  C 3.0506229751897918 16.33641559181536  2.9982657928938776 16.462374375714173  2.9982657928938776 16.59375  C 2.9982657928938776 16.72512562428583  3.0506229751897918 16.85108440818464  3.14375 16.943749999999998  Z " stroke-width="0" stroke-dasharray="0" stroke="rgba(255, 255, 255, 0)" fill="none" class="stroke" mask="url(#Clip2744)" />
    <path d="M 52.85625 39.05  L 50.46250000000001 36.64375  C 50.36983440818465 36.55062297518979  50.24387562428585 36.498265792893875  50.11250000000001 36.498265792893875  C 49.98112437571418 36.498265792893875  49.855165591815364 36.550622975189796  49.7625 36.64375  L 36.64375 49.75625000000001  C 36.55062297518979 49.84891559181537  36.498265792893875 49.97487437571418  36.498265792893875 50.10625000000001  C 36.498265792893875 50.23762562428584  36.550622975189796 50.36358440818466  36.64375 50.456250000000004  L 39.04375 52.85625000000001  C 39.136415591815364 52.949377024810225  39.26237437571417 53.00173420710614  39.393750000000004 53.00173420710614  C 39.525125624285835 53.00173420710614  39.65108440818465 52.94937702481022  39.74375 52.85625  L 52.85625000000001 39.75000000000001  C 52.949377024810225 39.657334408184646  53.00173420710614 39.531375624285836  53.00173420710614 39.400000000000006  C 53.00173420710614 39.268624375714175  52.94937702481022 39.14266559181536  52.85625 39.05  Z " stroke-width="0" stroke-dasharray="0" stroke="rgba(255, 255, 255, 0)" fill="none" class="stroke" mask="url(#Clip2744)" />
  </g>
</svg>