<?xml version="1.0" encoding="utf-8"?>
<svg version="1.1" xmlns:xlink="http://www.w3.org/1999/xlink" width="48px" height="48px" xmlns="http://www.w3.org/2000/svg">
  <defs>
    <pattern id="BGPattern" patternUnits="userSpaceOnUse" alignment="0 0" imageRepeat="None" />
    <mask fill="white" id="Clip2878">
      <path d="M 47.25 24  C 47.25 11.162500000000001  36.8375 0.75  24 0.75  C 11.162500000000001 0.75  0.75 11.162500000000001  0.75 24  C 0.75 36.8375  11.162500000000001 47.25  24 47.25  C 36.8375 47.25  47.25 36.8375  47.25 24  Z M 34.91875 31.9125  C 35.143750000000004 32.06875  35.19375 32.38125  35.03125 32.60625  L 33.24375 35.04375  C 33.149693115272186 35.17215236931234  33.00006084187347 35.24802673755916  32.84089468337951 35.24802673755916  C 32.7339027722333 35.24802673755916  32.62973952217022 35.213663734791915  32.543749999999996 35.150000000000006  L 22.20625 27.612499999999997  C 22.075562083587094 27.518650622802944  21.99864067036215 27.36713874826897  22 27.206249999999997  L 22 10  C 22 9.725000000000001  22.225 9.5  22.5 9.5  L 25.50625 9.5  C 25.78125 9.5  26.00625 9.725000000000001  26 10  L 26 25.46875  L 34.91875 31.9125  Z " fill-rule="evenodd" />
    </mask>
  </defs>
  <g transform="matrix(1 0 0 1 -4 -4 )">
    <path d="M 47.25 24  C 47.25 11.162500000000001  36.8375 0.75  24 0.75  C 11.162500000000001 0.75  0.75 11.162500000000001  0.75 24  C 0.75 36.8375  11.162500000000001 47.25  24 47.25  C 36.8375 47.25  47.25 36.8375  47.25 24  Z M 34.91875 31.9125  C 35.143750000000004 32.06875  35.19375 32.38125  35.03125 32.60625  L 33.24375 35.04375  C 33.149693115272186 35.17215236931234  33.00006084187347 35.24802673755916  32.84089468337951 35.24802673755916  C 32.7339027722333 35.24802673755916  32.62973952217022 35.213663734791915  32.543749999999996 35.150000000000006  L 22.20625 27.612499999999997  C 22.075562083587094 27.518650622802944  21.99864067036215 27.36713874826897  22 27.206249999999997  L 22 10  C 22 9.725000000000001  22.225 9.5  22.5 9.5  L 25.50625 9.5  C 25.78125 9.5  26.00625 9.725000000000001  26 10  L 26 25.46875  L 34.91875 31.9125  Z " fill-rule="nonzero" fill="rgba(230, 230, 230, 1)" stroke="none" transform="matrix(1 0 0 1 4 4 )" class="fill" />
    <path d="M 47.25 24  C 47.25 11.162500000000001  36.8375 0.75  24 0.75  C 11.162500000000001 0.75  0.75 11.162500000000001  0.75 24  C 0.75 36.8375  11.162500000000001 47.25  24 47.25  C 36.8375 47.25  47.25 36.8375  47.25 24  Z " stroke-width="0" stroke-dasharray="0" stroke="rgba(255, 255, 255, 0)" fill="none" transform="matrix(1 0 0 1 4 4 )" class="stroke" mask="url(#Clip2878)" />
    <path d="M 34.91875 31.9125  C 35.143750000000004 32.06875  35.19375 32.38125  35.03125 32.60625  L 33.24375 35.04375  C 33.149693115272186 35.17215236931234  33.00006084187347 35.24802673755916  32.84089468337951 35.24802673755916  C 32.7339027722333 35.24802673755916  32.62973952217022 35.213663734791915  32.543749999999996 35.150000000000006  L 22.20625 27.612499999999997  C 22.075562083587094 27.518650622802944  21.99864067036215 27.36713874826897  22 27.206249999999997  L 22 10  C 22 9.725000000000001  22.225 9.5  22.5 9.5  L 25.50625 9.5  C 25.78125 9.5  26.00625 9.725000000000001  26 10  L 26 25.46875  L 34.91875 31.9125  Z " stroke-width="0" stroke-dasharray="0" stroke="rgba(255, 255, 255, 0)" fill="none" transform="matrix(1 0 0 1 4 4 )" class="stroke" mask="url(#Clip2878)" />
  </g>
</svg>