<?xml version="1.0" encoding="utf-8"?>
<svg version="1.1" xmlns:xlink="http://www.w3.org/1999/xlink" width="22px" height="22px" xmlns="http://www.w3.org/2000/svg">
  <defs>
    <pattern id="BGPattern" patternUnits="userSpaceOnUse" alignment="0 0" imageRepeat="None" />
    <mask fill="white" id="Clip6025">
      <path d="M 0.5 2.75  L 0.5 19.25  C 0.5 20.492640687119284  1.5073593128807146 21.5  2.75 21.5  L 19.25 21.5  C 20.492640687119284 21.5  21.5 20.492640687119284  21.5 19.25  L 21.5 10.25  C 21.5 9.835786437626904  21.164213562373096 9.5  20.75 9.5  C 20.335786437626904 9.5  20 9.835786437626904  20 10.25  L 20 19.25  C 20 19.664213562373096  19.664213562373096 20  19.25 20  L 2.75 20  C 2.335786437626905 20  2 19.664213562373096  2 19.25  L 2 2.75  C 2 2.335786437626905  2.335786437626905 2  2.75 2  L 12.500000000000002 2  C 12.914213562373094 2  13.25 1.664213562373095  13.25 1.25  C 13.25 0.8357864376269052  12.914213562373094 0.5  12.500000000000002 0.5  L 2.75 0.5  C 1.5073593128807146 0.5  0.5 1.5073593128807146  0.5 2.75  Z " fill-rule="evenodd" />
    </mask>
  </defs>
  <g transform="matrix(1 0 0 1 0 -1 )">
    <path d="M 0.5 2.75  L 0.5 19.25  C 0.5 20.492640687119284  1.5073593128807146 21.5  2.75 21.5  L 19.25 21.5  C 20.492640687119284 21.5  21.5 20.492640687119284  21.5 19.25  L 21.5 10.25  C 21.5 9.835786437626904  21.164213562373096 9.5  20.75 9.5  C 20.335786437626904 9.5  20 9.835786437626904  20 10.25  L 20 19.25  C 20 19.664213562373096  19.664213562373096 20  19.25 20  L 2.75 20  C 2.335786437626905 20  2 19.664213562373096  2 19.25  L 2 2.75  C 2 2.335786437626905  2.335786437626905 2  2.75 2  L 12.500000000000002 2  C 12.914213562373094 2  13.25 1.664213562373095  13.25 1.25  C 13.25 0.8357864376269052  12.914213562373094 0.5  12.500000000000002 0.5  L 2.75 0.5  C 1.5073593128807146 0.5  0.5 1.5073593128807146  0.5 2.75  Z " fill-rule="nonzero" fill="rgba(0, 0, 0, 1)" stroke="none" transform="matrix(1 0 0 1 0 1 )" class="fill" />
    <path d="M 0.5 2.75  L 0.5 19.25  C 0.5 20.492640687119284  1.5073593128807146 21.5  2.75 21.5  L 19.25 21.5  C 20.492640687119284 21.5  21.5 20.492640687119284  21.5 19.25  L 21.5 10.25  C 21.5 9.835786437626904  21.164213562373096 9.5  20.75 9.5  C 20.335786437626904 9.5  20 9.835786437626904  20 10.25  L 20 19.25  C 20 19.664213562373096  19.664213562373096 20  19.25 20  L 2.75 20  C 2.335786437626905 20  2 19.664213562373096  2 19.25  L 2 2.75  C 2 2.335786437626905  2.335786437626905 2  2.75 2  L 12.500000000000002 2  C 12.914213562373094 2  13.25 1.664213562373095  13.25 1.25  C 13.25 0.8357864376269052  12.914213562373094 0.5  12.500000000000002 0.5  L 2.75 0.5  C 1.5073593128807146 0.5  0.5 1.5073593128807146  0.5 2.75  Z " stroke-width="0" stroke-dasharray="0" stroke="rgba(255, 255, 255, 0)" fill="none" transform="matrix(1 0 0 1 0 1 )" class="stroke" mask="url(#Clip6025)" />
  </g>
</svg>