<?xml version="1.0" encoding="utf-8"?>
<svg version="1.1" xmlns:xlink="http://www.w3.org/1999/xlink" width="14px" height="14px" xmlns="http://www.w3.org/2000/svg">
  <defs>
    <pattern id="BGPattern" patternUnits="userSpaceOnUse" alignment="0 0" imageRepeat="None" />
    <mask fill="white" id="Clip3252">
      <path d="M 14 7  C 14 3.0999999999999996  10.9 0  7 0  C 3.0999999999999996 0  0 3.0999999999999996  0 7  C 0 10.9  3.0999999999999996 14  7 14  C 10.9 14  14 10.9  14 7  Z M 7.800000000000001 10.8  C 7.800000000000001 11.3  7.4 11.5  7 11.5  C 6.6 11.5  6.2 11.2  6.2 10.7  C 6.2 10.2  6.6 10  7 10  C 7.4 10  7.800000000000001 10.3  7.800000000000001 10.8  Z M 7.6 7.6  L 7.6 8.799999999999999  L 6.4 8.799999999999999  L 6.4 6.5  L 7.5 6.5  C 8.2 6.5  8.7 5.9  8.6 5.2  C 8.6 4.6000000000000005  8.1 4.1  7.5 4.1  L 6.8 4.1  C 6.1 4.1  5.6 4.6  5.6 5.3  L 5.6 5.6  L 4.4 5.6  L 4.4 5.3  C 4.4 4  5.5 3  6.8 3  L 7.5 3  C 8.8 3  9.8 4.1  9.7 5.4  C 9.7 6.6  8.8 7.6  7.6 7.6  Z " fill-rule="evenodd" />
    </mask>
  </defs>
  <g transform="matrix(1 0 0 1 -1 -1 )">
    <path d="M 14 7  C 14 3.0999999999999996  10.9 0  7 0  C 3.0999999999999996 0  0 3.0999999999999996  0 7  C 0 10.9  3.0999999999999996 14  7 14  C 10.9 14  14 10.9  14 7  Z M 7.800000000000001 10.8  C 7.800000000000001 11.3  7.4 11.5  7 11.5  C 6.6 11.5  6.2 11.2  6.2 10.7  C 6.2 10.2  6.6 10  7 10  C 7.4 10  7.800000000000001 10.3  7.800000000000001 10.8  Z M 7.6 7.6  L 7.6 8.799999999999999  L 6.4 8.799999999999999  L 6.4 6.5  L 7.5 6.5  C 8.2 6.5  8.7 5.9  8.6 5.2  C 8.6 4.6000000000000005  8.1 4.1  7.5 4.1  L 6.8 4.1  C 6.1 4.1  5.6 4.6  5.6 5.3  L 5.6 5.6  L 4.4 5.6  L 4.4 5.3  C 4.4 4  5.5 3  6.8 3  L 7.5 3  C 8.8 3  9.8 4.1  9.7 5.4  C 9.7 6.6  8.8 7.6  7.6 7.6  Z " fill-rule="nonzero" fill="rgba(0, 0, 0, 1)" stroke="none" transform="matrix(1 0 0 1 1 1 )" class="fill" />
    <path d="M 14 7  C 14 3.0999999999999996  10.9 0  7 0  C 3.0999999999999996 0  0 3.0999999999999996  0 7  C 0 10.9  3.0999999999999996 14  7 14  C 10.9 14  14 10.9  14 7  Z " stroke-width="0" stroke-dasharray="0" stroke="rgba(255, 255, 255, 0)" fill="none" transform="matrix(1 0 0 1 1 1 )" class="stroke" mask="url(#Clip3252)" />
    <path d="M 7.800000000000001 10.8  C 7.800000000000001 11.3  7.4 11.5  7 11.5  C 6.6 11.5  6.2 11.2  6.2 10.7  C 6.2 10.2  6.6 10  7 10  C 7.4 10  7.800000000000001 10.3  7.800000000000001 10.8  Z " stroke-width="0" stroke-dasharray="0" stroke="rgba(255, 255, 255, 0)" fill="none" transform="matrix(1 0 0 1 1 1 )" class="stroke" mask="url(#Clip3252)" />
    <path d="M 7.6 7.6  L 7.6 8.799999999999999  L 6.4 8.799999999999999  L 6.4 6.5  L 7.5 6.5  C 8.2 6.5  8.7 5.9  8.6 5.2  C 8.6 4.6000000000000005  8.1 4.1  7.5 4.1  L 6.8 4.1  C 6.1 4.1  5.6 4.6  5.6 5.3  L 5.6 5.6  L 4.4 5.6  L 4.4 5.3  C 4.4 4  5.5 3  6.8 3  L 7.5 3  C 8.8 3  9.8 4.1  9.7 5.4  C 9.7 6.6  8.8 7.6  7.6 7.6  Z " stroke-width="0" stroke-dasharray="0" stroke="rgba(255, 255, 255, 0)" fill="none" transform="matrix(1 0 0 1 1 1 )" class="stroke" mask="url(#Clip3252)" />
  </g>
</svg>