<?xml version="1.0" encoding="utf-8"?>
<svg version="1.1" xmlns:xlink="http://www.w3.org/1999/xlink" width="24px" height="24px" xmlns="http://www.w3.org/2000/svg">
  <defs>
    <pattern id="BGPattern" patternUnits="userSpaceOnUse" alignment="0 0" imageRepeat="None" />
    <mask fill="white" id="Clip542">
      <path d="M 23.744 22.016000000000002  C 24.128 23.200000000000003  23.184 24.144  22 23.76  L 17.328 22.240000000000002  C 17.04 22.144000000000002  16.768 22.144000000000002  16.48 22.272000000000002  C 15.104 22.864  13.600000000000001 23.200000000000003  12 23.200000000000003  C 5.808 23.200000000000003  0.8000000000000007 18.192000000000004  0.8000000000000007 12.000000000000004  C 0.8000000000000007 5.808000000000003  5.808 0.8000000000000043  12 0.8000000000000043  C 18.192 0.8000000000000043  23.2 5.808000000000003  23.2 12.000000000000004  C 23.2 13.600000000000005  22.864 15.120000000000005  22.256 16.496000000000002  C 22.144000000000002 16.784000000000002  22.128 17.056  22.224 17.344  L 23.744 22.016000000000002  Z M 7.200000000000001 10  C 7.200000000000001 10.751999999999999  7.7280000000000015 11.2  8.608 11.2  L 15.408000000000001 11.2  C 16.288 11.2  16.8 10.751999999999999  16.8 10  C 16.8 9.248000000000001  16.288 8.8  15.408000000000001 8.8  L 8.608 8.8  C 7.728 8.8  7.200000000000001 9.248000000000001  7.200000000000001 10  Z M 7.200000000000001 14.8  C 7.200000000000001 15.552  7.7280000000000015 16  8.608 16  L 13.808 16  C 14.687999999999999 16  15.2 15.552  15.2 14.8  C 15.2 14.048000000000002  14.687999999999999 13.600000000000001  13.808 13.600000000000001  L 8.608 13.600000000000001  C 7.728 13.600000000000001  7.200000000000001 14.048000000000002  7.200000000000001 14.8  Z " fill-rule="evenodd" />
    </mask>
  </defs>
  <g>
    <path d="M 23.744 22.016000000000002  C 24.128 23.200000000000003  23.184 24.144  22 23.76  L 17.328 22.240000000000002  C 17.04 22.144000000000002  16.768 22.144000000000002  16.48 22.272000000000002  C 15.104 22.864  13.600000000000001 23.200000000000003  12 23.200000000000003  C 5.808 23.200000000000003  0.8000000000000007 18.192000000000004  0.8000000000000007 12.000000000000004  C 0.8000000000000007 5.808000000000003  5.808 0.8000000000000043  12 0.8000000000000043  C 18.192 0.8000000000000043  23.2 5.808000000000003  23.2 12.000000000000004  C 23.2 13.600000000000005  22.864 15.120000000000005  22.256 16.496000000000002  C 22.144000000000002 16.784000000000002  22.128 17.056  22.224 17.344  L 23.744 22.016000000000002  Z M 7.200000000000001 10  C 7.200000000000001 10.751999999999999  7.7280000000000015 11.2  8.608 11.2  L 15.408000000000001 11.2  C 16.288 11.2  16.8 10.751999999999999  16.8 10  C 16.8 9.248000000000001  16.288 8.8  15.408000000000001 8.8  L 8.608 8.8  C 7.728 8.8  7.200000000000001 9.248000000000001  7.200000000000001 10  Z M 7.200000000000001 14.8  C 7.200000000000001 15.552  7.7280000000000015 16  8.608 16  L 13.808 16  C 14.687999999999999 16  15.2 15.552  15.2 14.8  C 15.2 14.048000000000002  14.687999999999999 13.600000000000001  13.808 13.600000000000001  L 8.608 13.600000000000001  C 7.728 13.600000000000001  7.200000000000001 14.048000000000002  7.200000000000001 14.8  Z " fill-rule="nonzero" fill="rgba(0, 0, 0, 1)" stroke="none" class="fill" />
    <path d="M 23.744 22.016000000000002  C 24.128 23.200000000000003  23.184 24.144  22 23.76  L 17.328 22.240000000000002  C 17.04 22.144000000000002  16.768 22.144000000000002  16.48 22.272000000000002  C 15.104 22.864  13.600000000000001 23.200000000000003  12 23.200000000000003  C 5.808 23.200000000000003  0.8000000000000007 18.192000000000004  0.8000000000000007 12.000000000000004  C 0.8000000000000007 5.808000000000003  5.808 0.8000000000000043  12 0.8000000000000043  C 18.192 0.8000000000000043  23.2 5.808000000000003  23.2 12.000000000000004  C 23.2 13.600000000000005  22.864 15.120000000000005  22.256 16.496000000000002  C 22.144000000000002 16.784000000000002  22.128 17.056  22.224 17.344  L 23.744 22.016000000000002  Z " stroke-width="0" stroke-dasharray="0" stroke="rgba(255, 255, 255, 0)" fill="none" class="stroke" mask="url(#Clip542)" />
    <path d="M 7.200000000000001 10  C 7.200000000000001 10.751999999999999  7.7280000000000015 11.2  8.608 11.2  L 15.408000000000001 11.2  C 16.288 11.2  16.8 10.751999999999999  16.8 10  C 16.8 9.248000000000001  16.288 8.8  15.408000000000001 8.8  L 8.608 8.8  C 7.728 8.8  7.200000000000001 9.248000000000001  7.200000000000001 10  Z " stroke-width="0" stroke-dasharray="0" stroke="rgba(255, 255, 255, 0)" fill="none" class="stroke" mask="url(#Clip542)" />
    <path d="M 7.200000000000001 14.8  C 7.200000000000001 15.552  7.7280000000000015 16  8.608 16  L 13.808 16  C 14.687999999999999 16  15.2 15.552  15.2 14.8  C 15.2 14.048000000000002  14.687999999999999 13.600000000000001  13.808 13.600000000000001  L 8.608 13.600000000000001  C 7.728 13.600000000000001  7.200000000000001 14.048000000000002  7.200000000000001 14.8  Z " stroke-width="0" stroke-dasharray="0" stroke="rgba(255, 255, 255, 0)" fill="none" class="stroke" mask="url(#Clip542)" />
  </g>
</svg>