<?xml version="1.0" encoding="utf-8"?>
<svg version="1.1" xmlns:xlink="http://www.w3.org/1999/xlink" width="50px" height="50px" xmlns="http://www.w3.org/2000/svg">
  <defs>
    <pattern id="BGPattern" patternUnits="userSpaceOnUse" alignment="0 0" imageRepeat="None" />
    <mask fill="white" id="Clip2302">
      <path d="M 33.33125 25  C 33.33125 20.4125  29.5875 16.66875  25 16.66875  C 20.4125 16.66875  16.66875 20.412499999999998  16.66875 25  C 16.66875 29.587500000000006  20.4125 33.33125  25 33.33125  C 29.5875 33.33125  33.33125 29.5875  33.33125 25  Z M 49.825 35.3125  C 50.025000000000006 31.868750000000002  49.987500000000004 28.450000000000003  49.9875 25  C 49.9875 21.55  50.01875 18.13125  49.824999999999996 14.6875  C 49.631249999999994 10.6875  48.71874999999999 7.137499999999999  45.793749999999996 4.2125  C 42.8625 1.28125  39.318749999999994 0.375  35.318749999999994 0.18125000000000036  C 31.86874999999999 -0.01249999999999929  28.449999999999996 0.01875000000000071  25.006249999999998 0.01875000000000071  C 21.556249999999995 0.01875000000000071  18.137499999999996 -0.01249999999999929  14.693749999999994 0.18125000000000036  C 10.693749999999994 0.375  7.143749999999994 1.2874999999999996  4.218749999999995 4.2125  C 1.2874999999999996 7.14375  0.38124999999999964 10.6875  0.1875 14.6875  C -0.006249999999999645 18.1375  0.025000000000000352 21.55625  0.025000000000000352 25  C 0.025000000000000352 28.44375  -0.006249999999999645 31.868750000000002  0.1875 35.3125  C 0.38124999999999964 39.3125  1.2937499999999993 42.8625  4.21875 45.7875  C 7.15 48.71875  10.693750000000001 49.625  14.693750000000003 49.81875  C 18.14375 50.0125  21.5625 49.98125  25.00625 49.98125  C 28.456250000000004 49.98125  31.874999999999996 50.0125  35.31875 49.81875  C 39.31875 49.625  42.86875 48.7125  45.79375 45.7875  C 48.725 42.85625  49.63125 39.3125  49.825 35.3125  Z M 37.81875 25  C 37.81875 32.09375  32.09375 37.81875  25 37.81875  C 17.90625 37.81875  12.181249999999999 32.09375  12.181249999999999 25  C 12.181249999999999 17.90625  17.90625 12.181249999999999  25 12.181249999999999  C 32.09375 12.181249999999999  37.81875 17.90625  37.81875 25  Z M 38.34750235454351 14.65000235454351  C 38.34625156932598 14.65000235454351  38.34500078423257 14.65000156969552  38.34375 14.650000000000002  C 36.6875 14.650000000000002  35.35 13.312500000000005  35.35 11.656250000000004  C 35.35 10.000000000000004  36.6875 8.662500000000003  38.34375 8.662500000000003  C 40 8.662500000000003  41.3375 10.000000000000004  41.337500000000006 11.656250000000004  C 41.33750156969552 11.657500784233985  41.3375023545435 11.658751569324572  41.3375023545435 11.660002354543511  C 41.3375023545435 13.31133375653758  39.99883375653758 14.65000235454351  38.34750235454351 14.65000235454351  Z " fill-rule="evenodd" />
    </mask>
  </defs>
  <g>
    <path d="M 33.33125 25  C 33.33125 20.4125  29.5875 16.66875  25 16.66875  C 20.4125 16.66875  16.66875 20.412499999999998  16.66875 25  C 16.66875 29.587500000000006  20.4125 33.33125  25 33.33125  C 29.5875 33.33125  33.33125 29.5875  33.33125 25  Z M 49.825 35.3125  C 50.025000000000006 31.868750000000002  49.987500000000004 28.450000000000003  49.9875 25  C 49.9875 21.55  50.01875 18.13125  49.824999999999996 14.6875  C 49.631249999999994 10.6875  48.71874999999999 7.137499999999999  45.793749999999996 4.2125  C 42.8625 1.28125  39.318749999999994 0.375  35.318749999999994 0.18125000000000036  C 31.86874999999999 -0.01249999999999929  28.449999999999996 0.01875000000000071  25.006249999999998 0.01875000000000071  C 21.556249999999995 0.01875000000000071  18.137499999999996 -0.01249999999999929  14.693749999999994 0.18125000000000036  C 10.693749999999994 0.375  7.143749999999994 1.2874999999999996  4.218749999999995 4.2125  C 1.2874999999999996 7.14375  0.38124999999999964 10.6875  0.1875 14.6875  C -0.006249999999999645 18.1375  0.025000000000000352 21.55625  0.025000000000000352 25  C 0.025000000000000352 28.44375  -0.006249999999999645 31.868750000000002  0.1875 35.3125  C 0.38124999999999964 39.3125  1.2937499999999993 42.8625  4.21875 45.7875  C 7.15 48.71875  10.693750000000001 49.625  14.693750000000003 49.81875  C 18.14375 50.0125  21.5625 49.98125  25.00625 49.98125  C 28.456250000000004 49.98125  31.874999999999996 50.0125  35.31875 49.81875  C 39.31875 49.625  42.86875 48.7125  45.79375 45.7875  C 48.725 42.85625  49.63125 39.3125  49.825 35.3125  Z M 37.81875 25  C 37.81875 32.09375  32.09375 37.81875  25 37.81875  C 17.90625 37.81875  12.181249999999999 32.09375  12.181249999999999 25  C 12.181249999999999 17.90625  17.90625 12.181249999999999  25 12.181249999999999  C 32.09375 12.181249999999999  37.81875 17.90625  37.81875 25  Z M 38.34750235454351 14.65000235454351  C 38.34625156932598 14.65000235454351  38.34500078423257 14.65000156969552  38.34375 14.650000000000002  C 36.6875 14.650000000000002  35.35 13.312500000000005  35.35 11.656250000000004  C 35.35 10.000000000000004  36.6875 8.662500000000003  38.34375 8.662500000000003  C 40 8.662500000000003  41.3375 10.000000000000004  41.337500000000006 11.656250000000004  C 41.33750156969552 11.657500784233985  41.3375023545435 11.658751569324572  41.3375023545435 11.660002354543511  C 41.3375023545435 13.31133375653758  39.99883375653758 14.65000235454351  38.34750235454351 14.65000235454351  Z " fill-rule="nonzero" fill="rgba(0, 0, 0, 1)" stroke="none" class="fill" />
    <path d="M 33.33125 25  C 33.33125 20.4125  29.5875 16.66875  25 16.66875  C 20.4125 16.66875  16.66875 20.412499999999998  16.66875 25  C 16.66875 29.587500000000006  20.4125 33.33125  25 33.33125  C 29.5875 33.33125  33.33125 29.5875  33.33125 25  Z " stroke-width="0" stroke-dasharray="0" stroke="rgba(255, 255, 255, 0)" fill="none" class="stroke" mask="url(#Clip2302)" />
    <path d="M 49.825 35.3125  C 50.025000000000006 31.868750000000002  49.987500000000004 28.450000000000003  49.9875 25  C 49.9875 21.55  50.01875 18.13125  49.824999999999996 14.6875  C 49.631249999999994 10.6875  48.71874999999999 7.137499999999999  45.793749999999996 4.2125  C 42.8625 1.28125  39.318749999999994 0.375  35.318749999999994 0.18125000000000036  C 31.86874999999999 -0.01249999999999929  28.449999999999996 0.01875000000000071  25.006249999999998 0.01875000000000071  C 21.556249999999995 0.01875000000000071  18.137499999999996 -0.01249999999999929  14.693749999999994 0.18125000000000036  C 10.693749999999994 0.375  7.143749999999994 1.2874999999999996  4.218749999999995 4.2125  C 1.2874999999999996 7.14375  0.38124999999999964 10.6875  0.1875 14.6875  C -0.006249999999999645 18.1375  0.025000000000000352 21.55625  0.025000000000000352 25  C 0.025000000000000352 28.44375  -0.006249999999999645 31.868750000000002  0.1875 35.3125  C 0.38124999999999964 39.3125  1.2937499999999993 42.8625  4.21875 45.7875  C 7.15 48.71875  10.693750000000001 49.625  14.693750000000003 49.81875  C 18.14375 50.0125  21.5625 49.98125  25.00625 49.98125  C 28.456250000000004 49.98125  31.874999999999996 50.0125  35.31875 49.81875  C 39.31875 49.625  42.86875 48.7125  45.79375 45.7875  C 48.725 42.85625  49.63125 39.3125  49.825 35.3125  Z " stroke-width="0" stroke-dasharray="0" stroke="rgba(255, 255, 255, 0)" fill="none" class="stroke" mask="url(#Clip2302)" />
    <path d="M 37.81875 25  C 37.81875 32.09375  32.09375 37.81875  25 37.81875  C 17.90625 37.81875  12.181249999999999 32.09375  12.181249999999999 25  C 12.181249999999999 17.90625  17.90625 12.181249999999999  25 12.181249999999999  C 32.09375 12.181249999999999  37.81875 17.90625  37.81875 25  Z " stroke-width="0" stroke-dasharray="0" stroke="rgba(255, 255, 255, 0)" fill="none" class="stroke" mask="url(#Clip2302)" />
    <path d="M 38.34750235454351 14.65000235454351  C 38.34625156932598 14.65000235454351  38.34500078423257 14.65000156969552  38.34375 14.650000000000002  C 36.6875 14.650000000000002  35.35 13.312500000000005  35.35 11.656250000000004  C 35.35 10.000000000000004  36.6875 8.662500000000003  38.34375 8.662500000000003  C 40 8.662500000000003  41.3375 10.000000000000004  41.337500000000006 11.656250000000004  C 41.33750156969552 11.657500784233985  41.3375023545435 11.658751569324572  41.3375023545435 11.660002354543511  C 41.3375023545435 13.31133375653758  39.99883375653758 14.65000235454351  38.34750235454351 14.65000235454351  Z " stroke-width="0" stroke-dasharray="0" stroke="rgba(255, 255, 255, 0)" fill="none" class="stroke" mask="url(#Clip2302)" />
  </g>
</svg>