<?xml version="1.0" encoding="utf-8"?>
<svg version="1.1" xmlns:xlink="http://www.w3.org/1999/xlink" width="10px" height="10px" xmlns="http://www.w3.org/2000/svg">
  <defs>
    <pattern id="BGPattern" patternUnits="userSpaceOnUse" alignment="0 0" imageRepeat="None" />
    <mask fill="white" id="Clip4459">
      <path d="M 5 0  L 6.4140000000000015 1.4139999999999997  L 3.8279999999999994 4  L 10 4  L 10 6  L 3.8279999999999994 6  L 6.4140000000000015 8.585999999999999  L 5 10  L 0 5  L 5 0  Z " fill-rule="evenodd" />
    </mask>
  </defs>
  <g transform="matrix(1 0 0 1 -20 -11 )">
    <path d="M 5 0  L 6.4140000000000015 1.4139999999999997  L 3.8279999999999994 4  L 10 4  L 10 6  L 3.8279999999999994 6  L 6.4140000000000015 8.585999999999999  L 5 10  L 0 5  L 5 0  Z " fill-rule="nonzero" fill="rgba(0, 0, 0, 1)" stroke="none" transform="matrix(1 0 0 1 20 11 )" class="fill" />
    <path d="M 5 0  L 6.4140000000000015 1.4139999999999997  L 3.8279999999999994 4  L 10 4  L 10 6  L 3.8279999999999994 6  L 6.4140000000000015 8.585999999999999  L 5 10  L 0 5  L 5 0  Z " stroke-width="0" stroke-dasharray="0" stroke="rgba(255, 255, 255, 0)" fill="none" transform="matrix(1 0 0 1 20 11 )" class="stroke" mask="url(#Clip4459)" />
  </g>
</svg>