<?xml version="1.0" encoding="utf-8"?>
<svg version="1.1" xmlns:xlink="http://www.w3.org/1999/xlink" width="14px" height="10px" xmlns="http://www.w3.org/2000/svg">
  <defs>
    <pattern id="BGPattern" patternUnits="userSpaceOnUse" alignment="0 0" imageRepeat="None" />
    <mask fill="white" id="Clip3191">
      <path d="M 9 0  L 8.3 0.7000000000000002  L 12.100000000000001 4.5  L 0 4.5  L 0 5.5  L 12.100000000000001 5.5  L 8.3 9.3  L 9 10  L 14 5  L 9 0  Z " fill-rule="evenodd" />
    </mask>
  </defs>
  <g transform="matrix(1 0 0 1 -1 -3 )">
    <path d="M 9 0  L 8.3 0.7000000000000002  L 12.100000000000001 4.5  L 0 4.5  L 0 5.5  L 12.100000000000001 5.5  L 8.3 9.3  L 9 10  L 14 5  L 9 0  Z " fill-rule="nonzero" fill="rgba(0, 0, 0, 1)" stroke="none" transform="matrix(1 0 0 1 1 3 )" class="fill" />
    <path d="M 9 0  L 8.3 0.7000000000000002  L 12.100000000000001 4.5  L 0 4.5  L 0 5.5  L 12.100000000000001 5.5  L 8.3 9.3  L 9 10  L 14 5  L 9 0  Z " stroke-width="0" stroke-dasharray="0" stroke="rgba(255, 255, 255, 0)" fill="none" transform="matrix(1 0 0 1 1 3 )" class="stroke" mask="url(#Clip3191)" />
  </g>
</svg>