<?xml version="1.0" encoding="utf-8"?>
<svg version="1.1" xmlns:xlink="http://www.w3.org/1999/xlink" width="50px" height="50px" xmlns="http://www.w3.org/2000/svg">
  <defs>
    <pattern id="BGPattern" patternUnits="userSpaceOnUse" alignment="0 0" imageRepeat="None" />
    <mask fill="white" id="Clip940">
      <path d="M 49.98991935483872 25  C 50 11.189516129032256  38.810483870967744 0  25 0  C 11.189516129032256 0  0 11.189516129032256  0 25  C 0 38.810483870967744  11.189516129032256 50  25 50  C 26.875 50  28.699596774193537 49.788306451612925  30.45362903225805 49.4052419354839  C 29.889112903225794 48.65927419354841  29.36491935483872 47.95362903225805  28.850806451612925 47.258064516129025  C 27.600806451612925 47.46975806451616  26.310483870967744 47.59072580645159  24.98991935483872 47.59072580645159  C 12.530241935483872 47.580645161290306  2.4193548387096655 37.4697580645161  2.4193548387096655 25  C 2.4193548387096655 12.530241935483899  12.530241935483872 2.419354838709694  25 2.419354838709694  C 37.4697580645161 2.419354838709694  47.580645161290306 12.530241935483899  47.580645161290306 25  C 47.580645161290306 32.1572580645161  44.25403225806451 38.52822580645159  39.0625 42.67137096774195  C 36.451612903225794 44.56653225806451  35.12096774193549 44.82862903225805  30.645161290322566 38.21572580645159  C 22.711693548387075 26.83467741935482  25.80645161290323 31.048387096774206  23.215725806451587 27.298387096774206  C 30.55443548387097 28.195564516129025  46.25 20.04032258064518  40.211693548387075 10.302419354838719  C 31.653225806451584 -3.5080645161290254  1.5120967741935374 8.649193548387075  6.0181451612903345 22.01612903225805  C 6.340725806451615 23.004032258064512  7.469758064516128 25.90725806451616  10.614919354838719 25.90725806451616  C 10.816532258064512 25.90725806451616  10.877016129032256 25.84677419354841  10.816532258064512 25.735887096774206  C 10.372983870967744 24.85887096774195  8.790322580645153 24.747983870967744  8.790322580645153 21.965725806451587  C 8.790322580645153 17.883064516129025  12.872983870967744 12.933467741935486  18.90120967741936 9.868951612903231  C 25.564516129032256 6.612903225806463  32.19758064516128 6.824596774193538  34.84879032258061 10.413306451612925  C 37.59072580645159 14.274193548387073  32.741935483870975 22.429435483870975  22.711693548387075 24.21370967741933  C 23.467741935483843 23.26612903225805  28.457661290322562 16.633064516129025  29.04233870967744 15.745967741935488  C 31.330645161290306 12.258064516129025  31.42137096774195 10.806451612903231  30.45362903225805 9.778225806451587  C 28.89112903225805 8.074596774193537  27.47983870967744 8.739919354838719  25.342741935483897 8.598790322580669  C 24.254032258064512 8.508064516129025  13.88104838709677 26.86491935483872  11.592741935483872 30.463709677419388  C 10.997983870967744 31.370967741935484  9.455645161290306 33.90120967741939  9.455645161290306 35.5947580645161  C 9.455645161290306 37.741935483870975  9.737903225806463 40.77620967741939  11.532258064516128 40.77620967741939  C 12.600806451612897 40.77620967741939  12.33870967741936 38.89112903225805  12.33870967741936 38.0947580645161  C 12.33870967741936 36.794354838709694  15.100806451612897 33.11491935483872  19.879032258064512 27.550403225806463  C 21.935483870967744 31.189516129032256  25.69556451612903 39.07258064516128  33.00403225806451 48.689516129032256  C 42.883064516129025 45.352822580645125  49.98991935483872 36.008064516129025  49.98991935483872 25  Z " fill-rule="evenodd" />
    </mask>
  </defs>
  <g>
    <path d="M 49.98991935483872 25  C 50 11.189516129032256  38.810483870967744 0  25 0  C 11.189516129032256 0  0 11.189516129032256  0 25  C 0 38.810483870967744  11.189516129032256 50  25 50  C 26.875 50  28.699596774193537 49.788306451612925  30.45362903225805 49.4052419354839  C 29.889112903225794 48.65927419354841  29.36491935483872 47.95362903225805  28.850806451612925 47.258064516129025  C 27.600806451612925 47.46975806451616  26.310483870967744 47.59072580645159  24.98991935483872 47.59072580645159  C 12.530241935483872 47.580645161290306  2.4193548387096655 37.4697580645161  2.4193548387096655 25  C 2.4193548387096655 12.530241935483899  12.530241935483872 2.419354838709694  25 2.419354838709694  C 37.4697580645161 2.419354838709694  47.580645161290306 12.530241935483899  47.580645161290306 25  C 47.580645161290306 32.1572580645161  44.25403225806451 38.52822580645159  39.0625 42.67137096774195  C 36.451612903225794 44.56653225806451  35.12096774193549 44.82862903225805  30.645161290322566 38.21572580645159  C 22.711693548387075 26.83467741935482  25.80645161290323 31.048387096774206  23.215725806451587 27.298387096774206  C 30.55443548387097 28.195564516129025  46.25 20.04032258064518  40.211693548387075 10.302419354838719  C 31.653225806451584 -3.5080645161290254  1.5120967741935374 8.649193548387075  6.0181451612903345 22.01612903225805  C 6.340725806451615 23.004032258064512  7.469758064516128 25.90725806451616  10.614919354838719 25.90725806451616  C 10.816532258064512 25.90725806451616  10.877016129032256 25.84677419354841  10.816532258064512 25.735887096774206  C 10.372983870967744 24.85887096774195  8.790322580645153 24.747983870967744  8.790322580645153 21.965725806451587  C 8.790322580645153 17.883064516129025  12.872983870967744 12.933467741935486  18.90120967741936 9.868951612903231  C 25.564516129032256 6.612903225806463  32.19758064516128 6.824596774193538  34.84879032258061 10.413306451612925  C 37.59072580645159 14.274193548387073  32.741935483870975 22.429435483870975  22.711693548387075 24.21370967741933  C 23.467741935483843 23.26612903225805  28.457661290322562 16.633064516129025  29.04233870967744 15.745967741935488  C 31.330645161290306 12.258064516129025  31.42137096774195 10.806451612903231  30.45362903225805 9.778225806451587  C 28.89112903225805 8.074596774193537  27.47983870967744 8.739919354838719  25.342741935483897 8.598790322580669  C 24.254032258064512 8.508064516129025  13.88104838709677 26.86491935483872  11.592741935483872 30.463709677419388  C 10.997983870967744 31.370967741935484  9.455645161290306 33.90120967741939  9.455645161290306 35.5947580645161  C 9.455645161290306 37.741935483870975  9.737903225806463 40.77620967741939  11.532258064516128 40.77620967741939  C 12.600806451612897 40.77620967741939  12.33870967741936 38.89112903225805  12.33870967741936 38.0947580645161  C 12.33870967741936 36.794354838709694  15.100806451612897 33.11491935483872  19.879032258064512 27.550403225806463  C 21.935483870967744 31.189516129032256  25.69556451612903 39.07258064516128  33.00403225806451 48.689516129032256  C 42.883064516129025 45.352822580645125  49.98991935483872 36.008064516129025  49.98991935483872 25  Z " fill-rule="nonzero" fill="rgba(0, 0, 0, 1)" stroke="none" class="fill" />
    <path d="M 49.98991935483872 25  C 50 11.189516129032256  38.810483870967744 0  25 0  C 11.189516129032256 0  0 11.189516129032256  0 25  C 0 38.810483870967744  11.189516129032256 50  25 50  C 26.875 50  28.699596774193537 49.788306451612925  30.45362903225805 49.4052419354839  C 29.889112903225794 48.65927419354841  29.36491935483872 47.95362903225805  28.850806451612925 47.258064516129025  C 27.600806451612925 47.46975806451616  26.310483870967744 47.59072580645159  24.98991935483872 47.59072580645159  C 12.530241935483872 47.580645161290306  2.4193548387096655 37.4697580645161  2.4193548387096655 25  C 2.4193548387096655 12.530241935483899  12.530241935483872 2.419354838709694  25 2.419354838709694  C 37.4697580645161 2.419354838709694  47.580645161290306 12.530241935483899  47.580645161290306 25  C 47.580645161290306 32.1572580645161  44.25403225806451 38.52822580645159  39.0625 42.67137096774195  C 36.451612903225794 44.56653225806451  35.12096774193549 44.82862903225805  30.645161290322566 38.21572580645159  C 22.711693548387075 26.83467741935482  25.80645161290323 31.048387096774206  23.215725806451587 27.298387096774206  C 30.55443548387097 28.195564516129025  46.25 20.04032258064518  40.211693548387075 10.302419354838719  C 31.653225806451584 -3.5080645161290254  1.5120967741935374 8.649193548387075  6.0181451612903345 22.01612903225805  C 6.340725806451615 23.004032258064512  7.469758064516128 25.90725806451616  10.614919354838719 25.90725806451616  C 10.816532258064512 25.90725806451616  10.877016129032256 25.84677419354841  10.816532258064512 25.735887096774206  C 10.372983870967744 24.85887096774195  8.790322580645153 24.747983870967744  8.790322580645153 21.965725806451587  C 8.790322580645153 17.883064516129025  12.872983870967744 12.933467741935486  18.90120967741936 9.868951612903231  C 25.564516129032256 6.612903225806463  32.19758064516128 6.824596774193538  34.84879032258061 10.413306451612925  C 37.59072580645159 14.274193548387073  32.741935483870975 22.429435483870975  22.711693548387075 24.21370967741933  C 23.467741935483843 23.26612903225805  28.457661290322562 16.633064516129025  29.04233870967744 15.745967741935488  C 31.330645161290306 12.258064516129025  31.42137096774195 10.806451612903231  30.45362903225805 9.778225806451587  C 28.89112903225805 8.074596774193537  27.47983870967744 8.739919354838719  25.342741935483897 8.598790322580669  C 24.254032258064512 8.508064516129025  13.88104838709677 26.86491935483872  11.592741935483872 30.463709677419388  C 10.997983870967744 31.370967741935484  9.455645161290306 33.90120967741939  9.455645161290306 35.5947580645161  C 9.455645161290306 37.741935483870975  9.737903225806463 40.77620967741939  11.532258064516128 40.77620967741939  C 12.600806451612897 40.77620967741939  12.33870967741936 38.89112903225805  12.33870967741936 38.0947580645161  C 12.33870967741936 36.794354838709694  15.100806451612897 33.11491935483872  19.879032258064512 27.550403225806463  C 21.935483870967744 31.189516129032256  25.69556451612903 39.07258064516128  33.00403225806451 48.689516129032256  C 42.883064516129025 45.352822580645125  49.98991935483872 36.008064516129025  49.98991935483872 25  Z " stroke-width="0" stroke-dasharray="0" stroke="rgba(255, 255, 255, 0)" fill="none" class="stroke" mask="url(#Clip940)" />
  </g>
</svg>