<?xml version="1.0" encoding="utf-8"?>
<svg version="1.1" xmlns:xlink="http://www.w3.org/1999/xlink" width="24px" height="24px" xmlns="http://www.w3.org/2000/svg">
  <defs>
    <pattern id="BGPattern" patternUnits="userSpaceOnUse" alignment="0 0" imageRepeat="None" />
    <mask fill="white" id="Clip5639">
      <path d="M 0 12  C 0 18.627416997969522  5.372583002030479 24  12 24  C 18.627416997969522 24  24 18.627416997969522  24 12  C 24 5.372583002030479  18.627416997969522 0  12 0  C 5.372583002030479 0  0 5.372583002030479  0 12  Z M 4.5 8.25  C 4.5 7.835786437626905  4.835786437626905 7.5  5.25 7.5  L 18.75 7.5  C 19.164213562373096 7.5  19.5 7.835786437626905  19.5 8.25  C 19.5 8.664213562373096  19.164213562373096 9  18.75 9  L 5.25 9  C 4.835786437626905 9  4.5 8.664213562373096  4.5 8.25  Z M 8.25 13.5  C 7.835786437626905 13.5  7.5 13.164213562373096  7.5 12.75  C 7.5 12.335786437626904  7.835786437626905 12  8.25 12  L 15.75 12  C 16.164213562373096 12  16.5 12.335786437626904  16.5 12.75  C 16.5 13.164213562373096  16.164213562373096 13.5  15.75 13.5  L 8.25 13.5  Z M 11.25 18  C 10.835786437626904 18  10.5 17.664213562373096  10.5 17.25  C 10.5 16.835786437626904  10.835786437626904 16.5  11.25 16.5  L 12.75 16.5  C 13.164213562373096 16.5  13.5 16.835786437626904  13.5 17.25  C 13.5 17.664213562373096  13.164213562373096 18  12.75 18  L 11.25 18  Z " fill-rule="evenodd" />
    </mask>
  </defs>
  <g>
    <path d="M 0 12  C 0 18.627416997969522  5.372583002030479 24  12 24  C 18.627416997969522 24  24 18.627416997969522  24 12  C 24 5.372583002030479  18.627416997969522 0  12 0  C 5.372583002030479 0  0 5.372583002030479  0 12  Z M 4.5 8.25  C 4.5 7.835786437626905  4.835786437626905 7.5  5.25 7.5  L 18.75 7.5  C 19.164213562373096 7.5  19.5 7.835786437626905  19.5 8.25  C 19.5 8.664213562373096  19.164213562373096 9  18.75 9  L 5.25 9  C 4.835786437626905 9  4.5 8.664213562373096  4.5 8.25  Z M 8.25 13.5  C 7.835786437626905 13.5  7.5 13.164213562373096  7.5 12.75  C 7.5 12.335786437626904  7.835786437626905 12  8.25 12  L 15.75 12  C 16.164213562373096 12  16.5 12.335786437626904  16.5 12.75  C 16.5 13.164213562373096  16.164213562373096 13.5  15.75 13.5  L 8.25 13.5  Z M 11.25 18  C 10.835786437626904 18  10.5 17.664213562373096  10.5 17.25  C 10.5 16.835786437626904  10.835786437626904 16.5  11.25 16.5  L 12.75 16.5  C 13.164213562373096 16.5  13.5 16.835786437626904  13.5 17.25  C 13.5 17.664213562373096  13.164213562373096 18  12.75 18  L 11.25 18  Z " fill-rule="nonzero" fill="rgba(0, 0, 0, 1)" stroke="none" class="fill" />
    <path d="M 0 12  C 0 18.627416997969522  5.372583002030479 24  12 24  C 18.627416997969522 24  24 18.627416997969522  24 12  C 24 5.372583002030479  18.627416997969522 0  12 0  C 5.372583002030479 0  0 5.372583002030479  0 12  Z " stroke-width="0" stroke-dasharray="0" stroke="rgba(255, 255, 255, 0)" fill="none" class="stroke" mask="url(#Clip5639)" />
    <path d="M 4.5 8.25  C 4.5 7.835786437626905  4.835786437626905 7.5  5.25 7.5  L 18.75 7.5  C 19.164213562373096 7.5  19.5 7.835786437626905  19.5 8.25  C 19.5 8.664213562373096  19.164213562373096 9  18.75 9  L 5.25 9  C 4.835786437626905 9  4.5 8.664213562373096  4.5 8.25  Z " stroke-width="0" stroke-dasharray="0" stroke="rgba(255, 255, 255, 0)" fill="none" class="stroke" mask="url(#Clip5639)" />
    <path d="M 8.25 13.5  C 7.835786437626905 13.5  7.5 13.164213562373096  7.5 12.75  C 7.5 12.335786437626904  7.835786437626905 12  8.25 12  L 15.75 12  C 16.164213562373096 12  16.5 12.335786437626904  16.5 12.75  C 16.5 13.164213562373096  16.164213562373096 13.5  15.75 13.5  L 8.25 13.5  Z " stroke-width="0" stroke-dasharray="0" stroke="rgba(255, 255, 255, 0)" fill="none" class="stroke" mask="url(#Clip5639)" />
    <path d="M 11.25 18  C 10.835786437626904 18  10.5 17.664213562373096  10.5 17.25  C 10.5 16.835786437626904  10.835786437626904 16.5  11.25 16.5  L 12.75 16.5  C 13.164213562373096 16.5  13.5 16.835786437626904  13.5 17.25  C 13.5 17.664213562373096  13.164213562373096 18  12.75 18  L 11.25 18  Z " stroke-width="0" stroke-dasharray="0" stroke="rgba(255, 255, 255, 0)" fill="none" class="stroke" mask="url(#Clip5639)" />
  </g>
</svg>