<?xml version="1.0" encoding="utf-8"?>
<svg version="1.1" xmlns:xlink="http://www.w3.org/1999/xlink" width="9px" height="15px" xmlns="http://www.w3.org/2000/svg">
  <defs>
    <pattern id="BGPattern" patternUnits="userSpaceOnUse" alignment="0 0" imageRepeat="None" />
    <mask fill="white" id="Clip89">
      <path d="M 2.2239999999999984 13.759999999999998  C 1.2639999999999993 14.607999999999997  0 14.031999999999996  0 12.768  L 0 1.6320000000000014  C 0 0.3680000000000021  1.2639999999999993 -0.2079999999999984  2.224 0.6400000000000006  L 8.463999999999999 6.192  C 9.104 6.752000000000001  9.104 7.648000000000001  8.463999999999999 8.207999999999998  L 2.2239999999999984 13.759999999999998  Z M 2.400000000000002 4.015999999999998  L 2.4000000000000004 10.384  L 5.984000000000002 7.199999999999999  L 2.400000000000002 4.015999999999998  Z " fill-rule="evenodd" />
    </mask>
  </defs>
  <g>
    <path d="M 2.2239999999999984 13.759999999999998  C 1.2639999999999993 14.607999999999997  0 14.031999999999996  0 12.768  L 0 1.6320000000000014  C 0 0.3680000000000021  1.2639999999999993 -0.2079999999999984  2.224 0.6400000000000006  L 8.463999999999999 6.192  C 9.104 6.752000000000001  9.104 7.648000000000001  8.463999999999999 8.207999999999998  L 2.2239999999999984 13.759999999999998  Z M 2.400000000000002 4.015999999999998  L 2.4000000000000004 10.384  L 5.984000000000002 7.199999999999999  L 2.400000000000002 4.015999999999998  Z " fill-rule="nonzero" fill="rgba(0, 0, 0, 1)" stroke="none" class="fill" />
    <path d="M 2.2239999999999984 13.759999999999998  C 1.2639999999999993 14.607999999999997  0 14.031999999999996  0 12.768  L 0 1.6320000000000014  C 0 0.3680000000000021  1.2639999999999993 -0.2079999999999984  2.224 0.6400000000000006  L 8.463999999999999 6.192  C 9.104 6.752000000000001  9.104 7.648000000000001  8.463999999999999 8.207999999999998  L 2.2239999999999984 13.759999999999998  Z " stroke-width="0" stroke-dasharray="0" stroke="rgba(255, 255, 255, 0)" fill="none" class="stroke" mask="url(#Clip89)" />
    <path d="M 2.400000000000002 4.015999999999998  L 2.4000000000000004 10.384  L 5.984000000000002 7.199999999999999  L 2.400000000000002 4.015999999999998  Z " stroke-width="0" stroke-dasharray="0" stroke="rgba(255, 255, 255, 0)" fill="none" class="stroke" mask="url(#Clip89)" />
  </g>
</svg>