<?xml version="1.0" encoding="utf-8"?>
<svg version="1.1" xmlns:xlink="http://www.w3.org/1999/xlink" width="50px" height="50px" xmlns="http://www.w3.org/2000/svg">
  <defs>
    <pattern id="BGPattern" patternUnits="userSpaceOnUse" alignment="0 0" imageRepeat="None" />
    <mask fill="white" id="Clip2463">
      <path d="M 50 6.5  C 50 5.393750000000001  49.10625 4.5  48 5  L 37.5 5  L 37.5 0.5  C 37.5 0.22499999999999964  37.275 0  37 0  L 33.5 0  C 33.225 0  33 0.22499999999999964  33 0.5  L 33 5  L 17 5  L 17 0.5  C 17 0.22499999999999964  16.775 0  16.5 0  L 13 0  C 12.725 0  12.5 0.22499999999999964  12.5 0.5  L 12.5 5  L 2 5  C 0.8937499999999997 4.5  0 5.393750000000001  0 6.5  L 0 48  C 0 49.10625  0.8937499999999997 50  2 50  L 48 50  C 49.10625 50  50 49.10625  50 48  L 50 6.5  Z M 45 9  L 45 45  L 5 45  L 5 9  L 12.5 9  L 12.5 12  C 12.5 12.274999999999999  12.725 12.5  13 12.5  L 16.5 12.5  C 16.775 12.5  17 12.274999999999999  17 12  L 17 9  L 33 9  L 33 12  C 33 12.274999999999999  33.225 12.5  33.5 12.5  L 37 12.5  C 37.275 12.5  37.5 12.274999999999999  37.5 12  L 37.5 9  L 45 9  Z M 36.40625 20.05  C 36.64375 19.712500000000002  36.40625 19.25  36 19.25  L 32.55 19.25  C 32.231249999999996 19.25  31.924999999999997 19.40625  31.737499999999997 19.6625  L 22.30625 32.65  L 18.2625 27.0875  C 18.075 26.831249999999997  17.775 26.674999999999997  17.45 26.674999999999997  L 14.000000000000002 26.674999999999997  C 13.593749999999998 26.674999999999997  13.35625 27.1375  13.593749999999998 27.468749999999996  L 21.49375 38.34375  C 21.683214626864682 38.6030748586124  21.98508613664156 38.75638159352999  22.306250000000002 38.75638159352999  C 22.62741386335844 38.75638159352999  22.92928537313531 38.6030748586124  23.11875 38.34375  L 36.40625 20.05  Z " fill-rule="evenodd" />
    </mask>
  </defs>
  <g>
    <path d="M 50 6.5  C 50 5.393750000000001  49.10625 4.5  48 5  L 37.5 5  L 37.5 0.5  C 37.5 0.22499999999999964  37.275 0  37 0  L 33.5 0  C 33.225 0  33 0.22499999999999964  33 0.5  L 33 5  L 17 5  L 17 0.5  C 17 0.22499999999999964  16.775 0  16.5 0  L 13 0  C 12.725 0  12.5 0.22499999999999964  12.5 0.5  L 12.5 5  L 2 5  C 0.8937499999999997 4.5  0 5.393750000000001  0 6.5  L 0 48  C 0 49.10625  0.8937499999999997 50  2 50  L 48 50  C 49.10625 50  50 49.10625  50 48  L 50 6.5  Z M 45 9  L 45 45  L 5 45  L 5 9  L 12.5 9  L 12.5 12  C 12.5 12.274999999999999  12.725 12.5  13 12.5  L 16.5 12.5  C 16.775 12.5  17 12.274999999999999  17 12  L 17 9  L 33 9  L 33 12  C 33 12.274999999999999  33.225 12.5  33.5 12.5  L 37 12.5  C 37.275 12.5  37.5 12.274999999999999  37.5 12  L 37.5 9  L 45 9  Z M 36.40625 20.05  C 36.64375 19.712500000000002  36.40625 19.25  36 19.25  L 32.55 19.25  C 32.231249999999996 19.25  31.924999999999997 19.40625  31.737499999999997 19.6625  L 22.30625 32.65  L 18.2625 27.0875  C 18.075 26.831249999999997  17.775 26.674999999999997  17.45 26.674999999999997  L 14.000000000000002 26.674999999999997  C 13.593749999999998 26.674999999999997  13.35625 27.1375  13.593749999999998 27.468749999999996  L 21.49375 38.34375  C 21.683214626864682 38.6030748586124  21.98508613664156 38.75638159352999  22.306250000000002 38.75638159352999  C 22.62741386335844 38.75638159352999  22.92928537313531 38.6030748586124  23.11875 38.34375  L 36.40625 20.05  Z " fill-rule="nonzero" fill="rgba(0, 0, 0, 1)" stroke="none" class="fill" />
    <path d="M 50 6.5  C 50 5.393750000000001  49.10625 4.5  48 5  L 37.5 5  L 37.5 0.5  C 37.5 0.22499999999999964  37.275 0  37 0  L 33.5 0  C 33.225 0  33 0.22499999999999964  33 0.5  L 33 5  L 17 5  L 17 0.5  C 17 0.22499999999999964  16.775 0  16.5 0  L 13 0  C 12.725 0  12.5 0.22499999999999964  12.5 0.5  L 12.5 5  L 2 5  C 0.8937499999999997 4.5  0 5.393750000000001  0 6.5  L 0 48  C 0 49.10625  0.8937499999999997 50  2 50  L 48 50  C 49.10625 50  50 49.10625  50 48  L 50 6.5  Z " stroke-width="0" stroke-dasharray="0" stroke="rgba(255, 255, 255, 0)" fill="none" class="stroke" mask="url(#Clip2463)" />
    <path d="M 45 9  L 45 45  L 5 45  L 5 9  L 12.5 9  L 12.5 12  C 12.5 12.274999999999999  12.725 12.5  13 12.5  L 16.5 12.5  C 16.775 12.5  17 12.274999999999999  17 12  L 17 9  L 33 9  L 33 12  C 33 12.274999999999999  33.225 12.5  33.5 12.5  L 37 12.5  C 37.275 12.5  37.5 12.274999999999999  37.5 12  L 37.5 9  L 45 9  Z " stroke-width="0" stroke-dasharray="0" stroke="rgba(255, 255, 255, 0)" fill="none" class="stroke" mask="url(#Clip2463)" />
    <path d="M 36.40625 20.05  C 36.64375 19.712500000000002  36.40625 19.25  36 19.25  L 32.55 19.25  C 32.231249999999996 19.25  31.924999999999997 19.40625  31.737499999999997 19.6625  L 22.30625 32.65  L 18.2625 27.0875  C 18.075 26.831249999999997  17.775 26.674999999999997  17.45 26.674999999999997  L 14.000000000000002 26.674999999999997  C 13.593749999999998 26.674999999999997  13.35625 27.1375  13.593749999999998 27.468749999999996  L 21.49375 38.34375  C 21.683214626864682 38.6030748586124  21.98508613664156 38.75638159352999  22.306250000000002 38.75638159352999  C 22.62741386335844 38.75638159352999  22.92928537313531 38.6030748586124  23.11875 38.34375  L 36.40625 20.05  Z " stroke-width="0" stroke-dasharray="0" stroke="rgba(255, 255, 255, 0)" fill="none" class="stroke" mask="url(#Clip2463)" />
  </g>
</svg>