<?xml version="1.0" encoding="utf-8"?>
<svg version="1.1" xmlns:xlink="http://www.w3.org/1999/xlink" width="44px" height="56px" xmlns="http://www.w3.org/2000/svg">
  <defs>
    <pattern id="BGPattern" patternUnits="userSpaceOnUse" alignment="0 0" imageRepeat="None" />
    <mask fill="white" id="Clip2270">
      <path d="M 29.962500000000006 0.5875000000000004  L 43.4125 14.043750000000001  C 43.7875 14.41875  44 14.925  44 15.45625  L 44 54  C 44 55.10625  43.10625 56  42 56  L 2 56  C 0.8937500000000006 56  0 55.10625  0 54  L 0 2  C 0 0.8937499999999997  0.8937500000000006 0  2 0  L 28.543750000000003 0  C 29.075000000000003 0  29.587500000000006 0.21250000000000036  29.962500000000006 0.5875000000000004  Z M 27 17  L 39.3875 17  L 27 4.612500000000001  L 27 17  Z M 22.093749999999996 23.875  C 18.25625 23.83125  15.125 26.725  15.125 30.312500000000004  C 15.125 30.65  15.399999999999999 30.90625  15.7375 30.90625  L 17.7625 30.90625  C 18.099999999999998 30.90625  18.375 30.643749999999994  18.375 30.318749999999998  C 18.375 28.55625  19.9875 27.09375  22 27.09375  C 24.012500000000003 27.09375  25.625 28.55625  25.625 30.312500000000004  C 25.625 31.893749999999997  24.312500000000004 33.2625  22.543750000000003 33.49375  C 21.337500000000002 33.668749999999996  20.387500000000003 34.762499999999996  20.375000000000004 36  L 20.375000000000004 38  C 20.375000000000004 38.34375  20.656250000000004 38.625  21.000000000000004 38.625  L 23 38.625  C 23.34375 38.625  23.625000000000004 38.34375  23.625000000000004 38  L 23.625000000000004 37.2375  C 23.625000000000004 36.8625  23.875 36.51875  24.231250000000003 36.40625  C 27.018750000000004 35.50625  28.918750000000003 33.03125  28.875 30.225  C 28.825000000000003 26.75625  25.799999999999997 23.925  22.093749999999996 23.875  Z M 22 44.5  C 23.104569499661586 44.5  24 43.60456949966159  24 42.5  C 24 41.39543050033841  23.104569499661586 40.5  22 40.5  C 20.895430500338414 40.5  20 41.39543050033841  20 42.5  C 20 43.60456949966159  20.895430500338414 44.5  22 44.5  Z " fill-rule="evenodd" />
    </mask>
  </defs>
  <g>
    <path d="M 29.962500000000006 0.5875000000000004  L 43.4125 14.043750000000001  C 43.7875 14.41875  44 14.925  44 15.45625  L 44 54  C 44 55.10625  43.10625 56  42 56  L 2 56  C 0.8937500000000006 56  0 55.10625  0 54  L 0 2  C 0 0.8937499999999997  0.8937500000000006 0  2 0  L 28.543750000000003 0  C 29.075000000000003 0  29.587500000000006 0.21250000000000036  29.962500000000006 0.5875000000000004  Z M 27 17  L 39.3875 17  L 27 4.612500000000001  L 27 17  Z M 22.093749999999996 23.875  C 18.25625 23.83125  15.125 26.725  15.125 30.312500000000004  C 15.125 30.65  15.399999999999999 30.90625  15.7375 30.90625  L 17.7625 30.90625  C 18.099999999999998 30.90625  18.375 30.643749999999994  18.375 30.318749999999998  C 18.375 28.55625  19.9875 27.09375  22 27.09375  C 24.012500000000003 27.09375  25.625 28.55625  25.625 30.312500000000004  C 25.625 31.893749999999997  24.312500000000004 33.2625  22.543750000000003 33.49375  C 21.337500000000002 33.668749999999996  20.387500000000003 34.762499999999996  20.375000000000004 36  L 20.375000000000004 38  C 20.375000000000004 38.34375  20.656250000000004 38.625  21.000000000000004 38.625  L 23 38.625  C 23.34375 38.625  23.625000000000004 38.34375  23.625000000000004 38  L 23.625000000000004 37.2375  C 23.625000000000004 36.8625  23.875 36.51875  24.231250000000003 36.40625  C 27.018750000000004 35.50625  28.918750000000003 33.03125  28.875 30.225  C 28.825000000000003 26.75625  25.799999999999997 23.925  22.093749999999996 23.875  Z M 22 44.5  C 23.104569499661586 44.5  24 43.60456949966159  24 42.5  C 24 41.39543050033841  23.104569499661586 40.5  22 40.5  C 20.895430500338414 40.5  20 41.39543050033841  20 42.5  C 20 43.60456949966159  20.895430500338414 44.5  22 44.5  Z " fill-rule="nonzero" fill="rgba(0, 0, 0, 1)" stroke="none" class="fill" />
    <path d="M 29.962500000000006 0.5875000000000004  L 43.4125 14.043750000000001  C 43.7875 14.41875  44 14.925  44 15.45625  L 44 54  C 44 55.10625  43.10625 56  42 56  L 2 56  C 0.8937500000000006 56  0 55.10625  0 54  L 0 2  C 0 0.8937499999999997  0.8937500000000006 0  2 0  L 28.543750000000003 0  C 29.075000000000003 0  29.587500000000006 0.21250000000000036  29.962500000000006 0.5875000000000004  Z " stroke-width="0" stroke-dasharray="0" stroke="rgba(255, 255, 255, 0)" fill="none" class="stroke" mask="url(#Clip2270)" />
    <path d="M 27 17  L 39.3875 17  L 27 4.612500000000001  L 27 17  Z " stroke-width="0" stroke-dasharray="0" stroke="rgba(255, 255, 255, 0)" fill="none" class="stroke" mask="url(#Clip2270)" />
    <path d="M 22.093749999999996 23.875  C 18.25625 23.83125  15.125 26.725  15.125 30.312500000000004  C 15.125 30.65  15.399999999999999 30.90625  15.7375 30.90625  L 17.7625 30.90625  C 18.099999999999998 30.90625  18.375 30.643749999999994  18.375 30.318749999999998  C 18.375 28.55625  19.9875 27.09375  22 27.09375  C 24.012500000000003 27.09375  25.625 28.55625  25.625 30.312500000000004  C 25.625 31.893749999999997  24.312500000000004 33.2625  22.543750000000003 33.49375  C 21.337500000000002 33.668749999999996  20.387500000000003 34.762499999999996  20.375000000000004 36  L 20.375000000000004 38  C 20.375000000000004 38.34375  20.656250000000004 38.625  21.000000000000004 38.625  L 23 38.625  C 23.34375 38.625  23.625000000000004 38.34375  23.625000000000004 38  L 23.625000000000004 37.2375  C 23.625000000000004 36.8625  23.875 36.51875  24.231250000000003 36.40625  C 27.018750000000004 35.50625  28.918750000000003 33.03125  28.875 30.225  C 28.825000000000003 26.75625  25.799999999999997 23.925  22.093749999999996 23.875  Z " stroke-width="0" stroke-dasharray="0" stroke="rgba(255, 255, 255, 0)" fill="none" class="stroke" mask="url(#Clip2270)" />
    <path d="M 22 44.5  C 23.104569499661586 44.5  24 43.60456949966159  24 42.5  C 24 41.39543050033841  23.104569499661586 40.5  22 40.5  C 20.895430500338414 40.5  20 41.39543050033841  20 42.5  C 20 43.60456949966159  20.895430500338414 44.5  22 44.5  Z " stroke-width="0" stroke-dasharray="0" stroke="rgba(255, 255, 255, 0)" fill="none" class="stroke" mask="url(#Clip2270)" />
  </g>
</svg>