<?xml version="1.0" encoding="utf-8"?>
<svg version="1.1" xmlns:xlink="http://www.w3.org/1999/xlink" width="50px" height="50px" xmlns="http://www.w3.org/2000/svg">
  <defs>
    <pattern id="BGPattern" patternUnits="userSpaceOnUse" alignment="0 0" imageRepeat="None" />
    <mask fill="white" id="Clip713">
      <path d="M 50 25  C 50 11.199596774193537  38.810483870967744 0  25 0  C 11.189516129032256 0  0 11.199596774193537  0 25  C 0 38.810483870967744  11.189516129032256 50  25 50  C 38.810483870967744 50  50 38.810483870967744  50 25  Z M 42.8125 34.747983870967744  C 39.35483870967744 41.038306451612925  32.67137096774195 45.3125  25 45.3125  C 10.9677419354839 45.3125  1.2298387096774377 31.401209677419327  5.826612903225794 18.30645161290323  L 13.770161290322564 21.844758064516128  C 13.558467741935488 22.903225806451616  13.4375 24.012096774193537  13.4375 25.161290322580644  C 13.4375 35.14112903225805  20.887096774193537 37.95362903225805  25.574596774193537 37.95362903225805  C 27.883064516129025 37.95362903225805  30.9677419354839 37.27822580645159  33.57862903225805 34.97983870967744  L 29.939516129032256 30.55443548387097  C 29.38508064516128 31.189516129032256  28.16532258064518 32.23790322580646  26.2802419354839 32.23790322580646  C 22.4697580645161 32.23790322580646  20.866935483870975 28.215725806451587  20.846774193548413 24.98991935483872  C 44.07258064516128 35.33266129032256  42.67137096774195 34.7177419354839  42.8125 34.747983870967744  Z M 44.63709677419354 30.231854838709694  C 44.60685483870964 30.221774193548413  44.596774193548356 30.211693548387075  44.576612903225794 30.191532258064512  L 21.995967741935488 20.110887096774206  C 23.89112903225805 16.683467741935488  27.530241935483847 17.01612903225805  29.52620967741933 19.002016129032256  L 33.59879032258061 14.808467741935488  C 30.86693548387098 12.459677419354847  27.75201612903226 12.03629032258064  25.725806451612925 12.03629032258064  C 20.94758064516128 12.03629032258064  17.570564516129025 14.102822580645153  15.57459677419354 17.237903225806463  L 8.024193548387075 13.87096774193549  C 11.663306451612925 8.336693548387103  17.913306451612925 4.677419354838719  25.01008064516128 4.677419354838719  C 36.20967741935482 4.677419354838719  45.32258064516128 13.790322580645153  45.32258064516128 24.98991935483872  C 45.32258064516128 26.804435483870975  45.080645161290306 28.558467741935488  44.63709677419354 30.231854838709694  Z " fill-rule="evenodd" />
    </mask>
  </defs>
  <g>
    <path d="M 50 25  C 50 11.199596774193537  38.810483870967744 0  25 0  C 11.189516129032256 0  0 11.199596774193537  0 25  C 0 38.810483870967744  11.189516129032256 50  25 50  C 38.810483870967744 50  50 38.810483870967744  50 25  Z M 42.8125 34.747983870967744  C 39.35483870967744 41.038306451612925  32.67137096774195 45.3125  25 45.3125  C 10.9677419354839 45.3125  1.2298387096774377 31.401209677419327  5.826612903225794 18.30645161290323  L 13.770161290322564 21.844758064516128  C 13.558467741935488 22.903225806451616  13.4375 24.012096774193537  13.4375 25.161290322580644  C 13.4375 35.14112903225805  20.887096774193537 37.95362903225805  25.574596774193537 37.95362903225805  C 27.883064516129025 37.95362903225805  30.9677419354839 37.27822580645159  33.57862903225805 34.97983870967744  L 29.939516129032256 30.55443548387097  C 29.38508064516128 31.189516129032256  28.16532258064518 32.23790322580646  26.2802419354839 32.23790322580646  C 22.4697580645161 32.23790322580646  20.866935483870975 28.215725806451587  20.846774193548413 24.98991935483872  C 44.07258064516128 35.33266129032256  42.67137096774195 34.7177419354839  42.8125 34.747983870967744  Z M 44.63709677419354 30.231854838709694  C 44.60685483870964 30.221774193548413  44.596774193548356 30.211693548387075  44.576612903225794 30.191532258064512  L 21.995967741935488 20.110887096774206  C 23.89112903225805 16.683467741935488  27.530241935483847 17.01612903225805  29.52620967741933 19.002016129032256  L 33.59879032258061 14.808467741935488  C 30.86693548387098 12.459677419354847  27.75201612903226 12.03629032258064  25.725806451612925 12.03629032258064  C 20.94758064516128 12.03629032258064  17.570564516129025 14.102822580645153  15.57459677419354 17.237903225806463  L 8.024193548387075 13.87096774193549  C 11.663306451612925 8.336693548387103  17.913306451612925 4.677419354838719  25.01008064516128 4.677419354838719  C 36.20967741935482 4.677419354838719  45.32258064516128 13.790322580645153  45.32258064516128 24.98991935483872  C 45.32258064516128 26.804435483870975  45.080645161290306 28.558467741935488  44.63709677419354 30.231854838709694  Z " fill-rule="nonzero" fill="rgba(0, 0, 0, 1)" stroke="none" class="fill" />
    <path d="M 50 25  C 50 11.199596774193537  38.810483870967744 0  25 0  C 11.189516129032256 0  0 11.199596774193537  0 25  C 0 38.810483870967744  11.189516129032256 50  25 50  C 38.810483870967744 50  50 38.810483870967744  50 25  Z " stroke-width="0" stroke-dasharray="0" stroke="rgba(255, 255, 255, 0)" fill="none" class="stroke" mask="url(#Clip713)" />
    <path d="M 42.8125 34.747983870967744  C 39.35483870967744 41.038306451612925  32.67137096774195 45.3125  25 45.3125  C 10.9677419354839 45.3125  1.2298387096774377 31.401209677419327  5.826612903225794 18.30645161290323  L 13.770161290322564 21.844758064516128  C 13.558467741935488 22.903225806451616  13.4375 24.012096774193537  13.4375 25.161290322580644  C 13.4375 35.14112903225805  20.887096774193537 37.95362903225805  25.574596774193537 37.95362903225805  C 27.883064516129025 37.95362903225805  30.9677419354839 37.27822580645159  33.57862903225805 34.97983870967744  L 29.939516129032256 30.55443548387097  C 29.38508064516128 31.189516129032256  28.16532258064518 32.23790322580646  26.2802419354839 32.23790322580646  C 22.4697580645161 32.23790322580646  20.866935483870975 28.215725806451587  20.846774193548413 24.98991935483872  C 44.07258064516128 35.33266129032256  42.67137096774195 34.7177419354839  42.8125 34.747983870967744  Z " stroke-width="0" stroke-dasharray="0" stroke="rgba(255, 255, 255, 0)" fill="none" class="stroke" mask="url(#Clip713)" />
    <path d="M 44.63709677419354 30.231854838709694  C 44.60685483870964 30.221774193548413  44.596774193548356 30.211693548387075  44.576612903225794 30.191532258064512  L 21.995967741935488 20.110887096774206  C 23.89112903225805 16.683467741935488  27.530241935483847 17.01612903225805  29.52620967741933 19.002016129032256  L 33.59879032258061 14.808467741935488  C 30.86693548387098 12.459677419354847  27.75201612903226 12.03629032258064  25.725806451612925 12.03629032258064  C 20.94758064516128 12.03629032258064  17.570564516129025 14.102822580645153  15.57459677419354 17.237903225806463  L 8.024193548387075 13.87096774193549  C 11.663306451612925 8.336693548387103  17.913306451612925 4.677419354838719  25.01008064516128 4.677419354838719  C 36.20967741935482 4.677419354838719  45.32258064516128 13.790322580645153  45.32258064516128 24.98991935483872  C 45.32258064516128 26.804435483870975  45.080645161290306 28.558467741935488  44.63709677419354 30.231854838709694  Z " stroke-width="0" stroke-dasharray="0" stroke="rgba(255, 255, 255, 0)" fill="none" class="stroke" mask="url(#Clip713)" />
  </g>
</svg>