<?xml version="1.0" encoding="utf-8"?>
<svg version="1.1" xmlns:xlink="http://www.w3.org/1999/xlink" width="65px" height="64px" xmlns="http://www.w3.org/2000/svg">
  <defs>
    <pattern id="BGPattern" patternUnits="userSpaceOnUse" alignment="0 0" imageRepeat="None" />
    <mask fill="white" id="Clip2088">
      <path d="M 32 4  C 32 6.2125  33.7875 8  36 8  C 38.2125 8  40 6.2125  40 4  C 40 1.7874999999999996  38.2125 0  36 0  C 33.7875 0  32 1.7875  32 4  Z M 62.5125 8.937500000000002  C 63.587500000000006 8.650000000000002  64.2125 7.550000000000002  63.9375 6.4875  C 63.65 5.4125  62.5625 4.7875  61.4875 5.074999999999999  L 1.4874999999999972 21.075  C 0.42499999999999716 21.3625  -0.2125000000000028 22.45  0.07499999999999707 23.525  C 0.3125 24.4125  1.1125 25  2 25  C 2.175 25  2.35 24.975  2.5125 24.9375  L 30 17.6  L 30 28  L 8 28  C 5.7875 28  4 29.7875  4 32  L 4 60  C 4 62.2125  5.7875 64  8 64  L 56 64  C 58.2125 64  60 62.2125  60 60  L 60 32  C 60 29.7875  58.2125 28  56 28  L 34 28  L 34 16.5375  L 62.5125 8.937500000000002  Z M 22 36  L 22 48  L 10 48  L 10 36  L 22 36  Z M 42 48  L 42 36  L 54 36  L 54 48  L 42 48  Z M 26 36  L 38 36  L 38 48  L 26 48  L 26 36  Z M 20 8  C 20 10.2125  21.7875 12  24 12  C 26.2125 12  28 10.2125  28 8  C 28 5.7875  26.2125 4  24 4  C 21.7875 4  20 5.7875  20 8  Z " fill-rule="evenodd" />
    </mask>
  </defs>
  <g>
    <path d="M 32 4  C 32 6.2125  33.7875 8  36 8  C 38.2125 8  40 6.2125  40 4  C 40 1.7874999999999996  38.2125 0  36 0  C 33.7875 0  32 1.7875  32 4  Z M 62.5125 8.937500000000002  C 63.587500000000006 8.650000000000002  64.2125 7.550000000000002  63.9375 6.4875  C 63.65 5.4125  62.5625 4.7875  61.4875 5.074999999999999  L 1.4874999999999972 21.075  C 0.42499999999999716 21.3625  -0.2125000000000028 22.45  0.07499999999999707 23.525  C 0.3125 24.4125  1.1125 25  2 25  C 2.175 25  2.35 24.975  2.5125 24.9375  L 30 17.6  L 30 28  L 8 28  C 5.7875 28  4 29.7875  4 32  L 4 60  C 4 62.2125  5.7875 64  8 64  L 56 64  C 58.2125 64  60 62.2125  60 60  L 60 32  C 60 29.7875  58.2125 28  56 28  L 34 28  L 34 16.5375  L 62.5125 8.937500000000002  Z M 22 36  L 22 48  L 10 48  L 10 36  L 22 36  Z M 42 48  L 42 36  L 54 36  L 54 48  L 42 48  Z M 26 36  L 38 36  L 38 48  L 26 48  L 26 36  Z M 20 8  C 20 10.2125  21.7875 12  24 12  C 26.2125 12  28 10.2125  28 8  C 28 5.7875  26.2125 4  24 4  C 21.7875 4  20 5.7875  20 8  Z " fill-rule="nonzero" fill="rgba(0, 0, 0, 1)" stroke="none" class="fill" />
    <path d="M 32 4  C 32 6.2125  33.7875 8  36 8  C 38.2125 8  40 6.2125  40 4  C 40 1.7874999999999996  38.2125 0  36 0  C 33.7875 0  32 1.7875  32 4  Z " stroke-width="0" stroke-dasharray="0" stroke="rgba(255, 255, 255, 0)" fill="none" class="stroke" mask="url(#Clip2088)" />
    <path d="M 62.5125 8.937500000000002  C 63.587500000000006 8.650000000000002  64.2125 7.550000000000002  63.9375 6.4875  C 63.65 5.4125  62.5625 4.7875  61.4875 5.074999999999999  L 1.4874999999999972 21.075  C 0.42499999999999716 21.3625  -0.2125000000000028 22.45  0.07499999999999707 23.525  C 0.3125 24.4125  1.1125 25  2 25  C 2.175 25  2.35 24.975  2.5125 24.9375  L 30 17.6  L 30 28  L 8 28  C 5.7875 28  4 29.7875  4 32  L 4 60  C 4 62.2125  5.7875 64  8 64  L 56 64  C 58.2125 64  60 62.2125  60 60  L 60 32  C 60 29.7875  58.2125 28  56 28  L 34 28  L 34 16.5375  L 62.5125 8.937500000000002  Z " stroke-width="0" stroke-dasharray="0" stroke="rgba(255, 255, 255, 0)" fill="none" class="stroke" mask="url(#Clip2088)" />
    <path d="M 22 36  L 22 48  L 10 48  L 10 36  L 22 36  Z " stroke-width="0" stroke-dasharray="0" stroke="rgba(255, 255, 255, 0)" fill="none" class="stroke" mask="url(#Clip2088)" />
    <path d="M 42 48  L 42 36  L 54 36  L 54 48  L 42 48  Z " stroke-width="0" stroke-dasharray="0" stroke="rgba(255, 255, 255, 0)" fill="none" class="stroke" mask="url(#Clip2088)" />
    <path d="M 26 36  L 38 36  L 38 48  L 26 48  L 26 36  Z " stroke-width="0" stroke-dasharray="0" stroke="rgba(255, 255, 255, 0)" fill="none" class="stroke" mask="url(#Clip2088)" />
    <path d="M 20 8  C 20 10.2125  21.7875 12  24 12  C 26.2125 12  28 10.2125  28 8  C 28 5.7875  26.2125 4  24 4  C 21.7875 4  20 5.7875  20 8  Z " stroke-width="0" stroke-dasharray="0" stroke="rgba(255, 255, 255, 0)" fill="none" class="stroke" mask="url(#Clip2088)" />
  </g>
</svg>