<?xml version="1.0" encoding="utf-8"?>
<svg version="1.1" xmlns:xlink="http://www.w3.org/1999/xlink" width="12px" height="24px" xmlns="http://www.w3.org/2000/svg">
  <defs>
    <pattern id="BGPattern" patternUnits="userSpaceOnUse" alignment="0 0" imageRepeat="None" />
    <mask fill="white" id="Clip5992">
      <path d="M 0.75 18  L 0.7499999999999982 4.5  C 0.75 2.4289321881345245  2.4289321881345227 0.7500000000000004  4.499999999999998 0.7500000000000004  C 6.5710678118654755 0.7500000000000004  8.249999999999996 2.4289321881345245  8.249999999999996 4.5  L 8.25 18  C 8.25 19.242640687119284  7.242640687119284 20.25  6 20.25  C 4.757359312880716 20.25  3.75 19.242640687119284  3.75 18  L 3.75 7.5  C 3.75 7.085786437626905  4.085786437626904 6.75  4.5 6.75  C 4.914213562373096 6.75  5.25 7.085786437626905  5.25 7.5  L 5.25 18  C 5.25 18.414213562373096  5.585786437626904 18.75  6 18.75  C 6.414213562373096 18.75  6.75 18.414213562373096  6.75 18  L 6.75 4.5  C 6.75 3.25735926546551  5.742640687119284 2.2499999525847953  4.499999999999998 2.2499999525847953  C 3.2573593128807143 2.2499999525847953  2.2499999999999982 3.25735926546551  2.2499999999999982 4.499999952584795  L 2.2499999999999982 18  C 2.2499999999999982 20.071067811865476  3.9289321881345245 21.75  5.999999999999998 21.75  C 8.071067811865472 21.75  9.749999999999996 20.071067811865476  9.749999999999996 18  L 9.75 7.5  C 9.75 7.085786437626905  10.085786437626904 6.75  10.5 6.75  C 10.914213562373096 6.75  11.25 7.085786437626905  11.25 7.5  L 11.25 18  C 11.25 20.899494936611664  8.899494936611664 23.25  6 23.25  C 3.100505063388333 23.25  0.75 20.899494936611667  0.75 18  Z " fill-rule="evenodd" />
    </mask>
  </defs>
  <g>
    <path d="M 0.75 18  L 0.7499999999999982 4.5  C 0.75 2.4289321881345245  2.4289321881345227 0.7500000000000004  4.499999999999998 0.7500000000000004  C 6.5710678118654755 0.7500000000000004  8.249999999999996 2.4289321881345245  8.249999999999996 4.5  L 8.25 18  C 8.25 19.242640687119284  7.242640687119284 20.25  6 20.25  C 4.757359312880716 20.25  3.75 19.242640687119284  3.75 18  L 3.75 7.5  C 3.75 7.085786437626905  4.085786437626904 6.75  4.5 6.75  C 4.914213562373096 6.75  5.25 7.085786437626905  5.25 7.5  L 5.25 18  C 5.25 18.414213562373096  5.585786437626904 18.75  6 18.75  C 6.414213562373096 18.75  6.75 18.414213562373096  6.75 18  L 6.75 4.5  C 6.75 3.25735926546551  5.742640687119284 2.2499999525847953  4.499999999999998 2.2499999525847953  C 3.2573593128807143 2.2499999525847953  2.2499999999999982 3.25735926546551  2.2499999999999982 4.499999952584795  L 2.2499999999999982 18  C 2.2499999999999982 20.071067811865476  3.9289321881345245 21.75  5.999999999999998 21.75  C 8.071067811865472 21.75  9.749999999999996 20.071067811865476  9.749999999999996 18  L 9.75 7.5  C 9.75 7.085786437626905  10.085786437626904 6.75  10.5 6.75  C 10.914213562373096 6.75  11.25 7.085786437626905  11.25 7.5  L 11.25 18  C 11.25 20.899494936611664  8.899494936611664 23.25  6 23.25  C 3.100505063388333 23.25  0.75 20.899494936611667  0.75 18  Z " fill-rule="nonzero" fill="rgba(0, 0, 0, 1)" stroke="none" class="fill" />
    <path d="M 0.75 18  L 0.7499999999999982 4.5  C 0.75 2.4289321881345245  2.4289321881345227 0.7500000000000004  4.499999999999998 0.7500000000000004  C 6.5710678118654755 0.7500000000000004  8.249999999999996 2.4289321881345245  8.249999999999996 4.5  L 8.25 18  C 8.25 19.242640687119284  7.242640687119284 20.25  6 20.25  C 4.757359312880716 20.25  3.75 19.242640687119284  3.75 18  L 3.75 7.5  C 3.75 7.085786437626905  4.085786437626904 6.75  4.5 6.75  C 4.914213562373096 6.75  5.25 7.085786437626905  5.25 7.5  L 5.25 18  C 5.25 18.414213562373096  5.585786437626904 18.75  6 18.75  C 6.414213562373096 18.75  6.75 18.414213562373096  6.75 18  L 6.75 4.5  C 6.75 3.25735926546551  5.742640687119284 2.2499999525847953  4.499999999999998 2.2499999525847953  C 3.2573593128807143 2.2499999525847953  2.2499999999999982 3.25735926546551  2.2499999999999982 4.499999952584795  L 2.2499999999999982 18  C 2.2499999999999982 20.071067811865476  3.9289321881345245 21.75  5.999999999999998 21.75  C 8.071067811865472 21.75  9.749999999999996 20.071067811865476  9.749999999999996 18  L 9.75 7.5  C 9.75 7.085786437626905  10.085786437626904 6.75  10.5 6.75  C 10.914213562373096 6.75  11.25 7.085786437626905  11.25 7.5  L 11.25 18  C 11.25 20.899494936611664  8.899494936611664 23.25  6 23.25  C 3.100505063388333 23.25  0.75 20.899494936611667  0.75 18  Z " stroke-width="0" stroke-dasharray="0" stroke="rgba(255, 255, 255, 0)" fill="none" class="stroke" mask="url(#Clip5992)" />
  </g>
</svg>