<?xml version="1.0" encoding="utf-8"?>
<svg version="1.1" xmlns:xlink="http://www.w3.org/1999/xlink" width="50px" height="39px" xmlns="http://www.w3.org/2000/svg">
  <defs>
    <pattern id="BGPattern" patternUnits="userSpaceOnUse" alignment="0 0" imageRepeat="None" />
    <mask fill="white" id="Clip1146">
      <path d="M 50 28.110156250000017  C 50 26.094097222222246  49.42022569444444 24.134375000000034  48.32343750000001 22.44288194444445  L 35.618750000000006 2.8497395833333314  C 34.4618923611111 1.0652777777777658  32.50147569444445 0  30.374739583333337 0  L 4.861111111111114 0  C 2.1806423611111114 0  0 2.18072916666668  0 4.861111111111114  L 0 5.5555555555555705  C 0 9.384722222222223  3.115277777777777 12.500000000000002  6.944444444444444 13  L 23.961979166666666 13  L 22.370572916666674 16.666666666666686  L 12.5 16.666666666666686  C 8.28793402777778 16.666666666666686  4.861111111111114 20.093489583333334  4.861111111111114 24.30555555555557  C 4.861111111111114 26.98602430555559  7.041753472222219 29.166666666666686  9.722222222222221 29  L 21.141666666666666 29  C 21.400954861111103 29.166666666666686  21.655034722222226 29.214322916666674  21.89661458333333 29.308246527777783  L 30.555555555555557 32.67517361111112  L 30.555555555555557 38.888888888888914  L 50 38.888888888888914  L 50 28.110156250000017  Z M 45.83333333333333 28.110156250000017  L 45.83333333333333 34  L 34.72222222222223 34  L 34.72222222222223 32.67517361111112  C 34.72222222222223 30.943576388888914  33.67934027777778 29.419270833333343  32.06562500000001 28.791840277777794  L 23.40668402777777 25.4248263888889  C 22.68468721946782 25.143522354326365  21.916528618784028 24.99944661785503  21.141666666666666 25  L 9.722222222222221 25  C 9.339322916666667 25.00000000000003  9.027777777777779 24.688454861111126  9.027777777777779 24.30555555555557  C 9.027777777777779 22.390972222222242  10.585416666666667 20.833333333333343  12.5 20.833333333333343  L 22.370572916666674 20.833333333333343  C 24.086458333333326 20.833333333333343  25.650607638888882 19.756336805555573  26.262934027777774 18.15338541666668  L 28.39418402777778 12.573437500000011  C 29.17508680555555 10.528906250000006  27.66258680555555 8.333333333333343  25.474913194444436 9  L 6.944444444444444 9  C 5.412760416666664 8.333333333333343  4.166666666666664 7.087239583333344  4.166666666666664 5.5555555555555705  L 4.166666666666664 4.861111111111114  C 4.166666666666664 4.47821180555556  4.478211805555553 4.166666666666657  4.861111111111114 4.166666666666657  L 30.374739583333337 4.166666666666657  C 31.083593750000006 4.166666666666657  31.736979166666657 4.521701388888886  32.12274305555556 5.116493055555566  L 44.827430555555566 24.709809027777794  C 45.48471064574696 25.72203867445745  45.83414044840286 26.903248911740576  45.83333333333333 28.110156250000017  Z " fill-rule="evenodd" />
    </mask>
  </defs>
  <g>
    <path d="M 50 28.110156250000017  C 50 26.094097222222246  49.42022569444444 24.134375000000034  48.32343750000001 22.44288194444445  L 35.618750000000006 2.8497395833333314  C 34.4618923611111 1.0652777777777658  32.50147569444445 0  30.374739583333337 0  L 4.861111111111114 0  C 2.1806423611111114 0  0 2.18072916666668  0 4.861111111111114  L 0 5.5555555555555705  C 0 9.384722222222223  3.115277777777777 12.500000000000002  6.944444444444444 13  L 23.961979166666666 13  L 22.370572916666674 16.666666666666686  L 12.5 16.666666666666686  C 8.28793402777778 16.666666666666686  4.861111111111114 20.093489583333334  4.861111111111114 24.30555555555557  C 4.861111111111114 26.98602430555559  7.041753472222219 29.166666666666686  9.722222222222221 29  L 21.141666666666666 29  C 21.400954861111103 29.166666666666686  21.655034722222226 29.214322916666674  21.89661458333333 29.308246527777783  L 30.555555555555557 32.67517361111112  L 30.555555555555557 38.888888888888914  L 50 38.888888888888914  L 50 28.110156250000017  Z M 45.83333333333333 28.110156250000017  L 45.83333333333333 34  L 34.72222222222223 34  L 34.72222222222223 32.67517361111112  C 34.72222222222223 30.943576388888914  33.67934027777778 29.419270833333343  32.06562500000001 28.791840277777794  L 23.40668402777777 25.4248263888889  C 22.68468721946782 25.143522354326365  21.916528618784028 24.99944661785503  21.141666666666666 25  L 9.722222222222221 25  C 9.339322916666667 25.00000000000003  9.027777777777779 24.688454861111126  9.027777777777779 24.30555555555557  C 9.027777777777779 22.390972222222242  10.585416666666667 20.833333333333343  12.5 20.833333333333343  L 22.370572916666674 20.833333333333343  C 24.086458333333326 20.833333333333343  25.650607638888882 19.756336805555573  26.262934027777774 18.15338541666668  L 28.39418402777778 12.573437500000011  C 29.17508680555555 10.528906250000006  27.66258680555555 8.333333333333343  25.474913194444436 9  L 6.944444444444444 9  C 5.412760416666664 8.333333333333343  4.166666666666664 7.087239583333344  4.166666666666664 5.5555555555555705  L 4.166666666666664 4.861111111111114  C 4.166666666666664 4.47821180555556  4.478211805555553 4.166666666666657  4.861111111111114 4.166666666666657  L 30.374739583333337 4.166666666666657  C 31.083593750000006 4.166666666666657  31.736979166666657 4.521701388888886  32.12274305555556 5.116493055555566  L 44.827430555555566 24.709809027777794  C 45.48471064574696 25.72203867445745  45.83414044840286 26.903248911740576  45.83333333333333 28.110156250000017  Z " fill-rule="nonzero" fill="rgba(0, 0, 0, 1)" stroke="none" class="fill" />
    <path d="M 50 28.110156250000017  C 50 26.094097222222246  49.42022569444444 24.134375000000034  48.32343750000001 22.44288194444445  L 35.618750000000006 2.8497395833333314  C 34.4618923611111 1.0652777777777658  32.50147569444445 0  30.374739583333337 0  L 4.861111111111114 0  C 2.1806423611111114 0  0 2.18072916666668  0 4.861111111111114  L 0 5.5555555555555705  C 0 9.384722222222223  3.115277777777777 12.500000000000002  6.944444444444444 13  L 23.961979166666666 13  L 22.370572916666674 16.666666666666686  L 12.5 16.666666666666686  C 8.28793402777778 16.666666666666686  4.861111111111114 20.093489583333334  4.861111111111114 24.30555555555557  C 4.861111111111114 26.98602430555559  7.041753472222219 29.166666666666686  9.722222222222221 29  L 21.141666666666666 29  C 21.400954861111103 29.166666666666686  21.655034722222226 29.214322916666674  21.89661458333333 29.308246527777783  L 30.555555555555557 32.67517361111112  L 30.555555555555557 38.888888888888914  L 50 38.888888888888914  L 50 28.110156250000017  Z " stroke-width="0" stroke-dasharray="0" stroke="rgba(255, 255, 255, 0)" fill="none" class="stroke" mask="url(#Clip1146)" />
    <path d="M 45.83333333333333 28.110156250000017  L 45.83333333333333 34  L 34.72222222222223 34  L 34.72222222222223 32.67517361111112  C 34.72222222222223 30.943576388888914  33.67934027777778 29.419270833333343  32.06562500000001 28.791840277777794  L 23.40668402777777 25.4248263888889  C 22.68468721946782 25.143522354326365  21.916528618784028 24.99944661785503  21.141666666666666 25  L 9.722222222222221 25  C 9.339322916666667 25.00000000000003  9.027777777777779 24.688454861111126  9.027777777777779 24.30555555555557  C 9.027777777777779 22.390972222222242  10.585416666666667 20.833333333333343  12.5 20.833333333333343  L 22.370572916666674 20.833333333333343  C 24.086458333333326 20.833333333333343  25.650607638888882 19.756336805555573  26.262934027777774 18.15338541666668  L 28.39418402777778 12.573437500000011  C 29.17508680555555 10.528906250000006  27.66258680555555 8.333333333333343  25.474913194444436 9  L 6.944444444444444 9  C 5.412760416666664 8.333333333333343  4.166666666666664 7.087239583333344  4.166666666666664 5.5555555555555705  L 4.166666666666664 4.861111111111114  C 4.166666666666664 4.47821180555556  4.478211805555553 4.166666666666657  4.861111111111114 4.166666666666657  L 30.374739583333337 4.166666666666657  C 31.083593750000006 4.166666666666657  31.736979166666657 4.521701388888886  32.12274305555556 5.116493055555566  L 44.827430555555566 24.709809027777794  C 45.48471064574696 25.72203867445745  45.83414044840286 26.903248911740576  45.83333333333333 28.110156250000017  Z " stroke-width="0" stroke-dasharray="0" stroke="rgba(255, 255, 255, 0)" fill="none" class="stroke" mask="url(#Clip1146)" />
  </g>
</svg>