<?xml version="1.0" encoding="utf-8"?>
<svg version="1.1" xmlns:xlink="http://www.w3.org/1999/xlink" width="22px" height="14px" xmlns="http://www.w3.org/2000/svg">
  <defs>
    <pattern id="BGPattern" patternUnits="userSpaceOnUse" alignment="0 0" imageRepeat="None" />
    <mask fill="white" id="Clip5348">
      <path d="M 20 0  L 2 0  C 1.1715728752538097 0  0.5 0.6715728752538102  0.5 1.5  L 0.5 12  C 0.5 12.82842712474619  1.1715728752538097 13.5  2 13.5  L 20 13.5  C 20.82842712474619 13.5  21.5 12.82842712474619  21.5 12  L 21.5 1.5  C 21.5 0.6715728752538102  20.82842712474619 0  20 0  Z M 2 1.5  L 20 1.5  L 20 12  L 2 12  L 2 1.5  Z " fill-rule="evenodd" />
    </mask>
  </defs>
  <g transform="matrix(1 0 0 1 -1 -3 )">
    <path d="M 20 0  L 2 0  C 1.1715728752538097 0  0.5 0.6715728752538102  0.5 1.5  L 0.5 12  C 0.5 12.82842712474619  1.1715728752538097 13.5  2 13.5  L 20 13.5  C 20.82842712474619 13.5  21.5 12.82842712474619  21.5 12  L 21.5 1.5  C 21.5 0.6715728752538102  20.82842712474619 0  20 0  Z M 2 1.5  L 20 1.5  L 20 12  L 2 12  L 2 1.5  Z " fill-rule="nonzero" fill="rgba(0, 0, 0, 1)" stroke="none" transform="matrix(1 0 0 1 1 3 )" class="fill" />
    <path d="M 20 0  L 2 0  C 1.1715728752538097 0  0.5 0.6715728752538102  0.5 1.5  L 0.5 12  C 0.5 12.82842712474619  1.1715728752538097 13.5  2 13.5  L 20 13.5  C 20.82842712474619 13.5  21.5 12.82842712474619  21.5 12  L 21.5 1.5  C 21.5 0.6715728752538102  20.82842712474619 0  20 0  Z " stroke-width="0" stroke-dasharray="0" stroke="rgba(255, 255, 255, 0)" fill="none" transform="matrix(1 0 0 1 1 3 )" class="stroke" mask="url(#Clip5348)" />
    <path d="M 2 1.5  L 20 1.5  L 20 12  L 2 12  L 2 1.5  Z " stroke-width="0" stroke-dasharray="0" stroke="rgba(255, 255, 255, 0)" fill="none" transform="matrix(1 0 0 1 1 3 )" class="stroke" mask="url(#Clip5348)" />
  </g>
</svg>