<?xml version="1.0" encoding="utf-8"?>
<svg version="1.1" xmlns:xlink="http://www.w3.org/1999/xlink" width="50px" height="50px" xmlns="http://www.w3.org/2000/svg">
  <defs>
    <pattern id="BGPattern" patternUnits="userSpaceOnUse" alignment="0 0" imageRepeat="None" />
    <mask fill="white" id="Clip1205">
      <path d="M 48.43091517857141 39.067745535714266  C 49.43557605316482 38.06309209056454  49.999992570575756 36.70048728101591  50 35.279687499999994  L 50 5.357142857142861  C 50 2.3984375  47.6015625 0  44.64285714285714 0  L 5.357142857142861 0  C 2.3984375 0  0 2.3984375  0 5.357142857142861  L 0 44.641517857142844  C 0 47.600223214285705  2.3984375 49.998660714285705  5.357142857142861 50  L 35.28102678571429 50  C 36.701826566730176 49.99865328486146  38.06443137627883 49.43423676745053  39.06908482142856 48.429575892857144  L 48.43091517857141 39.067745535714266  Z M 44.209598214285705 35.71294642857143  L 35.71428571428572 44.20825892857141  L 35.71428571428572 35.71294642857143  L 44.209598214285705 35.71294642857143  Z M 6 6  L 44 6  L 44 30  L 33.03571428571428 30  C 31.556361607142865 30.35580357142857  30.35714285714286 31.555022321428567  30 33.03437500000001  L 30 44  L 6 44  L 6 6  Z " fill-rule="evenodd" />
    </mask>
  </defs>
  <g>
    <path d="M 48.43091517857141 39.067745535714266  C 49.43557605316482 38.06309209056454  49.999992570575756 36.70048728101591  50 35.279687499999994  L 50 5.357142857142861  C 50 2.3984375  47.6015625 0  44.64285714285714 0  L 5.357142857142861 0  C 2.3984375 0  0 2.3984375  0 5.357142857142861  L 0 44.641517857142844  C 0 47.600223214285705  2.3984375 49.998660714285705  5.357142857142861 50  L 35.28102678571429 50  C 36.701826566730176 49.99865328486146  38.06443137627883 49.43423676745053  39.06908482142856 48.429575892857144  L 48.43091517857141 39.067745535714266  Z M 44.209598214285705 35.71294642857143  L 35.71428571428572 44.20825892857141  L 35.71428571428572 35.71294642857143  L 44.209598214285705 35.71294642857143  Z M 6 6  L 44 6  L 44 30  L 33.03571428571428 30  C 31.556361607142865 30.35580357142857  30.35714285714286 31.555022321428567  30 33.03437500000001  L 30 44  L 6 44  L 6 6  Z " fill-rule="nonzero" fill="rgba(0, 0, 0, 1)" stroke="none" class="fill" />
    <path d="M 48.43091517857141 39.067745535714266  C 49.43557605316482 38.06309209056454  49.999992570575756 36.70048728101591  50 35.279687499999994  L 50 5.357142857142861  C 50 2.3984375  47.6015625 0  44.64285714285714 0  L 5.357142857142861 0  C 2.3984375 0  0 2.3984375  0 5.357142857142861  L 0 44.641517857142844  C 0 47.600223214285705  2.3984375 49.998660714285705  5.357142857142861 50  L 35.28102678571429 50  C 36.701826566730176 49.99865328486146  38.06443137627883 49.43423676745053  39.06908482142856 48.429575892857144  L 48.43091517857141 39.067745535714266  Z " stroke-width="0" stroke-dasharray="0" stroke="rgba(255, 255, 255, 0)" fill="none" class="stroke" mask="url(#Clip1205)" />
    <path d="M 44.209598214285705 35.71294642857143  L 35.71428571428572 44.20825892857141  L 35.71428571428572 35.71294642857143  L 44.209598214285705 35.71294642857143  Z " stroke-width="0" stroke-dasharray="0" stroke="rgba(255, 255, 255, 0)" fill="none" class="stroke" mask="url(#Clip1205)" />
    <path d="M 6 6  L 44 6  L 44 30  L 33.03571428571428 30  C 31.556361607142865 30.35580357142857  30.35714285714286 31.555022321428567  30 33.03437500000001  L 30 44  L 6 44  L 6 6  Z " stroke-width="0" stroke-dasharray="0" stroke="rgba(255, 255, 255, 0)" fill="none" class="stroke" mask="url(#Clip1205)" />
  </g>
</svg>