<?xml version="1.0" encoding="utf-8"?>
<svg version="1.1" xmlns:xlink="http://www.w3.org/1999/xlink" width="44px" height="56px" xmlns="http://www.w3.org/2000/svg">
  <defs>
    <pattern id="BGPattern" patternUnits="userSpaceOnUse" alignment="0 0" imageRepeat="None" />
    <mask fill="white" id="Clip2980">
      <path d="M 44 15.45625  C 44 14.925  43.7875 14.4125  43.4125 14.037500000000001  L 29.9625 0.5875000000000004  C 29.5875 0.21250000000000036  29.081249999999997 0  28.549999999999997 0  L 2 0  C 0.8937500000000006 0  0 0.8937499999999997  0 2  L 0 54  C 0 55.10625  0.8937500000000006 56  2 56  L 42 56  C 43.10625 56  44 55.10625  44 54  L 44 15.45625  Z M 27 17  L 27 4.612500000000001  L 39.3875 17  L 27 17  Z M 39 21  L 39 51  L 5 51  L 5 4.5  L 8.5 4.5  L 8.5 8.5  L 12.500000000000002 8.5  L 12.500000000000002 5  L 23 5  L 23 18  C 23.375000000000004 19.449747468305834  24.55025253169417 20.625  26 21  L 39 21  Z " fill-rule="evenodd" />
    </mask>
  </defs>
  <g>
    <path d="M 44 15.45625  C 44 14.925  43.7875 14.4125  43.4125 14.037500000000001  L 29.9625 0.5875000000000004  C 29.5875 0.21250000000000036  29.081249999999997 0  28.549999999999997 0  L 2 0  C 0.8937500000000006 0  0 0.8937499999999997  0 2  L 0 54  C 0 55.10625  0.8937500000000006 56  2 56  L 42 56  C 43.10625 56  44 55.10625  44 54  L 44 15.45625  Z M 27 17  L 27 4.612500000000001  L 39.3875 17  L 27 17  Z M 39 21  L 39 51  L 5 51  L 5 4.5  L 8.5 4.5  L 8.5 8.5  L 12.500000000000002 8.5  L 12.500000000000002 5  L 23 5  L 23 18  C 23.375000000000004 19.449747468305834  24.55025253169417 20.625  26 21  L 39 21  Z " fill-rule="nonzero" fill="rgba(0, 0, 0, 1)" stroke="none" class="fill" />
    <path d="M 44 15.45625  C 44 14.925  43.7875 14.4125  43.4125 14.037500000000001  L 29.9625 0.5875000000000004  C 29.5875 0.21250000000000036  29.081249999999997 0  28.549999999999997 0  L 2 0  C 0.8937500000000006 0  0 0.8937499999999997  0 2  L 0 54  C 0 55.10625  0.8937500000000006 56  2 56  L 42 56  C 43.10625 56  44 55.10625  44 54  L 44 15.45625  Z " stroke-width="0" stroke-dasharray="0" stroke="rgba(255, 255, 255, 0)" fill="none" class="stroke" mask="url(#Clip2980)" />
    <path d="M 27 17  L 27 4.612500000000001  L 39.3875 17  L 27 17  Z " stroke-width="0" stroke-dasharray="0" stroke="rgba(255, 255, 255, 0)" fill="none" class="stroke" mask="url(#Clip2980)" />
    <path d="M 39 21  L 39 51  L 5 51  L 5 4.5  L 8.5 4.5  L 8.5 8.5  L 12.500000000000002 8.5  L 12.500000000000002 5  L 23 5  L 23 18  C 23.375000000000004 19.449747468305834  24.55025253169417 20.625  26 21  L 39 21  Z " stroke-width="0" stroke-dasharray="0" stroke="rgba(255, 255, 255, 0)" fill="none" class="stroke" mask="url(#Clip2980)" />
  </g>
</svg>