<?xml version="1.0" encoding="utf-8"?>
<svg version="1.1" xmlns:xlink="http://www.w3.org/1999/xlink" width="36px" height="48px" xmlns="http://www.w3.org/2000/svg">
  <defs>
    <pattern id="BGPattern" patternUnits="userSpaceOnUse" alignment="0 0" imageRepeat="None" />
    <mask fill="white" id="Clip2979">
      <path d="M 22.000000000000007 17  C 20.55025253169417 16.625  19.375000000000007 15.449747468305834  19 14  L 19 1  L 8.5 1  L 8.5 4.5  L 12.5 4.5  L 12.5 8.5  L 8.5 8.5  L 8.5 12.5  L 12.5 12.5  L 12.5 16.5  L 8.5 16.5  L 8.5 20.5  L 12.5 20.5  L 12.5 24.5  L 8.5 24.5  L 8.5 28.375  L 13 28.375  L 13 38.375  L 5 38.375  L 5 24.5  L 8.5 24.5  L 8.5 20.5  L 4.5 20.5  L 4.5 16.5  L 8.5 16.5  L 8.5 12.5  L 4.5 12.5  L 4.5 8.5  L 8.5 8.5  L 8.5 4.5  L 4.5 4.5  L 4.5 0.5  L 1 0.5  L 1 47  L 35 47  L 35 17  L 22.000000000000007 17  Z " fill-rule="evenodd" />
    </mask>
  </defs>
  <g transform="matrix(1 0 0 1 -4 -4 )">
    <path d="M 22.000000000000007 17  C 20.55025253169417 16.625  19.375000000000007 15.449747468305834  19 14  L 19 1  L 8.5 1  L 8.5 4.5  L 12.5 4.5  L 12.5 8.5  L 8.5 8.5  L 8.5 12.5  L 12.5 12.5  L 12.5 16.5  L 8.5 16.5  L 8.5 20.5  L 12.5 20.5  L 12.5 24.5  L 8.5 24.5  L 8.5 28.375  L 13 28.375  L 13 38.375  L 5 38.375  L 5 24.5  L 8.5 24.5  L 8.5 20.5  L 4.5 20.5  L 4.5 16.5  L 8.5 16.5  L 8.5 12.5  L 4.5 12.5  L 4.5 8.5  L 8.5 8.5  L 8.5 4.5  L 4.5 4.5  L 4.5 0.5  L 1 0.5  L 1 47  L 35 47  L 35 17  L 22.000000000000007 17  Z " fill-rule="nonzero" fill="rgba(217, 217, 217, 1)" stroke="none" transform="matrix(1 0 0 1 4 4 )" class="fill" />
    <path d="M 22.000000000000007 17  C 20.55025253169417 16.625  19.375000000000007 15.449747468305834  19 14  L 19 1  L 8.5 1  L 8.5 4.5  L 12.5 4.5  L 12.5 8.5  L 8.5 8.5  L 8.5 12.5  L 12.5 12.5  L 12.5 16.5  L 8.5 16.5  L 8.5 20.5  L 12.5 20.5  L 12.5 24.5  L 8.5 24.5  L 8.5 28.375  L 13 28.375  L 13 38.375  L 5 38.375  L 5 24.5  L 8.5 24.5  L 8.5 20.5  L 4.5 20.5  L 4.5 16.5  L 8.5 16.5  L 8.5 12.5  L 4.5 12.5  L 4.5 8.5  L 8.5 8.5  L 8.5 4.5  L 4.5 4.5  L 4.5 0.5  L 1 0.5  L 1 47  L 35 47  L 35 17  L 22.000000000000007 17  Z " stroke-width="0" stroke-dasharray="0" stroke="rgba(255, 255, 255, 0)" fill="none" transform="matrix(1 0 0 1 4 4 )" class="stroke" mask="url(#Clip2979)" />
  </g>
</svg>