<?xml version="1.0" encoding="utf-8"?>
<svg version="1.1" xmlns:xlink="http://www.w3.org/1999/xlink" width="28px" height="28px" xmlns="http://www.w3.org/2000/svg">
  <defs>
    <pattern id="BGPattern" patternUnits="userSpaceOnUse" alignment="0 0" imageRepeat="None" />
    <mask fill="white" id="Clip4513">
      <path d="M 28 14  C 28 6.268013502368892  21.73198649763111 0  14 0  C 6.268013502368892 0  0 6.268013502368892  0 14  C 0 21.73198649763111  6.268013502368892 28  14 28  C 21.73198649763111 28  28 21.73198649763111  28 14  Z M 17.21 2.450000000000001  C 22.061409716897046 3.7770542924617514  25.570479564986798 7.988736533343084  26 13  L 20 13  C 19.883268812170286 9.317086142165007  18.929132380155757 5.7091508884900035  17.21 2.450000000000001  Z M 14.699999999999994 25.999999999999996  C 14.466953202443687 26.016353390837722  14.233046797556305 26.016353390837722  14 25.999999999999996  C 13.776917866635422 26.014980163731238  13.553082133364576 26.014980163731238  13.330000000000002 26  C 11.258285688907218 22.69618724746145  10.108509673659366 18.898128338234304  10 15  L 18 15  C 17.90051412281389 18.89532388835534  16.761157967682426 22.693177738793555  14.699999999999994 25.999999999999996  Z M 18 13.000000000000004  L 10.000000000000004 13.000000000000004  C 10.099485877186108 9.104676111644665  11.238842032317574 5.306822261206445  13.3 2.000000000000001  C 13.7452654957569 1.9499657581373004  14.194734504243101 1.9499657581373004  14.64 2.000000000000001  C 16.722276223096426 5.300796165378829  17.882473790846714 9.099062012180362  18 13.000000000000004  Z M 10.79 2.450000000000001  L 10.760000000000002 2.450000000000001  C 9.051295732785661 5.711645091292582  8.10745309212507 9.319449388020558  8 13  L 2.000000000000001 13  C 2.429520435013198 7.988736533343084  5.938590283102952 3.77705429246175  10.79 2.450000000000001  Z M 10.8 25.55  C 5.964316173770579 24.208827162483452  2.47382763688437 20.000295269437796  2.0500000000000007 15  L 8.050000000000004 15  C 8.154358969710067 18.679763770510753  9.094770594656424 22.287524731668597  10.8 25.55  Z M 25.999999999999996 15  C 25.570479564986805 20.011263466656914  22.061409716897046 24.22294570753825  17.210000000000004 25.55  C 18.929132380155757 22.29084911151  19.883268812170286 18.682913857834993  20 15  L 25.999999999999996 15  Z " fill-rule="evenodd" />
    </mask>
  </defs>
  <g transform="matrix(1 0 0 1 -2 -2 )">
    <path d="M 28 14  C 28 6.268013502368892  21.73198649763111 0  14 0  C 6.268013502368892 0  0 6.268013502368892  0 14  C 0 21.73198649763111  6.268013502368892 28  14 28  C 21.73198649763111 28  28 21.73198649763111  28 14  Z M 17.21 2.450000000000001  C 22.061409716897046 3.7770542924617514  25.570479564986798 7.988736533343084  26 13  L 20 13  C 19.883268812170286 9.317086142165007  18.929132380155757 5.7091508884900035  17.21 2.450000000000001  Z M 14.699999999999994 25.999999999999996  C 14.466953202443687 26.016353390837722  14.233046797556305 26.016353390837722  14 25.999999999999996  C 13.776917866635422 26.014980163731238  13.553082133364576 26.014980163731238  13.330000000000002 26  C 11.258285688907218 22.69618724746145  10.108509673659366 18.898128338234304  10 15  L 18 15  C 17.90051412281389 18.89532388835534  16.761157967682426 22.693177738793555  14.699999999999994 25.999999999999996  Z M 18 13.000000000000004  L 10.000000000000004 13.000000000000004  C 10.099485877186108 9.104676111644665  11.238842032317574 5.306822261206445  13.3 2.000000000000001  C 13.7452654957569 1.9499657581373004  14.194734504243101 1.9499657581373004  14.64 2.000000000000001  C 16.722276223096426 5.300796165378829  17.882473790846714 9.099062012180362  18 13.000000000000004  Z M 10.79 2.450000000000001  L 10.760000000000002 2.450000000000001  C 9.051295732785661 5.711645091292582  8.10745309212507 9.319449388020558  8 13  L 2.000000000000001 13  C 2.429520435013198 7.988736533343084  5.938590283102952 3.77705429246175  10.79 2.450000000000001  Z M 10.8 25.55  C 5.964316173770579 24.208827162483452  2.47382763688437 20.000295269437796  2.0500000000000007 15  L 8.050000000000004 15  C 8.154358969710067 18.679763770510753  9.094770594656424 22.287524731668597  10.8 25.55  Z M 25.999999999999996 15  C 25.570479564986805 20.011263466656914  22.061409716897046 24.22294570753825  17.210000000000004 25.55  C 18.929132380155757 22.29084911151  19.883268812170286 18.682913857834993  20 15  L 25.999999999999996 15  Z " fill-rule="nonzero" fill="rgba(0, 0, 0, 1)" stroke="none" transform="matrix(1 0 0 1 2 2 )" class="fill" />
    <path d="M 28 14  C 28 6.268013502368892  21.73198649763111 0  14 0  C 6.268013502368892 0  0 6.268013502368892  0 14  C 0 21.73198649763111  6.268013502368892 28  14 28  C 21.73198649763111 28  28 21.73198649763111  28 14  Z " stroke-width="0" stroke-dasharray="0" stroke="rgba(255, 255, 255, 0)" fill="none" transform="matrix(1 0 0 1 2 2 )" class="stroke" mask="url(#Clip4513)" />
    <path d="M 17.21 2.450000000000001  C 22.061409716897046 3.7770542924617514  25.570479564986798 7.988736533343084  26 13  L 20 13  C 19.883268812170286 9.317086142165007  18.929132380155757 5.7091508884900035  17.21 2.450000000000001  Z " stroke-width="0" stroke-dasharray="0" stroke="rgba(255, 255, 255, 0)" fill="none" transform="matrix(1 0 0 1 2 2 )" class="stroke" mask="url(#Clip4513)" />
    <path d="M 14.699999999999994 25.999999999999996  C 14.466953202443687 26.016353390837722  14.233046797556305 26.016353390837722  14 25.999999999999996  C 13.776917866635422 26.014980163731238  13.553082133364576 26.014980163731238  13.330000000000002 26  C 11.258285688907218 22.69618724746145  10.108509673659366 18.898128338234304  10 15  L 18 15  C 17.90051412281389 18.89532388835534  16.761157967682426 22.693177738793555  14.699999999999994 25.999999999999996  Z " stroke-width="0" stroke-dasharray="0" stroke="rgba(255, 255, 255, 0)" fill="none" transform="matrix(1 0 0 1 2 2 )" class="stroke" mask="url(#Clip4513)" />
    <path d="M 18 13.000000000000004  L 10.000000000000004 13.000000000000004  C 10.099485877186108 9.104676111644665  11.238842032317574 5.306822261206445  13.3 2.000000000000001  C 13.7452654957569 1.9499657581373004  14.194734504243101 1.9499657581373004  14.64 2.000000000000001  C 16.722276223096426 5.300796165378829  17.882473790846714 9.099062012180362  18 13.000000000000004  Z " stroke-width="0" stroke-dasharray="0" stroke="rgba(255, 255, 255, 0)" fill="none" transform="matrix(1 0 0 1 2 2 )" class="stroke" mask="url(#Clip4513)" />
    <path d="M 10.79 2.450000000000001  L 10.760000000000002 2.450000000000001  C 9.051295732785661 5.711645091292582  8.10745309212507 9.319449388020558  8 13  L 2.000000000000001 13  C 2.429520435013198 7.988736533343084  5.938590283102952 3.77705429246175  10.79 2.450000000000001  Z " stroke-width="0" stroke-dasharray="0" stroke="rgba(255, 255, 255, 0)" fill="none" transform="matrix(1 0 0 1 2 2 )" class="stroke" mask="url(#Clip4513)" />
    <path d="M 10.8 25.55  C 5.964316173770579 24.208827162483452  2.47382763688437 20.000295269437796  2.0500000000000007 15  L 8.050000000000004 15  C 8.154358969710067 18.679763770510753  9.094770594656424 22.287524731668597  10.8 25.55  Z " stroke-width="0" stroke-dasharray="0" stroke="rgba(255, 255, 255, 0)" fill="none" transform="matrix(1 0 0 1 2 2 )" class="stroke" mask="url(#Clip4513)" />
    <path d="M 25.999999999999996 15  C 25.570479564986805 20.011263466656914  22.061409716897046 24.22294570753825  17.210000000000004 25.55  C 18.929132380155757 22.29084911151  19.883268812170286 18.682913857834993  20 15  L 25.999999999999996 15  Z " stroke-width="0" stroke-dasharray="0" stroke="rgba(255, 255, 255, 0)" fill="none" transform="matrix(1 0 0 1 2 2 )" class="stroke" mask="url(#Clip4513)" />
  </g>
</svg>