<?xml version="1.0" encoding="utf-8"?>
<svg version="1.1" xmlns:xlink="http://www.w3.org/1999/xlink" width="49px" height="49px" xmlns="http://www.w3.org/2000/svg">
  <defs>
    <pattern id="BGPattern" patternUnits="userSpaceOnUse" alignment="0 0" imageRepeat="None" />
    <mask fill="white" id="Clip2382">
      <path d="M 43.70625000000001 26.831249999999997  C 48.66875000000001 21.874999999999996  49.58750000000002 14.231249999999994  46.08125 8.29375  C 46.0625 8.274999999999999  42.262499999999996 12.03125  34.699999999999996 19.581249999999997  L 29.393749999999997 14.275  L 40.699999999999996 2.9687499999999982  C 34.74999999999999 -0.6125000000000016  27.106249999999992 0.3062499999999986  22.149999999999995 5.262499999999999  C 18.29422985695321 9.116103932657477  16.784172921511228 14.732372471730327  18.1875 20  L 18.3 20.41875  L 0.5812500000000007 38.131249999999994  C 0.19375000000000142 38.51875  0.19375000000000142 39.15624999999999  0.5812500000000007 39.543749999999996  L 9.418750000000003 48.381249999999994  C 9.806250000000002 48.76875  10.443750000000001 48.76875  10.831250000000004 48.381249999999994  L 28.53750000000001 30.674999999999994  L 28.95625000000001 30.78749999999999  C 34.187500000000014 32.18124999999999  39.80625000000001 30.731249999999996  43.70625000000001 26.831249999999997  Z " fill-rule="evenodd" />
    </mask>
  </defs>
  <g>
    <path d="M 43.70625000000001 26.831249999999997  C 48.66875000000001 21.874999999999996  49.58750000000002 14.231249999999994  46.08125 8.29375  C 46.0625 8.274999999999999  42.262499999999996 12.03125  34.699999999999996 19.581249999999997  L 29.393749999999997 14.275  L 40.699999999999996 2.9687499999999982  C 34.74999999999999 -0.6125000000000016  27.106249999999992 0.3062499999999986  22.149999999999995 5.262499999999999  C 18.29422985695321 9.116103932657477  16.784172921511228 14.732372471730327  18.1875 20  L 18.3 20.41875  L 0.5812500000000007 38.131249999999994  C 0.19375000000000142 38.51875  0.19375000000000142 39.15624999999999  0.5812500000000007 39.543749999999996  L 9.418750000000003 48.381249999999994  C 9.806250000000002 48.76875  10.443750000000001 48.76875  10.831250000000004 48.381249999999994  L 28.53750000000001 30.674999999999994  L 28.95625000000001 30.78749999999999  C 34.187500000000014 32.18124999999999  39.80625000000001 30.731249999999996  43.70625000000001 26.831249999999997  Z " fill-rule="nonzero" fill="rgba(0, 0, 0, 1)" stroke="none" class="fill" />
    <path d="M 43.70625000000001 26.831249999999997  C 48.66875000000001 21.874999999999996  49.58750000000002 14.231249999999994  46.08125 8.29375  C 46.0625 8.274999999999999  42.262499999999996 12.03125  34.699999999999996 19.581249999999997  L 29.393749999999997 14.275  L 40.699999999999996 2.9687499999999982  C 34.74999999999999 -0.6125000000000016  27.106249999999992 0.3062499999999986  22.149999999999995 5.262499999999999  C 18.29422985695321 9.116103932657477  16.784172921511228 14.732372471730327  18.1875 20  L 18.3 20.41875  L 0.5812500000000007 38.131249999999994  C 0.19375000000000142 38.51875  0.19375000000000142 39.15624999999999  0.5812500000000007 39.543749999999996  L 9.418750000000003 48.381249999999994  C 9.806250000000002 48.76875  10.443750000000001 48.76875  10.831250000000004 48.381249999999994  L 28.53750000000001 30.674999999999994  L 28.95625000000001 30.78749999999999  C 34.187500000000014 32.18124999999999  39.80625000000001 30.731249999999996  43.70625000000001 26.831249999999997  Z " stroke-width="0" stroke-dasharray="0" stroke="rgba(255, 255, 255, 0)" fill="none" class="stroke" mask="url(#Clip2382)" />
  </g>
</svg>