<?xml version="1.0" encoding="utf-8"?>
<svg version="1.1" xmlns:xlink="http://www.w3.org/1999/xlink" width="50px" height="50px" xmlns="http://www.w3.org/2000/svg">
  <defs>
    <pattern id="BGPattern" patternUnits="userSpaceOnUse" alignment="0 0" imageRepeat="None" />
    <mask fill="white" id="Clip838">
      <path d="M 44.0625 24.508928571428555  C 44.0625 13.950892857142891  35.50223214285711 5.390625  24.955357142857167 5.390625  C 14.397321428571416 5.390625  5.859375 13.950892857142833  5.859375 24.497767857142833  C 5.859375 35.04464285714283  14.397321428571416 43.616071428571445  24.955357142857167 43.616071428571445  C 35.51339285714283 43.616071428571445  44.0625 35.055803571428555  44.0625 24.508928571428555  Z M 33.928571428571445 13.470982142857169  C 33.91741071428572 32.51116071428572  33.97321428571428 31.484374999999996  33.81696428571428 32.17633928571428  C 33.459821428571445 33.694196428571445  32.31026785714283 34.54241071428572  30.770089285714274 34.83258928571428  C 29.41964285714283 35.078125  28.292410714285722 35.14508928571428  27.209821428571445 34.274553571428555  C 25.89285714285711 33.15848214285717  25.870535714285726 31.328125  27.053571428571445 30.167410714285726  C 27.991071428571445 29.27455357142856  29.31919642857144 29.095982142857167  31.294642857142836 28.738839285714278  C 31.629464285714278 28.683035714285722  31.919642857142833 28.604910714285726  32.15401785714283 28.325892857142833  C 32.51116071428572 27.924107142857167  32.399553571428555 28.10267857142856  32.399553571428555 19.308035714285722  C 32.399553571428555 18.683035714285722  32.09821428571428 18.515625  31.462053571428555 18.627232142857167  C 31.015625000000004 18.705357142857167  21.20535714285711 20.535714285714278  21.20535714285711 20.535714285714278  C 20.647321428571445 20.658482142857167  20.457589285714278 20.825892857142833  20.457589285714278 21.462053571428555  C 20.457589285714278 34.41964285714283  20.513392857142833 33.828125  20.323660714285722 34.6875  C 20.089285714285722 35.69196428571428  19.475446428571445 36.45089285714289  18.660714285714278 36.875  C 17.734375 37.38839285714289  16.04910714285714 37.61160714285717  15.156249999999998 37.45535714285717  C 12.767857142857139 37.008928571428555  11.930803571428555 34.25223214285717  13.549107142857139 32.66741071428572  C 14.486607142857139 31.774553571428555  15.814732142857139 31.595982142857164  17.790178571428555 31.238839285714278  C 18.125 31.183035714285722  18.415178571428555 31.104910714285722  18.649553571428555 30.82589285714289  C 19.207589285714278 30.189732142857167  18.75 16.651785714285722  18.93973214285711 15.904017857142891  C 18.984375 15.61383928571428  19.107142857142833 15.368303571428555  19.33035714285711 15.189732142857167  C 19.56473214285711 15  19.977678571428555 14.88839285714289  20.078125 14.88839285714289  C 31.350446428571445 12.767857142857167  32.72321428571428 12.5  32.92410714285711 12.5  C 33.56026785714283 12.455357142857167  33.928571428571445 12.834821428571445  33.928571428571445 13.470982142857169  Z M 50 11.473214285714278  C 50 5.122767857142833  44.87723214285717 0  38.52678571428572 0  L 11.473214285714278 0  C 5.122767857142861 0  0 5.122767857142833  0 11.473214285714278  L 0 38.52678571428572  C 0 44.87723214285717  5.122767857142861 50  11.473214285714278 50  L 38.52678571428572 50  C 44.88839285714283 50  50 44.87723214285717  50 38.52678571428572  L 50 11.473214285714278  Z M 46.43973214285717 24.497767857142833  C 46.43973214285717 36.36160714285717  36.819196428571445 45.98214285714283  24.955357142857167 45.98214285714283  C 13.091517857142861 45.98214285714283  3.470982142857139 36.36160714285717  3.470982142857139 24.497767857142833  C 3.470982142857139 12.633928571428555  13.091517857142861 3.013392857142833  24.955357142857167 3.013392857142833  C 36.819196428571445 3.013392857142833  46.43973214285717 12.633928571428555  46.43973214285717 24.497767857142833  Z " fill-rule="evenodd" />
    </mask>
  </defs>
  <g>
    <path d="M 44.0625 24.508928571428555  C 44.0625 13.950892857142891  35.50223214285711 5.390625  24.955357142857167 5.390625  C 14.397321428571416 5.390625  5.859375 13.950892857142833  5.859375 24.497767857142833  C 5.859375 35.04464285714283  14.397321428571416 43.616071428571445  24.955357142857167 43.616071428571445  C 35.51339285714283 43.616071428571445  44.0625 35.055803571428555  44.0625 24.508928571428555  Z M 33.928571428571445 13.470982142857169  C 33.91741071428572 32.51116071428572  33.97321428571428 31.484374999999996  33.81696428571428 32.17633928571428  C 33.459821428571445 33.694196428571445  32.31026785714283 34.54241071428572  30.770089285714274 34.83258928571428  C 29.41964285714283 35.078125  28.292410714285722 35.14508928571428  27.209821428571445 34.274553571428555  C 25.89285714285711 33.15848214285717  25.870535714285726 31.328125  27.053571428571445 30.167410714285726  C 27.991071428571445 29.27455357142856  29.31919642857144 29.095982142857167  31.294642857142836 28.738839285714278  C 31.629464285714278 28.683035714285722  31.919642857142833 28.604910714285726  32.15401785714283 28.325892857142833  C 32.51116071428572 27.924107142857167  32.399553571428555 28.10267857142856  32.399553571428555 19.308035714285722  C 32.399553571428555 18.683035714285722  32.09821428571428 18.515625  31.462053571428555 18.627232142857167  C 31.015625000000004 18.705357142857167  21.20535714285711 20.535714285714278  21.20535714285711 20.535714285714278  C 20.647321428571445 20.658482142857167  20.457589285714278 20.825892857142833  20.457589285714278 21.462053571428555  C 20.457589285714278 34.41964285714283  20.513392857142833 33.828125  20.323660714285722 34.6875  C 20.089285714285722 35.69196428571428  19.475446428571445 36.45089285714289  18.660714285714278 36.875  C 17.734375 37.38839285714289  16.04910714285714 37.61160714285717  15.156249999999998 37.45535714285717  C 12.767857142857139 37.008928571428555  11.930803571428555 34.25223214285717  13.549107142857139 32.66741071428572  C 14.486607142857139 31.774553571428555  15.814732142857139 31.595982142857164  17.790178571428555 31.238839285714278  C 18.125 31.183035714285722  18.415178571428555 31.104910714285722  18.649553571428555 30.82589285714289  C 19.207589285714278 30.189732142857167  18.75 16.651785714285722  18.93973214285711 15.904017857142891  C 18.984375 15.61383928571428  19.107142857142833 15.368303571428555  19.33035714285711 15.189732142857167  C 19.56473214285711 15  19.977678571428555 14.88839285714289  20.078125 14.88839285714289  C 31.350446428571445 12.767857142857167  32.72321428571428 12.5  32.92410714285711 12.5  C 33.56026785714283 12.455357142857167  33.928571428571445 12.834821428571445  33.928571428571445 13.470982142857169  Z M 50 11.473214285714278  C 50 5.122767857142833  44.87723214285717 0  38.52678571428572 0  L 11.473214285714278 0  C 5.122767857142861 0  0 5.122767857142833  0 11.473214285714278  L 0 38.52678571428572  C 0 44.87723214285717  5.122767857142861 50  11.473214285714278 50  L 38.52678571428572 50  C 44.88839285714283 50  50 44.87723214285717  50 38.52678571428572  L 50 11.473214285714278  Z M 46.43973214285717 24.497767857142833  C 46.43973214285717 36.36160714285717  36.819196428571445 45.98214285714283  24.955357142857167 45.98214285714283  C 13.091517857142861 45.98214285714283  3.470982142857139 36.36160714285717  3.470982142857139 24.497767857142833  C 3.470982142857139 12.633928571428555  13.091517857142861 3.013392857142833  24.955357142857167 3.013392857142833  C 36.819196428571445 3.013392857142833  46.43973214285717 12.633928571428555  46.43973214285717 24.497767857142833  Z " fill-rule="nonzero" fill="rgba(0, 0, 0, 1)" stroke="none" class="fill" />
    <path d="M 44.0625 24.508928571428555  C 44.0625 13.950892857142891  35.50223214285711 5.390625  24.955357142857167 5.390625  C 14.397321428571416 5.390625  5.859375 13.950892857142833  5.859375 24.497767857142833  C 5.859375 35.04464285714283  14.397321428571416 43.616071428571445  24.955357142857167 43.616071428571445  C 35.51339285714283 43.616071428571445  44.0625 35.055803571428555  44.0625 24.508928571428555  Z " stroke-width="0" stroke-dasharray="0" stroke="rgba(255, 255, 255, 0)" fill="none" class="stroke" mask="url(#Clip838)" />
    <path d="M 33.928571428571445 13.470982142857169  C 33.91741071428572 32.51116071428572  33.97321428571428 31.484374999999996  33.81696428571428 32.17633928571428  C 33.459821428571445 33.694196428571445  32.31026785714283 34.54241071428572  30.770089285714274 34.83258928571428  C 29.41964285714283 35.078125  28.292410714285722 35.14508928571428  27.209821428571445 34.274553571428555  C 25.89285714285711 33.15848214285717  25.870535714285726 31.328125  27.053571428571445 30.167410714285726  C 27.991071428571445 29.27455357142856  29.31919642857144 29.095982142857167  31.294642857142836 28.738839285714278  C 31.629464285714278 28.683035714285722  31.919642857142833 28.604910714285726  32.15401785714283 28.325892857142833  C 32.51116071428572 27.924107142857167  32.399553571428555 28.10267857142856  32.399553571428555 19.308035714285722  C 32.399553571428555 18.683035714285722  32.09821428571428 18.515625  31.462053571428555 18.627232142857167  C 31.015625000000004 18.705357142857167  21.20535714285711 20.535714285714278  21.20535714285711 20.535714285714278  C 20.647321428571445 20.658482142857167  20.457589285714278 20.825892857142833  20.457589285714278 21.462053571428555  C 20.457589285714278 34.41964285714283  20.513392857142833 33.828125  20.323660714285722 34.6875  C 20.089285714285722 35.69196428571428  19.475446428571445 36.45089285714289  18.660714285714278 36.875  C 17.734375 37.38839285714289  16.04910714285714 37.61160714285717  15.156249999999998 37.45535714285717  C 12.767857142857139 37.008928571428555  11.930803571428555 34.25223214285717  13.549107142857139 32.66741071428572  C 14.486607142857139 31.774553571428555  15.814732142857139 31.595982142857164  17.790178571428555 31.238839285714278  C 18.125 31.183035714285722  18.415178571428555 31.104910714285722  18.649553571428555 30.82589285714289  C 19.207589285714278 30.189732142857167  18.75 16.651785714285722  18.93973214285711 15.904017857142891  C 18.984375 15.61383928571428  19.107142857142833 15.368303571428555  19.33035714285711 15.189732142857167  C 19.56473214285711 15  19.977678571428555 14.88839285714289  20.078125 14.88839285714289  C 31.350446428571445 12.767857142857167  32.72321428571428 12.5  32.92410714285711 12.5  C 33.56026785714283 12.455357142857167  33.928571428571445 12.834821428571445  33.928571428571445 13.470982142857169  Z " stroke-width="0" stroke-dasharray="0" stroke="rgba(255, 255, 255, 0)" fill="none" class="stroke" mask="url(#Clip838)" />
    <path d="M 50 11.473214285714278  C 50 5.122767857142833  44.87723214285717 0  38.52678571428572 0  L 11.473214285714278 0  C 5.122767857142861 0  0 5.122767857142833  0 11.473214285714278  L 0 38.52678571428572  C 0 44.87723214285717  5.122767857142861 50  11.473214285714278 50  L 38.52678571428572 50  C 44.88839285714283 50  50 44.87723214285717  50 38.52678571428572  L 50 11.473214285714278  Z " stroke-width="0" stroke-dasharray="0" stroke="rgba(255, 255, 255, 0)" fill="none" class="stroke" mask="url(#Clip838)" />
    <path d="M 46.43973214285717 24.497767857142833  C 46.43973214285717 36.36160714285717  36.819196428571445 45.98214285714283  24.955357142857167 45.98214285714283  C 13.091517857142861 45.98214285714283  3.470982142857139 36.36160714285717  3.470982142857139 24.497767857142833  C 3.470982142857139 12.633928571428555  13.091517857142861 3.013392857142833  24.955357142857167 3.013392857142833  C 36.819196428571445 3.013392857142833  46.43973214285717 12.633928571428555  46.43973214285717 24.497767857142833  Z " stroke-width="0" stroke-dasharray="0" stroke="rgba(255, 255, 255, 0)" fill="none" class="stroke" mask="url(#Clip838)" />
  </g>
</svg>