<?xml version="1.0" encoding="utf-8"?>
<svg version="1.1" xmlns:xlink="http://www.w3.org/1999/xlink" width="17px" height="18px" xmlns="http://www.w3.org/2000/svg">
  <defs>
    <pattern id="BGPattern" patternUnits="userSpaceOnUse" alignment="0 0" imageRepeat="None" />
    <mask fill="white" id="Clip4906">
      <path d="M 2 5.25  L 2 2.25  C 2 1.835786437626905  2.335786437626904 1.5  2.75 1.5  L 14.75 1.5  C 15.164213562373096 1.5  15.5 1.835786437626905  15.5 2.25  L 15.5 15.75  C 15.5 16.164213562373096  15.164213562373096 16.5  14.75 16.5  L 2.75 16.5  C 2.335786437626904 16.5  2 16.164213562373096  2 15.75  L 2 12.75  C 2 12.335786437626904  1.6642135623730958 12  1.25 12  C 0.8357864376269051 12  0.5 12.335786437626904  0.5 12.75  L 0.5 15.749999999999996  C 0.5 16.992640687119284  1.5073593128807161 17.999999999999996  2.75 18  L 14.75 17.999999999999996  C 15.992640687119284 17.999999999999996  17 16.992640687119284  17 15.75  L 17 2.249999999999999  C 17 1.0073593128807143  15.992640687119284 0  14.75 0  L 2.75 0  C 1.5073593128807161 0  0.5 1.0073593128807143  0.5 2.25  L 0.5 5.25  C 0.5 5.664213562373096  0.8357864376269051 6  1.25 6  C 1.6642135623730958 6  2 5.664213562373096  2 5.25  Z " fill-rule="evenodd" />
    </mask>
  </defs>
  <g transform="matrix(1 0 0 1 -6 0 )">
    <path d="M 2 5.25  L 2 2.25  C 2 1.835786437626905  2.335786437626904 1.5  2.75 1.5  L 14.75 1.5  C 15.164213562373096 1.5  15.5 1.835786437626905  15.5 2.25  L 15.5 15.75  C 15.5 16.164213562373096  15.164213562373096 16.5  14.75 16.5  L 2.75 16.5  C 2.335786437626904 16.5  2 16.164213562373096  2 15.75  L 2 12.75  C 2 12.335786437626904  1.6642135623730958 12  1.25 12  C 0.8357864376269051 12  0.5 12.335786437626904  0.5 12.75  L 0.5 15.749999999999996  C 0.5 16.992640687119284  1.5073593128807161 17.999999999999996  2.75 18  L 14.75 17.999999999999996  C 15.992640687119284 17.999999999999996  17 16.992640687119284  17 15.75  L 17 2.249999999999999  C 17 1.0073593128807143  15.992640687119284 0  14.75 0  L 2.75 0  C 1.5073593128807161 0  0.5 1.0073593128807143  0.5 2.25  L 0.5 5.25  C 0.5 5.664213562373096  0.8357864376269051 6  1.25 6  C 1.6642135623730958 6  2 5.664213562373096  2 5.25  Z " fill-rule="nonzero" fill="rgba(0, 0, 0, 1)" stroke="none" transform="matrix(1 0 0 1 6 0 )" class="fill" />
    <path d="M 2 5.25  L 2 2.25  C 2 1.835786437626905  2.335786437626904 1.5  2.75 1.5  L 14.75 1.5  C 15.164213562373096 1.5  15.5 1.835786437626905  15.5 2.25  L 15.5 15.75  C 15.5 16.164213562373096  15.164213562373096 16.5  14.75 16.5  L 2.75 16.5  C 2.335786437626904 16.5  2 16.164213562373096  2 15.75  L 2 12.75  C 2 12.335786437626904  1.6642135623730958 12  1.25 12  C 0.8357864376269051 12  0.5 12.335786437626904  0.5 12.75  L 0.5 15.749999999999996  C 0.5 16.992640687119284  1.5073593128807161 17.999999999999996  2.75 18  L 14.75 17.999999999999996  C 15.992640687119284 17.999999999999996  17 16.992640687119284  17 15.75  L 17 2.249999999999999  C 17 1.0073593128807143  15.992640687119284 0  14.75 0  L 2.75 0  C 1.5073593128807161 0  0.5 1.0073593128807143  0.5 2.25  L 0.5 5.25  C 0.5 5.664213562373096  0.8357864376269051 6  1.25 6  C 1.6642135623730958 6  2 5.664213562373096  2 5.25  Z " stroke-width="0" stroke-dasharray="0" stroke="rgba(255, 255, 255, 0)" fill="none" transform="matrix(1 0 0 1 6 0 )" class="stroke" mask="url(#Clip4906)" />
  </g>
</svg>