<?xml version="1.0" encoding="utf-8"?>
<svg version="1.1" xmlns:xlink="http://www.w3.org/1999/xlink" width="14px" height="13px" xmlns="http://www.w3.org/2000/svg">
  <defs>
    <pattern id="BGPattern" patternUnits="userSpaceOnUse" alignment="0 0" imageRepeat="None" />
    <mask fill="white" id="Clip3206">
      <path d="M 9.6 10  L 7.9 13  L 7 12.5  L 9 9  L 12 9  C 12.6 9  13 8.6  13 8  L 13 2  C 13 1.4  12.6 1  12 1  L 2 1  C 1.4 1  1 1.4  1 2  L 1 8  C 1 8.6  1.4 9  2 9  L 6.5 9  L 6.5 10  L 2 10  C 0.8999999999999999 10  0 9.1  0 8  L 0 2  C 0 0.8999999999999999  0.8999999999999999 0  2 0  L 12 0  C 13.1 0  14 0.8999999999999999  14 2  L 14 8  C 14 9.1  13.1 10  12 10  L 9.6 10  Z " fill-rule="evenodd" />
    </mask>
  </defs>
  <g transform="matrix(1 0 0 1 -1 -1 )">
    <path d="M 9.6 10  L 7.9 13  L 7 12.5  L 9 9  L 12 9  C 12.6 9  13 8.6  13 8  L 13 2  C 13 1.4  12.6 1  12 1  L 2 1  C 1.4 1  1 1.4  1 2  L 1 8  C 1 8.6  1.4 9  2 9  L 6.5 9  L 6.5 10  L 2 10  C 0.8999999999999999 10  0 9.1  0 8  L 0 2  C 0 0.8999999999999999  0.8999999999999999 0  2 0  L 12 0  C 13.1 0  14 0.8999999999999999  14 2  L 14 8  C 14 9.1  13.1 10  12 10  L 9.6 10  Z " fill-rule="nonzero" fill="rgba(0, 0, 0, 1)" stroke="none" transform="matrix(1 0 0 1 1 1 )" class="fill" />
    <path d="M 9.6 10  L 7.9 13  L 7 12.5  L 9 9  L 12 9  C 12.6 9  13 8.6  13 8  L 13 2  C 13 1.4  12.6 1  12 1  L 2 1  C 1.4 1  1 1.4  1 2  L 1 8  C 1 8.6  1.4 9  2 9  L 6.5 9  L 6.5 10  L 2 10  C 0.8999999999999999 10  0 9.1  0 8  L 0 2  C 0 0.8999999999999999  0.8999999999999999 0  2 0  L 12 0  C 13.1 0  14 0.8999999999999999  14 2  L 14 8  C 14 9.1  13.1 10  12 10  L 9.6 10  Z " stroke-width="0" stroke-dasharray="0" stroke="rgba(255, 255, 255, 0)" fill="none" transform="matrix(1 0 0 1 1 1 )" class="stroke" mask="url(#Clip3206)" />
  </g>
</svg>