<?xml version="1.0" encoding="utf-8"?>
<svg version="1.1" xmlns:xlink="http://www.w3.org/1999/xlink" width="48px" height="28px" xmlns="http://www.w3.org/2000/svg">
  <defs>
    <pattern id="BGPattern" patternUnits="userSpaceOnUse" alignment="0 0" imageRepeat="None" />
    <mask fill="white" id="Clip7366">
      <path d="M 47.98 14  L 48 14  L 48 13.32  L 47.940000000000005 12.840000000000003  C 47.409956581760454 7.681597548125545  43.337306601933506 3.6006019740776334  38.18 3.0600000000000005  L 37.7 3.040000000000001  L 37.6 3.040000000000001  L 37.06000000000001 3.0200000000000014  C 34.14986977644421 3.0079891398136187  31.3557727895995 4.160194082842363  29.300000000000004 6.220000000000002  L 25.6 9.940000000000001  L 28.3 12.66  L 31 9.96  L 30.979999999999997 9.96  L 31.980000000000004 8.940000000000001  C 33.3178053871469 7.591255413071817  35.14031345075452 6.834878548728732  37.04 6.84  L 37.44 6.84  L 37.76 6.859999999999996  C 41.13546101124741 7.201776022609582  43.80766085411924 9.865625240972445  44.16 13.239999999999998  L 44.15999999999999 14.699999999999994  C 43.89602761995766 17.156681804155998  42.38406670094417 19.303666309155147  40.16 20.38  L 40.099999999999994 20.419999999999998  L 39.89999999999999 20.499999999999996  L 39.75999999999999 20.559999999999995  L 39.63999999999999 20.619999999999994  L 39.419999999999995 20.699999999999992  L 39.359999999999985 20.699999999999992  C 36.78086114502291 21.592249449150312  33.9187879512913 20.940720592040684  31.979999999999997 19.019999999999992  L 30.979999999999993 18.019999999999992  L 24.239999999999995 11.299999999999994  L 13.479999999999993 0.5199999999999942  L 10.779999999999994 3.2199999999999953  L 0 14  L 2.7 16.7  L 13.48 27.479999999999997  L 16.16 24.779999999999994  L 22.9 18.039999999999992  L 20.22 15.339999999999993  L 13.48 22.07999999999999  L 5.4 14  L 13.48 5.92  L 17.52 9.96  L 28.299999999999997 20.740000000000002  L 29.299999999999997 21.740000000000002  C 32.25745001432466 24.700043151728444  36.64628809350803 25.70986430269099  40.599999999999994 24.340000000000003  L 40.699999999999996 24.32  L 41.019999999999996 24.18  L 41.22 24.1  L 41.44 24.020000000000003  L 41.76 23.880000000000003  L 41.86 23.82  C 45.25193848059519 22.163205395482372  47.55007500813134 18.874753456409266  47.94 15.120000000000001  L 47.94 15.100000000000001  L 47.98 14.62  L 47.98 14.540000000000003  L 47.98 14  Z " fill-rule="evenodd" />
    </mask>
  </defs>
  <g>
    <path d="M 47.98 14  L 48 14  L 48 13.32  L 47.940000000000005 12.840000000000003  C 47.409956581760454 7.681597548125545  43.337306601933506 3.6006019740776334  38.18 3.0600000000000005  L 37.7 3.040000000000001  L 37.6 3.040000000000001  L 37.06000000000001 3.0200000000000014  C 34.14986977644421 3.0079891398136187  31.3557727895995 4.160194082842363  29.300000000000004 6.220000000000002  L 25.6 9.940000000000001  L 28.3 12.66  L 31 9.96  L 30.979999999999997 9.96  L 31.980000000000004 8.940000000000001  C 33.3178053871469 7.591255413071817  35.14031345075452 6.834878548728732  37.04 6.84  L 37.44 6.84  L 37.76 6.859999999999996  C 41.13546101124741 7.201776022609582  43.80766085411924 9.865625240972445  44.16 13.239999999999998  L 44.15999999999999 14.699999999999994  C 43.89602761995766 17.156681804155998  42.38406670094417 19.303666309155147  40.16 20.38  L 40.099999999999994 20.419999999999998  L 39.89999999999999 20.499999999999996  L 39.75999999999999 20.559999999999995  L 39.63999999999999 20.619999999999994  L 39.419999999999995 20.699999999999992  L 39.359999999999985 20.699999999999992  C 36.78086114502291 21.592249449150312  33.9187879512913 20.940720592040684  31.979999999999997 19.019999999999992  L 30.979999999999993 18.019999999999992  L 24.239999999999995 11.299999999999994  L 13.479999999999993 0.5199999999999942  L 10.779999999999994 3.2199999999999953  L 0 14  L 2.7 16.7  L 13.48 27.479999999999997  L 16.16 24.779999999999994  L 22.9 18.039999999999992  L 20.22 15.339999999999993  L 13.48 22.07999999999999  L 5.4 14  L 13.48 5.92  L 17.52 9.96  L 28.299999999999997 20.740000000000002  L 29.299999999999997 21.740000000000002  C 32.25745001432466 24.700043151728444  36.64628809350803 25.70986430269099  40.599999999999994 24.340000000000003  L 40.699999999999996 24.32  L 41.019999999999996 24.18  L 41.22 24.1  L 41.44 24.020000000000003  L 41.76 23.880000000000003  L 41.86 23.82  C 45.25193848059519 22.163205395482372  47.55007500813134 18.874753456409266  47.94 15.120000000000001  L 47.94 15.100000000000001  L 47.98 14.62  L 47.98 14.540000000000003  L 47.98 14  Z " fill-rule="nonzero" fill="rgba(45, 46, 131, 1)" stroke="none" class="fill" />
    <path d="M 47.98 14  L 48 14  L 48 13.32  L 47.940000000000005 12.840000000000003  C 47.409956581760454 7.681597548125545  43.337306601933506 3.6006019740776334  38.18 3.0600000000000005  L 37.7 3.040000000000001  L 37.6 3.040000000000001  L 37.06000000000001 3.0200000000000014  C 34.14986977644421 3.0079891398136187  31.3557727895995 4.160194082842363  29.300000000000004 6.220000000000002  L 25.6 9.940000000000001  L 28.3 12.66  L 31 9.96  L 30.979999999999997 9.96  L 31.980000000000004 8.940000000000001  C 33.3178053871469 7.591255413071817  35.14031345075452 6.834878548728732  37.04 6.84  L 37.44 6.84  L 37.76 6.859999999999996  C 41.13546101124741 7.201776022609582  43.80766085411924 9.865625240972445  44.16 13.239999999999998  L 44.15999999999999 14.699999999999994  C 43.89602761995766 17.156681804155998  42.38406670094417 19.303666309155147  40.16 20.38  L 40.099999999999994 20.419999999999998  L 39.89999999999999 20.499999999999996  L 39.75999999999999 20.559999999999995  L 39.63999999999999 20.619999999999994  L 39.419999999999995 20.699999999999992  L 39.359999999999985 20.699999999999992  C 36.78086114502291 21.592249449150312  33.9187879512913 20.940720592040684  31.979999999999997 19.019999999999992  L 30.979999999999993 18.019999999999992  L 24.239999999999995 11.299999999999994  L 13.479999999999993 0.5199999999999942  L 10.779999999999994 3.2199999999999953  L 0 14  L 2.7 16.7  L 13.48 27.479999999999997  L 16.16 24.779999999999994  L 22.9 18.039999999999992  L 20.22 15.339999999999993  L 13.48 22.07999999999999  L 5.4 14  L 13.48 5.92  L 17.52 9.96  L 28.299999999999997 20.740000000000002  L 29.299999999999997 21.740000000000002  C 32.25745001432466 24.700043151728444  36.64628809350803 25.70986430269099  40.599999999999994 24.340000000000003  L 40.699999999999996 24.32  L 41.019999999999996 24.18  L 41.22 24.1  L 41.44 24.020000000000003  L 41.76 23.880000000000003  L 41.86 23.82  C 45.25193848059519 22.163205395482372  47.55007500813134 18.874753456409266  47.94 15.120000000000001  L 47.94 15.100000000000001  L 47.98 14.62  L 47.98 14.540000000000003  L 47.98 14  Z " stroke-width="0" stroke-dasharray="0" stroke="rgba(255, 255, 255, 0)" fill="none" class="stroke" mask="url(#Clip7366)" />
  </g>
</svg>