<?xml version="1.0" encoding="utf-8"?>
<svg version="1.1" xmlns:xlink="http://www.w3.org/1999/xlink" width="16px" height="2px" xmlns="http://www.w3.org/2000/svg">
  <defs>
    <pattern id="BGPattern" patternUnits="userSpaceOnUse" alignment="0 0" imageRepeat="None" />
    <mask fill="white" id="Clip6502">
      <path d="M 14.75 0.25  L 1.25 0.25  C 0.8357864376269051 0.25  0.5 0.5857864376269042  0.5 1  C 0.5 1.4142135623730958  0.8357864376269051 1.75  1.25 1.75  L 14.75 1.75  C 15.164213562373096 1.75  15.5 1.4142135623730958  15.5 1  C 15.5 0.5857864376269042  15.164213562373096 0.25  14.75 0.25  Z " fill-rule="evenodd" />
    </mask>
  </defs>
  <g transform="matrix(1 0 0 1 -4 -4 )">
    <path d="M 14.75 0.25  L 1.25 0.25  C 0.8357864376269051 0.25  0.5 0.5857864376269042  0.5 1  C 0.5 1.4142135623730958  0.8357864376269051 1.75  1.25 1.75  L 14.75 1.75  C 15.164213562373096 1.75  15.5 1.4142135623730958  15.5 1  C 15.5 0.5857864376269042  15.164213562373096 0.25  14.75 0.25  Z " fill-rule="nonzero" fill="rgba(0, 0, 0, 1)" stroke="none" transform="matrix(1 0 0 1 4 4 )" class="fill" />
    <path d="M 14.75 0.25  L 1.25 0.25  C 0.8357864376269051 0.25  0.5 0.5857864376269042  0.5 1  C 0.5 1.4142135623730958  0.8357864376269051 1.75  1.25 1.75  L 14.75 1.75  C 15.164213562373096 1.75  15.5 1.4142135623730958  15.5 1  C 15.5 0.5857864376269042  15.164213562373096 0.25  14.75 0.25  Z " stroke-width="0" stroke-dasharray="0" stroke="rgba(255, 255, 255, 0)" fill="none" transform="matrix(1 0 0 1 4 4 )" class="stroke" mask="url(#Clip6502)" />
  </g>
</svg>