<?xml version="1.0" encoding="utf-8"?>
<svg version="1.1" xmlns:xlink="http://www.w3.org/1999/xlink" width="22px" height="25px" xmlns="http://www.w3.org/2000/svg">
  <defs>
    <pattern id="BGPattern" patternUnits="userSpaceOnUse" alignment="0 0" imageRepeat="None" />
    <mask fill="white" id="Clip5597">
      <path d="M 15.250000000000002 0  L 22 6.75  L 22 21  C 22 22.65685424949238  20.65685424949238 24  19 24  L 13 24  L 13 22.5  L 19 22.5  C 19.82842712474619 22.5  20.5 21.82842712474619  20.5 21  L 20.5 6.75  L 17.5 6.75  C 16.257359312880716 6.75  15.250000000000002 5.742640687119285  15.250000000000002 4.5  L 15.250000000000002 1.5  L 7 1.5  C 6.17157287525381 1.5  5.5 2.1715728752538097  5.5 3  L 5.5 16.5  L 4 16.5  L 4 3  C 4 1.3431457505076196  5.343145750507619 0  7 0  L 15.250000000000002 0  Z M 6.214000000000002 23.497500000000002  C 6.030859113184175 23.342866010459645  5.882597081311669 23.151147865796922  5.779 22.935  C 5.679464361301827 22.723734983893692  5.6228699880454265 22.494808194775466  5.612500000000001 22.261499999999998  L 6.759999999999998 22.261499999999998  C 6.8021111307234445 22.498233596216327  6.9406436228823205 22.706847231467343  7.1425 22.8375  C 7.2475000000000005 22.910999999999998  7.371999999999999 22.968  7.515999999999998 23.0085  C 7.658499999999998 23.0505  7.818999999999998 23.07  7.994499999999999 23.07  C 8.240499999999999 23.07  8.447499999999998 23.035500000000003  8.613999999999999 22.965  C 8.766972131340097 22.907808668011672  8.899913411739893 22.807190365591428  8.9965 22.6755  C 9.082230643044706 22.546831873313206  9.12670686601043 22.39508946554779  9.123999999999999 22.240500000000004  C 9.132618162168505 22.049667624355052  9.046798536525083 21.866810121350113  8.8945 21.7515  C 8.743 21.631500000000003  8.512 21.535500000000003  8.2015 21.462000000000003  L 7.273000000000001 21.247500000000002  C 6.987274043691529 21.187032075581275  6.713888972539586 21.078489579799246  6.4645 20.926500000000004  C 6.24459714252137 20.791308298782056  6.063261680270152 20.601706832553575  5.938000000000001 20.375999999999998  C 5.810405486601727 20.134047876463182  5.746888387548534 19.863454706512993  5.753500000000001 19.589999999999996  C 5.753500000000001 19.223999999999997  5.848000000000001 18.9045  6.038500000000002 18.6315  C 6.229000000000001 18.36  6.493 18.1485  6.830500000000001 17.9985  C 7.166500000000001 17.848499999999998  7.555 17.775  7.9945 17.775  C 8.452 17.775  8.8405 17.85  9.1645 18.003  C 9.488500000000002 18.156  9.739 18.3615  9.9145 18.618  C 10.0945 18.872999999999998  10.1935 19.156499999999998  10.214500000000001 19.467  L 9.089500000000001 19.467  C 9.063820449961174 19.32465401171494  9.001819000375296 19.191350895105305  8.909500000000001 19.079999999999995  C 8.81046745178914 18.960131482391617  8.683133465450528 18.866821962038223  8.539000000000001 18.8085  C 8.363429644018716 18.73696207193045  8.175037644613793 18.702244847107863  7.985500000000002 18.7065  C 7.660000000000002 18.7065  7.403500000000001 18.7815  7.216000000000001 18.934499999999996  C 7.03770157970283 19.07173706983542  6.93524876603217 19.285551637495928  6.94 19.5105  C 6.94 19.692  7.012000000000001 19.8405  7.1545000000000005 19.960500000000003  C 7.33414847028072 20.093501978882372  7.542024986169931 20.183325164760426  7.762000000000001 20.223000000000003  L 8.692000000000002 20.437500000000004  C 9.019000000000002 20.512500000000003  9.301000000000002 20.6175  9.541 20.754000000000005  C 9.781000000000002 20.889000000000003  9.968500000000002 21.069000000000003  10.1035 21.291000000000004  C 10.238500000000002 21.513000000000005  10.306000000000001 21.793500000000005  10.306000000000001 22.131000000000004  C 10.306000000000001 22.501500000000004  10.211500000000001 22.830000000000005  10.024000000000001 23.115000000000002  C 9.824319785731646 23.408497821256244  9.543336199838572 23.63735087173316  9.215500000000002 23.773500000000006  C 8.864500000000001 23.931000000000004  8.435500000000001 24.010500000000008  7.928500000000002 24.010500000000008  C 7.547500000000003 24.010500000000008  7.214500000000003 23.96550000000001  6.931000000000003 23.87550000000001  C 6.669778957559526 23.797114568600758  6.426269814619387 23.66873736353608  6.214000000000002 23.497500000000002  Z M 1.4875000000000003 23.4705  C 1.3275519383557615 23.302262252863912  1.2035329672795867 23.103219459778686  1.1229999999999998 22.8855  C 1.0402338787945855 22.661810087624232  0.9985645767639261 22.425006493157316  1 22.186500000000002  L 2.1475 22.186500000000002  C 2.1501711411165827 22.328446083157036  2.187779852463131 22.467546796356594  2.2569999999999997 22.5915  C 2.397767102293307 22.83151811480576  2.6600586562684185 22.973640851100647  2.938 22.9605  C 3.223 22.9605  3.4330000000000007 22.878  3.5709999999999997 22.7145  C 3.709 22.549500000000002  3.7779999999999996 22.317  3.7779999999999996 22.015500000000003  L 3.7779999999999996 17.898000000000003  L 4.963 17.898000000000003  L 4.963 21.985500000000002  C 4.963 22.645500000000002  4.7844999999999995 23.146500000000003  4.4275 23.493000000000002  C 4.073500000000001 23.838000000000005  3.5815 24.0105  2.9515000000000002 24.0105  C 2.660783584185457 24.01592011260764  2.371526420757045 23.968134219176587  2.0980000000000003 23.869500000000006  C 1.8682823335455816 23.781739241616066  1.6600890271829436 23.645671871855715  1.4875000000000003 23.4705  Z " fill-rule="evenodd" />
    </mask>
  </defs>
  <g>
    <path d="M 15.250000000000002 0  L 22 6.75  L 22 21  C 22 22.65685424949238  20.65685424949238 24  19 24  L 13 24  L 13 22.5  L 19 22.5  C 19.82842712474619 22.5  20.5 21.82842712474619  20.5 21  L 20.5 6.75  L 17.5 6.75  C 16.257359312880716 6.75  15.250000000000002 5.742640687119285  15.250000000000002 4.5  L 15.250000000000002 1.5  L 7 1.5  C 6.17157287525381 1.5  5.5 2.1715728752538097  5.5 3  L 5.5 16.5  L 4 16.5  L 4 3  C 4 1.3431457505076196  5.343145750507619 0  7 0  L 15.250000000000002 0  Z M 6.214000000000002 23.497500000000002  C 6.030859113184175 23.342866010459645  5.882597081311669 23.151147865796922  5.779 22.935  C 5.679464361301827 22.723734983893692  5.6228699880454265 22.494808194775466  5.612500000000001 22.261499999999998  L 6.759999999999998 22.261499999999998  C 6.8021111307234445 22.498233596216327  6.9406436228823205 22.706847231467343  7.1425 22.8375  C 7.2475000000000005 22.910999999999998  7.371999999999999 22.968  7.515999999999998 23.0085  C 7.658499999999998 23.0505  7.818999999999998 23.07  7.994499999999999 23.07  C 8.240499999999999 23.07  8.447499999999998 23.035500000000003  8.613999999999999 22.965  C 8.766972131340097 22.907808668011672  8.899913411739893 22.807190365591428  8.9965 22.6755  C 9.082230643044706 22.546831873313206  9.12670686601043 22.39508946554779  9.123999999999999 22.240500000000004  C 9.132618162168505 22.049667624355052  9.046798536525083 21.866810121350113  8.8945 21.7515  C 8.743 21.631500000000003  8.512 21.535500000000003  8.2015 21.462000000000003  L 7.273000000000001 21.247500000000002  C 6.987274043691529 21.187032075581275  6.713888972539586 21.078489579799246  6.4645 20.926500000000004  C 6.24459714252137 20.791308298782056  6.063261680270152 20.601706832553575  5.938000000000001 20.375999999999998  C 5.810405486601727 20.134047876463182  5.746888387548534 19.863454706512993  5.753500000000001 19.589999999999996  C 5.753500000000001 19.223999999999997  5.848000000000001 18.9045  6.038500000000002 18.6315  C 6.229000000000001 18.36  6.493 18.1485  6.830500000000001 17.9985  C 7.166500000000001 17.848499999999998  7.555 17.775  7.9945 17.775  C 8.452 17.775  8.8405 17.85  9.1645 18.003  C 9.488500000000002 18.156  9.739 18.3615  9.9145 18.618  C 10.0945 18.872999999999998  10.1935 19.156499999999998  10.214500000000001 19.467  L 9.089500000000001 19.467  C 9.063820449961174 19.32465401171494  9.001819000375296 19.191350895105305  8.909500000000001 19.079999999999995  C 8.81046745178914 18.960131482391617  8.683133465450528 18.866821962038223  8.539000000000001 18.8085  C 8.363429644018716 18.73696207193045  8.175037644613793 18.702244847107863  7.985500000000002 18.7065  C 7.660000000000002 18.7065  7.403500000000001 18.7815  7.216000000000001 18.934499999999996  C 7.03770157970283 19.07173706983542  6.93524876603217 19.285551637495928  6.94 19.5105  C 6.94 19.692  7.012000000000001 19.8405  7.1545000000000005 19.960500000000003  C 7.33414847028072 20.093501978882372  7.542024986169931 20.183325164760426  7.762000000000001 20.223000000000003  L 8.692000000000002 20.437500000000004  C 9.019000000000002 20.512500000000003  9.301000000000002 20.6175  9.541 20.754000000000005  C 9.781000000000002 20.889000000000003  9.968500000000002 21.069000000000003  10.1035 21.291000000000004  C 10.238500000000002 21.513000000000005  10.306000000000001 21.793500000000005  10.306000000000001 22.131000000000004  C 10.306000000000001 22.501500000000004  10.211500000000001 22.830000000000005  10.024000000000001 23.115000000000002  C 9.824319785731646 23.408497821256244  9.543336199838572 23.63735087173316  9.215500000000002 23.773500000000006  C 8.864500000000001 23.931000000000004  8.435500000000001 24.010500000000008  7.928500000000002 24.010500000000008  C 7.547500000000003 24.010500000000008  7.214500000000003 23.96550000000001  6.931000000000003 23.87550000000001  C 6.669778957559526 23.797114568600758  6.426269814619387 23.66873736353608  6.214000000000002 23.497500000000002  Z M 1.4875000000000003 23.4705  C 1.3275519383557615 23.302262252863912  1.2035329672795867 23.103219459778686  1.1229999999999998 22.8855  C 1.0402338787945855 22.661810087624232  0.9985645767639261 22.425006493157316  1 22.186500000000002  L 2.1475 22.186500000000002  C 2.1501711411165827 22.328446083157036  2.187779852463131 22.467546796356594  2.2569999999999997 22.5915  C 2.397767102293307 22.83151811480576  2.6600586562684185 22.973640851100647  2.938 22.9605  C 3.223 22.9605  3.4330000000000007 22.878  3.5709999999999997 22.7145  C 3.709 22.549500000000002  3.7779999999999996 22.317  3.7779999999999996 22.015500000000003  L 3.7779999999999996 17.898000000000003  L 4.963 17.898000000000003  L 4.963 21.985500000000002  C 4.963 22.645500000000002  4.7844999999999995 23.146500000000003  4.4275 23.493000000000002  C 4.073500000000001 23.838000000000005  3.5815 24.0105  2.9515000000000002 24.0105  C 2.660783584185457 24.01592011260764  2.371526420757045 23.968134219176587  2.0980000000000003 23.869500000000006  C 1.8682823335455816 23.781739241616066  1.6600890271829436 23.645671871855715  1.4875000000000003 23.4705  Z " fill-rule="nonzero" fill="rgba(0, 0, 0, 1)" stroke="none" class="fill" />
    <path d="M 15.250000000000002 0  L 22 6.75  L 22 21  C 22 22.65685424949238  20.65685424949238 24  19 24  L 13 24  L 13 22.5  L 19 22.5  C 19.82842712474619 22.5  20.5 21.82842712474619  20.5 21  L 20.5 6.75  L 17.5 6.75  C 16.257359312880716 6.75  15.250000000000002 5.742640687119285  15.250000000000002 4.5  L 15.250000000000002 1.5  L 7 1.5  C 6.17157287525381 1.5  5.5 2.1715728752538097  5.5 3  L 5.5 16.5  L 4 16.5  L 4 3  C 4 1.3431457505076196  5.343145750507619 0  7 0  L 15.250000000000002 0  Z " stroke-width="0" stroke-dasharray="0" stroke="rgba(255, 255, 255, 0)" fill="none" class="stroke" mask="url(#Clip5597)" />
    <path d="M 6.214000000000002 23.497500000000002  C 6.030859113184175 23.342866010459645  5.882597081311669 23.151147865796922  5.779 22.935  C 5.679464361301827 22.723734983893692  5.6228699880454265 22.494808194775466  5.612500000000001 22.261499999999998  L 6.759999999999998 22.261499999999998  C 6.8021111307234445 22.498233596216327  6.9406436228823205 22.706847231467343  7.1425 22.8375  C 7.2475000000000005 22.910999999999998  7.371999999999999 22.968  7.515999999999998 23.0085  C 7.658499999999998 23.0505  7.818999999999998 23.07  7.994499999999999 23.07  C 8.240499999999999 23.07  8.447499999999998 23.035500000000003  8.613999999999999 22.965  C 8.766972131340097 22.907808668011672  8.899913411739893 22.807190365591428  8.9965 22.6755  C 9.082230643044706 22.546831873313206  9.12670686601043 22.39508946554779  9.123999999999999 22.240500000000004  C 9.132618162168505 22.049667624355052  9.046798536525083 21.866810121350113  8.8945 21.7515  C 8.743 21.631500000000003  8.512 21.535500000000003  8.2015 21.462000000000003  L 7.273000000000001 21.247500000000002  C 6.987274043691529 21.187032075581275  6.713888972539586 21.078489579799246  6.4645 20.926500000000004  C 6.24459714252137 20.791308298782056  6.063261680270152 20.601706832553575  5.938000000000001 20.375999999999998  C 5.810405486601727 20.134047876463182  5.746888387548534 19.863454706512993  5.753500000000001 19.589999999999996  C 5.753500000000001 19.223999999999997  5.848000000000001 18.9045  6.038500000000002 18.6315  C 6.229000000000001 18.36  6.493 18.1485  6.830500000000001 17.9985  C 7.166500000000001 17.848499999999998  7.555 17.775  7.9945 17.775  C 8.452 17.775  8.8405 17.85  9.1645 18.003  C 9.488500000000002 18.156  9.739 18.3615  9.9145 18.618  C 10.0945 18.872999999999998  10.1935 19.156499999999998  10.214500000000001 19.467  L 9.089500000000001 19.467  C 9.063820449961174 19.32465401171494  9.001819000375296 19.191350895105305  8.909500000000001 19.079999999999995  C 8.81046745178914 18.960131482391617  8.683133465450528 18.866821962038223  8.539000000000001 18.8085  C 8.363429644018716 18.73696207193045  8.175037644613793 18.702244847107863  7.985500000000002 18.7065  C 7.660000000000002 18.7065  7.403500000000001 18.7815  7.216000000000001 18.934499999999996  C 7.03770157970283 19.07173706983542  6.93524876603217 19.285551637495928  6.94 19.5105  C 6.94 19.692  7.012000000000001 19.8405  7.1545000000000005 19.960500000000003  C 7.33414847028072 20.093501978882372  7.542024986169931 20.183325164760426  7.762000000000001 20.223000000000003  L 8.692000000000002 20.437500000000004  C 9.019000000000002 20.512500000000003  9.301000000000002 20.6175  9.541 20.754000000000005  C 9.781000000000002 20.889000000000003  9.968500000000002 21.069000000000003  10.1035 21.291000000000004  C 10.238500000000002 21.513000000000005  10.306000000000001 21.793500000000005  10.306000000000001 22.131000000000004  C 10.306000000000001 22.501500000000004  10.211500000000001 22.830000000000005  10.024000000000001 23.115000000000002  C 9.824319785731646 23.408497821256244  9.543336199838572 23.63735087173316  9.215500000000002 23.773500000000006  C 8.864500000000001 23.931000000000004  8.435500000000001 24.010500000000008  7.928500000000002 24.010500000000008  C 7.547500000000003 24.010500000000008  7.214500000000003 23.96550000000001  6.931000000000003 23.87550000000001  C 6.669778957559526 23.797114568600758  6.426269814619387 23.66873736353608  6.214000000000002 23.497500000000002  Z " stroke-width="0" stroke-dasharray="0" stroke="rgba(255, 255, 255, 0)" fill="none" class="stroke" mask="url(#Clip5597)" />
    <path d="M 1.4875000000000003 23.4705  C 1.3275519383557615 23.302262252863912  1.2035329672795867 23.103219459778686  1.1229999999999998 22.8855  C 1.0402338787945855 22.661810087624232  0.9985645767639261 22.425006493157316  1 22.186500000000002  L 2.1475 22.186500000000002  C 2.1501711411165827 22.328446083157036  2.187779852463131 22.467546796356594  2.2569999999999997 22.5915  C 2.397767102293307 22.83151811480576  2.6600586562684185 22.973640851100647  2.938 22.9605  C 3.223 22.9605  3.4330000000000007 22.878  3.5709999999999997 22.7145  C 3.709 22.549500000000002  3.7779999999999996 22.317  3.7779999999999996 22.015500000000003  L 3.7779999999999996 17.898000000000003  L 4.963 17.898000000000003  L 4.963 21.985500000000002  C 4.963 22.645500000000002  4.7844999999999995 23.146500000000003  4.4275 23.493000000000002  C 4.073500000000001 23.838000000000005  3.5815 24.0105  2.9515000000000002 24.0105  C 2.660783584185457 24.01592011260764  2.371526420757045 23.968134219176587  2.0980000000000003 23.869500000000006  C 1.8682823335455816 23.781739241616066  1.6600890271829436 23.645671871855715  1.4875000000000003 23.4705  Z " stroke-width="0" stroke-dasharray="0" stroke="rgba(255, 255, 255, 0)" fill="none" class="stroke" mask="url(#Clip5597)" />
  </g>
</svg>