<?xml version="1.0" encoding="utf-8"?>
<svg version="1.1" xmlns:xlink="http://www.w3.org/1999/xlink" width="49px" height="48px" xmlns="http://www.w3.org/2000/svg">
  <defs>
    <pattern id="BGPattern" patternUnits="userSpaceOnUse" alignment="0 0" imageRepeat="None" />
    <mask fill="white" id="Clip7205">
      <path d="M 36.34 43.266  C 31.927244848851966 43.266  28.35 39.68875515114804  28.35 35.276  C 28.35 30.863244848851963  31.927244848851966 27.286  36.34 27.286  C 40.752755151148044 27.286  44.330000000000005 30.863244848851963  44.330000000000005 35.276  C 44.330000000000005 39.68875515114804  40.752755151148044 43.266  36.34 43.266  Z M 20.40199989475932 24.951999999999998  C 17.643889854104337 24.951999999999998  15.40799989475932 22.71611004065498  15.40799989475932 19.958  C 15.40799989475932 17.199889959345015  17.643889854104337 14.963999999999995  20.40199989475932 14.963999999999995  C 23.160109935414305 14.963999999999995  25.395999894759317 17.199889959345015  25.395999894759317 19.958  C 25.395999894759317 22.71611004065498  23.160109935414297 24.951999999999998  20.40199989475932 24.951999999999998  Z M 49 21.672  C 49.000000089719144 14.874155701583781  43.48984420869707 9.363104442615503  36.692 10  L 23.358 10  C 16.56061322924686 9.36420828825911  11.051103830235668 14.874612960165823  11 21.671999999999997  L 11 35.006  C 11.050000000000002 41.8035207009174  16.560479299082594 47.314  23.358 47  L 36.692 47  C 43.4895207009174 47.314  49 41.8035207009174  49 35.006  L 49 21.672  Z M 8.990000000000002 4.678  C 8.990000000000002 6.884929860323851  7.20092986032385 8.674  4.994 8.674  C 2.7870701396761506 8.674  0.9980000000000002 6.884929860323851  0.9980000000000002 4.678  C 0.9980000000000002 2.4710701396761494  2.7870701396761497 0.6819999999999999  4.994 0.6819999999999999  C 7.20092986032385 0.6819999999999999  8.990000000000002 2.4710701396761494  8.990000000000002 4.678  Z " fill-rule="evenodd" />
    </mask>
  </defs>
  <g>
    <path d="M 36.34 43.266  C 31.927244848851966 43.266  28.35 39.68875515114804  28.35 35.276  C 28.35 30.863244848851963  31.927244848851966 27.286  36.34 27.286  C 40.752755151148044 27.286  44.330000000000005 30.863244848851963  44.330000000000005 35.276  C 44.330000000000005 39.68875515114804  40.752755151148044 43.266  36.34 43.266  Z M 20.40199989475932 24.951999999999998  C 17.643889854104337 24.951999999999998  15.40799989475932 22.71611004065498  15.40799989475932 19.958  C 15.40799989475932 17.199889959345015  17.643889854104337 14.963999999999995  20.40199989475932 14.963999999999995  C 23.160109935414305 14.963999999999995  25.395999894759317 17.199889959345015  25.395999894759317 19.958  C 25.395999894759317 22.71611004065498  23.160109935414297 24.951999999999998  20.40199989475932 24.951999999999998  Z M 49 21.672  C 49.000000089719144 14.874155701583781  43.48984420869707 9.363104442615503  36.692 10  L 23.358 10  C 16.56061322924686 9.36420828825911  11.051103830235668 14.874612960165823  11 21.671999999999997  L 11 35.006  C 11.050000000000002 41.8035207009174  16.560479299082594 47.314  23.358 47  L 36.692 47  C 43.4895207009174 47.314  49 41.8035207009174  49 35.006  L 49 21.672  Z M 8.990000000000002 4.678  C 8.990000000000002 6.884929860323851  7.20092986032385 8.674  4.994 8.674  C 2.7870701396761506 8.674  0.9980000000000002 6.884929860323851  0.9980000000000002 4.678  C 0.9980000000000002 2.4710701396761494  2.7870701396761497 0.6819999999999999  4.994 0.6819999999999999  C 7.20092986032385 0.6819999999999999  8.990000000000002 2.4710701396761494  8.990000000000002 4.678  Z " fill-rule="nonzero" fill="rgba(0, 72, 128, 1)" stroke="none" class="fill" />
    <path d="M 36.34 43.266  C 31.927244848851966 43.266  28.35 39.68875515114804  28.35 35.276  C 28.35 30.863244848851963  31.927244848851966 27.286  36.34 27.286  C 40.752755151148044 27.286  44.330000000000005 30.863244848851963  44.330000000000005 35.276  C 44.330000000000005 39.68875515114804  40.752755151148044 43.266  36.34 43.266  Z " stroke-width="0" stroke-dasharray="0" stroke="rgba(255, 255, 255, 0)" fill="none" class="stroke" mask="url(#Clip7205)" />
    <path d="M 20.40199989475932 24.951999999999998  C 17.643889854104337 24.951999999999998  15.40799989475932 22.71611004065498  15.40799989475932 19.958  C 15.40799989475932 17.199889959345015  17.643889854104337 14.963999999999995  20.40199989475932 14.963999999999995  C 23.160109935414305 14.963999999999995  25.395999894759317 17.199889959345015  25.395999894759317 19.958  C 25.395999894759317 22.71611004065498  23.160109935414297 24.951999999999998  20.40199989475932 24.951999999999998  Z " stroke-width="0" stroke-dasharray="0" stroke="rgba(255, 255, 255, 0)" fill="none" class="stroke" mask="url(#Clip7205)" />
    <path d="M 49 21.672  C 49.000000089719144 14.874155701583781  43.48984420869707 9.363104442615503  36.692 10  L 23.358 10  C 16.56061322924686 9.36420828825911  11.051103830235668 14.874612960165823  11 21.671999999999997  L 11 35.006  C 11.050000000000002 41.8035207009174  16.560479299082594 47.314  23.358 47  L 36.692 47  C 43.4895207009174 47.314  49 41.8035207009174  49 35.006  L 49 21.672  Z " stroke-width="0" stroke-dasharray="0" stroke="rgba(255, 255, 255, 0)" fill="none" class="stroke" mask="url(#Clip7205)" />
    <path d="M 8.990000000000002 4.678  C 8.990000000000002 6.884929860323851  7.20092986032385 8.674  4.994 8.674  C 2.7870701396761506 8.674  0.9980000000000002 6.884929860323851  0.9980000000000002 4.678  C 0.9980000000000002 2.4710701396761494  2.7870701396761497 0.6819999999999999  4.994 0.6819999999999999  C 7.20092986032385 0.6819999999999999  8.990000000000002 2.4710701396761494  8.990000000000002 4.678  Z " stroke-width="0" stroke-dasharray="0" stroke="rgba(255, 255, 255, 0)" fill="none" class="stroke" mask="url(#Clip7205)" />
  </g>
</svg>