<?xml version="1.0" encoding="utf-8"?>
<svg version="1.1" xmlns:xlink="http://www.w3.org/1999/xlink" width="50px" height="50px" xmlns="http://www.w3.org/2000/svg">
  <defs>
    <pattern id="BGPattern" patternUnits="userSpaceOnUse" alignment="0 0" imageRepeat="None" />
    <mask fill="white" id="Clip1710">
      <path d="M 50 25  C 50 11.189516129032256  38.810483870967744 0  25 0  C 11.189516129032256 0  0 11.189516129032256  0 25  C 0 38.810483870967744  11.189516129032256 50  25 50  C 38.810483870967744 50  50 38.810483870967744  50 25  Z M 20.16129032258064 20.16129032258067  C 20.16129032258064 21.945564516129025  18.719758064516128 23.387096774193537  16.935483870967744 23.387096774193537  C 15.151209677419358 23.387096774193537  13.709677419354845 21.945564516129025  13.709677419354845 20.16129032258067  C 13.709677419354845 18.377016129032256  15.151209677419358 16.935483870967744  16.935483870967744 16.935483870967744  C 18.719758064516128 16.935483870967744  20.16129032258064 18.377016129032256  20.16129032258064 20.16129032258067  Z M 27.096774193548384 35.44354838709677  C 29.294354838709697 36.360887096774206  30.64516129032259 37.80241935483872  30.64516129032259 39.11290322580646  C 30.64516129032259 41.048387096774206  27.75201612903226 43.29637096774195  23.4375 43.548387096774206  C 22.580645161290306 43.62903225806451  22.217741935483872 42.35887096774195  23.074596774193537 41.99596774193549  L 24.788306451612897 41.27016129032256  C 26.09879032258064 40.71572580645159  26.88508064516128 39.90927419354841  26.88508064516128 39.10282258064518  C 26.88508064516128 38.29637096774195  26.09879032258064 37.48991935483872  24.788306451612897 36.935483870967744  L 23.074596774193537 36.20967741935482  C 22.469758064516128 35.95766129032256  22.459677419354847 34.97983870967744  23.074596774193537 34.7177419354839  L 24.788306451612897 33.991935483870975  C 26.09879032258064 33.4375  26.88508064516128 32.63104838709677  26.88508064516128 31.824596774193537  C 26.88508064516128 31.018145161290306  26.09879032258064 30.211693548387075  24.788306451612897 29.657258064516157  L 23.074596774193537 28.93145161290323  C 22.207661290322562 28.56854838709677  22.590725806451616 27.26814516129031  23.4375 27.379032258064512  C 27.75201612903226 27.63104838709677  30.64516129032259 29.879032258064512  30.64516129032259 31.814516129032256  C 30.64516129032259 33.125  29.294354838709697 34.56653225806451  27.096774193548384 35.44354838709677  Z M 36.29032258064515 20.16129032258067  C 36.29032258064515 21.945564516129025  34.84879032258064 23.387096774193537  33.064516129032256 23.387096774193537  C 31.280241935483872 23.387096774193537  29.838709677419363 21.945564516129025  29.838709677419363 20.16129032258067  C 29.838709677419363 18.377016129032256  31.280241935483872 16.935483870967744  33.064516129032256 16.935483870967744  C 34.84879032258064 16.935483870967744  36.29032258064515 18.377016129032256  36.29032258064515 20.16129032258067  Z " fill-rule="evenodd" />
    </mask>
  </defs>
  <g>
    <path d="M 50 25  C 50 11.189516129032256  38.810483870967744 0  25 0  C 11.189516129032256 0  0 11.189516129032256  0 25  C 0 38.810483870967744  11.189516129032256 50  25 50  C 38.810483870967744 50  50 38.810483870967744  50 25  Z M 20.16129032258064 20.16129032258067  C 20.16129032258064 21.945564516129025  18.719758064516128 23.387096774193537  16.935483870967744 23.387096774193537  C 15.151209677419358 23.387096774193537  13.709677419354845 21.945564516129025  13.709677419354845 20.16129032258067  C 13.709677419354845 18.377016129032256  15.151209677419358 16.935483870967744  16.935483870967744 16.935483870967744  C 18.719758064516128 16.935483870967744  20.16129032258064 18.377016129032256  20.16129032258064 20.16129032258067  Z M 27.096774193548384 35.44354838709677  C 29.294354838709697 36.360887096774206  30.64516129032259 37.80241935483872  30.64516129032259 39.11290322580646  C 30.64516129032259 41.048387096774206  27.75201612903226 43.29637096774195  23.4375 43.548387096774206  C 22.580645161290306 43.62903225806451  22.217741935483872 42.35887096774195  23.074596774193537 41.99596774193549  L 24.788306451612897 41.27016129032256  C 26.09879032258064 40.71572580645159  26.88508064516128 39.90927419354841  26.88508064516128 39.10282258064518  C 26.88508064516128 38.29637096774195  26.09879032258064 37.48991935483872  24.788306451612897 36.935483870967744  L 23.074596774193537 36.20967741935482  C 22.469758064516128 35.95766129032256  22.459677419354847 34.97983870967744  23.074596774193537 34.7177419354839  L 24.788306451612897 33.991935483870975  C 26.09879032258064 33.4375  26.88508064516128 32.63104838709677  26.88508064516128 31.824596774193537  C 26.88508064516128 31.018145161290306  26.09879032258064 30.211693548387075  24.788306451612897 29.657258064516157  L 23.074596774193537 28.93145161290323  C 22.207661290322562 28.56854838709677  22.590725806451616 27.26814516129031  23.4375 27.379032258064512  C 27.75201612903226 27.63104838709677  30.64516129032259 29.879032258064512  30.64516129032259 31.814516129032256  C 30.64516129032259 33.125  29.294354838709697 34.56653225806451  27.096774193548384 35.44354838709677  Z M 36.29032258064515 20.16129032258067  C 36.29032258064515 21.945564516129025  34.84879032258064 23.387096774193537  33.064516129032256 23.387096774193537  C 31.280241935483872 23.387096774193537  29.838709677419363 21.945564516129025  29.838709677419363 20.16129032258067  C 29.838709677419363 18.377016129032256  31.280241935483872 16.935483870967744  33.064516129032256 16.935483870967744  C 34.84879032258064 16.935483870967744  36.29032258064515 18.377016129032256  36.29032258064515 20.16129032258067  Z " fill-rule="nonzero" fill="rgba(0, 0, 0, 1)" stroke="none" class="fill" />
    <path d="M 50 25  C 50 11.189516129032256  38.810483870967744 0  25 0  C 11.189516129032256 0  0 11.189516129032256  0 25  C 0 38.810483870967744  11.189516129032256 50  25 50  C 38.810483870967744 50  50 38.810483870967744  50 25  Z " stroke-width="0" stroke-dasharray="0" stroke="rgba(255, 255, 255, 0)" fill="none" class="stroke" mask="url(#Clip1710)" />
    <path d="M 20.16129032258064 20.16129032258067  C 20.16129032258064 21.945564516129025  18.719758064516128 23.387096774193537  16.935483870967744 23.387096774193537  C 15.151209677419358 23.387096774193537  13.709677419354845 21.945564516129025  13.709677419354845 20.16129032258067  C 13.709677419354845 18.377016129032256  15.151209677419358 16.935483870967744  16.935483870967744 16.935483870967744  C 18.719758064516128 16.935483870967744  20.16129032258064 18.377016129032256  20.16129032258064 20.16129032258067  Z " stroke-width="0" stroke-dasharray="0" stroke="rgba(255, 255, 255, 0)" fill="none" class="stroke" mask="url(#Clip1710)" />
    <path d="M 27.096774193548384 35.44354838709677  C 29.294354838709697 36.360887096774206  30.64516129032259 37.80241935483872  30.64516129032259 39.11290322580646  C 30.64516129032259 41.048387096774206  27.75201612903226 43.29637096774195  23.4375 43.548387096774206  C 22.580645161290306 43.62903225806451  22.217741935483872 42.35887096774195  23.074596774193537 41.99596774193549  L 24.788306451612897 41.27016129032256  C 26.09879032258064 40.71572580645159  26.88508064516128 39.90927419354841  26.88508064516128 39.10282258064518  C 26.88508064516128 38.29637096774195  26.09879032258064 37.48991935483872  24.788306451612897 36.935483870967744  L 23.074596774193537 36.20967741935482  C 22.469758064516128 35.95766129032256  22.459677419354847 34.97983870967744  23.074596774193537 34.7177419354839  L 24.788306451612897 33.991935483870975  C 26.09879032258064 33.4375  26.88508064516128 32.63104838709677  26.88508064516128 31.824596774193537  C 26.88508064516128 31.018145161290306  26.09879032258064 30.211693548387075  24.788306451612897 29.657258064516157  L 23.074596774193537 28.93145161290323  C 22.207661290322562 28.56854838709677  22.590725806451616 27.26814516129031  23.4375 27.379032258064512  C 27.75201612903226 27.63104838709677  30.64516129032259 29.879032258064512  30.64516129032259 31.814516129032256  C 30.64516129032259 33.125  29.294354838709697 34.56653225806451  27.096774193548384 35.44354838709677  Z " stroke-width="0" stroke-dasharray="0" stroke="rgba(255, 255, 255, 0)" fill="none" class="stroke" mask="url(#Clip1710)" />
    <path d="M 36.29032258064515 20.16129032258067  C 36.29032258064515 21.945564516129025  34.84879032258064 23.387096774193537  33.064516129032256 23.387096774193537  C 31.280241935483872 23.387096774193537  29.838709677419363 21.945564516129025  29.838709677419363 20.16129032258067  C 29.838709677419363 18.377016129032256  31.280241935483872 16.935483870967744  33.064516129032256 16.935483870967744  C 34.84879032258064 16.935483870967744  36.29032258064515 18.377016129032256  36.29032258064515 20.16129032258067  Z " stroke-width="0" stroke-dasharray="0" stroke="rgba(255, 255, 255, 0)" fill="none" class="stroke" mask="url(#Clip1710)" />
  </g>
</svg>