<?xml version="1.0" encoding="utf-8"?>
<svg version="1.1" xmlns:xlink="http://www.w3.org/1999/xlink" width="48px" height="18px" xmlns="http://www.w3.org/2000/svg">
  <defs>
    <pattern id="BGPattern" patternUnits="userSpaceOnUse" alignment="0 0" imageRepeat="None" />
    <mask fill="white" id="Clip7480">
      <path d="M 40.96180670873464 17.999999999999996  L 40.96479574892062 18  C 41.34884586282547 17.9329690418626  41.71587952890106 17.790760425855453  42.044835602789774 17.58153437396214  C 42.7228019191113 17.15793029771417  43.34879141483314 16.656336150501165  43.909996678844244 16.087014280969775  C 44.36034540019927 15.660577881102622  44.79475257389572 15.218199933576884  45.211225506476254 14.751909664563268  C 45.450348721355034 14.460976419794086  45.721355031550985 14.162072401195616  45.96047824642976 13.855197608767853  C 46.169711059448694 13.570242444370638  46.37894387246762 13.287279973430753  46.588176685486566 12.986383261374957  C 46.7413067774582 12.761587072985606  46.88232452278614 12.528774757585694  47.01062769843906 12.288940551311857  C 47.80428612552523 11.11043581395629  48.06538159970866 9.652351393031648  47.72999003653271 8.271670541348389  C 47.664722774554164 8.08593385566984  47.58407100310812 7.9059670929389965  47.48887412819662 7.733643307871143  C 47.30293365201986 7.433772191689166  47.08147088897226 7.157445541723432  46.82929259382266 6.910660909996682  C 46.3989749167697 6.5175438258108045  45.913629063226345 6.1892808626258775  45.38857522417802 5.936233809365661  C 44.62770327694292 5.569485684495329  43.82459015147638 5.297765743712481  42.99734307539025 5.127200265692464  C 41.80418310245594 4.865918211537226  40.589480449446654 4.71516434026864  39.3686482896048 4.676851544337432  C 37.698644191401144 4.604400793581664  36.025571983881264 4.655019220242296  34.363002324809045 4.8282962470939905  C 34.572235137827974 5.045499833942213  34.75357024244438 5.276652274991698  34.96081036200599 5.501826635669215  C 35.36420260164773 5.962517989491327  35.74396653694347 6.4433749513456355  36.09863832613751 6.9425440053138505  C 36.55097974094986 7.540352042510794  36.96944536698773 8.199933576884757  37.387910993025585 8.85951511125872  C 38.56897078896272 10.841655405747684  39.4939804264252 12.965528420609079  40.14081700431751 15.180338757887743  C 40.343846707981065 15.840918162214479  40.51344094677055 16.511314212017645  40.648953835934904 17.188973762869477  C 40.71072733311192 17.42809697774825  40.74858850880106 17.6991032879442  40.80239123214879 17.968116904682827  L 40.96180670873464 17.999999999999996  Z M 3.9315841912985716 17.699103287944205  L 3.931584191298575 17.701095981401526  C 4.0312188641647335 17.294586516107604  4.140817004317506 16.88010627698439  4.25041514447028 16.47359681169047  C 4.409830621056131 15.875788774493522  4.601129192959154 15.27798073729658  4.780471604118237 14.688143473928925  C 4.917967452673534 14.2557289936898  5.079375622716709 13.833277980737293  5.2328130189305915 13.402856193955497  C 5.412155430089674 12.954500166057787  5.601461308535374 12.506144138160082  5.784789106609104 12.055795416805047  C 5.850547990700767 11.904350714048487  5.906343407505815 11.750913317834605  5.984058452341419 11.59747592162072  C 6.183327798073734 11.169046828296246  6.404516771836603 10.746595815343738  6.625705745599474 10.328130189305874  C 6.894719362338098 9.845898372633677  7.1358352706742 9.36964463633344  7.4048488874128235 8.919295914978406  C 7.759895089799025 8.307592249973883  8.149776364662443 7.716782400010209  8.572567253404191 7.1497841248754535  L 8.604450348721361 7.119893723015607  C 7.940883427432746 7.090003321155762  7.251411491198937 7.090003321155762  6.591829956824975 7.090003321155762  C 6.101619508360576 7.091080150224865  5.611897790363126 7.1210223748306865  5.125207572235136 7.179674526735304  C 4.794420458319494 7.2115576220524735  4.467618731318497 7.241448023912321  4.136831617402855 7.301228827632015  C 3.894452538233322 7.337635753219307  3.654292258114576 7.387530548257831  3.417469279309198 7.4506808369312525  C 2.157937475185796 7.64618045699996  1.0442697239716363 8.376275753784196  0.3626702092328124 9.453337761541018  C 0.3008967120557948 9.604782464297578  0.24111590833610036 9.752241780139489  0.1813351046164059 9.935569578213222  C 0.11693986295198042 10.200365349462384  0.08548306088328594 10.472098575843017  0.08767851212221789 10.744603121886417  C 0.1036524277095377 11.169350350919167  0.16307895242254755 11.591345447757618  0.2650282298239781 12.003985386914646  C 0.46445384039635096 12.626850498314305  0.7268529660572048 13.227764526545268  1.0481567585519755 13.79740949850548  C 1.63769091354694 14.78935282627259  2.319560725937255 15.723421062423707  3.084689471936233 16.58718033875789  L 4.043175024908667 17.633344403852544  L 3.9315841912985716 17.699103287944205  Z M 40.08900697442709 17.54965127864497  L 40.09897044171372 17.611424775821984  C 39.17281195825939 12.958511701003712  36.968892140096024 8.655554911377305  33.73430753902358 5.184988375954832  L 33.568913982065766 5.013616738625041  L 33.487213550315516 4.9339090003321155  C 33.08867485885089 4.961806708734641  32.69013616738626 5.023580205911657  32.28561939554965 5.081368316174026  C 27.997240159565564 5.753161729611339  23.796778495906057 6.899349757165207  19.761541016273664 8.498837595483227  C 20.09631351710395 8.588508801062769  20.43108601793424 8.678180006642311  20.7718365991365 8.797741614081701  C 22.178678180006642 9.248090335436732  23.58751245433411 9.726336765194286  24.9724344071737 10.23845898372634  C 29.797590273540756 12.054374800207306  34.463300674910904 14.268587650686111  38.92128860843573 16.85818664895384  L 40.08900697442709 17.54965127864497  Z M 4.814347392892727 17.332447691796748  L 4.818332779807372 17.332447691796744  L 6.557954168050481 15.65260710727333  C 6.856858186648953 15.367651942876119  6.856858186648953 15.369644636333444  7.1557622052474255 15.094652939222847  C 10.257931370363767 12.45455191733505  13.737884204860176 10.293770549148416  17.47990700763866 8.684158087014278  C 16.93191630687479 8.532713384257718  16.383925606110925 8.413151776818331  15.837927598804384 8.295582862836262  C 13.747806780041739 7.795993769763306  11.624926709699128 7.445065978963256  9.485220856858184 7.2454334108269665  C 9.317834606443043 7.486549319163066  9.15443374294254 7.697774825639322  8.993025572899366 7.934905347060776  C 8.632348057123878 8.47492527399535  8.287612089006974 8.983062105612753  7.9588176685486545 9.554965127864499  C 7.659913649950182 10.033211557622053  7.418797741614082 10.513450680836932  7.17768183327798 10.995682497509137  C 6.965335161009213 11.37359708360529  6.775046656596565 11.76348891432491  6.60777150448356 12.163400863500502  C 6.556033729135331 12.257860804850718  6.515889398585257 12.358221631225906  6.48820989704417 12.462304882098973  C 6.306874792427764 12.912653603454007  6.0996346728661575 13.359016937894388  5.918299568249751 13.811358352706744  C 5.770840252407838 14.172035868482233  5.649285951511126 14.528727997343076  5.529724344071737 14.889405513118568  C 5.350381932912654 15.45931584191299  5.17103952175357 15.999335768847562  5.021587512454333 16.569246097641983  C 4.926365931249071 16.863795970010813  4.846550082689085 17.16310540211077  4.782464297575556 17.4659581534374  L 4.814347392892727 17.332447691796748  Z M 18.593822650282295 8.187977416140814  L 18.59581534373962 8.191962803055464  C 19.014280969777484 8.010627698439055  19.426768515443374 7.843241448023912  19.84722683493856 7.68382597143806  C 20.311524410494854 7.496512786449684  20.775821986051145 7.3211557622052466  21.24211225506476 7.147791431418132  C 23.272152555129686 6.40088571012637  25.343293618162892 5.770827699624461  27.445366987711722 5.2607107273331115  C 29.18498837595483 4.840252407837926  30.920624377283296 4.511457987379607  32.69212886084357 4.242444370640983  L 32.811690468282954 4.210561275323811  C 32.33446867815271 3.775906363424924  31.835663796914247 3.365556214459418  31.31717037529059 2.9810694121554286  C 30.35281687997113 2.2633157763316705  29.307454225042115 1.661379506698835  28.202590501494516 1.1876453005645944  C 25.628319667377276 0.06475041244840796  22.778864244975857 -0.26950062517570395  20.0146130853537 0.22716705413483762  C 18.50575625620761 0.49580814876981183  17.048554413590573 1.0001465806861871  15.696446363334442 1.7216871471271995  C 13.575758117260598 2.8866431447876204  11.702282865537548 4.453512800762639  10.180670873463967 6.3347725008302875  L 10.12089006974427 6.366655596147457  L 11.049485220856859 6.454334108269676  L 12.189305878445701 6.605778811026235  C 13.80936565924942 6.874792427764858  15.365659249418798 7.203586848223179  16.953835934905346 7.562271670541347  C 17.551643972102294 7.713716373297905  18.123546994354033 7.861175689139819  18.693457323148454 8.014613085353702  L 18.593822650282295 8.187977416140814  Z " fill-rule="evenodd" />
    </mask>
  </defs>
  <g>
    <path d="M 40.96180670873464 17.999999999999996  L 40.96479574892062 18  C 41.34884586282547 17.9329690418626  41.71587952890106 17.790760425855453  42.044835602789774 17.58153437396214  C 42.7228019191113 17.15793029771417  43.34879141483314 16.656336150501165  43.909996678844244 16.087014280969775  C 44.36034540019927 15.660577881102622  44.79475257389572 15.218199933576884  45.211225506476254 14.751909664563268  C 45.450348721355034 14.460976419794086  45.721355031550985 14.162072401195616  45.96047824642976 13.855197608767853  C 46.169711059448694 13.570242444370638  46.37894387246762 13.287279973430753  46.588176685486566 12.986383261374957  C 46.7413067774582 12.761587072985606  46.88232452278614 12.528774757585694  47.01062769843906 12.288940551311857  C 47.80428612552523 11.11043581395629  48.06538159970866 9.652351393031648  47.72999003653271 8.271670541348389  C 47.664722774554164 8.08593385566984  47.58407100310812 7.9059670929389965  47.48887412819662 7.733643307871143  C 47.30293365201986 7.433772191689166  47.08147088897226 7.157445541723432  46.82929259382266 6.910660909996682  C 46.3989749167697 6.5175438258108045  45.913629063226345 6.1892808626258775  45.38857522417802 5.936233809365661  C 44.62770327694292 5.569485684495329  43.82459015147638 5.297765743712481  42.99734307539025 5.127200265692464  C 41.80418310245594 4.865918211537226  40.589480449446654 4.71516434026864  39.3686482896048 4.676851544337432  C 37.698644191401144 4.604400793581664  36.025571983881264 4.655019220242296  34.363002324809045 4.8282962470939905  C 34.572235137827974 5.045499833942213  34.75357024244438 5.276652274991698  34.96081036200599 5.501826635669215  C 35.36420260164773 5.962517989491327  35.74396653694347 6.4433749513456355  36.09863832613751 6.9425440053138505  C 36.55097974094986 7.540352042510794  36.96944536698773 8.199933576884757  37.387910993025585 8.85951511125872  C 38.56897078896272 10.841655405747684  39.4939804264252 12.965528420609079  40.14081700431751 15.180338757887743  C 40.343846707981065 15.840918162214479  40.51344094677055 16.511314212017645  40.648953835934904 17.188973762869477  C 40.71072733311192 17.42809697774825  40.74858850880106 17.6991032879442  40.80239123214879 17.968116904682827  L 40.96180670873464 17.999999999999996  Z M 3.9315841912985716 17.699103287944205  L 3.931584191298575 17.701095981401526  C 4.0312188641647335 17.294586516107604  4.140817004317506 16.88010627698439  4.25041514447028 16.47359681169047  C 4.409830621056131 15.875788774493522  4.601129192959154 15.27798073729658  4.780471604118237 14.688143473928925  C 4.917967452673534 14.2557289936898  5.079375622716709 13.833277980737293  5.2328130189305915 13.402856193955497  C 5.412155430089674 12.954500166057787  5.601461308535374 12.506144138160082  5.784789106609104 12.055795416805047  C 5.850547990700767 11.904350714048487  5.906343407505815 11.750913317834605  5.984058452341419 11.59747592162072  C 6.183327798073734 11.169046828296246  6.404516771836603 10.746595815343738  6.625705745599474 10.328130189305874  C 6.894719362338098 9.845898372633677  7.1358352706742 9.36964463633344  7.4048488874128235 8.919295914978406  C 7.759895089799025 8.307592249973883  8.149776364662443 7.716782400010209  8.572567253404191 7.1497841248754535  L 8.604450348721361 7.119893723015607  C 7.940883427432746 7.090003321155762  7.251411491198937 7.090003321155762  6.591829956824975 7.090003321155762  C 6.101619508360576 7.091080150224865  5.611897790363126 7.1210223748306865  5.125207572235136 7.179674526735304  C 4.794420458319494 7.2115576220524735  4.467618731318497 7.241448023912321  4.136831617402855 7.301228827632015  C 3.894452538233322 7.337635753219307  3.654292258114576 7.387530548257831  3.417469279309198 7.4506808369312525  C 2.157937475185796 7.64618045699996  1.0442697239716363 8.376275753784196  0.3626702092328124 9.453337761541018  C 0.3008967120557948 9.604782464297578  0.24111590833610036 9.752241780139489  0.1813351046164059 9.935569578213222  C 0.11693986295198042 10.200365349462384  0.08548306088328594 10.472098575843017  0.08767851212221789 10.744603121886417  C 0.1036524277095377 11.169350350919167  0.16307895242254755 11.591345447757618  0.2650282298239781 12.003985386914646  C 0.46445384039635096 12.626850498314305  0.7268529660572048 13.227764526545268  1.0481567585519755 13.79740949850548  C 1.63769091354694 14.78935282627259  2.319560725937255 15.723421062423707  3.084689471936233 16.58718033875789  L 4.043175024908667 17.633344403852544  L 3.9315841912985716 17.699103287944205  Z M 40.08900697442709 17.54965127864497  L 40.09897044171372 17.611424775821984  C 39.17281195825939 12.958511701003712  36.968892140096024 8.655554911377305  33.73430753902358 5.184988375954832  L 33.568913982065766 5.013616738625041  L 33.487213550315516 4.9339090003321155  C 33.08867485885089 4.961806708734641  32.69013616738626 5.023580205911657  32.28561939554965 5.081368316174026  C 27.997240159565564 5.753161729611339  23.796778495906057 6.899349757165207  19.761541016273664 8.498837595483227  C 20.09631351710395 8.588508801062769  20.43108601793424 8.678180006642311  20.7718365991365 8.797741614081701  C 22.178678180006642 9.248090335436732  23.58751245433411 9.726336765194286  24.9724344071737 10.23845898372634  C 29.797590273540756 12.054374800207306  34.463300674910904 14.268587650686111  38.92128860843573 16.85818664895384  L 40.08900697442709 17.54965127864497  Z M 4.814347392892727 17.332447691796748  L 4.818332779807372 17.332447691796744  L 6.557954168050481 15.65260710727333  C 6.856858186648953 15.367651942876119  6.856858186648953 15.369644636333444  7.1557622052474255 15.094652939222847  C 10.257931370363767 12.45455191733505  13.737884204860176 10.293770549148416  17.47990700763866 8.684158087014278  C 16.93191630687479 8.532713384257718  16.383925606110925 8.413151776818331  15.837927598804384 8.295582862836262  C 13.747806780041739 7.795993769763306  11.624926709699128 7.445065978963256  9.485220856858184 7.2454334108269665  C 9.317834606443043 7.486549319163066  9.15443374294254 7.697774825639322  8.993025572899366 7.934905347060776  C 8.632348057123878 8.47492527399535  8.287612089006974 8.983062105612753  7.9588176685486545 9.554965127864499  C 7.659913649950182 10.033211557622053  7.418797741614082 10.513450680836932  7.17768183327798 10.995682497509137  C 6.965335161009213 11.37359708360529  6.775046656596565 11.76348891432491  6.60777150448356 12.163400863500502  C 6.556033729135331 12.257860804850718  6.515889398585257 12.358221631225906  6.48820989704417 12.462304882098973  C 6.306874792427764 12.912653603454007  6.0996346728661575 13.359016937894388  5.918299568249751 13.811358352706744  C 5.770840252407838 14.172035868482233  5.649285951511126 14.528727997343076  5.529724344071737 14.889405513118568  C 5.350381932912654 15.45931584191299  5.17103952175357 15.999335768847562  5.021587512454333 16.569246097641983  C 4.926365931249071 16.863795970010813  4.846550082689085 17.16310540211077  4.782464297575556 17.4659581534374  L 4.814347392892727 17.332447691796748  Z M 18.593822650282295 8.187977416140814  L 18.59581534373962 8.191962803055464  C 19.014280969777484 8.010627698439055  19.426768515443374 7.843241448023912  19.84722683493856 7.68382597143806  C 20.311524410494854 7.496512786449684  20.775821986051145 7.3211557622052466  21.24211225506476 7.147791431418132  C 23.272152555129686 6.40088571012637  25.343293618162892 5.770827699624461  27.445366987711722 5.2607107273331115  C 29.18498837595483 4.840252407837926  30.920624377283296 4.511457987379607  32.69212886084357 4.242444370640983  L 32.811690468282954 4.210561275323811  C 32.33446867815271 3.775906363424924  31.835663796914247 3.365556214459418  31.31717037529059 2.9810694121554286  C 30.35281687997113 2.2633157763316705  29.307454225042115 1.661379506698835  28.202590501494516 1.1876453005645944  C 25.628319667377276 0.06475041244840796  22.778864244975857 -0.26950062517570395  20.0146130853537 0.22716705413483762  C 18.50575625620761 0.49580814876981183  17.048554413590573 1.0001465806861871  15.696446363334442 1.7216871471271995  C 13.575758117260598 2.8866431447876204  11.702282865537548 4.453512800762639  10.180670873463967 6.3347725008302875  L 10.12089006974427 6.366655596147457  L 11.049485220856859 6.454334108269676  L 12.189305878445701 6.605778811026235  C 13.80936565924942 6.874792427764858  15.365659249418798 7.203586848223179  16.953835934905346 7.562271670541347  C 17.551643972102294 7.713716373297905  18.123546994354033 7.861175689139819  18.693457323148454 8.014613085353702  L 18.593822650282295 8.187977416140814  Z " fill-rule="nonzero" fill="rgba(41, 168, 224, 1)" stroke="none" class="fill" />
    <path d="M 40.96180670873464 17.999999999999996  L 40.96479574892062 18  C 41.34884586282547 17.9329690418626  41.71587952890106 17.790760425855453  42.044835602789774 17.58153437396214  C 42.7228019191113 17.15793029771417  43.34879141483314 16.656336150501165  43.909996678844244 16.087014280969775  C 44.36034540019927 15.660577881102622  44.79475257389572 15.218199933576884  45.211225506476254 14.751909664563268  C 45.450348721355034 14.460976419794086  45.721355031550985 14.162072401195616  45.96047824642976 13.855197608767853  C 46.169711059448694 13.570242444370638  46.37894387246762 13.287279973430753  46.588176685486566 12.986383261374957  C 46.7413067774582 12.761587072985606  46.88232452278614 12.528774757585694  47.01062769843906 12.288940551311857  C 47.80428612552523 11.11043581395629  48.06538159970866 9.652351393031648  47.72999003653271 8.271670541348389  C 47.664722774554164 8.08593385566984  47.58407100310812 7.9059670929389965  47.48887412819662 7.733643307871143  C 47.30293365201986 7.433772191689166  47.08147088897226 7.157445541723432  46.82929259382266 6.910660909996682  C 46.3989749167697 6.5175438258108045  45.913629063226345 6.1892808626258775  45.38857522417802 5.936233809365661  C 44.62770327694292 5.569485684495329  43.82459015147638 5.297765743712481  42.99734307539025 5.127200265692464  C 41.80418310245594 4.865918211537226  40.589480449446654 4.71516434026864  39.3686482896048 4.676851544337432  C 37.698644191401144 4.604400793581664  36.025571983881264 4.655019220242296  34.363002324809045 4.8282962470939905  C 34.572235137827974 5.045499833942213  34.75357024244438 5.276652274991698  34.96081036200599 5.501826635669215  C 35.36420260164773 5.962517989491327  35.74396653694347 6.4433749513456355  36.09863832613751 6.9425440053138505  C 36.55097974094986 7.540352042510794  36.96944536698773 8.199933576884757  37.387910993025585 8.85951511125872  C 38.56897078896272 10.841655405747684  39.4939804264252 12.965528420609079  40.14081700431751 15.180338757887743  C 40.343846707981065 15.840918162214479  40.51344094677055 16.511314212017645  40.648953835934904 17.188973762869477  C 40.71072733311192 17.42809697774825  40.74858850880106 17.6991032879442  40.80239123214879 17.968116904682827  L 40.96180670873464 17.999999999999996  Z " stroke-width="0" stroke-dasharray="0" stroke="rgba(255, 255, 255, 0)" fill="none" class="stroke" mask="url(#Clip7480)" />
    <path d="M 3.9315841912985716 17.699103287944205  L 3.931584191298575 17.701095981401526  C 4.0312188641647335 17.294586516107604  4.140817004317506 16.88010627698439  4.25041514447028 16.47359681169047  C 4.409830621056131 15.875788774493522  4.601129192959154 15.27798073729658  4.780471604118237 14.688143473928925  C 4.917967452673534 14.2557289936898  5.079375622716709 13.833277980737293  5.2328130189305915 13.402856193955497  C 5.412155430089674 12.954500166057787  5.601461308535374 12.506144138160082  5.784789106609104 12.055795416805047  C 5.850547990700767 11.904350714048487  5.906343407505815 11.750913317834605  5.984058452341419 11.59747592162072  C 6.183327798073734 11.169046828296246  6.404516771836603 10.746595815343738  6.625705745599474 10.328130189305874  C 6.894719362338098 9.845898372633677  7.1358352706742 9.36964463633344  7.4048488874128235 8.919295914978406  C 7.759895089799025 8.307592249973883  8.149776364662443 7.716782400010209  8.572567253404191 7.1497841248754535  L 8.604450348721361 7.119893723015607  C 7.940883427432746 7.090003321155762  7.251411491198937 7.090003321155762  6.591829956824975 7.090003321155762  C 6.101619508360576 7.091080150224865  5.611897790363126 7.1210223748306865  5.125207572235136 7.179674526735304  C 4.794420458319494 7.2115576220524735  4.467618731318497 7.241448023912321  4.136831617402855 7.301228827632015  C 3.894452538233322 7.337635753219307  3.654292258114576 7.387530548257831  3.417469279309198 7.4506808369312525  C 2.157937475185796 7.64618045699996  1.0442697239716363 8.376275753784196  0.3626702092328124 9.453337761541018  C 0.3008967120557948 9.604782464297578  0.24111590833610036 9.752241780139489  0.1813351046164059 9.935569578213222  C 0.11693986295198042 10.200365349462384  0.08548306088328594 10.472098575843017  0.08767851212221789 10.744603121886417  C 0.1036524277095377 11.169350350919167  0.16307895242254755 11.591345447757618  0.2650282298239781 12.003985386914646  C 0.46445384039635096 12.626850498314305  0.7268529660572048 13.227764526545268  1.0481567585519755 13.79740949850548  C 1.63769091354694 14.78935282627259  2.319560725937255 15.723421062423707  3.084689471936233 16.58718033875789  L 4.043175024908667 17.633344403852544  L 3.9315841912985716 17.699103287944205  Z " stroke-width="0" stroke-dasharray="0" stroke="rgba(255, 255, 255, 0)" fill="none" class="stroke" mask="url(#Clip7480)" />
    <path d="M 40.08900697442709 17.54965127864497  L 40.09897044171372 17.611424775821984  C 39.17281195825939 12.958511701003712  36.968892140096024 8.655554911377305  33.73430753902358 5.184988375954832  L 33.568913982065766 5.013616738625041  L 33.487213550315516 4.9339090003321155  C 33.08867485885089 4.961806708734641  32.69013616738626 5.023580205911657  32.28561939554965 5.081368316174026  C 27.997240159565564 5.753161729611339  23.796778495906057 6.899349757165207  19.761541016273664 8.498837595483227  C 20.09631351710395 8.588508801062769  20.43108601793424 8.678180006642311  20.7718365991365 8.797741614081701  C 22.178678180006642 9.248090335436732  23.58751245433411 9.726336765194286  24.9724344071737 10.23845898372634  C 29.797590273540756 12.054374800207306  34.463300674910904 14.268587650686111  38.92128860843573 16.85818664895384  L 40.08900697442709 17.54965127864497  Z " stroke-width="0" stroke-dasharray="0" stroke="rgba(255, 255, 255, 0)" fill="none" class="stroke" mask="url(#Clip7480)" />
    <path d="M 4.814347392892727 17.332447691796748  L 4.818332779807372 17.332447691796744  L 6.557954168050481 15.65260710727333  C 6.856858186648953 15.367651942876119  6.856858186648953 15.369644636333444  7.1557622052474255 15.094652939222847  C 10.257931370363767 12.45455191733505  13.737884204860176 10.293770549148416  17.47990700763866 8.684158087014278  C 16.93191630687479 8.532713384257718  16.383925606110925 8.413151776818331  15.837927598804384 8.295582862836262  C 13.747806780041739 7.795993769763306  11.624926709699128 7.445065978963256  9.485220856858184 7.2454334108269665  C 9.317834606443043 7.486549319163066  9.15443374294254 7.697774825639322  8.993025572899366 7.934905347060776  C 8.632348057123878 8.47492527399535  8.287612089006974 8.983062105612753  7.9588176685486545 9.554965127864499  C 7.659913649950182 10.033211557622053  7.418797741614082 10.513450680836932  7.17768183327798 10.995682497509137  C 6.965335161009213 11.37359708360529  6.775046656596565 11.76348891432491  6.60777150448356 12.163400863500502  C 6.556033729135331 12.257860804850718  6.515889398585257 12.358221631225906  6.48820989704417 12.462304882098973  C 6.306874792427764 12.912653603454007  6.0996346728661575 13.359016937894388  5.918299568249751 13.811358352706744  C 5.770840252407838 14.172035868482233  5.649285951511126 14.528727997343076  5.529724344071737 14.889405513118568  C 5.350381932912654 15.45931584191299  5.17103952175357 15.999335768847562  5.021587512454333 16.569246097641983  C 4.926365931249071 16.863795970010813  4.846550082689085 17.16310540211077  4.782464297575556 17.4659581534374  L 4.814347392892727 17.332447691796748  Z " stroke-width="0" stroke-dasharray="0" stroke="rgba(255, 255, 255, 0)" fill="none" class="stroke" mask="url(#Clip7480)" />
    <path d="M 18.593822650282295 8.187977416140814  L 18.59581534373962 8.191962803055464  C 19.014280969777484 8.010627698439055  19.426768515443374 7.843241448023912  19.84722683493856 7.68382597143806  C 20.311524410494854 7.496512786449684  20.775821986051145 7.3211557622052466  21.24211225506476 7.147791431418132  C 23.272152555129686 6.40088571012637  25.343293618162892 5.770827699624461  27.445366987711722 5.2607107273331115  C 29.18498837595483 4.840252407837926  30.920624377283296 4.511457987379607  32.69212886084357 4.242444370640983  L 32.811690468282954 4.210561275323811  C 32.33446867815271 3.775906363424924  31.835663796914247 3.365556214459418  31.31717037529059 2.9810694121554286  C 30.35281687997113 2.2633157763316705  29.307454225042115 1.661379506698835  28.202590501494516 1.1876453005645944  C 25.628319667377276 0.06475041244840796  22.778864244975857 -0.26950062517570395  20.0146130853537 0.22716705413483762  C 18.50575625620761 0.49580814876981183  17.048554413590573 1.0001465806861871  15.696446363334442 1.7216871471271995  C 13.575758117260598 2.8866431447876204  11.702282865537548 4.453512800762639  10.180670873463967 6.3347725008302875  L 10.12089006974427 6.366655596147457  L 11.049485220856859 6.454334108269676  L 12.189305878445701 6.605778811026235  C 13.80936565924942 6.874792427764858  15.365659249418798 7.203586848223179  16.953835934905346 7.562271670541347  C 17.551643972102294 7.713716373297905  18.123546994354033 7.861175689139819  18.693457323148454 8.014613085353702  L 18.593822650282295 8.187977416140814  Z " stroke-width="0" stroke-dasharray="0" stroke="rgba(255, 255, 255, 0)" fill="none" class="stroke" mask="url(#Clip7480)" />
  </g>
</svg>