<?xml version="1.0" encoding="utf-8"?>
<svg version="1.1" xmlns:xlink="http://www.w3.org/1999/xlink" width="44px" height="56px" xmlns="http://www.w3.org/2000/svg">
  <defs>
    <pattern id="BGPattern" patternUnits="userSpaceOnUse" alignment="0 0" imageRepeat="None" />
    <mask fill="white" id="Clip2561">
      <path d="M 24.965624999999996 27.626791738477174  C 24.810955812953086 27.626791738477174  24.664772217651013 27.69749699533977  24.568750000000005 27.81875  L 19.70625 34.018750000000004  L 17.1375 30.743750000000006  C 17.042731406833166 30.622658822136216  16.89751657506513 30.551907325890532  16.74375 30.551907325890532  C 16.589983424934868 30.551907325890532  16.444768593166827 30.622658822136216  16.349999999999998 30.743750000000006  L 10.112499999999994 38.69375000000001  C 10.043771250240614 38.781515993971894  10.00642620452864 38.88977689548466  10.00642620452864 39.00125115592787  C 10.00642620452864 39.276703174905975  10.22972418555053 39.50000115592787  10.505176204528642 39.50000115592787  C 10.50553413666254 39.50000115592787  10.505892068695658 39.50000077061836  10.506249999999998 39  L 33.5 39  C 33.91875 39.50000000000001  34.15 39.018750000000004  33.89375 38.69375000000001  L 25.362499999999994 27.81875000000001  C 25.266477782348986 27.69749699533977  25.120294187046913 27.626791738477174  24.965624999999996 27.626791738477174  Z M 12.499999999999996 23.624999999999996  C 12.499999999999996 25.00571187457698  13.61928812542301 26.124999999999996  14.999999999999996 26.124999999999996  C 16.380711874576978 26.124999999999996  17.499999999999996 25.00571187457698  17.499999999999996 23.624999999999996  C 17.499999999999996 22.244288125423015  16.380711874576978 21.124999999999996  14.999999999999996 21.124999999999996  C 13.61928812542301 21.124999999999996  12.499999999999996 22.244288125423015  12.499999999999996 23.624999999999996  Z M 44 15.45625  C 44 14.925  43.7875 14.4125  43.4125 14.037500000000001  L 29.9625 0.5875000000000004  C 29.5875 0.21250000000000036  29.081249999999997 0  28.549999999999997 0  L 2 0  C 0.8937500000000006 0  0 0.8937499999999997  0 2  L 0 54  C 0 55.10625  0.8937500000000006 56  2 56  L 42 56  C 43.10625 56  44 55.10625  44 54  L 44 15.45625  Z M 27 4.612500000000001  L 39.3875 17  L 27 17  L 27 4.612500000000001  Z M 39 21  L 39 51  L 5 51  L 5 5  L 23 5  L 23 18  C 23.375000000000004 19.449747468305834  24.55025253169417 20.625  26 21  L 39 21  Z " fill-rule="evenodd" />
    </mask>
  </defs>
  <g>
    <path d="M 24.965624999999996 27.626791738477174  C 24.810955812953086 27.626791738477174  24.664772217651013 27.69749699533977  24.568750000000005 27.81875  L 19.70625 34.018750000000004  L 17.1375 30.743750000000006  C 17.042731406833166 30.622658822136216  16.89751657506513 30.551907325890532  16.74375 30.551907325890532  C 16.589983424934868 30.551907325890532  16.444768593166827 30.622658822136216  16.349999999999998 30.743750000000006  L 10.112499999999994 38.69375000000001  C 10.043771250240614 38.781515993971894  10.00642620452864 38.88977689548466  10.00642620452864 39.00125115592787  C 10.00642620452864 39.276703174905975  10.22972418555053 39.50000115592787  10.505176204528642 39.50000115592787  C 10.50553413666254 39.50000115592787  10.505892068695658 39.50000077061836  10.506249999999998 39  L 33.5 39  C 33.91875 39.50000000000001  34.15 39.018750000000004  33.89375 38.69375000000001  L 25.362499999999994 27.81875000000001  C 25.266477782348986 27.69749699533977  25.120294187046913 27.626791738477174  24.965624999999996 27.626791738477174  Z M 12.499999999999996 23.624999999999996  C 12.499999999999996 25.00571187457698  13.61928812542301 26.124999999999996  14.999999999999996 26.124999999999996  C 16.380711874576978 26.124999999999996  17.499999999999996 25.00571187457698  17.499999999999996 23.624999999999996  C 17.499999999999996 22.244288125423015  16.380711874576978 21.124999999999996  14.999999999999996 21.124999999999996  C 13.61928812542301 21.124999999999996  12.499999999999996 22.244288125423015  12.499999999999996 23.624999999999996  Z M 44 15.45625  C 44 14.925  43.7875 14.4125  43.4125 14.037500000000001  L 29.9625 0.5875000000000004  C 29.5875 0.21250000000000036  29.081249999999997 0  28.549999999999997 0  L 2 0  C 0.8937500000000006 0  0 0.8937499999999997  0 2  L 0 54  C 0 55.10625  0.8937500000000006 56  2 56  L 42 56  C 43.10625 56  44 55.10625  44 54  L 44 15.45625  Z M 27 4.612500000000001  L 39.3875 17  L 27 17  L 27 4.612500000000001  Z M 39 21  L 39 51  L 5 51  L 5 5  L 23 5  L 23 18  C 23.375000000000004 19.449747468305834  24.55025253169417 20.625  26 21  L 39 21  Z " fill-rule="nonzero" fill="rgba(0, 0, 0, 1)" stroke="none" class="fill" />
    <path d="M 24.965624999999996 27.626791738477174  C 24.810955812953086 27.626791738477174  24.664772217651013 27.69749699533977  24.568750000000005 27.81875  L 19.70625 34.018750000000004  L 17.1375 30.743750000000006  C 17.042731406833166 30.622658822136216  16.89751657506513 30.551907325890532  16.74375 30.551907325890532  C 16.589983424934868 30.551907325890532  16.444768593166827 30.622658822136216  16.349999999999998 30.743750000000006  L 10.112499999999994 38.69375000000001  C 10.043771250240614 38.781515993971894  10.00642620452864 38.88977689548466  10.00642620452864 39.00125115592787  C 10.00642620452864 39.276703174905975  10.22972418555053 39.50000115592787  10.505176204528642 39.50000115592787  C 10.50553413666254 39.50000115592787  10.505892068695658 39.50000077061836  10.506249999999998 39  L 33.5 39  C 33.91875 39.50000000000001  34.15 39.018750000000004  33.89375 38.69375000000001  L 25.362499999999994 27.81875000000001  C 25.266477782348986 27.69749699533977  25.120294187046913 27.626791738477174  24.965624999999996 27.626791738477174  Z " stroke-width="0" stroke-dasharray="0" stroke="rgba(255, 255, 255, 0)" fill="none" class="stroke" mask="url(#Clip2561)" />
    <path d="M 12.499999999999996 23.624999999999996  C 12.499999999999996 25.00571187457698  13.61928812542301 26.124999999999996  14.999999999999996 26.124999999999996  C 16.380711874576978 26.124999999999996  17.499999999999996 25.00571187457698  17.499999999999996 23.624999999999996  C 17.499999999999996 22.244288125423015  16.380711874576978 21.124999999999996  14.999999999999996 21.124999999999996  C 13.61928812542301 21.124999999999996  12.499999999999996 22.244288125423015  12.499999999999996 23.624999999999996  Z " stroke-width="0" stroke-dasharray="0" stroke="rgba(255, 255, 255, 0)" fill="none" class="stroke" mask="url(#Clip2561)" />
    <path d="M 44 15.45625  C 44 14.925  43.7875 14.4125  43.4125 14.037500000000001  L 29.9625 0.5875000000000004  C 29.5875 0.21250000000000036  29.081249999999997 0  28.549999999999997 0  L 2 0  C 0.8937500000000006 0  0 0.8937499999999997  0 2  L 0 54  C 0 55.10625  0.8937500000000006 56  2 56  L 42 56  C 43.10625 56  44 55.10625  44 54  L 44 15.45625  Z " stroke-width="0" stroke-dasharray="0" stroke="rgba(255, 255, 255, 0)" fill="none" class="stroke" mask="url(#Clip2561)" />
    <path d="M 27 4.612500000000001  L 39.3875 17  L 27 17  L 27 4.612500000000001  Z " stroke-width="0" stroke-dasharray="0" stroke="rgba(255, 255, 255, 0)" fill="none" class="stroke" mask="url(#Clip2561)" />
    <path d="M 39 21  L 39 51  L 5 51  L 5 5  L 23 5  L 23 18  C 23.375000000000004 19.449747468305834  24.55025253169417 20.625  26 21  L 39 21  Z " stroke-width="0" stroke-dasharray="0" stroke="rgba(255, 255, 255, 0)" fill="none" class="stroke" mask="url(#Clip2561)" />
  </g>
</svg>