<?xml version="1.0" encoding="utf-8"?>
<svg version="1.1" xmlns:xlink="http://www.w3.org/1999/xlink" width="50px" height="30px" xmlns="http://www.w3.org/2000/svg">
  <defs>
    <pattern id="BGPattern" patternUnits="userSpaceOnUse" alignment="0 0" imageRepeat="None" />
    <mask fill="white" id="Clip1289">
      <path d="M 7.5 8.75  C 7.5 12.196093749999989  10.303906250000011 15  13.750000000000002 15  C 17.19609374999999 15  20 12.196093749999989  20 8.75  C 20 5.303906250000011  17.19609374999999 2.5  13.750000000000002 2.5  C 10.303906250000011 2.5  7.5 5.303906250000011  7.5 8.75  Z M 50 13.75  C 50 8.917187500000011  46.08281249999999 5  41.25 5  L 23.75 5  C 23.05937499999999 5  22.5 5.559374999999989  23 6.25  L 23 17  L 5 17  L 5 1.25  C 5 0.5593749999999886  4.440625000000011 0  3.75 0  L 1.25 0  C 0.5593749999999886 0  0 0.5593749999999886  0 1.25  L 0 28.75  C 0 29.44062500000001  0.5593749999999886 30  1.25 30  L 3.75 30  C 4.440625000000011 30  5 29.44062500000001  5 28.75  L 5 25  L 45 25  L 45 28.75  C 45 29.44062500000001  45.55937499999999 30  46.25 30  L 48.75 30  C 49.44062500000001 30  50 29.44062500000001  50 28.75  L 50 13.75  Z " fill-rule="evenodd" />
    </mask>
  </defs>
  <g>
    <path d="M 7.5 8.75  C 7.5 12.196093749999989  10.303906250000011 15  13.750000000000002 15  C 17.19609374999999 15  20 12.196093749999989  20 8.75  C 20 5.303906250000011  17.19609374999999 2.5  13.750000000000002 2.5  C 10.303906250000011 2.5  7.5 5.303906250000011  7.5 8.75  Z M 50 13.75  C 50 8.917187500000011  46.08281249999999 5  41.25 5  L 23.75 5  C 23.05937499999999 5  22.5 5.559374999999989  23 6.25  L 23 17  L 5 17  L 5 1.25  C 5 0.5593749999999886  4.440625000000011 0  3.75 0  L 1.25 0  C 0.5593749999999886 0  0 0.5593749999999886  0 1.25  L 0 28.75  C 0 29.44062500000001  0.5593749999999886 30  1.25 30  L 3.75 30  C 4.440625000000011 30  5 29.44062500000001  5 28.75  L 5 25  L 45 25  L 45 28.75  C 45 29.44062500000001  45.55937499999999 30  46.25 30  L 48.75 30  C 49.44062500000001 30  50 29.44062500000001  50 28.75  L 50 13.75  Z " fill-rule="nonzero" fill="rgba(0, 0, 0, 1)" stroke="none" class="fill" />
    <path d="M 7.5 8.75  C 7.5 12.196093749999989  10.303906250000011 15  13.750000000000002 15  C 17.19609374999999 15  20 12.196093749999989  20 8.75  C 20 5.303906250000011  17.19609374999999 2.5  13.750000000000002 2.5  C 10.303906250000011 2.5  7.5 5.303906250000011  7.5 8.75  Z " stroke-width="0" stroke-dasharray="0" stroke="rgba(255, 255, 255, 0)" fill="none" class="stroke" mask="url(#Clip1289)" />
    <path d="M 50 13.75  C 50 8.917187500000011  46.08281249999999 5  41.25 5  L 23.75 5  C 23.05937499999999 5  22.5 5.559374999999989  23 6.25  L 23 17  L 5 17  L 5 1.25  C 5 0.5593749999999886  4.440625000000011 0  3.75 0  L 1.25 0  C 0.5593749999999886 0  0 0.5593749999999886  0 1.25  L 0 28.75  C 0 29.44062500000001  0.5593749999999886 30  1.25 30  L 3.75 30  C 4.440625000000011 30  5 29.44062500000001  5 28.75  L 5 25  L 45 25  L 45 28.75  C 45 29.44062500000001  45.55937499999999 30  46.25 30  L 48.75 30  C 49.44062500000001 30  50 29.44062500000001  50 28.75  L 50 13.75  Z " stroke-width="0" stroke-dasharray="0" stroke="rgba(255, 255, 255, 0)" fill="none" class="stroke" mask="url(#Clip1289)" />
  </g>
</svg>