<?xml version="1.0" encoding="utf-8"?>
<svg version="1.1" xmlns:xlink="http://www.w3.org/1999/xlink" width="22px" height="22px" xmlns="http://www.w3.org/2000/svg">
  <defs>
    <pattern id="BGPattern" patternUnits="userSpaceOnUse" alignment="0 0" imageRepeat="None" />
    <mask fill="white" id="Clip4802">
      <path d="M 20 0.5  L 17 0.5  C 16.17157287525381 0.5  15.5 1.1715728752538097  15.5 2  L 15.5 20  C 15.5 20.82842712474619  16.17157287525381 21.5  17 21.5  L 20 21.5  C 20.82842712474619 21.5  21.5 20.82842712474619  21.5 20  L 21.5 2  C 21.5 1.1715728752538097  20.82842712474619 0.5  20 0.5  Z M 8 20  L 8 9.5  C 8 8.67157287525381  8.67157287525381 8  9.5 8  L 12.500000000000002 8  C 13.328427124746192 8  14 8.67157287525381  14 9.5  L 14 20  C 14 20.82842712474619  13.328427124746192 21.5  12.500000000000002 21.5  L 9.5 21.5  C 8.67157287525381 21.5  8 20.82842712474619  8 20  Z M 0.5 20  L 0.5 15.5  C 0.5 14.671572875253812  1.1715728752538097 14  2 14  L 5 14  C 5.82842712474619 14  6.5 14.671572875253812  6.5 15.5  L 6.5 20  C 6.5 20.82842712474619  5.82842712474619 21.5  5 21.5  L 2 21.5  C 1.1715728752538097 21.5  0.5 20.82842712474619  0.5 20  Z M 5 20  L 5 15.5  L 2 15.5  L 2 20  L 5 20  Z M 12.500000000000002 20  L 12.500000000000002 9.5  L 9.5 9.5  L 9.5 20  L 12.500000000000002 20  Z M 17 2  L 20 2  L 20 20  L 17 20  L 17 2  Z " fill-rule="evenodd" />
    </mask>
  </defs>
  <g>
    <path d="M 20 0.5  L 17 0.5  C 16.17157287525381 0.5  15.5 1.1715728752538097  15.5 2  L 15.5 20  C 15.5 20.82842712474619  16.17157287525381 21.5  17 21.5  L 20 21.5  C 20.82842712474619 21.5  21.5 20.82842712474619  21.5 20  L 21.5 2  C 21.5 1.1715728752538097  20.82842712474619 0.5  20 0.5  Z M 8 20  L 8 9.5  C 8 8.67157287525381  8.67157287525381 8  9.5 8  L 12.500000000000002 8  C 13.328427124746192 8  14 8.67157287525381  14 9.5  L 14 20  C 14 20.82842712474619  13.328427124746192 21.5  12.500000000000002 21.5  L 9.5 21.5  C 8.67157287525381 21.5  8 20.82842712474619  8 20  Z M 0.5 20  L 0.5 15.5  C 0.5 14.671572875253812  1.1715728752538097 14  2 14  L 5 14  C 5.82842712474619 14  6.5 14.671572875253812  6.5 15.5  L 6.5 20  C 6.5 20.82842712474619  5.82842712474619 21.5  5 21.5  L 2 21.5  C 1.1715728752538097 21.5  0.5 20.82842712474619  0.5 20  Z M 5 20  L 5 15.5  L 2 15.5  L 2 20  L 5 20  Z M 12.500000000000002 20  L 12.500000000000002 9.5  L 9.5 9.5  L 9.5 20  L 12.500000000000002 20  Z M 17 2  L 20 2  L 20 20  L 17 20  L 17 2  Z " fill-rule="nonzero" fill="rgba(0, 0, 0, 1)" stroke="none" class="fill" />
    <path d="M 20 0.5  L 17 0.5  C 16.17157287525381 0.5  15.5 1.1715728752538097  15.5 2  L 15.5 20  C 15.5 20.82842712474619  16.17157287525381 21.5  17 21.5  L 20 21.5  C 20.82842712474619 21.5  21.5 20.82842712474619  21.5 20  L 21.5 2  C 21.5 1.1715728752538097  20.82842712474619 0.5  20 0.5  Z " stroke-width="0" stroke-dasharray="0" stroke="rgba(255, 255, 255, 0)" fill="none" class="stroke" mask="url(#Clip4802)" />
    <path d="M 8 20  L 8 9.5  C 8 8.67157287525381  8.67157287525381 8  9.5 8  L 12.500000000000002 8  C 13.328427124746192 8  14 8.67157287525381  14 9.5  L 14 20  C 14 20.82842712474619  13.328427124746192 21.5  12.500000000000002 21.5  L 9.5 21.5  C 8.67157287525381 21.5  8 20.82842712474619  8 20  Z " stroke-width="0" stroke-dasharray="0" stroke="rgba(255, 255, 255, 0)" fill="none" class="stroke" mask="url(#Clip4802)" />
    <path d="M 0.5 20  L 0.5 15.5  C 0.5 14.671572875253812  1.1715728752538097 14  2 14  L 5 14  C 5.82842712474619 14  6.5 14.671572875253812  6.5 15.5  L 6.5 20  C 6.5 20.82842712474619  5.82842712474619 21.5  5 21.5  L 2 21.5  C 1.1715728752538097 21.5  0.5 20.82842712474619  0.5 20  Z " stroke-width="0" stroke-dasharray="0" stroke="rgba(255, 255, 255, 0)" fill="none" class="stroke" mask="url(#Clip4802)" />
    <path d="M 5 20  L 5 15.5  L 2 15.5  L 2 20  L 5 20  Z " stroke-width="0" stroke-dasharray="0" stroke="rgba(255, 255, 255, 0)" fill="none" class="stroke" mask="url(#Clip4802)" />
    <path d="M 12.500000000000002 20  L 12.500000000000002 9.5  L 9.5 9.5  L 9.5 20  L 12.500000000000002 20  Z " stroke-width="0" stroke-dasharray="0" stroke="rgba(255, 255, 255, 0)" fill="none" class="stroke" mask="url(#Clip4802)" />
    <path d="M 17 2  L 20 2  L 20 20  L 17 20  L 17 2  Z " stroke-width="0" stroke-dasharray="0" stroke="rgba(255, 255, 255, 0)" fill="none" class="stroke" mask="url(#Clip4802)" />
  </g>
</svg>