<?xml version="1.0" encoding="utf-8"?>
<svg version="1.1" xmlns:xlink="http://www.w3.org/1999/xlink" width="44px" height="50px" xmlns="http://www.w3.org/2000/svg">
  <defs>
    <pattern id="BGPattern" patternUnits="userSpaceOnUse" alignment="0 0" imageRepeat="None" />
    <mask fill="white" id="Clip1069">
      <path d="M 40.625 15.625  L 42.578125 15.625  C 43.22265625000001 15.625  43.75 15.09765625  43.75 14.453125  L 43.75 10.546875  C 43.75 9.90234375  43.22265625000001 9.375  42.578125 9.375  L 40.625 9.375  L 40.625 4.6875  C 40.625 2.099609375  38.525390625 0  35.9375 0  L 4.6875 0  C 2.099609375 0  0 2.099609375  0 4.6875  L 0 45.3125  C 0 47.900390625  2.099609375 50  4.6875 50  L 35.9375 50  C 38.525390625 50  40.625 47.900390625  40.625 45.3125  L 40.625 40.625  L 42.578125 40.625  C 43.22265625000001 40.625  43.75 40.09765625  43.75 39.453125  L 43.75 35.546875  C 43.75 34.90234375  43.22265625000001 34.375  42.578125 34.375  L 40.625 34.375  L 40.625 28.125  L 42.578125 28.125  C 43.22265625000001 28.125  43.75 27.597656250000004  43.75 26.953125  L 43.75 23.046875  C 43.75 22.40234375  43.22265625000001 21.875  42.578125 21.875  L 40.625 21.875  L 40.625 15.625  Z M 36 5  L 36 45  L 5 45  L 5 5  L 36 5  Z M 14.0625 18.75  C 14.0625 22.197265625  16.865234375 25  20.3125 25  C 23.759765625 25  26.562499999999996 22.197265625  26.562499999999996 18.75  C 26.562499999999996 15.302734374999998  23.759765625 12.5  20.3125 12.5  C 16.865234375 12.5  14.0625 15.302734374999998  14.0625 18.75  Z M 9.375 35.625  C 9.375 36.66015625  10.3515625 37.5  11.562499999999998 37  L 29.0625 37  C 30.2734375 37.5  31.25 36.66015625  31.25 35.625  L 31.25 33.75  C 31.25 30.64453125  28.310546875 28.125  24.6875 28.125  C 23.6328125 28.125  22.861328125 28.90625  20.3125 28.90625  C 17.685546875 28.90625  17.05078125 28.125  15.937500000000002 28.125  C 12.314453124999998 28.125  9.375 30.64453125  9.375 33.75  L 9.375 35.625  Z " fill-rule="evenodd" />
    </mask>
  </defs>
  <g>
    <path d="M 40.625 15.625  L 42.578125 15.625  C 43.22265625000001 15.625  43.75 15.09765625  43.75 14.453125  L 43.75 10.546875  C 43.75 9.90234375  43.22265625000001 9.375  42.578125 9.375  L 40.625 9.375  L 40.625 4.6875  C 40.625 2.099609375  38.525390625 0  35.9375 0  L 4.6875 0  C 2.099609375 0  0 2.099609375  0 4.6875  L 0 45.3125  C 0 47.900390625  2.099609375 50  4.6875 50  L 35.9375 50  C 38.525390625 50  40.625 47.900390625  40.625 45.3125  L 40.625 40.625  L 42.578125 40.625  C 43.22265625000001 40.625  43.75 40.09765625  43.75 39.453125  L 43.75 35.546875  C 43.75 34.90234375  43.22265625000001 34.375  42.578125 34.375  L 40.625 34.375  L 40.625 28.125  L 42.578125 28.125  C 43.22265625000001 28.125  43.75 27.597656250000004  43.75 26.953125  L 43.75 23.046875  C 43.75 22.40234375  43.22265625000001 21.875  42.578125 21.875  L 40.625 21.875  L 40.625 15.625  Z M 36 5  L 36 45  L 5 45  L 5 5  L 36 5  Z M 14.0625 18.75  C 14.0625 22.197265625  16.865234375 25  20.3125 25  C 23.759765625 25  26.562499999999996 22.197265625  26.562499999999996 18.75  C 26.562499999999996 15.302734374999998  23.759765625 12.5  20.3125 12.5  C 16.865234375 12.5  14.0625 15.302734374999998  14.0625 18.75  Z M 9.375 35.625  C 9.375 36.66015625  10.3515625 37.5  11.562499999999998 37  L 29.0625 37  C 30.2734375 37.5  31.25 36.66015625  31.25 35.625  L 31.25 33.75  C 31.25 30.64453125  28.310546875 28.125  24.6875 28.125  C 23.6328125 28.125  22.861328125 28.90625  20.3125 28.90625  C 17.685546875 28.90625  17.05078125 28.125  15.937500000000002 28.125  C 12.314453124999998 28.125  9.375 30.64453125  9.375 33.75  L 9.375 35.625  Z " fill-rule="nonzero" fill="rgba(0, 0, 0, 1)" stroke="none" class="fill" />
    <path d="M 40.625 15.625  L 42.578125 15.625  C 43.22265625000001 15.625  43.75 15.09765625  43.75 14.453125  L 43.75 10.546875  C 43.75 9.90234375  43.22265625000001 9.375  42.578125 9.375  L 40.625 9.375  L 40.625 4.6875  C 40.625 2.099609375  38.525390625 0  35.9375 0  L 4.6875 0  C 2.099609375 0  0 2.099609375  0 4.6875  L 0 45.3125  C 0 47.900390625  2.099609375 50  4.6875 50  L 35.9375 50  C 38.525390625 50  40.625 47.900390625  40.625 45.3125  L 40.625 40.625  L 42.578125 40.625  C 43.22265625000001 40.625  43.75 40.09765625  43.75 39.453125  L 43.75 35.546875  C 43.75 34.90234375  43.22265625000001 34.375  42.578125 34.375  L 40.625 34.375  L 40.625 28.125  L 42.578125 28.125  C 43.22265625000001 28.125  43.75 27.597656250000004  43.75 26.953125  L 43.75 23.046875  C 43.75 22.40234375  43.22265625000001 21.875  42.578125 21.875  L 40.625 21.875  L 40.625 15.625  Z " stroke-width="0" stroke-dasharray="0" stroke="rgba(255, 255, 255, 0)" fill="none" class="stroke" mask="url(#Clip1069)" />
    <path d="M 36 5  L 36 45  L 5 45  L 5 5  L 36 5  Z " stroke-width="0" stroke-dasharray="0" stroke="rgba(255, 255, 255, 0)" fill="none" class="stroke" mask="url(#Clip1069)" />
    <path d="M 14.0625 18.75  C 14.0625 22.197265625  16.865234375 25  20.3125 25  C 23.759765625 25  26.562499999999996 22.197265625  26.562499999999996 18.75  C 26.562499999999996 15.302734374999998  23.759765625 12.5  20.3125 12.5  C 16.865234375 12.5  14.0625 15.302734374999998  14.0625 18.75  Z " stroke-width="0" stroke-dasharray="0" stroke="rgba(255, 255, 255, 0)" fill="none" class="stroke" mask="url(#Clip1069)" />
    <path d="M 9.375 35.625  C 9.375 36.66015625  10.3515625 37.5  11.562499999999998 37  L 29.0625 37  C 30.2734375 37.5  31.25 36.66015625  31.25 35.625  L 31.25 33.75  C 31.25 30.64453125  28.310546875 28.125  24.6875 28.125  C 23.6328125 28.125  22.861328125 28.90625  20.3125 28.90625  C 17.685546875 28.90625  17.05078125 28.125  15.937500000000002 28.125  C 12.314453124999998 28.125  9.375 30.64453125  9.375 33.75  L 9.375 35.625  Z " stroke-width="0" stroke-dasharray="0" stroke="rgba(255, 255, 255, 0)" fill="none" class="stroke" mask="url(#Clip1069)" />
  </g>
</svg>