<?xml version="1.0" encoding="utf-8"?>
<svg version="1.1" xmlns:xlink="http://www.w3.org/1999/xlink" width="4px" height="24px" xmlns="http://www.w3.org/2000/svg">
  <defs>
    <pattern id="BGPattern" patternUnits="userSpaceOnUse" alignment="0 0" imageRepeat="None" />
    <mask fill="white" id="Clip182">
      <path d="M 3.1999999999999993 15.600000000000001  C 3.1999999999999993 16.256  2.655999999999999 16.8  2 16.8  C 1.3439999999999994 16.8  0.8000000000000007 16.256  0.8000000000000007 15.600000000000001  L 0.8000000000000007 2.0000000000000018  C 0.8000000000000007 1.344000000000002  1.3440000000000012 0.8000000000000016  2 0.8000000000000016  C 2.655999999999999 0.8000000000000016  3.1999999999999993 1.3440000000000012  3.1999999999999993 2.0000000000000018  L 3.1999999999999993 15.600000000000001  Z M 3.6000000000000014 21.599999999999998  C 3.6000000000000014 22.48  2.8800000000000026 23.2  2 23.2  C 1.1199999999999992 23.2  0.40000000000000036 22.48  0.40000000000000036 21.599999999999998  C 0.40000000000000036 20.719999999999995  1.120000000000001 19.999999999999996  2 19.999999999999996  C 2.879999999999999 19.999999999999996  3.6000000000000014 20.719999999999995  3.6000000000000014 21.599999999999998  Z " fill-rule="evenodd" />
    </mask>
  </defs>
  <g>
    <path d="M 3.1999999999999993 15.600000000000001  C 3.1999999999999993 16.256  2.655999999999999 16.8  2 16.8  C 1.3439999999999994 16.8  0.8000000000000007 16.256  0.8000000000000007 15.600000000000001  L 0.8000000000000007 2.0000000000000018  C 0.8000000000000007 1.344000000000002  1.3440000000000012 0.8000000000000016  2 0.8000000000000016  C 2.655999999999999 0.8000000000000016  3.1999999999999993 1.3440000000000012  3.1999999999999993 2.0000000000000018  L 3.1999999999999993 15.600000000000001  Z M 3.6000000000000014 21.599999999999998  C 3.6000000000000014 22.48  2.8800000000000026 23.2  2 23.2  C 1.1199999999999992 23.2  0.40000000000000036 22.48  0.40000000000000036 21.599999999999998  C 0.40000000000000036 20.719999999999995  1.120000000000001 19.999999999999996  2 19.999999999999996  C 2.879999999999999 19.999999999999996  3.6000000000000014 20.719999999999995  3.6000000000000014 21.599999999999998  Z " fill-rule="nonzero" fill="rgba(0, 0, 0, 1)" stroke="none" class="fill" />
    <path d="M 3.1999999999999993 15.600000000000001  C 3.1999999999999993 16.256  2.655999999999999 16.8  2 16.8  C 1.3439999999999994 16.8  0.8000000000000007 16.256  0.8000000000000007 15.600000000000001  L 0.8000000000000007 2.0000000000000018  C 0.8000000000000007 1.344000000000002  1.3440000000000012 0.8000000000000016  2 0.8000000000000016  C 2.655999999999999 0.8000000000000016  3.1999999999999993 1.3440000000000012  3.1999999999999993 2.0000000000000018  L 3.1999999999999993 15.600000000000001  Z " stroke-width="0" stroke-dasharray="0" stroke="rgba(255, 255, 255, 0)" fill="none" class="stroke" mask="url(#Clip182)" />
    <path d="M 3.6000000000000014 21.599999999999998  C 3.6000000000000014 22.48  2.8800000000000026 23.2  2 23.2  C 1.1199999999999992 23.2  0.40000000000000036 22.48  0.40000000000000036 21.599999999999998  C 0.40000000000000036 20.719999999999995  1.120000000000001 19.999999999999996  2 19.999999999999996  C 2.879999999999999 19.999999999999996  3.6000000000000014 20.719999999999995  3.6000000000000014 21.599999999999998  Z " stroke-width="0" stroke-dasharray="0" stroke="rgba(255, 255, 255, 0)" fill="none" class="stroke" mask="url(#Clip182)" />
  </g>
</svg>