<?xml version="1.0" encoding="utf-8"?>
<svg version="1.1" xmlns:xlink="http://www.w3.org/1999/xlink" width="24px" height="24px" xmlns="http://www.w3.org/2000/svg">
  <defs>
    <pattern id="BGPattern" patternUnits="userSpaceOnUse" alignment="0 0" imageRepeat="None" />
    <mask fill="white" id="Clip5670">
      <path d="M 7.5 0.75  C 7.5 0.3357864376269049  7.835786437626905 0  8.25 0  C 8.664213562373096 0  9 0.3357864376269049  9 0.75  L 9 6.75  C 9 7.992640687119285  7.992640687119285 9  6.75 9  L 0.75 9  C 0.3357864376269049 9  0 8.664213562373096  0 8.25  C 0 7.835786437626905  0.3357864376269049 7.5  0.75 7.5  L 6.75 7.5  C 7.164213562373095 7.5  7.5 7.164213562373095  7.5 6.75  L 7.5 0.75  Z M 15 0.75  C 15 0.3357864376269049  15.335786437626904 0  15.75 0  C 16.164213562373096 0  16.5 0.3357864376269049  16.5 0.75  L 16.5 6.75  C 16.5 7.164213562373095  16.835786437626904 7.5  17.25 7.5  L 23.25 7.5  C 23.664213562373096 7.5  24 7.835786437626905  24 8.25  C 24 8.664213562373096  23.664213562373096 9  23.25 9  L 17.25 9  C 16.007359312880713 9  15 7.992640687119285  15 6.75  L 15 0.75  Z M 0.75 16.5  C 0.3357864376269049 16.5  0 16.164213562373096  0 15.75  C 0 15.335786437626904  0.3357864376269049 15  0.75 15  L 6.75 15  C 7.992640687119285 15  9 16.007359312880713  9 17.25  L 9 23.25  C 9 23.664213562373096  8.664213562373096 24  8.25 24  C 7.835786437626905 24  7.5 23.664213562373096  7.5 23.25  L 7.5 17.25  C 7.5 16.835786437626904  7.164213562373095 16.5  6.75 16.5  L 0.75 16.5  Z M 15 23.25  L 15 17.25  C 15 16.007359312880713  16.007359312880713 15  17.25 15  L 23.25 15  C 23.664213562373096 15  24 15.335786437626904  24 15.75  C 24 16.164213562373096  23.664213562373096 16.5  23.25 16.5  L 17.25 16.5  C 16.835786437626904 16.5  16.5 16.835786437626904  16.5 17.25  L 16.5 23.25  C 16.5 23.664213562373096  16.164213562373096 24  15.75 24  C 15.335786437626904 24  15 23.664213562373096  15 23.25  Z " fill-rule="evenodd" />
    </mask>
  </defs>
  <g>
    <path d="M 7.5 0.75  C 7.5 0.3357864376269049  7.835786437626905 0  8.25 0  C 8.664213562373096 0  9 0.3357864376269049  9 0.75  L 9 6.75  C 9 7.992640687119285  7.992640687119285 9  6.75 9  L 0.75 9  C 0.3357864376269049 9  0 8.664213562373096  0 8.25  C 0 7.835786437626905  0.3357864376269049 7.5  0.75 7.5  L 6.75 7.5  C 7.164213562373095 7.5  7.5 7.164213562373095  7.5 6.75  L 7.5 0.75  Z M 15 0.75  C 15 0.3357864376269049  15.335786437626904 0  15.75 0  C 16.164213562373096 0  16.5 0.3357864376269049  16.5 0.75  L 16.5 6.75  C 16.5 7.164213562373095  16.835786437626904 7.5  17.25 7.5  L 23.25 7.5  C 23.664213562373096 7.5  24 7.835786437626905  24 8.25  C 24 8.664213562373096  23.664213562373096 9  23.25 9  L 17.25 9  C 16.007359312880713 9  15 7.992640687119285  15 6.75  L 15 0.75  Z M 0.75 16.5  C 0.3357864376269049 16.5  0 16.164213562373096  0 15.75  C 0 15.335786437626904  0.3357864376269049 15  0.75 15  L 6.75 15  C 7.992640687119285 15  9 16.007359312880713  9 17.25  L 9 23.25  C 9 23.664213562373096  8.664213562373096 24  8.25 24  C 7.835786437626905 24  7.5 23.664213562373096  7.5 23.25  L 7.5 17.25  C 7.5 16.835786437626904  7.164213562373095 16.5  6.75 16.5  L 0.75 16.5  Z M 15 23.25  L 15 17.25  C 15 16.007359312880713  16.007359312880713 15  17.25 15  L 23.25 15  C 23.664213562373096 15  24 15.335786437626904  24 15.75  C 24 16.164213562373096  23.664213562373096 16.5  23.25 16.5  L 17.25 16.5  C 16.835786437626904 16.5  16.5 16.835786437626904  16.5 17.25  L 16.5 23.25  C 16.5 23.664213562373096  16.164213562373096 24  15.75 24  C 15.335786437626904 24  15 23.664213562373096  15 23.25  Z " fill-rule="nonzero" fill="rgba(0, 0, 0, 1)" stroke="none" class="fill" />
    <path d="M 7.5 0.75  C 7.5 0.3357864376269049  7.835786437626905 0  8.25 0  C 8.664213562373096 0  9 0.3357864376269049  9 0.75  L 9 6.75  C 9 7.992640687119285  7.992640687119285 9  6.75 9  L 0.75 9  C 0.3357864376269049 9  0 8.664213562373096  0 8.25  C 0 7.835786437626905  0.3357864376269049 7.5  0.75 7.5  L 6.75 7.5  C 7.164213562373095 7.5  7.5 7.164213562373095  7.5 6.75  L 7.5 0.75  Z " stroke-width="0" stroke-dasharray="0" stroke="rgba(255, 255, 255, 0)" fill="none" class="stroke" mask="url(#Clip5670)" />
    <path d="M 15 0.75  C 15 0.3357864376269049  15.335786437626904 0  15.75 0  C 16.164213562373096 0  16.5 0.3357864376269049  16.5 0.75  L 16.5 6.75  C 16.5 7.164213562373095  16.835786437626904 7.5  17.25 7.5  L 23.25 7.5  C 23.664213562373096 7.5  24 7.835786437626905  24 8.25  C 24 8.664213562373096  23.664213562373096 9  23.25 9  L 17.25 9  C 16.007359312880713 9  15 7.992640687119285  15 6.75  L 15 0.75  Z " stroke-width="0" stroke-dasharray="0" stroke="rgba(255, 255, 255, 0)" fill="none" class="stroke" mask="url(#Clip5670)" />
    <path d="M 0.75 16.5  C 0.3357864376269049 16.5  0 16.164213562373096  0 15.75  C 0 15.335786437626904  0.3357864376269049 15  0.75 15  L 6.75 15  C 7.992640687119285 15  9 16.007359312880713  9 17.25  L 9 23.25  C 9 23.664213562373096  8.664213562373096 24  8.25 24  C 7.835786437626905 24  7.5 23.664213562373096  7.5 23.25  L 7.5 17.25  C 7.5 16.835786437626904  7.164213562373095 16.5  6.75 16.5  L 0.75 16.5  Z " stroke-width="0" stroke-dasharray="0" stroke="rgba(255, 255, 255, 0)" fill="none" class="stroke" mask="url(#Clip5670)" />
    <path d="M 15 23.25  L 15 17.25  C 15 16.007359312880713  16.007359312880713 15  17.25 15  L 23.25 15  C 23.664213562373096 15  24 15.335786437626904  24 15.75  C 24 16.164213562373096  23.664213562373096 16.5  23.25 16.5  L 17.25 16.5  C 16.835786437626904 16.5  16.5 16.835786437626904  16.5 17.25  L 16.5 23.25  C 16.5 23.664213562373096  16.164213562373096 24  15.75 24  C 15.335786437626904 24  15 23.664213562373096  15 23.25  Z " stroke-width="0" stroke-dasharray="0" stroke="rgba(255, 255, 255, 0)" fill="none" class="stroke" mask="url(#Clip5670)" />
  </g>
</svg>