<?xml version="1.0" encoding="utf-8"?>
<svg version="1.1" xmlns:xlink="http://www.w3.org/1999/xlink" width="26px" height="22px" xmlns="http://www.w3.org/2000/svg">
  <defs>
    <pattern id="BGPattern" patternUnits="userSpaceOnUse" alignment="0 0" imageRepeat="None" />
    <mask fill="white" id="Clip352">
      <path d="M 13.8 1.6000000000000014  C 13.8 0.9440000000000017  14.344000000000001 0.4000000000000013  14.999999999999998 0.40000000000000036  C 15.656 0.40000000000000036  16.2 0.9440000000000008  16 1.6000000000000005  L 16 20  C 16.2 20.656  15.656 21.2  14.999999999999998 21.2  C 14.344000000000001 21.2  13.8 20.656  13.8 20  L 13.8 11.600000000000001  L 2.6000000000000014 11.600000000000001  L 2.6000000000000014 20  C 2.6000000000000014 20.656  2.056000000000001 21.2  1.4000000000000012 21.2  C 0.7440000000000015 21.2  0.20000000000000107 20.656  0.20000000000000107 20  L 0.20000000000000107 1.6000000000000014  C 0.20000000000000107 0.9440000000000017  0.7440000000000011 0.4000000000000013  1.4000000000000012 0.4000000000000013  C 2.056000000000001 0.4000000000000013  2.6000000000000014 0.9440000000000008  2.6000000000000014 1.6000000000000014  L 2.6000000000000014 9.200000000000001  L 13.8 9.200000000000001  L 13.8 1.6000000000000014  Z M 24.584000000000003 6.656000000000001  C 25.000000000000004 6.656000000000001  25.416000000000004 6.864000000000001  25.64 7.247999999999999  C 25.752 7.4399999999999995  25.8 7.648  25.8 7.840000000000001  L 25.8 20  C 25.8 20.656  25.256 21.2  24.6 21.2  C 23.944000000000003 21.2  23.400000000000002 20.656  23 20  L 23 9.936  L 21.720000000000002 10.896  C 21.528000000000002 11.008  21.320000000000004 11.056000000000001  21.112000000000002 11.056000000000001  C 20.696 11.056000000000001  20.296000000000003 10.848000000000003  20.072000000000003 10.464000000000002  C 19.960000000000004 10.272000000000002  19.912000000000003 10.080000000000002  19.912000000000003 9.872000000000002  C 19.912000000000003 9.456000000000001  20.136000000000003 9.056000000000001  20.520000000000003 8.832  L 23.992000000000004 6.816  C 24.184000000000005 6.704000000000001  24.392000000000003 6.656000000000001  24.584000000000003 6.656000000000001  Z " fill-rule="evenodd" />
    </mask>
  </defs>
  <g>
    <path d="M 13.8 1.6000000000000014  C 13.8 0.9440000000000017  14.344000000000001 0.4000000000000013  14.999999999999998 0.40000000000000036  C 15.656 0.40000000000000036  16.2 0.9440000000000008  16 1.6000000000000005  L 16 20  C 16.2 20.656  15.656 21.2  14.999999999999998 21.2  C 14.344000000000001 21.2  13.8 20.656  13.8 20  L 13.8 11.600000000000001  L 2.6000000000000014 11.600000000000001  L 2.6000000000000014 20  C 2.6000000000000014 20.656  2.056000000000001 21.2  1.4000000000000012 21.2  C 0.7440000000000015 21.2  0.20000000000000107 20.656  0.20000000000000107 20  L 0.20000000000000107 1.6000000000000014  C 0.20000000000000107 0.9440000000000017  0.7440000000000011 0.4000000000000013  1.4000000000000012 0.4000000000000013  C 2.056000000000001 0.4000000000000013  2.6000000000000014 0.9440000000000008  2.6000000000000014 1.6000000000000014  L 2.6000000000000014 9.200000000000001  L 13.8 9.200000000000001  L 13.8 1.6000000000000014  Z M 24.584000000000003 6.656000000000001  C 25.000000000000004 6.656000000000001  25.416000000000004 6.864000000000001  25.64 7.247999999999999  C 25.752 7.4399999999999995  25.8 7.648  25.8 7.840000000000001  L 25.8 20  C 25.8 20.656  25.256 21.2  24.6 21.2  C 23.944000000000003 21.2  23.400000000000002 20.656  23 20  L 23 9.936  L 21.720000000000002 10.896  C 21.528000000000002 11.008  21.320000000000004 11.056000000000001  21.112000000000002 11.056000000000001  C 20.696 11.056000000000001  20.296000000000003 10.848000000000003  20.072000000000003 10.464000000000002  C 19.960000000000004 10.272000000000002  19.912000000000003 10.080000000000002  19.912000000000003 9.872000000000002  C 19.912000000000003 9.456000000000001  20.136000000000003 9.056000000000001  20.520000000000003 8.832  L 23.992000000000004 6.816  C 24.184000000000005 6.704000000000001  24.392000000000003 6.656000000000001  24.584000000000003 6.656000000000001  Z " fill-rule="nonzero" fill="rgba(0, 0, 0, 1)" stroke="none" class="fill" />
    <path d="M 13.8 1.6000000000000014  C 13.8 0.9440000000000017  14.344000000000001 0.4000000000000013  14.999999999999998 0.40000000000000036  C 15.656 0.40000000000000036  16.2 0.9440000000000008  16 1.6000000000000005  L 16 20  C 16.2 20.656  15.656 21.2  14.999999999999998 21.2  C 14.344000000000001 21.2  13.8 20.656  13.8 20  L 13.8 11.600000000000001  L 2.6000000000000014 11.600000000000001  L 2.6000000000000014 20  C 2.6000000000000014 20.656  2.056000000000001 21.2  1.4000000000000012 21.2  C 0.7440000000000015 21.2  0.20000000000000107 20.656  0.20000000000000107 20  L 0.20000000000000107 1.6000000000000014  C 0.20000000000000107 0.9440000000000017  0.7440000000000011 0.4000000000000013  1.4000000000000012 0.4000000000000013  C 2.056000000000001 0.4000000000000013  2.6000000000000014 0.9440000000000008  2.6000000000000014 1.6000000000000014  L 2.6000000000000014 9.200000000000001  L 13.8 9.200000000000001  L 13.8 1.6000000000000014  Z " stroke-width="0" stroke-dasharray="0" stroke="rgba(255, 255, 255, 0)" fill="none" class="stroke" mask="url(#Clip352)" />
    <path d="M 24.584000000000003 6.656000000000001  C 25.000000000000004 6.656000000000001  25.416000000000004 6.864000000000001  25.64 7.247999999999999  C 25.752 7.4399999999999995  25.8 7.648  25.8 7.840000000000001  L 25.8 20  C 25.8 20.656  25.256 21.2  24.6 21.2  C 23.944000000000003 21.2  23.400000000000002 20.656  23 20  L 23 9.936  L 21.720000000000002 10.896  C 21.528000000000002 11.008  21.320000000000004 11.056000000000001  21.112000000000002 11.056000000000001  C 20.696 11.056000000000001  20.296000000000003 10.848000000000003  20.072000000000003 10.464000000000002  C 19.960000000000004 10.272000000000002  19.912000000000003 10.080000000000002  19.912000000000003 9.872000000000002  C 19.912000000000003 9.456000000000001  20.136000000000003 9.056000000000001  20.520000000000003 8.832  L 23.992000000000004 6.816  C 24.184000000000005 6.704000000000001  24.392000000000003 6.656000000000001  24.584000000000003 6.656000000000001  Z " stroke-width="0" stroke-dasharray="0" stroke="rgba(255, 255, 255, 0)" fill="none" class="stroke" mask="url(#Clip352)" />
  </g>
</svg>