<?xml version="1.0" encoding="utf-8"?>
<svg version="1.1" xmlns:xlink="http://www.w3.org/1999/xlink" width="38px" height="50px" xmlns="http://www.w3.org/2000/svg">
  <defs>
    <pattern id="BGPattern" patternUnits="userSpaceOnUse" alignment="0 0" imageRepeat="None" />
    <mask fill="white" id="Clip1755">
      <path d="M 20.63664717348928 48.89571150097464  C 19.707309941520464 50.23820662768031  17.719493177387903 50.238109161793375  16.790253411306026 48.89571150097464  C 2.628654970760238 28.365594541910355  0 26.25857699805067  0 18.71345029239768  C 0 8.378265107212485  8.378265107212485 0  18.713450292397653 0  C 29.04863547758282 0  37.426900584795305 8.378265107212485  37.426900584795305 18.71345029239768  C 37.426900584795305 26.25857699805067  34.79824561403507 28.365594541910355  20.63664717348928 48.89571150097464  Z M 10.916179337231966 18.71345029239768  C 10.916179337231966 23.01978557504873  14.407115009746576 26.510721247563367  18.713450292397653 26.510721247563367  C 23.01978557504873 26.510721247563367  26.51072124756334 23.01978557504873  26.51072124756334 18.71345029239768  C 26.51072124756334 14.407115009746576  23.01978557504873 10.916179337231995  18.713450292397653 10.916179337231995  C 14.407115009746576 10.916179337231995  10.916179337231966 14.407115009746576  10.916179337231966 18.71345029239768  Z " fill-rule="evenodd" />
    </mask>
  </defs>
  <g>
    <path d="M 20.63664717348928 48.89571150097464  C 19.707309941520464 50.23820662768031  17.719493177387903 50.238109161793375  16.790253411306026 48.89571150097464  C 2.628654970760238 28.365594541910355  0 26.25857699805067  0 18.71345029239768  C 0 8.378265107212485  8.378265107212485 0  18.713450292397653 0  C 29.04863547758282 0  37.426900584795305 8.378265107212485  37.426900584795305 18.71345029239768  C 37.426900584795305 26.25857699805067  34.79824561403507 28.365594541910355  20.63664717348928 48.89571150097464  Z M 10.916179337231966 18.71345029239768  C 10.916179337231966 23.01978557504873  14.407115009746576 26.510721247563367  18.713450292397653 26.510721247563367  C 23.01978557504873 26.510721247563367  26.51072124756334 23.01978557504873  26.51072124756334 18.71345029239768  C 26.51072124756334 14.407115009746576  23.01978557504873 10.916179337231995  18.713450292397653 10.916179337231995  C 14.407115009746576 10.916179337231995  10.916179337231966 14.407115009746576  10.916179337231966 18.71345029239768  Z " fill-rule="nonzero" fill="rgba(0, 0, 0, 1)" stroke="none" class="fill" />
    <path d="M 20.63664717348928 48.89571150097464  C 19.707309941520464 50.23820662768031  17.719493177387903 50.238109161793375  16.790253411306026 48.89571150097464  C 2.628654970760238 28.365594541910355  0 26.25857699805067  0 18.71345029239768  C 0 8.378265107212485  8.378265107212485 0  18.713450292397653 0  C 29.04863547758282 0  37.426900584795305 8.378265107212485  37.426900584795305 18.71345029239768  C 37.426900584795305 26.25857699805067  34.79824561403507 28.365594541910355  20.63664717348928 48.89571150097464  Z " stroke-width="0" stroke-dasharray="0" stroke="rgba(255, 255, 255, 0)" fill="none" class="stroke" mask="url(#Clip1755)" />
    <path d="M 10.916179337231966 18.71345029239768  C 10.916179337231966 23.01978557504873  14.407115009746576 26.510721247563367  18.713450292397653 26.510721247563367  C 23.01978557504873 26.510721247563367  26.51072124756334 23.01978557504873  26.51072124756334 18.71345029239768  C 26.51072124756334 14.407115009746576  23.01978557504873 10.916179337231995  18.713450292397653 10.916179337231995  C 14.407115009746576 10.916179337231995  10.916179337231966 14.407115009746576  10.916179337231966 18.71345029239768  Z " stroke-width="0" stroke-dasharray="0" stroke="rgba(255, 255, 255, 0)" fill="none" class="stroke" mask="url(#Clip1755)" />
  </g>
</svg>