<?xml version="1.0" encoding="utf-8"?>
<svg version="1.1" xmlns:xlink="http://www.w3.org/1999/xlink" width="50px" height="50px" xmlns="http://www.w3.org/2000/svg">
  <defs>
    <pattern id="BGPattern" patternUnits="userSpaceOnUse" alignment="0 0" imageRepeat="None" />
    <mask fill="white" id="Clip2741">
      <path d="M 50 2  C 50 0.8937499999999997  49.10625 0  48 0  L 2 0  C 0.8937499999999997 0  0 0.8937499999999997  0 2  L 0 48  C 0 49.10625  0.8937499999999997 50  2 50  L 24.5 50  C 24.775 50  25 49.775  25 49.5  L 25 46  C 25 45.725  24.775 45.5  24.5 45  L 5 45  L 5 5  L 45 5  L 45 24.5  C 45.5 24.775  45.725 25  46 25  L 49.5 25  C 49.775 25  50 24.775  50 24.5  L 50 2  Z M 49.8375 46.481249999999996  L 33.83125 30.4625  L 37.09375 27.199999999999996  C 37.187100984151385 27.10618669256718  37.23950632985687 26.979225708951887  37.23950632985687 26.846880165417105  C 37.23950632985687 26.594028448898605  37.05096030507807 26.380869334645723  36.8 26.349999999999994  L 25.587499999999995 25.037499999999994  C 25.268749999999997 24.999999999999993  24.99375 25.268749999999997  25.03125 25.593749999999993  L 26.34375 36.80624999999999  C 26.39375 37.21874999999999  26.899999999999995 37.39374999999999  27.19375 37.099999999999994  L 30.46875 33.824999999999996  L 46.48125 49.83749999999999  C 46.675000000000004 50.03124999999999  46.993750000000006 50.03124999999999  47.1875 49.83749999999999  L 49.8375 47.18749999999999  C 50.03125000000001 46.99374999999999  50.03125000000001 46.67499999999999  49.8375 46.481249999999996  Z " fill-rule="evenodd" />
    </mask>
  </defs>
  <g>
    <path d="M 50 2  C 50 0.8937499999999997  49.10625 0  48 0  L 2 0  C 0.8937499999999997 0  0 0.8937499999999997  0 2  L 0 48  C 0 49.10625  0.8937499999999997 50  2 50  L 24.5 50  C 24.775 50  25 49.775  25 49.5  L 25 46  C 25 45.725  24.775 45.5  24.5 45  L 5 45  L 5 5  L 45 5  L 45 24.5  C 45.5 24.775  45.725 25  46 25  L 49.5 25  C 49.775 25  50 24.775  50 24.5  L 50 2  Z M 49.8375 46.481249999999996  L 33.83125 30.4625  L 37.09375 27.199999999999996  C 37.187100984151385 27.10618669256718  37.23950632985687 26.979225708951887  37.23950632985687 26.846880165417105  C 37.23950632985687 26.594028448898605  37.05096030507807 26.380869334645723  36.8 26.349999999999994  L 25.587499999999995 25.037499999999994  C 25.268749999999997 24.999999999999993  24.99375 25.268749999999997  25.03125 25.593749999999993  L 26.34375 36.80624999999999  C 26.39375 37.21874999999999  26.899999999999995 37.39374999999999  27.19375 37.099999999999994  L 30.46875 33.824999999999996  L 46.48125 49.83749999999999  C 46.675000000000004 50.03124999999999  46.993750000000006 50.03124999999999  47.1875 49.83749999999999  L 49.8375 47.18749999999999  C 50.03125000000001 46.99374999999999  50.03125000000001 46.67499999999999  49.8375 46.481249999999996  Z " fill-rule="nonzero" fill="rgba(0, 0, 0, 1)" stroke="none" class="fill" />
    <path d="M 50 2  C 50 0.8937499999999997  49.10625 0  48 0  L 2 0  C 0.8937499999999997 0  0 0.8937499999999997  0 2  L 0 48  C 0 49.10625  0.8937499999999997 50  2 50  L 24.5 50  C 24.775 50  25 49.775  25 49.5  L 25 46  C 25 45.725  24.775 45.5  24.5 45  L 5 45  L 5 5  L 45 5  L 45 24.5  C 45.5 24.775  45.725 25  46 25  L 49.5 25  C 49.775 25  50 24.775  50 24.5  L 50 2  Z " stroke-width="0" stroke-dasharray="0" stroke="rgba(255, 255, 255, 0)" fill="none" class="stroke" mask="url(#Clip2741)" />
    <path d="M 49.8375 46.481249999999996  L 33.83125 30.4625  L 37.09375 27.199999999999996  C 37.187100984151385 27.10618669256718  37.23950632985687 26.979225708951887  37.23950632985687 26.846880165417105  C 37.23950632985687 26.594028448898605  37.05096030507807 26.380869334645723  36.8 26.349999999999994  L 25.587499999999995 25.037499999999994  C 25.268749999999997 24.999999999999993  24.99375 25.268749999999997  25.03125 25.593749999999993  L 26.34375 36.80624999999999  C 26.39375 37.21874999999999  26.899999999999995 37.39374999999999  27.19375 37.099999999999994  L 30.46875 33.824999999999996  L 46.48125 49.83749999999999  C 46.675000000000004 50.03124999999999  46.993750000000006 50.03124999999999  47.1875 49.83749999999999  L 49.8375 47.18749999999999  C 50.03125000000001 46.99374999999999  50.03125000000001 46.67499999999999  49.8375 46.481249999999996  Z " stroke-width="0" stroke-dasharray="0" stroke="rgba(255, 255, 255, 0)" fill="none" class="stroke" mask="url(#Clip2741)" />
  </g>
</svg>