<?xml version="1.0" encoding="utf-8"?>
<svg version="1.1" xmlns:xlink="http://www.w3.org/1999/xlink" width="50px" height="50px" xmlns="http://www.w3.org/2000/svg">
  <defs>
    <pattern id="BGPattern" patternUnits="userSpaceOnUse" alignment="0 0" imageRepeat="None" />
    <mask fill="white" id="Clip1602">
      <path d="M 50 25  C 50 11.19254032258064  38.80745967741936 0  25 0  C 11.19254032258064 0  0 11.19254032258064  0 25  C 0 38.80745967741936  11.19254032258064 50  25 50  C 38.80745967741936 50  50 38.80745967741936  50 25  Z M 25.607862903225794 21.298387096774206  L 23.856854838709666 24.216733870967744  C 23.565524193548384 24.70262096774192  23.040322580645153 25  22.47379032258064 25  L 22.44254032258064 25  C 22.01512096774192 25  21.60483870967741 25.170362903225797  21.30241935483872 25.472782258064512  L 20.731854838709666 26.043346774193537  C 20.41733870967741 26.357862903225794  20.41733870967741 26.86895161290323  20.731854838709666 27.183467741935484  L 21.30241935483872 27.754032258064516  C 21.60483870967741 28.05645161290323  21.77520161290323 28.466733870967744  21.77520161290323 28.894153225806463  L 21.77520161290323 29.838709677419363  C 21.77520161290323 30.72983870967741  21.053427419354847 31.451612903225794  20.16229838709677 31.451612903225794  L 19.54637096774192 31.451612903225794  C 18.935483870967744 31.451612903225794  18.377016129032256 31.106854838709662  18.10383064516128 30.559475806451612  L 15.823588709677407 26  C 15.577620967741924 25.508064516129025  14.92137096774192 25.401209677419363  14.53225806451613 25.790322580645153  L 12.569556451612895 27.75201612903226  C 12.267137096774192 28.054435483870975  11.85685483870968 28.224798387096765  11.42943548387096 28.224798387096765  L 5.121975806451616 28.224798387096765  C 4.951612903225808 27.17237903225805  4.838709677419359 26.100806451612897  4.838709677419359 25  C 4.838709677419359 13.883064516129027  13.883064516129027 4.838709677419359  25 4.838709677419359  C 27.168346774193537 4.838709677419359  29.254032258064512 5.192540322580641  31.21270161290323 5.82862903225805  L 26.156249999999996 9.712701612903231  C 25.641129032258046 10.056451612903231  25.68951612903226 10.82762096774195  26.242943548387103 11.10483870967741  L 27.334677419354847 11.650201612903231  C 27.88104838709677 11.923387096774206  28.225806451612893 12.481854838709666  28.225806451612893 13.092741935483874  L 28.225806451612893 20.967741935483872  C 28.225806451612893 21.413306451612897  27.86491935483872 21.774193548387103  27.419354838709666 21.774193548387103  L 27.110887096774206 21.774193548387103  C 26.805443548387103 21.774193548387103  26.52620967741936 21.601814516129025  26.390120967741947 21.32862903225805  C 26.232862903225794 21.014112903225794  25.789314516129025 20.996975806451616  25.607862903225794 21.298387096774206  Z M 41.128024193548384 35.325604838709694  L 41.12903225806451 35.325604838709694  C 41.12903225806451 35.753024193548384  40.95866935483872 36.1633064516129  40.65625 36.465725806451616  L 39.69153225806451 37.4304435483871  C 39.389112903225794 37.732862903225794  38.97883064516128 37.903225806451616  38.55141129032256 37.903225806451616  L 37.023185483870975 37.903225806451616  C 36.595766129032256 37.903225806451616  36.185483870967744 37.732862903225794  35.883064516129025 37.4304435483871  L 34.57157258064515 36.11895161290323  C 33.90133798934323 35.448742326352885  32.928598170946884 35.17934467405115  32.00907258064515 35.409274193548384  L 29.86491935483872 35.945564516129025  C 29.736895161290306 35.97782258064515  29.60584677419354 35.99395161290323  29.47379032258064 35.99395161290323  L 28.43145161290323 35.99395161290323  C 28.004032258064516 35.99395161290323  27.59375 35.82358870967741  27.29133064516128 35.52116935483872  L 26.090725806451616 34.320564516129025  C 25.939600449881993 34.169145778878686  25.85475903152229 33.96393106609415  25.85483870967741 33.75  L 25.85483870967741 32.721774193548384  C 25.85483870967741 32.392137096774206  26.055443548387103 32.095766129032256  26.361895161290306 31.972782258064512  L 30.327620967741954 30.386088709677413  C 30.527217741935488 30.306451612903228  30.716733870967744 30.20262096774192  30.891129032258053 30.078629032258046  L 33.28125 28.376008064516128  C 33.41780199416871 28.278738923148637  33.581338494471 28.22657641874187  33.74899193548387 28.22681451612902  L 34.96774193548387 28.22681451612902  C 35.29334677419354 28.22681451612902  35.58770161290323 28.42237903225805  35.71270161290323 28.72379032258064  L 36.252016129032256 30.019153225806463  C 36.31464034982142 30.169275164788417  36.461331599196996 30.267069331038783  36.62399193548387 30.267137096774178  L 37.0070564516129 30.267137096774178  C 37.18649193548387 30.267137096774178  37.34475806451613 30.148185483870975  37.394153225806434 29.976814516129025  L 37.81754032258064 28.518145161290303  C 37.867943548387075 28.345766129032256  38.02520161290323 28.22782258064515  38.20463709677418 28.22782258064515  L 38.815524193548384 28.22782258064515  C 39.0383064516129 28.22782258064515  39.21875 28.408266129032256  39.21875 28.63104838709677  L 39.21875 29.934475806451616  C 39.21875 30.148185483870975  39.30342741935482 30.353830645161285  39.45463709677418 30.50504032258064  L 40.65524193548384 31.705645161290306  C 40.95766129032256 32.008064516129025  41.128024193548384 32.41834677419354  41.128024193548384 32.845766129032256  L 41.128024193548384 35.325604838709694  Z " fill-rule="evenodd" />
    </mask>
  </defs>
  <g>
    <path d="M 50 25  C 50 11.19254032258064  38.80745967741936 0  25 0  C 11.19254032258064 0  0 11.19254032258064  0 25  C 0 38.80745967741936  11.19254032258064 50  25 50  C 38.80745967741936 50  50 38.80745967741936  50 25  Z M 25.607862903225794 21.298387096774206  L 23.856854838709666 24.216733870967744  C 23.565524193548384 24.70262096774192  23.040322580645153 25  22.47379032258064 25  L 22.44254032258064 25  C 22.01512096774192 25  21.60483870967741 25.170362903225797  21.30241935483872 25.472782258064512  L 20.731854838709666 26.043346774193537  C 20.41733870967741 26.357862903225794  20.41733870967741 26.86895161290323  20.731854838709666 27.183467741935484  L 21.30241935483872 27.754032258064516  C 21.60483870967741 28.05645161290323  21.77520161290323 28.466733870967744  21.77520161290323 28.894153225806463  L 21.77520161290323 29.838709677419363  C 21.77520161290323 30.72983870967741  21.053427419354847 31.451612903225794  20.16229838709677 31.451612903225794  L 19.54637096774192 31.451612903225794  C 18.935483870967744 31.451612903225794  18.377016129032256 31.106854838709662  18.10383064516128 30.559475806451612  L 15.823588709677407 26  C 15.577620967741924 25.508064516129025  14.92137096774192 25.401209677419363  14.53225806451613 25.790322580645153  L 12.569556451612895 27.75201612903226  C 12.267137096774192 28.054435483870975  11.85685483870968 28.224798387096765  11.42943548387096 28.224798387096765  L 5.121975806451616 28.224798387096765  C 4.951612903225808 27.17237903225805  4.838709677419359 26.100806451612897  4.838709677419359 25  C 4.838709677419359 13.883064516129027  13.883064516129027 4.838709677419359  25 4.838709677419359  C 27.168346774193537 4.838709677419359  29.254032258064512 5.192540322580641  31.21270161290323 5.82862903225805  L 26.156249999999996 9.712701612903231  C 25.641129032258046 10.056451612903231  25.68951612903226 10.82762096774195  26.242943548387103 11.10483870967741  L 27.334677419354847 11.650201612903231  C 27.88104838709677 11.923387096774206  28.225806451612893 12.481854838709666  28.225806451612893 13.092741935483874  L 28.225806451612893 20.967741935483872  C 28.225806451612893 21.413306451612897  27.86491935483872 21.774193548387103  27.419354838709666 21.774193548387103  L 27.110887096774206 21.774193548387103  C 26.805443548387103 21.774193548387103  26.52620967741936 21.601814516129025  26.390120967741947 21.32862903225805  C 26.232862903225794 21.014112903225794  25.789314516129025 20.996975806451616  25.607862903225794 21.298387096774206  Z M 41.128024193548384 35.325604838709694  L 41.12903225806451 35.325604838709694  C 41.12903225806451 35.753024193548384  40.95866935483872 36.1633064516129  40.65625 36.465725806451616  L 39.69153225806451 37.4304435483871  C 39.389112903225794 37.732862903225794  38.97883064516128 37.903225806451616  38.55141129032256 37.903225806451616  L 37.023185483870975 37.903225806451616  C 36.595766129032256 37.903225806451616  36.185483870967744 37.732862903225794  35.883064516129025 37.4304435483871  L 34.57157258064515 36.11895161290323  C 33.90133798934323 35.448742326352885  32.928598170946884 35.17934467405115  32.00907258064515 35.409274193548384  L 29.86491935483872 35.945564516129025  C 29.736895161290306 35.97782258064515  29.60584677419354 35.99395161290323  29.47379032258064 35.99395161290323  L 28.43145161290323 35.99395161290323  C 28.004032258064516 35.99395161290323  27.59375 35.82358870967741  27.29133064516128 35.52116935483872  L 26.090725806451616 34.320564516129025  C 25.939600449881993 34.169145778878686  25.85475903152229 33.96393106609415  25.85483870967741 33.75  L 25.85483870967741 32.721774193548384  C 25.85483870967741 32.392137096774206  26.055443548387103 32.095766129032256  26.361895161290306 31.972782258064512  L 30.327620967741954 30.386088709677413  C 30.527217741935488 30.306451612903228  30.716733870967744 30.20262096774192  30.891129032258053 30.078629032258046  L 33.28125 28.376008064516128  C 33.41780199416871 28.278738923148637  33.581338494471 28.22657641874187  33.74899193548387 28.22681451612902  L 34.96774193548387 28.22681451612902  C 35.29334677419354 28.22681451612902  35.58770161290323 28.42237903225805  35.71270161290323 28.72379032258064  L 36.252016129032256 30.019153225806463  C 36.31464034982142 30.169275164788417  36.461331599196996 30.267069331038783  36.62399193548387 30.267137096774178  L 37.0070564516129 30.267137096774178  C 37.18649193548387 30.267137096774178  37.34475806451613 30.148185483870975  37.394153225806434 29.976814516129025  L 37.81754032258064 28.518145161290303  C 37.867943548387075 28.345766129032256  38.02520161290323 28.22782258064515  38.20463709677418 28.22782258064515  L 38.815524193548384 28.22782258064515  C 39.0383064516129 28.22782258064515  39.21875 28.408266129032256  39.21875 28.63104838709677  L 39.21875 29.934475806451616  C 39.21875 30.148185483870975  39.30342741935482 30.353830645161285  39.45463709677418 30.50504032258064  L 40.65524193548384 31.705645161290306  C 40.95766129032256 32.008064516129025  41.128024193548384 32.41834677419354  41.128024193548384 32.845766129032256  L 41.128024193548384 35.325604838709694  Z " fill-rule="nonzero" fill="rgba(0, 0, 0, 1)" stroke="none" class="fill" />
    <path d="M 50 25  C 50 11.19254032258064  38.80745967741936 0  25 0  C 11.19254032258064 0  0 11.19254032258064  0 25  C 0 38.80745967741936  11.19254032258064 50  25 50  C 38.80745967741936 50  50 38.80745967741936  50 25  Z " stroke-width="0" stroke-dasharray="0" stroke="rgba(255, 255, 255, 0)" fill="none" class="stroke" mask="url(#Clip1602)" />
    <path d="M 25.607862903225794 21.298387096774206  L 23.856854838709666 24.216733870967744  C 23.565524193548384 24.70262096774192  23.040322580645153 25  22.47379032258064 25  L 22.44254032258064 25  C 22.01512096774192 25  21.60483870967741 25.170362903225797  21.30241935483872 25.472782258064512  L 20.731854838709666 26.043346774193537  C 20.41733870967741 26.357862903225794  20.41733870967741 26.86895161290323  20.731854838709666 27.183467741935484  L 21.30241935483872 27.754032258064516  C 21.60483870967741 28.05645161290323  21.77520161290323 28.466733870967744  21.77520161290323 28.894153225806463  L 21.77520161290323 29.838709677419363  C 21.77520161290323 30.72983870967741  21.053427419354847 31.451612903225794  20.16229838709677 31.451612903225794  L 19.54637096774192 31.451612903225794  C 18.935483870967744 31.451612903225794  18.377016129032256 31.106854838709662  18.10383064516128 30.559475806451612  L 15.823588709677407 26  C 15.577620967741924 25.508064516129025  14.92137096774192 25.401209677419363  14.53225806451613 25.790322580645153  L 12.569556451612895 27.75201612903226  C 12.267137096774192 28.054435483870975  11.85685483870968 28.224798387096765  11.42943548387096 28.224798387096765  L 5.121975806451616 28.224798387096765  C 4.951612903225808 27.17237903225805  4.838709677419359 26.100806451612897  4.838709677419359 25  C 4.838709677419359 13.883064516129027  13.883064516129027 4.838709677419359  25 4.838709677419359  C 27.168346774193537 4.838709677419359  29.254032258064512 5.192540322580641  31.21270161290323 5.82862903225805  L 26.156249999999996 9.712701612903231  C 25.641129032258046 10.056451612903231  25.68951612903226 10.82762096774195  26.242943548387103 11.10483870967741  L 27.334677419354847 11.650201612903231  C 27.88104838709677 11.923387096774206  28.225806451612893 12.481854838709666  28.225806451612893 13.092741935483874  L 28.225806451612893 20.967741935483872  C 28.225806451612893 21.413306451612897  27.86491935483872 21.774193548387103  27.419354838709666 21.774193548387103  L 27.110887096774206 21.774193548387103  C 26.805443548387103 21.774193548387103  26.52620967741936 21.601814516129025  26.390120967741947 21.32862903225805  C 26.232862903225794 21.014112903225794  25.789314516129025 20.996975806451616  25.607862903225794 21.298387096774206  Z " stroke-width="0" stroke-dasharray="0" stroke="rgba(255, 255, 255, 0)" fill="none" class="stroke" mask="url(#Clip1602)" />
    <path d="M 41.128024193548384 35.325604838709694  L 41.12903225806451 35.325604838709694  C 41.12903225806451 35.753024193548384  40.95866935483872 36.1633064516129  40.65625 36.465725806451616  L 39.69153225806451 37.4304435483871  C 39.389112903225794 37.732862903225794  38.97883064516128 37.903225806451616  38.55141129032256 37.903225806451616  L 37.023185483870975 37.903225806451616  C 36.595766129032256 37.903225806451616  36.185483870967744 37.732862903225794  35.883064516129025 37.4304435483871  L 34.57157258064515 36.11895161290323  C 33.90133798934323 35.448742326352885  32.928598170946884 35.17934467405115  32.00907258064515 35.409274193548384  L 29.86491935483872 35.945564516129025  C 29.736895161290306 35.97782258064515  29.60584677419354 35.99395161290323  29.47379032258064 35.99395161290323  L 28.43145161290323 35.99395161290323  C 28.004032258064516 35.99395161290323  27.59375 35.82358870967741  27.29133064516128 35.52116935483872  L 26.090725806451616 34.320564516129025  C 25.939600449881993 34.169145778878686  25.85475903152229 33.96393106609415  25.85483870967741 33.75  L 25.85483870967741 32.721774193548384  C 25.85483870967741 32.392137096774206  26.055443548387103 32.095766129032256  26.361895161290306 31.972782258064512  L 30.327620967741954 30.386088709677413  C 30.527217741935488 30.306451612903228  30.716733870967744 30.20262096774192  30.891129032258053 30.078629032258046  L 33.28125 28.376008064516128  C 33.41780199416871 28.278738923148637  33.581338494471 28.22657641874187  33.74899193548387 28.22681451612902  L 34.96774193548387 28.22681451612902  C 35.29334677419354 28.22681451612902  35.58770161290323 28.42237903225805  35.71270161290323 28.72379032258064  L 36.252016129032256 30.019153225806463  C 36.31464034982142 30.169275164788417  36.461331599196996 30.267069331038783  36.62399193548387 30.267137096774178  L 37.0070564516129 30.267137096774178  C 37.18649193548387 30.267137096774178  37.34475806451613 30.148185483870975  37.394153225806434 29.976814516129025  L 37.81754032258064 28.518145161290303  C 37.867943548387075 28.345766129032256  38.02520161290323 28.22782258064515  38.20463709677418 28.22782258064515  L 38.815524193548384 28.22782258064515  C 39.0383064516129 28.22782258064515  39.21875 28.408266129032256  39.21875 28.63104838709677  L 39.21875 29.934475806451616  C 39.21875 30.148185483870975  39.30342741935482 30.353830645161285  39.45463709677418 30.50504032258064  L 40.65524193548384 31.705645161290306  C 40.95766129032256 32.008064516129025  41.128024193548384 32.41834677419354  41.128024193548384 32.845766129032256  L 41.128024193548384 35.325604838709694  Z " stroke-width="0" stroke-dasharray="0" stroke="rgba(255, 255, 255, 0)" fill="none" class="stroke" mask="url(#Clip1602)" />
  </g>
</svg>