<?xml version="1.0" encoding="utf-8"?>
<svg version="1.1" xmlns:xlink="http://www.w3.org/1999/xlink" width="50px" height="47px" xmlns="http://www.w3.org/2000/svg">
  <defs>
    <pattern id="BGPattern" patternUnits="userSpaceOnUse" alignment="0 0" imageRepeat="None" />
    <mask fill="white" id="Clip722">
      <path d="M 7.5625 0  L 50 0  L 43.33333333333334 38.33333333333337  L 20.072916666666657 46.666666666666686  L 0 38.33333333333337  L 2.041666666666657 28.45833333333337  L 10.583333333333343 28.45833333333337  L 9.75 32.6875  L 21.875 37.3125  L 35.84375 32.6875  L 37.80208333333334 23  L 3.072916666666657 23  L 4.739583333333343 14  L 39.5 14  L 40.59375 9  L 5.864583333333343 9  L 7.5625 0  Z " fill-rule="evenodd" />
    </mask>
  </defs>
  <g>
    <path d="M 7.5625 0  L 50 0  L 43.33333333333334 38.33333333333337  L 20.072916666666657 46.666666666666686  L 0 38.33333333333337  L 2.041666666666657 28.45833333333337  L 10.583333333333343 28.45833333333337  L 9.75 32.6875  L 21.875 37.3125  L 35.84375 32.6875  L 37.80208333333334 23  L 3.072916666666657 23  L 4.739583333333343 14  L 39.5 14  L 40.59375 9  L 5.864583333333343 9  L 7.5625 0  Z " fill-rule="nonzero" fill="rgba(0, 0, 0, 1)" stroke="none" class="fill" />
    <path d="M 7.5625 0  L 50 0  L 43.33333333333334 38.33333333333337  L 20.072916666666657 46.666666666666686  L 0 38.33333333333337  L 2.041666666666657 28.45833333333337  L 10.583333333333343 28.45833333333337  L 9.75 32.6875  L 21.875 37.3125  L 35.84375 32.6875  L 37.80208333333334 23  L 3.072916666666657 23  L 4.739583333333343 14  L 39.5 14  L 40.59375 9  L 5.864583333333343 9  L 7.5625 0  Z " stroke-width="0" stroke-dasharray="0" stroke="rgba(255, 255, 255, 0)" fill="none" class="stroke" mask="url(#Clip722)" />
  </g>
</svg>