<?xml version="1.0" encoding="utf-8"?>
<svg version="1.1" xmlns:xlink="http://www.w3.org/1999/xlink" width="50px" height="13px" xmlns="http://www.w3.org/2000/svg">
  <defs>
    <pattern id="BGPattern" patternUnits="userSpaceOnUse" alignment="0 0" imageRepeat="None" />
    <mask fill="white" id="Clip1035">
      <path d="M 10.9375 12.5  L 8.1953125 12.5  C 5.53125 12.5  4.5703125 10.125  4.5703125 10.125  L 0.203125 1.4140625  C 0.203125 1.4140625  -0.609375 0  1.015625 0  L 3.578125 0  C 4.390625 0  4.609375 0.6796875  5.046875 1.4140625  L 7.914062500000001 7.234375  C 7.914062500000001 7.234375  8.3203125 8.2578125  9.5625 8.2578125  C 10.8046875 8.2578125  11.2109375 7.234375  11.2109375 7.234375  L 14.078125 1.4140625  C 14.515624999999998 0.671875  14.734375 0  15.546874999999998 0  L 18.109375 0  C 19.734375 0  18.921875 1.4140625  18.921875 1.4140625  L 14.5625 10.125  C 14.5625 10.125  13.609375000000002 12.5  10.9375 12.5  Z M 41.8046875 12.5  L 39.0546875 12.5  C 36.390625 12.5  35.4296875 10.125  35.4296875 10.125  L 31.0625 1.4140625  C 31.0625 1.4140625  30.25 0  31.874999999999996 0  L 34.4375 0  C 35.25 0  35.46875 0.6796875  35.90625 1.4140625  L 38.7734375 7.234375  C 38.7734375 7.234375  39.1796875 8.2578125  40.421875 8.2578125  C 41.6640625 8.2578125  42.0703125 7.234375  42.0703125 7.234375  L 44.9453125 1.4140625  C 45.3828125 0.671875  45.6015625 0  46.4140625 0  L 48.984375 0  C 50.609375 0  49.796875 1.4140625  49.796875 1.4140625  L 45.4296875 10.125  C 45.4296875 10.125  44.4765625 12.5  41.8046875 12.5  Z M 23.6328125 0  L 26.375 0  C 29.0390625 0  30 2.375  30 2.375  L 34.3671875 11.0859375  C 34.3671875 11.0859375  35.1796875 12.5  33.5546875 12.5  L 30.9921875 12.5  C 30.179687500000004 12.5  29.9609375 11.8203125  29.5234375 11.0859375  L 26.656249999999996 5.265625  C 26.656249999999996 5.265625  26.25 4.2421875  25.0078125 4.2421875  C 23.765625 4.2421875  23.359375 5.265625  23.359375 5.265625  L 20.4921875 11.0859375  C 20.0546875 11.8203125  19.8359375 12.5  19.0234375 12.5  L 16.453125 12.5  C 14.828125 12.5  15.640625 11.0859375  15.640625 11.0859375  L 20.0078125 2.375  C 20.0078125 2.375  20.9609375 0  23.6328125 0  Z " fill-rule="evenodd" />
    </mask>
  </defs>
  <g>
    <path d="M 10.9375 12.5  L 8.1953125 12.5  C 5.53125 12.5  4.5703125 10.125  4.5703125 10.125  L 0.203125 1.4140625  C 0.203125 1.4140625  -0.609375 0  1.015625 0  L 3.578125 0  C 4.390625 0  4.609375 0.6796875  5.046875 1.4140625  L 7.914062500000001 7.234375  C 7.914062500000001 7.234375  8.3203125 8.2578125  9.5625 8.2578125  C 10.8046875 8.2578125  11.2109375 7.234375  11.2109375 7.234375  L 14.078125 1.4140625  C 14.515624999999998 0.671875  14.734375 0  15.546874999999998 0  L 18.109375 0  C 19.734375 0  18.921875 1.4140625  18.921875 1.4140625  L 14.5625 10.125  C 14.5625 10.125  13.609375000000002 12.5  10.9375 12.5  Z M 41.8046875 12.5  L 39.0546875 12.5  C 36.390625 12.5  35.4296875 10.125  35.4296875 10.125  L 31.0625 1.4140625  C 31.0625 1.4140625  30.25 0  31.874999999999996 0  L 34.4375 0  C 35.25 0  35.46875 0.6796875  35.90625 1.4140625  L 38.7734375 7.234375  C 38.7734375 7.234375  39.1796875 8.2578125  40.421875 8.2578125  C 41.6640625 8.2578125  42.0703125 7.234375  42.0703125 7.234375  L 44.9453125 1.4140625  C 45.3828125 0.671875  45.6015625 0  46.4140625 0  L 48.984375 0  C 50.609375 0  49.796875 1.4140625  49.796875 1.4140625  L 45.4296875 10.125  C 45.4296875 10.125  44.4765625 12.5  41.8046875 12.5  Z M 23.6328125 0  L 26.375 0  C 29.0390625 0  30 2.375  30 2.375  L 34.3671875 11.0859375  C 34.3671875 11.0859375  35.1796875 12.5  33.5546875 12.5  L 30.9921875 12.5  C 30.179687500000004 12.5  29.9609375 11.8203125  29.5234375 11.0859375  L 26.656249999999996 5.265625  C 26.656249999999996 5.265625  26.25 4.2421875  25.0078125 4.2421875  C 23.765625 4.2421875  23.359375 5.265625  23.359375 5.265625  L 20.4921875 11.0859375  C 20.0546875 11.8203125  19.8359375 12.5  19.0234375 12.5  L 16.453125 12.5  C 14.828125 12.5  15.640625 11.0859375  15.640625 11.0859375  L 20.0078125 2.375  C 20.0078125 2.375  20.9609375 0  23.6328125 0  Z " fill-rule="nonzero" fill="rgba(0, 0, 0, 1)" stroke="none" class="fill" />
    <path d="M 10.9375 12.5  L 8.1953125 12.5  C 5.53125 12.5  4.5703125 10.125  4.5703125 10.125  L 0.203125 1.4140625  C 0.203125 1.4140625  -0.609375 0  1.015625 0  L 3.578125 0  C 4.390625 0  4.609375 0.6796875  5.046875 1.4140625  L 7.914062500000001 7.234375  C 7.914062500000001 7.234375  8.3203125 8.2578125  9.5625 8.2578125  C 10.8046875 8.2578125  11.2109375 7.234375  11.2109375 7.234375  L 14.078125 1.4140625  C 14.515624999999998 0.671875  14.734375 0  15.546874999999998 0  L 18.109375 0  C 19.734375 0  18.921875 1.4140625  18.921875 1.4140625  L 14.5625 10.125  C 14.5625 10.125  13.609375000000002 12.5  10.9375 12.5  Z " stroke-width="0" stroke-dasharray="0" stroke="rgba(255, 255, 255, 0)" fill="none" class="stroke" mask="url(#Clip1035)" />
    <path d="M 41.8046875 12.5  L 39.0546875 12.5  C 36.390625 12.5  35.4296875 10.125  35.4296875 10.125  L 31.0625 1.4140625  C 31.0625 1.4140625  30.25 0  31.874999999999996 0  L 34.4375 0  C 35.25 0  35.46875 0.6796875  35.90625 1.4140625  L 38.7734375 7.234375  C 38.7734375 7.234375  39.1796875 8.2578125  40.421875 8.2578125  C 41.6640625 8.2578125  42.0703125 7.234375  42.0703125 7.234375  L 44.9453125 1.4140625  C 45.3828125 0.671875  45.6015625 0  46.4140625 0  L 48.984375 0  C 50.609375 0  49.796875 1.4140625  49.796875 1.4140625  L 45.4296875 10.125  C 45.4296875 10.125  44.4765625 12.5  41.8046875 12.5  Z " stroke-width="0" stroke-dasharray="0" stroke="rgba(255, 255, 255, 0)" fill="none" class="stroke" mask="url(#Clip1035)" />
    <path d="M 23.6328125 0  L 26.375 0  C 29.0390625 0  30 2.375  30 2.375  L 34.3671875 11.0859375  C 34.3671875 11.0859375  35.1796875 12.5  33.5546875 12.5  L 30.9921875 12.5  C 30.179687500000004 12.5  29.9609375 11.8203125  29.5234375 11.0859375  L 26.656249999999996 5.265625  C 26.656249999999996 5.265625  26.25 4.2421875  25.0078125 4.2421875  C 23.765625 4.2421875  23.359375 5.265625  23.359375 5.265625  L 20.4921875 11.0859375  C 20.0546875 11.8203125  19.8359375 12.5  19.0234375 12.5  L 16.453125 12.5  C 14.828125 12.5  15.640625 11.0859375  15.640625 11.0859375  L 20.0078125 2.375  C 20.0078125 2.375  20.9609375 0  23.6328125 0  Z " stroke-width="0" stroke-dasharray="0" stroke="rgba(255, 255, 255, 0)" fill="none" class="stroke" mask="url(#Clip1035)" />
  </g>
</svg>