<?xml version="1.0" encoding="utf-8"?>
<svg version="1.1" xmlns:xlink="http://www.w3.org/1999/xlink" width="50px" height="6px" xmlns="http://www.w3.org/2000/svg">
  <defs>
    <pattern id="BGPattern" patternUnits="userSpaceOnUse" alignment="0 0" imageRepeat="None" />
    <mask fill="white" id="Clip2756">
      <path d="M 0 5.25  L 0 0.75  L 4.5 0.75  L 4.5 5.25  L 0 5.25  Z M 11.375 5.25  L 11.375 0.75  L 15.875 0.75  L 15.875 5.25  L 11.375 5.25  Z M 34.125 5.25  L 34.125 0.75  L 38.625 0.75  L 38.625 5.25  L 34.125 5.25  Z M 45.5 5.25  L 45.5 0.75  L 50 0.75  L 50 5.25  L 45.5 5.25  Z M 22.75 5.25  L 22.75 0.75  L 27.250000000000004 0.75  L 27.250000000000004 5.25  L 22.75 5.25  Z " fill-rule="evenodd" />
    </mask>
  </defs>
  <g>
    <path d="M 0 5.25  L 0 0.75  L 4.5 0.75  L 4.5 5.25  L 0 5.25  Z M 11.375 5.25  L 11.375 0.75  L 15.875 0.75  L 15.875 5.25  L 11.375 5.25  Z M 34.125 5.25  L 34.125 0.75  L 38.625 0.75  L 38.625 5.25  L 34.125 5.25  Z M 45.5 5.25  L 45.5 0.75  L 50 0.75  L 50 5.25  L 45.5 5.25  Z M 22.75 5.25  L 22.75 0.75  L 27.250000000000004 0.75  L 27.250000000000004 5.25  L 22.75 5.25  Z " fill-rule="nonzero" fill="rgba(0, 0, 0, 1)" stroke="none" class="fill" />
    <path d="M 0 5.25  L 0 0.75  L 4.5 0.75  L 4.5 5.25  L 0 5.25  Z " stroke-width="0" stroke-dasharray="0" stroke="rgba(255, 255, 255, 0)" fill="none" class="stroke" mask="url(#Clip2756)" />
    <path d="M 11.375 5.25  L 11.375 0.75  L 15.875 0.75  L 15.875 5.25  L 11.375 5.25  Z " stroke-width="0" stroke-dasharray="0" stroke="rgba(255, 255, 255, 0)" fill="none" class="stroke" mask="url(#Clip2756)" />
    <path d="M 34.125 5.25  L 34.125 0.75  L 38.625 0.75  L 38.625 5.25  L 34.125 5.25  Z " stroke-width="0" stroke-dasharray="0" stroke="rgba(255, 255, 255, 0)" fill="none" class="stroke" mask="url(#Clip2756)" />
    <path d="M 45.5 5.25  L 45.5 0.75  L 50 0.75  L 50 5.25  L 45.5 5.25  Z " stroke-width="0" stroke-dasharray="0" stroke="rgba(255, 255, 255, 0)" fill="none" class="stroke" mask="url(#Clip2756)" />
    <path d="M 22.75 5.25  L 22.75 0.75  L 27.250000000000004 0.75  L 27.250000000000004 5.25  L 22.75 5.25  Z " stroke-width="0" stroke-dasharray="0" stroke="rgba(255, 255, 255, 0)" fill="none" class="stroke" mask="url(#Clip2756)" />
  </g>
</svg>