<?xml version="1.0" encoding="utf-8"?>
<svg version="1.1" xmlns:xlink="http://www.w3.org/1999/xlink" width="19px" height="10px" xmlns="http://www.w3.org/2000/svg">
  <defs>
    <pattern id="BGPattern" patternUnits="userSpaceOnUse" alignment="0 0" imageRepeat="None" />
    <mask fill="white" id="Clip5121">
      <path d="M 10.424999999999999 0.48799999999999955  C 10.4343418033328 0.47641914944685837  10.444359234155193 0.465399975542228  10.455000000000002 0.45500000000000007  C 10.665687913866648 0.2461507931469784  10.950340710659276 0.1289738751654408  11.24700110277898 0.1289738751654408  C 11.86832144633862 0.1289738751654408  12.372001102778981 0.6326535316057988  12.372001102778981 1.2539738751654408  C 12.372001102778981 1.5429258073713612  12.260819331745083 1.8207990843274615  12.0615 2.0299999999999994  L 6.073499999999999 9.515  C 5.860633350599004 9.744277026782196  5.5619054132625845 9.874557099452662  5.249047353693568 9.874557099452662  C 4.950653208585935 9.874557099452662  4.664482670480675 9.756010375553803  4.4535 9.544999999999998  L 0.48599999999999977 5.5760000000000005  C 0.25762899568511655 5.3632016793053054  0.12793756959919822 5.065085676917295  0.12793756959919822 4.752937569599197  C 0.12793756959919822 4.131617226039557  0.6316172260395554 3.6279375695991973  1.2529375695991982 3.6279375695991973  C 1.5650856769172954 3.6279375695991973  1.8632016793053054 3.757628995685117  2.0759999999999996 3.9860000000000007  L 5.216999999999999 7.125499999999999  L 10.424999999999999 0.48799999999999955  Z M 10.488000000000001 6.3965  L 9.075000000000001 8.165  L 10.455000000000002 9.544999999999998  C 10.665919154068957 9.755534919017897  10.95175639747397 9.873779957890122  11.249769554363118 9.873779957890122  C 11.562258612565156 9.873779957890122  11.860668551702718 9.74380600103948  12.073500000000003 9.515  L 18.061500000000002 2.0299999999999994  C 18.275601701761136 1.818622551033501  18.39611445885493 1.5302932539830358  18.39611445885493 1.2294278943475359  C 18.39611445885493 0.608107550787893  17.892434802414577 0.10442789434753585  17.27111445885493 0.10442789434753585  C 16.946989548524257 0.10442789434753585  16.63861355535294 0.24422509057258246  16.425 0.48799999999999866  L 11.2155 7.125499999999999  L 10.488000000000001 6.3965  Z " fill-rule="evenodd" />
    </mask>
  </defs>
  <g>
    <path d="M 10.424999999999999 0.48799999999999955  C 10.4343418033328 0.47641914944685837  10.444359234155193 0.465399975542228  10.455000000000002 0.45500000000000007  C 10.665687913866648 0.2461507931469784  10.950340710659276 0.1289738751654408  11.24700110277898 0.1289738751654408  C 11.86832144633862 0.1289738751654408  12.372001102778981 0.6326535316057988  12.372001102778981 1.2539738751654408  C 12.372001102778981 1.5429258073713612  12.260819331745083 1.8207990843274615  12.0615 2.0299999999999994  L 6.073499999999999 9.515  C 5.860633350599004 9.744277026782196  5.5619054132625845 9.874557099452662  5.249047353693568 9.874557099452662  C 4.950653208585935 9.874557099452662  4.664482670480675 9.756010375553803  4.4535 9.544999999999998  L 0.48599999999999977 5.5760000000000005  C 0.25762899568511655 5.3632016793053054  0.12793756959919822 5.065085676917295  0.12793756959919822 4.752937569599197  C 0.12793756959919822 4.131617226039557  0.6316172260395554 3.6279375695991973  1.2529375695991982 3.6279375695991973  C 1.5650856769172954 3.6279375695991973  1.8632016793053054 3.757628995685117  2.0759999999999996 3.9860000000000007  L 5.216999999999999 7.125499999999999  L 10.424999999999999 0.48799999999999955  Z M 10.488000000000001 6.3965  L 9.075000000000001 8.165  L 10.455000000000002 9.544999999999998  C 10.665919154068957 9.755534919017897  10.95175639747397 9.873779957890122  11.249769554363118 9.873779957890122  C 11.562258612565156 9.873779957890122  11.860668551702718 9.74380600103948  12.073500000000003 9.515  L 18.061500000000002 2.0299999999999994  C 18.275601701761136 1.818622551033501  18.39611445885493 1.5302932539830358  18.39611445885493 1.2294278943475359  C 18.39611445885493 0.608107550787893  17.892434802414577 0.10442789434753585  17.27111445885493 0.10442789434753585  C 16.946989548524257 0.10442789434753585  16.63861355535294 0.24422509057258246  16.425 0.48799999999999866  L 11.2155 7.125499999999999  L 10.488000000000001 6.3965  Z " fill-rule="nonzero" fill="rgba(0, 0, 0, 1)" stroke="none" class="fill" />
    <path d="M 10.424999999999999 0.48799999999999955  C 10.4343418033328 0.47641914944685837  10.444359234155193 0.465399975542228  10.455000000000002 0.45500000000000007  C 10.665687913866648 0.2461507931469784  10.950340710659276 0.1289738751654408  11.24700110277898 0.1289738751654408  C 11.86832144633862 0.1289738751654408  12.372001102778981 0.6326535316057988  12.372001102778981 1.2539738751654408  C 12.372001102778981 1.5429258073713612  12.260819331745083 1.8207990843274615  12.0615 2.0299999999999994  L 6.073499999999999 9.515  C 5.860633350599004 9.744277026782196  5.5619054132625845 9.874557099452662  5.249047353693568 9.874557099452662  C 4.950653208585935 9.874557099452662  4.664482670480675 9.756010375553803  4.4535 9.544999999999998  L 0.48599999999999977 5.5760000000000005  C 0.25762899568511655 5.3632016793053054  0.12793756959919822 5.065085676917295  0.12793756959919822 4.752937569599197  C 0.12793756959919822 4.131617226039557  0.6316172260395554 3.6279375695991973  1.2529375695991982 3.6279375695991973  C 1.5650856769172954 3.6279375695991973  1.8632016793053054 3.757628995685117  2.0759999999999996 3.9860000000000007  L 5.216999999999999 7.125499999999999  L 10.424999999999999 0.48799999999999955  Z " stroke-width="0" stroke-dasharray="0" stroke="rgba(255, 255, 255, 0)" fill="none" class="stroke" mask="url(#Clip5121)" />
    <path d="M 10.488000000000001 6.3965  L 9.075000000000001 8.165  L 10.455000000000002 9.544999999999998  C 10.665919154068957 9.755534919017897  10.95175639747397 9.873779957890122  11.249769554363118 9.873779957890122  C 11.562258612565156 9.873779957890122  11.860668551702718 9.74380600103948  12.073500000000003 9.515  L 18.061500000000002 2.0299999999999994  C 18.275601701761136 1.818622551033501  18.39611445885493 1.5302932539830358  18.39611445885493 1.2294278943475359  C 18.39611445885493 0.608107550787893  17.892434802414577 0.10442789434753585  17.27111445885493 0.10442789434753585  C 16.946989548524257 0.10442789434753585  16.63861355535294 0.24422509057258246  16.425 0.48799999999999866  L 11.2155 7.125499999999999  L 10.488000000000001 6.3965  Z " stroke-width="0" stroke-dasharray="0" stroke="rgba(255, 255, 255, 0)" fill="none" class="stroke" mask="url(#Clip5121)" />
  </g>
</svg>