<?xml version="1.0" encoding="utf-8"?>
<svg version="1.1" xmlns:xlink="http://www.w3.org/1999/xlink" width="50px" height="50px" xmlns="http://www.w3.org/2000/svg">
  <defs>
    <pattern id="BGPattern" patternUnits="userSpaceOnUse" alignment="0 0" imageRepeat="None" />
    <mask fill="white" id="Clip1089">
      <path d="M 36.975446428571445 28.06919642857145  C 37.834821428571445 28.90625  37.23214285714286 30.357142857142833  36.037946428571416 30  L 13.962053571428584 30  C 12.767857142857139 30.357142857142833  12.165178571428584 28.90625  13.013392857142861 28.06919642857145  L 24.051339285714278 17.098214285714278  C 24.57589285714286 16.573660714285722  25.412946428571416 16.573660714285722  25.937500000000004 17.098214285714278  L 36.975446428571445 28.06919642857145  Z M 44.64285714285717 0  C 47.600446428571445 0  50 2.3995535714285836  50 5.357142857142861  L 50 44.64285714285717  C 50 47.600446428571445  47.600446428571445 50  44.64285714285717 50  L 5.357142857142861 50  C 2.3995535714285836 50  0 47.600446428571445  0 44.64285714285717  L 0 5.357142857142861  C 0 2.3995535714285836  2.3995535714285836 0  5.357142857142861 0  L 44.64285714285717 0  Z M 43.97321428571428 44  C 44.34151785714289 44.64285714285717  44.64285714285717 44.34151785714289  44 43.97321428571428  L 44 6.026785714285722  C 44.64285714285717 5.658482142857139  44.34151785714289 5.357142857142861  43.97321428571428 6  L 6.026785714285722 6  C 5.658482142857139 5.357142857142861  5.357142857142861 5.658482142857139  6 6.026785714285722  L 6 43.97321428571428  C 5.357142857142861 44.34151785714289  5.658482142857139 44.64285714285717  6.026785714285722 44  L 43.97321428571428 44  Z " fill-rule="evenodd" />
    </mask>
  </defs>
  <g>
    <path d="M 36.975446428571445 28.06919642857145  C 37.834821428571445 28.90625  37.23214285714286 30.357142857142833  36.037946428571416 30  L 13.962053571428584 30  C 12.767857142857139 30.357142857142833  12.165178571428584 28.90625  13.013392857142861 28.06919642857145  L 24.051339285714278 17.098214285714278  C 24.57589285714286 16.573660714285722  25.412946428571416 16.573660714285722  25.937500000000004 17.098214285714278  L 36.975446428571445 28.06919642857145  Z M 44.64285714285717 0  C 47.600446428571445 0  50 2.3995535714285836  50 5.357142857142861  L 50 44.64285714285717  C 50 47.600446428571445  47.600446428571445 50  44.64285714285717 50  L 5.357142857142861 50  C 2.3995535714285836 50  0 47.600446428571445  0 44.64285714285717  L 0 5.357142857142861  C 0 2.3995535714285836  2.3995535714285836 0  5.357142857142861 0  L 44.64285714285717 0  Z M 43.97321428571428 44  C 44.34151785714289 44.64285714285717  44.64285714285717 44.34151785714289  44 43.97321428571428  L 44 6.026785714285722  C 44.64285714285717 5.658482142857139  44.34151785714289 5.357142857142861  43.97321428571428 6  L 6.026785714285722 6  C 5.658482142857139 5.357142857142861  5.357142857142861 5.658482142857139  6 6.026785714285722  L 6 43.97321428571428  C 5.357142857142861 44.34151785714289  5.658482142857139 44.64285714285717  6.026785714285722 44  L 43.97321428571428 44  Z " fill-rule="nonzero" fill="rgba(0, 0, 0, 1)" stroke="none" class="fill" />
    <path d="M 36.975446428571445 28.06919642857145  C 37.834821428571445 28.90625  37.23214285714286 30.357142857142833  36.037946428571416 30  L 13.962053571428584 30  C 12.767857142857139 30.357142857142833  12.165178571428584 28.90625  13.013392857142861 28.06919642857145  L 24.051339285714278 17.098214285714278  C 24.57589285714286 16.573660714285722  25.412946428571416 16.573660714285722  25.937500000000004 17.098214285714278  L 36.975446428571445 28.06919642857145  Z " stroke-width="0" stroke-dasharray="0" stroke="rgba(255, 255, 255, 0)" fill="none" class="stroke" mask="url(#Clip1089)" />
    <path d="M 44.64285714285717 0  C 47.600446428571445 0  50 2.3995535714285836  50 5.357142857142861  L 50 44.64285714285717  C 50 47.600446428571445  47.600446428571445 50  44.64285714285717 50  L 5.357142857142861 50  C 2.3995535714285836 50  0 47.600446428571445  0 44.64285714285717  L 0 5.357142857142861  C 0 2.3995535714285836  2.3995535714285836 0  5.357142857142861 0  L 44.64285714285717 0  Z " stroke-width="0" stroke-dasharray="0" stroke="rgba(255, 255, 255, 0)" fill="none" class="stroke" mask="url(#Clip1089)" />
    <path d="M 43.97321428571428 44  C 44.34151785714289 44.64285714285717  44.64285714285717 44.34151785714289  44 43.97321428571428  L 44 6.026785714285722  C 44.64285714285717 5.658482142857139  44.34151785714289 5.357142857142861  43.97321428571428 6  L 6.026785714285722 6  C 5.658482142857139 5.357142857142861  5.357142857142861 5.658482142857139  6 6.026785714285722  L 6 43.97321428571428  C 5.357142857142861 44.34151785714289  5.658482142857139 44.64285714285717  6.026785714285722 44  L 43.97321428571428 44  Z " stroke-width="0" stroke-dasharray="0" stroke="rgba(255, 255, 255, 0)" fill="none" class="stroke" mask="url(#Clip1089)" />
  </g>
</svg>