<?xml version="1.0" encoding="utf-8"?>
<svg version="1.1" xmlns:xlink="http://www.w3.org/1999/xlink" width="32px" height="44px" xmlns="http://www.w3.org/2000/svg">
  <defs>
    <pattern id="BGPattern" patternUnits="userSpaceOnUse" alignment="0 0" imageRepeat="None" />
    <mask fill="white" id="Clip2373">
      <path d="M 26.79090742756948 21.999999999999996  C 26.79090742756948 22.413650782795365  26.60065632923277 22.804316329616377  26.275 23.059375000000003  L 2.3249999999999993 41.873125  C 1.4343749999999993 42.573125000000005  0.125 41.941875  0.125 40.81375  L 0.125 3.185625  C 0.125 2.057499999999999  1.4343749999999993 1.426874999999999  2.3249999999999993 2.126875  L 26.275000000000006 20.940624999999997  C 26.60065632923277 21.195683670383616  26.79090742756948 21.58634921720463  26.79090742756948 21.999999999999996  Z M 26.875 43.5  C 26.875 43.776142374915395  27.098857625084605 44  27.375 44  L 31.375 44  C 31.651142374915395 44  31.875 43.776142374915395  31.875 43.5  L 31.875 0.5  C 31.875 0.22385762508460338  31.651142374915395 0  31.375 0  L 27.375 0  C 27.098857625084605 0  26.875 0.22385762508460338  26.875 0.5  L 26.875 43.5  Z " fill-rule="evenodd" />
    </mask>
  </defs>
  <g>
    <path d="M 26.79090742756948 21.999999999999996  C 26.79090742756948 22.413650782795365  26.60065632923277 22.804316329616377  26.275 23.059375000000003  L 2.3249999999999993 41.873125  C 1.4343749999999993 42.573125000000005  0.125 41.941875  0.125 40.81375  L 0.125 3.185625  C 0.125 2.057499999999999  1.4343749999999993 1.426874999999999  2.3249999999999993 2.126875  L 26.275000000000006 20.940624999999997  C 26.60065632923277 21.195683670383616  26.79090742756948 21.58634921720463  26.79090742756948 21.999999999999996  Z M 26.875 43.5  C 26.875 43.776142374915395  27.098857625084605 44  27.375 44  L 31.375 44  C 31.651142374915395 44  31.875 43.776142374915395  31.875 43.5  L 31.875 0.5  C 31.875 0.22385762508460338  31.651142374915395 0  31.375 0  L 27.375 0  C 27.098857625084605 0  26.875 0.22385762508460338  26.875 0.5  L 26.875 43.5  Z " fill-rule="nonzero" fill="rgba(0, 0, 0, 1)" stroke="none" class="fill" />
    <path d="M 26.79090742756948 21.999999999999996  C 26.79090742756948 22.413650782795365  26.60065632923277 22.804316329616377  26.275 23.059375000000003  L 2.3249999999999993 41.873125  C 1.4343749999999993 42.573125000000005  0.125 41.941875  0.125 40.81375  L 0.125 3.185625  C 0.125 2.057499999999999  1.4343749999999993 1.426874999999999  2.3249999999999993 2.126875  L 26.275000000000006 20.940624999999997  C 26.60065632923277 21.195683670383616  26.79090742756948 21.58634921720463  26.79090742756948 21.999999999999996  Z " stroke-width="0" stroke-dasharray="0" stroke="rgba(255, 255, 255, 0)" fill="none" class="stroke" mask="url(#Clip2373)" />
    <path d="M 26.875 43.5  C 26.875 43.776142374915395  27.098857625084605 44  27.375 44  L 31.375 44  C 31.651142374915395 44  31.875 43.776142374915395  31.875 43.5  L 31.875 0.5  C 31.875 0.22385762508460338  31.651142374915395 0  31.375 0  L 27.375 0  C 27.098857625084605 0  26.875 0.22385762508460338  26.875 0.5  L 26.875 43.5  Z " stroke-width="0" stroke-dasharray="0" stroke="rgba(255, 255, 255, 0)" fill="none" class="stroke" mask="url(#Clip2373)" />
  </g>
</svg>