<?xml version="1.0" encoding="utf-8"?>
<svg version="1.1" xmlns:xlink="http://www.w3.org/1999/xlink" width="50px" height="50px" xmlns="http://www.w3.org/2000/svg">
  <defs>
    <pattern id="BGPattern" patternUnits="userSpaceOnUse" alignment="0 0" imageRepeat="None" />
    <mask fill="white" id="Clip800">
      <path d="M 12.466517857142861 37.41071428571428  C 12.466517857142861 35.625  14.21875 35.32366071428572  15.63616071428572 35.32366071428572  C 16.98660714285714 35.32366071428572  18.928571428571416 35.55803571428572  18.928571428571416 37.321428571428555  C 18.928571428571416 39.05133928571428  17.37723214285714 39.41964285714283  15.915178571428584 39.41964285714283  C 14.542410714285722 39.41964285714283  12.466517857142861 39.196428571428555  12.466517857142861 37.41071428571428  Z M 17.734375 22.265625  C 17.745535714285722 18.426339285714278  12.87946428571428 18.381696428571445  12.87946428571428 22.310267857142833  C 12.87946428571428 23.962053571428555  13.616071428571416 25  15.368303571428585 25  C 17.098214285714278 25  17.734375 23.883928571428555  17.734375 22.265625  Z M 44.64285714285714 0  C 47.600446428571445 0  50 2.399553571428555  50 5.357142857142833  L 50 44.64285714285717  C 50 47.600446428571445  47.600446428571445 50  44.64285714285714 50  L 5.357142857142861 50  C 2.3995535714285836 50  0 47.600446428571445  0 44.64285714285717  L 0 5.357142857142833  C 0 2.399553571428555  2.3995535714285836 0  5.357142857142861 0  L 44.64285714285714 0  Z M 23.102678571428584 19.854910714285722  L 23.102678571428584 15.814732142857169  C 21.729910714285722 16.350446428571445  20.256696428571416 16.752232142857167  18.761160714285722 16.752232142857167  C 14.46428571428572 14.285714285714276  8.638392857142861 16.852678571428555  8.638392857142861 22.276785714285722  C 8.638392857142861 24.285714285714278  9.933035714285722 27.064732142857167  11.941964285714278 27.734375  L 11.941964285714278 27.8125  C 10.446428571428584 28.47098214285711  10.033482142857139 31.841517857142833  12.020089285714278 33.05803571428572  L 12.020089285714278 33.13616071428572  C 9.84375 33.850446428571445  8.415178571428584 35.234375  8.415178571428584 37.62276785714283  C 8.415178571428584 41.72991071428572  12.299107142857139 42.868303571428555  15.714285714285722 42.868303571428555  C 19.854910714285722 42.868303571428555  22.946428571428584 41.37276785714283  22.946428571428584 36.80803571428572  C 22.946428571428584 31.183035714285722  14.899553571428584 33.258928571428555  14.899553571428584 30.212053571428555  C 14.899553571428584 29.140624999999996  15.479910714285722 28.716517857142833  16.473214285714278 28.515625  C 19.776785714285722 27.901785714285722  21.852678571428584 25.323660714285722  21.852678571428584 21.964285714285722  C 21.852678571428584 21.383928571428555  21.729910714285722 20.825892857142833  21.52901785714286 20.290178571428555  C 22.06473214285714 20.167410714285722  22.589285714285722 20.03348214285711  23.102678571428584 19.854910714285722  Z M 29.441964285714278 33.37053571428572  C 29.319196428571416 31.941964285714274  29.308035714285722 17.176339285714278  29.441964285714278 16.015625  L 25.02232142857144 16.015625  C 25.167410714285722 17.198660714285722  25.145089285714278 31.930803571428555  25.02232142857144 33.37053571428572  L 29.441964285714278 33.37053571428572  Z M 27.254464285714274 12.957589285714278  C 28.783482142857135 12.957589285714278  29.944196428571445 11.5625  29.944196428571445 10.066964285714278  C 29.944196428571445 8.571428571428555  28.828125 7.142857142857167  27.254464285714274 7.142857142857167  C 25.658482142857135 7.142857142857167  24.508928571428584 8.537946428571445  24.508928571428584 10.066964285714278  C 24.508928571428584 11.584821428571445  25.680803571428584 12.957589285714278  27.254464285714274 12.957589285714278  Z M 41.59598214285717 16.015625  L 41.584821428571445 16.015625  L 37.522321428571445 16.015625  C 37.522321428571445 14.921875000000002  37.477678571428584 13.828125  37.64508928571428 12.723214285714276  L 33.125 12.723214285714276  C 33.27008928571428 13.537946428571445  33.24776785714286 14.241071428571445  33.24776785714286 16.015625  L 31.339285714285726 16.015625  L 31.339285714285726 19.799107142857167  C 32.66741071428572 19.587053571428555  32.68973214285717 19.720982142857167  33.24776785714286 19.720982142857167  L 33.24776785714286 19.799107142857167  L 33.203125 19.799107142857167  L 33.203125 26.796874999999996  C 33.203125 30.267857142857167  33.70535714285717 33.62723214285717  37.96875 33.62723214285717  C 39.162946428571445 33.62723214285717  40.535714285714306 33.42633928571428  41.59598214285717 32.84598214285717  L 41.59598214285717 28.939732142857167  C 40.959821428571445 29.375  40.04464285714286 29.598214285714274  39.26339285714286 29.598214285714274  C 37.790178571428584 29.598214285714274  37.53348214285717 28.158482142857167  37.53348214285717 26.986607142857167  L 37.53348214285717 19.709821428571445  C 40.066964285714306 19.709821428571445  41.59598214285717 19.787946428571445  41.59598214285717 19.787946428571445  L 41.59598214285717 16.015625  Z " fill-rule="evenodd" />
    </mask>
  </defs>
  <g>
    <path d="M 12.466517857142861 37.41071428571428  C 12.466517857142861 35.625  14.21875 35.32366071428572  15.63616071428572 35.32366071428572  C 16.98660714285714 35.32366071428572  18.928571428571416 35.55803571428572  18.928571428571416 37.321428571428555  C 18.928571428571416 39.05133928571428  17.37723214285714 39.41964285714283  15.915178571428584 39.41964285714283  C 14.542410714285722 39.41964285714283  12.466517857142861 39.196428571428555  12.466517857142861 37.41071428571428  Z M 17.734375 22.265625  C 17.745535714285722 18.426339285714278  12.87946428571428 18.381696428571445  12.87946428571428 22.310267857142833  C 12.87946428571428 23.962053571428555  13.616071428571416 25  15.368303571428585 25  C 17.098214285714278 25  17.734375 23.883928571428555  17.734375 22.265625  Z M 44.64285714285714 0  C 47.600446428571445 0  50 2.399553571428555  50 5.357142857142833  L 50 44.64285714285717  C 50 47.600446428571445  47.600446428571445 50  44.64285714285714 50  L 5.357142857142861 50  C 2.3995535714285836 50  0 47.600446428571445  0 44.64285714285717  L 0 5.357142857142833  C 0 2.399553571428555  2.3995535714285836 0  5.357142857142861 0  L 44.64285714285714 0  Z M 23.102678571428584 19.854910714285722  L 23.102678571428584 15.814732142857169  C 21.729910714285722 16.350446428571445  20.256696428571416 16.752232142857167  18.761160714285722 16.752232142857167  C 14.46428571428572 14.285714285714276  8.638392857142861 16.852678571428555  8.638392857142861 22.276785714285722  C 8.638392857142861 24.285714285714278  9.933035714285722 27.064732142857167  11.941964285714278 27.734375  L 11.941964285714278 27.8125  C 10.446428571428584 28.47098214285711  10.033482142857139 31.841517857142833  12.020089285714278 33.05803571428572  L 12.020089285714278 33.13616071428572  C 9.84375 33.850446428571445  8.415178571428584 35.234375  8.415178571428584 37.62276785714283  C 8.415178571428584 41.72991071428572  12.299107142857139 42.868303571428555  15.714285714285722 42.868303571428555  C 19.854910714285722 42.868303571428555  22.946428571428584 41.37276785714283  22.946428571428584 36.80803571428572  C 22.946428571428584 31.183035714285722  14.899553571428584 33.258928571428555  14.899553571428584 30.212053571428555  C 14.899553571428584 29.140624999999996  15.479910714285722 28.716517857142833  16.473214285714278 28.515625  C 19.776785714285722 27.901785714285722  21.852678571428584 25.323660714285722  21.852678571428584 21.964285714285722  C 21.852678571428584 21.383928571428555  21.729910714285722 20.825892857142833  21.52901785714286 20.290178571428555  C 22.06473214285714 20.167410714285722  22.589285714285722 20.03348214285711  23.102678571428584 19.854910714285722  Z M 29.441964285714278 33.37053571428572  C 29.319196428571416 31.941964285714274  29.308035714285722 17.176339285714278  29.441964285714278 16.015625  L 25.02232142857144 16.015625  C 25.167410714285722 17.198660714285722  25.145089285714278 31.930803571428555  25.02232142857144 33.37053571428572  L 29.441964285714278 33.37053571428572  Z M 27.254464285714274 12.957589285714278  C 28.783482142857135 12.957589285714278  29.944196428571445 11.5625  29.944196428571445 10.066964285714278  C 29.944196428571445 8.571428571428555  28.828125 7.142857142857167  27.254464285714274 7.142857142857167  C 25.658482142857135 7.142857142857167  24.508928571428584 8.537946428571445  24.508928571428584 10.066964285714278  C 24.508928571428584 11.584821428571445  25.680803571428584 12.957589285714278  27.254464285714274 12.957589285714278  Z M 41.59598214285717 16.015625  L 41.584821428571445 16.015625  L 37.522321428571445 16.015625  C 37.522321428571445 14.921875000000002  37.477678571428584 13.828125  37.64508928571428 12.723214285714276  L 33.125 12.723214285714276  C 33.27008928571428 13.537946428571445  33.24776785714286 14.241071428571445  33.24776785714286 16.015625  L 31.339285714285726 16.015625  L 31.339285714285726 19.799107142857167  C 32.66741071428572 19.587053571428555  32.68973214285717 19.720982142857167  33.24776785714286 19.720982142857167  L 33.24776785714286 19.799107142857167  L 33.203125 19.799107142857167  L 33.203125 26.796874999999996  C 33.203125 30.267857142857167  33.70535714285717 33.62723214285717  37.96875 33.62723214285717  C 39.162946428571445 33.62723214285717  40.535714285714306 33.42633928571428  41.59598214285717 32.84598214285717  L 41.59598214285717 28.939732142857167  C 40.959821428571445 29.375  40.04464285714286 29.598214285714274  39.26339285714286 29.598214285714274  C 37.790178571428584 29.598214285714274  37.53348214285717 28.158482142857167  37.53348214285717 26.986607142857167  L 37.53348214285717 19.709821428571445  C 40.066964285714306 19.709821428571445  41.59598214285717 19.787946428571445  41.59598214285717 19.787946428571445  L 41.59598214285717 16.015625  Z " fill-rule="nonzero" fill="rgba(0, 0, 0, 1)" stroke="none" class="fill" />
    <path d="M 12.466517857142861 37.41071428571428  C 12.466517857142861 35.625  14.21875 35.32366071428572  15.63616071428572 35.32366071428572  C 16.98660714285714 35.32366071428572  18.928571428571416 35.55803571428572  18.928571428571416 37.321428571428555  C 18.928571428571416 39.05133928571428  17.37723214285714 39.41964285714283  15.915178571428584 39.41964285714283  C 14.542410714285722 39.41964285714283  12.466517857142861 39.196428571428555  12.466517857142861 37.41071428571428  Z " stroke-width="0" stroke-dasharray="0" stroke="rgba(255, 255, 255, 0)" fill="none" class="stroke" mask="url(#Clip800)" />
    <path d="M 17.734375 22.265625  C 17.745535714285722 18.426339285714278  12.87946428571428 18.381696428571445  12.87946428571428 22.310267857142833  C 12.87946428571428 23.962053571428555  13.616071428571416 25  15.368303571428585 25  C 17.098214285714278 25  17.734375 23.883928571428555  17.734375 22.265625  Z " stroke-width="0" stroke-dasharray="0" stroke="rgba(255, 255, 255, 0)" fill="none" class="stroke" mask="url(#Clip800)" />
    <path d="M 44.64285714285714 0  C 47.600446428571445 0  50 2.399553571428555  50 5.357142857142833  L 50 44.64285714285717  C 50 47.600446428571445  47.600446428571445 50  44.64285714285714 50  L 5.357142857142861 50  C 2.3995535714285836 50  0 47.600446428571445  0 44.64285714285717  L 0 5.357142857142833  C 0 2.399553571428555  2.3995535714285836 0  5.357142857142861 0  L 44.64285714285714 0  Z " stroke-width="0" stroke-dasharray="0" stroke="rgba(255, 255, 255, 0)" fill="none" class="stroke" mask="url(#Clip800)" />
    <path d="M 23.102678571428584 19.854910714285722  L 23.102678571428584 15.814732142857169  C 21.729910714285722 16.350446428571445  20.256696428571416 16.752232142857167  18.761160714285722 16.752232142857167  C 14.46428571428572 14.285714285714276  8.638392857142861 16.852678571428555  8.638392857142861 22.276785714285722  C 8.638392857142861 24.285714285714278  9.933035714285722 27.064732142857167  11.941964285714278 27.734375  L 11.941964285714278 27.8125  C 10.446428571428584 28.47098214285711  10.033482142857139 31.841517857142833  12.020089285714278 33.05803571428572  L 12.020089285714278 33.13616071428572  C 9.84375 33.850446428571445  8.415178571428584 35.234375  8.415178571428584 37.62276785714283  C 8.415178571428584 41.72991071428572  12.299107142857139 42.868303571428555  15.714285714285722 42.868303571428555  C 19.854910714285722 42.868303571428555  22.946428571428584 41.37276785714283  22.946428571428584 36.80803571428572  C 22.946428571428584 31.183035714285722  14.899553571428584 33.258928571428555  14.899553571428584 30.212053571428555  C 14.899553571428584 29.140624999999996  15.479910714285722 28.716517857142833  16.473214285714278 28.515625  C 19.776785714285722 27.901785714285722  21.852678571428584 25.323660714285722  21.852678571428584 21.964285714285722  C 21.852678571428584 21.383928571428555  21.729910714285722 20.825892857142833  21.52901785714286 20.290178571428555  C 22.06473214285714 20.167410714285722  22.589285714285722 20.03348214285711  23.102678571428584 19.854910714285722  Z " stroke-width="0" stroke-dasharray="0" stroke="rgba(255, 255, 255, 0)" fill="none" class="stroke" mask="url(#Clip800)" />
    <path d="M 29.441964285714278 33.37053571428572  C 29.319196428571416 31.941964285714274  29.308035714285722 17.176339285714278  29.441964285714278 16.015625  L 25.02232142857144 16.015625  C 25.167410714285722 17.198660714285722  25.145089285714278 31.930803571428555  25.02232142857144 33.37053571428572  L 29.441964285714278 33.37053571428572  Z " stroke-width="0" stroke-dasharray="0" stroke="rgba(255, 255, 255, 0)" fill="none" class="stroke" mask="url(#Clip800)" />
    <path d="M 27.254464285714274 12.957589285714278  C 28.783482142857135 12.957589285714278  29.944196428571445 11.5625  29.944196428571445 10.066964285714278  C 29.944196428571445 8.571428571428555  28.828125 7.142857142857167  27.254464285714274 7.142857142857167  C 25.658482142857135 7.142857142857167  24.508928571428584 8.537946428571445  24.508928571428584 10.066964285714278  C 24.508928571428584 11.584821428571445  25.680803571428584 12.957589285714278  27.254464285714274 12.957589285714278  Z " stroke-width="0" stroke-dasharray="0" stroke="rgba(255, 255, 255, 0)" fill="none" class="stroke" mask="url(#Clip800)" />
    <path d="M 41.59598214285717 16.015625  L 41.584821428571445 16.015625  L 37.522321428571445 16.015625  C 37.522321428571445 14.921875000000002  37.477678571428584 13.828125  37.64508928571428 12.723214285714276  L 33.125 12.723214285714276  C 33.27008928571428 13.537946428571445  33.24776785714286 14.241071428571445  33.24776785714286 16.015625  L 31.339285714285726 16.015625  L 31.339285714285726 19.799107142857167  C 32.66741071428572 19.587053571428555  32.68973214285717 19.720982142857167  33.24776785714286 19.720982142857167  L 33.24776785714286 19.799107142857167  L 33.203125 19.799107142857167  L 33.203125 26.796874999999996  C 33.203125 30.267857142857167  33.70535714285717 33.62723214285717  37.96875 33.62723214285717  C 39.162946428571445 33.62723214285717  40.535714285714306 33.42633928571428  41.59598214285717 32.84598214285717  L 41.59598214285717 28.939732142857167  C 40.959821428571445 29.375  40.04464285714286 29.598214285714274  39.26339285714286 29.598214285714274  C 37.790178571428584 29.598214285714274  37.53348214285717 28.158482142857167  37.53348214285717 26.986607142857167  L 37.53348214285717 19.709821428571445  C 40.066964285714306 19.709821428571445  41.59598214285717 19.787946428571445  41.59598214285717 19.787946428571445  L 41.59598214285717 16.015625  Z " stroke-width="0" stroke-dasharray="0" stroke="rgba(255, 255, 255, 0)" fill="none" class="stroke" mask="url(#Clip800)" />
  </g>
</svg>