<?xml version="1.0" encoding="utf-8"?>
<svg version="1.1" xmlns:xlink="http://www.w3.org/1999/xlink" width="48px" height="50px" xmlns="http://www.w3.org/2000/svg">
  <defs>
    <pattern id="BGPattern" patternUnits="userSpaceOnUse" alignment="0 0" imageRepeat="None" />
    <mask fill="white" id="Clip7231">
      <path d="M 24.01 3.4700000000000055  C 35.878 3.4700000000000055  45.536 13.126000000000007  45.536 25.004000000000005  C 45.536 36.874  35.878 46.540000000000006  24 46.540000000000006  C 12.130000000000003 46.53000000000001  2.474 36.87400000000001  2.474 25.004000000000005  C 2.474 13.124000000000006  12.130000000000003 3.4700000000000055  24.01 3.4700000000000055  Z M 47.996 25.003999999999998  C 47.996 21.758  47.374 18.622  46.120000000000005 15.658000000000005  C 44.918167595931365 12.806322652523603  43.17231824653052 10.21608001856819  40.980000000000004 8.032000000000004  C 38.79429325930854 5.841652857749043  36.204460692548864 4.09607989772481  33.354000000000006 2.892000000000005  C 30.399527416550136 1.635293365452583  27.220630718047587 0.9916212171684612  24.010000000000005 1  C 17.64068960213951 0.9839172207256257  11.529516774632455 3.515956304099986  7.038 8.032  C 4.846721317780037 10.218120798347794  3.1004493004092173 12.808662017426869  1.896 15.659999999999998  C 0.636 18.622  0.004 21.76  0.004 25.004000000000005  C 0.004 28.248  0.636 31.387999999999998  1.888 34.35  C 3.08983240406864 37.201677347476405  4.835681753469479 39.79191998143181  7.0280000000000005 41.976000000000006  C 11.525494457616436 46.48214696954143  17.633468976692406 49.009981816465164  24 49  C 27.238 49  30.381999999999998 48.36  33.346000000000004 47.116  C 36.197677347476386 45.91416759593137  38.78791998143183 44.168318246530504  40.972 41.976000000000006  C 45.478146969541434 37.47850554238357  48.00598181646518 31.370531023307592  47.996 25.003999999999998  Z M 22.28 24.894  L 18 30.262  L 18 19.526  L 22.28 24.894  Z M 24.009999999999998 23.112  L 15 13.592  L 15 36.436  L 30 19.526  L 30 33.06  C 30.886000000000003 33.746  31.444000000000003 34.296  32.12 34.296  C 32.807042228789506 34.296  33.364 33.73904222878951  33 33.052  L 33 13.571999999999997  L 24.009999999999998 23.112  Z " fill-rule="evenodd" />
    </mask>
  </defs>
  <g>
    <path d="M 24.01 3.4700000000000055  C 35.878 3.4700000000000055  45.536 13.126000000000007  45.536 25.004000000000005  C 45.536 36.874  35.878 46.540000000000006  24 46.540000000000006  C 12.130000000000003 46.53000000000001  2.474 36.87400000000001  2.474 25.004000000000005  C 2.474 13.124000000000006  12.130000000000003 3.4700000000000055  24.01 3.4700000000000055  Z M 47.996 25.003999999999998  C 47.996 21.758  47.374 18.622  46.120000000000005 15.658000000000005  C 44.918167595931365 12.806322652523603  43.17231824653052 10.21608001856819  40.980000000000004 8.032000000000004  C 38.79429325930854 5.841652857749043  36.204460692548864 4.09607989772481  33.354000000000006 2.892000000000005  C 30.399527416550136 1.635293365452583  27.220630718047587 0.9916212171684612  24.010000000000005 1  C 17.64068960213951 0.9839172207256257  11.529516774632455 3.515956304099986  7.038 8.032  C 4.846721317780037 10.218120798347794  3.1004493004092173 12.808662017426869  1.896 15.659999999999998  C 0.636 18.622  0.004 21.76  0.004 25.004000000000005  C 0.004 28.248  0.636 31.387999999999998  1.888 34.35  C 3.08983240406864 37.201677347476405  4.835681753469479 39.79191998143181  7.0280000000000005 41.976000000000006  C 11.525494457616436 46.48214696954143  17.633468976692406 49.009981816465164  24 49  C 27.238 49  30.381999999999998 48.36  33.346000000000004 47.116  C 36.197677347476386 45.91416759593137  38.78791998143183 44.168318246530504  40.972 41.976000000000006  C 45.478146969541434 37.47850554238357  48.00598181646518 31.370531023307592  47.996 25.003999999999998  Z M 22.28 24.894  L 18 30.262  L 18 19.526  L 22.28 24.894  Z M 24.009999999999998 23.112  L 15 13.592  L 15 36.436  L 30 19.526  L 30 33.06  C 30.886000000000003 33.746  31.444000000000003 34.296  32.12 34.296  C 32.807042228789506 34.296  33.364 33.73904222878951  33 33.052  L 33 13.571999999999997  L 24.009999999999998 23.112  Z " fill-rule="nonzero" fill="rgba(23, 57, 74, 1)" stroke="none" class="fill" />
    <path d="M 24.01 3.4700000000000055  C 35.878 3.4700000000000055  45.536 13.126000000000007  45.536 25.004000000000005  C 45.536 36.874  35.878 46.540000000000006  24 46.540000000000006  C 12.130000000000003 46.53000000000001  2.474 36.87400000000001  2.474 25.004000000000005  C 2.474 13.124000000000006  12.130000000000003 3.4700000000000055  24.01 3.4700000000000055  Z " stroke-width="0" stroke-dasharray="0" stroke="rgba(255, 255, 255, 0)" fill="none" class="stroke" mask="url(#Clip7231)" />
    <path d="M 47.996 25.003999999999998  C 47.996 21.758  47.374 18.622  46.120000000000005 15.658000000000005  C 44.918167595931365 12.806322652523603  43.17231824653052 10.21608001856819  40.980000000000004 8.032000000000004  C 38.79429325930854 5.841652857749043  36.204460692548864 4.09607989772481  33.354000000000006 2.892000000000005  C 30.399527416550136 1.635293365452583  27.220630718047587 0.9916212171684612  24.010000000000005 1  C 17.64068960213951 0.9839172207256257  11.529516774632455 3.515956304099986  7.038 8.032  C 4.846721317780037 10.218120798347794  3.1004493004092173 12.808662017426869  1.896 15.659999999999998  C 0.636 18.622  0.004 21.76  0.004 25.004000000000005  C 0.004 28.248  0.636 31.387999999999998  1.888 34.35  C 3.08983240406864 37.201677347476405  4.835681753469479 39.79191998143181  7.0280000000000005 41.976000000000006  C 11.525494457616436 46.48214696954143  17.633468976692406 49.009981816465164  24 49  C 27.238 49  30.381999999999998 48.36  33.346000000000004 47.116  C 36.197677347476386 45.91416759593137  38.78791998143183 44.168318246530504  40.972 41.976000000000006  C 45.478146969541434 37.47850554238357  48.00598181646518 31.370531023307592  47.996 25.003999999999998  Z " stroke-width="0" stroke-dasharray="0" stroke="rgba(255, 255, 255, 0)" fill="none" class="stroke" mask="url(#Clip7231)" />
    <path d="M 22.28 24.894  L 18 30.262  L 18 19.526  L 22.28 24.894  Z " stroke-width="0" stroke-dasharray="0" stroke="rgba(255, 255, 255, 0)" fill="none" class="stroke" mask="url(#Clip7231)" />
    <path d="M 24.009999999999998 23.112  L 15 13.592  L 15 36.436  L 30 19.526  L 30 33.06  C 30.886000000000003 33.746  31.444000000000003 34.296  32.12 34.296  C 32.807042228789506 34.296  33.364 33.73904222878951  33 33.052  L 33 13.571999999999997  L 24.009999999999998 23.112  Z " stroke-width="0" stroke-dasharray="0" stroke="rgba(255, 255, 255, 0)" fill="none" class="stroke" mask="url(#Clip7231)" />
  </g>
</svg>