<?xml version="1.0" encoding="utf-8"?>
<svg version="1.1" xmlns:xlink="http://www.w3.org/1999/xlink" width="24px" height="24px" xmlns="http://www.w3.org/2000/svg">
  <defs>
    <pattern id="BGPattern" patternUnits="userSpaceOnUse" alignment="0 0" imageRepeat="None" />
    <mask fill="white" id="Clip6529">
      <path d="M 24 12  C 24 18.627416997969522  18.627416997969522 24  12 24  C 5.372583002030479 24  0 18.627416997969522  0 12  C 0 5.372583002030479  5.372583002030479 0  12 0  C 18.627416997969522 0  24 5.372583002030479  24 12  Z M 6 12  C 6 15.31370849898476  8.686291501015239 18  12 18  C 15.31370849898476 18  18 15.31370849898476  18 12  C 18 8.686291501015239  15.31370849898476 6  12 6  C 8.686291501015239 6  6 8.686291501015239  6 12  Z " fill-rule="evenodd" />
    </mask>
  </defs>
  <g>
    <path d="M 24 12  C 24 18.627416997969522  18.627416997969522 24  12 24  C 5.372583002030479 24  0 18.627416997969522  0 12  C 0 5.372583002030479  5.372583002030479 0  12 0  C 18.627416997969522 0  24 5.372583002030479  24 12  Z M 6 12  C 6 15.31370849898476  8.686291501015239 18  12 18  C 15.31370849898476 18  18 15.31370849898476  18 12  C 18 8.686291501015239  15.31370849898476 6  12 6  C 8.686291501015239 6  6 8.686291501015239  6 12  Z " fill-rule="nonzero" fill="rgba(0, 0, 0, 1)" stroke="none" class="fill" />
    <path d="M 24 12  C 24 18.627416997969522  18.627416997969522 24  12 24  C 5.372583002030479 24  0 18.627416997969522  0 12  C 0 5.372583002030479  5.372583002030479 0  12 0  C 18.627416997969522 0  24 5.372583002030479  24 12  Z " stroke-width="0" stroke-dasharray="0" stroke="rgba(255, 255, 255, 0)" fill="none" class="stroke" mask="url(#Clip6529)" />
    <path d="M 6 12  C 6 15.31370849898476  8.686291501015239 18  12 18  C 15.31370849898476 18  18 15.31370849898476  18 12  C 18 8.686291501015239  15.31370849898476 6  12 6  C 8.686291501015239 6  6 8.686291501015239  6 12  Z " stroke-width="0" stroke-dasharray="0" stroke="rgba(255, 255, 255, 0)" fill="none" class="stroke" mask="url(#Clip6529)" />
  </g>
</svg>