<?xml version="1.0" encoding="utf-8"?>
<svg version="1.1" xmlns:xlink="http://www.w3.org/1999/xlink" width="50px" height="35px" xmlns="http://www.w3.org/2000/svg">
  <defs>
    <pattern id="BGPattern" patternUnits="userSpaceOnUse" alignment="0 0" imageRepeat="None" />
    <mask fill="white" id="Clip857">
      <path d="M 25 7.981294326241141  C 27.45771276595744 5.474999999999994  30.23164893617022 4.28262411347518  33.735726950354604 4.20966312056737  L 35.07402482269504 26.28014184397165  L 34.100709219858146 26.255762411347547  C 30.888652482269492 26.18271276595746  27.749645390070928 27.034397163120587  24.999911347517724 28.73776595744684  C 22.2502659574468 27.034397163120587  19.11125886524823 26.255762411347547  15.899113475177302 26.255762411347547  C 11.859751773049652 26.255762411347547  8.623404255319144 27.204787234042584  4.949113475177313 28.713475177304986  L 7.72313829787234 5.815602836879435  C 10.253812056737587 4.769237588652487  13.173847517730508 4.20966312056737  15.899202127659578 4.20966312056737  C 19.54929078014186 4.20966312056737  22.44494680851065 5.377659574468083  25 7.981294326241141  Z M 46.14583333333334 3.090336879432641  L 49.91755319148936 34.04255319148939  C 47.65460992907802 34.04255319148939  45.70789007092199 33.580230496453936  43.66382978723405 32.655585106383  C 40.62216312056739 31.268617021276608  37.458776595744666 30.44122340425534  34.10079787234042 30.44122340425534  C 30.64539007092199 30.44122340425534  27.457712765957464 31.584929078014227  25 34.04255319148939  C 22.54228723404256 31.58484042553195  19.35460992907801 30.44122340425534  15.899202127659578 30.44122340425534  C 12.541223404255334 30.44122340425534  9.377836879432635 31.268617021276608  6.336170212765977 32.655585106383  C 4.365159574468095 33.53156028368795  2.3697695035461095 34.04255319148939  0.20416666666667993 34.04255319148939  L 0.0824468085106389 34.04255319148939  L 3.854166666666657 3.0903368794326127  C 7.333865248226942 1.1193262411347575  11.567907801418443 0  15.582890070921989 0  C 18.867907801418426 0  22.250354609929076 0.6812943262411295  25 2.5793439716312037  C 27.749645390070928 0.6812943262411295  31.132092198581574 0  34.41710992907801 0  C 38.43209219858156 0  42.66613475177306 1.1193262411347575  46.14583333333334 3.090336879432641  Z M 34.10079787234042 27.10753546099292  C 38.72411347517732 27.10753546099292  41.88749999999999 28.34858156028372  46.07287234042553 30.07615248226952  L 43.0554964539007 5.231648936170217  C 40.33014184397163 3.9906028368794466  37.09379432624115 3.3335992907801426  34.10079787234042 3.3335992907801426  C 30.694060283687946 3.3335992907801426  27.506382978723394 4.404255319148945  25 6.764627659574472  C 22.493617021276606 4.404255319148945  19.30602836879433 3.3335992907801426  15.899202127659578 3.3335992907801426  C 12.906205673758874 3.3335992907801426  9.669858156028369 3.9906028368794466  6.944503546099298 5.231648936170217  L 3.927127659574467 30.07615248226952  C 8.112500000000011 28.34858156028372  11.275886524822681 27.10753546099292  15.899202127659578 27.10753546099292  C 19.232890070921997 27.10753546099292  22.17730496453902 27.95913120567377  25 29.73554964539011  C 27.82269503546098 27.95913120567377  30.767021276595756 27.10753546099292  34.10079787234042 27.10753546099292  Z " fill-rule="evenodd" />
    </mask>
  </defs>
  <g>
    <path d="M 25 7.981294326241141  C 27.45771276595744 5.474999999999994  30.23164893617022 4.28262411347518  33.735726950354604 4.20966312056737  L 35.07402482269504 26.28014184397165  L 34.100709219858146 26.255762411347547  C 30.888652482269492 26.18271276595746  27.749645390070928 27.034397163120587  24.999911347517724 28.73776595744684  C 22.2502659574468 27.034397163120587  19.11125886524823 26.255762411347547  15.899113475177302 26.255762411347547  C 11.859751773049652 26.255762411347547  8.623404255319144 27.204787234042584  4.949113475177313 28.713475177304986  L 7.72313829787234 5.815602836879435  C 10.253812056737587 4.769237588652487  13.173847517730508 4.20966312056737  15.899202127659578 4.20966312056737  C 19.54929078014186 4.20966312056737  22.44494680851065 5.377659574468083  25 7.981294326241141  Z M 46.14583333333334 3.090336879432641  L 49.91755319148936 34.04255319148939  C 47.65460992907802 34.04255319148939  45.70789007092199 33.580230496453936  43.66382978723405 32.655585106383  C 40.62216312056739 31.268617021276608  37.458776595744666 30.44122340425534  34.10079787234042 30.44122340425534  C 30.64539007092199 30.44122340425534  27.457712765957464 31.584929078014227  25 34.04255319148939  C 22.54228723404256 31.58484042553195  19.35460992907801 30.44122340425534  15.899202127659578 30.44122340425534  C 12.541223404255334 30.44122340425534  9.377836879432635 31.268617021276608  6.336170212765977 32.655585106383  C 4.365159574468095 33.53156028368795  2.3697695035461095 34.04255319148939  0.20416666666667993 34.04255319148939  L 0.0824468085106389 34.04255319148939  L 3.854166666666657 3.0903368794326127  C 7.333865248226942 1.1193262411347575  11.567907801418443 0  15.582890070921989 0  C 18.867907801418426 0  22.250354609929076 0.6812943262411295  25 2.5793439716312037  C 27.749645390070928 0.6812943262411295  31.132092198581574 0  34.41710992907801 0  C 38.43209219858156 0  42.66613475177306 1.1193262411347575  46.14583333333334 3.090336879432641  Z M 34.10079787234042 27.10753546099292  C 38.72411347517732 27.10753546099292  41.88749999999999 28.34858156028372  46.07287234042553 30.07615248226952  L 43.0554964539007 5.231648936170217  C 40.33014184397163 3.9906028368794466  37.09379432624115 3.3335992907801426  34.10079787234042 3.3335992907801426  C 30.694060283687946 3.3335992907801426  27.506382978723394 4.404255319148945  25 6.764627659574472  C 22.493617021276606 4.404255319148945  19.30602836879433 3.3335992907801426  15.899202127659578 3.3335992907801426  C 12.906205673758874 3.3335992907801426  9.669858156028369 3.9906028368794466  6.944503546099298 5.231648936170217  L 3.927127659574467 30.07615248226952  C 8.112500000000011 28.34858156028372  11.275886524822681 27.10753546099292  15.899202127659578 27.10753546099292  C 19.232890070921997 27.10753546099292  22.17730496453902 27.95913120567377  25 29.73554964539011  C 27.82269503546098 27.95913120567377  30.767021276595756 27.10753546099292  34.10079787234042 27.10753546099292  Z " fill-rule="nonzero" fill="rgba(0, 0, 0, 1)" stroke="none" class="fill" />
    <path d="M 25 7.981294326241141  C 27.45771276595744 5.474999999999994  30.23164893617022 4.28262411347518  33.735726950354604 4.20966312056737  L 35.07402482269504 26.28014184397165  L 34.100709219858146 26.255762411347547  C 30.888652482269492 26.18271276595746  27.749645390070928 27.034397163120587  24.999911347517724 28.73776595744684  C 22.2502659574468 27.034397163120587  19.11125886524823 26.255762411347547  15.899113475177302 26.255762411347547  C 11.859751773049652 26.255762411347547  8.623404255319144 27.204787234042584  4.949113475177313 28.713475177304986  L 7.72313829787234 5.815602836879435  C 10.253812056737587 4.769237588652487  13.173847517730508 4.20966312056737  15.899202127659578 4.20966312056737  C 19.54929078014186 4.20966312056737  22.44494680851065 5.377659574468083  25 7.981294326241141  Z " stroke-width="0" stroke-dasharray="0" stroke="rgba(255, 255, 255, 0)" fill="none" class="stroke" mask="url(#Clip857)" />
    <path d="M 46.14583333333334 3.090336879432641  L 49.91755319148936 34.04255319148939  C 47.65460992907802 34.04255319148939  45.70789007092199 33.580230496453936  43.66382978723405 32.655585106383  C 40.62216312056739 31.268617021276608  37.458776595744666 30.44122340425534  34.10079787234042 30.44122340425534  C 30.64539007092199 30.44122340425534  27.457712765957464 31.584929078014227  25 34.04255319148939  C 22.54228723404256 31.58484042553195  19.35460992907801 30.44122340425534  15.899202127659578 30.44122340425534  C 12.541223404255334 30.44122340425534  9.377836879432635 31.268617021276608  6.336170212765977 32.655585106383  C 4.365159574468095 33.53156028368795  2.3697695035461095 34.04255319148939  0.20416666666667993 34.04255319148939  L 0.0824468085106389 34.04255319148939  L 3.854166666666657 3.0903368794326127  C 7.333865248226942 1.1193262411347575  11.567907801418443 0  15.582890070921989 0  C 18.867907801418426 0  22.250354609929076 0.6812943262411295  25 2.5793439716312037  C 27.749645390070928 0.6812943262411295  31.132092198581574 0  34.41710992907801 0  C 38.43209219858156 0  42.66613475177306 1.1193262411347575  46.14583333333334 3.090336879432641  Z " stroke-width="0" stroke-dasharray="0" stroke="rgba(255, 255, 255, 0)" fill="none" class="stroke" mask="url(#Clip857)" />
    <path d="M 34.10079787234042 27.10753546099292  C 38.72411347517732 27.10753546099292  41.88749999999999 28.34858156028372  46.07287234042553 30.07615248226952  L 43.0554964539007 5.231648936170217  C 40.33014184397163 3.9906028368794466  37.09379432624115 3.3335992907801426  34.10079787234042 3.3335992907801426  C 30.694060283687946 3.3335992907801426  27.506382978723394 4.404255319148945  25 6.764627659574472  C 22.493617021276606 4.404255319148945  19.30602836879433 3.3335992907801426  15.899202127659578 3.3335992907801426  C 12.906205673758874 3.3335992907801426  9.669858156028369 3.9906028368794466  6.944503546099298 5.231648936170217  L 3.927127659574467 30.07615248226952  C 8.112500000000011 28.34858156028372  11.275886524822681 27.10753546099292  15.899202127659578 27.10753546099292  C 19.232890070921997 27.10753546099292  22.17730496453902 27.95913120567377  25 29.73554964539011  C 27.82269503546098 27.95913120567377  30.767021276595756 27.10753546099292  34.10079787234042 27.10753546099292  Z " stroke-width="0" stroke-dasharray="0" stroke="rgba(255, 255, 255, 0)" fill="none" class="stroke" mask="url(#Clip857)" />
  </g>
</svg>