<?xml version="1.0" encoding="utf-8"?>
<svg version="1.1" xmlns:xlink="http://www.w3.org/1999/xlink" width="29px" height="30px" xmlns="http://www.w3.org/2000/svg">
  <defs>
    <pattern id="BGPattern" patternUnits="userSpaceOnUse" alignment="0 0" imageRepeat="None" />
    <mask fill="white" id="Clip4374">
      <path d="M 11.10200020404163 0.9999997999591863  C 11.101333469360503 0.9999997999591863  11.100666734667787 0.9999998666394595  11.1 1  C 9.18222006182991 0.9934736108636981  7.304671196439129 1.5497843857942994  5.7 2.6  L 12.1 9  C 12.567626991998912 9.398985937267401  12.8369597662184 9.982828945687023  12.8369597662184 10.59753601558544  C 12.8369597662184 11.115228979371961  12.64573606509306 11.614678604217156  12.299999999999999 12  C 11.914678604217155 12.345736065093059  11.415228979371959 12.5369597662184  10.89753601558544 12.5369597662184  C 10.282828945687022 12.5369597662184  9.6989859372674 12.267626991998913  9.299999999999999 11.8  L 2.7 5.3999999999999995  C 1.5588930679841253 7.079135032676522  0.9650896479819416 9.0701229703309  1 11.1  C 1.0219253290460495 16.668968921845885  5.531031078154114 21.178074670953947  11.1 21.200000000000003  C 11.97557028406621 21.20479034141586  12.848528341297389 21.104064411735337  13.7 20.9  L 20.4 27.599999999999994  C 21.34151853893038 28.541518538930376  22.618491713018948 29.07045814642448  23.949999999999996 29.07045814642448  C 26.722722471434015 29.07045814642448  28.97045814642448 26.822722471434012  28.97045814642448 24.049999999999994  C 28.97045814642448 22.71849171301895  28.441518538930378 21.441518538930378  27.5 20.5  L 20.8 13.8  C 21.004064411735342 12.948528341297388  21.10479034141586 12.075570284066215  21.1 11.2  C 21.101333436019285 11.133341601428338  21.102000204041627 11.066671534238083  21.102000204041627 10.999999799959184  C 21.102000204041627 5.477152301651251  16.624847702349562 0.9999997999591863  11.10200020404163 0.9999997999591863  Z M 16.7 5.2  C 18.235367013853224 6.780676727470076  19.095998196462503 8.896395051384543  19.100000000000005 11.1  C 19.09853291380469 11.810573094969591  18.997552063843987 12.517439044694505  18.8 13.2  L 18.5 14.299999999999999  L 19.3 15.1  L 26 21.8  C 26.57670283598477 22.34597477241501  26.902365051688967 23.10585327572482  26.9 23.900000000000002  C 26.92278577417356 24.698170633909758  26.593699958468143 25.466037537222395  26.000000000000004 26.000000000000004  C 25.45264612812098 26.574721565472977  24.693663114224595 26.900000000000006  23.900000000000006 26.900000000000006  C 23.10633688577541 26.900000000000006  22.34735387187903 26.574721565472984  21.8 26  L 15.100000000000001 19.3  L 14.3 18.5  L 13.200000000000001 18.8  C 12.517439044694498 18.99755206384399  11.8105730949696 19.09853291380469  11.100000000000001 19.1  C 8.975072897628374 19.094098079627255  6.933953561055632 18.27048852276457  5.400000000000001 16.8  C 3.831300273673964 15.323936862989951  2.9595749998405254 13.253589337635532  3 11.1  C 3.0013791134500662 10.356565110927747  3.102275199860535 9.61666047725097  3.3 8.899999999999999  L 7.699999999999999 13.299999999999999  C 8.484008350533717 14.153156551108099  9.589665960604771 14.638719666195144  10.74834848589169 14.638719666195144  C 11.809723545789168 14.638719666195144  12.830559397569745 14.231080144104695  13.6 13.499999999999998  C 14.331080144104698 12.730559397569744  14.73871966619515 11.709723545789167  14.73871966619515 10.648348485891686  C 14.73871966619515 9.489665960604764  14.253156551108104 8.384008350533716  13.4 7.599999999999997  L 9 3.2  C 9.646744376939743 2.995456412726281  10.321705912331819 2.89421218241747  11 2.9000000000000004  C 13.124927102371627 2.9059019203727505  15.166046438944365 3.7295114772354347  16.7 5.2  Z " fill-rule="evenodd" />
    </mask>
  </defs>
  <g transform="matrix(1 0 0 1 -1 -1 )">
    <path d="M 11.10200020404163 0.9999997999591863  C 11.101333469360503 0.9999997999591863  11.100666734667787 0.9999998666394595  11.1 1  C 9.18222006182991 0.9934736108636981  7.304671196439129 1.5497843857942994  5.7 2.6  L 12.1 9  C 12.567626991998912 9.398985937267401  12.8369597662184 9.982828945687023  12.8369597662184 10.59753601558544  C 12.8369597662184 11.115228979371961  12.64573606509306 11.614678604217156  12.299999999999999 12  C 11.914678604217155 12.345736065093059  11.415228979371959 12.5369597662184  10.89753601558544 12.5369597662184  C 10.282828945687022 12.5369597662184  9.6989859372674 12.267626991998913  9.299999999999999 11.8  L 2.7 5.3999999999999995  C 1.5588930679841253 7.079135032676522  0.9650896479819416 9.0701229703309  1 11.1  C 1.0219253290460495 16.668968921845885  5.531031078154114 21.178074670953947  11.1 21.200000000000003  C 11.97557028406621 21.20479034141586  12.848528341297389 21.104064411735337  13.7 20.9  L 20.4 27.599999999999994  C 21.34151853893038 28.541518538930376  22.618491713018948 29.07045814642448  23.949999999999996 29.07045814642448  C 26.722722471434015 29.07045814642448  28.97045814642448 26.822722471434012  28.97045814642448 24.049999999999994  C 28.97045814642448 22.71849171301895  28.441518538930378 21.441518538930378  27.5 20.5  L 20.8 13.8  C 21.004064411735342 12.948528341297388  21.10479034141586 12.075570284066215  21.1 11.2  C 21.101333436019285 11.133341601428338  21.102000204041627 11.066671534238083  21.102000204041627 10.999999799959184  C 21.102000204041627 5.477152301651251  16.624847702349562 0.9999997999591863  11.10200020404163 0.9999997999591863  Z M 16.7 5.2  C 18.235367013853224 6.780676727470076  19.095998196462503 8.896395051384543  19.100000000000005 11.1  C 19.09853291380469 11.810573094969591  18.997552063843987 12.517439044694505  18.8 13.2  L 18.5 14.299999999999999  L 19.3 15.1  L 26 21.8  C 26.57670283598477 22.34597477241501  26.902365051688967 23.10585327572482  26.9 23.900000000000002  C 26.92278577417356 24.698170633909758  26.593699958468143 25.466037537222395  26.000000000000004 26.000000000000004  C 25.45264612812098 26.574721565472977  24.693663114224595 26.900000000000006  23.900000000000006 26.900000000000006  C 23.10633688577541 26.900000000000006  22.34735387187903 26.574721565472984  21.8 26  L 15.100000000000001 19.3  L 14.3 18.5  L 13.200000000000001 18.8  C 12.517439044694498 18.99755206384399  11.8105730949696 19.09853291380469  11.100000000000001 19.1  C 8.975072897628374 19.094098079627255  6.933953561055632 18.27048852276457  5.400000000000001 16.8  C 3.831300273673964 15.323936862989951  2.9595749998405254 13.253589337635532  3 11.1  C 3.0013791134500662 10.356565110927747  3.102275199860535 9.61666047725097  3.3 8.899999999999999  L 7.699999999999999 13.299999999999999  C 8.484008350533717 14.153156551108099  9.589665960604771 14.638719666195144  10.74834848589169 14.638719666195144  C 11.809723545789168 14.638719666195144  12.830559397569745 14.231080144104695  13.6 13.499999999999998  C 14.331080144104698 12.730559397569744  14.73871966619515 11.709723545789167  14.73871966619515 10.648348485891686  C 14.73871966619515 9.489665960604764  14.253156551108104 8.384008350533716  13.4 7.599999999999997  L 9 3.2  C 9.646744376939743 2.995456412726281  10.321705912331819 2.89421218241747  11 2.9000000000000004  C 13.124927102371627 2.9059019203727505  15.166046438944365 3.7295114772354347  16.7 5.2  Z " fill-rule="nonzero" fill="rgba(0, 0, 0, 1)" stroke="none" transform="matrix(1 0 0 1 1 1 )" class="fill" />
    <path d="M 11.10200020404163 0.9999997999591863  C 11.101333469360503 0.9999997999591863  11.100666734667787 0.9999998666394595  11.1 1  C 9.18222006182991 0.9934736108636981  7.304671196439129 1.5497843857942994  5.7 2.6  L 12.1 9  C 12.567626991998912 9.398985937267401  12.8369597662184 9.982828945687023  12.8369597662184 10.59753601558544  C 12.8369597662184 11.115228979371961  12.64573606509306 11.614678604217156  12.299999999999999 12  C 11.914678604217155 12.345736065093059  11.415228979371959 12.5369597662184  10.89753601558544 12.5369597662184  C 10.282828945687022 12.5369597662184  9.6989859372674 12.267626991998913  9.299999999999999 11.8  L 2.7 5.3999999999999995  C 1.5588930679841253 7.079135032676522  0.9650896479819416 9.0701229703309  1 11.1  C 1.0219253290460495 16.668968921845885  5.531031078154114 21.178074670953947  11.1 21.200000000000003  C 11.97557028406621 21.20479034141586  12.848528341297389 21.104064411735337  13.7 20.9  L 20.4 27.599999999999994  C 21.34151853893038 28.541518538930376  22.618491713018948 29.07045814642448  23.949999999999996 29.07045814642448  C 26.722722471434015 29.07045814642448  28.97045814642448 26.822722471434012  28.97045814642448 24.049999999999994  C 28.97045814642448 22.71849171301895  28.441518538930378 21.441518538930378  27.5 20.5  L 20.8 13.8  C 21.004064411735342 12.948528341297388  21.10479034141586 12.075570284066215  21.1 11.2  C 21.101333436019285 11.133341601428338  21.102000204041627 11.066671534238083  21.102000204041627 10.999999799959184  C 21.102000204041627 5.477152301651251  16.624847702349562 0.9999997999591863  11.10200020404163 0.9999997999591863  Z " stroke-width="0" stroke-dasharray="0" stroke="rgba(255, 255, 255, 0)" fill="none" transform="matrix(1 0 0 1 1 1 )" class="stroke" mask="url(#Clip4374)" />
    <path d="M 16.7 5.2  C 18.235367013853224 6.780676727470076  19.095998196462503 8.896395051384543  19.100000000000005 11.1  C 19.09853291380469 11.810573094969591  18.997552063843987 12.517439044694505  18.8 13.2  L 18.5 14.299999999999999  L 19.3 15.1  L 26 21.8  C 26.57670283598477 22.34597477241501  26.902365051688967 23.10585327572482  26.9 23.900000000000002  C 26.92278577417356 24.698170633909758  26.593699958468143 25.466037537222395  26.000000000000004 26.000000000000004  C 25.45264612812098 26.574721565472977  24.693663114224595 26.900000000000006  23.900000000000006 26.900000000000006  C 23.10633688577541 26.900000000000006  22.34735387187903 26.574721565472984  21.8 26  L 15.100000000000001 19.3  L 14.3 18.5  L 13.200000000000001 18.8  C 12.517439044694498 18.99755206384399  11.8105730949696 19.09853291380469  11.100000000000001 19.1  C 8.975072897628374 19.094098079627255  6.933953561055632 18.27048852276457  5.400000000000001 16.8  C 3.831300273673964 15.323936862989951  2.9595749998405254 13.253589337635532  3 11.1  C 3.0013791134500662 10.356565110927747  3.102275199860535 9.61666047725097  3.3 8.899999999999999  L 7.699999999999999 13.299999999999999  C 8.484008350533717 14.153156551108099  9.589665960604771 14.638719666195144  10.74834848589169 14.638719666195144  C 11.809723545789168 14.638719666195144  12.830559397569745 14.231080144104695  13.6 13.499999999999998  C 14.331080144104698 12.730559397569744  14.73871966619515 11.709723545789167  14.73871966619515 10.648348485891686  C 14.73871966619515 9.489665960604764  14.253156551108104 8.384008350533716  13.4 7.599999999999997  L 9 3.2  C 9.646744376939743 2.995456412726281  10.321705912331819 2.89421218241747  11 2.9000000000000004  C 13.124927102371627 2.9059019203727505  15.166046438944365 3.7295114772354347  16.7 5.2  Z " stroke-width="0" stroke-dasharray="0" stroke="rgba(255, 255, 255, 0)" fill="none" transform="matrix(1 0 0 1 1 1 )" class="stroke" mask="url(#Clip4374)" />
  </g>
</svg>