<?xml version="1.0" encoding="utf-8"?>
<svg version="1.1" xmlns:xlink="http://www.w3.org/1999/xlink" width="18px" height="12px" xmlns="http://www.w3.org/2000/svg">
  <defs>
    <pattern id="BGPattern" patternUnits="userSpaceOnUse" alignment="0 0" imageRepeat="None" />
    <mask fill="white" id="Clip5050">
      <path d="M 7.8705 1.2914999406631185  L 7.8705 1.2899999407320348  L 0.6764999999999994 9.511499563002126  C -0.17250000000000032 10.48199951841332  0.5174999999999996 11.999999448670085  1.8059999999999992 12  L 16.194 12  C 16.194428691649513 11.999999816223344  16.19485738343379 12  16.19528607524087 12  C 17.02371319998706 12  17.69528607524087 11.328427155601043  17.69528607524087 10.50000006891624  C 17.69528607524087 10.136325013086237  17.563162006473007 9.785035071052098  17.3235 9.511499563002126  L 10.1295 1.2914999406631185  C 9.844655777191038 0.9655409704246721  9.432880458452003 0.7785307388272706  9 0.7785307388272706  C 8.567119541547996 0.7785307388272706  8.155344222808964 0.9655409704246714  7.8705 1.2914999406631185  Z " fill-rule="evenodd" />
    </mask>
  </defs>
  <g>
    <path d="M 7.8705 1.2914999406631185  L 7.8705 1.2899999407320348  L 0.6764999999999994 9.511499563002126  C -0.17250000000000032 10.48199951841332  0.5174999999999996 11.999999448670085  1.8059999999999992 12  L 16.194 12  C 16.194428691649513 11.999999816223344  16.19485738343379 12  16.19528607524087 12  C 17.02371319998706 12  17.69528607524087 11.328427155601043  17.69528607524087 10.50000006891624  C 17.69528607524087 10.136325013086237  17.563162006473007 9.785035071052098  17.3235 9.511499563002126  L 10.1295 1.2914999406631185  C 9.844655777191038 0.9655409704246721  9.432880458452003 0.7785307388272706  9 0.7785307388272706  C 8.567119541547996 0.7785307388272706  8.155344222808964 0.9655409704246714  7.8705 1.2914999406631185  Z " fill-rule="nonzero" fill="rgba(0, 0, 0, 1)" stroke="none" class="fill" />
    <path d="M 7.8705 1.2914999406631185  L 7.8705 1.2899999407320348  L 0.6764999999999994 9.511499563002126  C -0.17250000000000032 10.48199951841332  0.5174999999999996 11.999999448670085  1.8059999999999992 12  L 16.194 12  C 16.194428691649513 11.999999816223344  16.19485738343379 12  16.19528607524087 12  C 17.02371319998706 12  17.69528607524087 11.328427155601043  17.69528607524087 10.50000006891624  C 17.69528607524087 10.136325013086237  17.563162006473007 9.785035071052098  17.3235 9.511499563002126  L 10.1295 1.2914999406631185  C 9.844655777191038 0.9655409704246721  9.432880458452003 0.7785307388272706  9 0.7785307388272706  C 8.567119541547996 0.7785307388272706  8.155344222808964 0.9655409704246714  7.8705 1.2914999406631185  Z " stroke-width="0" stroke-dasharray="0" stroke="rgba(255, 255, 255, 0)" fill="none" class="stroke" mask="url(#Clip5050)" />
  </g>
</svg>