<?xml version="1.0" encoding="utf-8"?>
<svg version="1.1" xmlns:xlink="http://www.w3.org/1999/xlink" width="49px" height="21px" xmlns="http://www.w3.org/2000/svg">
  <defs>
    <pattern id="BGPattern" patternUnits="userSpaceOnUse" alignment="0 0" imageRepeat="None" />
    <mask fill="white" id="Clip6749">
      <path d="M 42.59 11.908000000000001  L 44.7132 15.1754  L 48 15.1754  L 44.3442 9.715399999999999  L 47.647800000000004 4.843799999999998  L 44.3532 4.843799999999998  L 42.5932 7.553399999999996  L 40.826800000000006 4.8437999999999946  L 37.532 4.8437999999999946  L 40.8356 9.715199999999996  L 37.18 15.175399999999996  L 40.4668 15.175399999999996  L 42.589999999999996 11.907799999999995  Z M 28.808799999999998 7.503999999999994  C 29.033199999999997 7.696999999999996  29.1468 8.028999999999993  29.1468 8.490399999999994  C 29.1468 8.898399999999995  29.025999999999996 9.188799999999993  28.7778 9.377799999999993  C 28.524 9.571199999999994  28.114799999999995 9.669199999999993  27.561799999999998 9.669199999999993  L 27.194799999999997 9.669199999999993  L 27.194799999999997 7.206799999999994  L 27.607799999999997 7.206799999999994  C 28.175399999999996 7.206799999999994  28.5794 7.3067999999999955  28.808799999999998 7.503999999999994  Z M 32.709399999999995 15.17539999999999  L 29.918799999999997 11.101999999999993  C 30.598 10.927999999999994  31.128999999999998 10.600399999999993  31.499399999999994 10.126999999999992  C 31.897399999999998 9.617999999999991  32.099399999999996 8.954999999999991  32.099399999999996 8.15659999999999  C 32.099399999999996 7.01659999999999  31.749799999999993 6.16899999999999  31.060799999999993 5.636399999999991  C 30.380799999999994 5.110399999999991  29.194399999999998 4.843799999999991  27.535599999999995 4.843799999999991  L 24 4.843799999999991  L 24 15.17539999999999  L 27.194799999999994 15.17539999999999  L 27.194799999999994 11.54239999999999  L 29.338199999999993 15.17539999999999  L 32.709399999999995 15.17539999999999  Z M 14.8692 4.843800000000002  L 14.8692 7.383800000000001  L 17.5776 7.383800000000001  L 17.5776 15.1754  L 20.4318 15.1754  L 20.4318 7.383600000000001  L 23.127399999999998 7.383600000000001  L 23.127399999999998 4.843600000000002  L 14.8692 4.843600000000002  Z M 9.5596 13.543199999999999  L 7.957799999999999 11.370400000000004  L 7.867799999999999 11.485800000000005  C 7.559799999999999 11.880800000000004  7.195399999999999 12.178400000000003  6.813599999999999 12.347200000000004  C 6.400399999999999 12.529600000000006  5.975999999999999 12.622200000000003  5.552399999999999 12.622200000000003  C 4.791599999999999 12.622200000000003  4.161199999999999 12.381800000000002  3.6789999999999985 11.907800000000002  C 3.1969999999999983 11.4342  2.9525999999999986 10.817400000000003  2.9525999999999986 10.075000000000003  C 2.9525999999999986 9.275000000000002  3.1941999999999986 8.621400000000001  3.6705999999999985 8.132400000000004  C 4.1465999999999985 7.6444000000000045  4.7795999999999985 7.396600000000003  5.552399999999999 7.396600000000003  C 5.988399999999999 7.396600000000003  6.414999999999999 7.488200000000003  6.8199999999999985 7.6688000000000045  C 7.269999999999999 7.869200000000003  7.591999999999999 8.134200000000003  7.863999999999999 8.528200000000005  L 7.957799999999999 8.664000000000005  L 9.515799999999999 6.289200000000005  L 9.4454 6.225400000000004  C 8.6306 5.487200000000005  7.7478 5.003400000000003  6.821599999999998 4.787400000000005  C 6.365399999999999 4.681400000000004  5.8435999999999995 4.627400000000005  5.2707999999999995 4.627400000000005  C 3.7667999999999995 4.627400000000005  2.4987999999999997 5.145600000000005  1.5013999999999994 6.167000000000005  C 0.5052 7.187799999999999  0 8.485199999999999  0 10.0228  C 0 11.560400000000001  0.504 12.853200000000001  1.4986 13.8656  C 2.4936 14.878  3.7626 15.3916  5.2706 15.3916  C 5.8844 15.3916  6.3892 15.337800000000001  6.814399999999999 15.227599999999999  C 7.2842 15.1054  8.4858 14.703799999999998  9.4972 13.610799999999998  L 9.5596 13.543199999999999  Z M 36.971000000000004 17.682000000000002  C 36.971000000000004 16.708800000000004  36.179 15.917000000000002  35.2058 15.917000000000002  C 34.232600000000005 15.917000000000002  33.4408 16.709000000000003  33.4408 17.682000000000002  C 33.4408 18.6552  34.232600000000005 19.447200000000002  35.2058 19.447200000000002  C 36.179 19.447200000000002  36.971000000000004 18.6552  36.971000000000004 17.682000000000002  Z M 11 4.844000000000001  L 11 15.175600000000003  L 14 15.175600000000003  L 14 4.844000000000001  L 11 4.844000000000001  Z M 10.479399999999998 2.3186000000000035  C 10.479399999999998 3.291800000000002  11.271199999999999 4.083600000000004  12.244399999999999 4.083600000000004  C 13.217799999999997 4.083600000000004  14.009599999999999 3.2916000000000025  14.009599999999999 2.3186000000000035  C 14.009599999999999 1.3450000000000042  13.2176 0.5532000000000039  12.244399999999999 0.5532000000000039  C 11.271199999999999 0.5532000000000039  10.479399999999998 1.3452000000000037  10.479399999999998 2.3186000000000035  Z " fill-rule="evenodd" />
    </mask>
  </defs>
  <g>
    <path d="M 42.59 11.908000000000001  L 44.7132 15.1754  L 48 15.1754  L 44.3442 9.715399999999999  L 47.647800000000004 4.843799999999998  L 44.3532 4.843799999999998  L 42.5932 7.553399999999996  L 40.826800000000006 4.8437999999999946  L 37.532 4.8437999999999946  L 40.8356 9.715199999999996  L 37.18 15.175399999999996  L 40.4668 15.175399999999996  L 42.589999999999996 11.907799999999995  Z M 28.808799999999998 7.503999999999994  C 29.033199999999997 7.696999999999996  29.1468 8.028999999999993  29.1468 8.490399999999994  C 29.1468 8.898399999999995  29.025999999999996 9.188799999999993  28.7778 9.377799999999993  C 28.524 9.571199999999994  28.114799999999995 9.669199999999993  27.561799999999998 9.669199999999993  L 27.194799999999997 9.669199999999993  L 27.194799999999997 7.206799999999994  L 27.607799999999997 7.206799999999994  C 28.175399999999996 7.206799999999994  28.5794 7.3067999999999955  28.808799999999998 7.503999999999994  Z M 32.709399999999995 15.17539999999999  L 29.918799999999997 11.101999999999993  C 30.598 10.927999999999994  31.128999999999998 10.600399999999993  31.499399999999994 10.126999999999992  C 31.897399999999998 9.617999999999991  32.099399999999996 8.954999999999991  32.099399999999996 8.15659999999999  C 32.099399999999996 7.01659999999999  31.749799999999993 6.16899999999999  31.060799999999993 5.636399999999991  C 30.380799999999994 5.110399999999991  29.194399999999998 4.843799999999991  27.535599999999995 4.843799999999991  L 24 4.843799999999991  L 24 15.17539999999999  L 27.194799999999994 15.17539999999999  L 27.194799999999994 11.54239999999999  L 29.338199999999993 15.17539999999999  L 32.709399999999995 15.17539999999999  Z M 14.8692 4.843800000000002  L 14.8692 7.383800000000001  L 17.5776 7.383800000000001  L 17.5776 15.1754  L 20.4318 15.1754  L 20.4318 7.383600000000001  L 23.127399999999998 7.383600000000001  L 23.127399999999998 4.843600000000002  L 14.8692 4.843600000000002  Z M 9.5596 13.543199999999999  L 7.957799999999999 11.370400000000004  L 7.867799999999999 11.485800000000005  C 7.559799999999999 11.880800000000004  7.195399999999999 12.178400000000003  6.813599999999999 12.347200000000004  C 6.400399999999999 12.529600000000006  5.975999999999999 12.622200000000003  5.552399999999999 12.622200000000003  C 4.791599999999999 12.622200000000003  4.161199999999999 12.381800000000002  3.6789999999999985 11.907800000000002  C 3.1969999999999983 11.4342  2.9525999999999986 10.817400000000003  2.9525999999999986 10.075000000000003  C 2.9525999999999986 9.275000000000002  3.1941999999999986 8.621400000000001  3.6705999999999985 8.132400000000004  C 4.1465999999999985 7.6444000000000045  4.7795999999999985 7.396600000000003  5.552399999999999 7.396600000000003  C 5.988399999999999 7.396600000000003  6.414999999999999 7.488200000000003  6.8199999999999985 7.6688000000000045  C 7.269999999999999 7.869200000000003  7.591999999999999 8.134200000000003  7.863999999999999 8.528200000000005  L 7.957799999999999 8.664000000000005  L 9.515799999999999 6.289200000000005  L 9.4454 6.225400000000004  C 8.6306 5.487200000000005  7.7478 5.003400000000003  6.821599999999998 4.787400000000005  C 6.365399999999999 4.681400000000004  5.8435999999999995 4.627400000000005  5.2707999999999995 4.627400000000005  C 3.7667999999999995 4.627400000000005  2.4987999999999997 5.145600000000005  1.5013999999999994 6.167000000000005  C 0.5052 7.187799999999999  0 8.485199999999999  0 10.0228  C 0 11.560400000000001  0.504 12.853200000000001  1.4986 13.8656  C 2.4936 14.878  3.7626 15.3916  5.2706 15.3916  C 5.8844 15.3916  6.3892 15.337800000000001  6.814399999999999 15.227599999999999  C 7.2842 15.1054  8.4858 14.703799999999998  9.4972 13.610799999999998  L 9.5596 13.543199999999999  Z M 36 4.844000000000001  L 36.6178 4.843800000000002  L 33 4.843800000000002  L 33 15.175400000000003  L 36 15.175400000000003  L 36 4.844000000000001  Z M 36.971000000000004 17.682000000000002  C 36.971000000000004 16.708800000000004  36.179 15.917000000000002  35.2058 15.917000000000002  C 34.232600000000005 15.917000000000002  33.4408 16.709000000000003  33.4408 17.682000000000002  C 33.4408 18.6552  34.232600000000005 19.447200000000002  35.2058 19.447200000000002  C 36.179 19.447200000000002  36.971000000000004 18.6552  36.971000000000004 17.682000000000002  Z M 11 4.844000000000001  L 11 15.175600000000003  L 14 15.175600000000003  L 14 4.844000000000001  L 11 4.844000000000001  Z M 10.479399999999998 2.3186000000000035  C 10.479399999999998 3.291800000000002  11.271199999999999 4.083600000000004  12.244399999999999 4.083600000000004  C 13.217799999999997 4.083600000000004  14.009599999999999 3.2916000000000025  14.009599999999999 2.3186000000000035  C 14.009599999999999 1.3450000000000042  13.2176 0.5532000000000039  12.244399999999999 0.5532000000000039  C 11.271199999999999 0.5532000000000039  10.479399999999998 1.3452000000000037  10.479399999999998 2.3186000000000035  Z " fill-rule="nonzero" fill="rgba(0, 0, 0, 1)" stroke="none" class="fill" />
    <path d="M 42.59 11.908000000000001  L 44.7132 15.1754  L 48 15.1754  L 44.3442 9.715399999999999  L 47.647800000000004 4.843799999999998  L 44.3532 4.843799999999998  L 42.5932 7.553399999999996  L 40.826800000000006 4.8437999999999946  L 37.532 4.8437999999999946  L 40.8356 9.715199999999996  L 37.18 15.175399999999996  L 40.4668 15.175399999999996  L 42.589999999999996 11.907799999999995  Z " stroke-width="0" stroke-dasharray="0" stroke="rgba(255, 255, 255, 0)" fill="none" class="stroke" mask="url(#Clip6749)" />
    <path d="M 28.808799999999998 7.503999999999994  C 29.033199999999997 7.696999999999996  29.1468 8.028999999999993  29.1468 8.490399999999994  C 29.1468 8.898399999999995  29.025999999999996 9.188799999999993  28.7778 9.377799999999993  C 28.524 9.571199999999994  28.114799999999995 9.669199999999993  27.561799999999998 9.669199999999993  L 27.194799999999997 9.669199999999993  L 27.194799999999997 7.206799999999994  L 27.607799999999997 7.206799999999994  C 28.175399999999996 7.206799999999994  28.5794 7.3067999999999955  28.808799999999998 7.503999999999994  Z " stroke-width="0" stroke-dasharray="0" stroke="rgba(255, 255, 255, 0)" fill="none" class="stroke" mask="url(#Clip6749)" />
    <path d="M 32.709399999999995 15.17539999999999  L 29.918799999999997 11.101999999999993  C 30.598 10.927999999999994  31.128999999999998 10.600399999999993  31.499399999999994 10.126999999999992  C 31.897399999999998 9.617999999999991  32.099399999999996 8.954999999999991  32.099399999999996 8.15659999999999  C 32.099399999999996 7.01659999999999  31.749799999999993 6.16899999999999  31.060799999999993 5.636399999999991  C 30.380799999999994 5.110399999999991  29.194399999999998 4.843799999999991  27.535599999999995 4.843799999999991  L 24 4.843799999999991  L 24 15.17539999999999  L 27.194799999999994 15.17539999999999  L 27.194799999999994 11.54239999999999  L 29.338199999999993 15.17539999999999  L 32.709399999999995 15.17539999999999  Z " stroke-width="0" stroke-dasharray="0" stroke="rgba(255, 255, 255, 0)" fill="none" class="stroke" mask="url(#Clip6749)" />
    <path d="M 14.8692 4.843800000000002  L 14.8692 7.383800000000001  L 17.5776 7.383800000000001  L 17.5776 15.1754  L 20.4318 15.1754  L 20.4318 7.383600000000001  L 23.127399999999998 7.383600000000001  L 23.127399999999998 4.843600000000002  L 14.8692 4.843600000000002  Z " stroke-width="0" stroke-dasharray="0" stroke="rgba(255, 255, 255, 0)" fill="none" class="stroke" mask="url(#Clip6749)" />
    <path d="M 9.5596 13.543199999999999  L 7.957799999999999 11.370400000000004  L 7.867799999999999 11.485800000000005  C 7.559799999999999 11.880800000000004  7.195399999999999 12.178400000000003  6.813599999999999 12.347200000000004  C 6.400399999999999 12.529600000000006  5.975999999999999 12.622200000000003  5.552399999999999 12.622200000000003  C 4.791599999999999 12.622200000000003  4.161199999999999 12.381800000000002  3.6789999999999985 11.907800000000002  C 3.1969999999999983 11.4342  2.9525999999999986 10.817400000000003  2.9525999999999986 10.075000000000003  C 2.9525999999999986 9.275000000000002  3.1941999999999986 8.621400000000001  3.6705999999999985 8.132400000000004  C 4.1465999999999985 7.6444000000000045  4.7795999999999985 7.396600000000003  5.552399999999999 7.396600000000003  C 5.988399999999999 7.396600000000003  6.414999999999999 7.488200000000003  6.8199999999999985 7.6688000000000045  C 7.269999999999999 7.869200000000003  7.591999999999999 8.134200000000003  7.863999999999999 8.528200000000005  L 7.957799999999999 8.664000000000005  L 9.515799999999999 6.289200000000005  L 9.4454 6.225400000000004  C 8.6306 5.487200000000005  7.7478 5.003400000000003  6.821599999999998 4.787400000000005  C 6.365399999999999 4.681400000000004  5.8435999999999995 4.627400000000005  5.2707999999999995 4.627400000000005  C 3.7667999999999995 4.627400000000005  2.4987999999999997 5.145600000000005  1.5013999999999994 6.167000000000005  C 0.5052 7.187799999999999  0 8.485199999999999  0 10.0228  C 0 11.560400000000001  0.504 12.853200000000001  1.4986 13.8656  C 2.4936 14.878  3.7626 15.3916  5.2706 15.3916  C 5.8844 15.3916  6.3892 15.337800000000001  6.814399999999999 15.227599999999999  C 7.2842 15.1054  8.4858 14.703799999999998  9.4972 13.610799999999998  L 9.5596 13.543199999999999  Z " stroke-width="0" stroke-dasharray="0" stroke="rgba(255, 255, 255, 0)" fill="none" class="stroke" mask="url(#Clip6749)" />
    <path d="M 36.971000000000004 17.682000000000002  C 36.971000000000004 16.708800000000004  36.179 15.917000000000002  35.2058 15.917000000000002  C 34.232600000000005 15.917000000000002  33.4408 16.709000000000003  33.4408 17.682000000000002  C 33.4408 18.6552  34.232600000000005 19.447200000000002  35.2058 19.447200000000002  C 36.179 19.447200000000002  36.971000000000004 18.6552  36.971000000000004 17.682000000000002  Z " stroke-width="0" stroke-dasharray="0" stroke="rgba(255, 255, 255, 0)" fill="none" class="stroke" mask="url(#Clip6749)" />
    <path d="M 11 4.844000000000001  L 11 15.175600000000003  L 14 15.175600000000003  L 14 4.844000000000001  L 11 4.844000000000001  Z " stroke-width="0" stroke-dasharray="0" stroke="rgba(255, 255, 255, 0)" fill="none" class="stroke" mask="url(#Clip6749)" />
    <path d="M 10.479399999999998 2.3186000000000035  C 10.479399999999998 3.291800000000002  11.271199999999999 4.083600000000004  12.244399999999999 4.083600000000004  C 13.217799999999997 4.083600000000004  14.009599999999999 3.2916000000000025  14.009599999999999 2.3186000000000035  C 14.009599999999999 1.3450000000000042  13.2176 0.5532000000000039  12.244399999999999 0.5532000000000039  C 11.271199999999999 0.5532000000000039  10.479399999999998 1.3452000000000037  10.479399999999998 2.3186000000000035  Z " stroke-width="0" stroke-dasharray="0" stroke="rgba(255, 255, 255, 0)" fill="none" class="stroke" mask="url(#Clip6749)" />
    <path d="M 36.6178 4.843800000000002  L 33 4.843800000000002  L 33 15.175400000000003  L 36 15.175400000000003  L 36 4.844000000000001  " stroke-width="0" stroke-dasharray="0" stroke="rgba(255, 255, 255, 0)" fill="none" class="stroke" />
  </g>
</svg>