<?xml version="1.0" encoding="utf-8"?>
<svg version="1.1" xmlns:xlink="http://www.w3.org/1999/xlink" width="32px" height="50px" xmlns="http://www.w3.org/2000/svg">
  <defs>
    <pattern id="BGPattern" patternUnits="userSpaceOnUse" alignment="0 0" imageRepeat="None" />
    <mask fill="white" id="Clip1799">
      <path d="M 30.671442495126655 29.043372319688103  C 31.78957115009746 30.132943469785573  30.964522417154 32.07855750487329  29.453118908382066 32  L 19.113547758284597 32  L 24.55516569200779 45.333235867446376  C 24.93421052631578 46.25214424951267  24.50107212475632 47.28245614035086  23.63469785575046 47.672319688109155  L 18.842787524366486 49.76072124756337  C 17.949512670565298 50.15058479532166  16.947758284600354 49.70506822612083  16.568713450292364 48.81393762183234  L 11.397855750487338 36.22758284600391  L 2.9510721247563367 44.9154970760234  C 1.8254385964912387 46.073099415204695  0 45.18070175438595  0 43.66247563352826  L 0 1.783528265107208  C 0 0.1850877192982523  1.9416179337231938 -0.5941520467836199  2.9509746588693986 0.5305068226120966  L 30.671442495126655 29.043372319688103  Z " fill-rule="evenodd" />
    </mask>
  </defs>
  <g>
    <path d="M 30.671442495126655 29.043372319688103  C 31.78957115009746 30.132943469785573  30.964522417154 32.07855750487329  29.453118908382066 32  L 19.113547758284597 32  L 24.55516569200779 45.333235867446376  C 24.93421052631578 46.25214424951267  24.50107212475632 47.28245614035086  23.63469785575046 47.672319688109155  L 18.842787524366486 49.76072124756337  C 17.949512670565298 50.15058479532166  16.947758284600354 49.70506822612083  16.568713450292364 48.81393762183234  L 11.397855750487338 36.22758284600391  L 2.9510721247563367 44.9154970760234  C 1.8254385964912387 46.073099415204695  0 45.18070175438595  0 43.66247563352826  L 0 1.783528265107208  C 0 0.1850877192982523  1.9416179337231938 -0.5941520467836199  2.9509746588693986 0.5305068226120966  L 30.671442495126655 29.043372319688103  Z " fill-rule="nonzero" fill="rgba(0, 0, 0, 1)" stroke="none" class="fill" />
    <path d="M 30.671442495126655 29.043372319688103  C 31.78957115009746 30.132943469785573  30.964522417154 32.07855750487329  29.453118908382066 32  L 19.113547758284597 32  L 24.55516569200779 45.333235867446376  C 24.93421052631578 46.25214424951267  24.50107212475632 47.28245614035086  23.63469785575046 47.672319688109155  L 18.842787524366486 49.76072124756337  C 17.949512670565298 50.15058479532166  16.947758284600354 49.70506822612083  16.568713450292364 48.81393762183234  L 11.397855750487338 36.22758284600391  L 2.9510721247563367 44.9154970760234  C 1.8254385964912387 46.073099415204695  0 45.18070175438595  0 43.66247563352826  L 0 1.783528265107208  C 0 0.1850877192982523  1.9416179337231938 -0.5941520467836199  2.9509746588693986 0.5305068226120966  L 30.671442495126655 29.043372319688103  Z " stroke-width="0" stroke-dasharray="0" stroke="rgba(255, 255, 255, 0)" fill="none" class="stroke" mask="url(#Clip1799)" />
  </g>
</svg>