<?xml version="1.0" encoding="utf-8"?>
<svg version="1.1" xmlns:xlink="http://www.w3.org/1999/xlink" width="44px" height="56px" xmlns="http://www.w3.org/2000/svg">
  <defs>
    <pattern id="BGPattern" patternUnits="userSpaceOnUse" alignment="0 0" imageRepeat="None" />
    <mask fill="white" id="Clip2376">
      <path d="M 44 4  C 44 1.7937500000000002  42.20625 0  40 0  L 4 0  C 1.7937499999999993 0  0 1.7937500000000002  0 4  L 0 52  C 0 54.20625  1.7937499999999993 56  4 56  L 40 56  C 42.20625 56  44 54.20625  44 52  L 44 4  Z M 24.499999999999996 45  C 24.499999999999996 46.38125  23.381249999999998 47.5  22 47.5  C 20.61875 47.5  19.5 46.38125  19.5 45  C 19.5 43.61875  20.61875 42.5  22 42.5  C 23.381249999999998 42.5  24.499999999999996 43.61875  24.499999999999996 45  Z " fill-rule="evenodd" />
    </mask>
  </defs>
  <g>
    <path d="M 44 4  C 44 1.7937500000000002  42.20625 0  40 0  L 4 0  C 1.7937499999999993 0  0 1.7937500000000002  0 4  L 0 52  C 0 54.20625  1.7937499999999993 56  4 56  L 40 56  C 42.20625 56  44 54.20625  44 52  L 44 4  Z M 24.499999999999996 45  C 24.499999999999996 46.38125  23.381249999999998 47.5  22 47.5  C 20.61875 47.5  19.5 46.38125  19.5 45  C 19.5 43.61875  20.61875 42.5  22 42.5  C 23.381249999999998 42.5  24.499999999999996 43.61875  24.499999999999996 45  Z " fill-rule="nonzero" fill="rgba(0, 0, 0, 1)" stroke="none" class="fill" />
    <path d="M 44 4  C 44 1.7937500000000002  42.20625 0  40 0  L 4 0  C 1.7937499999999993 0  0 1.7937500000000002  0 4  L 0 52  C 0 54.20625  1.7937499999999993 56  4 56  L 40 56  C 42.20625 56  44 54.20625  44 52  L 44 4  Z " stroke-width="0" stroke-dasharray="0" stroke="rgba(255, 255, 255, 0)" fill="none" class="stroke" mask="url(#Clip2376)" />
    <path d="M 24.499999999999996 45  C 24.499999999999996 46.38125  23.381249999999998 47.5  22 47.5  C 20.61875 47.5  19.5 46.38125  19.5 45  C 19.5 43.61875  20.61875 42.5  22 42.5  C 23.381249999999998 42.5  24.499999999999996 43.61875  24.499999999999996 45  Z " stroke-width="0" stroke-dasharray="0" stroke="rgba(255, 255, 255, 0)" fill="none" class="stroke" mask="url(#Clip2376)" />
  </g>
</svg>