<?xml version="1.0" encoding="utf-8"?>
<svg version="1.1" xmlns:xlink="http://www.w3.org/1999/xlink" width="24px" height="24px" xmlns="http://www.w3.org/2000/svg">
  <defs>
    <pattern id="BGPattern" patternUnits="userSpaceOnUse" alignment="0 0" imageRepeat="None" />
    <mask fill="white" id="Clip3659">
      <path d="M 24 0  L 0 0  L 0 2  L 2 2  L 2 22  C 2 23.104569499661586  2.8954305003384135 24  4 24  L 20 24  C 21.104569499661586 24  22 23.104569499661586  22 22  L 22 2  L 24 2  L 24 0  Z M 20 22  L 4 22  L 4 2  L 20 2  L 20 22  Z " fill-rule="evenodd" />
    </mask>
  </defs>
  <g transform="matrix(1 0 0 1 -4 -6 )">
    <path d="M 24 0  L 0 0  L 0 2  L 2 2  L 2 22  C 2 23.104569499661586  2.8954305003384135 24  4 24  L 20 24  C 21.104569499661586 24  22 23.104569499661586  22 22  L 22 2  L 24 2  L 24 0  Z M 20 22  L 4 22  L 4 2  L 20 2  L 20 22  Z " fill-rule="nonzero" fill="rgba(0, 0, 0, 1)" stroke="none" transform="matrix(1 0 0 1 4 6 )" class="fill" />
    <path d="M 24 0  L 0 0  L 0 2  L 2 2  L 2 22  C 2 23.104569499661586  2.8954305003384135 24  4 24  L 20 24  C 21.104569499661586 24  22 23.104569499661586  22 22  L 22 2  L 24 2  L 24 0  Z " stroke-width="0" stroke-dasharray="0" stroke="rgba(255, 255, 255, 0)" fill="none" transform="matrix(1 0 0 1 4 6 )" class="stroke" mask="url(#Clip3659)" />
    <path d="M 20 22  L 4 22  L 4 2  L 20 2  L 20 22  Z " stroke-width="0" stroke-dasharray="0" stroke="rgba(255, 255, 255, 0)" fill="none" transform="matrix(1 0 0 1 4 6 )" class="stroke" mask="url(#Clip3659)" />
  </g>
</svg>