<?xml version="1.0" encoding="utf-8"?>
<svg version="1.1" xmlns:xlink="http://www.w3.org/1999/xlink" width="15px" height="14px" xmlns="http://www.w3.org/2000/svg">
  <defs>
    <pattern id="BGPattern" patternUnits="userSpaceOnUse" alignment="0 0" imageRepeat="None" />
    <mask fill="white" id="Clip3304">
      <path d="M 14.5 7.199999999999999  C 14.5 7.1  14.5 6.9  14.5 6.8  C 13.9 5.3  12.9 4  11.6 3.0999999999999996  L 14 0.7  L 13.3 0  L 0 13.3  L 0.7 14  L 3.3 11.4  C 4.4 12.1  5.699999999999999 12.4  7 12.5  C 10.3 12.4  13.3 10.3  14.5 7.199999999999999  Z M 8.7 6  C 8.9 6.3  9 6.6  9 7  C 9 8.1  8.1 9  7 9  C 6.7 9  6.3 8.9  6 8.7  L 8.7 6  Z M 13.5 6.999999999999997  C 12.4 9.5  9.6 11.5  7 11.5  C 6 11.5  4.9 11.2  4 10.7  L 5.3 9.399999999999999  C 6.699999999999999 10.299999999999999  8.5 9.999999999999998  9.5 8.599999999999998  C 10.2 7.599999999999998  10.2 6.1999999999999975  9.5 5.1999999999999975  L 10.9 3.799999999999997  C 12 4.599999999999997  12.9 5.6999999999999975  13.5 6.999999999999997  Z " fill-rule="evenodd" />
    </mask>
  </defs>
  <g transform="matrix(1 0 0 1 -1 -1 )">
    <path d="M 14.5 7.199999999999999  C 14.5 7.1  14.5 6.9  14.5 6.8  C 13.9 5.3  12.9 4  11.6 3.0999999999999996  L 14 0.7  L 13.3 0  L 0 13.3  L 0.7 14  L 3.3 11.4  C 4.4 12.1  5.699999999999999 12.4  7 12.5  C 10.3 12.4  13.3 10.3  14.5 7.199999999999999  Z M 8.7 6  C 8.9 6.3  9 6.6  9 7  C 9 8.1  8.1 9  7 9  C 6.7 9  6.3 8.9  6 8.7  L 8.7 6  Z M 13.5 6.999999999999997  C 12.4 9.5  9.6 11.5  7 11.5  C 6 11.5  4.9 11.2  4 10.7  L 5.3 9.399999999999999  C 6.699999999999999 10.299999999999999  8.5 9.999999999999998  9.5 8.599999999999998  C 10.2 7.599999999999998  10.2 6.1999999999999975  9.5 5.1999999999999975  L 10.9 3.799999999999997  C 12 4.599999999999997  12.9 5.6999999999999975  13.5 6.999999999999997  Z " fill-rule="nonzero" fill="rgba(0, 0, 0, 1)" stroke="none" transform="matrix(1 0 0 1 1 1 )" class="fill" />
    <path d="M 14.5 7.199999999999999  C 14.5 7.1  14.5 6.9  14.5 6.8  C 13.9 5.3  12.9 4  11.6 3.0999999999999996  L 14 0.7  L 13.3 0  L 0 13.3  L 0.7 14  L 3.3 11.4  C 4.4 12.1  5.699999999999999 12.4  7 12.5  C 10.3 12.4  13.3 10.3  14.5 7.199999999999999  Z " stroke-width="0" stroke-dasharray="0" stroke="rgba(255, 255, 255, 0)" fill="none" transform="matrix(1 0 0 1 1 1 )" class="stroke" mask="url(#Clip3304)" />
    <path d="M 8.7 6  C 8.9 6.3  9 6.6  9 7  C 9 8.1  8.1 9  7 9  C 6.7 9  6.3 8.9  6 8.7  L 8.7 6  Z " stroke-width="0" stroke-dasharray="0" stroke="rgba(255, 255, 255, 0)" fill="none" transform="matrix(1 0 0 1 1 1 )" class="stroke" mask="url(#Clip3304)" />
    <path d="M 13.5 6.999999999999997  C 12.4 9.5  9.6 11.5  7 11.5  C 6 11.5  4.9 11.2  4 10.7  L 5.3 9.399999999999999  C 6.699999999999999 10.299999999999999  8.5 9.999999999999998  9.5 8.599999999999998  C 10.2 7.599999999999998  10.2 6.1999999999999975  9.5 5.1999999999999975  L 10.9 3.799999999999997  C 12 4.599999999999997  12.9 5.6999999999999975  13.5 6.999999999999997  Z " stroke-width="0" stroke-dasharray="0" stroke="rgba(255, 255, 255, 0)" fill="none" transform="matrix(1 0 0 1 1 1 )" class="stroke" mask="url(#Clip3304)" />
  </g>
</svg>