<?xml version="1.0" encoding="utf-8"?>
<svg version="1.1" xmlns:xlink="http://www.w3.org/1999/xlink" width="48px" height="49px" xmlns="http://www.w3.org/2000/svg">
  <defs>
    <pattern id="BGPattern" patternUnits="userSpaceOnUse" alignment="0 0" imageRepeat="None" />
    <mask fill="white" id="Clip7201">
      <path d="M 5.271999999999999 5.522  L 8.918 8.416  C 10.41 9.628  10.969999999999999 9.536000000000001  13.774 9.348  L 40.204 7.7620000000000005  C 40.764 7.7620000000000005  40.298 7.202  40.112 7.110000000000001  L 35.72 3.936  C 34.879999999999995 3.2840000000000003  33.757999999999996 2.536  31.61 2.722  L 6.02 4.59  C 5.087999999999999 4.6819999999999995  4.8999999999999995 5.15  5.271999999999999 5.522  Z M 10.50399999999999 14.574000000000003  L 11 14.576  L 11 42.384  C 10.504 43.878  11.25 44.438  12.931999999999999 44.344  L 41.977999999999994 42.664  C 43.66 42.572  43.84799999999999 41.544000000000004  43 40.33  L 43 12.707999999999998  C 43.84799999999999 11.496  43.38199999999999 10.842  42.35199999999999 10.934000000000001  L 11.99799999999999 12.708000000000002  C 10.87799999999999 12.802000000000003  10.50399999999999 13.362  10.50399999999999 14.574000000000003  Z M 32.734 16.442  L 39.178 16.066  C 39.364 16.906  39.178 17.746  38.337999999999994 17.842  L 37 18.122  L 37 38.65  C 35.721999999999994 39.304  34.602 39.678  33.66799999999999 39.678  C 32.17199999999999 39.678  31.79799999999999 39.209999999999994  30.67799999999999 37.812  L 22 23.439999999999998  L 22 37.343999999999994  L 24.42 38  C 24.42 38  24.42 39.68  22.084000000000003 39.68  L 15.640000000000004 40.052  C 15.454000000000004 39.68  15.640000000000004 38.746  16.294000000000004 38.56  L 18 38.094  L 18 19.708  L 15.644000000000002 19.52  C 15.456 18.68  15.924 17.468  17.23 17.374  L 24.141999999999996 16.907999999999998  L 33 31.466  L 33 18.586  L 31.240000000000002 18.308  C 31.054000000000002 17.28  31.799999999999997 16.534  32.734 16.442  Z M 1 5.334  C 0.9779999999999991 3.6559999999999997  1.725999999999999 2.2539999999999996  3.872 2.07  L 30.491999999999997 0.10999999999999988  C 33.76 -0.17000000000000015  34.602000000000004 0.015999999999999875  36.656 1.5099999999999998  L 45.153999999999996 7.481999999999999  C 46.553999999999995 8.508000000000001  47.022 8.788  47 9.908000000000001  L 47 42.664  C 47.022 44.716  46.275999999999996 45.932  43.662 46.116  L 12.745999999999999 47.984  C 10.785999999999998 48.078  9.849999999999998 47.798  8.822 46.49  L 2.563999999999999 38.370000000000005  C 1.443999999999999 36.876000000000005  0.9779999999999991 35.758  1 34.45  L 1 5.334  Z " fill-rule="evenodd" />
    </mask>
  </defs>
  <g>
    <path d="M 5.271999999999999 5.522  L 8.918 8.416  C 10.41 9.628  10.969999999999999 9.536000000000001  13.774 9.348  L 40.204 7.7620000000000005  C 40.764 7.7620000000000005  40.298 7.202  40.112 7.110000000000001  L 35.72 3.936  C 34.879999999999995 3.2840000000000003  33.757999999999996 2.536  31.61 2.722  L 6.02 4.59  C 5.087999999999999 4.6819999999999995  4.8999999999999995 5.15  5.271999999999999 5.522  Z M 10.50399999999999 14.574000000000003  L 11 14.576  L 11 42.384  C 10.504 43.878  11.25 44.438  12.931999999999999 44.344  L 41.977999999999994 42.664  C 43.66 42.572  43.84799999999999 41.544000000000004  43 40.33  L 43 12.707999999999998  C 43.84799999999999 11.496  43.38199999999999 10.842  42.35199999999999 10.934000000000001  L 11.99799999999999 12.708000000000002  C 10.87799999999999 12.802000000000003  10.50399999999999 13.362  10.50399999999999 14.574000000000003  Z M 32.734 16.442  L 39.178 16.066  C 39.364 16.906  39.178 17.746  38.337999999999994 17.842  L 37 18.122  L 37 38.65  C 35.721999999999994 39.304  34.602 39.678  33.66799999999999 39.678  C 32.17199999999999 39.678  31.79799999999999 39.209999999999994  30.67799999999999 37.812  L 22 23.439999999999998  L 22 37.343999999999994  L 24.42 38  C 24.42 38  24.42 39.68  22.084000000000003 39.68  L 15.640000000000004 40.052  C 15.454000000000004 39.68  15.640000000000004 38.746  16.294000000000004 38.56  L 18 38.094  L 18 19.708  L 15.644000000000002 19.52  C 15.456 18.68  15.924 17.468  17.23 17.374  L 24.141999999999996 16.907999999999998  L 33 31.466  L 33 18.586  L 31.240000000000002 18.308  C 31.054000000000002 17.28  31.799999999999997 16.534  32.734 16.442  Z M 1 5.334  C 0.9779999999999991 3.6559999999999997  1.725999999999999 2.2539999999999996  3.872 2.07  L 30.491999999999997 0.10999999999999988  C 33.76 -0.17000000000000015  34.602000000000004 0.015999999999999875  36.656 1.5099999999999998  L 45.153999999999996 7.481999999999999  C 46.553999999999995 8.508000000000001  47.022 8.788  47 9.908000000000001  L 47 42.664  C 47.022 44.716  46.275999999999996 45.932  43.662 46.116  L 12.745999999999999 47.984  C 10.785999999999998 48.078  9.849999999999998 47.798  8.822 46.49  L 2.563999999999999 38.370000000000005  C 1.443999999999999 36.876000000000005  0.9779999999999991 35.758  1 34.45  L 1 5.334  Z " fill-rule="nonzero" fill="rgba(0, 0, 0, 1)" stroke="none" class="fill" />
    <path d="M 5.271999999999999 5.522  L 8.918 8.416  C 10.41 9.628  10.969999999999999 9.536000000000001  13.774 9.348  L 40.204 7.7620000000000005  C 40.764 7.7620000000000005  40.298 7.202  40.112 7.110000000000001  L 35.72 3.936  C 34.879999999999995 3.2840000000000003  33.757999999999996 2.536  31.61 2.722  L 6.02 4.59  C 5.087999999999999 4.6819999999999995  4.8999999999999995 5.15  5.271999999999999 5.522  Z " stroke-width="0" stroke-dasharray="0" stroke="rgba(255, 255, 255, 0)" fill="none" class="stroke" mask="url(#Clip7201)" />
    <path d="M 10.50399999999999 14.574000000000003  L 11 14.576  L 11 42.384  C 10.504 43.878  11.25 44.438  12.931999999999999 44.344  L 41.977999999999994 42.664  C 43.66 42.572  43.84799999999999 41.544000000000004  43 40.33  L 43 12.707999999999998  C 43.84799999999999 11.496  43.38199999999999 10.842  42.35199999999999 10.934000000000001  L 11.99799999999999 12.708000000000002  C 10.87799999999999 12.802000000000003  10.50399999999999 13.362  10.50399999999999 14.574000000000003  Z " stroke-width="0" stroke-dasharray="0" stroke="rgba(255, 255, 255, 0)" fill="none" class="stroke" mask="url(#Clip7201)" />
    <path d="M 32.734 16.442  L 39.178 16.066  C 39.364 16.906  39.178 17.746  38.337999999999994 17.842  L 37 18.122  L 37 38.65  C 35.721999999999994 39.304  34.602 39.678  33.66799999999999 39.678  C 32.17199999999999 39.678  31.79799999999999 39.209999999999994  30.67799999999999 37.812  L 22 23.439999999999998  L 22 37.343999999999994  L 24.42 38  C 24.42 38  24.42 39.68  22.084000000000003 39.68  L 15.640000000000004 40.052  C 15.454000000000004 39.68  15.640000000000004 38.746  16.294000000000004 38.56  L 18 38.094  L 18 19.708  L 15.644000000000002 19.52  C 15.456 18.68  15.924 17.468  17.23 17.374  L 24.141999999999996 16.907999999999998  L 33 31.466  L 33 18.586  L 31.240000000000002 18.308  C 31.054000000000002 17.28  31.799999999999997 16.534  32.734 16.442  Z " stroke-width="0" stroke-dasharray="0" stroke="rgba(255, 255, 255, 0)" fill="none" class="stroke" mask="url(#Clip7201)" />
    <path d="M 1 5.334  C 0.9779999999999991 3.6559999999999997  1.725999999999999 2.2539999999999996  3.872 2.07  L 30.491999999999997 0.10999999999999988  C 33.76 -0.17000000000000015  34.602000000000004 0.015999999999999875  36.656 1.5099999999999998  L 45.153999999999996 7.481999999999999  C 46.553999999999995 8.508000000000001  47.022 8.788  47 9.908000000000001  L 47 42.664  C 47.022 44.716  46.275999999999996 45.932  43.662 46.116  L 12.745999999999999 47.984  C 10.785999999999998 48.078  9.849999999999998 47.798  8.822 46.49  L 2.563999999999999 38.370000000000005  C 1.443999999999999 36.876000000000005  0.9779999999999991 35.758  1 34.45  L 1 5.334  Z " stroke-width="0" stroke-dasharray="0" stroke="rgba(255, 255, 255, 0)" fill="none" class="stroke" mask="url(#Clip7201)" />
  </g>
</svg>