<?xml version="1.0" encoding="utf-8"?>
<svg version="1.1" xmlns:xlink="http://www.w3.org/1999/xlink" width="50px" height="39px" xmlns="http://www.w3.org/2000/svg">
  <defs>
    <pattern id="BGPattern" patternUnits="userSpaceOnUse" alignment="0 0" imageRepeat="None" />
    <mask fill="white" id="Clip1695">
      <path d="M 12.5 33  L 41.666666666666686 33  L 41.666666666666686 34.72222222222223  C 41.666666666666686 37.0234375  39.80121527777777 38.888888888888914  37.5 38.888888888888914  L 4.166666666666657 38.888888888888914  C 1.8654513888888855 38.888888888888914  0 37.0234375  0 34.72222222222223  L 0 12.500000000000002  C 0 10.198784722222227  1.8654513888888855 8.333333333333314  4.166666666666657 8.333333333333314  L 6 8.333333333333314  L 6 26.388888888888914  C 5.555555555555543 30.218055555555566  8.67083333333332 33.33333333333337  12.5 33  Z M 45.833333333333314 30  C 48.134548611111114 30.5555555555556  50 28.690104166666686  50 26.388888888888914  L 50 4.166666666666686  C 50 1.8654513888889144  48.134548611111114 0  45.833333333333314 0  L 12.5 0  C 10.198784722222229 0  8.333333333333343 1.8654513888889144  9 4.166666666666686  L 9 26.388888888888914  C 8.333333333333343 28.690104166666686  10.198784722222229 30.5555555555556  12.5 30  L 45.833333333333314 30  Z M 18.055555555555543 4.166666666666686  C 20.356770833333343 4.166666666666686  22.22222222222223 6.032118055555543  22.22222222222223 8.333333333333314  C 22.22222222222223 10.634548611111143  20.356770833333343 12.500000000000002  18.055555555555543 12.500000000000002  C 15.75434027777777 12.500000000000002  13.888888888888888 10.634548611111143  13.888888888888888 8.333333333333314  C 13.888888888888888 6.032118055555543  15.75434027777777 4.166666666666686  18.055555555555543 4.166666666666686  Z M 13.888888888888888 25  L 13.888888888888888 20.83333333333337  L 18.707899305555543 16.014322916666686  C 19.114670138888897 15.60755208333336  19.77421874999999 15.60755208333336  20.181076388888897 16.014322916666686  L 23.611111111111114 19.444444444444457  L 35.37456597222223 7.680989583333314  C 35.781336805555554 7.274218749999989  36.440885416666674 7.274218749999989  36.847743055555554 7.680989583333314  L 44.44444444444446 15.277777777777771  L 44.44444444444446 25  L 13.888888888888888 25  Z " fill-rule="evenodd" />
    </mask>
  </defs>
  <g>
    <path d="M 12.5 33  L 41.666666666666686 33  L 41.666666666666686 34.72222222222223  C 41.666666666666686 37.0234375  39.80121527777777 38.888888888888914  37.5 38.888888888888914  L 4.166666666666657 38.888888888888914  C 1.8654513888888855 38.888888888888914  0 37.0234375  0 34.72222222222223  L 0 12.500000000000002  C 0 10.198784722222227  1.8654513888888855 8.333333333333314  4.166666666666657 8.333333333333314  L 6 8.333333333333314  L 6 26.388888888888914  C 5.555555555555543 30.218055555555566  8.67083333333332 33.33333333333337  12.5 33  Z M 45.833333333333314 30  C 48.134548611111114 30.5555555555556  50 28.690104166666686  50 26.388888888888914  L 50 4.166666666666686  C 50 1.8654513888889144  48.134548611111114 0  45.833333333333314 0  L 12.5 0  C 10.198784722222229 0  8.333333333333343 1.8654513888889144  9 4.166666666666686  L 9 26.388888888888914  C 8.333333333333343 28.690104166666686  10.198784722222229 30.5555555555556  12.5 30  L 45.833333333333314 30  Z M 18.055555555555543 4.166666666666686  C 20.356770833333343 4.166666666666686  22.22222222222223 6.032118055555543  22.22222222222223 8.333333333333314  C 22.22222222222223 10.634548611111143  20.356770833333343 12.500000000000002  18.055555555555543 12.500000000000002  C 15.75434027777777 12.500000000000002  13.888888888888888 10.634548611111143  13.888888888888888 8.333333333333314  C 13.888888888888888 6.032118055555543  15.75434027777777 4.166666666666686  18.055555555555543 4.166666666666686  Z M 13.888888888888888 25  L 13.888888888888888 20.83333333333337  L 18.707899305555543 16.014322916666686  C 19.114670138888897 15.60755208333336  19.77421874999999 15.60755208333336  20.181076388888897 16.014322916666686  L 23.611111111111114 19.444444444444457  L 35.37456597222223 7.680989583333314  C 35.781336805555554 7.274218749999989  36.440885416666674 7.274218749999989  36.847743055555554 7.680989583333314  L 44.44444444444446 15.277777777777771  L 44.44444444444446 25  L 13.888888888888888 25  Z " fill-rule="nonzero" fill="rgba(0, 0, 0, 1)" stroke="none" class="fill" />
    <path d="M 12.5 33  L 41.666666666666686 33  L 41.666666666666686 34.72222222222223  C 41.666666666666686 37.0234375  39.80121527777777 38.888888888888914  37.5 38.888888888888914  L 4.166666666666657 38.888888888888914  C 1.8654513888888855 38.888888888888914  0 37.0234375  0 34.72222222222223  L 0 12.500000000000002  C 0 10.198784722222227  1.8654513888888855 8.333333333333314  4.166666666666657 8.333333333333314  L 6 8.333333333333314  L 6 26.388888888888914  C 5.555555555555543 30.218055555555566  8.67083333333332 33.33333333333337  12.5 33  Z " stroke-width="0" stroke-dasharray="0" stroke="rgba(255, 255, 255, 0)" fill="none" class="stroke" mask="url(#Clip1695)" />
    <path d="M 45.833333333333314 30  C 48.134548611111114 30.5555555555556  50 28.690104166666686  50 26.388888888888914  L 50 4.166666666666686  C 50 1.8654513888889144  48.134548611111114 0  45.833333333333314 0  L 12.5 0  C 10.198784722222229 0  8.333333333333343 1.8654513888889144  9 4.166666666666686  L 9 26.388888888888914  C 8.333333333333343 28.690104166666686  10.198784722222229 30.5555555555556  12.5 30  L 45.833333333333314 30  Z " stroke-width="0" stroke-dasharray="0" stroke="rgba(255, 255, 255, 0)" fill="none" class="stroke" mask="url(#Clip1695)" />
    <path d="M 18.055555555555543 4.166666666666686  C 20.356770833333343 4.166666666666686  22.22222222222223 6.032118055555543  22.22222222222223 8.333333333333314  C 22.22222222222223 10.634548611111143  20.356770833333343 12.500000000000002  18.055555555555543 12.500000000000002  C 15.75434027777777 12.500000000000002  13.888888888888888 10.634548611111143  13.888888888888888 8.333333333333314  C 13.888888888888888 6.032118055555543  15.75434027777777 4.166666666666686  18.055555555555543 4.166666666666686  Z " stroke-width="0" stroke-dasharray="0" stroke="rgba(255, 255, 255, 0)" fill="none" class="stroke" mask="url(#Clip1695)" />
    <path d="M 13.888888888888888 25  L 13.888888888888888 20.83333333333337  L 18.707899305555543 16.014322916666686  C 19.114670138888897 15.60755208333336  19.77421874999999 15.60755208333336  20.181076388888897 16.014322916666686  L 23.611111111111114 19.444444444444457  L 35.37456597222223 7.680989583333314  C 35.781336805555554 7.274218749999989  36.440885416666674 7.274218749999989  36.847743055555554 7.680989583333314  L 44.44444444444446 15.277777777777771  L 44.44444444444446 25  L 13.888888888888888 25  Z " stroke-width="0" stroke-dasharray="0" stroke="rgba(255, 255, 255, 0)" fill="none" class="stroke" mask="url(#Clip1695)" />
  </g>
</svg>