<?xml version="1.0" encoding="utf-8"?>
<svg version="1.1" xmlns:xlink="http://www.w3.org/1999/xlink" width="28px" height="46px" xmlns="http://www.w3.org/2000/svg">
  <defs>
    <pattern id="BGPattern" patternUnits="userSpaceOnUse" alignment="0 0" imageRepeat="None" />
    <mask fill="white" id="Clip2211">
      <path d="M 26.737499999999997 24.15625  C 27.418749999999996 23.568750000000005  27.418749999999996 22.43125  26.737499999999997 21.84375  L 2.9375 1.3187499999999996  C 2.0500000000000007 0.5562500000000004  0.75 1.2437500000000004  1 2.4749999999999996  L 1 43.525  C 0.75 44.75625  2.0500000000000007 45.44375  2.9375 44.68125  L 26.737499999999997 24.15625  Z " fill-rule="evenodd" />
    </mask>
  </defs>
  <g>
    <path d="M 26.737499999999997 24.15625  C 27.418749999999996 23.568750000000005  27.418749999999996 22.43125  26.737499999999997 21.84375  L 2.9375 1.3187499999999996  C 2.0500000000000007 0.5562500000000004  0.75 1.2437500000000004  1 2.4749999999999996  L 1 43.525  C 0.75 44.75625  2.0500000000000007 45.44375  2.9375 44.68125  L 26.737499999999997 24.15625  Z " fill-rule="nonzero" fill="rgba(0, 0, 0, 1)" stroke="none" class="fill" />
    <path d="M 26.737499999999997 24.15625  C 27.418749999999996 23.568750000000005  27.418749999999996 22.43125  26.737499999999997 21.84375  L 2.9375 1.3187499999999996  C 2.0500000000000007 0.5562500000000004  0.75 1.2437500000000004  1 2.4749999999999996  L 1 43.525  C 0.75 44.75625  2.0500000000000007 45.44375  2.9375 44.68125  L 26.737499999999997 24.15625  Z " stroke-width="0" stroke-dasharray="0" stroke="rgba(255, 255, 255, 0)" fill="none" class="stroke" mask="url(#Clip2211)" />
  </g>
</svg>