<?xml version="1.0" encoding="utf-8"?>
<svg version="1.1" xmlns:xlink="http://www.w3.org/1999/xlink" width="22px" height="16px" xmlns="http://www.w3.org/2000/svg">
  <defs>
    <pattern id="BGPattern" patternUnits="userSpaceOnUse" alignment="0 0" imageRepeat="None" />
    <mask fill="white" id="Clip5883">
      <path d="M 7.25 15  C 6.835786437626905 15  6.5 14.664213562373096  6.5 14.25  C 6.5 13.835786437626904  6.835786437626905 13.5  7.25 13.5  L 20.75 13.5  C 21.164213562373096 13.5  21.5 13.835786437626904  21.5 14.25  C 21.5 14.664213562373096  21.164213562373096 15  20.75 15  L 7.25 15  Z M 7.25 9  C 6.835786437626905 9  6.5 8.664213562373096  6.5 8.25  C 6.5 7.835786437626904  6.835786437626905 7.5  7.25 7.5  L 20.75 7.5  C 21.164213562373096 7.5  21.5 7.835786437626904  21.5 8.25  C 21.5 8.664213562373096  21.164213562373096 9  20.75 9  L 7.25 9  Z M 7.25 3  C 6.835786437626905 3  6.5 2.664213562373095  6.5 2.25  C 6.5 1.835786437626905  6.835786437626905 1.5  7.25 1.5  L 20.75 1.5  C 21.164213562373096 1.5  21.5 1.835786437626905  21.5 2.25  C 21.5 2.664213562373095  21.164213562373096 3  20.75 3  L 7.25 3  Z M 0.5 2.25  C 0.5 3.07842712474619  1.1715728752538097 3.75  2 3.75  C 2.82842712474619 3.75  3.5 3.07842712474619  3.5 2.25  C 3.5 1.4215728752538102  2.82842712474619 0.75  2 0.75  C 1.1715728752538097 0.75  0.5 1.4215728752538102  0.5 2.25  Z M 0.5 8.25  C 0.5 9.07842712474619  1.1715728752538097 9.75  2 9.75  C 2.82842712474619 9.75  3.5 9.07842712474619  3.5 8.25  C 3.5 7.42157287525381  2.82842712474619 6.75  2 6.75  C 1.1715728752538097 6.75  0.5 7.42157287525381  0.5 8.25  Z M 0.5 14.25  C 0.5 15.078427124746192  1.1715728752538097 15.75  2 15.75  C 2.82842712474619 15.75  3.5 15.078427124746192  3.5 14.25  C 3.5 13.421572875253808  2.82842712474619 12.75  2 12.75  C 1.1715728752538097 12.75  0.5 13.421572875253808  0.5 14.25  Z " fill-rule="evenodd" />
    </mask>
  </defs>
  <g>
    <path d="M 7.25 15  C 6.835786437626905 15  6.5 14.664213562373096  6.5 14.25  C 6.5 13.835786437626904  6.835786437626905 13.5  7.25 13.5  L 20.75 13.5  C 21.164213562373096 13.5  21.5 13.835786437626904  21.5 14.25  C 21.5 14.664213562373096  21.164213562373096 15  20.75 15  L 7.25 15  Z M 7.25 9  C 6.835786437626905 9  6.5 8.664213562373096  6.5 8.25  C 6.5 7.835786437626904  6.835786437626905 7.5  7.25 7.5  L 20.75 7.5  C 21.164213562373096 7.5  21.5 7.835786437626904  21.5 8.25  C 21.5 8.664213562373096  21.164213562373096 9  20.75 9  L 7.25 9  Z M 7.25 3  C 6.835786437626905 3  6.5 2.664213562373095  6.5 2.25  C 6.5 1.835786437626905  6.835786437626905 1.5  7.25 1.5  L 20.75 1.5  C 21.164213562373096 1.5  21.5 1.835786437626905  21.5 2.25  C 21.5 2.664213562373095  21.164213562373096 3  20.75 3  L 7.25 3  Z M 0.5 2.25  C 0.5 3.07842712474619  1.1715728752538097 3.75  2 3.75  C 2.82842712474619 3.75  3.5 3.07842712474619  3.5 2.25  C 3.5 1.4215728752538102  2.82842712474619 0.75  2 0.75  C 1.1715728752538097 0.75  0.5 1.4215728752538102  0.5 2.25  Z M 0.5 8.25  C 0.5 9.07842712474619  1.1715728752538097 9.75  2 9.75  C 2.82842712474619 9.75  3.5 9.07842712474619  3.5 8.25  C 3.5 7.42157287525381  2.82842712474619 6.75  2 6.75  C 1.1715728752538097 6.75  0.5 7.42157287525381  0.5 8.25  Z M 0.5 14.25  C 0.5 15.078427124746192  1.1715728752538097 15.75  2 15.75  C 2.82842712474619 15.75  3.5 15.078427124746192  3.5 14.25  C 3.5 13.421572875253808  2.82842712474619 12.75  2 12.75  C 1.1715728752538097 12.75  0.5 13.421572875253808  0.5 14.25  Z " fill-rule="nonzero" fill="rgba(0, 0, 0, 1)" stroke="none" class="fill" />
    <path d="M 7.25 15  C 6.835786437626905 15  6.5 14.664213562373096  6.5 14.25  C 6.5 13.835786437626904  6.835786437626905 13.5  7.25 13.5  L 20.75 13.5  C 21.164213562373096 13.5  21.5 13.835786437626904  21.5 14.25  C 21.5 14.664213562373096  21.164213562373096 15  20.75 15  L 7.25 15  Z " stroke-width="0" stroke-dasharray="0" stroke="rgba(255, 255, 255, 0)" fill="none" class="stroke" mask="url(#Clip5883)" />
    <path d="M 7.25 9  C 6.835786437626905 9  6.5 8.664213562373096  6.5 8.25  C 6.5 7.835786437626904  6.835786437626905 7.5  7.25 7.5  L 20.75 7.5  C 21.164213562373096 7.5  21.5 7.835786437626904  21.5 8.25  C 21.5 8.664213562373096  21.164213562373096 9  20.75 9  L 7.25 9  Z " stroke-width="0" stroke-dasharray="0" stroke="rgba(255, 255, 255, 0)" fill="none" class="stroke" mask="url(#Clip5883)" />
    <path d="M 7.25 3  C 6.835786437626905 3  6.5 2.664213562373095  6.5 2.25  C 6.5 1.835786437626905  6.835786437626905 1.5  7.25 1.5  L 20.75 1.5  C 21.164213562373096 1.5  21.5 1.835786437626905  21.5 2.25  C 21.5 2.664213562373095  21.164213562373096 3  20.75 3  L 7.25 3  Z " stroke-width="0" stroke-dasharray="0" stroke="rgba(255, 255, 255, 0)" fill="none" class="stroke" mask="url(#Clip5883)" />
    <path d="M 0.5 2.25  C 0.5 3.07842712474619  1.1715728752538097 3.75  2 3.75  C 2.82842712474619 3.75  3.5 3.07842712474619  3.5 2.25  C 3.5 1.4215728752538102  2.82842712474619 0.75  2 0.75  C 1.1715728752538097 0.75  0.5 1.4215728752538102  0.5 2.25  Z " stroke-width="0" stroke-dasharray="0" stroke="rgba(255, 255, 255, 0)" fill="none" class="stroke" mask="url(#Clip5883)" />
    <path d="M 0.5 8.25  C 0.5 9.07842712474619  1.1715728752538097 9.75  2 9.75  C 2.82842712474619 9.75  3.5 9.07842712474619  3.5 8.25  C 3.5 7.42157287525381  2.82842712474619 6.75  2 6.75  C 1.1715728752538097 6.75  0.5 7.42157287525381  0.5 8.25  Z " stroke-width="0" stroke-dasharray="0" stroke="rgba(255, 255, 255, 0)" fill="none" class="stroke" mask="url(#Clip5883)" />
    <path d="M 0.5 14.25  C 0.5 15.078427124746192  1.1715728752538097 15.75  2 15.75  C 2.82842712474619 15.75  3.5 15.078427124746192  3.5 14.25  C 3.5 13.421572875253808  2.82842712474619 12.75  2 12.75  C 1.1715728752538097 12.75  0.5 13.421572875253808  0.5 14.25  Z " stroke-width="0" stroke-dasharray="0" stroke="rgba(255, 255, 255, 0)" fill="none" class="stroke" mask="url(#Clip5883)" />
  </g>
</svg>