<?xml version="1.0" encoding="utf-8"?>
<svg version="1.1" xmlns:xlink="http://www.w3.org/1999/xlink" width="64px" height="51px" xmlns="http://www.w3.org/2000/svg">
  <defs>
    <pattern id="BGPattern" patternUnits="userSpaceOnUse" alignment="0 0" imageRepeat="None" />
    <mask fill="white" id="Clip2083">
      <path d="M 61.484375 42.234375401551944  C 61.484375 37.39335999831813  57.559765625000004 33.468750803103894  52.71875 33.468750803103894  C 47.877734374999996 33.468750803103894  43.953125 37.39335999831813  43.953125 42.234375401551944  C 43.953125 47.07539080478576  47.877734374999996 51  52.71875 51  C 57.559765625000004 51  61.484375 47.07539080478576  61.484375 42.234375401551944  Z M 55.109375 42.234375401551944  C 55.109375 43.552207372432264  54.03658203125 44.625000292037775  52.71875 44.625000292037775  C 51.40091796875 44.625000292037775  50.328125 43.552207372432264  50.328125 42.234375401551944  C 50.328125 40.91654343067163  51.40091796875 39.84375051106611  52.71875 39.84375051106611  C 54.03658203125 39.84375051106611  55.109375 40.91654343067163  55.109375 42.234375401551944  Z M 63.87400390625 19.125001460188898  C 63.875 17.364903884568704  62.44759765625 15.937501606207785  60.6875 15.937501606207785  L 54.3125 15.937501606207785  L 54.3125 11.933204914644017  C 54.3125 10.52672060407485  54.7806640625 9.168048791315403  55.622363281249996 8.064376966874445  C 56.06263671874999 7.486642618340368  55.975976562499994 6.663869218531493  55.49087890624999 6.1229903370590755  L 53.336328125 3.7154318535989677  C 52.67292968750001 2.97334204384399  51.511484375 3.026135010175552  50.87597656250001 3.793127162539757  C 48.991367187499996 6.066212995910037  47.9375 8.945919895241095  47.9375 11.933204914644017  L 47.9375 16  L 37.744472656250004 16  L 32.15738281249999 2.902619390833784  C 31.407087787345155 1.14086853878791  29.67648542540153 -0.0018858350362034278  27.76162109375 0  L 14.468750000000002 0  C 11.832089843750001 0  9.687500000000002 2.1445920818089017  10 4.781252117273901  L 10 19.376017073689912  C 8.827871093750002 18.70564601064951  7.599687500000001 18.732540540667475  6.809785156250002 19.522442848232167  L 3.7109375000000018 22.621290362524427  C 2.855292968750002 23.476934854577483  2.855292968750002 24.864493384763637  3.7109375000000018 25.72013787681669  L 4.214960937500002 26.22416129122745  C 3.7179101562500017 27.146544061473232  3.322460937500002 28.09880964285009  3.028613281250002 29.084942410175497  L 2.3164062500000018 29.084942410175497  C 1.1061523437500016 29.084942410175497  0.12500000000000178 30.066094708979062  0.12500000000000178 31.27634855978751  L 0.12500000000000178 35.65916085901154  C 0.12500000000000178 36.86941470981999  1.1061523437500016 37.85056700862356  2.3164062500000018 37.85056700862356  L 3.027617187500002 37.85056700862356  C 3.322460937500002 38.83769586965333  3.716914062500002 39.788965357325814  4.213964843750001 40.71234422127597  L 3.7099414062500014 41.21636763568674  C 2.854296875000001 42.07201212773978  2.854296875000001 43.45957065792594  3.7099414062500014 44.315215149979  L 6.808789062500002 47.41406266427125  C 7.664433593750002 48.2697071563243  9.051992187500002 48.2697071563243  9.907636718750002 47.41406266427125  L 10.41166015625 46.91003924986048  C 11.334042968750001 47.40709000834067  12.286308593750002 47.8025392089752  13.272441406250003 48.09638685176409  L 13.272441406250003 48.808593850387986  C 13.272441406250003 50.018847701196435  14.253593750000002 51  15.463847656250003 51  L 19.846660156250003 51  C 21.056914062500006 51  22.038066406250003 50.018847701196435  22.038066406250003 48.808593850387986  L 22.038066406250003 48.09738294546845  C 23.024199218750006 47.80353530267957  23.97646484375 47.40808610204503  24.898847656250005 46.911035343564855  L 25.40287109375 47.415058757975615  C 26.258515625 48.270703250028674  27.64607421875 48.270703250028674  28.501718750000002 47.415058757975615  L 31.600566406250003 44.316211243683355  C 32.456210937499996 43.46056675163031  32.456210937499996 42.073008221444155  31.600566406250003 41.21736372939109  L 31.09654296875 40.713340314980336  C 31.593593750000004 39.790957544734546  31.98904296875 38.8386919633577  32.282890625 37.85255919603229  L 32.99609375 37.85255919603229  C 34.206347656249996 37.85255919603229  35.1875 36.87140689722873  35.1875 35.661153046420274  L 35.1875 35.063496823798815  L 43.2100390625 35.063496823798815  C 45.39248046875 32.17582117483281  48.8200390625 30.28224704282715  52.71875 30.28224704282715  C 54.57546875 30.28224704282715  56.31166015625001 30.74144624054131  57.878515625 31.49748136215745  L 62.9406640625 26.4353331565537  C 63.5383203125 25.83767693393224  63.87400390625 25.0268566585758  63.87400390625 24.181173103566437  L 63.87400390625 19.125001460188898  Z M 25.625 33.468750803103894  C 25.625 37.869492789006564  22.0569921875 41.43750043805667  17.65625 41.43750043805667  C 13.255507812500001 41.43750043805667  9.687500000000002 37.869492789006564  9.687500000000002 33.468750803103894  C 9.687500000000002 29.06800881720122  13.255507812500001 25.500001168151115  17.65625 25.500001168151115  C 22.0569921875 25.500001168151115  25.625 29.06800881720122  25.625 33.468750803103894  Z M 30.808671874999995 16  L 19.84765625 16  L 16.0625 15.937501606207785  L 16.0625 7  L 26.70974609375 7  L 30.808671874999995 16  Z " fill-rule="evenodd" />
    </mask>
  </defs>
  <g>
    <path d="M 61.484375 42.234375401551944  C 61.484375 37.39335999831813  57.559765625000004 33.468750803103894  52.71875 33.468750803103894  C 47.877734374999996 33.468750803103894  43.953125 37.39335999831813  43.953125 42.234375401551944  C 43.953125 47.07539080478576  47.877734374999996 51  52.71875 51  C 57.559765625000004 51  61.484375 47.07539080478576  61.484375 42.234375401551944  Z M 55.109375 42.234375401551944  C 55.109375 43.552207372432264  54.03658203125 44.625000292037775  52.71875 44.625000292037775  C 51.40091796875 44.625000292037775  50.328125 43.552207372432264  50.328125 42.234375401551944  C 50.328125 40.91654343067163  51.40091796875 39.84375051106611  52.71875 39.84375051106611  C 54.03658203125 39.84375051106611  55.109375 40.91654343067163  55.109375 42.234375401551944  Z M 63.87400390625 19.125001460188898  C 63.875 17.364903884568704  62.44759765625 15.937501606207785  60.6875 15.937501606207785  L 54.3125 15.937501606207785  L 54.3125 11.933204914644017  C 54.3125 10.52672060407485  54.7806640625 9.168048791315403  55.622363281249996 8.064376966874445  C 56.06263671874999 7.486642618340368  55.975976562499994 6.663869218531493  55.49087890624999 6.1229903370590755  L 53.336328125 3.7154318535989677  C 52.67292968750001 2.97334204384399  51.511484375 3.026135010175552  50.87597656250001 3.793127162539757  C 48.991367187499996 6.066212995910037  47.9375 8.945919895241095  47.9375 11.933204914644017  L 47.9375 16  L 37.744472656250004 16  L 32.15738281249999 2.902619390833784  C 31.407087787345155 1.14086853878791  29.67648542540153 -0.0018858350362034278  27.76162109375 0  L 14.468750000000002 0  C 11.832089843750001 0  9.687500000000002 2.1445920818089017  10 4.781252117273901  L 10 19.376017073689912  C 8.827871093750002 18.70564601064951  7.599687500000001 18.732540540667475  6.809785156250002 19.522442848232167  L 3.7109375000000018 22.621290362524427  C 2.855292968750002 23.476934854577483  2.855292968750002 24.864493384763637  3.7109375000000018 25.72013787681669  L 4.214960937500002 26.22416129122745  C 3.7179101562500017 27.146544061473232  3.322460937500002 28.09880964285009  3.028613281250002 29.084942410175497  L 2.3164062500000018 29.084942410175497  C 1.1061523437500016 29.084942410175497  0.12500000000000178 30.066094708979062  0.12500000000000178 31.27634855978751  L 0.12500000000000178 35.65916085901154  C 0.12500000000000178 36.86941470981999  1.1061523437500016 37.85056700862356  2.3164062500000018 37.85056700862356  L 3.027617187500002 37.85056700862356  C 3.322460937500002 38.83769586965333  3.716914062500002 39.788965357325814  4.213964843750001 40.71234422127597  L 3.7099414062500014 41.21636763568674  C 2.854296875000001 42.07201212773978  2.854296875000001 43.45957065792594  3.7099414062500014 44.315215149979  L 6.808789062500002 47.41406266427125  C 7.664433593750002 48.2697071563243  9.051992187500002 48.2697071563243  9.907636718750002 47.41406266427125  L 10.41166015625 46.91003924986048  C 11.334042968750001 47.40709000834067  12.286308593750002 47.8025392089752  13.272441406250003 48.09638685176409  L 13.272441406250003 48.808593850387986  C 13.272441406250003 50.018847701196435  14.253593750000002 51  15.463847656250003 51  L 19.846660156250003 51  C 21.056914062500006 51  22.038066406250003 50.018847701196435  22.038066406250003 48.808593850387986  L 22.038066406250003 48.09738294546845  C 23.024199218750006 47.80353530267957  23.97646484375 47.40808610204503  24.898847656250005 46.911035343564855  L 25.40287109375 47.415058757975615  C 26.258515625 48.270703250028674  27.64607421875 48.270703250028674  28.501718750000002 47.415058757975615  L 31.600566406250003 44.316211243683355  C 32.456210937499996 43.46056675163031  32.456210937499996 42.073008221444155  31.600566406250003 41.21736372939109  L 31.09654296875 40.713340314980336  C 31.593593750000004 39.790957544734546  31.98904296875 38.8386919633577  32.282890625 37.85255919603229  L 32.99609375 37.85255919603229  C 34.206347656249996 37.85255919603229  35.1875 36.87140689722873  35.1875 35.661153046420274  L 35.1875 35.063496823798815  L 43.2100390625 35.063496823798815  C 45.39248046875 32.17582117483281  48.8200390625 30.28224704282715  52.71875 30.28224704282715  C 54.57546875 30.28224704282715  56.31166015625001 30.74144624054131  57.878515625 31.49748136215745  L 62.9406640625 26.4353331565537  C 63.5383203125 25.83767693393224  63.87400390625 25.0268566585758  63.87400390625 24.181173103566437  L 63.87400390625 19.125001460188898  Z M 25.625 33.468750803103894  C 25.625 37.869492789006564  22.0569921875 41.43750043805667  17.65625 41.43750043805667  C 13.255507812500001 41.43750043805667  9.687500000000002 37.869492789006564  9.687500000000002 33.468750803103894  C 9.687500000000002 29.06800881720122  13.255507812500001 25.500001168151115  17.65625 25.500001168151115  C 22.0569921875 25.500001168151115  25.625 29.06800881720122  25.625 33.468750803103894  Z M 30.808671874999995 16  L 19.84765625 16  L 16.0625 15.937501606207785  L 16.0625 7  L 26.70974609375 7  L 30.808671874999995 16  Z " fill-rule="nonzero" fill="rgba(0, 0, 0, 1)" stroke="none" class="fill" />
    <path d="M 61.484375 42.234375401551944  C 61.484375 37.39335999831813  57.559765625000004 33.468750803103894  52.71875 33.468750803103894  C 47.877734374999996 33.468750803103894  43.953125 37.39335999831813  43.953125 42.234375401551944  C 43.953125 47.07539080478576  47.877734374999996 51  52.71875 51  C 57.559765625000004 51  61.484375 47.07539080478576  61.484375 42.234375401551944  Z " stroke-width="0" stroke-dasharray="0" stroke="rgba(255, 255, 255, 0)" fill="none" class="stroke" mask="url(#Clip2083)" />
    <path d="M 55.109375 42.234375401551944  C 55.109375 43.552207372432264  54.03658203125 44.625000292037775  52.71875 44.625000292037775  C 51.40091796875 44.625000292037775  50.328125 43.552207372432264  50.328125 42.234375401551944  C 50.328125 40.91654343067163  51.40091796875 39.84375051106611  52.71875 39.84375051106611  C 54.03658203125 39.84375051106611  55.109375 40.91654343067163  55.109375 42.234375401551944  Z " stroke-width="0" stroke-dasharray="0" stroke="rgba(255, 255, 255, 0)" fill="none" class="stroke" mask="url(#Clip2083)" />
    <path d="M 63.87400390625 19.125001460188898  C 63.875 17.364903884568704  62.44759765625 15.937501606207785  60.6875 15.937501606207785  L 54.3125 15.937501606207785  L 54.3125 11.933204914644017  C 54.3125 10.52672060407485  54.7806640625 9.168048791315403  55.622363281249996 8.064376966874445  C 56.06263671874999 7.486642618340368  55.975976562499994 6.663869218531493  55.49087890624999 6.1229903370590755  L 53.336328125 3.7154318535989677  C 52.67292968750001 2.97334204384399  51.511484375 3.026135010175552  50.87597656250001 3.793127162539757  C 48.991367187499996 6.066212995910037  47.9375 8.945919895241095  47.9375 11.933204914644017  L 47.9375 16  L 37.744472656250004 16  L 32.15738281249999 2.902619390833784  C 31.407087787345155 1.14086853878791  29.67648542540153 -0.0018858350362034278  27.76162109375 0  L 14.468750000000002 0  C 11.832089843750001 0  9.687500000000002 2.1445920818089017  10 4.781252117273901  L 10 19.376017073689912  C 8.827871093750002 18.70564601064951  7.599687500000001 18.732540540667475  6.809785156250002 19.522442848232167  L 3.7109375000000018 22.621290362524427  C 2.855292968750002 23.476934854577483  2.855292968750002 24.864493384763637  3.7109375000000018 25.72013787681669  L 4.214960937500002 26.22416129122745  C 3.7179101562500017 27.146544061473232  3.322460937500002 28.09880964285009  3.028613281250002 29.084942410175497  L 2.3164062500000018 29.084942410175497  C 1.1061523437500016 29.084942410175497  0.12500000000000178 30.066094708979062  0.12500000000000178 31.27634855978751  L 0.12500000000000178 35.65916085901154  C 0.12500000000000178 36.86941470981999  1.1061523437500016 37.85056700862356  2.3164062500000018 37.85056700862356  L 3.027617187500002 37.85056700862356  C 3.322460937500002 38.83769586965333  3.716914062500002 39.788965357325814  4.213964843750001 40.71234422127597  L 3.7099414062500014 41.21636763568674  C 2.854296875000001 42.07201212773978  2.854296875000001 43.45957065792594  3.7099414062500014 44.315215149979  L 6.808789062500002 47.41406266427125  C 7.664433593750002 48.2697071563243  9.051992187500002 48.2697071563243  9.907636718750002 47.41406266427125  L 10.41166015625 46.91003924986048  C 11.334042968750001 47.40709000834067  12.286308593750002 47.8025392089752  13.272441406250003 48.09638685176409  L 13.272441406250003 48.808593850387986  C 13.272441406250003 50.018847701196435  14.253593750000002 51  15.463847656250003 51  L 19.846660156250003 51  C 21.056914062500006 51  22.038066406250003 50.018847701196435  22.038066406250003 48.808593850387986  L 22.038066406250003 48.09738294546845  C 23.024199218750006 47.80353530267957  23.97646484375 47.40808610204503  24.898847656250005 46.911035343564855  L 25.40287109375 47.415058757975615  C 26.258515625 48.270703250028674  27.64607421875 48.270703250028674  28.501718750000002 47.415058757975615  L 31.600566406250003 44.316211243683355  C 32.456210937499996 43.46056675163031  32.456210937499996 42.073008221444155  31.600566406250003 41.21736372939109  L 31.09654296875 40.713340314980336  C 31.593593750000004 39.790957544734546  31.98904296875 38.8386919633577  32.282890625 37.85255919603229  L 32.99609375 37.85255919603229  C 34.206347656249996 37.85255919603229  35.1875 36.87140689722873  35.1875 35.661153046420274  L 35.1875 35.063496823798815  L 43.2100390625 35.063496823798815  C 45.39248046875 32.17582117483281  48.8200390625 30.28224704282715  52.71875 30.28224704282715  C 54.57546875 30.28224704282715  56.31166015625001 30.74144624054131  57.878515625 31.49748136215745  L 62.9406640625 26.4353331565537  C 63.5383203125 25.83767693393224  63.87400390625 25.0268566585758  63.87400390625 24.181173103566437  L 63.87400390625 19.125001460188898  Z " stroke-width="0" stroke-dasharray="0" stroke="rgba(255, 255, 255, 0)" fill="none" class="stroke" mask="url(#Clip2083)" />
    <path d="M 25.625 33.468750803103894  C 25.625 37.869492789006564  22.0569921875 41.43750043805667  17.65625 41.43750043805667  C 13.255507812500001 41.43750043805667  9.687500000000002 37.869492789006564  9.687500000000002 33.468750803103894  C 9.687500000000002 29.06800881720122  13.255507812500001 25.500001168151115  17.65625 25.500001168151115  C 22.0569921875 25.500001168151115  25.625 29.06800881720122  25.625 33.468750803103894  Z " stroke-width="0" stroke-dasharray="0" stroke="rgba(255, 255, 255, 0)" fill="none" class="stroke" mask="url(#Clip2083)" />
    <path d="M 30.808671874999995 16  L 19.84765625 16  L 16.0625 15.937501606207785  L 16.0625 7  L 26.70974609375 7  L 30.808671874999995 16  Z " stroke-width="0" stroke-dasharray="0" stroke="rgba(255, 255, 255, 0)" fill="none" class="stroke" mask="url(#Clip2083)" />
  </g>
</svg>