<?xml version="1.0" encoding="utf-8"?>
<svg version="1.1" xmlns:xlink="http://www.w3.org/1999/xlink" width="16px" height="16px" xmlns="http://www.w3.org/2000/svg">
  <defs>
    <pattern id="BGPattern" patternUnits="userSpaceOnUse" alignment="0 0" imageRepeat="None" />
    <mask fill="white" id="Clip4910">
      <path d="M 0.5 8.75  L 0.5 1.25  C 0.5 0.8357864376269051  0.8357864376269051 0.5  1.25 0.5  L 8.75 0.5  C 9.164213562373096 0.5  9.5 0.8357864376269051  9.5 1.25  C 9.5 1.6642135623730958  9.164213562373096 2  8.75 2  L 3.0604999999999993 2  L 15.280999999999999 14.219000000000001  C 15.421829956104794 14.359829956104797  15.500947401620117 14.550836366088191  15.500947401620117 14.75  C 15.500947401620117 15.16473679783985  15.16473679783985 15.500947401620117  14.75 15.500947401620117  C 14.550836366088188 15.500947401620117  14.359829956104797 15.421829956104798  14.218999999999998 15.281000000000002  L 2 3.0604999999999993  L 2 8.75  C 2 9.164213562373096  1.6642135623730958 9.5  1.25 9.5  C 0.8357864376269051 9.5  0.5 9.164213562373096  0.5 8.75  Z " fill-rule="evenodd" />
    </mask>
  </defs>
  <g transform="matrix(1 0 0 1 -6 -6 )">
    <path d="M 0.5 8.75  L 0.5 1.25  C 0.5 0.8357864376269051  0.8357864376269051 0.5  1.25 0.5  L 8.75 0.5  C 9.164213562373096 0.5  9.5 0.8357864376269051  9.5 1.25  C 9.5 1.6642135623730958  9.164213562373096 2  8.75 2  L 3.0604999999999993 2  L 15.280999999999999 14.219000000000001  C 15.421829956104794 14.359829956104797  15.500947401620117 14.550836366088191  15.500947401620117 14.75  C 15.500947401620117 15.16473679783985  15.16473679783985 15.500947401620117  14.75 15.500947401620117  C 14.550836366088188 15.500947401620117  14.359829956104797 15.421829956104798  14.218999999999998 15.281000000000002  L 2 3.0604999999999993  L 2 8.75  C 2 9.164213562373096  1.6642135623730958 9.5  1.25 9.5  C 0.8357864376269051 9.5  0.5 9.164213562373096  0.5 8.75  Z " fill-rule="nonzero" fill="rgba(0, 0, 0, 1)" stroke="none" transform="matrix(1 0 0 1 6 6 )" class="fill" />
    <path d="M 0.5 8.75  L 0.5 1.25  C 0.5 0.8357864376269051  0.8357864376269051 0.5  1.25 0.5  L 8.75 0.5  C 9.164213562373096 0.5  9.5 0.8357864376269051  9.5 1.25  C 9.5 1.6642135623730958  9.164213562373096 2  8.75 2  L 3.0604999999999993 2  L 15.280999999999999 14.219000000000001  C 15.421829956104794 14.359829956104797  15.500947401620117 14.550836366088191  15.500947401620117 14.75  C 15.500947401620117 15.16473679783985  15.16473679783985 15.500947401620117  14.75 15.500947401620117  C 14.550836366088188 15.500947401620117  14.359829956104797 15.421829956104798  14.218999999999998 15.281000000000002  L 2 3.0604999999999993  L 2 8.75  C 2 9.164213562373096  1.6642135623730958 9.5  1.25 9.5  C 0.8357864376269051 9.5  0.5 9.164213562373096  0.5 8.75  Z " stroke-width="0" stroke-dasharray="0" stroke="rgba(255, 255, 255, 0)" fill="none" transform="matrix(1 0 0 1 6 6 )" class="stroke" mask="url(#Clip4910)" />
  </g>
</svg>