<?xml version="1.0" encoding="utf-8"?>
<svg version="1.1" xmlns:xlink="http://www.w3.org/1999/xlink" width="50px" height="50px" xmlns="http://www.w3.org/2000/svg">
  <defs>
    <pattern id="BGPattern" patternUnits="userSpaceOnUse" alignment="0 0" imageRepeat="None" />
    <mask fill="white" id="Clip1173">
      <path d="M 50 25  C 50 11.189516129032256  38.810483870967744 0  25 0  C 11.189516129032256 0  0 11.189516129032256  0 25  C 0 38.810483870967744  11.189516129032256 50  25 50  C 38.810483870967744 50  50 38.810483870967744  50 25  Z M 45.16129032258064 25  C 45.16129032258064 30.38306451612903  43.064516129032256 35.44354838709677  39.25403225806451 39.25403225806451  C 35.44354838709677 43.064516129032256  30.38306451612903 45.16129032258064  25 45.16129032258064  C 19.61693548387096 45.16129032258064  14.556451612903231 43.064516129032256  10.745967741935488 39.25403225806451  C 6.935483870967745 35.44354838709677  4.838709677419352 30.38306451612903  4.838709677419352 25  C 4.838709677419352 19.616935483870975  6.935483870967745 14.556451612903231  10.745967741935488 10.745967741935488  C 14.556451612903231 6.935483870967745  19.616935483870975 4.838709677419359  25 4.838709677419359  C 30.38306451612903 4.838709677419359  35.44354838709677 6.935483870967745  39.25403225806451 10.745967741935488  C 43.064516129032256 14.556451612903231  45.16129032258064 19.616935483870975  45.16129032258064 25  Z M 39.08266129032259 19.969758064516128  C 38.69959677419355 17.429435483870975  35.65524193548387 15.725806451612897  33.064516129032256 15.725806451612897  C 30.47379032258064 15.725806451612897  27.42943548387097 17.429435483870975  27.02620967741936 19.969758064516128  C 26.854838709677427 21.09879032258064  28.185483870967744 21.804435483870975  29.022177419354843 21.058467741935488  L 29.979838709677427 20.201612903225794  C 31.471774193548384 18.870967741935488  34.63709677419355 18.870967741935488  36.12903225806451 20.201612903225794  L 37.0866935483871 21.058467741935488  C 37.94354838709677 21.804435483870975  39.26411290322582 21.08870967741936  39.08266129032259 19.969758064516128  Z M 13.709677419354833 18.548387096774206  C 13.709677419354833 20.33266129032259  15.151209677419358 21.774193548387103  16.935483870967744 21.774193548387103  C 18.719758064516128 21.774193548387103  20.16129032258064 20.33266129032259  20.16129032258064 18.548387096774206  C 20.16129032258064 16.764112903225794  18.719758064516128 15.322580645161283  16.935483870967744 15.322580645161283  C 15.151209677419358 15.322580645161283  13.709677419354833 16.764112903225794  13.709677419354833 18.548387096774206  Z M 37.89314516129032 29.737903225806463  C 37.99395161290323 28.93145161290323  37.35887096774192 28.225806451612893  36.53225806451613 28  L 13.46774193548387 28  C 12.641129032258064 28.225806451612893  12.006048387096769 28.93145161290323  12.10685483870968 29.737903225806463  C 12.862903225806448 35.705645161290306  18.04435483870968 40.32258064516128  24.314516129032256 40.32258064516128  L 25.685483870967747 40.32258064516128  C 31.95564516129032 40.32258064516128  37.13709677419354 35.705645161290306  37.89314516129032 29.737903225806463  Z " fill-rule="evenodd" />
    </mask>
  </defs>
  <g>
    <path d="M 50 25  C 50 11.189516129032256  38.810483870967744 0  25 0  C 11.189516129032256 0  0 11.189516129032256  0 25  C 0 38.810483870967744  11.189516129032256 50  25 50  C 38.810483870967744 50  50 38.810483870967744  50 25  Z M 45.16129032258064 25  C 45.16129032258064 30.38306451612903  43.064516129032256 35.44354838709677  39.25403225806451 39.25403225806451  C 35.44354838709677 43.064516129032256  30.38306451612903 45.16129032258064  25 45.16129032258064  C 19.61693548387096 45.16129032258064  14.556451612903231 43.064516129032256  10.745967741935488 39.25403225806451  C 6.935483870967745 35.44354838709677  4.838709677419352 30.38306451612903  4.838709677419352 25  C 4.838709677419352 19.616935483870975  6.935483870967745 14.556451612903231  10.745967741935488 10.745967741935488  C 14.556451612903231 6.935483870967745  19.616935483870975 4.838709677419359  25 4.838709677419359  C 30.38306451612903 4.838709677419359  35.44354838709677 6.935483870967745  39.25403225806451 10.745967741935488  C 43.064516129032256 14.556451612903231  45.16129032258064 19.616935483870975  45.16129032258064 25  Z M 39.08266129032259 19.969758064516128  C 38.69959677419355 17.429435483870975  35.65524193548387 15.725806451612897  33.064516129032256 15.725806451612897  C 30.47379032258064 15.725806451612897  27.42943548387097 17.429435483870975  27.02620967741936 19.969758064516128  C 26.854838709677427 21.09879032258064  28.185483870967744 21.804435483870975  29.022177419354843 21.058467741935488  L 29.979838709677427 20.201612903225794  C 31.471774193548384 18.870967741935488  34.63709677419355 18.870967741935488  36.12903225806451 20.201612903225794  L 37.0866935483871 21.058467741935488  C 37.94354838709677 21.804435483870975  39.26411290322582 21.08870967741936  39.08266129032259 19.969758064516128  Z M 13.709677419354833 18.548387096774206  C 13.709677419354833 20.33266129032259  15.151209677419358 21.774193548387103  16.935483870967744 21.774193548387103  C 18.719758064516128 21.774193548387103  20.16129032258064 20.33266129032259  20.16129032258064 18.548387096774206  C 20.16129032258064 16.764112903225794  18.719758064516128 15.322580645161283  16.935483870967744 15.322580645161283  C 15.151209677419358 15.322580645161283  13.709677419354833 16.764112903225794  13.709677419354833 18.548387096774206  Z M 37.89314516129032 29.737903225806463  C 37.99395161290323 28.93145161290323  37.35887096774192 28.225806451612893  36.53225806451613 28  L 13.46774193548387 28  C 12.641129032258064 28.225806451612893  12.006048387096769 28.93145161290323  12.10685483870968 29.737903225806463  C 12.862903225806448 35.705645161290306  18.04435483870968 40.32258064516128  24.314516129032256 40.32258064516128  L 25.685483870967747 40.32258064516128  C 31.95564516129032 40.32258064516128  37.13709677419354 35.705645161290306  37.89314516129032 29.737903225806463  Z " fill-rule="nonzero" fill="rgba(0, 0, 0, 1)" stroke="none" class="fill" />
    <path d="M 50 25  C 50 11.189516129032256  38.810483870967744 0  25 0  C 11.189516129032256 0  0 11.189516129032256  0 25  C 0 38.810483870967744  11.189516129032256 50  25 50  C 38.810483870967744 50  50 38.810483870967744  50 25  Z " stroke-width="0" stroke-dasharray="0" stroke="rgba(255, 255, 255, 0)" fill="none" class="stroke" mask="url(#Clip1173)" />
    <path d="M 45.16129032258064 25  C 45.16129032258064 30.38306451612903  43.064516129032256 35.44354838709677  39.25403225806451 39.25403225806451  C 35.44354838709677 43.064516129032256  30.38306451612903 45.16129032258064  25 45.16129032258064  C 19.61693548387096 45.16129032258064  14.556451612903231 43.064516129032256  10.745967741935488 39.25403225806451  C 6.935483870967745 35.44354838709677  4.838709677419352 30.38306451612903  4.838709677419352 25  C 4.838709677419352 19.616935483870975  6.935483870967745 14.556451612903231  10.745967741935488 10.745967741935488  C 14.556451612903231 6.935483870967745  19.616935483870975 4.838709677419359  25 4.838709677419359  C 30.38306451612903 4.838709677419359  35.44354838709677 6.935483870967745  39.25403225806451 10.745967741935488  C 43.064516129032256 14.556451612903231  45.16129032258064 19.616935483870975  45.16129032258064 25  Z " stroke-width="0" stroke-dasharray="0" stroke="rgba(255, 255, 255, 0)" fill="none" class="stroke" mask="url(#Clip1173)" />
    <path d="M 39.08266129032259 19.969758064516128  C 38.69959677419355 17.429435483870975  35.65524193548387 15.725806451612897  33.064516129032256 15.725806451612897  C 30.47379032258064 15.725806451612897  27.42943548387097 17.429435483870975  27.02620967741936 19.969758064516128  C 26.854838709677427 21.09879032258064  28.185483870967744 21.804435483870975  29.022177419354843 21.058467741935488  L 29.979838709677427 20.201612903225794  C 31.471774193548384 18.870967741935488  34.63709677419355 18.870967741935488  36.12903225806451 20.201612903225794  L 37.0866935483871 21.058467741935488  C 37.94354838709677 21.804435483870975  39.26411290322582 21.08870967741936  39.08266129032259 19.969758064516128  Z " stroke-width="0" stroke-dasharray="0" stroke="rgba(255, 255, 255, 0)" fill="none" class="stroke" mask="url(#Clip1173)" />
    <path d="M 13.709677419354833 18.548387096774206  C 13.709677419354833 20.33266129032259  15.151209677419358 21.774193548387103  16.935483870967744 21.774193548387103  C 18.719758064516128 21.774193548387103  20.16129032258064 20.33266129032259  20.16129032258064 18.548387096774206  C 20.16129032258064 16.764112903225794  18.719758064516128 15.322580645161283  16.935483870967744 15.322580645161283  C 15.151209677419358 15.322580645161283  13.709677419354833 16.764112903225794  13.709677419354833 18.548387096774206  Z " stroke-width="0" stroke-dasharray="0" stroke="rgba(255, 255, 255, 0)" fill="none" class="stroke" mask="url(#Clip1173)" />
    <path d="M 37.89314516129032 29.737903225806463  C 37.99395161290323 28.93145161290323  37.35887096774192 28.225806451612893  36.53225806451613 28  L 13.46774193548387 28  C 12.641129032258064 28.225806451612893  12.006048387096769 28.93145161290323  12.10685483870968 29.737903225806463  C 12.862903225806448 35.705645161290306  18.04435483870968 40.32258064516128  24.314516129032256 40.32258064516128  L 25.685483870967747 40.32258064516128  C 31.95564516129032 40.32258064516128  37.13709677419354 35.705645161290306  37.89314516129032 29.737903225806463  Z " stroke-width="0" stroke-dasharray="0" stroke="rgba(255, 255, 255, 0)" fill="none" class="stroke" mask="url(#Clip1173)" />
  </g>
</svg>