<?xml version="1.0" encoding="utf-8"?>
<svg version="1.1" xmlns:xlink="http://www.w3.org/1999/xlink" width="48px" height="50px" xmlns="http://www.w3.org/2000/svg">
  <defs>
    <pattern id="BGPattern" patternUnits="userSpaceOnUse" alignment="0 0" imageRepeat="None" />
    <mask fill="white" id="Clip2800">
      <path d="M 33.8875 33.94375  C 34.040763083134934 34.04005501977127  34.23378288275359 34.04720390123863  34.39375 33.9625  C 35.90625 33.15  37.637499999999996 32.6875  39.481249999999996 32.6875  L 39.4875 32.6875  C 39.675 32.6875  39.762499999999996 32.4625  39.62499999999999 32.33749999999999  C 37.70758693491969 30.616739100925138  35.517273865720085 29.226935822686627  33.14375 28.225  C 33.11875 28.212499999999995  33.09375 28.206250000000004  33.068749999999994 28.19375  C 36.95 25.374999999999996  39.475 20.79375  39.475 15.625  C 39.475 7.062499999999999  32.550000000000004 0.125  24.00625 0.125  C 15.462499999999999 0.125  8.54375 7.062499999999999  8.54375 15.625  C 8.54375 20.79375  11.068749999999998 25.374999999999996  14.956249999999997 28.19375  C 14.931249999999999 28.206250000000004  14.906249999999996 28.212499999999995  14.881249999999998 28.225  C 12.087499999999999 29.40625  9.581249999999997 31.1  7.424999999999999 33.2625  C 5.281201605686187 35.40240776378333  3.574460514130923 37.939168465784  2.399999999999997 40.73125  C 1.2444570603921505 43.46538740297423  0.6208218214839079 46.39477605920648  0.5625 49.3625  C 0.5623958207156754 49.36666586078422  0.5623437249675671 49.370832861190536  0.5623437249675671 49.37500002442189  C 0.5623437249675671 49.65114239933728  0.7862013500521705 49.87500002442189  1.0623437249675671 49.87500002442189  L 4.80625 49.875  C 5.075000000000001 49.875  5.300000000000001 49.65625  5.30625 49.3875  C 5.43125 44.5625  7.362500000000001 40.04375  10.78125 36.618750000000006  C 14.3125 33.075  19.0125 31.125000000000004  24.012500000000003 31.125000000000004  C 27.556250000000006 31.125000000000004  30.956250000000004 32.10625  33.8875 33.94375  Z M 31.6 23.225  C 29.56875 25.25625  26.875 26.375  24.012500000000003 26.375  C 21.150000000000002 26.375  18.456250000000004 25.25625  16.425 23.224999999999998  C 14.40642792224665 21.21165747523064  13.274815179060667 18.475989292896344  13.28125 15.625  C 13.28125 12.756250000000001  14.399999999999999 10.056249999999999  16.425 8.025  C 18.450000000000003 5.993750000000002  21.14375 4.875  24.012500000000003 4.875  C 26.88125000000001 4.875  29.56875 5.99375  31.599999999999994 8.025  C 33.61857207775334 10.038342524769355  34.750184820939324 12.774010707103656  34.74375 15.625  C 34.74375 18.49375  33.625 21.19375  31.6 23.225  Z M 47.5 41.75  C 47.5 41.475  47.275 41.25  47 41  L 32 41  C 31.725 41.25  31.5 41.475  31.5 41.75  L 31.5 45.25  C 31.5 45.525  31.725 45.75  32 45  L 47 45  C 47.275 45.75  47.5 45.525  47.5 45.25  L 47.5 41.75  Z " fill-rule="evenodd" />
    </mask>
  </defs>
  <g>
    <path d="M 33.8875 33.94375  C 34.040763083134934 34.04005501977127  34.23378288275359 34.04720390123863  34.39375 33.9625  C 35.90625 33.15  37.637499999999996 32.6875  39.481249999999996 32.6875  L 39.4875 32.6875  C 39.675 32.6875  39.762499999999996 32.4625  39.62499999999999 32.33749999999999  C 37.70758693491969 30.616739100925138  35.517273865720085 29.226935822686627  33.14375 28.225  C 33.11875 28.212499999999995  33.09375 28.206250000000004  33.068749999999994 28.19375  C 36.95 25.374999999999996  39.475 20.79375  39.475 15.625  C 39.475 7.062499999999999  32.550000000000004 0.125  24.00625 0.125  C 15.462499999999999 0.125  8.54375 7.062499999999999  8.54375 15.625  C 8.54375 20.79375  11.068749999999998 25.374999999999996  14.956249999999997 28.19375  C 14.931249999999999 28.206250000000004  14.906249999999996 28.212499999999995  14.881249999999998 28.225  C 12.087499999999999 29.40625  9.581249999999997 31.1  7.424999999999999 33.2625  C 5.281201605686187 35.40240776378333  3.574460514130923 37.939168465784  2.399999999999997 40.73125  C 1.2444570603921505 43.46538740297423  0.6208218214839079 46.39477605920648  0.5625 49.3625  C 0.5623958207156754 49.36666586078422  0.5623437249675671 49.370832861190536  0.5623437249675671 49.37500002442189  C 0.5623437249675671 49.65114239933728  0.7862013500521705 49.87500002442189  1.0623437249675671 49.87500002442189  L 4.80625 49.875  C 5.075000000000001 49.875  5.300000000000001 49.65625  5.30625 49.3875  C 5.43125 44.5625  7.362500000000001 40.04375  10.78125 36.618750000000006  C 14.3125 33.075  19.0125 31.125000000000004  24.012500000000003 31.125000000000004  C 27.556250000000006 31.125000000000004  30.956250000000004 32.10625  33.8875 33.94375  Z M 31.6 23.225  C 29.56875 25.25625  26.875 26.375  24.012500000000003 26.375  C 21.150000000000002 26.375  18.456250000000004 25.25625  16.425 23.224999999999998  C 14.40642792224665 21.21165747523064  13.274815179060667 18.475989292896344  13.28125 15.625  C 13.28125 12.756250000000001  14.399999999999999 10.056249999999999  16.425 8.025  C 18.450000000000003 5.993750000000002  21.14375 4.875  24.012500000000003 4.875  C 26.88125000000001 4.875  29.56875 5.99375  31.599999999999994 8.025  C 33.61857207775334 10.038342524769355  34.750184820939324 12.774010707103656  34.74375 15.625  C 34.74375 18.49375  33.625 21.19375  31.6 23.225  Z M 47.5 41.75  C 47.5 41.475  47.275 41.25  47 41  L 32 41  C 31.725 41.25  31.5 41.475  31.5 41.75  L 31.5 45.25  C 31.5 45.525  31.725 45.75  32 45  L 47 45  C 47.275 45.75  47.5 45.525  47.5 45.25  L 47.5 41.75  Z " fill-rule="nonzero" fill="rgba(0, 0, 0, 1)" stroke="none" class="fill" />
    <path d="M 33.8875 33.94375  C 34.040763083134934 34.04005501977127  34.23378288275359 34.04720390123863  34.39375 33.9625  C 35.90625 33.15  37.637499999999996 32.6875  39.481249999999996 32.6875  L 39.4875 32.6875  C 39.675 32.6875  39.762499999999996 32.4625  39.62499999999999 32.33749999999999  C 37.70758693491969 30.616739100925138  35.517273865720085 29.226935822686627  33.14375 28.225  C 33.11875 28.212499999999995  33.09375 28.206250000000004  33.068749999999994 28.19375  C 36.95 25.374999999999996  39.475 20.79375  39.475 15.625  C 39.475 7.062499999999999  32.550000000000004 0.125  24.00625 0.125  C 15.462499999999999 0.125  8.54375 7.062499999999999  8.54375 15.625  C 8.54375 20.79375  11.068749999999998 25.374999999999996  14.956249999999997 28.19375  C 14.931249999999999 28.206250000000004  14.906249999999996 28.212499999999995  14.881249999999998 28.225  C 12.087499999999999 29.40625  9.581249999999997 31.1  7.424999999999999 33.2625  C 5.281201605686187 35.40240776378333  3.574460514130923 37.939168465784  2.399999999999997 40.73125  C 1.2444570603921505 43.46538740297423  0.6208218214839079 46.39477605920648  0.5625 49.3625  C 0.5623958207156754 49.36666586078422  0.5623437249675671 49.370832861190536  0.5623437249675671 49.37500002442189  C 0.5623437249675671 49.65114239933728  0.7862013500521705 49.87500002442189  1.0623437249675671 49.87500002442189  L 4.80625 49.875  C 5.075000000000001 49.875  5.300000000000001 49.65625  5.30625 49.3875  C 5.43125 44.5625  7.362500000000001 40.04375  10.78125 36.618750000000006  C 14.3125 33.075  19.0125 31.125000000000004  24.012500000000003 31.125000000000004  C 27.556250000000006 31.125000000000004  30.956250000000004 32.10625  33.8875 33.94375  Z " stroke-width="0" stroke-dasharray="0" stroke="rgba(255, 255, 255, 0)" fill="none" class="stroke" mask="url(#Clip2800)" />
    <path d="M 31.6 23.225  C 29.56875 25.25625  26.875 26.375  24.012500000000003 26.375  C 21.150000000000002 26.375  18.456250000000004 25.25625  16.425 23.224999999999998  C 14.40642792224665 21.21165747523064  13.274815179060667 18.475989292896344  13.28125 15.625  C 13.28125 12.756250000000001  14.399999999999999 10.056249999999999  16.425 8.025  C 18.450000000000003 5.993750000000002  21.14375 4.875  24.012500000000003 4.875  C 26.88125000000001 4.875  29.56875 5.99375  31.599999999999994 8.025  C 33.61857207775334 10.038342524769355  34.750184820939324 12.774010707103656  34.74375 15.625  C 34.74375 18.49375  33.625 21.19375  31.6 23.225  Z " stroke-width="0" stroke-dasharray="0" stroke="rgba(255, 255, 255, 0)" fill="none" class="stroke" mask="url(#Clip2800)" />
    <path d="M 47.5 41.75  C 47.5 41.475  47.275 41.25  47 41  L 32 41  C 31.725 41.25  31.5 41.475  31.5 41.75  L 31.5 45.25  C 31.5 45.525  31.725 45.75  32 45  L 47 45  C 47.275 45.75  47.5 45.525  47.5 45.25  L 47.5 41.75  Z " stroke-width="0" stroke-dasharray="0" stroke="rgba(255, 255, 255, 0)" fill="none" class="stroke" mask="url(#Clip2800)" />
  </g>
</svg>