<?xml version="1.0" encoding="utf-8"?>
<svg version="1.1" xmlns:xlink="http://www.w3.org/1999/xlink" width="50px" height="40px" xmlns="http://www.w3.org/2000/svg">
  <defs>
    <pattern id="BGPattern" patternUnits="userSpaceOnUse" alignment="0 0" imageRepeat="None" />
    <mask fill="white" id="Clip1746">
      <path d="M 15 22.5  C 15 23.880468749999977  16.119531249999994 25  17.5 25  L 20 25  L 20 7.5  L 17.5 7.5  C 16.119531249999994 7.5  15 8.619531250000023  15 10  L 15 22.5  Z M 42.5 25  C 43.88046874999998 25  45 23.880468749999977  45 22.5  L 45 10  C 45 8.619531250000023  43.88046874999998 7.5  42.5 7.5  L 40 7.5  L 40 25  L 42.5 25  Z M 50 31.25  C 50 30.55937499999999  49.44062500000001 30  48.75 30  L 10 30  L 10 1.25  C 10 0.5593749999999886  9.440625000000011 0  8.75 0  L 1.25 0  C 0.5593749999999886 0  0 0.5593749999999886  0 1.25  L 0 3.75  C 0 4.440625000000011  0.5593749999999886 5  1.25 5  L 5 5  L 5 33.75  C 5 34.44062500000001  5.559374999999989 35  6.25 35  L 12.729687500000011 35  C 12.589843749999998 35.39296875000002  12.5 35.80937499999999  12.5 36.25  C 12.5 38.32109374999999  14.178906250000011 40  16.25 40  C 18.32109374999999 40  20 38.32109374999999  20 36.25  C 20 35.80937499999999  19.91015625 35.39296875000002  19.77031249999999 35  L 35.22968750000001 35  C 35.08984375 35.39296875000002  35 35.80937499999999  35 36.25  C 35 38.32109374999999  36.67890625000001 40  38.75 40  C 40.82109374999999 40  42.5 38.32109374999999  42.5 36.25  C 42.5 35.80937499999999  42.41015625 35.39296875000002  42.27031249999999 35  L 48.75 35  C 49.44062500000001 35  50 34.44062500000001  50 33.75  L 50 31.25  Z M 37 25  L 37 7.5  L 37.5 3.75  C 37.5 1.6789062500000114  35.82109374999999 0  33.75 0  L 26.25 0  C 24.17890625000001 0  22.5 1.6789062500000114  23 3.75  L 23 25  L 37 25  Z M 33.75 3.75  L 33.75 7.5  L 26.25 7.5  L 26.25 3.75  L 33.75 3.75  Z " fill-rule="evenodd" />
    </mask>
  </defs>
  <g>
    <path d="M 15 22.5  C 15 23.880468749999977  16.119531249999994 25  17.5 25  L 20 25  L 20 7.5  L 17.5 7.5  C 16.119531249999994 7.5  15 8.619531250000023  15 10  L 15 22.5  Z M 42.5 25  C 43.88046874999998 25  45 23.880468749999977  45 22.5  L 45 10  C 45 8.619531250000023  43.88046874999998 7.5  42.5 7.5  L 40 7.5  L 40 25  L 42.5 25  Z M 50 31.25  C 50 30.55937499999999  49.44062500000001 30  48.75 30  L 10 30  L 10 1.25  C 10 0.5593749999999886  9.440625000000011 0  8.75 0  L 1.25 0  C 0.5593749999999886 0  0 0.5593749999999886  0 1.25  L 0 3.75  C 0 4.440625000000011  0.5593749999999886 5  1.25 5  L 5 5  L 5 33.75  C 5 34.44062500000001  5.559374999999989 35  6.25 35  L 12.729687500000011 35  C 12.589843749999998 35.39296875000002  12.5 35.80937499999999  12.5 36.25  C 12.5 38.32109374999999  14.178906250000011 40  16.25 40  C 18.32109374999999 40  20 38.32109374999999  20 36.25  C 20 35.80937499999999  19.91015625 35.39296875000002  19.77031249999999 35  L 35.22968750000001 35  C 35.08984375 35.39296875000002  35 35.80937499999999  35 36.25  C 35 38.32109374999999  36.67890625000001 40  38.75 40  C 40.82109374999999 40  42.5 38.32109374999999  42.5 36.25  C 42.5 35.80937499999999  42.41015625 35.39296875000002  42.27031249999999 35  L 48.75 35  C 49.44062500000001 35  50 34.44062500000001  50 33.75  L 50 31.25  Z M 37 25  L 37 7.5  L 37.5 3.75  C 37.5 1.6789062500000114  35.82109374999999 0  33.75 0  L 26.25 0  C 24.17890625000001 0  22.5 1.6789062500000114  23 3.75  L 23 25  L 37 25  Z M 33.75 3.75  L 33.75 7.5  L 26.25 7.5  L 26.25 3.75  L 33.75 3.75  Z " fill-rule="nonzero" fill="rgba(0, 0, 0, 1)" stroke="none" class="fill" />
    <path d="M 15 22.5  C 15 23.880468749999977  16.119531249999994 25  17.5 25  L 20 25  L 20 7.5  L 17.5 7.5  C 16.119531249999994 7.5  15 8.619531250000023  15 10  L 15 22.5  Z " stroke-width="0" stroke-dasharray="0" stroke="rgba(255, 255, 255, 0)" fill="none" class="stroke" mask="url(#Clip1746)" />
    <path d="M 42.5 25  C 43.88046874999998 25  45 23.880468749999977  45 22.5  L 45 10  C 45 8.619531250000023  43.88046874999998 7.5  42.5 7.5  L 40 7.5  L 40 25  L 42.5 25  Z " stroke-width="0" stroke-dasharray="0" stroke="rgba(255, 255, 255, 0)" fill="none" class="stroke" mask="url(#Clip1746)" />
    <path d="M 50 31.25  C 50 30.55937499999999  49.44062500000001 30  48.75 30  L 10 30  L 10 1.25  C 10 0.5593749999999886  9.440625000000011 0  8.75 0  L 1.25 0  C 0.5593749999999886 0  0 0.5593749999999886  0 1.25  L 0 3.75  C 0 4.440625000000011  0.5593749999999886 5  1.25 5  L 5 5  L 5 33.75  C 5 34.44062500000001  5.559374999999989 35  6.25 35  L 12.729687500000011 35  C 12.589843749999998 35.39296875000002  12.5 35.80937499999999  12.5 36.25  C 12.5 38.32109374999999  14.178906250000011 40  16.25 40  C 18.32109374999999 40  20 38.32109374999999  20 36.25  C 20 35.80937499999999  19.91015625 35.39296875000002  19.77031249999999 35  L 35.22968750000001 35  C 35.08984375 35.39296875000002  35 35.80937499999999  35 36.25  C 35 38.32109374999999  36.67890625000001 40  38.75 40  C 40.82109374999999 40  42.5 38.32109374999999  42.5 36.25  C 42.5 35.80937499999999  42.41015625 35.39296875000002  42.27031249999999 35  L 48.75 35  C 49.44062500000001 35  50 34.44062500000001  50 33.75  L 50 31.25  Z " stroke-width="0" stroke-dasharray="0" stroke="rgba(255, 255, 255, 0)" fill="none" class="stroke" mask="url(#Clip1746)" />
    <path d="M 37 25  L 37 7.5  L 37.5 3.75  C 37.5 1.6789062500000114  35.82109374999999 0  33.75 0  L 26.25 0  C 24.17890625000001 0  22.5 1.6789062500000114  23 3.75  L 23 25  L 37 25  Z " stroke-width="0" stroke-dasharray="0" stroke="rgba(255, 255, 255, 0)" fill="none" class="stroke" mask="url(#Clip1746)" />
    <path d="M 33.75 3.75  L 33.75 7.5  L 26.25 7.5  L 26.25 3.75  L 33.75 3.75  Z " stroke-width="0" stroke-dasharray="0" stroke="rgba(255, 255, 255, 0)" fill="none" class="stroke" mask="url(#Clip1746)" />
  </g>
</svg>