<?xml version="1.0" encoding="utf-8"?>
<svg version="1.1" xmlns:xlink="http://www.w3.org/1999/xlink" width="52px" height="38px" xmlns="http://www.w3.org/2000/svg">
  <defs>
    <pattern id="BGPattern" patternUnits="userSpaceOnUse" alignment="0 0" imageRepeat="None" />
    <mask fill="white" id="Clip2545">
      <path d="M 51.31875000000001 37.80625  C 51.63750000000001 37.85  51.91250000000001 37.574999999999996  51.86875 37.25  L 50.36875 24.799999999999997  C 50.31875 24.387499999999996  49.8125 24.2125  49.51875 24.506249999999994  L 45.8125 28.21875  L 28.856250000000003 11.26875  C 28.462500000000006 10.881250000000001  27.831250000000008 10.881250000000001  27.443749999999998 11.26875  L 21.08125 17.625  L 3.7874999999999996 0.3312500000000007  C 3.5919136479533513 0.1375830704520844  3.2768363520466472 0.1375830704520844  3.081249999999999 0.3312500000000007  L 0.26874999999999893 3.15625  C 0.07508307045207996 3.35183635204665  0.07508307045207996 3.666913647953354  0.26874999999999893 3.8625000000000007  L 20.375 23.981250000000003  C 20.7625 24.375  21.4 24.375  21.7875 23.981250000000003  L 28.15 17.625  L 42.28125 31.75  L 38.575 35.45624999999999  C 38.48164901584862 35.550063307432815  38.42924367014312 35.677024291048106  38.42924367014312 35.80936983458289  C 38.42924367014312 36.06222155110138  38.61778969492193 36.27538066535427  38.868750000000006 36.30625  L 51.31875000000001 37.80625  Z " fill-rule="evenodd" />
    </mask>
  </defs>
  <g>
    <path d="M 51.31875000000001 37.80625  C 51.63750000000001 37.85  51.91250000000001 37.574999999999996  51.86875 37.25  L 50.36875 24.799999999999997  C 50.31875 24.387499999999996  49.8125 24.2125  49.51875 24.506249999999994  L 45.8125 28.21875  L 28.856250000000003 11.26875  C 28.462500000000006 10.881250000000001  27.831250000000008 10.881250000000001  27.443749999999998 11.26875  L 21.08125 17.625  L 3.7874999999999996 0.3312500000000007  C 3.5919136479533513 0.1375830704520844  3.2768363520466472 0.1375830704520844  3.081249999999999 0.3312500000000007  L 0.26874999999999893 3.15625  C 0.07508307045207996 3.35183635204665  0.07508307045207996 3.666913647953354  0.26874999999999893 3.8625000000000007  L 20.375 23.981250000000003  C 20.7625 24.375  21.4 24.375  21.7875 23.981250000000003  L 28.15 17.625  L 42.28125 31.75  L 38.575 35.45624999999999  C 38.48164901584862 35.550063307432815  38.42924367014312 35.677024291048106  38.42924367014312 35.80936983458289  C 38.42924367014312 36.06222155110138  38.61778969492193 36.27538066535427  38.868750000000006 36.30625  L 51.31875000000001 37.80625  Z " fill-rule="nonzero" fill="rgba(0, 0, 0, 1)" stroke="none" class="fill" />
    <path d="M 51.31875000000001 37.80625  C 51.63750000000001 37.85  51.91250000000001 37.574999999999996  51.86875 37.25  L 50.36875 24.799999999999997  C 50.31875 24.387499999999996  49.8125 24.2125  49.51875 24.506249999999994  L 45.8125 28.21875  L 28.856250000000003 11.26875  C 28.462500000000006 10.881250000000001  27.831250000000008 10.881250000000001  27.443749999999998 11.26875  L 21.08125 17.625  L 3.7874999999999996 0.3312500000000007  C 3.5919136479533513 0.1375830704520844  3.2768363520466472 0.1375830704520844  3.081249999999999 0.3312500000000007  L 0.26874999999999893 3.15625  C 0.07508307045207996 3.35183635204665  0.07508307045207996 3.666913647953354  0.26874999999999893 3.8625000000000007  L 20.375 23.981250000000003  C 20.7625 24.375  21.4 24.375  21.7875 23.981250000000003  L 28.15 17.625  L 42.28125 31.75  L 38.575 35.45624999999999  C 38.48164901584862 35.550063307432815  38.42924367014312 35.677024291048106  38.42924367014312 35.80936983458289  C 38.42924367014312 36.06222155110138  38.61778969492193 36.27538066535427  38.868750000000006 36.30625  L 51.31875000000001 37.80625  Z " stroke-width="0" stroke-dasharray="0" stroke="rgba(255, 255, 255, 0)" fill="none" class="stroke" mask="url(#Clip2545)" />
  </g>
</svg>