<?xml version="1.0" encoding="utf-8"?>
<svg version="1.1" xmlns:xlink="http://www.w3.org/1999/xlink" width="50px" height="50px" xmlns="http://www.w3.org/2000/svg">
  <defs>
    <pattern id="BGPattern" patternUnits="userSpaceOnUse" alignment="0 0" imageRepeat="None" />
    <mask fill="white" id="Clip1282">
      <path d="M 16.88508064516128 13.457661290322589  C 19.6875 9.84879032258064  21.25 5.272177419354847  21.40120967741936 0.2318548387096797  C 16.985887096774206 0.8669354838709752  12.711693548387103 2.6612903225806406  9.08266129032259 5.655241935483872  L 16.88508064516128 13.457661290322589  Z M 20.33266129032259 16.905241935483872  L 25 21.57258064516128  L 40.91733870967741 5.655241935483872  C 36.643145161290334 2.1270161290322562  31.481854838709666 0.2620967741935516  26.25 0  C 26.129032258064512 6.4415322580645125  24.08266129032259 12.32862903225805  20.33266129032259 16.905241935483872  Z M 13.457661290322589 16.88508064516128  L 5.655241935483872 9.08266129032259  C 2.6612903225806406 12.711693548387103  0.8669354838709752 16.985887096774206  0.23185483870966553 21.40120967741936  C 5.272177419354847 21.25  9.85887096774195 19.6875  13.457661290322589 16.88508064516128  Z M 28.42741935483872 25  L 33.09475806451613 29.66733870967741  C 37.66129032258064 25.927419354838722  43.548387096774206 23.88104838709677  50 23.75  C 49.73790322580646 18.518145161290306  47.872983870967744 13.356854838709664  44.34475806451613 9.082661290322562  L 28.42741935483872 25  Z M 29.66733870967741 33.09475806451613  L 25 28.42741935483872  L 9.08266129032259 44.34475806451613  C 13.356854838709664 47.86290322580646  18.518145161290334 49.73790322580646  23.75 50  C 23.88104838709677 43.548387096774206  25.927419354838722 37.66129032258064  29.66733870967741 33.09475806451613  Z M 36.54233870967741 33.11491935483872  L 44.34475806451613 40.91733870967741  C 47.33870967741936 37.2883064516129  49.133064516129025 33.014112903225794  49.768145161290306 28.59879032258064  C 44.71774193548387 28.760080645161278  40.14112903225805 30.322580645161278  36.54233870967741 33.11491935483872  Z M 21.57258064516128 25  L 16.905241935483872 20.33266129032259  C 12.32862903225805 24.08266129032259  6.4415322580645125 26.139112903225794  0 26.25  C 0.2620967741935374 31.481854838709666  2.1270161290322562 36.643145161290334  5.655241935483872 40.91733870967741  L 21.57258064516128 25  Z M 33.11491935483872 36.54233870967741  C 30.322580645161278 40.14112903225805  28.760080645161278 44.72782258064515  28.59879032258064 49.768145161290306  C 33.014112903225794 49.133064516129025  37.2883064516129 47.33870967741936  40.91733870967741 44.34475806451613  L 33.11491935483872 36.54233870967741  Z " fill-rule="evenodd" />
    </mask>
  </defs>
  <g>
    <path d="M 16.88508064516128 13.457661290322589  C 19.6875 9.84879032258064  21.25 5.272177419354847  21.40120967741936 0.2318548387096797  C 16.985887096774206 0.8669354838709752  12.711693548387103 2.6612903225806406  9.08266129032259 5.655241935483872  L 16.88508064516128 13.457661290322589  Z M 20.33266129032259 16.905241935483872  L 25 21.57258064516128  L 40.91733870967741 5.655241935483872  C 36.643145161290334 2.1270161290322562  31.481854838709666 0.2620967741935516  26.25 0  C 26.129032258064512 6.4415322580645125  24.08266129032259 12.32862903225805  20.33266129032259 16.905241935483872  Z M 13.457661290322589 16.88508064516128  L 5.655241935483872 9.08266129032259  C 2.6612903225806406 12.711693548387103  0.8669354838709752 16.985887096774206  0.23185483870966553 21.40120967741936  C 5.272177419354847 21.25  9.85887096774195 19.6875  13.457661290322589 16.88508064516128  Z M 28.42741935483872 25  L 33.09475806451613 29.66733870967741  C 37.66129032258064 25.927419354838722  43.548387096774206 23.88104838709677  50 23.75  C 49.73790322580646 18.518145161290306  47.872983870967744 13.356854838709664  44.34475806451613 9.082661290322562  L 28.42741935483872 25  Z M 29.66733870967741 33.09475806451613  L 25 28.42741935483872  L 9.08266129032259 44.34475806451613  C 13.356854838709664 47.86290322580646  18.518145161290334 49.73790322580646  23.75 50  C 23.88104838709677 43.548387096774206  25.927419354838722 37.66129032258064  29.66733870967741 33.09475806451613  Z M 36.54233870967741 33.11491935483872  L 44.34475806451613 40.91733870967741  C 47.33870967741936 37.2883064516129  49.133064516129025 33.014112903225794  49.768145161290306 28.59879032258064  C 44.71774193548387 28.760080645161278  40.14112903225805 30.322580645161278  36.54233870967741 33.11491935483872  Z M 21.57258064516128 25  L 16.905241935483872 20.33266129032259  C 12.32862903225805 24.08266129032259  6.4415322580645125 26.139112903225794  0 26.25  C 0.2620967741935374 31.481854838709666  2.1270161290322562 36.643145161290334  5.655241935483872 40.91733870967741  L 21.57258064516128 25  Z M 33.11491935483872 36.54233870967741  C 30.322580645161278 40.14112903225805  28.760080645161278 44.72782258064515  28.59879032258064 49.768145161290306  C 33.014112903225794 49.133064516129025  37.2883064516129 47.33870967741936  40.91733870967741 44.34475806451613  L 33.11491935483872 36.54233870967741  Z " fill-rule="nonzero" fill="rgba(0, 0, 0, 1)" stroke="none" class="fill" />
    <path d="M 16.88508064516128 13.457661290322589  C 19.6875 9.84879032258064  21.25 5.272177419354847  21.40120967741936 0.2318548387096797  C 16.985887096774206 0.8669354838709752  12.711693548387103 2.6612903225806406  9.08266129032259 5.655241935483872  L 16.88508064516128 13.457661290322589  Z " stroke-width="0" stroke-dasharray="0" stroke="rgba(255, 255, 255, 0)" fill="none" class="stroke" mask="url(#Clip1282)" />
    <path d="M 20.33266129032259 16.905241935483872  L 25 21.57258064516128  L 40.91733870967741 5.655241935483872  C 36.643145161290334 2.1270161290322562  31.481854838709666 0.2620967741935516  26.25 0  C 26.129032258064512 6.4415322580645125  24.08266129032259 12.32862903225805  20.33266129032259 16.905241935483872  Z " stroke-width="0" stroke-dasharray="0" stroke="rgba(255, 255, 255, 0)" fill="none" class="stroke" mask="url(#Clip1282)" />
    <path d="M 13.457661290322589 16.88508064516128  L 5.655241935483872 9.08266129032259  C 2.6612903225806406 12.711693548387103  0.8669354838709752 16.985887096774206  0.23185483870966553 21.40120967741936  C 5.272177419354847 21.25  9.85887096774195 19.6875  13.457661290322589 16.88508064516128  Z " stroke-width="0" stroke-dasharray="0" stroke="rgba(255, 255, 255, 0)" fill="none" class="stroke" mask="url(#Clip1282)" />
    <path d="M 28.42741935483872 25  L 33.09475806451613 29.66733870967741  C 37.66129032258064 25.927419354838722  43.548387096774206 23.88104838709677  50 23.75  C 49.73790322580646 18.518145161290306  47.872983870967744 13.356854838709664  44.34475806451613 9.082661290322562  L 28.42741935483872 25  Z " stroke-width="0" stroke-dasharray="0" stroke="rgba(255, 255, 255, 0)" fill="none" class="stroke" mask="url(#Clip1282)" />
    <path d="M 29.66733870967741 33.09475806451613  L 25 28.42741935483872  L 9.08266129032259 44.34475806451613  C 13.356854838709664 47.86290322580646  18.518145161290334 49.73790322580646  23.75 50  C 23.88104838709677 43.548387096774206  25.927419354838722 37.66129032258064  29.66733870967741 33.09475806451613  Z " stroke-width="0" stroke-dasharray="0" stroke="rgba(255, 255, 255, 0)" fill="none" class="stroke" mask="url(#Clip1282)" />
    <path d="M 36.54233870967741 33.11491935483872  L 44.34475806451613 40.91733870967741  C 47.33870967741936 37.2883064516129  49.133064516129025 33.014112903225794  49.768145161290306 28.59879032258064  C 44.71774193548387 28.760080645161278  40.14112903225805 30.322580645161278  36.54233870967741 33.11491935483872  Z " stroke-width="0" stroke-dasharray="0" stroke="rgba(255, 255, 255, 0)" fill="none" class="stroke" mask="url(#Clip1282)" />
    <path d="M 21.57258064516128 25  L 16.905241935483872 20.33266129032259  C 12.32862903225805 24.08266129032259  6.4415322580645125 26.139112903225794  0 26.25  C 0.2620967741935374 31.481854838709666  2.1270161290322562 36.643145161290334  5.655241935483872 40.91733870967741  L 21.57258064516128 25  Z " stroke-width="0" stroke-dasharray="0" stroke="rgba(255, 255, 255, 0)" fill="none" class="stroke" mask="url(#Clip1282)" />
    <path d="M 33.11491935483872 36.54233870967741  C 30.322580645161278 40.14112903225805  28.760080645161278 44.72782258064515  28.59879032258064 49.768145161290306  C 33.014112903225794 49.133064516129025  37.2883064516129 47.33870967741936  40.91733870967741 44.34475806451613  L 33.11491935483872 36.54233870967741  Z " stroke-width="0" stroke-dasharray="0" stroke="rgba(255, 255, 255, 0)" fill="none" class="stroke" mask="url(#Clip1282)" />
  </g>
</svg>