<?xml version="1.0" encoding="utf-8"?>
<svg version="1.1" xmlns:xlink="http://www.w3.org/1999/xlink" width="24px" height="20px" xmlns="http://www.w3.org/2000/svg">
  <defs>
    <pattern id="BGPattern" patternUnits="userSpaceOnUse" alignment="0 0" imageRepeat="None" />
    <mask fill="white" id="Clip5655">
      <path d="M 20.715 5  L 14.741999999999999 5  L 3.2849126478188957 5  C 2.4564855230727054 4.999999997456532  1.7849126478188955 5.6715728727103425  1.7849126478188955 6.499999997456532  C 1.7849126478188955 6.545068597023213  1.7869438259625783 6.5901142993918995  1.791 6.635  L 2.7465 17.134999999999998  C 2.8163012040928983 17.907425331068193  3.4634275877598446 18.499269561356556  4.239 18.5  L 13.5 18.5  L 13.5 20  L 4.239 20  C 2.6878052261042424 19.999385009233965  1.3928830161600358 18.81632950954109  1.2525 17.271500000000003  L 0.297 6.771500000000003  C 0.23307934648407325 6.076673738521377  0.4145910336375861 5.381409673693593  0.81 4.8065000000000015  L 0.75 3.5  C 0.75 1.8431457505076194  2.0931457505076194 0.5  3.75 0.5  L 9.258000000000001 0.5  C 10.053584440436444 0.5001699122164853  10.816521805927625 0.8163518755671446  11.379000000000001 1.3789999999999996  L 12.620999999999999 2.6209999999999996  C 13.183478194072373 3.183648124432854  13.946415559563556 3.499830087783515  14.741999999999999 3.5  L 20.715310635078126 3.4999999839176414  C 22.372164884570505 3.4999999839176414  23.715310635078126 4.843145734425262  23.715310635078126 6.499999983917641  C 23.715310635078126 6.590639491889437  23.711202875957348 6.681232435330306  23.703 6.7715  L 23.319 11  L 21.81 11  L 22.2075 6.635  C 22.21155621391445 6.5901140802149225  22.213587412057485 6.545068156308078  22.213587412057485 6.499999334864954  C 22.213587412057485 5.672123806325246  21.542875161440357 5.000779631326344  20.715 5  Z M 11.3805 3.5  L 10.316999999999998 2.4395000000000002  L 10.3185 2.4395000000000002  C 10.037260902963812 2.1581759377835725  9.655792220218224 2.0000849561082426  9.258000000000001 2  L 3.75 2  C 2.9331485797545183 1.999836613699256  2.2663370123914826 2.6533119497150306  2.25 3.4699999999999998  L 2.2589999999999995 3.6799999999999997  C 2.58 3.5629999999999997  2.925 3.5  3.285 3.5  L 11.3805 3.5  Z " fill-rule="evenodd" />
    </mask>
  </defs>
  <g>
    <path d="M 20.715 5  L 14.741999999999999 5  L 3.2849126478188957 5  C 2.4564855230727054 4.999999997456532  1.7849126478188955 5.6715728727103425  1.7849126478188955 6.499999997456532  C 1.7849126478188955 6.545068597023213  1.7869438259625783 6.5901142993918995  1.791 6.635  L 2.7465 17.134999999999998  C 2.8163012040928983 17.907425331068193  3.4634275877598446 18.499269561356556  4.239 18.5  L 13.5 18.5  L 13.5 20  L 4.239 20  C 2.6878052261042424 19.999385009233965  1.3928830161600358 18.81632950954109  1.2525 17.271500000000003  L 0.297 6.771500000000003  C 0.23307934648407325 6.076673738521377  0.4145910336375861 5.381409673693593  0.81 4.8065000000000015  L 0.75 3.5  C 0.75 1.8431457505076194  2.0931457505076194 0.5  3.75 0.5  L 9.258000000000001 0.5  C 10.053584440436444 0.5001699122164853  10.816521805927625 0.8163518755671446  11.379000000000001 1.3789999999999996  L 12.620999999999999 2.6209999999999996  C 13.183478194072373 3.183648124432854  13.946415559563556 3.499830087783515  14.741999999999999 3.5  L 20.715310635078126 3.4999999839176414  C 22.372164884570505 3.4999999839176414  23.715310635078126 4.843145734425262  23.715310635078126 6.499999983917641  C 23.715310635078126 6.590639491889437  23.711202875957348 6.681232435330306  23.703 6.7715  L 23.319 11  L 21.81 11  L 22.2075 6.635  C 22.21155621391445 6.5901140802149225  22.213587412057485 6.545068156308078  22.213587412057485 6.499999334864954  C 22.213587412057485 5.672123806325246  21.542875161440357 5.000779631326344  20.715 5  Z M 11.3805 3.5  L 10.316999999999998 2.4395000000000002  L 10.3185 2.4395000000000002  C 10.037260902963812 2.1581759377835725  9.655792220218224 2.0000849561082426  9.258000000000001 2  L 3.75 2  C 2.9331485797545183 1.999836613699256  2.2663370123914826 2.6533119497150306  2.25 3.4699999999999998  L 2.2589999999999995 3.6799999999999997  C 2.58 3.5629999999999997  2.925 3.5  3.285 3.5  L 11.3805 3.5  Z " fill-rule="nonzero" fill="rgba(0, 0, 0, 1)" stroke="none" class="fill" />
    <path d="M 20.715 5  L 14.741999999999999 5  L 3.2849126478188957 5  C 2.4564855230727054 4.999999997456532  1.7849126478188955 5.6715728727103425  1.7849126478188955 6.499999997456532  C 1.7849126478188955 6.545068597023213  1.7869438259625783 6.5901142993918995  1.791 6.635  L 2.7465 17.134999999999998  C 2.8163012040928983 17.907425331068193  3.4634275877598446 18.499269561356556  4.239 18.5  L 13.5 18.5  L 13.5 20  L 4.239 20  C 2.6878052261042424 19.999385009233965  1.3928830161600358 18.81632950954109  1.2525 17.271500000000003  L 0.297 6.771500000000003  C 0.23307934648407325 6.076673738521377  0.4145910336375861 5.381409673693593  0.81 4.8065000000000015  L 0.75 3.5  C 0.75 1.8431457505076194  2.0931457505076194 0.5  3.75 0.5  L 9.258000000000001 0.5  C 10.053584440436444 0.5001699122164853  10.816521805927625 0.8163518755671446  11.379000000000001 1.3789999999999996  L 12.620999999999999 2.6209999999999996  C 13.183478194072373 3.183648124432854  13.946415559563556 3.499830087783515  14.741999999999999 3.5  L 20.715310635078126 3.4999999839176414  C 22.372164884570505 3.4999999839176414  23.715310635078126 4.843145734425262  23.715310635078126 6.499999983917641  C 23.715310635078126 6.590639491889437  23.711202875957348 6.681232435330306  23.703 6.7715  L 23.319 11  L 21.81 11  L 22.2075 6.635  C 22.21155621391445 6.5901140802149225  22.213587412057485 6.545068156308078  22.213587412057485 6.499999334864954  C 22.213587412057485 5.672123806325246  21.542875161440357 5.000779631326344  20.715 5  Z " stroke-width="0" stroke-dasharray="0" stroke="rgba(255, 255, 255, 0)" fill="none" class="stroke" mask="url(#Clip5655)" />
    <path d="M 11.3805 3.5  L 10.316999999999998 2.4395000000000002  L 10.3185 2.4395000000000002  C 10.037260902963812 2.1581759377835725  9.655792220218224 2.0000849561082426  9.258000000000001 2  L 3.75 2  C 2.9331485797545183 1.999836613699256  2.2663370123914826 2.6533119497150306  2.25 3.4699999999999998  L 2.2589999999999995 3.6799999999999997  C 2.58 3.5629999999999997  2.925 3.5  3.285 3.5  L 11.3805 3.5  Z " stroke-width="0" stroke-dasharray="0" stroke="rgba(255, 255, 255, 0)" fill="none" class="stroke" mask="url(#Clip5655)" />
  </g>
</svg>