<?xml version="1.0" encoding="utf-8"?>
<svg version="1.1" xmlns:xlink="http://www.w3.org/1999/xlink" width="11px" height="10px" xmlns="http://www.w3.org/2000/svg">
  <defs>
    <pattern id="BGPattern" patternUnits="userSpaceOnUse" alignment="0 0" imageRepeat="None" />
    <mask fill="white" id="Clip4348">
      <path d="M 8.049999999999997 8  L 8.850000000000001 10  L 11 10  L 6.64 0  L 4.359999999999999 0  L 0 10  L 2.1499999999999986 10  L 2.9499999999999993 8  L 8.049999999999997 8  Z M 7.25 6  L 3.7499999999999996 6  L 5.5 1.629999999999999  L 7.25 6  Z " fill-rule="evenodd" />
    </mask>
  </defs>
  <g transform="matrix(1 0 0 1 -17 -17 )">
    <path d="M 8.049999999999997 8  L 8.850000000000001 10  L 11 10  L 6.64 0  L 4.359999999999999 0  L 0 10  L 2.1499999999999986 10  L 2.9499999999999993 8  L 8.049999999999997 8  Z M 7.25 6  L 3.7499999999999996 6  L 5.5 1.629999999999999  L 7.25 6  Z " fill-rule="nonzero" fill="rgba(0, 0, 0, 1)" stroke="none" transform="matrix(1 0 0 1 17 17 )" class="fill" />
    <path d="M 8.049999999999997 8  L 8.850000000000001 10  L 11 10  L 6.64 0  L 4.359999999999999 0  L 0 10  L 2.1499999999999986 10  L 2.9499999999999993 8  L 8.049999999999997 8  Z " stroke-width="0" stroke-dasharray="0" stroke="rgba(255, 255, 255, 0)" fill="none" transform="matrix(1 0 0 1 17 17 )" class="stroke" mask="url(#Clip4348)" />
    <path d="M 7.25 6  L 3.7499999999999996 6  L 5.5 1.629999999999999  L 7.25 6  Z " stroke-width="0" stroke-dasharray="0" stroke="rgba(255, 255, 255, 0)" fill="none" transform="matrix(1 0 0 1 17 17 )" class="stroke" mask="url(#Clip4348)" />
  </g>
</svg>