<?xml version="1.0" encoding="utf-8"?>
<svg version="1.1" xmlns:xlink="http://www.w3.org/1999/xlink" width="50px" height="50px" xmlns="http://www.w3.org/2000/svg">
  <defs>
    <pattern id="BGPattern" patternUnits="userSpaceOnUse" alignment="0 0" imageRepeat="None" />
    <mask fill="white" id="Clip2735">
      <path d="M 50 14.15625  C 50 13.093750000000002  49.58125 12.08125  48.83125 11.33125  L 38.66875 1.1687499999999993  C 38.2 0.6999999999999993  37.625 0.3562499999999993  37 0.1687499999999993  L 37 0  L 2 0  C 0.8937499999999997 0  0 0.8937499999999997  0 2  L 0 48  C 0 49.10625  0.8937499999999997 50  2 50  L 48 50  C 49.10625 50  50 49.10625  50 48  L 50 14.15625  Z M 17 11  L 17 5  L 33 5  L 33 11  L 17 11  Z M 45 14.3625  L 45 45  L 5 45  L 5 4.5  L 13 4.5  L 13 13  C 13 14.106249999999998  13.893750000000002 15  15 15  L 35 15  C 36.10625 15  37 14.106249999999998  37 13  L 37 5.862500000000001  L 45 14.3625  Z M 34 29.625  C 34 24.65625  29.96875 20.625  25 20.625  C 20.03125 20.625  16 24.65625  16 29.625  C 16 34.59375  20.03125 38.625  25 38.625  C 29.96875 38.625  34 34.59375  34 29.625  Z M 30 29.625  C 30 32.3875  27.762500000000003 34.625  25 34.625  C 22.2375 34.625  20 32.3875  20 29.625  C 20 26.862499999999994  22.2375 24.625  25 24.625  C 27.762500000000003 24.625  30 26.862499999999994  30 29.625  Z " fill-rule="evenodd" />
    </mask>
  </defs>
  <g>
    <path d="M 50 14.15625  C 50 13.093750000000002  49.58125 12.08125  48.83125 11.33125  L 38.66875 1.1687499999999993  C 38.2 0.6999999999999993  37.625 0.3562499999999993  37 0.1687499999999993  L 37 0  L 2 0  C 0.8937499999999997 0  0 0.8937499999999997  0 2  L 0 48  C 0 49.10625  0.8937499999999997 50  2 50  L 48 50  C 49.10625 50  50 49.10625  50 48  L 50 14.15625  Z M 17 11  L 17 5  L 33 5  L 33 11  L 17 11  Z M 45 14.3625  L 45 45  L 5 45  L 5 4.5  L 13 4.5  L 13 13  C 13 14.106249999999998  13.893750000000002 15  15 15  L 35 15  C 36.10625 15  37 14.106249999999998  37 13  L 37 5.862500000000001  L 45 14.3625  Z M 34 29.625  C 34 24.65625  29.96875 20.625  25 20.625  C 20.03125 20.625  16 24.65625  16 29.625  C 16 34.59375  20.03125 38.625  25 38.625  C 29.96875 38.625  34 34.59375  34 29.625  Z M 30 29.625  C 30 32.3875  27.762500000000003 34.625  25 34.625  C 22.2375 34.625  20 32.3875  20 29.625  C 20 26.862499999999994  22.2375 24.625  25 24.625  C 27.762500000000003 24.625  30 26.862499999999994  30 29.625  Z " fill-rule="nonzero" fill="rgba(0, 0, 0, 1)" stroke="none" class="fill" />
    <path d="M 50 14.15625  C 50 13.093750000000002  49.58125 12.08125  48.83125 11.33125  L 38.66875 1.1687499999999993  C 38.2 0.6999999999999993  37.625 0.3562499999999993  37 0.1687499999999993  L 37 0  L 2 0  C 0.8937499999999997 0  0 0.8937499999999997  0 2  L 0 48  C 0 49.10625  0.8937499999999997 50  2 50  L 48 50  C 49.10625 50  50 49.10625  50 48  L 50 14.15625  Z " stroke-width="0" stroke-dasharray="0" stroke="rgba(255, 255, 255, 0)" fill="none" class="stroke" mask="url(#Clip2735)" />
    <path d="M 17 11  L 17 5  L 33 5  L 33 11  L 17 11  Z " stroke-width="0" stroke-dasharray="0" stroke="rgba(255, 255, 255, 0)" fill="none" class="stroke" mask="url(#Clip2735)" />
    <path d="M 45 14.3625  L 45 45  L 5 45  L 5 4.5  L 13 4.5  L 13 13  C 13 14.106249999999998  13.893750000000002 15  15 15  L 35 15  C 36.10625 15  37 14.106249999999998  37 13  L 37 5.862500000000001  L 45 14.3625  Z " stroke-width="0" stroke-dasharray="0" stroke="rgba(255, 255, 255, 0)" fill="none" class="stroke" mask="url(#Clip2735)" />
    <path d="M 34 29.625  C 34 24.65625  29.96875 20.625  25 20.625  C 20.03125 20.625  16 24.65625  16 29.625  C 16 34.59375  20.03125 38.625  25 38.625  C 29.96875 38.625  34 34.59375  34 29.625  Z " stroke-width="0" stroke-dasharray="0" stroke="rgba(255, 255, 255, 0)" fill="none" class="stroke" mask="url(#Clip2735)" />
    <path d="M 30 29.625  C 30 32.3875  27.762500000000003 34.625  25 34.625  C 22.2375 34.625  20 32.3875  20 29.625  C 20 26.862499999999994  22.2375 24.625  25 24.625  C 27.762500000000003 24.625  30 26.862499999999994  30 29.625  Z " stroke-width="0" stroke-dasharray="0" stroke="rgba(255, 255, 255, 0)" fill="none" class="stroke" mask="url(#Clip2735)" />
  </g>
</svg>