<?xml version="1.0" encoding="utf-8"?>
<svg version="1.1" xmlns:xlink="http://www.w3.org/1999/xlink" width="24px" height="24px" xmlns="http://www.w3.org/2000/svg">
  <defs>
    <pattern id="BGPattern" patternUnits="userSpaceOnUse" alignment="0 0" imageRepeat="None" />
    <mask fill="white" id="Clip5889">
      <path d="M 22.5 22.5  L 22.5 18  L 16.5 18  L 16.5 22.5  L 22.5 22.5  Z M 7.5 22.5  L 7.5 18  L 1.5 18  L 1.5 22.5  L 7.5 22.5  Z M 0 24  L 0 12  C 0 5.372583002030479  5.372583002030479 0  12 0  C 18.627416997969522 0  24 5.372583002030479  24 12  L 24 24  L 15 24  L 15 12  C 15 10.34314575050762  13.65685424949238 9  12 9  C 10.34314575050762 9  9 10.34314575050762  9 12  L 9 24  L 0 24  Z " fill-rule="evenodd" />
    </mask>
  </defs>
  <g>
    <path d="M 22.5 22.5  L 22.5 18  L 16.5 18  L 16.5 22.5  L 22.5 22.5  Z M 7.5 22.5  L 7.5 18  L 1.5 18  L 1.5 22.5  L 7.5 22.5  Z M 0 24  L 0 12  C 0 5.372583002030479  5.372583002030479 0  12 0  C 18.627416997969522 0  24 5.372583002030479  24 12  L 24 24  L 15 24  L 15 12  C 15 10.34314575050762  13.65685424949238 9  12 9  C 10.34314575050762 9  9 10.34314575050762  9 12  L 9 24  L 0 24  Z " fill-rule="nonzero" fill="rgba(0, 0, 0, 1)" stroke="none" class="fill" />
    <path d="M 22.5 22.5  L 22.5 18  L 16.5 18  L 16.5 22.5  L 22.5 22.5  Z " stroke-width="0" stroke-dasharray="0" stroke="rgba(255, 255, 255, 0)" fill="none" class="stroke" mask="url(#Clip5889)" />
    <path d="M 7.5 22.5  L 7.5 18  L 1.5 18  L 1.5 22.5  L 7.5 22.5  Z " stroke-width="0" stroke-dasharray="0" stroke="rgba(255, 255, 255, 0)" fill="none" class="stroke" mask="url(#Clip5889)" />
    <path d="M 0 24  L 0 12  C 0 5.372583002030479  5.372583002030479 0  12 0  C 18.627416997969522 0  24 5.372583002030479  24 12  L 24 24  L 15 24  L 15 12  C 15 10.34314575050762  13.65685424949238 9  12 9  C 10.34314575050762 9  9 10.34314575050762  9 12  L 9 24  L 0 24  Z " stroke-width="0" stroke-dasharray="0" stroke="rgba(255, 255, 255, 0)" fill="none" class="stroke" mask="url(#Clip5889)" />
  </g>
</svg>