<?xml version="1.0" encoding="utf-8"?>
<svg version="1.1" xmlns:xlink="http://www.w3.org/1999/xlink" width="24px" height="14px" xmlns="http://www.w3.org/2000/svg">
  <defs>
    <pattern id="BGPattern" patternUnits="userSpaceOnUse" alignment="0 0" imageRepeat="None" />
    <mask fill="white" id="Clip6549">
      <path d="M 0 7.500000000000003  L 0 3  C 0 1.3431457505076203  1.3431457505076196 0  3 0  L 21 0  C 22.65685424949238 0  24 1.3431457505076203  24 3  L 24 7.5  C 24 9.15685424949238  22.65685424949238 10.5  21 10.5  L 13.903500000000001 10.5  C 14.1195 10.743000000000002  14.3985 10.986  14.700000000000003 11.212500000000002  C 15.130257753925616 11.532910549188163  15.585175228327252 11.81880135449018  16.0605 12.067499999999999  L 16.0815 12.0765  L 16.086 12.079500000000003  C 16.33973617999165 12.206670914103803  16.49994978389288 12.466178771976999  16.49994978389288 12.750000001681105  C 16.49994978389288 13.164193953580487  16.164193950970976 13.49997226772286  15.75 13.5  L 8.25 13.5  C 7.835806049029026 13.49997226772286  7.500050216107116 13.164193953580483  7.500050216107116 12.750000001681105  C 7.500050216107116 12.466178771976999  7.6602638200083515 12.206670914103803  7.914 12.079500000000003  L 7.9185 12.0765  L 7.939500000000001 12.066000000000003  C 8.07599391576631 11.996608774520759  8.210072428624619 11.922565416673631  8.3415 11.844000000000001  C 8.672684318480304 11.651794136572967  8.992698415093562 11.440955428162667  9.3 11.212500000000002  C 9.600000000000001 10.9875  9.8805 10.743000000000002  10.096499999999999 10.500000000000004  L 3 10.500000000000004  C 1.3431457505076196 10.500000000000004  0 9.156854249492383  0 7.500000000000003  Z M 21 1.5  L 3 1.5  C 2.1715728752538097 1.5  1.5 2.17157287525381  1.5 3  L 1.5 7.5  C 1.5 8.32842712474619  2.1715728752538097 9  3 9  L 21 9  C 21.82842712474619 9  22.5 8.32842712474619  22.5 7.5  L 22.5 3  C 22.5 2.17157287525381  21.82842712474619 1.5  21 1.5  Z " fill-rule="evenodd" />
    </mask>
  </defs>
  <g>
    <path d="M 0 7.500000000000003  L 0 3  C 0 1.3431457505076203  1.3431457505076196 0  3 0  L 21 0  C 22.65685424949238 0  24 1.3431457505076203  24 3  L 24 7.5  C 24 9.15685424949238  22.65685424949238 10.5  21 10.5  L 13.903500000000001 10.5  C 14.1195 10.743000000000002  14.3985 10.986  14.700000000000003 11.212500000000002  C 15.130257753925616 11.532910549188163  15.585175228327252 11.81880135449018  16.0605 12.067499999999999  L 16.0815 12.0765  L 16.086 12.079500000000003  C 16.33973617999165 12.206670914103803  16.49994978389288 12.466178771976999  16.49994978389288 12.750000001681105  C 16.49994978389288 13.164193953580487  16.164193950970976 13.49997226772286  15.75 13.5  L 8.25 13.5  C 7.835806049029026 13.49997226772286  7.500050216107116 13.164193953580483  7.500050216107116 12.750000001681105  C 7.500050216107116 12.466178771976999  7.6602638200083515 12.206670914103803  7.914 12.079500000000003  L 7.9185 12.0765  L 7.939500000000001 12.066000000000003  C 8.07599391576631 11.996608774520759  8.210072428624619 11.922565416673631  8.3415 11.844000000000001  C 8.672684318480304 11.651794136572967  8.992698415093562 11.440955428162667  9.3 11.212500000000002  C 9.600000000000001 10.9875  9.8805 10.743000000000002  10.096499999999999 10.500000000000004  L 3 10.500000000000004  C 1.3431457505076196 10.500000000000004  0 9.156854249492383  0 7.500000000000003  Z M 21 1.5  L 3 1.5  C 2.1715728752538097 1.5  1.5 2.17157287525381  1.5 3  L 1.5 7.5  C 1.5 8.32842712474619  2.1715728752538097 9  3 9  L 21 9  C 21.82842712474619 9  22.5 8.32842712474619  22.5 7.5  L 22.5 3  C 22.5 2.17157287525381  21.82842712474619 1.5  21 1.5  Z " fill-rule="nonzero" fill="rgba(0, 0, 0, 1)" stroke="none" class="fill" />
    <path d="M 0 7.500000000000003  L 0 3  C 0 1.3431457505076203  1.3431457505076196 0  3 0  L 21 0  C 22.65685424949238 0  24 1.3431457505076203  24 3  L 24 7.5  C 24 9.15685424949238  22.65685424949238 10.5  21 10.5  L 13.903500000000001 10.5  C 14.1195 10.743000000000002  14.3985 10.986  14.700000000000003 11.212500000000002  C 15.130257753925616 11.532910549188163  15.585175228327252 11.81880135449018  16.0605 12.067499999999999  L 16.0815 12.0765  L 16.086 12.079500000000003  C 16.33973617999165 12.206670914103803  16.49994978389288 12.466178771976999  16.49994978389288 12.750000001681105  C 16.49994978389288 13.164193953580487  16.164193950970976 13.49997226772286  15.75 13.5  L 8.25 13.5  C 7.835806049029026 13.49997226772286  7.500050216107116 13.164193953580483  7.500050216107116 12.750000001681105  C 7.500050216107116 12.466178771976999  7.6602638200083515 12.206670914103803  7.914 12.079500000000003  L 7.9185 12.0765  L 7.939500000000001 12.066000000000003  C 8.07599391576631 11.996608774520759  8.210072428624619 11.922565416673631  8.3415 11.844000000000001  C 8.672684318480304 11.651794136572967  8.992698415093562 11.440955428162667  9.3 11.212500000000002  C 9.600000000000001 10.9875  9.8805 10.743000000000002  10.096499999999999 10.500000000000004  L 3 10.500000000000004  C 1.3431457505076196 10.500000000000004  0 9.156854249492383  0 7.500000000000003  Z " stroke-width="0" stroke-dasharray="0" stroke="rgba(255, 255, 255, 0)" fill="none" class="stroke" mask="url(#Clip6549)" />
    <path d="M 21 1.5  L 3 1.5  C 2.1715728752538097 1.5  1.5 2.17157287525381  1.5 3  L 1.5 7.5  C 1.5 8.32842712474619  2.1715728752538097 9  3 9  L 21 9  C 21.82842712474619 9  22.5 8.32842712474619  22.5 7.5  L 22.5 3  C 22.5 2.17157287525381  21.82842712474619 1.5  21 1.5  Z " stroke-width="0" stroke-dasharray="0" stroke="rgba(255, 255, 255, 0)" fill="none" class="stroke" mask="url(#Clip6549)" />
  </g>
</svg>