<?xml version="1.0" encoding="utf-8"?>
<svg version="1.1" xmlns:xlink="http://www.w3.org/1999/xlink" width="49px" height="44px" xmlns="http://www.w3.org/2000/svg">
  <defs>
    <pattern id="BGPattern" patternUnits="userSpaceOnUse" alignment="0 0" imageRepeat="None" />
    <mask fill="white" id="Clip7355">
      <path d="M 16.742000000000008 1.3600000000000034  L 16.63 1.4700000000000002  C 17.183999999999997 1.1380000000000003  17.738 0.8040000000000002  18.291999999999998 0.5840000000000001  C 18.514 1.138  18.845999999999997 1.6920000000000002  19.067999999999998 2.2439999999999998  C 17.848 2.9100000000000006  16.63 3.4639999999999995  15.523999999999997 4.2379999999999995  C -0.7740000000000009 14.134  1.7239999999999966 25.385999999999996  8.765999999999998 26.392  C 13.563999999999998 27.291999999999998  19.451999999999998 24.204  23.61 21.74  C 26.76 19.77  29.59 17.887999999999998  29.59 15.648  C 29.59 14.222000000000001  27.942 13.542  26.600000000000005 13.764000000000001  C 22.266000000000002 14.847999999999999  16.46 20.854  11.646 20.854  C 9.452000000000002 20.854  7.856000000000001 19.169999999999998  8.102 17.198  C 8.41 13.512  11.884 10.74  15.081999999999999 8.89  C 20.252000000000002 5.498000000000001  27.122 2.492000000000001  33.246 2.798000000000001  C 48.540000000000006 3.3260000000000005  57.7 22.427999999999997  31.252 39.132000000000005  C 28.25 41.028000000000006  23.412000000000003 43.112  22.392000000000003 43.452000000000005  C 21.948000000000004 41.458000000000006  21.284000000000002 39.464000000000006  20.840000000000003 37.470000000000006  C 25.682000000000006 35.190000000000005  27.130000000000003 34.90800000000001  32.472 30.824000000000005  C 36.958 27.234  41.272000000000006 22.990000000000002  41.998000000000005 17.198000000000008  C 42.108000000000004 15.870000000000008  42.108000000000004 14.650000000000004  41.776 13.322000000000008  C 39.974000000000004 7.142000000000008  31.636000000000003 0.7720000000000073  15.966000000000005 11.218000000000007  C 14.336000000000006 12.168000000000006  11.646000000000004 14.090000000000005  11.646000000000004 15.980000000000006  C 11.646000000000004 16.424000000000007  11.978000000000005 16.97800000000001  12.422000000000002 17.088000000000008  C 14.830000000000004 18.120000000000008  20.184000000000005 12.704000000000008  25.492 10.884000000000007  C 29.652000000000005 9.416000000000007  33.842000000000006 10.978000000000007  34.57600000000001 14.652000000000008  C 34.68600000000001 15.648000000000007  34.68600000000001 16.64400000000001  34.35600000000001 17.532000000000007  C 33.168000000000006 20.614000000000008  30.306000000000008 22.848000000000006  27.376000000000012 24.732000000000006  C 24.31600000000001 26.416000000000007  21.20200000000001 28.816000000000003  14.416000000000007 30.602000000000004  C 9.786000000000008 31.864000000000004  3.882000000000007 31.182000000000002  1.4560000000000066 27.058000000000003  C 0.4580000000000066 25.506000000000004  0.016000000000006676 23.624000000000002  0.016000000000006676 21.852000000000004  C 0.12600000000000666 19.746000000000002  0.5700000000000067 17.642000000000003  1.4560000000000066 15.758000000000003  C 3.0060000000000064 12.546000000000003  5.332000000000006 9.666000000000004  8.102000000000007 7.340000000000003  C 10.745436232927894 5.024865772780643  13.644145397710762 3.0185832721554604  16.742000000000008 1.3600000000000034  Z " fill-rule="evenodd" />
    </mask>
  </defs>
  <g>
    <path d="M 16.742000000000008 1.3600000000000034  L 16.63 1.4700000000000002  C 17.183999999999997 1.1380000000000003  17.738 0.8040000000000002  18.291999999999998 0.5840000000000001  C 18.514 1.138  18.845999999999997 1.6920000000000002  19.067999999999998 2.2439999999999998  C 17.848 2.9100000000000006  16.63 3.4639999999999995  15.523999999999997 4.2379999999999995  C -0.7740000000000009 14.134  1.7239999999999966 25.385999999999996  8.765999999999998 26.392  C 13.563999999999998 27.291999999999998  19.451999999999998 24.204  23.61 21.74  C 26.76 19.77  29.59 17.887999999999998  29.59 15.648  C 29.59 14.222000000000001  27.942 13.542  26.600000000000005 13.764000000000001  C 22.266000000000002 14.847999999999999  16.46 20.854  11.646 20.854  C 9.452000000000002 20.854  7.856000000000001 19.169999999999998  8.102 17.198  C 8.41 13.512  11.884 10.74  15.081999999999999 8.89  C 20.252000000000002 5.498000000000001  27.122 2.492000000000001  33.246 2.798000000000001  C 48.540000000000006 3.3260000000000005  57.7 22.427999999999997  31.252 39.132000000000005  C 28.25 41.028000000000006  23.412000000000003 43.112  22.392000000000003 43.452000000000005  C 21.948000000000004 41.458000000000006  21.284000000000002 39.464000000000006  20.840000000000003 37.470000000000006  C 25.682000000000006 35.190000000000005  27.130000000000003 34.90800000000001  32.472 30.824000000000005  C 36.958 27.234  41.272000000000006 22.990000000000002  41.998000000000005 17.198000000000008  C 42.108000000000004 15.870000000000008  42.108000000000004 14.650000000000004  41.776 13.322000000000008  C 39.974000000000004 7.142000000000008  31.636000000000003 0.7720000000000073  15.966000000000005 11.218000000000007  C 14.336000000000006 12.168000000000006  11.646000000000004 14.090000000000005  11.646000000000004 15.980000000000006  C 11.646000000000004 16.424000000000007  11.978000000000005 16.97800000000001  12.422000000000002 17.088000000000008  C 14.830000000000004 18.120000000000008  20.184000000000005 12.704000000000008  25.492 10.884000000000007  C 29.652000000000005 9.416000000000007  33.842000000000006 10.978000000000007  34.57600000000001 14.652000000000008  C 34.68600000000001 15.648000000000007  34.68600000000001 16.64400000000001  34.35600000000001 17.532000000000007  C 33.168000000000006 20.614000000000008  30.306000000000008 22.848000000000006  27.376000000000012 24.732000000000006  C 24.31600000000001 26.416000000000007  21.20200000000001 28.816000000000003  14.416000000000007 30.602000000000004  C 9.786000000000008 31.864000000000004  3.882000000000007 31.182000000000002  1.4560000000000066 27.058000000000003  C 0.4580000000000066 25.506000000000004  0.016000000000006676 23.624000000000002  0.016000000000006676 21.852000000000004  C 0.12600000000000666 19.746000000000002  0.5700000000000067 17.642000000000003  1.4560000000000066 15.758000000000003  C 3.0060000000000064 12.546000000000003  5.332000000000006 9.666000000000004  8.102000000000007 7.340000000000003  C 10.745436232927894 5.024865772780643  13.644145397710762 3.0185832721554604  16.742000000000008 1.3600000000000034  Z " fill-rule="nonzero" fill="rgba(114, 190, 79, 1)" stroke="none" class="fill" />
    <path d="M 16.742000000000008 1.3600000000000034  L 16.63 1.4700000000000002  C 17.183999999999997 1.1380000000000003  17.738 0.8040000000000002  18.291999999999998 0.5840000000000001  C 18.514 1.138  18.845999999999997 1.6920000000000002  19.067999999999998 2.2439999999999998  C 17.848 2.9100000000000006  16.63 3.4639999999999995  15.523999999999997 4.2379999999999995  C -0.7740000000000009 14.134  1.7239999999999966 25.385999999999996  8.765999999999998 26.392  C 13.563999999999998 27.291999999999998  19.451999999999998 24.204  23.61 21.74  C 26.76 19.77  29.59 17.887999999999998  29.59 15.648  C 29.59 14.222000000000001  27.942 13.542  26.600000000000005 13.764000000000001  C 22.266000000000002 14.847999999999999  16.46 20.854  11.646 20.854  C 9.452000000000002 20.854  7.856000000000001 19.169999999999998  8.102 17.198  C 8.41 13.512  11.884 10.74  15.081999999999999 8.89  C 20.252000000000002 5.498000000000001  27.122 2.492000000000001  33.246 2.798000000000001  C 48.540000000000006 3.3260000000000005  57.7 22.427999999999997  31.252 39.132000000000005  C 28.25 41.028000000000006  23.412000000000003 43.112  22.392000000000003 43.452000000000005  C 21.948000000000004 41.458000000000006  21.284000000000002 39.464000000000006  20.840000000000003 37.470000000000006  C 25.682000000000006 35.190000000000005  27.130000000000003 34.90800000000001  32.472 30.824000000000005  C 36.958 27.234  41.272000000000006 22.990000000000002  41.998000000000005 17.198000000000008  C 42.108000000000004 15.870000000000008  42.108000000000004 14.650000000000004  41.776 13.322000000000008  C 39.974000000000004 7.142000000000008  31.636000000000003 0.7720000000000073  15.966000000000005 11.218000000000007  C 14.336000000000006 12.168000000000006  11.646000000000004 14.090000000000005  11.646000000000004 15.980000000000006  C 11.646000000000004 16.424000000000007  11.978000000000005 16.97800000000001  12.422000000000002 17.088000000000008  C 14.830000000000004 18.120000000000008  20.184000000000005 12.704000000000008  25.492 10.884000000000007  C 29.652000000000005 9.416000000000007  33.842000000000006 10.978000000000007  34.57600000000001 14.652000000000008  C 34.68600000000001 15.648000000000007  34.68600000000001 16.64400000000001  34.35600000000001 17.532000000000007  C 33.168000000000006 20.614000000000008  30.306000000000008 22.848000000000006  27.376000000000012 24.732000000000006  C 24.31600000000001 26.416000000000007  21.20200000000001 28.816000000000003  14.416000000000007 30.602000000000004  C 9.786000000000008 31.864000000000004  3.882000000000007 31.182000000000002  1.4560000000000066 27.058000000000003  C 0.4580000000000066 25.506000000000004  0.016000000000006676 23.624000000000002  0.016000000000006676 21.852000000000004  C 0.12600000000000666 19.746000000000002  0.5700000000000067 17.642000000000003  1.4560000000000066 15.758000000000003  C 3.0060000000000064 12.546000000000003  5.332000000000006 9.666000000000004  8.102000000000007 7.340000000000003  C 10.745436232927894 5.024865772780643  13.644145397710762 3.0185832721554604  16.742000000000008 1.3600000000000034  Z " stroke-width="0" stroke-dasharray="0" stroke="rgba(255, 255, 255, 0)" fill="none" class="stroke" mask="url(#Clip7355)" />
  </g>
</svg>