<?xml version="1.0" encoding="utf-8"?>
<svg version="1.1" xmlns:xlink="http://www.w3.org/1999/xlink" width="48px" height="48px" xmlns="http://www.w3.org/2000/svg">
  <defs>
    <pattern id="BGPattern" patternUnits="userSpaceOnUse" alignment="0 0" imageRepeat="None" />
    <mask fill="white" id="Clip6880">
      <path d="M 25.14 5.56  L 27.328000000000003 13.911999999999999  L 16.1 16.992  L 18.38 25.44  L 29.61 22.36  L 31.9 30.800000000000004  L 20.669999999999998 33.78  L 22.855999999999998 42.228  L 11.625999999999998 45.208  L 8.84 35.08  C 10.532 33.089999999999996  11.228 30.308  10.532 27.624000000000002  C 9.736 24.939999999999998  7.748000000000001 22.854  5.364 21.96  L 2.58 11.526  L 25.14 5.56  Z M 39.552 19.876  C 38.956 17.490000000000002  39.752 15.006  41.54 13.516000000000002  L 37.864 0.1  L 0 10.136  L 3.676 23.652  C 5.862 24.052  7.85 25.738  8.446 28.124000000000002  C 9.142 30.509999999999998  8.246 32.894000000000005  6.558 34.484  L 10.134 47.900000000000006  L 48 37.764  L 44.42 24.348000000000006  C 42.136 23.948000000000004  40.248000000000005 22.262000000000004  39.552 19.876  Z " fill-rule="evenodd" />
    </mask>
  </defs>
  <g>
    <path d="M 25.14 5.56  L 27.328000000000003 13.911999999999999  L 16.1 16.992  L 18.38 25.44  L 29.61 22.36  L 31.9 30.800000000000004  L 20.669999999999998 33.78  L 22.855999999999998 42.228  L 11.625999999999998 45.208  L 8.84 35.08  C 10.532 33.089999999999996  11.228 30.308  10.532 27.624000000000002  C 9.736 24.939999999999998  7.748000000000001 22.854  5.364 21.96  L 2.58 11.526  L 25.14 5.56  Z M 39.552 19.876  C 38.956 17.490000000000002  39.752 15.006  41.54 13.516000000000002  L 37.864 0.1  L 0 10.136  L 3.676 23.652  C 5.862 24.052  7.85 25.738  8.446 28.124000000000002  C 9.142 30.509999999999998  8.246 32.894000000000005  6.558 34.484  L 10.134 47.900000000000006  L 48 37.764  L 44.42 24.348000000000006  C 42.136 23.948000000000004  40.248000000000005 22.262000000000004  39.552 19.876  Z " fill-rule="nonzero" fill="rgba(255, 115, 0, 1)" stroke="none" class="fill" />
    <path d="M 25.14 5.56  L 27.328000000000003 13.911999999999999  L 16.1 16.992  L 18.38 25.44  L 29.61 22.36  L 31.9 30.800000000000004  L 20.669999999999998 33.78  L 22.855999999999998 42.228  L 11.625999999999998 45.208  L 8.84 35.08  C 10.532 33.089999999999996  11.228 30.308  10.532 27.624000000000002  C 9.736 24.939999999999998  7.748000000000001 22.854  5.364 21.96  L 2.58 11.526  L 25.14 5.56  Z " stroke-width="0" stroke-dasharray="0" stroke="rgba(255, 255, 255, 0)" fill="none" class="stroke" mask="url(#Clip6880)" />
    <path d="M 39.552 19.876  C 38.956 17.490000000000002  39.752 15.006  41.54 13.516000000000002  L 37.864 0.1  L 0 10.136  L 3.676 23.652  C 5.862 24.052  7.85 25.738  8.446 28.124000000000002  C 9.142 30.509999999999998  8.246 32.894000000000005  6.558 34.484  L 10.134 47.900000000000006  L 48 37.764  L 44.42 24.348000000000006  C 42.136 23.948000000000004  40.248000000000005 22.262000000000004  39.552 19.876  Z " stroke-width="0" stroke-dasharray="0" stroke="rgba(255, 255, 255, 0)" fill="none" class="stroke" mask="url(#Clip6880)" />
  </g>
</svg>