<?xml version="1.0" encoding="utf-8"?>
<svg version="1.1" xmlns:xlink="http://www.w3.org/1999/xlink" width="48px" height="48px" xmlns="http://www.w3.org/2000/svg">
  <defs>
    <pattern id="BGPattern" patternUnits="userSpaceOnUse" alignment="0 0" imageRepeat="None" />
    <mask fill="white" id="Clip6797">
      <path d="M 28.13199999999999 22.625999999999998  L 28.135999999999996 22.626  C 24.628 22.626  21.927999999999997 25.480000000000004  21.927999999999997 28.846000000000004  C 21.927999999999997 32.352  24.627999999999993 35.016  28.437999999999995 35.016  L 28.406 35.019999999999996  C 31.58599999999999 35.019999999999996  34.25599999999999 32.4  34.25599999999999 28.939999999999998  C 34.25599999999999 25.339999999999996  31.58399999999999 22.625999999999998  28.13199999999999 22.625999999999998  Z M 48 0  L 0 0  L 0 48  L 48 48  L 48 0  Z M 41 41.614000000000004  L 41.386 41.614  L 34.234 41.614  L 34.234 38.794  C 32.034 40.95399999999999  29.788000000000004 41.733999999999995  26.804000000000002 41.733999999999995  C 23.76 41.733999999999995  21.14 40.74399999999999  18.944000000000003 38.763999999999996  C 16.048000000000002 36.214  14.548000000000002 32.824  14.548000000000002 28.891999999999996  C 14.548000000000002 25.291999999999994  15.948000000000002 22.063999999999997  18.568 19.543999999999997  C 20.908 17.251999999999995  23.758000000000003 16.083999999999996  26.938000000000002 16.083999999999996  C 29.978 16.083999999999996  32.318000000000005 17.109999999999996  34 19.263999999999996  L 34 8.314  L 41.38400000000001 6.784000000000001  L 41.38400000000001 6.780000000000001  L 41.388000000000005 6.786  L 41 6.786  L 41 41.614000000000004  Z " fill-rule="evenodd" />
    </mask>
  </defs>
  <g>
    <path d="M 28.13199999999999 22.625999999999998  L 28.135999999999996 22.626  C 24.628 22.626  21.927999999999997 25.480000000000004  21.927999999999997 28.846000000000004  C 21.927999999999997 32.352  24.627999999999993 35.016  28.437999999999995 35.016  L 28.406 35.019999999999996  C 31.58599999999999 35.019999999999996  34.25599999999999 32.4  34.25599999999999 28.939999999999998  C 34.25599999999999 25.339999999999996  31.58399999999999 22.625999999999998  28.13199999999999 22.625999999999998  Z M 48 0  L 0 0  L 0 48  L 48 48  L 48 0  Z M 41 41.614000000000004  L 41.386 41.614  L 34.234 41.614  L 34.234 38.794  C 32.034 40.95399999999999  29.788000000000004 41.733999999999995  26.804000000000002 41.733999999999995  C 23.76 41.733999999999995  21.14 40.74399999999999  18.944000000000003 38.763999999999996  C 16.048000000000002 36.214  14.548000000000002 32.824  14.548000000000002 28.891999999999996  C 14.548000000000002 25.291999999999994  15.948000000000002 22.063999999999997  18.568 19.543999999999997  C 20.908 17.251999999999995  23.758000000000003 16.083999999999996  26.938000000000002 16.083999999999996  C 29.978 16.083999999999996  32.318000000000005 17.109999999999996  34 19.263999999999996  L 34 8.314  L 41.38400000000001 6.784000000000001  L 41.38400000000001 6.780000000000001  L 41.388000000000005 6.786  L 41 6.786  L 41 41.614000000000004  Z " fill-rule="nonzero" fill="rgba(26, 102, 220, 1)" stroke="none" class="fill" />
    <path d="M 28.13199999999999 22.625999999999998  L 28.135999999999996 22.626  C 24.628 22.626  21.927999999999997 25.480000000000004  21.927999999999997 28.846000000000004  C 21.927999999999997 32.352  24.627999999999993 35.016  28.437999999999995 35.016  L 28.406 35.019999999999996  C 31.58599999999999 35.019999999999996  34.25599999999999 32.4  34.25599999999999 28.939999999999998  C 34.25599999999999 25.339999999999996  31.58399999999999 22.625999999999998  28.13199999999999 22.625999999999998  Z " stroke-width="0" stroke-dasharray="0" stroke="rgba(255, 255, 255, 0)" fill="none" class="stroke" mask="url(#Clip6797)" />
    <path d="M 48 0  L 0 0  L 0 48  L 48 48  L 48 0  Z " stroke-width="0" stroke-dasharray="0" stroke="rgba(255, 255, 255, 0)" fill="none" class="stroke" mask="url(#Clip6797)" />
    <path d="M 41 41.614000000000004  L 41.386 41.614  L 34.234 41.614  L 34.234 38.794  C 32.034 40.95399999999999  29.788000000000004 41.733999999999995  26.804000000000002 41.733999999999995  C 23.76 41.733999999999995  21.14 40.74399999999999  18.944000000000003 38.763999999999996  C 16.048000000000002 36.214  14.548000000000002 32.824  14.548000000000002 28.891999999999996  C 14.548000000000002 25.291999999999994  15.948000000000002 22.063999999999997  18.568 19.543999999999997  C 20.908 17.251999999999995  23.758000000000003 16.083999999999996  26.938000000000002 16.083999999999996  C 29.978 16.083999999999996  32.318000000000005 17.109999999999996  34 19.263999999999996  L 34 8.314  L 41.38400000000001 6.784000000000001  L 41.38400000000001 6.780000000000001  L 41.388000000000005 6.786  L 41 6.786  L 41 41.614000000000004  Z " stroke-width="0" stroke-dasharray="0" stroke="rgba(255, 255, 255, 0)" fill="none" class="stroke" mask="url(#Clip6797)" />
  </g>
</svg>