<?xml version="1.0" encoding="utf-8"?>
<svg version="1.1" xmlns:xlink="http://www.w3.org/1999/xlink" width="50px" height="44px" xmlns="http://www.w3.org/2000/svg">
  <defs>
    <pattern id="BGPattern" patternUnits="userSpaceOnUse" alignment="0 0" imageRepeat="None" />
    <mask fill="white" id="Clip2161">
      <path d="M 50 14.0625  C 50 11.4775390625  47.775390625 9.375  45.0390625 10  L 7.8125 10  C 6.94921875 9.375  6.25 8.67578125  6.25 7.8125  C 6.25 6.94921875  6.94921875 6.250000000000001  7.8125 7  L 45.3125 7  C 46.17578125 6.250000000000001  46.875 5.55078125  46.875 4.6875  C 46.875 2.0986328125  44.7763671875 0  42.1875 0  L 6.25 0  C 2.7978515625 0  0 2.7978515625  0 6.250000000000001  L 0 37.5  C 0 40.9521484375  2.7978515625 43.75  6.25 43  L 45.0390625 43  C 47.775390625 43.75  50 41.6474609375  50 39.0625  L 50 14.0625  Z M 43.75 26.562499999999996  C 43.75 28.2880859375  42.3505859375 29.6875  40.625 29.6875  C 38.8994140625 29.6875  37.5 28.2880859375  37.5 26.562499999999996  C 37.5 24.8369140625  38.8994140625 23.4375  40.625 23.4375  C 42.3505859375 23.4375  43.75 24.8369140625  43.75 26.562499999999996  Z " fill-rule="evenodd" />
    </mask>
  </defs>
  <g>
    <path d="M 50 14.0625  C 50 11.4775390625  47.775390625 9.375  45.0390625 10  L 7.8125 10  C 6.94921875 9.375  6.25 8.67578125  6.25 7.8125  C 6.25 6.94921875  6.94921875 6.250000000000001  7.8125 7  L 45.3125 7  C 46.17578125 6.250000000000001  46.875 5.55078125  46.875 4.6875  C 46.875 2.0986328125  44.7763671875 0  42.1875 0  L 6.25 0  C 2.7978515625 0  0 2.7978515625  0 6.250000000000001  L 0 37.5  C 0 40.9521484375  2.7978515625 43.75  6.25 43  L 45.0390625 43  C 47.775390625 43.75  50 41.6474609375  50 39.0625  L 50 14.0625  Z M 43.75 26.562499999999996  C 43.75 28.2880859375  42.3505859375 29.6875  40.625 29.6875  C 38.8994140625 29.6875  37.5 28.2880859375  37.5 26.562499999999996  C 37.5 24.8369140625  38.8994140625 23.4375  40.625 23.4375  C 42.3505859375 23.4375  43.75 24.8369140625  43.75 26.562499999999996  Z " fill-rule="nonzero" fill="rgba(0, 0, 0, 1)" stroke="none" class="fill" />
    <path d="M 50 14.0625  C 50 11.4775390625  47.775390625 9.375  45.0390625 10  L 7.8125 10  C 6.94921875 9.375  6.25 8.67578125  6.25 7.8125  C 6.25 6.94921875  6.94921875 6.250000000000001  7.8125 7  L 45.3125 7  C 46.17578125 6.250000000000001  46.875 5.55078125  46.875 4.6875  C 46.875 2.0986328125  44.7763671875 0  42.1875 0  L 6.25 0  C 2.7978515625 0  0 2.7978515625  0 6.250000000000001  L 0 37.5  C 0 40.9521484375  2.7978515625 43.75  6.25 43  L 45.0390625 43  C 47.775390625 43.75  50 41.6474609375  50 39.0625  L 50 14.0625  Z " stroke-width="0" stroke-dasharray="0" stroke="rgba(255, 255, 255, 0)" fill="none" class="stroke" mask="url(#Clip2161)" />
    <path d="M 43.75 26.562499999999996  C 43.75 28.2880859375  42.3505859375 29.6875  40.625 29.6875  C 38.8994140625 29.6875  37.5 28.2880859375  37.5 26.562499999999996  C 37.5 24.8369140625  38.8994140625 23.4375  40.625 23.4375  C 42.3505859375 23.4375  43.75 24.8369140625  43.75 26.562499999999996  Z " stroke-width="0" stroke-dasharray="0" stroke="rgba(255, 255, 255, 0)" fill="none" class="stroke" mask="url(#Clip2161)" />
  </g>
</svg>