<?xml version="1.0" encoding="utf-8"?>
<svg version="1.1" xmlns:xlink="http://www.w3.org/1999/xlink" width="56px" height="56px" xmlns="http://www.w3.org/2000/svg">
  <defs>
    <pattern id="BGPattern" patternUnits="userSpaceOnUse" alignment="0 0" imageRepeat="None" />
    <mask fill="white" id="Clip1863">
      <path d="M 56 6  C 56 2.6875  53.3125 0  50 0  L 6 0  C 2.6875 0  0 2.6875  0 6  L 0 50  C 0 53.3125  2.6875 56  6 56  L 50 56  C 53.3125 56  56 53.3125  56 50  L 56 6  Z M 20 26  L 20 42  C 20 43.105  19.105 44  18 44  L 14 44  C 12.895 44  12 43.105  12 42  L 12 26  C 12 24.895  12.895 24  14 24  L 18 24  C 19.105 24  20 24.895  20 26  Z M 32 14  L 32 42  C 32 43.105  31.105 44  30 44  L 26 44  C 24.895 44  24 43.105  24 42  L 24 14  C 24 12.895  24.895 12  26 12  L 30 12  C 31.105 12  32 12.895  32 14  Z M 44 34  L 44 42  C 44 43.105  43.105 44  42 44  L 38 44  C 36.895 44  36 43.105  36 42  L 36 34  C 36 32.895  36.895 32  38 32  L 42 32  C 43.105 32  44 32.895  44 34  Z " fill-rule="evenodd" />
    </mask>
  </defs>
  <g>
    <path d="M 56 6  C 56 2.6875  53.3125 0  50 0  L 6 0  C 2.6875 0  0 2.6875  0 6  L 0 50  C 0 53.3125  2.6875 56  6 56  L 50 56  C 53.3125 56  56 53.3125  56 50  L 56 6  Z M 20 26  L 20 42  C 20 43.105  19.105 44  18 44  L 14 44  C 12.895 44  12 43.105  12 42  L 12 26  C 12 24.895  12.895 24  14 24  L 18 24  C 19.105 24  20 24.895  20 26  Z M 32 14  L 32 42  C 32 43.105  31.105 44  30 44  L 26 44  C 24.895 44  24 43.105  24 42  L 24 14  C 24 12.895  24.895 12  26 12  L 30 12  C 31.105 12  32 12.895  32 14  Z M 44 34  L 44 42  C 44 43.105  43.105 44  42 44  L 38 44  C 36.895 44  36 43.105  36 42  L 36 34  C 36 32.895  36.895 32  38 32  L 42 32  C 43.105 32  44 32.895  44 34  Z " fill-rule="nonzero" fill="rgba(0, 0, 0, 1)" stroke="none" class="fill" />
    <path d="M 56 6  C 56 2.6875  53.3125 0  50 0  L 6 0  C 2.6875 0  0 2.6875  0 6  L 0 50  C 0 53.3125  2.6875 56  6 56  L 50 56  C 53.3125 56  56 53.3125  56 50  L 56 6  Z " stroke-width="0" stroke-dasharray="0" stroke="rgba(255, 255, 255, 0)" fill="none" class="stroke" mask="url(#Clip1863)" />
    <path d="M 20 26  L 20 42  C 20 43.105  19.105 44  18 44  L 14 44  C 12.895 44  12 43.105  12 42  L 12 26  C 12 24.895  12.895 24  14 24  L 18 24  C 19.105 24  20 24.895  20 26  Z " stroke-width="0" stroke-dasharray="0" stroke="rgba(255, 255, 255, 0)" fill="none" class="stroke" mask="url(#Clip1863)" />
    <path d="M 32 14  L 32 42  C 32 43.105  31.105 44  30 44  L 26 44  C 24.895 44  24 43.105  24 42  L 24 14  C 24 12.895  24.895 12  26 12  L 30 12  C 31.105 12  32 12.895  32 14  Z " stroke-width="0" stroke-dasharray="0" stroke="rgba(255, 255, 255, 0)" fill="none" class="stroke" mask="url(#Clip1863)" />
    <path d="M 44 34  L 44 42  C 44 43.105  43.105 44  42 44  L 38 44  C 36.895 44  36 43.105  36 42  L 36 34  C 36 32.895  36.895 32  38 32  L 42 32  C 43.105 32  44 32.895  44 34  Z " stroke-width="0" stroke-dasharray="0" stroke="rgba(255, 255, 255, 0)" fill="none" class="stroke" mask="url(#Clip1863)" />
  </g>
</svg>