<?xml version="1.0" encoding="utf-8"?>
<svg version="1.1" xmlns:xlink="http://www.w3.org/1999/xlink" width="56px" height="56px" xmlns="http://www.w3.org/2000/svg">
  <defs>
    <pattern id="BGPattern" patternUnits="userSpaceOnUse" alignment="0 0" imageRepeat="None" />
    <mask fill="white" id="Clip2385">
      <path d="M 56 28  C 56 12.537500000000001  43.4625 0  28 0  C 12.537500000000001 0  0 12.537500000000001  0 28  C 0 43.4625  12.537500000000001 56  28 56  C 43.4625 56  56 43.4625  56 28  Z M 44.93750000000001 17.50625  C 43.993750000000006 18.89375  42.81250000000001 20.125  41.45625 21.10625  C 41.474999999999994 21.4  41.474999999999994 21.70625  41.474999999999994 22.006249999999998  C 41.474999999999994 31.18125  34.4875 41.75  21.718749999999993 41.75  C 17.781249999999993 41.75  14.131249999999996 40.60625  11.056249999999993 38.6375  C 11.618749999999993 38.7  12.156249999999993 38.725  12.731249999999992 38.725  C 15.981249999999992 38.725  18.968749999999993 37.625  21.349999999999994 35.7625  C 18.299999999999994 35.7  15.737499999999992 33.7  14.862499999999992 30.950000000000003  C 15.931249999999995 31.106250000000003  16.893749999999994 31.106250000000003  17.993749999999995 30.825000000000006  C 14.755636363180733 30.167130278662427  12.430884154841824 27.31675917957422  12.437499999999993 24.012500000000003  L 12.437499999999993 23.925000000000004  C 13.356249999999992 24.443750000000005  14.437499999999993 24.762500000000003  15.568749999999994 24.806250000000006  C 13.637368146132847 23.519080146128214  12.47656612580829 21.352249708189042  12.474999999999994 19.031250000000007  C 12.474999999999994 17.737500000000008  12.812499999999993 16.556250000000006  13.418749999999996 15.531250000000007  C 16.944064603690116 19.871007119207516  22.147014992583852 22.508834805454512  27.731249999999996 22.78750000000001  C 26.75 18.06875  30.275000000000002 14.25  34.5125 14.25  C 36.5125 14.25  38.3125 15.087499999999999  39.581250000000004 16.4375  C 41.150000000000006 16.14375  42.650000000000006 15.55625  43.987500000000004 14.76875  C 43.46875000000001 16.375  42.38125 17.73125  40.93750000000001 18.587500000000002  C 42.337500000000006 18.437500000000004  43.68750000000001 18.05  44.93750000000001 17.50625  Z " fill-rule="evenodd" />
    </mask>
  </defs>
  <g>
    <path d="M 56 28  C 56 12.537500000000001  43.4625 0  28 0  C 12.537500000000001 0  0 12.537500000000001  0 28  C 0 43.4625  12.537500000000001 56  28 56  C 43.4625 56  56 43.4625  56 28  Z M 44.93750000000001 17.50625  C 43.993750000000006 18.89375  42.81250000000001 20.125  41.45625 21.10625  C 41.474999999999994 21.4  41.474999999999994 21.70625  41.474999999999994 22.006249999999998  C 41.474999999999994 31.18125  34.4875 41.75  21.718749999999993 41.75  C 17.781249999999993 41.75  14.131249999999996 40.60625  11.056249999999993 38.6375  C 11.618749999999993 38.7  12.156249999999993 38.725  12.731249999999992 38.725  C 15.981249999999992 38.725  18.968749999999993 37.625  21.349999999999994 35.7625  C 18.299999999999994 35.7  15.737499999999992 33.7  14.862499999999992 30.950000000000003  C 15.931249999999995 31.106250000000003  16.893749999999994 31.106250000000003  17.993749999999995 30.825000000000006  C 14.755636363180733 30.167130278662427  12.430884154841824 27.31675917957422  12.437499999999993 24.012500000000003  L 12.437499999999993 23.925000000000004  C 13.356249999999992 24.443750000000005  14.437499999999993 24.762500000000003  15.568749999999994 24.806250000000006  C 13.637368146132847 23.519080146128214  12.47656612580829 21.352249708189042  12.474999999999994 19.031250000000007  C 12.474999999999994 17.737500000000008  12.812499999999993 16.556250000000006  13.418749999999996 15.531250000000007  C 16.944064603690116 19.871007119207516  22.147014992583852 22.508834805454512  27.731249999999996 22.78750000000001  C 26.75 18.06875  30.275000000000002 14.25  34.5125 14.25  C 36.5125 14.25  38.3125 15.087499999999999  39.581250000000004 16.4375  C 41.150000000000006 16.14375  42.650000000000006 15.55625  43.987500000000004 14.76875  C 43.46875000000001 16.375  42.38125 17.73125  40.93750000000001 18.587500000000002  C 42.337500000000006 18.437500000000004  43.68750000000001 18.05  44.93750000000001 17.50625  Z " fill-rule="nonzero" fill="rgba(0, 0, 0, 1)" stroke="none" class="fill" />
    <path d="M 56 28  C 56 12.537500000000001  43.4625 0  28 0  C 12.537500000000001 0  0 12.537500000000001  0 28  C 0 43.4625  12.537500000000001 56  28 56  C 43.4625 56  56 43.4625  56 28  Z " stroke-width="0" stroke-dasharray="0" stroke="rgba(255, 255, 255, 0)" fill="none" class="stroke" mask="url(#Clip2385)" />
    <path d="M 44.93750000000001 17.50625  C 43.993750000000006 18.89375  42.81250000000001 20.125  41.45625 21.10625  C 41.474999999999994 21.4  41.474999999999994 21.70625  41.474999999999994 22.006249999999998  C 41.474999999999994 31.18125  34.4875 41.75  21.718749999999993 41.75  C 17.781249999999993 41.75  14.131249999999996 40.60625  11.056249999999993 38.6375  C 11.618749999999993 38.7  12.156249999999993 38.725  12.731249999999992 38.725  C 15.981249999999992 38.725  18.968749999999993 37.625  21.349999999999994 35.7625  C 18.299999999999994 35.7  15.737499999999992 33.7  14.862499999999992 30.950000000000003  C 15.931249999999995 31.106250000000003  16.893749999999994 31.106250000000003  17.993749999999995 30.825000000000006  C 14.755636363180733 30.167130278662427  12.430884154841824 27.31675917957422  12.437499999999993 24.012500000000003  L 12.437499999999993 23.925000000000004  C 13.356249999999992 24.443750000000005  14.437499999999993 24.762500000000003  15.568749999999994 24.806250000000006  C 13.637368146132847 23.519080146128214  12.47656612580829 21.352249708189042  12.474999999999994 19.031250000000007  C 12.474999999999994 17.737500000000008  12.812499999999993 16.556250000000006  13.418749999999996 15.531250000000007  C 16.944064603690116 19.871007119207516  22.147014992583852 22.508834805454512  27.731249999999996 22.78750000000001  C 26.75 18.06875  30.275000000000002 14.25  34.5125 14.25  C 36.5125 14.25  38.3125 15.087499999999999  39.581250000000004 16.4375  C 41.150000000000006 16.14375  42.650000000000006 15.55625  43.987500000000004 14.76875  C 43.46875000000001 16.375  42.38125 17.73125  40.93750000000001 18.587500000000002  C 42.337500000000006 18.437500000000004  43.68750000000001 18.05  44.93750000000001 17.50625  Z " stroke-width="0" stroke-dasharray="0" stroke="rgba(255, 255, 255, 0)" fill="none" class="stroke" mask="url(#Clip2385)" />
  </g>
</svg>