<?xml version="1.0" encoding="utf-8"?>
<svg version="1.1" xmlns:xlink="http://www.w3.org/1999/xlink" width="24px" height="24px" xmlns="http://www.w3.org/2000/svg">
  <defs>
    <pattern id="BGPattern" patternUnits="userSpaceOnUse" alignment="0 0" imageRepeat="None" />
    <mask fill="white" id="Clip5005">
      <path d="M 21 24  C 22.65685424949238 24  24 22.65685424949238  24 21  L 24 7.5  L 0 7.5  L 0 21  C 0 22.65685424949238  1.3431457505076196 24  3 24  L 21 24  Z M 6 1.5  L 6 0.75  C 6 0.3357864376269049  5.664213562373095 0  5.25 0  C 4.835786437626905 0  4.5 0.3357864376269049  4.5 0.75  L 4.5 1.5  L 3 1.5  C 1.3431457505076196 1.5  0 2.8431457505076194  0 4.5  L 0 6  L 24 6  L 24 4.5  C 24 2.8431457505076194  22.65685424949238 1.5  21 1.5  L 19.5 1.5  L 19.5 0.75  C 19.5 0.3357864376269049  19.164213562373096 0  18.75 0  C 18.335786437626904 0  18 0.3357864376269049  18 0.75  L 18 1.5  L 6 1.5  Z M 12 12  C 12.414213562373096 12  12.75 12.335786437626904  12.75 12.75  L 12.75 15  L 15 15  C 15.414213562373096 15  15.75 15.335786437626904  15.75 15.75  C 15.75 16.164213562373096  15.414213562373096 16.5  15 16.5  L 12.75 16.5  L 12.75 18.75  C 12.75 19.164213562373096  12.414213562373096 19.5  12 19.5  C 11.585786437626904 19.5  11.25 19.164213562373096  11.25 18.75  L 11.25 16.5  L 9 16.5  C 8.585786437626904 16.5  8.25 16.164213562373096  8.25 15.75  C 8.25 15.335786437626904  8.585786437626904 15  9 15  L 11.25 15  L 11.25 12.75  C 11.25 12.335786437626904  11.585786437626904 12  12 12  Z " fill-rule="evenodd" />
    </mask>
  </defs>
  <g>
    <path d="M 21 24  C 22.65685424949238 24  24 22.65685424949238  24 21  L 24 7.5  L 0 7.5  L 0 21  C 0 22.65685424949238  1.3431457505076196 24  3 24  L 21 24  Z M 6 1.5  L 6 0.75  C 6 0.3357864376269049  5.664213562373095 0  5.25 0  C 4.835786437626905 0  4.5 0.3357864376269049  4.5 0.75  L 4.5 1.5  L 3 1.5  C 1.3431457505076196 1.5  0 2.8431457505076194  0 4.5  L 0 6  L 24 6  L 24 4.5  C 24 2.8431457505076194  22.65685424949238 1.5  21 1.5  L 19.5 1.5  L 19.5 0.75  C 19.5 0.3357864376269049  19.164213562373096 0  18.75 0  C 18.335786437626904 0  18 0.3357864376269049  18 0.75  L 18 1.5  L 6 1.5  Z M 12 12  C 12.414213562373096 12  12.75 12.335786437626904  12.75 12.75  L 12.75 15  L 15 15  C 15.414213562373096 15  15.75 15.335786437626904  15.75 15.75  C 15.75 16.164213562373096  15.414213562373096 16.5  15 16.5  L 12.75 16.5  L 12.75 18.75  C 12.75 19.164213562373096  12.414213562373096 19.5  12 19.5  C 11.585786437626904 19.5  11.25 19.164213562373096  11.25 18.75  L 11.25 16.5  L 9 16.5  C 8.585786437626904 16.5  8.25 16.164213562373096  8.25 15.75  C 8.25 15.335786437626904  8.585786437626904 15  9 15  L 11.25 15  L 11.25 12.75  C 11.25 12.335786437626904  11.585786437626904 12  12 12  Z " fill-rule="nonzero" fill="rgba(0, 0, 0, 1)" stroke="none" class="fill" />
    <path d="M 21 24  C 22.65685424949238 24  24 22.65685424949238  24 21  L 24 7.5  L 0 7.5  L 0 21  C 0 22.65685424949238  1.3431457505076196 24  3 24  L 21 24  Z " stroke-width="0" stroke-dasharray="0" stroke="rgba(255, 255, 255, 0)" fill="none" class="stroke" mask="url(#Clip5005)" />
    <path d="M 6 1.5  L 6 0.75  C 6 0.3357864376269049  5.664213562373095 0  5.25 0  C 4.835786437626905 0  4.5 0.3357864376269049  4.5 0.75  L 4.5 1.5  L 3 1.5  C 1.3431457505076196 1.5  0 2.8431457505076194  0 4.5  L 0 6  L 24 6  L 24 4.5  C 24 2.8431457505076194  22.65685424949238 1.5  21 1.5  L 19.5 1.5  L 19.5 0.75  C 19.5 0.3357864376269049  19.164213562373096 0  18.75 0  C 18.335786437626904 0  18 0.3357864376269049  18 0.75  L 18 1.5  L 6 1.5  Z " stroke-width="0" stroke-dasharray="0" stroke="rgba(255, 255, 255, 0)" fill="none" class="stroke" mask="url(#Clip5005)" />
    <path d="M 12 12  C 12.414213562373096 12  12.75 12.335786437626904  12.75 12.75  L 12.75 15  L 15 15  C 15.414213562373096 15  15.75 15.335786437626904  15.75 15.75  C 15.75 16.164213562373096  15.414213562373096 16.5  15 16.5  L 12.75 16.5  L 12.75 18.75  C 12.75 19.164213562373096  12.414213562373096 19.5  12 19.5  C 11.585786437626904 19.5  11.25 19.164213562373096  11.25 18.75  L 11.25 16.5  L 9 16.5  C 8.585786437626904 16.5  8.25 16.164213562373096  8.25 15.75  C 8.25 15.335786437626904  8.585786437626904 15  9 15  L 11.25 15  L 11.25 12.75  C 11.25 12.335786437626904  11.585786437626904 12  12 12  Z " stroke-width="0" stroke-dasharray="0" stroke="rgba(255, 255, 255, 0)" fill="none" class="stroke" mask="url(#Clip5005)" />
  </g>
</svg>