<?xml version="1.0" encoding="utf-8"?>
<svg version="1.1" xmlns:xlink="http://www.w3.org/1999/xlink" width="38px" height="50px" xmlns="http://www.w3.org/2000/svg">
  <defs>
    <pattern id="BGPattern" patternUnits="userSpaceOnUse" alignment="0 0" imageRepeat="None" />
    <mask fill="white" id="Clip1161">
      <path d="M 26.447265625 25  C 32.82246093750001 20.861230468749994  35.9375 12.509765625  35.9375 4.6875  L 36.328125 4.6875  C 36.97529296875001 4.6875  37.5 4.162792968750011  37.5 3.515625  L 37.5 1.171875  C 37.5 0.5247070312499886  36.97529296875001 0  36.328125 0  L 1.171875 0  C 0.5247070312499886 0  0 0.5247070312499886  0 1.171875  L 0 3.515625  C 0 4.162792968750011  0.5247070312499886 4.6875  1.171875 4.6875  L 1.5625 4.6875  C 1.5625 12.555078124999994  4.705859374999989 20.87958984375001  11.052734375 25  C 4.677636718749994 29.13876953125001  1.5625 37.490234375  1.5625 45.3125  L 1.171875 45.3125  C 0.5247070312499886 45.3125  0 45.83720703124999  0 46.484375  L 0 48.828125  C 0 49.47529296875001  0.5247070312499886 50  1.171875 50  L 36.328125 50  C 36.97529296875001 50  37.5 49.47529296875001  37.5 48.828125  L 37.5 46.484375  C 37.5 45.83720703124999  36.97529296875001 45.3125  36.328125 45.3125  L 35.9375 45.3125  C 35.9375 37.444921875000006  32.79414062500001 29.12041015624999  26.447265625 25  Z M 18.75 22.65625  C 11.846386718750011 22.65625  6.25 14.611425781250006  6.25 5  L 31.249999999999996 5  C 31.249999999999996 14.611328125  25.65361328124999 22.65625  18.75 22.65625  Z M 18.75 27.34375  C 25.65351562500001 27.34375  31.249999999999996 35.388671875  31.249999999999996 45  L 6.25 45  C 6.25 35.388671875  11.846484374999989 27.34375  18.75 27.34375  Z " fill-rule="evenodd" />
    </mask>
  </defs>
  <g>
    <path d="M 26.447265625 25  C 32.82246093750001 20.861230468749994  35.9375 12.509765625  35.9375 4.6875  L 36.328125 4.6875  C 36.97529296875001 4.6875  37.5 4.162792968750011  37.5 3.515625  L 37.5 1.171875  C 37.5 0.5247070312499886  36.97529296875001 0  36.328125 0  L 1.171875 0  C 0.5247070312499886 0  0 0.5247070312499886  0 1.171875  L 0 3.515625  C 0 4.162792968750011  0.5247070312499886 4.6875  1.171875 4.6875  L 1.5625 4.6875  C 1.5625 12.555078124999994  4.705859374999989 20.87958984375001  11.052734375 25  C 4.677636718749994 29.13876953125001  1.5625 37.490234375  1.5625 45.3125  L 1.171875 45.3125  C 0.5247070312499886 45.3125  0 45.83720703124999  0 46.484375  L 0 48.828125  C 0 49.47529296875001  0.5247070312499886 50  1.171875 50  L 36.328125 50  C 36.97529296875001 50  37.5 49.47529296875001  37.5 48.828125  L 37.5 46.484375  C 37.5 45.83720703124999  36.97529296875001 45.3125  36.328125 45.3125  L 35.9375 45.3125  C 35.9375 37.444921875000006  32.79414062500001 29.12041015624999  26.447265625 25  Z M 18.75 22.65625  C 11.846386718750011 22.65625  6.25 14.611425781250006  6.25 5  L 31.249999999999996 5  C 31.249999999999996 14.611328125  25.65361328124999 22.65625  18.75 22.65625  Z M 18.75 27.34375  C 25.65351562500001 27.34375  31.249999999999996 35.388671875  31.249999999999996 45  L 6.25 45  C 6.25 35.388671875  11.846484374999989 27.34375  18.75 27.34375  Z " fill-rule="nonzero" fill="rgba(0, 0, 0, 1)" stroke="none" class="fill" />
    <path d="M 26.447265625 25  C 32.82246093750001 20.861230468749994  35.9375 12.509765625  35.9375 4.6875  L 36.328125 4.6875  C 36.97529296875001 4.6875  37.5 4.162792968750011  37.5 3.515625  L 37.5 1.171875  C 37.5 0.5247070312499886  36.97529296875001 0  36.328125 0  L 1.171875 0  C 0.5247070312499886 0  0 0.5247070312499886  0 1.171875  L 0 3.515625  C 0 4.162792968750011  0.5247070312499886 4.6875  1.171875 4.6875  L 1.5625 4.6875  C 1.5625 12.555078124999994  4.705859374999989 20.87958984375001  11.052734375 25  C 4.677636718749994 29.13876953125001  1.5625 37.490234375  1.5625 45.3125  L 1.171875 45.3125  C 0.5247070312499886 45.3125  0 45.83720703124999  0 46.484375  L 0 48.828125  C 0 49.47529296875001  0.5247070312499886 50  1.171875 50  L 36.328125 50  C 36.97529296875001 50  37.5 49.47529296875001  37.5 48.828125  L 37.5 46.484375  C 37.5 45.83720703124999  36.97529296875001 45.3125  36.328125 45.3125  L 35.9375 45.3125  C 35.9375 37.444921875000006  32.79414062500001 29.12041015624999  26.447265625 25  Z " stroke-width="0" stroke-dasharray="0" stroke="rgba(255, 255, 255, 0)" fill="none" class="stroke" mask="url(#Clip1161)" />
    <path d="M 18.75 22.65625  C 11.846386718750011 22.65625  6.25 14.611425781250006  6.25 5  L 31.249999999999996 5  C 31.249999999999996 14.611328125  25.65361328124999 22.65625  18.75 22.65625  Z " stroke-width="0" stroke-dasharray="0" stroke="rgba(255, 255, 255, 0)" fill="none" class="stroke" mask="url(#Clip1161)" />
    <path d="M 18.75 27.34375  C 25.65351562500001 27.34375  31.249999999999996 35.388671875  31.249999999999996 45  L 6.25 45  C 6.25 35.388671875  11.846484374999989 27.34375  18.75 27.34375  Z " stroke-width="0" stroke-dasharray="0" stroke="rgba(255, 255, 255, 0)" fill="none" class="stroke" mask="url(#Clip1161)" />
  </g>
</svg>