<?xml version="1.0" encoding="utf-8"?>
<svg version="1.1" xmlns:xlink="http://www.w3.org/1999/xlink" width="6px" height="10px" xmlns="http://www.w3.org/2000/svg">
  <defs>
    <pattern id="BGPattern" patternUnits="userSpaceOnUse" alignment="0 0" imageRepeat="None" />
    <mask fill="white" id="Clip4572">
      <path d="M 6 6.999999999999998  C 5.998181288863565 8.656100329681538  4.656100329681539 9.998181288863565  3 10  L 0 10  L 0 0  L 3 0  C 4.656100329681539 0.0018187111364340591  5.998181288863565 1.34389967031846  6 3  L 6 6.999999999999998  Z M 2 2  L 2 8  L 3 8  C 3.55207908577154 7.999503798394027  3.999503798394029 7.55207908577154  4 7  L 4 3  C 3.999503798394029 2.4479209142284573  3.552079085771542 2.000496201605972  3 2  L 2 2  Z " fill-rule="evenodd" />
    </mask>
  </defs>
  <g transform="matrix(1 0 0 1 -8 -2 )">
    <path d="M 6 6.999999999999998  C 5.998181288863565 8.656100329681538  4.656100329681539 9.998181288863565  3 10  L 0 10  L 0 0  L 3 0  C 4.656100329681539 0.0018187111364340591  5.998181288863565 1.34389967031846  6 3  L 6 6.999999999999998  Z M 2 2  L 2 8  L 3 8  C 3.55207908577154 7.999503798394027  3.999503798394029 7.55207908577154  4 7  L 4 3  C 3.999503798394029 2.4479209142284573  3.552079085771542 2.000496201605972  3 2  L 2 2  Z " fill-rule="nonzero" fill="rgba(0, 0, 0, 1)" stroke="none" transform="matrix(1 0 0 1 8 2 )" class="fill" />
    <path d="M 6 6.999999999999998  C 5.998181288863565 8.656100329681538  4.656100329681539 9.998181288863565  3 10  L 0 10  L 0 0  L 3 0  C 4.656100329681539 0.0018187111364340591  5.998181288863565 1.34389967031846  6 3  L 6 6.999999999999998  Z " stroke-width="0" stroke-dasharray="0" stroke="rgba(255, 255, 255, 0)" fill="none" transform="matrix(1 0 0 1 8 2 )" class="stroke" mask="url(#Clip4572)" />
    <path d="M 2 2  L 2 8  L 3 8  C 3.55207908577154 7.999503798394027  3.999503798394029 7.55207908577154  4 7  L 4 3  C 3.999503798394029 2.4479209142284573  3.552079085771542 2.000496201605972  3 2  L 2 2  Z " stroke-width="0" stroke-dasharray="0" stroke="rgba(255, 255, 255, 0)" fill="none" transform="matrix(1 0 0 1 8 2 )" class="stroke" mask="url(#Clip4572)" />
  </g>
</svg>