<?xml version="1.0" encoding="utf-8"?>
<svg version="1.1" xmlns:xlink="http://www.w3.org/1999/xlink" width="26px" height="22px" xmlns="http://www.w3.org/2000/svg">
  <defs>
    <pattern id="BGPattern" patternUnits="userSpaceOnUse" alignment="0 0" imageRepeat="None" />
    <mask fill="white" id="Clip4571">
      <path d="M 25.414791009882364 11.341299999999997  C 26.195069663372543 10.56006048791388  26.195069663372543 9.294439512086118  25.414791009882364 8.513200000000001  L 17.48799381387313 0.5859000000000023  C 16.70654850821692 -0.1948243705407533  15.440340120282517 -0.1948243705407533  14.658894814626303 0.5859000000000005  L 0.6207997804009858 14.624  C -0.15937336887108894 15.405673561640434  -0.15937336887109071 16.671426438359564  0.6207997804009858 17.4531  L 5.166298172496154 22  L 14.757094779889476 22  L 25.414791009882364 11.341299999999997  Z M 16.274794243025067 17.6539  L 13.928995072817862 20  L 5.994897879390898 20  L 2.034899280183579 16.0381  L 8.34719704729882 9.726300000000002  L 16.274794243025067 17.6539  Z M 24.000691510099774 9.9272  L 17.688993742772286 16.240000000000002  L 9.76139654704604 8.312400000000004  L 16.073994314055163 2  L 24.000691510099774 9.9272  Z " fill-rule="evenodd" />
    </mask>
  </defs>
  <g transform="matrix(1 0 0 1 -5 -8 )">
    <path d="M 25.414791009882364 11.341299999999997  C 26.195069663372543 10.56006048791388  26.195069663372543 9.294439512086118  25.414791009882364 8.513200000000001  L 17.48799381387313 0.5859000000000023  C 16.70654850821692 -0.1948243705407533  15.440340120282517 -0.1948243705407533  14.658894814626303 0.5859000000000005  L 0.6207997804009858 14.624  C -0.15937336887108894 15.405673561640434  -0.15937336887109071 16.671426438359564  0.6207997804009858 17.4531  L 5.166298172496154 22  L 14.757094779889476 22  L 25.414791009882364 11.341299999999997  Z M 16.274794243025067 17.6539  L 13.928995072817862 20  L 5.994897879390898 20  L 2.034899280183579 16.0381  L 8.34719704729882 9.726300000000002  L 16.274794243025067 17.6539  Z M 24.000691510099774 9.9272  L 17.688993742772286 16.240000000000002  L 9.76139654704604 8.312400000000004  L 16.073994314055163 2  L 24.000691510099774 9.9272  Z " fill-rule="nonzero" fill="rgba(0, 0, 0, 1)" stroke="none" transform="matrix(1 0 0 1 5 8 )" class="fill" />
    <path d="M 25.414791009882364 11.341299999999997  C 26.195069663372543 10.56006048791388  26.195069663372543 9.294439512086118  25.414791009882364 8.513200000000001  L 17.48799381387313 0.5859000000000023  C 16.70654850821692 -0.1948243705407533  15.440340120282517 -0.1948243705407533  14.658894814626303 0.5859000000000005  L 0.6207997804009858 14.624  C -0.15937336887108894 15.405673561640434  -0.15937336887109071 16.671426438359564  0.6207997804009858 17.4531  L 5.166298172496154 22  L 14.757094779889476 22  L 25.414791009882364 11.341299999999997  Z " stroke-width="0" stroke-dasharray="0" stroke="rgba(255, 255, 255, 0)" fill="none" transform="matrix(1 0 0 1 5 8 )" class="stroke" mask="url(#Clip4571)" />
    <path d="M 16.274794243025067 17.6539  L 13.928995072817862 20  L 5.994897879390898 20  L 2.034899280183579 16.0381  L 8.34719704729882 9.726300000000002  L 16.274794243025067 17.6539  Z " stroke-width="0" stroke-dasharray="0" stroke="rgba(255, 255, 255, 0)" fill="none" transform="matrix(1 0 0 1 5 8 )" class="stroke" mask="url(#Clip4571)" />
    <path d="M 24.000691510099774 9.9272  L 17.688993742772286 16.240000000000002  L 9.76139654704604 8.312400000000004  L 16.073994314055163 2  L 24.000691510099774 9.9272  Z " stroke-width="0" stroke-dasharray="0" stroke="rgba(255, 255, 255, 0)" fill="none" transform="matrix(1 0 0 1 5 8 )" class="stroke" mask="url(#Clip4571)" />
  </g>
</svg>