<?xml version="1.0" encoding="utf-8"?>
<svg version="1.1" xmlns:xlink="http://www.w3.org/1999/xlink" width="18px" height="24px" xmlns="http://www.w3.org/2000/svg">
  <defs>
    <pattern id="BGPattern" patternUnits="userSpaceOnUse" alignment="0 0" imageRepeat="None" />
    <mask fill="white" id="Clip5452">
      <path d="M 18 3  C 18 1.3431457505076196  16.65685424949238 0  15 0  L 3 0  C 1.3431457505076194 0  0 1.3431457505076196  0 3  L 0 13.5  L 1.5 13.5  L 1.5 3  C 1.5 2.1715728752538097  2.17157287525381 1.5  3 1.5  L 15 1.5  C 15.828427124746192 1.5  16.5 2.1715728752538097  16.5 3  L 16.5 13.5  L 18 13.5  L 18 3  Z M 18 21  L 18 18  L 16.5 18  L 16.5 21  C 16.5 21.82842712474619  15.828427124746192 22.5  15 22.5  L 3 22.5  C 2.17157287525381 22.5  1.5 21.82842712474619  1.5 21  L 1.5 18  L 0 18  L 0 21  C 0 22.65685424949238  1.3431457505076194 24  3 24  L 15 24  C 16.65685424949238 24  18 22.65685424949238  18 21  Z " fill-rule="evenodd" />
    </mask>
  </defs>
  <g transform="matrix(1 0 0 1 -3 0 )">
    <path d="M 18 3  C 18 1.3431457505076196  16.65685424949238 0  15 0  L 3 0  C 1.3431457505076194 0  0 1.3431457505076196  0 3  L 0 13.5  L 1.5 13.5  L 1.5 3  C 1.5 2.1715728752538097  2.17157287525381 1.5  3 1.5  L 15 1.5  C 15.828427124746192 1.5  16.5 2.1715728752538097  16.5 3  L 16.5 13.5  L 18 13.5  L 18 3  Z M 18 21  L 18 18  L 16.5 18  L 16.5 21  C 16.5 21.82842712474619  15.828427124746192 22.5  15 22.5  L 3 22.5  C 2.17157287525381 22.5  1.5 21.82842712474619  1.5 21  L 1.5 18  L 0 18  L 0 21  C 0 22.65685424949238  1.3431457505076194 24  3 24  L 15 24  C 16.65685424949238 24  18 22.65685424949238  18 21  Z " fill-rule="nonzero" fill="rgba(0, 0, 0, 1)" stroke="none" transform="matrix(1 0 0 1 3 0 )" class="fill" />
    <path d="M 18 3  C 18 1.3431457505076196  16.65685424949238 0  15 0  L 3 0  C 1.3431457505076194 0  0 1.3431457505076196  0 3  L 0 13.5  L 1.5 13.5  L 1.5 3  C 1.5 2.1715728752538097  2.17157287525381 1.5  3 1.5  L 15 1.5  C 15.828427124746192 1.5  16.5 2.1715728752538097  16.5 3  L 16.5 13.5  L 18 13.5  L 18 3  Z " stroke-width="0" stroke-dasharray="0" stroke="rgba(255, 255, 255, 0)" fill="none" transform="matrix(1 0 0 1 3 0 )" class="stroke" mask="url(#Clip5452)" />
    <path d="M 18 21  L 18 18  L 16.5 18  L 16.5 21  C 16.5 21.82842712474619  15.828427124746192 22.5  15 22.5  L 3 22.5  C 2.17157287525381 22.5  1.5 21.82842712474619  1.5 21  L 1.5 18  L 0 18  L 0 21  C 0 22.65685424949238  1.3431457505076194 24  3 24  L 15 24  C 16.65685424949238 24  18 22.65685424949238  18 21  Z " stroke-width="0" stroke-dasharray="0" stroke="rgba(255, 255, 255, 0)" fill="none" transform="matrix(1 0 0 1 3 0 )" class="stroke" mask="url(#Clip5452)" />
  </g>
</svg>