<?xml version="1.0" encoding="utf-8"?>
<svg version="1.1" xmlns:xlink="http://www.w3.org/1999/xlink" width="48px" height="48px" xmlns="http://www.w3.org/2000/svg">
  <defs>
    <pattern id="BGPattern" patternUnits="userSpaceOnUse" alignment="0 0" imageRepeat="None" />
    <mask fill="white" id="Clip3028">
      <path d="M 47.25 24  C 47.25 11.162500000000001  36.8375 0.75  24 0.75  C 11.162500000000001 0.75  0.75 11.162500000000001  0.75 24  C 0.75 36.8375  11.162500000000001 47.25  24 47.25  C 36.8375 47.25  47.25 36.8375  47.25 24  Z M 30.5 12.875  L 30.5 15.806249999999999  C 30.5 16.45  30.19375 17.049999999999997  29.674999999999997 17.424999999999997  L 20.5875 24  L 29.674999999999997 30.56875  C 30.193749999999994 30.94375  30.5 31.550000000000004  30.5 32.1875  L 30.5 35.11875  C 30.5 35.525  30.0375 35.762499999999996  29.706249999999997 35.525  L 14.331249999999997 24.4  C 14.201648998783853 24.306615345234988  14.124848750965551 24.156615768940824  14.124848750965551 23.996874999999992  C 14.124848750965551 23.837134231059167  14.201648998783853 23.687134654765007  14.331249999999997 23.59375  L 29.706249999999997 12.46875  C 30.037499999999994 12.23125  30.5 12.46875  30.5 12.875  Z " fill-rule="evenodd" />
    </mask>
  </defs>
  <g transform="matrix(1 0 0 1 -4 -4 )">
    <path d="M 47.25 24  C 47.25 11.162500000000001  36.8375 0.75  24 0.75  C 11.162500000000001 0.75  0.75 11.162500000000001  0.75 24  C 0.75 36.8375  11.162500000000001 47.25  24 47.25  C 36.8375 47.25  47.25 36.8375  47.25 24  Z M 30.5 12.875  L 30.5 15.806249999999999  C 30.5 16.45  30.19375 17.049999999999997  29.674999999999997 17.424999999999997  L 20.5875 24  L 29.674999999999997 30.56875  C 30.193749999999994 30.94375  30.5 31.550000000000004  30.5 32.1875  L 30.5 35.11875  C 30.5 35.525  30.0375 35.762499999999996  29.706249999999997 35.525  L 14.331249999999997 24.4  C 14.201648998783853 24.306615345234988  14.124848750965551 24.156615768940824  14.124848750965551 23.996874999999992  C 14.124848750965551 23.837134231059167  14.201648998783853 23.687134654765007  14.331249999999997 23.59375  L 29.706249999999997 12.46875  C 30.037499999999994 12.23125  30.5 12.46875  30.5 12.875  Z " fill-rule="nonzero" fill="rgba(230, 230, 230, 1)" stroke="none" transform="matrix(1 0 0 1 4 4 )" class="fill" />
    <path d="M 47.25 24  C 47.25 11.162500000000001  36.8375 0.75  24 0.75  C 11.162500000000001 0.75  0.75 11.162500000000001  0.75 24  C 0.75 36.8375  11.162500000000001 47.25  24 47.25  C 36.8375 47.25  47.25 36.8375  47.25 24  Z " stroke-width="0" stroke-dasharray="0" stroke="rgba(255, 255, 255, 0)" fill="none" transform="matrix(1 0 0 1 4 4 )" class="stroke" mask="url(#Clip3028)" />
    <path d="M 30.5 12.875  L 30.5 15.806249999999999  C 30.5 16.45  30.19375 17.049999999999997  29.674999999999997 17.424999999999997  L 20.5875 24  L 29.674999999999997 30.56875  C 30.193749999999994 30.94375  30.5 31.550000000000004  30.5 32.1875  L 30.5 35.11875  C 30.5 35.525  30.0375 35.762499999999996  29.706249999999997 35.525  L 14.331249999999997 24.4  C 14.201648998783853 24.306615345234988  14.124848750965551 24.156615768940824  14.124848750965551 23.996874999999992  C 14.124848750965551 23.837134231059167  14.201648998783853 23.687134654765007  14.331249999999997 23.59375  L 29.706249999999997 12.46875  C 30.037499999999994 12.23125  30.5 12.46875  30.5 12.875  Z " stroke-width="0" stroke-dasharray="0" stroke="rgba(255, 255, 255, 0)" fill="none" transform="matrix(1 0 0 1 4 4 )" class="stroke" mask="url(#Clip3028)" />
  </g>
</svg>