<?xml version="1.0" encoding="utf-8"?>
<svg version="1.1" xmlns:xlink="http://www.w3.org/1999/xlink" width="25px" height="50px" xmlns="http://www.w3.org/2000/svg">
  <defs>
    <pattern id="BGPattern" patternUnits="userSpaceOnUse" alignment="0 0" imageRepeat="None" />
    <mask fill="white" id="Clip2061">
      <path d="M 15.625 32.08818359374999  C 17.492578125000023 33.169042968750006  18.75 35.18701171875  18.75 37.5  C 18.75 40.951757812500006  15.951757812499977 43.75  12.5 43.75  C 9.048242187500023 43.75  6.25 40.951757812500006  6.25 37.5  C 6.25 35.18701171875  7.507421874999977 33.169042968750006  9.375 32.08818359374999  L 9.375 28.125  C 9.375 26.39912109375001  10.774121093750011 25  12.5 25  C 14.225878906249989 25  15.625 26.39912109375001  15.625 28.125  L 15.625 32.08818359374999  Z M 21.875 9.375  L 21.875 29.233105468750008  C 23.81953125000001 31.436523437500004  25 34.330175781250006  25 37.5  C 25 44.403906250000006  19.40400390625001 50  12.5 50  C 12.470800781249977 50  12.440527343749977 49.999902343749994  12.411230468749977 49.99970703125001  C 5.545800781250023 49.952050781249994  -0.03486328125001137 44.300390625000006  0.00019531250001136866 37.43486328124999  C 0.016210937499977263 34.29052734375  1.19384765625 31.42138671875  3.125 29.233105468750008  L 3.125 9.375  C 3.125 4.197363281250006  7.322363281249977 0  12.5 0  C 17.677636718750023 0  21.875 4.197363281250006  21.875 9.375  Z M 12.5 45.3125  C 16.80781250000001 45.3125  20.3125 41.80781250000001  20.3125 37.5  C 20.3125 34.146582031250006  18.4208984375 32.4033203125  17 31.00566406249999  L 17 9.375  C 17.1875 6.790332031249989  15.084667968750013 4.6875  12.5 4.6875  C 9.915332031249989 4.6875  7.8125 6.790332031249989  8 9.375  L 8 31.00566406249999  C 6.569140624999989 32.414648437500006  4.70458984375 34.14042968749999  4.687597656249977 37.45878906249999  C 4.665722656250011 41.743554687499994  8.160546875000023 45.282617187499994  12.443750000000023 45.31230468749999  L 12.5 45.3125  Z " fill-rule="evenodd" />
    </mask>
  </defs>
  <g>
    <path d="M 15.625 32.08818359374999  C 17.492578125000023 33.169042968750006  18.75 35.18701171875  18.75 37.5  C 18.75 40.951757812500006  15.951757812499977 43.75  12.5 43.75  C 9.048242187500023 43.75  6.25 40.951757812500006  6.25 37.5  C 6.25 35.18701171875  7.507421874999977 33.169042968750006  9.375 32.08818359374999  L 9.375 28.125  C 9.375 26.39912109375001  10.774121093750011 25  12.5 25  C 14.225878906249989 25  15.625 26.39912109375001  15.625 28.125  L 15.625 32.08818359374999  Z M 21.875 9.375  L 21.875 29.233105468750008  C 23.81953125000001 31.436523437500004  25 34.330175781250006  25 37.5  C 25 44.403906250000006  19.40400390625001 50  12.5 50  C 12.470800781249977 50  12.440527343749977 49.999902343749994  12.411230468749977 49.99970703125001  C 5.545800781250023 49.952050781249994  -0.03486328125001137 44.300390625000006  0.00019531250001136866 37.43486328124999  C 0.016210937499977263 34.29052734375  1.19384765625 31.42138671875  3.125 29.233105468750008  L 3.125 9.375  C 3.125 4.197363281250006  7.322363281249977 0  12.5 0  C 17.677636718750023 0  21.875 4.197363281250006  21.875 9.375  Z M 12.5 45.3125  C 16.80781250000001 45.3125  20.3125 41.80781250000001  20.3125 37.5  C 20.3125 34.146582031250006  18.4208984375 32.4033203125  17 31.00566406249999  L 17 9.375  C 17.1875 6.790332031249989  15.084667968750013 4.6875  12.5 4.6875  C 9.915332031249989 4.6875  7.8125 6.790332031249989  8 9.375  L 8 31.00566406249999  C 6.569140624999989 32.414648437500006  4.70458984375 34.14042968749999  4.687597656249977 37.45878906249999  C 4.665722656250011 41.743554687499994  8.160546875000023 45.282617187499994  12.443750000000023 45.31230468749999  L 12.5 45.3125  Z " fill-rule="nonzero" fill="rgba(0, 0, 0, 1)" stroke="none" class="fill" />
    <path d="M 15.625 32.08818359374999  C 17.492578125000023 33.169042968750006  18.75 35.18701171875  18.75 37.5  C 18.75 40.951757812500006  15.951757812499977 43.75  12.5 43.75  C 9.048242187500023 43.75  6.25 40.951757812500006  6.25 37.5  C 6.25 35.18701171875  7.507421874999977 33.169042968750006  9.375 32.08818359374999  L 9.375 28.125  C 9.375 26.39912109375001  10.774121093750011 25  12.5 25  C 14.225878906249989 25  15.625 26.39912109375001  15.625 28.125  L 15.625 32.08818359374999  Z " stroke-width="0" stroke-dasharray="0" stroke="rgba(255, 255, 255, 0)" fill="none" class="stroke" mask="url(#Clip2061)" />
    <path d="M 21.875 9.375  L 21.875 29.233105468750008  C 23.81953125000001 31.436523437500004  25 34.330175781250006  25 37.5  C 25 44.403906250000006  19.40400390625001 50  12.5 50  C 12.470800781249977 50  12.440527343749977 49.999902343749994  12.411230468749977 49.99970703125001  C 5.545800781250023 49.952050781249994  -0.03486328125001137 44.300390625000006  0.00019531250001136866 37.43486328124999  C 0.016210937499977263 34.29052734375  1.19384765625 31.42138671875  3.125 29.233105468750008  L 3.125 9.375  C 3.125 4.197363281250006  7.322363281249977 0  12.5 0  C 17.677636718750023 0  21.875 4.197363281250006  21.875 9.375  Z " stroke-width="0" stroke-dasharray="0" stroke="rgba(255, 255, 255, 0)" fill="none" class="stroke" mask="url(#Clip2061)" />
    <path d="M 12.5 45.3125  C 16.80781250000001 45.3125  20.3125 41.80781250000001  20.3125 37.5  C 20.3125 34.146582031250006  18.4208984375 32.4033203125  17 31.00566406249999  L 17 9.375  C 17.1875 6.790332031249989  15.084667968750013 4.6875  12.5 4.6875  C 9.915332031249989 4.6875  7.8125 6.790332031249989  8 9.375  L 8 31.00566406249999  C 6.569140624999989 32.414648437500006  4.70458984375 34.14042968749999  4.687597656249977 37.45878906249999  C 4.665722656250011 41.743554687499994  8.160546875000023 45.282617187499994  12.443750000000023 45.31230468749999  L 12.5 45.3125  Z " stroke-width="0" stroke-dasharray="0" stroke="rgba(255, 255, 255, 0)" fill="none" class="stroke" mask="url(#Clip2061)" />
  </g>
</svg>