<?xml version="1.0" encoding="utf-8"?>
<svg version="1.1" xmlns:xlink="http://www.w3.org/1999/xlink" width="28px" height="28px" xmlns="http://www.w3.org/2000/svg">
  <defs>
    <pattern id="BGPattern" patternUnits="userSpaceOnUse" alignment="0 0" imageRepeat="None" />
    <mask fill="white" id="Clip3724">
      <path d="M 28 14  C 28 6.199999999999999  21.8 0  14 0  C 6.199999999999999 0  0 6.199999999999999  0 14  C 0 21.8  6.199999999999999 28  14 28  C 21.8 28  28 21.8  28 14  Z M 21 19.4  L 19.4 21  L 7 8.6  L 8.6 7  L 21 19.4  Z " fill-rule="evenodd" />
    </mask>
  </defs>
  <g transform="matrix(1 0 0 1 -2 -2 )">
    <path d="M 28 14  C 28 6.199999999999999  21.8 0  14 0  C 6.199999999999999 0  0 6.199999999999999  0 14  C 0 21.8  6.199999999999999 28  14 28  C 21.8 28  28 21.8  28 14  Z M 21 19.4  L 19.4 21  L 7 8.6  L 8.6 7  L 21 19.4  Z " fill-rule="nonzero" fill="rgba(0, 0, 0, 1)" stroke="none" transform="matrix(1 0 0 1 2 2 )" class="fill" />
    <path d="M 28 14  C 28 6.199999999999999  21.8 0  14 0  C 6.199999999999999 0  0 6.199999999999999  0 14  C 0 21.8  6.199999999999999 28  14 28  C 21.8 28  28 21.8  28 14  Z " stroke-width="0" stroke-dasharray="0" stroke="rgba(255, 255, 255, 0)" fill="none" transform="matrix(1 0 0 1 2 2 )" class="stroke" mask="url(#Clip3724)" />
    <path d="M 21 19.4  L 19.4 21  L 7 8.6  L 8.6 7  L 21 19.4  Z " stroke-width="0" stroke-dasharray="0" stroke="rgba(255, 255, 255, 0)" fill="none" transform="matrix(1 0 0 1 2 2 )" class="stroke" mask="url(#Clip3724)" />
  </g>
</svg>