<?xml version="1.0" encoding="utf-8"?>
<svg version="1.1" xmlns:xlink="http://www.w3.org/1999/xlink" width="18px" height="24px" xmlns="http://www.w3.org/2000/svg">
  <defs>
    <pattern id="BGPattern" patternUnits="userSpaceOnUse" alignment="0 0" imageRepeat="None" />
    <mask fill="white" id="Clip5549">
      <path d="M 18 3  C 18 1.3431457505076196  16.65685424949238 0  15 0  L 3 0  C 1.3431457505076194 0  0 1.3431457505076196  0 3  L 0 21  C 0 22.65685424949238  1.3431457505076194 24  3 24  L 15 24  C 16.65685424949238 24  18 22.65685424949238  18 21  L 18 3  Z M 9 6  C 9.414213562373096 6  9.75 6.335786437626905  9.75 6.75  L 9.75 7.7010000000000005  L 10.5735 7.2255  C 10.68853292347654 7.1580624240364426  10.819465223576529 7.122512476681101  10.95280839038833 7.122512476681101  C 11.367021952761426 7.122512476681101  11.70280839038833 7.458298914308006  11.70280839038833 7.872512476681101  C 11.70280839038833 8.14223644120299  11.557975546144505 8.391187452587388  11.3235 8.5245  L 10.5 9  L 11.3235 9.4755  C 11.557975546144505 9.608812547412612  11.70280839038833 9.85776355879701  11.70280839038833 10.127487523318898  C 11.70280839038833 10.541701085691994  11.367021952761426 10.877487523318898  10.95280839038833 10.877487523318898  C 10.819465223576529 10.877487523318898  10.688532923476538 10.841937575963556  10.5735 10.7745  L 9.75 10.299  L 9.75 11.25  C 9.75 11.664213562373096  9.414213562373096 12  9 12  C 8.585786437626904 12  8.25 11.664213562373096  8.25 11.25  L 8.25 10.299  L 7.426499999999999 10.7745  C 7.31146707652346 10.841937575963557  7.180534776423469 10.877487523318898  7.047191609611668 10.877487523318898  C 6.632978047238572 10.877487523318898  6.297191609611668 10.541701085691994  6.297191609611668 10.127487523318898  C 6.297191609611668 9.85776355879701  6.442024453855492 9.608812547412612  6.676499999999999 9.4755  L 7.5 9  L 6.676499999999999 8.5245  C 6.442024453855494 8.391187452587388  6.297191609611668 8.14223644120299  6.297191609611668 7.872512476681101  C 6.297191609611668 7.458298914308006  6.632978047238572 7.122512476681101  7.047191609611668 7.122512476681101  C 7.180534776423469 7.122512476681101  7.31146707652346 7.158062424036444  7.426499999999999 7.2255  L 8.25 7.7010000000000005  L 8.25 6.75  C 8.25 6.335786437626905  8.585786437626904 6  9 6  Z M 4.5 14.25  C 4.5 13.835786437626904  4.835786437626905 13.5  5.25 13.5  L 12.75 13.5  C 13.164213562373096 13.5  13.5 13.835786437626904  13.5 14.25  C 13.5 14.664213562373096  13.164213562373096 15  12.75 15  L 5.25 15  C 4.835786437626905 15  4.5 14.664213562373096  4.5 14.25  Z M 4.5 17.25  C 4.5 16.835786437626904  4.835786437626905 16.5  5.25 16.5  L 12.75 16.5  C 13.164213562373096 16.5  13.5 16.835786437626904  13.5 17.25  C 13.5 17.664213562373096  13.164213562373096 18  12.75 18  L 5.25 18  C 4.835786437626905 18  4.5 17.664213562373096  4.5 17.25  Z " fill-rule="evenodd" />
    </mask>
  </defs>
  <g>
    <path d="M 18 3  C 18 1.3431457505076196  16.65685424949238 0  15 0  L 3 0  C 1.3431457505076194 0  0 1.3431457505076196  0 3  L 0 21  C 0 22.65685424949238  1.3431457505076194 24  3 24  L 15 24  C 16.65685424949238 24  18 22.65685424949238  18 21  L 18 3  Z M 9 6  C 9.414213562373096 6  9.75 6.335786437626905  9.75 6.75  L 9.75 7.7010000000000005  L 10.5735 7.2255  C 10.68853292347654 7.1580624240364426  10.819465223576529 7.122512476681101  10.95280839038833 7.122512476681101  C 11.367021952761426 7.122512476681101  11.70280839038833 7.458298914308006  11.70280839038833 7.872512476681101  C 11.70280839038833 8.14223644120299  11.557975546144505 8.391187452587388  11.3235 8.5245  L 10.5 9  L 11.3235 9.4755  C 11.557975546144505 9.608812547412612  11.70280839038833 9.85776355879701  11.70280839038833 10.127487523318898  C 11.70280839038833 10.541701085691994  11.367021952761426 10.877487523318898  10.95280839038833 10.877487523318898  C 10.819465223576529 10.877487523318898  10.688532923476538 10.841937575963556  10.5735 10.7745  L 9.75 10.299  L 9.75 11.25  C 9.75 11.664213562373096  9.414213562373096 12  9 12  C 8.585786437626904 12  8.25 11.664213562373096  8.25 11.25  L 8.25 10.299  L 7.426499999999999 10.7745  C 7.31146707652346 10.841937575963557  7.180534776423469 10.877487523318898  7.047191609611668 10.877487523318898  C 6.632978047238572 10.877487523318898  6.297191609611668 10.541701085691994  6.297191609611668 10.127487523318898  C 6.297191609611668 9.85776355879701  6.442024453855492 9.608812547412612  6.676499999999999 9.4755  L 7.5 9  L 6.676499999999999 8.5245  C 6.442024453855494 8.391187452587388  6.297191609611668 8.14223644120299  6.297191609611668 7.872512476681101  C 6.297191609611668 7.458298914308006  6.632978047238572 7.122512476681101  7.047191609611668 7.122512476681101  C 7.180534776423469 7.122512476681101  7.31146707652346 7.158062424036444  7.426499999999999 7.2255  L 8.25 7.7010000000000005  L 8.25 6.75  C 8.25 6.335786437626905  8.585786437626904 6  9 6  Z M 4.5 14.25  C 4.5 13.835786437626904  4.835786437626905 13.5  5.25 13.5  L 12.75 13.5  C 13.164213562373096 13.5  13.5 13.835786437626904  13.5 14.25  C 13.5 14.664213562373096  13.164213562373096 15  12.75 15  L 5.25 15  C 4.835786437626905 15  4.5 14.664213562373096  4.5 14.25  Z M 4.5 17.25  C 4.5 16.835786437626904  4.835786437626905 16.5  5.25 16.5  L 12.75 16.5  C 13.164213562373096 16.5  13.5 16.835786437626904  13.5 17.25  C 13.5 17.664213562373096  13.164213562373096 18  12.75 18  L 5.25 18  C 4.835786437626905 18  4.5 17.664213562373096  4.5 17.25  Z " fill-rule="nonzero" fill="rgba(0, 0, 0, 1)" stroke="none" class="fill" />
    <path d="M 18 3  C 18 1.3431457505076196  16.65685424949238 0  15 0  L 3 0  C 1.3431457505076194 0  0 1.3431457505076196  0 3  L 0 21  C 0 22.65685424949238  1.3431457505076194 24  3 24  L 15 24  C 16.65685424949238 24  18 22.65685424949238  18 21  L 18 3  Z " stroke-width="0" stroke-dasharray="0" stroke="rgba(255, 255, 255, 0)" fill="none" class="stroke" mask="url(#Clip5549)" />
    <path d="M 9 6  C 9.414213562373096 6  9.75 6.335786437626905  9.75 6.75  L 9.75 7.7010000000000005  L 10.5735 7.2255  C 10.68853292347654 7.1580624240364426  10.819465223576529 7.122512476681101  10.95280839038833 7.122512476681101  C 11.367021952761426 7.122512476681101  11.70280839038833 7.458298914308006  11.70280839038833 7.872512476681101  C 11.70280839038833 8.14223644120299  11.557975546144505 8.391187452587388  11.3235 8.5245  L 10.5 9  L 11.3235 9.4755  C 11.557975546144505 9.608812547412612  11.70280839038833 9.85776355879701  11.70280839038833 10.127487523318898  C 11.70280839038833 10.541701085691994  11.367021952761426 10.877487523318898  10.95280839038833 10.877487523318898  C 10.819465223576529 10.877487523318898  10.688532923476538 10.841937575963556  10.5735 10.7745  L 9.75 10.299  L 9.75 11.25  C 9.75 11.664213562373096  9.414213562373096 12  9 12  C 8.585786437626904 12  8.25 11.664213562373096  8.25 11.25  L 8.25 10.299  L 7.426499999999999 10.7745  C 7.31146707652346 10.841937575963557  7.180534776423469 10.877487523318898  7.047191609611668 10.877487523318898  C 6.632978047238572 10.877487523318898  6.297191609611668 10.541701085691994  6.297191609611668 10.127487523318898  C 6.297191609611668 9.85776355879701  6.442024453855492 9.608812547412612  6.676499999999999 9.4755  L 7.5 9  L 6.676499999999999 8.5245  C 6.442024453855494 8.391187452587388  6.297191609611668 8.14223644120299  6.297191609611668 7.872512476681101  C 6.297191609611668 7.458298914308006  6.632978047238572 7.122512476681101  7.047191609611668 7.122512476681101  C 7.180534776423469 7.122512476681101  7.31146707652346 7.158062424036444  7.426499999999999 7.2255  L 8.25 7.7010000000000005  L 8.25 6.75  C 8.25 6.335786437626905  8.585786437626904 6  9 6  Z " stroke-width="0" stroke-dasharray="0" stroke="rgba(255, 255, 255, 0)" fill="none" class="stroke" mask="url(#Clip5549)" />
    <path d="M 4.5 14.25  C 4.5 13.835786437626904  4.835786437626905 13.5  5.25 13.5  L 12.75 13.5  C 13.164213562373096 13.5  13.5 13.835786437626904  13.5 14.25  C 13.5 14.664213562373096  13.164213562373096 15  12.75 15  L 5.25 15  C 4.835786437626905 15  4.5 14.664213562373096  4.5 14.25  Z " stroke-width="0" stroke-dasharray="0" stroke="rgba(255, 255, 255, 0)" fill="none" class="stroke" mask="url(#Clip5549)" />
    <path d="M 4.5 17.25  C 4.5 16.835786437626904  4.835786437626905 16.5  5.25 16.5  L 12.75 16.5  C 13.164213562373096 16.5  13.5 16.835786437626904  13.5 17.25  C 13.5 17.664213562373096  13.164213562373096 18  12.75 18  L 5.25 18  C 4.835786437626905 18  4.5 17.664213562373096  4.5 17.25  Z " stroke-width="0" stroke-dasharray="0" stroke="rgba(255, 255, 255, 0)" fill="none" class="stroke" mask="url(#Clip5549)" />
  </g>
</svg>