<?xml version="1.0" encoding="utf-8"?>
<svg version="1.1" xmlns:xlink="http://www.w3.org/1999/xlink" width="24px" height="26px" xmlns="http://www.w3.org/2000/svg">
  <defs>
    <pattern id="BGPattern" patternUnits="userSpaceOnUse" alignment="0 0" imageRepeat="None" />
    <mask fill="white" id="Clip552">
      <path d="M 6.352 0.5680000000000005  C 6.5120000000000005 0.40800000000000036  6.816000000000001 0.20000000000000062  7.199999999999999 0.20000000000000018  C 7.504 0.20000000000000018  7.808 0.3440000000000003  8.048 0.5680000000000001  L 13.248000000000001 5.752000000000001  C 13.488 5.976000000000001  13.600000000000001 6.296000000000001  13.600000000000001 6.600000000000001  C 13.600000000000001 6.888000000000002  13.488000000000003 7.176000000000002  13.280000000000001 7.400000000000002  C 13.040000000000003 7.656000000000002  12.720000000000002 7.8000000000000025  12.400000000000002 7.8000000000000025  C 12.096000000000004 7.8000000000000025  11.792000000000002 7.672000000000002  11.568000000000001 7.448000000000002  L 8.400000000000002 4.312000000000002  L 8.400000000000002 11.800000000000002  C 8.400000000000002 12.136000000000003  8.256000000000002 12.424000000000003  8.048000000000002 12.648000000000003  C 7.840000000000002 12.872000000000003  7.536000000000001 13.000000000000004  7.200000000000001 13.000000000000004  C 6.864000000000001 13.000000000000004  6.5600000000000005 12.872000000000003  6.336 12.648000000000003  C 6.128 12.440000000000003  6 12.136000000000003  6 11.800000000000002  L 6 4.312000000000002  L 2.848 7.464000000000002  C 2.6239999999999997 7.688000000000003  2.3200000000000003 7.8160000000000025  2.016 7.8160000000000025  C 1.7119999999999997 7.8160000000000025  1.3920000000000003 7.704000000000002  1.1520000000000001 7.448000000000002  C 0.9279999999999999 7.208000000000001  0.7999999999999998 6.904000000000002  0.7999999999999998 6.600000000000001  C 0.7999999999999998 6.296000000000001  0.9279999999999999 5.992000000000001  1.1520000000000001 5.768000000000001  L 6.352 0.5680000000000005  Z M 17.648000000000003 25.432000000000006  C 17.408000000000005 25.656000000000006  17.104000000000003 25.800000000000004  16.8 25.8  C 16.416 25.8  16.112000000000002 25.592000000000002  15.952000000000002 25.432000000000002  L 10.752000000000002 20.232000000000003  C 10.528000000000002 20.008000000000003  10.400000000000002 19.704000000000004  10.400000000000002 19.400000000000002  C 10.400000000000002 19.096  10.528000000000002 18.792  10.752000000000002 18.552000000000003  C 10.992000000000003 18.296000000000003  11.312000000000003 18.184000000000005  11.616000000000003 18.184000000000005  C 11.920000000000003 18.184000000000005  12.224000000000004 18.312000000000005  12.448000000000004 18.536000000000005  L 15.600000000000005 21.688000000000006  L 15.600000000000005 14.200000000000006  C 15.600000000000005 13.864000000000008  15.728000000000005 13.560000000000006  15.936000000000003 13.352000000000007  C 16.160000000000004 13.128000000000009  16.464000000000002 13.000000000000005  16.800000000000004 13.000000000000005  C 17.136000000000006 13.000000000000005  17.440000000000005 13.128000000000009  17.648000000000003 13.352000000000007  C 17.856 13.576000000000008  18.000000000000004 13.864000000000008  18.000000000000004 14.200000000000006  L 18.000000000000004 21.688000000000006  L 21.168000000000003 18.552000000000007  C 21.392000000000003 18.328000000000007  21.696 18.200000000000006  22.000000000000004 18.200000000000006  C 22.320000000000004 18.200000000000006  22.640000000000004 18.344000000000005  22.880000000000003 18.600000000000005  C 23.088 18.824000000000005  23.200000000000003 19.112000000000005  23.200000000000003 19.400000000000006  C 23.200000000000003 19.704000000000004  23.088000000000005 20.024000000000004  22.848000000000003 20.248000000000005  L 17.648000000000003 25.432000000000006  Z " fill-rule="evenodd" />
    </mask>
  </defs>
  <g>
    <path d="M 6.352 0.5680000000000005  C 6.5120000000000005 0.40800000000000036  6.816000000000001 0.20000000000000062  7.199999999999999 0.20000000000000018  C 7.504 0.20000000000000018  7.808 0.3440000000000003  8.048 0.5680000000000001  L 13.248000000000001 5.752000000000001  C 13.488 5.976000000000001  13.600000000000001 6.296000000000001  13.600000000000001 6.600000000000001  C 13.600000000000001 6.888000000000002  13.488000000000003 7.176000000000002  13.280000000000001 7.400000000000002  C 13.040000000000003 7.656000000000002  12.720000000000002 7.8000000000000025  12.400000000000002 7.8000000000000025  C 12.096000000000004 7.8000000000000025  11.792000000000002 7.672000000000002  11.568000000000001 7.448000000000002  L 8.400000000000002 4.312000000000002  L 8.400000000000002 11.800000000000002  C 8.400000000000002 12.136000000000003  8.256000000000002 12.424000000000003  8.048000000000002 12.648000000000003  C 7.840000000000002 12.872000000000003  7.536000000000001 13.000000000000004  7.200000000000001 13.000000000000004  C 6.864000000000001 13.000000000000004  6.5600000000000005 12.872000000000003  6.336 12.648000000000003  C 6.128 12.440000000000003  6 12.136000000000003  6 11.800000000000002  L 6 4.312000000000002  L 2.848 7.464000000000002  C 2.6239999999999997 7.688000000000003  2.3200000000000003 7.8160000000000025  2.016 7.8160000000000025  C 1.7119999999999997 7.8160000000000025  1.3920000000000003 7.704000000000002  1.1520000000000001 7.448000000000002  C 0.9279999999999999 7.208000000000001  0.7999999999999998 6.904000000000002  0.7999999999999998 6.600000000000001  C 0.7999999999999998 6.296000000000001  0.9279999999999999 5.992000000000001  1.1520000000000001 5.768000000000001  L 6.352 0.5680000000000005  Z M 17.648000000000003 25.432000000000006  C 17.408000000000005 25.656000000000006  17.104000000000003 25.800000000000004  16.8 25.8  C 16.416 25.8  16.112000000000002 25.592000000000002  15.952000000000002 25.432000000000002  L 10.752000000000002 20.232000000000003  C 10.528000000000002 20.008000000000003  10.400000000000002 19.704000000000004  10.400000000000002 19.400000000000002  C 10.400000000000002 19.096  10.528000000000002 18.792  10.752000000000002 18.552000000000003  C 10.992000000000003 18.296000000000003  11.312000000000003 18.184000000000005  11.616000000000003 18.184000000000005  C 11.920000000000003 18.184000000000005  12.224000000000004 18.312000000000005  12.448000000000004 18.536000000000005  L 15.600000000000005 21.688000000000006  L 15.600000000000005 14.200000000000006  C 15.600000000000005 13.864000000000008  15.728000000000005 13.560000000000006  15.936000000000003 13.352000000000007  C 16.160000000000004 13.128000000000009  16.464000000000002 13.000000000000005  16.800000000000004 13.000000000000005  C 17.136000000000006 13.000000000000005  17.440000000000005 13.128000000000009  17.648000000000003 13.352000000000007  C 17.856 13.576000000000008  18.000000000000004 13.864000000000008  18.000000000000004 14.200000000000006  L 18.000000000000004 21.688000000000006  L 21.168000000000003 18.552000000000007  C 21.392000000000003 18.328000000000007  21.696 18.200000000000006  22.000000000000004 18.200000000000006  C 22.320000000000004 18.200000000000006  22.640000000000004 18.344000000000005  22.880000000000003 18.600000000000005  C 23.088 18.824000000000005  23.200000000000003 19.112000000000005  23.200000000000003 19.400000000000006  C 23.200000000000003 19.704000000000004  23.088000000000005 20.024000000000004  22.848000000000003 20.248000000000005  L 17.648000000000003 25.432000000000006  Z " fill-rule="nonzero" fill="rgba(0, 0, 0, 1)" stroke="none" class="fill" />
    <path d="M 6.352 0.5680000000000005  C 6.5120000000000005 0.40800000000000036  6.816000000000001 0.20000000000000062  7.199999999999999 0.20000000000000018  C 7.504 0.20000000000000018  7.808 0.3440000000000003  8.048 0.5680000000000001  L 13.248000000000001 5.752000000000001  C 13.488 5.976000000000001  13.600000000000001 6.296000000000001  13.600000000000001 6.600000000000001  C 13.600000000000001 6.888000000000002  13.488000000000003 7.176000000000002  13.280000000000001 7.400000000000002  C 13.040000000000003 7.656000000000002  12.720000000000002 7.8000000000000025  12.400000000000002 7.8000000000000025  C 12.096000000000004 7.8000000000000025  11.792000000000002 7.672000000000002  11.568000000000001 7.448000000000002  L 8.400000000000002 4.312000000000002  L 8.400000000000002 11.800000000000002  C 8.400000000000002 12.136000000000003  8.256000000000002 12.424000000000003  8.048000000000002 12.648000000000003  C 7.840000000000002 12.872000000000003  7.536000000000001 13.000000000000004  7.200000000000001 13.000000000000004  C 6.864000000000001 13.000000000000004  6.5600000000000005 12.872000000000003  6.336 12.648000000000003  C 6.128 12.440000000000003  6 12.136000000000003  6 11.800000000000002  L 6 4.312000000000002  L 2.848 7.464000000000002  C 2.6239999999999997 7.688000000000003  2.3200000000000003 7.8160000000000025  2.016 7.8160000000000025  C 1.7119999999999997 7.8160000000000025  1.3920000000000003 7.704000000000002  1.1520000000000001 7.448000000000002  C 0.9279999999999999 7.208000000000001  0.7999999999999998 6.904000000000002  0.7999999999999998 6.600000000000001  C 0.7999999999999998 6.296000000000001  0.9279999999999999 5.992000000000001  1.1520000000000001 5.768000000000001  L 6.352 0.5680000000000005  Z " stroke-width="0" stroke-dasharray="0" stroke="rgba(255, 255, 255, 0)" fill="none" class="stroke" mask="url(#Clip552)" />
    <path d="M 17.648000000000003 25.432000000000006  C 17.408000000000005 25.656000000000006  17.104000000000003 25.800000000000004  16.8 25.8  C 16.416 25.8  16.112000000000002 25.592000000000002  15.952000000000002 25.432000000000002  L 10.752000000000002 20.232000000000003  C 10.528000000000002 20.008000000000003  10.400000000000002 19.704000000000004  10.400000000000002 19.400000000000002  C 10.400000000000002 19.096  10.528000000000002 18.792  10.752000000000002 18.552000000000003  C 10.992000000000003 18.296000000000003  11.312000000000003 18.184000000000005  11.616000000000003 18.184000000000005  C 11.920000000000003 18.184000000000005  12.224000000000004 18.312000000000005  12.448000000000004 18.536000000000005  L 15.600000000000005 21.688000000000006  L 15.600000000000005 14.200000000000006  C 15.600000000000005 13.864000000000008  15.728000000000005 13.560000000000006  15.936000000000003 13.352000000000007  C 16.160000000000004 13.128000000000009  16.464000000000002 13.000000000000005  16.800000000000004 13.000000000000005  C 17.136000000000006 13.000000000000005  17.440000000000005 13.128000000000009  17.648000000000003 13.352000000000007  C 17.856 13.576000000000008  18.000000000000004 13.864000000000008  18.000000000000004 14.200000000000006  L 18.000000000000004 21.688000000000006  L 21.168000000000003 18.552000000000007  C 21.392000000000003 18.328000000000007  21.696 18.200000000000006  22.000000000000004 18.200000000000006  C 22.320000000000004 18.200000000000006  22.640000000000004 18.344000000000005  22.880000000000003 18.600000000000005  C 23.088 18.824000000000005  23.200000000000003 19.112000000000005  23.200000000000003 19.400000000000006  C 23.200000000000003 19.704000000000004  23.088000000000005 20.024000000000004  22.848000000000003 20.248000000000005  L 17.648000000000003 25.432000000000006  Z " stroke-width="0" stroke-dasharray="0" stroke="rgba(255, 255, 255, 0)" fill="none" class="stroke" mask="url(#Clip552)" />
  </g>
</svg>