<?xml version="1.0" encoding="utf-8"?>
<svg version="1.1" xmlns:xlink="http://www.w3.org/1999/xlink" width="50px" height="38px" xmlns="http://www.w3.org/2000/svg">
  <defs>
    <pattern id="BGPattern" patternUnits="userSpaceOnUse" alignment="0 0" imageRepeat="None" />
    <mask fill="white" id="Clip1641">
      <path d="M 45.625 9  C 47.9150390625 8.967383123478669  50 10.973535445363497  50 13.24726588933197  C 50 15.554394770436431  47.9833984375 17.52714865518527  45.625 17.52714865518527  L 35.873925781249994 17.52714865518527  C 37.469628906249994 19.191992387040045  37.66552734375 22.387109539716278  35.2587890625 24.45527357967524  C 36.65410156249999 26.684668086626914  35.46845703125001 29.63271492949599  33.65234375 30.540722732099535  C 34.528710937499994 35.33964846104578  31.509179687499994 37.5  26.5625 37.5  C 26.294335937499998 37.5  25.266015624999994 37.48017578146607  25 37.480957031457535  C 18.948144531249994 37.49736328127875  17.490820312500006 34.44726565827193  12.916894531249994 33.73925785348854  C 11.776953125000006 33.562793011661824  10.9375 32.57802739739486  11 31.424414128718183  L 11 14.673926030032703  L 10.937695312500011 14.67382837378375  C 10.938769531249989 12.880273705831826  11.973535156249994 11.169043255732618  13.717382812500006 10.392090139200718  C 16.53828125000001 9.123144840530983  23.035058593749994 5.603223003894811  24.21875 2.8410160027502798  C 24.98017578125001 1.064258209615275  26.307031249999994 0.0007816587061597602  28.125 0  C 31.466992187500008 -0.00136677877043212  33.76484375000001 3.42753943385776  32.433496093749994 6.5339847125003985  C 32.083593750000006 7.350293297353403  31.62177734375001 8.161914382257521  31.051367187500006 9  L 45.625 9  Z M 7.03125 10.937500289506259  C 8.32568359375 10.937500289506259  9.375 11.986816684319649  10 13.281250263961567  L 10 32.03125005960425  C 9.375 33.32568363924611  8.32568359375 34.37500003405955  7.03125 34.37500003405955  L 2.34375 34.37500003405955  C 1.04931640625 34.37500003405955  0 33.32568363924611  0 32.03125005960425  L 0 13.281250263961567  C 0 11.986816684319649  1.04931640625 10.937500289506259  2.34375 10.937500289506259  L 7.03125 10.937500289506259  Z M 4.6875 31.64062506386165  C 5.766210937500006 31.64062506386165  6.640625 30.766211010891936  6.640625 29.687500085148883  C 6.640625 28.60878915940583  5.766210937500006 27.73437510643612  4.6875 27.73437510643612  C 3.6087890624999943 27.73437510643612  2.734375 28.60878915940583  2.734375 29.687500085148883  C 2.734375 30.766211010891936  3.6087890624999943 31.64062506386165  4.6875 31.64062506386165  Z " fill-rule="evenodd" />
    </mask>
  </defs>
  <g>
    <path d="M 45.625 9  C 47.9150390625 8.967383123478669  50 10.973535445363497  50 13.24726588933197  C 50 15.554394770436431  47.9833984375 17.52714865518527  45.625 17.52714865518527  L 35.873925781249994 17.52714865518527  C 37.469628906249994 19.191992387040045  37.66552734375 22.387109539716278  35.2587890625 24.45527357967524  C 36.65410156249999 26.684668086626914  35.46845703125001 29.63271492949599  33.65234375 30.540722732099535  C 34.528710937499994 35.33964846104578  31.509179687499994 37.5  26.5625 37.5  C 26.294335937499998 37.5  25.266015624999994 37.48017578146607  25 37.480957031457535  C 18.948144531249994 37.49736328127875  17.490820312500006 34.44726565827193  12.916894531249994 33.73925785348854  C 11.776953125000006 33.562793011661824  10.9375 32.57802739739486  11 31.424414128718183  L 11 14.673926030032703  L 10.937695312500011 14.67382837378375  C 10.938769531249989 12.880273705831826  11.973535156249994 11.169043255732618  13.717382812500006 10.392090139200718  C 16.53828125000001 9.123144840530983  23.035058593749994 5.603223003894811  24.21875 2.8410160027502798  C 24.98017578125001 1.064258209615275  26.307031249999994 0.0007816587061597602  28.125 0  C 31.466992187500008 -0.00136677877043212  33.76484375000001 3.42753943385776  32.433496093749994 6.5339847125003985  C 32.083593750000006 7.350293297353403  31.62177734375001 8.161914382257521  31.051367187500006 9  L 45.625 9  Z M 7.03125 10.937500289506259  C 8.32568359375 10.937500289506259  9.375 11.986816684319649  10 13.281250263961567  L 10 32.03125005960425  C 9.375 33.32568363924611  8.32568359375 34.37500003405955  7.03125 34.37500003405955  L 2.34375 34.37500003405955  C 1.04931640625 34.37500003405955  0 33.32568363924611  0 32.03125005960425  L 0 13.281250263961567  C 0 11.986816684319649  1.04931640625 10.937500289506259  2.34375 10.937500289506259  L 7.03125 10.937500289506259  Z M 4.6875 31.64062506386165  C 5.766210937500006 31.64062506386165  6.640625 30.766211010891936  6.640625 29.687500085148883  C 6.640625 28.60878915940583  5.766210937500006 27.73437510643612  4.6875 27.73437510643612  C 3.6087890624999943 27.73437510643612  2.734375 28.60878915940583  2.734375 29.687500085148883  C 2.734375 30.766211010891936  3.6087890624999943 31.64062506386165  4.6875 31.64062506386165  Z " fill-rule="nonzero" fill="rgba(0, 0, 0, 1)" stroke="none" class="fill" />
    <path d="M 45.625 9  C 47.9150390625 8.967383123478669  50 10.973535445363497  50 13.24726588933197  C 50 15.554394770436431  47.9833984375 17.52714865518527  45.625 17.52714865518527  L 35.873925781249994 17.52714865518527  C 37.469628906249994 19.191992387040045  37.66552734375 22.387109539716278  35.2587890625 24.45527357967524  C 36.65410156249999 26.684668086626914  35.46845703125001 29.63271492949599  33.65234375 30.540722732099535  C 34.528710937499994 35.33964846104578  31.509179687499994 37.5  26.5625 37.5  C 26.294335937499998 37.5  25.266015624999994 37.48017578146607  25 37.480957031457535  C 18.948144531249994 37.49736328127875  17.490820312500006 34.44726565827193  12.916894531249994 33.73925785348854  C 11.776953125000006 33.562793011661824  10.9375 32.57802739739486  11 31.424414128718183  L 11 14.673926030032703  L 10.937695312500011 14.67382837378375  C 10.938769531249989 12.880273705831826  11.973535156249994 11.169043255732618  13.717382812500006 10.392090139200718  C 16.53828125000001 9.123144840530983  23.035058593749994 5.603223003894811  24.21875 2.8410160027502798  C 24.98017578125001 1.064258209615275  26.307031249999994 0.0007816587061597602  28.125 0  C 31.466992187500008 -0.00136677877043212  33.76484375000001 3.42753943385776  32.433496093749994 6.5339847125003985  C 32.083593750000006 7.350293297353403  31.62177734375001 8.161914382257521  31.051367187500006 9  L 45.625 9  Z " stroke-width="0" stroke-dasharray="0" stroke="rgba(255, 255, 255, 0)" fill="none" class="stroke" mask="url(#Clip1641)" />
    <path d="M 7.03125 10.937500289506259  C 8.32568359375 10.937500289506259  9.375 11.986816684319649  10 13.281250263961567  L 10 32.03125005960425  C 9.375 33.32568363924611  8.32568359375 34.37500003405955  7.03125 34.37500003405955  L 2.34375 34.37500003405955  C 1.04931640625 34.37500003405955  0 33.32568363924611  0 32.03125005960425  L 0 13.281250263961567  C 0 11.986816684319649  1.04931640625 10.937500289506259  2.34375 10.937500289506259  L 7.03125 10.937500289506259  Z " stroke-width="0" stroke-dasharray="0" stroke="rgba(255, 255, 255, 0)" fill="none" class="stroke" mask="url(#Clip1641)" />
    <path d="M 4.6875 31.64062506386165  C 5.766210937500006 31.64062506386165  6.640625 30.766211010891936  6.640625 29.687500085148883  C 6.640625 28.60878915940583  5.766210937500006 27.73437510643612  4.6875 27.73437510643612  C 3.6087890624999943 27.73437510643612  2.734375 28.60878915940583  2.734375 29.687500085148883  C 2.734375 30.766211010891936  3.6087890624999943 31.64062506386165  4.6875 31.64062506386165  Z " stroke-width="0" stroke-dasharray="0" stroke="rgba(255, 255, 255, 0)" fill="none" class="stroke" mask="url(#Clip1641)" />
  </g>
</svg>