<?xml version="1.0" encoding="utf-8"?>
<svg version="1.1" xmlns:xlink="http://www.w3.org/1999/xlink" width="48px" height="34px" xmlns="http://www.w3.org/2000/svg">
  <defs>
    <pattern id="BGPattern" patternUnits="userSpaceOnUse" alignment="0 0" imageRepeat="None" />
    <mask fill="white" id="Clip6733">
      <path d="M 48 2.5600000000000005  C 47.992 2.208  47.884 1.8559999999999999  47.672 1.5399999999999991  C 47.092 0.7139999999999995  45.952 0.5099999999999989  45.126 1.0879999999999992  L 0.326 32.46  C 0.66 32.93  1.2 33.24  1.82 33  L 46.18 33  C 47.186 33.24  48 32.42  48 31.412  L 48 2.5600000000000005  Z M 2.8739999999999988 1.0839999999999925  L 2.872 1.0879999999999992  C 2.046 0.5079999999999991  0.9079999999999999 0.7079999999999993  0.32799999999999985 1.5399999999999991  C 0.11399999999999985 1.847999999999999  0.003999999999999837 2.203999999999999  0 2.5599999999999987  L 0 31.459999999999994  L 21.328 13.987999999999992  L 2.8739999999999988 1.087999999999992  L 2.8739999999999988 1.0839999999999925  Z " fill-rule="evenodd" />
    </mask>
  </defs>
  <g>
    <path d="M 48 2.5600000000000005  C 47.992 2.208  47.884 1.8559999999999999  47.672 1.5399999999999991  C 47.092 0.7139999999999995  45.952 0.5099999999999989  45.126 1.0879999999999992  L 0.326 32.46  C 0.66 32.93  1.2 33.24  1.82 33  L 46.18 33  C 47.186 33.24  48 32.42  48 31.412  L 48 2.5600000000000005  Z M 2.8739999999999988 1.0839999999999925  L 2.872 1.0879999999999992  C 2.046 0.5079999999999991  0.9079999999999999 0.7079999999999993  0.32799999999999985 1.5399999999999991  C 0.11399999999999985 1.847999999999999  0.003999999999999837 2.203999999999999  0 2.5599999999999987  L 0 31.459999999999994  L 21.328 13.987999999999992  L 2.8739999999999988 1.087999999999992  L 2.8739999999999988 1.0839999999999925  Z " fill-rule="nonzero" fill="rgba(17, 19, 36, 1)" stroke="none" class="fill" />
    <path d="M 48 2.5600000000000005  C 47.992 2.208  47.884 1.8559999999999999  47.672 1.5399999999999991  C 47.092 0.7139999999999995  45.952 0.5099999999999989  45.126 1.0879999999999992  L 0.326 32.46  C 0.66 32.93  1.2 33.24  1.82 33  L 46.18 33  C 47.186 33.24  48 32.42  48 31.412  L 48 2.5600000000000005  Z " stroke-width="0" stroke-dasharray="0" stroke="rgba(255, 255, 255, 0)" fill="none" class="stroke" mask="url(#Clip6733)" />
    <path d="M 2.8739999999999988 1.0839999999999925  L 2.872 1.0879999999999992  C 2.046 0.5079999999999991  0.9079999999999999 0.7079999999999993  0.32799999999999985 1.5399999999999991  C 0.11399999999999985 1.847999999999999  0.003999999999999837 2.203999999999999  0 2.5599999999999987  L 0 31.459999999999994  L 21.328 13.987999999999992  L 2.8739999999999988 1.087999999999992  L 2.8739999999999988 1.0839999999999925  Z " stroke-width="0" stroke-dasharray="0" stroke="rgba(255, 255, 255, 0)" fill="none" class="stroke" mask="url(#Clip6733)" />
  </g>
</svg>