<?xml version="1.0" encoding="utf-8"?>
<svg version="1.1" xmlns:xlink="http://www.w3.org/1999/xlink" width="18px" height="24px" xmlns="http://www.w3.org/2000/svg">
  <defs>
    <pattern id="BGPattern" patternUnits="userSpaceOnUse" alignment="0 0" imageRepeat="None" />
    <mask fill="white" id="Clip5342">
      <path d="M 0 15  C 0 19.970562748477143  4.029437251522858 24  9 24  C 13.970562748477139 24  17.999999999999996 19.97056274847714  18 15  C 18 12.517500000000002  16.317 10.644  14.352 8.457  C 12.381 6.264  10.125 3.7545  9 0  C 9 0  0 8.529  0 15  Z M 3.8294999999999995 11.664  C 5.061 9.2025  6.404999999999999 7.5344999999999995  6.968999999999999 6.968999999999999  L 8.031 8.031  C 7.5945 8.466000000000001  6.3405000000000005 9.9975  5.1705000000000005 12.336  L 3.8294999999999995 11.664  Z " fill-rule="evenodd" />
    </mask>
  </defs>
  <g>
    <path d="M 0 15  C 0 19.970562748477143  4.029437251522858 24  9 24  C 13.970562748477139 24  17.999999999999996 19.97056274847714  18 15  C 18 12.517500000000002  16.317 10.644  14.352 8.457  C 12.381 6.264  10.125 3.7545  9 0  C 9 0  0 8.529  0 15  Z M 3.8294999999999995 11.664  C 5.061 9.2025  6.404999999999999 7.5344999999999995  6.968999999999999 6.968999999999999  L 8.031 8.031  C 7.5945 8.466000000000001  6.3405000000000005 9.9975  5.1705000000000005 12.336  L 3.8294999999999995 11.664  Z " fill-rule="nonzero" fill="rgba(0, 0, 0, 1)" stroke="none" class="fill" />
    <path d="M 0 15  C 0 19.970562748477143  4.029437251522858 24  9 24  C 13.970562748477139 24  17.999999999999996 19.97056274847714  18 15  C 18 12.517500000000002  16.317 10.644  14.352 8.457  C 12.381 6.264  10.125 3.7545  9 0  C 9 0  0 8.529  0 15  Z " stroke-width="0" stroke-dasharray="0" stroke="rgba(255, 255, 255, 0)" fill="none" class="stroke" mask="url(#Clip5342)" />
    <path d="M 3.8294999999999995 11.664  C 5.061 9.2025  6.404999999999999 7.5344999999999995  6.968999999999999 6.968999999999999  L 8.031 8.031  C 7.5945 8.466000000000001  6.3405000000000005 9.9975  5.1705000000000005 12.336  L 3.8294999999999995 11.664  Z " stroke-width="0" stroke-dasharray="0" stroke="rgba(255, 255, 255, 0)" fill="none" class="stroke" mask="url(#Clip5342)" />
  </g>
</svg>