<?xml version="1.0" encoding="utf-8"?>
<svg version="1.1" xmlns:xlink="http://www.w3.org/1999/xlink" width="24px" height="4px" xmlns="http://www.w3.org/2000/svg">
  <defs>
    <pattern id="BGPattern" patternUnits="userSpaceOnUse" alignment="0 0" imageRepeat="None" />
    <mask fill="white" id="Clip5289">
      <path d="M 1.5 3.5  C 0.6715728752538098 3.5  0 2.82842712474619  0 2  C 0 1.1715728752538102  0.6715728752538098 0.5  1.5 0.5  L 22.5 0.5  C 23.32842712474619 0.5  24 1.1715728752538102  24 2  C 24 2.82842712474619  23.32842712474619 3.5  22.5 3.5  L 1.5 3.5  Z " fill-rule="evenodd" />
    </mask>
  </defs>
  <g>
    <path d="M 1.5 3.5  C 0.6715728752538098 3.5  0 2.82842712474619  0 2  C 0 1.1715728752538102  0.6715728752538098 0.5  1.5 0.5  L 22.5 0.5  C 23.32842712474619 0.5  24 1.1715728752538102  24 2  C 24 2.82842712474619  23.32842712474619 3.5  22.5 3.5  L 1.5 3.5  Z " fill-rule="nonzero" fill="rgba(0, 0, 0, 1)" stroke="none" class="fill" />
    <path d="M 1.5 3.5  C 0.6715728752538098 3.5  0 2.82842712474619  0 2  C 0 1.1715728752538102  0.6715728752538098 0.5  1.5 0.5  L 22.5 0.5  C 23.32842712474619 0.5  24 1.1715728752538102  24 2  C 24 2.82842712474619  23.32842712474619 3.5  22.5 3.5  L 1.5 3.5  Z " stroke-width="0" stroke-dasharray="0" stroke="rgba(255, 255, 255, 0)" fill="none" class="stroke" mask="url(#Clip5289)" />
  </g>
</svg>