<?xml version="1.0" encoding="utf-8"?>
<svg version="1.1" xmlns:xlink="http://www.w3.org/1999/xlink" width="50px" height="47px" xmlns="http://www.w3.org/2000/svg">
  <defs>
    <pattern id="BGPattern" patternUnits="userSpaceOnUse" alignment="0 0" imageRepeat="None" />
    <mask fill="white" id="Clip799">
      <path d="M 0.1884015594541779 26.287134502924008  L 3.0001949317738763 17.71267056530212  L 25.04873294346976 46.36588693957117  L 0.8844054580896454 28.43070175438595  C 0.21617933723194938 27.929532163742696  -0.062183235867451 27.06656920077972  0.1884015594541779 26.287134502924008  Z M 15.86189083820665 18  L 10.34961013645227 0.6750487329434804  C 10.043372319688103 -0.18791423001948715  8.818518518518545 -0.18791423001948715  8.512280701754378 0.6750487329434804  L 3.0001949317738763 18  L 15.86189083820665 18  Z M 34.235575048732926 18  L 15.86189083820665 18  L 25.04873294346976 46.36588693957117  L 34.235575048732926 18  Z M 49.21306042884987 28.43070175438595  C 49.881189083820686 27.929532163742696  50.15955165692009 27.06656920077972  49.909064327485396 26.287134502924008  L 47.0972709551657 17.712670565302176  L 25.04873294346976 46.36588693957117  L 49.21306042884987 28.43070175438595  Z M 47.0972709551657 18  L 41.58508771929826 0.6750487329434804  C 41.27884990253409 -0.18791423001948715  40.05399610136453 -0.18791423001948715  39.74775828460042 0.6750487329434804  L 34.235575048732926 18  L 47.0972709551657 18  Z " fill-rule="evenodd" />
    </mask>
  </defs>
  <g>
    <path d="M 0.1884015594541779 26.287134502924008  L 3.0001949317738763 17.71267056530212  L 25.04873294346976 46.36588693957117  L 0.8844054580896454 28.43070175438595  C 0.21617933723194938 27.929532163742696  -0.062183235867451 27.06656920077972  0.1884015594541779 26.287134502924008  Z M 15.86189083820665 18  L 10.34961013645227 0.6750487329434804  C 10.043372319688103 -0.18791423001948715  8.818518518518545 -0.18791423001948715  8.512280701754378 0.6750487329434804  L 3.0001949317738763 18  L 15.86189083820665 18  Z M 34.235575048732926 18  L 15.86189083820665 18  L 25.04873294346976 46.36588693957117  L 34.235575048732926 18  Z M 49.21306042884987 28.43070175438595  C 49.881189083820686 27.929532163742696  50.15955165692009 27.06656920077972  49.909064327485396 26.287134502924008  L 47.0972709551657 17.712670565302176  L 25.04873294346976 46.36588693957117  L 49.21306042884987 28.43070175438595  Z M 47.0972709551657 18  L 41.58508771929826 0.6750487329434804  C 41.27884990253409 -0.18791423001948715  40.05399610136453 -0.18791423001948715  39.74775828460042 0.6750487329434804  L 34.235575048732926 18  L 47.0972709551657 18  Z " fill-rule="nonzero" fill="rgba(0, 0, 0, 1)" stroke="none" class="fill" />
    <path d="M 0.1884015594541779 26.287134502924008  L 3.0001949317738763 17.71267056530212  L 25.04873294346976 46.36588693957117  L 0.8844054580896454 28.43070175438595  C 0.21617933723194938 27.929532163742696  -0.062183235867451 27.06656920077972  0.1884015594541779 26.287134502924008  Z " stroke-width="0" stroke-dasharray="0" stroke="rgba(255, 255, 255, 0)" fill="none" class="stroke" mask="url(#Clip799)" />
    <path d="M 15.86189083820665 18  L 10.34961013645227 0.6750487329434804  C 10.043372319688103 -0.18791423001948715  8.818518518518545 -0.18791423001948715  8.512280701754378 0.6750487329434804  L 3.0001949317738763 18  L 15.86189083820665 18  Z " stroke-width="0" stroke-dasharray="0" stroke="rgba(255, 255, 255, 0)" fill="none" class="stroke" mask="url(#Clip799)" />
    <path d="M 34.235575048732926 18  L 15.86189083820665 18  L 25.04873294346976 46.36588693957117  L 34.235575048732926 18  Z " stroke-width="0" stroke-dasharray="0" stroke="rgba(255, 255, 255, 0)" fill="none" class="stroke" mask="url(#Clip799)" />
    <path d="M 49.21306042884987 28.43070175438595  C 49.881189083820686 27.929532163742696  50.15955165692009 27.06656920077972  49.909064327485396 26.287134502924008  L 47.0972709551657 17.712670565302176  L 25.04873294346976 46.36588693957117  L 49.21306042884987 28.43070175438595  Z " stroke-width="0" stroke-dasharray="0" stroke="rgba(255, 255, 255, 0)" fill="none" class="stroke" mask="url(#Clip799)" />
    <path d="M 47.0972709551657 18  L 41.58508771929826 0.6750487329434804  C 41.27884990253409 -0.18791423001948715  40.05399610136453 -0.18791423001948715  39.74775828460042 0.6750487329434804  L 34.235575048732926 18  L 47.0972709551657 18  Z " stroke-width="0" stroke-dasharray="0" stroke="rgba(255, 255, 255, 0)" fill="none" class="stroke" mask="url(#Clip799)" />
  </g>
</svg>