<?xml version="1.0" encoding="utf-8"?>
<svg version="1.1" xmlns:xlink="http://www.w3.org/1999/xlink" width="64px" height="45px" xmlns="http://www.w3.org/2000/svg">
  <defs>
    <pattern id="BGPattern" patternUnits="userSpaceOnUse" alignment="0 0" imageRepeat="None" />
    <mask fill="white" id="Clip2164">
      <path d="M 51 41.22656249999999  C 51.125 43.20702109509636  49.51952109509636 44.81249999999999  47.5390625 44  L 32.3984375 44  C 30.41797890490364 44.81249999999999  28.8125 43.20702109509636  29 41.2265625  L 29 6.5625  L 20 6.5625  L 20 22.1015625  C 19.25 24.08202109509636  17.64452109509636 25.6875  15.664062500000002 25  L 1.7187500000000018 25  C 0.8385461799571747 25.6875  0.12500000000000178 24.973953820042826  0.12500000000000178 24.09375  L 0.12500000000000178 20.90625  C 0.12500000000000178 20.026046179957174  0.8385461799571747 19.3125  1.7187500000000018 20  L 13 20  L 13 3.7734374999999996  C 12.875000000000002 1.7929789049036389  14.48047890490364 0.1875  16.4609375 1  L 31.601562499999993 1  C 33.58202109509636 0.1875  35.18749999999999 1.7929789049036389  35 3.7734374999999996  L 35 38.4375  L 44 38.4375  L 44 22.898437500000004  C 44.74999999999999 20.917978904903634  46.355478904903634 19.312499999999996  48.3359375 20  L 62.28125 20  C 63.16145382004283 19.3125  63.875 20.026046179957174  63.875 20.90625  L 63.875 24.09375  C 63.875 24.973953820042826  63.16145382004283 25.6875  62.28125 25  L 51 25  L 51 41.22656249999999  Z " fill-rule="evenodd" />
    </mask>
  </defs>
  <g>
    <path d="M 51 41.22656249999999  C 51.125 43.20702109509636  49.51952109509636 44.81249999999999  47.5390625 44  L 32.3984375 44  C 30.41797890490364 44.81249999999999  28.8125 43.20702109509636  29 41.2265625  L 29 6.5625  L 20 6.5625  L 20 22.1015625  C 19.25 24.08202109509636  17.64452109509636 25.6875  15.664062500000002 25  L 1.7187500000000018 25  C 0.8385461799571747 25.6875  0.12500000000000178 24.973953820042826  0.12500000000000178 24.09375  L 0.12500000000000178 20.90625  C 0.12500000000000178 20.026046179957174  0.8385461799571747 19.3125  1.7187500000000018 20  L 13 20  L 13 3.7734374999999996  C 12.875000000000002 1.7929789049036389  14.48047890490364 0.1875  16.4609375 1  L 31.601562499999993 1  C 33.58202109509636 0.1875  35.18749999999999 1.7929789049036389  35 3.7734374999999996  L 35 38.4375  L 44 38.4375  L 44 22.898437500000004  C 44.74999999999999 20.917978904903634  46.355478904903634 19.312499999999996  48.3359375 20  L 62.28125 20  C 63.16145382004283 19.3125  63.875 20.026046179957174  63.875 20.90625  L 63.875 24.09375  C 63.875 24.973953820042826  63.16145382004283 25.6875  62.28125 25  L 51 25  L 51 41.22656249999999  Z " fill-rule="nonzero" fill="rgba(0, 0, 0, 1)" stroke="none" class="fill" />
    <path d="M 51 41.22656249999999  C 51.125 43.20702109509636  49.51952109509636 44.81249999999999  47.5390625 44  L 32.3984375 44  C 30.41797890490364 44.81249999999999  28.8125 43.20702109509636  29 41.2265625  L 29 6.5625  L 20 6.5625  L 20 22.1015625  C 19.25 24.08202109509636  17.64452109509636 25.6875  15.664062500000002 25  L 1.7187500000000018 25  C 0.8385461799571747 25.6875  0.12500000000000178 24.973953820042826  0.12500000000000178 24.09375  L 0.12500000000000178 20.90625  C 0.12500000000000178 20.026046179957174  0.8385461799571747 19.3125  1.7187500000000018 20  L 13 20  L 13 3.7734374999999996  C 12.875000000000002 1.7929789049036389  14.48047890490364 0.1875  16.4609375 1  L 31.601562499999993 1  C 33.58202109509636 0.1875  35.18749999999999 1.7929789049036389  35 3.7734374999999996  L 35 38.4375  L 44 38.4375  L 44 22.898437500000004  C 44.74999999999999 20.917978904903634  46.355478904903634 19.312499999999996  48.3359375 20  L 62.28125 20  C 63.16145382004283 19.3125  63.875 20.026046179957174  63.875 20.90625  L 63.875 24.09375  C 63.875 24.973953820042826  63.16145382004283 25.6875  62.28125 25  L 51 25  L 51 41.22656249999999  Z " stroke-width="0" stroke-dasharray="0" stroke="rgba(255, 255, 255, 0)" fill="none" class="stroke" mask="url(#Clip2164)" />
  </g>
</svg>