<?xml version="1.0" encoding="utf-8"?>
<svg version="1.1" xmlns:xlink="http://www.w3.org/1999/xlink" width="50px" height="50px" xmlns="http://www.w3.org/2000/svg">
  <defs>
    <pattern id="BGPattern" patternUnits="userSpaceOnUse" alignment="0 0" imageRepeat="None" />
    <mask fill="white" id="Clip961">
      <path d="M 46.59598214285717 50  L 50 46.540178571428555  L 33.616071428571445 29.933035714285722  C 35.84821428571428 26.819196428571445  37.17633928571428 22.991071428571445  37.17633928571428 18.861607142857167  C 37.17633928571428 8.470982142857167  28.839285714285722 0.011160714285722406  18.59375 0.011160714285722406  C 8.337053571428555 0  0 8.459821428571445  0 18.850446428571445  C 0 29.24107142857145  8.337053571428555 37.70089285714289  18.582589285714278 37.70089285714289  C 23.024553571428555 37.70089285714289  27.098214285714278 36.116071428571445  30.301339285714278 33.47098214285717  L 46.59598214285717 50  Z M 32.87946428571428 18.850446428571445  C 32.87946428571428 26.841517857142833  26.473214285714274 33.34821428571428  18.582589285714278 33.34821428571428  C 10.703125 33.34821428571428  4.285714285714278 26.841517857142833  4.285714285714278 18.850446428571445  C 4.285714285714278 10.859375  10.703125 4.352678571428555  18.582589285714278 4.352678571428555  C 26.462053571428555 4.352678571428555  32.87946428571428 10.859375  32.87946428571428 18.850446428571445  Z " fill-rule="evenodd" />
    </mask>
  </defs>
  <g>
    <path d="M 46.59598214285717 50  L 50 46.540178571428555  L 33.616071428571445 29.933035714285722  C 35.84821428571428 26.819196428571445  37.17633928571428 22.991071428571445  37.17633928571428 18.861607142857167  C 37.17633928571428 8.470982142857167  28.839285714285722 0.011160714285722406  18.59375 0.011160714285722406  C 8.337053571428555 0  0 8.459821428571445  0 18.850446428571445  C 0 29.24107142857145  8.337053571428555 37.70089285714289  18.582589285714278 37.70089285714289  C 23.024553571428555 37.70089285714289  27.098214285714278 36.116071428571445  30.301339285714278 33.47098214285717  L 46.59598214285717 50  Z M 32.87946428571428 18.850446428571445  C 32.87946428571428 26.841517857142833  26.473214285714274 33.34821428571428  18.582589285714278 33.34821428571428  C 10.703125 33.34821428571428  4.285714285714278 26.841517857142833  4.285714285714278 18.850446428571445  C 4.285714285714278 10.859375  10.703125 4.352678571428555  18.582589285714278 4.352678571428555  C 26.462053571428555 4.352678571428555  32.87946428571428 10.859375  32.87946428571428 18.850446428571445  Z " fill-rule="nonzero" fill="rgba(0, 0, 0, 1)" stroke="none" class="fill" />
    <path d="M 46.59598214285717 50  L 50 46.540178571428555  L 33.616071428571445 29.933035714285722  C 35.84821428571428 26.819196428571445  37.17633928571428 22.991071428571445  37.17633928571428 18.861607142857167  C 37.17633928571428 8.470982142857167  28.839285714285722 0.011160714285722406  18.59375 0.011160714285722406  C 8.337053571428555 0  0 8.459821428571445  0 18.850446428571445  C 0 29.24107142857145  8.337053571428555 37.70089285714289  18.582589285714278 37.70089285714289  C 23.024553571428555 37.70089285714289  27.098214285714278 36.116071428571445  30.301339285714278 33.47098214285717  L 46.59598214285717 50  Z " stroke-width="0" stroke-dasharray="0" stroke="rgba(255, 255, 255, 0)" fill="none" class="stroke" mask="url(#Clip961)" />
    <path d="M 32.87946428571428 18.850446428571445  C 32.87946428571428 26.841517857142833  26.473214285714274 33.34821428571428  18.582589285714278 33.34821428571428  C 10.703125 33.34821428571428  4.285714285714278 26.841517857142833  4.285714285714278 18.850446428571445  C 4.285714285714278 10.859375  10.703125 4.352678571428555  18.582589285714278 4.352678571428555  C 26.462053571428555 4.352678571428555  32.87946428571428 10.859375  32.87946428571428 18.850446428571445  Z " stroke-width="0" stroke-dasharray="0" stroke="rgba(255, 255, 255, 0)" fill="none" class="stroke" mask="url(#Clip961)" />
  </g>
</svg>