<?xml version="1.0" encoding="utf-8"?>
<svg version="1.1" xmlns:xlink="http://www.w3.org/1999/xlink" width="24px" height="24px" xmlns="http://www.w3.org/2000/svg">
  <defs>
    <pattern id="BGPattern" patternUnits="userSpaceOnUse" alignment="0 0" imageRepeat="None" />
    <mask fill="white" id="Clip4720">
      <path d="M 12 0  C 18.627416997969522 0  24 5.372583002030479  24 12  C 24 18.627416997969522  18.627416997969522 24  12 24  C 5.372583002030479 24  0 18.627416997969522  0 12  C 0 5.372583002030479  5.372583002030479 0  12 0  Z M 9.037500000000001 10.098  L 15.1815 16.241999999999997  C 15.322827278951108 16.388326931160734  15.51753319099156 16.47096615429555  15.720966154295553 16.47096615429555  C 16.135179716668645 16.47096615429555  16.470966154295553 16.135179716668645  16.470966154295553 15.72096615429555  C 16.470966154295553 15.517533190991559  16.388326931160737 15.322827278951106  16.242 15.181499999999998  L 10.098 9.037500000000001  L 14.25 9.037500000000001  C 14.664213562373096 9.037500000000001  15 8.701713562373095  15 8.287500000000001  C 15 7.873286437626906  14.664213562373096 7.5375000000000005  14.25 7.5375000000000005  L 8.287500000000001 7.5375000000000005  C 7.873286437626906 7.5375000000000005  7.5375000000000005 7.873286437626906  7.5375000000000005 8.287500000000001  L 7.5375000000000005 14.25  C 7.5375000000000005 14.664213562373096  7.873286437626906 15  8.287500000000001 15  C 8.701713562373095 15  9.037500000000001 14.664213562373096  9.037500000000001 14.25  L 9.037500000000001 10.098  Z " fill-rule="evenodd" />
    </mask>
  </defs>
  <g>
    <path d="M 12 0  C 18.627416997969522 0  24 5.372583002030479  24 12  C 24 18.627416997969522  18.627416997969522 24  12 24  C 5.372583002030479 24  0 18.627416997969522  0 12  C 0 5.372583002030479  5.372583002030479 0  12 0  Z M 9.037500000000001 10.098  L 15.1815 16.241999999999997  C 15.322827278951108 16.388326931160734  15.51753319099156 16.47096615429555  15.720966154295553 16.47096615429555  C 16.135179716668645 16.47096615429555  16.470966154295553 16.135179716668645  16.470966154295553 15.72096615429555  C 16.470966154295553 15.517533190991559  16.388326931160737 15.322827278951106  16.242 15.181499999999998  L 10.098 9.037500000000001  L 14.25 9.037500000000001  C 14.664213562373096 9.037500000000001  15 8.701713562373095  15 8.287500000000001  C 15 7.873286437626906  14.664213562373096 7.5375000000000005  14.25 7.5375000000000005  L 8.287500000000001 7.5375000000000005  C 7.873286437626906 7.5375000000000005  7.5375000000000005 7.873286437626906  7.5375000000000005 8.287500000000001  L 7.5375000000000005 14.25  C 7.5375000000000005 14.664213562373096  7.873286437626906 15  8.287500000000001 15  C 8.701713562373095 15  9.037500000000001 14.664213562373096  9.037500000000001 14.25  L 9.037500000000001 10.098  Z " fill-rule="nonzero" fill="rgba(0, 0, 0, 1)" stroke="none" class="fill" />
    <path d="M 12 0  C 18.627416997969522 0  24 5.372583002030479  24 12  C 24 18.627416997969522  18.627416997969522 24  12 24  C 5.372583002030479 24  0 18.627416997969522  0 12  C 0 5.372583002030479  5.372583002030479 0  12 0  Z " stroke-width="0" stroke-dasharray="0" stroke="rgba(255, 255, 255, 0)" fill="none" class="stroke" mask="url(#Clip4720)" />
    <path d="M 9.037500000000001 10.098  L 15.1815 16.241999999999997  C 15.322827278951108 16.388326931160734  15.51753319099156 16.47096615429555  15.720966154295553 16.47096615429555  C 16.135179716668645 16.47096615429555  16.470966154295553 16.135179716668645  16.470966154295553 15.72096615429555  C 16.470966154295553 15.517533190991559  16.388326931160737 15.322827278951106  16.242 15.181499999999998  L 10.098 9.037500000000001  L 14.25 9.037500000000001  C 14.664213562373096 9.037500000000001  15 8.701713562373095  15 8.287500000000001  C 15 7.873286437626906  14.664213562373096 7.5375000000000005  14.25 7.5375000000000005  L 8.287500000000001 7.5375000000000005  C 7.873286437626906 7.5375000000000005  7.5375000000000005 7.873286437626906  7.5375000000000005 8.287500000000001  L 7.5375000000000005 14.25  C 7.5375000000000005 14.664213562373096  7.873286437626906 15  8.287500000000001 15  C 8.701713562373095 15  9.037500000000001 14.664213562373096  9.037500000000001 14.25  L 9.037500000000001 10.098  Z " stroke-width="0" stroke-dasharray="0" stroke="rgba(255, 255, 255, 0)" fill="none" class="stroke" mask="url(#Clip4720)" />
  </g>
</svg>