<?xml version="1.0" encoding="utf-8"?>
<svg version="1.1" xmlns:xlink="http://www.w3.org/1999/xlink" width="28px" height="28px" xmlns="http://www.w3.org/2000/svg">
  <defs>
    <pattern id="BGPattern" patternUnits="userSpaceOnUse" alignment="0 0" imageRepeat="None" />
    <mask fill="white" id="Clip3590">
      <path d="M 27.999999999999993 12  L 27.999999999999996 11  C 27.999999999999996 4.924867751861273  23.075132248138726 0  17 0  L 8.999999999999996 0  C 4.029437251522859 0  0 4.02943725152286  0 9  L 0 11.999999999999998  C 0 14.761423749153966  2.238576250846032 16.999999999999996  4.999999999999998 17  L 6.099999999999998 16.999999999999996  C 6.575268578996775 19.328331271216456  8.623656907037002 21.000485008392154  10.999999999999996 21  L 12.379999999999995 21  L 16.379999999999995 28  L 18.109999999999992 27  L 14.109999999999996 20.11  C 13.782127476895447 19.449304052875384  13.117227643363142 19.022692020955812  12.379999999999997 19  L 10.999999999999996 19  C 9.343145750507617 19  7.999999999999998 17.65685424949238  7.999999999999998 16  C 7.999999999999998 14.34314575050762  9.343145750507617 13  10.999999999999996 13  L 11.999999999999996 13  L 11.999999999999996 11  L 10.999999999999995 10.999999999999998  C 8.623656907037006 10.999514991607843  6.5752685789967735 12.671668728783542  6.099999999999998 15  L 4.999999999999998 15  C 3.3431457505076176 15  1.9999999999999996 13.656854249492378  1.9999999999999996 12  L 1.9999999999999996 10  L 3.999999999999999 10  C 5.656854249492378 10  6.999999999999998 8.65685424949238  6.999999999999998 7  L 6.999999999999998 6  L 4.999999999999998 6  L 4.999999999999998 7  C 4.999999999999998 7.552284749830792  4.552284749830792 8  3.999999999999999 8  L 2.0799999999999996 7.999999999999998  C 2.5766525507235745 4.5590733070213245  5.523417819052076 2.004074519453259  8.999999999999998 2  L 14.999999999999996 2  L 14.999999999999996 4  C 14.999999999999996 4.552284749830793  14.552284749830791 5  13.999999999999996 5  L 11.999999999999996 5  L 11.999999999999996 7  L 13.999999999999996 7  C 15.656854249492376 7  16.999999999999996 5.65685424949238  16.999999999999996 4  L 16.999999999999996 2  C 20.414562084951115 2.0046521146921323  23.532418611742614 3.9412089636309497  25.049999999999994 7  L 23.999999999999993 7  C 22.34314575050761 7  20.999999999999993 8.34314575050762  20.999999999999993 10  L 20.999999999999993 11  L 22.999999999999993 11  L 22.999999999999993 10  C 22.999999999999993 9.447715250169207  23.447715250169203 9  23.999999999999993 9  L 25.769999999999996 9  C 25.923271544279913 9.655612532438266  26.00044772448963 10.326709751653235  25.999999999999993 11  L 25.99999999999999 11.999999999999998  C 25.99999999999999 14.761423749153966  23.761423749153955 16.999999999999996  20.999999999999993 17  L 17.999999999999996 17  L 17.999999999999996 19  L 20.999999999999993 19  C 22.038049781200648 18.998576608734535  23.06278943520228 18.76630228716083  23.999999999999993 18.32  L 23.999999999999993 19  C 23.999999999999993 20.65685424949238  22.65685424949237 22  20.999999999999993 22  L 19.999999999999993 22  L 19.999999999999993 24  L 20.999999999999993 23.999999999999996  C 23.761423749153955 23.999999999999996  25.99999999999999 21.761423749153963  25.999999999999993 19  L 25.999999999999993 16.89  C 27.279801975103865 15.58381065468082  27.997652678014997 13.828665686063097  27.999999999999993 12  Z " fill-rule="evenodd" />
    </mask>
  </defs>
  <g transform="matrix(1 0 0 1 -2 -2 )">
    <path d="M 27.999999999999993 12  L 27.999999999999996 11  C 27.999999999999996 4.924867751861273  23.075132248138726 0  17 0  L 8.999999999999996 0  C 4.029437251522859 0  0 4.02943725152286  0 9  L 0 11.999999999999998  C 0 14.761423749153966  2.238576250846032 16.999999999999996  4.999999999999998 17  L 6.099999999999998 16.999999999999996  C 6.575268578996775 19.328331271216456  8.623656907037002 21.000485008392154  10.999999999999996 21  L 12.379999999999995 21  L 16.379999999999995 28  L 18.109999999999992 27  L 14.109999999999996 20.11  C 13.782127476895447 19.449304052875384  13.117227643363142 19.022692020955812  12.379999999999997 19  L 10.999999999999996 19  C 9.343145750507617 19  7.999999999999998 17.65685424949238  7.999999999999998 16  C 7.999999999999998 14.34314575050762  9.343145750507617 13  10.999999999999996 13  L 11.999999999999996 13  L 11.999999999999996 11  L 10.999999999999995 10.999999999999998  C 8.623656907037006 10.999514991607843  6.5752685789967735 12.671668728783542  6.099999999999998 15  L 4.999999999999998 15  C 3.3431457505076176 15  1.9999999999999996 13.656854249492378  1.9999999999999996 12  L 1.9999999999999996 10  L 3.999999999999999 10  C 5.656854249492378 10  6.999999999999998 8.65685424949238  6.999999999999998 7  L 6.999999999999998 6  L 4.999999999999998 6  L 4.999999999999998 7  C 4.999999999999998 7.552284749830792  4.552284749830792 8  3.999999999999999 8  L 2.0799999999999996 7.999999999999998  C 2.5766525507235745 4.5590733070213245  5.523417819052076 2.004074519453259  8.999999999999998 2  L 14.999999999999996 2  L 14.999999999999996 4  C 14.999999999999996 4.552284749830793  14.552284749830791 5  13.999999999999996 5  L 11.999999999999996 5  L 11.999999999999996 7  L 13.999999999999996 7  C 15.656854249492376 7  16.999999999999996 5.65685424949238  16.999999999999996 4  L 16.999999999999996 2  C 20.414562084951115 2.0046521146921323  23.532418611742614 3.9412089636309497  25.049999999999994 7  L 23.999999999999993 7  C 22.34314575050761 7  20.999999999999993 8.34314575050762  20.999999999999993 10  L 20.999999999999993 11  L 22.999999999999993 11  L 22.999999999999993 10  C 22.999999999999993 9.447715250169207  23.447715250169203 9  23.999999999999993 9  L 25.769999999999996 9  C 25.923271544279913 9.655612532438266  26.00044772448963 10.326709751653235  25.999999999999993 11  L 25.99999999999999 11.999999999999998  C 25.99999999999999 14.761423749153966  23.761423749153955 16.999999999999996  20.999999999999993 17  L 17.999999999999996 17  L 17.999999999999996 19  L 20.999999999999993 19  C 22.038049781200648 18.998576608734535  23.06278943520228 18.76630228716083  23.999999999999993 18.32  L 23.999999999999993 19  C 23.999999999999993 20.65685424949238  22.65685424949237 22  20.999999999999993 22  L 19.999999999999993 22  L 19.999999999999993 24  L 20.999999999999993 23.999999999999996  C 23.761423749153955 23.999999999999996  25.99999999999999 21.761423749153963  25.999999999999993 19  L 25.999999999999993 16.89  C 27.279801975103865 15.58381065468082  27.997652678014997 13.828665686063097  27.999999999999993 12  Z " fill-rule="nonzero" fill="rgba(0, 0, 0, 1)" stroke="none" transform="matrix(1 0 0 1 2 2 )" class="fill" />
    <path d="M 27.999999999999993 12  L 27.999999999999996 11  C 27.999999999999996 4.924867751861273  23.075132248138726 0  17 0  L 8.999999999999996 0  C 4.029437251522859 0  0 4.02943725152286  0 9  L 0 11.999999999999998  C 0 14.761423749153966  2.238576250846032 16.999999999999996  4.999999999999998 17  L 6.099999999999998 16.999999999999996  C 6.575268578996775 19.328331271216456  8.623656907037002 21.000485008392154  10.999999999999996 21  L 12.379999999999995 21  L 16.379999999999995 28  L 18.109999999999992 27  L 14.109999999999996 20.11  C 13.782127476895447 19.449304052875384  13.117227643363142 19.022692020955812  12.379999999999997 19  L 10.999999999999996 19  C 9.343145750507617 19  7.999999999999998 17.65685424949238  7.999999999999998 16  C 7.999999999999998 14.34314575050762  9.343145750507617 13  10.999999999999996 13  L 11.999999999999996 13  L 11.999999999999996 11  L 10.999999999999995 10.999999999999998  C 8.623656907037006 10.999514991607843  6.5752685789967735 12.671668728783542  6.099999999999998 15  L 4.999999999999998 15  C 3.3431457505076176 15  1.9999999999999996 13.656854249492378  1.9999999999999996 12  L 1.9999999999999996 10  L 3.999999999999999 10  C 5.656854249492378 10  6.999999999999998 8.65685424949238  6.999999999999998 7  L 6.999999999999998 6  L 4.999999999999998 6  L 4.999999999999998 7  C 4.999999999999998 7.552284749830792  4.552284749830792 8  3.999999999999999 8  L 2.0799999999999996 7.999999999999998  C 2.5766525507235745 4.5590733070213245  5.523417819052076 2.004074519453259  8.999999999999998 2  L 14.999999999999996 2  L 14.999999999999996 4  C 14.999999999999996 4.552284749830793  14.552284749830791 5  13.999999999999996 5  L 11.999999999999996 5  L 11.999999999999996 7  L 13.999999999999996 7  C 15.656854249492376 7  16.999999999999996 5.65685424949238  16.999999999999996 4  L 16.999999999999996 2  C 20.414562084951115 2.0046521146921323  23.532418611742614 3.9412089636309497  25.049999999999994 7  L 23.999999999999993 7  C 22.34314575050761 7  20.999999999999993 8.34314575050762  20.999999999999993 10  L 20.999999999999993 11  L 22.999999999999993 11  L 22.999999999999993 10  C 22.999999999999993 9.447715250169207  23.447715250169203 9  23.999999999999993 9  L 25.769999999999996 9  C 25.923271544279913 9.655612532438266  26.00044772448963 10.326709751653235  25.999999999999993 11  L 25.99999999999999 11.999999999999998  C 25.99999999999999 14.761423749153966  23.761423749153955 16.999999999999996  20.999999999999993 17  L 17.999999999999996 17  L 17.999999999999996 19  L 20.999999999999993 19  C 22.038049781200648 18.998576608734535  23.06278943520228 18.76630228716083  23.999999999999993 18.32  L 23.999999999999993 19  C 23.999999999999993 20.65685424949238  22.65685424949237 22  20.999999999999993 22  L 19.999999999999993 22  L 19.999999999999993 24  L 20.999999999999993 23.999999999999996  C 23.761423749153955 23.999999999999996  25.99999999999999 21.761423749153963  25.999999999999993 19  L 25.999999999999993 16.89  C 27.279801975103865 15.58381065468082  27.997652678014997 13.828665686063097  27.999999999999993 12  Z " stroke-width="0" stroke-dasharray="0" stroke="rgba(255, 255, 255, 0)" fill="none" transform="matrix(1 0 0 1 2 2 )" class="stroke" mask="url(#Clip3590)" />
  </g>
</svg>