<?xml version="1.0" encoding="utf-8"?>
<svg version="1.1" xmlns:xlink="http://www.w3.org/1999/xlink" width="48px" height="46px" xmlns="http://www.w3.org/2000/svg">
  <defs>
    <pattern id="BGPattern" patternUnits="userSpaceOnUse" alignment="0 0" imageRepeat="None" />
    <mask fill="white" id="Clip7324">
      <path d="M 33.238 32.07000000000001  L 33.266 32.008  C 35.004 31.858  36.352 30.328000000000003  36.263999999999996 28.500000000000004  C 36.172 26.672000000000004  34.67399999999999 25.204000000000004  32.848 25.204000000000004  L 32.726 25.204000000000004  C 30.839999999999996 25.266000000000005  29.369999999999997 26.852  29.43 28.742000000000004  C 29.490000000000002 29.700000000000003  29.881999999999998 30.48  30.418 31.048000000000002  C 28.322000000000003 35.124  25.176 38.120000000000005  20.41 40.638000000000005  C 17.204 42.31400000000001  13.818000000000001 42.946000000000005  10.522 42.496  C 7.766 42.108000000000004  5.61 40.876000000000005  4.29 38.900000000000006  C 2.314 35.90200000000001  2.134 32.668000000000006  3.7800000000000002 29.432000000000006  C 4.982 27.094000000000005  6.7780000000000005 25.386000000000003  7.978000000000001 24.546000000000006  C 7.678000000000001 23.768000000000008  7.318 22.450000000000006  7.138000000000002 21.462000000000007  C -1.733999999999999 27.816000000000006  -0.831999999999999 36.504000000000005  1.8640000000000008 40.61000000000001  C 3.8720000000000008 43.60600000000001  7.978000000000001 45.522000000000006  12.472000000000001 45.522000000000006  C 13.670000000000002 45.522000000000006  14.930000000000003 45.434000000000005  16.158 45.13400000000001  C 23.950000000000003 43.63600000000001  29.852000000000004 38.96200000000001  33.238 32.07000000000001  Z M 43.989999999999995 24.456000000000003  L 43.962 24.516000000000002  C 39.32 19.061999999999998  32.486000000000004 16.066  24.694000000000003 16.066  L 23.674000000000003 16.066  C 23.168000000000003 14.957999999999997  22.000000000000004 14.267999999999999  20.680000000000003 14.267999999999999  L 20.590000000000003 14.267999999999999  C 18.704000000000004 14.267999999999999  17.234 15.887999999999998  17.296000000000003 17.773999999999997  C 17.356 19.569999999999997  18.884000000000004 21.069999999999997  20.712000000000003 21.069999999999997  L 20.860000000000003 21.069999999999997  C 22.210000000000004 21.009999999999998  23.378000000000004 20.169999999999998  23.856 18.971999999999998  L 24.966 18.971999999999998  C 29.584000000000003 18.971999999999998  33.956 20.319999999999997  37.942 22.955999999999996  C 40.996 24.963999999999995  43.186 27.599999999999994  44.414 30.747999999999998  C 45.49 33.324  45.432 35.842  44.324 37.942  C 42.616 41.236  39.738 42.976  35.934 42.976  C 33.535999999999994 42.976  31.199999999999996 42.226  29.999999999999993 41.688  C 29.281999999999996 42.284  28.081999999999994 43.274  27.211999999999996 43.874  C 29.847999999999995 45.07  32.516 45.760000000000005  35.092 45.760000000000005  C 40.936 45.760000000000005  45.278 42.46600000000001  46.928 39.288000000000004  C 48.724000000000004 35.69200000000001  48.576 29.640000000000004  43.989999999999995 24.456000000000003  Z M 13.39800000000001 31.348  C 13.100000000000009 31.738000000000003  12.92000000000001 32.426  12.98 33.084  C 13.038 34.882000000000005  14.565999999999999 36.38  16.396 36.38  L 16.516000000000002 36.38  C 18.434 36.32  19.902 34.734  19.812 32.844  C 19.812 31.046  18.254 29.55  16.426000000000002 29.55  L 16.304000000000002 29.55  C 16.184 29.55  16.006000000000004 29.55  15.854000000000003 29.608  C 13.368000000000002 25.412  12.318000000000001 20.916  12.71 16.066000000000003  C 12.948000000000002 12.410000000000004  14.148000000000003 9.232000000000003  16.304000000000002 6.596000000000002  C 18.102000000000004 4.348000000000002  21.488000000000003 3.2380000000000013  23.796000000000003 3.1800000000000015  C 30.268 3.0580000000000016  32.966 11.122000000000002  33.17400000000001 14.328000000000001  L 36.17000000000001 15.226000000000003  C 35.48000000000001 5.398000000000003  29.370000000000008 0.24200000000000266  23.52600000000001 0.24200000000000266  C 18.04200000000001 0.24200000000000266  12.980000000000011 4.228000000000003  10.94000000000001 10.072000000000003  C 8.15400000000001 17.864000000000004  9.98200000000001 25.354000000000003  13.39800000000001 31.348  Z " fill-rule="evenodd" />
    </mask>
  </defs>
  <g>
    <path d="M 33.238 32.07000000000001  L 33.266 32.008  C 35.004 31.858  36.352 30.328000000000003  36.263999999999996 28.500000000000004  C 36.172 26.672000000000004  34.67399999999999 25.204000000000004  32.848 25.204000000000004  L 32.726 25.204000000000004  C 30.839999999999996 25.266000000000005  29.369999999999997 26.852  29.43 28.742000000000004  C 29.490000000000002 29.700000000000003  29.881999999999998 30.48  30.418 31.048000000000002  C 28.322000000000003 35.124  25.176 38.120000000000005  20.41 40.638000000000005  C 17.204 42.31400000000001  13.818000000000001 42.946000000000005  10.522 42.496  C 7.766 42.108000000000004  5.61 40.876000000000005  4.29 38.900000000000006  C 2.314 35.90200000000001  2.134 32.668000000000006  3.7800000000000002 29.432000000000006  C 4.982 27.094000000000005  6.7780000000000005 25.386000000000003  7.978000000000001 24.546000000000006  C 7.678000000000001 23.768000000000008  7.318 22.450000000000006  7.138000000000002 21.462000000000007  C -1.733999999999999 27.816000000000006  -0.831999999999999 36.504000000000005  1.8640000000000008 40.61000000000001  C 3.8720000000000008 43.60600000000001  7.978000000000001 45.522000000000006  12.472000000000001 45.522000000000006  C 13.670000000000002 45.522000000000006  14.930000000000003 45.434000000000005  16.158 45.13400000000001  C 23.950000000000003 43.63600000000001  29.852000000000004 38.96200000000001  33.238 32.07000000000001  Z M 43.989999999999995 24.456000000000003  L 43.962 24.516000000000002  C 39.32 19.061999999999998  32.486000000000004 16.066  24.694000000000003 16.066  L 23.674000000000003 16.066  C 23.168000000000003 14.957999999999997  22.000000000000004 14.267999999999999  20.680000000000003 14.267999999999999  L 20.590000000000003 14.267999999999999  C 18.704000000000004 14.267999999999999  17.234 15.887999999999998  17.296000000000003 17.773999999999997  C 17.356 19.569999999999997  18.884000000000004 21.069999999999997  20.712000000000003 21.069999999999997  L 20.860000000000003 21.069999999999997  C 22.210000000000004 21.009999999999998  23.378000000000004 20.169999999999998  23.856 18.971999999999998  L 24.966 18.971999999999998  C 29.584000000000003 18.971999999999998  33.956 20.319999999999997  37.942 22.955999999999996  C 40.996 24.963999999999995  43.186 27.599999999999994  44.414 30.747999999999998  C 45.49 33.324  45.432 35.842  44.324 37.942  C 42.616 41.236  39.738 42.976  35.934 42.976  C 33.535999999999994 42.976  31.199999999999996 42.226  29.999999999999993 41.688  C 29.281999999999996 42.284  28.081999999999994 43.274  27.211999999999996 43.874  C 29.847999999999995 45.07  32.516 45.760000000000005  35.092 45.760000000000005  C 40.936 45.760000000000005  45.278 42.46600000000001  46.928 39.288000000000004  C 48.724000000000004 35.69200000000001  48.576 29.640000000000004  43.989999999999995 24.456000000000003  Z M 13.39800000000001 31.348  C 13.100000000000009 31.738000000000003  12.92000000000001 32.426  12.98 33.084  C 13.038 34.882000000000005  14.565999999999999 36.38  16.396 36.38  L 16.516000000000002 36.38  C 18.434 36.32  19.902 34.734  19.812 32.844  C 19.812 31.046  18.254 29.55  16.426000000000002 29.55  L 16.304000000000002 29.55  C 16.184 29.55  16.006000000000004 29.55  15.854000000000003 29.608  C 13.368000000000002 25.412  12.318000000000001 20.916  12.71 16.066000000000003  C 12.948000000000002 12.410000000000004  14.148000000000003 9.232000000000003  16.304000000000002 6.596000000000002  C 18.102000000000004 4.348000000000002  21.488000000000003 3.2380000000000013  23.796000000000003 3.1800000000000015  C 30.268 3.0580000000000016  32.966 11.122000000000002  33.17400000000001 14.328000000000001  L 36.17000000000001 15.226000000000003  C 35.48000000000001 5.398000000000003  29.370000000000008 0.24200000000000266  23.52600000000001 0.24200000000000266  C 18.04200000000001 0.24200000000000266  12.980000000000011 4.228000000000003  10.94000000000001 10.072000000000003  C 8.15400000000001 17.864000000000004  9.98200000000001 25.354000000000003  13.39800000000001 31.348  Z " fill-rule="nonzero" fill="rgba(118, 74, 188, 1)" stroke="none" class="fill" />
    <path d="M 33.238 32.07000000000001  L 33.266 32.008  C 35.004 31.858  36.352 30.328000000000003  36.263999999999996 28.500000000000004  C 36.172 26.672000000000004  34.67399999999999 25.204000000000004  32.848 25.204000000000004  L 32.726 25.204000000000004  C 30.839999999999996 25.266000000000005  29.369999999999997 26.852  29.43 28.742000000000004  C 29.490000000000002 29.700000000000003  29.881999999999998 30.48  30.418 31.048000000000002  C 28.322000000000003 35.124  25.176 38.120000000000005  20.41 40.638000000000005  C 17.204 42.31400000000001  13.818000000000001 42.946000000000005  10.522 42.496  C 7.766 42.108000000000004  5.61 40.876000000000005  4.29 38.900000000000006  C 2.314 35.90200000000001  2.134 32.668000000000006  3.7800000000000002 29.432000000000006  C 4.982 27.094000000000005  6.7780000000000005 25.386000000000003  7.978000000000001 24.546000000000006  C 7.678000000000001 23.768000000000008  7.318 22.450000000000006  7.138000000000002 21.462000000000007  C -1.733999999999999 27.816000000000006  -0.831999999999999 36.504000000000005  1.8640000000000008 40.61000000000001  C 3.8720000000000008 43.60600000000001  7.978000000000001 45.522000000000006  12.472000000000001 45.522000000000006  C 13.670000000000002 45.522000000000006  14.930000000000003 45.434000000000005  16.158 45.13400000000001  C 23.950000000000003 43.63600000000001  29.852000000000004 38.96200000000001  33.238 32.07000000000001  Z " stroke-width="0" stroke-dasharray="0" stroke="rgba(255, 255, 255, 0)" fill="none" class="stroke" mask="url(#Clip7324)" />
    <path d="M 43.989999999999995 24.456000000000003  L 43.962 24.516000000000002  C 39.32 19.061999999999998  32.486000000000004 16.066  24.694000000000003 16.066  L 23.674000000000003 16.066  C 23.168000000000003 14.957999999999997  22.000000000000004 14.267999999999999  20.680000000000003 14.267999999999999  L 20.590000000000003 14.267999999999999  C 18.704000000000004 14.267999999999999  17.234 15.887999999999998  17.296000000000003 17.773999999999997  C 17.356 19.569999999999997  18.884000000000004 21.069999999999997  20.712000000000003 21.069999999999997  L 20.860000000000003 21.069999999999997  C 22.210000000000004 21.009999999999998  23.378000000000004 20.169999999999998  23.856 18.971999999999998  L 24.966 18.971999999999998  C 29.584000000000003 18.971999999999998  33.956 20.319999999999997  37.942 22.955999999999996  C 40.996 24.963999999999995  43.186 27.599999999999994  44.414 30.747999999999998  C 45.49 33.324  45.432 35.842  44.324 37.942  C 42.616 41.236  39.738 42.976  35.934 42.976  C 33.535999999999994 42.976  31.199999999999996 42.226  29.999999999999993 41.688  C 29.281999999999996 42.284  28.081999999999994 43.274  27.211999999999996 43.874  C 29.847999999999995 45.07  32.516 45.760000000000005  35.092 45.760000000000005  C 40.936 45.760000000000005  45.278 42.46600000000001  46.928 39.288000000000004  C 48.724000000000004 35.69200000000001  48.576 29.640000000000004  43.989999999999995 24.456000000000003  Z " stroke-width="0" stroke-dasharray="0" stroke="rgba(255, 255, 255, 0)" fill="none" class="stroke" mask="url(#Clip7324)" />
    <path d="M 13.39800000000001 31.348  C 13.100000000000009 31.738000000000003  12.92000000000001 32.426  12.98 33.084  C 13.038 34.882000000000005  14.565999999999999 36.38  16.396 36.38  L 16.516000000000002 36.38  C 18.434 36.32  19.902 34.734  19.812 32.844  C 19.812 31.046  18.254 29.55  16.426000000000002 29.55  L 16.304000000000002 29.55  C 16.184 29.55  16.006000000000004 29.55  15.854000000000003 29.608  C 13.368000000000002 25.412  12.318000000000001 20.916  12.71 16.066000000000003  C 12.948000000000002 12.410000000000004  14.148000000000003 9.232000000000003  16.304000000000002 6.596000000000002  C 18.102000000000004 4.348000000000002  21.488000000000003 3.2380000000000013  23.796000000000003 3.1800000000000015  C 30.268 3.0580000000000016  32.966 11.122000000000002  33.17400000000001 14.328000000000001  L 36.17000000000001 15.226000000000003  C 35.48000000000001 5.398000000000003  29.370000000000008 0.24200000000000266  23.52600000000001 0.24200000000000266  C 18.04200000000001 0.24200000000000266  12.980000000000011 4.228000000000003  10.94000000000001 10.072000000000003  C 8.15400000000001 17.864000000000004  9.98200000000001 25.354000000000003  13.39800000000001 31.348  Z " stroke-width="0" stroke-dasharray="0" stroke="rgba(255, 255, 255, 0)" fill="none" class="stroke" mask="url(#Clip7324)" />
  </g>
</svg>