<?xml version="1.0" encoding="utf-8"?>
<svg version="1.1" xmlns:xlink="http://www.w3.org/1999/xlink" width="10px" height="10px" xmlns="http://www.w3.org/2000/svg">
  <defs>
    <pattern id="BGPattern" patternUnits="userSpaceOnUse" alignment="0 0" imageRepeat="None" />
    <mask fill="white" id="Clip5674">
      <path d="M 4.9999999999999964 9.868999927446247  C 2.3109255814078686 9.868999927446247  0.1310000400703295 7.689074418592128  0.13099999999999934 4.999999897393495  C 0.13099999999999934 2.310925450467362  2.310925553073865 0.1309998973934956  4.999999999999998 0.1309998973934956  C 7.689074446926131 0.1309998973934956  9.869 2.310925450467362  9.869 4.999999927446245  C 9.869 7.689074374372376  7.689074446926131 9.868999927446247  4.9999999999999964 9.868999927446247  Z M 8.368999999999998 4.999999999999998  C 8.368999999999998 3.1393526778200584  6.8606473221799416 1.6310000000000002  5 1.6310000000000002  C 3.1393526778200567 1.6310000000000002  1.6310000000000002 3.1393526778200567  1.6310000000000002 4.999999999999998  C 1.6310000000000002 6.8606473221799416  3.1393526778200567 8.368999999999998  5 8.368999999999998  C 6.860647322179943 8.368999999999998  8.368999999999998 6.8606473221799416  8.368999999999998 4.999999999999998  Z " fill-rule="evenodd" />
    </mask>
  </defs>
  <g transform="matrix(1 0 0 1 -7 -7 )">
    <path d="M 4.9999999999999964 9.868999927446247  C 2.3109255814078686 9.868999927446247  0.1310000400703295 7.689074418592128  0.13099999999999934 4.999999897393495  C 0.13099999999999934 2.310925450467362  2.310925553073865 0.1309998973934956  4.999999999999998 0.1309998973934956  C 7.689074446926131 0.1309998973934956  9.869 2.310925450467362  9.869 4.999999927446245  C 9.869 7.689074374372376  7.689074446926131 9.868999927446247  4.9999999999999964 9.868999927446247  Z M 8.368999999999998 4.999999999999998  C 8.368999999999998 3.1393526778200584  6.8606473221799416 1.6310000000000002  5 1.6310000000000002  C 3.1393526778200567 1.6310000000000002  1.6310000000000002 3.1393526778200567  1.6310000000000002 4.999999999999998  C 1.6310000000000002 6.8606473221799416  3.1393526778200567 8.368999999999998  5 8.368999999999998  C 6.860647322179943 8.368999999999998  8.368999999999998 6.8606473221799416  8.368999999999998 4.999999999999998  Z " fill-rule="nonzero" fill="rgba(0, 0, 0, 1)" stroke="none" transform="matrix(1 0 0 1 7 7 )" class="fill" />
    <path d="M 4.9999999999999964 9.868999927446247  C 2.3109255814078686 9.868999927446247  0.1310000400703295 7.689074418592128  0.13099999999999934 4.999999897393495  C 0.13099999999999934 2.310925450467362  2.310925553073865 0.1309998973934956  4.999999999999998 0.1309998973934956  C 7.689074446926131 0.1309998973934956  9.869 2.310925450467362  9.869 4.999999927446245  C 9.869 7.689074374372376  7.689074446926131 9.868999927446247  4.9999999999999964 9.868999927446247  Z " stroke-width="0" stroke-dasharray="0" stroke="rgba(255, 255, 255, 0)" fill="none" transform="matrix(1 0 0 1 7 7 )" class="stroke" mask="url(#Clip5674)" />
    <path d="M 8.368999999999998 4.999999999999998  C 8.368999999999998 3.1393526778200584  6.8606473221799416 1.6310000000000002  5 1.6310000000000002  C 3.1393526778200567 1.6310000000000002  1.6310000000000002 3.1393526778200567  1.6310000000000002 4.999999999999998  C 1.6310000000000002 6.8606473221799416  3.1393526778200567 8.368999999999998  5 8.368999999999998  C 6.860647322179943 8.368999999999998  8.368999999999998 6.8606473221799416  8.368999999999998 4.999999999999998  Z " stroke-width="0" stroke-dasharray="0" stroke="rgba(255, 255, 255, 0)" fill="none" transform="matrix(1 0 0 1 7 7 )" class="stroke" mask="url(#Clip5674)" />
  </g>
</svg>