<?xml version="1.0" encoding="utf-8"?>
<svg version="1.1" xmlns:xlink="http://www.w3.org/1999/xlink" width="50px" height="50px" xmlns="http://www.w3.org/2000/svg">
  <defs>
    <pattern id="BGPattern" patternUnits="userSpaceOnUse" alignment="0 0" imageRepeat="None" />
    <mask fill="white" id="Clip743">
      <path d="M 24.17410714285714 20.033482142857167  C 17.03125 21.930803571428555  10.747767857142861 21.908482142857167  10.066964285714278 21.897321428571445  C 11.060267857142861 17.165178571428555  14.241071428571416 13.225446428571445  18.515625 11.216517857142833  C 18.917410714285722 11.763392857142833  21.640625 15.546874999999998  24.17410714285714 20.033482142857167  Z M 27.120535714285722 19.129464285714278  C 32.54464285714286 17.087053571428555  34.83258928571428 14.006696428571445  35.11160714285714 13.616071428571445  C 31.36160714285714 10.290178571428555  26.261160714285726 9.029017857142833  21.428571428571445 10.200892857142833  C 21.852678571428584 10.770089285714278  24.620535714285722 14.542410714285722  27.120535714285722 19.129464285714278  Z M 27.70089285714286 27.500000000000004  C 21.551339285714278 29.598214285714274  17.23214285714286 33.79464285714283  15.63616071428572 37.053571428571445  C 20.15625 40.58035714285717  26.049107142857135 41.149553571428555  30.959821428571416 39.0625  C 30.736607142857135 37.72321428571428  29.843750000000004 33.05803571428572  27.70089285714286 27.500000000000004  Z M 13.66071428571428 35.22321428571428  C 16.13839285714286 30.993303571428555  21.149553571428584 26.52901785714289  26.662946428571416 24.977678571428555  C 26.28348214285714 24.107142857142833  25.859375 23.247767857142833  25.42410714285714 22.38839285714289  C 17.8125 24.665178571428555  10.424107142857139 24.575892857142833  9.754464285714278 24.553571428571445  C 9.754464285714278 24.709821428571445  9.743303571428584 24.866071428571445  9.743303571428584 25.02232142857144  C 9.743303571428584 28.939732142857167  11.227678571428584 32.51116071428572  13.66071428571428 35.22321428571428  Z M 40.055803571428555 27.444196428571445  C 39.54241071428572 27.276785714285722  35.334821428571416 26.026785714285722  30.558035714285726 26.796874999999996  C 32.555803571428555 32.27678571428572  33.359375 36.741071428571445  33.515625 37.66741071428572  C 36.94196428571428 35.35714285714289  39.375 31.685267857142836  40.055803571428555 27.444196428571445  Z M 36.80803571428572 15.379464285714278  C 36.484375 15.814732142857169  33.928571428571416 19.084821428571445  28.292410714285722 21.395089285714278  C 28.828125 22.488839285714278  29.21875 23.381696428571445  29.63169642857142 24.386160714285722  C 34.709821428571416 23.75  39.75446428571428 24.765625  40.256696428571416 24.877232142857167  C 40.22321428571428 21.272321428571445  38.93973214285714 17.96875  36.80803571428572 15.379464285714278  Z M 44.64285714285714 0  C 47.600446428571445 0  50 2.399553571428555  50 5.357142857142833  L 50 44.64285714285717  C 50 47.600446428571445  47.600446428571445 50  44.64285714285714 50  L 5.357142857142861 50  C 2.3995535714285836 50  0 47.600446428571445  0 44.64285714285717  L 0 5.357142857142833  C 0 2.399553571428555  2.3995535714285836 0  5.357142857142861 0  L 44.64285714285714 0  Z M 25 42.85714285714283  C 34.84375 42.85714285714283  42.85714285714286 34.84375  42.85714285714286 25  C 42.85714285714286 15.156249999999998  34.84375 7.142857142857167  25 7.142857142857167  C 15.156249999999998 7.142857142857167  7.142857142857138 15.156249999999998  7.142857142857138 25  C 7.142857142857138 34.84375  15.156249999999998 42.85714285714283  25 42.85714285714283  Z " fill-rule="evenodd" />
    </mask>
  </defs>
  <g>
    <path d="M 24.17410714285714 20.033482142857167  C 17.03125 21.930803571428555  10.747767857142861 21.908482142857167  10.066964285714278 21.897321428571445  C 11.060267857142861 17.165178571428555  14.241071428571416 13.225446428571445  18.515625 11.216517857142833  C 18.917410714285722 11.763392857142833  21.640625 15.546874999999998  24.17410714285714 20.033482142857167  Z M 27.120535714285722 19.129464285714278  C 32.54464285714286 17.087053571428555  34.83258928571428 14.006696428571445  35.11160714285714 13.616071428571445  C 31.36160714285714 10.290178571428555  26.261160714285726 9.029017857142833  21.428571428571445 10.200892857142833  C 21.852678571428584 10.770089285714278  24.620535714285722 14.542410714285722  27.120535714285722 19.129464285714278  Z M 27.70089285714286 27.500000000000004  C 21.551339285714278 29.598214285714274  17.23214285714286 33.79464285714283  15.63616071428572 37.053571428571445  C 20.15625 40.58035714285717  26.049107142857135 41.149553571428555  30.959821428571416 39.0625  C 30.736607142857135 37.72321428571428  29.843750000000004 33.05803571428572  27.70089285714286 27.500000000000004  Z M 13.66071428571428 35.22321428571428  C 16.13839285714286 30.993303571428555  21.149553571428584 26.52901785714289  26.662946428571416 24.977678571428555  C 26.28348214285714 24.107142857142833  25.859375 23.247767857142833  25.42410714285714 22.38839285714289  C 17.8125 24.665178571428555  10.424107142857139 24.575892857142833  9.754464285714278 24.553571428571445  C 9.754464285714278 24.709821428571445  9.743303571428584 24.866071428571445  9.743303571428584 25.02232142857144  C 9.743303571428584 28.939732142857167  11.227678571428584 32.51116071428572  13.66071428571428 35.22321428571428  Z M 40.055803571428555 27.444196428571445  C 39.54241071428572 27.276785714285722  35.334821428571416 26.026785714285722  30.558035714285726 26.796874999999996  C 32.555803571428555 32.27678571428572  33.359375 36.741071428571445  33.515625 37.66741071428572  C 36.94196428571428 35.35714285714289  39.375 31.685267857142836  40.055803571428555 27.444196428571445  Z M 36.80803571428572 15.379464285714278  C 36.484375 15.814732142857169  33.928571428571416 19.084821428571445  28.292410714285722 21.395089285714278  C 28.828125 22.488839285714278  29.21875 23.381696428571445  29.63169642857142 24.386160714285722  C 34.709821428571416 23.75  39.75446428571428 24.765625  40.256696428571416 24.877232142857167  C 40.22321428571428 21.272321428571445  38.93973214285714 17.96875  36.80803571428572 15.379464285714278  Z M 44.64285714285714 0  C 47.600446428571445 0  50 2.399553571428555  50 5.357142857142833  L 50 44.64285714285717  C 50 47.600446428571445  47.600446428571445 50  44.64285714285714 50  L 5.357142857142861 50  C 2.3995535714285836 50  0 47.600446428571445  0 44.64285714285717  L 0 5.357142857142833  C 0 2.399553571428555  2.3995535714285836 0  5.357142857142861 0  L 44.64285714285714 0  Z M 25 42.85714285714283  C 34.84375 42.85714285714283  42.85714285714286 34.84375  42.85714285714286 25  C 42.85714285714286 15.156249999999998  34.84375 7.142857142857167  25 7.142857142857167  C 15.156249999999998 7.142857142857167  7.142857142857138 15.156249999999998  7.142857142857138 25  C 7.142857142857138 34.84375  15.156249999999998 42.85714285714283  25 42.85714285714283  Z " fill-rule="nonzero" fill="rgba(0, 0, 0, 1)" stroke="none" class="fill" />
    <path d="M 24.17410714285714 20.033482142857167  C 17.03125 21.930803571428555  10.747767857142861 21.908482142857167  10.066964285714278 21.897321428571445  C 11.060267857142861 17.165178571428555  14.241071428571416 13.225446428571445  18.515625 11.216517857142833  C 18.917410714285722 11.763392857142833  21.640625 15.546874999999998  24.17410714285714 20.033482142857167  Z " stroke-width="0" stroke-dasharray="0" stroke="rgba(255, 255, 255, 0)" fill="none" class="stroke" mask="url(#Clip743)" />
    <path d="M 27.120535714285722 19.129464285714278  C 32.54464285714286 17.087053571428555  34.83258928571428 14.006696428571445  35.11160714285714 13.616071428571445  C 31.36160714285714 10.290178571428555  26.261160714285726 9.029017857142833  21.428571428571445 10.200892857142833  C 21.852678571428584 10.770089285714278  24.620535714285722 14.542410714285722  27.120535714285722 19.129464285714278  Z " stroke-width="0" stroke-dasharray="0" stroke="rgba(255, 255, 255, 0)" fill="none" class="stroke" mask="url(#Clip743)" />
    <path d="M 27.70089285714286 27.500000000000004  C 21.551339285714278 29.598214285714274  17.23214285714286 33.79464285714283  15.63616071428572 37.053571428571445  C 20.15625 40.58035714285717  26.049107142857135 41.149553571428555  30.959821428571416 39.0625  C 30.736607142857135 37.72321428571428  29.843750000000004 33.05803571428572  27.70089285714286 27.500000000000004  Z " stroke-width="0" stroke-dasharray="0" stroke="rgba(255, 255, 255, 0)" fill="none" class="stroke" mask="url(#Clip743)" />
    <path d="M 13.66071428571428 35.22321428571428  C 16.13839285714286 30.993303571428555  21.149553571428584 26.52901785714289  26.662946428571416 24.977678571428555  C 26.28348214285714 24.107142857142833  25.859375 23.247767857142833  25.42410714285714 22.38839285714289  C 17.8125 24.665178571428555  10.424107142857139 24.575892857142833  9.754464285714278 24.553571428571445  C 9.754464285714278 24.709821428571445  9.743303571428584 24.866071428571445  9.743303571428584 25.02232142857144  C 9.743303571428584 28.939732142857167  11.227678571428584 32.51116071428572  13.66071428571428 35.22321428571428  Z " stroke-width="0" stroke-dasharray="0" stroke="rgba(255, 255, 255, 0)" fill="none" class="stroke" mask="url(#Clip743)" />
    <path d="M 40.055803571428555 27.444196428571445  C 39.54241071428572 27.276785714285722  35.334821428571416 26.026785714285722  30.558035714285726 26.796874999999996  C 32.555803571428555 32.27678571428572  33.359375 36.741071428571445  33.515625 37.66741071428572  C 36.94196428571428 35.35714285714289  39.375 31.685267857142836  40.055803571428555 27.444196428571445  Z " stroke-width="0" stroke-dasharray="0" stroke="rgba(255, 255, 255, 0)" fill="none" class="stroke" mask="url(#Clip743)" />
    <path d="M 36.80803571428572 15.379464285714278  C 36.484375 15.814732142857169  33.928571428571416 19.084821428571445  28.292410714285722 21.395089285714278  C 28.828125 22.488839285714278  29.21875 23.381696428571445  29.63169642857142 24.386160714285722  C 34.709821428571416 23.75  39.75446428571428 24.765625  40.256696428571416 24.877232142857167  C 40.22321428571428 21.272321428571445  38.93973214285714 17.96875  36.80803571428572 15.379464285714278  Z " stroke-width="0" stroke-dasharray="0" stroke="rgba(255, 255, 255, 0)" fill="none" class="stroke" mask="url(#Clip743)" />
    <path d="M 44.64285714285714 0  C 47.600446428571445 0  50 2.399553571428555  50 5.357142857142833  L 50 44.64285714285717  C 50 47.600446428571445  47.600446428571445 50  44.64285714285714 50  L 5.357142857142861 50  C 2.3995535714285836 50  0 47.600446428571445  0 44.64285714285717  L 0 5.357142857142833  C 0 2.399553571428555  2.3995535714285836 0  5.357142857142861 0  L 44.64285714285714 0  Z " stroke-width="0" stroke-dasharray="0" stroke="rgba(255, 255, 255, 0)" fill="none" class="stroke" mask="url(#Clip743)" />
    <path d="M 25 42.85714285714283  C 34.84375 42.85714285714283  42.85714285714286 34.84375  42.85714285714286 25  C 42.85714285714286 15.156249999999998  34.84375 7.142857142857167  25 7.142857142857167  C 15.156249999999998 7.142857142857167  7.142857142857138 15.156249999999998  7.142857142857138 25  C 7.142857142857138 34.84375  15.156249999999998 42.85714285714283  25 42.85714285714283  Z " stroke-width="0" stroke-dasharray="0" stroke="rgba(255, 255, 255, 0)" fill="none" class="stroke" mask="url(#Clip743)" />
  </g>
</svg>