<?xml version="1.0" encoding="utf-8"?>
<svg version="1.1" xmlns:xlink="http://www.w3.org/1999/xlink" width="48px" height="49px" xmlns="http://www.w3.org/2000/svg">
  <defs>
    <pattern id="BGPattern" patternUnits="userSpaceOnUse" alignment="0 0" imageRepeat="None" />
    <mask fill="white" id="Clip6793">
      <path d="M 0.07999999999999882 32.879999999999995  L 0 32.856  L 0 2.236  C 0.06 0.9999999999999999  1.06 0  2.294 0  L 45.6 0  C 46.848 0  47.84 0.9999999999999999  47 2.24  L 47 31.76  C 46.5 30.939999999999994  44.92 30.528  43.126000000000005 30.528  C 40.618 30.528  38.71600000000001 31.128000000000004  37.418000000000006 32.32  C 36.11800000000001 33.516  35.47800000000001 34.976  35.47800000000001 36.77  C 35.47800000000001 38.71  36.138000000000005 40.150000000000006  37.47800000000001 41.07  C 38.25800000000001 41.64  39.69800000000001 42.15  41.75800000000001 42.594  L 43.85800000000001 43.074  C 45.11800000000001 43.339999999999996  45.99800000000001 43.674  46.57800000000001 43.994  C 47.13800000000001 44.36  47.43800000000001 44.868  47.43800000000001 45.524  C 47.43800000000001 46.656  46.85800000000001 47.434  45.69800000000001 47.82  L 45.638000000000005 47.852  L 41.218 47.852  C 40.644000000000005 47.644  40.198 47.343999999999994  39.838 46.952  C 39.478 46.504  39.238 45.852  39.118 44.926  L 35.158 44.926  C 35.158 46.058  35.364000000000004 47.016000000000005  35.818 47.886  L 32.458 47.886  C 32.838 47.106  33.058 46.24  33.058 45.252  C 33.058 43.492000000000004  32.458 42.152  31.286 41.22  C 30.538000000000004 40.626  29.406000000000006 40.15  27.909999999999997 39.786  L 24.47 38.982  C 23.15 38.702  22.29 38.422  21.869999999999997 38.182  C 21.249999999999996 37.822  20.949999999999996 37.282000000000004  20.949999999999996 36.602000000000004  C 20.949999999999996 35.842000000000006  21.269999999999996 35.242000000000004  21.889999999999997 34.822  C 22.549999999999997 34.402  23.389999999999997 34.202000000000005  24.47 34.202000000000005  C 25.449999999999996 34.202000000000005  26.230000000000004 34.382000000000005  26.89 34.72200000000001  C 27.878 35.23400000000001  28.39 36.10200000000001  28.47 37.29600000000001  L 32.47 37.29600000000001  C 32.41 35.20400000000001  31.64 33.59  30.17 32.48800000000001  C 28.682 31.388000000000005  26.919999999999998 30.818000000000005  24.83 30.818000000000005  C 22.32 30.818000000000005  20.439999999999998 31.418000000000006  19.124 32.578  C 17.843999999999998 33.744  17.183999999999997 35.238  17.183999999999997 36.998000000000005  C 17.183999999999997 38.938  17.843999999999998 40.374  19.183999999999997 41.298  C 19.987999999999996 41.838  21.424 42.344  23.483999999999998 42.818000000000005  L 25.573999999999998 43.298  C 26.793999999999997 43.568000000000005  27.694000000000003 43.868  28.293999999999997 44.228  C 28.853999999999996 44.588  29.153999999999996 45.088  29.153999999999996 45.748000000000005  C 29.153999999999996 46.888000000000005  28.553999999999995 47.62800000000001  27.394 48.048  L 22.913999999999994 48.048  C 22.345999999999993 47.836  21.873999999999995 47.536  21.533999999999995 47.118  C 21.173999999999996 46.678000000000004  20.913999999999994 45.99  20.793999999999997 45.09  L 16.76 45.09  C 16.76 46.206  16.970000000000002 47.190000000000005  17.400000000000002 48.050000000000004  L 13.220000000000002 48.050000000000004  C 13.88 47.010000000000005  14.326 45.81  14.546000000000003 44.470000000000006  L 10.44 44.470000000000006  C 10.16 45.49000000000001  9.815999999999999 46.266000000000005  9.389999999999999 46.77  C 8.87 47.43  8.19 47.85  7.35 48.06  L 4.896 48.06  C 3.9960000000000004 47.85  3.2220000000000004 47.344  2.596 46.54  C 1.6680000000000001 45.424  1.2200000000000002 43.752  1.2200000000000002 41.54  C 1.2200000000000002 39.3  1.6800000000000002 37.6  2.54 36.379999999999995  C 3.4400000000000004 35.153999999999996  4.6 34.559999999999995  6.12 34.559999999999995  C 7.62 34.559999999999995  8.72 34.98  9.5 35.84799999999999  C 9.92 36.32799999999999  10.28 37.047999999999995  10.54 37.99999999999999  L 14.7 37.99999999999999  C 14.64 36.763999999999996  14.18 35.519999999999996  13.328 34.279999999999994  C 11.783999999999999 32.07999999999999  9.34 30.97999999999999  5.999999999999999 30.97999999999999  C 3.679999999999999 30.97999999999999  1.7319999999999993 31.699999999999992  0.17999999999999883 33.099999999999994  L 0.07999999999999882 32.879999999999995  Z M 47.88199999999999 40.162000000000006  L 47.848 40.128  L 47.848 37.02  L 46.816 37.02  C 46.746 35.826  46.216 34.976000000000006  45.25 34.472  C 44.624 34.144  43.816 33.976  42.864 33.976  C 41.784 33.976  40.954 34.196  40.324 34.62  C 39.699999999999996 35.05  39.367999999999995 35.656  39.367999999999995 36.424  C 39.367999999999995 37.134  39.699999999999996 37.664  40.321999999999996 38.014  C 40.76199999999999 38.224000000000004  41.62199999999999 38.522000000000006  42.94199999999999 38.822  L 46.38199999999999 39.642  C 46.98199999999999 39.762  47.50199999999999 39.942  47.98199999999999 40.102000000000004  L 47.88199999999999 40.162000000000006  Z " fill-rule="evenodd" />
    </mask>
  </defs>
  <g>
    <path d="M 0.07999999999999882 32.879999999999995  L 0 32.856  L 0 2.236  C 0.06 0.9999999999999999  1.06 0  2.294 0  L 45.6 0  C 46.848 0  47.84 0.9999999999999999  47 2.24  L 47 31.76  C 46.5 30.939999999999994  44.92 30.528  43.126000000000005 30.528  C 40.618 30.528  38.71600000000001 31.128000000000004  37.418000000000006 32.32  C 36.11800000000001 33.516  35.47800000000001 34.976  35.47800000000001 36.77  C 35.47800000000001 38.71  36.138000000000005 40.150000000000006  37.47800000000001 41.07  C 38.25800000000001 41.64  39.69800000000001 42.15  41.75800000000001 42.594  L 43.85800000000001 43.074  C 45.11800000000001 43.339999999999996  45.99800000000001 43.674  46.57800000000001 43.994  C 47.13800000000001 44.36  47.43800000000001 44.868  47.43800000000001 45.524  C 47.43800000000001 46.656  46.85800000000001 47.434  45.69800000000001 47.82  L 45.638000000000005 47.852  L 41.218 47.852  C 40.644000000000005 47.644  40.198 47.343999999999994  39.838 46.952  C 39.478 46.504  39.238 45.852  39.118 44.926  L 35.158 44.926  C 35.158 46.058  35.364000000000004 47.016000000000005  35.818 47.886  L 32.458 47.886  C 32.838 47.106  33.058 46.24  33.058 45.252  C 33.058 43.492000000000004  32.458 42.152  31.286 41.22  C 30.538000000000004 40.626  29.406000000000006 40.15  27.909999999999997 39.786  L 24.47 38.982  C 23.15 38.702  22.29 38.422  21.869999999999997 38.182  C 21.249999999999996 37.822  20.949999999999996 37.282000000000004  20.949999999999996 36.602000000000004  C 20.949999999999996 35.842000000000006  21.269999999999996 35.242000000000004  21.889999999999997 34.822  C 22.549999999999997 34.402  23.389999999999997 34.202000000000005  24.47 34.202000000000005  C 25.449999999999996 34.202000000000005  26.230000000000004 34.382000000000005  26.89 34.72200000000001  C 27.878 35.23400000000001  28.39 36.10200000000001  28.47 37.29600000000001  L 32.47 37.29600000000001  C 32.41 35.20400000000001  31.64 33.59  30.17 32.48800000000001  C 28.682 31.388000000000005  26.919999999999998 30.818000000000005  24.83 30.818000000000005  C 22.32 30.818000000000005  20.439999999999998 31.418000000000006  19.124 32.578  C 17.843999999999998 33.744  17.183999999999997 35.238  17.183999999999997 36.998000000000005  C 17.183999999999997 38.938  17.843999999999998 40.374  19.183999999999997 41.298  C 19.987999999999996 41.838  21.424 42.344  23.483999999999998 42.818000000000005  L 25.573999999999998 43.298  C 26.793999999999997 43.568000000000005  27.694000000000003 43.868  28.293999999999997 44.228  C 28.853999999999996 44.588  29.153999999999996 45.088  29.153999999999996 45.748000000000005  C 29.153999999999996 46.888000000000005  28.553999999999995 47.62800000000001  27.394 48.048  L 22.913999999999994 48.048  C 22.345999999999993 47.836  21.873999999999995 47.536  21.533999999999995 47.118  C 21.173999999999996 46.678000000000004  20.913999999999994 45.99  20.793999999999997 45.09  L 16.76 45.09  C 16.76 46.206  16.970000000000002 47.190000000000005  17.400000000000002 48.050000000000004  L 13.220000000000002 48.050000000000004  C 13.88 47.010000000000005  14.326 45.81  14.546000000000003 44.470000000000006  L 10.44 44.470000000000006  C 10.16 45.49000000000001  9.815999999999999 46.266000000000005  9.389999999999999 46.77  C 8.87 47.43  8.19 47.85  7.35 48.06  L 4.896 48.06  C 3.9960000000000004 47.85  3.2220000000000004 47.344  2.596 46.54  C 1.6680000000000001 45.424  1.2200000000000002 43.752  1.2200000000000002 41.54  C 1.2200000000000002 39.3  1.6800000000000002 37.6  2.54 36.379999999999995  C 3.4400000000000004 35.153999999999996  4.6 34.559999999999995  6.12 34.559999999999995  C 7.62 34.559999999999995  8.72 34.98  9.5 35.84799999999999  C 9.92 36.32799999999999  10.28 37.047999999999995  10.54 37.99999999999999  L 14.7 37.99999999999999  C 14.64 36.763999999999996  14.18 35.519999999999996  13.328 34.279999999999994  C 11.783999999999999 32.07999999999999  9.34 30.97999999999999  5.999999999999999 30.97999999999999  C 3.679999999999999 30.97999999999999  1.7319999999999993 31.699999999999992  0.17999999999999883 33.099999999999994  L 0.07999999999999882 32.879999999999995  Z M 47.88199999999999 40.162000000000006  L 47.848 40.128  L 47.848 37.02  L 46.816 37.02  C 46.746 35.826  46.216 34.976000000000006  45.25 34.472  C 44.624 34.144  43.816 33.976  42.864 33.976  C 41.784 33.976  40.954 34.196  40.324 34.62  C 39.699999999999996 35.05  39.367999999999995 35.656  39.367999999999995 36.424  C 39.367999999999995 37.134  39.699999999999996 37.664  40.321999999999996 38.014  C 40.76199999999999 38.224000000000004  41.62199999999999 38.522000000000006  42.94199999999999 38.822  L 46.38199999999999 39.642  C 46.98199999999999 39.762  47.50199999999999 39.942  47.98199999999999 40.102000000000004  L 47.88199999999999 40.162000000000006  Z " fill-rule="nonzero" fill="rgba(244, 48, 89, 1)" stroke="none" class="fill" />
    <path d="M 0.07999999999999882 32.879999999999995  L 0 32.856  L 0 2.236  C 0.06 0.9999999999999999  1.06 0  2.294 0  L 45.6 0  C 46.848 0  47.84 0.9999999999999999  47 2.24  L 47 31.76  C 46.5 30.939999999999994  44.92 30.528  43.126000000000005 30.528  C 40.618 30.528  38.71600000000001 31.128000000000004  37.418000000000006 32.32  C 36.11800000000001 33.516  35.47800000000001 34.976  35.47800000000001 36.77  C 35.47800000000001 38.71  36.138000000000005 40.150000000000006  37.47800000000001 41.07  C 38.25800000000001 41.64  39.69800000000001 42.15  41.75800000000001 42.594  L 43.85800000000001 43.074  C 45.11800000000001 43.339999999999996  45.99800000000001 43.674  46.57800000000001 43.994  C 47.13800000000001 44.36  47.43800000000001 44.868  47.43800000000001 45.524  C 47.43800000000001 46.656  46.85800000000001 47.434  45.69800000000001 47.82  L 45.638000000000005 47.852  L 41.218 47.852  C 40.644000000000005 47.644  40.198 47.343999999999994  39.838 46.952  C 39.478 46.504  39.238 45.852  39.118 44.926  L 35.158 44.926  C 35.158 46.058  35.364000000000004 47.016000000000005  35.818 47.886  L 32.458 47.886  C 32.838 47.106  33.058 46.24  33.058 45.252  C 33.058 43.492000000000004  32.458 42.152  31.286 41.22  C 30.538000000000004 40.626  29.406000000000006 40.15  27.909999999999997 39.786  L 24.47 38.982  C 23.15 38.702  22.29 38.422  21.869999999999997 38.182  C 21.249999999999996 37.822  20.949999999999996 37.282000000000004  20.949999999999996 36.602000000000004  C 20.949999999999996 35.842000000000006  21.269999999999996 35.242000000000004  21.889999999999997 34.822  C 22.549999999999997 34.402  23.389999999999997 34.202000000000005  24.47 34.202000000000005  C 25.449999999999996 34.202000000000005  26.230000000000004 34.382000000000005  26.89 34.72200000000001  C 27.878 35.23400000000001  28.39 36.10200000000001  28.47 37.29600000000001  L 32.47 37.29600000000001  C 32.41 35.20400000000001  31.64 33.59  30.17 32.48800000000001  C 28.682 31.388000000000005  26.919999999999998 30.818000000000005  24.83 30.818000000000005  C 22.32 30.818000000000005  20.439999999999998 31.418000000000006  19.124 32.578  C 17.843999999999998 33.744  17.183999999999997 35.238  17.183999999999997 36.998000000000005  C 17.183999999999997 38.938  17.843999999999998 40.374  19.183999999999997 41.298  C 19.987999999999996 41.838  21.424 42.344  23.483999999999998 42.818000000000005  L 25.573999999999998 43.298  C 26.793999999999997 43.568000000000005  27.694000000000003 43.868  28.293999999999997 44.228  C 28.853999999999996 44.588  29.153999999999996 45.088  29.153999999999996 45.748000000000005  C 29.153999999999996 46.888000000000005  28.553999999999995 47.62800000000001  27.394 48.048  L 22.913999999999994 48.048  C 22.345999999999993 47.836  21.873999999999995 47.536  21.533999999999995 47.118  C 21.173999999999996 46.678000000000004  20.913999999999994 45.99  20.793999999999997 45.09  L 16.76 45.09  C 16.76 46.206  16.970000000000002 47.190000000000005  17.400000000000002 48.050000000000004  L 13.220000000000002 48.050000000000004  C 13.88 47.010000000000005  14.326 45.81  14.546000000000003 44.470000000000006  L 10.44 44.470000000000006  C 10.16 45.49000000000001  9.815999999999999 46.266000000000005  9.389999999999999 46.77  C 8.87 47.43  8.19 47.85  7.35 48.06  L 4.896 48.06  C 3.9960000000000004 47.85  3.2220000000000004 47.344  2.596 46.54  C 1.6680000000000001 45.424  1.2200000000000002 43.752  1.2200000000000002 41.54  C 1.2200000000000002 39.3  1.6800000000000002 37.6  2.54 36.379999999999995  C 3.4400000000000004 35.153999999999996  4.6 34.559999999999995  6.12 34.559999999999995  C 7.62 34.559999999999995  8.72 34.98  9.5 35.84799999999999  C 9.92 36.32799999999999  10.28 37.047999999999995  10.54 37.99999999999999  L 14.7 37.99999999999999  C 14.64 36.763999999999996  14.18 35.519999999999996  13.328 34.279999999999994  C 11.783999999999999 32.07999999999999  9.34 30.97999999999999  5.999999999999999 30.97999999999999  C 3.679999999999999 30.97999999999999  1.7319999999999993 31.699999999999992  0.17999999999999883 33.099999999999994  L 0.07999999999999882 32.879999999999995  Z " stroke-width="0" stroke-dasharray="0" stroke="rgba(255, 255, 255, 0)" fill="none" class="stroke" mask="url(#Clip6793)" />
    <path d="M 47.88199999999999 40.162000000000006  L 47.848 40.128  L 47.848 37.02  L 46.816 37.02  C 46.746 35.826  46.216 34.976000000000006  45.25 34.472  C 44.624 34.144  43.816 33.976  42.864 33.976  C 41.784 33.976  40.954 34.196  40.324 34.62  C 39.699999999999996 35.05  39.367999999999995 35.656  39.367999999999995 36.424  C 39.367999999999995 37.134  39.699999999999996 37.664  40.321999999999996 38.014  C 40.76199999999999 38.224000000000004  41.62199999999999 38.522000000000006  42.94199999999999 38.822  L 46.38199999999999 39.642  C 46.98199999999999 39.762  47.50199999999999 39.942  47.98199999999999 40.102000000000004  L 47.88199999999999 40.162000000000006  Z " stroke-width="0" stroke-dasharray="0" stroke="rgba(255, 255, 255, 0)" fill="none" class="stroke" mask="url(#Clip6793)" />
  </g>
</svg>