<?xml version="1.0" encoding="utf-8"?>
<svg version="1.1" xmlns:xlink="http://www.w3.org/1999/xlink" width="49px" height="49px" xmlns="http://www.w3.org/2000/svg">
  <defs>
    <pattern id="BGPattern" patternUnits="userSpaceOnUse" alignment="0 0" imageRepeat="None" />
    <mask fill="white" id="Clip6847">
      <path d="M 46.07640000000001 25.114800000000002  C 46.07640000000001 28.496000000000002  43.84720000000001 31.570400000000003  40.64 32.6304  L 32.7474 30.7844  L 30.6514 26.778200000000002  L 40.9744 17.7342  C 44.0354 18.893800000000002  46.07640000000001 21.8294  46.07640000000001 25.114800000000002  Z M 40.36100000000001 36.308400000000006  C 40.36100000000001 39.42640000000001  37.82500000000001 41.9624  34.70660000000001 41.9624  C 33.47720000000001 41.9624  32.27260000000001 41.550000000000004  31.28860000000001 40.793400000000005  L 32.84880000000001 32.66380000000001  L 40.018200000000014 34.34140000000001  C 40.246000000000016 34.96020000000001  40.36100000000001 35.62060000000001  40.36100000000001 36.308400000000006  Z M 31.192000000000014 31.708200000000005  L 29.448200000000003 40.7936  C 27.25014379320514 44.03996346314982  23.583699221655834 45.98316035104504  19.663200000000007 45.979600000000005  C 13.133000000000006 45.979600000000005  7.820200000000007 40.6668  7.820200000000007 34.137600000000006  C 7.820200000000007 33.336000000000006  7.898200000000006 32.5444  8.051400000000006 31.780600000000007  L 18.353200000000008 22.470000000000006  L 28.86460000000001 27.261200000000006  L 31.192000000000014 31.708200000000005  Z M 1.9272 22.886  C 1.9272 19.506  4.1562 16.4328  7.3622 15.3706  L 15.236999999999998 17.2306  L 17.0854 21.18  L 7.0182 30.279600000000002  C 3.963 29.116  1.9272 26.177  1.9272 22.8858  Z M 7.6424 11.6934  C 7.6424 8.575000000000001  10.1784 6.037800000000001  13.2966 6.0378  C 14.53805365832078 6.037401354767237  15.745266330453934 6.444818064489473  16.7326 7.197400000000002  L 15.160400000000001 15.3554  L 7.985200000000001 13.6614  C 7.757200000000001 13.0424  7.6424 12.382000000000001  7.6424 11.6934  Z M 16.845200000000002 16.329  L 18.602600000000002 7.212800000000001  C 20.811400000000003 3.9964000000000004  24.445 2.0780000000000003  28.341 2.0780000000000003  C 34.8534 2.0780000000000003  40.150800000000004 7.3764  40.150800000000004 13.889  C 40.150800000000004 14.6856  40.07620000000001 15.4468  39.923 16.2104  L 29.3592 25.4664  L 18.889200000000002 20.6934  L 16.845200000000002 16.329  Z M 47.92660000000001 25.1372  C 47.92660000000001 21.1268  45.440200000000004 17.6208  41.698600000000006 16.2566  C 41.86485388208484 15.409697391456245  41.94857913929291 14.548666846328441  41.948600000000006 13.685599999999997  C 41.948600000000006 6.2308  35.88360000000001 0.16559999999999953  28.427600000000005 0.16559999999999953  C 24.07260000000001 0.16559999999999953  20.021000000000008 2.2541999999999995  17.475400000000008 5.773599999999998  C 16.219169056610657 4.797876431102752  14.673444664702945 4.268911147235412  13.08280000000001 4.270399999999999  C 9.125600000000007 4.270399999999999  5.906200000000008 7.489799999999999  5.906200000000008 11.4468  C 5.906200000000008 12.3214  6.062200000000008 13.158199999999999  6.355000000000009 13.9478  C 2.6350000000000082 15.290199999999999  0.07700000000000884 18.8784  0.07700000000000884 22.863599999999998  C 0.07700000000000884 26.894599999999997  2.575600000000009 30.416199999999996  6.3344000000000085 31.7708  C 6.171535771343558 32.61780163053857  6.088969714386298 33.47828324602989  6.0878000000000085 34.340799999999994  C 6.0878000000000085 41.7786  12.138200000000008 47.82899999999999  19.576000000000008 47.82899999999999  C 23.942000000000007 47.82899999999999  27.991000000000007 45.73199999999999  30.522400000000005 42.19799999999999  C 31.78240000000001 43.1874  33.32320000000001 43.730399999999996  34.921200000000006 43.730399999999996  C 38.87800000000001 43.730399999999996  42.09740000000001 40.5124  42.09740000000001 36.5552  C 42.09740000000001 35.6806  41.94140000000001 34.8428  41.64880000000001 34.0528  C 45.36880000000001 32.7116  47.92680000000001 29.1224  47.92680000000001 25.1372  Z " fill-rule="evenodd" />
    </mask>
  </defs>
  <g>
    <path d="M 46.07640000000001 25.114800000000002  C 46.07640000000001 28.496000000000002  43.84720000000001 31.570400000000003  40.64 32.6304  L 32.7474 30.7844  L 30.6514 26.778200000000002  L 40.9744 17.7342  C 44.0354 18.893800000000002  46.07640000000001 21.8294  46.07640000000001 25.114800000000002  Z M 40.36100000000001 36.308400000000006  C 40.36100000000001 39.42640000000001  37.82500000000001 41.9624  34.70660000000001 41.9624  C 33.47720000000001 41.9624  32.27260000000001 41.550000000000004  31.28860000000001 40.793400000000005  L 32.84880000000001 32.66380000000001  L 40.018200000000014 34.34140000000001  C 40.246000000000016 34.96020000000001  40.36100000000001 35.62060000000001  40.36100000000001 36.308400000000006  Z M 31.192000000000014 31.708200000000005  L 29.448200000000003 40.7936  C 27.25014379320514 44.03996346314982  23.583699221655834 45.98316035104504  19.663200000000007 45.979600000000005  C 13.133000000000006 45.979600000000005  7.820200000000007 40.6668  7.820200000000007 34.137600000000006  C 7.820200000000007 33.336000000000006  7.898200000000006 32.5444  8.051400000000006 31.780600000000007  L 18.353200000000008 22.470000000000006  L 28.86460000000001 27.261200000000006  L 31.192000000000014 31.708200000000005  Z M 1.9272 22.886  C 1.9272 19.506  4.1562 16.4328  7.3622 15.3706  L 15.236999999999998 17.2306  L 17.0854 21.18  L 7.0182 30.279600000000002  C 3.963 29.116  1.9272 26.177  1.9272 22.8858  Z M 7.6424 11.6934  C 7.6424 8.575000000000001  10.1784 6.037800000000001  13.2966 6.0378  C 14.53805365832078 6.037401354767237  15.745266330453934 6.444818064489473  16.7326 7.197400000000002  L 15.160400000000001 15.3554  L 7.985200000000001 13.6614  C 7.757200000000001 13.0424  7.6424 12.382000000000001  7.6424 11.6934  Z M 16.845200000000002 16.329  L 18.602600000000002 7.212800000000001  C 20.811400000000003 3.9964000000000004  24.445 2.0780000000000003  28.341 2.0780000000000003  C 34.8534 2.0780000000000003  40.150800000000004 7.3764  40.150800000000004 13.889  C 40.150800000000004 14.6856  40.07620000000001 15.4468  39.923 16.2104  L 29.3592 25.4664  L 18.889200000000002 20.6934  L 16.845200000000002 16.329  Z M 47.92660000000001 25.1372  C 47.92660000000001 21.1268  45.440200000000004 17.6208  41.698600000000006 16.2566  C 41.86485388208484 15.409697391456245  41.94857913929291 14.548666846328441  41.948600000000006 13.685599999999997  C 41.948600000000006 6.2308  35.88360000000001 0.16559999999999953  28.427600000000005 0.16559999999999953  C 24.07260000000001 0.16559999999999953  20.021000000000008 2.2541999999999995  17.475400000000008 5.773599999999998  C 16.219169056610657 4.797876431102752  14.673444664702945 4.268911147235412  13.08280000000001 4.270399999999999  C 9.125600000000007 4.270399999999999  5.906200000000008 7.489799999999999  5.906200000000008 11.4468  C 5.906200000000008 12.3214  6.062200000000008 13.158199999999999  6.355000000000009 13.9478  C 2.6350000000000082 15.290199999999999  0.07700000000000884 18.8784  0.07700000000000884 22.863599999999998  C 0.07700000000000884 26.894599999999997  2.575600000000009 30.416199999999996  6.3344000000000085 31.7708  C 6.171535771343558 32.61780163053857  6.088969714386298 33.47828324602989  6.0878000000000085 34.340799999999994  C 6.0878000000000085 41.7786  12.138200000000008 47.82899999999999  19.576000000000008 47.82899999999999  C 23.942000000000007 47.82899999999999  27.991000000000007 45.73199999999999  30.522400000000005 42.19799999999999  C 31.78240000000001 43.1874  33.32320000000001 43.730399999999996  34.921200000000006 43.730399999999996  C 38.87800000000001 43.730399999999996  42.09740000000001 40.5124  42.09740000000001 36.5552  C 42.09740000000001 35.6806  41.94140000000001 34.8428  41.64880000000001 34.0528  C 45.36880000000001 32.7116  47.92680000000001 29.1224  47.92680000000001 25.1372  Z " fill-rule="nonzero" fill="rgba(0, 85, 113, 1)" stroke="none" class="fill" />
    <path d="M 46.07640000000001 25.114800000000002  C 46.07640000000001 28.496000000000002  43.84720000000001 31.570400000000003  40.64 32.6304  L 32.7474 30.7844  L 30.6514 26.778200000000002  L 40.9744 17.7342  C 44.0354 18.893800000000002  46.07640000000001 21.8294  46.07640000000001 25.114800000000002  Z " stroke-width="0" stroke-dasharray="0" stroke="rgba(255, 255, 255, 0)" fill="none" class="stroke" mask="url(#Clip6847)" />
    <path d="M 40.36100000000001 36.308400000000006  C 40.36100000000001 39.42640000000001  37.82500000000001 41.9624  34.70660000000001 41.9624  C 33.47720000000001 41.9624  32.27260000000001 41.550000000000004  31.28860000000001 40.793400000000005  L 32.84880000000001 32.66380000000001  L 40.018200000000014 34.34140000000001  C 40.246000000000016 34.96020000000001  40.36100000000001 35.62060000000001  40.36100000000001 36.308400000000006  Z " stroke-width="0" stroke-dasharray="0" stroke="rgba(255, 255, 255, 0)" fill="none" class="stroke" mask="url(#Clip6847)" />
    <path d="M 31.192000000000014 31.708200000000005  L 29.448200000000003 40.7936  C 27.25014379320514 44.03996346314982  23.583699221655834 45.98316035104504  19.663200000000007 45.979600000000005  C 13.133000000000006 45.979600000000005  7.820200000000007 40.6668  7.820200000000007 34.137600000000006  C 7.820200000000007 33.336000000000006  7.898200000000006 32.5444  8.051400000000006 31.780600000000007  L 18.353200000000008 22.470000000000006  L 28.86460000000001 27.261200000000006  L 31.192000000000014 31.708200000000005  Z " stroke-width="0" stroke-dasharray="0" stroke="rgba(255, 255, 255, 0)" fill="none" class="stroke" mask="url(#Clip6847)" />
    <path d="M 1.9272 22.886  C 1.9272 19.506  4.1562 16.4328  7.3622 15.3706  L 15.236999999999998 17.2306  L 17.0854 21.18  L 7.0182 30.279600000000002  C 3.963 29.116  1.9272 26.177  1.9272 22.8858  Z " stroke-width="0" stroke-dasharray="0" stroke="rgba(255, 255, 255, 0)" fill="none" class="stroke" mask="url(#Clip6847)" />
    <path d="M 7.6424 11.6934  C 7.6424 8.575000000000001  10.1784 6.037800000000001  13.2966 6.0378  C 14.53805365832078 6.037401354767237  15.745266330453934 6.444818064489473  16.7326 7.197400000000002  L 15.160400000000001 15.3554  L 7.985200000000001 13.6614  C 7.757200000000001 13.0424  7.6424 12.382000000000001  7.6424 11.6934  Z " stroke-width="0" stroke-dasharray="0" stroke="rgba(255, 255, 255, 0)" fill="none" class="stroke" mask="url(#Clip6847)" />
    <path d="M 16.845200000000002 16.329  L 18.602600000000002 7.212800000000001  C 20.811400000000003 3.9964000000000004  24.445 2.0780000000000003  28.341 2.0780000000000003  C 34.8534 2.0780000000000003  40.150800000000004 7.3764  40.150800000000004 13.889  C 40.150800000000004 14.6856  40.07620000000001 15.4468  39.923 16.2104  L 29.3592 25.4664  L 18.889200000000002 20.6934  L 16.845200000000002 16.329  Z " stroke-width="0" stroke-dasharray="0" stroke="rgba(255, 255, 255, 0)" fill="none" class="stroke" mask="url(#Clip6847)" />
    <path d="M 47.92660000000001 25.1372  C 47.92660000000001 21.1268  45.440200000000004 17.6208  41.698600000000006 16.2566  C 41.86485388208484 15.409697391456245  41.94857913929291 14.548666846328441  41.948600000000006 13.685599999999997  C 41.948600000000006 6.2308  35.88360000000001 0.16559999999999953  28.427600000000005 0.16559999999999953  C 24.07260000000001 0.16559999999999953  20.021000000000008 2.2541999999999995  17.475400000000008 5.773599999999998  C 16.219169056610657 4.797876431102752  14.673444664702945 4.268911147235412  13.08280000000001 4.270399999999999  C 9.125600000000007 4.270399999999999  5.906200000000008 7.489799999999999  5.906200000000008 11.4468  C 5.906200000000008 12.3214  6.062200000000008 13.158199999999999  6.355000000000009 13.9478  C 2.6350000000000082 15.290199999999999  0.07700000000000884 18.8784  0.07700000000000884 22.863599999999998  C 0.07700000000000884 26.894599999999997  2.575600000000009 30.416199999999996  6.3344000000000085 31.7708  C 6.171535771343558 32.61780163053857  6.088969714386298 33.47828324602989  6.0878000000000085 34.340799999999994  C 6.0878000000000085 41.7786  12.138200000000008 47.82899999999999  19.576000000000008 47.82899999999999  C 23.942000000000007 47.82899999999999  27.991000000000007 45.73199999999999  30.522400000000005 42.19799999999999  C 31.78240000000001 43.1874  33.32320000000001 43.730399999999996  34.921200000000006 43.730399999999996  C 38.87800000000001 43.730399999999996  42.09740000000001 40.5124  42.09740000000001 36.5552  C 42.09740000000001 35.6806  41.94140000000001 34.8428  41.64880000000001 34.0528  C 45.36880000000001 32.7116  47.92680000000001 29.1224  47.92680000000001 25.1372  Z " stroke-width="0" stroke-dasharray="0" stroke="rgba(255, 255, 255, 0)" fill="none" class="stroke" mask="url(#Clip6847)" />
  </g>
</svg>