<?xml version="1.0" encoding="utf-8"?>
<svg version="1.1" xmlns:xlink="http://www.w3.org/1999/xlink" width="50px" height="44px" xmlns="http://www.w3.org/2000/svg">
  <defs>
    <pattern id="BGPattern" patternUnits="userSpaceOnUse" alignment="0 0" imageRepeat="None" />
    <mask fill="white" id="Clip654">
      <path d="M 30.966796874999996 33  L 0.1953125 33  L 4.394531250000001 41.11132812500001  C 5.245848645167092 42.80605731072705  6.980417322315978 43.875519044132574  8.876953125 43  L 36.74804687499999 43  L 30.966796874999996 33  Z M 48.80859375 36.951171875  C 48.994140625 36.638671875  50.85937499999999 34.05078125  49.00390625 31.1796875  L 32.7734375 2.791015625  C 31.90293897215074 1.1502319910638334  30.197244737363878 0.12456122873604647  28.33984375 0.125  L 19.70703125 0.125  L 44.833984375 43.8359375  L 48.80859375 36.951171875  Z M 4.296875 26  L 26.85546875 26  L 15.576171875 7.205078125  L 4.296875 26  Z " fill-rule="evenodd" />
    </mask>
  </defs>
  <g>
    <path d="M 30.966796874999996 33  L 0.1953125 33  L 4.394531250000001 41.11132812500001  C 5.245848645167092 42.80605731072705  6.980417322315978 43.875519044132574  8.876953125 43  L 36.74804687499999 43  L 30.966796874999996 33  Z M 48.80859375 36.951171875  C 48.994140625 36.638671875  50.85937499999999 34.05078125  49.00390625 31.1796875  L 32.7734375 2.791015625  C 31.90293897215074 1.1502319910638334  30.197244737363878 0.12456122873604647  28.33984375 0.125  L 19.70703125 0.125  L 44.833984375 43.8359375  L 48.80859375 36.951171875  Z M 4.296875 26  L 26.85546875 26  L 15.576171875 7.205078125  L 4.296875 26  Z " fill-rule="nonzero" fill="rgba(0, 0, 0, 1)" stroke="none" class="fill" />
    <path d="M 30.966796874999996 33  L 0.1953125 33  L 4.394531250000001 41.11132812500001  C 5.245848645167092 42.80605731072705  6.980417322315978 43.875519044132574  8.876953125 43  L 36.74804687499999 43  L 30.966796874999996 33  Z " stroke-width="0" stroke-dasharray="0" stroke="rgba(255, 255, 255, 0)" fill="none" class="stroke" mask="url(#Clip654)" />
    <path d="M 48.80859375 36.951171875  C 48.994140625 36.638671875  50.85937499999999 34.05078125  49.00390625 31.1796875  L 32.7734375 2.791015625  C 31.90293897215074 1.1502319910638334  30.197244737363878 0.12456122873604647  28.33984375 0.125  L 19.70703125 0.125  L 44.833984375 43.8359375  L 48.80859375 36.951171875  Z " stroke-width="0" stroke-dasharray="0" stroke="rgba(255, 255, 255, 0)" fill="none" class="stroke" mask="url(#Clip654)" />
    <path d="M 4.296875 26  L 26.85546875 26  L 15.576171875 7.205078125  L 4.296875 26  Z " stroke-width="0" stroke-dasharray="0" stroke="rgba(255, 255, 255, 0)" fill="none" class="stroke" mask="url(#Clip654)" />
  </g>
</svg>