<?xml version="1.0" encoding="utf-8"?>
<svg version="1.1" xmlns:xlink="http://www.w3.org/1999/xlink" width="50px" height="50px" xmlns="http://www.w3.org/2000/svg">
  <defs>
    <pattern id="BGPattern" patternUnits="userSpaceOnUse" alignment="0 0" imageRepeat="None" />
    <mask fill="white" id="Clip1842">
      <path d="M 50 4.77582846003898  C 50 3.684210526315781  49.24951267056531 2.738791423001942  48.18713450292398 2.4951267056530355  L 38.05068226120858 0.15594541910331827  C 36.94931773879142 -0.09746588693957392  35.81871345029239 0.47758284600391226  35.37037037037037 1.510721247563339  L 30.692007797270946 12.426900584795334  C 30.282651072124768 13.382066276803128  30.555555555555557 14.502923976608201  31.364522417153996 15.155945419103316  L 37.270955165692 19.990253411306043  C 33.76218323586744 27.46588693957113  27.631578947368425 33.68421052631578  20 37.26120857699806  L 15.165692007797277 31.354775828460017  C 14.502923976608187 30.545808966861586  13.391812865497075 30.27290448343078  12.436647173489277 30.68226120857699  L 1.5204678362573105 35.360623781676395  C 0.477582846003898 35.81871345029239  -0.09746588693957392 36.94931773879142  0.15594541910331827 38.05068226120858  L 2.4951267056530213 48.18713450292398  C 2.738791423001956 49.23976608187135  3.6744639376218373 50  4.77582846003898 50  C 29.736842105263168 50  50 29.775828460038976  50 4.77582846003898  Z " fill-rule="evenodd" />
    </mask>
  </defs>
  <g>
    <path d="M 50 4.77582846003898  C 50 3.684210526315781  49.24951267056531 2.738791423001942  48.18713450292398 2.4951267056530355  L 38.05068226120858 0.15594541910331827  C 36.94931773879142 -0.09746588693957392  35.81871345029239 0.47758284600391226  35.37037037037037 1.510721247563339  L 30.692007797270946 12.426900584795334  C 30.282651072124768 13.382066276803128  30.555555555555557 14.502923976608201  31.364522417153996 15.155945419103316  L 37.270955165692 19.990253411306043  C 33.76218323586744 27.46588693957113  27.631578947368425 33.68421052631578  20 37.26120857699806  L 15.165692007797277 31.354775828460017  C 14.502923976608187 30.545808966861586  13.391812865497075 30.27290448343078  12.436647173489277 30.68226120857699  L 1.5204678362573105 35.360623781676395  C 0.477582846003898 35.81871345029239  -0.09746588693957392 36.94931773879142  0.15594541910331827 38.05068226120858  L 2.4951267056530213 48.18713450292398  C 2.738791423001956 49.23976608187135  3.6744639376218373 50  4.77582846003898 50  C 29.736842105263168 50  50 29.775828460038976  50 4.77582846003898  Z " fill-rule="nonzero" fill="rgba(0, 0, 0, 1)" stroke="none" class="fill" />
    <path d="M 50 4.77582846003898  C 50 3.684210526315781  49.24951267056531 2.738791423001942  48.18713450292398 2.4951267056530355  L 38.05068226120858 0.15594541910331827  C 36.94931773879142 -0.09746588693957392  35.81871345029239 0.47758284600391226  35.37037037037037 1.510721247563339  L 30.692007797270946 12.426900584795334  C 30.282651072124768 13.382066276803128  30.555555555555557 14.502923976608201  31.364522417153996 15.155945419103316  L 37.270955165692 19.990253411306043  C 33.76218323586744 27.46588693957113  27.631578947368425 33.68421052631578  20 37.26120857699806  L 15.165692007797277 31.354775828460017  C 14.502923976608187 30.545808966861586  13.391812865497075 30.27290448343078  12.436647173489277 30.68226120857699  L 1.5204678362573105 35.360623781676395  C 0.477582846003898 35.81871345029239  -0.09746588693957392 36.94931773879142  0.15594541910331827 38.05068226120858  L 2.4951267056530213 48.18713450292398  C 2.738791423001956 49.23976608187135  3.6744639376218373 50  4.77582846003898 50  C 29.736842105263168 50  50 29.775828460038976  50 4.77582846003898  Z " stroke-width="0" stroke-dasharray="0" stroke="rgba(255, 255, 255, 0)" fill="none" class="stroke" mask="url(#Clip1842)" />
  </g>
</svg>