<?xml version="1.0" encoding="utf-8"?>
<svg version="1.1" xmlns:xlink="http://www.w3.org/1999/xlink" width="56px" height="56px" xmlns="http://www.w3.org/2000/svg">
  <defs>
    <pattern id="BGPattern" patternUnits="userSpaceOnUse" alignment="0 0" imageRepeat="None" />
    <mask fill="white" id="Clip2334">
      <path d="M 56 28  C 56 12.537500000000001  43.4625 0  28 0  C 12.537500000000001 0  0 12.537500000000001  0 28  C 0 43.4625  12.537500000000001 56  28 56  C 43.4625 56  56 43.4625  56 28  Z M 37.124999999999986 38.637499999999996  L 37.125 41.125  C 37.125 41.4  36.9 41.625  36.625 41  L 19.5125 41  C 19.2375 41.625  19.0125 41.4  19.0125 41.125  L 19.0125 38.71875  C 19.0125 38.4875  19.16875 38.2875  19.39375 38.23125  C 22.14375 37.550000000000004  23.94375 35.16875  23.94375 32.34375  C 23.94375 31.424999999999997  23.7875 30.50625  23.575000000000003 29.58125  L 19.375 29.58125  C 19.1 29.58125  18.875 29.356249999999996  18.875 29.081249999999997  L 18.875 27.206249999999997  C 18.875 26.93125  19.1 26.706249999999997  19.375 26.706249999999997  L 22.73125 26.706249999999997  C 22.24375 25.137499999999996  21.818749999999998 23.537499999999998  21.818749999999998 21.887499999999996  C 21.818749999999998 17.149999999999995  25.48125 14.368749999999997  31.287499999999994 14.368749999999997  C 32.943749999999994 14.368749999999997  34.49999999999999 14.712499999999995  35.68124999999999 15.162499999999994  C 35.87499999999999 15.237499999999994  36.006249999999994 15.424999999999995  36.006249999999994 15.631249999999994  L 36.006249999999994 18.099999999999994  C 36.006253066138285 18.100714853417955  36.00625459921273 18.101429712592626  36.00625459921273 18.102144572586173  C 36.00625459921273 18.37828694750157  35.782396974128126 18.602144572586173  35.50625459921273 18.602144572586173  C 35.45095806727033 18.602144572586173  35.39604453049225 18.592971881522306  35.34374999999999 18.574999999999996  C 34.224999999999994 18.174999999999997  32.90624999999999 17.918749999999996  31.568749999999994 17.918749999999996  C 28.237499999999994 17.918749999999996  26.112499999999994 19.581249999999997  26.112499999999994 22.306249999999995  C 26.112499999999994 23.849999999999994  26.499999999999993 25.299999999999994  26.949999999999992 26.712499999999995  L 33.94999999999999 26.712499999999995  C 34.22499999999999 26.712499999999995  34.44999999999999 26.937499999999996  34.44999999999999 27.212499999999995  L 34.44999999999999 29.08749999999999  C 34.44999999999999 29.362499999999986  34.22499999999999 29.58749999999999  33.94999999999999 29.58749999999999  L 27.787499999999987 29.58749999999999  C 27.98124999999999 30.412499999999994  28.11874999999998 31.26874999999999  28.11874999999998 32.14999999999999  C 28.11874999999998 34.693749999999994  27.087499999999984 36.76874999999999  25.374999999999986 37.84374999999999  L 25.374999999999986 38  L 36.624999999999986 38  C 36.899999999999984 38.137499999999996  37.124999999999986 38.3625  37.124999999999986 38.637499999999996  Z " fill-rule="evenodd" />
    </mask>
  </defs>
  <g>
    <path d="M 56 28  C 56 12.537500000000001  43.4625 0  28 0  C 12.537500000000001 0  0 12.537500000000001  0 28  C 0 43.4625  12.537500000000001 56  28 56  C 43.4625 56  56 43.4625  56 28  Z M 37.124999999999986 38.637499999999996  L 37.125 41.125  C 37.125 41.4  36.9 41.625  36.625 41  L 19.5125 41  C 19.2375 41.625  19.0125 41.4  19.0125 41.125  L 19.0125 38.71875  C 19.0125 38.4875  19.16875 38.2875  19.39375 38.23125  C 22.14375 37.550000000000004  23.94375 35.16875  23.94375 32.34375  C 23.94375 31.424999999999997  23.7875 30.50625  23.575000000000003 29.58125  L 19.375 29.58125  C 19.1 29.58125  18.875 29.356249999999996  18.875 29.081249999999997  L 18.875 27.206249999999997  C 18.875 26.93125  19.1 26.706249999999997  19.375 26.706249999999997  L 22.73125 26.706249999999997  C 22.24375 25.137499999999996  21.818749999999998 23.537499999999998  21.818749999999998 21.887499999999996  C 21.818749999999998 17.149999999999995  25.48125 14.368749999999997  31.287499999999994 14.368749999999997  C 32.943749999999994 14.368749999999997  34.49999999999999 14.712499999999995  35.68124999999999 15.162499999999994  C 35.87499999999999 15.237499999999994  36.006249999999994 15.424999999999995  36.006249999999994 15.631249999999994  L 36.006249999999994 18.099999999999994  C 36.006253066138285 18.100714853417955  36.00625459921273 18.101429712592626  36.00625459921273 18.102144572586173  C 36.00625459921273 18.37828694750157  35.782396974128126 18.602144572586173  35.50625459921273 18.602144572586173  C 35.45095806727033 18.602144572586173  35.39604453049225 18.592971881522306  35.34374999999999 18.574999999999996  C 34.224999999999994 18.174999999999997  32.90624999999999 17.918749999999996  31.568749999999994 17.918749999999996  C 28.237499999999994 17.918749999999996  26.112499999999994 19.581249999999997  26.112499999999994 22.306249999999995  C 26.112499999999994 23.849999999999994  26.499999999999993 25.299999999999994  26.949999999999992 26.712499999999995  L 33.94999999999999 26.712499999999995  C 34.22499999999999 26.712499999999995  34.44999999999999 26.937499999999996  34.44999999999999 27.212499999999995  L 34.44999999999999 29.08749999999999  C 34.44999999999999 29.362499999999986  34.22499999999999 29.58749999999999  33.94999999999999 29.58749999999999  L 27.787499999999987 29.58749999999999  C 27.98124999999999 30.412499999999994  28.11874999999998 31.26874999999999  28.11874999999998 32.14999999999999  C 28.11874999999998 34.693749999999994  27.087499999999984 36.76874999999999  25.374999999999986 37.84374999999999  L 25.374999999999986 38  L 36.624999999999986 38  C 36.899999999999984 38.137499999999996  37.124999999999986 38.3625  37.124999999999986 38.637499999999996  Z " fill-rule="nonzero" fill="rgba(0, 0, 0, 1)" stroke="none" class="fill" />
    <path d="M 56 28  C 56 12.537500000000001  43.4625 0  28 0  C 12.537500000000001 0  0 12.537500000000001  0 28  C 0 43.4625  12.537500000000001 56  28 56  C 43.4625 56  56 43.4625  56 28  Z " stroke-width="0" stroke-dasharray="0" stroke="rgba(255, 255, 255, 0)" fill="none" class="stroke" mask="url(#Clip2334)" />
    <path d="M 37.124999999999986 38.637499999999996  L 37.125 41.125  C 37.125 41.4  36.9 41.625  36.625 41  L 19.5125 41  C 19.2375 41.625  19.0125 41.4  19.0125 41.125  L 19.0125 38.71875  C 19.0125 38.4875  19.16875 38.2875  19.39375 38.23125  C 22.14375 37.550000000000004  23.94375 35.16875  23.94375 32.34375  C 23.94375 31.424999999999997  23.7875 30.50625  23.575000000000003 29.58125  L 19.375 29.58125  C 19.1 29.58125  18.875 29.356249999999996  18.875 29.081249999999997  L 18.875 27.206249999999997  C 18.875 26.93125  19.1 26.706249999999997  19.375 26.706249999999997  L 22.73125 26.706249999999997  C 22.24375 25.137499999999996  21.818749999999998 23.537499999999998  21.818749999999998 21.887499999999996  C 21.818749999999998 17.149999999999995  25.48125 14.368749999999997  31.287499999999994 14.368749999999997  C 32.943749999999994 14.368749999999997  34.49999999999999 14.712499999999995  35.68124999999999 15.162499999999994  C 35.87499999999999 15.237499999999994  36.006249999999994 15.424999999999995  36.006249999999994 15.631249999999994  L 36.006249999999994 18.099999999999994  C 36.006253066138285 18.100714853417955  36.00625459921273 18.101429712592626  36.00625459921273 18.102144572586173  C 36.00625459921273 18.37828694750157  35.782396974128126 18.602144572586173  35.50625459921273 18.602144572586173  C 35.45095806727033 18.602144572586173  35.39604453049225 18.592971881522306  35.34374999999999 18.574999999999996  C 34.224999999999994 18.174999999999997  32.90624999999999 17.918749999999996  31.568749999999994 17.918749999999996  C 28.237499999999994 17.918749999999996  26.112499999999994 19.581249999999997  26.112499999999994 22.306249999999995  C 26.112499999999994 23.849999999999994  26.499999999999993 25.299999999999994  26.949999999999992 26.712499999999995  L 33.94999999999999 26.712499999999995  C 34.22499999999999 26.712499999999995  34.44999999999999 26.937499999999996  34.44999999999999 27.212499999999995  L 34.44999999999999 29.08749999999999  C 34.44999999999999 29.362499999999986  34.22499999999999 29.58749999999999  33.94999999999999 29.58749999999999  L 27.787499999999987 29.58749999999999  C 27.98124999999999 30.412499999999994  28.11874999999998 31.26874999999999  28.11874999999998 32.14999999999999  C 28.11874999999998 34.693749999999994  27.087499999999984 36.76874999999999  25.374999999999986 37.84374999999999  L 25.374999999999986 38  L 36.624999999999986 38  C 36.899999999999984 38.137499999999996  37.124999999999986 38.3625  37.124999999999986 38.637499999999996  Z " stroke-width="0" stroke-dasharray="0" stroke="rgba(255, 255, 255, 0)" fill="none" class="stroke" mask="url(#Clip2334)" />
  </g>
</svg>