<?xml version="1.0" encoding="utf-8"?>
<svg version="1.1" xmlns:xlink="http://www.w3.org/1999/xlink" width="20px" height="12px" xmlns="http://www.w3.org/2000/svg">
  <defs>
    <pattern id="BGPattern" patternUnits="userSpaceOnUse" alignment="0 0" imageRepeat="None" />
    <mask fill="white" id="Clip4426">
      <path d="M 0 6.9999999999999964  L 0 12  L 2 12  L 2 7  C 2.003251138507645 4.23992403816348  4.2399240381634815 2.0032511385076432  7 2  L 13 2  C 15.760075961836517 2.0032511385076432  17.996748861492353 4.239924038163483  18 7  L 18 12  L 20 12  L 19.999999999999996 6.9999999999999964  C 19.995481394583997 3.135879966461683  16.864120033538317 0.00451860541599558  13 0  L 7 0  C 3.1358799664616797 0.00451860541599558  0.004518605416000687 3.1358799664616797  0 6.9999999999999964  Z " fill-rule="evenodd" />
    </mask>
  </defs>
  <g transform="matrix(1 0 0 1 -2 -18 )">
    <path d="M 0 6.9999999999999964  L 0 12  L 2 12  L 2 7  C 2.003251138507645 4.23992403816348  4.2399240381634815 2.0032511385076432  7 2  L 13 2  C 15.760075961836517 2.0032511385076432  17.996748861492353 4.239924038163483  18 7  L 18 12  L 20 12  L 19.999999999999996 6.9999999999999964  C 19.995481394583997 3.135879966461683  16.864120033538317 0.00451860541599558  13 0  L 7 0  C 3.1358799664616797 0.00451860541599558  0.004518605416000687 3.1358799664616797  0 6.9999999999999964  Z " fill-rule="nonzero" fill="rgba(0, 0, 0, 1)" stroke="none" transform="matrix(1 0 0 1 2 18 )" class="fill" />
    <path d="M 0 6.9999999999999964  L 0 12  L 2 12  L 2 7  C 2.003251138507645 4.23992403816348  4.2399240381634815 2.0032511385076432  7 2  L 13 2  C 15.760075961836517 2.0032511385076432  17.996748861492353 4.239924038163483  18 7  L 18 12  L 20 12  L 19.999999999999996 6.9999999999999964  C 19.995481394583997 3.135879966461683  16.864120033538317 0.00451860541599558  13 0  L 7 0  C 3.1358799664616797 0.00451860541599558  0.004518605416000687 3.1358799664616797  0 6.9999999999999964  Z " stroke-width="0" stroke-dasharray="0" stroke="rgba(255, 255, 255, 0)" fill="none" transform="matrix(1 0 0 1 2 18 )" class="stroke" mask="url(#Clip4426)" />
  </g>
</svg>