<?xml version="1.0" encoding="utf-8"?>
<svg version="1.1" xmlns:xlink="http://www.w3.org/1999/xlink" width="20px" height="26px" xmlns="http://www.w3.org/2000/svg">
  <defs>
    <pattern id="BGPattern" patternUnits="userSpaceOnUse" alignment="0 0" imageRepeat="None" />
    <mask fill="white" id="Clip323">
      <path d="M 16.400000000000002 25  L 3.5999999999999996 25  C 1.8399999999999999 25.48  0.39999999999999947 24.04  0.39999999999999947 22.28  L 0.39999999999999947 3.720000000000002  C 0.39999999999999947 1.9600000000000024  1.8399999999999999 0.5200000000000022  3.5999999999999996 0.5200000000000022  L 11.695999999999998 0.5200000000000022  C 12.655999999999999 0.5200000000000022  13.535999999999998 0.9040000000000021  14.207999999999998 1.5920000000000023  L 18.64 6.184000000000001  C 19.264 6.840000000000002  19.6 7.6720000000000015  19.6 8.584000000000001  L 19.6 22.28  C 19.6 24.040000000000003  18.16 25.48  16.400000000000002 25  Z M 2 22.28  C 1.6800000000000015 23.336000000000002  2.5440000000000023 24.200000000000003  3.5999999999999996 24  L 16.4 24  C 17.456 24.2  18.32 23.336  18 22.28  L 18 8.584000000000001  C 18.32 7.992000000000001  18.128 7.496000000000002  17.712 7.064000000000003  L 13.280000000000001 2.488000000000002  C 12.848000000000003 2.024000000000002  12.304000000000002 1.8000000000000027  11.696000000000002 1.8000000000000027  L 3.6000000000000014 1.8000000000000027  C 2.5440000000000005 1.8000000000000027  1.6800000000000015 2.6640000000000024  2 3.720000000000002  L 2 22.28  Z M 8.335999999999995 19.4  L 7.151999999999999 19.4  L 4.959999999999999 12.36  L 6.064 12.36  C 6.336 12.36  6.448 12.504  6.496 12.664  L 7.696 16.872  C 7.744 17  7.84 17.528  7.856 17.592  C 7.872 17.432  8 16.968  8.032 16.872  L 9.424 12.664  C 9.52 12.424  9.696 12.36  9.856 12.36  L 10.239999999999998 12.36  C 10.495999999999999 12.36  10.623999999999999 12.52  10.671999999999997 12.664  L 12.047999999999998 16.872  C 12.111999999999998 17.08  12.175999999999998 17.304  12.239999999999998 17.576  C 12.287999999999997 17.304000000000002  12.319999999999997 17.080000000000002  12.383999999999997 16.872  L 13.583999999999996 12.664  C 13.631999999999994 12.472  13.791999999999994 12.36  14.015999999999995 12.36  L 15.039999999999996 12.36  L 12.847999999999995 19.4  L 11.663999999999994 19.4  L 10.127999999999993 14.583999999999998  C 10.079999999999995 14.472  10.047999999999995 14.328  10.015999999999995 14.167999999999997  C 9.999999999999995 14.28  9.935999999999995 14.424000000000001  9.887999999999995 14.583999999999998  L 8.335999999999995 19.4  Z " fill-rule="evenodd" />
    </mask>
  </defs>
  <g>
    <path d="M 16.400000000000002 25  L 3.5999999999999996 25  C 1.8399999999999999 25.48  0.39999999999999947 24.04  0.39999999999999947 22.28  L 0.39999999999999947 3.720000000000002  C 0.39999999999999947 1.9600000000000024  1.8399999999999999 0.5200000000000022  3.5999999999999996 0.5200000000000022  L 11.695999999999998 0.5200000000000022  C 12.655999999999999 0.5200000000000022  13.535999999999998 0.9040000000000021  14.207999999999998 1.5920000000000023  L 18.64 6.184000000000001  C 19.264 6.840000000000002  19.6 7.6720000000000015  19.6 8.584000000000001  L 19.6 22.28  C 19.6 24.040000000000003  18.16 25.48  16.400000000000002 25  Z M 2 22.28  C 1.6800000000000015 23.336000000000002  2.5440000000000023 24.200000000000003  3.5999999999999996 24  L 16.4 24  C 17.456 24.2  18.32 23.336  18 22.28  L 18 8.584000000000001  C 18.32 7.992000000000001  18.128 7.496000000000002  17.712 7.064000000000003  L 13.280000000000001 2.488000000000002  C 12.848000000000003 2.024000000000002  12.304000000000002 1.8000000000000027  11.696000000000002 1.8000000000000027  L 3.6000000000000014 1.8000000000000027  C 2.5440000000000005 1.8000000000000027  1.6800000000000015 2.6640000000000024  2 3.720000000000002  L 2 22.28  Z M 8.335999999999995 19.4  L 7.151999999999999 19.4  L 4.959999999999999 12.36  L 6.064 12.36  C 6.336 12.36  6.448 12.504  6.496 12.664  L 7.696 16.872  C 7.744 17  7.84 17.528  7.856 17.592  C 7.872 17.432  8 16.968  8.032 16.872  L 9.424 12.664  C 9.52 12.424  9.696 12.36  9.856 12.36  L 10.239999999999998 12.36  C 10.495999999999999 12.36  10.623999999999999 12.52  10.671999999999997 12.664  L 12.047999999999998 16.872  C 12.111999999999998 17.08  12.175999999999998 17.304  12.239999999999998 17.576  C 12.287999999999997 17.304000000000002  12.319999999999997 17.080000000000002  12.383999999999997 16.872  L 13.583999999999996 12.664  C 13.631999999999994 12.472  13.791999999999994 12.36  14.015999999999995 12.36  L 15.039999999999996 12.36  L 12.847999999999995 19.4  L 11.663999999999994 19.4  L 10.127999999999993 14.583999999999998  C 10.079999999999995 14.472  10.047999999999995 14.328  10.015999999999995 14.167999999999997  C 9.999999999999995 14.28  9.935999999999995 14.424000000000001  9.887999999999995 14.583999999999998  L 8.335999999999995 19.4  Z " fill-rule="nonzero" fill="rgba(0, 0, 0, 1)" stroke="none" class="fill" />
    <path d="M 16.400000000000002 25  L 3.5999999999999996 25  C 1.8399999999999999 25.48  0.39999999999999947 24.04  0.39999999999999947 22.28  L 0.39999999999999947 3.720000000000002  C 0.39999999999999947 1.9600000000000024  1.8399999999999999 0.5200000000000022  3.5999999999999996 0.5200000000000022  L 11.695999999999998 0.5200000000000022  C 12.655999999999999 0.5200000000000022  13.535999999999998 0.9040000000000021  14.207999999999998 1.5920000000000023  L 18.64 6.184000000000001  C 19.264 6.840000000000002  19.6 7.6720000000000015  19.6 8.584000000000001  L 19.6 22.28  C 19.6 24.040000000000003  18.16 25.48  16.400000000000002 25  Z " stroke-width="0" stroke-dasharray="0" stroke="rgba(255, 255, 255, 0)" fill="none" class="stroke" mask="url(#Clip323)" />
    <path d="M 2 22.28  C 1.6800000000000015 23.336000000000002  2.5440000000000023 24.200000000000003  3.5999999999999996 24  L 16.4 24  C 17.456 24.2  18.32 23.336  18 22.28  L 18 8.584000000000001  C 18.32 7.992000000000001  18.128 7.496000000000002  17.712 7.064000000000003  L 13.280000000000001 2.488000000000002  C 12.848000000000003 2.024000000000002  12.304000000000002 1.8000000000000027  11.696000000000002 1.8000000000000027  L 3.6000000000000014 1.8000000000000027  C 2.5440000000000005 1.8000000000000027  1.6800000000000015 2.6640000000000024  2 3.720000000000002  L 2 22.28  Z " stroke-width="0" stroke-dasharray="0" stroke="rgba(255, 255, 255, 0)" fill="none" class="stroke" mask="url(#Clip323)" />
    <path d="M 8.335999999999995 19.4  L 7.151999999999999 19.4  L 4.959999999999999 12.36  L 6.064 12.36  C 6.336 12.36  6.448 12.504  6.496 12.664  L 7.696 16.872  C 7.744 17  7.84 17.528  7.856 17.592  C 7.872 17.432  8 16.968  8.032 16.872  L 9.424 12.664  C 9.52 12.424  9.696 12.36  9.856 12.36  L 10.239999999999998 12.36  C 10.495999999999999 12.36  10.623999999999999 12.52  10.671999999999997 12.664  L 12.047999999999998 16.872  C 12.111999999999998 17.08  12.175999999999998 17.304  12.239999999999998 17.576  C 12.287999999999997 17.304000000000002  12.319999999999997 17.080000000000002  12.383999999999997 16.872  L 13.583999999999996 12.664  C 13.631999999999994 12.472  13.791999999999994 12.36  14.015999999999995 12.36  L 15.039999999999996 12.36  L 12.847999999999995 19.4  L 11.663999999999994 19.4  L 10.127999999999993 14.583999999999998  C 10.079999999999995 14.472  10.047999999999995 14.328  10.015999999999995 14.167999999999997  C 9.999999999999995 14.28  9.935999999999995 14.424000000000001  9.887999999999995 14.583999999999998  L 8.335999999999995 19.4  Z " stroke-width="0" stroke-dasharray="0" stroke="rgba(255, 255, 255, 0)" fill="none" class="stroke" mask="url(#Clip323)" />
  </g>
</svg>