<?xml version="1.0" encoding="utf-8"?>
<svg version="1.1" xmlns:xlink="http://www.w3.org/1999/xlink" width="12px" height="12px" xmlns="http://www.w3.org/2000/svg">
  <defs>
    <pattern id="BGPattern" patternUnits="userSpaceOnUse" alignment="0 0" imageRepeat="None" />
    <mask fill="white" id="Clip3338">
      <path d="M 11.5 10.2  L 10.2 11.5  L 6 7.300000000000001  L 1.7999999999999998 11.5  L 0.5 10.2  L 4.699999999999999 6  L 0.5 1.7999999999999998  L 1.7999999999999998 0.5  L 6 4.699999999999999  L 10.2 0.4999999999999991  L 11.5 1.799999999999999  L 7.300000000000001 6  L 11.5 10.2  Z " fill-rule="evenodd" />
    </mask>
  </defs>
  <g transform="matrix(1 0 0 1 -6 -6 )">
    <path d="M 11.5 10.2  L 10.2 11.5  L 6 7.300000000000001  L 1.7999999999999998 11.5  L 0.5 10.2  L 4.699999999999999 6  L 0.5 1.7999999999999998  L 1.7999999999999998 0.5  L 6 4.699999999999999  L 10.2 0.4999999999999991  L 11.5 1.799999999999999  L 7.300000000000001 6  L 11.5 10.2  Z " fill-rule="nonzero" fill="rgba(255, 255, 255, 0)" stroke="none" transform="matrix(1 0 0 1 6 6 )" class="fill" />
    <path d="M 11.5 10.2  L 10.2 11.5  L 6 7.300000000000001  L 1.7999999999999998 11.5  L 0.5 10.2  L 4.699999999999999 6  L 0.5 1.7999999999999998  L 1.7999999999999998 0.5  L 6 4.699999999999999  L 10.2 0.4999999999999991  L 11.5 1.799999999999999  L 7.300000000000001 6  L 11.5 10.2  Z " stroke-width="0" stroke-dasharray="0" stroke="rgba(255, 255, 255, 0)" fill="none" transform="matrix(1 0 0 1 6 6 )" class="stroke" mask="url(#Clip3338)" />
  </g>
</svg>