<?xml version="1.0" encoding="utf-8"?>
<svg version="1.1" xmlns:xlink="http://www.w3.org/1999/xlink" width="48px" height="43px" xmlns="http://www.w3.org/2000/svg">
  <defs>
    <pattern id="BGPattern" patternUnits="userSpaceOnUse" alignment="0 0" imageRepeat="None" />
    <mask fill="white" id="Clip7390">
      <path d="M 44.587926750713166 19.32071868961075  L 44.58792675071316 19.323686389988037  C 42.87170898233934 17.141555978807936  40.54642253784322 15.51791800542272  37.90664396797644 14.658461396889667  L 37.90664396797644 14.490291708843285  C 37.90664396797644 6.507177693935768  31.6626023741603 0  23.96438759547253 0  C 16.26617281678476 0  10.016195822214044 6.496296125885708  10.016195822214044 14.492270175761478  L 10.016195822214044 14.690116867580747  C 4.128520635729231 16.715584556491663  0.19781711692993842 22.281690269243946  0.25839698168768077 28.507729824238517  C 0.25839698168768077 36.49084383914604  6.508373976258398 42.999010766540906  14.206588754946171 42.999010766540906  C 17.900432414641884 42.989888937688384  21.433244692644422 41.48576734659943  24 38.8293917364498  C 26.56386643153729 41.4899640953378  30.098544631307817 42.99488011675525  33.79341124505383 42.999010766540906  C 41.47777675531425 42.999010766540906  47.74160301831232 36.50568234103248  47.74160301831232 28.506740590779426  C 47.73965120475869 25.179480217897165  46.630088887736704 21.947549328353226  44.587926750713166 19.32071868961075  Z M 44.247630440784036 28.52256832612497  C 44.329294373063675 34.3881843985039  39.65846196791255 39.21857116571593  33.793411245053825 39.333900800588935  C 27.92944347082154 39.211083221082866  23.269616112810713 34.3681185433249  23.372825986932916 28.503772890402136  C 23.37348542966466 28.484091534334198  23.373815220392014 28.464400514591233  23.373815220392014 28.44470811399127  C 23.373815220392014 27.47058647313415  22.584133603680343 26.680904856422483  21.610011962823226 26.680904856422483  C 20.635890321966112 26.680904856422483  19.84620870525444 27.47058647313415  19.84620870525444 28.44470811399127  C 19.84620870525444 28.464400514591233  19.846538495981797 28.484091534334198  19.84719793871354 28.50377289040213  C 19.84466530588093 31.106018440550727  20.522620545486667 33.66369665837921  21.81379405539707 35.92302383362473  C 19.88282658934442 38.09816905169755  17.11517169107759 39.34559322301001  14.206588754946164 39.35170700285267  C 8.340678634824766 39.22942187324954  3.678518488736086 34.38590635145912  3.780068096070674 28.51960062574767  C 3.680724198629842 22.654827560651437  8.34224927450854 17.813740892665837  14.206588754946171 17.691451182479067  C 15.441434905823812 17.69423084829188  16.665748457239463 17.918721838836078  17.821247814484217 18.354237600073617  C 17.835097082911567 18.354237600073617  17.84696788442072 18.368086868500967  17.86081715284807 18.368086868500967  C 18.265339546620357 18.50618546745397  18.64984938633523 18.69710990343696  19.004371031563448 18.935906874022276  C 19.3171042255522 19.221238261233474  19.725166614349053 19.379419730174792  20.148505782334105 19.379419730174792  C 20.666101462784923 19.379419730174792  21.155417242047402 19.143272691173724  21.477454679304312 18.738060182203004  C 22.112825900786127 17.96774770777631  22.028196841605915 16.83354382185591  21.285543388239624 16.1660531885525  C 20.603197479911987 15.631303114431196  19.838880041757623 15.210394035727308  19.022177233827186 14.919619030091098  C 17.48950339045698 14.33820336123855  15.863641557747364 14.041190251180671  14.224394957209899 14.043158185331738  C 14.000828195454122 14.043158185331738  13.779239900616545 14.043158185331738  13.555673138860769 14.057007453759088  C 13.689213287566304 8.363106358663767  18.285805333256633 3.785706764103674  23.980215330818073 3.675991534002023  C 29.84536193971353 3.7988047900594575  34.50566606373163 8.643592189159719  34.40080058893899 14.509087144566115  C 34.41155090089427 17.97815377875969  32.787871520754216 21.24970279617055  30.018496365142177 23.338985000460106  C 29.23207948866083 23.94302952975334  29.050218743467266 25.054112082531155  29.60301831232171 25.87735805650133  C 29.926990604424738 26.354792941567563  30.46441686145168 26.64309588550224  31.041363761847798 26.648960154596484  C 31.409513688109367 26.648960154596484  31.76773275062598 26.529553800424278  32.06225269163523 26.30866384466734  C 34.69327679861829 24.336529405227164  36.58173170757145 21.53417106857463  37.421919573019245 18.355226833532715  C 41.56816575902931 20.02233514279809  44.27463753588685 24.05380136345632  44.247630440784036 28.52256832612497  Z " fill-rule="evenodd" />
    </mask>
  </defs>
  <g>
    <path d="M 44.587926750713166 19.32071868961075  L 44.58792675071316 19.323686389988037  C 42.87170898233934 17.141555978807936  40.54642253784322 15.51791800542272  37.90664396797644 14.658461396889667  L 37.90664396797644 14.490291708843285  C 37.90664396797644 6.507177693935768  31.6626023741603 0  23.96438759547253 0  C 16.26617281678476 0  10.016195822214044 6.496296125885708  10.016195822214044 14.492270175761478  L 10.016195822214044 14.690116867580747  C 4.128520635729231 16.715584556491663  0.19781711692993842 22.281690269243946  0.25839698168768077 28.507729824238517  C 0.25839698168768077 36.49084383914604  6.508373976258398 42.999010766540906  14.206588754946171 42.999010766540906  C 17.900432414641884 42.989888937688384  21.433244692644422 41.48576734659943  24 38.8293917364498  C 26.56386643153729 41.4899640953378  30.098544631307817 42.99488011675525  33.79341124505383 42.999010766540906  C 41.47777675531425 42.999010766540906  47.74160301831232 36.50568234103248  47.74160301831232 28.506740590779426  C 47.73965120475869 25.179480217897165  46.630088887736704 21.947549328353226  44.587926750713166 19.32071868961075  Z M 44.247630440784036 28.52256832612497  C 44.329294373063675 34.3881843985039  39.65846196791255 39.21857116571593  33.793411245053825 39.333900800588935  C 27.92944347082154 39.211083221082866  23.269616112810713 34.3681185433249  23.372825986932916 28.503772890402136  C 23.37348542966466 28.484091534334198  23.373815220392014 28.464400514591233  23.373815220392014 28.44470811399127  C 23.373815220392014 27.47058647313415  22.584133603680343 26.680904856422483  21.610011962823226 26.680904856422483  C 20.635890321966112 26.680904856422483  19.84620870525444 27.47058647313415  19.84620870525444 28.44470811399127  C 19.84620870525444 28.464400514591233  19.846538495981797 28.484091534334198  19.84719793871354 28.50377289040213  C 19.84466530588093 31.106018440550727  20.522620545486667 33.66369665837921  21.81379405539707 35.92302383362473  C 19.88282658934442 38.09816905169755  17.11517169107759 39.34559322301001  14.206588754946164 39.35170700285267  C 8.340678634824766 39.22942187324954  3.678518488736086 34.38590635145912  3.780068096070674 28.51960062574767  C 3.680724198629842 22.654827560651437  8.34224927450854 17.813740892665837  14.206588754946171 17.691451182479067  C 15.441434905823812 17.69423084829188  16.665748457239463 17.918721838836078  17.821247814484217 18.354237600073617  C 17.835097082911567 18.354237600073617  17.84696788442072 18.368086868500967  17.86081715284807 18.368086868500967  C 18.265339546620357 18.50618546745397  18.64984938633523 18.69710990343696  19.004371031563448 18.935906874022276  C 19.3171042255522 19.221238261233474  19.725166614349053 19.379419730174792  20.148505782334105 19.379419730174792  C 20.666101462784923 19.379419730174792  21.155417242047402 19.143272691173724  21.477454679304312 18.738060182203004  C 22.112825900786127 17.96774770777631  22.028196841605915 16.83354382185591  21.285543388239624 16.1660531885525  C 20.603197479911987 15.631303114431196  19.838880041757623 15.210394035727308  19.022177233827186 14.919619030091098  C 17.48950339045698 14.33820336123855  15.863641557747364 14.041190251180671  14.224394957209899 14.043158185331738  C 14.000828195454122 14.043158185331738  13.779239900616545 14.043158185331738  13.555673138860769 14.057007453759088  C 13.689213287566304 8.363106358663767  18.285805333256633 3.785706764103674  23.980215330818073 3.675991534002023  C 29.84536193971353 3.7988047900594575  34.50566606373163 8.643592189159719  34.40080058893899 14.509087144566115  C 34.41155090089427 17.97815377875969  32.787871520754216 21.24970279617055  30.018496365142177 23.338985000460106  C 29.23207948866083 23.94302952975334  29.050218743467266 25.054112082531155  29.60301831232171 25.87735805650133  C 29.926990604424738 26.354792941567563  30.46441686145168 26.64309588550224  31.041363761847798 26.648960154596484  C 31.409513688109367 26.648960154596484  31.76773275062598 26.529553800424278  32.06225269163523 26.30866384466734  C 34.69327679861829 24.336529405227164  36.58173170757145 21.53417106857463  37.421919573019245 18.355226833532715  C 41.56816575902931 20.02233514279809  44.27463753588685 24.05380136345632  44.247630440784036 28.52256832612497  Z " fill-rule="nonzero" fill="rgba(243, 112, 42, 1)" stroke="none" class="fill" />
    <path d="M 44.587926750713166 19.32071868961075  L 44.58792675071316 19.323686389988037  C 42.87170898233934 17.141555978807936  40.54642253784322 15.51791800542272  37.90664396797644 14.658461396889667  L 37.90664396797644 14.490291708843285  C 37.90664396797644 6.507177693935768  31.6626023741603 0  23.96438759547253 0  C 16.26617281678476 0  10.016195822214044 6.496296125885708  10.016195822214044 14.492270175761478  L 10.016195822214044 14.690116867580747  C 4.128520635729231 16.715584556491663  0.19781711692993842 22.281690269243946  0.25839698168768077 28.507729824238517  C 0.25839698168768077 36.49084383914604  6.508373976258398 42.999010766540906  14.206588754946171 42.999010766540906  C 17.900432414641884 42.989888937688384  21.433244692644422 41.48576734659943  24 38.8293917364498  C 26.56386643153729 41.4899640953378  30.098544631307817 42.99488011675525  33.79341124505383 42.999010766540906  C 41.47777675531425 42.999010766540906  47.74160301831232 36.50568234103248  47.74160301831232 28.506740590779426  C 47.73965120475869 25.179480217897165  46.630088887736704 21.947549328353226  44.587926750713166 19.32071868961075  Z " stroke-width="0" stroke-dasharray="0" stroke="rgba(255, 255, 255, 0)" fill="none" class="stroke" mask="url(#Clip7390)" />
    <path d="M 44.247630440784036 28.52256832612497  C 44.329294373063675 34.3881843985039  39.65846196791255 39.21857116571593  33.793411245053825 39.333900800588935  C 27.92944347082154 39.211083221082866  23.269616112810713 34.3681185433249  23.372825986932916 28.503772890402136  C 23.37348542966466 28.484091534334198  23.373815220392014 28.464400514591233  23.373815220392014 28.44470811399127  C 23.373815220392014 27.47058647313415  22.584133603680343 26.680904856422483  21.610011962823226 26.680904856422483  C 20.635890321966112 26.680904856422483  19.84620870525444 27.47058647313415  19.84620870525444 28.44470811399127  C 19.84620870525444 28.464400514591233  19.846538495981797 28.484091534334198  19.84719793871354 28.50377289040213  C 19.84466530588093 31.106018440550727  20.522620545486667 33.66369665837921  21.81379405539707 35.92302383362473  C 19.88282658934442 38.09816905169755  17.11517169107759 39.34559322301001  14.206588754946164 39.35170700285267  C 8.340678634824766 39.22942187324954  3.678518488736086 34.38590635145912  3.780068096070674 28.51960062574767  C 3.680724198629842 22.654827560651437  8.34224927450854 17.813740892665837  14.206588754946171 17.691451182479067  C 15.441434905823812 17.69423084829188  16.665748457239463 17.918721838836078  17.821247814484217 18.354237600073617  C 17.835097082911567 18.354237600073617  17.84696788442072 18.368086868500967  17.86081715284807 18.368086868500967  C 18.265339546620357 18.50618546745397  18.64984938633523 18.69710990343696  19.004371031563448 18.935906874022276  C 19.3171042255522 19.221238261233474  19.725166614349053 19.379419730174792  20.148505782334105 19.379419730174792  C 20.666101462784923 19.379419730174792  21.155417242047402 19.143272691173724  21.477454679304312 18.738060182203004  C 22.112825900786127 17.96774770777631  22.028196841605915 16.83354382185591  21.285543388239624 16.1660531885525  C 20.603197479911987 15.631303114431196  19.838880041757623 15.210394035727308  19.022177233827186 14.919619030091098  C 17.48950339045698 14.33820336123855  15.863641557747364 14.041190251180671  14.224394957209899 14.043158185331738  C 14.000828195454122 14.043158185331738  13.779239900616545 14.043158185331738  13.555673138860769 14.057007453759088  C 13.689213287566304 8.363106358663767  18.285805333256633 3.785706764103674  23.980215330818073 3.675991534002023  C 29.84536193971353 3.7988047900594575  34.50566606373163 8.643592189159719  34.40080058893899 14.509087144566115  C 34.41155090089427 17.97815377875969  32.787871520754216 21.24970279617055  30.018496365142177 23.338985000460106  C 29.23207948866083 23.94302952975334  29.050218743467266 25.054112082531155  29.60301831232171 25.87735805650133  C 29.926990604424738 26.354792941567563  30.46441686145168 26.64309588550224  31.041363761847798 26.648960154596484  C 31.409513688109367 26.648960154596484  31.76773275062598 26.529553800424278  32.06225269163523 26.30866384466734  C 34.69327679861829 24.336529405227164  36.58173170757145 21.53417106857463  37.421919573019245 18.355226833532715  C 41.56816575902931 20.02233514279809  44.27463753588685 24.05380136345632  44.247630440784036 28.52256832612497  Z " stroke-width="0" stroke-dasharray="0" stroke="rgba(255, 255, 255, 0)" fill="none" class="stroke" mask="url(#Clip7390)" />
  </g>
</svg>