<?xml version="1.0" encoding="utf-8"?>
<svg version="1.1" xmlns:xlink="http://www.w3.org/1999/xlink" width="18px" height="24px" xmlns="http://www.w3.org/2000/svg">
  <defs>
    <pattern id="BGPattern" patternUnits="userSpaceOnUse" alignment="0 0" imageRepeat="None" />
    <mask fill="white" id="Clip6520">
      <path d="M 0 22.5  L 0 2.991  L 0 2.928  C 0 2.157652010243199  0.5835134280415246 1.5125347989209688  1.35000000011135 1.4355  L 14.850000000021065 0.08549999999999991  C 14.900509237330503 0.08035464022316607  14.951247137918568 0.07777698351136308  15.002017776882578 0.07777698351136308  C 15.800218150578106 0.07777698351136308  16.458612255140913 0.7028733531296121  16.500000000010033 1.5  C 17.328427124750682 1.5  18 2.1715728752538097  18 3  L 18 22.5  C 18 23.32842712474619  17.328427124750682 24  16.500000000010033 24  L 1.500000000110347 24  C 0.6715728753696976 24  0 23.32842712474619  0 22.5  Z M 16.500000000010033 3  L 1.500000000110347 3  L 1.500000000110347 22.5  L 16.500000000010033 22.5  L 16.500000000010033 3  Z " fill-rule="evenodd" />
    </mask>
  </defs>
  <g>
    <path d="M 0 22.5  L 0 2.991  L 0 2.928  C 0 2.157652010243199  0.5835134280415246 1.5125347989209688  1.35000000011135 1.4355  L 14.850000000021065 0.08549999999999991  C 14.900509237330503 0.08035464022316607  14.951247137918568 0.07777698351136308  15.002017776882578 0.07777698351136308  C 15.800218150578106 0.07777698351136308  16.458612255140913 0.7028733531296121  16.500000000010033 1.5  C 17.328427124750682 1.5  18 2.1715728752538097  18 3  L 18 22.5  C 18 23.32842712474619  17.328427124750682 24  16.500000000010033 24  L 1.500000000110347 24  C 0.6715728753696976 24  0 23.32842712474619  0 22.5  Z M 16.500000000010033 3  L 1.500000000110347 3  L 1.500000000110347 22.5  L 16.500000000010033 22.5  L 16.500000000010033 3  Z " fill-rule="nonzero" fill="rgba(0, 0, 0, 1)" stroke="none" class="fill" />
    <path d="M 0 22.5  L 0 2.991  L 0 2.928  C 0 2.157652010243199  0.5835134280415246 1.5125347989209688  1.35000000011135 1.4355  L 14.850000000021065 0.08549999999999991  C 14.900509237330503 0.08035464022316607  14.951247137918568 0.07777698351136308  15.002017776882578 0.07777698351136308  C 15.800218150578106 0.07777698351136308  16.458612255140913 0.7028733531296121  16.500000000010033 1.5  C 17.328427124750682 1.5  18 2.1715728752538097  18 3  L 18 22.5  C 18 23.32842712474619  17.328427124750682 24  16.500000000010033 24  L 1.500000000110347 24  C 0.6715728753696976 24  0 23.32842712474619  0 22.5  Z " stroke-width="0" stroke-dasharray="0" stroke="rgba(255, 255, 255, 0)" fill="none" class="stroke" mask="url(#Clip6520)" />
    <path d="M 16.500000000010033 3  L 1.500000000110347 3  L 1.500000000110347 22.5  L 16.500000000010033 22.5  L 16.500000000010033 3  Z " stroke-width="0" stroke-dasharray="0" stroke="rgba(255, 255, 255, 0)" fill="none" class="stroke" mask="url(#Clip6520)" />
  </g>
</svg>