<?xml version="1.0" encoding="utf-8"?>
<svg version="1.1" xmlns:xlink="http://www.w3.org/1999/xlink" width="12px" height="17px" xmlns="http://www.w3.org/2000/svg">
  <defs>
    <pattern id="BGPattern" patternUnits="userSpaceOnUse" alignment="0 0" imageRepeat="None" />
    <mask fill="white" id="Clip6519">
      <path d="M 6 13.4375  C -2.7375000000000003 7.662500000000001  3.5040000000000013 3.173  6 5.7395  C 8.495999999999999 3.173  14.737499999999997 7.664  6 13.4375  Z M 2.625 0.5  L 0.375 0.5  C 0.1678932188134521 0.5  0 0.6678932188134521  0 0.875  L 0 3.125  C 0 3.332106781186548  0.1678932188134521 3.5  0.375 3.5  C 0.5821067811865479 3.5  0.75 3.332106781186548  0.75 3.125  L 0.75 1.25  L 2.625 1.25  C 2.832106781186548 1.25  3 1.082106781186548  3 0.875  C 3 0.6678932188134521  2.832106781186548 0.5  2.625 0.5  Z M 11.625 0.5  L 9.375 0.5  C 9.16789321881345 0.5  9 0.6678932188134521  9 0.875  C 9 1.082106781186548  9.16789321881345 1.25  9.375 1.25  L 11.25 1.25  L 11.25 3.125  C 11.25 3.332106781186548  11.41789321881345 3.5  11.625 3.5  C 11.83210678118655 3.5  12 3.332106781186548  12 3.125  L 12 0.875  C 12 0.6678932188134521  11.83210678118655 0.5  11.625 0.5  Z M 0.75 16.25  L 0.75 14.375  C 0.75 14.16789321881345  0.5821067811865479 14  0.375 14  C 0.1678932188134521 14  0 14.16789321881345  0 14.375  L 0 16.625  C 0 16.832  0.16800000000000015 17  0.375 17  L 2.625 17  C 2.832106781186548 17  3 16.83210678118655  3 16.625  C 3 16.41789321881345  2.832106781186548 16.25  2.625 16.25  L 0.75 16.25  Z M 12 16.625  L 12 14.375  C 12 14.16789321881345  11.83210678118655 14  11.625 14  C 11.41789321881345 14  11.25 14.16789321881345  11.25 14.375  L 11.25 16.25  L 9.375 16.25  C 9.16789321881345 16.25  9 16.41789321881345  9 16.625  C 9 16.83210678118655  9.16789321881345 17  9.375 17  L 11.625 17  C 11.83210678118655 17  12 16.83210678118655  12 16.625  Z " fill-rule="evenodd" />
    </mask>
  </defs>
  <g transform="matrix(1 0 0 1 -3 -4 )">
    <path d="M 6 13.4375  C -2.7375000000000003 7.662500000000001  3.5040000000000013 3.173  6 5.7395  C 8.495999999999999 3.173  14.737499999999997 7.664  6 13.4375  Z M 2.625 0.5  L 0.375 0.5  C 0.1678932188134521 0.5  0 0.6678932188134521  0 0.875  L 0 3.125  C 0 3.332106781186548  0.1678932188134521 3.5  0.375 3.5  C 0.5821067811865479 3.5  0.75 3.332106781186548  0.75 3.125  L 0.75 1.25  L 2.625 1.25  C 2.832106781186548 1.25  3 1.082106781186548  3 0.875  C 3 0.6678932188134521  2.832106781186548 0.5  2.625 0.5  Z M 11.625 0.5  L 9.375 0.5  C 9.16789321881345 0.5  9 0.6678932188134521  9 0.875  C 9 1.082106781186548  9.16789321881345 1.25  9.375 1.25  L 11.25 1.25  L 11.25 3.125  C 11.25 3.332106781186548  11.41789321881345 3.5  11.625 3.5  C 11.83210678118655 3.5  12 3.332106781186548  12 3.125  L 12 0.875  C 12 0.6678932188134521  11.83210678118655 0.5  11.625 0.5  Z M 0.75 16.25  L 0.75 14.375  C 0.75 14.16789321881345  0.5821067811865479 14  0.375 14  C 0.1678932188134521 14  0 14.16789321881345  0 14.375  L 0 16.625  C 0 16.832  0.16800000000000015 17  0.375 17  L 2.625 17  C 2.832106781186548 17  3 16.83210678118655  3 16.625  C 3 16.41789321881345  2.832106781186548 16.25  2.625 16.25  L 0.75 16.25  Z M 12 16.625  L 12 14.375  C 12 14.16789321881345  11.83210678118655 14  11.625 14  C 11.41789321881345 14  11.25 14.16789321881345  11.25 14.375  L 11.25 16.25  L 9.375 16.25  C 9.16789321881345 16.25  9 16.41789321881345  9 16.625  C 9 16.83210678118655  9.16789321881345 17  9.375 17  L 11.625 17  C 11.83210678118655 17  12 16.83210678118655  12 16.625  Z " fill-rule="nonzero" fill="rgba(0, 0, 0, 1)" stroke="none" transform="matrix(1 0 0 1 3 4 )" class="fill" />
    <path d="M 6 13.4375  C -2.7375000000000003 7.662500000000001  3.5040000000000013 3.173  6 5.7395  C 8.495999999999999 3.173  14.737499999999997 7.664  6 13.4375  Z " stroke-width="0" stroke-dasharray="0" stroke="rgba(255, 255, 255, 0)" fill="none" transform="matrix(1 0 0 1 3 4 )" class="stroke" mask="url(#Clip6519)" />
    <path d="M 2.625 0.5  L 0.375 0.5  C 0.1678932188134521 0.5  0 0.6678932188134521  0 0.875  L 0 3.125  C 0 3.332106781186548  0.1678932188134521 3.5  0.375 3.5  C 0.5821067811865479 3.5  0.75 3.332106781186548  0.75 3.125  L 0.75 1.25  L 2.625 1.25  C 2.832106781186548 1.25  3 1.082106781186548  3 0.875  C 3 0.6678932188134521  2.832106781186548 0.5  2.625 0.5  Z " stroke-width="0" stroke-dasharray="0" stroke="rgba(255, 255, 255, 0)" fill="none" transform="matrix(1 0 0 1 3 4 )" class="stroke" mask="url(#Clip6519)" />
    <path d="M 11.625 0.5  L 9.375 0.5  C 9.16789321881345 0.5  9 0.6678932188134521  9 0.875  C 9 1.082106781186548  9.16789321881345 1.25  9.375 1.25  L 11.25 1.25  L 11.25 3.125  C 11.25 3.332106781186548  11.41789321881345 3.5  11.625 3.5  C 11.83210678118655 3.5  12 3.332106781186548  12 3.125  L 12 0.875  C 12 0.6678932188134521  11.83210678118655 0.5  11.625 0.5  Z " stroke-width="0" stroke-dasharray="0" stroke="rgba(255, 255, 255, 0)" fill="none" transform="matrix(1 0 0 1 3 4 )" class="stroke" mask="url(#Clip6519)" />
    <path d="M 0.75 16.25  L 0.75 14.375  C 0.75 14.16789321881345  0.5821067811865479 14  0.375 14  C 0.1678932188134521 14  0 14.16789321881345  0 14.375  L 0 16.625  C 0 16.832  0.16800000000000015 17  0.375 17  L 2.625 17  C 2.832106781186548 17  3 16.83210678118655  3 16.625  C 3 16.41789321881345  2.832106781186548 16.25  2.625 16.25  L 0.75 16.25  Z " stroke-width="0" stroke-dasharray="0" stroke="rgba(255, 255, 255, 0)" fill="none" transform="matrix(1 0 0 1 3 4 )" class="stroke" mask="url(#Clip6519)" />
    <path d="M 12 16.625  L 12 14.375  C 12 14.16789321881345  11.83210678118655 14  11.625 14  C 11.41789321881345 14  11.25 14.16789321881345  11.25 14.375  L 11.25 16.25  L 9.375 16.25  C 9.16789321881345 16.25  9 16.41789321881345  9 16.625  C 9 16.83210678118655  9.16789321881345 17  9.375 17  L 11.625 17  C 11.83210678118655 17  12 16.83210678118655  12 16.625  Z " stroke-width="0" stroke-dasharray="0" stroke="rgba(255, 255, 255, 0)" fill="none" transform="matrix(1 0 0 1 3 4 )" class="stroke" mask="url(#Clip6519)" />
  </g>
</svg>