<?xml version="1.0" encoding="utf-8"?>
<svg version="1.1" xmlns:xlink="http://www.w3.org/1999/xlink" width="20px" height="12px" xmlns="http://www.w3.org/2000/svg">
  <defs>
    <pattern id="BGPattern" patternUnits="userSpaceOnUse" alignment="0 0" imageRepeat="None" />
    <mask fill="white" id="Clip5135">
      <path d="M 0.24865932447187333 1.4999999999999982  C 0.24865932447187333 1.3007591087126364  0.32793744896854893 1.1097063945152499  0.46899999999999986 0.9689999999999994  C 0.6097063945152508 0.827937448968548  0.8007591087126378 0.7486593244718733  1 0.7486593244718733  C 1.1992408912873618 0.7486593244718733  1.3902936054847497 0.827937448968548  1.5310000000000001 0.9689999999999994  L 10 9.439499999999999  L 18.469 0.9689999999999976  C 18.609829956104797 0.8281700438952022  18.80083636608819 0.749052598379885  19 0.749052598379885  C 19.41473679783985 0.749052598379885  19.750947401620117 1.0852632021601494  19.750947401620117 1.4999999999999982  C 19.750947401620117 1.6991636339118124  19.671829956104798 1.8901700438951998  19.531000000000002 2.030999999999999  L 10.531000000000002 11.030999999999999  C 10.39029360548475 11.172062551031452  10.199240891287364 11.251340675528127  10 11.251340675528127  C 9.800759108712636 11.251340675528127  9.609706394515252 11.172062551031452  9.469000000000001 11.030999999999999  L 0.4690000000000012 2.030999999999999  C 0.32793744896854893 1.8902936054847483  0.24865932447187333 1.69924089128736  0.24865932447187333 1.4999999999999982  Z " fill-rule="evenodd" />
    </mask>
  </defs>
  <g transform="matrix(1 0 0 1 0 -6 )">
    <path d="M 0.24865932447187333 1.4999999999999982  C 0.24865932447187333 1.3007591087126364  0.32793744896854893 1.1097063945152499  0.46899999999999986 0.9689999999999994  C 0.6097063945152508 0.827937448968548  0.8007591087126378 0.7486593244718733  1 0.7486593244718733  C 1.1992408912873618 0.7486593244718733  1.3902936054847497 0.827937448968548  1.5310000000000001 0.9689999999999994  L 10 9.439499999999999  L 18.469 0.9689999999999976  C 18.609829956104797 0.8281700438952022  18.80083636608819 0.749052598379885  19 0.749052598379885  C 19.41473679783985 0.749052598379885  19.750947401620117 1.0852632021601494  19.750947401620117 1.4999999999999982  C 19.750947401620117 1.6991636339118124  19.671829956104798 1.8901700438951998  19.531000000000002 2.030999999999999  L 10.531000000000002 11.030999999999999  C 10.39029360548475 11.172062551031452  10.199240891287364 11.251340675528127  10 11.251340675528127  C 9.800759108712636 11.251340675528127  9.609706394515252 11.172062551031452  9.469000000000001 11.030999999999999  L 0.4690000000000012 2.030999999999999  C 0.32793744896854893 1.8902936054847483  0.24865932447187333 1.69924089128736  0.24865932447187333 1.4999999999999982  Z " fill-rule="nonzero" fill="rgba(0, 0, 0, 1)" stroke="none" transform="matrix(1 0 0 1 0 6 )" class="fill" />
    <path d="M 0.24865932447187333 1.4999999999999982  C 0.24865932447187333 1.3007591087126364  0.32793744896854893 1.1097063945152499  0.46899999999999986 0.9689999999999994  C 0.6097063945152508 0.827937448968548  0.8007591087126378 0.7486593244718733  1 0.7486593244718733  C 1.1992408912873618 0.7486593244718733  1.3902936054847497 0.827937448968548  1.5310000000000001 0.9689999999999994  L 10 9.439499999999999  L 18.469 0.9689999999999976  C 18.609829956104797 0.8281700438952022  18.80083636608819 0.749052598379885  19 0.749052598379885  C 19.41473679783985 0.749052598379885  19.750947401620117 1.0852632021601494  19.750947401620117 1.4999999999999982  C 19.750947401620117 1.6991636339118124  19.671829956104798 1.8901700438951998  19.531000000000002 2.030999999999999  L 10.531000000000002 11.030999999999999  C 10.39029360548475 11.172062551031452  10.199240891287364 11.251340675528127  10 11.251340675528127  C 9.800759108712636 11.251340675528127  9.609706394515252 11.172062551031452  9.469000000000001 11.030999999999999  L 0.4690000000000012 2.030999999999999  C 0.32793744896854893 1.8902936054847483  0.24865932447187333 1.69924089128736  0.24865932447187333 1.4999999999999982  Z " stroke-width="0" stroke-dasharray="0" stroke="rgba(255, 255, 255, 0)" fill="none" transform="matrix(1 0 0 1 0 6 )" class="stroke" mask="url(#Clip5135)" />
  </g>
</svg>