<?xml version="1.0" encoding="utf-8"?>
<svg version="1.1" xmlns:xlink="http://www.w3.org/1999/xlink" width="16px" height="8px" xmlns="http://www.w3.org/2000/svg">
  <defs>
    <pattern id="BGPattern" patternUnits="userSpaceOnUse" alignment="0 0" imageRepeat="None" />
    <mask fill="white" id="Clip3510">
      <path d="M 16 8  C 15.994930137762811 3.583823711779635  12.416176288220363 0.005069862237188969  8 0  C 5.700963378044854 0.011841593395743638  3.516982062174634 1.00733667685799  2 2.7348999999999983  L 2 0  L 0 0  L 0 5.999999999999997  L 6 5.999999999999997  L 6 3.9999999999999982  L 3.5407999999999973 3.9999999999999982  C 4.671397905717157 2.7244171981935694  6.295492137324157 1.9959931617713442  8 1.9999999999999973  C 11.312200659363079 2.003637422272866  13.99636257772713 4.68779934063692  14 7.9999999999999964  L 16 8  Z " fill-rule="evenodd" />
    </mask>
  </defs>
  <g transform="matrix(1 0 0 1 -14 -14 )">
    <path d="M 16 8  C 15.994930137762811 3.583823711779635  12.416176288220363 0.005069862237188969  8 0  C 5.700963378044854 0.011841593395743638  3.516982062174634 1.00733667685799  2 2.7348999999999983  L 2 0  L 0 0  L 0 5.999999999999997  L 6 5.999999999999997  L 6 3.9999999999999982  L 3.5407999999999973 3.9999999999999982  C 4.671397905717157 2.7244171981935694  6.295492137324157 1.9959931617713442  8 1.9999999999999973  C 11.312200659363079 2.003637422272866  13.99636257772713 4.68779934063692  14 7.9999999999999964  L 16 8  Z " fill-rule="nonzero" fill="rgba(0, 0, 0, 1)" stroke="none" transform="matrix(1 0 0 1 14 14 )" class="fill" />
    <path d="M 16 8  C 15.994930137762811 3.583823711779635  12.416176288220363 0.005069862237188969  8 0  C 5.700963378044854 0.011841593395743638  3.516982062174634 1.00733667685799  2 2.7348999999999983  L 2 0  L 0 0  L 0 5.999999999999997  L 6 5.999999999999997  L 6 3.9999999999999982  L 3.5407999999999973 3.9999999999999982  C 4.671397905717157 2.7244171981935694  6.295492137324157 1.9959931617713442  8 1.9999999999999973  C 11.312200659363079 2.003637422272866  13.99636257772713 4.68779934063692  14 7.9999999999999964  L 16 8  Z " stroke-width="0" stroke-dasharray="0" stroke="rgba(255, 255, 255, 0)" fill="none" transform="matrix(1 0 0 1 14 14 )" class="stroke" mask="url(#Clip3510)" />
  </g>
</svg>