<?xml version="1.0" encoding="utf-8"?>
<svg version="1.1" xmlns:xlink="http://www.w3.org/1999/xlink" width="50px" height="50px" xmlns="http://www.w3.org/2000/svg">
  <defs>
    <pattern id="BGPattern" patternUnits="userSpaceOnUse" alignment="0 0" imageRepeat="None" />
    <mask fill="white" id="Clip783">
      <path d="M 30.401785714285722 0.6138392857142776  C 16.629464285714278 5.859375  5.792410714285708 16.852678571428584  0.6473214285714306 30.658482142857142  C 0.2232142857142918 28.761160714285722  0 26.84151785714286  0 24.921875  C 0 11.160714285714278  11.138392857142861 0  24.899553571428555 0  C 26.752232142857142 0  28.616071428571416 0.2232142857142776  30.401785714285722 0.6138392857142776  Z M 9.642857142857139 44.77678571428572  C 14.453125 27.890625000000004  27.633928571428555 14.453125  44.49776785714286 9.542410714285722  C 42.96875 7.589285714285722  41.18303571428572 5.892857142857139  39.162946428571416 4.486607142857139  C 22.46651785714286 9.430803571428584  9.441964285714278 22.578125  4.598214285714278 39.30803571428572  C 5.993303571428569 41.328125  7.723214285714278 43.28125  9.642857142857139 44.77678571428572  Z M 50 50  C 48.962053571428555 45.92633928571428  47.72321428571428 41.68526785714286  46.26116071428572 37.74553571428572  C 47.95758928571428 34.944196428571416  49.09598214285714 31.75223214285714  49.553571428571445 28.504464285714278  C 40.69196428571428 33.29241071428572  33.37053571428572 40.84821428571428  28.616071428571416 49.743303571428555  C 31.964285714285722 49.25223214285714  35.18973214285714 48.03571428571428  38.05803571428572 46.25  C 41.96428571428572 47.712053571428555  45.97098214285714 48.962053571428555  50 50  Z M 21.618303571428555 49.79910714285714  C 26.785714285714278 37.06473214285714  36.88616071428572 26.718750000000004  49.57589285714286 21.506696428571416  C 49.28571428571428 19.33035714285714  48.694196428571445 17.1875  47.8125 15.167410714285722  C 32.421875 20.27901785714286  20.3125 32.64508928571428  15.301339285714278 48.102678571428555  C 17.321428571428555 48.95089285714286  19.430803571428555 49.49776785714286  21.618303571428555 49.79910714285714  Z " fill-rule="evenodd" />
    </mask>
  </defs>
  <g>
    <path d="M 30.401785714285722 0.6138392857142776  C 16.629464285714278 5.859375  5.792410714285708 16.852678571428584  0.6473214285714306 30.658482142857142  C 0.2232142857142918 28.761160714285722  0 26.84151785714286  0 24.921875  C 0 11.160714285714278  11.138392857142861 0  24.899553571428555 0  C 26.752232142857142 0  28.616071428571416 0.2232142857142776  30.401785714285722 0.6138392857142776  Z M 9.642857142857139 44.77678571428572  C 14.453125 27.890625000000004  27.633928571428555 14.453125  44.49776785714286 9.542410714285722  C 42.96875 7.589285714285722  41.18303571428572 5.892857142857139  39.162946428571416 4.486607142857139  C 22.46651785714286 9.430803571428584  9.441964285714278 22.578125  4.598214285714278 39.30803571428572  C 5.993303571428569 41.328125  7.723214285714278 43.28125  9.642857142857139 44.77678571428572  Z M 50 50  C 48.962053571428555 45.92633928571428  47.72321428571428 41.68526785714286  46.26116071428572 37.74553571428572  C 47.95758928571428 34.944196428571416  49.09598214285714 31.75223214285714  49.553571428571445 28.504464285714278  C 40.69196428571428 33.29241071428572  33.37053571428572 40.84821428571428  28.616071428571416 49.743303571428555  C 31.964285714285722 49.25223214285714  35.18973214285714 48.03571428571428  38.05803571428572 46.25  C 41.96428571428572 47.712053571428555  45.97098214285714 48.962053571428555  50 50  Z M 21.618303571428555 49.79910714285714  C 26.785714285714278 37.06473214285714  36.88616071428572 26.718750000000004  49.57589285714286 21.506696428571416  C 49.28571428571428 19.33035714285714  48.694196428571445 17.1875  47.8125 15.167410714285722  C 32.421875 20.27901785714286  20.3125 32.64508928571428  15.301339285714278 48.102678571428555  C 17.321428571428555 48.95089285714286  19.430803571428555 49.49776785714286  21.618303571428555 49.79910714285714  Z " fill-rule="nonzero" fill="rgba(0, 0, 0, 1)" stroke="none" class="fill" />
    <path d="M 30.401785714285722 0.6138392857142776  C 16.629464285714278 5.859375  5.792410714285708 16.852678571428584  0.6473214285714306 30.658482142857142  C 0.2232142857142918 28.761160714285722  0 26.84151785714286  0 24.921875  C 0 11.160714285714278  11.138392857142861 0  24.899553571428555 0  C 26.752232142857142 0  28.616071428571416 0.2232142857142776  30.401785714285722 0.6138392857142776  Z " stroke-width="0" stroke-dasharray="0" stroke="rgba(255, 255, 255, 0)" fill="none" class="stroke" mask="url(#Clip783)" />
    <path d="M 9.642857142857139 44.77678571428572  C 14.453125 27.890625000000004  27.633928571428555 14.453125  44.49776785714286 9.542410714285722  C 42.96875 7.589285714285722  41.18303571428572 5.892857142857139  39.162946428571416 4.486607142857139  C 22.46651785714286 9.430803571428584  9.441964285714278 22.578125  4.598214285714278 39.30803571428572  C 5.993303571428569 41.328125  7.723214285714278 43.28125  9.642857142857139 44.77678571428572  Z " stroke-width="0" stroke-dasharray="0" stroke="rgba(255, 255, 255, 0)" fill="none" class="stroke" mask="url(#Clip783)" />
    <path d="M 50 50  C 48.962053571428555 45.92633928571428  47.72321428571428 41.68526785714286  46.26116071428572 37.74553571428572  C 47.95758928571428 34.944196428571416  49.09598214285714 31.75223214285714  49.553571428571445 28.504464285714278  C 40.69196428571428 33.29241071428572  33.37053571428572 40.84821428571428  28.616071428571416 49.743303571428555  C 31.964285714285722 49.25223214285714  35.18973214285714 48.03571428571428  38.05803571428572 46.25  C 41.96428571428572 47.712053571428555  45.97098214285714 48.962053571428555  50 50  Z " stroke-width="0" stroke-dasharray="0" stroke="rgba(255, 255, 255, 0)" fill="none" class="stroke" mask="url(#Clip783)" />
    <path d="M 21.618303571428555 49.79910714285714  C 26.785714285714278 37.06473214285714  36.88616071428572 26.718750000000004  49.57589285714286 21.506696428571416  C 49.28571428571428 19.33035714285714  48.694196428571445 17.1875  47.8125 15.167410714285722  C 32.421875 20.27901785714286  20.3125 32.64508928571428  15.301339285714278 48.102678571428555  C 17.321428571428555 48.95089285714286  19.430803571428555 49.49776785714286  21.618303571428555 49.79910714285714  Z " stroke-width="0" stroke-dasharray="0" stroke="rgba(255, 255, 255, 0)" fill="none" class="stroke" mask="url(#Clip783)" />
  </g>
</svg>