<?xml version="1.0" encoding="utf-8"?>
<svg version="1.1" xmlns:xlink="http://www.w3.org/1999/xlink" width="10px" height="9px" xmlns="http://www.w3.org/2000/svg">
  <defs>
    <pattern id="BGPattern" patternUnits="userSpaceOnUse" alignment="0 0" imageRepeat="None" />
    <mask fill="white" id="Clip5557">
      <path d="M 5.000000067055225 9  C 7.485281441293795 9  9.500000067055225 6.9852813742385695  9.500000067055225 4.499999999999999  C 9.500000067055225 2.01471862576143  7.485281441293795 0  5.000000067055225 0  C 2.514718692816654 0  0.5000000670552254 2.01471862576143  0.5000000670552254 4.499999999999999  C 0.5000000670552254 6.9852813742385695  2.514718692816654 9  5.000000067055225 9  Z " fill-rule="evenodd" />
    </mask>
  </defs>
  <g transform="matrix(1 0 0 1 -4 -6 )">
    <path d="M 5.000000067055225 9  C 7.485281441293795 9  9.500000067055225 6.9852813742385695  9.500000067055225 4.499999999999999  C 9.500000067055225 2.01471862576143  7.485281441293795 0  5.000000067055225 0  C 2.514718692816654 0  0.5000000670552254 2.01471862576143  0.5000000670552254 4.499999999999999  C 0.5000000670552254 6.9852813742385695  2.514718692816654 9  5.000000067055225 9  Z " fill-rule="nonzero" fill="rgba(0, 0, 0, 1)" stroke="none" transform="matrix(1 0 0 1 4 6 )" class="fill" />
    <path d="M 5.000000067055225 9  C 7.485281441293795 9  9.500000067055225 6.9852813742385695  9.500000067055225 4.499999999999999  C 9.500000067055225 2.01471862576143  7.485281441293795 0  5.000000067055225 0  C 2.514718692816654 0  0.5000000670552254 2.01471862576143  0.5000000670552254 4.499999999999999  C 0.5000000670552254 6.9852813742385695  2.514718692816654 9  5.000000067055225 9  Z " stroke-width="0" stroke-dasharray="0" stroke="rgba(255, 255, 255, 0)" fill="none" transform="matrix(1 0 0 1 4 6 )" class="stroke" mask="url(#Clip5557)" />
  </g>
</svg>