<?xml version="1.0" encoding="utf-8"?>
<svg version="1.1" xmlns:xlink="http://www.w3.org/1999/xlink" width="24px" height="24px" xmlns="http://www.w3.org/2000/svg">
  <defs>
    <pattern id="BGPattern" patternUnits="userSpaceOnUse" alignment="0 0" imageRepeat="None" />
    <mask fill="white" id="Clip5871">
      <path d="M 0 22.281  L 0 1.7189999999999999  C 0 0.7695000000000001  0.789 0  1.7625000000000002 0  L 22.2375 0  C 23.211 0  24 0.7695000000000001  24 1.7189999999999999  L 24 22.281  C 24 23.2305  23.211 24  22.237499999999997 24  L 1.7625000000000002 24  C 0.789 24  0 23.2305  0 22.281  Z M 4 20.090999999999998  L 7.414499999999999 20.090999999999998  L 7.414499999999999 9.253499999999999  L 4 9.253499999999999  L 4 20.090999999999998  Z M 5.590499999999999 7.772999999999998  L 5.6145 7.772999999999998  C 6.869999999999999 7.772999999999998  7.651499999999999 6.9419999999999975  7.651499999999999 5.900999999999998  C 7.629 4.837499999999998  6.871499999999999 4.028999999999997  5.638499999999999 4.028999999999997  C 4.405499999999998 4.028999999999997  3.5999999999999988 4.838999999999997  3.5999999999999988 5.900999999999998  C 3.5999999999999988 6.9419999999999975  4.381499999999998 7.772999999999998  5.590499999999999 7.772999999999998  Z M 9.3765 20.090999999999998  L 12.9765 20.090999999999998  L 12.9765 14.038499999999999  C 12.9765 13.714500000000001  13.000499999999999 13.3905  13.096499999999999 13.1595  C 13.356 12.513000000000002  13.9485 11.8425  14.944499999999998 11.8425  C 16.247999999999998 11.8425  16.768499999999996 12.8355  16.768499999999996 14.2935  L 16.768499999999996 20.091  L 20.369999999999997 20.091  L 20.369999999999997 13.875  C 20.369999999999997 10.544999999999998  18.593999999999998 8.997  16.223999999999997 8.997  C 14.312999999999997 8.997  13.456499999999998 10.047  12.9765 10.7865  L 12.9765 10.824000000000002  L 12.952500000000002 10.824000000000003  C 12.960466499978143 10.811478591597165  12.968466528682933 10.79897854674593  12.9765 10.7865  L 12.9765 9.253499999999999  L 9.3765 9.253499999999999  C 9.4215 10.270499999999998  9.3765 20.090999999999998  9.3765 20.090999999999998  Z " fill-rule="evenodd" />
    </mask>
  </defs>
  <g>
    <path d="M 0 22.281  L 0 1.7189999999999999  C 0 0.7695000000000001  0.789 0  1.7625000000000002 0  L 22.2375 0  C 23.211 0  24 0.7695000000000001  24 1.7189999999999999  L 24 22.281  C 24 23.2305  23.211 24  22.237499999999997 24  L 1.7625000000000002 24  C 0.789 24  0 23.2305  0 22.281  Z M 4 20.090999999999998  L 7.414499999999999 20.090999999999998  L 7.414499999999999 9.253499999999999  L 4 9.253499999999999  L 4 20.090999999999998  Z M 5.590499999999999 7.772999999999998  L 5.6145 7.772999999999998  C 6.869999999999999 7.772999999999998  7.651499999999999 6.9419999999999975  7.651499999999999 5.900999999999998  C 7.629 4.837499999999998  6.871499999999999 4.028999999999997  5.638499999999999 4.028999999999997  C 4.405499999999998 4.028999999999997  3.5999999999999988 4.838999999999997  3.5999999999999988 5.900999999999998  C 3.5999999999999988 6.9419999999999975  4.381499999999998 7.772999999999998  5.590499999999999 7.772999999999998  Z M 9.3765 20.090999999999998  L 12.9765 20.090999999999998  L 12.9765 14.038499999999999  C 12.9765 13.714500000000001  13.000499999999999 13.3905  13.096499999999999 13.1595  C 13.356 12.513000000000002  13.9485 11.8425  14.944499999999998 11.8425  C 16.247999999999998 11.8425  16.768499999999996 12.8355  16.768499999999996 14.2935  L 16.768499999999996 20.091  L 20.369999999999997 20.091  L 20.369999999999997 13.875  C 20.369999999999997 10.544999999999998  18.593999999999998 8.997  16.223999999999997 8.997  C 14.312999999999997 8.997  13.456499999999998 10.047  12.9765 10.7865  L 12.9765 10.824000000000002  L 12.952500000000002 10.824000000000003  C 12.960466499978143 10.811478591597165  12.968466528682933 10.79897854674593  12.9765 10.7865  L 12.9765 9.253499999999999  L 9.3765 9.253499999999999  C 9.4215 10.270499999999998  9.3765 20.090999999999998  9.3765 20.090999999999998  Z " fill-rule="nonzero" fill="rgba(0, 0, 0, 1)" stroke="none" class="fill" />
    <path d="M 0 22.281  L 0 1.7189999999999999  C 0 0.7695000000000001  0.789 0  1.7625000000000002 0  L 22.2375 0  C 23.211 0  24 0.7695000000000001  24 1.7189999999999999  L 24 22.281  C 24 23.2305  23.211 24  22.237499999999997 24  L 1.7625000000000002 24  C 0.789 24  0 23.2305  0 22.281  Z " stroke-width="0" stroke-dasharray="0" stroke="rgba(255, 255, 255, 0)" fill="none" class="stroke" mask="url(#Clip5871)" />
    <path d="M 4 20.090999999999998  L 7.414499999999999 20.090999999999998  L 7.414499999999999 9.253499999999999  L 4 9.253499999999999  L 4 20.090999999999998  Z " stroke-width="0" stroke-dasharray="0" stroke="rgba(255, 255, 255, 0)" fill="none" class="stroke" mask="url(#Clip5871)" />
    <path d="M 5.590499999999999 7.772999999999998  L 5.6145 7.772999999999998  C 6.869999999999999 7.772999999999998  7.651499999999999 6.9419999999999975  7.651499999999999 5.900999999999998  C 7.629 4.837499999999998  6.871499999999999 4.028999999999997  5.638499999999999 4.028999999999997  C 4.405499999999998 4.028999999999997  3.5999999999999988 4.838999999999997  3.5999999999999988 5.900999999999998  C 3.5999999999999988 6.9419999999999975  4.381499999999998 7.772999999999998  5.590499999999999 7.772999999999998  Z " stroke-width="0" stroke-dasharray="0" stroke="rgba(255, 255, 255, 0)" fill="none" class="stroke" mask="url(#Clip5871)" />
    <path d="M 9.3765 20.090999999999998  L 12.9765 20.090999999999998  L 12.9765 14.038499999999999  C 12.9765 13.714500000000001  13.000499999999999 13.3905  13.096499999999999 13.1595  C 13.356 12.513000000000002  13.9485 11.8425  14.944499999999998 11.8425  C 16.247999999999998 11.8425  16.768499999999996 12.8355  16.768499999999996 14.2935  L 16.768499999999996 20.091  L 20.369999999999997 20.091  L 20.369999999999997 13.875  C 20.369999999999997 10.544999999999998  18.593999999999998 8.997  16.223999999999997 8.997  C 14.312999999999997 8.997  13.456499999999998 10.047  12.9765 10.7865  L 12.9765 10.824000000000002  L 12.952500000000002 10.824000000000003  C 12.960466499978143 10.811478591597165  12.968466528682933 10.79897854674593  12.9765 10.7865  L 12.9765 9.253499999999999  L 9.3765 9.253499999999999  C 9.4215 10.270499999999998  9.3765 20.090999999999998  9.3765 20.090999999999998  Z " stroke-width="0" stroke-dasharray="0" stroke="rgba(255, 255, 255, 0)" fill="none" class="stroke" mask="url(#Clip5871)" />
  </g>
</svg>