<?xml version="1.0" encoding="utf-8"?>
<svg version="1.1" xmlns:xlink="http://www.w3.org/1999/xlink" width="42px" height="48px" xmlns="http://www.w3.org/2000/svg">
  <defs>
    <pattern id="BGPattern" patternUnits="userSpaceOnUse" alignment="0 0" imageRepeat="None" />
    <mask fill="white" id="Clip6930">
      <path d="M 20.4 43.2  L 5 34  L 5 15.2  L 0 12.8  L 0 36.400000000000006  L 20.4 48  L 20.4 43.2  Z M 9 31.6  L 21 38.4  L 21 24.599999999999998  L 9 17.599999999999998  L 9 31.6  Z M 4.800000000000001 14.2  L 21 4.8  L 37.2 14.2  L 41.400000000000006 11.799999999999999  L 21 0  L 0.6000000000000001 11.8  L 4.800000000000001 14.2  Z M 21 23.6  L 33 16.6  L 21 9.600000000000001  L 9 16.6  L 21 23.6  Z M 21 24.6  L 21 38.6  L 33.6 31.6  L 33.6 26.8  L 25.400000000000002 31.6  L 25.400000000000002 26.8  L 37 19.6  L 37 34  L 21.60000000000001 43.2  L 21.60000000000001 48  L 42 36.4  L 42 12.8  L 21 24.6  Z " fill-rule="evenodd" />
    </mask>
  </defs>
  <g>
    <path d="M 20.4 43.2  L 5 34  L 5 15.2  L 0 12.8  L 0 36.400000000000006  L 20.4 48  L 20.4 43.2  Z M 9 31.6  L 21 38.4  L 21 24.599999999999998  L 9 17.599999999999998  L 9 31.6  Z M 4.800000000000001 14.2  L 21 4.8  L 37.2 14.2  L 41.400000000000006 11.799999999999999  L 21 0  L 0.6000000000000001 11.8  L 4.800000000000001 14.2  Z M 21 23.6  L 33 16.6  L 21 9.600000000000001  L 9 16.6  L 21 23.6  Z M 21 24.6  L 21 38.6  L 33.6 31.6  L 33.6 26.8  L 25.400000000000002 31.6  L 25.400000000000002 26.8  L 37 19.6  L 37 34  L 21.60000000000001 43.2  L 21.60000000000001 48  L 42 36.4  L 42 12.8  L 21 24.6  Z " fill-rule="nonzero" fill="rgba(26, 166, 228, 1)" stroke="none" class="fill" />
    <path d="M 20.4 43.2  L 5 34  L 5 15.2  L 0 12.8  L 0 36.400000000000006  L 20.4 48  L 20.4 43.2  Z " stroke-width="0" stroke-dasharray="0" stroke="rgba(255, 255, 255, 0)" fill="none" class="stroke" mask="url(#Clip6930)" />
    <path d="M 9 31.6  L 21 38.4  L 21 24.599999999999998  L 9 17.599999999999998  L 9 31.6  Z " stroke-width="0" stroke-dasharray="0" stroke="rgba(255, 255, 255, 0)" fill="none" class="stroke" mask="url(#Clip6930)" />
    <path d="M 4.800000000000001 14.2  L 21 4.8  L 37.2 14.2  L 41.400000000000006 11.799999999999999  L 21 0  L 0.6000000000000001 11.8  L 4.800000000000001 14.2  Z " stroke-width="0" stroke-dasharray="0" stroke="rgba(255, 255, 255, 0)" fill="none" class="stroke" mask="url(#Clip6930)" />
    <path d="M 21 23.6  L 33 16.6  L 21 9.600000000000001  L 9 16.6  L 21 23.6  Z " stroke-width="0" stroke-dasharray="0" stroke="rgba(255, 255, 255, 0)" fill="none" class="stroke" mask="url(#Clip6930)" />
    <path d="M 21 24.6  L 21 38.6  L 33.6 31.6  L 33.6 26.8  L 25.400000000000002 31.6  L 25.400000000000002 26.8  L 37 19.6  L 37 34  L 21.60000000000001 43.2  L 21.60000000000001 48  L 42 36.4  L 42 12.8  L 21 24.6  Z " stroke-width="0" stroke-dasharray="0" stroke="rgba(255, 255, 255, 0)" fill="none" class="stroke" mask="url(#Clip6930)" />
  </g>
</svg>