<?xml version="1.0" encoding="utf-8"?>
<svg version="1.1" xmlns:xlink="http://www.w3.org/1999/xlink" width="28px" height="30px" xmlns="http://www.w3.org/2000/svg">
  <defs>
    <pattern id="BGPattern" patternUnits="userSpaceOnUse" alignment="0 0" imageRepeat="None" />
    <mask fill="white" id="Clip3025">
      <path d="M 0.625 15.312499999999998  C 0.625 15.562500000000002  0.8125 15.75  1.0500000000000007 15.75  L 4.21875 15.75  C 4.449999999999999 15.75  4.643750000000001 15.562500000000002  4.643750000000001 15.325000000000005  L 4.643750000000001 10.393750000000004  C 4.643750000000001 9.162500000000005  5.637499999999999 8.168750000000003  6.862500000000001 8.168750000000003  L 19.71875 8.168750000000003  L 19.71875 11.506250000000001  C 19.71875 11.8625  20.125 12.056250000000002  20.4 11.837500000000002  L 27.21875 6.481250000000003  C 27.4375 6.3125000000000036  27.4375 5.981250000000003  27.21875 5.8125000000000036  L 20.4 0.45625000000000426  C 20.125 0.2375000000000043  19.71875 0.43750000000000355  19.71875 0.787500000000005  L 19.71875 4.125  L 6.856249999999999 4.125  C 3.412499999999998 4.125  0.625 6.925000000000001  0.625 10.381250000000001  L 0.625 15.312499999999998  Z M 0.7875000000000014 23.525000000000006  C 0.5687500000000014 23.681250000000006  0.5687500000000014 24.012500000000003  0.7875000000000014 24.18125  L 7.606250000000003 29.5375  C 7.8812500000000005 29.75625  8.287500000000001 29.55625  8.287500000000001 29.206250000000004  L 8.287500000000001 25.868750000000006  L 21.143749999999997 25.868750000000006  C 24.5875 25.868750000000006  27.375 23.06875000000001  27.375 19.612500000000004  L 27.375 14.681250000000006  C 27.375 14.450000000000006  27.1875 14.256250000000005  26.950000000000003 14.256250000000005  L 23.78125 14.256250000000005  C 23.549999999999997 14.256250000000005  23.356250000000003 14.443750000000005  23.356250000000003 14.681250000000006  L 23.356250000000003 19.612500000000004  C 23.356250000000003 20.843750000000007  22.362500000000004 21.837500000000006  21.137500000000003 21.837500000000006  L 8.287500000000001 21.837500000000006  L 8.287500000000001 18.5  C 8.287500000000001 18.143749999999997  7.8812500000000005 17.950000000000003  7.606250000000003 18.168750000000003  L 0.7875000000000014 23.525000000000006  Z " fill-rule="evenodd" />
    </mask>
  </defs>
  <g transform="matrix(1 0 0 1 -11 -10 )">
    <path d="M 0.625 15.312499999999998  C 0.625 15.562500000000002  0.8125 15.75  1.0500000000000007 15.75  L 4.21875 15.75  C 4.449999999999999 15.75  4.643750000000001 15.562500000000002  4.643750000000001 15.325000000000005  L 4.643750000000001 10.393750000000004  C 4.643750000000001 9.162500000000005  5.637499999999999 8.168750000000003  6.862500000000001 8.168750000000003  L 19.71875 8.168750000000003  L 19.71875 11.506250000000001  C 19.71875 11.8625  20.125 12.056250000000002  20.4 11.837500000000002  L 27.21875 6.481250000000003  C 27.4375 6.3125000000000036  27.4375 5.981250000000003  27.21875 5.8125000000000036  L 20.4 0.45625000000000426  C 20.125 0.2375000000000043  19.71875 0.43750000000000355  19.71875 0.787500000000005  L 19.71875 4.125  L 6.856249999999999 4.125  C 3.412499999999998 4.125  0.625 6.925000000000001  0.625 10.381250000000001  L 0.625 15.312499999999998  Z M 0.7875000000000014 23.525000000000006  C 0.5687500000000014 23.681250000000006  0.5687500000000014 24.012500000000003  0.7875000000000014 24.18125  L 7.606250000000003 29.5375  C 7.8812500000000005 29.75625  8.287500000000001 29.55625  8.287500000000001 29.206250000000004  L 8.287500000000001 25.868750000000006  L 21.143749999999997 25.868750000000006  C 24.5875 25.868750000000006  27.375 23.06875000000001  27.375 19.612500000000004  L 27.375 14.681250000000006  C 27.375 14.450000000000006  27.1875 14.256250000000005  26.950000000000003 14.256250000000005  L 23.78125 14.256250000000005  C 23.549999999999997 14.256250000000005  23.356250000000003 14.443750000000005  23.356250000000003 14.681250000000006  L 23.356250000000003 19.612500000000004  C 23.356250000000003 20.843750000000007  22.362500000000004 21.837500000000006  21.137500000000003 21.837500000000006  L 8.287500000000001 21.837500000000006  L 8.287500000000001 18.5  C 8.287500000000001 18.143749999999997  7.8812500000000005 17.950000000000003  7.606250000000003 18.168750000000003  L 0.7875000000000014 23.525000000000006  Z " fill-rule="nonzero" fill="rgba(51, 51, 51, 1)" stroke="none" transform="matrix(1 0 0 1 11 10 )" class="fill" />
    <path d="M 0.625 15.312499999999998  C 0.625 15.562500000000002  0.8125 15.75  1.0500000000000007 15.75  L 4.21875 15.75  C 4.449999999999999 15.75  4.643750000000001 15.562500000000002  4.643750000000001 15.325000000000005  L 4.643750000000001 10.393750000000004  C 4.643750000000001 9.162500000000005  5.637499999999999 8.168750000000003  6.862500000000001 8.168750000000003  L 19.71875 8.168750000000003  L 19.71875 11.506250000000001  C 19.71875 11.8625  20.125 12.056250000000002  20.4 11.837500000000002  L 27.21875 6.481250000000003  C 27.4375 6.3125000000000036  27.4375 5.981250000000003  27.21875 5.8125000000000036  L 20.4 0.45625000000000426  C 20.125 0.2375000000000043  19.71875 0.43750000000000355  19.71875 0.787500000000005  L 19.71875 4.125  L 6.856249999999999 4.125  C 3.412499999999998 4.125  0.625 6.925000000000001  0.625 10.381250000000001  L 0.625 15.312499999999998  Z " stroke-width="0" stroke-dasharray="0" stroke="rgba(255, 255, 255, 0)" fill="none" transform="matrix(1 0 0 1 11 10 )" class="stroke" mask="url(#Clip3025)" />
    <path d="M 0.7875000000000014 23.525000000000006  C 0.5687500000000014 23.681250000000006  0.5687500000000014 24.012500000000003  0.7875000000000014 24.18125  L 7.606250000000003 29.5375  C 7.8812500000000005 29.75625  8.287500000000001 29.55625  8.287500000000001 29.206250000000004  L 8.287500000000001 25.868750000000006  L 21.143749999999997 25.868750000000006  C 24.5875 25.868750000000006  27.375 23.06875000000001  27.375 19.612500000000004  L 27.375 14.681250000000006  C 27.375 14.450000000000006  27.1875 14.256250000000005  26.950000000000003 14.256250000000005  L 23.78125 14.256250000000005  C 23.549999999999997 14.256250000000005  23.356250000000003 14.443750000000005  23.356250000000003 14.681250000000006  L 23.356250000000003 19.612500000000004  C 23.356250000000003 20.843750000000007  22.362500000000004 21.837500000000006  21.137500000000003 21.837500000000006  L 8.287500000000001 21.837500000000006  L 8.287500000000001 18.5  C 8.287500000000001 18.143749999999997  7.8812500000000005 17.950000000000003  7.606250000000003 18.168750000000003  L 0.7875000000000014 23.525000000000006  Z " stroke-width="0" stroke-dasharray="0" stroke="rgba(255, 255, 255, 0)" fill="none" transform="matrix(1 0 0 1 11 10 )" class="stroke" mask="url(#Clip3025)" />
  </g>
</svg>