<?xml version="1.0" encoding="utf-8"?>
<svg version="1.1" xmlns:xlink="http://www.w3.org/1999/xlink" width="21px" height="24px" xmlns="http://www.w3.org/2000/svg">
  <defs>
    <pattern id="BGPattern" patternUnits="userSpaceOnUse" alignment="0 0" imageRepeat="None" />
    <mask fill="white" id="Clip5630">
      <path d="M 14.25 0  L 21 6.75  L 21 21  C 21 22.65685424949238  19.65685424949238 24  18 24  L 18 22.5  C 18.82842712474619 22.5  19.5 21.82842712474619  19.5 21  L 19.5 6.75  L 16.5 6.75  C 15.257359312880716 6.75  14.25 5.742640687119285  14.25 4.5  L 14.25 1.5  L 6 1.5  C 5.17157287525381 1.5  4.5 2.1715728752538097  4.5 3  L 4.5 16.5  L 3 16.5  L 3 3  C 3 1.3431457505076196  4.343145750507619 0  6 0  L 14.25 0  Z M 2.0084999999999997 23.7735  L 3.1995 23.7735  L 3.1995 21.471  L 5.208 17.775  L 3.924000000000001 17.775  L 2.6415000000000006 20.319  L 2.5935 20.319  L 1.314 17.775  L 0 17.775  L 2.0084999999999997 21.4935  L 2.0084999999999997 23.7735  Z M 5.572499999999999 23.7735  L 6.63 23.7735  L 6.63 19.7835  L 6.687 19.7835  L 8.115 23.022  L 8.889 23.022  L 10.308 19.781999999999996  L 10.365 19.781999999999996  L 10.365 23.7735  L 11.437499999999998 23.7735  L 11.437499999999998 17.775  L 10.2375 17.775  L 8.5275 21.669  L 8.49 21.669  L 6.779999999999999 17.775  L 5.572499999999999 17.775  L 5.572499999999999 23.7735  Z M 13.693500000000002 17.775  L 13.694999999999997 22.762500000000003  L 16.238999999999997 22.762500000000003  L 16.238999999999997 23.7735  L 12.506999999999996 23.7735  L 12.506999999999996 17.775  L 13.693500000000002 17.775  Z " fill-rule="evenodd" />
    </mask>
  </defs>
  <g>
    <path d="M 14.25 0  L 21 6.75  L 21 21  C 21 22.65685424949238  19.65685424949238 24  18 24  L 18 22.5  C 18.82842712474619 22.5  19.5 21.82842712474619  19.5 21  L 19.5 6.75  L 16.5 6.75  C 15.257359312880716 6.75  14.25 5.742640687119285  14.25 4.5  L 14.25 1.5  L 6 1.5  C 5.17157287525381 1.5  4.5 2.1715728752538097  4.5 3  L 4.5 16.5  L 3 16.5  L 3 3  C 3 1.3431457505076196  4.343145750507619 0  6 0  L 14.25 0  Z M 2.0084999999999997 23.7735  L 3.1995 23.7735  L 3.1995 21.471  L 5.208 17.775  L 3.924000000000001 17.775  L 2.6415000000000006 20.319  L 2.5935 20.319  L 1.314 17.775  L 0 17.775  L 2.0084999999999997 21.4935  L 2.0084999999999997 23.7735  Z M 5.572499999999999 23.7735  L 6.63 23.7735  L 6.63 19.7835  L 6.687 19.7835  L 8.115 23.022  L 8.889 23.022  L 10.308 19.781999999999996  L 10.365 19.781999999999996  L 10.365 23.7735  L 11.437499999999998 23.7735  L 11.437499999999998 17.775  L 10.2375 17.775  L 8.5275 21.669  L 8.49 21.669  L 6.779999999999999 17.775  L 5.572499999999999 17.775  L 5.572499999999999 23.7735  Z M 13.693500000000002 17.775  L 13.694999999999997 22.762500000000003  L 16.238999999999997 22.762500000000003  L 16.238999999999997 23.7735  L 12.506999999999996 23.7735  L 12.506999999999996 17.775  L 13.693500000000002 17.775  Z " fill-rule="nonzero" fill="rgba(0, 0, 0, 1)" stroke="none" class="fill" />
    <path d="M 14.25 0  L 21 6.75  L 21 21  C 21 22.65685424949238  19.65685424949238 24  18 24  L 18 22.5  C 18.82842712474619 22.5  19.5 21.82842712474619  19.5 21  L 19.5 6.75  L 16.5 6.75  C 15.257359312880716 6.75  14.25 5.742640687119285  14.25 4.5  L 14.25 1.5  L 6 1.5  C 5.17157287525381 1.5  4.5 2.1715728752538097  4.5 3  L 4.5 16.5  L 3 16.5  L 3 3  C 3 1.3431457505076196  4.343145750507619 0  6 0  L 14.25 0  Z " stroke-width="0" stroke-dasharray="0" stroke="rgba(255, 255, 255, 0)" fill="none" class="stroke" mask="url(#Clip5630)" />
    <path d="M 2.0084999999999997 23.7735  L 3.1995 23.7735  L 3.1995 21.471  L 5.208 17.775  L 3.924000000000001 17.775  L 2.6415000000000006 20.319  L 2.5935 20.319  L 1.314 17.775  L 0 17.775  L 2.0084999999999997 21.4935  L 2.0084999999999997 23.7735  Z " stroke-width="0" stroke-dasharray="0" stroke="rgba(255, 255, 255, 0)" fill="none" class="stroke" mask="url(#Clip5630)" />
    <path d="M 5.572499999999999 23.7735  L 6.63 23.7735  L 6.63 19.7835  L 6.687 19.7835  L 8.115 23.022  L 8.889 23.022  L 10.308 19.781999999999996  L 10.365 19.781999999999996  L 10.365 23.7735  L 11.437499999999998 23.7735  L 11.437499999999998 17.775  L 10.2375 17.775  L 8.5275 21.669  L 8.49 21.669  L 6.779999999999999 17.775  L 5.572499999999999 17.775  L 5.572499999999999 23.7735  Z " stroke-width="0" stroke-dasharray="0" stroke="rgba(255, 255, 255, 0)" fill="none" class="stroke" mask="url(#Clip5630)" />
    <path d="M 13.693500000000002 17.775  L 13.694999999999997 22.762500000000003  L 16.238999999999997 22.762500000000003  L 16.238999999999997 23.7735  L 12.506999999999996 23.7735  L 12.506999999999996 17.775  L 13.693500000000002 17.775  Z " stroke-width="0" stroke-dasharray="0" stroke="rgba(255, 255, 255, 0)" fill="none" class="stroke" mask="url(#Clip5630)" />
  </g>
</svg>