<?xml version="1.0" encoding="utf-8"?>
<svg version="1.1" xmlns:xlink="http://www.w3.org/1999/xlink" width="8px" height="10px" xmlns="http://www.w3.org/2000/svg">
  <defs>
    <pattern id="BGPattern" patternUnits="userSpaceOnUse" alignment="0 0" imageRepeat="None" />
    <mask fill="white" id="Clip5461">
      <path d="M 3.25 0.75  C 3.25 0.3357864376269042  3.585786437626904 0  4 0  C 4.414213562373096 0  4.75 0.3357864376269042  4.75 0.75  L 4.75 6.439499999999999  L 6.469000000000001 4.718999999999998  C 6.609829956104798 4.578170043895202  6.800836366088189 4.499052598379885  7 4.499052598379885  C 7.414736797839849 4.499052598379885  7.750947401620115 4.835263202160151  7.750947401620115 5.25  C 7.750947401620115 5.449163633911812  7.671829956104798 5.6401700438952  7.531000000000002 5.780999999999999  L 4.531000000000002 8.780999999999999  C 4.39029360548475 8.922062551031452  4.1992408912873636 9.001340675528127  4 9.001340675528127  C 3.8007591087126364 9.001340675528127  3.6097063945152517 8.922062551031452  3.469000000000001 8.780999999999999  L 0.4690000000000012 5.780999999999999  C 0.328170043895204 5.640170043895202  0.2490525983798868 5.449163633911811  0.2490525983798868 5.25  C 0.2490525983798868 4.835263202160151  0.5852632021601529 4.499052598379885  1.0000000000000018 4.499052598379885  C 1.1991636339118141 4.499052598379885  1.3901700438952034 4.578170043895202  1.5310000000000024 4.718999999999998  L 3.25 6.439499999999999  L 3.25 0.75  Z " fill-rule="evenodd" />
    </mask>
  </defs>
  <g transform="matrix(1 0 0 1 -5 -9 )">
    <path d="M 3.25 0.75  C 3.25 0.3357864376269042  3.585786437626904 0  4 0  C 4.414213562373096 0  4.75 0.3357864376269042  4.75 0.75  L 4.75 6.439499999999999  L 6.469000000000001 4.718999999999998  C 6.609829956104798 4.578170043895202  6.800836366088189 4.499052598379885  7 4.499052598379885  C 7.414736797839849 4.499052598379885  7.750947401620115 4.835263202160151  7.750947401620115 5.25  C 7.750947401620115 5.449163633911812  7.671829956104798 5.6401700438952  7.531000000000002 5.780999999999999  L 4.531000000000002 8.780999999999999  C 4.39029360548475 8.922062551031452  4.1992408912873636 9.001340675528127  4 9.001340675528127  C 3.8007591087126364 9.001340675528127  3.6097063945152517 8.922062551031452  3.469000000000001 8.780999999999999  L 0.4690000000000012 5.780999999999999  C 0.328170043895204 5.640170043895202  0.2490525983798868 5.449163633911811  0.2490525983798868 5.25  C 0.2490525983798868 4.835263202160151  0.5852632021601529 4.499052598379885  1.0000000000000018 4.499052598379885  C 1.1991636339118141 4.499052598379885  1.3901700438952034 4.578170043895202  1.5310000000000024 4.718999999999998  L 3.25 6.439499999999999  L 3.25 0.75  Z " fill-rule="nonzero" fill="rgba(0, 0, 0, 1)" stroke="none" transform="matrix(1 0 0 1 5 9 )" class="fill" />
    <path d="M 3.25 0.75  C 3.25 0.3357864376269042  3.585786437626904 0  4 0  C 4.414213562373096 0  4.75 0.3357864376269042  4.75 0.75  L 4.75 6.439499999999999  L 6.469000000000001 4.718999999999998  C 6.609829956104798 4.578170043895202  6.800836366088189 4.499052598379885  7 4.499052598379885  C 7.414736797839849 4.499052598379885  7.750947401620115 4.835263202160151  7.750947401620115 5.25  C 7.750947401620115 5.449163633911812  7.671829956104798 5.6401700438952  7.531000000000002 5.780999999999999  L 4.531000000000002 8.780999999999999  C 4.39029360548475 8.922062551031452  4.1992408912873636 9.001340675528127  4 9.001340675528127  C 3.8007591087126364 9.001340675528127  3.6097063945152517 8.922062551031452  3.469000000000001 8.780999999999999  L 0.4690000000000012 5.780999999999999  C 0.328170043895204 5.640170043895202  0.2490525983798868 5.449163633911811  0.2490525983798868 5.25  C 0.2490525983798868 4.835263202160151  0.5852632021601529 4.499052598379885  1.0000000000000018 4.499052598379885  C 1.1991636339118141 4.499052598379885  1.3901700438952034 4.578170043895202  1.5310000000000024 4.718999999999998  L 3.25 6.439499999999999  L 3.25 0.75  Z " stroke-width="0" stroke-dasharray="0" stroke="rgba(255, 255, 255, 0)" fill="none" transform="matrix(1 0 0 1 5 9 )" class="stroke" mask="url(#Clip5461)" />
  </g>
</svg>