<?xml version="1.0" encoding="utf-8"?>
<svg version="1.1" xmlns:xlink="http://www.w3.org/1999/xlink" width="50px" height="50px" xmlns="http://www.w3.org/2000/svg">
  <defs>
    <pattern id="BGPattern" patternUnits="userSpaceOnUse" alignment="0 0" imageRepeat="None" />
    <mask fill="white" id="Clip1866">
      <path d="M 50 42.96875  C 50 39.46484375  47.4306640625 36.583984375  44.078125 36.048828125  C 45.767578125 34.7646484375  46.875 32.7548828125  46.875 30.46875  C 46.875 26.5849609375  43.7265625 23.4375  39.84375 23.4375  L 38.4697265625 23.4375  C 39.7802734375 22.2919921875  40.625 20.626953125  40.625 18.75  C 40.625 15.2978515625  37.8271484375 12.5  34.375 12.5  L 33.80078125 12.5  C 34.1494140625 11.5185546875  34.375 10.4765625  34.375 9.375  C 34.375 4.197265625  30.177734375 0  25 0  C 24.4951171875 0  24.0087890625 0.072265625  23.5244140625 0.1484375  C 24.4443359375 1.4296875  25 2.990234375  25 4.6875  C 25 9.001953125  21.501953125 12.5  17.1875 12.5  L 15.625 12.5  C 12.1728515625 12.5  9.375 15.2978515625  9.375 18.75  C 9.375 20.626953125  10.2197265625 22.2919921875  11.5302734375 23.4375  L 10.15625 23.4375  C 6.273437499999999 23.4375  3.125 26.5849609375  3.125 30.46875  C 3.125 32.7548828125  4.232421875 34.7646484375  5.921875 36.048828125  C 2.5693359375 36.583984375  0 39.46484375  0 42.96875  C 0 46.8515625  3.1484375 50  7.03125 50  L 42.96875 50  C 46.8515625 50  50 46.8515625  50 42.96875  Z " fill-rule="evenodd" />
    </mask>
  </defs>
  <g>
    <path d="M 50 42.96875  C 50 39.46484375  47.4306640625 36.583984375  44.078125 36.048828125  C 45.767578125 34.7646484375  46.875 32.7548828125  46.875 30.46875  C 46.875 26.5849609375  43.7265625 23.4375  39.84375 23.4375  L 38.4697265625 23.4375  C 39.7802734375 22.2919921875  40.625 20.626953125  40.625 18.75  C 40.625 15.2978515625  37.8271484375 12.5  34.375 12.5  L 33.80078125 12.5  C 34.1494140625 11.5185546875  34.375 10.4765625  34.375 9.375  C 34.375 4.197265625  30.177734375 0  25 0  C 24.4951171875 0  24.0087890625 0.072265625  23.5244140625 0.1484375  C 24.4443359375 1.4296875  25 2.990234375  25 4.6875  C 25 9.001953125  21.501953125 12.5  17.1875 12.5  L 15.625 12.5  C 12.1728515625 12.5  9.375 15.2978515625  9.375 18.75  C 9.375 20.626953125  10.2197265625 22.2919921875  11.5302734375 23.4375  L 10.15625 23.4375  C 6.273437499999999 23.4375  3.125 26.5849609375  3.125 30.46875  C 3.125 32.7548828125  4.232421875 34.7646484375  5.921875 36.048828125  C 2.5693359375 36.583984375  0 39.46484375  0 42.96875  C 0 46.8515625  3.1484375 50  7.03125 50  L 42.96875 50  C 46.8515625 50  50 46.8515625  50 42.96875  Z " fill-rule="nonzero" fill="rgba(0, 0, 0, 1)" stroke="none" class="fill" />
    <path d="M 50 42.96875  C 50 39.46484375  47.4306640625 36.583984375  44.078125 36.048828125  C 45.767578125 34.7646484375  46.875 32.7548828125  46.875 30.46875  C 46.875 26.5849609375  43.7265625 23.4375  39.84375 23.4375  L 38.4697265625 23.4375  C 39.7802734375 22.2919921875  40.625 20.626953125  40.625 18.75  C 40.625 15.2978515625  37.8271484375 12.5  34.375 12.5  L 33.80078125 12.5  C 34.1494140625 11.5185546875  34.375 10.4765625  34.375 9.375  C 34.375 4.197265625  30.177734375 0  25 0  C 24.4951171875 0  24.0087890625 0.072265625  23.5244140625 0.1484375  C 24.4443359375 1.4296875  25 2.990234375  25 4.6875  C 25 9.001953125  21.501953125 12.5  17.1875 12.5  L 15.625 12.5  C 12.1728515625 12.5  9.375 15.2978515625  9.375 18.75  C 9.375 20.626953125  10.2197265625 22.2919921875  11.5302734375 23.4375  L 10.15625 23.4375  C 6.273437499999999 23.4375  3.125 26.5849609375  3.125 30.46875  C 3.125 32.7548828125  4.232421875 34.7646484375  5.921875 36.048828125  C 2.5693359375 36.583984375  0 39.46484375  0 42.96875  C 0 46.8515625  3.1484375 50  7.03125 50  L 42.96875 50  C 46.8515625 50  50 46.8515625  50 42.96875  Z " stroke-width="0" stroke-dasharray="0" stroke="rgba(255, 255, 255, 0)" fill="none" class="stroke" mask="url(#Clip1866)" />
  </g>
</svg>