<?xml version="1.0" encoding="utf-8"?>
<svg version="1.1" xmlns:xlink="http://www.w3.org/1999/xlink" width="22px" height="25px" xmlns="http://www.w3.org/2000/svg">
  <defs>
    <pattern id="BGPattern" patternUnits="userSpaceOnUse" alignment="0 0" imageRepeat="None" />
    <mask fill="white" id="Clip4824">
      <path d="M 8 22  C 8 23.65685424949238  9.34314575050762 25  11 25  C 12.65685424949238 25  14 23.65685424949238  14 22  L 8 22  Z M 18.5 10  C 18.5 6.370000000000001  15.919999999999998 3.3399999999999994  12.4925 2.6485000000000003  C 12.497496871087634 2.5987188673219865  12.500000000000002 2.548718906457848  12.500000000000002 2.498687617334216  C 12.500000000000002 1.6702604925880244  11.82842712474619 0.9986876173342158  10.999999999999998 0.9986876173342158  C 10.171572875253808 0.9986876173342158  9.499999999999998 1.6702604925880258  9.499999999999998 2.498687617334216  C 9.499999999999998 2.5487189064578564  9.502503128912362 2.5987188673219777  9.507499999999999 2.6485000000000003  C 6.012108780105924 3.3594683045536033  3.5004505979237743 6.433035533236431  3.5 10  C 3.5 11.647  2.75 19  0.5 20.5  L 21.5 20.5  C 19.25 19  18.5 11.647  18.5 10  Z " fill-rule="evenodd" />
    </mask>
  </defs>
  <g>
    <path d="M 8 22  C 8 23.65685424949238  9.34314575050762 25  11 25  C 12.65685424949238 25  14 23.65685424949238  14 22  L 8 22  Z M 18.5 10  C 18.5 6.370000000000001  15.919999999999998 3.3399999999999994  12.4925 2.6485000000000003  C 12.497496871087634 2.5987188673219865  12.500000000000002 2.548718906457848  12.500000000000002 2.498687617334216  C 12.500000000000002 1.6702604925880244  11.82842712474619 0.9986876173342158  10.999999999999998 0.9986876173342158  C 10.171572875253808 0.9986876173342158  9.499999999999998 1.6702604925880258  9.499999999999998 2.498687617334216  C 9.499999999999998 2.5487189064578564  9.502503128912362 2.5987188673219777  9.507499999999999 2.6485000000000003  C 6.012108780105924 3.3594683045536033  3.5004505979237743 6.433035533236431  3.5 10  C 3.5 11.647  2.75 19  0.5 20.5  L 21.5 20.5  C 19.25 19  18.5 11.647  18.5 10  Z " fill-rule="nonzero" fill="rgba(0, 0, 0, 1)" stroke="none" class="fill" />
    <path d="M 8 22  C 8 23.65685424949238  9.34314575050762 25  11 25  C 12.65685424949238 25  14 23.65685424949238  14 22  L 8 22  Z " stroke-width="0" stroke-dasharray="0" stroke="rgba(255, 255, 255, 0)" fill="none" class="stroke" mask="url(#Clip4824)" />
    <path d="M 18.5 10  C 18.5 6.370000000000001  15.919999999999998 3.3399999999999994  12.4925 2.6485000000000003  C 12.497496871087634 2.5987188673219865  12.500000000000002 2.548718906457848  12.500000000000002 2.498687617334216  C 12.500000000000002 1.6702604925880244  11.82842712474619 0.9986876173342158  10.999999999999998 0.9986876173342158  C 10.171572875253808 0.9986876173342158  9.499999999999998 1.6702604925880258  9.499999999999998 2.498687617334216  C 9.499999999999998 2.5487189064578564  9.502503128912362 2.5987188673219777  9.507499999999999 2.6485000000000003  C 6.012108780105924 3.3594683045536033  3.5004505979237743 6.433035533236431  3.5 10  C 3.5 11.647  2.75 19  0.5 20.5  L 21.5 20.5  C 19.25 19  18.5 11.647  18.5 10  Z " stroke-width="0" stroke-dasharray="0" stroke="rgba(255, 255, 255, 0)" fill="none" class="stroke" mask="url(#Clip4824)" />
  </g>
</svg>