<?xml version="1.0" encoding="utf-8"?>
<svg version="1.1" xmlns:xlink="http://www.w3.org/1999/xlink" width="44px" height="56px" xmlns="http://www.w3.org/2000/svg">
  <defs>
    <pattern id="BGPattern" patternUnits="userSpaceOnUse" alignment="0 0" imageRepeat="None" />
    <mask fill="white" id="Clip2229">
      <path d="M 44 2  C 44 0.8937499999999997  43.10625 0  42 0  L 2 0  C 0.8937500000000006 0  0 0.8937499999999997  0 2  L 0 35.0625  C 0 35.025  0.025000000000000355 35  0.0625 35  L 13.76875 35  L 14.09375 36.54375  C 14.850000000000001 40.28125  18.175 43  22 43  C 25.825000000000003 43  29.15 40.28125  29.900000000000002 36.54375  L 30.225 35  L 43.9375 35  C 43.975 35  44 35.025  44 35.0625  L 44 2  Z M 34.5 23.8125  L 34.5 26.8125  C 34.5 27.0875  34.275 27.3125  34 28  L 10 28  C 9.725000000000001 27.3125  9.5 27.0875  9.5 26.8125  L 9.5 23.8125  C 9.5 23.5375  9.725000000000001 23.3125  10 24  L 34 24  C 34.275 23.3125  34.5 23.5375  34.5 23.8125  Z M 34.5 13.8125  L 34.5 16.8125  C 34.5 17.0875  34.275 17.3125  34 18  L 10 18  C 9.725000000000001 17.3125  9.5 17.0875  9.5 16.8125  L 9.5 13.8125  C 9.5 13.537500000000001  9.725000000000001 13.3125  10 14  L 34 14  C 34.275 13.3125  34.5 13.537500000000001  34.5 13.8125  Z M 44 38.875  C 44 38.9125  43.975 38.9375  43.9375 39  L 33.38125 39  C 32.65625 40.9875  31.38125 42.83125  29.6875 44.23125  C 27.53125 46.018750000000004  24.799999999999997 47  22 47  C 19.200000000000003 47  16.46875 46.0125  14.312499999999998 44.23125  C 12.62557663996932 42.832804777684444  11.349098372461295 41.00340191376008  10.618749999999999 39  L 0.0625 39  C 0.025000000000000355 38.9375  0 38.9125  0 38.875  L 0 54  C 0 55.10625  0.8937500000000006 56  2 56  L 42 56  C 43.10625 56  44 55.10625  44 54  L 44 38.875  Z " fill-rule="evenodd" />
    </mask>
  </defs>
  <g>
    <path d="M 44 2  C 44 0.8937499999999997  43.10625 0  42 0  L 2 0  C 0.8937500000000006 0  0 0.8937499999999997  0 2  L 0 35.0625  C 0 35.025  0.025000000000000355 35  0.0625 35  L 13.76875 35  L 14.09375 36.54375  C 14.850000000000001 40.28125  18.175 43  22 43  C 25.825000000000003 43  29.15 40.28125  29.900000000000002 36.54375  L 30.225 35  L 43.9375 35  C 43.975 35  44 35.025  44 35.0625  L 44 2  Z M 34.5 23.8125  L 34.5 26.8125  C 34.5 27.0875  34.275 27.3125  34 28  L 10 28  C 9.725000000000001 27.3125  9.5 27.0875  9.5 26.8125  L 9.5 23.8125  C 9.5 23.5375  9.725000000000001 23.3125  10 24  L 34 24  C 34.275 23.3125  34.5 23.5375  34.5 23.8125  Z M 34.5 13.8125  L 34.5 16.8125  C 34.5 17.0875  34.275 17.3125  34 18  L 10 18  C 9.725000000000001 17.3125  9.5 17.0875  9.5 16.8125  L 9.5 13.8125  C 9.5 13.537500000000001  9.725000000000001 13.3125  10 14  L 34 14  C 34.275 13.3125  34.5 13.537500000000001  34.5 13.8125  Z M 44 38.875  C 44 38.9125  43.975 38.9375  43.9375 39  L 33.38125 39  C 32.65625 40.9875  31.38125 42.83125  29.6875 44.23125  C 27.53125 46.018750000000004  24.799999999999997 47  22 47  C 19.200000000000003 47  16.46875 46.0125  14.312499999999998 44.23125  C 12.62557663996932 42.832804777684444  11.349098372461295 41.00340191376008  10.618749999999999 39  L 0.0625 39  C 0.025000000000000355 38.9375  0 38.9125  0 38.875  L 0 54  C 0 55.10625  0.8937500000000006 56  2 56  L 42 56  C 43.10625 56  44 55.10625  44 54  L 44 38.875  Z " fill-rule="nonzero" fill="rgba(0, 0, 0, 1)" stroke="none" class="fill" />
    <path d="M 44 2  C 44 0.8937499999999997  43.10625 0  42 0  L 2 0  C 0.8937500000000006 0  0 0.8937499999999997  0 2  L 0 35.0625  C 0 35.025  0.025000000000000355 35  0.0625 35  L 13.76875 35  L 14.09375 36.54375  C 14.850000000000001 40.28125  18.175 43  22 43  C 25.825000000000003 43  29.15 40.28125  29.900000000000002 36.54375  L 30.225 35  L 43.9375 35  C 43.975 35  44 35.025  44 35.0625  L 44 2  Z " stroke-width="0" stroke-dasharray="0" stroke="rgba(255, 255, 255, 0)" fill="none" class="stroke" mask="url(#Clip2229)" />
    <path d="M 34.5 23.8125  L 34.5 26.8125  C 34.5 27.0875  34.275 27.3125  34 28  L 10 28  C 9.725000000000001 27.3125  9.5 27.0875  9.5 26.8125  L 9.5 23.8125  C 9.5 23.5375  9.725000000000001 23.3125  10 24  L 34 24  C 34.275 23.3125  34.5 23.5375  34.5 23.8125  Z " stroke-width="0" stroke-dasharray="0" stroke="rgba(255, 255, 255, 0)" fill="none" class="stroke" mask="url(#Clip2229)" />
    <path d="M 34.5 13.8125  L 34.5 16.8125  C 34.5 17.0875  34.275 17.3125  34 18  L 10 18  C 9.725000000000001 17.3125  9.5 17.0875  9.5 16.8125  L 9.5 13.8125  C 9.5 13.537500000000001  9.725000000000001 13.3125  10 14  L 34 14  C 34.275 13.3125  34.5 13.537500000000001  34.5 13.8125  Z " stroke-width="0" stroke-dasharray="0" stroke="rgba(255, 255, 255, 0)" fill="none" class="stroke" mask="url(#Clip2229)" />
    <path d="M 44 38.875  C 44 38.9125  43.975 38.9375  43.9375 39  L 33.38125 39  C 32.65625 40.9875  31.38125 42.83125  29.6875 44.23125  C 27.53125 46.018750000000004  24.799999999999997 47  22 47  C 19.200000000000003 47  16.46875 46.0125  14.312499999999998 44.23125  C 12.62557663996932 42.832804777684444  11.349098372461295 41.00340191376008  10.618749999999999 39  L 0.0625 39  C 0.025000000000000355 38.9375  0 38.9125  0 38.875  L 0 54  C 0 55.10625  0.8937500000000006 56  2 56  L 42 56  C 43.10625 56  44 55.10625  44 54  L 44 38.875  Z " stroke-width="0" stroke-dasharray="0" stroke="rgba(255, 255, 255, 0)" fill="none" class="stroke" mask="url(#Clip2229)" />
  </g>
</svg>