<?xml version="1.0" encoding="utf-8"?>
<svg version="1.1" xmlns:xlink="http://www.w3.org/1999/xlink" width="10px" height="10px" xmlns="http://www.w3.org/2000/svg">
  <defs>
    <pattern id="BGPattern" patternUnits="userSpaceOnUse" alignment="0 0" imageRepeat="None" />
    <mask fill="white" id="Clip4693">
      <path d="M 9.241999999999997 1.8185000000000002  C 9.534786453749646 1.5256251113856383  9.534786453749646 1.050874888614361  9.241999999999997 0.7579999999999991  C 8.949125111385639 0.46521354625035194  8.474374888614358 0.46521354625035194  8.181499999999998 0.7579999999999991  L 2.0375000000000014 6.902000000000001  L 2.0375000000000014 2.75  C 2.0375000000000014 2.335786437626904  1.7017135623730955 2  1.2875000000000014 2  C 0.8732864376269056 2  0.5375000000000005 2.335786437626904  0.5375000000000005 2.75  L 0.5375000000000005 8.712499999999999  C 0.5375000000000005 9.126713562373094  0.8732864376269056 9.462499999999999  1.2875000000000014 9.462499999999999  L 7.25 9.462499999999999  C 7.664213562373096 9.462499999999999  8 9.126713562373094  8 8.712499999999999  C 8 8.298286437626905  7.664213562373096 7.962499999999999  7.25 7.962499999999999  L 3.0980000000000008 7.962499999999999  L 9.241999999999997 1.8185000000000002  Z " fill-rule="evenodd" />
    </mask>
  </defs>
  <g transform="matrix(1 0 0 1 -7 -7 )">
    <path d="M 9.241999999999997 1.8185000000000002  C 9.534786453749646 1.5256251113856383  9.534786453749646 1.050874888614361  9.241999999999997 0.7579999999999991  C 8.949125111385639 0.46521354625035194  8.474374888614358 0.46521354625035194  8.181499999999998 0.7579999999999991  L 2.0375000000000014 6.902000000000001  L 2.0375000000000014 2.75  C 2.0375000000000014 2.335786437626904  1.7017135623730955 2  1.2875000000000014 2  C 0.8732864376269056 2  0.5375000000000005 2.335786437626904  0.5375000000000005 2.75  L 0.5375000000000005 8.712499999999999  C 0.5375000000000005 9.126713562373094  0.8732864376269056 9.462499999999999  1.2875000000000014 9.462499999999999  L 7.25 9.462499999999999  C 7.664213562373096 9.462499999999999  8 9.126713562373094  8 8.712499999999999  C 8 8.298286437626905  7.664213562373096 7.962499999999999  7.25 7.962499999999999  L 3.0980000000000008 7.962499999999999  L 9.241999999999997 1.8185000000000002  Z " fill-rule="nonzero" fill="rgba(0, 0, 0, 1)" stroke="none" transform="matrix(1 0 0 1 7 7 )" class="fill" />
    <path d="M 9.241999999999997 1.8185000000000002  C 9.534786453749646 1.5256251113856383  9.534786453749646 1.050874888614361  9.241999999999997 0.7579999999999991  C 8.949125111385639 0.46521354625035194  8.474374888614358 0.46521354625035194  8.181499999999998 0.7579999999999991  L 2.0375000000000014 6.902000000000001  L 2.0375000000000014 2.75  C 2.0375000000000014 2.335786437626904  1.7017135623730955 2  1.2875000000000014 2  C 0.8732864376269056 2  0.5375000000000005 2.335786437626904  0.5375000000000005 2.75  L 0.5375000000000005 8.712499999999999  C 0.5375000000000005 9.126713562373094  0.8732864376269056 9.462499999999999  1.2875000000000014 9.462499999999999  L 7.25 9.462499999999999  C 7.664213562373096 9.462499999999999  8 9.126713562373094  8 8.712499999999999  C 8 8.298286437626905  7.664213562373096 7.962499999999999  7.25 7.962499999999999  L 3.0980000000000008 7.962499999999999  L 9.241999999999997 1.8185000000000002  Z " stroke-width="0" stroke-dasharray="0" stroke="rgba(255, 255, 255, 0)" fill="none" transform="matrix(1 0 0 1 7 7 )" class="stroke" mask="url(#Clip4693)" />
  </g>
</svg>