<?xml version="1.0" encoding="utf-8"?>
<svg version="1.1" xmlns:xlink="http://www.w3.org/1999/xlink" width="48px" height="48px" xmlns="http://www.w3.org/2000/svg">
  <defs>
    <pattern id="BGPattern" patternUnits="userSpaceOnUse" alignment="0 0" imageRepeat="None" />
    <mask fill="white" id="Clip7003">
      <path d="M 48 24  C 48 37.2  37.2 48  24 48  L 23.2 48  L 28.200000000000003 34.6  L 35 34.6  C 36.2 34.6  37.4 33.6  37.8 32.6  L 43.2 18  C 44 15.600000000000001  42.6 13.600000000000001  40.2 13.600000000000001  L 30.800000000000004 13.600000000000001  L 23.000000000000004 35.2  L 18.6 47.400000000000006  C 7.800000000000001 44.8  0 35.4  0 24  C 0 13.000000000000002  7.4 3.8000000000000016  17.6 0.8000000000000018  L 13 13.600000000000001  L 5.2 34.6  L 10.2 34.6  L 16.6 16.800000000000004  L 20.400000000000002 16.800000000000004  L 14 34.6  L 19 34.6  L 25 18  C 25.799999999999997 15.600000000000001  24.6 13.600000000000001  22 13.600000000000001  L 18 13.600000000000001  L 23 0  L 24 0  C 37.2 0  48 10.800000000000002  48 24  Z M 33.2 31.200000000000003  L 38.6 16.6  L 34.800000000000004 16.6  L 29.400000000000006 31.200000000000003  L 33.2 31.200000000000003  Z " fill-rule="evenodd" />
    </mask>
  </defs>
  <g>
    <path d="M 48 24  C 48 37.2  37.2 48  24 48  L 23.2 48  L 28.200000000000003 34.6  L 35 34.6  C 36.2 34.6  37.4 33.6  37.8 32.6  L 43.2 18  C 44 15.600000000000001  42.6 13.600000000000001  40.2 13.600000000000001  L 30.800000000000004 13.600000000000001  L 23.000000000000004 35.2  L 18.6 47.400000000000006  C 7.800000000000001 44.8  0 35.4  0 24  C 0 13.000000000000002  7.4 3.8000000000000016  17.6 0.8000000000000018  L 13 13.600000000000001  L 5.2 34.6  L 10.2 34.6  L 16.6 16.800000000000004  L 20.400000000000002 16.800000000000004  L 14 34.6  L 19 34.6  L 25 18  C 25.799999999999997 15.600000000000001  24.6 13.600000000000001  22 13.600000000000001  L 18 13.600000000000001  L 23 0  L 24 0  C 37.2 0  48 10.800000000000002  48 24  Z M 33.2 31.200000000000003  L 38.6 16.6  L 34.800000000000004 16.6  L 29.400000000000006 31.200000000000003  L 33.2 31.200000000000003  Z " fill-rule="nonzero" fill="rgba(0, 150, 214, 1)" stroke="none" class="fill" />
    <path d="M 48 24  C 48 37.2  37.2 48  24 48  L 23.2 48  L 28.200000000000003 34.6  L 35 34.6  C 36.2 34.6  37.4 33.6  37.8 32.6  L 43.2 18  C 44 15.600000000000001  42.6 13.600000000000001  40.2 13.600000000000001  L 30.800000000000004 13.600000000000001  L 23.000000000000004 35.2  L 18.6 47.400000000000006  C 7.800000000000001 44.8  0 35.4  0 24  C 0 13.000000000000002  7.4 3.8000000000000016  17.6 0.8000000000000018  L 13 13.600000000000001  L 5.2 34.6  L 10.2 34.6  L 16.6 16.800000000000004  L 20.400000000000002 16.800000000000004  L 14 34.6  L 19 34.6  L 25 18  C 25.799999999999997 15.600000000000001  24.6 13.600000000000001  22 13.600000000000001  L 18 13.600000000000001  L 23 0  L 24 0  C 37.2 0  48 10.800000000000002  48 24  Z " stroke-width="0" stroke-dasharray="0" stroke="rgba(255, 255, 255, 0)" fill="none" class="stroke" mask="url(#Clip7003)" />
    <path d="M 33.2 31.200000000000003  L 38.6 16.6  L 34.800000000000004 16.6  L 29.400000000000006 31.200000000000003  L 33.2 31.200000000000003  Z " stroke-width="0" stroke-dasharray="0" stroke="rgba(255, 255, 255, 0)" fill="none" class="stroke" mask="url(#Clip7003)" />
  </g>
</svg>