<?xml version="1.0" encoding="utf-8"?>
<svg version="1.1" xmlns:xlink="http://www.w3.org/1999/xlink" width="42px" height="50px" xmlns="http://www.w3.org/2000/svg">
  <defs>
    <pattern id="BGPattern" patternUnits="userSpaceOnUse" alignment="0 0" imageRepeat="None" />
    <mask fill="white" id="Clip2296">
      <path d="M 28.725 25  C 32.725 22.45  35.375 17.96875  35.375 12.875  L 35.375 4.5  L 40.75 4.5  C 41.025 4.5  41.25 4.275  41.25 4  L 41.25 0.5  C 41.25 0.22499999999999964  41.025 0  40.75 0  L 1.25 0  C 0.9749999999999996 0  0.75 0.22499999999999964  0.75 0.5  L 0.75 4  C 0.75 4.275  0.9749999999999996 4.5  1.25 4.5  L 6.625 4.5  L 6.625 12.875  C 6.625 17.96875  9.274999999999999 22.45  13.274999999999999 25  C 9.274999999999999 27.549999999999997  6.625 32.03125  6.625 37.125  L 6.625 45.5  L 1.25 45.5  C 0.9749999999999996 45.5  0.75 45.725  0.75 46  L 0.75 49.5  C 0.75 49.775  0.9749999999999996 50  1.25 50  L 40.75 50  C 41.025 50  41.25 49.775  41.25 49.5  L 41.25 46  C 41.25 45.725  41.025 45.5  40.75 45.5  L 35.375 45.5  L 35.375 37.125  C 35.375 32.03125  32.725 27.549999999999997  28.725 25  Z " fill-rule="evenodd" />
    </mask>
  </defs>
  <g>
    <path d="M 28.725 25  C 32.725 22.45  35.375 17.96875  35.375 12.875  L 35.375 4.5  L 40.75 4.5  C 41.025 4.5  41.25 4.275  41.25 4  L 41.25 0.5  C 41.25 0.22499999999999964  41.025 0  40.75 0  L 1.25 0  C 0.9749999999999996 0  0.75 0.22499999999999964  0.75 0.5  L 0.75 4  C 0.75 4.275  0.9749999999999996 4.5  1.25 4.5  L 6.625 4.5  L 6.625 12.875  C 6.625 17.96875  9.274999999999999 22.45  13.274999999999999 25  C 9.274999999999999 27.549999999999997  6.625 32.03125  6.625 37.125  L 6.625 45.5  L 1.25 45.5  C 0.9749999999999996 45.5  0.75 45.725  0.75 46  L 0.75 49.5  C 0.75 49.775  0.9749999999999996 50  1.25 50  L 40.75 50  C 41.025 50  41.25 49.775  41.25 49.5  L 41.25 46  C 41.25 45.725  41.025 45.5  40.75 45.5  L 35.375 45.5  L 35.375 37.125  C 35.375 32.03125  32.725 27.549999999999997  28.725 25  Z " fill-rule="nonzero" fill="rgba(0, 0, 0, 1)" stroke="none" class="fill" />
    <path d="M 28.725 25  C 32.725 22.45  35.375 17.96875  35.375 12.875  L 35.375 4.5  L 40.75 4.5  C 41.025 4.5  41.25 4.275  41.25 4  L 41.25 0.5  C 41.25 0.22499999999999964  41.025 0  40.75 0  L 1.25 0  C 0.9749999999999996 0  0.75 0.22499999999999964  0.75 0.5  L 0.75 4  C 0.75 4.275  0.9749999999999996 4.5  1.25 4.5  L 6.625 4.5  L 6.625 12.875  C 6.625 17.96875  9.274999999999999 22.45  13.274999999999999 25  C 9.274999999999999 27.549999999999997  6.625 32.03125  6.625 37.125  L 6.625 45.5  L 1.25 45.5  C 0.9749999999999996 45.5  0.75 45.725  0.75 46  L 0.75 49.5  C 0.75 49.775  0.9749999999999996 50  1.25 50  L 40.75 50  C 41.025 50  41.25 49.775  41.25 49.5  L 41.25 46  C 41.25 45.725  41.025 45.5  40.75 45.5  L 35.375 45.5  L 35.375 37.125  C 35.375 32.03125  32.725 27.549999999999997  28.725 25  Z " stroke-width="0" stroke-dasharray="0" stroke="rgba(255, 255, 255, 0)" fill="none" class="stroke" mask="url(#Clip2296)" />
  </g>
</svg>