<?xml version="1.0" encoding="utf-8"?>
<svg version="1.1" xmlns:xlink="http://www.w3.org/1999/xlink" width="22px" height="22px" xmlns="http://www.w3.org/2000/svg">
  <defs>
    <pattern id="BGPattern" patternUnits="userSpaceOnUse" alignment="0 0" imageRepeat="None" />
    <mask fill="white" id="Clip5146">
      <path d="M 5 1.75  L 5 0.25  L 3.5 0.25  C 1.8431457505076194 0.25  0.5 1.5931457505076194  0.5 3.25  L 0.5 19  C 0.5 20.65685424949238  1.8431457505076194 22  3.5 22  L 18.5 22  C 20.15685424949238 22  21.5 20.65685424949238  21.5 19  L 21.5 3.25  C 21.5 1.5931457505076194  20.15685424949238 0.25  18.5 0.25  L 17 0.25  L 17 1.75  L 18.5 1.75  C 19.32842712474619 1.75  20 2.42157287525381  20 3.25  L 20 19  C 20 19.82842712474619  19.32842712474619 20.5  18.5 20.5  L 3.5 20.5  C 2.67157287525381 20.5  2 19.82842712474619  2 19  L 2 3.25  C 2 2.42157287525381  2.67157287525381 1.75  3.5 1.75  L 5 1.75  Z " fill-rule="evenodd" />
    </mask>
  </defs>
  <g transform="matrix(1 0 0 1 0 -2 )">
    <path d="M 5 1.75  L 5 0.25  L 3.5 0.25  C 1.8431457505076194 0.25  0.5 1.5931457505076194  0.5 3.25  L 0.5 19  C 0.5 20.65685424949238  1.8431457505076194 22  3.5 22  L 18.5 22  C 20.15685424949238 22  21.5 20.65685424949238  21.5 19  L 21.5 3.25  C 21.5 1.5931457505076194  20.15685424949238 0.25  18.5 0.25  L 17 0.25  L 17 1.75  L 18.5 1.75  C 19.32842712474619 1.75  20 2.42157287525381  20 3.25  L 20 19  C 20 19.82842712474619  19.32842712474619 20.5  18.5 20.5  L 3.5 20.5  C 2.67157287525381 20.5  2 19.82842712474619  2 19  L 2 3.25  C 2 2.42157287525381  2.67157287525381 1.75  3.5 1.75  L 5 1.75  Z " fill-rule="nonzero" fill="rgba(0, 0, 0, 1)" stroke="none" transform="matrix(1 0 0 1 0 2 )" class="fill" />
    <path d="M 5 1.75  L 5 0.25  L 3.5 0.25  C 1.8431457505076194 0.25  0.5 1.5931457505076194  0.5 3.25  L 0.5 19  C 0.5 20.65685424949238  1.8431457505076194 22  3.5 22  L 18.5 22  C 20.15685424949238 22  21.5 20.65685424949238  21.5 19  L 21.5 3.25  C 21.5 1.5931457505076194  20.15685424949238 0.25  18.5 0.25  L 17 0.25  L 17 1.75  L 18.5 1.75  C 19.32842712474619 1.75  20 2.42157287525381  20 3.25  L 20 19  C 20 19.82842712474619  19.32842712474619 20.5  18.5 20.5  L 3.5 20.5  C 2.67157287525381 20.5  2 19.82842712474619  2 19  L 2 3.25  C 2 2.42157287525381  2.67157287525381 1.75  3.5 1.75  L 5 1.75  Z " stroke-width="0" stroke-dasharray="0" stroke="rgba(255, 255, 255, 0)" fill="none" transform="matrix(1 0 0 1 0 2 )" class="stroke" mask="url(#Clip5146)" />
  </g>
</svg>