<?xml version="1.0" encoding="utf-8"?>
<svg version="1.1" xmlns:xlink="http://www.w3.org/1999/xlink" width="24px" height="24px" xmlns="http://www.w3.org/2000/svg">
  <defs>
    <pattern id="BGPattern" patternUnits="userSpaceOnUse" alignment="0 0" imageRepeat="None" />
    <mask fill="white" id="Clip4552">
      <path d="M 23.999999999999996 12.000000000000004  C 23.999999999999996 18.62741699796952  18.62741699796952 23.999999999999996  12.000000000000004 23.999999999999996  C 5.372583002030477 23.999999999999996  0 18.62741699796952  0 11.999999999999998  C 0 5.372583002030477  5.372583002030477 0  11.999999999999998 0  C 18.62741699796952 0  23.999999999999996 5.372583002030477  23.999999999999996 11.999999999999998  Z M 21.999999999999996 12  C 21.999999999999996 6.477152501692068  17.522847498307932 2.000000000000003  12 2.000000000000003  C 6.477152501692068 2.000000000000003  2.000000000000003 6.477152501692068  2.000000000000003 12  C 2.000000000000003 17.522847498307932  6.477152501692068 21.999999999999996  12 21.999999999999996  C 17.522847498307932 21.999999999999996  21.999999999999996 17.522847498307932  21.999999999999996 12  Z " fill-rule="evenodd" />
    </mask>
  </defs>
  <g transform="matrix(1 0 0 1 -4 -4 )">
    <path d="M 23.999999999999996 12.000000000000004  C 23.999999999999996 18.62741699796952  18.62741699796952 23.999999999999996  12.000000000000004 23.999999999999996  C 5.372583002030477 23.999999999999996  0 18.62741699796952  0 11.999999999999998  C 0 5.372583002030477  5.372583002030477 0  11.999999999999998 0  C 18.62741699796952 0  23.999999999999996 5.372583002030477  23.999999999999996 11.999999999999998  Z M 21.999999999999996 12  C 21.999999999999996 6.477152501692068  17.522847498307932 2.000000000000003  12 2.000000000000003  C 6.477152501692068 2.000000000000003  2.000000000000003 6.477152501692068  2.000000000000003 12  C 2.000000000000003 17.522847498307932  6.477152501692068 21.999999999999996  12 21.999999999999996  C 17.522847498307932 21.999999999999996  21.999999999999996 17.522847498307932  21.999999999999996 12  Z " fill-rule="nonzero" fill="rgba(0, 0, 0, 1)" stroke="none" transform="matrix(1 0 0 1 4 4 )" class="fill" />
    <path d="M 23.999999999999996 12.000000000000004  C 23.999999999999996 18.62741699796952  18.62741699796952 23.999999999999996  12.000000000000004 23.999999999999996  C 5.372583002030477 23.999999999999996  0 18.62741699796952  0 11.999999999999998  C 0 5.372583002030477  5.372583002030477 0  11.999999999999998 0  C 18.62741699796952 0  23.999999999999996 5.372583002030477  23.999999999999996 11.999999999999998  Z " stroke-width="0" stroke-dasharray="0" stroke="rgba(255, 255, 255, 0)" fill="none" transform="matrix(1 0 0 1 4 4 )" class="stroke" mask="url(#Clip4552)" />
    <path d="M 21.999999999999996 12  C 21.999999999999996 6.477152501692068  17.522847498307932 2.000000000000003  12 2.000000000000003  C 6.477152501692068 2.000000000000003  2.000000000000003 6.477152501692068  2.000000000000003 12  C 2.000000000000003 17.522847498307932  6.477152501692068 21.999999999999996  12 21.999999999999996  C 17.522847498307932 21.999999999999996  21.999999999999996 17.522847498307932  21.999999999999996 12  Z " stroke-width="0" stroke-dasharray="0" stroke="rgba(255, 255, 255, 0)" fill="none" transform="matrix(1 0 0 1 4 4 )" class="stroke" mask="url(#Clip4552)" />
  </g>
</svg>