<?xml version="1.0" encoding="utf-8"?>
<svg version="1.1" xmlns:xlink="http://www.w3.org/1999/xlink" width="12px" height="12px" xmlns="http://www.w3.org/2000/svg">
  <defs>
    <pattern id="BGPattern" patternUnits="userSpaceOnUse" alignment="0 0" imageRepeat="None" />
    <mask fill="white" id="Clip5526">
      <path d="M 2.227500000000001 1.3200000000000003  L 2.227500000000001 1.3185000000000002  C 2.1504921872725244 0.9762834463397461  1.8465708071820899 0.7331526416091982  1.4957968446076553 0.7331526416091982  C 1.0815832822345612 0.7331526416091982  0.7457968446076553 1.0689390792361024  0.7457968446076553 1.4831526416091982  C 0.7457968446076553 1.550164480779948  0.7547778382927648 1.6168740642352528  0.7725000000000009 1.6814999999999998  L 3.022500000000001 10.6815  C 3.106524558320693 11.014632164287576  3.4061590309296754 11.248075173875925  3.749724403579359 11.248075173875925  C 4.087519224177225 11.248075173875925  4.383630828609675 11.022258333780965  4.473000000000001 10.696499999999997  L 6 5.102999999999998  L 7.527000000000001 10.698  C 7.616369171390325 11.023758333780965  7.912480775822772 11.249575173875932  8.25027559642064 11.249575173875932  C 8.593840969070325 11.249575173875932  8.893475441679309 11.016132164287583  8.977500000000003 10.683  L 11.227500000000003 1.6829999999999998  C 11.239660470627886 1.6289598422320175  11.24579684460766 1.5737388351492072  11.24579684460766 1.5183473583907734  C 11.24579684460766 1.1041337960176776  10.910010406980756 0.7683473583907734  10.49579684460766 0.7683473583907734  C 10.157972192114222 0.7683473583907734  9.86184216989514 0.9942033264277548  9.7725 1.3200000000000003  L 8.218500000000002 7.536000000000001  L 6.7230000000000025 2.053500000000003  C 6.633282194855376 1.7282377347554334  6.337408988842913 1.5029266782554433  6 1.5029266782554433  C 5.662591011157087 1.5029266782554433  5.366717805144626 1.7282377347554352  5.277000000000001 2.053500000000003  L 3.781500000000001 7.536000000000001  L 2.227500000000001 1.3200000000000003  Z " fill-rule="evenodd" />
    </mask>
  </defs>
  <g transform="matrix(1 0 0 1 -3 -9 )">
    <path d="M 2.227500000000001 1.3200000000000003  L 2.227500000000001 1.3185000000000002  C 2.1504921872725244 0.9762834463397461  1.8465708071820899 0.7331526416091982  1.4957968446076553 0.7331526416091982  C 1.0815832822345612 0.7331526416091982  0.7457968446076553 1.0689390792361024  0.7457968446076553 1.4831526416091982  C 0.7457968446076553 1.550164480779948  0.7547778382927648 1.6168740642352528  0.7725000000000009 1.6814999999999998  L 3.022500000000001 10.6815  C 3.106524558320693 11.014632164287576  3.4061590309296754 11.248075173875925  3.749724403579359 11.248075173875925  C 4.087519224177225 11.248075173875925  4.383630828609675 11.022258333780965  4.473000000000001 10.696499999999997  L 6 5.102999999999998  L 7.527000000000001 10.698  C 7.616369171390325 11.023758333780965  7.912480775822772 11.249575173875932  8.25027559642064 11.249575173875932  C 8.593840969070325 11.249575173875932  8.893475441679309 11.016132164287583  8.977500000000003 10.683  L 11.227500000000003 1.6829999999999998  C 11.239660470627886 1.6289598422320175  11.24579684460766 1.5737388351492072  11.24579684460766 1.5183473583907734  C 11.24579684460766 1.1041337960176776  10.910010406980756 0.7683473583907734  10.49579684460766 0.7683473583907734  C 10.157972192114222 0.7683473583907734  9.86184216989514 0.9942033264277548  9.7725 1.3200000000000003  L 8.218500000000002 7.536000000000001  L 6.7230000000000025 2.053500000000003  C 6.633282194855376 1.7282377347554334  6.337408988842913 1.5029266782554433  6 1.5029266782554433  C 5.662591011157087 1.5029266782554433  5.366717805144626 1.7282377347554352  5.277000000000001 2.053500000000003  L 3.781500000000001 7.536000000000001  L 2.227500000000001 1.3200000000000003  Z " fill-rule="nonzero" fill="rgba(0, 0, 0, 1)" stroke="none" transform="matrix(1 0 0 1 3 9 )" class="fill" />
    <path d="M 2.227500000000001 1.3200000000000003  L 2.227500000000001 1.3185000000000002  C 2.1504921872725244 0.9762834463397461  1.8465708071820899 0.7331526416091982  1.4957968446076553 0.7331526416091982  C 1.0815832822345612 0.7331526416091982  0.7457968446076553 1.0689390792361024  0.7457968446076553 1.4831526416091982  C 0.7457968446076553 1.550164480779948  0.7547778382927648 1.6168740642352528  0.7725000000000009 1.6814999999999998  L 3.022500000000001 10.6815  C 3.106524558320693 11.014632164287576  3.4061590309296754 11.248075173875925  3.749724403579359 11.248075173875925  C 4.087519224177225 11.248075173875925  4.383630828609675 11.022258333780965  4.473000000000001 10.696499999999997  L 6 5.102999999999998  L 7.527000000000001 10.698  C 7.616369171390325 11.023758333780965  7.912480775822772 11.249575173875932  8.25027559642064 11.249575173875932  C 8.593840969070325 11.249575173875932  8.893475441679309 11.016132164287583  8.977500000000003 10.683  L 11.227500000000003 1.6829999999999998  C 11.239660470627886 1.6289598422320175  11.24579684460766 1.5737388351492072  11.24579684460766 1.5183473583907734  C 11.24579684460766 1.1041337960176776  10.910010406980756 0.7683473583907734  10.49579684460766 0.7683473583907734  C 10.157972192114222 0.7683473583907734  9.86184216989514 0.9942033264277548  9.7725 1.3200000000000003  L 8.218500000000002 7.536000000000001  L 6.7230000000000025 2.053500000000003  C 6.633282194855376 1.7282377347554334  6.337408988842913 1.5029266782554433  6 1.5029266782554433  C 5.662591011157087 1.5029266782554433  5.366717805144626 1.7282377347554352  5.277000000000001 2.053500000000003  L 3.781500000000001 7.536000000000001  L 2.227500000000001 1.3200000000000003  Z " stroke-width="0" stroke-dasharray="0" stroke="rgba(255, 255, 255, 0)" fill="none" transform="matrix(1 0 0 1 3 9 )" class="stroke" mask="url(#Clip5526)" />
  </g>
</svg>