<?xml version="1.0" encoding="utf-8"?>
<svg version="1.1" xmlns:xlink="http://www.w3.org/1999/xlink" width="22px" height="24px" xmlns="http://www.w3.org/2000/svg">
  <defs>
    <pattern id="BGPattern" patternUnits="userSpaceOnUse" alignment="0 0" imageRepeat="None" />
    <mask fill="white" id="Clip6102">
      <path d="M 7.25 0  L 5.75 0  C 5.75 0.8284271247461902  5.07842712474619 1.5  4.25 1.5  C 3.42157287525381 1.5  2.75 0.8284271247461902  2.75 0  L 0.5 0  L 0.5 1.5  C 1.3284271247461903 1.5  2 2.1715728752538097  2 3  C 2 3.82842712474619  1.3284271247461903 4.5  0.5 4.5  L 0.5 6  C 1.3284271247461903 6  2 6.67157287525381  2 7.5  C 2 8.32842712474619  1.3284271247461903 9  0.5 9  L 0.5 10.5  C 1.3284271247461903 10.5  2 11.17157287525381  2 12  C 2 12.82842712474619  1.3284271247461903 13.5  0.5 13.5  L 0.5 15  C 1.3284271247461903 15  2 15.67157287525381  2 16.5  C 2 17.32842712474619  1.3284271247461903 18  0.5 18  L 0.5 19.5  C 1.3284271247461903 19.5  2 20.17157287525381  2 21  C 2 21.82842712474619  1.3284271247461903 22.5  0.5 22.5  L 0.5 24  L 2.75 24  C 2.75 23.17157287525381  3.42157287525381 22.5  4.25 22.5  C 5.07842712474619 22.5  5.75 23.17157287525381  5.75 24  L 7.25 24  C 7.25 23.17157287525381  7.92157287525381 22.5  8.75 22.5  C 9.57842712474619 22.5  10.25 23.17157287525381  10.25 24  L 11.75 24  C 11.75 23.17157287525381  12.42157287525381 22.5  13.25 22.5  C 14.07842712474619 22.5  14.75 23.17157287525381  14.75 24  L 16.25 24  C 16.25 23.17157287525381  16.92157287525381 22.5  17.75 22.5  C 18.57842712474619 22.5  19.25 23.17157287525381  19.25 24  L 21.5 24  L 21.5 22.5  C 20.67157287525381 22.5  20 21.82842712474619  20 21  C 20 20.17157287525381  20.67157287525381 19.5  21.5 19.5  L 21.5 18  C 20.67157287525381 18  20 17.32842712474619  20 16.5  C 20 15.67157287525381  20.67157287525381 15  21.5 15  L 21.5 13.5  C 20.67157287525381 13.5  20 12.82842712474619  20 12  C 20 11.17157287525381  20.67157287525381 10.5  21.5 10.5  L 21.5 9  C 20.67157287525381 9  20 8.32842712474619  20 7.5  C 20 6.67157287525381  20.67157287525381 6  21.5 6  L 21.5 4.5  C 20.67157287525381 4.5  20 3.82842712474619  20 3  C 20 2.1715728752538097  20.67157287525381 1.5  21.5 1.5  L 21.5 0  L 19.25 0  C 19.25 0.8284271247461902  18.57842712474619 1.5  17.75 1.5  C 16.92157287525381 1.5  16.25 0.8284271247461902  16.25 0  L 14.75 0  C 14.75 0.8284271247461902  14.07842712474619 1.5  13.25 1.5  C 12.42157287525381 1.5  11.75 0.8284271247461902  11.75 0  L 10.25 0  C 10.25 0.8284271247461902  9.57842712474619 1.5  8.75 1.5  C 7.92157287525381 1.5  7.25 0.8284271247461902  7.25 0  Z M 17 21  L 5 21  C 4.17157287525381 21  3.5 20.32842712474619  3.5 19.5  L 3.5 4.5  C 3.5 3.67157287525381  4.17157287525381 3  5 3  L 17 3  C 17.82842712474619 3  18.5 3.67157287525381  18.5 4.5  L 18.5 19.5  C 18.5 20.32842712474619  17.82842712474619 21  17 21  Z " fill-rule="evenodd" />
    </mask>
  </defs>
  <g>
    <path d="M 7.25 0  L 5.75 0  C 5.75 0.8284271247461902  5.07842712474619 1.5  4.25 1.5  C 3.42157287525381 1.5  2.75 0.8284271247461902  2.75 0  L 0.5 0  L 0.5 1.5  C 1.3284271247461903 1.5  2 2.1715728752538097  2 3  C 2 3.82842712474619  1.3284271247461903 4.5  0.5 4.5  L 0.5 6  C 1.3284271247461903 6  2 6.67157287525381  2 7.5  C 2 8.32842712474619  1.3284271247461903 9  0.5 9  L 0.5 10.5  C 1.3284271247461903 10.5  2 11.17157287525381  2 12  C 2 12.82842712474619  1.3284271247461903 13.5  0.5 13.5  L 0.5 15  C 1.3284271247461903 15  2 15.67157287525381  2 16.5  C 2 17.32842712474619  1.3284271247461903 18  0.5 18  L 0.5 19.5  C 1.3284271247461903 19.5  2 20.17157287525381  2 21  C 2 21.82842712474619  1.3284271247461903 22.5  0.5 22.5  L 0.5 24  L 2.75 24  C 2.75 23.17157287525381  3.42157287525381 22.5  4.25 22.5  C 5.07842712474619 22.5  5.75 23.17157287525381  5.75 24  L 7.25 24  C 7.25 23.17157287525381  7.92157287525381 22.5  8.75 22.5  C 9.57842712474619 22.5  10.25 23.17157287525381  10.25 24  L 11.75 24  C 11.75 23.17157287525381  12.42157287525381 22.5  13.25 22.5  C 14.07842712474619 22.5  14.75 23.17157287525381  14.75 24  L 16.25 24  C 16.25 23.17157287525381  16.92157287525381 22.5  17.75 22.5  C 18.57842712474619 22.5  19.25 23.17157287525381  19.25 24  L 21.5 24  L 21.5 22.5  C 20.67157287525381 22.5  20 21.82842712474619  20 21  C 20 20.17157287525381  20.67157287525381 19.5  21.5 19.5  L 21.5 18  C 20.67157287525381 18  20 17.32842712474619  20 16.5  C 20 15.67157287525381  20.67157287525381 15  21.5 15  L 21.5 13.5  C 20.67157287525381 13.5  20 12.82842712474619  20 12  C 20 11.17157287525381  20.67157287525381 10.5  21.5 10.5  L 21.5 9  C 20.67157287525381 9  20 8.32842712474619  20 7.5  C 20 6.67157287525381  20.67157287525381 6  21.5 6  L 21.5 4.5  C 20.67157287525381 4.5  20 3.82842712474619  20 3  C 20 2.1715728752538097  20.67157287525381 1.5  21.5 1.5  L 21.5 0  L 19.25 0  C 19.25 0.8284271247461902  18.57842712474619 1.5  17.75 1.5  C 16.92157287525381 1.5  16.25 0.8284271247461902  16.25 0  L 14.75 0  C 14.75 0.8284271247461902  14.07842712474619 1.5  13.25 1.5  C 12.42157287525381 1.5  11.75 0.8284271247461902  11.75 0  L 10.25 0  C 10.25 0.8284271247461902  9.57842712474619 1.5  8.75 1.5  C 7.92157287525381 1.5  7.25 0.8284271247461902  7.25 0  Z M 17 21  L 5 21  C 4.17157287525381 21  3.5 20.32842712474619  3.5 19.5  L 3.5 4.5  C 3.5 3.67157287525381  4.17157287525381 3  5 3  L 17 3  C 17.82842712474619 3  18.5 3.67157287525381  18.5 4.5  L 18.5 19.5  C 18.5 20.32842712474619  17.82842712474619 21  17 21  Z " fill-rule="nonzero" fill="rgba(0, 0, 0, 1)" stroke="none" class="fill" />
    <path d="M 7.25 0  L 5.75 0  C 5.75 0.8284271247461902  5.07842712474619 1.5  4.25 1.5  C 3.42157287525381 1.5  2.75 0.8284271247461902  2.75 0  L 0.5 0  L 0.5 1.5  C 1.3284271247461903 1.5  2 2.1715728752538097  2 3  C 2 3.82842712474619  1.3284271247461903 4.5  0.5 4.5  L 0.5 6  C 1.3284271247461903 6  2 6.67157287525381  2 7.5  C 2 8.32842712474619  1.3284271247461903 9  0.5 9  L 0.5 10.5  C 1.3284271247461903 10.5  2 11.17157287525381  2 12  C 2 12.82842712474619  1.3284271247461903 13.5  0.5 13.5  L 0.5 15  C 1.3284271247461903 15  2 15.67157287525381  2 16.5  C 2 17.32842712474619  1.3284271247461903 18  0.5 18  L 0.5 19.5  C 1.3284271247461903 19.5  2 20.17157287525381  2 21  C 2 21.82842712474619  1.3284271247461903 22.5  0.5 22.5  L 0.5 24  L 2.75 24  C 2.75 23.17157287525381  3.42157287525381 22.5  4.25 22.5  C 5.07842712474619 22.5  5.75 23.17157287525381  5.75 24  L 7.25 24  C 7.25 23.17157287525381  7.92157287525381 22.5  8.75 22.5  C 9.57842712474619 22.5  10.25 23.17157287525381  10.25 24  L 11.75 24  C 11.75 23.17157287525381  12.42157287525381 22.5  13.25 22.5  C 14.07842712474619 22.5  14.75 23.17157287525381  14.75 24  L 16.25 24  C 16.25 23.17157287525381  16.92157287525381 22.5  17.75 22.5  C 18.57842712474619 22.5  19.25 23.17157287525381  19.25 24  L 21.5 24  L 21.5 22.5  C 20.67157287525381 22.5  20 21.82842712474619  20 21  C 20 20.17157287525381  20.67157287525381 19.5  21.5 19.5  L 21.5 18  C 20.67157287525381 18  20 17.32842712474619  20 16.5  C 20 15.67157287525381  20.67157287525381 15  21.5 15  L 21.5 13.5  C 20.67157287525381 13.5  20 12.82842712474619  20 12  C 20 11.17157287525381  20.67157287525381 10.5  21.5 10.5  L 21.5 9  C 20.67157287525381 9  20 8.32842712474619  20 7.5  C 20 6.67157287525381  20.67157287525381 6  21.5 6  L 21.5 4.5  C 20.67157287525381 4.5  20 3.82842712474619  20 3  C 20 2.1715728752538097  20.67157287525381 1.5  21.5 1.5  L 21.5 0  L 19.25 0  C 19.25 0.8284271247461902  18.57842712474619 1.5  17.75 1.5  C 16.92157287525381 1.5  16.25 0.8284271247461902  16.25 0  L 14.75 0  C 14.75 0.8284271247461902  14.07842712474619 1.5  13.25 1.5  C 12.42157287525381 1.5  11.75 0.8284271247461902  11.75 0  L 10.25 0  C 10.25 0.8284271247461902  9.57842712474619 1.5  8.75 1.5  C 7.92157287525381 1.5  7.25 0.8284271247461902  7.25 0  Z " stroke-width="0" stroke-dasharray="0" stroke="rgba(255, 255, 255, 0)" fill="none" class="stroke" mask="url(#Clip6102)" />
    <path d="M 17 21  L 5 21  C 4.17157287525381 21  3.5 20.32842712474619  3.5 19.5  L 3.5 4.5  C 3.5 3.67157287525381  4.17157287525381 3  5 3  L 17 3  C 17.82842712474619 3  18.5 3.67157287525381  18.5 4.5  L 18.5 19.5  C 18.5 20.32842712474619  17.82842712474619 21  17 21  Z " stroke-width="0" stroke-dasharray="0" stroke="rgba(255, 255, 255, 0)" fill="none" class="stroke" mask="url(#Clip6102)" />
  </g>
</svg>