<?xml version="1.0" encoding="utf-8"?>
<svg version="1.1" xmlns:xlink="http://www.w3.org/1999/xlink" width="49px" height="44px" xmlns="http://www.w3.org/2000/svg">
  <defs>
    <pattern id="BGPattern" patternUnits="userSpaceOnUse" alignment="0 0" imageRepeat="None" />
    <mask fill="white" id="Clip6704">
      <path d="M 46.443999999999996 1  L 1.556 1  C 0.7080000000000001 0.41000000000000014  0.01200000000000001 1.0900000000000003  0 1.9380000000000002  C 0 2.0280000000000005  0.004 2.1180000000000003  0.02 2.2060000000000004  L 6.5459999999999985 41.828  C 6.7139999999999995 42.826  7.5760000000000005 43.562000000000005  8.59 43  L 39.9 43  C 40.664 43.580000000000005  41.315999999999995 43.03  41.44 42.28  L 47.98 2.219999999999999  C 48.116 1.383999999999999  47.547999999999995 0.593999999999999  46.709999999999994 0.45799999999999885  C 46.61999999999999 0.44199999999999884  46.532 0.43599999999999905  46.443999999999996 1  Z M 31.461999999999996 15  L 29.04 29.056  L 19.044 29.056  L 16.34 15  L 31.461999999999996 15  Z " fill-rule="evenodd" />
    </mask>
  </defs>
  <g>
    <path d="M 46.443999999999996 1  L 1.556 1  C 0.7080000000000001 0.41000000000000014  0.01200000000000001 1.0900000000000003  0 1.9380000000000002  C 0 2.0280000000000005  0.004 2.1180000000000003  0.02 2.2060000000000004  L 6.5459999999999985 41.828  C 6.7139999999999995 42.826  7.5760000000000005 43.562000000000005  8.59 43  L 39.9 43  C 40.664 43.580000000000005  41.315999999999995 43.03  41.44 42.28  L 47.98 2.219999999999999  C 48.116 1.383999999999999  47.547999999999995 0.593999999999999  46.709999999999994 0.45799999999999885  C 46.61999999999999 0.44199999999999884  46.532 0.43599999999999905  46.443999999999996 1  Z M 31.461999999999996 15  L 29.04 29.056  L 19.044 29.056  L 16.34 15  L 31.461999999999996 15  Z " fill-rule="nonzero" fill="rgba(0, 82, 204, 1)" stroke="none" class="fill" />
    <path d="M 46.443999999999996 1  L 1.556 1  C 0.7080000000000001 0.41000000000000014  0.01200000000000001 1.0900000000000003  0 1.9380000000000002  C 0 2.0280000000000005  0.004 2.1180000000000003  0.02 2.2060000000000004  L 6.5459999999999985 41.828  C 6.7139999999999995 42.826  7.5760000000000005 43.562000000000005  8.59 43  L 39.9 43  C 40.664 43.580000000000005  41.315999999999995 43.03  41.44 42.28  L 47.98 2.219999999999999  C 48.116 1.383999999999999  47.547999999999995 0.593999999999999  46.709999999999994 0.45799999999999885  C 46.61999999999999 0.44199999999999884  46.532 0.43599999999999905  46.443999999999996 1  Z " stroke-width="0" stroke-dasharray="0" stroke="rgba(255, 255, 255, 0)" fill="none" class="stroke" mask="url(#Clip6704)" />
    <path d="M 31.461999999999996 15  L 29.04 29.056  L 19.044 29.056  L 16.34 15  L 31.461999999999996 15  Z " stroke-width="0" stroke-dasharray="0" stroke="rgba(255, 255, 255, 0)" fill="none" class="stroke" mask="url(#Clip6704)" />
  </g>
</svg>