<?xml version="1.0" encoding="utf-8"?>
<svg version="1.1" xmlns:xlink="http://www.w3.org/1999/xlink" width="12px" height="14px" xmlns="http://www.w3.org/2000/svg">
  <defs>
    <pattern id="BGPattern" patternUnits="userSpaceOnUse" alignment="0 0" imageRepeat="None" />
    <mask fill="white" id="Clip4359">
      <path d="M 5 14  L 5 2  L 0 2  L 0 0  L 12 0  L 12 2  L 7 2  L 7 14  L 5 14  Z " fill-rule="evenodd" />
    </mask>
  </defs>
  <g transform="matrix(1 0 0 1 -2 -12 )">
    <path d="M 5 14  L 5 2  L 0 2  L 0 0  L 12 0  L 12 2  L 7 2  L 7 14  L 5 14  Z " fill-rule="nonzero" fill="rgba(0, 0, 0, 1)" stroke="none" transform="matrix(1 0 0 1 2 12 )" class="fill" />
    <path d="M 5 14  L 5 2  L 0 2  L 0 0  L 12 0  L 12 2  L 7 2  L 7 14  L 5 14  Z " stroke-width="0" stroke-dasharray="0" stroke="rgba(255, 255, 255, 0)" fill="none" transform="matrix(1 0 0 1 2 12 )" class="stroke" mask="url(#Clip4359)" />
  </g>
</svg>