<?xml version="1.0" encoding="utf-8"?>
<svg version="1.1" xmlns:xlink="http://www.w3.org/1999/xlink" width="19px" height="21px" xmlns="http://www.w3.org/2000/svg">
  <defs>
    <pattern id="BGPattern" patternUnits="userSpaceOnUse" alignment="0 0" imageRepeat="None" />
    <mask fill="white" id="Clip4358">
      <path d="M 19 0  L 19 3  L 11 3  L 11 21  L 8 21  L 8 3  L 0 3  L 0 0  L 19 0  Z " fill-rule="evenodd" />
    </mask>
  </defs>
  <g transform="matrix(1 0 0 1 -11 -5 )">
    <path d="M 19 0  L 19 3  L 11 3  L 11 21  L 8 21  L 8 3  L 0 3  L 0 0  L 19 0  Z " fill-rule="nonzero" fill="rgba(0, 0, 0, 1)" stroke="none" transform="matrix(1 0 0 1 11 5 )" class="fill" />
    <path d="M 19 0  L 19 3  L 11 3  L 11 21  L 8 21  L 8 3  L 0 3  L 0 0  L 19 0  Z " stroke-width="0" stroke-dasharray="0" stroke="rgba(255, 255, 255, 0)" fill="none" transform="matrix(1 0 0 1 11 5 )" class="stroke" mask="url(#Clip4358)" />
  </g>
</svg>