<?xml version="1.0" encoding="utf-8"?>
<svg version="1.1" xmlns:xlink="http://www.w3.org/1999/xlink" width="50px" height="50px" xmlns="http://www.w3.org/2000/svg">
  <defs>
    <pattern id="BGPattern" patternUnits="userSpaceOnUse" alignment="0 0" imageRepeat="None" />
    <mask fill="white" id="Clip860">
      <path d="M 50 3.6049107142857224  C 50 1.6183035714285552  48.39285714285714 0  46.428571428571445 0  L 3.560267857142861 0  C 1.595982142857139 0  0 1.6183035714285552  0 3.6049107142857224  L 0 46.39508928571428  C 0 48.381696428571445  1.595982142857139 50  3.560267857142861 50  L 46.428571428571445 50  C 48.39285714285714 50  50 48.381696428571445  50 46.39508928571428  L 50 3.6049107142857224  Z M 16 42.85714285714283  L 15.111607142857139 42.85714285714283  L 8 42.85714285714283  L 8 18.995535714285722  L 16 18.995535714285722  L 16 42.85714285714283  Z M 15.703125000000002 11.439732142857167  C 15.703125000000002 13.816964285714278  13.783482142857139 15.736607142857167  11.40625 15.736607142857167  C 9.029017857142861 15.736607142857167  7.109375 13.805803571428555  7.109375 11.439732142857167  C 7.109375 9.073660714285722  9.029017857142861 7.142857142857167  11.40625 7.142857142857167  C 13.772321428571416 7.142857142857167  15.703125000000002 9.073660714285722  15.703125000000002 11.439732142857167  Z M 42 29.776785714285726  L 42 42.85714285714283  L 35 42.85714285714283  L 35 31.25  C 35.47991071428572 28.482142857142833  35.42410714285714 24.921875  31.629464285714278 24.921875  C 27.76785714285714 24.921875  27.176339285714278 27.935267857142833  27 31.049107142857167  L 27 42.85714285714283  L 20 42.85714285714283  L 20 18.995535714285722  L 26.875 18.995535714285722  L 26.875 22.254464285714278  L 26.975446428571416 22.254464285714278  C 27.968749999999996 20.379464285714278  30.390625 18.404017857142833  33.99553571428572 18.404017857142833  C 41.49553571428572 18.404017857142833  42.890625 23.348214285714278  42 29.776785714285726  Z " fill-rule="evenodd" />
    </mask>
  </defs>
  <g>
    <path d="M 50 3.6049107142857224  C 50 1.6183035714285552  48.39285714285714 0  46.428571428571445 0  L 3.560267857142861 0  C 1.595982142857139 0  0 1.6183035714285552  0 3.6049107142857224  L 0 46.39508928571428  C 0 48.381696428571445  1.595982142857139 50  3.560267857142861 50  L 46.428571428571445 50  C 48.39285714285714 50  50 48.381696428571445  50 46.39508928571428  L 50 3.6049107142857224  Z M 16 42.85714285714283  L 15.111607142857139 42.85714285714283  L 8 42.85714285714283  L 8 18.995535714285722  L 16 18.995535714285722  L 16 42.85714285714283  Z M 15.703125000000002 11.439732142857167  C 15.703125000000002 13.816964285714278  13.783482142857139 15.736607142857167  11.40625 15.736607142857167  C 9.029017857142861 15.736607142857167  7.109375 13.805803571428555  7.109375 11.439732142857167  C 7.109375 9.073660714285722  9.029017857142861 7.142857142857167  11.40625 7.142857142857167  C 13.772321428571416 7.142857142857167  15.703125000000002 9.073660714285722  15.703125000000002 11.439732142857167  Z M 42 29.776785714285726  L 42 42.85714285714283  L 35 42.85714285714283  L 35 31.25  C 35.47991071428572 28.482142857142833  35.42410714285714 24.921875  31.629464285714278 24.921875  C 27.76785714285714 24.921875  27.176339285714278 27.935267857142833  27 31.049107142857167  L 27 42.85714285714283  L 20 42.85714285714283  L 20 18.995535714285722  L 26.875 18.995535714285722  L 26.875 22.254464285714278  L 26.975446428571416 22.254464285714278  C 27.968749999999996 20.379464285714278  30.390625 18.404017857142833  33.99553571428572 18.404017857142833  C 41.49553571428572 18.404017857142833  42.890625 23.348214285714278  42 29.776785714285726  Z " fill-rule="nonzero" fill="rgba(0, 0, 0, 1)" stroke="none" class="fill" />
    <path d="M 50 3.6049107142857224  C 50 1.6183035714285552  48.39285714285714 0  46.428571428571445 0  L 3.560267857142861 0  C 1.595982142857139 0  0 1.6183035714285552  0 3.6049107142857224  L 0 46.39508928571428  C 0 48.381696428571445  1.595982142857139 50  3.560267857142861 50  L 46.428571428571445 50  C 48.39285714285714 50  50 48.381696428571445  50 46.39508928571428  L 50 3.6049107142857224  Z " stroke-width="0" stroke-dasharray="0" stroke="rgba(255, 255, 255, 0)" fill="none" class="stroke" mask="url(#Clip860)" />
    <path d="M 16 42.85714285714283  L 15.111607142857139 42.85714285714283  L 8 42.85714285714283  L 8 18.995535714285722  L 16 18.995535714285722  L 16 42.85714285714283  Z " stroke-width="0" stroke-dasharray="0" stroke="rgba(255, 255, 255, 0)" fill="none" class="stroke" mask="url(#Clip860)" />
    <path d="M 15.703125000000002 11.439732142857167  C 15.703125000000002 13.816964285714278  13.783482142857139 15.736607142857167  11.40625 15.736607142857167  C 9.029017857142861 15.736607142857167  7.109375 13.805803571428555  7.109375 11.439732142857167  C 7.109375 9.073660714285722  9.029017857142861 7.142857142857167  11.40625 7.142857142857167  C 13.772321428571416 7.142857142857167  15.703125000000002 9.073660714285722  15.703125000000002 11.439732142857167  Z " stroke-width="0" stroke-dasharray="0" stroke="rgba(255, 255, 255, 0)" fill="none" class="stroke" mask="url(#Clip860)" />
    <path d="M 42 29.776785714285726  L 42 42.85714285714283  L 35 42.85714285714283  L 35 31.25  C 35.47991071428572 28.482142857142833  35.42410714285714 24.921875  31.629464285714278 24.921875  C 27.76785714285714 24.921875  27.176339285714278 27.935267857142833  27 31.049107142857167  L 27 42.85714285714283  L 20 42.85714285714283  L 20 18.995535714285722  L 26.875 18.995535714285722  L 26.875 22.254464285714278  L 26.975446428571416 22.254464285714278  C 27.968749999999996 20.379464285714278  30.390625 18.404017857142833  33.99553571428572 18.404017857142833  C 41.49553571428572 18.404017857142833  42.890625 23.348214285714278  42 29.776785714285726  Z " stroke-width="0" stroke-dasharray="0" stroke="rgba(255, 255, 255, 0)" fill="none" class="stroke" mask="url(#Clip860)" />
  </g>
</svg>