<?xml version="1.0" encoding="utf-8"?>
<svg version="1.1" xmlns:xlink="http://www.w3.org/1999/xlink" width="10px" height="16px" xmlns="http://www.w3.org/2000/svg">
  <defs>
    <pattern id="BGPattern" patternUnits="userSpaceOnUse" alignment="0 0" imageRepeat="None" />
    <mask fill="white" id="Clip4340">
      <path d="M 8.149999999999999 15.5  L 9.559999999999999 14.120000000000001  L 3.2699999999999996 8  L 9.559999999999999 1.8800000000000008  L 8.149999999999999 0.5  L 0.4400000000000013 8  L 8.149999999999999 15.5  Z " fill-rule="evenodd" />
    </mask>
  </defs>
  <g transform="matrix(1 0 0 1 -20 -8 )">
    <path d="M 8.149999999999999 15.5  L 9.559999999999999 14.120000000000001  L 3.2699999999999996 8  L 9.559999999999999 1.8800000000000008  L 8.149999999999999 0.5  L 0.4400000000000013 8  L 8.149999999999999 15.5  Z " fill-rule="nonzero" fill="rgba(0, 0, 0, 1)" stroke="none" transform="matrix(1 0 0 1 20 8 )" class="fill" />
    <path d="M 8.149999999999999 15.5  L 9.559999999999999 14.120000000000001  L 3.2699999999999996 8  L 9.559999999999999 1.8800000000000008  L 8.149999999999999 0.5  L 0.4400000000000013 8  L 8.149999999999999 15.5  Z " stroke-width="0" stroke-dasharray="0" stroke="rgba(255, 255, 255, 0)" fill="none" transform="matrix(1 0 0 1 20 8 )" class="stroke" mask="url(#Clip4340)" />
  </g>
</svg>