<?xml version="1.0" encoding="utf-8"?>
<svg version="1.1" xmlns:xlink="http://www.w3.org/1999/xlink" width="50px" height="34px" xmlns="http://www.w3.org/2000/svg">
  <defs>
    <pattern id="BGPattern" patternUnits="userSpaceOnUse" alignment="0 0" imageRepeat="None" />
    <mask fill="white" id="Clip2074">
      <path d="M 50 16.66666666666663  C 50 7.461892361111097  42.5381076388889 0  33.333333333333314 0  L 16.666666666666657 0  C 7.461892361111097 0  0 7.461892361111097  0 16.66666666666663  C 0 25.871440972222217  7.461892361111097 33.333333333333314  16.666666666666657 33  L 33.333333333333314 33  C 42.5381076388889 33.333333333333314  50 25.871440972222217  50 16.66666666666663  Z M 16.666666666666657 27.77777777777777  C 10.525954861111103 27.77777777777777  5.555555555555543 22.808246527777783  5.555555555555543 16.66666666666663  C 5.555555555555543 10.525954861111131  10.52508680555556 5.555555555555543  16.666666666666657 5.555555555555543  C 22.80737847222221 5.555555555555543  27.777777777777775 10.525086805555532  27.777777777777775 16.66666666666663  C 27.777777777777775 22.807378472222183  22.808246527777783 27.77777777777777  16.666666666666657 27.77777777777777  Z M 44.44444444444446 16.66666666666663  C 44.44444444444446 22.80729166666663  39.47491319444444 27.77777777777777  33.333333333333314 27.77777777777777  L 29.08810763888889 27.77777777777777  C 34.749305555555566 21.45329861111111  34.7509548611111 11.881944444444457  29.08810763888889 5.555555555555543  L 33.333333333333314 5.555555555555543  C 39.47404513888887 5.555555555555543  44.44444444444446 10.525086805555532  44.44444444444446 16.66666666666663  Z " fill-rule="evenodd" />
    </mask>
  </defs>
  <g>
    <path d="M 50 16.66666666666663  C 50 7.461892361111097  42.5381076388889 0  33.333333333333314 0  L 16.666666666666657 0  C 7.461892361111097 0  0 7.461892361111097  0 16.66666666666663  C 0 25.871440972222217  7.461892361111097 33.333333333333314  16.666666666666657 33  L 33.333333333333314 33  C 42.5381076388889 33.333333333333314  50 25.871440972222217  50 16.66666666666663  Z M 16.666666666666657 27.77777777777777  C 10.525954861111103 27.77777777777777  5.555555555555543 22.808246527777783  5.555555555555543 16.66666666666663  C 5.555555555555543 10.525954861111131  10.52508680555556 5.555555555555543  16.666666666666657 5.555555555555543  C 22.80737847222221 5.555555555555543  27.777777777777775 10.525086805555532  27.777777777777775 16.66666666666663  C 27.777777777777775 22.807378472222183  22.808246527777783 27.77777777777777  16.666666666666657 27.77777777777777  Z M 44.44444444444446 16.66666666666663  C 44.44444444444446 22.80729166666663  39.47491319444444 27.77777777777777  33.333333333333314 27.77777777777777  L 29.08810763888889 27.77777777777777  C 34.749305555555566 21.45329861111111  34.7509548611111 11.881944444444457  29.08810763888889 5.555555555555543  L 33.333333333333314 5.555555555555543  C 39.47404513888887 5.555555555555543  44.44444444444446 10.525086805555532  44.44444444444446 16.66666666666663  Z " fill-rule="nonzero" fill="rgba(0, 0, 0, 1)" stroke="none" class="fill" />
    <path d="M 50 16.66666666666663  C 50 7.461892361111097  42.5381076388889 0  33.333333333333314 0  L 16.666666666666657 0  C 7.461892361111097 0  0 7.461892361111097  0 16.66666666666663  C 0 25.871440972222217  7.461892361111097 33.333333333333314  16.666666666666657 33  L 33.333333333333314 33  C 42.5381076388889 33.333333333333314  50 25.871440972222217  50 16.66666666666663  Z " stroke-width="0" stroke-dasharray="0" stroke="rgba(255, 255, 255, 0)" fill="none" class="stroke" mask="url(#Clip2074)" />
    <path d="M 16.666666666666657 27.77777777777777  C 10.525954861111103 27.77777777777777  5.555555555555543 22.808246527777783  5.555555555555543 16.66666666666663  C 5.555555555555543 10.525954861111131  10.52508680555556 5.555555555555543  16.666666666666657 5.555555555555543  C 22.80737847222221 5.555555555555543  27.777777777777775 10.525086805555532  27.777777777777775 16.66666666666663  C 27.777777777777775 22.807378472222183  22.808246527777783 27.77777777777777  16.666666666666657 27.77777777777777  Z " stroke-width="0" stroke-dasharray="0" stroke="rgba(255, 255, 255, 0)" fill="none" class="stroke" mask="url(#Clip2074)" />
    <path d="M 44.44444444444446 16.66666666666663  C 44.44444444444446 22.80729166666663  39.47491319444444 27.77777777777777  33.333333333333314 27.77777777777777  L 29.08810763888889 27.77777777777777  C 34.749305555555566 21.45329861111111  34.7509548611111 11.881944444444457  29.08810763888889 5.555555555555543  L 33.333333333333314 5.555555555555543  C 39.47404513888887 5.555555555555543  44.44444444444446 10.525086805555532  44.44444444444446 16.66666666666663  Z " stroke-width="0" stroke-dasharray="0" stroke="rgba(255, 255, 255, 0)" fill="none" class="stroke" mask="url(#Clip2074)" />
  </g>
</svg>