<?xml version="1.0" encoding="utf-8"?>
<svg version="1.1" xmlns:xlink="http://www.w3.org/1999/xlink" width="5px" height="3px" xmlns="http://www.w3.org/2000/svg">
  <defs>
    <pattern id="BGPattern" patternUnits="userSpaceOnUse" alignment="0 0" imageRepeat="None" />
    <mask fill="white" id="Clip5016">
      <path d="M 1.5 3  C 0.6715728752538102 3  0 2.32842712474619  0 1.5  C 0 0.6715728752538102  0.6715728752538102 0  1.5 0  L 3 0  C 3.82842712474619 0  4.5 0.6715728752538102  4.5 1.5  C 4.5 2.32842712474619  3.82842712474619 3  3 3  L 1.5 3  Z " fill-rule="evenodd" />
    </mask>
  </defs>
  <g transform="matrix(1 0 0 1 -3 -1 )">
    <path d="M 1.5 3  C 0.6715728752538102 3  0 2.32842712474619  0 1.5  C 0 0.6715728752538102  0.6715728752538102 0  1.5 0  L 3 0  C 3.82842712474619 0  4.5 0.6715728752538102  4.5 1.5  C 4.5 2.32842712474619  3.82842712474619 3  3 3  L 1.5 3  Z " fill-rule="nonzero" fill="rgba(0, 0, 0, 1)" stroke="none" transform="matrix(1 0 0 1 3 1 )" class="fill" />
    <path d="M 1.5 3  C 0.6715728752538102 3  0 2.32842712474619  0 1.5  C 0 0.6715728752538102  0.6715728752538102 0  1.5 0  L 3 0  C 3.82842712474619 0  4.5 0.6715728752538102  4.5 1.5  C 4.5 2.32842712474619  3.82842712474619 3  3 3  L 1.5 3  Z " stroke-width="0" stroke-dasharray="0" stroke="rgba(255, 255, 255, 0)" fill="none" transform="matrix(1 0 0 1 3 1 )" class="stroke" mask="url(#Clip5016)" />
  </g>
</svg>