<?xml version="1.0" encoding="utf-8"?>
<svg version="1.1" xmlns:xlink="http://www.w3.org/1999/xlink" width="48px" height="48px" xmlns="http://www.w3.org/2000/svg">
  <defs>
    <pattern id="BGPattern" patternUnits="userSpaceOnUse" alignment="0 0" imageRepeat="None" />
    <mask fill="white" id="Clip7565">
      <path d="M 17 36.3  L 17 48  L 31 48  L 31 36.3  L 27.9 32.698  L 20.099999999999998 32.698  L 17 36.3  Z M 48 17  L 36.3 17  L 32.698 20.099999999999998  L 32.698 27.9  L 36.3 31  L 48 31  L 48 17  Z M 31 11.7  L 31 0  L 17 0  L 17 11.7  L 20.099999999999998 15.302  L 27.9 15.302  L 31 11.7  Z M 32 48  L 48 48  L 48 36.3  L 44.398 32  L 32 32  L 32 48  Z M 16 0  L 3.5999999999999996 0  L 0 3.5999999999999996  L 0 16  L 16 16  L 16 0  Z M 48 0  L 32 0  L 32 11.7  L 36.300000000000004 16  L 48 16  L 48 0  Z M 26.1 24  C 26.1 25.200000000000003  25.200000000000003 26.1  24 26.1  C 22.8 26.1  21.9 25.200000000000003  21.9 24  C 21.9 22.799999999999997  22.799999999999997 21.9  24 21.9  C 25.200000000000003 21.9  26.1 22.799999999999997  26.1 24  Z M 15.302 36.3  L 15.3 36.3  L 11.700000000000001 32  L 0 32  L 0 48  L 11.7 48  L 15.302 44.398  L 15.302 36.3  Z M 16 16.2  L 15.3 17  L 0 17  L 0 31  L 11.7 31  L 16 27.9  L 16 16.2  Z " fill-rule="evenodd" />
    </mask>
  </defs>
  <g>
    <path d="M 17 36.3  L 17 48  L 31 48  L 31 36.3  L 27.9 32.698  L 20.099999999999998 32.698  L 17 36.3  Z M 48 17  L 36.3 17  L 32.698 20.099999999999998  L 32.698 27.9  L 36.3 31  L 48 31  L 48 17  Z M 31 11.7  L 31 0  L 17 0  L 17 11.7  L 20.099999999999998 15.302  L 27.9 15.302  L 31 11.7  Z M 32 48  L 48 48  L 48 36.3  L 44.398 32  L 32 32  L 32 48  Z M 16 0  L 3.5999999999999996 0  L 0 3.5999999999999996  L 0 16  L 16 16  L 16 0  Z M 48 0  L 32 0  L 32 11.7  L 36.300000000000004 16  L 48 16  L 48 0  Z M 26.1 24  C 26.1 25.200000000000003  25.200000000000003 26.1  24 26.1  C 22.8 26.1  21.9 25.200000000000003  21.9 24  C 21.9 22.799999999999997  22.799999999999997 21.9  24 21.9  C 25.200000000000003 21.9  26.1 22.799999999999997  26.1 24  Z M 15.302 36.3  L 15.3 36.3  L 11.700000000000001 32  L 0 32  L 0 48  L 11.7 48  L 15.302 44.398  L 15.302 36.3  Z M 16 16.2  L 15.3 17  L 0 17  L 0 31  L 11.7 31  L 16 27.9  L 16 16.2  Z " fill-rule="nonzero" fill="rgba(64, 186, 200, 1)" stroke="none" class="fill" />
    <path d="M 17 36.3  L 17 48  L 31 48  L 31 36.3  L 27.9 32.698  L 20.099999999999998 32.698  L 17 36.3  Z " stroke-width="0" stroke-dasharray="0" stroke="rgba(255, 255, 255, 0)" fill="none" class="stroke" mask="url(#Clip7565)" />
    <path d="M 48 17  L 36.3 17  L 32.698 20.099999999999998  L 32.698 27.9  L 36.3 31  L 48 31  L 48 17  Z " stroke-width="0" stroke-dasharray="0" stroke="rgba(255, 255, 255, 0)" fill="none" class="stroke" mask="url(#Clip7565)" />
    <path d="M 31 11.7  L 31 0  L 17 0  L 17 11.7  L 20.099999999999998 15.302  L 27.9 15.302  L 31 11.7  Z " stroke-width="0" stroke-dasharray="0" stroke="rgba(255, 255, 255, 0)" fill="none" class="stroke" mask="url(#Clip7565)" />
    <path d="M 32 48  L 48 48  L 48 36.3  L 44.398 32  L 32 32  L 32 48  Z " stroke-width="0" stroke-dasharray="0" stroke="rgba(255, 255, 255, 0)" fill="none" class="stroke" mask="url(#Clip7565)" />
    <path d="M 16 0  L 3.5999999999999996 0  L 0 3.5999999999999996  L 0 16  L 16 16  L 16 0  Z " stroke-width="0" stroke-dasharray="0" stroke="rgba(255, 255, 255, 0)" fill="none" class="stroke" mask="url(#Clip7565)" />
    <path d="M 48 0  L 32 0  L 32 11.7  L 36.300000000000004 16  L 48 16  L 48 0  Z " stroke-width="0" stroke-dasharray="0" stroke="rgba(255, 255, 255, 0)" fill="none" class="stroke" mask="url(#Clip7565)" />
    <path d="M 26.1 24  C 26.1 25.200000000000003  25.200000000000003 26.1  24 26.1  C 22.8 26.1  21.9 25.200000000000003  21.9 24  C 21.9 22.799999999999997  22.799999999999997 21.9  24 21.9  C 25.200000000000003 21.9  26.1 22.799999999999997  26.1 24  Z " stroke-width="0" stroke-dasharray="0" stroke="rgba(255, 255, 255, 0)" fill="none" class="stroke" mask="url(#Clip7565)" />
    <path d="M 15.302 36.3  L 15.3 36.3  L 11.700000000000001 32  L 0 32  L 0 48  L 11.7 48  L 15.302 44.398  L 15.302 36.3  Z " stroke-width="0" stroke-dasharray="0" stroke="rgba(255, 255, 255, 0)" fill="none" class="stroke" mask="url(#Clip7565)" />
    <path d="M 16 16.2  L 15.3 17  L 0 17  L 0 31  L 11.7 31  L 16 27.9  L 16 16.2  Z " stroke-width="0" stroke-dasharray="0" stroke="rgba(255, 255, 255, 0)" fill="none" class="stroke" mask="url(#Clip7565)" />
  </g>
</svg>