<?xml version="1.0" encoding="utf-8"?>
<svg version="1.1" xmlns:xlink="http://www.w3.org/1999/xlink" width="24px" height="23px" xmlns="http://www.w3.org/2000/svg">
  <defs>
    <pattern id="BGPattern" patternUnits="userSpaceOnUse" alignment="0 0" imageRepeat="None" />
    <mask fill="white" id="Clip5875">
      <path d="M 0.75 1.5  C 0.3357864376269049 1.5  0 1.1642135623730951  0 0.75  C 0 0.3357864376269049  0.3357864376269049 0  0.75 0  L 3.75 0  C 4.164213562373095 0  4.5 0.3357864376269049  4.5 0.75  C 4.5 1.1642135623730951  4.164213562373095 1.5  3.75 1.5  L 0.75 1.5  Z M 6.75 1.5  C 6.335786437626905 1.5  6 1.1642135623730951  6 0.75  C 6 0.3357864376269049  6.335786437626905 0  6.75 0  L 21.75 0  C 22.164213562373096 0  22.5 0.3357864376269049  22.5 0.75  C 22.5 1.1642135623730951  22.164213562373096 1.5  21.75 1.5  L 6.75 1.5  Z M 0.75 4.5  C 0.3357864376269049 4.5  0 4.164213562373095  0 3.75  C 0 3.3357864376269055  0.3357864376269049 3  0.75 3  L 3.75 3  C 4.164213562373095 3  4.5 3.3357864376269055  4.5 3.75  C 4.5 4.164213562373095  4.164213562373095 4.5  3.75 4.5  L 0.75 4.5  Z M 6.75 4.5  C 6.335786437626905 4.5  6 4.164213562373095  6 3.75  C 6 3.3357864376269055  6.335786437626905 3  6.75 3  L 20.25 3  C 20.664213562373096 3  21 3.3357864376269055  21 3.75  C 21 4.164213562373095  20.664213562373096 4.5  20.25 4.5  L 6.75 4.5  Z M 0.75 7.5  C 0.3357864376269049 7.5  0 7.164213562373095  0 6.750000000000001  C 0 6.335786437626904  0.3357864376269049 6  0.75 6  L 3.75 6  C 4.164213562373095 6  4.5 6.335786437626904  4.5 6.750000000000001  C 4.5 7.164213562373095  4.164213562373095 7.5  3.75 7.5  L 0.75 7.5  Z M 6.75 7.5  C 6.335786437626905 7.5  6 7.164213562373095  6 6.750000000000001  C 6 6.335786437626904  6.335786437626905 6  6.75 6  L 23.25 6  C 23.664213562373096 6  24 6.335786437626904  24 6.750000000000001  C 24 7.164213562373095  23.664213562373096 7.5  23.25 7.5  L 6.75 7.5  Z M 0.75 10.5  C 0.3357864376269049 10.5  0 10.164213562373096  0 9.75  C 0 9.335786437626904  0.3357864376269049 9  0.75 9  L 3.75 9  C 4.164213562373095 9  4.5 9.335786437626904  4.5 9.75  C 4.5 10.164213562373096  4.164213562373095 10.5  3.75 10.5  L 0.75 10.5  Z M 6.75 10.5  C 6.335786437626905 10.5  6 10.164213562373096  6 9.75  C 6 9.335786437626904  6.335786437626905 9  6.75 9  L 18.75 9  C 19.164213562373096 9  19.5 9.335786437626904  19.5 9.75  C 19.5 10.164213562373096  19.164213562373096 10.5  18.75 10.5  L 6.75 10.5  Z M 0.75 13.500000000000002  C 0.3357864376269049 13.500000000000002  0 13.164213562373096  0 12.75  C 0 12.335786437626902  0.3357864376269049 12  0.75 12  L 3.75 12  C 4.164213562373095 12  4.5 12.335786437626902  4.5 12.75  C 4.5 13.164213562373096  4.164213562373095 13.500000000000002  3.75 13.500000000000002  L 0.75 13.500000000000002  Z M 6.75 13.500000000000002  C 6.335786437626905 13.500000000000002  6 13.164213562373096  6 12.75  C 6 12.335786437626902  6.335786437626905 12  6.75 12  L 18.75 12  C 19.164213562373096 12  19.5 12.335786437626902  19.5 12.75  C 19.5 13.164213562373096  19.164213562373096 13.500000000000002  18.75 13.500000000000002  L 6.75 13.500000000000002  Z M 0.75 16.5  C 0.3357864376269049 16.5  0 16.164213562373096  0 15.750000000000002  C 0 15.335786437626904  0.3357864376269049 15  0.75 15  L 3.75 15  C 4.164213562373095 15  4.5 15.335786437626904  4.5 15.750000000000002  C 4.5 16.164213562373096  4.164213562373095 16.5  3.75 16.5  L 0.75 16.5  Z M 6.75 16.5  C 6.335786437626905 16.5  6 16.164213562373096  6 15.750000000000002  C 6 15.335786437626904  6.335786437626905 15  6.75 15  L 21.75 15  C 22.164213562373096 15  22.5 15.335786437626904  22.5 15.750000000000002  C 22.5 16.164213562373096  22.164213562373096 16.5  21.75 16.5  L 6.75 16.5  Z M 0.75 19.5  C 0.3357864376269049 19.5  0 19.164213562373096  0 18.75  C 0 18.335786437626904  0.3357864376269049 18  0.75 18  L 3.75 18  C 4.164213562373095 18  4.5 18.335786437626904  4.5 18.75  C 4.5 19.164213562373096  4.164213562373095 19.5  3.75 19.5  L 0.75 19.5  Z M 6.75 19.5  C 6.335786437626905 19.5  6 19.164213562373096  6 18.75  C 6 18.335786437626904  6.335786437626905 18  6.75 18  L 15.75 18  C 16.164213562373096 18  16.5 18.335786437626904  16.5 18.75  C 16.5 19.164213562373096  16.164213562373096 19.5  15.75 19.5  L 6.75 19.5  Z M 0.75 22.5  C 0.3357864376269049 22.5  0 22.164213562373096  0 21.75  C 0 21.335786437626904  0.3357864376269049 21  0.75 21  L 3.75 21  C 4.164213562373095 21  4.5 21.335786437626904  4.5 21.75  C 4.5 22.164213562373096  4.164213562373095 22.5  3.75 22.5  L 0.75 22.5  Z M 6.75 22.5  C 6.335786437626905 22.5  6 22.164213562373096  6 21.75  C 6 21.335786437626904  6.335786437626905 21  6.75 21  L 23.25 21  C 23.664213562373096 21  24 21.335786437626904  24 21.75  C 24 22.164213562373096  23.664213562373096 22.5  23.25 22.5  L 6.75 22.5  Z " fill-rule="evenodd" />
    </mask>
  </defs>
  <g>
    <path d="M 0.75 1.5  C 0.3357864376269049 1.5  0 1.1642135623730951  0 0.75  C 0 0.3357864376269049  0.3357864376269049 0  0.75 0  L 3.75 0  C 4.164213562373095 0  4.5 0.3357864376269049  4.5 0.75  C 4.5 1.1642135623730951  4.164213562373095 1.5  3.75 1.5  L 0.75 1.5  Z M 6.75 1.5  C 6.335786437626905 1.5  6 1.1642135623730951  6 0.75  C 6 0.3357864376269049  6.335786437626905 0  6.75 0  L 21.75 0  C 22.164213562373096 0  22.5 0.3357864376269049  22.5 0.75  C 22.5 1.1642135623730951  22.164213562373096 1.5  21.75 1.5  L 6.75 1.5  Z M 0.75 4.5  C 0.3357864376269049 4.5  0 4.164213562373095  0 3.75  C 0 3.3357864376269055  0.3357864376269049 3  0.75 3  L 3.75 3  C 4.164213562373095 3  4.5 3.3357864376269055  4.5 3.75  C 4.5 4.164213562373095  4.164213562373095 4.5  3.75 4.5  L 0.75 4.5  Z M 6.75 4.5  C 6.335786437626905 4.5  6 4.164213562373095  6 3.75  C 6 3.3357864376269055  6.335786437626905 3  6.75 3  L 20.25 3  C 20.664213562373096 3  21 3.3357864376269055  21 3.75  C 21 4.164213562373095  20.664213562373096 4.5  20.25 4.5  L 6.75 4.5  Z M 0.75 7.5  C 0.3357864376269049 7.5  0 7.164213562373095  0 6.750000000000001  C 0 6.335786437626904  0.3357864376269049 6  0.75 6  L 3.75 6  C 4.164213562373095 6  4.5 6.335786437626904  4.5 6.750000000000001  C 4.5 7.164213562373095  4.164213562373095 7.5  3.75 7.5  L 0.75 7.5  Z M 6.75 7.5  C 6.335786437626905 7.5  6 7.164213562373095  6 6.750000000000001  C 6 6.335786437626904  6.335786437626905 6  6.75 6  L 23.25 6  C 23.664213562373096 6  24 6.335786437626904  24 6.750000000000001  C 24 7.164213562373095  23.664213562373096 7.5  23.25 7.5  L 6.75 7.5  Z M 0.75 10.5  C 0.3357864376269049 10.5  0 10.164213562373096  0 9.75  C 0 9.335786437626904  0.3357864376269049 9  0.75 9  L 3.75 9  C 4.164213562373095 9  4.5 9.335786437626904  4.5 9.75  C 4.5 10.164213562373096  4.164213562373095 10.5  3.75 10.5  L 0.75 10.5  Z M 6.75 10.5  C 6.335786437626905 10.5  6 10.164213562373096  6 9.75  C 6 9.335786437626904  6.335786437626905 9  6.75 9  L 18.75 9  C 19.164213562373096 9  19.5 9.335786437626904  19.5 9.75  C 19.5 10.164213562373096  19.164213562373096 10.5  18.75 10.5  L 6.75 10.5  Z M 0.75 13.500000000000002  C 0.3357864376269049 13.500000000000002  0 13.164213562373096  0 12.75  C 0 12.335786437626902  0.3357864376269049 12  0.75 12  L 3.75 12  C 4.164213562373095 12  4.5 12.335786437626902  4.5 12.75  C 4.5 13.164213562373096  4.164213562373095 13.500000000000002  3.75 13.500000000000002  L 0.75 13.500000000000002  Z M 6.75 13.500000000000002  C 6.335786437626905 13.500000000000002  6 13.164213562373096  6 12.75  C 6 12.335786437626902  6.335786437626905 12  6.75 12  L 18.75 12  C 19.164213562373096 12  19.5 12.335786437626902  19.5 12.75  C 19.5 13.164213562373096  19.164213562373096 13.500000000000002  18.75 13.500000000000002  L 6.75 13.500000000000002  Z M 0.75 16.5  C 0.3357864376269049 16.5  0 16.164213562373096  0 15.750000000000002  C 0 15.335786437626904  0.3357864376269049 15  0.75 15  L 3.75 15  C 4.164213562373095 15  4.5 15.335786437626904  4.5 15.750000000000002  C 4.5 16.164213562373096  4.164213562373095 16.5  3.75 16.5  L 0.75 16.5  Z M 6.75 16.5  C 6.335786437626905 16.5  6 16.164213562373096  6 15.750000000000002  C 6 15.335786437626904  6.335786437626905 15  6.75 15  L 21.75 15  C 22.164213562373096 15  22.5 15.335786437626904  22.5 15.750000000000002  C 22.5 16.164213562373096  22.164213562373096 16.5  21.75 16.5  L 6.75 16.5  Z M 0.75 19.5  C 0.3357864376269049 19.5  0 19.164213562373096  0 18.75  C 0 18.335786437626904  0.3357864376269049 18  0.75 18  L 3.75 18  C 4.164213562373095 18  4.5 18.335786437626904  4.5 18.75  C 4.5 19.164213562373096  4.164213562373095 19.5  3.75 19.5  L 0.75 19.5  Z M 6.75 19.5  C 6.335786437626905 19.5  6 19.164213562373096  6 18.75  C 6 18.335786437626904  6.335786437626905 18  6.75 18  L 15.75 18  C 16.164213562373096 18  16.5 18.335786437626904  16.5 18.75  C 16.5 19.164213562373096  16.164213562373096 19.5  15.75 19.5  L 6.75 19.5  Z M 0.75 22.5  C 0.3357864376269049 22.5  0 22.164213562373096  0 21.75  C 0 21.335786437626904  0.3357864376269049 21  0.75 21  L 3.75 21  C 4.164213562373095 21  4.5 21.335786437626904  4.5 21.75  C 4.5 22.164213562373096  4.164213562373095 22.5  3.75 22.5  L 0.75 22.5  Z M 6.75 22.5  C 6.335786437626905 22.5  6 22.164213562373096  6 21.75  C 6 21.335786437626904  6.335786437626905 21  6.75 21  L 23.25 21  C 23.664213562373096 21  24 21.335786437626904  24 21.75  C 24 22.164213562373096  23.664213562373096 22.5  23.25 22.5  L 6.75 22.5  Z " fill-rule="nonzero" fill="rgba(0, 0, 0, 1)" stroke="none" class="fill" />
    <path d="M 0.75 1.5  C 0.3357864376269049 1.5  0 1.1642135623730951  0 0.75  C 0 0.3357864376269049  0.3357864376269049 0  0.75 0  L 3.75 0  C 4.164213562373095 0  4.5 0.3357864376269049  4.5 0.75  C 4.5 1.1642135623730951  4.164213562373095 1.5  3.75 1.5  L 0.75 1.5  Z " stroke-width="0" stroke-dasharray="0" stroke="rgba(255, 255, 255, 0)" fill="none" class="stroke" mask="url(#Clip5875)" />
    <path d="M 6.75 1.5  C 6.335786437626905 1.5  6 1.1642135623730951  6 0.75  C 6 0.3357864376269049  6.335786437626905 0  6.75 0  L 21.75 0  C 22.164213562373096 0  22.5 0.3357864376269049  22.5 0.75  C 22.5 1.1642135623730951  22.164213562373096 1.5  21.75 1.5  L 6.75 1.5  Z " stroke-width="0" stroke-dasharray="0" stroke="rgba(255, 255, 255, 0)" fill="none" class="stroke" mask="url(#Clip5875)" />
    <path d="M 0.75 4.5  C 0.3357864376269049 4.5  0 4.164213562373095  0 3.75  C 0 3.3357864376269055  0.3357864376269049 3  0.75 3  L 3.75 3  C 4.164213562373095 3  4.5 3.3357864376269055  4.5 3.75  C 4.5 4.164213562373095  4.164213562373095 4.5  3.75 4.5  L 0.75 4.5  Z " stroke-width="0" stroke-dasharray="0" stroke="rgba(255, 255, 255, 0)" fill="none" class="stroke" mask="url(#Clip5875)" />
    <path d="M 6.75 4.5  C 6.335786437626905 4.5  6 4.164213562373095  6 3.75  C 6 3.3357864376269055  6.335786437626905 3  6.75 3  L 20.25 3  C 20.664213562373096 3  21 3.3357864376269055  21 3.75  C 21 4.164213562373095  20.664213562373096 4.5  20.25 4.5  L 6.75 4.5  Z " stroke-width="0" stroke-dasharray="0" stroke="rgba(255, 255, 255, 0)" fill="none" class="stroke" mask="url(#Clip5875)" />
    <path d="M 0.75 7.5  C 0.3357864376269049 7.5  0 7.164213562373095  0 6.750000000000001  C 0 6.335786437626904  0.3357864376269049 6  0.75 6  L 3.75 6  C 4.164213562373095 6  4.5 6.335786437626904  4.5 6.750000000000001  C 4.5 7.164213562373095  4.164213562373095 7.5  3.75 7.5  L 0.75 7.5  Z " stroke-width="0" stroke-dasharray="0" stroke="rgba(255, 255, 255, 0)" fill="none" class="stroke" mask="url(#Clip5875)" />
    <path d="M 6.75 7.5  C 6.335786437626905 7.5  6 7.164213562373095  6 6.750000000000001  C 6 6.335786437626904  6.335786437626905 6  6.75 6  L 23.25 6  C 23.664213562373096 6  24 6.335786437626904  24 6.750000000000001  C 24 7.164213562373095  23.664213562373096 7.5  23.25 7.5  L 6.75 7.5  Z " stroke-width="0" stroke-dasharray="0" stroke="rgba(255, 255, 255, 0)" fill="none" class="stroke" mask="url(#Clip5875)" />
    <path d="M 0.75 10.5  C 0.3357864376269049 10.5  0 10.164213562373096  0 9.75  C 0 9.335786437626904  0.3357864376269049 9  0.75 9  L 3.75 9  C 4.164213562373095 9  4.5 9.335786437626904  4.5 9.75  C 4.5 10.164213562373096  4.164213562373095 10.5  3.75 10.5  L 0.75 10.5  Z " stroke-width="0" stroke-dasharray="0" stroke="rgba(255, 255, 255, 0)" fill="none" class="stroke" mask="url(#Clip5875)" />
    <path d="M 6.75 10.5  C 6.335786437626905 10.5  6 10.164213562373096  6 9.75  C 6 9.335786437626904  6.335786437626905 9  6.75 9  L 18.75 9  C 19.164213562373096 9  19.5 9.335786437626904  19.5 9.75  C 19.5 10.164213562373096  19.164213562373096 10.5  18.75 10.5  L 6.75 10.5  Z " stroke-width="0" stroke-dasharray="0" stroke="rgba(255, 255, 255, 0)" fill="none" class="stroke" mask="url(#Clip5875)" />
    <path d="M 0.75 13.500000000000002  C 0.3357864376269049 13.500000000000002  0 13.164213562373096  0 12.75  C 0 12.335786437626902  0.3357864376269049 12  0.75 12  L 3.75 12  C 4.164213562373095 12  4.5 12.335786437626902  4.5 12.75  C 4.5 13.164213562373096  4.164213562373095 13.500000000000002  3.75 13.500000000000002  L 0.75 13.500000000000002  Z " stroke-width="0" stroke-dasharray="0" stroke="rgba(255, 255, 255, 0)" fill="none" class="stroke" mask="url(#Clip5875)" />
    <path d="M 6.75 13.500000000000002  C 6.335786437626905 13.500000000000002  6 13.164213562373096  6 12.75  C 6 12.335786437626902  6.335786437626905 12  6.75 12  L 18.75 12  C 19.164213562373096 12  19.5 12.335786437626902  19.5 12.75  C 19.5 13.164213562373096  19.164213562373096 13.500000000000002  18.75 13.500000000000002  L 6.75 13.500000000000002  Z " stroke-width="0" stroke-dasharray="0" stroke="rgba(255, 255, 255, 0)" fill="none" class="stroke" mask="url(#Clip5875)" />
    <path d="M 0.75 16.5  C 0.3357864376269049 16.5  0 16.164213562373096  0 15.750000000000002  C 0 15.335786437626904  0.3357864376269049 15  0.75 15  L 3.75 15  C 4.164213562373095 15  4.5 15.335786437626904  4.5 15.750000000000002  C 4.5 16.164213562373096  4.164213562373095 16.5  3.75 16.5  L 0.75 16.5  Z " stroke-width="0" stroke-dasharray="0" stroke="rgba(255, 255, 255, 0)" fill="none" class="stroke" mask="url(#Clip5875)" />
    <path d="M 6.75 16.5  C 6.335786437626905 16.5  6 16.164213562373096  6 15.750000000000002  C 6 15.335786437626904  6.335786437626905 15  6.75 15  L 21.75 15  C 22.164213562373096 15  22.5 15.335786437626904  22.5 15.750000000000002  C 22.5 16.164213562373096  22.164213562373096 16.5  21.75 16.5  L 6.75 16.5  Z " stroke-width="0" stroke-dasharray="0" stroke="rgba(255, 255, 255, 0)" fill="none" class="stroke" mask="url(#Clip5875)" />
    <path d="M 0.75 19.5  C 0.3357864376269049 19.5  0 19.164213562373096  0 18.75  C 0 18.335786437626904  0.3357864376269049 18  0.75 18  L 3.75 18  C 4.164213562373095 18  4.5 18.335786437626904  4.5 18.75  C 4.5 19.164213562373096  4.164213562373095 19.5  3.75 19.5  L 0.75 19.5  Z " stroke-width="0" stroke-dasharray="0" stroke="rgba(255, 255, 255, 0)" fill="none" class="stroke" mask="url(#Clip5875)" />
    <path d="M 6.75 19.5  C 6.335786437626905 19.5  6 19.164213562373096  6 18.75  C 6 18.335786437626904  6.335786437626905 18  6.75 18  L 15.75 18  C 16.164213562373096 18  16.5 18.335786437626904  16.5 18.75  C 16.5 19.164213562373096  16.164213562373096 19.5  15.75 19.5  L 6.75 19.5  Z " stroke-width="0" stroke-dasharray="0" stroke="rgba(255, 255, 255, 0)" fill="none" class="stroke" mask="url(#Clip5875)" />
    <path d="M 0.75 22.5  C 0.3357864376269049 22.5  0 22.164213562373096  0 21.75  C 0 21.335786437626904  0.3357864376269049 21  0.75 21  L 3.75 21  C 4.164213562373095 21  4.5 21.335786437626904  4.5 21.75  C 4.5 22.164213562373096  4.164213562373095 22.5  3.75 22.5  L 0.75 22.5  Z " stroke-width="0" stroke-dasharray="0" stroke="rgba(255, 255, 255, 0)" fill="none" class="stroke" mask="url(#Clip5875)" />
    <path d="M 6.75 22.5  C 6.335786437626905 22.5  6 22.164213562373096  6 21.75  C 6 21.335786437626904  6.335786437626905 21  6.75 21  L 23.25 21  C 23.664213562373096 21  24 21.335786437626904  24 21.75  C 24 22.164213562373096  23.664213562373096 22.5  23.25 22.5  L 6.75 22.5  Z " stroke-width="0" stroke-dasharray="0" stroke="rgba(255, 255, 255, 0)" fill="none" class="stroke" mask="url(#Clip5875)" />
  </g>
</svg>