<?xml version="1.0" encoding="utf-8"?>
<svg version="1.1" xmlns:xlink="http://www.w3.org/1999/xlink" width="50px" height="47px" xmlns="http://www.w3.org/2000/svg">
  <defs>
    <pattern id="BGPattern" patternUnits="userSpaceOnUse" alignment="0 0" imageRepeat="None" />
    <mask fill="white" id="Clip1326">
      <path d="M 50 14.062500000000002  C 50 11.474609375  47.900390625 9.375  45.3125 9.375  L 37.5 9.375  L 37.5 4.6875  C 37.5 2.099609375  35.400390625 0  32.8125 0  L 17.1875 0  C 14.599609375 0  12.5 2.099609375  12.5 4.6875  L 12.5 9.375  L 4.6875 9.375  C 2.099609375 9.375  0 11.474609375  0 14.062500000000002  L 0 42.1875  C 0 44.775390625  2.099609375 46.875  4.6875 46  L 45.3125 46  C 47.900390625 46.875  50 44.775390625  50 42.1875  L 50 14.062500000000002  Z M 18.75 10  L 18.75 7  L 31.25 7  L 31.25 10  L 18.75 10  Z M 34.375 25.78125  L 34.375 30.46875  C 34.375 30.8984375  34.0234375 31.25  33.59375 31.25  L 28.125 31.25  L 28.125 36.71875  C 28.125 37.1484375  27.773437499999996 37.5  27.34375 37.5  L 22.65625 37.5  C 22.2265625 37.5  21.875 37.1484375  21.875 36.71875  L 21.875 31.25  L 16.40625 31.25  C 15.9765625 31.25  15.625 30.8984375  15.625 30.46875  L 15.625 25.78125  C 15.625 25.3515625  15.9765625 25  16.40625 25  L 21.875 25  L 21.875 19.53125  C 21.875 19.1015625  22.2265625 18.75  22.65625 18.75  L 27.34375 18.75  C 27.773437499999996 18.75  28.125 19.1015625  28.125 19.53125  L 28.125 25  L 33.59375 25  C 34.0234375 25  34.375 25.3515625  34.375 25.78125  Z " fill-rule="evenodd" />
    </mask>
  </defs>
  <g>
    <path d="M 50 14.062500000000002  C 50 11.474609375  47.900390625 9.375  45.3125 9.375  L 37.5 9.375  L 37.5 4.6875  C 37.5 2.099609375  35.400390625 0  32.8125 0  L 17.1875 0  C 14.599609375 0  12.5 2.099609375  12.5 4.6875  L 12.5 9.375  L 4.6875 9.375  C 2.099609375 9.375  0 11.474609375  0 14.062500000000002  L 0 42.1875  C 0 44.775390625  2.099609375 46.875  4.6875 46  L 45.3125 46  C 47.900390625 46.875  50 44.775390625  50 42.1875  L 50 14.062500000000002  Z M 18.75 10  L 18.75 7  L 31.25 7  L 31.25 10  L 18.75 10  Z M 34.375 25.78125  L 34.375 30.46875  C 34.375 30.8984375  34.0234375 31.25  33.59375 31.25  L 28.125 31.25  L 28.125 36.71875  C 28.125 37.1484375  27.773437499999996 37.5  27.34375 37.5  L 22.65625 37.5  C 22.2265625 37.5  21.875 37.1484375  21.875 36.71875  L 21.875 31.25  L 16.40625 31.25  C 15.9765625 31.25  15.625 30.8984375  15.625 30.46875  L 15.625 25.78125  C 15.625 25.3515625  15.9765625 25  16.40625 25  L 21.875 25  L 21.875 19.53125  C 21.875 19.1015625  22.2265625 18.75  22.65625 18.75  L 27.34375 18.75  C 27.773437499999996 18.75  28.125 19.1015625  28.125 19.53125  L 28.125 25  L 33.59375 25  C 34.0234375 25  34.375 25.3515625  34.375 25.78125  Z " fill-rule="nonzero" fill="rgba(0, 0, 0, 1)" stroke="none" class="fill" />
    <path d="M 50 14.062500000000002  C 50 11.474609375  47.900390625 9.375  45.3125 9.375  L 37.5 9.375  L 37.5 4.6875  C 37.5 2.099609375  35.400390625 0  32.8125 0  L 17.1875 0  C 14.599609375 0  12.5 2.099609375  12.5 4.6875  L 12.5 9.375  L 4.6875 9.375  C 2.099609375 9.375  0 11.474609375  0 14.062500000000002  L 0 42.1875  C 0 44.775390625  2.099609375 46.875  4.6875 46  L 45.3125 46  C 47.900390625 46.875  50 44.775390625  50 42.1875  L 50 14.062500000000002  Z " stroke-width="0" stroke-dasharray="0" stroke="rgba(255, 255, 255, 0)" fill="none" class="stroke" mask="url(#Clip1326)" />
    <path d="M 18.75 10  L 18.75 7  L 31.25 7  L 31.25 10  L 18.75 10  Z " stroke-width="0" stroke-dasharray="0" stroke="rgba(255, 255, 255, 0)" fill="none" class="stroke" mask="url(#Clip1326)" />
    <path d="M 34.375 25.78125  L 34.375 30.46875  C 34.375 30.8984375  34.0234375 31.25  33.59375 31.25  L 28.125 31.25  L 28.125 36.71875  C 28.125 37.1484375  27.773437499999996 37.5  27.34375 37.5  L 22.65625 37.5  C 22.2265625 37.5  21.875 37.1484375  21.875 36.71875  L 21.875 31.25  L 16.40625 31.25  C 15.9765625 31.25  15.625 30.8984375  15.625 30.46875  L 15.625 25.78125  C 15.625 25.3515625  15.9765625 25  16.40625 25  L 21.875 25  L 21.875 19.53125  C 21.875 19.1015625  22.2265625 18.75  22.65625 18.75  L 27.34375 18.75  C 27.773437499999996 18.75  28.125 19.1015625  28.125 19.53125  L 28.125 25  L 33.59375 25  C 34.0234375 25  34.375 25.3515625  34.375 25.78125  Z " stroke-width="0" stroke-dasharray="0" stroke="rgba(255, 255, 255, 0)" fill="none" class="stroke" mask="url(#Clip1326)" />
  </g>
</svg>