<?xml version="1.0" encoding="utf-8"?>
<svg version="1.1" xmlns:xlink="http://www.w3.org/1999/xlink" width="20px" height="24px" xmlns="http://www.w3.org/2000/svg">
  <defs>
    <pattern id="BGPattern" patternUnits="userSpaceOnUse" alignment="0 0" imageRepeat="None" />
    <mask fill="white" id="Clip31">
      <path d="M 18.799999999999994 12  C 19.103999999999992 12  19.423999999999992 12.111999999999998  19.648 12.352  C 19.872 12.591999999999999  20 12.896  20 13.2  C 20 13.503999999999998  19.872 13.823999999999998  19.648 14.047999999999998  L 10.847999999999999 22.848  C 10.608000000000002 23.087999999999997  10.304 23.2  10 23.2  C 9.696 23.2  9.392 23.072  9.152 22.848  L 0.3520000000000002 14.047999999999998  C 0.11200000000000009 13.823999999999998  0 13.503999999999998  0 13.2  C 0 12.896  0.11200000000000009 12.591999999999999  0.3520000000000002 12.352  C 0.5760000000000004 12.128  0.8960000000000007 12  1.2 12  C 1.5039999999999991 12  1.8079999999999996 12.111999999999998  2.0479999999999996 12.352  L 9 19.104  L 9 2  C 8.799999999999999 1.3440000000000003  9.328 0.7999999999999998  9.999999999999998 0.7999999999999998  C 10.655999999999997 0.7999999999999998  11.199999999999996 1.3439999999999994  11 2  L 11 19.104  L 17.951999999999995 12.352  C 18.175999999999995 12.128  18.495999999999995 12  18.799999999999994 12  Z " fill-rule="evenodd" />
    </mask>
  </defs>
  <g>
    <path d="M 18.799999999999994 12  C 19.103999999999992 12  19.423999999999992 12.111999999999998  19.648 12.352  C 19.872 12.591999999999999  20 12.896  20 13.2  C 20 13.503999999999998  19.872 13.823999999999998  19.648 14.047999999999998  L 10.847999999999999 22.848  C 10.608000000000002 23.087999999999997  10.304 23.2  10 23.2  C 9.696 23.2  9.392 23.072  9.152 22.848  L 0.3520000000000002 14.047999999999998  C 0.11200000000000009 13.823999999999998  0 13.503999999999998  0 13.2  C 0 12.896  0.11200000000000009 12.591999999999999  0.3520000000000002 12.352  C 0.5760000000000004 12.128  0.8960000000000007 12  1.2 12  C 1.5039999999999991 12  1.8079999999999996 12.111999999999998  2.0479999999999996 12.352  L 9 19.104  L 9 2  C 8.799999999999999 1.3440000000000003  9.328 0.7999999999999998  9.999999999999998 0.7999999999999998  C 10.655999999999997 0.7999999999999998  11.199999999999996 1.3439999999999994  11 2  L 11 19.104  L 17.951999999999995 12.352  C 18.175999999999995 12.128  18.495999999999995 12  18.799999999999994 12  Z " fill-rule="nonzero" fill="rgba(0, 0, 0, 1)" stroke="none" class="fill" />
    <path d="M 18.799999999999994 12  C 19.103999999999992 12  19.423999999999992 12.111999999999998  19.648 12.352  C 19.872 12.591999999999999  20 12.896  20 13.2  C 20 13.503999999999998  19.872 13.823999999999998  19.648 14.047999999999998  L 10.847999999999999 22.848  C 10.608000000000002 23.087999999999997  10.304 23.2  10 23.2  C 9.696 23.2  9.392 23.072  9.152 22.848  L 0.3520000000000002 14.047999999999998  C 0.11200000000000009 13.823999999999998  0 13.503999999999998  0 13.2  C 0 12.896  0.11200000000000009 12.591999999999999  0.3520000000000002 12.352  C 0.5760000000000004 12.128  0.8960000000000007 12  1.2 12  C 1.5039999999999991 12  1.8079999999999996 12.111999999999998  2.0479999999999996 12.352  L 9 19.104  L 9 2  C 8.799999999999999 1.3440000000000003  9.328 0.7999999999999998  9.999999999999998 0.7999999999999998  C 10.655999999999997 0.7999999999999998  11.199999999999996 1.3439999999999994  11 2  L 11 19.104  L 17.951999999999995 12.352  C 18.175999999999995 12.128  18.495999999999995 12  18.799999999999994 12  Z " stroke-width="0" stroke-dasharray="0" stroke="rgba(255, 255, 255, 0)" fill="none" class="stroke" mask="url(#Clip31)" />
  </g>
</svg>