<?xml version="1.0" encoding="utf-8"?>
<svg version="1.1" xmlns:xlink="http://www.w3.org/1999/xlink" width="50px" height="50px" xmlns="http://www.w3.org/2000/svg">
  <defs>
    <pattern id="BGPattern" patternUnits="userSpaceOnUse" alignment="0 0" imageRepeat="None" />
    <mask fill="white" id="Clip1960">
      <path d="M 50 21.875  C 50 9.794921875  38.80859375 0  25 0  C 11.19140625 0  0 9.794921875  0 21.875  C 0 28.720703125000004  3.603515625 34.82421875  9.228515625 38.837890625  C 10.166015625 39.51171875  10.712890625 40.60546875  10.546875 41.7578125  L 9.62890625 48.22265625  C 9.4921875 49.16015625  10.21484375 50  11.162109375 50  L 18.75 50  L 18.75 44.53125  C 18.75 44.1015625  19.1015625 43.75  19.53125 43.75  L 21.09375 43.75  C 21.5234375 43.75  21.875 44.1015625  21.875 44.53125  L 21.875 50  L 28.125 50  L 28.125 44.53125  C 28.125 44.1015625  28.476562500000004 43.75  28.90625 43.75  L 30.46875 43.75  C 30.898437499999996 43.75  31.25 44.1015625  31.25 44.53125  L 31.25 50  L 38.837890625 50  C 39.78515625 50  40.5078125 49.16015625  40.37109375 48.22265625  L 39.453125 41.7578125  C 39.287109375 40.615234375  39.82421875 39.51171875  40.771484375 38.837890625  C 46.396484375 34.82421875  50 28.720703125000004  50 21.875  Z M 21.875 25  C 21.875 28.447265625  19.072265625 31.25  15.625 31.25  C 12.177734375 31.25  9.375 28.447265625  9.375 25  C 9.375 21.552734375  12.177734375 18.75  15.625 18.75  C 19.072265625 18.75  21.875 21.552734375  21.875 25  Z M 40.625 25  C 40.625 28.447265625  37.822265625 31.25  34.375 31.25  C 30.927734375 31.25  28.125 28.447265625  28.125 25  C 28.125 21.552734375  30.927734375 18.75  34.375 18.75  C 37.822265625 18.75  40.625 21.552734375  40.625 25  Z " fill-rule="evenodd" />
    </mask>
  </defs>
  <g>
    <path d="M 50 21.875  C 50 9.794921875  38.80859375 0  25 0  C 11.19140625 0  0 9.794921875  0 21.875  C 0 28.720703125000004  3.603515625 34.82421875  9.228515625 38.837890625  C 10.166015625 39.51171875  10.712890625 40.60546875  10.546875 41.7578125  L 9.62890625 48.22265625  C 9.4921875 49.16015625  10.21484375 50  11.162109375 50  L 18.75 50  L 18.75 44.53125  C 18.75 44.1015625  19.1015625 43.75  19.53125 43.75  L 21.09375 43.75  C 21.5234375 43.75  21.875 44.1015625  21.875 44.53125  L 21.875 50  L 28.125 50  L 28.125 44.53125  C 28.125 44.1015625  28.476562500000004 43.75  28.90625 43.75  L 30.46875 43.75  C 30.898437499999996 43.75  31.25 44.1015625  31.25 44.53125  L 31.25 50  L 38.837890625 50  C 39.78515625 50  40.5078125 49.16015625  40.37109375 48.22265625  L 39.453125 41.7578125  C 39.287109375 40.615234375  39.82421875 39.51171875  40.771484375 38.837890625  C 46.396484375 34.82421875  50 28.720703125000004  50 21.875  Z M 21.875 25  C 21.875 28.447265625  19.072265625 31.25  15.625 31.25  C 12.177734375 31.25  9.375 28.447265625  9.375 25  C 9.375 21.552734375  12.177734375 18.75  15.625 18.75  C 19.072265625 18.75  21.875 21.552734375  21.875 25  Z M 40.625 25  C 40.625 28.447265625  37.822265625 31.25  34.375 31.25  C 30.927734375 31.25  28.125 28.447265625  28.125 25  C 28.125 21.552734375  30.927734375 18.75  34.375 18.75  C 37.822265625 18.75  40.625 21.552734375  40.625 25  Z " fill-rule="nonzero" fill="rgba(0, 0, 0, 1)" stroke="none" class="fill" />
    <path d="M 50 21.875  C 50 9.794921875  38.80859375 0  25 0  C 11.19140625 0  0 9.794921875  0 21.875  C 0 28.720703125000004  3.603515625 34.82421875  9.228515625 38.837890625  C 10.166015625 39.51171875  10.712890625 40.60546875  10.546875 41.7578125  L 9.62890625 48.22265625  C 9.4921875 49.16015625  10.21484375 50  11.162109375 50  L 18.75 50  L 18.75 44.53125  C 18.75 44.1015625  19.1015625 43.75  19.53125 43.75  L 21.09375 43.75  C 21.5234375 43.75  21.875 44.1015625  21.875 44.53125  L 21.875 50  L 28.125 50  L 28.125 44.53125  C 28.125 44.1015625  28.476562500000004 43.75  28.90625 43.75  L 30.46875 43.75  C 30.898437499999996 43.75  31.25 44.1015625  31.25 44.53125  L 31.25 50  L 38.837890625 50  C 39.78515625 50  40.5078125 49.16015625  40.37109375 48.22265625  L 39.453125 41.7578125  C 39.287109375 40.615234375  39.82421875 39.51171875  40.771484375 38.837890625  C 46.396484375 34.82421875  50 28.720703125000004  50 21.875  Z " stroke-width="0" stroke-dasharray="0" stroke="rgba(255, 255, 255, 0)" fill="none" class="stroke" mask="url(#Clip1960)" />
    <path d="M 21.875 25  C 21.875 28.447265625  19.072265625 31.25  15.625 31.25  C 12.177734375 31.25  9.375 28.447265625  9.375 25  C 9.375 21.552734375  12.177734375 18.75  15.625 18.75  C 19.072265625 18.75  21.875 21.552734375  21.875 25  Z " stroke-width="0" stroke-dasharray="0" stroke="rgba(255, 255, 255, 0)" fill="none" class="stroke" mask="url(#Clip1960)" />
    <path d="M 40.625 25  C 40.625 28.447265625  37.822265625 31.25  34.375 31.25  C 30.927734375 31.25  28.125 28.447265625  28.125 25  C 28.125 21.552734375  30.927734375 18.75  34.375 18.75  C 37.822265625 18.75  40.625 21.552734375  40.625 25  Z " stroke-width="0" stroke-dasharray="0" stroke="rgba(255, 255, 255, 0)" fill="none" class="stroke" mask="url(#Clip1960)" />
  </g>
</svg>