<?xml version="1.0" encoding="utf-8"?>
<svg version="1.1" xmlns:xlink="http://www.w3.org/1999/xlink" width="24px" height="24px" xmlns="http://www.w3.org/2000/svg">
  <defs>
    <pattern id="BGPattern" patternUnits="userSpaceOnUse" alignment="0 0" imageRepeat="None" />
    <mask fill="white" id="Clip4958">
      <path d="M 4.5 0.75  C 4.5 0.3357864376269049  4.835786437626905 0  5.25 0  C 5.664213562373095 0  6 0.3357864376269049  6 0.75  L 6 1.5  L 18 1.5  L 18 0.75  C 18 0.3357864376269049  18.335786437626904 0  18.75 0  C 19.164213562373096 0  19.5 0.3357864376269049  19.5 0.75  L 19.5 1.5  L 21 1.5  C 22.65685424949238 1.5  24 2.8431457505076194  24 4.5  L 24 21  C 24 22.65685424949238  22.65685424949238 24  21 24  L 3 24  C 1.3431457505076196 24  0 22.65685424949238  0 21  L 0 4.5  C 0 2.8431457505076194  1.3431457505076196 1.5  3 1.5  L 4.5 1.5  L 4.5 0.75  Z M 3.8175 4.5  C 3.3659999999999997 4.5  3 4.836  3 5.25  L 3 6.75  C 3 7.164  3.3675 7.5  3.8175 7.5  L 20.181 7.5  C 20.634 7.5  21 7.164  21 6.75  L 21 5.25  C 21 4.836  20.6325 4.5  20.1825 4.5  L 3.8175 4.5  Z M 11.781 17.781000000000002  L 16.281 13.280999999999999  C 16.421829956104794 13.140170043895203  16.500947401620117 12.94916363391181  16.500947401620117 12.75  C 16.500947401620117 12.33526320216015  16.16473679783985 11.999052598379887  15.75 11.999052598379887  C 15.55083636608819 11.999052598379887  15.359829956104797 12.078170043895202  15.218999999999998 12.218999999999998  L 11.25 16.1895  L 9.531 14.469000000000001  C 9.390170043895203 14.328170043895204  9.199163633911812 14.249052598379885  9 14.249052598379885  C 8.58526320216015 14.249052598379885  8.249052598379887 14.585263202160151  8.249052598379887 15  C 8.249052598379887 15.199163633911812  8.328170043895202 15.390170043895203  8.469 15.531000000000002  L 10.719 17.781000000000002  C 10.85970639451525 17.922062551031452  11.050759108712638 18.00134067552813  11.25 18.00134067552813  C 11.449240891287362 18.00134067552813  11.64029360548475 17.922062551031452  11.781 17.781000000000002  Z " fill-rule="evenodd" />
    </mask>
  </defs>
  <g>
    <path d="M 4.5 0.75  C 4.5 0.3357864376269049  4.835786437626905 0  5.25 0  C 5.664213562373095 0  6 0.3357864376269049  6 0.75  L 6 1.5  L 18 1.5  L 18 0.75  C 18 0.3357864376269049  18.335786437626904 0  18.75 0  C 19.164213562373096 0  19.5 0.3357864376269049  19.5 0.75  L 19.5 1.5  L 21 1.5  C 22.65685424949238 1.5  24 2.8431457505076194  24 4.5  L 24 21  C 24 22.65685424949238  22.65685424949238 24  21 24  L 3 24  C 1.3431457505076196 24  0 22.65685424949238  0 21  L 0 4.5  C 0 2.8431457505076194  1.3431457505076196 1.5  3 1.5  L 4.5 1.5  L 4.5 0.75  Z M 3.8175 4.5  C 3.3659999999999997 4.5  3 4.836  3 5.25  L 3 6.75  C 3 7.164  3.3675 7.5  3.8175 7.5  L 20.181 7.5  C 20.634 7.5  21 7.164  21 6.75  L 21 5.25  C 21 4.836  20.6325 4.5  20.1825 4.5  L 3.8175 4.5  Z M 11.781 17.781000000000002  L 16.281 13.280999999999999  C 16.421829956104794 13.140170043895203  16.500947401620117 12.94916363391181  16.500947401620117 12.75  C 16.500947401620117 12.33526320216015  16.16473679783985 11.999052598379887  15.75 11.999052598379887  C 15.55083636608819 11.999052598379887  15.359829956104797 12.078170043895202  15.218999999999998 12.218999999999998  L 11.25 16.1895  L 9.531 14.469000000000001  C 9.390170043895203 14.328170043895204  9.199163633911812 14.249052598379885  9 14.249052598379885  C 8.58526320216015 14.249052598379885  8.249052598379887 14.585263202160151  8.249052598379887 15  C 8.249052598379887 15.199163633911812  8.328170043895202 15.390170043895203  8.469 15.531000000000002  L 10.719 17.781000000000002  C 10.85970639451525 17.922062551031452  11.050759108712638 18.00134067552813  11.25 18.00134067552813  C 11.449240891287362 18.00134067552813  11.64029360548475 17.922062551031452  11.781 17.781000000000002  Z " fill-rule="nonzero" fill="rgba(0, 0, 0, 1)" stroke="none" class="fill" />
    <path d="M 4.5 0.75  C 4.5 0.3357864376269049  4.835786437626905 0  5.25 0  C 5.664213562373095 0  6 0.3357864376269049  6 0.75  L 6 1.5  L 18 1.5  L 18 0.75  C 18 0.3357864376269049  18.335786437626904 0  18.75 0  C 19.164213562373096 0  19.5 0.3357864376269049  19.5 0.75  L 19.5 1.5  L 21 1.5  C 22.65685424949238 1.5  24 2.8431457505076194  24 4.5  L 24 21  C 24 22.65685424949238  22.65685424949238 24  21 24  L 3 24  C 1.3431457505076196 24  0 22.65685424949238  0 21  L 0 4.5  C 0 2.8431457505076194  1.3431457505076196 1.5  3 1.5  L 4.5 1.5  L 4.5 0.75  Z " stroke-width="0" stroke-dasharray="0" stroke="rgba(255, 255, 255, 0)" fill="none" class="stroke" mask="url(#Clip4958)" />
    <path d="M 3.8175 4.5  C 3.3659999999999997 4.5  3 4.836  3 5.25  L 3 6.75  C 3 7.164  3.3675 7.5  3.8175 7.5  L 20.181 7.5  C 20.634 7.5  21 7.164  21 6.75  L 21 5.25  C 21 4.836  20.6325 4.5  20.1825 4.5  L 3.8175 4.5  Z " stroke-width="0" stroke-dasharray="0" stroke="rgba(255, 255, 255, 0)" fill="none" class="stroke" mask="url(#Clip4958)" />
    <path d="M 11.781 17.781000000000002  L 16.281 13.280999999999999  C 16.421829956104794 13.140170043895203  16.500947401620117 12.94916363391181  16.500947401620117 12.75  C 16.500947401620117 12.33526320216015  16.16473679783985 11.999052598379887  15.75 11.999052598379887  C 15.55083636608819 11.999052598379887  15.359829956104797 12.078170043895202  15.218999999999998 12.218999999999998  L 11.25 16.1895  L 9.531 14.469000000000001  C 9.390170043895203 14.328170043895204  9.199163633911812 14.249052598379885  9 14.249052598379885  C 8.58526320216015 14.249052598379885  8.249052598379887 14.585263202160151  8.249052598379887 15  C 8.249052598379887 15.199163633911812  8.328170043895202 15.390170043895203  8.469 15.531000000000002  L 10.719 17.781000000000002  C 10.85970639451525 17.922062551031452  11.050759108712638 18.00134067552813  11.25 18.00134067552813  C 11.449240891287362 18.00134067552813  11.64029360548475 17.922062551031452  11.781 17.781000000000002  Z " stroke-width="0" stroke-dasharray="0" stroke="rgba(255, 255, 255, 0)" fill="none" class="stroke" mask="url(#Clip4958)" />
  </g>
</svg>