<?xml version="1.0" encoding="utf-8"?>
<svg version="1.1" xmlns:xlink="http://www.w3.org/1999/xlink" width="24px" height="25px" xmlns="http://www.w3.org/2000/svg">
  <defs>
    <pattern id="BGPattern" patternUnits="userSpaceOnUse" alignment="0 0" imageRepeat="None" />
    <mask fill="white" id="Clip577">
      <path d="M 2.0479999999999983 23.848  C 1.8239999999999983 24.072  1.5359999999999983 24.2  1.2 24.2  C 0.5439999999999999 24.2  0 23.656  0 23  C 0 22.664  0.144 22.376  0.352 22.152  L 21.952 0.5519999999999996  C 22.176000000000002 0.3119999999999994  22.48 0.19999999999999973  22.8 0.19999999999999973  C 23.456 0.19999999999999973  24 0.7439999999999998  24 1.3999999999999995  C 24 1.7199999999999998  23.872 2.023999999999999  23.648 2.2479999999999993  L 2.0479999999999983 23.848  Z " fill-rule="evenodd" />
    </mask>
  </defs>
  <g>
    <path d="M 2.0479999999999983 23.848  C 1.8239999999999983 24.072  1.5359999999999983 24.2  1.2 24.2  C 0.5439999999999999 24.2  0 23.656  0 23  C 0 22.664  0.144 22.376  0.352 22.152  L 21.952 0.5519999999999996  C 22.176000000000002 0.3119999999999994  22.48 0.19999999999999973  22.8 0.19999999999999973  C 23.456 0.19999999999999973  24 0.7439999999999998  24 1.3999999999999995  C 24 1.7199999999999998  23.872 2.023999999999999  23.648 2.2479999999999993  L 2.0479999999999983 23.848  Z " fill-rule="nonzero" fill="rgba(0, 0, 0, 1)" stroke="none" class="fill" />
    <path d="M 2.0479999999999983 23.848  C 1.8239999999999983 24.072  1.5359999999999983 24.2  1.2 24.2  C 0.5439999999999999 24.2  0 23.656  0 23  C 0 22.664  0.144 22.376  0.352 22.152  L 21.952 0.5519999999999996  C 22.176000000000002 0.3119999999999994  22.48 0.19999999999999973  22.8 0.19999999999999973  C 23.456 0.19999999999999973  24 0.7439999999999998  24 1.3999999999999995  C 24 1.7199999999999998  23.872 2.023999999999999  23.648 2.2479999999999993  L 2.0479999999999983 23.848  Z " stroke-width="0" stroke-dasharray="0" stroke="rgba(255, 255, 255, 0)" fill="none" class="stroke" mask="url(#Clip577)" />
  </g>
</svg>