<?xml version="1.0" encoding="utf-8"?>
<svg version="1.1" xmlns:xlink="http://www.w3.org/1999/xlink" width="24px" height="24px" xmlns="http://www.w3.org/2000/svg">
  <defs>
    <pattern id="BGPattern" patternUnits="userSpaceOnUse" alignment="0 0" imageRepeat="None" />
    <mask fill="white" id="Clip5471">
      <path d="M 3 13.5  L 3 3  C 3 1.3431457505076196  4.343145750507619 0  6 0  L 13.939499999999999 0  C 14.33729222021822 8.495610824209971E-05  14.718760902963812 0.15817593778357192  15 0.4395  L 20.5605 6  C 20.84182406221643 6.281239097036188  20.999915043891757 6.662707779781778  21 7.060499999999999  L 21 13.5  L 3 13.5  Z M 21 18  L 3 18  L 3 21  C 3 22.65685424949238  4.343145750507619 24  6 24  L 18 24  C 19.65685424949238 24  21 22.65685424949238  21 21  L 21 18  Z M 0.75 16.5  C 0.3357864376269049 16.5  0 16.164213562373096  0 15.75  C 0 15.335786437626904  0.3357864376269049 15  0.75 15  L 23.25 15  C 23.664213562373096 15  24 15.335786437626904  24 15.75  C 24 16.164213562373096  23.664213562373096 16.5  23.25 16.5  L 0.75 16.5  Z M 14.25 2.25  L 13.5 6  C 13.5 6.82842712474619  14.17157287525381 7.5  15 7.5  L 18.75 6.75  L 14.25 2.25  Z " fill-rule="evenodd" />
    </mask>
  </defs>
  <g>
    <path d="M 3 13.5  L 3 3  C 3 1.3431457505076196  4.343145750507619 0  6 0  L 13.939499999999999 0  C 14.33729222021822 8.495610824209971E-05  14.718760902963812 0.15817593778357192  15 0.4395  L 20.5605 6  C 20.84182406221643 6.281239097036188  20.999915043891757 6.662707779781778  21 7.060499999999999  L 21 13.5  L 3 13.5  Z M 21 18  L 3 18  L 3 21  C 3 22.65685424949238  4.343145750507619 24  6 24  L 18 24  C 19.65685424949238 24  21 22.65685424949238  21 21  L 21 18  Z M 0.75 16.5  C 0.3357864376269049 16.5  0 16.164213562373096  0 15.75  C 0 15.335786437626904  0.3357864376269049 15  0.75 15  L 23.25 15  C 23.664213562373096 15  24 15.335786437626904  24 15.75  C 24 16.164213562373096  23.664213562373096 16.5  23.25 16.5  L 0.75 16.5  Z M 14.25 2.25  L 13.5 6  C 13.5 6.82842712474619  14.17157287525381 7.5  15 7.5  L 18.75 6.75  L 14.25 2.25  Z " fill-rule="nonzero" fill="rgba(0, 0, 0, 1)" stroke="none" class="fill" />
    <path d="M 3 13.5  L 3 3  C 3 1.3431457505076196  4.343145750507619 0  6 0  L 13.939499999999999 0  C 14.33729222021822 8.495610824209971E-05  14.718760902963812 0.15817593778357192  15 0.4395  L 20.5605 6  C 20.84182406221643 6.281239097036188  20.999915043891757 6.662707779781778  21 7.060499999999999  L 21 13.5  L 3 13.5  Z " stroke-width="0" stroke-dasharray="0" stroke="rgba(255, 255, 255, 0)" fill="none" class="stroke" mask="url(#Clip5471)" />
    <path d="M 21 18  L 3 18  L 3 21  C 3 22.65685424949238  4.343145750507619 24  6 24  L 18 24  C 19.65685424949238 24  21 22.65685424949238  21 21  L 21 18  Z " stroke-width="0" stroke-dasharray="0" stroke="rgba(255, 255, 255, 0)" fill="none" class="stroke" mask="url(#Clip5471)" />
    <path d="M 0.75 16.5  C 0.3357864376269049 16.5  0 16.164213562373096  0 15.75  C 0 15.335786437626904  0.3357864376269049 15  0.75 15  L 23.25 15  C 23.664213562373096 15  24 15.335786437626904  24 15.75  C 24 16.164213562373096  23.664213562373096 16.5  23.25 16.5  L 0.75 16.5  Z " stroke-width="0" stroke-dasharray="0" stroke="rgba(255, 255, 255, 0)" fill="none" class="stroke" mask="url(#Clip5471)" />
    <path d="M 14.25 2.25  L 13.5 6  C 13.5 6.82842712474619  14.17157287525381 7.5  15 7.5  L 18.75 6.75  L 14.25 2.25  Z " stroke-width="0" stroke-dasharray="0" stroke="rgba(255, 255, 255, 0)" fill="none" class="stroke" mask="url(#Clip5471)" />
  </g>
</svg>