<?xml version="1.0" encoding="utf-8"?>
<svg version="1.1" xmlns:xlink="http://www.w3.org/1999/xlink" width="38px" height="50px" xmlns="http://www.w3.org/2000/svg">
  <defs>
    <pattern id="BGPattern" patternUnits="userSpaceOnUse" alignment="0 0" imageRepeat="None" />
    <mask fill="white" id="Clip2085">
      <path d="M 31.249999999999996 27.55078125  C 34.8828125 26.259765624999996  37.5 22.826171875  37.5 18.75  L 31.249999999999996 18.75  L 31.249999999999996 15.05078125  C 34.8828125 13.759765625  37.5 10.326171875  37.5 6.25  L 31.249999999999996 6.25  L 31.249999999999996 3.125  C 31.249999999999996 1.3994140625  29.850585937500004 0  28.125000000000004 0  L 9.375 0  C 7.6494140625 0  6.25 1.3994140625  6.25 3.125  L 6.25 6.25  L 0 6.25  C 0 10.326171875  2.6171875 13.759765625  6.25 15.05078125  L 6.25 18.75  L 0 18.75  C 0 22.826171875  2.6171875 26.259765624999996  6.25 27.55078125  L 6.25 31.25  L 0 31.25  C 0 35.43359375  2.7587890625 38.9345703125  6.5419921875 40.1416015625  C 7.755859375 45.7734375  12.75390625 50  18.75 50  C 24.74609375 50  29.744140625 45.7734375  30.9580078125 40.1416015625  C 34.7412109375 38.9345703125  37.5 35.43359375  37.5 31.25  L 31.249999999999996 31.25  L 31.249999999999996 27.55078125  Z M 23.4375 35.9375  C 23.4375 38.5263671875  21.3388671875 40.625  18.75 40.625  C 16.1611328125 40.625  14.062500000000002 38.5263671875  14.062500000000002 35.9375  C 14.062500000000002 33.3486328125  16.1611328125 31.25  18.75 31.25  C 21.3388671875 31.25  23.4375 33.3486328125  23.4375 35.9375  Z M 23.4375 23.4375  C 23.4375 26.0263671875  21.3388671875 28.125  18.75 28.125  C 16.1611328125 28.125  14.062500000000002 26.0263671875  14.062500000000002 23.4375  C 14.062500000000002 20.8486328125  16.1611328125 18.75  18.75 18.75  C 21.3388671875 18.75  23.4375 20.8486328125  23.4375 23.4375  Z M 23.4375 10.9375  C 23.4375 13.5263671875  21.3388671875 15.625  18.75 15.625  C 16.1611328125 15.625  14.062500000000002 13.5263671875  14.062500000000002 10.9375  C 14.062500000000002 8.3486328125  16.1611328125 6.25  18.75 6.25  C 21.3388671875 6.25  23.4375 8.3486328125  23.4375 10.9375  Z " fill-rule="evenodd" />
    </mask>
  </defs>
  <g>
    <path d="M 31.249999999999996 27.55078125  C 34.8828125 26.259765624999996  37.5 22.826171875  37.5 18.75  L 31.249999999999996 18.75  L 31.249999999999996 15.05078125  C 34.8828125 13.759765625  37.5 10.326171875  37.5 6.25  L 31.249999999999996 6.25  L 31.249999999999996 3.125  C 31.249999999999996 1.3994140625  29.850585937500004 0  28.125000000000004 0  L 9.375 0  C 7.6494140625 0  6.25 1.3994140625  6.25 3.125  L 6.25 6.25  L 0 6.25  C 0 10.326171875  2.6171875 13.759765625  6.25 15.05078125  L 6.25 18.75  L 0 18.75  C 0 22.826171875  2.6171875 26.259765624999996  6.25 27.55078125  L 6.25 31.25  L 0 31.25  C 0 35.43359375  2.7587890625 38.9345703125  6.5419921875 40.1416015625  C 7.755859375 45.7734375  12.75390625 50  18.75 50  C 24.74609375 50  29.744140625 45.7734375  30.9580078125 40.1416015625  C 34.7412109375 38.9345703125  37.5 35.43359375  37.5 31.25  L 31.249999999999996 31.25  L 31.249999999999996 27.55078125  Z M 23.4375 35.9375  C 23.4375 38.5263671875  21.3388671875 40.625  18.75 40.625  C 16.1611328125 40.625  14.062500000000002 38.5263671875  14.062500000000002 35.9375  C 14.062500000000002 33.3486328125  16.1611328125 31.25  18.75 31.25  C 21.3388671875 31.25  23.4375 33.3486328125  23.4375 35.9375  Z M 23.4375 23.4375  C 23.4375 26.0263671875  21.3388671875 28.125  18.75 28.125  C 16.1611328125 28.125  14.062500000000002 26.0263671875  14.062500000000002 23.4375  C 14.062500000000002 20.8486328125  16.1611328125 18.75  18.75 18.75  C 21.3388671875 18.75  23.4375 20.8486328125  23.4375 23.4375  Z M 23.4375 10.9375  C 23.4375 13.5263671875  21.3388671875 15.625  18.75 15.625  C 16.1611328125 15.625  14.062500000000002 13.5263671875  14.062500000000002 10.9375  C 14.062500000000002 8.3486328125  16.1611328125 6.25  18.75 6.25  C 21.3388671875 6.25  23.4375 8.3486328125  23.4375 10.9375  Z " fill-rule="nonzero" fill="rgba(0, 0, 0, 1)" stroke="none" class="fill" />
    <path d="M 31.249999999999996 27.55078125  C 34.8828125 26.259765624999996  37.5 22.826171875  37.5 18.75  L 31.249999999999996 18.75  L 31.249999999999996 15.05078125  C 34.8828125 13.759765625  37.5 10.326171875  37.5 6.25  L 31.249999999999996 6.25  L 31.249999999999996 3.125  C 31.249999999999996 1.3994140625  29.850585937500004 0  28.125000000000004 0  L 9.375 0  C 7.6494140625 0  6.25 1.3994140625  6.25 3.125  L 6.25 6.25  L 0 6.25  C 0 10.326171875  2.6171875 13.759765625  6.25 15.05078125  L 6.25 18.75  L 0 18.75  C 0 22.826171875  2.6171875 26.259765624999996  6.25 27.55078125  L 6.25 31.25  L 0 31.25  C 0 35.43359375  2.7587890625 38.9345703125  6.5419921875 40.1416015625  C 7.755859375 45.7734375  12.75390625 50  18.75 50  C 24.74609375 50  29.744140625 45.7734375  30.9580078125 40.1416015625  C 34.7412109375 38.9345703125  37.5 35.43359375  37.5 31.25  L 31.249999999999996 31.25  L 31.249999999999996 27.55078125  Z " stroke-width="0" stroke-dasharray="0" stroke="rgba(255, 255, 255, 0)" fill="none" class="stroke" mask="url(#Clip2085)" />
    <path d="M 23.4375 35.9375  C 23.4375 38.5263671875  21.3388671875 40.625  18.75 40.625  C 16.1611328125 40.625  14.062500000000002 38.5263671875  14.062500000000002 35.9375  C 14.062500000000002 33.3486328125  16.1611328125 31.25  18.75 31.25  C 21.3388671875 31.25  23.4375 33.3486328125  23.4375 35.9375  Z " stroke-width="0" stroke-dasharray="0" stroke="rgba(255, 255, 255, 0)" fill="none" class="stroke" mask="url(#Clip2085)" />
    <path d="M 23.4375 23.4375  C 23.4375 26.0263671875  21.3388671875 28.125  18.75 28.125  C 16.1611328125 28.125  14.062500000000002 26.0263671875  14.062500000000002 23.4375  C 14.062500000000002 20.8486328125  16.1611328125 18.75  18.75 18.75  C 21.3388671875 18.75  23.4375 20.8486328125  23.4375 23.4375  Z " stroke-width="0" stroke-dasharray="0" stroke="rgba(255, 255, 255, 0)" fill="none" class="stroke" mask="url(#Clip2085)" />
    <path d="M 23.4375 10.9375  C 23.4375 13.5263671875  21.3388671875 15.625  18.75 15.625  C 16.1611328125 15.625  14.062500000000002 13.5263671875  14.062500000000002 10.9375  C 14.062500000000002 8.3486328125  16.1611328125 6.25  18.75 6.25  C 21.3388671875 6.25  23.4375 8.3486328125  23.4375 10.9375  Z " stroke-width="0" stroke-dasharray="0" stroke="rgba(255, 255, 255, 0)" fill="none" class="stroke" mask="url(#Clip2085)" />
  </g>
</svg>