<?xml version="1.0" encoding="utf-8"?>
<svg version="1.1" xmlns:xlink="http://www.w3.org/1999/xlink" width="4px" height="4px" xmlns="http://www.w3.org/2000/svg">
  <defs>
    <pattern id="BGPattern" patternUnits="userSpaceOnUse" alignment="0 0" imageRepeat="None" />
    <mask fill="white" id="Clip6527">
      <path d="M 3.5 2  C 3.5 2.82842712474619  2.82842712474619 3.5  2 3.5  C 1.1715728752538102 3.5  0.5 2.82842712474619  0.5 2  C 0.5 1.1715728752538102  1.1715728752538102 0.5  2 0.5  C 2.82842712474619 0.5  3.5 1.1715728752538102  3.5 2  Z " fill-rule="evenodd" />
    </mask>
  </defs>
  <g transform="matrix(1 0 0 1 -10 -10 )">
    <path d="M 3.5 2  C 3.5 2.82842712474619  2.82842712474619 3.5  2 3.5  C 1.1715728752538102 3.5  0.5 2.82842712474619  0.5 2  C 0.5 1.1715728752538102  1.1715728752538102 0.5  2 0.5  C 2.82842712474619 0.5  3.5 1.1715728752538102  3.5 2  Z " fill-rule="nonzero" fill="rgba(0, 0, 0, 1)" stroke="none" transform="matrix(1 0 0 1 10 10 )" class="fill" />
    <path d="M 3.5 2  C 3.5 2.82842712474619  2.82842712474619 3.5  2 3.5  C 1.1715728752538102 3.5  0.5 2.82842712474619  0.5 2  C 0.5 1.1715728752538102  1.1715728752538102 0.5  2 0.5  C 2.82842712474619 0.5  3.5 1.1715728752538102  3.5 2  Z " stroke-width="0" stroke-dasharray="0" stroke="rgba(255, 255, 255, 0)" fill="none" transform="matrix(1 0 0 1 10 10 )" class="stroke" mask="url(#Clip6527)" />
  </g>
</svg>