<?xml version="1.0" encoding="utf-8"?>
<svg version="1.1" xmlns:xlink="http://www.w3.org/1999/xlink" width="9px" height="7px" xmlns="http://www.w3.org/2000/svg">
  <defs>
    <pattern id="BGPattern" patternUnits="userSpaceOnUse" alignment="0 0" imageRepeat="None" />
    <mask fill="white" id="Clip5152">
      <path d="M 3.7810000000000006 6.281000000000002  L 8.280999999999999 1.7810000000000006  C 8.421829956104794 1.6401700438952034  8.500947401620117 1.4491636339118124  8.500947401620117 1.25  C 8.500947401620117 0.8352632021601494  8.16473679783985 0.4990525983798868  7.75 0.4990525983798868  C 7.550836366088188 0.4990525983798868  7.359829956104797 0.5781700438952022  7.218999999999998 0.7189999999999994  L 3.25 4.689499999999999  L 1.5310000000000006 2.969000000000001  C 1.3901700438952034 2.828170043895204  1.1991636339118124 2.749052598379885  1 2.749052598379885  C 0.5852632021601494 2.749052598379885  0.2490525983798868 3.085263202160151  0.2490525983798868 3.5  C 0.2490525983798868 3.6991636339118124  0.3281700438952022 3.8901700438952034  0.4689999999999994 4.031000000000002  L 2.7189999999999994 6.281000000000002  C 2.85970639451525 6.422062551031452  3.0507591087126382 6.50134067552813  3.25 6.50134067552813  C 3.4492408912873618 6.50134067552813  3.64029360548475 6.422062551031452  3.7810000000000006 6.281000000000002  Z " fill-rule="evenodd" />
    </mask>
  </defs>
  <g transform="matrix(1 0 0 1 -5 -10 )">
    <path d="M 3.7810000000000006 6.281000000000002  L 8.280999999999999 1.7810000000000006  C 8.421829956104794 1.6401700438952034  8.500947401620117 1.4491636339118124  8.500947401620117 1.25  C 8.500947401620117 0.8352632021601494  8.16473679783985 0.4990525983798868  7.75 0.4990525983798868  C 7.550836366088188 0.4990525983798868  7.359829956104797 0.5781700438952022  7.218999999999998 0.7189999999999994  L 3.25 4.689499999999999  L 1.5310000000000006 2.969000000000001  C 1.3901700438952034 2.828170043895204  1.1991636339118124 2.749052598379885  1 2.749052598379885  C 0.5852632021601494 2.749052598379885  0.2490525983798868 3.085263202160151  0.2490525983798868 3.5  C 0.2490525983798868 3.6991636339118124  0.3281700438952022 3.8901700438952034  0.4689999999999994 4.031000000000002  L 2.7189999999999994 6.281000000000002  C 2.85970639451525 6.422062551031452  3.0507591087126382 6.50134067552813  3.25 6.50134067552813  C 3.4492408912873618 6.50134067552813  3.64029360548475 6.422062551031452  3.7810000000000006 6.281000000000002  Z " fill-rule="nonzero" fill="rgba(0, 0, 0, 1)" stroke="none" transform="matrix(1 0 0 1 5 10 )" class="fill" />
    <path d="M 3.7810000000000006 6.281000000000002  L 8.280999999999999 1.7810000000000006  C 8.421829956104794 1.6401700438952034  8.500947401620117 1.4491636339118124  8.500947401620117 1.25  C 8.500947401620117 0.8352632021601494  8.16473679783985 0.4990525983798868  7.75 0.4990525983798868  C 7.550836366088188 0.4990525983798868  7.359829956104797 0.5781700438952022  7.218999999999998 0.7189999999999994  L 3.25 4.689499999999999  L 1.5310000000000006 2.969000000000001  C 1.3901700438952034 2.828170043895204  1.1991636339118124 2.749052598379885  1 2.749052598379885  C 0.5852632021601494 2.749052598379885  0.2490525983798868 3.085263202160151  0.2490525983798868 3.5  C 0.2490525983798868 3.6991636339118124  0.3281700438952022 3.8901700438952034  0.4689999999999994 4.031000000000002  L 2.7189999999999994 6.281000000000002  C 2.85970639451525 6.422062551031452  3.0507591087126382 6.50134067552813  3.25 6.50134067552813  C 3.4492408912873618 6.50134067552813  3.64029360548475 6.422062551031452  3.7810000000000006 6.281000000000002  Z " stroke-width="0" stroke-dasharray="0" stroke="rgba(255, 255, 255, 0)" fill="none" transform="matrix(1 0 0 1 5 10 )" class="stroke" mask="url(#Clip5152)" />
  </g>
</svg>