<?xml version="1.0" encoding="utf-8"?>
<svg version="1.1" xmlns:xlink="http://www.w3.org/1999/xlink" width="10px" height="7px" xmlns="http://www.w3.org/2000/svg">
  <defs>
    <pattern id="BGPattern" patternUnits="userSpaceOnUse" alignment="0 0" imageRepeat="None" />
    <mask fill="white" id="Clip5057">
      <path d="M 8.5 0.24865932447187156  C 8.69924089128736 0.24865932447187156  8.89029360548475 0.32793744896854626  9.030999999999999 0.4689999999999994  C 9.172062551031452 0.6097063945152499  9.251340675528127 0.8007591087126382  9.251340675528127 1  C 9.251340675528127 1.1992408912873618  9.172062551031452 1.3902936054847501  9.030999999999999 1.5310000000000006  L 4.530999999999999 6.030999999999999  C 4.390293605484748 6.172062551031452  4.19924089128736 6.251340675528127  3.9999999999999982 6.251340675528127  C 3.8007591087126364 6.251340675528127  3.60970639451525 6.172062551031452  3.4689999999999976 6.030999999999999  L 1.2189999999999976 3.7809999999999984  C 1.0781700438952004 3.6401700438952  0.999052598379885 3.4491636339118124  0.999052598379885 3.2499999999999982  C 0.999052598379885 2.8352632021601494  1.3352632021601494 2.499052598379885  1.7499999999999982 2.499052598379885  C 1.9491636339118124 2.499052598379885  2.1401700438952 2.5781700438952004  2.280999999999999 2.7189999999999976  L 4 4.439499999999999  L 7.969000000000001 0.4689999999999976  C 8.10970639451525 0.32793744896854804  8.30075910871264 0.24865932447187156  8.5 0.24865932447187156  Z " fill-rule="evenodd" />
    </mask>
  </defs>
  <g transform="matrix(1 0 0 1 -8 -7 )">
    <path d="M 8.5 0.24865932447187156  C 8.69924089128736 0.24865932447187156  8.89029360548475 0.32793744896854626  9.030999999999999 0.4689999999999994  C 9.172062551031452 0.6097063945152499  9.251340675528127 0.8007591087126382  9.251340675528127 1  C 9.251340675528127 1.1992408912873618  9.172062551031452 1.3902936054847501  9.030999999999999 1.5310000000000006  L 4.530999999999999 6.030999999999999  C 4.390293605484748 6.172062551031452  4.19924089128736 6.251340675528127  3.9999999999999982 6.251340675528127  C 3.8007591087126364 6.251340675528127  3.60970639451525 6.172062551031452  3.4689999999999976 6.030999999999999  L 1.2189999999999976 3.7809999999999984  C 1.0781700438952004 3.6401700438952  0.999052598379885 3.4491636339118124  0.999052598379885 3.2499999999999982  C 0.999052598379885 2.8352632021601494  1.3352632021601494 2.499052598379885  1.7499999999999982 2.499052598379885  C 1.9491636339118124 2.499052598379885  2.1401700438952 2.5781700438952004  2.280999999999999 2.7189999999999976  L 4 4.439499999999999  L 7.969000000000001 0.4689999999999976  C 8.10970639451525 0.32793744896854804  8.30075910871264 0.24865932447187156  8.5 0.24865932447187156  Z " fill-rule="nonzero" fill="rgba(0, 0, 0, 1)" stroke="none" transform="matrix(1 0 0 1 8 7 )" class="fill" />
    <path d="M 8.5 0.24865932447187156  C 8.69924089128736 0.24865932447187156  8.89029360548475 0.32793744896854626  9.030999999999999 0.4689999999999994  C 9.172062551031452 0.6097063945152499  9.251340675528127 0.8007591087126382  9.251340675528127 1  C 9.251340675528127 1.1992408912873618  9.172062551031452 1.3902936054847501  9.030999999999999 1.5310000000000006  L 4.530999999999999 6.030999999999999  C 4.390293605484748 6.172062551031452  4.19924089128736 6.251340675528127  3.9999999999999982 6.251340675528127  C 3.8007591087126364 6.251340675528127  3.60970639451525 6.172062551031452  3.4689999999999976 6.030999999999999  L 1.2189999999999976 3.7809999999999984  C 1.0781700438952004 3.6401700438952  0.999052598379885 3.4491636339118124  0.999052598379885 3.2499999999999982  C 0.999052598379885 2.8352632021601494  1.3352632021601494 2.499052598379885  1.7499999999999982 2.499052598379885  C 1.9491636339118124 2.499052598379885  2.1401700438952 2.5781700438952004  2.280999999999999 2.7189999999999976  L 4 4.439499999999999  L 7.969000000000001 0.4689999999999976  C 8.10970639451525 0.32793744896854804  8.30075910871264 0.24865932447187156  8.5 0.24865932447187156  Z " stroke-width="0" stroke-dasharray="0" stroke="rgba(255, 255, 255, 0)" fill="none" transform="matrix(1 0 0 1 8 7 )" class="stroke" mask="url(#Clip5057)" />
  </g>
</svg>