<?xml version="1.0" encoding="utf-8"?>
<svg version="1.1" xmlns:xlink="http://www.w3.org/1999/xlink" width="50px" height="50px" xmlns="http://www.w3.org/2000/svg">
  <defs>
    <pattern id="BGPattern" patternUnits="userSpaceOnUse" alignment="0 0" imageRepeat="None" />
    <mask fill="white" id="Clip1306">
      <path d="M 41.34765625 6.982421875  L 43.017578125 8.642578125  L 37.939453125 13.720703125  L 40.52734375 16.30859375  C 41.4453125 17.2265625  41.4453125 18.7109375  40.52734375 19.619140625  L 38.828125 21.318359375  C 39.98046875 23.8671875  40.625 26.699218749999996  40.625 29.677734374999996  C 40.625 40.8984375  31.533203124999996 49.990234375  20.3125 49.990234375  C 9.091796875 49.990234375  0 40.908203125  0 29.6875  C 0 18.466796875  9.091796875 9.375  20.3125 9.375  C 23.291015625 9.375  26.123046875 10.01953125  28.671875000000004 11.171875  L 30.37109375 9.47265625  C 31.289062499999996 8.5546875  32.7734375 8.5546875  33.681640625 9.47265625  L 36.26953125 12.060546875  L 41.34765625 6.982421875  Z M 50 7.03125  C 50 6.386718750000001  49.47265625 5.859375  48.828125 5.859375  L 46.484375 5.859375  C 45.83984375 5.859375  45.3125 6.386718750000001  45.3125 7.03125  C 45.3125 7.675781249999999  45.83984375 8.203125  46.484375 8.203125  L 48.828125 8.203125  C 49.47265625 8.203125  50 7.675781249999999  50 7.03125  Z M 44.140625 1.171875  C 44.140625 0.52734375  43.61328125 0  42.96875 0  C 42.32421875 0  41.796875 0.52734375  41.796875 1.171875  L 41.796875 3.515625  C 41.796875 4.16015625  42.32421875 4.6875  42.96875 4.6875  C 43.61328125 4.6875  44.140625 4.16015625  44.140625 3.515625  L 44.140625 1.171875  Z M 44.619140625 5.37109375  C 45.087890625 5.830078125  45.830078125 5.830078125  46.279296875 5.37109375  L 47.939453125 3.7109375  C 48.3984375 3.2519531249999996  48.3984375 2.509765625  47.939453125 2.05078125  C 47.48046875 1.591796875  46.73828125 1.591796875  46.279296875 2.05078125  L 44.619140625 3.7109375  C 44.16015625 4.169921875  44.16015625 4.912109375  44.619140625 5.37109375  Z M 37.998046875 3.7109375  L 39.658203125 5.37109375  C 40.1171875 5.830078125  40.859375 5.830078125  41.318359375 5.37109375  C 41.77734375 4.912109375  41.77734375 4.169921875  41.318359375 3.7109375  L 39.658203125 2.05078125  C 39.19921875 1.591796875  38.45703125 1.591796875  37.998046875 2.05078125  C 37.5390625 2.509765625  37.5390625 3.2519531249999996  37.998046875 3.7109375  Z M 47.939453125 10.3515625  L 46.279296875 8.69140625  C 45.8203125 8.232421875  45.078125 8.232421875  44.619140625 8.69140625  C 44.16015625 9.150390625  44.16015625 9.892578125  44.619140625 10.3515625  L 46.279296875 12.01171875  C 46.73828125 12.470703125  47.48046875 12.470703125  47.939453125 12.01171875  C 48.3984375 11.552734375  48.3984375 10.810546875  47.939453125 10.3515625  Z M 9.375 28.125  C 10.234375 28.125  10.9375 27.421875  10.9375 26.5625  C 10.9375 23.115234375  13.740234374999998 20.3125  17.1875 20.3125  C 18.046875 20.3125  18.75 19.609375  18.75 18.75  C 18.75 17.890625  18.046875 17.1875  17.1875 17.1875  C 12.021484375 17.1875  7.8125 21.396484375  7.8125 26.5625  C 7.8125 27.421875  8.515625 28.125  9.375 28.125  Z " fill-rule="evenodd" />
    </mask>
  </defs>
  <g>
    <path d="M 41.34765625 6.982421875  L 43.017578125 8.642578125  L 37.939453125 13.720703125  L 40.52734375 16.30859375  C 41.4453125 17.2265625  41.4453125 18.7109375  40.52734375 19.619140625  L 38.828125 21.318359375  C 39.98046875 23.8671875  40.625 26.699218749999996  40.625 29.677734374999996  C 40.625 40.8984375  31.533203124999996 49.990234375  20.3125 49.990234375  C 9.091796875 49.990234375  0 40.908203125  0 29.6875  C 0 18.466796875  9.091796875 9.375  20.3125 9.375  C 23.291015625 9.375  26.123046875 10.01953125  28.671875000000004 11.171875  L 30.37109375 9.47265625  C 31.289062499999996 8.5546875  32.7734375 8.5546875  33.681640625 9.47265625  L 36.26953125 12.060546875  L 41.34765625 6.982421875  Z M 50 7.03125  C 50 6.386718750000001  49.47265625 5.859375  48.828125 5.859375  L 46.484375 5.859375  C 45.83984375 5.859375  45.3125 6.386718750000001  45.3125 7.03125  C 45.3125 7.675781249999999  45.83984375 8.203125  46.484375 8.203125  L 48.828125 8.203125  C 49.47265625 8.203125  50 7.675781249999999  50 7.03125  Z M 44.140625 1.171875  C 44.140625 0.52734375  43.61328125 0  42.96875 0  C 42.32421875 0  41.796875 0.52734375  41.796875 1.171875  L 41.796875 3.515625  C 41.796875 4.16015625  42.32421875 4.6875  42.96875 4.6875  C 43.61328125 4.6875  44.140625 4.16015625  44.140625 3.515625  L 44.140625 1.171875  Z M 44.619140625 5.37109375  C 45.087890625 5.830078125  45.830078125 5.830078125  46.279296875 5.37109375  L 47.939453125 3.7109375  C 48.3984375 3.2519531249999996  48.3984375 2.509765625  47.939453125 2.05078125  C 47.48046875 1.591796875  46.73828125 1.591796875  46.279296875 2.05078125  L 44.619140625 3.7109375  C 44.16015625 4.169921875  44.16015625 4.912109375  44.619140625 5.37109375  Z M 37.998046875 3.7109375  L 39.658203125 5.37109375  C 40.1171875 5.830078125  40.859375 5.830078125  41.318359375 5.37109375  C 41.77734375 4.912109375  41.77734375 4.169921875  41.318359375 3.7109375  L 39.658203125 2.05078125  C 39.19921875 1.591796875  38.45703125 1.591796875  37.998046875 2.05078125  C 37.5390625 2.509765625  37.5390625 3.2519531249999996  37.998046875 3.7109375  Z M 47.939453125 10.3515625  L 46.279296875 8.69140625  C 45.8203125 8.232421875  45.078125 8.232421875  44.619140625 8.69140625  C 44.16015625 9.150390625  44.16015625 9.892578125  44.619140625 10.3515625  L 46.279296875 12.01171875  C 46.73828125 12.470703125  47.48046875 12.470703125  47.939453125 12.01171875  C 48.3984375 11.552734375  48.3984375 10.810546875  47.939453125 10.3515625  Z M 9.375 28.125  C 10.234375 28.125  10.9375 27.421875  10.9375 26.5625  C 10.9375 23.115234375  13.740234374999998 20.3125  17.1875 20.3125  C 18.046875 20.3125  18.75 19.609375  18.75 18.75  C 18.75 17.890625  18.046875 17.1875  17.1875 17.1875  C 12.021484375 17.1875  7.8125 21.396484375  7.8125 26.5625  C 7.8125 27.421875  8.515625 28.125  9.375 28.125  Z " fill-rule="nonzero" fill="rgba(0, 0, 0, 1)" stroke="none" class="fill" />
    <path d="M 41.34765625 6.982421875  L 43.017578125 8.642578125  L 37.939453125 13.720703125  L 40.52734375 16.30859375  C 41.4453125 17.2265625  41.4453125 18.7109375  40.52734375 19.619140625  L 38.828125 21.318359375  C 39.98046875 23.8671875  40.625 26.699218749999996  40.625 29.677734374999996  C 40.625 40.8984375  31.533203124999996 49.990234375  20.3125 49.990234375  C 9.091796875 49.990234375  0 40.908203125  0 29.6875  C 0 18.466796875  9.091796875 9.375  20.3125 9.375  C 23.291015625 9.375  26.123046875 10.01953125  28.671875000000004 11.171875  L 30.37109375 9.47265625  C 31.289062499999996 8.5546875  32.7734375 8.5546875  33.681640625 9.47265625  L 36.26953125 12.060546875  L 41.34765625 6.982421875  Z " stroke-width="0" stroke-dasharray="0" stroke="rgba(255, 255, 255, 0)" fill="none" class="stroke" mask="url(#Clip1306)" />
    <path d="M 50 7.03125  C 50 6.386718750000001  49.47265625 5.859375  48.828125 5.859375  L 46.484375 5.859375  C 45.83984375 5.859375  45.3125 6.386718750000001  45.3125 7.03125  C 45.3125 7.675781249999999  45.83984375 8.203125  46.484375 8.203125  L 48.828125 8.203125  C 49.47265625 8.203125  50 7.675781249999999  50 7.03125  Z " stroke-width="0" stroke-dasharray="0" stroke="rgba(255, 255, 255, 0)" fill="none" class="stroke" mask="url(#Clip1306)" />
    <path d="M 44.140625 1.171875  C 44.140625 0.52734375  43.61328125 0  42.96875 0  C 42.32421875 0  41.796875 0.52734375  41.796875 1.171875  L 41.796875 3.515625  C 41.796875 4.16015625  42.32421875 4.6875  42.96875 4.6875  C 43.61328125 4.6875  44.140625 4.16015625  44.140625 3.515625  L 44.140625 1.171875  Z " stroke-width="0" stroke-dasharray="0" stroke="rgba(255, 255, 255, 0)" fill="none" class="stroke" mask="url(#Clip1306)" />
    <path d="M 44.619140625 5.37109375  C 45.087890625 5.830078125  45.830078125 5.830078125  46.279296875 5.37109375  L 47.939453125 3.7109375  C 48.3984375 3.2519531249999996  48.3984375 2.509765625  47.939453125 2.05078125  C 47.48046875 1.591796875  46.73828125 1.591796875  46.279296875 2.05078125  L 44.619140625 3.7109375  C 44.16015625 4.169921875  44.16015625 4.912109375  44.619140625 5.37109375  Z " stroke-width="0" stroke-dasharray="0" stroke="rgba(255, 255, 255, 0)" fill="none" class="stroke" mask="url(#Clip1306)" />
    <path d="M 37.998046875 3.7109375  L 39.658203125 5.37109375  C 40.1171875 5.830078125  40.859375 5.830078125  41.318359375 5.37109375  C 41.77734375 4.912109375  41.77734375 4.169921875  41.318359375 3.7109375  L 39.658203125 2.05078125  C 39.19921875 1.591796875  38.45703125 1.591796875  37.998046875 2.05078125  C 37.5390625 2.509765625  37.5390625 3.2519531249999996  37.998046875 3.7109375  Z " stroke-width="0" stroke-dasharray="0" stroke="rgba(255, 255, 255, 0)" fill="none" class="stroke" mask="url(#Clip1306)" />
    <path d="M 47.939453125 10.3515625  L 46.279296875 8.69140625  C 45.8203125 8.232421875  45.078125 8.232421875  44.619140625 8.69140625  C 44.16015625 9.150390625  44.16015625 9.892578125  44.619140625 10.3515625  L 46.279296875 12.01171875  C 46.73828125 12.470703125  47.48046875 12.470703125  47.939453125 12.01171875  C 48.3984375 11.552734375  48.3984375 10.810546875  47.939453125 10.3515625  Z " stroke-width="0" stroke-dasharray="0" stroke="rgba(255, 255, 255, 0)" fill="none" class="stroke" mask="url(#Clip1306)" />
    <path d="M 9.375 28.125  C 10.234375 28.125  10.9375 27.421875  10.9375 26.5625  C 10.9375 23.115234375  13.740234374999998 20.3125  17.1875 20.3125  C 18.046875 20.3125  18.75 19.609375  18.75 18.75  C 18.75 17.890625  18.046875 17.1875  17.1875 17.1875  C 12.021484375 17.1875  7.8125 21.396484375  7.8125 26.5625  C 7.8125 27.421875  8.515625 28.125  9.375 28.125  Z " stroke-width="0" stroke-dasharray="0" stroke="rgba(255, 255, 255, 0)" fill="none" class="stroke" mask="url(#Clip1306)" />
  </g>
</svg>