<?xml version="1.0" encoding="utf-8"?>
<svg version="1.1" xmlns:xlink="http://www.w3.org/1999/xlink" width="27px" height="20px" xmlns="http://www.w3.org/2000/svg">
  <defs>
    <pattern id="BGPattern" patternUnits="userSpaceOnUse" alignment="0 0" imageRepeat="None" />
    <mask fill="white" id="Clip4148">
      <path d="M 27 8.999999999999998  C 26.998181288863563 7.343899670318459  25.65610032968154 6.001818711136439  24 6.000000000000002  L 15.4683 6.000000000000002  L 10.4683 0  L 2.999999999999999 0  C 1.3438996703184594 0.0018187111364351694  0.001818711136433837 1.3438996703184625  0 3.0000000000000018  L 0 9.000000000000002  C 0.0012674655592963546 10.104044072055093  0.8959559279449092 10.998732534440707  2 11  L 2 18  C 2.0012674655592964 19.10404407205509  2.895955927944909 19.998732534440705  4 20  L 8 20  C 9.10404407205509 19.998732534440705  9.998732534440702 19.10404407205509  10 18  L 10 11  L 8 11  L 8 18  L 4 18  L 4 9.000000000000002  L 2 9.000000000000002  L 2 3.0000000000000018  C 2.000496201605972 2.44792091422846  2.447920914228458 2.0004962016059746  3 2.0000000000000018  L 9.5317 2.0000000000000018  L 14.531699999999999 8.000000000000002  L 24 8.000000000000002  C 24.55207908577154 8.000496201605971  24.999503798394024 8.44792091422846  25 9.000000000000002  L 25 12.000000000000002  L 23 12.000000000000002  L 23 18  L 20 18  L 20 12.000000000000002  L 18 12.000000000000002  L 18 18  C 18.001267465559298 19.10404407205509  18.89595592794491 19.998732534440705  20 20  L 23 20  C 24.10404407205509 19.998732534440705  24.998732534440702 19.10404407205509  25 18  L 25 14.000000000000002  C 26.10404407205509 13.998732534440704  26.998732534440702 13.104044072055094  27 12.000000000000002  L 27 8.999999999999998  Z " fill-rule="evenodd" />
    </mask>
  </defs>
  <g transform="matrix(1 0 0 1 -2 -10 )">
    <path d="M 27 8.999999999999998  C 26.998181288863563 7.343899670318459  25.65610032968154 6.001818711136439  24 6.000000000000002  L 15.4683 6.000000000000002  L 10.4683 0  L 2.999999999999999 0  C 1.3438996703184594 0.0018187111364351694  0.001818711136433837 1.3438996703184625  0 3.0000000000000018  L 0 9.000000000000002  C 0.0012674655592963546 10.104044072055093  0.8959559279449092 10.998732534440707  2 11  L 2 18  C 2.0012674655592964 19.10404407205509  2.895955927944909 19.998732534440705  4 20  L 8 20  C 9.10404407205509 19.998732534440705  9.998732534440702 19.10404407205509  10 18  L 10 11  L 8 11  L 8 18  L 4 18  L 4 9.000000000000002  L 2 9.000000000000002  L 2 3.0000000000000018  C 2.000496201605972 2.44792091422846  2.447920914228458 2.0004962016059746  3 2.0000000000000018  L 9.5317 2.0000000000000018  L 14.531699999999999 8.000000000000002  L 24 8.000000000000002  C 24.55207908577154 8.000496201605971  24.999503798394024 8.44792091422846  25 9.000000000000002  L 25 12.000000000000002  L 23 12.000000000000002  L 23 18  L 20 18  L 20 12.000000000000002  L 18 12.000000000000002  L 18 18  C 18.001267465559298 19.10404407205509  18.89595592794491 19.998732534440705  20 20  L 23 20  C 24.10404407205509 19.998732534440705  24.998732534440702 19.10404407205509  25 18  L 25 14.000000000000002  C 26.10404407205509 13.998732534440704  26.998732534440702 13.104044072055094  27 12.000000000000002  L 27 8.999999999999998  Z " fill-rule="nonzero" fill="rgba(0, 0, 0, 1)" stroke="none" transform="matrix(1 0 0 1 2 10 )" class="fill" />
    <path d="M 27 8.999999999999998  C 26.998181288863563 7.343899670318459  25.65610032968154 6.001818711136439  24 6.000000000000002  L 15.4683 6.000000000000002  L 10.4683 0  L 2.999999999999999 0  C 1.3438996703184594 0.0018187111364351694  0.001818711136433837 1.3438996703184625  0 3.0000000000000018  L 0 9.000000000000002  C 0.0012674655592963546 10.104044072055093  0.8959559279449092 10.998732534440707  2 11  L 2 18  C 2.0012674655592964 19.10404407205509  2.895955927944909 19.998732534440705  4 20  L 8 20  C 9.10404407205509 19.998732534440705  9.998732534440702 19.10404407205509  10 18  L 10 11  L 8 11  L 8 18  L 4 18  L 4 9.000000000000002  L 2 9.000000000000002  L 2 3.0000000000000018  C 2.000496201605972 2.44792091422846  2.447920914228458 2.0004962016059746  3 2.0000000000000018  L 9.5317 2.0000000000000018  L 14.531699999999999 8.000000000000002  L 24 8.000000000000002  C 24.55207908577154 8.000496201605971  24.999503798394024 8.44792091422846  25 9.000000000000002  L 25 12.000000000000002  L 23 12.000000000000002  L 23 18  L 20 18  L 20 12.000000000000002  L 18 12.000000000000002  L 18 18  C 18.001267465559298 19.10404407205509  18.89595592794491 19.998732534440705  20 20  L 23 20  C 24.10404407205509 19.998732534440705  24.998732534440702 19.10404407205509  25 18  L 25 14.000000000000002  C 26.10404407205509 13.998732534440704  26.998732534440702 13.104044072055094  27 12.000000000000002  L 27 8.999999999999998  Z " stroke-width="0" stroke-dasharray="0" stroke="rgba(255, 255, 255, 0)" fill="none" transform="matrix(1 0 0 1 2 10 )" class="stroke" mask="url(#Clip4148)" />
  </g>
</svg>