<?xml version="1.0" encoding="utf-8"?>
<svg version="1.1" xmlns:xlink="http://www.w3.org/1999/xlink" width="7px" height="7px" xmlns="http://www.w3.org/2000/svg">
  <defs>
    <pattern id="BGPattern" patternUnits="userSpaceOnUse" alignment="0 0" imageRepeat="None" />
    <mask fill="white" id="Clip4149">
      <path d="M 7 3.5  C 6.997685718565794 5.432037205706692  5.432037205706692 6.997685718565794  3.4999999999999982 7  C 1.5670033755922246 7  0 5.432996624407776  0 3.5  C 0 1.5670033755922237  1.5670033755922246 0  3.4999999999999982 0  C 5.432996624407775 0  6.9999999999999964 1.5670033755922237  6.9999999999999964 3.5  Z M 5.000000000000001 3.5  C 4.999063147823002 2.671961242587887  4.328038757412111 2.000936852176995  3.5000000000000018 2  C 2.6715728752538106 2  1.9999999999999991 2.6715728752538084  1.9999999999999991 3.5  C 1.9999999999999991 4.328427124746188  2.6715728752538106 5  3.4999999999999982 5  C 4.328427124746185 5  4.999999999999998 4.328427124746188  4.999999999999998 3.5  Z " fill-rule="evenodd" />
    </mask>
  </defs>
  <g transform="matrix(1 0 0 1 -20 -8 )">
    <path d="M 7 3.5  C 6.997685718565794 5.432037205706692  5.432037205706692 6.997685718565794  3.4999999999999982 7  C 1.5670033755922246 7  0 5.432996624407776  0 3.5  C 0 1.5670033755922237  1.5670033755922246 0  3.4999999999999982 0  C 5.432996624407775 0  6.9999999999999964 1.5670033755922237  6.9999999999999964 3.5  Z M 5.000000000000001 3.5  C 4.999063147823002 2.671961242587887  4.328038757412111 2.000936852176995  3.5000000000000018 2  C 2.6715728752538106 2  1.9999999999999991 2.6715728752538084  1.9999999999999991 3.5  C 1.9999999999999991 4.328427124746188  2.6715728752538106 5  3.4999999999999982 5  C 4.328427124746185 5  4.999999999999998 4.328427124746188  4.999999999999998 3.5  Z " fill-rule="nonzero" fill="rgba(0, 0, 0, 1)" stroke="none" transform="matrix(1 0 0 1 20 8 )" class="fill" />
    <path d="M 7 3.5  C 6.997685718565794 5.432037205706692  5.432037205706692 6.997685718565794  3.4999999999999982 7  C 1.5670033755922246 7  0 5.432996624407776  0 3.5  C 0 1.5670033755922237  1.5670033755922246 0  3.4999999999999982 0  C 5.432996624407775 0  6.9999999999999964 1.5670033755922237  6.9999999999999964 3.5  Z " stroke-width="0" stroke-dasharray="0" stroke="rgba(255, 255, 255, 0)" fill="none" transform="matrix(1 0 0 1 20 8 )" class="stroke" mask="url(#Clip4149)" />
    <path d="M 5.000000000000001 3.5  C 4.999063147823002 2.671961242587887  4.328038757412111 2.000936852176995  3.5000000000000018 2  C 2.6715728752538106 2  1.9999999999999991 2.6715728752538084  1.9999999999999991 3.5  C 1.9999999999999991 4.328427124746188  2.6715728752538106 5  3.4999999999999982 5  C 4.328427124746185 5  4.999999999999998 4.328427124746188  4.999999999999998 3.5  Z " stroke-width="0" stroke-dasharray="0" stroke="rgba(255, 255, 255, 0)" fill="none" transform="matrix(1 0 0 1 20 8 )" class="stroke" mask="url(#Clip4149)" />
  </g>
</svg>