<?xml version="1.0" encoding="utf-8"?>
<svg version="1.1" xmlns:xlink="http://www.w3.org/1999/xlink" width="56px" height="44px" xmlns="http://www.w3.org/2000/svg">
  <defs>
    <pattern id="BGPattern" patternUnits="userSpaceOnUse" alignment="0 0" imageRepeat="None" />
    <mask fill="white" id="Clip2355">
      <path d="M 56 6  C 56 4.893750000000001  55.10625 4  54 4  L 44 4  L 44 0.5  C 44 0.22499999999999964  43.775 0  43.5 0  L 40 0  C 39.725 0  39.5 0.22499999999999964  39.5 0.5  L 39.5 4  L 30.25 4  L 30.25 0.5  C 30.25 0.22499999999999964  30.024999999999995 0  29.75 0  L 26.25 0  C 25.975 0  25.75 0.22499999999999964  25.75 0.5  L 25.75 4  L 16.5 4  L 16.5 0.5  C 16.5 0.22499999999999964  16.275 0  16 0  L 12.5 0  C 12.225000000000001 0  12 0.22499999999999964  12 0.5  L 12 4  L 2 4  C 0.8937499999999997 4  0 4.893750000000001  0 6  L 0 42  C 0 43.10625  0.8937499999999997 44  2 44  L 54 44  C 55.10625 44  56 43.10625  56 42  L 56 6  Z M 22.5 29.999999999999996  L 22.5 33  C 22.5 33.275  22.275 33.5  22 33  L 10.5 33  C 10.225 33.5  10 33.275  10 33  L 10 29.999999999999996  C 10 29.725000000000005  10.225 29.5  10.5 29  L 22 29  C 22.275 29.5  22.5 29.725000000000005  22.5 29.999999999999996  Z M 22.5 21.5  L 22.5 24.499999999999996  C 22.5 24.775  22.275 25.000000000000004  22 25  L 10.5 25  C 10.225 25.000000000000004  10 24.775  10 24.499999999999996  L 10 21.5  C 10 21.225  10.225 21  10.5 21  L 22 21  C 22.275 21  22.5 21.225  22.5 21.5  Z M 45.5 17.993750000000002  C 45.90625 18.000000000000004  46.14375 18.462500000000002  45.90625 18.79375  L 35.59374999999999 33.0875  C 35.40698069046998 33.34670200243228  35.106981537881644 33.50030249806888  34.787499999999994 33.50030249806888  C 34.46801846211834 33.50030249806888  34.16801930953002 33.34670200243228  33.98125 33.0875  L 26.84375 23.200000000000003  C 26.60625 22.868750000000006  26.84375 22.40625  27.25 22.40625  L 30.681249999999995 22.40625  C 31 22.40625  31.299999999999994 22.5625  31.487499999999997 22.81875  L 34.787499999999994 27.387500000000003  L 41.26875 18.406250000000004  C 41.45625 18.143750000000004  41.756249999999994 17.993750000000002  42.074999999999996 17.993750000000002  L 45.5 17.993750000000002  Z " fill-rule="evenodd" />
    </mask>
  </defs>
  <g>
    <path d="M 56 6  C 56 4.893750000000001  55.10625 4  54 4  L 44 4  L 44 0.5  C 44 0.22499999999999964  43.775 0  43.5 0  L 40 0  C 39.725 0  39.5 0.22499999999999964  39.5 0.5  L 39.5 4  L 30.25 4  L 30.25 0.5  C 30.25 0.22499999999999964  30.024999999999995 0  29.75 0  L 26.25 0  C 25.975 0  25.75 0.22499999999999964  25.75 0.5  L 25.75 4  L 16.5 4  L 16.5 0.5  C 16.5 0.22499999999999964  16.275 0  16 0  L 12.5 0  C 12.225000000000001 0  12 0.22499999999999964  12 0.5  L 12 4  L 2 4  C 0.8937499999999997 4  0 4.893750000000001  0 6  L 0 42  C 0 43.10625  0.8937499999999997 44  2 44  L 54 44  C 55.10625 44  56 43.10625  56 42  L 56 6  Z M 22.5 29.999999999999996  L 22.5 33  C 22.5 33.275  22.275 33.5  22 33  L 10.5 33  C 10.225 33.5  10 33.275  10 33  L 10 29.999999999999996  C 10 29.725000000000005  10.225 29.5  10.5 29  L 22 29  C 22.275 29.5  22.5 29.725000000000005  22.5 29.999999999999996  Z M 22.5 21.5  L 22.5 24.499999999999996  C 22.5 24.775  22.275 25.000000000000004  22 25  L 10.5 25  C 10.225 25.000000000000004  10 24.775  10 24.499999999999996  L 10 21.5  C 10 21.225  10.225 21  10.5 21  L 22 21  C 22.275 21  22.5 21.225  22.5 21.5  Z M 45.5 17.993750000000002  C 45.90625 18.000000000000004  46.14375 18.462500000000002  45.90625 18.79375  L 35.59374999999999 33.0875  C 35.40698069046998 33.34670200243228  35.106981537881644 33.50030249806888  34.787499999999994 33.50030249806888  C 34.46801846211834 33.50030249806888  34.16801930953002 33.34670200243228  33.98125 33.0875  L 26.84375 23.200000000000003  C 26.60625 22.868750000000006  26.84375 22.40625  27.25 22.40625  L 30.681249999999995 22.40625  C 31 22.40625  31.299999999999994 22.5625  31.487499999999997 22.81875  L 34.787499999999994 27.387500000000003  L 41.26875 18.406250000000004  C 41.45625 18.143750000000004  41.756249999999994 17.993750000000002  42.074999999999996 17.993750000000002  L 45.5 17.993750000000002  Z " fill-rule="nonzero" fill="rgba(0, 0, 0, 1)" stroke="none" class="fill" />
    <path d="M 56 6  C 56 4.893750000000001  55.10625 4  54 4  L 44 4  L 44 0.5  C 44 0.22499999999999964  43.775 0  43.5 0  L 40 0  C 39.725 0  39.5 0.22499999999999964  39.5 0.5  L 39.5 4  L 30.25 4  L 30.25 0.5  C 30.25 0.22499999999999964  30.024999999999995 0  29.75 0  L 26.25 0  C 25.975 0  25.75 0.22499999999999964  25.75 0.5  L 25.75 4  L 16.5 4  L 16.5 0.5  C 16.5 0.22499999999999964  16.275 0  16 0  L 12.5 0  C 12.225000000000001 0  12 0.22499999999999964  12 0.5  L 12 4  L 2 4  C 0.8937499999999997 4  0 4.893750000000001  0 6  L 0 42  C 0 43.10625  0.8937499999999997 44  2 44  L 54 44  C 55.10625 44  56 43.10625  56 42  L 56 6  Z " stroke-width="0" stroke-dasharray="0" stroke="rgba(255, 255, 255, 0)" fill="none" class="stroke" mask="url(#Clip2355)" />
    <path d="M 22.5 29.999999999999996  L 22.5 33  C 22.5 33.275  22.275 33.5  22 33  L 10.5 33  C 10.225 33.5  10 33.275  10 33  L 10 29.999999999999996  C 10 29.725000000000005  10.225 29.5  10.5 29  L 22 29  C 22.275 29.5  22.5 29.725000000000005  22.5 29.999999999999996  Z " stroke-width="0" stroke-dasharray="0" stroke="rgba(255, 255, 255, 0)" fill="none" class="stroke" mask="url(#Clip2355)" />
    <path d="M 22.5 21.5  L 22.5 24.499999999999996  C 22.5 24.775  22.275 25.000000000000004  22 25  L 10.5 25  C 10.225 25.000000000000004  10 24.775  10 24.499999999999996  L 10 21.5  C 10 21.225  10.225 21  10.5 21  L 22 21  C 22.275 21  22.5 21.225  22.5 21.5  Z " stroke-width="0" stroke-dasharray="0" stroke="rgba(255, 255, 255, 0)" fill="none" class="stroke" mask="url(#Clip2355)" />
    <path d="M 45.5 17.993750000000002  C 45.90625 18.000000000000004  46.14375 18.462500000000002  45.90625 18.79375  L 35.59374999999999 33.0875  C 35.40698069046998 33.34670200243228  35.106981537881644 33.50030249806888  34.787499999999994 33.50030249806888  C 34.46801846211834 33.50030249806888  34.16801930953002 33.34670200243228  33.98125 33.0875  L 26.84375 23.200000000000003  C 26.60625 22.868750000000006  26.84375 22.40625  27.25 22.40625  L 30.681249999999995 22.40625  C 31 22.40625  31.299999999999994 22.5625  31.487499999999997 22.81875  L 34.787499999999994 27.387500000000003  L 41.26875 18.406250000000004  C 41.45625 18.143750000000004  41.756249999999994 17.993750000000002  42.074999999999996 17.993750000000002  L 45.5 17.993750000000002  Z " stroke-width="0" stroke-dasharray="0" stroke="rgba(255, 255, 255, 0)" fill="none" class="stroke" mask="url(#Clip2355)" />
  </g>
</svg>