<?xml version="1.0" encoding="utf-8"?>
<svg version="1.1" xmlns:xlink="http://www.w3.org/1999/xlink" width="50px" height="38px" xmlns="http://www.w3.org/2000/svg">
  <defs>
    <pattern id="BGPattern" patternUnits="userSpaceOnUse" alignment="0 0" imageRepeat="None" />
    <mask fill="white" id="Clip2907">
      <path d="M 49.99375 0.8374999999999985  C 50 0.8062499999999986  50 0.7749999999999986  49.99375 0.7437499999999986  L 49.99375 0.7749999999999986  L 45.21875 37.0625  C 45.15625 37.5625  44.725 37.9375  44.225 38  L 5.78125 38  C 5.275 37.9375  4.85 37.55625  4.78125 37.0625  L 0.006249999999999645 0.7749999999999986  L 0.006249999999999645 0.7374999999999972  L 0.006249999999999645 0.8374999999999985  L 4.78125 37.125  C 4.85 37.61875  5.275 38  5.78125 38  L 44.225 38  C 44.725 38  45.15625 37.625  45.21875 37.125  L 49.99375 0.8374999999999985  Z " fill-rule="evenodd" />
    </mask>
  </defs>
  <g transform="matrix(1 0 0 1 0 -8 )">
    <path d="M 49.99375 0.8374999999999985  C 50 0.8062499999999986  50 0.7749999999999986  49.99375 0.7437499999999986  L 49.99375 0.7749999999999986  L 45.21875 37.0625  C 45.15625 37.5625  44.725 37.9375  44.225 38  L 5.78125 38  C 5.275 37.9375  4.85 37.55625  4.78125 37.0625  L 0.006249999999999645 0.7749999999999986  L 0.006249999999999645 0.7374999999999972  L 0.006249999999999645 0.8374999999999985  L 4.78125 37.125  C 4.85 37.61875  5.275 38  5.78125 38  L 44.225 38  C 44.725 38  45.15625 37.625  45.21875 37.125  L 49.99375 0.8374999999999985  Z " fill-rule="nonzero" fill="rgba(217, 217, 217, 1)" stroke="none" transform="matrix(1 0 0 1 0 8 )" class="fill" />
    <path d="M 49.99375 0.8374999999999985  C 50 0.8062499999999986  50 0.7749999999999986  49.99375 0.7437499999999986  L 49.99375 0.7749999999999986  L 45.21875 37.0625  C 45.15625 37.5625  44.725 37.9375  44.225 38  L 5.78125 38  C 5.275 37.9375  4.85 37.55625  4.78125 37.0625  L 0.006249999999999645 0.7749999999999986  L 0.006249999999999645 0.7374999999999972  L 0.006249999999999645 0.8374999999999985  L 4.78125 37.125  C 4.85 37.61875  5.275 38  5.78125 38  L 44.225 38  C 44.725 38  45.15625 37.625  45.21875 37.125  L 49.99375 0.8374999999999985  Z " stroke-width="0" stroke-dasharray="0" stroke="rgba(255, 255, 255, 0)" fill="none" transform="matrix(1 0 0 1 0 8 )" class="stroke" mask="url(#Clip2907)" />
  </g>
</svg>