<?xml version="1.0" encoding="utf-8"?>
<svg version="1.1" xmlns:xlink="http://www.w3.org/1999/xlink" width="48px" height="42px" xmlns="http://www.w3.org/2000/svg">
  <defs>
    <pattern id="BGPattern" patternUnits="userSpaceOnUse" alignment="0 0" imageRepeat="None" />
    <mask fill="white" id="Clip7210">
      <path d="M 24.37000000000001 40.26  L 24.372 40.26  C 24.201999999999998 39.922  24 39.214  23.864 38.91  C 23.73 38.63999999999999  23.324 37.897999999999996  23.124000000000002 37.66  C 22.684 37.153999999999996  22.584000000000003 37.12  22.448000000000004 36.446  C 22.210000000000004 35.297999999999995  21.638000000000005 33.272  20.928000000000004 31.855999999999995  C 20.556000000000004 31.111999999999995  19.948000000000004 30.503999999999998  19.408000000000005 29.96399999999999  C 18.936000000000003 29.49199999999999  17.856000000000005 28.71599999999999  17.654000000000003 28.749999999999993  C 15.864000000000004 29.087999999999994  15.324000000000005 30.84199999999999  14.482000000000003 32.22599999999999  C 14.008000000000003 33.001999999999995  13.536000000000005 33.64399999999999  13.164000000000001 34.45399999999999  C 12.828000000000003 35.19599999999999  12.860000000000003 36.03999999999999  12.286000000000003 36.681999999999995  C 11.716601217348096 37.31474293434552  11.290859683814743 38.06320200852194  11.038000000000004 38.876  C 10.970000000000004 39.044  10.836000000000004 40.732  10.666000000000004 41.135999999999996  L 13.300000000000004 40.967999999999996  C 15.764000000000003 41.138  15.054000000000006 42.08199999999999  18.870000000000005 41.879999999999995  L 24.91000000000001 41.678000000000004  C 24.76364326097504 41.193197717034735  24.583193375738944 40.7193496850629  24.37000000000001 40.26  Z M 48 6.134  C 47.975855690948244 2.793886334283065  45.264196562478155 0.09740107190382385  41.924 0  L 6.075999999999999 0  C 6.073999558164324 0.09199801104833316  6.07199911546542 0.09199701657231651  6.06999867264098 0.09199701657231651  C 2.7364079226623113 0.09199701657231651  0.03399867264098054 2.7944062665936467  0.03399867264098054 6.1279970165723165  C 0.03399867264098054 6.1293313444912005  0.03399911509401134 6.1306656723745405  0 6.131999999999999  L 0 19.298  C 0.9119999999999998 18.994  2.126 17.137999999999998  2.532 16.697999999999997  C 3.206 15.921999999999997  3.3420000000000005 14.909999999999997  3.6799999999999997 14.301999999999996  C 4.4559999999999995 12.883999999999997  4.59 11.871999999999996  6.346 11.871999999999996  C 7.156000000000001 11.871999999999996  7.494 12.073999999999996  8.034 12.817999999999998  C 8.406 13.323999999999995  9.08 14.301999999999996  9.384 14.943999999999996  C 9.756 15.685999999999996  10.33 16.663999999999994  10.6 16.867999999999995  C 10.799999999999999 17.001999999999995  10.969999999999999 17.137999999999995  11.14 17.205999999999996  C 11.41 17.305999999999997  11.646 17.103999999999996  11.848 16.967999999999996  C 12.084000000000001 16.767999999999997  12.186 16.395999999999997  12.422 15.855999999999995  C 12.759999999999998 15.077999999999994  13.098000000000003 14.201999999999995  13.3 13.863999999999994  C 13.638000000000002 13.323999999999995  13.771999999999998 12.647999999999994  14.144000000000002 12.343999999999994  C 14.684000000000001 11.871999999999993  15.426000000000002 11.837999999999994  15.628 11.803999999999995  C 16.742 11.567999999999994  17.248 12.343999999999994  17.788 12.817999999999994  C 18.16 13.153999999999993  18.632 13.795999999999996  19.004 14.637999999999995  C 19.274 15.313999999999993  19.612000000000002 15.957999999999995  19.78 16.327999999999996  C 19.916 16.697999999999997  20.254 17.307999999999996  20.456 18.047999999999995  C 20.658 18.689999999999994  21.13 19.195999999999994  21.334 19.533999999999995  C 21.334 19.533999999999995  21.637999999999998 20.343999999999994  23.394 21.087999999999994  C 23.922628612503992 21.309459795512044  24.46351554266165 21.50043962517265  25.013999999999996 21.659999999999993  C 25.79 21.929999999999996  26.531999999999996 21.897999999999993  27.476 21.79599999999999  C 28.151999999999994 21.79599999999999  28.524 20.815999999999992  28.828000000000003 20.039999999999992  C 28.996 19.56799999999999  29.198 18.251999999999992  29.300000000000004 17.879999999999992  C 29.400000000000002 17.50999999999999  29.129999999999995 17.23999999999999  29.368000000000002 16.89999999999999  C 29.637999999999998 16.52999999999999  29.806000000000004 16.49599999999999  29.94 16.02399999999999  C 30.28 14.97799999999999  32.168 14.943999999999988  33.248000000000005 14.943999999999988  C 34.160000000000004 14.943999999999988  34.026 15.821999999999989  35.544000000000004 15.51799999999999  C 36.422000000000004 15.347999999999988  37.264 15.617999999999991  38.178000000000004 15.887999999999991  C 38.95400000000001 16.09199999999999  39.69800000000001 16.327999999999992  40.136 16.833999999999993  C 40.406000000000006 17.171999999999993  41.114000000000004 18.825999999999993  40.406000000000006 18.89399999999999  C 40.47200000000001 18.95999999999999  40.540000000000006 19.129999999999992  40.642 19.19599999999999  C 40.472 19.83799999999999  39.798 19.365999999999993  39.392 19.29799999999999  C 38.886 19.19799999999999  38.514 19.29799999999999  38.008 19.533999999999992  C 37.13 19.90599999999999  35.882000000000005 19.871999999999993  35.106 20.513999999999992  C 34.466 21.05399999999999  34.466 22.23399999999999  34.160000000000004 22.909999999999993  C 34.160000000000004 22.909999999999993  33.316 25.035999999999998  31.528000000000002 26.35199999999999  C 31.054000000000002 26.691999999999993  30.144 27.49999999999999  28.186000000000007 27.803999999999995  C 27.308000000000003 27.939999999999994  26.466 27.939999999999994  25.552000000000007 27.903999999999996  C 25.114000000000004 27.871999999999996  24.676000000000002 27.871999999999996  24.236000000000004 27.871999999999996  C 23.966000000000005 27.871999999999996  23.088000000000005 27.837999999999997  23.122000000000003 27.939999999999998  L 23.022000000000002 28.176  C 23.027634591788924 28.291253926845823  23.049863447068702 28.405092609945292  23.088 28.514  C 23.122 28.714  23.122 28.884  23.156000000000002 29.054000000000002  C 23.156000000000002 29.423999999999996  23.122000000000003 29.830000000000005  23.156000000000002 30.202000000000005  C 23.19 30.97800000000001  23.494000000000003 31.686000000000007  23.528000000000002 32.496  C 23.562 33.374  24.000000000000007 34.32  24.438000000000002 35.028000000000006  C 24.608000000000004 35.29800000000001  24.844 35.33200000000001  24.945999999999998 35.668000000000006  C 25.080000000000005 36.040000000000006  24.945999999999998 36.480000000000004  25.012 36.88400000000001  C 25.248 38.47200000000001  25.722 40.15800000000001  26.432000000000002 41.61000000000001  L 26.432000000000002 41.644000000000005  C 27.308000000000003 41.510000000000005  28.220000000000006 41.172000000000004  29.368000000000002 41.004000000000005  C 31.494000000000003 40.69800000000001  34.43 40.834  36.32 40.664  C 41.114 40.226  43.714 42.624  48 41.644  L 48 6.134  Z M 24.034 28.445999999999998  C 24.034 28.378  24.034 28.378  24.034 28.445999999999998  Z M 10.026000000000002 36.108  C 9.958000000000002 35.128  10.734000000000002 34.788  11.106 33.98  C 11.443999999999999 33.238  11.646 32.425999999999995  11.916 31.684  C 12.186 30.976  12.59 29.964  13.3 29.592  C 13.200000000000001 29.491999999999997  11.814 29.455999999999996  11.444 29.421999999999997  C 11.038 29.387999999999995  10.632000000000001 29.321999999999996  10.228000000000002 29.25399999999999  C 9.45877510347792 29.11622892648734  8.693192414821356 28.958844331955163  7.932000000000002 28.781999999999996  C 7.492000000000003 28.679999999999993  5.974000000000002 28.139999999999997  5.672000000000002 28.003999999999998  C 4.894000000000002 27.668  4.388000000000003 26.688000000000002  3.8140000000000023 26.789999999999996  C 3.4440000000000026 26.858000000000004  3.072000000000002 26.992  2.8340000000000023 27.364  C 2.634000000000002 27.668  2.5660000000000025 28.208000000000002  2.4300000000000024 28.578  C 2.2620000000000022 28.984  1.9900000000000024 29.387999999999995  1.7900000000000023 29.793999999999997  C 1.3160000000000023 30.501999999999995  0.5400000000000023 31.144  0.20200000000000218 31.854  C 0.13600000000000217 32.022  0.10200000000000217 32.19  0.03400000000000217 32.36  L 0.03400000000000217 40.494  C 0.43800000000000217 40.562  0.8440000000000021 40.63  1.2820000000000022 40.764  C 4.658000000000002 41.676  5.468000000000002 41.744  8.776000000000002 41.372  L 9.080000000000002 41.338  C 9.316000000000003 40.798  9.520000000000001 39.01  9.688000000000002 38.47  C 9.822000000000003 38.03  9.992000000000003 37.692  10.060000000000002 37.288  C 10.126000000000003 36.882  10.060000000000002 36.477999999999994  10.026000000000002 36.108  Z " fill-rule="evenodd" />
    </mask>
  </defs>
  <g>
    <path d="M 24.37000000000001 40.26  L 24.372 40.26  C 24.201999999999998 39.922  24 39.214  23.864 38.91  C 23.73 38.63999999999999  23.324 37.897999999999996  23.124000000000002 37.66  C 22.684 37.153999999999996  22.584000000000003 37.12  22.448000000000004 36.446  C 22.210000000000004 35.297999999999995  21.638000000000005 33.272  20.928000000000004 31.855999999999995  C 20.556000000000004 31.111999999999995  19.948000000000004 30.503999999999998  19.408000000000005 29.96399999999999  C 18.936000000000003 29.49199999999999  17.856000000000005 28.71599999999999  17.654000000000003 28.749999999999993  C 15.864000000000004 29.087999999999994  15.324000000000005 30.84199999999999  14.482000000000003 32.22599999999999  C 14.008000000000003 33.001999999999995  13.536000000000005 33.64399999999999  13.164000000000001 34.45399999999999  C 12.828000000000003 35.19599999999999  12.860000000000003 36.03999999999999  12.286000000000003 36.681999999999995  C 11.716601217348096 37.31474293434552  11.290859683814743 38.06320200852194  11.038000000000004 38.876  C 10.970000000000004 39.044  10.836000000000004 40.732  10.666000000000004 41.135999999999996  L 13.300000000000004 40.967999999999996  C 15.764000000000003 41.138  15.054000000000006 42.08199999999999  18.870000000000005 41.879999999999995  L 24.91000000000001 41.678000000000004  C 24.76364326097504 41.193197717034735  24.583193375738944 40.7193496850629  24.37000000000001 40.26  Z M 48 6.134  C 47.975855690948244 2.793886334283065  45.264196562478155 0.09740107190382385  41.924 0  L 6.075999999999999 0  C 6.073999558164324 0.09199801104833316  6.07199911546542 0.09199701657231651  6.06999867264098 0.09199701657231651  C 2.7364079226623113 0.09199701657231651  0.03399867264098054 2.7944062665936467  0.03399867264098054 6.1279970165723165  C 0.03399867264098054 6.1293313444912005  0.03399911509401134 6.1306656723745405  0 6.131999999999999  L 0 19.298  C 0.9119999999999998 18.994  2.126 17.137999999999998  2.532 16.697999999999997  C 3.206 15.921999999999997  3.3420000000000005 14.909999999999997  3.6799999999999997 14.301999999999996  C 4.4559999999999995 12.883999999999997  4.59 11.871999999999996  6.346 11.871999999999996  C 7.156000000000001 11.871999999999996  7.494 12.073999999999996  8.034 12.817999999999998  C 8.406 13.323999999999995  9.08 14.301999999999996  9.384 14.943999999999996  C 9.756 15.685999999999996  10.33 16.663999999999994  10.6 16.867999999999995  C 10.799999999999999 17.001999999999995  10.969999999999999 17.137999999999995  11.14 17.205999999999996  C 11.41 17.305999999999997  11.646 17.103999999999996  11.848 16.967999999999996  C 12.084000000000001 16.767999999999997  12.186 16.395999999999997  12.422 15.855999999999995  C 12.759999999999998 15.077999999999994  13.098000000000003 14.201999999999995  13.3 13.863999999999994  C 13.638000000000002 13.323999999999995  13.771999999999998 12.647999999999994  14.144000000000002 12.343999999999994  C 14.684000000000001 11.871999999999993  15.426000000000002 11.837999999999994  15.628 11.803999999999995  C 16.742 11.567999999999994  17.248 12.343999999999994  17.788 12.817999999999994  C 18.16 13.153999999999993  18.632 13.795999999999996  19.004 14.637999999999995  C 19.274 15.313999999999993  19.612000000000002 15.957999999999995  19.78 16.327999999999996  C 19.916 16.697999999999997  20.254 17.307999999999996  20.456 18.047999999999995  C 20.658 18.689999999999994  21.13 19.195999999999994  21.334 19.533999999999995  C 21.334 19.533999999999995  21.637999999999998 20.343999999999994  23.394 21.087999999999994  C 23.922628612503992 21.309459795512044  24.46351554266165 21.50043962517265  25.013999999999996 21.659999999999993  C 25.79 21.929999999999996  26.531999999999996 21.897999999999993  27.476 21.79599999999999  C 28.151999999999994 21.79599999999999  28.524 20.815999999999992  28.828000000000003 20.039999999999992  C 28.996 19.56799999999999  29.198 18.251999999999992  29.300000000000004 17.879999999999992  C 29.400000000000002 17.50999999999999  29.129999999999995 17.23999999999999  29.368000000000002 16.89999999999999  C 29.637999999999998 16.52999999999999  29.806000000000004 16.49599999999999  29.94 16.02399999999999  C 30.28 14.97799999999999  32.168 14.943999999999988  33.248000000000005 14.943999999999988  C 34.160000000000004 14.943999999999988  34.026 15.821999999999989  35.544000000000004 15.51799999999999  C 36.422000000000004 15.347999999999988  37.264 15.617999999999991  38.178000000000004 15.887999999999991  C 38.95400000000001 16.09199999999999  39.69800000000001 16.327999999999992  40.136 16.833999999999993  C 40.406000000000006 17.171999999999993  41.114000000000004 18.825999999999993  40.406000000000006 18.89399999999999  C 40.47200000000001 18.95999999999999  40.540000000000006 19.129999999999992  40.642 19.19599999999999  C 40.472 19.83799999999999  39.798 19.365999999999993  39.392 19.29799999999999  C 38.886 19.19799999999999  38.514 19.29799999999999  38.008 19.533999999999992  C 37.13 19.90599999999999  35.882000000000005 19.871999999999993  35.106 20.513999999999992  C 34.466 21.05399999999999  34.466 22.23399999999999  34.160000000000004 22.909999999999993  C 34.160000000000004 22.909999999999993  33.316 25.035999999999998  31.528000000000002 26.35199999999999  C 31.054000000000002 26.691999999999993  30.144 27.49999999999999  28.186000000000007 27.803999999999995  C 27.308000000000003 27.939999999999994  26.466 27.939999999999994  25.552000000000007 27.903999999999996  C 25.114000000000004 27.871999999999996  24.676000000000002 27.871999999999996  24.236000000000004 27.871999999999996  C 23.966000000000005 27.871999999999996  23.088000000000005 27.837999999999997  23.122000000000003 27.939999999999998  L 23.022000000000002 28.176  C 23.027634591788924 28.291253926845823  23.049863447068702 28.405092609945292  23.088 28.514  C 23.122 28.714  23.122 28.884  23.156000000000002 29.054000000000002  C 23.156000000000002 29.423999999999996  23.122000000000003 29.830000000000005  23.156000000000002 30.202000000000005  C 23.19 30.97800000000001  23.494000000000003 31.686000000000007  23.528000000000002 32.496  C 23.562 33.374  24.000000000000007 34.32  24.438000000000002 35.028000000000006  C 24.608000000000004 35.29800000000001  24.844 35.33200000000001  24.945999999999998 35.668000000000006  C 25.080000000000005 36.040000000000006  24.945999999999998 36.480000000000004  25.012 36.88400000000001  C 25.248 38.47200000000001  25.722 40.15800000000001  26.432000000000002 41.61000000000001  L 26.432000000000002 41.644000000000005  C 27.308000000000003 41.510000000000005  28.220000000000006 41.172000000000004  29.368000000000002 41.004000000000005  C 31.494000000000003 40.69800000000001  34.43 40.834  36.32 40.664  C 41.114 40.226  43.714 42.624  48 41.644  L 48 6.134  Z M 24.034 28.445999999999998  C 24.034 28.378  24.034 28.378  24.034 28.445999999999998  Z M 10.026000000000002 36.108  C 9.958000000000002 35.128  10.734000000000002 34.788  11.106 33.98  C 11.443999999999999 33.238  11.646 32.425999999999995  11.916 31.684  C 12.186 30.976  12.59 29.964  13.3 29.592  C 13.200000000000001 29.491999999999997  11.814 29.455999999999996  11.444 29.421999999999997  C 11.038 29.387999999999995  10.632000000000001 29.321999999999996  10.228000000000002 29.25399999999999  C 9.45877510347792 29.11622892648734  8.693192414821356 28.958844331955163  7.932000000000002 28.781999999999996  C 7.492000000000003 28.679999999999993  5.974000000000002 28.139999999999997  5.672000000000002 28.003999999999998  C 4.894000000000002 27.668  4.388000000000003 26.688000000000002  3.8140000000000023 26.789999999999996  C 3.4440000000000026 26.858000000000004  3.072000000000002 26.992  2.8340000000000023 27.364  C 2.634000000000002 27.668  2.5660000000000025 28.208000000000002  2.4300000000000024 28.578  C 2.2620000000000022 28.984  1.9900000000000024 29.387999999999995  1.7900000000000023 29.793999999999997  C 1.3160000000000023 30.501999999999995  0.5400000000000023 31.144  0.20200000000000218 31.854  C 0.13600000000000217 32.022  0.10200000000000217 32.19  0.03400000000000217 32.36  L 0.03400000000000217 40.494  C 0.43800000000000217 40.562  0.8440000000000021 40.63  1.2820000000000022 40.764  C 4.658000000000002 41.676  5.468000000000002 41.744  8.776000000000002 41.372  L 9.080000000000002 41.338  C 9.316000000000003 40.798  9.520000000000001 39.01  9.688000000000002 38.47  C 9.822000000000003 38.03  9.992000000000003 37.692  10.060000000000002 37.288  C 10.126000000000003 36.882  10.060000000000002 36.477999999999994  10.026000000000002 36.108  Z " fill-rule="nonzero" fill="rgba(236, 104, 19, 1)" stroke="none" class="fill" />
    <path d="M 24.37000000000001 40.26  L 24.372 40.26  C 24.201999999999998 39.922  24 39.214  23.864 38.91  C 23.73 38.63999999999999  23.324 37.897999999999996  23.124000000000002 37.66  C 22.684 37.153999999999996  22.584000000000003 37.12  22.448000000000004 36.446  C 22.210000000000004 35.297999999999995  21.638000000000005 33.272  20.928000000000004 31.855999999999995  C 20.556000000000004 31.111999999999995  19.948000000000004 30.503999999999998  19.408000000000005 29.96399999999999  C 18.936000000000003 29.49199999999999  17.856000000000005 28.71599999999999  17.654000000000003 28.749999999999993  C 15.864000000000004 29.087999999999994  15.324000000000005 30.84199999999999  14.482000000000003 32.22599999999999  C 14.008000000000003 33.001999999999995  13.536000000000005 33.64399999999999  13.164000000000001 34.45399999999999  C 12.828000000000003 35.19599999999999  12.860000000000003 36.03999999999999  12.286000000000003 36.681999999999995  C 11.716601217348096 37.31474293434552  11.290859683814743 38.06320200852194  11.038000000000004 38.876  C 10.970000000000004 39.044  10.836000000000004 40.732  10.666000000000004 41.135999999999996  L 13.300000000000004 40.967999999999996  C 15.764000000000003 41.138  15.054000000000006 42.08199999999999  18.870000000000005 41.879999999999995  L 24.91000000000001 41.678000000000004  C 24.76364326097504 41.193197717034735  24.583193375738944 40.7193496850629  24.37000000000001 40.26  Z " stroke-width="0" stroke-dasharray="0" stroke="rgba(255, 255, 255, 0)" fill="none" class="stroke" mask="url(#Clip7210)" />
    <path d="M 48 6.134  C 47.975855690948244 2.793886334283065  45.264196562478155 0.09740107190382385  41.924 0  L 6.075999999999999 0  C 6.073999558164324 0.09199801104833316  6.07199911546542 0.09199701657231651  6.06999867264098 0.09199701657231651  C 2.7364079226623113 0.09199701657231651  0.03399867264098054 2.7944062665936467  0.03399867264098054 6.1279970165723165  C 0.03399867264098054 6.1293313444912005  0.03399911509401134 6.1306656723745405  0 6.131999999999999  L 0 19.298  C 0.9119999999999998 18.994  2.126 17.137999999999998  2.532 16.697999999999997  C 3.206 15.921999999999997  3.3420000000000005 14.909999999999997  3.6799999999999997 14.301999999999996  C 4.4559999999999995 12.883999999999997  4.59 11.871999999999996  6.346 11.871999999999996  C 7.156000000000001 11.871999999999996  7.494 12.073999999999996  8.034 12.817999999999998  C 8.406 13.323999999999995  9.08 14.301999999999996  9.384 14.943999999999996  C 9.756 15.685999999999996  10.33 16.663999999999994  10.6 16.867999999999995  C 10.799999999999999 17.001999999999995  10.969999999999999 17.137999999999995  11.14 17.205999999999996  C 11.41 17.305999999999997  11.646 17.103999999999996  11.848 16.967999999999996  C 12.084000000000001 16.767999999999997  12.186 16.395999999999997  12.422 15.855999999999995  C 12.759999999999998 15.077999999999994  13.098000000000003 14.201999999999995  13.3 13.863999999999994  C 13.638000000000002 13.323999999999995  13.771999999999998 12.647999999999994  14.144000000000002 12.343999999999994  C 14.684000000000001 11.871999999999993  15.426000000000002 11.837999999999994  15.628 11.803999999999995  C 16.742 11.567999999999994  17.248 12.343999999999994  17.788 12.817999999999994  C 18.16 13.153999999999993  18.632 13.795999999999996  19.004 14.637999999999995  C 19.274 15.313999999999993  19.612000000000002 15.957999999999995  19.78 16.327999999999996  C 19.916 16.697999999999997  20.254 17.307999999999996  20.456 18.047999999999995  C 20.658 18.689999999999994  21.13 19.195999999999994  21.334 19.533999999999995  C 21.334 19.533999999999995  21.637999999999998 20.343999999999994  23.394 21.087999999999994  C 23.922628612503992 21.309459795512044  24.46351554266165 21.50043962517265  25.013999999999996 21.659999999999993  C 25.79 21.929999999999996  26.531999999999996 21.897999999999993  27.476 21.79599999999999  C 28.151999999999994 21.79599999999999  28.524 20.815999999999992  28.828000000000003 20.039999999999992  C 28.996 19.56799999999999  29.198 18.251999999999992  29.300000000000004 17.879999999999992  C 29.400000000000002 17.50999999999999  29.129999999999995 17.23999999999999  29.368000000000002 16.89999999999999  C 29.637999999999998 16.52999999999999  29.806000000000004 16.49599999999999  29.94 16.02399999999999  C 30.28 14.97799999999999  32.168 14.943999999999988  33.248000000000005 14.943999999999988  C 34.160000000000004 14.943999999999988  34.026 15.821999999999989  35.544000000000004 15.51799999999999  C 36.422000000000004 15.347999999999988  37.264 15.617999999999991  38.178000000000004 15.887999999999991  C 38.95400000000001 16.09199999999999  39.69800000000001 16.327999999999992  40.136 16.833999999999993  C 40.406000000000006 17.171999999999993  41.114000000000004 18.825999999999993  40.406000000000006 18.89399999999999  C 40.47200000000001 18.95999999999999  40.540000000000006 19.129999999999992  40.642 19.19599999999999  C 40.472 19.83799999999999  39.798 19.365999999999993  39.392 19.29799999999999  C 38.886 19.19799999999999  38.514 19.29799999999999  38.008 19.533999999999992  C 37.13 19.90599999999999  35.882000000000005 19.871999999999993  35.106 20.513999999999992  C 34.466 21.05399999999999  34.466 22.23399999999999  34.160000000000004 22.909999999999993  C 34.160000000000004 22.909999999999993  33.316 25.035999999999998  31.528000000000002 26.35199999999999  C 31.054000000000002 26.691999999999993  30.144 27.49999999999999  28.186000000000007 27.803999999999995  C 27.308000000000003 27.939999999999994  26.466 27.939999999999994  25.552000000000007 27.903999999999996  C 25.114000000000004 27.871999999999996  24.676000000000002 27.871999999999996  24.236000000000004 27.871999999999996  C 23.966000000000005 27.871999999999996  23.088000000000005 27.837999999999997  23.122000000000003 27.939999999999998  L 23.022000000000002 28.176  C 23.027634591788924 28.291253926845823  23.049863447068702 28.405092609945292  23.088 28.514  C 23.122 28.714  23.122 28.884  23.156000000000002 29.054000000000002  C 23.156000000000002 29.423999999999996  23.122000000000003 29.830000000000005  23.156000000000002 30.202000000000005  C 23.19 30.97800000000001  23.494000000000003 31.686000000000007  23.528000000000002 32.496  C 23.562 33.374  24.000000000000007 34.32  24.438000000000002 35.028000000000006  C 24.608000000000004 35.29800000000001  24.844 35.33200000000001  24.945999999999998 35.668000000000006  C 25.080000000000005 36.040000000000006  24.945999999999998 36.480000000000004  25.012 36.88400000000001  C 25.248 38.47200000000001  25.722 40.15800000000001  26.432000000000002 41.61000000000001  L 26.432000000000002 41.644000000000005  C 27.308000000000003 41.510000000000005  28.220000000000006 41.172000000000004  29.368000000000002 41.004000000000005  C 31.494000000000003 40.69800000000001  34.43 40.834  36.32 40.664  C 41.114 40.226  43.714 42.624  48 41.644  L 48 6.134  Z " stroke-width="0" stroke-dasharray="0" stroke="rgba(255, 255, 255, 0)" fill="none" class="stroke" mask="url(#Clip7210)" />
    <path d="M 24.034 28.445999999999998  C 24.034 28.378  24.034 28.378  24.034 28.445999999999998  Z " stroke-width="0" stroke-dasharray="0" stroke="rgba(255, 255, 255, 0)" fill="none" class="stroke" mask="url(#Clip7210)" />
    <path d="M 10.026000000000002 36.108  C 9.958000000000002 35.128  10.734000000000002 34.788  11.106 33.98  C 11.443999999999999 33.238  11.646 32.425999999999995  11.916 31.684  C 12.186 30.976  12.59 29.964  13.3 29.592  C 13.200000000000001 29.491999999999997  11.814 29.455999999999996  11.444 29.421999999999997  C 11.038 29.387999999999995  10.632000000000001 29.321999999999996  10.228000000000002 29.25399999999999  C 9.45877510347792 29.11622892648734  8.693192414821356 28.958844331955163  7.932000000000002 28.781999999999996  C 7.492000000000003 28.679999999999993  5.974000000000002 28.139999999999997  5.672000000000002 28.003999999999998  C 4.894000000000002 27.668  4.388000000000003 26.688000000000002  3.8140000000000023 26.789999999999996  C 3.4440000000000026 26.858000000000004  3.072000000000002 26.992  2.8340000000000023 27.364  C 2.634000000000002 27.668  2.5660000000000025 28.208000000000002  2.4300000000000024 28.578  C 2.2620000000000022 28.984  1.9900000000000024 29.387999999999995  1.7900000000000023 29.793999999999997  C 1.3160000000000023 30.501999999999995  0.5400000000000023 31.144  0.20200000000000218 31.854  C 0.13600000000000217 32.022  0.10200000000000217 32.19  0.03400000000000217 32.36  L 0.03400000000000217 40.494  C 0.43800000000000217 40.562  0.8440000000000021 40.63  1.2820000000000022 40.764  C 4.658000000000002 41.676  5.468000000000002 41.744  8.776000000000002 41.372  L 9.080000000000002 41.338  C 9.316000000000003 40.798  9.520000000000001 39.01  9.688000000000002 38.47  C 9.822000000000003 38.03  9.992000000000003 37.692  10.060000000000002 37.288  C 10.126000000000003 36.882  10.060000000000002 36.477999999999994  10.026000000000002 36.108  Z " stroke-width="0" stroke-dasharray="0" stroke="rgba(255, 255, 255, 0)" fill="none" class="stroke" mask="url(#Clip7210)" />
  </g>
</svg>