<?xml version="1.0" encoding="utf-8"?>
<svg version="1.1" xmlns:xlink="http://www.w3.org/1999/xlink" width="8px" height="14px" xmlns="http://www.w3.org/2000/svg">
  <defs>
    <pattern id="BGPattern" patternUnits="userSpaceOnUse" alignment="0 0" imageRepeat="None" />
    <mask fill="white" id="Clip3681">
      <path d="M 8 11.999999999999996  C 7.998732534440705 13.104044072055089  7.104044072055089 13.998732534440702  6 13.999999999999996  L 2 14  C 0.8959559279449092 13.998732534440702  0.0012674655592963546 13.104044072055089  0 11.999999999999996  L 0 1.9999999999999996  C 0.0011024596593429692 0.8958874765007729  0.8958874765007732 0.0011024596593429688  2 0  L 6.0000000000000036 0  C 7.104112523499229 0.0011024596593447453  7.998897540340657 0.8958874765007729  8 1.9999999999999996  L 8 11.999999999999996  Z M 6 1.9999999999999996  L 2 1.9999999999999996  L 2 11.999999999999996  L 6 11.999999999999996  L 6 1.9999999999999996  Z " fill-rule="evenodd" />
    </mask>
  </defs>
  <g transform="matrix(1 0 0 1 -12 -9 )">
    <path d="M 8 11.999999999999996  C 7.998732534440705 13.104044072055089  7.104044072055089 13.998732534440702  6 13.999999999999996  L 2 14  C 0.8959559279449092 13.998732534440702  0.0012674655592963546 13.104044072055089  0 11.999999999999996  L 0 1.9999999999999996  C 0.0011024596593429692 0.8958874765007729  0.8958874765007732 0.0011024596593429688  2 0  L 6.0000000000000036 0  C 7.104112523499229 0.0011024596593447453  7.998897540340657 0.8958874765007729  8 1.9999999999999996  L 8 11.999999999999996  Z M 6 1.9999999999999996  L 2 1.9999999999999996  L 2 11.999999999999996  L 6 11.999999999999996  L 6 1.9999999999999996  Z " fill-rule="nonzero" fill="rgba(0, 0, 0, 1)" stroke="none" transform="matrix(1 0 0 1 12 9 )" class="fill" />
    <path d="M 8 11.999999999999996  C 7.998732534440705 13.104044072055089  7.104044072055089 13.998732534440702  6 13.999999999999996  L 2 14  C 0.8959559279449092 13.998732534440702  0.0012674655592963546 13.104044072055089  0 11.999999999999996  L 0 1.9999999999999996  C 0.0011024596593429692 0.8958874765007729  0.8958874765007732 0.0011024596593429688  2 0  L 6.0000000000000036 0  C 7.104112523499229 0.0011024596593447453  7.998897540340657 0.8958874765007729  8 1.9999999999999996  L 8 11.999999999999996  Z " stroke-width="0" stroke-dasharray="0" stroke="rgba(255, 255, 255, 0)" fill="none" transform="matrix(1 0 0 1 12 9 )" class="stroke" mask="url(#Clip3681)" />
    <path d="M 6 1.9999999999999996  L 2 1.9999999999999996  L 2 11.999999999999996  L 6 11.999999999999996  L 6 1.9999999999999996  Z " stroke-width="0" stroke-dasharray="0" stroke="rgba(255, 255, 255, 0)" fill="none" transform="matrix(1 0 0 1 12 9 )" class="stroke" mask="url(#Clip3681)" />
  </g>
</svg>