<?xml version="1.0" encoding="utf-8"?>
<svg version="1.1" xmlns:xlink="http://www.w3.org/1999/xlink" width="14px" height="16px" xmlns="http://www.w3.org/2000/svg">
  <defs>
    <pattern id="BGPattern" patternUnits="userSpaceOnUse" alignment="0 0" imageRepeat="None" />
    <mask fill="white" id="Clip3424">
      <path d="M 13.999999993232763 5  C 14.000043936565426 4.621220950104451  13.786073912518516 4.2749278676094455  13.447299993767082 4.105499999999999  L 7.447299999567571 1.1054999999999984  C 7.165695596459136 0.9648044860433398  6.834304403540859 0.9648044860433398  6.552700000432424 1.1054999999999993  L 0.5527000062329119 4.105499999999999  C 0.21392608748147673 4.2749278676094455  -4.39365654278283E-05 4.621220950104451  0 5  L 0 12  C -4.39365654278283E-05 12.378779049895549  0.2139260874814785 12.725072132390554  0.5527000062329137 12.8945  L 6.552700000432427 15.8945  C 6.834311815679744 16.035164090827273  7.165688184320258 16.035164090827273  7.4472999995675755 15.8945  L 13.447299993767086 12.8945  C 13.78607391251852 12.725072132390554  14.000043936565426 12.378779049895549  13.999999993232763 12  L 13.999999993232763 5  Z M 3.236300003638549 5  L 6.999999999999999 3.1182  L 10.76369999636145 5  L 6.999999999999999 6.8818  L 3.236300003638549 5  Z M 2.0000000048337396 11.381799999999998  L 2.0000000048337396 6.6182  L 6.000000000966747 8.6182  L 6.000000000966747 13.381799999999998  L 2.0000000048337396 11.381799999999998  Z M 11.99999999516626 11.381799999999998  L 7.9999999990332515 13.381799999999998  L 7.9999999990332515 8.6182  L 11.99999999516626 6.6182  L 11.99999999516626 11.381799999999998  Z " fill-rule="evenodd" />
    </mask>
  </defs>
  <g transform="matrix(1 0 0 1 -14 -5 )">
    <path d="M 13.999999993232763 5  C 14.000043936565426 4.621220950104451  13.786073912518516 4.2749278676094455  13.447299993767082 4.105499999999999  L 7.447299999567571 1.1054999999999984  C 7.165695596459136 0.9648044860433398  6.834304403540859 0.9648044860433398  6.552700000432424 1.1054999999999993  L 0.5527000062329119 4.105499999999999  C 0.21392608748147673 4.2749278676094455  -4.39365654278283E-05 4.621220950104451  0 5  L 0 12  C -4.39365654278283E-05 12.378779049895549  0.2139260874814785 12.725072132390554  0.5527000062329137 12.8945  L 6.552700000432427 15.8945  C 6.834311815679744 16.035164090827273  7.165688184320258 16.035164090827273  7.4472999995675755 15.8945  L 13.447299993767086 12.8945  C 13.78607391251852 12.725072132390554  14.000043936565426 12.378779049895549  13.999999993232763 12  L 13.999999993232763 5  Z M 3.236300003638549 5  L 6.999999999999999 3.1182  L 10.76369999636145 5  L 6.999999999999999 6.8818  L 3.236300003638549 5  Z M 2.0000000048337396 11.381799999999998  L 2.0000000048337396 6.6182  L 6.000000000966747 8.6182  L 6.000000000966747 13.381799999999998  L 2.0000000048337396 11.381799999999998  Z M 11.99999999516626 11.381799999999998  L 7.9999999990332515 13.381799999999998  L 7.9999999990332515 8.6182  L 11.99999999516626 6.6182  L 11.99999999516626 11.381799999999998  Z " fill-rule="nonzero" fill="rgba(0, 0, 0, 1)" stroke="none" transform="matrix(1 0 0 1 14 5 )" class="fill" />
    <path d="M 13.999999993232763 5  C 14.000043936565426 4.621220950104451  13.786073912518516 4.2749278676094455  13.447299993767082 4.105499999999999  L 7.447299999567571 1.1054999999999984  C 7.165695596459136 0.9648044860433398  6.834304403540859 0.9648044860433398  6.552700000432424 1.1054999999999993  L 0.5527000062329119 4.105499999999999  C 0.21392608748147673 4.2749278676094455  -4.39365654278283E-05 4.621220950104451  0 5  L 0 12  C -4.39365654278283E-05 12.378779049895549  0.2139260874814785 12.725072132390554  0.5527000062329137 12.8945  L 6.552700000432427 15.8945  C 6.834311815679744 16.035164090827273  7.165688184320258 16.035164090827273  7.4472999995675755 15.8945  L 13.447299993767086 12.8945  C 13.78607391251852 12.725072132390554  14.000043936565426 12.378779049895549  13.999999993232763 12  L 13.999999993232763 5  Z " stroke-width="0" stroke-dasharray="0" stroke="rgba(255, 255, 255, 0)" fill="none" transform="matrix(1 0 0 1 14 5 )" class="stroke" mask="url(#Clip3424)" />
    <path d="M 3.236300003638549 5  L 6.999999999999999 3.1182  L 10.76369999636145 5  L 6.999999999999999 6.8818  L 3.236300003638549 5  Z " stroke-width="0" stroke-dasharray="0" stroke="rgba(255, 255, 255, 0)" fill="none" transform="matrix(1 0 0 1 14 5 )" class="stroke" mask="url(#Clip3424)" />
    <path d="M 2.0000000048337396 11.381799999999998  L 2.0000000048337396 6.6182  L 6.000000000966747 8.6182  L 6.000000000966747 13.381799999999998  L 2.0000000048337396 11.381799999999998  Z " stroke-width="0" stroke-dasharray="0" stroke="rgba(255, 255, 255, 0)" fill="none" transform="matrix(1 0 0 1 14 5 )" class="stroke" mask="url(#Clip3424)" />
    <path d="M 11.99999999516626 11.381799999999998  L 7.9999999990332515 13.381799999999998  L 7.9999999990332515 8.6182  L 11.99999999516626 6.6182  L 11.99999999516626 11.381799999999998  Z " stroke-width="0" stroke-dasharray="0" stroke="rgba(255, 255, 255, 0)" fill="none" transform="matrix(1 0 0 1 14 5 )" class="stroke" mask="url(#Clip3424)" />
  </g>
</svg>