<?xml version="1.0" encoding="utf-8"?>
<svg version="1.1" xmlns:xlink="http://www.w3.org/1999/xlink" width="17px" height="28px" xmlns="http://www.w3.org/2000/svg">
  <defs>
    <pattern id="BGPattern" patternUnits="userSpaceOnUse" alignment="0 0" imageRepeat="None" />
    <mask fill="white" id="Clip3425">
      <path d="M 17 26  C 16.998732534440702 27.10404407205509  16.10404407205509 27.998732534440702  14.999999999999998 28  L 1.9999999999999996 28  C 0.8959559279449099 27.998732534440702  0.0012674655592963544 27.10404407205509  0 26  L 0 2  C 0.0012674655592972426 0.8959559279449092  0.8959559279449091 0.0012674655592972428  1.9999999999999996 0  L 14.999999999999998 0  L 14.999999999999998 2  L 2 2  L 2 26  L 14.999999999999998 26  L 14.999999999999998 22  L 16.999999999999996 22  L 17 26  Z " fill-rule="evenodd" />
    </mask>
  </defs>
  <g transform="matrix(1 0 0 1 -5 -2 )">
    <path d="M 17 26  C 16.998732534440702 27.10404407205509  16.10404407205509 27.998732534440702  14.999999999999998 28  L 1.9999999999999996 28  C 0.8959559279449099 27.998732534440702  0.0012674655592963544 27.10404407205509  0 26  L 0 2  C 0.0012674655592972426 0.8959559279449092  0.8959559279449091 0.0012674655592972428  1.9999999999999996 0  L 14.999999999999998 0  L 14.999999999999998 2  L 2 2  L 2 26  L 14.999999999999998 26  L 14.999999999999998 22  L 16.999999999999996 22  L 17 26  Z " fill-rule="nonzero" fill="rgba(0, 0, 0, 1)" stroke="none" transform="matrix(1 0 0 1 5 2 )" class="fill" />
    <path d="M 17 26  C 16.998732534440702 27.10404407205509  16.10404407205509 27.998732534440702  14.999999999999998 28  L 1.9999999999999996 28  C 0.8959559279449099 27.998732534440702  0.0012674655592963544 27.10404407205509  0 26  L 0 2  C 0.0012674655592972426 0.8959559279449092  0.8959559279449091 0.0012674655592972428  1.9999999999999996 0  L 14.999999999999998 0  L 14.999999999999998 2  L 2 2  L 2 26  L 14.999999999999998 26  L 14.999999999999998 22  L 16.999999999999996 22  L 17 26  Z " stroke-width="0" stroke-dasharray="0" stroke="rgba(255, 255, 255, 0)" fill="none" transform="matrix(1 0 0 1 5 2 )" class="stroke" mask="url(#Clip3425)" />
  </g>
</svg>