<?xml version="1.0" encoding="utf-8"?>
<svg version="1.1" xmlns:xlink="http://www.w3.org/1999/xlink" width="24px" height="24px" xmlns="http://www.w3.org/2000/svg">
  <defs>
    <pattern id="BGPattern" patternUnits="userSpaceOnUse" alignment="0 0" imageRepeat="None" />
    <mask fill="white" id="Clip188">
      <path d="M 10.864 14.847999999999999  C 10.624 15.072  10.32 15.2  10.016 15.2  C 9.344 15.2  8.8 14.672  8.8 14  C 8.8 13.696000000000002  8.912 13.392  9.152000000000001 13.152000000000001  L 19.104 3.200000000000001  L 14.815999999999999 3.200000000000001  C 14.143999999999998 3.200000000000001  13.599999999999998 2.6720000000000006  13.599999999999998 2.000000000000001  C 13.599999999999998 1.3440000000000012  14.143999999999998 0.8000000000000007  14.815999999999999 0.8000000000000007  L 22 0.8000000000000007  C 22.672 0.8000000000000007  23.2 1.3280000000000012  23.2 2.000000000000001  L 23.2 9.184000000000001  C 23.2 9.856000000000002  22.672 10.4  22 10.4  C 21.344 10.4  20.8 9.856  20.8 9.184000000000001  L 20.8 4.896000000000001  L 10.864 14.847999999999999  Z M 14.399999999999999 23.2  L 6.4 23.2  C 3.3120000000000003 23.2  0.8000000000000007 20.688  0.8000000000000007 17.6  L 0.8000000000000007 9.600000000000001  C 0.8000000000000007 6.5120000000000005  3.312000000000001 4.000000000000002  6.416 4.000000000000002  L 8.384 4.000000000000002  C 9.168000000000001 4.000000000000002  9.6 4.416000000000002  9.6 5.200000000000001  C 9.6 5.984  9.168 6.4  8.384 6.4  L 6.416 6.4  C 4.640000000000001 6.4  3.2 7.824  3.2 9.600000000000001  L 3.2 17.6  C 3.2 19.376  4.640000000000001 20.8  6.4 20.8  L 14.399999999999999 20.8  C 16.176 20.8  17.599999999999998 19.36  17.599999999999998 17.584  L 17.599999999999998 15.616  C 17.599999999999998 14.832  18.016 14.399999999999999  18.799999999999997 14.399999999999999  C 19.583999999999996 14.399999999999999  19.999999999999996 14.831999999999997  19.999999999999996 15.616  L 19.999999999999996 17.584  C 19.999999999999996 20.688  17.487999999999996 23.2  14.399999999999999 23.2  Z " fill-rule="evenodd" />
    </mask>
  </defs>
  <g>
    <path d="M 10.864 14.847999999999999  C 10.624 15.072  10.32 15.2  10.016 15.2  C 9.344 15.2  8.8 14.672  8.8 14  C 8.8 13.696000000000002  8.912 13.392  9.152000000000001 13.152000000000001  L 19.104 3.200000000000001  L 14.815999999999999 3.200000000000001  C 14.143999999999998 3.200000000000001  13.599999999999998 2.6720000000000006  13.599999999999998 2.000000000000001  C 13.599999999999998 1.3440000000000012  14.143999999999998 0.8000000000000007  14.815999999999999 0.8000000000000007  L 22 0.8000000000000007  C 22.672 0.8000000000000007  23.2 1.3280000000000012  23.2 2.000000000000001  L 23.2 9.184000000000001  C 23.2 9.856000000000002  22.672 10.4  22 10.4  C 21.344 10.4  20.8 9.856  20.8 9.184000000000001  L 20.8 4.896000000000001  L 10.864 14.847999999999999  Z M 14.399999999999999 23.2  L 6.4 23.2  C 3.3120000000000003 23.2  0.8000000000000007 20.688  0.8000000000000007 17.6  L 0.8000000000000007 9.600000000000001  C 0.8000000000000007 6.5120000000000005  3.312000000000001 4.000000000000002  6.416 4.000000000000002  L 8.384 4.000000000000002  C 9.168000000000001 4.000000000000002  9.6 4.416000000000002  9.6 5.200000000000001  C 9.6 5.984  9.168 6.4  8.384 6.4  L 6.416 6.4  C 4.640000000000001 6.4  3.2 7.824  3.2 9.600000000000001  L 3.2 17.6  C 3.2 19.376  4.640000000000001 20.8  6.4 20.8  L 14.399999999999999 20.8  C 16.176 20.8  17.599999999999998 19.36  17.599999999999998 17.584  L 17.599999999999998 15.616  C 17.599999999999998 14.832  18.016 14.399999999999999  18.799999999999997 14.399999999999999  C 19.583999999999996 14.399999999999999  19.999999999999996 14.831999999999997  19.999999999999996 15.616  L 19.999999999999996 17.584  C 19.999999999999996 20.688  17.487999999999996 23.2  14.399999999999999 23.2  Z " fill-rule="nonzero" fill="rgba(0, 0, 0, 1)" stroke="none" class="fill" />
    <path d="M 10.864 14.847999999999999  C 10.624 15.072  10.32 15.2  10.016 15.2  C 9.344 15.2  8.8 14.672  8.8 14  C 8.8 13.696000000000002  8.912 13.392  9.152000000000001 13.152000000000001  L 19.104 3.200000000000001  L 14.815999999999999 3.200000000000001  C 14.143999999999998 3.200000000000001  13.599999999999998 2.6720000000000006  13.599999999999998 2.000000000000001  C 13.599999999999998 1.3440000000000012  14.143999999999998 0.8000000000000007  14.815999999999999 0.8000000000000007  L 22 0.8000000000000007  C 22.672 0.8000000000000007  23.2 1.3280000000000012  23.2 2.000000000000001  L 23.2 9.184000000000001  C 23.2 9.856000000000002  22.672 10.4  22 10.4  C 21.344 10.4  20.8 9.856  20.8 9.184000000000001  L 20.8 4.896000000000001  L 10.864 14.847999999999999  Z " stroke-width="0" stroke-dasharray="0" stroke="rgba(255, 255, 255, 0)" fill="none" class="stroke" mask="url(#Clip188)" />
    <path d="M 14.399999999999999 23.2  L 6.4 23.2  C 3.3120000000000003 23.2  0.8000000000000007 20.688  0.8000000000000007 17.6  L 0.8000000000000007 9.600000000000001  C 0.8000000000000007 6.5120000000000005  3.312000000000001 4.000000000000002  6.416 4.000000000000002  L 8.384 4.000000000000002  C 9.168000000000001 4.000000000000002  9.6 4.416000000000002  9.6 5.200000000000001  C 9.6 5.984  9.168 6.4  8.384 6.4  L 6.416 6.4  C 4.640000000000001 6.4  3.2 7.824  3.2 9.600000000000001  L 3.2 17.6  C 3.2 19.376  4.640000000000001 20.8  6.4 20.8  L 14.399999999999999 20.8  C 16.176 20.8  17.599999999999998 19.36  17.599999999999998 17.584  L 17.599999999999998 15.616  C 17.599999999999998 14.832  18.016 14.399999999999999  18.799999999999997 14.399999999999999  C 19.583999999999996 14.399999999999999  19.999999999999996 14.831999999999997  19.999999999999996 15.616  L 19.999999999999996 17.584  C 19.999999999999996 20.688  17.487999999999996 23.2  14.399999999999999 23.2  Z " stroke-width="0" stroke-dasharray="0" stroke="rgba(255, 255, 255, 0)" fill="none" class="stroke" mask="url(#Clip188)" />
  </g>
</svg>