<?xml version="1.0" encoding="utf-8"?>
<svg version="1.1" xmlns:xlink="http://www.w3.org/1999/xlink" width="8px" height="8px" xmlns="http://www.w3.org/2000/svg">
  <defs>
    <pattern id="BGPattern" patternUnits="userSpaceOnUse" alignment="0 0" imageRepeat="None" />
    <mask fill="white" id="Clip4276">
      <path d="M 6 1  L 6 4.586  L 1.7069999999999999 0.29299999999999926  L 0.29300000000000015 1.7070000000000007  L 4.586 6  L 1 6  L 1 8  L 8 8  L 8 1  L 6 1  Z " fill-rule="evenodd" />
    </mask>
  </defs>
  <g transform="matrix(1 0 0 1 -6 -9 )">
    <path d="M 6 1  L 6 4.586  L 1.7069999999999999 0.29299999999999926  L 0.29300000000000015 1.7070000000000007  L 4.586 6  L 1 6  L 1 8  L 8 8  L 8 1  L 6 1  Z " fill-rule="nonzero" fill="rgba(0, 0, 0, 1)" stroke="none" transform="matrix(1 0 0 1 6 9 )" class="fill" />
    <path d="M 6 1  L 6 4.586  L 1.7069999999999999 0.29299999999999926  L 0.29300000000000015 1.7070000000000007  L 4.586 6  L 1 6  L 1 8  L 8 8  L 8 1  L 6 1  Z " stroke-width="0" stroke-dasharray="0" stroke="rgba(255, 255, 255, 0)" fill="none" transform="matrix(1 0 0 1 6 9 )" class="stroke" mask="url(#Clip4276)" />
  </g>
</svg>