<?xml version="1.0" encoding="utf-8"?>
<svg version="1.1" xmlns:xlink="http://www.w3.org/1999/xlink" width="44px" height="44px" xmlns="http://www.w3.org/2000/svg">
  <defs>
    <pattern id="BGPattern" patternUnits="userSpaceOnUse" alignment="0 0" imageRepeat="None" />
    <mask fill="white" id="Clip794">
      <path d="M 43.04980468749999 24.03710937499999  C 44.15016885499251 22.936518545234033  44.15016885499251 21.15234864226595  43.0498046875 20.0517578125  L 23.953125 0.9501953125000004  C 22.852311065720453 -0.1496300226657108  21.06858737177955 -0.1496300226657108  19.9677734375 0.9501953125000004  L 15.9970703125 4.917968750000001  L 21.0283203125 9.949218750000002  C 23.6708984375 9.056640625000002  26.1728515625 11.586914062500004  25.265625 14.214843750000005  L 30.115234375000007 19.064453125000004  C 33.45800781250001 17.912109375  36.08984375 22.09179687500001  33.57910156250001 24.6005859375  C 30.992187500000004 27.1875  26.722656250000007 24.3203125  28.1103515625 20.9541015625  L 23 16.43359375  L 23 28.333007812500004  C 26.0546875 29.55761718750001  25.7578125 32.41992187500001  24.470703125 33.7041015625  C 23.16123139511416 35.0128135823669  21.03896391738584 35.0128135823669  19.7294921875 33.7041015625  C 18.013671875 31.9853515625  18.6484375 29.123046875000007  21 28.235351562500007  L 21 16.223632812500004  C 18.796875 15.392578125000004  18.42578125 13.2216796875  19.0078125 11.8291015625  L 14.0478515625 6.86328125  L 0.9501953124999993 19.962890625  C -0.15016885499251137 21.06348145476596  -0.15016885499251137 22.847651357734044  0.9501953124999993 23.9482421875  L 20.052734375 43.04980468749999  C 21.153213331770733 44.14951810683045  22.93663041822927 44.14951810683045  24.037109375 43.04980468749999  L 43.04980468749999 24.03710937499999  Z " fill-rule="evenodd" />
    </mask>
  </defs>
  <g>
    <path d="M 43.04980468749999 24.03710937499999  C 44.15016885499251 22.936518545234033  44.15016885499251 21.15234864226595  43.0498046875 20.0517578125  L 23.953125 0.9501953125000004  C 22.852311065720453 -0.1496300226657108  21.06858737177955 -0.1496300226657108  19.9677734375 0.9501953125000004  L 15.9970703125 4.917968750000001  L 21.0283203125 9.949218750000002  C 23.6708984375 9.056640625000002  26.1728515625 11.586914062500004  25.265625 14.214843750000005  L 30.115234375000007 19.064453125000004  C 33.45800781250001 17.912109375  36.08984375 22.09179687500001  33.57910156250001 24.6005859375  C 30.992187500000004 27.1875  26.722656250000007 24.3203125  28.1103515625 20.9541015625  L 23 16.43359375  L 23 28.333007812500004  C 26.0546875 29.55761718750001  25.7578125 32.41992187500001  24.470703125 33.7041015625  C 23.16123139511416 35.0128135823669  21.03896391738584 35.0128135823669  19.7294921875 33.7041015625  C 18.013671875 31.9853515625  18.6484375 29.123046875000007  21 28.235351562500007  L 21 16.223632812500004  C 18.796875 15.392578125000004  18.42578125 13.2216796875  19.0078125 11.8291015625  L 14.0478515625 6.86328125  L 0.9501953124999993 19.962890625  C -0.15016885499251137 21.06348145476596  -0.15016885499251137 22.847651357734044  0.9501953124999993 23.9482421875  L 20.052734375 43.04980468749999  C 21.153213331770733 44.14951810683045  22.93663041822927 44.14951810683045  24.037109375 43.04980468749999  L 43.04980468749999 24.03710937499999  Z " fill-rule="nonzero" fill="rgba(0, 0, 0, 1)" stroke="none" class="fill" />
    <path d="M 43.04980468749999 24.03710937499999  C 44.15016885499251 22.936518545234033  44.15016885499251 21.15234864226595  43.0498046875 20.0517578125  L 23.953125 0.9501953125000004  C 22.852311065720453 -0.1496300226657108  21.06858737177955 -0.1496300226657108  19.9677734375 0.9501953125000004  L 15.9970703125 4.917968750000001  L 21.0283203125 9.949218750000002  C 23.6708984375 9.056640625000002  26.1728515625 11.586914062500004  25.265625 14.214843750000005  L 30.115234375000007 19.064453125000004  C 33.45800781250001 17.912109375  36.08984375 22.09179687500001  33.57910156250001 24.6005859375  C 30.992187500000004 27.1875  26.722656250000007 24.3203125  28.1103515625 20.9541015625  L 23 16.43359375  L 23 28.333007812500004  C 26.0546875 29.55761718750001  25.7578125 32.41992187500001  24.470703125 33.7041015625  C 23.16123139511416 35.0128135823669  21.03896391738584 35.0128135823669  19.7294921875 33.7041015625  C 18.013671875 31.9853515625  18.6484375 29.123046875000007  21 28.235351562500007  L 21 16.223632812500004  C 18.796875 15.392578125000004  18.42578125 13.2216796875  19.0078125 11.8291015625  L 14.0478515625 6.86328125  L 0.9501953124999993 19.962890625  C -0.15016885499251137 21.06348145476596  -0.15016885499251137 22.847651357734044  0.9501953124999993 23.9482421875  L 20.052734375 43.04980468749999  C 21.153213331770733 44.14951810683045  22.93663041822927 44.14951810683045  24.037109375 43.04980468749999  L 43.04980468749999 24.03710937499999  Z " stroke-width="0" stroke-dasharray="0" stroke="rgba(255, 255, 255, 0)" fill="none" class="stroke" mask="url(#Clip794)" />
  </g>
</svg>