<?xml version="1.0" encoding="utf-8"?>
<svg version="1.1" xmlns:xlink="http://www.w3.org/1999/xlink" width="18px" height="18px" xmlns="http://www.w3.org/2000/svg">
  <defs>
    <pattern id="BGPattern" patternUnits="userSpaceOnUse" alignment="0 0" imageRepeat="None" />
    <mask fill="white" id="Clip4592">
      <path d="M 15.113405391399201 17.0034053913992  C 15.075578033425895 17.0034053913992  15.03775920085188 17.00226974938442  15 17  L 2.999999999999999 17  C 2.962240799148137 17.002269749384418  2.9244219665740854 17.0034053913992  2.8865946086007956 17.0034053913992  C 1.8427764314205963 17.0034053913992  0.996594608600796 16.1572235685794  0.996594608600796 15.113405391399201  C 0.996594608600796 15.075578033425902  0.9977302506155765 15.037759200851866  1 15  L 1 2.9999999999999982  C 0.997730250615577 2.9622407991481357  0.996594608600796 2.9244219665740836  0.996594608600796 2.8865946086007934  C 0.996594608600796 1.842776431420594  1.8427764314205963 0.9965946086007929  2.8865946086007956 0.9965946086007929  C 2.924421966574104 0.9965946086007929  2.9622407991481183 0.9977302506155752  3 1  L 14.999999999999998 1  C 15.037759200851859 0.9977302506155752  15.075578033425913 0.9965946086007929  15.113405391399201 0.9965946086007929  C 16.1572235685794 0.9965946086007929  17.003405391399202 1.842776431420594  17.003405391399202 2.8865946086007934  C 17.003405391399202 2.9244219665741014  17.00226974938442 2.962240799148116  17 3  L 17 14.999999999999996  C 17.00226974938442 15.037759200851855  17.003405391399202 15.075578033425913  17.003405391399202 15.113405391399201  C 17.003405391399202 16.1572235685794  16.1572235685794 17.0034053913992  15.113405391399201 17.0034053913992  Z M 15 3  L 3 3  L 3 15  L 15 15  L 15 3  Z " fill-rule="evenodd" />
    </mask>
  </defs>
  <g transform="matrix(1 0 0 1 -1 -11 )">
    <path d="M 15.113405391399201 17.0034053913992  C 15.075578033425895 17.0034053913992  15.03775920085188 17.00226974938442  15 17  L 2.999999999999999 17  C 2.962240799148137 17.002269749384418  2.9244219665740854 17.0034053913992  2.8865946086007956 17.0034053913992  C 1.8427764314205963 17.0034053913992  0.996594608600796 16.1572235685794  0.996594608600796 15.113405391399201  C 0.996594608600796 15.075578033425902  0.9977302506155765 15.037759200851866  1 15  L 1 2.9999999999999982  C 0.997730250615577 2.9622407991481357  0.996594608600796 2.9244219665740836  0.996594608600796 2.8865946086007934  C 0.996594608600796 1.842776431420594  1.8427764314205963 0.9965946086007929  2.8865946086007956 0.9965946086007929  C 2.924421966574104 0.9965946086007929  2.9622407991481183 0.9977302506155752  3 1  L 14.999999999999998 1  C 15.037759200851859 0.9977302506155752  15.075578033425913 0.9965946086007929  15.113405391399201 0.9965946086007929  C 16.1572235685794 0.9965946086007929  17.003405391399202 1.842776431420594  17.003405391399202 2.8865946086007934  C 17.003405391399202 2.9244219665741014  17.00226974938442 2.962240799148116  17 3  L 17 14.999999999999996  C 17.00226974938442 15.037759200851855  17.003405391399202 15.075578033425913  17.003405391399202 15.113405391399201  C 17.003405391399202 16.1572235685794  16.1572235685794 17.0034053913992  15.113405391399201 17.0034053913992  Z M 15 3  L 3 3  L 3 15  L 15 15  L 15 3  Z " fill-rule="nonzero" fill="rgba(0, 0, 0, 1)" stroke="none" transform="matrix(1 0 0 1 1 11 )" class="fill" />
    <path d="M 15.113405391399201 17.0034053913992  C 15.075578033425895 17.0034053913992  15.03775920085188 17.00226974938442  15 17  L 2.999999999999999 17  C 2.962240799148137 17.002269749384418  2.9244219665740854 17.0034053913992  2.8865946086007956 17.0034053913992  C 1.8427764314205963 17.0034053913992  0.996594608600796 16.1572235685794  0.996594608600796 15.113405391399201  C 0.996594608600796 15.075578033425902  0.9977302506155765 15.037759200851866  1 15  L 1 2.9999999999999982  C 0.997730250615577 2.9622407991481357  0.996594608600796 2.9244219665740836  0.996594608600796 2.8865946086007934  C 0.996594608600796 1.842776431420594  1.8427764314205963 0.9965946086007929  2.8865946086007956 0.9965946086007929  C 2.924421966574104 0.9965946086007929  2.9622407991481183 0.9977302506155752  3 1  L 14.999999999999998 1  C 15.037759200851859 0.9977302506155752  15.075578033425913 0.9965946086007929  15.113405391399201 0.9965946086007929  C 16.1572235685794 0.9965946086007929  17.003405391399202 1.842776431420594  17.003405391399202 2.8865946086007934  C 17.003405391399202 2.9244219665741014  17.00226974938442 2.962240799148116  17 3  L 17 14.999999999999996  C 17.00226974938442 15.037759200851855  17.003405391399202 15.075578033425913  17.003405391399202 15.113405391399201  C 17.003405391399202 16.1572235685794  16.1572235685794 17.0034053913992  15.113405391399201 17.0034053913992  Z " stroke-width="0" stroke-dasharray="0" stroke="rgba(255, 255, 255, 0)" fill="none" transform="matrix(1 0 0 1 1 11 )" class="stroke" mask="url(#Clip4592)" />
    <path d="M 15 3  L 3 3  L 3 15  L 15 15  L 15 3  Z " stroke-width="0" stroke-dasharray="0" stroke="rgba(255, 255, 255, 0)" fill="none" transform="matrix(1 0 0 1 1 11 )" class="stroke" mask="url(#Clip4592)" />
  </g>
</svg>