<?xml version="1.0" encoding="utf-8"?>
<svg version="1.1" xmlns:xlink="http://www.w3.org/1999/xlink" width="11px" height="11px" xmlns="http://www.w3.org/2000/svg">
  <defs>
    <pattern id="BGPattern" patternUnits="userSpaceOnUse" alignment="0 0" imageRepeat="None" />
    <mask fill="white" id="Clip4594">
      <path d="M 9.999999999999996 2.999999999999999  L 10 11  L 8 11  L 8 3  L 0 3  L 0 1  L 7.9999999999999964 0.9999999999999996  C 8.037759200851859 0.997730250615577  8.075578033425906 0.9965946086007964  8.113405391399198 0.9965946086007964  C 9.157223568579397 0.9965946086007964  10.003405391399195 1.8427764314205968  10.003405391399195 2.886594608600796  C 10.003405391399195 2.9244219665740667  10.002269749384418 2.9622407991481543  9.999999999999996 2.999999999999999  Z " fill-rule="evenodd" />
    </mask>
  </defs>
  <g transform="matrix(1 0 0 1 -16 -3 )">
    <path d="M 9.999999999999996 2.999999999999999  L 10 11  L 8 11  L 8 3  L 0 3  L 0 1  L 7.9999999999999964 0.9999999999999996  C 8.037759200851859 0.997730250615577  8.075578033425906 0.9965946086007964  8.113405391399198 0.9965946086007964  C 9.157223568579397 0.9965946086007964  10.003405391399195 1.8427764314205968  10.003405391399195 2.886594608600796  C 10.003405391399195 2.9244219665740667  10.002269749384418 2.9622407991481543  9.999999999999996 2.999999999999999  Z " fill-rule="nonzero" fill="rgba(0, 0, 0, 1)" stroke="none" transform="matrix(1 0 0 1 16 3 )" class="fill" />
    <path d="M 9.999999999999996 2.999999999999999  L 10 11  L 8 11  L 8 3  L 0 3  L 0 1  L 7.9999999999999964 0.9999999999999996  C 8.037759200851859 0.997730250615577  8.075578033425906 0.9965946086007964  8.113405391399198 0.9965946086007964  C 9.157223568579397 0.9965946086007964  10.003405391399195 1.8427764314205968  10.003405391399195 2.886594608600796  C 10.003405391399195 2.9244219665740667  10.002269749384418 2.9622407991481543  9.999999999999996 2.999999999999999  Z " stroke-width="0" stroke-dasharray="0" stroke="rgba(255, 255, 255, 0)" fill="none" transform="matrix(1 0 0 1 16 3 )" class="stroke" mask="url(#Clip4594)" />
  </g>
</svg>