<?xml version="1.0" encoding="utf-8"?>
<svg version="1.1" xmlns:xlink="http://www.w3.org/1999/xlink" width="10px" height="11px" xmlns="http://www.w3.org/2000/svg">
  <defs>
    <pattern id="BGPattern" patternUnits="userSpaceOnUse" alignment="0 0" imageRepeat="None" />
    <mask fill="white" id="Clip4595">
      <path d="M 4 0  L 4 2  L 6.800000000000001 2  L 2 7.399999999999999  L 2 5  L 0 5  L 0 11  L 6 11  L 6 9  L 3.1999999999999993 9  L 8 3.6000000000000014  L 8 6  L 10 6  L 10 0  L 4 0  Z " fill-rule="evenodd" />
    </mask>
  </defs>
  <g transform="matrix(1 0 0 1 -20 -17 )">
    <path d="M 4 0  L 4 2  L 6.800000000000001 2  L 2 7.399999999999999  L 2 5  L 0 5  L 0 11  L 6 11  L 6 9  L 3.1999999999999993 9  L 8 3.6000000000000014  L 8 6  L 10 6  L 10 0  L 4 0  Z " fill-rule="nonzero" fill="rgba(0, 0, 0, 1)" stroke="none" transform="matrix(1 0 0 1 20 17 )" class="fill" />
    <path d="M 4 0  L 4 2  L 6.800000000000001 2  L 2 7.399999999999999  L 2 5  L 0 5  L 0 11  L 6 11  L 6 9  L 3.1999999999999993 9  L 8 3.6000000000000014  L 8 6  L 10 6  L 10 0  L 4 0  Z " stroke-width="0" stroke-dasharray="0" stroke="rgba(255, 255, 255, 0)" fill="none" transform="matrix(1 0 0 1 20 17 )" class="stroke" mask="url(#Clip4595)" />
  </g>
</svg>