<?xml version="1.0" encoding="utf-8"?>
<svg version="1.1" xmlns:xlink="http://www.w3.org/1999/xlink" width="50px" height="50px" xmlns="http://www.w3.org/2000/svg">
  <defs>
    <pattern id="BGPattern" patternUnits="userSpaceOnUse" alignment="0 0" imageRepeat="None" />
    <mask fill="white" id="Clip1091">
      <path d="M 50 25  C 50 11.192842741935493  38.80715725806451 0  25 0  C 11.192842741935493 0  0 11.192842741935493  0 25  C 0 38.80715725806451  11.192842741935493 50  25 50  C 38.80715725806451 50  50 38.80715725806451  50 25  Z M 4.838709677419359 25  C 4.838709677419359 13.857661290322595  13.855947580645164 4.838709677419359  25 4.838709677419359  C 36.142338709677404 4.838709677419359  45.16129032258064 13.855947580645164  45.16129032258064 25  C 45.16129032258064 36.142338709677404  36.144052419354836 45.16129032258064  25 45.16129032258064  C 13.857661290322595 45.16129032258064  4.838709677419359 36.144052419354836  4.838709677419359 25  Z M 39.12671370967743 19.681250000000006  C 39.600907258064524 19.210685483870975  39.60393145161291 18.444758064516122  39.133467741935476 17.970463709677432  L 36.86169354838711 15.680342741935476  C 36.39122983870968 15.206048387096786  35.62530241935485 15.202923387096776  35.151008064516134 15.673487903225805  L 20.901814516129036 29.80816532258064  L 14.874395161290325 23.731854838709694  C 14.403931451612891 23.257560483870975  13.638004032258067 23.254435483870964  13.163709677419346 23.724899193548396  L 10.873487903225794 25.99667338709679  C 10.399193548387103 26.467137096774195  10.396068548387092 27.233064516129048  10.866633064516122 27.707459677419365  L 20.01794354838711 36.93286290322581  C 20.488407258064512 37.40715725806453  21.254334677419365 37.41028225806451  21.728629032258056 36.93971774193548  L 39.12671370967743 19.681250000000006  Z " fill-rule="evenodd" />
    </mask>
  </defs>
  <g>
    <path d="M 50 25  C 50 11.192842741935493  38.80715725806451 0  25 0  C 11.192842741935493 0  0 11.192842741935493  0 25  C 0 38.80715725806451  11.192842741935493 50  25 50  C 38.80715725806451 50  50 38.80715725806451  50 25  Z M 4.838709677419359 25  C 4.838709677419359 13.857661290322595  13.855947580645164 4.838709677419359  25 4.838709677419359  C 36.142338709677404 4.838709677419359  45.16129032258064 13.855947580645164  45.16129032258064 25  C 45.16129032258064 36.142338709677404  36.144052419354836 45.16129032258064  25 45.16129032258064  C 13.857661290322595 45.16129032258064  4.838709677419359 36.144052419354836  4.838709677419359 25  Z M 39.12671370967743 19.681250000000006  C 39.600907258064524 19.210685483870975  39.60393145161291 18.444758064516122  39.133467741935476 17.970463709677432  L 36.86169354838711 15.680342741935476  C 36.39122983870968 15.206048387096786  35.62530241935485 15.202923387096776  35.151008064516134 15.673487903225805  L 20.901814516129036 29.80816532258064  L 14.874395161290325 23.731854838709694  C 14.403931451612891 23.257560483870975  13.638004032258067 23.254435483870964  13.163709677419346 23.724899193548396  L 10.873487903225794 25.99667338709679  C 10.399193548387103 26.467137096774195  10.396068548387092 27.233064516129048  10.866633064516122 27.707459677419365  L 20.01794354838711 36.93286290322581  C 20.488407258064512 37.40715725806453  21.254334677419365 37.41028225806451  21.728629032258056 36.93971774193548  L 39.12671370967743 19.681250000000006  Z " fill-rule="nonzero" fill="rgba(0, 0, 0, 1)" stroke="none" class="fill" />
    <path d="M 50 25  C 50 11.192842741935493  38.80715725806451 0  25 0  C 11.192842741935493 0  0 11.192842741935493  0 25  C 0 38.80715725806451  11.192842741935493 50  25 50  C 38.80715725806451 50  50 38.80715725806451  50 25  Z " stroke-width="0" stroke-dasharray="0" stroke="rgba(255, 255, 255, 0)" fill="none" class="stroke" mask="url(#Clip1091)" />
    <path d="M 4.838709677419359 25  C 4.838709677419359 13.857661290322595  13.855947580645164 4.838709677419359  25 4.838709677419359  C 36.142338709677404 4.838709677419359  45.16129032258064 13.855947580645164  45.16129032258064 25  C 45.16129032258064 36.142338709677404  36.144052419354836 45.16129032258064  25 45.16129032258064  C 13.857661290322595 45.16129032258064  4.838709677419359 36.144052419354836  4.838709677419359 25  Z " stroke-width="0" stroke-dasharray="0" stroke="rgba(255, 255, 255, 0)" fill="none" class="stroke" mask="url(#Clip1091)" />
    <path d="M 39.12671370967743 19.681250000000006  C 39.600907258064524 19.210685483870975  39.60393145161291 18.444758064516122  39.133467741935476 17.970463709677432  L 36.86169354838711 15.680342741935476  C 36.39122983870968 15.206048387096786  35.62530241935485 15.202923387096776  35.151008064516134 15.673487903225805  L 20.901814516129036 29.80816532258064  L 14.874395161290325 23.731854838709694  C 14.403931451612891 23.257560483870975  13.638004032258067 23.254435483870964  13.163709677419346 23.724899193548396  L 10.873487903225794 25.99667338709679  C 10.399193548387103 26.467137096774195  10.396068548387092 27.233064516129048  10.866633064516122 27.707459677419365  L 20.01794354838711 36.93286290322581  C 20.488407258064512 37.40715725806453  21.254334677419365 37.41028225806451  21.728629032258056 36.93971774193548  L 39.12671370967743 19.681250000000006  Z " stroke-width="0" stroke-dasharray="0" stroke="rgba(255, 255, 255, 0)" fill="none" class="stroke" mask="url(#Clip1091)" />
  </g>
</svg>