<?xml version="1.0" encoding="utf-8"?>
<svg version="1.1" xmlns:xlink="http://www.w3.org/1999/xlink" width="10px" height="10px" xmlns="http://www.w3.org/2000/svg">
  <defs>
    <pattern id="BGPattern" patternUnits="userSpaceOnUse" alignment="0 0" imageRepeat="None" />
    <mask fill="white" id="Clip5743">
      <path d="M 8.5 1.5  C 8.5 1.0857864376269042  8.835786437626904 0.75  9.25 0.75  C 9.664213562373096 0.75  10 1.0857864376269042  10 1.5  L 9.999999999999996 6  C 9.999999999999996 8.071067811865476  8.321067811865472 9.75  6.25 9.75  L 1 9.75  C 0.5857864376269042 9.75  0.25 9.414213562373096  0.25 9  C 0.25 8.585786437626904  0.5857864376269042 8.25  1 8.25  L 6.25 8.25  C 7.492640687119284 8.25  8.5 7.242640687119284  8.5 6  L 8.5 1.5  Z " fill-rule="evenodd" />
    </mask>
  </defs>
  <g transform="matrix(1 0 0 1 -8 -12 )">
    <path d="M 8.5 1.5  C 8.5 1.0857864376269042  8.835786437626904 0.75  9.25 0.75  C 9.664213562373096 0.75  10 1.0857864376269042  10 1.5  L 9.999999999999996 6  C 9.999999999999996 8.071067811865476  8.321067811865472 9.75  6.25 9.75  L 1 9.75  C 0.5857864376269042 9.75  0.25 9.414213562373096  0.25 9  C 0.25 8.585786437626904  0.5857864376269042 8.25  1 8.25  L 6.25 8.25  C 7.492640687119284 8.25  8.5 7.242640687119284  8.5 6  L 8.5 1.5  Z " fill-rule="nonzero" fill="rgba(0, 0, 0, 1)" stroke="none" transform="matrix(1 0 0 1 8 12 )" class="fill" />
    <path d="M 8.5 1.5  C 8.5 1.0857864376269042  8.835786437626904 0.75  9.25 0.75  C 9.664213562373096 0.75  10 1.0857864376269042  10 1.5  L 9.999999999999996 6  C 9.999999999999996 8.071067811865476  8.321067811865472 9.75  6.25 9.75  L 1 9.75  C 0.5857864376269042 9.75  0.25 9.414213562373096  0.25 9  C 0.25 8.585786437626904  0.5857864376269042 8.25  1 8.25  L 6.25 8.25  C 7.492640687119284 8.25  8.5 7.242640687119284  8.5 6  L 8.5 1.5  Z " stroke-width="0" stroke-dasharray="0" stroke="rgba(255, 255, 255, 0)" fill="none" transform="matrix(1 0 0 1 8 12 )" class="stroke" mask="url(#Clip5743)" />
  </g>
</svg>