<?xml version="1.0" encoding="utf-8"?>
<svg version="1.1" xmlns:xlink="http://www.w3.org/1999/xlink" width="50px" height="50px" xmlns="http://www.w3.org/2000/svg">
  <defs>
    <pattern id="BGPattern" patternUnits="userSpaceOnUse" alignment="0 0" imageRepeat="None" />
    <mask fill="white" id="Clip714">
      <path d="M 0 25  C 0 11.602822580645181  10.554435483870975 0  24.95967741935482 0  C 39.25403225806451 0  50 11.098790322580669  50 25  C 50 39.82862903225805  38.054435483870975 50  24.95967741935482 50  C 11.451612903225794 50  0 38.961693548387075  0 25  Z M 45.48387096774195 25  C 45.49395161290323 13.528225806451587  36.39112903225805 4.506048387096769  25.04032258064518 4.506048387096769  C 13.125 4.506048387096769  4.506048387096769 14.374999999999998  4.506048387096769 25  C 4.506048387096769 36.06854838709677  13.699596774193537 45.44354838709677  25.04032258064518 45.44354838709677  C 35.44354838709677 45.44354838709677  45.48387096774195 37.268145161290306  45.48387096774195 25  Z M 17.14717741935482 31.784274193548413  L 14 31.784274193548413  L 14 17.94354838709677  L 20.534274193548413 17.94354838709677  C 23.93145161290323 17.94354838709677  25.624999999999996 19.50604838709677  25.624999999999996 22.63104838709677  C 25.624999999999996 23.538306451612925  25.32258064516128 27.31854838709677  19.86895161290323 27.31854838709677  L 17.14717741935482 27.31854838709677  L 17.14717741935482 31.784274193548413  Z M 19.949596774193537 20.534274193548413  L 17.096774193548413 20.534274193548413  L 17.096774193548413 24.72782258064518  L 20.04032258064518 24.72782258064518  C 22.85282258064518 24.72782258064518  23.064516129032256 20.534274193548413  19.949596774193537 20.534274193548413  Z M 26.5625 31.774193548387075  L 26 31.784274193548413  L 26 17.94354838709677  L 31.925403225806466 17.94354838709677  C 34.08266129032256 17.94354838709677  38.981854838709694 18.467741935483843  38.981854838709694 24.85887096774195  C 38.981854838709694 31.26008064516128  34.08266129032256 31.774193548387075  31.925403225806466 31.774193548387075  L 26.5625 31.774193548387075  Z M 31.95564516129031 20.836693548387075  L 30 20.846774193548413  L 30 28.88104838709677  L 32.00604838709677 28.88104838709677  C 34.42540322580646 28.88104838709677  35.48387096774195 27.33870967741933  35.48387096774195 24.85887096774195  C 35.48387096774195 20.625  32.33870967741939 20.836693548387075  31.95564516129031 20.836693548387075  Z " fill-rule="evenodd" />
    </mask>
  </defs>
  <g>
    <path d="M 0 25  C 0 11.602822580645181  10.554435483870975 0  24.95967741935482 0  C 39.25403225806451 0  50 11.098790322580669  50 25  C 50 39.82862903225805  38.054435483870975 50  24.95967741935482 50  C 11.451612903225794 50  0 38.961693548387075  0 25  Z M 45.48387096774195 25  C 45.49395161290323 13.528225806451587  36.39112903225805 4.506048387096769  25.04032258064518 4.506048387096769  C 13.125 4.506048387096769  4.506048387096769 14.374999999999998  4.506048387096769 25  C 4.506048387096769 36.06854838709677  13.699596774193537 45.44354838709677  25.04032258064518 45.44354838709677  C 35.44354838709677 45.44354838709677  45.48387096774195 37.268145161290306  45.48387096774195 25  Z M 17.14717741935482 31.784274193548413  L 14 31.784274193548413  L 14 17.94354838709677  L 20.534274193548413 17.94354838709677  C 23.93145161290323 17.94354838709677  25.624999999999996 19.50604838709677  25.624999999999996 22.63104838709677  C 25.624999999999996 23.538306451612925  25.32258064516128 27.31854838709677  19.86895161290323 27.31854838709677  L 17.14717741935482 27.31854838709677  L 17.14717741935482 31.784274193548413  Z M 19.949596774193537 20.534274193548413  L 17.096774193548413 20.534274193548413  L 17.096774193548413 24.72782258064518  L 20.04032258064518 24.72782258064518  C 22.85282258064518 24.72782258064518  23.064516129032256 20.534274193548413  19.949596774193537 20.534274193548413  Z M 26.5625 31.774193548387075  L 26 31.784274193548413  L 26 17.94354838709677  L 31.925403225806466 17.94354838709677  C 34.08266129032256 17.94354838709677  38.981854838709694 18.467741935483843  38.981854838709694 24.85887096774195  C 38.981854838709694 31.26008064516128  34.08266129032256 31.774193548387075  31.925403225806466 31.774193548387075  L 26.5625 31.774193548387075  Z M 31.95564516129031 20.836693548387075  L 30 20.846774193548413  L 30 28.88104838709677  L 32.00604838709677 28.88104838709677  C 34.42540322580646 28.88104838709677  35.48387096774195 27.33870967741933  35.48387096774195 24.85887096774195  C 35.48387096774195 20.625  32.33870967741939 20.836693548387075  31.95564516129031 20.836693548387075  Z " fill-rule="nonzero" fill="rgba(0, 0, 0, 1)" stroke="none" class="fill" />
    <path d="M 0 25  C 0 11.602822580645181  10.554435483870975 0  24.95967741935482 0  C 39.25403225806451 0  50 11.098790322580669  50 25  C 50 39.82862903225805  38.054435483870975 50  24.95967741935482 50  C 11.451612903225794 50  0 38.961693548387075  0 25  Z " stroke-width="0" stroke-dasharray="0" stroke="rgba(255, 255, 255, 0)" fill="none" class="stroke" mask="url(#Clip714)" />
    <path d="M 45.48387096774195 25  C 45.49395161290323 13.528225806451587  36.39112903225805 4.506048387096769  25.04032258064518 4.506048387096769  C 13.125 4.506048387096769  4.506048387096769 14.374999999999998  4.506048387096769 25  C 4.506048387096769 36.06854838709677  13.699596774193537 45.44354838709677  25.04032258064518 45.44354838709677  C 35.44354838709677 45.44354838709677  45.48387096774195 37.268145161290306  45.48387096774195 25  Z " stroke-width="0" stroke-dasharray="0" stroke="rgba(255, 255, 255, 0)" fill="none" class="stroke" mask="url(#Clip714)" />
    <path d="M 17.14717741935482 31.784274193548413  L 14 31.784274193548413  L 14 17.94354838709677  L 20.534274193548413 17.94354838709677  C 23.93145161290323 17.94354838709677  25.624999999999996 19.50604838709677  25.624999999999996 22.63104838709677  C 25.624999999999996 23.538306451612925  25.32258064516128 27.31854838709677  19.86895161290323 27.31854838709677  L 17.14717741935482 27.31854838709677  L 17.14717741935482 31.784274193548413  Z " stroke-width="0" stroke-dasharray="0" stroke="rgba(255, 255, 255, 0)" fill="none" class="stroke" mask="url(#Clip714)" />
    <path d="M 19.949596774193537 20.534274193548413  L 17.096774193548413 20.534274193548413  L 17.096774193548413 24.72782258064518  L 20.04032258064518 24.72782258064518  C 22.85282258064518 24.72782258064518  23.064516129032256 20.534274193548413  19.949596774193537 20.534274193548413  Z " stroke-width="0" stroke-dasharray="0" stroke="rgba(255, 255, 255, 0)" fill="none" class="stroke" mask="url(#Clip714)" />
    <path d="M 26.5625 31.774193548387075  L 26 31.784274193548413  L 26 17.94354838709677  L 31.925403225806466 17.94354838709677  C 34.08266129032256 17.94354838709677  38.981854838709694 18.467741935483843  38.981854838709694 24.85887096774195  C 38.981854838709694 31.26008064516128  34.08266129032256 31.774193548387075  31.925403225806466 31.774193548387075  L 26.5625 31.774193548387075  Z " stroke-width="0" stroke-dasharray="0" stroke="rgba(255, 255, 255, 0)" fill="none" class="stroke" mask="url(#Clip714)" />
    <path d="M 31.95564516129031 20.836693548387075  L 30 20.846774193548413  L 30 28.88104838709677  L 32.00604838709677 28.88104838709677  C 34.42540322580646 28.88104838709677  35.48387096774195 27.33870967741933  35.48387096774195 24.85887096774195  C 35.48387096774195 20.625  32.33870967741939 20.836693548387075  31.95564516129031 20.836693548387075  Z " stroke-width="0" stroke-dasharray="0" stroke="rgba(255, 255, 255, 0)" fill="none" class="stroke" mask="url(#Clip714)" />
  </g>
</svg>