<?xml version="1.0" encoding="utf-8"?>
<svg version="1.1" xmlns:xlink="http://www.w3.org/1999/xlink" width="48px" height="48px" xmlns="http://www.w3.org/2000/svg">
  <defs>
    <pattern id="BGPattern" patternUnits="userSpaceOnUse" alignment="0 0" imageRepeat="None" />
    <mask fill="white" id="Clip6856">
      <path d="M 48 0  L 0 0  L 0 48  L 48 48  L 48 0  Z M 14.48 16.86  C 17.16 10.86  21.240000000000002 8.84  24.58 8.76  C 27.631126314527016 8.456474910529357  30.59577953111102 9.88475836122738  32.26 12.46  C 36.76 23.62  20.259999999999998 29.26  20.259999999999998 29.26  C 20.259999999999998 29.26  19.799999999999997 32.22  24.299999999999997 32.1  C 29.859999999999992 32.1  35.699999999999996 27.800000000000004  37.919999999999995 25.980000000000004  C 38.45288155903948 25.534624198605712  39.23973164701673 25.578338092382225  39.71999999999999 26.08  L 41.39999999999999 27.82  C 41.87819452108761 28.321701573611513  41.88692891532384 29.107797054872805  41.41999999999999 29.619999999999997  C 38.65186782276023 32.65957121955402  35.26170650278969 35.0674725192514  31.479999999999997 36.68  C 31.479999999999997 36.68  22.959999999999997 40.62  17.22 36.88  C 14.49494256339339 35.23957714869057  12.724022132645846 32.3897346067733  12.46 29.22  C 10.135670011712909 29.09279382271383  7.837089095764723 28.669371022407585  5.619999999999999 27.96  C 2.959999999999999 26.92  5.639999999999999 23.76  5.639999999999999 23.76  C 5.639999999999999 23.76  6.479999999999999 22.46  8.04 23.76  C 9.392069747259253 24.548112530930577  10.989073512883108 24.804773850405844  12.52 24.48  C 12.793708647751 21.857192868427923  13.454202034089786 19.289356335825087  14.48 16.86  Z M 26.519999999999996 14.779999999999994  C 26.173179831645264 14.463135204212715  25.707128121316444 14.310211986761068  25.239999999999995 14.36  C 23.04 14.5  19.64 17.919999999999998  19.479999999999997 24.22  C 19.479999999999997 24.22  20.979999999999997 24.68  24.299999999999997 22.4  C 27.619999999999997 20.119999999999997  28.299999999999997 16.459999999999997  26.519999999999996 14.779999999999994  Z " fill-rule="evenodd" />
    </mask>
  </defs>
  <g>
    <path d="M 48 0  L 0 0  L 0 48  L 48 48  L 48 0  Z M 14.48 16.86  C 17.16 10.86  21.240000000000002 8.84  24.58 8.76  C 27.631126314527016 8.456474910529357  30.59577953111102 9.88475836122738  32.26 12.46  C 36.76 23.62  20.259999999999998 29.26  20.259999999999998 29.26  C 20.259999999999998 29.26  19.799999999999997 32.22  24.299999999999997 32.1  C 29.859999999999992 32.1  35.699999999999996 27.800000000000004  37.919999999999995 25.980000000000004  C 38.45288155903948 25.534624198605712  39.23973164701673 25.578338092382225  39.71999999999999 26.08  L 41.39999999999999 27.82  C 41.87819452108761 28.321701573611513  41.88692891532384 29.107797054872805  41.41999999999999 29.619999999999997  C 38.65186782276023 32.65957121955402  35.26170650278969 35.0674725192514  31.479999999999997 36.68  C 31.479999999999997 36.68  22.959999999999997 40.62  17.22 36.88  C 14.49494256339339 35.23957714869057  12.724022132645846 32.3897346067733  12.46 29.22  C 10.135670011712909 29.09279382271383  7.837089095764723 28.669371022407585  5.619999999999999 27.96  C 2.959999999999999 26.92  5.639999999999999 23.76  5.639999999999999 23.76  C 5.639999999999999 23.76  6.479999999999999 22.46  8.04 23.76  C 9.392069747259253 24.548112530930577  10.989073512883108 24.804773850405844  12.52 24.48  C 12.793708647751 21.857192868427923  13.454202034089786 19.289356335825087  14.48 16.86  Z M 26.519999999999996 14.779999999999994  C 26.173179831645264 14.463135204212715  25.707128121316444 14.310211986761068  25.239999999999995 14.36  C 23.04 14.5  19.64 17.919999999999998  19.479999999999997 24.22  C 19.479999999999997 24.22  20.979999999999997 24.68  24.299999999999997 22.4  C 27.619999999999997 20.119999999999997  28.299999999999997 16.459999999999997  26.519999999999996 14.779999999999994  Z " fill-rule="nonzero" fill="rgba(224, 78, 57, 1)" stroke="none" class="fill" />
    <path d="M 48 0  L 0 0  L 0 48  L 48 48  L 48 0  Z " stroke-width="0" stroke-dasharray="0" stroke="rgba(255, 255, 255, 0)" fill="none" class="stroke" mask="url(#Clip6856)" />
    <path d="M 14.48 16.86  C 17.16 10.86  21.240000000000002 8.84  24.58 8.76  C 27.631126314527016 8.456474910529357  30.59577953111102 9.88475836122738  32.26 12.46  C 36.76 23.62  20.259999999999998 29.26  20.259999999999998 29.26  C 20.259999999999998 29.26  19.799999999999997 32.22  24.299999999999997 32.1  C 29.859999999999992 32.1  35.699999999999996 27.800000000000004  37.919999999999995 25.980000000000004  C 38.45288155903948 25.534624198605712  39.23973164701673 25.578338092382225  39.71999999999999 26.08  L 41.39999999999999 27.82  C 41.87819452108761 28.321701573611513  41.88692891532384 29.107797054872805  41.41999999999999 29.619999999999997  C 38.65186782276023 32.65957121955402  35.26170650278969 35.0674725192514  31.479999999999997 36.68  C 31.479999999999997 36.68  22.959999999999997 40.62  17.22 36.88  C 14.49494256339339 35.23957714869057  12.724022132645846 32.3897346067733  12.46 29.22  C 10.135670011712909 29.09279382271383  7.837089095764723 28.669371022407585  5.619999999999999 27.96  C 2.959999999999999 26.92  5.639999999999999 23.76  5.639999999999999 23.76  C 5.639999999999999 23.76  6.479999999999999 22.46  8.04 23.76  C 9.392069747259253 24.548112530930577  10.989073512883108 24.804773850405844  12.52 24.48  C 12.793708647751 21.857192868427923  13.454202034089786 19.289356335825087  14.48 16.86  Z " stroke-width="0" stroke-dasharray="0" stroke="rgba(255, 255, 255, 0)" fill="none" class="stroke" mask="url(#Clip6856)" />
    <path d="M 26.519999999999996 14.779999999999994  C 26.173179831645264 14.463135204212715  25.707128121316444 14.310211986761068  25.239999999999995 14.36  C 23.04 14.5  19.64 17.919999999999998  19.479999999999997 24.22  C 19.479999999999997 24.22  20.979999999999997 24.68  24.299999999999997 22.4  C 27.619999999999997 20.119999999999997  28.299999999999997 16.459999999999997  26.519999999999996 14.779999999999994  Z " stroke-width="0" stroke-dasharray="0" stroke="rgba(255, 255, 255, 0)" fill="none" class="stroke" mask="url(#Clip6856)" />
  </g>
</svg>