<?xml version="1.0" encoding="utf-8"?>
<svg version="1.1" xmlns:xlink="http://www.w3.org/1999/xlink" width="48px" height="50px" xmlns="http://www.w3.org/2000/svg">
  <defs>
    <pattern id="BGPattern" patternUnits="userSpaceOnUse" alignment="0 0" imageRepeat="None" />
    <mask fill="white" id="Clip6744">
      <path d="M 38.38 5.7  C 34.23783550596983 2.631178727048773  29.215083866940894 0.9826499069764282  24.059999999999995 1  C 13.879999999999999 1  5.139999999999999 7.339999999999999  1.6399999999999997 16.3  L 5.459999999999998 17.84  C 8.428485283813227 10.146961819344781  15.814143585741757 5.0643582567273  24.06 5.039999999999999  C 28.54 5.039999999999999  32.699999999999996 6.58  35.98 8.979999999999999  L 38.38 5.7  Z M 24.06 9.64  L 24.059999999999995 5.6  C 16.01790824008733 5.615883645371977  8.808656372054507 10.562319673768952  5.899999999999998 18.060000000000002  L 9.719999999999999 19.460000000000004  C 11.982156751729779 13.514721673427404  17.699019441256866 9.599826860933959  24.06 9.64  Z M 31.15999999999999 7.020000000000002  L 31.15999999999999 7.000000000000001  L 29.639999999999993 10.84  C 34.565739249108816 12.662566664176767  38.17267810855934 16.93773840706234  39.13999999999999 22.1  L 43.29999999999999 22.1  C 42.229743535747545 15.26912703396259  37.604805894207935 9.52414683343398  31.15999999999999 7.020000000000002  Z M 24.059999999999995 10.180000000000001  L 24.059999999999995 10.2  C 15.861307697274164 10.22718278670767  9.229334409459378 16.88118085113639  9.229334409459378 25.07991821604014  C 9.229334409459378 33.29791529352235  15.891337331977173 39.959918216040144  24.10933440945938 39.959918216040144  C 31.201629644502717 39.959918216040144  37.30819340575837 34.95438898144503  38.69999999999999 28.000000000000004  L 34.539999999999985 28.000000000000004  C 33.164950009626864 32.649181085140896  28.908168794912235 35.84989062444922  24.059999999999988 35.88  C 24.039975249614905 35.88011159575506  24.019950227148108 35.8801673939575  23.99992516580994 35.8801673939575  C 18.046295562633986 35.8801673939575  13.21992516580994 31.05379699713345  13.21992516580994 25.100167393957502  C 13.21992516580994 25.08677822778344  13.219950110583248 25.073389073227183  13.219999999999992 25.060000000000006  C 13.219950110583245 25.04661092677198  13.21992516580994 25.033221772217416  13.21992516580994 25.019832606042495  C 13.21992516580994 19.066203002866548  18.046295562633986 14.239832606042501  23.99992516580994 14.239832606042501  C 24.019950227147532 14.239832606042501  24.039975249615473 14.239888404244946  24.059999999999988 14.240000000000002  C 28.895309302002758 14.23647758798976  33.14372229041447 17.447297404231687  34.45999999999999 22.1  L 38.59999999999998 22.1  C 37.26002707866573 15.14141317637286  31.14624629376268 10.129290277057565  24.059999999999995 10.180000000000001  Z M 48 22.1  C 47.58141459915126 18.63748081256143  46.3848797296518 15.31453254640867  44.49999999999999 12.379999999999999  L 41 14.560000000000004  C 42.47480954950148 16.84140290499751  43.44324783245534 19.412538346360943  43.839999999999996 22.1  L 48 22.1  Z M 23.939999999999998 19.040000000000003  L 23.939999999999994 14.66  C 18.25330932063444 14.769182456606137  13.70040738579208 19.410337586549062  13.70040738579208 25.09807630168126  C 13.70040738579208 26.508051342445725  13.986014364583362 27.903416207362298  14.54 29.2  L 18.479999999999997 27.46  C 18.134500577247287 26.70644566762536  17.950556511688504 25.88891648736408  17.939999999999998 25.060000000000006  C 17.939999999999998 21.78  20.659999999999997 19.040000000000003  23.939999999999998 19.040000000000003  Z M 33.900000000000006 22.100000000000005  C 33.0264281729492 19.0379796763312  30.757414786213417 16.568759226059903  27.78 15.439999999999998  L 26.24 19.48  C 27.559999999999995 20.02  28.54 20.88  29.299999999999997 22.1  L 33.900000000000006 22.100000000000005  Z M 4.039999999999999 25.060000000000006  L 0 25.040000000000003  C 0 28.34  0.6599999999999999 31.619999999999997  2.0799999999999996 34.78  L 5.679999999999999 33.14  C 4.604289762728975 30.581649744909956  4.046861292516352 27.83529484288679  4.039999999999999 25.060000000000006  Z M 8.639999999999997 25.059999999999995  L 4.599999999999999 25.040000000000003  C 4.599999999999999 33.239999999999995  9.619999999999997 40.239999999999995  16.839999999999996 43.099999999999994  L 18.36 39.25999999999999  C 12.505672373679637 36.97902284783172  8.647767384738852 31.342988810490247  8.639999999999997 25.059999999999995  Z M 33.900000000000006 28.000000000000004  L 29.199999999999996 28.000000000000004  C 28.54 29.2  27.559999999999995 30.2  26.24 30.620000000000005  L 27.78 34.68  C 30.762079756351277 33.54716733580689  33.0319291688342 31.069619284273237  33.900000000000006 28.000000000000004  Z M 43.29999999999999 28.000000000000004  L 39.13999999999999 28.000000000000004  C 37.7222884652549 35.21770496124699  31.415496727426437 40.43711881324296  24.06 40.480000000000004  L 24.06 44.519999999999996  C 33.679767633248545 44.53869695638271  41.86348990867101 37.51192502343161  43.29999999999999 28.000000000000004  Z M 47.99999999999999 28.000000000000004  L 43.839999999999996 28.000000000000004  C 42.3036140333908 37.765498799248164  33.92532892377878 44.984364656317936  24.04 45.06  C 18.58 45.06  13.560000000000002 42.760000000000005  9.96 39.160000000000004  L 7.099999999999999 42  C 11.479999999999999 46.38  17.499999999999996 49  24.15999999999999 49  C 36.265618948468614 49.014242324907165  46.486804962263605 40.01068081946695  47.99999999999999 28.000000000000004  Z M 24.060000000000002 31.06  C 22.46603316517894 31.06483502210906  20.934775601020636 30.439391791678204  19.8 29.32  L 16.740000000000002 32.379999999999995  C 18.681026650131166 34.32535180766521  21.311953775341895 35.42516560590904  24.060000000000002 35.44  L 24.060000000000002 31.06  Z " fill-rule="evenodd" />
    </mask>
  </defs>
  <g>
    <path d="M 38.38 5.7  C 34.23783550596983 2.631178727048773  29.215083866940894 0.9826499069764282  24.059999999999995 1  C 13.879999999999999 1  5.139999999999999 7.339999999999999  1.6399999999999997 16.3  L 5.459999999999998 17.84  C 8.428485283813227 10.146961819344781  15.814143585741757 5.0643582567273  24.06 5.039999999999999  C 28.54 5.039999999999999  32.699999999999996 6.58  35.98 8.979999999999999  L 38.38 5.7  Z M 24.06 9.64  L 24.059999999999995 5.6  C 16.01790824008733 5.615883645371977  8.808656372054507 10.562319673768952  5.899999999999998 18.060000000000002  L 9.719999999999999 19.460000000000004  C 11.982156751729779 13.514721673427404  17.699019441256866 9.599826860933959  24.06 9.64  Z M 31.15999999999999 7.020000000000002  L 31.15999999999999 7.000000000000001  L 29.639999999999993 10.84  C 34.565739249108816 12.662566664176767  38.17267810855934 16.93773840706234  39.13999999999999 22.1  L 43.29999999999999 22.1  C 42.229743535747545 15.26912703396259  37.604805894207935 9.52414683343398  31.15999999999999 7.020000000000002  Z M 24.059999999999995 10.180000000000001  L 24.059999999999995 10.2  C 15.861307697274164 10.22718278670767  9.229334409459378 16.88118085113639  9.229334409459378 25.07991821604014  C 9.229334409459378 33.29791529352235  15.891337331977173 39.959918216040144  24.10933440945938 39.959918216040144  C 31.201629644502717 39.959918216040144  37.30819340575837 34.95438898144503  38.69999999999999 28.000000000000004  L 34.539999999999985 28.000000000000004  C 33.164950009626864 32.649181085140896  28.908168794912235 35.84989062444922  24.059999999999988 35.88  C 24.039975249614905 35.88011159575506  24.019950227148108 35.8801673939575  23.99992516580994 35.8801673939575  C 18.046295562633986 35.8801673939575  13.21992516580994 31.05379699713345  13.21992516580994 25.100167393957502  C 13.21992516580994 25.08677822778344  13.219950110583248 25.073389073227183  13.219999999999992 25.060000000000006  C 13.219950110583245 25.04661092677198  13.21992516580994 25.033221772217416  13.21992516580994 25.019832606042495  C 13.21992516580994 19.066203002866548  18.046295562633986 14.239832606042501  23.99992516580994 14.239832606042501  C 24.019950227147532 14.239832606042501  24.039975249615473 14.239888404244946  24.059999999999988 14.240000000000002  C 28.895309302002758 14.23647758798976  33.14372229041447 17.447297404231687  34.45999999999999 22.1  L 38.59999999999998 22.1  C 37.26002707866573 15.14141317637286  31.14624629376268 10.129290277057565  24.059999999999995 10.180000000000001  Z M 48 22.1  C 47.58141459915126 18.63748081256143  46.3848797296518 15.31453254640867  44.49999999999999 12.379999999999999  L 41 14.560000000000004  C 42.47480954950148 16.84140290499751  43.44324783245534 19.412538346360943  43.839999999999996 22.1  L 48 22.1  Z M 23.939999999999998 19.040000000000003  L 23.939999999999994 14.66  C 18.25330932063444 14.769182456606137  13.70040738579208 19.410337586549062  13.70040738579208 25.09807630168126  C 13.70040738579208 26.508051342445725  13.986014364583362 27.903416207362298  14.54 29.2  L 18.479999999999997 27.46  C 18.134500577247287 26.70644566762536  17.950556511688504 25.88891648736408  17.939999999999998 25.060000000000006  C 17.939999999999998 21.78  20.659999999999997 19.040000000000003  23.939999999999998 19.040000000000003  Z M 33.900000000000006 22.100000000000005  C 33.0264281729492 19.0379796763312  30.757414786213417 16.568759226059903  27.78 15.439999999999998  L 26.24 19.48  C 27.559999999999995 20.02  28.54 20.88  29.299999999999997 22.1  L 33.900000000000006 22.100000000000005  Z M 4.039999999999999 25.060000000000006  L 0 25.040000000000003  C 0 28.34  0.6599999999999999 31.619999999999997  2.0799999999999996 34.78  L 5.679999999999999 33.14  C 4.604289762728975 30.581649744909956  4.046861292516352 27.83529484288679  4.039999999999999 25.060000000000006  Z M 8.639999999999997 25.059999999999995  L 4.599999999999999 25.040000000000003  C 4.599999999999999 33.239999999999995  9.619999999999997 40.239999999999995  16.839999999999996 43.099999999999994  L 18.36 39.25999999999999  C 12.505672373679637 36.97902284783172  8.647767384738852 31.342988810490247  8.639999999999997 25.059999999999995  Z M 33.900000000000006 28.000000000000004  L 29.199999999999996 28.000000000000004  C 28.54 29.2  27.559999999999995 30.2  26.24 30.620000000000005  L 27.78 34.68  C 30.762079756351277 33.54716733580689  33.0319291688342 31.069619284273237  33.900000000000006 28.000000000000004  Z M 43.29999999999999 28.000000000000004  L 39.13999999999999 28.000000000000004  C 37.7222884652549 35.21770496124699  31.415496727426437 40.43711881324296  24.06 40.480000000000004  L 24.06 44.519999999999996  C 33.679767633248545 44.53869695638271  41.86348990867101 37.51192502343161  43.29999999999999 28.000000000000004  Z M 47.99999999999999 28.000000000000004  L 43.839999999999996 28.000000000000004  C 42.3036140333908 37.765498799248164  33.92532892377878 44.984364656317936  24.04 45.06  C 18.58 45.06  13.560000000000002 42.760000000000005  9.96 39.160000000000004  L 7.099999999999999 42  C 11.479999999999999 46.38  17.499999999999996 49  24.15999999999999 49  C 36.265618948468614 49.014242324907165  46.486804962263605 40.01068081946695  47.99999999999999 28.000000000000004  Z M 24.060000000000002 31.06  C 22.46603316517894 31.06483502210906  20.934775601020636 30.439391791678204  19.8 29.32  L 16.740000000000002 32.379999999999995  C 18.681026650131166 34.32535180766521  21.311953775341895 35.42516560590904  24.060000000000002 35.44  L 24.060000000000002 31.06  Z " fill-rule="nonzero" fill="rgba(240, 152, 32, 1)" stroke="none" class="fill" />
    <path d="M 38.38 5.7  C 34.23783550596983 2.631178727048773  29.215083866940894 0.9826499069764282  24.059999999999995 1  C 13.879999999999999 1  5.139999999999999 7.339999999999999  1.6399999999999997 16.3  L 5.459999999999998 17.84  C 8.428485283813227 10.146961819344781  15.814143585741757 5.0643582567273  24.06 5.039999999999999  C 28.54 5.039999999999999  32.699999999999996 6.58  35.98 8.979999999999999  L 38.38 5.7  Z " stroke-width="0" stroke-dasharray="0" stroke="rgba(255, 255, 255, 0)" fill="none" class="stroke" mask="url(#Clip6744)" />
    <path d="M 24.06 9.64  L 24.059999999999995 5.6  C 16.01790824008733 5.615883645371977  8.808656372054507 10.562319673768952  5.899999999999998 18.060000000000002  L 9.719999999999999 19.460000000000004  C 11.982156751729779 13.514721673427404  17.699019441256866 9.599826860933959  24.06 9.64  Z " stroke-width="0" stroke-dasharray="0" stroke="rgba(255, 255, 255, 0)" fill="none" class="stroke" mask="url(#Clip6744)" />
    <path d="M 31.15999999999999 7.020000000000002  L 31.15999999999999 7.000000000000001  L 29.639999999999993 10.84  C 34.565739249108816 12.662566664176767  38.17267810855934 16.93773840706234  39.13999999999999 22.1  L 43.29999999999999 22.1  C 42.229743535747545 15.26912703396259  37.604805894207935 9.52414683343398  31.15999999999999 7.020000000000002  Z " stroke-width="0" stroke-dasharray="0" stroke="rgba(255, 255, 255, 0)" fill="none" class="stroke" mask="url(#Clip6744)" />
    <path d="M 24.059999999999995 10.180000000000001  L 24.059999999999995 10.2  C 15.861307697274164 10.22718278670767  9.229334409459378 16.88118085113639  9.229334409459378 25.07991821604014  C 9.229334409459378 33.29791529352235  15.891337331977173 39.959918216040144  24.10933440945938 39.959918216040144  C 31.201629644502717 39.959918216040144  37.30819340575837 34.95438898144503  38.69999999999999 28.000000000000004  L 34.539999999999985 28.000000000000004  C 33.164950009626864 32.649181085140896  28.908168794912235 35.84989062444922  24.059999999999988 35.88  C 24.039975249614905 35.88011159575506  24.019950227148108 35.8801673939575  23.99992516580994 35.8801673939575  C 18.046295562633986 35.8801673939575  13.21992516580994 31.05379699713345  13.21992516580994 25.100167393957502  C 13.21992516580994 25.08677822778344  13.219950110583248 25.073389073227183  13.219999999999992 25.060000000000006  C 13.219950110583245 25.04661092677198  13.21992516580994 25.033221772217416  13.21992516580994 25.019832606042495  C 13.21992516580994 19.066203002866548  18.046295562633986 14.239832606042501  23.99992516580994 14.239832606042501  C 24.019950227147532 14.239832606042501  24.039975249615473 14.239888404244946  24.059999999999988 14.240000000000002  C 28.895309302002758 14.23647758798976  33.14372229041447 17.447297404231687  34.45999999999999 22.1  L 38.59999999999998 22.1  C 37.26002707866573 15.14141317637286  31.14624629376268 10.129290277057565  24.059999999999995 10.180000000000001  Z " stroke-width="0" stroke-dasharray="0" stroke="rgba(255, 255, 255, 0)" fill="none" class="stroke" mask="url(#Clip6744)" />
    <path d="M 48 22.1  C 47.58141459915126 18.63748081256143  46.3848797296518 15.31453254640867  44.49999999999999 12.379999999999999  L 41 14.560000000000004  C 42.47480954950148 16.84140290499751  43.44324783245534 19.412538346360943  43.839999999999996 22.1  L 48 22.1  Z " stroke-width="0" stroke-dasharray="0" stroke="rgba(255, 255, 255, 0)" fill="none" class="stroke" mask="url(#Clip6744)" />
    <path d="M 23.939999999999998 19.040000000000003  L 23.939999999999994 14.66  C 18.25330932063444 14.769182456606137  13.70040738579208 19.410337586549062  13.70040738579208 25.09807630168126  C 13.70040738579208 26.508051342445725  13.986014364583362 27.903416207362298  14.54 29.2  L 18.479999999999997 27.46  C 18.134500577247287 26.70644566762536  17.950556511688504 25.88891648736408  17.939999999999998 25.060000000000006  C 17.939999999999998 21.78  20.659999999999997 19.040000000000003  23.939999999999998 19.040000000000003  Z " stroke-width="0" stroke-dasharray="0" stroke="rgba(255, 255, 255, 0)" fill="none" class="stroke" mask="url(#Clip6744)" />
    <path d="M 33.900000000000006 22.100000000000005  C 33.0264281729492 19.0379796763312  30.757414786213417 16.568759226059903  27.78 15.439999999999998  L 26.24 19.48  C 27.559999999999995 20.02  28.54 20.88  29.299999999999997 22.1  L 33.900000000000006 22.100000000000005  Z " stroke-width="0" stroke-dasharray="0" stroke="rgba(255, 255, 255, 0)" fill="none" class="stroke" mask="url(#Clip6744)" />
    <path d="M 4.039999999999999 25.060000000000006  L 0 25.040000000000003  C 0 28.34  0.6599999999999999 31.619999999999997  2.0799999999999996 34.78  L 5.679999999999999 33.14  C 4.604289762728975 30.581649744909956  4.046861292516352 27.83529484288679  4.039999999999999 25.060000000000006  Z " stroke-width="0" stroke-dasharray="0" stroke="rgba(255, 255, 255, 0)" fill="none" class="stroke" mask="url(#Clip6744)" />
    <path d="M 8.639999999999997 25.059999999999995  L 4.599999999999999 25.040000000000003  C 4.599999999999999 33.239999999999995  9.619999999999997 40.239999999999995  16.839999999999996 43.099999999999994  L 18.36 39.25999999999999  C 12.505672373679637 36.97902284783172  8.647767384738852 31.342988810490247  8.639999999999997 25.059999999999995  Z " stroke-width="0" stroke-dasharray="0" stroke="rgba(255, 255, 255, 0)" fill="none" class="stroke" mask="url(#Clip6744)" />
    <path d="M 33.900000000000006 28.000000000000004  L 29.199999999999996 28.000000000000004  C 28.54 29.2  27.559999999999995 30.2  26.24 30.620000000000005  L 27.78 34.68  C 30.762079756351277 33.54716733580689  33.0319291688342 31.069619284273237  33.900000000000006 28.000000000000004  Z " stroke-width="0" stroke-dasharray="0" stroke="rgba(255, 255, 255, 0)" fill="none" class="stroke" mask="url(#Clip6744)" />
    <path d="M 43.29999999999999 28.000000000000004  L 39.13999999999999 28.000000000000004  C 37.7222884652549 35.21770496124699  31.415496727426437 40.43711881324296  24.06 40.480000000000004  L 24.06 44.519999999999996  C 33.679767633248545 44.53869695638271  41.86348990867101 37.51192502343161  43.29999999999999 28.000000000000004  Z " stroke-width="0" stroke-dasharray="0" stroke="rgba(255, 255, 255, 0)" fill="none" class="stroke" mask="url(#Clip6744)" />
    <path d="M 47.99999999999999 28.000000000000004  L 43.839999999999996 28.000000000000004  C 42.3036140333908 37.765498799248164  33.92532892377878 44.984364656317936  24.04 45.06  C 18.58 45.06  13.560000000000002 42.760000000000005  9.96 39.160000000000004  L 7.099999999999999 42  C 11.479999999999999 46.38  17.499999999999996 49  24.15999999999999 49  C 36.265618948468614 49.014242324907165  46.486804962263605 40.01068081946695  47.99999999999999 28.000000000000004  Z " stroke-width="0" stroke-dasharray="0" stroke="rgba(255, 255, 255, 0)" fill="none" class="stroke" mask="url(#Clip6744)" />
    <path d="M 24.060000000000002 31.06  C 22.46603316517894 31.06483502210906  20.934775601020636 30.439391791678204  19.8 29.32  L 16.740000000000002 32.379999999999995  C 18.681026650131166 34.32535180766521  21.311953775341895 35.42516560590904  24.060000000000002 35.44  L 24.060000000000002 31.06  Z " stroke-width="0" stroke-dasharray="0" stroke="rgba(255, 255, 255, 0)" fill="none" class="stroke" mask="url(#Clip6744)" />
  </g>
</svg>