<?xml version="1.0" encoding="utf-8"?>
<svg version="1.1" xmlns:xlink="http://www.w3.org/1999/xlink" width="50px" height="50px" xmlns="http://www.w3.org/2000/svg">
  <defs>
    <pattern id="BGPattern" patternUnits="userSpaceOnUse" alignment="0 0" imageRepeat="None" />
    <mask fill="white" id="Clip1722">
      <path d="M 50 25  C 50 11.189516129032256  38.810483870967744 0  25 0  C 11.189516129032256 0  0 11.189516129032256  0 25  C 0 38.810483870967744  11.189516129032256 50  25 50  C 38.810483870967744 50  50 38.810483870967744  50 25  Z M 29.03225806451616 21.06854838709677  C 28.185483870967744 21.814516129032256  26.854838709677438 21.09879032258064  27.02620967741933 19.969758064516128  C 27.42943548387097 17.429435483870975  30.47379032258067 15.725806451612897  33.064516129032256 15.725806451612897  C 35.6552419354839 15.725806451612897  38.69959677419354 17.429435483870975  39.10282258064518 19.969758064516128  C 39.274193548387075 21.08870967741936  37.95362903225805 21.814516129032256  37.106854838709694 21.058467741935488  L 36.149193548387075 20.201612903225794  C 34.6572580645161 18.870967741935488  31.491935483870975 18.870967741935488  30 20.201612903225794  L 29.03225806451616 21.06854838709677  Z M 13.709677419354845 18.548387096774206  C 13.709677419354845 16.764112903225794  15.151209677419358 15.322580645161283  16.935483870967744 15.322580645161283  C 18.7197580645161 15.322580645161283  20.16129032258067 16.764112903225794  20.16129032258067 18.548387096774206  C 20.16129032258067 20.33266129032259  18.7197580645161 21.774193548387103  16.935483870967744 21.774193548387103  C 15.151209677419358 21.774193548387103  13.709677419354845 20.33266129032259  13.709677419354845 18.548387096774206  Z M 38.60887096774195 28  C 39.576612903225794 28.225806451612893  40.33266129032256 29.072580645161285  40.211693548387075 30.040322580645153  C 39.314516129032256 37.19758064516128  33.205645161290306 42.741935483870975  25.80645161290323 42.741935483870975  L 24.19354838709677 42.741935483870975  C 16.794354838709694 42.741935483870975  10.685483870967744 37.19758064516128  9.788306451612897 30.040322580645153  C 9.66733870967741 29.08266129032259  10.423387096774206 28.225806451612893  11.39112903225805 28  L 38.60887096774195 28  Z " fill-rule="evenodd" />
    </mask>
  </defs>
  <g>
    <path d="M 50 25  C 50 11.189516129032256  38.810483870967744 0  25 0  C 11.189516129032256 0  0 11.189516129032256  0 25  C 0 38.810483870967744  11.189516129032256 50  25 50  C 38.810483870967744 50  50 38.810483870967744  50 25  Z M 29.03225806451616 21.06854838709677  C 28.185483870967744 21.814516129032256  26.854838709677438 21.09879032258064  27.02620967741933 19.969758064516128  C 27.42943548387097 17.429435483870975  30.47379032258067 15.725806451612897  33.064516129032256 15.725806451612897  C 35.6552419354839 15.725806451612897  38.69959677419354 17.429435483870975  39.10282258064518 19.969758064516128  C 39.274193548387075 21.08870967741936  37.95362903225805 21.814516129032256  37.106854838709694 21.058467741935488  L 36.149193548387075 20.201612903225794  C 34.6572580645161 18.870967741935488  31.491935483870975 18.870967741935488  30 20.201612903225794  L 29.03225806451616 21.06854838709677  Z M 13.709677419354845 18.548387096774206  C 13.709677419354845 16.764112903225794  15.151209677419358 15.322580645161283  16.935483870967744 15.322580645161283  C 18.7197580645161 15.322580645161283  20.16129032258067 16.764112903225794  20.16129032258067 18.548387096774206  C 20.16129032258067 20.33266129032259  18.7197580645161 21.774193548387103  16.935483870967744 21.774193548387103  C 15.151209677419358 21.774193548387103  13.709677419354845 20.33266129032259  13.709677419354845 18.548387096774206  Z M 38.60887096774195 28  C 39.576612903225794 28.225806451612893  40.33266129032256 29.072580645161285  40.211693548387075 30.040322580645153  C 39.314516129032256 37.19758064516128  33.205645161290306 42.741935483870975  25.80645161290323 42.741935483870975  L 24.19354838709677 42.741935483870975  C 16.794354838709694 42.741935483870975  10.685483870967744 37.19758064516128  9.788306451612897 30.040322580645153  C 9.66733870967741 29.08266129032259  10.423387096774206 28.225806451612893  11.39112903225805 28  L 38.60887096774195 28  Z " fill-rule="nonzero" fill="rgba(0, 0, 0, 1)" stroke="none" class="fill" />
    <path d="M 50 25  C 50 11.189516129032256  38.810483870967744 0  25 0  C 11.189516129032256 0  0 11.189516129032256  0 25  C 0 38.810483870967744  11.189516129032256 50  25 50  C 38.810483870967744 50  50 38.810483870967744  50 25  Z " stroke-width="0" stroke-dasharray="0" stroke="rgba(255, 255, 255, 0)" fill="none" class="stroke" mask="url(#Clip1722)" />
    <path d="M 29.03225806451616 21.06854838709677  C 28.185483870967744 21.814516129032256  26.854838709677438 21.09879032258064  27.02620967741933 19.969758064516128  C 27.42943548387097 17.429435483870975  30.47379032258067 15.725806451612897  33.064516129032256 15.725806451612897  C 35.6552419354839 15.725806451612897  38.69959677419354 17.429435483870975  39.10282258064518 19.969758064516128  C 39.274193548387075 21.08870967741936  37.95362903225805 21.814516129032256  37.106854838709694 21.058467741935488  L 36.149193548387075 20.201612903225794  C 34.6572580645161 18.870967741935488  31.491935483870975 18.870967741935488  30 20.201612903225794  L 29.03225806451616 21.06854838709677  Z " stroke-width="0" stroke-dasharray="0" stroke="rgba(255, 255, 255, 0)" fill="none" class="stroke" mask="url(#Clip1722)" />
    <path d="M 13.709677419354845 18.548387096774206  C 13.709677419354845 16.764112903225794  15.151209677419358 15.322580645161283  16.935483870967744 15.322580645161283  C 18.7197580645161 15.322580645161283  20.16129032258067 16.764112903225794  20.16129032258067 18.548387096774206  C 20.16129032258067 20.33266129032259  18.7197580645161 21.774193548387103  16.935483870967744 21.774193548387103  C 15.151209677419358 21.774193548387103  13.709677419354845 20.33266129032259  13.709677419354845 18.548387096774206  Z " stroke-width="0" stroke-dasharray="0" stroke="rgba(255, 255, 255, 0)" fill="none" class="stroke" mask="url(#Clip1722)" />
    <path d="M 38.60887096774195 28  C 39.576612903225794 28.225806451612893  40.33266129032256 29.072580645161285  40.211693548387075 30.040322580645153  C 39.314516129032256 37.19758064516128  33.205645161290306 42.741935483870975  25.80645161290323 42.741935483870975  L 24.19354838709677 42.741935483870975  C 16.794354838709694 42.741935483870975  10.685483870967744 37.19758064516128  9.788306451612897 30.040322580645153  C 9.66733870967741 29.08266129032259  10.423387096774206 28.225806451612893  11.39112903225805 28  L 38.60887096774195 28  Z " stroke-width="0" stroke-dasharray="0" stroke="rgba(255, 255, 255, 0)" fill="none" class="stroke" mask="url(#Clip1722)" />
  </g>
</svg>