<?xml version="1.0" encoding="utf-8"?>
<svg version="1.1" xmlns:xlink="http://www.w3.org/1999/xlink" width="50px" height="50px" xmlns="http://www.w3.org/2000/svg">
  <defs>
    <pattern id="BGPattern" patternUnits="userSpaceOnUse" alignment="0 0" imageRepeat="None" />
    <mask fill="white" id="Clip702">
      <path d="M 36.660156249999986 29.257812500000004  C 12.451171875 17.48046875  4.35546875 33.720703125  0.22460937499999997 40.25390625  C -0.21484375000000003 40.99609375  0.019531249999999972 41.962890625  0.76171875 42.421875  L 11.103515625 48.7890625  C 11.85546875 49.24804687499999  12.83203125 49.02343749999999  13.291015625 48.27148437499999  C 13.291015625 48.26171874999999  13.300781249999998 48.251953125  13.300781249999998 48.251953125  C 19.853515625 37.294921875  21.162109375 38.88671874999999  40.732421875 48.18359375  C 41.5234375 48.56445312499999  42.470703125 48.22265624999999  42.85156249999999 47.431640625  C 42.861328125 47.421875  42.861328125 47.40234375  42.87109374999999 47.392578125  L 47.79296874999999 36.25000000000001  C 48.14453124999999 35.458984375  47.78320312499999 34.53125  47.00195312499999 34.169921875  C 44.83398437499999 33.15429687500001  40.53710937499999 31.123046875000004  36.660156249999986 29.257812500000004  Z M 13.310546875000002 20.800781250000004  C 37.529296875 32.51953125  45.615234375 16.367187500000004  49.775390625 9.775390624999996  C 50.21484375000001 9.033203124999996  49.98046875 8.066406249999996  49.23828125 7.6074218749999964  L 38.90625 1.25  C 38.173828125 0.7617187500000001  37.18749999999999 0.9472656250000001  36.69921874999999 1.6796875000000002  C 36.6796875 1.7089843750000004  36.66015625 1.7382812500000004  36.64062499999999 1.7773437500000002  C 30.068359374999993 12.773437500000002  28.720703124999993 11.11328125  9.238281249999991 1.8652343750000002  C 8.447265624999991 1.484375  7.499999999999991 1.8261718750000002  7.119140624999991 2.6171875  C 7.109374999999991 2.626953125  7.109374999999991 2.646484375  7.09960937499999 2.65625  L 2.16796875 13.798828125000002  C 1.8164062499999998 14.58984375  2.177734375 15.517578125  2.9589843749999996 15.878906250000002  C 5.126953125 16.894531250000004  9.43359375 18.92578125  13.310546875000002 20.800781250000004  Z " fill-rule="evenodd" />
    </mask>
  </defs>
  <g>
    <path d="M 36.660156249999986 29.257812500000004  C 12.451171875 17.48046875  4.35546875 33.720703125  0.22460937499999997 40.25390625  C -0.21484375000000003 40.99609375  0.019531249999999972 41.962890625  0.76171875 42.421875  L 11.103515625 48.7890625  C 11.85546875 49.24804687499999  12.83203125 49.02343749999999  13.291015625 48.27148437499999  C 13.291015625 48.26171874999999  13.300781249999998 48.251953125  13.300781249999998 48.251953125  C 19.853515625 37.294921875  21.162109375 38.88671874999999  40.732421875 48.18359375  C 41.5234375 48.56445312499999  42.470703125 48.22265624999999  42.85156249999999 47.431640625  C 42.861328125 47.421875  42.861328125 47.40234375  42.87109374999999 47.392578125  L 47.79296874999999 36.25000000000001  C 48.14453124999999 35.458984375  47.78320312499999 34.53125  47.00195312499999 34.169921875  C 44.83398437499999 33.15429687500001  40.53710937499999 31.123046875000004  36.660156249999986 29.257812500000004  Z M 13.310546875000002 20.800781250000004  C 37.529296875 32.51953125  45.615234375 16.367187500000004  49.775390625 9.775390624999996  C 50.21484375000001 9.033203124999996  49.98046875 8.066406249999996  49.23828125 7.6074218749999964  L 38.90625 1.25  C 38.173828125 0.7617187500000001  37.18749999999999 0.9472656250000001  36.69921874999999 1.6796875000000002  C 36.6796875 1.7089843750000004  36.66015625 1.7382812500000004  36.64062499999999 1.7773437500000002  C 30.068359374999993 12.773437500000002  28.720703124999993 11.11328125  9.238281249999991 1.8652343750000002  C 8.447265624999991 1.484375  7.499999999999991 1.8261718750000002  7.119140624999991 2.6171875  C 7.109374999999991 2.626953125  7.109374999999991 2.646484375  7.09960937499999 2.65625  L 2.16796875 13.798828125000002  C 1.8164062499999998 14.58984375  2.177734375 15.517578125  2.9589843749999996 15.878906250000002  C 5.126953125 16.894531250000004  9.43359375 18.92578125  13.310546875000002 20.800781250000004  Z " fill-rule="nonzero" fill="rgba(0, 0, 0, 1)" stroke="none" class="fill" />
    <path d="M 36.660156249999986 29.257812500000004  C 12.451171875 17.48046875  4.35546875 33.720703125  0.22460937499999997 40.25390625  C -0.21484375000000003 40.99609375  0.019531249999999972 41.962890625  0.76171875 42.421875  L 11.103515625 48.7890625  C 11.85546875 49.24804687499999  12.83203125 49.02343749999999  13.291015625 48.27148437499999  C 13.291015625 48.26171874999999  13.300781249999998 48.251953125  13.300781249999998 48.251953125  C 19.853515625 37.294921875  21.162109375 38.88671874999999  40.732421875 48.18359375  C 41.5234375 48.56445312499999  42.470703125 48.22265624999999  42.85156249999999 47.431640625  C 42.861328125 47.421875  42.861328125 47.40234375  42.87109374999999 47.392578125  L 47.79296874999999 36.25000000000001  C 48.14453124999999 35.458984375  47.78320312499999 34.53125  47.00195312499999 34.169921875  C 44.83398437499999 33.15429687500001  40.53710937499999 31.123046875000004  36.660156249999986 29.257812500000004  Z " stroke-width="0" stroke-dasharray="0" stroke="rgba(255, 255, 255, 0)" fill="none" class="stroke" mask="url(#Clip702)" />
    <path d="M 13.310546875000002 20.800781250000004  C 37.529296875 32.51953125  45.615234375 16.367187500000004  49.775390625 9.775390624999996  C 50.21484375000001 9.033203124999996  49.98046875 8.066406249999996  49.23828125 7.6074218749999964  L 38.90625 1.25  C 38.173828125 0.7617187500000001  37.18749999999999 0.9472656250000001  36.69921874999999 1.6796875000000002  C 36.6796875 1.7089843750000004  36.66015625 1.7382812500000004  36.64062499999999 1.7773437500000002  C 30.068359374999993 12.773437500000002  28.720703124999993 11.11328125  9.238281249999991 1.8652343750000002  C 8.447265624999991 1.484375  7.499999999999991 1.8261718750000002  7.119140624999991 2.6171875  C 7.109374999999991 2.626953125  7.109374999999991 2.646484375  7.09960937499999 2.65625  L 2.16796875 13.798828125000002  C 1.8164062499999998 14.58984375  2.177734375 15.517578125  2.9589843749999996 15.878906250000002  C 5.126953125 16.894531250000004  9.43359375 18.92578125  13.310546875000002 20.800781250000004  Z " stroke-width="0" stroke-dasharray="0" stroke="rgba(255, 255, 255, 0)" fill="none" class="stroke" mask="url(#Clip702)" />
  </g>
</svg>