<?xml version="1.0" encoding="utf-8"?>
<svg version="1.1" xmlns:xlink="http://www.w3.org/1999/xlink" width="50px" height="50px" xmlns="http://www.w3.org/2000/svg">
  <defs>
    <pattern id="BGPattern" patternUnits="userSpaceOnUse" alignment="0 0" imageRepeat="None" />
    <mask fill="white" id="Clip1190">
      <path d="M 36.6633064516129 27.419354838709666  C 38.31653225806451 26.502016129032256  38.31653225806451 24.112903225806463  36.6633064516129 23.185483870967744  L 18.92137096774195 12.399193548387103  C 17.32862903225805 11.512096774193537  15.322580645161283 12.65120967741936  16 14.51612903225808  L 16 35.48387096774195  C 15.322580645161283 37.33870967741936  17.31854838709677 38.48790322580646  18.92137096774195 37.6008064516129  L 36.6633064516129 27.419354838709666  Z M 25 50  C 38.810483870967744 50  50 38.810483870967744  50 25  C 50 11.189516129032256  38.810483870967744 0  25 0  C 11.189516129032256 0  0 11.189516129032256  0 25  C 0 38.810483870967744  11.189516129032256 50  25 50  Z M 25 45.16129032258064  C 13.860887096774208 45.16129032258064  4.838709677419359 36.139112903225794  4.838709677419359 25  C 4.838709677419359 13.860887096774208  13.860887096774208 4.838709677419359  25 4.838709677419359  C 36.139112903225794 4.838709677419359  45.16129032258064 13.860887096774208  45.16129032258064 25  C 45.16129032258064 36.139112903225794  36.139112903225794 45.16129032258064  25 45.16129032258064  Z " fill-rule="evenodd" />
    </mask>
  </defs>
  <g>
    <path d="M 36.6633064516129 27.419354838709666  C 38.31653225806451 26.502016129032256  38.31653225806451 24.112903225806463  36.6633064516129 23.185483870967744  L 18.92137096774195 12.399193548387103  C 17.32862903225805 11.512096774193537  15.322580645161283 12.65120967741936  16 14.51612903225808  L 16 35.48387096774195  C 15.322580645161283 37.33870967741936  17.31854838709677 38.48790322580646  18.92137096774195 37.6008064516129  L 36.6633064516129 27.419354838709666  Z M 25 50  C 38.810483870967744 50  50 38.810483870967744  50 25  C 50 11.189516129032256  38.810483870967744 0  25 0  C 11.189516129032256 0  0 11.189516129032256  0 25  C 0 38.810483870967744  11.189516129032256 50  25 50  Z M 25 45.16129032258064  C 13.860887096774208 45.16129032258064  4.838709677419359 36.139112903225794  4.838709677419359 25  C 4.838709677419359 13.860887096774208  13.860887096774208 4.838709677419359  25 4.838709677419359  C 36.139112903225794 4.838709677419359  45.16129032258064 13.860887096774208  45.16129032258064 25  C 45.16129032258064 36.139112903225794  36.139112903225794 45.16129032258064  25 45.16129032258064  Z " fill-rule="nonzero" fill="rgba(0, 0, 0, 1)" stroke="none" class="fill" />
    <path d="M 36.6633064516129 27.419354838709666  C 38.31653225806451 26.502016129032256  38.31653225806451 24.112903225806463  36.6633064516129 23.185483870967744  L 18.92137096774195 12.399193548387103  C 17.32862903225805 11.512096774193537  15.322580645161283 12.65120967741936  16 14.51612903225808  L 16 35.48387096774195  C 15.322580645161283 37.33870967741936  17.31854838709677 38.48790322580646  18.92137096774195 37.6008064516129  L 36.6633064516129 27.419354838709666  Z " stroke-width="0" stroke-dasharray="0" stroke="rgba(255, 255, 255, 0)" fill="none" class="stroke" mask="url(#Clip1190)" />
    <path d="M 25 50  C 38.810483870967744 50  50 38.810483870967744  50 25  C 50 11.189516129032256  38.810483870967744 0  25 0  C 11.189516129032256 0  0 11.189516129032256  0 25  C 0 38.810483870967744  11.189516129032256 50  25 50  Z " stroke-width="0" stroke-dasharray="0" stroke="rgba(255, 255, 255, 0)" fill="none" class="stroke" mask="url(#Clip1190)" />
    <path d="M 25 45.16129032258064  C 13.860887096774208 45.16129032258064  4.838709677419359 36.139112903225794  4.838709677419359 25  C 4.838709677419359 13.860887096774208  13.860887096774208 4.838709677419359  25 4.838709677419359  C 36.139112903225794 4.838709677419359  45.16129032258064 13.860887096774208  45.16129032258064 25  C 45.16129032258064 36.139112903225794  36.139112903225794 45.16129032258064  25 45.16129032258064  Z " stroke-width="0" stroke-dasharray="0" stroke="rgba(255, 255, 255, 0)" fill="none" class="stroke" mask="url(#Clip1190)" />
  </g>
</svg>