<?xml version="1.0" encoding="utf-8"?>
<svg version="1.1" xmlns:xlink="http://www.w3.org/1999/xlink" width="16px" height="17px" xmlns="http://www.w3.org/2000/svg">
  <defs>
    <pattern id="BGPattern" patternUnits="userSpaceOnUse" alignment="0 0" imageRepeat="None" />
    <mask fill="white" id="Clip6054">
      <path d="M 14 17  L 2 17  C 2 17  0.5 17  0.5 15.5  C 0.5 14  2 9.5  8 9.5  C 14 9.5  15.5 14  15.5 15.5  C 15.5 17  14 17  14 17  Z M 7.999999999999998 8.075  C 10.071067811865472 8.075  11.749999999999996 6.396067811865473  11.749999999999996 4.324999999999999  C 11.749999999999996 2.2539321881345256  10.071067811865472 0.5749999999999993  7.999999999999998 0.5749999999999993  C 5.9289321881345245 0.5749999999999993  4.249999999999998 2.2539321881345256  4.249999999999998 4.324999999999999  C 4.249999999999998 6.396067811865473  5.9289321881345245 8.075  7.999999999999998 8.075  Z " fill-rule="evenodd" />
    </mask>
  </defs>
  <g transform="matrix(1 0 0 1 -4 -6 )">
    <path d="M 14 17  L 2 17  C 2 17  0.5 17  0.5 15.5  C 0.5 14  2 9.5  8 9.5  C 14 9.5  15.5 14  15.5 15.5  C 15.5 17  14 17  14 17  Z M 7.999999999999998 8.075  C 10.071067811865472 8.075  11.749999999999996 6.396067811865473  11.749999999999996 4.324999999999999  C 11.749999999999996 2.2539321881345256  10.071067811865472 0.5749999999999993  7.999999999999998 0.5749999999999993  C 5.9289321881345245 0.5749999999999993  4.249999999999998 2.2539321881345256  4.249999999999998 4.324999999999999  C 4.249999999999998 6.396067811865473  5.9289321881345245 8.075  7.999999999999998 8.075  Z " fill-rule="nonzero" fill="rgba(0, 0, 0, 1)" stroke="none" transform="matrix(1 0 0 1 4 6 )" class="fill" />
    <path d="M 14 17  L 2 17  C 2 17  0.5 17  0.5 15.5  C 0.5 14  2 9.5  8 9.5  C 14 9.5  15.5 14  15.5 15.5  C 15.5 17  14 17  14 17  Z " stroke-width="0" stroke-dasharray="0" stroke="rgba(255, 255, 255, 0)" fill="none" transform="matrix(1 0 0 1 4 6 )" class="stroke" mask="url(#Clip6054)" />
    <path d="M 7.999999999999998 8.075  C 10.071067811865472 8.075  11.749999999999996 6.396067811865473  11.749999999999996 4.324999999999999  C 11.749999999999996 2.2539321881345256  10.071067811865472 0.5749999999999993  7.999999999999998 0.5749999999999993  C 5.9289321881345245 0.5749999999999993  4.249999999999998 2.2539321881345256  4.249999999999998 4.324999999999999  C 4.249999999999998 6.396067811865473  5.9289321881345245 8.075  7.999999999999998 8.075  Z " stroke-width="0" stroke-dasharray="0" stroke="rgba(255, 255, 255, 0)" fill="none" transform="matrix(1 0 0 1 4 6 )" class="stroke" mask="url(#Clip6054)" />
  </g>
</svg>