<?xml version="1.0" encoding="utf-8"?>
<svg version="1.1" xmlns:xlink="http://www.w3.org/1999/xlink" width="26px" height="26px" xmlns="http://www.w3.org/2000/svg">
  <defs>
    <pattern id="BGPattern" patternUnits="userSpaceOnUse" alignment="0 0" imageRepeat="None" />
    <mask fill="white" id="Clip6662">
      <path d="M 19.66 1  L 6.34 1  C 6.335995491678137 0.9999909706344918  6.331990974448989 0.9999864559474337  6.327986455947434 0.9999864559474337  C 3.385413308848966 0.9999864559474337  0.9999864559474337 3.385413308848966  0.9999864559474337 6.327986455947434  C 0.9999864559474337 6.331990974448989  0.9999909706344918 6.335995491678137  1 6.34  L 1 19.66  C 0.9999909706344918 19.66400450832186  0.9999864559474337 19.66800902555101  0.9999864559474337 19.672013544052568  C 0.9999864559474337 22.614586691151036  3.385413308848966 25.000013544052567  6.327986455947434 25.000013544052567  C 6.33199097444829 25.000013544052567  6.335995491678838 25.00000902936551  6.34 25  L 19.66 25  C 19.66400450832256 25.00000902936551  19.668009025550315 25.000013544052567  19.672013544052568 25.000013544052567  C 22.614586691151032 25.000013544052567  25.000013544052567 22.614586691151032  25.000013544052567 19.672013544052568  C 25.000013544052567 19.668009025551715  25.00000902936551 19.66400450832116  25 19.66  L 25 6.34  C 25.00000902936551 6.335995491677438  25.000013544052567 6.33199097444969  25.000013544052567 6.327986455947434  C 25.000013544052567 3.3854133088489693  22.614586691151032 0.9999864559474337  19.672013544052568 0.9999864559474337  C 19.66800902555101 0.9999864559474337  19.66400450832186 0.9999909706344918  19.66 1  Z M 12.858000000000002 3.5700000000000003  L 12.865 3.568  C 15.155978348980353 3.5486946801356543  17.351064401761974 4.48639078623639  18.921 6.155  C 20.104620068779905 7.354791030063594  20.89438545892694 8.886880073140347  21.185 10.547000000000002  C 21.303957690069062 11.497819290594727  21.306308436925153 12.459610575714997  21.192 13.411  C 20.818783212109544 15.522952691432877  19.66154203462477 17.415970666948102  17.951999999999998 18.711000000000002  C 17.23271219936274 19.233086590261752  16.447151797488846 19.657141242129466  15.615999999999998 19.972  C 15.528 19.972  15.515999999999998 19.881  15.559999999999999 19.512  C 15.631999999999998 18.92  15.703999999999999 18.797  16.04 18.656000000000002  C 16.781089922180637 18.287000622587755  17.458866935875704 17.802633085410257  18.047999999999995 17.221  C 19.024313812609737 16.245249704397857  19.718200555760557 15.023345559088444  20.056 13.685000000000002  C 20.25944243292485 12.525631412224211  20.243159764029414 11.338353471931848  20.008 10.185  C 19.281827213837676 7.4895760476186615  17.112084366325238 5.424770976515076  14.383999999999999 4.833  C 13.390399999999996 4.672999999999999  12.377600000000003 4.673  11.384 4.833  C 8.59977228875724 5.448962641044044  6.4033474250551015 7.586527035902259  5.712 10.353  C 5.528008789449764 11.457389216375951  5.528008789449764 12.584610783624047  5.712 13.689  C 6.176826653384836 15.536745207722232  7.31341961972522 17.145017124648668  8.899999999999999 18.2  C 9.163521421296956 18.376037247692  9.438837657952213 18.533742664805207  9.724 18.672  C 10.06 18.816  10.132 18.936  10.196 19.528000000000002  C 10.235999999999999 19.888  10.225999999999999 19.992  10.14 19.992  C 9.830870696681176 19.88655258072704  9.53003632682811 19.758196582923066  9.24 19.608  L 9.200000000000001 19.578  C 6.782273835591367 18.431468672023644  5.060068833975176 16.19617150671351  4.568000000000001 13.565999999999999  C 4.417342170017652 12.55893963423974  4.407245766967464 11.535837458487379  4.538000000000002 10.526  C 4.83396390583415 8.909663704161566  5.595862772254092 7.4150628256917885  6.730000000000002 6.226  C 8.30873005990765 4.51894541181677  10.532876860500997 3.554954892499548  12.858000000000002 3.5700000000000003  Z M 11.186999999999998 6.590000000000002  C 11.776984276014883 6.427282111574634  12.388391303766214 6.3557882947609095  13 6.378000000000001  C 13.37123411585866 6.377334034666737  13.741650222769675 6.41283503587159  14.106 6.484  C 16.915588258607297 7.140000599700777  18.793657723036304 9.789726576251212  18.482000000000003 12.658000000000003  C 18.356137765570555 13.713401964473835  17.934609640050148 14.711758051232689  17.266000000000002 15.538  C 16.902813715742887 15.993990644299384  16.46289061773266 16.383153384846892  15.965999999999998 16.688000000000002  C 15.921021327541153 16.491380883690447  15.904852394330703 16.289269218559802  15.917999999999997 16.088  L 15.917999999999997 15.48  L 16.333999999999996 14.979999999999999  C 17.902325792156876 13.162093063518181  17.790320743500033 10.438970318048629  16.077999999999996 8.756  C 15.424418975352925 8.091613336153268  14.574655797771758 7.654812626885061  13.653999999999998 7.510000000000001  C 13.178709249775622 7.393251514991586  12.682551734598727 7.390510313250275  12.206 7.502  C 11.25557843746105 7.63736779371535  10.37550865554554 8.079860980153317  9.7 8.761999999999999  C 7.981193040521918 10.440175812769438  7.865525065823189 13.166259671009911  9.436 14.984  L 9.849 15.484000000000002  L 9.849000000000002 16.092000000000002  C 9.868238558090967 16.296639244384373  9.84786724355763 16.503068564988844  9.789 16.7  C 9.606248033998078 16.598180162739126  9.434647702044208 16.477523679334062  9.277 16.340000000000003  L 9.242999999999999 16.329  C 8.332131024640141 15.539476584697482  7.679862946450353 14.494175177342056  7.3709999999999996 13.329000000000002  C 7.185626585176446 12.431527130272574  7.188350585794218 11.505366920230285  7.378999999999999 10.609000000000002  C 7.897315253431316 8.71735242426062  9.326025024870031 7.209478324625063  11.186999999999998 6.590000000000002  Z M 12.874999999999998 9.368  L 12.87 9.367999999999999  C 13.161319778588087 9.361192874900386  13.450240835058722 9.422126462639454  13.713999999999999 9.546000000000001  C 14.21137283317065 9.814243229575606  14.584487359104203 10.265927064335555  14.754 10.805000000000001  C 14.797722972749582 10.968664069201267  14.819865802024433 11.137341153391914  14.819865802024433 11.30674488975442  C 14.819865802024433 12.380386443425483  13.949507355695493 13.25074488975442  12.875865802024432 13.25074488975442  C 12.584418432904144 13.25074488975442  12.29670069028223 13.185213772197722  12.033999999999997 13.059000000000001  L 12.018999999999997 13.059000000000001  C 11.325205750410005 12.74908149700555  10.889693704235368 12.048303022706365  10.918999999999997 11.289000000000001  C 10.927653287753166 10.54319313455772  11.35864422540697 9.866862931135161  12.030999999999999 9.544  C 12.29513024995367 9.421435368982154  12.583897114255834 9.361218582113455  12.874999999999998 9.368  Z M 12.862 14.099999999999996  L 12.857999999999999 14.1  C 13.65087426098741 13.992315877664916  14.429911496005067 14.375902739577164  14.828000000000003 15.07  C 15.028000000000002 15.534  14.952000000000002 17.002  14.610000000000001 19.37  C 14.378000000000002 21.026  14.250000000000002 21.444000000000003  13.930000000000003 21.726000000000003  C 13.472797548146147 22.118875342540992  12.836998019868942 22.22944917354572  12.274000000000001 22.014  C 11.558000000000002 21.756999999999998  11.404000000000002 21.413999999999998  11.110000000000001 19.369999999999997  C 10.769000000000002 16.999999999999996  10.694 15.531999999999998  10.892000000000001 15.069999999999999  C 11.292226622944685 14.378184704067692  12.069630766632493 13.995401953114811  12.862 14.099999999999996  Z " fill-rule="evenodd" />
    </mask>
  </defs>
  <g>
    <path d="M 19.66 1  L 6.34 1  C 6.335995491678137 0.9999909706344918  6.331990974448989 0.9999864559474337  6.327986455947434 0.9999864559474337  C 3.385413308848966 0.9999864559474337  0.9999864559474337 3.385413308848966  0.9999864559474337 6.327986455947434  C 0.9999864559474337 6.331990974448989  0.9999909706344918 6.335995491678137  1 6.34  L 1 19.66  C 0.9999909706344918 19.66400450832186  0.9999864559474337 19.66800902555101  0.9999864559474337 19.672013544052568  C 0.9999864559474337 22.614586691151036  3.385413308848966 25.000013544052567  6.327986455947434 25.000013544052567  C 6.33199097444829 25.000013544052567  6.335995491678838 25.00000902936551  6.34 25  L 19.66 25  C 19.66400450832256 25.00000902936551  19.668009025550315 25.000013544052567  19.672013544052568 25.000013544052567  C 22.614586691151032 25.000013544052567  25.000013544052567 22.614586691151032  25.000013544052567 19.672013544052568  C 25.000013544052567 19.668009025551715  25.00000902936551 19.66400450832116  25 19.66  L 25 6.34  C 25.00000902936551 6.335995491677438  25.000013544052567 6.33199097444969  25.000013544052567 6.327986455947434  C 25.000013544052567 3.3854133088489693  22.614586691151032 0.9999864559474337  19.672013544052568 0.9999864559474337  C 19.66800902555101 0.9999864559474337  19.66400450832186 0.9999909706344918  19.66 1  Z M 12.858000000000002 3.5700000000000003  L 12.865 3.568  C 15.155978348980353 3.5486946801356543  17.351064401761974 4.48639078623639  18.921 6.155  C 20.104620068779905 7.354791030063594  20.89438545892694 8.886880073140347  21.185 10.547000000000002  C 21.303957690069062 11.497819290594727  21.306308436925153 12.459610575714997  21.192 13.411  C 20.818783212109544 15.522952691432877  19.66154203462477 17.415970666948102  17.951999999999998 18.711000000000002  C 17.23271219936274 19.233086590261752  16.447151797488846 19.657141242129466  15.615999999999998 19.972  C 15.528 19.972  15.515999999999998 19.881  15.559999999999999 19.512  C 15.631999999999998 18.92  15.703999999999999 18.797  16.04 18.656000000000002  C 16.781089922180637 18.287000622587755  17.458866935875704 17.802633085410257  18.047999999999995 17.221  C 19.024313812609737 16.245249704397857  19.718200555760557 15.023345559088444  20.056 13.685000000000002  C 20.25944243292485 12.525631412224211  20.243159764029414 11.338353471931848  20.008 10.185  C 19.281827213837676 7.4895760476186615  17.112084366325238 5.424770976515076  14.383999999999999 4.833  C 13.390399999999996 4.672999999999999  12.377600000000003 4.673  11.384 4.833  C 8.59977228875724 5.448962641044044  6.4033474250551015 7.586527035902259  5.712 10.353  C 5.528008789449764 11.457389216375951  5.528008789449764 12.584610783624047  5.712 13.689  C 6.176826653384836 15.536745207722232  7.31341961972522 17.145017124648668  8.899999999999999 18.2  C 9.163521421296956 18.376037247692  9.438837657952213 18.533742664805207  9.724 18.672  C 10.06 18.816  10.132 18.936  10.196 19.528000000000002  C 10.235999999999999 19.888  10.225999999999999 19.992  10.14 19.992  C 9.830870696681176 19.88655258072704  9.53003632682811 19.758196582923066  9.24 19.608  L 9.200000000000001 19.578  C 6.782273835591367 18.431468672023644  5.060068833975176 16.19617150671351  4.568000000000001 13.565999999999999  C 4.417342170017652 12.55893963423974  4.407245766967464 11.535837458487379  4.538000000000002 10.526  C 4.83396390583415 8.909663704161566  5.595862772254092 7.4150628256917885  6.730000000000002 6.226  C 8.30873005990765 4.51894541181677  10.532876860500997 3.554954892499548  12.858000000000002 3.5700000000000003  Z M 11.186999999999998 6.590000000000002  C 11.776984276014883 6.427282111574634  12.388391303766214 6.3557882947609095  13 6.378000000000001  C 13.37123411585866 6.377334034666737  13.741650222769675 6.41283503587159  14.106 6.484  C 16.915588258607297 7.140000599700777  18.793657723036304 9.789726576251212  18.482000000000003 12.658000000000003  C 18.356137765570555 13.713401964473835  17.934609640050148 14.711758051232689  17.266000000000002 15.538  C 16.902813715742887 15.993990644299384  16.46289061773266 16.383153384846892  15.965999999999998 16.688000000000002  C 15.921021327541153 16.491380883690447  15.904852394330703 16.289269218559802  15.917999999999997 16.088  L 15.917999999999997 15.48  L 16.333999999999996 14.979999999999999  C 17.902325792156876 13.162093063518181  17.790320743500033 10.438970318048629  16.077999999999996 8.756  C 15.424418975352925 8.091613336153268  14.574655797771758 7.654812626885061  13.653999999999998 7.510000000000001  C 13.178709249775622 7.393251514991586  12.682551734598727 7.390510313250275  12.206 7.502  C 11.25557843746105 7.63736779371535  10.37550865554554 8.079860980153317  9.7 8.761999999999999  C 7.981193040521918 10.440175812769438  7.865525065823189 13.166259671009911  9.436 14.984  L 9.849 15.484000000000002  L 9.849000000000002 16.092000000000002  C 9.868238558090967 16.296639244384373  9.84786724355763 16.503068564988844  9.789 16.7  C 9.606248033998078 16.598180162739126  9.434647702044208 16.477523679334062  9.277 16.340000000000003  L 9.242999999999999 16.329  C 8.332131024640141 15.539476584697482  7.679862946450353 14.494175177342056  7.3709999999999996 13.329000000000002  C 7.185626585176446 12.431527130272574  7.188350585794218 11.505366920230285  7.378999999999999 10.609000000000002  C 7.897315253431316 8.71735242426062  9.326025024870031 7.209478324625063  11.186999999999998 6.590000000000002  Z M 12.874999999999998 9.368  L 12.87 9.367999999999999  C 13.161319778588087 9.361192874900386  13.450240835058722 9.422126462639454  13.713999999999999 9.546000000000001  C 14.21137283317065 9.814243229575606  14.584487359104203 10.265927064335555  14.754 10.805000000000001  C 14.797722972749582 10.968664069201267  14.819865802024433 11.137341153391914  14.819865802024433 11.30674488975442  C 14.819865802024433 12.380386443425483  13.949507355695493 13.25074488975442  12.875865802024432 13.25074488975442  C 12.584418432904144 13.25074488975442  12.29670069028223 13.185213772197722  12.033999999999997 13.059000000000001  L 12.018999999999997 13.059000000000001  C 11.325205750410005 12.74908149700555  10.889693704235368 12.048303022706365  10.918999999999997 11.289000000000001  C 10.927653287753166 10.54319313455772  11.35864422540697 9.866862931135161  12.030999999999999 9.544  C 12.29513024995367 9.421435368982154  12.583897114255834 9.361218582113455  12.874999999999998 9.368  Z M 12.862 14.099999999999996  L 12.857999999999999 14.1  C 13.65087426098741 13.992315877664916  14.429911496005067 14.375902739577164  14.828000000000003 15.07  C 15.028000000000002 15.534  14.952000000000002 17.002  14.610000000000001 19.37  C 14.378000000000002 21.026  14.250000000000002 21.444000000000003  13.930000000000003 21.726000000000003  C 13.472797548146147 22.118875342540992  12.836998019868942 22.22944917354572  12.274000000000001 22.014  C 11.558000000000002 21.756999999999998  11.404000000000002 21.413999999999998  11.110000000000001 19.369999999999997  C 10.769000000000002 16.999999999999996  10.694 15.531999999999998  10.892000000000001 15.069999999999999  C 11.292226622944685 14.378184704067692  12.069630766632493 13.995401953114811  12.862 14.099999999999996  Z " fill-rule="nonzero" fill="rgba(153, 51, 204, 1)" stroke="none" class="fill" />
    <path d="M 19.66 1  L 6.34 1  C 6.335995491678137 0.9999909706344918  6.331990974448989 0.9999864559474337  6.327986455947434 0.9999864559474337  C 3.385413308848966 0.9999864559474337  0.9999864559474337 3.385413308848966  0.9999864559474337 6.327986455947434  C 0.9999864559474337 6.331990974448989  0.9999909706344918 6.335995491678137  1 6.34  L 1 19.66  C 0.9999909706344918 19.66400450832186  0.9999864559474337 19.66800902555101  0.9999864559474337 19.672013544052568  C 0.9999864559474337 22.614586691151036  3.385413308848966 25.000013544052567  6.327986455947434 25.000013544052567  C 6.33199097444829 25.000013544052567  6.335995491678838 25.00000902936551  6.34 25  L 19.66 25  C 19.66400450832256 25.00000902936551  19.668009025550315 25.000013544052567  19.672013544052568 25.000013544052567  C 22.614586691151032 25.000013544052567  25.000013544052567 22.614586691151032  25.000013544052567 19.672013544052568  C 25.000013544052567 19.668009025551715  25.00000902936551 19.66400450832116  25 19.66  L 25 6.34  C 25.00000902936551 6.335995491677438  25.000013544052567 6.33199097444969  25.000013544052567 6.327986455947434  C 25.000013544052567 3.3854133088489693  22.614586691151032 0.9999864559474337  19.672013544052568 0.9999864559474337  C 19.66800902555101 0.9999864559474337  19.66400450832186 0.9999909706344918  19.66 1  Z " stroke-width="0" stroke-dasharray="0" stroke="rgba(255, 255, 255, 0)" fill="none" class="stroke" mask="url(#Clip6662)" />
    <path d="M 12.858000000000002 3.5700000000000003  L 12.865 3.568  C 15.155978348980353 3.5486946801356543  17.351064401761974 4.48639078623639  18.921 6.155  C 20.104620068779905 7.354791030063594  20.89438545892694 8.886880073140347  21.185 10.547000000000002  C 21.303957690069062 11.497819290594727  21.306308436925153 12.459610575714997  21.192 13.411  C 20.818783212109544 15.522952691432877  19.66154203462477 17.415970666948102  17.951999999999998 18.711000000000002  C 17.23271219936274 19.233086590261752  16.447151797488846 19.657141242129466  15.615999999999998 19.972  C 15.528 19.972  15.515999999999998 19.881  15.559999999999999 19.512  C 15.631999999999998 18.92  15.703999999999999 18.797  16.04 18.656000000000002  C 16.781089922180637 18.287000622587755  17.458866935875704 17.802633085410257  18.047999999999995 17.221  C 19.024313812609737 16.245249704397857  19.718200555760557 15.023345559088444  20.056 13.685000000000002  C 20.25944243292485 12.525631412224211  20.243159764029414 11.338353471931848  20.008 10.185  C 19.281827213837676 7.4895760476186615  17.112084366325238 5.424770976515076  14.383999999999999 4.833  C 13.390399999999996 4.672999999999999  12.377600000000003 4.673  11.384 4.833  C 8.59977228875724 5.448962641044044  6.4033474250551015 7.586527035902259  5.712 10.353  C 5.528008789449764 11.457389216375951  5.528008789449764 12.584610783624047  5.712 13.689  C 6.176826653384836 15.536745207722232  7.31341961972522 17.145017124648668  8.899999999999999 18.2  C 9.163521421296956 18.376037247692  9.438837657952213 18.533742664805207  9.724 18.672  C 10.06 18.816  10.132 18.936  10.196 19.528000000000002  C 10.235999999999999 19.888  10.225999999999999 19.992  10.14 19.992  C 9.830870696681176 19.88655258072704  9.53003632682811 19.758196582923066  9.24 19.608  L 9.200000000000001 19.578  C 6.782273835591367 18.431468672023644  5.060068833975176 16.19617150671351  4.568000000000001 13.565999999999999  C 4.417342170017652 12.55893963423974  4.407245766967464 11.535837458487379  4.538000000000002 10.526  C 4.83396390583415 8.909663704161566  5.595862772254092 7.4150628256917885  6.730000000000002 6.226  C 8.30873005990765 4.51894541181677  10.532876860500997 3.554954892499548  12.858000000000002 3.5700000000000003  Z " stroke-width="0" stroke-dasharray="0" stroke="rgba(255, 255, 255, 0)" fill="none" class="stroke" mask="url(#Clip6662)" />
    <path d="M 11.186999999999998 6.590000000000002  C 11.776984276014883 6.427282111574634  12.388391303766214 6.3557882947609095  13 6.378000000000001  C 13.37123411585866 6.377334034666737  13.741650222769675 6.41283503587159  14.106 6.484  C 16.915588258607297 7.140000599700777  18.793657723036304 9.789726576251212  18.482000000000003 12.658000000000003  C 18.356137765570555 13.713401964473835  17.934609640050148 14.711758051232689  17.266000000000002 15.538  C 16.902813715742887 15.993990644299384  16.46289061773266 16.383153384846892  15.965999999999998 16.688000000000002  C 15.921021327541153 16.491380883690447  15.904852394330703 16.289269218559802  15.917999999999997 16.088  L 15.917999999999997 15.48  L 16.333999999999996 14.979999999999999  C 17.902325792156876 13.162093063518181  17.790320743500033 10.438970318048629  16.077999999999996 8.756  C 15.424418975352925 8.091613336153268  14.574655797771758 7.654812626885061  13.653999999999998 7.510000000000001  C 13.178709249775622 7.393251514991586  12.682551734598727 7.390510313250275  12.206 7.502  C 11.25557843746105 7.63736779371535  10.37550865554554 8.079860980153317  9.7 8.761999999999999  C 7.981193040521918 10.440175812769438  7.865525065823189 13.166259671009911  9.436 14.984  L 9.849 15.484000000000002  L 9.849000000000002 16.092000000000002  C 9.868238558090967 16.296639244384373  9.84786724355763 16.503068564988844  9.789 16.7  C 9.606248033998078 16.598180162739126  9.434647702044208 16.477523679334062  9.277 16.340000000000003  L 9.242999999999999 16.329  C 8.332131024640141 15.539476584697482  7.679862946450353 14.494175177342056  7.3709999999999996 13.329000000000002  C 7.185626585176446 12.431527130272574  7.188350585794218 11.505366920230285  7.378999999999999 10.609000000000002  C 7.897315253431316 8.71735242426062  9.326025024870031 7.209478324625063  11.186999999999998 6.590000000000002  Z " stroke-width="0" stroke-dasharray="0" stroke="rgba(255, 255, 255, 0)" fill="none" class="stroke" mask="url(#Clip6662)" />
    <path d="M 12.874999999999998 9.368  L 12.87 9.367999999999999  C 13.161319778588087 9.361192874900386  13.450240835058722 9.422126462639454  13.713999999999999 9.546000000000001  C 14.21137283317065 9.814243229575606  14.584487359104203 10.265927064335555  14.754 10.805000000000001  C 14.797722972749582 10.968664069201267  14.819865802024433 11.137341153391914  14.819865802024433 11.30674488975442  C 14.819865802024433 12.380386443425483  13.949507355695493 13.25074488975442  12.875865802024432 13.25074488975442  C 12.584418432904144 13.25074488975442  12.29670069028223 13.185213772197722  12.033999999999997 13.059000000000001  L 12.018999999999997 13.059000000000001  C 11.325205750410005 12.74908149700555  10.889693704235368 12.048303022706365  10.918999999999997 11.289000000000001  C 10.927653287753166 10.54319313455772  11.35864422540697 9.866862931135161  12.030999999999999 9.544  C 12.29513024995367 9.421435368982154  12.583897114255834 9.361218582113455  12.874999999999998 9.368  Z " stroke-width="0" stroke-dasharray="0" stroke="rgba(255, 255, 255, 0)" fill="none" class="stroke" mask="url(#Clip6662)" />
    <path d="M 12.862 14.099999999999996  L 12.857999999999999 14.1  C 13.65087426098741 13.992315877664916  14.429911496005067 14.375902739577164  14.828000000000003 15.07  C 15.028000000000002 15.534  14.952000000000002 17.002  14.610000000000001 19.37  C 14.378000000000002 21.026  14.250000000000002 21.444000000000003  13.930000000000003 21.726000000000003  C 13.472797548146147 22.118875342540992  12.836998019868942 22.22944917354572  12.274000000000001 22.014  C 11.558000000000002 21.756999999999998  11.404000000000002 21.413999999999998  11.110000000000001 19.369999999999997  C 10.769000000000002 16.999999999999996  10.694 15.531999999999998  10.892000000000001 15.069999999999999  C 11.292226622944685 14.378184704067692  12.069630766632493 13.995401953114811  12.862 14.099999999999996  Z " stroke-width="0" stroke-dasharray="0" stroke="rgba(255, 255, 255, 0)" fill="none" class="stroke" mask="url(#Clip6662)" />
  </g>
</svg>