<?xml version="1.0" encoding="utf-8"?>
<svg version="1.1" xmlns:xlink="http://www.w3.org/1999/xlink" width="30px" height="30px" xmlns="http://www.w3.org/2000/svg">
  <defs>
    <pattern id="BGPattern" patternUnits="userSpaceOnUse" alignment="0 0" imageRepeat="None" />
    <mask fill="white" id="Clip107">
      <path d="M 0.5999999999999979 14.999999999999998  C 0.5999999999999979 7.047999999999998  7.047999999999998 0.5999999999999979  15 0.6000000000000001  C 22.951999999999998 0.6000000000000001  29.4 7.048  29.4 15  C 29.4 22.951999999999998  22.951999999999998 29.4  14.999999999999998 29.4  C 7.047999999999998 29.4  0.5999999999999979 22.951999999999998  0.5999999999999979 14.999999999999998  Z M 3 15  C 3 21.624  8.376000000000001 27  15 27  C 21.624 27  27 21.624  27 15  C 27 8.376000000000001  21.624 3  15 3  C 8.376000000000001 3  3 8.376000000000001  3 15  Z M 18.552 12.552000000000003  C 18.791999999999998 12.312000000000003  19.096 12.200000000000003  19.4 12.2  C 19.703999999999997 12.2  20.023999999999997 12.328  20.247999999999998 12.552  C 20.487999999999996 12.792  20.599999999999998 13.096  20.599999999999998 13.4  C 20.599999999999998 13.704  20.488 14.024000000000001  20.247999999999998 14.248000000000001  L 15.847999999999999 18.648000000000003  C 15.608 18.872000000000003  15.304 19.000000000000004  14.999999999999998 19.000000000000004  C 14.695999999999998 19.000000000000004  14.391999999999998 18.888000000000005  14.151999999999997 18.648000000000003  L 9.751999999999997 14.248000000000003  C 9.527999999999997 14.024000000000003  9.399999999999997 13.704000000000002  9.399999999999997 13.400000000000002  C 9.399999999999997 13.096000000000002  9.527999999999997 12.792000000000002  9.751999999999997 12.552000000000001  C 9.975999999999997 12.312000000000001  10.295999999999998 12.200000000000001  10.599999999999998 12.200000000000001  C 10.903999999999998 12.200000000000001  11.223999999999998 12.328000000000001  11.447999999999999 12.552000000000001  L 14.999999999999998 16.104000000000003  L 18.552 12.552000000000003  Z " fill-rule="evenodd" />
    </mask>
  </defs>
  <g>
    <path d="M 0.5999999999999979 14.999999999999998  C 0.5999999999999979 7.047999999999998  7.047999999999998 0.5999999999999979  15 0.6000000000000001  C 22.951999999999998 0.6000000000000001  29.4 7.048  29.4 15  C 29.4 22.951999999999998  22.951999999999998 29.4  14.999999999999998 29.4  C 7.047999999999998 29.4  0.5999999999999979 22.951999999999998  0.5999999999999979 14.999999999999998  Z M 3 15  C 3 21.624  8.376000000000001 27  15 27  C 21.624 27  27 21.624  27 15  C 27 8.376000000000001  21.624 3  15 3  C 8.376000000000001 3  3 8.376000000000001  3 15  Z M 18.552 12.552000000000003  C 18.791999999999998 12.312000000000003  19.096 12.200000000000003  19.4 12.2  C 19.703999999999997 12.2  20.023999999999997 12.328  20.247999999999998 12.552  C 20.487999999999996 12.792  20.599999999999998 13.096  20.599999999999998 13.4  C 20.599999999999998 13.704  20.488 14.024000000000001  20.247999999999998 14.248000000000001  L 15.847999999999999 18.648000000000003  C 15.608 18.872000000000003  15.304 19.000000000000004  14.999999999999998 19.000000000000004  C 14.695999999999998 19.000000000000004  14.391999999999998 18.888000000000005  14.151999999999997 18.648000000000003  L 9.751999999999997 14.248000000000003  C 9.527999999999997 14.024000000000003  9.399999999999997 13.704000000000002  9.399999999999997 13.400000000000002  C 9.399999999999997 13.096000000000002  9.527999999999997 12.792000000000002  9.751999999999997 12.552000000000001  C 9.975999999999997 12.312000000000001  10.295999999999998 12.200000000000001  10.599999999999998 12.200000000000001  C 10.903999999999998 12.200000000000001  11.223999999999998 12.328000000000001  11.447999999999999 12.552000000000001  L 14.999999999999998 16.104000000000003  L 18.552 12.552000000000003  Z " fill-rule="nonzero" fill="rgba(0, 0, 0, 1)" stroke="none" class="fill" />
    <path d="M 0.5999999999999979 14.999999999999998  C 0.5999999999999979 7.047999999999998  7.047999999999998 0.5999999999999979  15 0.6000000000000001  C 22.951999999999998 0.6000000000000001  29.4 7.048  29.4 15  C 29.4 22.951999999999998  22.951999999999998 29.4  14.999999999999998 29.4  C 7.047999999999998 29.4  0.5999999999999979 22.951999999999998  0.5999999999999979 14.999999999999998  Z " stroke-width="0" stroke-dasharray="0" stroke="rgba(255, 255, 255, 0)" fill="none" class="stroke" mask="url(#Clip107)" />
    <path d="M 3 15  C 3 21.624  8.376000000000001 27  15 27  C 21.624 27  27 21.624  27 15  C 27 8.376000000000001  21.624 3  15 3  C 8.376000000000001 3  3 8.376000000000001  3 15  Z " stroke-width="0" stroke-dasharray="0" stroke="rgba(255, 255, 255, 0)" fill="none" class="stroke" mask="url(#Clip107)" />
    <path d="M 18.552 12.552000000000003  C 18.791999999999998 12.312000000000003  19.096 12.200000000000003  19.4 12.2  C 19.703999999999997 12.2  20.023999999999997 12.328  20.247999999999998 12.552  C 20.487999999999996 12.792  20.599999999999998 13.096  20.599999999999998 13.4  C 20.599999999999998 13.704  20.488 14.024000000000001  20.247999999999998 14.248000000000001  L 15.847999999999999 18.648000000000003  C 15.608 18.872000000000003  15.304 19.000000000000004  14.999999999999998 19.000000000000004  C 14.695999999999998 19.000000000000004  14.391999999999998 18.888000000000005  14.151999999999997 18.648000000000003  L 9.751999999999997 14.248000000000003  C 9.527999999999997 14.024000000000003  9.399999999999997 13.704000000000002  9.399999999999997 13.400000000000002  C 9.399999999999997 13.096000000000002  9.527999999999997 12.792000000000002  9.751999999999997 12.552000000000001  C 9.975999999999997 12.312000000000001  10.295999999999998 12.200000000000001  10.599999999999998 12.200000000000001  C 10.903999999999998 12.200000000000001  11.223999999999998 12.328000000000001  11.447999999999999 12.552000000000001  L 14.999999999999998 16.104000000000003  L 18.552 12.552000000000003  Z " stroke-width="0" stroke-dasharray="0" stroke="rgba(255, 255, 255, 0)" fill="none" class="stroke" mask="url(#Clip107)" />
  </g>
</svg>