<?xml version="1.0" encoding="utf-8"?>
<svg version="1.1" xmlns:xlink="http://www.w3.org/1999/xlink" width="18px" height="15px" xmlns="http://www.w3.org/2000/svg">
  <defs>
    <pattern id="BGPattern" patternUnits="userSpaceOnUse" alignment="0 0" imageRepeat="None" />
    <mask fill="white" id="Clip4959">
      <path d="M 0.75 2.5  L 0.75 1  C 0.75 0.5857864376269051  1.085786437626905 0.25  1.5 0.25  L 16.5 0.25  C 16.914213562373096 0.25  17.25 0.5857864376269051  17.25 1  L 17.25 2.5  C 17.25 2.914213562373095  16.914213562373096 3.25  16.5 3.25  L 1.5 3.25  C 1.085786437626905 3.25  0.75 2.914213562373095  0.75 2.5  Z M 5.654999999999999 14.032000000000004  L 6.6675 14.032  L 6.6675 6.031000000000001  L 5.718 6.031000000000002  C 5.037965868845621 6.393502004401757  4.380738959345362 6.797255730817312  3.75 7.24  L 3.75 8.2825  C 4.3125 7.897000000000001  5.2035 7.352500000000003  5.6370000000000005 7.117000000000001  L 5.654999999999999 7.117000000000001  L 5.654999999999999 14.032000000000004  Z M 9.475499999999997 12.0745  L 8.4495 12.0745  C 8.52 13.034500000000001  9.3405 14.183500000000002  11.004000000000001 14.183500000000002  C 12.891000000000002 14.183500000000002  14.004000000000001 12.584500000000002  14.004000000000001 9.877000000000002  C 14.004000000000001 6.976000000000001  12.8325 5.875000000000002  11.0745 5.875000000000002  C 9.685500000000001 5.875000000000002  8.379000000000001 6.883000000000001  8.379000000000001 8.588500000000002  C 8.379000000000001 10.328500000000002  9.615000000000002 11.243500000000001  10.893 11.243500000000001  C 12.012 11.243500000000001  12.738000000000001 10.6795  12.9675 10.058500000000002  L 13.008 10.058500000000002  C 13.001999999999999 12.032500000000002  12.316499999999998 13.3045  11.0505 13.3045  C 10.054499999999999 13.3045  9.538499999999997 12.629500000000004  9.475499999999997 12.0745  Z M 11.139 6.754000000000001  C 12.088500000000002 6.754000000000001  12.879000000000001 7.351000000000003  12.879000000000001 8.599  C 12.879000000000001 9.643  12.040500000000002 10.369  11.103000000000002 10.369  C 10.201500000000003 10.369  9.387 9.7945  9.387 8.569000000000003  C 9.387 7.334500000000002  10.260000000000002 6.754000000000001  11.139 6.754000000000001  Z " fill-rule="evenodd" />
    </mask>
  </defs>
  <g transform="matrix(1 0 0 1 -3 -5 )">
    <path d="M 0.75 2.5  L 0.75 1  C 0.75 0.5857864376269051  1.085786437626905 0.25  1.5 0.25  L 16.5 0.25  C 16.914213562373096 0.25  17.25 0.5857864376269051  17.25 1  L 17.25 2.5  C 17.25 2.914213562373095  16.914213562373096 3.25  16.5 3.25  L 1.5 3.25  C 1.085786437626905 3.25  0.75 2.914213562373095  0.75 2.5  Z M 5.654999999999999 14.032000000000004  L 6.6675 14.032  L 6.6675 6.031000000000001  L 5.718 6.031000000000002  C 5.037965868845621 6.393502004401757  4.380738959345362 6.797255730817312  3.75 7.24  L 3.75 8.2825  C 4.3125 7.897000000000001  5.2035 7.352500000000003  5.6370000000000005 7.117000000000001  L 5.654999999999999 7.117000000000001  L 5.654999999999999 14.032000000000004  Z M 9.475499999999997 12.0745  L 8.4495 12.0745  C 8.52 13.034500000000001  9.3405 14.183500000000002  11.004000000000001 14.183500000000002  C 12.891000000000002 14.183500000000002  14.004000000000001 12.584500000000002  14.004000000000001 9.877000000000002  C 14.004000000000001 6.976000000000001  12.8325 5.875000000000002  11.0745 5.875000000000002  C 9.685500000000001 5.875000000000002  8.379000000000001 6.883000000000001  8.379000000000001 8.588500000000002  C 8.379000000000001 10.328500000000002  9.615000000000002 11.243500000000001  10.893 11.243500000000001  C 12.012 11.243500000000001  12.738000000000001 10.6795  12.9675 10.058500000000002  L 13.008 10.058500000000002  C 13.001999999999999 12.032500000000002  12.316499999999998 13.3045  11.0505 13.3045  C 10.054499999999999 13.3045  9.538499999999997 12.629500000000004  9.475499999999997 12.0745  Z M 11.139 6.754000000000001  C 12.088500000000002 6.754000000000001  12.879000000000001 7.351000000000003  12.879000000000001 8.599  C 12.879000000000001 9.643  12.040500000000002 10.369  11.103000000000002 10.369  C 10.201500000000003 10.369  9.387 9.7945  9.387 8.569000000000003  C 9.387 7.334500000000002  10.260000000000002 6.754000000000001  11.139 6.754000000000001  Z " fill-rule="nonzero" fill="rgba(0, 0, 0, 1)" stroke="none" transform="matrix(1 0 0 1 3 5 )" class="fill" />
    <path d="M 0.75 2.5  L 0.75 1  C 0.75 0.5857864376269051  1.085786437626905 0.25  1.5 0.25  L 16.5 0.25  C 16.914213562373096 0.25  17.25 0.5857864376269051  17.25 1  L 17.25 2.5  C 17.25 2.914213562373095  16.914213562373096 3.25  16.5 3.25  L 1.5 3.25  C 1.085786437626905 3.25  0.75 2.914213562373095  0.75 2.5  Z " stroke-width="0" stroke-dasharray="0" stroke="rgba(255, 255, 255, 0)" fill="none" transform="matrix(1 0 0 1 3 5 )" class="stroke" mask="url(#Clip4959)" />
    <path d="M 5.654999999999999 14.032000000000004  L 6.6675 14.032  L 6.6675 6.031000000000001  L 5.718 6.031000000000002  C 5.037965868845621 6.393502004401757  4.380738959345362 6.797255730817312  3.75 7.24  L 3.75 8.2825  C 4.3125 7.897000000000001  5.2035 7.352500000000003  5.6370000000000005 7.117000000000001  L 5.654999999999999 7.117000000000001  L 5.654999999999999 14.032000000000004  Z " stroke-width="0" stroke-dasharray="0" stroke="rgba(255, 255, 255, 0)" fill="none" transform="matrix(1 0 0 1 3 5 )" class="stroke" mask="url(#Clip4959)" />
    <path d="M 9.475499999999997 12.0745  L 8.4495 12.0745  C 8.52 13.034500000000001  9.3405 14.183500000000002  11.004000000000001 14.183500000000002  C 12.891000000000002 14.183500000000002  14.004000000000001 12.584500000000002  14.004000000000001 9.877000000000002  C 14.004000000000001 6.976000000000001  12.8325 5.875000000000002  11.0745 5.875000000000002  C 9.685500000000001 5.875000000000002  8.379000000000001 6.883000000000001  8.379000000000001 8.588500000000002  C 8.379000000000001 10.328500000000002  9.615000000000002 11.243500000000001  10.893 11.243500000000001  C 12.012 11.243500000000001  12.738000000000001 10.6795  12.9675 10.058500000000002  L 13.008 10.058500000000002  C 13.001999999999999 12.032500000000002  12.316499999999998 13.3045  11.0505 13.3045  C 10.054499999999999 13.3045  9.538499999999997 12.629500000000004  9.475499999999997 12.0745  Z " stroke-width="0" stroke-dasharray="0" stroke="rgba(255, 255, 255, 0)" fill="none" transform="matrix(1 0 0 1 3 5 )" class="stroke" mask="url(#Clip4959)" />
    <path d="M 11.139 6.754000000000001  C 12.088500000000002 6.754000000000001  12.879000000000001 7.351000000000003  12.879000000000001 8.599  C 12.879000000000001 9.643  12.040500000000002 10.369  11.103000000000002 10.369  C 10.201500000000003 10.369  9.387 9.7945  9.387 8.569000000000003  C 9.387 7.334500000000002  10.260000000000002 6.754000000000001  11.139 6.754000000000001  Z " stroke-width="0" stroke-dasharray="0" stroke="rgba(255, 255, 255, 0)" fill="none" transform="matrix(1 0 0 1 3 5 )" class="stroke" mask="url(#Clip4959)" />
  </g>
</svg>