<?xml version="1.0" encoding="utf-8"?>
<svg version="1.1" xmlns:xlink="http://www.w3.org/1999/xlink" width="20px" height="22px" xmlns="http://www.w3.org/2000/svg">
  <defs>
    <pattern id="BGPattern" patternUnits="userSpaceOnUse" alignment="0 0" imageRepeat="None" />
    <mask fill="white" id="Clip5773">
      <path d="M 8.5 14.75  C 8.125 14.75  7.75 15.125  7.75 15.4925  L 7.75 20.75  C 7.75 21.164213562373096  7.414213562373096 21.5  7 21.5  L 1 21.5  C 0.5857864376269051 21.5  0.25 21.164213562373096  0.25 20.75  L 0.25 10.25  C 0.24964450544841066 10.050951704516624  0.32842907659384757 9.859926100506454  0.46899999999999986 9.719  L 9.469 0.7189999999999999  C 9.60970639451525 0.5779374489685472  9.800759108712638 0.49865932447187244  10 0.49865932447187244  C 10.19924089128736 0.49865932447187244  10.390293605484748 0.577937448968548  10.530999999999999 0.7189999999999999  L 19.531 9.719  C 19.67157092340615 9.859926100506454  19.750355494551588 10.050951704516624  19.75 10.25  L 19.75 20.75  C 19.75 21.164213562373096  19.414213562373096 21.5  19 21.5  L 13 21.5  C 12.585786437626904 21.5  12.25 21.164213562373096  12.25 20.75  L 12.25 15.5  C 12.25 15.125  11.875 14.75  11.5 14.75  L 8.5 14.75  Z " fill-rule="evenodd" />
    </mask>
  </defs>
  <g>
    <path d="M 8.5 14.75  C 8.125 14.75  7.75 15.125  7.75 15.4925  L 7.75 20.75  C 7.75 21.164213562373096  7.414213562373096 21.5  7 21.5  L 1 21.5  C 0.5857864376269051 21.5  0.25 21.164213562373096  0.25 20.75  L 0.25 10.25  C 0.24964450544841066 10.050951704516624  0.32842907659384757 9.859926100506454  0.46899999999999986 9.719  L 9.469 0.7189999999999999  C 9.60970639451525 0.5779374489685472  9.800759108712638 0.49865932447187244  10 0.49865932447187244  C 10.19924089128736 0.49865932447187244  10.390293605484748 0.577937448968548  10.530999999999999 0.7189999999999999  L 19.531 9.719  C 19.67157092340615 9.859926100506454  19.750355494551588 10.050951704516624  19.75 10.25  L 19.75 20.75  C 19.75 21.164213562373096  19.414213562373096 21.5  19 21.5  L 13 21.5  C 12.585786437626904 21.5  12.25 21.164213562373096  12.25 20.75  L 12.25 15.5  C 12.25 15.125  11.875 14.75  11.5 14.75  L 8.5 14.75  Z " fill-rule="nonzero" fill="rgba(0, 0, 0, 1)" stroke="none" class="fill" />
    <path d="M 8.5 14.75  C 8.125 14.75  7.75 15.125  7.75 15.4925  L 7.75 20.75  C 7.75 21.164213562373096  7.414213562373096 21.5  7 21.5  L 1 21.5  C 0.5857864376269051 21.5  0.25 21.164213562373096  0.25 20.75  L 0.25 10.25  C 0.24964450544841066 10.050951704516624  0.32842907659384757 9.859926100506454  0.46899999999999986 9.719  L 9.469 0.7189999999999999  C 9.60970639451525 0.5779374489685472  9.800759108712638 0.49865932447187244  10 0.49865932447187244  C 10.19924089128736 0.49865932447187244  10.390293605484748 0.577937448968548  10.530999999999999 0.7189999999999999  L 19.531 9.719  C 19.67157092340615 9.859926100506454  19.750355494551588 10.050951704516624  19.75 10.25  L 19.75 20.75  C 19.75 21.164213562373096  19.414213562373096 21.5  19 21.5  L 13 21.5  C 12.585786437626904 21.5  12.25 21.164213562373096  12.25 20.75  L 12.25 15.5  C 12.25 15.125  11.875 14.75  11.5 14.75  L 8.5 14.75  Z " stroke-width="0" stroke-dasharray="0" stroke="rgba(255, 255, 255, 0)" fill="none" class="stroke" mask="url(#Clip5773)" />
  </g>
</svg>