<?xml version="1.0" encoding="utf-8"?>
<svg version="1.1" xmlns:xlink="http://www.w3.org/1999/xlink" width="28px" height="28px" xmlns="http://www.w3.org/2000/svg">
  <defs>
    <pattern id="BGPattern" patternUnits="userSpaceOnUse" alignment="0 0" imageRepeat="None" />
    <mask fill="white" id="Clip3706">
      <path d="M 28 14  C 27.991292706493873 6.271623054772232  21.728376945227772 0.00870729350612498  13.999999999999998 0  C 6.268013502368891 0  0 6.268013502368892  0 14  C 0 21.73198649763111  6.268013502368891 28  13.999999999999998 28  C 21.731986497631105 28  27.999999999999996 21.73198649763111  27.999999999999996 14  Z M 12.999999999999998 25.949200000000005  C 6.787688038840587 25.4249157805152  2.009477237685956 20.23438882550094  2.0000000000000004 14  C 2.0027318068000133 12.636434822655225  2.2395030521732844 11.283456277665103  2.700000000000001 10  L 8 10  L 12.999999999999998 14  L 10.199999999999998 17.6929  C 9.901441823524335 18.091044845246813  9.941078837075315 18.648136677639144  10.293 19  L 12.999999999999998 22  L 12.999999999999998 25.949200000000005  Z M 19.434799999999996 24.6846  L 21.980499999999996 16.9854  C 22.054787243385597 16.614032980022035  21.912907633239698 16.2325645821018  21.614 16  L 12.999999999999998 9  L 15 7.000000000000002  L 20.279299999999996 7.000000000000002  C 20.70969086773069 7.000031904760455  21.09182433025839 6.724679912577536  21.227999999999994 6.316400000000001  L 21.723400000000005 4.830000000000002  C 24.434346666079396 7.105140845193456  25.999965263024684 10.462987453382958  25.999965263024684 14.00212544049148  C 25.999965263024684 18.51584543915597  23.461749987679994 22.646043888881398  19.434800000000003 24.685000000000006  Z " fill-rule="evenodd" />
    </mask>
  </defs>
  <g transform="matrix(1 0 0 1 -2 -2 )">
    <path d="M 28 14  C 27.991292706493873 6.271623054772232  21.728376945227772 0.00870729350612498  13.999999999999998 0  C 6.268013502368891 0  0 6.268013502368892  0 14  C 0 21.73198649763111  6.268013502368891 28  13.999999999999998 28  C 21.731986497631105 28  27.999999999999996 21.73198649763111  27.999999999999996 14  Z M 12.999999999999998 25.949200000000005  C 6.787688038840587 25.4249157805152  2.009477237685956 20.23438882550094  2.0000000000000004 14  C 2.0027318068000133 12.636434822655225  2.2395030521732844 11.283456277665103  2.700000000000001 10  L 8 10  L 12.999999999999998 14  L 10.199999999999998 17.6929  C 9.901441823524335 18.091044845246813  9.941078837075315 18.648136677639144  10.293 19  L 12.999999999999998 22  L 12.999999999999998 25.949200000000005  Z M 19.434799999999996 24.6846  L 21.980499999999996 16.9854  C 22.054787243385597 16.614032980022035  21.912907633239698 16.2325645821018  21.614 16  L 12.999999999999998 9  L 15 7.000000000000002  L 20.279299999999996 7.000000000000002  C 20.70969086773069 7.000031904760455  21.09182433025839 6.724679912577536  21.227999999999994 6.316400000000001  L 21.723400000000005 4.830000000000002  C 24.434346666079396 7.105140845193456  25.999965263024684 10.462987453382958  25.999965263024684 14.00212544049148  C 25.999965263024684 18.51584543915597  23.461749987679994 22.646043888881398  19.434800000000003 24.685000000000006  Z " fill-rule="nonzero" fill="rgba(0, 0, 0, 1)" stroke="none" transform="matrix(1 0 0 1 2 2 )" class="fill" />
    <path d="M 28 14  C 27.991292706493873 6.271623054772232  21.728376945227772 0.00870729350612498  13.999999999999998 0  C 6.268013502368891 0  0 6.268013502368892  0 14  C 0 21.73198649763111  6.268013502368891 28  13.999999999999998 28  C 21.731986497631105 28  27.999999999999996 21.73198649763111  27.999999999999996 14  Z " stroke-width="0" stroke-dasharray="0" stroke="rgba(255, 255, 255, 0)" fill="none" transform="matrix(1 0 0 1 2 2 )" class="stroke" mask="url(#Clip3706)" />
    <path d="M 12.999999999999998 25.949200000000005  C 6.787688038840587 25.4249157805152  2.009477237685956 20.23438882550094  2.0000000000000004 14  C 2.0027318068000133 12.636434822655225  2.2395030521732844 11.283456277665103  2.700000000000001 10  L 8 10  L 12.999999999999998 14  L 10.199999999999998 17.6929  C 9.901441823524335 18.091044845246813  9.941078837075315 18.648136677639144  10.293 19  L 12.999999999999998 22  L 12.999999999999998 25.949200000000005  Z " stroke-width="0" stroke-dasharray="0" stroke="rgba(255, 255, 255, 0)" fill="none" transform="matrix(1 0 0 1 2 2 )" class="stroke" mask="url(#Clip3706)" />
    <path d="M 19.434799999999996 24.6846  L 21.980499999999996 16.9854  C 22.054787243385597 16.614032980022035  21.912907633239698 16.2325645821018  21.614 16  L 12.999999999999998 9  L 15 7.000000000000002  L 20.279299999999996 7.000000000000002  C 20.70969086773069 7.000031904760455  21.09182433025839 6.724679912577536  21.227999999999994 6.316400000000001  L 21.723400000000005 4.830000000000002  C 24.434346666079396 7.105140845193456  25.999965263024684 10.462987453382958  25.999965263024684 14.00212544049148  C 25.999965263024684 18.51584543915597  23.461749987679994 22.646043888881398  19.434800000000003 24.685000000000006  Z " stroke-width="0" stroke-dasharray="0" stroke="rgba(255, 255, 255, 0)" fill="none" transform="matrix(1 0 0 1 2 2 )" class="stroke" mask="url(#Clip3706)" />
  </g>
</svg>