<?xml version="1.0" encoding="utf-8"?>
<svg version="1.1" xmlns:xlink="http://www.w3.org/1999/xlink" width="50px" height="50px" xmlns="http://www.w3.org/2000/svg">
  <defs>
    <pattern id="BGPattern" patternUnits="userSpaceOnUse" alignment="0 0" imageRepeat="None" />
    <mask fill="white" id="Clip1314">
      <path d="M 24.951267056530213 18.713450292397653  C 30.11890838206628 18.713450292397653  34.307992202729054 14.524366471734892  34.307992202729054 9.356725146198826  C 34.307992202729054 4.189083820662773  30.11890838206628 0  24.951267056530213 0  C 19.783625730994146 0  15.594541910331372 4.189083820662773  15.594541910331372 9.356725146198826  C 15.594541910331372 14.524366471734892  19.783625730994146 18.713450292397653  24.951267056530213 18.713450292397653  Z M 24 24.615984405458107  C 23.39181286549706 24.160818713450283  23.166666666666657 23.743664717348935  22.767056530214433 23.49902534113062  C 16.984405458089668 19.95906432748538  7.617933723196871 18.98635477582846  2.9044834307992176 18.718323586744646  C 1.320662768031184 18.628654970760238  0 19.835282651072134  0 21.358674463937632  L 0 43.074074074074076  C 0 44.47076023391813  1.129629629629619 45.63547758284602  2.581871345029242 45.71052631578948  C 6.837231968810925 45.93372319688109  15.44639376218325 46.7514619883041  21.39668615984405 49.7485380116959  C 22.309941520467845 50.20857699805069  23.39278752436647 49.58187134502924  24 48.5916179337232  L 24 24.615984405458107  Z M 50 21.358674463937632  C 49.902534113060426 19.835282651072134  48.58187134502924 18.628654970760238  46.99805068226124 18.718323586744646  C 42.28557504873294 18.985380116959078  32.91812865497076 19.95906432748538  27.136452241715403 23.49902534113062  C 26.736842105263182 23.743664717348935  26.51169590643275 24.177387914230025  26 24.63255360623782  L 26 48.58869395711503  C 26.51169590643275 49.58187134502924  27.597465886939577 50.20955165692007  28.51364522417154 49.7485380116959  C 34.46296296296299 46.754385964912274  43.06725146198829 45.93664717348929  47.321637426900566 45.71345029239765  C 48.77387914230019 45.637426900584785  49.903508771929864 44.47270955165692  50 43.07602339181287  L 50 21.358674463937632  Z " fill-rule="evenodd" />
    </mask>
  </defs>
  <g>
    <path d="M 24.951267056530213 18.713450292397653  C 30.11890838206628 18.713450292397653  34.307992202729054 14.524366471734892  34.307992202729054 9.356725146198826  C 34.307992202729054 4.189083820662773  30.11890838206628 0  24.951267056530213 0  C 19.783625730994146 0  15.594541910331372 4.189083820662773  15.594541910331372 9.356725146198826  C 15.594541910331372 14.524366471734892  19.783625730994146 18.713450292397653  24.951267056530213 18.713450292397653  Z M 24 24.615984405458107  C 23.39181286549706 24.160818713450283  23.166666666666657 23.743664717348935  22.767056530214433 23.49902534113062  C 16.984405458089668 19.95906432748538  7.617933723196871 18.98635477582846  2.9044834307992176 18.718323586744646  C 1.320662768031184 18.628654970760238  0 19.835282651072134  0 21.358674463937632  L 0 43.074074074074076  C 0 44.47076023391813  1.129629629629619 45.63547758284602  2.581871345029242 45.71052631578948  C 6.837231968810925 45.93372319688109  15.44639376218325 46.7514619883041  21.39668615984405 49.7485380116959  C 22.309941520467845 50.20857699805069  23.39278752436647 49.58187134502924  24 48.5916179337232  L 24 24.615984405458107  Z M 50 21.358674463937632  C 49.902534113060426 19.835282651072134  48.58187134502924 18.628654970760238  46.99805068226124 18.718323586744646  C 42.28557504873294 18.985380116959078  32.91812865497076 19.95906432748538  27.136452241715403 23.49902534113062  C 26.736842105263182 23.743664717348935  26.51169590643275 24.177387914230025  26 24.63255360623782  L 26 48.58869395711503  C 26.51169590643275 49.58187134502924  27.597465886939577 50.20955165692007  28.51364522417154 49.7485380116959  C 34.46296296296299 46.754385964912274  43.06725146198829 45.93664717348929  47.321637426900566 45.71345029239765  C 48.77387914230019 45.637426900584785  49.903508771929864 44.47270955165692  50 43.07602339181287  L 50 21.358674463937632  Z " fill-rule="nonzero" fill="rgba(0, 0, 0, 1)" stroke="none" class="fill" />
    <path d="M 24.951267056530213 18.713450292397653  C 30.11890838206628 18.713450292397653  34.307992202729054 14.524366471734892  34.307992202729054 9.356725146198826  C 34.307992202729054 4.189083820662773  30.11890838206628 0  24.951267056530213 0  C 19.783625730994146 0  15.594541910331372 4.189083820662773  15.594541910331372 9.356725146198826  C 15.594541910331372 14.524366471734892  19.783625730994146 18.713450292397653  24.951267056530213 18.713450292397653  Z " stroke-width="0" stroke-dasharray="0" stroke="rgba(255, 255, 255, 0)" fill="none" class="stroke" mask="url(#Clip1314)" />
    <path d="M 24 24.615984405458107  C 23.39181286549706 24.160818713450283  23.166666666666657 23.743664717348935  22.767056530214433 23.49902534113062  C 16.984405458089668 19.95906432748538  7.617933723196871 18.98635477582846  2.9044834307992176 18.718323586744646  C 1.320662768031184 18.628654970760238  0 19.835282651072134  0 21.358674463937632  L 0 43.074074074074076  C 0 44.47076023391813  1.129629629629619 45.63547758284602  2.581871345029242 45.71052631578948  C 6.837231968810925 45.93372319688109  15.44639376218325 46.7514619883041  21.39668615984405 49.7485380116959  C 22.309941520467845 50.20857699805069  23.39278752436647 49.58187134502924  24 48.5916179337232  L 24 24.615984405458107  Z " stroke-width="0" stroke-dasharray="0" stroke="rgba(255, 255, 255, 0)" fill="none" class="stroke" mask="url(#Clip1314)" />
    <path d="M 50 21.358674463937632  C 49.902534113060426 19.835282651072134  48.58187134502924 18.628654970760238  46.99805068226124 18.718323586744646  C 42.28557504873294 18.985380116959078  32.91812865497076 19.95906432748538  27.136452241715403 23.49902534113062  C 26.736842105263182 23.743664717348935  26.51169590643275 24.177387914230025  26 24.63255360623782  L 26 48.58869395711503  C 26.51169590643275 49.58187134502924  27.597465886939577 50.20955165692007  28.51364522417154 49.7485380116959  C 34.46296296296299 46.754385964912274  43.06725146198829 45.93664717348929  47.321637426900566 45.71345029239765  C 48.77387914230019 45.637426900584785  49.903508771929864 44.47270955165692  50 43.07602339181287  L 50 21.358674463937632  Z " stroke-width="0" stroke-dasharray="0" stroke="rgba(255, 255, 255, 0)" fill="none" class="stroke" mask="url(#Clip1314)" />
  </g>
</svg>