<?xml version="1.0" encoding="utf-8"?>
<svg version="1.1" xmlns:xlink="http://www.w3.org/1999/xlink" width="50px" height="42px" xmlns="http://www.w3.org/2000/svg">
  <defs>
    <pattern id="BGPattern" patternUnits="userSpaceOnUse" alignment="0 0" imageRepeat="None" />
    <mask fill="white" id="Clip999">
      <path d="M 46.67410714285714 0.2678571428571388  C 48.727678571428555 -0.5022321428571388  50.524553571428555 0.7254464285714164  49.85491071428572 3.8616071428571384  L 42.31026785714286 39.44196428571428  C 41.741071428571445 41.95312499999997  40.256696428571445 42.57812499999997  38.147321428571445 41.39508928571428  L 26.651785714285726 32.92410714285711  L 21.104910714285722 38.258928571428555  C 20.491071428571445 38.87276785714283  19.977678571428584 39.386160714285694  18.79464285714286 39.386160714285694  L 19.620535714285722 27.678571428571416  L 40.92633928571428 8.426339285714278  C 41.852678571428584 7.600446428571416  40.725446428571445 7.142857142857139  39.48660714285717 7.96875  L 13.147321428571415 24.553571428571416  L 1.8080357142857224 21.004464285714274  C -0.6584821428571388 20.234375  -0.703125 18.537946428571416  2.3214285714285836 17.354910714285694  L 46.67410714285714 0.2678571428571388  Z " fill-rule="evenodd" />
    </mask>
  </defs>
  <g>
    <path d="M 46.67410714285714 0.2678571428571388  C 48.727678571428555 -0.5022321428571388  50.524553571428555 0.7254464285714164  49.85491071428572 3.8616071428571384  L 42.31026785714286 39.44196428571428  C 41.741071428571445 41.95312499999997  40.256696428571445 42.57812499999997  38.147321428571445 41.39508928571428  L 26.651785714285726 32.92410714285711  L 21.104910714285722 38.258928571428555  C 20.491071428571445 38.87276785714283  19.977678571428584 39.386160714285694  18.79464285714286 39.386160714285694  L 19.620535714285722 27.678571428571416  L 40.92633928571428 8.426339285714278  C 41.852678571428584 7.600446428571416  40.725446428571445 7.142857142857139  39.48660714285717 7.96875  L 13.147321428571415 24.553571428571416  L 1.8080357142857224 21.004464285714274  C -0.6584821428571388 20.234375  -0.703125 18.537946428571416  2.3214285714285836 17.354910714285694  L 46.67410714285714 0.2678571428571388  Z " fill-rule="nonzero" fill="rgba(0, 0, 0, 1)" stroke="none" class="fill" />
    <path d="M 46.67410714285714 0.2678571428571388  C 48.727678571428555 -0.5022321428571388  50.524553571428555 0.7254464285714164  49.85491071428572 3.8616071428571384  L 42.31026785714286 39.44196428571428  C 41.741071428571445 41.95312499999997  40.256696428571445 42.57812499999997  38.147321428571445 41.39508928571428  L 26.651785714285726 32.92410714285711  L 21.104910714285722 38.258928571428555  C 20.491071428571445 38.87276785714283  19.977678571428584 39.386160714285694  18.79464285714286 39.386160714285694  L 19.620535714285722 27.678571428571416  L 40.92633928571428 8.426339285714278  C 41.852678571428584 7.600446428571416  40.725446428571445 7.142857142857139  39.48660714285717 7.96875  L 13.147321428571415 24.553571428571416  L 1.8080357142857224 21.004464285714274  C -0.6584821428571388 20.234375  -0.703125 18.537946428571416  2.3214285714285836 17.354910714285694  L 46.67410714285714 0.2678571428571388  Z " stroke-width="0" stroke-dasharray="0" stroke="rgba(255, 255, 255, 0)" fill="none" class="stroke" mask="url(#Clip999)" />
  </g>
</svg>