<?xml version="1.0" encoding="utf-8"?>
<svg version="1.1" xmlns:xlink="http://www.w3.org/1999/xlink" width="28px" height="24px" xmlns="http://www.w3.org/2000/svg">
  <defs>
    <pattern id="BGPattern" patternUnits="userSpaceOnUse" alignment="0 0" imageRepeat="None" />
    <mask fill="white" id="Clip4181">
      <path d="M 28 8  C 28 6.8954305003384135  27.104569499661586 6  26 6  L 20 6  L 20 2  C 20 0.8954305003384135  19.104569499661586 0  18 0  L 10 0  C 8.895430500338414 0  8 0.8954305003384135  8 2  L 8 6  L 2 6  C 0.895430500338413 6  0 6.8954305003384135  0 8  L 0 22  C 0 23.104569499661586  0.895430500338413 24  2 24  L 26 24  C 27.104569499661586 24  28 23.104569499661586  28 22  L 28 8  Z M 10 6  L 10 2  L 18 2  L 18 6  L 10 6  Z M 26 22  L 2 22  L 2 8  L 26 8  L 26 22  Z " fill-rule="evenodd" />
    </mask>
  </defs>
  <g transform="matrix(1 0 0 1 -2 -4 )">
    <path d="M 28 8  C 28 6.8954305003384135  27.104569499661586 6  26 6  L 20 6  L 20 2  C 20 0.8954305003384135  19.104569499661586 0  18 0  L 10 0  C 8.895430500338414 0  8 0.8954305003384135  8 2  L 8 6  L 2 6  C 0.895430500338413 6  0 6.8954305003384135  0 8  L 0 22  C 0 23.104569499661586  0.895430500338413 24  2 24  L 26 24  C 27.104569499661586 24  28 23.104569499661586  28 22  L 28 8  Z M 10 6  L 10 2  L 18 2  L 18 6  L 10 6  Z M 26 22  L 2 22  L 2 8  L 26 8  L 26 22  Z " fill-rule="nonzero" fill="rgba(0, 0, 0, 1)" stroke="none" transform="matrix(1 0 0 1 2 4 )" class="fill" />
    <path d="M 28 8  C 28 6.8954305003384135  27.104569499661586 6  26 6  L 20 6  L 20 2  C 20 0.8954305003384135  19.104569499661586 0  18 0  L 10 0  C 8.895430500338414 0  8 0.8954305003384135  8 2  L 8 6  L 2 6  C 0.895430500338413 6  0 6.8954305003384135  0 8  L 0 22  C 0 23.104569499661586  0.895430500338413 24  2 24  L 26 24  C 27.104569499661586 24  28 23.104569499661586  28 22  L 28 8  Z " stroke-width="0" stroke-dasharray="0" stroke="rgba(255, 255, 255, 0)" fill="none" transform="matrix(1 0 0 1 2 4 )" class="stroke" mask="url(#Clip4181)" />
    <path d="M 10 6  L 10 2  L 18 2  L 18 6  L 10 6  Z " stroke-width="0" stroke-dasharray="0" stroke="rgba(255, 255, 255, 0)" fill="none" transform="matrix(1 0 0 1 2 4 )" class="stroke" mask="url(#Clip4181)" />
    <path d="M 26 22  L 2 22  L 2 8  L 26 8  L 26 22  Z " stroke-width="0" stroke-dasharray="0" stroke="rgba(255, 255, 255, 0)" fill="none" transform="matrix(1 0 0 1 2 4 )" class="stroke" mask="url(#Clip4181)" />
  </g>
</svg>