<?xml version="1.0" encoding="utf-8"?>
<svg version="1.1" xmlns:xlink="http://www.w3.org/1999/xlink" width="64px" height="64px" xmlns="http://www.w3.org/2000/svg">
  <defs>
    <pattern id="BGPattern" patternUnits="userSpaceOnUse" alignment="0 0" imageRepeat="None" />
    <mask fill="white" id="Clip1672">
      <path d="M 62.837500000000006 45.8625  C 63.95 44.724999999999994  64.30000000000001 43.037499999999994  63.725 41.5625  L 54.9875 21.025  C 53.125 15.874999999999998  48.6875 12.149999999999999  43.3625 11.124999999999998  C 45.6125 9.799999999999999  49.15 6.637499999999998  47.637499999999996 0.8374999999999986  C 47.474999999999994 0.21249999999999858  46.74999999999999 -0.15000000000000147  46.137499999999996 0.07499999999999862  L 20.8625 9.5375  C 4.4875 15.425  0 29.8625  0 49.85  L 0 60  C 0 62.2125  1.7875 64  4 64  L 33.525 64  C 36.5 64  38.4375 60.875  37.1 58.2125  L 32 48  L 32 47.9125  C 26.3 47.475  21.425 44.075  18.9625 39.212500000000006  C 18.7625 38.825  18.849999999999998 38.35000000000001  19.162499999999998 38.050000000000004  L 20.674999999999997 36.5375  C 21.162499999999998 36.050000000000004  21.999999999999996 36.2  22.287499999999998 36.8375  C 24.1375 41.05  28.3125 44.012499999999996  33.2125 44.012499999999996  C 35.3625 44.012499999999996  37.3375 43.37499999999999  39.0625 42.3625  L 44.8125 50.349999999999994  C 45.5625 51.39999999999999  46.775 52.012499999999996  48.0625 52.012499999999996  L 54.35 52.012499999999996  C 55.4125 52.012499999999996  56.425000000000004 51.5875  57.175000000000004 50.8375  L 62.837500000000006 45.8625  Z M 44 25  C 44 26.6625  42.6625 28  41 28  C 39.3375 28  38 26.6625  38 25  C 38 23.3375  39.3375 22  41 22  C 42.6625 22  44 23.3375  44 25  Z " fill-rule="evenodd" />
    </mask>
  </defs>
  <g>
    <path d="M 62.837500000000006 45.8625  C 63.95 44.724999999999994  64.30000000000001 43.037499999999994  63.725 41.5625  L 54.9875 21.025  C 53.125 15.874999999999998  48.6875 12.149999999999999  43.3625 11.124999999999998  C 45.6125 9.799999999999999  49.15 6.637499999999998  47.637499999999996 0.8374999999999986  C 47.474999999999994 0.21249999999999858  46.74999999999999 -0.15000000000000147  46.137499999999996 0.07499999999999862  L 20.8625 9.5375  C 4.4875 15.425  0 29.8625  0 49.85  L 0 60  C 0 62.2125  1.7875 64  4 64  L 33.525 64  C 36.5 64  38.4375 60.875  37.1 58.2125  L 32 48  L 32 47.9125  C 26.3 47.475  21.425 44.075  18.9625 39.212500000000006  C 18.7625 38.825  18.849999999999998 38.35000000000001  19.162499999999998 38.050000000000004  L 20.674999999999997 36.5375  C 21.162499999999998 36.050000000000004  21.999999999999996 36.2  22.287499999999998 36.8375  C 24.1375 41.05  28.3125 44.012499999999996  33.2125 44.012499999999996  C 35.3625 44.012499999999996  37.3375 43.37499999999999  39.0625 42.3625  L 44.8125 50.349999999999994  C 45.5625 51.39999999999999  46.775 52.012499999999996  48.0625 52.012499999999996  L 54.35 52.012499999999996  C 55.4125 52.012499999999996  56.425000000000004 51.5875  57.175000000000004 50.8375  L 62.837500000000006 45.8625  Z M 44 25  C 44 26.6625  42.6625 28  41 28  C 39.3375 28  38 26.6625  38 25  C 38 23.3375  39.3375 22  41 22  C 42.6625 22  44 23.3375  44 25  Z " fill-rule="nonzero" fill="rgba(0, 0, 0, 1)" stroke="none" class="fill" />
    <path d="M 62.837500000000006 45.8625  C 63.95 44.724999999999994  64.30000000000001 43.037499999999994  63.725 41.5625  L 54.9875 21.025  C 53.125 15.874999999999998  48.6875 12.149999999999999  43.3625 11.124999999999998  C 45.6125 9.799999999999999  49.15 6.637499999999998  47.637499999999996 0.8374999999999986  C 47.474999999999994 0.21249999999999858  46.74999999999999 -0.15000000000000147  46.137499999999996 0.07499999999999862  L 20.8625 9.5375  C 4.4875 15.425  0 29.8625  0 49.85  L 0 60  C 0 62.2125  1.7875 64  4 64  L 33.525 64  C 36.5 64  38.4375 60.875  37.1 58.2125  L 32 48  L 32 47.9125  C 26.3 47.475  21.425 44.075  18.9625 39.212500000000006  C 18.7625 38.825  18.849999999999998 38.35000000000001  19.162499999999998 38.050000000000004  L 20.674999999999997 36.5375  C 21.162499999999998 36.050000000000004  21.999999999999996 36.2  22.287499999999998 36.8375  C 24.1375 41.05  28.3125 44.012499999999996  33.2125 44.012499999999996  C 35.3625 44.012499999999996  37.3375 43.37499999999999  39.0625 42.3625  L 44.8125 50.349999999999994  C 45.5625 51.39999999999999  46.775 52.012499999999996  48.0625 52.012499999999996  L 54.35 52.012499999999996  C 55.4125 52.012499999999996  56.425000000000004 51.5875  57.175000000000004 50.8375  L 62.837500000000006 45.8625  Z " stroke-width="0" stroke-dasharray="0" stroke="rgba(255, 255, 255, 0)" fill="none" class="stroke" mask="url(#Clip1672)" />
    <path d="M 44 25  C 44 26.6625  42.6625 28  41 28  C 39.3375 28  38 26.6625  38 25  C 38 23.3375  39.3375 22  41 22  C 42.6625 22  44 23.3375  44 25  Z " stroke-width="0" stroke-dasharray="0" stroke="rgba(255, 255, 255, 0)" fill="none" class="stroke" mask="url(#Clip1672)" />
  </g>
</svg>