<?xml version="1.0" encoding="utf-8"?>
<svg version="1.1" xmlns:xlink="http://www.w3.org/1999/xlink" width="5px" height="5px" xmlns="http://www.w3.org/2000/svg">
  <defs>
    <pattern id="BGPattern" patternUnits="userSpaceOnUse" alignment="0 0" imageRepeat="None" />
    <mask fill="white" id="Clip3771">
      <path d="M 1.2400000000000002 4.859999999999999  C 2.302300866673699 3.957376395537745  3.5137506082350214 3.246749452163785  4.82 2.76  L 4.130000000000001 0.8899999999999997  C 2.6213576596375887 1.45580828281041  1.223547291576459 2.2816332944494304  0 3.33  L 1.2400000000000002 4.859999999999999  Z " fill-rule="evenodd" />
    </mask>
  </defs>
  <g transform="matrix(1 0 0 1 -7 -2 )">
    <path d="M 1.2400000000000002 4.859999999999999  C 2.302300866673699 3.957376395537745  3.5137506082350214 3.246749452163785  4.82 2.76  L 4.130000000000001 0.8899999999999997  C 2.6213576596375887 1.45580828281041  1.223547291576459 2.2816332944494304  0 3.33  L 1.2400000000000002 4.859999999999999  Z " fill-rule="nonzero" fill="rgba(0, 0, 0, 1)" stroke="none" transform="matrix(1 0 0 1 7 2 )" class="fill" />
    <path d="M 1.2400000000000002 4.859999999999999  C 2.302300866673699 3.957376395537745  3.5137506082350214 3.246749452163785  4.82 2.76  L 4.130000000000001 0.8899999999999997  C 2.6213576596375887 1.45580828281041  1.223547291576459 2.2816332944494304  0 3.33  L 1.2400000000000002 4.859999999999999  Z " stroke-width="0" stroke-dasharray="0" stroke="rgba(255, 255, 255, 0)" fill="none" transform="matrix(1 0 0 1 7 2 )" class="stroke" mask="url(#Clip3771)" />
  </g>
</svg>