<?xml version="1.0" encoding="utf-8"?>
<svg version="1.1" xmlns:xlink="http://www.w3.org/1999/xlink" width="4px" height="5px" xmlns="http://www.w3.org/2000/svg">
  <defs>
    <pattern id="BGPattern" patternUnits="userSpaceOnUse" alignment="0 0" imageRepeat="None" />
    <mask fill="white" id="Clip3772">
      <path d="M 2.2199999999999998 4.93  C 2.4452674027135988 3.5504546907723586  2.908847251509255 2.220623445687009  3.59 1  L 1.8599999999999999 0  C 1.0559468582541034 1.4254482392656787  0.5013032265840418 2.977774013269082  0.21999999999999975 4.59  L 2.2199999999999998 4.93  Z " fill-rule="evenodd" />
    </mask>
  </defs>
  <g transform="matrix(1 0 0 1 -2 -9 )">
    <path d="M 2.2199999999999998 4.93  C 2.4452674027135988 3.5504546907723586  2.908847251509255 2.220623445687009  3.59 1  L 1.8599999999999999 0  C 1.0559468582541034 1.4254482392656787  0.5013032265840418 2.977774013269082  0.21999999999999975 4.59  L 2.2199999999999998 4.93  Z " fill-rule="nonzero" fill="rgba(0, 0, 0, 1)" stroke="none" transform="matrix(1 0 0 1 2 9 )" class="fill" />
    <path d="M 2.2199999999999998 4.93  C 2.4452674027135988 3.5504546907723586  2.908847251509255 2.220623445687009  3.59 1  L 1.8599999999999999 0  C 1.0559468582541034 1.4254482392656787  0.5013032265840418 2.977774013269082  0.21999999999999975 4.59  L 2.2199999999999998 4.93  Z " stroke-width="0" stroke-dasharray="0" stroke="rgba(255, 255, 255, 0)" fill="none" transform="matrix(1 0 0 1 2 9 )" class="stroke" mask="url(#Clip3772)" />
  </g>
</svg>