<?xml version="1.0" encoding="utf-8"?>
<svg version="1.1" xmlns:xlink="http://www.w3.org/1999/xlink" width="48px" height="48px" xmlns="http://www.w3.org/2000/svg">
  <defs>
    <pattern id="BGPattern" patternUnits="userSpaceOnUse" alignment="0 0" imageRepeat="None" />
    <mask fill="white" id="Clip6928">
      <path d="M 48 24.594  C 48 11.340000000000002  37.254 0.5940000000000012  24 0.594  C 10.74 0.594  0 11.34  0 24.594  C 0 35.2  6.876000000000001 44.194  16.41 47.364000000000004  C 17.61 47.59  18.05 46.848000000000006  18.05 46.21000000000001  C 18.05 45.64000000000001  18.03 44.13000000000001  18.02 42.13000000000001  C 11.344 43.57800000000001  9.936 38.91000000000001  9.936 38.91000000000001  C 8.844 36.14  7.266 35.4  7.266 35.4  C 5.0920000000000005 33.912  7.434000000000001 33.942  7.434000000000001 33.942  C 9.844000000000001 34.11  11.11 36.414  11.11 36.414  C 13.25 40.084  16.728 39.024  18.1 38.410000000000004  C 18.316000000000003 36.858000000000004  18.934 35.800000000000004  19.62 35.2  C 14.290000000000001 34.6  8.688 32.536  8.688 23.340000000000003  C 8.688 20.720000000000002  9.618 18.580000000000005  11.158000000000001 16.900000000000002  C 10.888000000000002 16.294  10.078000000000001 13.854000000000003  11.368000000000002 10.548000000000002  C 11.368000000000002 10.548000000000002  13.378000000000004 9.904000000000002  17.968000000000004 13.008000000000003  C 19.888000000000005 12.474  21.928000000000004 12.210000000000004  23.968000000000004 12.198000000000002  C 26.008000000000003 12.210000000000004  28.048000000000002 12.474  29.968000000000004 13.008000000000003  C 34.528000000000006 9.904000000000003  36.538000000000004 10.548000000000002  36.538000000000004 10.548000000000002  C 37.828 13.854000000000003  37.018 16.294000000000004  36.778000000000006 16.900000000000002  C 38.30800000000001 18.580000000000002  39.23800000000001 20.720000000000002  39.23800000000001 23.340000000000003  C 39.23800000000001 32.56  33.62800000000001 34.59  28.288000000000007 35.18000000000001  C 29.128000000000007 35.900000000000006  29.90800000000001 37.37200000000001  29.90800000000001 39.620000000000005  C 29.90800000000001 42.83200000000001  29.878000000000007 45.412000000000006  29.878000000000007 46.19200000000001  C 29.878000000000007 46.82200000000001  30.29800000000001 47.57200000000001  31.528000000000006 47.33200000000001  C 41.13 44.184  48 35.184  48 24.594  Z " fill-rule="evenodd" />
    </mask>
  </defs>
  <g>
    <path d="M 48 24.594  C 48 11.340000000000002  37.254 0.5940000000000012  24 0.594  C 10.74 0.594  0 11.34  0 24.594  C 0 35.2  6.876000000000001 44.194  16.41 47.364000000000004  C 17.61 47.59  18.05 46.848000000000006  18.05 46.21000000000001  C 18.05 45.64000000000001  18.03 44.13000000000001  18.02 42.13000000000001  C 11.344 43.57800000000001  9.936 38.91000000000001  9.936 38.91000000000001  C 8.844 36.14  7.266 35.4  7.266 35.4  C 5.0920000000000005 33.912  7.434000000000001 33.942  7.434000000000001 33.942  C 9.844000000000001 34.11  11.11 36.414  11.11 36.414  C 13.25 40.084  16.728 39.024  18.1 38.410000000000004  C 18.316000000000003 36.858000000000004  18.934 35.800000000000004  19.62 35.2  C 14.290000000000001 34.6  8.688 32.536  8.688 23.340000000000003  C 8.688 20.720000000000002  9.618 18.580000000000005  11.158000000000001 16.900000000000002  C 10.888000000000002 16.294  10.078000000000001 13.854000000000003  11.368000000000002 10.548000000000002  C 11.368000000000002 10.548000000000002  13.378000000000004 9.904000000000002  17.968000000000004 13.008000000000003  C 19.888000000000005 12.474  21.928000000000004 12.210000000000004  23.968000000000004 12.198000000000002  C 26.008000000000003 12.210000000000004  28.048000000000002 12.474  29.968000000000004 13.008000000000003  C 34.528000000000006 9.904000000000003  36.538000000000004 10.548000000000002  36.538000000000004 10.548000000000002  C 37.828 13.854000000000003  37.018 16.294000000000004  36.778000000000006 16.900000000000002  C 38.30800000000001 18.580000000000002  39.23800000000001 20.720000000000002  39.23800000000001 23.340000000000003  C 39.23800000000001 32.56  33.62800000000001 34.59  28.288000000000007 35.18000000000001  C 29.128000000000007 35.900000000000006  29.90800000000001 37.37200000000001  29.90800000000001 39.620000000000005  C 29.90800000000001 42.83200000000001  29.878000000000007 45.412000000000006  29.878000000000007 46.19200000000001  C 29.878000000000007 46.82200000000001  30.29800000000001 47.57200000000001  31.528000000000006 47.33200000000001  C 41.13 44.184  48 35.184  48 24.594  Z " fill-rule="nonzero" fill="rgba(24, 23, 23, 1)" stroke="none" class="fill" />
    <path d="M 48 24.594  C 48 11.340000000000002  37.254 0.5940000000000012  24 0.594  C 10.74 0.594  0 11.34  0 24.594  C 0 35.2  6.876000000000001 44.194  16.41 47.364000000000004  C 17.61 47.59  18.05 46.848000000000006  18.05 46.21000000000001  C 18.05 45.64000000000001  18.03 44.13000000000001  18.02 42.13000000000001  C 11.344 43.57800000000001  9.936 38.91000000000001  9.936 38.91000000000001  C 8.844 36.14  7.266 35.4  7.266 35.4  C 5.0920000000000005 33.912  7.434000000000001 33.942  7.434000000000001 33.942  C 9.844000000000001 34.11  11.11 36.414  11.11 36.414  C 13.25 40.084  16.728 39.024  18.1 38.410000000000004  C 18.316000000000003 36.858000000000004  18.934 35.800000000000004  19.62 35.2  C 14.290000000000001 34.6  8.688 32.536  8.688 23.340000000000003  C 8.688 20.720000000000002  9.618 18.580000000000005  11.158000000000001 16.900000000000002  C 10.888000000000002 16.294  10.078000000000001 13.854000000000003  11.368000000000002 10.548000000000002  C 11.368000000000002 10.548000000000002  13.378000000000004 9.904000000000002  17.968000000000004 13.008000000000003  C 19.888000000000005 12.474  21.928000000000004 12.210000000000004  23.968000000000004 12.198000000000002  C 26.008000000000003 12.210000000000004  28.048000000000002 12.474  29.968000000000004 13.008000000000003  C 34.528000000000006 9.904000000000003  36.538000000000004 10.548000000000002  36.538000000000004 10.548000000000002  C 37.828 13.854000000000003  37.018 16.294000000000004  36.778000000000006 16.900000000000002  C 38.30800000000001 18.580000000000002  39.23800000000001 20.720000000000002  39.23800000000001 23.340000000000003  C 39.23800000000001 32.56  33.62800000000001 34.59  28.288000000000007 35.18000000000001  C 29.128000000000007 35.900000000000006  29.90800000000001 37.37200000000001  29.90800000000001 39.620000000000005  C 29.90800000000001 42.83200000000001  29.878000000000007 45.412000000000006  29.878000000000007 46.19200000000001  C 29.878000000000007 46.82200000000001  30.29800000000001 47.57200000000001  31.528000000000006 47.33200000000001  C 41.13 44.184  48 35.184  48 24.594  Z " stroke-width="0" stroke-dasharray="0" stroke="rgba(255, 255, 255, 0)" fill="none" class="stroke" mask="url(#Clip6928)" />
  </g>
</svg>