<?xml version="1.0" encoding="utf-8"?>
<svg version="1.1" xmlns:xlink="http://www.w3.org/1999/xlink" width="47px" height="50px" xmlns="http://www.w3.org/2000/svg">
  <defs>
    <pattern id="BGPattern" patternUnits="userSpaceOnUse" alignment="0 0" imageRepeat="None" />
    <mask fill="white" id="Clip1821">
      <path d="M 46.540178571428555 2.6785714285714164  C 46.540178571428555 1.19921875  45.340959821428555 0  43.86160714285714 0  L 18.139620535714272 0  C 8.253124999999983 0  0.1166294642857224 7.961495535714278  0.1116071428571388 17.847991071428567  C 0.10669642857143913 27.71439732142858  8.103459821428572 35.71428571428572  18 35.71428571428572  L 18 47.321428571428555  C 17.96875 48.80078125  19.16796875 50  20.647321428571416 50  L 24.21875 50  C 25.698102678571416 50  26.897321428571413 48.80078125  26 47.321428571428555  L 26 8.928571428571416  L 30 8.928571428571416  L 30 47.321428571428555  C 30.46875 48.80078125  31.66796875 50  33.147321428571416 50  L 36.71875 50  C 38.198102678571416 50  39.397321428571416 48.80078125  39 47.321428571428555  L 39 8.928571428571416  L 43.86160714285714 8.928571428571416  C 45.340959821428555 8.928571428571416  46.540178571428555 7.729352678571416  46.540178571428555 6.25  L 46.540178571428555 2.6785714285714164  Z " fill-rule="evenodd" />
    </mask>
  </defs>
  <g>
    <path d="M 46.540178571428555 2.6785714285714164  C 46.540178571428555 1.19921875  45.340959821428555 0  43.86160714285714 0  L 18.139620535714272 0  C 8.253124999999983 0  0.1166294642857224 7.961495535714278  0.1116071428571388 17.847991071428567  C 0.10669642857143913 27.71439732142858  8.103459821428572 35.71428571428572  18 35.71428571428572  L 18 47.321428571428555  C 17.96875 48.80078125  19.16796875 50  20.647321428571416 50  L 24.21875 50  C 25.698102678571416 50  26.897321428571413 48.80078125  26 47.321428571428555  L 26 8.928571428571416  L 30 8.928571428571416  L 30 47.321428571428555  C 30.46875 48.80078125  31.66796875 50  33.147321428571416 50  L 36.71875 50  C 38.198102678571416 50  39.397321428571416 48.80078125  39 47.321428571428555  L 39 8.928571428571416  L 43.86160714285714 8.928571428571416  C 45.340959821428555 8.928571428571416  46.540178571428555 7.729352678571416  46.540178571428555 6.25  L 46.540178571428555 2.6785714285714164  Z " fill-rule="nonzero" fill="rgba(0, 0, 0, 1)" stroke="none" class="fill" />
    <path d="M 46.540178571428555 2.6785714285714164  C 46.540178571428555 1.19921875  45.340959821428555 0  43.86160714285714 0  L 18.139620535714272 0  C 8.253124999999983 0  0.1166294642857224 7.961495535714278  0.1116071428571388 17.847991071428567  C 0.10669642857143913 27.71439732142858  8.103459821428572 35.71428571428572  18 35.71428571428572  L 18 47.321428571428555  C 17.96875 48.80078125  19.16796875 50  20.647321428571416 50  L 24.21875 50  C 25.698102678571416 50  26.897321428571413 48.80078125  26 47.321428571428555  L 26 8.928571428571416  L 30 8.928571428571416  L 30 47.321428571428555  C 30.46875 48.80078125  31.66796875 50  33.147321428571416 50  L 36.71875 50  C 38.198102678571416 50  39.397321428571416 48.80078125  39 47.321428571428555  L 39 8.928571428571416  L 43.86160714285714 8.928571428571416  C 45.340959821428555 8.928571428571416  46.540178571428555 7.729352678571416  46.540178571428555 6.25  L 46.540178571428555 2.6785714285714164  Z " stroke-width="0" stroke-dasharray="0" stroke="rgba(255, 255, 255, 0)" fill="none" class="stroke" mask="url(#Clip1821)" />
  </g>
</svg>