<?xml version="1.0" encoding="utf-8"?>
<svg version="1.1" xmlns:xlink="http://www.w3.org/1999/xlink" width="48px" height="48px" xmlns="http://www.w3.org/2000/svg">
  <defs>
    <pattern id="BGPattern" patternUnits="userSpaceOnUse" alignment="0 0" imageRepeat="None" />
    <mask fill="white" id="Clip7408">
      <path d="M 48 24  C 48 10.799999999999997  37.32 0  24 0  C 10.8 0  0 10.8  0 24  C 0 37.2  10.8 48  24 48  C 37.2 48  48 37.2  48 24  Z M 34.44 32.64  C 35.28 33  35.397999999999996 33.958  35.042 34.68  C 34.562000000000005 35.397999999999996  33.722 35.64  33 35.16  C 27.36 31.679999999999996  20.28 30.958  11.878 32.878  C 11.042 33.122  10.32 32.52  10.08 31.799999999999997  C 9.84 30.958000000000006  10.44 30.240000000000002  11.16 30  C 20.28 27.958  28.200000000000003 28.799999999999997  34.44 32.64  Z M 37.44 25.68  C 38.162 26.041999999999994  38.519999999999996 27.240000000000002  37.922000000000004 28.08  C 37.32000000000001 28.919999999999995  36.24 29.28  35.398 28.68  C 28.92 24.72  19.080000000000002 23.52  11.520000000000003 25.92  C 10.562000000000003 26.160000000000004  9.480000000000004 25.68  9.240000000000004 24.72  C 9.000000000000004 23.76  9.480000000000004 22.678000000000004  10.440000000000003 22.438000000000002  C 19.2 19.8  30 21.122  37.44 25.68  Z M 41.28 20.76  C 40.682 21.602  39.24 21.958000000000002  38.162000000000006 21.36  C 30.48 16.8  17.64 16.32  10.32 18.602  C 9.120000000000001 18.96  7.92 18.240000000000002  7.5600000000000005 17.16  C 7.199999999999999 15.958000000000002  7.92 14.76  9 14.398  C 17.52 11.878  31.56 12.358  40.442 17.64  C 41.52 18.240000000000002  41.88 19.68  41.28 20.76  Z " fill-rule="evenodd" />
    </mask>
  </defs>
  <g>
    <path d="M 48 24  C 48 10.799999999999997  37.32 0  24 0  C 10.8 0  0 10.8  0 24  C 0 37.2  10.8 48  24 48  C 37.2 48  48 37.2  48 24  Z M 34.44 32.64  C 35.28 33  35.397999999999996 33.958  35.042 34.68  C 34.562000000000005 35.397999999999996  33.722 35.64  33 35.16  C 27.36 31.679999999999996  20.28 30.958  11.878 32.878  C 11.042 33.122  10.32 32.52  10.08 31.799999999999997  C 9.84 30.958000000000006  10.44 30.240000000000002  11.16 30  C 20.28 27.958  28.200000000000003 28.799999999999997  34.44 32.64  Z M 37.44 25.68  C 38.162 26.041999999999994  38.519999999999996 27.240000000000002  37.922000000000004 28.08  C 37.32000000000001 28.919999999999995  36.24 29.28  35.398 28.68  C 28.92 24.72  19.080000000000002 23.52  11.520000000000003 25.92  C 10.562000000000003 26.160000000000004  9.480000000000004 25.68  9.240000000000004 24.72  C 9.000000000000004 23.76  9.480000000000004 22.678000000000004  10.440000000000003 22.438000000000002  C 19.2 19.8  30 21.122  37.44 25.68  Z M 41.28 20.76  C 40.682 21.602  39.24 21.958000000000002  38.162000000000006 21.36  C 30.48 16.8  17.64 16.32  10.32 18.602  C 9.120000000000001 18.96  7.92 18.240000000000002  7.5600000000000005 17.16  C 7.199999999999999 15.958000000000002  7.92 14.76  9 14.398  C 17.52 11.878  31.56 12.358  40.442 17.64  C 41.52 18.240000000000002  41.88 19.68  41.28 20.76  Z " fill-rule="nonzero" fill="rgba(30, 215, 96, 1)" stroke="none" class="fill" />
    <path d="M 48 24  C 48 10.799999999999997  37.32 0  24 0  C 10.8 0  0 10.8  0 24  C 0 37.2  10.8 48  24 48  C 37.2 48  48 37.2  48 24  Z " stroke-width="0" stroke-dasharray="0" stroke="rgba(255, 255, 255, 0)" fill="none" class="stroke" mask="url(#Clip7408)" />
    <path d="M 34.44 32.64  C 35.28 33  35.397999999999996 33.958  35.042 34.68  C 34.562000000000005 35.397999999999996  33.722 35.64  33 35.16  C 27.36 31.679999999999996  20.28 30.958  11.878 32.878  C 11.042 33.122  10.32 32.52  10.08 31.799999999999997  C 9.84 30.958000000000006  10.44 30.240000000000002  11.16 30  C 20.28 27.958  28.200000000000003 28.799999999999997  34.44 32.64  Z " stroke-width="0" stroke-dasharray="0" stroke="rgba(255, 255, 255, 0)" fill="none" class="stroke" mask="url(#Clip7408)" />
    <path d="M 37.44 25.68  C 38.162 26.041999999999994  38.519999999999996 27.240000000000002  37.922000000000004 28.08  C 37.32000000000001 28.919999999999995  36.24 29.28  35.398 28.68  C 28.92 24.72  19.080000000000002 23.52  11.520000000000003 25.92  C 10.562000000000003 26.160000000000004  9.480000000000004 25.68  9.240000000000004 24.72  C 9.000000000000004 23.76  9.480000000000004 22.678000000000004  10.440000000000003 22.438000000000002  C 19.2 19.8  30 21.122  37.44 25.68  Z " stroke-width="0" stroke-dasharray="0" stroke="rgba(255, 255, 255, 0)" fill="none" class="stroke" mask="url(#Clip7408)" />
    <path d="M 41.28 20.76  C 40.682 21.602  39.24 21.958000000000002  38.162000000000006 21.36  C 30.48 16.8  17.64 16.32  10.32 18.602  C 9.120000000000001 18.96  7.92 18.240000000000002  7.5600000000000005 17.16  C 7.199999999999999 15.958000000000002  7.92 14.76  9 14.398  C 17.52 11.878  31.56 12.358  40.442 17.64  C 41.52 18.240000000000002  41.88 19.68  41.28 20.76  Z " stroke-width="0" stroke-dasharray="0" stroke="rgba(255, 255, 255, 0)" fill="none" class="stroke" mask="url(#Clip7408)" />
  </g>
</svg>