<?xml version="1.0" encoding="utf-8"?>
<svg version="1.1" xmlns:xlink="http://www.w3.org/1999/xlink" width="24px" height="22px" xmlns="http://www.w3.org/2000/svg">
  <defs>
    <pattern id="BGPattern" patternUnits="userSpaceOnUse" alignment="0 0" imageRepeat="None" />
    <mask fill="white" id="Clip4804">
      <path d="M 16.5 20  L 16.5 2  C 16.5 1.1715728752538097  17.17157287525381 0.5  18 0.5  L 21 0.5  C 21.82842712474619 0.5  22.5 1.1715728752538097  22.5 2  L 22.5 20  L 23.25 20  C 23.664213562373096 20  24 20.335786437626904  24 20.75  C 24 21.164213562373096  23.664213562373096 21.5  23.25 21.5  L 0.75 21.5  C 0.3357864376269049 21.5  0 21.164213562373096  0 20.75  C 0 20.335786437626904  0.3357864376269049 20  0.75 20  L 1.5 20  L 1.5 15.5  C 1.5 14.671572875253812  2.1715728752538097 14  3 14  L 6 14  C 6.82842712474619 14  7.5 14.671572875253812  7.5 15.5  L 7.5 20  L 9 20  L 9 9.5  C 9 8.67157287525381  9.67157287525381 8  10.5 8  L 13.5 8  C 14.32842712474619 8  15 8.67157287525381  15 9.5  L 15 20  L 16.5 20  Z M 18 2  L 18 20  L 21 20  L 21 2  L 18 2  Z M 10.5 20  L 13.5 20  L 13.5 9.5  L 10.5 9.5  L 10.5 20  Z M 3 20  L 6 20  L 6 15.5  L 3 15.5  L 3 20  Z " fill-rule="evenodd" />
    </mask>
  </defs>
  <g>
    <path d="M 16.5 20  L 16.5 2  C 16.5 1.1715728752538097  17.17157287525381 0.5  18 0.5  L 21 0.5  C 21.82842712474619 0.5  22.5 1.1715728752538097  22.5 2  L 22.5 20  L 23.25 20  C 23.664213562373096 20  24 20.335786437626904  24 20.75  C 24 21.164213562373096  23.664213562373096 21.5  23.25 21.5  L 0.75 21.5  C 0.3357864376269049 21.5  0 21.164213562373096  0 20.75  C 0 20.335786437626904  0.3357864376269049 20  0.75 20  L 1.5 20  L 1.5 15.5  C 1.5 14.671572875253812  2.1715728752538097 14  3 14  L 6 14  C 6.82842712474619 14  7.5 14.671572875253812  7.5 15.5  L 7.5 20  L 9 20  L 9 9.5  C 9 8.67157287525381  9.67157287525381 8  10.5 8  L 13.5 8  C 14.32842712474619 8  15 8.67157287525381  15 9.5  L 15 20  L 16.5 20  Z M 18 2  L 18 20  L 21 20  L 21 2  L 18 2  Z M 10.5 20  L 13.5 20  L 13.5 9.5  L 10.5 9.5  L 10.5 20  Z M 3 20  L 6 20  L 6 15.5  L 3 15.5  L 3 20  Z " fill-rule="nonzero" fill="rgba(0, 0, 0, 1)" stroke="none" class="fill" />
    <path d="M 16.5 20  L 16.5 2  C 16.5 1.1715728752538097  17.17157287525381 0.5  18 0.5  L 21 0.5  C 21.82842712474619 0.5  22.5 1.1715728752538097  22.5 2  L 22.5 20  L 23.25 20  C 23.664213562373096 20  24 20.335786437626904  24 20.75  C 24 21.164213562373096  23.664213562373096 21.5  23.25 21.5  L 0.75 21.5  C 0.3357864376269049 21.5  0 21.164213562373096  0 20.75  C 0 20.335786437626904  0.3357864376269049 20  0.75 20  L 1.5 20  L 1.5 15.5  C 1.5 14.671572875253812  2.1715728752538097 14  3 14  L 6 14  C 6.82842712474619 14  7.5 14.671572875253812  7.5 15.5  L 7.5 20  L 9 20  L 9 9.5  C 9 8.67157287525381  9.67157287525381 8  10.5 8  L 13.5 8  C 14.32842712474619 8  15 8.67157287525381  15 9.5  L 15 20  L 16.5 20  Z " stroke-width="0" stroke-dasharray="0" stroke="rgba(255, 255, 255, 0)" fill="none" class="stroke" mask="url(#Clip4804)" />
    <path d="M 18 2  L 18 20  L 21 20  L 21 2  L 18 2  Z " stroke-width="0" stroke-dasharray="0" stroke="rgba(255, 255, 255, 0)" fill="none" class="stroke" mask="url(#Clip4804)" />
    <path d="M 10.5 20  L 13.5 20  L 13.5 9.5  L 10.5 9.5  L 10.5 20  Z " stroke-width="0" stroke-dasharray="0" stroke="rgba(255, 255, 255, 0)" fill="none" class="stroke" mask="url(#Clip4804)" />
    <path d="M 3 20  L 6 20  L 6 15.5  L 3 15.5  L 3 20  Z " stroke-width="0" stroke-dasharray="0" stroke="rgba(255, 255, 255, 0)" fill="none" class="stroke" mask="url(#Clip4804)" />
  </g>
</svg>