<?xml version="1.0" encoding="utf-8"?>
<svg version="1.1" xmlns:xlink="http://www.w3.org/1999/xlink" width="45px" height="50px" xmlns="http://www.w3.org/2000/svg">
  <defs>
    <pattern id="BGPattern" patternUnits="userSpaceOnUse" alignment="0 0" imageRepeat="None" />
    <mask fill="white" id="Clip1001">
      <path d="M 1.7770968509932459 11.071512032317287  L 20.133711004956865 0.4341308249822759  C 21.115499055363784 -0.1343788879843828  22.713172628151256 -0.14345085148914904  23.70100865422802 0.41296291013776454  L 42.664436367067424 11.092679947161798  C 43.65328038908916 11.649093708788712  44.45463716534533 13.021984185846463  44 14.154971627999826  L 44 35.71298090320823  C 44.45463716534533 36.847984337251546  43.65529638097911 38.22188281025427  42.669476346792294 38.78333655160611  L 23.696976670448123 49.58300510608234  C 22.71115663626131 50.14445884743412  21.118523043198707 50.13538688392936  20.13975898062671 49.56183719123783  L 1.7720568712683757 38.804504466450624  C 0.7932928086963785 38.230954773759095  0 36.8459683453616  0 35.71197290726326  L 0 14.154971627999826  C 0 13.019968193956515  0.7963167965313005 11.639013749338972  1.7770968509932459 11.071512032317287  Z M 12.452781904237384 27.380886422034052  C 17.385914058951414 27.380886422034052  17.370794119776804 20.26241905861133  12.452781904237384 20.26241905861133  C 10.871236266569554 20.26241905861133  9.288682632956693 20.276531001841022  8 20.276531001841022  L 8 30.343386504319426  L 9.605193359679276 30.343386504319426  L 9.605193359679276 27.380886422034052  L 12.452781904237384 27.380886422034052  Z M 26.35909396113055 30.343386504319426  L 26.35909396113055 30.214363023362466  L 23.309906227577244 26.77709685099325  C 26.979011467291002 26.032187847655734  26.76330033506605 20.30475488830035  22.23135056645259 20.276531001841022  C 20.634684989610093 20.276531001841022  19.03902740871257 20.26241905861133  18 20.26241905861133  L 18 30.343386504319426  L 19.340418196260487 30.343386504319426  L 19.340418196260487 26.978696039988503  L 21.167914844502548 26.978696039988503  L 24.101183044383617 30.343386504319426  L 26.35909396113055 30.343386504319426  Z M 19.34142619220546 22.04556388527442  L 22.232358562397565 22.04556388527442  C 24.54873324395311 22.04556388527442  24.540669276393317 25.267118925418742  22.232358562397565 25.267118925418742  L 19.34142619220546 25.267118925418742  L 19.34142619220546 22.04556388527442  Z M 9.543705607035747 21.88831651785813  L 12.750140708005404 21.887308521913155  C 14.851812253280967 21.887308521913155  14.84475628166615 25.741885015502593  12.750140708005404 25.741885015502593  L 9.543705607035747 25.741885015502593  L 9.543705607035747 21.88831651785813  Z M 31.866783804481148 30.574217575718986  C 38.76046807217415 30.573209579774012  38.754420096504305 20.075939808790736  31.866783804481148 20.075939808790736  C 25.072891135340797 20.075939808790736  24.824924132876614 30.574217575718986  31.866783804481148 30.574217575718986  Z M 31.866783804481148 28.833408578744923  C 27.419505695245675 28.833408578744923  27.457809541154745 21.801628866590136  31.866783804481148 21.801628866590136  C 36.24451019351329 21.801628866590136  36.312045921826666 28.833408578744923  31.866783804481148 28.833408578744923  Z " fill-rule="evenodd" />
    </mask>
  </defs>
  <g>
    <path d="M 1.7770968509932459 11.071512032317287  L 20.133711004956865 0.4341308249822759  C 21.115499055363784 -0.1343788879843828  22.713172628151256 -0.14345085148914904  23.70100865422802 0.41296291013776454  L 42.664436367067424 11.092679947161798  C 43.65328038908916 11.649093708788712  44.45463716534533 13.021984185846463  44 14.154971627999826  L 44 35.71298090320823  C 44.45463716534533 36.847984337251546  43.65529638097911 38.22188281025427  42.669476346792294 38.78333655160611  L 23.696976670448123 49.58300510608234  C 22.71115663626131 50.14445884743412  21.118523043198707 50.13538688392936  20.13975898062671 49.56183719123783  L 1.7720568712683757 38.804504466450624  C 0.7932928086963785 38.230954773759095  0 36.8459683453616  0 35.71197290726326  L 0 14.154971627999826  C 0 13.019968193956515  0.7963167965313005 11.639013749338972  1.7770968509932459 11.071512032317287  Z M 12.452781904237384 27.380886422034052  C 17.385914058951414 27.380886422034052  17.370794119776804 20.26241905861133  12.452781904237384 20.26241905861133  C 10.871236266569554 20.26241905861133  9.288682632956693 20.276531001841022  8 20.276531001841022  L 8 30.343386504319426  L 9.605193359679276 30.343386504319426  L 9.605193359679276 27.380886422034052  L 12.452781904237384 27.380886422034052  Z M 26.35909396113055 30.343386504319426  L 26.35909396113055 30.214363023362466  L 23.309906227577244 26.77709685099325  C 26.979011467291002 26.032187847655734  26.76330033506605 20.30475488830035  22.23135056645259 20.276531001841022  C 20.634684989610093 20.276531001841022  19.03902740871257 20.26241905861133  18 20.26241905861133  L 18 30.343386504319426  L 19.340418196260487 30.343386504319426  L 19.340418196260487 26.978696039988503  L 21.167914844502548 26.978696039988503  L 24.101183044383617 30.343386504319426  L 26.35909396113055 30.343386504319426  Z M 19.34142619220546 22.04556388527442  L 22.232358562397565 22.04556388527442  C 24.54873324395311 22.04556388527442  24.540669276393317 25.267118925418742  22.232358562397565 25.267118925418742  L 19.34142619220546 25.267118925418742  L 19.34142619220546 22.04556388527442  Z M 9.543705607035747 21.88831651785813  L 12.750140708005404 21.887308521913155  C 14.851812253280967 21.887308521913155  14.84475628166615 25.741885015502593  12.750140708005404 25.741885015502593  L 9.543705607035747 25.741885015502593  L 9.543705607035747 21.88831651785813  Z M 31.866783804481148 30.574217575718986  C 38.76046807217415 30.573209579774012  38.754420096504305 20.075939808790736  31.866783804481148 20.075939808790736  C 25.072891135340797 20.075939808790736  24.824924132876614 30.574217575718986  31.866783804481148 30.574217575718986  Z M 31.866783804481148 28.833408578744923  C 27.419505695245675 28.833408578744923  27.457809541154745 21.801628866590136  31.866783804481148 21.801628866590136  C 36.24451019351329 21.801628866590136  36.312045921826666 28.833408578744923  31.866783804481148 28.833408578744923  Z " fill-rule="nonzero" fill="rgba(0, 0, 0, 1)" stroke="none" class="fill" />
    <path d="M 1.7770968509932459 11.071512032317287  L 20.133711004956865 0.4341308249822759  C 21.115499055363784 -0.1343788879843828  22.713172628151256 -0.14345085148914904  23.70100865422802 0.41296291013776454  L 42.664436367067424 11.092679947161798  C 43.65328038908916 11.649093708788712  44.45463716534533 13.021984185846463  44 14.154971627999826  L 44 35.71298090320823  C 44.45463716534533 36.847984337251546  43.65529638097911 38.22188281025427  42.669476346792294 38.78333655160611  L 23.696976670448123 49.58300510608234  C 22.71115663626131 50.14445884743412  21.118523043198707 50.13538688392936  20.13975898062671 49.56183719123783  L 1.7720568712683757 38.804504466450624  C 0.7932928086963785 38.230954773759095  0 36.8459683453616  0 35.71197290726326  L 0 14.154971627999826  C 0 13.019968193956515  0.7963167965313005 11.639013749338972  1.7770968509932459 11.071512032317287  Z " stroke-width="0" stroke-dasharray="0" stroke="rgba(255, 255, 255, 0)" fill="none" class="stroke" mask="url(#Clip1001)" />
    <path d="M 12.452781904237384 27.380886422034052  C 17.385914058951414 27.380886422034052  17.370794119776804 20.26241905861133  12.452781904237384 20.26241905861133  C 10.871236266569554 20.26241905861133  9.288682632956693 20.276531001841022  8 20.276531001841022  L 8 30.343386504319426  L 9.605193359679276 30.343386504319426  L 9.605193359679276 27.380886422034052  L 12.452781904237384 27.380886422034052  Z " stroke-width="0" stroke-dasharray="0" stroke="rgba(255, 255, 255, 0)" fill="none" class="stroke" mask="url(#Clip1001)" />
    <path d="M 26.35909396113055 30.343386504319426  L 26.35909396113055 30.214363023362466  L 23.309906227577244 26.77709685099325  C 26.979011467291002 26.032187847655734  26.76330033506605 20.30475488830035  22.23135056645259 20.276531001841022  C 20.634684989610093 20.276531001841022  19.03902740871257 20.26241905861133  18 20.26241905861133  L 18 30.343386504319426  L 19.340418196260487 30.343386504319426  L 19.340418196260487 26.978696039988503  L 21.167914844502548 26.978696039988503  L 24.101183044383617 30.343386504319426  L 26.35909396113055 30.343386504319426  Z " stroke-width="0" stroke-dasharray="0" stroke="rgba(255, 255, 255, 0)" fill="none" class="stroke" mask="url(#Clip1001)" />
    <path d="M 19.34142619220546 22.04556388527442  L 22.232358562397565 22.04556388527442  C 24.54873324395311 22.04556388527442  24.540669276393317 25.267118925418742  22.232358562397565 25.267118925418742  L 19.34142619220546 25.267118925418742  L 19.34142619220546 22.04556388527442  Z " stroke-width="0" stroke-dasharray="0" stroke="rgba(255, 255, 255, 0)" fill="none" class="stroke" mask="url(#Clip1001)" />
    <path d="M 9.543705607035747 21.88831651785813  L 12.750140708005404 21.887308521913155  C 14.851812253280967 21.887308521913155  14.84475628166615 25.741885015502593  12.750140708005404 25.741885015502593  L 9.543705607035747 25.741885015502593  L 9.543705607035747 21.88831651785813  Z " stroke-width="0" stroke-dasharray="0" stroke="rgba(255, 255, 255, 0)" fill="none" class="stroke" mask="url(#Clip1001)" />
    <path d="M 31.866783804481148 30.574217575718986  C 38.76046807217415 30.573209579774012  38.754420096504305 20.075939808790736  31.866783804481148 20.075939808790736  C 25.072891135340797 20.075939808790736  24.824924132876614 30.574217575718986  31.866783804481148 30.574217575718986  Z " stroke-width="0" stroke-dasharray="0" stroke="rgba(255, 255, 255, 0)" fill="none" class="stroke" mask="url(#Clip1001)" />
    <path d="M 31.866783804481148 28.833408578744923  C 27.419505695245675 28.833408578744923  27.457809541154745 21.801628866590136  31.866783804481148 21.801628866590136  C 36.24451019351329 21.801628866590136  36.312045921826666 28.833408578744923  31.866783804481148 28.833408578744923  Z " stroke-width="0" stroke-dasharray="0" stroke="rgba(255, 255, 255, 0)" fill="none" class="stroke" mask="url(#Clip1001)" />
  </g>
</svg>