<?xml version="1.0" encoding="utf-8"?>
<svg version="1.1" xmlns:xlink="http://www.w3.org/1999/xlink" width="50px" height="50px" xmlns="http://www.w3.org/2000/svg">
  <defs>
    <pattern id="BGPattern" patternUnits="userSpaceOnUse" alignment="0 0" imageRepeat="None" />
    <mask fill="white" id="Clip652">
      <path d="M 24.092741935483872 9.798387096774206  L 24.98991935483872 11.381048387096769  L 25.907258064516125 9.798387096774206  C 26.471774193548388 8.810483870967744  27.731854838709697 8.477822580645181  28.7197580645161 9.042338709677438  C 29.707661290322562 9.606854838709694  30.040322580645178 10.866935483870975  29.475806451612925 11.854838709677438  L 20.655241935483872 27.127016129032256  L 27.036290322580612 27.127016129032256  C 29.10282258064518 27.127016129032256  30.262096774193537 29.556451612903235  29.36491935483872 31  L 10.665322580645153 31  C 9.52620967741936 31.23991935483872  8.60887096774195 30.322580645161278  8.60887096774195 29.183467741935488  C 8.60887096774195 28.044354838709694  9.52620967741936 27.127016129032256  10.665322580645153 27.127016129032256  L 15.907258064516128 27.127016129032256  L 22.620967741935488 15.493951612903231  L 20.524193548387103 11.854838709677438  C 19.959677419354847 10.866935483870975  20.29233870967741 9.616935483870975  21.280241935483872 9.042338709677438  C 22.268145161290334 8.477822580645181  23.518145161290306 8.810483870967744  24.092741935483872 9.798387096774206  Z M 12.983870967741924 32.1875  C 14.637096774193537 31.673387096774206  15.987903225806463 32.06653225806451  17.05645161290323 33.356854838709694  L 15.080645161290306 36.78427419354841  C 14.51612903225808 37.77217741935482  13.256048387096769 38.10483870967744  12.268145161290306 37.54032258064518  C 11.280241935483872 36.975806451612925  10.947580645161281 35.71572580645159  11.512096774193537 34.72782258064518  L 12.983870967741924 32.1875  Z M 28.02419354838713 16.653225806451587  C 29.375 18.971774193548356  31.391129032258046 22.4697580645161  34.08266129032256 27.137096774193537  L 39.435483870967744 27.137096774193537  C 40.57459677419354 27.137096774193537  41.491935483870975 28.054435483870975  41.491935483870975 29.19354838709677  C 41.491935483870975 30.33266129032256  40.57459677419354 31.25  39.435483870967744 31.25  L 36.461693548387075 31.25  L 38.4677419354839 34.72782258064518  C 39.03225806451616 35.71572580645159  38.69959677419354 36.96572580645159  37.711693548387075 37.540322580645125  C 36.72379032258067 38.10483870967744  35.47379032258067 37.77217741935482  34.899193548387075 36.784274193548356  C 31.52217741935482 30.92741935483872  28.98185483870969 26.542338709677438  27.298387096774206 23.61895161290323  C 25.574596774193537 20.645161290322562  26.804435483870975 17.661290322580612  28.02419354838713 16.653225806451587  Z M 50 25  C 50 11.189516129032256  38.810483870967744 0  25 0  C 11.189516129032256 0  0 11.189516129032256  0 25  C 0 38.810483870967744  11.189516129032256 50  25 50  C 38.810483870967744 50  50 38.810483870967744  50 25  Z M 25 3.2258064516129252  C 36.96572580645159 3.2258064516129252  46.774193548387075 12.913306451612923  46.774193548387075 25  C 46.774193548387075 36.96572580645159  37.086693548387075 46.774193548387075  25 46.774193548387075  C 13.034274193548384 46.774193548387075  3.225806451612897 37.086693548387075  3.225806451612897 25  C 3.225806451612897 13.034274193548413  12.913306451612897 3.2258064516129252  25 3.2258064516129252  Z " fill-rule="evenodd" />
    </mask>
  </defs>
  <g>
    <path d="M 24.092741935483872 9.798387096774206  L 24.98991935483872 11.381048387096769  L 25.907258064516125 9.798387096774206  C 26.471774193548388 8.810483870967744  27.731854838709697 8.477822580645181  28.7197580645161 9.042338709677438  C 29.707661290322562 9.606854838709694  30.040322580645178 10.866935483870975  29.475806451612925 11.854838709677438  L 20.655241935483872 27.127016129032256  L 27.036290322580612 27.127016129032256  C 29.10282258064518 27.127016129032256  30.262096774193537 29.556451612903235  29.36491935483872 31  L 10.665322580645153 31  C 9.52620967741936 31.23991935483872  8.60887096774195 30.322580645161278  8.60887096774195 29.183467741935488  C 8.60887096774195 28.044354838709694  9.52620967741936 27.127016129032256  10.665322580645153 27.127016129032256  L 15.907258064516128 27.127016129032256  L 22.620967741935488 15.493951612903231  L 20.524193548387103 11.854838709677438  C 19.959677419354847 10.866935483870975  20.29233870967741 9.616935483870975  21.280241935483872 9.042338709677438  C 22.268145161290334 8.477822580645181  23.518145161290306 8.810483870967744  24.092741935483872 9.798387096774206  Z M 12.983870967741924 32.1875  C 14.637096774193537 31.673387096774206  15.987903225806463 32.06653225806451  17.05645161290323 33.356854838709694  L 15.080645161290306 36.78427419354841  C 14.51612903225808 37.77217741935482  13.256048387096769 38.10483870967744  12.268145161290306 37.54032258064518  C 11.280241935483872 36.975806451612925  10.947580645161281 35.71572580645159  11.512096774193537 34.72782258064518  L 12.983870967741924 32.1875  Z M 28.02419354838713 16.653225806451587  C 29.375 18.971774193548356  31.391129032258046 22.4697580645161  34.08266129032256 27.137096774193537  L 39.435483870967744 27.137096774193537  C 40.57459677419354 27.137096774193537  41.491935483870975 28.054435483870975  41.491935483870975 29.19354838709677  C 41.491935483870975 30.33266129032256  40.57459677419354 31.25  39.435483870967744 31.25  L 36.461693548387075 31.25  L 38.4677419354839 34.72782258064518  C 39.03225806451616 35.71572580645159  38.69959677419354 36.96572580645159  37.711693548387075 37.540322580645125  C 36.72379032258067 38.10483870967744  35.47379032258067 37.77217741935482  34.899193548387075 36.784274193548356  C 31.52217741935482 30.92741935483872  28.98185483870969 26.542338709677438  27.298387096774206 23.61895161290323  C 25.574596774193537 20.645161290322562  26.804435483870975 17.661290322580612  28.02419354838713 16.653225806451587  Z M 50 25  C 50 11.189516129032256  38.810483870967744 0  25 0  C 11.189516129032256 0  0 11.189516129032256  0 25  C 0 38.810483870967744  11.189516129032256 50  25 50  C 38.810483870967744 50  50 38.810483870967744  50 25  Z M 25 3.2258064516129252  C 36.96572580645159 3.2258064516129252  46.774193548387075 12.913306451612923  46.774193548387075 25  C 46.774193548387075 36.96572580645159  37.086693548387075 46.774193548387075  25 46.774193548387075  C 13.034274193548384 46.774193548387075  3.225806451612897 37.086693548387075  3.225806451612897 25  C 3.225806451612897 13.034274193548413  12.913306451612897 3.2258064516129252  25 3.2258064516129252  Z " fill-rule="nonzero" fill="rgba(0, 0, 0, 1)" stroke="none" class="fill" />
    <path d="M 24.092741935483872 9.798387096774206  L 24.98991935483872 11.381048387096769  L 25.907258064516125 9.798387096774206  C 26.471774193548388 8.810483870967744  27.731854838709697 8.477822580645181  28.7197580645161 9.042338709677438  C 29.707661290322562 9.606854838709694  30.040322580645178 10.866935483870975  29.475806451612925 11.854838709677438  L 20.655241935483872 27.127016129032256  L 27.036290322580612 27.127016129032256  C 29.10282258064518 27.127016129032256  30.262096774193537 29.556451612903235  29.36491935483872 31  L 10.665322580645153 31  C 9.52620967741936 31.23991935483872  8.60887096774195 30.322580645161278  8.60887096774195 29.183467741935488  C 8.60887096774195 28.044354838709694  9.52620967741936 27.127016129032256  10.665322580645153 27.127016129032256  L 15.907258064516128 27.127016129032256  L 22.620967741935488 15.493951612903231  L 20.524193548387103 11.854838709677438  C 19.959677419354847 10.866935483870975  20.29233870967741 9.616935483870975  21.280241935483872 9.042338709677438  C 22.268145161290334 8.477822580645181  23.518145161290306 8.810483870967744  24.092741935483872 9.798387096774206  Z " stroke-width="0" stroke-dasharray="0" stroke="rgba(255, 255, 255, 0)" fill="none" class="stroke" mask="url(#Clip652)" />
    <path d="M 12.983870967741924 32.1875  C 14.637096774193537 31.673387096774206  15.987903225806463 32.06653225806451  17.05645161290323 33.356854838709694  L 15.080645161290306 36.78427419354841  C 14.51612903225808 37.77217741935482  13.256048387096769 38.10483870967744  12.268145161290306 37.54032258064518  C 11.280241935483872 36.975806451612925  10.947580645161281 35.71572580645159  11.512096774193537 34.72782258064518  L 12.983870967741924 32.1875  Z " stroke-width="0" stroke-dasharray="0" stroke="rgba(255, 255, 255, 0)" fill="none" class="stroke" mask="url(#Clip652)" />
    <path d="M 28.02419354838713 16.653225806451587  C 29.375 18.971774193548356  31.391129032258046 22.4697580645161  34.08266129032256 27.137096774193537  L 39.435483870967744 27.137096774193537  C 40.57459677419354 27.137096774193537  41.491935483870975 28.054435483870975  41.491935483870975 29.19354838709677  C 41.491935483870975 30.33266129032256  40.57459677419354 31.25  39.435483870967744 31.25  L 36.461693548387075 31.25  L 38.4677419354839 34.72782258064518  C 39.03225806451616 35.71572580645159  38.69959677419354 36.96572580645159  37.711693548387075 37.540322580645125  C 36.72379032258067 38.10483870967744  35.47379032258067 37.77217741935482  34.899193548387075 36.784274193548356  C 31.52217741935482 30.92741935483872  28.98185483870969 26.542338709677438  27.298387096774206 23.61895161290323  C 25.574596774193537 20.645161290322562  26.804435483870975 17.661290322580612  28.02419354838713 16.653225806451587  Z " stroke-width="0" stroke-dasharray="0" stroke="rgba(255, 255, 255, 0)" fill="none" class="stroke" mask="url(#Clip652)" />
    <path d="M 50 25  C 50 11.189516129032256  38.810483870967744 0  25 0  C 11.189516129032256 0  0 11.189516129032256  0 25  C 0 38.810483870967744  11.189516129032256 50  25 50  C 38.810483870967744 50  50 38.810483870967744  50 25  Z " stroke-width="0" stroke-dasharray="0" stroke="rgba(255, 255, 255, 0)" fill="none" class="stroke" mask="url(#Clip652)" />
    <path d="M 25 3.2258064516129252  C 36.96572580645159 3.2258064516129252  46.774193548387075 12.913306451612923  46.774193548387075 25  C 46.774193548387075 36.96572580645159  37.086693548387075 46.774193548387075  25 46.774193548387075  C 13.034274193548384 46.774193548387075  3.225806451612897 37.086693548387075  3.225806451612897 25  C 3.225806451612897 13.034274193548413  12.913306451612897 3.2258064516129252  25 3.2258064516129252  Z " stroke-width="0" stroke-dasharray="0" stroke="rgba(255, 255, 255, 0)" fill="none" class="stroke" mask="url(#Clip652)" />
  </g>
</svg>