<?xml version="1.0" encoding="utf-8"?>
<svg version="1.1" xmlns:xlink="http://www.w3.org/1999/xlink" width="18px" height="8px" xmlns="http://www.w3.org/2000/svg">
  <defs>
    <pattern id="BGPattern" patternUnits="userSpaceOnUse" alignment="0 0" imageRepeat="None" />
    <mask fill="white" id="Clip5741">
      <path d="M 13.5 6.5  L 13.5 2  C 13.5 1.1715728752538102  14.171572875253808 0.5  15 0.5  L 18 0.5  L 18 6.5  C 18 7.328427124746192  17.32842712474619 8  16.5 8  L 15 8  C 14.171572875253808 8  13.5 7.328427124746192  13.5 6.5  Z M 4.5 6.5  L 4.5 2  C 4.5 1.1715728752538102  3.82842712474619 0.5  3 0.5  L 0 0.5  L 0 6.5  C 0 7.328427124746192  0.6715728752538102 8  1.5 8  L 3 8  C 3.82842712474619 8  4.5 7.328427124746192  4.5 6.5  Z " fill-rule="evenodd" />
    </mask>
  </defs>
  <g transform="matrix(1 0 0 1 0 -10 )">
    <path d="M 13.5 6.5  L 13.5 2  C 13.5 1.1715728752538102  14.171572875253808 0.5  15 0.5  L 18 0.5  L 18 6.5  C 18 7.328427124746192  17.32842712474619 8  16.5 8  L 15 8  C 14.171572875253808 8  13.5 7.328427124746192  13.5 6.5  Z M 4.5 6.5  L 4.5 2  C 4.5 1.1715728752538102  3.82842712474619 0.5  3 0.5  L 0 0.5  L 0 6.5  C 0 7.328427124746192  0.6715728752538102 8  1.5 8  L 3 8  C 3.82842712474619 8  4.5 7.328427124746192  4.5 6.5  Z " fill-rule="nonzero" fill="rgba(0, 0, 0, 1)" stroke="none" transform="matrix(1 0 0 1 0 10 )" class="fill" />
    <path d="M 13.5 6.5  L 13.5 2  C 13.5 1.1715728752538102  14.171572875253808 0.5  15 0.5  L 18 0.5  L 18 6.5  C 18 7.328427124746192  17.32842712474619 8  16.5 8  L 15 8  C 14.171572875253808 8  13.5 7.328427124746192  13.5 6.5  Z " stroke-width="0" stroke-dasharray="0" stroke="rgba(255, 255, 255, 0)" fill="none" transform="matrix(1 0 0 1 0 10 )" class="stroke" mask="url(#Clip5741)" />
    <path d="M 4.5 6.5  L 4.5 2  C 4.5 1.1715728752538102  3.82842712474619 0.5  3 0.5  L 0 0.5  L 0 6.5  C 0 7.328427124746192  0.6715728752538102 8  1.5 8  L 3 8  C 3.82842712474619 8  4.5 7.328427124746192  4.5 6.5  Z " stroke-width="0" stroke-dasharray="0" stroke="rgba(255, 255, 255, 0)" fill="none" transform="matrix(1 0 0 1 0 10 )" class="stroke" mask="url(#Clip5741)" />
  </g>
</svg>