<?xml version="1.0" encoding="utf-8"?>
<svg version="1.1" xmlns:xlink="http://www.w3.org/1999/xlink" width="50px" height="40px" xmlns="http://www.w3.org/2000/svg">
  <defs>
    <pattern id="BGPattern" patternUnits="userSpaceOnUse" alignment="0 0" imageRepeat="None" />
    <mask fill="white" id="Clip1425">
      <path d="M 22.959501557632393 39.19781931464172  C 22.811526479750796 39.696261682243005  22.297507788161965 39.984423676012455  21.799065420560737 39.83644859813086  L 17.04828660436135 38.45794392523362  C 16.549844236760123 38.31775700934577  16.269470404984418 37.79595015576325  16.40965732087227 37.29750778816202  L 27.040498442367607 0.6775700934579447  C 27.180685358255456 0.1791277258566879  27.702492211837974 -0.10124610591901728  28.200934579439263 0.03894080996883531  L 32.95171339563865 1.417445482866043  C 33.45015576323988 1.5576323987538956  33.73052959501558 2.0794392523364422  33.59034267912773 2.577881619937699  L 22.959501557632393 39.19781931464172  Z M 11.59657320872276 31.137071651090366  C 11.978193146417425 31.495327102803742  12.570093457943926 31.479750778816197  12.920560747663556 31.098130841121474  L 16.308411214953253 27.484423676012455  C 16.666666666666686 27.10280373831779  16.64330218068534 26.495327102803742  16.246105919003128 26.14485981308411  L 9.190031152647975 19.937694704049846  L 16.246105919003128 13.730529595015582  C 16.64330218068534 13.38006230529595  16.67445482866043 12.772585669781932  16.308411214953253 12.390965732087238  L 12.920560747663556 8.77725856697819  C 12.570093457943926 8.403426791277269  11.978193146417425 8.38006230529595  11.59657320872276 8.738317757009355  L 0.3738317757009213 19.25233644859813  C -0.02336448598131824 19.618380062305306  -0.02336448598131824 20.249221183800614  0.3738317757009213 20.61526479750779  L 11.59657320872276 31.137071651090366  Z M 37.07943925233644 31.098130841121474  C 37.429906542056074 31.479750778816197  38.021806853582575 31.495327102803742  38.40342679127724 31.14485981308411  L 49.62616822429908 20.623052959501564  C 50.02336448598129 20.257009345794415  50.02336448598129 19.62616822429908  49.62616822429908 19.2601246105919  L 38.40342679127724 8.730529595015582  C 38.02959501557632 8.38006230529595  37.43769470404982 8.395638629283496  37.07943925233644 8.769470404984418  L 33.69158878504675 12.383177570093466  C 33.333333333333314 12.76479750778816  33.35669781931466 13.372274143302178  33.75389408099687 13.72274143302181  L 40.809968847352025 19.937694704049846  L 33.75389408099687 26.14485981308411  C 33.35669781931466 26.495327102803742  33.32554517133957 27.10280373831779  33.69158878504675 27.484423676012455  L 37.07943925233644 31.098130841121474  Z " fill-rule="evenodd" />
    </mask>
  </defs>
  <g>
    <path d="M 22.959501557632393 39.19781931464172  C 22.811526479750796 39.696261682243005  22.297507788161965 39.984423676012455  21.799065420560737 39.83644859813086  L 17.04828660436135 38.45794392523362  C 16.549844236760123 38.31775700934577  16.269470404984418 37.79595015576325  16.40965732087227 37.29750778816202  L 27.040498442367607 0.6775700934579447  C 27.180685358255456 0.1791277258566879  27.702492211837974 -0.10124610591901728  28.200934579439263 0.03894080996883531  L 32.95171339563865 1.417445482866043  C 33.45015576323988 1.5576323987538956  33.73052959501558 2.0794392523364422  33.59034267912773 2.577881619937699  L 22.959501557632393 39.19781931464172  Z M 11.59657320872276 31.137071651090366  C 11.978193146417425 31.495327102803742  12.570093457943926 31.479750778816197  12.920560747663556 31.098130841121474  L 16.308411214953253 27.484423676012455  C 16.666666666666686 27.10280373831779  16.64330218068534 26.495327102803742  16.246105919003128 26.14485981308411  L 9.190031152647975 19.937694704049846  L 16.246105919003128 13.730529595015582  C 16.64330218068534 13.38006230529595  16.67445482866043 12.772585669781932  16.308411214953253 12.390965732087238  L 12.920560747663556 8.77725856697819  C 12.570093457943926 8.403426791277269  11.978193146417425 8.38006230529595  11.59657320872276 8.738317757009355  L 0.3738317757009213 19.25233644859813  C -0.02336448598131824 19.618380062305306  -0.02336448598131824 20.249221183800614  0.3738317757009213 20.61526479750779  L 11.59657320872276 31.137071651090366  Z M 37.07943925233644 31.098130841121474  C 37.429906542056074 31.479750778816197  38.021806853582575 31.495327102803742  38.40342679127724 31.14485981308411  L 49.62616822429908 20.623052959501564  C 50.02336448598129 20.257009345794415  50.02336448598129 19.62616822429908  49.62616822429908 19.2601246105919  L 38.40342679127724 8.730529595015582  C 38.02959501557632 8.38006230529595  37.43769470404982 8.395638629283496  37.07943925233644 8.769470404984418  L 33.69158878504675 12.383177570093466  C 33.333333333333314 12.76479750778816  33.35669781931466 13.372274143302178  33.75389408099687 13.72274143302181  L 40.809968847352025 19.937694704049846  L 33.75389408099687 26.14485981308411  C 33.35669781931466 26.495327102803742  33.32554517133957 27.10280373831779  33.69158878504675 27.484423676012455  L 37.07943925233644 31.098130841121474  Z " fill-rule="nonzero" fill="rgba(0, 0, 0, 1)" stroke="none" class="fill" />
    <path d="M 22.959501557632393 39.19781931464172  C 22.811526479750796 39.696261682243005  22.297507788161965 39.984423676012455  21.799065420560737 39.83644859813086  L 17.04828660436135 38.45794392523362  C 16.549844236760123 38.31775700934577  16.269470404984418 37.79595015576325  16.40965732087227 37.29750778816202  L 27.040498442367607 0.6775700934579447  C 27.180685358255456 0.1791277258566879  27.702492211837974 -0.10124610591901728  28.200934579439263 0.03894080996883531  L 32.95171339563865 1.417445482866043  C 33.45015576323988 1.5576323987538956  33.73052959501558 2.0794392523364422  33.59034267912773 2.577881619937699  L 22.959501557632393 39.19781931464172  Z " stroke-width="0" stroke-dasharray="0" stroke="rgba(255, 255, 255, 0)" fill="none" class="stroke" mask="url(#Clip1425)" />
    <path d="M 11.59657320872276 31.137071651090366  C 11.978193146417425 31.495327102803742  12.570093457943926 31.479750778816197  12.920560747663556 31.098130841121474  L 16.308411214953253 27.484423676012455  C 16.666666666666686 27.10280373831779  16.64330218068534 26.495327102803742  16.246105919003128 26.14485981308411  L 9.190031152647975 19.937694704049846  L 16.246105919003128 13.730529595015582  C 16.64330218068534 13.38006230529595  16.67445482866043 12.772585669781932  16.308411214953253 12.390965732087238  L 12.920560747663556 8.77725856697819  C 12.570093457943926 8.403426791277269  11.978193146417425 8.38006230529595  11.59657320872276 8.738317757009355  L 0.3738317757009213 19.25233644859813  C -0.02336448598131824 19.618380062305306  -0.02336448598131824 20.249221183800614  0.3738317757009213 20.61526479750779  L 11.59657320872276 31.137071651090366  Z " stroke-width="0" stroke-dasharray="0" stroke="rgba(255, 255, 255, 0)" fill="none" class="stroke" mask="url(#Clip1425)" />
    <path d="M 37.07943925233644 31.098130841121474  C 37.429906542056074 31.479750778816197  38.021806853582575 31.495327102803742  38.40342679127724 31.14485981308411  L 49.62616822429908 20.623052959501564  C 50.02336448598129 20.257009345794415  50.02336448598129 19.62616822429908  49.62616822429908 19.2601246105919  L 38.40342679127724 8.730529595015582  C 38.02959501557632 8.38006230529595  37.43769470404982 8.395638629283496  37.07943925233644 8.769470404984418  L 33.69158878504675 12.383177570093466  C 33.333333333333314 12.76479750778816  33.35669781931466 13.372274143302178  33.75389408099687 13.72274143302181  L 40.809968847352025 19.937694704049846  L 33.75389408099687 26.14485981308411  C 33.35669781931466 26.495327102803742  33.32554517133957 27.10280373831779  33.69158878504675 27.484423676012455  L 37.07943925233644 31.098130841121474  Z " stroke-width="0" stroke-dasharray="0" stroke="rgba(255, 255, 255, 0)" fill="none" class="stroke" mask="url(#Clip1425)" />
  </g>
</svg>