<?xml version="1.0" encoding="utf-8"?>
<svg version="1.1" xmlns:xlink="http://www.w3.org/1999/xlink" width="28px" height="24px" xmlns="http://www.w3.org/2000/svg">
  <defs>
    <pattern id="BGPattern" patternUnits="userSpaceOnUse" alignment="0 0" imageRepeat="None" />
    <mask fill="white" id="Clip4373">
      <path d="M 28 8  C 28 6.34314575050762  26.65685424949238 5  25 5  L 22 5  L 22 2  C 22 0.8954305003384135  21.104569499661586 0  20 0  L 8 0  C 6.8954305003384135 0  6 0.8954305003384135  6 2  L 6 5  L 3 5  C 1.3431457505076185 5  0 6.34314575050762  0 8  L 0 22  C 0 23.104569499661586  0.895430500338413 24  2 24  L 26 24  C 27.104569499661586 24  28 23.104569499661586  28 22  L 28 8  Z M 8 5  L 8 2  L 20 2  L 20 5  L 8 5  Z M 26 13  L 26 22  L 2 22  L 2 13  L 10 13  L 10 18  L 18 18  L 18 13  L 26 13  Z M 12 16  L 12 13  L 16 13  L 16 16  L 12 16  Z M 26 11  L 2 11  L 2 8  C 2 7.447715250169207  2.4477152501692068 7  3 7  L 25 7  C 25.552284749830793 7  26 7.447715250169207  26 8  L 26 11  Z " fill-rule="evenodd" />
    </mask>
  </defs>
  <g transform="matrix(1 0 0 1 -2 -4 )">
    <path d="M 28 8  C 28 6.34314575050762  26.65685424949238 5  25 5  L 22 5  L 22 2  C 22 0.8954305003384135  21.104569499661586 0  20 0  L 8 0  C 6.8954305003384135 0  6 0.8954305003384135  6 2  L 6 5  L 3 5  C 1.3431457505076185 5  0 6.34314575050762  0 8  L 0 22  C 0 23.104569499661586  0.895430500338413 24  2 24  L 26 24  C 27.104569499661586 24  28 23.104569499661586  28 22  L 28 8  Z M 8 5  L 8 2  L 20 2  L 20 5  L 8 5  Z M 26 13  L 26 22  L 2 22  L 2 13  L 10 13  L 10 18  L 18 18  L 18 13  L 26 13  Z M 12 16  L 12 13  L 16 13  L 16 16  L 12 16  Z M 26 11  L 2 11  L 2 8  C 2 7.447715250169207  2.4477152501692068 7  3 7  L 25 7  C 25.552284749830793 7  26 7.447715250169207  26 8  L 26 11  Z " fill-rule="nonzero" fill="rgba(0, 0, 0, 1)" stroke="none" transform="matrix(1 0 0 1 2 4 )" class="fill" />
    <path d="M 28 8  C 28 6.34314575050762  26.65685424949238 5  25 5  L 22 5  L 22 2  C 22 0.8954305003384135  21.104569499661586 0  20 0  L 8 0  C 6.8954305003384135 0  6 0.8954305003384135  6 2  L 6 5  L 3 5  C 1.3431457505076185 5  0 6.34314575050762  0 8  L 0 22  C 0 23.104569499661586  0.895430500338413 24  2 24  L 26 24  C 27.104569499661586 24  28 23.104569499661586  28 22  L 28 8  Z " stroke-width="0" stroke-dasharray="0" stroke="rgba(255, 255, 255, 0)" fill="none" transform="matrix(1 0 0 1 2 4 )" class="stroke" mask="url(#Clip4373)" />
    <path d="M 8 5  L 8 2  L 20 2  L 20 5  L 8 5  Z " stroke-width="0" stroke-dasharray="0" stroke="rgba(255, 255, 255, 0)" fill="none" transform="matrix(1 0 0 1 2 4 )" class="stroke" mask="url(#Clip4373)" />
    <path d="M 26 13  L 26 22  L 2 22  L 2 13  L 10 13  L 10 18  L 18 18  L 18 13  L 26 13  Z " stroke-width="0" stroke-dasharray="0" stroke="rgba(255, 255, 255, 0)" fill="none" transform="matrix(1 0 0 1 2 4 )" class="stroke" mask="url(#Clip4373)" />
    <path d="M 12 16  L 12 13  L 16 13  L 16 16  L 12 16  Z " stroke-width="0" stroke-dasharray="0" stroke="rgba(255, 255, 255, 0)" fill="none" transform="matrix(1 0 0 1 2 4 )" class="stroke" mask="url(#Clip4373)" />
    <path d="M 26 11  L 2 11  L 2 8  C 2 7.447715250169207  2.4477152501692068 7  3 7  L 25 7  C 25.552284749830793 7  26 7.447715250169207  26 8  L 26 11  Z " stroke-width="0" stroke-dasharray="0" stroke="rgba(255, 255, 255, 0)" fill="none" transform="matrix(1 0 0 1 2 4 )" class="stroke" mask="url(#Clip4373)" />
  </g>
</svg>