<?xml version="1.0" encoding="utf-8"?>
<svg version="1.1" xmlns:xlink="http://www.w3.org/1999/xlink" width="18px" height="24px" xmlns="http://www.w3.org/2000/svg">
  <defs>
    <pattern id="BGPattern" patternUnits="userSpaceOnUse" alignment="0 0" imageRepeat="None" />
    <mask fill="white" id="Clip5298">
      <path d="M 0 21  L 0 3  C 0 1.3431457505076196  1.3431457505076194 0  3 0  L 15 0  C 16.65685424949238 0  18 1.3431457505076196  18 3  L 18 21  C 18 22.65685424949238  16.65685424949238 24  15 24  L 3 24  C 1.3431457505076194 24  0 22.65685424949238  0 21  Z M 15 22.5  C 15.828427124746192 22.5  16.5 21.82842712474619  16.5 21  L 16.5 3  C 16.5 2.1715728752538097  15.828427124746192 1.5  15 1.5  L 3 1.5  C 2.17157287525381 1.5  1.5 2.1715728752538097  1.5 3  L 1.5 21  C 1.5 21.82842712474619  2.17157287525381 22.5  3 22.5  L 3 19.5  C 3 18.67157287525381  3.67157287525381 18  4.5 18  L 13.5 18  C 14.328427124746192 18  15 18.67157287525381  15 19.5  L 15 22.5  Z M 4.5 22.5  L 5.625 22.5  L 5.625 19.5  L 4.5 19.5  L 4.5 22.5  Z M 7.125 22.5  L 8.25 22.5  L 8.25 19.5  L 7.125 19.5  L 7.125 22.5  Z M 9.75 22.5  L 10.875 22.5  L 10.875 19.5  L 9.75 19.5  L 9.75 22.5  Z M 13.5 22.5  L 13.5 19.5  L 12.375 19.5  L 12.375 22.5  L 13.5 22.5  Z " fill-rule="evenodd" />
    </mask>
  </defs>
  <g>
    <path d="M 0 21  L 0 3  C 0 1.3431457505076196  1.3431457505076194 0  3 0  L 15 0  C 16.65685424949238 0  18 1.3431457505076196  18 3  L 18 21  C 18 22.65685424949238  16.65685424949238 24  15 24  L 3 24  C 1.3431457505076194 24  0 22.65685424949238  0 21  Z M 15 22.5  C 15.828427124746192 22.5  16.5 21.82842712474619  16.5 21  L 16.5 3  C 16.5 2.1715728752538097  15.828427124746192 1.5  15 1.5  L 3 1.5  C 2.17157287525381 1.5  1.5 2.1715728752538097  1.5 3  L 1.5 21  C 1.5 21.82842712474619  2.17157287525381 22.5  3 22.5  L 3 19.5  C 3 18.67157287525381  3.67157287525381 18  4.5 18  L 13.5 18  C 14.328427124746192 18  15 18.67157287525381  15 19.5  L 15 22.5  Z M 4.5 22.5  L 5.625 22.5  L 5.625 19.5  L 4.5 19.5  L 4.5 22.5  Z M 7.125 22.5  L 8.25 22.5  L 8.25 19.5  L 7.125 19.5  L 7.125 22.5  Z M 9.75 22.5  L 10.875 22.5  L 10.875 19.5  L 9.75 19.5  L 9.75 22.5  Z M 13.5 22.5  L 13.5 19.5  L 12.375 19.5  L 12.375 22.5  L 13.5 22.5  Z " fill-rule="nonzero" fill="rgba(0, 0, 0, 1)" stroke="none" class="fill" />
    <path d="M 0 21  L 0 3  C 0 1.3431457505076196  1.3431457505076194 0  3 0  L 15 0  C 16.65685424949238 0  18 1.3431457505076196  18 3  L 18 21  C 18 22.65685424949238  16.65685424949238 24  15 24  L 3 24  C 1.3431457505076194 24  0 22.65685424949238  0 21  Z " stroke-width="0" stroke-dasharray="0" stroke="rgba(255, 255, 255, 0)" fill="none" class="stroke" mask="url(#Clip5298)" />
    <path d="M 15 22.5  C 15.828427124746192 22.5  16.5 21.82842712474619  16.5 21  L 16.5 3  C 16.5 2.1715728752538097  15.828427124746192 1.5  15 1.5  L 3 1.5  C 2.17157287525381 1.5  1.5 2.1715728752538097  1.5 3  L 1.5 21  C 1.5 21.82842712474619  2.17157287525381 22.5  3 22.5  L 3 19.5  C 3 18.67157287525381  3.67157287525381 18  4.5 18  L 13.5 18  C 14.328427124746192 18  15 18.67157287525381  15 19.5  L 15 22.5  Z " stroke-width="0" stroke-dasharray="0" stroke="rgba(255, 255, 255, 0)" fill="none" class="stroke" mask="url(#Clip5298)" />
    <path d="M 4.5 22.5  L 5.625 22.5  L 5.625 19.5  L 4.5 19.5  L 4.5 22.5  Z " stroke-width="0" stroke-dasharray="0" stroke="rgba(255, 255, 255, 0)" fill="none" class="stroke" mask="url(#Clip5298)" />
    <path d="M 7.125 22.5  L 8.25 22.5  L 8.25 19.5  L 7.125 19.5  L 7.125 22.5  Z " stroke-width="0" stroke-dasharray="0" stroke="rgba(255, 255, 255, 0)" fill="none" class="stroke" mask="url(#Clip5298)" />
    <path d="M 9.75 22.5  L 10.875 22.5  L 10.875 19.5  L 9.75 19.5  L 9.75 22.5  Z " stroke-width="0" stroke-dasharray="0" stroke="rgba(255, 255, 255, 0)" fill="none" class="stroke" mask="url(#Clip5298)" />
    <path d="M 13.5 22.5  L 13.5 19.5  L 12.375 19.5  L 12.375 22.5  L 13.5 22.5  Z " stroke-width="0" stroke-dasharray="0" stroke="rgba(255, 255, 255, 0)" fill="none" class="stroke" mask="url(#Clip5298)" />
  </g>
</svg>