<?xml version="1.0" encoding="utf-8"?>
<svg version="1.1" xmlns:xlink="http://www.w3.org/1999/xlink" width="20px" height="20px" xmlns="http://www.w3.org/2000/svg">
  <defs>
    <pattern id="BGPattern" patternUnits="userSpaceOnUse" alignment="0 0" imageRepeat="None" />
    <mask fill="white" id="Clip3399">
      <path d="M 16 20  L 16 18  L 3.41 18  L 20 1.4100000000000001  L 18.59 0  L 2 16.59  L 2 4  L 0 4  L 0 20  L 16 20  Z " fill-rule="evenodd" />
    </mask>
  </defs>
  <g transform="matrix(1 0 0 1 -6 -6 )">
    <path d="M 16 20  L 16 18  L 3.41 18  L 20 1.4100000000000001  L 18.59 0  L 2 16.59  L 2 4  L 0 4  L 0 20  L 16 20  Z " fill-rule="nonzero" fill="rgba(0, 0, 0, 1)" stroke="none" transform="matrix(1 0 0 1 6 6 )" class="fill" />
    <path d="M 16 20  L 16 18  L 3.41 18  L 20 1.4100000000000001  L 18.59 0  L 2 16.59  L 2 4  L 0 4  L 0 20  L 16 20  Z " stroke-width="0" stroke-dasharray="0" stroke="rgba(255, 255, 255, 0)" fill="none" transform="matrix(1 0 0 1 6 6 )" class="stroke" mask="url(#Clip3399)" />
  </g>
</svg>