<?xml version="1.0" encoding="utf-8"?>
<svg version="1.1" xmlns:xlink="http://www.w3.org/1999/xlink" width="40px" height="49px" xmlns="http://www.w3.org/2000/svg">
  <defs>
    <pattern id="BGPattern" patternUnits="userSpaceOnUse" alignment="0 0" imageRepeat="None" />
    <mask fill="white" id="Clip7443">
      <path d="M 37.837999999999994 28.98  L 37.726 28.958  C 34.766 29.799999999999997  32.748 31.532  32.748 34.39  L 32.748 42.552  C 32.748 48.647999999999996  26.933999999999997 47.98  19.714 47.98  L 18.604 47.98  C 18.154 47.98  17.886 47.812  17.886 47.419999999999995  L 17.886 44.623999999999995  C 17.886 44.236  18.125999999999998 44.065999999999995  18.576 44.065999999999995  L 19.476 44.065999999999995  C 23.796 44.065999999999995  26.826 45.016  26.826 41.54599999999999  L 26.826 33.71199999999999  C 26.826 31.313999999999993  28.506 27.951999999999995  31.868000000000002 26.725999999999985  C 32.106 26.663999999999984  32.138000000000005 26.555999999999983  32.138000000000005 26.44399999999999  C 32.138000000000005 26.33199999999999  32.078 26.16599999999999  31.868000000000002 26.053999999999988  C 28.808 24.65399999999999  26.826 22.36599999999999  26.826 19.619999999999987  L 26.826 10.77  C 26.826 7.356000000000001  23.826 3.9459999999999997  19.508000000000003 3.9459999999999997  L 18.606 3.9459999999999997  C 18.156000000000002 3.9459999999999997  17.946 3.777999999999999  17.946 3.388  L 17.946 0.602  C 17.946 0.21199999999999997  18.246000000000002 0.039999999999999925  18.696 0.039999999999999925  L 19.808 0.039999999999999925  C 27.008000000000003 0.039999999999999925  32.888 5.184  32.888 11.28  L 32.888 18.72  C 32.888 21.538  34.896 23.16  37.928 24.208  C 39.04 24.538  39.666 24.599999999999994  39.666 25.5  L 39.666 27.840000000000003  C 39.726 28.351999999999997  39.187999999999995 28.59  37.837999999999994 28.98  Z M 12.181999999999999 47.93999999999999  L 12.184000000000001 48  L 1.0040000000000013 48  C 0.5540000000000012 47.94  0.3320000000000016 47.827999999999996  1 47.436  L 1 0.558  C 0.3320000000000016 0.23000000000000004  0.5400000000000018 0  0.9920000000000018 0  L 12.059999999999999 0  C 12.512 0  12.779999999999998 0.168  12.779999999999998 0.558  L 12.779999999999998 3.4679999999999995  C 12.779999999999998 3.858  12.537999999999997 3.9719999999999995  12.087999999999997 3.9719999999999995  L 7.144 3.9719999999999995  C 6.534000000000001 3.9719999999999995  6.304 4.194  7 4.586  L 7 43.406  C 6.304 43.798  6.534000000000001 43.946  7.038 43.946  L 12.072 43.946  C 12.524000000000001 43.946  12.797999999999998 44.098  12.797999999999998 44.455999999999996  L 12.797999999999998 47.42399999999999  C 12.855999999999998 47.75599999999999  12.629999999999999 47.93399999999999  12.181999999999999 47.93399999999999  L 12.181999999999999 47.93999999999999  Z M 21.928 21.868  L 21.934 21.871999999999996  L 18.964000000000002 21.871999999999996  C 18.240000000000002 21.871999999999996  17.680000000000003 21.309999999999995  17.680000000000003 20.691999999999997  L 17.680000000000003 18.006  C 17.680000000000003 17.336  18.294000000000004 16.836  18.964000000000002 16.836  L 21.934 16.836  C 22.652 16.836  23.218 17.389999999999997  23.218 18.006  L 23.218 20.692  C 23.218 21.364  22.598 21.868  21.928 21.868  Z " fill-rule="evenodd" />
    </mask>
  </defs>
  <g>
    <path d="M 37.837999999999994 28.98  L 37.726 28.958  C 34.766 29.799999999999997  32.748 31.532  32.748 34.39  L 32.748 42.552  C 32.748 48.647999999999996  26.933999999999997 47.98  19.714 47.98  L 18.604 47.98  C 18.154 47.98  17.886 47.812  17.886 47.419999999999995  L 17.886 44.623999999999995  C 17.886 44.236  18.125999999999998 44.065999999999995  18.576 44.065999999999995  L 19.476 44.065999999999995  C 23.796 44.065999999999995  26.826 45.016  26.826 41.54599999999999  L 26.826 33.71199999999999  C 26.826 31.313999999999993  28.506 27.951999999999995  31.868000000000002 26.725999999999985  C 32.106 26.663999999999984  32.138000000000005 26.555999999999983  32.138000000000005 26.44399999999999  C 32.138000000000005 26.33199999999999  32.078 26.16599999999999  31.868000000000002 26.053999999999988  C 28.808 24.65399999999999  26.826 22.36599999999999  26.826 19.619999999999987  L 26.826 10.77  C 26.826 7.356000000000001  23.826 3.9459999999999997  19.508000000000003 3.9459999999999997  L 18.606 3.9459999999999997  C 18.156000000000002 3.9459999999999997  17.946 3.777999999999999  17.946 3.388  L 17.946 0.602  C 17.946 0.21199999999999997  18.246000000000002 0.039999999999999925  18.696 0.039999999999999925  L 19.808 0.039999999999999925  C 27.008000000000003 0.039999999999999925  32.888 5.184  32.888 11.28  L 32.888 18.72  C 32.888 21.538  34.896 23.16  37.928 24.208  C 39.04 24.538  39.666 24.599999999999994  39.666 25.5  L 39.666 27.840000000000003  C 39.726 28.351999999999997  39.187999999999995 28.59  37.837999999999994 28.98  Z M 12.181999999999999 47.93999999999999  L 12.184000000000001 48  L 1.0040000000000013 48  C 0.5540000000000012 47.94  0.3320000000000016 47.827999999999996  1 47.436  L 1 0.558  C 0.3320000000000016 0.23000000000000004  0.5400000000000018 0  0.9920000000000018 0  L 12.059999999999999 0  C 12.512 0  12.779999999999998 0.168  12.779999999999998 0.558  L 12.779999999999998 3.4679999999999995  C 12.779999999999998 3.858  12.537999999999997 3.9719999999999995  12.087999999999997 3.9719999999999995  L 7.144 3.9719999999999995  C 6.534000000000001 3.9719999999999995  6.304 4.194  7 4.586  L 7 43.406  C 6.304 43.798  6.534000000000001 43.946  7.038 43.946  L 12.072 43.946  C 12.524000000000001 43.946  12.797999999999998 44.098  12.797999999999998 44.455999999999996  L 12.797999999999998 47.42399999999999  C 12.855999999999998 47.75599999999999  12.629999999999999 47.93399999999999  12.181999999999999 47.93399999999999  L 12.181999999999999 47.93999999999999  Z M 21.928 21.868  L 21.934 21.871999999999996  L 18.964000000000002 21.871999999999996  C 18.240000000000002 21.871999999999996  17.680000000000003 21.309999999999995  17.680000000000003 20.691999999999997  L 17.680000000000003 18.006  C 17.680000000000003 17.336  18.294000000000004 16.836  18.964000000000002 16.836  L 21.934 16.836  C 22.652 16.836  23.218 17.389999999999997  23.218 18.006  L 23.218 20.692  C 23.218 21.364  22.598 21.868  21.928 21.868  Z " fill-rule="nonzero" fill="rgba(46, 172, 227, 1)" stroke="none" class="fill" />
    <path d="M 37.837999999999994 28.98  L 37.726 28.958  C 34.766 29.799999999999997  32.748 31.532  32.748 34.39  L 32.748 42.552  C 32.748 48.647999999999996  26.933999999999997 47.98  19.714 47.98  L 18.604 47.98  C 18.154 47.98  17.886 47.812  17.886 47.419999999999995  L 17.886 44.623999999999995  C 17.886 44.236  18.125999999999998 44.065999999999995  18.576 44.065999999999995  L 19.476 44.065999999999995  C 23.796 44.065999999999995  26.826 45.016  26.826 41.54599999999999  L 26.826 33.71199999999999  C 26.826 31.313999999999993  28.506 27.951999999999995  31.868000000000002 26.725999999999985  C 32.106 26.663999999999984  32.138000000000005 26.555999999999983  32.138000000000005 26.44399999999999  C 32.138000000000005 26.33199999999999  32.078 26.16599999999999  31.868000000000002 26.053999999999988  C 28.808 24.65399999999999  26.826 22.36599999999999  26.826 19.619999999999987  L 26.826 10.77  C 26.826 7.356000000000001  23.826 3.9459999999999997  19.508000000000003 3.9459999999999997  L 18.606 3.9459999999999997  C 18.156000000000002 3.9459999999999997  17.946 3.777999999999999  17.946 3.388  L 17.946 0.602  C 17.946 0.21199999999999997  18.246000000000002 0.039999999999999925  18.696 0.039999999999999925  L 19.808 0.039999999999999925  C 27.008000000000003 0.039999999999999925  32.888 5.184  32.888 11.28  L 32.888 18.72  C 32.888 21.538  34.896 23.16  37.928 24.208  C 39.04 24.538  39.666 24.599999999999994  39.666 25.5  L 39.666 27.840000000000003  C 39.726 28.351999999999997  39.187999999999995 28.59  37.837999999999994 28.98  Z " stroke-width="0" stroke-dasharray="0" stroke="rgba(255, 255, 255, 0)" fill="none" class="stroke" mask="url(#Clip7443)" />
    <path d="M 12.181999999999999 47.93999999999999  L 12.184000000000001 48  L 1.0040000000000013 48  C 0.5540000000000012 47.94  0.3320000000000016 47.827999999999996  1 47.436  L 1 0.558  C 0.3320000000000016 0.23000000000000004  0.5400000000000018 0  0.9920000000000018 0  L 12.059999999999999 0  C 12.512 0  12.779999999999998 0.168  12.779999999999998 0.558  L 12.779999999999998 3.4679999999999995  C 12.779999999999998 3.858  12.537999999999997 3.9719999999999995  12.087999999999997 3.9719999999999995  L 7.144 3.9719999999999995  C 6.534000000000001 3.9719999999999995  6.304 4.194  7 4.586  L 7 43.406  C 6.304 43.798  6.534000000000001 43.946  7.038 43.946  L 12.072 43.946  C 12.524000000000001 43.946  12.797999999999998 44.098  12.797999999999998 44.455999999999996  L 12.797999999999998 47.42399999999999  C 12.855999999999998 47.75599999999999  12.629999999999999 47.93399999999999  12.181999999999999 47.93399999999999  L 12.181999999999999 47.93999999999999  Z " stroke-width="0" stroke-dasharray="0" stroke="rgba(255, 255, 255, 0)" fill="none" class="stroke" mask="url(#Clip7443)" />
    <path d="M 21.928 21.868  L 21.934 21.871999999999996  L 18.964000000000002 21.871999999999996  C 18.240000000000002 21.871999999999996  17.680000000000003 21.309999999999995  17.680000000000003 20.691999999999997  L 17.680000000000003 18.006  C 17.680000000000003 17.336  18.294000000000004 16.836  18.964000000000002 16.836  L 21.934 16.836  C 22.652 16.836  23.218 17.389999999999997  23.218 18.006  L 23.218 20.692  C 23.218 21.364  22.598 21.868  21.928 21.868  Z " stroke-width="0" stroke-dasharray="0" stroke="rgba(255, 255, 255, 0)" fill="none" class="stroke" mask="url(#Clip7443)" />
  </g>
</svg>