<?xml version="1.0" encoding="utf-8"?>
<svg version="1.1" xmlns:xlink="http://www.w3.org/1999/xlink" width="16px" height="15px" xmlns="http://www.w3.org/2000/svg">
  <defs>
    <pattern id="BGPattern" patternUnits="userSpaceOnUse" alignment="0 0" imageRepeat="None" />
    <mask fill="white" id="Clip418">
      <path d="M 15.2 7.800000000000001  C 15.2 11.783999999999999  11.983999999999998 15  8 15  C 4.016 15  0.8000000000000007 11.783999999999999  0.8000000000000007 7.800000000000001  C 0.8000000000000007 3.8160000000000025  4.016000000000002 0.6000000000000014  8 0.6000000000000014  C 11.983999999999998 0.6000000000000014  15.2 3.8160000000000025  15.2 7.800000000000001  Z M 11.599999999999998 7.800000000000001  C 11.599999999999998 7.144000000000002  11.055999999999997 6.600000000000001  10.399999999999999 6.6  L 5.599999999999998 6.6  C 4.943999999999997 6.6  4.399999999999999 7.143999999999998  4.399999999999999 7.800000000000001  C 4.399999999999999 8.456000000000003  4.943999999999999 9  5.599999999999998 9  L 10.399999999999999 9  C 11.055999999999997 9  11.599999999999998 8.456  11.599999999999998 7.800000000000001  Z " fill-rule="evenodd" />
    </mask>
  </defs>
  <g>
    <path d="M 15.2 7.800000000000001  C 15.2 11.783999999999999  11.983999999999998 15  8 15  C 4.016 15  0.8000000000000007 11.783999999999999  0.8000000000000007 7.800000000000001  C 0.8000000000000007 3.8160000000000025  4.016000000000002 0.6000000000000014  8 0.6000000000000014  C 11.983999999999998 0.6000000000000014  15.2 3.8160000000000025  15.2 7.800000000000001  Z M 11.599999999999998 7.800000000000001  C 11.599999999999998 7.144000000000002  11.055999999999997 6.600000000000001  10.399999999999999 6.6  L 5.599999999999998 6.6  C 4.943999999999997 6.6  4.399999999999999 7.143999999999998  4.399999999999999 7.800000000000001  C 4.399999999999999 8.456000000000003  4.943999999999999 9  5.599999999999998 9  L 10.399999999999999 9  C 11.055999999999997 9  11.599999999999998 8.456  11.599999999999998 7.800000000000001  Z " fill-rule="nonzero" fill="rgba(0, 0, 0, 1)" stroke="none" class="fill" />
    <path d="M 15.2 7.800000000000001  C 15.2 11.783999999999999  11.983999999999998 15  8 15  C 4.016 15  0.8000000000000007 11.783999999999999  0.8000000000000007 7.800000000000001  C 0.8000000000000007 3.8160000000000025  4.016000000000002 0.6000000000000014  8 0.6000000000000014  C 11.983999999999998 0.6000000000000014  15.2 3.8160000000000025  15.2 7.800000000000001  Z " stroke-width="0" stroke-dasharray="0" stroke="rgba(255, 255, 255, 0)" fill="none" class="stroke" mask="url(#Clip418)" />
    <path d="M 11.599999999999998 7.800000000000001  C 11.599999999999998 7.144000000000002  11.055999999999997 6.600000000000001  10.399999999999999 6.6  L 5.599999999999998 6.6  C 4.943999999999997 6.6  4.399999999999999 7.143999999999998  4.399999999999999 7.800000000000001  C 4.399999999999999 8.456000000000003  4.943999999999999 9  5.599999999999998 9  L 10.399999999999999 9  C 11.055999999999997 9  11.599999999999998 8.456  11.599999999999998 7.800000000000001  Z " stroke-width="0" stroke-dasharray="0" stroke="rgba(255, 255, 255, 0)" fill="none" class="stroke" mask="url(#Clip418)" />
  </g>
</svg>