<?xml version="1.0" encoding="utf-8"?>
<svg version="1.1" xmlns:xlink="http://www.w3.org/1999/xlink" width="7px" height="10px" xmlns="http://www.w3.org/2000/svg">
  <defs>
    <pattern id="BGPattern" patternUnits="userSpaceOnUse" alignment="0 0" imageRepeat="None" />
    <mask fill="white" id="Clip6254">
      <path d="M 0 1.25  C -0.0002940418295359696 0.9689037545536632  0.1566190642780542 0.7112419968245618  0.40650038967328694 0.5824999999999996  C 0.6566132781589358 0.4537069242711116  0.9577682031437571 0.4757144008590979  1.1865003435755912 0.6395  L 5.25000010342432 3.542  L 5.25000010342432 1.25  C 5.25000010342432 0.8357864376269051  5.585786521206376 0.5  6.000000059099611 0.5  C 6.414213596992846 0.5  6.750000014774903 0.8357864376269051  6.750000014774903 1.25  L 6.750000014774903 8.75  C 6.750000014774903 9.164213562373096  6.414213596992846 9.5  6.000000059099611 9.5  C 5.585786521206376 9.5  5.25000010342432 9.164213562373096  5.25000010342432 8.75  L 5.25000010342432 6.457999999999998  L 1.1850003436642407 9.360500000000002  C 1.0579789961177009 9.45093816890859  0.9059280440704274 9.499537745792612  0.7500002269199306 9.499537745792612  C 0.33596719900496574 9.499537745792612  0.0002555983761482316 9.164032973744014  0 8.75  L 0 1.25  Z " fill-rule="evenodd" />
    </mask>
  </defs>
  <g transform="matrix(1 0 0 1 -9 -7 )">
    <path d="M 0 1.25  C -0.0002940418295359696 0.9689037545536632  0.1566190642780542 0.7112419968245618  0.40650038967328694 0.5824999999999996  C 0.6566132781589358 0.4537069242711116  0.9577682031437571 0.4757144008590979  1.1865003435755912 0.6395  L 5.25000010342432 3.542  L 5.25000010342432 1.25  C 5.25000010342432 0.8357864376269051  5.585786521206376 0.5  6.000000059099611 0.5  C 6.414213596992846 0.5  6.750000014774903 0.8357864376269051  6.750000014774903 1.25  L 6.750000014774903 8.75  C 6.750000014774903 9.164213562373096  6.414213596992846 9.5  6.000000059099611 9.5  C 5.585786521206376 9.5  5.25000010342432 9.164213562373096  5.25000010342432 8.75  L 5.25000010342432 6.457999999999998  L 1.1850003436642407 9.360500000000002  C 1.0579789961177009 9.45093816890859  0.9059280440704274 9.499537745792612  0.7500002269199306 9.499537745792612  C 0.33596719900496574 9.499537745792612  0.0002555983761482316 9.164032973744014  0 8.75  L 0 1.25  Z " fill-rule="nonzero" fill="rgba(0, 0, 0, 1)" stroke="none" transform="matrix(1 0 0 1 9 7 )" class="fill" />
    <path d="M 0 1.25  C -0.0002940418295359696 0.9689037545536632  0.1566190642780542 0.7112419968245618  0.40650038967328694 0.5824999999999996  C 0.6566132781589358 0.4537069242711116  0.9577682031437571 0.4757144008590979  1.1865003435755912 0.6395  L 5.25000010342432 3.542  L 5.25000010342432 1.25  C 5.25000010342432 0.8357864376269051  5.585786521206376 0.5  6.000000059099611 0.5  C 6.414213596992846 0.5  6.750000014774903 0.8357864376269051  6.750000014774903 1.25  L 6.750000014774903 8.75  C 6.750000014774903 9.164213562373096  6.414213596992846 9.5  6.000000059099611 9.5  C 5.585786521206376 9.5  5.25000010342432 9.164213562373096  5.25000010342432 8.75  L 5.25000010342432 6.457999999999998  L 1.1850003436642407 9.360500000000002  C 1.0579789961177009 9.45093816890859  0.9059280440704274 9.499537745792612  0.7500002269199306 9.499537745792612  C 0.33596719900496574 9.499537745792612  0.0002555983761482316 9.164032973744014  0 8.75  L 0 1.25  Z " stroke-width="0" stroke-dasharray="0" stroke="rgba(255, 255, 255, 0)" fill="none" transform="matrix(1 0 0 1 9 7 )" class="stroke" mask="url(#Clip6254)" />
  </g>
</svg>