<?xml version="1.0" encoding="utf-8"?>
<svg version="1.1" xmlns:xlink="http://www.w3.org/1999/xlink" width="18px" height="9px" xmlns="http://www.w3.org/2000/svg">
  <defs>
    <pattern id="BGPattern" patternUnits="userSpaceOnUse" alignment="0 0" imageRepeat="None" />
    <mask fill="white" id="Clip4963">
      <path d="M 0.75 2.5  L 0.75 1  C 0.75 0.5857864376269051  1.085786437626905 0.25  1.5 0.25  L 16.5 0.25  C 16.914213562373096 0.25  17.25 0.5857864376269051  17.25 1  L 17.25 2.5  C 17.25 2.914213562373095  16.914213562373096 3.25  16.5 3.25  L 1.5 3.25  C 1.085786437626905 3.25  0.75 2.914213562373095  0.75 2.5  Z M 13.5 7.75  L 13.5 6.25  C 13.5 5.835786437626904  13.835786437626904 5.5  14.25 5.5  L 15.75 5.5  C 16.164213562373096 5.5  16.5 5.835786437626904  16.5 6.25  L 16.5 7.75  C 16.5 8.164213562373096  16.164213562373096 8.5  15.75 8.5  L 14.25 8.5  C 13.835786437626904 8.5  13.5 8.164213562373096  13.5 7.75  Z " fill-rule="evenodd" />
    </mask>
  </defs>
  <g transform="matrix(1 0 0 1 -3 -5 )">
    <path d="M 0.75 2.5  L 0.75 1  C 0.75 0.5857864376269051  1.085786437626905 0.25  1.5 0.25  L 16.5 0.25  C 16.914213562373096 0.25  17.25 0.5857864376269051  17.25 1  L 17.25 2.5  C 17.25 2.914213562373095  16.914213562373096 3.25  16.5 3.25  L 1.5 3.25  C 1.085786437626905 3.25  0.75 2.914213562373095  0.75 2.5  Z M 13.5 7.75  L 13.5 6.25  C 13.5 5.835786437626904  13.835786437626904 5.5  14.25 5.5  L 15.75 5.5  C 16.164213562373096 5.5  16.5 5.835786437626904  16.5 6.25  L 16.5 7.75  C 16.5 8.164213562373096  16.164213562373096 8.5  15.75 8.5  L 14.25 8.5  C 13.835786437626904 8.5  13.5 8.164213562373096  13.5 7.75  Z " fill-rule="nonzero" fill="rgba(0, 0, 0, 1)" stroke="none" transform="matrix(1 0 0 1 3 5 )" class="fill" />
    <path d="M 0.75 2.5  L 0.75 1  C 0.75 0.5857864376269051  1.085786437626905 0.25  1.5 0.25  L 16.5 0.25  C 16.914213562373096 0.25  17.25 0.5857864376269051  17.25 1  L 17.25 2.5  C 17.25 2.914213562373095  16.914213562373096 3.25  16.5 3.25  L 1.5 3.25  C 1.085786437626905 3.25  0.75 2.914213562373095  0.75 2.5  Z " stroke-width="0" stroke-dasharray="0" stroke="rgba(255, 255, 255, 0)" fill="none" transform="matrix(1 0 0 1 3 5 )" class="stroke" mask="url(#Clip4963)" />
    <path d="M 13.5 7.75  L 13.5 6.25  C 13.5 5.835786437626904  13.835786437626904 5.5  14.25 5.5  L 15.75 5.5  C 16.164213562373096 5.5  16.5 5.835786437626904  16.5 6.25  L 16.5 7.75  C 16.5 8.164213562373096  16.164213562373096 8.5  15.75 8.5  L 14.25 8.5  C 13.835786437626904 8.5  13.5 8.164213562373096  13.5 7.75  Z " stroke-width="0" stroke-dasharray="0" stroke="rgba(255, 255, 255, 0)" fill="none" transform="matrix(1 0 0 1 3 5 )" class="stroke" mask="url(#Clip4963)" />
  </g>
</svg>