<?xml version="1.0" encoding="utf-8"?>
<svg version="1.1" xmlns:xlink="http://www.w3.org/1999/xlink" width="44px" height="50px" xmlns="http://www.w3.org/2000/svg">
  <defs>
    <pattern id="BGPattern" patternUnits="userSpaceOnUse" alignment="0 0" imageRepeat="None" />
    <mask fill="white" id="Clip1033">
      <path d="M 28.875 13.272727272727252  C 28.886363636363622 22.272727272727252  35.625 26.761363636363626  43.636363636363626 24.852272727272748  L 43.636363636363626 30.772727272727252  C 41.54545454545456 31.25  39.44318181818181 31.465909090909122  37.715909090909065 31.465909090909122  C 33.52272727272725 40.261363636363626  26.011363636363626 47.80681818181819  23.5 49.21590909090912  C 21.909090909090878 50.113636363636374  20.42045454545456 50.170454545454554  18.647727272727252 49.125  C 15.568181818181813 47.27272727272725  3.886363636363626 37.69318181818181  0 7.579545454545468  L 8.465909090909065 7.579545454545468  C 10.590909090909065 25.65909090909094  15.795454545454561 34.93181818181819  21.511363636363626 41.875  C 24.681818181818187 38.70454545454544  27.738636363636374 34.47727272727275  30.102272727272748 29.727272727272748  C 24.443181818181817 26.852272727272748  21 20.534090909090935  21 13.181818181818187  C 21 5.7272727272727195  25.284090909090875 0.10227272727271952  32.613636363636374 0.10227272727271952  C 45.670454545454504 0.10227272727271952  44.68181818181819 14.636363636363626  41.886363636363626 20.727272727272748  C 41.886363636363626 20.727272727272748  36.613636363636374 21.772727272727252  34.67045454545456 18.397727272727252  C 35.05681818181819 17.113636363636374  35.60227272727275 14.897727272727252  35.60227272727275 12.886363636363626  C 35.60227272727275 9.329545454545467  34.31818181818181 7.590909090909094  32.375 7.590909090909094  C 30.306818181818187 7.590909090909094  28.875 9.534090909090907  28.875 13.272727272727252  Z " fill-rule="evenodd" />
    </mask>
  </defs>
  <g>
    <path d="M 28.875 13.272727272727252  C 28.886363636363622 22.272727272727252  35.625 26.761363636363626  43.636363636363626 24.852272727272748  L 43.636363636363626 30.772727272727252  C 41.54545454545456 31.25  39.44318181818181 31.465909090909122  37.715909090909065 31.465909090909122  C 33.52272727272725 40.261363636363626  26.011363636363626 47.80681818181819  23.5 49.21590909090912  C 21.909090909090878 50.113636363636374  20.42045454545456 50.170454545454554  18.647727272727252 49.125  C 15.568181818181813 47.27272727272725  3.886363636363626 37.69318181818181  0 7.579545454545468  L 8.465909090909065 7.579545454545468  C 10.590909090909065 25.65909090909094  15.795454545454561 34.93181818181819  21.511363636363626 41.875  C 24.681818181818187 38.70454545454544  27.738636363636374 34.47727272727275  30.102272727272748 29.727272727272748  C 24.443181818181817 26.852272727272748  21 20.534090909090935  21 13.181818181818187  C 21 5.7272727272727195  25.284090909090875 0.10227272727271952  32.613636363636374 0.10227272727271952  C 45.670454545454504 0.10227272727271952  44.68181818181819 14.636363636363626  41.886363636363626 20.727272727272748  C 41.886363636363626 20.727272727272748  36.613636363636374 21.772727272727252  34.67045454545456 18.397727272727252  C 35.05681818181819 17.113636363636374  35.60227272727275 14.897727272727252  35.60227272727275 12.886363636363626  C 35.60227272727275 9.329545454545467  34.31818181818181 7.590909090909094  32.375 7.590909090909094  C 30.306818181818187 7.590909090909094  28.875 9.534090909090907  28.875 13.272727272727252  Z " fill-rule="nonzero" fill="rgba(0, 0, 0, 1)" stroke="none" class="fill" />
    <path d="M 28.875 13.272727272727252  C 28.886363636363622 22.272727272727252  35.625 26.761363636363626  43.636363636363626 24.852272727272748  L 43.636363636363626 30.772727272727252  C 41.54545454545456 31.25  39.44318181818181 31.465909090909122  37.715909090909065 31.465909090909122  C 33.52272727272725 40.261363636363626  26.011363636363626 47.80681818181819  23.5 49.21590909090912  C 21.909090909090878 50.113636363636374  20.42045454545456 50.170454545454554  18.647727272727252 49.125  C 15.568181818181813 47.27272727272725  3.886363636363626 37.69318181818181  0 7.579545454545468  L 8.465909090909065 7.579545454545468  C 10.590909090909065 25.65909090909094  15.795454545454561 34.93181818181819  21.511363636363626 41.875  C 24.681818181818187 38.70454545454544  27.738636363636374 34.47727272727275  30.102272727272748 29.727272727272748  C 24.443181818181817 26.852272727272748  21 20.534090909090935  21 13.181818181818187  C 21 5.7272727272727195  25.284090909090875 0.10227272727271952  32.613636363636374 0.10227272727271952  C 45.670454545454504 0.10227272727271952  44.68181818181819 14.636363636363626  41.886363636363626 20.727272727272748  C 41.886363636363626 20.727272727272748  36.613636363636374 21.772727272727252  34.67045454545456 18.397727272727252  C 35.05681818181819 17.113636363636374  35.60227272727275 14.897727272727252  35.60227272727275 12.886363636363626  C 35.60227272727275 9.329545454545467  34.31818181818181 7.590909090909094  32.375 7.590909090909094  C 30.306818181818187 7.590909090909094  28.875 9.534090909090907  28.875 13.272727272727252  Z " stroke-width="0" stroke-dasharray="0" stroke="rgba(255, 255, 255, 0)" fill="none" class="stroke" mask="url(#Clip1033)" />
  </g>
</svg>