<?xml version="1.0" encoding="utf-8"?>
<svg version="1.1" xmlns:xlink="http://www.w3.org/1999/xlink" width="48px" height="44px" xmlns="http://www.w3.org/2000/svg">
  <defs>
    <pattern id="BGPattern" patternUnits="userSpaceOnUse" alignment="0 0" imageRepeat="None" />
    <mask fill="white" id="Clip6668">
      <path d="M 29.714000000000002 33  L 0 33  L 4.054 40.455999999999996  L 4.056 40.45599999999999  C 4.87976330434131 42.09038913943637  6.553750389937953 43.1215466186879  8.384 43  L 35.298 43  L 29.714000000000002 33  Z M 47.036 36.43  C 47.792 35.156  48 34.592  48 33.495999999999995  C 48 32.52799999999999  47.714 31.625999999999998  47.224 30.867999999999995  L 31.456 3.4559999999999995  C 30.615441417251695 1.8697830724197682  28.96716652741295 0.8778940280676912  27.172000000000004 0.8780000000000006  L 18.838 0.8780000000000006  L 43.196 43.08  L 47.036 36.43  Z M 3.968 26  L 25.742000000000004 26  L 14.856 7.716  L 3.968 26  Z " fill-rule="evenodd" />
    </mask>
  </defs>
  <g>
    <path d="M 29.714000000000002 33  L 0 33  L 4.054 40.455999999999996  L 4.056 40.45599999999999  C 4.87976330434131 42.09038913943637  6.553750389937953 43.1215466186879  8.384 43  L 35.298 43  L 29.714000000000002 33  Z M 47.036 36.43  C 47.792 35.156  48 34.592  48 33.495999999999995  C 48 32.52799999999999  47.714 31.625999999999998  47.224 30.867999999999995  L 31.456 3.4559999999999995  C 30.615441417251695 1.8697830724197682  28.96716652741295 0.8778940280676912  27.172000000000004 0.8780000000000006  L 18.838 0.8780000000000006  L 43.196 43.08  L 47.036 36.43  Z M 3.968 26  L 25.742000000000004 26  L 14.856 7.716  L 3.968 26  Z " fill-rule="nonzero" fill="rgba(19, 175, 240, 1)" stroke="none" class="fill" />
    <path d="M 29.714000000000002 33  L 0 33  L 4.054 40.455999999999996  L 4.056 40.45599999999999  C 4.87976330434131 42.09038913943637  6.553750389937953 43.1215466186879  8.384 43  L 35.298 43  L 29.714000000000002 33  Z " stroke-width="0" stroke-dasharray="0" stroke="rgba(255, 255, 255, 0)" fill="none" class="stroke" mask="url(#Clip6668)" />
    <path d="M 47.036 36.43  C 47.792 35.156  48 34.592  48 33.495999999999995  C 48 32.52799999999999  47.714 31.625999999999998  47.224 30.867999999999995  L 31.456 3.4559999999999995  C 30.615441417251695 1.8697830724197682  28.96716652741295 0.8778940280676912  27.172000000000004 0.8780000000000006  L 18.838 0.8780000000000006  L 43.196 43.08  L 47.036 36.43  Z " stroke-width="0" stroke-dasharray="0" stroke="rgba(255, 255, 255, 0)" fill="none" class="stroke" mask="url(#Clip6668)" />
    <path d="M 3.968 26  L 25.742000000000004 26  L 14.856 7.716  L 3.968 26  Z " stroke-width="0" stroke-dasharray="0" stroke="rgba(255, 255, 255, 0)" fill="none" class="stroke" mask="url(#Clip6668)" />
  </g>
</svg>