<?xml version="1.0" encoding="utf-8"?>
<svg version="1.1" xmlns:xlink="http://www.w3.org/1999/xlink" width="40px" height="34px" xmlns="http://www.w3.org/2000/svg">
  <defs>
    <pattern id="BGPattern" patternUnits="userSpaceOnUse" alignment="0 0" imageRepeat="None" />
    <mask fill="white" id="Clip2952">
      <path d="M 38.8875 14.606250000000003  C 39.36879862984235 13.587309652810177  39.36879862984235 12.406440347189818  38.8875 11.3875  C 36.69041666666668 6.758750000000003  34.07583333333334 2.9837500000000006  31.043750000000003 0.0625  L 27.863750000000003 3.2424999999999997  C 30.456874999999997 5.720624999999998  32.715625 8.962499999999999  34.66875 13  C 29.46875 23.762500000000003  22.0875 28.875  12 28.875  C 8.972083333333337 28.875  6.183125000000004 28.408750000000005  3.6331249999999997 27.47625  L 0.1875 30.921875  C 3.7291666666666714 32.55729166666667  7.666666666666671 33.375  12 33.375  C 24.012500000000003 33.375  32.97500000000001 27.118750000000006  38.8875 14.606250000000003  Z " fill-rule="evenodd" />
    </mask>
  </defs>
  <g transform="matrix(1 0 0 1 -16 -12 )">
    <path d="M 38.8875 14.606250000000003  C 39.36879862984235 13.587309652810177  39.36879862984235 12.406440347189818  38.8875 11.3875  C 36.69041666666668 6.758750000000003  34.07583333333334 2.9837500000000006  31.043750000000003 0.0625  L 27.863750000000003 3.2424999999999997  C 30.456874999999997 5.720624999999998  32.715625 8.962499999999999  34.66875 13  C 29.46875 23.762500000000003  22.0875 28.875  12 28.875  C 8.972083333333337 28.875  6.183125000000004 28.408750000000005  3.6331249999999997 27.47625  L 0.1875 30.921875  C 3.7291666666666714 32.55729166666667  7.666666666666671 33.375  12 33.375  C 24.012500000000003 33.375  32.97500000000001 27.118750000000006  38.8875 14.606250000000003  Z " fill-rule="nonzero" fill="rgba(0, 0, 0, 1)" stroke="none" transform="matrix(1 0 0 1 16 12 )" class="fill" />
    <path d="M 38.8875 14.606250000000003  C 39.36879862984235 13.587309652810177  39.36879862984235 12.406440347189818  38.8875 11.3875  C 36.69041666666668 6.758750000000003  34.07583333333334 2.9837500000000006  31.043750000000003 0.0625  L 27.863750000000003 3.2424999999999997  C 30.456874999999997 5.720624999999998  32.715625 8.962499999999999  34.66875 13  C 29.46875 23.762500000000003  22.0875 28.875  12 28.875  C 8.972083333333337 28.875  6.183125000000004 28.408750000000005  3.6331249999999997 27.47625  L 0.1875 30.921875  C 3.7291666666666714 32.55729166666667  7.666666666666671 33.375  12 33.375  C 24.012500000000003 33.375  32.97500000000001 27.118750000000006  38.8875 14.606250000000003  Z " stroke-width="0" stroke-dasharray="0" stroke="rgba(255, 255, 255, 0)" fill="none" transform="matrix(1 0 0 1 16 12 )" class="stroke" mask="url(#Clip2952)" />
  </g>
</svg>