<?xml version="1.0" encoding="utf-8"?>
<svg version="1.1" xmlns:xlink="http://www.w3.org/1999/xlink" width="25px" height="20px" xmlns="http://www.w3.org/2000/svg">
  <defs>
    <pattern id="BGPattern" patternUnits="userSpaceOnUse" alignment="0 0" imageRepeat="None" />
    <mask fill="white" id="Clip2875">
      <path d="M 0.21875000000000003 8.306249999999995  L 8.0125 19.106249999999996  C 8.385740704657838 19.627194442676902  8.987272648853931 19.936204273311418  9.628124999999997 19.936204273311418  C 10.268977351146063 19.936204273311418  10.870509295342153 19.627194442676902  11.243749999999999 19.106250000000003  L 24.40625 0.8562500000000028  C 24.643749999999997 0.5250000000000021  24.40625 0.06250000000000355  24 0.06250000000000355  L 21.06875 0.06250000000000355  C 20.425000000000004 0.06250000000000355  19.825000000000003 0.37500000000000355  19.450000000000003 0.8937500000000043  L 9.625 14.518749999999997  L 5.175000000000001 8.343749999999996  C 4.800000000000001 7.818749999999998  4.193750000000001 7.512499999999996  3.5562500000000026 7.512499999999996  L 0.625 7.512499999999996  C 0.21875000000000003 7.512499999999996  -0.01875000000000071 7.974999999999994  0.21875000000000003 8.306249999999995  Z " fill-rule="evenodd" />
    </mask>
  </defs>
  <g transform="matrix(1 0 0 1 -12 -15 )">
    <path d="M 0.21875000000000003 8.306249999999995  L 8.0125 19.106249999999996  C 8.385740704657838 19.627194442676902  8.987272648853931 19.936204273311418  9.628124999999997 19.936204273311418  C 10.268977351146063 19.936204273311418  10.870509295342153 19.627194442676902  11.243749999999999 19.106250000000003  L 24.40625 0.8562500000000028  C 24.643749999999997 0.5250000000000021  24.40625 0.06250000000000355  24 0.06250000000000355  L 21.06875 0.06250000000000355  C 20.425000000000004 0.06250000000000355  19.825000000000003 0.37500000000000355  19.450000000000003 0.8937500000000043  L 9.625 14.518749999999997  L 5.175000000000001 8.343749999999996  C 4.800000000000001 7.818749999999998  4.193750000000001 7.512499999999996  3.5562500000000026 7.512499999999996  L 0.625 7.512499999999996  C 0.21875000000000003 7.512499999999996  -0.01875000000000071 7.974999999999994  0.21875000000000003 8.306249999999995  Z " fill-rule="nonzero" fill="rgba(51, 51, 51, 1)" stroke="none" transform="matrix(1 0 0 1 12 15 )" class="fill" />
    <path d="M 0.21875000000000003 8.306249999999995  L 8.0125 19.106249999999996  C 8.385740704657838 19.627194442676902  8.987272648853931 19.936204273311418  9.628124999999997 19.936204273311418  C 10.268977351146063 19.936204273311418  10.870509295342153 19.627194442676902  11.243749999999999 19.106250000000003  L 24.40625 0.8562500000000028  C 24.643749999999997 0.5250000000000021  24.40625 0.06250000000000355  24 0.06250000000000355  L 21.06875 0.06250000000000355  C 20.425000000000004 0.06250000000000355  19.825000000000003 0.37500000000000355  19.450000000000003 0.8937500000000043  L 9.625 14.518749999999997  L 5.175000000000001 8.343749999999996  C 4.800000000000001 7.818749999999998  4.193750000000001 7.512499999999996  3.5562500000000026 7.512499999999996  L 0.625 7.512499999999996  C 0.21875000000000003 7.512499999999996  -0.01875000000000071 7.974999999999994  0.21875000000000003 8.306249999999995  Z " stroke-width="0" stroke-dasharray="0" stroke="rgba(255, 255, 255, 0)" fill="none" transform="matrix(1 0 0 1 12 15 )" class="stroke" mask="url(#Clip2875)" />
  </g>
</svg>