<?xml version="1.0" encoding="utf-8"?>
<svg version="1.1" xmlns:xlink="http://www.w3.org/1999/xlink" width="48px" height="48px" xmlns="http://www.w3.org/2000/svg">
  <defs>
    <pattern id="BGPattern" patternUnits="userSpaceOnUse" alignment="0 0" imageRepeat="None" />
    <mask fill="white" id="Clip6989">
      <path d="M 7.0600000000000005 0  L 40.94 0  C 44.84 0  48 3.16  48 7.059999999999999  L 48 40.94  C 48 44.839999999999996  44.84 48  40.94 48  L 7.0600000000000005 48  C 3.160000000000001 47.99999999999999  0 44.839999999999996  0 40.94  L 0 7.059999999999999  C 0 3.16  3.160000000000001 0  7.0600000000000005 0  Z M 33.53 28.917999999999992  L 33.53 28.939999999999998  C 31.970000000000006 28.939999999999998  30.71 30.2  30.71 31.759999999999998  C 30.71 33.31999999999999  31.970000000000006 34.587999999999994  33.53 34.587999999999994  C 35.09 34.587999999999994  36.35 33.297999999999995  36.35 31.737999999999992  C 36.35 30.177999999999994  35.09 28.917999999999992  33.53 28.917999999999992  Z M 17.22 34.355999999999995  L 17.22 34.49399999999999  C 19.619999999999997 34.49399999999999  21.332 34.40999999999999  22.38 34.25399999999999  C 23.432 34.086  24.332 33.80999999999999  25.02 33.42999999999999  C 25.919999999999995 32.965999999999994  26.58 32.30199999999999  27.06 31.449999999999992  C 27.54 30.597999999999995  27.78 29.619999999999994  27.78 28.489999999999995  C 27.78 26.929999999999993  27.36 25.683999999999997  26.519999999999996 24.749999999999993  C 25.679999999999996 23.789999999999996  24.539999999999992 23.281999999999996  23.039999999999996 23.161999999999995  C 24.36 22.801999999999996  25.351999999999997 22.261999999999997  25.95199999999999 21.541999999999994  C 26.581999999999994 20.854  26.881999999999994 19.894  26.881999999999994 18.693999999999996  C 26.881999999999994 17.733999999999995  26.675999999999995 16.923999999999996  26.28199999999999 16.173999999999996  C 25.861999999999988 15.453999999999997  25.295999999999992 14.884  24.51599999999999 14.433999999999997  C 23.82599999999999 14.043999999999999  23.045999999999992 13.803999999999995  22.08599999999999 13.623999999999997  C 21.15799999999999 13.475999999999997  19.505999999999993 13.384  17.13799999999999 13.384  L 12 13.384  L 12 34.355999999999995  L 17.22 34.355999999999995  Z M 18.720000000000002 26.131999999999998  L 18.692 26.124000000000002  C 20.102 26.124000000000002  21.062 26.299999999999997  21.572 26.648000000000003  C 22.112 27.008  22.352 27.637999999999998  22.352 28.508  C 22.352 29.317999999999998  22.082 29.887999999999998  21.512 30.218  C 20.972 30.577999999999996  19.982 30.726  18.632 30.726  L 16.62 30.726  L 16.62 26.131999999999998  L 18.720000000000002 26.131999999999998  Z M 36 27.536  L 36 13.416  L 31 13.416  L 31 27.536  L 36 27.536  Z M 17.854 18.159999999999997  L 17.85 18.159999999999997  C 19.270000000000003 18.159999999999997  20.220000000000002 18.319999999999997  20.714000000000002 18.64  C 21.204 18.959999999999997  21.448 19.509999999999998  21.448 20.299999999999997  C 21.448 21.06  21.188 21.592  20.668 21.907999999999998  C 20.137999999999998 22.215999999999998  19.174 22.371999999999996  17.764 22.371999999999996  L 16.624 22.371999999999996  L 16.624 18.159999999999997  L 17.854 18.159999999999997  Z " fill-rule="evenodd" />
    </mask>
  </defs>
  <g>
    <path d="M 7.0600000000000005 0  L 40.94 0  C 44.84 0  48 3.16  48 7.059999999999999  L 48 40.94  C 48 44.839999999999996  44.84 48  40.94 48  L 7.0600000000000005 48  C 3.160000000000001 47.99999999999999  0 44.839999999999996  0 40.94  L 0 7.059999999999999  C 0 3.16  3.160000000000001 0  7.0600000000000005 0  Z M 33.53 28.917999999999992  L 33.53 28.939999999999998  C 31.970000000000006 28.939999999999998  30.71 30.2  30.71 31.759999999999998  C 30.71 33.31999999999999  31.970000000000006 34.587999999999994  33.53 34.587999999999994  C 35.09 34.587999999999994  36.35 33.297999999999995  36.35 31.737999999999992  C 36.35 30.177999999999994  35.09 28.917999999999992  33.53 28.917999999999992  Z M 17.22 34.355999999999995  L 17.22 34.49399999999999  C 19.619999999999997 34.49399999999999  21.332 34.40999999999999  22.38 34.25399999999999  C 23.432 34.086  24.332 33.80999999999999  25.02 33.42999999999999  C 25.919999999999995 32.965999999999994  26.58 32.30199999999999  27.06 31.449999999999992  C 27.54 30.597999999999995  27.78 29.619999999999994  27.78 28.489999999999995  C 27.78 26.929999999999993  27.36 25.683999999999997  26.519999999999996 24.749999999999993  C 25.679999999999996 23.789999999999996  24.539999999999992 23.281999999999996  23.039999999999996 23.161999999999995  C 24.36 22.801999999999996  25.351999999999997 22.261999999999997  25.95199999999999 21.541999999999994  C 26.581999999999994 20.854  26.881999999999994 19.894  26.881999999999994 18.693999999999996  C 26.881999999999994 17.733999999999995  26.675999999999995 16.923999999999996  26.28199999999999 16.173999999999996  C 25.861999999999988 15.453999999999997  25.295999999999992 14.884  24.51599999999999 14.433999999999997  C 23.82599999999999 14.043999999999999  23.045999999999992 13.803999999999995  22.08599999999999 13.623999999999997  C 21.15799999999999 13.475999999999997  19.505999999999993 13.384  17.13799999999999 13.384  L 12 13.384  L 12 34.355999999999995  L 17.22 34.355999999999995  Z M 18.720000000000002 26.131999999999998  L 18.692 26.124000000000002  C 20.102 26.124000000000002  21.062 26.299999999999997  21.572 26.648000000000003  C 22.112 27.008  22.352 27.637999999999998  22.352 28.508  C 22.352 29.317999999999998  22.082 29.887999999999998  21.512 30.218  C 20.972 30.577999999999996  19.982 30.726  18.632 30.726  L 16.62 30.726  L 16.62 26.131999999999998  L 18.720000000000002 26.131999999999998  Z M 36 27.536  L 36 13.416  L 31 13.416  L 31 27.536  L 36 27.536  Z M 17.854 18.159999999999997  L 17.85 18.159999999999997  C 19.270000000000003 18.159999999999997  20.220000000000002 18.319999999999997  20.714000000000002 18.64  C 21.204 18.959999999999997  21.448 19.509999999999998  21.448 20.299999999999997  C 21.448 21.06  21.188 21.592  20.668 21.907999999999998  C 20.137999999999998 22.215999999999998  19.174 22.371999999999996  17.764 22.371999999999996  L 16.624 22.371999999999996  L 16.624 18.159999999999997  L 17.854 18.159999999999997  Z " fill-rule="nonzero" fill="rgba(0, 164, 222, 1)" stroke="none" class="fill" />
    <path d="M 7.0600000000000005 0  L 40.94 0  C 44.84 0  48 3.16  48 7.059999999999999  L 48 40.94  C 48 44.839999999999996  44.84 48  40.94 48  L 7.0600000000000005 48  C 3.160000000000001 47.99999999999999  0 44.839999999999996  0 40.94  L 0 7.059999999999999  C 0 3.16  3.160000000000001 0  7.0600000000000005 0  Z " stroke-width="0" stroke-dasharray="0" stroke="rgba(255, 255, 255, 0)" fill="none" class="stroke" mask="url(#Clip6989)" />
    <path d="M 33.53 28.917999999999992  L 33.53 28.939999999999998  C 31.970000000000006 28.939999999999998  30.71 30.2  30.71 31.759999999999998  C 30.71 33.31999999999999  31.970000000000006 34.587999999999994  33.53 34.587999999999994  C 35.09 34.587999999999994  36.35 33.297999999999995  36.35 31.737999999999992  C 36.35 30.177999999999994  35.09 28.917999999999992  33.53 28.917999999999992  Z " stroke-width="0" stroke-dasharray="0" stroke="rgba(255, 255, 255, 0)" fill="none" class="stroke" mask="url(#Clip6989)" />
    <path d="M 17.22 34.355999999999995  L 17.22 34.49399999999999  C 19.619999999999997 34.49399999999999  21.332 34.40999999999999  22.38 34.25399999999999  C 23.432 34.086  24.332 33.80999999999999  25.02 33.42999999999999  C 25.919999999999995 32.965999999999994  26.58 32.30199999999999  27.06 31.449999999999992  C 27.54 30.597999999999995  27.78 29.619999999999994  27.78 28.489999999999995  C 27.78 26.929999999999993  27.36 25.683999999999997  26.519999999999996 24.749999999999993  C 25.679999999999996 23.789999999999996  24.539999999999992 23.281999999999996  23.039999999999996 23.161999999999995  C 24.36 22.801999999999996  25.351999999999997 22.261999999999997  25.95199999999999 21.541999999999994  C 26.581999999999994 20.854  26.881999999999994 19.894  26.881999999999994 18.693999999999996  C 26.881999999999994 17.733999999999995  26.675999999999995 16.923999999999996  26.28199999999999 16.173999999999996  C 25.861999999999988 15.453999999999997  25.295999999999992 14.884  24.51599999999999 14.433999999999997  C 23.82599999999999 14.043999999999999  23.045999999999992 13.803999999999995  22.08599999999999 13.623999999999997  C 21.15799999999999 13.475999999999997  19.505999999999993 13.384  17.13799999999999 13.384  L 12 13.384  L 12 34.355999999999995  L 17.22 34.355999999999995  Z " stroke-width="0" stroke-dasharray="0" stroke="rgba(255, 255, 255, 0)" fill="none" class="stroke" mask="url(#Clip6989)" />
    <path d="M 18.720000000000002 26.131999999999998  L 18.692 26.124000000000002  C 20.102 26.124000000000002  21.062 26.299999999999997  21.572 26.648000000000003  C 22.112 27.008  22.352 27.637999999999998  22.352 28.508  C 22.352 29.317999999999998  22.082 29.887999999999998  21.512 30.218  C 20.972 30.577999999999996  19.982 30.726  18.632 30.726  L 16.62 30.726  L 16.62 26.131999999999998  L 18.720000000000002 26.131999999999998  Z " stroke-width="0" stroke-dasharray="0" stroke="rgba(255, 255, 255, 0)" fill="none" class="stroke" mask="url(#Clip6989)" />
    <path d="M 36 27.536  L 36 13.416  L 31 13.416  L 31 27.536  L 36 27.536  Z " stroke-width="0" stroke-dasharray="0" stroke="rgba(255, 255, 255, 0)" fill="none" class="stroke" mask="url(#Clip6989)" />
    <path d="M 17.854 18.159999999999997  L 17.85 18.159999999999997  C 19.270000000000003 18.159999999999997  20.220000000000002 18.319999999999997  20.714000000000002 18.64  C 21.204 18.959999999999997  21.448 19.509999999999998  21.448 20.299999999999997  C 21.448 21.06  21.188 21.592  20.668 21.907999999999998  C 20.137999999999998 22.215999999999998  19.174 22.371999999999996  17.764 22.371999999999996  L 16.624 22.371999999999996  L 16.624 18.159999999999997  L 17.854 18.159999999999997  Z " stroke-width="0" stroke-dasharray="0" stroke="rgba(255, 255, 255, 0)" fill="none" class="stroke" mask="url(#Clip6989)" />
  </g>
</svg>