<?xml version="1.0" encoding="utf-8"?>
<svg version="1.1" xmlns:xlink="http://www.w3.org/1999/xlink" width="50px" height="50px" xmlns="http://www.w3.org/2000/svg">
  <defs>
    <pattern id="BGPattern" patternUnits="userSpaceOnUse" alignment="0 0" imageRepeat="None" />
    <mask fill="white" id="Clip805">
      <path d="M 24.743303571428555 9.029017857142833  C 29.977678571428555 9.006696428571445  32.756696428571445 12.578125000000002  33.47098214285711 17.767857142857167  C 34.040178571428555 21.930803571428555  32.946428571428555 26.58482142857144  29.464285714285722 29.006696428571445  C 26.97544642857144 30.73660714285717  23.571428571428555 30.580357142857167  21.5625 29.64285714285711  C 17.421875 27.71205357142856  16.037946428571445 23.102678571428555  16.339285714285722 18.794642857142833  C 16.819196428571445 11.997767857142833  20.904017857142833 8.984375  24.743303571428555 9.029017857142833  Z M 43.75 0  C 47.19866071428572 0  50 2.8013392857142776  50 6.25  L 50 43.75  C 50 47.19866071428572  47.19866071428572 50  43.75 50  L 6.25 50  C 2.8013392857142776 50  0 47.19866071428572  0 43.75  L 0 6.25  C 0 2.8013392857142776  2.8013392857142776 0  6.25 0  L 43.75 0  Z M 29.308035714285722 43.24776785714283  C 34.87723214285717 41.875  36.819196428571445 37.12053571428572  36.83035714285717 31.383928571428555  C 36.83035714285717 31.383928571428555  36.819196428571445 27.589285714285722  36.819196428571445 7.131696428571445  L 33.58258928571428 7.131696428571445  L 33.58258928571428 11.629464285714278  C 33.493303571428555 11.662946428571445  33.44866071428572 11.573660714285722  33.40401785714283 11.495535714285722  C 32.33258928571428 9.185267857142833  29.397321428571445 6.328125  24.921875 6.361607142857167  C 19.129464285714278 6.406249999999999  15.189732142857167 9.84375  13.694196428571445 15.044642857142831  C 13.214285714285722 16.707589285714278  13.046875 18.404017857142833  13.08035714285711 20.133928571428555  C 13.27008928571428 28.828125  18.113839285714278 33.28125  25.624999999999996 32.991071428571445  C 28.85044642857145 32.868303571428555  31.707589285714278 31.093749999999996  33.32589285714283 27.946428571428555  C 33.381696428571445 27.834821428571445  33.44866071428572 27.734375  33.515625 27.62276785714289  C 33.537946428571445 27.633928571428555  33.56026785714283 27.633928571428555  33.58258928571428 27.645089285714274  C 33.616071428571445 28.06919642857145  33.60491071428572 31.071428571428555  33.59375 31.495535714285722  C 33.571428571428555 33.147321428571445  33.37053571428572 34.787946428571445  32.790178571428555 36.350446428571445  C 31.919642857142833 38.694196428571445  30.301339285714278 40.22321428571428  27.823660714285726 40.758928571428555  C 25.83705357142855 41.194196428571445  23.850446428571445 41.18303571428572  21.886160714285722 40.625  C 19.486607142857167 39.944196428571445  17.8125 38.50446428571428  17.299107142857167 35.959821428571445  C 17.265625 35.78125  17.154017857142833 35.81473214285717  17.042410714285722 35.81473214285717  L 14.05133928571428 35.81473214285717  C 14.140625000000002 36.99776785714289  14.408482142857167 38.08035714285717  15 39.07366071428572  C 17.70089285714289 43.59375  24.229910714285722 44.48660714285717  29.308035714285722 43.24776785714283  Z " fill-rule="evenodd" />
    </mask>
  </defs>
  <g>
    <path d="M 24.743303571428555 9.029017857142833  C 29.977678571428555 9.006696428571445  32.756696428571445 12.578125000000002  33.47098214285711 17.767857142857167  C 34.040178571428555 21.930803571428555  32.946428571428555 26.58482142857144  29.464285714285722 29.006696428571445  C 26.97544642857144 30.73660714285717  23.571428571428555 30.580357142857167  21.5625 29.64285714285711  C 17.421875 27.71205357142856  16.037946428571445 23.102678571428555  16.339285714285722 18.794642857142833  C 16.819196428571445 11.997767857142833  20.904017857142833 8.984375  24.743303571428555 9.029017857142833  Z M 43.75 0  C 47.19866071428572 0  50 2.8013392857142776  50 6.25  L 50 43.75  C 50 47.19866071428572  47.19866071428572 50  43.75 50  L 6.25 50  C 2.8013392857142776 50  0 47.19866071428572  0 43.75  L 0 6.25  C 0 2.8013392857142776  2.8013392857142776 0  6.25 0  L 43.75 0  Z M 29.308035714285722 43.24776785714283  C 34.87723214285717 41.875  36.819196428571445 37.12053571428572  36.83035714285717 31.383928571428555  C 36.83035714285717 31.383928571428555  36.819196428571445 27.589285714285722  36.819196428571445 7.131696428571445  L 33.58258928571428 7.131696428571445  L 33.58258928571428 11.629464285714278  C 33.493303571428555 11.662946428571445  33.44866071428572 11.573660714285722  33.40401785714283 11.495535714285722  C 32.33258928571428 9.185267857142833  29.397321428571445 6.328125  24.921875 6.361607142857167  C 19.129464285714278 6.406249999999999  15.189732142857167 9.84375  13.694196428571445 15.044642857142831  C 13.214285714285722 16.707589285714278  13.046875 18.404017857142833  13.08035714285711 20.133928571428555  C 13.27008928571428 28.828125  18.113839285714278 33.28125  25.624999999999996 32.991071428571445  C 28.85044642857145 32.868303571428555  31.707589285714278 31.093749999999996  33.32589285714283 27.946428571428555  C 33.381696428571445 27.834821428571445  33.44866071428572 27.734375  33.515625 27.62276785714289  C 33.537946428571445 27.633928571428555  33.56026785714283 27.633928571428555  33.58258928571428 27.645089285714274  C 33.616071428571445 28.06919642857145  33.60491071428572 31.071428571428555  33.59375 31.495535714285722  C 33.571428571428555 33.147321428571445  33.37053571428572 34.787946428571445  32.790178571428555 36.350446428571445  C 31.919642857142833 38.694196428571445  30.301339285714278 40.22321428571428  27.823660714285726 40.758928571428555  C 25.83705357142855 41.194196428571445  23.850446428571445 41.18303571428572  21.886160714285722 40.625  C 19.486607142857167 39.944196428571445  17.8125 38.50446428571428  17.299107142857167 35.959821428571445  C 17.265625 35.78125  17.154017857142833 35.81473214285717  17.042410714285722 35.81473214285717  L 14.05133928571428 35.81473214285717  C 14.140625000000002 36.99776785714289  14.408482142857167 38.08035714285717  15 39.07366071428572  C 17.70089285714289 43.59375  24.229910714285722 44.48660714285717  29.308035714285722 43.24776785714283  Z " fill-rule="nonzero" fill="rgba(0, 0, 0, 1)" stroke="none" class="fill" />
    <path d="M 24.743303571428555 9.029017857142833  C 29.977678571428555 9.006696428571445  32.756696428571445 12.578125000000002  33.47098214285711 17.767857142857167  C 34.040178571428555 21.930803571428555  32.946428571428555 26.58482142857144  29.464285714285722 29.006696428571445  C 26.97544642857144 30.73660714285717  23.571428571428555 30.580357142857167  21.5625 29.64285714285711  C 17.421875 27.71205357142856  16.037946428571445 23.102678571428555  16.339285714285722 18.794642857142833  C 16.819196428571445 11.997767857142833  20.904017857142833 8.984375  24.743303571428555 9.029017857142833  Z " stroke-width="0" stroke-dasharray="0" stroke="rgba(255, 255, 255, 0)" fill="none" class="stroke" mask="url(#Clip805)" />
    <path d="M 43.75 0  C 47.19866071428572 0  50 2.8013392857142776  50 6.25  L 50 43.75  C 50 47.19866071428572  47.19866071428572 50  43.75 50  L 6.25 50  C 2.8013392857142776 50  0 47.19866071428572  0 43.75  L 0 6.25  C 0 2.8013392857142776  2.8013392857142776 0  6.25 0  L 43.75 0  Z " stroke-width="0" stroke-dasharray="0" stroke="rgba(255, 255, 255, 0)" fill="none" class="stroke" mask="url(#Clip805)" />
    <path d="M 29.308035714285722 43.24776785714283  C 34.87723214285717 41.875  36.819196428571445 37.12053571428572  36.83035714285717 31.383928571428555  C 36.83035714285717 31.383928571428555  36.819196428571445 27.589285714285722  36.819196428571445 7.131696428571445  L 33.58258928571428 7.131696428571445  L 33.58258928571428 11.629464285714278  C 33.493303571428555 11.662946428571445  33.44866071428572 11.573660714285722  33.40401785714283 11.495535714285722  C 32.33258928571428 9.185267857142833  29.397321428571445 6.328125  24.921875 6.361607142857167  C 19.129464285714278 6.406249999999999  15.189732142857167 9.84375  13.694196428571445 15.044642857142831  C 13.214285714285722 16.707589285714278  13.046875 18.404017857142833  13.08035714285711 20.133928571428555  C 13.27008928571428 28.828125  18.113839285714278 33.28125  25.624999999999996 32.991071428571445  C 28.85044642857145 32.868303571428555  31.707589285714278 31.093749999999996  33.32589285714283 27.946428571428555  C 33.381696428571445 27.834821428571445  33.44866071428572 27.734375  33.515625 27.62276785714289  C 33.537946428571445 27.633928571428555  33.56026785714283 27.633928571428555  33.58258928571428 27.645089285714274  C 33.616071428571445 28.06919642857145  33.60491071428572 31.071428571428555  33.59375 31.495535714285722  C 33.571428571428555 33.147321428571445  33.37053571428572 34.787946428571445  32.790178571428555 36.350446428571445  C 31.919642857142833 38.694196428571445  30.301339285714278 40.22321428571428  27.823660714285726 40.758928571428555  C 25.83705357142855 41.194196428571445  23.850446428571445 41.18303571428572  21.886160714285722 40.625  C 19.486607142857167 39.944196428571445  17.8125 38.50446428571428  17.299107142857167 35.959821428571445  C 17.265625 35.78125  17.154017857142833 35.81473214285717  17.042410714285722 35.81473214285717  L 14.05133928571428 35.81473214285717  C 14.140625000000002 36.99776785714289  14.408482142857167 38.08035714285717  15 39.07366071428572  C 17.70089285714289 43.59375  24.229910714285722 44.48660714285717  29.308035714285722 43.24776785714283  Z " stroke-width="0" stroke-dasharray="0" stroke="rgba(255, 255, 255, 0)" fill="none" class="stroke" mask="url(#Clip805)" />
  </g>
</svg>