<?xml version="1.0" encoding="utf-8"?>
<svg version="1.1" xmlns:xlink="http://www.w3.org/1999/xlink" width="23px" height="19px" xmlns="http://www.w3.org/2000/svg">
  <defs>
    <pattern id="BGPattern" patternUnits="userSpaceOnUse" alignment="0 0" imageRepeat="None" />
  </defs>
  <g transform="matrix(1 0 0 1 -5 -7 )">
    <path d="M 6.919999999999999 17.91  L 6.919999999999999 17.939999999999998  C 6.9467504596370855 17.94016824688641  6.973501382227717 17.940252370953555  7.00025237095356 17.940252370953555  C 14.04740577879448 17.940252370953555  19.760252370953555 12.22740577879448  19.760252370953555 5.180252370953559  C 19.760252370953555 5.153501382227116  19.760168246886415 5.126750459637684  19.76 5.1  C 19.76 4.9  19.76 4.709999999999999  19.76 4.51  C 20.635592733414892 3.8684887421184424  21.39346002747166 3.0801714228540344  22 2.1799999999999997  C 21.175517491814272 2.540595453089491  20.303109930140145 2.7797496495329774  19.41 2.8900000000000006  C 20.35691056808216 2.325780345499469  21.06740021787117 1.4376682832632035  21.409999999999997 0.3899999999999997  C 20.527521225323763 0.9194408816446087  19.559815763748336 1.2916352899428514  18.55 1.4900000000000002  C 17.695593116932645 0.5796064866700164  16.502671577695487 0.0631725528439615  15.254141453530998 0.0631725528439615  C 12.757814384295813 0.0631725528439615  10.734141453531 2.086845483608773  10.734141453531 4.58317255284396  C 10.734141453531 4.925408194418701  10.773010045630919 5.266536686740025  10.850000000000003 5.600000000000001  C 7.221801910136153 5.421912350745595  3.840482186165403 3.7094375227991208  1.5500000000000007 0.8900000000000023  C 0.3649608556777473 2.946780235899338  0.9770642667060505 5.5700805688777795  2.950000000000001 6.890000000000001  C 2.2486123866906773 6.862948993982988  1.5634526963978128 6.671104280700986  0.9500000000000011 6.33  L 0.950000000000002 6.380000000000001  C 0.9371570782948105 8.514446395537217  2.4160529886352204 10.368273663428713  4.5 10.829999999999998  C 3.8476380113475415 11.005460245776337  3.1642921616740445 11.032794079763278  2.5 10.909999999999997  C 3.099939493226701 12.720129992385381  4.773517790511924 13.957296724110584  6.6800000000000015 14  C 5.089211114451164 15.280523957064268  3.1120913602298277 15.985379484415905  1.0700000000000003 16.000000000000004  C 0.7119531759081682 15.98963734633529  0.3547471610784205 15.959591980601946  0 15.91  C 2.0669551573372225 17.226898093120873  4.469204415134794 17.92118978612595  6.919999999999999 17.91  Z " fill-rule="nonzero" fill="rgba(0, 0, 0, 1)" stroke="none" transform="matrix(1 0 0 1 5 7 )" class="fill" />
    <path d="M 6.919999999999999 17.939999999999998  C 6.9467504596370855 17.94016824688641  6.973501382227717 17.940252370953555  7.00025237095356 17.940252370953555  C 14.04740577879448 17.940252370953555  19.760252370953555 12.22740577879448  19.760252370953555 5.180252370953559  C 19.760252370953555 5.153501382227116  19.760168246886415 5.126750459637684  19.76 5.1  C 19.76 4.9  19.76 4.709999999999999  19.76 4.51  C 20.635592733414892 3.8684887421184424  21.39346002747166 3.0801714228540344  22 2.1799999999999997  C 21.175517491814272 2.540595453089491  20.303109930140145 2.7797496495329774  19.41 2.8900000000000006  C 20.35691056808216 2.325780345499469  21.06740021787117 1.4376682832632035  21.409999999999997 0.3899999999999997  C 20.527521225323763 0.9194408816446087  19.559815763748336 1.2916352899428514  18.55 1.4900000000000002  C 17.695593116932645 0.5796064866700164  16.502671577695487 0.0631725528439615  15.254141453530998 0.0631725528439615  C 12.757814384295813 0.0631725528439615  10.734141453531 2.086845483608773  10.734141453531 4.58317255284396  C 10.734141453531 4.925408194418701  10.773010045630919 5.266536686740025  10.850000000000003 5.600000000000001  C 7.221801910136153 5.421912350745595  3.840482186165403 3.7094375227991208  1.5500000000000007 0.8900000000000023  C 0.3649608556777473 2.946780235899338  0.9770642667060505 5.5700805688777795  2.950000000000001 6.890000000000001  C 2.2486123866906773 6.862948993982988  1.5634526963978128 6.671104280700986  0.9500000000000011 6.33  L 0.950000000000002 6.380000000000001  C 0.9371570782948105 8.514446395537217  2.4160529886352204 10.368273663428713  4.5 10.829999999999998  C 3.8476380113475415 11.005460245776337  3.1642921616740445 11.032794079763278  2.5 10.909999999999997  C 3.099939493226701 12.720129992385381  4.773517790511924 13.957296724110584  6.6800000000000015 14  C 5.089211114451164 15.280523957064268  3.1120913602298277 15.985379484415905  1.0700000000000003 16.000000000000004  C 0.7119531759081682 15.98963734633529  0.3547471610784205 15.959591980601946  0 15.91  C 2.0669551573372225 17.226898093120873  4.469204415134794 17.92118978612595  6.919999999999999 17.91  " stroke-width="0" stroke-dasharray="0" stroke="rgba(255, 255, 255, 0)" fill="none" transform="matrix(1 0 0 1 5 7 )" class="stroke" />
  </g>
</svg>