<?xml version="1.0" encoding="utf-8"?>
<svg version="1.1" xmlns:xlink="http://www.w3.org/1999/xlink" width="8px" height="10px" xmlns="http://www.w3.org/2000/svg">
  <defs>
    <pattern id="BGPattern" patternUnits="userSpaceOnUse" alignment="0 0" imageRepeat="None" />
    <mask fill="white" id="Clip3931">
      <path d="M 2 6  L 8 6  L 8 2  C 8 0.8954305003384135  7.1045694996615865 0  6 0  L 2 0  C 0.8954305003384135 0  0 0.8954305003384135  0 2  L 0 8  C 0 9.104569499661586  0.8954305003384135 10  2 10  L 7 10  L 7 8  L 2 8  L 2 6  Z M 2 4  L 2 2  L 6 2  L 6 4  L 2 4  Z " fill-rule="evenodd" />
    </mask>
  </defs>
  <g transform="matrix(1 0 0 1 -17 -13 )">
    <path d="M 2 6  L 8 6  L 8 2  C 8 0.8954305003384135  7.1045694996615865 0  6 0  L 2 0  C 0.8954305003384135 0  0 0.8954305003384135  0 2  L 0 8  C 0 9.104569499661586  0.8954305003384135 10  2 10  L 7 10  L 7 8  L 2 8  L 2 6  Z M 2 4  L 2 2  L 6 2  L 6 4  L 2 4  Z " fill-rule="nonzero" fill="rgba(0, 0, 0, 1)" stroke="none" transform="matrix(1 0 0 1 17 13 )" class="fill" />
    <path d="M 2 6  L 8 6  L 8 2  C 8 0.8954305003384135  7.1045694996615865 0  6 0  L 2 0  C 0.8954305003384135 0  0 0.8954305003384135  0 2  L 0 8  C 0 9.104569499661586  0.8954305003384135 10  2 10  L 7 10  L 7 8  L 2 8  L 2 6  Z " stroke-width="0" stroke-dasharray="0" stroke="rgba(255, 255, 255, 0)" fill="none" transform="matrix(1 0 0 1 17 13 )" class="stroke" mask="url(#Clip3931)" />
    <path d="M 2 4  L 2 2  L 6 2  L 6 4  L 2 4  Z " stroke-width="0" stroke-dasharray="0" stroke="rgba(255, 255, 255, 0)" fill="none" transform="matrix(1 0 0 1 17 13 )" class="stroke" mask="url(#Clip3931)" />
  </g>
</svg>