<?xml version="1.0" encoding="utf-8"?>
<svg version="1.1" xmlns:xlink="http://www.w3.org/1999/xlink" width="19px" height="6px" xmlns="http://www.w3.org/2000/svg">
  <defs>
    <pattern id="BGPattern" patternUnits="userSpaceOnUse" alignment="0 0" imageRepeat="None" />
    <mask fill="white" id="Clip4667">
      <path d="M 0.5 4.5  L 0.5 1.5  C 0.5 0.6715728752538102  1.1715728752538102 0  2 0  L 17 0  C 17.82842712474619 0  18.5 0.6715728752538102  18.5 1.5  L 18.5 4.5  C 18.5 5.32842712474619  17.82842712474619 6  17 6  L 2 6  C 1.1715728752538102 6  0.5 5.32842712474619  0.5 4.5  Z " fill-rule="evenodd" />
    </mask>
  </defs>
  <g transform="matrix(1 0 0 1 -3 -8 )">
    <path d="M 0.5 4.5  L 0.5 1.5  C 0.5 0.6715728752538102  1.1715728752538102 0  2 0  L 17 0  C 17.82842712474619 0  18.5 0.6715728752538102  18.5 1.5  L 18.5 4.5  C 18.5 5.32842712474619  17.82842712474619 6  17 6  L 2 6  C 1.1715728752538102 6  0.5 5.32842712474619  0.5 4.5  Z " fill-rule="nonzero" fill="rgba(0, 0, 0, 1)" stroke="none" transform="matrix(1 0 0 1 3 8 )" class="fill" />
    <path d="M 0.5 4.5  L 0.5 1.5  C 0.5 0.6715728752538102  1.1715728752538102 0  2 0  L 17 0  C 17.82842712474619 0  18.5 0.6715728752538102  18.5 1.5  L 18.5 4.5  C 18.5 5.32842712474619  17.82842712474619 6  17 6  L 2 6  C 1.1715728752538102 6  0.5 5.32842712474619  0.5 4.5  Z " stroke-width="0" stroke-dasharray="0" stroke="rgba(255, 255, 255, 0)" fill="none" transform="matrix(1 0 0 1 3 8 )" class="stroke" mask="url(#Clip4667)" />
  </g>
</svg>