<?xml version="1.0" encoding="utf-8"?>
<svg version="1.1" xmlns:xlink="http://www.w3.org/1999/xlink" width="36px" height="48px" xmlns="http://www.w3.org/2000/svg">
  <defs>
    <pattern id="BGPattern" patternUnits="userSpaceOnUse" alignment="0 0" imageRepeat="None" />
    <mask fill="white" id="Clip6891">
      <path d="M 13.626000000000001 10.12  L 1.7800000000000002 31.345999999999997  L 6.51 0.922  C 6.590430430101568 0.3922261931304999  7.0458746052993515 0.0007087417243268472  7.581719116824221 0.0007087417243268472  C 7.983438913261239 0.0007087417243268472  8.352218696883437 0.22287047848813624  8.54 0.578  L 13.626000000000001 10.12  Z M 19.518 47.584  L 35.370000000000005 38.728  L 30.866 10.73  C 30.777809433302423 10.207333554598867  30.32519153177258 9.824688877590612  29.795137016460536 9.824688877590612  C 29.508472029240593 9.824688877590612  29.23343417794205 9.93803131395473  29.03 10.14  L 0.6300000000000026 38.728  L 16.344 47.584  C 17.329553348402683 48.13770951731017  18.532446651597326 48.13770951731017  19.518 47.584  Z M 1.0599999999999996 35.968  L 22.6 14.296  L 18.96 7.331999999999999  C 18.772813069599497 6.97505979620886  18.40304498011416 6.7514441379140235  18 6.7514441379140235  C 17.59695501988584 6.7514441379140235  17.227186930400503 6.97505979620886  17.04 7.331999999999999  L 1.0599999999999996 35.968  Z " fill-rule="evenodd" />
    </mask>
  </defs>
  <g>
    <path d="M 13.626000000000001 10.12  L 1.7800000000000002 31.345999999999997  L 6.51 0.922  C 6.590430430101568 0.3922261931304999  7.0458746052993515 0.0007087417243268472  7.581719116824221 0.0007087417243268472  C 7.983438913261239 0.0007087417243268472  8.352218696883437 0.22287047848813624  8.54 0.578  L 13.626000000000001 10.12  Z M 19.518 47.584  L 35.370000000000005 38.728  L 30.866 10.73  C 30.777809433302423 10.207333554598867  30.32519153177258 9.824688877590612  29.795137016460536 9.824688877590612  C 29.508472029240593 9.824688877590612  29.23343417794205 9.93803131395473  29.03 10.14  L 0.6300000000000026 38.728  L 16.344 47.584  C 17.329553348402683 48.13770951731017  18.532446651597326 48.13770951731017  19.518 47.584  Z M 1.0599999999999996 35.968  L 22.6 14.296  L 18.96 7.331999999999999  C 18.772813069599497 6.97505979620886  18.40304498011416 6.7514441379140235  18 6.7514441379140235  C 17.59695501988584 6.7514441379140235  17.227186930400503 6.97505979620886  17.04 7.331999999999999  L 1.0599999999999996 35.968  Z " fill-rule="nonzero" fill="rgba(255, 202, 40, 1)" stroke="none" class="fill" />
    <path d="M 13.626000000000001 10.12  L 1.7800000000000002 31.345999999999997  L 6.51 0.922  C 6.590430430101568 0.3922261931304999  7.0458746052993515 0.0007087417243268472  7.581719116824221 0.0007087417243268472  C 7.983438913261239 0.0007087417243268472  8.352218696883437 0.22287047848813624  8.54 0.578  L 13.626000000000001 10.12  Z " stroke-width="0" stroke-dasharray="0" stroke="rgba(255, 255, 255, 0)" fill="none" class="stroke" mask="url(#Clip6891)" />
    <path d="M 19.518 47.584  L 35.370000000000005 38.728  L 30.866 10.73  C 30.777809433302423 10.207333554598867  30.32519153177258 9.824688877590612  29.795137016460536 9.824688877590612  C 29.508472029240593 9.824688877590612  29.23343417794205 9.93803131395473  29.03 10.14  L 0.6300000000000026 38.728  L 16.344 47.584  C 17.329553348402683 48.13770951731017  18.532446651597326 48.13770951731017  19.518 47.584  Z " stroke-width="0" stroke-dasharray="0" stroke="rgba(255, 255, 255, 0)" fill="none" class="stroke" mask="url(#Clip6891)" />
    <path d="M 1.0599999999999996 35.968  L 22.6 14.296  L 18.96 7.331999999999999  C 18.772813069599497 6.97505979620886  18.40304498011416 6.7514441379140235  18 6.7514441379140235  C 17.59695501988584 6.7514441379140235  17.227186930400503 6.97505979620886  17.04 7.331999999999999  L 1.0599999999999996 35.968  Z " stroke-width="0" stroke-dasharray="0" stroke="rgba(255, 255, 255, 0)" fill="none" class="stroke" mask="url(#Clip6891)" />
  </g>
</svg>