<?xml version="1.0" encoding="utf-8"?>
<svg version="1.1" xmlns:xlink="http://www.w3.org/1999/xlink" width="46px" height="48px" xmlns="http://www.w3.org/2000/svg">
  <defs>
    <pattern id="BGPattern" patternUnits="userSpaceOnUse" alignment="0 0" imageRepeat="None" />
    <mask fill="white" id="Clip7007">
      <path d="M 35.316 15.862000000000004  L 35.328 15.861999999999998  L 35.328 10.169999999999998  C 36.86477081798149 9.450525597710234  37.8502419145467 7.910824310975646  37.86 6.213999999999999  L 37.85999999999999 6.079999999999999  C 37.85341245604765 3.6611930495135825  35.89480369431633 1.7016907618873107  33.476 1.6939999999999995  L 33.342 1.6939999999999995  C 30.923193049513575 1.7005875439523468  28.96369076188731 3.6591963056836656  28.955999999999996 6.077999999999999  L 28.955999999999996 6.212  C 28.963495105780325 7.899092842898058  29.936718451946504 9.432774681544917  31.46 10.158000000000001  L 31.486000000000004 10.17  L 31.486000000000004 15.873999999999997  C 29.309701607917606 16.206512372504825  27.26062709169661 17.110617329139888  25.54800000000001 18.494  L 25.572000000000006 18.476  L 9.916000000000006 6.2840000000000025  C 10.027901362208327 5.8642999824453215  10.084569353446302 5.431794456035954  10.084569353446302 4.997432832961957  C 10.084569353446302 2.239322792306975  7.848679394101286 0.0034328329619578045  5.090569353446303 0.0034328329619578045  C 2.3324593127913205 0.0034328329619578045  0.0965693534463028 2.239322792306975  0.0965693534463028 4.997432832961957  C 0.0965693534463028 7.755542873616939  2.3324593127913205 9.991432832961957  5.090569353446303 9.991432832961957  C 5.972856166262763 9.991432832961957  6.83939481615656 9.757692859582988  7.602000000000006 9.314  L 7.5780000000000065 9.326  L 22.97000000000001 21.308  C 21.60913979302192 23.348294297510204  20.886449502100085 25.74751466602335  20.894000000000005 28.199999999999996  C 20.894000000000005 30.885999999999996  21.744000000000007 33.37599999999999  23.188000000000006 35.41199999999999  L 23.16200000000001 35.373999999999995  L 18.478 40.057999999999986  C 18.103023392728392 39.93696063782171  17.71199726284313 39.87291325447844  17.318000000000005 39.867999999999995  L 17.314000000000004 39.867999999999995  C 15.068410207188 39.86800000000001  13.248000000000005 41.688410207188  13.248000000000005 43.934  C 13.248000000000005 46.179589792812  15.068410207188 48  17.314000000000004 48  C 19.55958979281201 48  21.380000000000006 46.179589792812  21.380000000000006 43.934  C 21.3752243964727 43.52954359037816  21.30844817101847 43.12821173032498  21.182000000000002 42.744  L 21.19 42.772  L 25.82400000000001 38.138000000000005  C 28.001909355573872 39.80098337702884  30.666134533377132 40.70184675803789  33.40635402702547 40.70184675803789  C 40.30659969141141 40.70184675803789  45.90035402702548 35.108092422423816  45.90035402702548 28.20784675803789  C 45.90035402702548 22.072551199603748  41.4456329297354 16.84510578968942  35.388000000000005 15.872000000000005  L 35.316 15.862000000000004  Z M 33.41600000000001 34.620000000000005  L 33.40000000000001 34.61599999999999  C 29.865007971488218 34.607179031713116  27.00400000003108 31.739022996705174  27.00400000003108 28.20401996260133  C 27.00400000003108 24.662770146686277  29.87475018411603 21.792019962601326  33.41600000003108 21.792019962601326  C 36.95724981594613 21.792019962601326  39.82800000003108 24.662770146686277  39.82800000003108 28.20401996260133  L 39.828 28.208  C 39.828 31.749249815915036  36.957249815915056 34.62  33.41600000000001 34.620000000000005  Z " fill-rule="evenodd" />
    </mask>
  </defs>
  <g>
    <path d="M 35.316 15.862000000000004  L 35.328 15.861999999999998  L 35.328 10.169999999999998  C 36.86477081798149 9.450525597710234  37.8502419145467 7.910824310975646  37.86 6.213999999999999  L 37.85999999999999 6.079999999999999  C 37.85341245604765 3.6611930495135825  35.89480369431633 1.7016907618873107  33.476 1.6939999999999995  L 33.342 1.6939999999999995  C 30.923193049513575 1.7005875439523468  28.96369076188731 3.6591963056836656  28.955999999999996 6.077999999999999  L 28.955999999999996 6.212  C 28.963495105780325 7.899092842898058  29.936718451946504 9.432774681544917  31.46 10.158000000000001  L 31.486000000000004 10.17  L 31.486000000000004 15.873999999999997  C 29.309701607917606 16.206512372504825  27.26062709169661 17.110617329139888  25.54800000000001 18.494  L 25.572000000000006 18.476  L 9.916000000000006 6.2840000000000025  C 10.027901362208327 5.8642999824453215  10.084569353446302 5.431794456035954  10.084569353446302 4.997432832961957  C 10.084569353446302 2.239322792306975  7.848679394101286 0.0034328329619578045  5.090569353446303 0.0034328329619578045  C 2.3324593127913205 0.0034328329619578045  0.0965693534463028 2.239322792306975  0.0965693534463028 4.997432832961957  C 0.0965693534463028 7.755542873616939  2.3324593127913205 9.991432832961957  5.090569353446303 9.991432832961957  C 5.972856166262763 9.991432832961957  6.83939481615656 9.757692859582988  7.602000000000006 9.314  L 7.5780000000000065 9.326  L 22.97000000000001 21.308  C 21.60913979302192 23.348294297510204  20.886449502100085 25.74751466602335  20.894000000000005 28.199999999999996  C 20.894000000000005 30.885999999999996  21.744000000000007 33.37599999999999  23.188000000000006 35.41199999999999  L 23.16200000000001 35.373999999999995  L 18.478 40.057999999999986  C 18.103023392728392 39.93696063782171  17.71199726284313 39.87291325447844  17.318000000000005 39.867999999999995  L 17.314000000000004 39.867999999999995  C 15.068410207188 39.86800000000001  13.248000000000005 41.688410207188  13.248000000000005 43.934  C 13.248000000000005 46.179589792812  15.068410207188 48  17.314000000000004 48  C 19.55958979281201 48  21.380000000000006 46.179589792812  21.380000000000006 43.934  C 21.3752243964727 43.52954359037816  21.30844817101847 43.12821173032498  21.182000000000002 42.744  L 21.19 42.772  L 25.82400000000001 38.138000000000005  C 28.001909355573872 39.80098337702884  30.666134533377132 40.70184675803789  33.40635402702547 40.70184675803789  C 40.30659969141141 40.70184675803789  45.90035402702548 35.108092422423816  45.90035402702548 28.20784675803789  C 45.90035402702548 22.072551199603748  41.4456329297354 16.84510578968942  35.388000000000005 15.872000000000005  L 35.316 15.862000000000004  Z M 33.41600000000001 34.620000000000005  L 33.40000000000001 34.61599999999999  C 29.865007971488218 34.607179031713116  27.00400000003108 31.739022996705174  27.00400000003108 28.20401996260133  C 27.00400000003108 24.662770146686277  29.87475018411603 21.792019962601326  33.41600000003108 21.792019962601326  C 36.95724981594613 21.792019962601326  39.82800000003108 24.662770146686277  39.82800000003108 28.20401996260133  L 39.828 28.208  C 39.828 31.749249815915036  36.957249815915056 34.62  33.41600000000001 34.620000000000005  Z " fill-rule="nonzero" fill="rgba(247, 122, 89, 1)" stroke="none" class="fill" />
    <path d="M 35.316 15.862000000000004  L 35.328 15.861999999999998  L 35.328 10.169999999999998  C 36.86477081798149 9.450525597710234  37.8502419145467 7.910824310975646  37.86 6.213999999999999  L 37.85999999999999 6.079999999999999  C 37.85341245604765 3.6611930495135825  35.89480369431633 1.7016907618873107  33.476 1.6939999999999995  L 33.342 1.6939999999999995  C 30.923193049513575 1.7005875439523468  28.96369076188731 3.6591963056836656  28.955999999999996 6.077999999999999  L 28.955999999999996 6.212  C 28.963495105780325 7.899092842898058  29.936718451946504 9.432774681544917  31.46 10.158000000000001  L 31.486000000000004 10.17  L 31.486000000000004 15.873999999999997  C 29.309701607917606 16.206512372504825  27.26062709169661 17.110617329139888  25.54800000000001 18.494  L 25.572000000000006 18.476  L 9.916000000000006 6.2840000000000025  C 10.027901362208327 5.8642999824453215  10.084569353446302 5.431794456035954  10.084569353446302 4.997432832961957  C 10.084569353446302 2.239322792306975  7.848679394101286 0.0034328329619578045  5.090569353446303 0.0034328329619578045  C 2.3324593127913205 0.0034328329619578045  0.0965693534463028 2.239322792306975  0.0965693534463028 4.997432832961957  C 0.0965693534463028 7.755542873616939  2.3324593127913205 9.991432832961957  5.090569353446303 9.991432832961957  C 5.972856166262763 9.991432832961957  6.83939481615656 9.757692859582988  7.602000000000006 9.314  L 7.5780000000000065 9.326  L 22.97000000000001 21.308  C 21.60913979302192 23.348294297510204  20.886449502100085 25.74751466602335  20.894000000000005 28.199999999999996  C 20.894000000000005 30.885999999999996  21.744000000000007 33.37599999999999  23.188000000000006 35.41199999999999  L 23.16200000000001 35.373999999999995  L 18.478 40.057999999999986  C 18.103023392728392 39.93696063782171  17.71199726284313 39.87291325447844  17.318000000000005 39.867999999999995  L 17.314000000000004 39.867999999999995  C 15.068410207188 39.86800000000001  13.248000000000005 41.688410207188  13.248000000000005 43.934  C 13.248000000000005 46.179589792812  15.068410207188 48  17.314000000000004 48  C 19.55958979281201 48  21.380000000000006 46.179589792812  21.380000000000006 43.934  C 21.3752243964727 43.52954359037816  21.30844817101847 43.12821173032498  21.182000000000002 42.744  L 21.19 42.772  L 25.82400000000001 38.138000000000005  C 28.001909355573872 39.80098337702884  30.666134533377132 40.70184675803789  33.40635402702547 40.70184675803789  C 40.30659969141141 40.70184675803789  45.90035402702548 35.108092422423816  45.90035402702548 28.20784675803789  C 45.90035402702548 22.072551199603748  41.4456329297354 16.84510578968942  35.388000000000005 15.872000000000005  L 35.316 15.862000000000004  Z " stroke-width="0" stroke-dasharray="0" stroke="rgba(255, 255, 255, 0)" fill="none" class="stroke" mask="url(#Clip7007)" />
    <path d="M 33.41600000000001 34.620000000000005  L 33.40000000000001 34.61599999999999  C 29.865007971488218 34.607179031713116  27.00400000003108 31.739022996705174  27.00400000003108 28.20401996260133  C 27.00400000003108 24.662770146686277  29.87475018411603 21.792019962601326  33.41600000003108 21.792019962601326  C 36.95724981594613 21.792019962601326  39.82800000003108 24.662770146686277  39.82800000003108 28.20401996260133  L 39.828 28.208  C 39.828 31.749249815915036  36.957249815915056 34.62  33.41600000000001 34.620000000000005  Z " stroke-width="0" stroke-dasharray="0" stroke="rgba(255, 255, 255, 0)" fill="none" class="stroke" mask="url(#Clip7007)" />
  </g>
</svg>