<?xml version="1.0" encoding="utf-8"?>
<svg version="1.1" xmlns:xlink="http://www.w3.org/1999/xlink" width="50px" height="45px" xmlns="http://www.w3.org/2000/svg">
  <defs>
    <pattern id="BGPattern" patternUnits="userSpaceOnUse" alignment="0 0" imageRepeat="None" />
    <mask fill="white" id="Clip1232">
      <path d="M 0.3893229166666714 28.77734375  C -0.2668402777777743 29.433506944444442  0.1979166666666714 30.55555555555557  1.1259548611111114 30.55555555555557  L 3.9379340277777715 30.55555555555557  C 5.83090277777778 39.47352430555557  15.793750000000003 44.44444444444446  25 44.44444444444446  C 34.2212673611111 44.44444444444446  44.17126736111112 39.463541666666686  46.06206597222223 30.55555555555557  L 48.87404513888889 30.55555555555557  C 49.80208333333334 30.55555555555557  50.26684027777776 29.433506944444442  49.610590277777774 28.77734375  L 43.79210069444446 22.95885416666667  C 43.38532986111112 22.552083333333346  42.72578125 22.552083333333346  42.31892361111112 22.95885416666667  L 36.50043402777777 28.77734375  C 35.84418402777777 29.433593750000004  36.30894097222222 30.55555555555557  37.23697916666666 30.55555555555557  L 40.287847222222226 30.55555555555557  C 38.5265625 35.27057291666668  32.91258680555555 38.071875000000006  27 38.716579861111114  L 27 22.22222222222223  L 32.29157986111112 22.22222222222223  C 32.86684027777778 22.22222222222223  33.33324652777779 21.755815972222223  33.33324652777779 21.180555555555557  L 33.33324652777779 17.708333333333343  C 33.33324652777779 17.133072916666663  32.86684027777778 16.66666666666667  32.29157986111112 16.66666666666667  L 27.777690972222217 16.66666666666667  L 27.777690972222217 16.191840277777786  C 31.013888888888886 15.047916666666666  33.3328125 11.962239583333343  33.33324652777779 8.334375000000009  C 33.333767361111114 3.79965277777778  29.653211805555557 0.06406250000000568  25.118923611111114 0.0008680555555571344  C 20.46206597222222 -0.06414930555555998  16.666666666666657 3.69140625  16.666666666666657 8.333333333333343  C 16.666666666666657 11.961631944444449  18.985763888888897 15.047743055555557  22.22222222222223 16.191840277777786  L 22.22222222222223 16.66666666666667  L 17.708333333333343 16.66666666666667  C 17.133072916666663 16.66666666666667  16.666666666666657 17.133072916666663  16.666666666666657 17.708333333333343  L 16.666666666666657 21.180555555555557  C 16.666666666666657 21.755815972222223  17.133072916666663 22.22222222222223  17.708333333333343 22.22222222222223  L 23 22.22222222222223  L 23 38.716579861111114  C 17.106250000000003 38.074305555555554  11.473958333333329 35.27222222222224  9.71206597222222 30.55555555555557  L 12.762934027777776 30.55555555555557  C 13.690972222222229 30.55555555555557  14.155729166666674 29.433506944444442  13.499479166666676 28.77734375  L 7.680989583333328 22.95885416666667  C 7.274218750000003 22.552083333333346  6.614670138888896 22.552083333333346  6.207812500000003 22.95885416666667  L 0.3893229166666714 28.77734375  Z M 22.22222222222223 8.333333333333343  C 22.22222222222223 6.801649305555558  23.46831597222223 5.555555555555557  25 5.555555555555557  C 26.531684027777768 5.555555555555557  27.777777777777775 6.801649305555558  27.777777777777775 8.333333333333343  C 27.777777777777775 9.865017361111114  26.531684027777768 11.111111111111114  25 11.111111111111114  C 23.46831597222223 11.111111111111114  22.22222222222223 9.865017361111114  22.22222222222223 8.333333333333343  Z " fill-rule="evenodd" />
    </mask>
  </defs>
  <g>
    <path d="M 0.3893229166666714 28.77734375  C -0.2668402777777743 29.433506944444442  0.1979166666666714 30.55555555555557  1.1259548611111114 30.55555555555557  L 3.9379340277777715 30.55555555555557  C 5.83090277777778 39.47352430555557  15.793750000000003 44.44444444444446  25 44.44444444444446  C 34.2212673611111 44.44444444444446  44.17126736111112 39.463541666666686  46.06206597222223 30.55555555555557  L 48.87404513888889 30.55555555555557  C 49.80208333333334 30.55555555555557  50.26684027777776 29.433506944444442  49.610590277777774 28.77734375  L 43.79210069444446 22.95885416666667  C 43.38532986111112 22.552083333333346  42.72578125 22.552083333333346  42.31892361111112 22.95885416666667  L 36.50043402777777 28.77734375  C 35.84418402777777 29.433593750000004  36.30894097222222 30.55555555555557  37.23697916666666 30.55555555555557  L 40.287847222222226 30.55555555555557  C 38.5265625 35.27057291666668  32.91258680555555 38.071875000000006  27 38.716579861111114  L 27 22.22222222222223  L 32.29157986111112 22.22222222222223  C 32.86684027777778 22.22222222222223  33.33324652777779 21.755815972222223  33.33324652777779 21.180555555555557  L 33.33324652777779 17.708333333333343  C 33.33324652777779 17.133072916666663  32.86684027777778 16.66666666666667  32.29157986111112 16.66666666666667  L 27.777690972222217 16.66666666666667  L 27.777690972222217 16.191840277777786  C 31.013888888888886 15.047916666666666  33.3328125 11.962239583333343  33.33324652777779 8.334375000000009  C 33.333767361111114 3.79965277777778  29.653211805555557 0.06406250000000568  25.118923611111114 0.0008680555555571344  C 20.46206597222222 -0.06414930555555998  16.666666666666657 3.69140625  16.666666666666657 8.333333333333343  C 16.666666666666657 11.961631944444449  18.985763888888897 15.047743055555557  22.22222222222223 16.191840277777786  L 22.22222222222223 16.66666666666667  L 17.708333333333343 16.66666666666667  C 17.133072916666663 16.66666666666667  16.666666666666657 17.133072916666663  16.666666666666657 17.708333333333343  L 16.666666666666657 21.180555555555557  C 16.666666666666657 21.755815972222223  17.133072916666663 22.22222222222223  17.708333333333343 22.22222222222223  L 23 22.22222222222223  L 23 38.716579861111114  C 17.106250000000003 38.074305555555554  11.473958333333329 35.27222222222224  9.71206597222222 30.55555555555557  L 12.762934027777776 30.55555555555557  C 13.690972222222229 30.55555555555557  14.155729166666674 29.433506944444442  13.499479166666676 28.77734375  L 7.680989583333328 22.95885416666667  C 7.274218750000003 22.552083333333346  6.614670138888896 22.552083333333346  6.207812500000003 22.95885416666667  L 0.3893229166666714 28.77734375  Z M 22.22222222222223 8.333333333333343  C 22.22222222222223 6.801649305555558  23.46831597222223 5.555555555555557  25 5.555555555555557  C 26.531684027777768 5.555555555555557  27.777777777777775 6.801649305555558  27.777777777777775 8.333333333333343  C 27.777777777777775 9.865017361111114  26.531684027777768 11.111111111111114  25 11.111111111111114  C 23.46831597222223 11.111111111111114  22.22222222222223 9.865017361111114  22.22222222222223 8.333333333333343  Z " fill-rule="nonzero" fill="rgba(0, 0, 0, 1)" stroke="none" class="fill" />
    <path d="M 0.3893229166666714 28.77734375  C -0.2668402777777743 29.433506944444442  0.1979166666666714 30.55555555555557  1.1259548611111114 30.55555555555557  L 3.9379340277777715 30.55555555555557  C 5.83090277777778 39.47352430555557  15.793750000000003 44.44444444444446  25 44.44444444444446  C 34.2212673611111 44.44444444444446  44.17126736111112 39.463541666666686  46.06206597222223 30.55555555555557  L 48.87404513888889 30.55555555555557  C 49.80208333333334 30.55555555555557  50.26684027777776 29.433506944444442  49.610590277777774 28.77734375  L 43.79210069444446 22.95885416666667  C 43.38532986111112 22.552083333333346  42.72578125 22.552083333333346  42.31892361111112 22.95885416666667  L 36.50043402777777 28.77734375  C 35.84418402777777 29.433593750000004  36.30894097222222 30.55555555555557  37.23697916666666 30.55555555555557  L 40.287847222222226 30.55555555555557  C 38.5265625 35.27057291666668  32.91258680555555 38.071875000000006  27 38.716579861111114  L 27 22.22222222222223  L 32.29157986111112 22.22222222222223  C 32.86684027777778 22.22222222222223  33.33324652777779 21.755815972222223  33.33324652777779 21.180555555555557  L 33.33324652777779 17.708333333333343  C 33.33324652777779 17.133072916666663  32.86684027777778 16.66666666666667  32.29157986111112 16.66666666666667  L 27.777690972222217 16.66666666666667  L 27.777690972222217 16.191840277777786  C 31.013888888888886 15.047916666666666  33.3328125 11.962239583333343  33.33324652777779 8.334375000000009  C 33.333767361111114 3.79965277777778  29.653211805555557 0.06406250000000568  25.118923611111114 0.0008680555555571344  C 20.46206597222222 -0.06414930555555998  16.666666666666657 3.69140625  16.666666666666657 8.333333333333343  C 16.666666666666657 11.961631944444449  18.985763888888897 15.047743055555557  22.22222222222223 16.191840277777786  L 22.22222222222223 16.66666666666667  L 17.708333333333343 16.66666666666667  C 17.133072916666663 16.66666666666667  16.666666666666657 17.133072916666663  16.666666666666657 17.708333333333343  L 16.666666666666657 21.180555555555557  C 16.666666666666657 21.755815972222223  17.133072916666663 22.22222222222223  17.708333333333343 22.22222222222223  L 23 22.22222222222223  L 23 38.716579861111114  C 17.106250000000003 38.074305555555554  11.473958333333329 35.27222222222224  9.71206597222222 30.55555555555557  L 12.762934027777776 30.55555555555557  C 13.690972222222229 30.55555555555557  14.155729166666674 29.433506944444442  13.499479166666676 28.77734375  L 7.680989583333328 22.95885416666667  C 7.274218750000003 22.552083333333346  6.614670138888896 22.552083333333346  6.207812500000003 22.95885416666667  L 0.3893229166666714 28.77734375  Z " stroke-width="0" stroke-dasharray="0" stroke="rgba(255, 255, 255, 0)" fill="none" class="stroke" mask="url(#Clip1232)" />
    <path d="M 22.22222222222223 8.333333333333343  C 22.22222222222223 6.801649305555558  23.46831597222223 5.555555555555557  25 5.555555555555557  C 26.531684027777768 5.555555555555557  27.777777777777775 6.801649305555558  27.777777777777775 8.333333333333343  C 27.777777777777775 9.865017361111114  26.531684027777768 11.111111111111114  25 11.111111111111114  C 23.46831597222223 11.111111111111114  22.22222222222223 9.865017361111114  22.22222222222223 8.333333333333343  Z " stroke-width="0" stroke-dasharray="0" stroke="rgba(255, 255, 255, 0)" fill="none" class="stroke" mask="url(#Clip1232)" />
  </g>
</svg>