<?xml version="1.0" encoding="utf-8"?>
<svg version="1.1" xmlns:xlink="http://www.w3.org/1999/xlink" width="56px" height="46px" xmlns="http://www.w3.org/2000/svg">
  <defs>
    <pattern id="BGPattern" patternUnits="userSpaceOnUse" alignment="0 0" imageRepeat="None" />
    <mask fill="white" id="Clip3008">
      <path d="M 55.83125000000001 23.418750000000003  C 56.04375000000001 23.231250000000003  56.04375000000001 22.918750000000003  55.85 22.71875  L 33.70000000000001 0.8937500000000025  C 33.607334408184656 0.8006229751897909  33.48137562428584 0.7482657928938767  33.35000000000001 0.7482657928938767  C 33.21862437571417 0.7482657928938767  33.09266559181536 0.8006229751897926  33 0.8937500000000007  L 18.08125 15.59375  C 17.885841584380117 15.787618001053604  17.883053212028464 16.102704076790722  18.075 16.3  L 18.08125 16.306250000000002  L 20.58125 18.76875  L 13.256250000000001 25.974999999999998  C 13.060841584380128 26.168868001053596  13.058053212028469 26.483954076790717  13.25 26.68125  L 13.256250000000001 26.6875  L 15.725 29.11875  L 3.9062500000000027 40.80625  L 0.5062500000000001 40.80625  C 0.2312499999999997 40.80625  0 41.03125  0 41.30625  L 0 44.75625  C 0 45.03125  0.2250000000000001 45.25625  0.5000000000000004 45  L 22.05625 45  C 22.1875 45.25625  22.3125 45.206250000000004  22.40625 45.112500000000004  L 27.1625 40.3875  L 29.6875 42.87500000000001  C 29.78016559181536 42.96812702481022  29.90612437571417 43.02048420710613  30.0375 43.02048420710613  C 30.168875624285832 43.02048420710613  30.29483440818465 42.968127024810215  30.387500000000006 42.875  L 37.706250000000004 35.65  L 40.21250000000001 38.118750000000006  C 40.30516559181537 38.211877024810214  40.431124375714184 38.26423420710613  40.56250000000001 38.26423420710613  C 40.693875624285845 38.26423420710613  40.819834408184654 38.211877024810214  40.91250000000001 38.11875  L 55.83125000000001 23.418750000000003  Z M 23.75625 37.387499999999996  L 20.3625 40  L 10.35 40  L 18.75 32.45625  L 23.75625 37.387499999999996  Z M 34.324999999999996 32.662499999999994  L 30.0375 36.887499999999996  L 19.325 26.33125  L 23.612499999999997 22.106249999999996  L 34.324999999999996 32.662499999999994  Z M 49.775000000000006 23.06875  L 40.56875 32.131249999999994  L 24.14375 15.95  L 33.35 6.88125  L 49.775000000000006 23.06875  Z " fill-rule="evenodd" />
    </mask>
  </defs>
  <g>
    <path d="M 55.83125000000001 23.418750000000003  C 56.04375000000001 23.231250000000003  56.04375000000001 22.918750000000003  55.85 22.71875  L 33.70000000000001 0.8937500000000025  C 33.607334408184656 0.8006229751897909  33.48137562428584 0.7482657928938767  33.35000000000001 0.7482657928938767  C 33.21862437571417 0.7482657928938767  33.09266559181536 0.8006229751897926  33 0.8937500000000007  L 18.08125 15.59375  C 17.885841584380117 15.787618001053604  17.883053212028464 16.102704076790722  18.075 16.3  L 18.08125 16.306250000000002  L 20.58125 18.76875  L 13.256250000000001 25.974999999999998  C 13.060841584380128 26.168868001053596  13.058053212028469 26.483954076790717  13.25 26.68125  L 13.256250000000001 26.6875  L 15.725 29.11875  L 3.9062500000000027 40.80625  L 0.5062500000000001 40.80625  C 0.2312499999999997 40.80625  0 41.03125  0 41.30625  L 0 44.75625  C 0 45.03125  0.2250000000000001 45.25625  0.5000000000000004 45  L 22.05625 45  C 22.1875 45.25625  22.3125 45.206250000000004  22.40625 45.112500000000004  L 27.1625 40.3875  L 29.6875 42.87500000000001  C 29.78016559181536 42.96812702481022  29.90612437571417 43.02048420710613  30.0375 43.02048420710613  C 30.168875624285832 43.02048420710613  30.29483440818465 42.968127024810215  30.387500000000006 42.875  L 37.706250000000004 35.65  L 40.21250000000001 38.118750000000006  C 40.30516559181537 38.211877024810214  40.431124375714184 38.26423420710613  40.56250000000001 38.26423420710613  C 40.693875624285845 38.26423420710613  40.819834408184654 38.211877024810214  40.91250000000001 38.11875  L 55.83125000000001 23.418750000000003  Z M 23.75625 37.387499999999996  L 20.3625 40  L 10.35 40  L 18.75 32.45625  L 23.75625 37.387499999999996  Z M 34.324999999999996 32.662499999999994  L 30.0375 36.887499999999996  L 19.325 26.33125  L 23.612499999999997 22.106249999999996  L 34.324999999999996 32.662499999999994  Z M 49.775000000000006 23.06875  L 40.56875 32.131249999999994  L 24.14375 15.95  L 33.35 6.88125  L 49.775000000000006 23.06875  Z " fill-rule="nonzero" fill="rgba(0, 0, 0, 1)" stroke="none" class="fill" />
    <path d="M 55.83125000000001 23.418750000000003  C 56.04375000000001 23.231250000000003  56.04375000000001 22.918750000000003  55.85 22.71875  L 33.70000000000001 0.8937500000000025  C 33.607334408184656 0.8006229751897909  33.48137562428584 0.7482657928938767  33.35000000000001 0.7482657928938767  C 33.21862437571417 0.7482657928938767  33.09266559181536 0.8006229751897926  33 0.8937500000000007  L 18.08125 15.59375  C 17.885841584380117 15.787618001053604  17.883053212028464 16.102704076790722  18.075 16.3  L 18.08125 16.306250000000002  L 20.58125 18.76875  L 13.256250000000001 25.974999999999998  C 13.060841584380128 26.168868001053596  13.058053212028469 26.483954076790717  13.25 26.68125  L 13.256250000000001 26.6875  L 15.725 29.11875  L 3.9062500000000027 40.80625  L 0.5062500000000001 40.80625  C 0.2312499999999997 40.80625  0 41.03125  0 41.30625  L 0 44.75625  C 0 45.03125  0.2250000000000001 45.25625  0.5000000000000004 45  L 22.05625 45  C 22.1875 45.25625  22.3125 45.206250000000004  22.40625 45.112500000000004  L 27.1625 40.3875  L 29.6875 42.87500000000001  C 29.78016559181536 42.96812702481022  29.90612437571417 43.02048420710613  30.0375 43.02048420710613  C 30.168875624285832 43.02048420710613  30.29483440818465 42.968127024810215  30.387500000000006 42.875  L 37.706250000000004 35.65  L 40.21250000000001 38.118750000000006  C 40.30516559181537 38.211877024810214  40.431124375714184 38.26423420710613  40.56250000000001 38.26423420710613  C 40.693875624285845 38.26423420710613  40.819834408184654 38.211877024810214  40.91250000000001 38.11875  L 55.83125000000001 23.418750000000003  Z " stroke-width="0" stroke-dasharray="0" stroke="rgba(255, 255, 255, 0)" fill="none" class="stroke" mask="url(#Clip3008)" />
    <path d="M 23.75625 37.387499999999996  L 20.3625 40  L 10.35 40  L 18.75 32.45625  L 23.75625 37.387499999999996  Z " stroke-width="0" stroke-dasharray="0" stroke="rgba(255, 255, 255, 0)" fill="none" class="stroke" mask="url(#Clip3008)" />
    <path d="M 34.324999999999996 32.662499999999994  L 30.0375 36.887499999999996  L 19.325 26.33125  L 23.612499999999997 22.106249999999996  L 34.324999999999996 32.662499999999994  Z " stroke-width="0" stroke-dasharray="0" stroke="rgba(255, 255, 255, 0)" fill="none" class="stroke" mask="url(#Clip3008)" />
    <path d="M 49.775000000000006 23.06875  L 40.56875 32.131249999999994  L 24.14375 15.95  L 33.35 6.88125  L 49.775000000000006 23.06875  Z " stroke-width="0" stroke-dasharray="0" stroke="rgba(255, 255, 255, 0)" fill="none" class="stroke" mask="url(#Clip3008)" />
  </g>
</svg>