<?xml version="1.0" encoding="utf-8"?>
<svg version="1.1" xmlns:xlink="http://www.w3.org/1999/xlink" width="50px" height="34px" xmlns="http://www.w3.org/2000/svg">
  <defs>
    <pattern id="BGPattern" patternUnits="userSpaceOnUse" alignment="0 0" imageRepeat="None" />
    <mask fill="white" id="Clip7558">
      <path d="M 43.926 10.306000000000001  C 42.672000000000004 10.306000000000001  41.504000000000005 11.328  41.332 12.576  L 40.058 21.87  C 39.918 22.882  39.432 23.76  38.604 24.504  C 37.774 25.248000000000005  36.839999999999996 25.620000000000005  35.804 25.620000000000005  C 34.796 25.620000000000005  33.978 25.256000000000007  33.356 24.526000000000003  C 32.730000000000004 23.796000000000003  32.49 22.910000000000004  32.634 21.868000000000002  L 33.404 16.228  C 33.428000000000004 15.102  32.58200000000001 14.222000000000001  31.418000000000003 14.222000000000001  L 28.368000000000006 14.222000000000001  C 27.204 14.222000000000001  26.113999999999997 15.102  25.828 16.228  L 25.034 21.868000000000002  C 24.890000000000004 22.910000000000004  24.404000000000003 23.796000000000003  23.576000000000004 24.526000000000003  C 22.748000000000005 25.256  21.832000000000004 25.620000000000005  20.824000000000005 25.620000000000005  C 19.816000000000006 25.620000000000005  18.994000000000007 25.248000000000005  18.356000000000005 24.504000000000005  C 17.718000000000004 23.760000000000005  17.470000000000006 22.882000000000005  17.610000000000007 21.870000000000005  L 19.318000000000005 9.538000000000004  C 19.500000000000004 8.338000000000005  18.788000000000004 7.082000000000004  17.702000000000005 6.574000000000003  C 17.702000000000005 6.574000000000003  4.842000000000006 1.2140000000000022  4.004000000000005 0.868000000000003  C 3.154 0.5199999999999996  2.192 1.3000000000000007  1.864 2.5999999999999996  L 1.078 5.702  C 0.748 7  1.492 8.478  2.726 8.984  L 11.346 12.552  L 10.054 21.869999999999997  C 9.620000000000001 24.996  10.354000000000001 27.668  12.254000000000001 29.885999999999996  C 14.154000000000003 32.105999999999995  16.66 33.214  19.774 33.214  C 22.648 33.214  25.270000000000003 32.248  27.642000000000007 30.311999999999998  C 29.536 32.248  31.908 33.214  34.752 33.214  C 37.864000000000004 33.214  40.676 32.106  43.192 29.885999999999996  C 45.706 27.667999999999992  47.182 24.993999999999996  47.614 21.869999999999997  C 47.614 21.869999999999997  48.964 12.035999999999998  48.989999999999995 11.863999999999997  C 49.108 11.005999999999997  48.178 10.305999999999997  46.925999999999995 10.305999999999997  L 43.926 10.306000000000001  Z " fill-rule="evenodd" />
    </mask>
  </defs>
  <g>
    <path d="M 43.926 10.306000000000001  C 42.672000000000004 10.306000000000001  41.504000000000005 11.328  41.332 12.576  L 40.058 21.87  C 39.918 22.882  39.432 23.76  38.604 24.504  C 37.774 25.248000000000005  36.839999999999996 25.620000000000005  35.804 25.620000000000005  C 34.796 25.620000000000005  33.978 25.256000000000007  33.356 24.526000000000003  C 32.730000000000004 23.796000000000003  32.49 22.910000000000004  32.634 21.868000000000002  L 33.404 16.228  C 33.428000000000004 15.102  32.58200000000001 14.222000000000001  31.418000000000003 14.222000000000001  L 28.368000000000006 14.222000000000001  C 27.204 14.222000000000001  26.113999999999997 15.102  25.828 16.228  L 25.034 21.868000000000002  C 24.890000000000004 22.910000000000004  24.404000000000003 23.796000000000003  23.576000000000004 24.526000000000003  C 22.748000000000005 25.256  21.832000000000004 25.620000000000005  20.824000000000005 25.620000000000005  C 19.816000000000006 25.620000000000005  18.994000000000007 25.248000000000005  18.356000000000005 24.504000000000005  C 17.718000000000004 23.760000000000005  17.470000000000006 22.882000000000005  17.610000000000007 21.870000000000005  L 19.318000000000005 9.538000000000004  C 19.500000000000004 8.338000000000005  18.788000000000004 7.082000000000004  17.702000000000005 6.574000000000003  C 17.702000000000005 6.574000000000003  4.842000000000006 1.2140000000000022  4.004000000000005 0.868000000000003  C 3.154 0.5199999999999996  2.192 1.3000000000000007  1.864 2.5999999999999996  L 1.078 5.702  C 0.748 7  1.492 8.478  2.726 8.984  L 11.346 12.552  L 10.054 21.869999999999997  C 9.620000000000001 24.996  10.354000000000001 27.668  12.254000000000001 29.885999999999996  C 14.154000000000003 32.105999999999995  16.66 33.214  19.774 33.214  C 22.648 33.214  25.270000000000003 32.248  27.642000000000007 30.311999999999998  C 29.536 32.248  31.908 33.214  34.752 33.214  C 37.864000000000004 33.214  40.676 32.106  43.192 29.885999999999996  C 45.706 27.667999999999992  47.182 24.993999999999996  47.614 21.869999999999997  C 47.614 21.869999999999997  48.964 12.035999999999998  48.989999999999995 11.863999999999997  C 49.108 11.005999999999997  48.178 10.305999999999997  46.925999999999995 10.305999999999997  L 43.926 10.306000000000001  Z " fill-rule="nonzero" fill="rgba(47, 183, 236, 1)" stroke="none" class="fill" />
    <path d="M 43.926 10.306000000000001  C 42.672000000000004 10.306000000000001  41.504000000000005 11.328  41.332 12.576  L 40.058 21.87  C 39.918 22.882  39.432 23.76  38.604 24.504  C 37.774 25.248000000000005  36.839999999999996 25.620000000000005  35.804 25.620000000000005  C 34.796 25.620000000000005  33.978 25.256000000000007  33.356 24.526000000000003  C 32.730000000000004 23.796000000000003  32.49 22.910000000000004  32.634 21.868000000000002  L 33.404 16.228  C 33.428000000000004 15.102  32.58200000000001 14.222000000000001  31.418000000000003 14.222000000000001  L 28.368000000000006 14.222000000000001  C 27.204 14.222000000000001  26.113999999999997 15.102  25.828 16.228  L 25.034 21.868000000000002  C 24.890000000000004 22.910000000000004  24.404000000000003 23.796000000000003  23.576000000000004 24.526000000000003  C 22.748000000000005 25.256  21.832000000000004 25.620000000000005  20.824000000000005 25.620000000000005  C 19.816000000000006 25.620000000000005  18.994000000000007 25.248000000000005  18.356000000000005 24.504000000000005  C 17.718000000000004 23.760000000000005  17.470000000000006 22.882000000000005  17.610000000000007 21.870000000000005  L 19.318000000000005 9.538000000000004  C 19.500000000000004 8.338000000000005  18.788000000000004 7.082000000000004  17.702000000000005 6.574000000000003  C 17.702000000000005 6.574000000000003  4.842000000000006 1.2140000000000022  4.004000000000005 0.868000000000003  C 3.154 0.5199999999999996  2.192 1.3000000000000007  1.864 2.5999999999999996  L 1.078 5.702  C 0.748 7  1.492 8.478  2.726 8.984  L 11.346 12.552  L 10.054 21.869999999999997  C 9.620000000000001 24.996  10.354000000000001 27.668  12.254000000000001 29.885999999999996  C 14.154000000000003 32.105999999999995  16.66 33.214  19.774 33.214  C 22.648 33.214  25.270000000000003 32.248  27.642000000000007 30.311999999999998  C 29.536 32.248  31.908 33.214  34.752 33.214  C 37.864000000000004 33.214  40.676 32.106  43.192 29.885999999999996  C 45.706 27.667999999999992  47.182 24.993999999999996  47.614 21.869999999999997  C 47.614 21.869999999999997  48.964 12.035999999999998  48.989999999999995 11.863999999999997  C 49.108 11.005999999999997  48.178 10.305999999999997  46.925999999999995 10.305999999999997  L 43.926 10.306000000000001  Z " stroke-width="0" stroke-dasharray="0" stroke="rgba(255, 255, 255, 0)" fill="none" class="stroke" mask="url(#Clip7558)" />
  </g>
</svg>