<?xml version="1.0" encoding="utf-8"?>
<svg version="1.1" xmlns:xlink="http://www.w3.org/1999/xlink" width="9px" height="12px" xmlns="http://www.w3.org/2000/svg">
  <defs>
    <pattern id="BGPattern" patternUnits="userSpaceOnUse" alignment="0 0" imageRepeat="None" />
    <mask fill="white" id="Clip5808">
      <path d="M 0 11  L 0 0.5  L 9 0.5  L 9 11  C 9 11.414370934164506  8.66421363140234 11.750157371791412  8.250000154181134 11.750157371791412  C 8.114214394621083 11.750157371791412  7.9809759068245425 11.71329389775094  7.864500216919654 11.6435  L 4.500000908576225 9.624500000000001  L 1.1355016002327967 11.645  C 1.0190254905796843 11.714794596391048  0.885786324536319 11.75165846065861  0.7499998458188653 11.75165846065861  C 0.3357863685976588 11.75165846065861  0 11.415872023031705  0 11.00165846065861  C 0 11.001105639932444  0 11.000552819374583  0 11  Z " fill-rule="evenodd" />
    </mask>
  </defs>
  <g transform="matrix(1 0 0 1 -9 -1 )">
    <path d="M 0 11  L 0 0.5  L 9 0.5  L 9 11  C 9 11.414370934164506  8.66421363140234 11.750157371791412  8.250000154181134 11.750157371791412  C 8.114214394621083 11.750157371791412  7.9809759068245425 11.71329389775094  7.864500216919654 11.6435  L 4.500000908576225 9.624500000000001  L 1.1355016002327967 11.645  C 1.0190254905796843 11.714794596391048  0.885786324536319 11.75165846065861  0.7499998458188653 11.75165846065861  C 0.3357863685976588 11.75165846065861  0 11.415872023031705  0 11.00165846065861  C 0 11.001105639932444  0 11.000552819374583  0 11  Z " fill-rule="nonzero" fill="rgba(0, 0, 0, 1)" stroke="none" transform="matrix(1 0 0 1 9 1 )" class="fill" />
    <path d="M 0 11  L 0 0.5  L 9 0.5  L 9 11  C 9 11.414370934164506  8.66421363140234 11.750157371791412  8.250000154181134 11.750157371791412  C 8.114214394621083 11.750157371791412  7.9809759068245425 11.71329389775094  7.864500216919654 11.6435  L 4.500000908576225 9.624500000000001  L 1.1355016002327967 11.645  C 1.0190254905796843 11.714794596391048  0.885786324536319 11.75165846065861  0.7499998458188653 11.75165846065861  C 0.3357863685976588 11.75165846065861  0 11.415872023031705  0 11.00165846065861  C 0 11.001105639932444  0 11.000552819374583  0 11  Z " stroke-width="0" stroke-dasharray="0" stroke="rgba(255, 255, 255, 0)" fill="none" transform="matrix(1 0 0 1 9 1 )" class="stroke" mask="url(#Clip5808)" />
  </g>
</svg>