<?xml version="1.0" encoding="utf-8"?>
<svg version="1.1" xmlns:xlink="http://www.w3.org/1999/xlink" width="36px" height="50px" xmlns="http://www.w3.org/2000/svg">
  <defs>
    <pattern id="BGPattern" patternUnits="userSpaceOnUse" alignment="0 0" imageRepeat="None" />
    <mask fill="white" id="Clip1626">
      <path d="M 14.285714285714278 3.571428571428555  C 14.285714285714278 1.5993303571428328  12.686383928571445 0  10.714285714285722 0  L 3.5714285714285836 0  C 1.5993303571428612 0  0 1.5993303571428328  0 3.571428571428555  L 0 10.714285714285722  C 0 12.686383928571447  1.5993303571428612 14.285714285714276  3.5714285714285836 14.285714285714276  L 10.714285714285722 14.285714285714276  C 12.686383928571445 14.285714285714276  14.285714285714278 12.686383928571447  14.285714285714278 10.714285714285722  L 14.285714285714278 3.571428571428555  Z M 14.285714285714278 21.428571428571445  C 14.285714285714278 19.456473214285722  12.686383928571445 17.857142857142833  10.714285714285722 17.857142857142833  L 3.5714285714285836 17.857142857142833  C 1.5993303571428612 17.857142857142833  0 19.456473214285722  0 21.428571428571445  L 0 28.57142857142855  C 0 30.543526785714274  1.5993303571428612 32.14285714285717  3.5714285714285836 32.14285714285717  L 10.714285714285722 32.14285714285717  C 12.686383928571445 32.14285714285717  14.285714285714278 30.543526785714274  14.285714285714278 28.57142857142855  L 14.285714285714278 21.428571428571445  Z M 14.285714285714278 39.28571428571428  C 14.285714285714278 37.313616071428555  12.686383928571445 35.71428571428572  10.714285714285722 35.71428571428572  L 3.5714285714285836 35.71428571428572  C 1.5993303571428612 35.71428571428572  0 37.313616071428555  0 39.28571428571428  L 0 46.428571428571445  C 0 48.40066964285717  1.5993303571428612 50  3.5714285714285836 50  L 10.714285714285722 50  C 12.686383928571445 50  14.285714285714278 48.40066964285717  14.285714285714278 46.428571428571445  L 14.285714285714278 39.28571428571428  Z M 35.71428571428572 3.571428571428555  C 35.71428571428572 1.5993303571428328  34.11495535714286 0  32.14285714285717 0  L 25 0  C 23.027901785714278 0  21.428571428571445 1.5993303571428328  21.428571428571445 3.571428571428555  L 21.428571428571445 10.714285714285722  C 21.428571428571445 12.686383928571447  23.027901785714306 14.285714285714276  25 14.285714285714276  L 32.14285714285717 14.285714285714276  C 34.11495535714286 14.285714285714276  35.71428571428572 12.686383928571447  35.71428571428572 10.714285714285722  L 35.71428571428572 3.571428571428555  Z M 35.71428571428572 21.428571428571445  C 35.71428571428572 19.456473214285722  34.11495535714286 17.857142857142833  32.14285714285717 17.857142857142833  L 25 17.857142857142833  C 23.027901785714278 17.857142857142833  21.428571428571445 19.456473214285722  21.428571428571445 21.428571428571445  L 21.428571428571445 28.57142857142855  C 21.428571428571445 30.543526785714274  23.027901785714306 32.14285714285717  25 32.14285714285717  L 32.14285714285717 32.14285714285717  C 34.11495535714286 32.14285714285717  35.71428571428572 30.543526785714274  35.71428571428572 28.57142857142855  L 35.71428571428572 21.428571428571445  Z M 35.71428571428572 39.28571428571428  C 35.71428571428572 37.313616071428555  34.11495535714286 35.71428571428572  32.14285714285717 35.71428571428572  L 25 35.71428571428572  C 23.027901785714278 35.71428571428572  21.428571428571445 37.313616071428555  21.428571428571445 39.28571428571428  L 21.428571428571445 46.428571428571445  C 21.428571428571445 48.40066964285717  23.027901785714306 50  25 50  L 32.14285714285717 50  C 34.11495535714286 50  35.71428571428572 48.40066964285717  35.71428571428572 46.428571428571445  L 35.71428571428572 39.28571428571428  Z " fill-rule="evenodd" />
    </mask>
  </defs>
  <g>
    <path d="M 14.285714285714278 3.571428571428555  C 14.285714285714278 1.5993303571428328  12.686383928571445 0  10.714285714285722 0  L 3.5714285714285836 0  C 1.5993303571428612 0  0 1.5993303571428328  0 3.571428571428555  L 0 10.714285714285722  C 0 12.686383928571447  1.5993303571428612 14.285714285714276  3.5714285714285836 14.285714285714276  L 10.714285714285722 14.285714285714276  C 12.686383928571445 14.285714285714276  14.285714285714278 12.686383928571447  14.285714285714278 10.714285714285722  L 14.285714285714278 3.571428571428555  Z M 14.285714285714278 21.428571428571445  C 14.285714285714278 19.456473214285722  12.686383928571445 17.857142857142833  10.714285714285722 17.857142857142833  L 3.5714285714285836 17.857142857142833  C 1.5993303571428612 17.857142857142833  0 19.456473214285722  0 21.428571428571445  L 0 28.57142857142855  C 0 30.543526785714274  1.5993303571428612 32.14285714285717  3.5714285714285836 32.14285714285717  L 10.714285714285722 32.14285714285717  C 12.686383928571445 32.14285714285717  14.285714285714278 30.543526785714274  14.285714285714278 28.57142857142855  L 14.285714285714278 21.428571428571445  Z M 14.285714285714278 39.28571428571428  C 14.285714285714278 37.313616071428555  12.686383928571445 35.71428571428572  10.714285714285722 35.71428571428572  L 3.5714285714285836 35.71428571428572  C 1.5993303571428612 35.71428571428572  0 37.313616071428555  0 39.28571428571428  L 0 46.428571428571445  C 0 48.40066964285717  1.5993303571428612 50  3.5714285714285836 50  L 10.714285714285722 50  C 12.686383928571445 50  14.285714285714278 48.40066964285717  14.285714285714278 46.428571428571445  L 14.285714285714278 39.28571428571428  Z M 35.71428571428572 3.571428571428555  C 35.71428571428572 1.5993303571428328  34.11495535714286 0  32.14285714285717 0  L 25 0  C 23.027901785714278 0  21.428571428571445 1.5993303571428328  21.428571428571445 3.571428571428555  L 21.428571428571445 10.714285714285722  C 21.428571428571445 12.686383928571447  23.027901785714306 14.285714285714276  25 14.285714285714276  L 32.14285714285717 14.285714285714276  C 34.11495535714286 14.285714285714276  35.71428571428572 12.686383928571447  35.71428571428572 10.714285714285722  L 35.71428571428572 3.571428571428555  Z M 35.71428571428572 21.428571428571445  C 35.71428571428572 19.456473214285722  34.11495535714286 17.857142857142833  32.14285714285717 17.857142857142833  L 25 17.857142857142833  C 23.027901785714278 17.857142857142833  21.428571428571445 19.456473214285722  21.428571428571445 21.428571428571445  L 21.428571428571445 28.57142857142855  C 21.428571428571445 30.543526785714274  23.027901785714306 32.14285714285717  25 32.14285714285717  L 32.14285714285717 32.14285714285717  C 34.11495535714286 32.14285714285717  35.71428571428572 30.543526785714274  35.71428571428572 28.57142857142855  L 35.71428571428572 21.428571428571445  Z M 35.71428571428572 39.28571428571428  C 35.71428571428572 37.313616071428555  34.11495535714286 35.71428571428572  32.14285714285717 35.71428571428572  L 25 35.71428571428572  C 23.027901785714278 35.71428571428572  21.428571428571445 37.313616071428555  21.428571428571445 39.28571428571428  L 21.428571428571445 46.428571428571445  C 21.428571428571445 48.40066964285717  23.027901785714306 50  25 50  L 32.14285714285717 50  C 34.11495535714286 50  35.71428571428572 48.40066964285717  35.71428571428572 46.428571428571445  L 35.71428571428572 39.28571428571428  Z " fill-rule="nonzero" fill="rgba(0, 0, 0, 1)" stroke="none" class="fill" />
    <path d="M 14.285714285714278 3.571428571428555  C 14.285714285714278 1.5993303571428328  12.686383928571445 0  10.714285714285722 0  L 3.5714285714285836 0  C 1.5993303571428612 0  0 1.5993303571428328  0 3.571428571428555  L 0 10.714285714285722  C 0 12.686383928571447  1.5993303571428612 14.285714285714276  3.5714285714285836 14.285714285714276  L 10.714285714285722 14.285714285714276  C 12.686383928571445 14.285714285714276  14.285714285714278 12.686383928571447  14.285714285714278 10.714285714285722  L 14.285714285714278 3.571428571428555  Z " stroke-width="0" stroke-dasharray="0" stroke="rgba(255, 255, 255, 0)" fill="none" class="stroke" mask="url(#Clip1626)" />
    <path d="M 14.285714285714278 21.428571428571445  C 14.285714285714278 19.456473214285722  12.686383928571445 17.857142857142833  10.714285714285722 17.857142857142833  L 3.5714285714285836 17.857142857142833  C 1.5993303571428612 17.857142857142833  0 19.456473214285722  0 21.428571428571445  L 0 28.57142857142855  C 0 30.543526785714274  1.5993303571428612 32.14285714285717  3.5714285714285836 32.14285714285717  L 10.714285714285722 32.14285714285717  C 12.686383928571445 32.14285714285717  14.285714285714278 30.543526785714274  14.285714285714278 28.57142857142855  L 14.285714285714278 21.428571428571445  Z " stroke-width="0" stroke-dasharray="0" stroke="rgba(255, 255, 255, 0)" fill="none" class="stroke" mask="url(#Clip1626)" />
    <path d="M 14.285714285714278 39.28571428571428  C 14.285714285714278 37.313616071428555  12.686383928571445 35.71428571428572  10.714285714285722 35.71428571428572  L 3.5714285714285836 35.71428571428572  C 1.5993303571428612 35.71428571428572  0 37.313616071428555  0 39.28571428571428  L 0 46.428571428571445  C 0 48.40066964285717  1.5993303571428612 50  3.5714285714285836 50  L 10.714285714285722 50  C 12.686383928571445 50  14.285714285714278 48.40066964285717  14.285714285714278 46.428571428571445  L 14.285714285714278 39.28571428571428  Z " stroke-width="0" stroke-dasharray="0" stroke="rgba(255, 255, 255, 0)" fill="none" class="stroke" mask="url(#Clip1626)" />
    <path d="M 35.71428571428572 3.571428571428555  C 35.71428571428572 1.5993303571428328  34.11495535714286 0  32.14285714285717 0  L 25 0  C 23.027901785714278 0  21.428571428571445 1.5993303571428328  21.428571428571445 3.571428571428555  L 21.428571428571445 10.714285714285722  C 21.428571428571445 12.686383928571447  23.027901785714306 14.285714285714276  25 14.285714285714276  L 32.14285714285717 14.285714285714276  C 34.11495535714286 14.285714285714276  35.71428571428572 12.686383928571447  35.71428571428572 10.714285714285722  L 35.71428571428572 3.571428571428555  Z " stroke-width="0" stroke-dasharray="0" stroke="rgba(255, 255, 255, 0)" fill="none" class="stroke" mask="url(#Clip1626)" />
    <path d="M 35.71428571428572 21.428571428571445  C 35.71428571428572 19.456473214285722  34.11495535714286 17.857142857142833  32.14285714285717 17.857142857142833  L 25 17.857142857142833  C 23.027901785714278 17.857142857142833  21.428571428571445 19.456473214285722  21.428571428571445 21.428571428571445  L 21.428571428571445 28.57142857142855  C 21.428571428571445 30.543526785714274  23.027901785714306 32.14285714285717  25 32.14285714285717  L 32.14285714285717 32.14285714285717  C 34.11495535714286 32.14285714285717  35.71428571428572 30.543526785714274  35.71428571428572 28.57142857142855  L 35.71428571428572 21.428571428571445  Z " stroke-width="0" stroke-dasharray="0" stroke="rgba(255, 255, 255, 0)" fill="none" class="stroke" mask="url(#Clip1626)" />
    <path d="M 35.71428571428572 39.28571428571428  C 35.71428571428572 37.313616071428555  34.11495535714286 35.71428571428572  32.14285714285717 35.71428571428572  L 25 35.71428571428572  C 23.027901785714278 35.71428571428572  21.428571428571445 37.313616071428555  21.428571428571445 39.28571428571428  L 21.428571428571445 46.428571428571445  C 21.428571428571445 48.40066964285717  23.027901785714306 50  25 50  L 32.14285714285717 50  C 34.11495535714286 50  35.71428571428572 48.40066964285717  35.71428571428572 46.428571428571445  L 35.71428571428572 39.28571428571428  Z " stroke-width="0" stroke-dasharray="0" stroke="rgba(255, 255, 255, 0)" fill="none" class="stroke" mask="url(#Clip1626)" />
  </g>
</svg>