<?xml version="1.0" encoding="utf-8"?>
<svg version="1.1" xmlns:xlink="http://www.w3.org/1999/xlink" width="28px" height="26px" xmlns="http://www.w3.org/2000/svg">
  <defs>
    <pattern id="BGPattern" patternUnits="userSpaceOnUse" alignment="0 0" imageRepeat="None" />
    <mask fill="white" id="Clip3573">
      <path d="M 19.164599933558133 20.000000041563403  L 15.735799977669172 26  L 13.999999999999998 25.000000006927234  L 17.999999948540548 18.000000055417868  L 23.999999871351378 18.000000055417868  C 24.001134170262397 18.00000198866  24.00226847061285 18.00000295528159  24.003402771171338 18.00000295528159  C 25.106094488497526 18.00000295528159  26.00000274548535 17.10609469298606  26.00000274548535 16.003402969112503  C 26.00000274548535 16.00226866854867  26.00000177886377 16.00113436818871  26 16.000000069272335  L 26 4.000000152399139  C 26.000001778863773 3.9988658534813757  26.00000274548535 3.997731553124189  26.00000274548535 3.9965972525589697  C 26.00000274548535 2.8939055286854107  25.106094488497526 1.9999972663898842  24.003402771171338 1.9999972663898842  C 24.002268470613547 1.9999972663898842  24.001134170261707 1.9999982330114763  23.999999871351378 2  L 4.0000001286486215 2  C 3.998865829738288 1.9999982330114763  3.9977315293864475 1.9999972663898842  3.996597228828657 1.9999972663898842  C 2.893905511502472 1.9999972663898842  1.9999972545146414 2.8939055286854107  1.9999972545146414 3.9965972525589697  C 1.9999972545146414 3.9977315531234963  1.9999982211362273 3.9988658534820716  2 4.000000152399139  L 2 16.000000069272335  C 1.9999982211362273 16.0011343681894  1.9999972545146414 16.00226866854798  1.9999972545146414 16.003402969112503  C 1.9999972545146414 17.10609469298606  2.893905511502472 18.00000295528159  3.996597228828657 18.00000295528159  C 3.9977315293857547 18.00000295528159  3.998865829738983 18.00000198866  4.0000001286486215 18.000000055417868  L 13.000000012864861 18.000000055417868  L 13.000000012864861 20.000000041563403  L 4.000000128648622 20.000000041563407  C 1.790547695803184 20.000000102834846  0 18.20945251523668  0 16.000700130538934  L 0 4.000000152399139  C 0 3.9996000923786723  0 3.9992000323378645  0 3.9987999722993792  C 0 1.7903237299746328  1.7903237193443553 0  3.9987999485559893 0  C 3.9992000085960457 0  3.999600068626585 0  4.0000001286486215 0  L 23.999999871351378 0  C 24.000399931369472 0  24.000799991407895 0  24.00120005144401 0  C 26.209676280655646 0  28 1.7903237299746328  28 3.9987999722993792  C 28 3.9992000323378645  27.999999939963978 3.9996000923786723  28 4.000000152399139  L 28 16.000000069272335  C 27.99999988116337 18.20945251523668  26.20945230419681 20.000000102834846  24.000699932613816 20.000000102834846  L 19.164599933558133 20.000000041563403  Z " fill-rule="evenodd" />
    </mask>
  </defs>
  <g transform="matrix(1 0 0 1 -2 -4 )">
    <path d="M 19.164599933558133 20.000000041563403  L 15.735799977669172 26  L 13.999999999999998 25.000000006927234  L 17.999999948540548 18.000000055417868  L 23.999999871351378 18.000000055417868  C 24.001134170262397 18.00000198866  24.00226847061285 18.00000295528159  24.003402771171338 18.00000295528159  C 25.106094488497526 18.00000295528159  26.00000274548535 17.10609469298606  26.00000274548535 16.003402969112503  C 26.00000274548535 16.00226866854867  26.00000177886377 16.00113436818871  26 16.000000069272335  L 26 4.000000152399139  C 26.000001778863773 3.9988658534813757  26.00000274548535 3.997731553124189  26.00000274548535 3.9965972525589697  C 26.00000274548535 2.8939055286854107  25.106094488497526 1.9999972663898842  24.003402771171338 1.9999972663898842  C 24.002268470613547 1.9999972663898842  24.001134170261707 1.9999982330114763  23.999999871351378 2  L 4.0000001286486215 2  C 3.998865829738288 1.9999982330114763  3.9977315293864475 1.9999972663898842  3.996597228828657 1.9999972663898842  C 2.893905511502472 1.9999972663898842  1.9999972545146414 2.8939055286854107  1.9999972545146414 3.9965972525589697  C 1.9999972545146414 3.9977315531234963  1.9999982211362273 3.9988658534820716  2 4.000000152399139  L 2 16.000000069272335  C 1.9999982211362273 16.0011343681894  1.9999972545146414 16.00226866854798  1.9999972545146414 16.003402969112503  C 1.9999972545146414 17.10609469298606  2.893905511502472 18.00000295528159  3.996597228828657 18.00000295528159  C 3.9977315293857547 18.00000295528159  3.998865829738983 18.00000198866  4.0000001286486215 18.000000055417868  L 13.000000012864861 18.000000055417868  L 13.000000012864861 20.000000041563403  L 4.000000128648622 20.000000041563407  C 1.790547695803184 20.000000102834846  0 18.20945251523668  0 16.000700130538934  L 0 4.000000152399139  C 0 3.9996000923786723  0 3.9992000323378645  0 3.9987999722993792  C 0 1.7903237299746328  1.7903237193443553 0  3.9987999485559893 0  C 3.9992000085960457 0  3.999600068626585 0  4.0000001286486215 0  L 23.999999871351378 0  C 24.000399931369472 0  24.000799991407895 0  24.00120005144401 0  C 26.209676280655646 0  28 1.7903237299746328  28 3.9987999722993792  C 28 3.9992000323378645  27.999999939963978 3.9996000923786723  28 4.000000152399139  L 28 16.000000069272335  C 27.99999988116337 18.20945251523668  26.20945230419681 20.000000102834846  24.000699932613816 20.000000102834846  L 19.164599933558133 20.000000041563403  Z " fill-rule="nonzero" fill="rgba(0, 0, 0, 1)" stroke="none" transform="matrix(1 0 0 1 2 4 )" class="fill" />
    <path d="M 19.164599933558133 20.000000041563403  L 15.735799977669172 26  L 13.999999999999998 25.000000006927234  L 17.999999948540548 18.000000055417868  L 23.999999871351378 18.000000055417868  C 24.001134170262397 18.00000198866  24.00226847061285 18.00000295528159  24.003402771171338 18.00000295528159  C 25.106094488497526 18.00000295528159  26.00000274548535 17.10609469298606  26.00000274548535 16.003402969112503  C 26.00000274548535 16.00226866854867  26.00000177886377 16.00113436818871  26 16.000000069272335  L 26 4.000000152399139  C 26.000001778863773 3.9988658534813757  26.00000274548535 3.997731553124189  26.00000274548535 3.9965972525589697  C 26.00000274548535 2.8939055286854107  25.106094488497526 1.9999972663898842  24.003402771171338 1.9999972663898842  C 24.002268470613547 1.9999972663898842  24.001134170261707 1.9999982330114763  23.999999871351378 2  L 4.0000001286486215 2  C 3.998865829738288 1.9999982330114763  3.9977315293864475 1.9999972663898842  3.996597228828657 1.9999972663898842  C 2.893905511502472 1.9999972663898842  1.9999972545146414 2.8939055286854107  1.9999972545146414 3.9965972525589697  C 1.9999972545146414 3.9977315531234963  1.9999982211362273 3.9988658534820716  2 4.000000152399139  L 2 16.000000069272335  C 1.9999982211362273 16.0011343681894  1.9999972545146414 16.00226866854798  1.9999972545146414 16.003402969112503  C 1.9999972545146414 17.10609469298606  2.893905511502472 18.00000295528159  3.996597228828657 18.00000295528159  C 3.9977315293857547 18.00000295528159  3.998865829738983 18.00000198866  4.0000001286486215 18.000000055417868  L 13.000000012864861 18.000000055417868  L 13.000000012864861 20.000000041563403  L 4.000000128648622 20.000000041563407  C 1.790547695803184 20.000000102834846  0 18.20945251523668  0 16.000700130538934  L 0 4.000000152399139  C 0 3.9996000923786723  0 3.9992000323378645  0 3.9987999722993792  C 0 1.7903237299746328  1.7903237193443553 0  3.9987999485559893 0  C 3.9992000085960457 0  3.999600068626585 0  4.0000001286486215 0  L 23.999999871351378 0  C 24.000399931369472 0  24.000799991407895 0  24.00120005144401 0  C 26.209676280655646 0  28 1.7903237299746328  28 3.9987999722993792  C 28 3.9992000323378645  27.999999939963978 3.9996000923786723  28 4.000000152399139  L 28 16.000000069272335  C 27.99999988116337 18.20945251523668  26.20945230419681 20.000000102834846  24.000699932613816 20.000000102834846  L 19.164599933558133 20.000000041563403  Z " stroke-width="0" stroke-dasharray="0" stroke="rgba(255, 255, 255, 0)" fill="none" transform="matrix(1 0 0 1 2 4 )" class="stroke" mask="url(#Clip3573)" />
  </g>
</svg>