<?xml version="1.0" encoding="utf-8"?>
<svg version="1.1" xmlns:xlink="http://www.w3.org/1999/xlink" width="50px" height="44px" xmlns="http://www.w3.org/2000/svg">
  <defs>
    <pattern id="BGPattern" patternUnits="userSpaceOnUse" alignment="0 0" imageRepeat="None" />
    <mask fill="white" id="Clip1297">
      <path d="M 40.625 6.250000000000001  L 40.625 1.5625000000000002  C 40.625 0.69921875  39.92578125 0  39.0625 0  L 32.8125 0  C 31.949218750000004 0  31.25 0.69921875  31.25 1.5625000000000002  L 31.25 6.250000000000001  L 40.625 6.250000000000001  Z M 9.359375 9.375  C 7.637695312499999 9.375  6.2880859375 10.7783203125  6.2412109375 12.4990234375  C 5.99609375 21.6640625  0.337890625 23.654296875  0 36.328125  L 0 40.625  C 0 42.3505859375  1.3994140625 43.75  3.125 43.75  L 12.5 43.75  C 14.225585937499998 43.75  15.625 42.3505859375  16 40.625  L 16 25.000000000000004  L 19 25.000000000000004  L 19 9.375  L 9.359375 9.375  Z M 50 36.328125  C 49.662109375 23.654296875  44.00390625 21.6640625  43.7587890625 12.4990234375  C 43.7119140625 10.7783203125  42.3623046875 9.375  40.640625 9.375  L 31 9.375  L 31 25.000000000000004  L 34 25.000000000000004  L 34 40.625  C 34.375 42.3505859375  35.7744140625 43.75  37.5 43.75  L 46.875 43.75  C 48.6005859375 43.75  50 42.3505859375  50 40.625  L 50 36.328125  Z M 18.75 1.5625000000000002  C 18.75 0.69921875  18.05078125 0  17.1875 0  L 10.9375 0  C 10.07421875 0  9.375 0.69921875  9.375 1.5625000000000002  L 9.375 6.250000000000001  L 18.75 6.250000000000001  L 18.75 1.5625000000000002  Z M 22 9.375  L 22 25.000000000000004  L 28 25.000000000000004  L 28 9.375  L 22 9.375  Z " fill-rule="evenodd" />
    </mask>
  </defs>
  <g>
    <path d="M 40.625 6.250000000000001  L 40.625 1.5625000000000002  C 40.625 0.69921875  39.92578125 0  39.0625 0  L 32.8125 0  C 31.949218750000004 0  31.25 0.69921875  31.25 1.5625000000000002  L 31.25 6.250000000000001  L 40.625 6.250000000000001  Z M 9.359375 9.375  C 7.637695312499999 9.375  6.2880859375 10.7783203125  6.2412109375 12.4990234375  C 5.99609375 21.6640625  0.337890625 23.654296875  0 36.328125  L 0 40.625  C 0 42.3505859375  1.3994140625 43.75  3.125 43.75  L 12.5 43.75  C 14.225585937499998 43.75  15.625 42.3505859375  16 40.625  L 16 25.000000000000004  L 19 25.000000000000004  L 19 9.375  L 9.359375 9.375  Z M 50 36.328125  C 49.662109375 23.654296875  44.00390625 21.6640625  43.7587890625 12.4990234375  C 43.7119140625 10.7783203125  42.3623046875 9.375  40.640625 9.375  L 31 9.375  L 31 25.000000000000004  L 34 25.000000000000004  L 34 40.625  C 34.375 42.3505859375  35.7744140625 43.75  37.5 43.75  L 46.875 43.75  C 48.6005859375 43.75  50 42.3505859375  50 40.625  L 50 36.328125  Z M 18.75 1.5625000000000002  C 18.75 0.69921875  18.05078125 0  17.1875 0  L 10.9375 0  C 10.07421875 0  9.375 0.69921875  9.375 1.5625000000000002  L 9.375 6.250000000000001  L 18.75 6.250000000000001  L 18.75 1.5625000000000002  Z M 22 9.375  L 22 25.000000000000004  L 28 25.000000000000004  L 28 9.375  L 22 9.375  Z " fill-rule="nonzero" fill="rgba(0, 0, 0, 1)" stroke="none" class="fill" />
    <path d="M 40.625 6.250000000000001  L 40.625 1.5625000000000002  C 40.625 0.69921875  39.92578125 0  39.0625 0  L 32.8125 0  C 31.949218750000004 0  31.25 0.69921875  31.25 1.5625000000000002  L 31.25 6.250000000000001  L 40.625 6.250000000000001  Z " stroke-width="0" stroke-dasharray="0" stroke="rgba(255, 255, 255, 0)" fill="none" class="stroke" mask="url(#Clip1297)" />
    <path d="M 9.359375 9.375  C 7.637695312499999 9.375  6.2880859375 10.7783203125  6.2412109375 12.4990234375  C 5.99609375 21.6640625  0.337890625 23.654296875  0 36.328125  L 0 40.625  C 0 42.3505859375  1.3994140625 43.75  3.125 43.75  L 12.5 43.75  C 14.225585937499998 43.75  15.625 42.3505859375  16 40.625  L 16 25.000000000000004  L 19 25.000000000000004  L 19 9.375  L 9.359375 9.375  Z " stroke-width="0" stroke-dasharray="0" stroke="rgba(255, 255, 255, 0)" fill="none" class="stroke" mask="url(#Clip1297)" />
    <path d="M 50 36.328125  C 49.662109375 23.654296875  44.00390625 21.6640625  43.7587890625 12.4990234375  C 43.7119140625 10.7783203125  42.3623046875 9.375  40.640625 9.375  L 31 9.375  L 31 25.000000000000004  L 34 25.000000000000004  L 34 40.625  C 34.375 42.3505859375  35.7744140625 43.75  37.5 43.75  L 46.875 43.75  C 48.6005859375 43.75  50 42.3505859375  50 40.625  L 50 36.328125  Z " stroke-width="0" stroke-dasharray="0" stroke="rgba(255, 255, 255, 0)" fill="none" class="stroke" mask="url(#Clip1297)" />
    <path d="M 18.75 1.5625000000000002  C 18.75 0.69921875  18.05078125 0  17.1875 0  L 10.9375 0  C 10.07421875 0  9.375 0.69921875  9.375 1.5625000000000002  L 9.375 6.250000000000001  L 18.75 6.250000000000001  L 18.75 1.5625000000000002  Z " stroke-width="0" stroke-dasharray="0" stroke="rgba(255, 255, 255, 0)" fill="none" class="stroke" mask="url(#Clip1297)" />
    <path d="M 22 9.375  L 22 25.000000000000004  L 28 25.000000000000004  L 28 9.375  L 22 9.375  Z " stroke-width="0" stroke-dasharray="0" stroke="rgba(255, 255, 255, 0)" fill="none" class="stroke" mask="url(#Clip1297)" />
  </g>
</svg>