<?xml version="1.0" encoding="utf-8"?>
<svg version="1.1" xmlns:xlink="http://www.w3.org/1999/xlink" width="48px" height="48px" xmlns="http://www.w3.org/2000/svg">
  <defs>
    <pattern id="BGPattern" patternUnits="userSpaceOnUse" alignment="0 0" imageRepeat="None" />
    <mask fill="white" id="Clip6838">
      <path d="M 40.898 7.103999999999999  L 40.9 7.103999999999999  C 36.516 2.514  30.466 0.012  24 0.012  C 10.862 0.012  0.014000000000000002 10.856  0.014000000000000002 24  C 0.014000000000000002 37.144  10.86 47.988  24 47.988  C 37.14 47.988  47.99 37.144  47.99 24  C 47.99 17.534  45.488 11.484  40.898 7.103999999999999  Z M 37.141999999999996 26.293999999999997  C 37.141999999999996 33.593999999999994  31.302 39.43599999999999  24 39.644  C 16.7 39.644  10.86 33.804  10.86 26.503999999999998  C 10.86 20.453999999999997  15.03 16.281999999999996  18.576 12.735999999999997  C 21.080000000000002 10.231999999999998  23.376 7.935999999999997  24 5.225999999999997  C 24.626000000000005 7.729999999999997  26.92 10.023999999999997  29.424 12.525999999999996  C 32.97 16.073999999999998  37.141999999999996 20.245999999999995  37.141999999999996 26.293999999999997  Z " fill-rule="evenodd" />
    </mask>
  </defs>
  <g>
    <path d="M 40.898 7.103999999999999  L 40.9 7.103999999999999  C 36.516 2.514  30.466 0.012  24 0.012  C 10.862 0.012  0.014000000000000002 10.856  0.014000000000000002 24  C 0.014000000000000002 37.144  10.86 47.988  24 47.988  C 37.14 47.988  47.99 37.144  47.99 24  C 47.99 17.534  45.488 11.484  40.898 7.103999999999999  Z M 37.141999999999996 26.293999999999997  C 37.141999999999996 33.593999999999994  31.302 39.43599999999999  24 39.644  C 16.7 39.644  10.86 33.804  10.86 26.503999999999998  C 10.86 20.453999999999997  15.03 16.281999999999996  18.576 12.735999999999997  C 21.080000000000002 10.231999999999998  23.376 7.935999999999997  24 5.225999999999997  C 24.626000000000005 7.729999999999997  26.92 10.023999999999997  29.424 12.525999999999996  C 32.97 16.073999999999998  37.141999999999996 20.245999999999995  37.141999999999996 26.293999999999997  Z " fill-rule="nonzero" fill="rgba(6, 120, 190, 1)" stroke="none" class="fill" />
    <path d="M 40.898 7.103999999999999  L 40.9 7.103999999999999  C 36.516 2.514  30.466 0.012  24 0.012  C 10.862 0.012  0.014000000000000002 10.856  0.014000000000000002 24  C 0.014000000000000002 37.144  10.86 47.988  24 47.988  C 37.14 47.988  47.99 37.144  47.99 24  C 47.99 17.534  45.488 11.484  40.898 7.103999999999999  Z " stroke-width="0" stroke-dasharray="0" stroke="rgba(255, 255, 255, 0)" fill="none" class="stroke" mask="url(#Clip6838)" />
    <path d="M 37.141999999999996 26.293999999999997  C 37.141999999999996 33.593999999999994  31.302 39.43599999999999  24 39.644  C 16.7 39.644  10.86 33.804  10.86 26.503999999999998  C 10.86 20.453999999999997  15.03 16.281999999999996  18.576 12.735999999999997  C 21.080000000000002 10.231999999999998  23.376 7.935999999999997  24 5.225999999999997  C 24.626000000000005 7.729999999999997  26.92 10.023999999999997  29.424 12.525999999999996  C 32.97 16.073999999999998  37.141999999999996 20.245999999999995  37.141999999999996 26.293999999999997  Z " stroke-width="0" stroke-dasharray="0" stroke="rgba(255, 255, 255, 0)" fill="none" class="stroke" mask="url(#Clip6838)" />
  </g>
</svg>