<?xml version="1.0" encoding="utf-8"?>
<svg version="1.1" xmlns:xlink="http://www.w3.org/1999/xlink" width="25px" height="50px" xmlns="http://www.w3.org/2000/svg">
  <defs>
    <pattern id="BGPattern" patternUnits="userSpaceOnUse" alignment="0 0" imageRepeat="None" />
    <mask fill="white" id="Clip2059">
      <path d="M 21.875 29.233105468750008  L 21.875 9.375  C 21.875 4.197363281250006  17.677636718749994 0  12.5 0  C 7.322363281250005 0  3.125 4.197363281250006  3.125 9.375  L 3.125 29.233105468750008  C 1.19384765625 31.42148437500001  0.016210937500005684 34.290625000000006  0.00019531250001136866 37.43486328124999  C -0.03486328125001137 44.300390625000006  5.545800781249994 49.952050781249994  12.411230468750006 49.99970703125001  C 12.4404296875 49.999902343749994  12.470800781250006 50  12.5 50  C 19.40410156249999 50  25 44.403906250000006  25 37.5  C 25 34.330175781250006  23.81953125000001 31.436523437500004  21.875 29.233105468750008  Z M 20.3125 37.5  C 20.3125 41.80781250000001  16.80781250000001 45.3125  12.5 45.3125  L 12.443749999999994 45.31230468749999  C 8.160546874999994 45.282617187499994  4.665722656250011 41.743554687499994  4.687597656250006 37.45878906249999  C 4.704492187499994 34.14042968749999  6.5690429687500105 32.414648437500006  8 31.00566406249999  L 8 9.375  C 7.8125 6.790332031249989  9.915332031249989 4.6875  12.5 4.6875  C 15.084667968750013 4.6875  17.1875 6.790332031249989  17 9.375  L 17 31.00566406249999  C 18.4208984375 32.4033203125  20.3125 34.14667968750001  20.3125 37.5  Z M 15.625 32.08818359374999  C 17.492578124999994 33.169042968750006  18.75 35.18701171875  18.75 37.5  C 18.75 40.951757812500006  15.951757812500006 43.75  12.5 43.75  C 9.048242187499994 43.75  6.25 40.951757812500006  6.25 37.5  C 6.25 35.18701171875  7.507421875000006 33.169042968750006  9.375 32.08818359374999  L 9.375 9.375  C 9.375 7.649121093750011  10.774121093750011 6.25  12.5 6.25  C 14.225878906249989 6.25  15.625 7.649121093750011  15.625 9.375  L 15.625 32.08818359374999  Z " fill-rule="evenodd" />
    </mask>
  </defs>
  <g>
    <path d="M 21.875 29.233105468750008  L 21.875 9.375  C 21.875 4.197363281250006  17.677636718749994 0  12.5 0  C 7.322363281250005 0  3.125 4.197363281250006  3.125 9.375  L 3.125 29.233105468750008  C 1.19384765625 31.42148437500001  0.016210937500005684 34.290625000000006  0.00019531250001136866 37.43486328124999  C -0.03486328125001137 44.300390625000006  5.545800781249994 49.952050781249994  12.411230468750006 49.99970703125001  C 12.4404296875 49.999902343749994  12.470800781250006 50  12.5 50  C 19.40410156249999 50  25 44.403906250000006  25 37.5  C 25 34.330175781250006  23.81953125000001 31.436523437500004  21.875 29.233105468750008  Z M 20.3125 37.5  C 20.3125 41.80781250000001  16.80781250000001 45.3125  12.5 45.3125  L 12.443749999999994 45.31230468749999  C 8.160546874999994 45.282617187499994  4.665722656250011 41.743554687499994  4.687597656250006 37.45878906249999  C 4.704492187499994 34.14042968749999  6.5690429687500105 32.414648437500006  8 31.00566406249999  L 8 9.375  C 7.8125 6.790332031249989  9.915332031249989 4.6875  12.5 4.6875  C 15.084667968750013 4.6875  17.1875 6.790332031249989  17 9.375  L 17 31.00566406249999  C 18.4208984375 32.4033203125  20.3125 34.14667968750001  20.3125 37.5  Z M 15.625 32.08818359374999  C 17.492578124999994 33.169042968750006  18.75 35.18701171875  18.75 37.5  C 18.75 40.951757812500006  15.951757812500006 43.75  12.5 43.75  C 9.048242187499994 43.75  6.25 40.951757812500006  6.25 37.5  C 6.25 35.18701171875  7.507421875000006 33.169042968750006  9.375 32.08818359374999  L 9.375 9.375  C 9.375 7.649121093750011  10.774121093750011 6.25  12.5 6.25  C 14.225878906249989 6.25  15.625 7.649121093750011  15.625 9.375  L 15.625 32.08818359374999  Z " fill-rule="nonzero" fill="rgba(0, 0, 0, 1)" stroke="none" class="fill" />
    <path d="M 21.875 29.233105468750008  L 21.875 9.375  C 21.875 4.197363281250006  17.677636718749994 0  12.5 0  C 7.322363281250005 0  3.125 4.197363281250006  3.125 9.375  L 3.125 29.233105468750008  C 1.19384765625 31.42148437500001  0.016210937500005684 34.290625000000006  0.00019531250001136866 37.43486328124999  C -0.03486328125001137 44.300390625000006  5.545800781249994 49.952050781249994  12.411230468750006 49.99970703125001  C 12.4404296875 49.999902343749994  12.470800781250006 50  12.5 50  C 19.40410156249999 50  25 44.403906250000006  25 37.5  C 25 34.330175781250006  23.81953125000001 31.436523437500004  21.875 29.233105468750008  Z " stroke-width="0" stroke-dasharray="0" stroke="rgba(255, 255, 255, 0)" fill="none" class="stroke" mask="url(#Clip2059)" />
    <path d="M 20.3125 37.5  C 20.3125 41.80781250000001  16.80781250000001 45.3125  12.5 45.3125  L 12.443749999999994 45.31230468749999  C 8.160546874999994 45.282617187499994  4.665722656250011 41.743554687499994  4.687597656250006 37.45878906249999  C 4.704492187499994 34.14042968749999  6.5690429687500105 32.414648437500006  8 31.00566406249999  L 8 9.375  C 7.8125 6.790332031249989  9.915332031249989 4.6875  12.5 4.6875  C 15.084667968750013 4.6875  17.1875 6.790332031249989  17 9.375  L 17 31.00566406249999  C 18.4208984375 32.4033203125  20.3125 34.14667968750001  20.3125 37.5  Z " stroke-width="0" stroke-dasharray="0" stroke="rgba(255, 255, 255, 0)" fill="none" class="stroke" mask="url(#Clip2059)" />
    <path d="M 15.625 32.08818359374999  C 17.492578124999994 33.169042968750006  18.75 35.18701171875  18.75 37.5  C 18.75 40.951757812500006  15.951757812500006 43.75  12.5 43.75  C 9.048242187499994 43.75  6.25 40.951757812500006  6.25 37.5  C 6.25 35.18701171875  7.507421875000006 33.169042968750006  9.375 32.08818359374999  L 9.375 9.375  C 9.375 7.649121093750011  10.774121093750011 6.25  12.5 6.25  C 14.225878906249989 6.25  15.625 7.649121093750011  15.625 9.375  L 15.625 32.08818359374999  Z " stroke-width="0" stroke-dasharray="0" stroke="rgba(255, 255, 255, 0)" fill="none" class="stroke" mask="url(#Clip2059)" />
  </g>
</svg>