<?xml version="1.0" encoding="utf-8"?>
<svg version="1.1" xmlns:xlink="http://www.w3.org/1999/xlink" width="24px" height="22px" xmlns="http://www.w3.org/2000/svg">
  <defs>
    <pattern id="BGPattern" patternUnits="userSpaceOnUse" alignment="0 0" imageRepeat="None" />
    <mask fill="white" id="Clip4748">
      <path d="M 0 18.5  L 0 3.5  C 0 1.8431457505076194  1.3431457505076196 0.5  3 0.5  L 13.620000000000001 0.5  C 14.495929156961202 0.4996301882079637  15.328270146063328 0.8821015577887961  15.8985 1.5469999999999997  L 23.163 10.0235  C 23.644844540239703 10.585339415914437  23.644844540239703 11.414660584085563  23.163 11.9765  L 15.899999999999999 20.450000000000003  C 15.329991955151973 21.116413252968265  14.496935454634269 21.500057693996155  13.620000000000001 21.5  L 3 21.5  C 1.3431457505076196 21.5  0 20.15685424949238  0 18.5  Z M 11.5605 11  L 14.780999999999999 7.781000000000001  C 14.921829956104796 7.640170043895203  15.000947401620115 7.449163633911812  15.000947401620115 7.25  C 15.000947401620115 6.835263202160149  14.664736797839849 6.499052598379887  14.25 6.499052598379887  C 14.050836366088188 6.499052598379887  13.859829956104797 6.578170043895201  13.718999999999998 6.719  L 10.5 9.9395  L 7.281000000000001 6.719  C 7.140170043895202 6.578170043895201  6.949163633911813 6.499052598379887  6.75 6.499052598379887  C 6.335263202160151 6.499052598379887  5.999052598379887 6.83526320216015  5.999052598379887 7.25  C 5.999052598379887 7.449163633911812  6.078170043895201 7.6401700438952025  6.218999999999999 7.781000000000001  L 9.4395 11  L 6.219000000000001 14.219000000000001  C 6.078170043895204 14.359829956104798  5.999052598379888 14.550836366088191  5.999052598379888 14.75  C 5.999052598379888 15.16473679783985  6.335263202160153 15.500947401620117  6.750000000000002 15.500947401620117  C 6.949163633911814 15.500947401620117  7.140170043895203 15.421829956104798  7.2810000000000015 15.281  L 10.5 12.060500000000003  L 13.719000000000001 15.281  C 13.859829956104798 15.421829956104798  14.05083636608819 15.500947401620117  14.25 15.500947401620117  C 14.664736797839849 15.500947401620117  15.000947401620115 15.16473679783985  15.000947401620115 14.75  C 15.000947401620115 14.550836366088188  14.921829956104798 14.359829956104798  14.781000000000002 14.219000000000001  L 11.5605 11  Z " fill-rule="evenodd" />
    </mask>
  </defs>
  <g>
    <path d="M 0 18.5  L 0 3.5  C 0 1.8431457505076194  1.3431457505076196 0.5  3 0.5  L 13.620000000000001 0.5  C 14.495929156961202 0.4996301882079637  15.328270146063328 0.8821015577887961  15.8985 1.5469999999999997  L 23.163 10.0235  C 23.644844540239703 10.585339415914437  23.644844540239703 11.414660584085563  23.163 11.9765  L 15.899999999999999 20.450000000000003  C 15.329991955151973 21.116413252968265  14.496935454634269 21.500057693996155  13.620000000000001 21.5  L 3 21.5  C 1.3431457505076196 21.5  0 20.15685424949238  0 18.5  Z M 11.5605 11  L 14.780999999999999 7.781000000000001  C 14.921829956104796 7.640170043895203  15.000947401620115 7.449163633911812  15.000947401620115 7.25  C 15.000947401620115 6.835263202160149  14.664736797839849 6.499052598379887  14.25 6.499052598379887  C 14.050836366088188 6.499052598379887  13.859829956104797 6.578170043895201  13.718999999999998 6.719  L 10.5 9.9395  L 7.281000000000001 6.719  C 7.140170043895202 6.578170043895201  6.949163633911813 6.499052598379887  6.75 6.499052598379887  C 6.335263202160151 6.499052598379887  5.999052598379887 6.83526320216015  5.999052598379887 7.25  C 5.999052598379887 7.449163633911812  6.078170043895201 7.6401700438952025  6.218999999999999 7.781000000000001  L 9.4395 11  L 6.219000000000001 14.219000000000001  C 6.078170043895204 14.359829956104798  5.999052598379888 14.550836366088191  5.999052598379888 14.75  C 5.999052598379888 15.16473679783985  6.335263202160153 15.500947401620117  6.750000000000002 15.500947401620117  C 6.949163633911814 15.500947401620117  7.140170043895203 15.421829956104798  7.2810000000000015 15.281  L 10.5 12.060500000000003  L 13.719000000000001 15.281  C 13.859829956104798 15.421829956104798  14.05083636608819 15.500947401620117  14.25 15.500947401620117  C 14.664736797839849 15.500947401620117  15.000947401620115 15.16473679783985  15.000947401620115 14.75  C 15.000947401620115 14.550836366088188  14.921829956104798 14.359829956104798  14.781000000000002 14.219000000000001  L 11.5605 11  Z " fill-rule="nonzero" fill="rgba(0, 0, 0, 1)" stroke="none" class="fill" />
    <path d="M 0 18.5  L 0 3.5  C 0 1.8431457505076194  1.3431457505076196 0.5  3 0.5  L 13.620000000000001 0.5  C 14.495929156961202 0.4996301882079637  15.328270146063328 0.8821015577887961  15.8985 1.5469999999999997  L 23.163 10.0235  C 23.644844540239703 10.585339415914437  23.644844540239703 11.414660584085563  23.163 11.9765  L 15.899999999999999 20.450000000000003  C 15.329991955151973 21.116413252968265  14.496935454634269 21.500057693996155  13.620000000000001 21.5  L 3 21.5  C 1.3431457505076196 21.5  0 20.15685424949238  0 18.5  Z " stroke-width="0" stroke-dasharray="0" stroke="rgba(255, 255, 255, 0)" fill="none" class="stroke" mask="url(#Clip4748)" />
    <path d="M 11.5605 11  L 14.780999999999999 7.781000000000001  C 14.921829956104796 7.640170043895203  15.000947401620115 7.449163633911812  15.000947401620115 7.25  C 15.000947401620115 6.835263202160149  14.664736797839849 6.499052598379887  14.25 6.499052598379887  C 14.050836366088188 6.499052598379887  13.859829956104797 6.578170043895201  13.718999999999998 6.719  L 10.5 9.9395  L 7.281000000000001 6.719  C 7.140170043895202 6.578170043895201  6.949163633911813 6.499052598379887  6.75 6.499052598379887  C 6.335263202160151 6.499052598379887  5.999052598379887 6.83526320216015  5.999052598379887 7.25  C 5.999052598379887 7.449163633911812  6.078170043895201 7.6401700438952025  6.218999999999999 7.781000000000001  L 9.4395 11  L 6.219000000000001 14.219000000000001  C 6.078170043895204 14.359829956104798  5.999052598379888 14.550836366088191  5.999052598379888 14.75  C 5.999052598379888 15.16473679783985  6.335263202160153 15.500947401620117  6.750000000000002 15.500947401620117  C 6.949163633911814 15.500947401620117  7.140170043895203 15.421829956104798  7.2810000000000015 15.281  L 10.5 12.060500000000003  L 13.719000000000001 15.281  C 13.859829956104798 15.421829956104798  14.05083636608819 15.500947401620117  14.25 15.500947401620117  C 14.664736797839849 15.500947401620117  15.000947401620115 15.16473679783985  15.000947401620115 14.75  C 15.000947401620115 14.550836366088188  14.921829956104798 14.359829956104798  14.781000000000002 14.219000000000001  L 11.5605 11  Z " stroke-width="0" stroke-dasharray="0" stroke="rgba(255, 255, 255, 0)" fill="none" class="stroke" mask="url(#Clip4748)" />
  </g>
</svg>