<?xml version="1.0" encoding="utf-8"?>
<svg version="1.1" xmlns:xlink="http://www.w3.org/1999/xlink" width="50px" height="40px" xmlns="http://www.w3.org/2000/svg">
  <defs>
    <pattern id="BGPattern" patternUnits="userSpaceOnUse" alignment="0 0" imageRepeat="None" />
    <mask fill="white" id="Clip2118">
      <path d="M 49.66458658346335 37.47269890795633  C 50.08580343213731 36.94227769110768  49.984399375975045 36.15444617784715  49.43837753510138 35.733229329173184  L 30.390015600623997 21.006240249609988  C 33.83775351014043 19.0873634945398  36.19344773790954 15.452418096723875  36.19344773790954 11.232449297971925  C 36.19344773790954 5.031201248049911  31.162246489859623 0  24.96099843993761 0  C 19.726989079563168 0  15.366614664586592 3.5959438377535093  14.118564742589712 8.4399375975039  L 3.549141965678615 0.26521060842432576  C 3.0031201248049797 -0.15600624024961007  2.2230889235569293 -0.062402496099849714  1.7940717628705158 0.48361934477378554  L 0.26521060842432576 2.449297971918867  C -0.15600624024961007 2.995319812792502  -0.06240249609984972 3.7753510140405524  0.48361934477378554 4.196567862714517  L 46.38065522620906 39.66458658346335  C 46.926677067082665 40.08580343213731  47.706708268330715 39.99219968798755  48.13572542901716 39.446177847113916  L 49.66458658346335 37.47269890795633  Z M 19.173166926677084 24.96099843993761  L 15.475819032761306 24.96099843993761  C 9.68798751950078 24.96099843993761  4.992199687987522 29.65678627145087  4.992199687987522 35.4446177847114  L 4.992199687987522 36.19344773790954  C 4.992199687987522 38.260530421216856  6.669266770670816 39.93759750390018  8.736349453978164 40  L 38.54914196567864 40  L 19.173166926677084 24.96099843993761  Z " fill-rule="evenodd" />
    </mask>
  </defs>
  <g>
    <path d="M 49.66458658346335 37.47269890795633  C 50.08580343213731 36.94227769110768  49.984399375975045 36.15444617784715  49.43837753510138 35.733229329173184  L 30.390015600623997 21.006240249609988  C 33.83775351014043 19.0873634945398  36.19344773790954 15.452418096723875  36.19344773790954 11.232449297971925  C 36.19344773790954 5.031201248049911  31.162246489859623 0  24.96099843993761 0  C 19.726989079563168 0  15.366614664586592 3.5959438377535093  14.118564742589712 8.4399375975039  L 3.549141965678615 0.26521060842432576  C 3.0031201248049797 -0.15600624024961007  2.2230889235569293 -0.062402496099849714  1.7940717628705158 0.48361934477378554  L 0.26521060842432576 2.449297971918867  C -0.15600624024961007 2.995319812792502  -0.06240249609984972 3.7753510140405524  0.48361934477378554 4.196567862714517  L 46.38065522620906 39.66458658346335  C 46.926677067082665 40.08580343213731  47.706708268330715 39.99219968798755  48.13572542901716 39.446177847113916  L 49.66458658346335 37.47269890795633  Z M 19.173166926677084 24.96099843993761  L 15.475819032761306 24.96099843993761  C 9.68798751950078 24.96099843993761  4.992199687987522 29.65678627145087  4.992199687987522 35.4446177847114  L 4.992199687987522 36.19344773790954  C 4.992199687987522 38.260530421216856  6.669266770670816 39.93759750390018  8.736349453978164 40  L 38.54914196567864 40  L 19.173166926677084 24.96099843993761  Z " fill-rule="nonzero" fill="rgba(0, 0, 0, 1)" stroke="none" class="fill" />
    <path d="M 49.66458658346335 37.47269890795633  C 50.08580343213731 36.94227769110768  49.984399375975045 36.15444617784715  49.43837753510138 35.733229329173184  L 30.390015600623997 21.006240249609988  C 33.83775351014043 19.0873634945398  36.19344773790954 15.452418096723875  36.19344773790954 11.232449297971925  C 36.19344773790954 5.031201248049911  31.162246489859623 0  24.96099843993761 0  C 19.726989079563168 0  15.366614664586592 3.5959438377535093  14.118564742589712 8.4399375975039  L 3.549141965678615 0.26521060842432576  C 3.0031201248049797 -0.15600624024961007  2.2230889235569293 -0.062402496099849714  1.7940717628705158 0.48361934477378554  L 0.26521060842432576 2.449297971918867  C -0.15600624024961007 2.995319812792502  -0.06240249609984972 3.7753510140405524  0.48361934477378554 4.196567862714517  L 46.38065522620906 39.66458658346335  C 46.926677067082665 40.08580343213731  47.706708268330715 39.99219968798755  48.13572542901716 39.446177847113916  L 49.66458658346335 37.47269890795633  Z " stroke-width="0" stroke-dasharray="0" stroke="rgba(255, 255, 255, 0)" fill="none" class="stroke" mask="url(#Clip2118)" />
    <path d="M 19.173166926677084 24.96099843993761  L 15.475819032761306 24.96099843993761  C 9.68798751950078 24.96099843993761  4.992199687987522 29.65678627145087  4.992199687987522 35.4446177847114  L 4.992199687987522 36.19344773790954  C 4.992199687987522 38.260530421216856  6.669266770670816 39.93759750390018  8.736349453978164 40  L 38.54914196567864 40  L 19.173166926677084 24.96099843993761  Z " stroke-width="0" stroke-dasharray="0" stroke="rgba(255, 255, 255, 0)" fill="none" class="stroke" mask="url(#Clip2118)" />
  </g>
</svg>