<?xml version="1.0" encoding="utf-8"?>
<svg version="1.1" xmlns:xlink="http://www.w3.org/1999/xlink" width="28px" height="28px" xmlns="http://www.w3.org/2000/svg">
  <defs>
    <pattern id="BGPattern" patternUnits="userSpaceOnUse" alignment="0 0" imageRepeat="None" />
    <mask fill="white" id="Clip3768">
      <path d="M 28 14  C 28 6.268013502368892  21.73198649763111 0  14 0  C 6.268013502368892 0  0 6.268013502368892  0 14  C 0 21.73198649763111  6.268013502368892 28  14 28  C 21.73198649763111 28  28 21.73198649763111  28 14  Z M 6.000000000000001 13  L 6.000000000000001 11  L 12 11  L 12 13  L 6.000000000000001 13  Z M 20.85 18.11  C 19.407514501063893 20.518896540557655  16.807761460734863 21.995252646671513  14 22  C 11.192238539265137 21.995252646671513  8.59248549893611 20.518896540557655  7.150000000000001 18.11  L 8.86 17.11  C 9.945467170908966 18.912552784276087  11.895852781000674 20.014777875499078  14 20.014777875499078  C 16.104147218999326 20.014777875499078  18.054532829091038 18.912552784276087  19.14 17.11  L 20.85 18.11  Z M 18.5 14  C 17.119288125423015 14  16 12.880711874576981  16 11.5  C 16 10.119288125423015  17.119288125423015 9  18.5 9  C 19.88071187457698 9  21 10.119288125423015  21 11.5  C 21 12.880711874576981  19.88071187457698 14  18.5 14  Z " fill-rule="evenodd" />
    </mask>
  </defs>
  <g transform="matrix(1 0 0 1 -2 -2 )">
    <path d="M 28 14  C 28 6.268013502368892  21.73198649763111 0  14 0  C 6.268013502368892 0  0 6.268013502368892  0 14  C 0 21.73198649763111  6.268013502368892 28  14 28  C 21.73198649763111 28  28 21.73198649763111  28 14  Z M 6.000000000000001 13  L 6.000000000000001 11  L 12 11  L 12 13  L 6.000000000000001 13  Z M 20.85 18.11  C 19.407514501063893 20.518896540557655  16.807761460734863 21.995252646671513  14 22  C 11.192238539265137 21.995252646671513  8.59248549893611 20.518896540557655  7.150000000000001 18.11  L 8.86 17.11  C 9.945467170908966 18.912552784276087  11.895852781000674 20.014777875499078  14 20.014777875499078  C 16.104147218999326 20.014777875499078  18.054532829091038 18.912552784276087  19.14 17.11  L 20.85 18.11  Z M 18.5 14  C 17.119288125423015 14  16 12.880711874576981  16 11.5  C 16 10.119288125423015  17.119288125423015 9  18.5 9  C 19.88071187457698 9  21 10.119288125423015  21 11.5  C 21 12.880711874576981  19.88071187457698 14  18.5 14  Z " fill-rule="nonzero" fill="rgba(0, 0, 0, 1)" stroke="none" transform="matrix(1 0 0 1 2 2 )" class="fill" />
    <path d="M 28 14  C 28 6.268013502368892  21.73198649763111 0  14 0  C 6.268013502368892 0  0 6.268013502368892  0 14  C 0 21.73198649763111  6.268013502368892 28  14 28  C 21.73198649763111 28  28 21.73198649763111  28 14  Z " stroke-width="0" stroke-dasharray="0" stroke="rgba(255, 255, 255, 0)" fill="none" transform="matrix(1 0 0 1 2 2 )" class="stroke" mask="url(#Clip3768)" />
    <path d="M 6.000000000000001 13  L 6.000000000000001 11  L 12 11  L 12 13  L 6.000000000000001 13  Z " stroke-width="0" stroke-dasharray="0" stroke="rgba(255, 255, 255, 0)" fill="none" transform="matrix(1 0 0 1 2 2 )" class="stroke" mask="url(#Clip3768)" />
    <path d="M 20.85 18.11  C 19.407514501063893 20.518896540557655  16.807761460734863 21.995252646671513  14 22  C 11.192238539265137 21.995252646671513  8.59248549893611 20.518896540557655  7.150000000000001 18.11  L 8.86 17.11  C 9.945467170908966 18.912552784276087  11.895852781000674 20.014777875499078  14 20.014777875499078  C 16.104147218999326 20.014777875499078  18.054532829091038 18.912552784276087  19.14 17.11  L 20.85 18.11  Z " stroke-width="0" stroke-dasharray="0" stroke="rgba(255, 255, 255, 0)" fill="none" transform="matrix(1 0 0 1 2 2 )" class="stroke" mask="url(#Clip3768)" />
    <path d="M 18.5 14  C 17.119288125423015 14  16 12.880711874576981  16 11.5  C 16 10.119288125423015  17.119288125423015 9  18.5 9  C 19.88071187457698 9  21 10.119288125423015  21 11.5  C 21 12.880711874576981  19.88071187457698 14  18.5 14  Z " stroke-width="0" stroke-dasharray="0" stroke="rgba(255, 255, 255, 0)" fill="none" transform="matrix(1 0 0 1 2 2 )" class="stroke" mask="url(#Clip3768)" />
  </g>
</svg>