<?xml version="1.0" encoding="utf-8"?>
<svg version="1.1" xmlns:xlink="http://www.w3.org/1999/xlink" width="48px" height="48px" xmlns="http://www.w3.org/2000/svg">
  <defs>
    <pattern id="BGPattern" patternUnits="userSpaceOnUse" alignment="0 0" imageRepeat="None" />
    <mask fill="white" id="Clip7028">
      <path d="M 33.894 0.1439999999999999  C 31.334 0.024  30.520000000000003 0  24 0  C 17.48 0  16.666 0.03  14.106 0.144  C 11.55 0.264  9.81 0.666  8.28 1.26  C 6.701999999999998 1.8719999999999999  5.361999999999999 2.694  4.028 4.028  C 2.694 5.361999999999999  1.87 6.7  1.26 8.28  C 0.666 9.81  0.262 11.55  0.144 14.106  C 0.024 16.666  0 17.48  0 24  C 0 30.520000000000003  0.03 31.334  0.144 33.894  C 0.264 36.448  0.666 38.19  1.26 39.72  C 1.8719999999999999 41.296  2.694 42.638  4.028 43.972  C 5.362 45.304  6.699999999999999 46.13  8.28 46.74  C 9.812 47.332  11.552 47.738  14.105999999999998 47.856  C 16.666 47.976  17.48 48  24 48  C 30.520000000000003 48  31.334 47.97  33.894 47.856  C 36.448 47.736000000000004  38.19 47.332  39.72 46.74  C 41.296 46.128  42.638 45.304  43.972 43.972  C 45.304 42.638  46.13 41.302  46.74 39.72  C 47.332 38.19  47.738 36.448  47.856 33.894  C 47.976 31.334  48 30.520000000000003  48 24  C 48 17.48  47.97 16.666  47.856 14.106  C 47.736000000000004 11.552  47.332 9.808  46.74 8.280000000000001  C 46.128 6.702000000000002  45.304 5.362000000000001  43.972 4.028000000000001  C 42.638 2.694  41.302 1.87  39.72 1.26  C 38.19 0.666  36.448 0.262  33.894 0.1439999999999999  Z M 23.910000000000007 4.260000000000006  L 24 4.32  C 30.406 4.32  31.17 4.352  33.7 4.462000000000001  C 36.040000000000006 4.572000000000001  37.31 4.960000000000001  38.154 5.292000000000001  C 39.278000000000006 5.726000000000001  40.074000000000005 6.246  40.918000000000006 7.0840000000000005  C 41.75600000000001 7.9239999999999995  42.276 8.722000000000001  42.71000000000001 9.846  C 43.03800000000001 10.69  43.43000000000001 11.96  43.53600000000001 14.3  C 43.650000000000006 16.832  43.67600000000001 17.592  43.67600000000001 24  C 43.67600000000001 30.408  43.64600000000001 31.17  43.528000000000006 33.7  C 43.406000000000006 36.040000000000006  43.016000000000005 37.31  42.68600000000001 38.154  C 42.23800000000001 39.278000000000006  41.72800000000001 40.074000000000005  40.888000000000005 40.918000000000006  C 40.050000000000004 41.75600000000001  39.24 42.276  38.12800000000001 42.71000000000001  C 37.288000000000004 43.03800000000001  35.998000000000005 43.43000000000001  33.65800000000001 43.53600000000001  C 31.110000000000007 43.650000000000006  30.360000000000007 43.67600000000001  23.94000000000001 43.67600000000001  C 17.518000000000008 43.67600000000001  16.768000000000008 43.64600000000001  14.222000000000008 43.528000000000006  C 11.880000000000008 43.406000000000006  10.590000000000009 43.016000000000005  9.750000000000007 42.68600000000001  C 8.612000000000007 42.23800000000001  7.830000000000007 41.72800000000001  6.992000000000006 40.888000000000005  C 6.1500000000000075 40.050000000000004  5.612000000000007 39.24  5.192000000000007 38.12800000000001  C 4.862000000000007 37.288000000000004  4.474000000000007 35.998000000000005  4.352000000000007 33.65800000000001  C 4.262000000000008 31.138000000000012  4.2300000000000075 30.360000000000007  4.2300000000000075 23.970000000000006  C 4.2300000000000075 17.578000000000007  4.262000000000008 16.798000000000005  4.352000000000007 14.248000000000005  C 4.474000000000007 11.908000000000007  4.862000000000007 10.620000000000006  5.192000000000007 9.780000000000006  C 5.612000000000007 8.640000000000006  6.1500000000000075 7.8600000000000065  6.992000000000006 7.018000000000006  C 7.830000000000007 6.180000000000005  8.612000000000007 5.640000000000006  9.750000000000007 5.222000000000006  C 10.590000000000007 4.890000000000006  11.852000000000007 4.500000000000005  14.192000000000007 4.380000000000006  C 16.742000000000008 4.290000000000006  17.492000000000008 4.260000000000006  23.910000000000007 4.260000000000006  Z M 36.324 24  C 36.324 17.19  30.803999999999995 11.676  24 11.676  C 17.19 11.676  11.676 17.195999999999998  11.676 24  C 11.676 30.81  17.195999999999998 36.324  24 36.324  C 30.81 36.324  36.324 30.803999999999995  36.324 24  Z M 32 24  C 32 28.42  28.42 32  24 32  C 19.58 32  16 28.42  16 24  C 16 19.58  19.58 16  24 16  C 28.42 16  32 19.58  32 24  Z M 36.812 8.312000000000001  C 38.397999999999996 8.31  39.692 9.602  39.692 11.190000000000001  C 39.692 12.780000000000001  38.4 14.07  36.812 14.07  C 35.221999999999994 14.07  33.931999999999995 12.777999999999999  33.931999999999995 11.190000000000001  C 33.931999999999995 9.602  35.224 8.312000000000001  36.812 8.312000000000001  Z " fill-rule="evenodd" />
    </mask>
  </defs>
  <g>
    <path d="M 33.894 0.1439999999999999  C 31.334 0.024  30.520000000000003 0  24 0  C 17.48 0  16.666 0.03  14.106 0.144  C 11.55 0.264  9.81 0.666  8.28 1.26  C 6.701999999999998 1.8719999999999999  5.361999999999999 2.694  4.028 4.028  C 2.694 5.361999999999999  1.87 6.7  1.26 8.28  C 0.666 9.81  0.262 11.55  0.144 14.106  C 0.024 16.666  0 17.48  0 24  C 0 30.520000000000003  0.03 31.334  0.144 33.894  C 0.264 36.448  0.666 38.19  1.26 39.72  C 1.8719999999999999 41.296  2.694 42.638  4.028 43.972  C 5.362 45.304  6.699999999999999 46.13  8.28 46.74  C 9.812 47.332  11.552 47.738  14.105999999999998 47.856  C 16.666 47.976  17.48 48  24 48  C 30.520000000000003 48  31.334 47.97  33.894 47.856  C 36.448 47.736000000000004  38.19 47.332  39.72 46.74  C 41.296 46.128  42.638 45.304  43.972 43.972  C 45.304 42.638  46.13 41.302  46.74 39.72  C 47.332 38.19  47.738 36.448  47.856 33.894  C 47.976 31.334  48 30.520000000000003  48 24  C 48 17.48  47.97 16.666  47.856 14.106  C 47.736000000000004 11.552  47.332 9.808  46.74 8.280000000000001  C 46.128 6.702000000000002  45.304 5.362000000000001  43.972 4.028000000000001  C 42.638 2.694  41.302 1.87  39.72 1.26  C 38.19 0.666  36.448 0.262  33.894 0.1439999999999999  Z M 23.910000000000007 4.260000000000006  L 24 4.32  C 30.406 4.32  31.17 4.352  33.7 4.462000000000001  C 36.040000000000006 4.572000000000001  37.31 4.960000000000001  38.154 5.292000000000001  C 39.278000000000006 5.726000000000001  40.074000000000005 6.246  40.918000000000006 7.0840000000000005  C 41.75600000000001 7.9239999999999995  42.276 8.722000000000001  42.71000000000001 9.846  C 43.03800000000001 10.69  43.43000000000001 11.96  43.53600000000001 14.3  C 43.650000000000006 16.832  43.67600000000001 17.592  43.67600000000001 24  C 43.67600000000001 30.408  43.64600000000001 31.17  43.528000000000006 33.7  C 43.406000000000006 36.040000000000006  43.016000000000005 37.31  42.68600000000001 38.154  C 42.23800000000001 39.278000000000006  41.72800000000001 40.074000000000005  40.888000000000005 40.918000000000006  C 40.050000000000004 41.75600000000001  39.24 42.276  38.12800000000001 42.71000000000001  C 37.288000000000004 43.03800000000001  35.998000000000005 43.43000000000001  33.65800000000001 43.53600000000001  C 31.110000000000007 43.650000000000006  30.360000000000007 43.67600000000001  23.94000000000001 43.67600000000001  C 17.518000000000008 43.67600000000001  16.768000000000008 43.64600000000001  14.222000000000008 43.528000000000006  C 11.880000000000008 43.406000000000006  10.590000000000009 43.016000000000005  9.750000000000007 42.68600000000001  C 8.612000000000007 42.23800000000001  7.830000000000007 41.72800000000001  6.992000000000006 40.888000000000005  C 6.1500000000000075 40.050000000000004  5.612000000000007 39.24  5.192000000000007 38.12800000000001  C 4.862000000000007 37.288000000000004  4.474000000000007 35.998000000000005  4.352000000000007 33.65800000000001  C 4.262000000000008 31.138000000000012  4.2300000000000075 30.360000000000007  4.2300000000000075 23.970000000000006  C 4.2300000000000075 17.578000000000007  4.262000000000008 16.798000000000005  4.352000000000007 14.248000000000005  C 4.474000000000007 11.908000000000007  4.862000000000007 10.620000000000006  5.192000000000007 9.780000000000006  C 5.612000000000007 8.640000000000006  6.1500000000000075 7.8600000000000065  6.992000000000006 7.018000000000006  C 7.830000000000007 6.180000000000005  8.612000000000007 5.640000000000006  9.750000000000007 5.222000000000006  C 10.590000000000007 4.890000000000006  11.852000000000007 4.500000000000005  14.192000000000007 4.380000000000006  C 16.742000000000008 4.290000000000006  17.492000000000008 4.260000000000006  23.910000000000007 4.260000000000006  Z M 36.324 24  C 36.324 17.19  30.803999999999995 11.676  24 11.676  C 17.19 11.676  11.676 17.195999999999998  11.676 24  C 11.676 30.81  17.195999999999998 36.324  24 36.324  C 30.81 36.324  36.324 30.803999999999995  36.324 24  Z M 32 24  C 32 28.42  28.42 32  24 32  C 19.58 32  16 28.42  16 24  C 16 19.58  19.58 16  24 16  C 28.42 16  32 19.58  32 24  Z M 36.812 8.312000000000001  C 38.397999999999996 8.31  39.692 9.602  39.692 11.190000000000001  C 39.692 12.780000000000001  38.4 14.07  36.812 14.07  C 35.221999999999994 14.07  33.931999999999995 12.777999999999999  33.931999999999995 11.190000000000001  C 33.931999999999995 9.602  35.224 8.312000000000001  36.812 8.312000000000001  Z " fill-rule="nonzero" fill="rgba(228, 64, 95, 1)" stroke="none" class="fill" />
    <path d="M 33.894 0.1439999999999999  C 31.334 0.024  30.520000000000003 0  24 0  C 17.48 0  16.666 0.03  14.106 0.144  C 11.55 0.264  9.81 0.666  8.28 1.26  C 6.701999999999998 1.8719999999999999  5.361999999999999 2.694  4.028 4.028  C 2.694 5.361999999999999  1.87 6.7  1.26 8.28  C 0.666 9.81  0.262 11.55  0.144 14.106  C 0.024 16.666  0 17.48  0 24  C 0 30.520000000000003  0.03 31.334  0.144 33.894  C 0.264 36.448  0.666 38.19  1.26 39.72  C 1.8719999999999999 41.296  2.694 42.638  4.028 43.972  C 5.362 45.304  6.699999999999999 46.13  8.28 46.74  C 9.812 47.332  11.552 47.738  14.105999999999998 47.856  C 16.666 47.976  17.48 48  24 48  C 30.520000000000003 48  31.334 47.97  33.894 47.856  C 36.448 47.736000000000004  38.19 47.332  39.72 46.74  C 41.296 46.128  42.638 45.304  43.972 43.972  C 45.304 42.638  46.13 41.302  46.74 39.72  C 47.332 38.19  47.738 36.448  47.856 33.894  C 47.976 31.334  48 30.520000000000003  48 24  C 48 17.48  47.97 16.666  47.856 14.106  C 47.736000000000004 11.552  47.332 9.808  46.74 8.280000000000001  C 46.128 6.702000000000002  45.304 5.362000000000001  43.972 4.028000000000001  C 42.638 2.694  41.302 1.87  39.72 1.26  C 38.19 0.666  36.448 0.262  33.894 0.1439999999999999  Z " stroke-width="0" stroke-dasharray="0" stroke="rgba(255, 255, 255, 0)" fill="none" class="stroke" mask="url(#Clip7028)" />
    <path d="M 23.910000000000007 4.260000000000006  L 24 4.32  C 30.406 4.32  31.17 4.352  33.7 4.462000000000001  C 36.040000000000006 4.572000000000001  37.31 4.960000000000001  38.154 5.292000000000001  C 39.278000000000006 5.726000000000001  40.074000000000005 6.246  40.918000000000006 7.0840000000000005  C 41.75600000000001 7.9239999999999995  42.276 8.722000000000001  42.71000000000001 9.846  C 43.03800000000001 10.69  43.43000000000001 11.96  43.53600000000001 14.3  C 43.650000000000006 16.832  43.67600000000001 17.592  43.67600000000001 24  C 43.67600000000001 30.408  43.64600000000001 31.17  43.528000000000006 33.7  C 43.406000000000006 36.040000000000006  43.016000000000005 37.31  42.68600000000001 38.154  C 42.23800000000001 39.278000000000006  41.72800000000001 40.074000000000005  40.888000000000005 40.918000000000006  C 40.050000000000004 41.75600000000001  39.24 42.276  38.12800000000001 42.71000000000001  C 37.288000000000004 43.03800000000001  35.998000000000005 43.43000000000001  33.65800000000001 43.53600000000001  C 31.110000000000007 43.650000000000006  30.360000000000007 43.67600000000001  23.94000000000001 43.67600000000001  C 17.518000000000008 43.67600000000001  16.768000000000008 43.64600000000001  14.222000000000008 43.528000000000006  C 11.880000000000008 43.406000000000006  10.590000000000009 43.016000000000005  9.750000000000007 42.68600000000001  C 8.612000000000007 42.23800000000001  7.830000000000007 41.72800000000001  6.992000000000006 40.888000000000005  C 6.1500000000000075 40.050000000000004  5.612000000000007 39.24  5.192000000000007 38.12800000000001  C 4.862000000000007 37.288000000000004  4.474000000000007 35.998000000000005  4.352000000000007 33.65800000000001  C 4.262000000000008 31.138000000000012  4.2300000000000075 30.360000000000007  4.2300000000000075 23.970000000000006  C 4.2300000000000075 17.578000000000007  4.262000000000008 16.798000000000005  4.352000000000007 14.248000000000005  C 4.474000000000007 11.908000000000007  4.862000000000007 10.620000000000006  5.192000000000007 9.780000000000006  C 5.612000000000007 8.640000000000006  6.1500000000000075 7.8600000000000065  6.992000000000006 7.018000000000006  C 7.830000000000007 6.180000000000005  8.612000000000007 5.640000000000006  9.750000000000007 5.222000000000006  C 10.590000000000007 4.890000000000006  11.852000000000007 4.500000000000005  14.192000000000007 4.380000000000006  C 16.742000000000008 4.290000000000006  17.492000000000008 4.260000000000006  23.910000000000007 4.260000000000006  Z " stroke-width="0" stroke-dasharray="0" stroke="rgba(255, 255, 255, 0)" fill="none" class="stroke" mask="url(#Clip7028)" />
    <path d="M 36.324 24  C 36.324 17.19  30.803999999999995 11.676  24 11.676  C 17.19 11.676  11.676 17.195999999999998  11.676 24  C 11.676 30.81  17.195999999999998 36.324  24 36.324  C 30.81 36.324  36.324 30.803999999999995  36.324 24  Z " stroke-width="0" stroke-dasharray="0" stroke="rgba(255, 255, 255, 0)" fill="none" class="stroke" mask="url(#Clip7028)" />
    <path d="M 32 24  C 32 28.42  28.42 32  24 32  C 19.58 32  16 28.42  16 24  C 16 19.58  19.58 16  24 16  C 28.42 16  32 19.58  32 24  Z " stroke-width="0" stroke-dasharray="0" stroke="rgba(255, 255, 255, 0)" fill="none" class="stroke" mask="url(#Clip7028)" />
    <path d="M 36.812 8.312000000000001  C 38.397999999999996 8.31  39.692 9.602  39.692 11.190000000000001  C 39.692 12.780000000000001  38.4 14.07  36.812 14.07  C 35.221999999999994 14.07  33.931999999999995 12.777999999999999  33.931999999999995 11.190000000000001  C 33.931999999999995 9.602  35.224 8.312000000000001  36.812 8.312000000000001  Z " stroke-width="0" stroke-dasharray="0" stroke="rgba(255, 255, 255, 0)" fill="none" class="stroke" mask="url(#Clip7028)" />
  </g>
</svg>