<?xml version="1.0" encoding="utf-8"?>
<svg version="1.1" xmlns:xlink="http://www.w3.org/1999/xlink" width="30px" height="26px" xmlns="http://www.w3.org/2000/svg">
  <defs>
    <pattern id="BGPattern" patternUnits="userSpaceOnUse" alignment="0 0" imageRepeat="None" />
    <mask fill="white" id="Clip2877">
      <path d="M 29 0.9937499999999986  C 29.125 0.71875  28.9 0.4937499999999986  28.625 0.4937499999999986  L 25.475 0.4937499999999986  C 25.200000000000003 0.4937499999999986  24.975 0.71875  25 0.9937499999999986  L 25 25.006249999999994  C 24.975 25.281249999999993  25.200000000000003 25.506249999999994  25.475 25.506249999999994  L 28.625 25.506249999999994  C 28.9 25.506249999999994  29.125 25.281249999999993  29 25.006249999999994  L 29 0.9937499999999986  Z M 5.056249999999999 11.518749999999994  C 5.0625 6.4312499999999915  7.21875 3.593749999999993  11.037500000000001 3.59375  C 14.131250000000001 3.59375  16.231250000000003 5.5625  16.475 8.443750000000001  C 16.5 8.70625  16.7125 8.90625  16.975 8.90625  L 20.262500000000003 8.90625  C 20.4125 8.90625  20.5375 8.78125  20.5375 8.631250000000001  C 20.5375 3.5562500000000017  16.5375 0  11.01875 0  C 4.587499999999999 0  0.875 4.34375  0.875 11.524999999999999  L 0.875 14.587499999999997  C 0.875 21.7125  4.587499999999999 26  11.01875 26  C 16.518749999999997 26  20.5375 22.55625  20.5375 17.71875  C 20.5375 17.56875  20.4125 17.44375  20.262500000000003 17.44375  L 16.96875 17.44375  C 16.706249999999997 17.44375  16.49375 17.643750000000004  16.46875 17.9  C 16.206249999999997 20.5875  14.1125 22.424999999999997  11.03125 22.424999999999997  C 7.212499999999999 22.424999999999997  5.056249999999999 19.61875  5.056249999999999 14.599999999999994  L 5.056249999999999 11.518749999999994  Z " fill-rule="evenodd" />
    </mask>
  </defs>
  <g transform="matrix(1 0 0 1 -13 -15 )">
    <path d="M 29 0.9937499999999986  C 29.125 0.71875  28.9 0.4937499999999986  28.625 0.4937499999999986  L 25.475 0.4937499999999986  C 25.200000000000003 0.4937499999999986  24.975 0.71875  25 0.9937499999999986  L 25 25.006249999999994  C 24.975 25.281249999999993  25.200000000000003 25.506249999999994  25.475 25.506249999999994  L 28.625 25.506249999999994  C 28.9 25.506249999999994  29.125 25.281249999999993  29 25.006249999999994  L 29 0.9937499999999986  Z M 5.056249999999999 11.518749999999994  C 5.0625 6.4312499999999915  7.21875 3.593749999999993  11.037500000000001 3.59375  C 14.131250000000001 3.59375  16.231250000000003 5.5625  16.475 8.443750000000001  C 16.5 8.70625  16.7125 8.90625  16.975 8.90625  L 20.262500000000003 8.90625  C 20.4125 8.90625  20.5375 8.78125  20.5375 8.631250000000001  C 20.5375 3.5562500000000017  16.5375 0  11.01875 0  C 4.587499999999999 0  0.875 4.34375  0.875 11.524999999999999  L 0.875 14.587499999999997  C 0.875 21.7125  4.587499999999999 26  11.01875 26  C 16.518749999999997 26  20.5375 22.55625  20.5375 17.71875  C 20.5375 17.56875  20.4125 17.44375  20.262500000000003 17.44375  L 16.96875 17.44375  C 16.706249999999997 17.44375  16.49375 17.643750000000004  16.46875 17.9  C 16.206249999999997 20.5875  14.1125 22.424999999999997  11.03125 22.424999999999997  C 7.212499999999999 22.424999999999997  5.056249999999999 19.61875  5.056249999999999 14.599999999999994  L 5.056249999999999 11.518749999999994  Z " fill-rule="nonzero" fill="rgba(51, 51, 51, 1)" stroke="none" transform="matrix(1 0 0 1 13 15 )" class="fill" />
    <path d="M 29 0.9937499999999986  C 29.125 0.71875  28.9 0.4937499999999986  28.625 0.4937499999999986  L 25.475 0.4937499999999986  C 25.200000000000003 0.4937499999999986  24.975 0.71875  25 0.9937499999999986  L 25 25.006249999999994  C 24.975 25.281249999999993  25.200000000000003 25.506249999999994  25.475 25.506249999999994  L 28.625 25.506249999999994  C 28.9 25.506249999999994  29.125 25.281249999999993  29 25.006249999999994  L 29 0.9937499999999986  Z " stroke-width="0" stroke-dasharray="0" stroke="rgba(255, 255, 255, 0)" fill="none" transform="matrix(1 0 0 1 13 15 )" class="stroke" mask="url(#Clip2877)" />
    <path d="M 5.056249999999999 11.518749999999994  C 5.0625 6.4312499999999915  7.21875 3.593749999999993  11.037500000000001 3.59375  C 14.131250000000001 3.59375  16.231250000000003 5.5625  16.475 8.443750000000001  C 16.5 8.70625  16.7125 8.90625  16.975 8.90625  L 20.262500000000003 8.90625  C 20.4125 8.90625  20.5375 8.78125  20.5375 8.631250000000001  C 20.5375 3.5562500000000017  16.5375 0  11.01875 0  C 4.587499999999999 0  0.875 4.34375  0.875 11.524999999999999  L 0.875 14.587499999999997  C 0.875 21.7125  4.587499999999999 26  11.01875 26  C 16.518749999999997 26  20.5375 22.55625  20.5375 17.71875  C 20.5375 17.56875  20.4125 17.44375  20.262500000000003 17.44375  L 16.96875 17.44375  C 16.706249999999997 17.44375  16.49375 17.643750000000004  16.46875 17.9  C 16.206249999999997 20.5875  14.1125 22.424999999999997  11.03125 22.424999999999997  C 7.212499999999999 22.424999999999997  5.056249999999999 19.61875  5.056249999999999 14.599999999999994  L 5.056249999999999 11.518749999999994  Z " stroke-width="0" stroke-dasharray="0" stroke="rgba(255, 255, 255, 0)" fill="none" transform="matrix(1 0 0 1 13 15 )" class="stroke" mask="url(#Clip2877)" />
  </g>
</svg>