<?xml version="1.0" encoding="utf-8"?>
<svg version="1.1" xmlns:xlink="http://www.w3.org/1999/xlink" width="29px" height="28px" xmlns="http://www.w3.org/2000/svg">
  <defs>
    <pattern id="BGPattern" patternUnits="userSpaceOnUse" alignment="0 0" imageRepeat="None" />
    <mask fill="white" id="Clip4470">
      <path d="M 29 6  C 29 4.8954305003384135  28.104569499661586 4  27 4  L 15.24 4  C 13.722265638942995 2.0915725943083223  11.417022222272509 0.9795195725554818  8.978659502427863 0.9795195725554818  C 4.560381503781516 0.9795195725554818  0.9786595024278631 4.561241573909134  0.9786595024278631 8.979519572555482  C 0.9786595024278631 11.846442004095067  2.512772622112233 14.494186478128931  5 15.920000000000002  L 5 26  C 5 27.104569499661586  5.8954305003384135 28  7 28  L 27 28  C 28.104569499661586 28  29 27.104569499661586  29 26  L 29 6  Z M 8.999990610183058 14.989385024017192  C 5.690426760296998 14.989385024017192  3.0058551567966854 12.30955867051961  3 9  C 3.005855156796688 5.690441329480391  5.690426760297001 3.010614975982813  8.999990610183058 3.010614975982813  C 11.139203113944177 3.010614975982813  13.116609133227847 4.149577836444331  14.19 6  L 7 6  L 7 8  L 14.909999999999998 8  C 14.96519497674763 8.330584199529664  14.995280965698479 8.664872965650185  14.999999999999998 8.999999999999998  C 14.995280965698479 9.335127034349824  14.965194976747634 9.669415800470322  14.910000000000002 10  L 9 10  L 9 12  L 14.190000000000001 12  C 13.116609133227849 13.850422163555669  11.139203113944177 14.989385024017192  8.999990610183058 14.989385024017192  Z M 27 22  L 27 26  L 7 26  L 12 21  L 13.59 22.59  C 14.370074908621847 23.365447189421598  15.629925091378155 23.365447189421598  16.41 22.59  L 22 17  L 27 22  Z M 27 6  L 27 19.17  L 23.41 15.580000000000002  C 22.629925091378155 14.804552810578404  21.370074908621845 14.804552810578404  20.59 15.580000000000002  L 15.000000000000002 21.17  L 13.41 19.580000000000002  C 12.629925091378153 18.804552810578404  11.370074908621847 18.804552810578404  10.59 19.580000000000002  L 7 23.17  L 7 16.740000000000002  C 7.653505321341502 16.908234444700902  8.325202048349825 16.995555019211984  9 17  C 13.418277998646348 17  17 13.418277998646348  17.000000000000004 9.000000000000002  C 17.0005665654605 7.971120897049621  16.80014707717633 6.952038753231806  16.41 6  L 27 6  Z " fill-rule="evenodd" />
    </mask>
  </defs>
  <g transform="matrix(1 0 0 1 -1 -1 )">
    <path d="M 29 6  C 29 4.8954305003384135  28.104569499661586 4  27 4  L 15.24 4  C 13.722265638942995 2.0915725943083223  11.417022222272509 0.9795195725554818  8.978659502427863 0.9795195725554818  C 4.560381503781516 0.9795195725554818  0.9786595024278631 4.561241573909134  0.9786595024278631 8.979519572555482  C 0.9786595024278631 11.846442004095067  2.512772622112233 14.494186478128931  5 15.920000000000002  L 5 26  C 5 27.104569499661586  5.8954305003384135 28  7 28  L 27 28  C 28.104569499661586 28  29 27.104569499661586  29 26  L 29 6  Z M 8.999990610183058 14.989385024017192  C 5.690426760296998 14.989385024017192  3.0058551567966854 12.30955867051961  3 9  C 3.005855156796688 5.690441329480391  5.690426760297001 3.010614975982813  8.999990610183058 3.010614975982813  C 11.139203113944177 3.010614975982813  13.116609133227847 4.149577836444331  14.19 6  L 7 6  L 7 8  L 14.909999999999998 8  C 14.96519497674763 8.330584199529664  14.995280965698479 8.664872965650185  14.999999999999998 8.999999999999998  C 14.995280965698479 9.335127034349824  14.965194976747634 9.669415800470322  14.910000000000002 10  L 9 10  L 9 12  L 14.190000000000001 12  C 13.116609133227849 13.850422163555669  11.139203113944177 14.989385024017192  8.999990610183058 14.989385024017192  Z M 27 22  L 27 26  L 7 26  L 12 21  L 13.59 22.59  C 14.370074908621847 23.365447189421598  15.629925091378155 23.365447189421598  16.41 22.59  L 22 17  L 27 22  Z M 27 6  L 27 19.17  L 23.41 15.580000000000002  C 22.629925091378155 14.804552810578404  21.370074908621845 14.804552810578404  20.59 15.580000000000002  L 15.000000000000002 21.17  L 13.41 19.580000000000002  C 12.629925091378153 18.804552810578404  11.370074908621847 18.804552810578404  10.59 19.580000000000002  L 7 23.17  L 7 16.740000000000002  C 7.653505321341502 16.908234444700902  8.325202048349825 16.995555019211984  9 17  C 13.418277998646348 17  17 13.418277998646348  17.000000000000004 9.000000000000002  C 17.0005665654605 7.971120897049621  16.80014707717633 6.952038753231806  16.41 6  L 27 6  Z " fill-rule="nonzero" fill="rgba(0, 0, 0, 1)" stroke="none" transform="matrix(1 0 0 1 1 1 )" class="fill" />
    <path d="M 29 6  C 29 4.8954305003384135  28.104569499661586 4  27 4  L 15.24 4  C 13.722265638942995 2.0915725943083223  11.417022222272509 0.9795195725554818  8.978659502427863 0.9795195725554818  C 4.560381503781516 0.9795195725554818  0.9786595024278631 4.561241573909134  0.9786595024278631 8.979519572555482  C 0.9786595024278631 11.846442004095067  2.512772622112233 14.494186478128931  5 15.920000000000002  L 5 26  C 5 27.104569499661586  5.8954305003384135 28  7 28  L 27 28  C 28.104569499661586 28  29 27.104569499661586  29 26  L 29 6  Z " stroke-width="0" stroke-dasharray="0" stroke="rgba(255, 255, 255, 0)" fill="none" transform="matrix(1 0 0 1 1 1 )" class="stroke" mask="url(#Clip4470)" />
    <path d="M 8.999990610183058 14.989385024017192  C 5.690426760296998 14.989385024017192  3.0058551567966854 12.30955867051961  3 9  C 3.005855156796688 5.690441329480391  5.690426760297001 3.010614975982813  8.999990610183058 3.010614975982813  C 11.139203113944177 3.010614975982813  13.116609133227847 4.149577836444331  14.19 6  L 7 6  L 7 8  L 14.909999999999998 8  C 14.96519497674763 8.330584199529664  14.995280965698479 8.664872965650185  14.999999999999998 8.999999999999998  C 14.995280965698479 9.335127034349824  14.965194976747634 9.669415800470322  14.910000000000002 10  L 9 10  L 9 12  L 14.190000000000001 12  C 13.116609133227849 13.850422163555669  11.139203113944177 14.989385024017192  8.999990610183058 14.989385024017192  Z " stroke-width="0" stroke-dasharray="0" stroke="rgba(255, 255, 255, 0)" fill="none" transform="matrix(1 0 0 1 1 1 )" class="stroke" mask="url(#Clip4470)" />
    <path d="M 27 22  L 27 26  L 7 26  L 12 21  L 13.59 22.59  C 14.370074908621847 23.365447189421598  15.629925091378155 23.365447189421598  16.41 22.59  L 22 17  L 27 22  Z " stroke-width="0" stroke-dasharray="0" stroke="rgba(255, 255, 255, 0)" fill="none" transform="matrix(1 0 0 1 1 1 )" class="stroke" mask="url(#Clip4470)" />
    <path d="M 27 6  L 27 19.17  L 23.41 15.580000000000002  C 22.629925091378155 14.804552810578404  21.370074908621845 14.804552810578404  20.59 15.580000000000002  L 15.000000000000002 21.17  L 13.41 19.580000000000002  C 12.629925091378153 18.804552810578404  11.370074908621847 18.804552810578404  10.59 19.580000000000002  L 7 23.17  L 7 16.740000000000002  C 7.653505321341502 16.908234444700902  8.325202048349825 16.995555019211984  9 17  C 13.418277998646348 17  17 13.418277998646348  17.000000000000004 9.000000000000002  C 17.0005665654605 7.971120897049621  16.80014707717633 6.952038753231806  16.41 6  L 27 6  Z " stroke-width="0" stroke-dasharray="0" stroke="rgba(255, 255, 255, 0)" fill="none" transform="matrix(1 0 0 1 1 1 )" class="stroke" mask="url(#Clip4470)" />
  </g>
</svg>