<?xml version="1.0" encoding="utf-8"?>
<svg version="1.1" xmlns:xlink="http://www.w3.org/1999/xlink" width="50px" height="39px" xmlns="http://www.w3.org/2000/svg">
  <defs>
    <pattern id="BGPattern" patternUnits="userSpaceOnUse" alignment="0 0" imageRepeat="None" />
    <mask fill="white" id="Clip1618">
      <path d="M 8.806552262090463 20.085803432137315  C 8.868954758190341 19.65678627145087  8.50234009360372 19.290171606864305  8.065522620904858 19.352574102964127  C 6.302652106084223 19.602184087363526  2.3322932917316734 20.288611544461787  1.1778471138845532 21.443057722308936  C -0.31201248049922015 22.93291731669268  -0.28861154446178716 25.390015600624054  1.240249609984403 26.918876755070244  C 2.7691107644305646 28.447737909516377  5.218408736349431 28.47113884555381  6.716068642745711 26.973478939157587  C 7.870514820592803 25.819032761310496  8.549141965678643 21.848673946957888  8.806552262090463 20.085803432137315  Z M 48.829953198127896 26.92667706708272  C 50.358814352574086 25.39781591263653  50.390015600624 22.93291731669268  48.892355694227774 21.443057722308936  C 47.73790951638068 20.288611544461787  43.767550702028075 19.609984399376003  42.0046801872075 19.352574102964127  C 41.575663026521056 19.290171606864305  41.201248049922015 19.65678627145087  41.263650546021836 20.093603744149792  C 41.513260530421235 21.856474258970366  42.199687987519496 25.826833073322973  43.35413416536659 26.981279251170065  C 44.85179407176287 28.47893915756634  47.30109204368176 28.455538221528855  48.829953198127896 26.92667706708272  Z M 41.59126365054601 28.736349453978164  C 41.13104524180966 28.27613104524181  39.71918876755069 26.864274570982843  38.798751950077985 20.444617784711397  C 38.50234009360372 18.3697347893916  40.28861154446179 16.583463338533534  42.363494539781584 16.8798751950078  C 43.05772230889238 16.981279251170065  43.67394695787834 17.09048361934481  44.25897035881434 17.199687987519496  C 43.1903276131045 7.527301092043672  35 0  25.039001560062392 0  C 15.078003120124778 0  6.887675507020276 7.527301092043672  5.819032761310439 17.199687987519496  C 6.404056162246491 17.09048361934481  7.020280811232453 16.981279251170065  7.714508580343192 16.8798751950078  C 10.304212168486742 16.575663026521056  11.505460218408757 18.853354134165386  11.279251170046791 20.444617784711397  C 10.358814352574086 26.864274570982843  8.946957878315118 28.27613104524181  8.486739469578765 28.74414976599064  C 8.416536661466466 28.814352574102998  8.330733229329155 28.86895475819034  8.252730109204379 28.93915756630264  C 11.583463338533534 34.758190327613136  17.84711388455537 38.6895475819033  25.039001560062392 38.6895475819033  C 32.23088923556941 38.6895475819033  38.49453978159124 34.758190327613136  41.825273010920455 28.931357254290162  C 41.74726989079562 28.861154446177864  41.66146645865837 28.814352574102998  41.59126365054601 28.736349453978164  Z M 26.926677067082665 16.801872074883022  C 27.16848673946959 13.517940717628733  29.422776911076426 11.232449297971923  31.27925117004679 11.232449297971923  C 33.13572542901716 11.232449297971923  35.390015600624 13.517940717628733  35.64742589703587 16.801872074883022  C 35.70202808112322 17.472698907956328  34.804992199688 17.737909516380682  34.485179407176304 17.15288611544463  L 33.74414976599064 15.826833073322916  C 33.143525741029634 14.758190327613136  32.24648985959436 14.141965678627173  31.28705148205927 14.141965678627173  C 30.327613104524175 14.141965678627173  29.430577223088903 14.758190327613136  28.829953198127956 15.826833073322916  L 28.08892355694229 17.15288611544463  C 27.761310452418115 17.730109204368205  26.87207488299532 17.46489859594385  26.926677067082665 16.801872074883022  Z M 14.446177847113859 16.801872074883022  C 14.687987519500782 13.517940717628733  16.94227769110762 11.232449297971923  18.798751950077985 11.232449297971923  C 20.65522620904835 11.232449297971923  22.909516380655248 13.517940717628733  23.166926677067067 16.801872074883022  C 23.221528861154468 17.472698907956328  22.324492979719196 17.737909516380682  22.004680187207498 17.15288611544463  L 21.263650546021836 15.826833073322916  C 20.66302652106083 14.758190327613136  19.765990639625613 14.141965678627173  18.806552262090463 14.141965678627173  C 17.84711388455537 14.141965678627173  16.950078003120097 14.758190327613136  16.349453978159147 15.826833073322916  L 15.608424336973483 17.15288611544463  C 15.28081123244931 17.730109204368205  14.391575663026515 17.46489859594385  14.446177847113859 16.801872074883022  Z M 36.25585023400936 25.795631825273006  C 35.53042121684865 30.08580343213731  29.76599063962561 33.073322932917335  25.039001560062392 33.073322932917335  C 20.31201248049922 33.073322932917335  14.547581903276125 30.08580343213731  13.822152886115418 25.795631825273006  C 13.66614664586581 24.88299531981284  14.539781591263647 24.110764430577262  15.43681747269892 24.399375975038993  C 17.792511700468026 25.15600624024961  21.294851794071747 25.585023400936052  25.039001560062392 25.585023400936052  C 28.78315132605303 25.585023400936052  32.28549141965681 25.15600624024961  34.641185647425914 24.399375975038993  C 35.53042121684865 24.110764430577262  36.40405616224649 24.87519500780036  36.25585023400936 25.795631825273006  Z " fill-rule="evenodd" />
    </mask>
  </defs>
  <g>
    <path d="M 8.806552262090463 20.085803432137315  C 8.868954758190341 19.65678627145087  8.50234009360372 19.290171606864305  8.065522620904858 19.352574102964127  C 6.302652106084223 19.602184087363526  2.3322932917316734 20.288611544461787  1.1778471138845532 21.443057722308936  C -0.31201248049922015 22.93291731669268  -0.28861154446178716 25.390015600624054  1.240249609984403 26.918876755070244  C 2.7691107644305646 28.447737909516377  5.218408736349431 28.47113884555381  6.716068642745711 26.973478939157587  C 7.870514820592803 25.819032761310496  8.549141965678643 21.848673946957888  8.806552262090463 20.085803432137315  Z M 48.829953198127896 26.92667706708272  C 50.358814352574086 25.39781591263653  50.390015600624 22.93291731669268  48.892355694227774 21.443057722308936  C 47.73790951638068 20.288611544461787  43.767550702028075 19.609984399376003  42.0046801872075 19.352574102964127  C 41.575663026521056 19.290171606864305  41.201248049922015 19.65678627145087  41.263650546021836 20.093603744149792  C 41.513260530421235 21.856474258970366  42.199687987519496 25.826833073322973  43.35413416536659 26.981279251170065  C 44.85179407176287 28.47893915756634  47.30109204368176 28.455538221528855  48.829953198127896 26.92667706708272  Z M 41.59126365054601 28.736349453978164  C 41.13104524180966 28.27613104524181  39.71918876755069 26.864274570982843  38.798751950077985 20.444617784711397  C 38.50234009360372 18.3697347893916  40.28861154446179 16.583463338533534  42.363494539781584 16.8798751950078  C 43.05772230889238 16.981279251170065  43.67394695787834 17.09048361934481  44.25897035881434 17.199687987519496  C 43.1903276131045 7.527301092043672  35 0  25.039001560062392 0  C 15.078003120124778 0  6.887675507020276 7.527301092043672  5.819032761310439 17.199687987519496  C 6.404056162246491 17.09048361934481  7.020280811232453 16.981279251170065  7.714508580343192 16.8798751950078  C 10.304212168486742 16.575663026521056  11.505460218408757 18.853354134165386  11.279251170046791 20.444617784711397  C 10.358814352574086 26.864274570982843  8.946957878315118 28.27613104524181  8.486739469578765 28.74414976599064  C 8.416536661466466 28.814352574102998  8.330733229329155 28.86895475819034  8.252730109204379 28.93915756630264  C 11.583463338533534 34.758190327613136  17.84711388455537 38.6895475819033  25.039001560062392 38.6895475819033  C 32.23088923556941 38.6895475819033  38.49453978159124 34.758190327613136  41.825273010920455 28.931357254290162  C 41.74726989079562 28.861154446177864  41.66146645865837 28.814352574102998  41.59126365054601 28.736349453978164  Z M 26.926677067082665 16.801872074883022  C 27.16848673946959 13.517940717628733  29.422776911076426 11.232449297971923  31.27925117004679 11.232449297971923  C 33.13572542901716 11.232449297971923  35.390015600624 13.517940717628733  35.64742589703587 16.801872074883022  C 35.70202808112322 17.472698907956328  34.804992199688 17.737909516380682  34.485179407176304 17.15288611544463  L 33.74414976599064 15.826833073322916  C 33.143525741029634 14.758190327613136  32.24648985959436 14.141965678627173  31.28705148205927 14.141965678627173  C 30.327613104524175 14.141965678627173  29.430577223088903 14.758190327613136  28.829953198127956 15.826833073322916  L 28.08892355694229 17.15288611544463  C 27.761310452418115 17.730109204368205  26.87207488299532 17.46489859594385  26.926677067082665 16.801872074883022  Z M 14.446177847113859 16.801872074883022  C 14.687987519500782 13.517940717628733  16.94227769110762 11.232449297971923  18.798751950077985 11.232449297971923  C 20.65522620904835 11.232449297971923  22.909516380655248 13.517940717628733  23.166926677067067 16.801872074883022  C 23.221528861154468 17.472698907956328  22.324492979719196 17.737909516380682  22.004680187207498 17.15288611544463  L 21.263650546021836 15.826833073322916  C 20.66302652106083 14.758190327613136  19.765990639625613 14.141965678627173  18.806552262090463 14.141965678627173  C 17.84711388455537 14.141965678627173  16.950078003120097 14.758190327613136  16.349453978159147 15.826833073322916  L 15.608424336973483 17.15288611544463  C 15.28081123244931 17.730109204368205  14.391575663026515 17.46489859594385  14.446177847113859 16.801872074883022  Z M 36.25585023400936 25.795631825273006  C 35.53042121684865 30.08580343213731  29.76599063962561 33.073322932917335  25.039001560062392 33.073322932917335  C 20.31201248049922 33.073322932917335  14.547581903276125 30.08580343213731  13.822152886115418 25.795631825273006  C 13.66614664586581 24.88299531981284  14.539781591263647 24.110764430577262  15.43681747269892 24.399375975038993  C 17.792511700468026 25.15600624024961  21.294851794071747 25.585023400936052  25.039001560062392 25.585023400936052  C 28.78315132605303 25.585023400936052  32.28549141965681 25.15600624024961  34.641185647425914 24.399375975038993  C 35.53042121684865 24.110764430577262  36.40405616224649 24.87519500780036  36.25585023400936 25.795631825273006  Z " fill-rule="nonzero" fill="rgba(0, 0, 0, 1)" stroke="none" class="fill" />
    <path d="M 8.806552262090463 20.085803432137315  C 8.868954758190341 19.65678627145087  8.50234009360372 19.290171606864305  8.065522620904858 19.352574102964127  C 6.302652106084223 19.602184087363526  2.3322932917316734 20.288611544461787  1.1778471138845532 21.443057722308936  C -0.31201248049922015 22.93291731669268  -0.28861154446178716 25.390015600624054  1.240249609984403 26.918876755070244  C 2.7691107644305646 28.447737909516377  5.218408736349431 28.47113884555381  6.716068642745711 26.973478939157587  C 7.870514820592803 25.819032761310496  8.549141965678643 21.848673946957888  8.806552262090463 20.085803432137315  Z " stroke-width="0" stroke-dasharray="0" stroke="rgba(255, 255, 255, 0)" fill="none" class="stroke" mask="url(#Clip1618)" />
    <path d="M 48.829953198127896 26.92667706708272  C 50.358814352574086 25.39781591263653  50.390015600624 22.93291731669268  48.892355694227774 21.443057722308936  C 47.73790951638068 20.288611544461787  43.767550702028075 19.609984399376003  42.0046801872075 19.352574102964127  C 41.575663026521056 19.290171606864305  41.201248049922015 19.65678627145087  41.263650546021836 20.093603744149792  C 41.513260530421235 21.856474258970366  42.199687987519496 25.826833073322973  43.35413416536659 26.981279251170065  C 44.85179407176287 28.47893915756634  47.30109204368176 28.455538221528855  48.829953198127896 26.92667706708272  Z " stroke-width="0" stroke-dasharray="0" stroke="rgba(255, 255, 255, 0)" fill="none" class="stroke" mask="url(#Clip1618)" />
    <path d="M 41.59126365054601 28.736349453978164  C 41.13104524180966 28.27613104524181  39.71918876755069 26.864274570982843  38.798751950077985 20.444617784711397  C 38.50234009360372 18.3697347893916  40.28861154446179 16.583463338533534  42.363494539781584 16.8798751950078  C 43.05772230889238 16.981279251170065  43.67394695787834 17.09048361934481  44.25897035881434 17.199687987519496  C 43.1903276131045 7.527301092043672  35 0  25.039001560062392 0  C 15.078003120124778 0  6.887675507020276 7.527301092043672  5.819032761310439 17.199687987519496  C 6.404056162246491 17.09048361934481  7.020280811232453 16.981279251170065  7.714508580343192 16.8798751950078  C 10.304212168486742 16.575663026521056  11.505460218408757 18.853354134165386  11.279251170046791 20.444617784711397  C 10.358814352574086 26.864274570982843  8.946957878315118 28.27613104524181  8.486739469578765 28.74414976599064  C 8.416536661466466 28.814352574102998  8.330733229329155 28.86895475819034  8.252730109204379 28.93915756630264  C 11.583463338533534 34.758190327613136  17.84711388455537 38.6895475819033  25.039001560062392 38.6895475819033  C 32.23088923556941 38.6895475819033  38.49453978159124 34.758190327613136  41.825273010920455 28.931357254290162  C 41.74726989079562 28.861154446177864  41.66146645865837 28.814352574102998  41.59126365054601 28.736349453978164  Z " stroke-width="0" stroke-dasharray="0" stroke="rgba(255, 255, 255, 0)" fill="none" class="stroke" mask="url(#Clip1618)" />
    <path d="M 26.926677067082665 16.801872074883022  C 27.16848673946959 13.517940717628733  29.422776911076426 11.232449297971923  31.27925117004679 11.232449297971923  C 33.13572542901716 11.232449297971923  35.390015600624 13.517940717628733  35.64742589703587 16.801872074883022  C 35.70202808112322 17.472698907956328  34.804992199688 17.737909516380682  34.485179407176304 17.15288611544463  L 33.74414976599064 15.826833073322916  C 33.143525741029634 14.758190327613136  32.24648985959436 14.141965678627173  31.28705148205927 14.141965678627173  C 30.327613104524175 14.141965678627173  29.430577223088903 14.758190327613136  28.829953198127956 15.826833073322916  L 28.08892355694229 17.15288611544463  C 27.761310452418115 17.730109204368205  26.87207488299532 17.46489859594385  26.926677067082665 16.801872074883022  Z " stroke-width="0" stroke-dasharray="0" stroke="rgba(255, 255, 255, 0)" fill="none" class="stroke" mask="url(#Clip1618)" />
    <path d="M 14.446177847113859 16.801872074883022  C 14.687987519500782 13.517940717628733  16.94227769110762 11.232449297971923  18.798751950077985 11.232449297971923  C 20.65522620904835 11.232449297971923  22.909516380655248 13.517940717628733  23.166926677067067 16.801872074883022  C 23.221528861154468 17.472698907956328  22.324492979719196 17.737909516380682  22.004680187207498 17.15288611544463  L 21.263650546021836 15.826833073322916  C 20.66302652106083 14.758190327613136  19.765990639625613 14.141965678627173  18.806552262090463 14.141965678627173  C 17.84711388455537 14.141965678627173  16.950078003120097 14.758190327613136  16.349453978159147 15.826833073322916  L 15.608424336973483 17.15288611544463  C 15.28081123244931 17.730109204368205  14.391575663026515 17.46489859594385  14.446177847113859 16.801872074883022  Z " stroke-width="0" stroke-dasharray="0" stroke="rgba(255, 255, 255, 0)" fill="none" class="stroke" mask="url(#Clip1618)" />
    <path d="M 36.25585023400936 25.795631825273006  C 35.53042121684865 30.08580343213731  29.76599063962561 33.073322932917335  25.039001560062392 33.073322932917335  C 20.31201248049922 33.073322932917335  14.547581903276125 30.08580343213731  13.822152886115418 25.795631825273006  C 13.66614664586581 24.88299531981284  14.539781591263647 24.110764430577262  15.43681747269892 24.399375975038993  C 17.792511700468026 25.15600624024961  21.294851794071747 25.585023400936052  25.039001560062392 25.585023400936052  C 28.78315132605303 25.585023400936052  32.28549141965681 25.15600624024961  34.641185647425914 24.399375975038993  C 35.53042121684865 24.110764430577262  36.40405616224649 24.87519500780036  36.25585023400936 25.795631825273006  Z " stroke-width="0" stroke-dasharray="0" stroke="rgba(255, 255, 255, 0)" fill="none" class="stroke" mask="url(#Clip1618)" />
  </g>
</svg>