<?xml version="1.0" encoding="utf-8"?>
<svg version="1.1" xmlns:xlink="http://www.w3.org/1999/xlink" width="56px" height="64px" xmlns="http://www.w3.org/2000/svg">
  <defs>
    <pattern id="BGPattern" patternUnits="userSpaceOnUse" alignment="0 0" imageRepeat="None" />
    <mask fill="white" id="Clip2127">
      <path d="M 23.335 10  L 34.67125 1.4975  C 32.635 0.55875  30.38875 0  28 0  C 21.28875 0  15.5625 4.14125  13.18625 10  L 23.335 10  Z M 29.99875 10  L 42.81375 10  C 41.82625 7.56625  40.23 5.475  38.2525 3.8099999999999996  L 29.99875 10  Z M 12 16  C 12 24.83625  19.16375 32  28 32  C 36.83625 32  44 24.83625  44 16  C 44 15.315  43.88125 14.6625  43.79875 14  L 12.20125 14  C 12.1175 14.6625  12 15.315  12 16  Z M 13.726249999999999 36.31  C 12.443202490758566 36.54644170564038  11.192492406872114 36.93327655882498  10 37.4625  L 10 64  L 26.0325 64  L 13.726249999999999 36.31  Z M 0 52.8  L 0 58  C 0 61.31375  2.68625 64  6 64  L 6 40.03  C 2.36 43.11125  0 47.6575  0 52.8  Z M 38 58  C 38 54.69125  35.30875 52  32 52  L 25.0775 52  L 30.411250000000003 64  L 32 64  C 35.30875 64  38 61.30875  38 58  Z M 56 52.8  C 56 43.521249999999995  48.47875 36  39.2 36  L 37.111250000000005 36  C 34.331250000000004 37.2725  31.251250000000006 38  28.000000000000007 38  C 24.74875000000001 38  21.668750000000006 37.2725  18.88875000000001 36  L 17.96750000000001 36  L 23.30125000000001 48  L 32 48  C 37.51375 48  42 52.48625  42 58  C 42 60.26  41.2175 62.323750000000004  39.94875 64  L 50 64  C 53.31375 64  56 61.31375  56 58  L 56 52.8  Z " fill-rule="evenodd" />
    </mask>
  </defs>
  <g>
    <path d="M 23.335 10  L 34.67125 1.4975  C 32.635 0.55875  30.38875 0  28 0  C 21.28875 0  15.5625 4.14125  13.18625 10  L 23.335 10  Z M 29.99875 10  L 42.81375 10  C 41.82625 7.56625  40.23 5.475  38.2525 3.8099999999999996  L 29.99875 10  Z M 12 16  C 12 24.83625  19.16375 32  28 32  C 36.83625 32  44 24.83625  44 16  C 44 15.315  43.88125 14.6625  43.79875 14  L 12.20125 14  C 12.1175 14.6625  12 15.315  12 16  Z M 13.726249999999999 36.31  C 12.443202490758566 36.54644170564038  11.192492406872114 36.93327655882498  10 37.4625  L 10 64  L 26.0325 64  L 13.726249999999999 36.31  Z M 0 52.8  L 0 58  C 0 61.31375  2.68625 64  6 64  L 6 40.03  C 2.36 43.11125  0 47.6575  0 52.8  Z M 38 58  C 38 54.69125  35.30875 52  32 52  L 25.0775 52  L 30.411250000000003 64  L 32 64  C 35.30875 64  38 61.30875  38 58  Z M 56 52.8  C 56 43.521249999999995  48.47875 36  39.2 36  L 37.111250000000005 36  C 34.331250000000004 37.2725  31.251250000000006 38  28.000000000000007 38  C 24.74875000000001 38  21.668750000000006 37.2725  18.88875000000001 36  L 17.96750000000001 36  L 23.30125000000001 48  L 32 48  C 37.51375 48  42 52.48625  42 58  C 42 60.26  41.2175 62.323750000000004  39.94875 64  L 50 64  C 53.31375 64  56 61.31375  56 58  L 56 52.8  Z " fill-rule="nonzero" fill="rgba(0, 0, 0, 1)" stroke="none" class="fill" />
    <path d="M 23.335 10  L 34.67125 1.4975  C 32.635 0.55875  30.38875 0  28 0  C 21.28875 0  15.5625 4.14125  13.18625 10  L 23.335 10  Z " stroke-width="0" stroke-dasharray="0" stroke="rgba(255, 255, 255, 0)" fill="none" class="stroke" mask="url(#Clip2127)" />
    <path d="M 29.99875 10  L 42.81375 10  C 41.82625 7.56625  40.23 5.475  38.2525 3.8099999999999996  L 29.99875 10  Z " stroke-width="0" stroke-dasharray="0" stroke="rgba(255, 255, 255, 0)" fill="none" class="stroke" mask="url(#Clip2127)" />
    <path d="M 12 16  C 12 24.83625  19.16375 32  28 32  C 36.83625 32  44 24.83625  44 16  C 44 15.315  43.88125 14.6625  43.79875 14  L 12.20125 14  C 12.1175 14.6625  12 15.315  12 16  Z " stroke-width="0" stroke-dasharray="0" stroke="rgba(255, 255, 255, 0)" fill="none" class="stroke" mask="url(#Clip2127)" />
    <path d="M 13.726249999999999 36.31  C 12.443202490758566 36.54644170564038  11.192492406872114 36.93327655882498  10 37.4625  L 10 64  L 26.0325 64  L 13.726249999999999 36.31  Z " stroke-width="0" stroke-dasharray="0" stroke="rgba(255, 255, 255, 0)" fill="none" class="stroke" mask="url(#Clip2127)" />
    <path d="M 0 52.8  L 0 58  C 0 61.31375  2.68625 64  6 64  L 6 40.03  C 2.36 43.11125  0 47.6575  0 52.8  Z " stroke-width="0" stroke-dasharray="0" stroke="rgba(255, 255, 255, 0)" fill="none" class="stroke" mask="url(#Clip2127)" />
    <path d="M 38 58  C 38 54.69125  35.30875 52  32 52  L 25.0775 52  L 30.411250000000003 64  L 32 64  C 35.30875 64  38 61.30875  38 58  Z " stroke-width="0" stroke-dasharray="0" stroke="rgba(255, 255, 255, 0)" fill="none" class="stroke" mask="url(#Clip2127)" />
    <path d="M 56 52.8  C 56 43.521249999999995  48.47875 36  39.2 36  L 37.111250000000005 36  C 34.331250000000004 37.2725  31.251250000000006 38  28.000000000000007 38  C 24.74875000000001 38  21.668750000000006 37.2725  18.88875000000001 36  L 17.96750000000001 36  L 23.30125000000001 48  L 32 48  C 37.51375 48  42 52.48625  42 58  C 42 60.26  41.2175 62.323750000000004  39.94875 64  L 50 64  C 53.31375 64  56 61.31375  56 58  L 56 52.8  Z " stroke-width="0" stroke-dasharray="0" stroke="rgba(255, 255, 255, 0)" fill="none" class="stroke" mask="url(#Clip2127)" />
  </g>
</svg>