<?xml version="1.0" encoding="utf-8"?>
<svg version="1.1" xmlns:xlink="http://www.w3.org/1999/xlink" width="50px" height="31px" xmlns="http://www.w3.org/2000/svg">
  <defs>
    <pattern id="BGPattern" patternUnits="userSpaceOnUse" alignment="0 0" imageRepeat="None" />
    <mask fill="white" id="Clip1398">
      <path d="M 26.93732876712329 29.506392694063948  C 25.867351598173517 30.576255707762584  24.132648401826486 30.576255707762584  23.06267123287671 29.506392694063948  L 0.8773972602739661 7.321004566210036  C -0.19257990867581043 6.251027397260259  -0.19257990867581043 4.516324200913232  0.8773972602739661 3.446461187214595  L 3.4649543378995418 0.858904109589048  C 4.533105022831052 -0.20924657534249036  6.2642694063926845 -0.2113013698630084  7.33493150684933 0.8543378995433955  L 25 18.43664383561645  L 42.66495433789953 0.8543378995433955  C 43.735616438356175 -0.2113013698630084  45.46678082191781 -0.20924657534249036  46.53493150684932 0.858904109589048  L 49.122488584474866 3.446461187214595  C 50.19246575342464 4.516438356164372  50.19246575342464 6.251141552511399  49.122488584474866 7.321004566210036  L 26.93732876712329 29.506392694063948  Z " fill-rule="evenodd" />
    </mask>
  </defs>
  <g>
    <path d="M 26.93732876712329 29.506392694063948  C 25.867351598173517 30.576255707762584  24.132648401826486 30.576255707762584  23.06267123287671 29.506392694063948  L 0.8773972602739661 7.321004566210036  C -0.19257990867581043 6.251027397260259  -0.19257990867581043 4.516324200913232  0.8773972602739661 3.446461187214595  L 3.4649543378995418 0.858904109589048  C 4.533105022831052 -0.20924657534249036  6.2642694063926845 -0.2113013698630084  7.33493150684933 0.8543378995433955  L 25 18.43664383561645  L 42.66495433789953 0.8543378995433955  C 43.735616438356175 -0.2113013698630084  45.46678082191781 -0.20924657534249036  46.53493150684932 0.858904109589048  L 49.122488584474866 3.446461187214595  C 50.19246575342464 4.516438356164372  50.19246575342464 6.251141552511399  49.122488584474866 7.321004566210036  L 26.93732876712329 29.506392694063948  Z " fill-rule="nonzero" fill="rgba(0, 0, 0, 1)" stroke="none" class="fill" />
    <path d="M 26.93732876712329 29.506392694063948  C 25.867351598173517 30.576255707762584  24.132648401826486 30.576255707762584  23.06267123287671 29.506392694063948  L 0.8773972602739661 7.321004566210036  C -0.19257990867581043 6.251027397260259  -0.19257990867581043 4.516324200913232  0.8773972602739661 3.446461187214595  L 3.4649543378995418 0.858904109589048  C 4.533105022831052 -0.20924657534249036  6.2642694063926845 -0.2113013698630084  7.33493150684933 0.8543378995433955  L 25 18.43664383561645  L 42.66495433789953 0.8543378995433955  C 43.735616438356175 -0.2113013698630084  45.46678082191781 -0.20924657534249036  46.53493150684932 0.858904109589048  L 49.122488584474866 3.446461187214595  C 50.19246575342464 4.516438356164372  50.19246575342464 6.251141552511399  49.122488584474866 7.321004566210036  L 26.93732876712329 29.506392694063948  Z " stroke-width="0" stroke-dasharray="0" stroke="rgba(255, 255, 255, 0)" fill="none" class="stroke" mask="url(#Clip1398)" />
  </g>
</svg>