<?xml version="1.0" encoding="utf-8"?>
<svg version="1.1" xmlns:xlink="http://www.w3.org/1999/xlink" width="48px" height="44px" xmlns="http://www.w3.org/2000/svg">
  <defs>
    <pattern id="BGPattern" patternUnits="userSpaceOnUse" alignment="0 0" imageRepeat="None" />
    <mask fill="white" id="Clip6828">
      <path d="M 47.998000000000005 25.158  C 47.99 23.732  47.02 23.404  46.508 23  L 26.038000000000004 23  C 23.936 23.334  21.838 24.312  20.654 25.866  L 20.654 25.832  C 19.472 27.464000000000006  17.566 28.538  15.396 28.538  C 11.804 28.538  8.898 25.622  8.898 22.036  C 8.898 18.446  11.806 15.534000000000002  15.396 15.534000000000002  C 17.566000000000003 15.534000000000002  19.474 16.606  20.654 18.240000000000002  L 20.654 18.214000000000002  C 21.838 19.766000000000002  23.936 20.76  26.038000000000004 21  L 46.296 21  C 46.668 20.75  48.042 20.57  47.992 18.798000000000002  C 46.224 8.626000000000001  36.233999999999995 0.8240000000000015  24.145999999999997 0.8240000000000015  C 16.703999999999997 0.8240000000000015  10.051999999999998 3.7840000000000016  5.621999999999996 8.430000000000001  C 4.909999999999997 9.484000000000002  5.649999999999996 9.808000000000002  6.3219999999999965 10  L 19.537999999999997 10  C 21.637999999999998 9.898000000000001  23.737999999999996 8.902000000000001  24.919999999999995 7.344  L 24.919999999999995 7.380000000000001  C 26.101999999999997 5.746  28.011999999999993 4.670000000000001  30.179999999999993 4.670000000000001  C 33.769999999999996 4.670000000000001  36.67799999999999 7.582000000000001  36.67799999999999 11.172  C 36.67799999999999 14.758  33.76999999999999 17.676000000000002  30.179999999999993 17.676000000000002  C 28.01199999999999 17.676000000000002  26.10199999999999 16.602  24.919999999999987 14.966000000000001  L 24.919999999999987 15.004000000000001  C 23.73799999999999 13.446000000000002  21.637999999999987 12.472  19.53799999999999 13  L 5.09799999999999 13  L 5.15399999999999 12.478000000000002  C 5.15399999999999 12.478000000000002  3.01799999999999 12.358000000000002  1.71599999999999 14.196000000000002  C 0.722 15.8  0 19.242  0 22.004  C 0 24.78  0.396 27.301999999999996  1.734 29.85  C 2.862 31.666000000000004  5.154 31.548000000000002  5.154 31.548000000000002  L 5.07 31  L 19.536 31  C 21.636000000000003 31.560000000000002  23.736 30.58000000000001  24.918 29.024  L 24.918 29.061999999999998  C 26.099999999999998 27.427999999999997  28.009999999999998 26.352  30.177999999999997 26.352  C 33.768 26.352  36.675999999999995 29.268  36.675999999999995 32.854  C 36.675999999999995 36.444  33.767999999999994 39.356  30.177999999999994 39.356  C 28.00999999999999 39.356  26.099999999999994 38.282000000000004  24.917999999999992 36.648  L 24.917999999999992 36.684000000000005  C 23.735999999999994 35.126000000000005  21.635999999999992 34.13  19.535999999999994 34  L 6.327999999999999 34  C 5.672000000000001 34.214000000000006  4.932 34.526  5.57 35.528000000000006  C 10.002 40.202000000000005  16.68 43.176  24.146 43.176  C 36.254000000000005 43.176  46.257999999999996 35.354  47.998000000000005 25.158  Z " fill-rule="evenodd" />
    </mask>
  </defs>
  <g>
    <path d="M 47.998000000000005 25.158  C 47.99 23.732  47.02 23.404  46.508 23  L 26.038000000000004 23  C 23.936 23.334  21.838 24.312  20.654 25.866  L 20.654 25.832  C 19.472 27.464000000000006  17.566 28.538  15.396 28.538  C 11.804 28.538  8.898 25.622  8.898 22.036  C 8.898 18.446  11.806 15.534000000000002  15.396 15.534000000000002  C 17.566000000000003 15.534000000000002  19.474 16.606  20.654 18.240000000000002  L 20.654 18.214000000000002  C 21.838 19.766000000000002  23.936 20.76  26.038000000000004 21  L 46.296 21  C 46.668 20.75  48.042 20.57  47.992 18.798000000000002  C 46.224 8.626000000000001  36.233999999999995 0.8240000000000015  24.145999999999997 0.8240000000000015  C 16.703999999999997 0.8240000000000015  10.051999999999998 3.7840000000000016  5.621999999999996 8.430000000000001  C 4.909999999999997 9.484000000000002  5.649999999999996 9.808000000000002  6.3219999999999965 10  L 19.537999999999997 10  C 21.637999999999998 9.898000000000001  23.737999999999996 8.902000000000001  24.919999999999995 7.344  L 24.919999999999995 7.380000000000001  C 26.101999999999997 5.746  28.011999999999993 4.670000000000001  30.179999999999993 4.670000000000001  C 33.769999999999996 4.670000000000001  36.67799999999999 7.582000000000001  36.67799999999999 11.172  C 36.67799999999999 14.758  33.76999999999999 17.676000000000002  30.179999999999993 17.676000000000002  C 28.01199999999999 17.676000000000002  26.10199999999999 16.602  24.919999999999987 14.966000000000001  L 24.919999999999987 15.004000000000001  C 23.73799999999999 13.446000000000002  21.637999999999987 12.472  19.53799999999999 13  L 5.09799999999999 13  L 5.15399999999999 12.478000000000002  C 5.15399999999999 12.478000000000002  3.01799999999999 12.358000000000002  1.71599999999999 14.196000000000002  C 0.722 15.8  0 19.242  0 22.004  C 0 24.78  0.396 27.301999999999996  1.734 29.85  C 2.862 31.666000000000004  5.154 31.548000000000002  5.154 31.548000000000002  L 5.07 31  L 19.536 31  C 21.636000000000003 31.560000000000002  23.736 30.58000000000001  24.918 29.024  L 24.918 29.061999999999998  C 26.099999999999998 27.427999999999997  28.009999999999998 26.352  30.177999999999997 26.352  C 33.768 26.352  36.675999999999995 29.268  36.675999999999995 32.854  C 36.675999999999995 36.444  33.767999999999994 39.356  30.177999999999994 39.356  C 28.00999999999999 39.356  26.099999999999994 38.282000000000004  24.917999999999992 36.648  L 24.917999999999992 36.684000000000005  C 23.735999999999994 35.126000000000005  21.635999999999992 34.13  19.535999999999994 34  L 6.327999999999999 34  C 5.672000000000001 34.214000000000006  4.932 34.526  5.57 35.528000000000006  C 10.002 40.202000000000005  16.68 43.176  24.146 43.176  C 36.254000000000005 43.176  46.257999999999996 35.354  47.998000000000005 25.158  Z " fill-rule="nonzero" fill="rgba(72, 168, 66, 1)" stroke="none" class="fill" />
    <path d="M 47.998000000000005 25.158  C 47.99 23.732  47.02 23.404  46.508 23  L 26.038000000000004 23  C 23.936 23.334  21.838 24.312  20.654 25.866  L 20.654 25.832  C 19.472 27.464000000000006  17.566 28.538  15.396 28.538  C 11.804 28.538  8.898 25.622  8.898 22.036  C 8.898 18.446  11.806 15.534000000000002  15.396 15.534000000000002  C 17.566000000000003 15.534000000000002  19.474 16.606  20.654 18.240000000000002  L 20.654 18.214000000000002  C 21.838 19.766000000000002  23.936 20.76  26.038000000000004 21  L 46.296 21  C 46.668 20.75  48.042 20.57  47.992 18.798000000000002  C 46.224 8.626000000000001  36.233999999999995 0.8240000000000015  24.145999999999997 0.8240000000000015  C 16.703999999999997 0.8240000000000015  10.051999999999998 3.7840000000000016  5.621999999999996 8.430000000000001  C 4.909999999999997 9.484000000000002  5.649999999999996 9.808000000000002  6.3219999999999965 10  L 19.537999999999997 10  C 21.637999999999998 9.898000000000001  23.737999999999996 8.902000000000001  24.919999999999995 7.344  L 24.919999999999995 7.380000000000001  C 26.101999999999997 5.746  28.011999999999993 4.670000000000001  30.179999999999993 4.670000000000001  C 33.769999999999996 4.670000000000001  36.67799999999999 7.582000000000001  36.67799999999999 11.172  C 36.67799999999999 14.758  33.76999999999999 17.676000000000002  30.179999999999993 17.676000000000002  C 28.01199999999999 17.676000000000002  26.10199999999999 16.602  24.919999999999987 14.966000000000001  L 24.919999999999987 15.004000000000001  C 23.73799999999999 13.446000000000002  21.637999999999987 12.472  19.53799999999999 13  L 5.09799999999999 13  L 5.15399999999999 12.478000000000002  C 5.15399999999999 12.478000000000002  3.01799999999999 12.358000000000002  1.71599999999999 14.196000000000002  C 0.722 15.8  0 19.242  0 22.004  C 0 24.78  0.396 27.301999999999996  1.734 29.85  C 2.862 31.666000000000004  5.154 31.548000000000002  5.154 31.548000000000002  L 5.07 31  L 19.536 31  C 21.636000000000003 31.560000000000002  23.736 30.58000000000001  24.918 29.024  L 24.918 29.061999999999998  C 26.099999999999998 27.427999999999997  28.009999999999998 26.352  30.177999999999997 26.352  C 33.768 26.352  36.675999999999995 29.268  36.675999999999995 32.854  C 36.675999999999995 36.444  33.767999999999994 39.356  30.177999999999994 39.356  C 28.00999999999999 39.356  26.099999999999994 38.282000000000004  24.917999999999992 36.648  L 24.917999999999992 36.684000000000005  C 23.735999999999994 35.126000000000005  21.635999999999992 34.13  19.535999999999994 34  L 6.327999999999999 34  C 5.672000000000001 34.214000000000006  4.932 34.526  5.57 35.528000000000006  C 10.002 40.202000000000005  16.68 43.176  24.146 43.176  C 36.254000000000005 43.176  46.257999999999996 35.354  47.998000000000005 25.158  Z " stroke-width="0" stroke-dasharray="0" stroke="rgba(255, 255, 255, 0)" fill="none" class="stroke" mask="url(#Clip6828)" />
  </g>
</svg>