<?xml version="1.0" encoding="utf-8"?>
<svg version="1.1" xmlns:xlink="http://www.w3.org/1999/xlink" width="24px" height="10px" xmlns="http://www.w3.org/2000/svg">
  <defs>
    <pattern id="BGPattern" patternUnits="userSpaceOnUse" alignment="0 0" imageRepeat="None" />
    <mask fill="white" id="Clip3446">
      <path d="M 24 8  C 24 9.104569499661586  23.104569499661586 10  22 10  L 2 10  C 0.8954305003384135 10  0 9.104569499661586  0 8  L 0 2  C 0 0.8954305003384135  0.8954305003384135 0  2 0  L 22 0  C 23.104569499661586 0  24 0.8954305003384135  24 2  L 24 8  Z M 22 2  L 2 2  L 2 8  L 22 8  L 22 2  Z " fill-rule="evenodd" />
    </mask>
  </defs>
  <g transform="matrix(1 0 0 1 -4 -4 )">
    <path d="M 24 8  C 24 9.104569499661586  23.104569499661586 10  22 10  L 2 10  C 0.8954305003384135 10  0 9.104569499661586  0 8  L 0 2  C 0 0.8954305003384135  0.8954305003384135 0  2 0  L 22 0  C 23.104569499661586 0  24 0.8954305003384135  24 2  L 24 8  Z M 22 2  L 2 2  L 2 8  L 22 8  L 22 2  Z " fill-rule="nonzero" fill="rgba(0, 0, 0, 1)" stroke="none" transform="matrix(1 0 0 1 4 4 )" class="fill" />
    <path d="M 24 8  C 24 9.104569499661586  23.104569499661586 10  22 10  L 2 10  C 0.8954305003384135 10  0 9.104569499661586  0 8  L 0 2  C 0 0.8954305003384135  0.8954305003384135 0  2 0  L 22 0  C 23.104569499661586 0  24 0.8954305003384135  24 2  L 24 8  Z " stroke-width="0" stroke-dasharray="0" stroke="rgba(255, 255, 255, 0)" fill="none" transform="matrix(1 0 0 1 4 4 )" class="stroke" mask="url(#Clip3446)" />
    <path d="M 22 2  L 2 2  L 2 8  L 22 8  L 22 2  Z " stroke-width="0" stroke-dasharray="0" stroke="rgba(255, 255, 255, 0)" fill="none" transform="matrix(1 0 0 1 4 4 )" class="stroke" mask="url(#Clip3446)" />
  </g>
</svg>