<?xml version="1.0" encoding="utf-8"?>
<svg version="1.1" xmlns:xlink="http://www.w3.org/1999/xlink" width="50px" height="46px" xmlns="http://www.w3.org/2000/svg">
  <defs>
    <pattern id="BGPattern" patternUnits="userSpaceOnUse" alignment="0 0" imageRepeat="None" />
    <mask fill="white" id="Clip2409">
      <path d="M 0 4.875  C 0 5.15  0.22499999999999964 5.375  0.5 6  L 31.5 6  C 31.775 5.375  32 5.15  32 4.875  L 32 1.375  C 32 1.0999999999999996  31.775 0.875  31.5 1  L 0.5 1  C 0.22499999999999964 0.875  0 1.0999999999999996  0 1.375  L 0 4.875  Z M 0 31.375  C 0 31.65  0.22499999999999964 31.875  0.5 31  L 31.5 31  C 31.775 31.875  32 31.65  32 31.375  L 32 27.875  C 32 27.599999999999998  31.775 27.375  31.5 27  L 0.5 27  C 0.22499999999999964 27.375  0 27.599999999999998  0 27.875  L 0 31.375  Z M 50 41.125  C 50 40.85  49.775 40.625  49.5 40  L 0.5 40  C 0.22499999999999964 40.625  0 40.85  0 41.125  L 0 44.625  C 0 44.9  0.22499999999999964 45.125  0.5 45  L 49.5 45  C 49.775 45.125  50 44.9  50 44.625  L 50 41.125  Z M 50 14.625000000000002  C 50 14.350000000000001  49.775 14.124999999999998  49.5 15  L 0.5 15  C 0.22499999999999964 14.124999999999998  0 14.350000000000001  0 14.625000000000002  L 0 18.125  C 0 18.4  0.22499999999999964 18.625  0.5 19  L 49.5 19  C 49.775 18.625  50 18.4  50 18.125  L 50 14.625000000000002  Z " fill-rule="evenodd" />
    </mask>
  </defs>
  <g>
    <path d="M 0 4.875  C 0 5.15  0.22499999999999964 5.375  0.5 6  L 31.5 6  C 31.775 5.375  32 5.15  32 4.875  L 32 1.375  C 32 1.0999999999999996  31.775 0.875  31.5 1  L 0.5 1  C 0.22499999999999964 0.875  0 1.0999999999999996  0 1.375  L 0 4.875  Z M 0 31.375  C 0 31.65  0.22499999999999964 31.875  0.5 31  L 31.5 31  C 31.775 31.875  32 31.65  32 31.375  L 32 27.875  C 32 27.599999999999998  31.775 27.375  31.5 27  L 0.5 27  C 0.22499999999999964 27.375  0 27.599999999999998  0 27.875  L 0 31.375  Z M 50 41.125  C 50 40.85  49.775 40.625  49.5 40  L 0.5 40  C 0.22499999999999964 40.625  0 40.85  0 41.125  L 0 44.625  C 0 44.9  0.22499999999999964 45.125  0.5 45  L 49.5 45  C 49.775 45.125  50 44.9  50 44.625  L 50 41.125  Z M 50 14.625000000000002  C 50 14.350000000000001  49.775 14.124999999999998  49.5 15  L 0.5 15  C 0.22499999999999964 14.124999999999998  0 14.350000000000001  0 14.625000000000002  L 0 18.125  C 0 18.4  0.22499999999999964 18.625  0.5 19  L 49.5 19  C 49.775 18.625  50 18.4  50 18.125  L 50 14.625000000000002  Z " fill-rule="nonzero" fill="rgba(0, 0, 0, 1)" stroke="none" class="fill" />
    <path d="M 0 4.875  C 0 5.15  0.22499999999999964 5.375  0.5 6  L 31.5 6  C 31.775 5.375  32 5.15  32 4.875  L 32 1.375  C 32 1.0999999999999996  31.775 0.875  31.5 1  L 0.5 1  C 0.22499999999999964 0.875  0 1.0999999999999996  0 1.375  L 0 4.875  Z " stroke-width="0" stroke-dasharray="0" stroke="rgba(255, 255, 255, 0)" fill="none" class="stroke" mask="url(#Clip2409)" />
    <path d="M 0 31.375  C 0 31.65  0.22499999999999964 31.875  0.5 31  L 31.5 31  C 31.775 31.875  32 31.65  32 31.375  L 32 27.875  C 32 27.599999999999998  31.775 27.375  31.5 27  L 0.5 27  C 0.22499999999999964 27.375  0 27.599999999999998  0 27.875  L 0 31.375  Z " stroke-width="0" stroke-dasharray="0" stroke="rgba(255, 255, 255, 0)" fill="none" class="stroke" mask="url(#Clip2409)" />
    <path d="M 50 41.125  C 50 40.85  49.775 40.625  49.5 40  L 0.5 40  C 0.22499999999999964 40.625  0 40.85  0 41.125  L 0 44.625  C 0 44.9  0.22499999999999964 45.125  0.5 45  L 49.5 45  C 49.775 45.125  50 44.9  50 44.625  L 50 41.125  Z " stroke-width="0" stroke-dasharray="0" stroke="rgba(255, 255, 255, 0)" fill="none" class="stroke" mask="url(#Clip2409)" />
    <path d="M 50 14.625000000000002  C 50 14.350000000000001  49.775 14.124999999999998  49.5 15  L 0.5 15  C 0.22499999999999964 14.124999999999998  0 14.350000000000001  0 14.625000000000002  L 0 18.125  C 0 18.4  0.22499999999999964 18.625  0.5 19  L 49.5 19  C 49.775 18.625  50 18.4  50 18.125  L 50 14.625000000000002  Z " stroke-width="0" stroke-dasharray="0" stroke="rgba(255, 255, 255, 0)" fill="none" class="stroke" mask="url(#Clip2409)" />
  </g>
</svg>