<?xml version="1.0" encoding="utf-8"?>
<svg version="1.1" xmlns:xlink="http://www.w3.org/1999/xlink" width="11px" height="11px" xmlns="http://www.w3.org/2000/svg">
  <defs>
    <pattern id="BGPattern" patternUnits="userSpaceOnUse" alignment="0 0" imageRepeat="None" />
    <mask fill="white" id="Clip6329">
      <path d="M 10.25 2  L 2.75 2  C 2.335786437626904 2  2 2.335786437626904  2 2.75  L 2 10.25  L 0.5 10.25  L 0.5 2.75  C 0.5 1.5073593128807161  1.5073593128807161 0.5  2.75 0.5  L 10.25 0.5  L 10.25 2  Z " fill-rule="evenodd" />
    </mask>
  </defs>
  <g transform="matrix(1 0 0 1 -13 -13 )">
    <path d="M 10.25 2  L 2.75 2  C 2.335786437626904 2  2 2.335786437626904  2 2.75  L 2 10.25  L 0.5 10.25  L 0.5 2.75  C 0.5 1.5073593128807161  1.5073593128807161 0.5  2.75 0.5  L 10.25 0.5  L 10.25 2  Z " fill-rule="nonzero" fill="rgba(0, 0, 0, 1)" stroke="none" transform="matrix(1 0 0 1 13 13 )" class="fill" />
    <path d="M 10.25 2  L 2.75 2  C 2.335786437626904 2  2 2.335786437626904  2 2.75  L 2 10.25  L 0.5 10.25  L 0.5 2.75  C 0.5 1.5073593128807161  1.5073593128807161 0.5  2.75 0.5  L 10.25 0.5  L 10.25 2  Z " stroke-width="0" stroke-dasharray="0" stroke="rgba(255, 255, 255, 0)" fill="none" transform="matrix(1 0 0 1 13 13 )" class="stroke" mask="url(#Clip6329)" />
  </g>
</svg>