<?xml version="1.0" encoding="utf-8"?>
<svg version="1.1" xmlns:xlink="http://www.w3.org/1999/xlink" width="24px" height="24px" xmlns="http://www.w3.org/2000/svg">
  <defs>
    <pattern id="BGPattern" patternUnits="userSpaceOnUse" alignment="0 0" imageRepeat="None" />
    <mask fill="white" id="Clip5122">
      <path d="M 12 0  C 18.627416997969522 0  24 5.372583002030479  24 12  C 24 18.627416997969522  18.627416997969522 24  12 24  C 5.372583002030479 24  0 18.627416997969522  0 12  C 0 5.372583002030479  5.372583002030479 0  12 0  Z M 18.0465 7.455  L 18.044999999999998 7.455000000000001  C 17.834135763001207 7.2448717173332575  17.54858384264196 7.126884548937467  17.25089672229317 7.126884548937467  C 16.937299590456796 7.126884548937467  16.63793511431192 7.257778805951823  16.424999999999997 7.488000000000001  L 11.2155 14.125499999999999  L 8.076 10.984499999999999  C 7.867756230607573 10.790456432364147  7.593699697166086 10.682562430400795  7.309062430400793 10.682562430400795  C 6.68774208684115 10.682562430400795  6.184062430400793 11.186242086841151  6.184062430400793 11.807562430400795  C 6.184062430400793 12.092199697166087  6.291956432364146 12.366256230607574  6.486 12.5745  L 10.455 16.544999999999998  C 10.665919154068957 16.755534919017897  10.951756397473968 16.87377995789012  11.249769554363118 16.87377995789012  C 11.562258612565156 16.87377995789012  11.860668551702718 16.74380600103948  12.0735 16.515  L 18.061500000000002 9.03  C 18.48614689132009 8.588478238280272  18.479479040438402 7.88835389570298  18.0465 7.455  Z " fill-rule="evenodd" />
    </mask>
  </defs>
  <g>
    <path d="M 12 0  C 18.627416997969522 0  24 5.372583002030479  24 12  C 24 18.627416997969522  18.627416997969522 24  12 24  C 5.372583002030479 24  0 18.627416997969522  0 12  C 0 5.372583002030479  5.372583002030479 0  12 0  Z M 18.0465 7.455  L 18.044999999999998 7.455000000000001  C 17.834135763001207 7.2448717173332575  17.54858384264196 7.126884548937467  17.25089672229317 7.126884548937467  C 16.937299590456796 7.126884548937467  16.63793511431192 7.257778805951823  16.424999999999997 7.488000000000001  L 11.2155 14.125499999999999  L 8.076 10.984499999999999  C 7.867756230607573 10.790456432364147  7.593699697166086 10.682562430400795  7.309062430400793 10.682562430400795  C 6.68774208684115 10.682562430400795  6.184062430400793 11.186242086841151  6.184062430400793 11.807562430400795  C 6.184062430400793 12.092199697166087  6.291956432364146 12.366256230607574  6.486 12.5745  L 10.455 16.544999999999998  C 10.665919154068957 16.755534919017897  10.951756397473968 16.87377995789012  11.249769554363118 16.87377995789012  C 11.562258612565156 16.87377995789012  11.860668551702718 16.74380600103948  12.0735 16.515  L 18.061500000000002 9.03  C 18.48614689132009 8.588478238280272  18.479479040438402 7.88835389570298  18.0465 7.455  Z " fill-rule="nonzero" fill="rgba(0, 0, 0, 1)" stroke="none" class="fill" />
    <path d="M 12 0  C 18.627416997969522 0  24 5.372583002030479  24 12  C 24 18.627416997969522  18.627416997969522 24  12 24  C 5.372583002030479 24  0 18.627416997969522  0 12  C 0 5.372583002030479  5.372583002030479 0  12 0  Z " stroke-width="0" stroke-dasharray="0" stroke="rgba(255, 255, 255, 0)" fill="none" class="stroke" mask="url(#Clip5122)" />
    <path d="M 18.0465 7.455  L 18.044999999999998 7.455000000000001  C 17.834135763001207 7.2448717173332575  17.54858384264196 7.126884548937467  17.25089672229317 7.126884548937467  C 16.937299590456796 7.126884548937467  16.63793511431192 7.257778805951823  16.424999999999997 7.488000000000001  L 11.2155 14.125499999999999  L 8.076 10.984499999999999  C 7.867756230607573 10.790456432364147  7.593699697166086 10.682562430400795  7.309062430400793 10.682562430400795  C 6.68774208684115 10.682562430400795  6.184062430400793 11.186242086841151  6.184062430400793 11.807562430400795  C 6.184062430400793 12.092199697166087  6.291956432364146 12.366256230607574  6.486 12.5745  L 10.455 16.544999999999998  C 10.665919154068957 16.755534919017897  10.951756397473968 16.87377995789012  11.249769554363118 16.87377995789012  C 11.562258612565156 16.87377995789012  11.860668551702718 16.74380600103948  12.0735 16.515  L 18.061500000000002 9.03  C 18.48614689132009 8.588478238280272  18.479479040438402 7.88835389570298  18.0465 7.455  Z " stroke-width="0" stroke-dasharray="0" stroke="rgba(255, 255, 255, 0)" fill="none" class="stroke" mask="url(#Clip5122)" />
  </g>
</svg>