<?xml version="1.0" encoding="utf-8"?>
<svg version="1.1" xmlns:xlink="http://www.w3.org/1999/xlink" width="44px" height="53px" xmlns="http://www.w3.org/2000/svg">
  <defs>
    <pattern id="BGPattern" patternUnits="userSpaceOnUse" alignment="0 0" imageRepeat="None" />
    <mask fill="white" id="Clip2191">
      <path d="M 43.87499999999999 38.150000000000006  C 36.30624999999999 34.581250000000004  36.71249999999999 27.700000000000006  36.7125 27.481250000000003  C 36.6875 23.218750000000004  38.61875 20.00625  42.51875 17.637500000000003  C 40.3375 14.512500000000003  37.037499999999994 12.793750000000003  32.6875 12.462500000000002  C 28.56875 12.137500000000003  24.0625 14.8625  22.4125 14.8625  C 20.668750000000003 14.8625  16.681250000000002 12.575  13.543750000000003 12.575  C 7.0687500000000005 12.675  0.1875 17.7375  0.1875 28.0375  C 0.1875 31.081250000000008  0.7437500000000002 34.225  1.8562499999999993 37.462500000000006  C 3.34375 41.72500000000001  8.706249999999997 52.16875  14.299999999999997 52.00000000000001  C 17.224999999999998 51.931250000000006  19.293749999999996 49.925000000000004  23.099999999999994 49.925000000000004  C 26.793749999999996 49.925000000000004  28.706249999999997 52.00000000000001  31.968749999999996 52.00000000000001  C 37.61249999999999 51.91875000000001  42.46249999999999 42.42500000000001  43.87499999999999 38.150000000000006  Z M 22.08125 12.400000000000006  C 25.106249999999992 12.631250000000005  27.86875 11.075000000000006  30.143749999999997 8.418750000000003  C 33.3125 4.6562500000000036  33.025 1.2312500000000028  32.93125 0  C 30.13125 0.1625000000000032  26.89375 1.9062500000000036  25.049999999999997 4.050000000000004  C 23.018749999999997 6.350000000000005  21.824999999999996 9.193750000000005  22.08125 12.400000000000006  Z " fill-rule="evenodd" />
    </mask>
  </defs>
  <g>
    <path d="M 43.87499999999999 38.150000000000006  C 36.30624999999999 34.581250000000004  36.71249999999999 27.700000000000006  36.7125 27.481250000000003  C 36.6875 23.218750000000004  38.61875 20.00625  42.51875 17.637500000000003  C 40.3375 14.512500000000003  37.037499999999994 12.793750000000003  32.6875 12.462500000000002  C 28.56875 12.137500000000003  24.0625 14.8625  22.4125 14.8625  C 20.668750000000003 14.8625  16.681250000000002 12.575  13.543750000000003 12.575  C 7.0687500000000005 12.675  0.1875 17.7375  0.1875 28.0375  C 0.1875 31.081250000000008  0.7437500000000002 34.225  1.8562499999999993 37.462500000000006  C 3.34375 41.72500000000001  8.706249999999997 52.16875  14.299999999999997 52.00000000000001  C 17.224999999999998 51.931250000000006  19.293749999999996 49.925000000000004  23.099999999999994 49.925000000000004  C 26.793749999999996 49.925000000000004  28.706249999999997 52.00000000000001  31.968749999999996 52.00000000000001  C 37.61249999999999 51.91875000000001  42.46249999999999 42.42500000000001  43.87499999999999 38.150000000000006  Z M 22.08125 12.400000000000006  C 25.106249999999992 12.631250000000005  27.86875 11.075000000000006  30.143749999999997 8.418750000000003  C 33.3125 4.6562500000000036  33.025 1.2312500000000028  32.93125 0  C 30.13125 0.1625000000000032  26.89375 1.9062500000000036  25.049999999999997 4.050000000000004  C 23.018749999999997 6.350000000000005  21.824999999999996 9.193750000000005  22.08125 12.400000000000006  Z " fill-rule="nonzero" fill="rgba(0, 0, 0, 1)" stroke="none" class="fill" />
    <path d="M 43.87499999999999 38.150000000000006  C 36.30624999999999 34.581250000000004  36.71249999999999 27.700000000000006  36.7125 27.481250000000003  C 36.6875 23.218750000000004  38.61875 20.00625  42.51875 17.637500000000003  C 40.3375 14.512500000000003  37.037499999999994 12.793750000000003  32.6875 12.462500000000002  C 28.56875 12.137500000000003  24.0625 14.8625  22.4125 14.8625  C 20.668750000000003 14.8625  16.681250000000002 12.575  13.543750000000003 12.575  C 7.0687500000000005 12.675  0.1875 17.7375  0.1875 28.0375  C 0.1875 31.081250000000008  0.7437500000000002 34.225  1.8562499999999993 37.462500000000006  C 3.34375 41.72500000000001  8.706249999999997 52.16875  14.299999999999997 52.00000000000001  C 17.224999999999998 51.931250000000006  19.293749999999996 49.925000000000004  23.099999999999994 49.925000000000004  C 26.793749999999996 49.925000000000004  28.706249999999997 52.00000000000001  31.968749999999996 52.00000000000001  C 37.61249999999999 51.91875000000001  42.46249999999999 42.42500000000001  43.87499999999999 38.150000000000006  Z " stroke-width="0" stroke-dasharray="0" stroke="rgba(255, 255, 255, 0)" fill="none" class="stroke" mask="url(#Clip2191)" />
    <path d="M 22.08125 12.400000000000006  C 25.106249999999992 12.631250000000005  27.86875 11.075000000000006  30.143749999999997 8.418750000000003  C 33.3125 4.6562500000000036  33.025 1.2312500000000028  32.93125 0  C 30.13125 0.1625000000000032  26.89375 1.9062500000000036  25.049999999999997 4.050000000000004  C 23.018749999999997 6.350000000000005  21.824999999999996 9.193750000000005  22.08125 12.400000000000006  Z " stroke-width="0" stroke-dasharray="0" stroke="rgba(255, 255, 255, 0)" fill="none" class="stroke" mask="url(#Clip2191)" />
  </g>
</svg>