<?xml version="1.0" encoding="utf-8"?>
<svg version="1.1" xmlns:xlink="http://www.w3.org/1999/xlink" width="27px" height="32px" xmlns="http://www.w3.org/2000/svg">
  <defs>
    <pattern id="BGPattern" patternUnits="userSpaceOnUse" alignment="0 0" imageRepeat="None" />
    <mask fill="white" id="Clip194">
      <path d="M 26.424000000000003 29.024  C 26.872000000000003 30.384  25.784000000000002 31.472  24.424 31.024  L 19.08 29.28  C 18.759999999999998 29.168000000000003  18.439999999999998 29.200000000000003  18.119999999999997 29.328  C 16.551999999999996 30.016  14.823999999999998 30.4  12.999999999999996 30.4  C 5.927999999999997 30.4  0.19999999999999574 24.671999999999997  0.19999999999999574 17.599999999999998  C 0.19999999999999574 10.527999999999999  5.9279999999999955 4.799999999999997  12.999999999999996 4.799999999999997  L 14.599999999999998 4.799999999999997  L 12.087999999999997 2.287999999999997  C 11.863999999999997 2.063999999999997  11.735999999999997 1.7599999999999971  11.735999999999997 1.4559999999999973  C 11.735999999999997 1.1519999999999975  11.863999999999997 0.8319999999999973  12.103999999999997 0.5919999999999973  C 12.343999999999998 0.36799999999999733  12.647999999999998 0.23999999999999733  12.951999999999998 0.23999999999999733  C 13.256 0.23999999999999733  13.559999999999997 0.36799999999999733  13.783999999999999 0.5919999999999973  L 18.343999999999998 5.151999999999997  C 18.503999999999998 5.311999999999997  18.711999999999996 5.615999999999997  18.711999999999996 5.9999999999999964  C 18.711999999999996 6.303999999999997  18.567999999999998 6.607999999999996  18.343999999999998 6.847999999999996  L 13.959999999999997 11.247999999999998  C 13.735999999999997 11.487999999999998  13.415999999999997 11.599999999999998  13.111999999999998 11.599999999999998  C 12.823999999999998 11.599999999999998  12.519999999999998 11.503999999999998  12.311999999999998 11.279999999999998  C 12.055999999999997 11.039999999999997  11.911999999999997 10.719999999999997  11.911999999999997 10.399999999999997  C 11.911999999999997 10.095999999999997  12.039999999999997 9.791999999999996  12.263999999999998 9.567999999999996  L 14.599999999999998 7.199999999999996  L 12.999999999999998 7.199999999999996  C 7.271999999999998 7.199999999999996  2.599999999999998 11.871999999999996  2.599999999999998 17.599999999999994  C 2.599999999999998 23.327999999999992  7.271999999999998 27.999999999999993  12.999999999999998 27.999999999999993  C 14.68 27.999999999999993  16.2 27.631999999999994  17.624 26.927999999999994  C 18.119999999999997 26.671999999999993  18.648 26.607999999999993  19.176 26.783999999999995  L 23.64 28.239999999999995  L 22.184 23.775999999999996  C 22.008000000000003 23.247999999999998  22.072000000000003 22.719999999999995  22.328 22.223999999999997  C 23.032 20.799999999999997  23.4 19.279999999999998  23.4 17.599999999999998  C 23.4 15.231999999999998  22.599999999999998 13.04  21.256 11.279999999999998  C 20.872 10.783999999999997  20.92 10.095999999999998  21.384 9.663999999999998  C 21.896 9.199999999999998  22.696 9.247999999999998  23.144000000000002 9.791999999999998  C 24.808000000000003 11.951999999999998  25.8 14.655999999999999  25.8 17.599999999999998  C 25.8 19.424  25.416 21.151999999999997  24.728 22.72  C 24.6 23.04  24.568 23.36  24.680000000000003 23.68  L 26.424000000000003 29.024  Z " fill-rule="evenodd" />
    </mask>
  </defs>
  <g>
    <path d="M 26.424000000000003 29.024  C 26.872000000000003 30.384  25.784000000000002 31.472  24.424 31.024  L 19.08 29.28  C 18.759999999999998 29.168000000000003  18.439999999999998 29.200000000000003  18.119999999999997 29.328  C 16.551999999999996 30.016  14.823999999999998 30.4  12.999999999999996 30.4  C 5.927999999999997 30.4  0.19999999999999574 24.671999999999997  0.19999999999999574 17.599999999999998  C 0.19999999999999574 10.527999999999999  5.9279999999999955 4.799999999999997  12.999999999999996 4.799999999999997  L 14.599999999999998 4.799999999999997  L 12.087999999999997 2.287999999999997  C 11.863999999999997 2.063999999999997  11.735999999999997 1.7599999999999971  11.735999999999997 1.4559999999999973  C 11.735999999999997 1.1519999999999975  11.863999999999997 0.8319999999999973  12.103999999999997 0.5919999999999973  C 12.343999999999998 0.36799999999999733  12.647999999999998 0.23999999999999733  12.951999999999998 0.23999999999999733  C 13.256 0.23999999999999733  13.559999999999997 0.36799999999999733  13.783999999999999 0.5919999999999973  L 18.343999999999998 5.151999999999997  C 18.503999999999998 5.311999999999997  18.711999999999996 5.615999999999997  18.711999999999996 5.9999999999999964  C 18.711999999999996 6.303999999999997  18.567999999999998 6.607999999999996  18.343999999999998 6.847999999999996  L 13.959999999999997 11.247999999999998  C 13.735999999999997 11.487999999999998  13.415999999999997 11.599999999999998  13.111999999999998 11.599999999999998  C 12.823999999999998 11.599999999999998  12.519999999999998 11.503999999999998  12.311999999999998 11.279999999999998  C 12.055999999999997 11.039999999999997  11.911999999999997 10.719999999999997  11.911999999999997 10.399999999999997  C 11.911999999999997 10.095999999999997  12.039999999999997 9.791999999999996  12.263999999999998 9.567999999999996  L 14.599999999999998 7.199999999999996  L 12.999999999999998 7.199999999999996  C 7.271999999999998 7.199999999999996  2.599999999999998 11.871999999999996  2.599999999999998 17.599999999999994  C 2.599999999999998 23.327999999999992  7.271999999999998 27.999999999999993  12.999999999999998 27.999999999999993  C 14.68 27.999999999999993  16.2 27.631999999999994  17.624 26.927999999999994  C 18.119999999999997 26.671999999999993  18.648 26.607999999999993  19.176 26.783999999999995  L 23.64 28.239999999999995  L 22.184 23.775999999999996  C 22.008000000000003 23.247999999999998  22.072000000000003 22.719999999999995  22.328 22.223999999999997  C 23.032 20.799999999999997  23.4 19.279999999999998  23.4 17.599999999999998  C 23.4 15.231999999999998  22.599999999999998 13.04  21.256 11.279999999999998  C 20.872 10.783999999999997  20.92 10.095999999999998  21.384 9.663999999999998  C 21.896 9.199999999999998  22.696 9.247999999999998  23.144000000000002 9.791999999999998  C 24.808000000000003 11.951999999999998  25.8 14.655999999999999  25.8 17.599999999999998  C 25.8 19.424  25.416 21.151999999999997  24.728 22.72  C 24.6 23.04  24.568 23.36  24.680000000000003 23.68  L 26.424000000000003 29.024  Z " fill-rule="nonzero" fill="rgba(0, 0, 0, 1)" stroke="none" class="fill" />
    <path d="M 26.424000000000003 29.024  C 26.872000000000003 30.384  25.784000000000002 31.472  24.424 31.024  L 19.08 29.28  C 18.759999999999998 29.168000000000003  18.439999999999998 29.200000000000003  18.119999999999997 29.328  C 16.551999999999996 30.016  14.823999999999998 30.4  12.999999999999996 30.4  C 5.927999999999997 30.4  0.19999999999999574 24.671999999999997  0.19999999999999574 17.599999999999998  C 0.19999999999999574 10.527999999999999  5.9279999999999955 4.799999999999997  12.999999999999996 4.799999999999997  L 14.599999999999998 4.799999999999997  L 12.087999999999997 2.287999999999997  C 11.863999999999997 2.063999999999997  11.735999999999997 1.7599999999999971  11.735999999999997 1.4559999999999973  C 11.735999999999997 1.1519999999999975  11.863999999999997 0.8319999999999973  12.103999999999997 0.5919999999999973  C 12.343999999999998 0.36799999999999733  12.647999999999998 0.23999999999999733  12.951999999999998 0.23999999999999733  C 13.256 0.23999999999999733  13.559999999999997 0.36799999999999733  13.783999999999999 0.5919999999999973  L 18.343999999999998 5.151999999999997  C 18.503999999999998 5.311999999999997  18.711999999999996 5.615999999999997  18.711999999999996 5.9999999999999964  C 18.711999999999996 6.303999999999997  18.567999999999998 6.607999999999996  18.343999999999998 6.847999999999996  L 13.959999999999997 11.247999999999998  C 13.735999999999997 11.487999999999998  13.415999999999997 11.599999999999998  13.111999999999998 11.599999999999998  C 12.823999999999998 11.599999999999998  12.519999999999998 11.503999999999998  12.311999999999998 11.279999999999998  C 12.055999999999997 11.039999999999997  11.911999999999997 10.719999999999997  11.911999999999997 10.399999999999997  C 11.911999999999997 10.095999999999997  12.039999999999997 9.791999999999996  12.263999999999998 9.567999999999996  L 14.599999999999998 7.199999999999996  L 12.999999999999998 7.199999999999996  C 7.271999999999998 7.199999999999996  2.599999999999998 11.871999999999996  2.599999999999998 17.599999999999994  C 2.599999999999998 23.327999999999992  7.271999999999998 27.999999999999993  12.999999999999998 27.999999999999993  C 14.68 27.999999999999993  16.2 27.631999999999994  17.624 26.927999999999994  C 18.119999999999997 26.671999999999993  18.648 26.607999999999993  19.176 26.783999999999995  L 23.64 28.239999999999995  L 22.184 23.775999999999996  C 22.008000000000003 23.247999999999998  22.072000000000003 22.719999999999995  22.328 22.223999999999997  C 23.032 20.799999999999997  23.4 19.279999999999998  23.4 17.599999999999998  C 23.4 15.231999999999998  22.599999999999998 13.04  21.256 11.279999999999998  C 20.872 10.783999999999997  20.92 10.095999999999998  21.384 9.663999999999998  C 21.896 9.199999999999998  22.696 9.247999999999998  23.144000000000002 9.791999999999998  C 24.808000000000003 11.951999999999998  25.8 14.655999999999999  25.8 17.599999999999998  C 25.8 19.424  25.416 21.151999999999997  24.728 22.72  C 24.6 23.04  24.568 23.36  24.680000000000003 23.68  L 26.424000000000003 29.024  Z " stroke-width="0" stroke-dasharray="0" stroke="rgba(255, 255, 255, 0)" fill="none" class="stroke" mask="url(#Clip194)" />
  </g>
</svg>