<?xml version="1.0" encoding="utf-8"?>
<svg version="1.1" xmlns:xlink="http://www.w3.org/1999/xlink" width="50px" height="50px" xmlns="http://www.w3.org/2000/svg">
  <defs>
    <pattern id="BGPattern" patternUnits="userSpaceOnUse" alignment="0 0" imageRepeat="None" />
    <mask fill="white" id="Clip2443">
      <path d="M 50 2  C 50 0.8937499999999997  49.10625 0  48 0  L 2 0  C 0.8937499999999997 0  0 0.8937499999999997  0 2  L 0 48  C 0 49.10625  0.8937499999999997 50  2 50  L 48 50  C 49.10625 50  50 49.10625  50 48  L 50 2  Z M 45 5  L 45 45  L 5 45  L 5 5  L 45 5  Z " fill-rule="evenodd" />
    </mask>
  </defs>
  <g>
    <path d="M 50 2  C 50 0.8937499999999997  49.10625 0  48 0  L 2 0  C 0.8937499999999997 0  0 0.8937499999999997  0 2  L 0 48  C 0 49.10625  0.8937499999999997 50  2 50  L 48 50  C 49.10625 50  50 49.10625  50 48  L 50 2  Z M 45 5  L 45 45  L 5 45  L 5 5  L 45 5  Z " fill-rule="nonzero" fill="rgba(0, 0, 0, 1)" stroke="none" class="fill" />
    <path d="M 50 2  C 50 0.8937499999999997  49.10625 0  48 0  L 2 0  C 0.8937499999999997 0  0 0.8937499999999997  0 2  L 0 48  C 0 49.10625  0.8937499999999997 50  2 50  L 48 50  C 49.10625 50  50 49.10625  50 48  L 50 2  Z " stroke-width="0" stroke-dasharray="0" stroke="rgba(255, 255, 255, 0)" fill="none" class="stroke" mask="url(#Clip2443)" />
    <path d="M 45 5  L 45 45  L 5 45  L 5 5  L 45 5  Z " stroke-width="0" stroke-dasharray="0" stroke="rgba(255, 255, 255, 0)" fill="none" class="stroke" mask="url(#Clip2443)" />
  </g>
</svg>