<?xml version="1.0" encoding="utf-8"?>
<svg version="1.1" xmlns:xlink="http://www.w3.org/1999/xlink" width="17px" height="18px" xmlns="http://www.w3.org/2000/svg">
  <defs>
    <pattern id="BGPattern" patternUnits="userSpaceOnUse" alignment="0 0" imageRepeat="None" />
    <mask fill="white" id="Clip4914">
      <path d="M 15 12.75  L 15 15.75  C 15 16.164213562373096  14.664213562373096 16.5  14.25 16.5  L 2.25 16.5  C 1.835786437626905 16.5  1.5 16.164213562373096  1.5 15.75  L 1.5 2.25  C 1.5 1.835786437626905  1.835786437626905 1.5  2.25 1.5  L 14.25 1.5  C 14.664213562373096 1.5  15 1.835786437626905  15 2.25  L 15 5.25  C 15 5.664213562373096  15.335786437626904 6  15.75 6  C 16.164213562373096 6  16.5 5.664213562373096  16.5 5.25  L 16.5 2.249999999999999  C 16.5 1.0073593128807143  15.492640687119284 0  14.25 0  L 2.25 0  C 1.0073593128807152 0  0 1.0073593128807143  0 2.25  L 0 15.749999999999996  C 0 16.992640687119284  1.0073593128807148 17.999999999999996  2.25 18  L 14.25 17.999999999999996  C 15.492640687119284 17.999999999999996  16.5 16.992640687119284  16.5 15.75  L 16.5 12.75  C 16.5 12.335786437626904  16.164213562373096 12  15.75 12  C 15.335786437626904 12  15 12.335786437626904  15 12.75  Z " fill-rule="evenodd" />
    </mask>
  </defs>
  <g>
    <path d="M 15 12.75  L 15 15.75  C 15 16.164213562373096  14.664213562373096 16.5  14.25 16.5  L 2.25 16.5  C 1.835786437626905 16.5  1.5 16.164213562373096  1.5 15.75  L 1.5 2.25  C 1.5 1.835786437626905  1.835786437626905 1.5  2.25 1.5  L 14.25 1.5  C 14.664213562373096 1.5  15 1.835786437626905  15 2.25  L 15 5.25  C 15 5.664213562373096  15.335786437626904 6  15.75 6  C 16.164213562373096 6  16.5 5.664213562373096  16.5 5.25  L 16.5 2.249999999999999  C 16.5 1.0073593128807143  15.492640687119284 0  14.25 0  L 2.25 0  C 1.0073593128807152 0  0 1.0073593128807143  0 2.25  L 0 15.749999999999996  C 0 16.992640687119284  1.0073593128807148 17.999999999999996  2.25 18  L 14.25 17.999999999999996  C 15.492640687119284 17.999999999999996  16.5 16.992640687119284  16.5 15.75  L 16.5 12.75  C 16.5 12.335786437626904  16.164213562373096 12  15.75 12  C 15.335786437626904 12  15 12.335786437626904  15 12.75  Z " fill-rule="nonzero" fill="rgba(0, 0, 0, 1)" stroke="none" class="fill" />
    <path d="M 15 12.75  L 15 15.75  C 15 16.164213562373096  14.664213562373096 16.5  14.25 16.5  L 2.25 16.5  C 1.835786437626905 16.5  1.5 16.164213562373096  1.5 15.75  L 1.5 2.25  C 1.5 1.835786437626905  1.835786437626905 1.5  2.25 1.5  L 14.25 1.5  C 14.664213562373096 1.5  15 1.835786437626905  15 2.25  L 15 5.25  C 15 5.664213562373096  15.335786437626904 6  15.75 6  C 16.164213562373096 6  16.5 5.664213562373096  16.5 5.25  L 16.5 2.249999999999999  C 16.5 1.0073593128807143  15.492640687119284 0  14.25 0  L 2.25 0  C 1.0073593128807152 0  0 1.0073593128807143  0 2.25  L 0 15.749999999999996  C 0 16.992640687119284  1.0073593128807148 17.999999999999996  2.25 18  L 14.25 17.999999999999996  C 15.492640687119284 17.999999999999996  16.5 16.992640687119284  16.5 15.75  L 16.5 12.75  C 16.5 12.335786437626904  16.164213562373096 12  15.75 12  C 15.335786437626904 12  15 12.335786437626904  15 12.75  Z " stroke-width="0" stroke-dasharray="0" stroke="rgba(255, 255, 255, 0)" fill="none" class="stroke" mask="url(#Clip4914)" />
  </g>
</svg>