<?xml version="1.0" encoding="utf-8"?>
<svg version="1.1" xmlns:xlink="http://www.w3.org/1999/xlink" width="24px" height="24px" xmlns="http://www.w3.org/2000/svg">
  <defs>
    <pattern id="BGPattern" patternUnits="userSpaceOnUse" alignment="0 0" imageRepeat="None" />
    <mask fill="white" id="Clip5187">
      <path d="M 12 0  C 18.627416997969522 0  24 5.372583002030479  24 12  C 24 18.627416997969522  18.627416997969522 24  12 24  C 5.372583002030479 24  0 18.627416997969522  0 12  C 0 5.372583002030479  5.372583002030479 0  12 0  Z M 12 13.065000000000001  L 12 5.25  C 12 4.835786437626905  11.664213562373096 4.5  11.25 4.5  C 10.835786437626904 4.5  10.5 4.835786437626905  10.5 5.25  L 10.5 13.5  C 10.5000867980252 13.769099061184772  10.644335204715833 14.017526872707531  10.878 14.151  L 16.128 17.151  C 16.237534196320247 17.210197470924868  16.36008286079831 17.241194407371545  16.4845902129002 17.241194407371545  C 16.898803775273294 17.241194407371545  17.2345902129002 16.90540796974464  17.2345902129002 16.491194407371545  C 17.2345902129002 16.228386976749633  17.097031282881435 15.984752227660639  16.872 15.848999999999998  L 12 13.065000000000001  Z " fill-rule="evenodd" />
    </mask>
  </defs>
  <g>
    <path d="M 12 0  C 18.627416997969522 0  24 5.372583002030479  24 12  C 24 18.627416997969522  18.627416997969522 24  12 24  C 5.372583002030479 24  0 18.627416997969522  0 12  C 0 5.372583002030479  5.372583002030479 0  12 0  Z M 12 13.065000000000001  L 12 5.25  C 12 4.835786437626905  11.664213562373096 4.5  11.25 4.5  C 10.835786437626904 4.5  10.5 4.835786437626905  10.5 5.25  L 10.5 13.5  C 10.5000867980252 13.769099061184772  10.644335204715833 14.017526872707531  10.878 14.151  L 16.128 17.151  C 16.237534196320247 17.210197470924868  16.36008286079831 17.241194407371545  16.4845902129002 17.241194407371545  C 16.898803775273294 17.241194407371545  17.2345902129002 16.90540796974464  17.2345902129002 16.491194407371545  C 17.2345902129002 16.228386976749633  17.097031282881435 15.984752227660639  16.872 15.848999999999998  L 12 13.065000000000001  Z " fill-rule="nonzero" fill="rgba(0, 0, 0, 1)" stroke="none" class="fill" />
    <path d="M 12 0  C 18.627416997969522 0  24 5.372583002030479  24 12  C 24 18.627416997969522  18.627416997969522 24  12 24  C 5.372583002030479 24  0 18.627416997969522  0 12  C 0 5.372583002030479  5.372583002030479 0  12 0  Z " stroke-width="0" stroke-dasharray="0" stroke="rgba(255, 255, 255, 0)" fill="none" class="stroke" mask="url(#Clip5187)" />
    <path d="M 12 13.065000000000001  L 12 5.25  C 12 4.835786437626905  11.664213562373096 4.5  11.25 4.5  C 10.835786437626904 4.5  10.5 4.835786437626905  10.5 5.25  L 10.5 13.5  C 10.5000867980252 13.769099061184772  10.644335204715833 14.017526872707531  10.878 14.151  L 16.128 17.151  C 16.237534196320247 17.210197470924868  16.36008286079831 17.241194407371545  16.4845902129002 17.241194407371545  C 16.898803775273294 17.241194407371545  17.2345902129002 16.90540796974464  17.2345902129002 16.491194407371545  C 17.2345902129002 16.228386976749633  17.097031282881435 15.984752227660639  16.872 15.848999999999998  L 12 13.065000000000001  Z " stroke-width="0" stroke-dasharray="0" stroke="rgba(255, 255, 255, 0)" fill="none" class="stroke" mask="url(#Clip5187)" />
  </g>
</svg>