<?xml version="1.0" encoding="utf-8"?>
<svg version="1.1" xmlns:xlink="http://www.w3.org/1999/xlink" width="50px" height="50px" xmlns="http://www.w3.org/2000/svg">
  <defs>
    <pattern id="BGPattern" patternUnits="userSpaceOnUse" alignment="0 0" imageRepeat="None" />
    <mask fill="white" id="Clip1832">
      <path d="M 48.52826510721246 7.2319688109161575  C 50.360623781676395 9.054580896686161  50.360623781676395 12.017543859649095  48.52826510721246 13.849902534113085  L 44.03508771929825 18.3430799220273  C 43.57699805068225 18.80116959064327  42.836257309941516 18.80116959064327  42.37816764132555 18.3430799220273  L 31.559454191033126 7.524366471734879  C 31.101364522417157 7.066276803118911  31.101364522417157 6.3255360623781485  31.559454191033126 5.8674463937621795  L 36.05263157894737 1.3742690058479639  C 37.875243664717345 -0.44834307992204  40.83820662768031 -0.44834307992204  42.67056530214424 1.3742690058479639  L 48.52826510721246 7.2319688109161575  Z M 29.366471734892798 9.727095516569193  C 28.898635477582847 9.269005847953224  28.15789473684211 9.269005847953224  27.699805068226112 9.727095516569193  L 2.10526315789474 35.321637426900566  L 0.03898635477582957 47.163742690058484  C -0.2436647173489348 48.76218323586744  1.1500974658869438 50.146198830409396  2.7485380116958993 49.87329434697858  L 14.59064327485379 47.797270955165686  L 40.18518518518519 22.202729044834314  C 40.64327485380116 21.744639376218345  40.64327485380116 21.003898635477583  40.18518518518519 20.545808966861614  L 29.366471734892798 9.727095516569193  Z M 14.025341130604287 33.12865497076024  C 13.489278752436661 33.664717348927866  12.63157894736841 33.664717348927866  12.095516569200782 33.12865497076024  C 11.559454191033126 32.59259259259261  11.559454191033126 31.73489278752436  12.095516569200782 31.19883040935673  L 27.105263157894736 16.189083820662745  C 27.641325536062368 15.653021442495115  28.49902534113062 15.653021442495115  29.035087719298247 16.189083820662745  C 29.571150097465875 16.72514619883043  29.571150097465875 17.582846003898624  29.035087719298247 18.11890838206625  L 14.025341130604287 33.12865497076024  Z M 8.57699805068225 36.64717348927877  L 8.57699805068225 41.32553606237815  L 13.255360623781684 41.32553606237815  L 13.255360623781684 44.8635477582846  L 6.968810916179337 45.96491228070175  L 3.9376218323586722 42.93372319688109  L 5.03898635477583 36.64717348927877  L 8.57699805068225 36.64717348927877  Z " fill-rule="evenodd" />
    </mask>
  </defs>
  <g>
    <path d="M 48.52826510721246 7.2319688109161575  C 50.360623781676395 9.054580896686161  50.360623781676395 12.017543859649095  48.52826510721246 13.849902534113085  L 44.03508771929825 18.3430799220273  C 43.57699805068225 18.80116959064327  42.836257309941516 18.80116959064327  42.37816764132555 18.3430799220273  L 31.559454191033126 7.524366471734879  C 31.101364522417157 7.066276803118911  31.101364522417157 6.3255360623781485  31.559454191033126 5.8674463937621795  L 36.05263157894737 1.3742690058479639  C 37.875243664717345 -0.44834307992204  40.83820662768031 -0.44834307992204  42.67056530214424 1.3742690058479639  L 48.52826510721246 7.2319688109161575  Z M 29.366471734892798 9.727095516569193  C 28.898635477582847 9.269005847953224  28.15789473684211 9.269005847953224  27.699805068226112 9.727095516569193  L 2.10526315789474 35.321637426900566  L 0.03898635477582957 47.163742690058484  C -0.2436647173489348 48.76218323586744  1.1500974658869438 50.146198830409396  2.7485380116958993 49.87329434697858  L 14.59064327485379 47.797270955165686  L 40.18518518518519 22.202729044834314  C 40.64327485380116 21.744639376218345  40.64327485380116 21.003898635477583  40.18518518518519 20.545808966861614  L 29.366471734892798 9.727095516569193  Z M 14.025341130604287 33.12865497076024  C 13.489278752436661 33.664717348927866  12.63157894736841 33.664717348927866  12.095516569200782 33.12865497076024  C 11.559454191033126 32.59259259259261  11.559454191033126 31.73489278752436  12.095516569200782 31.19883040935673  L 27.105263157894736 16.189083820662745  C 27.641325536062368 15.653021442495115  28.49902534113062 15.653021442495115  29.035087719298247 16.189083820662745  C 29.571150097465875 16.72514619883043  29.571150097465875 17.582846003898624  29.035087719298247 18.11890838206625  L 14.025341130604287 33.12865497076024  Z M 8.57699805068225 36.64717348927877  L 8.57699805068225 41.32553606237815  L 13.255360623781684 41.32553606237815  L 13.255360623781684 44.8635477582846  L 6.968810916179337 45.96491228070175  L 3.9376218323586722 42.93372319688109  L 5.03898635477583 36.64717348927877  L 8.57699805068225 36.64717348927877  Z " fill-rule="nonzero" fill="rgba(0, 0, 0, 1)" stroke="none" class="fill" />
    <path d="M 48.52826510721246 7.2319688109161575  C 50.360623781676395 9.054580896686161  50.360623781676395 12.017543859649095  48.52826510721246 13.849902534113085  L 44.03508771929825 18.3430799220273  C 43.57699805068225 18.80116959064327  42.836257309941516 18.80116959064327  42.37816764132555 18.3430799220273  L 31.559454191033126 7.524366471734879  C 31.101364522417157 7.066276803118911  31.101364522417157 6.3255360623781485  31.559454191033126 5.8674463937621795  L 36.05263157894737 1.3742690058479639  C 37.875243664717345 -0.44834307992204  40.83820662768031 -0.44834307992204  42.67056530214424 1.3742690058479639  L 48.52826510721246 7.2319688109161575  Z " stroke-width="0" stroke-dasharray="0" stroke="rgba(255, 255, 255, 0)" fill="none" class="stroke" mask="url(#Clip1832)" />
    <path d="M 29.366471734892798 9.727095516569193  C 28.898635477582847 9.269005847953224  28.15789473684211 9.269005847953224  27.699805068226112 9.727095516569193  L 2.10526315789474 35.321637426900566  L 0.03898635477582957 47.163742690058484  C -0.2436647173489348 48.76218323586744  1.1500974658869438 50.146198830409396  2.7485380116958993 49.87329434697858  L 14.59064327485379 47.797270955165686  L 40.18518518518519 22.202729044834314  C 40.64327485380116 21.744639376218345  40.64327485380116 21.003898635477583  40.18518518518519 20.545808966861614  L 29.366471734892798 9.727095516569193  Z " stroke-width="0" stroke-dasharray="0" stroke="rgba(255, 255, 255, 0)" fill="none" class="stroke" mask="url(#Clip1832)" />
    <path d="M 14.025341130604287 33.12865497076024  C 13.489278752436661 33.664717348927866  12.63157894736841 33.664717348927866  12.095516569200782 33.12865497076024  C 11.559454191033126 32.59259259259261  11.559454191033126 31.73489278752436  12.095516569200782 31.19883040935673  L 27.105263157894736 16.189083820662745  C 27.641325536062368 15.653021442495115  28.49902534113062 15.653021442495115  29.035087719298247 16.189083820662745  C 29.571150097465875 16.72514619883043  29.571150097465875 17.582846003898624  29.035087719298247 18.11890838206625  L 14.025341130604287 33.12865497076024  Z " stroke-width="0" stroke-dasharray="0" stroke="rgba(255, 255, 255, 0)" fill="none" class="stroke" mask="url(#Clip1832)" />
    <path d="M 8.57699805068225 36.64717348927877  L 8.57699805068225 41.32553606237815  L 13.255360623781684 41.32553606237815  L 13.255360623781684 44.8635477582846  L 6.968810916179337 45.96491228070175  L 3.9376218323586722 42.93372319688109  L 5.03898635477583 36.64717348927877  L 8.57699805068225 36.64717348927877  Z " stroke-width="0" stroke-dasharray="0" stroke="rgba(255, 255, 255, 0)" fill="none" class="stroke" mask="url(#Clip1832)" />
  </g>
</svg>