<?xml version="1.0" encoding="utf-8"?>
<svg version="1.1" xmlns:xlink="http://www.w3.org/1999/xlink" width="24px" height="14px" xmlns="http://www.w3.org/2000/svg">
  <defs>
    <pattern id="BGPattern" patternUnits="userSpaceOnUse" alignment="0 0" imageRepeat="None" />
    <mask fill="white" id="Clip4830">
      <path d="M 6.75 1.5  C 6.335786437626905 1.5  6 1.164213562373095  6 0.75  C 6 0.3357864376269051  6.335786437626905 0  6.75 0  L 9 0  C 9.414213562373096 0  9.75 0.3357864376269051  9.75 0.75  C 9.75 1.164213562373095  9.414213562373096 1.5  9 1.5  L 9 2.25  L 15.21 2.25  L 15.789 0.5130000000000008  C 15.890966649973073 0.20685476505995215  16.177320526597523 0.0002450059764900203  16.5 0  L 18 0  C 18.414213562373096 0  18.75 0.3357864376269051  18.75 0.75  C 18.75 1.164213562373095  18.414213562373096 1.5  18 1.5  L 17.04 1.5  L 16.5735 2.9025  L 17.784 4.837499999999999  C 18.32814699207117 4.613093283454768  18.911033169544176 4.497619001813629  19.499636876133515 4.497619001813629  C 21.984918250372083 4.497619001813629  23.999636876133515 6.512337627575061  23.999636876133515 8.997619001813629  C 23.999636876133515 11.4829003760522  21.984918250372083 13.497619001813629  19.499636876133515 13.497619001813629  C 17.014355501894947 13.497619001813629  14.999636876133515 11.4829003760522  14.999636876133515 8.997619001813629  C 14.999636876133515 7.711315965264957  15.550097157693214 6.4865014190834085  16.512 5.6325  L 15.75 4.4145  L 12.636 9.3975  C 12.498945805139584 9.616786101888689  12.258592820491987 9.750000609889126  12 9.75  L 8.9385 9.75  C 8.572349385034949 11.91496327262665  6.697216921946684 13.499591474559633  4.501509235422455 13.499591474559633  C 2.016227861183885 13.499591474559633  0.0015092354224556237 11.484872848798204  0.0015092354224556237 8.999591474559633  C 0.0015092354224556237 6.5143101003210635  2.016227861183885 4.499591474559635  4.501509235422455 4.499591474559635  C 5.089695741964253 4.499591474559635  5.6721769412069305 4.614902148152211  6.216 4.839  L 7.5 2.783999999999999  L 7.5 1.5  L 6.75 1.5  Z M 3.864 8.6025  L 5.4045000000000005 6.138000000000002  C 5.112243770268291 6.045706497126144  4.807570486713104 5.99874219974706  4.501087543485067 5.99874219974706  C 2.844233293992686 5.99874219974706  1.5010875434850663 7.34188795025468  1.5010875434850663 8.99874219974706  C 1.5010875434850663 10.65559644923944  2.844233293992686 11.99874219974706  4.501087543485067 11.99874219974706  C 5.868598722974879 11.99874219974706  7.063048853158394 11.073938834711214  7.4055 9.75  L 4.499998231128312 9.750000000002085  C 4.085784668755217 9.750000000002085  3.7499982311283118 9.414213562375181  3.7499982311283118 9.000000000002085  C 3.7499982311283118 8.859434893927197  3.7895004937799173 8.721698878429322  3.864 8.6025  Z M 10.647 8.25  L 8.25 4.4145  L 7.4879999999999995 5.6355  C 8.238 6.301500000000001  8.763 7.2165  8.9385 8.25  L 10.647 8.25  Z M 9.603 3.75  L 12 7.5855  L 14.397000000000002 3.75  L 9.603 3.75  Z M 18.864 9.3975  L 17.325000000000003 6.933  C 16.795642181098412 7.490493915149049  16.500507595837203 8.229934444336163  16.500507595837203 8.998712153339529  C 16.500507595837203 10.655566402831909  17.843653346344823 11.998712153339529  19.500507595837203 11.998712153339529  C 21.157361845329582 11.998712153339529  22.500507595837203 10.655566402831909  22.500507595837203 8.998712153339529  C 22.500507595837203 7.341857903847149  21.157361845329582 5.998712153339529  19.500507595837203 5.998712153339529  C 19.19399120030306 5.998712153339529  18.889285059300786 6.045686702795422  18.597 6.138000000000002  L 20.136000000000003 8.602500000000003  C 20.21049933732185 8.721698939714958  20.2500014999985 8.859434931470993  20.2500014999985 9  C 20.2500014999985 9.414214390799394  19.914214390799394 9.7500014999985  19.5 9.7500014999985  C 19.24140695797813 9.7500014999985  19.00105403816379 9.616786461062063  18.864 9.3975  Z M 5.853 8.25  L 7.405499999999999 8.249999999999996  C 7.27789509814157 7.756488251441013  7.026462533964073 7.303703120468391  6.675000000000001 6.9345  L 5.853 8.25  Z " fill-rule="evenodd" />
    </mask>
  </defs>
  <g>
    <path d="M 6.75 1.5  C 6.335786437626905 1.5  6 1.164213562373095  6 0.75  C 6 0.3357864376269051  6.335786437626905 0  6.75 0  L 9 0  C 9.414213562373096 0  9.75 0.3357864376269051  9.75 0.75  C 9.75 1.164213562373095  9.414213562373096 1.5  9 1.5  L 9 2.25  L 15.21 2.25  L 15.789 0.5130000000000008  C 15.890966649973073 0.20685476505995215  16.177320526597523 0.0002450059764900203  16.5 0  L 18 0  C 18.414213562373096 0  18.75 0.3357864376269051  18.75 0.75  C 18.75 1.164213562373095  18.414213562373096 1.5  18 1.5  L 17.04 1.5  L 16.5735 2.9025  L 17.784 4.837499999999999  C 18.32814699207117 4.613093283454768  18.911033169544176 4.497619001813629  19.499636876133515 4.497619001813629  C 21.984918250372083 4.497619001813629  23.999636876133515 6.512337627575061  23.999636876133515 8.997619001813629  C 23.999636876133515 11.4829003760522  21.984918250372083 13.497619001813629  19.499636876133515 13.497619001813629  C 17.014355501894947 13.497619001813629  14.999636876133515 11.4829003760522  14.999636876133515 8.997619001813629  C 14.999636876133515 7.711315965264957  15.550097157693214 6.4865014190834085  16.512 5.6325  L 15.75 4.4145  L 12.636 9.3975  C 12.498945805139584 9.616786101888689  12.258592820491987 9.750000609889126  12 9.75  L 8.9385 9.75  C 8.572349385034949 11.91496327262665  6.697216921946684 13.499591474559633  4.501509235422455 13.499591474559633  C 2.016227861183885 13.499591474559633  0.0015092354224556237 11.484872848798204  0.0015092354224556237 8.999591474559633  C 0.0015092354224556237 6.5143101003210635  2.016227861183885 4.499591474559635  4.501509235422455 4.499591474559635  C 5.089695741964253 4.499591474559635  5.6721769412069305 4.614902148152211  6.216 4.839  L 7.5 2.783999999999999  L 7.5 1.5  L 6.75 1.5  Z M 3.864 8.6025  L 5.4045000000000005 6.138000000000002  C 5.112243770268291 6.045706497126144  4.807570486713104 5.99874219974706  4.501087543485067 5.99874219974706  C 2.844233293992686 5.99874219974706  1.5010875434850663 7.34188795025468  1.5010875434850663 8.99874219974706  C 1.5010875434850663 10.65559644923944  2.844233293992686 11.99874219974706  4.501087543485067 11.99874219974706  C 5.868598722974879 11.99874219974706  7.063048853158394 11.073938834711214  7.4055 9.75  L 4.499998231128312 9.750000000002085  C 4.085784668755217 9.750000000002085  3.7499982311283118 9.414213562375181  3.7499982311283118 9.000000000002085  C 3.7499982311283118 8.859434893927197  3.7895004937799173 8.721698878429322  3.864 8.6025  Z M 10.647 8.25  L 8.25 4.4145  L 7.4879999999999995 5.6355  C 8.238 6.301500000000001  8.763 7.2165  8.9385 8.25  L 10.647 8.25  Z M 9.603 3.75  L 12 7.5855  L 14.397000000000002 3.75  L 9.603 3.75  Z M 18.864 9.3975  L 17.325000000000003 6.933  C 16.795642181098412 7.490493915149049  16.500507595837203 8.229934444336163  16.500507595837203 8.998712153339529  C 16.500507595837203 10.655566402831909  17.843653346344823 11.998712153339529  19.500507595837203 11.998712153339529  C 21.157361845329582 11.998712153339529  22.500507595837203 10.655566402831909  22.500507595837203 8.998712153339529  C 22.500507595837203 7.341857903847149  21.157361845329582 5.998712153339529  19.500507595837203 5.998712153339529  C 19.19399120030306 5.998712153339529  18.889285059300786 6.045686702795422  18.597 6.138000000000002  L 20.136000000000003 8.602500000000003  C 20.21049933732185 8.721698939714958  20.2500014999985 8.859434931470993  20.2500014999985 9  C 20.2500014999985 9.414214390799394  19.914214390799394 9.7500014999985  19.5 9.7500014999985  C 19.24140695797813 9.7500014999985  19.00105403816379 9.616786461062063  18.864 9.3975  Z M 5.853 8.25  L 7.405499999999999 8.249999999999996  C 7.27789509814157 7.756488251441013  7.026462533964073 7.303703120468391  6.675000000000001 6.9345  L 5.853 8.25  Z " fill-rule="nonzero" fill="rgba(0, 0, 0, 1)" stroke="none" class="fill" />
    <path d="M 6.75 1.5  C 6.335786437626905 1.5  6 1.164213562373095  6 0.75  C 6 0.3357864376269051  6.335786437626905 0  6.75 0  L 9 0  C 9.414213562373096 0  9.75 0.3357864376269051  9.75 0.75  C 9.75 1.164213562373095  9.414213562373096 1.5  9 1.5  L 9 2.25  L 15.21 2.25  L 15.789 0.5130000000000008  C 15.890966649973073 0.20685476505995215  16.177320526597523 0.0002450059764900203  16.5 0  L 18 0  C 18.414213562373096 0  18.75 0.3357864376269051  18.75 0.75  C 18.75 1.164213562373095  18.414213562373096 1.5  18 1.5  L 17.04 1.5  L 16.5735 2.9025  L 17.784 4.837499999999999  C 18.32814699207117 4.613093283454768  18.911033169544176 4.497619001813629  19.499636876133515 4.497619001813629  C 21.984918250372083 4.497619001813629  23.999636876133515 6.512337627575061  23.999636876133515 8.997619001813629  C 23.999636876133515 11.4829003760522  21.984918250372083 13.497619001813629  19.499636876133515 13.497619001813629  C 17.014355501894947 13.497619001813629  14.999636876133515 11.4829003760522  14.999636876133515 8.997619001813629  C 14.999636876133515 7.711315965264957  15.550097157693214 6.4865014190834085  16.512 5.6325  L 15.75 4.4145  L 12.636 9.3975  C 12.498945805139584 9.616786101888689  12.258592820491987 9.750000609889126  12 9.75  L 8.9385 9.75  C 8.572349385034949 11.91496327262665  6.697216921946684 13.499591474559633  4.501509235422455 13.499591474559633  C 2.016227861183885 13.499591474559633  0.0015092354224556237 11.484872848798204  0.0015092354224556237 8.999591474559633  C 0.0015092354224556237 6.5143101003210635  2.016227861183885 4.499591474559635  4.501509235422455 4.499591474559635  C 5.089695741964253 4.499591474559635  5.6721769412069305 4.614902148152211  6.216 4.839  L 7.5 2.783999999999999  L 7.5 1.5  L 6.75 1.5  Z " stroke-width="0" stroke-dasharray="0" stroke="rgba(255, 255, 255, 0)" fill="none" class="stroke" mask="url(#Clip4830)" />
    <path d="M 3.864 8.6025  L 5.4045000000000005 6.138000000000002  C 5.112243770268291 6.045706497126144  4.807570486713104 5.99874219974706  4.501087543485067 5.99874219974706  C 2.844233293992686 5.99874219974706  1.5010875434850663 7.34188795025468  1.5010875434850663 8.99874219974706  C 1.5010875434850663 10.65559644923944  2.844233293992686 11.99874219974706  4.501087543485067 11.99874219974706  C 5.868598722974879 11.99874219974706  7.063048853158394 11.073938834711214  7.4055 9.75  L 4.499998231128312 9.750000000002085  C 4.085784668755217 9.750000000002085  3.7499982311283118 9.414213562375181  3.7499982311283118 9.000000000002085  C 3.7499982311283118 8.859434893927197  3.7895004937799173 8.721698878429322  3.864 8.6025  Z " stroke-width="0" stroke-dasharray="0" stroke="rgba(255, 255, 255, 0)" fill="none" class="stroke" mask="url(#Clip4830)" />
    <path d="M 10.647 8.25  L 8.25 4.4145  L 7.4879999999999995 5.6355  C 8.238 6.301500000000001  8.763 7.2165  8.9385 8.25  L 10.647 8.25  Z " stroke-width="0" stroke-dasharray="0" stroke="rgba(255, 255, 255, 0)" fill="none" class="stroke" mask="url(#Clip4830)" />
    <path d="M 9.603 3.75  L 12 7.5855  L 14.397000000000002 3.75  L 9.603 3.75  Z " stroke-width="0" stroke-dasharray="0" stroke="rgba(255, 255, 255, 0)" fill="none" class="stroke" mask="url(#Clip4830)" />
    <path d="M 18.864 9.3975  L 17.325000000000003 6.933  C 16.795642181098412 7.490493915149049  16.500507595837203 8.229934444336163  16.500507595837203 8.998712153339529  C 16.500507595837203 10.655566402831909  17.843653346344823 11.998712153339529  19.500507595837203 11.998712153339529  C 21.157361845329582 11.998712153339529  22.500507595837203 10.655566402831909  22.500507595837203 8.998712153339529  C 22.500507595837203 7.341857903847149  21.157361845329582 5.998712153339529  19.500507595837203 5.998712153339529  C 19.19399120030306 5.998712153339529  18.889285059300786 6.045686702795422  18.597 6.138000000000002  L 20.136000000000003 8.602500000000003  C 20.21049933732185 8.721698939714958  20.2500014999985 8.859434931470993  20.2500014999985 9  C 20.2500014999985 9.414214390799394  19.914214390799394 9.7500014999985  19.5 9.7500014999985  C 19.24140695797813 9.7500014999985  19.00105403816379 9.616786461062063  18.864 9.3975  Z " stroke-width="0" stroke-dasharray="0" stroke="rgba(255, 255, 255, 0)" fill="none" class="stroke" mask="url(#Clip4830)" />
    <path d="M 5.853 8.25  L 7.405499999999999 8.249999999999996  C 7.27789509814157 7.756488251441013  7.026462533964073 7.303703120468391  6.675000000000001 6.9345  L 5.853 8.25  Z " stroke-width="0" stroke-dasharray="0" stroke="rgba(255, 255, 255, 0)" fill="none" class="stroke" mask="url(#Clip4830)" />
  </g>
</svg>