<?xml version="1.0" encoding="utf-8"?>
<svg version="1.1" xmlns:xlink="http://www.w3.org/1999/xlink" width="16px" height="16px" xmlns="http://www.w3.org/2000/svg">
  <defs>
    <pattern id="BGPattern" patternUnits="userSpaceOnUse" alignment="0 0" imageRepeat="None" />
    <mask fill="white" id="Clip6157">
      <path d="M 7.999999999999998 15.499999999999996  C 12.142135623730951 15.499999999999996  15.499999999999996 12.142135623730951  15.499999999999996 7.999999999999998  C 15.499999999999996 3.857864376269048  12.142135623730951 0.5  7.999999999999998 0.5  C 3.857864376269048 0.5  0.5 3.857864376269048  0.5 7.999999999999998  C 0.5 12.142135623730951  3.857864376269048 15.499999999999996  7.999999999999998 15.499999999999996  Z " fill-rule="evenodd" />
    </mask>
  </defs>
  <g>
    <path d="M 7.999999999999998 15.499999999999996  C 12.142135623730951 15.499999999999996  15.499999999999996 12.142135623730951  15.499999999999996 7.999999999999998  C 15.499999999999996 3.857864376269048  12.142135623730951 0.5  7.999999999999998 0.5  C 3.857864376269048 0.5  0.5 3.857864376269048  0.5 7.999999999999998  C 0.5 12.142135623730951  3.857864376269048 15.499999999999996  7.999999999999998 15.499999999999996  Z " fill-rule="nonzero" fill="rgba(0, 0, 0, 1)" stroke="none" class="fill" />
    <path d="M 7.999999999999998 15.499999999999996  C 12.142135623730951 15.499999999999996  15.499999999999996 12.142135623730951  15.499999999999996 7.999999999999998  C 15.499999999999996 3.857864376269048  12.142135623730951 0.5  7.999999999999998 0.5  C 3.857864376269048 0.5  0.5 3.857864376269048  0.5 7.999999999999998  C 0.5 12.142135623730951  3.857864376269048 15.499999999999996  7.999999999999998 15.499999999999996  Z " stroke-width="0" stroke-dasharray="0" stroke="rgba(255, 255, 255, 0)" fill="none" class="stroke" mask="url(#Clip6157)" />
  </g>
</svg>