<?xml version="1.0" encoding="utf-8"?>
<svg version="1.1" xmlns:xlink="http://www.w3.org/1999/xlink" width="24px" height="24px" xmlns="http://www.w3.org/2000/svg">
  <defs>
    <pattern id="BGPattern" patternUnits="userSpaceOnUse" alignment="0 0" imageRepeat="None" />
    <mask fill="white" id="Clip5470">
      <path d="M 21 7.5  L 13.5 0  L 6 0  C 4.343145750507619 0  3 1.3431457505076196  3 3  L 3 13.5  L 4.5 13.5  L 4.5 3  C 4.5 2.1715728752538097  5.17157287525381 1.5  6 1.5  L 13.5 1.5  L 13.5 5.249999999999999  C 13.5 6.492640687119285  14.507359312880716 7.5  15.75 7.5  L 19.5 7.5  L 19.5 13.5  L 21 13.5  L 21 7.5  Z M 21 21  L 21 18  L 19.5 18  L 19.5 21  C 19.5 21.82842712474619  18.82842712474619 22.5  18 22.5  L 6 22.5  C 5.17157287525381 22.5  4.5 21.82842712474619  4.5 21  L 4.5 18  L 3 18  L 3 21  C 3 22.65685424949238  4.343145750507619 24  6 24  L 18 24  C 19.65685424949238 24  21 22.65685424949238  21 21  Z M 0.75 16.5  C 0.3357864376269049 16.5  0 16.164213562373096  0 15.75  C 0 15.335786437626904  0.3357864376269049 15  0.75 15  L 23.25 15  C 23.664213562373096 15  24 15.335786437626904  24 15.75  C 24 16.164213562373096  23.664213562373096 16.5  23.25 16.5  L 0.75 16.5  Z " fill-rule="evenodd" />
    </mask>
  </defs>
  <g>
    <path d="M 21 7.5  L 13.5 0  L 6 0  C 4.343145750507619 0  3 1.3431457505076196  3 3  L 3 13.5  L 4.5 13.5  L 4.5 3  C 4.5 2.1715728752538097  5.17157287525381 1.5  6 1.5  L 13.5 1.5  L 13.5 5.249999999999999  C 13.5 6.492640687119285  14.507359312880716 7.5  15.75 7.5  L 19.5 7.5  L 19.5 13.5  L 21 13.5  L 21 7.5  Z M 21 21  L 21 18  L 19.5 18  L 19.5 21  C 19.5 21.82842712474619  18.82842712474619 22.5  18 22.5  L 6 22.5  C 5.17157287525381 22.5  4.5 21.82842712474619  4.5 21  L 4.5 18  L 3 18  L 3 21  C 3 22.65685424949238  4.343145750507619 24  6 24  L 18 24  C 19.65685424949238 24  21 22.65685424949238  21 21  Z M 0.75 16.5  C 0.3357864376269049 16.5  0 16.164213562373096  0 15.75  C 0 15.335786437626904  0.3357864376269049 15  0.75 15  L 23.25 15  C 23.664213562373096 15  24 15.335786437626904  24 15.75  C 24 16.164213562373096  23.664213562373096 16.5  23.25 16.5  L 0.75 16.5  Z " fill-rule="nonzero" fill="rgba(0, 0, 0, 1)" stroke="none" class="fill" />
    <path d="M 21 7.5  L 13.5 0  L 6 0  C 4.343145750507619 0  3 1.3431457505076196  3 3  L 3 13.5  L 4.5 13.5  L 4.5 3  C 4.5 2.1715728752538097  5.17157287525381 1.5  6 1.5  L 13.5 1.5  L 13.5 5.249999999999999  C 13.5 6.492640687119285  14.507359312880716 7.5  15.75 7.5  L 19.5 7.5  L 19.5 13.5  L 21 13.5  L 21 7.5  Z " stroke-width="0" stroke-dasharray="0" stroke="rgba(255, 255, 255, 0)" fill="none" class="stroke" mask="url(#Clip5470)" />
    <path d="M 21 21  L 21 18  L 19.5 18  L 19.5 21  C 19.5 21.82842712474619  18.82842712474619 22.5  18 22.5  L 6 22.5  C 5.17157287525381 22.5  4.5 21.82842712474619  4.5 21  L 4.5 18  L 3 18  L 3 21  C 3 22.65685424949238  4.343145750507619 24  6 24  L 18 24  C 19.65685424949238 24  21 22.65685424949238  21 21  Z " stroke-width="0" stroke-dasharray="0" stroke="rgba(255, 255, 255, 0)" fill="none" class="stroke" mask="url(#Clip5470)" />
    <path d="M 0.75 16.5  C 0.3357864376269049 16.5  0 16.164213562373096  0 15.75  C 0 15.335786437626904  0.3357864376269049 15  0.75 15  L 23.25 15  C 23.664213562373096 15  24 15.335786437626904  24 15.75  C 24 16.164213562373096  23.664213562373096 16.5  23.25 16.5  L 0.75 16.5  Z " stroke-width="0" stroke-dasharray="0" stroke="rgba(255, 255, 255, 0)" fill="none" class="stroke" mask="url(#Clip5470)" />
  </g>
</svg>