<?xml version="1.0" encoding="utf-8"?>
<svg version="1.1" xmlns:xlink="http://www.w3.org/1999/xlink" width="6px" height="17px" xmlns="http://www.w3.org/2000/svg">
  <defs>
    <pattern id="BGPattern" patternUnits="userSpaceOnUse" alignment="0 0" imageRepeat="None" />
    <mask fill="white" id="Clip6340">
      <path d="M 5.25 2.25  C 5.25 3.4926406871192857  4.242640687119284 4.500000000000001  3 4.500000000000001  C 1.7573593128807161 4.500000000000001  0.75 3.4926406871192857  0.75 2.25  C 0.75 1.0073593128807152  1.7573593128807161 0  3 0  C 4.242640687119284 0  5.25 1.0073593128807152  5.25 2.25  Z M 5.25 8.25  C 5.25 9.492640687119284  4.242640687119284 10.5  3 10.5  C 1.7573593128807161 10.5  0.75 9.492640687119284  0.75 8.25  C 0.75 7.007359312880717  1.7573593128807161 6.000000000000002  3 6.000000000000002  C 4.242640687119284 6.000000000000002  5.25 7.007359312880717  5.25 8.25  Z M 5.25 14.25  C 5.25 15.492640687119284  4.242640687119284 16.5  3 16.5  C 1.7573593128807161 16.5  0.75 15.492640687119284  0.75 14.25  C 0.75 13.007359312880713  1.7573593128807161 12  3 12  C 4.242640687119284 12  5.25 13.007359312880713  5.25 14.25  Z " fill-rule="evenodd" />
    </mask>
  </defs>
  <g transform="matrix(1 0 0 1 -6 -3 )">
    <path d="M 5.25 2.25  C 5.25 3.4926406871192857  4.242640687119284 4.500000000000001  3 4.500000000000001  C 1.7573593128807161 4.500000000000001  0.75 3.4926406871192857  0.75 2.25  C 0.75 1.0073593128807152  1.7573593128807161 0  3 0  C 4.242640687119284 0  5.25 1.0073593128807152  5.25 2.25  Z M 5.25 8.25  C 5.25 9.492640687119284  4.242640687119284 10.5  3 10.5  C 1.7573593128807161 10.5  0.75 9.492640687119284  0.75 8.25  C 0.75 7.007359312880717  1.7573593128807161 6.000000000000002  3 6.000000000000002  C 4.242640687119284 6.000000000000002  5.25 7.007359312880717  5.25 8.25  Z M 5.25 14.25  C 5.25 15.492640687119284  4.242640687119284 16.5  3 16.5  C 1.7573593128807161 16.5  0.75 15.492640687119284  0.75 14.25  C 0.75 13.007359312880713  1.7573593128807161 12  3 12  C 4.242640687119284 12  5.25 13.007359312880713  5.25 14.25  Z " fill-rule="nonzero" fill="rgba(0, 0, 0, 1)" stroke="none" transform="matrix(1 0 0 1 6 3 )" class="fill" />
    <path d="M 5.25 2.25  C 5.25 3.4926406871192857  4.242640687119284 4.500000000000001  3 4.500000000000001  C 1.7573593128807161 4.500000000000001  0.75 3.4926406871192857  0.75 2.25  C 0.75 1.0073593128807152  1.7573593128807161 0  3 0  C 4.242640687119284 0  5.25 1.0073593128807152  5.25 2.25  Z " stroke-width="0" stroke-dasharray="0" stroke="rgba(255, 255, 255, 0)" fill="none" transform="matrix(1 0 0 1 6 3 )" class="stroke" mask="url(#Clip6340)" />
    <path d="M 5.25 8.25  C 5.25 9.492640687119284  4.242640687119284 10.5  3 10.5  C 1.7573593128807161 10.5  0.75 9.492640687119284  0.75 8.25  C 0.75 7.007359312880717  1.7573593128807161 6.000000000000002  3 6.000000000000002  C 4.242640687119284 6.000000000000002  5.25 7.007359312880717  5.25 8.25  Z " stroke-width="0" stroke-dasharray="0" stroke="rgba(255, 255, 255, 0)" fill="none" transform="matrix(1 0 0 1 6 3 )" class="stroke" mask="url(#Clip6340)" />
    <path d="M 5.25 14.25  C 5.25 15.492640687119284  4.242640687119284 16.5  3 16.5  C 1.7573593128807161 16.5  0.75 15.492640687119284  0.75 14.25  C 0.75 13.007359312880713  1.7573593128807161 12  3 12  C 4.242640687119284 12  5.25 13.007359312880713  5.25 14.25  Z " stroke-width="0" stroke-dasharray="0" stroke="rgba(255, 255, 255, 0)" fill="none" transform="matrix(1 0 0 1 6 3 )" class="stroke" mask="url(#Clip6340)" />
  </g>
</svg>