<?xml version="1.0" encoding="utf-8"?>
<svg version="1.1" xmlns:xlink="http://www.w3.org/1999/xlink" width="50px" height="50px" xmlns="http://www.w3.org/2000/svg">
  <defs>
    <pattern id="BGPattern" patternUnits="userSpaceOnUse" alignment="0 0" imageRepeat="None" />
    <mask fill="white" id="Clip815">
      <path d="M 28.48790322580646 19.475806451612897  L 29.546370967741954 20.564516129032256  C 29.98991935483872 21.008064516129025  29.98991935483872 21.764112903225794  29.546370967741954 22.20766129032259  L 28.56854838709677 23.185483870967744  C 28.125 23.659274193548384  27.36895161290323 23.659274193548384  26.895161290322562 23.185483870967744  L 25.836693548387075 22.127016129032256  C 25.393145161290303 21.653225806451616  25.393145161290303 20.92741935483872  25.836693548387075 20.45362903225805  L 26.814516129032256 19.475806451612897  C 27.25806451612903 19.032258064516128  28.014112903225797 19.032258064516128  28.48790322580646 19.475806451612897  Z M 25.44354838709677 18.57862903225805  C 25.75604838709677 18.860887096774206  26.229838709677438 18.860887096774206  26.502016129032256 18.57862903225805  C 26.804435483870975 18.27620967741936  26.804435483870975 17.79233870967741  26.502016129032256 17.52016129032259  C 26.219758064516103 17.217741935483872  25.745967741935488 17.217741935483872  25.44354838709677 17.52016129032259  C 25.16129032258067 17.80241935483872  25.16129032258067 18.27620967741936  25.44354838709677 18.57862903225805  Z M 24.939516129032256 19.112903225806463  C 24.637096774193537 18.810483870967744  24.163306451612925 18.810483870967744  23.88104838709677 19.112903225806463  C 23.57862903225805 19.39516129032259  23.57862903225805 19.86895161290323  23.88104838709677 20.14112903225805  C 24.163306451612925 20.44354838709677  24.637096774193537 20.44354838709677  24.939516129032256 20.14112903225805  C 25.221774193548413 19.85887096774195  25.221774193548413 19.38508064516128  24.939516129032256 19.112903225806463  Z M 37.752016129032256 15.846774193548384  C 36.491935483870975 18.215725806451616  33.205645161290306 19.19354838709677  31.189516129032256 17.772177419354847  C 29.183467741935488 16.320564516129025  27.782258064516103 13.41733870967741  29.98991935483872 10.907258064516128  C 32.16733870967744 8.397177419354847  34.0927419354839 9.173387096774206  36.018145161290306 10.987903225806463  C 37.2177419354839 12.127016129032256  38.97177419354841 13.497983870967744  37.752016129032256 15.846774193548384  Z M 34.435483870967744 14.909274193548383  C 35.18145161290323 15.81653225806451  37.67137096774195 15.151209677419358  35.997983870967744 13.28629032258064  C 35.100806451612925 12.278225806451616  33.649193548387075 13.981854838709666  34.435483870967744 14.909274193548383  Z M 25 0  C 38.810483870967744 0  50 11.189516129032256  50 25  C 50 38.810483870967744  38.810483870967744 50  25 50  C 11.189516129032256 50  0 38.810483870967744  0 25  C 0 11.189516129032256  11.189516129032256 0  25 0  Z M 33.13508064516128 23.346774193548384  C 35.35282258064518 27.731854838709697  42.741935483870975 32.872983870967744  43.326612903225794 29.294354838709697  C 43.57862903225805 27.67137096774195  41.29032258064518 27.620967741935488  40.78629032258067 26.703629032258046  C 39.41532258064518 24.274193548387103  37.99395161290323 22.99395161290323  35.29233870967744 23.639112903225794  C 36.461693548387075 22.83266129032259  37.66129032258067 23.024193548387103  37.66129032258067 23.024193548387103  C 37.69153225806451 22.379032258064512  37.66129032258067 21.71370967741936  36.71370967741939 20.514112903225794  C 37.106854838709694 19.254032258064512  36.74395161290323 18.25604838709677  36.74395161290323 18.25604838709677  C 38.30645161290323 17.389112903225794  39.445564516129025 15.796370967741948  39.67741935483872 13.90120967741936  C 40.04032258064518 10.77620967741936  37.78225806451616 7.9334677419354875  34.65725806451616 7.570564516129025  C 32.429435483870975 7.318548387096769  30.252016129032256 8.346774193548384  29.183467741935488 10.16129032258064  C 26.844758064516157 14.203629032258078  29.32459677419354 17.308467741935488  31.441532258064512 18.366935483870975  C 29.98991935483872 18.225806451612897  27.983870967741954 17.167338709677438  27.399193548387075 14.909274193548383  C 26.73387096774195 12.318548387096769  27.68145161290323 9.889112903225822  28.29637096774195 8.719758064516128  C 28.29637096774195 8.719758064516128  27.85282258064518 8.135080645161281  27.489919354838722 7.822580645161281  C 27.489919354838722 7.822580645161281  26.09879032258067 7.822580645161281  25.01008064516128 8.356854838709694  C 26.209677419354822 6.824596774193538  27.550403225806463 6.905241935483872  27.550403225806463 6.905241935483872  C 27.550403225806463 6.260080645161281  27.489919354838722 5.403225806451616  27.187499999999996 4.727822580645153  C 26.643145161290306 3.618951612903231  24.788306451612925 3.4274193548387193  23.991935483870975 5.010080645161281  C 24.002016129032256 4.989919354838719  24.02217741935482 4.969758064516128  24.0322580645161 4.959677419354847  C 23.528225806451587 6.159274193548384  23.92137096774195 10.594758064516128  25.735887096774206 13.750000000000002  C 25.48387096774195 13.891129032258052  24.81854838709677 14.364919354838717  24.425403225806463 14.758064516129025  C 22.247983870967744 15.735887096774206  18.76008064516128 20.836693548387103  18.76008064516128 20.836693548387103  C 15.917338709677436 21.925403225806463  10.977822580645181 25.967741935483847  11.643145161290306 28.870967741935488  C 11.673387096774206 29.173387096774206  11.784274193548413 29.425403225806463  11.945564516129025 29.627016129032256  C 11.663306451612925 29.84879032258067  11.39112903225805 30.13104838709677  11.10887096774195 30.46370967741933  C 9.909274193548413 31.854838709677434  10.574596774193537 34.01209677419354  12.893145161290306 32.923387096774206  C 14.485887096774205 32.19758064516128  15.877016129032256 30.88709677419354  16.55241935483872 29.85887096774195  C 16.55241935483872 29.85887096774195  15.997983870967744 29.354838709677438  14.909274193548413 29.41532258064518  C 17.701612903225794 28.749999999999996  18.366935483870975 28.467741935483897  19.566532258064512 28.49798387096774  C 20.372983870967744 28.89112903225805  20.372983870967744 25.04032258064518  20.372983870967744 25.04032258064518  C 20.372983870967744 23.558467741935488  20.15120967741933 21.915322580645153  19.254032258064512 20.856854838709666  C 20.514112903225794 22.086693548387103  22.1875 24.153225806451616  22.076612903225794 26.965725806451584  C 21.995967741935488 28.810483870967747  20.544354838709694 29.284274193548416  20.544354838709694 29.284274193548416  C 19.627016129032256 30.957661290322562  16.189516129032256 35.92741935483872  17.479838709677438 39.9697580645161  C 17.479838709677438 39.9697580645161  16.502016129032256 38.4677419354839  16.451612903225794 37.741935483870975  C 14.697580645161281 39.69758064516128  11.764112903225794 43.014112903225794  13.971774193548415 44.24395161290323  C 16.653225806451587 45.725806451612925  24.939516129032256 35.3125  26.693548387096765 29.899193548387075  C 30.18145161290323 27.80241935483872  32.27822580645159 25.131048387096765  33.13508064516128 23.346774193548384  Z " fill-rule="evenodd" />
    </mask>
  </defs>
  <g>
    <path d="M 28.48790322580646 19.475806451612897  L 29.546370967741954 20.564516129032256  C 29.98991935483872 21.008064516129025  29.98991935483872 21.764112903225794  29.546370967741954 22.20766129032259  L 28.56854838709677 23.185483870967744  C 28.125 23.659274193548384  27.36895161290323 23.659274193548384  26.895161290322562 23.185483870967744  L 25.836693548387075 22.127016129032256  C 25.393145161290303 21.653225806451616  25.393145161290303 20.92741935483872  25.836693548387075 20.45362903225805  L 26.814516129032256 19.475806451612897  C 27.25806451612903 19.032258064516128  28.014112903225797 19.032258064516128  28.48790322580646 19.475806451612897  Z M 25.44354838709677 18.57862903225805  C 25.75604838709677 18.860887096774206  26.229838709677438 18.860887096774206  26.502016129032256 18.57862903225805  C 26.804435483870975 18.27620967741936  26.804435483870975 17.79233870967741  26.502016129032256 17.52016129032259  C 26.219758064516103 17.217741935483872  25.745967741935488 17.217741935483872  25.44354838709677 17.52016129032259  C 25.16129032258067 17.80241935483872  25.16129032258067 18.27620967741936  25.44354838709677 18.57862903225805  Z M 24.939516129032256 19.112903225806463  C 24.637096774193537 18.810483870967744  24.163306451612925 18.810483870967744  23.88104838709677 19.112903225806463  C 23.57862903225805 19.39516129032259  23.57862903225805 19.86895161290323  23.88104838709677 20.14112903225805  C 24.163306451612925 20.44354838709677  24.637096774193537 20.44354838709677  24.939516129032256 20.14112903225805  C 25.221774193548413 19.85887096774195  25.221774193548413 19.38508064516128  24.939516129032256 19.112903225806463  Z M 37.752016129032256 15.846774193548384  C 36.491935483870975 18.215725806451616  33.205645161290306 19.19354838709677  31.189516129032256 17.772177419354847  C 29.183467741935488 16.320564516129025  27.782258064516103 13.41733870967741  29.98991935483872 10.907258064516128  C 32.16733870967744 8.397177419354847  34.0927419354839 9.173387096774206  36.018145161290306 10.987903225806463  C 37.2177419354839 12.127016129032256  38.97177419354841 13.497983870967744  37.752016129032256 15.846774193548384  Z M 34.435483870967744 14.909274193548383  C 35.18145161290323 15.81653225806451  37.67137096774195 15.151209677419358  35.997983870967744 13.28629032258064  C 35.100806451612925 12.278225806451616  33.649193548387075 13.981854838709666  34.435483870967744 14.909274193548383  Z M 25 0  C 38.810483870967744 0  50 11.189516129032256  50 25  C 50 38.810483870967744  38.810483870967744 50  25 50  C 11.189516129032256 50  0 38.810483870967744  0 25  C 0 11.189516129032256  11.189516129032256 0  25 0  Z M 33.13508064516128 23.346774193548384  C 35.35282258064518 27.731854838709697  42.741935483870975 32.872983870967744  43.326612903225794 29.294354838709697  C 43.57862903225805 27.67137096774195  41.29032258064518 27.620967741935488  40.78629032258067 26.703629032258046  C 39.41532258064518 24.274193548387103  37.99395161290323 22.99395161290323  35.29233870967744 23.639112903225794  C 36.461693548387075 22.83266129032259  37.66129032258067 23.024193548387103  37.66129032258067 23.024193548387103  C 37.69153225806451 22.379032258064512  37.66129032258067 21.71370967741936  36.71370967741939 20.514112903225794  C 37.106854838709694 19.254032258064512  36.74395161290323 18.25604838709677  36.74395161290323 18.25604838709677  C 38.30645161290323 17.389112903225794  39.445564516129025 15.796370967741948  39.67741935483872 13.90120967741936  C 40.04032258064518 10.77620967741936  37.78225806451616 7.9334677419354875  34.65725806451616 7.570564516129025  C 32.429435483870975 7.318548387096769  30.252016129032256 8.346774193548384  29.183467741935488 10.16129032258064  C 26.844758064516157 14.203629032258078  29.32459677419354 17.308467741935488  31.441532258064512 18.366935483870975  C 29.98991935483872 18.225806451612897  27.983870967741954 17.167338709677438  27.399193548387075 14.909274193548383  C 26.73387096774195 12.318548387096769  27.68145161290323 9.889112903225822  28.29637096774195 8.719758064516128  C 28.29637096774195 8.719758064516128  27.85282258064518 8.135080645161281  27.489919354838722 7.822580645161281  C 27.489919354838722 7.822580645161281  26.09879032258067 7.822580645161281  25.01008064516128 8.356854838709694  C 26.209677419354822 6.824596774193538  27.550403225806463 6.905241935483872  27.550403225806463 6.905241935483872  C 27.550403225806463 6.260080645161281  27.489919354838722 5.403225806451616  27.187499999999996 4.727822580645153  C 26.643145161290306 3.618951612903231  24.788306451612925 3.4274193548387193  23.991935483870975 5.010080645161281  C 24.002016129032256 4.989919354838719  24.02217741935482 4.969758064516128  24.0322580645161 4.959677419354847  C 23.528225806451587 6.159274193548384  23.92137096774195 10.594758064516128  25.735887096774206 13.750000000000002  C 25.48387096774195 13.891129032258052  24.81854838709677 14.364919354838717  24.425403225806463 14.758064516129025  C 22.247983870967744 15.735887096774206  18.76008064516128 20.836693548387103  18.76008064516128 20.836693548387103  C 15.917338709677436 21.925403225806463  10.977822580645181 25.967741935483847  11.643145161290306 28.870967741935488  C 11.673387096774206 29.173387096774206  11.784274193548413 29.425403225806463  11.945564516129025 29.627016129032256  C 11.663306451612925 29.84879032258067  11.39112903225805 30.13104838709677  11.10887096774195 30.46370967741933  C 9.909274193548413 31.854838709677434  10.574596774193537 34.01209677419354  12.893145161290306 32.923387096774206  C 14.485887096774205 32.19758064516128  15.877016129032256 30.88709677419354  16.55241935483872 29.85887096774195  C 16.55241935483872 29.85887096774195  15.997983870967744 29.354838709677438  14.909274193548413 29.41532258064518  C 17.701612903225794 28.749999999999996  18.366935483870975 28.467741935483897  19.566532258064512 28.49798387096774  C 20.372983870967744 28.89112903225805  20.372983870967744 25.04032258064518  20.372983870967744 25.04032258064518  C 20.372983870967744 23.558467741935488  20.15120967741933 21.915322580645153  19.254032258064512 20.856854838709666  C 20.514112903225794 22.086693548387103  22.1875 24.153225806451616  22.076612903225794 26.965725806451584  C 21.995967741935488 28.810483870967747  20.544354838709694 29.284274193548416  20.544354838709694 29.284274193548416  C 19.627016129032256 30.957661290322562  16.189516129032256 35.92741935483872  17.479838709677438 39.9697580645161  C 17.479838709677438 39.9697580645161  16.502016129032256 38.4677419354839  16.451612903225794 37.741935483870975  C 14.697580645161281 39.69758064516128  11.764112903225794 43.014112903225794  13.971774193548415 44.24395161290323  C 16.653225806451587 45.725806451612925  24.939516129032256 35.3125  26.693548387096765 29.899193548387075  C 30.18145161290323 27.80241935483872  32.27822580645159 25.131048387096765  33.13508064516128 23.346774193548384  Z " fill-rule="nonzero" fill="rgba(0, 0, 0, 1)" stroke="none" class="fill" />
    <path d="M 28.48790322580646 19.475806451612897  L 29.546370967741954 20.564516129032256  C 29.98991935483872 21.008064516129025  29.98991935483872 21.764112903225794  29.546370967741954 22.20766129032259  L 28.56854838709677 23.185483870967744  C 28.125 23.659274193548384  27.36895161290323 23.659274193548384  26.895161290322562 23.185483870967744  L 25.836693548387075 22.127016129032256  C 25.393145161290303 21.653225806451616  25.393145161290303 20.92741935483872  25.836693548387075 20.45362903225805  L 26.814516129032256 19.475806451612897  C 27.25806451612903 19.032258064516128  28.014112903225797 19.032258064516128  28.48790322580646 19.475806451612897  Z " stroke-width="0" stroke-dasharray="0" stroke="rgba(255, 255, 255, 0)" fill="none" class="stroke" mask="url(#Clip815)" />
    <path d="M 25.44354838709677 18.57862903225805  C 25.75604838709677 18.860887096774206  26.229838709677438 18.860887096774206  26.502016129032256 18.57862903225805  C 26.804435483870975 18.27620967741936  26.804435483870975 17.79233870967741  26.502016129032256 17.52016129032259  C 26.219758064516103 17.217741935483872  25.745967741935488 17.217741935483872  25.44354838709677 17.52016129032259  C 25.16129032258067 17.80241935483872  25.16129032258067 18.27620967741936  25.44354838709677 18.57862903225805  Z " stroke-width="0" stroke-dasharray="0" stroke="rgba(255, 255, 255, 0)" fill="none" class="stroke" mask="url(#Clip815)" />
    <path d="M 24.939516129032256 19.112903225806463  C 24.637096774193537 18.810483870967744  24.163306451612925 18.810483870967744  23.88104838709677 19.112903225806463  C 23.57862903225805 19.39516129032259  23.57862903225805 19.86895161290323  23.88104838709677 20.14112903225805  C 24.163306451612925 20.44354838709677  24.637096774193537 20.44354838709677  24.939516129032256 20.14112903225805  C 25.221774193548413 19.85887096774195  25.221774193548413 19.38508064516128  24.939516129032256 19.112903225806463  Z " stroke-width="0" stroke-dasharray="0" stroke="rgba(255, 255, 255, 0)" fill="none" class="stroke" mask="url(#Clip815)" />
    <path d="M 37.752016129032256 15.846774193548384  C 36.491935483870975 18.215725806451616  33.205645161290306 19.19354838709677  31.189516129032256 17.772177419354847  C 29.183467741935488 16.320564516129025  27.782258064516103 13.41733870967741  29.98991935483872 10.907258064516128  C 32.16733870967744 8.397177419354847  34.0927419354839 9.173387096774206  36.018145161290306 10.987903225806463  C 37.2177419354839 12.127016129032256  38.97177419354841 13.497983870967744  37.752016129032256 15.846774193548384  Z " stroke-width="0" stroke-dasharray="0" stroke="rgba(255, 255, 255, 0)" fill="none" class="stroke" mask="url(#Clip815)" />
    <path d="M 34.435483870967744 14.909274193548383  C 35.18145161290323 15.81653225806451  37.67137096774195 15.151209677419358  35.997983870967744 13.28629032258064  C 35.100806451612925 12.278225806451616  33.649193548387075 13.981854838709666  34.435483870967744 14.909274193548383  Z " stroke-width="0" stroke-dasharray="0" stroke="rgba(255, 255, 255, 0)" fill="none" class="stroke" mask="url(#Clip815)" />
    <path d="M 25 0  C 38.810483870967744 0  50 11.189516129032256  50 25  C 50 38.810483870967744  38.810483870967744 50  25 50  C 11.189516129032256 50  0 38.810483870967744  0 25  C 0 11.189516129032256  11.189516129032256 0  25 0  Z " stroke-width="0" stroke-dasharray="0" stroke="rgba(255, 255, 255, 0)" fill="none" class="stroke" mask="url(#Clip815)" />
    <path d="M 33.13508064516128 23.346774193548384  C 35.35282258064518 27.731854838709697  42.741935483870975 32.872983870967744  43.326612903225794 29.294354838709697  C 43.57862903225805 27.67137096774195  41.29032258064518 27.620967741935488  40.78629032258067 26.703629032258046  C 39.41532258064518 24.274193548387103  37.99395161290323 22.99395161290323  35.29233870967744 23.639112903225794  C 36.461693548387075 22.83266129032259  37.66129032258067 23.024193548387103  37.66129032258067 23.024193548387103  C 37.69153225806451 22.379032258064512  37.66129032258067 21.71370967741936  36.71370967741939 20.514112903225794  C 37.106854838709694 19.254032258064512  36.74395161290323 18.25604838709677  36.74395161290323 18.25604838709677  C 38.30645161290323 17.389112903225794  39.445564516129025 15.796370967741948  39.67741935483872 13.90120967741936  C 40.04032258064518 10.77620967741936  37.78225806451616 7.9334677419354875  34.65725806451616 7.570564516129025  C 32.429435483870975 7.318548387096769  30.252016129032256 8.346774193548384  29.183467741935488 10.16129032258064  C 26.844758064516157 14.203629032258078  29.32459677419354 17.308467741935488  31.441532258064512 18.366935483870975  C 29.98991935483872 18.225806451612897  27.983870967741954 17.167338709677438  27.399193548387075 14.909274193548383  C 26.73387096774195 12.318548387096769  27.68145161290323 9.889112903225822  28.29637096774195 8.719758064516128  C 28.29637096774195 8.719758064516128  27.85282258064518 8.135080645161281  27.489919354838722 7.822580645161281  C 27.489919354838722 7.822580645161281  26.09879032258067 7.822580645161281  25.01008064516128 8.356854838709694  C 26.209677419354822 6.824596774193538  27.550403225806463 6.905241935483872  27.550403225806463 6.905241935483872  C 27.550403225806463 6.260080645161281  27.489919354838722 5.403225806451616  27.187499999999996 4.727822580645153  C 26.643145161290306 3.618951612903231  24.788306451612925 3.4274193548387193  23.991935483870975 5.010080645161281  C 24.002016129032256 4.989919354838719  24.02217741935482 4.969758064516128  24.0322580645161 4.959677419354847  C 23.528225806451587 6.159274193548384  23.92137096774195 10.594758064516128  25.735887096774206 13.750000000000002  C 25.48387096774195 13.891129032258052  24.81854838709677 14.364919354838717  24.425403225806463 14.758064516129025  C 22.247983870967744 15.735887096774206  18.76008064516128 20.836693548387103  18.76008064516128 20.836693548387103  C 15.917338709677436 21.925403225806463  10.977822580645181 25.967741935483847  11.643145161290306 28.870967741935488  C 11.673387096774206 29.173387096774206  11.784274193548413 29.425403225806463  11.945564516129025 29.627016129032256  C 11.663306451612925 29.84879032258067  11.39112903225805 30.13104838709677  11.10887096774195 30.46370967741933  C 9.909274193548413 31.854838709677434  10.574596774193537 34.01209677419354  12.893145161290306 32.923387096774206  C 14.485887096774205 32.19758064516128  15.877016129032256 30.88709677419354  16.55241935483872 29.85887096774195  C 16.55241935483872 29.85887096774195  15.997983870967744 29.354838709677438  14.909274193548413 29.41532258064518  C 17.701612903225794 28.749999999999996  18.366935483870975 28.467741935483897  19.566532258064512 28.49798387096774  C 20.372983870967744 28.89112903225805  20.372983870967744 25.04032258064518  20.372983870967744 25.04032258064518  C 20.372983870967744 23.558467741935488  20.15120967741933 21.915322580645153  19.254032258064512 20.856854838709666  C 20.514112903225794 22.086693548387103  22.1875 24.153225806451616  22.076612903225794 26.965725806451584  C 21.995967741935488 28.810483870967747  20.544354838709694 29.284274193548416  20.544354838709694 29.284274193548416  C 19.627016129032256 30.957661290322562  16.189516129032256 35.92741935483872  17.479838709677438 39.9697580645161  C 17.479838709677438 39.9697580645161  16.502016129032256 38.4677419354839  16.451612903225794 37.741935483870975  C 14.697580645161281 39.69758064516128  11.764112903225794 43.014112903225794  13.971774193548415 44.24395161290323  C 16.653225806451587 45.725806451612925  24.939516129032256 35.3125  26.693548387096765 29.899193548387075  C 30.18145161290323 27.80241935483872  32.27822580645159 25.131048387096765  33.13508064516128 23.346774193548384  Z " stroke-width="0" stroke-dasharray="0" stroke="rgba(255, 255, 255, 0)" fill="none" class="stroke" mask="url(#Clip815)" />
  </g>
</svg>