<?xml version="1.0" encoding="utf-8"?>
<svg version="1.1" xmlns:xlink="http://www.w3.org/1999/xlink" width="48px" height="48px" xmlns="http://www.w3.org/2000/svg">
  <defs>
    <pattern id="BGPattern" patternUnits="userSpaceOnUse" alignment="0 0" imageRepeat="None" />
    <mask fill="white" id="Clip7165">
      <path d="M 48 0  L 13.823999999999998 0  C 6.190453886768795 0.0011039111661269101  0.002208381395949638 6.188454126390624  0 13.822  L 0 48  L 34.175999999999995 47.99999999999999  C 41.81078438166088 47.99999999999999  47.99999999999999 41.81078438166088  48 34.176  L 48 0  Z M 32 11.328  C 32 10.2  32.918 5.188  34.046 5.188  C 35.178 5.188  36.094 10.198  36.094 11.328  C 36.09466662597159 11.349324218273114  36.095 11.370657551447463  36.095 11.391992187023105  C 36.095 12.52307135467657  35.178079167653465 13.439992187023105  34.047000000000004 13.439992187023105  C 32.915920832346536 13.439992187023105  31.999000000000002 12.52307135467657  31.999000000000002 11.391992187023105  C 31.999000000000002 11.370657551447463  31.999333374028406 11.349324218273114  32 11.328  Z M 28.824 10.996  L 28.82 11  C 30.2 11.38  32.984 18.54  36.094 15.43  C 38.994 12.530000000000001  40.194 29.757999999999996  40.194 29.757999999999996  L 36.094 27.714  C 36.094 27.714  36.094 23.613999999999997  29.954 19.524  C 22.336 14.443999999999999  13.576 17.79  13.576 25.664  C 13.576 41.730000000000004  40.194 35.904  40.194 35.904  C 40.194 35.904  40.194 39.996  36.094 40  L 11.53 40  C 7.435999999999999 39.996  7.43 35.902  8 35.902  L 8 15.426000000000002  C 7.43 11.326  11.53 11.326  11.53 11.326  L 19.716 11.326  C 23.816000000000003 11.326  27.908 15.426000000000002  27.908 15.426000000000002  C 27.908 12.445999999999998  28.142000000000003 11.225999999999999  28.564 11.015999999999998  C 28.644854947835505 10.976091337543945  28.73799260905752 10.968926902065327  28.824 10.996  Z " fill-rule="evenodd" />
    </mask>
  </defs>
  <g>
    <path d="M 48 0  L 13.823999999999998 0  C 6.190453886768795 0.0011039111661269101  0.002208381395949638 6.188454126390624  0 13.822  L 0 48  L 34.175999999999995 47.99999999999999  C 41.81078438166088 47.99999999999999  47.99999999999999 41.81078438166088  48 34.176  L 48 0  Z M 32 11.328  C 32 10.2  32.918 5.188  34.046 5.188  C 35.178 5.188  36.094 10.198  36.094 11.328  C 36.09466662597159 11.349324218273114  36.095 11.370657551447463  36.095 11.391992187023105  C 36.095 12.52307135467657  35.178079167653465 13.439992187023105  34.047000000000004 13.439992187023105  C 32.915920832346536 13.439992187023105  31.999000000000002 12.52307135467657  31.999000000000002 11.391992187023105  C 31.999000000000002 11.370657551447463  31.999333374028406 11.349324218273114  32 11.328  Z M 28.824 10.996  L 28.82 11  C 30.2 11.38  32.984 18.54  36.094 15.43  C 38.994 12.530000000000001  40.194 29.757999999999996  40.194 29.757999999999996  L 36.094 27.714  C 36.094 27.714  36.094 23.613999999999997  29.954 19.524  C 22.336 14.443999999999999  13.576 17.79  13.576 25.664  C 13.576 41.730000000000004  40.194 35.904  40.194 35.904  C 40.194 35.904  40.194 39.996  36.094 40  L 11.53 40  C 7.435999999999999 39.996  7.43 35.902  8 35.902  L 8 15.426000000000002  C 7.43 11.326  11.53 11.326  11.53 11.326  L 19.716 11.326  C 23.816000000000003 11.326  27.908 15.426000000000002  27.908 15.426000000000002  C 27.908 12.445999999999998  28.142000000000003 11.225999999999999  28.564 11.015999999999998  C 28.644854947835505 10.976091337543945  28.73799260905752 10.968926902065327  28.824 10.996  Z " fill-rule="nonzero" fill="rgba(219, 31, 41, 1)" stroke="none" class="fill" />
    <path d="M 48 0  L 13.823999999999998 0  C 6.190453886768795 0.0011039111661269101  0.002208381395949638 6.188454126390624  0 13.822  L 0 48  L 34.175999999999995 47.99999999999999  C 41.81078438166088 47.99999999999999  47.99999999999999 41.81078438166088  48 34.176  L 48 0  Z " stroke-width="0" stroke-dasharray="0" stroke="rgba(255, 255, 255, 0)" fill="none" class="stroke" mask="url(#Clip7165)" />
    <path d="M 32 11.328  C 32 10.2  32.918 5.188  34.046 5.188  C 35.178 5.188  36.094 10.198  36.094 11.328  C 36.09466662597159 11.349324218273114  36.095 11.370657551447463  36.095 11.391992187023105  C 36.095 12.52307135467657  35.178079167653465 13.439992187023105  34.047000000000004 13.439992187023105  C 32.915920832346536 13.439992187023105  31.999000000000002 12.52307135467657  31.999000000000002 11.391992187023105  C 31.999000000000002 11.370657551447463  31.999333374028406 11.349324218273114  32 11.328  Z " stroke-width="0" stroke-dasharray="0" stroke="rgba(255, 255, 255, 0)" fill="none" class="stroke" mask="url(#Clip7165)" />
    <path d="M 28.824 10.996  L 28.82 11  C 30.2 11.38  32.984 18.54  36.094 15.43  C 38.994 12.530000000000001  40.194 29.757999999999996  40.194 29.757999999999996  L 36.094 27.714  C 36.094 27.714  36.094 23.613999999999997  29.954 19.524  C 22.336 14.443999999999999  13.576 17.79  13.576 25.664  C 13.576 41.730000000000004  40.194 35.904  40.194 35.904  C 40.194 35.904  40.194 39.996  36.094 40  L 11.53 40  C 7.435999999999999 39.996  7.43 35.902  8 35.902  L 8 15.426000000000002  C 7.43 11.326  11.53 11.326  11.53 11.326  L 19.716 11.326  C 23.816000000000003 11.326  27.908 15.426000000000002  27.908 15.426000000000002  C 27.908 12.445999999999998  28.142000000000003 11.225999999999999  28.564 11.015999999999998  C 28.644854947835505 10.976091337543945  28.73799260905752 10.968926902065327  28.824 10.996  Z " stroke-width="0" stroke-dasharray="0" stroke="rgba(255, 255, 255, 0)" fill="none" class="stroke" mask="url(#Clip7165)" />
  </g>
</svg>