<?xml version="1.0" encoding="utf-8"?>
<svg version="1.1" xmlns:xlink="http://www.w3.org/1999/xlink" width="8px" height="8px" xmlns="http://www.w3.org/2000/svg">
  <defs>
    <pattern id="BGPattern" patternUnits="userSpaceOnUse" alignment="0 0" imageRepeat="None" />
    <mask fill="white" id="Clip5659">
      <path d="M 3.5 0.75  C 3.5 0.3357864376269042  3.835786437626904 0  4.25 0  C 4.664213562373096 0  5 0.3357864376269042  5 0.75  L 5 3  L 7.25 3  C 7.664213562373096 3  8 3.335786437626904  8 3.75  C 8 4.164213562373096  7.664213562373096 4.5  7.25 4.5  L 5 4.5  L 5 6.75  C 5 7.164213562373096  4.664213562373096 7.5  4.25 7.5  C 3.835786437626904 7.5  3.5 7.164213562373096  3.5 6.75  L 3.5 4.5  L 1.25 4.5  C 0.8357864376269042 4.5  0.5 4.164213562373096  0.5 3.75  C 0.5 3.335786437626904  0.8357864376269042 3  1.25 3  L 3.5 3  L 3.5 0.75  Z " fill-rule="evenodd" />
    </mask>
  </defs>
  <g transform="matrix(1 0 0 1 -16 -14 )">
    <path d="M 3.5 0.75  C 3.5 0.3357864376269042  3.835786437626904 0  4.25 0  C 4.664213562373096 0  5 0.3357864376269042  5 0.75  L 5 3  L 7.25 3  C 7.664213562373096 3  8 3.335786437626904  8 3.75  C 8 4.164213562373096  7.664213562373096 4.5  7.25 4.5  L 5 4.5  L 5 6.75  C 5 7.164213562373096  4.664213562373096 7.5  4.25 7.5  C 3.835786437626904 7.5  3.5 7.164213562373096  3.5 6.75  L 3.5 4.5  L 1.25 4.5  C 0.8357864376269042 4.5  0.5 4.164213562373096  0.5 3.75  C 0.5 3.335786437626904  0.8357864376269042 3  1.25 3  L 3.5 3  L 3.5 0.75  Z " fill-rule="nonzero" fill="rgba(0, 0, 0, 1)" stroke="none" transform="matrix(1 0 0 1 16 14 )" class="fill" />
    <path d="M 3.5 0.75  C 3.5 0.3357864376269042  3.835786437626904 0  4.25 0  C 4.664213562373096 0  5 0.3357864376269042  5 0.75  L 5 3  L 7.25 3  C 7.664213562373096 3  8 3.335786437626904  8 3.75  C 8 4.164213562373096  7.664213562373096 4.5  7.25 4.5  L 5 4.5  L 5 6.75  C 5 7.164213562373096  4.664213562373096 7.5  4.25 7.5  C 3.835786437626904 7.5  3.5 7.164213562373096  3.5 6.75  L 3.5 4.5  L 1.25 4.5  C 0.8357864376269042 4.5  0.5 4.164213562373096  0.5 3.75  C 0.5 3.335786437626904  0.8357864376269042 3  1.25 3  L 3.5 3  L 3.5 0.75  Z " stroke-width="0" stroke-dasharray="0" stroke="rgba(255, 255, 255, 0)" fill="none" transform="matrix(1 0 0 1 16 14 )" class="stroke" mask="url(#Clip5659)" />
  </g>
</svg>