<?xml version="1.0" encoding="utf-8"?>
<svg version="1.1" xmlns:xlink="http://www.w3.org/1999/xlink" width="50px" height="38px" xmlns="http://www.w3.org/2000/svg">
  <defs>
    <pattern id="BGPattern" patternUnits="userSpaceOnUse" alignment="0 0" imageRepeat="None" />
    <mask fill="white" id="Clip1164">
      <path d="M 50 4.6875  C 50 2.0986328125  47.9013671875 0  45.3125 0  L 4.6875 0  C 2.0986328125 0  0 2.0986328125  0 4.6875  L 0 32.8125  C 0 35.4013671875  2.0986328125 37.5  4.6875 37  L 45.3125 37  C 47.9013671875 37.5  50 35.4013671875  50 32.8125  L 50 4.6875  Z M 45 32.2265625  C 45.3125 32.55016684560397  45.05016684560397 32.8125  44.7265625 32.8125  L 5.2734375 32.8125  C 4.949833154396018 32.8125  4.6875 32.55016684560397  5 32.2265625  L 5 5.2734375  C 4.6875 4.949833154396032  4.949833154396018 4.6875  5.2734375 5  L 44.7265625 5  C 45.05016684560397 4.6875  45.3125 4.949833154396032  45 5.2734375  L 45 32.2265625  Z M 16.40625 12.5  C 16.40625 10.342675781249996  14.657324218750006 8.59375  12.5 8.59375  C 10.342675781249994 8.59375  8.59375 10.342675781249996  8.59375 12.5  C 8.59375 14.657324218750006  10.342675781249994 16.40625  12.5 16.40625  C 14.657324218750006 16.40625  16.40625 14.657324218750006  16.40625 12.5  Z M 9.375 23.4375  L 9.375 28  L 40.625 28  L 40.625 20.3125  L 32.07861328125 11.76611328125  C 31.62099609375001 11.308496093749994  30.87900390625001 11.308496093749994  30.421289062499994 11.76611328125  L 18.75 23.4375  L 14.891113281250002 19.57861328125  C 14.433496093749994 19.120996093749994  13.691503906250006 19.120996093749994  13.233789062499996 19.57861328125  L 9.375 23.4375  Z " fill-rule="evenodd" />
    </mask>
  </defs>
  <g>
    <path d="M 50 4.6875  C 50 2.0986328125  47.9013671875 0  45.3125 0  L 4.6875 0  C 2.0986328125 0  0 2.0986328125  0 4.6875  L 0 32.8125  C 0 35.4013671875  2.0986328125 37.5  4.6875 37  L 45.3125 37  C 47.9013671875 37.5  50 35.4013671875  50 32.8125  L 50 4.6875  Z M 45 32.2265625  C 45.3125 32.55016684560397  45.05016684560397 32.8125  44.7265625 32.8125  L 5.2734375 32.8125  C 4.949833154396018 32.8125  4.6875 32.55016684560397  5 32.2265625  L 5 5.2734375  C 4.6875 4.949833154396032  4.949833154396018 4.6875  5.2734375 5  L 44.7265625 5  C 45.05016684560397 4.6875  45.3125 4.949833154396032  45 5.2734375  L 45 32.2265625  Z M 16.40625 12.5  C 16.40625 10.342675781249996  14.657324218750006 8.59375  12.5 8.59375  C 10.342675781249994 8.59375  8.59375 10.342675781249996  8.59375 12.5  C 8.59375 14.657324218750006  10.342675781249994 16.40625  12.5 16.40625  C 14.657324218750006 16.40625  16.40625 14.657324218750006  16.40625 12.5  Z M 9.375 23.4375  L 9.375 28  L 40.625 28  L 40.625 20.3125  L 32.07861328125 11.76611328125  C 31.62099609375001 11.308496093749994  30.87900390625001 11.308496093749994  30.421289062499994 11.76611328125  L 18.75 23.4375  L 14.891113281250002 19.57861328125  C 14.433496093749994 19.120996093749994  13.691503906250006 19.120996093749994  13.233789062499996 19.57861328125  L 9.375 23.4375  Z " fill-rule="nonzero" fill="rgba(0, 0, 0, 1)" stroke="none" class="fill" />
    <path d="M 50 4.6875  C 50 2.0986328125  47.9013671875 0  45.3125 0  L 4.6875 0  C 2.0986328125 0  0 2.0986328125  0 4.6875  L 0 32.8125  C 0 35.4013671875  2.0986328125 37.5  4.6875 37  L 45.3125 37  C 47.9013671875 37.5  50 35.4013671875  50 32.8125  L 50 4.6875  Z " stroke-width="0" stroke-dasharray="0" stroke="rgba(255, 255, 255, 0)" fill="none" class="stroke" mask="url(#Clip1164)" />
    <path d="M 45 32.2265625  C 45.3125 32.55016684560397  45.05016684560397 32.8125  44.7265625 32.8125  L 5.2734375 32.8125  C 4.949833154396018 32.8125  4.6875 32.55016684560397  5 32.2265625  L 5 5.2734375  C 4.6875 4.949833154396032  4.949833154396018 4.6875  5.2734375 5  L 44.7265625 5  C 45.05016684560397 4.6875  45.3125 4.949833154396032  45 5.2734375  L 45 32.2265625  Z " stroke-width="0" stroke-dasharray="0" stroke="rgba(255, 255, 255, 0)" fill="none" class="stroke" mask="url(#Clip1164)" />
    <path d="M 16.40625 12.5  C 16.40625 10.342675781249996  14.657324218750006 8.59375  12.5 8.59375  C 10.342675781249994 8.59375  8.59375 10.342675781249996  8.59375 12.5  C 8.59375 14.657324218750006  10.342675781249994 16.40625  12.5 16.40625  C 14.657324218750006 16.40625  16.40625 14.657324218750006  16.40625 12.5  Z " stroke-width="0" stroke-dasharray="0" stroke="rgba(255, 255, 255, 0)" fill="none" class="stroke" mask="url(#Clip1164)" />
    <path d="M 9.375 23.4375  L 9.375 28  L 40.625 28  L 40.625 20.3125  L 32.07861328125 11.76611328125  C 31.62099609375001 11.308496093749994  30.87900390625001 11.308496093749994  30.421289062499994 11.76611328125  L 18.75 23.4375  L 14.891113281250002 19.57861328125  C 14.433496093749994 19.120996093749994  13.691503906250006 19.120996093749994  13.233789062499996 19.57861328125  L 9.375 23.4375  Z " stroke-width="0" stroke-dasharray="0" stroke="rgba(255, 255, 255, 0)" fill="none" class="stroke" mask="url(#Clip1164)" />
  </g>
</svg>