<?xml version="1.0" encoding="utf-8"?>
<svg version="1.1" xmlns:xlink="http://www.w3.org/1999/xlink" width="19px" height="19px" xmlns="http://www.w3.org/2000/svg">
  <defs>
    <pattern id="BGPattern" patternUnits="userSpaceOnUse" alignment="0 0" imageRepeat="None" />
    <mask fill="white" id="Clip4727">
      <path d="M 19 9.75  L 19 0.75  C 19 0.3357864376269051  18.664213562373096 0  18.25 0  L 9.25 0  C 8.835786437626904 0  8.5 0.3357864376269051  8.5 0.75  C 8.5 1.164213562373095  8.835786437626904 1.5  9.25 1.5  L 16.4395 1.5  L 1.2189999999999999 16.719  C 1.078170043895203 16.859829956104797  0.9990525983798864 17.05083636608819  0.9990525983798864 17.25  C 0.9990525983798864 17.66473679783985  1.3352632021601512 18.000947401620117  1.75 18.000947401620117  C 1.9491636339118132 18.000947401620117  2.1401700438952016 17.921829956104798  2.2810000000000006 17.781000000000002  L 17.5 2.5604999999999993  L 17.5 9.75  C 17.5 10.164213562373096  17.835786437626904 10.500000000000002  18.25 10.500000000000002  C 18.664213562373096 10.500000000000002  19 10.164213562373096  19 9.75  Z " fill-rule="evenodd" />
    </mask>
  </defs>
  <g>
    <path d="M 19 9.75  L 19 0.75  C 19 0.3357864376269051  18.664213562373096 0  18.25 0  L 9.25 0  C 8.835786437626904 0  8.5 0.3357864376269051  8.5 0.75  C 8.5 1.164213562373095  8.835786437626904 1.5  9.25 1.5  L 16.4395 1.5  L 1.2189999999999999 16.719  C 1.078170043895203 16.859829956104797  0.9990525983798864 17.05083636608819  0.9990525983798864 17.25  C 0.9990525983798864 17.66473679783985  1.3352632021601512 18.000947401620117  1.75 18.000947401620117  C 1.9491636339118132 18.000947401620117  2.1401700438952016 17.921829956104798  2.2810000000000006 17.781000000000002  L 17.5 2.5604999999999993  L 17.5 9.75  C 17.5 10.164213562373096  17.835786437626904 10.500000000000002  18.25 10.500000000000002  C 18.664213562373096 10.500000000000002  19 10.164213562373096  19 9.75  Z " fill-rule="nonzero" fill="rgba(0, 0, 0, 1)" stroke="none" class="fill" />
    <path d="M 19 9.75  L 19 0.75  C 19 0.3357864376269051  18.664213562373096 0  18.25 0  L 9.25 0  C 8.835786437626904 0  8.5 0.3357864376269051  8.5 0.75  C 8.5 1.164213562373095  8.835786437626904 1.5  9.25 1.5  L 16.4395 1.5  L 1.2189999999999999 16.719  C 1.078170043895203 16.859829956104797  0.9990525983798864 17.05083636608819  0.9990525983798864 17.25  C 0.9990525983798864 17.66473679783985  1.3352632021601512 18.000947401620117  1.75 18.000947401620117  C 1.9491636339118132 18.000947401620117  2.1401700438952016 17.921829956104798  2.2810000000000006 17.781000000000002  L 17.5 2.5604999999999993  L 17.5 9.75  C 17.5 10.164213562373096  17.835786437626904 10.500000000000002  18.25 10.500000000000002  C 18.664213562373096 10.500000000000002  19 10.164213562373096  19 9.75  Z " stroke-width="0" stroke-dasharray="0" stroke="rgba(255, 255, 255, 0)" fill="none" class="stroke" mask="url(#Clip4727)" />
  </g>
</svg>