<?xml version="1.0" encoding="utf-8"?>
<svg version="1.1" xmlns:xlink="http://www.w3.org/1999/xlink" width="48px" height="50px" xmlns="http://www.w3.org/2000/svg">
  <defs>
    <pattern id="BGPattern" patternUnits="userSpaceOnUse" alignment="0 0" imageRepeat="None" />
    <mask fill="white" id="Clip1065">
      <path d="M 0 15.381355932203377  C 0 10.158898305084733  4.311440677966118 5.932203389830505  9.671610169491544 6  L 29.375 6  L 28.63347457627117 8  L 9.671610169491544 8  C 5.466101694915267 7.934322033898297  2.055084745762713 11.281779661016941  2 15.381355932203377  L 2 37.139830508474574  C 2.055084745762713 40.889830508474574  4.6927966101694665 44.586864406779654  10.953389830508456 44.586864406779654  L 10.953389830508456 46.610169491525426  L 9.671610169491544 46.610169491525426  C 4.36440677966101 46.610169491525426  0 42.35169491525426  0 37.129237288135585  L 0 15.381355932203377  Z M 23.11440677966101 29.55508474576271  L 33.9406779661017 0  L 40.985169491525426 0  C 25.752118644067764 40.05296610169492  25.55084745762713 42.256355932203405  21.419491525423723 46.536016949152554  C 19.216101694915267 48.82415254237287  16.19703389830505 49.89406779661016  13.125 50  L 13.125 44.586864406779654  C 18.336864406779625 43.77118644067798  19.96822033898303 39.30084745762713  19.96822033898303 36.610169491525426  C 19.96822033898303 34.48093220338984  20.031779661016913 35.275423728813564  11.27118644067798 12.966101694915267  L 17.775423728813564 12.966101694915267  L 23.11440677966101 29.55508474576271  Z M 41.00635593220335 6.461864406779654  C 45.42372881355931 7.902542372881356  47.45762711864404 11.027542372881356  47 14.98940677966101  L 47 46  L 24.788135593220318 46  C 25.48728813559319 45.59322033898303  25.921610169491487 44.8834745762712  26.069915254237287 44  L 45 44  L 45 14.98940677966101  C 45.40254237288133 11.546610169491515  43.59110169491521 9.491525423728802  40.29661016949149 8.326271186440664  L 41.00635593220335 6.461864406779654  Z " fill-rule="evenodd" />
    </mask>
  </defs>
  <g>
    <path d="M 0 15.381355932203377  C 0 10.158898305084733  4.311440677966118 5.932203389830505  9.671610169491544 6  L 29.375 6  L 28.63347457627117 8  L 9.671610169491544 8  C 5.466101694915267 7.934322033898297  2.055084745762713 11.281779661016941  2 15.381355932203377  L 2 37.139830508474574  C 2.055084745762713 40.889830508474574  4.6927966101694665 44.586864406779654  10.953389830508456 44.586864406779654  L 10.953389830508456 46.610169491525426  L 9.671610169491544 46.610169491525426  C 4.36440677966101 46.610169491525426  0 42.35169491525426  0 37.129237288135585  L 0 15.381355932203377  Z M 23.11440677966101 29.55508474576271  L 33.9406779661017 0  L 40.985169491525426 0  C 25.752118644067764 40.05296610169492  25.55084745762713 42.256355932203405  21.419491525423723 46.536016949152554  C 19.216101694915267 48.82415254237287  16.19703389830505 49.89406779661016  13.125 50  L 13.125 44.586864406779654  C 18.336864406779625 43.77118644067798  19.96822033898303 39.30084745762713  19.96822033898303 36.610169491525426  C 19.96822033898303 34.48093220338984  20.031779661016913 35.275423728813564  11.27118644067798 12.966101694915267  L 17.775423728813564 12.966101694915267  L 23.11440677966101 29.55508474576271  Z M 41.00635593220335 6.461864406779654  C 45.42372881355931 7.902542372881356  47.45762711864404 11.027542372881356  47 14.98940677966101  L 47 46  L 24.788135593220318 46  C 25.48728813559319 45.59322033898303  25.921610169491487 44.8834745762712  26.069915254237287 44  L 45 44  L 45 14.98940677966101  C 45.40254237288133 11.546610169491515  43.59110169491521 9.491525423728802  40.29661016949149 8.326271186440664  L 41.00635593220335 6.461864406779654  Z " fill-rule="nonzero" fill="rgba(0, 0, 0, 1)" stroke="none" class="fill" />
    <path d="M 0 15.381355932203377  C 0 10.158898305084733  4.311440677966118 5.932203389830505  9.671610169491544 6  L 29.375 6  L 28.63347457627117 8  L 9.671610169491544 8  C 5.466101694915267 7.934322033898297  2.055084745762713 11.281779661016941  2 15.381355932203377  L 2 37.139830508474574  C 2.055084745762713 40.889830508474574  4.6927966101694665 44.586864406779654  10.953389830508456 44.586864406779654  L 10.953389830508456 46.610169491525426  L 9.671610169491544 46.610169491525426  C 4.36440677966101 46.610169491525426  0 42.35169491525426  0 37.129237288135585  L 0 15.381355932203377  Z " stroke-width="0" stroke-dasharray="0" stroke="rgba(255, 255, 255, 0)" fill="none" class="stroke" mask="url(#Clip1065)" />
    <path d="M 23.11440677966101 29.55508474576271  L 33.9406779661017 0  L 40.985169491525426 0  C 25.752118644067764 40.05296610169492  25.55084745762713 42.256355932203405  21.419491525423723 46.536016949152554  C 19.216101694915267 48.82415254237287  16.19703389830505 49.89406779661016  13.125 50  L 13.125 44.586864406779654  C 18.336864406779625 43.77118644067798  19.96822033898303 39.30084745762713  19.96822033898303 36.610169491525426  C 19.96822033898303 34.48093220338984  20.031779661016913 35.275423728813564  11.27118644067798 12.966101694915267  L 17.775423728813564 12.966101694915267  L 23.11440677966101 29.55508474576271  Z " stroke-width="0" stroke-dasharray="0" stroke="rgba(255, 255, 255, 0)" fill="none" class="stroke" mask="url(#Clip1065)" />
    <path d="M 41.00635593220335 6.461864406779654  C 45.42372881355931 7.902542372881356  47.45762711864404 11.027542372881356  47 14.98940677966101  L 47 46  L 24.788135593220318 46  C 25.48728813559319 45.59322033898303  25.921610169491487 44.8834745762712  26.069915254237287 44  L 45 44  L 45 14.98940677966101  C 45.40254237288133 11.546610169491515  43.59110169491521 9.491525423728802  40.29661016949149 8.326271186440664  L 41.00635593220335 6.461864406779654  Z " stroke-width="0" stroke-dasharray="0" stroke="rgba(255, 255, 255, 0)" fill="none" class="stroke" mask="url(#Clip1065)" />
  </g>
</svg>