<?xml version="1.0" encoding="utf-8"?>
<svg version="1.1" xmlns:xlink="http://www.w3.org/1999/xlink" width="26px" height="26px" xmlns="http://www.w3.org/2000/svg">
  <defs>
    <pattern id="BGPattern" patternUnits="userSpaceOnUse" alignment="0 0" imageRepeat="None" />
    <mask fill="white" id="Clip556">
      <path d="M 14.2 4.999999999999999  C 14.2 5.671999999999999  13.655999999999999 6.199999999999999  13 6.199999999999999  C 12.328 6.199999999999999  11.8 5.671999999999999  11.8 4.999999999999999  L 11.8 1.799999999999999  C 11.8 1.1439999999999992  12.328000000000001 0.5999999999999988  13 0.5999999999999988  C 13.655999999999999 0.5999999999999988  14.2 1.1439999999999984  14.2 1.799999999999999  L 14.2 4.999999999999999  Z M 19.512 8.184  C 19.032 8.664  18.28 8.648  17.816 8.184  C 17.336 7.72  17.336 6.968  17.816 6.4879999999999995  L 20.072 4.231999999999999  C 20.535999999999998 3.767999999999999  21.288 3.7519999999999993  21.768 4.231999999999999  C 22.232 4.696  22.232 5.463999999999999  21.768 5.927999999999999  L 19.512 8.184  Z M 8.184 8.184  C 7.72 8.664  6.968 8.664  6.4879999999999995 8.184  L 4.231999999999999 5.927999999999999  C 3.767999999999999 5.463999999999999  3.7519999999999993 4.711999999999999  4.231999999999999 4.231999999999999  C 4.696 3.767999999999999  5.463999999999999 3.767999999999999  5.927999999999999 4.231999999999999  L 8.184 6.4879999999999995  C 8.664 6.968  8.648 7.72  8.184 8.184  Z M 4.999999999999999 14.2  L 1.7999999999999998 14.2  C 1.1280000000000001 14.2  0.5999999999999996 13.655999999999999  0.5999999999999996 13  C 0.5999999999999996 12.328  1.1280000000000001 11.8  1.7999999999999998 11.8  L 5 11.8  C 5.656000000000001 11.8  6.199999999999999 12.328000000000001  6.199999999999999 13  C 6.199999999999999 13.655999999999999  5.655999999999999 14.2  4.999999999999999 14.2  Z M 24.2 14.2  L 21 14.2  C 20.328 14.2  19.8 13.655999999999999  19.8 13  C 19.8 12.328  20.328 11.8  21 11.8  L 24.2 11.8  C 24.855999999999998 11.8  25.4 12.328000000000001  25.4 13  C 25.4 13.655999999999999  24.855999999999998 14.2  24.2 14.2  Z M 5.927999999999999 21.768  C 5.447999999999999 22.248  4.695999999999999 22.232  4.232 21.768  C 3.7520000000000007 21.288  3.7520000000000007 20.552  4.232 20.072  L 6.4879999999999995 17.816  C 6.952 17.352  7.72 17.336  8.184 17.816  C 8.648 18.279999999999998  8.648 19.048  8.184 19.512  L 5.927999999999999 21.768  Z M 21.768 21.768  C 21.288 22.248  20.552 22.248  20.072 21.768  L 17.816 19.512  C 17.352 19.048000000000002  17.336 18.28  17.816 17.816  C 18.279999999999998 17.352  19.048 17.352  19.512 17.816  L 21.768 20.072  C 22.248 20.552  22.232 21.304  21.768 21.768  Z M 14.2 24.2  C 14.2 24.872  13.655999999999999 25.4  13 25.4  C 12.328 25.4  11.8 24.872  11.8 24.2  L 11.8 21  C 11.8 20.344  12.328000000000001 19.8  13 19.8  C 13.655999999999999 19.8  14.2 20.344  14.2 21  L 14.2 24.2  Z " fill-rule="evenodd" />
    </mask>
  </defs>
  <g>
    <path d="M 14.2 4.999999999999999  C 14.2 5.671999999999999  13.655999999999999 6.199999999999999  13 6.199999999999999  C 12.328 6.199999999999999  11.8 5.671999999999999  11.8 4.999999999999999  L 11.8 1.799999999999999  C 11.8 1.1439999999999992  12.328000000000001 0.5999999999999988  13 0.5999999999999988  C 13.655999999999999 0.5999999999999988  14.2 1.1439999999999984  14.2 1.799999999999999  L 14.2 4.999999999999999  Z M 19.512 8.184  C 19.032 8.664  18.28 8.648  17.816 8.184  C 17.336 7.72  17.336 6.968  17.816 6.4879999999999995  L 20.072 4.231999999999999  C 20.535999999999998 3.767999999999999  21.288 3.7519999999999993  21.768 4.231999999999999  C 22.232 4.696  22.232 5.463999999999999  21.768 5.927999999999999  L 19.512 8.184  Z M 8.184 8.184  C 7.72 8.664  6.968 8.664  6.4879999999999995 8.184  L 4.231999999999999 5.927999999999999  C 3.767999999999999 5.463999999999999  3.7519999999999993 4.711999999999999  4.231999999999999 4.231999999999999  C 4.696 3.767999999999999  5.463999999999999 3.767999999999999  5.927999999999999 4.231999999999999  L 8.184 6.4879999999999995  C 8.664 6.968  8.648 7.72  8.184 8.184  Z M 4.999999999999999 14.2  L 1.7999999999999998 14.2  C 1.1280000000000001 14.2  0.5999999999999996 13.655999999999999  0.5999999999999996 13  C 0.5999999999999996 12.328  1.1280000000000001 11.8  1.7999999999999998 11.8  L 5 11.8  C 5.656000000000001 11.8  6.199999999999999 12.328000000000001  6.199999999999999 13  C 6.199999999999999 13.655999999999999  5.655999999999999 14.2  4.999999999999999 14.2  Z M 24.2 14.2  L 21 14.2  C 20.328 14.2  19.8 13.655999999999999  19.8 13  C 19.8 12.328  20.328 11.8  21 11.8  L 24.2 11.8  C 24.855999999999998 11.8  25.4 12.328000000000001  25.4 13  C 25.4 13.655999999999999  24.855999999999998 14.2  24.2 14.2  Z M 5.927999999999999 21.768  C 5.447999999999999 22.248  4.695999999999999 22.232  4.232 21.768  C 3.7520000000000007 21.288  3.7520000000000007 20.552  4.232 20.072  L 6.4879999999999995 17.816  C 6.952 17.352  7.72 17.336  8.184 17.816  C 8.648 18.279999999999998  8.648 19.048  8.184 19.512  L 5.927999999999999 21.768  Z M 21.768 21.768  C 21.288 22.248  20.552 22.248  20.072 21.768  L 17.816 19.512  C 17.352 19.048000000000002  17.336 18.28  17.816 17.816  C 18.279999999999998 17.352  19.048 17.352  19.512 17.816  L 21.768 20.072  C 22.248 20.552  22.232 21.304  21.768 21.768  Z M 14.2 24.2  C 14.2 24.872  13.655999999999999 25.4  13 25.4  C 12.328 25.4  11.8 24.872  11.8 24.2  L 11.8 21  C 11.8 20.344  12.328000000000001 19.8  13 19.8  C 13.655999999999999 19.8  14.2 20.344  14.2 21  L 14.2 24.2  Z " fill-rule="nonzero" fill="rgba(0, 0, 0, 1)" stroke="none" class="fill" />
    <path d="M 14.2 4.999999999999999  C 14.2 5.671999999999999  13.655999999999999 6.199999999999999  13 6.199999999999999  C 12.328 6.199999999999999  11.8 5.671999999999999  11.8 4.999999999999999  L 11.8 1.799999999999999  C 11.8 1.1439999999999992  12.328000000000001 0.5999999999999988  13 0.5999999999999988  C 13.655999999999999 0.5999999999999988  14.2 1.1439999999999984  14.2 1.799999999999999  L 14.2 4.999999999999999  Z " stroke-width="0" stroke-dasharray="0" stroke="rgba(255, 255, 255, 0)" fill="none" class="stroke" mask="url(#Clip556)" />
    <path d="M 19.512 8.184  C 19.032 8.664  18.28 8.648  17.816 8.184  C 17.336 7.72  17.336 6.968  17.816 6.4879999999999995  L 20.072 4.231999999999999  C 20.535999999999998 3.767999999999999  21.288 3.7519999999999993  21.768 4.231999999999999  C 22.232 4.696  22.232 5.463999999999999  21.768 5.927999999999999  L 19.512 8.184  Z " stroke-width="0" stroke-dasharray="0" stroke="rgba(255, 255, 255, 0)" fill="none" class="stroke" mask="url(#Clip556)" />
    <path d="M 8.184 8.184  C 7.72 8.664  6.968 8.664  6.4879999999999995 8.184  L 4.231999999999999 5.927999999999999  C 3.767999999999999 5.463999999999999  3.7519999999999993 4.711999999999999  4.231999999999999 4.231999999999999  C 4.696 3.767999999999999  5.463999999999999 3.767999999999999  5.927999999999999 4.231999999999999  L 8.184 6.4879999999999995  C 8.664 6.968  8.648 7.72  8.184 8.184  Z " stroke-width="0" stroke-dasharray="0" stroke="rgba(255, 255, 255, 0)" fill="none" class="stroke" mask="url(#Clip556)" />
    <path d="M 4.999999999999999 14.2  L 1.7999999999999998 14.2  C 1.1280000000000001 14.2  0.5999999999999996 13.655999999999999  0.5999999999999996 13  C 0.5999999999999996 12.328  1.1280000000000001 11.8  1.7999999999999998 11.8  L 5 11.8  C 5.656000000000001 11.8  6.199999999999999 12.328000000000001  6.199999999999999 13  C 6.199999999999999 13.655999999999999  5.655999999999999 14.2  4.999999999999999 14.2  Z " stroke-width="0" stroke-dasharray="0" stroke="rgba(255, 255, 255, 0)" fill="none" class="stroke" mask="url(#Clip556)" />
    <path d="M 24.2 14.2  L 21 14.2  C 20.328 14.2  19.8 13.655999999999999  19.8 13  C 19.8 12.328  20.328 11.8  21 11.8  L 24.2 11.8  C 24.855999999999998 11.8  25.4 12.328000000000001  25.4 13  C 25.4 13.655999999999999  24.855999999999998 14.2  24.2 14.2  Z " stroke-width="0" stroke-dasharray="0" stroke="rgba(255, 255, 255, 0)" fill="none" class="stroke" mask="url(#Clip556)" />
    <path d="M 5.927999999999999 21.768  C 5.447999999999999 22.248  4.695999999999999 22.232  4.232 21.768  C 3.7520000000000007 21.288  3.7520000000000007 20.552  4.232 20.072  L 6.4879999999999995 17.816  C 6.952 17.352  7.72 17.336  8.184 17.816  C 8.648 18.279999999999998  8.648 19.048  8.184 19.512  L 5.927999999999999 21.768  Z " stroke-width="0" stroke-dasharray="0" stroke="rgba(255, 255, 255, 0)" fill="none" class="stroke" mask="url(#Clip556)" />
    <path d="M 21.768 21.768  C 21.288 22.248  20.552 22.248  20.072 21.768  L 17.816 19.512  C 17.352 19.048000000000002  17.336 18.28  17.816 17.816  C 18.279999999999998 17.352  19.048 17.352  19.512 17.816  L 21.768 20.072  C 22.248 20.552  22.232 21.304  21.768 21.768  Z " stroke-width="0" stroke-dasharray="0" stroke="rgba(255, 255, 255, 0)" fill="none" class="stroke" mask="url(#Clip556)" />
    <path d="M 14.2 24.2  C 14.2 24.872  13.655999999999999 25.4  13 25.4  C 12.328 25.4  11.8 24.872  11.8 24.2  L 11.8 21  C 11.8 20.344  12.328000000000001 19.8  13 19.8  C 13.655999999999999 19.8  14.2 20.344  14.2 21  L 14.2 24.2  Z " stroke-width="0" stroke-dasharray="0" stroke="rgba(255, 255, 255, 0)" fill="none" class="stroke" mask="url(#Clip556)" />
  </g>
</svg>