<?xml version="1.0" encoding="utf-8"?>
<svg version="1.1" xmlns:xlink="http://www.w3.org/1999/xlink" width="50px" height="49px" xmlns="http://www.w3.org/2000/svg">
  <defs>
    <pattern id="BGPattern" patternUnits="userSpaceOnUse" alignment="0 0" imageRepeat="None" />
    <mask fill="white" id="Clip7411">
      <path d="M 48.866 26.624  C 49.522 20.493000000000002  47.722 12.739000000000006  44.653000000000006 3.524000000000003  C 43.98020883777049 5.1331871941673075  43.11993049913892 6.657386934989  42.09 8.065000000000001  C 37.56962815012619 3.505564142526175  31.415195251899693 0.940790245783028  24.994742230535103 0.940790245783028  C 11.69959144785841 0.940790245783028  0.9217422305351011 11.718639463106339  0.9217422305351011 25.013790245783028  C 0.9217422305351011 31.64142943773933  3.654190278468661 37.97588007111245  8.475 42.524  L 9.363 43.31  C 13.701840517516192 46.96683475782918  19.193561072065503 48.97242551957909  24.867887241973943 48.97242551957909  C 37.49154215253674 48.97242551957909  47.96846884992523 39.21570763382083  48.866 26.624  Z M 12.157000000000002 40.482000000000006  C 12.499070674220206 41.19874543998555  12.399107335840746 42.04823933500789  11.9 42.666000000000004  C 11.508165426974983 43.15159214247129  10.917690494183859 43.43386199341687  10.293724099698101 43.43386199341687  C 9.153808376047344 43.43386199341687  8.229724099698101 42.50977771706762  8.229724099698101 41.36986199341687  C 8.229724099698101 40.22994626976611  9.153808376047344 39.30586199341687  10.293724099698101 39.30586199341687  C 11.089634345097144 39.30586199341687  11.814626716540262 39.763492064411146  12.157000000000002 40.482000000000006  Z M 44.553 35.462  L 44.556999999999995 35.461000000000006  C 38.617999999999995 43.37100000000001  25.932999999999996 40.706  17.801999999999996 41.086000000000006  C 17.801999999999996 41.086000000000006  16.357999999999997 41.17400000000001  14.906999999999995 41.410000000000004  C 14.906999999999995 41.410000000000004  15.450999999999999 41.18000000000001  16.156999999999996 40.910000000000004  C 21.863999999999997 38.926  24.564999999999998 38.540000000000006  28.032999999999998 36.759  C 34.565999999999995 33.438  41.023999999999994 26.171  42.367999999999995 18.611  C 39.879999999999995 25.884000000000004  32.342 32.134  25.468000000000004 34.67400000000001  C 21.136507071949417 36.074478689330185  16.72576253404614 37.216817781174164  12.258999999999997 38.095  L 11.914999999999997 37.915  C 6.125 35.099000000000004  5.951 22.568  16.471 18.524  C 21.078 16.752000000000002  25.487000000000005 17.724  30.462 16.540000000000003  C 35.775 15.280000000000003  41.92 11.295000000000003  44.421 6.100000000000002  C 47.221 14.410000000000004  50.592000000000006 27.42  44.553 35.462  Z " fill-rule="evenodd" />
    </mask>
  </defs>
  <g>
    <path d="M 48.866 26.624  C 49.522 20.493000000000002  47.722 12.739000000000006  44.653000000000006 3.524000000000003  C 43.98020883777049 5.1331871941673075  43.11993049913892 6.657386934989  42.09 8.065000000000001  C 37.56962815012619 3.505564142526175  31.415195251899693 0.940790245783028  24.994742230535103 0.940790245783028  C 11.69959144785841 0.940790245783028  0.9217422305351011 11.718639463106339  0.9217422305351011 25.013790245783028  C 0.9217422305351011 31.64142943773933  3.654190278468661 37.97588007111245  8.475 42.524  L 9.363 43.31  C 13.701840517516192 46.96683475782918  19.193561072065503 48.97242551957909  24.867887241973943 48.97242551957909  C 37.49154215253674 48.97242551957909  47.96846884992523 39.21570763382083  48.866 26.624  Z M 12.157000000000002 40.482000000000006  C 12.499070674220206 41.19874543998555  12.399107335840746 42.04823933500789  11.9 42.666000000000004  C 11.508165426974983 43.15159214247129  10.917690494183859 43.43386199341687  10.293724099698101 43.43386199341687  C 9.153808376047344 43.43386199341687  8.229724099698101 42.50977771706762  8.229724099698101 41.36986199341687  C 8.229724099698101 40.22994626976611  9.153808376047344 39.30586199341687  10.293724099698101 39.30586199341687  C 11.089634345097144 39.30586199341687  11.814626716540262 39.763492064411146  12.157000000000002 40.482000000000006  Z M 44.553 35.462  L 44.556999999999995 35.461000000000006  C 38.617999999999995 43.37100000000001  25.932999999999996 40.706  17.801999999999996 41.086000000000006  C 17.801999999999996 41.086000000000006  16.357999999999997 41.17400000000001  14.906999999999995 41.410000000000004  C 14.906999999999995 41.410000000000004  15.450999999999999 41.18000000000001  16.156999999999996 40.910000000000004  C 21.863999999999997 38.926  24.564999999999998 38.540000000000006  28.032999999999998 36.759  C 34.565999999999995 33.438  41.023999999999994 26.171  42.367999999999995 18.611  C 39.879999999999995 25.884000000000004  32.342 32.134  25.468000000000004 34.67400000000001  C 21.136507071949417 36.074478689330185  16.72576253404614 37.216817781174164  12.258999999999997 38.095  L 11.914999999999997 37.915  C 6.125 35.099000000000004  5.951 22.568  16.471 18.524  C 21.078 16.752000000000002  25.487000000000005 17.724  30.462 16.540000000000003  C 35.775 15.280000000000003  41.92 11.295000000000003  44.421 6.100000000000002  C 47.221 14.410000000000004  50.592000000000006 27.42  44.553 35.462  Z " fill-rule="nonzero" fill="rgba(109, 179, 63, 1)" stroke="none" class="fill" />
    <path d="M 48.866 26.624  C 49.522 20.493000000000002  47.722 12.739000000000006  44.653000000000006 3.524000000000003  C 43.98020883777049 5.1331871941673075  43.11993049913892 6.657386934989  42.09 8.065000000000001  C 37.56962815012619 3.505564142526175  31.415195251899693 0.940790245783028  24.994742230535103 0.940790245783028  C 11.69959144785841 0.940790245783028  0.9217422305351011 11.718639463106339  0.9217422305351011 25.013790245783028  C 0.9217422305351011 31.64142943773933  3.654190278468661 37.97588007111245  8.475 42.524  L 9.363 43.31  C 13.701840517516192 46.96683475782918  19.193561072065503 48.97242551957909  24.867887241973943 48.97242551957909  C 37.49154215253674 48.97242551957909  47.96846884992523 39.21570763382083  48.866 26.624  Z " stroke-width="0" stroke-dasharray="0" stroke="rgba(255, 255, 255, 0)" fill="none" class="stroke" mask="url(#Clip7411)" />
    <path d="M 12.157000000000002 40.482000000000006  C 12.499070674220206 41.19874543998555  12.399107335840746 42.04823933500789  11.9 42.666000000000004  C 11.508165426974983 43.15159214247129  10.917690494183859 43.43386199341687  10.293724099698101 43.43386199341687  C 9.153808376047344 43.43386199341687  8.229724099698101 42.50977771706762  8.229724099698101 41.36986199341687  C 8.229724099698101 40.22994626976611  9.153808376047344 39.30586199341687  10.293724099698101 39.30586199341687  C 11.089634345097144 39.30586199341687  11.814626716540262 39.763492064411146  12.157000000000002 40.482000000000006  Z " stroke-width="0" stroke-dasharray="0" stroke="rgba(255, 255, 255, 0)" fill="none" class="stroke" mask="url(#Clip7411)" />
    <path d="M 44.553 35.462  L 44.556999999999995 35.461000000000006  C 38.617999999999995 43.37100000000001  25.932999999999996 40.706  17.801999999999996 41.086000000000006  C 17.801999999999996 41.086000000000006  16.357999999999997 41.17400000000001  14.906999999999995 41.410000000000004  C 14.906999999999995 41.410000000000004  15.450999999999999 41.18000000000001  16.156999999999996 40.910000000000004  C 21.863999999999997 38.926  24.564999999999998 38.540000000000006  28.032999999999998 36.759  C 34.565999999999995 33.438  41.023999999999994 26.171  42.367999999999995 18.611  C 39.879999999999995 25.884000000000004  32.342 32.134  25.468000000000004 34.67400000000001  C 21.136507071949417 36.074478689330185  16.72576253404614 37.216817781174164  12.258999999999997 38.095  L 11.914999999999997 37.915  C 6.125 35.099000000000004  5.951 22.568  16.471 18.524  C 21.078 16.752000000000002  25.487000000000005 17.724  30.462 16.540000000000003  C 35.775 15.280000000000003  41.92 11.295000000000003  44.421 6.100000000000002  C 47.221 14.410000000000004  50.592000000000006 27.42  44.553 35.462  Z " stroke-width="0" stroke-dasharray="0" stroke="rgba(255, 255, 255, 0)" fill="none" class="stroke" mask="url(#Clip7411)" />
  </g>
</svg>