<?xml version="1.0" encoding="utf-8"?>
<svg version="1.1" xmlns:xlink="http://www.w3.org/1999/xlink" width="46px" height="50px" xmlns="http://www.w3.org/2000/svg">
  <defs>
    <pattern id="BGPattern" patternUnits="userSpaceOnUse" alignment="0 0" imageRepeat="None" />
    <mask fill="white" id="Clip1184">
      <path d="M 0.013183593750000002 25  C 0.013183593750000002 38.8046875  11.202246093750006 50  25.01318359375 50  C 32.704199218750006 50  39.75751953125001 46.503515625000006  44.431542968749994 40.74462890625  C 47.19228515624999 37.343164062499994  44.181738281250006 32.37333984374999  39.9150390625 33.185937499999994  C 31.873242187499983 34.71748046875001  24.45878906249999 28.569921875000006  24.45878906249999 20.41328125000001  C 24.45878906249999 15.684374999999989  27.00371093749999 11.400390625  31.044140624999983 9.101171875000006  C 34.82783203125001 6.947851562500006  33.876074218750006 1.2117187499999886  29.5771484375 0.41767578125001137  C 28.07167956682366 0.1400534139540639  26.54403650539055 0.0002496400426537093  25.01318359375 0  C 11.20849609375 0  0.013183593750000002 11.18896484375  0.013183593750000002 25  Z M 4.70068359375 25  C 4.70068359375 13.78173828125  13.794921875 4.6875  25.01318359375 4.6875  C 26.281250000000004 4.6875  27.521874999999994 4.804785156250006  28.725683593750006 5.027148437499989  C 23.378027343750006 8.070410156250006  19.771289062500003 13.820312500000002  19.771289062500003 20.41328125000001  C 19.771289062500003 31.53125  29.89248046874999 39.86640625000001  40.7919921875 37.790625000000006  C 37.067773437499994 42.379296874999994  31.383398437500006 45.3125  25.01318359375 45.3125  C 13.794921875 45.3125  4.70068359375 36.21826171875  4.70068359375 25  Z " fill-rule="evenodd" />
    </mask>
  </defs>
  <g>
    <path d="M 0.013183593750000002 25  C 0.013183593750000002 38.8046875  11.202246093750006 50  25.01318359375 50  C 32.704199218750006 50  39.75751953125001 46.503515625000006  44.431542968749994 40.74462890625  C 47.19228515624999 37.343164062499994  44.181738281250006 32.37333984374999  39.9150390625 33.185937499999994  C 31.873242187499983 34.71748046875001  24.45878906249999 28.569921875000006  24.45878906249999 20.41328125000001  C 24.45878906249999 15.684374999999989  27.00371093749999 11.400390625  31.044140624999983 9.101171875000006  C 34.82783203125001 6.947851562500006  33.876074218750006 1.2117187499999886  29.5771484375 0.41767578125001137  C 28.07167956682366 0.1400534139540639  26.54403650539055 0.0002496400426537093  25.01318359375 0  C 11.20849609375 0  0.013183593750000002 11.18896484375  0.013183593750000002 25  Z M 4.70068359375 25  C 4.70068359375 13.78173828125  13.794921875 4.6875  25.01318359375 4.6875  C 26.281250000000004 4.6875  27.521874999999994 4.804785156250006  28.725683593750006 5.027148437499989  C 23.378027343750006 8.070410156250006  19.771289062500003 13.820312500000002  19.771289062500003 20.41328125000001  C 19.771289062500003 31.53125  29.89248046874999 39.86640625000001  40.7919921875 37.790625000000006  C 37.067773437499994 42.379296874999994  31.383398437500006 45.3125  25.01318359375 45.3125  C 13.794921875 45.3125  4.70068359375 36.21826171875  4.70068359375 25  Z " fill-rule="nonzero" fill="rgba(0, 0, 0, 1)" stroke="none" class="fill" />
    <path d="M 0.013183593750000002 25  C 0.013183593750000002 38.8046875  11.202246093750006 50  25.01318359375 50  C 32.704199218750006 50  39.75751953125001 46.503515625000006  44.431542968749994 40.74462890625  C 47.19228515624999 37.343164062499994  44.181738281250006 32.37333984374999  39.9150390625 33.185937499999994  C 31.873242187499983 34.71748046875001  24.45878906249999 28.569921875000006  24.45878906249999 20.41328125000001  C 24.45878906249999 15.684374999999989  27.00371093749999 11.400390625  31.044140624999983 9.101171875000006  C 34.82783203125001 6.947851562500006  33.876074218750006 1.2117187499999886  29.5771484375 0.41767578125001137  C 28.07167956682366 0.1400534139540639  26.54403650539055 0.0002496400426537093  25.01318359375 0  C 11.20849609375 0  0.013183593750000002 11.18896484375  0.013183593750000002 25  Z " stroke-width="0" stroke-dasharray="0" stroke="rgba(255, 255, 255, 0)" fill="none" class="stroke" mask="url(#Clip1184)" />
    <path d="M 4.70068359375 25  C 4.70068359375 13.78173828125  13.794921875 4.6875  25.01318359375 4.6875  C 26.281250000000004 4.6875  27.521874999999994 4.804785156250006  28.725683593750006 5.027148437499989  C 23.378027343750006 8.070410156250006  19.771289062500003 13.820312500000002  19.771289062500003 20.41328125000001  C 19.771289062500003 31.53125  29.89248046874999 39.86640625000001  40.7919921875 37.790625000000006  C 37.067773437499994 42.379296874999994  31.383398437500006 45.3125  25.01318359375 45.3125  C 13.794921875 45.3125  4.70068359375 36.21826171875  4.70068359375 25  Z " stroke-width="0" stroke-dasharray="0" stroke="rgba(255, 255, 255, 0)" fill="none" class="stroke" mask="url(#Clip1184)" />
  </g>
</svg>