<?xml version="1.0" encoding="utf-8"?>
<svg version="1.1" xmlns:xlink="http://www.w3.org/1999/xlink" width="28px" height="28px" xmlns="http://www.w3.org/2000/svg">
  <defs>
    <pattern id="BGPattern" patternUnits="userSpaceOnUse" alignment="0 0" imageRepeat="None" />
    <mask fill="white" id="Clip3520">
      <path d="M 28 26  L 28 28  L 2 28  C 0.895430500338413 28  0 27.104569499661586  0 26  L 0 0  L 2 0  L 2 26  L 28 26  Z " fill-rule="evenodd" />
    </mask>
  </defs>
  <g transform="matrix(1 0 0 1 -2 -2 )">
    <path d="M 28 26  L 28 28  L 2 28  C 0.895430500338413 28  0 27.104569499661586  0 26  L 0 0  L 2 0  L 2 26  L 28 26  Z " fill-rule="nonzero" fill="rgba(0, 0, 0, 1)" stroke="none" transform="matrix(1 0 0 1 2 2 )" class="fill" />
    <path d="M 28 26  L 28 28  L 2 28  C 0.895430500338413 28  0 27.104569499661586  0 26  L 0 0  L 2 0  L 2 26  L 28 26  Z " stroke-width="0" stroke-dasharray="0" stroke="rgba(255, 255, 255, 0)" fill="none" transform="matrix(1 0 0 1 2 2 )" class="stroke" mask="url(#Clip3520)" />
  </g>
</svg>