<?xml version="1.0" encoding="utf-8"?>
<svg version="1.1" xmlns:xlink="http://www.w3.org/1999/xlink" width="7px" height="7px" xmlns="http://www.w3.org/2000/svg">
  <defs>
    <pattern id="BGPattern" patternUnits="userSpaceOnUse" alignment="0 0" imageRepeat="None" />
    <mask fill="white" id="Clip3522">
      <path d="M 2 3.5000000000000018  C 2 2.6715728752538106  2.6715728752538084 2.0000000000000027  3.5 2.0000000000000027  C 4.328427124746188 2.0000000000000027  5 2.6715728752538106  5 3.5000000000000018  C 5 4.3284271247461925  4.328427124746188 5.000000000000001  3.5 5.000000000000001  C 2.6715728752538084 5.000000000000001  2 4.3284271247461925  2 3.5000000000000018  Z M 7 3.4999999999999982  C 7 1.5670033755922246  5.432996624407778 0  3.5 0  C 1.567003375592222 0  0 1.5670033755922246  0 3.4999999999999982  C 0 5.432996624407775  1.567003375592222 6.9999999999999964  3.5 6.9999999999999964  C 5.432996624407778 6.9999999999999964  7 5.432996624407775  7 3.4999999999999982  Z " fill-rule="evenodd" />
    </mask>
  </defs>
  <g transform="matrix(1 0 0 1 -21 -19 )">
    <path d="M 2 3.5000000000000018  C 2 2.6715728752538106  2.6715728752538084 2.0000000000000027  3.5 2.0000000000000027  C 4.328427124746188 2.0000000000000027  5 2.6715728752538106  5 3.5000000000000018  C 5 4.3284271247461925  4.328427124746188 5.000000000000001  3.5 5.000000000000001  C 2.6715728752538084 5.000000000000001  2 4.3284271247461925  2 3.5000000000000018  Z M 7 3.4999999999999982  C 7 1.5670033755922246  5.432996624407778 0  3.5 0  C 1.567003375592222 0  0 1.5670033755922246  0 3.4999999999999982  C 0 5.432996624407775  1.567003375592222 6.9999999999999964  3.5 6.9999999999999964  C 5.432996624407778 6.9999999999999964  7 5.432996624407775  7 3.4999999999999982  Z " fill-rule="nonzero" fill="rgba(0, 0, 0, 1)" stroke="none" transform="matrix(1 0 0 1 21 19 )" class="fill" />
    <path d="M 2 3.5000000000000018  C 2 2.6715728752538106  2.6715728752538084 2.0000000000000027  3.5 2.0000000000000027  C 4.328427124746188 2.0000000000000027  5 2.6715728752538106  5 3.5000000000000018  C 5 4.3284271247461925  4.328427124746188 5.000000000000001  3.5 5.000000000000001  C 2.6715728752538084 5.000000000000001  2 4.3284271247461925  2 3.5000000000000018  Z " stroke-width="0" stroke-dasharray="0" stroke="rgba(255, 255, 255, 0)" fill="none" transform="matrix(1 0 0 1 21 19 )" class="stroke" mask="url(#Clip3522)" />
    <path d="M 7 3.4999999999999982  C 7 1.5670033755922246  5.432996624407778 0  3.5 0  C 1.567003375592222 0  0 1.5670033755922246  0 3.4999999999999982  C 0 5.432996624407775  1.567003375592222 6.9999999999999964  3.5 6.9999999999999964  C 5.432996624407778 6.9999999999999964  7 5.432996624407775  7 3.4999999999999982  Z " stroke-width="0" stroke-dasharray="0" stroke="rgba(255, 255, 255, 0)" fill="none" transform="matrix(1 0 0 1 21 19 )" class="stroke" mask="url(#Clip3522)" />
  </g>
</svg>