<?xml version="1.0" encoding="utf-8"?>
<svg version="1.1" xmlns:xlink="http://www.w3.org/1999/xlink" width="25px" height="18px" xmlns="http://www.w3.org/2000/svg">
  <defs>
    <pattern id="BGPattern" patternUnits="userSpaceOnUse" alignment="0 0" imageRepeat="None" />
    <mask fill="white" id="Clip6363">
      <path d="M 10.219 2.9690000000000003  L 12.469 0.7189999999999999  C 12.60970639451525 0.5779374489685472  12.80075910871264 0.49865932447187244  13 0.49865932447187244  C 13.199240891287358 0.49865932447187244  13.390293605484748 0.577937448968548  13.530999999999999 0.7189999999999999  L 15.780999999999997 2.9690000000000003  C 15.921829956104796 3.1098299561047966  16.000947401620117 3.3008363660881876  16.000947401620117 3.5  C 16.000947401620117 3.9147367978398506  15.664736797839849 4.250947401620113  15.25 4.250947401620113  C 15.050836366088188 4.250947401620113  14.859829956104797 4.171829956104798  14.719 4.031000000000001  L 13.750000000000002 3.0604999999999993  L 13.750000000000002 5.75  C 13.750000000000002 6.164213562373095  13.414213562373096 6.5  13 6.5  C 12.585786437626902 6.5  12.25 6.164213562373095  12.25 5.75  L 12.25 3.0604999999999993  L 11.281 4.031000000000001  C 11.140170043895202 4.171829956104798  10.949163633911812 4.250947401620113  10.75 4.250947401620113  C 10.335263202160151 4.250947401620113  9.999052598379887 3.914736797839849  9.999052598379887 3.5  C 9.999052598379887 3.3008363660881876  10.078170043895202 3.1098299561047975  10.219 2.9690000000000003  Z M 4.5145 6.574999999999999  C 4.221713546250354 6.282125111385639  4.221713546250353 5.80737488861436  4.5145 5.5145  C 4.80737488861436 5.221713546250353  5.282125111385639 5.221713546250353  5.574999999999999 5.5145  L 7.696 7.6355  C 7.831051679907029 7.775329323932127  7.906533845704409 7.962134267317452  7.906533845704409 8.15653384570441  C 7.906533845704409 8.570747408077505  7.570747408077503 8.90653384570441  7.156533845704409 8.90653384570441  C 6.9621342673174516 8.90653384570441  6.7753293239321275 8.831051679907029  6.6354999999999995 8.696  L 4.5145 6.574999999999999  Z M 20.424999999999997 5.5145  C 20.71787488861436 5.221713546250353  21.192625111385638 5.221713546250353  21.485500000000002 5.5145  C 21.778286453749647 5.807374888614362  21.778286453749647 6.282125111385638  21.485500000000002 6.574999999999999  L 19.3645 8.696  C 19.223172721048893 8.842326931160747  19.028466809008428 8.92496615429557  18.825033845704432 8.92496615429557  C 18.410820283331336 8.92496615429557  18.075033845704432 8.589179716668664  18.075033845704432 8.17496615429557  C 18.075033845704432 7.971533190991572  18.15767306883925 7.776827278951108  18.304 7.6355  L 20.424999999999997 5.5145  Z M 12.997113782643947 9.4999990744165  C 12.998075855169693 9.4999990744165  12.999037927672132 9.499999382944353  13 9.499999999999998  C 13.000461935376906 9.499999857743793  13.000923870768712 9.499999786615689  13.00138580616752 9.499999786615689  C 15.48666718040609 9.499999786615689  17.50138580616752 11.514718412377118  17.50138580616752 13.999999786615689  C 17.50138580616752 14.789914855695262  17.29345757199656 15.56591350497063  16.8985 16.25  L 9.100000000000001 16.25  C 8.705042163547864 15.565913335634875  8.497113782643947 14.789914422372945  8.497113782643947 13.999999074416502  C 8.497113782643947 11.514717700177933  10.511832408405375 9.4999990744165  12.997113782643947 9.4999990744165  Z M 18.563499999999998 16.25  L 18.565 16.25  C 18.853304466678342 15.536058402083036  19.0015 14.773298872282268  19.0015 14.00334298345297  C 19.0015 10.68963448446821  16.31520849898476 8.00334298345297  13.001500000000002 8.00334298345297  C 9.68779150101524 8.00334298345297  7.001500000000002 10.68963448446821  7.001500000000002 14.00334298345297  C 7.001500000000002 14.773298872282268  7.149695533321661 15.536058402083036  7.438000000000001 16.25  L 1.7485 16.25  C 1.334286437626905 16.25  0.9984999999999999 16.585786437626904  0.9984999999999999 17  C 0.9984999999999999 17.414213562373096  1.334286437626905 17.75  1.7485 17.75  L 24.2485 17.75  C 24.662713562373096 17.75  24.9985 17.414213562373096  24.9985 17  C 24.9985 16.585786437626904  24.662713562373096 16.25  24.2485 16.25  L 18.563499999999998 16.25  Z M 1.7500000000000002 14.75  C 1.3357864376269049 14.75  1 14.414213562373096  1 14  C 1 13.585786437626904  1.3357864376269049 13.25  1.7500000000000002 13.25  L 4.75 13.25  C 5.164213562373095 13.25  5.5 13.585786437626904  5.5 14  C 5.5 14.414213562373096  5.164213562373095 14.75  4.75 14.75  L 1.7500000000000002 14.75  Z M 21.25 14.75  C 20.835786437626904 14.75  20.5 14.414213562373096  20.5 14  C 20.5 13.585786437626904  20.835786437626904 13.25  21.25 13.25  L 24.25 13.25  C 24.664213562373096 13.25  25 13.585786437626904  25 14  C 25 14.414213562373096  24.664213562373096 14.75  24.25 14.75  L 21.25 14.75  Z " fill-rule="evenodd" />
    </mask>
  </defs>
  <g>
    <path d="M 10.219 2.9690000000000003  L 12.469 0.7189999999999999  C 12.60970639451525 0.5779374489685472  12.80075910871264 0.49865932447187244  13 0.49865932447187244  C 13.199240891287358 0.49865932447187244  13.390293605484748 0.577937448968548  13.530999999999999 0.7189999999999999  L 15.780999999999997 2.9690000000000003  C 15.921829956104796 3.1098299561047966  16.000947401620117 3.3008363660881876  16.000947401620117 3.5  C 16.000947401620117 3.9147367978398506  15.664736797839849 4.250947401620113  15.25 4.250947401620113  C 15.050836366088188 4.250947401620113  14.859829956104797 4.171829956104798  14.719 4.031000000000001  L 13.750000000000002 3.0604999999999993  L 13.750000000000002 5.75  C 13.750000000000002 6.164213562373095  13.414213562373096 6.5  13 6.5  C 12.585786437626902 6.5  12.25 6.164213562373095  12.25 5.75  L 12.25 3.0604999999999993  L 11.281 4.031000000000001  C 11.140170043895202 4.171829956104798  10.949163633911812 4.250947401620113  10.75 4.250947401620113  C 10.335263202160151 4.250947401620113  9.999052598379887 3.914736797839849  9.999052598379887 3.5  C 9.999052598379887 3.3008363660881876  10.078170043895202 3.1098299561047975  10.219 2.9690000000000003  Z M 4.5145 6.574999999999999  C 4.221713546250354 6.282125111385639  4.221713546250353 5.80737488861436  4.5145 5.5145  C 4.80737488861436 5.221713546250353  5.282125111385639 5.221713546250353  5.574999999999999 5.5145  L 7.696 7.6355  C 7.831051679907029 7.775329323932127  7.906533845704409 7.962134267317452  7.906533845704409 8.15653384570441  C 7.906533845704409 8.570747408077505  7.570747408077503 8.90653384570441  7.156533845704409 8.90653384570441  C 6.9621342673174516 8.90653384570441  6.7753293239321275 8.831051679907029  6.6354999999999995 8.696  L 4.5145 6.574999999999999  Z M 20.424999999999997 5.5145  C 20.71787488861436 5.221713546250353  21.192625111385638 5.221713546250353  21.485500000000002 5.5145  C 21.778286453749647 5.807374888614362  21.778286453749647 6.282125111385638  21.485500000000002 6.574999999999999  L 19.3645 8.696  C 19.223172721048893 8.842326931160747  19.028466809008428 8.92496615429557  18.825033845704432 8.92496615429557  C 18.410820283331336 8.92496615429557  18.075033845704432 8.589179716668664  18.075033845704432 8.17496615429557  C 18.075033845704432 7.971533190991572  18.15767306883925 7.776827278951108  18.304 7.6355  L 20.424999999999997 5.5145  Z M 12.997113782643947 9.4999990744165  C 12.998075855169693 9.4999990744165  12.999037927672132 9.499999382944353  13 9.499999999999998  C 13.000461935376906 9.499999857743793  13.000923870768712 9.499999786615689  13.00138580616752 9.499999786615689  C 15.48666718040609 9.499999786615689  17.50138580616752 11.514718412377118  17.50138580616752 13.999999786615689  C 17.50138580616752 14.789914855695262  17.29345757199656 15.56591350497063  16.8985 16.25  L 9.100000000000001 16.25  C 8.705042163547864 15.565913335634875  8.497113782643947 14.789914422372945  8.497113782643947 13.999999074416502  C 8.497113782643947 11.514717700177933  10.511832408405375 9.4999990744165  12.997113782643947 9.4999990744165  Z M 18.563499999999998 16.25  L 18.565 16.25  C 18.853304466678342 15.536058402083036  19.0015 14.773298872282268  19.0015 14.00334298345297  C 19.0015 10.68963448446821  16.31520849898476 8.00334298345297  13.001500000000002 8.00334298345297  C 9.68779150101524 8.00334298345297  7.001500000000002 10.68963448446821  7.001500000000002 14.00334298345297  C 7.001500000000002 14.773298872282268  7.149695533321661 15.536058402083036  7.438000000000001 16.25  L 1.7485 16.25  C 1.334286437626905 16.25  0.9984999999999999 16.585786437626904  0.9984999999999999 17  C 0.9984999999999999 17.414213562373096  1.334286437626905 17.75  1.7485 17.75  L 24.2485 17.75  C 24.662713562373096 17.75  24.9985 17.414213562373096  24.9985 17  C 24.9985 16.585786437626904  24.662713562373096 16.25  24.2485 16.25  L 18.563499999999998 16.25  Z M 1.7500000000000002 14.75  C 1.3357864376269049 14.75  1 14.414213562373096  1 14  C 1 13.585786437626904  1.3357864376269049 13.25  1.7500000000000002 13.25  L 4.75 13.25  C 5.164213562373095 13.25  5.5 13.585786437626904  5.5 14  C 5.5 14.414213562373096  5.164213562373095 14.75  4.75 14.75  L 1.7500000000000002 14.75  Z M 21.25 14.75  C 20.835786437626904 14.75  20.5 14.414213562373096  20.5 14  C 20.5 13.585786437626904  20.835786437626904 13.25  21.25 13.25  L 24.25 13.25  C 24.664213562373096 13.25  25 13.585786437626904  25 14  C 25 14.414213562373096  24.664213562373096 14.75  24.25 14.75  L 21.25 14.75  Z " fill-rule="nonzero" fill="rgba(0, 0, 0, 1)" stroke="none" class="fill" />
    <path d="M 10.219 2.9690000000000003  L 12.469 0.7189999999999999  C 12.60970639451525 0.5779374489685472  12.80075910871264 0.49865932447187244  13 0.49865932447187244  C 13.199240891287358 0.49865932447187244  13.390293605484748 0.577937448968548  13.530999999999999 0.7189999999999999  L 15.780999999999997 2.9690000000000003  C 15.921829956104796 3.1098299561047966  16.000947401620117 3.3008363660881876  16.000947401620117 3.5  C 16.000947401620117 3.9147367978398506  15.664736797839849 4.250947401620113  15.25 4.250947401620113  C 15.050836366088188 4.250947401620113  14.859829956104797 4.171829956104798  14.719 4.031000000000001  L 13.750000000000002 3.0604999999999993  L 13.750000000000002 5.75  C 13.750000000000002 6.164213562373095  13.414213562373096 6.5  13 6.5  C 12.585786437626902 6.5  12.25 6.164213562373095  12.25 5.75  L 12.25 3.0604999999999993  L 11.281 4.031000000000001  C 11.140170043895202 4.171829956104798  10.949163633911812 4.250947401620113  10.75 4.250947401620113  C 10.335263202160151 4.250947401620113  9.999052598379887 3.914736797839849  9.999052598379887 3.5  C 9.999052598379887 3.3008363660881876  10.078170043895202 3.1098299561047975  10.219 2.9690000000000003  Z " stroke-width="0" stroke-dasharray="0" stroke="rgba(255, 255, 255, 0)" fill="none" class="stroke" mask="url(#Clip6363)" />
    <path d="M 4.5145 6.574999999999999  C 4.221713546250354 6.282125111385639  4.221713546250353 5.80737488861436  4.5145 5.5145  C 4.80737488861436 5.221713546250353  5.282125111385639 5.221713546250353  5.574999999999999 5.5145  L 7.696 7.6355  C 7.831051679907029 7.775329323932127  7.906533845704409 7.962134267317452  7.906533845704409 8.15653384570441  C 7.906533845704409 8.570747408077505  7.570747408077503 8.90653384570441  7.156533845704409 8.90653384570441  C 6.9621342673174516 8.90653384570441  6.7753293239321275 8.831051679907029  6.6354999999999995 8.696  L 4.5145 6.574999999999999  Z " stroke-width="0" stroke-dasharray="0" stroke="rgba(255, 255, 255, 0)" fill="none" class="stroke" mask="url(#Clip6363)" />
    <path d="M 20.424999999999997 5.5145  C 20.71787488861436 5.221713546250353  21.192625111385638 5.221713546250353  21.485500000000002 5.5145  C 21.778286453749647 5.807374888614362  21.778286453749647 6.282125111385638  21.485500000000002 6.574999999999999  L 19.3645 8.696  C 19.223172721048893 8.842326931160747  19.028466809008428 8.92496615429557  18.825033845704432 8.92496615429557  C 18.410820283331336 8.92496615429557  18.075033845704432 8.589179716668664  18.075033845704432 8.17496615429557  C 18.075033845704432 7.971533190991572  18.15767306883925 7.776827278951108  18.304 7.6355  L 20.424999999999997 5.5145  Z " stroke-width="0" stroke-dasharray="0" stroke="rgba(255, 255, 255, 0)" fill="none" class="stroke" mask="url(#Clip6363)" />
    <path d="M 12.997113782643947 9.4999990744165  C 12.998075855169693 9.4999990744165  12.999037927672132 9.499999382944353  13 9.499999999999998  C 13.000461935376906 9.499999857743793  13.000923870768712 9.499999786615689  13.00138580616752 9.499999786615689  C 15.48666718040609 9.499999786615689  17.50138580616752 11.514718412377118  17.50138580616752 13.999999786615689  C 17.50138580616752 14.789914855695262  17.29345757199656 15.56591350497063  16.8985 16.25  L 9.100000000000001 16.25  C 8.705042163547864 15.565913335634875  8.497113782643947 14.789914422372945  8.497113782643947 13.999999074416502  C 8.497113782643947 11.514717700177933  10.511832408405375 9.4999990744165  12.997113782643947 9.4999990744165  Z " stroke-width="0" stroke-dasharray="0" stroke="rgba(255, 255, 255, 0)" fill="none" class="stroke" mask="url(#Clip6363)" />
    <path d="M 18.563499999999998 16.25  L 18.565 16.25  C 18.853304466678342 15.536058402083036  19.0015 14.773298872282268  19.0015 14.00334298345297  C 19.0015 10.68963448446821  16.31520849898476 8.00334298345297  13.001500000000002 8.00334298345297  C 9.68779150101524 8.00334298345297  7.001500000000002 10.68963448446821  7.001500000000002 14.00334298345297  C 7.001500000000002 14.773298872282268  7.149695533321661 15.536058402083036  7.438000000000001 16.25  L 1.7485 16.25  C 1.334286437626905 16.25  0.9984999999999999 16.585786437626904  0.9984999999999999 17  C 0.9984999999999999 17.414213562373096  1.334286437626905 17.75  1.7485 17.75  L 24.2485 17.75  C 24.662713562373096 17.75  24.9985 17.414213562373096  24.9985 17  C 24.9985 16.585786437626904  24.662713562373096 16.25  24.2485 16.25  L 18.563499999999998 16.25  Z " stroke-width="0" stroke-dasharray="0" stroke="rgba(255, 255, 255, 0)" fill="none" class="stroke" mask="url(#Clip6363)" />
    <path d="M 1.7500000000000002 14.75  C 1.3357864376269049 14.75  1 14.414213562373096  1 14  C 1 13.585786437626904  1.3357864376269049 13.25  1.7500000000000002 13.25  L 4.75 13.25  C 5.164213562373095 13.25  5.5 13.585786437626904  5.5 14  C 5.5 14.414213562373096  5.164213562373095 14.75  4.75 14.75  L 1.7500000000000002 14.75  Z " stroke-width="0" stroke-dasharray="0" stroke="rgba(255, 255, 255, 0)" fill="none" class="stroke" mask="url(#Clip6363)" />
    <path d="M 21.25 14.75  C 20.835786437626904 14.75  20.5 14.414213562373096  20.5 14  C 20.5 13.585786437626904  20.835786437626904 13.25  21.25 13.25  L 24.25 13.25  C 24.664213562373096 13.25  25 13.585786437626904  25 14  C 25 14.414213562373096  24.664213562373096 14.75  24.25 14.75  L 21.25 14.75  Z " stroke-width="0" stroke-dasharray="0" stroke="rgba(255, 255, 255, 0)" fill="none" class="stroke" mask="url(#Clip6363)" />
  </g>
</svg>