<?xml version="1.0" encoding="utf-8"?>
<svg version="1.1" xmlns:xlink="http://www.w3.org/1999/xlink" width="44px" height="48px" xmlns="http://www.w3.org/2000/svg">
  <defs>
    <pattern id="BGPattern" patternUnits="userSpaceOnUse" alignment="0 0" imageRepeat="None" />
    <mask fill="white" id="Clip6941">
      <path d="M 6.436 0  L 6.433999999999999 0  C 2.9480000000000004 0  0.1200000000000001 2.826  1 6.312  L 1 31.54  C 0.1200000000000001 35.028  2.9480000000000004 37.856  6.434000000000001 37  L 25.168000000000003 37  C 25.134 44.996  15.512 48  15.512 48  C 15.512 48  31.787999999999997 47.924  34.122 37.856  L 37.562 37.856  C 41.05 37.856  43.876 35.028  43 31.542  L 43 6.314  C 43.876 2.826  41.048 0  37.564 0  L 6.436 0  Z M 15.490000000000002 5.050000000000004  L 15.488 5.06  C 15.634 5.034  15.751999999999999 5.053999999999999  15.836 5.127999999999999  C 16.506 5.727999999999999  14.723999999999997 6.313999999999998  14.867999999999999 9.254  C 14.931999999999999 10.546  14.547999999999998 11.546  17.02 11.546  C 18.672 11.546  17.986 10.078  20.066 10.078  C 21.378 10.078  21.785999999999998 10.947999999999999  21.933999999999997 11.612  C 22.077999999999996 10.952  22.482 10.076  23.793999999999997 10.076  C 25.873999999999995 10.076  25.194 11.542  26.843999999999998 11.542  C 29.317999999999998 11.542  28.932 10.542  28.995999999999995 9.25  C 29.139999999999997 6.3100000000000005  27.355999999999998 5.7219999999999995  28.028 5.124  C 28.112 5.05  28.227999999999998 5.04  28.372 5.084  C 29.372 5.369999999999999  31.586 8.2  31.647999999999996 9.393999999999998  C 31.724 10.813999999999998  31.727999999999994 13.044  29.617999999999995 14.207999999999998  C 31.998 16.541999999999998  32.321999999999996 19.648  32.321999999999996 19.648  L 28.231999999999996 19.58  C 28.231999999999996 19.58  27.303999999999995 15.343999999999998  22.351999999999997 15.559999999999999  C 17.403999999999996 15.775999999999996  16.759999999999998 16.636  16.759999999999998 21.872  C 16.759999999999998 27.106  19.054 28.906  22.569999999999993 29.042  C 28.089999999999996 29.258000000000003  27.589999999999996 26.176000000000002  27.589999999999996 26.176000000000002  L 25.009999999999998 26.32  L 23.573999999999995 22.446  L 32.394 22.446  C 32.394 26.678  30.599999999999998 33.274  22.21 32.846000000000004  C 13.818000000000001 32.414  11.954 25.816000000000003  11.882000000000001 21.366000000000003  C 11.846000000000002 18.916000000000004  12.258000000000001 16.162000000000003  14.282 14.218000000000004  C 12.178 13.058000000000003  12.216000000000001 10.818000000000003  12.216000000000001 9.390000000000004  C 12.216000000000001 7.630000000000004  14.475999999999999 5.222000000000004  15.490000000000002 5.050000000000004  Z " fill-rule="evenodd" />
    </mask>
  </defs>
  <g>
    <path d="M 6.436 0  L 6.433999999999999 0  C 2.9480000000000004 0  0.1200000000000001 2.826  1 6.312  L 1 31.54  C 0.1200000000000001 35.028  2.9480000000000004 37.856  6.434000000000001 37  L 25.168000000000003 37  C 25.134 44.996  15.512 48  15.512 48  C 15.512 48  31.787999999999997 47.924  34.122 37.856  L 37.562 37.856  C 41.05 37.856  43.876 35.028  43 31.542  L 43 6.314  C 43.876 2.826  41.048 0  37.564 0  L 6.436 0  Z M 15.490000000000002 5.050000000000004  L 15.488 5.06  C 15.634 5.034  15.751999999999999 5.053999999999999  15.836 5.127999999999999  C 16.506 5.727999999999999  14.723999999999997 6.313999999999998  14.867999999999999 9.254  C 14.931999999999999 10.546  14.547999999999998 11.546  17.02 11.546  C 18.672 11.546  17.986 10.078  20.066 10.078  C 21.378 10.078  21.785999999999998 10.947999999999999  21.933999999999997 11.612  C 22.077999999999996 10.952  22.482 10.076  23.793999999999997 10.076  C 25.873999999999995 10.076  25.194 11.542  26.843999999999998 11.542  C 29.317999999999998 11.542  28.932 10.542  28.995999999999995 9.25  C 29.139999999999997 6.3100000000000005  27.355999999999998 5.7219999999999995  28.028 5.124  C 28.112 5.05  28.227999999999998 5.04  28.372 5.084  C 29.372 5.369999999999999  31.586 8.2  31.647999999999996 9.393999999999998  C 31.724 10.813999999999998  31.727999999999994 13.044  29.617999999999995 14.207999999999998  C 31.998 16.541999999999998  32.321999999999996 19.648  32.321999999999996 19.648  L 28.231999999999996 19.58  C 28.231999999999996 19.58  27.303999999999995 15.343999999999998  22.351999999999997 15.559999999999999  C 17.403999999999996 15.775999999999996  16.759999999999998 16.636  16.759999999999998 21.872  C 16.759999999999998 27.106  19.054 28.906  22.569999999999993 29.042  C 28.089999999999996 29.258000000000003  27.589999999999996 26.176000000000002  27.589999999999996 26.176000000000002  L 25.009999999999998 26.32  L 23.573999999999995 22.446  L 32.394 22.446  C 32.394 26.678  30.599999999999998 33.274  22.21 32.846000000000004  C 13.818000000000001 32.414  11.954 25.816000000000003  11.882000000000001 21.366000000000003  C 11.846000000000002 18.916000000000004  12.258000000000001 16.162000000000003  14.282 14.218000000000004  C 12.178 13.058000000000003  12.216000000000001 10.818000000000003  12.216000000000001 9.390000000000004  C 12.216000000000001 7.630000000000004  14.475999999999999 5.222000000000004  15.490000000000002 5.050000000000004  Z " fill-rule="nonzero" fill="rgba(162, 36, 48, 1)" stroke="none" class="fill" />
    <path d="M 6.436 0  L 6.433999999999999 0  C 2.9480000000000004 0  0.1200000000000001 2.826  1 6.312  L 1 31.54  C 0.1200000000000001 35.028  2.9480000000000004 37.856  6.434000000000001 37  L 25.168000000000003 37  C 25.134 44.996  15.512 48  15.512 48  C 15.512 48  31.787999999999997 47.924  34.122 37.856  L 37.562 37.856  C 41.05 37.856  43.876 35.028  43 31.542  L 43 6.314  C 43.876 2.826  41.048 0  37.564 0  L 6.436 0  Z " stroke-width="0" stroke-dasharray="0" stroke="rgba(255, 255, 255, 0)" fill="none" class="stroke" mask="url(#Clip6941)" />
    <path d="M 15.490000000000002 5.050000000000004  L 15.488 5.06  C 15.634 5.034  15.751999999999999 5.053999999999999  15.836 5.127999999999999  C 16.506 5.727999999999999  14.723999999999997 6.313999999999998  14.867999999999999 9.254  C 14.931999999999999 10.546  14.547999999999998 11.546  17.02 11.546  C 18.672 11.546  17.986 10.078  20.066 10.078  C 21.378 10.078  21.785999999999998 10.947999999999999  21.933999999999997 11.612  C 22.077999999999996 10.952  22.482 10.076  23.793999999999997 10.076  C 25.873999999999995 10.076  25.194 11.542  26.843999999999998 11.542  C 29.317999999999998 11.542  28.932 10.542  28.995999999999995 9.25  C 29.139999999999997 6.3100000000000005  27.355999999999998 5.7219999999999995  28.028 5.124  C 28.112 5.05  28.227999999999998 5.04  28.372 5.084  C 29.372 5.369999999999999  31.586 8.2  31.647999999999996 9.393999999999998  C 31.724 10.813999999999998  31.727999999999994 13.044  29.617999999999995 14.207999999999998  C 31.998 16.541999999999998  32.321999999999996 19.648  32.321999999999996 19.648  L 28.231999999999996 19.58  C 28.231999999999996 19.58  27.303999999999995 15.343999999999998  22.351999999999997 15.559999999999999  C 17.403999999999996 15.775999999999996  16.759999999999998 16.636  16.759999999999998 21.872  C 16.759999999999998 27.106  19.054 28.906  22.569999999999993 29.042  C 28.089999999999996 29.258000000000003  27.589999999999996 26.176000000000002  27.589999999999996 26.176000000000002  L 25.009999999999998 26.32  L 23.573999999999995 22.446  L 32.394 22.446  C 32.394 26.678  30.599999999999998 33.274  22.21 32.846000000000004  C 13.818000000000001 32.414  11.954 25.816000000000003  11.882000000000001 21.366000000000003  C 11.846000000000002 18.916000000000004  12.258000000000001 16.162000000000003  14.282 14.218000000000004  C 12.178 13.058000000000003  12.216000000000001 10.818000000000003  12.216000000000001 9.390000000000004  C 12.216000000000001 7.630000000000004  14.475999999999999 5.222000000000004  15.490000000000002 5.050000000000004  Z " stroke-width="0" stroke-dasharray="0" stroke="rgba(255, 255, 255, 0)" fill="none" class="stroke" mask="url(#Clip6941)" />
  </g>
</svg>