<?xml version="1.0" encoding="utf-8"?>
<svg version="1.1" xmlns:xlink="http://www.w3.org/1999/xlink" width="5px" height="16px" xmlns="http://www.w3.org/2000/svg">
  <defs>
    <pattern id="BGPattern" patternUnits="userSpaceOnUse" alignment="0 0" imageRepeat="None" />
    <mask fill="white" id="Clip2480">
      <path d="M 0.5 13.75  C 0.5 14.854569499661586  1.3954305003384135 15.75  2.5 15.75  C 3.6045694996615865 15.75  4.5 14.854569499661586  4.5 13.75  C 4.5 12.645430500338414  3.6045694996615865 11.75  2.5 11.75  C 1.3954305003384135 11.75  0.5 12.645430500338414  0.5 13.75  Z M 0.5 2.625  C 0.5 3.7295694996615865  1.3954305003384135 4.625  2.5 4.625  C 3.6045694996615865 4.625  4.5 3.7295694996615865  4.5 2.625  C 4.5 1.5204305003384135  3.6045694996615865 0.625  2.5 0.625  C 1.3954305003384135 0.625  0.5 1.5204305003384135  0.5 2.625  Z " fill-rule="evenodd" />
    </mask>
  </defs>
  <g transform="matrix(1 0 0 1 -23 -23 )">
    <path d="M 0.5 13.75  C 0.5 14.854569499661586  1.3954305003384135 15.75  2.5 15.75  C 3.6045694996615865 15.75  4.5 14.854569499661586  4.5 13.75  C 4.5 12.645430500338414  3.6045694996615865 11.75  2.5 11.75  C 1.3954305003384135 11.75  0.5 12.645430500338414  0.5 13.75  Z M 0.5 2.625  C 0.5 3.7295694996615865  1.3954305003384135 4.625  2.5 4.625  C 3.6045694996615865 4.625  4.5 3.7295694996615865  4.5 2.625  C 4.5 1.5204305003384135  3.6045694996615865 0.625  2.5 0.625  C 1.3954305003384135 0.625  0.5 1.5204305003384135  0.5 2.625  Z " fill-rule="nonzero" fill="rgba(0, 0, 0, 1)" stroke="none" transform="matrix(1 0 0 1 23 23 )" class="fill" />
    <path d="M 0.5 13.75  C 0.5 14.854569499661586  1.3954305003384135 15.75  2.5 15.75  C 3.6045694996615865 15.75  4.5 14.854569499661586  4.5 13.75  C 4.5 12.645430500338414  3.6045694996615865 11.75  2.5 11.75  C 1.3954305003384135 11.75  0.5 12.645430500338414  0.5 13.75  Z " stroke-width="0" stroke-dasharray="0" stroke="rgba(255, 255, 255, 0)" fill="none" transform="matrix(1 0 0 1 23 23 )" class="stroke" mask="url(#Clip2480)" />
    <path d="M 0.5 2.625  C 0.5 3.7295694996615865  1.3954305003384135 4.625  2.5 4.625  C 3.6045694996615865 4.625  4.5 3.7295694996615865  4.5 2.625  C 4.5 1.5204305003384135  3.6045694996615865 0.625  2.5 0.625  C 1.3954305003384135 0.625  0.5 1.5204305003384135  0.5 2.625  Z " stroke-width="0" stroke-dasharray="0" stroke="rgba(255, 255, 255, 0)" fill="none" transform="matrix(1 0 0 1 23 23 )" class="stroke" mask="url(#Clip2480)" />
  </g>
</svg>