<?xml version="1.0" encoding="utf-8"?>
<svg version="1.1" xmlns:xlink="http://www.w3.org/1999/xlink" width="48px" height="40px" xmlns="http://www.w3.org/2000/svg">
  <defs>
    <pattern id="BGPattern" patternUnits="userSpaceOnUse" alignment="0 0" imageRepeat="None" />
    <mask fill="white" id="Clip7190">
      <path d="M 44.066 22.03600000000001  L 47.986 15.632000000000001  L 24 0.9459999999999997  L 15.759999999999998 5.994  L 15.759999999999998 0.9459999999999997  L 8.248 0.9459999999999997  L 8.248 10.584  L 0.008 15.632000000000001  L 3.93 22.036  L 9 19.406000000000002  L 9 39  L 39 39  L 39 19.406000000000006  L 44.066 22.03600000000001  Z " fill-rule="evenodd" />
    </mask>
  </defs>
  <g>
    <path d="M 44.066 22.03600000000001  L 47.986 15.632000000000001  L 24 0.9459999999999997  L 15.759999999999998 5.994  L 15.759999999999998 0.9459999999999997  L 8.248 0.9459999999999997  L 8.248 10.584  L 0.008 15.632000000000001  L 3.93 22.036  L 9 19.406000000000002  L 9 39  L 39 39  L 39 19.406000000000006  L 44.066 22.03600000000001  Z " fill-rule="nonzero" fill="rgba(0, 178, 70, 1)" stroke="none" class="fill" />
    <path d="M 44.066 22.03600000000001  L 47.986 15.632000000000001  L 24 0.9459999999999997  L 15.759999999999998 5.994  L 15.759999999999998 0.9459999999999997  L 8.248 0.9459999999999997  L 8.248 10.584  L 0.008 15.632000000000001  L 3.93 22.036  L 9 19.406000000000002  L 9 39  L 39 39  L 39 19.406000000000006  L 44.066 22.03600000000001  Z " stroke-width="0" stroke-dasharray="0" stroke="rgba(255, 255, 255, 0)" fill="none" class="stroke" mask="url(#Clip7190)" />
  </g>
</svg>