<?xml version="1.0" encoding="utf-8"?>
<svg version="1.1" xmlns:xlink="http://www.w3.org/1999/xlink" width="11px" height="11px" xmlns="http://www.w3.org/2000/svg">
  <defs>
    <pattern id="BGPattern" patternUnits="userSpaceOnUse" alignment="0 0" imageRepeat="None" />
    <mask fill="white" id="Clip6596">
      <path d="M 5 1.25  C 5 0.8357864376269052  5.335786437626904 0.5  5.75 0.5  C 6.164213562373096 0.5  6.5 0.8357864376269052  6.5 1.25  L 6.5 5  L 10.25 5  C 10.664213562373096 5  11 5.335786437626904  11 5.75  C 11 6.164213562373096  10.664213562373096 6.5  10.25 6.5  L 6.5 6.5  L 6.5 10.25  C 6.5 10.664213562373096  6.164213562373096 11  5.75 11  C 5.335786437626904 11  5 10.664213562373096  5 10.25  L 5 6.5  L 1.25 6.5  C 0.8357864376269052 6.5  0.5 6.164213562373096  0.5 5.75  C 0.5 5.335786437626904  0.8357864376269052 5  1.25 5  L 5 5  L 5 1.25  Z " fill-rule="evenodd" />
    </mask>
  </defs>
  <g transform="matrix(1 0 0 1 -4 -4 )">
    <path d="M 5 1.25  C 5 0.8357864376269052  5.335786437626904 0.5  5.75 0.5  C 6.164213562373096 0.5  6.5 0.8357864376269052  6.5 1.25  L 6.5 5  L 10.25 5  C 10.664213562373096 5  11 5.335786437626904  11 5.75  C 11 6.164213562373096  10.664213562373096 6.5  10.25 6.5  L 6.5 6.5  L 6.5 10.25  C 6.5 10.664213562373096  6.164213562373096 11  5.75 11  C 5.335786437626904 11  5 10.664213562373096  5 10.25  L 5 6.5  L 1.25 6.5  C 0.8357864376269052 6.5  0.5 6.164213562373096  0.5 5.75  C 0.5 5.335786437626904  0.8357864376269052 5  1.25 5  L 5 5  L 5 1.25  Z " fill-rule="nonzero" fill="rgba(0, 0, 0, 1)" stroke="none" transform="matrix(1 0 0 1 4 4 )" class="fill" />
    <path d="M 5 1.25  C 5 0.8357864376269052  5.335786437626904 0.5  5.75 0.5  C 6.164213562373096 0.5  6.5 0.8357864376269052  6.5 1.25  L 6.5 5  L 10.25 5  C 10.664213562373096 5  11 5.335786437626904  11 5.75  C 11 6.164213562373096  10.664213562373096 6.5  10.25 6.5  L 6.5 6.5  L 6.5 10.25  C 6.5 10.664213562373096  6.164213562373096 11  5.75 11  C 5.335786437626904 11  5 10.664213562373096  5 10.25  L 5 6.5  L 1.25 6.5  C 0.8357864376269052 6.5  0.5 6.164213562373096  0.5 5.75  C 0.5 5.335786437626904  0.8357864376269052 5  1.25 5  L 5 5  L 5 1.25  Z " stroke-width="0" stroke-dasharray="0" stroke="rgba(255, 255, 255, 0)" fill="none" transform="matrix(1 0 0 1 4 4 )" class="stroke" mask="url(#Clip6596)" />
  </g>
</svg>