<?xml version="1.0" encoding="utf-8"?>
<svg version="1.1" xmlns:xlink="http://www.w3.org/1999/xlink" width="48px" height="20px" xmlns="http://www.w3.org/2000/svg">
  <defs>
    <pattern id="BGPattern" patternUnits="userSpaceOnUse" alignment="0 0" imageRepeat="None" />
    <mask fill="white" id="Clip6661">
      <path d="M 9.6 0  C 9.693999999999999 0.9480000000000004  9.328 1.8759999999999994  8.776 2.5680000000000014  C 8.212 3.242000000000001  7.311999999999999 3.772000000000002  6.412 3.6960000000000015  C 6.300000000000001 2.7860000000000014  6.74 1.820000000000002  7.256 1.2220000000000013  C 7.82 0.5299999999999994  8.804 0.03999999999999915  9.6 0  Z M 12.495999999999995 5.469999999999999  C 11.559999999999997 4.065999999999999  10.095999999999997 3.913999999999998  9.59 3.8760000000000012  C 8.288 3.8000000000000007  7.17 4.626000000000001  6.554 4.626000000000001  C 5.924 4.626000000000001  4.978 3.9140000000000015  3.9460000000000006 3.934000000000001  C 2.606 3.9540000000000006  1.3600000000000003 4.720000000000002  0.6760000000000002 5.944000000000003  C -0.732 8.388000000000002  0.31 12.010000000000002  1.6679999999999997 14  C 2.334 14.986  3.1319999999999997 16.066  4.1819999999999995 16.028  C 5.1739999999999995 15.989999999999998  5.568 15.373999999999999  6.767999999999999 15.373999999999999  C 7.978 15.373999999999999  8.323999999999998 16.028  9.376 16.009999999999998  C 10.462 15.989999999999998  11.145999999999999 15.023999999999997  11.812 14.037999999999997  C 12.572 12.917999999999996  12.881999999999998 11.829999999999998  12.899999999999999 11.771999999999998  C 12.879999999999999 11.751999999999999  10.799999999999999 10.947999999999997  10.779999999999998 8.521999999999998  C 10.761999999999997 6.491999999999997  12.419999999999998 5.526  12.495999999999995 5.469999999999999  Z M 17.118 1.1280000000000001  L 18 1.1280000000000001  L 18 15.905999999999999  L 19.39 15.905999999999999  L 19.39 10.854  L 22.53 10.854  C 25.397999999999996 10.854  27.414 8.861999999999998  27.414 5.981999999999999  C 27.414 3.099999999999998  25.436 1.1280000000000001  22.606 1.1280000000000001  L 17.118 1.1280000000000001  Z M 19.388 3.0599999999999987  L 19.39 3.062000000000001  L 22.006 3.062000000000001  C 23.974 3.062000000000001  25.098 4.122  25.098 5.990000000000002  C 25.098 7.8580000000000005  23.974 8.930000000000003  21.996 8.930000000000003  L 19.388 8.930000000000003  L 19.388 3.0599999999999987  Z M 27.975999999999992 12.834000000000007  C 27.975999999999992 14.748000000000008  29.447999999999997 16.018000000000008  31.558 16.018  C 32.984 16.018  34.306 15.29  34.906 14.132000000000001  L 34.952 14.132000000000001  L 34.952 15.906000000000002  L 37.052 15.906000000000002  L 37.052 8.550000000000004  C 37.052 6.418000000000003  35.364 5.042000000000005  32.768 5.042000000000005  C 30.358 5.042000000000005  28.578 6.4360000000000035  28.512 8.350000000000005  L 30.556000000000004 8.350000000000005  C 30.724 7.440000000000005  31.558 6.844000000000005  32.702 6.844000000000005  C 34.089999999999996 6.844000000000005  34.867999999999995 7.498000000000005  34.867999999999995 8.702000000000005  L 34.867999999999995 9.516000000000005  L 32.035999999999994 9.688000000000006  C 29.401999999999994 9.848000000000006  27.975999999999992 10.938000000000006  27.975999999999992 12.834000000000007  Z M 32.166 14.266000000000002  L 32.168 14.266000000000002  C 30.958 14.266000000000002  30.188000000000002 13.678  30.188000000000002 12.778000000000002  C 30.188000000000002 11.848000000000003  30.93 11.308000000000003  32.346 11.222000000000001  L 34.866 11.062000000000001  L 34.866 11.896  C 34.866 13.280000000000001  33.706 14.266000000000002  32.166 14.266000000000002  Z M 39.854000000000006 19.924000000000007  L 39.856 19.926000000000002  C 42.068000000000005 19.926000000000002  43.108000000000004 19.072000000000003  44.016000000000005 16.484  L 48 5.184000000000001  L 45.694 5.184000000000001  L 43.022000000000006 13.914000000000001  L 42.976000000000006 13.914000000000001  L 40.30400000000001 5.184000000000001  L 37.93200000000001 5.184000000000001  L 41.77400000000001 15.944000000000003  L 41.568000000000005 16.598000000000003  C 41.22200000000001 17.706000000000003  40.660000000000004 18.132000000000005  39.656000000000006 18.132000000000005  C 39.47800000000001 18.132000000000005  39.132000000000005 18.112000000000002  38.99000000000001 18.09400000000001  L 38.99000000000001 19.86800000000001  C 39.12200000000001 19.906000000000006  39.68400000000001 19.924000000000007  39.854000000000006 19.924000000000007  Z " fill-rule="evenodd" />
    </mask>
  </defs>
  <g>
    <path d="M 9.6 0  C 9.693999999999999 0.9480000000000004  9.328 1.8759999999999994  8.776 2.5680000000000014  C 8.212 3.242000000000001  7.311999999999999 3.772000000000002  6.412 3.6960000000000015  C 6.300000000000001 2.7860000000000014  6.74 1.820000000000002  7.256 1.2220000000000013  C 7.82 0.5299999999999994  8.804 0.03999999999999915  9.6 0  Z M 12.495999999999995 5.469999999999999  C 11.559999999999997 4.065999999999999  10.095999999999997 3.913999999999998  9.59 3.8760000000000012  C 8.288 3.8000000000000007  7.17 4.626000000000001  6.554 4.626000000000001  C 5.924 4.626000000000001  4.978 3.9140000000000015  3.9460000000000006 3.934000000000001  C 2.606 3.9540000000000006  1.3600000000000003 4.720000000000002  0.6760000000000002 5.944000000000003  C -0.732 8.388000000000002  0.31 12.010000000000002  1.6679999999999997 14  C 2.334 14.986  3.1319999999999997 16.066  4.1819999999999995 16.028  C 5.1739999999999995 15.989999999999998  5.568 15.373999999999999  6.767999999999999 15.373999999999999  C 7.978 15.373999999999999  8.323999999999998 16.028  9.376 16.009999999999998  C 10.462 15.989999999999998  11.145999999999999 15.023999999999997  11.812 14.037999999999997  C 12.572 12.917999999999996  12.881999999999998 11.829999999999998  12.899999999999999 11.771999999999998  C 12.879999999999999 11.751999999999999  10.799999999999999 10.947999999999997  10.779999999999998 8.521999999999998  C 10.761999999999997 6.491999999999997  12.419999999999998 5.526  12.495999999999995 5.469999999999999  Z M 17.118 1.1280000000000001  L 18 1.1280000000000001  L 18 15.905999999999999  L 19.39 15.905999999999999  L 19.39 10.854  L 22.53 10.854  C 25.397999999999996 10.854  27.414 8.861999999999998  27.414 5.981999999999999  C 27.414 3.099999999999998  25.436 1.1280000000000001  22.606 1.1280000000000001  L 17.118 1.1280000000000001  Z M 19.388 3.0599999999999987  L 19.39 3.062000000000001  L 22.006 3.062000000000001  C 23.974 3.062000000000001  25.098 4.122  25.098 5.990000000000002  C 25.098 7.8580000000000005  23.974 8.930000000000003  21.996 8.930000000000003  L 19.388 8.930000000000003  L 19.388 3.0599999999999987  Z M 27.975999999999992 12.834000000000007  C 27.975999999999992 14.748000000000008  29.447999999999997 16.018000000000008  31.558 16.018  C 32.984 16.018  34.306 15.29  34.906 14.132000000000001  L 34.952 14.132000000000001  L 34.952 15.906000000000002  L 37.052 15.906000000000002  L 37.052 8.550000000000004  C 37.052 6.418000000000003  35.364 5.042000000000005  32.768 5.042000000000005  C 30.358 5.042000000000005  28.578 6.4360000000000035  28.512 8.350000000000005  L 30.556000000000004 8.350000000000005  C 30.724 7.440000000000005  31.558 6.844000000000005  32.702 6.844000000000005  C 34.089999999999996 6.844000000000005  34.867999999999995 7.498000000000005  34.867999999999995 8.702000000000005  L 34.867999999999995 9.516000000000005  L 32.035999999999994 9.688000000000006  C 29.401999999999994 9.848000000000006  27.975999999999992 10.938000000000006  27.975999999999992 12.834000000000007  Z M 32.166 14.266000000000002  L 32.168 14.266000000000002  C 30.958 14.266000000000002  30.188000000000002 13.678  30.188000000000002 12.778000000000002  C 30.188000000000002 11.848000000000003  30.93 11.308000000000003  32.346 11.222000000000001  L 34.866 11.062000000000001  L 34.866 11.896  C 34.866 13.280000000000001  33.706 14.266000000000002  32.166 14.266000000000002  Z M 39.854000000000006 19.924000000000007  L 39.856 19.926000000000002  C 42.068000000000005 19.926000000000002  43.108000000000004 19.072000000000003  44.016000000000005 16.484  L 48 5.184000000000001  L 45.694 5.184000000000001  L 43.022000000000006 13.914000000000001  L 42.976000000000006 13.914000000000001  L 40.30400000000001 5.184000000000001  L 37.93200000000001 5.184000000000001  L 41.77400000000001 15.944000000000003  L 41.568000000000005 16.598000000000003  C 41.22200000000001 17.706000000000003  40.660000000000004 18.132000000000005  39.656000000000006 18.132000000000005  C 39.47800000000001 18.132000000000005  39.132000000000005 18.112000000000002  38.99000000000001 18.09400000000001  L 38.99000000000001 19.86800000000001  C 39.12200000000001 19.906000000000006  39.68400000000001 19.924000000000007  39.854000000000006 19.924000000000007  Z " fill-rule="nonzero" fill="rgba(0, 0, 0, 1)" stroke="none" class="fill" />
    <path d="M 9.6 0  C 9.693999999999999 0.9480000000000004  9.328 1.8759999999999994  8.776 2.5680000000000014  C 8.212 3.242000000000001  7.311999999999999 3.772000000000002  6.412 3.6960000000000015  C 6.300000000000001 2.7860000000000014  6.74 1.820000000000002  7.256 1.2220000000000013  C 7.82 0.5299999999999994  8.804 0.03999999999999915  9.6 0  Z " stroke-width="0" stroke-dasharray="0" stroke="rgba(255, 255, 255, 0)" fill="none" class="stroke" mask="url(#Clip6661)" />
    <path d="M 12.495999999999995 5.469999999999999  C 11.559999999999997 4.065999999999999  10.095999999999997 3.913999999999998  9.59 3.8760000000000012  C 8.288 3.8000000000000007  7.17 4.626000000000001  6.554 4.626000000000001  C 5.924 4.626000000000001  4.978 3.9140000000000015  3.9460000000000006 3.934000000000001  C 2.606 3.9540000000000006  1.3600000000000003 4.720000000000002  0.6760000000000002 5.944000000000003  C -0.732 8.388000000000002  0.31 12.010000000000002  1.6679999999999997 14  C 2.334 14.986  3.1319999999999997 16.066  4.1819999999999995 16.028  C 5.1739999999999995 15.989999999999998  5.568 15.373999999999999  6.767999999999999 15.373999999999999  C 7.978 15.373999999999999  8.323999999999998 16.028  9.376 16.009999999999998  C 10.462 15.989999999999998  11.145999999999999 15.023999999999997  11.812 14.037999999999997  C 12.572 12.917999999999996  12.881999999999998 11.829999999999998  12.899999999999999 11.771999999999998  C 12.879999999999999 11.751999999999999  10.799999999999999 10.947999999999997  10.779999999999998 8.521999999999998  C 10.761999999999997 6.491999999999997  12.419999999999998 5.526  12.495999999999995 5.469999999999999  Z " stroke-width="0" stroke-dasharray="0" stroke="rgba(255, 255, 255, 0)" fill="none" class="stroke" mask="url(#Clip6661)" />
    <path d="M 17.118 1.1280000000000001  L 18 1.1280000000000001  L 18 15.905999999999999  L 19.39 15.905999999999999  L 19.39 10.854  L 22.53 10.854  C 25.397999999999996 10.854  27.414 8.861999999999998  27.414 5.981999999999999  C 27.414 3.099999999999998  25.436 1.1280000000000001  22.606 1.1280000000000001  L 17.118 1.1280000000000001  Z " stroke-width="0" stroke-dasharray="0" stroke="rgba(255, 255, 255, 0)" fill="none" class="stroke" mask="url(#Clip6661)" />
    <path d="M 19.388 3.0599999999999987  L 19.39 3.062000000000001  L 22.006 3.062000000000001  C 23.974 3.062000000000001  25.098 4.122  25.098 5.990000000000002  C 25.098 7.8580000000000005  23.974 8.930000000000003  21.996 8.930000000000003  L 19.388 8.930000000000003  L 19.388 3.0599999999999987  Z " stroke-width="0" stroke-dasharray="0" stroke="rgba(255, 255, 255, 0)" fill="none" class="stroke" mask="url(#Clip6661)" />
    <path d="M 27.975999999999992 12.834000000000007  C 27.975999999999992 14.748000000000008  29.447999999999997 16.018000000000008  31.558 16.018  C 32.984 16.018  34.306 15.29  34.906 14.132000000000001  L 34.952 14.132000000000001  L 34.952 15.906000000000002  L 37.052 15.906000000000002  L 37.052 8.550000000000004  C 37.052 6.418000000000003  35.364 5.042000000000005  32.768 5.042000000000005  C 30.358 5.042000000000005  28.578 6.4360000000000035  28.512 8.350000000000005  L 30.556000000000004 8.350000000000005  C 30.724 7.440000000000005  31.558 6.844000000000005  32.702 6.844000000000005  C 34.089999999999996 6.844000000000005  34.867999999999995 7.498000000000005  34.867999999999995 8.702000000000005  L 34.867999999999995 9.516000000000005  L 32.035999999999994 9.688000000000006  C 29.401999999999994 9.848000000000006  27.975999999999992 10.938000000000006  27.975999999999992 12.834000000000007  Z " stroke-width="0" stroke-dasharray="0" stroke="rgba(255, 255, 255, 0)" fill="none" class="stroke" mask="url(#Clip6661)" />
    <path d="M 32.166 14.266000000000002  L 32.168 14.266000000000002  C 30.958 14.266000000000002  30.188000000000002 13.678  30.188000000000002 12.778000000000002  C 30.188000000000002 11.848000000000003  30.93 11.308000000000003  32.346 11.222000000000001  L 34.866 11.062000000000001  L 34.866 11.896  C 34.866 13.280000000000001  33.706 14.266000000000002  32.166 14.266000000000002  Z " stroke-width="0" stroke-dasharray="0" stroke="rgba(255, 255, 255, 0)" fill="none" class="stroke" mask="url(#Clip6661)" />
    <path d="M 39.854000000000006 19.924000000000007  L 39.856 19.926000000000002  C 42.068000000000005 19.926000000000002  43.108000000000004 19.072000000000003  44.016000000000005 16.484  L 48 5.184000000000001  L 45.694 5.184000000000001  L 43.022000000000006 13.914000000000001  L 42.976000000000006 13.914000000000001  L 40.30400000000001 5.184000000000001  L 37.93200000000001 5.184000000000001  L 41.77400000000001 15.944000000000003  L 41.568000000000005 16.598000000000003  C 41.22200000000001 17.706000000000003  40.660000000000004 18.132000000000005  39.656000000000006 18.132000000000005  C 39.47800000000001 18.132000000000005  39.132000000000005 18.112000000000002  38.99000000000001 18.09400000000001  L 38.99000000000001 19.86800000000001  C 39.12200000000001 19.906000000000006  39.68400000000001 19.924000000000007  39.854000000000006 19.924000000000007  Z " stroke-width="0" stroke-dasharray="0" stroke="rgba(255, 255, 255, 0)" fill="none" class="stroke" mask="url(#Clip6661)" />
  </g>
</svg>