<?xml version="1.0" encoding="utf-8"?>
<svg version="1.1" xmlns:xlink="http://www.w3.org/1999/xlink" width="28px" height="22px" xmlns="http://www.w3.org/2000/svg">
  <defs>
    <pattern id="BGPattern" patternUnits="userSpaceOnUse" alignment="0 0" imageRepeat="None" />
    <mask fill="white" id="Clip3833">
      <path d="M 8.18 20.270000000000003  C 7.367478553414365 20.73863560937411  6.4479293108853 20.990047949091796  5.510000000000001 21.000000000000004  C 5.023695809157734 21.000841294077976  4.539443253885223 20.936946859701738  4.07 20.81  C 1.138928931413607 19.974139389714328  -0.5854221961733987 16.94763650856291  0.18999999999999995 14  L 2.5199999999999996 5.16  C 2.8865760672937375 3.714713458251744  3.8202645891426945 2.478207037424747  5.11 1.7299999999999995  C 6.365617712612902 1.0027395249731885  7.860081112957677 0.8082792270970014  9.260000000000002 1.1900000000000004  C 10.749560396815571 1.6036404907649233  11.99740579216504 2.6229560608032996  12.7 4  L 15.3 4  C 15.999637502892348 2.620573763267698  17.248695306206542 1.60026782509535  18.74 1.1899999999999986  C 20.139918887042324 0.8082792270969995  21.634382287387094 1.0027395249731885  22.889999999999997 1.7299999999999995  C 24.173219377232957 2.476146414414915  25.10553082432805 3.7036298254551703  25.48 5.140000000000001  L 27.809999999999995 14  C 28.597243938788857 16.957105864039832  26.864988376844835 19.99857257048654  23.919999999999995 20.829999999999995  C 22.520081112957676 21.211720772902993  21.0256177126129 21.01726047502681  19.769999999999996 20.29  C 18.484519565418573 19.54641401204001  17.551395950959687 18.317861299567117  17.179999999999996 16.88  L 17 16  L 11 16  L 10.77 16.86  C 10.39860404904031 18.29786129956711  9.465480434581421 19.52641401204001  8.18 20.270000000000003  Z M 8.730000000000002 3.1200000000000028  C 8.436527940763835 3.0408672938889474  8.133953220339986 3.000523997832433  7.83 3  C 7.226539142658254 3.002049890572186  6.63392114504345 3.1605407503994023  6.109999999999999 3.460000000000001  C 5.288853613797108 3.9417818296571454  4.691983940837715 4.729218325910804  4.449999999999999 5.65  L 2.12 14.489999999999998  C 1.612805918277326 16.384577241861663  2.715506685914721 18.33653545554237  4.6 18.88  C 5.483697923798244 19.12104957109575  6.4270993363516595 18.99862343358882  7.22 18.540000000000003  C 8.045660576880232 18.06331710144232  8.64414507836526 17.27375019888075  8.879999999999999 16.349999999999998  L 9.5 14  L 18.5 14  L 19.109999999999996 16.349999999999998  C 19.34996830950122 17.271760851172967  19.947366227316873 18.059894248773134  20.77 18.540000000000003  C 21.566719562529457 18.99812513641155  22.512969818046212 19.120454066782536  23.4 18.880000000000003  C 25.287672993323405 18.34134120569023  26.389498708114253 16.383035583045768  25.869999999999997 14.490000000000002  L 23.54 5.650000000000001  C 23.30549912040475 4.728479785908402  22.711105732890605 3.9395576533896257  21.89 3.4600000000000044  C 21.093280437470543 3.0018748635884562  20.14703018195379 2.8795459332174698  19.26 3.1200000000000028  C 18.1580072814525 3.434129087342967  17.275407674225722 4.260867959935137  16.89 5.340000000000003  L 16.650000000000002 6.0000000000000036  L 11.350000000000001 6.0000000000000036  L 11.110000000000001 5.340000000000002  C 10.72116734838539 4.2594431818338485  9.834961940234287 3.4328146078441635  8.730000000000002 3.1200000000000028  Z " fill-rule="evenodd" />
    </mask>
  </defs>
  <g transform="matrix(1 0 0 1 -2 -5 )">
    <path d="M 8.18 20.270000000000003  C 7.367478553414365 20.73863560937411  6.4479293108853 20.990047949091796  5.510000000000001 21.000000000000004  C 5.023695809157734 21.000841294077976  4.539443253885223 20.936946859701738  4.07 20.81  C 1.138928931413607 19.974139389714328  -0.5854221961733987 16.94763650856291  0.18999999999999995 14  L 2.5199999999999996 5.16  C 2.8865760672937375 3.714713458251744  3.8202645891426945 2.478207037424747  5.11 1.7299999999999995  C 6.365617712612902 1.0027395249731885  7.860081112957677 0.8082792270970014  9.260000000000002 1.1900000000000004  C 10.749560396815571 1.6036404907649233  11.99740579216504 2.6229560608032996  12.7 4  L 15.3 4  C 15.999637502892348 2.620573763267698  17.248695306206542 1.60026782509535  18.74 1.1899999999999986  C 20.139918887042324 0.8082792270969995  21.634382287387094 1.0027395249731885  22.889999999999997 1.7299999999999995  C 24.173219377232957 2.476146414414915  25.10553082432805 3.7036298254551703  25.48 5.140000000000001  L 27.809999999999995 14  C 28.597243938788857 16.957105864039832  26.864988376844835 19.99857257048654  23.919999999999995 20.829999999999995  C 22.520081112957676 21.211720772902993  21.0256177126129 21.01726047502681  19.769999999999996 20.29  C 18.484519565418573 19.54641401204001  17.551395950959687 18.317861299567117  17.179999999999996 16.88  L 17 16  L 11 16  L 10.77 16.86  C 10.39860404904031 18.29786129956711  9.465480434581421 19.52641401204001  8.18 20.270000000000003  Z M 8.730000000000002 3.1200000000000028  C 8.436527940763835 3.0408672938889474  8.133953220339986 3.000523997832433  7.83 3  C 7.226539142658254 3.002049890572186  6.63392114504345 3.1605407503994023  6.109999999999999 3.460000000000001  C 5.288853613797108 3.9417818296571454  4.691983940837715 4.729218325910804  4.449999999999999 5.65  L 2.12 14.489999999999998  C 1.612805918277326 16.384577241861663  2.715506685914721 18.33653545554237  4.6 18.88  C 5.483697923798244 19.12104957109575  6.4270993363516595 18.99862343358882  7.22 18.540000000000003  C 8.045660576880232 18.06331710144232  8.64414507836526 17.27375019888075  8.879999999999999 16.349999999999998  L 9.5 14  L 18.5 14  L 19.109999999999996 16.349999999999998  C 19.34996830950122 17.271760851172967  19.947366227316873 18.059894248773134  20.77 18.540000000000003  C 21.566719562529457 18.99812513641155  22.512969818046212 19.120454066782536  23.4 18.880000000000003  C 25.287672993323405 18.34134120569023  26.389498708114253 16.383035583045768  25.869999999999997 14.490000000000002  L 23.54 5.650000000000001  C 23.30549912040475 4.728479785908402  22.711105732890605 3.9395576533896257  21.89 3.4600000000000044  C 21.093280437470543 3.0018748635884562  20.14703018195379 2.8795459332174698  19.26 3.1200000000000028  C 18.1580072814525 3.434129087342967  17.275407674225722 4.260867959935137  16.89 5.340000000000003  L 16.650000000000002 6.0000000000000036  L 11.350000000000001 6.0000000000000036  L 11.110000000000001 5.340000000000002  C 10.72116734838539 4.2594431818338485  9.834961940234287 3.4328146078441635  8.730000000000002 3.1200000000000028  Z " fill-rule="nonzero" fill="rgba(0, 0, 0, 1)" stroke="none" transform="matrix(1 0 0 1 2 5 )" class="fill" />
    <path d="M 8.18 20.270000000000003  C 7.367478553414365 20.73863560937411  6.4479293108853 20.990047949091796  5.510000000000001 21.000000000000004  C 5.023695809157734 21.000841294077976  4.539443253885223 20.936946859701738  4.07 20.81  C 1.138928931413607 19.974139389714328  -0.5854221961733987 16.94763650856291  0.18999999999999995 14  L 2.5199999999999996 5.16  C 2.8865760672937375 3.714713458251744  3.8202645891426945 2.478207037424747  5.11 1.7299999999999995  C 6.365617712612902 1.0027395249731885  7.860081112957677 0.8082792270970014  9.260000000000002 1.1900000000000004  C 10.749560396815571 1.6036404907649233  11.99740579216504 2.6229560608032996  12.7 4  L 15.3 4  C 15.999637502892348 2.620573763267698  17.248695306206542 1.60026782509535  18.74 1.1899999999999986  C 20.139918887042324 0.8082792270969995  21.634382287387094 1.0027395249731885  22.889999999999997 1.7299999999999995  C 24.173219377232957 2.476146414414915  25.10553082432805 3.7036298254551703  25.48 5.140000000000001  L 27.809999999999995 14  C 28.597243938788857 16.957105864039832  26.864988376844835 19.99857257048654  23.919999999999995 20.829999999999995  C 22.520081112957676 21.211720772902993  21.0256177126129 21.01726047502681  19.769999999999996 20.29  C 18.484519565418573 19.54641401204001  17.551395950959687 18.317861299567117  17.179999999999996 16.88  L 17 16  L 11 16  L 10.77 16.86  C 10.39860404904031 18.29786129956711  9.465480434581421 19.52641401204001  8.18 20.270000000000003  Z " stroke-width="0" stroke-dasharray="0" stroke="rgba(255, 255, 255, 0)" fill="none" transform="matrix(1 0 0 1 2 5 )" class="stroke" mask="url(#Clip3833)" />
    <path d="M 8.730000000000002 3.1200000000000028  C 8.436527940763835 3.0408672938889474  8.133953220339986 3.000523997832433  7.83 3  C 7.226539142658254 3.002049890572186  6.63392114504345 3.1605407503994023  6.109999999999999 3.460000000000001  C 5.288853613797108 3.9417818296571454  4.691983940837715 4.729218325910804  4.449999999999999 5.65  L 2.12 14.489999999999998  C 1.612805918277326 16.384577241861663  2.715506685914721 18.33653545554237  4.6 18.88  C 5.483697923798244 19.12104957109575  6.4270993363516595 18.99862343358882  7.22 18.540000000000003  C 8.045660576880232 18.06331710144232  8.64414507836526 17.27375019888075  8.879999999999999 16.349999999999998  L 9.5 14  L 18.5 14  L 19.109999999999996 16.349999999999998  C 19.34996830950122 17.271760851172967  19.947366227316873 18.059894248773134  20.77 18.540000000000003  C 21.566719562529457 18.99812513641155  22.512969818046212 19.120454066782536  23.4 18.880000000000003  C 25.287672993323405 18.34134120569023  26.389498708114253 16.383035583045768  25.869999999999997 14.490000000000002  L 23.54 5.650000000000001  C 23.30549912040475 4.728479785908402  22.711105732890605 3.9395576533896257  21.89 3.4600000000000044  C 21.093280437470543 3.0018748635884562  20.14703018195379 2.8795459332174698  19.26 3.1200000000000028  C 18.1580072814525 3.434129087342967  17.275407674225722 4.260867959935137  16.89 5.340000000000003  L 16.650000000000002 6.0000000000000036  L 11.350000000000001 6.0000000000000036  L 11.110000000000001 5.340000000000002  C 10.72116734838539 4.2594431818338485  9.834961940234287 3.4328146078441635  8.730000000000002 3.1200000000000028  Z " stroke-width="0" stroke-dasharray="0" stroke="rgba(255, 255, 255, 0)" fill="none" transform="matrix(1 0 0 1 2 5 )" class="stroke" mask="url(#Clip3833)" />
  </g>
</svg>