<?xml version="1.0" encoding="utf-8"?>
<svg version="1.1" xmlns:xlink="http://www.w3.org/1999/xlink" width="50px" height="50px" xmlns="http://www.w3.org/2000/svg">
  <defs>
    <pattern id="BGPattern" patternUnits="userSpaceOnUse" alignment="0 0" imageRepeat="None" />
    <mask fill="white" id="Clip2057">
      <path d="M 47.17898832684824 15.817120622568098  C 50.573929961089505 12.422178988326834  51.284046692607035 5.9435797665369705  46.478599221789864 1.9844357976653557  C 42.83073929961091 -1.0019455252918306  37.188715953307394 -0.5739299610895046  33.64785992217901 2.9766536964980332  L 29.202334630350208 7.451361867704293  L 34.11478599221789 12.363813229571974  C 34.41634241245134 12.665369649805427  34.41634241245134 13.161478599221766  34.11478599221789 13.463035019455278  L 33.015564202334645 14.562256809338523  C 32.714007782101135 14.863813229571972  32.217898832684796 14.863813229571972  31.916342412451343 14.562256809338523  L 27.013618677042817 9.64980544747084  L 22.626459143968873 14.066147859922182  L 27.519455252918306 18.96887159533071  C 27.82101167315176 19.27042801556422  27.82101167315176 19.76653696498056  27.519455252918306 20.068093385214013  L 26.420233463035004 21.167315175097258  C 26.11867704280155 21.46887159533071  25.622568093385212 21.46887159533071  25.321011673151762 21.167315175097258  L 20.428015564202326 16.284046692606978  L 16.040856031128385 20.700389105058377  L 20.914396887159512 25.583657587548657  C 21.215953307393022 25.88521400778211  21.215953307393022 26.38132295719845  20.914396887159512 26.682879377431902  L 19.815175097276267 27.782101167315147  C 19.513618677042814 28.083657587548654  19.017509727626475 28.083657587548654  18.715953307392965 27.782101167315147  L 13.842412451361838 22.898832684824924  L 9.435797665369648 27.344357976653665  L 9.435797665369648 37.159533073929936  L 0.7782101167315432 45.8171206225681  C -0.13618677042802574 46.73151750972761  -0.13618677042802574 48.21011673151753  0.7782101167315432 49.11478599221789  C 1.6926070038910552 50.0291828793774  3.171206225680919 50.0291828793774  4.075875486381335 49.11478599221789  L 12.73346303501944 40.45719844357973  L 22.451361867704293 40.45719844357973  L 47.17898832684824 15.817120622568098  Z " fill-rule="evenodd" />
    </mask>
  </defs>
  <g>
    <path d="M 47.17898832684824 15.817120622568098  C 50.573929961089505 12.422178988326834  51.284046692607035 5.9435797665369705  46.478599221789864 1.9844357976653557  C 42.83073929961091 -1.0019455252918306  37.188715953307394 -0.5739299610895046  33.64785992217901 2.9766536964980332  L 29.202334630350208 7.451361867704293  L 34.11478599221789 12.363813229571974  C 34.41634241245134 12.665369649805427  34.41634241245134 13.161478599221766  34.11478599221789 13.463035019455278  L 33.015564202334645 14.562256809338523  C 32.714007782101135 14.863813229571972  32.217898832684796 14.863813229571972  31.916342412451343 14.562256809338523  L 27.013618677042817 9.64980544747084  L 22.626459143968873 14.066147859922182  L 27.519455252918306 18.96887159533071  C 27.82101167315176 19.27042801556422  27.82101167315176 19.76653696498056  27.519455252918306 20.068093385214013  L 26.420233463035004 21.167315175097258  C 26.11867704280155 21.46887159533071  25.622568093385212 21.46887159533071  25.321011673151762 21.167315175097258  L 20.428015564202326 16.284046692606978  L 16.040856031128385 20.700389105058377  L 20.914396887159512 25.583657587548657  C 21.215953307393022 25.88521400778211  21.215953307393022 26.38132295719845  20.914396887159512 26.682879377431902  L 19.815175097276267 27.782101167315147  C 19.513618677042814 28.083657587548654  19.017509727626475 28.083657587548654  18.715953307392965 27.782101167315147  L 13.842412451361838 22.898832684824924  L 9.435797665369648 27.344357976653665  L 9.435797665369648 37.159533073929936  L 0.7782101167315432 45.8171206225681  C -0.13618677042802574 46.73151750972761  -0.13618677042802574 48.21011673151753  0.7782101167315432 49.11478599221789  C 1.6926070038910552 50.0291828793774  3.171206225680919 50.0291828793774  4.075875486381335 49.11478599221789  L 12.73346303501944 40.45719844357973  L 22.451361867704293 40.45719844357973  L 47.17898832684824 15.817120622568098  Z " fill-rule="nonzero" fill="rgba(0, 0, 0, 1)" stroke="none" class="fill" />
    <path d="M 47.17898832684824 15.817120622568098  C 50.573929961089505 12.422178988326834  51.284046692607035 5.9435797665369705  46.478599221789864 1.9844357976653557  C 42.83073929961091 -1.0019455252918306  37.188715953307394 -0.5739299610895046  33.64785992217901 2.9766536964980332  L 29.202334630350208 7.451361867704293  L 34.11478599221789 12.363813229571974  C 34.41634241245134 12.665369649805427  34.41634241245134 13.161478599221766  34.11478599221789 13.463035019455278  L 33.015564202334645 14.562256809338523  C 32.714007782101135 14.863813229571972  32.217898832684796 14.863813229571972  31.916342412451343 14.562256809338523  L 27.013618677042817 9.64980544747084  L 22.626459143968873 14.066147859922182  L 27.519455252918306 18.96887159533071  C 27.82101167315176 19.27042801556422  27.82101167315176 19.76653696498056  27.519455252918306 20.068093385214013  L 26.420233463035004 21.167315175097258  C 26.11867704280155 21.46887159533071  25.622568093385212 21.46887159533071  25.321011673151762 21.167315175097258  L 20.428015564202326 16.284046692606978  L 16.040856031128385 20.700389105058377  L 20.914396887159512 25.583657587548657  C 21.215953307393022 25.88521400778211  21.215953307393022 26.38132295719845  20.914396887159512 26.682879377431902  L 19.815175097276267 27.782101167315147  C 19.513618677042814 28.083657587548654  19.017509727626475 28.083657587548654  18.715953307392965 27.782101167315147  L 13.842412451361838 22.898832684824924  L 9.435797665369648 27.344357976653665  L 9.435797665369648 37.159533073929936  L 0.7782101167315432 45.8171206225681  C -0.13618677042802574 46.73151750972761  -0.13618677042802574 48.21011673151753  0.7782101167315432 49.11478599221789  C 1.6926070038910552 50.0291828793774  3.171206225680919 50.0291828793774  4.075875486381335 49.11478599221789  L 12.73346303501944 40.45719844357973  L 22.451361867704293 40.45719844357973  L 47.17898832684824 15.817120622568098  Z " stroke-width="0" stroke-dasharray="0" stroke="rgba(255, 255, 255, 0)" fill="none" class="stroke" mask="url(#Clip2057)" />
  </g>
</svg>