<?xml version="1.0" encoding="utf-8"?>
<svg version="1.1" xmlns:xlink="http://www.w3.org/1999/xlink" width="50px" height="40px" xmlns="http://www.w3.org/2000/svg">
  <defs>
    <pattern id="BGPattern" patternUnits="userSpaceOnUse" alignment="0 0" imageRepeat="None" />
    <mask fill="white" id="Clip1941">
      <path d="M 48.125 35  C 43.373671875000014 35  40.192031250000014 32.578046874999984  38.798125 29.112421874999995  L 44.26781249999999 23.642734374999975  C 45.588046875 22.322421875000032  45.044531250000006 20.066874999999982  43.264999999999986 19.49492187499999  L 40 18.445468749999975  L 40 7.5  C 40 6.119296874999975  38.880703125 5  37.5 5  L 32.5 5  L 32.5 1.875  C 32.5 0.8394531249999773  31.660546874999994 0  30.625000000000004 0  L 19.375 0  C 18.339453125000006 0  17.5 0.8394531249999773  17.5 1.875  L 17.5 5  L 12.5 5  C 11.119296875000003 5  10 6.119296874999975  10 7.5  L 10 18.445468749999975  L 6.735000000000014 19.49492187499999  C 4.957421874999994 20.066250000000025  4.410468750000007 22.320937500000014  5.732187500000009 23.642734374999975  L 11.201875000000001 29.112421874999995  C 9.830312499999991 32.52242187500002  6.686484374999992 35  1.875 35  C 0.8394531250000057 35  0 35.83945312499998  0 36.875  L 0 38.125  C 0 39.16054687500002  0.8394531250000057 40  1.875 40  C 6.6424218749999975 40  10.273359374999984 38.38984375000001  13.067031250000014 35.35968750000001  C 14.193515625000003 38.080625  16.876640624999993 40  20 40  L 30 40  C 33.12335937500001 40  35.806484375 38.080625  36.932968749999986 35.35968750000001  C 39.726171875000006 38.38937499999997  43.356875 40  48.125 40  C 49.160546874999994 40  50 39.16054687500002  50 38.125  L 50 36.875  C 50 35.83945312499998  49.160546874999994 35  48.125 35  Z M 15 16.838359374999982  L 15 10  L 35 10  L 35 16.838359374999982  L 25.765000000000015 13.870000000000005  C 25.2675366628917 13.710078793466607  24.7324633371083 13.710078793466607  24.235000000000014 13.870000000000005  L 15 16.838359374999982  Z " fill-rule="evenodd" />
    </mask>
  </defs>
  <g>
    <path d="M 48.125 35  C 43.373671875000014 35  40.192031250000014 32.578046874999984  38.798125 29.112421874999995  L 44.26781249999999 23.642734374999975  C 45.588046875 22.322421875000032  45.044531250000006 20.066874999999982  43.264999999999986 19.49492187499999  L 40 18.445468749999975  L 40 7.5  C 40 6.119296874999975  38.880703125 5  37.5 5  L 32.5 5  L 32.5 1.875  C 32.5 0.8394531249999773  31.660546874999994 0  30.625000000000004 0  L 19.375 0  C 18.339453125000006 0  17.5 0.8394531249999773  17.5 1.875  L 17.5 5  L 12.5 5  C 11.119296875000003 5  10 6.119296874999975  10 7.5  L 10 18.445468749999975  L 6.735000000000014 19.49492187499999  C 4.957421874999994 20.066250000000025  4.410468750000007 22.320937500000014  5.732187500000009 23.642734374999975  L 11.201875000000001 29.112421874999995  C 9.830312499999991 32.52242187500002  6.686484374999992 35  1.875 35  C 0.8394531250000057 35  0 35.83945312499998  0 36.875  L 0 38.125  C 0 39.16054687500002  0.8394531250000057 40  1.875 40  C 6.6424218749999975 40  10.273359374999984 38.38984375000001  13.067031250000014 35.35968750000001  C 14.193515625000003 38.080625  16.876640624999993 40  20 40  L 30 40  C 33.12335937500001 40  35.806484375 38.080625  36.932968749999986 35.35968750000001  C 39.726171875000006 38.38937499999997  43.356875 40  48.125 40  C 49.160546874999994 40  50 39.16054687500002  50 38.125  L 50 36.875  C 50 35.83945312499998  49.160546874999994 35  48.125 35  Z M 15 16.838359374999982  L 15 10  L 35 10  L 35 16.838359374999982  L 25.765000000000015 13.870000000000005  C 25.2675366628917 13.710078793466607  24.7324633371083 13.710078793466607  24.235000000000014 13.870000000000005  L 15 16.838359374999982  Z " fill-rule="nonzero" fill="rgba(0, 0, 0, 1)" stroke="none" class="fill" />
    <path d="M 48.125 35  C 43.373671875000014 35  40.192031250000014 32.578046874999984  38.798125 29.112421874999995  L 44.26781249999999 23.642734374999975  C 45.588046875 22.322421875000032  45.044531250000006 20.066874999999982  43.264999999999986 19.49492187499999  L 40 18.445468749999975  L 40 7.5  C 40 6.119296874999975  38.880703125 5  37.5 5  L 32.5 5  L 32.5 1.875  C 32.5 0.8394531249999773  31.660546874999994 0  30.625000000000004 0  L 19.375 0  C 18.339453125000006 0  17.5 0.8394531249999773  17.5 1.875  L 17.5 5  L 12.5 5  C 11.119296875000003 5  10 6.119296874999975  10 7.5  L 10 18.445468749999975  L 6.735000000000014 19.49492187499999  C 4.957421874999994 20.066250000000025  4.410468750000007 22.320937500000014  5.732187500000009 23.642734374999975  L 11.201875000000001 29.112421874999995  C 9.830312499999991 32.52242187500002  6.686484374999992 35  1.875 35  C 0.8394531250000057 35  0 35.83945312499998  0 36.875  L 0 38.125  C 0 39.16054687500002  0.8394531250000057 40  1.875 40  C 6.6424218749999975 40  10.273359374999984 38.38984375000001  13.067031250000014 35.35968750000001  C 14.193515625000003 38.080625  16.876640624999993 40  20 40  L 30 40  C 33.12335937500001 40  35.806484375 38.080625  36.932968749999986 35.35968750000001  C 39.726171875000006 38.38937499999997  43.356875 40  48.125 40  C 49.160546874999994 40  50 39.16054687500002  50 38.125  L 50 36.875  C 50 35.83945312499998  49.160546874999994 35  48.125 35  Z " stroke-width="0" stroke-dasharray="0" stroke="rgba(255, 255, 255, 0)" fill="none" class="stroke" mask="url(#Clip1941)" />
    <path d="M 15 16.838359374999982  L 15 10  L 35 10  L 35 16.838359374999982  L 25.765000000000015 13.870000000000005  C 25.2675366628917 13.710078793466607  24.7324633371083 13.710078793466607  24.235000000000014 13.870000000000005  L 15 16.838359374999982  Z " stroke-width="0" stroke-dasharray="0" stroke="rgba(255, 255, 255, 0)" fill="none" class="stroke" mask="url(#Clip1941)" />
  </g>
</svg>