<?xml version="1.0" encoding="utf-8"?>
<svg version="1.1" xmlns:xlink="http://www.w3.org/1999/xlink" width="2px" height="2px" xmlns="http://www.w3.org/2000/svg">
  <defs>
    <pattern id="BGPattern" patternUnits="userSpaceOnUse" alignment="0 0" imageRepeat="None" />
    <mask fill="white" id="Clip6286">
      <path d="M 1 0.25  C 0.5857864376269042 0.25  0.25 0.5857864376269042  0.25 1  C 0.25 1.4142135623730958  0.5857864376269042 1.75  1 1.75  C 1.4142135623730958 1.75  1.75 1.4142135623730958  1.75 1  C 1.75 0.5857864376269042  1.4142135623730958 0.25  1 0.25  Z " fill-rule="evenodd" />
    </mask>
  </defs>
  <g transform="matrix(1 0 0 1 -10 -11 )">
    <path d="M 1 0.25  C 0.5857864376269042 0.25  0.25 0.5857864376269042  0.25 1  C 0.25 1.4142135623730958  0.5857864376269042 1.75  1 1.75  C 1.4142135623730958 1.75  1.75 1.4142135623730958  1.75 1  C 1.75 0.5857864376269042  1.4142135623730958 0.25  1 0.25  Z " fill-rule="nonzero" fill="rgba(0, 0, 0, 1)" stroke="none" transform="matrix(1 0 0 1 10 11 )" class="fill" />
    <path d="M 1 0.25  C 0.5857864376269042 0.25  0.25 0.5857864376269042  0.25 1  C 0.25 1.4142135623730958  0.5857864376269042 1.75  1 1.75  C 1.4142135623730958 1.75  1.75 1.4142135623730958  1.75 1  C 1.75 0.5857864376269042  1.4142135623730958 0.25  1 0.25  Z " stroke-width="0" stroke-dasharray="0" stroke="rgba(255, 255, 255, 0)" fill="none" transform="matrix(1 0 0 1 10 11 )" class="stroke" mask="url(#Clip6286)" />
  </g>
</svg>