<?xml version="1.0" encoding="utf-8"?>
<svg version="1.1" xmlns:xlink="http://www.w3.org/1999/xlink" width="50px" height="50px" xmlns="http://www.w3.org/2000/svg">
  <defs>
    <pattern id="BGPattern" patternUnits="userSpaceOnUse" alignment="0 0" imageRepeat="None" />
    <mask fill="white" id="Clip2215">
      <path d="M 50 2  C 50 0.8937499999999997  49.10625 0  48 0  L 2 0  C 0.8937499999999997 0  0 0.8937499999999997  0 2  L 0 48  C 0 49.10625  0.8937499999999997 50  2 50  L 48 50  C 49.10625 50  50 49.10625  50 48  L 50 2  Z M 36.0625 15.062499999999995  C 36.46875 15.062499999999995  36.70625 15.524999999999995  36.46875 15.85625  L 23.30625 34.106249999999996  C 22.93300929534216 34.6271944426769  22.331477351146063 34.93620427331142  21.690624999999997 34.93620427331142  C 21.04977264885394 34.93620427331142  20.448240704657834 34.6271944426769  20.075 34.10625  L 12.28125 23.30625  C 12.04375 22.974999999999998  12.28125 22.5125  12.687499999999998 22.5125  L 15.618749999999999 22.5125  C 16.256249999999998 22.5125  16.862499999999997 22.818749999999998  17.237499999999997 23.34375  L 21.687499999999996 29.51875  L 31.512499999999992 15.893749999999999  C 31.887499999999996 15.374999999999996  32.4875 15.062499999999995  33.131249999999994 15.062499999999995  L 36.0625 15.062499999999995  Z " fill-rule="evenodd" />
    </mask>
  </defs>
  <g>
    <path d="M 50 2  C 50 0.8937499999999997  49.10625 0  48 0  L 2 0  C 0.8937499999999997 0  0 0.8937499999999997  0 2  L 0 48  C 0 49.10625  0.8937499999999997 50  2 50  L 48 50  C 49.10625 50  50 49.10625  50 48  L 50 2  Z M 36.0625 15.062499999999995  C 36.46875 15.062499999999995  36.70625 15.524999999999995  36.46875 15.85625  L 23.30625 34.106249999999996  C 22.93300929534216 34.6271944426769  22.331477351146063 34.93620427331142  21.690624999999997 34.93620427331142  C 21.04977264885394 34.93620427331142  20.448240704657834 34.6271944426769  20.075 34.10625  L 12.28125 23.30625  C 12.04375 22.974999999999998  12.28125 22.5125  12.687499999999998 22.5125  L 15.618749999999999 22.5125  C 16.256249999999998 22.5125  16.862499999999997 22.818749999999998  17.237499999999997 23.34375  L 21.687499999999996 29.51875  L 31.512499999999992 15.893749999999999  C 31.887499999999996 15.374999999999996  32.4875 15.062499999999995  33.131249999999994 15.062499999999995  L 36.0625 15.062499999999995  Z " fill-rule="nonzero" fill="rgba(0, 0, 0, 1)" stroke="none" class="fill" />
    <path d="M 50 2  C 50 0.8937499999999997  49.10625 0  48 0  L 2 0  C 0.8937499999999997 0  0 0.8937499999999997  0 2  L 0 48  C 0 49.10625  0.8937499999999997 50  2 50  L 48 50  C 49.10625 50  50 49.10625  50 48  L 50 2  Z " stroke-width="0" stroke-dasharray="0" stroke="rgba(255, 255, 255, 0)" fill="none" class="stroke" mask="url(#Clip2215)" />
    <path d="M 36.0625 15.062499999999995  C 36.46875 15.062499999999995  36.70625 15.524999999999995  36.46875 15.85625  L 23.30625 34.106249999999996  C 22.93300929534216 34.6271944426769  22.331477351146063 34.93620427331142  21.690624999999997 34.93620427331142  C 21.04977264885394 34.93620427331142  20.448240704657834 34.6271944426769  20.075 34.10625  L 12.28125 23.30625  C 12.04375 22.974999999999998  12.28125 22.5125  12.687499999999998 22.5125  L 15.618749999999999 22.5125  C 16.256249999999998 22.5125  16.862499999999997 22.818749999999998  17.237499999999997 23.34375  L 21.687499999999996 29.51875  L 31.512499999999992 15.893749999999999  C 31.887499999999996 15.374999999999996  32.4875 15.062499999999995  33.131249999999994 15.062499999999995  L 36.0625 15.062499999999995  Z " stroke-width="0" stroke-dasharray="0" stroke="rgba(255, 255, 255, 0)" fill="none" class="stroke" mask="url(#Clip2215)" />
  </g>
</svg>