<?xml version="1.0" encoding="utf-8"?>
<svg version="1.1" xmlns:xlink="http://www.w3.org/1999/xlink" width="24px" height="24px" xmlns="http://www.w3.org/2000/svg">
  <defs>
    <pattern id="BGPattern" patternUnits="userSpaceOnUse" alignment="0 0" imageRepeat="None" />
    <mask fill="white" id="Clip6036">
      <path d="M 6.75 1.5  L 2.25 1.5  C 1.835786437626905 1.5  1.5 1.835786437626905  1.5 2.25  L 1.5 6.75  C 1.5 7.164213562373095  1.1642135623730951 7.5  0.75 7.5  C 0.3357864376269049 7.5  0 7.164213562373095  0 6.75  L 0 2.25  C 0 1.0073593128807148  1.0073593128807148 0  2.25 0  L 6.75 0  C 7.164213562373095 0  7.5 0.3357864376269049  7.5 0.75  C 7.5 1.1642135623730951  7.164213562373095 1.5  6.75 1.5  Z M 17.25 1.5  C 16.835786437626904 1.5  16.5 1.1642135623730951  16.5 0.75  C 16.5 0.3357864376269049  16.835786437626904 0  17.25 0  L 21.75 0  C 22.992640687119284 0  24 1.0073593128807148  24 2.25  L 24 6.75  C 24 7.164213562373095  23.664213562373096 7.5  23.25 7.5  C 22.835786437626904 7.5  22.5 7.164213562373095  22.5 6.75  L 22.5 2.25  C 22.5 1.835786437626905  22.164213562373096 1.5  21.75 1.5  L 17.25 1.5  Z M 0 17.25  C 0 16.835786437626904  0.3357864376269049 16.5  0.75 16.5  C 1.1642135623730951 16.5  1.5 16.835786437626904  1.5 17.25  L 1.5 21.75  C 1.5 22.164213562373096  1.835786437626905 22.5  2.25 22.5  L 6.75 22.5  C 7.164213562373095 22.5  7.5 22.835786437626904  7.5 23.25  C 7.5 23.664213562373096  7.164213562373095 24  6.75 24  L 2.25 24  C 1.0073593128807148 24  0 22.992640687119284  0 21.75  L 0 17.25  Z M 22.5 17.25  C 22.5 16.835786437626904  22.835786437626904 16.5  23.25 16.5  C 23.664213562373096 16.5  24 16.835786437626904  24 17.25  L 24 21.75  C 24 22.992640687119284  22.992640687119284 24  21.75 24  L 17.25 24  C 16.835786437626904 24  16.5 23.664213562373096  16.5 23.25  C 16.5 22.835786437626904  16.835786437626904 22.5  17.25 22.5  L 21.75 22.5  C 22.164213562373096 22.5  22.5 22.164213562373096  22.5 21.75  L 22.5 17.25  Z " fill-rule="evenodd" />
    </mask>
  </defs>
  <g>
    <path d="M 6.75 1.5  L 2.25 1.5  C 1.835786437626905 1.5  1.5 1.835786437626905  1.5 2.25  L 1.5 6.75  C 1.5 7.164213562373095  1.1642135623730951 7.5  0.75 7.5  C 0.3357864376269049 7.5  0 7.164213562373095  0 6.75  L 0 2.25  C 0 1.0073593128807148  1.0073593128807148 0  2.25 0  L 6.75 0  C 7.164213562373095 0  7.5 0.3357864376269049  7.5 0.75  C 7.5 1.1642135623730951  7.164213562373095 1.5  6.75 1.5  Z M 17.25 1.5  C 16.835786437626904 1.5  16.5 1.1642135623730951  16.5 0.75  C 16.5 0.3357864376269049  16.835786437626904 0  17.25 0  L 21.75 0  C 22.992640687119284 0  24 1.0073593128807148  24 2.25  L 24 6.75  C 24 7.164213562373095  23.664213562373096 7.5  23.25 7.5  C 22.835786437626904 7.5  22.5 7.164213562373095  22.5 6.75  L 22.5 2.25  C 22.5 1.835786437626905  22.164213562373096 1.5  21.75 1.5  L 17.25 1.5  Z M 0 17.25  C 0 16.835786437626904  0.3357864376269049 16.5  0.75 16.5  C 1.1642135623730951 16.5  1.5 16.835786437626904  1.5 17.25  L 1.5 21.75  C 1.5 22.164213562373096  1.835786437626905 22.5  2.25 22.5  L 6.75 22.5  C 7.164213562373095 22.5  7.5 22.835786437626904  7.5 23.25  C 7.5 23.664213562373096  7.164213562373095 24  6.75 24  L 2.25 24  C 1.0073593128807148 24  0 22.992640687119284  0 21.75  L 0 17.25  Z M 22.5 17.25  C 22.5 16.835786437626904  22.835786437626904 16.5  23.25 16.5  C 23.664213562373096 16.5  24 16.835786437626904  24 17.25  L 24 21.75  C 24 22.992640687119284  22.992640687119284 24  21.75 24  L 17.25 24  C 16.835786437626904 24  16.5 23.664213562373096  16.5 23.25  C 16.5 22.835786437626904  16.835786437626904 22.5  17.25 22.5  L 21.75 22.5  C 22.164213562373096 22.5  22.5 22.164213562373096  22.5 21.75  L 22.5 17.25  Z " fill-rule="nonzero" fill="rgba(0, 0, 0, 1)" stroke="none" class="fill" />
    <path d="M 6.75 1.5  L 2.25 1.5  C 1.835786437626905 1.5  1.5 1.835786437626905  1.5 2.25  L 1.5 6.75  C 1.5 7.164213562373095  1.1642135623730951 7.5  0.75 7.5  C 0.3357864376269049 7.5  0 7.164213562373095  0 6.75  L 0 2.25  C 0 1.0073593128807148  1.0073593128807148 0  2.25 0  L 6.75 0  C 7.164213562373095 0  7.5 0.3357864376269049  7.5 0.75  C 7.5 1.1642135623730951  7.164213562373095 1.5  6.75 1.5  Z " stroke-width="0" stroke-dasharray="0" stroke="rgba(255, 255, 255, 0)" fill="none" class="stroke" mask="url(#Clip6036)" />
    <path d="M 17.25 1.5  C 16.835786437626904 1.5  16.5 1.1642135623730951  16.5 0.75  C 16.5 0.3357864376269049  16.835786437626904 0  17.25 0  L 21.75 0  C 22.992640687119284 0  24 1.0073593128807148  24 2.25  L 24 6.75  C 24 7.164213562373095  23.664213562373096 7.5  23.25 7.5  C 22.835786437626904 7.5  22.5 7.164213562373095  22.5 6.75  L 22.5 2.25  C 22.5 1.835786437626905  22.164213562373096 1.5  21.75 1.5  L 17.25 1.5  Z " stroke-width="0" stroke-dasharray="0" stroke="rgba(255, 255, 255, 0)" fill="none" class="stroke" mask="url(#Clip6036)" />
    <path d="M 0 17.25  C 0 16.835786437626904  0.3357864376269049 16.5  0.75 16.5  C 1.1642135623730951 16.5  1.5 16.835786437626904  1.5 17.25  L 1.5 21.75  C 1.5 22.164213562373096  1.835786437626905 22.5  2.25 22.5  L 6.75 22.5  C 7.164213562373095 22.5  7.5 22.835786437626904  7.5 23.25  C 7.5 23.664213562373096  7.164213562373095 24  6.75 24  L 2.25 24  C 1.0073593128807148 24  0 22.992640687119284  0 21.75  L 0 17.25  Z " stroke-width="0" stroke-dasharray="0" stroke="rgba(255, 255, 255, 0)" fill="none" class="stroke" mask="url(#Clip6036)" />
    <path d="M 22.5 17.25  C 22.5 16.835786437626904  22.835786437626904 16.5  23.25 16.5  C 23.664213562373096 16.5  24 16.835786437626904  24 17.25  L 24 21.75  C 24 22.992640687119284  22.992640687119284 24  21.75 24  L 17.25 24  C 16.835786437626904 24  16.5 23.664213562373096  16.5 23.25  C 16.5 22.835786437626904  16.835786437626904 22.5  17.25 22.5  L 21.75 22.5  C 22.164213562373096 22.5  22.5 22.164213562373096  22.5 21.75  L 22.5 17.25  Z " stroke-width="0" stroke-dasharray="0" stroke="rgba(255, 255, 255, 0)" fill="none" class="stroke" mask="url(#Clip6036)" />
  </g>
</svg>