<?xml version="1.0" encoding="utf-8"?>
<svg version="1.1" xmlns:xlink="http://www.w3.org/1999/xlink" width="48px" height="48px" xmlns="http://www.w3.org/2000/svg">
  <defs>
    <pattern id="BGPattern" patternUnits="userSpaceOnUse" alignment="0 0" imageRepeat="None" />
    <mask fill="white" id="Clip6924">
      <path d="M 19.209999999999997 38.397999999999996  L 19.208 38  L 0 38  L 0 48  L 19.209999999999997 48  L 19.209999999999997 38.397999999999996  Z M 47.988 48  L 47.988 38  L 28 38  L 28 48  L 47.988 48  Z M 47.994 28  L 47.994 20  L 0 20  L 0 28  L 47.994 28  Z M 48 9.602  L 48 0  L 38.397999999999996 0  L 38.397999999999996 9.602  L 48 9.602  Z M 28.808 10  L 28.808 0  L 0.016 0  L 0.016 10  L 28.808 10  Z " fill-rule="evenodd" />
    </mask>
  </defs>
  <g>
    <path d="M 19.209999999999997 38.397999999999996  L 19.208 38  L 0 38  L 0 48  L 19.209999999999997 48  L 19.209999999999997 38.397999999999996  Z M 47.988 48  L 47.988 38  L 28 38  L 28 48  L 47.988 48  Z M 47.994 28  L 47.994 20  L 0 20  L 0 28  L 47.994 28  Z M 48 9.602  L 48 0  L 38.397999999999996 0  L 38.397999999999996 9.602  L 48 9.602  Z M 28.808 10  L 28.808 0  L 0.016 0  L 0.016 10  L 28.808 10  Z " fill-rule="nonzero" fill="rgba(115, 138, 148, 1)" stroke="none" class="fill" />
    <path d="M 19.209999999999997 38.397999999999996  L 19.208 38  L 0 38  L 0 48  L 19.209999999999997 48  L 19.209999999999997 38.397999999999996  Z " stroke-width="0" stroke-dasharray="0" stroke="rgba(255, 255, 255, 0)" fill="none" class="stroke" mask="url(#Clip6924)" />
    <path d="M 47.988 48  L 47.988 38  L 28 38  L 28 48  L 47.988 48  Z " stroke-width="0" stroke-dasharray="0" stroke="rgba(255, 255, 255, 0)" fill="none" class="stroke" mask="url(#Clip6924)" />
    <path d="M 47.994 28  L 47.994 20  L 0 20  L 0 28  L 47.994 28  Z " stroke-width="0" stroke-dasharray="0" stroke="rgba(255, 255, 255, 0)" fill="none" class="stroke" mask="url(#Clip6924)" />
    <path d="M 48 9.602  L 48 0  L 38.397999999999996 0  L 38.397999999999996 9.602  L 48 9.602  Z " stroke-width="0" stroke-dasharray="0" stroke="rgba(255, 255, 255, 0)" fill="none" class="stroke" mask="url(#Clip6924)" />
    <path d="M 28.808 10  L 28.808 0  L 0.016 0  L 0.016 10  L 28.808 10  Z " stroke-width="0" stroke-dasharray="0" stroke="rgba(255, 255, 255, 0)" fill="none" class="stroke" mask="url(#Clip6924)" />
  </g>
</svg>