<?xml version="1.0" encoding="utf-8"?>
<svg version="1.1" xmlns:xlink="http://www.w3.org/1999/xlink" width="28px" height="20px" xmlns="http://www.w3.org/2000/svg">
  <defs>
    <pattern id="BGPattern" patternUnits="userSpaceOnUse" alignment="0 0" imageRepeat="None" />
    <mask fill="white" id="Clip4320">
      <path d="M 28 9.000005463731771  C 27.99967295765732 8.598725463586996  27.75950494845532 8.236505039460646  27.39 8.080005920698426  L 20.7 5.2100073462357175  L 18.16 0.87000950192625  L 18.080000000000002 0.7500095615305974  C 17.700715418580454 0.27628326361058214  17.126855401365802 0.00038916160254135563  16.52 0  L 8.52 0  C 7.849318257767909 -0.002100275159261405  7.222226889655065 0.3320979526281203  6.85 0.8900094919921937  L 3.46 6.000006953840435  L 1 6.000006953840435  C 0.44771525016920677 6.000006953840435  0 6.447721981628184  0 7.000006457137546  L 0 16.00000198681155  C 0 16.55228646232092  0.44771525016920677 17.000001490108666  1 17.000001490108666  L 3.1399999999999997 17.000001490108666  C 3.6133978174935497 18.74196097360499  5.1948597422455345 19.951000500982737  7 19.951000500982737  C 8.805140257754466 19.951000500982737  10.386602182506449 18.74196097360499  10.86 17.000001490108666  L 17.14 17.000001490108666  C 17.613397817493553 18.74196097360499  19.194859742245537 19.951000500982737  21 19.951000500982737  C 22.805140257754466 19.951000500982737  24.386602182506447 18.74196097360499  24.86 17.000001490108666  L 27 17.000001490108666  C 27.552284749830793 17.000001490108666  28 16.55228646232092  28 16.00000198681155  L 28 9.000005463731771  Z M 9 16.00000198681155  C 9 17.104570937830278  8.104569499661586 18.000000993405777  7 18.000000993405777  C 5.8954305003384135 18.000000993405777  5 17.104570937830278  5 16.00000198681155  C 5 14.895433035792829  5.8954305003384135 14.00000298021733  7 14.00000298021733  C 8.104569499661586 14.00000298021733  9 14.895433035792829  9 16.00000198681155  Z M 23 16.00000198681155  C 23 17.104570937830278  22.104569499661586 18.000000993405777  21 18.000000993405777  C 19.895430500338414 18.000000993405777  19 17.104570937830278  19 16.00000198681155  C 19 14.895433035792829  19.895430500338414 14.00000298021733  21 14.00000298021733  C 22.104569499661586 14.00000298021733  23 14.895433035792829  23 16.00000198681155  Z M 26 9.660005135907864  L 26 15.000002483514443  L 24.86 15.000002483514443  C 24.386602182506447 13.258043000018118  22.805140257754463 12.049003472640372  21 12.049003472640372  C 19.194859742245534 12.049003472640372  17.613397817493553 13.258043000018118  17.14 15.000002483514443  L 10.86 15.000002483514443  C 10.386602182506449 13.258043000018118  8.805140257754465 12.049003472640372  7 12.049003472640372  C 5.1948597422455345 12.049003472640372  3.6133978174935497 13.258043000018118  3.1399999999999997 15.000002483514443  L 2 15.000002483514443  L 2 8.000005960434658  L 4 8.000005960434658  C 4.3345190960685835 7.998275314517622  4.646016511700786 7.829391257397452  4.83 7.550006183950959  L 8.54 2.000008940651987  L 16.54 2.000008940651987  L 19.169999999999998 6.500006705488991  C 19.277294475650773 6.687011922282544  19.44215378699225 6.834332935838417  19.639999999999997 6.920006496873778  L 26 9.660005135907864  Z " fill-rule="evenodd" />
    </mask>
  </defs>
  <g transform="matrix(1 0 0 1 -2 -8 )">
    <path d="M 28 9.000005463731771  C 27.99967295765732 8.598725463586996  27.75950494845532 8.236505039460646  27.39 8.080005920698426  L 20.7 5.2100073462357175  L 18.16 0.87000950192625  L 18.080000000000002 0.7500095615305974  C 17.700715418580454 0.27628326361058214  17.126855401365802 0.00038916160254135563  16.52 0  L 8.52 0  C 7.849318257767909 -0.002100275159261405  7.222226889655065 0.3320979526281203  6.85 0.8900094919921937  L 3.46 6.000006953840435  L 1 6.000006953840435  C 0.44771525016920677 6.000006953840435  0 6.447721981628184  0 7.000006457137546  L 0 16.00000198681155  C 0 16.55228646232092  0.44771525016920677 17.000001490108666  1 17.000001490108666  L 3.1399999999999997 17.000001490108666  C 3.6133978174935497 18.74196097360499  5.1948597422455345 19.951000500982737  7 19.951000500982737  C 8.805140257754466 19.951000500982737  10.386602182506449 18.74196097360499  10.86 17.000001490108666  L 17.14 17.000001490108666  C 17.613397817493553 18.74196097360499  19.194859742245537 19.951000500982737  21 19.951000500982737  C 22.805140257754466 19.951000500982737  24.386602182506447 18.74196097360499  24.86 17.000001490108666  L 27 17.000001490108666  C 27.552284749830793 17.000001490108666  28 16.55228646232092  28 16.00000198681155  L 28 9.000005463731771  Z M 9 16.00000198681155  C 9 17.104570937830278  8.104569499661586 18.000000993405777  7 18.000000993405777  C 5.8954305003384135 18.000000993405777  5 17.104570937830278  5 16.00000198681155  C 5 14.895433035792829  5.8954305003384135 14.00000298021733  7 14.00000298021733  C 8.104569499661586 14.00000298021733  9 14.895433035792829  9 16.00000198681155  Z M 23 16.00000198681155  C 23 17.104570937830278  22.104569499661586 18.000000993405777  21 18.000000993405777  C 19.895430500338414 18.000000993405777  19 17.104570937830278  19 16.00000198681155  C 19 14.895433035792829  19.895430500338414 14.00000298021733  21 14.00000298021733  C 22.104569499661586 14.00000298021733  23 14.895433035792829  23 16.00000198681155  Z M 26 9.660005135907864  L 26 15.000002483514443  L 24.86 15.000002483514443  C 24.386602182506447 13.258043000018118  22.805140257754463 12.049003472640372  21 12.049003472640372  C 19.194859742245534 12.049003472640372  17.613397817493553 13.258043000018118  17.14 15.000002483514443  L 10.86 15.000002483514443  C 10.386602182506449 13.258043000018118  8.805140257754465 12.049003472640372  7 12.049003472640372  C 5.1948597422455345 12.049003472640372  3.6133978174935497 13.258043000018118  3.1399999999999997 15.000002483514443  L 2 15.000002483514443  L 2 8.000005960434658  L 4 8.000005960434658  C 4.3345190960685835 7.998275314517622  4.646016511700786 7.829391257397452  4.83 7.550006183950959  L 8.54 2.000008940651987  L 16.54 2.000008940651987  L 19.169999999999998 6.500006705488991  C 19.277294475650773 6.687011922282544  19.44215378699225 6.834332935838417  19.639999999999997 6.920006496873778  L 26 9.660005135907864  Z " fill-rule="nonzero" fill="rgba(0, 0, 0, 1)" stroke="none" transform="matrix(1 0 0 1 2 8 )" class="fill" />
    <path d="M 28 9.000005463731771  C 27.99967295765732 8.598725463586996  27.75950494845532 8.236505039460646  27.39 8.080005920698426  L 20.7 5.2100073462357175  L 18.16 0.87000950192625  L 18.080000000000002 0.7500095615305974  C 17.700715418580454 0.27628326361058214  17.126855401365802 0.00038916160254135563  16.52 0  L 8.52 0  C 7.849318257767909 -0.002100275159261405  7.222226889655065 0.3320979526281203  6.85 0.8900094919921937  L 3.46 6.000006953840435  L 1 6.000006953840435  C 0.44771525016920677 6.000006953840435  0 6.447721981628184  0 7.000006457137546  L 0 16.00000198681155  C 0 16.55228646232092  0.44771525016920677 17.000001490108666  1 17.000001490108666  L 3.1399999999999997 17.000001490108666  C 3.6133978174935497 18.74196097360499  5.1948597422455345 19.951000500982737  7 19.951000500982737  C 8.805140257754466 19.951000500982737  10.386602182506449 18.74196097360499  10.86 17.000001490108666  L 17.14 17.000001490108666  C 17.613397817493553 18.74196097360499  19.194859742245537 19.951000500982737  21 19.951000500982737  C 22.805140257754466 19.951000500982737  24.386602182506447 18.74196097360499  24.86 17.000001490108666  L 27 17.000001490108666  C 27.552284749830793 17.000001490108666  28 16.55228646232092  28 16.00000198681155  L 28 9.000005463731771  Z " stroke-width="0" stroke-dasharray="0" stroke="rgba(255, 255, 255, 0)" fill="none" transform="matrix(1 0 0 1 2 8 )" class="stroke" mask="url(#Clip4320)" />
    <path d="M 9 16.00000198681155  C 9 17.104570937830278  8.104569499661586 18.000000993405777  7 18.000000993405777  C 5.8954305003384135 18.000000993405777  5 17.104570937830278  5 16.00000198681155  C 5 14.895433035792829  5.8954305003384135 14.00000298021733  7 14.00000298021733  C 8.104569499661586 14.00000298021733  9 14.895433035792829  9 16.00000198681155  Z " stroke-width="0" stroke-dasharray="0" stroke="rgba(255, 255, 255, 0)" fill="none" transform="matrix(1 0 0 1 2 8 )" class="stroke" mask="url(#Clip4320)" />
    <path d="M 23 16.00000198681155  C 23 17.104570937830278  22.104569499661586 18.000000993405777  21 18.000000993405777  C 19.895430500338414 18.000000993405777  19 17.104570937830278  19 16.00000198681155  C 19 14.895433035792829  19.895430500338414 14.00000298021733  21 14.00000298021733  C 22.104569499661586 14.00000298021733  23 14.895433035792829  23 16.00000198681155  Z " stroke-width="0" stroke-dasharray="0" stroke="rgba(255, 255, 255, 0)" fill="none" transform="matrix(1 0 0 1 2 8 )" class="stroke" mask="url(#Clip4320)" />
    <path d="M 26 9.660005135907864  L 26 15.000002483514443  L 24.86 15.000002483514443  C 24.386602182506447 13.258043000018118  22.805140257754463 12.049003472640372  21 12.049003472640372  C 19.194859742245534 12.049003472640372  17.613397817493553 13.258043000018118  17.14 15.000002483514443  L 10.86 15.000002483514443  C 10.386602182506449 13.258043000018118  8.805140257754465 12.049003472640372  7 12.049003472640372  C 5.1948597422455345 12.049003472640372  3.6133978174935497 13.258043000018118  3.1399999999999997 15.000002483514443  L 2 15.000002483514443  L 2 8.000005960434658  L 4 8.000005960434658  C 4.3345190960685835 7.998275314517622  4.646016511700786 7.829391257397452  4.83 7.550006183950959  L 8.54 2.000008940651987  L 16.54 2.000008940651987  L 19.169999999999998 6.500006705488991  C 19.277294475650773 6.687011922282544  19.44215378699225 6.834332935838417  19.639999999999997 6.920006496873778  L 26 9.660005135907864  Z " stroke-width="0" stroke-dasharray="0" stroke="rgba(255, 255, 255, 0)" fill="none" transform="matrix(1 0 0 1 2 8 )" class="stroke" mask="url(#Clip4320)" />
  </g>
</svg>