<?xml version="1.0" encoding="utf-8"?>
<svg version="1.1" xmlns:xlink="http://www.w3.org/1999/xlink" width="29px" height="27px" xmlns="http://www.w3.org/2000/svg">
  <defs>
    <pattern id="BGPattern" patternUnits="userSpaceOnUse" alignment="0 0" imageRepeat="None" />
    <mask fill="white" id="Clip4484">
      <path d="M 28.878899999999998 1.4785  C 29.046716508645808 1.1682585184561924  29.039312899730838 0.7926867267284581  28.8594 0.4893  C 28.679270446343715 0.1860534199727817  28.352711111765984 0.00012663103994103864  28 0  L 2 0  C 1.4473593868142172 0.0006672496526163307  0.99970919459061 0.4488582540198811  0.99970919459061 1.0014992700189262  C 0.99970919459061 1.1680790539849029  1.041260330951712 1.3320280185787752  1.1206 1.4785  L 14.120600000000003 26.515100000000004  C 14.311178511834168 26.816658739284932  14.643017828179122 26.999496474543225  14.999750000000002 26.999496474543225  C 15.356482171820879 26.999496474543225  15.688321488165835 26.81665873928493  15.878899999999998 26.5151  L 28.878899999999998 1.4785  Z M 14 13  L 14 3  L 16 3  L 16 13  L 14 13  Z M 16.5 17.5  C 16.5 18.32842712474619  15.828427124746188 19  15.000000000000002 19  C 14.171572875253808 19  13.5 18.32842712474619  13.5 17.5  C 13.5 16.67157287525381  14.171572875253808 16  15.000000000000002 16  C 15.828427124746188 16  16.5 16.67157287525381  16.5 17.5  Z " fill-rule="evenodd" />
    </mask>
  </defs>
  <g transform="matrix(1 0 0 1 -1 -2 )">
    <path d="M 28.878899999999998 1.4785  C 29.046716508645808 1.1682585184561924  29.039312899730838 0.7926867267284581  28.8594 0.4893  C 28.679270446343715 0.1860534199727817  28.352711111765984 0.00012663103994103864  28 0  L 2 0  C 1.4473593868142172 0.0006672496526163307  0.99970919459061 0.4488582540198811  0.99970919459061 1.0014992700189262  C 0.99970919459061 1.1680790539849029  1.041260330951712 1.3320280185787752  1.1206 1.4785  L 14.120600000000003 26.515100000000004  C 14.311178511834168 26.816658739284932  14.643017828179122 26.999496474543225  14.999750000000002 26.999496474543225  C 15.356482171820879 26.999496474543225  15.688321488165835 26.81665873928493  15.878899999999998 26.5151  L 28.878899999999998 1.4785  Z M 14 13  L 14 3  L 16 3  L 16 13  L 14 13  Z M 16.5 17.5  C 16.5 18.32842712474619  15.828427124746188 19  15.000000000000002 19  C 14.171572875253808 19  13.5 18.32842712474619  13.5 17.5  C 13.5 16.67157287525381  14.171572875253808 16  15.000000000000002 16  C 15.828427124746188 16  16.5 16.67157287525381  16.5 17.5  Z " fill-rule="nonzero" fill="rgba(0, 0, 0, 1)" stroke="none" transform="matrix(1 0 0 1 1 2 )" class="fill" />
    <path d="M 28.878899999999998 1.4785  C 29.046716508645808 1.1682585184561924  29.039312899730838 0.7926867267284581  28.8594 0.4893  C 28.679270446343715 0.1860534199727817  28.352711111765984 0.00012663103994103864  28 0  L 2 0  C 1.4473593868142172 0.0006672496526163307  0.99970919459061 0.4488582540198811  0.99970919459061 1.0014992700189262  C 0.99970919459061 1.1680790539849029  1.041260330951712 1.3320280185787752  1.1206 1.4785  L 14.120600000000003 26.515100000000004  C 14.311178511834168 26.816658739284932  14.643017828179122 26.999496474543225  14.999750000000002 26.999496474543225  C 15.356482171820879 26.999496474543225  15.688321488165835 26.81665873928493  15.878899999999998 26.5151  L 28.878899999999998 1.4785  Z " stroke-width="0" stroke-dasharray="0" stroke="rgba(255, 255, 255, 0)" fill="none" transform="matrix(1 0 0 1 1 2 )" class="stroke" mask="url(#Clip4484)" />
    <path d="M 14 13  L 14 3  L 16 3  L 16 13  L 14 13  Z " stroke-width="0" stroke-dasharray="0" stroke="rgba(255, 255, 255, 0)" fill="none" transform="matrix(1 0 0 1 1 2 )" class="stroke" mask="url(#Clip4484)" />
    <path d="M 16.5 17.5  C 16.5 18.32842712474619  15.828427124746188 19  15.000000000000002 19  C 14.171572875253808 19  13.5 18.32842712474619  13.5 17.5  C 13.5 16.67157287525381  14.171572875253808 16  15.000000000000002 16  C 15.828427124746188 16  16.5 16.67157287525381  16.5 17.5  Z " stroke-width="0" stroke-dasharray="0" stroke="rgba(255, 255, 255, 0)" fill="none" transform="matrix(1 0 0 1 1 2 )" class="stroke" mask="url(#Clip4484)" />
  </g>
</svg>