<?xml version="1.0" encoding="utf-8"?>
<svg version="1.1" xmlns:xlink="http://www.w3.org/1999/xlink" width="56px" height="44px" xmlns="http://www.w3.org/2000/svg">
  <defs>
    <pattern id="BGPattern" patternUnits="userSpaceOnUse" alignment="0 0" imageRepeat="None" />
    <mask fill="white" id="Clip2228">
      <path d="M 56 6  C 56 4.893750000000001  55.10625 4  54 4  L 44 4  L 44 0.5  C 44 0.22499999999999964  43.775 0  43.5 0  L 40 0  C 39.725 0  39.5 0.22499999999999964  39.5 0.5  L 39.5 4  L 30.25 4  L 30.25 0.5  C 30.25 0.22499999999999964  30.024999999999995 0  29.75 0  L 26.25 0  C 25.975 0  25.75 0.22499999999999964  25.75 0.5  L 25.75 4  L 16.5 4  L 16.5 0.5  C 16.5 0.22499999999999964  16.275 0  16 0  L 12.5 0  C 12.225000000000001 0  12 0.22499999999999964  12 0.5  L 12 4  L 2 4  C 0.8937499999999997 4  0 4.893750000000001  0 6  L 0 42  C 0 43.10625  0.8937499999999997 44  2 44  L 54 44  C 55.10625 44  56 43.10625  56 42  L 56 6  Z M 37.8 35.475  C 37.824999999999996 35.7625  37.599999999999994 36  37.3125 36  L 34.56875 36  C 34.30625 36  34.09375 35.79375  34.075 35.53125  C 33.837500000000006 32.36875  31.200000000000003 29.875  28 29.875  C 24.799999999999997 29.875  22.1625 32.375  21.925 35.53125  C 21.90625 35.79375  21.69375 36  21.431250000000002 36  L 18.6875 36  C 18.410732214388975 36.000000391138684  18.186874589304374 35.77614276605408  18.186874589304374 35.500000391138684  C 18.186874589304374 35.49166301650945  18.187083124746398 35.483326946062704  18.1875 35.475  C 18.3625 32.143750000000004  20.1875 29.24375  22.849999999999998 27.593749999999996  C 21.675860095372208 26.303079562186717  21.02708284590009 24.619825873693763  21.03125 22.875  C 21.03125 19.00625  24.15 15.875  27.99375 15.875  C 31.8375 15.875  34.95625 19.00625  34.95625 22.875  C 34.95625 24.69375  34.26875 26.34375  33.137499999999996 27.593749999999996  C 35.80625 29.25  37.62499999999999 32.14375  37.8 35.475  Z M 31.23125 22.875  C 31.23125 21.081249999999997  29.78125 19.625  28 19.625  C 26.21875 19.625  24.76875 21.08125  24.76875 22.875  C 24.76875 24.66875  26.21875 26.125  28 26.125  C 29.78125 26.125  31.23125 24.66875  31.23125 22.875  Z " fill-rule="evenodd" />
    </mask>
  </defs>
  <g>
    <path d="M 56 6  C 56 4.893750000000001  55.10625 4  54 4  L 44 4  L 44 0.5  C 44 0.22499999999999964  43.775 0  43.5 0  L 40 0  C 39.725 0  39.5 0.22499999999999964  39.5 0.5  L 39.5 4  L 30.25 4  L 30.25 0.5  C 30.25 0.22499999999999964  30.024999999999995 0  29.75 0  L 26.25 0  C 25.975 0  25.75 0.22499999999999964  25.75 0.5  L 25.75 4  L 16.5 4  L 16.5 0.5  C 16.5 0.22499999999999964  16.275 0  16 0  L 12.5 0  C 12.225000000000001 0  12 0.22499999999999964  12 0.5  L 12 4  L 2 4  C 0.8937499999999997 4  0 4.893750000000001  0 6  L 0 42  C 0 43.10625  0.8937499999999997 44  2 44  L 54 44  C 55.10625 44  56 43.10625  56 42  L 56 6  Z M 37.8 35.475  C 37.824999999999996 35.7625  37.599999999999994 36  37.3125 36  L 34.56875 36  C 34.30625 36  34.09375 35.79375  34.075 35.53125  C 33.837500000000006 32.36875  31.200000000000003 29.875  28 29.875  C 24.799999999999997 29.875  22.1625 32.375  21.925 35.53125  C 21.90625 35.79375  21.69375 36  21.431250000000002 36  L 18.6875 36  C 18.410732214388975 36.000000391138684  18.186874589304374 35.77614276605408  18.186874589304374 35.500000391138684  C 18.186874589304374 35.49166301650945  18.187083124746398 35.483326946062704  18.1875 35.475  C 18.3625 32.143750000000004  20.1875 29.24375  22.849999999999998 27.593749999999996  C 21.675860095372208 26.303079562186717  21.02708284590009 24.619825873693763  21.03125 22.875  C 21.03125 19.00625  24.15 15.875  27.99375 15.875  C 31.8375 15.875  34.95625 19.00625  34.95625 22.875  C 34.95625 24.69375  34.26875 26.34375  33.137499999999996 27.593749999999996  C 35.80625 29.25  37.62499999999999 32.14375  37.8 35.475  Z M 31.23125 22.875  C 31.23125 21.081249999999997  29.78125 19.625  28 19.625  C 26.21875 19.625  24.76875 21.08125  24.76875 22.875  C 24.76875 24.66875  26.21875 26.125  28 26.125  C 29.78125 26.125  31.23125 24.66875  31.23125 22.875  Z " fill-rule="nonzero" fill="rgba(0, 0, 0, 1)" stroke="none" class="fill" />
    <path d="M 56 6  C 56 4.893750000000001  55.10625 4  54 4  L 44 4  L 44 0.5  C 44 0.22499999999999964  43.775 0  43.5 0  L 40 0  C 39.725 0  39.5 0.22499999999999964  39.5 0.5  L 39.5 4  L 30.25 4  L 30.25 0.5  C 30.25 0.22499999999999964  30.024999999999995 0  29.75 0  L 26.25 0  C 25.975 0  25.75 0.22499999999999964  25.75 0.5  L 25.75 4  L 16.5 4  L 16.5 0.5  C 16.5 0.22499999999999964  16.275 0  16 0  L 12.5 0  C 12.225000000000001 0  12 0.22499999999999964  12 0.5  L 12 4  L 2 4  C 0.8937499999999997 4  0 4.893750000000001  0 6  L 0 42  C 0 43.10625  0.8937499999999997 44  2 44  L 54 44  C 55.10625 44  56 43.10625  56 42  L 56 6  Z " stroke-width="0" stroke-dasharray="0" stroke="rgba(255, 255, 255, 0)" fill="none" class="stroke" mask="url(#Clip2228)" />
    <path d="M 37.8 35.475  C 37.824999999999996 35.7625  37.599999999999994 36  37.3125 36  L 34.56875 36  C 34.30625 36  34.09375 35.79375  34.075 35.53125  C 33.837500000000006 32.36875  31.200000000000003 29.875  28 29.875  C 24.799999999999997 29.875  22.1625 32.375  21.925 35.53125  C 21.90625 35.79375  21.69375 36  21.431250000000002 36  L 18.6875 36  C 18.410732214388975 36.000000391138684  18.186874589304374 35.77614276605408  18.186874589304374 35.500000391138684  C 18.186874589304374 35.49166301650945  18.187083124746398 35.483326946062704  18.1875 35.475  C 18.3625 32.143750000000004  20.1875 29.24375  22.849999999999998 27.593749999999996  C 21.675860095372208 26.303079562186717  21.02708284590009 24.619825873693763  21.03125 22.875  C 21.03125 19.00625  24.15 15.875  27.99375 15.875  C 31.8375 15.875  34.95625 19.00625  34.95625 22.875  C 34.95625 24.69375  34.26875 26.34375  33.137499999999996 27.593749999999996  C 35.80625 29.25  37.62499999999999 32.14375  37.8 35.475  Z " stroke-width="0" stroke-dasharray="0" stroke="rgba(255, 255, 255, 0)" fill="none" class="stroke" mask="url(#Clip2228)" />
    <path d="M 31.23125 22.875  C 31.23125 21.081249999999997  29.78125 19.625  28 19.625  C 26.21875 19.625  24.76875 21.08125  24.76875 22.875  C 24.76875 24.66875  26.21875 26.125  28 26.125  C 29.78125 26.125  31.23125 24.66875  31.23125 22.875  Z " stroke-width="0" stroke-dasharray="0" stroke="rgba(255, 255, 255, 0)" fill="none" class="stroke" mask="url(#Clip2228)" />
  </g>
</svg>