<?xml version="1.0" encoding="utf-8"?>
<svg version="1.1" xmlns:xlink="http://www.w3.org/1999/xlink" width="28px" height="28px" xmlns="http://www.w3.org/2000/svg">
  <defs>
    <pattern id="BGPattern" patternUnits="userSpaceOnUse" alignment="0 0" imageRepeat="None" />
    <mask fill="white" id="Clip4219">
      <path d="M 28 14  C 28 6.268013502368892  21.73198649763111 0  14 0  C 6.268013502368892 0  0 6.268013502368892  0 14  C 0 21.73198649763111  6.268013502368892 28  14 28  C 21.73198649763111 28  28 21.73198649763111  28 14  Z M 2.830000000000001 9.599999999999998  C 4.638111158128143 5.012233263731747  9.06878676563294 1.9976285531644749  14 2.000000000000001  C 18.943668285418653 2.0056886605775146  23.37792233304718 5.042577063832506  25.17 9.650000000000002  C 23.980674529097787 9.055254244225914  22.746967165922367 8.553747186024523  21.48 8.150000000000002  L 20.48 9.920000000000002  C 22.379845041241985 10.477326188532611  24.198611912976148 11.280810998781163  25.89 12.310000000000002  C 26.063333333333333 13.430000000000007  26.063333333333333 14.57  25.890000000000004 15.690000000000001  C 22.30387581570062 17.859754306337667  18.191431649748225 19.00459788828068  14 19.000000000000004  C 9.815359059785418 19.000942902955675  5.710314506369451 17.856233764640017  2.130000000000001 15.690000000000001  C 1.9566666666666692 14.570000000000006  1.9566666666666686 13.429999999999996  2.130000000000001 12.310000000000006  C 5.415931937856379 10.307002242760017  9.155390632267167 9.168307828914596  13 9  L 13 7.000000000000002  C 9.464200755055007 7.137177907655972  5.997799479785545 8.023376857085726  2.830000000000001 9.599999999999998  Z M 25.17 18.35  C 23.377922333047184 22.957422936167493  18.943668285418646 25.99431133942248  14 25.999999999999996  C 9.056331714581347 25.99431133942248  4.62207766695282 22.957422936167493  2.830000000000001 18.35  C 6.295845657081201 20.092004471771553  10.120996849488712 20.999493340158292  14 21  C 17.879003150511288 20.999493340158295  21.7041543429188 20.092004471771553  25.17 18.35  Z " fill-rule="evenodd" />
    </mask>
  </defs>
  <g transform="matrix(1 0 0 1 -2 -2 )">
    <path d="M 28 14  C 28 6.268013502368892  21.73198649763111 0  14 0  C 6.268013502368892 0  0 6.268013502368892  0 14  C 0 21.73198649763111  6.268013502368892 28  14 28  C 21.73198649763111 28  28 21.73198649763111  28 14  Z M 2.830000000000001 9.599999999999998  C 4.638111158128143 5.012233263731747  9.06878676563294 1.9976285531644749  14 2.000000000000001  C 18.943668285418653 2.0056886605775146  23.37792233304718 5.042577063832506  25.17 9.650000000000002  C 23.980674529097787 9.055254244225914  22.746967165922367 8.553747186024523  21.48 8.150000000000002  L 20.48 9.920000000000002  C 22.379845041241985 10.477326188532611  24.198611912976148 11.280810998781163  25.89 12.310000000000002  C 26.063333333333333 13.430000000000007  26.063333333333333 14.57  25.890000000000004 15.690000000000001  C 22.30387581570062 17.859754306337667  18.191431649748225 19.00459788828068  14 19.000000000000004  C 9.815359059785418 19.000942902955675  5.710314506369451 17.856233764640017  2.130000000000001 15.690000000000001  C 1.9566666666666692 14.570000000000006  1.9566666666666686 13.429999999999996  2.130000000000001 12.310000000000006  C 5.415931937856379 10.307002242760017  9.155390632267167 9.168307828914596  13 9  L 13 7.000000000000002  C 9.464200755055007 7.137177907655972  5.997799479785545 8.023376857085726  2.830000000000001 9.599999999999998  Z M 25.17 18.35  C 23.377922333047184 22.957422936167493  18.943668285418646 25.99431133942248  14 25.999999999999996  C 9.056331714581347 25.99431133942248  4.62207766695282 22.957422936167493  2.830000000000001 18.35  C 6.295845657081201 20.092004471771553  10.120996849488712 20.999493340158292  14 21  C 17.879003150511288 20.999493340158295  21.7041543429188 20.092004471771553  25.17 18.35  Z " fill-rule="nonzero" fill="rgba(0, 0, 0, 1)" stroke="none" transform="matrix(1 0 0 1 2 2 )" class="fill" />
    <path d="M 28 14  C 28 6.268013502368892  21.73198649763111 0  14 0  C 6.268013502368892 0  0 6.268013502368892  0 14  C 0 21.73198649763111  6.268013502368892 28  14 28  C 21.73198649763111 28  28 21.73198649763111  28 14  Z " stroke-width="0" stroke-dasharray="0" stroke="rgba(255, 255, 255, 0)" fill="none" transform="matrix(1 0 0 1 2 2 )" class="stroke" mask="url(#Clip4219)" />
    <path d="M 2.830000000000001 9.599999999999998  C 4.638111158128143 5.012233263731747  9.06878676563294 1.9976285531644749  14 2.000000000000001  C 18.943668285418653 2.0056886605775146  23.37792233304718 5.042577063832506  25.17 9.650000000000002  C 23.980674529097787 9.055254244225914  22.746967165922367 8.553747186024523  21.48 8.150000000000002  L 20.48 9.920000000000002  C 22.379845041241985 10.477326188532611  24.198611912976148 11.280810998781163  25.89 12.310000000000002  C 26.063333333333333 13.430000000000007  26.063333333333333 14.57  25.890000000000004 15.690000000000001  C 22.30387581570062 17.859754306337667  18.191431649748225 19.00459788828068  14 19.000000000000004  C 9.815359059785418 19.000942902955675  5.710314506369451 17.856233764640017  2.130000000000001 15.690000000000001  C 1.9566666666666692 14.570000000000006  1.9566666666666686 13.429999999999996  2.130000000000001 12.310000000000006  C 5.415931937856379 10.307002242760017  9.155390632267167 9.168307828914596  13 9  L 13 7.000000000000002  C 9.464200755055007 7.137177907655972  5.997799479785545 8.023376857085726  2.830000000000001 9.599999999999998  Z " stroke-width="0" stroke-dasharray="0" stroke="rgba(255, 255, 255, 0)" fill="none" transform="matrix(1 0 0 1 2 2 )" class="stroke" mask="url(#Clip4219)" />
    <path d="M 25.17 18.35  C 23.377922333047184 22.957422936167493  18.943668285418646 25.99431133942248  14 25.999999999999996  C 9.056331714581347 25.99431133942248  4.62207766695282 22.957422936167493  2.830000000000001 18.35  C 6.295845657081201 20.092004471771553  10.120996849488712 20.999493340158292  14 21  C 17.879003150511288 20.999493340158295  21.7041543429188 20.092004471771553  25.17 18.35  Z " stroke-width="0" stroke-dasharray="0" stroke="rgba(255, 255, 255, 0)" fill="none" transform="matrix(1 0 0 1 2 2 )" class="stroke" mask="url(#Clip4219)" />
  </g>
</svg>