<?xml version="1.0" encoding="utf-8"?>
<svg version="1.1" xmlns:xlink="http://www.w3.org/1999/xlink" width="40px" height="48px" xmlns="http://www.w3.org/2000/svg">
  <defs>
    <pattern id="BGPattern" patternUnits="userSpaceOnUse" alignment="0 0" imageRepeat="None" />
    <mask fill="white" id="Clip7081">
      <path d="M 39 0  L 24.646 0  L 15.354 10  L 30 10  L 30 24  L 39 14.738  L 39 0  Z M 39 33.262  L 30 24  L 30 38  L 15.354 38  L 24.646 48  L 39 48  L 39 33.262  Z M 16 38.74  L 30.14 24  L 16 9.262  L 16 38.74  Z M 1 38  L 15.354 38  L 1 24  L 1 38  Z M 1 10  L 1 24  L 15.354 10  L 1 10  Z " fill-rule="evenodd" />
    </mask>
  </defs>
  <g>
    <path d="M 39 0  L 24.646 0  L 15.354 10  L 30 10  L 30 24  L 39 14.738  L 39 0  Z M 39 33.262  L 30 24  L 30 38  L 15.354 38  L 24.646 48  L 39 48  L 39 33.262  Z M 16 38.74  L 30.14 24  L 16 9.262  L 16 38.74  Z M 1 38  L 15.354 38  L 1 24  L 1 38  Z M 1 10  L 1 24  L 15.354 10  L 1 10  Z " fill-rule="nonzero" fill="rgba(237, 28, 36, 1)" stroke="none" class="fill" />
    <path d="M 39 0  L 24.646 0  L 15.354 10  L 30 10  L 30 24  L 39 14.738  L 39 0  Z " stroke-width="0" stroke-dasharray="0" stroke="rgba(255, 255, 255, 0)" fill="none" class="stroke" mask="url(#Clip7081)" />
    <path d="M 39 33.262  L 30 24  L 30 38  L 15.354 38  L 24.646 48  L 39 48  L 39 33.262  Z " stroke-width="0" stroke-dasharray="0" stroke="rgba(255, 255, 255, 0)" fill="none" class="stroke" mask="url(#Clip7081)" />
    <path d="M 16 38.74  L 30.14 24  L 16 9.262  L 16 38.74  Z " stroke-width="0" stroke-dasharray="0" stroke="rgba(255, 255, 255, 0)" fill="none" class="stroke" mask="url(#Clip7081)" />
    <path d="M 1 38  L 15.354 38  L 1 24  L 1 38  Z " stroke-width="0" stroke-dasharray="0" stroke="rgba(255, 255, 255, 0)" fill="none" class="stroke" mask="url(#Clip7081)" />
    <path d="M 1 10  L 1 24  L 15.354 10  L 1 10  Z " stroke-width="0" stroke-dasharray="0" stroke="rgba(255, 255, 255, 0)" fill="none" class="stroke" mask="url(#Clip7081)" />
  </g>
</svg>