<?xml version="1.0" encoding="utf-8"?>
<svg version="1.1" xmlns:xlink="http://www.w3.org/1999/xlink" width="24px" height="12px" xmlns="http://www.w3.org/2000/svg">
  <defs>
    <pattern id="BGPattern" patternUnits="userSpaceOnUse" alignment="0 0" imageRepeat="None" />
    <mask fill="white" id="Clip3409">
      <path d="M 24 6  L 18 0  L 16.59 1.4100000000000001  L 20.17 5  L 0 5  L 0 7  L 20.17 7  L 16.59 10.59  L 18 12  L 24 6  Z " fill-rule="evenodd" />
    </mask>
  </defs>
  <g transform="matrix(1 0 0 1 -4 -4 )">
    <path d="M 24 6  L 18 0  L 16.59 1.4100000000000001  L 20.17 5  L 0 5  L 0 7  L 20.17 7  L 16.59 10.59  L 18 12  L 24 6  Z " fill-rule="nonzero" fill="rgba(0, 0, 0, 1)" stroke="none" transform="matrix(1 0 0 1 4 4 )" class="fill" />
    <path d="M 24 6  L 18 0  L 16.59 1.4100000000000001  L 20.17 5  L 0 5  L 0 7  L 20.17 7  L 16.59 10.59  L 18 12  L 24 6  Z " stroke-width="0" stroke-dasharray="0" stroke="rgba(255, 255, 255, 0)" fill="none" transform="matrix(1 0 0 1 4 4 )" class="stroke" mask="url(#Clip3409)" />
  </g>
</svg>