<?xml version="1.0" encoding="utf-8"?>
<svg version="1.1" xmlns:xlink="http://www.w3.org/1999/xlink" width="46px" height="52px" xmlns="http://www.w3.org/2000/svg">
  <defs>
    <pattern id="BGPattern" patternUnits="userSpaceOnUse" alignment="0 0" imageRepeat="None" />
    <mask fill="white" id="Clip2617">
      <path d="M 45.91875 0  L 0.0625 0  L 4.1875 46.6625  L 22.9875 52  L 41.712500000000006 46.6625  L 45.91875 0  Z M 41.856249999999996 4  L 38.24375 43.7875  L 22.987499999999997 48.1375  L 7.662499999999997 43.7875  L 4.118749999999999 4  L 41.856249999999996 4  Z M 22.9375 10  L 8.5625 10  L 8.66875 11.08125  L 10.087499999999999 27  L 22.99375 27  L 22.99375 26.918749999999996  L 30.049999999999997 26.918749999999996  L 29.3375 34.324999999999996  L 22.9375 36.05625  L 22.9375 36.06875  L 22.8875 36.06875  L 16.487499999999997 34.3375  L 16.081249999999997 29.762499999999996  L 10.393749999999997 29.762499999999996  L 11.099999999999998 38.80624999999999  L 22.887499999999996 42.05624999999999  L 22.993749999999995 42.05624999999999  L 22.993749999999995 42.03124999999999  L 34.724999999999994 38.79999999999999  L 34.83125 37.78124999999999  L 36.15625 22.643749999999994  L 36.35625 22  L 22.9375 22  L 22.9375 21.137499999999992  L 15.36875 21.137499999999992  L 14.856249999999998 16  L 36.8625 16  L 36.96875 14.031249999999993  L 37.26875 11.081249999999994  L 37.375 9.5625  L 22.9375 10  Z " fill-rule="evenodd" />
    </mask>
  </defs>
  <g>
    <path d="M 45.91875 0  L 0.0625 0  L 4.1875 46.6625  L 22.9875 52  L 41.712500000000006 46.6625  L 45.91875 0  Z M 41.856249999999996 4  L 38.24375 43.7875  L 22.987499999999997 48.1375  L 7.662499999999997 43.7875  L 4.118749999999999 4  L 41.856249999999996 4  Z M 22.9375 10  L 8.5625 10  L 8.66875 11.08125  L 10.087499999999999 27  L 22.99375 27  L 22.99375 26.918749999999996  L 30.049999999999997 26.918749999999996  L 29.3375 34.324999999999996  L 22.9375 36.05625  L 22.9375 36.06875  L 22.8875 36.06875  L 16.487499999999997 34.3375  L 16.081249999999997 29.762499999999996  L 10.393749999999997 29.762499999999996  L 11.099999999999998 38.80624999999999  L 22.887499999999996 42.05624999999999  L 22.993749999999995 42.05624999999999  L 22.993749999999995 42.03124999999999  L 34.724999999999994 38.79999999999999  L 34.83125 37.78124999999999  L 36.15625 22.643749999999994  L 36.35625 22  L 22.9375 22  L 22.9375 21.137499999999992  L 15.36875 21.137499999999992  L 14.856249999999998 16  L 36.8625 16  L 36.96875 14.031249999999993  L 37.26875 11.081249999999994  L 37.375 9.5625  L 22.9375 10  Z " fill-rule="nonzero" fill="rgba(0, 0, 0, 1)" stroke="none" class="fill" />
    <path d="M 45.91875 0  L 0.0625 0  L 4.1875 46.6625  L 22.9875 52  L 41.712500000000006 46.6625  L 45.91875 0  Z " stroke-width="0" stroke-dasharray="0" stroke="rgba(255, 255, 255, 0)" fill="none" class="stroke" mask="url(#Clip2617)" />
    <path d="M 41.856249999999996 4  L 38.24375 43.7875  L 22.987499999999997 48.1375  L 7.662499999999997 43.7875  L 4.118749999999999 4  L 41.856249999999996 4  Z " stroke-width="0" stroke-dasharray="0" stroke="rgba(255, 255, 255, 0)" fill="none" class="stroke" mask="url(#Clip2617)" />
    <path d="M 22.9375 10  L 8.5625 10  L 8.66875 11.08125  L 10.087499999999999 27  L 22.99375 27  L 22.99375 26.918749999999996  L 30.049999999999997 26.918749999999996  L 29.3375 34.324999999999996  L 22.9375 36.05625  L 22.9375 36.06875  L 22.8875 36.06875  L 16.487499999999997 34.3375  L 16.081249999999997 29.762499999999996  L 10.393749999999997 29.762499999999996  L 11.099999999999998 38.80624999999999  L 22.887499999999996 42.05624999999999  L 22.993749999999995 42.05624999999999  L 22.993749999999995 42.03124999999999  L 34.724999999999994 38.79999999999999  L 34.83125 37.78124999999999  L 36.15625 22.643749999999994  L 36.35625 22  L 22.9375 22  L 22.9375 21.137499999999992  L 15.36875 21.137499999999992  L 14.856249999999998 16  L 36.8625 16  L 36.96875 14.031249999999993  L 37.26875 11.081249999999994  L 37.375 9.5625  L 22.9375 10  Z " stroke-width="0" stroke-dasharray="0" stroke="rgba(255, 255, 255, 0)" fill="none" class="stroke" mask="url(#Clip2617)" />
  </g>
</svg>