<?xml version="1.0" encoding="utf-8"?>
<svg version="1.1" xmlns:xlink="http://www.w3.org/1999/xlink" width="48px" height="49px" xmlns="http://www.w3.org/2000/svg">
  <defs>
    <pattern id="BGPattern" patternUnits="userSpaceOnUse" alignment="0 0" imageRepeat="None" />
    <mask fill="white" id="Clip7400">
      <path d="M 18.68 1.004  L 18.682 1.004  C 18.35566974412032 1.019013626879634  18.031525331836864 1.065224297225829  17.714 1.142  C 15.001999999999999 1.758  13.4 4.470000000000001  14.014 7.184  L 16.824 17.28  L 6.736000000000001 13.970000000000002  C 4.146 13.106  1.31 14.586000000000002  0.446 17.176  C -0.416 19.766  1.066 22.604  3.652 23.467999999999996  L 15.358 27.305999999999997  L 7.232000000000001 36.418  C 6.446638560997707 37.352058277097676  6.009784446723007 38.529726488071226  5.996000000000001 39.75  C 6.004787901133216 42.47100010815251  8.208996552577494 44.674315282235035  10.930000000000001 44.682  C 12.286000000000001 44.682  13.644000000000002 44.066  14.630000000000003 42.956  L 21.756000000000004 34.998000000000005  L 24.622 45.300000000000004  C 25.206831221611417 47.4773529739687  27.177482797312088 48.99323880143075  29.432 49  L 29.433999999999997 49  C 29.804000000000002 49  30.295999999999992 48.878  30.668 48.754  C 33.31349109908466 47.99009617619021  34.85240213042122 45.24038492436982  34.12 42.586  L 31.36 32.552  L 41.274 35.802  C 41.892 35.926  42.386 36.048  42.878 36.048  C 45.1 36.048  46.95 34.692  47.564 32.596000000000004  C 48.43000000000001 30.004  46.948 27.168000000000003  44.358 26.304000000000002  L 32.902 22.548000000000002  L 41.028 13.474000000000004  C 42.878 11.378000000000002  42.754 8.294000000000002  40.658 6.446000000000003  C 38.56 4.594000000000002  35.478 4.718000000000003  33.626000000000005 6.814000000000002  L 26.484 14.826000000000004  L 23.636000000000006 4.470000000000004  C 22.988 2.31  20.924 0.9080000000000001  18.68 1.004  Z " fill-rule="evenodd" />
    </mask>
  </defs>
  <g>
    <path d="M 18.68 1.004  L 18.682 1.004  C 18.35566974412032 1.019013626879634  18.031525331836864 1.065224297225829  17.714 1.142  C 15.001999999999999 1.758  13.4 4.470000000000001  14.014 7.184  L 16.824 17.28  L 6.736000000000001 13.970000000000002  C 4.146 13.106  1.31 14.586000000000002  0.446 17.176  C -0.416 19.766  1.066 22.604  3.652 23.467999999999996  L 15.358 27.305999999999997  L 7.232000000000001 36.418  C 6.446638560997707 37.352058277097676  6.009784446723007 38.529726488071226  5.996000000000001 39.75  C 6.004787901133216 42.47100010815251  8.208996552577494 44.674315282235035  10.930000000000001 44.682  C 12.286000000000001 44.682  13.644000000000002 44.066  14.630000000000003 42.956  L 21.756000000000004 34.998000000000005  L 24.622 45.300000000000004  C 25.206831221611417 47.4773529739687  27.177482797312088 48.99323880143075  29.432 49  L 29.433999999999997 49  C 29.804000000000002 49  30.295999999999992 48.878  30.668 48.754  C 33.31349109908466 47.99009617619021  34.85240213042122 45.24038492436982  34.12 42.586  L 31.36 32.552  L 41.274 35.802  C 41.892 35.926  42.386 36.048  42.878 36.048  C 45.1 36.048  46.95 34.692  47.564 32.596000000000004  C 48.43000000000001 30.004  46.948 27.168000000000003  44.358 26.304000000000002  L 32.902 22.548000000000002  L 41.028 13.474000000000004  C 42.878 11.378000000000002  42.754 8.294000000000002  40.658 6.446000000000003  C 38.56 4.594000000000002  35.478 4.718000000000003  33.626000000000005 6.814000000000002  L 26.484 14.826000000000004  L 23.636000000000006 4.470000000000004  C 22.988 2.31  20.924 0.9080000000000001  18.68 1.004  Z " fill-rule="nonzero" fill="rgba(0, 180, 242, 1)" stroke="none" class="fill" />
    <path d="M 18.68 1.004  L 18.682 1.004  C 18.35566974412032 1.019013626879634  18.031525331836864 1.065224297225829  17.714 1.142  C 15.001999999999999 1.758  13.4 4.470000000000001  14.014 7.184  L 16.824 17.28  L 6.736000000000001 13.970000000000002  C 4.146 13.106  1.31 14.586000000000002  0.446 17.176  C -0.416 19.766  1.066 22.604  3.652 23.467999999999996  L 15.358 27.305999999999997  L 7.232000000000001 36.418  C 6.446638560997707 37.352058277097676  6.009784446723007 38.529726488071226  5.996000000000001 39.75  C 6.004787901133216 42.47100010815251  8.208996552577494 44.674315282235035  10.930000000000001 44.682  C 12.286000000000001 44.682  13.644000000000002 44.066  14.630000000000003 42.956  L 21.756000000000004 34.998000000000005  L 24.622 45.300000000000004  C 25.206831221611417 47.4773529739687  27.177482797312088 48.99323880143075  29.432 49  L 29.433999999999997 49  C 29.804000000000002 49  30.295999999999992 48.878  30.668 48.754  C 33.31349109908466 47.99009617619021  34.85240213042122 45.24038492436982  34.12 42.586  L 31.36 32.552  L 41.274 35.802  C 41.892 35.926  42.386 36.048  42.878 36.048  C 45.1 36.048  46.95 34.692  47.564 32.596000000000004  C 48.43000000000001 30.004  46.948 27.168000000000003  44.358 26.304000000000002  L 32.902 22.548000000000002  L 41.028 13.474000000000004  C 42.878 11.378000000000002  42.754 8.294000000000002  40.658 6.446000000000003  C 38.56 4.594000000000002  35.478 4.718000000000003  33.626000000000005 6.814000000000002  L 26.484 14.826000000000004  L 23.636000000000006 4.470000000000004  C 22.988 2.31  20.924 0.9080000000000001  18.68 1.004  Z " stroke-width="0" stroke-dasharray="0" stroke="rgba(255, 255, 255, 0)" fill="none" class="stroke" mask="url(#Clip7400)" />
  </g>
</svg>