<?xml version="1.0" encoding="utf-8"?>
<svg version="1.1" xmlns:xlink="http://www.w3.org/1999/xlink" width="20px" height="23px" xmlns="http://www.w3.org/2000/svg">
  <defs>
    <pattern id="BGPattern" patternUnits="userSpaceOnUse" alignment="0 0" imageRepeat="None" />
    <mask fill="white" id="Clip6450">
      <path d="M 19.75 3  L 19.75 4.5  C 19.75 5.32842712474619  19.07842712474619 6  18.25 6  L 17.5 6  L 17.5 19.5  C 17.5 21.15685424949238  16.15685424949238 22.5  14.5 22.5  L 5.5 22.5  C 3.8431457505076194 22.5  2.5 21.15685424949238  2.5 19.5  L 2.5 6  L 1.75 6  C 0.9215728752538097 6  0.25 5.32842712474619  0.25 4.5  L 0.25 3  C 0.25 2.1715728752538097  0.9215728752538097 1.5  1.75 1.5  L 7 1.5  C 7 0.6715728752538098  7.67157287525381 0  8.5 0  L 11.5 0  C 12.328427124746192 0  13 0.6715728752538098  13 1.5  L 18.25 1.5  C 19.07842712474619 1.5  19.75 2.1715728752538097  19.75 3  Z M 15.823 6  L 4.1770000000000005 6  L 4 6.088499999999999  L 4 19.5  C 4 20.32842712474619  4.67157287525381 21  5.5 21  L 14.5 21  C 15.328427124746192 21  16 20.32842712474619  16 19.5  L 16 6.088499999999999  L 15.823 6  Z M 1.75 3  L 1.75 4.5  L 18.25 4.5  L 18.25 3  L 1.75 3  Z " fill-rule="evenodd" />
    </mask>
  </defs>
  <g>
    <path d="M 19.75 3  L 19.75 4.5  C 19.75 5.32842712474619  19.07842712474619 6  18.25 6  L 17.5 6  L 17.5 19.5  C 17.5 21.15685424949238  16.15685424949238 22.5  14.5 22.5  L 5.5 22.5  C 3.8431457505076194 22.5  2.5 21.15685424949238  2.5 19.5  L 2.5 6  L 1.75 6  C 0.9215728752538097 6  0.25 5.32842712474619  0.25 4.5  L 0.25 3  C 0.25 2.1715728752538097  0.9215728752538097 1.5  1.75 1.5  L 7 1.5  C 7 0.6715728752538098  7.67157287525381 0  8.5 0  L 11.5 0  C 12.328427124746192 0  13 0.6715728752538098  13 1.5  L 18.25 1.5  C 19.07842712474619 1.5  19.75 2.1715728752538097  19.75 3  Z M 15.823 6  L 4.1770000000000005 6  L 4 6.088499999999999  L 4 19.5  C 4 20.32842712474619  4.67157287525381 21  5.5 21  L 14.5 21  C 15.328427124746192 21  16 20.32842712474619  16 19.5  L 16 6.088499999999999  L 15.823 6  Z M 1.75 3  L 1.75 4.5  L 18.25 4.5  L 18.25 3  L 1.75 3  Z " fill-rule="nonzero" fill="rgba(0, 0, 0, 1)" stroke="none" class="fill" />
    <path d="M 19.75 3  L 19.75 4.5  C 19.75 5.32842712474619  19.07842712474619 6  18.25 6  L 17.5 6  L 17.5 19.5  C 17.5 21.15685424949238  16.15685424949238 22.5  14.5 22.5  L 5.5 22.5  C 3.8431457505076194 22.5  2.5 21.15685424949238  2.5 19.5  L 2.5 6  L 1.75 6  C 0.9215728752538097 6  0.25 5.32842712474619  0.25 4.5  L 0.25 3  C 0.25 2.1715728752538097  0.9215728752538097 1.5  1.75 1.5  L 7 1.5  C 7 0.6715728752538098  7.67157287525381 0  8.5 0  L 11.5 0  C 12.328427124746192 0  13 0.6715728752538098  13 1.5  L 18.25 1.5  C 19.07842712474619 1.5  19.75 2.1715728752538097  19.75 3  Z " stroke-width="0" stroke-dasharray="0" stroke="rgba(255, 255, 255, 0)" fill="none" class="stroke" mask="url(#Clip6450)" />
    <path d="M 15.823 6  L 4.1770000000000005 6  L 4 6.088499999999999  L 4 19.5  C 4 20.32842712474619  4.67157287525381 21  5.5 21  L 14.5 21  C 15.328427124746192 21  16 20.32842712474619  16 19.5  L 16 6.088499999999999  L 15.823 6  Z " stroke-width="0" stroke-dasharray="0" stroke="rgba(255, 255, 255, 0)" fill="none" class="stroke" mask="url(#Clip6450)" />
    <path d="M 1.75 3  L 1.75 4.5  L 18.25 4.5  L 18.25 3  L 1.75 3  Z " stroke-width="0" stroke-dasharray="0" stroke="rgba(255, 255, 255, 0)" fill="none" class="stroke" mask="url(#Clip6450)" />
  </g>
</svg>