<?xml version="1.0" encoding="utf-8"?>
<svg version="1.1" xmlns:xlink="http://www.w3.org/1999/xlink" width="6px" height="7px" xmlns="http://www.w3.org/2000/svg">
  <defs>
    <pattern id="BGPattern" patternUnits="userSpaceOnUse" alignment="0 0" imageRepeat="None" />
    <mask fill="white" id="Clip5341">
      <path d="M 2.1705000000000005 6.336  L 0.8294999999999995 5.664  C 2.0595 3.2025000000000006  3.4049999999999994 1.5344999999999995  3.9689999999999994 0.9689999999999994  L 5.031000000000001 2.0310000000000006  C 4.596 2.466000000000001  3.3390000000000004 3.9975000000000005  2.1705000000000005 6.336  Z " fill-rule="evenodd" />
    </mask>
  </defs>
  <g transform="matrix(1 0 0 1 -3 -6 )">
    <path d="M 2.1705000000000005 6.336  L 0.8294999999999995 5.664  C 2.0595 3.2025000000000006  3.4049999999999994 1.5344999999999995  3.9689999999999994 0.9689999999999994  L 5.031000000000001 2.0310000000000006  C 4.596 2.466000000000001  3.3390000000000004 3.9975000000000005  2.1705000000000005 6.336  Z " fill-rule="nonzero" fill="rgba(0, 0, 0, 1)" stroke="none" transform="matrix(1 0 0 1 3 6 )" class="fill" />
    <path d="M 2.1705000000000005 6.336  L 0.8294999999999995 5.664  C 2.0595 3.2025000000000006  3.4049999999999994 1.5344999999999995  3.9689999999999994 0.9689999999999994  L 5.031000000000001 2.0310000000000006  C 4.596 2.466000000000001  3.3390000000000004 3.9975000000000005  2.1705000000000005 6.336  Z " stroke-width="0" stroke-dasharray="0" stroke="rgba(255, 255, 255, 0)" fill="none" transform="matrix(1 0 0 1 3 6 )" class="stroke" mask="url(#Clip5341)" />
  </g>
</svg>