<?xml version="1.0" encoding="utf-8"?>
<svg version="1.1" xmlns:xlink="http://www.w3.org/1999/xlink" width="50px" height="50px" xmlns="http://www.w3.org/2000/svg">
  <defs>
    <pattern id="BGPattern" patternUnits="userSpaceOnUse" alignment="0 0" imageRepeat="None" />
    <mask fill="white" id="Clip1558">
      <path d="M 48.98927875243663 25.567251461988295  C 50.2066276803119 24.348927875243646  50.2066276803119 22.374269005847964  48.98927875243663 21.15594541910332  L 28.746588693957108 0.9132553606237934  C 28.137426900584785 0.30409356725147063  27.339181286549717 0  26.54093567251462 0  C 25.74269005847952 0  24.944444444444457 0.30409356725147063  24.336257309941516 0.9132553606237934  L 16.384990253411303 8.864522417153978  L 7.985380116959079 0.4649122807017534  C 7.377192982456136 -0.1442495126705694  6.388888888888886 -0.1442495126705694  5.780701754385973 0.4649122807017534  L 3.576023391812868 2.6686159844054487  C 2.967836257309955 3.277777777777771  2.967836257309955 4.265107212475641  3.576023391812868 4.874269005847964  L 11.976608187134502 13.273879142300189  L 2.7407407407407334 22.50974658869393  C -0.9132553606237934 26.163742690058484  -0.9132553606237934 32.08674463937621  2.7407407407407334 35.74074074074076  L 14.162768031189074 47.1627680311891  C 15.990253411306043 48.98927875243663  18.38401559454192 49.90350877192981  20.77777777777777 49.90350877192981  C 23.17251461988303 49.90350877192981  25.56627680311891 48.99025341130607  27.393762183235882 47.1627680311891  L 48.98927875243663 25.567251461988295  Z M 42.374269005847964 23.361598440545833  L 37.66179337231969 28  L 6.425925925925924 28  C 6.558479532163744 27.698830409356727  6.773879142300189 27.295321637426923  7.150097465886944 26.920077972709578  L 8.431773879142298 25.63840155945422  L 16.385964912280713 17.68421052631578  L 22.098440545808955 23.39571150097464  C 23.31578947368422 24.613060428849906  25.29044834307993 24.613060428849906  26.507797270955162 23.39571150097464  C 27.7251461988304 22.178362573099434  27.7251461988304 20.203703703703695  26.507797270955162 18.98635477582843  L 20.795321637426895 13.27485380116957  L 26.54093567251462 7.529239766081844  L 42.374269005847964 23.361598440545833  Z " fill-rule="evenodd" />
    </mask>
  </defs>
  <g>
    <path d="M 48.98927875243663 25.567251461988295  C 50.2066276803119 24.348927875243646  50.2066276803119 22.374269005847964  48.98927875243663 21.15594541910332  L 28.746588693957108 0.9132553606237934  C 28.137426900584785 0.30409356725147063  27.339181286549717 0  26.54093567251462 0  C 25.74269005847952 0  24.944444444444457 0.30409356725147063  24.336257309941516 0.9132553606237934  L 16.384990253411303 8.864522417153978  L 7.985380116959079 0.4649122807017534  C 7.377192982456136 -0.1442495126705694  6.388888888888886 -0.1442495126705694  5.780701754385973 0.4649122807017534  L 3.576023391812868 2.6686159844054487  C 2.967836257309955 3.277777777777771  2.967836257309955 4.265107212475641  3.576023391812868 4.874269005847964  L 11.976608187134502 13.273879142300189  L 2.7407407407407334 22.50974658869393  C -0.9132553606237934 26.163742690058484  -0.9132553606237934 32.08674463937621  2.7407407407407334 35.74074074074076  L 14.162768031189074 47.1627680311891  C 15.990253411306043 48.98927875243663  18.38401559454192 49.90350877192981  20.77777777777777 49.90350877192981  C 23.17251461988303 49.90350877192981  25.56627680311891 48.99025341130607  27.393762183235882 47.1627680311891  L 48.98927875243663 25.567251461988295  Z M 42.374269005847964 23.361598440545833  L 37.66179337231969 28  L 6.425925925925924 28  C 6.558479532163744 27.698830409356727  6.773879142300189 27.295321637426923  7.150097465886944 26.920077972709578  L 8.431773879142298 25.63840155945422  L 16.385964912280713 17.68421052631578  L 22.098440545808955 23.39571150097464  C 23.31578947368422 24.613060428849906  25.29044834307993 24.613060428849906  26.507797270955162 23.39571150097464  C 27.7251461988304 22.178362573099434  27.7251461988304 20.203703703703695  26.507797270955162 18.98635477582843  L 20.795321637426895 13.27485380116957  L 26.54093567251462 7.529239766081844  L 42.374269005847964 23.361598440545833  Z " fill-rule="nonzero" fill="rgba(0, 0, 0, 1)" stroke="none" class="fill" />
    <path d="M 48.98927875243663 25.567251461988295  C 50.2066276803119 24.348927875243646  50.2066276803119 22.374269005847964  48.98927875243663 21.15594541910332  L 28.746588693957108 0.9132553606237934  C 28.137426900584785 0.30409356725147063  27.339181286549717 0  26.54093567251462 0  C 25.74269005847952 0  24.944444444444457 0.30409356725147063  24.336257309941516 0.9132553606237934  L 16.384990253411303 8.864522417153978  L 7.985380116959079 0.4649122807017534  C 7.377192982456136 -0.1442495126705694  6.388888888888886 -0.1442495126705694  5.780701754385973 0.4649122807017534  L 3.576023391812868 2.6686159844054487  C 2.967836257309955 3.277777777777771  2.967836257309955 4.265107212475641  3.576023391812868 4.874269005847964  L 11.976608187134502 13.273879142300189  L 2.7407407407407334 22.50974658869393  C -0.9132553606237934 26.163742690058484  -0.9132553606237934 32.08674463937621  2.7407407407407334 35.74074074074076  L 14.162768031189074 47.1627680311891  C 15.990253411306043 48.98927875243663  18.38401559454192 49.90350877192981  20.77777777777777 49.90350877192981  C 23.17251461988303 49.90350877192981  25.56627680311891 48.99025341130607  27.393762183235882 47.1627680311891  L 48.98927875243663 25.567251461988295  Z " stroke-width="0" stroke-dasharray="0" stroke="rgba(255, 255, 255, 0)" fill="none" class="stroke" mask="url(#Clip1558)" />
    <path d="M 42.374269005847964 23.361598440545833  L 37.66179337231969 28  L 6.425925925925924 28  C 6.558479532163744 27.698830409356727  6.773879142300189 27.295321637426923  7.150097465886944 26.920077972709578  L 8.431773879142298 25.63840155945422  L 16.385964912280713 17.68421052631578  L 22.098440545808955 23.39571150097464  C 23.31578947368422 24.613060428849906  25.29044834307993 24.613060428849906  26.507797270955162 23.39571150097464  C 27.7251461988304 22.178362573099434  27.7251461988304 20.203703703703695  26.507797270955162 18.98635477582843  L 20.795321637426895 13.27485380116957  L 26.54093567251462 7.529239766081844  L 42.374269005847964 23.361598440545833  Z " stroke-width="0" stroke-dasharray="0" stroke="rgba(255, 255, 255, 0)" fill="none" class="stroke" mask="url(#Clip1558)" />
  </g>
</svg>