<?xml version="1.0" encoding="utf-8"?>
<svg version="1.1" xmlns:xlink="http://www.w3.org/1999/xlink" width="13px" height="13px" xmlns="http://www.w3.org/2000/svg">
  <defs>
    <pattern id="BGPattern" patternUnits="userSpaceOnUse" alignment="0 0" imageRepeat="None" />
    <mask fill="white" id="Clip4033">
      <path d="M 4 0  L 4 2  L 9.59 2  L 0 11.58  L 1.4100000000000001 13  L 11 3.4099999999999997  L 11 9  L 13 9  L 13 0  L 4 0  Z " fill-rule="evenodd" />
    </mask>
  </defs>
  <g transform="matrix(1 0 0 1 -17 -2 )">
    <path d="M 4 0  L 4 2  L 9.59 2  L 0 11.58  L 1.4100000000000001 13  L 11 3.4099999999999997  L 11 9  L 13 9  L 13 0  L 4 0  Z " fill-rule="nonzero" fill="rgba(0, 0, 0, 1)" stroke="none" transform="matrix(1 0 0 1 17 2 )" class="fill" />
    <path d="M 4 0  L 4 2  L 9.59 2  L 0 11.58  L 1.4100000000000001 13  L 11 3.4099999999999997  L 11 9  L 13 9  L 13 0  L 4 0  Z " stroke-width="0" stroke-dasharray="0" stroke="rgba(255, 255, 255, 0)" fill="none" transform="matrix(1 0 0 1 17 2 )" class="stroke" mask="url(#Clip4033)" />
  </g>
</svg>