<?xml version="1.0" encoding="utf-8"?>
<svg version="1.1" xmlns:xlink="http://www.w3.org/1999/xlink" width="15px" height="30px" xmlns="http://www.w3.org/2000/svg">
  <defs>
    <pattern id="BGPattern" patternUnits="userSpaceOnUse" alignment="0 0" imageRepeat="None" />
    <mask fill="white" id="Clip4008">
      <path d="M 7.5 15  L 14.829999999999998 1.88  C 14.934914300955427 1.686648265444179  14.934914300955427 1.4533517345558198  14.829999999999998 1.2599999999999998  C 14.709827119512735 1.087925708274371  14.509631420968486 0.9897164976677544  14.3 1  L 10.219999999999995 1  C 9.737073091361061 1.013639795861358  9.310320178810343 1.3178988168465926  9.14 1.77  C 9.14 1.77  0.4400000000000013 17.2  0.14000000000000057 17.7  L 5.880000000000006 28.230000000000004  C 6.071028827239978 28.6832812338188  6.508371655221186 28.98395442805588  7 29  L 11.000000000000004 29.000000000000004  C 11.213894462871199 29.018016541594807  11.420697898654435 28.91844451695843  11.540000000000003 28.740000000000002  C 11.650752332871534 28.548171332409726  11.650752332871534 28.311828667590273  11.54 28.119999999999997  L 7.5 15  Z " fill-rule="evenodd" />
    </mask>
  </defs>
  <g transform="matrix(1 0 0 1 -13 -1 )">
    <path d="M 7.5 15  L 14.829999999999998 1.88  C 14.934914300955427 1.686648265444179  14.934914300955427 1.4533517345558198  14.829999999999998 1.2599999999999998  C 14.709827119512735 1.087925708274371  14.509631420968486 0.9897164976677544  14.3 1  L 10.219999999999995 1  C 9.737073091361061 1.013639795861358  9.310320178810343 1.3178988168465926  9.14 1.77  C 9.14 1.77  0.4400000000000013 17.2  0.14000000000000057 17.7  L 5.880000000000006 28.230000000000004  C 6.071028827239978 28.6832812338188  6.508371655221186 28.98395442805588  7 29  L 11.000000000000004 29.000000000000004  C 11.213894462871199 29.018016541594807  11.420697898654435 28.91844451695843  11.540000000000003 28.740000000000002  C 11.650752332871534 28.548171332409726  11.650752332871534 28.311828667590273  11.54 28.119999999999997  L 7.5 15  Z " fill-rule="nonzero" fill="rgba(0, 0, 0, 1)" stroke="none" transform="matrix(1 0 0 1 13 1 )" class="fill" />
    <path d="M 7.5 15  L 14.829999999999998 1.88  C 14.934914300955427 1.686648265444179  14.934914300955427 1.4533517345558198  14.829999999999998 1.2599999999999998  C 14.709827119512735 1.087925708274371  14.509631420968486 0.9897164976677544  14.3 1  L 10.219999999999995 1  C 9.737073091361061 1.013639795861358  9.310320178810343 1.3178988168465926  9.14 1.77  C 9.14 1.77  0.4400000000000013 17.2  0.14000000000000057 17.7  L 5.880000000000006 28.230000000000004  C 6.071028827239978 28.6832812338188  6.508371655221186 28.98395442805588  7 29  L 11.000000000000004 29.000000000000004  C 11.213894462871199 29.018016541594807  11.420697898654435 28.91844451695843  11.540000000000003 28.740000000000002  C 11.650752332871534 28.548171332409726  11.650752332871534 28.311828667590273  11.54 28.119999999999997  L 7.5 15  Z " stroke-width="0" stroke-dasharray="0" stroke="rgba(255, 255, 255, 0)" fill="none" transform="matrix(1 0 0 1 13 1 )" class="stroke" mask="url(#Clip4008)" />
  </g>
</svg>