<?xml version="1.0" encoding="utf-8"?>
<svg version="1.1" xmlns:xlink="http://www.w3.org/1999/xlink" width="17px" height="28px" xmlns="http://www.w3.org/2000/svg">
  <defs>
    <pattern id="BGPattern" patternUnits="userSpaceOnUse" alignment="0 0" imageRepeat="None" />
    <mask fill="white" id="Clip4476">
      <path d="M 17 27  C 17 27.552284749830793  16.552284749830793 28  16 28  C 15.732754103981726 27.99889057556014  15.477071436378637 27.890855645587003  15.29 27.7  L 7.67 20  L 1 20  C 0.44771525016920677 20  0 19.552284749830793  0 19  L 0 9  C 0 8.447715250169207  0.44771525016920677 8  1 8  L 7.67 8  L 15.29 0.2999999999999998  C 15.68003745431092 -0.08772359471079727  16.30996254568908 -0.08772359471079927  16.7 0.2999999999999998  C 16.888414263716896 0.484630460103602  16.99624295214353 0.736230733099072  17 1  L 17 27  Z M 2 10  L 2 18  L 8 18.000000000000004  C 8.291511676825845 17.99808949373319  8.57323651222208 18.105073608440616  8.79 18.3  L 15 24.57  L 15 3.4299999999999997  L 8.79 9.7  C 8.57323651222208 9.894926391559386  8.291511676825845 10.001910506266816  8 10  L 2 10  Z " fill-rule="evenodd" />
    </mask>
  </defs>
  <g transform="matrix(1 0 0 1 -4 -2 )">
    <path d="M 17 27  C 17 27.552284749830793  16.552284749830793 28  16 28  C 15.732754103981726 27.99889057556014  15.477071436378637 27.890855645587003  15.29 27.7  L 7.67 20  L 1 20  C 0.44771525016920677 20  0 19.552284749830793  0 19  L 0 9  C 0 8.447715250169207  0.44771525016920677 8  1 8  L 7.67 8  L 15.29 0.2999999999999998  C 15.68003745431092 -0.08772359471079727  16.30996254568908 -0.08772359471079927  16.7 0.2999999999999998  C 16.888414263716896 0.484630460103602  16.99624295214353 0.736230733099072  17 1  L 17 27  Z M 2 10  L 2 18  L 8 18.000000000000004  C 8.291511676825845 17.99808949373319  8.57323651222208 18.105073608440616  8.79 18.3  L 15 24.57  L 15 3.4299999999999997  L 8.79 9.7  C 8.57323651222208 9.894926391559386  8.291511676825845 10.001910506266816  8 10  L 2 10  Z " fill-rule="nonzero" fill="rgba(0, 0, 0, 1)" stroke="none" transform="matrix(1 0 0 1 4 2 )" class="fill" />
    <path d="M 17 27  C 17 27.552284749830793  16.552284749830793 28  16 28  C 15.732754103981726 27.99889057556014  15.477071436378637 27.890855645587003  15.29 27.7  L 7.67 20  L 1 20  C 0.44771525016920677 20  0 19.552284749830793  0 19  L 0 9  C 0 8.447715250169207  0.44771525016920677 8  1 8  L 7.67 8  L 15.29 0.2999999999999998  C 15.68003745431092 -0.08772359471079727  16.30996254568908 -0.08772359471079927  16.7 0.2999999999999998  C 16.888414263716896 0.484630460103602  16.99624295214353 0.736230733099072  17 1  L 17 27  Z " stroke-width="0" stroke-dasharray="0" stroke="rgba(255, 255, 255, 0)" fill="none" transform="matrix(1 0 0 1 4 2 )" class="stroke" mask="url(#Clip4476)" />
    <path d="M 2 10  L 2 18  L 8 18.000000000000004  C 8.291511676825845 17.99808949373319  8.57323651222208 18.105073608440616  8.79 18.3  L 15 24.57  L 15 3.4299999999999997  L 8.79 9.7  C 8.57323651222208 9.894926391559386  8.291511676825845 10.001910506266816  8 10  L 2 10  Z " stroke-width="0" stroke-dasharray="0" stroke="rgba(255, 255, 255, 0)" fill="none" transform="matrix(1 0 0 1 4 2 )" class="stroke" mask="url(#Clip4476)" />
  </g>
</svg>