<?xml version="1.0" encoding="utf-8"?>
<svg version="1.1" xmlns:xlink="http://www.w3.org/1999/xlink" width="50px" height="31px" xmlns="http://www.w3.org/2000/svg">
  <defs>
    <pattern id="BGPattern" patternUnits="userSpaceOnUse" alignment="0 0" imageRepeat="None" />
    <mask fill="white" id="Clip661">
      <path d="M 14.129283489096563 5.507788161993801  L 14.128504672897208 10.904205607476626  C 14.072429906542055 12.668224299065457  14.95404984423675 13.449376947040491  14.975856697819323 13.94548286604362  C 14.95479127687949 14.15036586068635  14.83578833924426 14.332353279947995  14.656542056074755 14.433800623052946  L 13.65965732087227 15.131619937694722  C 13.530648762722933 15.222059298067961  13.378569370590327 15.273922962880476  13.221183800623065 15.281152647975091  C 13.187694704049846 15.27959501557632  12.583333333333343 15.423676012461101  11.626168224299079 13.286604361370735  C 10.442736885784512 14.76382681733736  8.642557530759234 15.61058104198986  6.75 15.580218068535828  C 5.4820872274143255 15.649532710280367  2.0459501557632507 14.860591900311533  2.2227414330218096 11.202492211838035  C 2.09890965732086 8.221183800623066  4.875389408099693 6.369158878504663  7.746884735202484 6.525700934579447  C 8.299844236760123 6.527258566978219  9.429127725856688 6.554517133956381  11.406542056074755 7.014018691588774  L 11.406542056074755 5.797507788162022  C 11.616043613707177 3.736760124610612  10.261682242990645 2.137850467289695  7.916666666666656 2.3777258566978503  C 7.7297507788161965 2.3785046728971793  6.405763239875398 2.338785046728958  4.346573208722731 3.165109034267914  C 3.7733644859813182 3.428348909657302  3.700155763239877 3.384735202492209  3.5093457943925164 3.384735202492209  C 2.9322429906542027 3.384735202492209  3.169781931464172 1.7118380062305505  3.2803738317757047 1.5  C 3.6861370716511037 1.0015576323987716  6.073208722741441 0.0708722741433121  8.4158878504673 0.08411214953270019  C 9.982280425087197 -0.05441800516763351  11.540274223179466 0.42901048883550175  12.753115264797515 1.4299065420560737  C 13.749379572358523 2.544285912367002  14.246584997032185 4.017612230188888  14.129283489096563 5.507788161993801  Z M 5.0646417445482825 11.052959501557666  C 4.968068535825552 12.360591900311533  5.9306853582554595 13.498442367601285  7.397975077881626 13.426791277258587  C 9.923676012461044 13.390186915887853  10.992990654205613 11.87149532710282  11.236760124610583 11.053738317756995  C 11.42834890965733 10.27102803738319  11.396417445482882 9.775700934579447  11.396417445482882 8.919781931464172  C 10.643302180685367 8.739096573208712  9.559190031152639 8.542056074766379  8.315420560747668 8.540498442367607  C 7.1355140186915955 8.451713395638649  4.980529595015582 8.97897196261681  5.0646417445482825 11.052959501557666  Z M 20.709501557632393 15.221962616822452  C 20.097352024922117 15.278037383177605  19.812305295950154 14.843457943925273  19.721962616822424 14.414330218068528  L 15.843457943925216 1.5911214953271156  C 15.767912772585674 1.374610591900307  15.718068535825552 1.1510903426791401  15.693925233644848 0.9228971962616583  C 15.664134459615612 0.7269991463822976  15.798679840294227 0.5440034861329082  15.994548286604356 0.5140186915887739  C 16.013239875389417 0.5109034267912875  15.828660436137056 0.5140186915887739  17.727414330218068 0.5140186915887739  C 18.411214953271042 0.4454828660436192  18.633956386292823 0.9836448598130687  18.704828660436135 1.321651090342698  L 21.486760124610583 12.289719626168221  L 24.06931464174454 1.321651090342698  C 24.110591900311533 1.070872274143312  24.29828660436135 0.4595015576323931  25.06619937694705 0.5241433021806756  L 26.40264797507788 0.5241433021806756  C 26.57165109034267 0.5101246105919017  27.267912772585674 0.48520249221184025  27.390186915887853 1.3317757009345996  L 29.992990654205613 12.440031152647975  L 32.864485981308405 1.3317757009345996  C 32.9018691588785 1.1619937694704277  33.076323987538956 0.446261682243005  33.852024922118375 0.5241433021806756  L 35.387850467289724 0.5241433021806756  C 35.45404984423675 0.5140186915887739  35.866822429906534 0.4610591900311647  35.79672897196261 1.1923676012461328  C 35.76323987538942 1.3364485981308576  36.06230529595015 0.3621495327103048  31.688473520249232 14.42445482866043  C 31.59890965732086 14.853582554517118  31.313084112149543 15.288161993769506  30.700934579439267 15.232087227414354  L 29.245327102803742 15.232087227414354  C 28.393302180685364 15.321651090342698  28.27102803738319 14.479750778816197  28.257788161993773 14.39485981308411  L 25.67523364485982 3.714953271028037  L 23.122274143302178 14.383956386292823  C 23.109813084112147 14.468847352024909  22.98753894080997 15.31074766355141  22.13473520249221 15.221183800623066  L 20.709501557632393 15.221183800623066  Z M 47.40264797507788 12.979750778816197  C 45.916666666666686 15.899532710280367  42.07398753894083 15.661993769470428  42.00856697819313 15.660436137071658  C 41.55062305295951 15.66121495327104  39.366822429906534 15.637071651090366  37.541277258566964 14.70327102803742  C 37.16937634609033 14.545807242411797  36.92919974446414 14.17954561304333  36.93302180685356 13.775700934579447  L 36.93302180685356 12.938473520249204  C 36.93302180685356 12.280373831775705  37.4158878504673 12.40109034267914  37.620716510903435 12.479750778816197  C 38.40264797507788 12.79595015576325  38.90420560747663 13.035825545171349  39.864485981308405 13.227414330218096  C 42.71884735202491 13.813862928348897  43.97429906542055 13.048286604361408  44.28193146417445 12.878504672897236  C 45.306074766355124 12.270249221183803  45.38707165109034 10.87850467289718  44.69080996884736 10.156542056074784  C 43.87461059190031 9.471962616822452  43.48520249221184 9.446261682243005  40.55295950155764 8.52102803738319  C 40.19158878504672 8.420560747663558  37.14953271028037 7.461059190031165  37.14252336448598 4.443146417445462  C 37.09501557632399 2.2437694704049704  39.093457943925216 0.06775700934576889  42.55685358255451 0.08566978193147179  C 43.54361370716509 0.08489096573208599  46.17289719626166 0.4073208722741697  46.88473520249221 1.3021806853582802  C 46.9898753894081 1.4649532710280369  47.04205607476635 1.6565420560747839  47.03426791277258 1.8504672897196315  L 47.03426791277258 2.637850467289752  C 47.03426791277258 2.9836448598130687  46.9080996884735 3.156542056074784  46.65498442367601 3.156542056074784  C 46.05451713395638 3.089563862928344  44.98909657320871 2.2866043613707348  42.826323987538956 2.3193146417445405  C 42.28971962616822 2.2912772585669927  39.719626168224295 2.3901869158878526  39.834890965732086 4.264018691588774  C 39.801401869158894 5.740654205607484  41.90732087227414 6.294392523364479  42.147975077881625 6.358255451713376  C 44.98753894080997 7.212616822429936  45.93691588785049 7.354361370716504  47.063862928348925 8.661993769470428  C 48.39875389408101 10.39485981308411  47.67912772585669 12.423676012461101  47.40264797507788 12.979750778816197  Z M 44.35124610591902 22.551401869158894  C 45.26869158878503 22.161993769470428  46.04672897196264 23.15887850467294  45.13940809968847 23.82710280373834  C 39.68535825545172 27.85514018691589  31.767912772585678 29.99922118380067  25.007788161993773 29.99922118380067  C 15.886333627436814 30.059373729735228  7.0722805334004875 26.70538302767386  0.29828660436137966 20.59657320872276  C -0.21028037383177886 20.137850467289752  0.23831775700935506 19.509345794392516  0.8566978193146326 19.85903426791276  C 8.371069250473596 24.15744456876621  16.87891624988282 26.41596542710471  25.53582554517135 26.410436137071656  C 32.000572520441494 26.3757675816463  38.39478642507666 25.064317194731814  44.35124610591902 22.551401869158894  Z M 45.977414330218096 27.46651090342681  C 46.63473520249224 25.811526479750796  48.11059190031153 22.13239875389411  47.412772585669785 21.234423676012455  C 46.71495327102804 20.337227414330243  42.79595015576325 20.81542056074767  41.04127725856699 21.02492211838006  C 40.51246105919003 21.084890965732086  40.42289719626169 20.62616822429908  40.901869158878526 20.28738317757012  C 44.02258566978193 18.093457943925273  49.147975077881625 18.721962616822452  49.73676012461061 19.459501557632393  C 50.324766355140184 20.19704049844239  49.57710280373834 25.332554517133985  46.6557632398754 27.78582554517135  C 46.20716510903429 28.165109034267914  45.778037383177576 27.964953271028037  45.977414330218096 27.46651090342681  Z " fill-rule="evenodd" />
    </mask>
  </defs>
  <g>
    <path d="M 14.129283489096563 5.507788161993801  L 14.128504672897208 10.904205607476626  C 14.072429906542055 12.668224299065457  14.95404984423675 13.449376947040491  14.975856697819323 13.94548286604362  C 14.95479127687949 14.15036586068635  14.83578833924426 14.332353279947995  14.656542056074755 14.433800623052946  L 13.65965732087227 15.131619937694722  C 13.530648762722933 15.222059298067961  13.378569370590327 15.273922962880476  13.221183800623065 15.281152647975091  C 13.187694704049846 15.27959501557632  12.583333333333343 15.423676012461101  11.626168224299079 13.286604361370735  C 10.442736885784512 14.76382681733736  8.642557530759234 15.61058104198986  6.75 15.580218068535828  C 5.4820872274143255 15.649532710280367  2.0459501557632507 14.860591900311533  2.2227414330218096 11.202492211838035  C 2.09890965732086 8.221183800623066  4.875389408099693 6.369158878504663  7.746884735202484 6.525700934579447  C 8.299844236760123 6.527258566978219  9.429127725856688 6.554517133956381  11.406542056074755 7.014018691588774  L 11.406542056074755 5.797507788162022  C 11.616043613707177 3.736760124610612  10.261682242990645 2.137850467289695  7.916666666666656 2.3777258566978503  C 7.7297507788161965 2.3785046728971793  6.405763239875398 2.338785046728958  4.346573208722731 3.165109034267914  C 3.7733644859813182 3.428348909657302  3.700155763239877 3.384735202492209  3.5093457943925164 3.384735202492209  C 2.9322429906542027 3.384735202492209  3.169781931464172 1.7118380062305505  3.2803738317757047 1.5  C 3.6861370716511037 1.0015576323987716  6.073208722741441 0.0708722741433121  8.4158878504673 0.08411214953270019  C 9.982280425087197 -0.05441800516763351  11.540274223179466 0.42901048883550175  12.753115264797515 1.4299065420560737  C 13.749379572358523 2.544285912367002  14.246584997032185 4.017612230188888  14.129283489096563 5.507788161993801  Z M 5.0646417445482825 11.052959501557666  C 4.968068535825552 12.360591900311533  5.9306853582554595 13.498442367601285  7.397975077881626 13.426791277258587  C 9.923676012461044 13.390186915887853  10.992990654205613 11.87149532710282  11.236760124610583 11.053738317756995  C 11.42834890965733 10.27102803738319  11.396417445482882 9.775700934579447  11.396417445482882 8.919781931464172  C 10.643302180685367 8.739096573208712  9.559190031152639 8.542056074766379  8.315420560747668 8.540498442367607  C 7.1355140186915955 8.451713395638649  4.980529595015582 8.97897196261681  5.0646417445482825 11.052959501557666  Z M 20.709501557632393 15.221962616822452  C 20.097352024922117 15.278037383177605  19.812305295950154 14.843457943925273  19.721962616822424 14.414330218068528  L 15.843457943925216 1.5911214953271156  C 15.767912772585674 1.374610591900307  15.718068535825552 1.1510903426791401  15.693925233644848 0.9228971962616583  C 15.664134459615612 0.7269991463822976  15.798679840294227 0.5440034861329082  15.994548286604356 0.5140186915887739  C 16.013239875389417 0.5109034267912875  15.828660436137056 0.5140186915887739  17.727414330218068 0.5140186915887739  C 18.411214953271042 0.4454828660436192  18.633956386292823 0.9836448598130687  18.704828660436135 1.321651090342698  L 21.486760124610583 12.289719626168221  L 24.06931464174454 1.321651090342698  C 24.110591900311533 1.070872274143312  24.29828660436135 0.4595015576323931  25.06619937694705 0.5241433021806756  L 26.40264797507788 0.5241433021806756  C 26.57165109034267 0.5101246105919017  27.267912772585674 0.48520249221184025  27.390186915887853 1.3317757009345996  L 29.992990654205613 12.440031152647975  L 32.864485981308405 1.3317757009345996  C 32.9018691588785 1.1619937694704277  33.076323987538956 0.446261682243005  33.852024922118375 0.5241433021806756  L 35.387850467289724 0.5241433021806756  C 35.45404984423675 0.5140186915887739  35.866822429906534 0.4610591900311647  35.79672897196261 1.1923676012461328  C 35.76323987538942 1.3364485981308576  36.06230529595015 0.3621495327103048  31.688473520249232 14.42445482866043  C 31.59890965732086 14.853582554517118  31.313084112149543 15.288161993769506  30.700934579439267 15.232087227414354  L 29.245327102803742 15.232087227414354  C 28.393302180685364 15.321651090342698  28.27102803738319 14.479750778816197  28.257788161993773 14.39485981308411  L 25.67523364485982 3.714953271028037  L 23.122274143302178 14.383956386292823  C 23.109813084112147 14.468847352024909  22.98753894080997 15.31074766355141  22.13473520249221 15.221183800623066  L 20.709501557632393 15.221183800623066  Z M 47.40264797507788 12.979750778816197  C 45.916666666666686 15.899532710280367  42.07398753894083 15.661993769470428  42.00856697819313 15.660436137071658  C 41.55062305295951 15.66121495327104  39.366822429906534 15.637071651090366  37.541277258566964 14.70327102803742  C 37.16937634609033 14.545807242411797  36.92919974446414 14.17954561304333  36.93302180685356 13.775700934579447  L 36.93302180685356 12.938473520249204  C 36.93302180685356 12.280373831775705  37.4158878504673 12.40109034267914  37.620716510903435 12.479750778816197  C 38.40264797507788 12.79595015576325  38.90420560747663 13.035825545171349  39.864485981308405 13.227414330218096  C 42.71884735202491 13.813862928348897  43.97429906542055 13.048286604361408  44.28193146417445 12.878504672897236  C 45.306074766355124 12.270249221183803  45.38707165109034 10.87850467289718  44.69080996884736 10.156542056074784  C 43.87461059190031 9.471962616822452  43.48520249221184 9.446261682243005  40.55295950155764 8.52102803738319  C 40.19158878504672 8.420560747663558  37.14953271028037 7.461059190031165  37.14252336448598 4.443146417445462  C 37.09501557632399 2.2437694704049704  39.093457943925216 0.06775700934576889  42.55685358255451 0.08566978193147179  C 43.54361370716509 0.08489096573208599  46.17289719626166 0.4073208722741697  46.88473520249221 1.3021806853582802  C 46.9898753894081 1.4649532710280369  47.04205607476635 1.6565420560747839  47.03426791277258 1.8504672897196315  L 47.03426791277258 2.637850467289752  C 47.03426791277258 2.9836448598130687  46.9080996884735 3.156542056074784  46.65498442367601 3.156542056074784  C 46.05451713395638 3.089563862928344  44.98909657320871 2.2866043613707348  42.826323987538956 2.3193146417445405  C 42.28971962616822 2.2912772585669927  39.719626168224295 2.3901869158878526  39.834890965732086 4.264018691588774  C 39.801401869158894 5.740654205607484  41.90732087227414 6.294392523364479  42.147975077881625 6.358255451713376  C 44.98753894080997 7.212616822429936  45.93691588785049 7.354361370716504  47.063862928348925 8.661993769470428  C 48.39875389408101 10.39485981308411  47.67912772585669 12.423676012461101  47.40264797507788 12.979750778816197  Z M 44.35124610591902 22.551401869158894  C 45.26869158878503 22.161993769470428  46.04672897196264 23.15887850467294  45.13940809968847 23.82710280373834  C 39.68535825545172 27.85514018691589  31.767912772585678 29.99922118380067  25.007788161993773 29.99922118380067  C 15.886333627436814 30.059373729735228  7.0722805334004875 26.70538302767386  0.29828660436137966 20.59657320872276  C -0.21028037383177886 20.137850467289752  0.23831775700935506 19.509345794392516  0.8566978193146326 19.85903426791276  C 8.371069250473596 24.15744456876621  16.87891624988282 26.41596542710471  25.53582554517135 26.410436137071656  C 32.000572520441494 26.3757675816463  38.39478642507666 25.064317194731814  44.35124610591902 22.551401869158894  Z M 45.977414330218096 27.46651090342681  C 46.63473520249224 25.811526479750796  48.11059190031153 22.13239875389411  47.412772585669785 21.234423676012455  C 46.71495327102804 20.337227414330243  42.79595015576325 20.81542056074767  41.04127725856699 21.02492211838006  C 40.51246105919003 21.084890965732086  40.42289719626169 20.62616822429908  40.901869158878526 20.28738317757012  C 44.02258566978193 18.093457943925273  49.147975077881625 18.721962616822452  49.73676012461061 19.459501557632393  C 50.324766355140184 20.19704049844239  49.57710280373834 25.332554517133985  46.6557632398754 27.78582554517135  C 46.20716510903429 28.165109034267914  45.778037383177576 27.964953271028037  45.977414330218096 27.46651090342681  Z " fill-rule="nonzero" fill="rgba(0, 0, 0, 1)" stroke="none" class="fill" />
    <path d="M 14.129283489096563 5.507788161993801  L 14.128504672897208 10.904205607476626  C 14.072429906542055 12.668224299065457  14.95404984423675 13.449376947040491  14.975856697819323 13.94548286604362  C 14.95479127687949 14.15036586068635  14.83578833924426 14.332353279947995  14.656542056074755 14.433800623052946  L 13.65965732087227 15.131619937694722  C 13.530648762722933 15.222059298067961  13.378569370590327 15.273922962880476  13.221183800623065 15.281152647975091  C 13.187694704049846 15.27959501557632  12.583333333333343 15.423676012461101  11.626168224299079 13.286604361370735  C 10.442736885784512 14.76382681733736  8.642557530759234 15.61058104198986  6.75 15.580218068535828  C 5.4820872274143255 15.649532710280367  2.0459501557632507 14.860591900311533  2.2227414330218096 11.202492211838035  C 2.09890965732086 8.221183800623066  4.875389408099693 6.369158878504663  7.746884735202484 6.525700934579447  C 8.299844236760123 6.527258566978219  9.429127725856688 6.554517133956381  11.406542056074755 7.014018691588774  L 11.406542056074755 5.797507788162022  C 11.616043613707177 3.736760124610612  10.261682242990645 2.137850467289695  7.916666666666656 2.3777258566978503  C 7.7297507788161965 2.3785046728971793  6.405763239875398 2.338785046728958  4.346573208722731 3.165109034267914  C 3.7733644859813182 3.428348909657302  3.700155763239877 3.384735202492209  3.5093457943925164 3.384735202492209  C 2.9322429906542027 3.384735202492209  3.169781931464172 1.7118380062305505  3.2803738317757047 1.5  C 3.6861370716511037 1.0015576323987716  6.073208722741441 0.0708722741433121  8.4158878504673 0.08411214953270019  C 9.982280425087197 -0.05441800516763351  11.540274223179466 0.42901048883550175  12.753115264797515 1.4299065420560737  C 13.749379572358523 2.544285912367002  14.246584997032185 4.017612230188888  14.129283489096563 5.507788161993801  Z " stroke-width="0" stroke-dasharray="0" stroke="rgba(255, 255, 255, 0)" fill="none" class="stroke" mask="url(#Clip661)" />
    <path d="M 5.0646417445482825 11.052959501557666  C 4.968068535825552 12.360591900311533  5.9306853582554595 13.498442367601285  7.397975077881626 13.426791277258587  C 9.923676012461044 13.390186915887853  10.992990654205613 11.87149532710282  11.236760124610583 11.053738317756995  C 11.42834890965733 10.27102803738319  11.396417445482882 9.775700934579447  11.396417445482882 8.919781931464172  C 10.643302180685367 8.739096573208712  9.559190031152639 8.542056074766379  8.315420560747668 8.540498442367607  C 7.1355140186915955 8.451713395638649  4.980529595015582 8.97897196261681  5.0646417445482825 11.052959501557666  Z " stroke-width="0" stroke-dasharray="0" stroke="rgba(255, 255, 255, 0)" fill="none" class="stroke" mask="url(#Clip661)" />
    <path d="M 20.709501557632393 15.221962616822452  C 20.097352024922117 15.278037383177605  19.812305295950154 14.843457943925273  19.721962616822424 14.414330218068528  L 15.843457943925216 1.5911214953271156  C 15.767912772585674 1.374610591900307  15.718068535825552 1.1510903426791401  15.693925233644848 0.9228971962616583  C 15.664134459615612 0.7269991463822976  15.798679840294227 0.5440034861329082  15.994548286604356 0.5140186915887739  C 16.013239875389417 0.5109034267912875  15.828660436137056 0.5140186915887739  17.727414330218068 0.5140186915887739  C 18.411214953271042 0.4454828660436192  18.633956386292823 0.9836448598130687  18.704828660436135 1.321651090342698  L 21.486760124610583 12.289719626168221  L 24.06931464174454 1.321651090342698  C 24.110591900311533 1.070872274143312  24.29828660436135 0.4595015576323931  25.06619937694705 0.5241433021806756  L 26.40264797507788 0.5241433021806756  C 26.57165109034267 0.5101246105919017  27.267912772585674 0.48520249221184025  27.390186915887853 1.3317757009345996  L 29.992990654205613 12.440031152647975  L 32.864485981308405 1.3317757009345996  C 32.9018691588785 1.1619937694704277  33.076323987538956 0.446261682243005  33.852024922118375 0.5241433021806756  L 35.387850467289724 0.5241433021806756  C 35.45404984423675 0.5140186915887739  35.866822429906534 0.4610591900311647  35.79672897196261 1.1923676012461328  C 35.76323987538942 1.3364485981308576  36.06230529595015 0.3621495327103048  31.688473520249232 14.42445482866043  C 31.59890965732086 14.853582554517118  31.313084112149543 15.288161993769506  30.700934579439267 15.232087227414354  L 29.245327102803742 15.232087227414354  C 28.393302180685364 15.321651090342698  28.27102803738319 14.479750778816197  28.257788161993773 14.39485981308411  L 25.67523364485982 3.714953271028037  L 23.122274143302178 14.383956386292823  C 23.109813084112147 14.468847352024909  22.98753894080997 15.31074766355141  22.13473520249221 15.221183800623066  L 20.709501557632393 15.221183800623066  Z " stroke-width="0" stroke-dasharray="0" stroke="rgba(255, 255, 255, 0)" fill="none" class="stroke" mask="url(#Clip661)" />
    <path d="M 47.40264797507788 12.979750778816197  C 45.916666666666686 15.899532710280367  42.07398753894083 15.661993769470428  42.00856697819313 15.660436137071658  C 41.55062305295951 15.66121495327104  39.366822429906534 15.637071651090366  37.541277258566964 14.70327102803742  C 37.16937634609033 14.545807242411797  36.92919974446414 14.17954561304333  36.93302180685356 13.775700934579447  L 36.93302180685356 12.938473520249204  C 36.93302180685356 12.280373831775705  37.4158878504673 12.40109034267914  37.620716510903435 12.479750778816197  C 38.40264797507788 12.79595015576325  38.90420560747663 13.035825545171349  39.864485981308405 13.227414330218096  C 42.71884735202491 13.813862928348897  43.97429906542055 13.048286604361408  44.28193146417445 12.878504672897236  C 45.306074766355124 12.270249221183803  45.38707165109034 10.87850467289718  44.69080996884736 10.156542056074784  C 43.87461059190031 9.471962616822452  43.48520249221184 9.446261682243005  40.55295950155764 8.52102803738319  C 40.19158878504672 8.420560747663558  37.14953271028037 7.461059190031165  37.14252336448598 4.443146417445462  C 37.09501557632399 2.2437694704049704  39.093457943925216 0.06775700934576889  42.55685358255451 0.08566978193147179  C 43.54361370716509 0.08489096573208599  46.17289719626166 0.4073208722741697  46.88473520249221 1.3021806853582802  C 46.9898753894081 1.4649532710280369  47.04205607476635 1.6565420560747839  47.03426791277258 1.8504672897196315  L 47.03426791277258 2.637850467289752  C 47.03426791277258 2.9836448598130687  46.9080996884735 3.156542056074784  46.65498442367601 3.156542056074784  C 46.05451713395638 3.089563862928344  44.98909657320871 2.2866043613707348  42.826323987538956 2.3193146417445405  C 42.28971962616822 2.2912772585669927  39.719626168224295 2.3901869158878526  39.834890965732086 4.264018691588774  C 39.801401869158894 5.740654205607484  41.90732087227414 6.294392523364479  42.147975077881625 6.358255451713376  C 44.98753894080997 7.212616822429936  45.93691588785049 7.354361370716504  47.063862928348925 8.661993769470428  C 48.39875389408101 10.39485981308411  47.67912772585669 12.423676012461101  47.40264797507788 12.979750778816197  Z " stroke-width="0" stroke-dasharray="0" stroke="rgba(255, 255, 255, 0)" fill="none" class="stroke" mask="url(#Clip661)" />
    <path d="M 44.35124610591902 22.551401869158894  C 45.26869158878503 22.161993769470428  46.04672897196264 23.15887850467294  45.13940809968847 23.82710280373834  C 39.68535825545172 27.85514018691589  31.767912772585678 29.99922118380067  25.007788161993773 29.99922118380067  C 15.886333627436814 30.059373729735228  7.0722805334004875 26.70538302767386  0.29828660436137966 20.59657320872276  C -0.21028037383177886 20.137850467289752  0.23831775700935506 19.509345794392516  0.8566978193146326 19.85903426791276  C 8.371069250473596 24.15744456876621  16.87891624988282 26.41596542710471  25.53582554517135 26.410436137071656  C 32.000572520441494 26.3757675816463  38.39478642507666 25.064317194731814  44.35124610591902 22.551401869158894  Z " stroke-width="0" stroke-dasharray="0" stroke="rgba(255, 255, 255, 0)" fill="none" class="stroke" mask="url(#Clip661)" />
    <path d="M 45.977414330218096 27.46651090342681  C 46.63473520249224 25.811526479750796  48.11059190031153 22.13239875389411  47.412772585669785 21.234423676012455  C 46.71495327102804 20.337227414330243  42.79595015576325 20.81542056074767  41.04127725856699 21.02492211838006  C 40.51246105919003 21.084890965732086  40.42289719626169 20.62616822429908  40.901869158878526 20.28738317757012  C 44.02258566978193 18.093457943925273  49.147975077881625 18.721962616822452  49.73676012461061 19.459501557632393  C 50.324766355140184 20.19704049844239  49.57710280373834 25.332554517133985  46.6557632398754 27.78582554517135  C 46.20716510903429 28.165109034267914  45.778037383177576 27.964953271028037  45.977414330218096 27.46651090342681  Z " stroke-width="0" stroke-dasharray="0" stroke="rgba(255, 255, 255, 0)" fill="none" class="stroke" mask="url(#Clip661)" />
  </g>
</svg>