<?xml version="1.0" encoding="utf-8"?>
<svg version="1.1" xmlns:xlink="http://www.w3.org/1999/xlink" width="24px" height="8px" xmlns="http://www.w3.org/2000/svg">
  <defs>
    <pattern id="BGPattern" patternUnits="userSpaceOnUse" alignment="0 0" imageRepeat="None" />
    <mask fill="white" id="Clip6075">
      <path d="M 0.1500000000000008 6.799999999999997  L 4.650000000000001 0.7999999999999972  C 4.791640786499875 0.6111456180001653  5.013932022500212 0.5  5.250000000000001 0.5  L 9 0.5  C 9.414213562373096 0.5  9.75 0.8357864376269042  9.75 1.25  C 9.75 1.6642135623730958  9.414213562373096 2  9 2  L 5.625000000000001 2  L 2.250000000000001 6.5  L 21.75 6.5  L 18.375 2  L 15 2  C 14.585786437626904 2  14.25 1.6642135623730958  14.25 1.25  C 14.25 0.8357864376269042  14.585786437626904 0.5  15 0.5  L 18.75 0.5  C 18.98606797749979 0.5  19.208359213500128 0.6111456180001653  19.35 0.7999999999999972  L 23.85 6.799999999999997  C 23.94736659610103 6.9298221281347026  24 7.087722339831618  24 7.25  C 24 7.664213562373096  23.664213562373096 8  23.25 8  L 0.7500000000000009 8  C 0.3357864376269049 8  0 7.664213562373096  0 7.25  C 0 7.087722339831618  0.05263340389897265 6.9298221281347026  0.1500000000000008 6.799999999999997  Z " fill-rule="evenodd" />
    </mask>
  </defs>
  <g transform="matrix(1 0 0 1 0 -16 )">
    <path d="M 0.1500000000000008 6.799999999999997  L 4.650000000000001 0.7999999999999972  C 4.791640786499875 0.6111456180001653  5.013932022500212 0.5  5.250000000000001 0.5  L 9 0.5  C 9.414213562373096 0.5  9.75 0.8357864376269042  9.75 1.25  C 9.75 1.6642135623730958  9.414213562373096 2  9 2  L 5.625000000000001 2  L 2.250000000000001 6.5  L 21.75 6.5  L 18.375 2  L 15 2  C 14.585786437626904 2  14.25 1.6642135623730958  14.25 1.25  C 14.25 0.8357864376269042  14.585786437626904 0.5  15 0.5  L 18.75 0.5  C 18.98606797749979 0.5  19.208359213500128 0.6111456180001653  19.35 0.7999999999999972  L 23.85 6.799999999999997  C 23.94736659610103 6.9298221281347026  24 7.087722339831618  24 7.25  C 24 7.664213562373096  23.664213562373096 8  23.25 8  L 0.7500000000000009 8  C 0.3357864376269049 8  0 7.664213562373096  0 7.25  C 0 7.087722339831618  0.05263340389897265 6.9298221281347026  0.1500000000000008 6.799999999999997  Z " fill-rule="nonzero" fill="rgba(0, 0, 0, 1)" stroke="none" transform="matrix(1 0 0 1 0 16 )" class="fill" />
    <path d="M 0.1500000000000008 6.799999999999997  L 4.650000000000001 0.7999999999999972  C 4.791640786499875 0.6111456180001653  5.013932022500212 0.5  5.250000000000001 0.5  L 9 0.5  C 9.414213562373096 0.5  9.75 0.8357864376269042  9.75 1.25  C 9.75 1.6642135623730958  9.414213562373096 2  9 2  L 5.625000000000001 2  L 2.250000000000001 6.5  L 21.75 6.5  L 18.375 2  L 15 2  C 14.585786437626904 2  14.25 1.6642135623730958  14.25 1.25  C 14.25 0.8357864376269042  14.585786437626904 0.5  15 0.5  L 18.75 0.5  C 18.98606797749979 0.5  19.208359213500128 0.6111456180001653  19.35 0.7999999999999972  L 23.85 6.799999999999997  C 23.94736659610103 6.9298221281347026  24 7.087722339831618  24 7.25  C 24 7.664213562373096  23.664213562373096 8  23.25 8  L 0.7500000000000009 8  C 0.3357864376269049 8  0 7.664213562373096  0 7.25  C 0 7.087722339831618  0.05263340389897265 6.9298221281347026  0.1500000000000008 6.799999999999997  Z " stroke-width="0" stroke-dasharray="0" stroke="rgba(255, 255, 255, 0)" fill="none" transform="matrix(1 0 0 1 0 16 )" class="stroke" mask="url(#Clip6075)" />
  </g>
</svg>