<?xml version="1.0" encoding="utf-8"?>
<svg version="1.1" xmlns:xlink="http://www.w3.org/1999/xlink" width="50px" height="41px" xmlns="http://www.w3.org/2000/svg">
  <defs>
    <pattern id="BGPattern" patternUnits="userSpaceOnUse" alignment="0 0" imageRepeat="None" />
    <mask fill="white" id="Clip1883">
      <path d="M 7.28125 20.2109375  C 11.9609375 16.4765625  20.0390625 17.015625  20.0390625 17.015625  L 26.8125 25.546875  C 26.8125 25.546875  25.515624999999996 33.546875  20.828125 37.2734375  C 16.1484375 41  0 39.9375  0 39.9375  C 0 39.9375  0.296875 38.1328125  0.8593750000000001 35.609375  L 8.25 26.843750000000004  C 8.5625 26.4765625  8.1796875 25.937499999999996  7.734375 26.1015625  L 3.015625 27.828125  C 4.140625 24.5703125  5.5703125 21.578124999999996  7.28125 20.2109375  Z M 44.8671875 33.8046875  C 44.8671875 30.3515625  42.0703125 27.5625  38.6328125 27.5625  C 35.1953125 27.5625  32.3984375 30.359375  32.3984375 33.8046875  C 32.3984375 37.25  35.1875 40.046875  38.6328125 40.046875  C 42.078125 40.046875  44.8671875 37.25  44.8671875 33.8046875  Z M 49.53125 4.2578125  C 50.0703125 3.828125  50.15625 3.0390625  49.7265625 2.5  L 48.1796875 0.546875  C 47.75 0.0078125  46.96875 -0.078125  46.4296875 0.34375  L 28.265625 14.2421875  L 25.601562500000004 10.8828125  C 25.203125 10.3828125  24.421875 10.476562500000002  24.1484375 11.054687500000002  L 22.171875 15.3203125  L 28.945312499999996 23.8515625  L 33.5390625 22.8828125  C 34.1640625 22.750000000000004  34.4296875 22.0078125  34.03125 21.5078125  L 31.3671875 18.15625  L 49.53125 4.2578125  Z " fill-rule="evenodd" />
    </mask>
  </defs>
  <g>
    <path d="M 7.28125 20.2109375  C 11.9609375 16.4765625  20.0390625 17.015625  20.0390625 17.015625  L 26.8125 25.546875  C 26.8125 25.546875  25.515624999999996 33.546875  20.828125 37.2734375  C 16.1484375 41  0 39.9375  0 39.9375  C 0 39.9375  0.296875 38.1328125  0.8593750000000001 35.609375  L 8.25 26.843750000000004  C 8.5625 26.4765625  8.1796875 25.937499999999996  7.734375 26.1015625  L 3.015625 27.828125  C 4.140625 24.5703125  5.5703125 21.578124999999996  7.28125 20.2109375  Z M 44.8671875 33.8046875  C 44.8671875 30.3515625  42.0703125 27.5625  38.6328125 27.5625  C 35.1953125 27.5625  32.3984375 30.359375  32.3984375 33.8046875  C 32.3984375 37.25  35.1875 40.046875  38.6328125 40.046875  C 42.078125 40.046875  44.8671875 37.25  44.8671875 33.8046875  Z M 49.53125 4.2578125  C 50.0703125 3.828125  50.15625 3.0390625  49.7265625 2.5  L 48.1796875 0.546875  C 47.75 0.0078125  46.96875 -0.078125  46.4296875 0.34375  L 28.265625 14.2421875  L 25.601562500000004 10.8828125  C 25.203125 10.3828125  24.421875 10.476562500000002  24.1484375 11.054687500000002  L 22.171875 15.3203125  L 28.945312499999996 23.8515625  L 33.5390625 22.8828125  C 34.1640625 22.750000000000004  34.4296875 22.0078125  34.03125 21.5078125  L 31.3671875 18.15625  L 49.53125 4.2578125  Z " fill-rule="nonzero" fill="rgba(0, 0, 0, 1)" stroke="none" class="fill" />
    <path d="M 7.28125 20.2109375  C 11.9609375 16.4765625  20.0390625 17.015625  20.0390625 17.015625  L 26.8125 25.546875  C 26.8125 25.546875  25.515624999999996 33.546875  20.828125 37.2734375  C 16.1484375 41  0 39.9375  0 39.9375  C 0 39.9375  0.296875 38.1328125  0.8593750000000001 35.609375  L 8.25 26.843750000000004  C 8.5625 26.4765625  8.1796875 25.937499999999996  7.734375 26.1015625  L 3.015625 27.828125  C 4.140625 24.5703125  5.5703125 21.578124999999996  7.28125 20.2109375  Z " stroke-width="0" stroke-dasharray="0" stroke="rgba(255, 255, 255, 0)" fill="none" class="stroke" mask="url(#Clip1883)" />
    <path d="M 44.8671875 33.8046875  C 44.8671875 30.3515625  42.0703125 27.5625  38.6328125 27.5625  C 35.1953125 27.5625  32.3984375 30.359375  32.3984375 33.8046875  C 32.3984375 37.25  35.1875 40.046875  38.6328125 40.046875  C 42.078125 40.046875  44.8671875 37.25  44.8671875 33.8046875  Z " stroke-width="0" stroke-dasharray="0" stroke="rgba(255, 255, 255, 0)" fill="none" class="stroke" mask="url(#Clip1883)" />
    <path d="M 49.53125 4.2578125  C 50.0703125 3.828125  50.15625 3.0390625  49.7265625 2.5  L 48.1796875 0.546875  C 47.75 0.0078125  46.96875 -0.078125  46.4296875 0.34375  L 28.265625 14.2421875  L 25.601562500000004 10.8828125  C 25.203125 10.3828125  24.421875 10.476562500000002  24.1484375 11.054687500000002  L 22.171875 15.3203125  L 28.945312499999996 23.8515625  L 33.5390625 22.8828125  C 34.1640625 22.750000000000004  34.4296875 22.0078125  34.03125 21.5078125  L 31.3671875 18.15625  L 49.53125 4.2578125  Z " stroke-width="0" stroke-dasharray="0" stroke="rgba(255, 255, 255, 0)" fill="none" class="stroke" mask="url(#Clip1883)" />
  </g>
</svg>