<?xml version="1.0" encoding="utf-8"?>
<svg version="1.1" xmlns:xlink="http://www.w3.org/1999/xlink" width="28px" height="48px" xmlns="http://www.w3.org/2000/svg">
  <defs>
    <pattern id="BGPattern" patternUnits="userSpaceOnUse" alignment="0 0" imageRepeat="None" />
    <mask fill="white" id="Clip7185">
      <path d="M 0.7899999999999991 0  L 0.7799999999999994 0.008  L 10.280000000000001 26.928000000000004  L 10.280000000000001 26.914  L 11.032 29.034000000000002  C 15.207999999999997 40.85  17.451999999999998 47.184  17.464 47.19800000000001  C 17.471999999999998 47.19800000000001  18.104 47.23800000000001  18.868 47.278000000000006  C 21.18 47.37800000000001  24.048000000000002 47.638000000000005  26.22 47.898  C 26.72 47.958000000000006  27.152 47.978  27.18 47.958000000000006  L 17.759999999999998 21.238000000000007  L 16.887999999999998 18.778000000000006  L 12.041999999999998 5.0780000000000065  C 11.121999999999996 2.4780000000000064  10.341999999999999 0.26200000000000667  10.302 0.17800000000000615  L 10.239999999999998 0  L 0.7899999999999991 0  Z M 17.796 0.02  L 17.796 0.024  L 17.776 10.636  L 17.76 21.247999999999998  L 16.886000000000003 18.784  L 16.886000000000003 18.78  L 15.756000000000004 42.400000000000006  C 16.866000000000003 45.534000000000006  17.460000000000004 47.206  17.466000000000005 47.214000000000006  C 17.474000000000004 47.22200000000001  18.106000000000005 47.26200000000001  18.870000000000005 47.29800000000001  C 21.184000000000005 47.39800000000001  24.050000000000004 47.65800000000001  26.230000000000004 47.918000000000006  C 26.730000000000004 47.97800000000001  27.164 47.998000000000005  27.190000000000005 47.97800000000001  C 27.216000000000008 47.95800000000001  27.230000000000004 37.138000000000005  27 23.95800000000001  L 27 0.02  L 17.796 0.02  Z M 10.242000000000004 0.00400000000000883  L 1 0.004  L 1 23.984  C 0.7799999999999994 37.172000000000004  0.7939999999999987 47.974000000000004  0.8099999999999987 47.99  C 0.8259999999999987 48.006  1.6419999999999995 47.93  2.6239999999999988 47.818000000000005  C 3.6039999999999996 47.69800000000001  4.963999999999999 47.55800000000001  5.643999999999998 47.498000000000005  C 6.68 47.398  9.779999999999998 47.19800000000001  10.14 47.19800000000001  C 10.244 47.19800000000001  10.251999999999999 46.65800000000001  10.266000000000002 37.03800000000001  L 10.282 26.87800000000001  L 11.042000000000002 28.99800000000001  L 11.302000000000003 29.750000000000007  L 12.442000000000004 6.150000000000009  L 12.062000000000005 5.058000000000009  L 10.302000000000003 0.17800000000000882  L 10.242000000000004 0.00400000000000883  Z " fill-rule="evenodd" />
    </mask>
  </defs>
  <g>
    <path d="M 0.7899999999999991 0  L 0.7799999999999994 0.008  L 10.280000000000001 26.928000000000004  L 10.280000000000001 26.914  L 11.032 29.034000000000002  C 15.207999999999997 40.85  17.451999999999998 47.184  17.464 47.19800000000001  C 17.471999999999998 47.19800000000001  18.104 47.23800000000001  18.868 47.278000000000006  C 21.18 47.37800000000001  24.048000000000002 47.638000000000005  26.22 47.898  C 26.72 47.958000000000006  27.152 47.978  27.18 47.958000000000006  L 17.759999999999998 21.238000000000007  L 16.887999999999998 18.778000000000006  L 12.041999999999998 5.0780000000000065  C 11.121999999999996 2.4780000000000064  10.341999999999999 0.26200000000000667  10.302 0.17800000000000615  L 10.239999999999998 0  L 0.7899999999999991 0  Z M 17.796 0.02  L 17.796 0.024  L 17.776 10.636  L 17.76 21.247999999999998  L 16.886000000000003 18.784  L 16.886000000000003 18.78  L 15.756000000000004 42.400000000000006  C 16.866000000000003 45.534000000000006  17.460000000000004 47.206  17.466000000000005 47.214000000000006  C 17.474000000000004 47.22200000000001  18.106000000000005 47.26200000000001  18.870000000000005 47.29800000000001  C 21.184000000000005 47.39800000000001  24.050000000000004 47.65800000000001  26.230000000000004 47.918000000000006  C 26.730000000000004 47.97800000000001  27.164 47.998000000000005  27.190000000000005 47.97800000000001  C 27.216000000000008 47.95800000000001  27.230000000000004 37.138000000000005  27 23.95800000000001  L 27 0.02  L 17.796 0.02  Z M 10.242000000000004 0.00400000000000883  L 1 0.004  L 1 23.984  C 0.7799999999999994 37.172000000000004  0.7939999999999987 47.974000000000004  0.8099999999999987 47.99  C 0.8259999999999987 48.006  1.6419999999999995 47.93  2.6239999999999988 47.818000000000005  C 3.6039999999999996 47.69800000000001  4.963999999999999 47.55800000000001  5.643999999999998 47.498000000000005  C 6.68 47.398  9.779999999999998 47.19800000000001  10.14 47.19800000000001  C 10.244 47.19800000000001  10.251999999999999 46.65800000000001  10.266000000000002 37.03800000000001  L 10.282 26.87800000000001  L 11.042000000000002 28.99800000000001  L 11.302000000000003 29.750000000000007  L 12.442000000000004 6.150000000000009  L 12.062000000000005 5.058000000000009  L 10.302000000000003 0.17800000000000882  L 10.242000000000004 0.00400000000000883  Z " fill-rule="nonzero" fill="rgba(229, 9, 20, 1)" stroke="none" class="fill" />
    <path d="M 0.7899999999999991 0  L 0.7799999999999994 0.008  L 10.280000000000001 26.928000000000004  L 10.280000000000001 26.914  L 11.032 29.034000000000002  C 15.207999999999997 40.85  17.451999999999998 47.184  17.464 47.19800000000001  C 17.471999999999998 47.19800000000001  18.104 47.23800000000001  18.868 47.278000000000006  C 21.18 47.37800000000001  24.048000000000002 47.638000000000005  26.22 47.898  C 26.72 47.958000000000006  27.152 47.978  27.18 47.958000000000006  L 17.759999999999998 21.238000000000007  L 16.887999999999998 18.778000000000006  L 12.041999999999998 5.0780000000000065  C 11.121999999999996 2.4780000000000064  10.341999999999999 0.26200000000000667  10.302 0.17800000000000615  L 10.239999999999998 0  L 0.7899999999999991 0  Z " stroke-width="0" stroke-dasharray="0" stroke="rgba(255, 255, 255, 0)" fill="none" class="stroke" mask="url(#Clip7185)" />
    <path d="M 17.796 0.02  L 17.796 0.024  L 17.776 10.636  L 17.76 21.247999999999998  L 16.886000000000003 18.784  L 16.886000000000003 18.78  L 15.756000000000004 42.400000000000006  C 16.866000000000003 45.534000000000006  17.460000000000004 47.206  17.466000000000005 47.214000000000006  C 17.474000000000004 47.22200000000001  18.106000000000005 47.26200000000001  18.870000000000005 47.29800000000001  C 21.184000000000005 47.39800000000001  24.050000000000004 47.65800000000001  26.230000000000004 47.918000000000006  C 26.730000000000004 47.97800000000001  27.164 47.998000000000005  27.190000000000005 47.97800000000001  C 27.216000000000008 47.95800000000001  27.230000000000004 37.138000000000005  27 23.95800000000001  L 27 0.02  L 17.796 0.02  Z " stroke-width="0" stroke-dasharray="0" stroke="rgba(255, 255, 255, 0)" fill="none" class="stroke" mask="url(#Clip7185)" />
    <path d="M 10.242000000000004 0.00400000000000883  L 1 0.004  L 1 23.984  C 0.7799999999999994 37.172000000000004  0.7939999999999987 47.974000000000004  0.8099999999999987 47.99  C 0.8259999999999987 48.006  1.6419999999999995 47.93  2.6239999999999988 47.818000000000005  C 3.6039999999999996 47.69800000000001  4.963999999999999 47.55800000000001  5.643999999999998 47.498000000000005  C 6.68 47.398  9.779999999999998 47.19800000000001  10.14 47.19800000000001  C 10.244 47.19800000000001  10.251999999999999 46.65800000000001  10.266000000000002 37.03800000000001  L 10.282 26.87800000000001  L 11.042000000000002 28.99800000000001  L 11.302000000000003 29.750000000000007  L 12.442000000000004 6.150000000000009  L 12.062000000000005 5.058000000000009  L 10.302000000000003 0.17800000000000882  L 10.242000000000004 0.00400000000000883  Z " stroke-width="0" stroke-dasharray="0" stroke="rgba(255, 255, 255, 0)" fill="none" class="stroke" mask="url(#Clip7185)" />
  </g>
</svg>