<?xml version="1.0" encoding="utf-8"?>
<svg version="1.1" xmlns:xlink="http://www.w3.org/1999/xlink" width="24px" height="24px" xmlns="http://www.w3.org/2000/svg">
  <defs>
    <pattern id="BGPattern" patternUnits="userSpaceOnUse" alignment="0 0" imageRepeat="None" />
    <mask fill="white" id="Clip4699">
      <path d="M 12 0  C 18.627416997969522 0  24 5.372583002030479  24 12  C 24 18.627416997969522  18.627416997969522 24  12 24  C 5.372583002030479 24  0 18.627416997969522  0 12  C 0 5.372583002030479  5.372583002030479 0  12 0  Z M 14.962499999999999 13.902000000000001  L 8.8185 7.757999999999999  C 8.678670676067872 7.62294832009297  8.491865732682546 7.54746615429559  8.29746615429559 7.54746615429559  C 7.883252591922495 7.54746615429559  7.54746615429559 7.883252591922495  7.54746615429559 8.29746615429559  C 7.54746615429559 8.491865732682546  7.62294832009297 8.678670676067872  7.757999999999999 8.8185  L 13.902000000000001 14.962499999999999  L 9.75 14.962499999999999  C 9.335786437626904 14.962499999999999  9 15.298286437626905  9 15.712499999999999  C 9 16.126713562373094  9.335786437626904 16.4625  9.75 16.4625  L 15.712499999999999 16.4625  C 16.126713562373094 16.4625  16.4625 16.126713562373094  16.4625 15.712499999999999  L 16.4625 9.75  C 16.4625 9.335786437626904  16.126713562373094 9  15.712499999999999 9  C 15.298286437626905 9  14.962499999999999 9.335786437626904  14.962499999999999 9.75  L 14.962499999999999 13.902000000000001  Z " fill-rule="evenodd" />
    </mask>
  </defs>
  <g>
    <path d="M 12 0  C 18.627416997969522 0  24 5.372583002030479  24 12  C 24 18.627416997969522  18.627416997969522 24  12 24  C 5.372583002030479 24  0 18.627416997969522  0 12  C 0 5.372583002030479  5.372583002030479 0  12 0  Z M 14.962499999999999 13.902000000000001  L 8.8185 7.757999999999999  C 8.678670676067872 7.62294832009297  8.491865732682546 7.54746615429559  8.29746615429559 7.54746615429559  C 7.883252591922495 7.54746615429559  7.54746615429559 7.883252591922495  7.54746615429559 8.29746615429559  C 7.54746615429559 8.491865732682546  7.62294832009297 8.678670676067872  7.757999999999999 8.8185  L 13.902000000000001 14.962499999999999  L 9.75 14.962499999999999  C 9.335786437626904 14.962499999999999  9 15.298286437626905  9 15.712499999999999  C 9 16.126713562373094  9.335786437626904 16.4625  9.75 16.4625  L 15.712499999999999 16.4625  C 16.126713562373094 16.4625  16.4625 16.126713562373094  16.4625 15.712499999999999  L 16.4625 9.75  C 16.4625 9.335786437626904  16.126713562373094 9  15.712499999999999 9  C 15.298286437626905 9  14.962499999999999 9.335786437626904  14.962499999999999 9.75  L 14.962499999999999 13.902000000000001  Z " fill-rule="nonzero" fill="rgba(0, 0, 0, 1)" stroke="none" class="fill" />
    <path d="M 12 0  C 18.627416997969522 0  24 5.372583002030479  24 12  C 24 18.627416997969522  18.627416997969522 24  12 24  C 5.372583002030479 24  0 18.627416997969522  0 12  C 0 5.372583002030479  5.372583002030479 0  12 0  Z " stroke-width="0" stroke-dasharray="0" stroke="rgba(255, 255, 255, 0)" fill="none" class="stroke" mask="url(#Clip4699)" />
    <path d="M 14.962499999999999 13.902000000000001  L 8.8185 7.757999999999999  C 8.678670676067872 7.62294832009297  8.491865732682546 7.54746615429559  8.29746615429559 7.54746615429559  C 7.883252591922495 7.54746615429559  7.54746615429559 7.883252591922495  7.54746615429559 8.29746615429559  C 7.54746615429559 8.491865732682546  7.62294832009297 8.678670676067872  7.757999999999999 8.8185  L 13.902000000000001 14.962499999999999  L 9.75 14.962499999999999  C 9.335786437626904 14.962499999999999  9 15.298286437626905  9 15.712499999999999  C 9 16.126713562373094  9.335786437626904 16.4625  9.75 16.4625  L 15.712499999999999 16.4625  C 16.126713562373094 16.4625  16.4625 16.126713562373094  16.4625 15.712499999999999  L 16.4625 9.75  C 16.4625 9.335786437626904  16.126713562373094 9  15.712499999999999 9  C 15.298286437626905 9  14.962499999999999 9.335786437626904  14.962499999999999 9.75  L 14.962499999999999 13.902000000000001  Z " stroke-width="0" stroke-dasharray="0" stroke="rgba(255, 255, 255, 0)" fill="none" class="stroke" mask="url(#Clip4699)" />
  </g>
</svg>