<?xml version="1.0" encoding="utf-8"?>
<svg version="1.1" xmlns:xlink="http://www.w3.org/1999/xlink" width="24px" height="12px" xmlns="http://www.w3.org/2000/svg">
  <defs>
    <pattern id="BGPattern" patternUnits="userSpaceOnUse" alignment="0 0" imageRepeat="None" />
    <mask fill="white" id="Clip5827">
      <path d="M 9.9945 8.249999999999996  C 9.125262662949817 10.082513319766367  7.278220510704626 11.25041856936813  5.25 11.25  C 2.350928273685719 11.249401652131432  0.001083562788241177 8.899071899881502  0.001083562788241177 6.000000111819839  C 0.001083562788241177 3.1005051752081734  2.351588626176576 0.7500001118198405  5.25108356278824 0.7500001118198405  C 7.2789125611917065 0.7500001118198405  9.125430386064894 1.9178404946892078  9.9945 3.75  L 21 3.75  L 23.25 6  L 21 8.25  L 19.5 6.75  L 18 8.25  L 16.5 6.75  L 15 8.25  L 13.5 6.75  L 12 8.25  L 9.9945 8.249999999999996  Z M 2.25 6  C 2.25 6.82842712474619  2.9215728752538097 7.5  3.75 7.5  C 4.57842712474619 7.5  5.25 6.82842712474619  5.25 6  C 5.25 5.17157287525381  4.57842712474619 4.5  3.75 4.5  C 2.9215728752538097 4.5  2.25 5.17157287525381  2.25 6  Z " fill-rule="evenodd" />
    </mask>
  </defs>
  <g>
    <path d="M 9.9945 8.249999999999996  C 9.125262662949817 10.082513319766367  7.278220510704626 11.25041856936813  5.25 11.25  C 2.350928273685719 11.249401652131432  0.001083562788241177 8.899071899881502  0.001083562788241177 6.000000111819839  C 0.001083562788241177 3.1005051752081734  2.351588626176576 0.7500001118198405  5.25108356278824 0.7500001118198405  C 7.2789125611917065 0.7500001118198405  9.125430386064894 1.9178404946892078  9.9945 3.75  L 21 3.75  L 23.25 6  L 21 8.25  L 19.5 6.75  L 18 8.25  L 16.5 6.75  L 15 8.25  L 13.5 6.75  L 12 8.25  L 9.9945 8.249999999999996  Z M 2.25 6  C 2.25 6.82842712474619  2.9215728752538097 7.5  3.75 7.5  C 4.57842712474619 7.5  5.25 6.82842712474619  5.25 6  C 5.25 5.17157287525381  4.57842712474619 4.5  3.75 4.5  C 2.9215728752538097 4.5  2.25 5.17157287525381  2.25 6  Z " fill-rule="nonzero" fill="rgba(0, 0, 0, 1)" stroke="none" class="fill" />
    <path d="M 9.9945 8.249999999999996  C 9.125262662949817 10.082513319766367  7.278220510704626 11.25041856936813  5.25 11.25  C 2.350928273685719 11.249401652131432  0.001083562788241177 8.899071899881502  0.001083562788241177 6.000000111819839  C 0.001083562788241177 3.1005051752081734  2.351588626176576 0.7500001118198405  5.25108356278824 0.7500001118198405  C 7.2789125611917065 0.7500001118198405  9.125430386064894 1.9178404946892078  9.9945 3.75  L 21 3.75  L 23.25 6  L 21 8.25  L 19.5 6.75  L 18 8.25  L 16.5 6.75  L 15 8.25  L 13.5 6.75  L 12 8.25  L 9.9945 8.249999999999996  Z " stroke-width="0" stroke-dasharray="0" stroke="rgba(255, 255, 255, 0)" fill="none" class="stroke" mask="url(#Clip5827)" />
    <path d="M 2.25 6  C 2.25 6.82842712474619  2.9215728752538097 7.5  3.75 7.5  C 4.57842712474619 7.5  5.25 6.82842712474619  5.25 6  C 5.25 5.17157287525381  4.57842712474619 4.5  3.75 4.5  C 2.9215728752538097 4.5  2.25 5.17157287525381  2.25 6  Z " stroke-width="0" stroke-dasharray="0" stroke="rgba(255, 255, 255, 0)" fill="none" class="stroke" mask="url(#Clip5827)" />
  </g>
</svg>