<?xml version="1.0" encoding="utf-8"?>
<svg version="1.1" xmlns:xlink="http://www.w3.org/1999/xlink" width="49px" height="50px" xmlns="http://www.w3.org/2000/svg">
  <defs>
    <pattern id="BGPattern" patternUnits="userSpaceOnUse" alignment="0 0" imageRepeat="None" />
    <mask fill="white" id="Clip1392">
      <path d="M 43.1640625 48.828125  C 43.1640625 49.47529296875001  42.63935546875001 50  41.9921875 50  L 6.8359375 50  C 6.188769531249989 50  5.6640625 49.47529296875001  5.6640625 48.828125  L 5.6640625 46.484375  C 5.6640625 45.83720703124999  6.188769531249989 45.3125  6.8359375 45  L 41.9921875 45  C 42.63935546875001 45.3125  43.1640625 45.83720703124999  43.1640625 46.484375  L 43.1640625 48.828125  Z M 29.841699218749994 5.46875  C 29.841699218749994 2.4484375000000114  27.39326171875001 0  24.372949218749994 0  C 21.352636718750006 0  18.904199218749994 2.4484375000000114  18.904199218749994 5.46875  C 18.904199218749994 8.489062499999989  21.352636718750006 10.9375  24.372949218749994 10.9375  C 27.39326171875001 10.9375  29.841699218749994 8.489062499999989  29.841699218749994 5.46875  Z M 48.193749999999994 17.12958984375001  L 44.35029296875001 15.100976562500023  C 43.78701171875002 14.803613281250023  43.088964843750006 15.009960937500011  42.77978515625 15.566796875000023  C 41.93837890625002 17.08203125  40.55839843749999 19.25830078125  38.4765625 19.25830078125  C 35.672460937500006 19.25830078125  35.48583984375 17.324316406249977  35.38222656250002 13.63896484374999  C 35.364355468750006 13.004980468749977  34.84501953125002 12.499902343750023  34.210839843749994 12.499902343750023  L 30.206347656250017 12.499902343750023  C 29.700976562500017 12.499902343750023  29.25380859375002 12.824902343750011  29.09423828125 13.304394531250011  C 28.22607421875 15.912695312499977  26.548046875000008 17.307519531250023  24.4140625 17.307519531250023  C 22.280078125000017 17.307519531250023  20.602148437500006 15.912695312499977  19.73388671875 13.304394531250011  C 19.574316406250006 12.824902343750011  19.12714843750001 12.499902343750023  18.62177734375001 12.499902343750023  L 14.617382812500011 12.499902343750023  C 13.983105468750013 12.499902343750023  13.463769531250023 13.005175781249989  13.445996093750011 13.639257812499977  C 13.343261718749998 17.31523437499999  13.159472656250017 19.25830078125  10.351464843750023 19.25830078125  C 8.330859375000017 19.25830078125  7.049023437500011 17.283300781249977  6.013085937500023 15.544921875  C 5.694140625000017 15.009765624999998  5.011328125000006 14.819238281250021  4.46044921875 15.110058593750011  L 0.6343750000000057 17.129492187499977  C 0.10139235143302017 17.41079068981685  -0.13133571905223107 18.05047610315603  0.09628906250000568 18.608496093749977  L 10.3515625 43  L 38.4765625 43  L 48.731835937499994 18.60859375000001  C 48.95946071905223 18.050573759406007  48.72673264856701 17.410888346066827  48.193749999999994 17.12958984375001  Z " fill-rule="evenodd" />
    </mask>
  </defs>
  <g>
    <path d="M 43.1640625 48.828125  C 43.1640625 49.47529296875001  42.63935546875001 50  41.9921875 50  L 6.8359375 50  C 6.188769531249989 50  5.6640625 49.47529296875001  5.6640625 48.828125  L 5.6640625 46.484375  C 5.6640625 45.83720703124999  6.188769531249989 45.3125  6.8359375 45  L 41.9921875 45  C 42.63935546875001 45.3125  43.1640625 45.83720703124999  43.1640625 46.484375  L 43.1640625 48.828125  Z M 29.841699218749994 5.46875  C 29.841699218749994 2.4484375000000114  27.39326171875001 0  24.372949218749994 0  C 21.352636718750006 0  18.904199218749994 2.4484375000000114  18.904199218749994 5.46875  C 18.904199218749994 8.489062499999989  21.352636718750006 10.9375  24.372949218749994 10.9375  C 27.39326171875001 10.9375  29.841699218749994 8.489062499999989  29.841699218749994 5.46875  Z M 48.193749999999994 17.12958984375001  L 44.35029296875001 15.100976562500023  C 43.78701171875002 14.803613281250023  43.088964843750006 15.009960937500011  42.77978515625 15.566796875000023  C 41.93837890625002 17.08203125  40.55839843749999 19.25830078125  38.4765625 19.25830078125  C 35.672460937500006 19.25830078125  35.48583984375 17.324316406249977  35.38222656250002 13.63896484374999  C 35.364355468750006 13.004980468749977  34.84501953125002 12.499902343750023  34.210839843749994 12.499902343750023  L 30.206347656250017 12.499902343750023  C 29.700976562500017 12.499902343750023  29.25380859375002 12.824902343750011  29.09423828125 13.304394531250011  C 28.22607421875 15.912695312499977  26.548046875000008 17.307519531250023  24.4140625 17.307519531250023  C 22.280078125000017 17.307519531250023  20.602148437500006 15.912695312499977  19.73388671875 13.304394531250011  C 19.574316406250006 12.824902343750011  19.12714843750001 12.499902343750023  18.62177734375001 12.499902343750023  L 14.617382812500011 12.499902343750023  C 13.983105468750013 12.499902343750023  13.463769531250023 13.005175781249989  13.445996093750011 13.639257812499977  C 13.343261718749998 17.31523437499999  13.159472656250017 19.25830078125  10.351464843750023 19.25830078125  C 8.330859375000017 19.25830078125  7.049023437500011 17.283300781249977  6.013085937500023 15.544921875  C 5.694140625000017 15.009765624999998  5.011328125000006 14.819238281250021  4.46044921875 15.110058593750011  L 0.6343750000000057 17.129492187499977  C 0.10139235143302017 17.41079068981685  -0.13133571905223107 18.05047610315603  0.09628906250000568 18.608496093749977  L 10.3515625 43  L 38.4765625 43  L 48.731835937499994 18.60859375000001  C 48.95946071905223 18.050573759406007  48.72673264856701 17.410888346066827  48.193749999999994 17.12958984375001  Z " fill-rule="nonzero" fill="rgba(0, 0, 0, 1)" stroke="none" class="fill" />
    <path d="M 43.1640625 48.828125  C 43.1640625 49.47529296875001  42.63935546875001 50  41.9921875 50  L 6.8359375 50  C 6.188769531249989 50  5.6640625 49.47529296875001  5.6640625 48.828125  L 5.6640625 46.484375  C 5.6640625 45.83720703124999  6.188769531249989 45.3125  6.8359375 45  L 41.9921875 45  C 42.63935546875001 45.3125  43.1640625 45.83720703124999  43.1640625 46.484375  L 43.1640625 48.828125  Z " stroke-width="0" stroke-dasharray="0" stroke="rgba(255, 255, 255, 0)" fill="none" class="stroke" mask="url(#Clip1392)" />
    <path d="M 29.841699218749994 5.46875  C 29.841699218749994 2.4484375000000114  27.39326171875001 0  24.372949218749994 0  C 21.352636718750006 0  18.904199218749994 2.4484375000000114  18.904199218749994 5.46875  C 18.904199218749994 8.489062499999989  21.352636718750006 10.9375  24.372949218749994 10.9375  C 27.39326171875001 10.9375  29.841699218749994 8.489062499999989  29.841699218749994 5.46875  Z " stroke-width="0" stroke-dasharray="0" stroke="rgba(255, 255, 255, 0)" fill="none" class="stroke" mask="url(#Clip1392)" />
    <path d="M 48.193749999999994 17.12958984375001  L 44.35029296875001 15.100976562500023  C 43.78701171875002 14.803613281250023  43.088964843750006 15.009960937500011  42.77978515625 15.566796875000023  C 41.93837890625002 17.08203125  40.55839843749999 19.25830078125  38.4765625 19.25830078125  C 35.672460937500006 19.25830078125  35.48583984375 17.324316406249977  35.38222656250002 13.63896484374999  C 35.364355468750006 13.004980468749977  34.84501953125002 12.499902343750023  34.210839843749994 12.499902343750023  L 30.206347656250017 12.499902343750023  C 29.700976562500017 12.499902343750023  29.25380859375002 12.824902343750011  29.09423828125 13.304394531250011  C 28.22607421875 15.912695312499977  26.548046875000008 17.307519531250023  24.4140625 17.307519531250023  C 22.280078125000017 17.307519531250023  20.602148437500006 15.912695312499977  19.73388671875 13.304394531250011  C 19.574316406250006 12.824902343750011  19.12714843750001 12.499902343750023  18.62177734375001 12.499902343750023  L 14.617382812500011 12.499902343750023  C 13.983105468750013 12.499902343750023  13.463769531250023 13.005175781249989  13.445996093750011 13.639257812499977  C 13.343261718749998 17.31523437499999  13.159472656250017 19.25830078125  10.351464843750023 19.25830078125  C 8.330859375000017 19.25830078125  7.049023437500011 17.283300781249977  6.013085937500023 15.544921875  C 5.694140625000017 15.009765624999998  5.011328125000006 14.819238281250021  4.46044921875 15.110058593750011  L 0.6343750000000057 17.129492187499977  C 0.10139235143302017 17.41079068981685  -0.13133571905223107 18.05047610315603  0.09628906250000568 18.608496093749977  L 10.3515625 43  L 38.4765625 43  L 48.731835937499994 18.60859375000001  C 48.95946071905223 18.050573759406007  48.72673264856701 17.410888346066827  48.193749999999994 17.12958984375001  Z " stroke-width="0" stroke-dasharray="0" stroke="rgba(255, 255, 255, 0)" fill="none" class="stroke" mask="url(#Clip1392)" />
  </g>
</svg>