<?xml version="1.0" encoding="utf-8"?>
<svg version="1.1" xmlns:xlink="http://www.w3.org/1999/xlink" width="48px" height="48px" xmlns="http://www.w3.org/2000/svg">
  <defs>
    <pattern id="BGPattern" patternUnits="userSpaceOnUse" alignment="0 0" imageRepeat="None" />
    <mask fill="white" id="Clip7120">
      <path d="M 24.786 0.1975000000000004  C 24.626000000000005 0.1975000000000004  24.426 0.1975000000000004  24.192 0.1975000000000004  C 24.188799223387385 0.19749866994473203  24.185598446515037 0.19749800491707037  24.182397669626084 0.19749800491707037  C 11.420201670536112 0.19749800491707037  1.074397669626089 10.543302005827094  1.074397669626089 23.305498004917066  C 1.074397669626089 27.291908253199885  2.105674202551665 31.21052245939788  4.068 34.6805  L 9.806000000000001 28.946499999999993  C 9.091420098492396 27.133542015090654  8.724545890761506 25.2022587884405  8.724545890761506 23.25355637640188  C 8.724545890761506 14.67933563527881  15.675325149638436 7.728556376401877  24.249545890761507 7.728556376401877  C 32.823766631884574 7.728556376401877  39.7745458907615 14.67933563527881  39.7745458907615 23.25355637640188  C 39.7745458907615 31.827777117524946  32.823766631884574 38.77855637640188  24.249545890761507 38.77855637640188  C 22.456503270277913 38.77855637640188  20.677012719620773 38.46794540718356  18.990000000000002 37.8605  L 13.190000000000001 43.6605  C 20.621130329973504 47.67285108516445  29.64878177607917 47.314014591468386  36.738 42.7245  L 41.524 47.5085  L 48 41.0225  L 43.29999999999999 36.32249999999999  C 45.90601067589588 32.48750960948426  47.29940138776327 27.95786854537981  47.29940138776327 23.321227202960568  C 47.29940138776327 10.786719240972937  37.316025191783645 0.5326992577535812  24.786 0.1975000000000004  Z M 24.19700553870075 18.87749717015748  C 24.19533702540155 18.87749717015748  24.193668512232648 18.877498113438467  24.192 18.8775  C 21.74272181681597 18.87749988723501  19.75800011281588 20.862221591235105  19.75800011281588 23.31049988723501  C 19.75800011281588 25.758778183234917  21.74272181681597 27.74349988723501  24.19100011281588 27.74349988723501  C 26.6388878496072 27.74349988723501  28.623447741084405 25.759387674494775  28.623999999999995 23.311500000000002  C 28.624003692466594 23.309165725210125  28.62400553870075 23.30683144786781  28.62400553870075 23.30449717015748  C 28.62400553870075 20.859532582656556  26.641970126201674 18.87749717015748  24.19700553870075 18.87749717015748  Z M 22.188000000000002 32.0905  L 15.71 25.613500000000002  L 15.282 26.0415  L 0 41.322500000000005  L 6.478 47.8025  L 22.188000000000002 32.0905  Z " fill-rule="evenodd" />
    </mask>
  </defs>
  <g>
    <path d="M 24.786 0.1975000000000004  C 24.626000000000005 0.1975000000000004  24.426 0.1975000000000004  24.192 0.1975000000000004  C 24.188799223387385 0.19749866994473203  24.185598446515037 0.19749800491707037  24.182397669626084 0.19749800491707037  C 11.420201670536112 0.19749800491707037  1.074397669626089 10.543302005827094  1.074397669626089 23.305498004917066  C 1.074397669626089 27.291908253199885  2.105674202551665 31.21052245939788  4.068 34.6805  L 9.806000000000001 28.946499999999993  C 9.091420098492396 27.133542015090654  8.724545890761506 25.2022587884405  8.724545890761506 23.25355637640188  C 8.724545890761506 14.67933563527881  15.675325149638436 7.728556376401877  24.249545890761507 7.728556376401877  C 32.823766631884574 7.728556376401877  39.7745458907615 14.67933563527881  39.7745458907615 23.25355637640188  C 39.7745458907615 31.827777117524946  32.823766631884574 38.77855637640188  24.249545890761507 38.77855637640188  C 22.456503270277913 38.77855637640188  20.677012719620773 38.46794540718356  18.990000000000002 37.8605  L 13.190000000000001 43.6605  C 20.621130329973504 47.67285108516445  29.64878177607917 47.314014591468386  36.738 42.7245  L 41.524 47.5085  L 48 41.0225  L 43.29999999999999 36.32249999999999  C 45.90601067589588 32.48750960948426  47.29940138776327 27.95786854537981  47.29940138776327 23.321227202960568  C 47.29940138776327 10.786719240972937  37.316025191783645 0.5326992577535812  24.786 0.1975000000000004  Z M 24.19700553870075 18.87749717015748  C 24.19533702540155 18.87749717015748  24.193668512232648 18.877498113438467  24.192 18.8775  C 21.74272181681597 18.87749988723501  19.75800011281588 20.862221591235105  19.75800011281588 23.31049988723501  C 19.75800011281588 25.758778183234917  21.74272181681597 27.74349988723501  24.19100011281588 27.74349988723501  C 26.6388878496072 27.74349988723501  28.623447741084405 25.759387674494775  28.623999999999995 23.311500000000002  C 28.624003692466594 23.309165725210125  28.62400553870075 23.30683144786781  28.62400553870075 23.30449717015748  C 28.62400553870075 20.859532582656556  26.641970126201674 18.87749717015748  24.19700553870075 18.87749717015748  Z M 22.188000000000002 32.0905  L 15.71 25.613500000000002  L 15.282 26.0415  L 0 41.322500000000005  L 6.478 47.8025  L 22.188000000000002 32.0905  Z " fill-rule="nonzero" fill="rgba(239, 41, 41, 1)" stroke="none" class="fill" />
    <path d="M 24.786 0.1975000000000004  C 24.626000000000005 0.1975000000000004  24.426 0.1975000000000004  24.192 0.1975000000000004  C 24.188799223387385 0.19749866994473203  24.185598446515037 0.19749800491707037  24.182397669626084 0.19749800491707037  C 11.420201670536112 0.19749800491707037  1.074397669626089 10.543302005827094  1.074397669626089 23.305498004917066  C 1.074397669626089 27.291908253199885  2.105674202551665 31.21052245939788  4.068 34.6805  L 9.806000000000001 28.946499999999993  C 9.091420098492396 27.133542015090654  8.724545890761506 25.2022587884405  8.724545890761506 23.25355637640188  C 8.724545890761506 14.67933563527881  15.675325149638436 7.728556376401877  24.249545890761507 7.728556376401877  C 32.823766631884574 7.728556376401877  39.7745458907615 14.67933563527881  39.7745458907615 23.25355637640188  C 39.7745458907615 31.827777117524946  32.823766631884574 38.77855637640188  24.249545890761507 38.77855637640188  C 22.456503270277913 38.77855637640188  20.677012719620773 38.46794540718356  18.990000000000002 37.8605  L 13.190000000000001 43.6605  C 20.621130329973504 47.67285108516445  29.64878177607917 47.314014591468386  36.738 42.7245  L 41.524 47.5085  L 48 41.0225  L 43.29999999999999 36.32249999999999  C 45.90601067589588 32.48750960948426  47.29940138776327 27.95786854537981  47.29940138776327 23.321227202960568  C 47.29940138776327 10.786719240972937  37.316025191783645 0.5326992577535812  24.786 0.1975000000000004  Z " stroke-width="0" stroke-dasharray="0" stroke="rgba(255, 255, 255, 0)" fill="none" class="stroke" mask="url(#Clip7120)" />
    <path d="M 24.19700553870075 18.87749717015748  C 24.19533702540155 18.87749717015748  24.193668512232648 18.877498113438467  24.192 18.8775  C 21.74272181681597 18.87749988723501  19.75800011281588 20.862221591235105  19.75800011281588 23.31049988723501  C 19.75800011281588 25.758778183234917  21.74272181681597 27.74349988723501  24.19100011281588 27.74349988723501  C 26.6388878496072 27.74349988723501  28.623447741084405 25.759387674494775  28.623999999999995 23.311500000000002  C 28.624003692466594 23.309165725210125  28.62400553870075 23.30683144786781  28.62400553870075 23.30449717015748  C 28.62400553870075 20.859532582656556  26.641970126201674 18.87749717015748  24.19700553870075 18.87749717015748  Z " stroke-width="0" stroke-dasharray="0" stroke="rgba(255, 255, 255, 0)" fill="none" class="stroke" mask="url(#Clip7120)" />
    <path d="M 22.188000000000002 32.0905  L 15.71 25.613500000000002  L 15.282 26.0415  L 0 41.322500000000005  L 6.478 47.8025  L 22.188000000000002 32.0905  Z " stroke-width="0" stroke-dasharray="0" stroke="rgba(255, 255, 255, 0)" fill="none" class="stroke" mask="url(#Clip7120)" />
  </g>
</svg>