<?xml version="1.0" encoding="utf-8"?>
<svg version="1.1" xmlns:xlink="http://www.w3.org/1999/xlink" width="50px" height="50px" xmlns="http://www.w3.org/2000/svg">
  <defs>
    <pattern id="BGPattern" patternUnits="userSpaceOnUse" alignment="0 0" imageRepeat="None" />
    <mask fill="white" id="Clip2331">
      <path d="M 50 2  C 50 0.8937499999999997  49.10625 0  48 0  L 2 0  C 0.8937499999999997 0  0 0.8937499999999997  0 2  L 0 48  C 0 49.10625  0.8937499999999997 50  2 50  L 48 50  C 49.10625 50  50 49.10625  50 48  L 50 2  Z M 33.373237298107775 25  C 33.373237298107775 25.214562608012507  33.274834906295546 25.417273807684943  33.10625 25.549999999999994  L 20.64375 35.35  C 20.181250000000002 35.7125  19.5 35.3875  20 34.800000000000004  L 20 15.206250000000002  C 19.5 14.618750000000002  20.18125 14.2875  20.64375 14.656250000000002  L 33.10625 24.45  C 33.274834906295546 24.582726192315057  33.373237298107775 24.785437391987482  33.373237298107775 25  Z " fill-rule="evenodd" />
    </mask>
  </defs>
  <g>
    <path d="M 50 2  C 50 0.8937499999999997  49.10625 0  48 0  L 2 0  C 0.8937499999999997 0  0 0.8937499999999997  0 2  L 0 48  C 0 49.10625  0.8937499999999997 50  2 50  L 48 50  C 49.10625 50  50 49.10625  50 48  L 50 2  Z M 33.373237298107775 25  C 33.373237298107775 25.214562608012507  33.274834906295546 25.417273807684943  33.10625 25.549999999999994  L 20.64375 35.35  C 20.181250000000002 35.7125  19.5 35.3875  20 34.800000000000004  L 20 15.206250000000002  C 19.5 14.618750000000002  20.18125 14.2875  20.64375 14.656250000000002  L 33.10625 24.45  C 33.274834906295546 24.582726192315057  33.373237298107775 24.785437391987482  33.373237298107775 25  Z " fill-rule="nonzero" fill="rgba(0, 0, 0, 1)" stroke="none" class="fill" />
    <path d="M 50 2  C 50 0.8937499999999997  49.10625 0  48 0  L 2 0  C 0.8937499999999997 0  0 0.8937499999999997  0 2  L 0 48  C 0 49.10625  0.8937499999999997 50  2 50  L 48 50  C 49.10625 50  50 49.10625  50 48  L 50 2  Z " stroke-width="0" stroke-dasharray="0" stroke="rgba(255, 255, 255, 0)" fill="none" class="stroke" mask="url(#Clip2331)" />
    <path d="M 33.373237298107775 25  C 33.373237298107775 25.214562608012507  33.274834906295546 25.417273807684943  33.10625 25.549999999999994  L 20.64375 35.35  C 20.181250000000002 35.7125  19.5 35.3875  20 34.800000000000004  L 20 15.206250000000002  C 19.5 14.618750000000002  20.18125 14.2875  20.64375 14.656250000000002  L 33.10625 24.45  C 33.274834906295546 24.582726192315057  33.373237298107775 24.785437391987482  33.373237298107775 25  Z " stroke-width="0" stroke-dasharray="0" stroke="rgba(255, 255, 255, 0)" fill="none" class="stroke" mask="url(#Clip2331)" />
  </g>
</svg>