<?xml version="1.0" encoding="utf-8"?>
<svg version="1.1" xmlns:xlink="http://www.w3.org/1999/xlink" width="50px" height="50px" xmlns="http://www.w3.org/2000/svg">
  <defs>
    <pattern id="BGPattern" patternUnits="userSpaceOnUse" alignment="0 0" imageRepeat="None" />
    <mask fill="white" id="Clip1621">
      <path d="M 36.507936507936506 19.84126984126985  C 36.507936507936506 18.521825396825392  35.446428571428584 17.46031746031747  34.12698412698413 17.46031746031747  C 32.8075396825397 17.46031746031747  31.746031746031743 18.521825396825392  31.746031746031743 19.84126984126985  C 31.746031746031743 21.160714285714278  32.8075396825397 22.22222222222223  34.12698412698413 22.22222222222223  C 35.446428571428584 22.22222222222223  36.507936507936506 21.160714285714278  36.507936507936506 19.84126984126985  Z M 49.206349206349216 24.603174603174608  C 49.206349206349216 11.01190476190476  38.19444444444446 0  24.603174603174608 0  C 11.01190476190476 0  0 11.01190476190476  0 24.603174603174608  C 0 35.14880952380952  6.646825396825391 44.117063492063494  15.972222222222229 47.61904761904762  C 15.416666666666657 46.40873015873015  15.07936507936509 45.06944444444446  15.07936507936509 43.650793650793645  L 15.07936507936509 39.13690476190476  C 12.628968253968253 37.5297619047619  10.763888888888886 35.35714285714286  10.337301587301596 32.8075396825397  C 10.138888888888886 31.63690476190476  11.259920634920633 30.674603174603167  12.390873015873012 31.031746031746028  C 15.38690476190476 31.99404761904762  19.84126984126985 32.53968253968253  24.603174603174608 32.53968253968253  C 29.365079365079367 32.53968253968253  33.81944444444446 31.99404761904762  36.815476190476204 31.031746031746028  C 37.956349206349216 30.66468253968253  39.0575396825397 31.63690476190476  38.86904761904762 32.8075396825397  C 38.44246031746033 35.35714285714286  36.57738095238096 37.5297619047619  34.12698412698413 39.13690476190476  L 34.12698412698413 43.650793650793645  C 34.12698412698413 45.06944444444446  33.78968253968256 46.40873015873015  33.23412698412699 47.61904761904762  C 42.559523809523824 44.117063492063494  49.206349206349216 35.14880952380952  49.206349206349216 24.603174603174608  Z M 21.031746031746025 21.25  C 21.190476190476204 22.35119047619048  19.88095238095238 23.055555555555543  19.047619047619037 22.321428571428584  L 18.105158730158735 21.478174603174608  C 16.63690476190476 20.168650793650784  13.521825396825394 20.168650793650784  12.053571428571445 21.478174603174608  L 11.111111111111114 22.321428571428584  C 10.267857142857139 23.055555555555543  8.968253968253975 22.35119047619048  9.146825396825392 21.25  C 9.543650793650784 18.75  12.53968253968253 17.07341269841271  15.089285714285722 17.07341269841271  C 17.638888888888886 17.07341269841271  20.634920634920633 18.75  21.031746031746025 21.25  Z M 40.47619047619048 19.84126984126985  C 40.47619047619048 23.343253968253975  37.62896825396825 26.190476190476204  34.12698412698413 26.190476190476204  C 30.625000000000004 26.190476190476204  27.777777777777775 23.343253968253975  27.777777777777775 19.84126984126985  C 27.777777777777775 16.339285714285722  30.625000000000004 13.492063492063494  34.12698412698413 13.492063492063494  C 37.62896825396825 13.492063492063494  40.47619047619048 16.339285714285722  40.47619047619048 19.84126984126985  Z M 30.962301587301592 37.29166666666666  C 29.027777777777768 36.33928571428572  29.15674603174602 36.40873015873015  29.077380952380967 36.36904761904762  C 27.648809523809547 35.724206349206355  25.992063492063494 36.587301587301596  25.64484126984127 38.11507936507937  L 25.46626984126985 38.888888888888886  C 25.257936507936506 39.80158730158729  23.958333333333343 39.80158730158729  23.75 38.888888888888886  L 23.571428571428584 38.11507936507937  C 23.224206349206355 36.587301587301596  21.56746031746033 35.724206349206355  20.138888888888886 36.36904761904762  C 20.04960317460319 36.40873015873015  20.168650793650784 36.349206349206355  18.263888888888886 37.30158730158729  L 18.263888888888886 43.55158730158729  C 18.263888888888886 47.043650793650784  21.041666666666657 49.95039682539681  24.52380952380952 49.990079365079396  C 28.0654761904762 50.03968253968253  30.962301587301592 47.17261904761904  30.962301587301592 43.64087301587301  L 30.962301587301592 37.29166666666666  Z " fill-rule="evenodd" />
    </mask>
  </defs>
  <g>
    <path d="M 36.507936507936506 19.84126984126985  C 36.507936507936506 18.521825396825392  35.446428571428584 17.46031746031747  34.12698412698413 17.46031746031747  C 32.8075396825397 17.46031746031747  31.746031746031743 18.521825396825392  31.746031746031743 19.84126984126985  C 31.746031746031743 21.160714285714278  32.8075396825397 22.22222222222223  34.12698412698413 22.22222222222223  C 35.446428571428584 22.22222222222223  36.507936507936506 21.160714285714278  36.507936507936506 19.84126984126985  Z M 49.206349206349216 24.603174603174608  C 49.206349206349216 11.01190476190476  38.19444444444446 0  24.603174603174608 0  C 11.01190476190476 0  0 11.01190476190476  0 24.603174603174608  C 0 35.14880952380952  6.646825396825391 44.117063492063494  15.972222222222229 47.61904761904762  C 15.416666666666657 46.40873015873015  15.07936507936509 45.06944444444446  15.07936507936509 43.650793650793645  L 15.07936507936509 39.13690476190476  C 12.628968253968253 37.5297619047619  10.763888888888886 35.35714285714286  10.337301587301596 32.8075396825397  C 10.138888888888886 31.63690476190476  11.259920634920633 30.674603174603167  12.390873015873012 31.031746031746028  C 15.38690476190476 31.99404761904762  19.84126984126985 32.53968253968253  24.603174603174608 32.53968253968253  C 29.365079365079367 32.53968253968253  33.81944444444446 31.99404761904762  36.815476190476204 31.031746031746028  C 37.956349206349216 30.66468253968253  39.0575396825397 31.63690476190476  38.86904761904762 32.8075396825397  C 38.44246031746033 35.35714285714286  36.57738095238096 37.5297619047619  34.12698412698413 39.13690476190476  L 34.12698412698413 43.650793650793645  C 34.12698412698413 45.06944444444446  33.78968253968256 46.40873015873015  33.23412698412699 47.61904761904762  C 42.559523809523824 44.117063492063494  49.206349206349216 35.14880952380952  49.206349206349216 24.603174603174608  Z M 21.031746031746025 21.25  C 21.190476190476204 22.35119047619048  19.88095238095238 23.055555555555543  19.047619047619037 22.321428571428584  L 18.105158730158735 21.478174603174608  C 16.63690476190476 20.168650793650784  13.521825396825394 20.168650793650784  12.053571428571445 21.478174603174608  L 11.111111111111114 22.321428571428584  C 10.267857142857139 23.055555555555543  8.968253968253975 22.35119047619048  9.146825396825392 21.25  C 9.543650793650784 18.75  12.53968253968253 17.07341269841271  15.089285714285722 17.07341269841271  C 17.638888888888886 17.07341269841271  20.634920634920633 18.75  21.031746031746025 21.25  Z M 40.47619047619048 19.84126984126985  C 40.47619047619048 23.343253968253975  37.62896825396825 26.190476190476204  34.12698412698413 26.190476190476204  C 30.625000000000004 26.190476190476204  27.777777777777775 23.343253968253975  27.777777777777775 19.84126984126985  C 27.777777777777775 16.339285714285722  30.625000000000004 13.492063492063494  34.12698412698413 13.492063492063494  C 37.62896825396825 13.492063492063494  40.47619047619048 16.339285714285722  40.47619047619048 19.84126984126985  Z M 30.962301587301592 37.29166666666666  C 29.027777777777768 36.33928571428572  29.15674603174602 36.40873015873015  29.077380952380967 36.36904761904762  C 27.648809523809547 35.724206349206355  25.992063492063494 36.587301587301596  25.64484126984127 38.11507936507937  L 25.46626984126985 38.888888888888886  C 25.257936507936506 39.80158730158729  23.958333333333343 39.80158730158729  23.75 38.888888888888886  L 23.571428571428584 38.11507936507937  C 23.224206349206355 36.587301587301596  21.56746031746033 35.724206349206355  20.138888888888886 36.36904761904762  C 20.04960317460319 36.40873015873015  20.168650793650784 36.349206349206355  18.263888888888886 37.30158730158729  L 18.263888888888886 43.55158730158729  C 18.263888888888886 47.043650793650784  21.041666666666657 49.95039682539681  24.52380952380952 49.990079365079396  C 28.0654761904762 50.03968253968253  30.962301587301592 47.17261904761904  30.962301587301592 43.64087301587301  L 30.962301587301592 37.29166666666666  Z " fill-rule="nonzero" fill="rgba(0, 0, 0, 1)" stroke="none" class="fill" />
    <path d="M 36.507936507936506 19.84126984126985  C 36.507936507936506 18.521825396825392  35.446428571428584 17.46031746031747  34.12698412698413 17.46031746031747  C 32.8075396825397 17.46031746031747  31.746031746031743 18.521825396825392  31.746031746031743 19.84126984126985  C 31.746031746031743 21.160714285714278  32.8075396825397 22.22222222222223  34.12698412698413 22.22222222222223  C 35.446428571428584 22.22222222222223  36.507936507936506 21.160714285714278  36.507936507936506 19.84126984126985  Z " stroke-width="0" stroke-dasharray="0" stroke="rgba(255, 255, 255, 0)" fill="none" class="stroke" mask="url(#Clip1621)" />
    <path d="M 49.206349206349216 24.603174603174608  C 49.206349206349216 11.01190476190476  38.19444444444446 0  24.603174603174608 0  C 11.01190476190476 0  0 11.01190476190476  0 24.603174603174608  C 0 35.14880952380952  6.646825396825391 44.117063492063494  15.972222222222229 47.61904761904762  C 15.416666666666657 46.40873015873015  15.07936507936509 45.06944444444446  15.07936507936509 43.650793650793645  L 15.07936507936509 39.13690476190476  C 12.628968253968253 37.5297619047619  10.763888888888886 35.35714285714286  10.337301587301596 32.8075396825397  C 10.138888888888886 31.63690476190476  11.259920634920633 30.674603174603167  12.390873015873012 31.031746031746028  C 15.38690476190476 31.99404761904762  19.84126984126985 32.53968253968253  24.603174603174608 32.53968253968253  C 29.365079365079367 32.53968253968253  33.81944444444446 31.99404761904762  36.815476190476204 31.031746031746028  C 37.956349206349216 30.66468253968253  39.0575396825397 31.63690476190476  38.86904761904762 32.8075396825397  C 38.44246031746033 35.35714285714286  36.57738095238096 37.5297619047619  34.12698412698413 39.13690476190476  L 34.12698412698413 43.650793650793645  C 34.12698412698413 45.06944444444446  33.78968253968256 46.40873015873015  33.23412698412699 47.61904761904762  C 42.559523809523824 44.117063492063494  49.206349206349216 35.14880952380952  49.206349206349216 24.603174603174608  Z " stroke-width="0" stroke-dasharray="0" stroke="rgba(255, 255, 255, 0)" fill="none" class="stroke" mask="url(#Clip1621)" />
    <path d="M 21.031746031746025 21.25  C 21.190476190476204 22.35119047619048  19.88095238095238 23.055555555555543  19.047619047619037 22.321428571428584  L 18.105158730158735 21.478174603174608  C 16.63690476190476 20.168650793650784  13.521825396825394 20.168650793650784  12.053571428571445 21.478174603174608  L 11.111111111111114 22.321428571428584  C 10.267857142857139 23.055555555555543  8.968253968253975 22.35119047619048  9.146825396825392 21.25  C 9.543650793650784 18.75  12.53968253968253 17.07341269841271  15.089285714285722 17.07341269841271  C 17.638888888888886 17.07341269841271  20.634920634920633 18.75  21.031746031746025 21.25  Z " stroke-width="0" stroke-dasharray="0" stroke="rgba(255, 255, 255, 0)" fill="none" class="stroke" mask="url(#Clip1621)" />
    <path d="M 40.47619047619048 19.84126984126985  C 40.47619047619048 23.343253968253975  37.62896825396825 26.190476190476204  34.12698412698413 26.190476190476204  C 30.625000000000004 26.190476190476204  27.777777777777775 23.343253968253975  27.777777777777775 19.84126984126985  C 27.777777777777775 16.339285714285722  30.625000000000004 13.492063492063494  34.12698412698413 13.492063492063494  C 37.62896825396825 13.492063492063494  40.47619047619048 16.339285714285722  40.47619047619048 19.84126984126985  Z " stroke-width="0" stroke-dasharray="0" stroke="rgba(255, 255, 255, 0)" fill="none" class="stroke" mask="url(#Clip1621)" />
    <path d="M 30.962301587301592 37.29166666666666  C 29.027777777777768 36.33928571428572  29.15674603174602 36.40873015873015  29.077380952380967 36.36904761904762  C 27.648809523809547 35.724206349206355  25.992063492063494 36.587301587301596  25.64484126984127 38.11507936507937  L 25.46626984126985 38.888888888888886  C 25.257936507936506 39.80158730158729  23.958333333333343 39.80158730158729  23.75 38.888888888888886  L 23.571428571428584 38.11507936507937  C 23.224206349206355 36.587301587301596  21.56746031746033 35.724206349206355  20.138888888888886 36.36904761904762  C 20.04960317460319 36.40873015873015  20.168650793650784 36.349206349206355  18.263888888888886 37.30158730158729  L 18.263888888888886 43.55158730158729  C 18.263888888888886 47.043650793650784  21.041666666666657 49.95039682539681  24.52380952380952 49.990079365079396  C 28.0654761904762 50.03968253968253  30.962301587301592 47.17261904761904  30.962301587301592 43.64087301587301  L 30.962301587301592 37.29166666666666  Z " stroke-width="0" stroke-dasharray="0" stroke="rgba(255, 255, 255, 0)" fill="none" class="stroke" mask="url(#Clip1621)" />
  </g>
</svg>