<?xml version="1.0" encoding="utf-8"?>
<svg version="1.1" xmlns:xlink="http://www.w3.org/1999/xlink" width="22px" height="17px" xmlns="http://www.w3.org/2000/svg">
  <defs>
    <pattern id="BGPattern" patternUnits="userSpaceOnUse" alignment="0 0" imageRepeat="None" />
    <mask fill="white" id="Clip5873">
      <path d="M 7.25 16  C 6.835786437626905 16  6.5 15.664213562373096  6.5 15.25  C 6.5 14.835786437626904  6.835786437626905 14.5  7.25 14.5  L 20.75 14.5  C 21.164213562373096 14.5  21.5 14.835786437626904  21.5 15.25  C 21.5 15.664213562373096  21.164213562373096 16  20.75 16  L 7.25 16  Z M 7.25 10  C 6.835786437626905 10  6.5 9.664213562373096  6.5 9.25  C 6.5 8.835786437626904  6.835786437626905 8.5  7.25 8.5  L 20.75 8.5  C 21.164213562373096 8.5  21.5 8.835786437626904  21.5 9.25  C 21.5 9.664213562373096  21.164213562373096 10  20.75 10  L 7.25 10  Z M 7.25 4  C 6.835786437626905 4  6.5 3.664213562373095  6.5 3.25  C 6.5 2.835786437626905  6.835786437626905 2.5  7.25 2.5  L 20.75 2.5  C 21.164213562373096 2.5  21.5 2.835786437626905  21.5 3.25  C 21.5 3.664213562373095  21.164213562373096 4  20.75 4  L 7.25 4  Z M 4.25 0.9986593244718716  C 4.449240891287362 0.9986593244718716  4.64029360548475 1.0779374489685476  4.781000000000001 1.2189999999999999  C 4.922062551031452 1.3597063945152503  5.0013406755281276 1.5507591087126378  5.0013406755281276 1.75  C 5.0013406755281276 1.9492408912873618  4.922062551031452 2.14029360548475  4.781000000000001 2.2810000000000006  L 2.531 4.531000000000001  C 2.3902936054847497 4.672062551031452  2.199240891287362 4.7513406755281276  2 4.7513406755281276  C 1.8007591087126384 4.7513406755281276  1.6097063945152508 4.672062551031452  1.4690000000000003 4.531000000000001  L 0.7190000000000003 3.7810000000000006  C 0.5781700438952022 3.6401700438952025  0.49905259837988636 3.4491636339118124  0.49905259837988636 3.25  C 0.49905259837988636 2.835263202160151  0.8352632021601512 2.499052598379887  1.25 2.499052598379887  C 1.4491636339118126 2.499052598379887  1.6401700438952025 2.578170043895202  1.7810000000000001 2.7189999999999994  L 2 2.9395000000000007  L 3.7189999999999994 1.2189999999999999  C 3.85970639451525 1.0779374489685476  4.050759108712638 0.9986593244718716  4.25 0.9986593244718716  Z M 4.25 6.998659324471873  C 4.449240891287362 6.998659324471873  4.64029360548475 7.077937448968548  4.781000000000001 7.218999999999999  C 4.922062551031452 7.35970639451525  5.0013406755281276 7.550759108712638  5.0013406755281276 7.75  C 5.0013406755281276 7.94924089128736  4.922062551031452 8.14029360548475  4.781000000000001 8.281  L 2.531 10.530999999999999  C 2.39029360548475 10.672062551031452  2.1992408912873618 10.751340675528127  2 10.751340675528127  C 1.8007591087126373 10.751340675528127  1.6097063945152508 10.672062551031452  1.4690000000000003 10.530999999999999  L 0.7190000000000003 9.780999999999999  C 0.5781700438952022 9.640170043895202  0.49905259837988636 9.449163633911812  0.49905259837988636 9.249999999999996  C 0.49905259837988636 8.83526320216015  0.8352632021601512 8.499052598379885  1.25 8.499052598379885  C 1.4491636339118126 8.499052598379885  1.6401700438952025 8.5781700438952  1.7810000000000001 8.718999999999998  L 2 8.9395  L 3.7189999999999994 7.218999999999999  C 3.85970639451525 7.077937448968548  4.050759108712638 6.998659324471873  4.25 6.998659324471873  Z M 4.25 12.998659324471873  C 4.449240891287362 12.998659324471873  4.64029360548475 13.077937448968548  4.781000000000001 13.219000000000001  C 4.922062551031452 13.359706394515252  5.0013406755281276 13.55075910871264  5.0013406755281276 13.75  C 5.0013406755281276 13.94924089128736  4.922062551031452 14.14029360548475  4.781000000000001 14.281000000000002  L 2.531 16.531000000000002  C 2.39029360548475 16.672062551031452  2.1992408912873618 16.75134067552813  2 16.75134067552813  C 1.8007591087126373 16.75134067552813  1.6097063945152508 16.672062551031452  1.4690000000000003 16.531000000000002  L 0.7190000000000003 15.781000000000002  C 0.5781700438952009 15.640170043895203  0.49905259837988636 15.449163633911812  0.49905259837988636 15.25  C 0.49905259837988636 14.83526320216015  0.8352632021601512 14.499052598379883  1.25 14.499052598379883  C 1.4491636339118155 14.499052598379883  1.6401700438952007 14.578170043895202  1.7810000000000001 14.719000000000001  L 2 14.939500000000002  L 3.7189999999999994 13.219000000000001  C 3.85970639451525 13.077937448968548  4.050759108712638 12.998659324471873  4.25 12.998659324471873  Z " fill-rule="evenodd" />
    </mask>
  </defs>
  <g>
    <path d="M 7.25 16  C 6.835786437626905 16  6.5 15.664213562373096  6.5 15.25  C 6.5 14.835786437626904  6.835786437626905 14.5  7.25 14.5  L 20.75 14.5  C 21.164213562373096 14.5  21.5 14.835786437626904  21.5 15.25  C 21.5 15.664213562373096  21.164213562373096 16  20.75 16  L 7.25 16  Z M 7.25 10  C 6.835786437626905 10  6.5 9.664213562373096  6.5 9.25  C 6.5 8.835786437626904  6.835786437626905 8.5  7.25 8.5  L 20.75 8.5  C 21.164213562373096 8.5  21.5 8.835786437626904  21.5 9.25  C 21.5 9.664213562373096  21.164213562373096 10  20.75 10  L 7.25 10  Z M 7.25 4  C 6.835786437626905 4  6.5 3.664213562373095  6.5 3.25  C 6.5 2.835786437626905  6.835786437626905 2.5  7.25 2.5  L 20.75 2.5  C 21.164213562373096 2.5  21.5 2.835786437626905  21.5 3.25  C 21.5 3.664213562373095  21.164213562373096 4  20.75 4  L 7.25 4  Z M 4.25 0.9986593244718716  C 4.449240891287362 0.9986593244718716  4.64029360548475 1.0779374489685476  4.781000000000001 1.2189999999999999  C 4.922062551031452 1.3597063945152503  5.0013406755281276 1.5507591087126378  5.0013406755281276 1.75  C 5.0013406755281276 1.9492408912873618  4.922062551031452 2.14029360548475  4.781000000000001 2.2810000000000006  L 2.531 4.531000000000001  C 2.3902936054847497 4.672062551031452  2.199240891287362 4.7513406755281276  2 4.7513406755281276  C 1.8007591087126384 4.7513406755281276  1.6097063945152508 4.672062551031452  1.4690000000000003 4.531000000000001  L 0.7190000000000003 3.7810000000000006  C 0.5781700438952022 3.6401700438952025  0.49905259837988636 3.4491636339118124  0.49905259837988636 3.25  C 0.49905259837988636 2.835263202160151  0.8352632021601512 2.499052598379887  1.25 2.499052598379887  C 1.4491636339118126 2.499052598379887  1.6401700438952025 2.578170043895202  1.7810000000000001 2.7189999999999994  L 2 2.9395000000000007  L 3.7189999999999994 1.2189999999999999  C 3.85970639451525 1.0779374489685476  4.050759108712638 0.9986593244718716  4.25 0.9986593244718716  Z M 4.25 6.998659324471873  C 4.449240891287362 6.998659324471873  4.64029360548475 7.077937448968548  4.781000000000001 7.218999999999999  C 4.922062551031452 7.35970639451525  5.0013406755281276 7.550759108712638  5.0013406755281276 7.75  C 5.0013406755281276 7.94924089128736  4.922062551031452 8.14029360548475  4.781000000000001 8.281  L 2.531 10.530999999999999  C 2.39029360548475 10.672062551031452  2.1992408912873618 10.751340675528127  2 10.751340675528127  C 1.8007591087126373 10.751340675528127  1.6097063945152508 10.672062551031452  1.4690000000000003 10.530999999999999  L 0.7190000000000003 9.780999999999999  C 0.5781700438952022 9.640170043895202  0.49905259837988636 9.449163633911812  0.49905259837988636 9.249999999999996  C 0.49905259837988636 8.83526320216015  0.8352632021601512 8.499052598379885  1.25 8.499052598379885  C 1.4491636339118126 8.499052598379885  1.6401700438952025 8.5781700438952  1.7810000000000001 8.718999999999998  L 2 8.9395  L 3.7189999999999994 7.218999999999999  C 3.85970639451525 7.077937448968548  4.050759108712638 6.998659324471873  4.25 6.998659324471873  Z M 4.25 12.998659324471873  C 4.449240891287362 12.998659324471873  4.64029360548475 13.077937448968548  4.781000000000001 13.219000000000001  C 4.922062551031452 13.359706394515252  5.0013406755281276 13.55075910871264  5.0013406755281276 13.75  C 5.0013406755281276 13.94924089128736  4.922062551031452 14.14029360548475  4.781000000000001 14.281000000000002  L 2.531 16.531000000000002  C 2.39029360548475 16.672062551031452  2.1992408912873618 16.75134067552813  2 16.75134067552813  C 1.8007591087126373 16.75134067552813  1.6097063945152508 16.672062551031452  1.4690000000000003 16.531000000000002  L 0.7190000000000003 15.781000000000002  C 0.5781700438952009 15.640170043895203  0.49905259837988636 15.449163633911812  0.49905259837988636 15.25  C 0.49905259837988636 14.83526320216015  0.8352632021601512 14.499052598379883  1.25 14.499052598379883  C 1.4491636339118155 14.499052598379883  1.6401700438952007 14.578170043895202  1.7810000000000001 14.719000000000001  L 2 14.939500000000002  L 3.7189999999999994 13.219000000000001  C 3.85970639451525 13.077937448968548  4.050759108712638 12.998659324471873  4.25 12.998659324471873  Z " fill-rule="nonzero" fill="rgba(0, 0, 0, 1)" stroke="none" class="fill" />
    <path d="M 7.25 16  C 6.835786437626905 16  6.5 15.664213562373096  6.5 15.25  C 6.5 14.835786437626904  6.835786437626905 14.5  7.25 14.5  L 20.75 14.5  C 21.164213562373096 14.5  21.5 14.835786437626904  21.5 15.25  C 21.5 15.664213562373096  21.164213562373096 16  20.75 16  L 7.25 16  Z " stroke-width="0" stroke-dasharray="0" stroke="rgba(255, 255, 255, 0)" fill="none" class="stroke" mask="url(#Clip5873)" />
    <path d="M 7.25 10  C 6.835786437626905 10  6.5 9.664213562373096  6.5 9.25  C 6.5 8.835786437626904  6.835786437626905 8.5  7.25 8.5  L 20.75 8.5  C 21.164213562373096 8.5  21.5 8.835786437626904  21.5 9.25  C 21.5 9.664213562373096  21.164213562373096 10  20.75 10  L 7.25 10  Z " stroke-width="0" stroke-dasharray="0" stroke="rgba(255, 255, 255, 0)" fill="none" class="stroke" mask="url(#Clip5873)" />
    <path d="M 7.25 4  C 6.835786437626905 4  6.5 3.664213562373095  6.5 3.25  C 6.5 2.835786437626905  6.835786437626905 2.5  7.25 2.5  L 20.75 2.5  C 21.164213562373096 2.5  21.5 2.835786437626905  21.5 3.25  C 21.5 3.664213562373095  21.164213562373096 4  20.75 4  L 7.25 4  Z " stroke-width="0" stroke-dasharray="0" stroke="rgba(255, 255, 255, 0)" fill="none" class="stroke" mask="url(#Clip5873)" />
    <path d="M 4.25 0.9986593244718716  C 4.449240891287362 0.9986593244718716  4.64029360548475 1.0779374489685476  4.781000000000001 1.2189999999999999  C 4.922062551031452 1.3597063945152503  5.0013406755281276 1.5507591087126378  5.0013406755281276 1.75  C 5.0013406755281276 1.9492408912873618  4.922062551031452 2.14029360548475  4.781000000000001 2.2810000000000006  L 2.531 4.531000000000001  C 2.3902936054847497 4.672062551031452  2.199240891287362 4.7513406755281276  2 4.7513406755281276  C 1.8007591087126384 4.7513406755281276  1.6097063945152508 4.672062551031452  1.4690000000000003 4.531000000000001  L 0.7190000000000003 3.7810000000000006  C 0.5781700438952022 3.6401700438952025  0.49905259837988636 3.4491636339118124  0.49905259837988636 3.25  C 0.49905259837988636 2.835263202160151  0.8352632021601512 2.499052598379887  1.25 2.499052598379887  C 1.4491636339118126 2.499052598379887  1.6401700438952025 2.578170043895202  1.7810000000000001 2.7189999999999994  L 2 2.9395000000000007  L 3.7189999999999994 1.2189999999999999  C 3.85970639451525 1.0779374489685476  4.050759108712638 0.9986593244718716  4.25 0.9986593244718716  Z " stroke-width="0" stroke-dasharray="0" stroke="rgba(255, 255, 255, 0)" fill="none" class="stroke" mask="url(#Clip5873)" />
    <path d="M 4.25 6.998659324471873  C 4.449240891287362 6.998659324471873  4.64029360548475 7.077937448968548  4.781000000000001 7.218999999999999  C 4.922062551031452 7.35970639451525  5.0013406755281276 7.550759108712638  5.0013406755281276 7.75  C 5.0013406755281276 7.94924089128736  4.922062551031452 8.14029360548475  4.781000000000001 8.281  L 2.531 10.530999999999999  C 2.39029360548475 10.672062551031452  2.1992408912873618 10.751340675528127  2 10.751340675528127  C 1.8007591087126373 10.751340675528127  1.6097063945152508 10.672062551031452  1.4690000000000003 10.530999999999999  L 0.7190000000000003 9.780999999999999  C 0.5781700438952022 9.640170043895202  0.49905259837988636 9.449163633911812  0.49905259837988636 9.249999999999996  C 0.49905259837988636 8.83526320216015  0.8352632021601512 8.499052598379885  1.25 8.499052598379885  C 1.4491636339118126 8.499052598379885  1.6401700438952025 8.5781700438952  1.7810000000000001 8.718999999999998  L 2 8.9395  L 3.7189999999999994 7.218999999999999  C 3.85970639451525 7.077937448968548  4.050759108712638 6.998659324471873  4.25 6.998659324471873  Z " stroke-width="0" stroke-dasharray="0" stroke="rgba(255, 255, 255, 0)" fill="none" class="stroke" mask="url(#Clip5873)" />
    <path d="M 4.25 12.998659324471873  C 4.449240891287362 12.998659324471873  4.64029360548475 13.077937448968548  4.781000000000001 13.219000000000001  C 4.922062551031452 13.359706394515252  5.0013406755281276 13.55075910871264  5.0013406755281276 13.75  C 5.0013406755281276 13.94924089128736  4.922062551031452 14.14029360548475  4.781000000000001 14.281000000000002  L 2.531 16.531000000000002  C 2.39029360548475 16.672062551031452  2.1992408912873618 16.75134067552813  2 16.75134067552813  C 1.8007591087126373 16.75134067552813  1.6097063945152508 16.672062551031452  1.4690000000000003 16.531000000000002  L 0.7190000000000003 15.781000000000002  C 0.5781700438952009 15.640170043895203  0.49905259837988636 15.449163633911812  0.49905259837988636 15.25  C 0.49905259837988636 14.83526320216015  0.8352632021601512 14.499052598379883  1.25 14.499052598379883  C 1.4491636339118155 14.499052598379883  1.6401700438952007 14.578170043895202  1.7810000000000001 14.719000000000001  L 2 14.939500000000002  L 3.7189999999999994 13.219000000000001  C 3.85970639451525 13.077937448968548  4.050759108712638 12.998659324471873  4.25 12.998659324471873  Z " stroke-width="0" stroke-dasharray="0" stroke="rgba(255, 255, 255, 0)" fill="none" class="stroke" mask="url(#Clip5873)" />
  </g>
</svg>