<?xml version="1.0" encoding="utf-8"?>
<svg version="1.1" xmlns:xlink="http://www.w3.org/1999/xlink" width="18px" height="18px" xmlns="http://www.w3.org/2000/svg">
  <defs>
    <pattern id="BGPattern" patternUnits="userSpaceOnUse" alignment="0 0" imageRepeat="None" />
    <mask fill="white" id="Clip6031">
      <path d="M 16.499999999999996 0.5623252032021706  C 16.748683289630435 0.5623252032021706  16.987177544552235 0.6611311775733526  17.162999999999997 0.8369999999999989  C 17.338868822426644 1.0128224554477647  17.437674796797825 1.2513167103695606  17.437674796797825 1.4999999999999991  C 17.437674796797825 1.7486832896304376  17.338868822426644 1.9871775445522335  17.163 2.1629999999999994  L 2.1630000000000007 17.162999999999997  C 1.987161467236382 17.338838532763617  1.748673237822095 17.43762359185336  1.5000000000000004 17.43762359185336  C 0.9821647891378169 17.43762359185336  0.5623764081466383 17.01783521086218  0.5623764081466383 16.499999999999996  C 0.5623764081466383 16.251326762177904  0.6611614672363832 16.012838532763617  0.8370000000000011 15.837  L 15.836999999999996 0.8369999999999989  C 16.01282245544776 0.6611311775733522  16.251316710369558 0.5623252032021706  16.499999999999996 0.5623252032021706  Z M 0 3.75  C 0 5.8210678118654755  1.678932188134525 7.499999999999998  3.7499999999999987 7.499999999999998  C 5.8210678118654755 7.499999999999998  7.4999999999999964 5.8210678118654755  7.4999999999999964 3.75  C 7.4999999999999964 1.6789321881345254  5.8210678118654755 0  3.7499999999999987 0  C 1.678932188134525 0  0 1.6789321881345245  0 3.75  Z M 10.5 14.25  C 10.5 16.321067811865472  12.178932188134524 17.999999999999996  14.25 17.999999999999996  C 16.321067811865472 17.999999999999996  17.999999999999996 16.321067811865472  17.999999999999996 14.25  C 17.999999999999996 12.178932188134524  16.321067811865472 10.5  14.25 10.5  C 12.178932188134524 10.5  10.5 12.178932188134524  10.5 14.25  Z M 6 3.75  C 6 4.992640687119285  4.992640687119286 6  3.750000000000001 6  C 2.507359312880716 6  1.5000000000000004 4.992640687119285  1.5000000000000004 3.75  C 1.5000000000000004 2.5073593128807152  2.507359312880716 1.5  3.750000000000001 1.5  C 4.992640687119286 1.5  6 2.5073593128807152  6 3.75  Z M 16.5 14.25  C 16.5 15.492640687119284  15.492640687119284 16.5  14.25 16.5  C 13.007359312880713 16.5  12 15.492640687119284  12 14.25  C 12 13.007359312880713  13.007359312880713 12  14.25 12  C 15.492640687119284 12  16.5 13.007359312880713  16.5 14.25  Z " fill-rule="evenodd" />
    </mask>
  </defs>
  <g>
    <path d="M 16.499999999999996 0.5623252032021706  C 16.748683289630435 0.5623252032021706  16.987177544552235 0.6611311775733526  17.162999999999997 0.8369999999999989  C 17.338868822426644 1.0128224554477647  17.437674796797825 1.2513167103695606  17.437674796797825 1.4999999999999991  C 17.437674796797825 1.7486832896304376  17.338868822426644 1.9871775445522335  17.163 2.1629999999999994  L 2.1630000000000007 17.162999999999997  C 1.987161467236382 17.338838532763617  1.748673237822095 17.43762359185336  1.5000000000000004 17.43762359185336  C 0.9821647891378169 17.43762359185336  0.5623764081466383 17.01783521086218  0.5623764081466383 16.499999999999996  C 0.5623764081466383 16.251326762177904  0.6611614672363832 16.012838532763617  0.8370000000000011 15.837  L 15.836999999999996 0.8369999999999989  C 16.01282245544776 0.6611311775733522  16.251316710369558 0.5623252032021706  16.499999999999996 0.5623252032021706  Z M 0 3.75  C 0 5.8210678118654755  1.678932188134525 7.499999999999998  3.7499999999999987 7.499999999999998  C 5.8210678118654755 7.499999999999998  7.4999999999999964 5.8210678118654755  7.4999999999999964 3.75  C 7.4999999999999964 1.6789321881345254  5.8210678118654755 0  3.7499999999999987 0  C 1.678932188134525 0  0 1.6789321881345245  0 3.75  Z M 10.5 14.25  C 10.5 16.321067811865472  12.178932188134524 17.999999999999996  14.25 17.999999999999996  C 16.321067811865472 17.999999999999996  17.999999999999996 16.321067811865472  17.999999999999996 14.25  C 17.999999999999996 12.178932188134524  16.321067811865472 10.5  14.25 10.5  C 12.178932188134524 10.5  10.5 12.178932188134524  10.5 14.25  Z M 6 3.75  C 6 4.992640687119285  4.992640687119286 6  3.750000000000001 6  C 2.507359312880716 6  1.5000000000000004 4.992640687119285  1.5000000000000004 3.75  C 1.5000000000000004 2.5073593128807152  2.507359312880716 1.5  3.750000000000001 1.5  C 4.992640687119286 1.5  6 2.5073593128807152  6 3.75  Z M 16.5 14.25  C 16.5 15.492640687119284  15.492640687119284 16.5  14.25 16.5  C 13.007359312880713 16.5  12 15.492640687119284  12 14.25  C 12 13.007359312880713  13.007359312880713 12  14.25 12  C 15.492640687119284 12  16.5 13.007359312880713  16.5 14.25  Z " fill-rule="nonzero" fill="rgba(0, 0, 0, 1)" stroke="none" class="fill" />
    <path d="M 16.499999999999996 0.5623252032021706  C 16.748683289630435 0.5623252032021706  16.987177544552235 0.6611311775733526  17.162999999999997 0.8369999999999989  C 17.338868822426644 1.0128224554477647  17.437674796797825 1.2513167103695606  17.437674796797825 1.4999999999999991  C 17.437674796797825 1.7486832896304376  17.338868822426644 1.9871775445522335  17.163 2.1629999999999994  L 2.1630000000000007 17.162999999999997  C 1.987161467236382 17.338838532763617  1.748673237822095 17.43762359185336  1.5000000000000004 17.43762359185336  C 0.9821647891378169 17.43762359185336  0.5623764081466383 17.01783521086218  0.5623764081466383 16.499999999999996  C 0.5623764081466383 16.251326762177904  0.6611614672363832 16.012838532763617  0.8370000000000011 15.837  L 15.836999999999996 0.8369999999999989  C 16.01282245544776 0.6611311775733522  16.251316710369558 0.5623252032021706  16.499999999999996 0.5623252032021706  Z " stroke-width="0" stroke-dasharray="0" stroke="rgba(255, 255, 255, 0)" fill="none" class="stroke" mask="url(#Clip6031)" />
    <path d="M 0 3.75  C 0 5.8210678118654755  1.678932188134525 7.499999999999998  3.7499999999999987 7.499999999999998  C 5.8210678118654755 7.499999999999998  7.4999999999999964 5.8210678118654755  7.4999999999999964 3.75  C 7.4999999999999964 1.6789321881345254  5.8210678118654755 0  3.7499999999999987 0  C 1.678932188134525 0  0 1.6789321881345245  0 3.75  Z " stroke-width="0" stroke-dasharray="0" stroke="rgba(255, 255, 255, 0)" fill="none" class="stroke" mask="url(#Clip6031)" />
    <path d="M 10.5 14.25  C 10.5 16.321067811865472  12.178932188134524 17.999999999999996  14.25 17.999999999999996  C 16.321067811865472 17.999999999999996  17.999999999999996 16.321067811865472  17.999999999999996 14.25  C 17.999999999999996 12.178932188134524  16.321067811865472 10.5  14.25 10.5  C 12.178932188134524 10.5  10.5 12.178932188134524  10.5 14.25  Z " stroke-width="0" stroke-dasharray="0" stroke="rgba(255, 255, 255, 0)" fill="none" class="stroke" mask="url(#Clip6031)" />
    <path d="M 6 3.75  C 6 4.992640687119285  4.992640687119286 6  3.750000000000001 6  C 2.507359312880716 6  1.5000000000000004 4.992640687119285  1.5000000000000004 3.75  C 1.5000000000000004 2.5073593128807152  2.507359312880716 1.5  3.750000000000001 1.5  C 4.992640687119286 1.5  6 2.5073593128807152  6 3.75  Z " stroke-width="0" stroke-dasharray="0" stroke="rgba(255, 255, 255, 0)" fill="none" class="stroke" mask="url(#Clip6031)" />
    <path d="M 16.5 14.25  C 16.5 15.492640687119284  15.492640687119284 16.5  14.25 16.5  C 13.007359312880713 16.5  12 15.492640687119284  12 14.25  C 12 13.007359312880713  13.007359312880713 12  14.25 12  C 15.492640687119284 12  16.5 13.007359312880713  16.5 14.25  Z " stroke-width="0" stroke-dasharray="0" stroke="rgba(255, 255, 255, 0)" fill="none" class="stroke" mask="url(#Clip6031)" />
  </g>
</svg>