<?xml version="1.0" encoding="utf-8"?>
<svg version="1.1" xmlns:xlink="http://www.w3.org/1999/xlink" width="48px" height="48px" xmlns="http://www.w3.org/2000/svg">
  <defs>
    <pattern id="BGPattern" patternUnits="userSpaceOnUse" alignment="0 0" imageRepeat="None" />
    <mask fill="white" id="Clip6606">
      <path d="M 14.868000000000002 24.5  L 14.869999999999997 24.5  C 14.71 24.55  14.57 24.644  14.466000000000001 24.769999999999996  C 14.370000000000001 24.913999999999998  14.319999999999997 25.086  14.326 25.259999999999998  C 14.326 25.56  14.402 25.763999999999996  14.565999999999999 25.875999999999998  C 14.719999999999999 25.987999999999992  14.954 26.04  15.27 26.04  C 15.443999999999999 26.04  15.618000000000002 26  15.798 25.919999999999995  C 15.977999999999998 25.844  16.146 25.729999999999997  16.288 25.589999999999996  L 16.288 24.27  C 15.951999999999998 24.299999999999997  15.681999999999999 24.33  15.478000000000002 24.36  C 15.268 24.380000000000003  15.064 24.428  14.868000000000002 24.5  Z M 48 24  L 24 0  L 0 24  L 24 48  L 48 24  Z M 38.714 24  C 38.71 32.126  32.126 38.71  24 38.714  C 15.876 38.71  9.29 32.126  9.286 24  C 9.29 15.876  15.876 9.288  24 9.284  C 32.126 9.288  38.71 15.873999999999999  38.714 24  Z M 24 10.751999999999997  L 24 10.754  L 24 10.758  C 16.692 10.758  10.76 16.689999999999998  10.76 23.997999999999998  C 10.76 31.305999999999997  16.692 37.238  24 37.238  C 31.308 37.238  37.24 31.305999999999997  37.24 23.997999999999998  C 37.24 16.685999999999996  31.311999999999998 10.757999999999997  24 10.751999999999997  Z M 18.276 27.248000000000005  L 18.276 27.246000000000002  L 16.286 27.246000000000002  L 16.286 26.574  L 15.922 26.881999999999998  C 15.637999999999998 27.098000000000003  15.314 27.258000000000003  14.968 27.348000000000006  C 14.804 27.387999999999998  14.564 27.418000000000006  14.264 27.418000000000006  C 13.739999999999998 27.432000000000002  13.234 27.224000000000004  12.867999999999999 26.848  C 12.494 26.468000000000004  12.313999999999997 25.996000000000002  12.313999999999997 25.416000000000004  C 12.313999999999997 24.940000000000005  12.405999999999999 24.562000000000005  12.593999999999998 24.268  C 12.793999999999997 23.968000000000004  13.073999999999998 23.728000000000005  13.403999999999996 23.572000000000003  C 13.813999999999997 23.392000000000003  14.249999999999996 23.268000000000004  14.695999999999998 23.212000000000003  C 15.195999999999998 23.146000000000004  15.727999999999998 23.092000000000002  16.302 23.056000000000004  L 16.302 23.022000000000006  C 16.302 22.670000000000005  16.169999999999998 22.428000000000004  15.91 22.296000000000006  C 15.65 22.156000000000006  15.266 22.092000000000006  14.75 22.092000000000006  C 14.516 22.092000000000006  14.242 22.132000000000005  13.93 22.218000000000007  C 13.613999999999997 22.306000000000008  13.314 22.418000000000006  13.014 22.546000000000006  L 12.84 22.546000000000006  L 12.84 21.006000000000007  C 13.034 20.94600000000001  13.352 20.88200000000001  13.8 20.806000000000008  C 14.233999999999998 20.72600000000001  14.676000000000002 20.686000000000007  15.126000000000001 20.686000000000007  C 16.226000000000003 20.686000000000007  17.026 20.870000000000008  17.526 21.238000000000007  C 18.026 21.604000000000006  18.276 22.162000000000006  18.276 22.912000000000006  L 18.276 27.248000000000005  Z M 24.714 26.91000000000001  L 24.716 26.912000000000006  C 24.576 26.968000000000004  24.448 27.024  24.316000000000003 27.084000000000003  C 24.168000000000003 27.144  24.016000000000005 27.200000000000003  23.856 27.244000000000007  C 23.668000000000003 27.292  23.484 27.332000000000008  23.316000000000003 27.364000000000004  C 23.148000000000003 27.392000000000003  22.924000000000003 27.408  22.644000000000002 27.408  C 22.118000000000002 27.408  21.632 27.342000000000006  21.198 27.208000000000006  C 20.778 27.084000000000007  20.386 26.878000000000007  20.058 26.594000000000005  C 19.732 26.310000000000002  19.474 25.954000000000008  19.312 25.55400000000001  C 19.132 25.134000000000007  19.042 24.640000000000004  19.042 24.078000000000003  C 19.026000000000003 23.538000000000007  19.126 23.008000000000006  19.334000000000003 22.518000000000008  C 19.514000000000003 22.110000000000007  19.782000000000004 21.750000000000007  20.118000000000002 21.45800000000001  C 20.448 21.19000000000001  20.828000000000003 20.992000000000008  21.238000000000003 20.87800000000001  C 21.678000000000004 20.74600000000001  22.132 20.68600000000001  22.588000000000005 20.68600000000001  C 23.328000000000003 20.68600000000001  24.052000000000007 20.86000000000001  24.708000000000006 21.196000000000012  L 24.708000000000006 22.90400000000001  L 24.454000000000008 22.90400000000001  C 24.358000000000004 22.818000000000012  24.262000000000008 22.73400000000001  24.160000000000004 22.65600000000001  C 24.04 22.56000000000001  23.916000000000004 22.47600000000001  23.784000000000002 22.40400000000001  C 23.450000000000003 22.21400000000001  23.070000000000004 22.11600000000001  22.684 22.12400000000001  C 22.176000000000002 22.12400000000001  21.784000000000002 22.29600000000001  21.504 22.65000000000001  C 21.228 23.00400000000001  21.084 23.47800000000001  21.084 24.07800000000001  C 21.084 24.71800000000001  21.233999999999998 25.198000000000008  21.534 25.50800000000001  C 21.834 25.82200000000001  22.227999999999998 25.97800000000001  22.718 25.97800000000001  C 22.938 25.97800000000001  23.162 25.95200000000001  23.378 25.894000000000005  C 23.684 25.808000000000007  23.968 25.65400000000001  24.208 25.44400000000001  C 24.304 25.36400000000001  24.383999999999993 25.28000000000001  24.453999999999994 25.22400000000001  L 24.714 25.22400000000001  L 24.714 26.91000000000001  Z M 33.382000000000005 27.260000000000005  L 33.382000000000005 27.258000000000003  L 33.382000000000005 24.064000000000004  C 33.382000000000005 23.750000000000004  33.382000000000005 23.484000000000005  33.368 23.270000000000003  C 33.364000000000004 23.090000000000003  33.328 22.910000000000004  33.264 22.744000000000003  C 33.218 22.612000000000002  33.124 22.504000000000005  33.004000000000005 22.444000000000003  C 32.69800000000001 22.316000000000003  32.354000000000006 22.318  32.048 22.448000000000004  C 31.876 22.528000000000002  31.712000000000003 22.622000000000003  31.560000000000002 22.728000000000005  L 31.560000000000002 27.254000000000005  L 29.574 27.254000000000005  L 29.574 24.064000000000004  C 29.574 23.752000000000002  29.567999999999998 23.492000000000004  29.554000000000002 23.272000000000002  C 29.548000000000002 23.092000000000002  29.514000000000003 22.912000000000003  29.454 22.744000000000003  C 29.400000000000002 22.612000000000002  29.302 22.504000000000005  29.182000000000002 22.444000000000003  C 29.061999999999998 22.378000000000004  28.892000000000003 22.348000000000003  28.682000000000002 22.348000000000003  C 28.516000000000005 22.348000000000003  28.352000000000004 22.388  28.202000000000005 22.46  C 28.046000000000006 22.54  27.898000000000003 22.632  27.746000000000002 22.732  L 27.746000000000002 27.256  L 25.756000000000004 27.256  L 25.756000000000004 20.88  L 27.742000000000004 20.88  L 27.742000000000004 21.592  C 28.03000000000001 21.342  28.334000000000003 21.125999999999998  28.662000000000006 20.945999999999998  C 28.958000000000006 20.785999999999998  29.290000000000006 20.706  29.630000000000006 20.706  C 29.994000000000007 20.698  30.35000000000001 20.796  30.658000000000005 20.986  C 30.964000000000006 21.186  31.198000000000004 21.474  31.338000000000005 21.814  C 31.718000000000004 21.46  32.078 21.186  32.418000000000006 20.994  C 32.75800000000001 20.802  33.098000000000006 20.704  33.44800000000001 20.704  C 33.720000000000006 20.7  33.98800000000001 20.75  34.24000000000001 20.854  C 34.470000000000006 20.942  34.68000000000001 21.086  34.84000000000001 21.274  C 35.02000000000001 21.486  35.16000000000001 21.734  35.24000000000001 22.002000000000002  C 35.33000000000001 22.286  35.37200000000001 22.658  35.37200000000001 23.108000000000004  L 35.37200000000001 27.260000000000005  L 33.382000000000005 27.260000000000005  Z " fill-rule="evenodd" />
    </mask>
  </defs>
  <g>
    <path d="M 14.868000000000002 24.5  L 14.869999999999997 24.5  C 14.71 24.55  14.57 24.644  14.466000000000001 24.769999999999996  C 14.370000000000001 24.913999999999998  14.319999999999997 25.086  14.326 25.259999999999998  C 14.326 25.56  14.402 25.763999999999996  14.565999999999999 25.875999999999998  C 14.719999999999999 25.987999999999992  14.954 26.04  15.27 26.04  C 15.443999999999999 26.04  15.618000000000002 26  15.798 25.919999999999995  C 15.977999999999998 25.844  16.146 25.729999999999997  16.288 25.589999999999996  L 16.288 24.27  C 15.951999999999998 24.299999999999997  15.681999999999999 24.33  15.478000000000002 24.36  C 15.268 24.380000000000003  15.064 24.428  14.868000000000002 24.5  Z M 48 24  L 24 0  L 0 24  L 24 48  L 48 24  Z M 38.714 24  C 38.71 32.126  32.126 38.71  24 38.714  C 15.876 38.71  9.29 32.126  9.286 24  C 9.29 15.876  15.876 9.288  24 9.284  C 32.126 9.288  38.71 15.873999999999999  38.714 24  Z M 24 10.751999999999997  L 24 10.754  L 24 10.758  C 16.692 10.758  10.76 16.689999999999998  10.76 23.997999999999998  C 10.76 31.305999999999997  16.692 37.238  24 37.238  C 31.308 37.238  37.24 31.305999999999997  37.24 23.997999999999998  C 37.24 16.685999999999996  31.311999999999998 10.757999999999997  24 10.751999999999997  Z M 18.276 27.248000000000005  L 18.276 27.246000000000002  L 16.286 27.246000000000002  L 16.286 26.574  L 15.922 26.881999999999998  C 15.637999999999998 27.098000000000003  15.314 27.258000000000003  14.968 27.348000000000006  C 14.804 27.387999999999998  14.564 27.418000000000006  14.264 27.418000000000006  C 13.739999999999998 27.432000000000002  13.234 27.224000000000004  12.867999999999999 26.848  C 12.494 26.468000000000004  12.313999999999997 25.996000000000002  12.313999999999997 25.416000000000004  C 12.313999999999997 24.940000000000005  12.405999999999999 24.562000000000005  12.593999999999998 24.268  C 12.793999999999997 23.968000000000004  13.073999999999998 23.728000000000005  13.403999999999996 23.572000000000003  C 13.813999999999997 23.392000000000003  14.249999999999996 23.268000000000004  14.695999999999998 23.212000000000003  C 15.195999999999998 23.146000000000004  15.727999999999998 23.092000000000002  16.302 23.056000000000004  L 16.302 23.022000000000006  C 16.302 22.670000000000005  16.169999999999998 22.428000000000004  15.91 22.296000000000006  C 15.65 22.156000000000006  15.266 22.092000000000006  14.75 22.092000000000006  C 14.516 22.092000000000006  14.242 22.132000000000005  13.93 22.218000000000007  C 13.613999999999997 22.306000000000008  13.314 22.418000000000006  13.014 22.546000000000006  L 12.84 22.546000000000006  L 12.84 21.006000000000007  C 13.034 20.94600000000001  13.352 20.88200000000001  13.8 20.806000000000008  C 14.233999999999998 20.72600000000001  14.676000000000002 20.686000000000007  15.126000000000001 20.686000000000007  C 16.226000000000003 20.686000000000007  17.026 20.870000000000008  17.526 21.238000000000007  C 18.026 21.604000000000006  18.276 22.162000000000006  18.276 22.912000000000006  L 18.276 27.248000000000005  Z M 24.714 26.91000000000001  L 24.716 26.912000000000006  C 24.576 26.968000000000004  24.448 27.024  24.316000000000003 27.084000000000003  C 24.168000000000003 27.144  24.016000000000005 27.200000000000003  23.856 27.244000000000007  C 23.668000000000003 27.292  23.484 27.332000000000008  23.316000000000003 27.364000000000004  C 23.148000000000003 27.392000000000003  22.924000000000003 27.408  22.644000000000002 27.408  C 22.118000000000002 27.408  21.632 27.342000000000006  21.198 27.208000000000006  C 20.778 27.084000000000007  20.386 26.878000000000007  20.058 26.594000000000005  C 19.732 26.310000000000002  19.474 25.954000000000008  19.312 25.55400000000001  C 19.132 25.134000000000007  19.042 24.640000000000004  19.042 24.078000000000003  C 19.026000000000003 23.538000000000007  19.126 23.008000000000006  19.334000000000003 22.518000000000008  C 19.514000000000003 22.110000000000007  19.782000000000004 21.750000000000007  20.118000000000002 21.45800000000001  C 20.448 21.19000000000001  20.828000000000003 20.992000000000008  21.238000000000003 20.87800000000001  C 21.678000000000004 20.74600000000001  22.132 20.68600000000001  22.588000000000005 20.68600000000001  C 23.328000000000003 20.68600000000001  24.052000000000007 20.86000000000001  24.708000000000006 21.196000000000012  L 24.708000000000006 22.90400000000001  L 24.454000000000008 22.90400000000001  C 24.358000000000004 22.818000000000012  24.262000000000008 22.73400000000001  24.160000000000004 22.65600000000001  C 24.04 22.56000000000001  23.916000000000004 22.47600000000001  23.784000000000002 22.40400000000001  C 23.450000000000003 22.21400000000001  23.070000000000004 22.11600000000001  22.684 22.12400000000001  C 22.176000000000002 22.12400000000001  21.784000000000002 22.29600000000001  21.504 22.65000000000001  C 21.228 23.00400000000001  21.084 23.47800000000001  21.084 24.07800000000001  C 21.084 24.71800000000001  21.233999999999998 25.198000000000008  21.534 25.50800000000001  C 21.834 25.82200000000001  22.227999999999998 25.97800000000001  22.718 25.97800000000001  C 22.938 25.97800000000001  23.162 25.95200000000001  23.378 25.894000000000005  C 23.684 25.808000000000007  23.968 25.65400000000001  24.208 25.44400000000001  C 24.304 25.36400000000001  24.383999999999993 25.28000000000001  24.453999999999994 25.22400000000001  L 24.714 25.22400000000001  L 24.714 26.91000000000001  Z M 33.382000000000005 27.260000000000005  L 33.382000000000005 27.258000000000003  L 33.382000000000005 24.064000000000004  C 33.382000000000005 23.750000000000004  33.382000000000005 23.484000000000005  33.368 23.270000000000003  C 33.364000000000004 23.090000000000003  33.328 22.910000000000004  33.264 22.744000000000003  C 33.218 22.612000000000002  33.124 22.504000000000005  33.004000000000005 22.444000000000003  C 32.69800000000001 22.316000000000003  32.354000000000006 22.318  32.048 22.448000000000004  C 31.876 22.528000000000002  31.712000000000003 22.622000000000003  31.560000000000002 22.728000000000005  L 31.560000000000002 27.254000000000005  L 29.574 27.254000000000005  L 29.574 24.064000000000004  C 29.574 23.752000000000002  29.567999999999998 23.492000000000004  29.554000000000002 23.272000000000002  C 29.548000000000002 23.092000000000002  29.514000000000003 22.912000000000003  29.454 22.744000000000003  C 29.400000000000002 22.612000000000002  29.302 22.504000000000005  29.182000000000002 22.444000000000003  C 29.061999999999998 22.378000000000004  28.892000000000003 22.348000000000003  28.682000000000002 22.348000000000003  C 28.516000000000005 22.348000000000003  28.352000000000004 22.388  28.202000000000005 22.46  C 28.046000000000006 22.54  27.898000000000003 22.632  27.746000000000002 22.732  L 27.746000000000002 27.256  L 25.756000000000004 27.256  L 25.756000000000004 20.88  L 27.742000000000004 20.88  L 27.742000000000004 21.592  C 28.03000000000001 21.342  28.334000000000003 21.125999999999998  28.662000000000006 20.945999999999998  C 28.958000000000006 20.785999999999998  29.290000000000006 20.706  29.630000000000006 20.706  C 29.994000000000007 20.698  30.35000000000001 20.796  30.658000000000005 20.986  C 30.964000000000006 21.186  31.198000000000004 21.474  31.338000000000005 21.814  C 31.718000000000004 21.46  32.078 21.186  32.418000000000006 20.994  C 32.75800000000001 20.802  33.098000000000006 20.704  33.44800000000001 20.704  C 33.720000000000006 20.7  33.98800000000001 20.75  34.24000000000001 20.854  C 34.470000000000006 20.942  34.68000000000001 21.086  34.84000000000001 21.274  C 35.02000000000001 21.486  35.16000000000001 21.734  35.24000000000001 22.002000000000002  C 35.33000000000001 22.286  35.37200000000001 22.658  35.37200000000001 23.108000000000004  L 35.37200000000001 27.260000000000005  L 33.382000000000005 27.260000000000005  Z " fill-rule="nonzero" fill="rgba(0, 133, 202, 1)" stroke="none" class="fill" />
    <path d="M 14.868000000000002 24.5  L 14.869999999999997 24.5  C 14.71 24.55  14.57 24.644  14.466000000000001 24.769999999999996  C 14.370000000000001 24.913999999999998  14.319999999999997 25.086  14.326 25.259999999999998  C 14.326 25.56  14.402 25.763999999999996  14.565999999999999 25.875999999999998  C 14.719999999999999 25.987999999999992  14.954 26.04  15.27 26.04  C 15.443999999999999 26.04  15.618000000000002 26  15.798 25.919999999999995  C 15.977999999999998 25.844  16.146 25.729999999999997  16.288 25.589999999999996  L 16.288 24.27  C 15.951999999999998 24.299999999999997  15.681999999999999 24.33  15.478000000000002 24.36  C 15.268 24.380000000000003  15.064 24.428  14.868000000000002 24.5  Z " stroke-width="0" stroke-dasharray="0" stroke="rgba(255, 255, 255, 0)" fill="none" class="stroke" mask="url(#Clip6606)" />
    <path d="M 48 24  L 24 0  L 0 24  L 24 48  L 48 24  Z " stroke-width="0" stroke-dasharray="0" stroke="rgba(255, 255, 255, 0)" fill="none" class="stroke" mask="url(#Clip6606)" />
    <path d="M 38.714 24  C 38.71 32.126  32.126 38.71  24 38.714  C 15.876 38.71  9.29 32.126  9.286 24  C 9.29 15.876  15.876 9.288  24 9.284  C 32.126 9.288  38.71 15.873999999999999  38.714 24  Z " stroke-width="0" stroke-dasharray="0" stroke="rgba(255, 255, 255, 0)" fill="none" class="stroke" mask="url(#Clip6606)" />
    <path d="M 24 10.751999999999997  L 24 10.754  L 24 10.758  C 16.692 10.758  10.76 16.689999999999998  10.76 23.997999999999998  C 10.76 31.305999999999997  16.692 37.238  24 37.238  C 31.308 37.238  37.24 31.305999999999997  37.24 23.997999999999998  C 37.24 16.685999999999996  31.311999999999998 10.757999999999997  24 10.751999999999997  Z " stroke-width="0" stroke-dasharray="0" stroke="rgba(255, 255, 255, 0)" fill="none" class="stroke" mask="url(#Clip6606)" />
    <path d="M 18.276 27.248000000000005  L 18.276 27.246000000000002  L 16.286 27.246000000000002  L 16.286 26.574  L 15.922 26.881999999999998  C 15.637999999999998 27.098000000000003  15.314 27.258000000000003  14.968 27.348000000000006  C 14.804 27.387999999999998  14.564 27.418000000000006  14.264 27.418000000000006  C 13.739999999999998 27.432000000000002  13.234 27.224000000000004  12.867999999999999 26.848  C 12.494 26.468000000000004  12.313999999999997 25.996000000000002  12.313999999999997 25.416000000000004  C 12.313999999999997 24.940000000000005  12.405999999999999 24.562000000000005  12.593999999999998 24.268  C 12.793999999999997 23.968000000000004  13.073999999999998 23.728000000000005  13.403999999999996 23.572000000000003  C 13.813999999999997 23.392000000000003  14.249999999999996 23.268000000000004  14.695999999999998 23.212000000000003  C 15.195999999999998 23.146000000000004  15.727999999999998 23.092000000000002  16.302 23.056000000000004  L 16.302 23.022000000000006  C 16.302 22.670000000000005  16.169999999999998 22.428000000000004  15.91 22.296000000000006  C 15.65 22.156000000000006  15.266 22.092000000000006  14.75 22.092000000000006  C 14.516 22.092000000000006  14.242 22.132000000000005  13.93 22.218000000000007  C 13.613999999999997 22.306000000000008  13.314 22.418000000000006  13.014 22.546000000000006  L 12.84 22.546000000000006  L 12.84 21.006000000000007  C 13.034 20.94600000000001  13.352 20.88200000000001  13.8 20.806000000000008  C 14.233999999999998 20.72600000000001  14.676000000000002 20.686000000000007  15.126000000000001 20.686000000000007  C 16.226000000000003 20.686000000000007  17.026 20.870000000000008  17.526 21.238000000000007  C 18.026 21.604000000000006  18.276 22.162000000000006  18.276 22.912000000000006  L 18.276 27.248000000000005  Z " stroke-width="0" stroke-dasharray="0" stroke="rgba(255, 255, 255, 0)" fill="none" class="stroke" mask="url(#Clip6606)" />
    <path d="M 24.714 26.91000000000001  L 24.716 26.912000000000006  C 24.576 26.968000000000004  24.448 27.024  24.316000000000003 27.084000000000003  C 24.168000000000003 27.144  24.016000000000005 27.200000000000003  23.856 27.244000000000007  C 23.668000000000003 27.292  23.484 27.332000000000008  23.316000000000003 27.364000000000004  C 23.148000000000003 27.392000000000003  22.924000000000003 27.408  22.644000000000002 27.408  C 22.118000000000002 27.408  21.632 27.342000000000006  21.198 27.208000000000006  C 20.778 27.084000000000007  20.386 26.878000000000007  20.058 26.594000000000005  C 19.732 26.310000000000002  19.474 25.954000000000008  19.312 25.55400000000001  C 19.132 25.134000000000007  19.042 24.640000000000004  19.042 24.078000000000003  C 19.026000000000003 23.538000000000007  19.126 23.008000000000006  19.334000000000003 22.518000000000008  C 19.514000000000003 22.110000000000007  19.782000000000004 21.750000000000007  20.118000000000002 21.45800000000001  C 20.448 21.19000000000001  20.828000000000003 20.992000000000008  21.238000000000003 20.87800000000001  C 21.678000000000004 20.74600000000001  22.132 20.68600000000001  22.588000000000005 20.68600000000001  C 23.328000000000003 20.68600000000001  24.052000000000007 20.86000000000001  24.708000000000006 21.196000000000012  L 24.708000000000006 22.90400000000001  L 24.454000000000008 22.90400000000001  C 24.358000000000004 22.818000000000012  24.262000000000008 22.73400000000001  24.160000000000004 22.65600000000001  C 24.04 22.56000000000001  23.916000000000004 22.47600000000001  23.784000000000002 22.40400000000001  C 23.450000000000003 22.21400000000001  23.070000000000004 22.11600000000001  22.684 22.12400000000001  C 22.176000000000002 22.12400000000001  21.784000000000002 22.29600000000001  21.504 22.65000000000001  C 21.228 23.00400000000001  21.084 23.47800000000001  21.084 24.07800000000001  C 21.084 24.71800000000001  21.233999999999998 25.198000000000008  21.534 25.50800000000001  C 21.834 25.82200000000001  22.227999999999998 25.97800000000001  22.718 25.97800000000001  C 22.938 25.97800000000001  23.162 25.95200000000001  23.378 25.894000000000005  C 23.684 25.808000000000007  23.968 25.65400000000001  24.208 25.44400000000001  C 24.304 25.36400000000001  24.383999999999993 25.28000000000001  24.453999999999994 25.22400000000001  L 24.714 25.22400000000001  L 24.714 26.91000000000001  Z " stroke-width="0" stroke-dasharray="0" stroke="rgba(255, 255, 255, 0)" fill="none" class="stroke" mask="url(#Clip6606)" />
    <path d="M 33.382000000000005 27.260000000000005  L 33.382000000000005 27.258000000000003  L 33.382000000000005 24.064000000000004  C 33.382000000000005 23.750000000000004  33.382000000000005 23.484000000000005  33.368 23.270000000000003  C 33.364000000000004 23.090000000000003  33.328 22.910000000000004  33.264 22.744000000000003  C 33.218 22.612000000000002  33.124 22.504000000000005  33.004000000000005 22.444000000000003  C 32.69800000000001 22.316000000000003  32.354000000000006 22.318  32.048 22.448000000000004  C 31.876 22.528000000000002  31.712000000000003 22.622000000000003  31.560000000000002 22.728000000000005  L 31.560000000000002 27.254000000000005  L 29.574 27.254000000000005  L 29.574 24.064000000000004  C 29.574 23.752000000000002  29.567999999999998 23.492000000000004  29.554000000000002 23.272000000000002  C 29.548000000000002 23.092000000000002  29.514000000000003 22.912000000000003  29.454 22.744000000000003  C 29.400000000000002 22.612000000000002  29.302 22.504000000000005  29.182000000000002 22.444000000000003  C 29.061999999999998 22.378000000000004  28.892000000000003 22.348000000000003  28.682000000000002 22.348000000000003  C 28.516000000000005 22.348000000000003  28.352000000000004 22.388  28.202000000000005 22.46  C 28.046000000000006 22.54  27.898000000000003 22.632  27.746000000000002 22.732  L 27.746000000000002 27.256  L 25.756000000000004 27.256  L 25.756000000000004 20.88  L 27.742000000000004 20.88  L 27.742000000000004 21.592  C 28.03000000000001 21.342  28.334000000000003 21.125999999999998  28.662000000000006 20.945999999999998  C 28.958000000000006 20.785999999999998  29.290000000000006 20.706  29.630000000000006 20.706  C 29.994000000000007 20.698  30.35000000000001 20.796  30.658000000000005 20.986  C 30.964000000000006 21.186  31.198000000000004 21.474  31.338000000000005 21.814  C 31.718000000000004 21.46  32.078 21.186  32.418000000000006 20.994  C 32.75800000000001 20.802  33.098000000000006 20.704  33.44800000000001 20.704  C 33.720000000000006 20.7  33.98800000000001 20.75  34.24000000000001 20.854  C 34.470000000000006 20.942  34.68000000000001 21.086  34.84000000000001 21.274  C 35.02000000000001 21.486  35.16000000000001 21.734  35.24000000000001 22.002000000000002  C 35.33000000000001 22.286  35.37200000000001 22.658  35.37200000000001 23.108000000000004  L 35.37200000000001 27.260000000000005  L 33.382000000000005 27.260000000000005  Z " stroke-width="0" stroke-dasharray="0" stroke="rgba(255, 255, 255, 0)" fill="none" class="stroke" mask="url(#Clip6606)" />
  </g>
</svg>