<?xml version="1.0" encoding="utf-8"?>
<svg version="1.1" xmlns:xlink="http://www.w3.org/1999/xlink" width="28px" height="20px" xmlns="http://www.w3.org/2000/svg">
  <defs>
    <pattern id="BGPattern" patternUnits="userSpaceOnUse" alignment="0 0" imageRepeat="None" />
    <mask fill="white" id="Clip3477">
      <path d="M 28 8.879999999999999  C 27.999820865006317 8.4589699245251  27.735947441761738 8.083150200510094  27.34 7.9399999999999995  L 19.61 5.16  L 16.369999999999997 1.0999999999999996  C 15.800572427260178 0.40420797779304607  14.949096245046404 0.0004908224330648636  14.05 0  L 6.050000000000001 0  C 5.059205624014844 0.005120792062001556  4.1348390280378435 0.4991142765517367  3.58 1.3200000000000003  L 0.8699999999999997 5.3199999999999985  C 0.30861392286828915 6.142602168050582  0.00567055892733892 7.1141101972405245  0 8.11  L 0 16  C 0 16.552284749830793  0.44771525016920677 17  1 17  L 3.1399999999999997 17  C 3.6133978174935497 18.74196034873306  5.1948597422455345 19.95100047664453  7 19.95100047664453  C 8.805140257754466 19.95100047664453  10.386602182506449 18.74196034873306  10.86 17  L 17.14 17  C 17.613397817493553 18.74196034873306  19.194859742245537 19.95100047664453  21 19.95100047664453  C 22.805140257754466 19.95100047664453  24.386602182506447 18.74196034873306  24.86 17  L 27 17  C 27.552284749830793 17  28 16.552284749830793  28 16  L 28 8.879999999999999  Z M 9 16  C 9 17.104569499661586  8.104569499661586 18  7 18  C 5.8954305003384135 18  5 17.104569499661586  5 16  C 5 14.895430500338414  5.8954305003384135 14  7 14  C 8.104569499661586 14  9 14.895430500338414  9 16  Z M 23 16  C 23 17.104569499661586  22.104569499661586 18  21 18  C 19.895430500338414 18  19 17.104569499661586  19 16  C 19 14.895430500338414  19.895430500338414 14  21 14  C 22.104569499661586 14  23 14.895430500338414  23 16  Z M 26 9.579999999999998  L 26 15  L 24.86 15  C 24.386602182506447 13.258039651266941  22.805140257754463 12.04899952335547  21 12.04899952335547  C 19.194859742245534 12.04899952335547  17.613397817493553 13.258039651266941  17.14 15  L 10.86 15  C 10.386602182506449 13.258039651266941  8.805140257754465 12.04899952335547  7 12.04899952335547  C 5.1948597422455345 12.04899952335547  3.6133978174935497 13.258039651266941  3.1399999999999997 15  L 2 15  L 2 8.11  C 1.9996135633345773 7.507218383475699  2.1808193895765573 6.918299448189265  2.5199999999999996 6.42  L 5.2299999999999995 2.42  C 5.420749106178776 2.1520092604277714  5.731094348149335 1.9949670897920662  6.0600000000000005 2  L 14.060000000000002 2  C 14.35743223676548 1.9995169714485304  14.639643509668499 2.1314599042343563  14.830000000000002 2.3599999999999994  L 18.23 6.629999999999999  C 18.34726033082486 6.77214369285225  18.498642547032365 6.88223985009407  18.67 6.949999999999999  L 26 9.579999999999998  Z " fill-rule="evenodd" />
    </mask>
  </defs>
  <g transform="matrix(1 0 0 1 -2 -8 )">
    <path d="M 28 8.879999999999999  C 27.999820865006317 8.4589699245251  27.735947441761738 8.083150200510094  27.34 7.9399999999999995  L 19.61 5.16  L 16.369999999999997 1.0999999999999996  C 15.800572427260178 0.40420797779304607  14.949096245046404 0.0004908224330648636  14.05 0  L 6.050000000000001 0  C 5.059205624014844 0.005120792062001556  4.1348390280378435 0.4991142765517367  3.58 1.3200000000000003  L 0.8699999999999997 5.3199999999999985  C 0.30861392286828915 6.142602168050582  0.00567055892733892 7.1141101972405245  0 8.11  L 0 16  C 0 16.552284749830793  0.44771525016920677 17  1 17  L 3.1399999999999997 17  C 3.6133978174935497 18.74196034873306  5.1948597422455345 19.95100047664453  7 19.95100047664453  C 8.805140257754466 19.95100047664453  10.386602182506449 18.74196034873306  10.86 17  L 17.14 17  C 17.613397817493553 18.74196034873306  19.194859742245537 19.95100047664453  21 19.95100047664453  C 22.805140257754466 19.95100047664453  24.386602182506447 18.74196034873306  24.86 17  L 27 17  C 27.552284749830793 17  28 16.552284749830793  28 16  L 28 8.879999999999999  Z M 9 16  C 9 17.104569499661586  8.104569499661586 18  7 18  C 5.8954305003384135 18  5 17.104569499661586  5 16  C 5 14.895430500338414  5.8954305003384135 14  7 14  C 8.104569499661586 14  9 14.895430500338414  9 16  Z M 23 16  C 23 17.104569499661586  22.104569499661586 18  21 18  C 19.895430500338414 18  19 17.104569499661586  19 16  C 19 14.895430500338414  19.895430500338414 14  21 14  C 22.104569499661586 14  23 14.895430500338414  23 16  Z M 26 9.579999999999998  L 26 15  L 24.86 15  C 24.386602182506447 13.258039651266941  22.805140257754463 12.04899952335547  21 12.04899952335547  C 19.194859742245534 12.04899952335547  17.613397817493553 13.258039651266941  17.14 15  L 10.86 15  C 10.386602182506449 13.258039651266941  8.805140257754465 12.04899952335547  7 12.04899952335547  C 5.1948597422455345 12.04899952335547  3.6133978174935497 13.258039651266941  3.1399999999999997 15  L 2 15  L 2 8.11  C 1.9996135633345773 7.507218383475699  2.1808193895765573 6.918299448189265  2.5199999999999996 6.42  L 5.2299999999999995 2.42  C 5.420749106178776 2.1520092604277714  5.731094348149335 1.9949670897920662  6.0600000000000005 2  L 14.060000000000002 2  C 14.35743223676548 1.9995169714485304  14.639643509668499 2.1314599042343563  14.830000000000002 2.3599999999999994  L 18.23 6.629999999999999  C 18.34726033082486 6.77214369285225  18.498642547032365 6.88223985009407  18.67 6.949999999999999  L 26 9.579999999999998  Z " fill-rule="nonzero" fill="rgba(0, 0, 0, 1)" stroke="none" transform="matrix(1 0 0 1 2 8 )" class="fill" />
    <path d="M 28 8.879999999999999  C 27.999820865006317 8.4589699245251  27.735947441761738 8.083150200510094  27.34 7.9399999999999995  L 19.61 5.16  L 16.369999999999997 1.0999999999999996  C 15.800572427260178 0.40420797779304607  14.949096245046404 0.0004908224330648636  14.05 0  L 6.050000000000001 0  C 5.059205624014844 0.005120792062001556  4.1348390280378435 0.4991142765517367  3.58 1.3200000000000003  L 0.8699999999999997 5.3199999999999985  C 0.30861392286828915 6.142602168050582  0.00567055892733892 7.1141101972405245  0 8.11  L 0 16  C 0 16.552284749830793  0.44771525016920677 17  1 17  L 3.1399999999999997 17  C 3.6133978174935497 18.74196034873306  5.1948597422455345 19.95100047664453  7 19.95100047664453  C 8.805140257754466 19.95100047664453  10.386602182506449 18.74196034873306  10.86 17  L 17.14 17  C 17.613397817493553 18.74196034873306  19.194859742245537 19.95100047664453  21 19.95100047664453  C 22.805140257754466 19.95100047664453  24.386602182506447 18.74196034873306  24.86 17  L 27 17  C 27.552284749830793 17  28 16.552284749830793  28 16  L 28 8.879999999999999  Z " stroke-width="0" stroke-dasharray="0" stroke="rgba(255, 255, 255, 0)" fill="none" transform="matrix(1 0 0 1 2 8 )" class="stroke" mask="url(#Clip3477)" />
    <path d="M 9 16  C 9 17.104569499661586  8.104569499661586 18  7 18  C 5.8954305003384135 18  5 17.104569499661586  5 16  C 5 14.895430500338414  5.8954305003384135 14  7 14  C 8.104569499661586 14  9 14.895430500338414  9 16  Z " stroke-width="0" stroke-dasharray="0" stroke="rgba(255, 255, 255, 0)" fill="none" transform="matrix(1 0 0 1 2 8 )" class="stroke" mask="url(#Clip3477)" />
    <path d="M 23 16  C 23 17.104569499661586  22.104569499661586 18  21 18  C 19.895430500338414 18  19 17.104569499661586  19 16  C 19 14.895430500338414  19.895430500338414 14  21 14  C 22.104569499661586 14  23 14.895430500338414  23 16  Z " stroke-width="0" stroke-dasharray="0" stroke="rgba(255, 255, 255, 0)" fill="none" transform="matrix(1 0 0 1 2 8 )" class="stroke" mask="url(#Clip3477)" />
    <path d="M 26 9.579999999999998  L 26 15  L 24.86 15  C 24.386602182506447 13.258039651266941  22.805140257754463 12.04899952335547  21 12.04899952335547  C 19.194859742245534 12.04899952335547  17.613397817493553 13.258039651266941  17.14 15  L 10.86 15  C 10.386602182506449 13.258039651266941  8.805140257754465 12.04899952335547  7 12.04899952335547  C 5.1948597422455345 12.04899952335547  3.6133978174935497 13.258039651266941  3.1399999999999997 15  L 2 15  L 2 8.11  C 1.9996135633345773 7.507218383475699  2.1808193895765573 6.918299448189265  2.5199999999999996 6.42  L 5.2299999999999995 2.42  C 5.420749106178776 2.1520092604277714  5.731094348149335 1.9949670897920662  6.0600000000000005 2  L 14.060000000000002 2  C 14.35743223676548 1.9995169714485304  14.639643509668499 2.1314599042343563  14.830000000000002 2.3599999999999994  L 18.23 6.629999999999999  C 18.34726033082486 6.77214369285225  18.498642547032365 6.88223985009407  18.67 6.949999999999999  L 26 9.579999999999998  Z " stroke-width="0" stroke-dasharray="0" stroke="rgba(255, 255, 255, 0)" fill="none" transform="matrix(1 0 0 1 2 8 )" class="stroke" mask="url(#Clip3477)" />
  </g>
</svg>