<?xml version="1.0" encoding="utf-8"?>
<svg version="1.1" xmlns:xlink="http://www.w3.org/1999/xlink" width="17px" height="14px" xmlns="http://www.w3.org/2000/svg">
  <defs>
    <pattern id="BGPattern" patternUnits="userSpaceOnUse" alignment="0 0" imageRepeat="None" />
    <mask fill="white" id="Clip3990">
      <path d="M 2.727299999999998 10.152599999999996  L 2.7272999999999996 3.0266  C 2.7472415144520497 2.8287099538492253  2.671744474105841 2.6331529373892515  2.523999999999999 2.5  L 1.0185999999999993 0.6862999999999992  L 1.0185999999999993 0.4154  L 5.693 0.4154  L 9.306000000000001 8.339199999999998  L 12.482400000000002 0.4153999999999982  L 16.9385 0.4153999999999982  L 16.9385 0.6862999999999975  L 15.651299999999999 1.9199999999999982  C 15.540365738050802 2.00458547430223  15.485329087443588 2.1436011260457697  15.508299999999998 2.2812  L 15.508299999999995 11.3488  C 15.485329087443588 11.48639887395423  15.540365738050802 11.625414525697767  15.651299999999999 11.71  L 16.9084 12.944100000000002  L 16.9084 13.215000000000003  L 10.5856 13.215000000000003  L 10.5856 12.944100000000002  L 11.887799999999999 11.68  C 12.015699999999999 11.5521  12.015699999999999 11.514399999999998  12.015699999999999 11.3188  L 12.015699999999999 3.99  L 8.395699999999998 13.185499999999998  L 7.906399999999998 13.185499999999998  L 3.6906999999999996 3.99  L 3.6907000000000014 10.152899999999999  C 3.655623906357901 10.412041267559989  3.741696452954626 10.672914101589651  3.9240999999999993 10.860299999999999  L 5.617699999999999 12.9146  L 5.617699999999999 13.185500000000001  L 0.8154000000000003 13.185500000000001  L 0.8154000000000003 12.9146  L 2.5089999999999986 10.86  C 2.6901262529056 10.67233559724917  2.7711746978443994 10.409698538386568  2.727299999999998 10.152599999999996  Z " fill-rule="evenodd" />
    </mask>
  </defs>
  <g transform="matrix(1 0 0 1 -7 -9 )">
    <path d="M 2.727299999999998 10.152599999999996  L 2.7272999999999996 3.0266  C 2.7472415144520497 2.8287099538492253  2.671744474105841 2.6331529373892515  2.523999999999999 2.5  L 1.0185999999999993 0.6862999999999992  L 1.0185999999999993 0.4154  L 5.693 0.4154  L 9.306000000000001 8.339199999999998  L 12.482400000000002 0.4153999999999982  L 16.9385 0.4153999999999982  L 16.9385 0.6862999999999975  L 15.651299999999999 1.9199999999999982  C 15.540365738050802 2.00458547430223  15.485329087443588 2.1436011260457697  15.508299999999998 2.2812  L 15.508299999999995 11.3488  C 15.485329087443588 11.48639887395423  15.540365738050802 11.625414525697767  15.651299999999999 11.71  L 16.9084 12.944100000000002  L 16.9084 13.215000000000003  L 10.5856 13.215000000000003  L 10.5856 12.944100000000002  L 11.887799999999999 11.68  C 12.015699999999999 11.5521  12.015699999999999 11.514399999999998  12.015699999999999 11.3188  L 12.015699999999999 3.99  L 8.395699999999998 13.185499999999998  L 7.906399999999998 13.185499999999998  L 3.6906999999999996 3.99  L 3.6907000000000014 10.152899999999999  C 3.655623906357901 10.412041267559989  3.741696452954626 10.672914101589651  3.9240999999999993 10.860299999999999  L 5.617699999999999 12.9146  L 5.617699999999999 13.185500000000001  L 0.8154000000000003 13.185500000000001  L 0.8154000000000003 12.9146  L 2.5089999999999986 10.86  C 2.6901262529056 10.67233559724917  2.7711746978443994 10.409698538386568  2.727299999999998 10.152599999999996  Z " fill-rule="nonzero" fill="rgba(255, 255, 255, 0)" stroke="none" transform="matrix(1 0 0 1 7 9 )" class="fill" />
    <path d="M 2.727299999999998 10.152599999999996  L 2.7272999999999996 3.0266  C 2.7472415144520497 2.8287099538492253  2.671744474105841 2.6331529373892515  2.523999999999999 2.5  L 1.0185999999999993 0.6862999999999992  L 1.0185999999999993 0.4154  L 5.693 0.4154  L 9.306000000000001 8.339199999999998  L 12.482400000000002 0.4153999999999982  L 16.9385 0.4153999999999982  L 16.9385 0.6862999999999975  L 15.651299999999999 1.9199999999999982  C 15.540365738050802 2.00458547430223  15.485329087443588 2.1436011260457697  15.508299999999998 2.2812  L 15.508299999999995 11.3488  C 15.485329087443588 11.48639887395423  15.540365738050802 11.625414525697767  15.651299999999999 11.71  L 16.9084 12.944100000000002  L 16.9084 13.215000000000003  L 10.5856 13.215000000000003  L 10.5856 12.944100000000002  L 11.887799999999999 11.68  C 12.015699999999999 11.5521  12.015699999999999 11.514399999999998  12.015699999999999 11.3188  L 12.015699999999999 3.99  L 8.395699999999998 13.185499999999998  L 7.906399999999998 13.185499999999998  L 3.6906999999999996 3.99  L 3.6907000000000014 10.152899999999999  C 3.655623906357901 10.412041267559989  3.741696452954626 10.672914101589651  3.9240999999999993 10.860299999999999  L 5.617699999999999 12.9146  L 5.617699999999999 13.185500000000001  L 0.8154000000000003 13.185500000000001  L 0.8154000000000003 12.9146  L 2.5089999999999986 10.86  C 2.6901262529056 10.67233559724917  2.7711746978443994 10.409698538386568  2.727299999999998 10.152599999999996  Z " stroke-width="0" stroke-dasharray="0" stroke="rgba(255, 255, 255, 0)" fill="none" transform="matrix(1 0 0 1 7 9 )" class="stroke" mask="url(#Clip3990)" />
  </g>
</svg>