<?xml version="1.0" encoding="utf-8"?>
<svg version="1.1" xmlns:xlink="http://www.w3.org/1999/xlink" width="12px" height="12px" xmlns="http://www.w3.org/2000/svg">
  <defs>
    <pattern id="BGPattern" patternUnits="userSpaceOnUse" alignment="0 0" imageRepeat="None" />
    <mask fill="white" id="Clip3250">
      <path d="M 12 1  C 12 0.3999999999999999  11.6 0  11 0  L 1 0  C 0.3999999999999999 0  0 0.3999999999999999  0 1  L 0 8  C 0 8.6  0.3999999999999999 9  1 9  L 5 9  L 5 8  L 1 8  L 1 1  L 11 1  L 11 8  L 7.4 8  L 5 11.4  L 5.800000000000001 12  L 7.9 9  L 11 9  C 11.6 9  12 8.6  12 8  L 12 1  Z " fill-rule="evenodd" />
    </mask>
  </defs>
  <g transform="matrix(1 0 0 1 -3 -3 )">
    <path d="M 12 1  C 12 0.3999999999999999  11.6 0  11 0  L 1 0  C 0.3999999999999999 0  0 0.3999999999999999  0 1  L 0 8  C 0 8.6  0.3999999999999999 9  1 9  L 5 9  L 5 8  L 1 8  L 1 1  L 11 1  L 11 8  L 7.4 8  L 5 11.4  L 5.800000000000001 12  L 7.9 9  L 11 9  C 11.6 9  12 8.6  12 8  L 12 1  Z " fill-rule="nonzero" fill="rgba(0, 0, 0, 1)" stroke="none" transform="matrix(1 0 0 1 3 3 )" class="fill" />
    <path d="M 12 1  C 12 0.3999999999999999  11.6 0  11 0  L 1 0  C 0.3999999999999999 0  0 0.3999999999999999  0 1  L 0 8  C 0 8.6  0.3999999999999999 9  1 9  L 5 9  L 5 8  L 1 8  L 1 1  L 11 1  L 11 8  L 7.4 8  L 5 11.4  L 5.800000000000001 12  L 7.9 9  L 11 9  C 11.6 9  12 8.6  12 8  L 12 1  Z " stroke-width="0" stroke-dasharray="0" stroke="rgba(255, 255, 255, 0)" fill="none" transform="matrix(1 0 0 1 3 3 )" class="stroke" mask="url(#Clip3250)" />
  </g>
</svg>