<?xml version="1.0" encoding="utf-8"?>
<svg version="1.1" xmlns:xlink="http://www.w3.org/1999/xlink" width="50px" height="50px" xmlns="http://www.w3.org/2000/svg">
  <defs>
    <pattern id="BGPattern" patternUnits="userSpaceOnUse" alignment="0 0" imageRepeat="None" />
    <mask fill="white" id="Clip2414">
      <path d="M 44.87499999999999 41.55  C 44.881249999999994 41.26875  44.76874999999999 41.106249999999996  44.5625 41.05625  C 44.35625 41  44.10625 41.03125  43.81875 41.137499999999996  C 39.96875 42.9  36.225 44.15624999999999  32.587500000000006 44.9  C 24.73125 46.5  17.075 45.6625  9.625 42.39375  C 7.55625 41.481249999999996  4.68125 39.943749999999994  1 37.768750000000004  C 0.905145185203363 37.69386860655786  0.7894274082089289 37.65020152089958  0.6687500000000002 37.64375  C 0.5437500000000002 37.637499999999996  0.43750000000000006 37.65  0.33750000000000036 37.699999999999996  C 0.23750000000000074 37.74999999999999  0.16250000000000053 37.81249999999999  0.10625000000000018 37.89375  C 0.04999999999999983 37.974999999999994  0.03750000000000053 38.0875  0.08124999999999982 38.231249999999996  C 0.11874999999999948 38.36875  0.21249999999999944 38.525  0.36874999999999947 38.693749999999994  C 1.018749999999999 39.45625  1.8249999999999993 40.26875  2.78125 41.131249999999994  C 3.7375000000000007 41.99374999999999  5.00625 42.96874999999999  6.5875 44.05624999999999  C 8.168750000000001 45.14374999999999  9.825 46.11249999999999  11.54375 46.95624999999999  C 13.26875 47.79999999999999  15.26875 48.51249999999999  17.549999999999997 49.08749999999999  C 19.831249999999994 49.662499999999994  22.112499999999997 49.94999999999999  24.387499999999996 49.94999999999999  C 26.649999999999995 49.94999999999999  28.84999999999999 49.718749999999986  30.981249999999992 49.26874999999999  C 33.11875 48.81249999999999  34.918749999999996 48.27499999999999  36.387499999999996 47.64999999999999  C 37.849999999999994 47.03124999999999  39.199999999999996 46.33749999999999  40.43749999999999 45.58749999999999  C 41.67499999999999 44.83749999999999  42.58749999999999 44.19999999999999  43.18124999999999 43.693749999999994  C 43.77499999999999 43.18124999999999  44.19999999999999 42.78124999999999  44.443749999999994 42.481249999999996  C 44.731249999999996 42.12499999999999  44.87499999999999 41.818749999999994  44.87499999999999 41.55  Z M 28.812500000000007 14.575  C 27.862500000000008 14.6125  26.912500000000005 14.675000000000002  25.9625 14.756250000000001  C 25.012499999999992 14.837500000000004  23.86875 15.012500000000003  22.525 15.275000000000002  C 21.18125 15.531250000000005  19.9375 15.856250000000003  18.787499999999998 16.2375  C 17.637499999999996 16.61875  16.4625 17.150000000000002  15.268749999999997 17.825  C 14.068749999999996 18.5  13.049999999999997 19.275  12.206249999999997 20.1375  C 11.362499999999997 21  10.674999999999997 22.08125  10.137499999999996 23.3875  C 9.599999999999994 24.6875  9.331249999999997 26.118749999999995  9.331249999999997 27.681249999999995  C 9.331249999999997 29.375  9.624999999999996 30.881249999999998  10.224999999999998 32.2125  C 10.818749999999998 33.543749999999996  11.612499999999997 34.5875  12.612499999999995 35.3625  C 13.606249999999994 36.137499999999996  14.737499999999997 36.74375  15.987499999999995 37.1875  C 17.237499999999997 37.63125  18.562499999999996 37.83125  19.937499999999996 37.775  C 21.312499999999996 37.71875  22.656249999999996 37.50625  23.9625 37.13125  C 25.262499999999992 36.7625  26.487499999999997 36.16875  27.625 35.362500000000004  C 28.762500000000003 34.556250000000006  29.69375 33.6  30.424999999999997 32.50625  C 30.69374999999999 32.91875  30.93125 33.225  31.143749999999997 33.425000000000004  L 31.6875 33.98125  C 32.05 34.35  32.60625 34.893750000000004  33.35625 35.612500000000004  C 34.1 36.331250000000004  34.862500000000004 37.03125000000001  35.625 37.71875000000001  L 42.15 31.47500000000001  L 41.775 31.16875000000001  C 41.50625 30.962500000000016  41.1875 30.66875000000001  40.824999999999996 30.275000000000013  C 40.4625 29.88750000000001  40.099999999999994 29.45625000000001  39.74999999999999 28.993750000000013  C 39.39374999999999 28.531250000000014  39.08749999999999 27.98750000000001  38.83124999999999 27.375000000000014  C 38.57499999999999 26.762500000000017  38.44374999999999 26.168750000000017  38 25.593750000000014  L 38 9.16875  C 38.44374999999999 8.5375  38.32499999999999 7.856249999999999  38.087499999999984 7.118749999999999  C 37.843749999999986 6.387499999999998  37.41874999999998 5.587499999999999  36.79374999999998 4.724999999999998  C 36.16874999999998 3.862499999999997  35.39374999999998 3.0874999999999986  34.46874999999998 2.412499999999998  C 33.53749999999998 1.737499999999997  32.299999999999976 1.1624999999999979  30.743749999999974 0.6999999999999975  C 29.19374999999998 0.23749999999999719  27.456249999999976 0.006249999999997868  25.543749999999974 0.006249999999997868  C 23.587499999999974 0.006249999999997868  21.768749999999976 0.23749999999999805  20.068749999999973 0.6874999999999982  C 18.37499999999997 1.143749999999999  16.924999999999972 1.749999999999998  15.712499999999974 2.5124999999999975  C 14.506249999999973 3.274999999999997  13.468749999999973 4.156249999999998  12.606249999999974 5.162499999999998  C 11.743749999999974 6.1687499999999975  11.099999999999973 7.218749999999999  10.681249999999974 8.312499999999998  C 10.262499999999974 9.40625  10.049999999999972 10.5125  10.049999999999972 11.631249999999998  L 18.5 12.375  C 18.84375 11.350000000000001  19.30625 10.462499999999999  19.875 9.7  C 20.45 8.9375  20.99375 8.3875  21.4875 8.04375  C 21.9875 7.7  22.525000000000002 7.424999999999998  23.09375 7.21875  C 23.66875 7.012499999999999  24.05625 6.90625  24.25625 6.88125  C 24.45625 6.862499999999999  24.6125 6.85625  24.731250000000003 6.85625  C 26.400000000000006 6.85625  27.556250000000006 7.35  28.206250000000004 8.331249999999999  C 28.6125 8.924999999999999  28.812500000000007 9.825  28.812500000000007 11.037499999999998  L 28.812500000000007 14.575  Z M 28.81875000000001 19.725000000000005  L 28.818750000000005 24.25  C 28.818750000000005 25.2875  28.68125 26.23125  28.4125 27.0625  C 27.8375 28.88125  26.74375 30.024999999999995  25.137500000000003 30.487499999999994  C 23.737500000000004 30.9  22.406250000000004 30.69374999999999  21.143750000000004 29.875  C 19.800000000000004 28.999999999999996  19.131250000000005 27.762500000000003  19.131250000000005 26.168750000000003  C 19.131250000000005 24.925000000000004  19.443750000000005 23.862500000000004  20.068750000000005 22.975  C 20.693750000000005 22.09375  21.525000000000006 21.431250000000002  22.568750000000005 20.993750000000002  C 23.612500000000004 20.556250000000002  24.631250000000005 20.243750000000002  25.631250000000012 20.062500000000004  C 26.62500000000001 19.875000000000004  27.693750000000005 19.762500000000003  28.81875000000001 19.725000000000005  Z M 49.85 39.868750000000006  C 50 38.87500000000001  49.975 38.23125  49.76875 37.93125  C 49.5 37.59375  48.775 37.375  47.5875 37.262499999999996  C 46.4 37.15  45.36875 37.15624999999999  44.481249999999996 37.287499999999994  C 43.525 37.39999999999999  42.537499999999994 37.675  41.525 38.12499999999999  C 40.50625 38.568749999999994  40.0625 38.943749999999994  40.175 39.23749999999999  L 40.21875 39.31874999999999  L 40.275 39.36249999999999  L 40.3625 39.37499999999999  L 40.65 39.37499999999999  C 40.699999999999996 39.37499999999999  40.762499999999996 39.36874999999999  40.85 39.36249999999999  C 40.9375 39.35624999999999  41.018750000000004 39.34374999999999  41.09375 39.33749999999999  C 41.16875 39.33124999999999  41.275 39.318749999999994  41.4125 39.31249999999999  C 41.54375 39.30624999999999  41.66875 39.287499999999994  41.7875 39.26874999999999  C 41.80625 39.26874999999999  42.018750000000004 39.24999999999999  42.43125 39.21249999999999  C 42.84375 39.17499999999999  43.14375 39.14999999999999  43.324999999999996 39.131249999999994  C 43.506249999999994 39.1125  43.81249999999999 39.09374999999999  44.231249999999996 39.074999999999996  C 44.65 39.05625  44.9875 39.05625  45.2375 39.074999999999996  C 45.4875 39.09374999999999  45.76875 39.11875  46.0875 39.14375  C 46.40625 39.168749999999996  46.6625 39.224999999999994  46.8625 39.3125  C 47.0625 39.39375  47.2125 39.5  47.30625 39.63125  C 47.63125 40.04375  47.56875 40.956250000000004  47.11875 42.375  C 46.668749999999996 43.793749999999996  46.24375 44.925  45.84375 45.7625  C 45.66875 46.118750000000006  45.66875 46.337500000000006  45.84375 46.431250000000006  C 46.01875 46.525000000000006  46.2625 46.43750000000001  46.5875 46.181250000000006  C 47.5625 45.41875  48.375 44.268750000000004  49.03125 42.72500000000001  C 49.4125 41.81250000000001  49.6875 40.86250000000001  49.85 39.868750000000006  Z " fill-rule="evenodd" />
    </mask>
  </defs>
  <g>
    <path d="M 44.87499999999999 41.55  C 44.881249999999994 41.26875  44.76874999999999 41.106249999999996  44.5625 41.05625  C 44.35625 41  44.10625 41.03125  43.81875 41.137499999999996  C 39.96875 42.9  36.225 44.15624999999999  32.587500000000006 44.9  C 24.73125 46.5  17.075 45.6625  9.625 42.39375  C 7.55625 41.481249999999996  4.68125 39.943749999999994  1 37.768750000000004  C 0.905145185203363 37.69386860655786  0.7894274082089289 37.65020152089958  0.6687500000000002 37.64375  C 0.5437500000000002 37.637499999999996  0.43750000000000006 37.65  0.33750000000000036 37.699999999999996  C 0.23750000000000074 37.74999999999999  0.16250000000000053 37.81249999999999  0.10625000000000018 37.89375  C 0.04999999999999983 37.974999999999994  0.03750000000000053 38.0875  0.08124999999999982 38.231249999999996  C 0.11874999999999948 38.36875  0.21249999999999944 38.525  0.36874999999999947 38.693749999999994  C 1.018749999999999 39.45625  1.8249999999999993 40.26875  2.78125 41.131249999999994  C 3.7375000000000007 41.99374999999999  5.00625 42.96874999999999  6.5875 44.05624999999999  C 8.168750000000001 45.14374999999999  9.825 46.11249999999999  11.54375 46.95624999999999  C 13.26875 47.79999999999999  15.26875 48.51249999999999  17.549999999999997 49.08749999999999  C 19.831249999999994 49.662499999999994  22.112499999999997 49.94999999999999  24.387499999999996 49.94999999999999  C 26.649999999999995 49.94999999999999  28.84999999999999 49.718749999999986  30.981249999999992 49.26874999999999  C 33.11875 48.81249999999999  34.918749999999996 48.27499999999999  36.387499999999996 47.64999999999999  C 37.849999999999994 47.03124999999999  39.199999999999996 46.33749999999999  40.43749999999999 45.58749999999999  C 41.67499999999999 44.83749999999999  42.58749999999999 44.19999999999999  43.18124999999999 43.693749999999994  C 43.77499999999999 43.18124999999999  44.19999999999999 42.78124999999999  44.443749999999994 42.481249999999996  C 44.731249999999996 42.12499999999999  44.87499999999999 41.818749999999994  44.87499999999999 41.55  Z M 28.812500000000007 14.575  C 27.862500000000008 14.6125  26.912500000000005 14.675000000000002  25.9625 14.756250000000001  C 25.012499999999992 14.837500000000004  23.86875 15.012500000000003  22.525 15.275000000000002  C 21.18125 15.531250000000005  19.9375 15.856250000000003  18.787499999999998 16.2375  C 17.637499999999996 16.61875  16.4625 17.150000000000002  15.268749999999997 17.825  C 14.068749999999996 18.5  13.049999999999997 19.275  12.206249999999997 20.1375  C 11.362499999999997 21  10.674999999999997 22.08125  10.137499999999996 23.3875  C 9.599999999999994 24.6875  9.331249999999997 26.118749999999995  9.331249999999997 27.681249999999995  C 9.331249999999997 29.375  9.624999999999996 30.881249999999998  10.224999999999998 32.2125  C 10.818749999999998 33.543749999999996  11.612499999999997 34.5875  12.612499999999995 35.3625  C 13.606249999999994 36.137499999999996  14.737499999999997 36.74375  15.987499999999995 37.1875  C 17.237499999999997 37.63125  18.562499999999996 37.83125  19.937499999999996 37.775  C 21.312499999999996 37.71875  22.656249999999996 37.50625  23.9625 37.13125  C 25.262499999999992 36.7625  26.487499999999997 36.16875  27.625 35.362500000000004  C 28.762500000000003 34.556250000000006  29.69375 33.6  30.424999999999997 32.50625  C 30.69374999999999 32.91875  30.93125 33.225  31.143749999999997 33.425000000000004  L 31.6875 33.98125  C 32.05 34.35  32.60625 34.893750000000004  33.35625 35.612500000000004  C 34.1 36.331250000000004  34.862500000000004 37.03125000000001  35.625 37.71875000000001  L 42.15 31.47500000000001  L 41.775 31.16875000000001  C 41.50625 30.962500000000016  41.1875 30.66875000000001  40.824999999999996 30.275000000000013  C 40.4625 29.88750000000001  40.099999999999994 29.45625000000001  39.74999999999999 28.993750000000013  C 39.39374999999999 28.531250000000014  39.08749999999999 27.98750000000001  38.83124999999999 27.375000000000014  C 38.57499999999999 26.762500000000017  38.44374999999999 26.168750000000017  38 25.593750000000014  L 38 9.16875  C 38.44374999999999 8.5375  38.32499999999999 7.856249999999999  38.087499999999984 7.118749999999999  C 37.843749999999986 6.387499999999998  37.41874999999998 5.587499999999999  36.79374999999998 4.724999999999998  C 36.16874999999998 3.862499999999997  35.39374999999998 3.0874999999999986  34.46874999999998 2.412499999999998  C 33.53749999999998 1.737499999999997  32.299999999999976 1.1624999999999979  30.743749999999974 0.6999999999999975  C 29.19374999999998 0.23749999999999719  27.456249999999976 0.006249999999997868  25.543749999999974 0.006249999999997868  C 23.587499999999974 0.006249999999997868  21.768749999999976 0.23749999999999805  20.068749999999973 0.6874999999999982  C 18.37499999999997 1.143749999999999  16.924999999999972 1.749999999999998  15.712499999999974 2.5124999999999975  C 14.506249999999973 3.274999999999997  13.468749999999973 4.156249999999998  12.606249999999974 5.162499999999998  C 11.743749999999974 6.1687499999999975  11.099999999999973 7.218749999999999  10.681249999999974 8.312499999999998  C 10.262499999999974 9.40625  10.049999999999972 10.5125  10.049999999999972 11.631249999999998  L 18.5 12.375  C 18.84375 11.350000000000001  19.30625 10.462499999999999  19.875 9.7  C 20.45 8.9375  20.99375 8.3875  21.4875 8.04375  C 21.9875 7.7  22.525000000000002 7.424999999999998  23.09375 7.21875  C 23.66875 7.012499999999999  24.05625 6.90625  24.25625 6.88125  C 24.45625 6.862499999999999  24.6125 6.85625  24.731250000000003 6.85625  C 26.400000000000006 6.85625  27.556250000000006 7.35  28.206250000000004 8.331249999999999  C 28.6125 8.924999999999999  28.812500000000007 9.825  28.812500000000007 11.037499999999998  L 28.812500000000007 14.575  Z M 28.81875000000001 19.725000000000005  L 28.818750000000005 24.25  C 28.818750000000005 25.2875  28.68125 26.23125  28.4125 27.0625  C 27.8375 28.88125  26.74375 30.024999999999995  25.137500000000003 30.487499999999994  C 23.737500000000004 30.9  22.406250000000004 30.69374999999999  21.143750000000004 29.875  C 19.800000000000004 28.999999999999996  19.131250000000005 27.762500000000003  19.131250000000005 26.168750000000003  C 19.131250000000005 24.925000000000004  19.443750000000005 23.862500000000004  20.068750000000005 22.975  C 20.693750000000005 22.09375  21.525000000000006 21.431250000000002  22.568750000000005 20.993750000000002  C 23.612500000000004 20.556250000000002  24.631250000000005 20.243750000000002  25.631250000000012 20.062500000000004  C 26.62500000000001 19.875000000000004  27.693750000000005 19.762500000000003  28.81875000000001 19.725000000000005  Z M 49.85 39.868750000000006  C 50 38.87500000000001  49.975 38.23125  49.76875 37.93125  C 49.5 37.59375  48.775 37.375  47.5875 37.262499999999996  C 46.4 37.15  45.36875 37.15624999999999  44.481249999999996 37.287499999999994  C 43.525 37.39999999999999  42.537499999999994 37.675  41.525 38.12499999999999  C 40.50625 38.568749999999994  40.0625 38.943749999999994  40.175 39.23749999999999  L 40.21875 39.31874999999999  L 40.275 39.36249999999999  L 40.3625 39.37499999999999  L 40.65 39.37499999999999  C 40.699999999999996 39.37499999999999  40.762499999999996 39.36874999999999  40.85 39.36249999999999  C 40.9375 39.35624999999999  41.018750000000004 39.34374999999999  41.09375 39.33749999999999  C 41.16875 39.33124999999999  41.275 39.318749999999994  41.4125 39.31249999999999  C 41.54375 39.30624999999999  41.66875 39.287499999999994  41.7875 39.26874999999999  C 41.80625 39.26874999999999  42.018750000000004 39.24999999999999  42.43125 39.21249999999999  C 42.84375 39.17499999999999  43.14375 39.14999999999999  43.324999999999996 39.131249999999994  C 43.506249999999994 39.1125  43.81249999999999 39.09374999999999  44.231249999999996 39.074999999999996  C 44.65 39.05625  44.9875 39.05625  45.2375 39.074999999999996  C 45.4875 39.09374999999999  45.76875 39.11875  46.0875 39.14375  C 46.40625 39.168749999999996  46.6625 39.224999999999994  46.8625 39.3125  C 47.0625 39.39375  47.2125 39.5  47.30625 39.63125  C 47.63125 40.04375  47.56875 40.956250000000004  47.11875 42.375  C 46.668749999999996 43.793749999999996  46.24375 44.925  45.84375 45.7625  C 45.66875 46.118750000000006  45.66875 46.337500000000006  45.84375 46.431250000000006  C 46.01875 46.525000000000006  46.2625 46.43750000000001  46.5875 46.181250000000006  C 47.5625 45.41875  48.375 44.268750000000004  49.03125 42.72500000000001  C 49.4125 41.81250000000001  49.6875 40.86250000000001  49.85 39.868750000000006  Z " fill-rule="nonzero" fill="rgba(0, 0, 0, 1)" stroke="none" class="fill" />
    <path d="M 44.87499999999999 41.55  C 44.881249999999994 41.26875  44.76874999999999 41.106249999999996  44.5625 41.05625  C 44.35625 41  44.10625 41.03125  43.81875 41.137499999999996  C 39.96875 42.9  36.225 44.15624999999999  32.587500000000006 44.9  C 24.73125 46.5  17.075 45.6625  9.625 42.39375  C 7.55625 41.481249999999996  4.68125 39.943749999999994  1 37.768750000000004  C 0.905145185203363 37.69386860655786  0.7894274082089289 37.65020152089958  0.6687500000000002 37.64375  C 0.5437500000000002 37.637499999999996  0.43750000000000006 37.65  0.33750000000000036 37.699999999999996  C 0.23750000000000074 37.74999999999999  0.16250000000000053 37.81249999999999  0.10625000000000018 37.89375  C 0.04999999999999983 37.974999999999994  0.03750000000000053 38.0875  0.08124999999999982 38.231249999999996  C 0.11874999999999948 38.36875  0.21249999999999944 38.525  0.36874999999999947 38.693749999999994  C 1.018749999999999 39.45625  1.8249999999999993 40.26875  2.78125 41.131249999999994  C 3.7375000000000007 41.99374999999999  5.00625 42.96874999999999  6.5875 44.05624999999999  C 8.168750000000001 45.14374999999999  9.825 46.11249999999999  11.54375 46.95624999999999  C 13.26875 47.79999999999999  15.26875 48.51249999999999  17.549999999999997 49.08749999999999  C 19.831249999999994 49.662499999999994  22.112499999999997 49.94999999999999  24.387499999999996 49.94999999999999  C 26.649999999999995 49.94999999999999  28.84999999999999 49.718749999999986  30.981249999999992 49.26874999999999  C 33.11875 48.81249999999999  34.918749999999996 48.27499999999999  36.387499999999996 47.64999999999999  C 37.849999999999994 47.03124999999999  39.199999999999996 46.33749999999999  40.43749999999999 45.58749999999999  C 41.67499999999999 44.83749999999999  42.58749999999999 44.19999999999999  43.18124999999999 43.693749999999994  C 43.77499999999999 43.18124999999999  44.19999999999999 42.78124999999999  44.443749999999994 42.481249999999996  C 44.731249999999996 42.12499999999999  44.87499999999999 41.818749999999994  44.87499999999999 41.55  Z " stroke-width="0" stroke-dasharray="0" stroke="rgba(255, 255, 255, 0)" fill="none" class="stroke" mask="url(#Clip2414)" />
    <path d="M 28.812500000000007 14.575  C 27.862500000000008 14.6125  26.912500000000005 14.675000000000002  25.9625 14.756250000000001  C 25.012499999999992 14.837500000000004  23.86875 15.012500000000003  22.525 15.275000000000002  C 21.18125 15.531250000000005  19.9375 15.856250000000003  18.787499999999998 16.2375  C 17.637499999999996 16.61875  16.4625 17.150000000000002  15.268749999999997 17.825  C 14.068749999999996 18.5  13.049999999999997 19.275  12.206249999999997 20.1375  C 11.362499999999997 21  10.674999999999997 22.08125  10.137499999999996 23.3875  C 9.599999999999994 24.6875  9.331249999999997 26.118749999999995  9.331249999999997 27.681249999999995  C 9.331249999999997 29.375  9.624999999999996 30.881249999999998  10.224999999999998 32.2125  C 10.818749999999998 33.543749999999996  11.612499999999997 34.5875  12.612499999999995 35.3625  C 13.606249999999994 36.137499999999996  14.737499999999997 36.74375  15.987499999999995 37.1875  C 17.237499999999997 37.63125  18.562499999999996 37.83125  19.937499999999996 37.775  C 21.312499999999996 37.71875  22.656249999999996 37.50625  23.9625 37.13125  C 25.262499999999992 36.7625  26.487499999999997 36.16875  27.625 35.362500000000004  C 28.762500000000003 34.556250000000006  29.69375 33.6  30.424999999999997 32.50625  C 30.69374999999999 32.91875  30.93125 33.225  31.143749999999997 33.425000000000004  L 31.6875 33.98125  C 32.05 34.35  32.60625 34.893750000000004  33.35625 35.612500000000004  C 34.1 36.331250000000004  34.862500000000004 37.03125000000001  35.625 37.71875000000001  L 42.15 31.47500000000001  L 41.775 31.16875000000001  C 41.50625 30.962500000000016  41.1875 30.66875000000001  40.824999999999996 30.275000000000013  C 40.4625 29.88750000000001  40.099999999999994 29.45625000000001  39.74999999999999 28.993750000000013  C 39.39374999999999 28.531250000000014  39.08749999999999 27.98750000000001  38.83124999999999 27.375000000000014  C 38.57499999999999 26.762500000000017  38.44374999999999 26.168750000000017  38 25.593750000000014  L 38 9.16875  C 38.44374999999999 8.5375  38.32499999999999 7.856249999999999  38.087499999999984 7.118749999999999  C 37.843749999999986 6.387499999999998  37.41874999999998 5.587499999999999  36.79374999999998 4.724999999999998  C 36.16874999999998 3.862499999999997  35.39374999999998 3.0874999999999986  34.46874999999998 2.412499999999998  C 33.53749999999998 1.737499999999997  32.299999999999976 1.1624999999999979  30.743749999999974 0.6999999999999975  C 29.19374999999998 0.23749999999999719  27.456249999999976 0.006249999999997868  25.543749999999974 0.006249999999997868  C 23.587499999999974 0.006249999999997868  21.768749999999976 0.23749999999999805  20.068749999999973 0.6874999999999982  C 18.37499999999997 1.143749999999999  16.924999999999972 1.749999999999998  15.712499999999974 2.5124999999999975  C 14.506249999999973 3.274999999999997  13.468749999999973 4.156249999999998  12.606249999999974 5.162499999999998  C 11.743749999999974 6.1687499999999975  11.099999999999973 7.218749999999999  10.681249999999974 8.312499999999998  C 10.262499999999974 9.40625  10.049999999999972 10.5125  10.049999999999972 11.631249999999998  L 18.5 12.375  C 18.84375 11.350000000000001  19.30625 10.462499999999999  19.875 9.7  C 20.45 8.9375  20.99375 8.3875  21.4875 8.04375  C 21.9875 7.7  22.525000000000002 7.424999999999998  23.09375 7.21875  C 23.66875 7.012499999999999  24.05625 6.90625  24.25625 6.88125  C 24.45625 6.862499999999999  24.6125 6.85625  24.731250000000003 6.85625  C 26.400000000000006 6.85625  27.556250000000006 7.35  28.206250000000004 8.331249999999999  C 28.6125 8.924999999999999  28.812500000000007 9.825  28.812500000000007 11.037499999999998  L 28.812500000000007 14.575  Z " stroke-width="0" stroke-dasharray="0" stroke="rgba(255, 255, 255, 0)" fill="none" class="stroke" mask="url(#Clip2414)" />
    <path d="M 28.81875000000001 19.725000000000005  L 28.818750000000005 24.25  C 28.818750000000005 25.2875  28.68125 26.23125  28.4125 27.0625  C 27.8375 28.88125  26.74375 30.024999999999995  25.137500000000003 30.487499999999994  C 23.737500000000004 30.9  22.406250000000004 30.69374999999999  21.143750000000004 29.875  C 19.800000000000004 28.999999999999996  19.131250000000005 27.762500000000003  19.131250000000005 26.168750000000003  C 19.131250000000005 24.925000000000004  19.443750000000005 23.862500000000004  20.068750000000005 22.975  C 20.693750000000005 22.09375  21.525000000000006 21.431250000000002  22.568750000000005 20.993750000000002  C 23.612500000000004 20.556250000000002  24.631250000000005 20.243750000000002  25.631250000000012 20.062500000000004  C 26.62500000000001 19.875000000000004  27.693750000000005 19.762500000000003  28.81875000000001 19.725000000000005  Z " stroke-width="0" stroke-dasharray="0" stroke="rgba(255, 255, 255, 0)" fill="none" class="stroke" mask="url(#Clip2414)" />
    <path d="M 49.85 39.868750000000006  C 50 38.87500000000001  49.975 38.23125  49.76875 37.93125  C 49.5 37.59375  48.775 37.375  47.5875 37.262499999999996  C 46.4 37.15  45.36875 37.15624999999999  44.481249999999996 37.287499999999994  C 43.525 37.39999999999999  42.537499999999994 37.675  41.525 38.12499999999999  C 40.50625 38.568749999999994  40.0625 38.943749999999994  40.175 39.23749999999999  L 40.21875 39.31874999999999  L 40.275 39.36249999999999  L 40.3625 39.37499999999999  L 40.65 39.37499999999999  C 40.699999999999996 39.37499999999999  40.762499999999996 39.36874999999999  40.85 39.36249999999999  C 40.9375 39.35624999999999  41.018750000000004 39.34374999999999  41.09375 39.33749999999999  C 41.16875 39.33124999999999  41.275 39.318749999999994  41.4125 39.31249999999999  C 41.54375 39.30624999999999  41.66875 39.287499999999994  41.7875 39.26874999999999  C 41.80625 39.26874999999999  42.018750000000004 39.24999999999999  42.43125 39.21249999999999  C 42.84375 39.17499999999999  43.14375 39.14999999999999  43.324999999999996 39.131249999999994  C 43.506249999999994 39.1125  43.81249999999999 39.09374999999999  44.231249999999996 39.074999999999996  C 44.65 39.05625  44.9875 39.05625  45.2375 39.074999999999996  C 45.4875 39.09374999999999  45.76875 39.11875  46.0875 39.14375  C 46.40625 39.168749999999996  46.6625 39.224999999999994  46.8625 39.3125  C 47.0625 39.39375  47.2125 39.5  47.30625 39.63125  C 47.63125 40.04375  47.56875 40.956250000000004  47.11875 42.375  C 46.668749999999996 43.793749999999996  46.24375 44.925  45.84375 45.7625  C 45.66875 46.118750000000006  45.66875 46.337500000000006  45.84375 46.431250000000006  C 46.01875 46.525000000000006  46.2625 46.43750000000001  46.5875 46.181250000000006  C 47.5625 45.41875  48.375 44.268750000000004  49.03125 42.72500000000001  C 49.4125 41.81250000000001  49.6875 40.86250000000001  49.85 39.868750000000006  Z " stroke-width="0" stroke-dasharray="0" stroke="rgba(255, 255, 255, 0)" fill="none" class="stroke" mask="url(#Clip2414)" />
  </g>
</svg>