<?xml version="1.0" encoding="utf-8"?>
<svg version="1.1" xmlns:xlink="http://www.w3.org/1999/xlink" width="30px" height="30px" xmlns="http://www.w3.org/2000/svg">
  <defs>
    <pattern id="BGPattern" patternUnits="userSpaceOnUse" alignment="0 0" imageRepeat="None" />
    <mask fill="white" id="Clip381">
      <path d="M 18.648000000000003 13.032  C 18.408000000000005 13.272  18.104000000000003 13.384  17.8 13.384  C 17.128 13.384  16.6 12.856  16.6 12.184000000000001  C 16.6 11.88  16.712 11.576  16.952 11.336  L 25.304000000000002 3  L 20.456000000000003 3  C 19.800000000000004 3  19.256000000000004 2.456  19.256000000000004 1.7999999999999998  C 19.256000000000004 1.1439999999999997  19.800000000000004 0.5999999999999999  20.456000000000003 0.5999999999999999  L 28.216 0.5999999999999999  C 29 0.5999999999999999  29.400000000000002 1.1280000000000001  29.400000000000002 1.7839999999999998  L 29.400000000000002 9.544  C 29.400000000000002 10.200000000000001  28.856 10.744  28.200000000000003 10.744  C 27.544000000000004 10.744  27.000000000000004 10.2  27.000000000000004 9.544  L 27.000000000000004 4.696000000000001  L 18.648000000000003 13.032  Z M 9.544 29.39999999999999  L 1.7839999999999998 29.4  C 0.9999999999999998 29.4  0.5999999999999999 28.872  0.5999999999999999 28.215999999999998  L 0.5999999999999999 20.455999999999996  C 0.5999999999999999 19.799999999999997  1.1440000000000001 19.255999999999997  1.7999999999999998 19.255999999999997  C 2.4559999999999995 19.255999999999997  3 19.799999999999997  3 20.455999999999996  L 3 25.303999999999995  L 11.352 16.967999999999996  C 11.592 16.727999999999998  11.896 16.615999999999996  12.200000000000001 16.615999999999996  C 12.872000000000002 16.615999999999996  13.4 17.143999999999995  13.4 17.815999999999995  C 13.4 18.119999999999994  13.288 18.423999999999996  13.048 18.663999999999994  L 4.696 26.999999999999993  L 9.544 26.999999999999993  C 10.200000000000001 26.999999999999993  10.744 27.543999999999993  10.744 28.199999999999992  C 10.744 28.85599999999999  10.2 29.39999999999999  9.544 29.39999999999999  Z " fill-rule="evenodd" />
    </mask>
  </defs>
  <g>
    <path d="M 18.648000000000003 13.032  C 18.408000000000005 13.272  18.104000000000003 13.384  17.8 13.384  C 17.128 13.384  16.6 12.856  16.6 12.184000000000001  C 16.6 11.88  16.712 11.576  16.952 11.336  L 25.304000000000002 3  L 20.456000000000003 3  C 19.800000000000004 3  19.256000000000004 2.456  19.256000000000004 1.7999999999999998  C 19.256000000000004 1.1439999999999997  19.800000000000004 0.5999999999999999  20.456000000000003 0.5999999999999999  L 28.216 0.5999999999999999  C 29 0.5999999999999999  29.400000000000002 1.1280000000000001  29.400000000000002 1.7839999999999998  L 29.400000000000002 9.544  C 29.400000000000002 10.200000000000001  28.856 10.744  28.200000000000003 10.744  C 27.544000000000004 10.744  27.000000000000004 10.2  27.000000000000004 9.544  L 27.000000000000004 4.696000000000001  L 18.648000000000003 13.032  Z M 9.544 29.39999999999999  L 1.7839999999999998 29.4  C 0.9999999999999998 29.4  0.5999999999999999 28.872  0.5999999999999999 28.215999999999998  L 0.5999999999999999 20.455999999999996  C 0.5999999999999999 19.799999999999997  1.1440000000000001 19.255999999999997  1.7999999999999998 19.255999999999997  C 2.4559999999999995 19.255999999999997  3 19.799999999999997  3 20.455999999999996  L 3 25.303999999999995  L 11.352 16.967999999999996  C 11.592 16.727999999999998  11.896 16.615999999999996  12.200000000000001 16.615999999999996  C 12.872000000000002 16.615999999999996  13.4 17.143999999999995  13.4 17.815999999999995  C 13.4 18.119999999999994  13.288 18.423999999999996  13.048 18.663999999999994  L 4.696 26.999999999999993  L 9.544 26.999999999999993  C 10.200000000000001 26.999999999999993  10.744 27.543999999999993  10.744 28.199999999999992  C 10.744 28.85599999999999  10.2 29.39999999999999  9.544 29.39999999999999  Z " fill-rule="nonzero" fill="rgba(0, 0, 0, 1)" stroke="none" class="fill" />
    <path d="M 18.648000000000003 13.032  C 18.408000000000005 13.272  18.104000000000003 13.384  17.8 13.384  C 17.128 13.384  16.6 12.856  16.6 12.184000000000001  C 16.6 11.88  16.712 11.576  16.952 11.336  L 25.304000000000002 3  L 20.456000000000003 3  C 19.800000000000004 3  19.256000000000004 2.456  19.256000000000004 1.7999999999999998  C 19.256000000000004 1.1439999999999997  19.800000000000004 0.5999999999999999  20.456000000000003 0.5999999999999999  L 28.216 0.5999999999999999  C 29 0.5999999999999999  29.400000000000002 1.1280000000000001  29.400000000000002 1.7839999999999998  L 29.400000000000002 9.544  C 29.400000000000002 10.200000000000001  28.856 10.744  28.200000000000003 10.744  C 27.544000000000004 10.744  27.000000000000004 10.2  27.000000000000004 9.544  L 27.000000000000004 4.696000000000001  L 18.648000000000003 13.032  Z " stroke-width="0" stroke-dasharray="0" stroke="rgba(255, 255, 255, 0)" fill="none" class="stroke" mask="url(#Clip381)" />
    <path d="M 9.544 29.39999999999999  L 1.7839999999999998 29.4  C 0.9999999999999998 29.4  0.5999999999999999 28.872  0.5999999999999999 28.215999999999998  L 0.5999999999999999 20.455999999999996  C 0.5999999999999999 19.799999999999997  1.1440000000000001 19.255999999999997  1.7999999999999998 19.255999999999997  C 2.4559999999999995 19.255999999999997  3 19.799999999999997  3 20.455999999999996  L 3 25.303999999999995  L 11.352 16.967999999999996  C 11.592 16.727999999999998  11.896 16.615999999999996  12.200000000000001 16.615999999999996  C 12.872000000000002 16.615999999999996  13.4 17.143999999999995  13.4 17.815999999999995  C 13.4 18.119999999999994  13.288 18.423999999999996  13.048 18.663999999999994  L 4.696 26.999999999999993  L 9.544 26.999999999999993  C 10.200000000000001 26.999999999999993  10.744 27.543999999999993  10.744 28.199999999999992  C 10.744 28.85599999999999  10.2 29.39999999999999  9.544 29.39999999999999  Z " stroke-width="0" stroke-dasharray="0" stroke="rgba(255, 255, 255, 0)" fill="none" class="stroke" mask="url(#Clip381)" />
  </g>
</svg>