<?xml version="1.0" encoding="utf-8"?>
<svg version="1.1" xmlns:xlink="http://www.w3.org/1999/xlink" width="49px" height="48px" xmlns="http://www.w3.org/2000/svg">
  <defs>
    <pattern id="BGPattern" patternUnits="userSpaceOnUse" alignment="0 0" imageRepeat="None" />
    <mask fill="white" id="Clip2422">
      <path d="M 24 1  C 24 0.4499999999999993  23.55 0  23 0  L 3.9999999999999996 0  C 3.4499999999999993 0  3 0.4499999999999993  3 1  L 3 20  C 3 20.55  3.4499999999999993 21  3.9999999999999996 21  L 23 21  C 23.55 21  24 20.55  24 20  L 24 1  Z M 20 5  L 20 17  L 8 17  L 8 5  L 20 5  Z M 49 1  C 49 0.4499999999999993  48.55 0  48 0  L 29 0  C 28.450000000000003 0  28 0.4499999999999993  28 1  L 28 20  C 28 20.55  28.450000000000003 21  29 21  L 48 21  C 48.55 21  49 20.55  49 20  L 49 1  Z M 44 5  L 44 17  L 32 17  L 32 5  L 44 5  Z M 49 26  C 49 25.450000000000003  48.55 25  48 25  L 29 25  C 28.450000000000003 25  28 25.450000000000003  28 26  L 28 45  C 28 45.55  28.450000000000003 46  29 46  L 48 46  C 48.55 46  49 45.55  49 45  L 49 26  Z M 44 29  L 44 41  L 32 41  L 32 29  L 44 29  Z M 21 36  C 21 35.725  20.775 35.5  20.5 35.5  L 12.5 35.5  L 12.5 27.5  C 12.5 27.225  12.274999999999997 27  12 27  L 9 27  C 8.725 27  8.5 27.225  8.5 27.5  L 8.5 35.5  L 0.49999999999999994 35.5  C 0.22499999999999964 35.5  0 35.725  0 36  L 0 39  C 0 39.275  0.22499999999999964 39.5  0.49999999999999994 39.5  L 8.5 39.5  L 8.5 47.5  C 8.5 47.775  8.725 48  9 48  L 12 48  C 12.274999999999997 48  12.5 47.775  12.5 47.5  L 12.5 39.5  L 20.5 39.5  C 20.775 39.5  21 39.275  21 39  L 21 36  Z " fill-rule="evenodd" />
    </mask>
  </defs>
  <g>
    <path d="M 24 1  C 24 0.4499999999999993  23.55 0  23 0  L 3.9999999999999996 0  C 3.4499999999999993 0  3 0.4499999999999993  3 1  L 3 20  C 3 20.55  3.4499999999999993 21  3.9999999999999996 21  L 23 21  C 23.55 21  24 20.55  24 20  L 24 1  Z M 20 5  L 20 17  L 8 17  L 8 5  L 20 5  Z M 49 1  C 49 0.4499999999999993  48.55 0  48 0  L 29 0  C 28.450000000000003 0  28 0.4499999999999993  28 1  L 28 20  C 28 20.55  28.450000000000003 21  29 21  L 48 21  C 48.55 21  49 20.55  49 20  L 49 1  Z M 44 5  L 44 17  L 32 17  L 32 5  L 44 5  Z M 49 26  C 49 25.450000000000003  48.55 25  48 25  L 29 25  C 28.450000000000003 25  28 25.450000000000003  28 26  L 28 45  C 28 45.55  28.450000000000003 46  29 46  L 48 46  C 48.55 46  49 45.55  49 45  L 49 26  Z M 44 29  L 44 41  L 32 41  L 32 29  L 44 29  Z M 21 36  C 21 35.725  20.775 35.5  20.5 35.5  L 12.5 35.5  L 12.5 27.5  C 12.5 27.225  12.274999999999997 27  12 27  L 9 27  C 8.725 27  8.5 27.225  8.5 27.5  L 8.5 35.5  L 0.49999999999999994 35.5  C 0.22499999999999964 35.5  0 35.725  0 36  L 0 39  C 0 39.275  0.22499999999999964 39.5  0.49999999999999994 39.5  L 8.5 39.5  L 8.5 47.5  C 8.5 47.775  8.725 48  9 48  L 12 48  C 12.274999999999997 48  12.5 47.775  12.5 47.5  L 12.5 39.5  L 20.5 39.5  C 20.775 39.5  21 39.275  21 39  L 21 36  Z " fill-rule="nonzero" fill="rgba(0, 0, 0, 1)" stroke="none" class="fill" />
    <path d="M 24 1  C 24 0.4499999999999993  23.55 0  23 0  L 3.9999999999999996 0  C 3.4499999999999993 0  3 0.4499999999999993  3 1  L 3 20  C 3 20.55  3.4499999999999993 21  3.9999999999999996 21  L 23 21  C 23.55 21  24 20.55  24 20  L 24 1  Z " stroke-width="0" stroke-dasharray="0" stroke="rgba(255, 255, 255, 0)" fill="none" class="stroke" mask="url(#Clip2422)" />
    <path d="M 20 5  L 20 17  L 8 17  L 8 5  L 20 5  Z " stroke-width="0" stroke-dasharray="0" stroke="rgba(255, 255, 255, 0)" fill="none" class="stroke" mask="url(#Clip2422)" />
    <path d="M 49 1  C 49 0.4499999999999993  48.55 0  48 0  L 29 0  C 28.450000000000003 0  28 0.4499999999999993  28 1  L 28 20  C 28 20.55  28.450000000000003 21  29 21  L 48 21  C 48.55 21  49 20.55  49 20  L 49 1  Z " stroke-width="0" stroke-dasharray="0" stroke="rgba(255, 255, 255, 0)" fill="none" class="stroke" mask="url(#Clip2422)" />
    <path d="M 44 5  L 44 17  L 32 17  L 32 5  L 44 5  Z " stroke-width="0" stroke-dasharray="0" stroke="rgba(255, 255, 255, 0)" fill="none" class="stroke" mask="url(#Clip2422)" />
    <path d="M 49 26  C 49 25.450000000000003  48.55 25  48 25  L 29 25  C 28.450000000000003 25  28 25.450000000000003  28 26  L 28 45  C 28 45.55  28.450000000000003 46  29 46  L 48 46  C 48.55 46  49 45.55  49 45  L 49 26  Z " stroke-width="0" stroke-dasharray="0" stroke="rgba(255, 255, 255, 0)" fill="none" class="stroke" mask="url(#Clip2422)" />
    <path d="M 44 29  L 44 41  L 32 41  L 32 29  L 44 29  Z " stroke-width="0" stroke-dasharray="0" stroke="rgba(255, 255, 255, 0)" fill="none" class="stroke" mask="url(#Clip2422)" />
    <path d="M 21 36  C 21 35.725  20.775 35.5  20.5 35.5  L 12.5 35.5  L 12.5 27.5  C 12.5 27.225  12.274999999999997 27  12 27  L 9 27  C 8.725 27  8.5 27.225  8.5 27.5  L 8.5 35.5  L 0.49999999999999994 35.5  C 0.22499999999999964 35.5  0 35.725  0 36  L 0 39  C 0 39.275  0.22499999999999964 39.5  0.49999999999999994 39.5  L 8.5 39.5  L 8.5 47.5  C 8.5 47.775  8.725 48  9 48  L 12 48  C 12.274999999999997 48  12.5 47.775  12.5 47.5  L 12.5 39.5  L 20.5 39.5  C 20.775 39.5  21 39.275  21 39  L 21 36  Z " stroke-width="0" stroke-dasharray="0" stroke="rgba(255, 255, 255, 0)" fill="none" class="stroke" mask="url(#Clip2422)" />
  </g>
</svg>