<?xml version="1.0" encoding="utf-8"?>
<svg version="1.1" xmlns:xlink="http://www.w3.org/1999/xlink" width="13px" height="14px" xmlns="http://www.w3.org/2000/svg">
  <defs>
    <pattern id="BGPattern" patternUnits="userSpaceOnUse" alignment="0 0" imageRepeat="None" />
    <mask fill="white" id="Clip6259">
      <path d="M 12.25058870106276 7.00075  C 12.25058870106276 7.432637513620378  12.019074380594251 7.831383131344057  11.643999999999998 8.045499999999999  L 2.099500000000001 13.5835  C 1.289500000000002 14.053  0.25 13.484499999999997  0.25 12.538  L 0.25 1.4619999999999997  C 0.25 0.5169999999999995  1.2895000000000003 -0.052999999999999936  2.099500000000001 0.41800000000000015  L 11.643999999999998 5.956000000000001  C 12.019074380594251 6.170116868655949  12.25058870106276 6.568862486379626  12.25058870106276 7.00075  Z " fill-rule="evenodd" />
    </mask>
  </defs>
  <g transform="matrix(1 0 0 1 -11 0 )">
    <path d="M 12.25058870106276 7.00075  C 12.25058870106276 7.432637513620378  12.019074380594251 7.831383131344057  11.643999999999998 8.045499999999999  L 2.099500000000001 13.5835  C 1.289500000000002 14.053  0.25 13.484499999999997  0.25 12.538  L 0.25 1.4619999999999997  C 0.25 0.5169999999999995  1.2895000000000003 -0.052999999999999936  2.099500000000001 0.41800000000000015  L 11.643999999999998 5.956000000000001  C 12.019074380594251 6.170116868655949  12.25058870106276 6.568862486379626  12.25058870106276 7.00075  Z " fill-rule="nonzero" fill="rgba(0, 0, 0, 1)" stroke="none" transform="matrix(1 0 0 1 11 0 )" class="fill" />
    <path d="M 12.25058870106276 7.00075  C 12.25058870106276 7.432637513620378  12.019074380594251 7.831383131344057  11.643999999999998 8.045499999999999  L 2.099500000000001 13.5835  C 1.289500000000002 14.053  0.25 13.484499999999997  0.25 12.538  L 0.25 1.4619999999999997  C 0.25 0.5169999999999995  1.2895000000000003 -0.052999999999999936  2.099500000000001 0.41800000000000015  L 11.643999999999998 5.956000000000001  C 12.019074380594251 6.170116868655949  12.25058870106276 6.568862486379626  12.25058870106276 7.00075  Z " stroke-width="0" stroke-dasharray="0" stroke="rgba(255, 255, 255, 0)" fill="none" transform="matrix(1 0 0 1 11 0 )" class="stroke" mask="url(#Clip6259)" />
  </g>
</svg>