<?xml version="1.0" encoding="utf-8"?>
<svg version="1.1" xmlns:xlink="http://www.w3.org/1999/xlink" width="16px" height="15px" xmlns="http://www.w3.org/2000/svg">
  <defs>
    <pattern id="BGPattern" patternUnits="userSpaceOnUse" alignment="0 0" imageRepeat="None" />
    <mask fill="white" id="Clip4437">
      <path d="M 16 1  C 16 0.44771525016920677  15.552284749830793 0  15 0  L 1 0  C 0.44771525016920677 0  0 0.44771525016920677  0 1  L 0 14  C 0 14.552284749830793  0.44771525016920677 15  1 15  L 15 15  C 15.552284749830793 15  16 14.552284749830793  16 14  L 16 1  Z M 12 4  L 12 6  L 9 6  L 9 9  L 12 9  L 12 11  L 9 11  L 9 13  L 7 13  L 7 11  L 4 11  L 4 9  L 7 9  L 7 6  L 4 6  L 4 4  L 7 4  L 7 2  L 9 2  L 9 4  L 12 4  Z " fill-rule="evenodd" />
    </mask>
  </defs>
  <g transform="matrix(1 0 0 1 -16 -3 )">
    <path d="M 16 1  C 16 0.44771525016920677  15.552284749830793 0  15 0  L 1 0  C 0.44771525016920677 0  0 0.44771525016920677  0 1  L 0 14  C 0 14.552284749830793  0.44771525016920677 15  1 15  L 15 15  C 15.552284749830793 15  16 14.552284749830793  16 14  L 16 1  Z M 12 4  L 12 6  L 9 6  L 9 9  L 12 9  L 12 11  L 9 11  L 9 13  L 7 13  L 7 11  L 4 11  L 4 9  L 7 9  L 7 6  L 4 6  L 4 4  L 7 4  L 7 2  L 9 2  L 9 4  L 12 4  Z " fill-rule="nonzero" fill="rgba(0, 0, 0, 1)" stroke="none" transform="matrix(1 0 0 1 16 3 )" class="fill" />
    <path d="M 16 1  C 16 0.44771525016920677  15.552284749830793 0  15 0  L 1 0  C 0.44771525016920677 0  0 0.44771525016920677  0 1  L 0 14  C 0 14.552284749830793  0.44771525016920677 15  1 15  L 15 15  C 15.552284749830793 15  16 14.552284749830793  16 14  L 16 1  Z " stroke-width="0" stroke-dasharray="0" stroke="rgba(255, 255, 255, 0)" fill="none" transform="matrix(1 0 0 1 16 3 )" class="stroke" mask="url(#Clip4437)" />
    <path d="M 12 4  L 12 6  L 9 6  L 9 9  L 12 9  L 12 11  L 9 11  L 9 13  L 7 13  L 7 11  L 4 11  L 4 9  L 7 9  L 7 6  L 4 6  L 4 4  L 7 4  L 7 2  L 9 2  L 9 4  L 12 4  Z " stroke-width="0" stroke-dasharray="0" stroke="rgba(255, 255, 255, 0)" fill="none" transform="matrix(1 0 0 1 16 3 )" class="stroke" mask="url(#Clip4437)" />
  </g>
</svg>