<?xml version="1.0" encoding="utf-8"?>
<svg version="1.1" xmlns:xlink="http://www.w3.org/1999/xlink" width="8px" height="11px" xmlns="http://www.w3.org/2000/svg">
  <defs>
    <pattern id="BGPattern" patternUnits="userSpaceOnUse" alignment="0 0" imageRepeat="None" />
    <mask fill="white" id="Clip4436">
      <path d="M 8 4  L 8 2  L 5 2  L 5 0  L 3 0  L 3 2  L 0 2  L 0 4  L 3 4  L 3 7  L 0 7  L 0 9  L 3 9  L 3 11  L 5 11  L 5 9  L 8 9  L 8 7  L 5 7  L 5 4  L 8 4  Z " fill-rule="evenodd" />
    </mask>
  </defs>
  <g transform="matrix(1 0 0 1 -20 -5 )">
    <path d="M 8 4  L 8 2  L 5 2  L 5 0  L 3 0  L 3 2  L 0 2  L 0 4  L 3 4  L 3 7  L 0 7  L 0 9  L 3 9  L 3 11  L 5 11  L 5 9  L 8 9  L 8 7  L 5 7  L 5 4  L 8 4  Z " fill-rule="nonzero" fill="rgba(255, 255, 255, 0)" stroke="none" transform="matrix(1 0 0 1 20 5 )" class="fill" />
    <path d="M 8 4  L 8 2  L 5 2  L 5 0  L 3 0  L 3 2  L 0 2  L 0 4  L 3 4  L 3 7  L 0 7  L 0 9  L 3 9  L 3 11  L 5 11  L 5 9  L 8 9  L 8 7  L 5 7  L 5 4  L 8 4  Z " stroke-width="0" stroke-dasharray="0" stroke="rgba(255, 255, 255, 0)" fill="none" transform="matrix(1 0 0 1 20 5 )" class="stroke" mask="url(#Clip4436)" />
  </g>
</svg>