<?xml version="1.0" encoding="utf-8"?>
<svg version="1.1" xmlns:xlink="http://www.w3.org/1999/xlink" width="34px" height="48px" xmlns="http://www.w3.org/2000/svg">
  <defs>
    <pattern id="BGPattern" patternUnits="userSpaceOnUse" alignment="0 0" imageRepeat="None" />
    <mask fill="white" id="Clip6931">
      <path d="M 10 47.99999999999999  L 10 8.001999999999999  L 14 8.001999999999999  L 14 47.99999999999999  L 10 47.99999999999999  Z M 20 8.001999999999999  L 24 8.001999999999999  L 24 47.99999999999999  L 20 47.99999999999999  L 20 8.001999999999999  Z M 0 29.999999999999993  L 0 0  L 4 0  L 4 29.999999999999993  L 0 29.999999999999993  Z M 30 29.999999999999993  L 30 8.001999999999999  L 34 8.001999999999999  L 34 29.999999999999993  L 30 29.999999999999993  Z " fill-rule="evenodd" />
    </mask>
  </defs>
  <g>
    <path d="M 10 47.99999999999999  L 10 8.001999999999999  L 14 8.001999999999999  L 14 47.99999999999999  L 10 47.99999999999999  Z M 20 8.001999999999999  L 24 8.001999999999999  L 24 47.99999999999999  L 20 47.99999999999999  L 20 8.001999999999999  Z M 0 29.999999999999993  L 0 0  L 4 0  L 4 29.999999999999993  L 0 29.999999999999993  Z M 30 29.999999999999993  L 30 8.001999999999999  L 34 8.001999999999999  L 34 29.999999999999993  L 30 29.999999999999993  Z " fill-rule="nonzero" fill="rgba(237, 25, 101, 1)" stroke="none" class="fill" />
    <path d="M 10 47.99999999999999  L 10 8.001999999999999  L 14 8.001999999999999  L 14 47.99999999999999  L 10 47.99999999999999  Z " stroke-width="0" stroke-dasharray="0" stroke="rgba(255, 255, 255, 0)" fill="none" class="stroke" mask="url(#Clip6931)" />
    <path d="M 20 8.001999999999999  L 24 8.001999999999999  L 24 47.99999999999999  L 20 47.99999999999999  L 20 8.001999999999999  Z " stroke-width="0" stroke-dasharray="0" stroke="rgba(255, 255, 255, 0)" fill="none" class="stroke" mask="url(#Clip6931)" />
    <path d="M 0 29.999999999999993  L 0 0  L 4 0  L 4 29.999999999999993  L 0 29.999999999999993  Z " stroke-width="0" stroke-dasharray="0" stroke="rgba(255, 255, 255, 0)" fill="none" class="stroke" mask="url(#Clip6931)" />
    <path d="M 30 29.999999999999993  L 30 8.001999999999999  L 34 8.001999999999999  L 34 29.999999999999993  L 30 29.999999999999993  Z " stroke-width="0" stroke-dasharray="0" stroke="rgba(255, 255, 255, 0)" fill="none" class="stroke" mask="url(#Clip6931)" />
  </g>
</svg>