<?xml version="1.0" encoding="utf-8"?>
<svg version="1.1" xmlns:xlink="http://www.w3.org/1999/xlink" width="24px" height="24px" xmlns="http://www.w3.org/2000/svg">
  <defs>
    <pattern id="BGPattern" patternUnits="userSpaceOnUse" alignment="0 0" imageRepeat="None" />
    <mask fill="white" id="Clip5801">
      <path d="M 12.0015 0  L 12 0  C 8.7435 0  8.334 0.015  7.054500000000001 0.07200000000000001  C 5.775 0.132  4.9035 0.333  4.14 0.63  C 3.339140948260935 0.9312286511028579  2.6137372636606333 1.4037393080443394  2.0144999999999995 2.0145  C 1.4041142191045686 2.6140441727544315  0.9316609126916644 3.339359812177059  0.63 4.14  C 0.333 4.901999999999999  0.1305 5.775  0.07200000000000001 7.050000000000001  C 0.015 8.3325  0 8.7405  0 12.0015  C 0 15.2595  0.015 15.6675  0.07200000000000001 16.947  C 0.132 18.225  0.33299999999999996 19.0965  0.63 19.86  C 0.9375 20.649  1.347 21.317999999999998  2.0145 21.985500000000002  C 2.6805 22.653  3.3495 23.064  4.1385 23.37  C 4.9035 23.667  5.7735 23.869500000000002  7.051499999999999 23.928  C 8.3325 23.985  8.7405 24  12 24  C 15.2595 24  15.665999999999999 23.985  16.947 23.928  C 18.2235 23.868000000000002  19.098 23.667  19.8615 23.37  C 20.661844372088744 23.068621374854885  21.386727817909122 22.596116134394286  21.985500000000002 21.985500000000002  C 22.653 21.317999999999998  23.0625 20.649  23.37 19.86  C 23.665499999999998 19.0965  23.868000000000002 18.225  23.928 16.947  C 23.985 15.6675  24 15.2595  24 12  C 24 8.7405  23.985 8.3325  23.928 7.051500000000001  C 23.868000000000002 5.775  23.665499999999998 4.902000000000001  23.37 4.140000000000001  C 23.068382207409666 3.3393379726206716  22.595923186293547 2.6140135599212755  21.9855 2.014500000000001  C 21.38644771817615 1.4035134436540857  20.660990871457106 0.9309681581765431  19.86 0.63  C 19.095 0.33299999999999996  18.222 0.13049999999999995  16.945500000000003 0.07199999999999998  C 15.6645 0.015  15.258000000000001 0  11.997 0  L 12.0015 0  Z M 10.924500000000002 2.1600000000000015  L 10.9245 2.163  L 12.001500000000002 2.163  C 15.2055 2.163  15.585 2.1734999999999998  16.8495 2.232  C 18.0195 2.2845  18.655500000000004 2.481  19.078500000000002 2.6445  C 19.638 2.862  20.038500000000003 3.1229999999999998  20.4585 3.543  C 20.878500000000003 3.9630000000000005  21.138 4.362  21.355500000000003 4.923  C 21.520500000000002 5.3445  21.715500000000002 5.9805  21.768000000000004 7.150500000000001  C 21.826500000000003 8.415000000000001  21.838500000000003 8.794500000000001  21.838500000000003 11.997  C 21.838500000000003 15.199499999999999  21.826500000000006 15.5805  21.768000000000004 16.845  C 21.715500000000002 18.015  21.519000000000002 18.6495  21.355500000000006 19.0725  C 21.16311274259442 19.593539138176375  20.85604056924484 20.064656546036588  20.457 20.451  C 20.037000000000003 20.871  19.638000000000005 21.130499999999998  19.077 21.348000000000003  C 18.657000000000004 21.513  18.021 21.708000000000002  16.849500000000003 21.762  C 15.585000000000004 21.819000000000003  15.205500000000004 21.832500000000003  12.001500000000002 21.832500000000003  C 8.7975 21.832500000000003  8.416500000000001 21.819000000000003  7.152000000000001 21.762  C 5.982000000000001 21.708000000000002  5.3475 21.513  4.924500000000001 21.348000000000006  C 4.403248602723917 21.155881669445616  3.931689111878836 20.84936800039631  3.544500000000001 20.451  C 3.1451262088060696 20.064050207743982  2.83758451476618 19.592486276882816  2.6445000000000007 19.071  C 2.4810000000000008 18.6495  2.2845000000000004 18.0135  2.2320000000000007 16.843500000000002  C 2.1750000000000007 15.579  2.1630000000000007 15.1995  2.1630000000000007 11.994  C 2.1630000000000007 8.790000000000001  2.1750000000000007 8.412  2.2320000000000007 7.147500000000001  C 2.2860000000000005 5.977500000000001  2.4810000000000008 5.341500000000002  2.646000000000001 4.918500000000002  C 2.8635000000000006 4.359000000000001  3.124500000000001 3.958500000000001  3.5445000000000007 3.5385000000000013  C 3.964500000000001 3.118500000000001  4.363500000000001 2.8590000000000013  4.9245 2.6415000000000015  C 5.3475 2.4765000000000015  5.982000000000001 2.2815000000000016  7.152000000000001 2.2275000000000014  C 8.259 2.1765000000000017  8.688 2.1615000000000015  10.924500000000002 2.1600000000000015  Z M 18.40649995708466 4.154999999999999  C 17.611209917328313 4.154999999999999  16.966499957084658 4.799709960243656  16.966499957084658 5.594999999999999  C 16.966499957084658 6.390290039756341  17.611209917328313 7.034999999999998  18.40649995708466 7.034999999999998  C 19.20179000941061 7.034999999999998  19.84649996965427 6.39029003975634  19.84649996965427 5.594999999999998  C 19.84649996965427 4.799709960243656  19.20179000941061 4.1549999999999985  18.40649996965427 4.1549999999999985  Z M 18.0688507020307 12.000750000000004  C 18.0688507020307 8.634232730222061  15.36760761812672 5.890516958236504  12.001500000000002 5.838000000000001  C 11.969452671580983 5.837500007605489  11.937401930574879 5.837250000000003  11.905350702030702 5.837250000000003  C 8.501343646448607 5.837250000000003  5.741850702030702 8.596742944417906  5.741850702030702 12.000750000000004  C 5.741850702030702 15.404757055582099  8.501343646448607 18.164250000000003  11.905350702030702 18.164250000000003  C 11.937401930574763 18.164250000000003  11.969452671581102 18.163999992394515  12.001500000000002 18.163500000000003  C 15.36760761812672 18.110983041763504  18.0688507020307 15.367267269777942  18.0688507020307 12.000750000000004  Z M 12.001500000000002 7.9995  C 14.21091514169809 7.9995  16.002 9.79058485830191  16.002 12  C 16.002 14.209415141698084  14.21091514169809 16.0005  12.001500000000002 16.0005  C 9.792084858301912 16.0005  8.001000000000001 14.209415141698088  8.001000000000001 12  C 8.001000000000001 9.79058485830191  9.792084858301912 7.9995  12.001500000000002 7.9995  Z " fill-rule="evenodd" />
    </mask>
  </defs>
  <g>
    <path d="M 12.0015 0  L 12 0  C 8.7435 0  8.334 0.015  7.054500000000001 0.07200000000000001  C 5.775 0.132  4.9035 0.333  4.14 0.63  C 3.339140948260935 0.9312286511028579  2.6137372636606333 1.4037393080443394  2.0144999999999995 2.0145  C 1.4041142191045686 2.6140441727544315  0.9316609126916644 3.339359812177059  0.63 4.14  C 0.333 4.901999999999999  0.1305 5.775  0.07200000000000001 7.050000000000001  C 0.015 8.3325  0 8.7405  0 12.0015  C 0 15.2595  0.015 15.6675  0.07200000000000001 16.947  C 0.132 18.225  0.33299999999999996 19.0965  0.63 19.86  C 0.9375 20.649  1.347 21.317999999999998  2.0145 21.985500000000002  C 2.6805 22.653  3.3495 23.064  4.1385 23.37  C 4.9035 23.667  5.7735 23.869500000000002  7.051499999999999 23.928  C 8.3325 23.985  8.7405 24  12 24  C 15.2595 24  15.665999999999999 23.985  16.947 23.928  C 18.2235 23.868000000000002  19.098 23.667  19.8615 23.37  C 20.661844372088744 23.068621374854885  21.386727817909122 22.596116134394286  21.985500000000002 21.985500000000002  C 22.653 21.317999999999998  23.0625 20.649  23.37 19.86  C 23.665499999999998 19.0965  23.868000000000002 18.225  23.928 16.947  C 23.985 15.6675  24 15.2595  24 12  C 24 8.7405  23.985 8.3325  23.928 7.051500000000001  C 23.868000000000002 5.775  23.665499999999998 4.902000000000001  23.37 4.140000000000001  C 23.068382207409666 3.3393379726206716  22.595923186293547 2.6140135599212755  21.9855 2.014500000000001  C 21.38644771817615 1.4035134436540857  20.660990871457106 0.9309681581765431  19.86 0.63  C 19.095 0.33299999999999996  18.222 0.13049999999999995  16.945500000000003 0.07199999999999998  C 15.6645 0.015  15.258000000000001 0  11.997 0  L 12.0015 0  Z M 10.924500000000002 2.1600000000000015  L 10.9245 2.163  L 12.001500000000002 2.163  C 15.2055 2.163  15.585 2.1734999999999998  16.8495 2.232  C 18.0195 2.2845  18.655500000000004 2.481  19.078500000000002 2.6445  C 19.638 2.862  20.038500000000003 3.1229999999999998  20.4585 3.543  C 20.878500000000003 3.9630000000000005  21.138 4.362  21.355500000000003 4.923  C 21.520500000000002 5.3445  21.715500000000002 5.9805  21.768000000000004 7.150500000000001  C 21.826500000000003 8.415000000000001  21.838500000000003 8.794500000000001  21.838500000000003 11.997  C 21.838500000000003 15.199499999999999  21.826500000000006 15.5805  21.768000000000004 16.845  C 21.715500000000002 18.015  21.519000000000002 18.6495  21.355500000000006 19.0725  C 21.16311274259442 19.593539138176375  20.85604056924484 20.064656546036588  20.457 20.451  C 20.037000000000003 20.871  19.638000000000005 21.130499999999998  19.077 21.348000000000003  C 18.657000000000004 21.513  18.021 21.708000000000002  16.849500000000003 21.762  C 15.585000000000004 21.819000000000003  15.205500000000004 21.832500000000003  12.001500000000002 21.832500000000003  C 8.7975 21.832500000000003  8.416500000000001 21.819000000000003  7.152000000000001 21.762  C 5.982000000000001 21.708000000000002  5.3475 21.513  4.924500000000001 21.348000000000006  C 4.403248602723917 21.155881669445616  3.931689111878836 20.84936800039631  3.544500000000001 20.451  C 3.1451262088060696 20.064050207743982  2.83758451476618 19.592486276882816  2.6445000000000007 19.071  C 2.4810000000000008 18.6495  2.2845000000000004 18.0135  2.2320000000000007 16.843500000000002  C 2.1750000000000007 15.579  2.1630000000000007 15.1995  2.1630000000000007 11.994  C 2.1630000000000007 8.790000000000001  2.1750000000000007 8.412  2.2320000000000007 7.147500000000001  C 2.2860000000000005 5.977500000000001  2.4810000000000008 5.341500000000002  2.646000000000001 4.918500000000002  C 2.8635000000000006 4.359000000000001  3.124500000000001 3.958500000000001  3.5445000000000007 3.5385000000000013  C 3.964500000000001 3.118500000000001  4.363500000000001 2.8590000000000013  4.9245 2.6415000000000015  C 5.3475 2.4765000000000015  5.982000000000001 2.2815000000000016  7.152000000000001 2.2275000000000014  C 8.259 2.1765000000000017  8.688 2.1615000000000015  10.924500000000002 2.1600000000000015  Z M 18.40649995708466 4.154999999999999  C 17.611209917328313 4.154999999999999  16.966499957084658 4.799709960243656  16.966499957084658 5.594999999999999  C 16.966499957084658 6.390290039756341  17.611209917328313 7.034999999999998  18.40649995708466 7.034999999999998  C 19.20179000941061 7.034999999999998  19.84649996965427 6.39029003975634  19.84649996965427 5.594999999999998  C 19.84649996965427 4.799709960243656  19.20179000941061 4.1549999999999985  18.40649996965427 4.1549999999999985  Z M 18.0688507020307 12.000750000000004  C 18.0688507020307 8.634232730222061  15.36760761812672 5.890516958236504  12.001500000000002 5.838000000000001  C 11.969452671580983 5.837500007605489  11.937401930574879 5.837250000000003  11.905350702030702 5.837250000000003  C 8.501343646448607 5.837250000000003  5.741850702030702 8.596742944417906  5.741850702030702 12.000750000000004  C 5.741850702030702 15.404757055582099  8.501343646448607 18.164250000000003  11.905350702030702 18.164250000000003  C 11.937401930574763 18.164250000000003  11.969452671581102 18.163999992394515  12.001500000000002 18.163500000000003  C 15.36760761812672 18.110983041763504  18.0688507020307 15.367267269777942  18.0688507020307 12.000750000000004  Z M 12.001500000000002 7.9995  C 14.21091514169809 7.9995  16.002 9.79058485830191  16.002 12  C 16.002 14.209415141698084  14.21091514169809 16.0005  12.001500000000002 16.0005  C 9.792084858301912 16.0005  8.001000000000001 14.209415141698088  8.001000000000001 12  C 8.001000000000001 9.79058485830191  9.792084858301912 7.9995  12.001500000000002 7.9995  Z " fill-rule="nonzero" fill="rgba(0, 0, 0, 1)" stroke="none" class="fill" />
    <path d="M 12.0015 0  L 12 0  C 8.7435 0  8.334 0.015  7.054500000000001 0.07200000000000001  C 5.775 0.132  4.9035 0.333  4.14 0.63  C 3.339140948260935 0.9312286511028579  2.6137372636606333 1.4037393080443394  2.0144999999999995 2.0145  C 1.4041142191045686 2.6140441727544315  0.9316609126916644 3.339359812177059  0.63 4.14  C 0.333 4.901999999999999  0.1305 5.775  0.07200000000000001 7.050000000000001  C 0.015 8.3325  0 8.7405  0 12.0015  C 0 15.2595  0.015 15.6675  0.07200000000000001 16.947  C 0.132 18.225  0.33299999999999996 19.0965  0.63 19.86  C 0.9375 20.649  1.347 21.317999999999998  2.0145 21.985500000000002  C 2.6805 22.653  3.3495 23.064  4.1385 23.37  C 4.9035 23.667  5.7735 23.869500000000002  7.051499999999999 23.928  C 8.3325 23.985  8.7405 24  12 24  C 15.2595 24  15.665999999999999 23.985  16.947 23.928  C 18.2235 23.868000000000002  19.098 23.667  19.8615 23.37  C 20.661844372088744 23.068621374854885  21.386727817909122 22.596116134394286  21.985500000000002 21.985500000000002  C 22.653 21.317999999999998  23.0625 20.649  23.37 19.86  C 23.665499999999998 19.0965  23.868000000000002 18.225  23.928 16.947  C 23.985 15.6675  24 15.2595  24 12  C 24 8.7405  23.985 8.3325  23.928 7.051500000000001  C 23.868000000000002 5.775  23.665499999999998 4.902000000000001  23.37 4.140000000000001  C 23.068382207409666 3.3393379726206716  22.595923186293547 2.6140135599212755  21.9855 2.014500000000001  C 21.38644771817615 1.4035134436540857  20.660990871457106 0.9309681581765431  19.86 0.63  C 19.095 0.33299999999999996  18.222 0.13049999999999995  16.945500000000003 0.07199999999999998  C 15.6645 0.015  15.258000000000001 0  11.997 0  L 12.0015 0  Z " stroke-width="0" stroke-dasharray="0" stroke="rgba(255, 255, 255, 0)" fill="none" class="stroke" mask="url(#Clip5801)" />
    <path d="M 10.924500000000002 2.1600000000000015  L 10.9245 2.163  L 12.001500000000002 2.163  C 15.2055 2.163  15.585 2.1734999999999998  16.8495 2.232  C 18.0195 2.2845  18.655500000000004 2.481  19.078500000000002 2.6445  C 19.638 2.862  20.038500000000003 3.1229999999999998  20.4585 3.543  C 20.878500000000003 3.9630000000000005  21.138 4.362  21.355500000000003 4.923  C 21.520500000000002 5.3445  21.715500000000002 5.9805  21.768000000000004 7.150500000000001  C 21.826500000000003 8.415000000000001  21.838500000000003 8.794500000000001  21.838500000000003 11.997  C 21.838500000000003 15.199499999999999  21.826500000000006 15.5805  21.768000000000004 16.845  C 21.715500000000002 18.015  21.519000000000002 18.6495  21.355500000000006 19.0725  C 21.16311274259442 19.593539138176375  20.85604056924484 20.064656546036588  20.457 20.451  C 20.037000000000003 20.871  19.638000000000005 21.130499999999998  19.077 21.348000000000003  C 18.657000000000004 21.513  18.021 21.708000000000002  16.849500000000003 21.762  C 15.585000000000004 21.819000000000003  15.205500000000004 21.832500000000003  12.001500000000002 21.832500000000003  C 8.7975 21.832500000000003  8.416500000000001 21.819000000000003  7.152000000000001 21.762  C 5.982000000000001 21.708000000000002  5.3475 21.513  4.924500000000001 21.348000000000006  C 4.403248602723917 21.155881669445616  3.931689111878836 20.84936800039631  3.544500000000001 20.451  C 3.1451262088060696 20.064050207743982  2.83758451476618 19.592486276882816  2.6445000000000007 19.071  C 2.4810000000000008 18.6495  2.2845000000000004 18.0135  2.2320000000000007 16.843500000000002  C 2.1750000000000007 15.579  2.1630000000000007 15.1995  2.1630000000000007 11.994  C 2.1630000000000007 8.790000000000001  2.1750000000000007 8.412  2.2320000000000007 7.147500000000001  C 2.2860000000000005 5.977500000000001  2.4810000000000008 5.341500000000002  2.646000000000001 4.918500000000002  C 2.8635000000000006 4.359000000000001  3.124500000000001 3.958500000000001  3.5445000000000007 3.5385000000000013  C 3.964500000000001 3.118500000000001  4.363500000000001 2.8590000000000013  4.9245 2.6415000000000015  C 5.3475 2.4765000000000015  5.982000000000001 2.2815000000000016  7.152000000000001 2.2275000000000014  C 8.259 2.1765000000000017  8.688 2.1615000000000015  10.924500000000002 2.1600000000000015  Z " stroke-width="0" stroke-dasharray="0" stroke="rgba(255, 255, 255, 0)" fill="none" class="stroke" mask="url(#Clip5801)" />
    <path d="M 18.40649995708466 4.154999999999999  C 17.611209917328313 4.154999999999999  16.966499957084658 4.799709960243656  16.966499957084658 5.594999999999999  C 16.966499957084658 6.390290039756341  17.611209917328313 7.034999999999998  18.40649995708466 7.034999999999998  C 19.20179000941061 7.034999999999998  19.84649996965427 6.39029003975634  19.84649996965427 5.594999999999998  C 19.84649996965427 4.799709960243656  19.20179000941061 4.1549999999999985  18.40649996965427 4.1549999999999985  Z " stroke-width="0" stroke-dasharray="0" stroke="rgba(255, 255, 255, 0)" fill="none" class="stroke" mask="url(#Clip5801)" />
    <path d="M 18.0688507020307 12.000750000000004  C 18.0688507020307 8.634232730222061  15.36760761812672 5.890516958236504  12.001500000000002 5.838000000000001  C 11.969452671580983 5.837500007605489  11.937401930574879 5.837250000000003  11.905350702030702 5.837250000000003  C 8.501343646448607 5.837250000000003  5.741850702030702 8.596742944417906  5.741850702030702 12.000750000000004  C 5.741850702030702 15.404757055582099  8.501343646448607 18.164250000000003  11.905350702030702 18.164250000000003  C 11.937401930574763 18.164250000000003  11.969452671581102 18.163999992394515  12.001500000000002 18.163500000000003  C 15.36760761812672 18.110983041763504  18.0688507020307 15.367267269777942  18.0688507020307 12.000750000000004  Z " stroke-width="0" stroke-dasharray="0" stroke="rgba(255, 255, 255, 0)" fill="none" class="stroke" mask="url(#Clip5801)" />
    <path d="M 12.001500000000002 7.9995  C 14.21091514169809 7.9995  16.002 9.79058485830191  16.002 12  C 16.002 14.209415141698084  14.21091514169809 16.0005  12.001500000000002 16.0005  C 9.792084858301912 16.0005  8.001000000000001 14.209415141698088  8.001000000000001 12  C 8.001000000000001 9.79058485830191  9.792084858301912 7.9995  12.001500000000002 7.9995  Z " stroke-width="0" stroke-dasharray="0" stroke="rgba(255, 255, 255, 0)" fill="none" class="stroke" mask="url(#Clip5801)" />
  </g>
</svg>