<?xml version="1.0" encoding="utf-8"?>
<svg version="1.1" xmlns:xlink="http://www.w3.org/1999/xlink" width="50px" height="35px" xmlns="http://www.w3.org/2000/svg">
  <defs>
    <pattern id="BGPattern" patternUnits="userSpaceOnUse" alignment="0 0" imageRepeat="None" />
    <mask fill="white" id="Clip1414">
      <path d="M 50 25  C 50 20.1640625  46.5625 16.125  42 15.203125  C 42.3203125 14.3671875  42.5 13.453125  42.5 12.5  C 42.5 8.359375  39.140625 5  35 5  C 33.4609375 5  32.0234375 5.46875  30.8359375 6.265625  C 28.671875000000004 2.515625  24.6328125 0  20 0  C 13.093750000000002 0  7.5 5.59375  7.5 12.5  C 7.5 12.7109375  7.5078125 12.921875  7.515624999999999 13.132812500000002  C 3.1406249999999996 14.671875  0 18.84375  0 23.75  C 0 29.9609375  5.0390625 35  11.25 35  L 40 35  C 45.5234375 35  50 30.5234375  50 25  Z " fill-rule="evenodd" />
    </mask>
  </defs>
  <g>
    <path d="M 50 25  C 50 20.1640625  46.5625 16.125  42 15.203125  C 42.3203125 14.3671875  42.5 13.453125  42.5 12.5  C 42.5 8.359375  39.140625 5  35 5  C 33.4609375 5  32.0234375 5.46875  30.8359375 6.265625  C 28.671875000000004 2.515625  24.6328125 0  20 0  C 13.093750000000002 0  7.5 5.59375  7.5 12.5  C 7.5 12.7109375  7.5078125 12.921875  7.515624999999999 13.132812500000002  C 3.1406249999999996 14.671875  0 18.84375  0 23.75  C 0 29.9609375  5.0390625 35  11.25 35  L 40 35  C 45.5234375 35  50 30.5234375  50 25  Z " fill-rule="nonzero" fill="rgba(0, 0, 0, 1)" stroke="none" class="fill" />
    <path d="M 50 25  C 50 20.1640625  46.5625 16.125  42 15.203125  C 42.3203125 14.3671875  42.5 13.453125  42.5 12.5  C 42.5 8.359375  39.140625 5  35 5  C 33.4609375 5  32.0234375 5.46875  30.8359375 6.265625  C 28.671875000000004 2.515625  24.6328125 0  20 0  C 13.093750000000002 0  7.5 5.59375  7.5 12.5  C 7.5 12.7109375  7.5078125 12.921875  7.515624999999999 13.132812500000002  C 3.1406249999999996 14.671875  0 18.84375  0 23.75  C 0 29.9609375  5.0390625 35  11.25 35  L 40 35  C 45.5234375 35  50 30.5234375  50 25  Z " stroke-width="0" stroke-dasharray="0" stroke="rgba(255, 255, 255, 0)" fill="none" class="stroke" mask="url(#Clip1414)" />
  </g>
</svg>