<?xml version="1.0" encoding="utf-8"?>
<svg version="1.1" xmlns:xlink="http://www.w3.org/1999/xlink" width="24px" height="24px" xmlns="http://www.w3.org/2000/svg">
  <defs>
    <pattern id="BGPattern" patternUnits="userSpaceOnUse" alignment="0 0" imageRepeat="None" />
    <mask fill="white" id="Clip5040">
      <path d="M 0 21  L 0 3  C 0 1.3431457505076196  1.3431457505076196 0  3 0  L 21 0  C 22.65685424949238 0  24 1.3431457505076196  24 3  L 24 21  C 24 22.65685424949238  22.65685424949238 24  21 24  L 3 24  C 1.3431457505076196 24  0 22.65685424949238  0 21  Z M 18 9  L 5.999799405564843 9  C 5.5855858431917484 8.999999973174582  5.249799405564843 9.335786410801488  5.249799405564843 9.749999973174582  C 5.249799405564843 9.933559830506377  5.317116248166261 10.110746321497015  5.439 10.248  L 11.439 16.998  C 11.581337467429787 17.158416799570325  11.785539038007585 17.250225954875106  11.999999999999998 17.250225954875106  C 12.214460961992412 17.250225954875106  12.41866253257021 17.158416799570325  12.560999999999998 16.998  L 18.561 10.248000000000001  C 18.682883751833735 10.110746321497016  18.750200594435157 9.933559830506375  18.750200594435157 9.749999973174582  C 18.750200594435157 9.335786410801486  18.41441415680825 8.999999973174582  18 9  Z " fill-rule="evenodd" />
    </mask>
  </defs>
  <g>
    <path d="M 0 21  L 0 3  C 0 1.3431457505076196  1.3431457505076196 0  3 0  L 21 0  C 22.65685424949238 0  24 1.3431457505076196  24 3  L 24 21  C 24 22.65685424949238  22.65685424949238 24  21 24  L 3 24  C 1.3431457505076196 24  0 22.65685424949238  0 21  Z M 18 9  L 5.999799405564843 9  C 5.5855858431917484 8.999999973174582  5.249799405564843 9.335786410801488  5.249799405564843 9.749999973174582  C 5.249799405564843 9.933559830506377  5.317116248166261 10.110746321497015  5.439 10.248  L 11.439 16.998  C 11.581337467429787 17.158416799570325  11.785539038007585 17.250225954875106  11.999999999999998 17.250225954875106  C 12.214460961992412 17.250225954875106  12.41866253257021 17.158416799570325  12.560999999999998 16.998  L 18.561 10.248000000000001  C 18.682883751833735 10.110746321497016  18.750200594435157 9.933559830506375  18.750200594435157 9.749999973174582  C 18.750200594435157 9.335786410801486  18.41441415680825 8.999999973174582  18 9  Z " fill-rule="nonzero" fill="rgba(0, 0, 0, 1)" stroke="none" class="fill" />
    <path d="M 0 21  L 0 3  C 0 1.3431457505076196  1.3431457505076196 0  3 0  L 21 0  C 22.65685424949238 0  24 1.3431457505076196  24 3  L 24 21  C 24 22.65685424949238  22.65685424949238 24  21 24  L 3 24  C 1.3431457505076196 24  0 22.65685424949238  0 21  Z " stroke-width="0" stroke-dasharray="0" stroke="rgba(255, 255, 255, 0)" fill="none" class="stroke" mask="url(#Clip5040)" />
    <path d="M 18 9  L 5.999799405564843 9  C 5.5855858431917484 8.999999973174582  5.249799405564843 9.335786410801488  5.249799405564843 9.749999973174582  C 5.249799405564843 9.933559830506377  5.317116248166261 10.110746321497015  5.439 10.248  L 11.439 16.998  C 11.581337467429787 17.158416799570325  11.785539038007585 17.250225954875106  11.999999999999998 17.250225954875106  C 12.214460961992412 17.250225954875106  12.41866253257021 17.158416799570325  12.560999999999998 16.998  L 18.561 10.248000000000001  C 18.682883751833735 10.110746321497016  18.750200594435157 9.933559830506375  18.750200594435157 9.749999973174582  C 18.750200594435157 9.335786410801486  18.41441415680825 8.999999973174582  18 9  Z " stroke-width="0" stroke-dasharray="0" stroke="rgba(255, 255, 255, 0)" fill="none" class="stroke" mask="url(#Clip5040)" />
  </g>
</svg>