<?xml version="1.0" encoding="utf-8"?>
<svg version="1.1" xmlns:xlink="http://www.w3.org/1999/xlink" width="22px" height="22px" xmlns="http://www.w3.org/2000/svg">
  <defs>
    <pattern id="BGPattern" patternUnits="userSpaceOnUse" alignment="0 0" imageRepeat="None" />
    <mask fill="white" id="Clip5681">
      <path d="M 18.9395 2  L 13.25 2  C 12.835786437626904 2  12.500000000000002 1.664213562373095  12.500000000000002 1.25  C 12.500000000000002 0.8357864376269052  12.835786437626904 0.5  13.25 0.5  L 20.75 0.5  C 21.164213562373096 0.5  21.5 0.8357864376269052  21.5 1.25  L 21.5 8.75  C 21.5 9.164213562373096  21.164213562373096 9.5  20.75 9.5  C 20.335786437626904 9.5  20 9.164213562373096  20 8.75  L 20 3.0604999999999993  L 13.806499999999998 9.254  C 14.901399634888625 10.593531887759562  15.499524221877738 12.270403268426804  15.499524221877738 14.000475778122262  C 15.499524221877738 18.142611401853213  12.141659845608695 21.50047577812226  7.999524221877742 21.50047577812226  C 3.857388598146792 21.50047577812226  0.4995242218777429 18.142611401853213  0.4995242218777429 14.000475778122262  C 0.4995242218777429 9.858340154391314  3.857388598146792 6.500475778122265  7.999524221877742 6.500475778122265  C 9.7295967315732 6.500475778122265  11.406468112240436 7.098600365111377  12.745999999999999 8.1935  L 18.9395 2  Z M 14 14  C 14 10.686291501015239  11.31370849898476 8  8 8  C 4.686291501015239 8  2 10.686291501015239  2 14  C 2 17.31370849898476  4.686291501015239 20  8 20  C 11.31370849898476 20  14 17.31370849898476  14 14  Z " fill-rule="evenodd" />
    </mask>
  </defs>
  <g>
    <path d="M 18.9395 2  L 13.25 2  C 12.835786437626904 2  12.500000000000002 1.664213562373095  12.500000000000002 1.25  C 12.500000000000002 0.8357864376269052  12.835786437626904 0.5  13.25 0.5  L 20.75 0.5  C 21.164213562373096 0.5  21.5 0.8357864376269052  21.5 1.25  L 21.5 8.75  C 21.5 9.164213562373096  21.164213562373096 9.5  20.75 9.5  C 20.335786437626904 9.5  20 9.164213562373096  20 8.75  L 20 3.0604999999999993  L 13.806499999999998 9.254  C 14.901399634888625 10.593531887759562  15.499524221877738 12.270403268426804  15.499524221877738 14.000475778122262  C 15.499524221877738 18.142611401853213  12.141659845608695 21.50047577812226  7.999524221877742 21.50047577812226  C 3.857388598146792 21.50047577812226  0.4995242218777429 18.142611401853213  0.4995242218777429 14.000475778122262  C 0.4995242218777429 9.858340154391314  3.857388598146792 6.500475778122265  7.999524221877742 6.500475778122265  C 9.7295967315732 6.500475778122265  11.406468112240436 7.098600365111377  12.745999999999999 8.1935  L 18.9395 2  Z M 14 14  C 14 10.686291501015239  11.31370849898476 8  8 8  C 4.686291501015239 8  2 10.686291501015239  2 14  C 2 17.31370849898476  4.686291501015239 20  8 20  C 11.31370849898476 20  14 17.31370849898476  14 14  Z " fill-rule="nonzero" fill="rgba(0, 0, 0, 1)" stroke="none" class="fill" />
    <path d="M 18.9395 2  L 13.25 2  C 12.835786437626904 2  12.500000000000002 1.664213562373095  12.500000000000002 1.25  C 12.500000000000002 0.8357864376269052  12.835786437626904 0.5  13.25 0.5  L 20.75 0.5  C 21.164213562373096 0.5  21.5 0.8357864376269052  21.5 1.25  L 21.5 8.75  C 21.5 9.164213562373096  21.164213562373096 9.5  20.75 9.5  C 20.335786437626904 9.5  20 9.164213562373096  20 8.75  L 20 3.0604999999999993  L 13.806499999999998 9.254  C 14.901399634888625 10.593531887759562  15.499524221877738 12.270403268426804  15.499524221877738 14.000475778122262  C 15.499524221877738 18.142611401853213  12.141659845608695 21.50047577812226  7.999524221877742 21.50047577812226  C 3.857388598146792 21.50047577812226  0.4995242218777429 18.142611401853213  0.4995242218777429 14.000475778122262  C 0.4995242218777429 9.858340154391314  3.857388598146792 6.500475778122265  7.999524221877742 6.500475778122265  C 9.7295967315732 6.500475778122265  11.406468112240436 7.098600365111377  12.745999999999999 8.1935  L 18.9395 2  Z " stroke-width="0" stroke-dasharray="0" stroke="rgba(255, 255, 255, 0)" fill="none" class="stroke" mask="url(#Clip5681)" />
    <path d="M 14 14  C 14 10.686291501015239  11.31370849898476 8  8 8  C 4.686291501015239 8  2 10.686291501015239  2 14  C 2 17.31370849898476  4.686291501015239 20  8 20  C 11.31370849898476 20  14 17.31370849898476  14 14  Z " stroke-width="0" stroke-dasharray="0" stroke="rgba(255, 255, 255, 0)" fill="none" class="stroke" mask="url(#Clip5681)" />
  </g>
</svg>