<?xml version="1.0" encoding="utf-8"?>
<svg version="1.1" xmlns:xlink="http://www.w3.org/1999/xlink" width="8px" height="19px" xmlns="http://www.w3.org/2000/svg">
  <defs>
    <pattern id="BGPattern" patternUnits="userSpaceOnUse" alignment="0 0" imageRepeat="None" />
    <mask fill="white" id="Clip3382">
      <path d="M 8 17  C 7.998732534440704 18.10404407205509  7.104044072055091 18.998732534440702  6 19  L 2 19  C 0.8959559279449101 18.998732534440702  0.0012674655592954664 18.10404407205509  0 17  L 0 2.0000000000000018  C 0.0012674655592963546 0.895955927944911  0.8959559279449092 0.001267465559298131  2 0  L 6 0  C 7.104044072055093 0.001267465559298131  7.998732534440704 0.8959559279449092  8 2  L 8 17  Z M 6 2  L 2 2  L 2 17  L 6 17  L 6 2  Z " fill-rule="evenodd" />
    </mask>
  </defs>
  <g transform="matrix(1 0 0 1 -6 -9 )">
    <path d="M 8 17  C 7.998732534440704 18.10404407205509  7.104044072055091 18.998732534440702  6 19  L 2 19  C 0.8959559279449101 18.998732534440702  0.0012674655592954664 18.10404407205509  0 17  L 0 2.0000000000000018  C 0.0012674655592963546 0.895955927944911  0.8959559279449092 0.001267465559298131  2 0  L 6 0  C 7.104044072055093 0.001267465559298131  7.998732534440704 0.8959559279449092  8 2  L 8 17  Z M 6 2  L 2 2  L 2 17  L 6 17  L 6 2  Z " fill-rule="nonzero" fill="rgba(0, 0, 0, 1)" stroke="none" transform="matrix(1 0 0 1 6 9 )" class="fill" />
    <path d="M 8 17  C 7.998732534440704 18.10404407205509  7.104044072055091 18.998732534440702  6 19  L 2 19  C 0.8959559279449101 18.998732534440702  0.0012674655592954664 18.10404407205509  0 17  L 0 2.0000000000000018  C 0.0012674655592963546 0.895955927944911  0.8959559279449092 0.001267465559298131  2 0  L 6 0  C 7.104044072055093 0.001267465559298131  7.998732534440704 0.8959559279449092  8 2  L 8 17  Z " stroke-width="0" stroke-dasharray="0" stroke="rgba(255, 255, 255, 0)" fill="none" transform="matrix(1 0 0 1 6 9 )" class="stroke" mask="url(#Clip3382)" />
    <path d="M 6 2  L 2 2  L 2 17  L 6 17  L 6 2  Z " stroke-width="0" stroke-dasharray="0" stroke="rgba(255, 255, 255, 0)" fill="none" transform="matrix(1 0 0 1 6 9 )" class="stroke" mask="url(#Clip3382)" />
  </g>
</svg>