<?xml version="1.0" encoding="utf-8"?>
<svg version="1.1" xmlns:xlink="http://www.w3.org/1999/xlink" width="32px" height="23px" xmlns="http://www.w3.org/2000/svg">
  <defs>
    <pattern id="BGPattern" patternUnits="userSpaceOnUse" alignment="0 0" imageRepeat="None" />
    <mask fill="white" id="Clip3878">
      <path d="M 31.751874103064306 14.253500627847487  C 31.751874103064306 10.030465108955926  28.734492530394952 6.410510954341398  24.5805 5.64999959442768  C 22.888637958206775 2.479651790753712  19.58749575185645 0.49952312634659707  15.993959358870788 0.49952312634659707  C 10.887846045965299 0.49952312634659707  6.649846399389353 4.445566169785944  6.285999999999999 9.538699315286248  C 2.857207743106161 9.90742927619116  0.2577291134977062 12.801441756065522  0.2577291134977062 16.25000325865766  C 0.2577291134977062 19.974907003178117  3.2750984300474575 22.995733133618455  7 23  L 23 23  C 23.00179136747666 22.99999944966585  23.003582735249505 23  23.00537410306431 23  C 27.835932667459343 23  31.751874103064306 19.084058845491928  31.751874103064306 14.253500627847487  Z M 30.249814971327027 14.249998979457438  C 30.249814971327027 18.25399087031276  27.00399217696878 21.499896270008783  23 21.4999984566717  L 7 21.4999984566717  C 6.9959810645836455 21.50000770871585  6.991962119847761 21.50001233474252  6.987943173781793 21.50001233474252  C 4.095462253492978 21.50001233474252  1.7506431737817925 19.15519342334881  1.7506431737817925 16.262712710690117  C 1.7506431737817925 13.635869213623955  3.696570224866524 11.415395950193567  6.3007 11.070699205315137  C 6.406482982672167 12.3940646269198  6.782059669869515 13.681765756863989  7.404299999999999 14.854498933703713  C 7.531760570056726 15.107426424992223  7.790832483341633 15.266978686762341  8.074061228268592 15.266978686762341  C 8.488274790641686 15.266978686762341  8.824061228268592 14.931192273239098  8.824061228268592 14.516978740599374  C 8.824061228268592 14.386702281446379  8.790126765609044 14.2586725368404  8.7256 14.145498984597655  C 8.085261090304206 12.948409042480435  7.750234984732058 11.61179589192616  7.750234984732058 10.254203099546233  C 7.750234984732058 5.697854240509285  11.443885798628012 2.0042036917536015  16.00023498473206 2.0042036917536015  C 18.688078673667466 2.0042036917536015  21.207417157039636 3.3135798851164404  22.752 5.513299604240376  C 20.32940229707207 5.580094784352736  18.042899147604924 6.648215735538871  16.436999999999998 8.463299392481378  C 16.309414718011034 8.601781421756993  16.238587299282923 8.783188112134212  16.238587299282923 8.971483821792027  C 16.238587299282923 9.385697354431747  16.574373736909827 9.721483767954993  16.988587299282923 9.721483767954993  C 17.20940215911316 9.721483767954993  17.418996236876865 9.624176159422227  17.561500000000002 9.455499321258571  C 18.93780851334513 7.894377483251579  20.918630965312147 6.999999499882096  22.999814971327027 6.999999499882096  C 27.003879407600277 6.999999499882096  30.249814971327027 10.245934830606789  30.249814971327027 14.249998979457438  Z " fill-rule="evenodd" />
    </mask>
  </defs>
  <g transform="matrix(1 0 0 1 -1 -8 )">
    <path d="M 31.751874103064306 14.253500627847487  C 31.751874103064306 10.030465108955926  28.734492530394952 6.410510954341398  24.5805 5.64999959442768  C 22.888637958206775 2.479651790753712  19.58749575185645 0.49952312634659707  15.993959358870788 0.49952312634659707  C 10.887846045965299 0.49952312634659707  6.649846399389353 4.445566169785944  6.285999999999999 9.538699315286248  C 2.857207743106161 9.90742927619116  0.2577291134977062 12.801441756065522  0.2577291134977062 16.25000325865766  C 0.2577291134977062 19.974907003178117  3.2750984300474575 22.995733133618455  7 23  L 23 23  C 23.00179136747666 22.99999944966585  23.003582735249505 23  23.00537410306431 23  C 27.835932667459343 23  31.751874103064306 19.084058845491928  31.751874103064306 14.253500627847487  Z M 30.249814971327027 14.249998979457438  C 30.249814971327027 18.25399087031276  27.00399217696878 21.499896270008783  23 21.4999984566717  L 7 21.4999984566717  C 6.9959810645836455 21.50000770871585  6.991962119847761 21.50001233474252  6.987943173781793 21.50001233474252  C 4.095462253492978 21.50001233474252  1.7506431737817925 19.15519342334881  1.7506431737817925 16.262712710690117  C 1.7506431737817925 13.635869213623955  3.696570224866524 11.415395950193567  6.3007 11.070699205315137  C 6.406482982672167 12.3940646269198  6.782059669869515 13.681765756863989  7.404299999999999 14.854498933703713  C 7.531760570056726 15.107426424992223  7.790832483341633 15.266978686762341  8.074061228268592 15.266978686762341  C 8.488274790641686 15.266978686762341  8.824061228268592 14.931192273239098  8.824061228268592 14.516978740599374  C 8.824061228268592 14.386702281446379  8.790126765609044 14.2586725368404  8.7256 14.145498984597655  C 8.085261090304206 12.948409042480435  7.750234984732058 11.61179589192616  7.750234984732058 10.254203099546233  C 7.750234984732058 5.697854240509285  11.443885798628012 2.0042036917536015  16.00023498473206 2.0042036917536015  C 18.688078673667466 2.0042036917536015  21.207417157039636 3.3135798851164404  22.752 5.513299604240376  C 20.32940229707207 5.580094784352736  18.042899147604924 6.648215735538871  16.436999999999998 8.463299392481378  C 16.309414718011034 8.601781421756993  16.238587299282923 8.783188112134212  16.238587299282923 8.971483821792027  C 16.238587299282923 9.385697354431747  16.574373736909827 9.721483767954993  16.988587299282923 9.721483767954993  C 17.20940215911316 9.721483767954993  17.418996236876865 9.624176159422227  17.561500000000002 9.455499321258571  C 18.93780851334513 7.894377483251579  20.918630965312147 6.999999499882096  22.999814971327027 6.999999499882096  C 27.003879407600277 6.999999499882096  30.249814971327027 10.245934830606789  30.249814971327027 14.249998979457438  Z " fill-rule="nonzero" fill="rgba(0, 0, 0, 1)" stroke="none" transform="matrix(1 0 0 1 1 8 )" class="fill" />
    <path d="M 31.751874103064306 14.253500627847487  C 31.751874103064306 10.030465108955926  28.734492530394952 6.410510954341398  24.5805 5.64999959442768  C 22.888637958206775 2.479651790753712  19.58749575185645 0.49952312634659707  15.993959358870788 0.49952312634659707  C 10.887846045965299 0.49952312634659707  6.649846399389353 4.445566169785944  6.285999999999999 9.538699315286248  C 2.857207743106161 9.90742927619116  0.2577291134977062 12.801441756065522  0.2577291134977062 16.25000325865766  C 0.2577291134977062 19.974907003178117  3.2750984300474575 22.995733133618455  7 23  L 23 23  C 23.00179136747666 22.99999944966585  23.003582735249505 23  23.00537410306431 23  C 27.835932667459343 23  31.751874103064306 19.084058845491928  31.751874103064306 14.253500627847487  Z " stroke-width="0" stroke-dasharray="0" stroke="rgba(255, 255, 255, 0)" fill="none" transform="matrix(1 0 0 1 1 8 )" class="stroke" mask="url(#Clip3878)" />
    <path d="M 30.249814971327027 14.249998979457438  C 30.249814971327027 18.25399087031276  27.00399217696878 21.499896270008783  23 21.4999984566717  L 7 21.4999984566717  C 6.9959810645836455 21.50000770871585  6.991962119847761 21.50001233474252  6.987943173781793 21.50001233474252  C 4.095462253492978 21.50001233474252  1.7506431737817925 19.15519342334881  1.7506431737817925 16.262712710690117  C 1.7506431737817925 13.635869213623955  3.696570224866524 11.415395950193567  6.3007 11.070699205315137  C 6.406482982672167 12.3940646269198  6.782059669869515 13.681765756863989  7.404299999999999 14.854498933703713  C 7.531760570056726 15.107426424992223  7.790832483341633 15.266978686762341  8.074061228268592 15.266978686762341  C 8.488274790641686 15.266978686762341  8.824061228268592 14.931192273239098  8.824061228268592 14.516978740599374  C 8.824061228268592 14.386702281446379  8.790126765609044 14.2586725368404  8.7256 14.145498984597655  C 8.085261090304206 12.948409042480435  7.750234984732058 11.61179589192616  7.750234984732058 10.254203099546233  C 7.750234984732058 5.697854240509285  11.443885798628012 2.0042036917536015  16.00023498473206 2.0042036917536015  C 18.688078673667466 2.0042036917536015  21.207417157039636 3.3135798851164404  22.752 5.513299604240376  C 20.32940229707207 5.580094784352736  18.042899147604924 6.648215735538871  16.436999999999998 8.463299392481378  C 16.309414718011034 8.601781421756993  16.238587299282923 8.783188112134212  16.238587299282923 8.971483821792027  C 16.238587299282923 9.385697354431747  16.574373736909827 9.721483767954993  16.988587299282923 9.721483767954993  C 17.20940215911316 9.721483767954993  17.418996236876865 9.624176159422227  17.561500000000002 9.455499321258571  C 18.93780851334513 7.894377483251579  20.918630965312147 6.999999499882096  22.999814971327027 6.999999499882096  C 27.003879407600277 6.999999499882096  30.249814971327027 10.245934830606789  30.249814971327027 14.249998979457438  Z " stroke-width="0" stroke-dasharray="0" stroke="rgba(255, 255, 255, 0)" fill="none" transform="matrix(1 0 0 1 1 8 )" class="stroke" mask="url(#Clip3878)" />
  </g>
</svg>