<?xml version="1.0" encoding="utf-8"?>
<svg version="1.1" xmlns:xlink="http://www.w3.org/1999/xlink" width="2px" height="6px" xmlns="http://www.w3.org/2000/svg">
  <defs>
    <pattern id="BGPattern" patternUnits="userSpaceOnUse" alignment="0 0" imageRepeat="None" />
    <mask fill="white" id="Clip3881">
      <path d="M 0.24129999999999896 4.3223  C 0.241355198489682 4.741311753379314  0.5809882575347487 5.080989577556719  1 5.0811  C 1.4190279299562398 5.080989598748052  1.7586895987480524 4.741327929956242  1.7588000000000008 4.3223  L 1.7588000000000008 0.8347000000000002  C 1.7588333330587709 0.8317965298504002  1.7588500000000025 0.8288928922852465  1.7588500000000025 0.8259892308031822  C 1.7588500000000025 0.4069155626315759  1.4191236681716077 0.06718923080318207  1.0000500000000017 0.06718923080318207  C 0.5809763318283956 0.06718923080318207  0.24125000000000263 0.4069155626315759  0.24125000000000263 0.8259892308031822  C 0.24125000000000263 0.8288928922852465  0.2412666669412289 0.8317965298504002  0.24130000000000074 0.8347  L 0.24129999999999896 4.3223  Z " fill-rule="evenodd" />
    </mask>
  </defs>
  <g transform="matrix(1 0 0 1 -16 -1 )">
    <path d="M 0.24129999999999896 4.3223  C 0.241355198489682 4.741311753379314  0.5809882575347487 5.080989577556719  1 5.0811  C 1.4190279299562398 5.080989598748052  1.7586895987480524 4.741327929956242  1.7588000000000008 4.3223  L 1.7588000000000008 0.8347000000000002  C 1.7588333330587709 0.8317965298504002  1.7588500000000025 0.8288928922852465  1.7588500000000025 0.8259892308031822  C 1.7588500000000025 0.4069155626315759  1.4191236681716077 0.06718923080318207  1.0000500000000017 0.06718923080318207  C 0.5809763318283956 0.06718923080318207  0.24125000000000263 0.4069155626315759  0.24125000000000263 0.8259892308031822  C 0.24125000000000263 0.8288928922852465  0.2412666669412289 0.8317965298504002  0.24130000000000074 0.8347  L 0.24129999999999896 4.3223  Z " fill-rule="nonzero" fill="rgba(0, 0, 0, 1)" stroke="none" transform="matrix(1 0 0 1 16 1 )" class="fill" />
    <path d="M 0.24129999999999896 4.3223  C 0.241355198489682 4.741311753379314  0.5809882575347487 5.080989577556719  1 5.0811  C 1.4190279299562398 5.080989598748052  1.7586895987480524 4.741327929956242  1.7588000000000008 4.3223  L 1.7588000000000008 0.8347000000000002  C 1.7588333330587709 0.8317965298504002  1.7588500000000025 0.8288928922852465  1.7588500000000025 0.8259892308031822  C 1.7588500000000025 0.4069155626315759  1.4191236681716077 0.06718923080318207  1.0000500000000017 0.06718923080318207  C 0.5809763318283956 0.06718923080318207  0.24125000000000263 0.4069155626315759  0.24125000000000263 0.8259892308031822  C 0.24125000000000263 0.8288928922852465  0.2412666669412289 0.8317965298504002  0.24130000000000074 0.8347  L 0.24129999999999896 4.3223  Z " stroke-width="0" stroke-dasharray="0" stroke="rgba(255, 255, 255, 0)" fill="none" transform="matrix(1 0 0 1 16 1 )" class="stroke" mask="url(#Clip3881)" />
  </g>
</svg>