<?xml version="1.0" encoding="utf-8"?>
<svg version="1.1" xmlns:xlink="http://www.w3.org/1999/xlink" width="4px" height="5px" xmlns="http://www.w3.org/2000/svg">
  <defs>
    <pattern id="BGPattern" patternUnits="userSpaceOnUse" alignment="0 0" imageRepeat="None" />
    <mask fill="white" id="Clip3882">
      <path d="M 0.543499999999999 1.5722000000000005  L 2.2873 4.5922  C 2.4235645378937534 4.824135458672663  2.6724545618354814 4.966576087415162  2.941456571636701 4.966576087415162  C 3.3604750113333246 4.966576087415162  3.700156571636702 4.626894527111785  3.700156571636702 4.207876087415163  C 3.700156571636702 4.07660039204574  3.666094528502235 3.947570824954969  3.6013 3.8334  L 1.8575 0.8134000000000006  C 1.722721781670356 0.5759148183288048  1.4707213618414006 0.42917608741523194  1.1976565716367418 0.42917608741523194  C 0.7786381319401183 0.42917608741523194  0.4389565716367416 0.7688576477186091  0.4389565716367416 1.1878760874152317  C 0.4389565716367416 1.3230081794646962  0.4750480501750154 1.455688142805882  0.543499999999999 1.5722000000000005  Z " fill-rule="evenodd" />
    </mask>
  </defs>
  <g transform="matrix(1 0 0 1 -7 -3 )">
    <path d="M 0.543499999999999 1.5722000000000005  L 2.2873 4.5922  C 2.4235645378937534 4.824135458672663  2.6724545618354814 4.966576087415162  2.941456571636701 4.966576087415162  C 3.3604750113333246 4.966576087415162  3.700156571636702 4.626894527111785  3.700156571636702 4.207876087415163  C 3.700156571636702 4.07660039204574  3.666094528502235 3.947570824954969  3.6013 3.8334  L 1.8575 0.8134000000000006  C 1.722721781670356 0.5759148183288048  1.4707213618414006 0.42917608741523194  1.1976565716367418 0.42917608741523194  C 0.7786381319401183 0.42917608741523194  0.4389565716367416 0.7688576477186091  0.4389565716367416 1.1878760874152317  C 0.4389565716367416 1.3230081794646962  0.4750480501750154 1.455688142805882  0.543499999999999 1.5722000000000005  Z " fill-rule="nonzero" fill="rgba(0, 0, 0, 1)" stroke="none" transform="matrix(1 0 0 1 7 3 )" class="fill" />
    <path d="M 0.543499999999999 1.5722000000000005  L 2.2873 4.5922  C 2.4235645378937534 4.824135458672663  2.6724545618354814 4.966576087415162  2.941456571636701 4.966576087415162  C 3.3604750113333246 4.966576087415162  3.700156571636702 4.626894527111785  3.700156571636702 4.207876087415163  C 3.700156571636702 4.07660039204574  3.666094528502235 3.947570824954969  3.6013 3.8334  L 1.8575 0.8134000000000006  C 1.722721781670356 0.5759148183288048  1.4707213618414006 0.42917608741523194  1.1976565716367418 0.42917608741523194  C 0.7786381319401183 0.42917608741523194  0.4389565716367416 0.7688576477186091  0.4389565716367416 1.1878760874152317  C 0.4389565716367416 1.3230081794646962  0.4750480501750154 1.455688142805882  0.543499999999999 1.5722000000000005  Z " stroke-width="0" stroke-dasharray="0" stroke="rgba(255, 255, 255, 0)" fill="none" transform="matrix(1 0 0 1 7 3 )" class="stroke" mask="url(#Clip3882)" />
  </g>
</svg>