<?xml version="1.0" encoding="utf-8"?>
<svg version="1.1" xmlns:xlink="http://www.w3.org/1999/xlink" width="18px" height="24px" xmlns="http://www.w3.org/2000/svg">
  <defs>
    <pattern id="BGPattern" patternUnits="userSpaceOnUse" alignment="0 0" imageRepeat="None" />
    <mask fill="white" id="Clip5491">
      <path d="M 0 21  L 0 3  C 0 1.3431457505076196  1.3431457505076194 0  3 0  L 10.939499999999999 0  C 11.33729222021822 8.495610824209971E-05  11.718760902963812 0.15817593778357192  12 0.4395  L 17.5605 6  C 17.84182406221643 6.281239097036188  17.999915043891757 6.662707779781778  18 7.060499999999999  L 18 21  C 18 22.65685424949238  16.65685424949238 24  15 24  L 3 24  C 1.3431457505076194 24  0 22.65685424949238  0 21  Z M 12 12.114  L 12 10.5  C 12 8.84314575050762  10.65685424949238 7.5  9 7.5  C 7.34314575050762 7.5  6 8.84314575050762  6 10.5  L 6 12.114  C 5.1899999999999995 12.363000000000001  4.5 13.0095  4.5 13.950000000000001  L 4.5 17.55  C 4.5 18.774  5.6715 19.500000000000004  6.75 19.500000000000004  L 11.25 19.500000000000004  C 12.328499999999998 19.500000000000004  13.5 18.774  13.5 17.55  L 13.5 13.950000000000001  C 13.5 13.0095  12.809999999999999 12.363000000000001  12 12.114  Z M 11.25 2.25  L 11.25 5.25  C 11.25 6.07842712474619  11.92157287525381 6.75  12.75 6.75  L 15.75 6.75  L 11.25 2.25  Z M 7.5 12  L 7.5 10.5  C 7.5 9.67157287525381  8.17157287525381 9  9 9  C 9.82842712474619 9  10.5 9.67157287525381  10.5 10.5  L 10.5 12  L 7.5 12  Z " fill-rule="evenodd" />
    </mask>
  </defs>
  <g>
    <path d="M 0 21  L 0 3  C 0 1.3431457505076196  1.3431457505076194 0  3 0  L 10.939499999999999 0  C 11.33729222021822 8.495610824209971E-05  11.718760902963812 0.15817593778357192  12 0.4395  L 17.5605 6  C 17.84182406221643 6.281239097036188  17.999915043891757 6.662707779781778  18 7.060499999999999  L 18 21  C 18 22.65685424949238  16.65685424949238 24  15 24  L 3 24  C 1.3431457505076194 24  0 22.65685424949238  0 21  Z M 12 12.114  L 12 10.5  C 12 8.84314575050762  10.65685424949238 7.5  9 7.5  C 7.34314575050762 7.5  6 8.84314575050762  6 10.5  L 6 12.114  C 5.1899999999999995 12.363000000000001  4.5 13.0095  4.5 13.950000000000001  L 4.5 17.55  C 4.5 18.774  5.6715 19.500000000000004  6.75 19.500000000000004  L 11.25 19.500000000000004  C 12.328499999999998 19.500000000000004  13.5 18.774  13.5 17.55  L 13.5 13.950000000000001  C 13.5 13.0095  12.809999999999999 12.363000000000001  12 12.114  Z M 11.25 2.25  L 11.25 5.25  C 11.25 6.07842712474619  11.92157287525381 6.75  12.75 6.75  L 15.75 6.75  L 11.25 2.25  Z M 7.5 12  L 7.5 10.5  C 7.5 9.67157287525381  8.17157287525381 9  9 9  C 9.82842712474619 9  10.5 9.67157287525381  10.5 10.5  L 10.5 12  L 7.5 12  Z " fill-rule="nonzero" fill="rgba(0, 0, 0, 1)" stroke="none" class="fill" />
    <path d="M 0 21  L 0 3  C 0 1.3431457505076196  1.3431457505076194 0  3 0  L 10.939499999999999 0  C 11.33729222021822 8.495610824209971E-05  11.718760902963812 0.15817593778357192  12 0.4395  L 17.5605 6  C 17.84182406221643 6.281239097036188  17.999915043891757 6.662707779781778  18 7.060499999999999  L 18 21  C 18 22.65685424949238  16.65685424949238 24  15 24  L 3 24  C 1.3431457505076194 24  0 22.65685424949238  0 21  Z " stroke-width="0" stroke-dasharray="0" stroke="rgba(255, 255, 255, 0)" fill="none" class="stroke" mask="url(#Clip5491)" />
    <path d="M 12 12.114  L 12 10.5  C 12 8.84314575050762  10.65685424949238 7.5  9 7.5  C 7.34314575050762 7.5  6 8.84314575050762  6 10.5  L 6 12.114  C 5.1899999999999995 12.363000000000001  4.5 13.0095  4.5 13.950000000000001  L 4.5 17.55  C 4.5 18.774  5.6715 19.500000000000004  6.75 19.500000000000004  L 11.25 19.500000000000004  C 12.328499999999998 19.500000000000004  13.5 18.774  13.5 17.55  L 13.5 13.950000000000001  C 13.5 13.0095  12.809999999999999 12.363000000000001  12 12.114  Z " stroke-width="0" stroke-dasharray="0" stroke="rgba(255, 255, 255, 0)" fill="none" class="stroke" mask="url(#Clip5491)" />
    <path d="M 11.25 2.25  L 11.25 5.25  C 11.25 6.07842712474619  11.92157287525381 6.75  12.75 6.75  L 15.75 6.75  L 11.25 2.25  Z " stroke-width="0" stroke-dasharray="0" stroke="rgba(255, 255, 255, 0)" fill="none" class="stroke" mask="url(#Clip5491)" />
    <path d="M 7.5 12  L 7.5 10.5  C 7.5 9.67157287525381  8.17157287525381 9  9 9  C 9.82842712474619 9  10.5 9.67157287525381  10.5 10.5  L 10.5 12  L 7.5 12  Z " stroke-width="0" stroke-dasharray="0" stroke="rgba(255, 255, 255, 0)" fill="none" class="stroke" mask="url(#Clip5491)" />
  </g>
</svg>