<?xml version="1.0" encoding="utf-8"?>
<svg version="1.1" xmlns:xlink="http://www.w3.org/1999/xlink" width="58px" height="56px" xmlns="http://www.w3.org/2000/svg">
  <defs>
    <pattern id="BGPattern" patternUnits="userSpaceOnUse" alignment="0 0" imageRepeat="None" />
    <mask fill="white" id="Clip3047">
      <path d="M 56.99999999999999 28.125000000000004  C 57.01874999999999 24.31875  56.28124999999999 20.625  54.825 17.15  C 53.4125 13.79375  51.3875 10.781249999999998  48.806250000000006 8.19375  C 46.24305874990028 5.621227899207877  43.20021456333054 3.5763856440322637  39.85000000000001 2.174999999999998  C 36.4125 0.7312500000000002  32.7625 0  29 0  L 28.875 0  C 25.0875 0.018749999999999822  21.41875 0.7687499999999998  17.96875 2.2437500000000012  C 14.647233103606128 3.6595079368775902  11.632897042059607 5.707982795604625  9.09375 8.275  C 6.5375 10.85625  4.53125 13.85625  3.14375 17.200000000000003  C 1.7062499999999998 20.6625  0.9812499999999997 24.343750000000004  1 28.131249999999998  C 1.0212078191159577 32.47169235885936  2.0480739240136954 36.7481618248814  4 40.625  L 4 50.125  C 4 51.71281865576353  5.287181344236469 53  6.875 53  L 16.38125 53  C 20.258088175118605 54.95192607598631  24.534557641140648 55.97879218088405  28.875 56  L 29.00625 56  C 32.75 56  36.38125 55.275  39.79999999999999 53.856249999999996  C 43.133291352967056 52.47156351991011  46.16479272877584 50.45056260270425  48.724999999999994 47.90625  C 51.30624999999999 45.35  53.33749999999999 42.3625  54.756249999999994 39.03125  C 56.231249999999996 35.58125  56.981249999999996 31.9125  56.99999999999999 28.125000000000004  Z M 52.262499999999996 28.106250000000003  C 52.224999999999994 34.331250000000004  49.78124999999999 40.1625  45.38125 44.525  C 41 48.8625  35.1875 51.25  29 51.25  L 28.89375 51.25  C 25.125 51.23125  21.38125 50.29375  18.075000000000003 48.53125  L 17.550000000000004 48.25  L 8.75 48.25  L 8.75 39.45  L 8.46875 38.925000000000004  C 6.706250000000001 35.61875  5.768750000000001 31.875  5.75 28.106250000000003  C 5.725 21.875000000000004  8.10625 16.025000000000002  12.475 11.618750000000002  C 16.8375 7.212500000000002  22.66875 4.775000000000002  28.9 4.750000000000002  L 29.00625 4.750000000000002  C 32.13125 4.750000000000002  35.1625 5.356250000000001  38.01875 6.556250000000002  C 40.80625 7.725000000000002  43.30625 9.406250000000002  45.45625 11.556250000000002  C 47.599999999999994 13.700000000000003  49.287499999999994 16.206250000000004  50.45625 18.993750000000002  C 51.668749999999996 21.88125  52.275 24.94375  52.262499999999996 28.106250000000003  Z " fill-rule="evenodd" />
    </mask>
  </defs>
  <g>
    <path d="M 56.99999999999999 28.125000000000004  C 57.01874999999999 24.31875  56.28124999999999 20.625  54.825 17.15  C 53.4125 13.79375  51.3875 10.781249999999998  48.806250000000006 8.19375  C 46.24305874990028 5.621227899207877  43.20021456333054 3.5763856440322637  39.85000000000001 2.174999999999998  C 36.4125 0.7312500000000002  32.7625 0  29 0  L 28.875 0  C 25.0875 0.018749999999999822  21.41875 0.7687499999999998  17.96875 2.2437500000000012  C 14.647233103606128 3.6595079368775902  11.632897042059607 5.707982795604625  9.09375 8.275  C 6.5375 10.85625  4.53125 13.85625  3.14375 17.200000000000003  C 1.7062499999999998 20.6625  0.9812499999999997 24.343750000000004  1 28.131249999999998  C 1.0212078191159577 32.47169235885936  2.0480739240136954 36.7481618248814  4 40.625  L 4 50.125  C 4 51.71281865576353  5.287181344236469 53  6.875 53  L 16.38125 53  C 20.258088175118605 54.95192607598631  24.534557641140648 55.97879218088405  28.875 56  L 29.00625 56  C 32.75 56  36.38125 55.275  39.79999999999999 53.856249999999996  C 43.133291352967056 52.47156351991011  46.16479272877584 50.45056260270425  48.724999999999994 47.90625  C 51.30624999999999 45.35  53.33749999999999 42.3625  54.756249999999994 39.03125  C 56.231249999999996 35.58125  56.981249999999996 31.9125  56.99999999999999 28.125000000000004  Z M 52.262499999999996 28.106250000000003  C 52.224999999999994 34.331250000000004  49.78124999999999 40.1625  45.38125 44.525  C 41 48.8625  35.1875 51.25  29 51.25  L 28.89375 51.25  C 25.125 51.23125  21.38125 50.29375  18.075000000000003 48.53125  L 17.550000000000004 48.25  L 8.75 48.25  L 8.75 39.45  L 8.46875 38.925000000000004  C 6.706250000000001 35.61875  5.768750000000001 31.875  5.75 28.106250000000003  C 5.725 21.875000000000004  8.10625 16.025000000000002  12.475 11.618750000000002  C 16.8375 7.212500000000002  22.66875 4.775000000000002  28.9 4.750000000000002  L 29.00625 4.750000000000002  C 32.13125 4.750000000000002  35.1625 5.356250000000001  38.01875 6.556250000000002  C 40.80625 7.725000000000002  43.30625 9.406250000000002  45.45625 11.556250000000002  C 47.599999999999994 13.700000000000003  49.287499999999994 16.206250000000004  50.45625 18.993750000000002  C 51.668749999999996 21.88125  52.275 24.94375  52.262499999999996 28.106250000000003  Z " fill-rule="nonzero" fill="rgba(0, 0, 0, 1)" stroke="none" class="fill" />
    <path d="M 56.99999999999999 28.125000000000004  C 57.01874999999999 24.31875  56.28124999999999 20.625  54.825 17.15  C 53.4125 13.79375  51.3875 10.781249999999998  48.806250000000006 8.19375  C 46.24305874990028 5.621227899207877  43.20021456333054 3.5763856440322637  39.85000000000001 2.174999999999998  C 36.4125 0.7312500000000002  32.7625 0  29 0  L 28.875 0  C 25.0875 0.018749999999999822  21.41875 0.7687499999999998  17.96875 2.2437500000000012  C 14.647233103606128 3.6595079368775902  11.632897042059607 5.707982795604625  9.09375 8.275  C 6.5375 10.85625  4.53125 13.85625  3.14375 17.200000000000003  C 1.7062499999999998 20.6625  0.9812499999999997 24.343750000000004  1 28.131249999999998  C 1.0212078191159577 32.47169235885936  2.0480739240136954 36.7481618248814  4 40.625  L 4 50.125  C 4 51.71281865576353  5.287181344236469 53  6.875 53  L 16.38125 53  C 20.258088175118605 54.95192607598631  24.534557641140648 55.97879218088405  28.875 56  L 29.00625 56  C 32.75 56  36.38125 55.275  39.79999999999999 53.856249999999996  C 43.133291352967056 52.47156351991011  46.16479272877584 50.45056260270425  48.724999999999994 47.90625  C 51.30624999999999 45.35  53.33749999999999 42.3625  54.756249999999994 39.03125  C 56.231249999999996 35.58125  56.981249999999996 31.9125  56.99999999999999 28.125000000000004  Z " stroke-width="0" stroke-dasharray="0" stroke="rgba(255, 255, 255, 0)" fill="none" class="stroke" mask="url(#Clip3047)" />
    <path d="M 52.262499999999996 28.106250000000003  C 52.224999999999994 34.331250000000004  49.78124999999999 40.1625  45.38125 44.525  C 41 48.8625  35.1875 51.25  29 51.25  L 28.89375 51.25  C 25.125 51.23125  21.38125 50.29375  18.075000000000003 48.53125  L 17.550000000000004 48.25  L 8.75 48.25  L 8.75 39.45  L 8.46875 38.925000000000004  C 6.706250000000001 35.61875  5.768750000000001 31.875  5.75 28.106250000000003  C 5.725 21.875000000000004  8.10625 16.025000000000002  12.475 11.618750000000002  C 16.8375 7.212500000000002  22.66875 4.775000000000002  28.9 4.750000000000002  L 29.00625 4.750000000000002  C 32.13125 4.750000000000002  35.1625 5.356250000000001  38.01875 6.556250000000002  C 40.80625 7.725000000000002  43.30625 9.406250000000002  45.45625 11.556250000000002  C 47.599999999999994 13.700000000000003  49.287499999999994 16.206250000000004  50.45625 18.993750000000002  C 51.668749999999996 21.88125  52.275 24.94375  52.262499999999996 28.106250000000003  Z " stroke-width="0" stroke-dasharray="0" stroke="rgba(255, 255, 255, 0)" fill="none" class="stroke" mask="url(#Clip3047)" />
  </g>
</svg>