<?xml version="1.0" encoding="utf-8"?>
<svg version="1.1" xmlns:xlink="http://www.w3.org/1999/xlink" width="50px" height="44px" xmlns="http://www.w3.org/2000/svg">
  <defs>
    <pattern id="BGPattern" patternUnits="userSpaceOnUse" alignment="0 0" imageRepeat="None" />
    <mask fill="white" id="Clip2171">
      <path d="M 50 4.6875  C 50 2.099609375  47.900390625 0  45.3125 0  L 4.6875 0  C 2.099609375 0  0 2.099609375  0 4.6875  L 0 39.0625  C 0 41.650390625  2.099609375 43.75  4.6875 43  L 45.3125 43  C 47.900390625 43.75  50 41.650390625  50 39.0625  L 50 4.6875  Z M 43.75 7.421875  L 43.75 16  L 6.25 16  L 6.25 7.421875  C 6.25 6.77734375  6.777343750000001 6.250000000000001  7.421875 7  L 42.578125 7  C 43.22265625 6.250000000000001  43.75 6.77734375  43.75 7.421875  Z " fill-rule="evenodd" />
    </mask>
  </defs>
  <g>
    <path d="M 50 4.6875  C 50 2.099609375  47.900390625 0  45.3125 0  L 4.6875 0  C 2.099609375 0  0 2.099609375  0 4.6875  L 0 39.0625  C 0 41.650390625  2.099609375 43.75  4.6875 43  L 45.3125 43  C 47.900390625 43.75  50 41.650390625  50 39.0625  L 50 4.6875  Z M 43.75 7.421875  L 43.75 16  L 6.25 16  L 6.25 7.421875  C 6.25 6.77734375  6.777343750000001 6.250000000000001  7.421875 7  L 42.578125 7  C 43.22265625 6.250000000000001  43.75 6.77734375  43.75 7.421875  Z " fill-rule="nonzero" fill="rgba(0, 0, 0, 1)" stroke="none" class="fill" />
    <path d="M 50 4.6875  C 50 2.099609375  47.900390625 0  45.3125 0  L 4.6875 0  C 2.099609375 0  0 2.099609375  0 4.6875  L 0 39.0625  C 0 41.650390625  2.099609375 43.75  4.6875 43  L 45.3125 43  C 47.900390625 43.75  50 41.650390625  50 39.0625  L 50 4.6875  Z " stroke-width="0" stroke-dasharray="0" stroke="rgba(255, 255, 255, 0)" fill="none" class="stroke" mask="url(#Clip2171)" />
    <path d="M 43.75 7.421875  L 43.75 16  L 6.25 16  L 6.25 7.421875  C 6.25 6.77734375  6.777343750000001 6.250000000000001  7.421875 7  L 42.578125 7  C 43.22265625 6.250000000000001  43.75 6.77734375  43.75 7.421875  Z " stroke-width="0" stroke-dasharray="0" stroke="rgba(255, 255, 255, 0)" fill="none" class="stroke" mask="url(#Clip2171)" />
  </g>
</svg>