<?xml version="1.0" encoding="utf-8"?>
<svg version="1.1" xmlns:xlink="http://www.w3.org/1999/xlink" width="21px" height="24px" xmlns="http://www.w3.org/2000/svg">
  <defs>
    <pattern id="BGPattern" patternUnits="userSpaceOnUse" alignment="0 0" imageRepeat="None" />
    <mask fill="white" id="Clip5621">
      <path d="M 14.25 0  L 21 6.75  L 21 21  C 21 22.65685424949238  19.65685424949238 24  18 24  L 16.5 24  L 16.5 22.5  L 18 22.5  C 18.82842712474619 22.5  19.5 21.82842712474619  19.5 21  L 19.5 6.75  L 16.5 6.75  C 15.257359312880716 6.75  14.25 5.742640687119285  14.25 4.5  L 14.25 1.5  L 6 1.5  C 5.17157287525381 1.5  4.5 2.1715728752538097  4.5 3  L 4.5 16.5  L 3 16.5  L 3 3  C 3 1.3431457505076196  4.343145750507619 0  6 0  L 14.25 0  Z M 4.596 18.768  L 2.892 18.768  L 2.892 23.7735  L 1.7009999999999998 23.7735  L 1.7009999999999998 18.768  L 0 18.768  L 0 17.775  L 4.596 17.775  L 4.596 18.768  Z M 4.903499999999999 17.775  L 6.088499999999999 17.775  L 6.088499999999999 23.7735  L 4.903499999999999 23.7735  L 4.903499999999999 17.775  Z M 6.9615 23.7735  L 8.148 23.7735  L 8.148 21.3885  L 10.556999999999999 21.3885  L 10.556999999999999 20.4285  L 8.148 20.4285  L 8.148 18.7545  L 10.785 18.7545  L 10.785 17.775  L 6.9615 17.775  L 6.9615 23.7735  Z M 12.45 21.387  L 12.45 21.3885  L 12.45 23.7735  L 11.263499999999997 23.7735  L 11.263499999999997 17.775  L 15.0855 17.775  L 15.0855 18.7545  L 12.45 18.7545  L 12.45 20.43  L 14.857500000000003 20.43  L 14.857500000000003 21.387  L 12.45 21.387  Z " fill-rule="evenodd" />
    </mask>
  </defs>
  <g>
    <path d="M 14.25 0  L 21 6.75  L 21 21  C 21 22.65685424949238  19.65685424949238 24  18 24  L 16.5 24  L 16.5 22.5  L 18 22.5  C 18.82842712474619 22.5  19.5 21.82842712474619  19.5 21  L 19.5 6.75  L 16.5 6.75  C 15.257359312880716 6.75  14.25 5.742640687119285  14.25 4.5  L 14.25 1.5  L 6 1.5  C 5.17157287525381 1.5  4.5 2.1715728752538097  4.5 3  L 4.5 16.5  L 3 16.5  L 3 3  C 3 1.3431457505076196  4.343145750507619 0  6 0  L 14.25 0  Z M 4.596 18.768  L 2.892 18.768  L 2.892 23.7735  L 1.7009999999999998 23.7735  L 1.7009999999999998 18.768  L 0 18.768  L 0 17.775  L 4.596 17.775  L 4.596 18.768  Z M 4.903499999999999 17.775  L 6.088499999999999 17.775  L 6.088499999999999 23.7735  L 4.903499999999999 23.7735  L 4.903499999999999 17.775  Z M 6.9615 23.7735  L 8.148 23.7735  L 8.148 21.3885  L 10.556999999999999 21.3885  L 10.556999999999999 20.4285  L 8.148 20.4285  L 8.148 18.7545  L 10.785 18.7545  L 10.785 17.775  L 6.9615 17.775  L 6.9615 23.7735  Z M 12.45 21.387  L 12.45 21.3885  L 12.45 23.7735  L 11.263499999999997 23.7735  L 11.263499999999997 17.775  L 15.0855 17.775  L 15.0855 18.7545  L 12.45 18.7545  L 12.45 20.43  L 14.857500000000003 20.43  L 14.857500000000003 21.387  L 12.45 21.387  Z " fill-rule="nonzero" fill="rgba(0, 0, 0, 1)" stroke="none" class="fill" />
    <path d="M 14.25 0  L 21 6.75  L 21 21  C 21 22.65685424949238  19.65685424949238 24  18 24  L 16.5 24  L 16.5 22.5  L 18 22.5  C 18.82842712474619 22.5  19.5 21.82842712474619  19.5 21  L 19.5 6.75  L 16.5 6.75  C 15.257359312880716 6.75  14.25 5.742640687119285  14.25 4.5  L 14.25 1.5  L 6 1.5  C 5.17157287525381 1.5  4.5 2.1715728752538097  4.5 3  L 4.5 16.5  L 3 16.5  L 3 3  C 3 1.3431457505076196  4.343145750507619 0  6 0  L 14.25 0  Z " stroke-width="0" stroke-dasharray="0" stroke="rgba(255, 255, 255, 0)" fill="none" class="stroke" mask="url(#Clip5621)" />
    <path d="M 4.596 18.768  L 2.892 18.768  L 2.892 23.7735  L 1.7009999999999998 23.7735  L 1.7009999999999998 18.768  L 0 18.768  L 0 17.775  L 4.596 17.775  L 4.596 18.768  Z " stroke-width="0" stroke-dasharray="0" stroke="rgba(255, 255, 255, 0)" fill="none" class="stroke" mask="url(#Clip5621)" />
    <path d="M 4.903499999999999 17.775  L 6.088499999999999 17.775  L 6.088499999999999 23.7735  L 4.903499999999999 23.7735  L 4.903499999999999 17.775  Z " stroke-width="0" stroke-dasharray="0" stroke="rgba(255, 255, 255, 0)" fill="none" class="stroke" mask="url(#Clip5621)" />
    <path d="M 6.9615 23.7735  L 8.148 23.7735  L 8.148 21.3885  L 10.556999999999999 21.3885  L 10.556999999999999 20.4285  L 8.148 20.4285  L 8.148 18.7545  L 10.785 18.7545  L 10.785 17.775  L 6.9615 17.775  L 6.9615 23.7735  Z " stroke-width="0" stroke-dasharray="0" stroke="rgba(255, 255, 255, 0)" fill="none" class="stroke" mask="url(#Clip5621)" />
    <path d="M 12.45 21.387  L 12.45 21.3885  L 12.45 23.7735  L 11.263499999999997 23.7735  L 11.263499999999997 17.775  L 15.0855 17.775  L 15.0855 18.7545  L 12.45 18.7545  L 12.45 20.43  L 14.857500000000003 20.43  L 14.857500000000003 21.387  L 12.45 21.387  Z " stroke-width="0" stroke-dasharray="0" stroke="rgba(255, 255, 255, 0)" fill="none" class="stroke" mask="url(#Clip5621)" />
  </g>
</svg>