<?xml version="1.0" encoding="utf-8"?>
<svg version="1.1" xmlns:xlink="http://www.w3.org/1999/xlink" width="50px" height="50px" xmlns="http://www.w3.org/2000/svg">
  <defs>
    <pattern id="BGPattern" patternUnits="userSpaceOnUse" alignment="0 0" imageRepeat="None" />
    <mask fill="white" id="Clip938">
      <path d="M 30.602678571428555 34.98883928571428  C 30.870535714285722 34.73214285714286  31.339285714285726 34.73214285714286  31.607142857142833 34.98883928571428  C 31.90848214285717 35.290178571428555  31.90848214285717 35.74776785714286  31.607142857142833 36.015625  C 28.87276785714286 38.75  21.13839285714286 38.76116071428572  18.39285714285714 36.015625  C 18.09151785714286 35.74776785714286  18.09151785714286 35.290178571428555  18.39285714285714 34.98883928571428  C 18.660714285714278 34.72098214285714  19.118303571428555 34.72098214285714  19.386160714285722 34.98883928571428  C 21.473214285714278 37.131696428571416  28.426339285714274 37.17633928571428  30.602678571428555 34.98883928571428  Z M 18.459821428571416 31.941964285714274  C 20.089285714285722 31.941964285714274  21.417410714285722 30.613839285714278  21.417410714285722 28.984375  C 21.417410714285722 27.321428571428584  20.089285714285722 25.993303571428555  18.459821428571416 25.993303571428555  C 16.796875 25.993303571428555  15.46875 27.32142857142856  15.46875 28.984375  C 15.46875 30.613839285714278  16.796875 31.941964285714274  18.459821428571416 31.941964285714274  Z M 34.53125 28.984375  C 34.53125 27.321428571428584  33.203125 25.993303571428555  31.540178571428555 25.993303571428555  C 29.910714285714278 25.993303571428555  28.582589285714278 27.32142857142856  28.582589285714278 28.984375  C 28.582589285714278 30.613839285714278  29.910714285714278 31.941964285714274  31.540178571428555 31.941964285714274  C 33.203125 31.941964285714274  34.53125 30.613839285714278  34.53125 28.984375  Z M 44.64285714285717 0  C 47.600446428571445 0  50 2.3995535714285836  50 5.357142857142861  L 50 44.64285714285714  C 50 47.600446428571445  47.600446428571445 50  44.64285714285717 50  L 5.357142857142861 50  C 2.3995535714285836 50  0 47.600446428571445  0 44.64285714285714  L 0 5.357142857142861  C 0 2.3995535714285836  2.3995535714285836 0  5.357142857142861 0  L 44.64285714285717 0  Z M 40.66964285714283 28.54910714285714  C 44.41964285714283 26.629464285714278  43.03571428571428 21.04910714285714  38.87276785714289 21.04910714285714  C 37.74553571428572 21.04910714285714  36.75223214285717 21.51785714285714  36.015625 22.243303571428555  C 33.32589285714283 20.379464285714278  29.709821428571416 19.18526785714286  25.691964285714274 19.051339285714278  L 27.77901785714286 9.654017857142861  L 34.41964285714283 11.149553571428555  C 34.41964285714283 12.779017857142861  35.74776785714283 14.107142857142863  37.37723214285711 14.107142857142863  C 39.040178571428555 14.107142857142863  40.368303571428555 12.745535714285722  40.368303571428555 11.116071428571416  C 40.368303571428555 9.486607142857139  39.040178571428555 8.125  37.37723214285711 8.125  C 36.21651785714283 8.125  35.22321428571428 8.816964285714278  34.72098214285711 9.787946428571416  L 27.38839285714286 8.158482142857139  C 27.020089285714278 8.058035714285722  26.662946428571416 8.325892857142861  26.5625 8.694196428571416  L 24.274553571428555 19.051339285714278  C 20.290178571428555 19.21875  16.707589285714278 20.412946428571416  14.017857142857137 22.276785714285722  C 13.29241071428572 21.51785714285714  12.254464285714278 21.04910714285714  11.127232142857139 21.04910714285714  C 6.941964285714278 21.04910714285714  5.569196428571416 26.67410714285714  9.397321428571416 28.582589285714278  C 9.263392857142861 29.18526785714286  9.196428571428555 29.810267857142865  9.196428571428555 30.446428571428584  C 9.196428571428555 36.75223214285714  16.305803571428555 41.86383928571428  25.03348214285714 41.86383928571428  C 33.79464285714283 41.86383928571428  40.90401785714283 36.75223214285714  40.90401785714283 30.446428571428584  C 40.90401785714283 29.810267857142865  40.837053571428555 29.151785714285722  40.66964285714283 28.54910714285714  Z " fill-rule="evenodd" />
    </mask>
  </defs>
  <g>
    <path d="M 30.602678571428555 34.98883928571428  C 30.870535714285722 34.73214285714286  31.339285714285726 34.73214285714286  31.607142857142833 34.98883928571428  C 31.90848214285717 35.290178571428555  31.90848214285717 35.74776785714286  31.607142857142833 36.015625  C 28.87276785714286 38.75  21.13839285714286 38.76116071428572  18.39285714285714 36.015625  C 18.09151785714286 35.74776785714286  18.09151785714286 35.290178571428555  18.39285714285714 34.98883928571428  C 18.660714285714278 34.72098214285714  19.118303571428555 34.72098214285714  19.386160714285722 34.98883928571428  C 21.473214285714278 37.131696428571416  28.426339285714274 37.17633928571428  30.602678571428555 34.98883928571428  Z M 18.459821428571416 31.941964285714274  C 20.089285714285722 31.941964285714274  21.417410714285722 30.613839285714278  21.417410714285722 28.984375  C 21.417410714285722 27.321428571428584  20.089285714285722 25.993303571428555  18.459821428571416 25.993303571428555  C 16.796875 25.993303571428555  15.46875 27.32142857142856  15.46875 28.984375  C 15.46875 30.613839285714278  16.796875 31.941964285714274  18.459821428571416 31.941964285714274  Z M 34.53125 28.984375  C 34.53125 27.321428571428584  33.203125 25.993303571428555  31.540178571428555 25.993303571428555  C 29.910714285714278 25.993303571428555  28.582589285714278 27.32142857142856  28.582589285714278 28.984375  C 28.582589285714278 30.613839285714278  29.910714285714278 31.941964285714274  31.540178571428555 31.941964285714274  C 33.203125 31.941964285714274  34.53125 30.613839285714278  34.53125 28.984375  Z M 44.64285714285717 0  C 47.600446428571445 0  50 2.3995535714285836  50 5.357142857142861  L 50 44.64285714285714  C 50 47.600446428571445  47.600446428571445 50  44.64285714285717 50  L 5.357142857142861 50  C 2.3995535714285836 50  0 47.600446428571445  0 44.64285714285714  L 0 5.357142857142861  C 0 2.3995535714285836  2.3995535714285836 0  5.357142857142861 0  L 44.64285714285717 0  Z M 40.66964285714283 28.54910714285714  C 44.41964285714283 26.629464285714278  43.03571428571428 21.04910714285714  38.87276785714289 21.04910714285714  C 37.74553571428572 21.04910714285714  36.75223214285717 21.51785714285714  36.015625 22.243303571428555  C 33.32589285714283 20.379464285714278  29.709821428571416 19.18526785714286  25.691964285714274 19.051339285714278  L 27.77901785714286 9.654017857142861  L 34.41964285714283 11.149553571428555  C 34.41964285714283 12.779017857142861  35.74776785714283 14.107142857142863  37.37723214285711 14.107142857142863  C 39.040178571428555 14.107142857142863  40.368303571428555 12.745535714285722  40.368303571428555 11.116071428571416  C 40.368303571428555 9.486607142857139  39.040178571428555 8.125  37.37723214285711 8.125  C 36.21651785714283 8.125  35.22321428571428 8.816964285714278  34.72098214285711 9.787946428571416  L 27.38839285714286 8.158482142857139  C 27.020089285714278 8.058035714285722  26.662946428571416 8.325892857142861  26.5625 8.694196428571416  L 24.274553571428555 19.051339285714278  C 20.290178571428555 19.21875  16.707589285714278 20.412946428571416  14.017857142857137 22.276785714285722  C 13.29241071428572 21.51785714285714  12.254464285714278 21.04910714285714  11.127232142857139 21.04910714285714  C 6.941964285714278 21.04910714285714  5.569196428571416 26.67410714285714  9.397321428571416 28.582589285714278  C 9.263392857142861 29.18526785714286  9.196428571428555 29.810267857142865  9.196428571428555 30.446428571428584  C 9.196428571428555 36.75223214285714  16.305803571428555 41.86383928571428  25.03348214285714 41.86383928571428  C 33.79464285714283 41.86383928571428  40.90401785714283 36.75223214285714  40.90401785714283 30.446428571428584  C 40.90401785714283 29.810267857142865  40.837053571428555 29.151785714285722  40.66964285714283 28.54910714285714  Z " fill-rule="nonzero" fill="rgba(0, 0, 0, 1)" stroke="none" class="fill" />
    <path d="M 30.602678571428555 34.98883928571428  C 30.870535714285722 34.73214285714286  31.339285714285726 34.73214285714286  31.607142857142833 34.98883928571428  C 31.90848214285717 35.290178571428555  31.90848214285717 35.74776785714286  31.607142857142833 36.015625  C 28.87276785714286 38.75  21.13839285714286 38.76116071428572  18.39285714285714 36.015625  C 18.09151785714286 35.74776785714286  18.09151785714286 35.290178571428555  18.39285714285714 34.98883928571428  C 18.660714285714278 34.72098214285714  19.118303571428555 34.72098214285714  19.386160714285722 34.98883928571428  C 21.473214285714278 37.131696428571416  28.426339285714274 37.17633928571428  30.602678571428555 34.98883928571428  Z " stroke-width="0" stroke-dasharray="0" stroke="rgba(255, 255, 255, 0)" fill="none" class="stroke" mask="url(#Clip938)" />
    <path d="M 18.459821428571416 31.941964285714274  C 20.089285714285722 31.941964285714274  21.417410714285722 30.613839285714278  21.417410714285722 28.984375  C 21.417410714285722 27.321428571428584  20.089285714285722 25.993303571428555  18.459821428571416 25.993303571428555  C 16.796875 25.993303571428555  15.46875 27.32142857142856  15.46875 28.984375  C 15.46875 30.613839285714278  16.796875 31.941964285714274  18.459821428571416 31.941964285714274  Z " stroke-width="0" stroke-dasharray="0" stroke="rgba(255, 255, 255, 0)" fill="none" class="stroke" mask="url(#Clip938)" />
    <path d="M 34.53125 28.984375  C 34.53125 27.321428571428584  33.203125 25.993303571428555  31.540178571428555 25.993303571428555  C 29.910714285714278 25.993303571428555  28.582589285714278 27.32142857142856  28.582589285714278 28.984375  C 28.582589285714278 30.613839285714278  29.910714285714278 31.941964285714274  31.540178571428555 31.941964285714274  C 33.203125 31.941964285714274  34.53125 30.613839285714278  34.53125 28.984375  Z " stroke-width="0" stroke-dasharray="0" stroke="rgba(255, 255, 255, 0)" fill="none" class="stroke" mask="url(#Clip938)" />
    <path d="M 44.64285714285717 0  C 47.600446428571445 0  50 2.3995535714285836  50 5.357142857142861  L 50 44.64285714285714  C 50 47.600446428571445  47.600446428571445 50  44.64285714285717 50  L 5.357142857142861 50  C 2.3995535714285836 50  0 47.600446428571445  0 44.64285714285714  L 0 5.357142857142861  C 0 2.3995535714285836  2.3995535714285836 0  5.357142857142861 0  L 44.64285714285717 0  Z " stroke-width="0" stroke-dasharray="0" stroke="rgba(255, 255, 255, 0)" fill="none" class="stroke" mask="url(#Clip938)" />
    <path d="M 40.66964285714283 28.54910714285714  C 44.41964285714283 26.629464285714278  43.03571428571428 21.04910714285714  38.87276785714289 21.04910714285714  C 37.74553571428572 21.04910714285714  36.75223214285717 21.51785714285714  36.015625 22.243303571428555  C 33.32589285714283 20.379464285714278  29.709821428571416 19.18526785714286  25.691964285714274 19.051339285714278  L 27.77901785714286 9.654017857142861  L 34.41964285714283 11.149553571428555  C 34.41964285714283 12.779017857142861  35.74776785714283 14.107142857142863  37.37723214285711 14.107142857142863  C 39.040178571428555 14.107142857142863  40.368303571428555 12.745535714285722  40.368303571428555 11.116071428571416  C 40.368303571428555 9.486607142857139  39.040178571428555 8.125  37.37723214285711 8.125  C 36.21651785714283 8.125  35.22321428571428 8.816964285714278  34.72098214285711 9.787946428571416  L 27.38839285714286 8.158482142857139  C 27.020089285714278 8.058035714285722  26.662946428571416 8.325892857142861  26.5625 8.694196428571416  L 24.274553571428555 19.051339285714278  C 20.290178571428555 19.21875  16.707589285714278 20.412946428571416  14.017857142857137 22.276785714285722  C 13.29241071428572 21.51785714285714  12.254464285714278 21.04910714285714  11.127232142857139 21.04910714285714  C 6.941964285714278 21.04910714285714  5.569196428571416 26.67410714285714  9.397321428571416 28.582589285714278  C 9.263392857142861 29.18526785714286  9.196428571428555 29.810267857142865  9.196428571428555 30.446428571428584  C 9.196428571428555 36.75223214285714  16.305803571428555 41.86383928571428  25.03348214285714 41.86383928571428  C 33.79464285714283 41.86383928571428  40.90401785714283 36.75223214285714  40.90401785714283 30.446428571428584  C 40.90401785714283 29.810267857142865  40.837053571428555 29.151785714285722  40.66964285714283 28.54910714285714  Z " stroke-width="0" stroke-dasharray="0" stroke="rgba(255, 255, 255, 0)" fill="none" class="stroke" mask="url(#Clip938)" />
  </g>
</svg>