<?xml version="1.0" encoding="utf-8"?>
<svg version="1.1" xmlns:xlink="http://www.w3.org/1999/xlink" width="24px" height="24px" xmlns="http://www.w3.org/2000/svg">
  <defs>
    <pattern id="BGPattern" patternUnits="userSpaceOnUse" alignment="0 0" imageRepeat="None" />
    <mask fill="white" id="Clip5251">
      <path d="M 9 0  L 1.5 0  C 0.6715728752538098 0  0 0.6715728752538098  0 1.5  L 0 6  C 0 6.82842712474619  0.6715728752538098 7.5  1.5 7.5  L 9 7.5  C 9.82842712474619 7.5  10.5 6.82842712474619  10.5 6  L 10.5 1.5  C 10.5 0.6715728752538098  9.82842712474619 0  9 0  Z M 22.5 16.5  L 15 16.5  C 14.17157287525381 16.5  13.5 17.17157287525381  13.5 18  L 13.5 22.5  C 13.5 23.32842712474619  14.17157287525381 24  15 24  L 22.5 24  C 23.32842712474619 24  24 23.32842712474619  24 22.5  L 24 18  C 24 17.17157287525381  23.32842712474619 16.5  22.5 16.5  Z M 9 10.5  L 1.5 10.5  C 0.6715728752538098 10.5  0 11.17157287525381  0 12  L 0 22.5  C 0 23.32842712474619  0.6715728752538098 24  1.5 24  L 9 24  C 9.82842712474619 24  10.5 23.32842712474619  10.5 22.5  L 10.5 12  C 10.5 11.17157287525381  9.82842712474619 10.5  9 10.5  Z M 22.5 0  L 15 0  C 14.17157287525381 0  13.5 0.6715728752538098  13.5 1.5  L 13.5 12  C 13.5 12.82842712474619  14.17157287525381 13.5  15 13.5  L 22.5 13.5  C 23.32842712474619 13.5  24 12.82842712474619  24 12  L 24 1.5  C 24 0.6715728752538098  23.32842712474619 0  22.5 0  Z M 1.5 1.5  L 9 1.5  L 9 6  L 1.5 6  L 1.5 1.5  Z M 15 18  L 22.5 18  L 22.5 22.5  L 15 22.5  L 15 18  Z M 1.5 12  L 9 12  L 9 22.5  L 1.5 22.5  L 1.5 12  Z M 15 1.5  L 22.5 1.5  L 22.5 12  L 15 12  L 15 1.5  Z " fill-rule="evenodd" />
    </mask>
  </defs>
  <g>
    <path d="M 9 0  L 1.5 0  C 0.6715728752538098 0  0 0.6715728752538098  0 1.5  L 0 6  C 0 6.82842712474619  0.6715728752538098 7.5  1.5 7.5  L 9 7.5  C 9.82842712474619 7.5  10.5 6.82842712474619  10.5 6  L 10.5 1.5  C 10.5 0.6715728752538098  9.82842712474619 0  9 0  Z M 22.5 16.5  L 15 16.5  C 14.17157287525381 16.5  13.5 17.17157287525381  13.5 18  L 13.5 22.5  C 13.5 23.32842712474619  14.17157287525381 24  15 24  L 22.5 24  C 23.32842712474619 24  24 23.32842712474619  24 22.5  L 24 18  C 24 17.17157287525381  23.32842712474619 16.5  22.5 16.5  Z M 9 10.5  L 1.5 10.5  C 0.6715728752538098 10.5  0 11.17157287525381  0 12  L 0 22.5  C 0 23.32842712474619  0.6715728752538098 24  1.5 24  L 9 24  C 9.82842712474619 24  10.5 23.32842712474619  10.5 22.5  L 10.5 12  C 10.5 11.17157287525381  9.82842712474619 10.5  9 10.5  Z M 22.5 0  L 15 0  C 14.17157287525381 0  13.5 0.6715728752538098  13.5 1.5  L 13.5 12  C 13.5 12.82842712474619  14.17157287525381 13.5  15 13.5  L 22.5 13.5  C 23.32842712474619 13.5  24 12.82842712474619  24 12  L 24 1.5  C 24 0.6715728752538098  23.32842712474619 0  22.5 0  Z M 1.5 1.5  L 9 1.5  L 9 6  L 1.5 6  L 1.5 1.5  Z M 15 18  L 22.5 18  L 22.5 22.5  L 15 22.5  L 15 18  Z M 1.5 12  L 9 12  L 9 22.5  L 1.5 22.5  L 1.5 12  Z M 15 1.5  L 22.5 1.5  L 22.5 12  L 15 12  L 15 1.5  Z " fill-rule="nonzero" fill="rgba(0, 0, 0, 1)" stroke="none" class="fill" />
    <path d="M 9 0  L 1.5 0  C 0.6715728752538098 0  0 0.6715728752538098  0 1.5  L 0 6  C 0 6.82842712474619  0.6715728752538098 7.5  1.5 7.5  L 9 7.5  C 9.82842712474619 7.5  10.5 6.82842712474619  10.5 6  L 10.5 1.5  C 10.5 0.6715728752538098  9.82842712474619 0  9 0  Z " stroke-width="0" stroke-dasharray="0" stroke="rgba(255, 255, 255, 0)" fill="none" class="stroke" mask="url(#Clip5251)" />
    <path d="M 22.5 16.5  L 15 16.5  C 14.17157287525381 16.5  13.5 17.17157287525381  13.5 18  L 13.5 22.5  C 13.5 23.32842712474619  14.17157287525381 24  15 24  L 22.5 24  C 23.32842712474619 24  24 23.32842712474619  24 22.5  L 24 18  C 24 17.17157287525381  23.32842712474619 16.5  22.5 16.5  Z " stroke-width="0" stroke-dasharray="0" stroke="rgba(255, 255, 255, 0)" fill="none" class="stroke" mask="url(#Clip5251)" />
    <path d="M 9 10.5  L 1.5 10.5  C 0.6715728752538098 10.5  0 11.17157287525381  0 12  L 0 22.5  C 0 23.32842712474619  0.6715728752538098 24  1.5 24  L 9 24  C 9.82842712474619 24  10.5 23.32842712474619  10.5 22.5  L 10.5 12  C 10.5 11.17157287525381  9.82842712474619 10.5  9 10.5  Z " stroke-width="0" stroke-dasharray="0" stroke="rgba(255, 255, 255, 0)" fill="none" class="stroke" mask="url(#Clip5251)" />
    <path d="M 22.5 0  L 15 0  C 14.17157287525381 0  13.5 0.6715728752538098  13.5 1.5  L 13.5 12  C 13.5 12.82842712474619  14.17157287525381 13.5  15 13.5  L 22.5 13.5  C 23.32842712474619 13.5  24 12.82842712474619  24 12  L 24 1.5  C 24 0.6715728752538098  23.32842712474619 0  22.5 0  Z " stroke-width="0" stroke-dasharray="0" stroke="rgba(255, 255, 255, 0)" fill="none" class="stroke" mask="url(#Clip5251)" />
    <path d="M 1.5 1.5  L 9 1.5  L 9 6  L 1.5 6  L 1.5 1.5  Z " stroke-width="0" stroke-dasharray="0" stroke="rgba(255, 255, 255, 0)" fill="none" class="stroke" mask="url(#Clip5251)" />
    <path d="M 15 18  L 22.5 18  L 22.5 22.5  L 15 22.5  L 15 18  Z " stroke-width="0" stroke-dasharray="0" stroke="rgba(255, 255, 255, 0)" fill="none" class="stroke" mask="url(#Clip5251)" />
    <path d="M 1.5 12  L 9 12  L 9 22.5  L 1.5 22.5  L 1.5 12  Z " stroke-width="0" stroke-dasharray="0" stroke="rgba(255, 255, 255, 0)" fill="none" class="stroke" mask="url(#Clip5251)" />
    <path d="M 15 1.5  L 22.5 1.5  L 22.5 12  L 15 12  L 15 1.5  Z " stroke-width="0" stroke-dasharray="0" stroke="rgba(255, 255, 255, 0)" fill="none" class="stroke" mask="url(#Clip5251)" />
  </g>
</svg>