<?xml version="1.0" encoding="utf-8"?>
<svg version="1.1" xmlns:xlink="http://www.w3.org/1999/xlink" width="50px" height="50px" xmlns="http://www.w3.org/2000/svg">
  <defs>
    <pattern id="BGPattern" patternUnits="userSpaceOnUse" alignment="0 0" imageRepeat="None" />
    <mask fill="white" id="Clip1782">
      <path d="M 50 5.357142857142861  C 50 2.3995535714285836  47.600446428571445 0  44.64285714285714 0  L 5.357142857142861 0  C 2.3995535714285836 0  0 2.3995535714285836  0 5.357142857142861  L 0 44.64285714285714  C 0 47.600446428571445  2.3995535714285836 50  5.357142857142861 50  L 44.64285714285714 50  C 47.600446428571445 50  50 47.600446428571445  50 44.64285714285714  L 50 5.357142857142861  Z M 39.73214285714286 29  L 10.267857142857139 29  C 9.53125 29.464285714285722  8.928571428571416 28.86160714285714  8.928571428571416 28.125  L 8.928571428571416 21.875  C 8.928571428571416 21.13839285714286  9.53125 20.535714285714278  10.267857142857139 21  L 39.73214285714286 21  C 40.46875 20.535714285714278  41.071428571428555 21.13839285714286  41.071428571428555 21.875  L 41.071428571428555 28.125  C 41.071428571428555 28.86160714285714  40.46875 29.464285714285722  39.73214285714286 29  Z " fill-rule="evenodd" />
    </mask>
  </defs>
  <g>
    <path d="M 50 5.357142857142861  C 50 2.3995535714285836  47.600446428571445 0  44.64285714285714 0  L 5.357142857142861 0  C 2.3995535714285836 0  0 2.3995535714285836  0 5.357142857142861  L 0 44.64285714285714  C 0 47.600446428571445  2.3995535714285836 50  5.357142857142861 50  L 44.64285714285714 50  C 47.600446428571445 50  50 47.600446428571445  50 44.64285714285714  L 50 5.357142857142861  Z M 39.73214285714286 29  L 10.267857142857139 29  C 9.53125 29.464285714285722  8.928571428571416 28.86160714285714  8.928571428571416 28.125  L 8.928571428571416 21.875  C 8.928571428571416 21.13839285714286  9.53125 20.535714285714278  10.267857142857139 21  L 39.73214285714286 21  C 40.46875 20.535714285714278  41.071428571428555 21.13839285714286  41.071428571428555 21.875  L 41.071428571428555 28.125  C 41.071428571428555 28.86160714285714  40.46875 29.464285714285722  39.73214285714286 29  Z " fill-rule="nonzero" fill="rgba(0, 0, 0, 1)" stroke="none" class="fill" />
    <path d="M 50 5.357142857142861  C 50 2.3995535714285836  47.600446428571445 0  44.64285714285714 0  L 5.357142857142861 0  C 2.3995535714285836 0  0 2.3995535714285836  0 5.357142857142861  L 0 44.64285714285714  C 0 47.600446428571445  2.3995535714285836 50  5.357142857142861 50  L 44.64285714285714 50  C 47.600446428571445 50  50 47.600446428571445  50 44.64285714285714  L 50 5.357142857142861  Z " stroke-width="0" stroke-dasharray="0" stroke="rgba(255, 255, 255, 0)" fill="none" class="stroke" mask="url(#Clip1782)" />
    <path d="M 39.73214285714286 29  L 10.267857142857139 29  C 9.53125 29.464285714285722  8.928571428571416 28.86160714285714  8.928571428571416 28.125  L 8.928571428571416 21.875  C 8.928571428571416 21.13839285714286  9.53125 20.535714285714278  10.267857142857139 21  L 39.73214285714286 21  C 40.46875 20.535714285714278  41.071428571428555 21.13839285714286  41.071428571428555 21.875  L 41.071428571428555 28.125  C 41.071428571428555 28.86160714285714  40.46875 29.464285714285722  39.73214285714286 29  Z " stroke-width="0" stroke-dasharray="0" stroke="rgba(255, 255, 255, 0)" fill="none" class="stroke" mask="url(#Clip1782)" />
  </g>
</svg>