<?xml version="1.0" encoding="utf-8"?>
<svg version="1.1" xmlns:xlink="http://www.w3.org/1999/xlink" width="24px" height="12px" xmlns="http://www.w3.org/2000/svg">
  <defs>
    <pattern id="BGPattern" patternUnits="userSpaceOnUse" alignment="0 0" imageRepeat="None" />
    <mask fill="white" id="Clip4924">
      <path d="M 0 0.75  L 0 9.749999999999996  C 0 10.992640687119284  1.0073593128807148 11.999999999999996  2.25 12  L 21.75 11.999999999999996  C 22.992640687119284 11.999999999999996  24 10.992640687119284  24 9.75  L 24 0.75  L 22.5 0.75  L 22.5 9.75  C 22.5 10.164213562373096  22.164213562373096 10.5  21.75 10.5  L 2.25 10.5  C 1.835786437626905 10.5  1.5 10.164213562373096  1.5 9.75  L 1.5 0.75  L 0 0.75  Z " fill-rule="evenodd" />
    </mask>
  </defs>
  <g transform="matrix(1 0 0 1 0 -8 )">
    <path d="M 0 0.75  L 0 9.749999999999996  C 0 10.992640687119284  1.0073593128807148 11.999999999999996  2.25 12  L 21.75 11.999999999999996  C 22.992640687119284 11.999999999999996  24 10.992640687119284  24 9.75  L 24 0.75  L 22.5 0.75  L 22.5 9.75  C 22.5 10.164213562373096  22.164213562373096 10.5  21.75 10.5  L 2.25 10.5  C 1.835786437626905 10.5  1.5 10.164213562373096  1.5 9.75  L 1.5 0.75  L 0 0.75  Z " fill-rule="nonzero" fill="rgba(0, 0, 0, 1)" stroke="none" transform="matrix(1 0 0 1 0 8 )" class="fill" />
    <path d="M 0 0.75  L 0 9.749999999999996  C 0 10.992640687119284  1.0073593128807148 11.999999999999996  2.25 12  L 21.75 11.999999999999996  C 22.992640687119284 11.999999999999996  24 10.992640687119284  24 9.75  L 24 0.75  L 22.5 0.75  L 22.5 9.75  C 22.5 10.164213562373096  22.164213562373096 10.5  21.75 10.5  L 2.25 10.5  C 1.835786437626905 10.5  1.5 10.164213562373096  1.5 9.75  L 1.5 0.75  L 0 0.75  Z " stroke-width="0" stroke-dasharray="0" stroke="rgba(255, 255, 255, 0)" fill="none" transform="matrix(1 0 0 1 0 8 )" class="stroke" mask="url(#Clip4924)" />
  </g>
</svg>