<?xml version="1.0" encoding="utf-8"?>
<svg version="1.1" xmlns:xlink="http://www.w3.org/1999/xlink" width="48px" height="24px" xmlns="http://www.w3.org/2000/svg">
  <defs>
    <pattern id="BGPattern" patternUnits="userSpaceOnUse" alignment="0 0" imageRepeat="None" />
    <mask fill="white" id="Clip6897">
      <path d="M 11.13 0.8719999999999999  C 4.99 0.8719999999999999  0 5.852  0 12  C 0 18.148  4.988 23.128  11.13 23.128  C 17.28 23.128  22.268 18.148  22.268 12  C 22.268 5.852  17.282 0.8719999999999999  11.13 0.8719999999999999  Z M 36.872 0.8719999999999999  C 30.722 0.8719999999999999  25.732 5.852  25.732 12  C 25.732 18.148  30.717999999999996 23.128  36.866 23.128  C 42.992 23.128  48 18.148  48 12  C 48 5.852  43.016 0.8719999999999999  36.872 0.8719999999999999  Z " fill-rule="evenodd" />
    </mask>
  </defs>
  <g>
    <path d="M 11.13 0.8719999999999999  C 4.99 0.8719999999999999  0 5.852  0 12  C 0 18.148  4.988 23.128  11.13 23.128  C 17.28 23.128  22.268 18.148  22.268 12  C 22.268 5.852  17.282 0.8719999999999999  11.13 0.8719999999999999  Z M 36.872 0.8719999999999999  C 30.722 0.8719999999999999  25.732 5.852  25.732 12  C 25.732 18.148  30.717999999999996 23.128  36.866 23.128  C 42.992 23.128  48 18.148  48 12  C 48 5.852  43.016 0.8719999999999999  36.872 0.8719999999999999  Z " fill-rule="nonzero" fill="rgba(0, 99, 220, 1)" stroke="none" class="fill" />
    <path d="M 11.13 0.8719999999999999  C 4.99 0.8719999999999999  0 5.852  0 12  C 0 18.148  4.988 23.128  11.13 23.128  C 17.28 23.128  22.268 18.148  22.268 12  C 22.268 5.852  17.282 0.8719999999999999  11.13 0.8719999999999999  Z " stroke-width="0" stroke-dasharray="0" stroke="rgba(255, 255, 255, 0)" fill="none" class="stroke" mask="url(#Clip6897)" />
    <path d="M 36.872 0.8719999999999999  C 30.722 0.8719999999999999  25.732 5.852  25.732 12  C 25.732 18.148  30.717999999999996 23.128  36.866 23.128  C 42.992 23.128  48 18.148  48 12  C 48 5.852  43.016 0.8719999999999999  36.872 0.8719999999999999  Z " stroke-width="0" stroke-dasharray="0" stroke="rgba(255, 255, 255, 0)" fill="none" class="stroke" mask="url(#Clip6897)" />
  </g>
</svg>