<?xml version="1.0" encoding="utf-8"?>
<svg version="1.1" xmlns:xlink="http://www.w3.org/1999/xlink" width="18px" height="19px" xmlns="http://www.w3.org/2000/svg">
  <defs>
    <pattern id="BGPattern" patternUnits="userSpaceOnUse" alignment="0 0" imageRepeat="None" />
    <mask fill="white" id="Clip6049">
      <path d="M 18 18.5  L 0 18.5  L 0 17  C 0 15.5  1.5 11  9 11  C 16.5 11  18 15.5  18 17  L 18 18.5  Z M 4.5 5  C 4.5 7.4852813742385695  6.514718625761429 9.5  9 9.5  C 11.48528137423857 9.5  13.5 7.4852813742385695  13.5 5  C 13.5 2.5147186257614287  11.48528137423857 0.5  9 0.5  C 6.514718625761429 0.5  4.5 2.5147186257614287  4.5 5  Z " fill-rule="evenodd" />
    </mask>
  </defs>
  <g transform="matrix(1 0 0 1 -3 -4 )">
    <path d="M 18 18.5  L 0 18.5  L 0 17  C 0 15.5  1.5 11  9 11  C 16.5 11  18 15.5  18 17  L 18 18.5  Z M 4.5 5  C 4.5 7.4852813742385695  6.514718625761429 9.5  9 9.5  C 11.48528137423857 9.5  13.5 7.4852813742385695  13.5 5  C 13.5 2.5147186257614287  11.48528137423857 0.5  9 0.5  C 6.514718625761429 0.5  4.5 2.5147186257614287  4.5 5  Z " fill-rule="nonzero" fill="rgba(0, 0, 0, 1)" stroke="none" transform="matrix(1 0 0 1 3 4 )" class="fill" />
    <path d="M 18 18.5  L 0 18.5  L 0 17  C 0 15.5  1.5 11  9 11  C 16.5 11  18 15.5  18 17  L 18 18.5  Z " stroke-width="0" stroke-dasharray="0" stroke="rgba(255, 255, 255, 0)" fill="none" transform="matrix(1 0 0 1 3 4 )" class="stroke" mask="url(#Clip6049)" />
    <path d="M 4.5 5  C 4.5 7.4852813742385695  6.514718625761429 9.5  9 9.5  C 11.48528137423857 9.5  13.5 7.4852813742385695  13.5 5  C 13.5 2.5147186257614287  11.48528137423857 0.5  9 0.5  C 6.514718625761429 0.5  4.5 2.5147186257614287  4.5 5  Z " stroke-width="0" stroke-dasharray="0" stroke="rgba(255, 255, 255, 0)" fill="none" transform="matrix(1 0 0 1 3 4 )" class="stroke" mask="url(#Clip6049)" />
  </g>
</svg>