<?xml version="1.0" encoding="utf-8"?>
<svg version="1.1" xmlns:xlink="http://www.w3.org/1999/xlink" width="24px" height="29px" xmlns="http://www.w3.org/2000/svg">
  <defs>
    <pattern id="BGPattern" patternUnits="userSpaceOnUse" alignment="0 0" imageRepeat="None" />
    <mask fill="white" id="Clip4222">
      <path d="M 24 17  L 21.999999999999996 16.999999999999996  C 21.999999999999996 22.522847498307932  17.52284749830793 26.999999999999993  11.999999999999996 26.999999999999993  C 6.477152501692066 26.999999999999993  1.9999999999999991 22.522847498307932  1.9999999999999991 16.999999999999996  C 1.9999999999999991 11.477152501692064  6.477152501692064 6.999999999999999  11.999999999999996 6.999999999999999  L 18.18 7  L 14.600000000000001 10.59  L 16 12  L 22 6  L 16 0  L 14.600000000000001 1.4100000000000001  L 18.19 5  L 12 5  C 5.372583002030478 5  0 10.372583002030478  0 17  C 0 23.62741699796952  5.372583002030478 29  12 29  C 18.627416997969522 29  24 23.62741699796952  24 17  Z " fill-rule="evenodd" />
    </mask>
  </defs>
  <g transform="matrix(1 0 0 1 -3 -1 )">
    <path d="M 24 17  L 21.999999999999996 16.999999999999996  C 21.999999999999996 22.522847498307932  17.52284749830793 26.999999999999993  11.999999999999996 26.999999999999993  C 6.477152501692066 26.999999999999993  1.9999999999999991 22.522847498307932  1.9999999999999991 16.999999999999996  C 1.9999999999999991 11.477152501692064  6.477152501692064 6.999999999999999  11.999999999999996 6.999999999999999  L 18.18 7  L 14.600000000000001 10.59  L 16 12  L 22 6  L 16 0  L 14.600000000000001 1.4100000000000001  L 18.19 5  L 12 5  C 5.372583002030478 5  0 10.372583002030478  0 17  C 0 23.62741699796952  5.372583002030478 29  12 29  C 18.627416997969522 29  24 23.62741699796952  24 17  Z " fill-rule="nonzero" fill="rgba(0, 0, 0, 1)" stroke="none" transform="matrix(1 0 0 1 3 1 )" class="fill" />
    <path d="M 24 17  L 21.999999999999996 16.999999999999996  C 21.999999999999996 22.522847498307932  17.52284749830793 26.999999999999993  11.999999999999996 26.999999999999993  C 6.477152501692066 26.999999999999993  1.9999999999999991 22.522847498307932  1.9999999999999991 16.999999999999996  C 1.9999999999999991 11.477152501692064  6.477152501692064 6.999999999999999  11.999999999999996 6.999999999999999  L 18.18 7  L 14.600000000000001 10.59  L 16 12  L 22 6  L 16 0  L 14.600000000000001 1.4100000000000001  L 18.19 5  L 12 5  C 5.372583002030478 5  0 10.372583002030478  0 17  C 0 23.62741699796952  5.372583002030478 29  12 29  C 18.627416997969522 29  24 23.62741699796952  24 17  Z " stroke-width="0" stroke-dasharray="0" stroke="rgba(255, 255, 255, 0)" fill="none" transform="matrix(1 0 0 1 3 1 )" class="stroke" mask="url(#Clip4222)" />
  </g>
</svg>