<?xml version="1.0" encoding="utf-8"?>
<svg version="1.1" xmlns:xlink="http://www.w3.org/1999/xlink" width="44px" height="50px" xmlns="http://www.w3.org/2000/svg">
  <defs>
    <pattern id="BGPattern" patternUnits="userSpaceOnUse" alignment="0 0" imageRepeat="None" />
    <mask fill="white" id="Clip1839">
      <path d="M 0 10.9375  C 0 16.982421875  4.892578125 21.875  10.9375 21.875  C 16.982421875 21.875  21.875 16.982421875  21.875 10.9375  C 21.875 4.892578125  16.982421875 0  10.9375 0  C 4.892578125 0  0 4.892578125  0 10.9375  Z M 6.250000000000001 10.9375  C 6.250000000000001 8.349609375  8.349609375 6.25  10.9375 6.25  C 13.525390625 6.25  15.625 8.349609375  15.625 10.9375  C 15.625 13.525390625  13.525390625 15.625  10.9375 15.625  C 8.349609375 15.625  6.250000000000001 13.525390625  6.250000000000001 10.9375  Z M 43.75 39.0625  C 43.75 33.017578125  38.857421875 28.125  32.8125 28.125  C 26.767578125 28.125  21.875 33.017578125  21.875 39.0625  C 21.875 45.107421875  26.767578125 50  32.8125 50  C 38.857421875 50  43.75 45.107421875  43.75 39.0625  Z M 37.5 39.0625  C 37.5 41.650390625  35.400390625 43.75  32.8125 43.75  C 30.224609375 43.75  28.125 41.650390625  28.125 39.0625  C 28.125 36.474609375  30.224609375 34.375  32.8125 34.375  C 35.400390625 34.375  37.5 36.474609375  37.5 39.0625  Z M 36.396484375 1.015625  C 36.8359375 0.390625  37.548828125 0.01953125  38.310546875 0.01953125  L 41.396484375 0.009765625  C 43.291015625 0  44.41406250000001 2.138671875  43.3203125 3.701171875  L 7.55859375 48.984375  C 7.120996953471803 49.60845790902738  6.406745352804165 49.98016027264015  5.64453125 49.98046875  L 2.3828125 49.990234375  C 0.478515625 49.990234375  -0.634765625 47.8515625  0.458984375 46.298828125  L 36.396484375 1.015625  Z " fill-rule="evenodd" />
    </mask>
  </defs>
  <g>
    <path d="M 0 10.9375  C 0 16.982421875  4.892578125 21.875  10.9375 21.875  C 16.982421875 21.875  21.875 16.982421875  21.875 10.9375  C 21.875 4.892578125  16.982421875 0  10.9375 0  C 4.892578125 0  0 4.892578125  0 10.9375  Z M 6.250000000000001 10.9375  C 6.250000000000001 8.349609375  8.349609375 6.25  10.9375 6.25  C 13.525390625 6.25  15.625 8.349609375  15.625 10.9375  C 15.625 13.525390625  13.525390625 15.625  10.9375 15.625  C 8.349609375 15.625  6.250000000000001 13.525390625  6.250000000000001 10.9375  Z M 43.75 39.0625  C 43.75 33.017578125  38.857421875 28.125  32.8125 28.125  C 26.767578125 28.125  21.875 33.017578125  21.875 39.0625  C 21.875 45.107421875  26.767578125 50  32.8125 50  C 38.857421875 50  43.75 45.107421875  43.75 39.0625  Z M 37.5 39.0625  C 37.5 41.650390625  35.400390625 43.75  32.8125 43.75  C 30.224609375 43.75  28.125 41.650390625  28.125 39.0625  C 28.125 36.474609375  30.224609375 34.375  32.8125 34.375  C 35.400390625 34.375  37.5 36.474609375  37.5 39.0625  Z M 36.396484375 1.015625  C 36.8359375 0.390625  37.548828125 0.01953125  38.310546875 0.01953125  L 41.396484375 0.009765625  C 43.291015625 0  44.41406250000001 2.138671875  43.3203125 3.701171875  L 7.55859375 48.984375  C 7.120996953471803 49.60845790902738  6.406745352804165 49.98016027264015  5.64453125 49.98046875  L 2.3828125 49.990234375  C 0.478515625 49.990234375  -0.634765625 47.8515625  0.458984375 46.298828125  L 36.396484375 1.015625  Z " fill-rule="nonzero" fill="rgba(0, 0, 0, 1)" stroke="none" class="fill" />
    <path d="M 0 10.9375  C 0 16.982421875  4.892578125 21.875  10.9375 21.875  C 16.982421875 21.875  21.875 16.982421875  21.875 10.9375  C 21.875 4.892578125  16.982421875 0  10.9375 0  C 4.892578125 0  0 4.892578125  0 10.9375  Z " stroke-width="0" stroke-dasharray="0" stroke="rgba(255, 255, 255, 0)" fill="none" class="stroke" mask="url(#Clip1839)" />
    <path d="M 6.250000000000001 10.9375  C 6.250000000000001 8.349609375  8.349609375 6.25  10.9375 6.25  C 13.525390625 6.25  15.625 8.349609375  15.625 10.9375  C 15.625 13.525390625  13.525390625 15.625  10.9375 15.625  C 8.349609375 15.625  6.250000000000001 13.525390625  6.250000000000001 10.9375  Z " stroke-width="0" stroke-dasharray="0" stroke="rgba(255, 255, 255, 0)" fill="none" class="stroke" mask="url(#Clip1839)" />
    <path d="M 43.75 39.0625  C 43.75 33.017578125  38.857421875 28.125  32.8125 28.125  C 26.767578125 28.125  21.875 33.017578125  21.875 39.0625  C 21.875 45.107421875  26.767578125 50  32.8125 50  C 38.857421875 50  43.75 45.107421875  43.75 39.0625  Z " stroke-width="0" stroke-dasharray="0" stroke="rgba(255, 255, 255, 0)" fill="none" class="stroke" mask="url(#Clip1839)" />
    <path d="M 37.5 39.0625  C 37.5 41.650390625  35.400390625 43.75  32.8125 43.75  C 30.224609375 43.75  28.125 41.650390625  28.125 39.0625  C 28.125 36.474609375  30.224609375 34.375  32.8125 34.375  C 35.400390625 34.375  37.5 36.474609375  37.5 39.0625  Z " stroke-width="0" stroke-dasharray="0" stroke="rgba(255, 255, 255, 0)" fill="none" class="stroke" mask="url(#Clip1839)" />
    <path d="M 36.396484375 1.015625  C 36.8359375 0.390625  37.548828125 0.01953125  38.310546875 0.01953125  L 41.396484375 0.009765625  C 43.291015625 0  44.41406250000001 2.138671875  43.3203125 3.701171875  L 7.55859375 48.984375  C 7.120996953471803 49.60845790902738  6.406745352804165 49.98016027264015  5.64453125 49.98046875  L 2.3828125 49.990234375  C 0.478515625 49.990234375  -0.634765625 47.8515625  0.458984375 46.298828125  L 36.396484375 1.015625  Z " stroke-width="0" stroke-dasharray="0" stroke="rgba(255, 255, 255, 0)" fill="none" class="stroke" mask="url(#Clip1839)" />
  </g>
</svg>