<?xml version="1.0" encoding="utf-8"?>
<svg version="1.1" xmlns:xlink="http://www.w3.org/1999/xlink" width="48px" height="48px" xmlns="http://www.w3.org/2000/svg">
  <defs>
    <pattern id="BGPattern" patternUnits="userSpaceOnUse" alignment="0 0" imageRepeat="None" />
    <mask fill="white" id="Clip7031">
      <path d="M 48 0  L 0 0  L 0 48  L 48 48  L 48 0  Z M 7.446 9.89  L 7.446 6.222000000000001  L 17.445999999999998 6.222000000000001  L 17.445999999999998 9.89  L 15 9.89  L 15 22.444000000000003  L 17.445999999999998 22.444000000000003  L 17.445999999999998 26  L 7.445999999999998 26  L 7.445999999999998 22.444000000000003  L 11 22.444000000000003  L 11 9.89  L 7.446 9.89  Z M 29 19.000000000000004  L 29 6.222000000000001  L 34 6.222000000000001  L 34 19.222  C 34 20.446  33.89 21.444000000000003  33.556 22.334000000000003  C 33.221999999999994 23.222000000000005  32.775999999999996 23.888  32.11 24.554000000000002  C 31.555999999999997 25.112000000000002  30.778 25.668000000000003  29.890000000000004 25.89  C 28.970224733032907 26.255499256966722  27.989733683787808 26.444133521112143  27 26.445999999999998  C 25.444000000000003 26.445999999999998  24.112000000000002 26.112000000000002  23.112000000000002 25.555999999999997  C 22.14347190928769 25.00543034539528  21.277940112126007 24.290808314275075  20.554000000000002 23.444000000000003  L 23.334000000000003 20.334000000000003  C 23.888 21.002000000000002  24.444000000000003 21.444000000000003  25 21.778000000000002  C 25.554000000000002 22.112000000000002  26.222 22.334000000000003  26.890000000000004 22.334000000000003  C 27.668 22.334000000000003  28.332 22.112000000000002  28.89 21.556000000000004  C 29.332000000000004 21.000000000000004  29.556000000000004 20.222000000000005  29 19.000000000000004  Z M 4.443999999999999 42  L 4.444 39  L 22.444 39  L 22.444 42  L 4.443999999999999 42  Z " fill-rule="evenodd" />
    </mask>
  </defs>
  <g>
    <path d="M 48 0  L 0 0  L 0 48  L 48 48  L 48 0  Z M 7.446 9.89  L 7.446 6.222000000000001  L 17.445999999999998 6.222000000000001  L 17.445999999999998 9.89  L 15 9.89  L 15 22.444000000000003  L 17.445999999999998 22.444000000000003  L 17.445999999999998 26  L 7.445999999999998 26  L 7.445999999999998 22.444000000000003  L 11 22.444000000000003  L 11 9.89  L 7.446 9.89  Z M 29 19.000000000000004  L 29 6.222000000000001  L 34 6.222000000000001  L 34 19.222  C 34 20.446  33.89 21.444000000000003  33.556 22.334000000000003  C 33.221999999999994 23.222000000000005  32.775999999999996 23.888  32.11 24.554000000000002  C 31.555999999999997 25.112000000000002  30.778 25.668000000000003  29.890000000000004 25.89  C 28.970224733032907 26.255499256966722  27.989733683787808 26.444133521112143  27 26.445999999999998  C 25.444000000000003 26.445999999999998  24.112000000000002 26.112000000000002  23.112000000000002 25.555999999999997  C 22.14347190928769 25.00543034539528  21.277940112126007 24.290808314275075  20.554000000000002 23.444000000000003  L 23.334000000000003 20.334000000000003  C 23.888 21.002000000000002  24.444000000000003 21.444000000000003  25 21.778000000000002  C 25.554000000000002 22.112000000000002  26.222 22.334000000000003  26.890000000000004 22.334000000000003  C 27.668 22.334000000000003  28.332 22.112000000000002  28.89 21.556000000000004  C 29.332000000000004 21.000000000000004  29.556000000000004 20.222000000000005  29 19.000000000000004  Z M 4.443999999999999 42  L 4.444 39  L 22.444 39  L 22.444 42  L 4.443999999999999 42  Z " fill-rule="nonzero" fill="rgba(0, 0, 0, 1)" stroke="none" class="fill" />
    <path d="M 48 0  L 0 0  L 0 48  L 48 48  L 48 0  Z " stroke-width="0" stroke-dasharray="0" stroke="rgba(255, 255, 255, 0)" fill="none" class="stroke" mask="url(#Clip7031)" />
    <path d="M 7.446 9.89  L 7.446 6.222000000000001  L 17.445999999999998 6.222000000000001  L 17.445999999999998 9.89  L 15 9.89  L 15 22.444000000000003  L 17.445999999999998 22.444000000000003  L 17.445999999999998 26  L 7.445999999999998 26  L 7.445999999999998 22.444000000000003  L 11 22.444000000000003  L 11 9.89  L 7.446 9.89  Z " stroke-width="0" stroke-dasharray="0" stroke="rgba(255, 255, 255, 0)" fill="none" class="stroke" mask="url(#Clip7031)" />
    <path d="M 29 19.000000000000004  L 29 6.222000000000001  L 34 6.222000000000001  L 34 19.222  C 34 20.446  33.89 21.444000000000003  33.556 22.334000000000003  C 33.221999999999994 23.222000000000005  32.775999999999996 23.888  32.11 24.554000000000002  C 31.555999999999997 25.112000000000002  30.778 25.668000000000003  29.890000000000004 25.89  C 28.970224733032907 26.255499256966722  27.989733683787808 26.444133521112143  27 26.445999999999998  C 25.444000000000003 26.445999999999998  24.112000000000002 26.112000000000002  23.112000000000002 25.555999999999997  C 22.14347190928769 25.00543034539528  21.277940112126007 24.290808314275075  20.554000000000002 23.444000000000003  L 23.334000000000003 20.334000000000003  C 23.888 21.002000000000002  24.444000000000003 21.444000000000003  25 21.778000000000002  C 25.554000000000002 22.112000000000002  26.222 22.334000000000003  26.890000000000004 22.334000000000003  C 27.668 22.334000000000003  28.332 22.112000000000002  28.89 21.556000000000004  C 29.332000000000004 21.000000000000004  29.556000000000004 20.222000000000005  29 19.000000000000004  Z " stroke-width="0" stroke-dasharray="0" stroke="rgba(255, 255, 255, 0)" fill="none" class="stroke" mask="url(#Clip7031)" />
    <path d="M 4.443999999999999 42  L 4.444 39  L 22.444 39  L 22.444 42  L 4.443999999999999 42  Z " stroke-width="0" stroke-dasharray="0" stroke="rgba(255, 255, 255, 0)" fill="none" class="stroke" mask="url(#Clip7031)" />
  </g>
</svg>