<?xml version="1.0" encoding="utf-8"?>
<svg version="1.1" xmlns:xlink="http://www.w3.org/1999/xlink" width="50px" height="50px" xmlns="http://www.w3.org/2000/svg">
  <defs>
    <pattern id="BGPattern" patternUnits="userSpaceOnUse" alignment="0 0" imageRepeat="None" />
    <mask fill="white" id="Clip2003">
      <path d="M 3.125 43  L 3.125 50  L 46.875 50  L 46.875 43  L 3.125 43  Z M 50 34.375  C 50 29.197265625  45.802734375 25  40.625 25  L 34.125 25  C 32.537109375 25  31.25 23.712890625  31.25 22.125  L 31.25 21.201171875  C 31.25 18.5283203125  32.1171875 15.9853515625  33.345703125 13.611328125  C 34.2353515625 11.8916015625  34.60546875 9.8623046875  34.2294921875 7.710937499999999  C 33.568359375 3.923828125  30.472656250000004 0.806640625  26.6845703125 0.1474609375  C 20.763671875 -0.8828124999999999  15.625 3.6455078125  15.625 9.375  C 15.625 10.7578125  15.9296875 12.064453125  16.4736328125 13.240234375000002  C 17.775390625 16.0576171875  18.75 19.013671875  18.75 22.1181640625  L 18.75 22.125  C 18.75 23.712890625  17.462890625 25  15.875 25  L 9.375 25  C 4.197265625 25  0 29.197265625  0 34.375  L 0 37.5  C 0 39.2255859375  1.3994140625 40.625  3.125 40  L 46.875 40  C 48.6005859375 40.625  50 39.2255859375  50 37.5  L 50 34.375  Z " fill-rule="evenodd" />
    </mask>
  </defs>
  <g>
    <path d="M 3.125 43  L 3.125 50  L 46.875 50  L 46.875 43  L 3.125 43  Z M 50 34.375  C 50 29.197265625  45.802734375 25  40.625 25  L 34.125 25  C 32.537109375 25  31.25 23.712890625  31.25 22.125  L 31.25 21.201171875  C 31.25 18.5283203125  32.1171875 15.9853515625  33.345703125 13.611328125  C 34.2353515625 11.8916015625  34.60546875 9.8623046875  34.2294921875 7.710937499999999  C 33.568359375 3.923828125  30.472656250000004 0.806640625  26.6845703125 0.1474609375  C 20.763671875 -0.8828124999999999  15.625 3.6455078125  15.625 9.375  C 15.625 10.7578125  15.9296875 12.064453125  16.4736328125 13.240234375000002  C 17.775390625 16.0576171875  18.75 19.013671875  18.75 22.1181640625  L 18.75 22.125  C 18.75 23.712890625  17.462890625 25  15.875 25  L 9.375 25  C 4.197265625 25  0 29.197265625  0 34.375  L 0 37.5  C 0 39.2255859375  1.3994140625 40.625  3.125 40  L 46.875 40  C 48.6005859375 40.625  50 39.2255859375  50 37.5  L 50 34.375  Z " fill-rule="nonzero" fill="rgba(0, 0, 0, 1)" stroke="none" class="fill" />
    <path d="M 3.125 43  L 3.125 50  L 46.875 50  L 46.875 43  L 3.125 43  Z " stroke-width="0" stroke-dasharray="0" stroke="rgba(255, 255, 255, 0)" fill="none" class="stroke" mask="url(#Clip2003)" />
    <path d="M 50 34.375  C 50 29.197265625  45.802734375 25  40.625 25  L 34.125 25  C 32.537109375 25  31.25 23.712890625  31.25 22.125  L 31.25 21.201171875  C 31.25 18.5283203125  32.1171875 15.9853515625  33.345703125 13.611328125  C 34.2353515625 11.8916015625  34.60546875 9.8623046875  34.2294921875 7.710937499999999  C 33.568359375 3.923828125  30.472656250000004 0.806640625  26.6845703125 0.1474609375  C 20.763671875 -0.8828124999999999  15.625 3.6455078125  15.625 9.375  C 15.625 10.7578125  15.9296875 12.064453125  16.4736328125 13.240234375000002  C 17.775390625 16.0576171875  18.75 19.013671875  18.75 22.1181640625  L 18.75 22.125  C 18.75 23.712890625  17.462890625 25  15.875 25  L 9.375 25  C 4.197265625 25  0 29.197265625  0 34.375  L 0 37.5  C 0 39.2255859375  1.3994140625 40.625  3.125 40  L 46.875 40  C 48.6005859375 40.625  50 39.2255859375  50 37.5  L 50 34.375  Z " stroke-width="0" stroke-dasharray="0" stroke="rgba(255, 255, 255, 0)" fill="none" class="stroke" mask="url(#Clip2003)" />
  </g>
</svg>