<?xml version="1.0" encoding="utf-8"?>
<svg version="1.1" xmlns:xlink="http://www.w3.org/1999/xlink" width="50px" height="51px" xmlns="http://www.w3.org/2000/svg">
  <defs>
    <pattern id="BGPattern" patternUnits="userSpaceOnUse" alignment="0 0" imageRepeat="None" />
    <mask fill="white" id="Clip2683">
      <path d="M 49.9 14.381250000000003  C 50.293749999999996 12.03125  49.50625 9.6125  47.81875 7.918749999999998  L 41.1625 1.2687500000000007  C 40.35 0.45625000000000066  39.2625 0  38.112500000000004 0  C 36.962500000000006 0  35.87500000000001 0.45000000000000107  35.06250000000001 1.2687500000000007  L 27.893749999999994 8.425  C 27.081249999999997 9.2375  26.625 10.33125  26.625 11.48125  C 26.625 12.6375  27.075000000000003 13.71875  27.893749999999994 14.537499999999996  L 33.49375 20.14375  C 32.21802263263199 23.1161620264862  30.38503027913017 25.816855621402652  28.09375 28.099999999999998  C 25.799999999999994 30.406249999999993  23.11875 32.224999999999994  20.14375 33.512499999999996  L 14.543750000000003 27.906249999999993  C 13.731250000000003 27.093749999999993  12.643750000000004 26.637499999999996  11.493750000000002 26.637499999999996  C 10.347873751921789 26.63326013069963  9.248549311589787 27.090561076165613  8.443750000000001 27.906249999999993  L 1.2687500000000007 35.0625  C 0.45625000000000077 35.875  0 36.96875  0 38.11875  C 0 39.275  0.45000000000000107 40.356249999999996  1.2687500000000007 41.175  L 7.918750000000001 47.824999999999996  C 9.306250000000002 49.2125  11.21875 50.006249999999994  13.181250000000002 50.006249999999994  C 13.587500000000002 50.006249999999994  13.981250000000003 49.974999999999994  14.381250000000001 49.90624999999999  C 22.65625 48.543749999999996  30.868750000000006 44.137499999999996  37.5 37.51249999999999  C 44.125 30.874999999999996  48.525 22.6625  49.9 14.381250000000003  Z M 44.6375 11.087499999999999  C 45.3125 11.7625  45.625 12.712499999999999  45.46875 13.6375  C 44.25 21.00625  40.2875 28.356250000000003  34.31875 34.325  C 28.35 40.29375  21.00625 44.25625  13.637500000000003 45.475  C 12.712500000000002 45.63125  11.762500000000003 45.31875  11.087500000000002 44.65  L 4.55625 38.11875  L 11.48125 31.187500000000004  L 18.96875 38.6875  L 19.025 38.74375  L 20.375 38.24375  C 28.65955526220887 35.19780658502288  35.18820600338929 28.666870701825943  38.23125 20.381249999999998  L 38.73125 19.031249999999996  L 31.181250000000006 11.487499999999997  L 38.10625 4.556249999999997  L 44.6375 11.087499999999999  Z " fill-rule="evenodd" />
    </mask>
  </defs>
  <g>
    <path d="M 49.9 14.381250000000003  C 50.293749999999996 12.03125  49.50625 9.6125  47.81875 7.918749999999998  L 41.1625 1.2687500000000007  C 40.35 0.45625000000000066  39.2625 0  38.112500000000004 0  C 36.962500000000006 0  35.87500000000001 0.45000000000000107  35.06250000000001 1.2687500000000007  L 27.893749999999994 8.425  C 27.081249999999997 9.2375  26.625 10.33125  26.625 11.48125  C 26.625 12.6375  27.075000000000003 13.71875  27.893749999999994 14.537499999999996  L 33.49375 20.14375  C 32.21802263263199 23.1161620264862  30.38503027913017 25.816855621402652  28.09375 28.099999999999998  C 25.799999999999994 30.406249999999993  23.11875 32.224999999999994  20.14375 33.512499999999996  L 14.543750000000003 27.906249999999993  C 13.731250000000003 27.093749999999993  12.643750000000004 26.637499999999996  11.493750000000002 26.637499999999996  C 10.347873751921789 26.63326013069963  9.248549311589787 27.090561076165613  8.443750000000001 27.906249999999993  L 1.2687500000000007 35.0625  C 0.45625000000000077 35.875  0 36.96875  0 38.11875  C 0 39.275  0.45000000000000107 40.356249999999996  1.2687500000000007 41.175  L 7.918750000000001 47.824999999999996  C 9.306250000000002 49.2125  11.21875 50.006249999999994  13.181250000000002 50.006249999999994  C 13.587500000000002 50.006249999999994  13.981250000000003 49.974999999999994  14.381250000000001 49.90624999999999  C 22.65625 48.543749999999996  30.868750000000006 44.137499999999996  37.5 37.51249999999999  C 44.125 30.874999999999996  48.525 22.6625  49.9 14.381250000000003  Z M 44.6375 11.087499999999999  C 45.3125 11.7625  45.625 12.712499999999999  45.46875 13.6375  C 44.25 21.00625  40.2875 28.356250000000003  34.31875 34.325  C 28.35 40.29375  21.00625 44.25625  13.637500000000003 45.475  C 12.712500000000002 45.63125  11.762500000000003 45.31875  11.087500000000002 44.65  L 4.55625 38.11875  L 11.48125 31.187500000000004  L 18.96875 38.6875  L 19.025 38.74375  L 20.375 38.24375  C 28.65955526220887 35.19780658502288  35.18820600338929 28.666870701825943  38.23125 20.381249999999998  L 38.73125 19.031249999999996  L 31.181250000000006 11.487499999999997  L 38.10625 4.556249999999997  L 44.6375 11.087499999999999  Z " fill-rule="nonzero" fill="rgba(0, 0, 0, 1)" stroke="none" class="fill" />
    <path d="M 49.9 14.381250000000003  C 50.293749999999996 12.03125  49.50625 9.6125  47.81875 7.918749999999998  L 41.1625 1.2687500000000007  C 40.35 0.45625000000000066  39.2625 0  38.112500000000004 0  C 36.962500000000006 0  35.87500000000001 0.45000000000000107  35.06250000000001 1.2687500000000007  L 27.893749999999994 8.425  C 27.081249999999997 9.2375  26.625 10.33125  26.625 11.48125  C 26.625 12.6375  27.075000000000003 13.71875  27.893749999999994 14.537499999999996  L 33.49375 20.14375  C 32.21802263263199 23.1161620264862  30.38503027913017 25.816855621402652  28.09375 28.099999999999998  C 25.799999999999994 30.406249999999993  23.11875 32.224999999999994  20.14375 33.512499999999996  L 14.543750000000003 27.906249999999993  C 13.731250000000003 27.093749999999993  12.643750000000004 26.637499999999996  11.493750000000002 26.637499999999996  C 10.347873751921789 26.63326013069963  9.248549311589787 27.090561076165613  8.443750000000001 27.906249999999993  L 1.2687500000000007 35.0625  C 0.45625000000000077 35.875  0 36.96875  0 38.11875  C 0 39.275  0.45000000000000107 40.356249999999996  1.2687500000000007 41.175  L 7.918750000000001 47.824999999999996  C 9.306250000000002 49.2125  11.21875 50.006249999999994  13.181250000000002 50.006249999999994  C 13.587500000000002 50.006249999999994  13.981250000000003 49.974999999999994  14.381250000000001 49.90624999999999  C 22.65625 48.543749999999996  30.868750000000006 44.137499999999996  37.5 37.51249999999999  C 44.125 30.874999999999996  48.525 22.6625  49.9 14.381250000000003  Z " stroke-width="0" stroke-dasharray="0" stroke="rgba(255, 255, 255, 0)" fill="none" class="stroke" mask="url(#Clip2683)" />
    <path d="M 44.6375 11.087499999999999  C 45.3125 11.7625  45.625 12.712499999999999  45.46875 13.6375  C 44.25 21.00625  40.2875 28.356250000000003  34.31875 34.325  C 28.35 40.29375  21.00625 44.25625  13.637500000000003 45.475  C 12.712500000000002 45.63125  11.762500000000003 45.31875  11.087500000000002 44.65  L 4.55625 38.11875  L 11.48125 31.187500000000004  L 18.96875 38.6875  L 19.025 38.74375  L 20.375 38.24375  C 28.65955526220887 35.19780658502288  35.18820600338929 28.666870701825943  38.23125 20.381249999999998  L 38.73125 19.031249999999996  L 31.181250000000006 11.487499999999997  L 38.10625 4.556249999999997  L 44.6375 11.087499999999999  Z " stroke-width="0" stroke-dasharray="0" stroke="rgba(255, 255, 255, 0)" fill="none" class="stroke" mask="url(#Clip2683)" />
  </g>
</svg>