<?xml version="1.0" encoding="utf-8"?>
<svg version="1.1" xmlns:xlink="http://www.w3.org/1999/xlink" width="24px" height="17px" xmlns="http://www.w3.org/2000/svg">
  <defs>
    <pattern id="BGPattern" patternUnits="userSpaceOnUse" alignment="0 0" imageRepeat="None" />
    <mask fill="white" id="Clip5654">
      <path d="M 20.715 0.5  L 3.284689364921876 0.49999998391764144  C 1.6278351154294954 0.49999998391764144  0.2846893649218758 1.8431457344252618  0.2846893649218758 3.4999999839176414  C 0.2846893649218758 3.5906394918894273  0.28879712404265445 3.6812324353303154  0.29700000000000004 3.7714999999999996  L 1.2525 14.271500000000003  C 1.3928830161600358 15.816329509541092  2.6878052261042433 16.999385009233965  4.239 17  L 19.761000000000003 17  C 21.312194773895758 16.999385009233965  22.607116983839965 15.816329509541092  22.747500000000002 14.271500000000003  L 23.703000000000003 3.7715000000000014  C 23.711202875957348 3.681232435330317  23.715310635078126 3.5906394918894247  23.715310635078126 3.4999999839176406  C 23.715310635078126 1.84314573442526  22.37216488457051 0.49999998391764056  20.715 0.5  Z M 3.285 2  L 20.715087352181104 2  C 21.543514476927296 1.9999999974565323  22.215087352181104 2.6715728727103425  22.215087352181104 3.4999999974565323  C 22.215087352181104 3.5450685970232128  22.213056174037423 3.5901142993918995  22.209000000000003 3.635  L 21.253500000000003 14.134999999999998  C 21.1836987959071 14.907425331068193  20.53657241224016 15.499269561356556  19.761000000000003 15.5  L 4.239 15.5  C 3.4634275877598446 15.499269561356556  2.8163012040928983 14.907425331068193  2.7465 14.134999999999998  L 1.791 3.635  C 1.7869438259625783 3.5901142993918995  1.7849126478188955 3.5450685970232128  1.7849126478188955 3.4999999974565323  C 1.7849126478188955 2.6715728727103425  2.4564855230727054 1.9999999974565323  3.285 2  Z " fill-rule="evenodd" />
    </mask>
  </defs>
  <g transform="matrix(1 0 0 1 0 -3 )">
    <path d="M 20.715 0.5  L 3.284689364921876 0.49999998391764144  C 1.6278351154294954 0.49999998391764144  0.2846893649218758 1.8431457344252618  0.2846893649218758 3.4999999839176414  C 0.2846893649218758 3.5906394918894273  0.28879712404265445 3.6812324353303154  0.29700000000000004 3.7714999999999996  L 1.2525 14.271500000000003  C 1.3928830161600358 15.816329509541092  2.6878052261042433 16.999385009233965  4.239 17  L 19.761000000000003 17  C 21.312194773895758 16.999385009233965  22.607116983839965 15.816329509541092  22.747500000000002 14.271500000000003  L 23.703000000000003 3.7715000000000014  C 23.711202875957348 3.681232435330317  23.715310635078126 3.5906394918894247  23.715310635078126 3.4999999839176406  C 23.715310635078126 1.84314573442526  22.37216488457051 0.49999998391764056  20.715 0.5  Z M 3.285 2  L 20.715087352181104 2  C 21.543514476927296 1.9999999974565323  22.215087352181104 2.6715728727103425  22.215087352181104 3.4999999974565323  C 22.215087352181104 3.5450685970232128  22.213056174037423 3.5901142993918995  22.209000000000003 3.635  L 21.253500000000003 14.134999999999998  C 21.1836987959071 14.907425331068193  20.53657241224016 15.499269561356556  19.761000000000003 15.5  L 4.239 15.5  C 3.4634275877598446 15.499269561356556  2.8163012040928983 14.907425331068193  2.7465 14.134999999999998  L 1.791 3.635  C 1.7869438259625783 3.5901142993918995  1.7849126478188955 3.5450685970232128  1.7849126478188955 3.4999999974565323  C 1.7849126478188955 2.6715728727103425  2.4564855230727054 1.9999999974565323  3.285 2  Z " fill-rule="nonzero" fill="rgba(0, 0, 0, 1)" stroke="none" transform="matrix(1 0 0 1 0 3 )" class="fill" />
    <path d="M 20.715 0.5  L 3.284689364921876 0.49999998391764144  C 1.6278351154294954 0.49999998391764144  0.2846893649218758 1.8431457344252618  0.2846893649218758 3.4999999839176414  C 0.2846893649218758 3.5906394918894273  0.28879712404265445 3.6812324353303154  0.29700000000000004 3.7714999999999996  L 1.2525 14.271500000000003  C 1.3928830161600358 15.816329509541092  2.6878052261042433 16.999385009233965  4.239 17  L 19.761000000000003 17  C 21.312194773895758 16.999385009233965  22.607116983839965 15.816329509541092  22.747500000000002 14.271500000000003  L 23.703000000000003 3.7715000000000014  C 23.711202875957348 3.681232435330317  23.715310635078126 3.5906394918894247  23.715310635078126 3.4999999839176406  C 23.715310635078126 1.84314573442526  22.37216488457051 0.49999998391764056  20.715 0.5  Z " stroke-width="0" stroke-dasharray="0" stroke="rgba(255, 255, 255, 0)" fill="none" transform="matrix(1 0 0 1 0 3 )" class="stroke" mask="url(#Clip5654)" />
    <path d="M 3.285 2  L 20.715087352181104 2  C 21.543514476927296 1.9999999974565323  22.215087352181104 2.6715728727103425  22.215087352181104 3.4999999974565323  C 22.215087352181104 3.5450685970232128  22.213056174037423 3.5901142993918995  22.209000000000003 3.635  L 21.253500000000003 14.134999999999998  C 21.1836987959071 14.907425331068193  20.53657241224016 15.499269561356556  19.761000000000003 15.5  L 4.239 15.5  C 3.4634275877598446 15.499269561356556  2.8163012040928983 14.907425331068193  2.7465 14.134999999999998  L 1.791 3.635  C 1.7869438259625783 3.5901142993918995  1.7849126478188955 3.5450685970232128  1.7849126478188955 3.4999999974565323  C 1.7849126478188955 2.6715728727103425  2.4564855230727054 1.9999999974565323  3.285 2  Z " stroke-width="0" stroke-dasharray="0" stroke="rgba(255, 255, 255, 0)" fill="none" transform="matrix(1 0 0 1 0 3 )" class="stroke" mask="url(#Clip5654)" />
  </g>
</svg>