<?xml version="1.0" encoding="utf-8"?>
<svg version="1.1" xmlns:xlink="http://www.w3.org/1999/xlink" width="57px" height="53px" xmlns="http://www.w3.org/2000/svg">
  <defs>
    <pattern id="BGPattern" patternUnits="userSpaceOnUse" alignment="0 0" imageRepeat="None" />
    <mask fill="white" id="Clip2492">
      <path d="M 51.8125 42.0625  C 57.31875000000001 34.5875  57.462500000000006 24.25625  51.875 16.5625  C 48.86875 12.4375  44.66875 9.68125  40.0625 8.4375  L 40.0625 8.44375  C 38.99375 7.2562500000000005  37.7875 6.1625  36.4375 5.1875  C 26.20625 -2.25  11.84375 0.018749999999999822  4.375 10.25  C -1.6437499999999998 18.5625  -1.3875000000000002 29.74375  4.75 37.6875  L 4.800000000000001 45.975  C 4.800000000000001 46.175000000000004  4.831250000000001 46.375  4.893750000000001 46.5625  C 5.225000000000001 47.61875  6.350000000000001 48.2  7.400000000000001 47.86875  L 15.312499999999998 45.375  C 17.40625 46.11875  19.56875 46.54375  21.71875 46.6625  L 21.6875 46.6875  C 27.25625 50.74375  34.55625 51.9625  41.25 49.75  L 49.19375 52.3375  C 49.393750000000004 52.4  49.6 52.4375  49.8125 52.4375  C 50.91875 52.4375  51.8125 51.54375  51.8125 50.4375  L 51.8125 42.0625  Z M 37.9375 34.5625  C 32.93125 41.43125  23.96875 43.96875  16.1875 40.9375  L 15.437499999999998 40.625  L 9.25 42.5625  L 9.1875 36.0625  L 8.6875 35.5  C 3.4000000000000004 29.049999999999997  3.05 19.75625  8 12.9375  C 14.024999999999999 4.675000000000001  25.575 2.8499999999999996  33.8125 8.8125  C 42.075 14.818750000000001  43.90625 26.35  37.9375 34.5625  Z M 48.25 19.25  C 52.7875 25.475  52.53125 33.95  47.75 39.875  L 47.25 40.5  L 47.3125 47  L 41.1875 44.9375  L 40.4375 45.25  C 36.9375 46.55  33.20625 46.65625  29.749999999999996 45.6875  L 29.737499999999997 45.68125  C 34.35625 44.2625  38.54375 41.3875  41.5625 37.25  C 46.3375 30.66875  47.1125 22.4  44.3375 15.350000000000003  L 44.375 15.375000000000002  C 45.8125 16.40625  47.13125 17.69375  48.25 19.25  Z " fill-rule="evenodd" />
    </mask>
  </defs>
  <g>
    <path d="M 51.8125 42.0625  C 57.31875000000001 34.5875  57.462500000000006 24.25625  51.875 16.5625  C 48.86875 12.4375  44.66875 9.68125  40.0625 8.4375  L 40.0625 8.44375  C 38.99375 7.2562500000000005  37.7875 6.1625  36.4375 5.1875  C 26.20625 -2.25  11.84375 0.018749999999999822  4.375 10.25  C -1.6437499999999998 18.5625  -1.3875000000000002 29.74375  4.75 37.6875  L 4.800000000000001 45.975  C 4.800000000000001 46.175000000000004  4.831250000000001 46.375  4.893750000000001 46.5625  C 5.225000000000001 47.61875  6.350000000000001 48.2  7.400000000000001 47.86875  L 15.312499999999998 45.375  C 17.40625 46.11875  19.56875 46.54375  21.71875 46.6625  L 21.6875 46.6875  C 27.25625 50.74375  34.55625 51.9625  41.25 49.75  L 49.19375 52.3375  C 49.393750000000004 52.4  49.6 52.4375  49.8125 52.4375  C 50.91875 52.4375  51.8125 51.54375  51.8125 50.4375  L 51.8125 42.0625  Z M 37.9375 34.5625  C 32.93125 41.43125  23.96875 43.96875  16.1875 40.9375  L 15.437499999999998 40.625  L 9.25 42.5625  L 9.1875 36.0625  L 8.6875 35.5  C 3.4000000000000004 29.049999999999997  3.05 19.75625  8 12.9375  C 14.024999999999999 4.675000000000001  25.575 2.8499999999999996  33.8125 8.8125  C 42.075 14.818750000000001  43.90625 26.35  37.9375 34.5625  Z M 48.25 19.25  C 52.7875 25.475  52.53125 33.95  47.75 39.875  L 47.25 40.5  L 47.3125 47  L 41.1875 44.9375  L 40.4375 45.25  C 36.9375 46.55  33.20625 46.65625  29.749999999999996 45.6875  L 29.737499999999997 45.68125  C 34.35625 44.2625  38.54375 41.3875  41.5625 37.25  C 46.3375 30.66875  47.1125 22.4  44.3375 15.350000000000003  L 44.375 15.375000000000002  C 45.8125 16.40625  47.13125 17.69375  48.25 19.25  Z " fill-rule="nonzero" fill="rgba(0, 0, 0, 1)" stroke="none" class="fill" />
    <path d="M 51.8125 42.0625  C 57.31875000000001 34.5875  57.462500000000006 24.25625  51.875 16.5625  C 48.86875 12.4375  44.66875 9.68125  40.0625 8.4375  L 40.0625 8.44375  C 38.99375 7.2562500000000005  37.7875 6.1625  36.4375 5.1875  C 26.20625 -2.25  11.84375 0.018749999999999822  4.375 10.25  C -1.6437499999999998 18.5625  -1.3875000000000002 29.74375  4.75 37.6875  L 4.800000000000001 45.975  C 4.800000000000001 46.175000000000004  4.831250000000001 46.375  4.893750000000001 46.5625  C 5.225000000000001 47.61875  6.350000000000001 48.2  7.400000000000001 47.86875  L 15.312499999999998 45.375  C 17.40625 46.11875  19.56875 46.54375  21.71875 46.6625  L 21.6875 46.6875  C 27.25625 50.74375  34.55625 51.9625  41.25 49.75  L 49.19375 52.3375  C 49.393750000000004 52.4  49.6 52.4375  49.8125 52.4375  C 50.91875 52.4375  51.8125 51.54375  51.8125 50.4375  L 51.8125 42.0625  Z " stroke-width="0" stroke-dasharray="0" stroke="rgba(255, 255, 255, 0)" fill="none" class="stroke" mask="url(#Clip2492)" />
    <path d="M 37.9375 34.5625  C 32.93125 41.43125  23.96875 43.96875  16.1875 40.9375  L 15.437499999999998 40.625  L 9.25 42.5625  L 9.1875 36.0625  L 8.6875 35.5  C 3.4000000000000004 29.049999999999997  3.05 19.75625  8 12.9375  C 14.024999999999999 4.675000000000001  25.575 2.8499999999999996  33.8125 8.8125  C 42.075 14.818750000000001  43.90625 26.35  37.9375 34.5625  Z " stroke-width="0" stroke-dasharray="0" stroke="rgba(255, 255, 255, 0)" fill="none" class="stroke" mask="url(#Clip2492)" />
    <path d="M 48.25 19.25  C 52.7875 25.475  52.53125 33.95  47.75 39.875  L 47.25 40.5  L 47.3125 47  L 41.1875 44.9375  L 40.4375 45.25  C 36.9375 46.55  33.20625 46.65625  29.749999999999996 45.6875  L 29.737499999999997 45.68125  C 34.35625 44.2625  38.54375 41.3875  41.5625 37.25  C 46.3375 30.66875  47.1125 22.4  44.3375 15.350000000000003  L 44.375 15.375000000000002  C 45.8125 16.40625  47.13125 17.69375  48.25 19.25  Z " stroke-width="0" stroke-dasharray="0" stroke="rgba(255, 255, 255, 0)" fill="none" class="stroke" mask="url(#Clip2492)" />
  </g>
</svg>