<?xml version="1.0" encoding="utf-8"?>
<svg version="1.1" xmlns:xlink="http://www.w3.org/1999/xlink" width="42px" height="42px" xmlns="http://www.w3.org/2000/svg">
  <defs>
    <pattern id="BGPattern" patternUnits="userSpaceOnUse" alignment="0 0" imageRepeat="None" />
    <mask fill="white" id="Clip2882">
      <path d="M 1 1  L 1 41  L 41 41  L 41 1  L 1 1  Z M 18.3875 21  L 10.743749999999995 11.881250000000001  C 10.66734647005789 11.791403036175918  10.625393714703451 11.677308055662163  10.625393714703451 11.559367493106187  C 10.625393714703451 11.28495100803401  10.847852229631275 11.062492493106188  11.12226871470345 11.062492493106188  C 11.123179148293723 11.062492493106188  11.124089580164757 11.062494995413577  11.125 11.0625  L 14.806249999999999 11.0625  C 15.099999999999998 11.0625  15.38125 11.193750000000001  15.574999999999998 11.41875  L 21 17.8875  L 26.425 11.41875  C 26.612499999999997 11.193749999999998  26.893749999999997 11.0625  27.193749999999994 11.0625  L 30.875000000000004 11.0625  C 31.299999999999997 11.0625  31.531250000000004 11.556249999999999  31.25625 11.881250000000001  L 23.612499999999997 21  L 31.256249999999994 30.11875  C 31.531249999999993 30.44375  31.299999999999997 30.937500000000004  30.874999999999993 30.937500000000004  L 27.193749999999994 30.937500000000004  C 26.89999999999999 30.937500000000004  26.61874999999999 30.80625  26.425 30.581249999999997  L 21 24.112499999999997  L 15.574999999999998 30.581249999999997  C 15.3875 30.80625  15.10625 30.937500000000004  14.806249999999999 30.937500000000004  L 11.125 30.937500000000004  C 10.7 30.937500000000004  10.46875 30.44375  10.743749999999999 30.11875  L 18.3875 21  Z " fill-rule="evenodd" />
    </mask>
  </defs>
  <g transform="matrix(1 0 0 1 -4 -4 )">
    <path d="M 1 1  L 1 41  L 41 41  L 41 1  L 1 1  Z M 18.3875 21  L 10.743749999999995 11.881250000000001  C 10.66734647005789 11.791403036175918  10.625393714703451 11.677308055662163  10.625393714703451 11.559367493106187  C 10.625393714703451 11.28495100803401  10.847852229631275 11.062492493106188  11.12226871470345 11.062492493106188  C 11.123179148293723 11.062492493106188  11.124089580164757 11.062494995413577  11.125 11.0625  L 14.806249999999999 11.0625  C 15.099999999999998 11.0625  15.38125 11.193750000000001  15.574999999999998 11.41875  L 21 17.8875  L 26.425 11.41875  C 26.612499999999997 11.193749999999998  26.893749999999997 11.0625  27.193749999999994 11.0625  L 30.875000000000004 11.0625  C 31.299999999999997 11.0625  31.531250000000004 11.556249999999999  31.25625 11.881250000000001  L 23.612499999999997 21  L 31.256249999999994 30.11875  C 31.531249999999993 30.44375  31.299999999999997 30.937500000000004  30.874999999999993 30.937500000000004  L 27.193749999999994 30.937500000000004  C 26.89999999999999 30.937500000000004  26.61874999999999 30.80625  26.425 30.581249999999997  L 21 24.112499999999997  L 15.574999999999998 30.581249999999997  C 15.3875 30.80625  15.10625 30.937500000000004  14.806249999999999 30.937500000000004  L 11.125 30.937500000000004  C 10.7 30.937500000000004  10.46875 30.44375  10.743749999999999 30.11875  L 18.3875 21  Z " fill-rule="nonzero" fill="rgba(230, 230, 230, 1)" stroke="none" transform="matrix(1 0 0 1 4 4 )" class="fill" />
    <path d="M 1 1  L 1 41  L 41 41  L 41 1  L 1 1  Z " stroke-width="0" stroke-dasharray="0" stroke="rgba(255, 255, 255, 0)" fill="none" transform="matrix(1 0 0 1 4 4 )" class="stroke" mask="url(#Clip2882)" />
    <path d="M 18.3875 21  L 10.743749999999995 11.881250000000001  C 10.66734647005789 11.791403036175918  10.625393714703451 11.677308055662163  10.625393714703451 11.559367493106187  C 10.625393714703451 11.28495100803401  10.847852229631275 11.062492493106188  11.12226871470345 11.062492493106188  C 11.123179148293723 11.062492493106188  11.124089580164757 11.062494995413577  11.125 11.0625  L 14.806249999999999 11.0625  C 15.099999999999998 11.0625  15.38125 11.193750000000001  15.574999999999998 11.41875  L 21 17.8875  L 26.425 11.41875  C 26.612499999999997 11.193749999999998  26.893749999999997 11.0625  27.193749999999994 11.0625  L 30.875000000000004 11.0625  C 31.299999999999997 11.0625  31.531250000000004 11.556249999999999  31.25625 11.881250000000001  L 23.612499999999997 21  L 31.256249999999994 30.11875  C 31.531249999999993 30.44375  31.299999999999997 30.937500000000004  30.874999999999993 30.937500000000004  L 27.193749999999994 30.937500000000004  C 26.89999999999999 30.937500000000004  26.61874999999999 30.80625  26.425 30.581249999999997  L 21 24.112499999999997  L 15.574999999999998 30.581249999999997  C 15.3875 30.80625  15.10625 30.937500000000004  14.806249999999999 30.937500000000004  L 11.125 30.937500000000004  C 10.7 30.937500000000004  10.46875 30.44375  10.743749999999999 30.11875  L 18.3875 21  Z " stroke-width="0" stroke-dasharray="0" stroke="rgba(255, 255, 255, 0)" fill="none" transform="matrix(1 0 0 1 4 4 )" class="stroke" mask="url(#Clip2882)" />
  </g>
</svg>