<?xml version="1.0" encoding="utf-8"?>
<svg version="1.1" xmlns:xlink="http://www.w3.org/1999/xlink" width="24px" height="24px" xmlns="http://www.w3.org/2000/svg">
  <defs>
    <pattern id="BGPattern" patternUnits="userSpaceOnUse" alignment="0 0" imageRepeat="None" />
    <mask fill="white" id="Clip6140">
      <path d="M 12 1.4999999999999993  C 6.201010126776668 1.4999999999999993  1.4999999999999993 6.201010126776668  1.4999999999999993 12  C 1.4999999999999993 17.79898987322333  6.201010126776668 22.5  12 22.5  C 17.79898987322333 22.5  22.5 17.79898987322333  22.5 12  C 22.5 6.201010126776668  17.79898987322333 1.4999999999999993  12 1.4999999999999993  Z M 12 24  C 5.372583002030479 24  0 18.627416997969522  0 12  C 0 5.372583002030479  5.372583002030479 0  12 0  C 18.627416997969522 0  24 5.372583002030479  24 12  C 24 18.627416997969522  18.627416997969522 24  12 24  Z " fill-rule="evenodd" />
    </mask>
  </defs>
  <g>
    <path d="M 12 1.4999999999999993  C 6.201010126776668 1.4999999999999993  1.4999999999999993 6.201010126776668  1.4999999999999993 12  C 1.4999999999999993 17.79898987322333  6.201010126776668 22.5  12 22.5  C 17.79898987322333 22.5  22.5 17.79898987322333  22.5 12  C 22.5 6.201010126776668  17.79898987322333 1.4999999999999993  12 1.4999999999999993  Z M 12 24  C 5.372583002030479 24  0 18.627416997969522  0 12  C 0 5.372583002030479  5.372583002030479 0  12 0  C 18.627416997969522 0  24 5.372583002030479  24 12  C 24 18.627416997969522  18.627416997969522 24  12 24  Z " fill-rule="nonzero" fill="rgba(0, 0, 0, 1)" stroke="none" class="fill" />
    <path d="M 12 1.4999999999999993  C 6.201010126776668 1.4999999999999993  1.4999999999999993 6.201010126776668  1.4999999999999993 12  C 1.4999999999999993 17.79898987322333  6.201010126776668 22.5  12 22.5  C 17.79898987322333 22.5  22.5 17.79898987322333  22.5 12  C 22.5 6.201010126776668  17.79898987322333 1.4999999999999993  12 1.4999999999999993  Z " stroke-width="0" stroke-dasharray="0" stroke="rgba(255, 255, 255, 0)" fill="none" class="stroke" mask="url(#Clip6140)" />
    <path d="M 12 24  C 5.372583002030479 24  0 18.627416997969522  0 12  C 0 5.372583002030479  5.372583002030479 0  12 0  C 18.627416997969522 0  24 5.372583002030479  24 12  C 24 18.627416997969522  18.627416997969522 24  12 24  Z " stroke-width="0" stroke-dasharray="0" stroke="rgba(255, 255, 255, 0)" fill="none" class="stroke" mask="url(#Clip6140)" />
  </g>
</svg>