<?xml version="1.0" encoding="utf-8"?>
<svg version="1.1" xmlns:xlink="http://www.w3.org/1999/xlink" width="56px" height="56px" xmlns="http://www.w3.org/2000/svg">
  <defs>
    <pattern id="BGPattern" patternUnits="userSpaceOnUse" alignment="0 0" imageRepeat="None" />
    <mask fill="white" id="Clip2196">
      <path d="M 20.21249999999999 25.9875  C 21.031249999999993 25.993750000000002  21.72499999999999 25.79375  22.26875 25.39375  C 22.8125 25  23.075 24.35  23.075 23.45625  C 23.09375 23.03125  23.006249999999998 22.6125  22.818749999999998 22.23125  C 22.65 21.925  22.4 21.66875  22.093749999999993 21.487499999999997  C 21.77620717791717 21.294934110090026  21.423529765464846 21.167460346553046  21.056249999999995 21.1125  C 20.656249999999996 21.0375  20.249999999999996 21  19.849999999999994 21.00625  L 15.456249999999994 21.00625  L 15.456249999999994 25.9875  L 20.21249999999999 25.9875  Z M 23.937500000000004 32.25624999999999  C 23.937500000000004 31.149999999999984  23.625000000000004 30.368749999999984  23.00625 29.893749999999997  C 22.39375 29.424999999999997  21.575000000000003 29.193749999999994  20.556250000000002 29.193749999999994  L 15.443750000000001 29.193749999999994  L 15.443750000000001 35.068749999999994  L 20.45625 35.068749999999994  C 20.925 35.068749999999994  21.35625 35.02499999999999  21.775000000000002 34.93749999999999  C 22.1711995775817 34.860028003702716  22.548858060784234 34.707267268924156  22.887500000000003 34.48749999999999  C 23.206250000000004 34.28124999999999  23.462500000000002 33.99999999999999  23.656250000000004 33.63749999999999  C 23.843750000000004 33.27499999999999  23.937500000000004 32.812499999999986  23.937500000000004 32.25624999999999  Z M 56 28  C 56 12.537500000000001  43.4625 0  28 0  C 12.537500000000001 0  0 12.537500000000001  0 28  C 0 43.4625  12.537500000000001 56  28 56  C 43.4625 56  56 43.4625  56 28  Z M 33.40625 20.037499999999998  L 33.40625 17.93125  L 42.05625 17.93125  L 42.05625 20.037499999999998  L 33.40625 20.037499999999998  Z M 28.625 32.5  C 28.625 33.5875  28.418750000000006 34.51875  28 35.3  C 27.595414510693008 36.06799406157587  27.01768238198745 36.731316135274845  26.3125 37.2375  C 25.575 37.75  24.75625 38.125  23.8875 38.34375  C 22.97858148587607 38.58731210573917  22.04095926895006 38.707142747812675  21.099999999999998 38  L 11 38  L 11 17.38125  L 20.8125 17.38125  C 21.83125 17.38125  22.75625 17.475  23.6 17.650000000000002  C 24.4375 17.825000000000003  25.150000000000002 18.125000000000004  25.75 18.531250000000004  C 26.34375 18.937500000000004  26.8125 19.481250000000003  27.14375 20.156250000000004  C 27.46875 20.825000000000003  27.6375 21.662500000000005  27.6375 22.656250000000004  C 27.6375 23.731250000000003  27.39375 24.618750000000002  26.90625 25.337500000000002  C 26.4125 26.056250000000002  25.7 26.637500000000003  24.73125 27.093750000000004  C 26.05 27.468750000000004  27.01875 28.137500000000003  27.65625 29.075000000000006  C 28.306250000000002 30.02500000000001  28.625 31.1625  28.625 32.5  Z M 45.137499999999996 28.581250000000004  C 45.40624999999999 29.662499999999998  45.49999999999999 30.800000000000004  45.425 32  L 34.275 32  C 34.275 33.2125  34.69375 34.375  35.324999999999996 35  C 35.9625 35.61875  36.87499999999999 35.93125  38.068749999999994 35.93125  C 38.93124999999999 35.93125  39.662499999999994 35.7125  40.287499999999994 35.28125  C 40.90624999999999 34.85  41.28124999999999 34.39375  41.418749999999996 33.91875  L 45.15624999999999 33.91875  C 44.55624999999999 35.775000000000006  43.64374999999999 37.1  42.40624999999999 37.900000000000006  C 41.18124999999999 38.7  39.68124999999999 39.10000000000001  37.93749999999999 39.10000000000001  C 36.71874999999999 39.10000000000001  35.62499999999999 38.900000000000006  34.64374999999999 38.51875000000001  C 33.69999999999999 38.15000000000001  32.84999999999999 37.58750000000001  32.14999999999999 36.86250000000002  C 31.45981100421689 36.11796416079845  30.9263273869692 35.24228587272654  30.58124999999999 34.28750000000001  C 30.199999999999985 33.23125000000001  30.012499999999992 32.118750000000006  30.02499999999999 31.000000000000007  C 30.02499999999999 29.84375000000001  30.218749999999993 28.768750000000004  30.593749999999993 27.768750000000008  C 31.312499999999993 25.825000000000006  32.80624999999999 24.268750000000008  34.71249999999999 23.462500000000006  C 35.73124999999999 23.037500000000005  36.82499999999999 22.825000000000006  37.93124999999999 22.837500000000006  C 39.24374999999999 22.837500000000006  40.381249999999994 23.087500000000006  41.36875 23.60000000000001  C 42.31941458341112 24.089388182687717  43.1448409276028 24.790786734228835  43.78124999999999 25.650000000000006  C 44.412499999999994 26.506250000000005  44.856249999999996 27.481250000000006  45.137499999999996 28.581250000000004  Z M 40.2125 26.88125  C 39.6875 26.325000000000003  38.84375 26.025000000000002  37.8 26.025  C 37.125 26.025  36.55625 26.143749999999997  36.11875 26.375  C 35.68125 26.60625  35.31875 26.89375  35.043749999999996 27.225  C 34.781852359280705 27.54483111945206  34.58828612919021 27.914946768196526  34.474999999999994 28.312499999999996  C 34.37499999999999 28.643749999999997  34.30624999999999 28.981250000000003  34.28124999999999 29.325000000000003  L 41.1875 29.325000000000003  C 41.0875 28.243750000000002  40.7125 27.44375  40.2125 26.88125  Z " fill-rule="evenodd" />
    </mask>
  </defs>
  <g>
    <path d="M 20.21249999999999 25.9875  C 21.031249999999993 25.993750000000002  21.72499999999999 25.79375  22.26875 25.39375  C 22.8125 25  23.075 24.35  23.075 23.45625  C 23.09375 23.03125  23.006249999999998 22.6125  22.818749999999998 22.23125  C 22.65 21.925  22.4 21.66875  22.093749999999993 21.487499999999997  C 21.77620717791717 21.294934110090026  21.423529765464846 21.167460346553046  21.056249999999995 21.1125  C 20.656249999999996 21.0375  20.249999999999996 21  19.849999999999994 21.00625  L 15.456249999999994 21.00625  L 15.456249999999994 25.9875  L 20.21249999999999 25.9875  Z M 23.937500000000004 32.25624999999999  C 23.937500000000004 31.149999999999984  23.625000000000004 30.368749999999984  23.00625 29.893749999999997  C 22.39375 29.424999999999997  21.575000000000003 29.193749999999994  20.556250000000002 29.193749999999994  L 15.443750000000001 29.193749999999994  L 15.443750000000001 35.068749999999994  L 20.45625 35.068749999999994  C 20.925 35.068749999999994  21.35625 35.02499999999999  21.775000000000002 34.93749999999999  C 22.1711995775817 34.860028003702716  22.548858060784234 34.707267268924156  22.887500000000003 34.48749999999999  C 23.206250000000004 34.28124999999999  23.462500000000002 33.99999999999999  23.656250000000004 33.63749999999999  C 23.843750000000004 33.27499999999999  23.937500000000004 32.812499999999986  23.937500000000004 32.25624999999999  Z M 56 28  C 56 12.537500000000001  43.4625 0  28 0  C 12.537500000000001 0  0 12.537500000000001  0 28  C 0 43.4625  12.537500000000001 56  28 56  C 43.4625 56  56 43.4625  56 28  Z M 33.40625 20.037499999999998  L 33.40625 17.93125  L 42.05625 17.93125  L 42.05625 20.037499999999998  L 33.40625 20.037499999999998  Z M 28.625 32.5  C 28.625 33.5875  28.418750000000006 34.51875  28 35.3  C 27.595414510693008 36.06799406157587  27.01768238198745 36.731316135274845  26.3125 37.2375  C 25.575 37.75  24.75625 38.125  23.8875 38.34375  C 22.97858148587607 38.58731210573917  22.04095926895006 38.707142747812675  21.099999999999998 38  L 11 38  L 11 17.38125  L 20.8125 17.38125  C 21.83125 17.38125  22.75625 17.475  23.6 17.650000000000002  C 24.4375 17.825000000000003  25.150000000000002 18.125000000000004  25.75 18.531250000000004  C 26.34375 18.937500000000004  26.8125 19.481250000000003  27.14375 20.156250000000004  C 27.46875 20.825000000000003  27.6375 21.662500000000005  27.6375 22.656250000000004  C 27.6375 23.731250000000003  27.39375 24.618750000000002  26.90625 25.337500000000002  C 26.4125 26.056250000000002  25.7 26.637500000000003  24.73125 27.093750000000004  C 26.05 27.468750000000004  27.01875 28.137500000000003  27.65625 29.075000000000006  C 28.306250000000002 30.02500000000001  28.625 31.1625  28.625 32.5  Z M 45.137499999999996 28.581250000000004  C 45.40624999999999 29.662499999999998  45.49999999999999 30.800000000000004  45.425 32  L 34.275 32  C 34.275 33.2125  34.69375 34.375  35.324999999999996 35  C 35.9625 35.61875  36.87499999999999 35.93125  38.068749999999994 35.93125  C 38.93124999999999 35.93125  39.662499999999994 35.7125  40.287499999999994 35.28125  C 40.90624999999999 34.85  41.28124999999999 34.39375  41.418749999999996 33.91875  L 45.15624999999999 33.91875  C 44.55624999999999 35.775000000000006  43.64374999999999 37.1  42.40624999999999 37.900000000000006  C 41.18124999999999 38.7  39.68124999999999 39.10000000000001  37.93749999999999 39.10000000000001  C 36.71874999999999 39.10000000000001  35.62499999999999 38.900000000000006  34.64374999999999 38.51875000000001  C 33.69999999999999 38.15000000000001  32.84999999999999 37.58750000000001  32.14999999999999 36.86250000000002  C 31.45981100421689 36.11796416079845  30.9263273869692 35.24228587272654  30.58124999999999 34.28750000000001  C 30.199999999999985 33.23125000000001  30.012499999999992 32.118750000000006  30.02499999999999 31.000000000000007  C 30.02499999999999 29.84375000000001  30.218749999999993 28.768750000000004  30.593749999999993 27.768750000000008  C 31.312499999999993 25.825000000000006  32.80624999999999 24.268750000000008  34.71249999999999 23.462500000000006  C 35.73124999999999 23.037500000000005  36.82499999999999 22.825000000000006  37.93124999999999 22.837500000000006  C 39.24374999999999 22.837500000000006  40.381249999999994 23.087500000000006  41.36875 23.60000000000001  C 42.31941458341112 24.089388182687717  43.1448409276028 24.790786734228835  43.78124999999999 25.650000000000006  C 44.412499999999994 26.506250000000005  44.856249999999996 27.481250000000006  45.137499999999996 28.581250000000004  Z M 40.2125 26.88125  C 39.6875 26.325000000000003  38.84375 26.025000000000002  37.8 26.025  C 37.125 26.025  36.55625 26.143749999999997  36.11875 26.375  C 35.68125 26.60625  35.31875 26.89375  35.043749999999996 27.225  C 34.781852359280705 27.54483111945206  34.58828612919021 27.914946768196526  34.474999999999994 28.312499999999996  C 34.37499999999999 28.643749999999997  34.30624999999999 28.981250000000003  34.28124999999999 29.325000000000003  L 41.1875 29.325000000000003  C 41.0875 28.243750000000002  40.7125 27.44375  40.2125 26.88125  Z " fill-rule="nonzero" fill="rgba(0, 0, 0, 1)" stroke="none" class="fill" />
    <path d="M 20.21249999999999 25.9875  C 21.031249999999993 25.993750000000002  21.72499999999999 25.79375  22.26875 25.39375  C 22.8125 25  23.075 24.35  23.075 23.45625  C 23.09375 23.03125  23.006249999999998 22.6125  22.818749999999998 22.23125  C 22.65 21.925  22.4 21.66875  22.093749999999993 21.487499999999997  C 21.77620717791717 21.294934110090026  21.423529765464846 21.167460346553046  21.056249999999995 21.1125  C 20.656249999999996 21.0375  20.249999999999996 21  19.849999999999994 21.00625  L 15.456249999999994 21.00625  L 15.456249999999994 25.9875  L 20.21249999999999 25.9875  Z " stroke-width="0" stroke-dasharray="0" stroke="rgba(255, 255, 255, 0)" fill="none" class="stroke" mask="url(#Clip2196)" />
    <path d="M 23.937500000000004 32.25624999999999  C 23.937500000000004 31.149999999999984  23.625000000000004 30.368749999999984  23.00625 29.893749999999997  C 22.39375 29.424999999999997  21.575000000000003 29.193749999999994  20.556250000000002 29.193749999999994  L 15.443750000000001 29.193749999999994  L 15.443750000000001 35.068749999999994  L 20.45625 35.068749999999994  C 20.925 35.068749999999994  21.35625 35.02499999999999  21.775000000000002 34.93749999999999  C 22.1711995775817 34.860028003702716  22.548858060784234 34.707267268924156  22.887500000000003 34.48749999999999  C 23.206250000000004 34.28124999999999  23.462500000000002 33.99999999999999  23.656250000000004 33.63749999999999  C 23.843750000000004 33.27499999999999  23.937500000000004 32.812499999999986  23.937500000000004 32.25624999999999  Z " stroke-width="0" stroke-dasharray="0" stroke="rgba(255, 255, 255, 0)" fill="none" class="stroke" mask="url(#Clip2196)" />
    <path d="M 56 28  C 56 12.537500000000001  43.4625 0  28 0  C 12.537500000000001 0  0 12.537500000000001  0 28  C 0 43.4625  12.537500000000001 56  28 56  C 43.4625 56  56 43.4625  56 28  Z " stroke-width="0" stroke-dasharray="0" stroke="rgba(255, 255, 255, 0)" fill="none" class="stroke" mask="url(#Clip2196)" />
    <path d="M 33.40625 20.037499999999998  L 33.40625 17.93125  L 42.05625 17.93125  L 42.05625 20.037499999999998  L 33.40625 20.037499999999998  Z " stroke-width="0" stroke-dasharray="0" stroke="rgba(255, 255, 255, 0)" fill="none" class="stroke" mask="url(#Clip2196)" />
    <path d="M 28.625 32.5  C 28.625 33.5875  28.418750000000006 34.51875  28 35.3  C 27.595414510693008 36.06799406157587  27.01768238198745 36.731316135274845  26.3125 37.2375  C 25.575 37.75  24.75625 38.125  23.8875 38.34375  C 22.97858148587607 38.58731210573917  22.04095926895006 38.707142747812675  21.099999999999998 38  L 11 38  L 11 17.38125  L 20.8125 17.38125  C 21.83125 17.38125  22.75625 17.475  23.6 17.650000000000002  C 24.4375 17.825000000000003  25.150000000000002 18.125000000000004  25.75 18.531250000000004  C 26.34375 18.937500000000004  26.8125 19.481250000000003  27.14375 20.156250000000004  C 27.46875 20.825000000000003  27.6375 21.662500000000005  27.6375 22.656250000000004  C 27.6375 23.731250000000003  27.39375 24.618750000000002  26.90625 25.337500000000002  C 26.4125 26.056250000000002  25.7 26.637500000000003  24.73125 27.093750000000004  C 26.05 27.468750000000004  27.01875 28.137500000000003  27.65625 29.075000000000006  C 28.306250000000002 30.02500000000001  28.625 31.1625  28.625 32.5  Z " stroke-width="0" stroke-dasharray="0" stroke="rgba(255, 255, 255, 0)" fill="none" class="stroke" mask="url(#Clip2196)" />
    <path d="M 45.137499999999996 28.581250000000004  C 45.40624999999999 29.662499999999998  45.49999999999999 30.800000000000004  45.425 32  L 34.275 32  C 34.275 33.2125  34.69375 34.375  35.324999999999996 35  C 35.9625 35.61875  36.87499999999999 35.93125  38.068749999999994 35.93125  C 38.93124999999999 35.93125  39.662499999999994 35.7125  40.287499999999994 35.28125  C 40.90624999999999 34.85  41.28124999999999 34.39375  41.418749999999996 33.91875  L 45.15624999999999 33.91875  C 44.55624999999999 35.775000000000006  43.64374999999999 37.1  42.40624999999999 37.900000000000006  C 41.18124999999999 38.7  39.68124999999999 39.10000000000001  37.93749999999999 39.10000000000001  C 36.71874999999999 39.10000000000001  35.62499999999999 38.900000000000006  34.64374999999999 38.51875000000001  C 33.69999999999999 38.15000000000001  32.84999999999999 37.58750000000001  32.14999999999999 36.86250000000002  C 31.45981100421689 36.11796416079845  30.9263273869692 35.24228587272654  30.58124999999999 34.28750000000001  C 30.199999999999985 33.23125000000001  30.012499999999992 32.118750000000006  30.02499999999999 31.000000000000007  C 30.02499999999999 29.84375000000001  30.218749999999993 28.768750000000004  30.593749999999993 27.768750000000008  C 31.312499999999993 25.825000000000006  32.80624999999999 24.268750000000008  34.71249999999999 23.462500000000006  C 35.73124999999999 23.037500000000005  36.82499999999999 22.825000000000006  37.93124999999999 22.837500000000006  C 39.24374999999999 22.837500000000006  40.381249999999994 23.087500000000006  41.36875 23.60000000000001  C 42.31941458341112 24.089388182687717  43.1448409276028 24.790786734228835  43.78124999999999 25.650000000000006  C 44.412499999999994 26.506250000000005  44.856249999999996 27.481250000000006  45.137499999999996 28.581250000000004  Z " stroke-width="0" stroke-dasharray="0" stroke="rgba(255, 255, 255, 0)" fill="none" class="stroke" mask="url(#Clip2196)" />
    <path d="M 40.2125 26.88125  C 39.6875 26.325000000000003  38.84375 26.025000000000002  37.8 26.025  C 37.125 26.025  36.55625 26.143749999999997  36.11875 26.375  C 35.68125 26.60625  35.31875 26.89375  35.043749999999996 27.225  C 34.781852359280705 27.54483111945206  34.58828612919021 27.914946768196526  34.474999999999994 28.312499999999996  C 34.37499999999999 28.643749999999997  34.30624999999999 28.981250000000003  34.28124999999999 29.325000000000003  L 41.1875 29.325000000000003  C 41.0875 28.243750000000002  40.7125 27.44375  40.2125 26.88125  Z " stroke-width="0" stroke-dasharray="0" stroke="rgba(255, 255, 255, 0)" fill="none" class="stroke" mask="url(#Clip2196)" />
  </g>
</svg>