<?xml version="1.0" encoding="utf-8"?>
<svg version="1.1" xmlns:xlink="http://www.w3.org/1999/xlink" width="24px" height="16px" xmlns="http://www.w3.org/2000/svg">
  <defs>
    <pattern id="BGPattern" patternUnits="userSpaceOnUse" alignment="0 0" imageRepeat="None" />
    <mask fill="white" id="Clip5023">
      <path d="M 0 12.5  L 0 3.5  C 0 1.8431457505076194  1.3431457505076196 0.5  3 0.5  L 14.25 0.5  C 15.755082090513909 0.49982295587609116  17.027334255191512 1.6148881410549496  17.2245 3.1069999999999993  L 21.889499999999998 1.0339999999999998  C 22.081643499352836 0.9483857952615455  22.28964587343105 0.9041421758917192  22.5000001374633 0.9041421758917192  C 23.32817648803315 0.9041421758917192  23.99964544340905 1.5753237253260535  24 2.4035  L 24 13.596499999999999  C 23.9992773062503 14.424415518227889  23.3279164051257 15.095190639095797  22.500000571475436 15.095190639095797  C 22.290199440461585 15.095190639095797  22.08273156954805 15.051179339122417  21.891 14.966000000000001  L 17.2245 12.893  C 17.02733425519151 14.385111858945049  15.755082090513907 15.500177044123905  14.25 15.5  L 3 15.5  C 1.3431457505076196 15.5  0 14.15685424949238  0 12.5  Z M 17.25 4.737500000000001  L 17.25 11.262500000000001  L 22.5 13.596500000000002  L 22.5 2.4035  L 17.25 4.737500000000001  Z M 14.25 2  L 3 2  C 2.1715728752538097 2  1.5 2.67157287525381  1.5 3.5  L 1.5 12.5  C 1.5 13.328427124746192  2.1715728752538097 14  3 14  L 14.25 14  C 15.07842712474619 14  15.75 13.328427124746192  15.75 12.5  L 15.75 3.5  C 15.75 2.67157287525381  15.07842712474619 2  14.25 2  Z " fill-rule="evenodd" />
    </mask>
  </defs>
  <g>
    <path d="M 0 12.5  L 0 3.5  C 0 1.8431457505076194  1.3431457505076196 0.5  3 0.5  L 14.25 0.5  C 15.755082090513909 0.49982295587609116  17.027334255191512 1.6148881410549496  17.2245 3.1069999999999993  L 21.889499999999998 1.0339999999999998  C 22.081643499352836 0.9483857952615455  22.28964587343105 0.9041421758917192  22.5000001374633 0.9041421758917192  C 23.32817648803315 0.9041421758917192  23.99964544340905 1.5753237253260535  24 2.4035  L 24 13.596499999999999  C 23.9992773062503 14.424415518227889  23.3279164051257 15.095190639095797  22.500000571475436 15.095190639095797  C 22.290199440461585 15.095190639095797  22.08273156954805 15.051179339122417  21.891 14.966000000000001  L 17.2245 12.893  C 17.02733425519151 14.385111858945049  15.755082090513907 15.500177044123905  14.25 15.5  L 3 15.5  C 1.3431457505076196 15.5  0 14.15685424949238  0 12.5  Z M 17.25 4.737500000000001  L 17.25 11.262500000000001  L 22.5 13.596500000000002  L 22.5 2.4035  L 17.25 4.737500000000001  Z M 14.25 2  L 3 2  C 2.1715728752538097 2  1.5 2.67157287525381  1.5 3.5  L 1.5 12.5  C 1.5 13.328427124746192  2.1715728752538097 14  3 14  L 14.25 14  C 15.07842712474619 14  15.75 13.328427124746192  15.75 12.5  L 15.75 3.5  C 15.75 2.67157287525381  15.07842712474619 2  14.25 2  Z " fill-rule="nonzero" fill="rgba(0, 0, 0, 1)" stroke="none" class="fill" />
    <path d="M 0 12.5  L 0 3.5  C 0 1.8431457505076194  1.3431457505076196 0.5  3 0.5  L 14.25 0.5  C 15.755082090513909 0.49982295587609116  17.027334255191512 1.6148881410549496  17.2245 3.1069999999999993  L 21.889499999999998 1.0339999999999998  C 22.081643499352836 0.9483857952615455  22.28964587343105 0.9041421758917192  22.5000001374633 0.9041421758917192  C 23.32817648803315 0.9041421758917192  23.99964544340905 1.5753237253260535  24 2.4035  L 24 13.596499999999999  C 23.9992773062503 14.424415518227889  23.3279164051257 15.095190639095797  22.500000571475436 15.095190639095797  C 22.290199440461585 15.095190639095797  22.08273156954805 15.051179339122417  21.891 14.966000000000001  L 17.2245 12.893  C 17.02733425519151 14.385111858945049  15.755082090513907 15.500177044123905  14.25 15.5  L 3 15.5  C 1.3431457505076196 15.5  0 14.15685424949238  0 12.5  Z " stroke-width="0" stroke-dasharray="0" stroke="rgba(255, 255, 255, 0)" fill="none" class="stroke" mask="url(#Clip5023)" />
    <path d="M 17.25 4.737500000000001  L 17.25 11.262500000000001  L 22.5 13.596500000000002  L 22.5 2.4035  L 17.25 4.737500000000001  Z " stroke-width="0" stroke-dasharray="0" stroke="rgba(255, 255, 255, 0)" fill="none" class="stroke" mask="url(#Clip5023)" />
    <path d="M 14.25 2  L 3 2  C 2.1715728752538097 2  1.5 2.67157287525381  1.5 3.5  L 1.5 12.5  C 1.5 13.328427124746192  2.1715728752538097 14  3 14  L 14.25 14  C 15.07842712474619 14  15.75 13.328427124746192  15.75 12.5  L 15.75 3.5  C 15.75 2.67157287525381  15.07842712474619 2  14.25 2  Z " stroke-width="0" stroke-dasharray="0" stroke="rgba(255, 255, 255, 0)" fill="none" class="stroke" mask="url(#Clip5023)" />
  </g>
</svg>