<?xml version="1.0" encoding="utf-8"?>
<svg version="1.1" xmlns:xlink="http://www.w3.org/1999/xlink" width="21px" height="21px" xmlns="http://www.w3.org/2000/svg">
  <defs>
    <pattern id="BGPattern" patternUnits="userSpaceOnUse" alignment="0 0" imageRepeat="None" />
    <mask fill="white" id="Clip6377">
      <path d="M 0 8.879000000000001  L 0 2  C 0 1.1715728752538097  0.6715728752538102 0.5  1.5 0.5  L 8.379000000000001 0.5  C 8.776792220218223 0.5000849561082421  9.158260902963814 0.6581759377835719  9.439500000000002 0.9394999999999998  L 19.939500000000002 11.439499999999997  C 20.525072907499297 12.02524977722872  20.525072907499297 12.974750222771277  19.939500000000002 13.560499999999998  L 13.060500000000001 20.4395  C 12.474750222771279 21.025072907499293  11.525249777228723 21.025072907499293  10.939500000000002 20.4395  L 0.4395000000000015 9.939499999999999  C 0.15817593778357342 9.658260902963812  8.495610824343913E-05 9.276792220218223  0 8.879000000000001  Z M 8.379000000000001 2  L 1.5 2  L 1.5 8.879000000000001  L 12 19.379  L 18.879 12.5  L 8.379000000000001 2  Z " fill-rule="evenodd" />
    </mask>
  </defs>
  <g transform="matrix(1 0 0 1 -3 0 )">
    <path d="M 0 8.879000000000001  L 0 2  C 0 1.1715728752538097  0.6715728752538102 0.5  1.5 0.5  L 8.379000000000001 0.5  C 8.776792220218223 0.5000849561082421  9.158260902963814 0.6581759377835719  9.439500000000002 0.9394999999999998  L 19.939500000000002 11.439499999999997  C 20.525072907499297 12.02524977722872  20.525072907499297 12.974750222771277  19.939500000000002 13.560499999999998  L 13.060500000000001 20.4395  C 12.474750222771279 21.025072907499293  11.525249777228723 21.025072907499293  10.939500000000002 20.4395  L 0.4395000000000015 9.939499999999999  C 0.15817593778357342 9.658260902963812  8.495610824343913E-05 9.276792220218223  0 8.879000000000001  Z M 8.379000000000001 2  L 1.5 2  L 1.5 8.879000000000001  L 12 19.379  L 18.879 12.5  L 8.379000000000001 2  Z " fill-rule="nonzero" fill="rgba(0, 0, 0, 1)" stroke="none" transform="matrix(1 0 0 1 3 0 )" class="fill" />
    <path d="M 0 8.879000000000001  L 0 2  C 0 1.1715728752538097  0.6715728752538102 0.5  1.5 0.5  L 8.379000000000001 0.5  C 8.776792220218223 0.5000849561082421  9.158260902963814 0.6581759377835719  9.439500000000002 0.9394999999999998  L 19.939500000000002 11.439499999999997  C 20.525072907499297 12.02524977722872  20.525072907499297 12.974750222771277  19.939500000000002 13.560499999999998  L 13.060500000000001 20.4395  C 12.474750222771279 21.025072907499293  11.525249777228723 21.025072907499293  10.939500000000002 20.4395  L 0.4395000000000015 9.939499999999999  C 0.15817593778357342 9.658260902963812  8.495610824343913E-05 9.276792220218223  0 8.879000000000001  Z " stroke-width="0" stroke-dasharray="0" stroke="rgba(255, 255, 255, 0)" fill="none" transform="matrix(1 0 0 1 3 0 )" class="stroke" mask="url(#Clip6377)" />
    <path d="M 8.379000000000001 2  L 1.5 2  L 1.5 8.879000000000001  L 12 19.379  L 18.879 12.5  L 8.379000000000001 2  Z " stroke-width="0" stroke-dasharray="0" stroke="rgba(255, 255, 255, 0)" fill="none" transform="matrix(1 0 0 1 3 0 )" class="stroke" mask="url(#Clip6377)" />
  </g>
</svg>