<?xml version="1.0" encoding="utf-8"?>
<svg version="1.1" xmlns:xlink="http://www.w3.org/1999/xlink" width="22px" height="13px" xmlns="http://www.w3.org/2000/svg">
  <defs>
    <pattern id="BGPattern" patternUnits="userSpaceOnUse" alignment="0 0" imageRepeat="None" />
    <mask fill="white" id="Clip5074">
      <path d="M 21.5 0.5  L 18.5 0.5  C 18.5 2.1568542494923797  19.84314575050762 3.5  21.5 3.5  L 21.5 0.5  Z M 0.5 0.5  L 3.5 0.5  C 3.5 2.1568542494923797  2.1568542494923806 3.5  0.5 3.5  L 0.5 0.5  Z M 21.5 12.5  L 18.5 12.5  C 18.5 10.84314575050762  19.84314575050762 9.5  21.5 9.5  L 21.5 12.5  Z M 0.5 12.5  L 3.5 12.5  C 3.5 10.84314575050762  2.1568542494923806 9.5  0.5 9.5  L 0.5 12.5  Z M 14 6.5  C 14 8.15685424949238  12.65685424949238 9.5  11 9.5  C 9.34314575050762 9.5  8 8.15685424949238  8 6.5  C 8 4.84314575050762  9.34314575050762 3.5  11 3.5  C 12.65685424949238 3.5  14 4.84314575050762  14 6.5  Z " fill-rule="evenodd" />
    </mask>
  </defs>
  <g transform="matrix(1 0 0 1 -1 -4 )">
    <path d="M 21.5 0.5  L 18.5 0.5  C 18.5 2.1568542494923797  19.84314575050762 3.5  21.5 3.5  L 21.5 0.5  Z M 0.5 0.5  L 3.5 0.5  C 3.5 2.1568542494923797  2.1568542494923806 3.5  0.5 3.5  L 0.5 0.5  Z M 21.5 12.5  L 18.5 12.5  C 18.5 10.84314575050762  19.84314575050762 9.5  21.5 9.5  L 21.5 12.5  Z M 0.5 12.5  L 3.5 12.5  C 3.5 10.84314575050762  2.1568542494923806 9.5  0.5 9.5  L 0.5 12.5  Z M 14 6.5  C 14 8.15685424949238  12.65685424949238 9.5  11 9.5  C 9.34314575050762 9.5  8 8.15685424949238  8 6.5  C 8 4.84314575050762  9.34314575050762 3.5  11 3.5  C 12.65685424949238 3.5  14 4.84314575050762  14 6.5  Z " fill-rule="nonzero" fill="rgba(0, 0, 0, 1)" stroke="none" transform="matrix(1 0 0 1 1 4 )" class="fill" />
    <path d="M 21.5 0.5  L 18.5 0.5  C 18.5 2.1568542494923797  19.84314575050762 3.5  21.5 3.5  L 21.5 0.5  Z " stroke-width="0" stroke-dasharray="0" stroke="rgba(255, 255, 255, 0)" fill="none" transform="matrix(1 0 0 1 1 4 )" class="stroke" mask="url(#Clip5074)" />
    <path d="M 0.5 0.5  L 3.5 0.5  C 3.5 2.1568542494923797  2.1568542494923806 3.5  0.5 3.5  L 0.5 0.5  Z " stroke-width="0" stroke-dasharray="0" stroke="rgba(255, 255, 255, 0)" fill="none" transform="matrix(1 0 0 1 1 4 )" class="stroke" mask="url(#Clip5074)" />
    <path d="M 21.5 12.5  L 18.5 12.5  C 18.5 10.84314575050762  19.84314575050762 9.5  21.5 9.5  L 21.5 12.5  Z " stroke-width="0" stroke-dasharray="0" stroke="rgba(255, 255, 255, 0)" fill="none" transform="matrix(1 0 0 1 1 4 )" class="stroke" mask="url(#Clip5074)" />
    <path d="M 0.5 12.5  L 3.5 12.5  C 3.5 10.84314575050762  2.1568542494923806 9.5  0.5 9.5  L 0.5 12.5  Z " stroke-width="0" stroke-dasharray="0" stroke="rgba(255, 255, 255, 0)" fill="none" transform="matrix(1 0 0 1 1 4 )" class="stroke" mask="url(#Clip5074)" />
    <path d="M 14 6.5  C 14 8.15685424949238  12.65685424949238 9.5  11 9.5  C 9.34314575050762 9.5  8 8.15685424949238  8 6.5  C 8 4.84314575050762  9.34314575050762 3.5  11 3.5  C 12.65685424949238 3.5  14 4.84314575050762  14 6.5  Z " stroke-width="0" stroke-dasharray="0" stroke="rgba(255, 255, 255, 0)" fill="none" transform="matrix(1 0 0 1 1 4 )" class="stroke" mask="url(#Clip5074)" />
  </g>
</svg>