<?xml version="1.0" encoding="utf-8"?>
<svg version="1.1" xmlns:xlink="http://www.w3.org/1999/xlink" width="50px" height="50px" xmlns="http://www.w3.org/2000/svg">
  <defs>
    <pattern id="BGPattern" patternUnits="userSpaceOnUse" alignment="0 0" imageRepeat="None" />
    <mask fill="white" id="Clip1193">
      <path d="M 50 25  C 50 11.192842741935493  38.80715725806451 0  25 0  C 11.192842741935479 0  0 11.192842741935493  0 25  C 0 38.80715725806451  11.192842741935479 50  25 50  C 38.80715725806451 50  50 38.80715725806451  50 25  Z M 45.16129032258064 25  C 45.16129032258064 36.142338709677404  36.144052419354836 45.16129032258064  25 45.16129032258064  C 13.857661290322582 45.16129032258064  4.838709677419359 36.144052419354836  4.838709677419359 25  C 4.838709677419359 13.857762096774195  13.855947580645164 4.838709677419359  25 4.838709677419359  C 36.14233870967742 4.838709677419359  45.16129032258064 13.855947580645164  45.16129032258064 25  Z M 35.07379032258065 38.70967741935485  C 35.995161290322585 38.70967741935485  36.5772177419355 37.72187500000001  36.13326612903225 36.91622983870968  C 30.78588709677419 27.210181451612897  31.067741935483866 27.695665322580652  30.76320564516129 27.23024193548389  C 33.20947580645161 25.831149193548384  34.74324596774193 23.04042338709678  34.74324596774193 19.853629032258084  C 34.74324596774193 14.560987903225822  31.694153225806442 11.25967741935483  24.511592741935488 11.25967741935483  L 16.581451612903223 11.25967741935483  C 15.914415322580652 11.25967741935483  15.37177419354839 11.802318548387092  16 12.469354838709677  L 16 37.5  C 15.37177419354839 38.167036290322585  15.914415322580652 38.70967741935485  16.581451612903223 38.70967741935485  L 20.469354838709677 38.70967741935485  C 21.136391129032262 38.70967741935485  21.679032258064524 38.167036290322585  21.679032258064524 37.5  L 21.679032258064524 29.06622983870969  L 24.900604838709683 29.06622983870969  L 29.690423387096786 38.06854838709677  C 29.900210704347558 38.46348600823222  30.311067954810085 38.710163258580735  30.758266129032265 38.70967741935485  L 35.07379032258065 38.70967741935485  Z M 28.363306451612914 20.108366935483872  C 28.363205645161287 22.216532258064518  27.202217741935485 23.377620967741933  25.09405241935484 23.377620967741933  L 21.679233870967735 23.377620967741933  L 21.679233870967735 16.911895161290317  L 24.439012096774192 16.911895161290317  C 27.70685483870967 16.911895161290317  28.363306451612914 18.134979838709683  28.363306451612914 20.108366935483872  Z " fill-rule="evenodd" />
    </mask>
  </defs>
  <g>
    <path d="M 50 25  C 50 11.192842741935493  38.80715725806451 0  25 0  C 11.192842741935479 0  0 11.192842741935493  0 25  C 0 38.80715725806451  11.192842741935479 50  25 50  C 38.80715725806451 50  50 38.80715725806451  50 25  Z M 45.16129032258064 25  C 45.16129032258064 36.142338709677404  36.144052419354836 45.16129032258064  25 45.16129032258064  C 13.857661290322582 45.16129032258064  4.838709677419359 36.144052419354836  4.838709677419359 25  C 4.838709677419359 13.857762096774195  13.855947580645164 4.838709677419359  25 4.838709677419359  C 36.14233870967742 4.838709677419359  45.16129032258064 13.855947580645164  45.16129032258064 25  Z M 35.07379032258065 38.70967741935485  C 35.995161290322585 38.70967741935485  36.5772177419355 37.72187500000001  36.13326612903225 36.91622983870968  C 30.78588709677419 27.210181451612897  31.067741935483866 27.695665322580652  30.76320564516129 27.23024193548389  C 33.20947580645161 25.831149193548384  34.74324596774193 23.04042338709678  34.74324596774193 19.853629032258084  C 34.74324596774193 14.560987903225822  31.694153225806442 11.25967741935483  24.511592741935488 11.25967741935483  L 16.581451612903223 11.25967741935483  C 15.914415322580652 11.25967741935483  15.37177419354839 11.802318548387092  16 12.469354838709677  L 16 37.5  C 15.37177419354839 38.167036290322585  15.914415322580652 38.70967741935485  16.581451612903223 38.70967741935485  L 20.469354838709677 38.70967741935485  C 21.136391129032262 38.70967741935485  21.679032258064524 38.167036290322585  21.679032258064524 37.5  L 21.679032258064524 29.06622983870969  L 24.900604838709683 29.06622983870969  L 29.690423387096786 38.06854838709677  C 29.900210704347558 38.46348600823222  30.311067954810085 38.710163258580735  30.758266129032265 38.70967741935485  L 35.07379032258065 38.70967741935485  Z M 28.363306451612914 20.108366935483872  C 28.363205645161287 22.216532258064518  27.202217741935485 23.377620967741933  25.09405241935484 23.377620967741933  L 21.679233870967735 23.377620967741933  L 21.679233870967735 16.911895161290317  L 24.439012096774192 16.911895161290317  C 27.70685483870967 16.911895161290317  28.363306451612914 18.134979838709683  28.363306451612914 20.108366935483872  Z " fill-rule="nonzero" fill="rgba(0, 0, 0, 1)" stroke="none" class="fill" />
    <path d="M 50 25  C 50 11.192842741935493  38.80715725806451 0  25 0  C 11.192842741935479 0  0 11.192842741935493  0 25  C 0 38.80715725806451  11.192842741935479 50  25 50  C 38.80715725806451 50  50 38.80715725806451  50 25  Z " stroke-width="0" stroke-dasharray="0" stroke="rgba(255, 255, 255, 0)" fill="none" class="stroke" mask="url(#Clip1193)" />
    <path d="M 45.16129032258064 25  C 45.16129032258064 36.142338709677404  36.144052419354836 45.16129032258064  25 45.16129032258064  C 13.857661290322582 45.16129032258064  4.838709677419359 36.144052419354836  4.838709677419359 25  C 4.838709677419359 13.857762096774195  13.855947580645164 4.838709677419359  25 4.838709677419359  C 36.14233870967742 4.838709677419359  45.16129032258064 13.855947580645164  45.16129032258064 25  Z " stroke-width="0" stroke-dasharray="0" stroke="rgba(255, 255, 255, 0)" fill="none" class="stroke" mask="url(#Clip1193)" />
    <path d="M 35.07379032258065 38.70967741935485  C 35.995161290322585 38.70967741935485  36.5772177419355 37.72187500000001  36.13326612903225 36.91622983870968  C 30.78588709677419 27.210181451612897  31.067741935483866 27.695665322580652  30.76320564516129 27.23024193548389  C 33.20947580645161 25.831149193548384  34.74324596774193 23.04042338709678  34.74324596774193 19.853629032258084  C 34.74324596774193 14.560987903225822  31.694153225806442 11.25967741935483  24.511592741935488 11.25967741935483  L 16.581451612903223 11.25967741935483  C 15.914415322580652 11.25967741935483  15.37177419354839 11.802318548387092  16 12.469354838709677  L 16 37.5  C 15.37177419354839 38.167036290322585  15.914415322580652 38.70967741935485  16.581451612903223 38.70967741935485  L 20.469354838709677 38.70967741935485  C 21.136391129032262 38.70967741935485  21.679032258064524 38.167036290322585  21.679032258064524 37.5  L 21.679032258064524 29.06622983870969  L 24.900604838709683 29.06622983870969  L 29.690423387096786 38.06854838709677  C 29.900210704347558 38.46348600823222  30.311067954810085 38.710163258580735  30.758266129032265 38.70967741935485  L 35.07379032258065 38.70967741935485  Z " stroke-width="0" stroke-dasharray="0" stroke="rgba(255, 255, 255, 0)" fill="none" class="stroke" mask="url(#Clip1193)" />
    <path d="M 28.363306451612914 20.108366935483872  C 28.363205645161287 22.216532258064518  27.202217741935485 23.377620967741933  25.09405241935484 23.377620967741933  L 21.679233870967735 23.377620967741933  L 21.679233870967735 16.911895161290317  L 24.439012096774192 16.911895161290317  C 27.70685483870967 16.911895161290317  28.363306451612914 18.134979838709683  28.363306451612914 20.108366935483872  Z " stroke-width="0" stroke-dasharray="0" stroke="rgba(255, 255, 255, 0)" fill="none" class="stroke" mask="url(#Clip1193)" />
  </g>
</svg>