<?xml version="1.0" encoding="utf-8"?>
<svg version="1.1" xmlns:xlink="http://www.w3.org/1999/xlink" width="50px" height="44px" xmlns="http://www.w3.org/2000/svg">
  <defs>
    <pattern id="BGPattern" patternUnits="userSpaceOnUse" alignment="0 0" imageRepeat="None" />
    <mask fill="white" id="Clip2657">
      <path d="M 50 0.5  C 50 0.22499999999999964  49.775 0  49.5 0  L 0.5 0  C 0.22499999999999964 0  0 0.22499999999999964  0 0.5  L 0 4.5  C 0 4.775  0.22499999999999964 5  0.5 5  L 49.5 5  C 49.775 5  50 4.775  50 4.5  L 50 0.5  Z M 50 39.5  C 50 39.225  49.775 39  49.5 39  L 0.5 39  C 0.22499999999999964 39  0 39.225  0 39.5  L 0 43.5  C 0 43.775  0.22499999999999964 44  0.5 44  L 49.5 44  C 49.775 44  50 43.775  50 43.5  L 50 39.5  Z M 50 20  C 50 19.725  49.775 19.5  49.5 20  L 0.5 20  C 0.22499999999999964 19.5  0 19.725  0 20  L 0 24  C 0 24.275  0.22499999999999964 24.499999999999996  0.5 24  L 49.5 24  C 49.775 24.499999999999996  50 24.275  50 24  L 50 20  Z " fill-rule="evenodd" />
    </mask>
  </defs>
  <g>
    <path d="M 50 0.5  C 50 0.22499999999999964  49.775 0  49.5 0  L 0.5 0  C 0.22499999999999964 0  0 0.22499999999999964  0 0.5  L 0 4.5  C 0 4.775  0.22499999999999964 5  0.5 5  L 49.5 5  C 49.775 5  50 4.775  50 4.5  L 50 0.5  Z M 50 39.5  C 50 39.225  49.775 39  49.5 39  L 0.5 39  C 0.22499999999999964 39  0 39.225  0 39.5  L 0 43.5  C 0 43.775  0.22499999999999964 44  0.5 44  L 49.5 44  C 49.775 44  50 43.775  50 43.5  L 50 39.5  Z M 50 20  C 50 19.725  49.775 19.5  49.5 20  L 0.5 20  C 0.22499999999999964 19.5  0 19.725  0 20  L 0 24  C 0 24.275  0.22499999999999964 24.499999999999996  0.5 24  L 49.5 24  C 49.775 24.499999999999996  50 24.275  50 24  L 50 20  Z " fill-rule="nonzero" fill="rgba(0, 0, 0, 1)" stroke="none" class="fill" />
    <path d="M 50 0.5  C 50 0.22499999999999964  49.775 0  49.5 0  L 0.5 0  C 0.22499999999999964 0  0 0.22499999999999964  0 0.5  L 0 4.5  C 0 4.775  0.22499999999999964 5  0.5 5  L 49.5 5  C 49.775 5  50 4.775  50 4.5  L 50 0.5  Z " stroke-width="0" stroke-dasharray="0" stroke="rgba(255, 255, 255, 0)" fill="none" class="stroke" mask="url(#Clip2657)" />
    <path d="M 50 39.5  C 50 39.225  49.775 39  49.5 39  L 0.5 39  C 0.22499999999999964 39  0 39.225  0 39.5  L 0 43.5  C 0 43.775  0.22499999999999964 44  0.5 44  L 49.5 44  C 49.775 44  50 43.775  50 43.5  L 50 39.5  Z " stroke-width="0" stroke-dasharray="0" stroke="rgba(255, 255, 255, 0)" fill="none" class="stroke" mask="url(#Clip2657)" />
    <path d="M 50 20  C 50 19.725  49.775 19.5  49.5 20  L 0.5 20  C 0.22499999999999964 19.5  0 19.725  0 20  L 0 24  C 0 24.275  0.22499999999999964 24.499999999999996  0.5 24  L 49.5 24  C 49.775 24.499999999999996  50 24.275  50 24  L 50 20  Z " stroke-width="0" stroke-dasharray="0" stroke="rgba(255, 255, 255, 0)" fill="none" class="stroke" mask="url(#Clip2657)" />
  </g>
</svg>