<?xml version="1.0" encoding="utf-8"?>
<svg version="1.1" xmlns:xlink="http://www.w3.org/1999/xlink" width="50px" height="50px" xmlns="http://www.w3.org/2000/svg">
  <defs>
    <pattern id="BGPattern" patternUnits="userSpaceOnUse" alignment="0 0" imageRepeat="None" />
    <mask fill="white" id="Clip1834">
      <path d="M 15.911306042884988 24.451267056530213  L 7.717348927875251 27.674463937621823  C 6.785984604587966 27.984963172720768  6.055138611317261 28.715809165991484  5.7446393762183305 29.64717348927877  L 0 46.88109161793375  L 0.45711500974658753 47.338206627680336  L 9.510721247563353 38.284600389863556  C 9.446393762183234 38.03508771929825  9.357699805068222 37.79434697855751  9.357699805068222 37.52436647173488  C 9.357699805068222 35.80214424951265  10.754385964912274 34.40545808966863  12.476608187134502 34.40545808966863  C 14.198830409356717 34.40545808966863  15.595516569200782 35.80214424951265  15.595516569200782 37.52436647173488  C 15.595516569200782 39.24658869395711  14.198830409356717 40.64327485380119  12.476608187134502 40.64327485380119  C 12.206627680311897 40.64327485380119  11.96588693957115 40.55458089668616  11.716374269005854 40.49025341130604  L 2.6627680311890884 49.543859649122794  L 3.11890838206628 50  L 20.352826510721243 44.255360623781655  C 21.284373218281047 43.945156535202045  22.015331973798524 43.214197779684554  22.325536062378163 42.282651072124764  L 25.548732943469787 34.088693957115  L 15.911306042884988 24.451267056530213  Z M 47.12280701754386 13.991228070175424  C 55.399610136452225 6.674463937621823  43.2485380116959 -5.354775828460049  35.98927875243665 2.857699805068222  L 18.142300194931778 22.30116959064327  L 27.679337231968816 31.83820662768031  L 47.12280701754386 13.991228070175424  Z " fill-rule="evenodd" />
    </mask>
  </defs>
  <g>
    <path d="M 15.911306042884988 24.451267056530213  L 7.717348927875251 27.674463937621823  C 6.785984604587966 27.984963172720768  6.055138611317261 28.715809165991484  5.7446393762183305 29.64717348927877  L 0 46.88109161793375  L 0.45711500974658753 47.338206627680336  L 9.510721247563353 38.284600389863556  C 9.446393762183234 38.03508771929825  9.357699805068222 37.79434697855751  9.357699805068222 37.52436647173488  C 9.357699805068222 35.80214424951265  10.754385964912274 34.40545808966863  12.476608187134502 34.40545808966863  C 14.198830409356717 34.40545808966863  15.595516569200782 35.80214424951265  15.595516569200782 37.52436647173488  C 15.595516569200782 39.24658869395711  14.198830409356717 40.64327485380119  12.476608187134502 40.64327485380119  C 12.206627680311897 40.64327485380119  11.96588693957115 40.55458089668616  11.716374269005854 40.49025341130604  L 2.6627680311890884 49.543859649122794  L 3.11890838206628 50  L 20.352826510721243 44.255360623781655  C 21.284373218281047 43.945156535202045  22.015331973798524 43.214197779684554  22.325536062378163 42.282651072124764  L 25.548732943469787 34.088693957115  L 15.911306042884988 24.451267056530213  Z M 47.12280701754386 13.991228070175424  C 55.399610136452225 6.674463937621823  43.2485380116959 -5.354775828460049  35.98927875243665 2.857699805068222  L 18.142300194931778 22.30116959064327  L 27.679337231968816 31.83820662768031  L 47.12280701754386 13.991228070175424  Z " fill-rule="nonzero" fill="rgba(0, 0, 0, 1)" stroke="none" class="fill" />
    <path d="M 15.911306042884988 24.451267056530213  L 7.717348927875251 27.674463937621823  C 6.785984604587966 27.984963172720768  6.055138611317261 28.715809165991484  5.7446393762183305 29.64717348927877  L 0 46.88109161793375  L 0.45711500974658753 47.338206627680336  L 9.510721247563353 38.284600389863556  C 9.446393762183234 38.03508771929825  9.357699805068222 37.79434697855751  9.357699805068222 37.52436647173488  C 9.357699805068222 35.80214424951265  10.754385964912274 34.40545808966863  12.476608187134502 34.40545808966863  C 14.198830409356717 34.40545808966863  15.595516569200782 35.80214424951265  15.595516569200782 37.52436647173488  C 15.595516569200782 39.24658869395711  14.198830409356717 40.64327485380119  12.476608187134502 40.64327485380119  C 12.206627680311897 40.64327485380119  11.96588693957115 40.55458089668616  11.716374269005854 40.49025341130604  L 2.6627680311890884 49.543859649122794  L 3.11890838206628 50  L 20.352826510721243 44.255360623781655  C 21.284373218281047 43.945156535202045  22.015331973798524 43.214197779684554  22.325536062378163 42.282651072124764  L 25.548732943469787 34.088693957115  L 15.911306042884988 24.451267056530213  Z " stroke-width="0" stroke-dasharray="0" stroke="rgba(255, 255, 255, 0)" fill="none" class="stroke" mask="url(#Clip1834)" />
    <path d="M 47.12280701754386 13.991228070175424  C 55.399610136452225 6.674463937621823  43.2485380116959 -5.354775828460049  35.98927875243665 2.857699805068222  L 18.142300194931778 22.30116959064327  L 27.679337231968816 31.83820662768031  L 47.12280701754386 13.991228070175424  Z " stroke-width="0" stroke-dasharray="0" stroke="rgba(255, 255, 255, 0)" fill="none" class="stroke" mask="url(#Clip1834)" />
  </g>
</svg>