<?xml version="1.0" encoding="utf-8"?>
<svg version="1.1" xmlns:xlink="http://www.w3.org/1999/xlink" width="48px" height="42px" xmlns="http://www.w3.org/2000/svg">
  <defs>
    <pattern id="BGPattern" patternUnits="userSpaceOnUse" alignment="0 0" imageRepeat="None" />
    <mask fill="white" id="Clip7018">
      <path d="M 24.772 3  L 2 3  L 2 39  L 24.772 39  C 38.552 39.784  46.052 33.364  46.052 20.954  C 46.052 8.200000000000001  37.924 2.219999999999999  24.772 3  Z M 0 1  L 24.772 1  C 44.982 0.27  48 13.23  48 20.954  C 48 34.354  39.752 41.734  24.772 41  L 0 41  L 0 1  Z M 5 36.72  L 5 23.714  L 13 23.714  L 13 36.72  L 5 36.72  Z M 13.203999999999997 17.164000067651273  C 13.203999999999997 19.671372831883073  11.171372764231801 21.704000067651272  8.664 21.704000067651272  C 6.156627235768196 21.704000067651272  4.123999999999999 19.671372831883073  4.123999999999999 17.164000067651273  C 4.124000037362766 14.656627262187664  6.156627262187662 12.624000067651274  8.664 12.624000067651274  C 11.171372764231801 12.624000067651274  13.203999999999997 14.656627303419473  13.203999999999997 17.164000067651273  Z M 17.296 15.05  L 15.995999999999999 15.05  L 15.995999999999999 19.29  L 17.296 19.29  C 18.195999999999998 19.29  19.03 19.029999999999998  19.03 17.136  C 19.03 15.288  18.104000000000003 15.05  17.296 15.05  Z M 37.699999999999996 12.94  L 37.696 12.942  L 39.802 12.942  L 39.802 19.29  L 42.922 19.29  C 42.065999999999995 7.773999999999998  33.006 5.285999999999999  24.773999999999997 5.285999999999999  L 15.998 5.285999999999999  L 15.998 12.946000000000002  L 17.298 12.946000000000002  C 19.663999999999998 12.946000000000002  21.137999999999998 14.552000000000001  21.137999999999998 17.136  C 21.137999999999998 19.802  19.7 21.394  17.298 21.394  L 16 21.394  L 16 36.724  L 24.773999999999997 36.724  C 38.158 36.724  42.816 30.509999999999998  42.98 21.394  L 37.699999999999996 21.394  L 37.699999999999996 12.94  Z M 31.83400000000001 17.658  L 31.836 17.658  L 33.356 17.658  L 32.660000000000004 15.268  L 32.534000000000006 15.268  L 31.83400000000001 17.658  Z M 28.549999999999997 21.396000000000004  L 28.549999999999997 21.398000000000003  L 31.098 12.942000000000004  L 34.092 12.942000000000004  L 36.64 21.396000000000004  L 34.45 21.396000000000004  L 33.972 19.760000000000005  L 31.22 19.760000000000005  L 30.74 21.396000000000004  L 28.549999999999997 21.396000000000004  Z M 24.439999999999998 19.290000000000003  L 27.539999999999992 19.290000000000003  L 27.539999999999992 21.394  L 22.333999999999996 21.394  L 22.333999999999996 12.946000000000002  L 27.371999999999996 12.946000000000002  L 27.371999999999996 15.05  L 24.437999999999995 15.05  L 24.437999999999995 16.03  L 27.211999999999996 16.03  L 27.211999999999996 18.130000000000003  L 24.439999999999998 18.130000000000003  L 24.439999999999998 19.290000000000003  Z " fill-rule="evenodd" />
    </mask>
  </defs>
  <g>
    <path d="M 24.772 3  L 2 3  L 2 39  L 24.772 39  C 38.552 39.784  46.052 33.364  46.052 20.954  C 46.052 8.200000000000001  37.924 2.219999999999999  24.772 3  Z M 0 1  L 24.772 1  C 44.982 0.27  48 13.23  48 20.954  C 48 34.354  39.752 41.734  24.772 41  L 0 41  L 0 1  Z M 5 36.72  L 5 23.714  L 13 23.714  L 13 36.72  L 5 36.72  Z M 13.203999999999997 17.164000067651273  C 13.203999999999997 19.671372831883073  11.171372764231801 21.704000067651272  8.664 21.704000067651272  C 6.156627235768196 21.704000067651272  4.123999999999999 19.671372831883073  4.123999999999999 17.164000067651273  C 4.124000037362766 14.656627262187664  6.156627262187662 12.624000067651274  8.664 12.624000067651274  C 11.171372764231801 12.624000067651274  13.203999999999997 14.656627303419473  13.203999999999997 17.164000067651273  Z M 17.296 15.05  L 15.995999999999999 15.05  L 15.995999999999999 19.29  L 17.296 19.29  C 18.195999999999998 19.29  19.03 19.029999999999998  19.03 17.136  C 19.03 15.288  18.104000000000003 15.05  17.296 15.05  Z M 37.699999999999996 12.94  L 37.696 12.942  L 39.802 12.942  L 39.802 19.29  L 42.922 19.29  C 42.065999999999995 7.773999999999998  33.006 5.285999999999999  24.773999999999997 5.285999999999999  L 15.998 5.285999999999999  L 15.998 12.946000000000002  L 17.298 12.946000000000002  C 19.663999999999998 12.946000000000002  21.137999999999998 14.552000000000001  21.137999999999998 17.136  C 21.137999999999998 19.802  19.7 21.394  17.298 21.394  L 16 21.394  L 16 36.724  L 24.773999999999997 36.724  C 38.158 36.724  42.816 30.509999999999998  42.98 21.394  L 37.699999999999996 21.394  L 37.699999999999996 12.94  Z M 31.83400000000001 17.658  L 31.836 17.658  L 33.356 17.658  L 32.660000000000004 15.268  L 32.534000000000006 15.268  L 31.83400000000001 17.658  Z M 28.549999999999997 21.396000000000004  L 28.549999999999997 21.398000000000003  L 31.098 12.942000000000004  L 34.092 12.942000000000004  L 36.64 21.396000000000004  L 34.45 21.396000000000004  L 33.972 19.760000000000005  L 31.22 19.760000000000005  L 30.74 21.396000000000004  L 28.549999999999997 21.396000000000004  Z M 24.439999999999998 19.290000000000003  L 27.539999999999992 19.290000000000003  L 27.539999999999992 21.394  L 22.333999999999996 21.394  L 22.333999999999996 12.946000000000002  L 27.371999999999996 12.946000000000002  L 27.371999999999996 15.05  L 24.437999999999995 15.05  L 24.437999999999995 16.03  L 27.211999999999996 16.03  L 27.211999999999996 18.130000000000003  L 24.439999999999998 18.130000000000003  L 24.439999999999998 19.290000000000003  Z " fill-rule="nonzero" fill="rgba(204, 0, 102, 1)" stroke="none" class="fill" />
    <path d="M 24.772 3  L 2 3  L 2 39  L 24.772 39  C 38.552 39.784  46.052 33.364  46.052 20.954  C 46.052 8.200000000000001  37.924 2.219999999999999  24.772 3  Z " stroke-width="0" stroke-dasharray="0" stroke="rgba(255, 255, 255, 0)" fill="none" class="stroke" mask="url(#Clip7018)" />
    <path d="M 0 1  L 24.772 1  C 44.982 0.27  48 13.23  48 20.954  C 48 34.354  39.752 41.734  24.772 41  L 0 41  L 0 1  Z " stroke-width="0" stroke-dasharray="0" stroke="rgba(255, 255, 255, 0)" fill="none" class="stroke" mask="url(#Clip7018)" />
    <path d="M 5 36.72  L 5 23.714  L 13 23.714  L 13 36.72  L 5 36.72  Z " stroke-width="0" stroke-dasharray="0" stroke="rgba(255, 255, 255, 0)" fill="none" class="stroke" mask="url(#Clip7018)" />
    <path d="M 13.203999999999997 17.164000067651273  C 13.203999999999997 19.671372831883073  11.171372764231801 21.704000067651272  8.664 21.704000067651272  C 6.156627235768196 21.704000067651272  4.123999999999999 19.671372831883073  4.123999999999999 17.164000067651273  C 4.124000037362766 14.656627262187664  6.156627262187662 12.624000067651274  8.664 12.624000067651274  C 11.171372764231801 12.624000067651274  13.203999999999997 14.656627303419473  13.203999999999997 17.164000067651273  Z " stroke-width="0" stroke-dasharray="0" stroke="rgba(255, 255, 255, 0)" fill="none" class="stroke" mask="url(#Clip7018)" />
    <path d="M 17.296 15.05  L 15.995999999999999 15.05  L 15.995999999999999 19.29  L 17.296 19.29  C 18.195999999999998 19.29  19.03 19.029999999999998  19.03 17.136  C 19.03 15.288  18.104000000000003 15.05  17.296 15.05  Z " stroke-width="0" stroke-dasharray="0" stroke="rgba(255, 255, 255, 0)" fill="none" class="stroke" mask="url(#Clip7018)" />
    <path d="M 37.699999999999996 12.94  L 37.696 12.942  L 39.802 12.942  L 39.802 19.29  L 42.922 19.29  C 42.065999999999995 7.773999999999998  33.006 5.285999999999999  24.773999999999997 5.285999999999999  L 15.998 5.285999999999999  L 15.998 12.946000000000002  L 17.298 12.946000000000002  C 19.663999999999998 12.946000000000002  21.137999999999998 14.552000000000001  21.137999999999998 17.136  C 21.137999999999998 19.802  19.7 21.394  17.298 21.394  L 16 21.394  L 16 36.724  L 24.773999999999997 36.724  C 38.158 36.724  42.816 30.509999999999998  42.98 21.394  L 37.699999999999996 21.394  L 37.699999999999996 12.94  Z " stroke-width="0" stroke-dasharray="0" stroke="rgba(255, 255, 255, 0)" fill="none" class="stroke" mask="url(#Clip7018)" />
    <path d="M 31.83400000000001 17.658  L 31.836 17.658  L 33.356 17.658  L 32.660000000000004 15.268  L 32.534000000000006 15.268  L 31.83400000000001 17.658  Z " stroke-width="0" stroke-dasharray="0" stroke="rgba(255, 255, 255, 0)" fill="none" class="stroke" mask="url(#Clip7018)" />
    <path d="M 28.549999999999997 21.396000000000004  L 28.549999999999997 21.398000000000003  L 31.098 12.942000000000004  L 34.092 12.942000000000004  L 36.64 21.396000000000004  L 34.45 21.396000000000004  L 33.972 19.760000000000005  L 31.22 19.760000000000005  L 30.74 21.396000000000004  L 28.549999999999997 21.396000000000004  Z " stroke-width="0" stroke-dasharray="0" stroke="rgba(255, 255, 255, 0)" fill="none" class="stroke" mask="url(#Clip7018)" />
    <path d="M 24.439999999999998 19.290000000000003  L 27.539999999999992 19.290000000000003  L 27.539999999999992 21.394  L 22.333999999999996 21.394  L 22.333999999999996 12.946000000000002  L 27.371999999999996 12.946000000000002  L 27.371999999999996 15.05  L 24.437999999999995 15.05  L 24.437999999999995 16.03  L 27.211999999999996 16.03  L 27.211999999999996 18.130000000000003  L 24.439999999999998 18.130000000000003  L 24.439999999999998 19.290000000000003  Z " stroke-width="0" stroke-dasharray="0" stroke="rgba(255, 255, 255, 0)" fill="none" class="stroke" mask="url(#Clip7018)" />
  </g>
</svg>