<?xml version="1.0" encoding="utf-8"?>
<svg version="1.1" xmlns:xlink="http://www.w3.org/1999/xlink" width="20px" height="17px" xmlns="http://www.w3.org/2000/svg">
  <defs>
    <pattern id="BGPattern" patternUnits="userSpaceOnUse" alignment="0 0" imageRepeat="None" />
    <mask fill="white" id="Clip4451">
      <path d="M 0.06000000000000005 11.34  C 0.8280259732772948 13.382643374272938  2.0093284643824525 15.244811854487697  3.5300000000000002 16.81  L 8.530000000000001 11.809999999999999  C 8.503996923364085 11.540830421014398  8.493979339005856 11.270355643342274  8.500000000000002 11  C 8.505506636700902 7.412432525312164  11.412432525312164 4.505506636700902  15 4.5  C 15.264077746970667 4.501402373368814  15.527852673135804 4.518096988948885  15.79 4.550000000000001  L 19.57 0.7800000000000011  C 18.098837199865855 0.2747066856135465  16.555478666088682 0.011288817704094178  15 0  C 8.337902390044642 0.2505282810890499  2.463969548207862 4.441701245880221  0.06000000000000005 10.66  C -0.01943275247906673 10.879707590747842  -0.01943275247906673 11.120292409252158  0.06000000000000005 11.34  Z " fill-rule="evenodd" />
    </mask>
  </defs>
  <g transform="matrix(1 0 0 1 -1 -5 )">
    <path d="M 0.06000000000000005 11.34  C 0.8280259732772948 13.382643374272938  2.0093284643824525 15.244811854487697  3.5300000000000002 16.81  L 8.530000000000001 11.809999999999999  C 8.503996923364085 11.540830421014398  8.493979339005856 11.270355643342274  8.500000000000002 11  C 8.505506636700902 7.412432525312164  11.412432525312164 4.505506636700902  15 4.5  C 15.264077746970667 4.501402373368814  15.527852673135804 4.518096988948885  15.79 4.550000000000001  L 19.57 0.7800000000000011  C 18.098837199865855 0.2747066856135465  16.555478666088682 0.011288817704094178  15 0  C 8.337902390044642 0.2505282810890499  2.463969548207862 4.441701245880221  0.06000000000000005 10.66  C -0.01943275247906673 10.879707590747842  -0.01943275247906673 11.120292409252158  0.06000000000000005 11.34  Z " fill-rule="nonzero" fill="rgba(0, 0, 0, 1)" stroke="none" transform="matrix(1 0 0 1 1 5 )" class="fill" />
    <path d="M 0.06000000000000005 11.34  C 0.8280259732772948 13.382643374272938  2.0093284643824525 15.244811854487697  3.5300000000000002 16.81  L 8.530000000000001 11.809999999999999  C 8.503996923364085 11.540830421014398  8.493979339005856 11.270355643342274  8.500000000000002 11  C 8.505506636700902 7.412432525312164  11.412432525312164 4.505506636700902  15 4.5  C 15.264077746970667 4.501402373368814  15.527852673135804 4.518096988948885  15.79 4.550000000000001  L 19.57 0.7800000000000011  C 18.098837199865855 0.2747066856135465  16.555478666088682 0.011288817704094178  15 0  C 8.337902390044642 0.2505282810890499  2.463969548207862 4.441701245880221  0.06000000000000005 10.66  C -0.01943275247906673 10.879707590747842  -0.01943275247906673 11.120292409252158  0.06000000000000005 11.34  Z " stroke-width="0" stroke-dasharray="0" stroke="rgba(255, 255, 255, 0)" fill="none" transform="matrix(1 0 0 1 1 5 )" class="stroke" mask="url(#Clip4451)" />
  </g>
</svg>