<?xml version="1.0" encoding="utf-8"?>
<svg version="1.1" xmlns:xlink="http://www.w3.org/1999/xlink" width="18px" height="22px" xmlns="http://www.w3.org/2000/svg">
  <defs>
    <pattern id="BGPattern" patternUnits="userSpaceOnUse" alignment="0 0" imageRepeat="None" />
    <mask fill="white" id="Clip4378">
      <path d="M 18 9  L 18 22  L 16 22  L 16 9.000000000000002  C 16 5.134006751184447  12.865993248815553 2.0000000000000018  9 2.0000000000000018  C 5.1340067511844465 2.0000000000000018  2.000000000000001 5.134006751184447  2.000000000000001 9.000000000000002  L 2 22  L 0 22  L 0 9  C 0 4.029437251522859  4.029437251522858 0  9 0  C 13.970562748477139 0  18 4.029437251522859  18 9  Z " fill-rule="evenodd" />
    </mask>
  </defs>
  <g transform="matrix(1 0 0 1 -7 -6 )">
    <path d="M 18 9  L 18 22  L 16 22  L 16 9.000000000000002  C 16 5.134006751184447  12.865993248815553 2.0000000000000018  9 2.0000000000000018  C 5.1340067511844465 2.0000000000000018  2.000000000000001 5.134006751184447  2.000000000000001 9.000000000000002  L 2 22  L 0 22  L 0 9  C 0 4.029437251522859  4.029437251522858 0  9 0  C 13.970562748477139 0  18 4.029437251522859  18 9  Z " fill-rule="nonzero" fill="rgba(0, 0, 0, 1)" stroke="none" transform="matrix(1 0 0 1 7 6 )" class="fill" />
    <path d="M 18 9  L 18 22  L 16 22  L 16 9.000000000000002  C 16 5.134006751184447  12.865993248815553 2.0000000000000018  9 2.0000000000000018  C 5.1340067511844465 2.0000000000000018  2.000000000000001 5.134006751184447  2.000000000000001 9.000000000000002  L 2 22  L 0 22  L 0 9  C 0 4.029437251522859  4.029437251522858 0  9 0  C 13.970562748477139 0  18 4.029437251522859  18 9  Z " stroke-width="0" stroke-dasharray="0" stroke="rgba(255, 255, 255, 0)" fill="none" transform="matrix(1 0 0 1 7 6 )" class="stroke" mask="url(#Clip4378)" />
  </g>
</svg>