<?xml version="1.0" encoding="utf-8"?>
<svg version="1.1" xmlns:xlink="http://www.w3.org/1999/xlink" width="30px" height="24px" xmlns="http://www.w3.org/2000/svg">
  <defs>
    <pattern id="BGPattern" patternUnits="userSpaceOnUse" alignment="0 0" imageRepeat="None" />
    <mask fill="white" id="Clip604">
      <path d="M 14.632000000000001 6.064000000000002  C 14.632000000000001 2.7040000000000024  17.272000000000002 0  20.536 0  C 22.232000000000003 0  23.688000000000002 0.6399999999999997  24.856 1.92  C 26.184 1.6479999999999997  27.432000000000002 1.1680000000000001  28.6 0.4480000000000004  C 28.136000000000003 1.888  27.288 2.992000000000001  26.008000000000003 3.792  C 27.128000000000004 3.6639999999999997  28.264000000000003 3.3599999999999994  29.400000000000002 2.848  C 28.584000000000003 4.064  27.592000000000002 5.119999999999999  26.44 5.984  C 26.456 6.144  26.456 6.416  26.456 6.768000000000001  C 26.456 10.016000000000002  25.544 13.312000000000001  23.656 16.288  C 21.768 19.28  19.24 21.616  15.559999999999999 22.976  C 13.719999999999999 23.663999999999998  11.767999999999999 24  9.655999999999999 24  C 6.359999999999999 24  3.3359999999999985 23.104  0.5999999999999996 21.28  C 1.0159999999999996 21.344  1.4959999999999996 21.36  2.0239999999999996 21.36  C 4.76 21.36  7.208 20.496  9.352 18.768  C 6.792 18.720000000000002  4.5840000000000005 16.992  3.8320000000000007 14.576  C 4.232000000000001 14.623999999999999  4.6000000000000005 14.655999999999999  4.952000000000001 14.655999999999999  C 5.48 14.655999999999999  5.992000000000001 14.591999999999999  6.504000000000001 14.463999999999999  C 3.7840000000000003 13.872  1.7680000000000016 11.439999999999998  1.7680000000000016 8.511999999999999  L 1.7680000000000016 8.431999999999999  C 2.5840000000000014 8.911999999999999  3.4800000000000013 9.168  4.440000000000001 9.2  C 2.824000000000001 8.096  1.8000000000000012 6.239999999999998  1.8000000000000012 4.16  C 1.8000000000000012 3.056  2.088000000000001 2.048  2.616000000000001 1.104  C 5.5600000000000005 4.832000000000001  9.96 7.199999999999999  14.776000000000002 7.440000000000001  C 14.696000000000002 6.976000000000001  14.632000000000001 6.5120000000000005  14.632000000000001 6.064000000000002  Z " fill-rule="evenodd" />
    </mask>
  </defs>
  <g>
    <path d="M 14.632000000000001 6.064000000000002  C 14.632000000000001 2.7040000000000024  17.272000000000002 0  20.536 0  C 22.232000000000003 0  23.688000000000002 0.6399999999999997  24.856 1.92  C 26.184 1.6479999999999997  27.432000000000002 1.1680000000000001  28.6 0.4480000000000004  C 28.136000000000003 1.888  27.288 2.992000000000001  26.008000000000003 3.792  C 27.128000000000004 3.6639999999999997  28.264000000000003 3.3599999999999994  29.400000000000002 2.848  C 28.584000000000003 4.064  27.592000000000002 5.119999999999999  26.44 5.984  C 26.456 6.144  26.456 6.416  26.456 6.768000000000001  C 26.456 10.016000000000002  25.544 13.312000000000001  23.656 16.288  C 21.768 19.28  19.24 21.616  15.559999999999999 22.976  C 13.719999999999999 23.663999999999998  11.767999999999999 24  9.655999999999999 24  C 6.359999999999999 24  3.3359999999999985 23.104  0.5999999999999996 21.28  C 1.0159999999999996 21.344  1.4959999999999996 21.36  2.0239999999999996 21.36  C 4.76 21.36  7.208 20.496  9.352 18.768  C 6.792 18.720000000000002  4.5840000000000005 16.992  3.8320000000000007 14.576  C 4.232000000000001 14.623999999999999  4.6000000000000005 14.655999999999999  4.952000000000001 14.655999999999999  C 5.48 14.655999999999999  5.992000000000001 14.591999999999999  6.504000000000001 14.463999999999999  C 3.7840000000000003 13.872  1.7680000000000016 11.439999999999998  1.7680000000000016 8.511999999999999  L 1.7680000000000016 8.431999999999999  C 2.5840000000000014 8.911999999999999  3.4800000000000013 9.168  4.440000000000001 9.2  C 2.824000000000001 8.096  1.8000000000000012 6.239999999999998  1.8000000000000012 4.16  C 1.8000000000000012 3.056  2.088000000000001 2.048  2.616000000000001 1.104  C 5.5600000000000005 4.832000000000001  9.96 7.199999999999999  14.776000000000002 7.440000000000001  C 14.696000000000002 6.976000000000001  14.632000000000001 6.5120000000000005  14.632000000000001 6.064000000000002  Z " fill-rule="nonzero" fill="rgba(0, 0, 0, 1)" stroke="none" class="fill" />
    <path d="M 14.632000000000001 6.064000000000002  C 14.632000000000001 2.7040000000000024  17.272000000000002 0  20.536 0  C 22.232000000000003 0  23.688000000000002 0.6399999999999997  24.856 1.92  C 26.184 1.6479999999999997  27.432000000000002 1.1680000000000001  28.6 0.4480000000000004  C 28.136000000000003 1.888  27.288 2.992000000000001  26.008000000000003 3.792  C 27.128000000000004 3.6639999999999997  28.264000000000003 3.3599999999999994  29.400000000000002 2.848  C 28.584000000000003 4.064  27.592000000000002 5.119999999999999  26.44 5.984  C 26.456 6.144  26.456 6.416  26.456 6.768000000000001  C 26.456 10.016000000000002  25.544 13.312000000000001  23.656 16.288  C 21.768 19.28  19.24 21.616  15.559999999999999 22.976  C 13.719999999999999 23.663999999999998  11.767999999999999 24  9.655999999999999 24  C 6.359999999999999 24  3.3359999999999985 23.104  0.5999999999999996 21.28  C 1.0159999999999996 21.344  1.4959999999999996 21.36  2.0239999999999996 21.36  C 4.76 21.36  7.208 20.496  9.352 18.768  C 6.792 18.720000000000002  4.5840000000000005 16.992  3.8320000000000007 14.576  C 4.232000000000001 14.623999999999999  4.6000000000000005 14.655999999999999  4.952000000000001 14.655999999999999  C 5.48 14.655999999999999  5.992000000000001 14.591999999999999  6.504000000000001 14.463999999999999  C 3.7840000000000003 13.872  1.7680000000000016 11.439999999999998  1.7680000000000016 8.511999999999999  L 1.7680000000000016 8.431999999999999  C 2.5840000000000014 8.911999999999999  3.4800000000000013 9.168  4.440000000000001 9.2  C 2.824000000000001 8.096  1.8000000000000012 6.239999999999998  1.8000000000000012 4.16  C 1.8000000000000012 3.056  2.088000000000001 2.048  2.616000000000001 1.104  C 5.5600000000000005 4.832000000000001  9.96 7.199999999999999  14.776000000000002 7.440000000000001  C 14.696000000000002 6.976000000000001  14.632000000000001 6.5120000000000005  14.632000000000001 6.064000000000002  Z " stroke-width="0" stroke-dasharray="0" stroke="rgba(255, 255, 255, 0)" fill="none" class="stroke" mask="url(#Clip604)" />
  </g>
</svg>