<?xml version="1.0" encoding="utf-8"?>
<svg version="1.1" xmlns:xlink="http://www.w3.org/1999/xlink" width="30px" height="30px" xmlns="http://www.w3.org/2000/svg">
  <defs>
    <pattern id="BGPattern" patternUnits="userSpaceOnUse" alignment="0 0" imageRepeat="None" />
    <mask fill="white" id="Clip130">
      <path d="M 0.5999999999999979 14.999999999999998  C 0.5999999999999979 7.047999999999998  7.047999999999998 0.5999999999999979  15 0.6000000000000001  C 22.951999999999998 0.6000000000000001  29.4 7.048  29.4 15  C 29.4 22.951999999999998  22.951999999999998 29.4  14.999999999999998 29.4  C 7.047999999999998 29.4  0.5999999999999979 22.951999999999998  0.5999999999999979 14.999999999999998  Z M 3 15  C 3 21.624  8.376000000000001 27  15 27  C 21.624 27  27 21.624  27 15  C 27 8.376000000000001  21.624 3  15 3  C 8.376000000000001 3  3 8.376000000000001  3 15  Z M 15.800000000000002 14.2  L 21 14.2  C 21.656 14.2  22.2 14.728  22.2 15.399999999999999  C 22.2 16.055999999999997  21.656 16.599999999999998  21 16.599999999999998  L 14.6 16.599999999999998  C 13.927999999999999 16.599999999999998  13.4 16.055999999999997  13.4 15.399999999999999  L 13.4 8.2  C 13.4 7.543999999999999  13.928 6.999999999999999  14.6 6.999999999999999  C 15.256000000000002 6.999999999999999  15.800000000000002 7.543999999999999  15.800000000000002 8.2  L 15.800000000000002 14.2  Z " fill-rule="evenodd" />
    </mask>
  </defs>
  <g>
    <path d="M 0.5999999999999979 14.999999999999998  C 0.5999999999999979 7.047999999999998  7.047999999999998 0.5999999999999979  15 0.6000000000000001  C 22.951999999999998 0.6000000000000001  29.4 7.048  29.4 15  C 29.4 22.951999999999998  22.951999999999998 29.4  14.999999999999998 29.4  C 7.047999999999998 29.4  0.5999999999999979 22.951999999999998  0.5999999999999979 14.999999999999998  Z M 3 15  C 3 21.624  8.376000000000001 27  15 27  C 21.624 27  27 21.624  27 15  C 27 8.376000000000001  21.624 3  15 3  C 8.376000000000001 3  3 8.376000000000001  3 15  Z M 15.800000000000002 14.2  L 21 14.2  C 21.656 14.2  22.2 14.728  22.2 15.399999999999999  C 22.2 16.055999999999997  21.656 16.599999999999998  21 16.599999999999998  L 14.6 16.599999999999998  C 13.927999999999999 16.599999999999998  13.4 16.055999999999997  13.4 15.399999999999999  L 13.4 8.2  C 13.4 7.543999999999999  13.928 6.999999999999999  14.6 6.999999999999999  C 15.256000000000002 6.999999999999999  15.800000000000002 7.543999999999999  15.800000000000002 8.2  L 15.800000000000002 14.2  Z " fill-rule="nonzero" fill="rgba(0, 0, 0, 1)" stroke="none" class="fill" />
    <path d="M 0.5999999999999979 14.999999999999998  C 0.5999999999999979 7.047999999999998  7.047999999999998 0.5999999999999979  15 0.6000000000000001  C 22.951999999999998 0.6000000000000001  29.4 7.048  29.4 15  C 29.4 22.951999999999998  22.951999999999998 29.4  14.999999999999998 29.4  C 7.047999999999998 29.4  0.5999999999999979 22.951999999999998  0.5999999999999979 14.999999999999998  Z " stroke-width="0" stroke-dasharray="0" stroke="rgba(255, 255, 255, 0)" fill="none" class="stroke" mask="url(#Clip130)" />
    <path d="M 3 15  C 3 21.624  8.376000000000001 27  15 27  C 21.624 27  27 21.624  27 15  C 27 8.376000000000001  21.624 3  15 3  C 8.376000000000001 3  3 8.376000000000001  3 15  Z " stroke-width="0" stroke-dasharray="0" stroke="rgba(255, 255, 255, 0)" fill="none" class="stroke" mask="url(#Clip130)" />
    <path d="M 15.800000000000002 14.2  L 21 14.2  C 21.656 14.2  22.2 14.728  22.2 15.399999999999999  C 22.2 16.055999999999997  21.656 16.599999999999998  21 16.599999999999998  L 14.6 16.599999999999998  C 13.927999999999999 16.599999999999998  13.4 16.055999999999997  13.4 15.399999999999999  L 13.4 8.2  C 13.4 7.543999999999999  13.928 6.999999999999999  14.6 6.999999999999999  C 15.256000000000002 6.999999999999999  15.800000000000002 7.543999999999999  15.800000000000002 8.2  L 15.800000000000002 14.2  Z " stroke-width="0" stroke-dasharray="0" stroke="rgba(255, 255, 255, 0)" fill="none" class="stroke" mask="url(#Clip130)" />
  </g>
</svg>