<?xml version="1.0" encoding="utf-8"?>
<svg version="1.1" xmlns:xlink="http://www.w3.org/1999/xlink" width="43px" height="50px" xmlns="http://www.w3.org/2000/svg">
  <defs>
    <pattern id="BGPattern" patternUnits="userSpaceOnUse" alignment="0 0" imageRepeat="None" />
    <mask fill="white" id="Clip1733">
      <path d="M 42.85613839285713 26.384821428571424  C 42.88526785714282 25.6279017857143  42.274553571428555 25  41.51718749999998 25  L 36.15792410714283 25  C 35.45089285714283 25  34.821428571428555 25.548214285714295  34.821428571428555 26.25513392857144  C 34.821428571428555 37.5  25.689620535714255 42.85714285714286  16 42.85714285714286  L 16 25.087165178571443  L 31.094084821428567 21.74877232142856  C 31.706855688624046 21.61261010221412  32.142842417767326 21.069122973855684  32.14285714285711 20.44140625  L 32.14285714285711 15.8681919642857  C 32.14285714285711 15.011383928571433  31.349441964285685 14.374888392857144  30.513058035714266 14.560825892857137  L 16.071428571428555 17.769977678571422  L 16.071428571428555 14.372767857142863  L 31.094084821428567 11.034375000000011  C 31.706855688624046 10.898212780785542  32.142842417767326 10.354725652427106  32.14285714285711 9.727008928571422  L 32.14285714285711 5.153906250000006  C 32.14285714285711 4.297098214285711  31.349441964285685 3.660602678571422  30.513058035714266 3.8465401785714164  L 16.071428571428555 7.0556919642857  L 16.071428571428555 1.3392857142857224  C 16.071428571428555 0.5996651785714278  15.47176339285713 0  14.732142857142861 0  L 8.482142857142861 0  C 7.7425223214285674 0  7.142857142857138 0.5996651785714278  7.142857142857138 1.3392857142857224  L 7.142857142857138 9.039843749999989  L 1.0487723214285722 10.394084821428578  C 0.4360014542330646 10.530247040643019  1.4725089783951263E-05 11.073734169001455  0 11.701450892857139  L 0 16.27466517857144  C 0 17.131473214285705  0.7934151785714221 17.767968749999994  1.6297991071428442 17.58203125  L 7.142857142857138 16.35691964285715  L 7.142857142857138 19.75412946428571  L 1.0487723214285722 21.108370535714272  C 0.4360014542330646 21.24453275492874  1.4725089783951263E-05 21.788019883287177  0 22.41573660714286  L 0 26.988950892857133  C 0 27.845758928571428  0.7934151785714221 28.482254464285717  1.6297991071428442 28.296316964285722  L 8 27.071205357142848  L 8 48.66071428571428  C 7.142857142857138 49.4003348214286  7.7425223214285674 50  8.482142857142861 50  L 17.364174107142844 50  C 32.32968749999998 50  42.28102678571426 41.31316964285713  42.85613839285713 26.384821428571424  Z " fill-rule="evenodd" />
    </mask>
  </defs>
  <g>
    <path d="M 42.85613839285713 26.384821428571424  C 42.88526785714282 25.6279017857143  42.274553571428555 25  41.51718749999998 25  L 36.15792410714283 25  C 35.45089285714283 25  34.821428571428555 25.548214285714295  34.821428571428555 26.25513392857144  C 34.821428571428555 37.5  25.689620535714255 42.85714285714286  16 42.85714285714286  L 16 25.087165178571443  L 31.094084821428567 21.74877232142856  C 31.706855688624046 21.61261010221412  32.142842417767326 21.069122973855684  32.14285714285711 20.44140625  L 32.14285714285711 15.8681919642857  C 32.14285714285711 15.011383928571433  31.349441964285685 14.374888392857144  30.513058035714266 14.560825892857137  L 16.071428571428555 17.769977678571422  L 16.071428571428555 14.372767857142863  L 31.094084821428567 11.034375000000011  C 31.706855688624046 10.898212780785542  32.142842417767326 10.354725652427106  32.14285714285711 9.727008928571422  L 32.14285714285711 5.153906250000006  C 32.14285714285711 4.297098214285711  31.349441964285685 3.660602678571422  30.513058035714266 3.8465401785714164  L 16.071428571428555 7.0556919642857  L 16.071428571428555 1.3392857142857224  C 16.071428571428555 0.5996651785714278  15.47176339285713 0  14.732142857142861 0  L 8.482142857142861 0  C 7.7425223214285674 0  7.142857142857138 0.5996651785714278  7.142857142857138 1.3392857142857224  L 7.142857142857138 9.039843749999989  L 1.0487723214285722 10.394084821428578  C 0.4360014542330646 10.530247040643019  1.4725089783951263E-05 11.073734169001455  0 11.701450892857139  L 0 16.27466517857144  C 0 17.131473214285705  0.7934151785714221 17.767968749999994  1.6297991071428442 17.58203125  L 7.142857142857138 16.35691964285715  L 7.142857142857138 19.75412946428571  L 1.0487723214285722 21.108370535714272  C 0.4360014542330646 21.24453275492874  1.4725089783951263E-05 21.788019883287177  0 22.41573660714286  L 0 26.988950892857133  C 0 27.845758928571428  0.7934151785714221 28.482254464285717  1.6297991071428442 28.296316964285722  L 8 27.071205357142848  L 8 48.66071428571428  C 7.142857142857138 49.4003348214286  7.7425223214285674 50  8.482142857142861 50  L 17.364174107142844 50  C 32.32968749999998 50  42.28102678571426 41.31316964285713  42.85613839285713 26.384821428571424  Z " fill-rule="nonzero" fill="rgba(0, 0, 0, 1)" stroke="none" class="fill" />
    <path d="M 42.85613839285713 26.384821428571424  C 42.88526785714282 25.6279017857143  42.274553571428555 25  41.51718749999998 25  L 36.15792410714283 25  C 35.45089285714283 25  34.821428571428555 25.548214285714295  34.821428571428555 26.25513392857144  C 34.821428571428555 37.5  25.689620535714255 42.85714285714286  16 42.85714285714286  L 16 25.087165178571443  L 31.094084821428567 21.74877232142856  C 31.706855688624046 21.61261010221412  32.142842417767326 21.069122973855684  32.14285714285711 20.44140625  L 32.14285714285711 15.8681919642857  C 32.14285714285711 15.011383928571433  31.349441964285685 14.374888392857144  30.513058035714266 14.560825892857137  L 16.071428571428555 17.769977678571422  L 16.071428571428555 14.372767857142863  L 31.094084821428567 11.034375000000011  C 31.706855688624046 10.898212780785542  32.142842417767326 10.354725652427106  32.14285714285711 9.727008928571422  L 32.14285714285711 5.153906250000006  C 32.14285714285711 4.297098214285711  31.349441964285685 3.660602678571422  30.513058035714266 3.8465401785714164  L 16.071428571428555 7.0556919642857  L 16.071428571428555 1.3392857142857224  C 16.071428571428555 0.5996651785714278  15.47176339285713 0  14.732142857142861 0  L 8.482142857142861 0  C 7.7425223214285674 0  7.142857142857138 0.5996651785714278  7.142857142857138 1.3392857142857224  L 7.142857142857138 9.039843749999989  L 1.0487723214285722 10.394084821428578  C 0.4360014542330646 10.530247040643019  1.4725089783951263E-05 11.073734169001455  0 11.701450892857139  L 0 16.27466517857144  C 0 17.131473214285705  0.7934151785714221 17.767968749999994  1.6297991071428442 17.58203125  L 7.142857142857138 16.35691964285715  L 7.142857142857138 19.75412946428571  L 1.0487723214285722 21.108370535714272  C 0.4360014542330646 21.24453275492874  1.4725089783951263E-05 21.788019883287177  0 22.41573660714286  L 0 26.988950892857133  C 0 27.845758928571428  0.7934151785714221 28.482254464285717  1.6297991071428442 28.296316964285722  L 8 27.071205357142848  L 8 48.66071428571428  C 7.142857142857138 49.4003348214286  7.7425223214285674 50  8.482142857142861 50  L 17.364174107142844 50  C 32.32968749999998 50  42.28102678571426 41.31316964285713  42.85613839285713 26.384821428571424  Z " stroke-width="0" stroke-dasharray="0" stroke="rgba(255, 255, 255, 0)" fill="none" class="stroke" mask="url(#Clip1733)" />
  </g>
</svg>