<?xml version="1.0" encoding="utf-8"?>
<svg version="1.1" xmlns:xlink="http://www.w3.org/1999/xlink" width="24px" height="24px" xmlns="http://www.w3.org/2000/svg">
  <defs>
    <pattern id="BGPattern" patternUnits="userSpaceOnUse" alignment="0 0" imageRepeat="None" />
    <mask fill="white" id="Clip6020">
      <path d="M 17.25 1.194  C 18.103256970551413 0.4314278487712312  19.392980121635997 0.4307823416886046  20.247 1.1925000000000001  L 20.470499999999998 0.9690000000000001  C 20.810112341562984 0.6295864947025657  21.27060619849863 0.438922679038799  21.750749999999996 0.438922679038799  C 22.750980385131278 0.438922679038799  23.5618273209612 1.2497696148687198  23.5618273209612 2.25  C 23.5618273209612 2.730511343637325  23.370872309191483 3.191326679279937  23.031 3.531  L 22.8075 3.753  C 23.60126336433943 4.643230473367406  23.562437623908043 5.998183008083105  22.719 6.8415  L 7.281000000000001 22.281  C 7.184491495501034 22.37700390310897  7.063673856182337 22.444931417060687  6.931500000000001 22.4775  L 0.9315000000000007 23.9775  C 0.872222487732355 23.992260738039242  0.811363624695342 23.999724040574364  0.7502759594256334 23.999724040574364  C 0.3360623970525383 23.999724040574364  0.0002759594256334097 23.66393760294746  0.0002759594256334097 23.249724040574364  C 0.0002759594256334097 23.18863637530466  0.007739261960761081 23.127777512267638  0.022500000000000686 23.0685  L 1.5225000000000009 17.0685  C 1.55531970746244 16.93686267062469  1.6232308305409116 16.816592590058235  1.7190000000000007 16.7205  L 16.182000000000002 2.257500000000001  C 15.883359395143243 2.0473128113606704  15.476739151725086 2.08278124380836  15.219000000000001 2.3415000000000012  L 10.281 7.281000000000001  C 10.140170043895202 7.421829956104799  9.949163633911812 7.500947401620113  9.75 7.500947401620113  C 9.335263202160151 7.500947401620113  8.999052598379887 7.164736797839849  8.999052598379887 6.75  C 8.999052598379887 6.550836366088187  9.078170043895202 6.359829956104798  9.219 6.218999999999999  L 14.16 1.2809999999999997  C 15.003909273979978 0.43706042000094725  16.359942470362277 0.3988808445688243  17.25 1.194  Z M 18.220499999999998 2.3415  C 18.513374888614358 2.048713546250352  18.98812511138564 2.048713546250352  19.281 2.3415  L 19.2825 2.3415  L 21.66 4.718999999999999  C 21.80106255103145 4.85970639451525  21.880340675528128 5.050759108712638  21.880340675528128 5.25  C 21.880340675528128 5.449240891287362  21.80106255103145 5.64029360548475  21.66 5.781000000000001  L 6.3645000000000005 21.073500000000003  L 1.779 22.2195  L 2.925 17.634  L 18.220499999999998 2.3415  Z " fill-rule="evenodd" />
    </mask>
  </defs>
  <g>
    <path d="M 17.25 1.194  C 18.103256970551413 0.4314278487712312  19.392980121635997 0.4307823416886046  20.247 1.1925000000000001  L 20.470499999999998 0.9690000000000001  C 20.810112341562984 0.6295864947025657  21.27060619849863 0.438922679038799  21.750749999999996 0.438922679038799  C 22.750980385131278 0.438922679038799  23.5618273209612 1.2497696148687198  23.5618273209612 2.25  C 23.5618273209612 2.730511343637325  23.370872309191483 3.191326679279937  23.031 3.531  L 22.8075 3.753  C 23.60126336433943 4.643230473367406  23.562437623908043 5.998183008083105  22.719 6.8415  L 7.281000000000001 22.281  C 7.184491495501034 22.37700390310897  7.063673856182337 22.444931417060687  6.931500000000001 22.4775  L 0.9315000000000007 23.9775  C 0.872222487732355 23.992260738039242  0.811363624695342 23.999724040574364  0.7502759594256334 23.999724040574364  C 0.3360623970525383 23.999724040574364  0.0002759594256334097 23.66393760294746  0.0002759594256334097 23.249724040574364  C 0.0002759594256334097 23.18863637530466  0.007739261960761081 23.127777512267638  0.022500000000000686 23.0685  L 1.5225000000000009 17.0685  C 1.55531970746244 16.93686267062469  1.6232308305409116 16.816592590058235  1.7190000000000007 16.7205  L 16.182000000000002 2.257500000000001  C 15.883359395143243 2.0473128113606704  15.476739151725086 2.08278124380836  15.219000000000001 2.3415000000000012  L 10.281 7.281000000000001  C 10.140170043895202 7.421829956104799  9.949163633911812 7.500947401620113  9.75 7.500947401620113  C 9.335263202160151 7.500947401620113  8.999052598379887 7.164736797839849  8.999052598379887 6.75  C 8.999052598379887 6.550836366088187  9.078170043895202 6.359829956104798  9.219 6.218999999999999  L 14.16 1.2809999999999997  C 15.003909273979978 0.43706042000094725  16.359942470362277 0.3988808445688243  17.25 1.194  Z M 18.220499999999998 2.3415  C 18.513374888614358 2.048713546250352  18.98812511138564 2.048713546250352  19.281 2.3415  L 19.2825 2.3415  L 21.66 4.718999999999999  C 21.80106255103145 4.85970639451525  21.880340675528128 5.050759108712638  21.880340675528128 5.25  C 21.880340675528128 5.449240891287362  21.80106255103145 5.64029360548475  21.66 5.781000000000001  L 6.3645000000000005 21.073500000000003  L 1.779 22.2195  L 2.925 17.634  L 18.220499999999998 2.3415  Z " fill-rule="nonzero" fill="rgba(0, 0, 0, 1)" stroke="none" class="fill" />
    <path d="M 17.25 1.194  C 18.103256970551413 0.4314278487712312  19.392980121635997 0.4307823416886046  20.247 1.1925000000000001  L 20.470499999999998 0.9690000000000001  C 20.810112341562984 0.6295864947025657  21.27060619849863 0.438922679038799  21.750749999999996 0.438922679038799  C 22.750980385131278 0.438922679038799  23.5618273209612 1.2497696148687198  23.5618273209612 2.25  C 23.5618273209612 2.730511343637325  23.370872309191483 3.191326679279937  23.031 3.531  L 22.8075 3.753  C 23.60126336433943 4.643230473367406  23.562437623908043 5.998183008083105  22.719 6.8415  L 7.281000000000001 22.281  C 7.184491495501034 22.37700390310897  7.063673856182337 22.444931417060687  6.931500000000001 22.4775  L 0.9315000000000007 23.9775  C 0.872222487732355 23.992260738039242  0.811363624695342 23.999724040574364  0.7502759594256334 23.999724040574364  C 0.3360623970525383 23.999724040574364  0.0002759594256334097 23.66393760294746  0.0002759594256334097 23.249724040574364  C 0.0002759594256334097 23.18863637530466  0.007739261960761081 23.127777512267638  0.022500000000000686 23.0685  L 1.5225000000000009 17.0685  C 1.55531970746244 16.93686267062469  1.6232308305409116 16.816592590058235  1.7190000000000007 16.7205  L 16.182000000000002 2.257500000000001  C 15.883359395143243 2.0473128113606704  15.476739151725086 2.08278124380836  15.219000000000001 2.3415000000000012  L 10.281 7.281000000000001  C 10.140170043895202 7.421829956104799  9.949163633911812 7.500947401620113  9.75 7.500947401620113  C 9.335263202160151 7.500947401620113  8.999052598379887 7.164736797839849  8.999052598379887 6.75  C 8.999052598379887 6.550836366088187  9.078170043895202 6.359829956104798  9.219 6.218999999999999  L 14.16 1.2809999999999997  C 15.003909273979978 0.43706042000094725  16.359942470362277 0.3988808445688243  17.25 1.194  Z " stroke-width="0" stroke-dasharray="0" stroke="rgba(255, 255, 255, 0)" fill="none" class="stroke" mask="url(#Clip6020)" />
    <path d="M 18.220499999999998 2.3415  C 18.513374888614358 2.048713546250352  18.98812511138564 2.048713546250352  19.281 2.3415  L 19.2825 2.3415  L 21.66 4.718999999999999  C 21.80106255103145 4.85970639451525  21.880340675528128 5.050759108712638  21.880340675528128 5.25  C 21.880340675528128 5.449240891287362  21.80106255103145 5.64029360548475  21.66 5.781000000000001  L 6.3645000000000005 21.073500000000003  L 1.779 22.2195  L 2.925 17.634  L 18.220499999999998 2.3415  Z " stroke-width="0" stroke-dasharray="0" stroke="rgba(255, 255, 255, 0)" fill="none" class="stroke" mask="url(#Clip6020)" />
  </g>
</svg>