<?xml version="1.0" encoding="utf-8"?>
<svg version="1.1" xmlns:xlink="http://www.w3.org/1999/xlink" width="16px" height="15px" xmlns="http://www.w3.org/2000/svg">
  <defs>
    <pattern id="BGPattern" patternUnits="userSpaceOnUse" alignment="0 0" imageRepeat="None" />
    <mask fill="white" id="Clip480">
      <path d="M 0.8000000000000025 12.352  L 0.8000000000000007 2.8480000000000008  C 0.8000000000000007 1.4240000000000013  1.8240000000000016 0.40000000000000036  3.248000000000001 0.40000000000000036  L 12.752000000000002 0.40000000000000036  C 14.176000000000002 0.40000000000000036  15.200000000000003 1.4239999999999995  15.200000000000003 2.8480000000000008  L 15.200000000000003 12.352  C 15.200000000000003 13.776  14.176000000000002 14.8  12.752000000000002 14.8  L 3.248000000000003 14.8  C 1.8240000000000034 14.8  0.8000000000000025 13.776  0.8000000000000025 12.352  Z " fill-rule="evenodd" />
    </mask>
  </defs>
  <g>
    <path d="M 0.8000000000000025 12.352  L 0.8000000000000007 2.8480000000000008  C 0.8000000000000007 1.4240000000000013  1.8240000000000016 0.40000000000000036  3.248000000000001 0.40000000000000036  L 12.752000000000002 0.40000000000000036  C 14.176000000000002 0.40000000000000036  15.200000000000003 1.4239999999999995  15.200000000000003 2.8480000000000008  L 15.200000000000003 12.352  C 15.200000000000003 13.776  14.176000000000002 14.8  12.752000000000002 14.8  L 3.248000000000003 14.8  C 1.8240000000000034 14.8  0.8000000000000025 13.776  0.8000000000000025 12.352  Z " fill-rule="nonzero" fill="rgba(0, 0, 0, 1)" stroke="none" class="fill" />
    <path d="M 0.8000000000000025 12.352  L 0.8000000000000007 2.8480000000000008  C 0.8000000000000007 1.4240000000000013  1.8240000000000016 0.40000000000000036  3.248000000000001 0.40000000000000036  L 12.752000000000002 0.40000000000000036  C 14.176000000000002 0.40000000000000036  15.200000000000003 1.4239999999999995  15.200000000000003 2.8480000000000008  L 15.200000000000003 12.352  C 15.200000000000003 13.776  14.176000000000002 14.8  12.752000000000002 14.8  L 3.248000000000003 14.8  C 1.8240000000000034 14.8  0.8000000000000025 13.776  0.8000000000000025 12.352  Z " stroke-width="0" stroke-dasharray="0" stroke="rgba(255, 255, 255, 0)" fill="none" class="stroke" mask="url(#Clip480)" />
  </g>
</svg>