<?xml version="1.0" encoding="utf-8"?>
<svg version="1.1" xmlns:xlink="http://www.w3.org/1999/xlink" width="50px" height="40px" xmlns="http://www.w3.org/2000/svg">
  <defs>
    <pattern id="BGPattern" patternUnits="userSpaceOnUse" alignment="0 0" imageRepeat="None" />
    <mask fill="white" id="Clip1647">
      <path d="M 40.015600624024955 16.848673946957888  C 40.015600624024955 15.811232449297961  39.18096723868956 14.976599063962567  38.143525741029634 15  L 26.28705148205927 15  L 26.28705148205927 19.34477379095165  C 26.28705148205927 22.441497659906418  23.767550702028075 24.96099843993761  20.670826833073306 24.96099843993761  C 17.574102964118566 24.96099843993761  15.054602184087374 22.441497659906418  15.054602184087374 19.34477379095165  L 15.054602184087374 9.859594383775345  L 9.992199687987522 12.90171606864277  C 8.486739469578794 13.798751950077985  7.5663026521060885 15.429017160686442  7.5663026521060885 17.176287051482063  L 7.5663026521060885 20.86583463338536  L 1.3260530421216856 24.46957878315135  C 0.1326053042121771 25.15600624024961  -0.2808112324493095 26.6848673946958  0.4134165366614582 27.878315132605337  L 6.65366614664586 38.6895475819033  C 7.340093603744151 39.882995319812835  8.868954758190341 40.28861154446179  10.06240249609985 39.602184087363526  L 18.12792511700468 35  L 28.78315132605303 35  C 31.536661466458664 34.945397815912656  33.77535101404055 32.70670826833077  33.77535101404055 29.953198127925134  L 35.02340093603743 29.953198127925134  C 36.40405616224649 29.953198127925134  37.519500780031194 28.83775351014043  37.519500780031194 27.457098283931373  L 37.519500780031194 22.46489859594385  L 38.143525741029634 22.46489859594385  C 39.18096723868956 22.46489859594385  40.015600624024955 21.630265210608457  40.015600624024955 20.59282371294853  L 40.015600624024955 16.848673946957888  Z M 48.75195007800312 15.46801872074883  C 49.94539781591263 14.773790951638091  50.3510140405616 13.252730109204379  49.66458658346335 12.059282371294842  L 43.424336973478944 1.2480499219968806  C 42.737909516380654 0.05460218408734363  41.20904836193449 -0.35101404056160845  40.015600624024955 0.33541341653665313  L 31.950078003120126 4.992199687987522  L 23.978159126365057 4.992199687987522  C 23.042121684867396 4.992199687987522  22.12948517940717 5.2574102964118765  21.333853354134163 5.74882995319814  L 18.72074882995321 7.379095163806539  C 17.987519500780024 7.831513260530414  17.550702028081133 8.634945397815898  17.550702028081133 9.492979719188781  L 17.550702028081133 19.34477379095165  C 17.550702028081133 21.068642745709838  18.946957878315118 22.46489859594385  20.670826833073306 22.46489859594385  C 22.394695787831523 22.46489859594385  23.790951638065508 21.068642745709838  23.790951638065508 19.34477379095165  L 23.790951638065508 13  L 38.143525741029634 13  C 40.55382215288611 12.480499219968806  42.51170046801872 14.438377535101438  42.51170046801872 16.848673946957888  L 42.51170046801872 19.071762870514817  L 48.75195007800312 15.46801872074883  Z " fill-rule="evenodd" />
    </mask>
  </defs>
  <g>
    <path d="M 40.015600624024955 16.848673946957888  C 40.015600624024955 15.811232449297961  39.18096723868956 14.976599063962567  38.143525741029634 15  L 26.28705148205927 15  L 26.28705148205927 19.34477379095165  C 26.28705148205927 22.441497659906418  23.767550702028075 24.96099843993761  20.670826833073306 24.96099843993761  C 17.574102964118566 24.96099843993761  15.054602184087374 22.441497659906418  15.054602184087374 19.34477379095165  L 15.054602184087374 9.859594383775345  L 9.992199687987522 12.90171606864277  C 8.486739469578794 13.798751950077985  7.5663026521060885 15.429017160686442  7.5663026521060885 17.176287051482063  L 7.5663026521060885 20.86583463338536  L 1.3260530421216856 24.46957878315135  C 0.1326053042121771 25.15600624024961  -0.2808112324493095 26.6848673946958  0.4134165366614582 27.878315132605337  L 6.65366614664586 38.6895475819033  C 7.340093603744151 39.882995319812835  8.868954758190341 40.28861154446179  10.06240249609985 39.602184087363526  L 18.12792511700468 35  L 28.78315132605303 35  C 31.536661466458664 34.945397815912656  33.77535101404055 32.70670826833077  33.77535101404055 29.953198127925134  L 35.02340093603743 29.953198127925134  C 36.40405616224649 29.953198127925134  37.519500780031194 28.83775351014043  37.519500780031194 27.457098283931373  L 37.519500780031194 22.46489859594385  L 38.143525741029634 22.46489859594385  C 39.18096723868956 22.46489859594385  40.015600624024955 21.630265210608457  40.015600624024955 20.59282371294853  L 40.015600624024955 16.848673946957888  Z M 48.75195007800312 15.46801872074883  C 49.94539781591263 14.773790951638091  50.3510140405616 13.252730109204379  49.66458658346335 12.059282371294842  L 43.424336973478944 1.2480499219968806  C 42.737909516380654 0.05460218408734363  41.20904836193449 -0.35101404056160845  40.015600624024955 0.33541341653665313  L 31.950078003120126 4.992199687987522  L 23.978159126365057 4.992199687987522  C 23.042121684867396 4.992199687987522  22.12948517940717 5.2574102964118765  21.333853354134163 5.74882995319814  L 18.72074882995321 7.379095163806539  C 17.987519500780024 7.831513260530414  17.550702028081133 8.634945397815898  17.550702028081133 9.492979719188781  L 17.550702028081133 19.34477379095165  C 17.550702028081133 21.068642745709838  18.946957878315118 22.46489859594385  20.670826833073306 22.46489859594385  C 22.394695787831523 22.46489859594385  23.790951638065508 21.068642745709838  23.790951638065508 19.34477379095165  L 23.790951638065508 13  L 38.143525741029634 13  C 40.55382215288611 12.480499219968806  42.51170046801872 14.438377535101438  42.51170046801872 16.848673946957888  L 42.51170046801872 19.071762870514817  L 48.75195007800312 15.46801872074883  Z " fill-rule="nonzero" fill="rgba(0, 0, 0, 1)" stroke="none" class="fill" />
    <path d="M 40.015600624024955 16.848673946957888  C 40.015600624024955 15.811232449297961  39.18096723868956 14.976599063962567  38.143525741029634 15  L 26.28705148205927 15  L 26.28705148205927 19.34477379095165  C 26.28705148205927 22.441497659906418  23.767550702028075 24.96099843993761  20.670826833073306 24.96099843993761  C 17.574102964118566 24.96099843993761  15.054602184087374 22.441497659906418  15.054602184087374 19.34477379095165  L 15.054602184087374 9.859594383775345  L 9.992199687987522 12.90171606864277  C 8.486739469578794 13.798751950077985  7.5663026521060885 15.429017160686442  7.5663026521060885 17.176287051482063  L 7.5663026521060885 20.86583463338536  L 1.3260530421216856 24.46957878315135  C 0.1326053042121771 25.15600624024961  -0.2808112324493095 26.6848673946958  0.4134165366614582 27.878315132605337  L 6.65366614664586 38.6895475819033  C 7.340093603744151 39.882995319812835  8.868954758190341 40.28861154446179  10.06240249609985 39.602184087363526  L 18.12792511700468 35  L 28.78315132605303 35  C 31.536661466458664 34.945397815912656  33.77535101404055 32.70670826833077  33.77535101404055 29.953198127925134  L 35.02340093603743 29.953198127925134  C 36.40405616224649 29.953198127925134  37.519500780031194 28.83775351014043  37.519500780031194 27.457098283931373  L 37.519500780031194 22.46489859594385  L 38.143525741029634 22.46489859594385  C 39.18096723868956 22.46489859594385  40.015600624024955 21.630265210608457  40.015600624024955 20.59282371294853  L 40.015600624024955 16.848673946957888  Z " stroke-width="0" stroke-dasharray="0" stroke="rgba(255, 255, 255, 0)" fill="none" class="stroke" mask="url(#Clip1647)" />
    <path d="M 48.75195007800312 15.46801872074883  C 49.94539781591263 14.773790951638091  50.3510140405616 13.252730109204379  49.66458658346335 12.059282371294842  L 43.424336973478944 1.2480499219968806  C 42.737909516380654 0.05460218408734363  41.20904836193449 -0.35101404056160845  40.015600624024955 0.33541341653665313  L 31.950078003120126 4.992199687987522  L 23.978159126365057 4.992199687987522  C 23.042121684867396 4.992199687987522  22.12948517940717 5.2574102964118765  21.333853354134163 5.74882995319814  L 18.72074882995321 7.379095163806539  C 17.987519500780024 7.831513260530414  17.550702028081133 8.634945397815898  17.550702028081133 9.492979719188781  L 17.550702028081133 19.34477379095165  C 17.550702028081133 21.068642745709838  18.946957878315118 22.46489859594385  20.670826833073306 22.46489859594385  C 22.394695787831523 22.46489859594385  23.790951638065508 21.068642745709838  23.790951638065508 19.34477379095165  L 23.790951638065508 13  L 38.143525741029634 13  C 40.55382215288611 12.480499219968806  42.51170046801872 14.438377535101438  42.51170046801872 16.848673946957888  L 42.51170046801872 19.071762870514817  L 48.75195007800312 15.46801872074883  Z " stroke-width="0" stroke-dasharray="0" stroke="rgba(255, 255, 255, 0)" fill="none" class="stroke" mask="url(#Clip1647)" />
  </g>
</svg>