<?xml version="1.0" encoding="utf-8"?>
<svg version="1.1" xmlns:xlink="http://www.w3.org/1999/xlink" width="18px" height="11px" xmlns="http://www.w3.org/2000/svg">
  <defs>
    <pattern id="BGPattern" patternUnits="userSpaceOnUse" alignment="0 0" imageRepeat="None" />
    <mask fill="white" id="Clip5640">
      <path d="M 0.75 10.5  C 0.3357864376269051 10.5  0 10.164213562373096  0 9.75  C 0 9.335786437626904  0.3357864376269051 9  0.75 9  L 5.25 9  C 5.664213562373096 9  6 9.335786437626904  6 9.75  C 6 10.164213562373096  5.664213562373096 10.5  5.25 10.5  L 0.75 10.5  Z M 0.75 6  C 0.3357864376269051 6  0 5.664213562373096  0 5.25  C 0 4.835786437626904  0.3357864376269051 4.5  0.75 4.5  L 11.25 4.5  C 11.664213562373096 4.5  12 4.835786437626904  12 5.25  C 12 5.664213562373096  11.664213562373096 6  11.25 6  L 0.75 6  Z M 0.75 1.5  C 0.3357864376269051 1.5  0 1.164213562373095  0 0.75  C 0 0.3357864376269051  0.3357864376269051 0  0.75 0  L 17.25 0  C 17.664213562373096 0  18 0.3357864376269051  18 0.75  C 18 1.164213562373095  17.664213562373096 1.5  17.25 1.5  L 0.75 1.5  Z " fill-rule="evenodd" />
    </mask>
  </defs>
  <g>
    <path d="M 0.75 10.5  C 0.3357864376269051 10.5  0 10.164213562373096  0 9.75  C 0 9.335786437626904  0.3357864376269051 9  0.75 9  L 5.25 9  C 5.664213562373096 9  6 9.335786437626904  6 9.75  C 6 10.164213562373096  5.664213562373096 10.5  5.25 10.5  L 0.75 10.5  Z M 0.75 6  C 0.3357864376269051 6  0 5.664213562373096  0 5.25  C 0 4.835786437626904  0.3357864376269051 4.5  0.75 4.5  L 11.25 4.5  C 11.664213562373096 4.5  12 4.835786437626904  12 5.25  C 12 5.664213562373096  11.664213562373096 6  11.25 6  L 0.75 6  Z M 0.75 1.5  C 0.3357864376269051 1.5  0 1.164213562373095  0 0.75  C 0 0.3357864376269051  0.3357864376269051 0  0.75 0  L 17.25 0  C 17.664213562373096 0  18 0.3357864376269051  18 0.75  C 18 1.164213562373095  17.664213562373096 1.5  17.25 1.5  L 0.75 1.5  Z " fill-rule="nonzero" fill="rgba(0, 0, 0, 1)" stroke="none" class="fill" />
    <path d="M 0.75 10.5  C 0.3357864376269051 10.5  0 10.164213562373096  0 9.75  C 0 9.335786437626904  0.3357864376269051 9  0.75 9  L 5.25 9  C 5.664213562373096 9  6 9.335786437626904  6 9.75  C 6 10.164213562373096  5.664213562373096 10.5  5.25 10.5  L 0.75 10.5  Z " stroke-width="0" stroke-dasharray="0" stroke="rgba(255, 255, 255, 0)" fill="none" class="stroke" mask="url(#Clip5640)" />
    <path d="M 0.75 6  C 0.3357864376269051 6  0 5.664213562373096  0 5.25  C 0 4.835786437626904  0.3357864376269051 4.5  0.75 4.5  L 11.25 4.5  C 11.664213562373096 4.5  12 4.835786437626904  12 5.25  C 12 5.664213562373096  11.664213562373096 6  11.25 6  L 0.75 6  Z " stroke-width="0" stroke-dasharray="0" stroke="rgba(255, 255, 255, 0)" fill="none" class="stroke" mask="url(#Clip5640)" />
    <path d="M 0.75 1.5  C 0.3357864376269051 1.5  0 1.164213562373095  0 0.75  C 0 0.3357864376269051  0.3357864376269051 0  0.75 0  L 17.25 0  C 17.664213562373096 0  18 0.3357864376269051  18 0.75  C 18 1.164213562373095  17.664213562373096 1.5  17.25 1.5  L 0.75 1.5  Z " stroke-width="0" stroke-dasharray="0" stroke="rgba(255, 255, 255, 0)" fill="none" class="stroke" mask="url(#Clip5640)" />
  </g>
</svg>