<?xml version="1.0" encoding="utf-8"?>
<svg version="1.1" xmlns:xlink="http://www.w3.org/1999/xlink" width="42px" height="51px" xmlns="http://www.w3.org/2000/svg">
  <defs>
    <pattern id="BGPattern" patternUnits="userSpaceOnUse" alignment="0 0" imageRepeat="None" />
    <mask fill="white" id="Clip2671">
      <path d="M 35.0375 50.62500000000001  C 39.61875 49.31875000000001  42.49375 44.78750000000001  41.71875 40.0875  C 40.94375 35.387499999999996  36.76875 32.01875  32.0125 32.25  C 27.25625000000001 32.48125  23.43125 36.25  23.125 41  C 13.53125 40.7  10.125 38.45625  10.681249999999999 33.89375  C 10.8875 32.1875  11.91875 31.274999999999995  13.8125 30.831249999999997  C 14.962499999999999 30.5625  16.2375 30.525  17.39375 30.631249999999994  C 17.5 30.643749999999997  17.6125 30.64999999999999  17.71875 30.662499999999994  C 18.425 30.831249999999997  19.14375 30.97499999999999  19.8625 31.08749999999999  C 21.99375 31.43749999999999  24.1625 31.61249999999999  26.225 31.499999999999996  C 32.025 31.187499999999993  35.975 28.631249999999994  36.175 23.206249999999994  C 36.36875 17.949999999999996  32.756249999999994 14.224999999999994  26.93125 11.731249999999996  C 25.0625 10.931249999999995  23.081249999999994 10.312499999999996  21.1 9.843749999999996  C 20.20625 9.631249999999996  19.45625 9.487499999999997  18.900000000000002 9.393749999999997  C 18.406250000000004 4.649999999999997  14.431250000000002 1.0312499999999964  9.662500000000001 0.9937499999999968  C 4.893750000000001 0.9562499999999972  0.8562500000000011 4.4999999999999964  0.2812500000000018 9.237499999999997  C -0.2937499999999975 13.974999999999998  2.7812500000000018 18.381249999999998  7.418750000000003 19.481249999999996  C 12.056250000000002 20.581249999999997  16.7875 18.024999999999995  18.400000000000002 13.537499999999994  C 18.9875 13.643749999999994  19.56875 13.762499999999996  20.150000000000002 13.899999999999995  C 21.9125 14.312499999999996  23.675000000000004 14.862499999999992  25.300000000000004 15.562499999999996  C 29.718750000000007 17.449999999999996  32.13125 19.943749999999994  32.018750000000004 23.05625  C 31.91875 25.84375  29.918750000000003 27.13125  26.00625 27.34375  C 24.2875 27.4375  22.406250000000004 27.287499999999998  20.55 26.98125  C 20.03125 26.893750000000008  19.556250000000002 26.806250000000006  19.1375 26.712500000000006  C 18.89375 26.66250000000001  18.724999999999998 26.618750000000006  18.65 26.60000000000001  L 18.456249999999997 26.562500000000007  C 18.318749999999998 26.543750000000006  18.0875 26.512500000000006  17.787499999999998 26.481250000000006  C 16.224999999999998 26.337500000000013  14.531249999999996 26.38750000000001  12.881249999999998 26.76875000000001  C 9.431249999999999 27.57500000000001  7.012499999999996 29.718750000000014  6.5625 33.38125000000001  C 5.581250000000001 41.26875000000001  11.475000000000001 44.92500000000001  23.8125 45.18750000000001  C 25.63125 49.587500000000006  30.4625 51.931250000000006  35.0375 50.62500000000001  Z M 14.775 10.368749999999999  C 14.775 13.243749999999999  12.443750000000003 15.575  9.568750000000001 15.575  C 6.693750000000001 15.575  4.362500000000001 13.243749999999999  4.362500000000001 10.368749999999999  C 4.362500000000001 7.493749999999999  6.693750000000001 5.162499999999998  9.568750000000001 5.162499999999998  C 12.443750000000003 5.162499999999998  14.775 7.493749999999999  14.775 10.368749999999999  Z M 37.68125 41.60625  C 37.68125 44.48125  35.35 46.8125  32.475 46.8125  C 29.6 46.8125  27.268750000000004 44.48125  27.268750000000004 41.60625  C 27.268750000000004 38.73125  29.6 36.400000000000006  32.475 36.400000000000006  C 35.35 36.400000000000006  37.68125 38.73125  37.68125 41.60625  Z " fill-rule="evenodd" />
    </mask>
  </defs>
  <g>
    <path d="M 35.0375 50.62500000000001  C 39.61875 49.31875000000001  42.49375 44.78750000000001  41.71875 40.0875  C 40.94375 35.387499999999996  36.76875 32.01875  32.0125 32.25  C 27.25625000000001 32.48125  23.43125 36.25  23.125 41  C 13.53125 40.7  10.125 38.45625  10.681249999999999 33.89375  C 10.8875 32.1875  11.91875 31.274999999999995  13.8125 30.831249999999997  C 14.962499999999999 30.5625  16.2375 30.525  17.39375 30.631249999999994  C 17.5 30.643749999999997  17.6125 30.64999999999999  17.71875 30.662499999999994  C 18.425 30.831249999999997  19.14375 30.97499999999999  19.8625 31.08749999999999  C 21.99375 31.43749999999999  24.1625 31.61249999999999  26.225 31.499999999999996  C 32.025 31.187499999999993  35.975 28.631249999999994  36.175 23.206249999999994  C 36.36875 17.949999999999996  32.756249999999994 14.224999999999994  26.93125 11.731249999999996  C 25.0625 10.931249999999995  23.081249999999994 10.312499999999996  21.1 9.843749999999996  C 20.20625 9.631249999999996  19.45625 9.487499999999997  18.900000000000002 9.393749999999997  C 18.406250000000004 4.649999999999997  14.431250000000002 1.0312499999999964  9.662500000000001 0.9937499999999968  C 4.893750000000001 0.9562499999999972  0.8562500000000011 4.4999999999999964  0.2812500000000018 9.237499999999997  C -0.2937499999999975 13.974999999999998  2.7812500000000018 18.381249999999998  7.418750000000003 19.481249999999996  C 12.056250000000002 20.581249999999997  16.7875 18.024999999999995  18.400000000000002 13.537499999999994  C 18.9875 13.643749999999994  19.56875 13.762499999999996  20.150000000000002 13.899999999999995  C 21.9125 14.312499999999996  23.675000000000004 14.862499999999992  25.300000000000004 15.562499999999996  C 29.718750000000007 17.449999999999996  32.13125 19.943749999999994  32.018750000000004 23.05625  C 31.91875 25.84375  29.918750000000003 27.13125  26.00625 27.34375  C 24.2875 27.4375  22.406250000000004 27.287499999999998  20.55 26.98125  C 20.03125 26.893750000000008  19.556250000000002 26.806250000000006  19.1375 26.712500000000006  C 18.89375 26.66250000000001  18.724999999999998 26.618750000000006  18.65 26.60000000000001  L 18.456249999999997 26.562500000000007  C 18.318749999999998 26.543750000000006  18.0875 26.512500000000006  17.787499999999998 26.481250000000006  C 16.224999999999998 26.337500000000013  14.531249999999996 26.38750000000001  12.881249999999998 26.76875000000001  C 9.431249999999999 27.57500000000001  7.012499999999996 29.718750000000014  6.5625 33.38125000000001  C 5.581250000000001 41.26875000000001  11.475000000000001 44.92500000000001  23.8125 45.18750000000001  C 25.63125 49.587500000000006  30.4625 51.931250000000006  35.0375 50.62500000000001  Z M 14.775 10.368749999999999  C 14.775 13.243749999999999  12.443750000000003 15.575  9.568750000000001 15.575  C 6.693750000000001 15.575  4.362500000000001 13.243749999999999  4.362500000000001 10.368749999999999  C 4.362500000000001 7.493749999999999  6.693750000000001 5.162499999999998  9.568750000000001 5.162499999999998  C 12.443750000000003 5.162499999999998  14.775 7.493749999999999  14.775 10.368749999999999  Z M 37.68125 41.60625  C 37.68125 44.48125  35.35 46.8125  32.475 46.8125  C 29.6 46.8125  27.268750000000004 44.48125  27.268750000000004 41.60625  C 27.268750000000004 38.73125  29.6 36.400000000000006  32.475 36.400000000000006  C 35.35 36.400000000000006  37.68125 38.73125  37.68125 41.60625  Z " fill-rule="nonzero" fill="rgba(0, 0, 0, 1)" stroke="none" class="fill" />
    <path d="M 35.0375 50.62500000000001  C 39.61875 49.31875000000001  42.49375 44.78750000000001  41.71875 40.0875  C 40.94375 35.387499999999996  36.76875 32.01875  32.0125 32.25  C 27.25625000000001 32.48125  23.43125 36.25  23.125 41  C 13.53125 40.7  10.125 38.45625  10.681249999999999 33.89375  C 10.8875 32.1875  11.91875 31.274999999999995  13.8125 30.831249999999997  C 14.962499999999999 30.5625  16.2375 30.525  17.39375 30.631249999999994  C 17.5 30.643749999999997  17.6125 30.64999999999999  17.71875 30.662499999999994  C 18.425 30.831249999999997  19.14375 30.97499999999999  19.8625 31.08749999999999  C 21.99375 31.43749999999999  24.1625 31.61249999999999  26.225 31.499999999999996  C 32.025 31.187499999999993  35.975 28.631249999999994  36.175 23.206249999999994  C 36.36875 17.949999999999996  32.756249999999994 14.224999999999994  26.93125 11.731249999999996  C 25.0625 10.931249999999995  23.081249999999994 10.312499999999996  21.1 9.843749999999996  C 20.20625 9.631249999999996  19.45625 9.487499999999997  18.900000000000002 9.393749999999997  C 18.406250000000004 4.649999999999997  14.431250000000002 1.0312499999999964  9.662500000000001 0.9937499999999968  C 4.893750000000001 0.9562499999999972  0.8562500000000011 4.4999999999999964  0.2812500000000018 9.237499999999997  C -0.2937499999999975 13.974999999999998  2.7812500000000018 18.381249999999998  7.418750000000003 19.481249999999996  C 12.056250000000002 20.581249999999997  16.7875 18.024999999999995  18.400000000000002 13.537499999999994  C 18.9875 13.643749999999994  19.56875 13.762499999999996  20.150000000000002 13.899999999999995  C 21.9125 14.312499999999996  23.675000000000004 14.862499999999992  25.300000000000004 15.562499999999996  C 29.718750000000007 17.449999999999996  32.13125 19.943749999999994  32.018750000000004 23.05625  C 31.91875 25.84375  29.918750000000003 27.13125  26.00625 27.34375  C 24.2875 27.4375  22.406250000000004 27.287499999999998  20.55 26.98125  C 20.03125 26.893750000000008  19.556250000000002 26.806250000000006  19.1375 26.712500000000006  C 18.89375 26.66250000000001  18.724999999999998 26.618750000000006  18.65 26.60000000000001  L 18.456249999999997 26.562500000000007  C 18.318749999999998 26.543750000000006  18.0875 26.512500000000006  17.787499999999998 26.481250000000006  C 16.224999999999998 26.337500000000013  14.531249999999996 26.38750000000001  12.881249999999998 26.76875000000001  C 9.431249999999999 27.57500000000001  7.012499999999996 29.718750000000014  6.5625 33.38125000000001  C 5.581250000000001 41.26875000000001  11.475000000000001 44.92500000000001  23.8125 45.18750000000001  C 25.63125 49.587500000000006  30.4625 51.931250000000006  35.0375 50.62500000000001  Z " stroke-width="0" stroke-dasharray="0" stroke="rgba(255, 255, 255, 0)" fill="none" class="stroke" mask="url(#Clip2671)" />
    <path d="M 14.775 10.368749999999999  C 14.775 13.243749999999999  12.443750000000003 15.575  9.568750000000001 15.575  C 6.693750000000001 15.575  4.362500000000001 13.243749999999999  4.362500000000001 10.368749999999999  C 4.362500000000001 7.493749999999999  6.693750000000001 5.162499999999998  9.568750000000001 5.162499999999998  C 12.443750000000003 5.162499999999998  14.775 7.493749999999999  14.775 10.368749999999999  Z " stroke-width="0" stroke-dasharray="0" stroke="rgba(255, 255, 255, 0)" fill="none" class="stroke" mask="url(#Clip2671)" />
    <path d="M 37.68125 41.60625  C 37.68125 44.48125  35.35 46.8125  32.475 46.8125  C 29.6 46.8125  27.268750000000004 44.48125  27.268750000000004 41.60625  C 27.268750000000004 38.73125  29.6 36.400000000000006  32.475 36.400000000000006  C 35.35 36.400000000000006  37.68125 38.73125  37.68125 41.60625  Z " stroke-width="0" stroke-dasharray="0" stroke="rgba(255, 255, 255, 0)" fill="none" class="stroke" mask="url(#Clip2671)" />
  </g>
</svg>