<?xml version="1.0" encoding="utf-8"?>
<svg version="1.1" xmlns:xlink="http://www.w3.org/1999/xlink" width="24px" height="30px" xmlns="http://www.w3.org/2000/svg">
  <defs>
    <pattern id="BGPattern" patternUnits="userSpaceOnUse" alignment="0 0" imageRepeat="None" />
    <mask fill="white" id="Clip399">
      <path d="M 14.847999999999995 28.04  C 14.063999999999997 28.936  13.023999999999994 29.4  12 29.4  C 10.975999999999999 29.4  9.936 28.936  9.136 28.04  C 5.648 24.088  0.7999999999999989 17.848  0.7999999999999989 11.8  C 0.7999999999999989 5.6240000000000006  5.823999999999998 0.6000000000000014  11.999999999999998 0.6000000000000014  C 18.176 0.6000000000000014  23.199999999999996 5.624000000000001  23.199999999999996 11.8  C 23.199999999999996 17.848  18.335999999999995 24.088  14.847999999999995 28.04  Z M 10.719999999999995 26.296000000000003  C 11.071999999999996 26.696  11.535999999999996 26.888  11.984 26.888  C 12.448 26.888  12.911999999999999 26.696  13.264 26.296000000000003  C 18.288 20.6  20.799999999999997 15.448  20.799999999999997 11.800000000000002  C 20.799999999999997 6.952000000000003  16.848 3.0000000000000018  11.999999999999996 3.0000000000000018  C 7.151999999999994 3.0000000000000018  3.1999999999999957 6.952000000000002  3.1999999999999957 11.800000000000002  C 3.1999999999999957 15.512000000000004  5.631999999999996 20.520000000000003  10.719999999999995 26.296000000000003  Z M 17.6 11.799999999999999  C 17.6 14.887999999999998  15.088000000000001 17.4  12 17.4  C 8.911999999999999 17.4  6.4 14.887999999999998  6.4 11.799999999999999  C 6.4 8.712  8.912 6.199999999999999  12 6.199999999999999  C 15.088000000000001 6.199999999999999  17.6 8.712  17.6 11.799999999999999  Z M 8.8 11.8  C 8.8 13.56  10.24 15  12 15  C 13.760000000000002 15  15.2 13.56  15.2 11.8  C 15.2 10.040000000000001  13.759999999999998 8.600000000000001  12 8.600000000000001  C 10.240000000000002 8.600000000000001  8.8 10.040000000000001  8.8 11.8  Z " fill-rule="evenodd" />
    </mask>
  </defs>
  <g>
    <path d="M 14.847999999999995 28.04  C 14.063999999999997 28.936  13.023999999999994 29.4  12 29.4  C 10.975999999999999 29.4  9.936 28.936  9.136 28.04  C 5.648 24.088  0.7999999999999989 17.848  0.7999999999999989 11.8  C 0.7999999999999989 5.6240000000000006  5.823999999999998 0.6000000000000014  11.999999999999998 0.6000000000000014  C 18.176 0.6000000000000014  23.199999999999996 5.624000000000001  23.199999999999996 11.8  C 23.199999999999996 17.848  18.335999999999995 24.088  14.847999999999995 28.04  Z M 10.719999999999995 26.296000000000003  C 11.071999999999996 26.696  11.535999999999996 26.888  11.984 26.888  C 12.448 26.888  12.911999999999999 26.696  13.264 26.296000000000003  C 18.288 20.6  20.799999999999997 15.448  20.799999999999997 11.800000000000002  C 20.799999999999997 6.952000000000003  16.848 3.0000000000000018  11.999999999999996 3.0000000000000018  C 7.151999999999994 3.0000000000000018  3.1999999999999957 6.952000000000002  3.1999999999999957 11.800000000000002  C 3.1999999999999957 15.512000000000004  5.631999999999996 20.520000000000003  10.719999999999995 26.296000000000003  Z M 17.6 11.799999999999999  C 17.6 14.887999999999998  15.088000000000001 17.4  12 17.4  C 8.911999999999999 17.4  6.4 14.887999999999998  6.4 11.799999999999999  C 6.4 8.712  8.912 6.199999999999999  12 6.199999999999999  C 15.088000000000001 6.199999999999999  17.6 8.712  17.6 11.799999999999999  Z M 8.8 11.8  C 8.8 13.56  10.24 15  12 15  C 13.760000000000002 15  15.2 13.56  15.2 11.8  C 15.2 10.040000000000001  13.759999999999998 8.600000000000001  12 8.600000000000001  C 10.240000000000002 8.600000000000001  8.8 10.040000000000001  8.8 11.8  Z " fill-rule="nonzero" fill="rgba(0, 0, 0, 1)" stroke="none" class="fill" />
    <path d="M 14.847999999999995 28.04  C 14.063999999999997 28.936  13.023999999999994 29.4  12 29.4  C 10.975999999999999 29.4  9.936 28.936  9.136 28.04  C 5.648 24.088  0.7999999999999989 17.848  0.7999999999999989 11.8  C 0.7999999999999989 5.6240000000000006  5.823999999999998 0.6000000000000014  11.999999999999998 0.6000000000000014  C 18.176 0.6000000000000014  23.199999999999996 5.624000000000001  23.199999999999996 11.8  C 23.199999999999996 17.848  18.335999999999995 24.088  14.847999999999995 28.04  Z " stroke-width="0" stroke-dasharray="0" stroke="rgba(255, 255, 255, 0)" fill="none" class="stroke" mask="url(#Clip399)" />
    <path d="M 10.719999999999995 26.296000000000003  C 11.071999999999996 26.696  11.535999999999996 26.888  11.984 26.888  C 12.448 26.888  12.911999999999999 26.696  13.264 26.296000000000003  C 18.288 20.6  20.799999999999997 15.448  20.799999999999997 11.800000000000002  C 20.799999999999997 6.952000000000003  16.848 3.0000000000000018  11.999999999999996 3.0000000000000018  C 7.151999999999994 3.0000000000000018  3.1999999999999957 6.952000000000002  3.1999999999999957 11.800000000000002  C 3.1999999999999957 15.512000000000004  5.631999999999996 20.520000000000003  10.719999999999995 26.296000000000003  Z " stroke-width="0" stroke-dasharray="0" stroke="rgba(255, 255, 255, 0)" fill="none" class="stroke" mask="url(#Clip399)" />
    <path d="M 17.6 11.799999999999999  C 17.6 14.887999999999998  15.088000000000001 17.4  12 17.4  C 8.911999999999999 17.4  6.4 14.887999999999998  6.4 11.799999999999999  C 6.4 8.712  8.912 6.199999999999999  12 6.199999999999999  C 15.088000000000001 6.199999999999999  17.6 8.712  17.6 11.799999999999999  Z " stroke-width="0" stroke-dasharray="0" stroke="rgba(255, 255, 255, 0)" fill="none" class="stroke" mask="url(#Clip399)" />
    <path d="M 8.8 11.8  C 8.8 13.56  10.24 15  12 15  C 13.760000000000002 15  15.2 13.56  15.2 11.8  C 15.2 10.040000000000001  13.759999999999998 8.600000000000001  12 8.600000000000001  C 10.240000000000002 8.600000000000001  8.8 10.040000000000001  8.8 11.8  Z " stroke-width="0" stroke-dasharray="0" stroke="rgba(255, 255, 255, 0)" fill="none" class="stroke" mask="url(#Clip399)" />
  </g>
</svg>