<?xml version="1.0" encoding="utf-8"?>
<svg version="1.1" xmlns:xlink="http://www.w3.org/1999/xlink" width="11px" height="24px" xmlns="http://www.w3.org/2000/svg">
  <defs>
    <pattern id="BGPattern" patternUnits="userSpaceOnUse" alignment="0 0" imageRepeat="None" />
    <mask fill="white" id="Clip6514">
      <path d="M 1.9999998670151817 6.75  L 1.9999998670151817 0.75  C 1.9999998670151817 0.3357864376269049  2.335786282314837 0  2.749999817145875 0  L 8.74999941819142 0  C 9.16421295302246 0  9.499999368322113 0.3357864376269049  9.499999368322113 0.75  L 9.499999368322113 6.75  L 1.9999998670151817 6.75  Z M 4.9999996675379546 1.5  L 3.499999767276568 1.5  L 3.499999767276568 3  L 4.9999996675379546 3  L 4.9999996675379546 1.5  Z M 7.999999468060727 1.5  L 6.499999567799341 1.5  L 6.499999567799341 3  L 7.999999468060727 3  L 7.999999468060727 1.5  Z M 9.499999368322113 7.5  L 1.9999998670151817 7.5  C 1.1715727973531072 7.5  0.49999996675379543 8.17157287525381  0.49999996675379543 9  L 0.49999996675379543 15.591000000000001  C 0.49999996675379543 16.332  0.7189999521919572 17.055  1.1299999248635766 17.6715  L 2.686999821334898 20.0085  C 3.217999786027428 20.8035  3.499999767276568 21.7365  3.499999767276568 22.692  C 3.499999767276568 23.4135  4.084999728378508 24  4.807999680304497 24  L 6.691999555032798 24  C 7.413499507058525 24  7.999999468060727 23.415  7.999999468060727 22.692  C 7.999999468060727 21.7365  8.281999449309867 20.802  8.811499414102137 20.0085  L 10.371499310373977 17.671499999999998  C 10.781775455335508 17.055244388843427  11.000461555159207 16.331335938667326  10.9999992685835 15.591000000000001  L 10.9999992685835 9  C 10.9999992685835 8.17157287525381  10.32842643798419 7.5  9.499999368322113 7.5  Z M 1.9999998670151817 15.591000000000001  L 1.9999998670151817 9  L 9.499999368322113 9  L 9.499999368322113 15.591000000000001  C 9.49995096356472 16.035192189857185  9.368426384601658 16.469432098481903  9.121999393456244 16.839000000000002  L 7.564999496984926 19.176000000000002  C 6.906849627014974 20.162754947484608  6.538893290191399 21.31443756982693  6.502999567599863 22.5  L 4.996999667737432 22.5  C 4.9615518817534685 21.314585529716553  4.594119047651857 20.162914787836257  3.936499738252632 19.176  L 2.37649984198079 16.839  C 2.130602816388615 16.469264768213307  1.999603986908824 16.03503754361465  1.9999998670151817 15.591000000000001  Z " fill-rule="evenodd" />
    </mask>
  </defs>
  <g>
    <path d="M 1.9999998670151817 6.75  L 1.9999998670151817 0.75  C 1.9999998670151817 0.3357864376269049  2.335786282314837 0  2.749999817145875 0  L 8.74999941819142 0  C 9.16421295302246 0  9.499999368322113 0.3357864376269049  9.499999368322113 0.75  L 9.499999368322113 6.75  L 1.9999998670151817 6.75  Z M 4.9999996675379546 1.5  L 3.499999767276568 1.5  L 3.499999767276568 3  L 4.9999996675379546 3  L 4.9999996675379546 1.5  Z M 7.999999468060727 1.5  L 6.499999567799341 1.5  L 6.499999567799341 3  L 7.999999468060727 3  L 7.999999468060727 1.5  Z M 9.499999368322113 7.5  L 1.9999998670151817 7.5  C 1.1715727973531072 7.5  0.49999996675379543 8.17157287525381  0.49999996675379543 9  L 0.49999996675379543 15.591000000000001  C 0.49999996675379543 16.332  0.7189999521919572 17.055  1.1299999248635766 17.6715  L 2.686999821334898 20.0085  C 3.217999786027428 20.8035  3.499999767276568 21.7365  3.499999767276568 22.692  C 3.499999767276568 23.4135  4.084999728378508 24  4.807999680304497 24  L 6.691999555032798 24  C 7.413499507058525 24  7.999999468060727 23.415  7.999999468060727 22.692  C 7.999999468060727 21.7365  8.281999449309867 20.802  8.811499414102137 20.0085  L 10.371499310373977 17.671499999999998  C 10.781775455335508 17.055244388843427  11.000461555159207 16.331335938667326  10.9999992685835 15.591000000000001  L 10.9999992685835 9  C 10.9999992685835 8.17157287525381  10.32842643798419 7.5  9.499999368322113 7.5  Z M 1.9999998670151817 15.591000000000001  L 1.9999998670151817 9  L 9.499999368322113 9  L 9.499999368322113 15.591000000000001  C 9.49995096356472 16.035192189857185  9.368426384601658 16.469432098481903  9.121999393456244 16.839000000000002  L 7.564999496984926 19.176000000000002  C 6.906849627014974 20.162754947484608  6.538893290191399 21.31443756982693  6.502999567599863 22.5  L 4.996999667737432 22.5  C 4.9615518817534685 21.314585529716553  4.594119047651857 20.162914787836257  3.936499738252632 19.176  L 2.37649984198079 16.839  C 2.130602816388615 16.469264768213307  1.999603986908824 16.03503754361465  1.9999998670151817 15.591000000000001  Z " fill-rule="nonzero" fill="rgba(0, 0, 0, 1)" stroke="none" class="fill" />
    <path d="M 1.9999998670151817 6.75  L 1.9999998670151817 0.75  C 1.9999998670151817 0.3357864376269049  2.335786282314837 0  2.749999817145875 0  L 8.74999941819142 0  C 9.16421295302246 0  9.499999368322113 0.3357864376269049  9.499999368322113 0.75  L 9.499999368322113 6.75  L 1.9999998670151817 6.75  Z " stroke-width="0" stroke-dasharray="0" stroke="rgba(255, 255, 255, 0)" fill="none" class="stroke" mask="url(#Clip6514)" />
    <path d="M 4.9999996675379546 1.5  L 3.499999767276568 1.5  L 3.499999767276568 3  L 4.9999996675379546 3  L 4.9999996675379546 1.5  Z " stroke-width="0" stroke-dasharray="0" stroke="rgba(255, 255, 255, 0)" fill="none" class="stroke" mask="url(#Clip6514)" />
    <path d="M 7.999999468060727 1.5  L 6.499999567799341 1.5  L 6.499999567799341 3  L 7.999999468060727 3  L 7.999999468060727 1.5  Z " stroke-width="0" stroke-dasharray="0" stroke="rgba(255, 255, 255, 0)" fill="none" class="stroke" mask="url(#Clip6514)" />
    <path d="M 9.499999368322113 7.5  L 1.9999998670151817 7.5  C 1.1715727973531072 7.5  0.49999996675379543 8.17157287525381  0.49999996675379543 9  L 0.49999996675379543 15.591000000000001  C 0.49999996675379543 16.332  0.7189999521919572 17.055  1.1299999248635766 17.6715  L 2.686999821334898 20.0085  C 3.217999786027428 20.8035  3.499999767276568 21.7365  3.499999767276568 22.692  C 3.499999767276568 23.4135  4.084999728378508 24  4.807999680304497 24  L 6.691999555032798 24  C 7.413499507058525 24  7.999999468060727 23.415  7.999999468060727 22.692  C 7.999999468060727 21.7365  8.281999449309867 20.802  8.811499414102137 20.0085  L 10.371499310373977 17.671499999999998  C 10.781775455335508 17.055244388843427  11.000461555159207 16.331335938667326  10.9999992685835 15.591000000000001  L 10.9999992685835 9  C 10.9999992685835 8.17157287525381  10.32842643798419 7.5  9.499999368322113 7.5  Z " stroke-width="0" stroke-dasharray="0" stroke="rgba(255, 255, 255, 0)" fill="none" class="stroke" mask="url(#Clip6514)" />
    <path d="M 1.9999998670151817 15.591000000000001  L 1.9999998670151817 9  L 9.499999368322113 9  L 9.499999368322113 15.591000000000001  C 9.49995096356472 16.035192189857185  9.368426384601658 16.469432098481903  9.121999393456244 16.839000000000002  L 7.564999496984926 19.176000000000002  C 6.906849627014974 20.162754947484608  6.538893290191399 21.31443756982693  6.502999567599863 22.5  L 4.996999667737432 22.5  C 4.9615518817534685 21.314585529716553  4.594119047651857 20.162914787836257  3.936499738252632 19.176  L 2.37649984198079 16.839  C 2.130602816388615 16.469264768213307  1.999603986908824 16.03503754361465  1.9999998670151817 15.591000000000001  Z " stroke-width="0" stroke-dasharray="0" stroke="rgba(255, 255, 255, 0)" fill="none" class="stroke" mask="url(#Clip6514)" />
  </g>
</svg>