<?xml version="1.0" encoding="utf-8"?>
<svg version="1.1" xmlns:xlink="http://www.w3.org/1999/xlink" width="16px" height="24px" xmlns="http://www.w3.org/2000/svg">
  <defs>
    <pattern id="BGPattern" patternUnits="userSpaceOnUse" alignment="0 0" imageRepeat="None" />
    <mask fill="white" id="Clip5680">
      <path d="M 7.2499999999999964 14.962499999999999  C 3.4175671396252447 14.577326005395154  0.4999516110322402 11.351739948783997  0.5 7.499999999999998  C 0.5000520367787962 3.357901172434077  3.8579011715153593 9.4221759834312E-05  7.999999999408148 9.4221759834312E-05  C 12.142135623139097 9.4221759834312E-05  15.499999999408146 3.3579585980288833  15.499999999408146 7.5000942217598325  C 15.499999999408146 11.351798103679403  12.582396973934223 14.57732961150409  8.75 14.962499999999999  L 8.75 18  L 11.75 18  C 12.164213562373096 18  12.5 18.335786437626904  12.5 18.75  C 12.5 19.164213562373096  12.164213562373096 19.5  11.75 19.5  L 8.75 19.5  L 8.75 23.25  C 8.75 23.664213562373096  8.414213562373096 24  8 24  C 7.585786437626904 24  7.25 23.664213562373096  7.25 23.25  L 7.25 19.5  L 4.25 19.5  C 3.835786437626905 19.5  3.5 19.164213562373096  3.5 18.75  C 3.5 18.335786437626904  3.835786437626905 18  4.25 18  L 7.25 18  L 7.2499999999999964 14.962499999999999  Z M 14 7.5  C 14 4.186291501015239  11.31370849898476 1.5  8 1.5  C 4.686291501015239 1.5  2 4.186291501015239  2 7.5  C 2 10.813708498984761  4.686291501015239 13.5  8 13.5  C 11.31370849898476 13.5  14 10.813708498984761  14 7.5  Z " fill-rule="evenodd" />
    </mask>
  </defs>
  <g>
    <path d="M 7.2499999999999964 14.962499999999999  C 3.4175671396252447 14.577326005395154  0.4999516110322402 11.351739948783997  0.5 7.499999999999998  C 0.5000520367787962 3.357901172434077  3.8579011715153593 9.4221759834312E-05  7.999999999408148 9.4221759834312E-05  C 12.142135623139097 9.4221759834312E-05  15.499999999408146 3.3579585980288833  15.499999999408146 7.5000942217598325  C 15.499999999408146 11.351798103679403  12.582396973934223 14.57732961150409  8.75 14.962499999999999  L 8.75 18  L 11.75 18  C 12.164213562373096 18  12.5 18.335786437626904  12.5 18.75  C 12.5 19.164213562373096  12.164213562373096 19.5  11.75 19.5  L 8.75 19.5  L 8.75 23.25  C 8.75 23.664213562373096  8.414213562373096 24  8 24  C 7.585786437626904 24  7.25 23.664213562373096  7.25 23.25  L 7.25 19.5  L 4.25 19.5  C 3.835786437626905 19.5  3.5 19.164213562373096  3.5 18.75  C 3.5 18.335786437626904  3.835786437626905 18  4.25 18  L 7.25 18  L 7.2499999999999964 14.962499999999999  Z M 14 7.5  C 14 4.186291501015239  11.31370849898476 1.5  8 1.5  C 4.686291501015239 1.5  2 4.186291501015239  2 7.5  C 2 10.813708498984761  4.686291501015239 13.5  8 13.5  C 11.31370849898476 13.5  14 10.813708498984761  14 7.5  Z " fill-rule="nonzero" fill="rgba(0, 0, 0, 1)" stroke="none" class="fill" />
    <path d="M 7.2499999999999964 14.962499999999999  C 3.4175671396252447 14.577326005395154  0.4999516110322402 11.351739948783997  0.5 7.499999999999998  C 0.5000520367787962 3.357901172434077  3.8579011715153593 9.4221759834312E-05  7.999999999408148 9.4221759834312E-05  C 12.142135623139097 9.4221759834312E-05  15.499999999408146 3.3579585980288833  15.499999999408146 7.5000942217598325  C 15.499999999408146 11.351798103679403  12.582396973934223 14.57732961150409  8.75 14.962499999999999  L 8.75 18  L 11.75 18  C 12.164213562373096 18  12.5 18.335786437626904  12.5 18.75  C 12.5 19.164213562373096  12.164213562373096 19.5  11.75 19.5  L 8.75 19.5  L 8.75 23.25  C 8.75 23.664213562373096  8.414213562373096 24  8 24  C 7.585786437626904 24  7.25 23.664213562373096  7.25 23.25  L 7.25 19.5  L 4.25 19.5  C 3.835786437626905 19.5  3.5 19.164213562373096  3.5 18.75  C 3.5 18.335786437626904  3.835786437626905 18  4.25 18  L 7.25 18  L 7.2499999999999964 14.962499999999999  Z " stroke-width="0" stroke-dasharray="0" stroke="rgba(255, 255, 255, 0)" fill="none" class="stroke" mask="url(#Clip5680)" />
    <path d="M 14 7.5  C 14 4.186291501015239  11.31370849898476 1.5  8 1.5  C 4.686291501015239 1.5  2 4.186291501015239  2 7.5  C 2 10.813708498984761  4.686291501015239 13.5  8 13.5  C 11.31370849898476 13.5  14 10.813708498984761  14 7.5  Z " stroke-width="0" stroke-dasharray="0" stroke="rgba(255, 255, 255, 0)" fill="none" class="stroke" mask="url(#Clip5680)" />
  </g>
</svg>