<?xml version="1.0" encoding="utf-8"?>
<svg version="1.1" xmlns:xlink="http://www.w3.org/1999/xlink" width="50px" height="50px" xmlns="http://www.w3.org/2000/svg">
  <defs>
    <pattern id="BGPattern" patternUnits="userSpaceOnUse" alignment="0 0" imageRepeat="None" />
    <mask fill="white" id="Clip2117">
      <path d="M 10.9375 14.0625  C 10.9375 21.826171875  17.236328125 28.125  25 28.125  C 32.763671875 28.125  39.0625 21.826171875  39.0625 14.0625  C 39.0625 6.298828125  32.763671875 0  25 0  C 17.236328125 0  10.9375 6.298828125  10.9375 14.0625  Z M 50 43.75  C 50 36.845703125  44.404296875 31.25  37.5 31.25  L 32.119140625 31.25  C 29.951171875 32.24609375  27.5390625 32.8125  25 32.8125  C 22.4609375 32.8125  20.05859375 32.24609375  17.880859375 31.25  L 12.5 31.25  C 5.595703125 31.25  0 36.845703125  0 43.75  L 0 45.3125  C 0 47.900390625  2.099609375 50  4.6875 50  L 45.3125 50  C 47.900390625 50  50 47.900390625  50 45.3125  L 50 43.75  Z " fill-rule="evenodd" />
    </mask>
  </defs>
  <g>
    <path d="M 10.9375 14.0625  C 10.9375 21.826171875  17.236328125 28.125  25 28.125  C 32.763671875 28.125  39.0625 21.826171875  39.0625 14.0625  C 39.0625 6.298828125  32.763671875 0  25 0  C 17.236328125 0  10.9375 6.298828125  10.9375 14.0625  Z M 50 43.75  C 50 36.845703125  44.404296875 31.25  37.5 31.25  L 32.119140625 31.25  C 29.951171875 32.24609375  27.5390625 32.8125  25 32.8125  C 22.4609375 32.8125  20.05859375 32.24609375  17.880859375 31.25  L 12.5 31.25  C 5.595703125 31.25  0 36.845703125  0 43.75  L 0 45.3125  C 0 47.900390625  2.099609375 50  4.6875 50  L 45.3125 50  C 47.900390625 50  50 47.900390625  50 45.3125  L 50 43.75  Z " fill-rule="nonzero" fill="rgba(0, 0, 0, 1)" stroke="none" class="fill" />
    <path d="M 10.9375 14.0625  C 10.9375 21.826171875  17.236328125 28.125  25 28.125  C 32.763671875 28.125  39.0625 21.826171875  39.0625 14.0625  C 39.0625 6.298828125  32.763671875 0  25 0  C 17.236328125 0  10.9375 6.298828125  10.9375 14.0625  Z " stroke-width="0" stroke-dasharray="0" stroke="rgba(255, 255, 255, 0)" fill="none" class="stroke" mask="url(#Clip2117)" />
    <path d="M 50 43.75  C 50 36.845703125  44.404296875 31.25  37.5 31.25  L 32.119140625 31.25  C 29.951171875 32.24609375  27.5390625 32.8125  25 32.8125  C 22.4609375 32.8125  20.05859375 32.24609375  17.880859375 31.25  L 12.5 31.25  C 5.595703125 31.25  0 36.845703125  0 43.75  L 0 45.3125  C 0 47.900390625  2.099609375 50  4.6875 50  L 45.3125 50  C 47.900390625 50  50 47.900390625  50 45.3125  L 50 43.75  Z " stroke-width="0" stroke-dasharray="0" stroke="rgba(255, 255, 255, 0)" fill="none" class="stroke" mask="url(#Clip2117)" />
  </g>
</svg>