<?xml version="1.0" encoding="utf-8"?>
<svg version="1.1" xmlns:xlink="http://www.w3.org/1999/xlink" width="14px" height="10px" xmlns="http://www.w3.org/2000/svg">
  <defs>
    <pattern id="BGPattern" patternUnits="userSpaceOnUse" alignment="0 0" imageRepeat="None" />
    <mask fill="white" id="Clip3190">
      <path d="M 4.999999999999999 10  L 5.699999999999999 9.3  L 1.9 5.5  L 13.999999999999998 5.5  L 13.999999999999998 4.5  L 1.9 4.5  L 5.699999999999999 0.7000000000000002  L 4.999999999999999 0  L 0 5  L 4.999999999999999 10  Z " fill-rule="evenodd" />
    </mask>
  </defs>
  <g transform="matrix(1 0 0 1 -1 -3 )">
    <path d="M 4.999999999999999 10  L 5.699999999999999 9.3  L 1.9 5.5  L 13.999999999999998 5.5  L 13.999999999999998 4.5  L 1.9 4.5  L 5.699999999999999 0.7000000000000002  L 4.999999999999999 0  L 0 5  L 4.999999999999999 10  Z " fill-rule="nonzero" fill="rgba(0, 0, 0, 1)" stroke="none" transform="matrix(1 0 0 1 1 3 )" class="fill" />
    <path d="M 4.999999999999999 10  L 5.699999999999999 9.3  L 1.9 5.5  L 13.999999999999998 5.5  L 13.999999999999998 4.5  L 1.9 4.5  L 5.699999999999999 0.7000000000000002  L 4.999999999999999 0  L 0 5  L 4.999999999999999 10  Z " stroke-width="0" stroke-dasharray="0" stroke="rgba(255, 255, 255, 0)" fill="none" transform="matrix(1 0 0 1 1 3 )" class="stroke" mask="url(#Clip3190)" />
  </g>
</svg>