<?xml version="1.0" encoding="utf-8"?>
<svg version="1.1" xmlns:xlink="http://www.w3.org/1999/xlink" width="12px" height="18px" xmlns="http://www.w3.org/2000/svg">
  <defs>
    <pattern id="BGPattern" patternUnits="userSpaceOnUse" alignment="0 0" imageRepeat="None" />
    <mask fill="white" id="Clip6063">
      <path d="M 9 0  L 3 0  C 1.3431457505076203 0  0 1.3431457505076194  0 3  L 0 15  C 0 16.65685424949238  1.3431457505076203 18  3 18  L 9 18  C 10.65685424949238 18  12 16.65685424949238  12 15  L 12 3  C 12 1.3431457505076194  10.65685424949238 0  9 0  Z M 3 1.5  L 9 1.5  C 9.82842712474619 1.5  10.5 2.17157287525381  10.5 3  L 10.5 15  C 10.5 15.828427124746192  9.82842712474619 16.5  9 16.5  L 3 16.5  C 2.17157287525381 16.5  1.5 15.828427124746192  1.5 15  L 1.5 3  C 1.5 2.17157287525381  2.17157287525381 1.5  3 1.5  Z " fill-rule="evenodd" />
    </mask>
  </defs>
  <g transform="matrix(1 0 0 1 -7 0 )">
    <path d="M 9 0  L 3 0  C 1.3431457505076203 0  0 1.3431457505076194  0 3  L 0 15  C 0 16.65685424949238  1.3431457505076203 18  3 18  L 9 18  C 10.65685424949238 18  12 16.65685424949238  12 15  L 12 3  C 12 1.3431457505076194  10.65685424949238 0  9 0  Z M 3 1.5  L 9 1.5  C 9.82842712474619 1.5  10.5 2.17157287525381  10.5 3  L 10.5 15  C 10.5 15.828427124746192  9.82842712474619 16.5  9 16.5  L 3 16.5  C 2.17157287525381 16.5  1.5 15.828427124746192  1.5 15  L 1.5 3  C 1.5 2.17157287525381  2.17157287525381 1.5  3 1.5  Z " fill-rule="nonzero" fill="rgba(0, 0, 0, 1)" stroke="none" transform="matrix(1 0 0 1 7 0 )" class="fill" />
    <path d="M 9 0  L 3 0  C 1.3431457505076203 0  0 1.3431457505076194  0 3  L 0 15  C 0 16.65685424949238  1.3431457505076203 18  3 18  L 9 18  C 10.65685424949238 18  12 16.65685424949238  12 15  L 12 3  C 12 1.3431457505076194  10.65685424949238 0  9 0  Z " stroke-width="0" stroke-dasharray="0" stroke="rgba(255, 255, 255, 0)" fill="none" transform="matrix(1 0 0 1 7 0 )" class="stroke" mask="url(#Clip6063)" />
    <path d="M 3 1.5  L 9 1.5  C 9.82842712474619 1.5  10.5 2.17157287525381  10.5 3  L 10.5 15  C 10.5 15.828427124746192  9.82842712474619 16.5  9 16.5  L 3 16.5  C 2.17157287525381 16.5  1.5 15.828427124746192  1.5 15  L 1.5 3  C 1.5 2.17157287525381  2.17157287525381 1.5  3 1.5  Z " stroke-width="0" stroke-dasharray="0" stroke="rgba(255, 255, 255, 0)" fill="none" transform="matrix(1 0 0 1 7 0 )" class="stroke" mask="url(#Clip6063)" />
  </g>
</svg>