<?xml version="1.0" encoding="utf-8"?>
<svg version="1.1" xmlns:xlink="http://www.w3.org/1999/xlink" width="48px" height="42px" xmlns="http://www.w3.org/2000/svg">
  <defs>
    <pattern id="BGPattern" patternUnits="userSpaceOnUse" alignment="0 0" imageRepeat="None" />
    <mask fill="white" id="Clip6837">
      <path d="M 24.002000000000002 8.258000000000001  L 12 0.6139999999999999  L 0 8.258  L 12 15.902000000000001  L 24.002000000000002 8.258000000000001  Z M 48 8.258000000000001  L 36 0.6139999999999999  L 24 8.258  L 36 15.902000000000001  L 48 8.258000000000001  Z M 12 15.904  L 0 23.548  L 12 31.192  L 24.002000000000002 23.548000000000005  L 12 15.904  Z M 48 23.548000000000005  L 36 15.904  L 24 23.548000000000005  L 36 31.192  L 48 23.548000000000005  Z M 24.002000000000002 26.098  L 12 33.742  L 24.002000000000002 41.385999999999996  L 36.002 33.742  L 24.002000000000002 26.098  Z " fill-rule="evenodd" />
    </mask>
  </defs>
  <g>
    <path d="M 24.002000000000002 8.258000000000001  L 12 0.6139999999999999  L 0 8.258  L 12 15.902000000000001  L 24.002000000000002 8.258000000000001  Z M 48 8.258000000000001  L 36 0.6139999999999999  L 24 8.258  L 36 15.902000000000001  L 48 8.258000000000001  Z M 12 15.904  L 0 23.548  L 12 31.192  L 24.002000000000002 23.548000000000005  L 12 15.904  Z M 48 23.548000000000005  L 36 15.904  L 24 23.548000000000005  L 36 31.192  L 48 23.548000000000005  Z M 24.002000000000002 26.098  L 12 33.742  L 24.002000000000002 41.385999999999996  L 36.002 33.742  L 24.002000000000002 26.098  Z " fill-rule="nonzero" fill="rgba(0, 97, 255, 1)" stroke="none" class="fill" />
    <path d="M 24.002000000000002 8.258000000000001  L 12 0.6139999999999999  L 0 8.258  L 12 15.902000000000001  L 24.002000000000002 8.258000000000001  Z " stroke-width="0" stroke-dasharray="0" stroke="rgba(255, 255, 255, 0)" fill="none" class="stroke" mask="url(#Clip6837)" />
    <path d="M 48 8.258000000000001  L 36 0.6139999999999999  L 24 8.258  L 36 15.902000000000001  L 48 8.258000000000001  Z " stroke-width="0" stroke-dasharray="0" stroke="rgba(255, 255, 255, 0)" fill="none" class="stroke" mask="url(#Clip6837)" />
    <path d="M 12 15.904  L 0 23.548  L 12 31.192  L 24.002000000000002 23.548000000000005  L 12 15.904  Z " stroke-width="0" stroke-dasharray="0" stroke="rgba(255, 255, 255, 0)" fill="none" class="stroke" mask="url(#Clip6837)" />
    <path d="M 48 23.548000000000005  L 36 15.904  L 24 23.548000000000005  L 36 31.192  L 48 23.548000000000005  Z " stroke-width="0" stroke-dasharray="0" stroke="rgba(255, 255, 255, 0)" fill="none" class="stroke" mask="url(#Clip6837)" />
    <path d="M 24.002000000000002 26.098  L 12 33.742  L 24.002000000000002 41.385999999999996  L 36.002 33.742  L 24.002000000000002 26.098  Z " stroke-width="0" stroke-dasharray="0" stroke="rgba(255, 255, 255, 0)" fill="none" class="stroke" mask="url(#Clip6837)" />
  </g>
</svg>