<?xml version="1.0" encoding="utf-8"?>
<svg version="1.1" xmlns:xlink="http://www.w3.org/1999/xlink" width="15px" height="19px" xmlns="http://www.w3.org/2000/svg">
  <defs>
    <pattern id="BGPattern" patternUnits="userSpaceOnUse" alignment="0 0" imageRepeat="None" />
    <mask fill="white" id="Clip4622">
      <path d="M 15 17  C 15 18.104569499661586  14.104569499661586 19  13 19  L 2 19  C 0.8954305003384131 19  0 18.104569499661586  0 17  L 0 2  C 0 0.8954305003384134  0.8954305003384131 0  2 0  L 13 0  C 14.104569499661586 0  15 0.8954305003384134  15 2  L 15 17  Z M 13 2  L 2 2  L 2 17  L 13 17  L 13 2  Z " fill-rule="evenodd" />
    </mask>
  </defs>
  <g transform="matrix(1 0 0 1 -2 -9 )">
    <path d="M 15 17  C 15 18.104569499661586  14.104569499661586 19  13 19  L 2 19  C 0.8954305003384131 19  0 18.104569499661586  0 17  L 0 2  C 0 0.8954305003384134  0.8954305003384131 0  2 0  L 13 0  C 14.104569499661586 0  15 0.8954305003384134  15 2  L 15 17  Z M 13 2  L 2 2  L 2 17  L 13 17  L 13 2  Z " fill-rule="nonzero" fill="rgba(0, 0, 0, 1)" stroke="none" transform="matrix(1 0 0 1 2 9 )" class="fill" />
    <path d="M 15 17  C 15 18.104569499661586  14.104569499661586 19  13 19  L 2 19  C 0.8954305003384131 19  0 18.104569499661586  0 17  L 0 2  C 0 0.8954305003384134  0.8954305003384131 0  2 0  L 13 0  C 14.104569499661586 0  15 0.8954305003384134  15 2  L 15 17  Z " stroke-width="0" stroke-dasharray="0" stroke="rgba(255, 255, 255, 0)" fill="none" transform="matrix(1 0 0 1 2 9 )" class="stroke" mask="url(#Clip4622)" />
    <path d="M 13 2  L 2 2  L 2 17  L 13 17  L 13 2  Z " stroke-width="0" stroke-dasharray="0" stroke="rgba(255, 255, 255, 0)" fill="none" transform="matrix(1 0 0 1 2 9 )" class="stroke" mask="url(#Clip4622)" />
  </g>
</svg>