<?xml version="1.0" encoding="utf-8"?>
<svg version="1.1" xmlns:xlink="http://www.w3.org/1999/xlink" width="24px" height="24px" xmlns="http://www.w3.org/2000/svg">
  <defs>
    <pattern id="BGPattern" patternUnits="userSpaceOnUse" alignment="0 0" imageRepeat="None" />
    <mask fill="white" id="Clip5273">
      <path d="M 4 1.3333333333333333  C 4 0.9651435001128044  4.298476833446138 0.6666666666666666  4.666666666666666 0.6666666666666666  C 5.034856499887195 0.6666666666666666  5.333333333333333 0.9651435001128044  5.333333333333333 1.3333333333333333  L 5.333333333333333 18.666666666666664  L 22.666666666666664 18.666666666666664  C 23.034856499887198 18.666666666666664  23.333333333333332 18.965143500112802  23.333333333333332 19.333333333333332  C 23.333333333333332 19.701523166553862  23.034856499887198 20  22.666666666666664 20  L 20 20  L 20 22.666666666666664  C 20 23.034856499887198  19.701523166553862 23.333333333333332  19.333333333333332 23.333333333333332  C 18.965143500112802 23.333333333333332  18.666666666666664 23.034856499887198  18.666666666666664 22.666666666666664  L 18.666666666666664 20  L 4.666666666666666 20  C 4.298476833446138 20  4 19.701523166553862  4 19.333333333333332  L 4 5.333333333333333  L 1.3333333333333333 5.333333333333333  C 0.9651435001128044 5.333333333333333  0.6666666666666666 5.034856499887195  0.6666666666666666 4.666666666666666  C 0.6666666666666666 4.298476833446138  0.9651435001128044 4  1.3333333333333333 4  L 4 4  L 4 1.3333333333333333  Z M 8.666666666666666 5.333333333333333  C 8.298476833446138 5.333333333333333  8 5.034856499887195  8 4.666666666666666  C 8 4.298476833446138  8.298476833446138 4  8.666666666666666 4  L 19.333333333333332 4  C 19.701523166553862 4  20 4.298476833446138  20 4.666666666666666  L 20 15.333333333333332  C 20 15.701523166553862  19.701523166553862 16  19.333333333333332 16  C 18.965143500112802 16  18.666666666666664 15.701523166553862  18.666666666666664 15.333333333333332  L 18.666666666666664 5.333333333333333  L 8.666666666666666 5.333333333333333  Z " fill-rule="evenodd" />
    </mask>
  </defs>
  <g>
    <path d="M 4 1.3333333333333333  C 4 0.9651435001128044  4.298476833446138 0.6666666666666666  4.666666666666666 0.6666666666666666  C 5.034856499887195 0.6666666666666666  5.333333333333333 0.9651435001128044  5.333333333333333 1.3333333333333333  L 5.333333333333333 18.666666666666664  L 22.666666666666664 18.666666666666664  C 23.034856499887198 18.666666666666664  23.333333333333332 18.965143500112802  23.333333333333332 19.333333333333332  C 23.333333333333332 19.701523166553862  23.034856499887198 20  22.666666666666664 20  L 20 20  L 20 22.666666666666664  C 20 23.034856499887198  19.701523166553862 23.333333333333332  19.333333333333332 23.333333333333332  C 18.965143500112802 23.333333333333332  18.666666666666664 23.034856499887198  18.666666666666664 22.666666666666664  L 18.666666666666664 20  L 4.666666666666666 20  C 4.298476833446138 20  4 19.701523166553862  4 19.333333333333332  L 4 5.333333333333333  L 1.3333333333333333 5.333333333333333  C 0.9651435001128044 5.333333333333333  0.6666666666666666 5.034856499887195  0.6666666666666666 4.666666666666666  C 0.6666666666666666 4.298476833446138  0.9651435001128044 4  1.3333333333333333 4  L 4 4  L 4 1.3333333333333333  Z M 8.666666666666666 5.333333333333333  C 8.298476833446138 5.333333333333333  8 5.034856499887195  8 4.666666666666666  C 8 4.298476833446138  8.298476833446138 4  8.666666666666666 4  L 19.333333333333332 4  C 19.701523166553862 4  20 4.298476833446138  20 4.666666666666666  L 20 15.333333333333332  C 20 15.701523166553862  19.701523166553862 16  19.333333333333332 16  C 18.965143500112802 16  18.666666666666664 15.701523166553862  18.666666666666664 15.333333333333332  L 18.666666666666664 5.333333333333333  L 8.666666666666666 5.333333333333333  Z " fill-rule="nonzero" fill="rgba(0, 0, 0, 1)" stroke="none" class="fill" />
    <path d="M 4 1.3333333333333333  C 4 0.9651435001128044  4.298476833446138 0.6666666666666666  4.666666666666666 0.6666666666666666  C 5.034856499887195 0.6666666666666666  5.333333333333333 0.9651435001128044  5.333333333333333 1.3333333333333333  L 5.333333333333333 18.666666666666664  L 22.666666666666664 18.666666666666664  C 23.034856499887198 18.666666666666664  23.333333333333332 18.965143500112802  23.333333333333332 19.333333333333332  C 23.333333333333332 19.701523166553862  23.034856499887198 20  22.666666666666664 20  L 20 20  L 20 22.666666666666664  C 20 23.034856499887198  19.701523166553862 23.333333333333332  19.333333333333332 23.333333333333332  C 18.965143500112802 23.333333333333332  18.666666666666664 23.034856499887198  18.666666666666664 22.666666666666664  L 18.666666666666664 20  L 4.666666666666666 20  C 4.298476833446138 20  4 19.701523166553862  4 19.333333333333332  L 4 5.333333333333333  L 1.3333333333333333 5.333333333333333  C 0.9651435001128044 5.333333333333333  0.6666666666666666 5.034856499887195  0.6666666666666666 4.666666666666666  C 0.6666666666666666 4.298476833446138  0.9651435001128044 4  1.3333333333333333 4  L 4 4  L 4 1.3333333333333333  Z " stroke-width="0" stroke-dasharray="0" stroke="rgba(255, 255, 255, 0)" fill="none" class="stroke" mask="url(#Clip5273)" />
    <path d="M 8.666666666666666 5.333333333333333  C 8.298476833446138 5.333333333333333  8 5.034856499887195  8 4.666666666666666  C 8 4.298476833446138  8.298476833446138 4  8.666666666666666 4  L 19.333333333333332 4  C 19.701523166553862 4  20 4.298476833446138  20 4.666666666666666  L 20 15.333333333333332  C 20 15.701523166553862  19.701523166553862 16  19.333333333333332 16  C 18.965143500112802 16  18.666666666666664 15.701523166553862  18.666666666666664 15.333333333333332  L 18.666666666666664 5.333333333333333  L 8.666666666666666 5.333333333333333  Z " stroke-width="0" stroke-dasharray="0" stroke="rgba(255, 255, 255, 0)" fill="none" class="stroke" mask="url(#Clip5273)" />
  </g>
</svg>