<?xml version="1.0" encoding="utf-8"?>
<svg version="1.1" xmlns:xlink="http://www.w3.org/1999/xlink" width="12px" height="3px" xmlns="http://www.w3.org/2000/svg">
  <defs>
    <pattern id="BGPattern" patternUnits="userSpaceOnUse" alignment="0 0" imageRepeat="None" />
    <mask fill="white" id="Clip3231">
      <path d="M 12 0  L 11 0  L 11 2  L 1 2  L 1 0  L 0 0  L 0 2  C 0 2.5999999999999996  0.3999999999999999 3  1 3  L 11 3  C 11.6 3  12 2.5999999999999996  12 2  L 12 0  Z " fill-rule="evenodd" />
    </mask>
  </defs>
  <g transform="matrix(1 0 0 1 -2 -12 )">
    <path d="M 12 0  L 11 0  L 11 2  L 1 2  L 1 0  L 0 0  L 0 2  C 0 2.5999999999999996  0.3999999999999999 3  1 3  L 11 3  C 11.6 3  12 2.5999999999999996  12 2  L 12 0  Z " fill-rule="nonzero" fill="rgba(0, 0, 0, 1)" stroke="none" transform="matrix(1 0 0 1 2 12 )" class="fill" />
    <path d="M 12 0  L 11 0  L 11 2  L 1 2  L 1 0  L 0 0  L 0 2  C 0 2.5999999999999996  0.3999999999999999 3  1 3  L 11 3  C 11.6 3  12 2.5999999999999996  12 2  L 12 0  Z " stroke-width="0" stroke-dasharray="0" stroke="rgba(255, 255, 255, 0)" fill="none" transform="matrix(1 0 0 1 2 12 )" class="stroke" mask="url(#Clip3231)" />
  </g>
</svg>