<?xml version="1.0" encoding="utf-8"?>
<svg version="1.1" xmlns:xlink="http://www.w3.org/1999/xlink" width="49px" height="40px" xmlns="http://www.w3.org/2000/svg">
  <defs>
    <pattern id="BGPattern" patternUnits="userSpaceOnUse" alignment="0 0" imageRepeat="None" />
    <mask fill="white" id="Clip7550">
      <path d="M 47.81200000000001 30.755999999999993  C 49.30000000000001 27.925999999999995  49.39000000000001 24.413999999999994  48.082 21.496  C 46.864000000000004 18.735999999999997  44.566 16.543999999999997  41.898 15.193999999999999  C 37.190000000000005 12.809999999999999  31.336000000000002 12.823999999999998  26.640000000000004 15.253999999999998  C 23.378000000000004 16.927999999999997  20.654000000000003 19.927999999999997  19.882000000000005 23.577999999999996  C 19.246000000000006 26.265999999999995  19.816000000000006 29.159999999999997  21.242000000000004 31.499999999999993  C 23.364000000000004 35.023999999999994  27.200000000000006 37.273999999999994  31.184000000000005 37.995999999999995  C 34.07000000000001 38.581999999999994  37.056000000000004 38.233999999999995  39.86000000000001 37.425999999999995  C 41.544000000000004 38.077999999999996  43.044000000000004 39.13399999999999  44.67600000000001 39.91799999999999  C 44.25400000000001 38.50399999999999  43.80400000000001 37.105999999999995  43.32400000000001 35.71399999999999  C 45.15600000000001 34.413999999999994  46.81600000000001 32.791999999999994  47.81200000000001 30.755999999999993  Z M 28.234 2.565999999999999  L 28.234 2.564  C 23.244 -0.24399999999999977  17.03 -0.6659999999999999  11.662000000000003 1.274  C 8.134000000000002 2.5440000000000005  4.942000000000003 4.904  2.9700000000000024 8.114  C 1.1800000000000024 11.014000000000001  0.5100000000000025 14.630000000000003  1.3720000000000023 17.948  C 2.238000000000002 21.628  4.794000000000002 24.714  7.896000000000003 26.774  C 7.296000000000002 28.474000000000004  6.726000000000003 30.172000000000004  6.186000000000003 31.884  C 8.136000000000003 30.863999999999997  10.086000000000002 29.798000000000002  12.038000000000004 28.762  C 14.378000000000002 29.512  16.868000000000002 29.880000000000003  19.358000000000004 29.798000000000002  C 18.698000000000004 27.912000000000003  18.548000000000005 25.868000000000002  18.848000000000003 23.896  C 19.298000000000002 21.154000000000003  20.798000000000002 18.646  22.836000000000002 16.788  C 26.288000000000004 13.558  31.178000000000004 12.196000000000002  35.828 12.526  C 34.956 8.256  31.956000000000007 4.648  28.18 2.565999999999999  L 28.234 2.565999999999999  Z M 29.180000000000003 20.000000000000004  C 30.648000000000003 19.380000000000003  32.34400000000001 21.074000000000005  31.700000000000006 22.542  C 31.282000000000007 23.845999999999997  29.388 24.238000000000003  28.470000000000002 23.246000000000002  C 27.458000000000002 22.328000000000003  27.852000000000004 20.410000000000004  29.180000000000003 20.000000000000004  Z M 41.290000000000006 22.728  L 41.290000000000006 22.726000000000003  C 40.778000000000006 23.898000000000003  39.00800000000001 24.172000000000004  38.138000000000005 23.266  C 37.720000000000006 22.884  37.598000000000006 22.308000000000003  37.45 21.806  C 37.658 20.89  38.290000000000006 19.94  39.31 19.896  C 40.72 19.7  41.982 21.442  41.260000000000005 22.728  L 41.290000000000006 22.728  Z M 26.976 9.794  L 26.980000000000004 9.818  C 26.996000000000002 11.739999999999998  24.43 12.939999999999998  22.990000000000002 11.636  C 21.496000000000002 10.565999999999999  21.92 7.962  23.674000000000003 7.4239999999999995  C 25.244000000000007 6.793999999999999  27.100000000000005 8.112  26.976 9.794  Z M 11.66 7.399999999999999  C 13.406 6.727999999999998  15.389999999999999 8.499999999999998  14.862 10.306  C 14.518000000000002 11.975999999999999  12.280000000000001 12.782  10.97 11.661999999999999  C 9.452 10.591999999999999  9.878 7.9399999999999995  11.66 7.399999999999999  Z " fill-rule="evenodd" />
    </mask>
  </defs>
  <g>
    <path d="M 47.81200000000001 30.755999999999993  C 49.30000000000001 27.925999999999995  49.39000000000001 24.413999999999994  48.082 21.496  C 46.864000000000004 18.735999999999997  44.566 16.543999999999997  41.898 15.193999999999999  C 37.190000000000005 12.809999999999999  31.336000000000002 12.823999999999998  26.640000000000004 15.253999999999998  C 23.378000000000004 16.927999999999997  20.654000000000003 19.927999999999997  19.882000000000005 23.577999999999996  C 19.246000000000006 26.265999999999995  19.816000000000006 29.159999999999997  21.242000000000004 31.499999999999993  C 23.364000000000004 35.023999999999994  27.200000000000006 37.273999999999994  31.184000000000005 37.995999999999995  C 34.07000000000001 38.581999999999994  37.056000000000004 38.233999999999995  39.86000000000001 37.425999999999995  C 41.544000000000004 38.077999999999996  43.044000000000004 39.13399999999999  44.67600000000001 39.91799999999999  C 44.25400000000001 38.50399999999999  43.80400000000001 37.105999999999995  43.32400000000001 35.71399999999999  C 45.15600000000001 34.413999999999994  46.81600000000001 32.791999999999994  47.81200000000001 30.755999999999993  Z M 28.234 2.565999999999999  L 28.234 2.564  C 23.244 -0.24399999999999977  17.03 -0.6659999999999999  11.662000000000003 1.274  C 8.134000000000002 2.5440000000000005  4.942000000000003 4.904  2.9700000000000024 8.114  C 1.1800000000000024 11.014000000000001  0.5100000000000025 14.630000000000003  1.3720000000000023 17.948  C 2.238000000000002 21.628  4.794000000000002 24.714  7.896000000000003 26.774  C 7.296000000000002 28.474000000000004  6.726000000000003 30.172000000000004  6.186000000000003 31.884  C 8.136000000000003 30.863999999999997  10.086000000000002 29.798000000000002  12.038000000000004 28.762  C 14.378000000000002 29.512  16.868000000000002 29.880000000000003  19.358000000000004 29.798000000000002  C 18.698000000000004 27.912000000000003  18.548000000000005 25.868000000000002  18.848000000000003 23.896  C 19.298000000000002 21.154000000000003  20.798000000000002 18.646  22.836000000000002 16.788  C 26.288000000000004 13.558  31.178000000000004 12.196000000000002  35.828 12.526  C 34.956 8.256  31.956000000000007 4.648  28.18 2.565999999999999  L 28.234 2.565999999999999  Z M 29.180000000000003 20.000000000000004  C 30.648000000000003 19.380000000000003  32.34400000000001 21.074000000000005  31.700000000000006 22.542  C 31.282000000000007 23.845999999999997  29.388 24.238000000000003  28.470000000000002 23.246000000000002  C 27.458000000000002 22.328000000000003  27.852000000000004 20.410000000000004  29.180000000000003 20.000000000000004  Z M 41.290000000000006 22.728  L 41.290000000000006 22.726000000000003  C 40.778000000000006 23.898000000000003  39.00800000000001 24.172000000000004  38.138000000000005 23.266  C 37.720000000000006 22.884  37.598000000000006 22.308000000000003  37.45 21.806  C 37.658 20.89  38.290000000000006 19.94  39.31 19.896  C 40.72 19.7  41.982 21.442  41.260000000000005 22.728  L 41.290000000000006 22.728  Z M 26.976 9.794  L 26.980000000000004 9.818  C 26.996000000000002 11.739999999999998  24.43 12.939999999999998  22.990000000000002 11.636  C 21.496000000000002 10.565999999999999  21.92 7.962  23.674000000000003 7.4239999999999995  C 25.244000000000007 6.793999999999999  27.100000000000005 8.112  26.976 9.794  Z M 11.66 7.399999999999999  C 13.406 6.727999999999998  15.389999999999999 8.499999999999998  14.862 10.306  C 14.518000000000002 11.975999999999999  12.280000000000001 12.782  10.97 11.661999999999999  C 9.452 10.591999999999999  9.878 7.9399999999999995  11.66 7.399999999999999  Z " fill-rule="nonzero" fill="rgba(123, 179, 46, 1)" stroke="none" class="fill" />
    <path d="M 47.81200000000001 30.755999999999993  C 49.30000000000001 27.925999999999995  49.39000000000001 24.413999999999994  48.082 21.496  C 46.864000000000004 18.735999999999997  44.566 16.543999999999997  41.898 15.193999999999999  C 37.190000000000005 12.809999999999999  31.336000000000002 12.823999999999998  26.640000000000004 15.253999999999998  C 23.378000000000004 16.927999999999997  20.654000000000003 19.927999999999997  19.882000000000005 23.577999999999996  C 19.246000000000006 26.265999999999995  19.816000000000006 29.159999999999997  21.242000000000004 31.499999999999993  C 23.364000000000004 35.023999999999994  27.200000000000006 37.273999999999994  31.184000000000005 37.995999999999995  C 34.07000000000001 38.581999999999994  37.056000000000004 38.233999999999995  39.86000000000001 37.425999999999995  C 41.544000000000004 38.077999999999996  43.044000000000004 39.13399999999999  44.67600000000001 39.91799999999999  C 44.25400000000001 38.50399999999999  43.80400000000001 37.105999999999995  43.32400000000001 35.71399999999999  C 45.15600000000001 34.413999999999994  46.81600000000001 32.791999999999994  47.81200000000001 30.755999999999993  Z " stroke-width="0" stroke-dasharray="0" stroke="rgba(255, 255, 255, 0)" fill="none" class="stroke" mask="url(#Clip7550)" />
    <path d="M 28.234 2.565999999999999  L 28.234 2.564  C 23.244 -0.24399999999999977  17.03 -0.6659999999999999  11.662000000000003 1.274  C 8.134000000000002 2.5440000000000005  4.942000000000003 4.904  2.9700000000000024 8.114  C 1.1800000000000024 11.014000000000001  0.5100000000000025 14.630000000000003  1.3720000000000023 17.948  C 2.238000000000002 21.628  4.794000000000002 24.714  7.896000000000003 26.774  C 7.296000000000002 28.474000000000004  6.726000000000003 30.172000000000004  6.186000000000003 31.884  C 8.136000000000003 30.863999999999997  10.086000000000002 29.798000000000002  12.038000000000004 28.762  C 14.378000000000002 29.512  16.868000000000002 29.880000000000003  19.358000000000004 29.798000000000002  C 18.698000000000004 27.912000000000003  18.548000000000005 25.868000000000002  18.848000000000003 23.896  C 19.298000000000002 21.154000000000003  20.798000000000002 18.646  22.836000000000002 16.788  C 26.288000000000004 13.558  31.178000000000004 12.196000000000002  35.828 12.526  C 34.956 8.256  31.956000000000007 4.648  28.18 2.565999999999999  L 28.234 2.565999999999999  Z " stroke-width="0" stroke-dasharray="0" stroke="rgba(255, 255, 255, 0)" fill="none" class="stroke" mask="url(#Clip7550)" />
    <path d="M 29.180000000000003 20.000000000000004  C 30.648000000000003 19.380000000000003  32.34400000000001 21.074000000000005  31.700000000000006 22.542  C 31.282000000000007 23.845999999999997  29.388 24.238000000000003  28.470000000000002 23.246000000000002  C 27.458000000000002 22.328000000000003  27.852000000000004 20.410000000000004  29.180000000000003 20.000000000000004  Z " stroke-width="0" stroke-dasharray="0" stroke="rgba(255, 255, 255, 0)" fill="none" class="stroke" mask="url(#Clip7550)" />
    <path d="M 41.290000000000006 22.728  L 41.290000000000006 22.726000000000003  C 40.778000000000006 23.898000000000003  39.00800000000001 24.172000000000004  38.138000000000005 23.266  C 37.720000000000006 22.884  37.598000000000006 22.308000000000003  37.45 21.806  C 37.658 20.89  38.290000000000006 19.94  39.31 19.896  C 40.72 19.7  41.982 21.442  41.260000000000005 22.728  L 41.290000000000006 22.728  Z " stroke-width="0" stroke-dasharray="0" stroke="rgba(255, 255, 255, 0)" fill="none" class="stroke" mask="url(#Clip7550)" />
    <path d="M 26.976 9.794  L 26.980000000000004 9.818  C 26.996000000000002 11.739999999999998  24.43 12.939999999999998  22.990000000000002 11.636  C 21.496000000000002 10.565999999999999  21.92 7.962  23.674000000000003 7.4239999999999995  C 25.244000000000007 6.793999999999999  27.100000000000005 8.112  26.976 9.794  Z " stroke-width="0" stroke-dasharray="0" stroke="rgba(255, 255, 255, 0)" fill="none" class="stroke" mask="url(#Clip7550)" />
    <path d="M 11.66 7.399999999999999  C 13.406 6.727999999999998  15.389999999999999 8.499999999999998  14.862 10.306  C 14.518000000000002 11.975999999999999  12.280000000000001 12.782  10.97 11.661999999999999  C 9.452 10.591999999999999  9.878 7.9399999999999995  11.66 7.399999999999999  Z " stroke-width="0" stroke-dasharray="0" stroke="rgba(255, 255, 255, 0)" fill="none" class="stroke" mask="url(#Clip7550)" />
  </g>
</svg>