<?xml version="1.0" encoding="utf-8"?>
<svg version="1.1" xmlns:xlink="http://www.w3.org/1999/xlink" width="24px" height="17px" xmlns="http://www.w3.org/2000/svg">
  <defs>
    <pattern id="BGPattern" patternUnits="userSpaceOnUse" alignment="0 0" imageRepeat="None" />
    <mask fill="white" id="Clip2796">
      <path d="M 0.875 16.999999895488585  L 3.8062499999999986 16.999999895488585  C 4.443749999999998 16.999999895488585  5.049999999999997 16.69374989737133  5.424999999999997 16.17499990056046  L 12 7.087499956427961  L 18.575000000000003 16.17499990056046  C 18.950000000000003 16.693749897371323  19.550000000000004 16.999999895488585  20.19375 16.999999895488585  L 23.125 16.999999895488585  C 23.53125 16.999999895488585  23.768749999999997 16.537499898331912  23.53125 16.206249900368345  L 12.40625 0.8312499948896929  C 12.31286534523499 0.7016489944703109  12.162865768940826 0.6248487471241496  12.003124999999997 0.6248487471241496  C 11.843384231059176 0.6248487471241496  11.693384654765005 0.7016489944703074  11.600000000000001 0.8312499948896964  L 0.475000000000005 16.206249900368345  C 0.41147189965989384 16.29195705623173  0.37717752698516094 16.395815720948185  0.37717752698516094 16.5025000030585  C 0.37717752698516094 16.777261664410155  0.5999158639443394 17  0.8746775269851597 17  Z " fill-rule="evenodd" />
    </mask>
  </defs>
  <g transform="matrix(1 0 0 1 -13 -15 )">
    <path d="M 0.875 16.999999895488585  L 3.8062499999999986 16.999999895488585  C 4.443749999999998 16.999999895488585  5.049999999999997 16.69374989737133  5.424999999999997 16.17499990056046  L 12 7.087499956427961  L 18.575000000000003 16.17499990056046  C 18.950000000000003 16.693749897371323  19.550000000000004 16.999999895488585  20.19375 16.999999895488585  L 23.125 16.999999895488585  C 23.53125 16.999999895488585  23.768749999999997 16.537499898331912  23.53125 16.206249900368345  L 12.40625 0.8312499948896929  C 12.31286534523499 0.7016489944703109  12.162865768940826 0.6248487471241496  12.003124999999997 0.6248487471241496  C 11.843384231059176 0.6248487471241496  11.693384654765005 0.7016489944703074  11.600000000000001 0.8312499948896964  L 0.475000000000005 16.206249900368345  C 0.41147189965989384 16.29195705623173  0.37717752698516094 16.395815720948185  0.37717752698516094 16.5025000030585  C 0.37717752698516094 16.777261664410155  0.5999158639443394 17  0.8746775269851597 17  Z " fill-rule="nonzero" fill="rgba(0, 0, 0, 1)" stroke="none" transform="matrix(1 0 0 1 13 15 )" class="fill" />
    <path d="M 0.875 16.999999895488585  L 3.8062499999999986 16.999999895488585  C 4.443749999999998 16.999999895488585  5.049999999999997 16.69374989737133  5.424999999999997 16.17499990056046  L 12 7.087499956427961  L 18.575000000000003 16.17499990056046  C 18.950000000000003 16.693749897371323  19.550000000000004 16.999999895488585  20.19375 16.999999895488585  L 23.125 16.999999895488585  C 23.53125 16.999999895488585  23.768749999999997 16.537499898331912  23.53125 16.206249900368345  L 12.40625 0.8312499948896929  C 12.31286534523499 0.7016489944703109  12.162865768940826 0.6248487471241496  12.003124999999997 0.6248487471241496  C 11.843384231059176 0.6248487471241496  11.693384654765005 0.7016489944703074  11.600000000000001 0.8312499948896964  L 0.475000000000005 16.206249900368345  C 0.41147189965989384 16.29195705623173  0.37717752698516094 16.395815720948185  0.37717752698516094 16.5025000030585  C 0.37717752698516094 16.777261664410155  0.5999158639443394 17  0.8746775269851597 17  Z " stroke-width="0" stroke-dasharray="0" stroke="rgba(255, 255, 255, 0)" fill="none" transform="matrix(1 0 0 1 13 15 )" class="stroke" mask="url(#Clip2796)" />
  </g>
</svg>