<?xml version="1.0" encoding="utf-8"?>
<svg version="1.1" xmlns:xlink="http://www.w3.org/1999/xlink" width="5px" height="6px" xmlns="http://www.w3.org/2000/svg">
  <defs>
    <pattern id="BGPattern" patternUnits="userSpaceOnUse" alignment="0 0" imageRepeat="None" />
    <mask fill="white" id="Clip4238">
      <path d="M 2.370000000000001 0.7600000000000016  C 1.9191903935536523 1.9691748874790491  1.259126138102019 3.089591649296949  0.4200000000000017 4.07  L 2 5.350000000000001  C 2.968582954256359 4.186998917468149  3.7266354702963227 2.8637911774162568  4.240000000000002 1.4400000000000013  L 2.370000000000001 0.7600000000000016  Z " fill-rule="evenodd" />
    </mask>
  </defs>
  <g transform="matrix(1 0 0 1 -24 -19 )">
    <path d="M 2.370000000000001 0.7600000000000016  C 1.9191903935536523 1.9691748874790491  1.259126138102019 3.089591649296949  0.4200000000000017 4.07  L 2 5.350000000000001  C 2.968582954256359 4.186998917468149  3.7266354702963227 2.8637911774162568  4.240000000000002 1.4400000000000013  L 2.370000000000001 0.7600000000000016  Z " fill-rule="nonzero" fill="rgba(0, 0, 0, 1)" stroke="none" transform="matrix(1 0 0 1 24 19 )" class="fill" />
    <path d="M 2.370000000000001 0.7600000000000016  C 1.9191903935536523 1.9691748874790491  1.259126138102019 3.089591649296949  0.4200000000000017 4.07  L 2 5.350000000000001  C 2.968582954256359 4.186998917468149  3.7266354702963227 2.8637911774162568  4.240000000000002 1.4400000000000013  L 2.370000000000001 0.7600000000000016  Z " stroke-width="0" stroke-dasharray="0" stroke="rgba(255, 255, 255, 0)" fill="none" transform="matrix(1 0 0 1 24 19 )" class="stroke" mask="url(#Clip4238)" />
  </g>
</svg>