<?xml version="1.0" encoding="utf-8"?>
<svg version="1.1" xmlns:xlink="http://www.w3.org/1999/xlink" width="5px" height="6px" xmlns="http://www.w3.org/2000/svg">
  <defs>
    <pattern id="BGPattern" patternUnits="userSpaceOnUse" alignment="0 0" imageRepeat="None" />
    <mask fill="white" id="Clip4240">
      <path d="M 2.63 0.7800000000000011  L 2.67 0.7600000000000016  L 0.8000000000000003 1.4400000000000013  C 1.3011952859705662 2.860981079871568  2.0456118545336457 4.184012344908677  3 5.350000000000001  L 3.3200000000000003 5.09  L 4.54 4.09  C 3.7150856562479344 3.106557900954904  3.0686659019053364 1.9863226198690391  2.63 0.7800000000000011  Z " fill-rule="evenodd" />
    </mask>
  </defs>
  <g transform="matrix(1 0 0 1 -3 -19 )">
    <path d="M 2.63 0.7800000000000011  L 2.67 0.7600000000000016  L 0.8000000000000003 1.4400000000000013  C 1.3011952859705662 2.860981079871568  2.0456118545336457 4.184012344908677  3 5.350000000000001  L 3.3200000000000003 5.09  L 4.54 4.09  C 3.7150856562479344 3.106557900954904  3.0686659019053364 1.9863226198690391  2.63 0.7800000000000011  Z " fill-rule="nonzero" fill="rgba(0, 0, 0, 1)" stroke="none" transform="matrix(1 0 0 1 3 19 )" class="fill" />
    <path d="M 2.63 0.7800000000000011  L 2.67 0.7600000000000016  L 0.8000000000000003 1.4400000000000013  C 1.3011952859705662 2.860981079871568  2.0456118545336457 4.184012344908677  3 5.350000000000001  L 3.3200000000000003 5.09  L 4.54 4.09  C 3.7150856562479344 3.106557900954904  3.0686659019053364 1.9863226198690391  2.63 0.7800000000000011  Z " stroke-width="0" stroke-dasharray="0" stroke="rgba(255, 255, 255, 0)" fill="none" transform="matrix(1 0 0 1 3 19 )" class="stroke" mask="url(#Clip4240)" />
  </g>
</svg>