<?xml version="1.0" encoding="utf-8"?>
<svg version="1.1" xmlns:xlink="http://www.w3.org/1999/xlink" width="3px" height="5px" xmlns="http://www.w3.org/2000/svg">
  <defs>
    <pattern id="BGPattern" patternUnits="userSpaceOnUse" alignment="0 0" imageRepeat="None" />
    <mask fill="white" id="Clip4241">
      <path d="M 0.9999999999999988 4.9999999999999964  L 3 5  C 2.997259010681713 3.484402825200545  2.726419001843123 1.9812407761463313  2.1999999999999966 0.5599999999999984  L 0.3299999999999979 1.2399999999999975  C 0.7673419807243453 2.445626979215545  0.9939815719646058 3.7175148345340228  0.9999999999999988 4.9999999999999964  Z " fill-rule="evenodd" />
    </mask>
  </defs>
  <g transform="matrix(1 0 0 1 -26 -11 )">
    <path d="M 0.9999999999999988 4.9999999999999964  L 3 5  C 2.997259010681713 3.484402825200545  2.726419001843123 1.9812407761463313  2.1999999999999966 0.5599999999999984  L 0.3299999999999979 1.2399999999999975  C 0.7673419807243453 2.445626979215545  0.9939815719646058 3.7175148345340228  0.9999999999999988 4.9999999999999964  Z " fill-rule="nonzero" fill="rgba(0, 0, 0, 1)" stroke="none" transform="matrix(1 0 0 1 26 11 )" class="fill" />
    <path d="M 0.9999999999999988 4.9999999999999964  L 3 5  C 2.997259010681713 3.484402825200545  2.726419001843123 1.9812407761463313  2.1999999999999966 0.5599999999999984  L 0.3299999999999979 1.2399999999999975  C 0.7673419807243453 2.445626979215545  0.9939815719646058 3.7175148345340228  0.9999999999999988 4.9999999999999964  Z " stroke-width="0" stroke-dasharray="0" stroke="rgba(255, 255, 255, 0)" fill="none" transform="matrix(1 0 0 1 26 11 )" class="stroke" mask="url(#Clip4241)" />
  </g>
</svg>