<?xml version="1.0" encoding="utf-8"?>
<svg version="1.1" xmlns:xlink="http://www.w3.org/1999/xlink" width="33px" height="50px" xmlns="http://www.w3.org/2000/svg">
  <defs>
    <pattern id="BGPattern" patternUnits="userSpaceOnUse" alignment="0 0" imageRepeat="None" />
    <mask fill="white" id="Clip1239">
      <path d="M 31.086956521739125 22.36024844720498  C 32.562111801242224 23.81987577639751  32.562111801242224 26.18012422360249  31.102484472049696 27.639751552795015  L 9.98447204968943 48.757763975155285  C 8.524844720496901 50.217391304347814  6.16459627329192 50.217391304347814  4.7204968944099335 48.757763975155285  L 1.2111801242236027 45.248447204968954  C -0.24844720496895434 43.788819875776426  -0.24844720496895434 41.428571428571445  1.2111801242236027 39.98447204968943  L 16.18012422360249 25.015527950310567  L 1.2111801242236027 10.046583850931682  C -0.24844720496895434 8.586956521739125  -0.24844720496895434 6.226708074534173  1.2111801242236027 4.782608695652186  L 4.704968944099392 1.2422360248447148  C 6.16459627329192 -0.21739130434781373  8.524844720496901 -0.21739130434781373  9.968944099378888 1.2422360248447148  L 31.086956521739125 22.36024844720498  Z " fill-rule="evenodd" />
    </mask>
  </defs>
  <g>
    <path d="M 31.086956521739125 22.36024844720498  C 32.562111801242224 23.81987577639751  32.562111801242224 26.18012422360249  31.102484472049696 27.639751552795015  L 9.98447204968943 48.757763975155285  C 8.524844720496901 50.217391304347814  6.16459627329192 50.217391304347814  4.7204968944099335 48.757763975155285  L 1.2111801242236027 45.248447204968954  C -0.24844720496895434 43.788819875776426  -0.24844720496895434 41.428571428571445  1.2111801242236027 39.98447204968943  L 16.18012422360249 25.015527950310567  L 1.2111801242236027 10.046583850931682  C -0.24844720496895434 8.586956521739125  -0.24844720496895434 6.226708074534173  1.2111801242236027 4.782608695652186  L 4.704968944099392 1.2422360248447148  C 6.16459627329192 -0.21739130434781373  8.524844720496901 -0.21739130434781373  9.968944099378888 1.2422360248447148  L 31.086956521739125 22.36024844720498  Z " fill-rule="nonzero" fill="rgba(0, 0, 0, 1)" stroke="none" class="fill" />
    <path d="M 31.086956521739125 22.36024844720498  C 32.562111801242224 23.81987577639751  32.562111801242224 26.18012422360249  31.102484472049696 27.639751552795015  L 9.98447204968943 48.757763975155285  C 8.524844720496901 50.217391304347814  6.16459627329192 50.217391304347814  4.7204968944099335 48.757763975155285  L 1.2111801242236027 45.248447204968954  C -0.24844720496895434 43.788819875776426  -0.24844720496895434 41.428571428571445  1.2111801242236027 39.98447204968943  L 16.18012422360249 25.015527950310567  L 1.2111801242236027 10.046583850931682  C -0.24844720496895434 8.586956521739125  -0.24844720496895434 6.226708074534173  1.2111801242236027 4.782608695652186  L 4.704968944099392 1.2422360248447148  C 6.16459627329192 -0.21739130434781373  8.524844720496901 -0.21739130434781373  9.968944099378888 1.2422360248447148  L 31.086956521739125 22.36024844720498  Z " stroke-width="0" stroke-dasharray="0" stroke="rgba(255, 255, 255, 0)" fill="none" class="stroke" mask="url(#Clip1239)" />
  </g>
</svg>