<?xml version="1.0" encoding="utf-8"?>
<svg version="1.1" xmlns:xlink="http://www.w3.org/1999/xlink" width="5px" height="6px" xmlns="http://www.w3.org/2000/svg">
  <defs>
    <pattern id="BGPattern" patternUnits="userSpaceOnUse" alignment="0 0" imageRepeat="None" />
    <mask fill="white" id="Clip4612">
      <path d="M 2.3271000000000015 0.758700000000001  L 4.204600000000003 1.4421  C 3.6888277170811534 2.8671498964461755  2.927496570963285 4.19087444798928  1.9551000000000016 5.353300000000001  L 1.6436000000000028 5.0919000000000025  L 0.423600000000004 4.068200000000001  C 1.2465437980806726 3.084712253629032  1.8908780754102423 1.9646915455889271  2.3274000000000044 0.7589000000000006  Z " fill-rule="evenodd" />
    </mask>
  </defs>
  <g transform="matrix(1 0 0 1 -24 -19 )">
    <path d="M 2.3271000000000015 0.758700000000001  L 4.204600000000003 1.4421  C 3.6888277170811534 2.8671498964461755  2.927496570963285 4.19087444798928  1.9551000000000016 5.353300000000001  L 1.6436000000000028 5.0919000000000025  L 0.423600000000004 4.068200000000001  C 1.2465437980806726 3.084712253629032  1.8908780754102423 1.9646915455889271  2.3274000000000044 0.7589000000000006  Z " fill-rule="nonzero" fill="rgba(0, 0, 0, 1)" stroke="none" transform="matrix(1 0 0 1 24 19 )" class="fill" />
    <path d="M 2.3271000000000015 0.758700000000001  L 4.204600000000003 1.4421  C 3.6888277170811534 2.8671498964461755  2.927496570963285 4.19087444798928  1.9551000000000016 5.353300000000001  L 1.6436000000000028 5.0919000000000025  L 0.423600000000004 4.068200000000001  C 1.2465437980806726 3.084712253629032  1.8908780754102423 1.9646915455889271  2.3274000000000044 0.7589000000000006  Z " stroke-width="0" stroke-dasharray="0" stroke="rgba(255, 255, 255, 0)" fill="none" transform="matrix(1 0 0 1 24 19 )" class="stroke" mask="url(#Clip4612)" />
  </g>
</svg>