<?xml version="1.0" encoding="utf-8"?>
<svg version="1.1" xmlns:xlink="http://www.w3.org/1999/xlink" width="48px" height="24px" xmlns="http://www.w3.org/2000/svg">
  <defs>
    <pattern id="BGPattern" patternUnits="userSpaceOnUse" alignment="0 0" imageRepeat="None" />
    <mask fill="white" id="Clip7086">
      <path d="M 45 1.7140000000000004  L 45.258 1.7140000000000004  C 45.258 0.9559999999999995  45.866 0.3420000000000005  46.63 0.3420000000000005  C 47.386 0.3420000000000005  48 0.9659999999999993  48 1.7140000000000004  L 48 22.286  C 48 23.044000000000004  47.392 23.658  46.628 23.658  C 45.87 23.658  45.256 23.034  45 22.286  L 45 1.7140000000000004  Z M 0 12.686  C 0 10.414000000000001  1.842 8.572  4.114 8.572  C 6.385999999999999 8.572  8.228 10.413999999999998  8.228 12.686  C 8.228 14.958000000000002  6.386 16.8  4.114 16.8  C 1.8419999999999996 16.8  0 14.957999999999998  0 12.686  Z M 15.085999999999999 12.686  C 15.085999999999999 10.413999999999998  16.928 8.572  19.2 8.572  C 21.471999999999998 8.572  23.314 10.413999999999998  23.314 12.686  C 23.314 14.958000000000002  21.472 16.8  19.2 16.8  C 16.927999999999997 16.8  15.085999999999999 14.958000000000002  15.085999999999999 12.686  Z M 30.172000000000004 12.686  C 30.172000000000004 10.413999999999998  32.014 8.572  34.286 8.572  C 36.558 8.572  38.4 10.413999999999998  38.4 12.686  C 38.4 14.958000000000002  36.558 16.8  34.286 16.8  C 32.014 16.8  30.172000000000004 14.958000000000002  30.172000000000004 12.686  Z " fill-rule="evenodd" />
    </mask>
  </defs>
  <g>
    <path d="M 45 1.7140000000000004  L 45.258 1.7140000000000004  C 45.258 0.9559999999999995  45.866 0.3420000000000005  46.63 0.3420000000000005  C 47.386 0.3420000000000005  48 0.9659999999999993  48 1.7140000000000004  L 48 22.286  C 48 23.044000000000004  47.392 23.658  46.628 23.658  C 45.87 23.658  45.256 23.034  45 22.286  L 45 1.7140000000000004  Z M 0 12.686  C 0 10.414000000000001  1.842 8.572  4.114 8.572  C 6.385999999999999 8.572  8.228 10.413999999999998  8.228 12.686  C 8.228 14.958000000000002  6.386 16.8  4.114 16.8  C 1.8419999999999996 16.8  0 14.957999999999998  0 12.686  Z M 15.085999999999999 12.686  C 15.085999999999999 10.413999999999998  16.928 8.572  19.2 8.572  C 21.471999999999998 8.572  23.314 10.413999999999998  23.314 12.686  C 23.314 14.958000000000002  21.472 16.8  19.2 16.8  C 16.927999999999997 16.8  15.085999999999999 14.958000000000002  15.085999999999999 12.686  Z M 30.172000000000004 12.686  C 30.172000000000004 10.413999999999998  32.014 8.572  34.286 8.572  C 36.558 8.572  38.4 10.413999999999998  38.4 12.686  C 38.4 14.958000000000002  36.558 16.8  34.286 16.8  C 32.014 16.8  30.172000000000004 14.958000000000002  30.172000000000004 12.686  Z " fill-rule="nonzero" fill="rgba(211, 45, 39, 1)" stroke="none" class="fill" />
    <path d="M 45 1.7140000000000004  L 45.258 1.7140000000000004  C 45.258 0.9559999999999995  45.866 0.3420000000000005  46.63 0.3420000000000005  C 47.386 0.3420000000000005  48 0.9659999999999993  48 1.7140000000000004  L 48 22.286  C 48 23.044000000000004  47.392 23.658  46.628 23.658  C 45.87 23.658  45.256 23.034  45 22.286  L 45 1.7140000000000004  Z " stroke-width="0" stroke-dasharray="0" stroke="rgba(255, 255, 255, 0)" fill="none" class="stroke" mask="url(#Clip7086)" />
    <path d="M 0 12.686  C 0 10.414000000000001  1.842 8.572  4.114 8.572  C 6.385999999999999 8.572  8.228 10.413999999999998  8.228 12.686  C 8.228 14.958000000000002  6.386 16.8  4.114 16.8  C 1.8419999999999996 16.8  0 14.957999999999998  0 12.686  Z " stroke-width="0" stroke-dasharray="0" stroke="rgba(255, 255, 255, 0)" fill="none" class="stroke" mask="url(#Clip7086)" />
    <path d="M 15.085999999999999 12.686  C 15.085999999999999 10.413999999999998  16.928 8.572  19.2 8.572  C 21.471999999999998 8.572  23.314 10.413999999999998  23.314 12.686  C 23.314 14.958000000000002  21.472 16.8  19.2 16.8  C 16.927999999999997 16.8  15.085999999999999 14.958000000000002  15.085999999999999 12.686  Z " stroke-width="0" stroke-dasharray="0" stroke="rgba(255, 255, 255, 0)" fill="none" class="stroke" mask="url(#Clip7086)" />
    <path d="M 30.172000000000004 12.686  C 30.172000000000004 10.413999999999998  32.014 8.572  34.286 8.572  C 36.558 8.572  38.4 10.413999999999998  38.4 12.686  C 38.4 14.958000000000002  36.558 16.8  34.286 16.8  C 32.014 16.8  30.172000000000004 14.958000000000002  30.172000000000004 12.686  Z " stroke-width="0" stroke-dasharray="0" stroke="rgba(255, 255, 255, 0)" fill="none" class="stroke" mask="url(#Clip7086)" />
  </g>
</svg>