<?xml version="1.0" encoding="utf-8"?>
<svg version="1.1" xmlns:xlink="http://www.w3.org/1999/xlink" width="48px" height="48px" xmlns="http://www.w3.org/2000/svg">
  <defs>
    <pattern id="BGPattern" patternUnits="userSpaceOnUse" alignment="0 0" imageRepeat="None" />
    <mask fill="white" id="Clip7269">
      <path d="M 48 24  C 48 10.744  37.256 0  24 0  C 10.744 0  0 10.744  0 24  C 0 37.256  10.744 48  24 48  C 37.256 48  48 37.256  48 24  Z M 35.2 24.000000000000007  L 31.128 24  C 31.128 20.064  27.936 16.872  24 16.872  C 20.064 16.872  16.872 20.062  16.872 24  C 16.872 27.936  20.062 31.128  24 31.128  L 24 35.2  C 17.814 35.2  12.8 30.186000000000003  12.8 24.000000000000007  C 12.8 17.814000000000004  17.814 12.800000000000004  24 12.800000000000004  C 30.186 12.800000000000004  35.2 17.814000000000004  35.2 24.000000000000007  Z M 42.666 23.999999999999996  L 38 24  C 38 16.268  31.732 10  24 10  C 16.268 10  10 16.268  10 24  C 10 31.732  16.268 38  24 38  L 24 42.666  C 13.690000000000001 42.666  5.334 34.30799999999999  5.334 23.999999999999996  C 5.334 13.689999999999994  13.692 5.333999999999996  24 5.333999999999996  C 34.31 5.333999999999996  42.666 13.691999999999997  42.666 23.999999999999996  Z " fill-rule="evenodd" />
    </mask>
  </defs>
  <g>
    <path d="M 48 24  C 48 10.744  37.256 0  24 0  C 10.744 0  0 10.744  0 24  C 0 37.256  10.744 48  24 48  C 37.256 48  48 37.256  48 24  Z M 35.2 24.000000000000007  L 31.128 24  C 31.128 20.064  27.936 16.872  24 16.872  C 20.064 16.872  16.872 20.062  16.872 24  C 16.872 27.936  20.062 31.128  24 31.128  L 24 35.2  C 17.814 35.2  12.8 30.186000000000003  12.8 24.000000000000007  C 12.8 17.814000000000004  17.814 12.800000000000004  24 12.800000000000004  C 30.186 12.800000000000004  35.2 17.814000000000004  35.2 24.000000000000007  Z M 42.666 23.999999999999996  L 38 24  C 38 16.268  31.732 10  24 10  C 16.268 10  10 16.268  10 24  C 10 31.732  16.268 38  24 38  L 24 42.666  C 13.690000000000001 42.666  5.334 34.30799999999999  5.334 23.999999999999996  C 5.334 13.689999999999994  13.692 5.333999999999996  24 5.333999999999996  C 34.31 5.333999999999996  42.666 13.691999999999997  42.666 23.999999999999996  Z " fill-rule="nonzero" fill="rgba(244, 62, 55, 1)" stroke="none" class="fill" />
    <path d="M 48 24  C 48 10.744  37.256 0  24 0  C 10.744 0  0 10.744  0 24  C 0 37.256  10.744 48  24 48  C 37.256 48  48 37.256  48 24  Z " stroke-width="0" stroke-dasharray="0" stroke="rgba(255, 255, 255, 0)" fill="none" class="stroke" mask="url(#Clip7269)" />
    <path d="M 35.2 24.000000000000007  L 31.128 24  C 31.128 20.064  27.936 16.872  24 16.872  C 20.064 16.872  16.872 20.062  16.872 24  C 16.872 27.936  20.062 31.128  24 31.128  L 24 35.2  C 17.814 35.2  12.8 30.186000000000003  12.8 24.000000000000007  C 12.8 17.814000000000004  17.814 12.800000000000004  24 12.800000000000004  C 30.186 12.800000000000004  35.2 17.814000000000004  35.2 24.000000000000007  Z " stroke-width="0" stroke-dasharray="0" stroke="rgba(255, 255, 255, 0)" fill="none" class="stroke" mask="url(#Clip7269)" />
    <path d="M 42.666 23.999999999999996  L 38 24  C 38 16.268  31.732 10  24 10  C 16.268 10  10 16.268  10 24  C 10 31.732  16.268 38  24 38  L 24 42.666  C 13.690000000000001 42.666  5.334 34.30799999999999  5.334 23.999999999999996  C 5.334 13.689999999999994  13.692 5.333999999999996  24 5.333999999999996  C 34.31 5.333999999999996  42.666 13.691999999999997  42.666 23.999999999999996  Z " stroke-width="0" stroke-dasharray="0" stroke="rgba(255, 255, 255, 0)" fill="none" class="stroke" mask="url(#Clip7269)" />
  </g>
</svg>