<?xml version="1.0" encoding="utf-8"?>
<svg version="1.1" xmlns:xlink="http://www.w3.org/1999/xlink" width="24px" height="24px" xmlns="http://www.w3.org/2000/svg">
  <defs>
    <pattern id="BGPattern" patternUnits="userSpaceOnUse" alignment="0 0" imageRepeat="None" />
    <mask fill="white" id="Clip4986">
      <path d="M 24 21  L 24 4.5  L 0 4.5  L 0 21  C 0 22.65685424949238  1.3431457505076196 24  3 24  L 21 24  C 22.65685424949238 24  24 22.65685424949238  24 21  Z M 21 0  L 3 0  C 1.3431457505076196 0  0 1.3431457505076196  0 3  L 24 3  C 24 1.3431457505076196  22.65685424949238 0  21 0  Z M 19.5 7.5  C 20.32842712474619 7.5  21 8.17157287525381  21 9  C 21 9.82842712474619  20.32842712474619 10.5  19.5 10.5  C 18.67157287525381 10.5  18 9.82842712474619  18 9  C 18 8.17157287525381  18.67157287525381 7.5  19.5 7.5  Z M 9 12  C 9.82842712474619 12  10.5 12.67157287525381  10.5 13.5  C 10.5 14.32842712474619  9.82842712474619 15  9 15  C 8.17157287525381 15  7.5 14.32842712474619  7.5 13.5  C 7.5 12.67157287525381  8.17157287525381 12  9 12  Z M 16.5 9  C 16.5 9.82842712474619  15.82842712474619 10.5  15 10.5  C 14.17157287525381 10.5  13.5 9.82842712474619  13.5 9  C 13.5 8.17157287525381  14.17157287525381 7.5  15 7.5  C 15.82842712474619 7.5  16.5 8.17157287525381  16.5 9  Z M 4.5 12  C 5.32842712474619 12  6 12.67157287525381  6 13.5  C 6 14.32842712474619  5.32842712474619 15  4.5 15  C 3.67157287525381 15  3 14.32842712474619  3 13.5  C 3 12.67157287525381  3.67157287525381 12  4.5 12  Z " fill-rule="evenodd" />
    </mask>
  </defs>
  <g>
    <path d="M 24 21  L 24 4.5  L 0 4.5  L 0 21  C 0 22.65685424949238  1.3431457505076196 24  3 24  L 21 24  C 22.65685424949238 24  24 22.65685424949238  24 21  Z M 21 0  L 3 0  C 1.3431457505076196 0  0 1.3431457505076196  0 3  L 24 3  C 24 1.3431457505076196  22.65685424949238 0  21 0  Z M 19.5 7.5  C 20.32842712474619 7.5  21 8.17157287525381  21 9  C 21 9.82842712474619  20.32842712474619 10.5  19.5 10.5  C 18.67157287525381 10.5  18 9.82842712474619  18 9  C 18 8.17157287525381  18.67157287525381 7.5  19.5 7.5  Z M 9 12  C 9.82842712474619 12  10.5 12.67157287525381  10.5 13.5  C 10.5 14.32842712474619  9.82842712474619 15  9 15  C 8.17157287525381 15  7.5 14.32842712474619  7.5 13.5  C 7.5 12.67157287525381  8.17157287525381 12  9 12  Z M 16.5 9  C 16.5 9.82842712474619  15.82842712474619 10.5  15 10.5  C 14.17157287525381 10.5  13.5 9.82842712474619  13.5 9  C 13.5 8.17157287525381  14.17157287525381 7.5  15 7.5  C 15.82842712474619 7.5  16.5 8.17157287525381  16.5 9  Z M 4.5 12  C 5.32842712474619 12  6 12.67157287525381  6 13.5  C 6 14.32842712474619  5.32842712474619 15  4.5 15  C 3.67157287525381 15  3 14.32842712474619  3 13.5  C 3 12.67157287525381  3.67157287525381 12  4.5 12  Z " fill-rule="nonzero" fill="rgba(0, 0, 0, 1)" stroke="none" class="fill" />
    <path d="M 24 21  L 24 4.5  L 0 4.5  L 0 21  C 0 22.65685424949238  1.3431457505076196 24  3 24  L 21 24  C 22.65685424949238 24  24 22.65685424949238  24 21  Z " stroke-width="0" stroke-dasharray="0" stroke="rgba(255, 255, 255, 0)" fill="none" class="stroke" mask="url(#Clip4986)" />
    <path d="M 21 0  L 3 0  C 1.3431457505076196 0  0 1.3431457505076196  0 3  L 24 3  C 24 1.3431457505076196  22.65685424949238 0  21 0  Z " stroke-width="0" stroke-dasharray="0" stroke="rgba(255, 255, 255, 0)" fill="none" class="stroke" mask="url(#Clip4986)" />
    <path d="M 19.5 7.5  C 20.32842712474619 7.5  21 8.17157287525381  21 9  C 21 9.82842712474619  20.32842712474619 10.5  19.5 10.5  C 18.67157287525381 10.5  18 9.82842712474619  18 9  C 18 8.17157287525381  18.67157287525381 7.5  19.5 7.5  Z " stroke-width="0" stroke-dasharray="0" stroke="rgba(255, 255, 255, 0)" fill="none" class="stroke" mask="url(#Clip4986)" />
    <path d="M 9 12  C 9.82842712474619 12  10.5 12.67157287525381  10.5 13.5  C 10.5 14.32842712474619  9.82842712474619 15  9 15  C 8.17157287525381 15  7.5 14.32842712474619  7.5 13.5  C 7.5 12.67157287525381  8.17157287525381 12  9 12  Z " stroke-width="0" stroke-dasharray="0" stroke="rgba(255, 255, 255, 0)" fill="none" class="stroke" mask="url(#Clip4986)" />
    <path d="M 16.5 9  C 16.5 9.82842712474619  15.82842712474619 10.5  15 10.5  C 14.17157287525381 10.5  13.5 9.82842712474619  13.5 9  C 13.5 8.17157287525381  14.17157287525381 7.5  15 7.5  C 15.82842712474619 7.5  16.5 8.17157287525381  16.5 9  Z " stroke-width="0" stroke-dasharray="0" stroke="rgba(255, 255, 255, 0)" fill="none" class="stroke" mask="url(#Clip4986)" />
    <path d="M 4.5 12  C 5.32842712474619 12  6 12.67157287525381  6 13.5  C 6 14.32842712474619  5.32842712474619 15  4.5 15  C 3.67157287525381 15  3 14.32842712474619  3 13.5  C 3 12.67157287525381  3.67157287525381 12  4.5 12  Z " stroke-width="0" stroke-dasharray="0" stroke="rgba(255, 255, 255, 0)" fill="none" class="stroke" mask="url(#Clip4986)" />
  </g>
</svg>