<?xml version="1.0" encoding="utf-8"?>
<svg version="1.1" xmlns:xlink="http://www.w3.org/1999/xlink" width="8px" height="18px" xmlns="http://www.w3.org/2000/svg">
  <defs>
    <pattern id="BGPattern" patternUnits="userSpaceOnUse" alignment="0 0" imageRepeat="None" />
    <mask fill="white" id="Clip6217">
      <path d="M 0 17.2455  L 0 0.375  C 1.363500000000002 0.375  4.782 1.4024999999999999  6.381 1.9080000000000013  C 6.907182590608784 2.0693360887445085  7.291401674084732 2.522082051437966  7.365000000000002 3.0675  C 8.585999999999999 12.703500000000002  1.1700000000000017 17.2455  0 17.2455  Z " fill-rule="evenodd" />
    </mask>
  </defs>
  <g transform="matrix(1 0 0 1 -11 -3 )">
    <path d="M 0 17.2455  L 0 0.375  C 1.363500000000002 0.375  4.782 1.4024999999999999  6.381 1.9080000000000013  C 6.907182590608784 2.0693360887445085  7.291401674084732 2.522082051437966  7.365000000000002 3.0675  C 8.585999999999999 12.703500000000002  1.1700000000000017 17.2455  0 17.2455  Z " fill-rule="nonzero" fill="rgba(0, 0, 0, 1)" stroke="none" transform="matrix(1 0 0 1 11 3 )" class="fill" />
    <path d="M 0 17.2455  L 0 0.375  C 1.363500000000002 0.375  4.782 1.4024999999999999  6.381 1.9080000000000013  C 6.907182590608784 2.0693360887445085  7.291401674084732 2.522082051437966  7.365000000000002 3.0675  C 8.585999999999999 12.703500000000002  1.1700000000000017 17.2455  0 17.2455  Z " stroke-width="0" stroke-dasharray="0" stroke="rgba(255, 255, 255, 0)" fill="none" transform="matrix(1 0 0 1 11 3 )" class="stroke" mask="url(#Clip6217)" />
  </g>
</svg>