<?xml version="1.0" encoding="utf-8"?>
<svg version="1.1" xmlns:xlink="http://www.w3.org/1999/xlink" width="48px" height="48px" xmlns="http://www.w3.org/2000/svg">
  <defs>
    <pattern id="BGPattern" patternUnits="userSpaceOnUse" alignment="0 0" imageRepeat="None" />
    <mask fill="white" id="Clip6663">
      <path d="M 0 24  C 0 10.8  10.8 0  24 0  C 37.2 0  48 10.8  48 24  C 48 37.2  37.2 48  24 48  C 10.8 48  0 37.2  0 24  Z M 19.08 30.120000000000005  C 22.439999999999998 32.64  27.240000000000002 32.04  29.879999999999995 28.68  C 32.52 25.32  32.16 20.52  28.799999999999997 18  C 25.56 15.48  20.76 16.08  18 19.44  C 15.36 22.8  15.72 27.6  19.08 30.120000000000005  Z M 26.28 35.52000000000001  L 17.04 44.28  C 18.48 44.88  21.599999999999998 45.480000000000004  23.16 45.480000000000004  L 33.6 30.360000000000007  C 36.96 25.320000000000007  36.120000000000005 18.480000000000004  31.44 14.760000000000009  C 27.240000000000002 11.400000000000007  21.36 11.520000000000007  17.160000000000004 14.760000000000009  L 2.640000000000004 25.92000000000001  C 3.000000000000004 29.760000000000012  4.080000000000004 31.680000000000007  4.080000000000004 31.80000000000001  L 12.360000000000003 22.800000000000008  C 11.760000000000003 26.760000000000012  13.200000000000003 30.84000000000001  16.560000000000002 33.36000000000001  C 19.44 35.64000000000001  22.92 36.24000000000001  26.28 35.52000000000001  Z " fill-rule="evenodd" />
    </mask>
  </defs>
  <g>
    <path d="M 0 24  C 0 10.8  10.8 0  24 0  C 37.2 0  48 10.8  48 24  C 48 37.2  37.2 48  24 48  C 10.8 48  0 37.2  0 24  Z M 19.08 30.120000000000005  C 22.439999999999998 32.64  27.240000000000002 32.04  29.879999999999995 28.68  C 32.52 25.32  32.16 20.52  28.799999999999997 18  C 25.56 15.48  20.76 16.08  18 19.44  C 15.36 22.8  15.72 27.6  19.08 30.120000000000005  Z M 26.28 35.52000000000001  L 17.04 44.28  C 18.48 44.88  21.599999999999998 45.480000000000004  23.16 45.480000000000004  L 33.6 30.360000000000007  C 36.96 25.320000000000007  36.120000000000005 18.480000000000004  31.44 14.760000000000009  C 27.240000000000002 11.400000000000007  21.36 11.520000000000007  17.160000000000004 14.760000000000009  L 2.640000000000004 25.92000000000001  C 3.000000000000004 29.760000000000012  4.080000000000004 31.680000000000007  4.080000000000004 31.80000000000001  L 12.360000000000003 22.800000000000008  C 11.760000000000003 26.760000000000012  13.200000000000003 30.84000000000001  16.560000000000002 33.36000000000001  C 19.44 35.64000000000001  22.92 36.24000000000001  26.28 35.52000000000001  Z " fill-rule="nonzero" fill="rgba(0, 179, 224, 1)" stroke="none" class="fill" />
    <path d="M 0 24  C 0 10.8  10.8 0  24 0  C 37.2 0  48 10.8  48 24  C 48 37.2  37.2 48  24 48  C 10.8 48  0 37.2  0 24  Z " stroke-width="0" stroke-dasharray="0" stroke="rgba(255, 255, 255, 0)" fill="none" class="stroke" mask="url(#Clip6663)" />
    <path d="M 19.08 30.120000000000005  C 22.439999999999998 32.64  27.240000000000002 32.04  29.879999999999995 28.68  C 32.52 25.32  32.16 20.52  28.799999999999997 18  C 25.56 15.48  20.76 16.08  18 19.44  C 15.36 22.8  15.72 27.6  19.08 30.120000000000005  Z " stroke-width="0" stroke-dasharray="0" stroke="rgba(255, 255, 255, 0)" fill="none" class="stroke" mask="url(#Clip6663)" />
    <path d="M 26.28 35.52000000000001  L 17.04 44.28  C 18.48 44.88  21.599999999999998 45.480000000000004  23.16 45.480000000000004  L 33.6 30.360000000000007  C 36.96 25.320000000000007  36.120000000000005 18.480000000000004  31.44 14.760000000000009  C 27.240000000000002 11.400000000000007  21.36 11.520000000000007  17.160000000000004 14.760000000000009  L 2.640000000000004 25.92000000000001  C 3.000000000000004 29.760000000000012  4.080000000000004 31.680000000000007  4.080000000000004 31.80000000000001  L 12.360000000000003 22.800000000000008  C 11.760000000000003 26.760000000000012  13.200000000000003 30.84000000000001  16.560000000000002 33.36000000000001  C 19.44 35.64000000000001  22.92 36.24000000000001  26.28 35.52000000000001  Z " stroke-width="0" stroke-dasharray="0" stroke="rgba(255, 255, 255, 0)" fill="none" class="stroke" mask="url(#Clip6663)" />
  </g>
</svg>