<?xml version="1.0" encoding="utf-8"?>
<svg version="1.1" xmlns:xlink="http://www.w3.org/1999/xlink" width="10px" height="12px" xmlns="http://www.w3.org/2000/svg">
  <defs>
    <pattern id="BGPattern" patternUnits="userSpaceOnUse" alignment="0 0" imageRepeat="None" />
    <mask fill="white" id="Clip5480">
      <path d="M 1.8260000000000005 1.0184999999999995  L 1.8260000000000005 1.0199999999999996  C 1.6837297394232138 0.8406947378342124  1.4673679302781952 0.7361720169672381  1.2384766808060306 0.7361720169672381  C 0.8242631184329365 0.7361720169672381  0.48847668080603146 1.0719584545941423  0.48847668080603146 1.486172016967238  C 0.48847668080603146 1.6678162840722237  0.5543986372614409 1.8432880626895098  0.6740000000000013 1.9799999999999986  L 4.0235 6  L 0.6739999999999995 10.02  C 0.5687858989789003 10.152602849609195  0.511523319193957 10.31689850226942  0.511523319193957 10.486172016967252  C 0.511523319193957 10.900385579340348  0.8473097568208612 11.236172016967252  1.261523319193957 11.236172016967252  C 1.4778186572713636 11.236172016967252  1.6835830792771311 11.142791566015674  1.8259999999999987 10.98  L 5 7.171500000000002  L 8.174 10.981500000000004  C 8.316547753616668 11.152290444270832  8.527538232688434 11.251014328420329  8.75 11.251014328420329  C 9.164359546928587 11.251014328420329  9.500264328420325 10.91510954692859  9.500264328420325 10.500750000000004  C 9.500264328420325 10.325037811016426  9.438591831510522 10.154899417472826  9.326 10.020000000000003  L 5.9765 6  L 9.326 1.9800000000000004  C 9.431214101021098 1.8473971503908047  9.488476680806045 1.6831014977305792  9.488476680806045 1.5138279830327477  C 9.488476680806045 1.0996144206596519  9.15269024317914 0.7638279830327477  8.738476680806045 0.7638279830327477  C 8.52218134272864 0.7638279830327477  8.316416920722869 0.8572084339843276  8.174 1.0200000000000014  L 5 4.828499999999998  L 1.8260000000000005 1.0184999999999995  Z " fill-rule="evenodd" />
    </mask>
  </defs>
  <g transform="matrix(1 0 0 1 -4 -9 )">
    <path d="M 1.8260000000000005 1.0184999999999995  L 1.8260000000000005 1.0199999999999996  C 1.6837297394232138 0.8406947378342124  1.4673679302781952 0.7361720169672381  1.2384766808060306 0.7361720169672381  C 0.8242631184329365 0.7361720169672381  0.48847668080603146 1.0719584545941423  0.48847668080603146 1.486172016967238  C 0.48847668080603146 1.6678162840722237  0.5543986372614409 1.8432880626895098  0.6740000000000013 1.9799999999999986  L 4.0235 6  L 0.6739999999999995 10.02  C 0.5687858989789003 10.152602849609195  0.511523319193957 10.31689850226942  0.511523319193957 10.486172016967252  C 0.511523319193957 10.900385579340348  0.8473097568208612 11.236172016967252  1.261523319193957 11.236172016967252  C 1.4778186572713636 11.236172016967252  1.6835830792771311 11.142791566015674  1.8259999999999987 10.98  L 5 7.171500000000002  L 8.174 10.981500000000004  C 8.316547753616668 11.152290444270832  8.527538232688434 11.251014328420329  8.75 11.251014328420329  C 9.164359546928587 11.251014328420329  9.500264328420325 10.91510954692859  9.500264328420325 10.500750000000004  C 9.500264328420325 10.325037811016426  9.438591831510522 10.154899417472826  9.326 10.020000000000003  L 5.9765 6  L 9.326 1.9800000000000004  C 9.431214101021098 1.8473971503908047  9.488476680806045 1.6831014977305792  9.488476680806045 1.5138279830327477  C 9.488476680806045 1.0996144206596519  9.15269024317914 0.7638279830327477  8.738476680806045 0.7638279830327477  C 8.52218134272864 0.7638279830327477  8.316416920722869 0.8572084339843276  8.174 1.0200000000000014  L 5 4.828499999999998  L 1.8260000000000005 1.0184999999999995  Z " fill-rule="nonzero" fill="rgba(0, 0, 0, 1)" stroke="none" transform="matrix(1 0 0 1 4 9 )" class="fill" />
    <path d="M 1.8260000000000005 1.0184999999999995  L 1.8260000000000005 1.0199999999999996  C 1.6837297394232138 0.8406947378342124  1.4673679302781952 0.7361720169672381  1.2384766808060306 0.7361720169672381  C 0.8242631184329365 0.7361720169672381  0.48847668080603146 1.0719584545941423  0.48847668080603146 1.486172016967238  C 0.48847668080603146 1.6678162840722237  0.5543986372614409 1.8432880626895098  0.6740000000000013 1.9799999999999986  L 4.0235 6  L 0.6739999999999995 10.02  C 0.5687858989789003 10.152602849609195  0.511523319193957 10.31689850226942  0.511523319193957 10.486172016967252  C 0.511523319193957 10.900385579340348  0.8473097568208612 11.236172016967252  1.261523319193957 11.236172016967252  C 1.4778186572713636 11.236172016967252  1.6835830792771311 11.142791566015674  1.8259999999999987 10.98  L 5 7.171500000000002  L 8.174 10.981500000000004  C 8.316547753616668 11.152290444270832  8.527538232688434 11.251014328420329  8.75 11.251014328420329  C 9.164359546928587 11.251014328420329  9.500264328420325 10.91510954692859  9.500264328420325 10.500750000000004  C 9.500264328420325 10.325037811016426  9.438591831510522 10.154899417472826  9.326 10.020000000000003  L 5.9765 6  L 9.326 1.9800000000000004  C 9.431214101021098 1.8473971503908047  9.488476680806045 1.6831014977305792  9.488476680806045 1.5138279830327477  C 9.488476680806045 1.0996144206596519  9.15269024317914 0.7638279830327477  8.738476680806045 0.7638279830327477  C 8.52218134272864 0.7638279830327477  8.316416920722869 0.8572084339843276  8.174 1.0200000000000014  L 5 4.828499999999998  L 1.8260000000000005 1.0184999999999995  Z " stroke-width="0" stroke-dasharray="0" stroke="rgba(255, 255, 255, 0)" fill="none" transform="matrix(1 0 0 1 4 9 )" class="stroke" mask="url(#Clip5480)" />
  </g>
</svg>