<?xml version="1.0" encoding="utf-8"?>
<svg version="1.1" xmlns:xlink="http://www.w3.org/1999/xlink" width="9px" height="4px" xmlns="http://www.w3.org/2000/svg">
  <defs>
    <pattern id="BGPattern" patternUnits="userSpaceOnUse" alignment="0 0" imageRepeat="None" />
    <mask fill="white" id="Clip5891">
      <path d="M 5.969000000000001 3.030999999999999  L 4.689499999999999 1.75  L 0.5 1.75  L 0.5 0.25  L 8 0.25  C 8.414213562373096 0.25  8.75 0.5857864376269042  8.75 1  L 8.75 2.5  C 8.75 2.914213562373096  8.414213562373096 3.25  8 3.25  L 6.5 3.25  C 6.300951704516624 3.250355494551588  6.109926100506456 3.1715709234061507  5.969000000000001 3.030999999999999  Z " fill-rule="evenodd" />
    </mask>
  </defs>
  <g transform="matrix(1 0 0 1 -13 -7 )">
    <path d="M 5.969000000000001 3.030999999999999  L 4.689499999999999 1.75  L 0.5 1.75  L 0.5 0.25  L 8 0.25  C 8.414213562373096 0.25  8.75 0.5857864376269042  8.75 1  L 8.75 2.5  C 8.75 2.914213562373096  8.414213562373096 3.25  8 3.25  L 6.5 3.25  C 6.300951704516624 3.250355494551588  6.109926100506456 3.1715709234061507  5.969000000000001 3.030999999999999  Z " fill-rule="nonzero" fill="rgba(0, 0, 0, 1)" stroke="none" transform="matrix(1 0 0 1 13 7 )" class="fill" />
    <path d="M 5.969000000000001 3.030999999999999  L 4.689499999999999 1.75  L 0.5 1.75  L 0.5 0.25  L 8 0.25  C 8.414213562373096 0.25  8.75 0.5857864376269042  8.75 1  L 8.75 2.5  C 8.75 2.914213562373096  8.414213562373096 3.25  8 3.25  L 6.5 3.25  C 6.300951704516624 3.250355494551588  6.109926100506456 3.1715709234061507  5.969000000000001 3.030999999999999  Z " stroke-width="0" stroke-dasharray="0" stroke="rgba(255, 255, 255, 0)" fill="none" transform="matrix(1 0 0 1 13 7 )" class="stroke" mask="url(#Clip5891)" />
  </g>
</svg>